/* XPM */
static char * copy_xpm[] = {
"16 16 5 1",
" 	c None",
".	c #030353",
"+	c #FEFEFE",
"@	c #8DA68D",
"#	c #FFFFFF",
"                ",
" ..........     ",
" .++++++++.     ",
" .++.......     ",
" .++.+++++..    ",
" .++.+++++.+.   ",
" .++.+++++....  ",
" .++.+@@@++++.  ",
" .++.++++#+++.  ",
" .++.#@@@@@@+.  ",
" .++.########.  ",
" .++.#@@@@@@#.  ",
" ....######++.  ",
"    .#+++++++.  ",
"    ..........  ",
"                "};

