/* XPM */
static char * cut_xpm[] = {
"16 16 15 1",
" 	c None",
".	c #595959",
"+	c #000000",
"@	c #FFFFFF",
"#	c #9F9FA2",
"$	c #2E3192",
"%	c #003399",
"&	c #403C64",
"*	c #1C63A3",
"=	c #6766CC",
"-	c #DADADA",
";	c #8D8F8E",
">	c #818181",
",	c #333367",
"'	c #0082D6",
"                ",
"           ..+  ",
"          .@+#  ",
" $%%     .@+#   ",
"%%&&&   .@+#    ",
"%%  ** .@+#     ",
"%%====.-;>>>>>>>",
" %,,=='--------.",
"    *$%........ ",
"    $%'         ",
"   $% '&        ",
"  $%  '&        ",
"  $='''&        ",
"  $===&         ",
"   &&&          ",
"                "};
