/* XPM */ 
static char * help_xpm[] = {
"16 16 6 1",
" 	c None",
"!	c black",
"#	c #3F4274",
"$	c #525483",
"%	c #63669D",
"&	c white",
"                ",
"      ####      ",
"    ##$$$$##    ",
"   #$%%%%%%$#   ",
"  #$%%%&&%%%$#  ",
"  #%%%%&&%%%%#  ",
" #$%%%%%%%%%%$# ",
" #$%%%&&&%%%%$# ",
" #$%%%%&&%%%%$# ",
" #$%%%%&&%%%%$# ",
"  #%%%%&&%%%%#  ",
"  #$%%&&&&%%$#  ",
"   #$%%%%%%$#   ",
"    ##$$$$##    ",
"      ####      ",
"                "};
