/* XPM */ 
static char * open_xpm[] = {
"16 16 62 1",
" 	c None",
"!	c black",
"#	c #444444",
"$	c #373739",
"%	c white",
"&	c #8DA68D",
"'	c #6D4800",
"(	c #CC9900",
")	c #B58200",
"*	c #AD7900",
"+	c #A57100",
",	c #EAE37B",
"-	c #EFEF89",
".	c #EFF08A",
"0	c #EDEC85",
"1	c #ECEA81",
"2	c #EAE57A",
"3	c #E7DF71",
"4	c #E3D866",
"5	c #E0D15C",
"6	c #DBC84E",
"7	c #9F6B00",
"8	c #EBE77F",
"9	c #EDEC84",
":	c #EAE67B",
";	c #E7E072",
"<	c #E3D867",
"=	c #E0D05B",
">	c #D7BF41",
"?	c #E2C644",
"@	c #9A6600",
"A	c #E8E174",
"B	c #E5DC6C",
"C	c #E2D461",
"D	c #DDCC54",
"E	c #D9C447",
"F	c #D5BB3A",
"G	c #E0C13C",
"H	c #DBB92F",
"I	c #D8B224",
"J	c #D8B022",
"K	c #E2CE63",
"L	c #DCCA51",
"M	c #E2C543",
"N	c #DEBD36",
"O	c #D9B529",
"P	c #D6AD1E",
"Q	c #D2A613",
"R	c #CFA00A",
"S	c #CE9E07",
"T	c #D9BF43",
"U	c #D8B123",
"V	c #D4A918",
"W	c #D1A30F",
"X	c #CE9D06",
"Y	c #CC9901",
"Z	c #CC9A02",
"[	c #E4C542",
"]	c #D8B124",
"^	c #D5AB1B",
"_	c #D1A30E",
"`	c #CF9F09",
"                ",
"   #########$   ",
"   #%%%%%%%%$   ",
"   #%&&&&&&%$   ",
" ''#%%%%%%%%#'' ",
" '(#%&&&&&&%#)' ",
" '(#%%%%%%%%#*' ",
"'''''''''''%#+' ",
"',-.0123456'#7' ",
"'8.9:;<=6>?'#@' ",
" 'ABCDEFGHIJ'@' ",
" 'KL>MNOPQRS'@' ",
"  'THUVWX((YZ'' ",
"  '[]^Q_`((ZZ'' ",
"   '''''''''''  ",
"                "};
