/* XPM */
static char * pref_xpm[] = {
"16 16 9 1",
" 	c None",
".	c #7D4900",
"+	c #333367",
"@	c #CC9804",
"#	c #DBC84E",
"$	c #0066CB",
"%	c #030353",
"&	c #FFFFFF",
"*	c #362F2D",
"                ",
"       ..... +++",
"      .@.###.$$$",
"     .@.@.@@@$$$",
"%%%%.@.#.@.@@$$$",
"%&&.#.&.#.@**$$$",
"%&&&.&&&.#*&%+++",
"%&&&&&&&&*&&%   ",
"%&&&&&&&&&&&%   ",
"%&%%&%%%%%&&%   ",
"%&&&&&&&&&&&%   ",
"%&%%&%%%%%&&%   ",
"%&&&&&&&&&&&%   ",
"%&&&&&&&&&&&%   ",
"%%%%%%%%%%%%%   ",
"                "};
