/* XPM */
static char * print_xpm[] = {
"16 16 22 1",
" 	c None",
".	c #303132",
"+	c #FFFFFF",
"@	c #8DA68D",
"#	c #E6E6E6",
"$	c #DADADA",
"%	c #F1F1F1",
"&	c #F0F0F0",
"*	c #EBEBEB",
"=	c #E7E7E7",
"-	c #DBDBDB",
";	c #D3D3D3",
">	c #CDCDCD",
",	c #C2C2C2",
"'	c #EAEAEA",
")	c #D2D2D2",
"!	c #CECECE",
"~	c #65CC33",
"{	c #009900",
"]	c #C3C3C3",
"^	c #C1C1C1",
"/	c #C4C4C4",
"                ",
"    ........    ",
"    .++++++.    ",
"    .+@@@@+.    ",
"    .++++++.    ",
"    .+@@@@+.    ",
"   ..++++++..   ",
"  .+.######.$.  ",
" .............. ",
" .++%&*=-$;;>,. ",
" .+%&'*--);!!,. ",
" .+%'*-$);!~{,. ",
" .-,]^]/,/]]//. ",
" .],^],^^,,^]]. ",
" .............. ",
"                "};
