/* XPM */ 
static char * save_xpm[] = {
"16 16 20 1",
" 	c None",
"!	c black",
"#	c #2E3192",
"$	c #403C64",
"%	c #DCDCDC",
"&	c #C8D0DD",
"'	c #9F9FA2",
"(	c #D6D6D9",
")	c white",
"*	c #CECDD4",
"+	c #C4C2CF",
",	c #B8B7C8",
"-	c #ACAAC2",
".	c #A09DBB",
"0	c #9490B4",
"1	c #8883AE",
"2	c #7C78A7",
"3	c #726DA2",
"4	c #6A649D",
"5	c #9A9A9A",
"                ",
"##############$ ",
"#%#&&&&&&&&&#%$'",
"#(#&))))))))#($'",
"#*#&))))))))#*$'",
"#+#&))))))))#+$'",
"#,#&))))))))#,$'",
"#-#&))))))))#-$'",
"#.###########.$'",
"#0000000000000$'",
"#11#########11$'",
"#22#&&&&&&&#22$'",
"#33#&$)))))#33$'",
"#44#&))))))#44$'",
"5$$$$$$$$$$$$$$'",
" '''''''''''''''"};
