/* XPM */ 
static char * stop_xpm[] = {
"16 16 18 1",
" 	c None",
"!	c black",
"#	c #810505",
"$	c #8D0505",
"%	c #950606",
"&	c #D23333",
"'	c #D83939",
"(	c #870B0B",
")	c #D42F2F",
"*	c #EC2525",
"+	c #F31212",
",	c #F33F3F",
"-	c #FCC2C2",
".	c #F73636",
"0	c #F60E0E",
"1	c white",
"2	c #FDD6D6",
"3	c #FEEAEA",
"                ",
"      #$$#      ",
"    #%&''&%#    ",
"   ()*++++*)(   ",
"  #),-.00.-,)#  ",
"  %*-12..21-*%  ",
" #&+.213312.+&# ",
" $'+0.3113.0+'$ ",
" $'+0.3113.0+'$ ",
" #&+.213312.+&# ",
"  %*-12..21-*%  ",
"  #),-.00.-,)#  ",
"   ()*++++*)(   ",
"    #%&''&%#    ",
"      #$$#      ",
"                "};
