/* XPM */
static char * wxmaxima_16_xpm[] = {
"16 16 174 2",
"  	c None",
". 	c #4B788C",
"+ 	c #4D7B8E",
"@ 	c #4E7B8F",
"# 	c #609AB0",
"$ 	c #6CAAC3",
"% 	c #74ADC5",
"& 	c #78B1C8",
"* 	c #74AEC6",
"= 	c #6BA9C3",
"- 	c #6AA7C1",
"; 	c #5F96AE",
"> 	c #294170",
", 	c #3A5D89",
"' 	c #73ADC5",
") 	c #87BACD",
"! 	c #94BFD2",
"~ 	c #5367A2",
"{ 	c #5062AF",
"] 	c #455BA9",
"^ 	c #344DA5",
"/ 	c #2B44A0",
"( 	c #1C2D77",
"_ 	c #401850",
": 	c #643153",
"< 	c #622968",
"[ 	c #585991",
"} 	c #AACDDC",
"| 	c #7485B1",
"1 	c #4A4AC9",
"2 	c #44537E",
"3 	c #5E7188",
"4 	c #6F3E53",
"5 	c #632F56",
"6 	c #441157",
"7 	c #5F98AE",
"8 	c #41426A",
"9 	c #9C152E",
"0 	c #B50A0E",
"a 	c #A64950",
"b 	c #B9D6E1",
"c 	c #C1DBE5",
"d 	c #7681B0",
"e 	c #5F61CC",
"f 	c #973846",
"g 	c #AD0F10",
"h 	c #C3171A",
"i 	c #432F56",
"j 	c #5F92AA",
"k 	c #415A9F",
"l 	c #952836",
"m 	c #7D2B3C",
"n 	c #B71C23",
"o 	c #C0D6E0",
"p 	c #D5E6EE",
"q 	c #C5DCE6",
"r 	c #727BB1",
"s 	c #AB162B",
"t 	c #7B2E3A",
"u 	c #B52226",
"v 	c #4A7689",
"w 	c #486694",
"x 	c #8E2642",
"y 	c #8A4867",
"z 	c #AC323C",
"A 	c #A88E94",
"B 	c #CBE2EA",
"C 	c #917A82",
"D 	c #9B2843",
"E 	c #753755",
"F 	c #B1242A",
"G 	c #4B768A",
"H 	c #4E7C91",
"I 	c #5E92AE",
"J 	c #3C4C87",
"K 	c #A03D44",
"L 	c #995F69",
"M 	c #9B6E78",
"N 	c #AE5B61",
"O 	c #B7D6E2",
"P 	c #B3D2DF",
"Q 	c #9B4953",
"R 	c #683C59",
"S 	c #87535E",
"T 	c #AF272D",
"U 	c #4E7C8E",
"V 	c #4E7C90",
"W 	c #43629C",
"X 	c #4B68A1",
"Y 	c #9D3942",
"Z 	c #8F5A64",
"` 	c #89AABB",
" .	c #B1393E",
"..	c #93A8B5",
"+.	c #8194A4",
"@.	c #962434",
"#.	c #7399AF",
"$.	c #83515C",
"%.	c #5483A6",
"&.	c #3D6196",
"*.	c #4D7B8F",
"=.	c #42639C",
"-.	c #3E4AAA",
";.	c #922A37",
">.	c #7A424E",
",.	c #73A5BB",
"'.	c #9A4C54",
").	c #865965",
"!.	c #6F3859",
"~.	c #80374A",
"{.	c #5072A5",
"].	c #713855",
"^.	c #A2192A",
"/.	c #15239C",
"(.	c #416696",
"_.	c #4B7689",
":.	c #65A2BC",
"<.	c #2E399C",
"[.	c #881B4F",
"}.	c #782F6A",
"|.	c #585CB7",
"1.	c #64596C",
"2.	c #981525",
"3.	c #971635",
"4.	c #48307E",
"5.	c #2E30A5",
"6.	c #58115A",
"7.	c #92032B",
"8.	c #04068F",
"9.	c #598CA9",
"0.	c #6D6777",
"a.	c #BE171B",
"b.	c #AA272D",
"c.	c #4F4C6C",
"d.	c #49679E",
"e.	c #B61C21",
"f.	c #B22026",
"g.	c #6AA6BE",
"h.	c #6A7B8E",
"i.	c #9D3138",
"j.	c #C3171B",
"k.	c #6D6A7B",
"l.	c #5D92A8",
"m.	c #785D6C",
"n.	c #6B3C55",
"o.	c #5C2B58",
"p.	c #492A61",
"q.	c #5079A6",
"r.	c #747488",
"s.	c #78798D",
"t.	c #69A6C0",
"u.	c #756A7A",
"v.	c #835A67",
"w.	c #7E5360",
"x.	c #7E5564",
"y.	c #426979",
"z.	c #4D78A7",
"A.	c #1D2E9F",
"B.	c #395B9B",
"C.	c #6AA7C0",
"D.	c #68A6C0",
"E.	c #6AA3BF",
"F.	c #6AA7BF",
"G.	c #69A5BE",
"H.	c #6AA8C2",
"I.	c #426878",
"J.	c #629AB3",
"K.	c #6AA4C0",
"L.	c #6AA5BF",
"M.	c #6AA6C0",
"N.	c #6AA8C1",
"O.	c #5E94AB",
"P.	c #4B788A",
"Q.	c #4E7A8F",
"            . + @ .             ",
"        # $ % & * = - ;         ",
"    > , ' ) ! ~ { ] ^ / / (     ",
"    _ : < [ } | 1 2 3 4 5 6     ",
"  7 8 9 0 a b c d e f g h i j   ",
"  - k l m n o p q r s t u - -   ",
"v - w x y z A B c C D E F - - G ",
"H I J K L M N O P Q R S T - - U ",
"V W X Y Z `  ...+.@.#.$.T %.&.*.",
"v =.-.;.>.,.'.).!.~.{.].^./.(._.",
"  :.<.[.}.|.1.2.3.4.5.6.7.8.9.  ",
"  ; 0.a.b.c.d.e.f.g.h.i.j.k.l.  ",
"    m.n.o.p.q.r.s.t.u.v.w.x.    ",
"    y.z.A.B.C.D.E.F.G.C.H.I.    ",
"        J.K.L.M.N.- - O.        ",
"            P.Q.Q.P.            "};
