/* XPM */
static char * wxmaxima_32_xpm[] = {
"32 32 554 2",
"  	c None",
". 	c #283D49",
"+ 	c #314D5A",
"@ 	c #375864",
"# 	c #365663",
"$ 	c #375663",
"% 	c #22353F",
"& 	c #3F6271",
"* 	c #67A2BC",
"= 	c #6AA7C1",
"- 	c #65A2BA",
"; 	c #3D626F",
"> 	c #23363D",
", 	c #416879",
"' 	c #6BA8C2",
") 	c #6FACC4",
"! 	c #71ACC4",
"~ 	c #70ABC4",
"{ 	c #6FAAC4",
"] 	c #6BA9C3",
"^ 	c #416877",
"/ 	c #273F49",
"( 	c #69A8C2",
"_ 	c #69A8C0",
": 	c #6EA9C3",
"< 	c #79B0C8",
"[ 	c #7EB4C9",
"} 	c #82B6CB",
"| 	c #83B6CB",
"1 	c #80B4CB",
"2 	c #7DB3C9",
"3 	c #76AFC6",
"4 	c #6CA9C3",
"5 	c #2E4954",
"6 	c #365563",
"7 	c #38587D",
"8 	c #5D95AE",
"9 	c #6BA9C1",
"0 	c #75AEC5",
"a 	c #7FB3C9",
"b 	c #85B6CC",
"c 	c #8BBBD0",
"d 	c #8EBDD0",
"e 	c #91BFD2",
"f 	c #8BBACF",
"g 	c #83B7CC",
"h 	c #7DB3CA",
"i 	c #73ACC6",
"j 	c #375765",
"k 	c #2E4C5B",
"l 	c #0F1862",
"m 	c #182460",
"n 	c #5A8CA8",
"o 	c #76AEC5",
"p 	c #8ABBCE",
"q 	c #92BFD2",
"r 	c #96C1D4",
"s 	c #9AC4D5",
"t 	c #2E385F",
"u 	c #2F3588",
"v 	c #2E3486",
"w 	c #2B3285",
"x 	c #293085",
"y 	c #232983",
"z 	c #1F2581",
"A 	c #191F80",
"B 	c #11197D",
"C 	c #0C137B",
"D 	c #10184E",
"E 	c #2A434D",
"F 	c #223675",
"G 	c #10187F",
"H 	c #6FA5BB",
"I 	c #3F5581",
"J 	c #344083",
"K 	c #394486",
"L 	c #7C9CB2",
"M 	c #A2C9D8",
"N 	c #A7CBDB",
"O 	c #7B94AB",
"P 	c #3E41A1",
"Q 	c #4646D4",
"R 	c #3C3CBE",
"S 	c #2F395C",
"T 	c #52698D",
"U 	c #4C6289",
"V 	c #445D85",
"W 	c #385581",
"X 	c #2F4979",
"Y 	c #233975",
"Z 	c #0D167E",
"` 	c #0000BE",
" .	c #19287A",
"..	c #284049",
"+.	c #4F182C",
"@.	c #74062F",
"#.	c #740E1B",
"$.	c #710B22",
"%.	c #6D0F3B",
"&.	c #6F1243",
"*.	c #4A2470",
"=.	c #687E98",
"-.	c #ACCFDC",
";.	c #B2D2DF",
">.	c #B3D2DF",
",.	c #6E809A",
"'.	c #4E50B8",
").	c #5555D8",
"!.	c #4446A9",
"~.	c #6C87A1",
"{.	c #75616D",
"].	c #8A2C32",
"^.	c #7E242B",
"/.	c #7E242A",
"(.	c #7C2329",
"_.	c #610625",
":.	c #4F0A20",
"<.	c #5F95AD",
"[.	c #565865",
"}.	c #36162F",
"|.	c #4F1044",
"1.	c #F50000",
"2.	c #AD0308",
"3.	c #F70000",
"4.	c #971014",
"5.	c #A0C5D4",
"6.	c #B4D3E0",
"7.	c #B8D5E2",
"8.	c #BDD9E4",
"9.	c #BDD7E3",
"0.	c #626E8B",
"a.	c #6161CE",
"b.	c #6060DB",
"c.	c #464A99",
"d.	c #7C9EB2",
"e.	c #9A181C",
"f.	c #F20000",
"g.	c #90090A",
"h.	c #FF0000",
"i.	c #92191E",
"j.	c #451936",
"k.	c #2E133C",
"l.	c #3F6574",
"m.	c #23363F",
"n.	c #28337C",
"o.	c #282F60",
"p.	c #DA0000",
"q.	c #94181A",
"r.	c #A91516",
"s.	c #EC0808",
"t.	c #82767F",
"u.	c #BAD7E2",
"v.	c #C0D9E4",
"w.	c #C5DDE6",
"x.	c #C6DEE7",
"y.	c #C0D9E3",
"z.	c #586084",
"A.	c #6F6FDC",
"B.	c #6767DD",
"C.	c #422F53",
"D.	c #E80607",
"E.	c #9D1518",
"F.	c #90181B",
"G.	c #6B3A43",
"H.	c #50809E",
"I.	c #3C5F89",
"J.	c #21363D",
"K.	c #3D6172",
"L.	c #2D318B",
"M.	c #3A4C66",
"N.	c #D90000",
"O.	c #9B1C1F",
"P.	c #7D3C40",
"Q.	c #F60D0E",
"R.	c #8C4145",
"S.	c #C1DBE6",
"T.	c #CADFE9",
"U.	c #CFE2EB",
"V.	c #CEE2EB",
"W.	c #C8DEE8",
"X.	c #B7D1DB",
"Y.	c #5B618D",
"Z.	c #7676E1",
"`.	c #732650",
" +	c #EF070B",
".+	c #733D44",
"++	c #941B1F",
"@+	c #6B3943",
"#+	c #3B5F6D",
"$+	c #333D84",
"%+	c #333B63",
"&+	c #D60203",
"*+	c #8B111D",
"=+	c #564980",
"-+	c #C8101C",
";+	c #A51219",
">+	c #ACBDC6",
",+	c #D5E6ED",
"'+	c #D3E6ED",
")+	c #CBDFE9",
"!+	c #C1DBE5",
"~+	c #A0B8C4",
"{+	c #57598D",
"]+	c #A4182F",
"^+	c #BB0E1F",
"/+	c #424565",
"(+	c #901E22",
"_+	c #FD0303",
":+	c #649FB9",
"<+	c #3B5876",
"[+	c #413F8E",
"}+	c #D20509",
"|+	c #911E35",
"1+	c #8C8CE8",
"2+	c #8A2C44",
"3+	c #DE161C",
"4+	c #87676B",
"5+	c #C9DFE9",
"6+	c #BFD9E4",
"7+	c #B7D5E1",
"8+	c #65464F",
"9+	c #DB1626",
"0+	c #77244C",
"a+	c #494BAD",
"b+	c #88191D",
"c+	c #FA0607",
"d+	c #6A3943",
"e+	c #283E46",
"f+	c #324D59",
"g+	c #52819D",
"h+	c #373E84",
"i+	c #383E67",
"j+	c #CD0608",
"k+	c #88171D",
"l+	c #64738D",
"m+	c #614249",
"n+	c #E92D30",
"o+	c #8E3F42",
"p+	c #C0D8E3",
"q+	c #C4DBE6",
"r+	c #C1DCE6",
"s+	c #BAD6E3",
"t+	c #8A3B3F",
"u+	c #D3171C",
"v+	c #5B3D79",
"w+	c #3E4A77",
"x+	c #8C2126",
"y+	c #F7080A",
"z+	c #693B44",
"A+	c #304C56",
"B+	c #355461",
"C+	c #67A5BE",
"D+	c #313B79",
"E+	c #354572",
"F+	c #588093",
"G+	c #D10A0B",
"H+	c #932427",
"I+	c #9CC5D6",
"J+	c #96B5C2",
"K+	c #A63134",
"L+	c #D2383A",
"M+	c #8C9199",
"N+	c #BBD7E2",
"O+	c #BCD8E3",
"P+	c #B9D6E3",
"Q+	c #B4D2DF",
"R+	c #808A94",
"S+	c #C72F31",
"T+	c #831A27",
"U+	c #444D7A",
"V+	c #7AAAC0",
"W+	c #8B2226",
"X+	c #F60A0C",
"Y+	c #693C44",
"Z+	c #365562",
"`+	c #385865",
" @	c #406182",
".@	c #303483",
"+@	c #5F98B1",
"@@	c #537F92",
"#@	c #D10A0C",
"$@	c #912427",
"%@	c #94C0D2",
"&@	c #9EC6D6",
"*@	c #7F4A4F",
"=@	c #E83B40",
"-@	c #80565C",
";@	c #B1D1DF",
">@	c #ABCDDC",
",@	c #765056",
"'@	c #C8212C",
")@	c #59283F",
"!@	c #78A2B6",
"~@	c #7BB1C9",
"{@	c #872226",
"]@	c #F50B0E",
"^@	c #683C45",
"/@	c #375866",
"(@	c #31427F",
"_@	c #364186",
":@	c #517D91",
"<@	c #D00A0B",
"[@	c #8F2427",
"}@	c #8DBCD0",
"|@	c #727983",
"1@	c #D13539",
"2@	c #99393E",
"3@	c #9BB9C6",
"4@	c #A9CDDC",
"5@	c #A6CBDA",
"6@	c #95B8C7",
"7@	c #7E212B",
"8@	c #AA1E31",
"9@	c #5C6776",
"0@	c #872026",
"a@	c #5D94AD",
"b@	c #34527B",
"c@	c #2D3A82",
"d@	c #333E86",
"e@	c #D0090A",
"f@	c #8E2024",
"g@	c #83B8CD",
"h@	c #90BDCF",
"i@	c #87363B",
"j@	c #DD393F",
"k@	c #6D646C",
"l@	c #9CC4D5",
"m@	c #4E3C4A",
"n@	c #C0233A",
"o@	c #6F2A30",
"p@	c #80B4CA",
"q@	c #72ADC4",
"r@	c #882025",
"s@	c #2E4875",
"t@	c #192776",
"u@	c #2C3981",
"v@	c #32369D",
"w@	c #5686A3",
"x@	c #D10709",
"y@	c #8E1F24",
"z@	c #75ACC5",
"A@	c #7EB3C8",
"B@	c #83B3CA",
"C@	c #69515A",
"D@	c #DF3238",
"E@	c #7B3D44",
"F@	c #8BB7CA",
"G@	c #607791",
"H@	c #67243D",
"I@	c #CC2229",
"J@	c #615660",
"K@	c #71A8C0",
"L@	c #69A3BC",
"M@	c #68A6C1",
"N@	c #892327",
"O@	c #F7090A",
"P@	c #693B45",
"Q@	c #598CA8",
"R@	c #0E177C",
"S@	c #233678",
"T@	c #314C58",
"U@	c #273D49",
"V@	c #2D4178",
"W@	c #3636CF",
"X@	c #333A8F",
"Y@	c #313F63",
"Z@	c #D20304",
"`@	c #871319",
" #	c #466680",
".#	c #5A879A",
"+#	c #7AAFC7",
"@#	c #6D93A5",
"##	c #AC2428",
"$#	c #BB262A",
"%#	c #515D70",
"&#	c #514A88",
"*#	c #A21322",
"=#	c #891522",
"-#	c #3B467A",
";#	c #394781",
">#	c #354281",
",#	c #2F3E7E",
"'#	c #7A0D1E",
")#	c #F40306",
"!#	c #481139",
"~#	c #080D8C",
"{#	c #0000C0",
"]#	c #2C4574",
"^#	c #263E46",
"/#	c #4F7C99",
"(#	c #242899",
"_#	c #3A3AD0",
":#	c #3C3AAF",
"<#	c #D50205",
"[#	c #8D152F",
"}#	c #6767DB",
"|#	c #5F60BB",
"1#	c #404C79",
"2#	c #659DB8",
"3#	c #743037",
"4#	c #E11A1F",
"5#	c #552445",
"6#	c #612D67",
"7#	c #D71736",
"8#	c #63245A",
"9#	c #4F4FD7",
"0#	c #3A3AD1",
"a#	c #2E2ECD",
"b#	c #7A0830",
"c#	c #F90105",
"d#	c #3C0359",
"e#	c #0000B2",
"f#	c #3F6282",
"g#	c #649FB7",
"h#	c #3D6170",
"i#	c #3F618A",
"j#	c #252D81",
"k#	c #29288E",
"l#	c #8B0C22",
"m#	c #3F4399",
"n#	c #4D4FB3",
"o#	c #6262D9",
"p#	c #3E517B",
"q#	c #565561",
"r#	c #D0090E",
"s#	c #820F21",
"t#	c #820E21",
"u#	c #C40A18",
"v#	c #33265E",
"w#	c #2E3388",
"x#	c #272D86",
"y#	c #222784",
"z#	c #1B2182",
"A#	c #7C051B",
"B#	c #3F0638",
"C#	c #090F7D",
"D#	c #080E64",
"E#	c #598CA2",
"F#	c #3C5D6C",
"G#	c #4B4A57",
"H#	c #EE0000",
"I#	c #A40B0E",
"J#	c #5F96AE",
"K#	c #528098",
"L#	c #333F7A",
"M#	c #394588",
"N#	c #64A0B9",
"O#	c #94181C",
"P#	c #E80E10",
"Q#	c #871E22",
"R#	c #95171A",
"S#	c #6B3942",
"T#	c #23383F",
"U#	c #416575",
"V#	c #5B4D5A",
"W#	c #AE0E11",
"X#	c #F90000",
"Y#	c #862024",
"Z#	c #693D45",
"`#	c #41455A",
" $	c #2E3780",
".$	c #69A4BE",
"+$	c #6B363E",
"@$	c #F70809",
"#$	c #63404A",
"$$	c #67A4BE",
"%$	c #68A4BC",
"&$	c #597486",
"*$	c #5B4752",
"=$	c #6B3B44",
"-$	c #C9090A",
";$	c #921D21",
">$	c #64444F",
",$	c #544853",
"'$	c #65A2B9",
")$	c #456F80",
"!$	c #613840",
"~$	c #772B31",
"{$	c #74272E",
"]$	c #6C2129",
"^$	c #7B282F",
"/$	c #892A2F",
"($	c #3B2441",
"_$	c #2C3C7C",
":$	c #69A7C0",
"<$	c #5E8295",
"[$	c #7A282F",
"}$	c #822931",
"|$	c #5E8DA2",
"1$	c #69A5BD",
"2$	c #69A7BF",
"3$	c #595563",
"4$	c #82272E",
"5$	c #80262C",
"6$	c #782A31",
"7$	c #772C33",
"8$	c #7A2A31",
"9$	c #85282E",
"0$	c #6D262D",
"a$	c #6199B2",
"b$	c #1D2F38",
"c$	c #2A414B",
"d$	c #152273",
"e$	c #090AAE",
"f$	c #1C2979",
"g$	c #1E2B7D",
"h$	c #14187F",
"i$	c #4D7A98",
"j$	c #68A6C0",
"k$	c #6AA8C1",
"l$	c #68A7C0",
"m$	c #6AA6C0",
"n$	c #6AA7C2",
"o$	c #6AA6C1",
"p$	c #6BA7C1",
"q$	c #6AA7C0",
"r$	c #6AA8C2",
"s$	c #2B414D",
"t$	c #375763",
"u$	c #1B2B72",
"v$	c #0000BA",
"w$	c #0000BD",
"x$	c #090F89",
"y$	c #3B5D89",
"z$	c #69A6C1",
"A$	c #69A6BF",
"B$	c #69A6C0",
"C$	c #6AA5C0",
"D$	c #69A6BE",
"E$	c #69A5BF",
"F$	c #68A5BF",
"G$	c #6BA7C3",
"H$	c #355460",
"I$	c #314D76",
"J$	c #2F4C78",
"K$	c #5B90AB",
"L$	c #69A7C1",
"M$	c #365664",
"N$	c #283F49",
"O$	c #68A7C1",
"P$	c #69A5C0",
"Q$	c #6AA6BF",
"R$	c #2C454F",
"S$	c #4A7384",
"T$	c #68A8C0",
"U$	c #69A6C2",
"V$	c #477081",
"W$	c #1F2F37",
"X$	c #3C5F6E",
"Y$	c #233841",
"Z$	c #283D47",
"`$	c #304B59",
" %	c #355663",
".%	c #304B57",
"                        . + @ # # $ + .                         ",
"                  % & * = = = = = = = = - ; >                   ",
"                , = = = ' ) ! ~ { ] = = = = = ^                 ",
"            / * ( _ : < [ } | | 1 2 3 4 = = = = * 5             ",
"          6 7 8 9 0 a b c d e e d f g h i = = = = = j           ",
"        k l m n o | p q r s t u v w x y z A B C C C C D         ",
"      E F G = H I J K L M N O P Q R S T U V W X Y Z `  ...      ",
"      * +.@.#.$.%.&.*.=.-.;.>.,.'.).!.~.q {.].^./.(._.:.<.      ",
"    , = [.}.|.1.2.3.4.5.6.7.8.9.0.a.b.c.d.e.f.g.h.i.j.k.- l.    ",
"  m.= = = n.o.p.q.r.s.t.u.v.w.x.y.z.A.B.C.D.E.F.h.G.H.I.= = J.  ",
"  K.= = * L.M.N.O.P.Q.R.S.T.U.V.W.X.Y.Z.`. +.+++h.@+= = = = #+  ",
"  * = = = $+%+&+*+=+-+;+>+T.,+'+)+!+~+{+]+^+/+(+_+@+= = = = :+  ",
". = = = = <+[+}+|+1+2+3+4+)+U.U.5+6+7+8+9+0+a+b+c+d+= = = = = e+",
"f+= = = g+h+i+j+k+l+m+n+o+p+q+x.r+s+;.t+u+v+w+x+y+z+= = = = = A+",
"B+= = C+D+E+F+G+H+I+J+K+L+M+N+O+P+Q+R+S+T+U+V+W+X+Y+= = = = = Z+",
"`+= =  @.@+@@@#@$@%@&@*@=@-@Q+Q+;@>@,@'@)@!@~@{@]@^@= = = = = /@",
"`+= = (@_@= :@<@[@}@r |@1@2@3@4@5@6@7@8@9@1 ) 0@]@^@= a@b@= = /@",
"B+= = c@d@= :@e@f@g@c h@i@j@k@l@s m@n@o@p@q@= r@X+Y+= s@t@= = Z+",
"f+= = u@v@w@:@x@y@z@A@B@C@D@E@F@G@H@I@J@K@L@M@N@O@P@Q@R@S@= = T@",
"U@= = V@W@X@Y@Z@`@ #.#+#@###$#%#&#*#=#-#;#>#,#'#)#!#~#{#]#= = ^#",
"  - = /#(#_#:#<#[#}#|#1#2#3#4#5#6#7#8#9#Q 0#a#b#c#d#{#e#f#= g#  ",
"  h#= = i#j#k#N.l#m#n#o#p#q#r#s#t#u#v#w#x#y#z#A#h.B#C#D#E#= F#  ",
"  J.= = = = G#H#I#J#K#L#M#N#O#P#P#Q#= = ( = = R#h.S#= = = = T#  ",
"    U#= V#3#W#h.X#Y#Z#`# $.$+$y+@$#$$$%$&$*$=$-$h.;$>$,$'$)$    ",
"      * !$~$~${$]$^$/$($_$:$<$[$}$|$1$2$3$4$5$6$7$8$9$0$a$b$    ",
"      c$= = = d$e$f$g$h$i$j$k$l$m$4 m$n$j$o$p$q$l$r$= = s$      ",
"        t$= = u$v$w$x$y$z$A$B$A$C$j$D$1$E$F$j$( q$G$= H$        ",
"          j = :+I$J$K$= = = = B$] ] L$B$( = = C$C$z$M$          ",
"            N$* _ L$O$= :$L$r$P$Q$C$= = = = = = * R$            ",
"                S$:$n$:$T$' U$n$B$L$= = = = = V$W$              ",
"                  J.X$- = = = = = = = = :+X$Y$                  ",
"                        Z$`$ %`+`+ %.%Z$                        "};
