/* XPM */
static char * copy_xpm[] = {
"24 24 7 1",
" 	c None",
".	c #030353",
"+	c #FEFEFE",
"@	c #F9FAF9",
"#	c #FAFBFA",
"$	c #8DA68D",
"%	c #FFFFFF",
"                        ",
"                        ",
"                        ",
"   .............        ",
"   .+++++++++++.        ",
"   .+++++++++++.        ",
"   .+++..........       ",
"   .+++.+++++++...      ",
"   .+++.+++++++.++.     ",
"   .+++.+++++++.++..    ",
"   .+++.++@@@#+......   ",
"   .+++.++$$$$#+++++.   ",
"   .+++.++++++++++++.   ",
"   .+++.++++++++++++.   ",
"   .+++.++$$$$$$$$++.   ",
"   .+++.++++++++++++.   ",
"   .+++.++++++++++++.   ",
"   .+++.++$$$$$$$$++.   ",
"   .....++++++++++++.   ",
"       .+%%+++++++++.   ",
"       .++++++++++++.   ",
"       ..............   ",
"                        ",
"                        "};
