/* XPM */ 
static char * cut_xpm[] = {
"24 24 84 1",
" 	c None",
"!	c black",
"#	c #7F7F7F",
"$	c white",
"%	c #9F9FA2",
"&	c #273193",
"'	c #133392",
"(	c #093492",
")	c #0A3491",
"*	c #023399",
"+	c #063398",
",	c #283879",
"-	c #373B6B",
".	c #383B6A",
"0	c #3F3C65",
"1	c #003399",
"2	c #1C63A3",
"3	c #2478D2",
"4	c #3773D1",
"5	c #4554B9",
"6	c #6766CB",
"7	c #6766CC",
"8	c #6162A9",
"9	c #5B6164",
":	c #DADADA",
";	c #B5B6B6",
"<	c #8E8F8F",
"=	c #868686",
">	c #858585",
"?	c #818181",
"@	c #2B3B87",
"A	c #3F3F7E",
"B	c #444489",
"C	c #6261C1",
"D	c #4D6CC6",
"E	c #1D7DBB",
"F	c #C8C8C8",
"G	c #C6C6C6",
"H	c #C1C1C1",
"I	c #797979",
"J	c #233377",
"K	c #334380",
"L	c #415CBD",
"M	c #3350B2",
"N	c #075DB6",
"O	c #999999",
"P	c #989898",
"Q	c #717171",
"R	c #194BA8",
"S	c #18389A",
"T	c #0345A4",
"U	c #595959",
"V	c #2C3595",
"W	c #133497",
"X	c #014BAB",
"Y	c #007BD0",
"Z	c #283193",
"[	c #123296",
"]	c #0A3397",
"^	c #0062BD",
"_	c #027FD2",
"`	c #314C7E",
"a	c #223294",
"b	c #193295",
"c	c #037FD1",
"d	c #2E3192",
"e	c #213598",
"f	c #0E3BA1",
"g	c #0975C9",
"h	c #374E87",
"i	c #4044A7",
"j	c #4E63C7",
"k	c #0E69C1",
"l	c #5558B6",
"m	c #4547AA",
"n	c #6168CD",
"o	c #4370D0",
"p	c #3D71D0",
"q	c #3A3878",
"r	c #5453A8",
"s	c #44459F",
"t	c #5B59AB",
"u	c #54529A",
"v	c #403C64",
"                        ",
"                        ",
"                        ",
"                ###!    ",
"               #$$!%    ",
"              #$$!%     ",
"  &'()       #$$!%      ",
" *+,-.0     #$$!%       ",
" 11  222   #$$!%        ",
" 11   34  #$$!%         ",
" 115  6789:;<=>>>>>>>?  ",
"  1@ABC7DE::FGGGGGGGHI  ",
"   JKKKLMNOOOOOOOOOOPQ  ",
"       RSTUUUUUUUUUUU   ",
"      VWXY              ",
"     Z[]^_`             ",
"    ab+  c`             ",
"   def   gh             ",
"   dij  k2l             ",
"   dmnop2qr             ",
"    stttuv              ",
"     vvvv               ",
"                        ",
"                        "};
