/* XPM */ 
static char * help_xpm[] = {
"24 24 22 1",
" 	c None",
"!	c black",
"#	c #3F4274",
"$	c #595E8C",
"%	c #61659B",
"&	c #5D6296",
"'	c #5F6598",
"(	c #606699",
")	c #5C6094",
"*	c #5D6196",
"+	c #63669D",
",	c #505687",
"-	c #606399",
".	c #64679E",
"0	c white",
"1	c #525484",
"2	c #63669C",
"3	c #696CA1",
"4	c #575A90",
"5	c #5A5D93",
"6	c #6A6DA1",
"7	c #61649A",
"                        ",
"                        ",
"       #########        ",
"      #$%&'('&%)#       ",
"     #$*+++++++*$#      ",
"    #,-++.%0%.++-,#     ",
"   #1-2++30003++2-1#    ",
"  #45++++6%0%+++++54#   ",
"  #7+++++++++++++++7#   ",
"  #)++++%0000%+++++)#   ",
"  #)++++00000++++++)#   ",
"  #)++++++000++++++)#   ",
"  #)++++++000++++++)#   ",
"  #)++++++000++++++)#   ",
"  #7++++++000++++++7#   ",
"  #45+++++000+++++54#   ",
"   #1-2+%00000%%2-1#    ",
"    #,-+%%%%%%%+-,#     ",
"     #$+++++++++$#      ",
"      #)%&'('&%)#       ",
"       #########        ",
"                        ",
"                        ",
"                        "};
