/* XPM */ 
static char * open_xpm[] = {
"24 24 90 1",
" 	c None",
"!	c black",
"#	c #444444",
"$	c white",
"%	c #8DA68D",
"&	c #6D4800",
"'	c #AD7900",
"(	c #B58200",
")	c #B18100",
"*	c #A57100",
"+	c #9F6B00",
",	c #EFEF89",
"-	c #E9E478",
".	c #E3D866",
"0	c #9A6600",
"1	c #EDEC85",
"2	c #EEEE88",
"3	c #EDEB84",
"4	c #EBE980",
"5	c #EAE67B",
"6	c #E8E275",
"7	c #E6DD6E",
"8	c #E0D35E",
"9	c #DECD56",
":	c #DDC94F",
";	c #EEED86",
"<	c #EDEB83",
"=	c #EBE77D",
">	c #E8E376",
"?	c #E6DE6F",
"@	c #E3D867",
"A	c #E1D25F",
"B	c #DAC74C",
"C	c #D8C043",
"D	c #DEC444",
"E	c #4A453B",
"F	c #E7E072",
"G	c #E5DB6B",
"H	c #E2D562",
"I	c #DFD05A",
"J	c #DCCA51",
"K	c #D9C447",
"L	c #DBC243",
"M	c #DDC13F",
"N	c #DABB35",
"O	c #DBB930",
"P	c #E4D768",
"Q	c #E1D35F",
"R	c #DECA50",
"S	c #DEC749",
"T	c #DBC13F",
"U	c #D8BA36",
"V	c #D9B931",
"W	c #DBB72D",
"X	c #D8B224",
"Y	c #D5AD1D",
"Z	c #D4AA18",
"[	c #C29406",
"]	c #DBC74D",
"^	c #D8C041",
"_	c #DFC03B",
"`	c #DCBA31",
"a	c #D9B428",
"b	c #D6AF20",
"c	c #D4A918",
"d	c #D1A511",
"e	c #CFA10B",
"f	c #CE9E08",
"g	c #D6C153",
"h	c #DABB34",
"i	c #DAB62B",
"j	c #D8B124",
"k	c #D5AB1C",
"l	c #D3A715",
"m	c #D1A20E",
"n	c #CF9E08",
"o	c #CD9B03",
"p	c #CD9A02",
"q	c #CC9A02",
"r	c #CC9A04",
"s	c #C89C10",
"t	c #DAB62C",
"u	c #D7B022",
"v	c #D5AB1B",
"w	c #D1A410",
"x	c #D0A10B",
"y	c #CE9D06",
"z	c #CC9900",
"{	c #CC9901",
"|	c #CD9C04",
"                        ",
"                        ",
"                        ",
"      #############     ",
"      #$$$$$$$$$$$#     ",
"      #$$$$$$$$$$$#     ",
"      #$%%%%%%%%%$#     ",
"    &&#$$$$$$$$$$$#&&&  ",
"    &'#$%%%%%%%%%$#((&  ",
"    &'#$$$$$$$$$$$#''&  ",
"    &)#$$$$$$$$$$$#**&  ",
" &&&&&&&&&&&&&&&&$#++&  ",
" &,,,,,,,-......&$#00&  ",
" &&11,234567.89:&&#00&  ",
"  &1;2<=>?@A9BCDD&E00&  ",
"  &---FGHIJKLMNOO&&00&  ",
"   &-PQ9RSTUVWXYZ[&00&  ",
"   &-Q]^M_`abcdef[&&0&  ",
"    &]ghijklmnopqrs&0&  ",
"    &]gtuvlwxyzz{||&&&  ",
"     &ttul||||||||||&&  ",
"     &&&&&&&&&&&&&&&&&  ",
"                        ",
"                        "};
