/* XPM */ 
static char * pref_xpm[] = {
"24 24 15 1",
" 	c None",
"!	c black",
"#	c #7D4900",
"$	c #030353",
"%	c #CC9804",
"&	c #8C5D0C",
"'	c #DBC84E",
"(	c #0066CB",
")	c #8A5601",
"*	c #C69204",
"+	c #8B5804",
",	c white",
"-	c #AB8131",
".	c #FBF9F7",
"0	c #8D7438",
"                        ",
"                        ",
"                        ",
"          #######  $$$$ ",
"         #%%&'''##((((( ",
"         #%%%%%%%%%(((( ",
"        #%%)%))%*%%(((( ",
" $$$$$$#%%+')%))%%%(((( ",
" $,,,,##'-#'))%))%%(((( ",
" $,,,,#''#.#'))%0$$(((( ",
" $,,,,,##,,,#''$,,$$$$$ ",
" $,,,,,,,,,,,#$,,,$     ",
" $,,,,,,,,,,,,,,,,$     ",
" $,,,,,,,,,,,,,,,,$     ",
" $,,$$$,$$$$$$$$,,$     ",
" $,,,,,,,,,,,,,,,,$     ",
" $,,,,,,,,,,,,,,,,$     ",
" $,,$$$,$$$$$$$$,,$     ",
" $,,,,,,,,,,,,,,,,$     ",
" $,,,,,,,,,,,,,,,,$     ",
" $,,,,,,,,,,,,,,,,$     ",
" $$$$$$$$$$$$$$$$$$     ",
"                        ",
"                        "};
