/* XPM */ 
static char * print_xpm[] = {
"24 24 44 1",
" 	c None",
"!	c black",
"#	c #303132",
"$	c white",
"%	c #E6ECE6",
"&	c #8DA68D",
"'	c #E0E7E0",
"(	c #EAEEEA",
")	c #A7A7A7",
"*	c #ECECEC",
"+	c #A4A4A5",
",	c #797A7D",
"-	c #959595",
".	c #747474",
"0	c #828283",
"1	c #D3D3D3",
"2	c #CFCFCF",
"3	c #CDCDCD",
"4	c #CCCCCC",
"5	c #C8C8C8",
"6	c #C2C2C2",
"7	c #EAEAEA",
"8	c #E2E2E2",
"9	c #DDDDDD",
":	c #DADADA",
";	c #D5D5D5",
"<	c #EEEEEE",
"=	c #E9E9E9",
">	c #E4E4E4",
"?	c #D9D9D9",
"@	c #D6D6D6",
"A	c #D1D1D1",
"B	c #E5E5E5",
"C	c #E1E1E1",
"D	c #D8D8D8",
"E	c #D7D7D7",
"F	c #D0D0D0",
"G	c #CECECE",
"H	c #65CC33",
"I	c #009900",
"J	c #C7C7C7",
"K	c #C6C6C6",
"L	c #C5C5C5",
"M	c #C3C3C3",
"                        ",
"                        ",
"                        ",
"      ###########       ",
"      #$$$$$$$$$#       ",
"      #$%&&&&&%$#       ",
"      #$'&&&&&'$#       ",
"      #$$$$$$$$$#       ",
"      #$%&&&&&($#       ",
"      #$%&&&&&%$#       ",
"     ##$$$$$$$$$##      ",
"    #$#)*******)#+#     ",
"   #*$#,-------.#+0#    ",
"  ###################   ",
"  #$$$$$$$$$$1234566#   ",
"  #$$$$$*789:;146666#   ",
"  #$$$<*=>9?@1A66666#   ",
"  #$$7BBCDE1FAGHHII6#   ",
"  #$$55JJKJKLKL66666#   ",
"  #BM66666666MM66MM6#   ",
"  ###################   ",
"  ###################   ",
"                        ",
"                        "};
