/* XPM */
static char * save_xpm[] = {
"24 24 27 1",
" 	c None",
".	c #2E3192",
"+	c #403C64",
"@	c #DCDCDC",
"#	c #C8D0DD",
"$	c #3C4099",
"%	c #46499E",
"&	c #D6D6D9",
"*	c #CECDD4",
"=	c #CDCDD5",
"-	c #FFFFFF",
";	c #4A4DA1",
">	c #C4C2CF",
",	c #C8C7D2",
"'	c #F8F9FA",
")	c #B8B7C8",
"!	c #BAB8CA",
"~	c #ACAAC2",
"{	c #A09DBB",
"]	c #3C3F99",
"^	c #9490B4",
"/	c #8883AE",
"(	c #7C78A7",
"_	c #373A96",
":	c #6A649D",
"<	c #726DA2",
"[	c #535492",
"                        ",
"                        ",
"                        ",
"  ....................+ ",
"  .@@.#############$@@+ ",
"  .@@.#############%&&+ ",
"  .*=.#------------;**+ ",
"  .>,.#-'----------;>>+ ",
"  .>>.#-'----------;>>+ ",
"  .)!.#-'----------;))+ ",
"  .~~.#-'----------;~~+ ",
"  .~~.#-'----------;~~+ ",
"  .{{.#------------]{{+ ",
"  .{{...............{{+ ",
"  .^^^^^^^^^^^^^^^^^^^+ ",
"  .////............///+ ",
"  .(((._##########.(((+ ",
"  .(((.###########.(((+ ",
"  .:::.#+-------'-.<<<+ ",
"  .:::.#+---------.:::+ ",
"   [::.#----------.:::+ ",
"    +++++++++++++++++++ ",
"                        ",
"                        "};
