/* XPM */ 
static char * stop_xpm[] = {
"24 24 21 1",
" 	c None",
"!	c black",
"#	c #810505",
"$	c #8D0505",
"%	c #870B0B",
"&	c #D03737",
"'	c #D63D3D",
"(	c #D83939",
")	c #DC4343",
"*	c #E03A3A",
"+	c #F11616",
",	c #F31212",
"-	c #DE3E3E",
".	c #F60E0E",
"0	c #F42626",
"1	c #F62222",
"2	c #FDD6D6",
"3	c #F73636",
"4	c white",
"5	c #F84A4A",
"6	c #FEEAEA",
"                        ",
"                        ",
"       #$$$$$$$#        ",
"      %&'((((('&%       ",
"     %&)*+,,,+*)&%      ",
"    %&-*+.....+*-&%     ",
"   %&-+01.....10+-&%    ",
"  #&)*0223...3220*)&#   ",
"  $'*+12423.32421+*'$   ",
"  $(+..324252423..+($   ",
"  $(,...3246423...,($   ",
"  $(,....56465....,($   ",
"  $(,...3246423...,($   ",
"  $(+..324252423..+($   ",
"  $'*+12423.32421+*'$   ",
"  #&)*0223...3220*)&#   ",
"   %&-+01.....10+-&%    ",
"    %&-*+.....+*-&%     ",
"     %&)*+,,,+*)&%      ",
"      %&'((((('&%       ",
"       #$$$$$$$#        ",
"                        ",
"                        ",
"                        "};
