<?xml version="1.0" encoding="UTF-8" standalone="no"?>
<!DOCTYPE svg PUBLIC "-//W3C//DTD SVG 1.1//EN"
 "http://www.w3.org/Graphics/SVG/1.1/DTD/svg11.dtd">
<!-- Generated by graphviz version 2.43.0 (0)
 -->
<!-- Title: src/dialogs/AboutDialog.h Pages: 1 -->
<svg width="2341pt" height="357pt"
 viewBox="0.00 0.00 2341.30 357.00" xmlns="http://www.w3.org/2000/svg" xmlns:xlink="http://www.w3.org/1999/xlink">
<g id="graph0" class="graph" transform="scale(1 1) rotate(0) translate(4 353)">
<title>src/dialogs/AboutDialog.h</title>
<!-- Node1 -->
<g id="node1" class="node">
<title>Node1</title>
<g id="a_node1"><a xlink:title="This file declares all the wizards the draw sidepane needs.">
<polygon fill="#999999" stroke="#666666" points="812.5,-349 671.5,-349 671.5,-330 812.5,-330 812.5,-349"/>
<text text-anchor="middle" x="742" y="-337" font-family="Helvetica,sans-Serif" font-size="10.00">src/dialogs/AboutDialog.h</text>
</a>
</g>
</g>
<!-- Node2 -->
<g id="node2" class="node">
<title>Node2</title>
<g id="a_node2"><a xlink:href="precomp_8h_source.html" target="_top" xlink:title=" ">
<polygon fill="white" stroke="#666666" points="110,-74 42,-74 42,-55 110,-55 110,-74"/>
<text text-anchor="middle" x="76" y="-62" font-family="Helvetica,sans-Serif" font-size="10.00">precomp.h</text>
</a>
</g>
</g>
<!-- Node1&#45;&gt;Node2 -->
<g id="edge1" class="edge">
<title>Node1&#45;&gt;Node2</title>
<path fill="none" stroke="#63b8ff" d="M671.19,-335.56C485.72,-326.94 0,-297.91 0,-230.5 0,-230.5 0,-230.5 0,-173.5 0,-134.47 33.61,-99.58 56.13,-80.6"/>
<polygon fill="#63b8ff" stroke="#63b8ff" points="58.56,-83.14 64.12,-74.12 54.15,-77.7 58.56,-83.14"/>
</g>
<!-- Node4 -->
<g id="node4" class="node">
<title>Node4</title>
<g id="a_node4"><a xlink:href="Configuration_8h_source.html" target="_top" xlink:title=" ">
<polygon fill="white" stroke="#666666" points="1545,-294 1445,-294 1445,-275 1545,-275 1545,-294"/>
<text text-anchor="middle" x="1495" y="-282" font-family="Helvetica,sans-Serif" font-size="10.00">../Configuration.h</text>
</a>
</g>
</g>
<!-- Node1&#45;&gt;Node4 -->
<g id="edge3" class="edge">
<title>Node1&#45;&gt;Node4</title>
<path fill="none" stroke="#63b8ff" d="M812.5,-333.54C959.49,-323.19 1296.44,-299.48 1434.41,-289.76"/>
<polygon fill="#63b8ff" stroke="#63b8ff" points="1435.05,-293.23 1444.78,-289.03 1434.56,-286.25 1435.05,-293.23"/>
</g>
<!-- Node3 -->
<g id="node3" class="node">
<title>Node3</title>
<g id="a_node3"><a xlink:title=" ">
<polygon fill="#e0e0e0" stroke="#999999" points="116.5,-19 35.5,-19 35.5,0 116.5,0 116.5,-19"/>
<text text-anchor="middle" x="76" y="-7" font-family="Helvetica,sans-Serif" font-size="10.00">BuildConfig.h</text>
</a>
</g>
</g>
<!-- Node2&#45;&gt;Node3 -->
<g id="edge2" class="edge">
<title>Node2&#45;&gt;Node3</title>
<path fill="none" stroke="#63b8ff" d="M76,-54.75C76,-47.8 76,-37.85 76,-29.13"/>
<polygon fill="#63b8ff" stroke="#63b8ff" points="79.5,-29.09 76,-19.09 72.5,-29.09 79.5,-29.09"/>
</g>
<!-- Node4&#45;&gt;Node2 -->
<g id="edge4" class="edge">
<title>Node4&#45;&gt;Node2</title>
<path fill="none" stroke="#63b8ff" d="M1444.72,-283.38C1262.11,-282.64 634.39,-277.29 438,-239 436.89,-238.78 130.93,-129.65 130,-129 112.03,-116.58 96.48,-96.74 86.74,-82.53"/>
<polygon fill="#63b8ff" stroke="#63b8ff" points="89.64,-80.57 81.21,-74.15 83.8,-84.43 89.64,-80.57"/>
</g>
<!-- Node5 -->
<g id="node5" class="node">
<title>Node5</title>
<g id="a_node5"><a xlink:title=" ">
<polygon fill="#e0e0e0" stroke="#999999" points="516.5,-239 459.5,-239 459.5,-220 516.5,-220 516.5,-239"/>
<text text-anchor="middle" x="488" y="-227" font-family="Helvetica,sans-Serif" font-size="10.00">wx/wx.h</text>
</a>
</g>
</g>
<!-- Node4&#45;&gt;Node5 -->
<g id="edge5" class="edge">
<title>Node4&#45;&gt;Node5</title>
<path fill="none" stroke="#63b8ff" d="M1444.86,-283.81C1301.67,-284.14 878.82,-281.17 531,-239 529.54,-238.82 528.05,-238.62 526.55,-238.41"/>
<polygon fill="#63b8ff" stroke="#63b8ff" points="527.02,-234.94 516.59,-236.77 525.88,-241.84 527.02,-234.94"/>
</g>
<!-- Node6 -->
<g id="node6" class="node">
<title>Node6</title>
<g id="a_node6"><a xlink:title=" ">
<polygon fill="#e0e0e0" stroke="#999999" points="1016,-129 944,-129 944,-110 1016,-110 1016,-129"/>
<text text-anchor="middle" x="980" y="-117" font-family="Helvetica,sans-Serif" font-size="10.00">wx/config.h</text>
</a>
</g>
</g>
<!-- Node4&#45;&gt;Node6 -->
<g id="edge6" class="edge">
<title>Node4&#45;&gt;Node6</title>
<path fill="none" stroke="#63b8ff" d="M1444.68,-280.08C1361.72,-273.95 1200.12,-259.74 1147,-239 1084.91,-214.76 1024.19,-162.46 996.14,-136.21"/>
<polygon fill="#63b8ff" stroke="#63b8ff" points="998.47,-133.6 988.82,-129.25 993.65,-138.68 998.47,-133.6"/>
</g>
<!-- Node7 -->
<g id="node7" class="node">
<title>Node7</title>
<g id="a_node7"><a xlink:title=" ">
<polygon fill="#e0e0e0" stroke="#999999" points="1882.5,-239 1805.5,-239 1805.5,-220 1882.5,-220 1882.5,-239"/>
<text text-anchor="middle" x="1844" y="-227" font-family="Helvetica,sans-Serif" font-size="10.00">wx/display.h</text>
</a>
</g>
</g>
<!-- Node4&#45;&gt;Node7 -->
<g id="edge7" class="edge">
<title>Node4&#45;&gt;Node7</title>
<path fill="none" stroke="#63b8ff" d="M1545.04,-276.13C1603.91,-267.42 1704.6,-252.42 1791,-239 1792.29,-238.8 1793.61,-238.59 1794.93,-238.39"/>
<polygon fill="#63b8ff" stroke="#63b8ff" points="1795.89,-241.78 1805.22,-236.76 1794.8,-234.87 1795.89,-241.78"/>
</g>
<!-- Node8 -->
<g id="node8" class="node">
<title>Node8</title>
<g id="a_node8"><a xlink:title=" ">
<polygon fill="#e0e0e0" stroke="#999999" points="1991,-239 1901,-239 1901,-220 1991,-220 1991,-239"/>
<text text-anchor="middle" x="1946" y="-227" font-family="Helvetica,sans-Serif" font-size="10.00">wx/fontenum.h</text>
</a>
</g>
</g>
<!-- Node4&#45;&gt;Node8 -->
<g id="edge8" class="edge">
<title>Node4&#45;&gt;Node8</title>
<path fill="none" stroke="#63b8ff" d="M1545.22,-278.59C1618.73,-271.25 1760.17,-256.53 1890.76,-239.11"/>
<polygon fill="#63b8ff" stroke="#63b8ff" points="1891.5,-242.55 1900.94,-237.75 1890.56,-235.61 1891.5,-242.55"/>
</g>
<!-- Node9 -->
<g id="node9" class="node">
<title>Node9</title>
<g id="a_node9"><a xlink:title=" ">
<polygon fill="#e0e0e0" stroke="#999999" points="1122,-129 1034,-129 1034,-110 1122,-110 1122,-129"/>
<text text-anchor="middle" x="1078" y="-117" font-family="Helvetica,sans-Serif" font-size="10.00">wx/hashmap.h</text>
</a>
</g>
</g>
<!-- Node4&#45;&gt;Node9 -->
<g id="edge9" class="edge">
<title>Node4&#45;&gt;Node9</title>
<path fill="none" stroke="#63b8ff" d="M1444.66,-278.52C1345.9,-267.64 1132.31,-238.27 1086,-184 1075.53,-171.73 1074.36,-152.95 1075.31,-139"/>
<polygon fill="#63b8ff" stroke="#63b8ff" points="1078.79,-139.37 1076.39,-129.05 1071.83,-138.62 1078.79,-139.37"/>
</g>
<!-- Node10 -->
<g id="node10" class="node">
<title>Node10</title>
<g id="a_node10"><a xlink:href="LoggingMessageDialog_8h.html" target="_top" xlink:title="This file declares a message dialog that sends its contents to the log message sink.">
<polygon fill="white" stroke="#666666" points="213.5,-239 36.5,-239 36.5,-220 213.5,-220 213.5,-239"/>
<text text-anchor="middle" x="125" y="-227" font-family="Helvetica,sans-Serif" font-size="10.00">dialogs/LoggingMessageDialog.h</text>
</a>
</g>
</g>
<!-- Node4&#45;&gt;Node10 -->
<g id="edge10" class="edge">
<title>Node4&#45;&gt;Node10</title>
<path fill="none" stroke="#63b8ff" d="M1444.85,-282.48C1274.89,-278.87 705.14,-265.45 235,-239 231.29,-238.79 227.51,-238.57 223.7,-238.33"/>
<polygon fill="#63b8ff" stroke="#63b8ff" points="223.74,-234.82 213.53,-237.66 223.29,-241.81 223.74,-234.82"/>
</g>
<!-- Node13 -->
<g id="node13" class="node">
<title>Node13</title>
<g id="a_node13"><a xlink:href="TextStyle_8h.html" target="_top" xlink:title="This file declares everything needed for the text style system used to style all the elements on the ...">
<polygon fill="white" stroke="#666666" points="656,-184 560,-184 560,-165 656,-165 656,-184"/>
<text text-anchor="middle" x="608" y="-172" font-family="Helvetica,sans-Serif" font-size="10.00">cells/TextStyle.h</text>
</a>
</g>
</g>
<!-- Node4&#45;&gt;Node13 -->
<g id="edge14" class="edge">
<title>Node4&#45;&gt;Node13</title>
<path fill="none" stroke="#63b8ff" d="M1444.78,-283.27C1241.08,-282.08 485.73,-275.25 451,-239 417.46,-204 492.22,-187.75 549.71,-180.61"/>
<polygon fill="#63b8ff" stroke="#63b8ff" points="550.33,-184.06 559.85,-179.42 549.51,-177.11 550.33,-184.06"/>
</g>
<!-- Node20 -->
<g id="node20" class="node">
<title>Node20</title>
<g id="a_node20"><a xlink:title=" ">
<polygon fill="#e0e0e0" stroke="#999999" points="373,-74 323,-74 323,-55 373,-55 373,-74"/>
<text text-anchor="middle" x="348" y="-62" font-family="Helvetica,sans-Serif" font-size="10.00">cstdint</text>
</a>
</g>
</g>
<!-- Node4&#45;&gt;Node20 -->
<g id="edge70" class="edge">
<title>Node4&#45;&gt;Node20</title>
<path fill="none" stroke="#63b8ff" d="M1444.92,-279.54C1208.48,-260.63 213.69,-178.32 171,-129 130,-81.63 249.92,-69.6 312.55,-66.54"/>
<polygon fill="#63b8ff" stroke="#63b8ff" points="312.97,-70.03 322.8,-66.1 312.66,-63.03 312.97,-70.03"/>
</g>
<!-- Node27 -->
<g id="node27" class="node">
<title>Node27</title>
<g id="a_node27"><a xlink:title=" ">
<polygon fill="#e0e0e0" stroke="#999999" points="2038,-74 1974,-74 1974,-55 2038,-55 2038,-74"/>
<text text-anchor="middle" x="2006" y="-62" font-family="Helvetica,sans-Serif" font-size="10.00">algorithm</text>
</a>
</g>
</g>
<!-- Node4&#45;&gt;Node27 -->
<g id="edge78" class="edge">
<title>Node4&#45;&gt;Node27</title>
<path fill="none" stroke="#63b8ff" d="M1545.04,-282.66C1719.02,-279.5 2288.44,-267.04 2315,-239 2401.72,-147.45 2151.51,-91.28 2048.29,-72.52"/>
<polygon fill="#63b8ff" stroke="#63b8ff" points="2048.65,-69.03 2038.2,-70.72 2047.43,-75.92 2048.65,-69.03"/>
</g>
<!-- Node30 -->
<g id="node30" class="node">
<title>Node30</title>
<g id="a_node30"><a xlink:title=" ">
<polygon fill="#e0e0e0" stroke="#999999" points="1909,-74 1851,-74 1851,-55 1909,-55 1909,-74"/>
<text text-anchor="middle" x="1880" y="-62" font-family="Helvetica,sans-Serif" font-size="10.00">memory</text>
</a>
</g>
</g>
<!-- Node4&#45;&gt;Node30 -->
<g id="edge71" class="edge">
<title>Node4&#45;&gt;Node30</title>
<path fill="none" stroke="#63b8ff" d="M1545.01,-278.6C1597.8,-272.58 1683.02,-260.42 1754,-239 1774,-232.96 1776.79,-225.32 1797,-220 1875.61,-199.31 2106.43,-244.24 2161,-184 2196.61,-144.69 2004.36,-94.33 1919.1,-74.29"/>
<polygon fill="#63b8ff" stroke="#63b8ff" points="1919.79,-70.86 1909.26,-72 1918.21,-77.68 1919.79,-70.86"/>
</g>
<!-- Node31 -->
<g id="node31" class="node">
<title>Node31</title>
<g id="a_node31"><a xlink:title=" ">
<polygon fill="#e0e0e0" stroke="#999999" points="1160,-74 1128,-74 1128,-55 1160,-55 1160,-74"/>
<text text-anchor="middle" x="1144" y="-62" font-family="Helvetica,sans-Serif" font-size="10.00">list</text>
</a>
</g>
</g>
<!-- Node4&#45;&gt;Node31 -->
<g id="edge75" class="edge">
<title>Node4&#45;&gt;Node31</title>
<path fill="none" stroke="#63b8ff" d="M1492.5,-274.62C1483.25,-242.35 1450.02,-132 1422,-110 1402.29,-94.52 1235.75,-75.29 1170.28,-68.24"/>
<polygon fill="#63b8ff" stroke="#63b8ff" points="1170.64,-64.76 1160.33,-67.18 1169.9,-71.72 1170.64,-64.76"/>
</g>
<!-- Node33 -->
<g id="node33" class="node">
<title>Node33</title>
<g id="a_node33"><a xlink:title=" ">
<polygon fill="#e0e0e0" stroke="#999999" points="1340.5,-74 1247.5,-74 1247.5,-55 1340.5,-55 1340.5,-74"/>
<text text-anchor="middle" x="1294" y="-62" font-family="Helvetica,sans-Serif" font-size="10.00">unordered_map</text>
</a>
</g>
</g>
<!-- Node4&#45;&gt;Node33 -->
<g id="edge73" class="edge">
<title>Node4&#45;&gt;Node33</title>
<path fill="none" stroke="#63b8ff" d="M1499.85,-274.97C1515.34,-246.5 1559.85,-154.09 1512,-110 1488.93,-88.75 1407.41,-76.55 1350.87,-70.47"/>
<polygon fill="#63b8ff" stroke="#63b8ff" points="1350.94,-66.96 1340.63,-69.41 1350.21,-73.92 1350.94,-66.96"/>
</g>
<!-- Node34 -->
<g id="node34" class="node">
<title>Node34</title>
<g id="a_node34"><a xlink:href="FontRenderabilityCache_8h.html" target="_top" xlink:title="Declares FontRenderabilityCache: which chars can each font render?">
<polygon fill="white" stroke="#666666" points="1237,-184 1095,-184 1095,-165 1237,-165 1237,-184"/>
<text text-anchor="middle" x="1166" y="-172" font-family="Helvetica,sans-Serif" font-size="10.00">FontRenderabilityCache.h</text>
</a>
</g>
</g>
<!-- Node4&#45;&gt;Node34 -->
<g id="edge46" class="edge">
<title>Node4&#45;&gt;Node34</title>
<path fill="none" stroke="#63b8ff" d="M1458.95,-274.95C1425.3,-266.69 1373.85,-253.36 1330,-239 1282.14,-223.33 1227.87,-201.49 1195.32,-187.94"/>
<polygon fill="#63b8ff" stroke="#63b8ff" points="1196.53,-184.65 1185.95,-184.02 1193.82,-191.11 1196.53,-184.65"/>
</g>
<!-- Node37 -->
<g id="node37" class="node">
<title>Node37</title>
<g id="a_node37"><a xlink:href="MaximaSessionInfo_8h.html" target="_top" xlink:title="Declares MaximaSessionInfo: what we know about the connected Maxima.">
<polygon fill="white" stroke="#666666" points="1377,-184 1255,-184 1255,-165 1377,-165 1377,-184"/>
<text text-anchor="middle" x="1316" y="-172" font-family="Helvetica,sans-Serif" font-size="10.00">MaximaSessionInfo.h</text>
</a>
</g>
</g>
<!-- Node4&#45;&gt;Node37 -->
<g id="edge52" class="edge">
<title>Node4&#45;&gt;Node37</title>
<path fill="none" stroke="#63b8ff" d="M1444.79,-277.84C1414.55,-272.23 1376.84,-261.08 1350,-239 1335.84,-227.35 1326.75,-208.21 1321.56,-193.99"/>
<polygon fill="#63b8ff" stroke="#63b8ff" points="1324.81,-192.66 1318.34,-184.27 1318.17,-194.87 1324.81,-192.66"/>
</g>
<!-- Node38 -->
<g id="node38" class="node">
<title>Node38</title>
<g id="a_node38"><a xlink:href="RenderContext_8h.html" target="_top" xlink:title="Declares RenderContext: the per&#45;render&#45;pass state of a worksheet.">
<polygon fill="white" stroke="#666666" points="1673,-239 1575,-239 1575,-220 1673,-220 1673,-239"/>
<text text-anchor="middle" x="1624" y="-227" font-family="Helvetica,sans-Serif" font-size="10.00">RenderContext.h</text>
</a>
</g>
</g>
<!-- Node4&#45;&gt;Node38 -->
<g id="edge56" class="edge">
<title>Node4&#45;&gt;Node38</title>
<path fill="none" stroke="#63b8ff" d="M1515.73,-274.98C1536.76,-266.34 1569.55,-252.87 1593.54,-243.02"/>
<polygon fill="#63b8ff" stroke="#63b8ff" points="1594.98,-246.21 1602.9,-239.17 1592.32,-239.73 1594.98,-246.21"/>
</g>
<!-- Node43 -->
<g id="node43" class="node">
<title>Node43</title>
<g id="a_node43"><a xlink:title=" ">
<polygon fill="#e0e0e0" stroke="#999999" points="2084,-184 2034,-184 2034,-165 2084,-165 2084,-184"/>
<text text-anchor="middle" x="2059" y="-172" font-family="Helvetica,sans-Serif" font-size="10.00">atomic</text>
</a>
</g>
</g>
<!-- Node4&#45;&gt;Node43 -->
<g id="edge79" class="edge">
<title>Node4&#45;&gt;Node43</title>
<path fill="none" stroke="#63b8ff" d="M1541,-274.99C1579.26,-267.34 1634.88,-254.87 1682,-239 1701.8,-232.33 1704.86,-225.55 1725,-220 1852.34,-184.93 1889.78,-206.09 2020,-184 2021.27,-183.78 2022.56,-183.56 2023.86,-183.32"/>
<polygon fill="#63b8ff" stroke="#63b8ff" points="2024.76,-186.71 2033.89,-181.33 2023.4,-179.84 2024.76,-186.71"/>
</g>
<!-- Node44 -->
<g id="node44" class="node">
<title>Node44</title>
<g id="a_node44"><a xlink:title=" ">
<polygon fill="#e0e0e0" stroke="#999999" points="2152,-184 2102,-184 2102,-165 2152,-165 2152,-184"/>
<text text-anchor="middle" x="2127" y="-172" font-family="Helvetica,sans-Serif" font-size="10.00">chrono</text>
</a>
</g>
</g>
<!-- Node4&#45;&gt;Node44 -->
<g id="edge80" class="edge">
<title>Node4&#45;&gt;Node44</title>
<path fill="none" stroke="#63b8ff" d="M1545.06,-276.31C1590.5,-269.12 1659.08,-256.59 1717,-239 1738.17,-232.57 1741.57,-225.48 1763,-220 1902.73,-184.29 1945.83,-208.79 2091.62,-183.99"/>
<polygon fill="#63b8ff" stroke="#63b8ff" points="2092.59,-187.37 2101.83,-182.2 2091.38,-180.48 2092.59,-187.37"/>
</g>
<!-- Node45 -->
<g id="node45" class="node">
<title>Node45</title>
<g id="a_node45"><a xlink:title=" ">
<polygon fill="#e0e0e0" stroke="#999999" points="1518.5,-184 1471.5,-184 1471.5,-165 1518.5,-165 1518.5,-184"/>
<text text-anchor="middle" x="1495" y="-172" font-family="Helvetica,sans-Serif" font-size="10.00">vector</text>
</a>
</g>
</g>
<!-- Node4&#45;&gt;Node45 -->
<g id="edge77" class="edge">
<title>Node4&#45;&gt;Node45</title>
<path fill="none" stroke="#63b8ff" d="M1495,-274.66C1495,-257.17 1495,-217.8 1495,-194.27"/>
<polygon fill="#63b8ff" stroke="#63b8ff" points="1498.5,-194.16 1495,-184.16 1491.5,-194.16 1498.5,-194.16"/>
</g>
<!-- Node46 -->
<g id="node46" class="node">
<title>Node46</title>
<g id="a_node46"><a xlink:href="Styles_8h.html" target="_top" xlink:title="This file declares the class Styles.">
<polygon fill="white" stroke="#666666" points="1415,-239 1359,-239 1359,-220 1415,-220 1415,-239"/>
<text text-anchor="middle" x="1387" y="-227" font-family="Helvetica,sans-Serif" font-size="10.00">Styles.h</text>
</a>
</g>
</g>
<!-- Node4&#45;&gt;Node46 -->
<g id="edge66" class="edge">
<title>Node4&#45;&gt;Node46</title>
<path fill="none" stroke="#63b8ff" d="M1477.65,-274.98C1460.43,-266.54 1433.8,-253.47 1413.85,-243.68"/>
<polygon fill="#63b8ff" stroke="#63b8ff" points="1415.19,-240.43 1404.67,-239.17 1412.1,-246.72 1415.19,-240.43"/>
</g>
<!-- Node47 -->
<g id="node47" class="node">
<title>Node47</title>
<g id="a_node47"><a xlink:title=" ">
<polygon fill="#e0e0e0" stroke="#999999" points="2057,-239 2009,-239 2009,-220 2057,-220 2057,-239"/>
<text text-anchor="middle" x="2033" y="-227" font-family="Helvetica,sans-Serif" font-size="10.00">mutex</text>
</a>
</g>
</g>
<!-- Node4&#45;&gt;Node47 -->
<g id="edge72" class="edge">
<title>Node4&#45;&gt;Node47</title>
<path fill="none" stroke="#63b8ff" d="M1545.17,-281.81C1634.58,-278.2 1827.44,-267.74 1998.98,-238.88"/>
<polygon fill="#63b8ff" stroke="#63b8ff" points="1999.68,-242.31 2008.95,-237.18 1998.5,-235.41 1999.68,-242.31"/>
</g>
<!-- Node48 -->
<g id="node48" class="node">
<title>Node48</title>
<g id="a_node48"><a xlink:title=" ">
<polygon fill="#e0e0e0" stroke="#999999" points="2129,-239 2075,-239 2075,-220 2129,-220 2129,-239"/>
<text text-anchor="middle" x="2102" y="-227" font-family="Helvetica,sans-Serif" font-size="10.00">random</text>
</a>
</g>
</g>
<!-- Node4&#45;&gt;Node48 -->
<g id="edge74" class="edge">
<title>Node4&#45;&gt;Node48</title>
<path fill="none" stroke="#63b8ff" d="M1545.33,-282.18C1643.52,-279.04 1867.56,-269.12 2064.99,-238.9"/>
<polygon fill="#63b8ff" stroke="#63b8ff" points="2065.62,-242.35 2074.96,-237.36 2064.54,-235.43 2065.62,-242.35"/>
</g>
<!-- Node49 -->
<g id="node49" class="node">
<title>Node49</title>
<g id="a_node49"><a xlink:title=" ">
<polygon fill="#e0e0e0" stroke="#999999" points="2198.5,-239 2147.5,-239 2147.5,-220 2198.5,-220 2198.5,-239"/>
<text text-anchor="middle" x="2173" y="-227" font-family="Helvetica,sans-Serif" font-size="10.00">variant</text>
</a>
</g>
</g>
<!-- Node4&#45;&gt;Node49 -->
<g id="edge76" class="edge">
<title>Node4&#45;&gt;Node49</title>
<path fill="none" stroke="#63b8ff" d="M1545.34,-282.9C1652.55,-281.02 1911.32,-273.15 2137.42,-238.77"/>
<polygon fill="#63b8ff" stroke="#63b8ff" points="2138.14,-242.21 2147.49,-237.22 2137.07,-235.29 2138.14,-242.21"/>
</g>
<!-- Node50 -->
<g id="node50" class="node">
<title>Node50</title>
<g id="a_node50"><a xlink:title=" ">
<polygon fill="#e0e0e0" stroke="#999999" points="2305.5,-239 2216.5,-239 2216.5,-220 2305.5,-220 2305.5,-239"/>
<text text-anchor="middle" x="2261" y="-227" font-family="Helvetica,sans-Serif" font-size="10.00">wx/wupdlock.h</text>
</a>
</g>
</g>
<!-- Node4&#45;&gt;Node50 -->
<g id="edge81" class="edge">
<title>Node4&#45;&gt;Node50</title>
<path fill="none" stroke="#63b8ff" d="M1545.28,-282.03C1660.46,-278.31 1952.4,-266.84 2206.08,-239.11"/>
<polygon fill="#63b8ff" stroke="#63b8ff" points="2206.67,-242.57 2216.22,-237.99 2205.9,-235.61 2206.67,-242.57"/>
</g>
<!-- Node10&#45;&gt;Node2 -->
<g id="edge11" class="edge">
<title>Node10&#45;&gt;Node2</title>
<path fill="none" stroke="#63b8ff" d="M101.89,-219.98C86.41,-212.92 67.24,-201.23 58,-184 40.62,-151.59 55.82,-107.44 66.9,-83.22"/>
<polygon fill="#63b8ff" stroke="#63b8ff" points="70.08,-84.67 71.28,-74.15 63.78,-81.63 70.08,-84.67"/>
</g>
<!-- Node11 -->
<g id="node11" class="node">
<title>Node11</title>
<g id="a_node11"><a xlink:title=" ">
<polygon fill="#e0e0e0" stroke="#999999" points="145.5,-184 66.5,-184 66.5,-165 145.5,-165 145.5,-184"/>
<text text-anchor="middle" x="106" y="-172" font-family="Helvetica,sans-Serif" font-size="10.00">wx/msgdlg.h</text>
</a>
</g>
</g>
<!-- Node10&#45;&gt;Node11 -->
<g id="edge12" class="edge">
<title>Node10&#45;&gt;Node11</title>
<path fill="none" stroke="#63b8ff" d="M121.86,-219.75C119.32,-212.65 115.64,-202.4 112.47,-193.56"/>
<polygon fill="#63b8ff" stroke="#63b8ff" points="115.75,-192.32 109.08,-184.09 109.16,-194.68 115.75,-192.32"/>
</g>
<!-- Node12 -->
<g id="node12" class="node">
<title>Node12</title>
<g id="a_node12"><a xlink:title=" ">
<polygon fill="#e0e0e0" stroke="#999999" points="221,-184 163,-184 163,-165 221,-165 221,-184"/>
<text text-anchor="middle" x="192" y="-172" font-family="Helvetica,sans-Serif" font-size="10.00">wx/log.h</text>
</a>
</g>
</g>
<!-- Node10&#45;&gt;Node12 -->
<g id="edge13" class="edge">
<title>Node10&#45;&gt;Node12</title>
<path fill="none" stroke="#63b8ff" d="M135.76,-219.98C145.77,-212.07 160.89,-200.11 172.93,-190.58"/>
<polygon fill="#63b8ff" stroke="#63b8ff" points="175.37,-193.12 181.04,-184.17 171.03,-187.63 175.37,-193.12"/>
</g>
<!-- Node13&#45;&gt;Node2 -->
<g id="edge15" class="edge">
<title>Node13&#45;&gt;Node2</title>
<path fill="none" stroke="#63b8ff" d="M559.95,-171.53C461.8,-167.04 241.59,-154.4 171,-129 141,-118.21 111.23,-95.94 93.22,-80.86"/>
<polygon fill="#63b8ff" stroke="#63b8ff" points="95.24,-77.98 85.38,-74.12 90.68,-83.29 95.24,-77.98"/>
</g>
<!-- Node13&#45;&gt;Node6 -->
<g id="edge21" class="edge">
<title>Node13&#45;&gt;Node6</title>
<path fill="none" stroke="#63b8ff" d="M656.08,-167.33C719.07,-159.14 832.95,-143.95 930,-129 931.27,-128.8 932.56,-128.6 933.87,-128.4"/>
<polygon fill="#63b8ff" stroke="#63b8ff" points="934.66,-131.81 943.97,-126.76 933.54,-124.9 934.66,-131.81"/>
</g>
<!-- Node13&#45;&gt;Node9 -->
<g id="edge18" class="edge">
<title>Node13&#45;&gt;Node9</title>
<path fill="none" stroke="#63b8ff" d="M656.26,-169.18C732.21,-162.21 884.5,-147.48 1023.78,-129.1"/>
<polygon fill="#63b8ff" stroke="#63b8ff" points="1024.33,-132.56 1033.78,-127.77 1023.41,-125.62 1024.33,-132.56"/>
</g>
<!-- Node14 -->
<g id="node14" class="node">
<title>Node14</title>
<g id="a_node14"><a xlink:title=" ">
<polygon fill="#e0e0e0" stroke="#999999" points="252,-129 180,-129 180,-110 252,-110 252,-129"/>
<text text-anchor="middle" x="216" y="-117" font-family="Helvetica,sans-Serif" font-size="10.00">wx/colour.h</text>
</a>
</g>
</g>
<!-- Node13&#45;&gt;Node14 -->
<g id="edge16" class="edge">
<title>Node13&#45;&gt;Node14</title>
<path fill="none" stroke="#63b8ff" d="M559.88,-168.24C494.73,-160.92 374.63,-146.71 262.45,-129.15"/>
<polygon fill="#63b8ff" stroke="#63b8ff" points="262.74,-125.65 252.32,-127.55 261.65,-132.57 262.74,-125.65"/>
</g>
<!-- Node15 -->
<g id="node15" class="node">
<title>Node15</title>
<g id="a_node15"><a xlink:title=" ">
<polygon fill="#e0e0e0" stroke="#999999" points="308,-129 270,-129 270,-110 308,-110 308,-129"/>
<text text-anchor="middle" x="289" y="-117" font-family="Helvetica,sans-Serif" font-size="10.00">map</text>
</a>
</g>
</g>
<!-- Node13&#45;&gt;Node15 -->
<g id="edge17" class="edge">
<title>Node13&#45;&gt;Node15</title>
<path fill="none" stroke="#63b8ff" d="M559.97,-168.29C504,-161.75 408.61,-149.13 318.06,-128.95"/>
<polygon fill="#63b8ff" stroke="#63b8ff" points="318.71,-125.51 308.18,-126.72 317.16,-132.34 318.71,-125.51"/>
</g>
<!-- Node16 -->
<g id="node16" class="node">
<title>Node16</title>
<g id="a_node16"><a xlink:title=" ">
<polygon fill="#e0e0e0" stroke="#999999" points="370,-129 326,-129 326,-110 370,-110 370,-129"/>
<text text-anchor="middle" x="348" y="-117" font-family="Helvetica,sans-Serif" font-size="10.00">string</text>
</a>
</g>
</g>
<!-- Node13&#45;&gt;Node16 -->
<g id="edge19" class="edge">
<title>Node13&#45;&gt;Node16</title>
<path fill="none" stroke="#63b8ff" d="M559.76,-165.05C515.65,-157.11 448.38,-144.46 380.37,-128.94"/>
<polygon fill="#63b8ff" stroke="#63b8ff" points="380.86,-125.47 370.33,-126.64 379.29,-132.29 380.86,-125.47"/>
</g>
<!-- Node17 -->
<g id="node17" class="node">
<title>Node17</title>
<g id="a_node17"><a xlink:title=" ">
<polygon fill="#e0e0e0" stroke="#999999" points="445.5,-129 388.5,-129 388.5,-110 445.5,-110 445.5,-129"/>
<text text-anchor="middle" x="417" y="-117" font-family="Helvetica,sans-Serif" font-size="10.00">ostream</text>
</a>
</g>
</g>
<!-- Node13&#45;&gt;Node17 -->
<g id="edge20" class="edge">
<title>Node13&#45;&gt;Node17</title>
<path fill="none" stroke="#63b8ff" d="M577.31,-164.98C544.15,-155.78 491.26,-141.11 455.38,-131.15"/>
<polygon fill="#63b8ff" stroke="#63b8ff" points="456.31,-127.78 445.74,-128.47 454.44,-134.52 456.31,-127.78"/>
</g>
<!-- Node18 -->
<g id="node18" class="node">
<title>Node18</title>
<g id="a_node18"><a xlink:title=" ">
<polygon fill="#e0e0e0" stroke="#999999" points="801,-74 739,-74 739,-55 801,-55 801,-74"/>
<text text-anchor="middle" x="770" y="-62" font-family="Helvetica,sans-Serif" font-size="10.00">wx/font.h</text>
</a>
</g>
</g>
<!-- Node13&#45;&gt;Node18 -->
<g id="edge22" class="edge">
<title>Node13&#45;&gt;Node18</title>
<path fill="none" stroke="#63b8ff" d="M645.77,-164.96C669.91,-158.15 700.91,-146.74 724,-129 739.98,-116.72 752.87,-97.4 760.89,-83.3"/>
<polygon fill="#63b8ff" stroke="#63b8ff" points="764.17,-84.58 765.84,-74.12 758.01,-81.26 764.17,-84.58"/>
</g>
<!-- Node19 -->
<g id="node19" class="node">
<title>Node19</title>
<g id="a_node19"><a xlink:title=" ">
<polygon fill="#e0e0e0" stroke="#999999" points="546,-129 464,-129 464,-110 546,-110 546,-129"/>
<text text-anchor="middle" x="505" y="-117" font-family="Helvetica,sans-Serif" font-size="10.00">wx/settings.h</text>
</a>
</g>
</g>
<!-- Node13&#45;&gt;Node19 -->
<g id="edge23" class="edge">
<title>Node13&#45;&gt;Node19</title>
<path fill="none" stroke="#63b8ff" d="M591.45,-164.98C575.11,-156.57 549.87,-143.59 530.87,-133.81"/>
<polygon fill="#63b8ff" stroke="#63b8ff" points="532.34,-130.63 521.85,-129.17 529.14,-136.86 532.34,-130.63"/>
</g>
<!-- Node13&#45;&gt;Node20 -->
<g id="edge24" class="edge">
<title>Node13&#45;&gt;Node20</title>
<path fill="none" stroke="#63b8ff" d="M603.42,-164.93C595.5,-151.03 577.91,-123.74 555,-110 490.41,-71.26 461.01,-89.83 383.45,-74.13"/>
<polygon fill="#63b8ff" stroke="#63b8ff" points="383.74,-70.62 373.22,-71.92 382.26,-77.46 383.74,-70.62"/>
</g>
<!-- Node21 -->
<g id="node21" class="node">
<title>Node21</title>
<g id="a_node21"><a xlink:title=" ">
<polygon fill="#e0e0e0" stroke="#999999" points="723.5,-19 658.5,-19 658.5,0 723.5,0 723.5,-19"/>
<text text-anchor="middle" x="691" y="-7" font-family="Helvetica,sans-Serif" font-size="10.00">functional</text>
</a>
</g>
</g>
<!-- Node13&#45;&gt;Node21 -->
<g id="edge25" class="edge">
<title>Node13&#45;&gt;Node21</title>
<path fill="none" stroke="#63b8ff" d="M641.02,-164.87C659.18,-158.26 680.17,-147.1 691,-129 709.6,-97.92 702.62,-53.55 696.44,-28.87"/>
<polygon fill="#63b8ff" stroke="#63b8ff" points="699.77,-27.75 693.76,-19.03 693.01,-29.6 699.77,-27.75"/>
</g>
<!-- Node22 -->
<g id="node22" class="node">
<title>Node22</title>
<g id="a_node22"><a xlink:href="FontAttribs_8h_source.html" target="_top" xlink:title=" ">
<polygon fill="white" stroke="#666666" points="681.5,-129 602.5,-129 602.5,-110 681.5,-110 681.5,-129"/>
<text text-anchor="middle" x="642" y="-117" font-family="Helvetica,sans-Serif" font-size="10.00">FontAttribs.h</text>
</a>
</g>
</g>
<!-- Node13&#45;&gt;Node22 -->
<g id="edge26" class="edge">
<title>Node13&#45;&gt;Node22</title>
<path fill="none" stroke="#63b8ff" d="M613.61,-164.75C618.32,-157.42 625.17,-146.73 630.97,-137.7"/>
<polygon fill="#63b8ff" stroke="#63b8ff" points="634.04,-139.4 636.49,-129.09 628.14,-135.62 634.04,-139.4"/>
</g>
<!-- Node29 -->
<g id="node29" class="node">
<title>Node29</title>
<g id="a_node29"><a xlink:href="FontVariantCache_8h.html" target="_top" xlink:title="This file implements the wxFont cache system.">
<polygon fill="white" stroke="#666666" points="887.5,-129 776.5,-129 776.5,-110 887.5,-110 887.5,-129"/>
<text text-anchor="middle" x="832" y="-117" font-family="Helvetica,sans-Serif" font-size="10.00">FontVariantCache.h</text>
</a>
</g>
</g>
<!-- Node13&#45;&gt;Node29 -->
<g id="edge37" class="edge">
<title>Node13&#45;&gt;Node29</title>
<path fill="none" stroke="#63b8ff" d="M643.99,-164.98C682.49,-155.87 743.69,-141.4 785.74,-131.45"/>
<polygon fill="#63b8ff" stroke="#63b8ff" points="786.8,-134.79 795.73,-129.08 785.19,-127.98 786.8,-134.79"/>
</g>
<!-- Node13&#45;&gt;Node33 -->
<g id="edge45" class="edge">
<title>Node13&#45;&gt;Node33</title>
<path fill="none" stroke="#63b8ff" d="M656.09,-170.67C714.31,-166.21 814.77,-155.18 897,-129 914.99,-123.27 916.93,-115.46 935,-110 990.17,-93.33 1150.76,-77.69 1237.26,-70.17"/>
<polygon fill="#63b8ff" stroke="#63b8ff" points="1237.76,-73.64 1247.42,-69.29 1237.16,-66.67 1237.76,-73.64"/>
</g>
<!-- Node22&#45;&gt;Node18 -->
<g id="edge31" class="edge">
<title>Node22&#45;&gt;Node18</title>
<path fill="none" stroke="#63b8ff" d="M662.57,-109.98C683.43,-101.34 715.97,-87.87 739.77,-78.02"/>
<polygon fill="#63b8ff" stroke="#63b8ff" points="741.16,-81.23 749.06,-74.17 738.48,-74.76 741.16,-81.23"/>
</g>
<!-- Node22&#45;&gt;Node20 -->
<g id="edge34" class="edge">
<title>Node22&#45;&gt;Node20</title>
<path fill="none" stroke="#63b8ff" d="M602.41,-112.1C544.21,-102.63 437.37,-85.01 383.03,-74.06"/>
<polygon fill="#63b8ff" stroke="#63b8ff" points="383.7,-70.62 373.2,-72.03 382.29,-77.48 383.7,-70.62"/>
</g>
<!-- Node22&#45;&gt;Node21 -->
<g id="edge35" class="edge">
<title>Node22&#45;&gt;Node21</title>
<path fill="none" stroke="#63b8ff" d="M646.01,-109.66C654.05,-91.93 672.3,-51.73 682.92,-28.32"/>
<polygon fill="#63b8ff" stroke="#63b8ff" points="686.13,-29.71 687.07,-19.16 679.75,-26.82 686.13,-29.71"/>
</g>
<!-- Node23 -->
<g id="node23" class="node">
<title>Node23</title>
<g id="a_node23"><a xlink:href="EnumWrapper_8h_source.html" target="_top" xlink:title=" ">
<polygon fill="white" stroke="#666666" points="485,-74 391,-74 391,-55 485,-55 485,-74"/>
<text text-anchor="middle" x="438" y="-62" font-family="Helvetica,sans-Serif" font-size="10.00">EnumWrapper.h</text>
</a>
</g>
</g>
<!-- Node22&#45;&gt;Node23 -->
<g id="edge27" class="edge">
<title>Node22&#45;&gt;Node23</title>
<path fill="none" stroke="#63b8ff" d="M609.22,-109.98C574.38,-100.93 519.13,-86.58 480.86,-76.64"/>
<polygon fill="#63b8ff" stroke="#63b8ff" points="481.59,-73.21 471.03,-74.08 479.83,-79.98 481.59,-73.21"/>
</g>
<!-- Node26 -->
<g id="node26" class="node">
<title>Node26</title>
<g id="a_node26"><a xlink:title=" ">
<polygon fill="#e0e0e0" stroke="#999999" points="582.5,-74 503.5,-74 503.5,-55 582.5,-55 582.5,-74"/>
<text text-anchor="middle" x="543" y="-62" font-family="Helvetica,sans-Serif" font-size="10.00">wx/version.h</text>
</a>
</g>
</g>
<!-- Node22&#45;&gt;Node26 -->
<g id="edge32" class="edge">
<title>Node22&#45;&gt;Node26</title>
<path fill="none" stroke="#63b8ff" d="M626.09,-109.98C610.45,-101.61 586.34,-88.7 568.12,-78.95"/>
<polygon fill="#63b8ff" stroke="#63b8ff" points="569.66,-75.8 559.2,-74.17 566.36,-81.98 569.66,-75.8"/>
</g>
<!-- Node22&#45;&gt;Node27 -->
<g id="edge33" class="edge">
<title>Node22&#45;&gt;Node27</title>
<path fill="none" stroke="#63b8ff" d="M681.7,-115.45C706.5,-113.64 739.09,-111.43 768,-110 1278.74,-84.79 1407.68,-106.6 1918,-74 1932.91,-73.05 1949.21,-71.59 1963.69,-70.15"/>
<polygon fill="#63b8ff" stroke="#63b8ff" points="1964.26,-73.61 1973.86,-69.11 1963.55,-66.64 1964.26,-73.61"/>
</g>
<!-- Node28 -->
<g id="node28" class="node">
<title>Node28</title>
<g id="a_node28"><a xlink:title=" ">
<polygon fill="#e0e0e0" stroke="#999999" points="644,-74 600,-74 600,-55 644,-55 644,-74"/>
<text text-anchor="middle" x="622" y="-62" font-family="Helvetica,sans-Serif" font-size="10.00">limits</text>
</a>
</g>
</g>
<!-- Node22&#45;&gt;Node28 -->
<g id="edge36" class="edge">
<title>Node22&#45;&gt;Node28</title>
<path fill="none" stroke="#63b8ff" d="M638.7,-109.75C636.02,-102.65 632.15,-92.4 628.81,-83.56"/>
<polygon fill="#63b8ff" stroke="#63b8ff" points="632.05,-82.21 625.24,-74.09 625.5,-84.68 632.05,-82.21"/>
</g>
<!-- Node23&#45;&gt;Node21 -->
<g id="edge29" class="edge">
<title>Node23&#45;&gt;Node21</title>
<path fill="none" stroke="#63b8ff" d="M478.65,-54.98C525.24,-45.23 601.24,-29.3 648.56,-19.39"/>
<polygon fill="#63b8ff" stroke="#63b8ff" points="649.43,-22.79 658.5,-17.31 647.99,-15.93 649.43,-22.79"/>
</g>
<!-- Node24 -->
<g id="node24" class="node">
<title>Node24</title>
<g id="a_node24"><a xlink:title=" ">
<polygon fill="#e0e0e0" stroke="#999999" points="424.5,-19 371.5,-19 371.5,0 424.5,0 424.5,-19"/>
<text text-anchor="middle" x="398" y="-7" font-family="Helvetica,sans-Serif" font-size="10.00">cstddef</text>
</a>
</g>
</g>
<!-- Node23&#45;&gt;Node24 -->
<g id="edge28" class="edge">
<title>Node23&#45;&gt;Node24</title>
<path fill="none" stroke="#63b8ff" d="M431.39,-54.75C425.74,-47.26 417.46,-36.28 410.55,-27.13"/>
<polygon fill="#63b8ff" stroke="#63b8ff" points="413.3,-24.96 404.48,-19.09 407.71,-29.18 413.3,-24.96"/>
</g>
<!-- Node25 -->
<g id="node25" class="node">
<title>Node25</title>
<g id="a_node25"><a xlink:title=" ">
<polygon fill="#e0e0e0" stroke="#999999" points="511.5,-19 442.5,-19 442.5,0 511.5,0 511.5,-19"/>
<text text-anchor="middle" x="477" y="-7" font-family="Helvetica,sans-Serif" font-size="10.00">type_traits</text>
</a>
</g>
</g>
<!-- Node23&#45;&gt;Node25 -->
<g id="edge30" class="edge">
<title>Node23&#45;&gt;Node25</title>
<path fill="none" stroke="#63b8ff" d="M444.44,-54.75C449.89,-47.34 457.86,-36.5 464.56,-27.41"/>
<polygon fill="#63b8ff" stroke="#63b8ff" points="467.57,-29.22 470.68,-19.09 461.93,-25.07 467.57,-29.22"/>
</g>
<!-- Node29&#45;&gt;Node2 -->
<g id="edge38" class="edge">
<title>Node29&#45;&gt;Node2</title>
<path fill="none" stroke="#63b8ff" d="M776.41,-114.6C632.65,-104.52 250.76,-77.75 120.36,-68.61"/>
<polygon fill="#63b8ff" stroke="#63b8ff" points="120.55,-65.11 110.33,-67.91 120.06,-72.1 120.55,-65.11"/>
</g>
<!-- Node29&#45;&gt;Node18 -->
<g id="edge40" class="edge">
<title>Node29&#45;&gt;Node18</title>
<path fill="none" stroke="#63b8ff" d="M822.04,-109.98C812.87,-102.15 799.06,-90.34 787.97,-80.86"/>
<polygon fill="#63b8ff" stroke="#63b8ff" points="790.02,-78.01 780.14,-74.17 785.47,-83.33 790.02,-78.01"/>
</g>
<!-- Node29&#45;&gt;Node21 -->
<g id="edge41" class="edge">
<title>Node29&#45;&gt;Node21</title>
<path fill="none" stroke="#63b8ff" d="M831.32,-109.9C829.8,-96.45 824.99,-70.36 810,-55 789.76,-34.26 758.94,-23.09 733.75,-17.12"/>
<polygon fill="#63b8ff" stroke="#63b8ff" points="734.21,-13.64 723.69,-14.94 732.72,-20.48 734.21,-13.64"/>
</g>
<!-- Node29&#45;&gt;Node30 -->
<g id="edge39" class="edge">
<title>Node29&#45;&gt;Node30</title>
<path fill="none" stroke="#63b8ff" d="M887.57,-113.55C902.92,-112.28 919.6,-111 935,-110 1286.12,-87.25 1711.35,-71.41 1840.77,-66.85"/>
<polygon fill="#63b8ff" stroke="#63b8ff" points="1841.11,-70.34 1850.98,-66.49 1840.86,-63.35 1841.11,-70.34"/>
</g>
<!-- Node29&#45;&gt;Node31 -->
<g id="edge42" class="edge">
<title>Node29&#45;&gt;Node31</title>
<path fill="none" stroke="#63b8ff" d="M882.13,-109.98C949.19,-98.59 1065.67,-78.81 1117.65,-69.98"/>
<polygon fill="#63b8ff" stroke="#63b8ff" points="1118.45,-73.39 1127.72,-68.27 1117.27,-66.49 1118.45,-73.39"/>
</g>
<!-- Node32 -->
<g id="node32" class="node">
<title>Node32</title>
<g id="a_node32"><a xlink:title=" ">
<polygon fill="#e0e0e0" stroke="#999999" points="972.5,-74 927.5,-74 927.5,-55 972.5,-55 972.5,-74"/>
<text text-anchor="middle" x="950" y="-62" font-family="Helvetica,sans-Serif" font-size="10.00">utility</text>
</a>
</g>
</g>
<!-- Node29&#45;&gt;Node32 -->
<g id="edge43" class="edge">
<title>Node29&#45;&gt;Node32</title>
<path fill="none" stroke="#63b8ff" d="M850.96,-109.98C870.03,-101.42 899.66,-88.11 921.55,-78.28"/>
<polygon fill="#63b8ff" stroke="#63b8ff" points="923.01,-81.46 930.7,-74.17 920.14,-75.07 923.01,-81.46"/>
</g>
<!-- Node29&#45;&gt;Node33 -->
<g id="edge44" class="edge">
<title>Node29&#45;&gt;Node33</title>
<path fill="none" stroke="#63b8ff" d="M887.78,-111.69C892.59,-111.11 897.38,-110.54 902,-110 1021.06,-96.01 1160.54,-80.35 1236.88,-71.84"/>
<polygon fill="#63b8ff" stroke="#63b8ff" points="1237.67,-75.28 1247.22,-70.69 1236.9,-68.32 1237.67,-75.28"/>
</g>
<!-- Node34&#45;&gt;Node9 -->
<g id="edge49" class="edge">
<title>Node34&#45;&gt;Node9</title>
<path fill="none" stroke="#63b8ff" d="M1151.86,-164.98C1138.21,-156.77 1117.31,-144.18 1101.22,-134.49"/>
<polygon fill="#63b8ff" stroke="#63b8ff" points="1102.77,-131.33 1092.4,-129.17 1099.16,-137.33 1102.77,-131.33"/>
</g>
<!-- Node34&#45;&gt;Node18 -->
<g id="edge48" class="edge">
<title>Node34&#45;&gt;Node18</title>
<path fill="none" stroke="#63b8ff" d="M1163.93,-164.8C1160.08,-150.7 1150.39,-123.12 1131,-110 1104.9,-92.34 900.05,-75.17 811.05,-68.46"/>
<polygon fill="#63b8ff" stroke="#63b8ff" points="811.27,-64.96 801.04,-67.71 810.75,-71.94 811.27,-64.96"/>
</g>
<!-- Node34&#45;&gt;Node33 -->
<g id="edge51" class="edge">
<title>Node34&#45;&gt;Node33</title>
<path fill="none" stroke="#63b8ff" d="M1210.28,-164.94C1232.49,-158.53 1258.17,-147.54 1275,-129 1286.12,-116.75 1290.74,-98.24 1292.66,-84.35"/>
<polygon fill="#63b8ff" stroke="#63b8ff" points="1296.18,-84.33 1293.71,-74.02 1289.21,-83.61 1296.18,-84.33"/>
</g>
<!-- Node35 -->
<g id="node35" class="node">
<title>Node35</title>
<g id="a_node35"><a xlink:title=" ">
<polygon fill="#e0e0e0" stroke="#999999" points="1265.5,-129 1178.5,-129 1178.5,-110 1265.5,-110 1265.5,-129"/>
<text text-anchor="middle" x="1222" y="-117" font-family="Helvetica,sans-Serif" font-size="10.00">wx/confbase.h</text>
</a>
</g>
</g>
<!-- Node34&#45;&gt;Node35 -->
<g id="edge47" class="edge">
<title>Node34&#45;&gt;Node35</title>
<path fill="none" stroke="#63b8ff" d="M1175,-164.98C1183.19,-157.23 1195.51,-145.58 1205.47,-136.14"/>
<polygon fill="#63b8ff" stroke="#63b8ff" points="1207.98,-138.59 1212.84,-129.17 1203.17,-133.5 1207.98,-138.59"/>
</g>
<!-- Node36 -->
<g id="node36" class="node">
<title>Node36</title>
<g id="a_node36"><a xlink:title=" ">
<polygon fill="#e0e0e0" stroke="#999999" points="1393.5,-129 1322.5,-129 1322.5,-110 1393.5,-110 1393.5,-129"/>
<text text-anchor="middle" x="1358" y="-117" font-family="Helvetica,sans-Serif" font-size="10.00">wx/string.h</text>
</a>
</g>
</g>
<!-- Node34&#45;&gt;Node36 -->
<g id="edge50" class="edge">
<title>Node34&#45;&gt;Node36</title>
<path fill="none" stroke="#63b8ff" d="M1196.85,-164.98C1229.5,-155.97 1281.2,-141.7 1317.2,-131.76"/>
<polygon fill="#63b8ff" stroke="#63b8ff" points="1318.2,-135.12 1326.91,-129.08 1316.34,-128.37 1318.2,-135.12"/>
</g>
<!-- Node37&#45;&gt;Node9 -->
<g id="edge54" class="edge">
<title>Node37&#45;&gt;Node9</title>
<path fill="none" stroke="#63b8ff" d="M1277.76,-164.98C1236.59,-155.82 1171.01,-141.21 1126.3,-131.26"/>
<polygon fill="#63b8ff" stroke="#63b8ff" points="1127.06,-127.84 1116.54,-129.08 1125.54,-134.67 1127.06,-127.84"/>
</g>
<!-- Node37&#45;&gt;Node33 -->
<g id="edge55" class="edge">
<title>Node37&#45;&gt;Node33</title>
<path fill="none" stroke="#63b8ff" d="M1347.4,-164.93C1378.84,-154.7 1420.26,-135.69 1403,-110 1391,-92.14 1370.44,-81.44 1350.38,-75.04"/>
<polygon fill="#63b8ff" stroke="#63b8ff" points="1351.2,-71.63 1340.62,-72.23 1349.26,-78.36 1351.2,-71.63"/>
</g>
<!-- Node37&#45;&gt;Node36 -->
<g id="edge53" class="edge">
<title>Node37&#45;&gt;Node36</title>
<path fill="none" stroke="#63b8ff" d="M1322.94,-164.75C1328.87,-157.26 1337.57,-146.28 1344.82,-137.13"/>
<polygon fill="#63b8ff" stroke="#63b8ff" points="1347.73,-139.1 1351.19,-129.09 1342.24,-134.75 1347.73,-139.1"/>
</g>
<!-- Node38&#45;&gt;Node27 -->
<g id="edge61" class="edge">
<title>Node38&#45;&gt;Node27</title>
<path fill="none" stroke="#63b8ff" d="M1673.14,-220.68C1674.78,-220.45 1676.4,-220.22 1678,-220 1746.49,-210.62 1937.08,-231.82 1987,-184 2013.87,-158.26 2012.5,-110.77 2009.21,-84.4"/>
<polygon fill="#63b8ff" stroke="#63b8ff" points="2012.63,-83.6 2007.71,-74.22 2005.71,-84.62 2012.63,-83.6"/>
</g>
<!-- Node38&#45;&gt;Node30 -->
<g id="edge64" class="edge">
<title>Node38&#45;&gt;Node30</title>
<path fill="none" stroke="#63b8ff" d="M1673.09,-220.76C1740.56,-209.9 1854.45,-190.73 1861,-184 1886.96,-157.34 1885.95,-110.22 1882.96,-84.15"/>
<polygon fill="#63b8ff" stroke="#63b8ff" points="1886.41,-83.53 1881.59,-74.09 1879.47,-84.47 1886.41,-83.53"/>
</g>
<!-- Node39 -->
<g id="node39" class="node">
<title>Node39</title>
<g id="a_node39"><a xlink:title=" ">
<polygon fill="#e0e0e0" stroke="#999999" points="1978,-184 1908,-184 1908,-165 1978,-165 1978,-184"/>
<text text-anchor="middle" x="1943" y="-172" font-family="Helvetica,sans-Serif" font-size="10.00">wx/brush.h</text>
</a>
</g>
</g>
<!-- Node38&#45;&gt;Node39 -->
<g id="edge57" class="edge">
<title>Node38&#45;&gt;Node39</title>
<path fill="none" stroke="#63b8ff" d="M1673.29,-220.5C1727.43,-211.69 1816.94,-197.03 1894,-184 1895.27,-183.79 1896.56,-183.57 1897.86,-183.35"/>
<polygon fill="#63b8ff" stroke="#63b8ff" points="1898.68,-186.76 1907.94,-181.62 1897.5,-179.86 1898.68,-186.76"/>
</g>
<!-- Node40 -->
<g id="node40" class="node">
<title>Node40</title>
<g id="a_node40"><a xlink:title=" ">
<polygon fill="#e0e0e0" stroke="#999999" points="1656.5,-184 1575.5,-184 1575.5,-165 1656.5,-165 1656.5,-184"/>
<text text-anchor="middle" x="1616" y="-172" font-family="Helvetica,sans-Serif" font-size="10.00">wx/dcclient.h</text>
</a>
</g>
</g>
<!-- Node38&#45;&gt;Node40 -->
<g id="edge58" class="edge">
<title>Node38&#45;&gt;Node40</title>
<path fill="none" stroke="#63b8ff" d="M1622.68,-219.75C1621.63,-212.8 1620.13,-202.85 1618.81,-194.13"/>
<polygon fill="#63b8ff" stroke="#63b8ff" points="1622.25,-193.45 1617.3,-184.09 1615.33,-194.5 1622.25,-193.45"/>
</g>
<!-- Node41 -->
<g id="node41" class="node">
<title>Node41</title>
<g id="a_node41"><a xlink:title=" ">
<polygon fill="#e0e0e0" stroke="#999999" points="1753.5,-184 1674.5,-184 1674.5,-165 1753.5,-165 1753.5,-184"/>
<text text-anchor="middle" x="1714" y="-172" font-family="Helvetica,sans-Serif" font-size="10.00">wx/gdicmn.h</text>
</a>
</g>
</g>
<!-- Node38&#45;&gt;Node41 -->
<g id="edge59" class="edge">
<title>Node38&#45;&gt;Node41</title>
<path fill="none" stroke="#63b8ff" d="M1638.46,-219.98C1652.42,-211.77 1673.79,-199.18 1690.25,-189.49"/>
<polygon fill="#63b8ff" stroke="#63b8ff" points="1692.44,-192.26 1699.28,-184.17 1688.88,-186.23 1692.44,-192.26"/>
</g>
<!-- Node42 -->
<g id="node42" class="node">
<title>Node42</title>
<g id="a_node42"><a xlink:title=" ">
<polygon fill="#e0e0e0" stroke="#999999" points="1852,-184 1772,-184 1772,-165 1852,-165 1852,-184"/>
<text text-anchor="middle" x="1812" y="-172" font-family="Helvetica,sans-Serif" font-size="10.00">wx/window.h</text>
</a>
</g>
</g>
<!-- Node38&#45;&gt;Node42 -->
<g id="edge60" class="edge">
<title>Node38&#45;&gt;Node42</title>
<path fill="none" stroke="#63b8ff" d="M1654.21,-219.98C1686.04,-211.01 1736.36,-196.82 1771.6,-186.89"/>
<polygon fill="#63b8ff" stroke="#63b8ff" points="1772.88,-190.16 1781.56,-184.08 1770.98,-183.43 1772.88,-190.16"/>
</g>
<!-- Node38&#45;&gt;Node43 -->
<g id="edge62" class="edge">
<title>Node38&#45;&gt;Node43</title>
<path fill="none" stroke="#63b8ff" d="M1673.16,-221.74C1677.84,-221.13 1682.51,-220.55 1687,-220 1834.78,-202.05 1873.07,-207.88 2020,-184 2021.27,-183.79 2022.56,-183.57 2023.86,-183.34"/>
<polygon fill="#63b8ff" stroke="#63b8ff" points="2024.75,-186.73 2033.9,-181.38 2023.42,-179.86 2024.75,-186.73"/>
</g>
<!-- Node38&#45;&gt;Node44 -->
<g id="edge63" class="edge">
<title>Node38&#45;&gt;Node44</title>
<path fill="none" stroke="#63b8ff" d="M1673.2,-224.25C1779.02,-215.07 2023.63,-193.5 2091.83,-183.8"/>
<polygon fill="#63b8ff" stroke="#63b8ff" points="2092.5,-187.24 2101.84,-182.24 2091.42,-180.32 2092.5,-187.24"/>
</g>
<!-- Node38&#45;&gt;Node45 -->
<g id="edge65" class="edge">
<title>Node38&#45;&gt;Node45</title>
<path fill="none" stroke="#63b8ff" d="M1603.27,-219.98C1582.24,-211.34 1549.45,-197.87 1525.46,-188.02"/>
<polygon fill="#63b8ff" stroke="#63b8ff" points="1526.68,-184.73 1516.1,-184.17 1524.02,-191.21 1526.68,-184.73"/>
</g>
<!-- Node46&#45;&gt;Node13 -->
<g id="edge67" class="edge">
<title>Node46&#45;&gt;Node13</title>
<path fill="none" stroke="#63b8ff" d="M1358.81,-226.58C1245.62,-218.88 822.72,-190.11 666.48,-179.48"/>
<polygon fill="#63b8ff" stroke="#63b8ff" points="666.36,-175.96 656.14,-178.78 665.88,-182.95 666.36,-175.96"/>
</g>
<!-- Node46&#45;&gt;Node32 -->
<g id="edge68" class="edge">
<title>Node46&#45;&gt;Node32</title>
<path fill="none" stroke="#63b8ff" d="M1392.23,-219.7C1404.4,-197.99 1431.44,-141.38 1403,-110 1388.85,-94.4 1084.07,-73.92 982.56,-67.51"/>
<polygon fill="#63b8ff" stroke="#63b8ff" points="982.77,-64.01 972.57,-66.88 982.33,-71 982.77,-64.01"/>
</g>
<!-- Node46&#45;&gt;Node45 -->
<g id="edge69" class="edge">
<title>Node46&#45;&gt;Node45</title>
<path fill="none" stroke="#63b8ff" d="M1404.35,-219.98C1421.57,-211.54 1448.2,-198.47 1468.15,-188.68"/>
<polygon fill="#63b8ff" stroke="#63b8ff" points="1469.9,-191.72 1477.33,-184.17 1466.81,-185.43 1469.9,-191.72"/>
</g>
</g>
</svg>
