<?xml version="1.0" encoding="UTF-8" standalone="no"?>
<!DOCTYPE svg PUBLIC "-//W3C//DTD SVG 1.1//EN"
 "http://www.w3.org/Graphics/SVG/1.1/DTD/svg11.dtd">
<!-- Generated by graphviz version 2.43.0 (0)
 -->
<!-- Title: src/cells/AnimationCell.h Pages: 1 -->
<svg width="2928pt" height="368pt"
 viewBox="0.00 0.00 2928.00 368.00" xmlns="http://www.w3.org/2000/svg" xmlns:xlink="http://www.w3.org/1999/xlink">
<g id="graph0" class="graph" transform="scale(1 1) rotate(0) translate(4 364)">
<title>src/cells/AnimationCell.h</title>
<!-- Node1 -->
<g id="node1" class="node">
<title>Node1</title>
<g id="a_node1"><a xlink:title="This file declares the class AnimationCell.">
<polygon fill="#999999" stroke="#666666" points="2282.5,-360 2145.5,-360 2145.5,-341 2282.5,-341 2282.5,-360"/>
<text text-anchor="middle" x="2214" y="-348" font-family="Helvetica,sans-Serif" font-size="10.00">src/cells/AnimationCell.h</text>
</a>
</g>
</g>
<!-- Node2 -->
<g id="node2" class="node">
<title>Node2</title>
<g id="a_node2"><a xlink:href="MathParser_8cpp.html" target="_top" xlink:title="This file defines the class MathParser that reads wxmx data and math from Maxima.">
<polygon fill="white" stroke="#666666" points="108,-305 0,-305 0,-286 108,-286 108,-305"/>
<text text-anchor="middle" x="54" y="-293" font-family="Helvetica,sans-Serif" font-size="10.00">src/MathParser.cpp</text>
</a>
</g>
</g>
<!-- Node1&#45;&gt;Node2 -->
<g id="edge1" class="edge">
<title>Node1&#45;&gt;Node2</title>
<path fill="none" stroke="#63b8ff" d="M2134.78,-348.91C1803.06,-346.27 524.33,-334.35 122,-305 117.49,-304.67 112.82,-304.25 108.14,-303.78"/>
<polygon fill="#63b8ff" stroke="#63b8ff" points="2135.22,-352.41 2145.25,-348.99 2135.27,-345.41 2135.22,-352.41"/>
</g>
<!-- Node3 -->
<g id="node3" class="node">
<title>Node3</title>
<g id="a_node3"><a xlink:href="MaximaCommandMenus_8cpp.html" target="_top" xlink:title="Implementation of the menu&#45;command handlers extracted from wxMaxima &#45; see MaximaCommandMenus....">
<polygon fill="white" stroke="#666666" points="2419,-74 2243,-74 2243,-55 2419,-55 2419,-74"/>
<text text-anchor="middle" x="2331" y="-62" font-family="Helvetica,sans-Serif" font-size="10.00">src/MaximaCommandMenus.cpp</text>
</a>
</g>
</g>
<!-- Node1&#45;&gt;Node3 -->
<g id="edge2" class="edge">
<title>Node1&#45;&gt;Node3</title>
<path fill="none" stroke="#63b8ff" d="M2257.13,-338.32C2306.41,-325.57 2389.48,-304.13 2461,-286 2622.64,-245.02 2722.38,-326.44 2825,-195 2833.21,-184.49 2833.63,-175.17 2825,-165 2793.23,-127.56 2655.17,-138.51 2607,-129 2519.21,-111.67 2416.75,-86.89 2364.85,-74.01"/>
<polygon fill="#63b8ff" stroke="#63b8ff" points="2255.95,-335.01 2247.14,-340.91 2257.7,-341.79 2255.95,-335.01"/>
</g>
<!-- Node4 -->
<g id="node4" class="node">
<title>Node4</title>
<g id="a_node4"><a xlink:href="ToolBar_8h.html" target="_top" xlink:title="This file declares the class ToolBar that represents wxMaxima&#39;s main tool bar.">
<polygon fill="white" stroke="#666666" points="2253,-305 2175,-305 2175,-286 2253,-286 2253,-305"/>
<text text-anchor="middle" x="2214" y="-293" font-family="Helvetica,sans-Serif" font-size="10.00">src/ToolBar.h</text>
</a>
</g>
</g>
<!-- Node1&#45;&gt;Node4 -->
<g id="edge3" class="edge">
<title>Node1&#45;&gt;Node4</title>
<path fill="none" stroke="#63b8ff" d="M2214,-330.66C2214,-321.93 2214,-311.99 2214,-305.09"/>
<polygon fill="#63b8ff" stroke="#63b8ff" points="2210.5,-330.75 2214,-340.75 2217.5,-330.75 2210.5,-330.75"/>
</g>
<!-- Node6 -->
<g id="node6" class="node">
<title>Node6</title>
<g id="a_node6"><a xlink:href="Worksheet_8h.html" target="_top" xlink:title="This file defines the class Worksheet.">
<polygon fill="white" stroke="#666666" points="1702.5,-250 1607.5,-250 1607.5,-231 1702.5,-231 1702.5,-250"/>
<text text-anchor="middle" x="1655" y="-238" font-family="Helvetica,sans-Serif" font-size="10.00">src/Worksheet.h</text>
</a>
</g>
</g>
<!-- Node1&#45;&gt;Node6 -->
<g id="edge56" class="edge">
<title>Node1&#45;&gt;Node6</title>
<path fill="none" stroke="#63b8ff" d="M2159.75,-339.02C2049.42,-317.7 1800.76,-269.66 1699.34,-250.07"/>
<polygon fill="#63b8ff" stroke="#63b8ff" points="2159.19,-342.47 2169.67,-340.94 2160.51,-335.6 2159.19,-342.47"/>
</g>
<!-- Node9 -->
<g id="node9" class="node">
<title>Node9</title>
<g id="a_node9"><a xlink:href="Worksheet_8cpp.html" target="_top" xlink:title="This file defines the class Worksheet.">
<polygon fill="white" stroke="#666666" points="270,-74 164,-74 164,-55 270,-55 270,-74"/>
<text text-anchor="middle" x="217" y="-62" font-family="Helvetica,sans-Serif" font-size="10.00">src/Worksheet.cpp</text>
</a>
</g>
</g>
<!-- Node1&#45;&gt;Node9 -->
<g id="edge55" class="edge">
<title>Node1&#45;&gt;Node9</title>
<path fill="none" stroke="#63b8ff" d="M2135.03,-349.52C1759.66,-349.13 174,-341.56 174,-241.5 174,-241.5 174,-241.5 174,-179 174,-137.49 199.46,-92.65 211.2,-74.19"/>
<polygon fill="#63b8ff" stroke="#63b8ff" points="2135.25,-353.02 2145.25,-349.53 2135.25,-346.02 2135.25,-353.02"/>
</g>
<!-- Node13 -->
<g id="node13" class="node">
<title>Node13</title>
<g id="a_node13"><a xlink:href="wxMaxima_8cpp.html" target="_top" xlink:title="This file defines the contents of the class wxMaxima that contains most of the program&#39;s logic.">
<polygon fill="white" stroke="#666666" points="1518,-19 1410,-19 1410,0 1518,0 1518,-19"/>
<text text-anchor="middle" x="1464" y="-7" font-family="Helvetica,sans-Serif" font-size="10.00">src/wxMaxima.cpp</text>
</a>
</g>
</g>
<!-- Node1&#45;&gt;Node13 -->
<g id="edge60" class="edge">
<title>Node1&#45;&gt;Node13</title>
<path fill="none" stroke="#63b8ff" d="M2135.16,-349.17C1798.58,-347.57 490.93,-339.17 310,-305 229.11,-289.72 136,-323.82 136,-241.5 136,-241.5 136,-241.5 136,-118.5 136,-89.04 131.63,-72.93 155,-55 209.94,-12.84 1331.98,-24.64 1401,-19 1403.86,-18.77 1406.79,-18.49 1409.74,-18.19"/>
<polygon fill="#63b8ff" stroke="#63b8ff" points="2135.29,-352.67 2145.31,-349.22 2135.33,-345.67 2135.29,-352.67"/>
</g>
<!-- Node40 -->
<g id="node40" class="node">
<title>Node40</title>
<g id="a_node40"><a xlink:href="WorksheetExport_8cpp.html" target="_top" xlink:title="The document serializers declared in WorksheetExport.h.">
<polygon fill="white" stroke="#666666" points="2606.5,-305 2469.5,-305 2469.5,-286 2606.5,-286 2606.5,-305"/>
<text text-anchor="middle" x="2538" y="-293" font-family="Helvetica,sans-Serif" font-size="10.00">src/WorksheetExport.cpp</text>
</a>
</g>
</g>
<!-- Node1&#45;&gt;Node40 -->
<g id="edge57" class="edge">
<title>Node1&#45;&gt;Node40</title>
<path fill="none" stroke="#63b8ff" d="M2276.29,-339.31C2337.14,-329.36 2428.68,-314.38 2485.8,-305.04"/>
<polygon fill="#63b8ff" stroke="#63b8ff" points="2275.36,-335.92 2266.06,-340.98 2276.49,-342.82 2275.36,-335.92"/>
</g>
<!-- Node41 -->
<g id="node41" class="node">
<title>Node41</title>
<g id="a_node41"><a xlink:href="AnimationCell_8cpp.html" target="_top" xlink:title="This file defines the class AnimationCell.">
<polygon fill="white" stroke="#666666" points="2773.5,-305 2624.5,-305 2624.5,-286 2773.5,-286 2773.5,-305"/>
<text text-anchor="middle" x="2699" y="-293" font-family="Helvetica,sans-Serif" font-size="10.00">src/cells/AnimationCell.cpp</text>
</a>
</g>
</g>
<!-- Node1&#45;&gt;Node41 -->
<g id="edge58" class="edge">
<title>Node1&#45;&gt;Node41</title>
<path fill="none" stroke="#63b8ff" d="M2292.76,-340.89C2384.34,-330.89 2534.37,-314.49 2624.21,-304.67"/>
<polygon fill="#63b8ff" stroke="#63b8ff" points="2292.28,-337.43 2282.72,-341.99 2293.04,-344.38 2292.28,-337.43"/>
</g>
<!-- Node42 -->
<g id="node42" class="node">
<title>Node42</title>
<g id="a_node42"><a xlink:href="GroupCell_8cpp.html" target="_top" xlink:title="This file defines the class GroupCell.">
<polygon fill="white" stroke="#666666" points="2920,-305 2792,-305 2792,-286 2920,-286 2920,-305"/>
<text text-anchor="middle" x="2856" y="-293" font-family="Helvetica,sans-Serif" font-size="10.00">src/cells/GroupCell.cpp</text>
</a>
</g>
</g>
<!-- Node1&#45;&gt;Node42 -->
<g id="edge59" class="edge">
<title>Node1&#45;&gt;Node42</title>
<path fill="none" stroke="#63b8ff" d="M2292.84,-344.28C2402.75,-336.79 2608.23,-322 2783,-305 2785.92,-304.72 2788.91,-304.41 2791.92,-304.1"/>
<polygon fill="#63b8ff" stroke="#63b8ff" points="2292.57,-340.79 2282.83,-344.96 2293.04,-347.78 2292.57,-340.79"/>
</g>
<!-- Node5 -->
<g id="node5" class="node">
<title>Node5</title>
<g id="a_node5"><a xlink:href="ToolBar_8cpp.html" target="_top" xlink:title="This file defines the class ToolBar that represents wxMaxima&#39;s main tool bar.">
<polygon fill="white" stroke="#666666" points="2331.5,-250 2242.5,-250 2242.5,-231 2331.5,-231 2331.5,-250"/>
<text text-anchor="middle" x="2287" y="-238" font-family="Helvetica,sans-Serif" font-size="10.00">src/ToolBar.cpp</text>
</a>
</g>
</g>
<!-- Node4&#45;&gt;Node5 -->
<g id="edge4" class="edge">
<title>Node4&#45;&gt;Node5</title>
<path fill="none" stroke="#63b8ff" d="M2234.14,-279.88C2247.28,-270.34 2263.98,-258.21 2275.06,-250.17"/>
<polygon fill="#63b8ff" stroke="#63b8ff" points="2231.76,-277.28 2225.73,-285.98 2235.88,-282.94 2231.76,-277.28"/>
</g>
<!-- Node4&#45;&gt;Node6 -->
<g id="edge5" class="edge">
<title>Node4&#45;&gt;Node6</title>
<path fill="none" stroke="#63b8ff" d="M2164.53,-289.81C2057.97,-279.71 1807.89,-256 1702.82,-246.03"/>
<polygon fill="#63b8ff" stroke="#63b8ff" points="2164.41,-293.31 2174.69,-290.77 2165.07,-286.34 2164.41,-293.31"/>
</g>
<!-- Node27 -->
<g id="node27" class="node">
<title>Node27</title>
<g id="a_node27"><a xlink:href="test__Accessibility_8cpp.html" target="_top" xlink:title="Logic&#45;level regression tests for wxMaxima&#39;s custom wxAccessible classes.">
<polygon fill="white" stroke="#666666" points="2816,-195 2708,-195 2708,-165 2816,-165 2816,-195"/>
<text text-anchor="start" x="2716" y="-183" font-family="Helvetica,sans-Serif" font-size="10.00">test/unit_tests/test</text>
<text text-anchor="middle" x="2762" y="-172" font-family="Helvetica,sans-Serif" font-size="10.00">_Accessibility.cpp</text>
</a>
</g>
</g>
<!-- Node4&#45;&gt;Node27 -->
<g id="edge54" class="edge">
<title>Node4&#45;&gt;Node27</title>
<path fill="none" stroke="#63b8ff" d="M2214.56,-275.45C2216.1,-260.88 2220.72,-241.56 2234,-231 2274.12,-199.09 2643.24,-202.18 2694,-195 2698.54,-194.36 2703.22,-193.6 2707.92,-192.77"/>
<polygon fill="#63b8ff" stroke="#63b8ff" points="2211.04,-275.65 2213.89,-285.85 2218.03,-276.1 2211.04,-275.65"/>
</g>
<!-- Node7 -->
<g id="node7" class="node">
<title>Node7</title>
<g id="a_node7"><a xlink:href="MaximaFileIO_8cpp.html" target="_top" xlink:title="Implements the worksheet file loaders/savers extracted from the wxMaxima god class.">
<polygon fill="white" stroke="#666666" points="410,-74 288,-74 288,-55 410,-55 410,-74"/>
<text text-anchor="middle" x="349" y="-62" font-family="Helvetica,sans-Serif" font-size="10.00">src/MaximaFileIO.cpp</text>
</a>
</g>
</g>
<!-- Node6&#45;&gt;Node7 -->
<g id="edge6" class="edge">
<title>Node6&#45;&gt;Node7</title>
<path fill="none" stroke="#63b8ff" d="M1597.16,-239.78C1347,-240.71 368.84,-241.36 324,-195 291.05,-160.93 327.73,-97.29 342.98,-74.17"/>
<polygon fill="#63b8ff" stroke="#63b8ff" points="1597.49,-243.28 1607.48,-239.74 1597.47,-236.28 1597.49,-243.28"/>
</g>
<!-- Node8 -->
<g id="node8" class="node">
<title>Node8</title>
<g id="a_node8"><a xlink:href="MaximaOutputAppender_8cpp.html" target="_top" xlink:title="Implements the worksheet output appenders extracted from the wxMaxima god class.">
<polygon fill="white" stroke="#666666" points="601.5,-74 428.5,-74 428.5,-55 601.5,-55 601.5,-74"/>
<text text-anchor="middle" x="515" y="-62" font-family="Helvetica,sans-Serif" font-size="10.00">src/MaximaOutputAppender.cpp</text>
</a>
</g>
</g>
<!-- Node6&#45;&gt;Node8 -->
<g id="edge7" class="edge">
<title>Node6&#45;&gt;Node8</title>
<path fill="none" stroke="#63b8ff" d="M1597.25,-239.75C1349.74,-240.53 389.07,-240.59 345,-195 318.74,-167.84 321.92,-139.9 345,-110 358.14,-92.97 408.38,-81.2 450.86,-74.06"/>
<polygon fill="#63b8ff" stroke="#63b8ff" points="1597.48,-243.25 1607.47,-239.71 1597.46,-236.25 1597.48,-243.25"/>
</g>
<!-- Node6&#45;&gt;Node9 -->
<g id="edge8" class="edge">
<title>Node6&#45;&gt;Node9</title>
<path fill="none" stroke="#63b8ff" d="M1597.01,-239.03C1346.14,-236.82 364.38,-226.21 307,-195 256.73,-167.66 228.56,-98.65 219.9,-74.23"/>
<polygon fill="#63b8ff" stroke="#63b8ff" points="1597.33,-242.54 1607.36,-239.12 1597.39,-235.54 1597.33,-242.54"/>
</g>
<!-- Node10 -->
<g id="node10" class="node">
<title>Node10</title>
<g id="a_node10"><a xlink:href="WorksheetContextMenu_8cpp.html" target="_top" xlink:title="The worksheet&#39;s right&#45;click context menu (see WorksheetContextMenu.h).">
<polygon fill="white" stroke="#666666" points="671.5,-189.5 500.5,-189.5 500.5,-170.5 671.5,-170.5 671.5,-189.5"/>
<text text-anchor="middle" x="586" y="-177.5" font-family="Helvetica,sans-Serif" font-size="10.00">src/WorksheetContextMenu.cpp</text>
</a>
</g>
</g>
<!-- Node6&#45;&gt;Node10 -->
<g id="edge9" class="edge">
<title>Node6&#45;&gt;Node10</title>
<path fill="none" stroke="#63b8ff" d="M1597.02,-238.92C1445.78,-236.96 1026.9,-228.66 680,-195 665.88,-193.63 650.63,-191.6 636.62,-189.51"/>
<polygon fill="#63b8ff" stroke="#63b8ff" points="1597.4,-242.42 1607.45,-239.05 1597.49,-235.43 1597.4,-242.42"/>
</g>
<!-- Node11 -->
<g id="node11" class="node">
<title>Node11</title>
<g id="a_node11"><a xlink:href="ConfigDialogue_8h.html" target="_top" xlink:title="The configuration dialog.">
<polygon fill="white" stroke="#666666" points="2238.5,-129 2083.5,-129 2083.5,-110 2238.5,-110 2238.5,-129"/>
<text text-anchor="middle" x="2161" y="-117" font-family="Helvetica,sans-Serif" font-size="10.00">src/dialogs/ConfigDialogue.h</text>
</a>
</g>
</g>
<!-- Node6&#45;&gt;Node11 -->
<g id="edge10" class="edge">
<title>Node6&#45;&gt;Node11</title>
<path fill="none" stroke="#63b8ff" d="M1712.73,-239.02C1916.48,-237.05 2591.45,-228.03 2623,-195 2632.21,-185.36 2631.96,-174.87 2623,-165 2597.71,-137.15 2363.46,-126.25 2238.58,-122.39"/>
<polygon fill="#63b8ff" stroke="#63b8ff" points="1712.5,-235.52 1702.53,-239.12 1712.57,-242.52 1712.5,-235.52"/>
</g>
<!-- Node14 -->
<g id="node14" class="node">
<title>Node14</title>
<g id="a_node14"><a xlink:href="DiffFrame_8h_source.html" target="_top" xlink:title=" ">
<polygon fill="white" stroke="#666666" points="2744.5,-129 2615.5,-129 2615.5,-110 2744.5,-110 2744.5,-129"/>
<text text-anchor="middle" x="2680" y="-117" font-family="Helvetica,sans-Serif" font-size="10.00">src/dialogs/DiffFrame.h</text>
</a>
</g>
</g>
<!-- Node6&#45;&gt;Node14 -->
<g id="edge14" class="edge">
<title>Node6&#45;&gt;Node14</title>
<path fill="none" stroke="#63b8ff" d="M1712.9,-238.46C1918.11,-234.56 2600.64,-219.77 2640,-195 2663.86,-179.99 2674.43,-145.59 2678.22,-129.33"/>
<polygon fill="#63b8ff" stroke="#63b8ff" points="1712.56,-234.96 1702.63,-238.65 1712.69,-241.96 1712.56,-234.96"/>
</g>
<!-- Node15 -->
<g id="node15" class="node">
<title>Node15</title>
<g id="a_node15"><a xlink:href="Printout_8cpp.html" target="_top" xlink:title="This file defines the class MathPrintOut.">
<polygon fill="white" stroke="#666666" points="844.5,-189.5 689.5,-189.5 689.5,-170.5 844.5,-170.5 844.5,-189.5"/>
<text text-anchor="middle" x="767" y="-177.5" font-family="Helvetica,sans-Serif" font-size="10.00">src/graphical_io/Printout.cpp</text>
</a>
</g>
</g>
<!-- Node6&#45;&gt;Node15 -->
<g id="edge18" class="edge">
<title>Node6&#45;&gt;Node15</title>
<path fill="none" stroke="#63b8ff" d="M1597.18,-238.35C1465.14,-235.27 1131.4,-224.94 854,-195 841.07,-193.6 827.14,-191.59 814.29,-189.53"/>
<polygon fill="#63b8ff" stroke="#63b8ff" points="1597.38,-241.86 1607.46,-238.58 1597.54,-234.86 1597.38,-241.86"/>
</g>
<!-- Node16 -->
<g id="node16" class="node">
<title>Node16</title>
<g id="a_node16"><a xlink:href="wxMaximaFrame_8h.html" target="_top" xlink:title="This file declares the class wxMaximaFrame.">
<polygon fill="white" stroke="#666666" points="482,-189.5 354,-189.5 354,-170.5 482,-170.5 482,-189.5"/>
<text text-anchor="middle" x="418" y="-177.5" font-family="Helvetica,sans-Serif" font-size="10.00">src/wxMaximaFrame.h</text>
</a>
</g>
</g>
<!-- Node6&#45;&gt;Node16 -->
<g id="edge19" class="edge">
<title>Node6&#45;&gt;Node16</title>
<path fill="none" stroke="#63b8ff" d="M1597.3,-238.45C1393.64,-234.57 708.98,-219.92 491,-195 479.72,-193.71 467.57,-191.65 456.48,-189.51"/>
<polygon fill="#63b8ff" stroke="#63b8ff" points="1597.42,-241.95 1607.48,-238.64 1597.55,-234.95 1597.42,-241.95"/>
</g>
<!-- Node6&#45;&gt;Node27 -->
<g id="edge41" class="edge">
<title>Node6&#45;&gt;Node27</title>
<path fill="none" stroke="#63b8ff" d="M1712.77,-238.25C1901.96,-233.95 2501.78,-218.75 2694,-195 2698.55,-194.44 2703.24,-193.74 2707.94,-192.94"/>
<polygon fill="#63b8ff" stroke="#63b8ff" points="1712.67,-234.75 1702.75,-238.47 1712.83,-241.75 1712.67,-234.75"/>
</g>
<!-- Node28 -->
<g id="node28" class="node">
<title>Node28</title>
<g id="a_node28"><a xlink:href="test__EditorCellInvariants_8cpp.html" target="_top" xlink:title="Hardening tests for EditorCell&#39;s text&#45;editing core.">
<polygon fill="white" stroke="#666666" points="1001,-195 863,-195 863,-165 1001,-165 1001,-195"/>
<text text-anchor="start" x="871" y="-183" font-family="Helvetica,sans-Serif" font-size="10.00">test/unit_tests/test</text>
<text text-anchor="middle" x="932" y="-172" font-family="Helvetica,sans-Serif" font-size="10.00">_EditorCellInvariants.cpp</text>
</a>
</g>
</g>
<!-- Node6&#45;&gt;Node28 -->
<g id="edge42" class="edge">
<title>Node6&#45;&gt;Node28</title>
<path fill="none" stroke="#63b8ff" d="M1597.34,-237.63C1484.29,-233.49 1225.77,-221.73 1010,-195 1007.13,-194.64 1004.21,-194.25 1001.26,-193.83"/>
<polygon fill="#63b8ff" stroke="#63b8ff" points="1597.37,-241.13 1607.49,-237.99 1597.62,-234.13 1597.37,-241.13"/>
</g>
<!-- Node29 -->
<g id="node29" class="node">
<title>Node29</title>
<g id="a_node29"><a xlink:href="test__EvalQueueCommands_8cpp.html" target="_top" xlink:title="Command&#45;level behavior of the EvaluationQueue: how a GroupCell&#39;s input is broken into the individual ...">
<polygon fill="white" stroke="#666666" points="1169,-195 1019,-195 1019,-165 1169,-165 1169,-195"/>
<text text-anchor="start" x="1027" y="-183" font-family="Helvetica,sans-Serif" font-size="10.00">test/unit_tests/test</text>
<text text-anchor="middle" x="1094" y="-172" font-family="Helvetica,sans-Serif" font-size="10.00">_EvalQueueCommands.cpp</text>
</a>
</g>
</g>
<!-- Node6&#45;&gt;Node29 -->
<g id="edge43" class="edge">
<title>Node6&#45;&gt;Node29</title>
<path fill="none" stroke="#63b8ff" d="M1597.51,-235.48C1507.73,-228.91 1328.9,-214.59 1178,-195 1175.07,-194.62 1172.08,-194.21 1169.07,-193.79"/>
<polygon fill="#63b8ff" stroke="#63b8ff" points="1597.25,-238.97 1607.48,-236.21 1597.76,-231.99 1597.25,-238.97"/>
</g>
<!-- Node30 -->
<g id="node30" class="node">
<title>Node30</title>
<g id="a_node30"><a xlink:href="test__GroupCellLayout_8cpp.html" target="_top" xlink:title="Regression tests for the GroupCell &lt;&#45;&gt; EditorCell layout coupling.">
<polygon fill="white" stroke="#666666" points="1310.5,-195 1187.5,-195 1187.5,-165 1310.5,-165 1310.5,-195"/>
<text text-anchor="start" x="1195.5" y="-183" font-family="Helvetica,sans-Serif" font-size="10.00">test/unit_tests/test</text>
<text text-anchor="middle" x="1249" y="-172" font-family="Helvetica,sans-Serif" font-size="10.00">_GroupCellLayout.cpp</text>
</a>
</g>
</g>
<!-- Node6&#45;&gt;Node30 -->
<g id="edge44" class="edge">
<title>Node6&#45;&gt;Node30</title>
<path fill="none" stroke="#63b8ff" d="M1597.1,-232.92C1530.19,-225.07 1416.85,-210.96 1320,-195 1316.9,-194.49 1313.73,-193.94 1310.53,-193.38"/>
<polygon fill="#63b8ff" stroke="#63b8ff" points="1597.09,-236.45 1607.43,-234.13 1597.9,-229.5 1597.09,-236.45"/>
</g>
<!-- Node31 -->
<g id="node31" class="node">
<title>Node31</title>
<g id="a_node31"><a xlink:href="test__LayoutInvariants_8cpp.html" target="_top" xlink:title="Layout idempotency invariants.">
<polygon fill="white" stroke="#666666" points="1453,-195 1329,-195 1329,-165 1453,-165 1453,-195"/>
<text text-anchor="start" x="1337" y="-183" font-family="Helvetica,sans-Serif" font-size="10.00">test/unit_tests/test</text>
<text text-anchor="middle" x="1391" y="-172" font-family="Helvetica,sans-Serif" font-size="10.00">_LayoutInvariants.cpp</text>
</a>
</g>
</g>
<!-- Node6&#45;&gt;Node31 -->
<g id="edge45" class="edge">
<title>Node6&#45;&gt;Node31</title>
<path fill="none" stroke="#63b8ff" d="M1606.65,-228.79C1563.51,-219.23 1500.1,-205.18 1453.2,-194.78"/>
<polygon fill="#63b8ff" stroke="#63b8ff" points="1606.09,-232.25 1616.61,-230.99 1607.61,-225.41 1606.09,-232.25"/>
</g>
<!-- Node32 -->
<g id="node32" class="node">
<title>Node32</title>
<g id="a_node32"><a xlink:href="test__TreeUndo_8cpp.html" target="_top" xlink:title="Regression tests for the worksheet&#39;s cell&#45;tree undo/redo (the TreeUndo_* subsystem of Worksheet).">
<polygon fill="white" stroke="#666666" points="1579,-195 1471,-195 1471,-165 1579,-165 1579,-195"/>
<text text-anchor="start" x="1479" y="-183" font-family="Helvetica,sans-Serif" font-size="10.00">test/unit_tests/test</text>
<text text-anchor="middle" x="1525" y="-172" font-family="Helvetica,sans-Serif" font-size="10.00">_TreeUndo.cpp</text>
</a>
</g>
</g>
<!-- Node6&#45;&gt;Node32 -->
<g id="edge46" class="edge">
<title>Node6&#45;&gt;Node32</title>
<path fill="none" stroke="#63b8ff" d="M1626.84,-226.83C1606.05,-217.47 1577.75,-204.74 1556.25,-195.06"/>
<polygon fill="#63b8ff" stroke="#63b8ff" points="1625.54,-230.08 1636.1,-230.99 1628.41,-223.7 1625.54,-230.08"/>
</g>
<!-- Node33 -->
<g id="node33" class="node">
<title>Node33</title>
<g id="a_node33"><a xlink:href="test__WXMRoundtrip_8cpp.html" target="_top" xlink:title="Regression tests for images surviving the .wxm serialization round&#45;trip.">
<polygon fill="white" stroke="#666666" points="1712.5,-195 1597.5,-195 1597.5,-165 1712.5,-165 1712.5,-195"/>
<text text-anchor="start" x="1605.5" y="-183" font-family="Helvetica,sans-Serif" font-size="10.00">test/unit_tests/test</text>
<text text-anchor="middle" x="1655" y="-172" font-family="Helvetica,sans-Serif" font-size="10.00">_WXMRoundtrip.cpp</text>
</a>
</g>
</g>
<!-- Node6&#45;&gt;Node33 -->
<g id="edge47" class="edge">
<title>Node6&#45;&gt;Node33</title>
<path fill="none" stroke="#63b8ff" d="M1655,-220.65C1655,-212.36 1655,-202.78 1655,-195.11"/>
<polygon fill="#63b8ff" stroke="#63b8ff" points="1651.5,-220.87 1655,-230.87 1658.5,-220.87 1651.5,-220.87"/>
</g>
<!-- Node34 -->
<g id="node34" class="node">
<title>Node34</title>
<g id="a_node34"><a xlink:href="test__WXMXRoundtrip_8cpp.html" target="_top" xlink:title="Round&#45;trip tests for the .wxmx content.xml (the MathML&#45;like math format).">
<polygon fill="white" stroke="#666666" points="1853,-195 1731,-195 1731,-165 1853,-165 1853,-195"/>
<text text-anchor="start" x="1739" y="-183" font-family="Helvetica,sans-Serif" font-size="10.00">test/unit_tests/test</text>
<text text-anchor="middle" x="1792" y="-172" font-family="Helvetica,sans-Serif" font-size="10.00">_WXMXRoundtrip.cpp</text>
</a>
</g>
</g>
<!-- Node6&#45;&gt;Node34 -->
<g id="edge48" class="edge">
<title>Node6&#45;&gt;Node34</title>
<path fill="none" stroke="#63b8ff" d="M1684.38,-226.95C1706.32,-217.59 1736.31,-204.78 1759.06,-195.06"/>
<polygon fill="#63b8ff" stroke="#63b8ff" points="1682.74,-223.85 1674.92,-230.99 1685.49,-230.29 1682.74,-223.85"/>
</g>
<!-- Node35 -->
<g id="node35" class="node">
<title>Node35</title>
<g id="a_node35"><a xlink:href="test__WorksheetContextMenu_8cpp.html" target="_top" xlink:title="Regression tests for the worksheet&#39;s right&#45;click context menu.">
<polygon fill="white" stroke="#666666" points="2030.5,-195 1871.5,-195 1871.5,-165 2030.5,-165 2030.5,-195"/>
<text text-anchor="start" x="1879.5" y="-183" font-family="Helvetica,sans-Serif" font-size="10.00">test/unit_tests/test</text>
<text text-anchor="middle" x="1951" y="-172" font-family="Helvetica,sans-Serif" font-size="10.00">_WorksheetContextMenu.cpp</text>
</a>
</g>
</g>
<!-- Node6&#45;&gt;Node35 -->
<g id="edge49" class="edge">
<title>Node6&#45;&gt;Node35</title>
<path fill="none" stroke="#63b8ff" d="M1707.93,-229.04C1755.97,-219.55 1827.18,-205.47 1880.12,-195.01"/>
<polygon fill="#63b8ff" stroke="#63b8ff" points="1707.17,-225.62 1698.04,-230.99 1708.53,-232.49 1707.17,-225.62"/>
</g>
<!-- Node36 -->
<g id="node36" class="node">
<title>Node36</title>
<g id="a_node36"><a xlink:href="test__WorksheetCursor_8cpp.html" target="_top" xlink:title="Pins the worksheet&#39;s cursor model before it is gathered into a cursor class.">
<polygon fill="white" stroke="#666666" points="2173.5,-195 2048.5,-195 2048.5,-165 2173.5,-165 2173.5,-195"/>
<text text-anchor="start" x="2056.5" y="-183" font-family="Helvetica,sans-Serif" font-size="10.00">test/unit_tests/test</text>
<text text-anchor="middle" x="2111" y="-172" font-family="Helvetica,sans-Serif" font-size="10.00">_WorksheetCursor.cpp</text>
</a>
</g>
</g>
<!-- Node6&#45;&gt;Node36 -->
<g id="edge50" class="edge">
<title>Node6&#45;&gt;Node36</title>
<path fill="none" stroke="#63b8ff" d="M1712.82,-234.27C1788.31,-227.1 1924.44,-213.04 2040,-195 2042.73,-194.57 2045.52,-194.12 2048.33,-193.64"/>
<polygon fill="#63b8ff" stroke="#63b8ff" points="1712.21,-230.81 1702.58,-235.23 1712.87,-237.78 1712.21,-230.81"/>
</g>
<!-- Node37 -->
<g id="node37" class="node">
<title>Node37</title>
<g id="a_node37"><a xlink:href="test__WorksheetEvalQueue_8cpp.html" target="_top" xlink:title="Pins the worksheet&#39;s &quot;add cells to the evaluation queue&quot; behavior before the Add*ToEvaluationQueue fa...">
<polygon fill="white" stroke="#666666" points="2338,-195 2192,-195 2192,-165 2338,-165 2338,-195"/>
<text text-anchor="start" x="2200" y="-183" font-family="Helvetica,sans-Serif" font-size="10.00">test/unit_tests/test</text>
<text text-anchor="middle" x="2265" y="-172" font-family="Helvetica,sans-Serif" font-size="10.00">_WorksheetEvalQueue.cpp</text>
</a>
</g>
</g>
<!-- Node6&#45;&gt;Node37 -->
<g id="edge51" class="edge">
<title>Node6&#45;&gt;Node37</title>
<path fill="none" stroke="#63b8ff" d="M1713.05,-236.23C1810.46,-230.37 2012.85,-216.66 2183,-195 2185.87,-194.64 2188.78,-194.24 2191.73,-193.83"/>
<polygon fill="#63b8ff" stroke="#63b8ff" points="1712.61,-232.75 1702.83,-236.84 1713.02,-239.73 1712.61,-232.75"/>
</g>
<!-- Node38 -->
<g id="node38" class="node">
<title>Node38</title>
<g id="a_node38"><a xlink:href="test__WorksheetExport_8cpp.html" target="_top" xlink:title="Safety net for the export/serialization cluster of Worksheet.">
<polygon fill="white" stroke="#666666" points="2481.5,-195 2356.5,-195 2356.5,-165 2481.5,-165 2481.5,-195"/>
<text text-anchor="start" x="2364.5" y="-183" font-family="Helvetica,sans-Serif" font-size="10.00">test/unit_tests/test</text>
<text text-anchor="middle" x="2419" y="-172" font-family="Helvetica,sans-Serif" font-size="10.00">_WorksheetExport.cpp</text>
</a>
</g>
</g>
<!-- Node6&#45;&gt;Node38 -->
<g id="edge52" class="edge">
<title>Node6&#45;&gt;Node38</title>
<path fill="none" stroke="#63b8ff" d="M1712.95,-238.27C1832.12,-235.2 2113.17,-225.13 2347,-195 2350.03,-194.61 2353.13,-194.17 2356.25,-193.69"/>
<polygon fill="#63b8ff" stroke="#63b8ff" points="1712.51,-234.78 1702.6,-238.53 1712.69,-241.78 1712.51,-234.78"/>
</g>
<!-- Node39 -->
<g id="node39" class="node">
<title>Node39</title>
<g id="a_node39"><a xlink:href="test__WorksheetFind_8cpp.html" target="_top" xlink:title="Pins the worksheet&#39;s find/replace behavior before the search engine is extracted into WorksheetSearch...">
<polygon fill="white" stroke="#666666" points="2614,-195 2500,-195 2500,-165 2614,-165 2614,-195"/>
<text text-anchor="start" x="2508" y="-183" font-family="Helvetica,sans-Serif" font-size="10.00">test/unit_tests/test</text>
<text text-anchor="middle" x="2557" y="-172" font-family="Helvetica,sans-Serif" font-size="10.00">_WorksheetFind.cpp</text>
</a>
</g>
</g>
<!-- Node6&#45;&gt;Node39 -->
<g id="edge53" class="edge">
<title>Node6&#45;&gt;Node39</title>
<path fill="none" stroke="#63b8ff" d="M1713.06,-239.51C1849.43,-238.87 2200.64,-233.29 2491,-195 2493.9,-194.62 2496.87,-194.18 2499.86,-193.69"/>
<polygon fill="#63b8ff" stroke="#63b8ff" points="1712.83,-236.01 1702.84,-239.55 1712.85,-243.01 1712.83,-236.01"/>
</g>
<!-- Node11&#45;&gt;Node3 -->
<g id="edge11" class="edge">
<title>Node11&#45;&gt;Node3</title>
<path fill="none" stroke="#63b8ff" d="M2198.12,-106.93C2229.87,-97.03 2274.85,-83.01 2303.47,-74.08"/>
<polygon fill="#63b8ff" stroke="#63b8ff" points="2196.82,-103.67 2188.31,-109.98 2198.9,-110.35 2196.82,-103.67"/>
</g>
<!-- Node12 -->
<g id="node12" class="node">
<title>Node12</title>
<g id="a_node12"><a xlink:href="main_8cpp.html" target="_top" xlink:title="The file that defines the starting point of the program.">
<polygon fill="white" stroke="#666666" points="1801.5,-19 1722.5,-19 1722.5,0 1801.5,0 1801.5,-19"/>
<text text-anchor="middle" x="1762" y="-7" font-family="Helvetica,sans-Serif" font-size="10.00">src/main.cpp</text>
</a>
</g>
</g>
<!-- Node11&#45;&gt;Node12 -->
<g id="edge12" class="edge">
<title>Node11&#45;&gt;Node12</title>
<path fill="none" stroke="#63b8ff" d="M2119.62,-107.3C2039.6,-85.64 1865.24,-38.44 1793.65,-19.07"/>
<polygon fill="#63b8ff" stroke="#63b8ff" points="2118.79,-110.7 2129.36,-109.94 2120.62,-103.94 2118.79,-110.7"/>
</g>
<!-- Node11&#45;&gt;Node13 -->
<g id="edge13" class="edge">
<title>Node11&#45;&gt;Node13</title>
<path fill="none" stroke="#63b8ff" d="M2096.11,-108.45C1959.65,-87.3 1645.11,-38.56 1518.38,-18.93"/>
<polygon fill="#63b8ff" stroke="#63b8ff" points="2095.6,-111.91 2106.02,-109.98 2096.67,-104.99 2095.6,-111.91"/>
</g>
<!-- Node14&#45;&gt;Node3 -->
<g id="edge15" class="edge">
<title>Node14&#45;&gt;Node3</title>
<path fill="none" stroke="#63b8ff" d="M2613.71,-108.43C2548.18,-98.48 2449.01,-83.42 2387.22,-74.04"/>
<polygon fill="#63b8ff" stroke="#63b8ff" points="2613.51,-111.94 2623.93,-109.98 2614.57,-105.02 2613.51,-111.94"/>
</g>
<!-- Node14&#45;&gt;Node12 -->
<g id="edge16" class="edge">
<title>Node14&#45;&gt;Node12</title>
<path fill="none" stroke="#63b8ff" d="M2661.32,-103.72C2640.77,-88.4 2606.1,-65.29 2572,-55 2425.38,-10.73 1943.21,-9.56 1801.5,-10.21"/>
<polygon fill="#63b8ff" stroke="#63b8ff" points="2659.4,-106.66 2669.47,-109.94 2663.65,-101.09 2659.4,-106.66"/>
</g>
<!-- Node14&#45;&gt;Node13 -->
<g id="edge17" class="edge">
<title>Node14&#45;&gt;Node13</title>
<path fill="none" stroke="#63b8ff" d="M2643.78,-106.93C2595.24,-91.98 2506.13,-66.53 2428,-55 2338.08,-41.73 1707.95,-18.98 1518.04,-12.36"/>
<polygon fill="#63b8ff" stroke="#63b8ff" points="2642.92,-110.32 2653.5,-109.95 2644.99,-103.64 2642.92,-110.32"/>
</g>
<!-- Node16&#45;&gt;Node9 -->
<g id="edge21" class="edge">
<title>Node16&#45;&gt;Node9</title>
<path fill="none" stroke="#63b8ff" d="M393.94,-165.41C352.08,-141.78 267.01,-93.74 232.28,-74.13"/>
<polygon fill="#63b8ff" stroke="#63b8ff" points="392.46,-168.6 402.89,-170.47 395.91,-162.5 392.46,-168.6"/>
</g>
<!-- Node17 -->
<g id="node17" class="node">
<title>Node17</title>
<g id="a_node17"><a xlink:href="AutocompletePopup_8cpp.html" target="_top" xlink:title="This file defines the class AutocompletePopup.">
<polygon fill="white" stroke="#666666" points="999,-129 847,-129 847,-110 999,-110 999,-129"/>
<text text-anchor="middle" x="923" y="-117" font-family="Helvetica,sans-Serif" font-size="10.00">src/AutocompletePopup.cpp</text>
</a>
</g>
</g>
<!-- Node16&#45;&gt;Node17 -->
<g id="edge20" class="edge">
<title>Node16&#45;&gt;Node17</title>
<path fill="none" stroke="#63b8ff" d="M469.08,-168.62C476.42,-167.3 483.89,-166.05 491,-165 525.22,-159.97 732.34,-139.28 846.91,-127.97"/>
<polygon fill="#63b8ff" stroke="#63b8ff" points="468.4,-165.19 459.2,-170.45 469.67,-172.07 468.4,-165.19"/>
</g>
<!-- Node18 -->
<g id="node18" class="node">
<title>Node18</title>
<g id="a_node18"><a xlink:href="EditorCell_8cpp.html" target="_top" xlink:title="This file defines the class EditorCell.">
<polygon fill="white" stroke="#666666" points="1366.5,-74 1239.5,-74 1239.5,-55 1366.5,-55 1366.5,-74"/>
<text text-anchor="middle" x="1303" y="-62" font-family="Helvetica,sans-Serif" font-size="10.00">src/cells/EditorCell.cpp</text>
</a>
</g>
</g>
<!-- Node16&#45;&gt;Node18 -->
<g id="edge22" class="edge">
<title>Node16&#45;&gt;Node18</title>
<path fill="none" stroke="#63b8ff" d="M469.86,-168.57C476.95,-167.29 484.14,-166.06 491,-165 627.21,-144.01 666.73,-167.73 799,-129 817.5,-123.58 819.43,-115.2 838,-110 1004.34,-63.42 1053.13,-91.36 1225,-74 1229.61,-73.53 1234.37,-73.04 1239.16,-72.54"/>
<polygon fill="#63b8ff" stroke="#63b8ff" points="468.79,-165.21 459.6,-170.48 470.07,-172.09 468.79,-165.21"/>
</g>
<!-- Node19 -->
<g id="node19" class="node">
<title>Node19</title>
<g id="a_node19"><a xlink:href="main_8h.html" target="_top" xlink:title="This file declares the class wxMaxima that contains most of the program&#39;s logic.">
<polygon fill="white" stroke="#666666" points="1453,-74 1385,-74 1385,-55 1453,-55 1453,-74"/>
<text text-anchor="middle" x="1419" y="-62" font-family="Helvetica,sans-Serif" font-size="10.00">src/main.h</text>
</a>
</g>
</g>
<!-- Node16&#45;&gt;Node19 -->
<g id="edge23" class="edge">
<title>Node16&#45;&gt;Node19</title>
<path fill="none" stroke="#63b8ff" d="M467.98,-168.59C475.66,-167.23 483.53,-165.97 491,-165 719.41,-135.25 779.04,-154.09 1008,-129 1171.95,-111.04 1212.44,-101.87 1375,-74 1378.22,-73.45 1381.57,-72.85 1384.92,-72.23"/>
<polygon fill="#63b8ff" stroke="#63b8ff" points="467.22,-165.17 458.02,-170.43 468.49,-172.06 467.22,-165.17"/>
</g>
<!-- Node21 -->
<g id="node21" class="node">
<title>Node21</title>
<g id="a_node21"><a xlink:href="GreekSidebar_8cpp.html" target="_top" xlink:title="This file defines the class GreekSidebar.">
<polygon fill="white" stroke="#666666" points="518,-129 354,-129 354,-110 518,-110 518,-129"/>
<text text-anchor="middle" x="436" y="-117" font-family="Helvetica,sans-Serif" font-size="10.00">src/sidebars/GreekSidebar.cpp</text>
</a>
</g>
</g>
<!-- Node16&#45;&gt;Node21 -->
<g id="edge27" class="edge">
<title>Node16&#45;&gt;Node21</title>
<path fill="none" stroke="#63b8ff" d="M423.69,-160.49C426.92,-150.01 430.8,-137.39 433.33,-129.17"/>
<polygon fill="#63b8ff" stroke="#63b8ff" points="420.25,-159.78 420.66,-170.37 426.94,-161.84 420.25,-159.78"/>
</g>
<!-- Node22 -->
<g id="node22" class="node">
<title>Node22</title>
<g id="a_node22"><a xlink:href="wxMaxima_8h.html" target="_top" xlink:title="This file declares the class wxMaxima that contains most of the program&#39;s logic.">
<polygon fill="white" stroke="#666666" points="790.5,-129 693.5,-129 693.5,-110 790.5,-110 790.5,-129"/>
<text text-anchor="middle" x="742" y="-117" font-family="Helvetica,sans-Serif" font-size="10.00">src/wxMaxima.h</text>
</a>
</g>
</g>
<!-- Node16&#45;&gt;Node22 -->
<g id="edge28" class="edge">
<title>Node16&#45;&gt;Node22</title>
<path fill="none" stroke="#63b8ff" d="M471.98,-168.56C478.39,-167.35 484.84,-166.14 491,-165 561.29,-152.03 642.79,-137.71 693.38,-128.91"/>
<polygon fill="#63b8ff" stroke="#63b8ff" points="471.16,-165.15 461.99,-170.46 472.47,-172.03 471.16,-165.15"/>
</g>
<!-- Node26 -->
<g id="node26" class="node">
<title>Node26</title>
<g id="a_node26"><a xlink:href="wxMaximaFrame_8cpp.html" target="_top" xlink:title="This file defines the class wxMaximaFrame.">
<polygon fill="white" stroke="#666666" points="675.5,-129 536.5,-129 536.5,-110 675.5,-110 675.5,-129"/>
<text text-anchor="middle" x="606" y="-117" font-family="Helvetica,sans-Serif" font-size="10.00">src/wxMaximaFrame.cpp</text>
</a>
</g>
</g>
<!-- Node16&#45;&gt;Node26 -->
<g id="edge40" class="edge">
<title>Node16&#45;&gt;Node26</title>
<path fill="none" stroke="#63b8ff" d="M455.08,-167.46C491.44,-156.15 546.03,-139.16 578.63,-129.02"/>
<polygon fill="#63b8ff" stroke="#63b8ff" points="453.85,-164.18 445.34,-170.49 455.93,-170.86 453.85,-164.18"/>
</g>
<!-- Node19&#45;&gt;Node12 -->
<g id="edge25" class="edge">
<title>Node19&#45;&gt;Node12</title>
<path fill="none" stroke="#63b8ff" d="M1463.44,-56.63C1530.9,-46.21 1658.1,-26.56 1722.5,-16.6"/>
<polygon fill="#63b8ff" stroke="#63b8ff" points="1462.49,-53.24 1453.14,-58.22 1463.56,-60.16 1462.49,-53.24"/>
</g>
<!-- Node19&#45;&gt;Node13 -->
<g id="edge26" class="edge">
<title>Node19&#45;&gt;Node13</title>
<path fill="none" stroke="#63b8ff" d="M1433.05,-46.96C1440.89,-37.72 1450.33,-26.6 1456.71,-19.09"/>
<polygon fill="#63b8ff" stroke="#63b8ff" points="1430.24,-44.86 1426.43,-54.75 1435.57,-49.39 1430.24,-44.86"/>
</g>
<!-- Node20 -->
<g id="node20" class="node">
<title>Node20</title>
<g id="a_node20"><a xlink:href="MaximaManual_8cpp.html" target="_top" xlink:title="This file defines the class MaximaManual.">
<polygon fill="white" stroke="#666666" points="1392,-19 1262,-19 1262,0 1392,0 1392,-19"/>
<text text-anchor="middle" x="1327" y="-7" font-family="Helvetica,sans-Serif" font-size="10.00">src/MaximaManual.cpp</text>
</a>
</g>
</g>
<!-- Node19&#45;&gt;Node20 -->
<g id="edge24" class="edge">
<title>Node19&#45;&gt;Node20</title>
<path fill="none" stroke="#63b8ff" d="M1395.51,-49.97C1378.69,-40.28 1356.55,-27.52 1342.05,-19.17"/>
<polygon fill="#63b8ff" stroke="#63b8ff" points="1393.81,-53.03 1404.22,-54.98 1397.3,-46.96 1393.81,-53.03"/>
</g>
<!-- Node22&#45;&gt;Node3 -->
<g id="edge29" class="edge">
<title>Node22&#45;&gt;Node3</title>
<path fill="none" stroke="#63b8ff" d="M800.92,-112.74C813.16,-111.69 825.99,-110.71 838,-110 1370.94,-78.49 2012.28,-68.88 2242.99,-66.33"/>
<polygon fill="#63b8ff" stroke="#63b8ff" points="800.45,-109.26 790.8,-113.62 801.06,-116.24 800.45,-109.26"/>
</g>
<!-- Node22&#45;&gt;Node7 -->
<g id="edge31" class="edge">
<title>Node22&#45;&gt;Node7</title>
<path fill="none" stroke="#63b8ff" d="M683.12,-109.89C581.3,-95.72 475.18,-81.8 410.16,-73.37"/>
<polygon fill="#63b8ff" stroke="#63b8ff" points="682.88,-113.39 693.27,-111.31 683.85,-106.46 682.88,-113.39"/>
</g>
<!-- Node22&#45;&gt;Node8 -->
<g id="edge32" class="edge">
<title>Node22&#45;&gt;Node8</title>
<path fill="none" stroke="#63b8ff" d="M695.7,-107.69C653.17,-97.76 590.97,-83.24 551.76,-74.08"/>
<polygon fill="#63b8ff" stroke="#63b8ff" points="694.99,-111.12 705.53,-109.98 696.59,-104.3 694.99,-111.12"/>
</g>
<!-- Node22&#45;&gt;Node9 -->
<g id="edge35" class="edge">
<title>Node22&#45;&gt;Node9</title>
<path fill="none" stroke="#63b8ff" d="M683.2,-109.98C502.82,-89.08 455.32,-93.91 279,-74 276.09,-73.67 273.1,-73.32 270.08,-72.95"/>
<polygon fill="#63b8ff" stroke="#63b8ff" points="682.95,-113.47 693.29,-111.16 683.77,-106.52 682.95,-113.47"/>
</g>
<!-- Node22&#45;&gt;Node12 -->
<g id="edge37" class="edge">
<title>Node22&#45;&gt;Node12</title>
<path fill="none" stroke="#63b8ff" d="M800.64,-109.35C972.31,-89.24 1024.01,-120.57 1191,-74 1209.57,-68.82 1211.41,-60.11 1230,-55 1322.83,-29.47 1615.35,-16.07 1722.32,-11.93"/>
<polygon fill="#63b8ff" stroke="#63b8ff" points="800.01,-105.91 790.5,-110.58 800.85,-112.85 800.01,-105.91"/>
</g>
<!-- Node22&#45;&gt;Node13 -->
<g id="edge39" class="edge">
<title>Node22&#45;&gt;Node13</title>
<path fill="none" stroke="#63b8ff" d="M700.05,-106.83C666.46,-95.52 628.13,-76.9 649,-55 677.86,-24.73 1359.35,-22.8 1401,-19 1403.86,-18.74 1406.78,-18.44 1409.74,-18.12"/>
<polygon fill="#63b8ff" stroke="#63b8ff" points="699.21,-110.23 709.8,-109.96 701.35,-103.57 699.21,-110.23"/>
</g>
<!-- Node22&#45;&gt;Node18 -->
<g id="edge36" class="edge">
<title>Node22&#45;&gt;Node18</title>
<path fill="none" stroke="#63b8ff" d="M801.07,-110.44C802.39,-110.29 803.7,-110.14 805,-110 991.22,-89.47 1038.53,-92.15 1225,-74 1229.61,-73.55 1234.37,-73.07 1239.16,-72.58"/>
<polygon fill="#63b8ff" stroke="#63b8ff" points="800.32,-107.01 790.81,-111.68 801.16,-113.96 800.32,-107.01"/>
</g>
<!-- Node22&#45;&gt;Node19 -->
<g id="edge38" class="edge">
<title>Node22&#45;&gt;Node19</title>
<path fill="none" stroke="#63b8ff" d="M800.94,-113.08C813.19,-112.01 826.01,-110.93 838,-110 1076.48,-91.45 1137.78,-104.74 1375,-74 1378.24,-73.58 1381.6,-73.07 1384.96,-72.51"/>
<polygon fill="#63b8ff" stroke="#63b8ff" points="800.47,-109.61 790.82,-113.97 801.09,-116.58 800.47,-109.61"/>
</g>
<!-- Node23 -->
<g id="node23" class="node">
<title>Node23</title>
<g id="a_node23"><a xlink:href="MaximaEvaluator_8cpp.html" target="_top" xlink:title="Implements the evaluation&#45;queue driver extracted from the wxMaxima god class.">
<polygon fill="white" stroke="#666666" points="798,-74 658,-74 658,-55 798,-55 798,-74"/>
<text text-anchor="middle" x="728" y="-62" font-family="Helvetica,sans-Serif" font-size="10.00">src/MaximaEvaluator.cpp</text>
</a>
</g>
</g>
<!-- Node22&#45;&gt;Node23 -->
<g id="edge30" class="edge">
<title>Node22&#45;&gt;Node23</title>
<path fill="none" stroke="#63b8ff" d="M737.1,-99.95C734.78,-91.15 732.11,-81.06 730.27,-74.09"/>
<polygon fill="#63b8ff" stroke="#63b8ff" points="733.75,-100.97 739.69,-109.75 740.52,-99.19 733.75,-100.97"/>
</g>
<!-- Node24 -->
<g id="node24" class="node">
<title>Node24</title>
<g id="a_node24"><a xlink:href="MaximaProcessManager_8cpp.html" target="_top" xlink:title="Implements the Maxima process/socket lifecycle extracted from the wxMaxima god class.">
<polygon fill="white" stroke="#666666" points="989.5,-74 816.5,-74 816.5,-55 989.5,-55 989.5,-74"/>
<text text-anchor="middle" x="903" y="-62" font-family="Helvetica,sans-Serif" font-size="10.00">src/MaximaProcessManager.cpp</text>
</a>
</g>
</g>
<!-- Node22&#45;&gt;Node24 -->
<g id="edge33" class="edge">
<title>Node22&#45;&gt;Node24</title>
<path fill="none" stroke="#63b8ff" d="M777.55,-106.8C807.59,-96.91 849.94,-82.97 876.93,-74.08"/>
<polygon fill="#63b8ff" stroke="#63b8ff" points="776.27,-103.53 767.87,-109.98 778.46,-110.18 776.27,-103.53"/>
</g>
<!-- Node25 -->
<g id="node25" class="node">
<title>Node25</title>
<g id="a_node25"><a xlink:href="MaximaResponseReader_8cpp.html" target="_top" xlink:title="Implements the Maxima&#45;response handlers extracted from the wxMaxima god class.">
<polygon fill="white" stroke="#666666" points="1182.5,-74 1007.5,-74 1007.5,-55 1182.5,-55 1182.5,-74"/>
<text text-anchor="middle" x="1095" y="-62" font-family="Helvetica,sans-Serif" font-size="10.00">src/MaximaResponseReader.cpp</text>
</a>
</g>
</g>
<!-- Node22&#45;&gt;Node25 -->
<g id="edge34" class="edge">
<title>Node22&#45;&gt;Node25</title>
<path fill="none" stroke="#63b8ff" d="M800.95,-109.65C866.98,-99.74 973.25,-83.78 1038.33,-74.01"/>
<polygon fill="#63b8ff" stroke="#63b8ff" points="800.08,-106.24 790.71,-111.19 801.12,-113.16 800.08,-106.24"/>
</g>
</g>
</svg>
