<?xml version="1.0" encoding="UTF-8" standalone="no"?>
<!DOCTYPE svg PUBLIC "-//W3C//DTD SVG 1.1//EN"
 "http://www.w3.org/Graphics/SVG/1.1/DTD/svg11.dtd">
<!-- Generated by graphviz version 2.43.0 (0)
 -->
<!-- Title: src/cells/AnimationCell.h Pages: 1 -->
<svg width="2044pt" height="420pt"
 viewBox="0.00 0.00 2043.64 420.00" xmlns="http://www.w3.org/2000/svg" xmlns:xlink="http://www.w3.org/1999/xlink">
<g id="graph0" class="graph" transform="scale(1 1) rotate(0) translate(4 416)">
<title>src/cells/AnimationCell.h</title>
<polygon fill="white" stroke="transparent" points="-4,4 -4,-416 2039.64,-416 2039.64,4 -4,4"/>
<!-- Node1 -->
<g id="node1" class="node">
<title>Node1</title>
<g id="a_node1"><a xlink:title="This file declares the class AnimationCell.">
<polygon fill="#bfbfbf" stroke="black" points="939.98,-392.5 939.98,-411.5 1076.98,-411.5 1076.98,-392.5 939.98,-392.5"/>
<text text-anchor="middle" x="1008.48" y="-399.5" font-family="Helvetica,sans-Serif" font-size="10.00">src/cells/AnimationCell.h</text>
</a>
</g>
</g>
<!-- Node2 -->
<g id="node2" class="node">
<title>Node2</title>
<g id="a_node2"><a xlink:href="Cell_8h.html" target="_top" xlink:title="The definition of the base class of all cells the worksheet consists of.">
<polygon fill="white" stroke="black" points="1504.48,-224.5 1504.48,-243.5 1548.48,-243.5 1548.48,-224.5 1504.48,-224.5"/>
<text text-anchor="middle" x="1526.48" y="-231.5" font-family="Helvetica,sans-Serif" font-size="10.00">Cell.h</text>
</a>
</g>
</g>
<!-- Node1&#45;&gt;Node2 -->
<g id="edge1" class="edge">
<title>Node1&#45;&gt;Node2</title>
<path fill="none" stroke="midnightblue" d="M1023.97,-392.4C1048.79,-378.9 1099.27,-352.58 1144.48,-336 1295.49,-280.63 1339.28,-286.22 1494.48,-244 1494.58,-243.97 1494.68,-243.95 1494.78,-243.92"/>
<polygon fill="midnightblue" stroke="midnightblue" points="1495.75,-247.28 1504.46,-241.25 1493.89,-240.53 1495.75,-247.28"/>
</g>
<!-- Node12 -->
<g id="node12" class="node">
<title>Node12</title>
<g id="a_node12"><a xlink:title=" ">
<polygon fill="white" stroke="#bfbfbf" points="1235.48,-112.5 1235.48,-131.5 1293.48,-131.5 1293.48,-112.5 1235.48,-112.5"/>
<text text-anchor="middle" x="1264.48" y="-119.5" font-family="Helvetica,sans-Serif" font-size="10.00">memory</text>
</a>
</g>
</g>
<!-- Node1&#45;&gt;Node12 -->
<g id="edge74" class="edge">
<title>Node1&#45;&gt;Node12</title>
<path fill="none" stroke="midnightblue" d="M953.8,-392.46C867.27,-377.38 708.48,-342.66 708.48,-291 708.48,-291 708.48,-291 708.48,-233 708.48,-182.21 754.68,-185.18 802.48,-168 977.01,-105.29 1037.03,-159.37 1225.24,-131.75"/>
<polygon fill="midnightblue" stroke="midnightblue" points="1225.82,-135.2 1235.18,-130.23 1224.76,-128.28 1225.82,-135.2"/>
</g>
<!-- Node39 -->
<g id="node30" class="node">
<title>Node39</title>
<g id="a_node30"><a xlink:title=" ">
<polygon fill="white" stroke="#bfbfbf" points="16.98,-112.5 16.98,-131.5 63.98,-131.5 63.98,-112.5 16.98,-112.5"/>
<text text-anchor="middle" x="40.48" y="-119.5" font-family="Helvetica,sans-Serif" font-size="10.00">vector</text>
</a>
</g>
</g>
<!-- Node1&#45;&gt;Node39 -->
<g id="edge81" class="edge">
<title>Node1&#45;&gt;Node39</title>
<path fill="none" stroke="midnightblue" d="M939.63,-400C725.81,-395.98 87.48,-376.8 87.48,-291 87.48,-291 87.48,-291 87.48,-233 87.48,-197.7 66.76,-160.79 52.83,-139.96"/>
<polygon fill="midnightblue" stroke="midnightblue" points="55.59,-137.8 47.01,-131.59 49.85,-141.8 55.59,-137.8"/>
</g>
<!-- Node48 -->
<g id="node40" class="node">
<title>Node48</title>
<g id="a_node40"><a xlink:href="Image_8h.html" target="_top" xlink:title="This file declares the class Image.">
<polygon fill="white" stroke="black" points="1036.48,-280.5 1036.48,-299.5 1092.48,-299.5 1092.48,-280.5 1036.48,-280.5"/>
<text text-anchor="middle" x="1064.48" y="-287.5" font-family="Helvetica,sans-Serif" font-size="10.00">Image.h</text>
</a>
</g>
</g>
<!-- Node1&#45;&gt;Node48 -->
<g id="edge56" class="edge">
<title>Node1&#45;&gt;Node48</title>
<path fill="none" stroke="midnightblue" d="M1012.87,-392.37C1022.03,-374.38 1043.32,-332.55 1055.5,-308.63"/>
<polygon fill="midnightblue" stroke="midnightblue" points="1058.68,-310.09 1060.1,-299.59 1052.45,-306.92 1058.68,-310.09"/>
</g>
<!-- Node49 -->
<g id="node41" class="node">
<title>Node49</title>
<g id="a_node41"><a xlink:title=" ">
<polygon fill="white" stroke="#bfbfbf" points="780.48,-224.5 780.48,-243.5 854.48,-243.5 854.48,-224.5 780.48,-224.5"/>
<text text-anchor="middle" x="817.48" y="-231.5" font-family="Helvetica,sans-Serif" font-size="10.00">wx/image.h</text>
</a>
</g>
</g>
<!-- Node1&#45;&gt;Node49 -->
<g id="edge75" class="edge">
<title>Node1&#45;&gt;Node49</title>
<path fill="none" stroke="midnightblue" d="M948.34,-392.47C922.15,-386.14 892.66,-375.12 871.48,-356 840.84,-328.35 826.63,-280.04 820.86,-253.6"/>
<polygon fill="midnightblue" stroke="midnightblue" points="824.28,-252.85 818.88,-243.73 817.42,-254.22 824.28,-252.85"/>
</g>
<!-- Node50 -->
<g id="node42" class="node">
<title>Node50</title>
<g id="a_node42"><a xlink:title=" ">
<polygon fill="white" stroke="#bfbfbf" points="872.48,-224.5 872.48,-243.5 946.48,-243.5 946.48,-224.5 872.48,-224.5"/>
<text text-anchor="middle" x="909.48" y="-231.5" font-family="Helvetica,sans-Serif" font-size="10.00">wx/filesys.h</text>
</a>
</g>
</g>
<!-- Node1&#45;&gt;Node50 -->
<g id="edge77" class="edge">
<title>Node1&#45;&gt;Node50</title>
<path fill="none" stroke="midnightblue" d="M941.23,-392.45C919.15,-386.08 896.87,-375.06 883.48,-356 861.23,-324.34 883.15,-277.34 898.11,-252.26"/>
<polygon fill="midnightblue" stroke="midnightblue" points="901.24,-253.84 903.57,-243.51 895.3,-250.13 901.24,-253.84"/>
</g>
<!-- Node51 -->
<g id="node43" class="node">
<title>Node51</title>
<g id="a_node43"><a xlink:title=" ">
<polygon fill="white" stroke="#bfbfbf" points="964.48,-224.5 964.48,-243.5 1036.48,-243.5 1036.48,-224.5 964.48,-224.5"/>
<text text-anchor="middle" x="1000.48" y="-231.5" font-family="Helvetica,sans-Serif" font-size="10.00">wx/fs_arc.h</text>
</a>
</g>
</g>
<!-- Node1&#45;&gt;Node51 -->
<g id="edge78" class="edge">
<title>Node1&#45;&gt;Node51</title>
<path fill="none" stroke="midnightblue" d="M1008.05,-392.08C1006.79,-365.95 1003.09,-289.21 1001.37,-253.58"/>
<polygon fill="midnightblue" stroke="midnightblue" points="1004.87,-253.39 1000.89,-243.57 997.87,-253.73 1004.87,-253.39"/>
</g>
<!-- Node55 -->
<g id="node47" class="node">
<title>Node55</title>
<g id="a_node47"><a xlink:href="ImgCellBase_8h_source.html" target="_top" xlink:title=" ">
<polygon fill="white" stroke="black" points="892.98,-336.5 892.98,-355.5 979.98,-355.5 979.98,-336.5 892.98,-336.5"/>
<text text-anchor="middle" x="936.48" y="-343.5" font-family="Helvetica,sans-Serif" font-size="10.00">ImgCellBase.h</text>
</a>
</g>
</g>
<!-- Node1&#45;&gt;Node55 -->
<g id="edge67" class="edge">
<title>Node1&#45;&gt;Node55</title>
<path fill="none" stroke="midnightblue" d="M996.91,-392.32C986.06,-384.18 969.6,-371.84 956.59,-362.09"/>
<polygon fill="midnightblue" stroke="midnightblue" points="958.36,-359.03 948.26,-355.83 954.16,-364.63 958.36,-359.03"/>
</g>
<!-- Node56 -->
<g id="node48" class="node">
<title>Node56</title>
<g id="a_node48"><a xlink:title=" ">
<polygon fill="white" stroke="#bfbfbf" points="1153.48,-336.5 1153.48,-355.5 1221.48,-355.5 1221.48,-336.5 1153.48,-336.5"/>
<text text-anchor="middle" x="1187.48" y="-343.5" font-family="Helvetica,sans-Serif" font-size="10.00">wx/timer.h</text>
</a>
</g>
</g>
<!-- Node1&#45;&gt;Node56 -->
<g id="edge76" class="edge">
<title>Node1&#45;&gt;Node56</title>
<path fill="none" stroke="midnightblue" d="M1036.84,-392.44C1067.21,-383.28 1115.59,-368.69 1149.29,-358.52"/>
<polygon fill="midnightblue" stroke="midnightblue" points="1150.68,-361.76 1159.25,-355.52 1148.66,-355.05 1150.68,-361.76"/>
</g>
<!-- Node57 -->
<g id="node49" class="node">
<title>Node57</title>
<g id="a_node49"><a xlink:title=" ">
<polygon fill="white" stroke="#bfbfbf" points="1239.98,-336.5 1239.98,-355.5 1326.98,-355.5 1326.98,-336.5 1239.98,-336.5"/>
<text text-anchor="middle" x="1283.48" y="-343.5" font-family="Helvetica,sans-Serif" font-size="10.00">wx/mstream.h</text>
</a>
</g>
</g>
<!-- Node1&#45;&gt;Node57 -->
<g id="edge79" class="edge">
<title>Node1&#45;&gt;Node57</title>
<path fill="none" stroke="midnightblue" d="M1052.05,-392.44C1100.33,-382.96 1178.19,-367.67 1230.09,-357.48"/>
<polygon fill="midnightblue" stroke="midnightblue" points="1230.97,-360.88 1240.11,-355.52 1229.62,-354.01 1230.97,-360.88"/>
</g>
<!-- Node58 -->
<g id="node50" class="node">
<title>Node58</title>
<g id="a_node50"><a xlink:title=" ">
<polygon fill="white" stroke="#bfbfbf" points="1344.98,-336.5 1344.98,-355.5 1433.98,-355.5 1433.98,-336.5 1344.98,-336.5"/>
<text text-anchor="middle" x="1389.48" y="-343.5" font-family="Helvetica,sans-Serif" font-size="10.00">wx/wfstream.h</text>
</a>
</g>
</g>
<!-- Node1&#45;&gt;Node58 -->
<g id="edge80" class="edge">
<title>Node1&#45;&gt;Node58</title>
<path fill="none" stroke="midnightblue" d="M1074.32,-392.5C1138.22,-384.12 1238.2,-370.67 1334.77,-356.07"/>
<polygon fill="midnightblue" stroke="midnightblue" points="1335.34,-359.52 1344.7,-354.56 1334.29,-352.6 1335.34,-359.52"/>
</g>
<!-- Node3 -->
<g id="node3" class="node">
<title>Node3</title>
<g id="a_node3"><a xlink:href="precomp_8h_source.html" target="_top" xlink:title=" ">
<polygon fill="white" stroke="black" points="1152.98,-56.5 1152.98,-75.5 1229.98,-75.5 1229.98,-56.5 1152.98,-56.5"/>
<text text-anchor="middle" x="1191.48" y="-63.5" font-family="Helvetica,sans-Serif" font-size="10.00">../precomp.h</text>
</a>
</g>
</g>
<!-- Node2&#45;&gt;Node3 -->
<g id="edge2" class="edge">
<title>Node2&#45;&gt;Node3</title>
<path fill="none" stroke="midnightblue" d="M1548.49,-231.3C1651.95,-222.91 2082.14,-183.47 2014.48,-112 2011.12,-108.46 1416.5,-78.31 1240.2,-69.44"/>
<polygon fill="midnightblue" stroke="midnightblue" points="1240.33,-65.94 1230.17,-68.94 1239.98,-72.94 1240.33,-65.94"/>
</g>
<!-- Node5 -->
<g id="node5" class="node">
<title>Node5</title>
<g id="a_node5"><a xlink:href="CellPtr_8h.html" target="_top" xlink:title="Implementation of an observing weak Cell pointer.">
<polygon fill="white" stroke="black" points="1810.98,-168.5 1810.98,-187.5 1867.98,-187.5 1867.98,-168.5 1810.98,-168.5"/>
<text text-anchor="middle" x="1839.48" y="-175.5" font-family="Helvetica,sans-Serif" font-size="10.00">CellPtr.h</text>
</a>
</g>
</g>
<!-- Node2&#45;&gt;Node5 -->
<g id="edge4" class="edge">
<title>Node2&#45;&gt;Node5</title>
<path fill="none" stroke="midnightblue" d="M1548.76,-229.96C1594.31,-223.62 1701.53,-208.06 1800.94,-188.19"/>
<polygon fill="midnightblue" stroke="midnightblue" points="1801.73,-191.61 1810.84,-186.2 1800.35,-184.74 1801.73,-191.61"/>
</g>
<!-- Node2&#45;&gt;Node12 -->
<g id="edge53" class="edge">
<title>Node2&#45;&gt;Node12</title>
<path fill="none" stroke="midnightblue" d="M1504.2,-226.28C1500.96,-225.44 1497.64,-224.64 1494.48,-224 1432.57,-211.41 1254.22,-235.42 1212.48,-188 1197.5,-170.99 1220.38,-150.44 1240.36,-137.06"/>
<polygon fill="midnightblue" stroke="midnightblue" points="1242.34,-139.94 1248.9,-131.62 1238.59,-134.03 1242.34,-139.94"/>
</g>
<!-- Node13 -->
<g id="node13" class="node">
<title>Node13</title>
<g id="a_node13"><a xlink:title=" ">
<polygon fill="white" stroke="#bfbfbf" points="1441.98,-112.5 1441.98,-131.5 1510.98,-131.5 1510.98,-112.5 1441.98,-112.5"/>
<text text-anchor="middle" x="1476.48" y="-119.5" font-family="Helvetica,sans-Serif" font-size="10.00">type_traits</text>
</a>
</g>
</g>
<!-- Node2&#45;&gt;Node13 -->
<g id="edge55" class="edge">
<title>Node2&#45;&gt;Node13</title>
<path fill="none" stroke="midnightblue" d="M1515.75,-224.2C1506.41,-215.89 1493.33,-202.57 1486.48,-188 1479.71,-173.62 1477.35,-155.65 1476.6,-142.26"/>
<polygon fill="midnightblue" stroke="midnightblue" points="1480.08,-141.76 1476.28,-131.87 1473.09,-141.97 1480.08,-141.76"/>
</g>
<!-- Node14 -->
<g id="node14" class="node">
<title>Node14</title>
<g id="a_node14"><a xlink:href="CellIterators_8h.html" target="_top" xlink:title="Declares the various iterators useful with the Cell class.">
<polygon fill="white" stroke="black" points="1221.48,-168.5 1221.48,-187.5 1307.48,-187.5 1307.48,-168.5 1221.48,-168.5"/>
<text text-anchor="middle" x="1264.48" y="-175.5" font-family="Helvetica,sans-Serif" font-size="10.00">CellIterators.h</text>
</a>
</g>
</g>
<!-- Node2&#45;&gt;Node14 -->
<g id="edge13" class="edge">
<title>Node2&#45;&gt;Node14</title>
<path fill="none" stroke="midnightblue" d="M1504.16,-226.47C1500.92,-225.6 1497.62,-224.75 1494.48,-224 1461.62,-216.18 1374.64,-199.57 1317.56,-188.87"/>
<polygon fill="midnightblue" stroke="midnightblue" points="1318.09,-185.41 1307.62,-187.01 1316.8,-192.29 1318.09,-185.41"/>
</g>
<!-- Node15 -->
<g id="node15" class="node">
<title>Node15</title>
<g id="a_node15"><a xlink:href="Configuration_8h_source.html" target="_top" xlink:title=" ">
<polygon fill="white" stroke="black" points="583.98,-168.5 583.98,-187.5 674.98,-187.5 674.98,-168.5 583.98,-168.5"/>
<text text-anchor="middle" x="629.48" y="-175.5" font-family="Helvetica,sans-Serif" font-size="10.00">Configuration.h</text>
</a>
</g>
</g>
<!-- Node2&#45;&gt;Node15 -->
<g id="edge17" class="edge">
<title>Node2&#45;&gt;Node15</title>
<path fill="none" stroke="midnightblue" d="M1504.24,-226.05C1500.99,-225.24 1497.67,-224.52 1494.48,-224 1159.8,-169.75 1070.76,-210.76 732.48,-188 717.2,-186.97 700.66,-185.63 685.41,-184.3"/>
<polygon fill="midnightblue" stroke="midnightblue" points="685.35,-180.78 675.08,-183.38 684.73,-187.75 685.35,-180.78"/>
</g>
<!-- Node23 -->
<g id="node22" class="node">
<title>Node23</title>
<g id="a_node22"><a xlink:href="TextStyle_8h.html" target="_top" xlink:title="This file declares everything needed for the text style system used to style all the elements on the ...">
<polygon fill="white" stroke="red" points="949.98,-112.5 949.98,-131.5 1020.98,-131.5 1020.98,-112.5 949.98,-112.5"/>
<text text-anchor="middle" x="985.48" y="-119.5" font-family="Helvetica,sans-Serif" font-size="10.00">TextStyle.h</text>
</a>
</g>
</g>
<!-- Node2&#45;&gt;Node23 -->
<g id="edge45" class="edge">
<title>Node2&#45;&gt;Node23</title>
<path fill="none" stroke="midnightblue" d="M1504.2,-226.27C1500.96,-225.43 1497.64,-224.64 1494.48,-224 1367.16,-198.35 1331.61,-214.57 1204.48,-188 1137.63,-174.03 1061.62,-149.44 1019.03,-134.85"/>
<polygon fill="midnightblue" stroke="midnightblue" points="1020.04,-131.49 1009.45,-131.54 1017.76,-138.11 1020.04,-131.49"/>
</g>
<!-- Node2&#45;&gt;Node39 -->
<g id="edge54" class="edge">
<title>Node2&#45;&gt;Node39</title>
<path fill="none" stroke="midnightblue" d="M1504.25,-226.03C1501,-225.22 1497.67,-224.5 1494.48,-224 1090.28,-160.16 982.52,-218.7 574.48,-188 353.89,-171.4 294.55,-174.87 74.08,-132.06"/>
<polygon fill="midnightblue" stroke="midnightblue" points="74.62,-128.6 64.14,-130.12 73.28,-135.47 74.62,-128.6"/>
</g>
<!-- Node42 -->
<g id="node33" class="node">
<title>Node42</title>
<g id="a_node33"><a xlink:href="StringUtils_8h_source.html" target="_top" xlink:title=" ">
<polygon fill="white" stroke="black" points="1715.98,-168.5 1715.98,-187.5 1792.98,-187.5 1792.98,-168.5 1715.98,-168.5"/>
<text text-anchor="middle" x="1754.48" y="-175.5" font-family="Helvetica,sans-Serif" font-size="10.00">StringUtils.h</text>
</a>
</g>
</g>
<!-- Node2&#45;&gt;Node42 -->
<g id="edge42" class="edge">
<title>Node2&#45;&gt;Node42</title>
<path fill="none" stroke="midnightblue" d="M1548.75,-227.72C1585.58,-219 1659.88,-201.4 1708.38,-189.92"/>
<polygon fill="midnightblue" stroke="midnightblue" points="1709.39,-193.27 1718.32,-187.56 1707.78,-186.46 1709.39,-193.27"/>
</g>
<!-- Node45 -->
<g id="node36" class="node">
<title>Node45</title>
<g id="a_node36"><a xlink:href="CachedValue_8h.html" target="_top" xlink:title="Declares &quot;mostly read&#45;only&quot; wrappers around values that are expensive to compute and are thus cached.">
<polygon fill="white" stroke="red" points="1325.98,-168.5 1325.98,-187.5 1438.98,-187.5 1438.98,-168.5 1325.98,-168.5"/>
<text text-anchor="middle" x="1382.48" y="-175.5" font-family="Helvetica,sans-Serif" font-size="10.00">utils/CachedValue.h</text>
</a>
</g>
</g>
<!-- Node2&#45;&gt;Node45 -->
<g id="edge46" class="edge">
<title>Node2&#45;&gt;Node45</title>
<path fill="none" stroke="midnightblue" d="M1504.29,-224.68C1480.4,-215.72 1442.16,-201.38 1414.9,-191.16"/>
<polygon fill="midnightblue" stroke="midnightblue" points="1415.99,-187.83 1405.4,-187.6 1413.54,-194.39 1415.99,-187.83"/>
</g>
<!-- Node46 -->
<g id="node37" class="node">
<title>Node46</title>
<g id="a_node37"><a xlink:title=" ">
<polygon fill="white" stroke="#bfbfbf" points="1495.48,-168.5 1495.48,-187.5 1559.48,-187.5 1559.48,-168.5 1495.48,-168.5"/>
<text text-anchor="middle" x="1527.48" y="-175.5" font-family="Helvetica,sans-Serif" font-size="10.00">wx/defs.h</text>
</a>
</g>
</g>
<!-- Node2&#45;&gt;Node46 -->
<g id="edge50" class="edge">
<title>Node2&#45;&gt;Node46</title>
<path fill="none" stroke="midnightblue" d="M1526.64,-224.08C1526.77,-217.01 1526.96,-206.86 1527.12,-197.99"/>
<polygon fill="midnightblue" stroke="midnightblue" points="1530.63,-197.81 1527.31,-187.75 1523.63,-197.68 1530.63,-197.81"/>
</g>
<!-- Node33 -->
<g id="node38" class="node">
<title>Node33</title>
<g id="a_node38"><a xlink:title=" ">
<polygon fill="white" stroke="#bfbfbf" points="1577.48,-168.5 1577.48,-187.5 1641.48,-187.5 1641.48,-168.5 1577.48,-168.5"/>
<text text-anchor="middle" x="1609.48" y="-175.5" font-family="Helvetica,sans-Serif" font-size="10.00">algorithm</text>
</a>
</g>
</g>
<!-- Node2&#45;&gt;Node33 -->
<g id="edge51" class="edge">
<title>Node2&#45;&gt;Node33</title>
<path fill="none" stroke="midnightblue" d="M1539.81,-224.32C1552.64,-215.98 1572.26,-203.21 1587.42,-193.35"/>
<polygon fill="midnightblue" stroke="midnightblue" points="1589.7,-196.04 1596.17,-187.65 1585.88,-190.17 1589.7,-196.04"/>
</g>
<!-- Node47 -->
<g id="node39" class="node">
<title>Node47</title>
<g id="a_node39"><a xlink:title=" ">
<polygon fill="white" stroke="#bfbfbf" points="1659.48,-168.5 1659.48,-187.5 1697.48,-187.5 1697.48,-168.5 1659.48,-168.5"/>
<text text-anchor="middle" x="1678.48" y="-175.5" font-family="Helvetica,sans-Serif" font-size="10.00">map</text>
</a>
</g>
</g>
<!-- Node2&#45;&gt;Node47 -->
<g id="edge52" class="edge">
<title>Node2&#45;&gt;Node47</title>
<path fill="none" stroke="midnightblue" d="M1548.58,-225.15C1575.24,-215.68 1620.14,-199.73 1649.54,-189.28"/>
<polygon fill="midnightblue" stroke="midnightblue" points="1650.99,-192.48 1659.24,-185.84 1648.64,-185.88 1650.99,-192.48"/>
</g>
<!-- Node4 -->
<g id="node4" class="node">
<title>Node4</title>
<g id="a_node4"><a xlink:href="Version_8h_source.html" target="_top" xlink:title=" ">
<polygon fill="white" stroke="black" points="536.48,-0.5 536.48,-19.5 598.48,-19.5 598.48,-0.5 536.48,-0.5"/>
<text text-anchor="middle" x="567.48" y="-7.5" font-family="Helvetica,sans-Serif" font-size="10.00">Version.h</text>
</a>
</g>
</g>
<!-- Node3&#45;&gt;Node4 -->
<g id="edge3" class="edge">
<title>Node3&#45;&gt;Node4</title>
<path fill="none" stroke="midnightblue" d="M1152.76,-57.37C1149.63,-56.87 1146.5,-56.4 1143.48,-56 943.88,-29.57 703.17,-16.92 608.52,-12.69"/>
<polygon fill="midnightblue" stroke="midnightblue" points="608.65,-9.19 598.51,-12.25 608.34,-16.19 608.65,-9.19"/>
</g>
<!-- Node6 -->
<g id="node6" class="node">
<title>Node6</title>
<g id="a_node6"><a xlink:title=" ">
<polygon fill="white" stroke="#bfbfbf" points="1311.98,-112.5 1311.98,-131.5 1384.98,-131.5 1384.98,-112.5 1311.98,-112.5"/>
<text text-anchor="middle" x="1348.48" y="-119.5" font-family="Helvetica,sans-Serif" font-size="10.00">wx/debug.h</text>
</a>
</g>
</g>
<!-- Node5&#45;&gt;Node6 -->
<g id="edge5" class="edge">
<title>Node5&#45;&gt;Node6</title>
<path fill="none" stroke="midnightblue" d="M1810.88,-169.62C1808.05,-169.02 1805.21,-168.46 1802.48,-168 1639.58,-140.41 1596.84,-148.8 1432.48,-132 1420.51,-130.78 1407.6,-129.41 1395.57,-128.13"/>
<polygon fill="midnightblue" stroke="midnightblue" points="1395.59,-124.61 1385.27,-127.02 1394.84,-131.57 1395.59,-124.61"/>
</g>
<!-- Node7 -->
<g id="node7" class="node">
<title>Node7</title>
<g id="a_node7"><a xlink:title=" ">
<polygon fill="white" stroke="#bfbfbf" points="1384.48,-56.5 1384.48,-75.5 1442.48,-75.5 1442.48,-56.5 1384.48,-56.5"/>
<text text-anchor="middle" x="1413.48" y="-63.5" font-family="Helvetica,sans-Serif" font-size="10.00">wx/log.h</text>
</a>
</g>
</g>
<!-- Node5&#45;&gt;Node7 -->
<g id="edge6" class="edge">
<title>Node5&#45;&gt;Node7</title>
<path fill="none" stroke="midnightblue" d="M1824.54,-168.3C1795.48,-151.44 1733.21,-115.63 1722.48,-112 1629.21,-80.49 1512.78,-71.04 1452.97,-68.21"/>
<polygon fill="midnightblue" stroke="midnightblue" points="1452.97,-64.7 1442.83,-67.77 1452.67,-71.7 1452.97,-64.7"/>
</g>
<!-- Node8 -->
<g id="node8" class="node">
<title>Node8</title>
<g id="a_node8"><a xlink:title=" ">
<polygon fill="white" stroke="#bfbfbf" points="1959.98,-112.5 1959.98,-131.5 2004.98,-131.5 2004.98,-112.5 1959.98,-112.5"/>
<text text-anchor="middle" x="1982.48" y="-119.5" font-family="Helvetica,sans-Serif" font-size="10.00">utility</text>
</a>
</g>
</g>
<!-- Node5&#45;&gt;Node8 -->
<g id="edge7" class="edge">
<title>Node5&#45;&gt;Node8</title>
<path fill="none" stroke="midnightblue" d="M1862.14,-168.44C1885.88,-159.48 1923.39,-145.31 1950.21,-135.18"/>
<polygon fill="midnightblue" stroke="midnightblue" points="1951.81,-138.32 1959.92,-131.52 1949.33,-131.77 1951.81,-138.32"/>
</g>
<!-- Node9 -->
<g id="node9" class="node">
<title>Node9</title>
<g id="a_node9"><a xlink:title=" ">
<polygon fill="white" stroke="#bfbfbf" points="1769.98,-112.5 1769.98,-131.5 1822.98,-131.5 1822.98,-112.5 1769.98,-112.5"/>
<text text-anchor="middle" x="1796.48" y="-119.5" font-family="Helvetica,sans-Serif" font-size="10.00">cstddef</text>
</a>
</g>
</g>
<!-- Node5&#45;&gt;Node9 -->
<g id="edge8" class="edge">
<title>Node5&#45;&gt;Node9</title>
<path fill="none" stroke="midnightblue" d="M1832.38,-168.08C1826.24,-160.38 1817.21,-149.03 1809.74,-139.65"/>
<polygon fill="midnightblue" stroke="midnightblue" points="1812.41,-137.39 1803.44,-131.75 1806.94,-141.75 1812.41,-137.39"/>
</g>
<!-- Node10 -->
<g id="node10" class="node">
<title>Node10</title>
<g id="a_node10"><a xlink:title=" ">
<polygon fill="white" stroke="#bfbfbf" points="1084.48,-56.5 1084.48,-75.5 1134.48,-75.5 1134.48,-56.5 1084.48,-56.5"/>
<text text-anchor="middle" x="1109.48" y="-63.5" font-family="Helvetica,sans-Serif" font-size="10.00">cstdint</text>
</a>
</g>
</g>
<!-- Node5&#45;&gt;Node10 -->
<g id="edge9" class="edge">
<title>Node5&#45;&gt;Node10</title>
<path fill="none" stroke="midnightblue" d="M1841.63,-168.33C1844.56,-154.25 1847.81,-126.51 1832.48,-112 1778.65,-61.06 1255.69,-86.06 1144.56,-75.49"/>
<polygon fill="midnightblue" stroke="midnightblue" points="1144.96,-72.01 1134.6,-74.27 1144.1,-78.96 1144.96,-72.01"/>
</g>
<!-- Node11 -->
<g id="node11" class="node">
<title>Node11</title>
<g id="a_node11"><a xlink:title=" ">
<polygon fill="white" stroke="#bfbfbf" points="1879.48,-112.5 1879.48,-131.5 1941.48,-131.5 1941.48,-112.5 1879.48,-112.5"/>
<text text-anchor="middle" x="1910.48" y="-119.5" font-family="Helvetica,sans-Serif" font-size="10.00">cinttypes</text>
</a>
</g>
</g>
<!-- Node5&#45;&gt;Node11 -->
<g id="edge10" class="edge">
<title>Node5&#45;&gt;Node11</title>
<path fill="none" stroke="midnightblue" d="M1850.88,-168.32C1861.59,-160.18 1877.82,-147.84 1890.64,-138.09"/>
<polygon fill="midnightblue" stroke="midnightblue" points="1893.02,-140.67 1898.86,-131.83 1888.78,-135.1 1893.02,-140.67"/>
</g>
<!-- Node5&#45;&gt;Node12 -->
<g id="edge11" class="edge">
<title>Node5&#45;&gt;Node12</title>
<path fill="none" stroke="midnightblue" d="M1810.89,-169.55C1808.06,-168.96 1805.22,-168.43 1802.48,-168 1585.58,-134.06 1524.48,-164.85 1303.79,-131.96"/>
<polygon fill="midnightblue" stroke="midnightblue" points="1304.26,-128.49 1293.84,-130.45 1303.2,-135.41 1304.26,-128.49"/>
</g>
<!-- Node5&#45;&gt;Node13 -->
<g id="edge12" class="edge">
<title>Node5&#45;&gt;Node13</title>
<path fill="none" stroke="midnightblue" d="M1810.86,-169.7C1808.04,-169.09 1805.21,-168.5 1802.48,-168 1680.96,-145.56 1646.26,-152.62 1521.13,-132.16"/>
<polygon fill="midnightblue" stroke="midnightblue" points="1521.6,-128.69 1511.17,-130.51 1520.46,-135.6 1521.6,-128.69"/>
</g>
<!-- Node14&#45;&gt;Node6 -->
<g id="edge14" class="edge">
<title>Node14&#45;&gt;Node6</title>
<path fill="none" stroke="midnightblue" d="M1277.97,-168.32C1291.08,-159.9 1311.19,-146.97 1326.58,-137.07"/>
<polygon fill="midnightblue" stroke="midnightblue" points="1328.49,-140.01 1335.01,-131.65 1324.71,-134.12 1328.49,-140.01"/>
</g>
<!-- Node14&#45;&gt;Node12 -->
<g id="edge15" class="edge">
<title>Node14&#45;&gt;Node12</title>
<path fill="none" stroke="midnightblue" d="M1264.48,-168.08C1264.48,-161.01 1264.48,-150.86 1264.48,-141.99"/>
<polygon fill="midnightblue" stroke="midnightblue" points="1267.98,-141.75 1264.48,-131.75 1260.98,-141.75 1267.98,-141.75"/>
</g>
<!-- Node14&#45;&gt;Node13 -->
<g id="edge16" class="edge">
<title>Node14&#45;&gt;Node13</title>
<path fill="none" stroke="midnightblue" d="M1298.07,-168.44C1334.66,-159.12 1393.31,-144.18 1433.3,-134"/>
<polygon fill="midnightblue" stroke="midnightblue" points="1434.22,-137.38 1443.04,-131.52 1432.49,-130.59 1434.22,-137.38"/>
</g>
<!-- Node15&#45;&gt;Node3 -->
<g id="edge18" class="edge">
<title>Node15&#45;&gt;Node3</title>
<path fill="none" stroke="midnightblue" d="M675.26,-170.48C681.71,-169.62 688.26,-168.76 694.48,-168 843.1,-149.73 886,-174.89 1029.48,-132 1048.14,-126.42 1050.63,-119.81 1068.48,-112 1097.22,-99.43 1130.72,-87.33 1155.49,-78.86"/>
<polygon fill="midnightblue" stroke="midnightblue" points="1156.85,-82.09 1165.19,-75.57 1154.6,-75.46 1156.85,-82.09"/>
</g>
<!-- Node15&#45;&gt;Node12 -->
<g id="edge35" class="edge">
<title>Node15&#45;&gt;Node12</title>
<path fill="none" stroke="midnightblue" d="M675.24,-170.26C681.69,-169.42 688.24,-168.64 694.48,-168 926.56,-144.1 989.77,-166.09 1225.29,-131.75"/>
<polygon fill="midnightblue" stroke="midnightblue" points="1225.8,-135.21 1235.18,-130.29 1224.78,-128.28 1225.8,-135.21"/>
</g>
<!-- Node16 -->
<g id="node16" class="node">
<title>Node16</title>
<g id="a_node16"><a xlink:title=" ">
<polygon fill="white" stroke="#bfbfbf" points="874.98,-112.5 874.98,-131.5 931.98,-131.5 931.98,-112.5 874.98,-112.5"/>
<text text-anchor="middle" x="903.48" y="-119.5" font-family="Helvetica,sans-Serif" font-size="10.00">wx/wx.h</text>
</a>
</g>
</g>
<!-- Node15&#45;&gt;Node16 -->
<g id="edge19" class="edge">
<title>Node15&#45;&gt;Node16</title>
<path fill="none" stroke="midnightblue" d="M675.28,-168.88C720.78,-160.69 792.77,-147.34 864.72,-132.08"/>
<polygon fill="midnightblue" stroke="midnightblue" points="865.82,-135.43 874.87,-129.92 864.36,-128.58 865.82,-135.43"/>
</g>
<!-- Node17 -->
<g id="node17" class="node">
<title>Node17</title>
<g id="a_node17"><a xlink:title=" ">
<polygon fill="white" stroke="#bfbfbf" points="472.48,-56.5 472.48,-75.5 544.48,-75.5 544.48,-56.5 472.48,-56.5"/>
<text text-anchor="middle" x="508.48" y="-63.5" font-family="Helvetica,sans-Serif" font-size="10.00">wx/config.h</text>
</a>
</g>
</g>
<!-- Node15&#45;&gt;Node17 -->
<g id="edge20" class="edge">
<title>Node15&#45;&gt;Node17</title>
<path fill="none" stroke="midnightblue" d="M583.84,-173.75C500.79,-167.37 331.87,-152.06 314.48,-132 271.42,-82.36 391.91,-70.52 462.05,-67.77"/>
<polygon fill="midnightblue" stroke="midnightblue" points="462.56,-71.26 472.43,-67.42 462.32,-64.26 462.56,-71.26"/>
</g>
<!-- Node18 -->
<g id="node18" class="node">
<title>Node18</title>
<g id="a_node18"><a xlink:title=" ">
<polygon fill="white" stroke="#bfbfbf" points="81.98,-112.5 81.98,-131.5 158.98,-131.5 158.98,-112.5 81.98,-112.5"/>
<text text-anchor="middle" x="120.48" y="-119.5" font-family="Helvetica,sans-Serif" font-size="10.00">wx/display.h</text>
</a>
</g>
</g>
<!-- Node15&#45;&gt;Node18 -->
<g id="edge21" class="edge">
<title>Node15&#45;&gt;Node18</title>
<path fill="none" stroke="midnightblue" d="M583.63,-173.04C487.12,-164.63 264.74,-144.8 169.38,-131.98"/>
<polygon fill="midnightblue" stroke="midnightblue" points="169.59,-128.47 159.2,-130.56 168.62,-135.4 169.59,-128.47"/>
</g>
<!-- Node19 -->
<g id="node19" class="node">
<title>Node19</title>
<g id="a_node19"><a xlink:title=" ">
<polygon fill="white" stroke="#bfbfbf" points="177.48,-112.5 177.48,-131.5 267.48,-131.5 267.48,-112.5 177.48,-112.5"/>
<text text-anchor="middle" x="222.48" y="-119.5" font-family="Helvetica,sans-Serif" font-size="10.00">wx/fontenum.h</text>
</a>
</g>
</g>
<!-- Node15&#45;&gt;Node19 -->
<g id="edge22" class="edge">
<title>Node15&#45;&gt;Node19</title>
<path fill="none" stroke="midnightblue" d="M583.83,-171.43C517.28,-163.24 389.76,-147.26 281.48,-132 280.21,-131.82 278.92,-131.64 277.63,-131.45"/>
<polygon fill="midnightblue" stroke="midnightblue" points="277.96,-127.96 267.56,-129.99 276.95,-134.89 277.96,-127.96"/>
</g>
<!-- Node20 -->
<g id="node20" class="node">
<title>Node20</title>
<g id="a_node20"><a xlink:title=" ">
<polygon fill="white" stroke="#bfbfbf" points="323.48,-112.5 323.48,-131.5 411.48,-131.5 411.48,-112.5 323.48,-112.5"/>
<text text-anchor="middle" x="367.48" y="-119.5" font-family="Helvetica,sans-Serif" font-size="10.00">wx/hashmap.h</text>
</a>
</g>
</g>
<!-- Node15&#45;&gt;Node20 -->
<g id="edge23" class="edge">
<title>Node15&#45;&gt;Node20</title>
<path fill="none" stroke="midnightblue" d="M587.96,-168.44C542.06,-158.98 468.1,-143.74 418.65,-133.55"/>
<polygon fill="midnightblue" stroke="midnightblue" points="419.3,-130.11 408.8,-131.52 417.88,-136.96 419.3,-130.11"/>
</g>
<!-- Node21 -->
<g id="node21" class="node">
<title>Node21</title>
<g id="a_node21"><a xlink:href="LoggingMessageDialog_8h.html" target="_top" xlink:title="This file declares a message dialog that sends its contents to the log message sink.">
<polygon fill="white" stroke="red" points="1077.98,-112.5 1077.98,-131.5 1216.98,-131.5 1216.98,-112.5 1077.98,-112.5"/>
<text text-anchor="middle" x="1147.48" y="-119.5" font-family="Helvetica,sans-Serif" font-size="10.00">LoggingMessageDialog.h</text>
</a>
</g>
</g>
<!-- Node15&#45;&gt;Node21 -->
<g id="edge24" class="edge">
<title>Node15&#45;&gt;Node21</title>
<path fill="none" stroke="midnightblue" d="M675.26,-170.43C681.7,-169.57 688.25,-168.73 694.48,-168 858.12,-148.7 899.55,-148.78 1063.48,-132 1064.79,-131.87 1066.11,-131.73 1067.45,-131.59"/>
<polygon fill="midnightblue" stroke="midnightblue" points="1068.23,-135.03 1077.81,-130.52 1067.5,-128.07 1068.23,-135.03"/>
</g>
<!-- Node15&#45;&gt;Node23 -->
<g id="edge27" class="edge">
<title>Node15&#45;&gt;Node23</title>
<path fill="none" stroke="midnightblue" d="M675.11,-170.54C749.06,-160.04 891,-139.81 939.62,-132.01"/>
<polygon fill="midnightblue" stroke="midnightblue" points="940.36,-135.44 949.65,-130.35 939.21,-128.53 940.36,-135.44"/>
</g>
<!-- Node37 -->
<g id="node27" class="node">
<title>Node37</title>
<g id="a_node27"><a xlink:title=" ">
<polygon fill="white" stroke="#bfbfbf" points="428.98,-112.5 428.98,-131.5 521.98,-131.5 521.98,-112.5 428.98,-112.5"/>
<text text-anchor="middle" x="475.48" y="-119.5" font-family="Helvetica,sans-Serif" font-size="10.00">unordered_map</text>
</a>
</g>
</g>
<!-- Node15&#45;&gt;Node37 -->
<g id="edge36" class="edge">
<title>Node15&#45;&gt;Node37</title>
<path fill="none" stroke="midnightblue" d="M605.07,-168.44C579.28,-159.4 538.4,-145.06 509.46,-134.92"/>
<polygon fill="midnightblue" stroke="midnightblue" points="510.36,-131.52 499.76,-131.52 508.04,-138.13 510.36,-131.52"/>
</g>
<!-- Node38 -->
<g id="node28" class="node">
<title>Node38</title>
<g id="a_node28"><a xlink:title=" ">
<polygon fill="white" stroke="#bfbfbf" points="540.48,-112.5 540.48,-131.5 594.48,-131.5 594.48,-112.5 540.48,-112.5"/>
<text text-anchor="middle" x="567.48" y="-119.5" font-family="Helvetica,sans-Serif" font-size="10.00">random</text>
</a>
</g>
</g>
<!-- Node15&#45;&gt;Node38 -->
<g id="edge37" class="edge">
<title>Node15&#45;&gt;Node38</title>
<path fill="none" stroke="midnightblue" d="M619.52,-168.32C610.35,-160.34 596.54,-148.31 585.45,-138.65"/>
<polygon fill="midnightblue" stroke="midnightblue" points="587.46,-135.76 577.62,-131.83 582.86,-141.04 587.46,-135.76"/>
</g>
<!-- Node36 -->
<g id="node29" class="node">
<title>Node36</title>
<g id="a_node29"><a xlink:title=" ">
<polygon fill="white" stroke="#bfbfbf" points="612.48,-112.5 612.48,-131.5 644.48,-131.5 644.48,-112.5 612.48,-112.5"/>
<text text-anchor="middle" x="628.48" y="-119.5" font-family="Helvetica,sans-Serif" font-size="10.00">list</text>
</a>
</g>
</g>
<!-- Node15&#45;&gt;Node36 -->
<g id="edge38" class="edge">
<title>Node15&#45;&gt;Node36</title>
<path fill="none" stroke="midnightblue" d="M629.31,-168.08C629.18,-161.01 628.99,-150.86 628.83,-141.99"/>
<polygon fill="midnightblue" stroke="midnightblue" points="632.32,-141.68 628.64,-131.75 625.32,-141.81 632.32,-141.68"/>
</g>
<!-- Node15&#45;&gt;Node39 -->
<g id="edge39" class="edge">
<title>Node15&#45;&gt;Node39</title>
<path fill="none" stroke="midnightblue" d="M583.67,-173.42C462.39,-163.92 138.29,-138.44 74.27,-131.5"/>
<polygon fill="midnightblue" stroke="midnightblue" points="74.49,-128 64.12,-130.2 73.6,-134.94 74.49,-128"/>
</g>
<!-- Node40 -->
<g id="node31" class="node">
<title>Node40</title>
<g id="a_node31"><a xlink:title=" ">
<polygon fill="white" stroke="#bfbfbf" points="662.98,-112.5 662.98,-131.5 751.98,-131.5 751.98,-112.5 662.98,-112.5"/>
<text text-anchor="middle" x="707.48" y="-119.5" font-family="Helvetica,sans-Serif" font-size="10.00">wx/wupdlock.h</text>
</a>
</g>
</g>
<!-- Node15&#45;&gt;Node40 -->
<g id="edge40" class="edge">
<title>Node15&#45;&gt;Node40</title>
<path fill="none" stroke="midnightblue" d="M642.01,-168.32C654.06,-159.98 672.5,-147.21 686.75,-137.35"/>
<polygon fill="midnightblue" stroke="midnightblue" points="688.75,-140.22 694.98,-131.65 684.76,-134.47 688.75,-140.22"/>
</g>
<!-- Node41 -->
<g id="node32" class="node">
<title>Node41</title>
<g id="a_node32"><a xlink:title=" ">
<polygon fill="white" stroke="#bfbfbf" points="770.48,-112.5 770.48,-131.5 856.48,-131.5 856.48,-112.5 770.48,-112.5"/>
<text text-anchor="middle" x="813.48" y="-119.5" font-family="Helvetica,sans-Serif" font-size="10.00">wx/webview.h</text>
</a>
</g>
</g>
<!-- Node15&#45;&gt;Node41 -->
<g id="edge41" class="edge">
<title>Node15&#45;&gt;Node41</title>
<path fill="none" stroke="midnightblue" d="M658.63,-168.44C689.99,-159.24 740.01,-144.56 774.67,-134.39"/>
<polygon fill="midnightblue" stroke="midnightblue" points="775.85,-137.69 784.46,-131.52 773.88,-130.97 775.85,-137.69"/>
</g>
<!-- Node21&#45;&gt;Node3 -->
<g id="edge25" class="edge">
<title>Node21&#45;&gt;Node3</title>
<path fill="none" stroke="midnightblue" d="M1154.74,-112.08C1161.02,-104.38 1170.26,-93.03 1177.91,-83.65"/>
<polygon fill="midnightblue" stroke="midnightblue" points="1180.74,-85.71 1184.35,-75.75 1175.32,-81.29 1180.74,-85.71"/>
</g>
<!-- Node21&#45;&gt;Node7 -->
<g id="edge26" class="edge">
<title>Node21&#45;&gt;Node7</title>
<path fill="none" stroke="midnightblue" d="M1189.63,-112.44C1240.37,-102.14 1324.9,-84.98 1374.28,-74.96"/>
<polygon fill="midnightblue" stroke="midnightblue" points="1375.16,-78.35 1384.26,-72.93 1373.77,-71.49 1375.16,-78.35"/>
</g>
<!-- Node23&#45;&gt;Node3 -->
<g id="edge28" class="edge">
<title>Node23&#45;&gt;Node3</title>
<path fill="none" stroke="midnightblue" d="M1018.12,-112.44C1053.53,-103.16 1110.19,-88.31 1149.03,-78.13"/>
<polygon fill="midnightblue" stroke="midnightblue" points="1150.2,-81.44 1158.99,-75.52 1148.43,-74.67 1150.2,-81.44"/>
</g>
<!-- Node23&#45;&gt;Node10 -->
<g id="edge33" class="edge">
<title>Node23&#45;&gt;Node10</title>
<path fill="none" stroke="midnightblue" d="M1005.12,-112.44C1025.44,-103.6 1057.38,-89.69 1080.57,-79.59"/>
<polygon fill="midnightblue" stroke="midnightblue" points="1082.15,-82.72 1089.92,-75.52 1079.35,-76.3 1082.15,-82.72"/>
</g>
<!-- Node23&#45;&gt;Node17 -->
<g id="edge30" class="edge">
<title>Node23&#45;&gt;Node17</title>
<path fill="none" stroke="midnightblue" d="M949.67,-113.52C946.57,-112.97 943.47,-112.45 940.48,-112 800.81,-90.81 634.21,-76.53 554.89,-70.4"/>
<polygon fill="midnightblue" stroke="midnightblue" points="554.99,-66.9 544.75,-69.62 554.45,-73.88 554.99,-66.9"/>
</g>
<!-- Node24 -->
<g id="node23" class="node">
<title>Node24</title>
<g id="a_node23"><a xlink:title=" ">
<polygon fill="white" stroke="#bfbfbf" points="730.48,-56.5 730.48,-75.5 802.48,-75.5 802.48,-56.5 730.48,-56.5"/>
<text text-anchor="middle" x="766.48" y="-63.5" font-family="Helvetica,sans-Serif" font-size="10.00">wx/colour.h</text>
</a>
</g>
</g>
<!-- Node23&#45;&gt;Node24 -->
<g id="edge29" class="edge">
<title>Node23&#45;&gt;Node24</title>
<path fill="none" stroke="midnightblue" d="M950.78,-112.44C912.89,-103.1 852.13,-88.12 810.81,-77.93"/>
<polygon fill="midnightblue" stroke="midnightblue" points="811.56,-74.51 801.02,-75.52 809.89,-81.31 811.56,-74.51"/>
</g>
<!-- Node25 -->
<g id="node24" class="node">
<title>Node25</title>
<g id="a_node24"><a xlink:title=" ">
<polygon fill="white" stroke="#bfbfbf" points="820.48,-56.5 820.48,-75.5 882.48,-75.5 882.48,-56.5 820.48,-56.5"/>
<text text-anchor="middle" x="851.48" y="-63.5" font-family="Helvetica,sans-Serif" font-size="10.00">wx/font.h</text>
</a>
</g>
</g>
<!-- Node23&#45;&gt;Node25 -->
<g id="edge31" class="edge">
<title>Node23&#45;&gt;Node25</title>
<path fill="none" stroke="midnightblue" d="M964.24,-112.44C942.09,-103.52 907.16,-89.44 882.04,-79.32"/>
<polygon fill="midnightblue" stroke="midnightblue" points="883.19,-76.01 872.61,-75.52 880.58,-82.5 883.19,-76.01"/>
</g>
<!-- Node26 -->
<g id="node25" class="node">
<title>Node26</title>
<g id="a_node25"><a xlink:title=" ">
<polygon fill="white" stroke="#bfbfbf" points="900.48,-56.5 900.48,-75.5 982.48,-75.5 982.48,-56.5 900.48,-56.5"/>
<text text-anchor="middle" x="941.48" y="-63.5" font-family="Helvetica,sans-Serif" font-size="10.00">wx/settings.h</text>
</a>
</g>
</g>
<!-- Node23&#45;&gt;Node26 -->
<g id="edge32" class="edge">
<title>Node23&#45;&gt;Node26</title>
<path fill="none" stroke="midnightblue" d="M978.21,-112.08C971.93,-104.38 962.69,-93.03 955.05,-83.65"/>
<polygon fill="midnightblue" stroke="midnightblue" points="957.64,-81.29 948.61,-75.75 952.21,-85.71 957.64,-81.29"/>
</g>
<!-- Node27 -->
<g id="node26" class="node">
<title>Node27</title>
<g id="a_node26"><a xlink:title=" ">
<polygon fill="white" stroke="#bfbfbf" points="1000.98,-56.5 1000.98,-75.5 1065.98,-75.5 1065.98,-56.5 1000.98,-56.5"/>
<text text-anchor="middle" x="1033.48" y="-63.5" font-family="Helvetica,sans-Serif" font-size="10.00">functional</text>
</a>
</g>
</g>
<!-- Node23&#45;&gt;Node27 -->
<g id="edge34" class="edge">
<title>Node23&#45;&gt;Node27</title>
<path fill="none" stroke="midnightblue" d="M993.4,-112.08C1000.32,-104.3 1010.54,-92.8 1018.93,-83.37"/>
<polygon fill="midnightblue" stroke="midnightblue" points="1021.67,-85.55 1025.7,-75.75 1016.44,-80.9 1021.67,-85.55"/>
</g>
<!-- Node43 -->
<g id="node34" class="node">
<title>Node43</title>
<g id="a_node34"><a xlink:title=" ">
<polygon fill="white" stroke="#bfbfbf" points="1528.98,-112.5 1528.98,-131.5 1599.98,-131.5 1599.98,-112.5 1528.98,-112.5"/>
<text text-anchor="middle" x="1564.48" y="-119.5" font-family="Helvetica,sans-Serif" font-size="10.00">wx/string.h</text>
</a>
</g>
</g>
<!-- Node42&#45;&gt;Node43 -->
<g id="edge43" class="edge">
<title>Node42&#45;&gt;Node43</title>
<path fill="none" stroke="midnightblue" d="M1724.37,-168.44C1691.85,-159.2 1639.9,-144.44 1604.09,-134.26"/>
<polygon fill="midnightblue" stroke="midnightblue" points="1605.02,-130.88 1594.44,-131.52 1603.1,-137.62 1605.02,-130.88"/>
</g>
<!-- Node44 -->
<g id="node35" class="node">
<title>Node44</title>
<g id="a_node35"><a xlink:title=" ">
<polygon fill="white" stroke="#bfbfbf" points="1617.98,-112.5 1617.98,-131.5 1712.98,-131.5 1712.98,-112.5 1617.98,-112.5"/>
<text text-anchor="middle" x="1665.48" y="-119.5" font-family="Helvetica,sans-Serif" font-size="10.00">wx/translation.h</text>
</a>
</g>
</g>
<!-- Node42&#45;&gt;Node44 -->
<g id="edge44" class="edge">
<title>Node42&#45;&gt;Node44</title>
<path fill="none" stroke="midnightblue" d="M1740.18,-168.32C1726.29,-159.9 1704.98,-146.97 1688.67,-137.07"/>
<polygon fill="midnightblue" stroke="midnightblue" points="1690.11,-133.85 1679.74,-131.65 1686.47,-139.83 1690.11,-133.85"/>
</g>
<!-- Node45&#45;&gt;Node6 -->
<g id="edge47" class="edge">
<title>Node45&#45;&gt;Node6</title>
<path fill="none" stroke="midnightblue" d="M1376.86,-168.08C1372.11,-160.53 1365.16,-149.49 1359.32,-140.23"/>
<polygon fill="midnightblue" stroke="midnightblue" points="1362.28,-138.35 1353.99,-131.75 1356.35,-142.08 1362.28,-138.35"/>
</g>
<!-- Node45&#45;&gt;Node7 -->
<g id="edge48" class="edge">
<title>Node45&#45;&gt;Node7</title>
<path fill="none" stroke="midnightblue" d="M1384.91,-168.37C1389.93,-150.54 1401.56,-109.3 1408.33,-85.27"/>
<polygon fill="midnightblue" stroke="midnightblue" points="1411.71,-86.17 1411.06,-75.59 1404.97,-84.27 1411.71,-86.17"/>
</g>
<!-- Node45&#45;&gt;Node13 -->
<g id="edge49" class="edge">
<title>Node45&#45;&gt;Node13</title>
<path fill="none" stroke="midnightblue" d="M1397.58,-168.32C1412.38,-159.82 1435.17,-146.73 1452.46,-136.8"/>
<polygon fill="midnightblue" stroke="midnightblue" points="1454.48,-139.67 1461.41,-131.65 1451,-133.6 1454.48,-139.67"/>
</g>
<!-- Node48&#45;&gt;Node2 -->
<g id="edge59" class="edge">
<title>Node48&#45;&gt;Node2</title>
<path fill="none" stroke="midnightblue" d="M1092.86,-282.44C1097.4,-281.53 1102.05,-280.68 1106.48,-280 1274.49,-254.3 1322.42,-274.78 1494.33,-243.64"/>
<polygon fill="midnightblue" stroke="midnightblue" points="1495.02,-247.07 1504.22,-241.82 1493.75,-240.19 1495.02,-247.07"/>
</g>
<!-- Node48&#45;&gt;Node3 -->
<g id="edge58" class="edge">
<title>Node48&#45;&gt;Node3</title>
<path fill="none" stroke="midnightblue" d="M1092.63,-287.43C1223.73,-279.85 1774.82,-245.12 1936.48,-188 1982.69,-171.67 2007.16,-174.56 2031.48,-132 2035.89,-124.28 2037.59,-118.45 2031.48,-112 2028.05,-108.38 1419.1,-78.19 1240.3,-69.39"/>
<polygon fill="midnightblue" stroke="midnightblue" points="1240.29,-65.89 1230.13,-68.89 1239.95,-72.88 1240.29,-65.89"/>
</g>
<!-- Node48&#45;&gt;Node4 -->
<g id="edge60" class="edge">
<title>Node48&#45;&gt;Node4</title>
<path fill="none" stroke="midnightblue" d="M1064.84,-280.11C1064.9,-265.71 1062.65,-237.53 1045.48,-224 980.47,-172.78 383.66,-197.77 301.48,-188 169.39,-172.3 92.28,-234.48 7.48,-132 -61.05,-49.19 385.24,-19.96 525.95,-12.87"/>
<polygon fill="midnightblue" stroke="midnightblue" points="526.5,-16.34 536.31,-12.36 526.15,-9.35 526.5,-16.34"/>
</g>
<!-- Node48&#45;&gt;Node12 -->
<g id="edge57" class="edge">
<title>Node48&#45;&gt;Node12</title>
<path fill="none" stroke="midnightblue" d="M1070.92,-280.43C1080.93,-267.42 1101.17,-242.28 1121.48,-224 1160.41,-188.95 1211.73,-155.32 1241.12,-137.08"/>
<polygon fill="midnightblue" stroke="midnightblue" points="1243.16,-139.93 1249.85,-131.72 1239.49,-133.97 1243.16,-139.93"/>
</g>
<!-- Node48&#45;&gt;Node49 -->
<g id="edge61" class="edge">
<title>Node48&#45;&gt;Node49</title>
<path fill="none" stroke="midnightblue" d="M1036.14,-282.81C994.29,-273.66 915.46,-256.42 864.76,-245.34"/>
<polygon fill="midnightblue" stroke="midnightblue" points="865.22,-241.85 854.7,-243.14 863.72,-248.69 865.22,-241.85"/>
</g>
<!-- Node48&#45;&gt;Node50 -->
<g id="edge62" class="edge">
<title>Node48&#45;&gt;Node50</title>
<path fill="none" stroke="midnightblue" d="M1039.92,-280.44C1013.95,-271.4 972.81,-257.06 943.68,-246.92"/>
<polygon fill="midnightblue" stroke="midnightblue" points="944.52,-243.5 933.92,-243.52 942.21,-250.11 944.52,-243.5"/>
</g>
<!-- Node48&#45;&gt;Node51 -->
<g id="edge63" class="edge">
<title>Node48&#45;&gt;Node51</title>
<path fill="none" stroke="midnightblue" d="M1054.19,-280.32C1044.64,-272.26 1030.2,-260.08 1018.69,-250.37"/>
<polygon fill="midnightblue" stroke="midnightblue" points="1020.85,-247.61 1010.95,-243.83 1016.33,-252.96 1020.85,-247.61"/>
</g>
<!-- Node52 -->
<g id="node44" class="node">
<title>Node52</title>
<g id="a_node44"><a xlink:title=" ">
<polygon fill="white" stroke="#bfbfbf" points="1130.98,-224.5 1130.98,-243.5 1201.98,-243.5 1201.98,-224.5 1130.98,-224.5"/>
<text text-anchor="middle" x="1166.48" y="-231.5" font-family="Helvetica,sans-Serif" font-size="10.00">wx/buffer.h</text>
</a>
</g>
</g>
<!-- Node48&#45;&gt;Node52 -->
<g id="edge64" class="edge">
<title>Node48&#45;&gt;Node52</title>
<path fill="none" stroke="midnightblue" d="M1080.86,-280.32C1097.15,-271.7 1122.34,-258.36 1141.19,-248.39"/>
<polygon fill="midnightblue" stroke="midnightblue" points="1142.93,-251.43 1150.13,-243.65 1139.65,-245.24 1142.93,-251.43"/>
</g>
<!-- Node53 -->
<g id="node45" class="node">
<title>Node53</title>
<g id="a_node45"><a xlink:href="nanosvg_8h_source.html" target="_top" xlink:title=" ">
<polygon fill="white" stroke="black" points="1220.48,-224.5 1220.48,-243.5 1334.48,-243.5 1334.48,-224.5 1220.48,-224.5"/>
<text text-anchor="middle" x="1277.48" y="-231.5" font-family="Helvetica,sans-Serif" font-size="10.00">nanoSVG/nanosvg.h</text>
</a>
</g>
</g>
<!-- Node48&#45;&gt;Node53 -->
<g id="edge65" class="edge">
<title>Node48&#45;&gt;Node53</title>
<path fill="none" stroke="midnightblue" d="M1092.76,-281.83C1128.91,-272.67 1191.84,-256.71 1234.07,-246"/>
<polygon fill="midnightblue" stroke="midnightblue" points="1234.97,-249.39 1243.8,-243.54 1233.25,-242.6 1234.97,-249.39"/>
</g>
<!-- Node54 -->
<g id="node46" class="node">
<title>Node54</title>
<g id="a_node46"><a xlink:href="nanosvgrast_8h_source.html" target="_top" xlink:title=" ">
<polygon fill="white" stroke="black" points="1352.98,-224.5 1352.98,-243.5 1485.98,-243.5 1485.98,-224.5 1352.98,-224.5"/>
<text text-anchor="middle" x="1419.48" y="-231.5" font-family="Helvetica,sans-Serif" font-size="10.00">nanoSVG/nanosvgrast.h</text>
</a>
</g>
</g>
<!-- Node48&#45;&gt;Node54 -->
<g id="edge66" class="edge">
<title>Node48&#45;&gt;Node54</title>
<path fill="none" stroke="midnightblue" d="M1092.89,-282.64C1097.43,-281.7 1102.07,-280.79 1106.48,-280 1186.76,-265.64 1279.26,-252.8 1342.77,-244.54"/>
<polygon fill="midnightblue" stroke="midnightblue" points="1343.24,-248.01 1352.71,-243.26 1342.34,-241.07 1343.24,-248.01"/>
</g>
<!-- Node55&#45;&gt;Node2 -->
<g id="edge69" class="edge">
<title>Node55&#45;&gt;Node2</title>
<path fill="none" stroke="midnightblue" d="M975.06,-336.43C1008.87,-328.47 1059.09,-315.51 1101.48,-300 1121.27,-292.76 1124.16,-285.6 1144.48,-280 1292.14,-239.3 1338.95,-271.88 1494.31,-243.64"/>
<polygon fill="midnightblue" stroke="midnightblue" points="1495.03,-247.07 1504.21,-241.79 1493.74,-240.19 1495.03,-247.07"/>
</g>
<!-- Node55&#45;&gt;Node12 -->
<g id="edge68" class="edge">
<title>Node55&#45;&gt;Node12</title>
<path fill="none" stroke="midnightblue" d="M903.99,-336.4C844.5,-319.11 727.97,-277.21 771.48,-224 899.76,-67.11 1020.44,-172.19 1225.29,-131.9"/>
<polygon fill="midnightblue" stroke="midnightblue" points="1226.02,-135.32 1235.11,-129.87 1224.61,-128.46 1226.02,-135.32"/>
</g>
<!-- Node55&#45;&gt;Node48 -->
<g id="edge71" class="edge">
<title>Node55&#45;&gt;Node48</title>
<path fill="none" stroke="midnightblue" d="M956.76,-336.44C977.82,-327.56 1010.99,-313.56 1034.96,-303.45"/>
<polygon fill="midnightblue" stroke="midnightblue" points="1036.44,-306.63 1044.29,-299.52 1033.72,-300.18 1036.44,-306.63"/>
</g>
<!-- Node55&#45;&gt;Node49 -->
<g id="edge70" class="edge">
<title>Node55&#45;&gt;Node49</title>
<path fill="none" stroke="midnightblue" d="M927.14,-336.37C907.07,-317.81 859.57,-273.91 834.18,-250.44"/>
<polygon fill="midnightblue" stroke="midnightblue" points="836.49,-247.81 826.77,-243.59 831.74,-252.95 836.49,-247.81"/>
</g>
<!-- Node55&#45;&gt;Node50 -->
<g id="edge72" class="edge">
<title>Node55&#45;&gt;Node50</title>
<path fill="none" stroke="midnightblue" d="M934.36,-336.37C930,-318.62 919.95,-277.67 914.04,-253.6"/>
<polygon fill="midnightblue" stroke="midnightblue" points="917.37,-252.47 911.59,-243.59 910.57,-254.14 917.37,-252.47"/>
</g>
<!-- Node55&#45;&gt;Node51 -->
<g id="edge73" class="edge">
<title>Node55&#45;&gt;Node51</title>
<path fill="none" stroke="midnightblue" d="M941.5,-336.37C952.01,-318.3 976.52,-276.18 990.41,-252.31"/>
<polygon fill="midnightblue" stroke="midnightblue" points="993.47,-254 995.48,-243.59 987.42,-250.47 993.47,-254"/>
</g>
</g>
</svg>
