<?xml version="1.0" encoding="UTF-8" standalone="no"?>
<!DOCTYPE svg PUBLIC "-//W3C//DTD SVG 1.1//EN"
 "http://www.w3.org/Graphics/SVG/1.1/DTD/svg11.dtd">
<!-- Generated by graphviz version 2.43.0 (0)
 -->
<!-- Title: src/cells/AnimationCell.h Pages: 1 -->
<svg width="2268pt" height="420pt"
 viewBox="0.00 0.00 2267.50 420.00" xmlns="http://www.w3.org/2000/svg" xmlns:xlink="http://www.w3.org/1999/xlink">
<g id="graph0" class="graph" transform="scale(1 1) rotate(0) translate(4 416)">
<title>src/cells/AnimationCell.h</title>
<polygon fill="white" stroke="transparent" points="-4,4 -4,-416 2263.5,-416 2263.5,4 -4,4"/>
<!-- Node1 -->
<g id="node1" class="node">
<title>Node1</title>
<g id="a_node1"><a xlink:title="This file declares the class AnimationCell.">
<polygon fill="#bfbfbf" stroke="black" points="1822.5,-392.5 1822.5,-411.5 1959.5,-411.5 1959.5,-392.5 1822.5,-392.5"/>
<text text-anchor="middle" x="1891" y="-399.5" font-family="Helvetica,sans-Serif" font-size="10.00">src/cells/AnimationCell.h</text>
</a>
</g>
</g>
<!-- Node2 -->
<g id="node2" class="node">
<title>Node2</title>
<g id="a_node2"><a xlink:href="Cell_8h.html" target="_top" xlink:title="The definition of the base class of all cells the worksheet consists of.">
<polygon fill="white" stroke="black" points="1506,-224.5 1506,-243.5 1550,-243.5 1550,-224.5 1506,-224.5"/>
<text text-anchor="middle" x="1528" y="-231.5" font-family="Helvetica,sans-Serif" font-size="10.00">Cell.h</text>
</a>
</g>
</g>
<!-- Node1&#45;&gt;Node2 -->
<g id="edge1" class="edge">
<title>Node1&#45;&gt;Node2</title>
<path fill="none" stroke="midnightblue" d="M1822.09,-395.64C1777.49,-390.09 1719.17,-378.83 1672,-356 1617.36,-329.56 1566.15,-277.72 1542.19,-251.31"/>
<polygon fill="midnightblue" stroke="midnightblue" points="1544.67,-248.83 1535.4,-243.69 1539.45,-253.48 1544.67,-248.83"/>
</g>
<!-- Node12 -->
<g id="node12" class="node">
<title>Node12</title>
<g id="a_node12"><a xlink:title=" ">
<polygon fill="white" stroke="#bfbfbf" points="1596,-112.5 1596,-131.5 1654,-131.5 1654,-112.5 1596,-112.5"/>
<text text-anchor="middle" x="1625" y="-119.5" font-family="Helvetica,sans-Serif" font-size="10.00">memory</text>
</a>
</g>
</g>
<!-- Node1&#45;&gt;Node12 -->
<g id="edge76" class="edge">
<title>Node1&#45;&gt;Node12</title>
<path fill="none" stroke="midnightblue" d="M1849.06,-392.43C1825.12,-385.79 1795.83,-374.51 1775,-356 1725.37,-311.88 1741.32,-279.59 1705,-224 1684.32,-192.35 1656.08,-158.48 1639.28,-139.1"/>
<polygon fill="midnightblue" stroke="midnightblue" points="1641.85,-136.73 1632.63,-131.51 1636.58,-141.34 1641.85,-136.73"/>
</g>
<!-- Node40 -->
<g id="node27" class="node">
<title>Node40</title>
<g id="a_node27"><a xlink:title=" ">
<polygon fill="white" stroke="#bfbfbf" points="66.5,-112.5 66.5,-131.5 113.5,-131.5 113.5,-112.5 66.5,-112.5"/>
<text text-anchor="middle" x="90" y="-119.5" font-family="Helvetica,sans-Serif" font-size="10.00">vector</text>
</a>
</g>
</g>
<!-- Node1&#45;&gt;Node40 -->
<g id="edge82" class="edge">
<title>Node1&#45;&gt;Node40</title>
<path fill="none" stroke="midnightblue" d="M1822.3,-400.67C1482.75,-398.59 0,-384.18 0,-291 0,-291 0,-291 0,-233 0,-190.66 40.44,-155.66 67.1,-137.18"/>
<polygon fill="midnightblue" stroke="midnightblue" points="69.16,-140.02 75.54,-131.56 65.28,-134.19 69.16,-140.02"/>
</g>
<!-- Node49 -->
<g id="node37" class="node">
<title>Node49</title>
<g id="a_node37"><a xlink:href="Image_8h.html" target="_top" xlink:title="This file declares the class Image.">
<polygon fill="white" stroke="black" points="1282,-280.5 1282,-299.5 1338,-299.5 1338,-280.5 1282,-280.5"/>
<text text-anchor="middle" x="1310" y="-287.5" font-family="Helvetica,sans-Serif" font-size="10.00">Image.h</text>
</a>
</g>
</g>
<!-- Node1&#45;&gt;Node49 -->
<g id="edge55" class="edge">
<title>Node1&#45;&gt;Node49</title>
<path fill="none" stroke="midnightblue" d="M1822.34,-393.27C1757.91,-385.54 1659,-372.45 1574,-356 1492.93,-340.31 1399.37,-315.71 1348.25,-301.7"/>
<polygon fill="midnightblue" stroke="midnightblue" points="1348.88,-298.24 1338.31,-298.96 1347.02,-304.99 1348.88,-298.24"/>
</g>
<!-- Node52 -->
<g id="node40" class="node">
<title>Node52</title>
<g id="a_node40"><a xlink:title=" ">
<polygon fill="white" stroke="#bfbfbf" points="1855,-224.5 1855,-243.5 1929,-243.5 1929,-224.5 1855,-224.5"/>
<text text-anchor="middle" x="1892" y="-231.5" font-family="Helvetica,sans-Serif" font-size="10.00">wx/image.h</text>
</a>
</g>
</g>
<!-- Node1&#45;&gt;Node52 -->
<g id="edge77" class="edge">
<title>Node1&#45;&gt;Node52</title>
<path fill="none" stroke="midnightblue" d="M1959.84,-396.54C1987.49,-390.95 2016.83,-379.4 2034,-356 2053.98,-328.77 2053.95,-307.25 2034,-280 2012.5,-250.63 1971.71,-239.95 1939.34,-236.29"/>
<polygon fill="midnightblue" stroke="midnightblue" points="1939.45,-232.79 1929.17,-235.33 1938.79,-239.75 1939.45,-232.79"/>
</g>
<!-- Node55 -->
<g id="node43" class="node">
<title>Node55</title>
<g id="a_node43"><a xlink:title=" ">
<polygon fill="white" stroke="#bfbfbf" points="1606.5,-224.5 1606.5,-243.5 1695.5,-243.5 1695.5,-224.5 1606.5,-224.5"/>
<text text-anchor="middle" x="1651" y="-231.5" font-family="Helvetica,sans-Serif" font-size="10.00">wx/wfstream.h</text>
</a>
</g>
</g>
<!-- Node1&#45;&gt;Node55 -->
<g id="edge81" class="edge">
<title>Node1&#45;&gt;Node55</title>
<path fill="none" stroke="midnightblue" d="M1909.57,-392.43C1949.83,-372.75 2038.6,-322.74 2001,-280 1981.84,-258.22 1799.45,-244.04 1705.85,-238.13"/>
<polygon fill="midnightblue" stroke="midnightblue" points="1705.91,-234.63 1695.71,-237.5 1705.47,-241.61 1705.91,-234.63"/>
</g>
<!-- Node58 -->
<g id="node46" class="node">
<title>Node58</title>
<g id="a_node46"><a xlink:href="ImgCellBase_8h_source.html" target="_top" xlink:title=" ">
<polygon fill="white" stroke="black" points="1783.5,-336.5 1783.5,-355.5 1870.5,-355.5 1870.5,-336.5 1783.5,-336.5"/>
<text text-anchor="middle" x="1827" y="-343.5" font-family="Helvetica,sans-Serif" font-size="10.00">ImgCellBase.h</text>
</a>
</g>
</g>
<!-- Node1&#45;&gt;Node58 -->
<g id="edge69" class="edge">
<title>Node1&#45;&gt;Node58</title>
<path fill="none" stroke="midnightblue" d="M1880.72,-392.32C1871.16,-384.26 1856.72,-372.08 1845.22,-362.37"/>
<polygon fill="midnightblue" stroke="midnightblue" points="1847.37,-359.61 1837.47,-355.83 1842.86,-364.96 1847.37,-359.61"/>
</g>
<!-- Node60 -->
<g id="node48" class="node">
<title>Node60</title>
<g id="a_node48"><a xlink:title=" ">
<polygon fill="white" stroke="#bfbfbf" points="1920,-280.5 1920,-299.5 1992,-299.5 1992,-280.5 1920,-280.5"/>
<text text-anchor="middle" x="1956" y="-287.5" font-family="Helvetica,sans-Serif" font-size="10.00">wx/fs_arc.h</text>
</a>
</g>
</g>
<!-- Node1&#45;&gt;Node60 -->
<g id="edge79" class="edge">
<title>Node1&#45;&gt;Node60</title>
<path fill="none" stroke="midnightblue" d="M1896.1,-392.37C1906.78,-374.3 1931.67,-332.18 1945.77,-308.31"/>
<polygon fill="midnightblue" stroke="midnightblue" points="1948.85,-309.98 1950.92,-299.59 1942.82,-306.42 1948.85,-309.98"/>
</g>
<!-- Node61 -->
<g id="node49" class="node">
<title>Node61</title>
<g id="a_node49"><a xlink:title=" ">
<polygon fill="white" stroke="#bfbfbf" points="2086,-336.5 2086,-355.5 2154,-355.5 2154,-336.5 2086,-336.5"/>
<text text-anchor="middle" x="2120" y="-343.5" font-family="Helvetica,sans-Serif" font-size="10.00">wx/timer.h</text>
</a>
</g>
</g>
<!-- Node1&#45;&gt;Node61 -->
<g id="edge78" class="edge">
<title>Node1&#45;&gt;Node61</title>
<path fill="none" stroke="midnightblue" d="M1927.29,-392.44C1967.57,-382.94 2032.59,-367.61 2075.8,-357.42"/>
<polygon fill="midnightblue" stroke="midnightblue" points="2076.82,-360.78 2085.75,-355.08 2075.22,-353.96 2076.82,-360.78"/>
</g>
<!-- Node62 -->
<g id="node50" class="node">
<title>Node62</title>
<g id="a_node50"><a xlink:title=" ">
<polygon fill="white" stroke="#bfbfbf" points="2172.5,-336.5 2172.5,-355.5 2259.5,-355.5 2259.5,-336.5 2172.5,-336.5"/>
<text text-anchor="middle" x="2216" y="-343.5" font-family="Helvetica,sans-Serif" font-size="10.00">wx/mstream.h</text>
</a>
</g>
</g>
<!-- Node1&#45;&gt;Node62 -->
<g id="edge80" class="edge">
<title>Node1&#45;&gt;Node62</title>
<path fill="none" stroke="midnightblue" d="M1942.9,-392.48C1995.51,-383.83 2079.53,-369.97 2162.25,-356.12"/>
<polygon fill="midnightblue" stroke="midnightblue" points="2163.05,-359.54 2172.33,-354.43 2161.89,-352.63 2163.05,-359.54"/>
</g>
<!-- Node3 -->
<g id="node3" class="node">
<title>Node3</title>
<g id="a_node3"><a xlink:href="precomp_8h_source.html" target="_top" xlink:title=" ">
<polygon fill="white" stroke="black" points="1092.5,-56.5 1092.5,-75.5 1169.5,-75.5 1169.5,-56.5 1092.5,-56.5"/>
<text text-anchor="middle" x="1131" y="-63.5" font-family="Helvetica,sans-Serif" font-size="10.00">../precomp.h</text>
</a>
</g>
</g>
<!-- Node2&#45;&gt;Node3 -->
<g id="edge2" class="edge">
<title>Node2&#45;&gt;Node3</title>
<path fill="none" stroke="midnightblue" d="M1505.88,-229.77C1446.45,-220.98 1287.29,-196.73 1280,-188 1257.03,-160.48 1328.98,-140.31 1307,-112 1291.46,-91.98 1226.07,-79.36 1179.54,-72.74"/>
<polygon fill="midnightblue" stroke="midnightblue" points="1180.02,-69.28 1169.63,-71.38 1179.06,-76.21 1180.02,-69.28"/>
</g>
<!-- Node4 -->
<g id="node4" class="node">
<title>Node4</title>
<g id="a_node4"><a xlink:href="Version_8h_source.html" target="_top" xlink:title=" ">
<polygon fill="white" stroke="black" points="1100,-0.5 1100,-19.5 1162,-19.5 1162,-0.5 1100,-0.5"/>
<text text-anchor="middle" x="1131" y="-7.5" font-family="Helvetica,sans-Serif" font-size="10.00">Version.h</text>
</a>
</g>
</g>
<!-- Node2&#45;&gt;Node4 -->
<g id="edge4" class="edge">
<title>Node2&#45;&gt;Node4</title>
<path fill="none" stroke="midnightblue" d="M1505.75,-229.12C1452.02,-219.64 1319.13,-195.55 1313,-188 1307.4,-181.1 1311.69,-176.79 1313,-168 1316.75,-142.91 1329.65,-136.73 1324,-112 1317.85,-85.06 1318.25,-73.65 1297,-56 1261.67,-26.65 1208.87,-16.33 1172.34,-12.76"/>
<polygon fill="midnightblue" stroke="midnightblue" points="1172.29,-9.24 1162.04,-11.89 1171.7,-16.22 1172.29,-9.24"/>
</g>
<!-- Node5 -->
<g id="node5" class="node">
<title>Node5</title>
<g id="a_node5"><a xlink:href="CellPtr_8h.html" target="_top" xlink:title="Implementation of an observing weak Cell pointer.">
<polygon fill="white" stroke="black" points="1813.5,-168.5 1813.5,-187.5 1870.5,-187.5 1870.5,-168.5 1813.5,-168.5"/>
<text text-anchor="middle" x="1842" y="-175.5" font-family="Helvetica,sans-Serif" font-size="10.00">CellPtr.h</text>
</a>
</g>
</g>
<!-- Node2&#45;&gt;Node5 -->
<g id="edge5" class="edge">
<title>Node2&#45;&gt;Node5</title>
<path fill="none" stroke="midnightblue" d="M1550.08,-229.2C1602.82,-220.13 1736.66,-197.12 1803.21,-185.67"/>
<polygon fill="midnightblue" stroke="midnightblue" points="1804.03,-189.08 1813.29,-183.94 1802.84,-182.18 1804.03,-189.08"/>
</g>
<!-- Node2&#45;&gt;Node12 -->
<g id="edge52" class="edge">
<title>Node2&#45;&gt;Node12</title>
<path fill="none" stroke="midnightblue" d="M1550.11,-226.27C1577.01,-217.58 1619.96,-201.93 1629,-188 1637.84,-174.38 1635.5,-155.59 1631.75,-141.71"/>
<polygon fill="midnightblue" stroke="midnightblue" points="1634.97,-140.3 1628.62,-131.83 1628.3,-142.42 1634.97,-140.3"/>
</g>
<!-- Node13 -->
<g id="node13" class="node">
<title>Node13</title>
<g id="a_node13"><a xlink:title=" ">
<polygon fill="white" stroke="#bfbfbf" points="2054.5,-112.5 2054.5,-131.5 2123.5,-131.5 2123.5,-112.5 2054.5,-112.5"/>
<text text-anchor="middle" x="2089" y="-119.5" font-family="Helvetica,sans-Serif" font-size="10.00">type_traits</text>
</a>
</g>
</g>
<!-- Node2&#45;&gt;Node13 -->
<g id="edge54" class="edge">
<title>Node2&#45;&gt;Node13</title>
<path fill="none" stroke="midnightblue" d="M1550.05,-229.97C1563.82,-228.12 1581.92,-225.78 1598,-224 1769.25,-205.01 1820.65,-242.8 1984,-188 2001.47,-182.14 2042.82,-154.84 2068.1,-137.54"/>
<polygon fill="midnightblue" stroke="midnightblue" points="2070.37,-140.23 2076.62,-131.68 2066.4,-134.47 2070.37,-140.23"/>
</g>
<!-- Node14 -->
<g id="node14" class="node">
<title>Node14</title>
<g id="a_node14"><a xlink:href="CellIterators_8h.html" target="_top" xlink:title="Declares the various iterators useful with the Cell class.">
<polygon fill="white" stroke="black" points="1889,-168.5 1889,-187.5 1975,-187.5 1975,-168.5 1889,-168.5"/>
<text text-anchor="middle" x="1932" y="-175.5" font-family="Helvetica,sans-Serif" font-size="10.00">CellIterators.h</text>
</a>
</g>
</g>
<!-- Node2&#45;&gt;Node14 -->
<g id="edge14" class="edge">
<title>Node2&#45;&gt;Node14</title>
<path fill="none" stroke="midnightblue" d="M1550.07,-230.16C1563.85,-228.38 1581.96,-226.06 1598,-224 1720.14,-208.35 1753.38,-206.85 1878.89,-188.11"/>
<polygon fill="midnightblue" stroke="midnightblue" points="1879.52,-191.56 1888.89,-186.61 1878.49,-184.63 1879.52,-191.56"/>
</g>
<!-- Node15 -->
<g id="node15" class="node">
<title>Node15</title>
<g id="a_node15"><a xlink:href="Configuration_8h_source.html" target="_top" xlink:title=" ">
<polygon fill="white" stroke="black" points="640.5,-168.5 640.5,-187.5 731.5,-187.5 731.5,-168.5 640.5,-168.5"/>
<text text-anchor="middle" x="686" y="-175.5" font-family="Helvetica,sans-Serif" font-size="10.00">Configuration.h</text>
</a>
</g>
</g>
<!-- Node2&#45;&gt;Node15 -->
<g id="edge18" class="edge">
<title>Node2&#45;&gt;Node15</title>
<path fill="none" stroke="midnightblue" d="M1505.96,-229.33C1494.14,-227.48 1479.31,-225.35 1466,-224 1195.6,-196.63 870.65,-184.54 742.19,-180.57"/>
<polygon fill="midnightblue" stroke="midnightblue" points="741.93,-177.06 731.83,-180.26 741.72,-184.06 741.93,-177.06"/>
</g>
<!-- Node23 -->
<g id="node22" class="node">
<title>Node23</title>
<g id="a_node22"><a xlink:href="TextStyle_8h.html" target="_top" xlink:title="This file declares everything needed for the text style system used to style all the elements on the ...">
<polygon fill="white" stroke="red" points="993.5,-112.5 993.5,-131.5 1064.5,-131.5 1064.5,-112.5 993.5,-112.5"/>
<text text-anchor="middle" x="1029" y="-119.5" font-family="Helvetica,sans-Serif" font-size="10.00">TextStyle.h</text>
</a>
</g>
</g>
<!-- Node2&#45;&gt;Node23 -->
<g id="edge44" class="edge">
<title>Node2&#45;&gt;Node23</title>
<path fill="none" stroke="midnightblue" d="M1505.66,-229.67C1442.86,-220.28 1267.66,-193.9 1242,-188 1177.6,-173.19 1104.26,-149.18 1062.61,-134.86"/>
<polygon fill="midnightblue" stroke="midnightblue" points="1063.57,-131.49 1052.98,-131.53 1061.28,-138.1 1063.57,-131.49"/>
</g>
<!-- Node2&#45;&gt;Node40 -->
<g id="edge53" class="edge">
<title>Node2&#45;&gt;Node40</title>
<path fill="none" stroke="midnightblue" d="M1505.97,-229.2C1494.16,-227.31 1479.33,-225.19 1466,-224 988.51,-181.5 863.88,-245.78 388,-188 290.71,-176.19 178.34,-147.48 123.55,-132.48"/>
<polygon fill="midnightblue" stroke="midnightblue" points="124.26,-129.05 113.69,-129.76 122.4,-135.8 124.26,-129.05"/>
</g>
<!-- Node43 -->
<g id="node30" class="node">
<title>Node43</title>
<g id="a_node30"><a xlink:href="StringUtils_8h_source.html" target="_top" xlink:title=" ">
<polygon fill="white" stroke="black" points="1322.5,-168.5 1322.5,-187.5 1399.5,-187.5 1399.5,-168.5 1322.5,-168.5"/>
<text text-anchor="middle" x="1361" y="-175.5" font-family="Helvetica,sans-Serif" font-size="10.00">StringUtils.h</text>
</a>
</g>
</g>
<!-- Node2&#45;&gt;Node43 -->
<g id="edge41" class="edge">
<title>Node2&#45;&gt;Node43</title>
<path fill="none" stroke="midnightblue" d="M1505.82,-225.83C1478.08,-216.86 1430.22,-201.38 1397.15,-190.69"/>
<polygon fill="midnightblue" stroke="midnightblue" points="1397.99,-187.28 1387.4,-187.54 1395.84,-193.94 1397.99,-187.28"/>
</g>
<!-- Node46 -->
<g id="node33" class="node">
<title>Node46</title>
<g id="a_node33"><a xlink:href="CachedValue_8h.html" target="_top" xlink:title="Declares &quot;mostly read&#45;only&quot; wrappers around values that are expensive to compute and are thus cached.">
<polygon fill="white" stroke="red" points="2031.5,-168.5 2031.5,-187.5 2144.5,-187.5 2144.5,-168.5 2031.5,-168.5"/>
<text text-anchor="middle" x="2088" y="-175.5" font-family="Helvetica,sans-Serif" font-size="10.00">utils/CachedValue.h</text>
</a>
</g>
</g>
<!-- Node2&#45;&gt;Node46 -->
<g id="edge45" class="edge">
<title>Node2&#45;&gt;Node46</title>
<path fill="none" stroke="midnightblue" d="M1550.04,-229.92C1563.81,-228.06 1581.92,-225.72 1598,-224 1783.84,-204.08 1831.14,-207.76 2017,-188 2018.47,-187.84 2019.95,-187.68 2021.45,-187.52"/>
<polygon fill="midnightblue" stroke="midnightblue" points="2021.9,-190.99 2031.44,-186.38 2021.11,-184.03 2021.9,-190.99"/>
</g>
<!-- Node47 -->
<g id="node34" class="node">
<title>Node47</title>
<g id="a_node34"><a xlink:title=" ">
<polygon fill="white" stroke="#bfbfbf" points="1418,-168.5 1418,-187.5 1482,-187.5 1482,-168.5 1418,-168.5"/>
<text text-anchor="middle" x="1450" y="-175.5" font-family="Helvetica,sans-Serif" font-size="10.00">wx/defs.h</text>
</a>
</g>
</g>
<!-- Node2&#45;&gt;Node47 -->
<g id="edge49" class="edge">
<title>Node2&#45;&gt;Node47</title>
<path fill="none" stroke="midnightblue" d="M1515.47,-224.32C1503.41,-215.98 1484.97,-203.21 1470.73,-193.35"/>
<polygon fill="midnightblue" stroke="midnightblue" points="1472.72,-190.47 1462.5,-187.65 1468.73,-196.22 1472.72,-190.47"/>
</g>
<!-- Node33 -->
<g id="node35" class="node">
<title>Node33</title>
<g id="a_node35"><a xlink:title=" ">
<polygon fill="white" stroke="#bfbfbf" points="1500,-168.5 1500,-187.5 1564,-187.5 1564,-168.5 1500,-168.5"/>
<text text-anchor="middle" x="1532" y="-175.5" font-family="Helvetica,sans-Serif" font-size="10.00">algorithm</text>
</a>
</g>
</g>
<!-- Node2&#45;&gt;Node33 -->
<g id="edge50" class="edge">
<title>Node2&#45;&gt;Node33</title>
<path fill="none" stroke="midnightblue" d="M1528.66,-224.08C1529.18,-217.01 1529.94,-206.86 1530.59,-197.99"/>
<polygon fill="midnightblue" stroke="midnightblue" points="1534.1,-197.98 1531.35,-187.75 1527.12,-197.47 1534.1,-197.98"/>
</g>
<!-- Node48 -->
<g id="node36" class="node">
<title>Node48</title>
<g id="a_node36"><a xlink:title=" ">
<polygon fill="white" stroke="#bfbfbf" points="1582,-168.5 1582,-187.5 1620,-187.5 1620,-168.5 1582,-168.5"/>
<text text-anchor="middle" x="1601" y="-175.5" font-family="Helvetica,sans-Serif" font-size="10.00">map</text>
</a>
</g>
</g>
<!-- Node2&#45;&gt;Node48 -->
<g id="edge51" class="edge">
<title>Node2&#45;&gt;Node48</title>
<path fill="none" stroke="midnightblue" d="M1539.73,-224.32C1550.84,-216.11 1567.74,-203.6 1580.98,-193.81"/>
<polygon fill="midnightblue" stroke="midnightblue" points="1583.1,-196.59 1589.06,-187.83 1578.94,-190.97 1583.1,-196.59"/>
</g>
<!-- Node3&#45;&gt;Node4 -->
<g id="edge3" class="edge">
<title>Node3&#45;&gt;Node4</title>
<path fill="none" stroke="midnightblue" d="M1131,-56.08C1131,-49.01 1131,-38.86 1131,-29.99"/>
<polygon fill="midnightblue" stroke="midnightblue" points="1134.5,-29.75 1131,-19.75 1127.5,-29.75 1134.5,-29.75"/>
</g>
<!-- Node6 -->
<g id="node6" class="node">
<title>Node6</title>
<g id="a_node6"><a xlink:title=" ">
<polygon fill="white" stroke="#bfbfbf" points="1963.5,-112.5 1963.5,-131.5 2036.5,-131.5 2036.5,-112.5 1963.5,-112.5"/>
<text text-anchor="middle" x="2000" y="-119.5" font-family="Helvetica,sans-Serif" font-size="10.00">wx/debug.h</text>
</a>
</g>
</g>
<!-- Node5&#45;&gt;Node6 -->
<g id="edge6" class="edge">
<title>Node5&#45;&gt;Node6</title>
<path fill="none" stroke="midnightblue" d="M1867.04,-168.44C1893.62,-159.36 1935.81,-144.94 1965.52,-134.78"/>
<polygon fill="midnightblue" stroke="midnightblue" points="1966.75,-138.06 1975.08,-131.52 1964.49,-131.44 1966.75,-138.06"/>
</g>
<!-- Node7 -->
<g id="node7" class="node">
<title>Node7</title>
<g id="a_node7"><a xlink:title=" ">
<polygon fill="white" stroke="#bfbfbf" points="1906,-56.5 1906,-75.5 1964,-75.5 1964,-56.5 1906,-56.5"/>
<text text-anchor="middle" x="1935" y="-63.5" font-family="Helvetica,sans-Serif" font-size="10.00">wx/log.h</text>
</a>
</g>
</g>
<!-- Node5&#45;&gt;Node7 -->
<g id="edge7" class="edge">
<title>Node5&#45;&gt;Node7</title>
<path fill="none" stroke="midnightblue" d="M1861.74,-168.41C1877.09,-160.83 1897.89,-148.44 1911,-132 1921.77,-118.49 1928.01,-99.69 1931.41,-85.78"/>
<polygon fill="midnightblue" stroke="midnightblue" points="1934.86,-86.38 1933.57,-75.86 1928.02,-84.89 1934.86,-86.38"/>
</g>
<!-- Node8 -->
<g id="node8" class="node">
<title>Node8</title>
<g id="a_node8"><a xlink:title=" ">
<polygon fill="white" stroke="#bfbfbf" points="1752.5,-112.5 1752.5,-131.5 1797.5,-131.5 1797.5,-112.5 1752.5,-112.5"/>
<text text-anchor="middle" x="1775" y="-119.5" font-family="Helvetica,sans-Serif" font-size="10.00">utility</text>
</a>
</g>
</g>
<!-- Node5&#45;&gt;Node8 -->
<g id="edge8" class="edge">
<title>Node5&#45;&gt;Node8</title>
<path fill="none" stroke="midnightblue" d="M1831.24,-168.32C1821.23,-160.26 1806.11,-148.08 1794.07,-138.37"/>
<polygon fill="midnightblue" stroke="midnightblue" points="1795.94,-135.38 1785.96,-131.83 1791.55,-140.83 1795.94,-135.38"/>
</g>
<!-- Node9 -->
<g id="node9" class="node">
<title>Node9</title>
<g id="a_node9"><a xlink:title=" ">
<polygon fill="white" stroke="#bfbfbf" points="1815.5,-112.5 1815.5,-131.5 1868.5,-131.5 1868.5,-112.5 1815.5,-112.5"/>
<text text-anchor="middle" x="1842" y="-119.5" font-family="Helvetica,sans-Serif" font-size="10.00">cstddef</text>
</a>
</g>
</g>
<!-- Node5&#45;&gt;Node9 -->
<g id="edge9" class="edge">
<title>Node5&#45;&gt;Node9</title>
<path fill="none" stroke="midnightblue" d="M1842,-168.08C1842,-161.01 1842,-150.86 1842,-141.99"/>
<polygon fill="midnightblue" stroke="midnightblue" points="1845.5,-141.75 1842,-131.75 1838.5,-141.75 1845.5,-141.75"/>
</g>
<!-- Node10 -->
<g id="node10" class="node">
<title>Node10</title>
<g id="a_node10"><a xlink:title=" ">
<polygon fill="white" stroke="#bfbfbf" points="1238,-56.5 1238,-75.5 1288,-75.5 1288,-56.5 1238,-56.5"/>
<text text-anchor="middle" x="1263" y="-63.5" font-family="Helvetica,sans-Serif" font-size="10.00">cstdint</text>
</a>
</g>
</g>
<!-- Node5&#45;&gt;Node10 -->
<g id="edge10" class="edge">
<title>Node5&#45;&gt;Node10</title>
<path fill="none" stroke="midnightblue" d="M1853.03,-168.38C1868.77,-155.08 1894.07,-129.29 1878,-112 1838.43,-69.43 1423.41,-66.7 1298.42,-66.85"/>
<polygon fill="midnightblue" stroke="midnightblue" points="1298.24,-63.35 1288.25,-66.87 1298.26,-70.35 1298.24,-63.35"/>
</g>
<!-- Node11 -->
<g id="node11" class="node">
<title>Node11</title>
<g id="a_node11"><a xlink:title=" ">
<polygon fill="white" stroke="#bfbfbf" points="1672,-112.5 1672,-131.5 1734,-131.5 1734,-112.5 1672,-112.5"/>
<text text-anchor="middle" x="1703" y="-119.5" font-family="Helvetica,sans-Serif" font-size="10.00">cinttypes</text>
</a>
</g>
</g>
<!-- Node5&#45;&gt;Node11 -->
<g id="edge11" class="edge">
<title>Node5&#45;&gt;Node11</title>
<path fill="none" stroke="midnightblue" d="M1819.98,-168.44C1796.9,-159.48 1760.44,-145.31 1734.36,-135.18"/>
<polygon fill="midnightblue" stroke="midnightblue" points="1735.51,-131.88 1724.92,-131.52 1732.98,-138.4 1735.51,-131.88"/>
</g>
<!-- Node5&#45;&gt;Node12 -->
<g id="edge12" class="edge">
<title>Node5&#45;&gt;Node12</title>
<path fill="none" stroke="midnightblue" d="M1813.18,-169.83C1774.87,-160.29 1707,-143.41 1664.09,-132.73"/>
<polygon fill="midnightblue" stroke="midnightblue" points="1664.83,-129.31 1654.28,-130.29 1663.14,-136.1 1664.83,-129.31"/>
</g>
<!-- Node5&#45;&gt;Node13 -->
<g id="edge13" class="edge">
<title>Node5&#45;&gt;Node13</title>
<path fill="none" stroke="midnightblue" d="M1870.62,-170.16C1873.78,-169.42 1876.96,-168.69 1880,-168 1910.72,-161.06 1992.54,-143.55 2044.22,-132.53"/>
<polygon fill="midnightblue" stroke="midnightblue" points="2045.08,-135.92 2054.13,-130.42 2043.62,-129.08 2045.08,-135.92"/>
</g>
<!-- Node14&#45;&gt;Node6 -->
<g id="edge15" class="edge">
<title>Node14&#45;&gt;Node6</title>
<path fill="none" stroke="midnightblue" d="M1942.93,-168.32C1953.17,-160.18 1968.72,-147.84 1981,-138.09"/>
<polygon fill="midnightblue" stroke="midnightblue" points="1983.22,-140.79 1988.88,-131.83 1978.87,-135.31 1983.22,-140.79"/>
</g>
<!-- Node14&#45;&gt;Node12 -->
<g id="edge16" class="edge">
<title>Node14&#45;&gt;Node12</title>
<path fill="none" stroke="midnightblue" d="M1888.87,-169.51C1885.87,-169 1882.89,-168.49 1880,-168 1786.72,-152.19 1760.51,-151.32 1663.89,-132.07"/>
<polygon fill="midnightblue" stroke="midnightblue" points="1664.49,-128.62 1654,-130.08 1663.12,-135.48 1664.49,-128.62"/>
</g>
<!-- Node14&#45;&gt;Node13 -->
<g id="edge17" class="edge">
<title>Node14&#45;&gt;Node13</title>
<path fill="none" stroke="midnightblue" d="M1956.88,-168.44C1983.29,-159.36 2025.22,-144.94 2054.74,-134.78"/>
<polygon fill="midnightblue" stroke="midnightblue" points="2055.92,-138.08 2064.24,-131.52 2053.64,-131.46 2055.92,-138.08"/>
</g>
<!-- Node15&#45;&gt;Node3 -->
<g id="edge19" class="edge">
<title>Node15&#45;&gt;Node3</title>
<path fill="none" stroke="midnightblue" d="M731.82,-175.72C821.06,-172.57 1014.55,-162.36 1073,-132 1093.9,-121.15 1110.83,-99.45 1120.89,-84.12"/>
<polygon fill="midnightblue" stroke="midnightblue" points="1123.91,-85.88 1126.24,-75.55 1117.97,-82.18 1123.91,-85.88"/>
</g>
<!-- Node15&#45;&gt;Node12 -->
<g id="edge33" class="edge">
<title>Node15&#45;&gt;Node12</title>
<path fill="none" stroke="midnightblue" d="M731.75,-177.65C863.27,-178.9 1253.65,-178.25 1585.35,-131.97"/>
<polygon fill="midnightblue" stroke="midnightblue" points="1586.23,-135.38 1595.64,-130.51 1585.25,-128.45 1586.23,-135.38"/>
</g>
<!-- Node16 -->
<g id="node16" class="node">
<title>Node16</title>
<g id="a_node16"><a xlink:title=" ">
<polygon fill="white" stroke="#bfbfbf" points="236.5,-112.5 236.5,-131.5 293.5,-131.5 293.5,-112.5 236.5,-112.5"/>
<text text-anchor="middle" x="265" y="-119.5" font-family="Helvetica,sans-Serif" font-size="10.00">wx/wx.h</text>
</a>
</g>
</g>
<!-- Node15&#45;&gt;Node16 -->
<g id="edge20" class="edge">
<title>Node15&#45;&gt;Node16</title>
<path fill="none" stroke="midnightblue" d="M640.22,-173.45C569.8,-167.6 430.54,-154.45 303.51,-132.09"/>
<polygon fill="midnightblue" stroke="midnightblue" points="304.07,-128.64 293.61,-130.32 302.84,-135.53 304.07,-128.64"/>
</g>
<!-- Node17 -->
<g id="node17" class="node">
<title>Node17</title>
<g id="a_node17"><a xlink:title=" ">
<polygon fill="white" stroke="#bfbfbf" points="794,-56.5 794,-75.5 866,-75.5 866,-56.5 794,-56.5"/>
<text text-anchor="middle" x="830" y="-63.5" font-family="Helvetica,sans-Serif" font-size="10.00">wx/config.h</text>
</a>
</g>
</g>
<!-- Node15&#45;&gt;Node17 -->
<g id="edge21" class="edge">
<title>Node15&#45;&gt;Node17</title>
<path fill="none" stroke="midnightblue" d="M675.09,-168.49C659.84,-155.55 635.55,-130.51 650,-112 666.3,-91.13 735.92,-78.5 783.64,-72.14"/>
<polygon fill="midnightblue" stroke="midnightblue" points="784.29,-75.59 793.77,-70.84 783.4,-68.64 784.29,-75.59"/>
</g>
<!-- Node18 -->
<g id="node18" class="node">
<title>Node18</title>
<g id="a_node18"><a xlink:title=" ">
<polygon fill="white" stroke="#bfbfbf" points="311.5,-112.5 311.5,-131.5 388.5,-131.5 388.5,-112.5 311.5,-112.5"/>
<text text-anchor="middle" x="350" y="-119.5" font-family="Helvetica,sans-Serif" font-size="10.00">wx/display.h</text>
</a>
</g>
</g>
<!-- Node15&#45;&gt;Node18 -->
<g id="edge22" class="edge">
<title>Node15&#45;&gt;Node18</title>
<path fill="none" stroke="midnightblue" d="M640.04,-170.26C585.14,-162.11 490.25,-147.71 398.74,-132.08"/>
<polygon fill="midnightblue" stroke="midnightblue" points="399.2,-128.61 388.75,-130.37 398.02,-135.51 399.2,-128.61"/>
</g>
<!-- Node19 -->
<g id="node19" class="node">
<title>Node19</title>
<g id="a_node19"><a xlink:title=" ">
<polygon fill="white" stroke="#bfbfbf" points="407,-112.5 407,-131.5 497,-131.5 497,-112.5 407,-112.5"/>
<text text-anchor="middle" x="452" y="-119.5" font-family="Helvetica,sans-Serif" font-size="10.00">wx/fontenum.h</text>
</a>
</g>
</g>
<!-- Node15&#45;&gt;Node19 -->
<g id="edge23" class="edge">
<title>Node15&#45;&gt;Node19</title>
<path fill="none" stroke="midnightblue" d="M648.92,-168.44C608.27,-159.06 542.97,-143.99 498.82,-133.8"/>
<polygon fill="midnightblue" stroke="midnightblue" points="499.44,-130.35 488.9,-131.52 497.86,-137.18 499.44,-130.35"/>
</g>
<!-- Node20 -->
<g id="node20" class="node">
<title>Node20</title>
<g id="a_node20"><a xlink:title=" ">
<polygon fill="white" stroke="#bfbfbf" points="515,-112.5 515,-131.5 603,-131.5 603,-112.5 515,-112.5"/>
<text text-anchor="middle" x="559" y="-119.5" font-family="Helvetica,sans-Serif" font-size="10.00">wx/hashmap.h</text>
</a>
</g>
</g>
<!-- Node15&#45;&gt;Node20 -->
<g id="edge24" class="edge">
<title>Node15&#45;&gt;Node20</title>
<path fill="none" stroke="midnightblue" d="M665.88,-168.44C644.98,-159.56 612.07,-145.56 588.28,-135.45"/>
<polygon fill="midnightblue" stroke="midnightblue" points="589.6,-132.21 579.03,-131.52 586.86,-138.65 589.6,-132.21"/>
</g>
<!-- Node21 -->
<g id="node21" class="node">
<title>Node21</title>
<g id="a_node21"><a xlink:href="LoggingMessageDialog_8h.html" target="_top" xlink:title="This file declares a message dialog that sends its contents to the log message sink.">
<polygon fill="white" stroke="red" points="1159.5,-112.5 1159.5,-131.5 1298.5,-131.5 1298.5,-112.5 1159.5,-112.5"/>
<text text-anchor="middle" x="1229" y="-119.5" font-family="Helvetica,sans-Serif" font-size="10.00">LoggingMessageDialog.h</text>
</a>
</g>
</g>
<!-- Node15&#45;&gt;Node21 -->
<g id="edge25" class="edge">
<title>Node15&#45;&gt;Node21</title>
<path fill="none" stroke="midnightblue" d="M731.83,-172.44C824.16,-163.26 1033.55,-142.44 1148.96,-130.96"/>
<polygon fill="midnightblue" stroke="midnightblue" points="1149.54,-134.42 1159.15,-129.95 1148.85,-127.45 1149.54,-134.42"/>
</g>
<!-- Node15&#45;&gt;Node23 -->
<g id="edge28" class="edge">
<title>Node15&#45;&gt;Node23</title>
<path fill="none" stroke="midnightblue" d="M731.55,-170.81C788.1,-162.97 887.74,-148.66 983.06,-132.09"/>
<polygon fill="midnightblue" stroke="midnightblue" points="983.92,-135.5 993.17,-130.33 982.71,-128.6 983.92,-135.5"/>
</g>
<!-- Node37 -->
<g id="node23" class="node">
<title>Node37</title>
<g id="a_node23"><a xlink:title=" ">
<polygon fill="white" stroke="#bfbfbf" points="421.5,-56.5 421.5,-75.5 514.5,-75.5 514.5,-56.5 421.5,-56.5"/>
<text text-anchor="middle" x="468" y="-63.5" font-family="Helvetica,sans-Serif" font-size="10.00">unordered_map</text>
</a>
</g>
</g>
<!-- Node15&#45;&gt;Node37 -->
<g id="edge35" class="edge">
<title>Node15&#45;&gt;Node37</title>
<path fill="none" stroke="midnightblue" d="M640.25,-174.16C526.83,-166.91 240.78,-147.2 227,-132 221.03,-125.42 221.32,-118.84 227,-112 249.93,-84.4 347.2,-73.63 410.94,-69.5"/>
<polygon fill="midnightblue" stroke="midnightblue" points="411.49,-72.97 421.26,-68.87 411.06,-65.99 411.49,-72.97"/>
</g>
<!-- Node38 -->
<g id="node24" class="node">
<title>Node38</title>
<g id="a_node24"><a xlink:title=" ">
<polygon fill="white" stroke="#bfbfbf" points="132,-112.5 132,-131.5 180,-131.5 180,-112.5 132,-112.5"/>
<text text-anchor="middle" x="156" y="-119.5" font-family="Helvetica,sans-Serif" font-size="10.00">mutex</text>
</a>
</g>
</g>
<!-- Node15&#45;&gt;Node38 -->
<g id="edge34" class="edge">
<title>Node15&#45;&gt;Node38</title>
<path fill="none" stroke="midnightblue" d="M640.19,-173.64C535.13,-165.81 279.29,-145.93 194,-132 192.72,-131.79 191.42,-131.56 190.11,-131.32"/>
<polygon fill="midnightblue" stroke="midnightblue" points="190.52,-127.83 180.02,-129.23 189.1,-134.69 190.52,-127.83"/>
</g>
<!-- Node39 -->
<g id="node25" class="node">
<title>Node39</title>
<g id="a_node25"><a xlink:title=" ">
<polygon fill="white" stroke="#bfbfbf" points="659,-112.5 659,-131.5 713,-131.5 713,-112.5 659,-112.5"/>
<text text-anchor="middle" x="686" y="-119.5" font-family="Helvetica,sans-Serif" font-size="10.00">random</text>
</a>
</g>
</g>
<!-- Node15&#45;&gt;Node39 -->
<g id="edge36" class="edge">
<title>Node15&#45;&gt;Node39</title>
<path fill="none" stroke="midnightblue" d="M686,-168.08C686,-161.01 686,-150.86 686,-141.99"/>
<polygon fill="midnightblue" stroke="midnightblue" points="689.5,-141.75 686,-131.75 682.5,-141.75 689.5,-141.75"/>
</g>
<!-- Node36 -->
<g id="node26" class="node">
<title>Node36</title>
<g id="a_node26"><a xlink:title=" ">
<polygon fill="white" stroke="#bfbfbf" points="731,-112.5 731,-131.5 763,-131.5 763,-112.5 731,-112.5"/>
<text text-anchor="middle" x="747" y="-119.5" font-family="Helvetica,sans-Serif" font-size="10.00">list</text>
</a>
</g>
</g>
<!-- Node15&#45;&gt;Node36 -->
<g id="edge37" class="edge">
<title>Node15&#45;&gt;Node36</title>
<path fill="none" stroke="midnightblue" d="M695.8,-168.32C704.82,-160.34 718.41,-148.31 729.32,-138.65"/>
<polygon fill="midnightblue" stroke="midnightblue" points="731.85,-141.08 737.02,-131.83 727.21,-135.84 731.85,-141.08"/>
</g>
<!-- Node15&#45;&gt;Node40 -->
<g id="edge38" class="edge">
<title>Node15&#45;&gt;Node40</title>
<path fill="none" stroke="midnightblue" d="M640.24,-173.84C521.01,-165.52 204.92,-143.04 123.87,-131.63"/>
<polygon fill="midnightblue" stroke="midnightblue" points="124.1,-128.12 113.67,-130.02 123.01,-135.03 124.1,-128.12"/>
</g>
<!-- Node41 -->
<g id="node28" class="node">
<title>Node41</title>
<g id="a_node28"><a xlink:title=" ">
<polygon fill="white" stroke="#bfbfbf" points="781.5,-112.5 781.5,-131.5 870.5,-131.5 870.5,-112.5 781.5,-112.5"/>
<text text-anchor="middle" x="826" y="-119.5" font-family="Helvetica,sans-Serif" font-size="10.00">wx/wupdlock.h</text>
</a>
</g>
</g>
<!-- Node15&#45;&gt;Node41 -->
<g id="edge39" class="edge">
<title>Node15&#45;&gt;Node41</title>
<path fill="none" stroke="midnightblue" d="M708.18,-168.44C731.43,-159.48 768.15,-145.31 794.42,-135.18"/>
<polygon fill="midnightblue" stroke="midnightblue" points="795.85,-138.38 803.92,-131.52 793.33,-131.85 795.85,-138.38"/>
</g>
<!-- Node42 -->
<g id="node29" class="node">
<title>Node42</title>
<g id="a_node29"><a xlink:title=" ">
<polygon fill="white" stroke="#bfbfbf" points="889,-112.5 889,-131.5 975,-131.5 975,-112.5 889,-112.5"/>
<text text-anchor="middle" x="932" y="-119.5" font-family="Helvetica,sans-Serif" font-size="10.00">wx/webview.h</text>
</a>
</g>
</g>
<!-- Node15&#45;&gt;Node42 -->
<g id="edge40" class="edge">
<title>Node15&#45;&gt;Node42</title>
<path fill="none" stroke="midnightblue" d="M724.98,-168.44C767.89,-159.02 836.95,-143.87 883.37,-133.68"/>
<polygon fill="midnightblue" stroke="midnightblue" points="884.19,-137.08 893.2,-131.52 882.69,-130.24 884.19,-137.08"/>
</g>
<!-- Node21&#45;&gt;Node3 -->
<g id="edge26" class="edge">
<title>Node21&#45;&gt;Node3</title>
<path fill="none" stroke="midnightblue" d="M1213.25,-112.32C1197.68,-103.74 1173.62,-90.49 1155.54,-80.52"/>
<polygon fill="midnightblue" stroke="midnightblue" points="1157.15,-77.42 1146.71,-75.65 1153.78,-83.55 1157.15,-77.42"/>
</g>
<!-- Node21&#45;&gt;Node7 -->
<g id="edge27" class="edge">
<title>Node21&#45;&gt;Node7</title>
<path fill="none" stroke="midnightblue" d="M1298.63,-115.67C1445.03,-104.48 1780.73,-78.8 1895.6,-70.01"/>
<polygon fill="midnightblue" stroke="midnightblue" points="1896,-73.49 1905.7,-69.24 1895.47,-66.51 1896,-73.49"/>
</g>
<!-- Node23&#45;&gt;Node3 -->
<g id="edge29" class="edge">
<title>Node23&#45;&gt;Node3</title>
<path fill="none" stroke="midnightblue" d="M1045.39,-112.32C1061.67,-103.7 1086.87,-90.36 1105.72,-80.39"/>
<polygon fill="midnightblue" stroke="midnightblue" points="1107.45,-83.43 1114.65,-75.65 1104.18,-77.24 1107.45,-83.43"/>
</g>
<!-- Node23&#45;&gt;Node10 -->
<g id="edge31" class="edge">
<title>Node23&#45;&gt;Node10</title>
<path fill="none" stroke="midnightblue" d="M1064.54,-112.8C1108.81,-102.58 1183.96,-85.24 1227.99,-75.08"/>
<polygon fill="midnightblue" stroke="midnightblue" points="1228.98,-78.44 1237.94,-72.78 1227.41,-71.62 1228.98,-78.44"/>
</g>
<!-- Node23&#45;&gt;Node17 -->
<g id="edge30" class="edge">
<title>Node23&#45;&gt;Node17</title>
<path fill="none" stroke="midnightblue" d="M997.47,-112.44C963.41,-103.2 908.99,-88.44 871.48,-78.26"/>
<polygon fill="midnightblue" stroke="midnightblue" points="871.95,-74.76 861.38,-75.52 870.12,-81.51 871.95,-74.76"/>
</g>
<!-- Node23&#45;&gt;Node37 -->
<g id="edge32" class="edge">
<title>Node23&#45;&gt;Node37</title>
<path fill="none" stroke="midnightblue" d="M993.2,-113.47C990.1,-112.93 987,-112.43 984,-112 818.02,-88.24 620.09,-75.22 524.8,-69.9"/>
<polygon fill="midnightblue" stroke="midnightblue" points="524.98,-66.4 514.8,-69.35 524.59,-73.39 524.98,-66.4"/>
</g>
<!-- Node44 -->
<g id="node31" class="node">
<title>Node44</title>
<g id="a_node31"><a xlink:title=" ">
<polygon fill="white" stroke="#bfbfbf" points="1506.5,-112.5 1506.5,-131.5 1577.5,-131.5 1577.5,-112.5 1506.5,-112.5"/>
<text text-anchor="middle" x="1542" y="-119.5" font-family="Helvetica,sans-Serif" font-size="10.00">wx/string.h</text>
</a>
</g>
</g>
<!-- Node43&#45;&gt;Node44 -->
<g id="edge42" class="edge">
<title>Node43&#45;&gt;Node44</title>
<path fill="none" stroke="midnightblue" d="M1389.68,-168.44C1420.53,-159.24 1469.73,-144.56 1503.83,-134.39"/>
<polygon fill="midnightblue" stroke="midnightblue" points="1504.87,-137.73 1513.45,-131.52 1502.87,-131.02 1504.87,-137.73"/>
</g>
<!-- Node45 -->
<g id="node32" class="node">
<title>Node45</title>
<g id="a_node32"><a xlink:title=" ">
<polygon fill="white" stroke="#bfbfbf" points="1393.5,-112.5 1393.5,-131.5 1488.5,-131.5 1488.5,-112.5 1393.5,-112.5"/>
<text text-anchor="middle" x="1441" y="-119.5" font-family="Helvetica,sans-Serif" font-size="10.00">wx/translation.h</text>
</a>
</g>
</g>
<!-- Node43&#45;&gt;Node45 -->
<g id="edge43" class="edge">
<title>Node43&#45;&gt;Node45</title>
<path fill="none" stroke="midnightblue" d="M1373.85,-168.32C1386.22,-159.98 1405.13,-147.21 1419.74,-137.35"/>
<polygon fill="midnightblue" stroke="midnightblue" points="1421.85,-140.15 1428.18,-131.65 1417.93,-134.35 1421.85,-140.15"/>
</g>
<!-- Node46&#45;&gt;Node6 -->
<g id="edge46" class="edge">
<title>Node46&#45;&gt;Node6</title>
<path fill="none" stroke="midnightblue" d="M2073.86,-168.32C2060.13,-159.9 2039.06,-146.97 2022.94,-137.07"/>
<polygon fill="midnightblue" stroke="midnightblue" points="2024.46,-133.9 2014.1,-131.65 2020.8,-139.87 2024.46,-133.9"/>
</g>
<!-- Node46&#45;&gt;Node7 -->
<g id="edge47" class="edge">
<title>Node46&#45;&gt;Node7</title>
<path fill="none" stroke="midnightblue" d="M2101.62,-168.32C2119.9,-155.6 2148.41,-131.31 2133,-112 2113.56,-87.64 2026.51,-75.46 1974.53,-70.26"/>
<polygon fill="midnightblue" stroke="midnightblue" points="1974.61,-66.75 1964.32,-69.28 1973.94,-73.72 1974.61,-66.75"/>
</g>
<!-- Node46&#45;&gt;Node13 -->
<g id="edge48" class="edge">
<title>Node46&#45;&gt;Node13</title>
<path fill="none" stroke="midnightblue" d="M2088.17,-168.08C2088.3,-161.01 2088.48,-150.86 2088.65,-141.99"/>
<polygon fill="midnightblue" stroke="midnightblue" points="2092.15,-141.81 2088.84,-131.75 2085.15,-141.68 2092.15,-141.81"/>
</g>
<!-- Node49&#45;&gt;Node2 -->
<g id="edge61" class="edge">
<title>Node49&#45;&gt;Node2</title>
<path fill="none" stroke="midnightblue" d="M1338.05,-282.05C1378.64,-272 1453.51,-253.45 1496.13,-242.89"/>
<polygon fill="midnightblue" stroke="midnightblue" points="1497.11,-246.26 1505.98,-240.46 1495.43,-239.46 1497.11,-246.26"/>
</g>
<!-- Node49&#45;&gt;Node3 -->
<g id="edge60" class="edge">
<title>Node49&#45;&gt;Node3</title>
<path fill="none" stroke="midnightblue" d="M1281.53,-284.11C1256.38,-278.44 1220.2,-266.78 1197,-244 1151.81,-199.63 1137.24,-121.49 1132.81,-85.77"/>
<polygon fill="midnightblue" stroke="midnightblue" points="1136.28,-85.31 1131.7,-75.76 1129.32,-86.08 1136.28,-85.31"/>
</g>
<!-- Node49&#45;&gt;Node4 -->
<g id="edge62" class="edge">
<title>Node49&#45;&gt;Node4</title>
<path fill="none" stroke="midnightblue" d="M1281.95,-288.09C1095.1,-281.85 38,-243.66 38,-179 38,-179 38,-179 38,-121 38,-13.21 890.44,-10.01 1089.7,-10.74"/>
<polygon fill="midnightblue" stroke="midnightblue" points="1089.74,-14.24 1099.76,-10.78 1089.77,-7.24 1089.74,-14.24"/>
</g>
<!-- Node49&#45;&gt;Node12 -->
<g id="edge56" class="edge">
<title>Node49&#45;&gt;Node12</title>
<path fill="none" stroke="midnightblue" d="M1338.26,-287.54C1385.5,-284.3 1482.86,-274.24 1559,-244 1569.6,-239.79 1639.57,-198.02 1645,-188 1653.23,-172.82 1645.53,-153.77 1637.41,-140.23"/>
<polygon fill="midnightblue" stroke="midnightblue" points="1640.33,-138.29 1631.92,-131.84 1634.47,-142.13 1640.33,-138.29"/>
</g>
<!-- Node50 -->
<g id="node38" class="node">
<title>Node50</title>
<g id="a_node38"><a xlink:title=" ">
<polygon fill="white" stroke="#bfbfbf" points="887,-224.5 887,-243.5 935,-243.5 935,-224.5 887,-224.5"/>
<text text-anchor="middle" x="911" y="-231.5" font-family="Helvetica,sans-Serif" font-size="10.00">thread</text>
</a>
</g>
</g>
<!-- Node49&#45;&gt;Node50 -->
<g id="edge57" class="edge">
<title>Node49&#45;&gt;Node50</title>
<path fill="none" stroke="midnightblue" d="M1281.77,-286.92C1221.57,-282.2 1076.03,-269.19 944.87,-243.91"/>
<polygon fill="midnightblue" stroke="midnightblue" points="945.54,-240.48 935.06,-241.99 944.2,-247.35 945.54,-240.48"/>
</g>
<!-- Node51 -->
<g id="node39" class="node">
<title>Node51</title>
<g id="a_node39"><a xlink:href="ThreadNumberLimiter_8h.html" target="_top" xlink:title="A mutex that locks if we have too many background threads.">
<polygon fill="white" stroke="black" points="397,-168.5 397,-187.5 529,-187.5 529,-168.5 397,-168.5"/>
<text text-anchor="middle" x="463" y="-175.5" font-family="Helvetica,sans-Serif" font-size="10.00">ThreadNumberLimiter.h</text>
</a>
</g>
</g>
<!-- Node49&#45;&gt;Node51 -->
<g id="edge58" class="edge">
<title>Node49&#45;&gt;Node51</title>
<path fill="none" stroke="midnightblue" d="M1281.89,-286.58C1212.94,-280.53 1029.98,-263.8 878,-244 750.74,-227.42 602.34,-202.92 522,-189.22"/>
<polygon fill="midnightblue" stroke="midnightblue" points="522.52,-185.76 512.07,-187.53 521.34,-192.66 522.52,-185.76"/>
</g>
<!-- Node49&#45;&gt;Node52 -->
<g id="edge63" class="edge">
<title>Node49&#45;&gt;Node52</title>
<path fill="none" stroke="midnightblue" d="M1338.07,-286.4C1430.86,-277.79 1728.43,-250.18 1844.76,-239.38"/>
<polygon fill="midnightblue" stroke="midnightblue" points="1845.15,-242.86 1854.78,-238.45 1844.5,-235.89 1845.15,-242.86"/>
</g>
<!-- Node53 -->
<g id="node41" class="node">
<title>Node53</title>
<g id="a_node41"><a xlink:title=" ">
<polygon fill="white" stroke="#bfbfbf" points="953.5,-224.5 953.5,-243.5 1024.5,-243.5 1024.5,-224.5 953.5,-224.5"/>
<text text-anchor="middle" x="989" y="-231.5" font-family="Helvetica,sans-Serif" font-size="10.00">wx/buffer.h</text>
</a>
</g>
</g>
<!-- Node49&#45;&gt;Node53 -->
<g id="edge64" class="edge">
<title>Node49&#45;&gt;Node53</title>
<path fill="none" stroke="midnightblue" d="M1281.73,-284.73C1233.36,-277.36 1131.35,-261.48 1034.77,-244.09"/>
<polygon fill="midnightblue" stroke="midnightblue" points="1035.3,-240.63 1024.84,-242.29 1034.06,-247.51 1035.3,-240.63"/>
</g>
<!-- Node54 -->
<g id="node42" class="node">
<title>Node54</title>
<g id="a_node42"><a xlink:title=" ">
<polygon fill="white" stroke="#bfbfbf" points="1043,-224.5 1043,-243.5 1123,-243.5 1123,-224.5 1043,-224.5"/>
<text text-anchor="middle" x="1083" y="-231.5" font-family="Helvetica,sans-Serif" font-size="10.00">wx/zipstrm.h</text>
</a>
</g>
</g>
<!-- Node49&#45;&gt;Node54 -->
<g id="edge65" class="edge">
<title>Node49&#45;&gt;Node54</title>
<path fill="none" stroke="midnightblue" d="M1281.71,-282.27C1243.37,-273.15 1174.45,-256.76 1128.72,-245.88"/>
<polygon fill="midnightblue" stroke="midnightblue" points="1129.3,-242.42 1118.76,-243.51 1127.68,-249.23 1129.3,-242.42"/>
</g>
<!-- Node49&#45;&gt;Node55 -->
<g id="edge66" class="edge">
<title>Node49&#45;&gt;Node55</title>
<path fill="none" stroke="midnightblue" d="M1338.2,-284.54C1394.74,-275.58 1522.83,-255.3 1596.37,-243.65"/>
<polygon fill="midnightblue" stroke="midnightblue" points="1597.04,-247.09 1606.37,-242.07 1595.94,-240.18 1597.04,-247.09"/>
</g>
<!-- Node56 -->
<g id="node44" class="node">
<title>Node56</title>
<g id="a_node44"><a xlink:title=" ">
<polygon fill="white" stroke="#bfbfbf" points="1206.5,-224.5 1206.5,-243.5 1313.5,-243.5 1313.5,-224.5 1206.5,-224.5"/>
<text text-anchor="middle" x="1260" y="-231.5" font-family="Helvetica,sans-Serif" font-size="10.00">nanosvg_private.h</text>
</a>
</g>
</g>
<!-- Node49&#45;&gt;Node56 -->
<g id="edge67" class="edge">
<title>Node49&#45;&gt;Node56</title>
<path fill="none" stroke="midnightblue" d="M1301.74,-280.08C1294.54,-272.3 1283.89,-260.8 1275.15,-251.37"/>
<polygon fill="midnightblue" stroke="midnightblue" points="1277.47,-248.71 1268.1,-243.75 1272.33,-253.47 1277.47,-248.71"/>
</g>
<!-- Node57 -->
<g id="node45" class="node">
<title>Node57</title>
<g id="a_node45"><a xlink:title=" ">
<polygon fill="white" stroke="#bfbfbf" points="1331.5,-224.5 1331.5,-243.5 1456.5,-243.5 1456.5,-224.5 1331.5,-224.5"/>
<text text-anchor="middle" x="1394" y="-231.5" font-family="Helvetica,sans-Serif" font-size="10.00">nanosvgrast_private.h</text>
</a>
</g>
</g>
<!-- Node49&#45;&gt;Node57 -->
<g id="edge68" class="edge">
<title>Node49&#45;&gt;Node57</title>
<path fill="none" stroke="midnightblue" d="M1323.5,-280.32C1336.6,-271.9 1356.71,-258.97 1372.11,-249.07"/>
<polygon fill="midnightblue" stroke="midnightblue" points="1374.02,-252.01 1380.54,-243.65 1370.23,-246.12 1374.02,-252.01"/>
</g>
<!-- Node51&#45;&gt;Node38 -->
<g id="edge59" class="edge">
<title>Node51&#45;&gt;Node38</title>
<path fill="none" stroke="midnightblue" d="M405.34,-168.49C350.73,-160.17 266.52,-146.64 194,-132 192.73,-131.74 191.44,-131.48 190.13,-131.2"/>
<polygon fill="midnightblue" stroke="midnightblue" points="190.59,-127.71 180.07,-128.96 189.07,-134.55 190.59,-127.71"/>
</g>
<!-- Node58&#45;&gt;Node2 -->
<g id="edge71" class="edge">
<title>Node58&#45;&gt;Node2</title>
<path fill="none" stroke="midnightblue" d="M1803.54,-336.37C1750.2,-316.75 1619.81,-268.78 1559.52,-246.6"/>
<polygon fill="midnightblue" stroke="midnightblue" points="1560.72,-243.31 1550.13,-243.14 1558.31,-249.88 1560.72,-243.31"/>
</g>
<!-- Node58&#45;&gt;Node12 -->
<g id="edge70" class="edge">
<title>Node58&#45;&gt;Node12</title>
<path fill="none" stroke="midnightblue" d="M1815.23,-336.22C1804.88,-327.93 1790.08,-314.62 1781,-300 1748.45,-247.58 1780.21,-213 1738,-168 1727.47,-156.77 1692.28,-143.74 1663.93,-134.59"/>
<polygon fill="midnightblue" stroke="midnightblue" points="1664.83,-131.21 1654.24,-131.53 1662.72,-137.88 1664.83,-131.21"/>
</g>
<!-- Node58&#45;&gt;Node49 -->
<g id="edge73" class="edge">
<title>Node58&#45;&gt;Node49</title>
<path fill="none" stroke="midnightblue" d="M1783.37,-340.44C1684.1,-330.07 1442.68,-304.86 1348.51,-295.02"/>
<polygon fill="midnightblue" stroke="midnightblue" points="1348.61,-291.51 1338.3,-293.96 1347.88,-298.48 1348.61,-291.51"/>
</g>
<!-- Node58&#45;&gt;Node52 -->
<g id="edge72" class="edge">
<title>Node58&#45;&gt;Node52</title>
<path fill="none" stroke="midnightblue" d="M1838.87,-336.29C1849.3,-328.04 1864.15,-314.75 1873,-300 1881.6,-285.67 1886.51,-267.2 1889.17,-253.62"/>
<polygon fill="midnightblue" stroke="midnightblue" points="1892.66,-254 1890.91,-243.55 1885.76,-252.81 1892.66,-254"/>
</g>
<!-- Node59 -->
<g id="node47" class="node">
<title>Node59</title>
<g id="a_node47"><a xlink:title=" ">
<polygon fill="white" stroke="#bfbfbf" points="1790,-280.5 1790,-299.5 1864,-299.5 1864,-280.5 1790,-280.5"/>
<text text-anchor="middle" x="1827" y="-287.5" font-family="Helvetica,sans-Serif" font-size="10.00">wx/filesys.h</text>
</a>
</g>
</g>
<!-- Node58&#45;&gt;Node59 -->
<g id="edge74" class="edge">
<title>Node58&#45;&gt;Node59</title>
<path fill="none" stroke="midnightblue" d="M1827,-336.08C1827,-329.01 1827,-318.86 1827,-309.99"/>
<polygon fill="midnightblue" stroke="midnightblue" points="1830.5,-309.75 1827,-299.75 1823.5,-309.75 1830.5,-309.75"/>
</g>
<!-- Node58&#45;&gt;Node60 -->
<g id="edge75" class="edge">
<title>Node58&#45;&gt;Node60</title>
<path fill="none" stroke="midnightblue" d="M1847.44,-336.44C1868.67,-327.56 1902.1,-313.56 1926.25,-303.45"/>
<polygon fill="midnightblue" stroke="midnightblue" points="1927.78,-306.61 1935.66,-299.52 1925.08,-300.15 1927.78,-306.61"/>
</g>
</g>
</svg>
