<?xml version="1.0" encoding="UTF-8" standalone="no"?>
<!DOCTYPE svg PUBLIC "-//W3C//DTD SVG 1.1//EN"
 "http://www.w3.org/Graphics/SVG/1.1/DTD/svg11.dtd">
<!-- Generated by graphviz version 2.43.0 (0)
 -->
<!-- Title: src/cells/AnimationCell.h Pages: 1 -->
<svg width="2344pt" height="364pt"
 viewBox="0.00 0.00 2344.00 364.00" xmlns="http://www.w3.org/2000/svg" xmlns:xlink="http://www.w3.org/1999/xlink">
<g id="graph0" class="graph" transform="scale(1 1) rotate(0) translate(4 360)">
<title>src/cells/AnimationCell.h</title>
<polygon fill="white" stroke="transparent" points="-4,4 -4,-360 2340,-360 2340,4 -4,4"/>
<!-- Node1 -->
<g id="node1" class="node">
<title>Node1</title>
<g id="a_node1"><a xlink:title="This file declares the class AnimationCell.">
<polygon fill="#bfbfbf" stroke="black" points="1467,-336.5 1467,-355.5 1604,-355.5 1604,-336.5 1467,-336.5"/>
<text text-anchor="middle" x="1535.5" y="-343.5" font-family="Helvetica,sans-Serif" font-size="10.00">src/cells/AnimationCell.h</text>
</a>
</g>
</g>
<!-- Node2 -->
<g id="node2" class="node">
<title>Node2</title>
<g id="a_node2"><a xlink:href="Cell_8h.html" target="_top" xlink:title="The definition of the base class of all cells the worksheet consists of.">
<polygon fill="white" stroke="black" points="722.5,-224.5 722.5,-243.5 766.5,-243.5 766.5,-224.5 722.5,-224.5"/>
<text text-anchor="middle" x="744.5" y="-231.5" font-family="Helvetica,sans-Serif" font-size="10.00">Cell.h</text>
</a>
</g>
</g>
<!-- Node1&#45;&gt;Node2 -->
<g id="edge1" class="edge">
<title>Node1&#45;&gt;Node2</title>
<path fill="none" stroke="midnightblue" d="M1466.9,-338.42C1333.79,-325.09 1031.51,-292.01 780.5,-244 779.25,-243.76 777.99,-243.51 776.71,-243.24"/>
<polygon fill="midnightblue" stroke="midnightblue" points="777.41,-239.81 766.88,-241.01 775.86,-246.64 777.41,-239.81"/>
</g>
<!-- Node12 -->
<g id="node12" class="node">
<title>Node12</title>
<g id="a_node12"><a xlink:title=" ">
<polygon fill="white" stroke="#bfbfbf" points="572.5,-112.5 572.5,-131.5 630.5,-131.5 630.5,-112.5 572.5,-112.5"/>
<text text-anchor="middle" x="601.5" y="-119.5" font-family="Helvetica,sans-Serif" font-size="10.00">memory</text>
</a>
</g>
</g>
<!-- Node1&#45;&gt;Node12 -->
<g id="edge78" class="edge">
<title>Node1&#45;&gt;Node12</title>
<path fill="none" stroke="midnightblue" d="M1466.71,-342.29C1293.91,-334.59 845.98,-308.78 713.5,-244 665.88,-220.72 628.55,-167.81 611.54,-140.32"/>
<polygon fill="midnightblue" stroke="midnightblue" points="614.54,-138.51 606.39,-131.74 608.54,-142.12 614.54,-138.51"/>
</g>
<!-- Node43 -->
<g id="node28" class="node">
<title>Node43</title>
<g id="a_node28"><a xlink:title=" ">
<polygon fill="white" stroke="#bfbfbf" points="507,-112.5 507,-131.5 554,-131.5 554,-112.5 507,-112.5"/>
<text text-anchor="middle" x="530.5" y="-119.5" font-family="Helvetica,sans-Serif" font-size="10.00">vector</text>
</a>
</g>
</g>
<!-- Node1&#45;&gt;Node43 -->
<g id="edge84" class="edge">
<title>Node1&#45;&gt;Node43</title>
<path fill="none" stroke="midnightblue" d="M1466.6,-345.21C1340.75,-344.57 1065.62,-338.4 837.5,-300 652.91,-268.93 544.9,-336.92 431.5,-188 426.11,-180.93 426.69,-175.47 431.5,-168 439.12,-156.16 471.49,-142.84 497.16,-133.78"/>
<polygon fill="midnightblue" stroke="midnightblue" points="498.64,-136.97 506.96,-130.41 496.37,-130.35 498.64,-136.97"/>
</g>
<!-- Node51 -->
<g id="node37" class="node">
<title>Node51</title>
<g id="a_node37"><a xlink:href="Image_8h.html" target="_top" xlink:title="This file declares the class Image.">
<polygon fill="white" stroke="black" points="1543.5,-224.5 1543.5,-243.5 1599.5,-243.5 1599.5,-224.5 1543.5,-224.5"/>
<text text-anchor="middle" x="1571.5" y="-231.5" font-family="Helvetica,sans-Serif" font-size="10.00">Image.h</text>
</a>
</g>
</g>
<!-- Node1&#45;&gt;Node51 -->
<g id="edge58" class="edge">
<title>Node1&#45;&gt;Node51</title>
<path fill="none" stroke="midnightblue" d="M1538.96,-336.44C1542.54,-327.44 1548.21,-312.83 1552.5,-300 1557.69,-284.49 1562.84,-266.65 1566.47,-253.59"/>
<polygon fill="midnightblue" stroke="midnightblue" points="1569.86,-254.47 1569.13,-243.9 1563.11,-252.62 1569.86,-254.47"/>
</g>
<!-- Node54 -->
<g id="node40" class="node">
<title>Node54</title>
<g id="a_node40"><a xlink:title=" ">
<polygon fill="white" stroke="#bfbfbf" points="1443.5,-168.5 1443.5,-187.5 1517.5,-187.5 1517.5,-168.5 1443.5,-168.5"/>
<text text-anchor="middle" x="1480.5" y="-175.5" font-family="Helvetica,sans-Serif" font-size="10.00">wx/image.h</text>
</a>
</g>
</g>
<!-- Node1&#45;&gt;Node54 -->
<g id="edge79" class="edge">
<title>Node1&#45;&gt;Node54</title>
<path fill="none" stroke="midnightblue" d="M1511.84,-336.41C1478.81,-322.83 1421.08,-292.81 1404.5,-244 1401.64,-235.58 1400.1,-231.72 1404.5,-224 1412.91,-209.25 1428.27,-198.84 1442.98,-191.77"/>
<polygon fill="midnightblue" stroke="midnightblue" points="1444.74,-194.83 1452.48,-187.6 1441.92,-188.42 1444.74,-194.83"/>
</g>
<!-- Node57 -->
<g id="node43" class="node">
<title>Node57</title>
<g id="a_node43"><a xlink:title=" ">
<polygon fill="white" stroke="#bfbfbf" points="2247,-168.5 2247,-187.5 2336,-187.5 2336,-168.5 2247,-168.5"/>
<text text-anchor="middle" x="2291.5" y="-175.5" font-family="Helvetica,sans-Serif" font-size="10.00">wx/wfstream.h</text>
</a>
</g>
</g>
<!-- Node1&#45;&gt;Node57 -->
<g id="edge83" class="edge">
<title>Node1&#45;&gt;Node57</title>
<path fill="none" stroke="midnightblue" d="M1558.42,-336.48C1595.44,-322.98 1670.88,-296.5 1736.5,-280 1917.44,-234.49 2136.43,-200.78 2236.64,-186.51"/>
<polygon fill="midnightblue" stroke="midnightblue" points="2237.42,-189.94 2246.83,-185.07 2236.43,-183.01 2237.42,-189.94"/>
</g>
<!-- Node60 -->
<g id="node46" class="node">
<title>Node60</title>
<g id="a_node46"><a xlink:href="ImgCellBase_8h_source.html" target="_top" xlink:title=" ">
<polygon fill="white" stroke="black" points="1456,-280.5 1456,-299.5 1543,-299.5 1543,-280.5 1456,-280.5"/>
<text text-anchor="middle" x="1499.5" y="-287.5" font-family="Helvetica,sans-Serif" font-size="10.00">ImgCellBase.h</text>
</a>
</g>
</g>
<!-- Node1&#45;&gt;Node60 -->
<g id="edge71" class="edge">
<title>Node1&#45;&gt;Node60</title>
<path fill="none" stroke="midnightblue" d="M1529.56,-336.08C1524.52,-328.53 1517.16,-317.49 1510.99,-308.23"/>
<polygon fill="midnightblue" stroke="midnightblue" points="1513.79,-306.13 1505.33,-299.75 1507.97,-310.01 1513.79,-306.13"/>
</g>
<!-- Node62 -->
<g id="node48" class="node">
<title>Node62</title>
<g id="a_node48"><a xlink:title=" ">
<polygon fill="white" stroke="#bfbfbf" points="1617.5,-224.5 1617.5,-243.5 1689.5,-243.5 1689.5,-224.5 1617.5,-224.5"/>
<text text-anchor="middle" x="1653.5" y="-231.5" font-family="Helvetica,sans-Serif" font-size="10.00">wx/fs_arc.h</text>
</a>
</g>
</g>
<!-- Node1&#45;&gt;Node62 -->
<g id="edge81" class="edge">
<title>Node1&#45;&gt;Node62</title>
<path fill="none" stroke="midnightblue" d="M1544.76,-336.37C1564.66,-317.81 1611.76,-273.91 1636.94,-250.44"/>
<polygon fill="midnightblue" stroke="midnightblue" points="1639.36,-252.97 1644.28,-243.59 1634.58,-247.85 1639.36,-252.97"/>
</g>
<!-- Node63 -->
<g id="node49" class="node">
<title>Node63</title>
<g id="a_node49"><a xlink:title=" ">
<polygon fill="white" stroke="#bfbfbf" points="1745.5,-280.5 1745.5,-299.5 1813.5,-299.5 1813.5,-280.5 1745.5,-280.5"/>
<text text-anchor="middle" x="1779.5" y="-287.5" font-family="Helvetica,sans-Serif" font-size="10.00">wx/timer.h</text>
</a>
</g>
</g>
<!-- Node1&#45;&gt;Node63 -->
<g id="edge80" class="edge">
<title>Node1&#45;&gt;Node63</title>
<path fill="none" stroke="midnightblue" d="M1574.16,-336.44C1618.01,-326.74 1689.38,-310.95 1735.37,-300.77"/>
<polygon fill="midnightblue" stroke="midnightblue" points="1736.34,-304.14 1745.35,-298.56 1734.83,-297.3 1736.34,-304.14"/>
</g>
<!-- Node64 -->
<g id="node50" class="node">
<title>Node64</title>
<g id="a_node50"><a xlink:title=" ">
<polygon fill="white" stroke="#bfbfbf" points="1832,-280.5 1832,-299.5 1919,-299.5 1919,-280.5 1832,-280.5"/>
<text text-anchor="middle" x="1875.5" y="-287.5" font-family="Helvetica,sans-Serif" font-size="10.00">wx/mstream.h</text>
</a>
</g>
</g>
<!-- Node1&#45;&gt;Node64 -->
<g id="edge82" class="edge">
<title>Node1&#45;&gt;Node64</title>
<path fill="none" stroke="midnightblue" d="M1591.09,-336.5C1646.78,-327.93 1735.24,-314.19 1821.83,-300.09"/>
<polygon fill="midnightblue" stroke="midnightblue" points="1822.53,-303.52 1831.83,-298.46 1821.4,-296.62 1822.53,-303.52"/>
</g>
<!-- Node3 -->
<g id="node3" class="node">
<title>Node3</title>
<g id="a_node3"><a xlink:href="precomp_8h_source.html" target="_top" xlink:title=" ">
<polygon fill="white" stroke="black" points="1859,-56.5 1859,-75.5 1936,-75.5 1936,-56.5 1859,-56.5"/>
<text text-anchor="middle" x="1897.5" y="-63.5" font-family="Helvetica,sans-Serif" font-size="10.00">../precomp.h</text>
</a>
</g>
</g>
<!-- Node2&#45;&gt;Node3 -->
<g id="edge2" class="edge">
<title>Node2&#45;&gt;Node3</title>
<path fill="none" stroke="midnightblue" d="M766.79,-232.69C866.75,-231.13 1274.25,-222.72 1396.5,-188 1414.86,-182.79 1416.11,-173.1 1434.5,-168 1503.14,-148.98 2025.57,-183.76 2074.5,-132 2114.9,-89.27 2011.44,-74.5 1946.13,-69.49"/>
<polygon fill="midnightblue" stroke="midnightblue" points="1946.23,-65.99 1936.01,-68.77 1945.73,-72.97 1946.23,-65.99"/>
</g>
<!-- Node5 -->
<g id="node5" class="node">
<title>Node5</title>
<g id="a_node5"><a xlink:href="CellPtr_8h.html" target="_top" xlink:title="Implementation of an observing weak Cell pointer.">
<polygon fill="white" stroke="black" points="196,-168.5 196,-187.5 253,-187.5 253,-168.5 196,-168.5"/>
<text text-anchor="middle" x="224.5" y="-175.5" font-family="Helvetica,sans-Serif" font-size="10.00">CellPtr.h</text>
</a>
</g>
</g>
<!-- Node2&#45;&gt;Node5 -->
<g id="edge4" class="edge">
<title>Node2&#45;&gt;Node5</title>
<path fill="none" stroke="midnightblue" d="M722.21,-232.08C654.51,-229.04 445.34,-217.87 263.13,-188.06"/>
<polygon fill="midnightblue" stroke="midnightblue" points="263.54,-184.58 253.1,-186.39 262.39,-191.48 263.54,-184.58"/>
</g>
<!-- Node2&#45;&gt;Node12 -->
<g id="edge55" class="edge">
<title>Node2&#45;&gt;Node12</title>
<path fill="none" stroke="midnightblue" d="M745.3,-224.25C746.05,-210.55 745.42,-183.95 731.5,-168 725.24,-160.82 676.31,-145.12 640.32,-134.3"/>
<polygon fill="midnightblue" stroke="midnightblue" points="641.14,-130.89 630.56,-131.39 639.14,-137.6 641.14,-130.89"/>
</g>
<!-- Node13 -->
<g id="node13" class="node">
<title>Node13</title>
<g id="a_node13"><a xlink:title=" ">
<polygon fill="white" stroke="#bfbfbf" points="420,-112.5 420,-131.5 489,-131.5 489,-112.5 420,-112.5"/>
<text text-anchor="middle" x="454.5" y="-119.5" font-family="Helvetica,sans-Serif" font-size="10.00">type_traits</text>
</a>
</g>
</g>
<!-- Node2&#45;&gt;Node13 -->
<g id="edge57" class="edge">
<title>Node2&#45;&gt;Node13</title>
<path fill="none" stroke="midnightblue" d="M722.34,-226.18C695.45,-217.77 648.82,-202.77 609.5,-188 564.89,-171.24 514.11,-149.41 483.19,-135.8"/>
<polygon fill="midnightblue" stroke="midnightblue" points="484.45,-132.53 473.89,-131.68 481.62,-138.93 484.45,-132.53"/>
</g>
<!-- Node14 -->
<g id="node14" class="node">
<title>Node14</title>
<g id="a_node14"><a xlink:href="CellIterators_8h.html" target="_top" xlink:title="Declares the various iterators useful with the Cell class.">
<polygon fill="white" stroke="black" points="440.5,-168.5 440.5,-187.5 526.5,-187.5 526.5,-168.5 440.5,-168.5"/>
<text text-anchor="middle" x="483.5" y="-175.5" font-family="Helvetica,sans-Serif" font-size="10.00">CellIterators.h</text>
</a>
</g>
</g>
<!-- Node2&#45;&gt;Node14 -->
<g id="edge13" class="edge">
<title>Node2&#45;&gt;Node14</title>
<path fill="none" stroke="midnightblue" d="M722.25,-228.4C680.96,-219.85 591.54,-201.35 534.62,-189.58"/>
<polygon fill="midnightblue" stroke="midnightblue" points="535.24,-186.13 524.73,-187.53 533.82,-192.98 535.24,-186.13"/>
</g>
<!-- Node15 -->
<g id="node15" class="node">
<title>Node15</title>
<g id="a_node15"><a xlink:href="Configuration_8h_source.html" target="_top" xlink:title=" ">
<polygon fill="white" stroke="black" points="1296,-168.5 1296,-187.5 1387,-187.5 1387,-168.5 1296,-168.5"/>
<text text-anchor="middle" x="1341.5" y="-175.5" font-family="Helvetica,sans-Serif" font-size="10.00">Configuration.h</text>
</a>
</g>
</g>
<!-- Node2&#45;&gt;Node15 -->
<g id="edge17" class="edge">
<title>Node2&#45;&gt;Node15</title>
<path fill="none" stroke="midnightblue" d="M766.81,-230.98C851.95,-223.28 1157.95,-195.6 1285.29,-184.08"/>
<polygon fill="midnightblue" stroke="midnightblue" points="1285.95,-187.54 1295.59,-183.15 1285.32,-180.57 1285.95,-187.54"/>
</g>
<!-- Node23 -->
<g id="node22" class="node">
<title>Node23</title>
<g id="a_node22"><a xlink:href="TextStyle_8h.html" target="_top" xlink:title="This file declares everything needed for the text style system used to style all the elements on the ...">
<polygon fill="white" stroke="red" points="1242.5,-112.5 1242.5,-131.5 1338.5,-131.5 1338.5,-112.5 1242.5,-112.5"/>
<text text-anchor="middle" x="1290.5" y="-119.5" font-family="Helvetica,sans-Serif" font-size="10.00">cells/TextStyle.h</text>
</a>
</g>
</g>
<!-- Node2&#45;&gt;Node23 -->
<g id="edge47" class="edge">
<title>Node2&#45;&gt;Node23</title>
<path fill="none" stroke="midnightblue" d="M766.6,-229.21C809.73,-221.74 908.12,-204.46 990.5,-188 1079.92,-170.14 1183.82,-147.12 1242.9,-133.81"/>
<polygon fill="midnightblue" stroke="midnightblue" points="1243.71,-137.22 1252.7,-131.6 1242.17,-130.39 1243.71,-137.22"/>
</g>
<!-- Node25 -->
<g id="node23" class="node">
<title>Node25</title>
<g id="a_node23"><a xlink:title=" ">
<polygon fill="white" stroke="#bfbfbf" points="1198.5,-56.5 1198.5,-75.5 1236.5,-75.5 1236.5,-56.5 1198.5,-56.5"/>
<text text-anchor="middle" x="1217.5" y="-63.5" font-family="Helvetica,sans-Serif" font-size="10.00">map</text>
</a>
</g>
</g>
<!-- Node2&#45;&gt;Node25 -->
<g id="edge54" class="edge">
<title>Node2&#45;&gt;Node25</title>
<path fill="none" stroke="midnightblue" d="M766.57,-231.33C813.31,-227.29 919.79,-215.22 941.5,-188 970.55,-151.56 894.41,-156.36 880.5,-132 876.09,-124.28 874.59,-118.64 880.5,-112 924.58,-62.48 1106.16,-88.3 1188.37,-75.55"/>
<polygon fill="midnightblue" stroke="midnightblue" points="1189.16,-78.97 1198.35,-73.7 1187.88,-72.08 1189.16,-78.97"/>
</g>
<!-- Node2&#45;&gt;Node43 -->
<g id="edge56" class="edge">
<title>Node2&#45;&gt;Node43</title>
<path fill="none" stroke="midnightblue" d="M725.42,-224.35C706.12,-215.52 675.52,-201.25 649.5,-188 616.17,-171.02 578.37,-150.08 554.48,-136.63"/>
<polygon fill="midnightblue" stroke="midnightblue" points="556.18,-133.57 545.75,-131.7 552.74,-139.66 556.18,-133.57"/>
</g>
<!-- Node36 -->
<g id="node29" class="node">
<title>Node36</title>
<g id="a_node29"><a xlink:title=" ">
<polygon fill="white" stroke="#bfbfbf" points="889.5,-112.5 889.5,-131.5 953.5,-131.5 953.5,-112.5 889.5,-112.5"/>
<text text-anchor="middle" x="921.5" y="-119.5" font-family="Helvetica,sans-Serif" font-size="10.00">algorithm</text>
</a>
</g>
</g>
<!-- Node2&#45;&gt;Node36 -->
<g id="edge53" class="edge">
<title>Node2&#45;&gt;Node36</title>
<path fill="none" stroke="midnightblue" d="M766.62,-232.11C819.01,-229.5 948.25,-219.88 974.5,-188 988.93,-170.47 966.12,-150.18 946.08,-137"/>
<polygon fill="midnightblue" stroke="midnightblue" points="947.83,-133.97 937.5,-131.64 944.13,-139.91 947.83,-133.97"/>
</g>
<!-- Node46 -->
<g id="node32" class="node">
<title>Node46</title>
<g id="a_node32"><a xlink:href="StringUtils_8h_source.html" target="_top" xlink:title=" ">
<polygon fill="white" stroke="black" points="855,-168.5 855,-187.5 932,-187.5 932,-168.5 855,-168.5"/>
<text text-anchor="middle" x="893.5" y="-175.5" font-family="Helvetica,sans-Serif" font-size="10.00">StringUtils.h</text>
</a>
</g>
</g>
<!-- Node2&#45;&gt;Node46 -->
<g id="edge44" class="edge">
<title>Node2&#45;&gt;Node46</title>
<path fill="none" stroke="midnightblue" d="M766.81,-224.92C791.5,-215.97 831.56,-201.45 860.02,-191.13"/>
<polygon fill="midnightblue" stroke="midnightblue" points="861.35,-194.37 869.56,-187.68 858.96,-187.79 861.35,-194.37"/>
</g>
<!-- Node49 -->
<g id="node35" class="node">
<title>Node49</title>
<g id="a_node35"><a xlink:href="CachedValue_8h.html" target="_top" xlink:title="Declares &quot;mostly read&#45;only&quot; wrappers around values that are expensive to compute and are thus cached.">
<polygon fill="white" stroke="red" points="271,-168.5 271,-187.5 384,-187.5 384,-168.5 271,-168.5"/>
<text text-anchor="middle" x="327.5" y="-175.5" font-family="Helvetica,sans-Serif" font-size="10.00">utils/CachedValue.h</text>
</a>
</g>
</g>
<!-- Node2&#45;&gt;Node49 -->
<g id="edge48" class="edge">
<title>Node2&#45;&gt;Node49</title>
<path fill="none" stroke="midnightblue" d="M722.37,-230.13C661.62,-222.27 490.36,-200.09 394.54,-187.68"/>
<polygon fill="midnightblue" stroke="midnightblue" points="394.74,-184.18 384.37,-186.36 393.84,-191.12 394.74,-184.18"/>
</g>
<!-- Node50 -->
<g id="node36" class="node">
<title>Node50</title>
<g id="a_node36"><a xlink:title=" ">
<polygon fill="white" stroke="#bfbfbf" points="658.5,-168.5 658.5,-187.5 722.5,-187.5 722.5,-168.5 658.5,-168.5"/>
<text text-anchor="middle" x="690.5" y="-175.5" font-family="Helvetica,sans-Serif" font-size="10.00">wx/defs.h</text>
</a>
</g>
</g>
<!-- Node2&#45;&gt;Node50 -->
<g id="edge52" class="edge">
<title>Node2&#45;&gt;Node50</title>
<path fill="none" stroke="midnightblue" d="M735.58,-224.08C727.72,-216.22 716.07,-204.57 706.58,-195.08"/>
<polygon fill="midnightblue" stroke="midnightblue" points="708.8,-192.35 699.25,-187.75 703.85,-197.3 708.8,-192.35"/>
</g>
<!-- Node4 -->
<g id="node4" class="node">
<title>Node4</title>
<g id="a_node4"><a xlink:href="Version_8h_source.html" target="_top" xlink:title=" ">
<polygon fill="white" stroke="black" points="1866.5,-0.5 1866.5,-19.5 1928.5,-19.5 1928.5,-0.5 1866.5,-0.5"/>
<text text-anchor="middle" x="1897.5" y="-7.5" font-family="Helvetica,sans-Serif" font-size="10.00">Version.h</text>
</a>
</g>
</g>
<!-- Node3&#45;&gt;Node4 -->
<g id="edge3" class="edge">
<title>Node3&#45;&gt;Node4</title>
<path fill="none" stroke="midnightblue" d="M1897.5,-56.08C1897.5,-49.01 1897.5,-38.86 1897.5,-29.99"/>
<polygon fill="midnightblue" stroke="midnightblue" points="1901,-29.75 1897.5,-19.75 1894,-29.75 1901,-29.75"/>
</g>
<!-- Node6 -->
<g id="node6" class="node">
<title>Node6</title>
<g id="a_node6"><a xlink:title=" ">
<polygon fill="white" stroke="#bfbfbf" points="329,-112.5 329,-131.5 402,-131.5 402,-112.5 329,-112.5"/>
<text text-anchor="middle" x="365.5" y="-119.5" font-family="Helvetica,sans-Serif" font-size="10.00">wx/debug.h</text>
</a>
</g>
</g>
<!-- Node5&#45;&gt;Node6 -->
<g id="edge5" class="edge">
<title>Node5&#45;&gt;Node6</title>
<path fill="none" stroke="midnightblue" d="M246.84,-168.44C270.25,-159.48 307.24,-145.31 333.69,-135.18"/>
<polygon fill="midnightblue" stroke="midnightblue" points="335.18,-138.36 343.26,-131.52 332.67,-131.82 335.18,-138.36"/>
</g>
<!-- Node7 -->
<g id="node7" class="node">
<title>Node7</title>
<g id="a_node7"><a xlink:title=" ">
<polygon fill="white" stroke="#bfbfbf" points="271.5,-56.5 271.5,-75.5 329.5,-75.5 329.5,-56.5 271.5,-56.5"/>
<text text-anchor="middle" x="300.5" y="-63.5" font-family="Helvetica,sans-Serif" font-size="10.00">wx/log.h</text>
</a>
</g>
</g>
<!-- Node5&#45;&gt;Node7 -->
<g id="edge6" class="edge">
<title>Node5&#45;&gt;Node7</title>
<path fill="none" stroke="midnightblue" d="M226.23,-168.36C229.16,-155.26 236.04,-130 248.5,-112 256.68,-100.19 268.65,-89.54 279.05,-81.57"/>
<polygon fill="midnightblue" stroke="midnightblue" points="281.29,-84.27 287.3,-75.54 277.16,-78.62 281.29,-84.27"/>
</g>
<!-- Node8 -->
<g id="node8" class="node">
<title>Node8</title>
<g id="a_node8"><a xlink:title=" ">
<polygon fill="white" stroke="#bfbfbf" points="0,-112.5 0,-131.5 45,-131.5 45,-112.5 0,-112.5"/>
<text text-anchor="middle" x="22.5" y="-119.5" font-family="Helvetica,sans-Serif" font-size="10.00">utility</text>
</a>
</g>
</g>
<!-- Node5&#45;&gt;Node8 -->
<g id="edge7" class="edge">
<title>Node5&#45;&gt;Node8</title>
<path fill="none" stroke="midnightblue" d="M196,-169.73C163.93,-161.51 110.05,-147.53 55.08,-132.39"/>
<polygon fill="midnightblue" stroke="midnightblue" points="55.74,-128.94 45.17,-129.65 53.87,-135.69 55.74,-128.94"/>
</g>
<!-- Node9 -->
<g id="node9" class="node">
<title>Node9</title>
<g id="a_node9"><a xlink:title=" ">
<polygon fill="white" stroke="#bfbfbf" points="63,-112.5 63,-131.5 116,-131.5 116,-112.5 63,-112.5"/>
<text text-anchor="middle" x="89.5" y="-119.5" font-family="Helvetica,sans-Serif" font-size="10.00">cstddef</text>
</a>
</g>
</g>
<!-- Node5&#45;&gt;Node9 -->
<g id="edge8" class="edge">
<title>Node5&#45;&gt;Node9</title>
<path fill="none" stroke="midnightblue" d="M203.11,-168.44C180.79,-159.52 145.6,-145.44 120.29,-135.32"/>
<polygon fill="midnightblue" stroke="midnightblue" points="121.38,-131.98 110.79,-131.52 118.78,-138.48 121.38,-131.98"/>
</g>
<!-- Node10 -->
<g id="node10" class="node">
<title>Node10</title>
<g id="a_node10"><a xlink:title=" ">
<polygon fill="white" stroke="#bfbfbf" points="1130.5,-56.5 1130.5,-75.5 1180.5,-75.5 1180.5,-56.5 1130.5,-56.5"/>
<text text-anchor="middle" x="1155.5" y="-63.5" font-family="Helvetica,sans-Serif" font-size="10.00">cstdint</text>
</a>
</g>
</g>
<!-- Node5&#45;&gt;Node10 -->
<g id="edge9" class="edge">
<title>Node5&#45;&gt;Node10</title>
<path fill="none" stroke="midnightblue" d="M233.52,-168.23C249.36,-153.46 283.92,-124.06 319.5,-112 396.04,-86.05 970.6,-71.22 1120.06,-67.78"/>
<polygon fill="midnightblue" stroke="midnightblue" points="1120.15,-71.28 1130.07,-67.55 1119.99,-64.28 1120.15,-71.28"/>
</g>
<!-- Node11 -->
<g id="node11" class="node">
<title>Node11</title>
<g id="a_node11"><a xlink:title=" ">
<polygon fill="white" stroke="#bfbfbf" points="134.5,-112.5 134.5,-131.5 196.5,-131.5 196.5,-112.5 134.5,-112.5"/>
<text text-anchor="middle" x="165.5" y="-119.5" font-family="Helvetica,sans-Serif" font-size="10.00">cinttypes</text>
</a>
</g>
</g>
<!-- Node5&#45;&gt;Node11 -->
<g id="edge10" class="edge">
<title>Node5&#45;&gt;Node11</title>
<path fill="none" stroke="midnightblue" d="M215.02,-168.32C206.3,-160.34 193.16,-148.31 182.6,-138.65"/>
<polygon fill="midnightblue" stroke="midnightblue" points="184.89,-136 175.15,-131.83 180.17,-141.17 184.89,-136"/>
</g>
<!-- Node5&#45;&gt;Node12 -->
<g id="edge11" class="edge">
<title>Node5&#45;&gt;Node12</title>
<path fill="none" stroke="midnightblue" d="M253.11,-169.68C255.94,-169.07 258.77,-168.49 261.5,-168 390.85,-144.62 427.98,-154.66 561.94,-131.89"/>
<polygon fill="midnightblue" stroke="midnightblue" points="562.92,-135.28 572.18,-130.12 561.73,-128.38 562.92,-135.28"/>
</g>
<!-- Node5&#45;&gt;Node13 -->
<g id="edge12" class="edge">
<title>Node5&#45;&gt;Node13</title>
<path fill="none" stroke="midnightblue" d="M253.18,-170C255.99,-169.32 258.8,-168.64 261.5,-168 312.46,-155.86 371.06,-142.25 410.2,-133.2"/>
<polygon fill="midnightblue" stroke="midnightblue" points="411.01,-136.61 419.96,-130.95 409.43,-129.79 411.01,-136.61"/>
</g>
<!-- Node14&#45;&gt;Node6 -->
<g id="edge14" class="edge">
<title>Node14&#45;&gt;Node6</title>
<path fill="none" stroke="midnightblue" d="M464.8,-168.44C445.56,-159.64 415.35,-145.81 393.3,-135.72"/>
<polygon fill="midnightblue" stroke="midnightblue" points="394.66,-132.5 384.11,-131.52 391.75,-138.86 394.66,-132.5"/>
</g>
<!-- Node14&#45;&gt;Node12 -->
<g id="edge15" class="edge">
<title>Node14&#45;&gt;Node12</title>
<path fill="none" stroke="midnightblue" d="M502.2,-168.44C521.44,-159.64 551.65,-145.81 573.7,-135.72"/>
<polygon fill="midnightblue" stroke="midnightblue" points="575.25,-138.86 582.89,-131.52 572.34,-132.5 575.25,-138.86"/>
</g>
<!-- Node14&#45;&gt;Node13 -->
<g id="edge16" class="edge">
<title>Node14&#45;&gt;Node13</title>
<path fill="none" stroke="midnightblue" d="M478.71,-168.08C474.74,-160.69 468.97,-149.95 464.07,-140.81"/>
<polygon fill="midnightblue" stroke="midnightblue" points="467.01,-138.91 459.2,-131.75 460.85,-142.22 467.01,-138.91"/>
</g>
<!-- Node15&#45;&gt;Node3 -->
<g id="edge18" class="edge">
<title>Node15&#45;&gt;Node3</title>
<path fill="none" stroke="midnightblue" d="M1387.32,-169.77C1392.1,-169.12 1396.89,-168.52 1401.5,-168 1454.32,-162.05 1837.2,-165.46 1878.5,-132 1892.04,-121.03 1896.27,-100.97 1897.43,-86.03"/>
<polygon fill="midnightblue" stroke="midnightblue" points="1900.94,-85.96 1897.83,-75.83 1893.94,-85.69 1900.94,-85.96"/>
</g>
<!-- Node15&#45;&gt;Node10 -->
<g id="edge34" class="edge">
<title>Node15&#45;&gt;Node10</title>
<path fill="none" stroke="midnightblue" d="M1310.46,-168.48C1286.2,-161.02 1252.23,-148.73 1225.5,-132 1203.88,-118.47 1182.97,-97.73 1169.72,-83.33"/>
<polygon fill="midnightblue" stroke="midnightblue" points="1172.14,-80.79 1162.86,-75.69 1166.94,-85.47 1172.14,-80.79"/>
</g>
<!-- Node15&#45;&gt;Node12 -->
<g id="edge35" class="edge">
<title>Node15&#45;&gt;Node12</title>
<path fill="none" stroke="midnightblue" d="M1295.64,-176.73C1184.66,-175.5 892.83,-168.85 640.94,-131.97"/>
<polygon fill="midnightblue" stroke="midnightblue" points="641.27,-128.48 630.86,-130.47 640.24,-135.4 641.27,-128.48"/>
</g>
<!-- Node16 -->
<g id="node16" class="node">
<title>Node16</title>
<g id="a_node16"><a xlink:title=" ">
<polygon fill="white" stroke="#bfbfbf" points="1461,-112.5 1461,-131.5 1518,-131.5 1518,-112.5 1461,-112.5"/>
<text text-anchor="middle" x="1489.5" y="-119.5" font-family="Helvetica,sans-Serif" font-size="10.00">wx/wx.h</text>
</a>
</g>
</g>
<!-- Node15&#45;&gt;Node16 -->
<g id="edge19" class="edge">
<title>Node15&#45;&gt;Node16</title>
<path fill="none" stroke="midnightblue" d="M1364.95,-168.44C1389.63,-159.44 1428.69,-145.19 1456.48,-135.05"/>
<polygon fill="midnightblue" stroke="midnightblue" points="1457.96,-138.23 1466.16,-131.52 1455.56,-131.66 1457.96,-138.23"/>
</g>
<!-- Node17 -->
<g id="node17" class="node">
<title>Node17</title>
<g id="a_node17"><a xlink:title=" ">
<polygon fill="white" stroke="#bfbfbf" points="1254.5,-56.5 1254.5,-75.5 1326.5,-75.5 1326.5,-56.5 1254.5,-56.5"/>
<text text-anchor="middle" x="1290.5" y="-63.5" font-family="Helvetica,sans-Serif" font-size="10.00">wx/config.h</text>
</a>
</g>
</g>
<!-- Node15&#45;&gt;Node17 -->
<g id="edge20" class="edge">
<title>Node15&#45;&gt;Node17</title>
<path fill="none" stroke="midnightblue" d="M1295.84,-170.09C1273.04,-164.08 1247.42,-152.87 1233.5,-132 1220.74,-112.85 1243.7,-93.33 1264.18,-80.74"/>
<polygon fill="midnightblue" stroke="midnightblue" points="1266.09,-83.68 1272.99,-75.64 1262.58,-77.63 1266.09,-83.68"/>
</g>
<!-- Node18 -->
<g id="node18" class="node">
<title>Node18</title>
<g id="a_node18"><a xlink:title=" ">
<polygon fill="white" stroke="#bfbfbf" points="1536,-112.5 1536,-131.5 1613,-131.5 1613,-112.5 1536,-112.5"/>
<text text-anchor="middle" x="1574.5" y="-119.5" font-family="Helvetica,sans-Serif" font-size="10.00">wx/display.h</text>
</a>
</g>
</g>
<!-- Node15&#45;&gt;Node18 -->
<g id="edge21" class="edge">
<title>Node15&#45;&gt;Node18</title>
<path fill="none" stroke="midnightblue" d="M1378.42,-168.44C1418.9,-159.06 1483.92,-143.99 1527.88,-133.8"/>
<polygon fill="midnightblue" stroke="midnightblue" points="1528.8,-137.18 1537.75,-131.52 1527.22,-130.36 1528.8,-137.18"/>
</g>
<!-- Node19 -->
<g id="node19" class="node">
<title>Node19</title>
<g id="a_node19"><a xlink:title=" ">
<polygon fill="white" stroke="#bfbfbf" points="1631.5,-112.5 1631.5,-131.5 1721.5,-131.5 1721.5,-112.5 1631.5,-112.5"/>
<text text-anchor="middle" x="1676.5" y="-119.5" font-family="Helvetica,sans-Serif" font-size="10.00">wx/fontenum.h</text>
</a>
</g>
</g>
<!-- Node15&#45;&gt;Node19 -->
<g id="edge22" class="edge">
<title>Node15&#45;&gt;Node19</title>
<path fill="none" stroke="midnightblue" d="M1387.27,-169.76C1440.88,-161.26 1532.67,-146.65 1621.45,-132.16"/>
<polygon fill="midnightblue" stroke="midnightblue" points="1622.12,-135.6 1631.42,-130.53 1620.99,-128.69 1622.12,-135.6"/>
</g>
<!-- Node20 -->
<g id="node20" class="node">
<title>Node20</title>
<g id="a_node20"><a xlink:title=" ">
<polygon fill="white" stroke="#bfbfbf" points="1417.5,-56.5 1417.5,-75.5 1505.5,-75.5 1505.5,-56.5 1417.5,-56.5"/>
<text text-anchor="middle" x="1461.5" y="-63.5" font-family="Helvetica,sans-Serif" font-size="10.00">wx/hashmap.h</text>
</a>
</g>
</g>
<!-- Node15&#45;&gt;Node20 -->
<g id="edge23" class="edge">
<title>Node15&#45;&gt;Node20</title>
<path fill="none" stroke="midnightblue" d="M1387.01,-169.98C1391.9,-169.28 1396.8,-168.61 1401.5,-168 1474.44,-158.54 1681.4,-186.76 1730.5,-132 1736.43,-125.38 1736.24,-118.78 1730.5,-112 1716.78,-95.8 1590.3,-80.22 1515.76,-72.33"/>
<polygon fill="midnightblue" stroke="midnightblue" points="1515.91,-68.83 1505.6,-71.27 1515.18,-75.79 1515.91,-68.83"/>
</g>
<!-- Node21 -->
<g id="node21" class="node">
<title>Node21</title>
<g id="a_node21"><a xlink:href="LoggingMessageDialog_8h.html" target="_top" xlink:title="This file declares a message dialog that sends its contents to the log message sink.">
<polygon fill="white" stroke="red" points="972,-112.5 972,-131.5 1149,-131.5 1149,-112.5 972,-112.5"/>
<text text-anchor="middle" x="1060.5" y="-119.5" font-family="Helvetica,sans-Serif" font-size="10.00">dialogs/LoggingMessageDialog.h</text>
</a>
</g>
</g>
<!-- Node15&#45;&gt;Node21 -->
<g id="edge24" class="edge">
<title>Node15&#45;&gt;Node21</title>
<path fill="none" stroke="midnightblue" d="M1296.97,-168.44C1247.54,-158.94 1167.75,-143.61 1114.72,-133.42"/>
<polygon fill="midnightblue" stroke="midnightblue" points="1115.3,-129.97 1104.82,-131.52 1113.98,-136.84 1115.3,-129.97"/>
</g>
<!-- Node15&#45;&gt;Node23 -->
<g id="edge27" class="edge">
<title>Node15&#45;&gt;Node23</title>
<path fill="none" stroke="midnightblue" d="M1333.08,-168.08C1325.65,-160.22 1314.65,-148.57 1305.69,-139.08"/>
<polygon fill="midnightblue" stroke="midnightblue" points="1308.18,-136.62 1298.76,-131.75 1303.09,-141.42 1308.18,-136.62"/>
</g>
<!-- Node40 -->
<g id="node24" class="node">
<title>Node40</title>
<g id="a_node24"><a xlink:title=" ">
<polygon fill="white" stroke="#bfbfbf" points="1596,-56.5 1596,-75.5 1689,-75.5 1689,-56.5 1596,-56.5"/>
<text text-anchor="middle" x="1642.5" y="-63.5" font-family="Helvetica,sans-Serif" font-size="10.00">unordered_map</text>
</a>
</g>
</g>
<!-- Node15&#45;&gt;Node40 -->
<g id="edge37" class="edge">
<title>Node15&#45;&gt;Node40</title>
<path fill="none" stroke="midnightblue" d="M1387.01,-169.95C1391.89,-169.26 1396.8,-168.6 1401.5,-168 1477.97,-158.28 1694.9,-189.26 1746.5,-132 1768.35,-107.75 1726.74,-89.24 1689.83,-78.28"/>
<polygon fill="midnightblue" stroke="midnightblue" points="1690.68,-74.88 1680.1,-75.53 1688.77,-81.62 1690.68,-74.88"/>
</g>
<!-- Node41 -->
<g id="node25" class="node">
<title>Node41</title>
<g id="a_node25"><a xlink:title=" ">
<polygon fill="white" stroke="#bfbfbf" points="2121.5,-112.5 2121.5,-131.5 2169.5,-131.5 2169.5,-112.5 2121.5,-112.5"/>
<text text-anchor="middle" x="2145.5" y="-119.5" font-family="Helvetica,sans-Serif" font-size="10.00">mutex</text>
</a>
</g>
</g>
<!-- Node15&#45;&gt;Node41 -->
<g id="edge36" class="edge">
<title>Node15&#45;&gt;Node41</title>
<path fill="none" stroke="midnightblue" d="M1387.35,-172.19C1402.37,-170.72 1419.13,-169.18 1434.5,-168 1718.56,-146.27 1790.79,-157.93 2074.5,-132 2086.44,-130.91 2099.46,-129.36 2111.05,-127.86"/>
<polygon fill="midnightblue" stroke="midnightblue" points="2111.78,-131.29 2121.23,-126.5 2110.85,-124.35 2111.78,-131.29"/>
</g>
<!-- Node42 -->
<g id="node26" class="node">
<title>Node42</title>
<g id="a_node26"><a xlink:title=" ">
<polygon fill="white" stroke="#bfbfbf" points="1815.5,-112.5 1815.5,-131.5 1869.5,-131.5 1869.5,-112.5 1815.5,-112.5"/>
<text text-anchor="middle" x="1842.5" y="-119.5" font-family="Helvetica,sans-Serif" font-size="10.00">random</text>
</a>
</g>
</g>
<!-- Node15&#45;&gt;Node42 -->
<g id="edge38" class="edge">
<title>Node15&#45;&gt;Node42</title>
<path fill="none" stroke="midnightblue" d="M1387.32,-169.84C1392.11,-169.18 1396.9,-168.55 1401.5,-168 1578.73,-146.75 1625.09,-159.19 1801.5,-132 1802.76,-131.81 1804.03,-131.6 1805.32,-131.38"/>
<polygon fill="midnightblue" stroke="midnightblue" points="1806.07,-134.79 1815.24,-129.49 1804.76,-127.92 1806.07,-134.79"/>
</g>
<!-- Node39 -->
<g id="node27" class="node">
<title>Node39</title>
<g id="a_node27"><a xlink:title=" ">
<polygon fill="white" stroke="#bfbfbf" points="1925.5,-112.5 1925.5,-131.5 1957.5,-131.5 1957.5,-112.5 1925.5,-112.5"/>
<text text-anchor="middle" x="1941.5" y="-119.5" font-family="Helvetica,sans-Serif" font-size="10.00">list</text>
</a>
</g>
</g>
<!-- Node15&#45;&gt;Node39 -->
<g id="edge39" class="edge">
<title>Node15&#45;&gt;Node39</title>
<path fill="none" stroke="midnightblue" d="M1387.31,-169.75C1392.1,-169.11 1396.89,-168.51 1401.5,-168 1627.37,-143.13 1687.98,-172.9 1911.5,-132 1912.79,-131.76 1914.11,-131.49 1915.44,-131.19"/>
<polygon fill="midnightblue" stroke="midnightblue" points="1916.7,-134.48 1925.47,-128.52 1914.9,-127.71 1916.7,-134.48"/>
</g>
<!-- Node15&#45;&gt;Node43 -->
<g id="edge40" class="edge">
<title>Node15&#45;&gt;Node43</title>
<path fill="none" stroke="midnightblue" d="M1295.82,-175.61C1154.53,-171.11 724.96,-155.95 564.35,-131.7"/>
<polygon fill="midnightblue" stroke="midnightblue" points="564.59,-128.19 554.16,-130.09 563.49,-135.11 564.59,-128.19"/>
</g>
<!-- Node15&#45;&gt;Node36 -->
<g id="edge41" class="edge">
<title>Node15&#45;&gt;Node36</title>
<path fill="none" stroke="midnightblue" d="M1295.92,-172.95C1224.7,-166.31 1082.8,-151.84 963.5,-132 963.4,-131.98 963.3,-131.97 963.2,-131.95"/>
<polygon fill="midnightblue" stroke="midnightblue" points="964.01,-128.54 953.55,-130.19 962.75,-135.43 964.01,-128.54"/>
</g>
<!-- Node44 -->
<g id="node30" class="node">
<title>Node44</title>
<g id="a_node30"><a xlink:title=" ">
<polygon fill="white" stroke="#bfbfbf" points="1976,-112.5 1976,-131.5 2065,-131.5 2065,-112.5 1976,-112.5"/>
<text text-anchor="middle" x="2020.5" y="-119.5" font-family="Helvetica,sans-Serif" font-size="10.00">wx/wupdlock.h</text>
</a>
</g>
</g>
<!-- Node15&#45;&gt;Node44 -->
<g id="edge42" class="edge">
<title>Node15&#45;&gt;Node44</title>
<path fill="none" stroke="midnightblue" d="M1387.31,-169.72C1392.09,-169.08 1396.89,-168.49 1401.5,-168 1648.4,-141.66 1714.78,-160.22 1965.61,-131.97"/>
<polygon fill="midnightblue" stroke="midnightblue" points="1966.22,-135.43 1975.76,-130.82 1965.43,-128.47 1966.22,-135.43"/>
</g>
<!-- Node45 -->
<g id="node31" class="node">
<title>Node45</title>
<g id="a_node31"><a xlink:title=" ">
<polygon fill="white" stroke="#bfbfbf" points="1356.5,-112.5 1356.5,-131.5 1442.5,-131.5 1442.5,-112.5 1356.5,-112.5"/>
<text text-anchor="middle" x="1399.5" y="-119.5" font-family="Helvetica,sans-Serif" font-size="10.00">wx/webview.h</text>
</a>
</g>
</g>
<!-- Node15&#45;&gt;Node45 -->
<g id="edge43" class="edge">
<title>Node15&#45;&gt;Node45</title>
<path fill="none" stroke="midnightblue" d="M1350.82,-168.32C1359.39,-160.34 1372.31,-148.31 1382.69,-138.65"/>
<polygon fill="midnightblue" stroke="midnightblue" points="1385.08,-141.21 1390.01,-131.83 1380.31,-136.09 1385.08,-141.21"/>
</g>
<!-- Node21&#45;&gt;Node3 -->
<g id="edge25" class="edge">
<title>Node21&#45;&gt;Node3</title>
<path fill="none" stroke="midnightblue" d="M1149.28,-115.27C1324.99,-103.94 1711.85,-78.98 1848.51,-70.16"/>
<polygon fill="midnightblue" stroke="midnightblue" points="1848.92,-73.64 1858.67,-69.5 1848.47,-66.66 1848.92,-73.64"/>
</g>
<!-- Node21&#45;&gt;Node7 -->
<g id="edge26" class="edge">
<title>Node21&#45;&gt;Node7</title>
<path fill="none" stroke="midnightblue" d="M971.83,-112.76C968.68,-112.5 965.57,-112.24 962.5,-112 726.27,-93.13 442.21,-75.53 339.74,-69.34"/>
<polygon fill="midnightblue" stroke="midnightblue" points="339.75,-65.84 329.56,-68.73 339.33,-72.82 339.75,-65.84"/>
</g>
<!-- Node23&#45;&gt;Node3 -->
<g id="edge28" class="edge">
<title>Node23&#45;&gt;Node3</title>
<path fill="none" stroke="midnightblue" d="M1338.67,-113.13C1341.65,-112.73 1344.62,-112.35 1347.5,-112 1531.98,-89.92 1752.59,-75.47 1848.72,-69.76"/>
<polygon fill="midnightblue" stroke="midnightblue" points="1848.95,-73.25 1858.72,-69.17 1848.54,-66.26 1848.95,-73.25"/>
</g>
<!-- Node23&#45;&gt;Node10 -->
<g id="edge32" class="edge">
<title>Node23&#45;&gt;Node10</title>
<path fill="none" stroke="midnightblue" d="M1269.11,-112.44C1246.79,-103.52 1211.6,-89.44 1186.29,-79.32"/>
<polygon fill="midnightblue" stroke="midnightblue" points="1187.38,-75.98 1176.79,-75.52 1184.78,-82.48 1187.38,-75.98"/>
</g>
<!-- Node23&#45;&gt;Node17 -->
<g id="edge31" class="edge">
<title>Node23&#45;&gt;Node17</title>
<path fill="none" stroke="midnightblue" d="M1290.5,-112.08C1290.5,-105.01 1290.5,-94.86 1290.5,-85.99"/>
<polygon fill="midnightblue" stroke="midnightblue" points="1294,-85.75 1290.5,-75.75 1287,-85.75 1294,-85.75"/>
</g>
<!-- Node23&#45;&gt;Node20 -->
<g id="edge30" class="edge">
<title>Node23&#45;&gt;Node20</title>
<path fill="none" stroke="midnightblue" d="M1317.6,-112.44C1346.49,-103.32 1392.42,-88.81 1424.61,-78.65"/>
<polygon fill="midnightblue" stroke="midnightblue" points="1426.05,-81.87 1434.53,-75.52 1423.94,-75.19 1426.05,-81.87"/>
</g>
<!-- Node23&#45;&gt;Node25 -->
<g id="edge29" class="edge">
<title>Node23&#45;&gt;Node25</title>
<path fill="none" stroke="midnightblue" d="M1278.77,-112.32C1267.66,-104.11 1250.76,-91.6 1237.52,-81.81"/>
<polygon fill="midnightblue" stroke="midnightblue" points="1239.56,-78.97 1229.44,-75.83 1235.4,-84.59 1239.56,-78.97"/>
</g>
<!-- Node23&#45;&gt;Node40 -->
<g id="edge33" class="edge">
<title>Node23&#45;&gt;Node40</title>
<path fill="none" stroke="midnightblue" d="M1338.7,-113.37C1341.68,-112.91 1344.63,-112.45 1347.5,-112 1430.5,-99.12 1526.68,-84.5 1586.07,-75.52"/>
<polygon fill="midnightblue" stroke="midnightblue" points="1586.63,-78.97 1595.99,-74.02 1585.58,-72.05 1586.63,-78.97"/>
</g>
<!-- Node47 -->
<g id="node33" class="node">
<title>Node47</title>
<g id="a_node33"><a xlink:title=" ">
<polygon fill="white" stroke="#bfbfbf" points="762,-112.5 762,-131.5 833,-131.5 833,-112.5 762,-112.5"/>
<text text-anchor="middle" x="797.5" y="-119.5" font-family="Helvetica,sans-Serif" font-size="10.00">wx/string.h</text>
</a>
</g>
</g>
<!-- Node46&#45;&gt;Node47 -->
<g id="edge45" class="edge">
<title>Node46&#45;&gt;Node47</title>
<path fill="none" stroke="midnightblue" d="M878.08,-168.32C862.96,-159.82 839.68,-146.73 822.03,-136.8"/>
<polygon fill="midnightblue" stroke="midnightblue" points="823.32,-133.51 812.89,-131.65 819.89,-139.61 823.32,-133.51"/>
</g>
<!-- Node48 -->
<g id="node34" class="node">
<title>Node48</title>
<g id="a_node34"><a xlink:title=" ">
<polygon fill="white" stroke="#bfbfbf" points="649,-112.5 649,-131.5 744,-131.5 744,-112.5 649,-112.5"/>
<text text-anchor="middle" x="696.5" y="-119.5" font-family="Helvetica,sans-Serif" font-size="10.00">wx/translation.h</text>
</a>
</g>
</g>
<!-- Node46&#45;&gt;Node48 -->
<g id="edge46" class="edge">
<title>Node46&#45;&gt;Node48</title>
<path fill="none" stroke="midnightblue" d="M862.28,-168.44C828.57,-159.2 774.7,-144.44 737.57,-134.26"/>
<polygon fill="midnightblue" stroke="midnightblue" points="738.14,-130.78 727.57,-131.52 736.29,-137.54 738.14,-130.78"/>
</g>
<!-- Node49&#45;&gt;Node6 -->
<g id="edge49" class="edge">
<title>Node49&#45;&gt;Node6</title>
<path fill="none" stroke="midnightblue" d="M333.77,-168.08C339.14,-160.46 347.02,-149.26 353.58,-139.94"/>
<polygon fill="midnightblue" stroke="midnightblue" points="356.45,-141.94 359.34,-131.75 350.72,-137.91 356.45,-141.94"/>
</g>
<!-- Node49&#45;&gt;Node7 -->
<g id="edge50" class="edge">
<title>Node49&#45;&gt;Node7</title>
<path fill="none" stroke="midnightblue" d="M325.38,-168.37C321.02,-150.62 310.97,-109.67 305.06,-85.6"/>
<polygon fill="midnightblue" stroke="midnightblue" points="308.39,-84.47 302.61,-75.59 301.59,-86.14 308.39,-84.47"/>
</g>
<!-- Node49&#45;&gt;Node13 -->
<g id="edge51" class="edge">
<title>Node49&#45;&gt;Node13</title>
<path fill="none" stroke="midnightblue" d="M347.62,-168.44C368.52,-159.56 401.43,-145.56 425.22,-135.45"/>
<polygon fill="midnightblue" stroke="midnightblue" points="426.64,-138.65 434.47,-131.52 423.9,-132.21 426.64,-138.65"/>
</g>
<!-- Node51&#45;&gt;Node3 -->
<g id="edge63" class="edge">
<title>Node51&#45;&gt;Node3</title>
<path fill="none" stroke="midnightblue" d="M1599.68,-225.6C1602.64,-224.98 1605.62,-224.43 1608.5,-224 1673.55,-214.19 2154.42,-235.91 2199.5,-188 2217.58,-168.78 2201.46,-130.77 2178.5,-112 2143.78,-83.61 2016.95,-72.85 1946.14,-69"/>
<polygon fill="midnightblue" stroke="midnightblue" points="1946.29,-65.5 1936.12,-68.48 1945.92,-72.49 1946.29,-65.5"/>
</g>
<!-- Node51&#45;&gt;Node12 -->
<g id="edge59" class="edge">
<title>Node51&#45;&gt;Node12</title>
<path fill="none" stroke="midnightblue" d="M1543.41,-229.2C1529.35,-227.4 1512.05,-225.36 1496.5,-224 1208.27,-198.75 1127.47,-257.05 846.5,-188 825.64,-182.87 822.88,-174.8 802.5,-168 735.15,-145.53 713.66,-148.25 640.68,-132.2"/>
<polygon fill="midnightblue" stroke="midnightblue" points="641.06,-128.7 630.54,-129.92 639.53,-135.53 641.06,-128.7"/>
</g>
<!-- Node51&#45;&gt;Node15 -->
<g id="edge64" class="edge">
<title>Node51&#45;&gt;Node15</title>
<path fill="none" stroke="midnightblue" d="M1543.3,-226.38C1504.52,-217.27 1434.26,-200.78 1387.73,-189.85"/>
<polygon fill="midnightblue" stroke="midnightblue" points="1388.43,-186.42 1377.9,-187.55 1386.83,-193.24 1388.43,-186.42"/>
</g>
<!-- Node52 -->
<g id="node38" class="node">
<title>Node52</title>
<g id="a_node38"><a xlink:title=" ">
<polygon fill="white" stroke="#bfbfbf" points="1992.5,-168.5 1992.5,-187.5 2040.5,-187.5 2040.5,-168.5 1992.5,-168.5"/>
<text text-anchor="middle" x="2016.5" y="-175.5" font-family="Helvetica,sans-Serif" font-size="10.00">thread</text>
</a>
</g>
</g>
<!-- Node51&#45;&gt;Node52 -->
<g id="edge60" class="edge">
<title>Node51&#45;&gt;Node52</title>
<path fill="none" stroke="midnightblue" d="M1599.7,-225.7C1602.66,-225.07 1605.63,-224.48 1608.5,-224 1770.37,-196.69 1816.99,-217.3 1982.43,-187.88"/>
<polygon fill="midnightblue" stroke="midnightblue" points="1983.24,-191.29 1992.46,-186.07 1981.99,-184.41 1983.24,-191.29"/>
</g>
<!-- Node53 -->
<g id="node39" class="node">
<title>Node53</title>
<g id="a_node39"><a xlink:href="ThreadNumberLimiter_8h.html" target="_top" xlink:title="A mutex that locks if we have too many background threads.">
<polygon fill="white" stroke="black" points="2058.5,-168.5 2058.5,-187.5 2190.5,-187.5 2190.5,-168.5 2058.5,-168.5"/>
<text text-anchor="middle" x="2124.5" y="-175.5" font-family="Helvetica,sans-Serif" font-size="10.00">ThreadNumberLimiter.h</text>
</a>
</g>
</g>
<!-- Node51&#45;&gt;Node53 -->
<g id="edge61" class="edge">
<title>Node51&#45;&gt;Node53</title>
<path fill="none" stroke="midnightblue" d="M1599.69,-225.66C1602.65,-225.03 1605.63,-224.46 1608.5,-224 1799.42,-193.18 1852.1,-207.23 2048.21,-188.09"/>
<polygon fill="midnightblue" stroke="midnightblue" points="2048.66,-191.56 2058.26,-187.09 2047.96,-184.59 2048.66,-191.56"/>
</g>
<!-- Node51&#45;&gt;Node54 -->
<g id="edge65" class="edge">
<title>Node51&#45;&gt;Node54</title>
<path fill="none" stroke="midnightblue" d="M1556.88,-224.32C1542.55,-215.82 1520.49,-202.73 1503.75,-192.8"/>
<polygon fill="midnightblue" stroke="midnightblue" points="1505.47,-189.75 1495.08,-187.65 1501.9,-195.77 1505.47,-189.75"/>
</g>
<!-- Node55 -->
<g id="node41" class="node">
<title>Node55</title>
<g id="a_node41"><a xlink:title=" ">
<polygon fill="white" stroke="#bfbfbf" points="1536,-168.5 1536,-187.5 1607,-187.5 1607,-168.5 1536,-168.5"/>
<text text-anchor="middle" x="1571.5" y="-175.5" font-family="Helvetica,sans-Serif" font-size="10.00">wx/buffer.h</text>
</a>
</g>
</g>
<!-- Node51&#45;&gt;Node55 -->
<g id="edge66" class="edge">
<title>Node51&#45;&gt;Node55</title>
<path fill="none" stroke="midnightblue" d="M1571.5,-224.08C1571.5,-217.01 1571.5,-206.86 1571.5,-197.99"/>
<polygon fill="midnightblue" stroke="midnightblue" points="1575,-197.75 1571.5,-187.75 1568,-197.75 1575,-197.75"/>
</g>
<!-- Node56 -->
<g id="node42" class="node">
<title>Node56</title>
<g id="a_node42"><a xlink:title=" ">
<polygon fill="white" stroke="#bfbfbf" points="1625.5,-168.5 1625.5,-187.5 1705.5,-187.5 1705.5,-168.5 1625.5,-168.5"/>
<text text-anchor="middle" x="1665.5" y="-175.5" font-family="Helvetica,sans-Serif" font-size="10.00">wx/zipstrm.h</text>
</a>
</g>
</g>
<!-- Node51&#45;&gt;Node56 -->
<g id="edge67" class="edge">
<title>Node51&#45;&gt;Node56</title>
<path fill="none" stroke="midnightblue" d="M1586.6,-224.32C1601.4,-215.82 1624.19,-202.73 1641.48,-192.8"/>
<polygon fill="midnightblue" stroke="midnightblue" points="1643.51,-195.67 1650.43,-187.65 1640.02,-189.6 1643.51,-195.67"/>
</g>
<!-- Node51&#45;&gt;Node57 -->
<g id="edge68" class="edge">
<title>Node51&#45;&gt;Node57</title>
<path fill="none" stroke="midnightblue" d="M1599.68,-225.59C1602.64,-224.98 1605.62,-224.43 1608.5,-224 1883.25,-183 1956.22,-216.98 2232.5,-188 2233.8,-187.86 2235.12,-187.72 2236.45,-187.57"/>
<polygon fill="midnightblue" stroke="midnightblue" points="2237.29,-190.99 2246.78,-186.27 2236.42,-184.04 2237.29,-190.99"/>
</g>
<!-- Node58 -->
<g id="node44" class="node">
<title>Node58</title>
<g id="a_node44"><a xlink:title=" ">
<polygon fill="white" stroke="#bfbfbf" points="1724,-168.5 1724,-187.5 1831,-187.5 1831,-168.5 1724,-168.5"/>
<text text-anchor="middle" x="1777.5" y="-175.5" font-family="Helvetica,sans-Serif" font-size="10.00">nanosvg_private.h</text>
</a>
</g>
</g>
<!-- Node51&#45;&gt;Node58 -->
<g id="edge69" class="edge">
<title>Node51&#45;&gt;Node58</title>
<path fill="none" stroke="midnightblue" d="M1599.71,-225.6C1634.66,-216.44 1694.52,-200.75 1735.03,-190.13"/>
<polygon fill="midnightblue" stroke="midnightblue" points="1736.09,-193.47 1744.88,-187.55 1734.32,-186.7 1736.09,-193.47"/>
</g>
<!-- Node59 -->
<g id="node45" class="node">
<title>Node59</title>
<g id="a_node45"><a xlink:title=" ">
<polygon fill="white" stroke="#bfbfbf" points="1849,-168.5 1849,-187.5 1974,-187.5 1974,-168.5 1849,-168.5"/>
<text text-anchor="middle" x="1911.5" y="-175.5" font-family="Helvetica,sans-Serif" font-size="10.00">nanosvgrast_private.h</text>
</a>
</g>
</g>
<!-- Node51&#45;&gt;Node59 -->
<g id="edge70" class="edge">
<title>Node51&#45;&gt;Node59</title>
<path fill="none" stroke="midnightblue" d="M1599.72,-225.85C1602.68,-225.19 1605.65,-224.56 1608.5,-224 1651.37,-215.62 1763.99,-199.47 1839.19,-188.96"/>
<polygon fill="midnightblue" stroke="midnightblue" points="1840.12,-192.37 1849.54,-187.52 1839.15,-185.44 1840.12,-192.37"/>
</g>
<!-- Node53&#45;&gt;Node41 -->
<g id="edge62" class="edge">
<title>Node53&#45;&gt;Node41</title>
<path fill="none" stroke="midnightblue" d="M2127.97,-168.08C2130.81,-160.77 2134.93,-150.18 2138.46,-141.1"/>
<polygon fill="midnightblue" stroke="midnightblue" points="2141.73,-142.34 2142.1,-131.75 2135.21,-139.8 2141.73,-142.34"/>
</g>
<!-- Node60&#45;&gt;Node2 -->
<g id="edge73" class="edge">
<title>Node60&#45;&gt;Node2</title>
<path fill="none" stroke="midnightblue" d="M1455.84,-289.03C1343.26,-288.51 1034.18,-283.31 780.5,-244 779.25,-243.81 777.97,-243.59 776.69,-243.35"/>
<polygon fill="midnightblue" stroke="midnightblue" points="777.35,-239.91 766.84,-241.26 775.89,-246.76 777.35,-239.91"/>
</g>
<!-- Node60&#45;&gt;Node12 -->
<g id="edge72" class="edge">
<title>Node60&#45;&gt;Node12</title>
<path fill="none" stroke="midnightblue" d="M1455.62,-285.96C1344.69,-277.57 1044.62,-250.44 802.5,-188 778.12,-181.71 773.33,-176.11 749.5,-168 712.72,-155.49 670.26,-142.75 640.27,-134.03"/>
<polygon fill="midnightblue" stroke="midnightblue" points="641.18,-130.65 630.61,-131.24 639.24,-137.38 641.18,-130.65"/>
</g>
<!-- Node60&#45;&gt;Node51 -->
<g id="edge75" class="edge">
<title>Node60&#45;&gt;Node51</title>
<path fill="none" stroke="midnightblue" d="M1511.07,-280.32C1521.92,-272.18 1538.38,-259.84 1551.38,-250.09"/>
<polygon fill="midnightblue" stroke="midnightblue" points="1553.82,-252.63 1559.72,-243.83 1549.62,-247.03 1553.82,-252.63"/>
</g>
<!-- Node60&#45;&gt;Node54 -->
<g id="edge74" class="edge">
<title>Node60&#45;&gt;Node54</title>
<path fill="none" stroke="midnightblue" d="M1499.9,-280.49C1500.31,-267.98 1500.42,-243.95 1496.5,-224 1494.72,-214.95 1491.47,-205.27 1488.36,-197.21"/>
<polygon fill="midnightblue" stroke="midnightblue" points="1491.51,-195.68 1484.48,-187.75 1485.03,-198.33 1491.51,-195.68"/>
</g>
<!-- Node61 -->
<g id="node47" class="node">
<title>Node61</title>
<g id="a_node47"><a xlink:title=" ">
<polygon fill="white" stroke="#bfbfbf" points="1413.5,-224.5 1413.5,-243.5 1487.5,-243.5 1487.5,-224.5 1413.5,-224.5"/>
<text text-anchor="middle" x="1450.5" y="-231.5" font-family="Helvetica,sans-Serif" font-size="10.00">wx/filesys.h</text>
</a>
</g>
</g>
<!-- Node60&#45;&gt;Node61 -->
<g id="edge76" class="edge">
<title>Node60&#45;&gt;Node61</title>
<path fill="none" stroke="midnightblue" d="M1491.41,-280.08C1484.34,-272.3 1473.91,-260.8 1465.35,-251.37"/>
<polygon fill="midnightblue" stroke="midnightblue" points="1467.75,-248.8 1458.44,-243.75 1462.57,-253.51 1467.75,-248.8"/>
</g>
<!-- Node60&#45;&gt;Node62 -->
<g id="edge77" class="edge">
<title>Node60&#45;&gt;Node62</title>
<path fill="none" stroke="midnightblue" d="M1523.9,-280.44C1549.7,-271.4 1590.58,-257.06 1619.52,-246.92"/>
<polygon fill="midnightblue" stroke="midnightblue" points="1620.93,-250.13 1629.21,-243.52 1618.62,-243.52 1620.93,-250.13"/>
</g>
</g>
</svg>
