<?xml version="1.0" encoding="UTF-8" standalone="no"?>
<!DOCTYPE svg PUBLIC "-//W3C//DTD SVG 1.1//EN"
 "http://www.w3.org/Graphics/SVG/1.1/DTD/svg11.dtd">
<!-- Generated by graphviz version 2.43.0 (0)
 -->
<!-- Title: src/cells/AtCell.cpp Pages: 1 -->
<svg width="2575pt" height="412pt"
 viewBox="0.00 0.00 2574.50 412.00" xmlns="http://www.w3.org/2000/svg" xmlns:xlink="http://www.w3.org/1999/xlink">
<g id="graph0" class="graph" transform="scale(1 1) rotate(0) translate(4 408)">
<title>src/cells/AtCell.cpp</title>
<!-- Node1 -->
<g id="node1" class="node">
<title>Node1</title>
<g id="a_node1"><a xlink:title="This file defines the class AtCell.">
<polygon fill="#999999" stroke="#666666" points="176.5,-404 67.5,-404 67.5,-385 176.5,-385 176.5,-404"/>
<text text-anchor="middle" x="122" y="-392" font-family="Helvetica,sans-Serif" font-size="10.00">src/cells/AtCell.cpp</text>
</a>
</g>
</g>
<!-- Node2 -->
<g id="node2" class="node">
<title>Node2</title>
<g id="a_node2"><a xlink:title=" ">
<polygon fill="#e0e0e0" stroke="#999999" points="256,-129 198,-129 198,-110 256,-110 256,-129"/>
<text text-anchor="middle" x="227" y="-117" font-family="Helvetica,sans-Serif" font-size="10.00">memory</text>
</a>
</g>
</g>
<!-- Node1&#45;&gt;Node2 -->
<g id="edge1" class="edge">
<title>Node1&#45;&gt;Node2</title>
<path fill="none" stroke="#63b8ff" d="M118.11,-384.74C110.41,-366.6 94,-323.46 94,-285.5 94,-285.5 94,-285.5 94,-228.5 94,-178.87 150.5,-148.05 189.85,-132.61"/>
<polygon fill="#63b8ff" stroke="#63b8ff" points="191.31,-135.8 199.44,-129.02 188.85,-129.25 191.31,-135.8"/>
</g>
<!-- Node3 -->
<g id="node3" class="node">
<title>Node3</title>
<g id="a_node3"><a xlink:title=" ">
<polygon fill="#e0e0e0" stroke="#999999" points="1854.5,-129 1809.5,-129 1809.5,-110 1854.5,-110 1854.5,-129"/>
<text text-anchor="middle" x="1832" y="-117" font-family="Helvetica,sans-Serif" font-size="10.00">utility</text>
</a>
</g>
</g>
<!-- Node1&#45;&gt;Node3 -->
<g id="edge2" class="edge">
<title>Node1&#45;&gt;Node3</title>
<path fill="none" stroke="#63b8ff" d="M176.96,-392.97C469.65,-389.8 1832,-370.46 1832,-285.5 1832,-285.5 1832,-285.5 1832,-228.5 1832,-197.19 1832,-160.77 1832,-139.23"/>
<polygon fill="#63b8ff" stroke="#63b8ff" points="1835.5,-139.18 1832,-129.18 1828.5,-139.18 1835.5,-139.18"/>
</g>
<!-- Node4 -->
<g id="node4" class="node">
<title>Node4</title>
<g id="a_node4"><a xlink:href="AtCell_8h_source.html" target="_top" xlink:title=" ">
<polygon fill="white" stroke="#666666" points="177.5,-349 122.5,-349 122.5,-330 177.5,-330 177.5,-349"/>
<text text-anchor="middle" x="150" y="-337" font-family="Helvetica,sans-Serif" font-size="10.00">AtCell.h</text>
</a>
</g>
</g>
<!-- Node1&#45;&gt;Node4 -->
<g id="edge3" class="edge">
<title>Node1&#45;&gt;Node4</title>
<path fill="none" stroke="#63b8ff" d="M126.62,-384.75C130.46,-377.49 136.02,-366.95 140.76,-357.98"/>
<polygon fill="#63b8ff" stroke="#63b8ff" points="143.89,-359.57 145.46,-349.09 137.7,-356.3 143.89,-359.57"/>
</g>
<!-- Node59 -->
<g id="node50" class="node">
<title>Node59</title>
<g id="a_node50"><a xlink:href="CellImpl_8h.html" target="_top" xlink:title="Macros and types used only by cell implementations, not by cell users.">
<polygon fill="white" stroke="#666666" points="66,-294 0,-294 0,-275 66,-275 66,-294"/>
<text text-anchor="middle" x="33" y="-282" font-family="Helvetica,sans-Serif" font-size="10.00">CellImpl.h</text>
</a>
</g>
</g>
<!-- Node1&#45;&gt;Node59 -->
<g id="edge84" class="edge">
<title>Node1&#45;&gt;Node59</title>
<path fill="none" stroke="#63b8ff" d="M113.31,-384.92C104.59,-376.16 90.91,-362.03 80,-349 67.39,-333.93 54.18,-315.85 44.99,-302.84"/>
<polygon fill="#63b8ff" stroke="#63b8ff" points="47.67,-300.57 39.07,-294.38 41.93,-304.58 47.67,-300.57"/>
</g>
<!-- Node4&#45;&gt;Node2 -->
<g id="edge83" class="edge">
<title>Node4&#45;&gt;Node2</title>
<path fill="none" stroke="#63b8ff" d="M153.02,-329.95C164.37,-297.81 204.67,-183.72 220.53,-138.83"/>
<polygon fill="#63b8ff" stroke="#63b8ff" points="223.89,-139.82 223.92,-129.22 217.29,-137.49 223.89,-139.82"/>
</g>
<!-- Node5 -->
<g id="node5" class="node">
<title>Node5</title>
<g id="a_node5"><a xlink:href="Cell_8h.html" target="_top" xlink:title="The definition of the base class of all cells the worksheet consists of.">
<polygon fill="white" stroke="#666666" points="1221,-294 1177,-294 1177,-275 1221,-275 1221,-294"/>
<text text-anchor="middle" x="1199" y="-282" font-family="Helvetica,sans-Serif" font-size="10.00">Cell.h</text>
</a>
</g>
</g>
<!-- Node4&#45;&gt;Node5 -->
<g id="edge4" class="edge">
<title>Node4&#45;&gt;Node5</title>
<path fill="none" stroke="#63b8ff" d="M177.52,-337.11C323.68,-329.72 1008.31,-295.13 1166.38,-287.15"/>
<polygon fill="#63b8ff" stroke="#63b8ff" points="1167.03,-290.62 1176.84,-286.62 1166.67,-283.63 1167.03,-290.62"/>
</g>
<!-- Node5&#45;&gt;Node2 -->
<g id="edge80" class="edge">
<title>Node5&#45;&gt;Node2</title>
<path fill="none" stroke="#63b8ff" d="M1176.89,-283.11C1064.39,-280.98 554.83,-269.79 400,-239 327.48,-224.58 292.87,-238.58 243,-184 231.98,-171.94 228.29,-153.4 227.17,-139.46"/>
<polygon fill="#63b8ff" stroke="#63b8ff" points="230.65,-138.92 226.74,-129.08 223.66,-139.22 230.65,-138.92"/>
</g>
<!-- Node6 -->
<g id="node6" class="node">
<title>Node6</title>
<g id="a_node6"><a xlink:href="precomp_8h_source.html" target="_top" xlink:title=" ">
<polygon fill="white" stroke="#666666" points="913.5,-74 836.5,-74 836.5,-55 913.5,-55 913.5,-74"/>
<text text-anchor="middle" x="875" y="-62" font-family="Helvetica,sans-Serif" font-size="10.00">../precomp.h</text>
</a>
</g>
</g>
<!-- Node5&#45;&gt;Node6 -->
<g id="edge5" class="edge">
<title>Node5&#45;&gt;Node6</title>
<path fill="none" stroke="#63b8ff" d="M1176.67,-283.3C1045.15,-282.01 374.26,-273.76 290,-239 228.65,-213.69 209.52,-192.12 189,-129 186.39,-120.97 183.23,-116.16 189,-110 232.34,-63.76 676,-63.62 825.86,-64.91"/>
<polygon fill="#63b8ff" stroke="#63b8ff" points="826.1,-68.41 836.13,-65 826.16,-61.41 826.1,-68.41"/>
</g>
<!-- Node8 -->
<g id="node8" class="node">
<title>Node8</title>
<g id="a_node8"><a xlink:href="CellPtr_8h.html" target="_top" xlink:title="Implementation of an observing weak Cell pointer.">
<polygon fill="white" stroke="#666666" points="581.5,-184 524.5,-184 524.5,-165 581.5,-165 581.5,-184"/>
<text text-anchor="middle" x="553" y="-172" font-family="Helvetica,sans-Serif" font-size="10.00">CellPtr.h</text>
</a>
</g>
</g>
<!-- Node5&#45;&gt;Node8 -->
<g id="edge7" class="edge">
<title>Node5&#45;&gt;Node8</title>
<path fill="none" stroke="#63b8ff" d="M1176.78,-280.09C1097.66,-267.91 822.29,-225.03 596,-184 594.55,-183.74 593.07,-183.47 591.58,-183.19"/>
<polygon fill="#63b8ff" stroke="#63b8ff" points="592.14,-179.73 581.66,-181.3 590.82,-186.61 592.14,-179.73"/>
</g>
<!-- Node14 -->
<g id="node14" class="node">
<title>Node14</title>
<g id="a_node14"><a xlink:title=" ">
<polygon fill="#e0e0e0" stroke="#999999" points="505.5,-129 436.5,-129 436.5,-110 505.5,-110 505.5,-129"/>
<text text-anchor="middle" x="471" y="-117" font-family="Helvetica,sans-Serif" font-size="10.00">type_traits</text>
</a>
</g>
</g>
<!-- Node5&#45;&gt;Node14 -->
<g id="edge82" class="edge">
<title>Node5&#45;&gt;Node14</title>
<path fill="none" stroke="#63b8ff" d="M1176.67,-282.72C1071.79,-278.7 628.38,-257.56 515,-184 498.16,-173.07 485.97,-153.22 478.75,-138.61"/>
<polygon fill="#63b8ff" stroke="#63b8ff" points="481.74,-136.72 474.38,-129.1 475.38,-139.65 481.74,-136.72"/>
</g>
<!-- Node15 -->
<g id="node15" class="node">
<title>Node15</title>
<g id="a_node15"><a xlink:href="CellIterators_8h.html" target="_top" xlink:title="Declares the various iterators useful with the Cell class.">
<polygon fill="white" stroke="#666666" points="360,-184 274,-184 274,-165 360,-165 360,-184"/>
<text text-anchor="middle" x="317" y="-172" font-family="Helvetica,sans-Serif" font-size="10.00">CellIterators.h</text>
</a>
</g>
</g>
<!-- Node5&#45;&gt;Node15 -->
<g id="edge16" class="edge">
<title>Node5&#45;&gt;Node15</title>
<path fill="none" stroke="#63b8ff" d="M1176.91,-283.29C1068.94,-282.08 596.13,-274.82 454,-239 411.44,-228.27 365.94,-204.41 339.56,-189.19"/>
<polygon fill="#63b8ff" stroke="#63b8ff" points="341.14,-186.06 330.75,-184.01 337.6,-192.09 341.14,-186.06"/>
</g>
<!-- Node17 -->
<g id="node17" class="node">
<title>Node17</title>
<g id="a_node17"><a xlink:href="Configuration_8h_source.html" target="_top" xlink:title=" ">
<polygon fill="white" stroke="#666666" points="1460.5,-239 1369.5,-239 1369.5,-220 1460.5,-220 1460.5,-239"/>
<text text-anchor="middle" x="1415" y="-227" font-family="Helvetica,sans-Serif" font-size="10.00">Configuration.h</text>
</a>
</g>
</g>
<!-- Node5&#45;&gt;Node17 -->
<g id="edge21" class="edge">
<title>Node5&#45;&gt;Node17</title>
<path fill="none" stroke="#63b8ff" d="M1221.3,-278.03C1256.28,-269.45 1324.71,-252.65 1370.15,-241.5"/>
<polygon fill="#63b8ff" stroke="#63b8ff" points="1371.16,-244.86 1380.04,-239.08 1369.5,-238.06 1371.16,-244.86"/>
</g>
<!-- Node25 -->
<g id="node24" class="node">
<title>Node25</title>
<g id="a_node24"><a xlink:href="TextStyle_8h.html" target="_top" xlink:title="This file declares everything needed for the text style system used to style all the elements on the ...">
<polygon fill="#fff0f0" stroke="red" points="1971,-129 1875,-129 1875,-110 1971,-110 1971,-129"/>
<text text-anchor="middle" x="1923" y="-117" font-family="Helvetica,sans-Serif" font-size="10.00">cells/TextStyle.h</text>
</a>
</g>
</g>
<!-- Node5&#45;&gt;Node25 -->
<g id="edge72" class="edge">
<title>Node5&#45;&gt;Node25</title>
<path fill="none" stroke="#63b8ff" d="M1221.14,-284C1301.18,-285.37 1582.61,-286.33 1808,-239 1879.54,-223.98 1920.83,-243.71 1963,-184 1974.35,-167.93 1958.39,-148.72 1943.39,-135.67"/>
<polygon fill="#63b8ff" stroke="#63b8ff" points="1945.3,-132.71 1935.33,-129.11 1940.88,-138.14 1945.3,-132.71"/>
</g>
<!-- Node27 -->
<g id="node26" class="node">
<title>Node27</title>
<g id="a_node26"><a xlink:title=" ">
<polygon fill="#e0e0e0" stroke="#999999" points="1720,-74 1682,-74 1682,-55 1720,-55 1720,-74"/>
<text text-anchor="middle" x="1701" y="-62" font-family="Helvetica,sans-Serif" font-size="10.00">map</text>
</a>
</g>
</g>
<!-- Node5&#45;&gt;Node27 -->
<g id="edge79" class="edge">
<title>Node5&#45;&gt;Node27</title>
<path fill="none" stroke="#63b8ff" d="M1221.23,-282.53C1309.01,-278.21 1629.85,-257.51 1692,-184 1715.67,-156 1710.82,-109.77 1705.63,-84.12"/>
<polygon fill="#63b8ff" stroke="#63b8ff" points="1709.01,-83.19 1703.4,-74.2 1702.18,-84.73 1709.01,-83.19"/>
</g>
<!-- Node36 -->
<g id="node33" class="node">
<title>Node36</title>
<g id="a_node33"><a xlink:title=" ">
<polygon fill="#e0e0e0" stroke="#999999" points="1686,-19 1622,-19 1622,0 1686,0 1686,-19"/>
<text text-anchor="middle" x="1654" y="-7" font-family="Helvetica,sans-Serif" font-size="10.00">algorithm</text>
</a>
</g>
</g>
<!-- Node5&#45;&gt;Node36 -->
<g id="edge78" class="edge">
<title>Node5&#45;&gt;Node36</title>
<path fill="none" stroke="#63b8ff" d="M1221.28,-283.52C1322.62,-283.39 1736.76,-280.31 1775,-239 1780.74,-232.8 1777.54,-228.05 1775,-220 1751.24,-144.49 1707.45,-145.27 1673,-74 1666.03,-59.58 1661.02,-42.06 1657.9,-29.08"/>
<polygon fill="#63b8ff" stroke="#63b8ff" points="1661.25,-28.03 1655.65,-19.04 1654.42,-29.56 1661.25,-28.03"/>
</g>
<!-- Node49 -->
<g id="node39" class="node">
<title>Node49</title>
<g id="a_node39"><a xlink:title=" ">
<polygon fill="#e0e0e0" stroke="#999999" points="2074.5,-129 2027.5,-129 2027.5,-110 2074.5,-110 2074.5,-129"/>
<text text-anchor="middle" x="2051" y="-117" font-family="Helvetica,sans-Serif" font-size="10.00">vector</text>
</a>
</g>
</g>
<!-- Node5&#45;&gt;Node49 -->
<g id="edge81" class="edge">
<title>Node5&#45;&gt;Node49</title>
<path fill="none" stroke="#63b8ff" d="M1221.22,-283.35C1323.75,-282.46 1751.46,-276.54 1879,-239 1944.86,-219.62 2007.37,-164.1 2035.47,-136.49"/>
<polygon fill="#63b8ff" stroke="#63b8ff" points="2038.17,-138.74 2042.76,-129.19 2033.22,-133.79 2038.17,-138.74"/>
</g>
<!-- Node54 -->
<g id="node45" class="node">
<title>Node54</title>
<g id="a_node45"><a xlink:href="StringUtils_8h_source.html" target="_top" xlink:title=" ">
<polygon fill="white" stroke="#666666" points="2274.5,-239 2197.5,-239 2197.5,-220 2274.5,-220 2274.5,-239"/>
<text text-anchor="middle" x="2236" y="-227" font-family="Helvetica,sans-Serif" font-size="10.00">StringUtils.h</text>
</a>
</g>
</g>
<!-- Node5&#45;&gt;Node54 -->
<g id="edge69" class="edge">
<title>Node5&#45;&gt;Node54</title>
<path fill="none" stroke="#63b8ff" d="M1221.2,-282.57C1323.03,-278.26 1755.5,-259.61 2110,-239 2135.55,-237.51 2163.99,-235.62 2187.38,-233.99"/>
<polygon fill="#63b8ff" stroke="#63b8ff" points="2187.68,-237.48 2197.41,-233.29 2187.19,-230.5 2187.68,-237.48"/>
</g>
<!-- Node57 -->
<g id="node48" class="node">
<title>Node57</title>
<g id="a_node48"><a xlink:href="CachedValue_8h.html" target="_top" xlink:title="Declares &quot;mostly read&#45;only&quot; wrappers around values that are expensive to compute and are thus cached.">
<polygon fill="#fff0f0" stroke="red" points="467.5,-184 378.5,-184 378.5,-165 467.5,-165 467.5,-184"/>
<text text-anchor="middle" x="423" y="-172" font-family="Helvetica,sans-Serif" font-size="10.00">CachedValue.h</text>
</a>
</g>
</g>
<!-- Node5&#45;&gt;Node57 -->
<g id="edge73" class="edge">
<title>Node5&#45;&gt;Node57</title>
<path fill="none" stroke="#63b8ff" d="M1176.7,-283.1C1062.52,-280.9 546.12,-269.35 482,-239 461.05,-229.08 443.95,-208.11 433.65,-192.98"/>
<polygon fill="#63b8ff" stroke="#63b8ff" points="436.52,-190.96 428.15,-184.46 430.64,-194.76 436.52,-190.96"/>
</g>
<!-- Node58 -->
<g id="node49" class="node">
<title>Node58</title>
<g id="a_node49"><a xlink:title=" ">
<polygon fill="#e0e0e0" stroke="#999999" points="1766,-239 1702,-239 1702,-220 1766,-220 1766,-239"/>
<text text-anchor="middle" x="1734" y="-227" font-family="Helvetica,sans-Serif" font-size="10.00">wx/defs.h</text>
</a>
</g>
</g>
<!-- Node5&#45;&gt;Node58 -->
<g id="edge77" class="edge">
<title>Node5&#45;&gt;Node58</title>
<path fill="none" stroke="#63b8ff" d="M1221.01,-282.22C1290.08,-278.05 1508.54,-263.69 1688,-239 1689.27,-238.83 1690.55,-238.64 1691.85,-238.45"/>
<polygon fill="#63b8ff" stroke="#63b8ff" points="1692.58,-241.87 1701.89,-236.82 1691.46,-234.96 1692.58,-241.87"/>
</g>
<!-- Node7 -->
<g id="node7" class="node">
<title>Node7</title>
<g id="a_node7"><a xlink:title=" ">
<polygon fill="#e0e0e0" stroke="#999999" points="915.5,-19 834.5,-19 834.5,0 915.5,0 915.5,-19"/>
<text text-anchor="middle" x="875" y="-7" font-family="Helvetica,sans-Serif" font-size="10.00">BuildConfig.h</text>
</a>
</g>
</g>
<!-- Node6&#45;&gt;Node7 -->
<g id="edge6" class="edge">
<title>Node6&#45;&gt;Node7</title>
<path fill="none" stroke="#63b8ff" d="M875,-54.75C875,-47.8 875,-37.85 875,-29.13"/>
<polygon fill="#63b8ff" stroke="#63b8ff" points="878.5,-29.09 875,-19.09 871.5,-29.09 878.5,-29.09"/>
</g>
<!-- Node8&#45;&gt;Node2 -->
<g id="edge14" class="edge">
<title>Node8&#45;&gt;Node2</title>
<path fill="none" stroke="#63b8ff" d="M524.28,-169.71C474.02,-162.94 366.67,-147.85 266.03,-129.08"/>
<polygon fill="#63b8ff" stroke="#63b8ff" points="266.48,-125.61 256,-127.2 265.19,-132.49 266.48,-125.61"/>
</g>
<!-- Node8&#45;&gt;Node3 -->
<g id="edge10" class="edge">
<title>Node8&#45;&gt;Node3</title>
<path fill="none" stroke="#63b8ff" d="M581.82,-169.75C596.01,-168.04 613.38,-166.15 629,-165 1083.17,-131.67 1198,-147.8 1653,-129 1703.99,-126.89 1763.13,-124 1799.03,-122.19"/>
<polygon fill="#63b8ff" stroke="#63b8ff" points="1799.59,-125.66 1809.4,-121.66 1799.23,-118.67 1799.59,-125.66"/>
</g>
<!-- Node9 -->
<g id="node9" class="node">
<title>Node9</title>
<g id="a_node9"><a xlink:title=" ">
<polygon fill="#e0e0e0" stroke="#999999" points="418.5,-129 345.5,-129 345.5,-110 418.5,-110 418.5,-129"/>
<text text-anchor="middle" x="382" y="-117" font-family="Helvetica,sans-Serif" font-size="10.00">wx/debug.h</text>
</a>
</g>
</g>
<!-- Node8&#45;&gt;Node9 -->
<g id="edge8" class="edge">
<title>Node8&#45;&gt;Node9</title>
<path fill="none" stroke="#63b8ff" d="M525.53,-164.98C496.82,-156.09 451.58,-142.07 419.58,-132.15"/>
<polygon fill="#63b8ff" stroke="#63b8ff" points="420.28,-128.7 409.69,-129.08 418.2,-135.39 420.28,-128.7"/>
</g>
<!-- Node10 -->
<g id="node10" class="node">
<title>Node10</title>
<g id="a_node10"><a xlink:title=" ">
<polygon fill="#e0e0e0" stroke="#999999" points="733,-129 675,-129 675,-110 733,-110 733,-129"/>
<text text-anchor="middle" x="704" y="-117" font-family="Helvetica,sans-Serif" font-size="10.00">wx/log.h</text>
</a>
</g>
</g>
<!-- Node8&#45;&gt;Node10 -->
<g id="edge9" class="edge">
<title>Node8&#45;&gt;Node10</title>
<path fill="none" stroke="#63b8ff" d="M577.26,-164.98C602.32,-156.19 641.63,-142.39 669.83,-132.49"/>
<polygon fill="#63b8ff" stroke="#63b8ff" points="671.02,-135.78 679.3,-129.17 668.7,-129.18 671.02,-135.78"/>
</g>
<!-- Node11 -->
<g id="node11" class="node">
<title>Node11</title>
<g id="a_node11"><a xlink:title=" ">
<polygon fill="#e0e0e0" stroke="#999999" points="576.5,-129 523.5,-129 523.5,-110 576.5,-110 576.5,-129"/>
<text text-anchor="middle" x="550" y="-117" font-family="Helvetica,sans-Serif" font-size="10.00">cstddef</text>
</a>
</g>
</g>
<!-- Node8&#45;&gt;Node11 -->
<g id="edge11" class="edge">
<title>Node8&#45;&gt;Node11</title>
<path fill="none" stroke="#63b8ff" d="M552.5,-164.75C552.11,-157.8 551.55,-147.85 551.05,-139.13"/>
<polygon fill="#63b8ff" stroke="#63b8ff" points="554.55,-138.88 550.49,-129.09 547.56,-139.27 554.55,-138.88"/>
</g>
<!-- Node12 -->
<g id="node12" class="node">
<title>Node12</title>
<g id="a_node12"><a xlink:title=" ">
<polygon fill="#e0e0e0" stroke="#999999" points="1577,-19 1527,-19 1527,0 1577,0 1577,-19"/>
<text text-anchor="middle" x="1552" y="-7" font-family="Helvetica,sans-Serif" font-size="10.00">cstdint</text>
</a>
</g>
</g>
<!-- Node8&#45;&gt;Node12 -->
<g id="edge12" class="edge">
<title>Node8&#45;&gt;Node12</title>
<path fill="none" stroke="#63b8ff" d="M581.77,-168.46C627.42,-160.18 714.14,-143.18 742,-129 786.94,-106.12 781.29,-73.98 828,-55 892.11,-28.95 1379.84,-14.83 1516.5,-11.36"/>
<polygon fill="#63b8ff" stroke="#63b8ff" points="1516.91,-14.85 1526.82,-11.1 1516.74,-7.85 1516.91,-14.85"/>
</g>
<!-- Node13 -->
<g id="node13" class="node">
<title>Node13</title>
<g id="a_node13"><a xlink:title=" ">
<polygon fill="#e0e0e0" stroke="#999999" points="657,-129 595,-129 595,-110 657,-110 657,-129"/>
<text text-anchor="middle" x="626" y="-117" font-family="Helvetica,sans-Serif" font-size="10.00">cinttypes</text>
</a>
</g>
</g>
<!-- Node8&#45;&gt;Node13 -->
<g id="edge13" class="edge">
<title>Node8&#45;&gt;Node13</title>
<path fill="none" stroke="#63b8ff" d="M564.73,-164.98C575.73,-157 592.42,-144.88 605.6,-135.31"/>
<polygon fill="#63b8ff" stroke="#63b8ff" points="608.02,-137.88 614.06,-129.17 603.91,-132.21 608.02,-137.88"/>
</g>
<!-- Node8&#45;&gt;Node14 -->
<g id="edge15" class="edge">
<title>Node8&#45;&gt;Node14</title>
<path fill="none" stroke="#63b8ff" d="M539.83,-164.98C527.23,-156.84 508,-144.41 493.06,-134.76"/>
<polygon fill="#63b8ff" stroke="#63b8ff" points="494.71,-131.66 484.41,-129.17 490.91,-137.54 494.71,-131.66"/>
</g>
<!-- Node15&#45;&gt;Node2 -->
<g id="edge18" class="edge">
<title>Node15&#45;&gt;Node2</title>
<path fill="none" stroke="#63b8ff" d="M302.54,-164.98C288.58,-156.77 267.21,-144.18 250.75,-134.49"/>
<polygon fill="#63b8ff" stroke="#63b8ff" points="252.12,-131.23 241.72,-129.17 248.56,-137.26 252.12,-131.23"/>
</g>
<!-- Node15&#45;&gt;Node9 -->
<g id="edge17" class="edge">
<title>Node15&#45;&gt;Node9</title>
<path fill="none" stroke="#63b8ff" d="M327.44,-164.98C337.15,-157.07 351.82,-145.11 363.5,-135.58"/>
<polygon fill="#63b8ff" stroke="#63b8ff" points="365.83,-138.2 371.37,-129.17 361.4,-132.78 365.83,-138.2"/>
</g>
<!-- Node15&#45;&gt;Node14 -->
<g id="edge19" class="edge">
<title>Node15&#45;&gt;Node14</title>
<path fill="none" stroke="#63b8ff" d="M341.74,-164.98C367.37,-156.16 407.63,-142.31 436.41,-132.41"/>
<polygon fill="#63b8ff" stroke="#63b8ff" points="437.75,-135.65 446.06,-129.08 435.47,-129.03 437.75,-135.65"/>
</g>
<!-- Node16 -->
<g id="node16" class="node">
<title>Node16</title>
<g id="a_node16"><a xlink:title=" ">
<polygon fill="#e0e0e0" stroke="#999999" points="327.5,-129 274.5,-129 274.5,-110 327.5,-110 327.5,-129"/>
<text text-anchor="middle" x="301" y="-117" font-family="Helvetica,sans-Serif" font-size="10.00">iterator</text>
</a>
</g>
</g>
<!-- Node15&#45;&gt;Node16 -->
<g id="edge20" class="edge">
<title>Node15&#45;&gt;Node16</title>
<path fill="none" stroke="#63b8ff" d="M314.36,-164.75C312.24,-157.72 309.19,-147.62 306.54,-138.84"/>
<polygon fill="#63b8ff" stroke="#63b8ff" points="309.83,-137.65 303.59,-129.09 303.13,-139.67 309.83,-137.65"/>
</g>
<!-- Node17&#45;&gt;Node2 -->
<g id="edge58" class="edge">
<title>Node17&#45;&gt;Node2</title>
<path fill="none" stroke="#63b8ff" d="M1369.24,-227.94C1161.27,-225.26 313.23,-212.59 265,-184 248.46,-174.19 238.27,-154.15 232.66,-139.19"/>
<polygon fill="#63b8ff" stroke="#63b8ff" points="235.87,-137.77 229.36,-129.41 229.24,-140.01 235.87,-137.77"/>
</g>
<!-- Node17&#45;&gt;Node6 -->
<g id="edge22" class="edge">
<title>Node17&#45;&gt;Node6</title>
<path fill="none" stroke="#63b8ff" d="M1369.31,-227.63C1205.3,-224.28 654.55,-211.04 629,-184 623.2,-177.86 623.79,-171.65 629,-165 670.21,-112.39 713.54,-155.26 775,-129 805.18,-116.11 836.58,-94.62 855.97,-80.26"/>
<polygon fill="#63b8ff" stroke="#63b8ff" points="858.1,-83.03 863.98,-74.22 853.88,-77.44 858.1,-83.03"/>
</g>
<!-- Node17&#45;&gt;Node12 -->
<g id="edge57" class="edge">
<title>Node17&#45;&gt;Node12</title>
<path fill="none" stroke="#63b8ff" d="M1428.4,-219.95C1440.27,-211.85 1457.47,-198.73 1469,-184 1508.19,-133.91 1535.01,-62.31 1546.17,-28.94"/>
<polygon fill="#63b8ff" stroke="#63b8ff" points="1549.58,-29.77 1549.35,-19.17 1542.93,-27.6 1549.58,-29.77"/>
</g>
<!-- Node18 -->
<g id="node18" class="node">
<title>Node18</title>
<g id="a_node18"><a xlink:title=" ">
<polygon fill="#e0e0e0" stroke="#999999" points="695.5,-184 638.5,-184 638.5,-165 695.5,-165 695.5,-184"/>
<text text-anchor="middle" x="667" y="-172" font-family="Helvetica,sans-Serif" font-size="10.00">wx/wx.h</text>
</a>
</g>
</g>
<!-- Node17&#45;&gt;Node18 -->
<g id="edge23" class="edge">
<title>Node17&#45;&gt;Node18</title>
<path fill="none" stroke="#63b8ff" d="M1369.4,-228.22C1257.68,-226.98 961.33,-220.38 705.81,-184.03"/>
<polygon fill="#63b8ff" stroke="#63b8ff" points="705.99,-180.52 695.6,-182.56 704.99,-187.45 705.99,-180.52"/>
</g>
<!-- Node19 -->
<g id="node19" class="node">
<title>Node19</title>
<g id="a_node19"><a xlink:title=" ">
<polygon fill="#e0e0e0" stroke="#999999" points="2350,-74 2278,-74 2278,-55 2350,-55 2350,-74"/>
<text text-anchor="middle" x="2314" y="-62" font-family="Helvetica,sans-Serif" font-size="10.00">wx/config.h</text>
</a>
</g>
</g>
<!-- Node17&#45;&gt;Node19 -->
<g id="edge24" class="edge">
<title>Node17&#45;&gt;Node19</title>
<path fill="none" stroke="#63b8ff" d="M1460.54,-226.93C1584.11,-222.37 1919.44,-207.91 1963,-184 1999.16,-164.15 1983.55,-131.08 2019,-110 2040.01,-97.51 2190.44,-79.24 2268,-70.51"/>
<polygon fill="#63b8ff" stroke="#63b8ff" points="2268.44,-73.98 2277.99,-69.39 2267.66,-67.03 2268.44,-73.98"/>
</g>
<!-- Node20 -->
<g id="node20" class="node">
<title>Node20</title>
<g id="a_node20"><a xlink:title=" ">
<polygon fill="#e0e0e0" stroke="#999999" points="790.5,-184 713.5,-184 713.5,-165 790.5,-165 790.5,-184"/>
<text text-anchor="middle" x="752" y="-172" font-family="Helvetica,sans-Serif" font-size="10.00">wx/display.h</text>
</a>
</g>
</g>
<!-- Node17&#45;&gt;Node20 -->
<g id="edge25" class="edge">
<title>Node17&#45;&gt;Node20</title>
<path fill="none" stroke="#63b8ff" d="M1369.32,-226.81C1268.59,-222.72 1019.62,-210.73 800.79,-183.95"/>
<polygon fill="#63b8ff" stroke="#63b8ff" points="801.07,-180.46 790.72,-182.71 800.22,-187.41 801.07,-180.46"/>
</g>
<!-- Node21 -->
<g id="node21" class="node">
<title>Node21</title>
<g id="a_node21"><a xlink:title=" ">
<polygon fill="#e0e0e0" stroke="#999999" points="899,-184 809,-184 809,-165 899,-165 899,-184"/>
<text text-anchor="middle" x="854" y="-172" font-family="Helvetica,sans-Serif" font-size="10.00">wx/fontenum.h</text>
</a>
</g>
</g>
<!-- Node17&#45;&gt;Node21 -->
<g id="edge26" class="edge">
<title>Node17&#45;&gt;Node21</title>
<path fill="none" stroke="#63b8ff" d="M1369.19,-225.48C1281.93,-219.52 1085.64,-205.04 909.27,-183.94"/>
<polygon fill="#63b8ff" stroke="#63b8ff" points="909.64,-180.46 899.29,-182.74 908.8,-187.41 909.64,-180.46"/>
</g>
<!-- Node22 -->
<g id="node22" class="node">
<title>Node22</title>
<g id="a_node22"><a xlink:title=" ">
<polygon fill="#e0e0e0" stroke="#999999" points="2456,-74 2368,-74 2368,-55 2456,-55 2456,-74"/>
<text text-anchor="middle" x="2412" y="-62" font-family="Helvetica,sans-Serif" font-size="10.00">wx/hashmap.h</text>
</a>
</g>
</g>
<!-- Node17&#45;&gt;Node22 -->
<g id="edge27" class="edge">
<title>Node17&#45;&gt;Node22</title>
<path fill="none" stroke="#63b8ff" d="M1460.7,-227.62C1583.06,-224.87 1915.95,-214.7 2021,-184 2087.43,-164.59 2092.63,-132.71 2158,-110 2167.38,-106.74 2285.89,-86.6 2357.67,-74.56"/>
<polygon fill="#63b8ff" stroke="#63b8ff" points="2358.62,-77.95 2367.9,-72.85 2357.46,-71.05 2358.62,-77.95"/>
</g>
<!-- Node23 -->
<g id="node23" class="node">
<title>Node23</title>
<g id="a_node23"><a xlink:href="LoggingMessageDialog_8h.html" target="_top" xlink:title="This file declares a message dialog that sends its contents to the log message sink.">
<polygon fill="#fff0f0" stroke="red" points="1094.5,-184 917.5,-184 917.5,-165 1094.5,-165 1094.5,-184"/>
<text text-anchor="middle" x="1006" y="-172" font-family="Helvetica,sans-Serif" font-size="10.00">dialogs/LoggingMessageDialog.h</text>
</a>
</g>
</g>
<!-- Node17&#45;&gt;Node23 -->
<g id="edge28" class="edge">
<title>Node17&#45;&gt;Node23</title>
<path fill="none" stroke="#63b8ff" d="M1369.27,-222.57C1299.57,-213.54 1165.95,-196.23 1081.64,-185.3"/>
<polygon fill="#63b8ff" stroke="#63b8ff" points="1081.98,-181.82 1071.61,-184 1081.08,-188.76 1081.98,-181.82"/>
</g>
<!-- Node17&#45;&gt;Node25 -->
<g id="edge31" class="edge">
<title>Node17&#45;&gt;Node25</title>
<path fill="none" stroke="#63b8ff" d="M1460.62,-224.72C1522.65,-218.98 1636.77,-206.32 1732,-184 1789.53,-170.52 1854.4,-147.14 1891.8,-132.82"/>
<polygon fill="#63b8ff" stroke="#63b8ff" points="1893.53,-135.91 1901.6,-129.04 1891.01,-129.38 1893.53,-135.91"/>
</g>
<!-- Node17&#45;&gt;Node36 -->
<g id="edge65" class="edge">
<title>Node17&#45;&gt;Node36</title>
<path fill="none" stroke="#63b8ff" d="M1460.67,-227.56C1528.25,-225.09 1649.84,-216.17 1677,-184 1682.45,-177.55 1678.62,-173.29 1677,-165 1668.62,-122.15 1648.38,-116.85 1640,-74 1636.99,-58.59 1641.38,-41.19 1646.02,-28.5"/>
<polygon fill="#63b8ff" stroke="#63b8ff" points="1649.32,-29.68 1649.82,-19.1 1642.83,-27.06 1649.32,-29.68"/>
</g>
<!-- Node40 -->
<g id="node34" class="node">
<title>Node40</title>
<g id="a_node34"><a xlink:title=" ">
<polygon fill="#e0e0e0" stroke="#999999" points="2566.5,-74 2473.5,-74 2473.5,-55 2566.5,-55 2566.5,-74"/>
<text text-anchor="middle" x="2520" y="-62" font-family="Helvetica,sans-Serif" font-size="10.00">unordered_map</text>
</a>
</g>
</g>
<!-- Node17&#45;&gt;Node40 -->
<g id="edge60" class="edge">
<title>Node17&#45;&gt;Node40</title>
<path fill="none" stroke="#63b8ff" d="M1460.7,-226.4C1587.35,-220.42 1941.05,-202.51 2056,-184 2218.22,-157.87 2406.5,-101.47 2483.93,-77.1"/>
<polygon fill="#63b8ff" stroke="#63b8ff" points="2485.2,-80.37 2493.68,-74.02 2483.09,-73.69 2485.2,-80.37"/>
</g>
<!-- Node41 -->
<g id="node35" class="node">
<title>Node41</title>
<g id="a_node35"><a xlink:href="RenderContext_8h.html" target="_top" xlink:title="Declares RenderContext: the per&#45;render&#45;pass state of a worksheet.">
<polygon fill="#fff0f0" stroke="red" points="1652,-184 1554,-184 1554,-165 1652,-165 1652,-184"/>
<text text-anchor="middle" x="1603" y="-172" font-family="Helvetica,sans-Serif" font-size="10.00">RenderContext.h</text>
</a>
</g>
</g>
<!-- Node17&#45;&gt;Node41 -->
<g id="edge49" class="edge">
<title>Node17&#45;&gt;Node41</title>
<path fill="none" stroke="#63b8ff" d="M1445.21,-219.98C1477.04,-211.01 1527.36,-196.82 1562.6,-186.89"/>
<polygon fill="#63b8ff" stroke="#63b8ff" points="1563.88,-190.16 1572.56,-184.08 1561.98,-183.43 1563.88,-190.16"/>
</g>
<!-- Node46 -->
<g id="node36" class="node">
<title>Node46</title>
<g id="a_node36"><a xlink:title=" ">
<polygon fill="#e0e0e0" stroke="#999999" points="1575,-129 1525,-129 1525,-110 1575,-110 1575,-129"/>
<text text-anchor="middle" x="1550" y="-117" font-family="Helvetica,sans-Serif" font-size="10.00">atomic</text>
</a>
</g>
</g>
<!-- Node17&#45;&gt;Node46 -->
<g id="edge66" class="edge">
<title>Node17&#45;&gt;Node46</title>
<path fill="none" stroke="#63b8ff" d="M1438.5,-219.89C1457.05,-212.32 1482.9,-200.03 1502,-184 1517.65,-170.86 1531.24,-151.72 1539.92,-137.88"/>
<polygon fill="#63b8ff" stroke="#63b8ff" points="1542.94,-139.67 1545.12,-129.3 1536.95,-136.04 1542.94,-139.67"/>
</g>
<!-- Node47 -->
<g id="node37" class="node">
<title>Node47</title>
<g id="a_node37"><a xlink:title=" ">
<polygon fill="#e0e0e0" stroke="#999999" points="1644,-129 1594,-129 1594,-110 1644,-110 1644,-129"/>
<text text-anchor="middle" x="1619" y="-117" font-family="Helvetica,sans-Serif" font-size="10.00">chrono</text>
</a>
</g>
</g>
<!-- Node17&#45;&gt;Node47 -->
<g id="edge67" class="edge">
<title>Node17&#45;&gt;Node47</title>
<path fill="none" stroke="#63b8ff" d="M1460.55,-226.99C1524.51,-223.8 1635.96,-213.98 1661,-184 1673.99,-168.45 1656.37,-148.76 1640.13,-135.46"/>
<polygon fill="#63b8ff" stroke="#63b8ff" points="1642,-132.47 1631.94,-129.14 1637.72,-138.02 1642,-132.47"/>
</g>
<!-- Node48 -->
<g id="node38" class="node">
<title>Node48</title>
<g id="a_node38"><a xlink:href="Styles_8h.html" target="_top" xlink:title="This file declares the class Styles.">
<polygon fill="white" stroke="#666666" points="1954,-184 1898,-184 1898,-165 1954,-165 1954,-184"/>
<text text-anchor="middle" x="1926" y="-172" font-family="Helvetica,sans-Serif" font-size="10.00">Styles.h</text>
</a>
</g>
</g>
<!-- Node17&#45;&gt;Node48 -->
<g id="edge53" class="edge">
<title>Node17&#45;&gt;Node48</title>
<path fill="none" stroke="#63b8ff" d="M1460.8,-225.76C1544.94,-220.37 1729.67,-206.87 1884,-184 1885.1,-183.84 1886.22,-183.66 1887.35,-183.48"/>
<polygon fill="#63b8ff" stroke="#63b8ff" points="1888.37,-186.86 1897.6,-181.67 1887.15,-179.96 1888.37,-186.86"/>
</g>
<!-- Node17&#45;&gt;Node49 -->
<g id="edge64" class="edge">
<title>Node17&#45;&gt;Node49</title>
<path fill="none" stroke="#63b8ff" d="M1460.86,-226.99C1589.71,-222.46 1948.68,-207.84 1996,-184 2015.87,-173.99 2031.59,-153.35 2041.05,-138.31"/>
<polygon fill="#63b8ff" stroke="#63b8ff" points="2044.25,-139.79 2046.35,-129.41 2038.23,-136.22 2044.25,-139.79"/>
</g>
<!-- Node50 -->
<g id="node40" class="node">
<title>Node50</title>
<g id="a_node40"><a xlink:title=" ">
<polygon fill="#e0e0e0" stroke="#999999" points="1161,-184 1113,-184 1113,-165 1161,-165 1161,-184"/>
<text text-anchor="middle" x="1137" y="-172" font-family="Helvetica,sans-Serif" font-size="10.00">mutex</text>
</a>
</g>
</g>
<!-- Node17&#45;&gt;Node50 -->
<g id="edge59" class="edge">
<title>Node17&#45;&gt;Node50</title>
<path fill="none" stroke="#63b8ff" d="M1369.2,-221.2C1321.95,-213.44 1245.93,-200.33 1171.16,-184.12"/>
<polygon fill="#63b8ff" stroke="#63b8ff" points="1171.62,-180.64 1161.1,-181.92 1170.12,-187.48 1171.62,-180.64"/>
</g>
<!-- Node51 -->
<g id="node41" class="node">
<title>Node51</title>
<g id="a_node41"><a xlink:title=" ">
<polygon fill="#e0e0e0" stroke="#999999" points="1233,-184 1179,-184 1179,-165 1233,-165 1233,-184"/>
<text text-anchor="middle" x="1206" y="-172" font-family="Helvetica,sans-Serif" font-size="10.00">random</text>
</a>
</g>
</g>
<!-- Node17&#45;&gt;Node51 -->
<g id="edge61" class="edge">
<title>Node17&#45;&gt;Node51</title>
<path fill="none" stroke="#63b8ff" d="M1381.42,-219.98C1343.53,-210.37 1282.07,-194.79 1242.87,-184.85"/>
<polygon fill="#63b8ff" stroke="#63b8ff" points="1243.72,-181.46 1233.17,-182.39 1242,-188.24 1243.72,-181.46"/>
</g>
<!-- Node39 -->
<g id="node42" class="node">
<title>Node39</title>
<g id="a_node42"><a xlink:title=" ">
<polygon fill="#e0e0e0" stroke="#999999" points="1283,-184 1251,-184 1251,-165 1283,-165 1283,-184"/>
<text text-anchor="middle" x="1267" y="-172" font-family="Helvetica,sans-Serif" font-size="10.00">list</text>
</a>
</g>
</g>
<!-- Node17&#45;&gt;Node39 -->
<g id="edge62" class="edge">
<title>Node17&#45;&gt;Node39</title>
<path fill="none" stroke="#63b8ff" d="M1391.22,-219.98C1364.29,-210.34 1320.57,-194.68 1292.83,-184.75"/>
<polygon fill="#63b8ff" stroke="#63b8ff" points="1293.98,-181.45 1283.39,-181.37 1291.62,-188.04 1293.98,-181.45"/>
</g>
<!-- Node52 -->
<g id="node43" class="node">
<title>Node52</title>
<g id="a_node43"><a xlink:title=" ">
<polygon fill="#e0e0e0" stroke="#999999" points="1352.5,-184 1301.5,-184 1301.5,-165 1352.5,-165 1352.5,-184"/>
<text text-anchor="middle" x="1327" y="-172" font-family="Helvetica,sans-Serif" font-size="10.00">variant</text>
</a>
</g>
</g>
<!-- Node17&#45;&gt;Node52 -->
<g id="edge63" class="edge">
<title>Node17&#45;&gt;Node52</title>
<path fill="none" stroke="#63b8ff" d="M1400.86,-219.98C1387.21,-211.77 1366.31,-199.18 1350.22,-189.49"/>
<polygon fill="#63b8ff" stroke="#63b8ff" points="1351.77,-186.33 1341.4,-184.17 1348.16,-192.33 1351.77,-186.33"/>
</g>
<!-- Node53 -->
<g id="node44" class="node">
<title>Node53</title>
<g id="a_node44"><a xlink:title=" ">
<polygon fill="#e0e0e0" stroke="#999999" points="1459.5,-184 1370.5,-184 1370.5,-165 1459.5,-165 1459.5,-184"/>
<text text-anchor="middle" x="1415" y="-172" font-family="Helvetica,sans-Serif" font-size="10.00">wx/wupdlock.h</text>
</a>
</g>
</g>
<!-- Node17&#45;&gt;Node53 -->
<g id="edge68" class="edge">
<title>Node17&#45;&gt;Node53</title>
<path fill="none" stroke="#63b8ff" d="M1415,-219.75C1415,-212.8 1415,-202.85 1415,-194.13"/>
<polygon fill="#63b8ff" stroke="#63b8ff" points="1418.5,-194.09 1415,-184.09 1411.5,-194.09 1418.5,-194.09"/>
</g>
<!-- Node23&#45;&gt;Node6 -->
<g id="edge29" class="edge">
<title>Node23&#45;&gt;Node6</title>
<path fill="none" stroke="#63b8ff" d="M995.28,-164.66C972.91,-146.22 921.03,-103.45 893.28,-80.57"/>
<polygon fill="#63b8ff" stroke="#63b8ff" points="895.44,-77.82 885.5,-74.16 890.99,-83.22 895.44,-77.82"/>
</g>
<!-- Node23&#45;&gt;Node10 -->
<g id="edge30" class="edge">
<title>Node23&#45;&gt;Node10</title>
<path fill="none" stroke="#63b8ff" d="M957.48,-164.98C897.96,-154.54 798.21,-137.03 743.26,-127.39"/>
<polygon fill="#63b8ff" stroke="#63b8ff" points="743.68,-123.91 733.22,-125.63 742.47,-130.8 743.68,-123.91"/>
</g>
<!-- Node25&#45;&gt;Node6 -->
<g id="edge32" class="edge">
<title>Node25&#45;&gt;Node6</title>
<path fill="none" stroke="#63b8ff" d="M1874.75,-111.16C1871.12,-110.72 1867.5,-110.33 1864,-110 1504.25,-76.07 1068.36,-67.86 924.02,-66.01"/>
<polygon fill="#63b8ff" stroke="#63b8ff" points="923.78,-62.5 913.74,-65.88 923.69,-69.5 923.78,-62.5"/>
</g>
<!-- Node25&#45;&gt;Node12 -->
<g id="edge41" class="edge">
<title>Node25&#45;&gt;Node12</title>
<path fill="none" stroke="#63b8ff" d="M1885.8,-109.96C1853.79,-102.12 1806.64,-89.41 1767,-74 1749.4,-67.16 1746.71,-61.56 1729,-55 1681.14,-37.26 1623.42,-24.22 1587.21,-17"/>
<polygon fill="#63b8ff" stroke="#63b8ff" points="1587.63,-13.51 1577.14,-15.03 1586.28,-20.38 1587.63,-13.51"/>
</g>
<!-- Node25&#45;&gt;Node19 -->
<g id="edge38" class="edge">
<title>Node25&#45;&gt;Node19</title>
<path fill="none" stroke="#63b8ff" d="M1971.06,-111.87C1975.77,-111.24 1980.48,-110.6 1985,-110 2108.94,-93.51 2140.35,-92.48 2264,-74 2265.27,-73.81 2266.56,-73.61 2267.87,-73.41"/>
<polygon fill="#63b8ff" stroke="#63b8ff" points="2268.65,-76.83 2277.98,-71.8 2267.55,-69.92 2268.65,-76.83"/>
</g>
<!-- Node25&#45;&gt;Node22 -->
<g id="edge35" class="edge">
<title>Node25&#45;&gt;Node22</title>
<path fill="none" stroke="#63b8ff" d="M1971.07,-113.95C2064.52,-105.04 2268.64,-85.29 2357.75,-74.08"/>
<polygon fill="#63b8ff" stroke="#63b8ff" points="2358.31,-77.53 2367.78,-72.79 2357.42,-70.59 2358.31,-77.53"/>
</g>
<!-- Node26 -->
<g id="node25" class="node">
<title>Node26</title>
<g id="a_node25"><a xlink:title=" ">
<polygon fill="#e0e0e0" stroke="#999999" points="1848,-74 1776,-74 1776,-55 1848,-55 1848,-74"/>
<text text-anchor="middle" x="1812" y="-62" font-family="Helvetica,sans-Serif" font-size="10.00">wx/colour.h</text>
</a>
</g>
</g>
<!-- Node25&#45;&gt;Node26 -->
<g id="edge33" class="edge">
<title>Node25&#45;&gt;Node26</title>
<path fill="none" stroke="#63b8ff" d="M1905.17,-109.98C1887.39,-101.5 1859.85,-88.35 1839.32,-78.54"/>
<polygon fill="#63b8ff" stroke="#63b8ff" points="1840.69,-75.32 1830.16,-74.17 1837.67,-81.64 1840.69,-75.32"/>
</g>
<!-- Node25&#45;&gt;Node27 -->
<g id="edge34" class="edge">
<title>Node25&#45;&gt;Node27</title>
<path fill="none" stroke="#63b8ff" d="M1885.65,-109.95C1847.48,-101.15 1786.53,-86.95 1734,-74 1732.74,-73.69 1731.45,-73.37 1730.15,-73.04"/>
<polygon fill="#63b8ff" stroke="#63b8ff" points="1730.73,-69.58 1720.18,-70.51 1729.01,-76.36 1730.73,-69.58"/>
</g>
<!-- Node28 -->
<g id="node27" class="node">
<title>Node28</title>
<g id="a_node27"><a xlink:title=" ">
<polygon fill="#e0e0e0" stroke="#999999" points="1910,-74 1866,-74 1866,-55 1910,-55 1910,-74"/>
<text text-anchor="middle" x="1888" y="-62" font-family="Helvetica,sans-Serif" font-size="10.00">string</text>
</a>
</g>
</g>
<!-- Node25&#45;&gt;Node28 -->
<g id="edge36" class="edge">
<title>Node25&#45;&gt;Node28</title>
<path fill="none" stroke="#63b8ff" d="M1917.22,-109.75C1912.38,-102.42 1905.32,-91.73 1899.36,-82.7"/>
<polygon fill="#63b8ff" stroke="#63b8ff" points="1902.1,-80.5 1893.67,-74.09 1896.26,-84.36 1902.1,-80.5"/>
</g>
<!-- Node29 -->
<g id="node28" class="node">
<title>Node29</title>
<g id="a_node28"><a xlink:title=" ">
<polygon fill="#e0e0e0" stroke="#999999" points="1985.5,-74 1928.5,-74 1928.5,-55 1985.5,-55 1985.5,-74"/>
<text text-anchor="middle" x="1957" y="-62" font-family="Helvetica,sans-Serif" font-size="10.00">ostream</text>
</a>
</g>
</g>
<!-- Node25&#45;&gt;Node29 -->
<g id="edge37" class="edge">
<title>Node25&#45;&gt;Node29</title>
<path fill="none" stroke="#63b8ff" d="M1928.61,-109.75C1933.32,-102.42 1940.17,-91.73 1945.97,-82.7"/>
<polygon fill="#63b8ff" stroke="#63b8ff" points="1949.04,-84.4 1951.49,-74.09 1943.14,-80.62 1949.04,-84.4"/>
</g>
<!-- Node30 -->
<g id="node29" class="node">
<title>Node30</title>
<g id="a_node29"><a xlink:title=" ">
<polygon fill="#e0e0e0" stroke="#999999" points="2181,-19 2119,-19 2119,0 2181,0 2181,-19"/>
<text text-anchor="middle" x="2150" y="-7" font-family="Helvetica,sans-Serif" font-size="10.00">wx/font.h</text>
</a>
</g>
</g>
<!-- Node25&#45;&gt;Node30 -->
<g id="edge39" class="edge">
<title>Node25&#45;&gt;Node30</title>
<path fill="none" stroke="#63b8ff" d="M1971.1,-111.37C2047.76,-99.91 2189.42,-78.22 2193,-74 2206.21,-58.44 2188.18,-38.75 2171.59,-25.45"/>
<polygon fill="#63b8ff" stroke="#63b8ff" points="2173.31,-22.36 2163.22,-19.14 2169.09,-27.95 2173.31,-22.36"/>
</g>
<!-- Node31 -->
<g id="node30" class="node">
<title>Node31</title>
<g id="a_node30"><a xlink:title=" ">
<polygon fill="#e0e0e0" stroke="#999999" points="2086,-74 2004,-74 2004,-55 2086,-55 2086,-74"/>
<text text-anchor="middle" x="2045" y="-62" font-family="Helvetica,sans-Serif" font-size="10.00">wx/settings.h</text>
</a>
</g>
</g>
<!-- Node25&#45;&gt;Node31 -->
<g id="edge40" class="edge">
<title>Node25&#45;&gt;Node31</title>
<path fill="none" stroke="#63b8ff" d="M1942.6,-109.98C1962.32,-101.42 1992.95,-88.11 2015.58,-78.28"/>
<polygon fill="#63b8ff" stroke="#63b8ff" points="2017.26,-81.37 2025.04,-74.17 2014.48,-74.94 2017.26,-81.37"/>
</g>
<!-- Node32 -->
<g id="node31" class="node">
<title>Node32</title>
<g id="a_node31"><a xlink:title=" ">
<polygon fill="#e0e0e0" stroke="#999999" points="2276.5,-19 2211.5,-19 2211.5,0 2276.5,0 2276.5,-19"/>
<text text-anchor="middle" x="2244" y="-7" font-family="Helvetica,sans-Serif" font-size="10.00">functional</text>
</a>
</g>
</g>
<!-- Node25&#45;&gt;Node32 -->
<g id="edge42" class="edge">
<title>Node25&#45;&gt;Node32</title>
<path fill="none" stroke="#63b8ff" d="M1971.15,-111.56C2051.38,-99.92 2204.15,-77.39 2209,-74 2224.29,-63.3 2233.6,-43.7 2238.74,-29.1"/>
<polygon fill="#63b8ff" stroke="#63b8ff" points="2242.21,-29.72 2241.88,-19.14 2235.54,-27.62 2242.21,-29.72"/>
</g>
<!-- Node33 -->
<g id="node32" class="node">
<title>Node33</title>
<g id="a_node32"><a xlink:href="FontAttribs_8h_source.html" target="_top" xlink:title=" ">
<polygon fill="#fff0f0" stroke="red" points="2183.5,-74 2104.5,-74 2104.5,-55 2183.5,-55 2183.5,-74"/>
<text text-anchor="middle" x="2144" y="-62" font-family="Helvetica,sans-Serif" font-size="10.00">FontAttribs.h</text>
</a>
</g>
</g>
<!-- Node25&#45;&gt;Node33 -->
<g id="edge43" class="edge">
<title>Node25&#45;&gt;Node33</title>
<path fill="none" stroke="#63b8ff" d="M1958.51,-109.98C1996.49,-100.87 2056.87,-86.4 2098.36,-76.45"/>
<polygon fill="#63b8ff" stroke="#63b8ff" points="2099.31,-79.82 2108.21,-74.08 2097.67,-73.01 2099.31,-79.82"/>
</g>
<!-- Node25&#45;&gt;Node40 -->
<g id="edge48" class="edge">
<title>Node25&#45;&gt;Node40</title>
<path fill="none" stroke="#63b8ff" d="M1971.34,-114.15C1986.59,-112.79 2003.49,-111.31 2019,-110 2213.87,-93.51 2265.78,-97.08 2463.1,-74.15"/>
<polygon fill="#63b8ff" stroke="#63b8ff" points="2463.7,-77.6 2473.22,-72.97 2462.88,-70.65 2463.7,-77.6"/>
</g>
<!-- Node33&#45;&gt;Node12 -->
<g id="edge46" class="edge">
<title>Node33&#45;&gt;Node12</title>
<path fill="none" stroke="#63b8ff" d="M2104.47,-56.3C2101.27,-55.82 2098.08,-55.38 2095,-55 1881.81,-28.61 1826.6,-41.84 1613,-19 1604.61,-18.1 1595.6,-16.95 1587.14,-15.79"/>
<polygon fill="#63b8ff" stroke="#63b8ff" points="1587.57,-12.31 1577.18,-14.38 1586.59,-19.24 1587.57,-12.31"/>
</g>
<!-- Node33&#45;&gt;Node30 -->
<g id="edge44" class="edge">
<title>Node33&#45;&gt;Node30</title>
<path fill="none" stroke="#63b8ff" d="M2144.99,-54.75C2145.78,-47.8 2146.9,-37.85 2147.89,-29.13"/>
<polygon fill="#63b8ff" stroke="#63b8ff" points="2151.38,-29.42 2149.03,-19.09 2144.42,-28.63 2151.38,-29.42"/>
</g>
<!-- Node33&#45;&gt;Node32 -->
<g id="edge47" class="edge">
<title>Node33&#45;&gt;Node32</title>
<path fill="none" stroke="#63b8ff" d="M2160.07,-54.98C2175.86,-46.61 2200.22,-33.7 2218.63,-23.95"/>
<polygon fill="#63b8ff" stroke="#63b8ff" points="2220.44,-26.95 2227.64,-19.17 2217.17,-20.76 2220.44,-26.95"/>
</g>
<!-- Node33&#45;&gt;Node36 -->
<g id="edge45" class="edge">
<title>Node33&#45;&gt;Node36</title>
<path fill="none" stroke="#63b8ff" d="M2104.46,-56.39C2101.26,-55.89 2098.08,-55.42 2095,-55 1949.07,-35.01 1774.83,-20.03 1696.19,-13.75"/>
<polygon fill="#63b8ff" stroke="#63b8ff" points="1696.43,-10.26 1686.19,-12.96 1695.88,-17.24 1696.43,-10.26"/>
</g>
<!-- Node41&#45;&gt;Node2 -->
<g id="edge52" class="edge">
<title>Node41&#45;&gt;Node2</title>
<path fill="none" stroke="#63b8ff" d="M1553.7,-169.98C1528.39,-168.27 1497.06,-166.31 1469,-165 937.63,-140.21 797.94,-195.03 266.59,-128.93"/>
<polygon fill="#63b8ff" stroke="#63b8ff" points="266.72,-125.42 256.36,-127.65 265.85,-132.36 266.72,-125.42"/>
</g>
<!-- Node41&#45;&gt;Node46 -->
<g id="edge50" class="edge">
<title>Node41&#45;&gt;Node46</title>
<path fill="none" stroke="#63b8ff" d="M1594.25,-164.75C1586.53,-157.03 1575.1,-145.6 1565.78,-136.28"/>
<polygon fill="#63b8ff" stroke="#63b8ff" points="1568.14,-133.69 1558.59,-129.09 1563.19,-138.64 1568.14,-133.69"/>
</g>
<!-- Node41&#45;&gt;Node47 -->
<g id="edge51" class="edge">
<title>Node41&#45;&gt;Node47</title>
<path fill="none" stroke="#63b8ff" d="M1605.64,-164.75C1607.76,-157.72 1610.81,-147.62 1613.46,-138.84"/>
<polygon fill="#63b8ff" stroke="#63b8ff" points="1616.87,-139.67 1616.41,-129.09 1610.17,-137.65 1616.87,-139.67"/>
</g>
<!-- Node48&#45;&gt;Node3 -->
<g id="edge55" class="edge">
<title>Node48&#45;&gt;Node3</title>
<path fill="none" stroke="#63b8ff" d="M1910.9,-164.98C1896.18,-156.69 1873.58,-143.94 1856.33,-134.22"/>
<polygon fill="#63b8ff" stroke="#63b8ff" points="1857.81,-131.03 1847.38,-129.17 1854.37,-137.13 1857.81,-131.03"/>
</g>
<!-- Node48&#45;&gt;Node25 -->
<g id="edge54" class="edge">
<title>Node48&#45;&gt;Node25</title>
<path fill="none" stroke="#63b8ff" d="M1925.5,-164.75C1925.11,-157.8 1924.55,-147.85 1924.05,-139.13"/>
<polygon fill="#63b8ff" stroke="#63b8ff" points="1927.55,-138.88 1923.49,-129.09 1920.56,-139.27 1927.55,-138.88"/>
</g>
<!-- Node48&#45;&gt;Node49 -->
<g id="edge56" class="edge">
<title>Node48&#45;&gt;Node49</title>
<path fill="none" stroke="#63b8ff" d="M1946.08,-164.98C1966.37,-156.38 1997.96,-142.99 2021.17,-133.15"/>
<polygon fill="#63b8ff" stroke="#63b8ff" points="2022.71,-136.3 2030.55,-129.17 2019.98,-129.85 2022.71,-136.3"/>
</g>
<!-- Node55 -->
<g id="node46" class="node">
<title>Node55</title>
<g id="a_node46"><a xlink:title=" ">
<polygon fill="#e0e0e0" stroke="#999999" points="2271.5,-184 2200.5,-184 2200.5,-165 2271.5,-165 2271.5,-184"/>
<text text-anchor="middle" x="2236" y="-172" font-family="Helvetica,sans-Serif" font-size="10.00">wx/string.h</text>
</a>
</g>
</g>
<!-- Node54&#45;&gt;Node55 -->
<g id="edge70" class="edge">
<title>Node54&#45;&gt;Node55</title>
<path fill="none" stroke="#63b8ff" d="M2236,-219.75C2236,-212.8 2236,-202.85 2236,-194.13"/>
<polygon fill="#63b8ff" stroke="#63b8ff" points="2239.5,-194.09 2236,-184.09 2232.5,-194.09 2239.5,-194.09"/>
</g>
<!-- Node56 -->
<g id="node47" class="node">
<title>Node56</title>
<g id="a_node47"><a xlink:title=" ">
<polygon fill="#e0e0e0" stroke="#999999" points="2384.5,-184 2289.5,-184 2289.5,-165 2384.5,-165 2384.5,-184"/>
<text text-anchor="middle" x="2337" y="-172" font-family="Helvetica,sans-Serif" font-size="10.00">wx/translation.h</text>
</a>
</g>
</g>
<!-- Node54&#45;&gt;Node56 -->
<g id="edge71" class="edge">
<title>Node54&#45;&gt;Node56</title>
<path fill="none" stroke="#63b8ff" d="M2252.23,-219.98C2268.18,-211.61 2292.78,-198.7 2311.38,-188.95"/>
<polygon fill="#63b8ff" stroke="#63b8ff" points="2313.25,-191.92 2320.48,-184.17 2310,-185.72 2313.25,-191.92"/>
</g>
<!-- Node57&#45;&gt;Node9 -->
<g id="edge74" class="edge">
<title>Node57&#45;&gt;Node9</title>
<path fill="none" stroke="#63b8ff" d="M416.23,-164.75C410.44,-157.26 401.94,-146.28 394.86,-137.13"/>
<polygon fill="#63b8ff" stroke="#63b8ff" points="397.53,-134.86 388.64,-129.09 391.99,-139.14 397.53,-134.86"/>
</g>
<!-- Node57&#45;&gt;Node10 -->
<g id="edge75" class="edge">
<title>Node57&#45;&gt;Node10</title>
<path fill="none" stroke="#63b8ff" d="M467.89,-165.82C514.63,-157.7 590.23,-144.23 664.93,-129.15"/>
<polygon fill="#63b8ff" stroke="#63b8ff" points="665.87,-132.53 674.98,-127.11 664.48,-125.67 665.87,-132.53"/>
</g>
<!-- Node57&#45;&gt;Node14 -->
<g id="edge76" class="edge">
<title>Node57&#45;&gt;Node14</title>
<path fill="none" stroke="#63b8ff" d="M430.93,-164.75C437.85,-157.11 448.07,-145.82 456.45,-136.56"/>
<polygon fill="#63b8ff" stroke="#63b8ff" points="459.1,-138.85 463.22,-129.09 453.91,-134.15 459.1,-138.85"/>
</g>
<!-- Node59&#45;&gt;Node2 -->
<g id="edge85" class="edge">
<title>Node59&#45;&gt;Node2</title>
<path fill="none" stroke="#63b8ff" d="M33.88,-274.92C36.56,-253.23 46.6,-195.71 80,-165 109.58,-137.8 155.27,-127.2 187.85,-123.09"/>
<polygon fill="#63b8ff" stroke="#63b8ff" points="188.38,-126.55 197.94,-121.97 187.61,-119.59 188.38,-126.55"/>
</g>
</g>
</svg>
