<?xml version="1.0" encoding="UTF-8" standalone="no"?>
<!DOCTYPE svg PUBLIC "-//W3C//DTD SVG 1.1//EN"
 "http://www.w3.org/Graphics/SVG/1.1/DTD/svg11.dtd">
<!-- Generated by graphviz version 2.43.0 (0)
 -->
<!-- Title: src/AutocompletePopup.h Pages: 1 -->
<svg width="2730pt" height="313pt"
 viewBox="0.00 0.00 2729.89 313.00" xmlns="http://www.w3.org/2000/svg" xmlns:xlink="http://www.w3.org/1999/xlink">
<g id="graph0" class="graph" transform="scale(1 1) rotate(0) translate(4 309)">
<title>src/AutocompletePopup.h</title>
<!-- Node1 -->
<g id="node1" class="node">
<title>Node1</title>
<g id="a_node1"><a xlink:title="The first number that is open for dynamic ID assignment.">
<polygon fill="#999999" stroke="#666666" points="947.5,-305 806.5,-305 806.5,-286 947.5,-286 947.5,-305"/>
<text text-anchor="middle" x="877" y="-293" font-family="Helvetica,sans-Serif" font-size="10.00">src/AutocompletePopup.h</text>
</a>
</g>
</g>
<!-- Node2 -->
<g id="node2" class="node">
<title>Node2</title>
<g id="a_node2"><a xlink:href="AutocompletePopup_8cpp.html" target="_top" xlink:title="This file defines the class AutocompletePopup.">
<polygon fill="white" stroke="#666666" points="423,-129 271,-129 271,-110 423,-110 423,-129"/>
<text text-anchor="middle" x="347" y="-117" font-family="Helvetica,sans-Serif" font-size="10.00">src/AutocompletePopup.cpp</text>
</a>
</g>
</g>
<!-- Node1&#45;&gt;Node2 -->
<g id="edge1" class="edge">
<title>Node1&#45;&gt;Node2</title>
<path fill="none" stroke="#63b8ff" d="M796.19,-287.62C704.96,-277.32 554.03,-252.53 437,-195 402.23,-177.91 369.25,-144.85 354.74,-129.16"/>
<polygon fill="#63b8ff" stroke="#63b8ff" points="795.87,-291.1 806.19,-288.71 796.63,-284.14 795.87,-291.1"/>
</g>
<!-- Node3 -->
<g id="node3" class="node">
<title>Node3</title>
<g id="a_node3"><a xlink:href="Worksheet_8h.html" target="_top" xlink:title="This file defines the class Worksheet.">
<polygon fill="white" stroke="#666666" points="1459.5,-250 1364.5,-250 1364.5,-231 1459.5,-231 1459.5,-250"/>
<text text-anchor="middle" x="1412" y="-238" font-family="Helvetica,sans-Serif" font-size="10.00">src/Worksheet.h</text>
</a>
</g>
</g>
<!-- Node1&#45;&gt;Node3 -->
<g id="edge2" class="edge">
<title>Node1&#45;&gt;Node3</title>
<path fill="none" stroke="#63b8ff" d="M957.76,-286.5C1070.81,-275.3 1272.67,-255.3 1364.35,-246.22"/>
<polygon fill="#63b8ff" stroke="#63b8ff" points="957.37,-283.02 947.77,-287.49 958.06,-289.99 957.37,-283.02"/>
</g>
<!-- Node4 -->
<g id="node4" class="node">
<title>Node4</title>
<g id="a_node4"><a xlink:href="MaximaFileIO_8cpp.html" target="_top" xlink:title="Implements the worksheet file loaders/savers extracted from the wxMaxima god class.">
<polygon fill="white" stroke="#666666" points="122,-74 0,-74 0,-55 122,-55 122,-74"/>
<text text-anchor="middle" x="61" y="-62" font-family="Helvetica,sans-Serif" font-size="10.00">src/MaximaFileIO.cpp</text>
</a>
</g>
</g>
<!-- Node3&#45;&gt;Node4 -->
<g id="edge3" class="edge">
<title>Node3&#45;&gt;Node4</title>
<path fill="none" stroke="#63b8ff" d="M1354.36,-238.68C1141.46,-235.46 406.45,-222.43 305,-195 208.24,-168.84 106.84,-99.08 72.87,-74.35"/>
<polygon fill="#63b8ff" stroke="#63b8ff" points="1354.34,-242.18 1364.4,-238.83 1354.45,-235.18 1354.34,-242.18"/>
</g>
<!-- Node5 -->
<g id="node5" class="node">
<title>Node5</title>
<g id="a_node5"><a xlink:href="Worksheet_8cpp.html" target="_top" xlink:title="This file defines the class Worksheet.">
<polygon fill="white" stroke="#666666" points="1456,-74 1350,-74 1350,-55 1456,-55 1456,-74"/>
<text text-anchor="middle" x="1403" y="-62" font-family="Helvetica,sans-Serif" font-size="10.00">src/Worksheet.cpp</text>
</a>
</g>
</g>
<!-- Node3&#45;&gt;Node5 -->
<g id="edge4" class="edge">
<title>Node3&#45;&gt;Node5</title>
<path fill="none" stroke="#63b8ff" d="M1469.85,-239.74C1716.69,-240.46 2671.19,-240.33 2715,-195 2724.27,-185.41 2724.06,-174.78 2715,-165 2628.13,-71.29 1690.85,-65.38 1456.08,-65.38"/>
<polygon fill="#63b8ff" stroke="#63b8ff" points="1469.67,-236.24 1459.66,-239.7 1469.65,-243.24 1469.67,-236.24"/>
</g>
<!-- Node6 -->
<g id="node6" class="node">
<title>Node6</title>
<g id="a_node6"><a xlink:href="WorksheetContextMenu_8cpp.html" target="_top" xlink:title="The worksheet&#39;s right&#45;click context menu (see WorksheetContextMenu.h).">
<polygon fill="white" stroke="#666666" points="805.5,-189.5 634.5,-189.5 634.5,-170.5 805.5,-170.5 805.5,-189.5"/>
<text text-anchor="middle" x="720" y="-177.5" font-family="Helvetica,sans-Serif" font-size="10.00">src/WorksheetContextMenu.cpp</text>
</a>
</g>
</g>
<!-- Node3&#45;&gt;Node6 -->
<g id="edge5" class="edge">
<title>Node3&#45;&gt;Node6</title>
<path fill="none" stroke="#63b8ff" d="M1354.06,-236.57C1247.25,-230.86 1012.19,-216.85 815,-195 801.41,-193.49 786.78,-191.52 773.17,-189.52"/>
<polygon fill="#63b8ff" stroke="#63b8ff" points="1354.13,-240.08 1364.3,-237.11 1354.5,-233.09 1354.13,-240.08"/>
</g>
<!-- Node7 -->
<g id="node7" class="node">
<title>Node7</title>
<g id="a_node7"><a xlink:href="ConfigDialogue_8h.html" target="_top" xlink:title="The configuration dialog.">
<polygon fill="white" stroke="#666666" points="480.5,-74 325.5,-74 325.5,-55 480.5,-55 480.5,-74"/>
<text text-anchor="middle" x="403" y="-62" font-family="Helvetica,sans-Serif" font-size="10.00">src/dialogs/ConfigDialogue.h</text>
</a>
</g>
</g>
<!-- Node3&#45;&gt;Node7 -->
<g id="edge6" class="edge">
<title>Node3&#45;&gt;Node7</title>
<path fill="none" stroke="#63b8ff" d="M1354.01,-239.98C1161.72,-241.14 553.06,-241.09 479,-195 442.35,-172.19 454.24,-147 432,-110 424.4,-97.36 414.97,-83.13 408.97,-74.25"/>
<polygon fill="#63b8ff" stroke="#63b8ff" points="1354.22,-243.48 1364.2,-239.92 1354.17,-236.48 1354.22,-243.48"/>
</g>
<!-- Node11 -->
<g id="node11" class="node">
<title>Node11</title>
<g id="a_node11"><a xlink:href="DiffFrame_8h_source.html" target="_top" xlink:title=" ">
<polygon fill="white" stroke="#666666" points="307.5,-74 178.5,-74 178.5,-55 307.5,-55 307.5,-74"/>
<text text-anchor="middle" x="243" y="-62" font-family="Helvetica,sans-Serif" font-size="10.00">src/dialogs/DiffFrame.h</text>
</a>
</g>
</g>
<!-- Node3&#45;&gt;Node11 -->
<g id="edge10" class="edge">
<title>Node3&#45;&gt;Node11</title>
<path fill="none" stroke="#63b8ff" d="M1354.4,-239.04C1174.38,-237.28 623.94,-229.14 449,-195 362.5,-178.12 322.79,-192.82 262,-129 247.4,-113.67 243.97,-87.57 243.2,-74.11"/>
<polygon fill="#63b8ff" stroke="#63b8ff" points="1354.43,-242.55 1364.46,-239.14 1354.49,-235.55 1354.43,-242.55"/>
</g>
<!-- Node12 -->
<g id="node12" class="node">
<title>Node12</title>
<g id="a_node12"><a xlink:href="Printout_8cpp.html" target="_top" xlink:title="This file defines the class MathPrintOut.">
<polygon fill="white" stroke="#666666" points="978.5,-189.5 823.5,-189.5 823.5,-170.5 978.5,-170.5 978.5,-189.5"/>
<text text-anchor="middle" x="901" y="-177.5" font-family="Helvetica,sans-Serif" font-size="10.00">src/graphical_io/Printout.cpp</text>
</a>
</g>
</g>
<!-- Node3&#45;&gt;Node12 -->
<g id="edge14" class="edge">
<title>Node3&#45;&gt;Node12</title>
<path fill="none" stroke="#63b8ff" d="M1354.12,-234.44C1272.38,-227.07 1118.52,-212.34 988,-195 976.02,-193.41 963.15,-191.47 951.08,-189.54"/>
<polygon fill="#63b8ff" stroke="#63b8ff" points="1353.94,-237.94 1364.21,-235.35 1354.56,-230.97 1353.94,-237.94"/>
</g>
<!-- Node13 -->
<g id="node13" class="node">
<title>Node13</title>
<g id="a_node13"><a xlink:href="wxMaximaFrame_8h.html" target="_top" xlink:title="This file declares the class wxMaximaFrame.">
<polygon fill="white" stroke="#666666" points="616,-189.5 488,-189.5 488,-170.5 616,-170.5 616,-189.5"/>
<text text-anchor="middle" x="552" y="-177.5" font-family="Helvetica,sans-Serif" font-size="10.00">src/wxMaximaFrame.h</text>
</a>
</g>
</g>
<!-- Node3&#45;&gt;Node13 -->
<g id="edge15" class="edge">
<title>Node3&#45;&gt;Node13</title>
<path fill="none" stroke="#63b8ff" d="M1354.26,-238.8C1223.91,-236.67 897.11,-228.18 626,-195 614.84,-193.63 602.83,-191.61 591.79,-189.51"/>
<polygon fill="#63b8ff" stroke="#63b8ff" points="1354.35,-242.31 1364.41,-238.96 1354.46,-235.31 1354.35,-242.31"/>
</g>
<!-- Node23 -->
<g id="node23" class="node">
<title>Node23</title>
<g id="a_node23"><a xlink:href="test__Accessibility_8cpp.html" target="_top" xlink:title="Logic&#45;level regression tests for wxMaxima&#39;s custom wxAccessible classes.">
<polygon fill="white" stroke="#666666" points="1105,-195 997,-195 997,-165 1105,-165 1105,-195"/>
<text text-anchor="start" x="1005" y="-183" font-family="Helvetica,sans-Serif" font-size="10.00">test/unit_tests/test</text>
<text text-anchor="middle" x="1051" y="-172" font-family="Helvetica,sans-Serif" font-size="10.00">_Accessibility.cpp</text>
</a>
</g>
</g>
<!-- Node3&#45;&gt;Node23 -->
<g id="edge36" class="edge">
<title>Node3&#45;&gt;Node23</title>
<path fill="none" stroke="#63b8ff" d="M1354.28,-232.11C1294.1,-224.11 1197.14,-210.43 1114,-195 1111.14,-194.47 1108.2,-193.9 1105.25,-193.31"/>
<polygon fill="#63b8ff" stroke="#63b8ff" points="1353.97,-235.6 1364.35,-233.44 1354.89,-228.66 1353.97,-235.6"/>
</g>
<!-- Node24 -->
<g id="node24" class="node">
<title>Node24</title>
<g id="a_node24"><a xlink:href="test__EditorCellInvariants_8cpp.html" target="_top" xlink:title="Hardening tests for EditorCell&#39;s text&#45;editing core.">
<polygon fill="white" stroke="#666666" points="1261,-195 1123,-195 1123,-165 1261,-165 1261,-195"/>
<text text-anchor="start" x="1131" y="-183" font-family="Helvetica,sans-Serif" font-size="10.00">test/unit_tests/test</text>
<text text-anchor="middle" x="1192" y="-172" font-family="Helvetica,sans-Serif" font-size="10.00">_EditorCellInvariants.cpp</text>
</a>
</g>
</g>
<!-- Node3&#45;&gt;Node24 -->
<g id="edge37" class="edge">
<title>Node3&#45;&gt;Node24</title>
<path fill="none" stroke="#63b8ff" d="M1369.96,-228.32C1334.39,-218.86 1283.24,-205.26 1244.89,-195.06"/>
<polygon fill="#63b8ff" stroke="#63b8ff" points="1369.45,-231.81 1380.01,-230.99 1371.25,-225.04 1369.45,-231.81"/>
</g>
<!-- Node25 -->
<g id="node25" class="node">
<title>Node25</title>
<g id="a_node25"><a xlink:href="test__GroupCellLayout_8cpp.html" target="_top" xlink:title="Regression tests for the GroupCell &lt;&#45;&gt; EditorCell layout coupling.">
<polygon fill="white" stroke="#666666" points="1402.5,-195 1279.5,-195 1279.5,-165 1402.5,-165 1402.5,-195"/>
<text text-anchor="start" x="1287.5" y="-183" font-family="Helvetica,sans-Serif" font-size="10.00">test/unit_tests/test</text>
<text text-anchor="middle" x="1341" y="-172" font-family="Helvetica,sans-Serif" font-size="10.00">_GroupCellLayout.cpp</text>
</a>
</g>
</g>
<!-- Node3&#45;&gt;Node25 -->
<g id="edge38" class="edge">
<title>Node3&#45;&gt;Node25</title>
<path fill="none" stroke="#63b8ff" d="M1393.8,-224.5C1382.82,-215.45 1368.91,-204 1358.13,-195.11"/>
<polygon fill="#63b8ff" stroke="#63b8ff" points="1391.58,-227.21 1401.52,-230.87 1396.03,-221.81 1391.58,-227.21"/>
</g>
<!-- Node26 -->
<g id="node26" class="node">
<title>Node26</title>
<g id="a_node26"><a xlink:href="test__LayoutInvariants_8cpp.html" target="_top" xlink:title="Layout idempotency invariants.">
<polygon fill="white" stroke="#666666" points="1545,-195 1421,-195 1421,-165 1545,-165 1545,-195"/>
<text text-anchor="start" x="1429" y="-183" font-family="Helvetica,sans-Serif" font-size="10.00">test/unit_tests/test</text>
<text text-anchor="middle" x="1483" y="-172" font-family="Helvetica,sans-Serif" font-size="10.00">_LayoutInvariants.cpp</text>
</a>
</g>
</g>
<!-- Node3&#45;&gt;Node26 -->
<g id="edge39" class="edge">
<title>Node3&#45;&gt;Node26</title>
<path fill="none" stroke="#63b8ff" d="M1430.2,-224.5C1441.18,-215.45 1455.09,-204 1465.87,-195.11"/>
<polygon fill="#63b8ff" stroke="#63b8ff" points="1427.97,-221.81 1422.48,-230.87 1432.42,-227.21 1427.97,-221.81"/>
</g>
<!-- Node27 -->
<g id="node27" class="node">
<title>Node27</title>
<g id="a_node27"><a xlink:href="test__TreeUndo_8cpp.html" target="_top" xlink:title="Regression tests for the worksheet&#39;s cell&#45;tree undo/redo (the TreeUndo_* subsystem of Worksheet).">
<polygon fill="white" stroke="#666666" points="1671,-195 1563,-195 1563,-165 1671,-165 1671,-195"/>
<text text-anchor="start" x="1571" y="-183" font-family="Helvetica,sans-Serif" font-size="10.00">test/unit_tests/test</text>
<text text-anchor="middle" x="1617" y="-172" font-family="Helvetica,sans-Serif" font-size="10.00">_TreeUndo.cpp</text>
</a>
</g>
</g>
<!-- Node3&#45;&gt;Node27 -->
<g id="edge40" class="edge">
<title>Node3&#45;&gt;Node27</title>
<path fill="none" stroke="#63b8ff" d="M1451.6,-228.2C1484.73,-218.75 1532.14,-205.22 1567.72,-195.06"/>
<polygon fill="#63b8ff" stroke="#63b8ff" points="1450.46,-224.88 1441.81,-230.99 1452.39,-231.62 1450.46,-224.88"/>
</g>
<!-- Node28 -->
<g id="node28" class="node">
<title>Node28</title>
<g id="a_node28"><a xlink:href="test__WXMRoundtrip_8cpp.html" target="_top" xlink:title="Regression tests for images surviving the .wxm serialization round&#45;trip.">
<polygon fill="white" stroke="#666666" points="1804.5,-195 1689.5,-195 1689.5,-165 1804.5,-165 1804.5,-195"/>
<text text-anchor="start" x="1697.5" y="-183" font-family="Helvetica,sans-Serif" font-size="10.00">test/unit_tests/test</text>
<text text-anchor="middle" x="1747" y="-172" font-family="Helvetica,sans-Serif" font-size="10.00">_WXMRoundtrip.cpp</text>
</a>
</g>
</g>
<!-- Node3&#45;&gt;Node28 -->
<g id="edge41" class="edge">
<title>Node3&#45;&gt;Node28</title>
<path fill="none" stroke="#63b8ff" d="M1469.68,-230.63C1524.04,-222.1 1607.71,-208.55 1680,-195 1683.04,-194.43 1686.15,-193.83 1689.29,-193.22"/>
<polygon fill="#63b8ff" stroke="#63b8ff" points="1468.89,-227.21 1459.55,-232.21 1469.97,-234.13 1468.89,-227.21"/>
</g>
<!-- Node29 -->
<g id="node29" class="node">
<title>Node29</title>
<g id="a_node29"><a xlink:href="test__WXMXRoundtrip_8cpp.html" target="_top" xlink:title="Round&#45;trip tests for the .wxmx content.xml (the MathML&#45;like math format).">
<polygon fill="white" stroke="#666666" points="1945,-195 1823,-195 1823,-165 1945,-165 1945,-195"/>
<text text-anchor="start" x="1831" y="-183" font-family="Helvetica,sans-Serif" font-size="10.00">test/unit_tests/test</text>
<text text-anchor="middle" x="1884" y="-172" font-family="Helvetica,sans-Serif" font-size="10.00">_WXMXRoundtrip.cpp</text>
</a>
</g>
</g>
<!-- Node3&#45;&gt;Node29 -->
<g id="edge42" class="edge">
<title>Node3&#45;&gt;Node29</title>
<path fill="none" stroke="#63b8ff" d="M1469.65,-234.71C1547.9,-227.84 1691.98,-213.92 1814,-195 1816.94,-194.54 1819.94,-194.05 1822.97,-193.53"/>
<polygon fill="#63b8ff" stroke="#63b8ff" points="1469.18,-231.24 1459.52,-235.59 1469.78,-238.21 1469.18,-231.24"/>
</g>
<!-- Node30 -->
<g id="node30" class="node">
<title>Node30</title>
<g id="a_node30"><a xlink:href="test__WorksheetContextMenu_8cpp.html" target="_top" xlink:title="Regression tests for the worksheet&#39;s right&#45;click context menu.">
<polygon fill="white" stroke="#666666" points="2122.5,-195 1963.5,-195 1963.5,-165 2122.5,-165 2122.5,-195"/>
<text text-anchor="start" x="1971.5" y="-183" font-family="Helvetica,sans-Serif" font-size="10.00">test/unit_tests/test</text>
<text text-anchor="middle" x="2043" y="-172" font-family="Helvetica,sans-Serif" font-size="10.00">_WorksheetContextMenu.cpp</text>
</a>
</g>
</g>
<!-- Node3&#45;&gt;Node30 -->
<g id="edge43" class="edge">
<title>Node3&#45;&gt;Node30</title>
<path fill="none" stroke="#63b8ff" d="M1469.72,-236.17C1568.94,-230.13 1778.12,-216.02 1954,-195 1957.11,-194.63 1960.27,-194.23 1963.46,-193.81"/>
<polygon fill="#63b8ff" stroke="#63b8ff" points="1469.38,-232.68 1459.61,-236.78 1469.8,-239.67 1469.38,-232.68"/>
</g>
<!-- Node31 -->
<g id="node31" class="node">
<title>Node31</title>
<g id="a_node31"><a xlink:href="test__WorksheetCursor_8cpp.html" target="_top" xlink:title="Pins the worksheet&#39;s cursor model before it is gathered into a cursor class.">
<polygon fill="white" stroke="#666666" points="2265.5,-195 2140.5,-195 2140.5,-165 2265.5,-165 2265.5,-195"/>
<text text-anchor="start" x="2148.5" y="-183" font-family="Helvetica,sans-Serif" font-size="10.00">test/unit_tests/test</text>
<text text-anchor="middle" x="2203" y="-172" font-family="Helvetica,sans-Serif" font-size="10.00">_WorksheetCursor.cpp</text>
</a>
</g>
</g>
<!-- Node3&#45;&gt;Node31 -->
<g id="edge44" class="edge">
<title>Node3&#45;&gt;Node31</title>
<path fill="none" stroke="#63b8ff" d="M1470.1,-238.53C1592.82,-235.89 1887.29,-226.55 2132,-195 2134.74,-194.65 2137.54,-194.25 2140.35,-193.82"/>
<polygon fill="#63b8ff" stroke="#63b8ff" points="1469.73,-235.03 1459.81,-238.74 1469.88,-242.03 1469.73,-235.03"/>
</g>
<!-- Node32 -->
<g id="node32" class="node">
<title>Node32</title>
<g id="a_node32"><a xlink:href="test__WorksheetEvalQueue_8cpp.html" target="_top" xlink:title="Pins the worksheet&#39;s &quot;add cells to the evaluation queue&quot; behavior before the Add*ToEvaluationQueue fa...">
<polygon fill="white" stroke="#666666" points="2430,-195 2284,-195 2284,-165 2430,-165 2430,-195"/>
<text text-anchor="start" x="2292" y="-183" font-family="Helvetica,sans-Serif" font-size="10.00">test/unit_tests/test</text>
<text text-anchor="middle" x="2357" y="-172" font-family="Helvetica,sans-Serif" font-size="10.00">_WorksheetEvalQueue.cpp</text>
</a>
</g>
</g>
<!-- Node3&#45;&gt;Node32 -->
<g id="edge45" class="edge">
<title>Node3&#45;&gt;Node32</title>
<path fill="none" stroke="#63b8ff" d="M1469.89,-238.86C1609.05,-236.82 1973.14,-228.43 2275,-195 2277.87,-194.68 2280.79,-194.33 2283.74,-193.95"/>
<polygon fill="#63b8ff" stroke="#63b8ff" points="1469.82,-235.36 1459.87,-239 1469.92,-242.36 1469.82,-235.36"/>
</g>
<!-- Node33 -->
<g id="node33" class="node">
<title>Node33</title>
<g id="a_node33"><a xlink:href="test__WorksheetExport_8cpp.html" target="_top" xlink:title="Safety net for the export/serialization cluster of Worksheet.">
<polygon fill="white" stroke="#666666" points="2573.5,-195 2448.5,-195 2448.5,-165 2573.5,-165 2573.5,-195"/>
<text text-anchor="start" x="2456.5" y="-183" font-family="Helvetica,sans-Serif" font-size="10.00">test/unit_tests/test</text>
<text text-anchor="middle" x="2511" y="-172" font-family="Helvetica,sans-Serif" font-size="10.00">_WorksheetExport.cpp</text>
</a>
</g>
</g>
<!-- Node3&#45;&gt;Node33 -->
<g id="edge46" class="edge">
<title>Node3&#45;&gt;Node33</title>
<path fill="none" stroke="#63b8ff" d="M1469.89,-240C1626.58,-240.7 2071.92,-238.4 2439,-195 2442.04,-194.64 2445.13,-194.23 2448.26,-193.77"/>
<polygon fill="#63b8ff" stroke="#63b8ff" points="1469.57,-236.5 1459.55,-239.95 1469.53,-243.5 1469.57,-236.5"/>
</g>
<!-- Node34 -->
<g id="node34" class="node">
<title>Node34</title>
<g id="a_node34"><a xlink:href="test__WorksheetFind_8cpp.html" target="_top" xlink:title="Pins the worksheet&#39;s find/replace behavior before the search engine is extracted into WorksheetSearch...">
<polygon fill="white" stroke="#666666" points="2706,-195 2592,-195 2592,-165 2706,-165 2706,-195"/>
<text text-anchor="start" x="2600" y="-183" font-family="Helvetica,sans-Serif" font-size="10.00">test/unit_tests/test</text>
<text text-anchor="middle" x="2649" y="-172" font-family="Helvetica,sans-Serif" font-size="10.00">_WorksheetFind.cpp</text>
</a>
</g>
</g>
<!-- Node3&#45;&gt;Node34 -->
<g id="edge47" class="edge">
<title>Node3&#45;&gt;Node34</title>
<path fill="none" stroke="#63b8ff" d="M1470.06,-238.61C1675.01,-235.26 2363.97,-222.19 2583,-195 2585.91,-194.64 2588.87,-194.22 2591.86,-193.74"/>
<polygon fill="#63b8ff" stroke="#63b8ff" points="1469.76,-235.11 1459.82,-238.77 1469.87,-242.11 1469.76,-235.11"/>
</g>
<!-- Node8 -->
<g id="node8" class="node">
<title>Node8</title>
<g id="a_node8"><a xlink:href="MaximaCommandMenus_8cpp.html" target="_top" xlink:title="Implementation of the menu&#45;command handlers extracted from wxMaxima &#45; see MaximaCommandMenus....">
<polygon fill="white" stroke="#666666" points="331,-19 155,-19 155,0 331,0 331,-19"/>
<text text-anchor="middle" x="243" y="-7" font-family="Helvetica,sans-Serif" font-size="10.00">src/MaximaCommandMenus.cpp</text>
</a>
</g>
</g>
<!-- Node7&#45;&gt;Node8 -->
<g id="edge7" class="edge">
<title>Node7&#45;&gt;Node8</title>
<path fill="none" stroke="#63b8ff" d="M367.67,-51.8C337.81,-41.91 295.73,-27.97 268.91,-19.08"/>
<polygon fill="#63b8ff" stroke="#63b8ff" points="366.7,-55.16 377.29,-54.98 368.9,-48.52 366.7,-55.16"/>
</g>
<!-- Node9 -->
<g id="node9" class="node">
<title>Node9</title>
<g id="a_node9"><a xlink:href="main_8cpp.html" target="_top" xlink:title="The file that defines the starting point of the program.">
<polygon fill="white" stroke="#666666" points="868.5,-19 789.5,-19 789.5,0 868.5,0 868.5,-19"/>
<text text-anchor="middle" x="829" y="-7" font-family="Helvetica,sans-Serif" font-size="10.00">src/main.cpp</text>
</a>
</g>
</g>
<!-- Node7&#45;&gt;Node9 -->
<g id="edge8" class="edge">
<title>Node7&#45;&gt;Node9</title>
<path fill="none" stroke="#63b8ff" d="M481.46,-53.74C572.65,-42.39 719.54,-24.12 789.5,-15.41"/>
<polygon fill="#63b8ff" stroke="#63b8ff" points="480.94,-50.28 471.44,-54.98 481.8,-57.22 480.94,-50.28"/>
</g>
<!-- Node10 -->
<g id="node10" class="node">
<title>Node10</title>
<g id="a_node10"><a xlink:href="wxMaxima_8cpp.html" target="_top" xlink:title="This file defines the contents of the class wxMaxima that contains most of the program&#39;s logic.">
<polygon fill="white" stroke="#666666" points="510,-19 402,-19 402,0 510,0 510,-19"/>
<text text-anchor="middle" x="456" y="-7" font-family="Helvetica,sans-Serif" font-size="10.00">src/wxMaxima.cpp</text>
</a>
</g>
</g>
<!-- Node7&#45;&gt;Node10 -->
<g id="edge9" class="edge">
<title>Node7&#45;&gt;Node10</title>
<path fill="none" stroke="#63b8ff" d="M418.98,-47.52C428.32,-38.18 439.75,-26.75 447.41,-19.09"/>
<polygon fill="#63b8ff" stroke="#63b8ff" points="416.35,-45.2 411.75,-54.75 421.3,-50.15 416.35,-45.2"/>
</g>
<!-- Node11&#45;&gt;Node8 -->
<g id="edge11" class="edge">
<title>Node11&#45;&gt;Node8</title>
<path fill="none" stroke="#63b8ff" d="M243,-44.66C243,-35.93 243,-25.99 243,-19.09"/>
<polygon fill="#63b8ff" stroke="#63b8ff" points="239.5,-44.75 243,-54.75 246.5,-44.75 239.5,-44.75"/>
</g>
<!-- Node11&#45;&gt;Node9 -->
<g id="edge12" class="edge">
<title>Node11&#45;&gt;Node9</title>
<path fill="none" stroke="#63b8ff" d="M317.89,-54.83C499.9,-36.49 704.76,-20.11 789.38,-13.54"/>
<polygon fill="#63b8ff" stroke="#63b8ff" points="317.46,-51.36 307.87,-55.85 318.17,-58.32 317.46,-51.36"/>
</g>
<!-- Node11&#45;&gt;Node10 -->
<g id="edge13" class="edge">
<title>Node11&#45;&gt;Node10</title>
<path fill="none" stroke="#63b8ff" d="M286.95,-52.56C326.84,-42.64 384.87,-28.2 421.51,-19.08"/>
<polygon fill="#63b8ff" stroke="#63b8ff" points="286.08,-49.17 277.22,-54.98 287.77,-55.97 286.08,-49.17"/>
</g>
<!-- Node13&#45;&gt;Node2 -->
<g id="edge16" class="edge">
<title>Node13&#45;&gt;Node2</title>
<path fill="none" stroke="#63b8ff" d="M512.33,-167.68C472.68,-156.37 412.62,-139.22 376.84,-129.02"/>
<polygon fill="#63b8ff" stroke="#63b8ff" points="511.61,-171.12 522.19,-170.49 513.54,-164.38 511.61,-171.12"/>
</g>
<!-- Node13&#45;&gt;Node5 -->
<g id="edge17" class="edge">
<title>Node13&#45;&gt;Node5</title>
<path fill="none" stroke="#63b8ff" d="M602.96,-168.66C610.66,-167.3 618.52,-166.02 626,-165 812.06,-139.51 860.81,-153.51 1047,-129 1162,-113.86 1296.42,-87.5 1362.34,-74"/>
<polygon fill="#63b8ff" stroke="#63b8ff" points="602.19,-165.24 592.98,-170.48 603.44,-172.13 602.19,-165.24"/>
</g>
<!-- Node14 -->
<g id="node14" class="node">
<title>Node14</title>
<g id="a_node14"><a xlink:href="EditorCell_8cpp.html" target="_top" xlink:title="This file defines the class EditorCell.">
<polygon fill="white" stroke="#666666" points="1245.5,-74 1118.5,-74 1118.5,-55 1245.5,-55 1245.5,-74"/>
<text text-anchor="middle" x="1182" y="-62" font-family="Helvetica,sans-Serif" font-size="10.00">src/cells/EditorCell.cpp</text>
</a>
</g>
</g>
<!-- Node13&#45;&gt;Node14 -->
<g id="edge18" class="edge">
<title>Node13&#45;&gt;Node14</title>
<path fill="none" stroke="#63b8ff" d="M604.85,-168.55C611.95,-167.28 619.14,-166.06 626,-165 758.28,-144.55 793.34,-153.1 925,-129 1008.41,-113.73 1105.08,-87.49 1152.58,-74.02"/>
<polygon fill="#63b8ff" stroke="#63b8ff" points="603.77,-165.19 594.57,-170.44 605.04,-172.08 603.77,-165.19"/>
</g>
<!-- Node15 -->
<g id="node15" class="node">
<title>Node15</title>
<g id="a_node15"><a xlink:href="main_8h.html" target="_top" xlink:title="This file declares the class wxMaxima that contains most of the program&#39;s logic.">
<polygon fill="white" stroke="#666666" points="1332,-74 1264,-74 1264,-55 1332,-55 1332,-74"/>
<text text-anchor="middle" x="1298" y="-62" font-family="Helvetica,sans-Serif" font-size="10.00">src/main.h</text>
</a>
</g>
</g>
<!-- Node13&#45;&gt;Node15 -->
<g id="edge19" class="edge">
<title>Node13&#45;&gt;Node15</title>
<path fill="none" stroke="#63b8ff" d="M603.78,-168.62C611.22,-167.3 618.79,-166.05 626,-165 782.95,-142.24 824.18,-152.6 981,-129 1084.79,-113.38 1206.1,-86.7 1263.95,-73.45"/>
<polygon fill="#63b8ff" stroke="#63b8ff" points="602.98,-165.21 593.77,-170.45 604.24,-172.09 602.98,-165.21"/>
</g>
<!-- Node17 -->
<g id="node17" class="node">
<title>Node17</title>
<g id="a_node17"><a xlink:href="GreekSidebar_8cpp.html" target="_top" xlink:title="This file defines the class GreekSidebar.">
<polygon fill="white" stroke="#666666" points="643,-129 479,-129 479,-110 643,-110 643,-129"/>
<text text-anchor="middle" x="561" y="-117" font-family="Helvetica,sans-Serif" font-size="10.00">src/sidebars/GreekSidebar.cpp</text>
</a>
</g>
</g>
<!-- Node13&#45;&gt;Node17 -->
<g id="edge23" class="edge">
<title>Node13&#45;&gt;Node17</title>
<path fill="none" stroke="#63b8ff" d="M554.9,-160.16C556.5,-149.74 558.42,-137.3 559.67,-129.17"/>
<polygon fill="#63b8ff" stroke="#63b8ff" points="551.39,-159.95 553.33,-170.37 558.31,-161.02 551.39,-159.95"/>
</g>
<!-- Node18 -->
<g id="node18" class="node">
<title>Node18</title>
<g id="a_node18"><a xlink:href="wxMaxima_8h.html" target="_top" xlink:title="This file declares the class wxMaxima that contains most of the program&#39;s logic.">
<polygon fill="white" stroke="#666666" points="915.5,-129 818.5,-129 818.5,-110 915.5,-110 915.5,-129"/>
<text text-anchor="middle" x="867" y="-117" font-family="Helvetica,sans-Serif" font-size="10.00">src/wxMaxima.h</text>
</a>
</g>
</g>
<!-- Node13&#45;&gt;Node18 -->
<g id="edge24" class="edge">
<title>Node13&#45;&gt;Node18</title>
<path fill="none" stroke="#63b8ff" d="M606.99,-168.57C613.4,-167.36 619.84,-166.15 626,-165 693.54,-152.37 771.78,-137.97 820.34,-129.05"/>
<polygon fill="#63b8ff" stroke="#63b8ff" points="606.17,-165.16 597,-170.45 607.47,-172.04 606.17,-165.16"/>
</g>
<!-- Node22 -->
<g id="node22" class="node">
<title>Node22</title>
<g id="a_node22"><a xlink:href="wxMaximaFrame_8cpp.html" target="_top" xlink:title="This file defines the class wxMaximaFrame.">
<polygon fill="white" stroke="#666666" points="800.5,-129 661.5,-129 661.5,-110 800.5,-110 800.5,-129"/>
<text text-anchor="middle" x="731" y="-117" font-family="Helvetica,sans-Serif" font-size="10.00">src/wxMaximaFrame.cpp</text>
</a>
</g>
</g>
<!-- Node13&#45;&gt;Node22 -->
<g id="edge35" class="edge">
<title>Node13&#45;&gt;Node22</title>
<path fill="none" stroke="#63b8ff" d="M587.75,-167.32C622.37,-156 674.04,-139.12 704.94,-129.02"/>
<polygon fill="#63b8ff" stroke="#63b8ff" points="586.45,-164.06 578.03,-170.49 588.62,-170.71 586.45,-164.06"/>
</g>
<!-- Node15&#45;&gt;Node9 -->
<g id="edge21" class="edge">
<title>Node15&#45;&gt;Node9</title>
<path fill="none" stroke="#63b8ff" d="M1253.62,-54.92C1105.89,-33.02 942.21,-19.12 868.5,-13.42"/>
<polygon fill="#63b8ff" stroke="#63b8ff" points="1253.37,-58.42 1263.78,-56.44 1254.41,-51.5 1253.37,-58.42"/>
</g>
<!-- Node15&#45;&gt;Node10 -->
<g id="edge22" class="edge">
<title>Node15&#45;&gt;Node10</title>
<path fill="none" stroke="#63b8ff" d="M1253.51,-55.04C1091.28,-35.98 662,-18.37 510.1,-12.53"/>
<polygon fill="#63b8ff" stroke="#63b8ff" points="1253.45,-58.55 1263.8,-56.29 1254.3,-51.61 1253.45,-58.55"/>
</g>
<!-- Node16 -->
<g id="node16" class="node">
<title>Node16</title>
<g id="a_node16"><a xlink:href="MaximaManual_8cpp.html" target="_top" xlink:title="This file defines the class MaximaManual.">
<polygon fill="white" stroke="#666666" points="1363,-19 1233,-19 1233,0 1363,0 1363,-19"/>
<text text-anchor="middle" x="1298" y="-7" font-family="Helvetica,sans-Serif" font-size="10.00">src/MaximaManual.cpp</text>
</a>
</g>
</g>
<!-- Node15&#45;&gt;Node16 -->
<g id="edge20" class="edge">
<title>Node15&#45;&gt;Node16</title>
<path fill="none" stroke="#63b8ff" d="M1298,-44.66C1298,-35.93 1298,-25.99 1298,-19.09"/>
<polygon fill="#63b8ff" stroke="#63b8ff" points="1294.5,-44.75 1298,-54.75 1301.5,-44.75 1294.5,-44.75"/>
</g>
<!-- Node18&#45;&gt;Node4 -->
<g id="edge27" class="edge">
<title>Node18&#45;&gt;Node4</title>
<path fill="none" stroke="#63b8ff" d="M807.97,-109.89C509.79,-80.27 431.59,-98.62 136,-74 131.56,-73.63 126.98,-73.21 122.37,-72.76"/>
<polygon fill="#63b8ff" stroke="#63b8ff" points="807.92,-113.4 818.22,-110.92 808.62,-106.43 807.92,-113.4"/>
</g>
<!-- Node18&#45;&gt;Node5 -->
<g id="edge30" class="edge">
<title>Node18&#45;&gt;Node5</title>
<path fill="none" stroke="#63b8ff" d="M925.75,-113.79C1015.42,-106.43 1191.73,-91.23 1341,-74 1343.91,-73.66 1346.9,-73.3 1349.92,-72.93"/>
<polygon fill="#63b8ff" stroke="#63b8ff" points="925.2,-110.33 915.52,-114.63 925.77,-117.31 925.2,-110.33"/>
</g>
<!-- Node18&#45;&gt;Node8 -->
<g id="edge25" class="edge">
<title>Node18&#45;&gt;Node8</title>
<path fill="none" stroke="#63b8ff" d="M807.95,-110.15C702,-104.3 216.24,-123.96 169,-74 148.65,-52.47 190.7,-30.7 219.35,-19.08"/>
<polygon fill="#63b8ff" stroke="#63b8ff" points="807.99,-113.67 818.22,-110.92 808.51,-106.69 807.99,-113.67"/>
</g>
<!-- Node18&#45;&gt;Node9 -->
<g id="edge32" class="edge">
<title>Node18&#45;&gt;Node9</title>
<path fill="none" stroke="#63b8ff" d="M925.69,-118.49C999.81,-116.45 1112.94,-105.36 1071,-55 1045.71,-24.64 930.59,-14.92 868.68,-11.86"/>
<polygon fill="#63b8ff" stroke="#63b8ff" points="925.42,-115 915.5,-118.72 925.58,-122 925.42,-115"/>
</g>
<!-- Node18&#45;&gt;Node10 -->
<g id="edge34" class="edge">
<title>Node18&#45;&gt;Node10</title>
<path fill="none" stroke="#63b8ff" d="M808.53,-109.89C683.13,-94.33 640.96,-124.22 529,-74 500.49,-61.21 474.87,-33.49 463,-19.28"/>
<polygon fill="#63b8ff" stroke="#63b8ff" points="808.13,-113.36 818.5,-111.2 809.04,-106.42 808.13,-113.36"/>
</g>
<!-- Node18&#45;&gt;Node14 -->
<g id="edge31" class="edge">
<title>Node18&#45;&gt;Node14</title>
<path fill="none" stroke="#63b8ff" d="M925.47,-108.66C984.62,-98.71 1075.13,-83.48 1131.33,-74.03"/>
<polygon fill="#63b8ff" stroke="#63b8ff" points="924.81,-105.22 915.53,-110.33 925.97,-112.13 924.81,-105.22"/>
</g>
<!-- Node18&#45;&gt;Node15 -->
<g id="edge33" class="edge">
<title>Node18&#45;&gt;Node15</title>
<path fill="none" stroke="#63b8ff" d="M925.9,-113.24C1002.11,-106.1 1138.87,-92.11 1255,-74 1257.86,-73.55 1260.81,-73.05 1263.78,-72.52"/>
<polygon fill="#63b8ff" stroke="#63b8ff" points="925.19,-109.79 915.56,-114.2 925.84,-116.76 925.19,-109.79"/>
</g>
<!-- Node19 -->
<g id="node19" class="node">
<title>Node19</title>
<g id="a_node19"><a xlink:href="MaximaEvaluator_8cpp.html" target="_top" xlink:title="Implements the evaluation&#45;queue driver extracted from the wxMaxima god class.">
<polygon fill="white" stroke="#666666" points="1062,-74 922,-74 922,-55 1062,-55 1062,-74"/>
<text text-anchor="middle" x="992" y="-62" font-family="Helvetica,sans-Serif" font-size="10.00">src/MaximaEvaluator.cpp</text>
</a>
</g>
</g>
<!-- Node18&#45;&gt;Node19 -->
<g id="edge26" class="edge">
<title>Node18&#45;&gt;Node19</title>
<path fill="none" stroke="#63b8ff" d="M896.41,-106.03C919.53,-96.23 951.13,-82.83 971.55,-74.17"/>
<polygon fill="#63b8ff" stroke="#63b8ff" points="894.92,-102.86 887.08,-109.98 897.66,-109.3 894.92,-102.86"/>
</g>
<!-- Node20 -->
<g id="node20" class="node">
<title>Node20</title>
<g id="a_node20"><a xlink:href="MaximaProcessManager_8cpp.html" target="_top" xlink:title="Implements the Maxima process/socket lifecycle extracted from the wxMaxima god class.">
<polygon fill="white" stroke="#666666" points="710.5,-74 537.5,-74 537.5,-55 710.5,-55 710.5,-74"/>
<text text-anchor="middle" x="624" y="-62" font-family="Helvetica,sans-Serif" font-size="10.00">src/MaximaProcessManager.cpp</text>
</a>
</g>
</g>
<!-- Node18&#45;&gt;Node20 -->
<g id="edge28" class="edge">
<title>Node18&#45;&gt;Node20</title>
<path fill="none" stroke="#63b8ff" d="M818.01,-107.82C772.47,-97.88 705.5,-83.28 663.35,-74.08"/>
<polygon fill="#63b8ff" stroke="#63b8ff" points="817.44,-111.27 827.96,-109.98 818.93,-104.43 817.44,-111.27"/>
</g>
<!-- Node21 -->
<g id="node21" class="node">
<title>Node21</title>
<g id="a_node21"><a xlink:href="MaximaResponseReader_8cpp.html" target="_top" xlink:title="Implements the Maxima&#45;response handlers extracted from the wxMaxima god class.">
<polygon fill="white" stroke="#666666" points="903.5,-74 728.5,-74 728.5,-55 903.5,-55 903.5,-74"/>
<text text-anchor="middle" x="816" y="-62" font-family="Helvetica,sans-Serif" font-size="10.00">src/MaximaResponseReader.cpp</text>
</a>
</g>
</g>
<!-- Node18&#45;&gt;Node21 -->
<g id="edge29" class="edge">
<title>Node18&#45;&gt;Node21</title>
<path fill="none" stroke="#63b8ff" d="M851.62,-102.52C842.63,-93.18 831.64,-81.75 824.26,-74.09"/>
<polygon fill="#63b8ff" stroke="#63b8ff" points="849.12,-104.97 858.58,-109.75 854.17,-100.12 849.12,-104.97"/>
</g>
</g>
</svg>
