<?xml version="1.0" encoding="UTF-8" standalone="no"?>
<!DOCTYPE svg PUBLIC "-//W3C//DTD SVG 1.1//EN"
 "http://www.w3.org/Graphics/SVG/1.1/DTD/svg11.dtd">
<!-- Generated by graphviz version 2.43.0 (0)
 -->
<!-- Title: src/Autocomplete.h Pages: 1 -->
<!--zoomable 368 -->
<svg id="main" version="1.1" xmlns="http://www.w3.org/2000/svg" xmlns:xlink="http://www.w3.org/1999/xlink" xml:space="preserve" onload="init(evt)">
<style type="text/css"><![CDATA[
.edge:hover path { stroke: red; }
.edge:hover polygon { stroke: red; fill: red; }
]]></style>
<script type="text/javascript"><![CDATA[
var edges = document.getElementsByTagName('g');
if (edges && edges.length) {
  for (var i=0;i<edges.length;i++) {
    if (edges[i].id.substr(0,4)=='edge') {
      edges[i].setAttribute('class','edge');
    }
  }
}
]]></script>
        <defs>
                <circle id="rim" cx="0" cy="0" r="7"/>
                <circle id="rim2" cx="0" cy="0" r="3.5"/>
                <g id="zoomPlus">
                        <use xlink:href="#rim" fill="#404040">
                                <set attributeName="fill" to="#808080" begin="zoomplus.mouseover" end="zoomplus.mouseout"/>
                        </use>
                        <path d="M-4,0h8M0,-4v8" fill="none" stroke="white" stroke-width="1.5" pointer-events="none"/>
                </g>
                <g id="zoomMin">
                        <use xlink:href="#rim" fill="#404040">
                                <set attributeName="fill" to="#808080" begin="zoomminus.mouseover" end="zoomminus.mouseout"/>
                        </use>
                        <path d="M-4,0h8" fill="none" stroke="white" stroke-width="1.5" pointer-events="none"/>
                </g>
                <g id="dirArrow">
                        <path fill="none" stroke="white" stroke-width="1.5" d="M0,-3.0v7 M-2.5,-0.5L0,-3.0L2.5,-0.5"/>
                </g>
               <g id="resetDef">
                       <use xlink:href="#rim2" fill="#404040">
                               <set attributeName="fill" to="#808080" begin="reset.mouseover" end="reset.mouseout"/>
                       </use>
               </g>
        </defs>

<script type="text/javascript">
var viewWidth = 2564;
var viewHeight = 368;
var sectionId = 'dynsection-1';
</script>
<script xlink:href="svgpan.js"/>
<svg id="graph" class="graph">
<g id="viewport">
<title>src/Autocomplete.h</title>
<!-- Node1 -->
<g id="node1" class="node">
<title>Node1</title>
<g id="a_node1"><a xlink:title="This file declares the class AutoComplete.">
<polygon fill="#999999" stroke="#666666" points="1200.89,-360 1089.89,-360 1089.89,-341 1200.89,-341 1200.89,-360"/>
<text text-anchor="middle" x="1145.39" y="-348" font-family="Helvetica,sans-Serif" font-size="10.00">src/Autocomplete.h</text>
</a>
</g>
</g>
<!-- Node2 -->
<g id="node2" class="node">
<title>Node2</title>
<g id="a_node2"><a xlink:href="Autocomplete_8cpp.html" target="_top" xlink:title="This file defines the class AutoComplete.">
<polygon fill="white" stroke="#666666" points="1056.39,-305 934.39,-305 934.39,-286 1056.39,-286 1056.39,-305"/>
<text text-anchor="middle" x="995.39" y="-293" font-family="Helvetica,sans-Serif" font-size="10.00">src/Autocomplete.cpp</text>
</a>
</g>
</g>
<!-- Node1&#45;&gt;Node2 -->
<g id="edge1" class="edge">
<title>Node1&#45;&gt;Node2</title>
<path fill="none" stroke="#63b8ff" d="M1111.57,-337.55C1083.72,-327.71 1044.88,-313.98 1019.93,-305.17"/>
<polygon fill="#63b8ff" stroke="#63b8ff" points="1110.7,-340.95 1121.29,-340.98 1113.03,-334.35 1110.7,-340.95"/>
</g>
<!-- Node3 -->
<g id="node3" class="node">
<title>Node3</title>
<g id="a_node3"><a xlink:href="AutocompletePopup_8h.html" target="_top" xlink:title="The first number that is open for dynamic ID assignment.">
<polygon fill="white" stroke="#666666" points="1215.89,-305 1074.89,-305 1074.89,-286 1215.89,-286 1215.89,-305"/>
<text text-anchor="middle" x="1145.39" y="-293" font-family="Helvetica,sans-Serif" font-size="10.00">src/AutocompletePopup.h</text>
</a>
</g>
</g>
<!-- Node1&#45;&gt;Node3 -->
<g id="edge2" class="edge">
<title>Node1&#45;&gt;Node3</title>
<path fill="none" stroke="#63b8ff" d="M1145.39,-330.66C1145.39,-321.93 1145.39,-311.99 1145.39,-305.09"/>
<polygon fill="#63b8ff" stroke="#63b8ff" points="1141.89,-330.75 1145.39,-340.75 1148.89,-330.75 1141.89,-330.75"/>
</g>
<!-- Node5 -->
<g id="node5" class="node">
<title>Node5</title>
<g id="a_node5"><a xlink:href="Worksheet_8h.html" target="_top" xlink:title="This file defines the class Worksheet.">
<polygon fill="white" stroke="#666666" points="1291.89,-250 1196.89,-250 1196.89,-231 1291.89,-231 1291.89,-250"/>
<text text-anchor="middle" x="1244.39" y="-238" font-family="Helvetica,sans-Serif" font-size="10.00">src/Worksheet.h</text>
</a>
</g>
</g>
<!-- Node1&#45;&gt;Node5 -->
<g id="edge43" class="edge">
<title>Node1&#45;&gt;Node5</title>
<path fill="none" stroke="#63b8ff" d="M1180.14,-336.84C1195.61,-329.64 1212.9,-319.17 1224.39,-305 1237.65,-288.66 1242.16,-263.46 1243.67,-250.25"/>
<polygon fill="#63b8ff" stroke="#63b8ff" points="1178.57,-333.71 1170.8,-340.91 1181.37,-340.12 1178.57,-333.71"/>
</g>
<!-- Node4 -->
<g id="node4" class="node">
<title>Node4</title>
<g id="a_node4"><a xlink:href="AutocompletePopup_8cpp.html" target="_top" xlink:title="This file defines the class AutocompletePopup.">
<polygon fill="white" stroke="#666666" points="1258.39,-129 1106.39,-129 1106.39,-110 1258.39,-110 1258.39,-129"/>
<text text-anchor="middle" x="1182.39" y="-117" font-family="Helvetica,sans-Serif" font-size="10.00">src/AutocompletePopup.cpp</text>
</a>
</g>
</g>
<!-- Node3&#45;&gt;Node4 -->
<g id="edge3" class="edge">
<title>Node3&#45;&gt;Node4</title>
<path fill="none" stroke="#63b8ff" d="M1064.76,-286.04C806.72,-265.3 -141.89,-331.52 18.39,-165 56.13,-125.8 853.33,-121.06 1106.17,-120.54"/>
<polygon fill="#63b8ff" stroke="#63b8ff" points="1064.46,-289.53 1074.73,-286.92 1065.08,-282.55 1064.46,-289.53"/>
</g>
<!-- Node3&#45;&gt;Node5 -->
<g id="edge4" class="edge">
<title>Node3&#45;&gt;Node5</title>
<path fill="none" stroke="#63b8ff" d="M1170.17,-281.23C1188.33,-271.51 1212.46,-258.6 1228.2,-250.17"/>
<polygon fill="#63b8ff" stroke="#63b8ff" points="1168.46,-278.18 1161.3,-285.98 1171.77,-284.35 1168.46,-278.18"/>
</g>
<!-- Node6 -->
<g id="node6" class="node">
<title>Node6</title>
<g id="a_node6"><a xlink:href="Worksheet_8cpp.html" target="_top" xlink:title="This file defines the class Worksheet.">
<polygon fill="white" stroke="#666666" points="1928.39,-74 1822.39,-74 1822.39,-55 1928.39,-55 1928.39,-74"/>
<text text-anchor="middle" x="1875.39" y="-62" font-family="Helvetica,sans-Serif" font-size="10.00">src/Worksheet.cpp</text>
</a>
</g>
</g>
<!-- Node5&#45;&gt;Node6 -->
<g id="edge5" class="edge">
<title>Node5&#45;&gt;Node6</title>
<path fill="none" stroke="#63b8ff" d="M1186.5,-238.14C1016.89,-233.88 531.55,-219.59 508.39,-195 499.25,-185.29 499.41,-174.86 508.39,-165 598.28,-66.33 1580.72,-64.19 1822.08,-65.16"/>
<polygon fill="#63b8ff" stroke="#63b8ff" points="1186.65,-241.65 1196.73,-238.4 1186.82,-234.65 1186.65,-241.65"/>
</g>
<!-- Node7 -->
<g id="node7" class="node">
<title>Node7</title>
<g id="a_node7"><a xlink:href="WorksheetContextMenu_8cpp.html" target="_top" xlink:title="The worksheet&#39;s right&#45;click context menu (see WorksheetContextMenu.h).">
<polygon fill="white" stroke="#666666" points="198.89,-189.5 27.89,-189.5 27.89,-170.5 198.89,-170.5 198.89,-189.5"/>
<text text-anchor="middle" x="113.39" y="-177.5" font-family="Helvetica,sans-Serif" font-size="10.00">src/WorksheetContextMenu.cpp</text>
</a>
</g>
</g>
<!-- Node5&#45;&gt;Node7 -->
<g id="edge6" class="edge">
<title>Node5&#45;&gt;Node7</title>
<path fill="none" stroke="#63b8ff" d="M1186.38,-239.11C1028.81,-237.59 579.81,-230.25 208.39,-195 194.12,-193.65 178.72,-191.62 164.55,-189.53"/>
<polygon fill="#63b8ff" stroke="#63b8ff" points="1186.74,-242.61 1196.77,-239.2 1186.81,-235.61 1186.74,-242.61"/>
</g>
<!-- Node8 -->
<g id="node8" class="node">
<title>Node8</title>
<g id="a_node8"><a xlink:href="Cell_8cpp.html" target="_top" xlink:title="Core layout and rendering logic for worksheet cells.">
<polygon fill="white" stroke="#666666" points="315.39,-189.5 217.39,-189.5 217.39,-170.5 315.39,-170.5 315.39,-189.5"/>
<text text-anchor="middle" x="266.39" y="-177.5" font-family="Helvetica,sans-Serif" font-size="10.00">src/cells/Cell.cpp</text>
</a>
</g>
</g>
<!-- Node5&#45;&gt;Node8 -->
<g id="edge7" class="edge">
<title>Node5&#45;&gt;Node8</title>
<path fill="none" stroke="#63b8ff" d="M1186.84,-238.14C1012.52,-233.78 492.1,-219.08 324.39,-195 315.37,-193.7 305.7,-191.65 296.89,-189.5"/>
<polygon fill="#63b8ff" stroke="#63b8ff" points="1186.75,-241.64 1196.83,-238.38 1186.92,-234.64 1186.75,-241.64"/>
</g>
<!-- Node9 -->
<g id="node9" class="node">
<title>Node9</title>
<g id="a_node9"><a xlink:href="GroupCell_8cpp.html" target="_top" xlink:title="This file defines the class GroupCell.">
<polygon fill="white" stroke="#666666" points="461.39,-189.5 333.39,-189.5 333.39,-170.5 461.39,-170.5 461.39,-189.5"/>
<text text-anchor="middle" x="397.39" y="-177.5" font-family="Helvetica,sans-Serif" font-size="10.00">src/cells/GroupCell.cpp</text>
</a>
</g>
</g>
<!-- Node5&#45;&gt;Node9 -->
<g id="edge8" class="edge">
<title>Node5&#45;&gt;Node9</title>
<path fill="none" stroke="#63b8ff" d="M1186.51,-238.52C1058.11,-235.82 739.82,-226.27 475.39,-195 463.78,-193.63 451.28,-191.62 439.76,-189.56"/>
<polygon fill="#63b8ff" stroke="#63b8ff" points="1186.45,-242.02 1196.52,-238.72 1186.6,-235.02 1186.45,-242.02"/>
</g>
<!-- Node10 -->
<g id="node10" class="node">
<title>Node10</title>
<g id="a_node10"><a xlink:href="ConfigDialogue_8h.html" target="_top" xlink:title="The configuration dialog.">
<polygon fill="white" stroke="#666666" points="2408.89,-74 2253.89,-74 2253.89,-55 2408.89,-55 2408.89,-74"/>
<text text-anchor="middle" x="2331.39" y="-62" font-family="Helvetica,sans-Serif" font-size="10.00">src/dialogs/ConfigDialogue.h</text>
</a>
</g>
</g>
<!-- Node5&#45;&gt;Node10 -->
<g id="edge9" class="edge">
<title>Node5&#45;&gt;Node10</title>
<path fill="none" stroke="#63b8ff" d="M1301.9,-239.07C1528.12,-237.15 2346.51,-227.94 2390.39,-195 2421.6,-171.57 2432.26,-143.59 2412.39,-110 2401.69,-91.91 2380.73,-80.68 2362.82,-74.03"/>
<polygon fill="#63b8ff" stroke="#63b8ff" points="1301.87,-235.57 1291.9,-239.15 1301.93,-242.57 1301.87,-235.57"/>
</g>
<!-- Node13 -->
<g id="node13" class="node">
<title>Node13</title>
<g id="a_node13"><a xlink:href="DiffFrame_8h_source.html" target="_top" xlink:title=" ">
<polygon fill="white" stroke="#666666" points="2555.89,-74 2426.89,-74 2426.89,-55 2555.89,-55 2555.89,-74"/>
<text text-anchor="middle" x="2491.39" y="-62" font-family="Helvetica,sans-Serif" font-size="10.00">src/dialogs/DiffFrame.h</text>
</a>
</g>
</g>
<!-- Node5&#45;&gt;Node13 -->
<g id="edge12" class="edge">
<title>Node5&#45;&gt;Node13</title>
<path fill="none" stroke="#63b8ff" d="M1302.31,-238.86C1532.08,-236.11 2369.3,-224.14 2417.39,-195 2463.68,-166.95 2483.71,-98.39 2489.51,-74.16"/>
<polygon fill="#63b8ff" stroke="#63b8ff" points="1302.11,-235.36 1292.15,-238.98 1302.19,-242.36 1302.11,-235.36"/>
</g>
<!-- Node14 -->
<g id="node14" class="node">
<title>Node14</title>
<g id="a_node14"><a xlink:href="Printout_8cpp.html" target="_top" xlink:title="This file defines the class MathPrintOut.">
<polygon fill="white" stroke="#666666" points="672.89,-189.5 517.89,-189.5 517.89,-170.5 672.89,-170.5 672.89,-189.5"/>
<text text-anchor="middle" x="595.39" y="-177.5" font-family="Helvetica,sans-Serif" font-size="10.00">src/graphical_io/Printout.cpp</text>
</a>
</g>
</g>
<!-- Node5&#45;&gt;Node14 -->
<g id="edge15" class="edge">
<title>Node5&#45;&gt;Node14</title>
<path fill="none" stroke="#63b8ff" d="M1186.42,-236.45C1084.32,-230.74 865.84,-216.99 682.39,-195 669.94,-193.51 656.54,-191.53 644.07,-189.54"/>
<polygon fill="#63b8ff" stroke="#63b8ff" points="1186.35,-239.95 1196.53,-237.01 1186.73,-232.97 1186.35,-239.95"/>
</g>
<!-- Node15 -->
<g id="node15" class="node">
<title>Node15</title>
<g id="a_node15"><a xlink:href="wxMaximaFrame_8h.html" target="_top" xlink:title="This file declares the class wxMaximaFrame.">
<polygon fill="white" stroke="#666666" points="2381.39,-189.5 2253.39,-189.5 2253.39,-170.5 2381.39,-170.5 2381.39,-189.5"/>
<text text-anchor="middle" x="2317.39" y="-177.5" font-family="Helvetica,sans-Serif" font-size="10.00">src/wxMaximaFrame.h</text>
</a>
</g>
</g>
<!-- Node5&#45;&gt;Node15 -->
<g id="edge16" class="edge">
<title>Node5&#45;&gt;Node15</title>
<path fill="none" stroke="#63b8ff" d="M1302.11,-239.85C1455.87,-240.15 1887.98,-236.88 2244.39,-195 2255.54,-193.69 2267.55,-191.65 2278.53,-189.54"/>
<polygon fill="#63b8ff" stroke="#63b8ff" points="1301.97,-236.35 1291.96,-239.82 1301.95,-243.35 1301.97,-236.35"/>
</g>
<!-- Node22 -->
<g id="node22" class="node">
<title>Node22</title>
<g id="a_node22"><a xlink:href="test__Accessibility_8cpp.html" target="_top" xlink:title="Logic&#45;level regression tests for wxMaxima&#39;s custom wxAccessible classes.">
<polygon fill="white" stroke="#666666" points="799.39,-195 691.39,-195 691.39,-165 799.39,-165 799.39,-195"/>
<text text-anchor="start" x="699.39" y="-183" font-family="Helvetica,sans-Serif" font-size="10.00">test/unit_tests/test</text>
<text text-anchor="middle" x="745.39" y="-172" font-family="Helvetica,sans-Serif" font-size="10.00">_Accessibility.cpp</text>
</a>
</g>
</g>
<!-- Node5&#45;&gt;Node22 -->
<g id="edge32" class="edge">
<title>Node5&#45;&gt;Node22</title>
<path fill="none" stroke="#63b8ff" d="M1186.66,-235.77C1102.93,-229.86 943.05,-216.76 808.39,-195 805.52,-194.54 802.58,-194.02 799.61,-193.47"/>
<polygon fill="#63b8ff" stroke="#63b8ff" points="1186.52,-239.27 1196.74,-236.47 1187,-232.28 1186.52,-239.27"/>
</g>
<!-- Node23 -->
<g id="node23" class="node">
<title>Node23</title>
<g id="a_node23"><a xlink:href="test__EditorCellInvariants_8cpp.html" target="_top" xlink:title="Hardening tests for EditorCell&#39;s text&#45;editing core.">
<polygon fill="white" stroke="#666666" points="955.39,-195 817.39,-195 817.39,-165 955.39,-165 955.39,-195"/>
<text text-anchor="start" x="825.39" y="-183" font-family="Helvetica,sans-Serif" font-size="10.00">test/unit_tests/test</text>
<text text-anchor="middle" x="886.39" y="-172" font-family="Helvetica,sans-Serif" font-size="10.00">_EditorCellInvariants.cpp</text>
</a>
</g>
</g>
<!-- Node5&#45;&gt;Node23 -->
<g id="edge33" class="edge">
<title>Node5&#45;&gt;Node23</title>
<path fill="none" stroke="#63b8ff" d="M1186.59,-230.66C1129.93,-221.91 1041.15,-207.99 964.39,-195 961.55,-194.52 958.64,-194.02 955.7,-193.51"/>
<polygon fill="#63b8ff" stroke="#63b8ff" points="1186.37,-234.17 1196.79,-232.23 1187.44,-227.25 1186.37,-234.17"/>
</g>
<!-- Node24 -->
<g id="node24" class="node">
<title>Node24</title>
<g id="a_node24"><a xlink:href="test__GroupCellLayout_8cpp.html" target="_top" xlink:title="Regression tests for the GroupCell &lt;&#45;&gt; EditorCell layout coupling.">
<polygon fill="white" stroke="#666666" points="1096.89,-195 973.89,-195 973.89,-165 1096.89,-165 1096.89,-195"/>
<text text-anchor="start" x="981.89" y="-183" font-family="Helvetica,sans-Serif" font-size="10.00">test/unit_tests/test</text>
<text text-anchor="middle" x="1035.39" y="-172" font-family="Helvetica,sans-Serif" font-size="10.00">_GroupCellLayout.cpp</text>
</a>
</g>
</g>
<!-- Node5&#45;&gt;Node24 -->
<g id="edge34" class="edge">
<title>Node5&#45;&gt;Node24</title>
<path fill="none" stroke="#63b8ff" d="M1204.02,-228.2C1170.25,-218.75 1121.91,-205.22 1085.64,-195.06"/>
<polygon fill="#63b8ff" stroke="#63b8ff" points="1203.43,-231.67 1214,-230.99 1205.32,-224.93 1203.43,-231.67"/>
</g>
<!-- Node25 -->
<g id="node25" class="node">
<title>Node25</title>
<g id="a_node25"><a xlink:href="test__LayoutInvariants_8cpp.html" target="_top" xlink:title="Layout idempotency invariants.">
<polygon fill="white" stroke="#666666" points="1239.39,-195 1115.39,-195 1115.39,-165 1239.39,-165 1239.39,-195"/>
<text text-anchor="start" x="1123.39" y="-183" font-family="Helvetica,sans-Serif" font-size="10.00">test/unit_tests/test</text>
<text text-anchor="middle" x="1177.39" y="-172" font-family="Helvetica,sans-Serif" font-size="10.00">_LayoutInvariants.cpp</text>
</a>
</g>
</g>
<!-- Node5&#45;&gt;Node25 -->
<g id="edge35" class="edge">
<title>Node5&#45;&gt;Node25</title>
<path fill="none" stroke="#63b8ff" d="M1226.91,-224.23C1216.6,-215.23 1203.63,-203.91 1193.56,-195.11"/>
<polygon fill="#63b8ff" stroke="#63b8ff" points="1224.67,-226.93 1234.51,-230.87 1229.28,-221.65 1224.67,-226.93"/>
</g>
<!-- Node26 -->
<g id="node26" class="node">
<title>Node26</title>
<g id="a_node26"><a xlink:href="test__TreeUndo_8cpp.html" target="_top" xlink:title="Regression tests for the worksheet&#39;s cell&#45;tree undo/redo (the TreeUndo_* subsystem of Worksheet).">
<polygon fill="white" stroke="#666666" points="1365.39,-195 1257.39,-195 1257.39,-165 1365.39,-165 1365.39,-195"/>
<text text-anchor="start" x="1265.39" y="-183" font-family="Helvetica,sans-Serif" font-size="10.00">test/unit_tests/test</text>
<text text-anchor="middle" x="1311.39" y="-172" font-family="Helvetica,sans-Serif" font-size="10.00">_TreeUndo.cpp</text>
</a>
</g>
</g>
<!-- Node5&#45;&gt;Node26 -->
<g id="edge36" class="edge">
<title>Node5&#45;&gt;Node26</title>
<path fill="none" stroke="#63b8ff" d="M1261.88,-224.23C1272.19,-215.23 1285.15,-203.91 1295.23,-195.11"/>
<polygon fill="#63b8ff" stroke="#63b8ff" points="1259.51,-221.65 1254.28,-230.87 1264.11,-226.93 1259.51,-221.65"/>
</g>
<!-- Node27 -->
<g id="node27" class="node">
<title>Node27</title>
<g id="a_node27"><a xlink:href="test__WXMRoundtrip_8cpp.html" target="_top" xlink:title="Regression tests for images surviving the .wxm serialization round&#45;trip.">
<polygon fill="white" stroke="#666666" points="1498.89,-195 1383.89,-195 1383.89,-165 1498.89,-165 1498.89,-195"/>
<text text-anchor="start" x="1391.89" y="-183" font-family="Helvetica,sans-Serif" font-size="10.00">test/unit_tests/test</text>
<text text-anchor="middle" x="1441.39" y="-172" font-family="Helvetica,sans-Serif" font-size="10.00">_WXMRoundtrip.cpp</text>
</a>
</g>
</g>
<!-- Node5&#45;&gt;Node27 -->
<g id="edge37" class="edge">
<title>Node5&#45;&gt;Node27</title>
<path fill="none" stroke="#63b8ff" d="M1282.86,-228.08C1314.67,-218.63 1359.99,-205.17 1394.03,-195.06"/>
<polygon fill="#63b8ff" stroke="#63b8ff" points="1281.63,-224.79 1273.04,-230.99 1283.62,-231.5 1281.63,-224.79"/>
</g>
<!-- Node28 -->
<g id="node28" class="node">
<title>Node28</title>
<g id="a_node28"><a xlink:href="test__WXMXRoundtrip_8cpp.html" target="_top" xlink:title="Round&#45;trip tests for the .wxmx content.xml (the MathML&#45;like math format).">
<polygon fill="white" stroke="#666666" points="1639.39,-195 1517.39,-195 1517.39,-165 1639.39,-165 1639.39,-195"/>
<text text-anchor="start" x="1525.39" y="-183" font-family="Helvetica,sans-Serif" font-size="10.00">test/unit_tests/test</text>
<text text-anchor="middle" x="1578.39" y="-172" font-family="Helvetica,sans-Serif" font-size="10.00">_WXMXRoundtrip.cpp</text>
</a>
</g>
</g>
<!-- Node5&#45;&gt;Node28 -->
<g id="edge38" class="edge">
<title>Node5&#45;&gt;Node28</title>
<path fill="none" stroke="#63b8ff" d="M1301.92,-230.23C1355.26,-221.52 1436.79,-207.93 1507.39,-195 1510.61,-194.41 1513.9,-193.8 1517.22,-193.17"/>
<polygon fill="#63b8ff" stroke="#63b8ff" points="1301.28,-226.78 1291.97,-231.85 1302.41,-233.69 1301.28,-226.78"/>
</g>
<!-- Node29 -->
<g id="node29" class="node">
<title>Node29</title>
<g id="a_node29"><a xlink:href="test__WorksheetContextMenu_8cpp.html" target="_top" xlink:title="Regression tests for the worksheet&#39;s right&#45;click context menu.">
<polygon fill="white" stroke="#666666" points="1816.89,-195 1657.89,-195 1657.89,-165 1816.89,-165 1816.89,-195"/>
<text text-anchor="start" x="1665.89" y="-183" font-family="Helvetica,sans-Serif" font-size="10.00">test/unit_tests/test</text>
<text text-anchor="middle" x="1737.39" y="-172" font-family="Helvetica,sans-Serif" font-size="10.00">_WorksheetContextMenu.cpp</text>
</a>
</g>
</g>
<!-- Node5&#45;&gt;Node29 -->
<g id="edge39" class="edge">
<title>Node5&#45;&gt;Node29</title>
<path fill="none" stroke="#63b8ff" d="M1302.23,-233.98C1380.74,-226.29 1525.4,-211.44 1648.39,-195 1651.49,-194.59 1654.65,-194.15 1657.84,-193.7"/>
<polygon fill="#63b8ff" stroke="#63b8ff" points="1301.67,-230.52 1292.06,-234.97 1302.35,-237.48 1301.67,-230.52"/>
</g>
<!-- Node30 -->
<g id="node30" class="node">
<title>Node30</title>
<g id="a_node30"><a xlink:href="test__WorksheetCursor_8cpp.html" target="_top" xlink:title="Pins the worksheet&#39;s cursor model before it is gathered into a cursor class.">
<polygon fill="white" stroke="#666666" points="1959.89,-195 1834.89,-195 1834.89,-165 1959.89,-165 1959.89,-195"/>
<text text-anchor="start" x="1842.89" y="-183" font-family="Helvetica,sans-Serif" font-size="10.00">test/unit_tests/test</text>
<text text-anchor="middle" x="1897.39" y="-172" font-family="Helvetica,sans-Serif" font-size="10.00">_WorksheetCursor.cpp</text>
</a>
</g>
</g>
<!-- Node5&#45;&gt;Node30 -->
<g id="edge40" class="edge">
<title>Node5&#45;&gt;Node30</title>
<path fill="none" stroke="#63b8ff" d="M1302.08,-237.29C1406.74,-232.8 1634.74,-220.75 1825.39,-195 1828.42,-194.59 1831.52,-194.14 1834.64,-193.65"/>
<polygon fill="#63b8ff" stroke="#63b8ff" points="1301.88,-233.8 1292.04,-237.72 1302.17,-240.79 1301.88,-233.8"/>
</g>
<!-- Node31 -->
<g id="node31" class="node">
<title>Node31</title>
<g id="a_node31"><a xlink:href="test__WorksheetExport_8cpp.html" target="_top" xlink:title="Safety net for the export/serialization cluster of Worksheet.">
<polygon fill="white" stroke="#666666" points="2102.89,-195 1977.89,-195 1977.89,-165 2102.89,-165 2102.89,-195"/>
<text text-anchor="start" x="1985.89" y="-183" font-family="Helvetica,sans-Serif" font-size="10.00">test/unit_tests/test</text>
<text text-anchor="middle" x="2040.39" y="-172" font-family="Helvetica,sans-Serif" font-size="10.00">_WorksheetExport.cpp</text>
</a>
</g>
</g>
<!-- Node5&#45;&gt;Node31 -->
<g id="edge41" class="edge">
<title>Node5&#45;&gt;Node31</title>
<path fill="none" stroke="#63b8ff" d="M1302.44,-238.56C1425.74,-235.99 1722.69,-226.75 1969.39,-195 1972.14,-194.65 1974.93,-194.25 1977.75,-193.82"/>
<polygon fill="#63b8ff" stroke="#63b8ff" points="1302.03,-235.07 1292.1,-238.77 1302.17,-242.07 1302.03,-235.07"/>
</g>
<!-- Node32 -->
<g id="node32" class="node">
<title>Node32</title>
<g id="a_node32"><a xlink:href="test__WorksheetFind_8cpp.html" target="_top" xlink:title="Pins the worksheet&#39;s find/replace behavior before the search engine is extracted into WorksheetSearch...">
<polygon fill="white" stroke="#666666" points="2235.39,-195 2121.39,-195 2121.39,-165 2235.39,-165 2235.39,-195"/>
<text text-anchor="start" x="2129.39" y="-183" font-family="Helvetica,sans-Serif" font-size="10.00">test/unit_tests/test</text>
<text text-anchor="middle" x="2178.39" y="-172" font-family="Helvetica,sans-Serif" font-size="10.00">_WorksheetFind.cpp</text>
</a>
</g>
</g>
<!-- Node5&#45;&gt;Node32 -->
<g id="edge42" class="edge">
<title>Node5&#45;&gt;Node32</title>
<path fill="none" stroke="#63b8ff" d="M1302.21,-239.68C1442,-239.42 1809.15,-234.68 2112.39,-195 2115.3,-194.62 2118.26,-194.18 2121.25,-193.7"/>
<polygon fill="#63b8ff" stroke="#63b8ff" points="1302.14,-236.18 1292.15,-239.69 1302.15,-243.18 1302.14,-236.18"/>
</g>
<!-- Node11 -->
<g id="node11" class="node">
<title>Node11</title>
<g id="a_node11"><a xlink:href="main_8cpp.html" target="_top" xlink:title="The file that defines the starting point of the program.">
<polygon fill="white" stroke="#666666" points="2200.89,-19 2121.89,-19 2121.89,0 2200.89,0 2200.89,-19"/>
<text text-anchor="middle" x="2161.39" y="-7" font-family="Helvetica,sans-Serif" font-size="10.00">src/main.cpp</text>
</a>
</g>
</g>
<!-- Node10&#45;&gt;Node11 -->
<g id="edge10" class="edge">
<title>Node10&#45;&gt;Node11</title>
<path fill="none" stroke="#63b8ff" d="M2294.27,-51.93C2262.52,-42.03 2217.54,-28.01 2188.92,-19.08"/>
<polygon fill="#63b8ff" stroke="#63b8ff" points="2293.49,-55.35 2304.08,-54.98 2295.58,-48.67 2293.49,-55.35"/>
</g>
<!-- Node12 -->
<g id="node12" class="node">
<title>Node12</title>
<g id="a_node12"><a xlink:href="wxMaxima_8cpp.html" target="_top" xlink:title="This file defines the contents of the class wxMaxima that contains most of the program&#39;s logic.">
<polygon fill="white" stroke="#666666" points="2356.39,-19 2248.39,-19 2248.39,0 2356.39,0 2356.39,-19"/>
<text text-anchor="middle" x="2302.39" y="-7" font-family="Helvetica,sans-Serif" font-size="10.00">src/wxMaxima.cpp</text>
</a>
</g>
</g>
<!-- Node10&#45;&gt;Node12 -->
<g id="edge11" class="edge">
<title>Node10&#45;&gt;Node12</title>
<path fill="none" stroke="#63b8ff" d="M2321.72,-45.82C2316.8,-36.82 2311.04,-26.29 2307.09,-19.09"/>
<polygon fill="#63b8ff" stroke="#63b8ff" points="2318.73,-47.66 2326.61,-54.75 2324.88,-44.3 2318.73,-47.66"/>
</g>
<!-- Node13&#45;&gt;Node11 -->
<g id="edge13" class="edge">
<title>Node13&#45;&gt;Node11</title>
<path fill="none" stroke="#63b8ff" d="M2428.37,-53.38C2361.46,-42.63 2257.76,-25.98 2201.31,-16.91"/>
<polygon fill="#63b8ff" stroke="#63b8ff" points="2427.95,-56.85 2438.37,-54.98 2429.06,-49.94 2427.95,-56.85"/>
</g>
<!-- Node13&#45;&gt;Node12 -->
<g id="edge14" class="edge">
<title>Node13&#45;&gt;Node12</title>
<path fill="none" stroke="#63b8ff" d="M2451.04,-52.18C2415.69,-42.27 2365.1,-28.08 2333,-19.08"/>
<polygon fill="#63b8ff" stroke="#63b8ff" points="2450.45,-55.65 2461.03,-54.98 2452.34,-48.91 2450.45,-55.65"/>
</g>
<!-- Node15&#45;&gt;Node4 -->
<g id="edge17" class="edge">
<title>Node15&#45;&gt;Node4</title>
<path fill="none" stroke="#63b8ff" d="M2268.53,-168.6C2260.5,-167.19 2252.24,-165.91 2244.39,-165 1876.87,-122.29 1433.6,-119.19 1258.67,-119.85"/>
<polygon fill="#63b8ff" stroke="#63b8ff" points="2268.07,-172.07 2278.54,-170.45 2269.34,-165.19 2268.07,-172.07"/>
</g>
<!-- Node15&#45;&gt;Node6 -->
<g id="edge18" class="edge">
<title>Node15&#45;&gt;Node6</title>
<path fill="none" stroke="#63b8ff" d="M2265.53,-168.56C2258.45,-167.28 2251.25,-166.05 2244.39,-165 2106.42,-143.84 2056.39,-193.1 1932.39,-129 1907.92,-116.35 1888.92,-88.56 1880.36,-74.31"/>
<polygon fill="#63b8ff" stroke="#63b8ff" points="2265.32,-172.08 2275.79,-170.47 2266.6,-165.2 2265.32,-172.08"/>
</g>
<!-- Node16 -->
<g id="node16" class="node">
<title>Node16</title>
<g id="a_node16"><a xlink:href="EditorCell_8cpp.html" target="_top" xlink:title="This file defines the class EditorCell.">
<polygon fill="white" stroke="#666666" points="2235.89,-74 2108.89,-74 2108.89,-55 2235.89,-55 2235.89,-74"/>
<text text-anchor="middle" x="2172.39" y="-62" font-family="Helvetica,sans-Serif" font-size="10.00">src/cells/EditorCell.cpp</text>
</a>
</g>
</g>
<!-- Node15&#45;&gt;Node16 -->
<g id="edge19" class="edge">
<title>Node15&#45;&gt;Node16</title>
<path fill="none" stroke="#63b8ff" d="M2350.72,-166.43C2379.83,-153.58 2414.77,-132.38 2396.39,-110 2386.17,-97.55 2298.67,-82.98 2236.12,-73.99"/>
<polygon fill="#63b8ff" stroke="#63b8ff" points="2349.02,-163.35 2341.16,-170.46 2351.74,-169.8 2349.02,-163.35"/>
</g>
<!-- Node17 -->
<g id="node17" class="node">
<title>Node17</title>
<g id="a_node17"><a xlink:href="main_8h.html" target="_top" xlink:title="This file declares the class wxMaxima that contains most of the program&#39;s logic.">
<polygon fill="white" stroke="#666666" points="2014.39,-74 1946.39,-74 1946.39,-55 2014.39,-55 2014.39,-74"/>
<text text-anchor="middle" x="1980.39" y="-62" font-family="Helvetica,sans-Serif" font-size="10.00">src/main.h</text>
</a>
</g>
</g>
<!-- Node15&#45;&gt;Node17 -->
<g id="edge20" class="edge">
<title>Node15&#45;&gt;Node17</title>
<path fill="none" stroke="#63b8ff" d="M2265.53,-168.58C2258.44,-167.3 2251.25,-166.06 2244.39,-165 2177.39,-154.61 1986.42,-179.7 1941.39,-129 1925.84,-111.49 1951.78,-87 1968.31,-74.15"/>
<polygon fill="#63b8ff" stroke="#63b8ff" points="2265.32,-172.1 2275.79,-170.49 2266.6,-165.22 2265.32,-172.1"/>
</g>
<!-- Node19 -->
<g id="node19" class="node">
<title>Node19</title>
<g id="a_node19"><a xlink:href="GreekSidebar_8cpp.html" target="_top" xlink:title="This file defines the class GreekSidebar.">
<polygon fill="white" stroke="#666666" points="2229.39,-129 2065.39,-129 2065.39,-110 2229.39,-110 2229.39,-129"/>
<text text-anchor="middle" x="2147.39" y="-117" font-family="Helvetica,sans-Serif" font-size="10.00">src/sidebars/GreekSidebar.cpp</text>
</a>
</g>
</g>
<!-- Node15&#45;&gt;Node19 -->
<g id="edge24" class="edge">
<title>Node15&#45;&gt;Node19</title>
<path fill="none" stroke="#63b8ff" d="M2283.02,-167.17C2250.14,-155.86 2201.37,-139.07 2172.14,-129.02"/>
<polygon fill="#63b8ff" stroke="#63b8ff" points="2282.08,-170.55 2292.67,-170.49 2284.36,-163.93 2282.08,-170.55"/>
</g>
<!-- Node20 -->
<g id="node20" class="node">
<title>Node20</title>
<g id="a_node20"><a xlink:href="wxMaxima_8h.html" target="_top" xlink:title="This file declares the class wxMaxima that contains most of the program&#39;s logic.">
<polygon fill="white" stroke="#666666" points="2046.89,-129 1949.89,-129 1949.89,-110 2046.89,-110 2046.89,-129"/>
<text text-anchor="middle" x="1998.39" y="-117" font-family="Helvetica,sans-Serif" font-size="10.00">src/wxMaxima.h</text>
</a>
</g>
</g>
<!-- Node15&#45;&gt;Node20 -->
<g id="edge25" class="edge">
<title>Node15&#45;&gt;Node20</title>
<path fill="none" stroke="#63b8ff" d="M2263.41,-168.58C2257,-167.36 2250.55,-166.15 2244.39,-165 2175.7,-152.2 2096.11,-137.9 2046.5,-129.05"/>
<polygon fill="#63b8ff" stroke="#63b8ff" points="2262.92,-172.05 2273.4,-170.49 2264.23,-165.17 2262.92,-172.05"/>
</g>
<!-- Node21 -->
<g id="node21" class="node">
<title>Node21</title>
<g id="a_node21"><a xlink:href="wxMaximaFrame_8cpp.html" target="_top" xlink:title="This file defines the class wxMaximaFrame.">
<polygon fill="white" stroke="#666666" points="2386.89,-129 2247.89,-129 2247.89,-110 2386.89,-110 2386.89,-129"/>
<text text-anchor="middle" x="2317.39" y="-117" font-family="Helvetica,sans-Serif" font-size="10.00">src/wxMaximaFrame.cpp</text>
</a>
</g>
</g>
<!-- Node15&#45;&gt;Node21 -->
<g id="edge31" class="edge">
<title>Node15&#45;&gt;Node21</title>
<path fill="none" stroke="#63b8ff" d="M2317.39,-160.16C2317.39,-149.74 2317.39,-137.3 2317.39,-129.17"/>
<polygon fill="#63b8ff" stroke="#63b8ff" points="2313.89,-160.37 2317.39,-170.37 2320.89,-160.37 2313.89,-160.37"/>
</g>
<!-- Node17&#45;&gt;Node11 -->
<g id="edge22" class="edge">
<title>Node17&#45;&gt;Node11</title>
<path fill="none" stroke="#63b8ff" d="M2019.48,-52.06C2053.31,-42.15 2101.48,-28.04 2132.09,-19.08"/>
<polygon fill="#63b8ff" stroke="#63b8ff" points="2018.09,-48.82 2009.47,-54.98 2020.06,-55.53 2018.09,-48.82"/>
</g>
<!-- Node17&#45;&gt;Node12 -->
<g id="edge23" class="edge">
<title>Node17&#45;&gt;Node12</title>
<path fill="none" stroke="#63b8ff" d="M2024.67,-56.21C2083.71,-46.49 2188.02,-29.33 2250.62,-19.02"/>
<polygon fill="#63b8ff" stroke="#63b8ff" points="2023.85,-52.8 2014.55,-57.88 2024.98,-59.71 2023.85,-52.8"/>
</g>
<!-- Node18 -->
<g id="node18" class="node">
<title>Node18</title>
<g id="a_node18"><a xlink:href="MaximaManual_8cpp.html" target="_top" xlink:title="This file defines the class MaximaManual.">
<polygon fill="white" stroke="#666666" points="2045.39,-19 1915.39,-19 1915.39,0 2045.39,0 2045.39,-19"/>
<text text-anchor="middle" x="1980.39" y="-7" font-family="Helvetica,sans-Serif" font-size="10.00">src/MaximaManual.cpp</text>
</a>
</g>
</g>
<!-- Node17&#45;&gt;Node18 -->
<g id="edge21" class="edge">
<title>Node17&#45;&gt;Node18</title>
<path fill="none" stroke="#63b8ff" d="M1980.39,-44.66C1980.39,-35.93 1980.39,-25.99 1980.39,-19.09"/>
<polygon fill="#63b8ff" stroke="#63b8ff" points="1976.89,-44.75 1980.39,-54.75 1983.89,-44.75 1976.89,-44.75"/>
</g>
<!-- Node20&#45;&gt;Node6 -->
<g id="edge26" class="edge">
<title>Node20&#45;&gt;Node6</title>
<path fill="none" stroke="#63b8ff" d="M1969.15,-105.9C1946.43,-96.11 1915.52,-82.79 1895.52,-74.17"/>
<polygon fill="#63b8ff" stroke="#63b8ff" points="1968.06,-109.24 1978.63,-109.98 1970.83,-102.81 1968.06,-109.24"/>
</g>
<!-- Node20&#45;&gt;Node11 -->
<g id="edge28" class="edge">
<title>Node20&#45;&gt;Node11</title>
<path fill="none" stroke="#63b8ff" d="M2012.84,-102.42C2025.86,-88.6 2046.04,-68.77 2066.39,-55 2089.17,-39.59 2118.13,-26.88 2138.06,-19.04"/>
<polygon fill="#63b8ff" stroke="#63b8ff" points="2010.26,-100.06 2006.05,-109.78 2015.4,-104.8 2010.26,-100.06"/>
</g>
<!-- Node20&#45;&gt;Node12 -->
<g id="edge30" class="edge">
<title>Node20&#45;&gt;Node12</title>
<path fill="none" stroke="#63b8ff" d="M2020.36,-104.27C2047.74,-86.62 2091.98,-58.43 2100.39,-55 2148.45,-35.42 2206.61,-23.77 2248.16,-17.33"/>
<polygon fill="#63b8ff" stroke="#63b8ff" points="2018.3,-101.44 2011.8,-109.8 2022.1,-107.32 2018.3,-101.44"/>
</g>
<!-- Node20&#45;&gt;Node16 -->
<g id="edge27" class="edge">
<title>Node20&#45;&gt;Node16</title>
<path fill="none" stroke="#63b8ff" d="M2035.97,-107.06C2068.49,-97.15 2114.8,-83.04 2144.22,-74.08"/>
<polygon fill="#63b8ff" stroke="#63b8ff" points="2034.9,-103.72 2026.35,-109.98 2036.94,-110.42 2034.9,-103.72"/>
</g>
<!-- Node20&#45;&gt;Node17 -->
<g id="edge29" class="edge">
<title>Node20&#45;&gt;Node17</title>
<path fill="none" stroke="#63b8ff" d="M1992.19,-100.24C1989.18,-91.37 1985.71,-81.14 1983.31,-74.09"/>
<polygon fill="#63b8ff" stroke="#63b8ff" points="1988.89,-101.4 1995.42,-109.75 1995.52,-99.15 1988.89,-101.4"/>
</g>
</g>
</svg>
        <g id="navigator" transform="translate(0 0)" fill="#404254">
                <rect fill="#f2f5e9" fill-opacity="0.5" stroke="#606060" stroke-width=".5" x="0" y="0" width="60" height="60"/>
                <use id="zoomplus" xlink:href="#zoomPlus" x="17" y="9" onmousedown="handleZoom(evt,'in')"/>
                <use id="zoomminus" xlink:href="#zoomMin" x="42" y="9" onmousedown="handleZoom(evt,'out')"/>
                <use id="reset" xlink:href="#resetDef" x="30" y="36" onmousedown="handleReset()"/>
                <g id="arrowUp" xlink:href="#dirArrow" transform="translate(30 24)" onmousedown="handlePan(0,-1)">
                  <use xlink:href="#rim" fill="#404040">
                        <set attributeName="fill" to="#808080" begin="arrowUp.mouseover" end="arrowUp.mouseout"/>
                  </use>
                  <path fill="none" stroke="white" stroke-width="1.5" d="M0,-3.0v7 M-2.5,-0.5L0,-3.0L2.5,-0.5"/>
                </g>
                <g id="arrowRight" xlink:href="#dirArrow" transform="rotate(90) translate(36 -43)" onmousedown="handlePan(1,0)">
                  <use xlink:href="#rim" fill="#404040">
                        <set attributeName="fill" to="#808080" begin="arrowRight.mouseover" end="arrowRight.mouseout"/>
                  </use>
                  <path fill="none" stroke="white" stroke-width="1.5" d="M0,-3.0v7 M-2.5,-0.5L0,-3.0L2.5,-0.5"/>
                </g>
                <g id="arrowDown" xlink:href="#dirArrow" transform="rotate(180) translate(-30 -48)" onmousedown="handlePan(0,1)">
                  <use xlink:href="#rim" fill="#404040">
                        <set attributeName="fill" to="#808080" begin="arrowDown.mouseover" end="arrowDown.mouseout"/>
                  </use>
                  <path fill="none" stroke="white" stroke-width="1.5" d="M0,-3.0v7 M-2.5,-0.5L0,-3.0L2.5,-0.5"/>
                </g>
                <g id="arrowLeft" xlink:href="#dirArrow" transform="rotate(270) translate(-36 17)" onmousedown="handlePan(-1,0)">
                  <use xlink:href="#rim" fill="#404040">
                        <set attributeName="fill" to="#808080" begin="arrowLeft.mouseover" end="arrowLeft.mouseout"/>
                  </use>
                  <path fill="none" stroke="white" stroke-width="1.5" d="M0,-3.0v7 M-2.5,-0.5L0,-3.0L2.5,-0.5"/>
                </g>
        </g>
        <svg viewBox="0 0 15 15" width="100%" height="30px" preserveAspectRatio="xMaxYMin meet">
         <g id="arrow_out" transform="scale(0.3 0.3)">
          <a xlink:href="Autocomplete_8h__dep__incl_org.svg" target="_base">
           <rect id="button" ry="5" rx="5" y="6" x="6" height="38" width="38"
                fill="#f2f5e9" fill-opacity="0.5" stroke="#606060" stroke-width="1.0"/>
           <path id="arrow"
             d="M 11.500037,31.436501 C 11.940474,20.09759 22.043105,11.32322 32.158766,21.979434 L 37.068811,17.246167 C 37.068811,17.246167 37.088388,32 37.088388,32 L 22.160133,31.978069 C 22.160133,31.978069 26.997745,27.140456 26.997745,27.140456 C 18.528582,18.264221 13.291696,25.230495 11.500037,31.436501 z"
             style="fill:#404040;"/>
          </a>
         </g>
        </svg>
</svg>
