<?xml version="1.0" encoding="UTF-8" standalone="no"?>
<!DOCTYPE svg PUBLIC "-//W3C//DTD SVG 1.1//EN"
 "http://www.w3.org/Graphics/SVG/1.1/DTD/svg11.dtd">
<!-- Generated by graphviz version 2.43.0 (0)
 -->
<!-- Title: src/AutocompletePopup.h Pages: 1 -->
<svg width="1181pt" height="313pt"
 viewBox="0.00 0.00 1180.89 313.00" xmlns="http://www.w3.org/2000/svg" xmlns:xlink="http://www.w3.org/1999/xlink">
<g id="graph0" class="graph" transform="scale(1 1) rotate(0) translate(4 309)">
<title>src/AutocompletePopup.h</title>
<!-- Node1 -->
<g id="node1" class="node">
<title>Node1</title>
<g id="a_node1"><a xlink:title="The first number that is open for dynamic ID assignment.">
<polygon fill="#999999" stroke="#666666" points="265.89,-305 124.89,-305 124.89,-286 265.89,-286 265.89,-305"/>
<text text-anchor="middle" x="195.39" y="-293" font-family="Helvetica,sans-Serif" font-size="10.00">src/AutocompletePopup.h</text>
</a>
</g>
</g>
<!-- Node2 -->
<g id="node2" class="node">
<title>Node2</title>
<g id="a_node2"><a xlink:href="AutocompletePopup_8cpp.html" target="_top" xlink:title="This file defines the class AutocompletePopup.">
<polygon fill="white" stroke="#666666" points="472.39,-129 320.39,-129 320.39,-110 472.39,-110 472.39,-129"/>
<text text-anchor="middle" x="396.39" y="-117" font-family="Helvetica,sans-Serif" font-size="10.00">src/AutocompletePopup.cpp</text>
</a>
</g>
</g>
<!-- Node1&#45;&gt;Node2 -->
<g id="edge1" class="edge">
<title>Node1&#45;&gt;Node2</title>
<path fill="none" stroke="#63b8ff" d="M151.96,-283.25C83.44,-263.52 -37.22,-219.55 11.39,-165 31.54,-142.39 213.69,-129.58 320.07,-123.96"/>
<polygon fill="#63b8ff" stroke="#63b8ff" points="151.09,-286.64 161.67,-285.98 152.99,-279.9 151.09,-286.64"/>
</g>
<!-- Node3 -->
<g id="node3" class="node">
<title>Node3</title>
<g id="a_node3"><a xlink:href="Worksheet_8h.html" target="_top" xlink:title="This file defines the class Worksheet.">
<polygon fill="white" stroke="#666666" points="527.89,-250 432.89,-250 432.89,-231 527.89,-231 527.89,-250"/>
<text text-anchor="middle" x="480.39" y="-238" font-family="Helvetica,sans-Serif" font-size="10.00">src/Worksheet.h</text>
</a>
</g>
</g>
<!-- Node1&#45;&gt;Node3 -->
<g id="edge2" class="edge">
<title>Node1&#45;&gt;Node3</title>
<path fill="none" stroke="#63b8ff" d="M251.17,-284.13C304.6,-274.19 384.28,-259.37 434.24,-250.08"/>
<polygon fill="#63b8ff" stroke="#63b8ff" points="250.37,-280.72 241.18,-285.98 251.65,-287.6 250.37,-280.72"/>
</g>
<!-- Node4 -->
<g id="node4" class="node">
<title>Node4</title>
<g id="a_node4"><a xlink:href="Worksheet_8cpp.html" target="_top" xlink:title="This file defines the class Worksheet.">
<polygon fill="white" stroke="#666666" points="545.39,-74 439.39,-74 439.39,-55 545.39,-55 545.39,-74"/>
<text text-anchor="middle" x="492.39" y="-62" font-family="Helvetica,sans-Serif" font-size="10.00">src/Worksheet.cpp</text>
</a>
</g>
</g>
<!-- Node3&#45;&gt;Node4 -->
<g id="edge3" class="edge">
<title>Node3&#45;&gt;Node4</title>
<path fill="none" stroke="#63b8ff" d="M422.83,-231.91C379.42,-224.87 325.1,-212.78 311.39,-195 288.33,-165.08 288.09,-139.73 311.39,-110 327.06,-90.01 391.59,-77.8 439.15,-71.35"/>
<polygon fill="#63b8ff" stroke="#63b8ff" points="422.33,-235.38 432.75,-233.47 423.41,-228.46 422.33,-235.38"/>
</g>
<!-- Node5 -->
<g id="node5" class="node">
<title>Node5</title>
<g id="a_node5"><a xlink:href="Cell_8cpp.html" target="_top" xlink:title="Core layout and rendering logic for worksheet cells.">
<polygon fill="white" stroke="#666666" points="118.39,-189.5 20.39,-189.5 20.39,-170.5 118.39,-170.5 118.39,-189.5"/>
<text text-anchor="middle" x="69.39" y="-177.5" font-family="Helvetica,sans-Serif" font-size="10.00">src/cells/Cell.cpp</text>
</a>
</g>
</g>
<!-- Node3&#45;&gt;Node5 -->
<g id="edge4" class="edge">
<title>Node3&#45;&gt;Node5</title>
<path fill="none" stroke="#63b8ff" d="M422.78,-234.23C352.65,-227.35 230.76,-213.93 127.39,-195 119.14,-193.49 110.3,-191.53 102.08,-189.56"/>
<polygon fill="#63b8ff" stroke="#63b8ff" points="422.45,-237.71 432.74,-235.2 423.13,-230.75 422.45,-237.71"/>
</g>
<!-- Node6 -->
<g id="node6" class="node">
<title>Node6</title>
<g id="a_node6"><a xlink:href="GroupCell_8cpp.html" target="_top" xlink:title="This file defines the class GroupCell.">
<polygon fill="white" stroke="#666666" points="264.39,-189.5 136.39,-189.5 136.39,-170.5 264.39,-170.5 264.39,-189.5"/>
<text text-anchor="middle" x="200.39" y="-177.5" font-family="Helvetica,sans-Serif" font-size="10.00">src/cells/GroupCell.cpp</text>
</a>
</g>
</g>
<!-- Node3&#45;&gt;Node6 -->
<g id="edge5" class="edge">
<title>Node3&#45;&gt;Node6</title>
<path fill="none" stroke="#63b8ff" d="M429.62,-228.89C375.56,-217.6 291.05,-199.94 241.16,-189.52"/>
<polygon fill="#63b8ff" stroke="#63b8ff" points="429.17,-232.37 439.68,-230.99 430.61,-225.52 429.17,-232.37"/>
</g>
<!-- Node7 -->
<g id="node7" class="node">
<title>Node7</title>
<g id="a_node7"><a xlink:href="ConfigDialogue_8h.html" target="_top" xlink:title="The configuration dialog.">
<polygon fill="white" stroke="#666666" points="1025.89,-74 870.89,-74 870.89,-55 1025.89,-55 1025.89,-74"/>
<text text-anchor="middle" x="948.39" y="-62" font-family="Helvetica,sans-Serif" font-size="10.00">src/dialogs/ConfigDialogue.h</text>
</a>
</g>
</g>
<!-- Node3&#45;&gt;Node7 -->
<g id="edge6" class="edge">
<title>Node3&#45;&gt;Node7</title>
<path fill="none" stroke="#63b8ff" d="M538.27,-237.19C642.77,-232.45 858.7,-219.91 929.39,-195 979.97,-177.18 1004.87,-176.16 1030.39,-129 1044.49,-102.95 1006.61,-84.16 977.73,-74.05"/>
<polygon fill="#63b8ff" stroke="#63b8ff" points="538.04,-233.69 528.21,-237.63 538.35,-240.69 538.04,-233.69"/>
</g>
<!-- Node10 -->
<g id="node10" class="node">
<title>Node10</title>
<g id="a_node10"><a xlink:href="DiffFrame_8h_source.html" target="_top" xlink:title=" ">
<polygon fill="white" stroke="#666666" points="1172.89,-74 1043.89,-74 1043.89,-55 1172.89,-55 1172.89,-74"/>
<text text-anchor="middle" x="1108.39" y="-62" font-family="Helvetica,sans-Serif" font-size="10.00">src/dialogs/DiffFrame.h</text>
</a>
</g>
</g>
<!-- Node3&#45;&gt;Node10 -->
<g id="edge9" class="edge">
<title>Node3&#45;&gt;Node10</title>
<path fill="none" stroke="#63b8ff" d="M538.39,-239.18C652.44,-237.77 901.53,-230.58 978.39,-195 1038.81,-167.03 1087.23,-98.42 1102.97,-74.16"/>
<polygon fill="#63b8ff" stroke="#63b8ff" points="538.07,-235.69 528.11,-239.3 538.15,-242.69 538.07,-235.69"/>
</g>
<!-- Node11 -->
<g id="node11" class="node">
<title>Node11</title>
<g id="a_node11"><a xlink:href="Printout_8cpp.html" target="_top" xlink:title="This file defines the class MathPrintOut.">
<polygon fill="white" stroke="#666666" points="475.89,-189.5 320.89,-189.5 320.89,-170.5 475.89,-170.5 475.89,-189.5"/>
<text text-anchor="middle" x="398.39" y="-177.5" font-family="Helvetica,sans-Serif" font-size="10.00">src/graphical_io/Printout.cpp</text>
</a>
</g>
</g>
<!-- Node3&#45;&gt;Node11 -->
<g id="edge12" class="edge">
<title>Node3&#45;&gt;Node11</title>
<path fill="none" stroke="#63b8ff" d="M459.86,-224.85C444.32,-213.77 423.52,-198.93 410.54,-189.67"/>
<polygon fill="#63b8ff" stroke="#63b8ff" points="458.12,-227.91 468.29,-230.87 462.19,-222.21 458.12,-227.91"/>
</g>
<!-- Node12 -->
<g id="node12" class="node">
<title>Node12</title>
<g id="a_node12"><a xlink:href="wxMaximaFrame_8h.html" target="_top" xlink:title="This file declares the class wxMaximaFrame.">
<polygon fill="white" stroke="#666666" points="920.39,-189.5 792.39,-189.5 792.39,-170.5 920.39,-170.5 920.39,-189.5"/>
<text text-anchor="middle" x="856.39" y="-177.5" font-family="Helvetica,sans-Serif" font-size="10.00">src/wxMaximaFrame.h</text>
</a>
</g>
</g>
<!-- Node3&#45;&gt;Node12 -->
<g id="edge13" class="edge">
<title>Node3&#45;&gt;Node12</title>
<path fill="none" stroke="#63b8ff" d="M538.26,-231.69C599.13,-223.3 697.66,-209.25 782.39,-195 792.32,-193.33 802.97,-191.4 813.01,-189.51"/>
<polygon fill="#63b8ff" stroke="#63b8ff" points="537.52,-228.26 528.09,-233.08 538.47,-235.19 537.52,-228.26"/>
</g>
<!-- Node19 -->
<g id="node19" class="node">
<title>Node19</title>
<g id="a_node19"><a xlink:href="test__EditorCellInvariants_8cpp.html" target="_top" xlink:title="Hardening tests for EditorCell&#39;s text&#45;editing core.">
<polygon fill="white" stroke="#666666" points="632.39,-195 494.39,-195 494.39,-165 632.39,-165 632.39,-195"/>
<text text-anchor="start" x="502.39" y="-183" font-family="Helvetica,sans-Serif" font-size="10.00">test/unit_tests/test</text>
<text text-anchor="middle" x="563.39" y="-172" font-family="Helvetica,sans-Serif" font-size="10.00">_EditorCellInvariants.cpp</text>
</a>
</g>
</g>
<!-- Node3&#45;&gt;Node19 -->
<g id="edge29" class="edge">
<title>Node3&#45;&gt;Node19</title>
<path fill="none" stroke="#63b8ff" d="M500.92,-225.03C513.87,-215.9 530.52,-204.17 543.37,-195.11"/>
<polygon fill="#63b8ff" stroke="#63b8ff" points="498.8,-222.25 492.64,-230.87 502.83,-227.97 498.8,-222.25"/>
</g>
<!-- Node20 -->
<g id="node20" class="node">
<title>Node20</title>
<g id="a_node20"><a xlink:href="test__GroupCellLayout_8cpp.html" target="_top" xlink:title="Regression tests for the GroupCell &lt;&#45;&gt; EditorCell layout coupling.">
<polygon fill="white" stroke="#666666" points="773.89,-195 650.89,-195 650.89,-165 773.89,-165 773.89,-195"/>
<text text-anchor="start" x="658.89" y="-183" font-family="Helvetica,sans-Serif" font-size="10.00">test/unit_tests/test</text>
<text text-anchor="middle" x="712.39" y="-172" font-family="Helvetica,sans-Serif" font-size="10.00">_GroupCellLayout.cpp</text>
</a>
</g>
</g>
<!-- Node3&#45;&gt;Node20 -->
<g id="edge30" class="edge">
<title>Node3&#45;&gt;Node20</title>
<path fill="none" stroke="#63b8ff" d="M524.24,-228.44C561.77,-218.98 616.01,-205.3 656.62,-195.06"/>
<polygon fill="#63b8ff" stroke="#63b8ff" points="522.97,-225.15 514.13,-230.99 524.68,-231.94 522.97,-225.15"/>
</g>
<!-- Node8 -->
<g id="node8" class="node">
<title>Node8</title>
<g id="a_node8"><a xlink:href="main_8cpp.html" target="_top" xlink:title="The file that defines the starting point of the program.">
<polygon fill="white" stroke="#666666" points="817.89,-19 738.89,-19 738.89,0 817.89,0 817.89,-19"/>
<text text-anchor="middle" x="778.39" y="-7" font-family="Helvetica,sans-Serif" font-size="10.00">src/main.cpp</text>
</a>
</g>
</g>
<!-- Node7&#45;&gt;Node8 -->
<g id="edge7" class="edge">
<title>Node7&#45;&gt;Node8</title>
<path fill="none" stroke="#63b8ff" d="M911.27,-51.93C879.52,-42.03 834.54,-28.01 805.92,-19.08"/>
<polygon fill="#63b8ff" stroke="#63b8ff" points="910.49,-55.35 921.08,-54.98 912.57,-48.67 910.49,-55.35"/>
</g>
<!-- Node9 -->
<g id="node9" class="node">
<title>Node9</title>
<g id="a_node9"><a xlink:href="wxMaxima_8cpp.html" target="_top" xlink:title="This file defines the contents of the class wxMaxima that contains most of the program&#39;s logic.">
<polygon fill="white" stroke="#666666" points="973.39,-19 865.39,-19 865.39,0 973.39,0 973.39,-19"/>
<text text-anchor="middle" x="919.39" y="-7" font-family="Helvetica,sans-Serif" font-size="10.00">src/wxMaxima.cpp</text>
</a>
</g>
</g>
<!-- Node7&#45;&gt;Node9 -->
<g id="edge8" class="edge">
<title>Node7&#45;&gt;Node9</title>
<path fill="none" stroke="#63b8ff" d="M938.72,-45.82C933.79,-36.82 928.03,-26.29 924.09,-19.09"/>
<polygon fill="#63b8ff" stroke="#63b8ff" points="935.73,-47.66 943.6,-54.75 941.87,-44.3 935.73,-47.66"/>
</g>
<!-- Node10&#45;&gt;Node8 -->
<g id="edge10" class="edge">
<title>Node10&#45;&gt;Node8</title>
<path fill="none" stroke="#63b8ff" d="M1045.37,-53.38C978.46,-42.63 874.76,-25.98 818.31,-16.91"/>
<polygon fill="#63b8ff" stroke="#63b8ff" points="1044.94,-56.85 1055.37,-54.98 1046.05,-49.94 1044.94,-56.85"/>
</g>
<!-- Node10&#45;&gt;Node9 -->
<g id="edge11" class="edge">
<title>Node10&#45;&gt;Node9</title>
<path fill="none" stroke="#63b8ff" d="M1068.04,-52.18C1032.69,-42.27 982.09,-28.08 950,-19.08"/>
<polygon fill="#63b8ff" stroke="#63b8ff" points="1067.45,-55.65 1078.03,-54.98 1069.34,-48.91 1067.45,-55.65"/>
</g>
<!-- Node12&#45;&gt;Node2 -->
<g id="edge14" class="edge">
<title>Node12&#45;&gt;Node2</title>
<path fill="none" stroke="#63b8ff" d="M804.32,-168.66C796.97,-167.34 789.5,-166.08 782.39,-165 675.19,-148.7 550.42,-135.33 472.41,-127.63"/>
<polygon fill="#63b8ff" stroke="#63b8ff" points="803.75,-172.11 814.22,-170.48 805.02,-165.23 803.75,-172.11"/>
</g>
<!-- Node12&#45;&gt;Node4 -->
<g id="edge15" class="edge">
<title>Node12&#45;&gt;Node4</title>
<path fill="none" stroke="#63b8ff" d="M802.7,-168.62C795.87,-167.37 788.97,-166.13 782.39,-165 679.12,-147.26 641.54,-178.89 549.39,-129 525.16,-115.88 506.05,-88.3 497.41,-74.2"/>
<polygon fill="#63b8ff" stroke="#63b8ff" points="802.14,-172.08 812.61,-170.46 803.42,-165.2 802.14,-172.08"/>
</g>
<!-- Node13 -->
<g id="node13" class="node">
<title>Node13</title>
<g id="a_node13"><a xlink:href="EditorCell_8cpp.html" target="_top" xlink:title="This file defines the class EditorCell.">
<polygon fill="white" stroke="#666666" points="852.89,-74 725.89,-74 725.89,-55 852.89,-55 852.89,-74"/>
<text text-anchor="middle" x="789.39" y="-62" font-family="Helvetica,sans-Serif" font-size="10.00">src/cells/EditorCell.cpp</text>
</a>
</g>
</g>
<!-- Node12&#45;&gt;Node13 -->
<g id="edge16" class="edge">
<title>Node12&#45;&gt;Node13</title>
<path fill="none" stroke="#63b8ff" d="M930.6,-170.87C983.81,-162.01 1041.52,-144.27 1013.39,-110 1003.17,-97.55 915.67,-82.98 853.12,-73.99"/>
<polygon fill="#63b8ff" stroke="#63b8ff" points="929.73,-167.46 920.4,-172.47 930.82,-174.38 929.73,-167.46"/>
</g>
<!-- Node14 -->
<g id="node14" class="node">
<title>Node14</title>
<g id="a_node14"><a xlink:href="main_8h.html" target="_top" xlink:title="This file declares the class wxMaxima that contains most of the program&#39;s logic.">
<polygon fill="white" stroke="#666666" points="631.39,-74 563.39,-74 563.39,-55 631.39,-55 631.39,-74"/>
<text text-anchor="middle" x="597.39" y="-62" font-family="Helvetica,sans-Serif" font-size="10.00">src/main.h</text>
</a>
</g>
</g>
<!-- Node12&#45;&gt;Node14 -->
<g id="edge17" class="edge">
<title>Node12&#45;&gt;Node14</title>
<path fill="none" stroke="#63b8ff" d="M801.96,-168.52C795.37,-167.31 788.73,-166.11 782.39,-165 732.51,-156.29 590.25,-167.53 557.39,-129 542.09,-111.06 568.42,-86.74 585.16,-74.04"/>
<polygon fill="#63b8ff" stroke="#63b8ff" points="801.74,-172.04 812.21,-170.43 803.02,-165.16 801.74,-172.04"/>
</g>
<!-- Node16 -->
<g id="node16" class="node">
<title>Node16</title>
<g id="a_node16"><a xlink:href="GreekSidebar_8cpp.html" target="_top" xlink:title="This file defines the class GreekSidebar.">
<polygon fill="white" stroke="#666666" points="846.39,-129 682.39,-129 682.39,-110 846.39,-110 846.39,-129"/>
<text text-anchor="middle" x="764.39" y="-117" font-family="Helvetica,sans-Serif" font-size="10.00">src/sidebars/GreekSidebar.cpp</text>
</a>
</g>
</g>
<!-- Node12&#45;&gt;Node16 -->
<g id="edge21" class="edge">
<title>Node12&#45;&gt;Node16</title>
<path fill="none" stroke="#63b8ff" d="M834.32,-164.97C816.8,-153.82 792.86,-138.6 778.02,-129.17"/>
<polygon fill="#63b8ff" stroke="#63b8ff" points="832.5,-167.96 842.82,-170.37 836.26,-162.05 832.5,-167.96"/>
</g>
<!-- Node17 -->
<g id="node17" class="node">
<title>Node17</title>
<g id="a_node17"><a xlink:href="wxMaxima_8h.html" target="_top" xlink:title="This file declares the class wxMaxima that contains most of the program&#39;s logic.">
<polygon fill="white" stroke="#666666" points="663.89,-129 566.89,-129 566.89,-110 663.89,-110 663.89,-129"/>
<text text-anchor="middle" x="615.39" y="-117" font-family="Helvetica,sans-Serif" font-size="10.00">src/wxMaxima.h</text>
</a>
</g>
</g>
<!-- Node12&#45;&gt;Node17 -->
<g id="edge22" class="edge">
<title>Node12&#45;&gt;Node17</title>
<path fill="none" stroke="#63b8ff" d="M811.53,-168.11C764.95,-156.8 693.07,-139.35 650.48,-129.02"/>
<polygon fill="#63b8ff" stroke="#63b8ff" points="810.81,-171.54 821.35,-170.49 812.46,-164.73 810.81,-171.54"/>
</g>
<!-- Node18 -->
<g id="node18" class="node">
<title>Node18</title>
<g id="a_node18"><a xlink:href="wxMaximaFrame_8cpp.html" target="_top" xlink:title="This file defines the class wxMaximaFrame.">
<polygon fill="white" stroke="#666666" points="1003.89,-129 864.89,-129 864.89,-110 1003.89,-110 1003.89,-129"/>
<text text-anchor="middle" x="934.39" y="-117" font-family="Helvetica,sans-Serif" font-size="10.00">src/wxMaximaFrame.cpp</text>
</a>
</g>
</g>
<!-- Node12&#45;&gt;Node18 -->
<g id="edge28" class="edge">
<title>Node12&#45;&gt;Node18</title>
<path fill="none" stroke="#63b8ff" d="M875.93,-164.35C890.7,-153.27 910.49,-138.43 922.84,-129.17"/>
<polygon fill="#63b8ff" stroke="#63b8ff" points="873.8,-161.57 867.9,-170.37 878,-167.17 873.8,-161.57"/>
</g>
<!-- Node14&#45;&gt;Node8 -->
<g id="edge19" class="edge">
<title>Node14&#45;&gt;Node8</title>
<path fill="none" stroke="#63b8ff" d="M636.48,-52.06C670.3,-42.15 718.48,-28.04 749.08,-19.08"/>
<polygon fill="#63b8ff" stroke="#63b8ff" points="635.09,-48.82 626.47,-54.98 637.05,-55.53 635.09,-48.82"/>
</g>
<!-- Node14&#45;&gt;Node9 -->
<g id="edge20" class="edge">
<title>Node14&#45;&gt;Node9</title>
<path fill="none" stroke="#63b8ff" d="M641.67,-56.21C700.71,-46.49 805.02,-29.33 867.62,-19.02"/>
<polygon fill="#63b8ff" stroke="#63b8ff" points="640.85,-52.8 631.55,-57.88 641.98,-59.71 640.85,-52.8"/>
</g>
<!-- Node15 -->
<g id="node15" class="node">
<title>Node15</title>
<g id="a_node15"><a xlink:href="MaximaManual_8cpp.html" target="_top" xlink:title="This file defines the class MaximaManual.">
<polygon fill="white" stroke="#666666" points="662.39,-19 532.39,-19 532.39,0 662.39,0 662.39,-19"/>
<text text-anchor="middle" x="597.39" y="-7" font-family="Helvetica,sans-Serif" font-size="10.00">src/MaximaManual.cpp</text>
</a>
</g>
</g>
<!-- Node14&#45;&gt;Node15 -->
<g id="edge18" class="edge">
<title>Node14&#45;&gt;Node15</title>
<path fill="none" stroke="#63b8ff" d="M597.39,-44.66C597.39,-35.93 597.39,-25.99 597.39,-19.09"/>
<polygon fill="#63b8ff" stroke="#63b8ff" points="593.89,-44.75 597.39,-54.75 600.89,-44.75 593.89,-44.75"/>
</g>
<!-- Node17&#45;&gt;Node4 -->
<g id="edge23" class="edge">
<title>Node17&#45;&gt;Node4</title>
<path fill="none" stroke="#63b8ff" d="M586.15,-105.9C563.43,-96.11 532.52,-82.79 512.51,-74.17"/>
<polygon fill="#63b8ff" stroke="#63b8ff" points="585.06,-109.24 595.63,-109.98 587.83,-102.81 585.06,-109.24"/>
</g>
<!-- Node17&#45;&gt;Node8 -->
<g id="edge25" class="edge">
<title>Node17&#45;&gt;Node8</title>
<path fill="none" stroke="#63b8ff" d="M629.84,-102.42C642.86,-88.6 663.04,-68.77 683.39,-55 706.17,-39.59 735.13,-26.88 755.05,-19.04"/>
<polygon fill="#63b8ff" stroke="#63b8ff" points="627.26,-100.06 623.05,-109.78 632.4,-104.8 627.26,-100.06"/>
</g>
<!-- Node17&#45;&gt;Node9 -->
<g id="edge27" class="edge">
<title>Node17&#45;&gt;Node9</title>
<path fill="none" stroke="#63b8ff" d="M637.14,-104.27C664.24,-86.62 708.04,-58.42 716.39,-55 764.81,-35.18 823.5,-23.54 865.3,-17.17"/>
<polygon fill="#63b8ff" stroke="#63b8ff" points="635.12,-101.4 628.66,-109.8 638.95,-107.27 635.12,-101.4"/>
</g>
<!-- Node17&#45;&gt;Node13 -->
<g id="edge24" class="edge">
<title>Node17&#45;&gt;Node13</title>
<path fill="none" stroke="#63b8ff" d="M652.96,-107.06C685.48,-97.15 731.79,-83.04 761.22,-74.08"/>
<polygon fill="#63b8ff" stroke="#63b8ff" points="651.9,-103.72 643.35,-109.98 653.93,-110.42 651.9,-103.72"/>
</g>
<!-- Node17&#45;&gt;Node14 -->
<g id="edge26" class="edge">
<title>Node17&#45;&gt;Node14</title>
<path fill="none" stroke="#63b8ff" d="M609.19,-100.24C606.18,-91.37 602.7,-81.14 600.31,-74.09"/>
<polygon fill="#63b8ff" stroke="#63b8ff" points="605.89,-101.4 612.42,-109.75 612.52,-99.15 605.89,-101.4"/>
</g>
</g>
</svg>
