<?xml version="1.0" encoding="UTF-8" standalone="no"?>
<!DOCTYPE svg PUBLIC "-//W3C//DTD SVG 1.1//EN"
 "http://www.w3.org/Graphics/SVG/1.1/DTD/svg11.dtd">
<!-- Generated by graphviz version 2.43.0 (0)
 -->
<!-- Title: src/Autocomplete.h Pages: 1 -->
<!--zoomable 302 -->
<svg id="main" version="1.1" xmlns="http://www.w3.org/2000/svg" xmlns:xlink="http://www.w3.org/1999/xlink" xml:space="preserve" onload="init(evt)">
<style type="text/css"><![CDATA[
.edge:hover path { stroke: red; }
.edge:hover polygon { stroke: red; fill: red; }
]]></style>
<script type="text/javascript"><![CDATA[
var edges = document.getElementsByTagName('g');
if (edges && edges.length) {
  for (var i=0;i<edges.length;i++) {
    if (edges[i].id.substr(0,4)=='edge') {
      edges[i].setAttribute('class','edge');
    }
  }
}
]]></script>
        <defs>
                <circle id="rim" cx="0" cy="0" r="7"/>
                <circle id="rim2" cx="0" cy="0" r="3.5"/>
                <g id="zoomPlus">
                        <use xlink:href="#rim" fill="#404040">
                                <set attributeName="fill" to="#808080" begin="zoomplus.mouseover" end="zoomplus.mouseout"/>
                        </use>
                        <path d="M-4,0h8M0,-4v8" fill="none" stroke="white" stroke-width="1.5" pointer-events="none"/>
                </g>
                <g id="zoomMin">
                        <use xlink:href="#rim" fill="#404040">
                                <set attributeName="fill" to="#808080" begin="zoomminus.mouseover" end="zoomminus.mouseout"/>
                        </use>
                        <path d="M-4,0h8" fill="none" stroke="white" stroke-width="1.5" pointer-events="none"/>
                </g>
                <g id="dirArrow">
                        <path fill="none" stroke="white" stroke-width="1.5" d="M0,-3.0v7 M-2.5,-0.5L0,-3.0L2.5,-0.5"/>
                </g>
               <g id="resetDef">
                       <use xlink:href="#rim2" fill="#404040">
                               <set attributeName="fill" to="#808080" begin="reset.mouseover" end="reset.mouseout"/>
                       </use>
               </g>
        </defs>

<script type="text/javascript">
var viewWidth = 2162;
var viewHeight = 302;
var sectionId = 'dynsection-0';
</script>
<script xlink:href="svgpan.js"/>
<svg id="graph" class="graph">
<g id="viewport">
<title>src/Autocomplete.h</title>
<!-- Node1 -->
<g id="node1" class="node">
<title>Node1</title>
<g id="a_node1"><a xlink:title="This file declares the class AutoComplete.">
<polygon fill="#999999" stroke="#666666" points="1568.5,-294 1457.5,-294 1457.5,-275 1568.5,-275 1568.5,-294"/>
<text text-anchor="middle" x="1513" y="-282" font-family="Helvetica,sans-Serif" font-size="10.00">src/Autocomplete.h</text>
</a>
</g>
</g>
<!-- Node2 -->
<g id="node2" class="node">
<title>Node2</title>
<g id="a_node2"><a xlink:title=" ">
<polygon fill="#e0e0e0" stroke="#999999" points="48,-239 0,-239 0,-220 48,-220 48,-239"/>
<text text-anchor="middle" x="24" y="-227" font-family="Helvetica,sans-Serif" font-size="10.00">thread</text>
</a>
</g>
</g>
<!-- Node1&#45;&gt;Node2 -->
<g id="edge1" class="edge">
<title>Node1&#45;&gt;Node2</title>
<path fill="none" stroke="#63b8ff" d="M1457.31,-283.2C1225.9,-281.75 339.4,-273.96 62,-239 60.72,-238.84 59.41,-238.65 58.1,-238.45"/>
<polygon fill="#63b8ff" stroke="#63b8ff" points="58.47,-234.96 48,-236.59 57.2,-241.84 58.47,-234.96"/>
</g>
<!-- Node3 -->
<g id="node3" class="node">
<title>Node3</title>
<g id="a_node3"><a xlink:title=" ">
<polygon fill="#e0e0e0" stroke="#999999" points="183,-74 119,-74 119,-55 183,-55 183,-74"/>
<text text-anchor="middle" x="151" y="-62" font-family="Helvetica,sans-Serif" font-size="10.00">algorithm</text>
</a>
</g>
</g>
<!-- Node1&#45;&gt;Node3 -->
<g id="edge2" class="edge">
<title>Node1&#45;&gt;Node3</title>
<path fill="none" stroke="#63b8ff" d="M1457.18,-283.05C1237.99,-281.05 442.94,-271.58 335,-239 255.51,-215.01 234.79,-194.69 184,-129 173.21,-115.04 164.23,-97.02 158.38,-83.75"/>
<polygon fill="#63b8ff" stroke="#63b8ff" points="161.5,-82.14 154.38,-74.29 155.05,-84.86 161.5,-82.14"/>
</g>
<!-- Node4 -->
<g id="node4" class="node">
<title>Node4</title>
<g id="a_node4"><a xlink:title=" ">
<polygon fill="#e0e0e0" stroke="#999999" points="259,-74 201,-74 201,-55 259,-55 259,-74"/>
<text text-anchor="middle" x="230" y="-62" font-family="Helvetica,sans-Serif" font-size="10.00">memory</text>
</a>
</g>
</g>
<!-- Node1&#45;&gt;Node4 -->
<g id="edge3" class="edge">
<title>Node1&#45;&gt;Node4</title>
<path fill="none" stroke="#63b8ff" d="M1457.22,-282.67C1246.31,-279.32 504.37,-265.74 402,-239 319.21,-217.37 283.32,-205 244,-129 236.78,-115.04 233.27,-97.48 231.57,-84.37"/>
<polygon fill="#63b8ff" stroke="#63b8ff" points="235.03,-83.77 230.5,-74.19 228.07,-84.51 235.03,-83.77"/>
</g>
<!-- Node5 -->
<g id="node5" class="node">
<title>Node5</title>
<g id="a_node5"><a xlink:title=" ">
<polygon fill="#e0e0e0" stroke="#999999" points="1396,-184 1348,-184 1348,-165 1396,-165 1396,-184"/>
<text text-anchor="middle" x="1372" y="-172" font-family="Helvetica,sans-Serif" font-size="10.00">mutex</text>
</a>
</g>
</g>
<!-- Node1&#45;&gt;Node5 -->
<g id="edge4" class="edge">
<title>Node1&#45;&gt;Node5</title>
<path fill="none" stroke="#63b8ff" d="M1501.46,-274.66C1477.28,-256.14 1421.06,-213.08 1391.29,-190.28"/>
<polygon fill="#63b8ff" stroke="#63b8ff" points="1393.37,-187.46 1383.3,-184.16 1389.11,-193.02 1393.37,-187.46"/>
</g>
<!-- Node6 -->
<g id="node6" class="node">
<title>Node6</title>
<g id="a_node6"><a xlink:title=" ">
<polygon fill="#e0e0e0" stroke="#999999" points="1471.5,-184 1414.5,-184 1414.5,-165 1471.5,-165 1471.5,-184"/>
<text text-anchor="middle" x="1443" y="-172" font-family="Helvetica,sans-Serif" font-size="10.00">wx/wx.h</text>
</a>
</g>
</g>
<!-- Node1&#45;&gt;Node6 -->
<g id="edge5" class="edge">
<title>Node1&#45;&gt;Node6</title>
<path fill="none" stroke="#63b8ff" d="M1507.27,-274.66C1495.68,-256.77 1469.25,-216 1454.14,-192.69"/>
<polygon fill="#63b8ff" stroke="#63b8ff" points="1456.99,-190.65 1448.61,-184.16 1451.11,-194.45 1456.99,-190.65"/>
</g>
<!-- Node7 -->
<g id="node7" class="node">
<title>Node7</title>
<g id="a_node7"><a xlink:title=" ">
<polygon fill="#e0e0e0" stroke="#999999" points="1707.5,-239 1624.5,-239 1624.5,-220 1707.5,-220 1707.5,-239"/>
<text text-anchor="middle" x="1666" y="-227" font-family="Helvetica,sans-Serif" font-size="10.00">wx/xml/xml.h</text>
</a>
</g>
</g>
<!-- Node1&#45;&gt;Node7 -->
<g id="edge6" class="edge">
<title>Node1&#45;&gt;Node7</title>
<path fill="none" stroke="#63b8ff" d="M1537.58,-274.98C1563.05,-266.16 1603.04,-252.31 1631.63,-242.41"/>
<polygon fill="#63b8ff" stroke="#63b8ff" points="1632.92,-245.66 1641.23,-239.08 1630.63,-239.05 1632.92,-245.66"/>
</g>
<!-- Node8 -->
<g id="node8" class="node">
<title>Node8</title>
<g id="a_node8"><a xlink:title=" ">
<polygon fill="#e0e0e0" stroke="#999999" points="1796.5,-239 1725.5,-239 1725.5,-220 1796.5,-220 1796.5,-239"/>
<text text-anchor="middle" x="1761" y="-227" font-family="Helvetica,sans-Serif" font-size="10.00">wx/event.h</text>
</a>
</g>
</g>
<!-- Node1&#45;&gt;Node8 -->
<g id="edge7" class="edge">
<title>Node1&#45;&gt;Node8</title>
<path fill="none" stroke="#63b8ff" d="M1552.85,-274.98C1597.24,-265.5 1668.87,-250.19 1715.45,-240.23"/>
<polygon fill="#63b8ff" stroke="#63b8ff" points="1716.23,-243.65 1725.28,-238.13 1714.77,-236.8 1716.23,-243.65"/>
</g>
<!-- Node9 -->
<g id="node9" class="node">
<title>Node9</title>
<g id="a_node9"><a xlink:title=" ">
<polygon fill="#e0e0e0" stroke="#999999" points="1869.5,-239 1814.5,-239 1814.5,-220 1869.5,-220 1869.5,-239"/>
<text text-anchor="middle" x="1842" y="-227" font-family="Helvetica,sans-Serif" font-size="10.00">wx/dir.h</text>
</a>
</g>
</g>
<!-- Node1&#45;&gt;Node9 -->
<g id="edge8" class="edge">
<title>Node1&#45;&gt;Node9</title>
<path fill="none" stroke="#63b8ff" d="M1568.58,-276.43C1625.49,-268.88 1716.71,-255.93 1804.06,-239.26"/>
<polygon fill="#63b8ff" stroke="#63b8ff" points="1804.98,-242.64 1814.14,-237.31 1803.66,-235.77 1804.98,-242.64"/>
</g>
<!-- Node10 -->
<g id="node10" class="node">
<title>Node10</title>
<g id="a_node10"><a xlink:title=" ">
<polygon fill="#e0e0e0" stroke="#999999" points="1536.5,-184 1489.5,-184 1489.5,-165 1536.5,-165 1536.5,-184"/>
<text text-anchor="middle" x="1513" y="-172" font-family="Helvetica,sans-Serif" font-size="10.00">vector</text>
</a>
</g>
</g>
<!-- Node1&#45;&gt;Node10 -->
<g id="edge9" class="edge">
<title>Node1&#45;&gt;Node10</title>
<path fill="none" stroke="#63b8ff" d="M1513,-274.66C1513,-257.17 1513,-217.8 1513,-194.27"/>
<polygon fill="#63b8ff" stroke="#63b8ff" points="1516.5,-194.16 1513,-184.16 1509.5,-194.16 1516.5,-194.16"/>
</g>
<!-- Node11 -->
<g id="node11" class="node">
<title>Node11</title>
<g id="a_node11"><a xlink:title=" ">
<polygon fill="#e0e0e0" stroke="#999999" points="1960.5,-239 1887.5,-239 1887.5,-220 1960.5,-220 1960.5,-239"/>
<text text-anchor="middle" x="1924" y="-227" font-family="Helvetica,sans-Serif" font-size="10.00">wx/object.h</text>
</a>
</g>
</g>
<!-- Node1&#45;&gt;Node11 -->
<g id="edge10" class="edge">
<title>Node1&#45;&gt;Node11</title>
<path fill="none" stroke="#63b8ff" d="M1568.65,-277.88C1638.49,-270.58 1762.16,-256.8 1877.16,-239.2"/>
<polygon fill="#63b8ff" stroke="#63b8ff" points="1877.85,-242.64 1887.2,-237.66 1876.78,-235.72 1877.85,-242.64"/>
</g>
<!-- Node12 -->
<g id="node12" class="node">
<title>Node12</title>
<g id="a_node12"><a xlink:title=" ">
<polygon fill="#e0e0e0" stroke="#999999" points="2049.5,-239 1978.5,-239 1978.5,-220 2049.5,-220 2049.5,-239"/>
<text text-anchor="middle" x="2014" y="-227" font-family="Helvetica,sans-Serif" font-size="10.00">wx/regex.h</text>
</a>
</g>
</g>
<!-- Node1&#45;&gt;Node12 -->
<g id="edge11" class="edge">
<title>Node1&#45;&gt;Node12</title>
<path fill="none" stroke="#63b8ff" d="M1568.78,-279.76C1653.13,-273.74 1818.39,-260.48 1967.76,-239.21"/>
<polygon fill="#63b8ff" stroke="#63b8ff" points="1968.63,-242.62 1978.03,-237.73 1967.63,-235.7 1968.63,-242.62"/>
</g>
<!-- Node13 -->
<g id="node13" class="node">
<title>Node13</title>
<g id="a_node13"><a xlink:title=" ">
<polygon fill="#e0e0e0" stroke="#999999" points="2154,-239 2068,-239 2068,-220 2154,-220 2154,-239"/>
<text text-anchor="middle" x="2111" y="-227" font-family="Helvetica,sans-Serif" font-size="10.00">wx/filename.h</text>
</a>
</g>
</g>
<!-- Node1&#45;&gt;Node13 -->
<g id="edge12" class="edge">
<title>Node1&#45;&gt;Node13</title>
<path fill="none" stroke="#63b8ff" d="M1568.57,-280.46C1665.66,-274.82 1872.69,-261.34 2057.72,-239.06"/>
<polygon fill="#63b8ff" stroke="#63b8ff" points="2058.4,-242.5 2067.91,-237.82 2057.56,-235.55 2058.4,-242.5"/>
</g>
<!-- Node14 -->
<g id="node14" class="node">
<title>Node14</title>
<g id="a_node14"><a xlink:title=" ">
<polygon fill="#e0e0e0" stroke="#999999" points="1598,-129 1510,-129 1510,-110 1598,-110 1598,-129"/>
<text text-anchor="middle" x="1554" y="-117" font-family="Helvetica,sans-Serif" font-size="10.00">wx/hashmap.h</text>
</a>
</g>
</g>
<!-- Node1&#45;&gt;Node14 -->
<g id="edge13" class="edge">
<title>Node1&#45;&gt;Node14</title>
<path fill="none" stroke="#63b8ff" d="M1516.5,-274.88C1523.27,-257.82 1538.2,-218.43 1546,-184 1549.35,-169.23 1551.4,-152.19 1552.58,-139.48"/>
<polygon fill="#63b8ff" stroke="#63b8ff" points="1556.1,-139.48 1553.44,-129.22 1549.12,-138.89 1556.1,-139.48"/>
</g>
<!-- Node15 -->
<g id="node15" class="node">
<title>Node15</title>
<g id="a_node15"><a xlink:href="Configuration_8h_source.html" target="_top" xlink:title=" ">
<polygon fill="white" stroke="#666666" points="1033.5,-239 942.5,-239 942.5,-220 1033.5,-220 1033.5,-239"/>
<text text-anchor="middle" x="988" y="-227" font-family="Helvetica,sans-Serif" font-size="10.00">Configuration.h</text>
</a>
</g>
</g>
<!-- Node1&#45;&gt;Node15 -->
<g id="edge14" class="edge">
<title>Node1&#45;&gt;Node15</title>
<path fill="none" stroke="#63b8ff" d="M1457.31,-277.88C1356.41,-267.69 1144.47,-246.3 1043.61,-236.11"/>
<polygon fill="#63b8ff" stroke="#63b8ff" points="1043.93,-232.63 1033.63,-235.11 1043.22,-239.59 1043.93,-232.63"/>
</g>
<!-- Node16 -->
<g id="node16" class="node">
<title>Node16</title>
<g id="a_node16"><a xlink:href="precomp_8h_source.html" target="_top" xlink:title=" ">
<polygon fill="white" stroke="#666666" points="361,-74 293,-74 293,-55 361,-55 361,-74"/>
<text text-anchor="middle" x="327" y="-62" font-family="Helvetica,sans-Serif" font-size="10.00">precomp.h</text>
</a>
</g>
</g>
<!-- Node1&#45;&gt;Node16 -->
<g id="edge70" class="edge">
<title>Node1&#45;&gt;Node16</title>
<path fill="none" stroke="#63b8ff" d="M1457.26,-283.11C1230.93,-280.99 388.77,-267.5 308,-184 281.67,-156.78 302.31,-108.47 316.49,-82.74"/>
<polygon fill="#63b8ff" stroke="#63b8ff" points="319.53,-84.49 321.5,-74.08 313.47,-80.99 319.53,-84.49"/>
</g>
<!-- Node17 -->
<g id="node17" class="node">
<title>Node17</title>
<g id="a_node17"><a xlink:href="Version_8h_source.html" target="_top" xlink:title=" ">
<polygon fill="white" stroke="#666666" points="225,-19 163,-19 163,0 225,0 225,-19"/>
<text text-anchor="middle" x="194" y="-7" font-family="Helvetica,sans-Serif" font-size="10.00">Version.h</text>
</a>
</g>
</g>
<!-- Node1&#45;&gt;Node17 -->
<g id="edge71" class="edge">
<title>Node1&#45;&gt;Node17</title>
<path fill="none" stroke="#63b8ff" d="M1457.35,-283.44C1248.56,-282.9 511.92,-278.22 281,-239 186.96,-223.03 76,-270.88 76,-175.5 76,-175.5 76,-175.5 76,-118.5 76,-86.49 87.31,-77.59 110,-55 123.98,-41.08 143.22,-30.46 159.76,-23.09"/>
<polygon fill="#63b8ff" stroke="#63b8ff" points="161.28,-26.25 169.12,-19.12 158.55,-19.8 161.28,-26.25"/>
</g>
<!-- Node44 -->
<g id="node44" class="node">
<title>Node44</title>
<g id="a_node44"><a xlink:title=" ">
<polygon fill="#e0e0e0" stroke="#999999" points="1724.5,-74 1631.5,-74 1631.5,-55 1724.5,-55 1724.5,-74"/>
<text text-anchor="middle" x="1678" y="-62" font-family="Helvetica,sans-Serif" font-size="10.00">unordered_map</text>
</a>
</g>
</g>
<!-- Node1&#45;&gt;Node44 -->
<g id="edge72" class="edge">
<title>Node1&#45;&gt;Node44</title>
<path fill="none" stroke="#63b8ff" d="M1520.11,-274.96C1539.24,-251.87 1593.22,-186.09 1635,-129 1646.26,-113.61 1658.38,-95.56 1666.88,-82.65"/>
<polygon fill="#63b8ff" stroke="#63b8ff" points="1669.81,-84.55 1672.36,-74.27 1663.95,-80.72 1669.81,-84.55"/>
</g>
<!-- Node15&#45;&gt;Node3 -->
<g id="edge67" class="edge">
<title>Node15&#45;&gt;Node3</title>
<path fill="none" stroke="#63b8ff" d="M942.3,-227.38C795.45,-223.54 341.61,-209.7 281,-184 228.71,-161.83 183.79,-109.33 163.12,-82.27"/>
<polygon fill="#63b8ff" stroke="#63b8ff" points="165.85,-80.08 157.07,-74.15 160.24,-84.26 165.85,-80.08"/>
</g>
<!-- Node15&#45;&gt;Node4 -->
<g id="edge61" class="edge">
<title>Node15&#45;&gt;Node4</title>
<path fill="none" stroke="#63b8ff" d="M942.26,-227.85C798.57,-225.48 362.55,-215.74 308,-184 269.1,-161.36 245.99,-110.66 235.95,-83.5"/>
<polygon fill="#63b8ff" stroke="#63b8ff" points="239.25,-82.32 232.64,-74.04 232.64,-84.64 239.25,-82.32"/>
</g>
<!-- Node15&#45;&gt;Node5 -->
<g id="edge62" class="edge">
<title>Node15&#45;&gt;Node5</title>
<path fill="none" stroke="#63b8ff" d="M1033.54,-224C1099.9,-217.13 1226.93,-202.82 1334,-184 1335.27,-183.78 1336.57,-183.54 1337.88,-183.29"/>
<polygon fill="#63b8ff" stroke="#63b8ff" points="1338.85,-186.66 1347.94,-181.23 1337.45,-179.81 1338.85,-186.66"/>
</g>
<!-- Node15&#45;&gt;Node6 -->
<g id="edge17" class="edge">
<title>Node15&#45;&gt;Node6</title>
<path fill="none" stroke="#63b8ff" d="M1033.58,-225.34C1108.7,-219.77 1263.37,-206.72 1404.31,-183.91"/>
<polygon fill="#63b8ff" stroke="#63b8ff" points="1405.13,-187.33 1414.43,-182.26 1404,-180.42 1405.13,-187.33"/>
</g>
<!-- Node15&#45;&gt;Node10 -->
<g id="edge66" class="edge">
<title>Node15&#45;&gt;Node10</title>
<path fill="none" stroke="#63b8ff" d="M1033.54,-226.97C1119.21,-223.53 1310.23,-213.23 1479.26,-184.03"/>
<polygon fill="#63b8ff" stroke="#63b8ff" points="1480.09,-187.44 1489.33,-182.27 1478.88,-180.55 1480.09,-187.44"/>
</g>
<!-- Node15&#45;&gt;Node14 -->
<g id="edge21" class="edge">
<title>Node15&#45;&gt;Node14</title>
<path fill="none" stroke="#63b8ff" d="M1033.55,-224C1087.74,-217.96 1180.62,-205.43 1258,-184 1280.11,-177.88 1283.93,-171.28 1306,-165 1341.57,-154.88 1438.34,-138.71 1499.95,-128.9"/>
<polygon fill="#63b8ff" stroke="#63b8ff" points="1500.57,-132.35 1509.9,-127.33 1499.47,-125.44 1500.57,-132.35"/>
</g>
<!-- Node15&#45;&gt;Node16 -->
<g id="edge15" class="edge">
<title>Node15&#45;&gt;Node16</title>
<path fill="none" stroke="#63b8ff" d="M942.34,-228.96C799.03,-229.93 365.16,-229.08 323,-184 297.67,-156.91 309.97,-109.26 319.49,-83.4"/>
<polygon fill="#63b8ff" stroke="#63b8ff" points="322.76,-84.65 323.15,-74.07 316.24,-82.09 322.76,-84.65"/>
</g>
<!-- Node18 -->
<g id="node18" class="node">
<title>Node18</title>
<g id="a_node18"><a xlink:title=" ">
<polygon fill="#e0e0e0" stroke="#999999" points="653,-129 581,-129 581,-110 653,-110 653,-129"/>
<text text-anchor="middle" x="617" y="-117" font-family="Helvetica,sans-Serif" font-size="10.00">wx/config.h</text>
</a>
</g>
</g>
<!-- Node15&#45;&gt;Node18 -->
<g id="edge18" class="edge">
<title>Node15&#45;&gt;Node18</title>
<path fill="none" stroke="#63b8ff" d="M993.99,-219.92C1002.58,-206.5 1015.88,-180.45 1002,-165 951.97,-109.3 741.16,-139.28 667,-129 665.72,-128.82 664.43,-128.64 663.13,-128.45"/>
<polygon fill="#63b8ff" stroke="#63b8ff" points="663.43,-124.95 653.01,-126.89 662.36,-131.87 663.43,-124.95"/>
</g>
<!-- Node19 -->
<g id="node19" class="node">
<title>Node19</title>
<g id="a_node19"><a xlink:title=" ">
<polygon fill="#e0e0e0" stroke="#999999" points="409.5,-184 332.5,-184 332.5,-165 409.5,-165 409.5,-184"/>
<text text-anchor="middle" x="371" y="-172" font-family="Helvetica,sans-Serif" font-size="10.00">wx/display.h</text>
</a>
</g>
</g>
<!-- Node15&#45;&gt;Node19 -->
<g id="edge19" class="edge">
<title>Node15&#45;&gt;Node19</title>
<path fill="none" stroke="#63b8ff" d="M942.49,-226.45C847.4,-221.83 620.58,-209.12 419.87,-183.97"/>
<polygon fill="#63b8ff" stroke="#63b8ff" points="420.08,-180.47 409.72,-182.69 419.2,-187.42 420.08,-180.47"/>
</g>
<!-- Node20 -->
<g id="node20" class="node">
<title>Node20</title>
<g id="a_node20"><a xlink:title=" ">
<polygon fill="#e0e0e0" stroke="#999999" points="518,-184 428,-184 428,-165 518,-165 518,-184"/>
<text text-anchor="middle" x="473" y="-172" font-family="Helvetica,sans-Serif" font-size="10.00">wx/fontenum.h</text>
</a>
</g>
</g>
<!-- Node15&#45;&gt;Node20 -->
<g id="edge20" class="edge">
<title>Node15&#45;&gt;Node20</title>
<path fill="none" stroke="#63b8ff" d="M942.42,-225.01C861.34,-218.61 686.48,-203.9 528.44,-184.11"/>
<polygon fill="#63b8ff" stroke="#63b8ff" points="528.41,-180.58 518.05,-182.8 527.54,-187.52 528.41,-180.58"/>
</g>
<!-- Node21 -->
<g id="node21" class="node">
<title>Node21</title>
<g id="a_node21"><a xlink:href="LoggingMessageDialog_8h.html" target="_top" xlink:title="This file declares a message dialog that sends its contents to the log message sink.">
<polygon fill="white" stroke="#666666" points="960.5,-184 783.5,-184 783.5,-165 960.5,-165 960.5,-184"/>
<text text-anchor="middle" x="872" y="-172" font-family="Helvetica,sans-Serif" font-size="10.00">dialogs/LoggingMessageDialog.h</text>
</a>
</g>
</g>
<!-- Node15&#45;&gt;Node21 -->
<g id="edge22" class="edge">
<title>Node15&#45;&gt;Node21</title>
<path fill="none" stroke="#63b8ff" d="M969.36,-219.98C950.7,-211.46 921.75,-198.23 900.26,-188.41"/>
<polygon fill="#63b8ff" stroke="#63b8ff" points="901.53,-185.14 890.98,-184.17 898.62,-191.51 901.53,-185.14"/>
</g>
<!-- Node24 -->
<g id="node24" class="node">
<title>Node24</title>
<g id="a_node24"><a xlink:href="TextStyle_8h.html" target="_top" xlink:title="This file declares everything needed for the text style system used to style all the elements on the ...">
<polygon fill="white" stroke="#666666" points="1150,-184 1054,-184 1054,-165 1150,-165 1150,-184"/>
<text text-anchor="middle" x="1102" y="-172" font-family="Helvetica,sans-Serif" font-size="10.00">cells/TextStyle.h</text>
</a>
</g>
</g>
<!-- Node15&#45;&gt;Node24 -->
<g id="edge26" class="edge">
<title>Node15&#45;&gt;Node24</title>
<path fill="none" stroke="#63b8ff" d="M1006.32,-219.98C1024.66,-211.46 1053.11,-198.23 1074.23,-188.41"/>
<polygon fill="#63b8ff" stroke="#63b8ff" points="1075.76,-191.56 1083.35,-184.17 1072.81,-185.21 1075.76,-191.56"/>
</g>
<!-- Node31 -->
<g id="node31" class="node">
<title>Node31</title>
<g id="a_node31"><a xlink:title=" ">
<polygon fill="#e0e0e0" stroke="#999999" points="1200,-74 1150,-74 1150,-55 1200,-55 1200,-74"/>
<text text-anchor="middle" x="1175" y="-62" font-family="Helvetica,sans-Serif" font-size="10.00">cstdint</text>
</a>
</g>
</g>
<!-- Node15&#45;&gt;Node31 -->
<g id="edge60" class="edge">
<title>Node15&#45;&gt;Node31</title>
<path fill="none" stroke="#63b8ff" d="M1033.63,-223.2C1069.55,-217.53 1119.9,-206.15 1159,-184 1189.35,-166.8 1201.5,-161.17 1215,-129 1222.42,-111.32 1208.1,-92.99 1194.57,-80.6"/>
<polygon fill="#63b8ff" stroke="#63b8ff" points="1196.76,-77.86 1186.88,-74.03 1192.22,-83.18 1196.76,-77.86"/>
</g>
<!-- Node42 -->
<g id="node42" class="node">
<title>Node42</title>
<g id="a_node42"><a xlink:title=" ">
<polygon fill="#e0e0e0" stroke="#999999" points="740,-74 708,-74 708,-55 740,-55 740,-74"/>
<text text-anchor="middle" x="724" y="-62" font-family="Helvetica,sans-Serif" font-size="10.00">list</text>
</a>
</g>
</g>
<!-- Node15&#45;&gt;Node42 -->
<g id="edge65" class="edge">
<title>Node15&#45;&gt;Node42</title>
<path fill="none" stroke="#63b8ff" d="M988.23,-219.89C988.09,-205.93 985.57,-178.55 969,-165 900.41,-108.94 631.74,-194.41 572,-129 533.93,-87.32 644.95,-72.16 697.77,-67.41"/>
<polygon fill="#63b8ff" stroke="#63b8ff" points="698.12,-70.89 707.79,-66.57 697.53,-63.91 698.12,-70.89"/>
</g>
<!-- Node15&#45;&gt;Node44 -->
<g id="edge63" class="edge">
<title>Node15&#45;&gt;Node44</title>
<path fill="none" stroke="#63b8ff" d="M1033.7,-225.8C1094.57,-221.32 1205.13,-210.11 1296,-184 1316.08,-178.23 1318.89,-170.67 1339,-165 1454.67,-132.39 1497.84,-179.28 1607,-129 1630.35,-118.24 1651.53,-97.13 1664.56,-82.21"/>
<polygon fill="#63b8ff" stroke="#63b8ff" points="1667.48,-84.17 1671.24,-74.26 1662.13,-79.66 1667.48,-84.17"/>
</g>
<!-- Node45 -->
<g id="node45" class="node">
<title>Node45</title>
<g id="a_node45"><a xlink:title=" ">
<polygon fill="#e0e0e0" stroke="#999999" points="590,-184 536,-184 536,-165 590,-165 590,-184"/>
<text text-anchor="middle" x="563" y="-172" font-family="Helvetica,sans-Serif" font-size="10.00">random</text>
</a>
</g>
</g>
<!-- Node15&#45;&gt;Node45 -->
<g id="edge64" class="edge">
<title>Node15&#45;&gt;Node45</title>
<path fill="none" stroke="#63b8ff" d="M942.24,-225.03C871.12,-219.24 729.63,-206.2 600.15,-184"/>
<polygon fill="#63b8ff" stroke="#63b8ff" points="600.51,-180.51 590.06,-182.25 599.31,-187.41 600.51,-180.51"/>
</g>
<!-- Node46 -->
<g id="node46" class="node">
<title>Node46</title>
<g id="a_node46"><a xlink:title=" ">
<polygon fill="#e0e0e0" stroke="#999999" points="658,-184 608,-184 608,-165 658,-165 658,-184"/>
<text text-anchor="middle" x="633" y="-172" font-family="Helvetica,sans-Serif" font-size="10.00">atomic</text>
</a>
</g>
</g>
<!-- Node15&#45;&gt;Node46 -->
<g id="edge68" class="edge">
<title>Node15&#45;&gt;Node46</title>
<path fill="none" stroke="#63b8ff" d="M942.3,-223.73C881.76,-217.06 771.52,-203.73 668.16,-184.04"/>
<polygon fill="#63b8ff" stroke="#63b8ff" points="668.67,-180.57 658.18,-182.12 667.34,-187.45 668.67,-180.57"/>
</g>
<!-- Node47 -->
<g id="node47" class="node">
<title>Node47</title>
<g id="a_node47"><a xlink:title=" ">
<polygon fill="#e0e0e0" stroke="#999999" points="765.5,-184 676.5,-184 676.5,-165 765.5,-165 765.5,-184"/>
<text text-anchor="middle" x="721" y="-172" font-family="Helvetica,sans-Serif" font-size="10.00">wx/wupdlock.h</text>
</a>
</g>
</g>
<!-- Node15&#45;&gt;Node47 -->
<g id="edge69" class="edge">
<title>Node15&#45;&gt;Node47</title>
<path fill="none" stroke="#63b8ff" d="M945.1,-219.98C898.63,-210.76 824.41,-196.03 774.24,-186.07"/>
<polygon fill="#63b8ff" stroke="#63b8ff" points="774.72,-182.6 764.23,-184.08 773.36,-189.46 774.72,-182.6"/>
</g>
<!-- Node16&#45;&gt;Node17 -->
<g id="edge16" class="edge">
<title>Node16&#45;&gt;Node17</title>
<path fill="none" stroke="#63b8ff" d="M305.63,-54.98C283.85,-46.3 249.84,-32.75 225.08,-22.88"/>
<polygon fill="#63b8ff" stroke="#63b8ff" points="226.34,-19.62 215.76,-19.17 223.75,-26.12 226.34,-19.62"/>
</g>
<!-- Node21&#45;&gt;Node16 -->
<g id="edge23" class="edge">
<title>Node21&#45;&gt;Node16</title>
<path fill="none" stroke="#63b8ff" d="M783.34,-165.81C637.1,-153.13 361.27,-129.18 361,-129 345.38,-118.7 336.4,-98.73 331.64,-83.93"/>
<polygon fill="#63b8ff" stroke="#63b8ff" points="334.99,-82.93 328.88,-74.27 328.26,-84.85 334.99,-82.93"/>
</g>
<!-- Node22 -->
<g id="node22" class="node">
<title>Node22</title>
<g id="a_node22"><a xlink:title=" ">
<polygon fill="#e0e0e0" stroke="#999999" points="449.5,-129 370.5,-129 370.5,-110 449.5,-110 449.5,-129"/>
<text text-anchor="middle" x="410" y="-117" font-family="Helvetica,sans-Serif" font-size="10.00">wx/msgdlg.h</text>
</a>
</g>
</g>
<!-- Node21&#45;&gt;Node22 -->
<g id="edge24" class="edge">
<title>Node21&#45;&gt;Node22</title>
<path fill="none" stroke="#63b8ff" d="M783.35,-165.74C701.75,-158.18 577.13,-145.63 459.76,-129.17"/>
<polygon fill="#63b8ff" stroke="#63b8ff" points="459.91,-125.65 449.52,-127.72 458.93,-132.58 459.91,-125.65"/>
</g>
<!-- Node23 -->
<g id="node23" class="node">
<title>Node23</title>
<g id="a_node23"><a xlink:title=" ">
<polygon fill="#e0e0e0" stroke="#999999" points="525,-129 467,-129 467,-110 525,-110 525,-129"/>
<text text-anchor="middle" x="496" y="-117" font-family="Helvetica,sans-Serif" font-size="10.00">wx/log.h</text>
</a>
</g>
</g>
<!-- Node21&#45;&gt;Node23 -->
<g id="edge25" class="edge">
<title>Node21&#45;&gt;Node23</title>
<path fill="none" stroke="#63b8ff" d="M798.39,-165C730.79,-156.88 627.91,-143.71 539,-129 537.73,-128.79 536.45,-128.57 535.15,-128.35"/>
<polygon fill="#63b8ff" stroke="#63b8ff" points="535.57,-124.86 525.1,-126.51 534.31,-131.75 535.57,-124.86"/>
</g>
<!-- Node24&#45;&gt;Node14 -->
<g id="edge30" class="edge">
<title>Node24&#45;&gt;Node14</title>
<path fill="none" stroke="#63b8ff" d="M1150.28,-168.57C1224.63,-160.85 1371.59,-145.14 1496,-129 1497.11,-128.86 1498.23,-128.71 1499.36,-128.56"/>
<polygon fill="#63b8ff" stroke="#63b8ff" points="1500.25,-131.97 1509.69,-127.15 1499.31,-125.03 1500.25,-131.97"/>
</g>
<!-- Node24&#45;&gt;Node16 -->
<g id="edge27" class="edge">
<title>Node24&#45;&gt;Node16</title>
<path fill="none" stroke="#63b8ff" d="M1053.92,-168.4C949.04,-157.25 708.42,-131.48 700,-129 681.89,-123.66 680.05,-115.54 662,-110 561.05,-79.01 436.46,-69.6 371.37,-66.74"/>
<polygon fill="#63b8ff" stroke="#63b8ff" points="371.2,-63.23 361.07,-66.32 370.92,-70.23 371.2,-63.23"/>
</g>
<!-- Node24&#45;&gt;Node18 -->
<g id="edge33" class="edge">
<title>Node24&#45;&gt;Node18</title>
<path fill="none" stroke="#63b8ff" d="M1053.96,-166.72C1049.25,-166.11 1044.53,-165.53 1040,-165 874.58,-145.69 832.09,-150.97 667,-129 665.72,-128.83 664.43,-128.65 663.12,-128.47"/>
<polygon fill="#63b8ff" stroke="#63b8ff" points="663.41,-124.97 653,-126.94 662.37,-131.89 663.41,-124.97"/>
</g>
<!-- Node25 -->
<g id="node25" class="node">
<title>Node25</title>
<g id="a_node25"><a xlink:title=" ">
<polygon fill="#e0e0e0" stroke="#999999" points="1454,-129 1382,-129 1382,-110 1454,-110 1454,-129"/>
<text text-anchor="middle" x="1418" y="-117" font-family="Helvetica,sans-Serif" font-size="10.00">wx/colour.h</text>
</a>
</g>
</g>
<!-- Node24&#45;&gt;Node25 -->
<g id="edge28" class="edge">
<title>Node24&#45;&gt;Node25</title>
<path fill="none" stroke="#63b8ff" d="M1150.33,-165.82C1204.4,-157.17 1294.55,-142.54 1372,-129 1372.1,-128.98 1372.2,-128.97 1372.3,-128.95"/>
<polygon fill="#63b8ff" stroke="#63b8ff" points="1372.62,-132.45 1381.85,-127.25 1371.39,-125.55 1372.62,-132.45"/>
</g>
<!-- Node26 -->
<g id="node26" class="node">
<title>Node26</title>
<g id="a_node26"><a xlink:title=" ">
<polygon fill="#e0e0e0" stroke="#999999" points="747,-129 709,-129 709,-110 747,-110 747,-129"/>
<text text-anchor="middle" x="728" y="-117" font-family="Helvetica,sans-Serif" font-size="10.00">map</text>
</a>
</g>
</g>
<!-- Node24&#45;&gt;Node26 -->
<g id="edge29" class="edge">
<title>Node24&#45;&gt;Node26</title>
<path fill="none" stroke="#63b8ff" d="M1053.94,-166.86C1049.23,-166.23 1044.52,-165.6 1040,-165 917.06,-148.78 882.18,-155.22 757.13,-128.91"/>
<polygon fill="#63b8ff" stroke="#63b8ff" points="757.68,-125.45 747.17,-126.78 756.22,-132.29 757.68,-125.45"/>
</g>
<!-- Node27 -->
<g id="node27" class="node">
<title>Node27</title>
<g id="a_node27"><a xlink:title=" ">
<polygon fill="#e0e0e0" stroke="#999999" points="809,-129 765,-129 765,-110 809,-110 809,-129"/>
<text text-anchor="middle" x="787" y="-117" font-family="Helvetica,sans-Serif" font-size="10.00">string</text>
</a>
</g>
</g>
<!-- Node24&#45;&gt;Node27 -->
<g id="edge31" class="edge">
<title>Node24&#45;&gt;Node27</title>
<path fill="none" stroke="#63b8ff" d="M1053.96,-166.64C989.19,-157.28 876.28,-140.57 819.25,-129.02"/>
<polygon fill="#63b8ff" stroke="#63b8ff" points="819.78,-125.56 809.28,-126.93 818.35,-132.41 819.78,-125.56"/>
</g>
<!-- Node28 -->
<g id="node28" class="node">
<title>Node28</title>
<g id="a_node28"><a xlink:title=" ">
<polygon fill="#e0e0e0" stroke="#999999" points="884.5,-129 827.5,-129 827.5,-110 884.5,-110 884.5,-129"/>
<text text-anchor="middle" x="856" y="-117" font-family="Helvetica,sans-Serif" font-size="10.00">ostream</text>
</a>
</g>
</g>
<!-- Node24&#45;&gt;Node28 -->
<g id="edge32" class="edge">
<title>Node24&#45;&gt;Node28</title>
<path fill="none" stroke="#63b8ff" d="M1061.11,-165C1021.01,-156.61 957.86,-143.29 894.44,-129.29"/>
<polygon fill="#63b8ff" stroke="#63b8ff" points="895.19,-125.88 884.67,-127.13 893.68,-132.71 895.19,-125.88"/>
</g>
<!-- Node29 -->
<g id="node29" class="node">
<title>Node29</title>
<g id="a_node29"><a xlink:title=" ">
<polygon fill="#e0e0e0" stroke="#999999" points="1132,-74 1070,-74 1070,-55 1132,-55 1132,-74"/>
<text text-anchor="middle" x="1101" y="-62" font-family="Helvetica,sans-Serif" font-size="10.00">wx/font.h</text>
</a>
</g>
</g>
<!-- Node24&#45;&gt;Node29 -->
<g id="edge34" class="edge">
<title>Node24&#45;&gt;Node29</title>
<path fill="none" stroke="#63b8ff" d="M1101.25,-164.98C1100.51,-156.03 1099.42,-141.54 1099,-129 1098.49,-113.98 1099.09,-96.95 1099.77,-84.32"/>
<polygon fill="#63b8ff" stroke="#63b8ff" points="1103.27,-84.32 1100.37,-74.13 1096.28,-83.9 1103.27,-84.32"/>
</g>
<!-- Node30 -->
<g id="node30" class="node">
<title>Node30</title>
<g id="a_node30"><a xlink:title=" ">
<polygon fill="#e0e0e0" stroke="#999999" points="1190,-129 1108,-129 1108,-110 1190,-110 1190,-129"/>
<text text-anchor="middle" x="1149" y="-117" font-family="Helvetica,sans-Serif" font-size="10.00">wx/settings.h</text>
</a>
</g>
</g>
<!-- Node24&#45;&gt;Node30 -->
<g id="edge35" class="edge">
<title>Node24&#45;&gt;Node30</title>
<path fill="none" stroke="#63b8ff" d="M1109.76,-164.75C1116.47,-157.18 1126.34,-146.05 1134.51,-136.84"/>
<polygon fill="#63b8ff" stroke="#63b8ff" points="1137.37,-138.89 1141.38,-129.09 1132.13,-134.25 1137.37,-138.89"/>
</g>
<!-- Node24&#45;&gt;Node31 -->
<g id="edge36" class="edge">
<title>Node24&#45;&gt;Node31</title>
<path fill="none" stroke="#63b8ff" d="M1145.13,-164.93C1165.12,-158.57 1187.05,-147.64 1199,-129 1208.4,-114.35 1198.97,-95.48 1189.31,-82.12"/>
<polygon fill="#63b8ff" stroke="#63b8ff" points="1192.05,-79.95 1183.12,-74.25 1186.54,-84.27 1192.05,-79.95"/>
</g>
<!-- Node32 -->
<g id="node32" class="node">
<title>Node32</title>
<g id="a_node32"><a xlink:title=" ">
<polygon fill="#e0e0e0" stroke="#999999" points="1122.5,-19 1057.5,-19 1057.5,0 1122.5,0 1122.5,-19"/>
<text text-anchor="middle" x="1090" y="-7" font-family="Helvetica,sans-Serif" font-size="10.00">functional</text>
</a>
</g>
</g>
<!-- Node24&#45;&gt;Node32 -->
<g id="edge37" class="edge">
<title>Node24&#45;&gt;Node32</title>
<path fill="none" stroke="#63b8ff" d="M1097.05,-164.81C1087.75,-147.96 1068,-109.37 1061,-74 1059.36,-65.72 1058.6,-63.09 1061,-55 1063.98,-44.98 1070,-35.11 1075.79,-27.22"/>
<polygon fill="#63b8ff" stroke="#63b8ff" points="1078.63,-29.28 1082.06,-19.25 1073.13,-24.95 1078.63,-29.28"/>
</g>
<!-- Node33 -->
<g id="node33" class="node">
<title>Node33</title>
<g id="a_node33"><a xlink:href="FontAttribs_8h_source.html" target="_top" xlink:title=" ">
<polygon fill="white" stroke="#666666" points="1363.5,-129 1284.5,-129 1284.5,-110 1363.5,-110 1363.5,-129"/>
<text text-anchor="middle" x="1324" y="-117" font-family="Helvetica,sans-Serif" font-size="10.00">FontAttribs.h</text>
</a>
</g>
</g>
<!-- Node24&#45;&gt;Node33 -->
<g id="edge38" class="edge">
<title>Node24&#45;&gt;Node33</title>
<path fill="none" stroke="#63b8ff" d="M1137.67,-164.98C1175.83,-155.87 1236.47,-141.4 1278.15,-131.45"/>
<polygon fill="#63b8ff" stroke="#63b8ff" points="1279.14,-134.81 1288.05,-129.08 1277.51,-128 1279.14,-134.81"/>
</g>
<!-- Node41 -->
<g id="node41" class="node">
<title>Node41</title>
<g id="a_node41"><a xlink:href="FontVariantCache_8h.html" target="_top" xlink:title="This file implements the wxFont cache system.">
<polygon fill="white" stroke="#666666" points="1013.5,-129 902.5,-129 902.5,-110 1013.5,-110 1013.5,-129"/>
<text text-anchor="middle" x="958" y="-117" font-family="Helvetica,sans-Serif" font-size="10.00">FontVariantCache.h</text>
</a>
</g>
</g>
<!-- Node24&#45;&gt;Node41 -->
<g id="edge51" class="edge">
<title>Node24&#45;&gt;Node41</title>
<path fill="none" stroke="#63b8ff" d="M1078.86,-164.98C1055.18,-156.27 1018.13,-142.63 991.29,-132.75"/>
<polygon fill="#63b8ff" stroke="#63b8ff" points="992.15,-129.34 981.56,-129.17 989.73,-135.91 992.15,-129.34"/>
</g>
<!-- Node24&#45;&gt;Node44 -->
<g id="edge59" class="edge">
<title>Node24&#45;&gt;Node44</title>
<path fill="none" stroke="#63b8ff" d="M1150.16,-169.61C1234.53,-162.45 1405.57,-146.34 1463,-129 1481.08,-123.54 1483.29,-116.56 1501,-110 1540.75,-95.27 1587.3,-83.78 1622.68,-76.17"/>
<polygon fill="#63b8ff" stroke="#63b8ff" points="1623.75,-79.52 1632.81,-74.03 1622.31,-72.67 1623.75,-79.52"/>
</g>
<!-- Node33&#45;&gt;Node3 -->
<g id="edge47" class="edge">
<title>Node33&#45;&gt;Node3</title>
<path fill="none" stroke="#63b8ff" d="M1284.33,-115.48C1259.77,-113.68 1227.56,-111.48 1199,-110 755.14,-86.98 638.38,-127.03 193.38,-73.93"/>
<polygon fill="#63b8ff" stroke="#63b8ff" points="193.49,-70.42 183.14,-72.7 192.65,-77.37 193.49,-70.42"/>
</g>
<!-- Node33&#45;&gt;Node29 -->
<g id="edge45" class="edge">
<title>Node33&#45;&gt;Node29</title>
<path fill="none" stroke="#63b8ff" d="M1288.17,-109.98C1248.25,-100.5 1183.82,-85.18 1141.94,-75.23"/>
<polygon fill="#63b8ff" stroke="#63b8ff" points="1142.6,-71.79 1132.06,-72.88 1140.98,-78.6 1142.6,-71.79"/>
</g>
<!-- Node33&#45;&gt;Node31 -->
<g id="edge48" class="edge">
<title>Node33&#45;&gt;Node31</title>
<path fill="none" stroke="#63b8ff" d="M1300.06,-109.98C1275.44,-101.23 1236.88,-87.51 1209.08,-77.62"/>
<polygon fill="#63b8ff" stroke="#63b8ff" points="1209.97,-74.22 1199.38,-74.17 1207.62,-80.82 1209.97,-74.22"/>
</g>
<!-- Node33&#45;&gt;Node32 -->
<g id="edge49" class="edge">
<title>Node33&#45;&gt;Node32</title>
<path fill="none" stroke="#63b8ff" d="M1308.93,-109.82C1282.5,-94.65 1228.68,-64.06 1209,-55 1181.82,-42.5 1150.04,-30.75 1126.16,-22.47"/>
<polygon fill="#63b8ff" stroke="#63b8ff" points="1127.04,-19.07 1116.45,-19.14 1124.77,-25.7 1127.04,-19.07"/>
</g>
<!-- Node34 -->
<g id="node34" class="node">
<title>Node34</title>
<g id="a_node34"><a xlink:href="EnumWrapper_8h_source.html" target="_top" xlink:title=" ">
<polygon fill="white" stroke="#666666" points="1350,-74 1256,-74 1256,-55 1350,-55 1350,-74"/>
<text text-anchor="middle" x="1303" y="-62" font-family="Helvetica,sans-Serif" font-size="10.00">EnumWrapper.h</text>
</a>
</g>
</g>
<!-- Node33&#45;&gt;Node34 -->
<g id="edge39" class="edge">
<title>Node33&#45;&gt;Node34</title>
<path fill="none" stroke="#63b8ff" d="M1320.53,-109.75C1317.72,-102.65 1313.66,-92.4 1310.15,-83.56"/>
<polygon fill="#63b8ff" stroke="#63b8ff" points="1313.34,-82.1 1306.4,-74.09 1306.83,-84.68 1313.34,-82.1"/>
</g>
<!-- Node37 -->
<g id="node37" class="node">
<title>Node37</title>
<g id="a_node37"><a xlink:href="clamp_8hpp_source.html" target="_top" xlink:title=" ">
<polygon fill="white" stroke="#666666" points="1613,-74 1527,-74 1527,-55 1613,-55 1613,-74"/>
<text text-anchor="middle" x="1570" y="-62" font-family="Helvetica,sans-Serif" font-size="10.00">stx/clamp.hpp</text>
</a>
</g>
</g>
<!-- Node33&#45;&gt;Node37 -->
<g id="edge43" class="edge">
<title>Node33&#45;&gt;Node37</title>
<path fill="none" stroke="#63b8ff" d="M1363.52,-109.98C1406.17,-100.8 1474.15,-86.15 1520.36,-76.19"/>
<polygon fill="#63b8ff" stroke="#63b8ff" points="1521.13,-79.61 1530.17,-74.08 1519.65,-72.77 1521.13,-79.61"/>
</g>
<!-- Node39 -->
<g id="node39" class="node">
<title>Node39</title>
<g id="a_node39"><a xlink:title=" ">
<polygon fill="#e0e0e0" stroke="#999999" points="1447.5,-74 1368.5,-74 1368.5,-55 1447.5,-55 1447.5,-74"/>
<text text-anchor="middle" x="1408" y="-62" font-family="Helvetica,sans-Serif" font-size="10.00">wx/version.h</text>
</a>
</g>
</g>
<!-- Node33&#45;&gt;Node39 -->
<g id="edge46" class="edge">
<title>Node33&#45;&gt;Node39</title>
<path fill="none" stroke="#63b8ff" d="M1337.5,-109.98C1350.4,-101.84 1370.1,-89.41 1385.4,-79.76"/>
<polygon fill="#63b8ff" stroke="#63b8ff" points="1387.67,-82.47 1394.26,-74.17 1383.93,-76.55 1387.67,-82.47"/>
</g>
<!-- Node40 -->
<g id="node40" class="node">
<title>Node40</title>
<g id="a_node40"><a xlink:title=" ">
<polygon fill="#e0e0e0" stroke="#999999" points="1509,-74 1465,-74 1465,-55 1509,-55 1509,-74"/>
<text text-anchor="middle" x="1487" y="-62" font-family="Helvetica,sans-Serif" font-size="10.00">limits</text>
</a>
</g>
</g>
<!-- Node33&#45;&gt;Node40 -->
<g id="edge50" class="edge">
<title>Node33&#45;&gt;Node40</title>
<path fill="none" stroke="#63b8ff" d="M1350.19,-109.98C1378.73,-100.7 1424.41,-85.85 1455.04,-75.89"/>
<polygon fill="#63b8ff" stroke="#63b8ff" points="1456.38,-79.14 1464.8,-72.72 1454.21,-72.48 1456.38,-79.14"/>
</g>
<!-- Node34&#45;&gt;Node32 -->
<g id="edge41" class="edge">
<title>Node34&#45;&gt;Node32</title>
<path fill="none" stroke="#63b8ff" d="M1268.78,-54.98C1231.7,-45.76 1172.5,-31.03 1132.47,-21.07"/>
<polygon fill="#63b8ff" stroke="#63b8ff" points="1133.29,-17.66 1122.74,-18.65 1131.6,-24.46 1133.29,-17.66"/>
</g>
<!-- Node35 -->
<g id="node35" class="node">
<title>Node35</title>
<g id="a_node35"><a xlink:title=" ">
<polygon fill="#e0e0e0" stroke="#999999" points="1368.5,-19 1315.5,-19 1315.5,0 1368.5,0 1368.5,-19"/>
<text text-anchor="middle" x="1342" y="-7" font-family="Helvetica,sans-Serif" font-size="10.00">cstddef</text>
</a>
</g>
</g>
<!-- Node34&#45;&gt;Node35 -->
<g id="edge40" class="edge">
<title>Node34&#45;&gt;Node35</title>
<path fill="none" stroke="#63b8ff" d="M1309.44,-54.75C1314.89,-47.34 1322.86,-36.5 1329.56,-27.41"/>
<polygon fill="#63b8ff" stroke="#63b8ff" points="1332.57,-29.22 1335.68,-19.09 1326.93,-25.07 1332.57,-29.22"/>
</g>
<!-- Node36 -->
<g id="node36" class="node">
<title>Node36</title>
<g id="a_node36"><a xlink:title=" ">
<polygon fill="#e0e0e0" stroke="#999999" points="1297.5,-19 1228.5,-19 1228.5,0 1297.5,0 1297.5,-19"/>
<text text-anchor="middle" x="1263" y="-7" font-family="Helvetica,sans-Serif" font-size="10.00">type_traits</text>
</a>
</g>
</g>
<!-- Node34&#45;&gt;Node36 -->
<g id="edge42" class="edge">
<title>Node34&#45;&gt;Node36</title>
<path fill="none" stroke="#63b8ff" d="M1296.39,-54.75C1290.74,-47.26 1282.46,-36.28 1275.55,-27.13"/>
<polygon fill="#63b8ff" stroke="#63b8ff" points="1278.3,-24.96 1269.48,-19.09 1272.71,-29.18 1278.3,-24.96"/>
</g>
<!-- Node38 -->
<g id="node38" class="node">
<title>Node38</title>
<g id="a_node38"><a xlink:title=" ">
<polygon fill="#e0e0e0" stroke="#999999" points="1596,-19 1544,-19 1544,0 1596,0 1596,-19"/>
<text text-anchor="middle" x="1570" y="-7" font-family="Helvetica,sans-Serif" font-size="10.00">cassert</text>
</a>
</g>
</g>
<!-- Node37&#45;&gt;Node38 -->
<g id="edge44" class="edge">
<title>Node37&#45;&gt;Node38</title>
<path fill="none" stroke="#63b8ff" d="M1570,-54.75C1570,-47.8 1570,-37.85 1570,-29.13"/>
<polygon fill="#63b8ff" stroke="#63b8ff" points="1573.5,-29.09 1570,-19.09 1566.5,-29.09 1573.5,-29.09"/>
</g>
<!-- Node41&#45;&gt;Node4 -->
<g id="edge53" class="edge">
<title>Node41&#45;&gt;Node4</title>
<path fill="none" stroke="#63b8ff" d="M902.36,-110.96C899.2,-110.61 896.06,-110.29 893,-110 623.07,-84.41 553.57,-103.11 284,-74 279.18,-73.48 274.14,-72.83 269.15,-72.12"/>
<polygon fill="#63b8ff" stroke="#63b8ff" points="269.49,-68.63 259.08,-70.61 268.45,-75.55 269.49,-68.63"/>
</g>
<!-- Node41&#45;&gt;Node16 -->
<g id="edge52" class="edge">
<title>Node41&#45;&gt;Node16</title>
<path fill="none" stroke="#63b8ff" d="M902.35,-111.03C899.19,-110.67 896.06,-110.32 893,-110 699.06,-89.71 466.85,-74.2 371.34,-68.21"/>
<polygon fill="#63b8ff" stroke="#63b8ff" points="371.39,-64.7 361.19,-67.57 370.95,-71.69 371.39,-64.7"/>
</g>
<!-- Node41&#45;&gt;Node29 -->
<g id="edge54" class="edge">
<title>Node41&#45;&gt;Node29</title>
<path fill="none" stroke="#63b8ff" d="M980.98,-109.98C1004.5,-101.27 1041.29,-87.63 1067.94,-77.75"/>
<polygon fill="#63b8ff" stroke="#63b8ff" points="1069.45,-80.93 1077.61,-74.17 1067.01,-74.36 1069.45,-80.93"/>
</g>
<!-- Node41&#45;&gt;Node32 -->
<g id="edge55" class="edge">
<title>Node41&#45;&gt;Node32</title>
<path fill="none" stroke="#63b8ff" d="M955.24,-109.72C951.66,-96.47 947.19,-71.22 959,-55 979.05,-27.47 1017.07,-16.79 1047.01,-12.73"/>
<polygon fill="#63b8ff" stroke="#63b8ff" points="1047.69,-16.18 1057.22,-11.56 1046.89,-9.22 1047.69,-16.18"/>
</g>
<!-- Node41&#45;&gt;Node42 -->
<g id="edge56" class="edge">
<title>Node41&#45;&gt;Node42</title>
<path fill="none" stroke="#63b8ff" d="M920.4,-109.98C872.63,-99.16 791.4,-80.77 749.98,-71.38"/>
<polygon fill="#63b8ff" stroke="#63b8ff" points="750.64,-67.94 740.11,-69.15 749.09,-74.77 750.64,-67.94"/>
</g>
<!-- Node43 -->
<g id="node43" class="node">
<title>Node43</title>
<g id="a_node43"><a xlink:title=" ">
<polygon fill="#e0e0e0" stroke="#999999" points="1013.5,-74 968.5,-74 968.5,-55 1013.5,-55 1013.5,-74"/>
<text text-anchor="middle" x="991" y="-62" font-family="Helvetica,sans-Serif" font-size="10.00">utility</text>
</a>
</g>
</g>
<!-- Node41&#45;&gt;Node43 -->
<g id="edge57" class="edge">
<title>Node41&#45;&gt;Node43</title>
<path fill="none" stroke="#63b8ff" d="M963.45,-109.75C968.01,-102.42 974.67,-91.73 980.29,-82.7"/>
<polygon fill="#63b8ff" stroke="#63b8ff" points="983.34,-84.43 985.65,-74.09 977.4,-80.73 983.34,-84.43"/>
</g>
<!-- Node41&#45;&gt;Node44 -->
<g id="edge58" class="edge">
<title>Node41&#45;&gt;Node44</title>
<path fill="none" stroke="#63b8ff" d="M1013.51,-115.05C1156.12,-106.14 1529.95,-82.56 1621.17,-73.91"/>
<polygon fill="#63b8ff" stroke="#63b8ff" points="1621.69,-77.38 1631.29,-72.89 1620.99,-70.42 1621.69,-77.38"/>
</g>
</g>
</svg>
        <g id="navigator" transform="translate(0 0)" fill="#404254">
                <rect fill="#f2f5e9" fill-opacity="0.5" stroke="#606060" stroke-width=".5" x="0" y="0" width="60" height="60"/>
                <use id="zoomplus" xlink:href="#zoomPlus" x="17" y="9" onmousedown="handleZoom(evt,'in')"/>
                <use id="zoomminus" xlink:href="#zoomMin" x="42" y="9" onmousedown="handleZoom(evt,'out')"/>
                <use id="reset" xlink:href="#resetDef" x="30" y="36" onmousedown="handleReset()"/>
                <g id="arrowUp" xlink:href="#dirArrow" transform="translate(30 24)" onmousedown="handlePan(0,-1)">
                  <use xlink:href="#rim" fill="#404040">
                        <set attributeName="fill" to="#808080" begin="arrowUp.mouseover" end="arrowUp.mouseout"/>
                  </use>
                  <path fill="none" stroke="white" stroke-width="1.5" d="M0,-3.0v7 M-2.5,-0.5L0,-3.0L2.5,-0.5"/>
                </g>
                <g id="arrowRight" xlink:href="#dirArrow" transform="rotate(90) translate(36 -43)" onmousedown="handlePan(1,0)">
                  <use xlink:href="#rim" fill="#404040">
                        <set attributeName="fill" to="#808080" begin="arrowRight.mouseover" end="arrowRight.mouseout"/>
                  </use>
                  <path fill="none" stroke="white" stroke-width="1.5" d="M0,-3.0v7 M-2.5,-0.5L0,-3.0L2.5,-0.5"/>
                </g>
                <g id="arrowDown" xlink:href="#dirArrow" transform="rotate(180) translate(-30 -48)" onmousedown="handlePan(0,1)">
                  <use xlink:href="#rim" fill="#404040">
                        <set attributeName="fill" to="#808080" begin="arrowDown.mouseover" end="arrowDown.mouseout"/>
                  </use>
                  <path fill="none" stroke="white" stroke-width="1.5" d="M0,-3.0v7 M-2.5,-0.5L0,-3.0L2.5,-0.5"/>
                </g>
                <g id="arrowLeft" xlink:href="#dirArrow" transform="rotate(270) translate(-36 17)" onmousedown="handlePan(-1,0)">
                  <use xlink:href="#rim" fill="#404040">
                        <set attributeName="fill" to="#808080" begin="arrowLeft.mouseover" end="arrowLeft.mouseout"/>
                  </use>
                  <path fill="none" stroke="white" stroke-width="1.5" d="M0,-3.0v7 M-2.5,-0.5L0,-3.0L2.5,-0.5"/>
                </g>
        </g>
        <svg viewBox="0 0 15 15" width="100%" height="30px" preserveAspectRatio="xMaxYMin meet">
         <g id="arrow_out" transform="scale(0.3 0.3)">
          <a xlink:href="Autocomplete_8h__incl_org.svg" target="_base">
           <rect id="button" ry="5" rx="5" y="6" x="6" height="38" width="38"
                fill="#f2f5e9" fill-opacity="0.5" stroke="#606060" stroke-width="1.0"/>
           <path id="arrow"
             d="M 11.500037,31.436501 C 11.940474,20.09759 22.043105,11.32322 32.158766,21.979434 L 37.068811,17.246167 C 37.068811,17.246167 37.088388,32 37.088388,32 L 22.160133,31.978069 C 22.160133,31.978069 26.997745,27.140456 26.997745,27.140456 C 18.528582,18.264221 13.291696,25.230495 11.500037,31.436501 z"
             style="fill:#404040;"/>
          </a>
         </g>
        </svg>
</svg>
