<?xml version="1.0" encoding="UTF-8" standalone="no"?>
<!DOCTYPE svg PUBLIC "-//W3C//DTD SVG 1.1//EN"
 "http://www.w3.org/Graphics/SVG/1.1/DTD/svg11.dtd">
<!-- Generated by graphviz version 2.43.0 (0)
 -->
<!-- Title: src/Autocomplete.h Pages: 1 -->
<svg width="917pt" height="364pt"
 viewBox="0.00 0.00 916.50 364.00" xmlns="http://www.w3.org/2000/svg" xmlns:xlink="http://www.w3.org/1999/xlink">
<g id="graph0" class="graph" transform="scale(1 1) rotate(0) translate(4 360)">
<title>src/Autocomplete.h</title>
<polygon fill="white" stroke="transparent" points="-4,4 -4,-360 912.5,-360 912.5,4 -4,4"/>
<!-- Node1 -->
<g id="node1" class="node">
<title>Node1</title>
<g id="a_node1"><a xlink:title="This file declares the class AutoComplete.">
<polygon fill="#bfbfbf" stroke="black" points="517.5,-336.5 517.5,-355.5 628.5,-355.5 628.5,-336.5 517.5,-336.5"/>
<text text-anchor="middle" x="573" y="-343.5" font-family="Helvetica,sans-Serif" font-size="10.00">src/Autocomplete.h</text>
</a>
</g>
</g>
<!-- Node2 -->
<g id="node2" class="node">
<title>Node2</title>
<g id="a_node2"><a xlink:href="Autocomplete_8cpp.html" target="_top" xlink:title="This file defines the class AutoComplete.">
<polygon fill="white" stroke="black" points="313,-280.5 313,-299.5 435,-299.5 435,-280.5 313,-280.5"/>
<text text-anchor="middle" x="374" y="-287.5" font-family="Helvetica,sans-Serif" font-size="10.00">src/Autocomplete.cpp</text>
</a>
</g>
</g>
<!-- Node1&#45;&gt;Node2 -->
<g id="edge1" class="edge">
<title>Node1&#45;&gt;Node2</title>
<path fill="none" stroke="midnightblue" d="M531.35,-333.7C493.79,-323.51 439.39,-308.74 405.38,-299.52"/>
<polygon fill="midnightblue" stroke="midnightblue" points="530.9,-337.2 541.47,-336.44 532.73,-330.45 530.9,-337.2"/>
</g>
<!-- Node3 -->
<g id="node3" class="node">
<title>Node3</title>
<g id="a_node3"><a xlink:href="AutocompletePopup_8h.html" target="_top" xlink:title="The first number that is open for dynamic ID assignment.">
<polygon fill="white" stroke="black" points="453.5,-280.5 453.5,-299.5 594.5,-299.5 594.5,-280.5 453.5,-280.5"/>
<text text-anchor="middle" x="524" y="-287.5" font-family="Helvetica,sans-Serif" font-size="10.00">src/AutocompletePopup.h</text>
</a>
</g>
</g>
<!-- Node1&#45;&gt;Node3 -->
<g id="edge2" class="edge">
<title>Node1&#45;&gt;Node3</title>
<path fill="none" stroke="midnightblue" d="M557.97,-328.43C549.38,-318.97 538.96,-307.48 531.94,-299.75"/>
<polygon fill="midnightblue" stroke="midnightblue" points="555.6,-331.03 564.91,-336.08 560.78,-326.33 555.6,-331.03"/>
</g>
<!-- Node5 -->
<g id="node5" class="node">
<title>Node5</title>
<g id="a_node5"><a xlink:href="Worksheet_8h.html" target="_top" xlink:title="This file defines the class Worksheet.">
<polygon fill="white" stroke="black" points="575.5,-224.5 575.5,-243.5 670.5,-243.5 670.5,-224.5 575.5,-224.5"/>
<text text-anchor="middle" x="623" y="-231.5" font-family="Helvetica,sans-Serif" font-size="10.00">src/Worksheet.h</text>
</a>
</g>
</g>
<!-- Node1&#45;&gt;Node5 -->
<g id="edge27" class="edge">
<title>Node1&#45;&gt;Node5</title>
<path fill="none" stroke="midnightblue" d="M585.87,-328.23C591.7,-320.04 598.32,-309.86 603,-300 612.11,-280.8 618.3,-256.47 621.17,-243.71"/>
<polygon fill="midnightblue" stroke="midnightblue" points="582.9,-326.36 579.77,-336.49 588.53,-330.52 582.9,-326.36"/>
</g>
<!-- Node18 -->
<g id="node18" class="node">
<title>Node18</title>
<g id="a_node18"><a xlink:href="Autocomplete__Builtins_8cpp.html" target="_top" xlink:title="This file tells wxMaxima about known builtin commands of maxima.">
<polygon fill="white" stroke="black" points="651,-280.5 651,-299.5 815,-299.5 815,-280.5 651,-280.5"/>
<text text-anchor="middle" x="733" y="-287.5" font-family="Helvetica,sans-Serif" font-size="10.00">src/Autocomplete_Builtins.cpp</text>
</a>
</g>
</g>
<!-- Node1&#45;&gt;Node18 -->
<g id="edge26" class="edge">
<title>Node1&#45;&gt;Node18</title>
<path fill="none" stroke="midnightblue" d="M608.05,-333.17C638.17,-323 680.9,-308.59 707.77,-299.52"/>
<polygon fill="midnightblue" stroke="midnightblue" points="606.71,-329.93 598.35,-336.44 608.95,-336.56 606.71,-329.93"/>
</g>
<!-- Node4 -->
<g id="node4" class="node">
<title>Node4</title>
<g id="a_node4"><a xlink:href="AutocompletePopup_8cpp.html" target="_top" xlink:title="This file defines the class AutocompletePopup.">
<polygon fill="white" stroke="black" points="0,-112.5 0,-131.5 152,-131.5 152,-112.5 0,-112.5"/>
<text text-anchor="middle" x="76" y="-119.5" font-family="Helvetica,sans-Serif" font-size="10.00">src/AutocompletePopup.cpp</text>
</a>
</g>
</g>
<!-- Node3&#45;&gt;Node4 -->
<g id="edge3" class="edge">
<title>Node3&#45;&gt;Node4</title>
<path fill="none" stroke="midnightblue" d="M491.32,-276.89C405.1,-244.94 173.01,-158.94 99,-131.52"/>
<polygon fill="midnightblue" stroke="midnightblue" points="490.26,-280.23 500.86,-280.42 492.7,-273.67 490.26,-280.23"/>
</g>
<!-- Node3&#45;&gt;Node5 -->
<g id="edge4" class="edge">
<title>Node3&#45;&gt;Node5</title>
<path fill="none" stroke="midnightblue" d="M548.84,-275.45C567.11,-265.48 591.42,-252.23 607.13,-243.65"/>
<polygon fill="midnightblue" stroke="midnightblue" points="547.01,-272.46 539.91,-280.32 550.36,-278.61 547.01,-272.46"/>
</g>
<!-- Node6 -->
<g id="node6" class="node">
<title>Node6</title>
<g id="a_node6"><a xlink:href="ConfigDialogue_8h.html" target="_top" xlink:title="The configuration dialog.">
<polygon fill="white" stroke="black" points="791.5,-56.5 791.5,-75.5 908.5,-75.5 908.5,-56.5 791.5,-56.5"/>
<text text-anchor="middle" x="850" y="-63.5" font-family="Helvetica,sans-Serif" font-size="10.00">src/ConfigDialogue.h</text>
</a>
</g>
</g>
<!-- Node5&#45;&gt;Node6 -->
<g id="edge5" class="edge">
<title>Node5&#45;&gt;Node6</title>
<path fill="none" stroke="midnightblue" d="M659.83,-221.1C680.8,-213.4 706.99,-202.16 728,-188 778.46,-153.99 825.97,-97.35 843.19,-75.74"/>
<polygon fill="midnightblue" stroke="midnightblue" points="658.55,-217.84 650.3,-224.49 660.89,-224.43 658.55,-217.84"/>
</g>
<!-- Node9 -->
<g id="node9" class="node">
<title>Node9</title>
<g id="a_node9"><a xlink:href="Printout_8cpp.html" target="_top" xlink:title="This file defines the class MathPrintOut.">
<polygon fill="white" stroke="black" points="545.5,-168.5 545.5,-187.5 700.5,-187.5 700.5,-168.5 545.5,-168.5"/>
<text text-anchor="middle" x="623" y="-175.5" font-family="Helvetica,sans-Serif" font-size="10.00">src/graphical_io/Printout.cpp</text>
</a>
</g>
</g>
<!-- Node5&#45;&gt;Node9 -->
<g id="edge8" class="edge">
<title>Node5&#45;&gt;Node9</title>
<path fill="none" stroke="midnightblue" d="M623,-213.8C623,-204.91 623,-194.78 623,-187.75"/>
<polygon fill="midnightblue" stroke="midnightblue" points="619.5,-214.08 623,-224.08 626.5,-214.08 619.5,-214.08"/>
</g>
<!-- Node10 -->
<g id="node10" class="node">
<title>Node10</title>
<g id="a_node10"><a xlink:href="Worksheet_8cpp.html" target="_top" xlink:title="This file defines the class Worksheet.">
<polygon fill="white" stroke="black" points="667,-56.5 667,-75.5 773,-75.5 773,-56.5 667,-56.5"/>
<text text-anchor="middle" x="720" y="-63.5" font-family="Helvetica,sans-Serif" font-size="10.00">src/Worksheet.cpp</text>
</a>
</g>
</g>
<!-- Node5&#45;&gt;Node10 -->
<g id="edge9" class="edge">
<title>Node5&#45;&gt;Node10</title>
<path fill="none" stroke="midnightblue" d="M665.17,-220.72C681.52,-213.79 698.74,-203.34 709,-188 732.93,-152.24 725.71,-96.63 721.78,-75.52"/>
<polygon fill="midnightblue" stroke="midnightblue" points="663.75,-217.52 655.71,-224.41 666.3,-224.04 663.75,-217.52"/>
</g>
<!-- Node11 -->
<g id="node11" class="node">
<title>Node11</title>
<g id="a_node11"><a xlink:href="wxMaximaFrame_8h.html" target="_top" xlink:title="This file declares the class wxMaximaFrame.">
<polygon fill="white" stroke="black" points="399,-168.5 399,-187.5 527,-187.5 527,-168.5 399,-168.5"/>
<text text-anchor="middle" x="463" y="-175.5" font-family="Helvetica,sans-Serif" font-size="10.00">src/wxMaximaFrame.h</text>
</a>
</g>
</g>
<!-- Node5&#45;&gt;Node11 -->
<g id="edge10" class="edge">
<title>Node5&#45;&gt;Node11</title>
<path fill="none" stroke="midnightblue" d="M587.95,-221.17C557.83,-211 515.1,-196.59 488.23,-187.52"/>
<polygon fill="midnightblue" stroke="midnightblue" points="587.05,-224.56 597.65,-224.44 589.29,-217.93 587.05,-224.56"/>
</g>
<!-- Node7 -->
<g id="node7" class="node">
<title>Node7</title>
<g id="a_node7"><a xlink:href="main_8cpp.html" target="_top" xlink:title="The file that defines the starting point of the program.">
<polygon fill="white" stroke="black" points="524.5,-0.5 524.5,-19.5 603.5,-19.5 603.5,-0.5 524.5,-0.5"/>
<text text-anchor="middle" x="564" y="-7.5" font-family="Helvetica,sans-Serif" font-size="10.00">src/main.cpp</text>
</a>
</g>
</g>
<!-- Node6&#45;&gt;Node7 -->
<g id="edge6" class="edge">
<title>Node6&#45;&gt;Node7</title>
<path fill="none" stroke="midnightblue" d="M794.57,-54.53C738.48,-43.94 653.18,-27.84 603.58,-18.47"/>
<polygon fill="midnightblue" stroke="midnightblue" points="794.21,-58.03 804.68,-56.44 795.51,-51.15 794.21,-58.03"/>
</g>
<!-- Node8 -->
<g id="node8" class="node">
<title>Node8</title>
<g id="a_node8"><a xlink:href="wxMaxima_8cpp.html" target="_top" xlink:title="This file defines the contents of the class wxMaxima that contains most of the program&#39;s logic.">
<polygon fill="white" stroke="black" points="622,-0.5 622,-19.5 730,-19.5 730,-0.5 622,-0.5"/>
<text text-anchor="middle" x="676" y="-7.5" font-family="Helvetica,sans-Serif" font-size="10.00">src/wxMaxima.cpp</text>
</a>
</g>
</g>
<!-- Node6&#45;&gt;Node8 -->
<g id="edge7" class="edge">
<title>Node6&#45;&gt;Node8</title>
<path fill="none" stroke="midnightblue" d="M812.74,-53.44C779.93,-43.26 732.92,-28.66 703.44,-19.52"/>
<polygon fill="midnightblue" stroke="midnightblue" points="811.84,-56.82 822.43,-56.44 813.92,-50.14 811.84,-56.82"/>
</g>
<!-- Node11&#45;&gt;Node4 -->
<g id="edge11" class="edge">
<title>Node11&#45;&gt;Node4</title>
<path fill="none" stroke="midnightblue" d="M391.63,-167.04C318.54,-156.84 206.12,-141.16 137.03,-131.52"/>
<polygon fill="midnightblue" stroke="midnightblue" points="391.29,-170.53 401.68,-168.44 392.26,-163.6 391.29,-170.53"/>
</g>
<!-- Node11&#45;&gt;Node10 -->
<g id="edge18" class="edge">
<title>Node11&#45;&gt;Node10</title>
<path fill="none" stroke="midnightblue" d="M522.33,-166.65C569.65,-157.73 631.59,-144.38 654,-132 680.19,-117.54 703.16,-89.78 713.77,-75.68"/>
<polygon fill="midnightblue" stroke="midnightblue" points="521.66,-163.22 512.47,-168.49 522.94,-170.1 521.66,-163.22"/>
</g>
<!-- Node12 -->
<g id="node12" class="node">
<title>Node12</title>
<g id="a_node12"><a xlink:href="EditorCell_8cpp.html" target="_top" xlink:title="This file defines the class EditorCell.">
<polygon fill="white" stroke="black" points="445.5,-56.5 445.5,-75.5 572.5,-75.5 572.5,-56.5 445.5,-56.5"/>
<text text-anchor="middle" x="509" y="-63.5" font-family="Helvetica,sans-Serif" font-size="10.00">src/cells/EditorCell.cpp</text>
</a>
</g>
</g>
<!-- Node11&#45;&gt;Node12 -->
<g id="edge12" class="edge">
<title>Node11&#45;&gt;Node12</title>
<path fill="none" stroke="midnightblue" d="M474.2,-159.74C479.18,-151.56 484.85,-141.51 489,-132 497.49,-112.52 503.93,-88.3 507,-75.63"/>
<polygon fill="midnightblue" stroke="midnightblue" points="471.15,-158.02 468.79,-168.34 477.08,-161.74 471.15,-158.02"/>
</g>
<!-- Node13 -->
<g id="node13" class="node">
<title>Node13</title>
<g id="a_node13"><a xlink:href="GreekSidebar_8cpp.html" target="_top" xlink:title="This file defines the class GreekSidebar.">
<polygon fill="white" stroke="black" points="170.5,-112.5 170.5,-131.5 289.5,-131.5 289.5,-112.5 170.5,-112.5"/>
<text text-anchor="middle" x="230" y="-119.5" font-family="Helvetica,sans-Serif" font-size="10.00">src/GreekSidebar.cpp</text>
</a>
</g>
</g>
<!-- Node11&#45;&gt;Node13 -->
<g id="edge13" class="edge">
<title>Node11&#45;&gt;Node13</title>
<path fill="none" stroke="midnightblue" d="M416.2,-166.15C372.17,-155.95 307.15,-140.88 266.75,-131.52"/>
<polygon fill="midnightblue" stroke="midnightblue" points="415.55,-169.6 426.08,-168.44 417.13,-162.78 415.55,-169.6"/>
</g>
<!-- Node14 -->
<g id="node14" class="node">
<title>Node14</title>
<g id="a_node14"><a xlink:href="main_8h.html" target="_top" xlink:title="This file declares the class wxMaxima that contains most of the program&#39;s logic.">
<polygon fill="white" stroke="black" points="359,-56.5 359,-75.5 427,-75.5 427,-56.5 359,-56.5"/>
<text text-anchor="middle" x="393" y="-63.5" font-family="Helvetica,sans-Serif" font-size="10.00">src/main.h</text>
</a>
</g>
</g>
<!-- Node11&#45;&gt;Node14 -->
<g id="edge14" class="edge">
<title>Node11&#45;&gt;Node14</title>
<path fill="none" stroke="midnightblue" d="M464.53,-158.14C464.77,-144.43 463.21,-125.93 455,-112 445.14,-95.27 426.36,-82.99 412.04,-75.52"/>
<polygon fill="midnightblue" stroke="midnightblue" points="461.03,-158.15 464.02,-168.31 468.02,-158.5 461.03,-158.15"/>
</g>
<!-- Node16 -->
<g id="node16" class="node">
<title>Node16</title>
<g id="a_node16"><a xlink:href="wxMaxima_8h.html" target="_top" xlink:title="This file declares the class wxMaxima that contains most of the program&#39;s logic.">
<polygon fill="white" stroke="black" points="548.5,-112.5 548.5,-131.5 645.5,-131.5 645.5,-112.5 548.5,-112.5"/>
<text text-anchor="middle" x="597" y="-119.5" font-family="Helvetica,sans-Serif" font-size="10.00">src/wxMaxima.h</text>
</a>
</g>
</g>
<!-- Node11&#45;&gt;Node16 -->
<g id="edge19" class="edge">
<title>Node11&#45;&gt;Node16</title>
<path fill="none" stroke="midnightblue" d="M493.68,-164.64C518.82,-154.5 553.75,-140.43 575.87,-131.52"/>
<polygon fill="midnightblue" stroke="midnightblue" points="492.2,-161.46 484.23,-168.44 494.82,-167.95 492.2,-161.46"/>
</g>
<!-- Node17 -->
<g id="node17" class="node">
<title>Node17</title>
<g id="a_node17"><a xlink:href="wxMaximaFrame_8cpp.html" target="_top" xlink:title="This file defines the class wxMaximaFrame.">
<polygon fill="white" stroke="black" points="307.5,-112.5 307.5,-131.5 446.5,-131.5 446.5,-112.5 307.5,-112.5"/>
<text text-anchor="middle" x="377" y="-119.5" font-family="Helvetica,sans-Serif" font-size="10.00">src/wxMaximaFrame.cpp</text>
</a>
</g>
</g>
<!-- Node11&#45;&gt;Node17 -->
<g id="edge25" class="edge">
<title>Node11&#45;&gt;Node17</title>
<path fill="none" stroke="midnightblue" d="M440.55,-162.9C424.78,-153 404.19,-140.07 390.78,-131.65"/>
<polygon fill="midnightblue" stroke="midnightblue" points="438.85,-165.97 449.18,-168.32 442.57,-160.04 438.85,-165.97"/>
</g>
<!-- Node14&#45;&gt;Node7 -->
<g id="edge15" class="edge">
<title>Node14&#45;&gt;Node7</title>
<path fill="none" stroke="midnightblue" d="M430.04,-53.3C462.26,-43.13 508.19,-28.62 537.03,-19.52"/>
<polygon fill="midnightblue" stroke="midnightblue" points="428.58,-50.09 420.1,-56.44 430.69,-56.77 428.58,-50.09"/>
</g>
<!-- Node14&#45;&gt;Node8 -->
<g id="edge17" class="edge">
<title>Node14&#45;&gt;Node8</title>
<path fill="none" stroke="midnightblue" d="M437.46,-55.74C509.87,-41.44 582.79,-27.95 629.04,-19.5"/>
<polygon fill="midnightblue" stroke="midnightblue" points="436.38,-52.39 427.25,-57.76 437.74,-59.25 436.38,-52.39"/>
</g>
<!-- Node15 -->
<g id="node15" class="node">
<title>Node15</title>
<g id="a_node15"><a xlink:href="MaximaManual_8cpp.html" target="_top" xlink:title="This file defines the class MaximaManual.">
<polygon fill="white" stroke="black" points="328,-0.5 328,-19.5 458,-19.5 458,-0.5 328,-0.5"/>
<text text-anchor="middle" x="393" y="-7.5" font-family="Helvetica,sans-Serif" font-size="10.00">src/MaximaManual.cpp</text>
</a>
</g>
</g>
<!-- Node14&#45;&gt;Node15 -->
<g id="edge16" class="edge">
<title>Node14&#45;&gt;Node15</title>
<path fill="none" stroke="midnightblue" d="M393,-45.8C393,-36.91 393,-26.78 393,-19.75"/>
<polygon fill="midnightblue" stroke="midnightblue" points="389.5,-46.08 393,-56.08 396.5,-46.08 389.5,-46.08"/>
</g>
<!-- Node16&#45;&gt;Node7 -->
<g id="edge22" class="edge">
<title>Node16&#45;&gt;Node7</title>
<path fill="none" stroke="midnightblue" d="M593.05,-102.41C590.11,-89.32 585.8,-71.45 581,-56 576.99,-43.08 571.24,-28.49 567.57,-19.52"/>
<polygon fill="midnightblue" stroke="midnightblue" points="589.7,-103.47 595.25,-112.5 596.54,-101.98 589.7,-103.47"/>
</g>
<!-- Node16&#45;&gt;Node8 -->
<g id="edge24" class="edge">
<title>Node16&#45;&gt;Node8</title>
<path fill="none" stroke="midnightblue" d="M609.24,-103.96C626.36,-80.12 656.82,-37.71 669.83,-19.59"/>
<polygon fill="midnightblue" stroke="midnightblue" points="606.19,-102.2 603.2,-112.37 611.88,-106.29 606.19,-102.2"/>
</g>
<!-- Node16&#45;&gt;Node10 -->
<g id="edge23" class="edge">
<title>Node16&#45;&gt;Node10</title>
<path fill="none" stroke="midnightblue" d="M625.77,-108.37C648.81,-98.26 680.48,-84.35 700.6,-75.52"/>
<polygon fill="midnightblue" stroke="midnightblue" points="624.24,-105.22 616.49,-112.44 627.05,-111.63 624.24,-105.22"/>
</g>
<!-- Node16&#45;&gt;Node12 -->
<g id="edge20" class="edge">
<title>Node16&#45;&gt;Node12</title>
<path fill="none" stroke="midnightblue" d="M574.02,-106.9C557.89,-97 536.82,-84.07 523.1,-75.65"/>
<polygon fill="midnightblue" stroke="midnightblue" points="572.51,-110.08 582.86,-112.32 576.17,-104.11 572.51,-110.08"/>
</g>
<!-- Node16&#45;&gt;Node14 -->
<g id="edge21" class="edge">
<title>Node16&#45;&gt;Node14</title>
<path fill="none" stroke="midnightblue" d="M554.8,-109.83C516.28,-99.63 460.18,-84.78 425.17,-75.52"/>
<polygon fill="midnightblue" stroke="midnightblue" points="554.11,-113.27 564.68,-112.44 555.9,-106.5 554.11,-113.27"/>
</g>
</g>
</svg>
