<?xml version="1.0" encoding="UTF-8" standalone="no"?>
<!DOCTYPE svg PUBLIC "-//W3C//DTD SVG 1.1//EN"
 "http://www.w3.org/Graphics/SVG/1.1/DTD/svg11.dtd">
<!-- Generated by graphviz version 2.43.0 (0)
 -->
<!-- Title: src/AutocompletePopup.h Pages: 1 -->
<!--zoomable 313 -->
<svg id="main" version="1.1" xmlns="http://www.w3.org/2000/svg" xmlns:xlink="http://www.w3.org/1999/xlink" xml:space="preserve" onload="init(evt)">
<style type="text/css"><![CDATA[
.edge:hover path { stroke: red; }
.edge:hover polygon { stroke: red; fill: red; }
]]></style>
<script type="text/javascript"><![CDATA[
var edges = document.getElementsByTagName('g');
if (edges && edges.length) {
  for (var i=0;i<edges.length;i++) {
    if (edges[i].id.substr(0,4)=='edge') {
      edges[i].setAttribute('class','edge');
    }
  }
}
]]></script>
        <defs>
                <circle id="rim" cx="0" cy="0" r="7"/>
                <circle id="rim2" cx="0" cy="0" r="3.5"/>
                <g id="zoomPlus">
                        <use xlink:href="#rim" fill="#404040">
                                <set attributeName="fill" to="#808080" begin="zoomplus.mouseover" end="zoomplus.mouseout"/>
                        </use>
                        <path d="M-4,0h8M0,-4v8" fill="none" stroke="white" stroke-width="1.5" pointer-events="none"/>
                </g>
                <g id="zoomMin">
                        <use xlink:href="#rim" fill="#404040">
                                <set attributeName="fill" to="#808080" begin="zoomminus.mouseover" end="zoomminus.mouseout"/>
                        </use>
                        <path d="M-4,0h8" fill="none" stroke="white" stroke-width="1.5" pointer-events="none"/>
                </g>
                <g id="dirArrow">
                        <path fill="none" stroke="white" stroke-width="1.5" d="M0,-3.0v7 M-2.5,-0.5L0,-3.0L2.5,-0.5"/>
                </g>
               <g id="resetDef">
                       <use xlink:href="#rim2" fill="#404040">
                               <set attributeName="fill" to="#808080" begin="reset.mouseover" end="reset.mouseout"/>
                       </use>
               </g>
        </defs>

<script type="text/javascript">
var viewWidth = 2291;
var viewHeight = 313;
var sectionId = 'dynsection-1';
</script>
<script xlink:href="svgpan.js"/>
<svg id="graph" class="graph">
<g id="viewport">
<title>src/AutocompletePopup.h</title>
<!-- Node1 -->
<g id="node1" class="node">
<title>Node1</title>
<g id="a_node1"><a xlink:title="The first number that is open for dynamic ID assignment.">
<polygon fill="#999999" stroke="#666666" points="584.47,-305 443.47,-305 443.47,-286 584.47,-286 584.47,-305"/>
<text text-anchor="middle" x="513.97" y="-293" font-family="Helvetica,sans-Serif" font-size="10.00">src/AutocompletePopup.h</text>
</a>
</g>
</g>
<!-- Node2 -->
<g id="node2" class="node">
<title>Node2</title>
<g id="a_node2"><a xlink:href="AutocompletePopup_8cpp.html" target="_top" xlink:title="This file defines the class AutocompletePopup.">
<polygon fill="white" stroke="#666666" points="985.97,-129 833.97,-129 833.97,-110 985.97,-110 985.97,-129"/>
<text text-anchor="middle" x="909.97" y="-117" font-family="Helvetica,sans-Serif" font-size="10.00">src/AutocompletePopup.cpp</text>
</a>
</g>
</g>
<!-- Node1&#45;&gt;Node2 -->
<g id="edge1" class="edge">
<title>Node1&#45;&gt;Node2</title>
<path fill="none" stroke="#63b8ff" d="M433.09,-287.06C275.27,-271.01 -53.25,-229.31 7.97,-165 36.26,-135.28 621.63,-124.41 833.92,-121.43"/>
<polygon fill="#63b8ff" stroke="#63b8ff" points="432.93,-290.56 443.23,-288.08 433.63,-283.59 432.93,-290.56"/>
</g>
<!-- Node3 -->
<g id="node3" class="node">
<title>Node3</title>
<g id="a_node3"><a xlink:href="Worksheet_8h.html" target="_top" xlink:title="This file defines the class Worksheet.">
<polygon fill="white" stroke="#666666" points="1151.47,-250 1056.47,-250 1056.47,-231 1151.47,-231 1151.47,-250"/>
<text text-anchor="middle" x="1103.97" y="-238" font-family="Helvetica,sans-Serif" font-size="10.00">src/Worksheet.h</text>
</a>
</g>
</g>
<!-- Node1&#45;&gt;Node3 -->
<g id="edge2" class="edge">
<title>Node1&#45;&gt;Node3</title>
<path fill="none" stroke="#63b8ff" d="M594.81,-287.24C719.65,-276.02 955.46,-254.84 1056.29,-245.78"/>
<polygon fill="#63b8ff" stroke="#63b8ff" points="594.19,-283.78 584.55,-288.16 594.82,-290.75 594.19,-283.78"/>
</g>
<!-- Node4 -->
<g id="node4" class="node">
<title>Node4</title>
<g id="a_node4"><a xlink:href="Worksheet_8cpp.html" target="_top" xlink:title="This file defines the class Worksheet.">
<polygon fill="white" stroke="#666666" points="1655.97,-74 1549.97,-74 1549.97,-55 1655.97,-55 1655.97,-74"/>
<text text-anchor="middle" x="1602.97" y="-62" font-family="Helvetica,sans-Serif" font-size="10.00">src/Worksheet.cpp</text>
</a>
</g>
</g>
<!-- Node3&#45;&gt;Node4 -->
<g id="edge3" class="edge">
<title>Node3&#45;&gt;Node4</title>
<path fill="none" stroke="#63b8ff" d="M1046.24,-238.7C856.71,-235.8 263.89,-224.39 235.97,-195 226.78,-185.33 226.99,-174.86 235.97,-165 325.85,-66.33 1308.29,-64.19 1549.65,-65.16"/>
<polygon fill="#63b8ff" stroke="#63b8ff" points="1046.24,-242.2 1056.29,-238.85 1046.34,-235.2 1046.24,-242.2"/>
</g>
<!-- Node5 -->
<g id="node5" class="node">
<title>Node5</title>
<g id="a_node5"><a xlink:href="WorksheetContextMenu_8cpp.html" target="_top" xlink:title="The worksheet&#39;s right&#45;click context menu (see WorksheetContextMenu.h).">
<polygon fill="white" stroke="#666666" points="188.47,-189.5 17.47,-189.5 17.47,-170.5 188.47,-170.5 188.47,-189.5"/>
<text text-anchor="middle" x="102.97" y="-177.5" font-family="Helvetica,sans-Serif" font-size="10.00">src/WorksheetContextMenu.cpp</text>
</a>
</g>
</g>
<!-- Node3&#45;&gt;Node5 -->
<g id="edge4" class="edge">
<title>Node3&#45;&gt;Node5</title>
<path fill="none" stroke="#63b8ff" d="M1045.67,-238.43C902.11,-235.41 520.12,-224.97 202.97,-195 188.13,-193.6 172.12,-191.58 157.36,-189.52"/>
<polygon fill="#63b8ff" stroke="#63b8ff" points="1045.92,-241.94 1056,-238.65 1046.07,-234.94 1045.92,-241.94"/>
</g>
<!-- Node6 -->
<g id="node6" class="node">
<title>Node6</title>
<g id="a_node6"><a xlink:href="ConfigDialogue_8h.html" target="_top" xlink:title="The configuration dialog.">
<polygon fill="white" stroke="#666666" points="2136.47,-74 1981.47,-74 1981.47,-55 2136.47,-55 2136.47,-74"/>
<text text-anchor="middle" x="2058.97" y="-62" font-family="Helvetica,sans-Serif" font-size="10.00">src/dialogs/ConfigDialogue.h</text>
</a>
</g>
</g>
<!-- Node3&#45;&gt;Node6 -->
<g id="edge5" class="edge">
<title>Node3&#45;&gt;Node6</title>
<path fill="none" stroke="#63b8ff" d="M1161.63,-238.76C1370.83,-235.86 2079.62,-223.93 2117.97,-195 2149.11,-171.49 2159.83,-143.59 2139.97,-110 2129.26,-91.91 2108.3,-80.68 2090.39,-74.03"/>
<polygon fill="#63b8ff" stroke="#63b8ff" points="1161.42,-235.27 1151.47,-238.9 1161.51,-242.27 1161.42,-235.27"/>
</g>
<!-- Node9 -->
<g id="node9" class="node">
<title>Node9</title>
<g id="a_node9"><a xlink:href="DiffFrame_8h_source.html" target="_top" xlink:title=" ">
<polygon fill="white" stroke="#666666" points="2283.47,-74 2154.47,-74 2154.47,-55 2283.47,-55 2283.47,-74"/>
<text text-anchor="middle" x="2218.97" y="-62" font-family="Helvetica,sans-Serif" font-size="10.00">src/dialogs/DiffFrame.h</text>
</a>
</g>
</g>
<!-- Node3&#45;&gt;Node9 -->
<g id="edge8" class="edge">
<title>Node3&#45;&gt;Node9</title>
<path fill="none" stroke="#63b8ff" d="M1161.58,-238.57C1373.94,-234.95 2102.76,-220.71 2144.97,-195 2191.18,-166.84 2211.26,-98.35 2217.07,-74.14"/>
<polygon fill="#63b8ff" stroke="#63b8ff" points="1161.51,-235.07 1151.57,-238.74 1161.63,-242.07 1161.51,-235.07"/>
</g>
<!-- Node10 -->
<g id="node10" class="node">
<title>Node10</title>
<g id="a_node10"><a xlink:href="Printout_8cpp.html" target="_top" xlink:title="This file defines the class MathPrintOut.">
<polygon fill="white" stroke="#666666" points="400.47,-189.5 245.47,-189.5 245.47,-170.5 400.47,-170.5 400.47,-189.5"/>
<text text-anchor="middle" x="322.97" y="-177.5" font-family="Helvetica,sans-Serif" font-size="10.00">src/graphical_io/Printout.cpp</text>
</a>
</g>
</g>
<!-- Node3&#45;&gt;Node10 -->
<g id="edge11" class="edge">
<title>Node3&#45;&gt;Node10</title>
<path fill="none" stroke="#63b8ff" d="M1046.29,-237.67C927.11,-233.46 645.17,-221.4 409.97,-195 397.19,-193.57 383.44,-191.57 370.72,-189.53"/>
<polygon fill="#63b8ff" stroke="#63b8ff" points="1046.17,-241.16 1056.29,-238.01 1046.42,-234.17 1046.17,-241.16"/>
</g>
<!-- Node11 -->
<g id="node11" class="node">
<title>Node11</title>
<g id="a_node11"><a xlink:href="wxMaximaFrame_8h.html" target="_top" xlink:title="This file declares the class wxMaximaFrame.">
<polygon fill="white" stroke="#666666" points="2108.97,-189.5 1980.97,-189.5 1980.97,-170.5 2108.97,-170.5 2108.97,-189.5"/>
<text text-anchor="middle" x="2044.97" y="-177.5" font-family="Helvetica,sans-Serif" font-size="10.00">src/wxMaximaFrame.h</text>
</a>
</g>
</g>
<!-- Node3&#45;&gt;Node11 -->
<g id="edge12" class="edge">
<title>Node3&#45;&gt;Node11</title>
<path fill="none" stroke="#63b8ff" d="M1161.73,-239.29C1301.42,-238.19 1668.35,-231.72 1971.97,-195 1982.98,-193.67 1994.84,-191.65 2005.72,-189.56"/>
<polygon fill="#63b8ff" stroke="#63b8ff" points="1161.65,-235.79 1151.68,-239.36 1161.7,-242.79 1161.65,-235.79"/>
</g>
<!-- Node18 -->
<g id="node18" class="node">
<title>Node18</title>
<g id="a_node18"><a xlink:href="test__Accessibility_8cpp.html" target="_top" xlink:title="Logic&#45;level regression tests for wxMaxima&#39;s custom wxAccessible classes.">
<polygon fill="white" stroke="#666666" points="526.97,-195 418.97,-195 418.97,-165 526.97,-165 526.97,-195"/>
<text text-anchor="start" x="426.97" y="-183" font-family="Helvetica,sans-Serif" font-size="10.00">test/unit_tests/test</text>
<text text-anchor="middle" x="472.97" y="-172" font-family="Helvetica,sans-Serif" font-size="10.00">_Accessibility.cpp</text>
</a>
</g>
</g>
<!-- Node3&#45;&gt;Node18 -->
<g id="edge28" class="edge">
<title>Node3&#45;&gt;Node18</title>
<path fill="none" stroke="#63b8ff" d="M1046.02,-237.65C942.92,-233.76 721.1,-222.68 535.97,-195 533.08,-194.57 530.14,-194.08 527.17,-193.55"/>
<polygon fill="#63b8ff" stroke="#63b8ff" points="1046.09,-241.15 1056.21,-238.02 1046.35,-234.16 1046.09,-241.15"/>
</g>
<!-- Node19 -->
<g id="node19" class="node">
<title>Node19</title>
<g id="a_node19"><a xlink:href="test__EditorCellInvariants_8cpp.html" target="_top" xlink:title="Hardening tests for EditorCell&#39;s text&#45;editing core.">
<polygon fill="white" stroke="#666666" points="682.97,-195 544.97,-195 544.97,-165 682.97,-165 682.97,-195"/>
<text text-anchor="start" x="552.97" y="-183" font-family="Helvetica,sans-Serif" font-size="10.00">test/unit_tests/test</text>
<text text-anchor="middle" x="613.97" y="-172" font-family="Helvetica,sans-Serif" font-size="10.00">_EditorCellInvariants.cpp</text>
</a>
</g>
</g>
<!-- Node3&#45;&gt;Node19 -->
<g id="edge29" class="edge">
<title>Node3&#45;&gt;Node19</title>
<path fill="none" stroke="#63b8ff" d="M1045.91,-234.52C966,-227.37 817.71,-213.05 691.97,-195 689.11,-194.59 686.19,-194.15 683.25,-193.69"/>
<polygon fill="#63b8ff" stroke="#63b8ff" points="1045.98,-238.04 1056.25,-235.44 1046.6,-231.07 1045.98,-238.04"/>
</g>
<!-- Node20 -->
<g id="node20" class="node">
<title>Node20</title>
<g id="a_node20"><a xlink:href="test__GroupCellLayout_8cpp.html" target="_top" xlink:title="Regression tests for the GroupCell &lt;&#45;&gt; EditorCell layout coupling.">
<polygon fill="white" stroke="#666666" points="824.47,-195 701.47,-195 701.47,-165 824.47,-165 824.47,-195"/>
<text text-anchor="start" x="709.47" y="-183" font-family="Helvetica,sans-Serif" font-size="10.00">test/unit_tests/test</text>
<text text-anchor="middle" x="762.97" y="-172" font-family="Helvetica,sans-Serif" font-size="10.00">_GroupCellLayout.cpp</text>
</a>
</g>
</g>
<!-- Node3&#45;&gt;Node20 -->
<g id="edge30" class="edge">
<title>Node3&#45;&gt;Node20</title>
<path fill="none" stroke="#63b8ff" d="M1045.89,-230.47C991.15,-221.83 906.87,-208.19 833.97,-195 830.87,-194.44 827.71,-193.86 824.52,-193.26"/>
<polygon fill="#63b8ff" stroke="#63b8ff" points="1045.67,-233.98 1056.09,-232.07 1046.76,-227.06 1045.67,-233.98"/>
</g>
<!-- Node21 -->
<g id="node21" class="node">
<title>Node21</title>
<g id="a_node21"><a xlink:href="test__LayoutInvariants_8cpp.html" target="_top" xlink:title="Layout idempotency invariants.">
<polygon fill="white" stroke="#666666" points="966.97,-195 842.97,-195 842.97,-165 966.97,-165 966.97,-195"/>
<text text-anchor="start" x="850.97" y="-183" font-family="Helvetica,sans-Serif" font-size="10.00">test/unit_tests/test</text>
<text text-anchor="middle" x="904.97" y="-172" font-family="Helvetica,sans-Serif" font-size="10.00">_LayoutInvariants.cpp</text>
</a>
</g>
</g>
<!-- Node3&#45;&gt;Node21 -->
<g id="edge31" class="edge">
<title>Node3&#45;&gt;Node21</title>
<path fill="none" stroke="#63b8ff" d="M1065.11,-228.08C1032.97,-218.63 987.19,-205.17 952.81,-195.06"/>
<polygon fill="#63b8ff" stroke="#63b8ff" points="1064.45,-231.53 1075.03,-230.99 1066.42,-224.82 1064.45,-231.53"/>
</g>
<!-- Node22 -->
<g id="node22" class="node">
<title>Node22</title>
<g id="a_node22"><a xlink:href="test__TreeUndo_8cpp.html" target="_top" xlink:title="Regression tests for the worksheet&#39;s cell&#45;tree undo/redo (the TreeUndo_* subsystem of Worksheet).">
<polygon fill="white" stroke="#666666" points="1092.97,-195 984.97,-195 984.97,-165 1092.97,-165 1092.97,-195"/>
<text text-anchor="start" x="992.97" y="-183" font-family="Helvetica,sans-Serif" font-size="10.00">test/unit_tests/test</text>
<text text-anchor="middle" x="1038.97" y="-172" font-family="Helvetica,sans-Serif" font-size="10.00">_TreeUndo.cpp</text>
</a>
</g>
</g>
<!-- Node3&#45;&gt;Node22 -->
<g id="edge32" class="edge">
<title>Node3&#45;&gt;Node22</title>
<path fill="none" stroke="#63b8ff" d="M1086.71,-223.97C1076.75,-215.01 1064.33,-203.82 1054.65,-195.11"/>
<polygon fill="#63b8ff" stroke="#63b8ff" points="1084.6,-226.78 1094.37,-230.87 1089.28,-221.58 1084.6,-226.78"/>
</g>
<!-- Node23 -->
<g id="node23" class="node">
<title>Node23</title>
<g id="a_node23"><a xlink:href="test__WXMRoundtrip_8cpp.html" target="_top" xlink:title="Regression tests for images surviving the .wxm serialization round&#45;trip.">
<polygon fill="white" stroke="#666666" points="1226.47,-195 1111.47,-195 1111.47,-165 1226.47,-165 1226.47,-195"/>
<text text-anchor="start" x="1119.47" y="-183" font-family="Helvetica,sans-Serif" font-size="10.00">test/unit_tests/test</text>
<text text-anchor="middle" x="1168.97" y="-172" font-family="Helvetica,sans-Serif" font-size="10.00">_WXMRoundtrip.cpp</text>
</a>
</g>
</g>
<!-- Node3&#45;&gt;Node23 -->
<g id="edge33" class="edge">
<title>Node3&#45;&gt;Node23</title>
<path fill="none" stroke="#63b8ff" d="M1121.23,-223.97C1131.18,-215.01 1143.61,-203.82 1153.28,-195.11"/>
<polygon fill="#63b8ff" stroke="#63b8ff" points="1118.65,-221.58 1113.56,-230.87 1123.33,-226.78 1118.65,-221.58"/>
</g>
<!-- Node24 -->
<g id="node24" class="node">
<title>Node24</title>
<g id="a_node24"><a xlink:href="test__WXMXRoundtrip_8cpp.html" target="_top" xlink:title="Round&#45;trip tests for the .wxmx content.xml (the MathML&#45;like math format).">
<polygon fill="white" stroke="#666666" points="1366.97,-195 1244.97,-195 1244.97,-165 1366.97,-165 1366.97,-195"/>
<text text-anchor="start" x="1252.97" y="-183" font-family="Helvetica,sans-Serif" font-size="10.00">test/unit_tests/test</text>
<text text-anchor="middle" x="1305.97" y="-172" font-family="Helvetica,sans-Serif" font-size="10.00">_WXMXRoundtrip.cpp</text>
</a>
</g>
</g>
<!-- Node3&#45;&gt;Node24 -->
<g id="edge34" class="edge">
<title>Node3&#45;&gt;Node24</title>
<path fill="none" stroke="#63b8ff" d="M1142.99,-228.2C1175.63,-218.75 1222.35,-205.22 1257.4,-195.06"/>
<polygon fill="#63b8ff" stroke="#63b8ff" points="1141.97,-224.85 1133.34,-230.99 1143.92,-231.57 1141.97,-224.85"/>
</g>
<!-- Node25 -->
<g id="node25" class="node">
<title>Node25</title>
<g id="a_node25"><a xlink:href="test__WorksheetContextMenu_8cpp.html" target="_top" xlink:title="Regression tests for the worksheet&#39;s right&#45;click context menu.">
<polygon fill="white" stroke="#666666" points="1544.47,-195 1385.47,-195 1385.47,-165 1544.47,-165 1544.47,-195"/>
<text text-anchor="start" x="1393.47" y="-183" font-family="Helvetica,sans-Serif" font-size="10.00">test/unit_tests/test</text>
<text text-anchor="middle" x="1464.97" y="-172" font-family="Helvetica,sans-Serif" font-size="10.00">_WorksheetContextMenu.cpp</text>
</a>
</g>
</g>
<!-- Node3&#45;&gt;Node25 -->
<g id="edge35" class="edge">
<title>Node3&#45;&gt;Node25</title>
<path fill="none" stroke="#63b8ff" d="M1161.66,-230.15C1222.11,-220.35 1317.51,-204.9 1385.16,-193.93"/>
<polygon fill="#63b8ff" stroke="#63b8ff" points="1160.84,-226.74 1151.53,-231.79 1161.96,-233.65 1160.84,-226.74"/>
</g>
<!-- Node26 -->
<g id="node26" class="node">
<title>Node26</title>
<g id="a_node26"><a xlink:href="test__WorksheetCursor_8cpp.html" target="_top" xlink:title="Pins the worksheet&#39;s cursor model before it is gathered into a cursor class.">
<polygon fill="white" stroke="#666666" points="1687.47,-195 1562.47,-195 1562.47,-165 1687.47,-165 1687.47,-195"/>
<text text-anchor="start" x="1570.47" y="-183" font-family="Helvetica,sans-Serif" font-size="10.00">test/unit_tests/test</text>
<text text-anchor="middle" x="1624.97" y="-172" font-family="Helvetica,sans-Serif" font-size="10.00">_WorksheetCursor.cpp</text>
</a>
</g>
</g>
<!-- Node3&#45;&gt;Node26 -->
<g id="edge36" class="edge">
<title>Node3&#45;&gt;Node26</title>
<path fill="none" stroke="#63b8ff" d="M1161.71,-235.51C1247.39,-229.19 1413.13,-215.48 1552.97,-195 1555.99,-194.56 1559.08,-194.07 1562.2,-193.56"/>
<polygon fill="#63b8ff" stroke="#63b8ff" points="1161.38,-232.02 1151.66,-236.24 1161.89,-239 1161.38,-232.02"/>
</g>
<!-- Node27 -->
<g id="node27" class="node">
<title>Node27</title>
<g id="a_node27"><a xlink:href="test__WorksheetExport_8cpp.html" target="_top" xlink:title="Safety net for the export/serialization cluster of Worksheet.">
<polygon fill="white" stroke="#666666" points="1830.47,-195 1705.47,-195 1705.47,-165 1830.47,-165 1830.47,-195"/>
<text text-anchor="start" x="1713.47" y="-183" font-family="Helvetica,sans-Serif" font-size="10.00">test/unit_tests/test</text>
<text text-anchor="middle" x="1767.97" y="-172" font-family="Helvetica,sans-Serif" font-size="10.00">_WorksheetExport.cpp</text>
</a>
</g>
</g>
<!-- Node3&#45;&gt;Node27 -->
<g id="edge37" class="edge">
<title>Node3&#45;&gt;Node27</title>
<path fill="none" stroke="#63b8ff" d="M1161.93,-237.4C1268.2,-233.04 1501.21,-221.16 1695.97,-195 1698.99,-194.59 1702.09,-194.14 1705.21,-193.65"/>
<polygon fill="#63b8ff" stroke="#63b8ff" points="1161.59,-233.91 1151.74,-237.81 1161.87,-240.9 1161.59,-233.91"/>
</g>
<!-- Node28 -->
<g id="node28" class="node">
<title>Node28</title>
<g id="a_node28"><a xlink:href="test__WorksheetFind_8cpp.html" target="_top" xlink:title="Pins the worksheet&#39;s find/replace behavior before the search engine is extracted into WorksheetSearch...">
<polygon fill="white" stroke="#666666" points="1962.97,-195 1848.97,-195 1848.97,-165 1962.97,-165 1962.97,-195"/>
<text text-anchor="start" x="1856.97" y="-183" font-family="Helvetica,sans-Serif" font-size="10.00">test/unit_tests/test</text>
<text text-anchor="middle" x="1905.97" y="-172" font-family="Helvetica,sans-Serif" font-size="10.00">_WorksheetFind.cpp</text>
</a>
</g>
</g>
<!-- Node3&#45;&gt;Node28 -->
<g id="edge38" class="edge">
<title>Node3&#45;&gt;Node28</title>
<path fill="none" stroke="#63b8ff" d="M1161.54,-238.86C1285.8,-236.85 1588.17,-228.61 1838.97,-195 1842.15,-194.57 1845.4,-194.08 1848.68,-193.54"/>
<polygon fill="#63b8ff" stroke="#63b8ff" points="1161.43,-235.36 1151.49,-239.01 1161.54,-242.36 1161.43,-235.36"/>
</g>
<!-- Node7 -->
<g id="node7" class="node">
<title>Node7</title>
<g id="a_node7"><a xlink:href="main_8cpp.html" target="_top" xlink:title="The file that defines the starting point of the program.">
<polygon fill="white" stroke="#666666" points="1928.47,-19 1849.47,-19 1849.47,0 1928.47,0 1928.47,-19"/>
<text text-anchor="middle" x="1888.97" y="-7" font-family="Helvetica,sans-Serif" font-size="10.00">src/main.cpp</text>
</a>
</g>
</g>
<!-- Node6&#45;&gt;Node7 -->
<g id="edge6" class="edge">
<title>Node6&#45;&gt;Node7</title>
<path fill="none" stroke="#63b8ff" d="M2021.85,-51.93C1990.09,-42.03 1945.12,-28.01 1916.49,-19.08"/>
<polygon fill="#63b8ff" stroke="#63b8ff" points="2021.06,-55.35 2031.65,-54.98 2023.15,-48.67 2021.06,-55.35"/>
</g>
<!-- Node8 -->
<g id="node8" class="node">
<title>Node8</title>
<g id="a_node8"><a xlink:href="wxMaxima_8cpp.html" target="_top" xlink:title="This file defines the contents of the class wxMaxima that contains most of the program&#39;s logic.">
<polygon fill="white" stroke="#666666" points="2083.97,-19 1975.97,-19 1975.97,0 2083.97,0 2083.97,-19"/>
<text text-anchor="middle" x="2029.97" y="-7" font-family="Helvetica,sans-Serif" font-size="10.00">src/wxMaxima.cpp</text>
</a>
</g>
</g>
<!-- Node6&#45;&gt;Node8 -->
<g id="edge7" class="edge">
<title>Node6&#45;&gt;Node8</title>
<path fill="none" stroke="#63b8ff" d="M2049.29,-45.82C2044.37,-36.82 2038.61,-26.29 2034.67,-19.09"/>
<polygon fill="#63b8ff" stroke="#63b8ff" points="2046.31,-47.66 2054.18,-54.75 2052.45,-44.3 2046.31,-47.66"/>
</g>
<!-- Node9&#45;&gt;Node7 -->
<g id="edge9" class="edge">
<title>Node9&#45;&gt;Node7</title>
<path fill="none" stroke="#63b8ff" d="M2155.94,-53.38C2089.04,-42.63 1985.33,-25.98 1928.88,-16.91"/>
<polygon fill="#63b8ff" stroke="#63b8ff" points="2155.52,-56.85 2165.95,-54.98 2156.63,-49.94 2155.52,-56.85"/>
</g>
<!-- Node9&#45;&gt;Node8 -->
<g id="edge10" class="edge">
<title>Node9&#45;&gt;Node8</title>
<path fill="none" stroke="#63b8ff" d="M2178.61,-52.18C2143.26,-42.27 2092.67,-28.08 2060.57,-19.08"/>
<polygon fill="#63b8ff" stroke="#63b8ff" points="2178.03,-55.65 2188.6,-54.98 2179.92,-48.91 2178.03,-55.65"/>
</g>
<!-- Node11&#45;&gt;Node2 -->
<g id="edge13" class="edge">
<title>Node11&#45;&gt;Node2</title>
<path fill="none" stroke="#63b8ff" d="M1996.1,-168.6C1988.07,-167.19 1979.81,-165.91 1971.97,-165 1604.44,-122.29 1161.17,-119.19 986.25,-119.85"/>
<polygon fill="#63b8ff" stroke="#63b8ff" points="1995.64,-172.07 2006.11,-170.45 1996.91,-165.19 1995.64,-172.07"/>
</g>
<!-- Node11&#45;&gt;Node4 -->
<g id="edge14" class="edge">
<title>Node11&#45;&gt;Node4</title>
<path fill="none" stroke="#63b8ff" d="M1993.11,-168.56C1986.02,-167.28 1978.82,-166.05 1971.97,-165 1833.99,-143.84 1783.97,-193.1 1659.97,-129 1635.49,-116.35 1616.49,-88.56 1607.93,-74.31"/>
<polygon fill="#63b8ff" stroke="#63b8ff" points="1992.9,-172.08 2003.37,-170.47 1994.17,-165.2 1992.9,-172.08"/>
</g>
<!-- Node12 -->
<g id="node12" class="node">
<title>Node12</title>
<g id="a_node12"><a xlink:href="EditorCell_8cpp.html" target="_top" xlink:title="This file defines the class EditorCell.">
<polygon fill="white" stroke="#666666" points="1963.47,-74 1836.47,-74 1836.47,-55 1963.47,-55 1963.47,-74"/>
<text text-anchor="middle" x="1899.97" y="-62" font-family="Helvetica,sans-Serif" font-size="10.00">src/cells/EditorCell.cpp</text>
</a>
</g>
</g>
<!-- Node11&#45;&gt;Node12 -->
<g id="edge15" class="edge">
<title>Node11&#45;&gt;Node12</title>
<path fill="none" stroke="#63b8ff" d="M2078.3,-166.43C2107.4,-153.58 2142.34,-132.38 2123.97,-110 2113.75,-97.55 2026.24,-82.98 1963.69,-73.99"/>
<polygon fill="#63b8ff" stroke="#63b8ff" points="2076.59,-163.35 2068.73,-170.46 2079.31,-169.8 2076.59,-163.35"/>
</g>
<!-- Node13 -->
<g id="node13" class="node">
<title>Node13</title>
<g id="a_node13"><a xlink:href="main_8h.html" target="_top" xlink:title="This file declares the class wxMaxima that contains most of the program&#39;s logic.">
<polygon fill="white" stroke="#666666" points="1741.97,-74 1673.97,-74 1673.97,-55 1741.97,-55 1741.97,-74"/>
<text text-anchor="middle" x="1707.97" y="-62" font-family="Helvetica,sans-Serif" font-size="10.00">src/main.h</text>
</a>
</g>
</g>
<!-- Node11&#45;&gt;Node13 -->
<g id="edge16" class="edge">
<title>Node11&#45;&gt;Node13</title>
<path fill="none" stroke="#63b8ff" d="M1993.1,-168.58C1986.01,-167.29 1978.82,-166.06 1971.97,-165 1904.74,-154.59 1713.15,-179.85 1667.97,-129 1652.3,-111.37 1678.78,-86.93 1695.64,-74.12"/>
<polygon fill="#63b8ff" stroke="#63b8ff" points="1992.89,-172.1 2003.36,-170.49 1994.17,-165.22 1992.89,-172.1"/>
</g>
<!-- Node15 -->
<g id="node15" class="node">
<title>Node15</title>
<g id="a_node15"><a xlink:href="GreekSidebar_8cpp.html" target="_top" xlink:title="This file defines the class GreekSidebar.">
<polygon fill="white" stroke="#666666" points="1956.97,-129 1792.97,-129 1792.97,-110 1956.97,-110 1956.97,-129"/>
<text text-anchor="middle" x="1874.97" y="-117" font-family="Helvetica,sans-Serif" font-size="10.00">src/sidebars/GreekSidebar.cpp</text>
</a>
</g>
</g>
<!-- Node11&#45;&gt;Node15 -->
<g id="edge20" class="edge">
<title>Node11&#45;&gt;Node15</title>
<path fill="none" stroke="#63b8ff" d="M2010.59,-167.17C1977.71,-155.86 1928.94,-139.07 1899.71,-129.02"/>
<polygon fill="#63b8ff" stroke="#63b8ff" points="2009.65,-170.55 2020.25,-170.49 2011.93,-163.93 2009.65,-170.55"/>
</g>
<!-- Node16 -->
<g id="node16" class="node">
<title>Node16</title>
<g id="a_node16"><a xlink:href="wxMaxima_8h.html" target="_top" xlink:title="This file declares the class wxMaxima that contains most of the program&#39;s logic.">
<polygon fill="white" stroke="#666666" points="1774.47,-129 1677.47,-129 1677.47,-110 1774.47,-110 1774.47,-129"/>
<text text-anchor="middle" x="1725.97" y="-117" font-family="Helvetica,sans-Serif" font-size="10.00">src/wxMaxima.h</text>
</a>
</g>
</g>
<!-- Node11&#45;&gt;Node16 -->
<g id="edge21" class="edge">
<title>Node11&#45;&gt;Node16</title>
<path fill="none" stroke="#63b8ff" d="M1990.98,-168.58C1984.58,-167.36 1978.13,-166.15 1971.97,-165 1903.27,-152.2 1823.68,-137.9 1774.07,-129.05"/>
<polygon fill="#63b8ff" stroke="#63b8ff" points="1990.49,-172.05 2000.97,-170.49 1991.81,-165.17 1990.49,-172.05"/>
</g>
<!-- Node17 -->
<g id="node17" class="node">
<title>Node17</title>
<g id="a_node17"><a xlink:href="wxMaximaFrame_8cpp.html" target="_top" xlink:title="This file defines the class wxMaximaFrame.">
<polygon fill="white" stroke="#666666" points="2114.47,-129 1975.47,-129 1975.47,-110 2114.47,-110 2114.47,-129"/>
<text text-anchor="middle" x="2044.97" y="-117" font-family="Helvetica,sans-Serif" font-size="10.00">src/wxMaximaFrame.cpp</text>
</a>
</g>
</g>
<!-- Node11&#45;&gt;Node17 -->
<g id="edge27" class="edge">
<title>Node11&#45;&gt;Node17</title>
<path fill="none" stroke="#63b8ff" d="M2044.97,-160.16C2044.97,-149.74 2044.97,-137.3 2044.97,-129.17"/>
<polygon fill="#63b8ff" stroke="#63b8ff" points="2041.47,-160.37 2044.97,-170.37 2048.47,-160.37 2041.47,-160.37"/>
</g>
<!-- Node13&#45;&gt;Node7 -->
<g id="edge18" class="edge">
<title>Node13&#45;&gt;Node7</title>
<path fill="none" stroke="#63b8ff" d="M1747.05,-52.06C1780.88,-42.15 1829.05,-28.04 1859.66,-19.08"/>
<polygon fill="#63b8ff" stroke="#63b8ff" points="1745.66,-48.82 1737.05,-54.98 1747.63,-55.53 1745.66,-48.82"/>
</g>
<!-- Node13&#45;&gt;Node8 -->
<g id="edge19" class="edge">
<title>Node13&#45;&gt;Node8</title>
<path fill="none" stroke="#63b8ff" d="M1752.25,-56.21C1811.28,-46.49 1915.59,-29.33 1978.19,-19.02"/>
<polygon fill="#63b8ff" stroke="#63b8ff" points="1751.42,-52.8 1742.12,-57.88 1752.56,-59.71 1751.42,-52.8"/>
</g>
<!-- Node14 -->
<g id="node14" class="node">
<title>Node14</title>
<g id="a_node14"><a xlink:href="MaximaManual_8cpp.html" target="_top" xlink:title="This file defines the class MaximaManual.">
<polygon fill="white" stroke="#666666" points="1772.97,-19 1642.97,-19 1642.97,0 1772.97,0 1772.97,-19"/>
<text text-anchor="middle" x="1707.97" y="-7" font-family="Helvetica,sans-Serif" font-size="10.00">src/MaximaManual.cpp</text>
</a>
</g>
</g>
<!-- Node13&#45;&gt;Node14 -->
<g id="edge17" class="edge">
<title>Node13&#45;&gt;Node14</title>
<path fill="none" stroke="#63b8ff" d="M1707.97,-44.66C1707.97,-35.93 1707.97,-25.99 1707.97,-19.09"/>
<polygon fill="#63b8ff" stroke="#63b8ff" points="1704.47,-44.75 1707.97,-54.75 1711.47,-44.75 1704.47,-44.75"/>
</g>
<!-- Node16&#45;&gt;Node4 -->
<g id="edge22" class="edge">
<title>Node16&#45;&gt;Node4</title>
<path fill="none" stroke="#63b8ff" d="M1696.72,-105.9C1674,-96.11 1643.09,-82.79 1623.09,-74.17"/>
<polygon fill="#63b8ff" stroke="#63b8ff" points="1695.63,-109.24 1706.2,-109.98 1698.4,-102.81 1695.63,-109.24"/>
</g>
<!-- Node16&#45;&gt;Node7 -->
<g id="edge24" class="edge">
<title>Node16&#45;&gt;Node7</title>
<path fill="none" stroke="#63b8ff" d="M1740.41,-102.42C1753.43,-88.6 1773.61,-68.77 1793.97,-55 1816.75,-39.59 1845.7,-26.88 1865.63,-19.04"/>
<polygon fill="#63b8ff" stroke="#63b8ff" points="1737.83,-100.06 1733.62,-109.78 1742.98,-104.8 1737.83,-100.06"/>
</g>
<!-- Node16&#45;&gt;Node8 -->
<g id="edge26" class="edge">
<title>Node16&#45;&gt;Node8</title>
<path fill="none" stroke="#63b8ff" d="M1747.71,-104.27C1774.82,-86.62 1818.61,-58.42 1826.97,-55 1875.38,-35.18 1934.08,-23.54 1975.87,-17.17"/>
<polygon fill="#63b8ff" stroke="#63b8ff" points="1745.7,-101.4 1739.23,-109.8 1749.52,-107.27 1745.7,-101.4"/>
</g>
<!-- Node16&#45;&gt;Node12 -->
<g id="edge23" class="edge">
<title>Node16&#45;&gt;Node12</title>
<path fill="none" stroke="#63b8ff" d="M1763.54,-107.06C1796.06,-97.15 1842.37,-83.04 1871.79,-74.08"/>
<polygon fill="#63b8ff" stroke="#63b8ff" points="1762.47,-103.72 1753.92,-109.98 1764.51,-110.42 1762.47,-103.72"/>
</g>
<!-- Node16&#45;&gt;Node13 -->
<g id="edge25" class="edge">
<title>Node16&#45;&gt;Node13</title>
<path fill="none" stroke="#63b8ff" d="M1719.76,-100.24C1716.75,-91.37 1713.28,-81.14 1710.88,-74.09"/>
<polygon fill="#63b8ff" stroke="#63b8ff" points="1716.46,-101.4 1722.99,-109.75 1723.09,-99.15 1716.46,-101.4"/>
</g>
</g>
</svg>
        <g id="navigator" transform="translate(0 0)" fill="#404254">
                <rect fill="#f2f5e9" fill-opacity="0.5" stroke="#606060" stroke-width=".5" x="0" y="0" width="60" height="60"/>
                <use id="zoomplus" xlink:href="#zoomPlus" x="17" y="9" onmousedown="handleZoom(evt,'in')"/>
                <use id="zoomminus" xlink:href="#zoomMin" x="42" y="9" onmousedown="handleZoom(evt,'out')"/>
                <use id="reset" xlink:href="#resetDef" x="30" y="36" onmousedown="handleReset()"/>
                <g id="arrowUp" xlink:href="#dirArrow" transform="translate(30 24)" onmousedown="handlePan(0,-1)">
                  <use xlink:href="#rim" fill="#404040">
                        <set attributeName="fill" to="#808080" begin="arrowUp.mouseover" end="arrowUp.mouseout"/>
                  </use>
                  <path fill="none" stroke="white" stroke-width="1.5" d="M0,-3.0v7 M-2.5,-0.5L0,-3.0L2.5,-0.5"/>
                </g>
                <g id="arrowRight" xlink:href="#dirArrow" transform="rotate(90) translate(36 -43)" onmousedown="handlePan(1,0)">
                  <use xlink:href="#rim" fill="#404040">
                        <set attributeName="fill" to="#808080" begin="arrowRight.mouseover" end="arrowRight.mouseout"/>
                  </use>
                  <path fill="none" stroke="white" stroke-width="1.5" d="M0,-3.0v7 M-2.5,-0.5L0,-3.0L2.5,-0.5"/>
                </g>
                <g id="arrowDown" xlink:href="#dirArrow" transform="rotate(180) translate(-30 -48)" onmousedown="handlePan(0,1)">
                  <use xlink:href="#rim" fill="#404040">
                        <set attributeName="fill" to="#808080" begin="arrowDown.mouseover" end="arrowDown.mouseout"/>
                  </use>
                  <path fill="none" stroke="white" stroke-width="1.5" d="M0,-3.0v7 M-2.5,-0.5L0,-3.0L2.5,-0.5"/>
                </g>
                <g id="arrowLeft" xlink:href="#dirArrow" transform="rotate(270) translate(-36 17)" onmousedown="handlePan(-1,0)">
                  <use xlink:href="#rim" fill="#404040">
                        <set attributeName="fill" to="#808080" begin="arrowLeft.mouseover" end="arrowLeft.mouseout"/>
                  </use>
                  <path fill="none" stroke="white" stroke-width="1.5" d="M0,-3.0v7 M-2.5,-0.5L0,-3.0L2.5,-0.5"/>
                </g>
        </g>
        <svg viewBox="0 0 15 15" width="100%" height="30px" preserveAspectRatio="xMaxYMin meet">
         <g id="arrow_out" transform="scale(0.3 0.3)">
          <a xlink:href="AutocompletePopup_8h__dep__incl_org.svg" target="_base">
           <rect id="button" ry="5" rx="5" y="6" x="6" height="38" width="38"
                fill="#f2f5e9" fill-opacity="0.5" stroke="#606060" stroke-width="1.0"/>
           <path id="arrow"
             d="M 11.500037,31.436501 C 11.940474,20.09759 22.043105,11.32322 32.158766,21.979434 L 37.068811,17.246167 C 37.068811,17.246167 37.088388,32 37.088388,32 L 22.160133,31.978069 C 22.160133,31.978069 26.997745,27.140456 26.997745,27.140456 C 18.528582,18.264221 13.291696,25.230495 11.500037,31.436501 z"
             style="fill:#404040;"/>
          </a>
         </g>
        </svg>
</svg>
