<?xml version="1.0" encoding="UTF-8" standalone="no"?>
<!DOCTYPE svg PUBLIC "-//W3C//DTD SVG 1.1//EN"
 "http://www.w3.org/Graphics/SVG/1.1/DTD/svg11.dtd">
<!-- Generated by graphviz version 2.43.0 (0)
 -->
<!-- Title: src/Autocomplete.h Pages: 1 -->
<!--zoomable 302 -->
<svg id="main" version="1.1" xmlns="http://www.w3.org/2000/svg" xmlns:xlink="http://www.w3.org/1999/xlink" xml:space="preserve" onload="init(evt)">
<style type="text/css"><![CDATA[
.edge:hover path { stroke: red; }
.edge:hover polygon { stroke: red; fill: red; }
]]></style>
<script type="text/javascript"><![CDATA[
var edges = document.getElementsByTagName('g');
if (edges && edges.length) {
  for (var i=0;i<edges.length;i++) {
    if (edges[i].id.substr(0,4)=='edge') {
      edges[i].setAttribute('class','edge');
    }
  }
}
]]></script>
        <defs>
                <circle id="rim" cx="0" cy="0" r="7"/>
                <circle id="rim2" cx="0" cy="0" r="3.5"/>
                <g id="zoomPlus">
                        <use xlink:href="#rim" fill="#404040">
                                <set attributeName="fill" to="#808080" begin="zoomplus.mouseover" end="zoomplus.mouseout"/>
                        </use>
                        <path d="M-4,0h8M0,-4v8" fill="none" stroke="white" stroke-width="1.5" pointer-events="none"/>
                </g>
                <g id="zoomMin">
                        <use xlink:href="#rim" fill="#404040">
                                <set attributeName="fill" to="#808080" begin="zoomminus.mouseover" end="zoomminus.mouseout"/>
                        </use>
                        <path d="M-4,0h8" fill="none" stroke="white" stroke-width="1.5" pointer-events="none"/>
                </g>
                <g id="dirArrow">
                        <path fill="none" stroke="white" stroke-width="1.5" d="M0,-3.0v7 M-2.5,-0.5L0,-3.0L2.5,-0.5"/>
                </g>
               <g id="resetDef">
                       <use xlink:href="#rim2" fill="#404040">
                               <set attributeName="fill" to="#808080" begin="reset.mouseover" end="reset.mouseout"/>
                       </use>
               </g>
        </defs>

<script type="text/javascript">
var viewWidth = 1807;
var viewHeight = 302;
var sectionId = 'dynsection-0';
</script>
<script xlink:href="svgpan.js"/>
<svg id="graph" class="graph">
<g id="viewport">
<title>src/Autocomplete.h</title>
<!-- Node1 -->
<g id="node1" class="node">
<title>Node1</title>
<g id="a_node1"><a xlink:title="This file declares the class AutoComplete.">
<polygon fill="#999999" stroke="#666666" points="706.5,-294 595.5,-294 595.5,-275 706.5,-275 706.5,-294"/>
<text text-anchor="middle" x="651" y="-282" font-family="Helvetica,sans-Serif" font-size="10.00">src/Autocomplete.h</text>
</a>
</g>
</g>
<!-- Node2 -->
<g id="node2" class="node">
<title>Node2</title>
<g id="a_node2"><a xlink:title=" ">
<polygon fill="#e0e0e0" stroke="#999999" points="154,-239 106,-239 106,-220 154,-220 154,-239"/>
<text text-anchor="middle" x="130" y="-227" font-family="Helvetica,sans-Serif" font-size="10.00">thread</text>
</a>
</g>
</g>
<!-- Node1&#45;&gt;Node2 -->
<g id="edge1" class="edge">
<title>Node1&#45;&gt;Node2</title>
<path fill="none" stroke="#63b8ff" d="M595.3,-280.69C505.11,-275.63 321.69,-263.17 168,-239 166.72,-238.8 165.42,-238.58 164.11,-238.35"/>
<polygon fill="#63b8ff" stroke="#63b8ff" points="164.52,-234.86 154.03,-236.36 163.17,-241.73 164.52,-234.86"/>
</g>
<!-- Node3 -->
<g id="node3" class="node">
<title>Node3</title>
<g id="a_node3"><a xlink:title=" ">
<polygon fill="#e0e0e0" stroke="#999999" points="64,-74 0,-74 0,-55 64,-55 64,-74"/>
<text text-anchor="middle" x="32" y="-62" font-family="Helvetica,sans-Serif" font-size="10.00">algorithm</text>
</a>
</g>
</g>
<!-- Node1&#45;&gt;Node3 -->
<g id="edge2" class="edge">
<title>Node1&#45;&gt;Node3</title>
<path fill="none" stroke="#63b8ff" d="M595.21,-282.24C526.09,-279.33 405.41,-269.83 307,-239 256.35,-223.13 246.38,-211.52 201,-184 144.67,-149.84 82.08,-103.63 51.28,-80.29"/>
<polygon fill="#63b8ff" stroke="#63b8ff" points="53.2,-77.36 43.12,-74.08 48.96,-82.93 53.2,-77.36"/>
</g>
<!-- Node4 -->
<g id="node4" class="node">
<title>Node4</title>
<g id="a_node4"><a xlink:title=" ">
<polygon fill="#e0e0e0" stroke="#999999" points="140,-74 82,-74 82,-55 140,-55 140,-74"/>
<text text-anchor="middle" x="111" y="-62" font-family="Helvetica,sans-Serif" font-size="10.00">memory</text>
</a>
</g>
</g>
<!-- Node1&#45;&gt;Node4 -->
<g id="edge3" class="edge">
<title>Node1&#45;&gt;Node4</title>
<path fill="none" stroke="#63b8ff" d="M656,-274.86C663.08,-261.35 673.74,-235.2 660,-220 606.83,-161.17 379.52,-211.1 305,-184 277.49,-174 221.12,-125.04 196,-110 177.12,-98.7 155.1,-87.22 138.2,-78.74"/>
<polygon fill="#63b8ff" stroke="#63b8ff" points="139.42,-75.44 128.9,-74.13 136.3,-81.71 139.42,-75.44"/>
</g>
<!-- Node5 -->
<g id="node5" class="node">
<title>Node5</title>
<g id="a_node5"><a xlink:title=" ">
<polygon fill="#e0e0e0" stroke="#999999" points="258,-184 210,-184 210,-165 258,-165 258,-184"/>
<text text-anchor="middle" x="234" y="-172" font-family="Helvetica,sans-Serif" font-size="10.00">mutex</text>
</a>
</g>
</g>
<!-- Node1&#45;&gt;Node5 -->
<g id="edge4" class="edge">
<title>Node1&#45;&gt;Node5</title>
<path fill="none" stroke="#63b8ff" d="M595.45,-280.68C535,-276.35 436.12,-265.55 355,-239 317.98,-226.88 278.67,-204.19 255.24,-189.47"/>
<polygon fill="#63b8ff" stroke="#63b8ff" points="257.1,-186.5 246.79,-184.07 253.33,-192.4 257.1,-186.5"/>
</g>
<!-- Node6 -->
<g id="node6" class="node">
<title>Node6</title>
<g id="a_node6"><a xlink:title=" ">
<polygon fill="#e0e0e0" stroke="#999999" points="364,-184 314,-184 314,-165 364,-165 364,-184"/>
<text text-anchor="middle" x="339" y="-172" font-family="Helvetica,sans-Serif" font-size="10.00">atomic</text>
</a>
</g>
</g>
<!-- Node1&#45;&gt;Node6 -->
<g id="edge5" class="edge">
<title>Node1&#45;&gt;Node6</title>
<path fill="none" stroke="#63b8ff" d="M595.35,-279.97C525.81,-274.64 411.69,-262.54 377,-239 361.09,-228.2 350.79,-208.32 344.99,-193.68"/>
<polygon fill="#63b8ff" stroke="#63b8ff" points="348.23,-192.35 341.53,-184.14 341.65,-194.73 348.23,-192.35"/>
</g>
<!-- Node7 -->
<g id="node7" class="node">
<title>Node7</title>
<g id="a_node7"><a xlink:title=" ">
<polygon fill="#e0e0e0" stroke="#999999" points="439.5,-184 382.5,-184 382.5,-165 439.5,-165 439.5,-184"/>
<text text-anchor="middle" x="411" y="-172" font-family="Helvetica,sans-Serif" font-size="10.00">wx/wx.h</text>
</a>
</g>
</g>
<!-- Node1&#45;&gt;Node7 -->
<g id="edge6" class="edge">
<title>Node1&#45;&gt;Node7</title>
<path fill="none" stroke="#63b8ff" d="M595.43,-282.24C526.01,-279.37 413.15,-269.92 387,-239 375.53,-225.44 385.89,-205.83 396.34,-192"/>
<polygon fill="#63b8ff" stroke="#63b8ff" points="399.06,-194.21 402.67,-184.24 393.64,-189.78 399.06,-194.21"/>
</g>
<!-- Node8 -->
<g id="node8" class="node">
<title>Node8</title>
<g id="a_node8"><a xlink:title=" ">
<polygon fill="#e0e0e0" stroke="#999999" points="488.5,-239 405.5,-239 405.5,-220 488.5,-220 488.5,-239"/>
<text text-anchor="middle" x="447" y="-227" font-family="Helvetica,sans-Serif" font-size="10.00">wx/xml/xml.h</text>
</a>
</g>
</g>
<!-- Node1&#45;&gt;Node8 -->
<g id="edge7" class="edge">
<title>Node1&#45;&gt;Node8</title>
<path fill="none" stroke="#63b8ff" d="M618.22,-274.98C583.38,-265.93 528.13,-251.58 489.86,-241.64"/>
<polygon fill="#63b8ff" stroke="#63b8ff" points="490.59,-238.21 480.03,-239.08 488.83,-244.98 490.59,-238.21"/>
</g>
<!-- Node9 -->
<g id="node9" class="node">
<title>Node9</title>
<g id="a_node9"><a xlink:title=" ">
<polygon fill="#e0e0e0" stroke="#999999" points="577.5,-239 506.5,-239 506.5,-220 577.5,-220 577.5,-239"/>
<text text-anchor="middle" x="542" y="-227" font-family="Helvetica,sans-Serif" font-size="10.00">wx/event.h</text>
</a>
</g>
</g>
<!-- Node1&#45;&gt;Node9 -->
<g id="edge8" class="edge">
<title>Node1&#45;&gt;Node9</title>
<path fill="none" stroke="#63b8ff" d="M633.49,-274.98C616.03,-266.5 588.99,-253.35 568.83,-243.54"/>
<polygon fill="#63b8ff" stroke="#63b8ff" points="570.36,-240.4 559.83,-239.17 567.29,-246.69 570.36,-240.4"/>
</g>
<!-- Node10 -->
<g id="node10" class="node">
<title>Node10</title>
<g id="a_node10"><a xlink:title=" ">
<polygon fill="#e0e0e0" stroke="#999999" points="650.5,-239 595.5,-239 595.5,-220 650.5,-220 650.5,-239"/>
<text text-anchor="middle" x="623" y="-227" font-family="Helvetica,sans-Serif" font-size="10.00">wx/dir.h</text>
</a>
</g>
</g>
<!-- Node1&#45;&gt;Node10 -->
<g id="edge9" class="edge">
<title>Node1&#45;&gt;Node10</title>
<path fill="none" stroke="#63b8ff" d="M646.38,-274.75C642.54,-267.49 636.98,-256.95 632.24,-247.98"/>
<polygon fill="#63b8ff" stroke="#63b8ff" points="635.3,-246.3 627.54,-239.09 629.11,-249.57 635.3,-246.3"/>
</g>
<!-- Node11 -->
<g id="node11" class="node">
<title>Node11</title>
<g id="a_node11"><a xlink:title=" ">
<polygon fill="#e0e0e0" stroke="#999999" points="504.5,-184 457.5,-184 457.5,-165 504.5,-165 504.5,-184"/>
<text text-anchor="middle" x="481" y="-172" font-family="Helvetica,sans-Serif" font-size="10.00">vector</text>
</a>
</g>
</g>
<!-- Node1&#45;&gt;Node11 -->
<g id="edge10" class="edge">
<title>Node1&#45;&gt;Node11</title>
<path fill="none" stroke="#63b8ff" d="M595.49,-281.82C528.53,-278.49 421.84,-268.57 397,-239 377.95,-216.33 416.63,-196.93 447.62,-185.73"/>
<polygon fill="#63b8ff" stroke="#63b8ff" points="449.01,-188.95 457.33,-182.39 446.73,-182.34 449.01,-188.95"/>
</g>
<!-- Node12 -->
<g id="node12" class="node">
<title>Node12</title>
<g id="a_node12"><a xlink:title=" ">
<polygon fill="#e0e0e0" stroke="#999999" points="780.5,-239 707.5,-239 707.5,-220 780.5,-220 780.5,-239"/>
<text text-anchor="middle" x="744" y="-227" font-family="Helvetica,sans-Serif" font-size="10.00">wx/object.h</text>
</a>
</g>
</g>
<!-- Node1&#45;&gt;Node12 -->
<g id="edge11" class="edge">
<title>Node1&#45;&gt;Node12</title>
<path fill="none" stroke="#63b8ff" d="M665.94,-274.98C680.5,-266.69 702.87,-253.94 719.93,-244.22"/>
<polygon fill="#63b8ff" stroke="#63b8ff" points="721.83,-247.16 728.79,-239.17 718.36,-241.08 721.83,-247.16"/>
</g>
<!-- Node13 -->
<g id="node13" class="node">
<title>Node13</title>
<g id="a_node13"><a xlink:title=" ">
<polygon fill="#e0e0e0" stroke="#999999" points="869.5,-239 798.5,-239 798.5,-220 869.5,-220 869.5,-239"/>
<text text-anchor="middle" x="834" y="-227" font-family="Helvetica,sans-Serif" font-size="10.00">wx/regex.h</text>
</a>
</g>
</g>
<!-- Node1&#45;&gt;Node13 -->
<g id="edge12" class="edge">
<title>Node1&#45;&gt;Node13</title>
<path fill="none" stroke="#63b8ff" d="M680.4,-274.98C711.39,-266.01 760.38,-251.82 794.67,-241.89"/>
<polygon fill="#63b8ff" stroke="#63b8ff" points="795.74,-245.23 804.37,-239.08 793.79,-238.5 795.74,-245.23"/>
</g>
<!-- Node14 -->
<g id="node14" class="node">
<title>Node14</title>
<g id="a_node14"><a xlink:title=" ">
<polygon fill="#e0e0e0" stroke="#999999" points="974,-239 888,-239 888,-220 974,-220 974,-239"/>
<text text-anchor="middle" x="931" y="-227" font-family="Helvetica,sans-Serif" font-size="10.00">wx/filename.h</text>
</a>
</g>
</g>
<!-- Node1&#45;&gt;Node14 -->
<g id="edge13" class="edge">
<title>Node1&#45;&gt;Node14</title>
<path fill="none" stroke="#63b8ff" d="M695.99,-274.98C745.55,-265.6 825.2,-250.53 877.82,-240.57"/>
<polygon fill="#63b8ff" stroke="#63b8ff" points="878.79,-243.94 887.96,-238.65 877.49,-237.07 878.79,-243.94"/>
</g>
<!-- Node15 -->
<g id="node15" class="node">
<title>Node15</title>
<g id="a_node15"><a xlink:title=" ">
<polygon fill="#e0e0e0" stroke="#999999" points="1408,-129 1320,-129 1320,-110 1408,-110 1408,-129"/>
<text text-anchor="middle" x="1364" y="-117" font-family="Helvetica,sans-Serif" font-size="10.00">wx/hashmap.h</text>
</a>
</g>
</g>
<!-- Node1&#45;&gt;Node15 -->
<g id="edge14" class="edge">
<title>Node1&#45;&gt;Node15</title>
<path fill="none" stroke="#63b8ff" d="M706.6,-280.17C869.38,-269.83 1336.15,-235.88 1379,-184 1389.67,-171.09 1383.01,-151.9 1375.48,-138"/>
<polygon fill="#63b8ff" stroke="#63b8ff" points="1378.45,-136.16 1370.33,-129.37 1372.44,-139.75 1378.45,-136.16"/>
</g>
<!-- Node16 -->
<g id="node16" class="node">
<title>Node16</title>
<g id="a_node16"><a xlink:href="Configuration_8h_source.html" target="_top" xlink:title=" ">
<polygon fill="white" stroke="#666666" points="1083.5,-239 992.5,-239 992.5,-220 1083.5,-220 1083.5,-239"/>
<text text-anchor="middle" x="1038" y="-227" font-family="Helvetica,sans-Serif" font-size="10.00">Configuration.h</text>
</a>
</g>
</g>
<!-- Node1&#45;&gt;Node16 -->
<g id="edge15" class="edge">
<title>Node1&#45;&gt;Node16</title>
<path fill="none" stroke="#63b8ff" d="M706.56,-276.4C770.47,-268.15 878.83,-253.94 982.39,-239.06"/>
<polygon fill="#63b8ff" stroke="#63b8ff" points="982.99,-242.51 992.39,-237.62 982,-235.58 982.99,-242.51"/>
</g>
<!-- Node17 -->
<g id="node17" class="node">
<title>Node17</title>
<g id="a_node17"><a xlink:href="precomp_8h_source.html" target="_top" xlink:title=" ">
<polygon fill="white" stroke="#666666" points="1738,-74 1670,-74 1670,-55 1738,-55 1738,-74"/>
<text text-anchor="middle" x="1704" y="-62" font-family="Helvetica,sans-Serif" font-size="10.00">precomp.h</text>
</a>
</g>
</g>
<!-- Node1&#45;&gt;Node17 -->
<g id="edge71" class="edge">
<title>Node1&#45;&gt;Node17</title>
<path fill="none" stroke="#63b8ff" d="M706.71,-282.23C915.41,-276.93 1642.74,-253.58 1717,-184 1741.26,-161.26 1736.14,-142.24 1728,-110 1725.59,-100.44 1720.67,-90.7 1715.91,-82.78"/>
<polygon fill="#63b8ff" stroke="#63b8ff" points="1718.72,-80.68 1710.37,-74.16 1712.83,-84.46 1718.72,-80.68"/>
</g>
<!-- Node18 -->
<g id="node18" class="node">
<title>Node18</title>
<g id="a_node18"><a xlink:title=" ">
<polygon fill="#e0e0e0" stroke="#999999" points="1792,-19 1730,-19 1730,0 1792,0 1792,-19"/>
<text text-anchor="middle" x="1761" y="-7" font-family="Helvetica,sans-Serif" font-size="10.00">Version.h</text>
</a>
</g>
</g>
<!-- Node1&#45;&gt;Node18 -->
<g id="edge72" class="edge">
<title>Node1&#45;&gt;Node18</title>
<path fill="none" stroke="#63b8ff" d="M706.79,-282.21C876.82,-278.05 1386.94,-263.8 1551,-239 1663.5,-221.99 1799,-289.28 1799,-175.5 1799,-175.5 1799,-175.5 1799,-118.5 1799,-85.02 1782.55,-48.84 1771.3,-28.01"/>
<polygon fill="#63b8ff" stroke="#63b8ff" points="1774.24,-26.1 1766.28,-19.1 1768.13,-29.53 1774.24,-26.1"/>
</g>
<!-- Node45 -->
<g id="node45" class="node">
<title>Node45</title>
<g id="a_node45"><a xlink:title=" ">
<polygon fill="#e0e0e0" stroke="#999999" points="1432.5,-74 1339.5,-74 1339.5,-55 1432.5,-55 1432.5,-74"/>
<text text-anchor="middle" x="1386" y="-62" font-family="Helvetica,sans-Serif" font-size="10.00">unordered_map</text>
</a>
</g>
</g>
<!-- Node1&#45;&gt;Node45 -->
<g id="edge73" class="edge">
<title>Node1&#45;&gt;Node45</title>
<path fill="none" stroke="#63b8ff" d="M706.84,-283.66C811.62,-282.99 1044.4,-276.9 1236,-239 1313.49,-223.67 1345.33,-235.76 1405,-184 1431.45,-161.06 1445.67,-142.23 1432,-110 1427.02,-98.25 1417.25,-88.09 1407.99,-80.45"/>
<polygon fill="#63b8ff" stroke="#63b8ff" points="1409.85,-77.47 1399.78,-74.18 1405.6,-83.03 1409.85,-77.47"/>
</g>
<!-- Node16&#45;&gt;Node3 -->
<g id="edge68" class="edge">
<title>Node16&#45;&gt;Node3</title>
<path fill="none" stroke="#63b8ff" d="M992.42,-221.2C989.23,-220.77 986.07,-220.37 983,-220 792.56,-197.34 737.91,-234.86 553,-184 534.41,-178.89 532.37,-170.85 514,-165 420.43,-135.18 392.25,-148.5 296,-129 217.17,-113.03 126.14,-90.14 74.2,-76.65"/>
<polygon fill="#63b8ff" stroke="#63b8ff" points="74.91,-73.22 64.35,-74.08 73.14,-79.99 74.91,-73.22"/>
</g>
<!-- Node16&#45;&gt;Node4 -->
<g id="edge62" class="edge">
<title>Node16&#45;&gt;Node4</title>
<path fill="none" stroke="#63b8ff" d="M992.48,-220.54C906.62,-205.58 723.67,-173.97 660,-165 520.03,-145.28 480.58,-165.41 344,-129 323.42,-123.51 320.22,-116.69 300,-110 285.89,-105.33 201.53,-85.98 150.4,-74.39"/>
<polygon fill="#63b8ff" stroke="#63b8ff" points="150.87,-70.9 140.34,-72.11 149.32,-77.73 150.87,-70.9"/>
</g>
<!-- Node16&#45;&gt;Node5 -->
<g id="edge63" class="edge">
<title>Node16&#45;&gt;Node5</title>
<path fill="none" stroke="#63b8ff" d="M992.43,-221.1C989.24,-220.69 986.08,-220.32 983,-220 682.85,-188.92 605.64,-209.95 305,-184 293.07,-182.97 280.05,-181.51 268.45,-180.09"/>
<polygon fill="#63b8ff" stroke="#63b8ff" points="268.63,-176.58 258.28,-178.81 267.76,-183.53 268.63,-176.58"/>
</g>
<!-- Node16&#45;&gt;Node6 -->
<g id="edge69" class="edge">
<title>Node16&#45;&gt;Node6</title>
<path fill="none" stroke="#63b8ff" d="M992.42,-221.12C989.24,-220.71 986.07,-220.33 983,-220 713.39,-191.26 642.15,-224.16 374,-184 373.9,-183.98 373.8,-183.97 373.7,-183.95"/>
<polygon fill="#63b8ff" stroke="#63b8ff" points="374.6,-180.56 364.13,-182.17 373.32,-187.44 374.6,-180.56"/>
</g>
<!-- Node16&#45;&gt;Node7 -->
<g id="edge18" class="edge">
<title>Node16&#45;&gt;Node7</title>
<path fill="none" stroke="#63b8ff" d="M992.42,-221.15C989.24,-220.73 986.07,-220.34 983,-220 749.81,-194.17 686.15,-217.41 449.49,-183.81"/>
<polygon fill="#63b8ff" stroke="#63b8ff" points="449.94,-180.34 439.55,-182.38 448.95,-187.26 449.94,-180.34"/>
</g>
<!-- Node16&#45;&gt;Node11 -->
<g id="edge67" class="edge">
<title>Node16&#45;&gt;Node11</title>
<path fill="none" stroke="#63b8ff" d="M992.42,-221.18C989.23,-220.76 986.07,-220.36 983,-220 777.53,-196.19 723.56,-214.65 519,-184 517.54,-183.78 516.05,-183.54 514.55,-183.27"/>
<polygon fill="#63b8ff" stroke="#63b8ff" points="515.11,-179.82 504.62,-181.33 513.76,-186.69 515.11,-179.82"/>
</g>
<!-- Node16&#45;&gt;Node15 -->
<g id="edge22" class="edge">
<title>Node16&#45;&gt;Node15</title>
<path fill="none" stroke="#63b8ff" d="M1083.81,-225.08C1131.55,-220.28 1207.8,-209.14 1269,-184 1298.33,-171.95 1328.07,-150.19 1346.27,-135.55"/>
<polygon fill="#63b8ff" stroke="#63b8ff" points="1348.73,-138.06 1354.23,-129 1344.28,-132.65 1348.73,-138.06"/>
</g>
<!-- Node16&#45;&gt;Node17 -->
<g id="edge16" class="edge">
<title>Node16&#45;&gt;Node17</title>
<path fill="none" stroke="#63b8ff" d="M1083.89,-228.83C1226.35,-229.37 1654,-227.36 1697,-184 1723.03,-157.75 1716.02,-110.11 1709.49,-83.94"/>
<polygon fill="#63b8ff" stroke="#63b8ff" points="1712.83,-82.89 1706.82,-74.16 1706.08,-84.73 1712.83,-82.89"/>
</g>
<!-- Node19 -->
<g id="node19" class="node">
<title>Node19</title>
<g id="a_node19"><a xlink:title=" ">
<polygon fill="#e0e0e0" stroke="#999999" points="1188,-129 1116,-129 1116,-110 1188,-110 1188,-129"/>
<text text-anchor="middle" x="1152" y="-117" font-family="Helvetica,sans-Serif" font-size="10.00">wx/config.h</text>
</a>
</g>
</g>
<!-- Node16&#45;&gt;Node19 -->
<g id="edge19" class="edge">
<title>Node16&#45;&gt;Node19</title>
<path fill="none" stroke="#63b8ff" d="M1044.08,-219.67C1053.19,-206.81 1071.3,-182.55 1090,-165 1102.01,-153.73 1116.98,-142.91 1129.2,-134.76"/>
<polygon fill="#63b8ff" stroke="#63b8ff" points="1131.44,-137.48 1137.91,-129.09 1127.62,-131.61 1131.44,-137.48"/>
</g>
<!-- Node20 -->
<g id="node20" class="node">
<title>Node20</title>
<g id="a_node20"><a xlink:title=" ">
<polygon fill="#e0e0e0" stroke="#999999" points="1037.5,-184 960.5,-184 960.5,-165 1037.5,-165 1037.5,-184"/>
<text text-anchor="middle" x="999" y="-172" font-family="Helvetica,sans-Serif" font-size="10.00">wx/display.h</text>
</a>
</g>
</g>
<!-- Node16&#45;&gt;Node20 -->
<g id="edge20" class="edge">
<title>Node16&#45;&gt;Node20</title>
<path fill="none" stroke="#63b8ff" d="M1031.56,-219.75C1026.11,-212.34 1018.14,-201.5 1011.44,-192.41"/>
<polygon fill="#63b8ff" stroke="#63b8ff" points="1014.07,-190.07 1005.32,-184.09 1008.43,-194.22 1014.07,-190.07"/>
</g>
<!-- Node21 -->
<g id="node21" class="node">
<title>Node21</title>
<g id="a_node21"><a xlink:title=" ">
<polygon fill="#e0e0e0" stroke="#999999" points="1260,-184 1170,-184 1170,-165 1260,-165 1260,-184"/>
<text text-anchor="middle" x="1215" y="-172" font-family="Helvetica,sans-Serif" font-size="10.00">wx/fontenum.h</text>
</a>
</g>
</g>
<!-- Node16&#45;&gt;Node21 -->
<g id="edge21" class="edge">
<title>Node16&#45;&gt;Node21</title>
<path fill="none" stroke="#63b8ff" d="M1066.44,-219.98C1096.28,-211.05 1143.38,-196.94 1176.53,-187.02"/>
<polygon fill="#63b8ff" stroke="#63b8ff" points="1177.76,-190.3 1186.34,-184.08 1175.76,-183.6 1177.76,-190.3"/>
</g>
<!-- Node22 -->
<g id="node22" class="node">
<title>Node22</title>
<g id="a_node22"><a xlink:href="LoggingMessageDialog_8h.html" target="_top" xlink:title="This file declares a message dialog that sends its contents to the log message sink.">
<polygon fill="white" stroke="#666666" points="1687.5,-184 1510.5,-184 1510.5,-165 1687.5,-165 1687.5,-184"/>
<text text-anchor="middle" x="1599" y="-172" font-family="Helvetica,sans-Serif" font-size="10.00">dialogs/LoggingMessageDialog.h</text>
</a>
</g>
</g>
<!-- Node16&#45;&gt;Node22 -->
<g id="edge23" class="edge">
<title>Node16&#45;&gt;Node22</title>
<path fill="none" stroke="#63b8ff" d="M1083.91,-224.16C1174.46,-215.61 1377.88,-196.39 1500.25,-184.83"/>
<polygon fill="#63b8ff" stroke="#63b8ff" points="1500.75,-188.3 1510.38,-183.87 1500.09,-181.33 1500.75,-188.3"/>
</g>
<!-- Node25 -->
<g id="node25" class="node">
<title>Node25</title>
<g id="a_node25"><a xlink:href="TextStyle_8h.html" target="_top" xlink:title="This file declares everything needed for the text style system used to style all the elements on the ...">
<polygon fill="white" stroke="#666666" points="889,-184 793,-184 793,-165 889,-165 889,-184"/>
<text text-anchor="middle" x="841" y="-172" font-family="Helvetica,sans-Serif" font-size="10.00">cells/TextStyle.h</text>
</a>
</g>
</g>
<!-- Node16&#45;&gt;Node25 -->
<g id="edge27" class="edge">
<title>Node16&#45;&gt;Node25</title>
<path fill="none" stroke="#63b8ff" d="M1006.35,-219.98C972.84,-210.97 919.8,-196.7 882.86,-186.76"/>
<polygon fill="#63b8ff" stroke="#63b8ff" points="883.47,-183.3 872.9,-184.08 881.65,-190.06 883.47,-183.3"/>
</g>
<!-- Node32 -->
<g id="node32" class="node">
<title>Node32</title>
<g id="a_node32"><a xlink:title=" ">
<polygon fill="#e0e0e0" stroke="#999999" points="842,-74 792,-74 792,-55 842,-55 842,-74"/>
<text text-anchor="middle" x="817" y="-62" font-family="Helvetica,sans-Serif" font-size="10.00">cstdint</text>
</a>
</g>
</g>
<!-- Node16&#45;&gt;Node32 -->
<g id="edge61" class="edge">
<title>Node16&#45;&gt;Node32</title>
<path fill="none" stroke="#63b8ff" d="M1047.73,-219.96C1062.75,-207.04 1092.81,-182.2 1121,-165 1152.91,-145.54 1177.01,-160.58 1197,-129 1201.52,-121.86 1202.61,-116.31 1197,-110 1174.27,-84.46 942.33,-71.22 852.38,-67.01"/>
<polygon fill="#63b8ff" stroke="#63b8ff" points="852.29,-63.5 842.14,-66.54 851.97,-70.5 852.29,-63.5"/>
</g>
<!-- Node43 -->
<g id="node43" class="node">
<title>Node43</title>
<g id="a_node43"><a xlink:title=" ">
<polygon fill="#e0e0e0" stroke="#999999" points="1081,-74 1049,-74 1049,-55 1081,-55 1081,-74"/>
<text text-anchor="middle" x="1065" y="-62" font-family="Helvetica,sans-Serif" font-size="10.00">list</text>
</a>
</g>
</g>
<!-- Node16&#45;&gt;Node43 -->
<g id="edge66" class="edge">
<title>Node16&#45;&gt;Node43</title>
<path fill="none" stroke="#63b8ff" d="M1054.67,-219.9C1101.3,-195.83 1229.68,-129.53 1230,-129 1261.55,-77.11 1145.76,-67.5 1091.54,-65.81"/>
<polygon fill="#63b8ff" stroke="#63b8ff" points="1091.36,-62.3 1081.28,-65.56 1091.19,-69.3 1091.36,-62.3"/>
</g>
<!-- Node16&#45;&gt;Node45 -->
<g id="edge64" class="edge">
<title>Node16&#45;&gt;Node45</title>
<path fill="none" stroke="#63b8ff" d="M1083.69,-227.08C1164.9,-223.83 1330.4,-213.66 1379,-184 1410.56,-164.74 1428.08,-145.27 1417,-110 1413.77,-99.71 1407.22,-89.72 1400.97,-81.82"/>
<polygon fill="#63b8ff" stroke="#63b8ff" points="1403.61,-79.52 1394.48,-74.15 1398.27,-84.04 1403.61,-79.52"/>
</g>
<!-- Node46 -->
<g id="node46" class="node">
<title>Node46</title>
<g id="a_node46"><a xlink:title=" ">
<polygon fill="#e0e0e0" stroke="#999999" points="1370,-184 1316,-184 1316,-165 1370,-165 1370,-184"/>
<text text-anchor="middle" x="1343" y="-172" font-family="Helvetica,sans-Serif" font-size="10.00">random</text>
</a>
</g>
</g>
<!-- Node16&#45;&gt;Node46 -->
<g id="edge65" class="edge">
<title>Node16&#45;&gt;Node46</title>
<path fill="none" stroke="#63b8ff" d="M1083.88,-221.3C1136.61,-212.9 1225.71,-198.33 1302,-184 1303.25,-183.77 1304.51,-183.52 1305.79,-183.28"/>
<polygon fill="#63b8ff" stroke="#63b8ff" points="1306.55,-186.69 1315.68,-181.31 1305.19,-179.83 1306.55,-186.69"/>
</g>
<!-- Node47 -->
<g id="node47" class="node">
<title>Node47</title>
<g id="a_node47"><a xlink:title=" ">
<polygon fill="#e0e0e0" stroke="#999999" points="650.5,-184 561.5,-184 561.5,-165 650.5,-165 650.5,-184"/>
<text text-anchor="middle" x="606" y="-172" font-family="Helvetica,sans-Serif" font-size="10.00">wx/wupdlock.h</text>
</a>
</g>
</g>
<!-- Node16&#45;&gt;Node47 -->
<g id="edge70" class="edge">
<title>Node16&#45;&gt;Node47</title>
<path fill="none" stroke="#63b8ff" d="M992.4,-221.31C989.22,-220.85 986.06,-220.41 983,-220 842.02,-201.13 806.07,-202.14 665,-184 663.7,-183.83 662.39,-183.66 661.06,-183.49"/>
<polygon fill="#63b8ff" stroke="#63b8ff" points="661.14,-179.97 650.76,-182.09 660.2,-186.9 661.14,-179.97"/>
</g>
<!-- Node17&#45;&gt;Node18 -->
<g id="edge17" class="edge">
<title>Node17&#45;&gt;Node18</title>
<path fill="none" stroke="#63b8ff" d="M1713.16,-54.98C1721.5,-47.23 1734.03,-35.58 1744.18,-26.14"/>
<polygon fill="#63b8ff" stroke="#63b8ff" points="1746.74,-28.54 1751.68,-19.17 1741.97,-23.42 1746.74,-28.54"/>
</g>
<!-- Node22&#45;&gt;Node17 -->
<g id="edge24" class="edge">
<title>Node22&#45;&gt;Node17</title>
<path fill="none" stroke="#63b8ff" d="M1616.22,-164.88C1630.75,-157 1651.44,-144.26 1666,-129 1678.86,-115.52 1689.35,-96.93 1696.02,-83.35"/>
<polygon fill="#63b8ff" stroke="#63b8ff" points="1699.28,-84.65 1700.36,-74.11 1692.94,-81.68 1699.28,-84.65"/>
</g>
<!-- Node23 -->
<g id="node23" class="node">
<title>Node23</title>
<g id="a_node23"><a xlink:title=" ">
<polygon fill="#e0e0e0" stroke="#999999" points="1581.5,-129 1502.5,-129 1502.5,-110 1581.5,-110 1581.5,-129"/>
<text text-anchor="middle" x="1542" y="-117" font-family="Helvetica,sans-Serif" font-size="10.00">wx/msgdlg.h</text>
</a>
</g>
</g>
<!-- Node22&#45;&gt;Node23 -->
<g id="edge25" class="edge">
<title>Node22&#45;&gt;Node23</title>
<path fill="none" stroke="#63b8ff" d="M1589.84,-164.98C1581.5,-157.23 1568.97,-145.58 1558.82,-136.14"/>
<polygon fill="#63b8ff" stroke="#63b8ff" points="1561.03,-133.42 1551.32,-129.17 1556.26,-138.54 1561.03,-133.42"/>
</g>
<!-- Node24 -->
<g id="node24" class="node">
<title>Node24</title>
<g id="a_node24"><a xlink:title=" ">
<polygon fill="#e0e0e0" stroke="#999999" points="1657,-129 1599,-129 1599,-110 1657,-110 1657,-129"/>
<text text-anchor="middle" x="1628" y="-117" font-family="Helvetica,sans-Serif" font-size="10.00">wx/log.h</text>
</a>
</g>
</g>
<!-- Node22&#45;&gt;Node24 -->
<g id="edge26" class="edge">
<title>Node22&#45;&gt;Node24</title>
<path fill="none" stroke="#63b8ff" d="M1603.79,-164.75C1607.76,-157.49 1613.53,-146.95 1618.43,-137.98"/>
<polygon fill="#63b8ff" stroke="#63b8ff" points="1621.57,-139.54 1623.3,-129.09 1615.43,-136.18 1621.57,-139.54"/>
</g>
<!-- Node25&#45;&gt;Node15 -->
<g id="edge31" class="edge">
<title>Node25&#45;&gt;Node15</title>
<path fill="none" stroke="#63b8ff" d="M889.28,-169.68C973.86,-162.81 1154.24,-147.37 1306,-129 1307.11,-128.87 1308.23,-128.73 1309.37,-128.58"/>
<polygon fill="#63b8ff" stroke="#63b8ff" points="1310.24,-132 1319.7,-127.23 1309.33,-125.06 1310.24,-132"/>
</g>
<!-- Node25&#45;&gt;Node17 -->
<g id="edge28" class="edge">
<title>Node25&#45;&gt;Node17</title>
<path fill="none" stroke="#63b8ff" d="M889.16,-168.11C957.67,-160.3 1087.14,-145.02 1197,-129 1247.83,-121.59 1260.13,-117.11 1311,-110 1437.07,-92.37 1586.64,-76.94 1659.56,-69.77"/>
<polygon fill="#63b8ff" stroke="#63b8ff" points="1660.14,-73.23 1669.75,-68.77 1659.46,-66.26 1660.14,-73.23"/>
</g>
<!-- Node25&#45;&gt;Node19 -->
<g id="edge34" class="edge">
<title>Node25&#45;&gt;Node19</title>
<path fill="none" stroke="#63b8ff" d="M889.25,-165.28C948.32,-155.21 1047.64,-138.28 1105.77,-128.38"/>
<polygon fill="#63b8ff" stroke="#63b8ff" points="1106.51,-131.8 1115.78,-126.67 1105.34,-124.9 1106.51,-131.8"/>
</g>
<!-- Node26 -->
<g id="node26" class="node">
<title>Node26</title>
<g id="a_node26"><a xlink:title=" ">
<polygon fill="#e0e0e0" stroke="#999999" points="1060,-129 988,-129 988,-110 1060,-110 1060,-129"/>
<text text-anchor="middle" x="1024" y="-117" font-family="Helvetica,sans-Serif" font-size="10.00">wx/colour.h</text>
</a>
</g>
</g>
<!-- Node25&#45;&gt;Node26 -->
<g id="edge29" class="edge">
<title>Node25&#45;&gt;Node26</title>
<path fill="none" stroke="#63b8ff" d="M870.4,-164.98C901.39,-156.01 950.38,-141.82 984.67,-131.89"/>
<polygon fill="#63b8ff" stroke="#63b8ff" points="985.74,-135.23 994.37,-129.08 983.79,-128.5 985.74,-135.23"/>
</g>
<!-- Node27 -->
<g id="node27" class="node">
<title>Node27</title>
<g id="a_node27"><a xlink:title=" ">
<polygon fill="#e0e0e0" stroke="#999999" points="488,-129 450,-129 450,-110 488,-110 488,-129"/>
<text text-anchor="middle" x="469" y="-117" font-family="Helvetica,sans-Serif" font-size="10.00">map</text>
</a>
</g>
</g>
<!-- Node25&#45;&gt;Node27 -->
<g id="edge30" class="edge">
<title>Node25&#45;&gt;Node27</title>
<path fill="none" stroke="#63b8ff" d="M793,-169.82C728.07,-164.3 608.62,-152.17 498.15,-128.91"/>
<polygon fill="#63b8ff" stroke="#63b8ff" points="498.68,-125.45 488.17,-126.78 497.22,-132.29 498.68,-125.45"/>
</g>
<!-- Node28 -->
<g id="node28" class="node">
<title>Node28</title>
<g id="a_node28"><a xlink:title=" ">
<polygon fill="#e0e0e0" stroke="#999999" points="550,-129 506,-129 506,-110 550,-110 550,-129"/>
<text text-anchor="middle" x="528" y="-117" font-family="Helvetica,sans-Serif" font-size="10.00">string</text>
</a>
</g>
</g>
<!-- Node25&#45;&gt;Node28 -->
<g id="edge32" class="edge">
<title>Node25&#45;&gt;Node28</title>
<path fill="none" stroke="#63b8ff" d="M792.77,-166.84C737.36,-158.93 643.79,-144.81 564,-129 562.72,-128.75 561.43,-128.48 560.11,-128.21"/>
<polygon fill="#63b8ff" stroke="#63b8ff" points="560.55,-124.72 550.03,-125.97 559.03,-131.55 560.55,-124.72"/>
</g>
<!-- Node29 -->
<g id="node29" class="node">
<title>Node29</title>
<g id="a_node29"><a xlink:title=" ">
<polygon fill="#e0e0e0" stroke="#999999" points="869.5,-129 812.5,-129 812.5,-110 869.5,-110 869.5,-129"/>
<text text-anchor="middle" x="841" y="-117" font-family="Helvetica,sans-Serif" font-size="10.00">ostream</text>
</a>
</g>
</g>
<!-- Node25&#45;&gt;Node29 -->
<g id="edge33" class="edge">
<title>Node25&#45;&gt;Node29</title>
<path fill="none" stroke="#63b8ff" d="M841,-164.75C841,-157.8 841,-147.85 841,-139.13"/>
<polygon fill="#63b8ff" stroke="#63b8ff" points="844.5,-139.09 841,-129.09 837.5,-139.09 844.5,-139.09"/>
</g>
<!-- Node30 -->
<g id="node30" class="node">
<title>Node30</title>
<g id="a_node30"><a xlink:title=" ">
<polygon fill="#e0e0e0" stroke="#999999" points="634,-74 572,-74 572,-55 634,-55 634,-74"/>
<text text-anchor="middle" x="603" y="-62" font-family="Helvetica,sans-Serif" font-size="10.00">wx/font.h</text>
</a>
</g>
</g>
<!-- Node25&#45;&gt;Node30 -->
<g id="edge35" class="edge">
<title>Node25&#45;&gt;Node30</title>
<path fill="none" stroke="#63b8ff" d="M792.8,-171.73C729.16,-168.27 622.3,-158.16 598,-129 587.62,-116.54 590.77,-97.53 595.36,-83.55"/>
<polygon fill="#63b8ff" stroke="#63b8ff" points="598.69,-84.63 598.94,-74.03 592.14,-82.16 598.69,-84.63"/>
</g>
<!-- Node31 -->
<g id="node31" class="node">
<title>Node31</title>
<g id="a_node31"><a xlink:title=" ">
<polygon fill="#e0e0e0" stroke="#999999" points="970,-129 888,-129 888,-110 970,-110 970,-129"/>
<text text-anchor="middle" x="929" y="-117" font-family="Helvetica,sans-Serif" font-size="10.00">wx/settings.h</text>
</a>
</g>
</g>
<!-- Node25&#45;&gt;Node31 -->
<g id="edge36" class="edge">
<title>Node25&#45;&gt;Node31</title>
<path fill="none" stroke="#63b8ff" d="M855.14,-164.98C868.79,-156.77 889.69,-144.18 905.78,-134.49"/>
<polygon fill="#63b8ff" stroke="#63b8ff" points="907.84,-137.33 914.6,-129.17 904.23,-131.33 907.84,-137.33"/>
</g>
<!-- Node25&#45;&gt;Node32 -->
<g id="edge37" class="edge">
<title>Node25&#45;&gt;Node32</title>
<path fill="none" stroke="#63b8ff" d="M830.56,-164.87C821.58,-156.7 809.26,-143.55 804,-129 798.63,-114.14 803.06,-96.47 808.16,-83.55"/>
<polygon fill="#63b8ff" stroke="#63b8ff" points="811.39,-84.91 812.22,-74.35 804.98,-82.08 811.39,-84.91"/>
</g>
<!-- Node33 -->
<g id="node33" class="node">
<title>Node33</title>
<g id="a_node33"><a xlink:title=" ">
<polygon fill="#e0e0e0" stroke="#999999" points="635.5,-19 570.5,-19 570.5,0 635.5,0 635.5,-19"/>
<text text-anchor="middle" x="603" y="-7" font-family="Helvetica,sans-Serif" font-size="10.00">functional</text>
</a>
</g>
</g>
<!-- Node25&#45;&gt;Node33 -->
<g id="edge38" class="edge">
<title>Node25&#45;&gt;Node33</title>
<path fill="none" stroke="#63b8ff" d="M831.43,-164.72C822.19,-156.04 808.01,-142.17 797,-129 771.22,-98.16 777.46,-78.71 745,-55 715.7,-33.6 675.81,-22.28 645.77,-16.43"/>
<polygon fill="#63b8ff" stroke="#63b8ff" points="646.05,-12.93 635.59,-14.58 644.8,-19.81 646.05,-12.93"/>
</g>
<!-- Node34 -->
<g id="node34" class="node">
<title>Node34</title>
<g id="a_node34"><a xlink:href="FontAttribs_8h_source.html" target="_top" xlink:title=" ">
<polygon fill="white" stroke="#666666" points="431.5,-129 352.5,-129 352.5,-110 431.5,-110 431.5,-129"/>
<text text-anchor="middle" x="392" y="-117" font-family="Helvetica,sans-Serif" font-size="10.00">FontAttribs.h</text>
</a>
</g>
</g>
<!-- Node25&#45;&gt;Node34 -->
<g id="edge39" class="edge">
<title>Node25&#45;&gt;Node34</title>
<path fill="none" stroke="#63b8ff" d="M792.85,-169.1C719.44,-162.18 574.87,-147.73 441.54,-128.99"/>
<polygon fill="#63b8ff" stroke="#63b8ff" points="441.94,-125.51 431.55,-127.57 440.96,-132.44 441.94,-125.51"/>
</g>
<!-- Node42 -->
<g id="node42" class="node">
<title>Node42</title>
<g id="a_node42"><a xlink:href="FontVariantCache_8h.html" target="_top" xlink:title="This file implements the wxFont cache system.">
<polygon fill="white" stroke="#666666" points="717.5,-129 606.5,-129 606.5,-110 717.5,-110 717.5,-129"/>
<text text-anchor="middle" x="662" y="-117" font-family="Helvetica,sans-Serif" font-size="10.00">FontVariantCache.h</text>
</a>
</g>
</g>
<!-- Node25&#45;&gt;Node42 -->
<g id="edge52" class="edge">
<title>Node25&#45;&gt;Node42</title>
<path fill="none" stroke="#63b8ff" d="M812.24,-164.98C782.06,-156.05 734.43,-141.94 700.9,-132.02"/>
<polygon fill="#63b8ff" stroke="#63b8ff" points="701.57,-128.57 690.98,-129.08 699.58,-135.28 701.57,-128.57"/>
</g>
<!-- Node25&#45;&gt;Node45 -->
<g id="edge60" class="edge">
<title>Node25&#45;&gt;Node45</title>
<path fill="none" stroke="#63b8ff" d="M889.14,-167.96C935.97,-161.68 1008.68,-149.54 1069,-129 1086.87,-122.91 1089.02,-115.78 1107,-110 1181.52,-86.06 1271.54,-74.67 1328.78,-69.49"/>
<polygon fill="#63b8ff" stroke="#63b8ff" points="1329.42,-72.95 1339.08,-68.6 1328.81,-65.98 1329.42,-72.95"/>
</g>
<!-- Node34&#45;&gt;Node3 -->
<g id="edge48" class="edge">
<title>Node34&#45;&gt;Node3</title>
<path fill="none" stroke="#63b8ff" d="M352.33,-113.82C293.71,-106.71 180.28,-92.26 74.11,-74.09"/>
<polygon fill="#63b8ff" stroke="#63b8ff" points="74.64,-70.63 64.19,-72.38 73.45,-77.53 74.64,-70.63"/>
</g>
<!-- Node34&#45;&gt;Node30 -->
<g id="edge46" class="edge">
<title>Node34&#45;&gt;Node30</title>
<path fill="none" stroke="#63b8ff" d="M425.9,-109.98C462.98,-100.67 522.4,-85.75 562.06,-75.78"/>
<polygon fill="#63b8ff" stroke="#63b8ff" points="563.09,-79.13 571.93,-73.3 561.38,-72.35 563.09,-79.13"/>
</g>
<!-- Node34&#45;&gt;Node32 -->
<g id="edge49" class="edge">
<title>Node34&#45;&gt;Node32</title>
<path fill="none" stroke="#63b8ff" d="M431.55,-111.45C434.74,-110.94 437.92,-110.45 441,-110 445.21,-109.39 689.07,-80.6 781.76,-69.66"/>
<polygon fill="#63b8ff" stroke="#63b8ff" points="782.26,-73.12 791.78,-68.48 781.44,-66.17 782.26,-73.12"/>
</g>
<!-- Node34&#45;&gt;Node33 -->
<g id="edge50" class="edge">
<title>Node34&#45;&gt;Node33</title>
<path fill="none" stroke="#63b8ff" d="M429.03,-109.96C456.57,-102.7 494.5,-90.79 525,-74 548.75,-60.93 572.38,-40.36 587.3,-26.19"/>
<polygon fill="#63b8ff" stroke="#63b8ff" points="589.9,-28.54 594.64,-19.07 585.03,-23.52 589.9,-28.54"/>
</g>
<!-- Node35 -->
<g id="node35" class="node">
<title>Node35</title>
<g id="a_node35"><a xlink:href="EnumWrapper_8h_source.html" target="_top" xlink:title=" ">
<polygon fill="white" stroke="#666666" points="418,-74 324,-74 324,-55 418,-55 418,-74"/>
<text text-anchor="middle" x="371" y="-62" font-family="Helvetica,sans-Serif" font-size="10.00">EnumWrapper.h</text>
</a>
</g>
</g>
<!-- Node34&#45;&gt;Node35 -->
<g id="edge40" class="edge">
<title>Node34&#45;&gt;Node35</title>
<path fill="none" stroke="#63b8ff" d="M388.53,-109.75C385.72,-102.65 381.66,-92.4 378.15,-83.56"/>
<polygon fill="#63b8ff" stroke="#63b8ff" points="381.34,-82.1 374.4,-74.09 374.83,-84.68 381.34,-82.1"/>
</g>
<!-- Node38 -->
<g id="node38" class="node">
<title>Node38</title>
<g id="a_node38"><a xlink:href="clamp_8hpp_source.html" target="_top" xlink:title=" ">
<polygon fill="white" stroke="#666666" points="306,-74 220,-74 220,-55 306,-55 306,-74"/>
<text text-anchor="middle" x="263" y="-62" font-family="Helvetica,sans-Serif" font-size="10.00">stx/clamp.hpp</text>
</a>
</g>
</g>
<!-- Node34&#45;&gt;Node38 -->
<g id="edge44" class="edge">
<title>Node34&#45;&gt;Node38</title>
<path fill="none" stroke="#63b8ff" d="M371.27,-109.98C350.24,-101.34 317.45,-87.87 293.46,-78.02"/>
<polygon fill="#63b8ff" stroke="#63b8ff" points="294.68,-74.73 284.1,-74.17 292.02,-81.21 294.68,-74.73"/>
</g>
<!-- Node40 -->
<g id="node40" class="node">
<title>Node40</title>
<g id="a_node40"><a xlink:title=" ">
<polygon fill="#e0e0e0" stroke="#999999" points="515.5,-74 436.5,-74 436.5,-55 515.5,-55 515.5,-74"/>
<text text-anchor="middle" x="476" y="-62" font-family="Helvetica,sans-Serif" font-size="10.00">wx/version.h</text>
</a>
</g>
</g>
<!-- Node34&#45;&gt;Node40 -->
<g id="edge47" class="edge">
<title>Node34&#45;&gt;Node40</title>
<path fill="none" stroke="#63b8ff" d="M405.5,-109.98C418.4,-101.84 438.1,-89.41 453.4,-79.76"/>
<polygon fill="#63b8ff" stroke="#63b8ff" points="455.67,-82.47 462.26,-74.17 451.93,-76.55 455.67,-82.47"/>
</g>
<!-- Node41 -->
<g id="node41" class="node">
<title>Node41</title>
<g id="a_node41"><a xlink:title=" ">
<polygon fill="#e0e0e0" stroke="#999999" points="202,-74 158,-74 158,-55 202,-55 202,-74"/>
<text text-anchor="middle" x="180" y="-62" font-family="Helvetica,sans-Serif" font-size="10.00">limits</text>
</a>
</g>
</g>
<!-- Node34&#45;&gt;Node41 -->
<g id="edge51" class="edge">
<title>Node34&#45;&gt;Node41</title>
<path fill="none" stroke="#63b8ff" d="M356.21,-110C321.72,-101.74 267.81,-88.66 212.34,-74.3"/>
<polygon fill="#63b8ff" stroke="#63b8ff" points="212.89,-70.83 202.33,-71.7 211.13,-77.6 212.89,-70.83"/>
</g>
<!-- Node35&#45;&gt;Node33 -->
<g id="edge42" class="edge">
<title>Node35&#45;&gt;Node33</title>
<path fill="none" stroke="#63b8ff" d="M408.27,-54.98C449.78,-45.5 516.74,-30.21 560.31,-20.25"/>
<polygon fill="#63b8ff" stroke="#63b8ff" points="561.35,-23.61 570.32,-17.97 559.79,-16.78 561.35,-23.61"/>
</g>
<!-- Node36 -->
<g id="node36" class="node">
<title>Node36</title>
<g id="a_node36"><a xlink:title=" ">
<polygon fill="#e0e0e0" stroke="#999999" points="462.5,-19 409.5,-19 409.5,0 462.5,0 462.5,-19"/>
<text text-anchor="middle" x="436" y="-7" font-family="Helvetica,sans-Serif" font-size="10.00">cstddef</text>
</a>
</g>
</g>
<!-- Node35&#45;&gt;Node36 -->
<g id="edge41" class="edge">
<title>Node35&#45;&gt;Node36</title>
<path fill="none" stroke="#63b8ff" d="M381.44,-54.98C391.15,-47.07 405.82,-35.11 417.5,-25.58"/>
<polygon fill="#63b8ff" stroke="#63b8ff" points="419.83,-28.2 425.37,-19.17 415.4,-22.78 419.83,-28.2"/>
</g>
<!-- Node37 -->
<g id="node37" class="node">
<title>Node37</title>
<g id="a_node37"><a xlink:title=" ">
<polygon fill="#e0e0e0" stroke="#999999" points="391.5,-19 322.5,-19 322.5,0 391.5,0 391.5,-19"/>
<text text-anchor="middle" x="357" y="-7" font-family="Helvetica,sans-Serif" font-size="10.00">type_traits</text>
</a>
</g>
</g>
<!-- Node35&#45;&gt;Node37 -->
<g id="edge43" class="edge">
<title>Node35&#45;&gt;Node37</title>
<path fill="none" stroke="#63b8ff" d="M368.69,-54.75C366.83,-47.72 364.16,-37.62 361.85,-28.84"/>
<polygon fill="#63b8ff" stroke="#63b8ff" points="365.21,-27.86 359.27,-19.09 358.44,-29.65 365.21,-27.86"/>
</g>
<!-- Node39 -->
<g id="node39" class="node">
<title>Node39</title>
<g id="a_node39"><a xlink:title=" ">
<polygon fill="#e0e0e0" stroke="#999999" points="289,-19 237,-19 237,0 289,0 289,-19"/>
<text text-anchor="middle" x="263" y="-7" font-family="Helvetica,sans-Serif" font-size="10.00">cassert</text>
</a>
</g>
</g>
<!-- Node38&#45;&gt;Node39 -->
<g id="edge45" class="edge">
<title>Node38&#45;&gt;Node39</title>
<path fill="none" stroke="#63b8ff" d="M263,-54.75C263,-47.8 263,-37.85 263,-29.13"/>
<polygon fill="#63b8ff" stroke="#63b8ff" points="266.5,-29.09 263,-19.09 259.5,-29.09 266.5,-29.09"/>
</g>
<!-- Node42&#45;&gt;Node4 -->
<g id="edge54" class="edge">
<title>Node42&#45;&gt;Node4</title>
<path fill="none" stroke="#63b8ff" d="M606.13,-113.86C486.59,-103.89 212.38,-80.89 150.44,-73.78"/>
<polygon fill="#63b8ff" stroke="#63b8ff" points="150.75,-70.29 140.38,-72.48 149.85,-77.23 150.75,-70.29"/>
</g>
<!-- Node42&#45;&gt;Node17 -->
<g id="edge53" class="edge">
<title>Node42&#45;&gt;Node17</title>
<path fill="none" stroke="#63b8ff" d="M717.63,-115.04C743.83,-113.44 775.52,-111.56 804,-110 1132.51,-92.05 1528.66,-73.56 1659.61,-67.53"/>
<polygon fill="#63b8ff" stroke="#63b8ff" points="1659.83,-71.02 1669.66,-67.07 1659.51,-64.03 1659.83,-71.02"/>
</g>
<!-- Node42&#45;&gt;Node30 -->
<g id="edge55" class="edge">
<title>Node42&#45;&gt;Node30</title>
<path fill="none" stroke="#63b8ff" d="M652.52,-109.98C643.8,-102.15 630.66,-90.34 620.1,-80.86"/>
<polygon fill="#63b8ff" stroke="#63b8ff" points="622.43,-78.25 612.65,-74.17 617.75,-83.46 622.43,-78.25"/>
</g>
<!-- Node42&#45;&gt;Node33 -->
<g id="edge56" class="edge">
<title>Node42&#45;&gt;Node33</title>
<path fill="none" stroke="#63b8ff" d="M660.65,-109.81C658.41,-97.12 653.14,-73.06 643,-55 637.05,-44.4 628.18,-34.2 620.31,-26.24"/>
<polygon fill="#63b8ff" stroke="#63b8ff" points="622.54,-23.52 612.91,-19.1 617.68,-28.56 622.54,-23.52"/>
</g>
<!-- Node42&#45;&gt;Node43 -->
<g id="edge57" class="edge">
<title>Node42&#45;&gt;Node43</title>
<path fill="none" stroke="#63b8ff" d="M717.61,-111.19C805.59,-99.62 973.53,-77.53 1038.46,-68.99"/>
<polygon fill="#63b8ff" stroke="#63b8ff" points="1039.2,-72.42 1048.66,-67.65 1038.28,-65.48 1039.2,-72.42"/>
</g>
<!-- Node44 -->
<g id="node44" class="node">
<title>Node44</title>
<g id="a_node44"><a xlink:title=" ">
<polygon fill="#e0e0e0" stroke="#999999" points="735.5,-74 690.5,-74 690.5,-55 735.5,-55 735.5,-74"/>
<text text-anchor="middle" x="713" y="-62" font-family="Helvetica,sans-Serif" font-size="10.00">utility</text>
</a>
</g>
</g>
<!-- Node42&#45;&gt;Node44 -->
<g id="edge58" class="edge">
<title>Node42&#45;&gt;Node44</title>
<path fill="none" stroke="#63b8ff" d="M670.42,-109.75C677.77,-102.11 688.63,-90.82 697.54,-81.56"/>
<polygon fill="#63b8ff" stroke="#63b8ff" points="700.32,-83.72 704.74,-74.09 695.28,-78.87 700.32,-83.72"/>
</g>
<!-- Node42&#45;&gt;Node45 -->
<g id="edge59" class="edge">
<title>Node42&#45;&gt;Node45</title>
<path fill="none" stroke="#63b8ff" d="M717.61,-114.43C852.02,-104.59 1193.43,-79.6 1329.13,-69.66"/>
<polygon fill="#63b8ff" stroke="#63b8ff" points="1329.59,-73.14 1339.31,-68.92 1329.08,-66.16 1329.59,-73.14"/>
</g>
</g>
</svg>
        <g id="navigator" transform="translate(0 0)" fill="#404254">
                <rect fill="#f2f5e9" fill-opacity="0.5" stroke="#606060" stroke-width=".5" x="0" y="0" width="60" height="60"/>
                <use id="zoomplus" xlink:href="#zoomPlus" x="17" y="9" onmousedown="handleZoom(evt,'in')"/>
                <use id="zoomminus" xlink:href="#zoomMin" x="42" y="9" onmousedown="handleZoom(evt,'out')"/>
                <use id="reset" xlink:href="#resetDef" x="30" y="36" onmousedown="handleReset()"/>
                <g id="arrowUp" xlink:href="#dirArrow" transform="translate(30 24)" onmousedown="handlePan(0,-1)">
                  <use xlink:href="#rim" fill="#404040">
                        <set attributeName="fill" to="#808080" begin="arrowUp.mouseover" end="arrowUp.mouseout"/>
                  </use>
                  <path fill="none" stroke="white" stroke-width="1.5" d="M0,-3.0v7 M-2.5,-0.5L0,-3.0L2.5,-0.5"/>
                </g>
                <g id="arrowRight" xlink:href="#dirArrow" transform="rotate(90) translate(36 -43)" onmousedown="handlePan(1,0)">
                  <use xlink:href="#rim" fill="#404040">
                        <set attributeName="fill" to="#808080" begin="arrowRight.mouseover" end="arrowRight.mouseout"/>
                  </use>
                  <path fill="none" stroke="white" stroke-width="1.5" d="M0,-3.0v7 M-2.5,-0.5L0,-3.0L2.5,-0.5"/>
                </g>
                <g id="arrowDown" xlink:href="#dirArrow" transform="rotate(180) translate(-30 -48)" onmousedown="handlePan(0,1)">
                  <use xlink:href="#rim" fill="#404040">
                        <set attributeName="fill" to="#808080" begin="arrowDown.mouseover" end="arrowDown.mouseout"/>
                  </use>
                  <path fill="none" stroke="white" stroke-width="1.5" d="M0,-3.0v7 M-2.5,-0.5L0,-3.0L2.5,-0.5"/>
                </g>
                <g id="arrowLeft" xlink:href="#dirArrow" transform="rotate(270) translate(-36 17)" onmousedown="handlePan(-1,0)">
                  <use xlink:href="#rim" fill="#404040">
                        <set attributeName="fill" to="#808080" begin="arrowLeft.mouseover" end="arrowLeft.mouseout"/>
                  </use>
                  <path fill="none" stroke="white" stroke-width="1.5" d="M0,-3.0v7 M-2.5,-0.5L0,-3.0L2.5,-0.5"/>
                </g>
        </g>
        <svg viewBox="0 0 15 15" width="100%" height="30px" preserveAspectRatio="xMaxYMin meet">
         <g id="arrow_out" transform="scale(0.3 0.3)">
          <a xlink:href="Autocomplete_8h__incl_org.svg" target="_base">
           <rect id="button" ry="5" rx="5" y="6" x="6" height="38" width="38"
                fill="#f2f5e9" fill-opacity="0.5" stroke="#606060" stroke-width="1.0"/>
           <path id="arrow"
             d="M 11.500037,31.436501 C 11.940474,20.09759 22.043105,11.32322 32.158766,21.979434 L 37.068811,17.246167 C 37.068811,17.246167 37.088388,32 37.088388,32 L 22.160133,31.978069 C 22.160133,31.978069 26.997745,27.140456 26.997745,27.140456 C 18.528582,18.264221 13.291696,25.230495 11.500037,31.436501 z"
             style="fill:#404040;"/>
          </a>
         </g>
        </svg>
</svg>
