<?xml version="1.0" encoding="UTF-8" standalone="no"?>
<!DOCTYPE svg PUBLIC "-//W3C//DTD SVG 1.1//EN"
 "http://www.w3.org/Graphics/SVG/1.1/DTD/svg11.dtd">
<!-- Generated by graphviz version 2.43.0 (0)
 -->
<!-- Title: src/AutocompletePopup.h Pages: 1 -->
<!--zoomable 313 -->
<svg id="main" version="1.1" xmlns="http://www.w3.org/2000/svg" xmlns:xlink="http://www.w3.org/1999/xlink" xml:space="preserve" onload="init(evt)">
<style type="text/css"><![CDATA[
.edge:hover path { stroke: red; }
.edge:hover polygon { stroke: red; fill: red; }
]]></style>
<script type="text/javascript"><![CDATA[
var edges = document.getElementsByTagName('g');
if (edges && edges.length) {
  for (var i=0;i<edges.length;i++) {
    if (edges[i].id.substr(0,4)=='edge') {
      edges[i].setAttribute('class','edge');
    }
  }
}
]]></script>
        <defs>
                <circle id="rim" cx="0" cy="0" r="7"/>
                <circle id="rim2" cx="0" cy="0" r="3.5"/>
                <g id="zoomPlus">
                        <use xlink:href="#rim" fill="#404040">
                                <set attributeName="fill" to="#808080" begin="zoomplus.mouseover" end="zoomplus.mouseout"/>
                        </use>
                        <path d="M-4,0h8M0,-4v8" fill="none" stroke="white" stroke-width="1.5" pointer-events="none"/>
                </g>
                <g id="zoomMin">
                        <use xlink:href="#rim" fill="#404040">
                                <set attributeName="fill" to="#808080" begin="zoomminus.mouseover" end="zoomminus.mouseout"/>
                        </use>
                        <path d="M-4,0h8" fill="none" stroke="white" stroke-width="1.5" pointer-events="none"/>
                </g>
                <g id="dirArrow">
                        <path fill="none" stroke="white" stroke-width="1.5" d="M0,-3.0v7 M-2.5,-0.5L0,-3.0L2.5,-0.5"/>
                </g>
               <g id="resetDef">
                       <use xlink:href="#rim2" fill="#404040">
                               <set attributeName="fill" to="#808080" begin="reset.mouseover" end="reset.mouseout"/>
                       </use>
               </g>
        </defs>

<script type="text/javascript">
var viewWidth = 2616;
var viewHeight = 313;
var sectionId = 'dynsection-1';
</script>
<script xlink:href="svgpan.js"/>
<svg id="graph" class="graph">
<g id="viewport">
<title>src/AutocompletePopup.h</title>
<!-- Node1 -->
<g id="node1" class="node">
<title>Node1</title>
<g id="a_node1"><a xlink:title="The first number that is open for dynamic ID assignment.">
<polygon fill="#999999" stroke="#666666" points="674.5,-305 533.5,-305 533.5,-286 674.5,-286 674.5,-305"/>
<text text-anchor="middle" x="604" y="-293" font-family="Helvetica,sans-Serif" font-size="10.00">src/AutocompletePopup.h</text>
</a>
</g>
</g>
<!-- Node2 -->
<g id="node2" class="node">
<title>Node2</title>
<g id="a_node2"><a xlink:href="AutocompletePopup_8cpp.html" target="_top" xlink:title="This file defines the class AutocompletePopup.">
<polygon fill="white" stroke="#666666" points="152,-129 0,-129 0,-110 152,-110 152,-129"/>
<text text-anchor="middle" x="76" y="-117" font-family="Helvetica,sans-Serif" font-size="10.00">src/AutocompletePopup.cpp</text>
</a>
</g>
</g>
<!-- Node1&#45;&gt;Node2 -->
<g id="edge1" class="edge">
<title>Node1&#45;&gt;Node2</title>
<path fill="none" stroke="#63b8ff" d="M523.06,-292.7C380.7,-287.63 94.68,-268.35 33,-195 15.03,-173.63 46.26,-143.73 64.4,-129.16"/>
<polygon fill="#63b8ff" stroke="#63b8ff" points="523.36,-296.21 533.48,-293.05 523.6,-289.21 523.36,-296.21"/>
</g>
<!-- Node3 -->
<g id="node3" class="node">
<title>Node3</title>
<g id="a_node3"><a xlink:href="Worksheet_8h.html" target="_top" xlink:title="This file defines the class Worksheet.">
<polygon fill="white" stroke="#666666" points="1241.5,-250 1146.5,-250 1146.5,-231 1241.5,-231 1241.5,-250"/>
<text text-anchor="middle" x="1194" y="-238" font-family="Helvetica,sans-Serif" font-size="10.00">src/Worksheet.h</text>
</a>
</g>
</g>
<!-- Node1&#45;&gt;Node3 -->
<g id="edge2" class="edge">
<title>Node1&#45;&gt;Node3</title>
<path fill="none" stroke="#63b8ff" d="M684.84,-287.24C809.68,-276.02 1045.49,-254.84 1146.32,-245.78"/>
<polygon fill="#63b8ff" stroke="#63b8ff" points="684.23,-283.78 674.58,-288.16 684.85,-290.75 684.23,-283.78"/>
</g>
<!-- Node4 -->
<g id="node4" class="node">
<title>Node4</title>
<g id="a_node4"><a xlink:href="Worksheet_8cpp.html" target="_top" xlink:title="This file defines the class Worksheet.">
<polygon fill="white" stroke="#666666" points="1866,-74 1760,-74 1760,-55 1866,-55 1866,-74"/>
<text text-anchor="middle" x="1813" y="-62" font-family="Helvetica,sans-Serif" font-size="10.00">src/Worksheet.cpp</text>
</a>
</g>
</g>
<!-- Node3&#45;&gt;Node4 -->
<g id="edge3" class="edge">
<title>Node3&#45;&gt;Node4</title>
<path fill="none" stroke="#63b8ff" d="M1136.05,-238.91C936.91,-236.62 291.27,-226.74 261,-195 251.8,-185.35 251.88,-174.73 261,-165 313.41,-109.12 1493.17,-74.11 1759.78,-66.89"/>
<polygon fill="#63b8ff" stroke="#63b8ff" points="1136.26,-242.42 1146.3,-239.03 1136.34,-235.42 1136.26,-242.42"/>
</g>
<!-- Node5 -->
<g id="node5" class="node">
<title>Node5</title>
<g id="a_node5"><a xlink:href="WorksheetContextMenu_8cpp.html" target="_top" xlink:title="The worksheet&#39;s right&#45;click context menu (see WorksheetContextMenu.h).">
<polygon fill="white" stroke="#666666" points="213.5,-189.5 42.5,-189.5 42.5,-170.5 213.5,-170.5 213.5,-189.5"/>
<text text-anchor="middle" x="128" y="-177.5" font-family="Helvetica,sans-Serif" font-size="10.00">src/WorksheetContextMenu.cpp</text>
</a>
</g>
</g>
<!-- Node3&#45;&gt;Node5 -->
<g id="edge4" class="edge">
<title>Node3&#45;&gt;Node5</title>
<path fill="none" stroke="#63b8ff" d="M1136.04,-238.71C985.78,-236.25 571.44,-226.88 228,-195 213.08,-193.61 196.97,-191.59 182.13,-189.51"/>
<polygon fill="#63b8ff" stroke="#63b8ff" points="1136.34,-242.21 1146.4,-238.87 1136.46,-235.22 1136.34,-242.21"/>
</g>
<!-- Node6 -->
<g id="node6" class="node">
<title>Node6</title>
<g id="a_node6"><a xlink:href="ConfigDialogue_8h.html" target="_top" xlink:title="The configuration dialog.">
<polygon fill="white" stroke="#666666" points="2437.5,-74 2282.5,-74 2282.5,-55 2437.5,-55 2437.5,-74"/>
<text text-anchor="middle" x="2360" y="-62" font-family="Helvetica,sans-Serif" font-size="10.00">src/dialogs/ConfigDialogue.h</text>
</a>
</g>
</g>
<!-- Node3&#45;&gt;Node6 -->
<g id="edge5" class="edge">
<title>Node3&#45;&gt;Node6</title>
<path fill="none" stroke="#63b8ff" d="M1251.94,-238.78C1474.32,-235.81 2263,-223.31 2308,-195 2350.86,-168.04 2358.4,-98.78 2359.72,-74.27"/>
<polygon fill="#63b8ff" stroke="#63b8ff" points="1251.74,-235.28 1241.79,-238.91 1251.83,-242.28 1251.74,-235.28"/>
</g>
<!-- Node10 -->
<g id="node10" class="node">
<title>Node10</title>
<g id="a_node10"><a xlink:href="DiffFrame_8h_source.html" target="_top" xlink:title=" ">
<polygon fill="white" stroke="#666666" points="2584.5,-74 2455.5,-74 2455.5,-55 2584.5,-55 2584.5,-74"/>
<text text-anchor="middle" x="2520" y="-62" font-family="Helvetica,sans-Serif" font-size="10.00">src/dialogs/DiffFrame.h</text>
</a>
</g>
</g>
<!-- Node3&#45;&gt;Node10 -->
<g id="edge9" class="edge">
<title>Node3&#45;&gt;Node10</title>
<path fill="none" stroke="#63b8ff" d="M1252.11,-239.16C1470.24,-237.63 2233.08,-229.81 2336,-195 2413.34,-168.85 2487.04,-99.08 2511.49,-74.35"/>
<polygon fill="#63b8ff" stroke="#63b8ff" points="1251.81,-235.66 1241.84,-239.23 1251.86,-242.66 1251.81,-235.66"/>
</g>
<!-- Node11 -->
<g id="node11" class="node">
<title>Node11</title>
<g id="a_node11"><a xlink:href="Printout_8cpp.html" target="_top" xlink:title="This file defines the class MathPrintOut.">
<polygon fill="white" stroke="#666666" points="425.5,-189.5 270.5,-189.5 270.5,-170.5 425.5,-170.5 425.5,-189.5"/>
<text text-anchor="middle" x="348" y="-177.5" font-family="Helvetica,sans-Serif" font-size="10.00">src/graphical_io/Printout.cpp</text>
</a>
</g>
</g>
<!-- Node3&#45;&gt;Node11 -->
<g id="edge13" class="edge">
<title>Node3&#45;&gt;Node11</title>
<path fill="none" stroke="#63b8ff" d="M1136.07,-238.1C1008.86,-234.58 695.67,-223.54 435,-195 422.07,-193.58 408.14,-191.57 395.29,-189.5"/>
<polygon fill="#63b8ff" stroke="#63b8ff" points="1136.26,-241.6 1146.35,-238.38 1136.45,-234.61 1136.26,-241.6"/>
</g>
<!-- Node12 -->
<g id="node12" class="node">
<title>Node12</title>
<g id="a_node12"><a xlink:href="wxMaximaFrame_8h.html" target="_top" xlink:title="This file declares the class wxMaximaFrame.">
<polygon fill="white" stroke="#666666" points="2299,-189.5 2171,-189.5 2171,-170.5 2299,-170.5 2299,-189.5"/>
<text text-anchor="middle" x="2235" y="-177.5" font-family="Helvetica,sans-Serif" font-size="10.00">src/wxMaximaFrame.h</text>
</a>
</g>
</g>
<!-- Node3&#45;&gt;Node12 -->
<g id="edge14" class="edge">
<title>Node3&#45;&gt;Node12</title>
<path fill="none" stroke="#63b8ff" d="M1251.92,-239.73C1402.52,-239.7 1818.56,-235.61 2162,-195 2173.15,-193.68 2185.15,-191.64 2196.14,-189.52"/>
<polygon fill="#63b8ff" stroke="#63b8ff" points="1251.54,-236.23 1241.54,-239.72 1251.54,-243.23 1251.54,-236.23"/>
</g>
<!-- Node19 -->
<g id="node19" class="node">
<title>Node19</title>
<g id="a_node19"><a xlink:href="test__Accessibility_8cpp.html" target="_top" xlink:title="Logic&#45;level regression tests for wxMaxima&#39;s custom wxAccessible classes.">
<polygon fill="white" stroke="#666666" points="552,-195 444,-195 444,-165 552,-165 552,-195"/>
<text text-anchor="start" x="452" y="-183" font-family="Helvetica,sans-Serif" font-size="10.00">test/unit_tests/test</text>
<text text-anchor="middle" x="498" y="-172" font-family="Helvetica,sans-Serif" font-size="10.00">_Accessibility.cpp</text>
</a>
</g>
</g>
<!-- Node3&#45;&gt;Node19 -->
<g id="edge31" class="edge">
<title>Node3&#45;&gt;Node19</title>
<path fill="none" stroke="#63b8ff" d="M1136.47,-238.31C1024.91,-235.38 771.65,-225.64 561,-195 558.12,-194.58 555.17,-194.1 552.2,-193.58"/>
<polygon fill="#63b8ff" stroke="#63b8ff" points="1136.41,-241.81 1146.5,-238.57 1136.59,-234.81 1136.41,-241.81"/>
</g>
<!-- Node20 -->
<g id="node20" class="node">
<title>Node20</title>
<g id="a_node20"><a xlink:href="test__EditorCellInvariants_8cpp.html" target="_top" xlink:title="Hardening tests for EditorCell&#39;s text&#45;editing core.">
<polygon fill="white" stroke="#666666" points="708,-195 570,-195 570,-165 708,-165 708,-195"/>
<text text-anchor="start" x="578" y="-183" font-family="Helvetica,sans-Serif" font-size="10.00">test/unit_tests/test</text>
<text text-anchor="middle" x="639" y="-172" font-family="Helvetica,sans-Serif" font-size="10.00">_EditorCellInvariants.cpp</text>
</a>
</g>
</g>
<!-- Node3&#45;&gt;Node20 -->
<g id="edge32" class="edge">
<title>Node3&#45;&gt;Node20</title>
<path fill="none" stroke="#63b8ff" d="M1136.48,-235.71C1046.66,-229.44 867.77,-215.53 717,-195 714.14,-194.61 711.22,-194.19 708.27,-193.75"/>
<polygon fill="#63b8ff" stroke="#63b8ff" points="1136.24,-239.2 1146.46,-236.4 1136.72,-232.22 1136.24,-239.2"/>
</g>
<!-- Node21 -->
<g id="node21" class="node">
<title>Node21</title>
<g id="a_node21"><a xlink:href="test__GroupCellLayout_8cpp.html" target="_top" xlink:title="Regression tests for the GroupCell &lt;&#45;&gt; EditorCell layout coupling.">
<polygon fill="white" stroke="#666666" points="849.5,-195 726.5,-195 726.5,-165 849.5,-165 849.5,-195"/>
<text text-anchor="start" x="734.5" y="-183" font-family="Helvetica,sans-Serif" font-size="10.00">test/unit_tests/test</text>
<text text-anchor="middle" x="788" y="-172" font-family="Helvetica,sans-Serif" font-size="10.00">_GroupCellLayout.cpp</text>
</a>
</g>
</g>
<!-- Node3&#45;&gt;Node21 -->
<g id="edge33" class="edge">
<title>Node3&#45;&gt;Node21</title>
<path fill="none" stroke="#63b8ff" d="M1136.1,-232.92C1069.19,-225.07 955.85,-210.96 859,-195 855.9,-194.49 852.73,-193.94 849.53,-193.38"/>
<polygon fill="#63b8ff" stroke="#63b8ff" points="1136.09,-236.45 1146.43,-234.13 1136.9,-229.5 1136.09,-236.45"/>
</g>
<!-- Node22 -->
<g id="node22" class="node">
<title>Node22</title>
<g id="a_node22"><a xlink:href="test__LayoutInvariants_8cpp.html" target="_top" xlink:title="Layout idempotency invariants.">
<polygon fill="white" stroke="#666666" points="992,-195 868,-195 868,-165 992,-165 992,-195"/>
<text text-anchor="start" x="876" y="-183" font-family="Helvetica,sans-Serif" font-size="10.00">test/unit_tests/test</text>
<text text-anchor="middle" x="930" y="-172" font-family="Helvetica,sans-Serif" font-size="10.00">_LayoutInvariants.cpp</text>
</a>
</g>
</g>
<!-- Node3&#45;&gt;Node22 -->
<g id="edge34" class="edge">
<title>Node3&#45;&gt;Node22</title>
<path fill="none" stroke="#63b8ff" d="M1145.65,-228.79C1102.51,-219.23 1039.1,-205.18 992.2,-194.78"/>
<polygon fill="#63b8ff" stroke="#63b8ff" points="1145.09,-232.25 1155.61,-230.99 1146.61,-225.41 1145.09,-232.25"/>
</g>
<!-- Node23 -->
<g id="node23" class="node">
<title>Node23</title>
<g id="a_node23"><a xlink:href="test__TreeUndo_8cpp.html" target="_top" xlink:title="Regression tests for the worksheet&#39;s cell&#45;tree undo/redo (the TreeUndo_* subsystem of Worksheet).">
<polygon fill="white" stroke="#666666" points="1118,-195 1010,-195 1010,-165 1118,-165 1118,-195"/>
<text text-anchor="start" x="1018" y="-183" font-family="Helvetica,sans-Serif" font-size="10.00">test/unit_tests/test</text>
<text text-anchor="middle" x="1064" y="-172" font-family="Helvetica,sans-Serif" font-size="10.00">_TreeUndo.cpp</text>
</a>
</g>
</g>
<!-- Node3&#45;&gt;Node23 -->
<g id="edge35" class="edge">
<title>Node3&#45;&gt;Node23</title>
<path fill="none" stroke="#63b8ff" d="M1165.84,-226.83C1145.05,-217.47 1116.75,-204.74 1095.25,-195.06"/>
<polygon fill="#63b8ff" stroke="#63b8ff" points="1164.54,-230.08 1175.1,-230.99 1167.41,-223.7 1164.54,-230.08"/>
</g>
<!-- Node24 -->
<g id="node24" class="node">
<title>Node24</title>
<g id="a_node24"><a xlink:href="test__WXMRoundtrip_8cpp.html" target="_top" xlink:title="Regression tests for images surviving the .wxm serialization round&#45;trip.">
<polygon fill="white" stroke="#666666" points="1251.5,-195 1136.5,-195 1136.5,-165 1251.5,-165 1251.5,-195"/>
<text text-anchor="start" x="1144.5" y="-183" font-family="Helvetica,sans-Serif" font-size="10.00">test/unit_tests/test</text>
<text text-anchor="middle" x="1194" y="-172" font-family="Helvetica,sans-Serif" font-size="10.00">_WXMRoundtrip.cpp</text>
</a>
</g>
</g>
<!-- Node3&#45;&gt;Node24 -->
<g id="edge36" class="edge">
<title>Node3&#45;&gt;Node24</title>
<path fill="none" stroke="#63b8ff" d="M1194,-220.65C1194,-212.36 1194,-202.78 1194,-195.11"/>
<polygon fill="#63b8ff" stroke="#63b8ff" points="1190.5,-220.87 1194,-230.87 1197.5,-220.87 1190.5,-220.87"/>
</g>
<!-- Node25 -->
<g id="node25" class="node">
<title>Node25</title>
<g id="a_node25"><a xlink:href="test__WXMXRoundtrip_8cpp.html" target="_top" xlink:title="Round&#45;trip tests for the .wxmx content.xml (the MathML&#45;like math format).">
<polygon fill="white" stroke="#666666" points="1392,-195 1270,-195 1270,-165 1392,-165 1392,-195"/>
<text text-anchor="start" x="1278" y="-183" font-family="Helvetica,sans-Serif" font-size="10.00">test/unit_tests/test</text>
<text text-anchor="middle" x="1331" y="-172" font-family="Helvetica,sans-Serif" font-size="10.00">_WXMXRoundtrip.cpp</text>
</a>
</g>
</g>
<!-- Node3&#45;&gt;Node25 -->
<g id="edge37" class="edge">
<title>Node3&#45;&gt;Node25</title>
<path fill="none" stroke="#63b8ff" d="M1223.38,-226.95C1245.32,-217.59 1275.31,-204.78 1298.06,-195.06"/>
<polygon fill="#63b8ff" stroke="#63b8ff" points="1221.74,-223.85 1213.92,-230.99 1224.49,-230.29 1221.74,-223.85"/>
</g>
<!-- Node26 -->
<g id="node26" class="node">
<title>Node26</title>
<g id="a_node26"><a xlink:href="test__WorksheetContextMenu_8cpp.html" target="_top" xlink:title="Regression tests for the worksheet&#39;s right&#45;click context menu.">
<polygon fill="white" stroke="#666666" points="1569.5,-195 1410.5,-195 1410.5,-165 1569.5,-165 1569.5,-195"/>
<text text-anchor="start" x="1418.5" y="-183" font-family="Helvetica,sans-Serif" font-size="10.00">test/unit_tests/test</text>
<text text-anchor="middle" x="1490" y="-172" font-family="Helvetica,sans-Serif" font-size="10.00">_WorksheetContextMenu.cpp</text>
</a>
</g>
</g>
<!-- Node3&#45;&gt;Node26 -->
<g id="edge38" class="edge">
<title>Node3&#45;&gt;Node26</title>
<path fill="none" stroke="#63b8ff" d="M1246.93,-229.04C1294.97,-219.55 1366.18,-205.47 1419.12,-195.01"/>
<polygon fill="#63b8ff" stroke="#63b8ff" points="1246.17,-225.62 1237.04,-230.99 1247.53,-232.49 1246.17,-225.62"/>
</g>
<!-- Node27 -->
<g id="node27" class="node">
<title>Node27</title>
<g id="a_node27"><a xlink:href="test__WorksheetCursor_8cpp.html" target="_top" xlink:title="Pins the worksheet&#39;s cursor model before it is gathered into a cursor class.">
<polygon fill="white" stroke="#666666" points="1712.5,-195 1587.5,-195 1587.5,-165 1712.5,-165 1712.5,-195"/>
<text text-anchor="start" x="1595.5" y="-183" font-family="Helvetica,sans-Serif" font-size="10.00">test/unit_tests/test</text>
<text text-anchor="middle" x="1650" y="-172" font-family="Helvetica,sans-Serif" font-size="10.00">_WorksheetCursor.cpp</text>
</a>
</g>
</g>
<!-- Node3&#45;&gt;Node27 -->
<g id="edge39" class="edge">
<title>Node3&#45;&gt;Node27</title>
<path fill="none" stroke="#63b8ff" d="M1251.97,-234.18C1327.32,-226.94 1462.88,-212.84 1578,-195 1581.02,-194.53 1584.11,-194.03 1587.22,-193.5"/>
<polygon fill="#63b8ff" stroke="#63b8ff" points="1251.37,-230.72 1241.75,-235.15 1252.04,-237.69 1251.37,-230.72"/>
</g>
<!-- Node28 -->
<g id="node28" class="node">
<title>Node28</title>
<g id="a_node28"><a xlink:href="test__WorksheetEvalQueue_8cpp.html" target="_top" xlink:title="Pins the worksheet&#39;s &quot;add cells to the evaluation queue&quot; behavior before the Add*ToEvaluationQueue fa...">
<polygon fill="white" stroke="#666666" points="1877,-195 1731,-195 1731,-165 1877,-165 1877,-195"/>
<text text-anchor="start" x="1739" y="-183" font-family="Helvetica,sans-Serif" font-size="10.00">test/unit_tests/test</text>
<text text-anchor="middle" x="1804" y="-172" font-family="Helvetica,sans-Serif" font-size="10.00">_WorksheetEvalQueue.cpp</text>
</a>
</g>
</g>
<!-- Node3&#45;&gt;Node28 -->
<g id="edge40" class="edge">
<title>Node3&#45;&gt;Node28</title>
<path fill="none" stroke="#63b8ff" d="M1251.94,-236.18C1349.15,-230.27 1551.15,-216.46 1721,-195 1724.19,-194.6 1727.44,-194.16 1730.73,-193.7"/>
<polygon fill="#63b8ff" stroke="#63b8ff" points="1251.51,-232.7 1241.74,-236.8 1251.93,-239.69 1251.51,-232.7"/>
</g>
<!-- Node29 -->
<g id="node29" class="node">
<title>Node29</title>
<g id="a_node29"><a xlink:href="test__WorksheetExport_8cpp.html" target="_top" xlink:title="Safety net for the export/serialization cluster of Worksheet.">
<polygon fill="white" stroke="#666666" points="2020.5,-195 1895.5,-195 1895.5,-165 2020.5,-165 2020.5,-195"/>
<text text-anchor="start" x="1903.5" y="-183" font-family="Helvetica,sans-Serif" font-size="10.00">test/unit_tests/test</text>
<text text-anchor="middle" x="1958" y="-172" font-family="Helvetica,sans-Serif" font-size="10.00">_WorksheetExport.cpp</text>
</a>
</g>
</g>
<!-- Node3&#45;&gt;Node29 -->
<g id="edge41" class="edge">
<title>Node3&#45;&gt;Node29</title>
<path fill="none" stroke="#63b8ff" d="M1251.95,-238.27C1371.12,-235.2 1652.17,-225.13 1886,-195 1889.03,-194.61 1892.13,-194.17 1895.25,-193.69"/>
<polygon fill="#63b8ff" stroke="#63b8ff" points="1251.51,-234.78 1241.6,-238.53 1251.69,-241.78 1251.51,-234.78"/>
</g>
<!-- Node30 -->
<g id="node30" class="node">
<title>Node30</title>
<g id="a_node30"><a xlink:href="test__WorksheetFind_8cpp.html" target="_top" xlink:title="Pins the worksheet&#39;s find/replace behavior before the search engine is extracted into WorksheetSearch...">
<polygon fill="white" stroke="#666666" points="2153,-195 2039,-195 2039,-165 2153,-165 2153,-195"/>
<text text-anchor="start" x="2047" y="-183" font-family="Helvetica,sans-Serif" font-size="10.00">test/unit_tests/test</text>
<text text-anchor="middle" x="2096" y="-172" font-family="Helvetica,sans-Serif" font-size="10.00">_WorksheetFind.cpp</text>
</a>
</g>
</g>
<!-- Node3&#45;&gt;Node30 -->
<g id="edge42" class="edge">
<title>Node3&#45;&gt;Node30</title>
<path fill="none" stroke="#63b8ff" d="M1251.98,-239.45C1388.18,-238.67 1738.93,-232.81 2029,-195 2032.18,-194.59 2035.44,-194.1 2038.72,-193.57"/>
<polygon fill="#63b8ff" stroke="#63b8ff" points="1251.76,-235.95 1241.78,-239.5 1251.79,-242.95 1251.76,-235.95"/>
</g>
<!-- Node7 -->
<g id="node7" class="node">
<title>Node7</title>
<g id="a_node7"><a xlink:href="MaximaCommandMenus_8cpp.html" target="_top" xlink:title="Implementation of the menu&#45;command handlers extracted from wxMaxima &#45; see MaximaCommandMenus....">
<polygon fill="white" stroke="#666666" points="2608,-19 2432,-19 2432,0 2608,0 2608,-19"/>
<text text-anchor="middle" x="2520" y="-7" font-family="Helvetica,sans-Serif" font-size="10.00">src/MaximaCommandMenus.cpp</text>
</a>
</g>
</g>
<!-- Node6&#45;&gt;Node7 -->
<g id="edge6" class="edge">
<title>Node6&#45;&gt;Node7</title>
<path fill="none" stroke="#63b8ff" d="M2395.33,-51.8C2425.19,-41.91 2467.27,-27.97 2494.09,-19.08"/>
<polygon fill="#63b8ff" stroke="#63b8ff" points="2394.1,-48.52 2385.71,-54.98 2396.3,-55.16 2394.1,-48.52"/>
</g>
<!-- Node8 -->
<g id="node8" class="node">
<title>Node8</title>
<g id="a_node8"><a xlink:href="main_8cpp.html" target="_top" xlink:title="The file that defines the starting point of the program.">
<polygon fill="white" stroke="#666666" points="2200.5,-19 2121.5,-19 2121.5,0 2200.5,0 2200.5,-19"/>
<text text-anchor="middle" x="2161" y="-7" font-family="Helvetica,sans-Serif" font-size="10.00">src/main.cpp</text>
</a>
</g>
</g>
<!-- Node6&#45;&gt;Node8 -->
<g id="edge7" class="edge">
<title>Node6&#45;&gt;Node8</title>
<path fill="none" stroke="#63b8ff" d="M2317.99,-52.31C2280.75,-42.39 2227.16,-28.12 2193.22,-19.08"/>
<polygon fill="#63b8ff" stroke="#63b8ff" points="2317.46,-55.79 2328.03,-54.98 2319.26,-49.03 2317.46,-55.79"/>
</g>
<!-- Node9 -->
<g id="node9" class="node">
<title>Node9</title>
<g id="a_node9"><a xlink:href="wxMaxima_8cpp.html" target="_top" xlink:title="This file defines the contents of the class wxMaxima that contains most of the program&#39;s logic.">
<polygon fill="white" stroke="#666666" points="2385,-19 2277,-19 2277,0 2385,0 2385,-19"/>
<text text-anchor="middle" x="2331" y="-7" font-family="Helvetica,sans-Serif" font-size="10.00">src/wxMaxima.cpp</text>
</a>
</g>
</g>
<!-- Node6&#45;&gt;Node9 -->
<g id="edge8" class="edge">
<title>Node6&#45;&gt;Node9</title>
<path fill="none" stroke="#63b8ff" d="M2350.32,-45.82C2345.4,-36.82 2339.64,-26.29 2335.7,-19.09"/>
<polygon fill="#63b8ff" stroke="#63b8ff" points="2347.34,-47.66 2355.21,-54.75 2353.48,-44.3 2347.34,-47.66"/>
</g>
<!-- Node10&#45;&gt;Node7 -->
<g id="edge10" class="edge">
<title>Node10&#45;&gt;Node7</title>
<path fill="none" stroke="#63b8ff" d="M2520,-44.66C2520,-35.93 2520,-25.99 2520,-19.09"/>
<polygon fill="#63b8ff" stroke="#63b8ff" points="2516.5,-44.75 2520,-54.75 2523.5,-44.75 2516.5,-44.75"/>
</g>
<!-- Node10&#45;&gt;Node8 -->
<g id="edge11" class="edge">
<title>Node10&#45;&gt;Node8</title>
<path fill="none" stroke="#63b8ff" d="M2452.14,-53.48C2377.9,-42.52 2261.43,-25.33 2200.75,-16.37"/>
<polygon fill="#63b8ff" stroke="#63b8ff" points="2451.92,-56.99 2462.32,-54.98 2452.94,-50.06 2451.92,-56.99"/>
</g>
<!-- Node10&#45;&gt;Node9 -->
<g id="edge12" class="edge">
<title>Node10&#45;&gt;Node9</title>
<path fill="none" stroke="#63b8ff" d="M2479.65,-52.18C2444.3,-42.27 2393.7,-28.08 2361.6,-19.08"/>
<polygon fill="#63b8ff" stroke="#63b8ff" points="2479.06,-55.65 2489.63,-54.98 2480.95,-48.91 2479.06,-55.65"/>
</g>
<!-- Node12&#45;&gt;Node2 -->
<g id="edge15" class="edge">
<title>Node12&#45;&gt;Node2</title>
<path fill="none" stroke="#63b8ff" d="M2186.98,-168.6C2178.69,-167.15 2170.12,-165.86 2162,-165 1760.8,-122.55 478.46,-120.28 152.12,-120.41"/>
<polygon fill="#63b8ff" stroke="#63b8ff" points="2186.45,-172.06 2196.92,-170.44 2187.72,-165.18 2186.45,-172.06"/>
</g>
<!-- Node12&#45;&gt;Node4 -->
<g id="edge16" class="edge">
<title>Node12&#45;&gt;Node4</title>
<path fill="none" stroke="#63b8ff" d="M2183.91,-168.66C2176.58,-167.33 2169.11,-166.07 2162,-165 2089.05,-154.04 1888.69,-176.2 1832,-129 1815.55,-115.3 1812.98,-87.99 1812.8,-74.07"/>
<polygon fill="#63b8ff" stroke="#63b8ff" points="2183.32,-172.11 2193.79,-170.49 2184.6,-165.23 2183.32,-172.11"/>
</g>
<!-- Node13 -->
<g id="node13" class="node">
<title>Node13</title>
<g id="a_node13"><a xlink:href="EditorCell_8cpp.html" target="_top" xlink:title="This file defines the class EditorCell.">
<polygon fill="white" stroke="#666666" points="2264.5,-74 2137.5,-74 2137.5,-55 2264.5,-55 2264.5,-74"/>
<text text-anchor="middle" x="2201" y="-62" font-family="Helvetica,sans-Serif" font-size="10.00">src/cells/EditorCell.cpp</text>
</a>
</g>
</g>
<!-- Node12&#45;&gt;Node13 -->
<g id="edge17" class="edge">
<title>Node12&#45;&gt;Node13</title>
<path fill="none" stroke="#63b8ff" d="M2274.33,-167.08C2306.42,-155.22 2343.76,-135.18 2326,-110 2311.86,-89.95 2287.85,-78.88 2264.63,-72.79"/>
<polygon fill="#63b8ff" stroke="#63b8ff" points="2272.88,-163.88 2264.61,-170.49 2275.2,-170.48 2272.88,-163.88"/>
</g>
<!-- Node14 -->
<g id="node14" class="node">
<title>Node14</title>
<g id="a_node14"><a xlink:href="main_8h.html" target="_top" xlink:title="This file declares the class wxMaxima that contains most of the program&#39;s logic.">
<polygon fill="white" stroke="#666666" points="2043,-74 1975,-74 1975,-55 2043,-55 2043,-74"/>
<text text-anchor="middle" x="2009" y="-62" font-family="Helvetica,sans-Serif" font-size="10.00">src/main.h</text>
</a>
</g>
</g>
<!-- Node12&#45;&gt;Node14 -->
<g id="edge18" class="edge">
<title>Node12&#45;&gt;Node14</title>
<path fill="none" stroke="#63b8ff" d="M2185.17,-168.27C2125.78,-155.28 2033.79,-134.48 2028,-129 2012.63,-114.44 2009.54,-88 2009.02,-74.29"/>
<polygon fill="#63b8ff" stroke="#63b8ff" points="2184.61,-171.73 2195.12,-170.44 2186.1,-164.89 2184.61,-171.73"/>
</g>
<!-- Node16 -->
<g id="node16" class="node">
<title>Node16</title>
<g id="a_node16"><a xlink:href="GreekSidebar_8cpp.html" target="_top" xlink:title="This file defines the class GreekSidebar.">
<polygon fill="white" stroke="#666666" points="2317,-129 2153,-129 2153,-110 2317,-110 2317,-129"/>
<text text-anchor="middle" x="2235" y="-117" font-family="Helvetica,sans-Serif" font-size="10.00">src/sidebars/GreekSidebar.cpp</text>
</a>
</g>
</g>
<!-- Node12&#45;&gt;Node16 -->
<g id="edge22" class="edge">
<title>Node12&#45;&gt;Node16</title>
<path fill="none" stroke="#63b8ff" d="M2235,-160.16C2235,-149.74 2235,-137.3 2235,-129.17"/>
<polygon fill="#63b8ff" stroke="#63b8ff" points="2231.5,-160.37 2235,-170.37 2238.5,-160.37 2231.5,-160.37"/>
</g>
<!-- Node17 -->
<g id="node17" class="node">
<title>Node17</title>
<g id="a_node17"><a xlink:href="wxMaxima_8h.html" target="_top" xlink:title="This file declares the class wxMaxima that contains most of the program&#39;s logic.">
<polygon fill="white" stroke="#666666" points="2134.5,-129 2037.5,-129 2037.5,-110 2134.5,-110 2134.5,-129"/>
<text text-anchor="middle" x="2086" y="-117" font-family="Helvetica,sans-Serif" font-size="10.00">src/wxMaxima.h</text>
</a>
</g>
</g>
<!-- Node12&#45;&gt;Node17 -->
<g id="edge23" class="edge">
<title>Node12&#45;&gt;Node17</title>
<path fill="none" stroke="#63b8ff" d="M2203.75,-166.73C2174.95,-155.42 2132.97,-138.94 2107.69,-129.02"/>
<polygon fill="#63b8ff" stroke="#63b8ff" points="2202.75,-170.1 2213.33,-170.49 2205.3,-163.58 2202.75,-170.1"/>
</g>
<!-- Node18 -->
<g id="node18" class="node">
<title>Node18</title>
<g id="a_node18"><a xlink:href="wxMaximaFrame_8cpp.html" target="_top" xlink:title="This file defines the class wxMaximaFrame.">
<polygon fill="white" stroke="#666666" points="1980.5,-129 1841.5,-129 1841.5,-110 1980.5,-110 1980.5,-129"/>
<text text-anchor="middle" x="1911" y="-117" font-family="Helvetica,sans-Serif" font-size="10.00">src/wxMaximaFrame.cpp</text>
</a>
</g>
</g>
<!-- Node12&#45;&gt;Node18 -->
<g id="edge30" class="edge">
<title>Node12&#45;&gt;Node18</title>
<path fill="none" stroke="#63b8ff" d="M2181.02,-168.56C2174.61,-167.35 2168.16,-166.14 2162,-165 2092.15,-152.11 2011.22,-137.89 1960.57,-129.08"/>
<polygon fill="#63b8ff" stroke="#63b8ff" points="2180.53,-172.03 2191.01,-170.46 2181.84,-165.15 2180.53,-172.03"/>
</g>
<!-- Node14&#45;&gt;Node8 -->
<g id="edge20" class="edge">
<title>Node14&#45;&gt;Node8</title>
<path fill="none" stroke="#63b8ff" d="M2042.93,-51.67C2071.27,-41.79 2111.02,-27.93 2136.39,-19.08"/>
<polygon fill="#63b8ff" stroke="#63b8ff" points="2041.71,-48.39 2033.42,-54.98 2044.02,-55 2041.71,-48.39"/>
</g>
<!-- Node14&#45;&gt;Node9 -->
<g id="edge21" class="edge">
<title>Node14&#45;&gt;Node9</title>
<path fill="none" stroke="#63b8ff" d="M2053.28,-56.21C2112.32,-46.49 2216.62,-29.33 2279.23,-19.02"/>
<polygon fill="#63b8ff" stroke="#63b8ff" points="2052.45,-52.8 2043.15,-57.88 2053.59,-59.71 2052.45,-52.8"/>
</g>
<!-- Node15 -->
<g id="node15" class="node">
<title>Node15</title>
<g id="a_node15"><a xlink:href="MaximaManual_8cpp.html" target="_top" xlink:title="This file defines the class MaximaManual.">
<polygon fill="white" stroke="#666666" points="2074,-19 1944,-19 1944,0 2074,0 2074,-19"/>
<text text-anchor="middle" x="2009" y="-7" font-family="Helvetica,sans-Serif" font-size="10.00">src/MaximaManual.cpp</text>
</a>
</g>
</g>
<!-- Node14&#45;&gt;Node15 -->
<g id="edge19" class="edge">
<title>Node14&#45;&gt;Node15</title>
<path fill="none" stroke="#63b8ff" d="M2009,-44.66C2009,-35.93 2009,-25.99 2009,-19.09"/>
<polygon fill="#63b8ff" stroke="#63b8ff" points="2005.5,-44.75 2009,-54.75 2012.5,-44.75 2005.5,-44.75"/>
</g>
<!-- Node17&#45;&gt;Node4 -->
<g id="edge25" class="edge">
<title>Node17&#45;&gt;Node4</title>
<path fill="none" stroke="#63b8ff" d="M2032.25,-108.07C1981.07,-98.13 1904.96,-83.35 1857.21,-74.08"/>
<polygon fill="#63b8ff" stroke="#63b8ff" points="2031.65,-111.51 2042.14,-109.98 2032.99,-104.64 2031.65,-111.51"/>
</g>
<!-- Node17&#45;&gt;Node7 -->
<g id="edge24" class="edge">
<title>Node17&#45;&gt;Node7</title>
<path fill="none" stroke="#63b8ff" d="M2144.98,-110.26C2227.44,-104.87 2561.57,-109.13 2594,-74 2614.1,-52.23 2572.14,-30.55 2543.57,-19.01"/>
<polygon fill="#63b8ff" stroke="#63b8ff" points="2144.37,-106.79 2134.7,-111.13 2144.96,-113.77 2144.37,-106.79"/>
</g>
<!-- Node17&#45;&gt;Node8 -->
<g id="edge27" class="edge">
<title>Node17&#45;&gt;Node8</title>
<path fill="none" stroke="#63b8ff" d="M2084.77,-99.56C2084.79,-86.16 2086.69,-68.29 2095,-55 2105.48,-38.25 2124.85,-26.33 2139.9,-19.06"/>
<polygon fill="#63b8ff" stroke="#63b8ff" points="2081.29,-100.08 2085.13,-109.96 2088.29,-99.84 2081.29,-100.08"/>
</g>
<!-- Node17&#45;&gt;Node9 -->
<g id="edge29" class="edge">
<title>Node17&#45;&gt;Node9</title>
<path fill="none" stroke="#63b8ff" d="M2093.27,-100.53C2100.09,-86 2111.68,-66.19 2128,-55 2172.04,-24.8 2233.01,-14.65 2276.61,-11.45"/>
<polygon fill="#63b8ff" stroke="#63b8ff" points="2089.94,-99.41 2089.16,-109.97 2096.36,-102.2 2089.94,-99.41"/>
</g>
<!-- Node17&#45;&gt;Node13 -->
<g id="edge26" class="edge">
<title>Node17&#45;&gt;Node13</title>
<path fill="none" stroke="#63b8ff" d="M2113.63,-105.77C2134.84,-95.99 2163.56,-82.75 2182.19,-74.17"/>
<polygon fill="#63b8ff" stroke="#63b8ff" points="2112.09,-102.62 2104.48,-109.98 2115.02,-108.98 2112.09,-102.62"/>
</g>
<!-- Node17&#45;&gt;Node14 -->
<g id="edge28" class="edge">
<title>Node17&#45;&gt;Node14</title>
<path fill="none" stroke="#63b8ff" d="M2065.15,-104.15C2051.24,-94.57 2033.39,-82.29 2021.6,-74.17"/>
<polygon fill="#63b8ff" stroke="#63b8ff" points="2063.41,-107.2 2073.63,-109.98 2067.38,-101.43 2063.41,-107.2"/>
</g>
</g>
</svg>
        <g id="navigator" transform="translate(0 0)" fill="#404254">
                <rect fill="#f2f5e9" fill-opacity="0.5" stroke="#606060" stroke-width=".5" x="0" y="0" width="60" height="60"/>
                <use id="zoomplus" xlink:href="#zoomPlus" x="17" y="9" onmousedown="handleZoom(evt,'in')"/>
                <use id="zoomminus" xlink:href="#zoomMin" x="42" y="9" onmousedown="handleZoom(evt,'out')"/>
                <use id="reset" xlink:href="#resetDef" x="30" y="36" onmousedown="handleReset()"/>
                <g id="arrowUp" xlink:href="#dirArrow" transform="translate(30 24)" onmousedown="handlePan(0,-1)">
                  <use xlink:href="#rim" fill="#404040">
                        <set attributeName="fill" to="#808080" begin="arrowUp.mouseover" end="arrowUp.mouseout"/>
                  </use>
                  <path fill="none" stroke="white" stroke-width="1.5" d="M0,-3.0v7 M-2.5,-0.5L0,-3.0L2.5,-0.5"/>
                </g>
                <g id="arrowRight" xlink:href="#dirArrow" transform="rotate(90) translate(36 -43)" onmousedown="handlePan(1,0)">
                  <use xlink:href="#rim" fill="#404040">
                        <set attributeName="fill" to="#808080" begin="arrowRight.mouseover" end="arrowRight.mouseout"/>
                  </use>
                  <path fill="none" stroke="white" stroke-width="1.5" d="M0,-3.0v7 M-2.5,-0.5L0,-3.0L2.5,-0.5"/>
                </g>
                <g id="arrowDown" xlink:href="#dirArrow" transform="rotate(180) translate(-30 -48)" onmousedown="handlePan(0,1)">
                  <use xlink:href="#rim" fill="#404040">
                        <set attributeName="fill" to="#808080" begin="arrowDown.mouseover" end="arrowDown.mouseout"/>
                  </use>
                  <path fill="none" stroke="white" stroke-width="1.5" d="M0,-3.0v7 M-2.5,-0.5L0,-3.0L2.5,-0.5"/>
                </g>
                <g id="arrowLeft" xlink:href="#dirArrow" transform="rotate(270) translate(-36 17)" onmousedown="handlePan(-1,0)">
                  <use xlink:href="#rim" fill="#404040">
                        <set attributeName="fill" to="#808080" begin="arrowLeft.mouseover" end="arrowLeft.mouseout"/>
                  </use>
                  <path fill="none" stroke="white" stroke-width="1.5" d="M0,-3.0v7 M-2.5,-0.5L0,-3.0L2.5,-0.5"/>
                </g>
        </g>
        <svg viewBox="0 0 15 15" width="100%" height="30px" preserveAspectRatio="xMaxYMin meet">
         <g id="arrow_out" transform="scale(0.3 0.3)">
          <a xlink:href="AutocompletePopup_8h__dep__incl_org.svg" target="_base">
           <rect id="button" ry="5" rx="5" y="6" x="6" height="38" width="38"
                fill="#f2f5e9" fill-opacity="0.5" stroke="#606060" stroke-width="1.0"/>
           <path id="arrow"
             d="M 11.500037,31.436501 C 11.940474,20.09759 22.043105,11.32322 32.158766,21.979434 L 37.068811,17.246167 C 37.068811,17.246167 37.088388,32 37.088388,32 L 22.160133,31.978069 C 22.160133,31.978069 26.997745,27.140456 26.997745,27.140456 C 18.528582,18.264221 13.291696,25.230495 11.500037,31.436501 z"
             style="fill:#404040;"/>
          </a>
         </g>
        </svg>
</svg>
