<?xml version="1.0" encoding="UTF-8" standalone="no"?>
<!DOCTYPE svg PUBLIC "-//W3C//DTD SVG 1.1//EN"
 "http://www.w3.org/Graphics/SVG/1.1/DTD/svg11.dtd">
<!-- Generated by graphviz version 2.43.0 (0)
 -->
<!-- Title: src/Autocomplete_Builtins.cpp Pages: 1 -->
<svg width="1772pt" height="364pt"
 viewBox="0.00 0.00 1771.59 364.00" xmlns="http://www.w3.org/2000/svg" xmlns:xlink="http://www.w3.org/1999/xlink">
<g id="graph0" class="graph" transform="scale(1 1) rotate(0) translate(4 360)">
<title>src/Autocomplete_Builtins.cpp</title>
<polygon fill="white" stroke="transparent" points="-4,4 -4,-360 1767.59,-360 1767.59,4 -4,4"/>
<!-- Node1 -->
<g id="node1" class="node">
<title>Node1</title>
<g id="a_node1"><a xlink:title="This file tells wxMaxima about known builtin commands of maxima.">
<polygon fill="#bfbfbf" stroke="black" points="224,-336.5 224,-355.5 388,-355.5 388,-336.5 224,-336.5"/>
<text text-anchor="middle" x="306" y="-343.5" font-family="Helvetica,sans-Serif" font-size="10.00">src/Autocomplete_Builtins.cpp</text>
</a>
</g>
</g>
<!-- Node2 -->
<g id="node2" class="node">
<title>Node2</title>
<g id="a_node2"><a xlink:href="Autocomplete_8h.html" target="_top" xlink:title="This file declares the class AutoComplete.">
<polygon fill="white" stroke="black" points="259,-280.5 259,-299.5 353,-299.5 353,-280.5 259,-280.5"/>
<text text-anchor="middle" x="306" y="-287.5" font-family="Helvetica,sans-Serif" font-size="10.00">Autocomplete.h</text>
</a>
</g>
</g>
<!-- Node1&#45;&gt;Node2 -->
<g id="edge1" class="edge">
<title>Node1&#45;&gt;Node2</title>
<path fill="none" stroke="midnightblue" d="M306,-336.08C306,-329.01 306,-318.86 306,-309.99"/>
<polygon fill="midnightblue" stroke="midnightblue" points="309.5,-309.75 306,-299.75 302.5,-309.75 309.5,-309.75"/>
</g>
<!-- Node3 -->
<g id="node3" class="node">
<title>Node3</title>
<g id="a_node3"><a xlink:title=" ">
<polygon fill="white" stroke="#bfbfbf" points="0,-224.5 0,-243.5 48,-243.5 48,-224.5 0,-224.5"/>
<text text-anchor="middle" x="24" y="-231.5" font-family="Helvetica,sans-Serif" font-size="10.00">thread</text>
</a>
</g>
</g>
<!-- Node2&#45;&gt;Node3 -->
<g id="edge2" class="edge">
<title>Node2&#45;&gt;Node3</title>
<path fill="none" stroke="midnightblue" d="M258.63,-280.99C209.37,-272.49 130.08,-258.33 62,-244 60.73,-243.73 59.44,-243.46 58.14,-243.17"/>
<polygon fill="midnightblue" stroke="midnightblue" points="58.61,-239.69 48.08,-240.9 57.06,-246.52 58.61,-239.69"/>
</g>
<!-- Node4 -->
<g id="node4" class="node">
<title>Node4</title>
<g id="a_node4"><a xlink:title=" ">
<polygon fill="white" stroke="#bfbfbf" points="44,-56.5 44,-75.5 108,-75.5 108,-56.5 44,-56.5"/>
<text text-anchor="middle" x="76" y="-63.5" font-family="Helvetica,sans-Serif" font-size="10.00">algorithm</text>
</a>
</g>
</g>
<!-- Node2&#45;&gt;Node4 -->
<g id="edge3" class="edge">
<title>Node2&#45;&gt;Node4</title>
<path fill="none" stroke="midnightblue" d="M258.78,-281.68C226.73,-275.22 184.29,-263.68 151,-244 120.7,-226.09 110.96,-219.37 95,-188 78.19,-154.95 75.46,-110.78 75.44,-85.98"/>
<polygon fill="midnightblue" stroke="midnightblue" points="78.94,-85.82 75.58,-75.77 71.94,-85.72 78.94,-85.82"/>
</g>
<!-- Node5 -->
<g id="node5" class="node">
<title>Node5</title>
<g id="a_node5"><a xlink:title=" ">
<polygon fill="white" stroke="#bfbfbf" points="126,-56.5 126,-75.5 184,-75.5 184,-56.5 126,-56.5"/>
<text text-anchor="middle" x="155" y="-63.5" font-family="Helvetica,sans-Serif" font-size="10.00">memory</text>
</a>
</g>
</g>
<!-- Node2&#45;&gt;Node5 -->
<g id="edge4" class="edge">
<title>Node2&#45;&gt;Node5</title>
<path fill="none" stroke="midnightblue" d="M353.15,-288.63C416.89,-286.25 519.11,-274.7 487,-224 452.98,-170.28 270.41,-104.96 191.44,-78.73"/>
<polygon fill="midnightblue" stroke="midnightblue" points="192.49,-75.39 181.9,-75.58 190.3,-82.04 192.49,-75.39"/>
</g>
<!-- Node6 -->
<g id="node6" class="node">
<title>Node6</title>
<g id="a_node6"><a xlink:title=" ">
<polygon fill="white" stroke="#bfbfbf" points="104.5,-168.5 104.5,-187.5 161.5,-187.5 161.5,-168.5 104.5,-168.5"/>
<text text-anchor="middle" x="133" y="-175.5" font-family="Helvetica,sans-Serif" font-size="10.00">wx/wx.h</text>
</a>
</g>
</g>
<!-- Node2&#45;&gt;Node6 -->
<g id="edge5" class="edge">
<title>Node2&#45;&gt;Node6</title>
<path fill="none" stroke="midnightblue" d="M258.75,-281.3C231.43,-274.95 197.69,-263.67 173,-244 157.66,-231.78 146.68,-211.95 140.15,-197.4"/>
<polygon fill="midnightblue" stroke="midnightblue" points="143.28,-195.8 136.19,-187.93 136.82,-198.5 143.28,-195.8"/>
</g>
<!-- Node7 -->
<g id="node7" class="node">
<title>Node7</title>
<g id="a_node7"><a xlink:title=" ">
<polygon fill="white" stroke="#bfbfbf" points="190.5,-224.5 190.5,-243.5 245.5,-243.5 245.5,-224.5 190.5,-224.5"/>
<text text-anchor="middle" x="218" y="-231.5" font-family="Helvetica,sans-Serif" font-size="10.00">wx/dir.h</text>
</a>
</g>
</g>
<!-- Node2&#45;&gt;Node7 -->
<g id="edge6" class="edge">
<title>Node2&#45;&gt;Node7</title>
<path fill="none" stroke="midnightblue" d="M291.86,-280.32C278.13,-271.9 257.06,-258.97 240.94,-249.07"/>
<polygon fill="midnightblue" stroke="midnightblue" points="242.46,-245.9 232.1,-243.65 238.8,-251.87 242.46,-245.9"/>
</g>
<!-- Node8 -->
<g id="node8" class="node">
<title>Node8</title>
<g id="a_node8"><a xlink:title=" ">
<polygon fill="white" stroke="#bfbfbf" points="179.5,-168.5 179.5,-187.5 226.5,-187.5 226.5,-168.5 179.5,-168.5"/>
<text text-anchor="middle" x="203" y="-175.5" font-family="Helvetica,sans-Serif" font-size="10.00">vector</text>
</a>
</g>
</g>
<!-- Node2&#45;&gt;Node8 -->
<g id="edge7" class="edge">
<title>Node2&#45;&gt;Node8</title>
<path fill="none" stroke="midnightblue" d="M258.81,-284.92C231.53,-279.86 199.29,-268.66 182,-244 171.84,-229.5 180.67,-209.81 189.8,-195.91"/>
<polygon fill="midnightblue" stroke="midnightblue" points="192.68,-197.9 195.64,-187.72 186.98,-193.83 192.68,-197.9"/>
</g>
<!-- Node9 -->
<g id="node9" class="node">
<title>Node9</title>
<g id="a_node9"><a xlink:title=" ">
<polygon fill="white" stroke="#bfbfbf" points="302.5,-224.5 302.5,-243.5 373.5,-243.5 373.5,-224.5 302.5,-224.5"/>
<text text-anchor="middle" x="338" y="-231.5" font-family="Helvetica,sans-Serif" font-size="10.00">wx/regex.h</text>
</a>
</g>
</g>
<!-- Node2&#45;&gt;Node9 -->
<g id="edge8" class="edge">
<title>Node2&#45;&gt;Node9</title>
<path fill="none" stroke="midnightblue" d="M311.28,-280.08C315.71,-272.61 322.16,-261.72 327.62,-252.52"/>
<polygon fill="midnightblue" stroke="midnightblue" points="330.73,-254.14 332.81,-243.75 324.71,-250.57 330.73,-254.14"/>
</g>
<!-- Node10 -->
<g id="node10" class="node">
<title>Node10</title>
<g id="a_node10"><a xlink:title=" ">
<polygon fill="white" stroke="#bfbfbf" points="392,-224.5 392,-243.5 478,-243.5 478,-224.5 392,-224.5"/>
<text text-anchor="middle" x="435" y="-231.5" font-family="Helvetica,sans-Serif" font-size="10.00">wx/filename.h</text>
</a>
</g>
</g>
<!-- Node2&#45;&gt;Node10 -->
<g id="edge9" class="edge">
<title>Node2&#45;&gt;Node10</title>
<path fill="none" stroke="midnightblue" d="M326.44,-280.44C347.67,-271.56 381.1,-257.56 405.25,-247.45"/>
<polygon fill="midnightblue" stroke="midnightblue" points="406.78,-250.61 414.66,-243.52 404.08,-244.15 406.78,-250.61"/>
</g>
<!-- Node11 -->
<g id="node11" class="node">
<title>Node11</title>
<g id="a_node11"><a xlink:title=" ">
<polygon fill="white" stroke="#bfbfbf" points="245,-168.5 245,-187.5 333,-187.5 333,-168.5 245,-168.5"/>
<text text-anchor="middle" x="289" y="-175.5" font-family="Helvetica,sans-Serif" font-size="10.00">wx/hashmap.h</text>
</a>
</g>
</g>
<!-- Node2&#45;&gt;Node11 -->
<g id="edge10" class="edge">
<title>Node2&#45;&gt;Node11</title>
<path fill="none" stroke="midnightblue" d="M303.22,-280.48C300.42,-271.5 296.2,-256.91 294,-244 291.38,-228.64 290.14,-211 289.54,-197.98"/>
<polygon fill="midnightblue" stroke="midnightblue" points="293.03,-197.76 289.17,-187.89 286.04,-198.02 293.03,-197.76"/>
</g>
<!-- Node12 -->
<g id="node12" class="node">
<title>Node12</title>
<g id="a_node12"><a xlink:href="Configuration_8h_source.html" target="_top" xlink:title=" ">
<polygon fill="white" stroke="black" points="922.5,-224.5 922.5,-243.5 1013.5,-243.5 1013.5,-224.5 922.5,-224.5"/>
<text text-anchor="middle" x="968" y="-231.5" font-family="Helvetica,sans-Serif" font-size="10.00">Configuration.h</text>
</a>
</g>
</g>
<!-- Node2&#45;&gt;Node12 -->
<g id="edge11" class="edge">
<title>Node2&#45;&gt;Node12</title>
<path fill="none" stroke="midnightblue" d="M353.08,-285.16C472.03,-275.46 784.24,-249.99 912.14,-239.56"/>
<polygon fill="midnightblue" stroke="midnightblue" points="912.8,-243.01 922.48,-238.71 912.23,-236.04 912.8,-243.01"/>
</g>
<!-- Node13 -->
<g id="node13" class="node">
<title>Node13</title>
<g id="a_node13"><a xlink:href="precomp_8h_source.html" target="_top" xlink:title=" ">
<polygon fill="white" stroke="black" points="1681,-56.5 1681,-75.5 1749,-75.5 1749,-56.5 1681,-56.5"/>
<text text-anchor="middle" x="1715" y="-63.5" font-family="Helvetica,sans-Serif" font-size="10.00">precomp.h</text>
</a>
</g>
</g>
<!-- Node2&#45;&gt;Node13 -->
<g id="edge66" class="edge">
<title>Node2&#45;&gt;Node13</title>
<path fill="none" stroke="midnightblue" d="M353.1,-289C504.66,-288.56 993.22,-283.94 1395,-244 1553.51,-228.24 1642.33,-306.3 1749,-188 1771.64,-162.89 1763.4,-143.82 1752,-112 1748.06,-101 1740.14,-90.77 1732.64,-82.85"/>
<polygon fill="midnightblue" stroke="midnightblue" points="1735.02,-80.28 1725.44,-75.76 1730.11,-85.27 1735.02,-80.28"/>
</g>
<!-- Node41 -->
<g id="node41" class="node">
<title>Node41</title>
<g id="a_node41"><a xlink:title=" ">
<polygon fill="white" stroke="#bfbfbf" points="1293.5,-56.5 1293.5,-75.5 1386.5,-75.5 1386.5,-56.5 1293.5,-56.5"/>
<text text-anchor="middle" x="1340" y="-63.5" font-family="Helvetica,sans-Serif" font-size="10.00">unordered_map</text>
</a>
</g>
</g>
<!-- Node2&#45;&gt;Node41 -->
<g id="edge67" class="edge">
<title>Node2&#45;&gt;Node41</title>
<path fill="none" stroke="midnightblue" d="M353.2,-288.85C568.9,-287.69 1453.82,-277.45 1534,-188 1539.93,-181.38 1538.61,-175.6 1534,-168 1503.44,-117.64 1438.69,-91.23 1392.4,-78.23"/>
<polygon fill="midnightblue" stroke="midnightblue" points="1393.1,-74.79 1382.53,-75.58 1391.28,-81.56 1393.1,-74.79"/>
</g>
<!-- Node12&#45;&gt;Node4 -->
<g id="edge63" class="edge">
<title>Node12&#45;&gt;Node4</title>
<path fill="none" stroke="midnightblue" d="M922.35,-229.62C848.81,-223.76 699.75,-210.18 575,-188 401.86,-157.22 199.25,-102.03 115.4,-78.32"/>
<polygon fill="midnightblue" stroke="midnightblue" points="116.11,-74.89 105.54,-75.52 114.2,-81.62 116.11,-74.89"/>
</g>
<!-- Node12&#45;&gt;Node5 -->
<g id="edge57" class="edge">
<title>Node12&#45;&gt;Node5</title>
<path fill="none" stroke="midnightblue" d="M922.31,-227.26C864.97,-219.76 763.74,-205.48 678,-188 578.71,-167.76 552.61,-165.54 457,-132 436.73,-124.89 433.56,-118.23 413,-112 321.24,-84.18 292.03,-94.69 194.02,-76.05"/>
<polygon fill="midnightblue" stroke="midnightblue" points="194.49,-72.58 184,-74.09 193.14,-79.45 194.49,-72.58"/>
</g>
<!-- Node12&#45;&gt;Node6 -->
<g id="edge14" class="edge">
<title>Node12&#45;&gt;Node6</title>
<path fill="none" stroke="midnightblue" d="M922.34,-233.22C801.37,-233.22 462.61,-229.35 171.85,-187.82"/>
<polygon fill="midnightblue" stroke="midnightblue" points="171.93,-184.29 161.53,-186.33 170.93,-191.22 171.93,-184.29"/>
</g>
<!-- Node12&#45;&gt;Node8 -->
<g id="edge62" class="edge">
<title>Node12&#45;&gt;Node8</title>
<path fill="none" stroke="midnightblue" d="M922.24,-233.43C807.94,-233.8 500.82,-230.55 236.83,-187.75"/>
<polygon fill="midnightblue" stroke="midnightblue" points="237.1,-184.25 226.66,-186.08 235.96,-191.15 237.1,-184.25"/>
</g>
<!-- Node12&#45;&gt;Node11 -->
<g id="edge18" class="edge">
<title>Node12&#45;&gt;Node11</title>
<path fill="none" stroke="midnightblue" d="M922.25,-229.73C823.9,-222.63 585.02,-205.09 385,-188 371.58,-186.85 357.1,-185.54 343.57,-184.27"/>
<polygon fill="midnightblue" stroke="midnightblue" points="343.72,-180.77 333.44,-183.32 343.06,-187.74 343.72,-180.77"/>
</g>
<!-- Node12&#45;&gt;Node13 -->
<g id="edge12" class="edge">
<title>Node12&#45;&gt;Node13</title>
<path fill="none" stroke="midnightblue" d="M1013.67,-232.01C1174.36,-228.32 1705.33,-214.17 1730,-188 1756.28,-160.12 1737.91,-111.19 1724.88,-84.9"/>
<polygon fill="midnightblue" stroke="midnightblue" points="1727.82,-82.98 1720.09,-75.73 1721.62,-86.22 1727.82,-82.98"/>
</g>
<!-- Node15 -->
<g id="node15" class="node">
<title>Node15</title>
<g id="a_node15"><a xlink:title=" ">
<polygon fill="white" stroke="#bfbfbf" points="1304,-112.5 1304,-131.5 1376,-131.5 1376,-112.5 1304,-112.5"/>
<text text-anchor="middle" x="1340" y="-119.5" font-family="Helvetica,sans-Serif" font-size="10.00">wx/config.h</text>
</a>
</g>
</g>
<!-- Node12&#45;&gt;Node15 -->
<g id="edge15" class="edge">
<title>Node12&#45;&gt;Node15</title>
<path fill="none" stroke="midnightblue" d="M1013.85,-228.88C1064.43,-223.38 1147.72,-211.48 1216,-188 1235.91,-181.15 1285.66,-153.8 1315.75,-136.84"/>
<polygon fill="midnightblue" stroke="midnightblue" points="1317.79,-139.71 1324.76,-131.73 1314.34,-133.62 1317.79,-139.71"/>
</g>
<!-- Node16 -->
<g id="node16" class="node">
<title>Node16</title>
<g id="a_node16"><a xlink:title=" ">
<polygon fill="white" stroke="#bfbfbf" points="1339.5,-168.5 1339.5,-187.5 1416.5,-187.5 1416.5,-168.5 1339.5,-168.5"/>
<text text-anchor="middle" x="1378" y="-175.5" font-family="Helvetica,sans-Serif" font-size="10.00">wx/display.h</text>
</a>
</g>
</g>
<!-- Node12&#45;&gt;Node16 -->
<g id="edge16" class="edge">
<title>Node12&#45;&gt;Node16</title>
<path fill="none" stroke="midnightblue" d="M1013.73,-227.87C1081.73,-220.1 1213.46,-204.49 1325,-188 1326.3,-187.81 1327.61,-187.61 1328.94,-187.41"/>
<polygon fill="midnightblue" stroke="midnightblue" points="1329.91,-190.8 1339.24,-185.78 1328.82,-183.88 1329.91,-190.8"/>
</g>
<!-- Node17 -->
<g id="node17" class="node">
<title>Node17</title>
<g id="a_node17"><a xlink:title=" ">
<polygon fill="white" stroke="#bfbfbf" points="1435,-168.5 1435,-187.5 1525,-187.5 1525,-168.5 1435,-168.5"/>
<text text-anchor="middle" x="1480" y="-175.5" font-family="Helvetica,sans-Serif" font-size="10.00">wx/fontenum.h</text>
</a>
</g>
</g>
<!-- Node12&#45;&gt;Node17 -->
<g id="edge17" class="edge">
<title>Node12&#45;&gt;Node17</title>
<path fill="none" stroke="midnightblue" d="M1013.62,-229.54C1094.34,-223.19 1267.84,-208.56 1424.65,-188.1"/>
<polygon fill="midnightblue" stroke="midnightblue" points="1425.49,-191.52 1434.95,-186.74 1424.58,-184.58 1425.49,-191.52"/>
</g>
<!-- Node18 -->
<g id="node18" class="node">
<title>Node18</title>
<g id="a_node18"><a xlink:href="LoggingMessageDialog_8h.html" target="_top" xlink:title="This file declares a message dialog that sends its contents to the log message sink.">
<polygon fill="white" stroke="black" points="1581.5,-168.5 1581.5,-187.5 1720.5,-187.5 1720.5,-168.5 1581.5,-168.5"/>
<text text-anchor="middle" x="1651" y="-175.5" font-family="Helvetica,sans-Serif" font-size="10.00">LoggingMessageDialog.h</text>
</a>
</g>
</g>
<!-- Node12&#45;&gt;Node18 -->
<g id="edge19" class="edge">
<title>Node12&#45;&gt;Node18</title>
<path fill="none" stroke="midnightblue" d="M1013.61,-229.39C1127.81,-220.36 1427.21,-196.69 1571.29,-185.3"/>
<polygon fill="midnightblue" stroke="midnightblue" points="1571.7,-188.78 1581.39,-184.5 1571.15,-181.8 1571.7,-188.78"/>
</g>
<!-- Node21 -->
<g id="node21" class="node">
<title>Node21</title>
<g id="a_node21"><a xlink:href="TextStyle_8h.html" target="_top" xlink:title="This file declares everything needed for the text style system used to style all the elements on the ...">
<polygon fill="white" stroke="black" points="785.5,-168.5 785.5,-187.5 856.5,-187.5 856.5,-168.5 785.5,-168.5"/>
<text text-anchor="middle" x="821" y="-175.5" font-family="Helvetica,sans-Serif" font-size="10.00">TextStyle.h</text>
</a>
</g>
</g>
<!-- Node12&#45;&gt;Node21 -->
<g id="edge23" class="edge">
<title>Node12&#45;&gt;Node21</title>
<path fill="none" stroke="midnightblue" d="M944.71,-224.44C920.19,-215.44 881.4,-201.19 853.8,-191.05"/>
<polygon fill="midnightblue" stroke="midnightblue" points="854.78,-187.68 844.18,-187.52 852.36,-194.25 854.78,-187.68"/>
</g>
<!-- Node28 -->
<g id="node28" class="node">
<title>Node28</title>
<g id="a_node28"><a xlink:title=" ">
<polygon fill="white" stroke="#bfbfbf" points="615,-56.5 615,-75.5 665,-75.5 665,-56.5 615,-56.5"/>
<text text-anchor="middle" x="640" y="-63.5" font-family="Helvetica,sans-Serif" font-size="10.00">cstdint</text>
</a>
</g>
</g>
<!-- Node12&#45;&gt;Node28 -->
<g id="edge56" class="edge">
<title>Node12&#45;&gt;Node28</title>
<path fill="none" stroke="midnightblue" d="M922.34,-226.66C836.92,-213.72 658.45,-181.3 624,-132 614.16,-117.91 621.02,-98.41 628.58,-84.45"/>
<polygon fill="midnightblue" stroke="midnightblue" points="631.62,-86.19 633.72,-75.81 625.6,-82.61 631.62,-86.19"/>
</g>
<!-- Node39 -->
<g id="node39" class="node">
<title>Node39</title>
<g id="a_node39"><a xlink:title=" ">
<polygon fill="white" stroke="#bfbfbf" points="1190,-56.5 1190,-75.5 1222,-75.5 1222,-56.5 1190,-56.5"/>
<text text-anchor="middle" x="1206" y="-63.5" font-family="Helvetica,sans-Serif" font-size="10.00">list</text>
</a>
</g>
</g>
<!-- Node12&#45;&gt;Node39 -->
<g id="edge61" class="edge">
<title>Node12&#45;&gt;Node39</title>
<path fill="none" stroke="midnightblue" d="M1013.98,-229C1070.23,-223.34 1167.97,-211.02 1249,-188 1271.23,-181.68 1275.64,-176.82 1297,-168 1336.06,-151.87 1361.45,-167.08 1385,-132 1389.95,-124.62 1390.47,-119.01 1385,-112 1366.34,-88.07 1277.33,-74.92 1232.26,-69.69"/>
<polygon fill="midnightblue" stroke="midnightblue" points="1232.4,-66.19 1222.08,-68.56 1231.63,-73.15 1232.4,-66.19"/>
</g>
<!-- Node12&#45;&gt;Node41 -->
<g id="edge59" class="edge">
<title>Node12&#45;&gt;Node41</title>
<path fill="none" stroke="midnightblue" d="M1013.63,-231.13C1076.46,-227.55 1192.56,-217.23 1287,-188 1293.69,-185.93 1396.31,-137.95 1400,-132 1412.4,-112.02 1388.5,-92.68 1367.29,-80.37"/>
<polygon fill="midnightblue" stroke="midnightblue" points="1368.93,-77.28 1358.47,-75.55 1365.56,-83.42 1368.93,-77.28"/>
</g>
<!-- Node42 -->
<g id="node42" class="node">
<title>Node42</title>
<g id="a_node42"><a xlink:title=" ">
<polygon fill="white" stroke="#bfbfbf" points="875,-168.5 875,-187.5 923,-187.5 923,-168.5 875,-168.5"/>
<text text-anchor="middle" x="899" y="-175.5" font-family="Helvetica,sans-Serif" font-size="10.00">mutex</text>
</a>
</g>
</g>
<!-- Node12&#45;&gt;Node42 -->
<g id="edge58" class="edge">
<title>Node12&#45;&gt;Node42</title>
<path fill="none" stroke="midnightblue" d="M956.91,-224.32C946.51,-216.18 930.74,-203.84 918.28,-194.09"/>
<polygon fill="midnightblue" stroke="midnightblue" points="920.32,-191.24 910.29,-187.83 916.01,-196.75 920.32,-191.24"/>
</g>
<!-- Node43 -->
<g id="node43" class="node">
<title>Node43</title>
<g id="a_node43"><a xlink:title=" ">
<polygon fill="white" stroke="#bfbfbf" points="941,-168.5 941,-187.5 995,-187.5 995,-168.5 941,-168.5"/>
<text text-anchor="middle" x="968" y="-175.5" font-family="Helvetica,sans-Serif" font-size="10.00">random</text>
</a>
</g>
</g>
<!-- Node12&#45;&gt;Node43 -->
<g id="edge60" class="edge">
<title>Node12&#45;&gt;Node43</title>
<path fill="none" stroke="midnightblue" d="M968,-224.08C968,-217.01 968,-206.86 968,-197.99"/>
<polygon fill="midnightblue" stroke="midnightblue" points="971.5,-197.75 968,-187.75 964.5,-197.75 971.5,-197.75"/>
</g>
<!-- Node44 -->
<g id="node44" class="node">
<title>Node44</title>
<g id="a_node44"><a xlink:title=" ">
<polygon fill="white" stroke="#bfbfbf" points="1013.5,-168.5 1013.5,-187.5 1102.5,-187.5 1102.5,-168.5 1013.5,-168.5"/>
<text text-anchor="middle" x="1058" y="-175.5" font-family="Helvetica,sans-Serif" font-size="10.00">wx/wupdlock.h</text>
</a>
</g>
</g>
<!-- Node12&#45;&gt;Node44 -->
<g id="edge64" class="edge">
<title>Node12&#45;&gt;Node44</title>
<path fill="none" stroke="midnightblue" d="M982.46,-224.32C996.5,-215.9 1018.05,-202.97 1034.54,-193.07"/>
<polygon fill="midnightblue" stroke="midnightblue" points="1036.8,-195.8 1043.58,-187.65 1033.2,-189.8 1036.8,-195.8"/>
</g>
<!-- Node45 -->
<g id="node45" class="node">
<title>Node45</title>
<g id="a_node45"><a xlink:title=" ">
<polygon fill="white" stroke="#bfbfbf" points="1121,-168.5 1121,-187.5 1207,-187.5 1207,-168.5 1121,-168.5"/>
<text text-anchor="middle" x="1164" y="-175.5" font-family="Helvetica,sans-Serif" font-size="10.00">wx/webview.h</text>
</a>
</g>
</g>
<!-- Node12&#45;&gt;Node45 -->
<g id="edge65" class="edge">
<title>Node12&#45;&gt;Node45</title>
<path fill="none" stroke="midnightblue" d="M999.06,-224.44C1032.6,-215.2 1086.2,-200.44 1123.14,-190.26"/>
<polygon fill="midnightblue" stroke="midnightblue" points="1124.38,-193.55 1133.09,-187.52 1122.52,-186.8 1124.38,-193.55"/>
</g>
<!-- Node14 -->
<g id="node14" class="node">
<title>Node14</title>
<g id="a_node14"><a xlink:href="Version_8h_source.html" target="_top" xlink:title=" ">
<polygon fill="white" stroke="black" points="1684,-0.5 1684,-19.5 1746,-19.5 1746,-0.5 1684,-0.5"/>
<text text-anchor="middle" x="1715" y="-7.5" font-family="Helvetica,sans-Serif" font-size="10.00">Version.h</text>
</a>
</g>
</g>
<!-- Node13&#45;&gt;Node14 -->
<g id="edge13" class="edge">
<title>Node13&#45;&gt;Node14</title>
<path fill="none" stroke="midnightblue" d="M1715,-56.08C1715,-49.01 1715,-38.86 1715,-29.99"/>
<polygon fill="midnightblue" stroke="midnightblue" points="1718.5,-29.75 1715,-19.75 1711.5,-29.75 1718.5,-29.75"/>
</g>
<!-- Node18&#45;&gt;Node13 -->
<g id="edge20" class="edge">
<title>Node18&#45;&gt;Node13</title>
<path fill="none" stroke="midnightblue" d="M1662.61,-168.23C1672.8,-159.95 1687.33,-146.64 1696,-132 1704.52,-117.62 1709.44,-99.16 1712.13,-85.59"/>
<polygon fill="midnightblue" stroke="midnightblue" points="1715.61,-85.99 1713.89,-75.54 1708.71,-84.78 1715.61,-85.99"/>
</g>
<!-- Node19 -->
<g id="node19" class="node">
<title>Node19</title>
<g id="a_node19"><a xlink:title=" ">
<polygon fill="white" stroke="#bfbfbf" points="1607.5,-112.5 1607.5,-131.5 1686.5,-131.5 1686.5,-112.5 1607.5,-112.5"/>
<text text-anchor="middle" x="1647" y="-119.5" font-family="Helvetica,sans-Serif" font-size="10.00">wx/msgdlg.h</text>
</a>
</g>
</g>
<!-- Node18&#45;&gt;Node19 -->
<g id="edge21" class="edge">
<title>Node18&#45;&gt;Node19</title>
<path fill="none" stroke="midnightblue" d="M1650.34,-168.08C1649.82,-161.01 1649.06,-150.86 1648.41,-141.99"/>
<polygon fill="midnightblue" stroke="midnightblue" points="1651.88,-141.47 1647.65,-131.75 1644.9,-141.98 1651.88,-141.47"/>
</g>
<!-- Node20 -->
<g id="node20" class="node">
<title>Node20</title>
<g id="a_node20"><a xlink:title=" ">
<polygon fill="white" stroke="#bfbfbf" points="1531,-112.5 1531,-131.5 1589,-131.5 1589,-112.5 1531,-112.5"/>
<text text-anchor="middle" x="1560" y="-119.5" font-family="Helvetica,sans-Serif" font-size="10.00">wx/log.h</text>
</a>
</g>
</g>
<!-- Node18&#45;&gt;Node20 -->
<g id="edge22" class="edge">
<title>Node18&#45;&gt;Node20</title>
<path fill="none" stroke="midnightblue" d="M1636.38,-168.32C1622.05,-159.82 1599.99,-146.73 1583.25,-136.8"/>
<polygon fill="midnightblue" stroke="midnightblue" points="1584.97,-133.75 1574.58,-131.65 1581.4,-139.77 1584.97,-133.75"/>
</g>
<!-- Node21&#45;&gt;Node13 -->
<g id="edge24" class="edge">
<title>Node21&#45;&gt;Node13</title>
<path fill="none" stroke="midnightblue" d="M856.8,-169.5C859.91,-168.95 863.01,-168.44 866,-168 1030.32,-143.68 1075.79,-167.76 1238,-132 1264.22,-126.22 1268.81,-117.91 1295,-112 1429.59,-81.61 1593.21,-71.58 1670.49,-68.4"/>
<polygon fill="midnightblue" stroke="midnightblue" points="1670.96,-71.89 1680.81,-68 1670.68,-64.89 1670.96,-71.89"/>
</g>
<!-- Node21&#45;&gt;Node15 -->
<g id="edge29" class="edge">
<title>Node21&#45;&gt;Node15</title>
<path fill="none" stroke="midnightblue" d="M856.8,-169.46C859.9,-168.92 863,-168.43 866,-168 1053.24,-141.41 1102.51,-156.78 1290,-132 1291.25,-131.83 1292.52,-131.66 1293.81,-131.48"/>
<polygon fill="midnightblue" stroke="midnightblue" points="1294.39,-134.93 1303.74,-129.94 1293.32,-128.01 1294.39,-134.93"/>
</g>
<!-- Node22 -->
<g id="node22" class="node">
<title>Node22</title>
<g id="a_node22"><a xlink:title=" ">
<polygon fill="white" stroke="#bfbfbf" points="677,-112.5 677,-131.5 749,-131.5 749,-112.5 677,-112.5"/>
<text text-anchor="middle" x="713" y="-119.5" font-family="Helvetica,sans-Serif" font-size="10.00">wx/colour.h</text>
</a>
</g>
</g>
<!-- Node21&#45;&gt;Node22 -->
<g id="edge25" class="edge">
<title>Node21&#45;&gt;Node22</title>
<path fill="none" stroke="midnightblue" d="M803.65,-168.32C786.33,-159.66 759.48,-146.24 739.5,-136.25"/>
<polygon fill="midnightblue" stroke="midnightblue" points="740.82,-133 730.31,-131.65 737.69,-139.26 740.82,-133"/>
</g>
<!-- Node23 -->
<g id="node23" class="node">
<title>Node23</title>
<g id="a_node23"><a xlink:title=" ">
<polygon fill="white" stroke="#bfbfbf" points="767,-112.5 767,-131.5 805,-131.5 805,-112.5 767,-112.5"/>
<text text-anchor="middle" x="786" y="-119.5" font-family="Helvetica,sans-Serif" font-size="10.00">map</text>
</a>
</g>
</g>
<!-- Node21&#45;&gt;Node23 -->
<g id="edge26" class="edge">
<title>Node21&#45;&gt;Node23</title>
<path fill="none" stroke="midnightblue" d="M815.22,-168.08C810.33,-160.53 803.17,-149.49 797.17,-140.23"/>
<polygon fill="midnightblue" stroke="midnightblue" points="800.05,-138.24 791.67,-131.75 794.17,-142.05 800.05,-138.24"/>
</g>
<!-- Node24 -->
<g id="node24" class="node">
<title>Node24</title>
<g id="a_node24"><a xlink:title=" ">
<polygon fill="white" stroke="#bfbfbf" points="823,-112.5 823,-131.5 867,-131.5 867,-112.5 823,-112.5"/>
<text text-anchor="middle" x="845" y="-119.5" font-family="Helvetica,sans-Serif" font-size="10.00">string</text>
</a>
</g>
</g>
<!-- Node21&#45;&gt;Node24 -->
<g id="edge27" class="edge">
<title>Node21&#45;&gt;Node24</title>
<path fill="none" stroke="midnightblue" d="M824.96,-168.08C828.21,-160.77 832.92,-150.18 836.95,-141.1"/>
<polygon fill="midnightblue" stroke="midnightblue" points="840.25,-142.31 841.11,-131.75 833.85,-139.47 840.25,-142.31"/>
</g>
<!-- Node25 -->
<g id="node25" class="node">
<title>Node25</title>
<g id="a_node25"><a xlink:title=" ">
<polygon fill="white" stroke="#bfbfbf" points="885.5,-112.5 885.5,-131.5 942.5,-131.5 942.5,-112.5 885.5,-112.5"/>
<text text-anchor="middle" x="914" y="-119.5" font-family="Helvetica,sans-Serif" font-size="10.00">ostream</text>
</a>
</g>
</g>
<!-- Node21&#45;&gt;Node25 -->
<g id="edge28" class="edge">
<title>Node21&#45;&gt;Node25</title>
<path fill="none" stroke="midnightblue" d="M835.94,-168.32C850.59,-159.82 873.13,-146.73 890.24,-136.8"/>
<polygon fill="midnightblue" stroke="midnightblue" points="892.2,-139.7 899.1,-131.65 888.69,-133.65 892.2,-139.7"/>
</g>
<!-- Node26 -->
<g id="node26" class="node">
<title>Node26</title>
<g id="a_node26"><a xlink:title=" ">
<polygon fill="white" stroke="#bfbfbf" points="1021,-56.5 1021,-75.5 1083,-75.5 1083,-56.5 1021,-56.5"/>
<text text-anchor="middle" x="1052" y="-63.5" font-family="Helvetica,sans-Serif" font-size="10.00">wx/font.h</text>
</a>
</g>
</g>
<!-- Node21&#45;&gt;Node26 -->
<g id="edge30" class="edge">
<title>Node21&#45;&gt;Node26</title>
<path fill="none" stroke="midnightblue" d="M856.81,-169.56C859.91,-169 863.01,-168.47 866,-168 935.6,-157.08 1134.09,-184.57 1181,-132 1209.85,-99.66 1140.96,-81.36 1093.15,-72.89"/>
<polygon fill="midnightblue" stroke="midnightblue" points="1093.45,-69.39 1083.01,-71.18 1092.29,-76.29 1093.45,-69.39"/>
</g>
<!-- Node27 -->
<g id="node27" class="node">
<title>Node27</title>
<g id="a_node27"><a xlink:title=" ">
<polygon fill="white" stroke="#bfbfbf" points="1090,-112.5 1090,-131.5 1172,-131.5 1172,-112.5 1090,-112.5"/>
<text text-anchor="middle" x="1131" y="-119.5" font-family="Helvetica,sans-Serif" font-size="10.00">wx/settings.h</text>
</a>
</g>
</g>
<!-- Node21&#45;&gt;Node27 -->
<g id="edge31" class="edge">
<title>Node21&#45;&gt;Node27</title>
<path fill="none" stroke="midnightblue" d="M856.84,-169.73C859.94,-169.13 863.02,-168.55 866,-168 958.13,-151.08 983.85,-148.73 1079.68,-132.21"/>
<polygon fill="midnightblue" stroke="midnightblue" points="1080.55,-135.61 1089.81,-130.46 1079.36,-128.71 1080.55,-135.61"/>
</g>
<!-- Node21&#45;&gt;Node28 -->
<g id="edge32" class="edge">
<title>Node21&#45;&gt;Node28</title>
<path fill="none" stroke="midnightblue" d="M785.22,-173.53C736.53,-167.99 653.34,-155.3 635,-132 624.74,-118.96 627.87,-99.53 632.42,-85.31"/>
<polygon fill="midnightblue" stroke="midnightblue" points="635.81,-86.24 635.98,-75.65 629.24,-83.82 635.81,-86.24"/>
</g>
<!-- Node29 -->
<g id="node29" class="node">
<title>Node29</title>
<g id="a_node29"><a xlink:title=" ">
<polygon fill="white" stroke="#bfbfbf" points="610.5,-0.5 610.5,-19.5 675.5,-19.5 675.5,-0.5 610.5,-0.5"/>
<text text-anchor="middle" x="643" y="-7.5" font-family="Helvetica,sans-Serif" font-size="10.00">functional</text>
</a>
</g>
</g>
<!-- Node21&#45;&gt;Node29 -->
<g id="edge33" class="edge">
<title>Node21&#45;&gt;Node29</title>
<path fill="none" stroke="midnightblue" d="M785.22,-171.49C744.57,-164.42 682.06,-150.79 668,-132 647.7,-104.87 684.07,-88.35 674,-56 670.77,-45.62 664.22,-35.52 657.98,-27.53"/>
<polygon fill="midnightblue" stroke="midnightblue" points="660.58,-25.19 651.48,-19.77 655.21,-29.68 660.58,-25.19"/>
</g>
<!-- Node30 -->
<g id="node30" class="node">
<title>Node30</title>
<g id="a_node30"><a xlink:href="FontAttribs_8h_source.html" target="_top" xlink:title=" ">
<polygon fill="white" stroke="black" points="465.5,-112.5 465.5,-131.5 544.5,-131.5 544.5,-112.5 465.5,-112.5"/>
<text text-anchor="middle" x="505" y="-119.5" font-family="Helvetica,sans-Serif" font-size="10.00">FontAttribs.h</text>
</a>
</g>
</g>
<!-- Node21&#45;&gt;Node30 -->
<g id="edge34" class="edge">
<title>Node21&#45;&gt;Node30</title>
<path fill="none" stroke="midnightblue" d="M785.37,-170.91C728.91,-161.26 618.73,-142.44 554.59,-131.47"/>
<polygon fill="midnightblue" stroke="midnightblue" points="555.16,-128.02 544.71,-129.79 553.98,-134.92 555.16,-128.02"/>
</g>
<!-- Node38 -->
<g id="node38" class="node">
<title>Node38</title>
<g id="a_node38"><a xlink:href="FontVariantCache_8h.html" target="_top" xlink:title="This file implements the wxFont cache system.">
<polygon fill="white" stroke="black" points="960.5,-112.5 960.5,-131.5 1071.5,-131.5 1071.5,-112.5 960.5,-112.5"/>
<text text-anchor="middle" x="1016" y="-119.5" font-family="Helvetica,sans-Serif" font-size="10.00">FontVariantCache.h</text>
</a>
</g>
</g>
<!-- Node21&#45;&gt;Node38 -->
<g id="edge47" class="edge">
<title>Node21&#45;&gt;Node38</title>
<path fill="none" stroke="midnightblue" d="M851.9,-168.44C885.27,-159.2 938.59,-144.44 975.35,-134.26"/>
<polygon fill="midnightblue" stroke="midnightblue" points="976.54,-137.56 985.25,-131.52 974.67,-130.81 976.54,-137.56"/>
</g>
<!-- Node21&#45;&gt;Node41 -->
<g id="edge55" class="edge">
<title>Node21&#45;&gt;Node41</title>
<path fill="none" stroke="midnightblue" d="M856.81,-169.54C859.91,-168.98 863.01,-168.46 866,-168 1012.69,-145.42 1054.9,-171.39 1198,-132 1241.73,-119.96 1288.94,-95.9 1316.41,-80.67"/>
<polygon fill="midnightblue" stroke="midnightblue" points="1318.27,-83.64 1325.27,-75.69 1314.84,-77.54 1318.27,-83.64"/>
</g>
<!-- Node30&#45;&gt;Node4 -->
<g id="edge43" class="edge">
<title>Node30&#45;&gt;Node4</title>
<path fill="none" stroke="midnightblue" d="M465.44,-116.92C384.24,-108.48 200.2,-88.9 118.53,-76.07"/>
<polygon fill="midnightblue" stroke="midnightblue" points="118.6,-72.53 108.17,-74.38 117.48,-79.44 118.6,-72.53"/>
</g>
<!-- Node30&#45;&gt;Node26 -->
<g id="edge41" class="edge">
<title>Node30&#45;&gt;Node26</title>
<path fill="none" stroke="midnightblue" d="M544.8,-118.16C644.59,-110.92 904.48,-91.38 1010.56,-75.99"/>
<polygon fill="midnightblue" stroke="midnightblue" points="1011.27,-79.43 1020.63,-74.47 1010.22,-72.5 1011.27,-79.43"/>
</g>
<!-- Node30&#45;&gt;Node28 -->
<g id="edge44" class="edge">
<title>Node30&#45;&gt;Node28</title>
<path fill="none" stroke="midnightblue" d="M526.39,-112.44C548.71,-103.52 583.9,-89.44 609.21,-79.32"/>
<polygon fill="midnightblue" stroke="midnightblue" points="610.72,-82.48 618.71,-75.52 608.12,-75.98 610.72,-82.48"/>
</g>
<!-- Node30&#45;&gt;Node29 -->
<g id="edge45" class="edge">
<title>Node30&#45;&gt;Node29</title>
<path fill="none" stroke="midnightblue" d="M517.81,-112.38C530.72,-103.56 551.11,-89.31 568,-76 588.56,-59.81 611.12,-39.95 626.07,-26.48"/>
<polygon fill="midnightblue" stroke="midnightblue" points="628.48,-29.02 633.54,-19.71 623.78,-23.83 628.48,-29.02"/>
</g>
<!-- Node31 -->
<g id="node31" class="node">
<title>Node31</title>
<g id="a_node31"><a xlink:href="EnumWrapper_8h_source.html" target="_top" xlink:title=" ">
<polygon fill="white" stroke="black" points="202,-56.5 202,-75.5 296,-75.5 296,-56.5 202,-56.5"/>
<text text-anchor="middle" x="249" y="-63.5" font-family="Helvetica,sans-Serif" font-size="10.00">EnumWrapper.h</text>
</a>
</g>
</g>
<!-- Node30&#45;&gt;Node31 -->
<g id="edge35" class="edge">
<title>Node30&#45;&gt;Node31</title>
<path fill="none" stroke="midnightblue" d="M465.28,-112.62C420.7,-103.22 348.27,-87.94 299.65,-77.68"/>
<polygon fill="midnightblue" stroke="midnightblue" points="300.17,-74.22 289.66,-75.58 298.72,-81.07 300.17,-74.22"/>
</g>
<!-- Node34 -->
<g id="node34" class="node">
<title>Node34</title>
<g id="a_node34"><a xlink:href="clamp_8hpp_source.html" target="_top" xlink:title=" ">
<polygon fill="white" stroke="black" points="473,-56.5 473,-75.5 559,-75.5 559,-56.5 473,-56.5"/>
<text text-anchor="middle" x="516" y="-63.5" font-family="Helvetica,sans-Serif" font-size="10.00">stx/clamp.hpp</text>
</a>
</g>
</g>
<!-- Node30&#45;&gt;Node34 -->
<g id="edge39" class="edge">
<title>Node30&#45;&gt;Node34</title>
<path fill="none" stroke="midnightblue" d="M506.82,-112.08C508.27,-104.93 510.37,-94.64 512.19,-85.69"/>
<polygon fill="midnightblue" stroke="midnightblue" points="515.65,-86.25 514.22,-75.75 508.79,-84.85 515.65,-86.25"/>
</g>
<!-- Node36 -->
<g id="node36" class="node">
<title>Node36</title>
<g id="a_node36"><a xlink:title=" ">
<polygon fill="white" stroke="#bfbfbf" points="314.5,-56.5 314.5,-75.5 393.5,-75.5 393.5,-56.5 314.5,-56.5"/>
<text text-anchor="middle" x="354" y="-63.5" font-family="Helvetica,sans-Serif" font-size="10.00">wx/version.h</text>
</a>
</g>
</g>
<!-- Node30&#45;&gt;Node36 -->
<g id="edge42" class="edge">
<title>Node30&#45;&gt;Node36</title>
<path fill="none" stroke="midnightblue" d="M481.07,-112.44C455.78,-103.4 415.7,-89.06 387.32,-78.92"/>
<polygon fill="midnightblue" stroke="midnightblue" points="388.41,-75.59 377.81,-75.52 386.05,-82.18 388.41,-75.59"/>
</g>
<!-- Node37 -->
<g id="node37" class="node">
<title>Node37</title>
<g id="a_node37"><a xlink:title=" ">
<polygon fill="white" stroke="#bfbfbf" points="411,-56.5 411,-75.5 455,-75.5 455,-56.5 411,-56.5"/>
<text text-anchor="middle" x="433" y="-63.5" font-family="Helvetica,sans-Serif" font-size="10.00">limits</text>
</a>
</g>
</g>
<!-- Node30&#45;&gt;Node37 -->
<g id="edge46" class="edge">
<title>Node30&#45;&gt;Node37</title>
<path fill="none" stroke="midnightblue" d="M493.43,-112.32C482.58,-104.18 466.12,-91.84 453.12,-82.09"/>
<polygon fill="midnightblue" stroke="midnightblue" points="454.88,-79.03 444.78,-75.83 450.68,-84.63 454.88,-79.03"/>
</g>
<!-- Node31&#45;&gt;Node29 -->
<g id="edge37" class="edge">
<title>Node31&#45;&gt;Node29</title>
<path fill="none" stroke="midnightblue" d="M296.26,-57.45C299.56,-56.95 302.83,-56.46 306,-56 411.68,-40.6 536.31,-24.49 600.32,-16.37"/>
<polygon fill="midnightblue" stroke="midnightblue" points="600.95,-19.82 610.43,-15.09 600.07,-12.87 600.95,-19.82"/>
</g>
<!-- Node32 -->
<g id="node32" class="node">
<title>Node32</title>
<g id="a_node32"><a xlink:title=" ">
<polygon fill="white" stroke="#bfbfbf" points="182.5,-0.5 182.5,-19.5 235.5,-19.5 235.5,-0.5 182.5,-0.5"/>
<text text-anchor="middle" x="209" y="-7.5" font-family="Helvetica,sans-Serif" font-size="10.00">cstddef</text>
</a>
</g>
</g>
<!-- Node31&#45;&gt;Node32 -->
<g id="edge36" class="edge">
<title>Node31&#45;&gt;Node32</title>
<path fill="none" stroke="midnightblue" d="M242.39,-56.08C236.74,-48.46 228.46,-37.26 221.55,-27.94"/>
<polygon fill="midnightblue" stroke="midnightblue" points="224.25,-25.7 215.48,-19.75 218.62,-29.87 224.25,-25.7"/>
</g>
<!-- Node33 -->
<g id="node33" class="node">
<title>Node33</title>
<g id="a_node33"><a xlink:title=" ">
<polygon fill="white" stroke="#bfbfbf" points="253.5,-0.5 253.5,-19.5 322.5,-19.5 322.5,-0.5 253.5,-0.5"/>
<text text-anchor="middle" x="288" y="-7.5" font-family="Helvetica,sans-Serif" font-size="10.00">type_traits</text>
</a>
</g>
</g>
<!-- Node31&#45;&gt;Node33 -->
<g id="edge38" class="edge">
<title>Node31&#45;&gt;Node33</title>
<path fill="none" stroke="midnightblue" d="M255.44,-56.08C260.95,-48.46 269.03,-37.26 275.76,-27.94"/>
<polygon fill="midnightblue" stroke="midnightblue" points="278.66,-29.91 281.68,-19.75 272.99,-25.81 278.66,-29.91"/>
</g>
<!-- Node35 -->
<g id="node35" class="node">
<title>Node35</title>
<g id="a_node35"><a xlink:title=" ">
<polygon fill="white" stroke="#bfbfbf" points="490,-0.5 490,-19.5 542,-19.5 542,-0.5 490,-0.5"/>
<text text-anchor="middle" x="516" y="-7.5" font-family="Helvetica,sans-Serif" font-size="10.00">cassert</text>
</a>
</g>
</g>
<!-- Node34&#45;&gt;Node35 -->
<g id="edge40" class="edge">
<title>Node34&#45;&gt;Node35</title>
<path fill="none" stroke="midnightblue" d="M516,-56.08C516,-49.01 516,-38.86 516,-29.99"/>
<polygon fill="midnightblue" stroke="midnightblue" points="519.5,-29.75 516,-19.75 512.5,-29.75 519.5,-29.75"/>
</g>
<!-- Node38&#45;&gt;Node5 -->
<g id="edge49" class="edge">
<title>Node38&#45;&gt;Node5</title>
<path fill="none" stroke="midnightblue" d="M960.19,-112.84C957.42,-112.54 954.68,-112.25 952,-112 619.05,-80.76 529.16,-122.29 194.33,-75.92"/>
<polygon fill="midnightblue" stroke="midnightblue" points="194.75,-72.44 184.36,-74.52 193.77,-79.37 194.75,-72.44"/>
</g>
<!-- Node38&#45;&gt;Node13 -->
<g id="edge48" class="edge">
<title>Node38&#45;&gt;Node13</title>
<path fill="none" stroke="midnightblue" d="M1071.64,-113.05C1074.8,-112.67 1077.94,-112.32 1081,-112 1301.96,-88.89 1567.51,-74.3 1670.85,-69.12"/>
<polygon fill="midnightblue" stroke="midnightblue" points="1671.1,-72.61 1680.91,-68.62 1670.75,-65.62 1671.1,-72.61"/>
</g>
<!-- Node38&#45;&gt;Node26 -->
<g id="edge50" class="edge">
<title>Node38&#45;&gt;Node26</title>
<path fill="none" stroke="midnightblue" d="M1021.94,-112.08C1026.98,-104.53 1034.34,-93.49 1040.51,-84.23"/>
<polygon fill="midnightblue" stroke="midnightblue" points="1043.53,-86.01 1046.17,-75.75 1037.71,-82.13 1043.53,-86.01"/>
</g>
<!-- Node38&#45;&gt;Node29 -->
<g id="edge51" class="edge">
<title>Node38&#45;&gt;Node29</title>
<path fill="none" stroke="midnightblue" d="M987.04,-112.46C920.59,-92.86 757.1,-44.65 681.94,-22.48"/>
<polygon fill="midnightblue" stroke="midnightblue" points="682.52,-19.01 671.94,-19.53 680.54,-25.72 682.52,-19.01"/>
</g>
<!-- Node38&#45;&gt;Node39 -->
<g id="edge52" class="edge">
<title>Node38&#45;&gt;Node39</title>
<path fill="none" stroke="midnightblue" d="M1046.11,-112.44C1082.9,-101.99 1144.57,-84.46 1179.59,-74.5"/>
<polygon fill="midnightblue" stroke="midnightblue" points="1180.89,-77.78 1189.55,-71.67 1178.98,-71.04 1180.89,-77.78"/>
</g>
<!-- Node40 -->
<g id="node40" class="node">
<title>Node40</title>
<g id="a_node40"><a xlink:title=" ">
<polygon fill="white" stroke="#bfbfbf" points="957.5,-56.5 957.5,-75.5 1002.5,-75.5 1002.5,-56.5 957.5,-56.5"/>
<text text-anchor="middle" x="980" y="-63.5" font-family="Helvetica,sans-Serif" font-size="10.00">utility</text>
</a>
</g>
</g>
<!-- Node38&#45;&gt;Node40 -->
<g id="edge53" class="edge">
<title>Node38&#45;&gt;Node40</title>
<path fill="none" stroke="midnightblue" d="M1010.06,-112.08C1005.02,-104.53 997.66,-93.49 991.49,-84.23"/>
<polygon fill="midnightblue" stroke="midnightblue" points="994.29,-82.13 985.83,-75.75 988.47,-86.01 994.29,-82.13"/>
</g>
<!-- Node38&#45;&gt;Node41 -->
<g id="edge54" class="edge">
<title>Node38&#45;&gt;Node41</title>
<path fill="none" stroke="midnightblue" d="M1067.34,-112.44C1126.12,-102.65 1222.14,-86.64 1283.15,-76.48"/>
<polygon fill="midnightblue" stroke="midnightblue" points="1284.08,-79.87 1293.37,-74.77 1282.93,-72.96 1284.08,-79.87"/>
</g>
</g>
</svg>
