<?xml version="1.0" encoding="UTF-8" standalone="no"?>
<!DOCTYPE svg PUBLIC "-//W3C//DTD SVG 1.1//EN"
 "http://www.w3.org/Graphics/SVG/1.1/DTD/svg11.dtd">
<!-- Generated by graphviz version 2.43.0 (0)
 -->
<!-- Title: src/Autocomplete.h Pages: 1 -->
<!--zoomable 368 -->
<svg id="main" version="1.1" xmlns="http://www.w3.org/2000/svg" xmlns:xlink="http://www.w3.org/1999/xlink" xml:space="preserve" onload="init(evt)">
<style type="text/css"><![CDATA[
.edge:hover path { stroke: red; }
.edge:hover polygon { stroke: red; fill: red; }
]]></style>
<script type="text/javascript"><![CDATA[
var edges = document.getElementsByTagName('g');
if (edges && edges.length) {
  for (var i=0;i<edges.length;i++) {
    if (edges[i].id.substr(0,4)=='edge') {
      edges[i].setAttribute('class','edge');
    }
  }
}
]]></script>
        <defs>
                <circle id="rim" cx="0" cy="0" r="7"/>
                <circle id="rim2" cx="0" cy="0" r="3.5"/>
                <g id="zoomPlus">
                        <use xlink:href="#rim" fill="#404040">
                                <set attributeName="fill" to="#808080" begin="zoomplus.mouseover" end="zoomplus.mouseout"/>
                        </use>
                        <path d="M-4,0h8M0,-4v8" fill="none" stroke="white" stroke-width="1.5" pointer-events="none"/>
                </g>
                <g id="zoomMin">
                        <use xlink:href="#rim" fill="#404040">
                                <set attributeName="fill" to="#808080" begin="zoomminus.mouseover" end="zoomminus.mouseout"/>
                        </use>
                        <path d="M-4,0h8" fill="none" stroke="white" stroke-width="1.5" pointer-events="none"/>
                </g>
                <g id="dirArrow">
                        <path fill="none" stroke="white" stroke-width="1.5" d="M0,-3.0v7 M-2.5,-0.5L0,-3.0L2.5,-0.5"/>
                </g>
               <g id="resetDef">
                       <use xlink:href="#rim2" fill="#404040">
                               <set attributeName="fill" to="#808080" begin="reset.mouseover" end="reset.mouseout"/>
                       </use>
               </g>
        </defs>

<script type="text/javascript">
var viewWidth = 2730;
var viewHeight = 368;
var sectionId = 'dynsection-1';
</script>
<script xlink:href="svgpan.js"/>
<svg id="graph" class="graph">
<g id="viewport">
<title>src/Autocomplete.h</title>
<!-- Node1 -->
<g id="node1" class="node">
<title>Node1</title>
<g id="a_node1"><a xlink:title="This file declares the class AutoComplete.">
<polygon fill="#999999" stroke="#666666" points="1368.5,-360 1257.5,-360 1257.5,-341 1368.5,-341 1368.5,-360"/>
<text text-anchor="middle" x="1313" y="-348" font-family="Helvetica,sans-Serif" font-size="10.00">src/Autocomplete.h</text>
</a>
</g>
</g>
<!-- Node2 -->
<g id="node2" class="node">
<title>Node2</title>
<g id="a_node2"><a xlink:href="Autocomplete_8cpp.html" target="_top" xlink:title="This file defines the class AutoComplete.">
<polygon fill="white" stroke="#666666" points="1224,-305 1102,-305 1102,-286 1224,-286 1224,-305"/>
<text text-anchor="middle" x="1163" y="-293" font-family="Helvetica,sans-Serif" font-size="10.00">src/Autocomplete.cpp</text>
</a>
</g>
</g>
<!-- Node1&#45;&gt;Node2 -->
<g id="edge1" class="edge">
<title>Node1&#45;&gt;Node2</title>
<path fill="none" stroke="#63b8ff" d="M1279.18,-337.55C1251.32,-327.71 1212.49,-313.98 1187.54,-305.17"/>
<polygon fill="#63b8ff" stroke="#63b8ff" points="1278.31,-340.95 1288.9,-340.98 1280.64,-334.35 1278.31,-340.95"/>
</g>
<!-- Node3 -->
<g id="node3" class="node">
<title>Node3</title>
<g id="a_node3"><a xlink:href="AutocompletePopup_8h.html" target="_top" xlink:title="The first number that is open for dynamic ID assignment.">
<polygon fill="white" stroke="#666666" points="1383.5,-305 1242.5,-305 1242.5,-286 1383.5,-286 1383.5,-305"/>
<text text-anchor="middle" x="1313" y="-293" font-family="Helvetica,sans-Serif" font-size="10.00">src/AutocompletePopup.h</text>
</a>
</g>
</g>
<!-- Node1&#45;&gt;Node3 -->
<g id="edge2" class="edge">
<title>Node1&#45;&gt;Node3</title>
<path fill="none" stroke="#63b8ff" d="M1313,-330.66C1313,-321.93 1313,-311.99 1313,-305.09"/>
<polygon fill="#63b8ff" stroke="#63b8ff" points="1309.5,-330.75 1313,-340.75 1316.5,-330.75 1309.5,-330.75"/>
</g>
<!-- Node5 -->
<g id="node5" class="node">
<title>Node5</title>
<g id="a_node5"><a xlink:href="Worksheet_8h.html" target="_top" xlink:title="This file defines the class Worksheet.">
<polygon fill="white" stroke="#666666" points="1459.5,-250 1364.5,-250 1364.5,-231 1459.5,-231 1459.5,-250"/>
<text text-anchor="middle" x="1412" y="-238" font-family="Helvetica,sans-Serif" font-size="10.00">src/Worksheet.h</text>
</a>
</g>
</g>
<!-- Node1&#45;&gt;Node5 -->
<g id="edge50" class="edge">
<title>Node1&#45;&gt;Node5</title>
<path fill="none" stroke="#63b8ff" d="M1347.74,-336.84C1363.22,-329.64 1380.5,-319.17 1392,-305 1405.25,-288.66 1409.77,-263.46 1411.27,-250.25"/>
<polygon fill="#63b8ff" stroke="#63b8ff" points="1346.18,-333.71 1338.41,-340.91 1348.98,-340.12 1346.18,-333.71"/>
</g>
<!-- Node4 -->
<g id="node4" class="node">
<title>Node4</title>
<g id="a_node4"><a xlink:href="AutocompletePopup_8cpp.html" target="_top" xlink:title="This file defines the class AutocompletePopup.">
<polygon fill="white" stroke="#666666" points="423,-129 271,-129 271,-110 423,-110 423,-129"/>
<text text-anchor="middle" x="347" y="-117" font-family="Helvetica,sans-Serif" font-size="10.00">src/AutocompletePopup.cpp</text>
</a>
</g>
</g>
<!-- Node3&#45;&gt;Node4 -->
<g id="edge3" class="edge">
<title>Node3&#45;&gt;Node4</title>
<path fill="none" stroke="#63b8ff" d="M1232.2,-285.63C1017.1,-261.97 446.14,-198.89 437,-195 401.16,-179.75 368.46,-145.47 354.34,-129.28"/>
<polygon fill="#63b8ff" stroke="#63b8ff" points="1231.85,-289.11 1242.17,-286.72 1232.62,-282.15 1231.85,-289.11"/>
</g>
<!-- Node3&#45;&gt;Node5 -->
<g id="edge4" class="edge">
<title>Node3&#45;&gt;Node5</title>
<path fill="none" stroke="#63b8ff" d="M1337.78,-281.23C1355.94,-271.51 1380.06,-258.6 1395.8,-250.17"/>
<polygon fill="#63b8ff" stroke="#63b8ff" points="1336.07,-278.18 1328.91,-285.98 1339.37,-284.35 1336.07,-278.18"/>
</g>
<!-- Node6 -->
<g id="node6" class="node">
<title>Node6</title>
<g id="a_node6"><a xlink:href="MaximaFileIO_8cpp.html" target="_top" xlink:title="Implements the worksheet file loaders/savers extracted from the wxMaxima god class.">
<polygon fill="white" stroke="#666666" points="122,-74 0,-74 0,-55 122,-55 122,-74"/>
<text text-anchor="middle" x="61" y="-62" font-family="Helvetica,sans-Serif" font-size="10.00">src/MaximaFileIO.cpp</text>
</a>
</g>
</g>
<!-- Node5&#45;&gt;Node6 -->
<g id="edge5" class="edge">
<title>Node5&#45;&gt;Node6</title>
<path fill="none" stroke="#63b8ff" d="M1354.36,-238.68C1141.46,-235.46 406.45,-222.43 305,-195 208.24,-168.84 106.84,-99.08 72.87,-74.35"/>
<polygon fill="#63b8ff" stroke="#63b8ff" points="1354.34,-242.18 1364.4,-238.83 1354.45,-235.18 1354.34,-242.18"/>
</g>
<!-- Node7 -->
<g id="node7" class="node">
<title>Node7</title>
<g id="a_node7"><a xlink:href="Worksheet_8cpp.html" target="_top" xlink:title="This file defines the class Worksheet.">
<polygon fill="white" stroke="#666666" points="1456,-74 1350,-74 1350,-55 1456,-55 1456,-74"/>
<text text-anchor="middle" x="1403" y="-62" font-family="Helvetica,sans-Serif" font-size="10.00">src/Worksheet.cpp</text>
</a>
</g>
</g>
<!-- Node5&#45;&gt;Node7 -->
<g id="edge6" class="edge">
<title>Node5&#45;&gt;Node7</title>
<path fill="none" stroke="#63b8ff" d="M1469.85,-239.74C1716.69,-240.46 2671.19,-240.33 2715,-195 2724.27,-185.41 2724.06,-174.78 2715,-165 2628.13,-71.29 1690.85,-65.38 1456.08,-65.38"/>
<polygon fill="#63b8ff" stroke="#63b8ff" points="1469.67,-236.24 1459.66,-239.7 1469.65,-243.24 1469.67,-236.24"/>
</g>
<!-- Node8 -->
<g id="node8" class="node">
<title>Node8</title>
<g id="a_node8"><a xlink:href="WorksheetContextMenu_8cpp.html" target="_top" xlink:title="The worksheet&#39;s right&#45;click context menu (see WorksheetContextMenu.h).">
<polygon fill="white" stroke="#666666" points="805.5,-189.5 634.5,-189.5 634.5,-170.5 805.5,-170.5 805.5,-189.5"/>
<text text-anchor="middle" x="720" y="-177.5" font-family="Helvetica,sans-Serif" font-size="10.00">src/WorksheetContextMenu.cpp</text>
</a>
</g>
</g>
<!-- Node5&#45;&gt;Node8 -->
<g id="edge7" class="edge">
<title>Node5&#45;&gt;Node8</title>
<path fill="none" stroke="#63b8ff" d="M1353.96,-236.6C1246.97,-230.95 1011.51,-217.03 814,-195 800.55,-193.5 786.08,-191.53 772.61,-189.53"/>
<polygon fill="#63b8ff" stroke="#63b8ff" points="1354.05,-240.11 1364.22,-237.14 1354.41,-233.12 1354.05,-240.11"/>
</g>
<!-- Node9 -->
<g id="node9" class="node">
<title>Node9</title>
<g id="a_node9"><a xlink:href="ConfigDialogue_8h.html" target="_top" xlink:title="The configuration dialog.">
<polygon fill="white" stroke="#666666" points="480.5,-74 325.5,-74 325.5,-55 480.5,-55 480.5,-74"/>
<text text-anchor="middle" x="403" y="-62" font-family="Helvetica,sans-Serif" font-size="10.00">src/dialogs/ConfigDialogue.h</text>
</a>
</g>
</g>
<!-- Node5&#45;&gt;Node9 -->
<g id="edge8" class="edge">
<title>Node5&#45;&gt;Node9</title>
<path fill="none" stroke="#63b8ff" d="M1354.21,-238.29C1156.34,-233.95 516.22,-218.16 479,-195 442.35,-172.19 454.24,-147 432,-110 424.4,-97.36 414.97,-83.13 408.97,-74.25"/>
<polygon fill="#63b8ff" stroke="#63b8ff" points="1354.33,-241.79 1364.4,-238.51 1354.48,-234.8 1354.33,-241.79"/>
</g>
<!-- Node13 -->
<g id="node13" class="node">
<title>Node13</title>
<g id="a_node13"><a xlink:href="DiffFrame_8h_source.html" target="_top" xlink:title=" ">
<polygon fill="white" stroke="#666666" points="307.5,-74 178.5,-74 178.5,-55 307.5,-55 307.5,-74"/>
<text text-anchor="middle" x="243" y="-62" font-family="Helvetica,sans-Serif" font-size="10.00">src/dialogs/DiffFrame.h</text>
</a>
</g>
</g>
<!-- Node5&#45;&gt;Node13 -->
<g id="edge12" class="edge">
<title>Node5&#45;&gt;Node13</title>
<path fill="none" stroke="#63b8ff" d="M1354.15,-239.03C1174.01,-237.21 624.68,-228.94 450,-195 363.07,-178.11 323.13,-193.07 262,-129 247.38,-113.68 243.96,-87.58 243.19,-74.11"/>
<polygon fill="#63b8ff" stroke="#63b8ff" points="1354.19,-242.53 1364.22,-239.13 1354.26,-235.53 1354.19,-242.53"/>
</g>
<!-- Node14 -->
<g id="node14" class="node">
<title>Node14</title>
<g id="a_node14"><a xlink:href="Printout_8cpp.html" target="_top" xlink:title="This file defines the class MathPrintOut.">
<polygon fill="white" stroke="#666666" points="978.5,-189.5 823.5,-189.5 823.5,-170.5 978.5,-170.5 978.5,-189.5"/>
<text text-anchor="middle" x="901" y="-177.5" font-family="Helvetica,sans-Serif" font-size="10.00">src/graphical_io/Printout.cpp</text>
</a>
</g>
</g>
<!-- Node5&#45;&gt;Node14 -->
<g id="edge16" class="edge">
<title>Node5&#45;&gt;Node14</title>
<path fill="none" stroke="#63b8ff" d="M1354.12,-234.44C1272.38,-227.07 1118.52,-212.34 988,-195 976.02,-193.41 963.15,-191.47 951.08,-189.54"/>
<polygon fill="#63b8ff" stroke="#63b8ff" points="1353.94,-237.94 1364.21,-235.35 1354.56,-230.97 1353.94,-237.94"/>
</g>
<!-- Node15 -->
<g id="node15" class="node">
<title>Node15</title>
<g id="a_node15"><a xlink:href="wxMaximaFrame_8h.html" target="_top" xlink:title="This file declares the class wxMaximaFrame.">
<polygon fill="white" stroke="#666666" points="616,-189.5 488,-189.5 488,-170.5 616,-170.5 616,-189.5"/>
<text text-anchor="middle" x="552" y="-177.5" font-family="Helvetica,sans-Serif" font-size="10.00">src/wxMaximaFrame.h</text>
</a>
</g>
</g>
<!-- Node5&#45;&gt;Node15 -->
<g id="edge17" class="edge">
<title>Node5&#45;&gt;Node15</title>
<path fill="none" stroke="#63b8ff" d="M1354.18,-238.86C1223.66,-236.84 896.41,-228.55 625,-195 613.99,-193.64 602.13,-191.61 591.25,-189.52"/>
<polygon fill="#63b8ff" stroke="#63b8ff" points="1354.29,-242.36 1364.34,-239.01 1354.39,-235.36 1354.29,-242.36"/>
</g>
<!-- Node25 -->
<g id="node25" class="node">
<title>Node25</title>
<g id="a_node25"><a xlink:href="test__Accessibility_8cpp.html" target="_top" xlink:title="Logic&#45;level regression tests for wxMaxima&#39;s custom wxAccessible classes.">
<polygon fill="white" stroke="#666666" points="1105,-195 997,-195 997,-165 1105,-165 1105,-195"/>
<text text-anchor="start" x="1005" y="-183" font-family="Helvetica,sans-Serif" font-size="10.00">test/unit_tests/test</text>
<text text-anchor="middle" x="1051" y="-172" font-family="Helvetica,sans-Serif" font-size="10.00">_Accessibility.cpp</text>
</a>
</g>
</g>
<!-- Node5&#45;&gt;Node25 -->
<g id="edge38" class="edge">
<title>Node5&#45;&gt;Node25</title>
<path fill="none" stroke="#63b8ff" d="M1354.28,-232.11C1294.1,-224.11 1197.14,-210.43 1114,-195 1111.14,-194.47 1108.2,-193.9 1105.25,-193.31"/>
<polygon fill="#63b8ff" stroke="#63b8ff" points="1353.97,-235.6 1364.35,-233.44 1354.89,-228.66 1353.97,-235.6"/>
</g>
<!-- Node26 -->
<g id="node26" class="node">
<title>Node26</title>
<g id="a_node26"><a xlink:href="test__EditorCellInvariants_8cpp.html" target="_top" xlink:title="Hardening tests for EditorCell&#39;s text&#45;editing core.">
<polygon fill="white" stroke="#666666" points="1261,-195 1123,-195 1123,-165 1261,-165 1261,-195"/>
<text text-anchor="start" x="1131" y="-183" font-family="Helvetica,sans-Serif" font-size="10.00">test/unit_tests/test</text>
<text text-anchor="middle" x="1192" y="-172" font-family="Helvetica,sans-Serif" font-size="10.00">_EditorCellInvariants.cpp</text>
</a>
</g>
</g>
<!-- Node5&#45;&gt;Node26 -->
<g id="edge39" class="edge">
<title>Node5&#45;&gt;Node26</title>
<path fill="none" stroke="#63b8ff" d="M1369.96,-228.32C1334.39,-218.86 1283.24,-205.26 1244.89,-195.06"/>
<polygon fill="#63b8ff" stroke="#63b8ff" points="1369.45,-231.81 1380.01,-230.99 1371.25,-225.04 1369.45,-231.81"/>
</g>
<!-- Node27 -->
<g id="node27" class="node">
<title>Node27</title>
<g id="a_node27"><a xlink:href="test__GroupCellLayout_8cpp.html" target="_top" xlink:title="Regression tests for the GroupCell &lt;&#45;&gt; EditorCell layout coupling.">
<polygon fill="white" stroke="#666666" points="1402.5,-195 1279.5,-195 1279.5,-165 1402.5,-165 1402.5,-195"/>
<text text-anchor="start" x="1287.5" y="-183" font-family="Helvetica,sans-Serif" font-size="10.00">test/unit_tests/test</text>
<text text-anchor="middle" x="1341" y="-172" font-family="Helvetica,sans-Serif" font-size="10.00">_GroupCellLayout.cpp</text>
</a>
</g>
</g>
<!-- Node5&#45;&gt;Node27 -->
<g id="edge40" class="edge">
<title>Node5&#45;&gt;Node27</title>
<path fill="none" stroke="#63b8ff" d="M1393.8,-224.5C1382.82,-215.45 1368.91,-204 1358.13,-195.11"/>
<polygon fill="#63b8ff" stroke="#63b8ff" points="1391.58,-227.21 1401.52,-230.87 1396.03,-221.81 1391.58,-227.21"/>
</g>
<!-- Node28 -->
<g id="node28" class="node">
<title>Node28</title>
<g id="a_node28"><a xlink:href="test__LayoutInvariants_8cpp.html" target="_top" xlink:title="Layout idempotency invariants.">
<polygon fill="white" stroke="#666666" points="1545,-195 1421,-195 1421,-165 1545,-165 1545,-195"/>
<text text-anchor="start" x="1429" y="-183" font-family="Helvetica,sans-Serif" font-size="10.00">test/unit_tests/test</text>
<text text-anchor="middle" x="1483" y="-172" font-family="Helvetica,sans-Serif" font-size="10.00">_LayoutInvariants.cpp</text>
</a>
</g>
</g>
<!-- Node5&#45;&gt;Node28 -->
<g id="edge41" class="edge">
<title>Node5&#45;&gt;Node28</title>
<path fill="none" stroke="#63b8ff" d="M1430.2,-224.5C1441.18,-215.45 1455.09,-204 1465.87,-195.11"/>
<polygon fill="#63b8ff" stroke="#63b8ff" points="1427.97,-221.81 1422.48,-230.87 1432.42,-227.21 1427.97,-221.81"/>
</g>
<!-- Node29 -->
<g id="node29" class="node">
<title>Node29</title>
<g id="a_node29"><a xlink:href="test__TreeUndo_8cpp.html" target="_top" xlink:title="Regression tests for the worksheet&#39;s cell&#45;tree undo/redo (the TreeUndo_* subsystem of Worksheet).">
<polygon fill="white" stroke="#666666" points="1671,-195 1563,-195 1563,-165 1671,-165 1671,-195"/>
<text text-anchor="start" x="1571" y="-183" font-family="Helvetica,sans-Serif" font-size="10.00">test/unit_tests/test</text>
<text text-anchor="middle" x="1617" y="-172" font-family="Helvetica,sans-Serif" font-size="10.00">_TreeUndo.cpp</text>
</a>
</g>
</g>
<!-- Node5&#45;&gt;Node29 -->
<g id="edge42" class="edge">
<title>Node5&#45;&gt;Node29</title>
<path fill="none" stroke="#63b8ff" d="M1451.6,-228.2C1484.73,-218.75 1532.14,-205.22 1567.72,-195.06"/>
<polygon fill="#63b8ff" stroke="#63b8ff" points="1450.46,-224.88 1441.81,-230.99 1452.39,-231.62 1450.46,-224.88"/>
</g>
<!-- Node30 -->
<g id="node30" class="node">
<title>Node30</title>
<g id="a_node30"><a xlink:href="test__WXMRoundtrip_8cpp.html" target="_top" xlink:title="Regression tests for images surviving the .wxm serialization round&#45;trip.">
<polygon fill="white" stroke="#666666" points="1804.5,-195 1689.5,-195 1689.5,-165 1804.5,-165 1804.5,-195"/>
<text text-anchor="start" x="1697.5" y="-183" font-family="Helvetica,sans-Serif" font-size="10.00">test/unit_tests/test</text>
<text text-anchor="middle" x="1747" y="-172" font-family="Helvetica,sans-Serif" font-size="10.00">_WXMRoundtrip.cpp</text>
</a>
</g>
</g>
<!-- Node5&#45;&gt;Node30 -->
<g id="edge43" class="edge">
<title>Node5&#45;&gt;Node30</title>
<path fill="none" stroke="#63b8ff" d="M1469.68,-230.63C1524.04,-222.1 1607.71,-208.55 1680,-195 1683.04,-194.43 1686.15,-193.83 1689.29,-193.22"/>
<polygon fill="#63b8ff" stroke="#63b8ff" points="1468.89,-227.21 1459.55,-232.21 1469.97,-234.13 1468.89,-227.21"/>
</g>
<!-- Node31 -->
<g id="node31" class="node">
<title>Node31</title>
<g id="a_node31"><a xlink:href="test__WXMXRoundtrip_8cpp.html" target="_top" xlink:title="Round&#45;trip tests for the .wxmx content.xml (the MathML&#45;like math format).">
<polygon fill="white" stroke="#666666" points="1945,-195 1823,-195 1823,-165 1945,-165 1945,-195"/>
<text text-anchor="start" x="1831" y="-183" font-family="Helvetica,sans-Serif" font-size="10.00">test/unit_tests/test</text>
<text text-anchor="middle" x="1884" y="-172" font-family="Helvetica,sans-Serif" font-size="10.00">_WXMXRoundtrip.cpp</text>
</a>
</g>
</g>
<!-- Node5&#45;&gt;Node31 -->
<g id="edge44" class="edge">
<title>Node5&#45;&gt;Node31</title>
<path fill="none" stroke="#63b8ff" d="M1469.82,-234.62C1547.94,-227.68 1691.42,-213.7 1813,-195 1816.23,-194.5 1819.53,-193.96 1822.87,-193.39"/>
<polygon fill="#63b8ff" stroke="#63b8ff" points="1469.36,-231.15 1459.7,-235.52 1469.97,-238.12 1469.36,-231.15"/>
</g>
<!-- Node32 -->
<g id="node32" class="node">
<title>Node32</title>
<g id="a_node32"><a xlink:href="test__WorksheetContextMenu_8cpp.html" target="_top" xlink:title="Regression tests for the worksheet&#39;s right&#45;click context menu.">
<polygon fill="white" stroke="#666666" points="2122.5,-195 1963.5,-195 1963.5,-165 2122.5,-165 2122.5,-195"/>
<text text-anchor="start" x="1971.5" y="-183" font-family="Helvetica,sans-Serif" font-size="10.00">test/unit_tests/test</text>
<text text-anchor="middle" x="2043" y="-172" font-family="Helvetica,sans-Serif" font-size="10.00">_WorksheetContextMenu.cpp</text>
</a>
</g>
</g>
<!-- Node5&#45;&gt;Node32 -->
<g id="edge45" class="edge">
<title>Node5&#45;&gt;Node32</title>
<path fill="none" stroke="#63b8ff" d="M1469.72,-236.17C1568.94,-230.13 1778.12,-216.02 1954,-195 1957.11,-194.63 1960.27,-194.23 1963.46,-193.81"/>
<polygon fill="#63b8ff" stroke="#63b8ff" points="1469.38,-232.68 1459.61,-236.78 1469.8,-239.67 1469.38,-232.68"/>
</g>
<!-- Node33 -->
<g id="node33" class="node">
<title>Node33</title>
<g id="a_node33"><a xlink:href="test__WorksheetCursor_8cpp.html" target="_top" xlink:title="Pins the worksheet&#39;s cursor model before it is gathered into a cursor class.">
<polygon fill="white" stroke="#666666" points="2265.5,-195 2140.5,-195 2140.5,-165 2265.5,-165 2265.5,-195"/>
<text text-anchor="start" x="2148.5" y="-183" font-family="Helvetica,sans-Serif" font-size="10.00">test/unit_tests/test</text>
<text text-anchor="middle" x="2203" y="-172" font-family="Helvetica,sans-Serif" font-size="10.00">_WorksheetCursor.cpp</text>
</a>
</g>
</g>
<!-- Node5&#45;&gt;Node33 -->
<g id="edge46" class="edge">
<title>Node5&#45;&gt;Node33</title>
<path fill="none" stroke="#63b8ff" d="M1470.01,-238.47C1592.55,-235.73 1886.59,-226.19 2131,-195 2134.03,-194.61 2137.13,-194.18 2140.25,-193.7"/>
<polygon fill="#63b8ff" stroke="#63b8ff" points="1469.66,-234.98 1459.74,-238.69 1469.81,-241.97 1469.66,-234.98"/>
</g>
<!-- Node34 -->
<g id="node34" class="node">
<title>Node34</title>
<g id="a_node34"><a xlink:href="test__WorksheetEvalQueue_8cpp.html" target="_top" xlink:title="Pins the worksheet&#39;s &quot;add cells to the evaluation queue&quot; behavior before the Add*ToEvaluationQueue fa...">
<polygon fill="white" stroke="#666666" points="2430,-195 2284,-195 2284,-165 2430,-165 2430,-195"/>
<text text-anchor="start" x="2292" y="-183" font-family="Helvetica,sans-Serif" font-size="10.00">test/unit_tests/test</text>
<text text-anchor="middle" x="2357" y="-172" font-family="Helvetica,sans-Serif" font-size="10.00">_WorksheetEvalQueue.cpp</text>
</a>
</g>
</g>
<!-- Node5&#45;&gt;Node34 -->
<g id="edge47" class="edge">
<title>Node5&#45;&gt;Node34</title>
<path fill="none" stroke="#63b8ff" d="M1469.89,-238.86C1609.05,-236.82 1973.14,-228.43 2275,-195 2277.87,-194.68 2280.79,-194.33 2283.74,-193.95"/>
<polygon fill="#63b8ff" stroke="#63b8ff" points="1469.82,-235.36 1459.87,-239 1469.92,-242.36 1469.82,-235.36"/>
</g>
<!-- Node35 -->
<g id="node35" class="node">
<title>Node35</title>
<g id="a_node35"><a xlink:href="test__WorksheetExport_8cpp.html" target="_top" xlink:title="Safety net for the export/serialization cluster of Worksheet.">
<polygon fill="white" stroke="#666666" points="2573.5,-195 2448.5,-195 2448.5,-165 2573.5,-165 2573.5,-195"/>
<text text-anchor="start" x="2456.5" y="-183" font-family="Helvetica,sans-Serif" font-size="10.00">test/unit_tests/test</text>
<text text-anchor="middle" x="2511" y="-172" font-family="Helvetica,sans-Serif" font-size="10.00">_WorksheetExport.cpp</text>
</a>
</g>
</g>
<!-- Node5&#45;&gt;Node35 -->
<g id="edge48" class="edge">
<title>Node5&#45;&gt;Node35</title>
<path fill="none" stroke="#63b8ff" d="M1469.89,-240C1626.58,-240.7 2071.92,-238.4 2439,-195 2442.04,-194.64 2445.13,-194.23 2448.26,-193.77"/>
<polygon fill="#63b8ff" stroke="#63b8ff" points="1469.57,-236.5 1459.55,-239.95 1469.53,-243.5 1469.57,-236.5"/>
</g>
<!-- Node36 -->
<g id="node36" class="node">
<title>Node36</title>
<g id="a_node36"><a xlink:href="test__WorksheetFind_8cpp.html" target="_top" xlink:title="Pins the worksheet&#39;s find/replace behavior before the search engine is extracted into WorksheetSearch...">
<polygon fill="white" stroke="#666666" points="2706,-195 2592,-195 2592,-165 2706,-165 2706,-195"/>
<text text-anchor="start" x="2600" y="-183" font-family="Helvetica,sans-Serif" font-size="10.00">test/unit_tests/test</text>
<text text-anchor="middle" x="2649" y="-172" font-family="Helvetica,sans-Serif" font-size="10.00">_WorksheetFind.cpp</text>
</a>
</g>
</g>
<!-- Node5&#45;&gt;Node36 -->
<g id="edge49" class="edge">
<title>Node5&#45;&gt;Node36</title>
<path fill="none" stroke="#63b8ff" d="M1470.06,-238.61C1675.01,-235.26 2363.97,-222.19 2583,-195 2585.91,-194.64 2588.87,-194.22 2591.86,-193.74"/>
<polygon fill="#63b8ff" stroke="#63b8ff" points="1469.76,-235.11 1459.82,-238.77 1469.87,-242.11 1469.76,-235.11"/>
</g>
<!-- Node10 -->
<g id="node10" class="node">
<title>Node10</title>
<g id="a_node10"><a xlink:href="MaximaCommandMenus_8cpp.html" target="_top" xlink:title="Implementation of the menu&#45;command handlers extracted from wxMaxima &#45; see MaximaCommandMenus....">
<polygon fill="white" stroke="#666666" points="331,-19 155,-19 155,0 331,0 331,-19"/>
<text text-anchor="middle" x="243" y="-7" font-family="Helvetica,sans-Serif" font-size="10.00">src/MaximaCommandMenus.cpp</text>
</a>
</g>
</g>
<!-- Node9&#45;&gt;Node10 -->
<g id="edge9" class="edge">
<title>Node9&#45;&gt;Node10</title>
<path fill="none" stroke="#63b8ff" d="M367.67,-51.8C337.81,-41.91 295.73,-27.97 268.91,-19.08"/>
<polygon fill="#63b8ff" stroke="#63b8ff" points="366.7,-55.16 377.29,-54.98 368.9,-48.52 366.7,-55.16"/>
</g>
<!-- Node11 -->
<g id="node11" class="node">
<title>Node11</title>
<g id="a_node11"><a xlink:href="main_8cpp.html" target="_top" xlink:title="The file that defines the starting point of the program.">
<polygon fill="white" stroke="#666666" points="868.5,-19 789.5,-19 789.5,0 868.5,0 868.5,-19"/>
<text text-anchor="middle" x="829" y="-7" font-family="Helvetica,sans-Serif" font-size="10.00">src/main.cpp</text>
</a>
</g>
</g>
<!-- Node9&#45;&gt;Node11 -->
<g id="edge10" class="edge">
<title>Node9&#45;&gt;Node11</title>
<path fill="none" stroke="#63b8ff" d="M481.46,-53.74C572.65,-42.39 719.54,-24.12 789.5,-15.41"/>
<polygon fill="#63b8ff" stroke="#63b8ff" points="480.94,-50.28 471.44,-54.98 481.8,-57.22 480.94,-50.28"/>
</g>
<!-- Node12 -->
<g id="node12" class="node">
<title>Node12</title>
<g id="a_node12"><a xlink:href="wxMaxima_8cpp.html" target="_top" xlink:title="This file defines the contents of the class wxMaxima that contains most of the program&#39;s logic.">
<polygon fill="white" stroke="#666666" points="510,-19 402,-19 402,0 510,0 510,-19"/>
<text text-anchor="middle" x="456" y="-7" font-family="Helvetica,sans-Serif" font-size="10.00">src/wxMaxima.cpp</text>
</a>
</g>
</g>
<!-- Node9&#45;&gt;Node12 -->
<g id="edge11" class="edge">
<title>Node9&#45;&gt;Node12</title>
<path fill="none" stroke="#63b8ff" d="M418.98,-47.52C428.32,-38.18 439.75,-26.75 447.41,-19.09"/>
<polygon fill="#63b8ff" stroke="#63b8ff" points="416.35,-45.2 411.75,-54.75 421.3,-50.15 416.35,-45.2"/>
</g>
<!-- Node13&#45;&gt;Node10 -->
<g id="edge13" class="edge">
<title>Node13&#45;&gt;Node10</title>
<path fill="none" stroke="#63b8ff" d="M243,-44.66C243,-35.93 243,-25.99 243,-19.09"/>
<polygon fill="#63b8ff" stroke="#63b8ff" points="239.5,-44.75 243,-54.75 246.5,-44.75 239.5,-44.75"/>
</g>
<!-- Node13&#45;&gt;Node11 -->
<g id="edge14" class="edge">
<title>Node13&#45;&gt;Node11</title>
<path fill="none" stroke="#63b8ff" d="M317.89,-54.83C499.9,-36.49 704.76,-20.11 789.38,-13.54"/>
<polygon fill="#63b8ff" stroke="#63b8ff" points="317.46,-51.36 307.87,-55.85 318.17,-58.32 317.46,-51.36"/>
</g>
<!-- Node13&#45;&gt;Node12 -->
<g id="edge15" class="edge">
<title>Node13&#45;&gt;Node12</title>
<path fill="none" stroke="#63b8ff" d="M286.95,-52.56C326.84,-42.64 384.87,-28.2 421.51,-19.08"/>
<polygon fill="#63b8ff" stroke="#63b8ff" points="286.08,-49.17 277.22,-54.98 287.77,-55.97 286.08,-49.17"/>
</g>
<!-- Node15&#45;&gt;Node4 -->
<g id="edge18" class="edge">
<title>Node15&#45;&gt;Node4</title>
<path fill="none" stroke="#63b8ff" d="M512.33,-167.68C472.68,-156.37 412.62,-139.22 376.84,-129.02"/>
<polygon fill="#63b8ff" stroke="#63b8ff" points="511.61,-171.12 522.19,-170.49 513.54,-164.38 511.61,-171.12"/>
</g>
<!-- Node15&#45;&gt;Node7 -->
<g id="edge19" class="edge">
<title>Node15&#45;&gt;Node7</title>
<path fill="none" stroke="#63b8ff" d="M602.26,-168.65C609.86,-167.29 617.62,-166.02 625,-165 811.91,-139.2 860.94,-153.64 1048,-129 1162.68,-113.9 1296.73,-87.52 1362.46,-74.01"/>
<polygon fill="#63b8ff" stroke="#63b8ff" points="601.62,-165.21 592.42,-170.47 602.89,-172.09 601.62,-165.21"/>
</g>
<!-- Node16 -->
<g id="node16" class="node">
<title>Node16</title>
<g id="a_node16"><a xlink:href="EditorCell_8cpp.html" target="_top" xlink:title="This file defines the class EditorCell.">
<polygon fill="white" stroke="#666666" points="1245.5,-74 1118.5,-74 1118.5,-55 1245.5,-55 1245.5,-74"/>
<text text-anchor="middle" x="1182" y="-62" font-family="Helvetica,sans-Serif" font-size="10.00">src/cells/EditorCell.cpp</text>
</a>
</g>
</g>
<!-- Node15&#45;&gt;Node16 -->
<g id="edge20" class="edge">
<title>Node15&#45;&gt;Node16</title>
<path fill="none" stroke="#63b8ff" d="M604.13,-168.54C611.13,-167.27 618.23,-166.06 625,-165 757.25,-144.38 792.33,-153.04 924,-129 1007.72,-113.72 1104.78,-87.48 1152.46,-74.02"/>
<polygon fill="#63b8ff" stroke="#63b8ff" points="603.18,-165.16 593.99,-170.43 604.46,-172.04 603.18,-165.16"/>
</g>
<!-- Node17 -->
<g id="node17" class="node">
<title>Node17</title>
<g id="a_node17"><a xlink:href="main_8h.html" target="_top" xlink:title="This file declares the class wxMaxima that contains most of the program&#39;s logic.">
<polygon fill="white" stroke="#666666" points="1332,-74 1264,-74 1264,-55 1332,-55 1332,-74"/>
<text text-anchor="middle" x="1298" y="-62" font-family="Helvetica,sans-Serif" font-size="10.00">src/main.h</text>
</a>
</g>
</g>
<!-- Node15&#45;&gt;Node17 -->
<g id="edge21" class="edge">
<title>Node15&#45;&gt;Node17</title>
<path fill="none" stroke="#63b8ff" d="M603.08,-168.61C610.42,-167.29 617.89,-166.04 625,-165 782.36,-142 823.74,-152.65 981,-129 1084.79,-113.39 1206.1,-86.7 1263.95,-73.45"/>
<polygon fill="#63b8ff" stroke="#63b8ff" points="602.4,-165.18 593.2,-170.44 603.67,-172.06 602.4,-165.18"/>
</g>
<!-- Node19 -->
<g id="node19" class="node">
<title>Node19</title>
<g id="a_node19"><a xlink:href="GreekSidebar_8cpp.html" target="_top" xlink:title="This file defines the class GreekSidebar.">
<polygon fill="white" stroke="#666666" points="643,-129 479,-129 479,-110 643,-110 643,-129"/>
<text text-anchor="middle" x="561" y="-117" font-family="Helvetica,sans-Serif" font-size="10.00">src/sidebars/GreekSidebar.cpp</text>
</a>
</g>
</g>
<!-- Node15&#45;&gt;Node19 -->
<g id="edge25" class="edge">
<title>Node15&#45;&gt;Node19</title>
<path fill="none" stroke="#63b8ff" d="M554.9,-160.16C556.5,-149.74 558.42,-137.3 559.67,-129.17"/>
<polygon fill="#63b8ff" stroke="#63b8ff" points="551.39,-159.95 553.33,-170.37 558.31,-161.02 551.39,-159.95"/>
</g>
<!-- Node20 -->
<g id="node20" class="node">
<title>Node20</title>
<g id="a_node20"><a xlink:href="wxMaxima_8h.html" target="_top" xlink:title="This file declares the class wxMaxima that contains most of the program&#39;s logic.">
<polygon fill="white" stroke="#666666" points="915.5,-129 818.5,-129 818.5,-110 915.5,-110 915.5,-129"/>
<text text-anchor="middle" x="867" y="-117" font-family="Helvetica,sans-Serif" font-size="10.00">src/wxMaxima.h</text>
</a>
</g>
</g>
<!-- Node15&#45;&gt;Node20 -->
<g id="edge26" class="edge">
<title>Node15&#45;&gt;Node20</title>
<path fill="none" stroke="#63b8ff" d="M606.24,-168.55C612.57,-167.35 618.92,-166.14 625,-165 692.8,-152.26 771.37,-137.89 820.14,-129.01"/>
<polygon fill="#63b8ff" stroke="#63b8ff" points="605.55,-165.12 596.38,-170.43 606.86,-171.99 605.55,-165.12"/>
</g>
<!-- Node24 -->
<g id="node24" class="node">
<title>Node24</title>
<g id="a_node24"><a xlink:href="wxMaximaFrame_8cpp.html" target="_top" xlink:title="This file defines the class wxMaximaFrame.">
<polygon fill="white" stroke="#666666" points="800.5,-129 661.5,-129 661.5,-110 800.5,-110 800.5,-129"/>
<text text-anchor="middle" x="731" y="-117" font-family="Helvetica,sans-Serif" font-size="10.00">src/wxMaximaFrame.cpp</text>
</a>
</g>
</g>
<!-- Node15&#45;&gt;Node24 -->
<g id="edge37" class="edge">
<title>Node15&#45;&gt;Node24</title>
<path fill="none" stroke="#63b8ff" d="M587.75,-167.32C622.37,-156 674.04,-139.12 704.94,-129.02"/>
<polygon fill="#63b8ff" stroke="#63b8ff" points="586.45,-164.06 578.03,-170.49 588.62,-170.71 586.45,-164.06"/>
</g>
<!-- Node17&#45;&gt;Node11 -->
<g id="edge23" class="edge">
<title>Node17&#45;&gt;Node11</title>
<path fill="none" stroke="#63b8ff" d="M1254.3,-55.05C1254.2,-55.03 1254.1,-55.02 1254,-55 1112.92,-34.03 944.05,-19.46 868.69,-13.5"/>
<polygon fill="#63b8ff" stroke="#63b8ff" points="1253.51,-58.46 1263.94,-56.62 1254.63,-51.55 1253.51,-58.46"/>
</g>
<!-- Node17&#45;&gt;Node12 -->
<g id="edge24" class="edge">
<title>Node17&#45;&gt;Node12</title>
<path fill="none" stroke="#63b8ff" d="M1254.3,-55.04C1254.2,-55.03 1254.1,-55.01 1254,-55 1109.41,-37.09 665.05,-18.62 510.03,-12.56"/>
<polygon fill="#63b8ff" stroke="#63b8ff" points="1253.56,-58.47 1263.96,-56.45 1254.58,-51.54 1253.56,-58.47"/>
</g>
<!-- Node18 -->
<g id="node18" class="node">
<title>Node18</title>
<g id="a_node18"><a xlink:href="MaximaManual_8cpp.html" target="_top" xlink:title="This file defines the class MaximaManual.">
<polygon fill="white" stroke="#666666" points="1363,-19 1233,-19 1233,0 1363,0 1363,-19"/>
<text text-anchor="middle" x="1298" y="-7" font-family="Helvetica,sans-Serif" font-size="10.00">src/MaximaManual.cpp</text>
</a>
</g>
</g>
<!-- Node17&#45;&gt;Node18 -->
<g id="edge22" class="edge">
<title>Node17&#45;&gt;Node18</title>
<path fill="none" stroke="#63b8ff" d="M1298,-44.66C1298,-35.93 1298,-25.99 1298,-19.09"/>
<polygon fill="#63b8ff" stroke="#63b8ff" points="1294.5,-44.75 1298,-54.75 1301.5,-44.75 1294.5,-44.75"/>
</g>
<!-- Node20&#45;&gt;Node6 -->
<g id="edge29" class="edge">
<title>Node20&#45;&gt;Node6</title>
<path fill="none" stroke="#63b8ff" d="M808.04,-110.01C509.2,-80.66 431.15,-98.6 136,-74 131.56,-73.63 126.98,-73.21 122.37,-72.76"/>
<polygon fill="#63b8ff" stroke="#63b8ff" points="808.01,-113.53 818.31,-111.03 808.7,-106.56 808.01,-113.53"/>
</g>
<!-- Node20&#45;&gt;Node7 -->
<g id="edge32" class="edge">
<title>Node20&#45;&gt;Node7</title>
<path fill="none" stroke="#63b8ff" d="M925.75,-113.79C1015.42,-106.43 1191.73,-91.23 1341,-74 1343.91,-73.66 1346.9,-73.3 1349.92,-72.93"/>
<polygon fill="#63b8ff" stroke="#63b8ff" points="925.2,-110.33 915.52,-114.63 925.77,-117.31 925.2,-110.33"/>
</g>
<!-- Node20&#45;&gt;Node10 -->
<g id="edge27" class="edge">
<title>Node20&#45;&gt;Node10</title>
<path fill="none" stroke="#63b8ff" d="M808.26,-110.29C702.14,-104.35 216.21,-123.94 169,-74 148.65,-52.47 190.7,-30.7 219.35,-19.08"/>
<polygon fill="#63b8ff" stroke="#63b8ff" points="808.07,-113.78 818.3,-111.04 808.6,-106.8 808.07,-113.78"/>
</g>
<!-- Node20&#45;&gt;Node11 -->
<g id="edge34" class="edge">
<title>Node20&#45;&gt;Node11</title>
<path fill="none" stroke="#63b8ff" d="M925.69,-118.49C999.81,-116.45 1112.94,-105.36 1071,-55 1045.71,-24.64 930.59,-14.92 868.68,-11.86"/>
<polygon fill="#63b8ff" stroke="#63b8ff" points="925.42,-115 915.5,-118.72 925.58,-122 925.42,-115"/>
</g>
<!-- Node20&#45;&gt;Node12 -->
<g id="edge36" class="edge">
<title>Node20&#45;&gt;Node12</title>
<path fill="none" stroke="#63b8ff" d="M808.24,-109.99C682.1,-94.49 639.79,-124.61 528,-74 499.76,-61.22 474.55,-33.49 462.87,-19.28"/>
<polygon fill="#63b8ff" stroke="#63b8ff" points="807.91,-113.47 818.27,-111.29 808.81,-106.53 807.91,-113.47"/>
</g>
<!-- Node20&#45;&gt;Node16 -->
<g id="edge33" class="edge">
<title>Node20&#45;&gt;Node16</title>
<path fill="none" stroke="#63b8ff" d="M925.47,-108.66C984.62,-98.71 1075.13,-83.48 1131.33,-74.03"/>
<polygon fill="#63b8ff" stroke="#63b8ff" points="924.81,-105.22 915.53,-110.33 925.97,-112.13 924.81,-105.22"/>
</g>
<!-- Node20&#45;&gt;Node17 -->
<g id="edge35" class="edge">
<title>Node20&#45;&gt;Node17</title>
<path fill="none" stroke="#63b8ff" d="M926.05,-113.12C1002.11,-105.88 1138.29,-91.8 1254,-74 1257.23,-73.5 1260.58,-72.94 1263.93,-72.35"/>
<polygon fill="#63b8ff" stroke="#63b8ff" points="925.35,-109.67 915.73,-114.1 926.01,-116.64 925.35,-109.67"/>
</g>
<!-- Node21 -->
<g id="node21" class="node">
<title>Node21</title>
<g id="a_node21"><a xlink:href="MaximaEvaluator_8cpp.html" target="_top" xlink:title="Implements the evaluation&#45;queue driver extracted from the wxMaxima god class.">
<polygon fill="white" stroke="#666666" points="1062,-74 922,-74 922,-55 1062,-55 1062,-74"/>
<text text-anchor="middle" x="992" y="-62" font-family="Helvetica,sans-Serif" font-size="10.00">src/MaximaEvaluator.cpp</text>
</a>
</g>
</g>
<!-- Node20&#45;&gt;Node21 -->
<g id="edge28" class="edge">
<title>Node20&#45;&gt;Node21</title>
<path fill="none" stroke="#63b8ff" d="M896.41,-106.03C919.53,-96.23 951.13,-82.83 971.55,-74.17"/>
<polygon fill="#63b8ff" stroke="#63b8ff" points="894.92,-102.86 887.08,-109.98 897.66,-109.3 894.92,-102.86"/>
</g>
<!-- Node22 -->
<g id="node22" class="node">
<title>Node22</title>
<g id="a_node22"><a xlink:href="MaximaProcessManager_8cpp.html" target="_top" xlink:title="Implements the Maxima process/socket lifecycle extracted from the wxMaxima god class.">
<polygon fill="white" stroke="#666666" points="710.5,-74 537.5,-74 537.5,-55 710.5,-55 710.5,-74"/>
<text text-anchor="middle" x="624" y="-62" font-family="Helvetica,sans-Serif" font-size="10.00">src/MaximaProcessManager.cpp</text>
</a>
</g>
</g>
<!-- Node20&#45;&gt;Node22 -->
<g id="edge30" class="edge">
<title>Node20&#45;&gt;Node22</title>
<path fill="none" stroke="#63b8ff" d="M818.01,-107.82C772.47,-97.88 705.5,-83.28 663.35,-74.08"/>
<polygon fill="#63b8ff" stroke="#63b8ff" points="817.44,-111.27 827.96,-109.98 818.93,-104.43 817.44,-111.27"/>
</g>
<!-- Node23 -->
<g id="node23" class="node">
<title>Node23</title>
<g id="a_node23"><a xlink:href="MaximaResponseReader_8cpp.html" target="_top" xlink:title="Implements the Maxima&#45;response handlers extracted from the wxMaxima god class.">
<polygon fill="white" stroke="#666666" points="903.5,-74 728.5,-74 728.5,-55 903.5,-55 903.5,-74"/>
<text text-anchor="middle" x="816" y="-62" font-family="Helvetica,sans-Serif" font-size="10.00">src/MaximaResponseReader.cpp</text>
</a>
</g>
</g>
<!-- Node20&#45;&gt;Node23 -->
<g id="edge31" class="edge">
<title>Node20&#45;&gt;Node23</title>
<path fill="none" stroke="#63b8ff" d="M851.62,-102.52C842.63,-93.18 831.64,-81.75 824.26,-74.09"/>
<polygon fill="#63b8ff" stroke="#63b8ff" points="849.12,-104.97 858.58,-109.75 854.17,-100.12 849.12,-104.97"/>
</g>
</g>
</svg>
        <g id="navigator" transform="translate(0 0)" fill="#404254">
                <rect fill="#f2f5e9" fill-opacity="0.5" stroke="#606060" stroke-width=".5" x="0" y="0" width="60" height="60"/>
                <use id="zoomplus" xlink:href="#zoomPlus" x="17" y="9" onmousedown="handleZoom(evt,'in')"/>
                <use id="zoomminus" xlink:href="#zoomMin" x="42" y="9" onmousedown="handleZoom(evt,'out')"/>
                <use id="reset" xlink:href="#resetDef" x="30" y="36" onmousedown="handleReset()"/>
                <g id="arrowUp" xlink:href="#dirArrow" transform="translate(30 24)" onmousedown="handlePan(0,-1)">
                  <use xlink:href="#rim" fill="#404040">
                        <set attributeName="fill" to="#808080" begin="arrowUp.mouseover" end="arrowUp.mouseout"/>
                  </use>
                  <path fill="none" stroke="white" stroke-width="1.5" d="M0,-3.0v7 M-2.5,-0.5L0,-3.0L2.5,-0.5"/>
                </g>
                <g id="arrowRight" xlink:href="#dirArrow" transform="rotate(90) translate(36 -43)" onmousedown="handlePan(1,0)">
                  <use xlink:href="#rim" fill="#404040">
                        <set attributeName="fill" to="#808080" begin="arrowRight.mouseover" end="arrowRight.mouseout"/>
                  </use>
                  <path fill="none" stroke="white" stroke-width="1.5" d="M0,-3.0v7 M-2.5,-0.5L0,-3.0L2.5,-0.5"/>
                </g>
                <g id="arrowDown" xlink:href="#dirArrow" transform="rotate(180) translate(-30 -48)" onmousedown="handlePan(0,1)">
                  <use xlink:href="#rim" fill="#404040">
                        <set attributeName="fill" to="#808080" begin="arrowDown.mouseover" end="arrowDown.mouseout"/>
                  </use>
                  <path fill="none" stroke="white" stroke-width="1.5" d="M0,-3.0v7 M-2.5,-0.5L0,-3.0L2.5,-0.5"/>
                </g>
                <g id="arrowLeft" xlink:href="#dirArrow" transform="rotate(270) translate(-36 17)" onmousedown="handlePan(-1,0)">
                  <use xlink:href="#rim" fill="#404040">
                        <set attributeName="fill" to="#808080" begin="arrowLeft.mouseover" end="arrowLeft.mouseout"/>
                  </use>
                  <path fill="none" stroke="white" stroke-width="1.5" d="M0,-3.0v7 M-2.5,-0.5L0,-3.0L2.5,-0.5"/>
                </g>
        </g>
        <svg viewBox="0 0 15 15" width="100%" height="30px" preserveAspectRatio="xMaxYMin meet">
         <g id="arrow_out" transform="scale(0.3 0.3)">
          <a xlink:href="Autocomplete_8h__dep__incl_org.svg" target="_base">
           <rect id="button" ry="5" rx="5" y="6" x="6" height="38" width="38"
                fill="#f2f5e9" fill-opacity="0.5" stroke="#606060" stroke-width="1.0"/>
           <path id="arrow"
             d="M 11.500037,31.436501 C 11.940474,20.09759 22.043105,11.32322 32.158766,21.979434 L 37.068811,17.246167 C 37.068811,17.246167 37.088388,32 37.088388,32 L 22.160133,31.978069 C 22.160133,31.978069 26.997745,27.140456 26.997745,27.140456 C 18.528582,18.264221 13.291696,25.230495 11.500037,31.436501 z"
             style="fill:#404040;"/>
          </a>
         </g>
        </svg>
</svg>
