<?xml version="1.0" encoding="UTF-8" standalone="no"?>
<!DOCTYPE svg PUBLIC "-//W3C//DTD SVG 1.1//EN"
 "http://www.w3.org/Graphics/SVG/1.1/DTD/svg11.dtd">
<!-- Generated by graphviz version 2.43.0 (0)
 -->
<!-- Title: src/AutocompletePopup.h Pages: 1 -->
<!--zoomable 308 -->
<svg id="main" version="1.1" xmlns="http://www.w3.org/2000/svg" xmlns:xlink="http://www.w3.org/1999/xlink" xml:space="preserve" onload="init(evt)">
<style type="text/css"><![CDATA[
.edge:hover path { stroke: red; }
.edge:hover polygon { stroke: red; fill: red; }
]]></style>
<script type="text/javascript"><![CDATA[
var edges = document.getElementsByTagName('g');
if (edges && edges.length) {
  for (var i=0;i<edges.length;i++) {
    if (edges[i].id.substr(0,4)=='edge') {
      edges[i].setAttribute('class','edge');
    }
  }
}
]]></script>
        <defs>
                <circle id="rim" cx="0" cy="0" r="7"/>
                <circle id="rim2" cx="0" cy="0" r="3.5"/>
                <g id="zoomPlus">
                        <use xlink:href="#rim" fill="#404040">
                                <set attributeName="fill" to="#808080" begin="zoomplus.mouseover" end="zoomplus.mouseout"/>
                        </use>
                        <path d="M-4,0h8M0,-4v8" fill="none" stroke="white" stroke-width="1.5" pointer-events="none"/>
                </g>
                <g id="zoomMin">
                        <use xlink:href="#rim" fill="#404040">
                                <set attributeName="fill" to="#808080" begin="zoomminus.mouseover" end="zoomminus.mouseout"/>
                        </use>
                        <path d="M-4,0h8" fill="none" stroke="white" stroke-width="1.5" pointer-events="none"/>
                </g>
                <g id="dirArrow">
                        <path fill="none" stroke="white" stroke-width="1.5" d="M0,-3.0v7 M-2.5,-0.5L0,-3.0L2.5,-0.5"/>
                </g>
               <g id="resetDef">
                       <use xlink:href="#rim2" fill="#404040">
                               <set attributeName="fill" to="#808080" begin="reset.mouseover" end="reset.mouseout"/>
                       </use>
               </g>
        </defs>

<script type="text/javascript">
var viewWidth = 1000;
var viewHeight = 308;
var sectionId = 'dynsection-1';
</script>
<script xlink:href="svgpan.js"/>
<svg id="graph" class="graph">
<g id="viewport">
<title>src/AutocompletePopup.h</title>
<polygon fill="white" stroke="transparent" points="-4,4 -4,-304 995.5,-304 995.5,4 -4,4"/>
<!-- Node1 -->
<g id="node1" class="node">
<title>Node1</title>
<g id="a_node1"><a xlink:title="The first number that is open for dynamic ID assignment.">
<polygon fill="#bfbfbf" stroke="black" points="300.5,-280.5 300.5,-299.5 441.5,-299.5 441.5,-280.5 300.5,-280.5"/>
<text text-anchor="middle" x="371" y="-287.5" font-family="Helvetica,sans-Serif" font-size="10.00">src/AutocompletePopup.h</text>
</a>
</g>
</g>
<!-- Node2 -->
<g id="node2" class="node">
<title>Node2</title>
<g id="a_node2"><a xlink:href="AutocompletePopup_8cpp.html" target="_top" xlink:title="This file defines the class AutocompletePopup.">
<polygon fill="white" stroke="black" points="0,-112.5 0,-131.5 152,-131.5 152,-112.5 0,-112.5"/>
<text text-anchor="middle" x="76" y="-119.5" font-family="Helvetica,sans-Serif" font-size="10.00">src/AutocompletePopup.cpp</text>
</a>
</g>
</g>
<!-- Node1&#45;&gt;Node2 -->
<g id="edge1" class="edge">
<title>Node1&#45;&gt;Node2</title>
<path fill="none" stroke="midnightblue" d="M346.59,-275.27C287.75,-242.15 139.37,-158.66 91.29,-131.61"/>
<polygon fill="midnightblue" stroke="midnightblue" points="345.12,-278.46 355.55,-280.31 348.56,-272.35 345.12,-278.46"/>
</g>
<!-- Node3 -->
<g id="node3" class="node">
<title>Node3</title>
<g id="a_node3"><a xlink:href="Worksheet_8h.html" target="_top" xlink:title="This file defines the class Worksheet.">
<polygon fill="white" stroke="black" points="625.5,-224.5 625.5,-243.5 720.5,-243.5 720.5,-224.5 625.5,-224.5"/>
<text text-anchor="middle" x="673" y="-231.5" font-family="Helvetica,sans-Serif" font-size="10.00">src/Worksheet.h</text>
</a>
</g>
</g>
<!-- Node1&#45;&gt;Node3 -->
<g id="edge2" class="edge">
<title>Node1&#45;&gt;Node3</title>
<path fill="none" stroke="midnightblue" d="M428.8,-278.66C485.88,-268.46 572.12,-253.04 625.37,-243.52"/>
<polygon fill="midnightblue" stroke="midnightblue" points="428.08,-275.24 418.85,-280.44 429.31,-282.13 428.08,-275.24"/>
</g>
<!-- Node4 -->
<g id="node4" class="node">
<title>Node4</title>
<g id="a_node4"><a xlink:href="ConfigDialogue_8h.html" target="_top" xlink:title="The configuration dialog.">
<polygon fill="white" stroke="black" points="836.5,-56.5 836.5,-75.5 991.5,-75.5 991.5,-56.5 836.5,-56.5"/>
<text text-anchor="middle" x="914" y="-63.5" font-family="Helvetica,sans-Serif" font-size="10.00">src/dialogs/ConfigDialogue.h</text>
</a>
</g>
</g>
<!-- Node3&#45;&gt;Node4 -->
<g id="edge3" class="edge">
<title>Node3&#45;&gt;Node4</title>
<path fill="none" stroke="midnightblue" d="M708.7,-220.98C729.71,-213.13 756.32,-201.77 778,-188 832.42,-153.43 886.47,-97.12 906.18,-75.67"/>
<polygon fill="midnightblue" stroke="midnightblue" points="707.38,-217.74 699.18,-224.45 709.78,-224.32 707.38,-217.74"/>
</g>
<!-- Node7 -->
<g id="node7" class="node">
<title>Node7</title>
<g id="a_node7"><a xlink:href="Printout_8cpp.html" target="_top" xlink:title="This file defines the class MathPrintOut.">
<polygon fill="white" stroke="black" points="595.5,-168.5 595.5,-187.5 750.5,-187.5 750.5,-168.5 595.5,-168.5"/>
<text text-anchor="middle" x="673" y="-175.5" font-family="Helvetica,sans-Serif" font-size="10.00">src/graphical_io/Printout.cpp</text>
</a>
</g>
</g>
<!-- Node3&#45;&gt;Node7 -->
<g id="edge6" class="edge">
<title>Node3&#45;&gt;Node7</title>
<path fill="none" stroke="midnightblue" d="M673,-213.8C673,-204.91 673,-194.78 673,-187.75"/>
<polygon fill="midnightblue" stroke="midnightblue" points="669.5,-214.08 673,-224.08 676.5,-214.08 669.5,-214.08"/>
</g>
<!-- Node8 -->
<g id="node8" class="node">
<title>Node8</title>
<g id="a_node8"><a xlink:href="Worksheet_8cpp.html" target="_top" xlink:title="This file defines the class Worksheet.">
<polygon fill="white" stroke="black" points="712,-56.5 712,-75.5 818,-75.5 818,-56.5 712,-56.5"/>
<text text-anchor="middle" x="765" y="-63.5" font-family="Helvetica,sans-Serif" font-size="10.00">src/Worksheet.cpp</text>
</a>
</g>
</g>
<!-- Node3&#45;&gt;Node8 -->
<g id="edge7" class="edge">
<title>Node3&#45;&gt;Node8</title>
<path fill="none" stroke="midnightblue" d="M716.79,-220.77C733.16,-213.89 750.15,-203.46 760,-188 782.94,-152.01 772.64,-97.01 767.4,-75.78"/>
<polygon fill="midnightblue" stroke="midnightblue" points="715.36,-217.57 707.29,-224.42 717.88,-224.1 715.36,-217.57"/>
</g>
<!-- Node9 -->
<g id="node9" class="node">
<title>Node9</title>
<g id="a_node9"><a xlink:href="wxMaximaFrame_8h.html" target="_top" xlink:title="This file declares the class wxMaximaFrame.">
<polygon fill="white" stroke="black" points="449,-168.5 449,-187.5 577,-187.5 577,-168.5 449,-168.5"/>
<text text-anchor="middle" x="513" y="-175.5" font-family="Helvetica,sans-Serif" font-size="10.00">src/wxMaximaFrame.h</text>
</a>
</g>
</g>
<!-- Node3&#45;&gt;Node9 -->
<g id="edge8" class="edge">
<title>Node3&#45;&gt;Node9</title>
<path fill="none" stroke="midnightblue" d="M637.95,-221.17C607.83,-211 565.1,-196.59 538.23,-187.52"/>
<polygon fill="midnightblue" stroke="midnightblue" points="637.05,-224.56 647.65,-224.44 639.29,-217.93 637.05,-224.56"/>
</g>
<!-- Node5 -->
<g id="node5" class="node">
<title>Node5</title>
<g id="a_node5"><a xlink:href="main_8cpp.html" target="_top" xlink:title="The file that defines the starting point of the program.">
<polygon fill="white" stroke="black" points="569.5,-0.5 569.5,-19.5 648.5,-19.5 648.5,-0.5 569.5,-0.5"/>
<text text-anchor="middle" x="609" y="-7.5" font-family="Helvetica,sans-Serif" font-size="10.00">src/main.cpp</text>
</a>
</g>
</g>
<!-- Node4&#45;&gt;Node5 -->
<g id="edge4" class="edge">
<title>Node4&#45;&gt;Node5</title>
<path fill="none" stroke="midnightblue" d="M854.88,-54.74C802.97,-45.7 725.45,-32.12 658,-20 654.94,-19.45 651.76,-18.88 648.58,-18.3"/>
<polygon fill="midnightblue" stroke="midnightblue" points="854.45,-58.22 864.9,-56.48 855.65,-51.32 854.45,-58.22"/>
</g>
<!-- Node6 -->
<g id="node6" class="node">
<title>Node6</title>
<g id="a_node6"><a xlink:href="wxMaxima_8cpp.html" target="_top" xlink:title="This file defines the contents of the class wxMaxima that contains most of the program&#39;s logic.">
<polygon fill="white" stroke="black" points="667,-0.5 667,-19.5 775,-19.5 775,-0.5 667,-0.5"/>
<text text-anchor="middle" x="721" y="-7.5" font-family="Helvetica,sans-Serif" font-size="10.00">src/wxMaxima.cpp</text>
</a>
</g>
</g>
<!-- Node4&#45;&gt;Node6 -->
<g id="edge5" class="edge">
<title>Node4&#45;&gt;Node6</title>
<path fill="none" stroke="midnightblue" d="M873.61,-53.7C837.18,-43.51 784.41,-28.74 751.44,-19.52"/>
<polygon fill="midnightblue" stroke="midnightblue" points="872.85,-57.12 883.42,-56.44 874.73,-50.38 872.85,-57.12"/>
</g>
<!-- Node9&#45;&gt;Node2 -->
<g id="edge9" class="edge">
<title>Node9&#45;&gt;Node2</title>
<path fill="none" stroke="midnightblue" d="M438.96,-167.85C356.71,-157.69 224.98,-141.41 144.87,-131.51"/>
<polygon fill="midnightblue" stroke="midnightblue" points="438.63,-171.34 448.99,-169.09 439.49,-164.39 438.63,-171.34"/>
</g>
<!-- Node9&#45;&gt;Node8 -->
<g id="edge16" class="edge">
<title>Node9&#45;&gt;Node8</title>
<path fill="none" stroke="midnightblue" d="M571.4,-166.54C617.71,-157.59 678.15,-144.24 700,-132 725.9,-117.49 748.47,-89.75 758.89,-75.67"/>
<polygon fill="midnightblue" stroke="midnightblue" points="570.62,-163.12 561.46,-168.44 571.93,-170 570.62,-163.12"/>
</g>
<!-- Node10 -->
<g id="node10" class="node">
<title>Node10</title>
<g id="a_node10"><a xlink:href="EditorCell_8cpp.html" target="_top" xlink:title="This file defines the class EditorCell.">
<polygon fill="white" stroke="black" points="490.5,-56.5 490.5,-75.5 617.5,-75.5 617.5,-56.5 490.5,-56.5"/>
<text text-anchor="middle" x="554" y="-63.5" font-family="Helvetica,sans-Serif" font-size="10.00">src/cells/EditorCell.cpp</text>
</a>
</g>
</g>
<!-- Node9&#45;&gt;Node10 -->
<g id="edge10" class="edge">
<title>Node9&#45;&gt;Node10</title>
<path fill="none" stroke="midnightblue" d="M522.11,-158.97C526.04,-150.84 530.51,-141.05 534,-132 541.64,-112.17 548.42,-88.09 551.78,-75.54"/>
<polygon fill="midnightblue" stroke="midnightblue" points="518.85,-157.68 517.55,-168.19 525.12,-160.78 518.85,-157.68"/>
</g>
<!-- Node11 -->
<g id="node11" class="node">
<title>Node11</title>
<g id="a_node11"><a xlink:href="main_8h.html" target="_top" xlink:title="This file declares the class wxMaxima that contains most of the program&#39;s logic.">
<polygon fill="white" stroke="black" points="404,-56.5 404,-75.5 472,-75.5 472,-56.5 404,-56.5"/>
<text text-anchor="middle" x="438" y="-63.5" font-family="Helvetica,sans-Serif" font-size="10.00">src/main.h</text>
</a>
</g>
</g>
<!-- Node9&#45;&gt;Node11 -->
<g id="edge11" class="edge">
<title>Node9&#45;&gt;Node11</title>
<path fill="none" stroke="midnightblue" d="M512.81,-158.05C511.86,-144.3 508.83,-125.77 500,-112 489.45,-95.54 470.57,-83.15 456.41,-75.58"/>
<polygon fill="midnightblue" stroke="midnightblue" points="509.32,-158.41 513.2,-168.27 516.32,-158.14 509.32,-158.41"/>
</g>
<!-- Node13 -->
<g id="node13" class="node">
<title>Node13</title>
<g id="a_node13"><a xlink:href="GreekSidebar_8cpp.html" target="_top" xlink:title="This file defines the class GreekSidebar.">
<polygon fill="white" stroke="black" points="170,-112.5 170,-131.5 334,-131.5 334,-112.5 170,-112.5"/>
<text text-anchor="middle" x="252" y="-119.5" font-family="Helvetica,sans-Serif" font-size="10.00">src/sidebars/GreekSidebar.cpp</text>
</a>
</g>
</g>
<!-- Node9&#45;&gt;Node13 -->
<g id="edge15" class="edge">
<title>Node9&#45;&gt;Node13</title>
<path fill="none" stroke="midnightblue" d="M461.81,-166.41C412.49,-156.2 338.81,-140.96 293.16,-131.52"/>
<polygon fill="midnightblue" stroke="midnightblue" points="461.14,-169.84 471.64,-168.44 462.56,-162.99 461.14,-169.84"/>
</g>
<!-- Node14 -->
<g id="node14" class="node">
<title>Node14</title>
<g id="a_node14"><a xlink:href="wxMaxima_8h.html" target="_top" xlink:title="This file declares the class wxMaxima that contains most of the program&#39;s logic.">
<polygon fill="white" stroke="black" points="593.5,-112.5 593.5,-131.5 690.5,-131.5 690.5,-112.5 593.5,-112.5"/>
<text text-anchor="middle" x="642" y="-119.5" font-family="Helvetica,sans-Serif" font-size="10.00">src/wxMaxima.h</text>
</a>
</g>
</g>
<!-- Node9&#45;&gt;Node14 -->
<g id="edge17" class="edge">
<title>Node9&#45;&gt;Node14</title>
<path fill="none" stroke="midnightblue" d="M542.85,-164.5C567.04,-154.38 600.46,-140.39 621.66,-131.52"/>
<polygon fill="midnightblue" stroke="midnightblue" points="541.31,-161.35 533.44,-168.44 544.02,-167.81 541.31,-161.35"/>
</g>
<!-- Node15 -->
<g id="node15" class="node">
<title>Node15</title>
<g id="a_node15"><a xlink:href="wxMaximaFrame_8cpp.html" target="_top" xlink:title="This file defines the class wxMaximaFrame.">
<polygon fill="white" stroke="black" points="352.5,-112.5 352.5,-131.5 491.5,-131.5 491.5,-112.5 352.5,-112.5"/>
<text text-anchor="middle" x="422" y="-119.5" font-family="Helvetica,sans-Serif" font-size="10.00">src/wxMaximaFrame.cpp</text>
</a>
</g>
</g>
<!-- Node9&#45;&gt;Node15 -->
<g id="edge23" class="edge">
<title>Node9&#45;&gt;Node15</title>
<path fill="none" stroke="midnightblue" d="M489.71,-163.18C472.96,-153.24 450.9,-140.15 436.58,-131.65"/>
<polygon fill="midnightblue" stroke="midnightblue" points="487.99,-166.23 498.38,-168.32 491.57,-160.21 487.99,-166.23"/>
</g>
<!-- Node11&#45;&gt;Node5 -->
<g id="edge12" class="edge">
<title>Node11&#45;&gt;Node5</title>
<path fill="none" stroke="midnightblue" d="M475.04,-53.3C507.26,-43.13 553.19,-28.62 582.03,-19.52"/>
<polygon fill="midnightblue" stroke="midnightblue" points="473.58,-50.09 465.1,-56.44 475.69,-56.77 473.58,-50.09"/>
</g>
<!-- Node11&#45;&gt;Node6 -->
<g id="edge14" class="edge">
<title>Node11&#45;&gt;Node6</title>
<path fill="none" stroke="midnightblue" d="M482.46,-55.74C554.87,-41.44 627.79,-27.95 674.04,-19.5"/>
<polygon fill="midnightblue" stroke="midnightblue" points="481.38,-52.39 472.25,-57.76 482.74,-59.25 481.38,-52.39"/>
</g>
<!-- Node12 -->
<g id="node12" class="node">
<title>Node12</title>
<g id="a_node12"><a xlink:href="MaximaManual_8cpp.html" target="_top" xlink:title="This file defines the class MaximaManual.">
<polygon fill="white" stroke="black" points="373,-0.5 373,-19.5 503,-19.5 503,-0.5 373,-0.5"/>
<text text-anchor="middle" x="438" y="-7.5" font-family="Helvetica,sans-Serif" font-size="10.00">src/MaximaManual.cpp</text>
</a>
</g>
</g>
<!-- Node11&#45;&gt;Node12 -->
<g id="edge13" class="edge">
<title>Node11&#45;&gt;Node12</title>
<path fill="none" stroke="midnightblue" d="M438,-45.8C438,-36.91 438,-26.78 438,-19.75"/>
<polygon fill="midnightblue" stroke="midnightblue" points="434.5,-46.08 438,-56.08 441.5,-46.08 434.5,-46.08"/>
</g>
<!-- Node14&#45;&gt;Node5 -->
<g id="edge19" class="edge">
<title>Node14&#45;&gt;Node5</title>
<path fill="none" stroke="midnightblue" d="M638.49,-102.37C635.83,-89.26 631.82,-71.39 627,-56 622.97,-43.15 616.95,-28.79 613,-19.82"/>
<polygon fill="midnightblue" stroke="midnightblue" points="635.12,-103.33 640.47,-112.47 641.99,-101.99 635.12,-103.33"/>
</g>
<!-- Node14&#45;&gt;Node6 -->
<g id="edge22" class="edge">
<title>Node14&#45;&gt;Node6</title>
<path fill="none" stroke="midnightblue" d="M654.24,-103.96C671.36,-80.12 701.82,-37.71 714.83,-19.59"/>
<polygon fill="midnightblue" stroke="midnightblue" points="651.19,-102.2 648.2,-112.37 656.88,-106.29 651.19,-102.2"/>
</g>
<!-- Node14&#45;&gt;Node8 -->
<g id="edge21" class="edge">
<title>Node14&#45;&gt;Node8</title>
<path fill="none" stroke="midnightblue" d="M670.77,-108.37C693.81,-98.26 725.48,-84.35 745.6,-75.52"/>
<polygon fill="midnightblue" stroke="midnightblue" points="669.24,-105.22 661.49,-112.44 672.05,-111.63 669.24,-105.22"/>
</g>
<!-- Node14&#45;&gt;Node10 -->
<g id="edge18" class="edge">
<title>Node14&#45;&gt;Node10</title>
<path fill="none" stroke="midnightblue" d="M619.02,-106.9C602.89,-97 581.82,-84.07 568.1,-75.65"/>
<polygon fill="midnightblue" stroke="midnightblue" points="617.51,-110.08 627.86,-112.32 621.17,-104.11 617.51,-110.08"/>
</g>
<!-- Node14&#45;&gt;Node11 -->
<g id="edge20" class="edge">
<title>Node14&#45;&gt;Node11</title>
<path fill="none" stroke="midnightblue" d="M599.8,-109.83C561.28,-99.63 505.18,-84.78 470.17,-75.52"/>
<polygon fill="midnightblue" stroke="midnightblue" points="599.11,-113.27 609.68,-112.44 600.9,-106.5 599.11,-113.27"/>
</g>
</g>
</svg>
        <g id="navigator" transform="translate(0 0)" fill="#404254">
                <rect fill="#f2f5e9" fill-opacity="0.5" stroke="#606060" stroke-width=".5" x="0" y="0" width="60" height="60"/>
                <use id="zoomplus" xlink:href="#zoomPlus" x="17" y="9" onmousedown="handleZoom(evt,'in')"/>
                <use id="zoomminus" xlink:href="#zoomMin" x="42" y="9" onmousedown="handleZoom(evt,'out')"/>
                <use id="reset" xlink:href="#resetDef" x="30" y="36" onmousedown="handleReset()"/>
                <g id="arrowUp" xlink:href="#dirArrow" transform="translate(30 24)" onmousedown="handlePan(0,-1)">
                  <use xlink:href="#rim" fill="#404040">
                        <set attributeName="fill" to="#808080" begin="arrowUp.mouseover" end="arrowUp.mouseout"/>
                  </use>
                  <path fill="none" stroke="white" stroke-width="1.5" d="M0,-3.0v7 M-2.5,-0.5L0,-3.0L2.5,-0.5"/>
                </g>
                <g id="arrowRight" xlink:href="#dirArrow" transform="rotate(90) translate(36 -43)" onmousedown="handlePan(1,0)">
                  <use xlink:href="#rim" fill="#404040">
                        <set attributeName="fill" to="#808080" begin="arrowRight.mouseover" end="arrowRight.mouseout"/>
                  </use>
                  <path fill="none" stroke="white" stroke-width="1.5" d="M0,-3.0v7 M-2.5,-0.5L0,-3.0L2.5,-0.5"/>
                </g>
                <g id="arrowDown" xlink:href="#dirArrow" transform="rotate(180) translate(-30 -48)" onmousedown="handlePan(0,1)">
                  <use xlink:href="#rim" fill="#404040">
                        <set attributeName="fill" to="#808080" begin="arrowDown.mouseover" end="arrowDown.mouseout"/>
                  </use>
                  <path fill="none" stroke="white" stroke-width="1.5" d="M0,-3.0v7 M-2.5,-0.5L0,-3.0L2.5,-0.5"/>
                </g>
                <g id="arrowLeft" xlink:href="#dirArrow" transform="rotate(270) translate(-36 17)" onmousedown="handlePan(-1,0)">
                  <use xlink:href="#rim" fill="#404040">
                        <set attributeName="fill" to="#808080" begin="arrowLeft.mouseover" end="arrowLeft.mouseout"/>
                  </use>
                  <path fill="none" stroke="white" stroke-width="1.5" d="M0,-3.0v7 M-2.5,-0.5L0,-3.0L2.5,-0.5"/>
                </g>
        </g>
        <svg viewBox="0 0 15 15" width="100%" height="30px" preserveAspectRatio="xMaxYMin meet">
         <g id="arrow_out" transform="scale(0.3 0.3)">
          <a xlink:href="AutocompletePopup_8h__dep__incl_org.svg" target="_base">
           <rect id="button" ry="5" rx="5" y="6" x="6" height="38" width="38"
                fill="#f2f5e9" fill-opacity="0.5" stroke="#606060" stroke-width="1.0"/>
           <path id="arrow"
             d="M 11.500037,31.436501 C 11.940474,20.09759 22.043105,11.32322 32.158766,21.979434 L 37.068811,17.246167 C 37.068811,17.246167 37.088388,32 37.088388,32 L 22.160133,31.978069 C 22.160133,31.978069 26.997745,27.140456 26.997745,27.140456 C 18.528582,18.264221 13.291696,25.230495 11.500037,31.436501 z"
             style="fill:#404040;"/>
          </a>
         </g>
        </svg>
</svg>
