<?xml version="1.0" encoding="UTF-8" standalone="no"?>
<!DOCTYPE svg PUBLIC "-//W3C//DTD SVG 1.1//EN"
 "http://www.w3.org/Graphics/SVG/1.1/DTD/svg11.dtd">
<!-- Generated by graphviz version 2.43.0 (0)
 -->
<!-- Title: src/Autocomplete.h Pages: 1 -->
<svg width="962pt" height="364pt"
 viewBox="0.00 0.00 961.50 364.00" xmlns="http://www.w3.org/2000/svg" xmlns:xlink="http://www.w3.org/1999/xlink">
<g id="graph0" class="graph" transform="scale(1 1) rotate(0) translate(4 360)">
<title>src/Autocomplete.h</title>
<polygon fill="white" stroke="transparent" points="-4,4 -4,-360 957.5,-360 957.5,4 -4,4"/>
<!-- Node1 -->
<g id="node1" class="node">
<title>Node1</title>
<g id="a_node1"><a xlink:title="This file declares the class AutoComplete.">
<polygon fill="#bfbfbf" stroke="black" points="562.5,-336.5 562.5,-355.5 673.5,-355.5 673.5,-336.5 562.5,-336.5"/>
<text text-anchor="middle" x="618" y="-343.5" font-family="Helvetica,sans-Serif" font-size="10.00">src/Autocomplete.h</text>
</a>
</g>
</g>
<!-- Node2 -->
<g id="node2" class="node">
<title>Node2</title>
<g id="a_node2"><a xlink:href="Autocomplete_8cpp.html" target="_top" xlink:title="This file defines the class AutoComplete.">
<polygon fill="white" stroke="black" points="358,-280.5 358,-299.5 480,-299.5 480,-280.5 358,-280.5"/>
<text text-anchor="middle" x="419" y="-287.5" font-family="Helvetica,sans-Serif" font-size="10.00">src/Autocomplete.cpp</text>
</a>
</g>
</g>
<!-- Node1&#45;&gt;Node2 -->
<g id="edge1" class="edge">
<title>Node1&#45;&gt;Node2</title>
<path fill="none" stroke="midnightblue" d="M576.35,-333.7C538.79,-323.51 484.39,-308.74 450.38,-299.52"/>
<polygon fill="midnightblue" stroke="midnightblue" points="575.9,-337.2 586.47,-336.44 577.73,-330.45 575.9,-337.2"/>
</g>
<!-- Node3 -->
<g id="node3" class="node">
<title>Node3</title>
<g id="a_node3"><a xlink:href="AutocompletePopup_8h.html" target="_top" xlink:title="The first number that is open for dynamic ID assignment.">
<polygon fill="white" stroke="black" points="498.5,-280.5 498.5,-299.5 639.5,-299.5 639.5,-280.5 498.5,-280.5"/>
<text text-anchor="middle" x="569" y="-287.5" font-family="Helvetica,sans-Serif" font-size="10.00">src/AutocompletePopup.h</text>
</a>
</g>
</g>
<!-- Node1&#45;&gt;Node3 -->
<g id="edge2" class="edge">
<title>Node1&#45;&gt;Node3</title>
<path fill="none" stroke="midnightblue" d="M602.97,-328.43C594.38,-318.97 583.96,-307.48 576.94,-299.75"/>
<polygon fill="midnightblue" stroke="midnightblue" points="600.6,-331.03 609.91,-336.08 605.78,-326.33 600.6,-331.03"/>
</g>
<!-- Node5 -->
<g id="node5" class="node">
<title>Node5</title>
<g id="a_node5"><a xlink:href="Worksheet_8h.html" target="_top" xlink:title="This file defines the class Worksheet.">
<polygon fill="white" stroke="black" points="620.5,-224.5 620.5,-243.5 715.5,-243.5 715.5,-224.5 620.5,-224.5"/>
<text text-anchor="middle" x="668" y="-231.5" font-family="Helvetica,sans-Serif" font-size="10.00">src/Worksheet.h</text>
</a>
</g>
</g>
<!-- Node1&#45;&gt;Node5 -->
<g id="edge27" class="edge">
<title>Node1&#45;&gt;Node5</title>
<path fill="none" stroke="midnightblue" d="M630.87,-328.23C636.7,-320.04 643.32,-309.86 648,-300 657.11,-280.8 663.3,-256.47 666.17,-243.71"/>
<polygon fill="midnightblue" stroke="midnightblue" points="627.9,-326.36 624.77,-336.49 633.53,-330.52 627.9,-326.36"/>
</g>
<!-- Node18 -->
<g id="node18" class="node">
<title>Node18</title>
<g id="a_node18"><a xlink:href="Autocomplete__Builtins_8cpp.html" target="_top" xlink:title="This file tells wxMaxima about known builtin commands of maxima.">
<polygon fill="white" stroke="black" points="696,-280.5 696,-299.5 860,-299.5 860,-280.5 696,-280.5"/>
<text text-anchor="middle" x="778" y="-287.5" font-family="Helvetica,sans-Serif" font-size="10.00">src/Autocomplete_Builtins.cpp</text>
</a>
</g>
</g>
<!-- Node1&#45;&gt;Node18 -->
<g id="edge26" class="edge">
<title>Node1&#45;&gt;Node18</title>
<path fill="none" stroke="midnightblue" d="M653.05,-333.17C683.17,-323 725.9,-308.59 752.77,-299.52"/>
<polygon fill="midnightblue" stroke="midnightblue" points="651.71,-329.93 643.35,-336.44 653.95,-336.56 651.71,-329.93"/>
</g>
<!-- Node4 -->
<g id="node4" class="node">
<title>Node4</title>
<g id="a_node4"><a xlink:href="AutocompletePopup_8cpp.html" target="_top" xlink:title="This file defines the class AutocompletePopup.">
<polygon fill="white" stroke="black" points="0,-112.5 0,-131.5 152,-131.5 152,-112.5 0,-112.5"/>
<text text-anchor="middle" x="76" y="-119.5" font-family="Helvetica,sans-Serif" font-size="10.00">src/AutocompletePopup.cpp</text>
</a>
</g>
</g>
<!-- Node3&#45;&gt;Node4 -->
<g id="edge3" class="edge">
<title>Node3&#45;&gt;Node4</title>
<path fill="none" stroke="midnightblue" d="M533.9,-277.18C439.71,-245.47 183,-159.03 101.32,-131.52"/>
<polygon fill="midnightblue" stroke="midnightblue" points="532.94,-280.55 543.53,-280.42 535.17,-273.92 532.94,-280.55"/>
</g>
<!-- Node3&#45;&gt;Node5 -->
<g id="edge4" class="edge">
<title>Node3&#45;&gt;Node5</title>
<path fill="none" stroke="midnightblue" d="M593.84,-275.45C612.11,-265.48 636.42,-252.23 652.13,-243.65"/>
<polygon fill="midnightblue" stroke="midnightblue" points="592.01,-272.46 584.91,-280.32 595.36,-278.61 592.01,-272.46"/>
</g>
<!-- Node6 -->
<g id="node6" class="node">
<title>Node6</title>
<g id="a_node6"><a xlink:href="ConfigDialogue_8h.html" target="_top" xlink:title="The configuration dialog.">
<polygon fill="white" stroke="black" points="836.5,-56.5 836.5,-75.5 953.5,-75.5 953.5,-56.5 836.5,-56.5"/>
<text text-anchor="middle" x="895" y="-63.5" font-family="Helvetica,sans-Serif" font-size="10.00">src/ConfigDialogue.h</text>
</a>
</g>
</g>
<!-- Node5&#45;&gt;Node6 -->
<g id="edge5" class="edge">
<title>Node5&#45;&gt;Node6</title>
<path fill="none" stroke="midnightblue" d="M704.83,-221.1C725.8,-213.4 751.99,-202.16 773,-188 823.46,-153.99 870.97,-97.35 888.19,-75.74"/>
<polygon fill="midnightblue" stroke="midnightblue" points="703.55,-217.84 695.3,-224.49 705.89,-224.43 703.55,-217.84"/>
</g>
<!-- Node9 -->
<g id="node9" class="node">
<title>Node9</title>
<g id="a_node9"><a xlink:href="Printout_8cpp.html" target="_top" xlink:title="This file defines the class MathPrintOut.">
<polygon fill="white" stroke="black" points="590.5,-168.5 590.5,-187.5 745.5,-187.5 745.5,-168.5 590.5,-168.5"/>
<text text-anchor="middle" x="668" y="-175.5" font-family="Helvetica,sans-Serif" font-size="10.00">src/graphical_io/Printout.cpp</text>
</a>
</g>
</g>
<!-- Node5&#45;&gt;Node9 -->
<g id="edge8" class="edge">
<title>Node5&#45;&gt;Node9</title>
<path fill="none" stroke="midnightblue" d="M668,-213.8C668,-204.91 668,-194.78 668,-187.75"/>
<polygon fill="midnightblue" stroke="midnightblue" points="664.5,-214.08 668,-224.08 671.5,-214.08 664.5,-214.08"/>
</g>
<!-- Node10 -->
<g id="node10" class="node">
<title>Node10</title>
<g id="a_node10"><a xlink:href="Worksheet_8cpp.html" target="_top" xlink:title="This file defines the class Worksheet.">
<polygon fill="white" stroke="black" points="712,-56.5 712,-75.5 818,-75.5 818,-56.5 712,-56.5"/>
<text text-anchor="middle" x="765" y="-63.5" font-family="Helvetica,sans-Serif" font-size="10.00">src/Worksheet.cpp</text>
</a>
</g>
</g>
<!-- Node5&#45;&gt;Node10 -->
<g id="edge9" class="edge">
<title>Node5&#45;&gt;Node10</title>
<path fill="none" stroke="midnightblue" d="M710.17,-220.72C726.52,-213.79 743.74,-203.34 754,-188 777.93,-152.24 770.71,-96.63 766.78,-75.52"/>
<polygon fill="midnightblue" stroke="midnightblue" points="708.75,-217.52 700.71,-224.41 711.3,-224.04 708.75,-217.52"/>
</g>
<!-- Node11 -->
<g id="node11" class="node">
<title>Node11</title>
<g id="a_node11"><a xlink:href="wxMaximaFrame_8h.html" target="_top" xlink:title="This file declares the class wxMaximaFrame.">
<polygon fill="white" stroke="black" points="444,-168.5 444,-187.5 572,-187.5 572,-168.5 444,-168.5"/>
<text text-anchor="middle" x="508" y="-175.5" font-family="Helvetica,sans-Serif" font-size="10.00">src/wxMaximaFrame.h</text>
</a>
</g>
</g>
<!-- Node5&#45;&gt;Node11 -->
<g id="edge10" class="edge">
<title>Node5&#45;&gt;Node11</title>
<path fill="none" stroke="midnightblue" d="M632.95,-221.17C602.83,-211 560.1,-196.59 533.23,-187.52"/>
<polygon fill="midnightblue" stroke="midnightblue" points="632.05,-224.56 642.65,-224.44 634.29,-217.93 632.05,-224.56"/>
</g>
<!-- Node7 -->
<g id="node7" class="node">
<title>Node7</title>
<g id="a_node7"><a xlink:href="main_8cpp.html" target="_top" xlink:title="The file that defines the starting point of the program.">
<polygon fill="white" stroke="black" points="569.5,-0.5 569.5,-19.5 648.5,-19.5 648.5,-0.5 569.5,-0.5"/>
<text text-anchor="middle" x="609" y="-7.5" font-family="Helvetica,sans-Serif" font-size="10.00">src/main.cpp</text>
</a>
</g>
</g>
<!-- Node6&#45;&gt;Node7 -->
<g id="edge6" class="edge">
<title>Node6&#45;&gt;Node7</title>
<path fill="none" stroke="midnightblue" d="M839.57,-54.53C783.48,-43.94 698.18,-27.84 648.58,-18.47"/>
<polygon fill="midnightblue" stroke="midnightblue" points="839.21,-58.03 849.68,-56.44 840.51,-51.15 839.21,-58.03"/>
</g>
<!-- Node8 -->
<g id="node8" class="node">
<title>Node8</title>
<g id="a_node8"><a xlink:href="wxMaxima_8cpp.html" target="_top" xlink:title="This file defines the contents of the class wxMaxima that contains most of the program&#39;s logic.">
<polygon fill="white" stroke="black" points="667,-0.5 667,-19.5 775,-19.5 775,-0.5 667,-0.5"/>
<text text-anchor="middle" x="721" y="-7.5" font-family="Helvetica,sans-Serif" font-size="10.00">src/wxMaxima.cpp</text>
</a>
</g>
</g>
<!-- Node6&#45;&gt;Node8 -->
<g id="edge7" class="edge">
<title>Node6&#45;&gt;Node8</title>
<path fill="none" stroke="midnightblue" d="M857.74,-53.44C824.93,-43.26 777.92,-28.66 748.44,-19.52"/>
<polygon fill="midnightblue" stroke="midnightblue" points="856.84,-56.82 867.43,-56.44 858.92,-50.14 856.84,-56.82"/>
</g>
<!-- Node11&#45;&gt;Node4 -->
<g id="edge11" class="edge">
<title>Node11&#45;&gt;Node4</title>
<path fill="none" stroke="midnightblue" d="M433.62,-167.7C352.25,-157.53 222.94,-141.37 144.13,-131.52"/>
<polygon fill="midnightblue" stroke="midnightblue" points="433.43,-171.21 443.79,-168.97 434.3,-164.26 433.43,-171.21"/>
</g>
<!-- Node11&#45;&gt;Node10 -->
<g id="edge24" class="edge">
<title>Node11&#45;&gt;Node10</title>
<path fill="none" stroke="midnightblue" d="M567.33,-166.65C614.65,-157.73 676.59,-144.38 699,-132 725.19,-117.54 748.16,-89.78 758.77,-75.68"/>
<polygon fill="midnightblue" stroke="midnightblue" points="566.66,-163.22 557.47,-168.49 567.94,-170.1 566.66,-163.22"/>
</g>
<!-- Node12 -->
<g id="node12" class="node">
<title>Node12</title>
<g id="a_node12"><a xlink:href="EditorCell_8cpp.html" target="_top" xlink:title="This file defines the class EditorCell.">
<polygon fill="white" stroke="black" points="490.5,-56.5 490.5,-75.5 617.5,-75.5 617.5,-56.5 490.5,-56.5"/>
<text text-anchor="middle" x="554" y="-63.5" font-family="Helvetica,sans-Serif" font-size="10.00">src/cells/EditorCell.cpp</text>
</a>
</g>
</g>
<!-- Node11&#45;&gt;Node12 -->
<g id="edge12" class="edge">
<title>Node11&#45;&gt;Node12</title>
<path fill="none" stroke="midnightblue" d="M519.2,-159.74C524.18,-151.56 529.85,-141.51 534,-132 542.49,-112.52 548.93,-88.3 552,-75.63"/>
<polygon fill="midnightblue" stroke="midnightblue" points="516.15,-158.02 513.79,-168.34 522.08,-161.74 516.15,-158.02"/>
</g>
<!-- Node13 -->
<g id="node13" class="node">
<title>Node13</title>
<g id="a_node13"><a xlink:href="main_8h.html" target="_top" xlink:title="This file declares the class wxMaxima that contains most of the program&#39;s logic.">
<polygon fill="white" stroke="black" points="404,-56.5 404,-75.5 472,-75.5 472,-56.5 404,-56.5"/>
<text text-anchor="middle" x="438" y="-63.5" font-family="Helvetica,sans-Serif" font-size="10.00">src/main.h</text>
</a>
</g>
</g>
<!-- Node11&#45;&gt;Node13 -->
<g id="edge13" class="edge">
<title>Node11&#45;&gt;Node13</title>
<path fill="none" stroke="midnightblue" d="M509.53,-158.14C509.77,-144.43 508.21,-125.93 500,-112 490.14,-95.27 471.36,-82.99 457.04,-75.52"/>
<polygon fill="midnightblue" stroke="midnightblue" points="506.03,-158.15 509.02,-168.31 513.02,-158.5 506.03,-158.15"/>
</g>
<!-- Node15 -->
<g id="node15" class="node">
<title>Node15</title>
<g id="a_node15"><a xlink:href="GreekSidebar_8cpp.html" target="_top" xlink:title="This file defines the class GreekSidebar.">
<polygon fill="white" stroke="black" points="170,-112.5 170,-131.5 334,-131.5 334,-112.5 170,-112.5"/>
<text text-anchor="middle" x="252" y="-119.5" font-family="Helvetica,sans-Serif" font-size="10.00">src/sidebars/GreekSidebar.cpp</text>
</a>
</g>
</g>
<!-- Node11&#45;&gt;Node15 -->
<g id="edge17" class="edge">
<title>Node11&#45;&gt;Node15</title>
<path fill="none" stroke="midnightblue" d="M457.49,-166.35C409.11,-156.14 337.05,-140.94 292.37,-131.52"/>
<polygon fill="midnightblue" stroke="midnightblue" points="456.93,-169.8 467.44,-168.44 458.37,-162.95 456.93,-169.8"/>
</g>
<!-- Node16 -->
<g id="node16" class="node">
<title>Node16</title>
<g id="a_node16"><a xlink:href="wxMaxima_8h.html" target="_top" xlink:title="This file declares the class wxMaxima that contains most of the program&#39;s logic.">
<polygon fill="white" stroke="black" points="593.5,-112.5 593.5,-131.5 690.5,-131.5 690.5,-112.5 593.5,-112.5"/>
<text text-anchor="middle" x="642" y="-119.5" font-family="Helvetica,sans-Serif" font-size="10.00">src/wxMaxima.h</text>
</a>
</g>
</g>
<!-- Node11&#45;&gt;Node16 -->
<g id="edge18" class="edge">
<title>Node11&#45;&gt;Node16</title>
<path fill="none" stroke="midnightblue" d="M538.68,-164.64C563.82,-154.5 598.75,-140.43 620.87,-131.52"/>
<polygon fill="midnightblue" stroke="midnightblue" points="537.2,-161.46 529.23,-168.44 539.82,-167.95 537.2,-161.46"/>
</g>
<!-- Node17 -->
<g id="node17" class="node">
<title>Node17</title>
<g id="a_node17"><a xlink:href="wxMaximaFrame_8cpp.html" target="_top" xlink:title="This file defines the class wxMaximaFrame.">
<polygon fill="white" stroke="black" points="352.5,-112.5 352.5,-131.5 491.5,-131.5 491.5,-112.5 352.5,-112.5"/>
<text text-anchor="middle" x="422" y="-119.5" font-family="Helvetica,sans-Serif" font-size="10.00">src/wxMaximaFrame.cpp</text>
</a>
</g>
</g>
<!-- Node11&#45;&gt;Node17 -->
<g id="edge25" class="edge">
<title>Node11&#45;&gt;Node17</title>
<path fill="none" stroke="midnightblue" d="M485.55,-162.9C469.78,-153 449.19,-140.07 435.78,-131.65"/>
<polygon fill="midnightblue" stroke="midnightblue" points="483.85,-165.97 494.18,-168.32 487.57,-160.04 483.85,-165.97"/>
</g>
<!-- Node13&#45;&gt;Node7 -->
<g id="edge14" class="edge">
<title>Node13&#45;&gt;Node7</title>
<path fill="none" stroke="midnightblue" d="M475.04,-53.3C507.26,-43.13 553.19,-28.62 582.03,-19.52"/>
<polygon fill="midnightblue" stroke="midnightblue" points="473.58,-50.09 465.1,-56.44 475.69,-56.77 473.58,-50.09"/>
</g>
<!-- Node13&#45;&gt;Node8 -->
<g id="edge16" class="edge">
<title>Node13&#45;&gt;Node8</title>
<path fill="none" stroke="midnightblue" d="M482.46,-55.74C554.87,-41.44 627.79,-27.95 674.04,-19.5"/>
<polygon fill="midnightblue" stroke="midnightblue" points="481.38,-52.39 472.25,-57.76 482.74,-59.25 481.38,-52.39"/>
</g>
<!-- Node14 -->
<g id="node14" class="node">
<title>Node14</title>
<g id="a_node14"><a xlink:href="MaximaManual_8cpp.html" target="_top" xlink:title="This file defines the class MaximaManual.">
<polygon fill="white" stroke="black" points="373,-0.5 373,-19.5 503,-19.5 503,-0.5 373,-0.5"/>
<text text-anchor="middle" x="438" y="-7.5" font-family="Helvetica,sans-Serif" font-size="10.00">src/MaximaManual.cpp</text>
</a>
</g>
</g>
<!-- Node13&#45;&gt;Node14 -->
<g id="edge15" class="edge">
<title>Node13&#45;&gt;Node14</title>
<path fill="none" stroke="midnightblue" d="M438,-45.8C438,-36.91 438,-26.78 438,-19.75"/>
<polygon fill="midnightblue" stroke="midnightblue" points="434.5,-46.08 438,-56.08 441.5,-46.08 434.5,-46.08"/>
</g>
<!-- Node16&#45;&gt;Node7 -->
<g id="edge20" class="edge">
<title>Node16&#45;&gt;Node7</title>
<path fill="none" stroke="midnightblue" d="M638.05,-102.41C635.11,-89.32 630.8,-71.45 626,-56 621.99,-43.08 616.24,-28.49 612.57,-19.52"/>
<polygon fill="midnightblue" stroke="midnightblue" points="634.7,-103.47 640.25,-112.5 641.54,-101.98 634.7,-103.47"/>
</g>
<!-- Node16&#45;&gt;Node8 -->
<g id="edge23" class="edge">
<title>Node16&#45;&gt;Node8</title>
<path fill="none" stroke="midnightblue" d="M654.24,-103.96C671.36,-80.12 701.82,-37.71 714.83,-19.59"/>
<polygon fill="midnightblue" stroke="midnightblue" points="651.19,-102.2 648.2,-112.37 656.88,-106.29 651.19,-102.2"/>
</g>
<!-- Node16&#45;&gt;Node10 -->
<g id="edge22" class="edge">
<title>Node16&#45;&gt;Node10</title>
<path fill="none" stroke="midnightblue" d="M670.77,-108.37C693.81,-98.26 725.48,-84.35 745.6,-75.52"/>
<polygon fill="midnightblue" stroke="midnightblue" points="669.24,-105.22 661.49,-112.44 672.05,-111.63 669.24,-105.22"/>
</g>
<!-- Node16&#45;&gt;Node12 -->
<g id="edge19" class="edge">
<title>Node16&#45;&gt;Node12</title>
<path fill="none" stroke="midnightblue" d="M619.02,-106.9C602.89,-97 581.82,-84.07 568.1,-75.65"/>
<polygon fill="midnightblue" stroke="midnightblue" points="617.51,-110.08 627.86,-112.32 621.17,-104.11 617.51,-110.08"/>
</g>
<!-- Node16&#45;&gt;Node13 -->
<g id="edge21" class="edge">
<title>Node16&#45;&gt;Node13</title>
<path fill="none" stroke="midnightblue" d="M599.8,-109.83C561.28,-99.63 505.18,-84.78 470.17,-75.52"/>
<polygon fill="midnightblue" stroke="midnightblue" points="599.11,-113.27 609.68,-112.44 600.9,-106.5 599.11,-113.27"/>
</g>
</g>
</svg>
