<?xml version="1.0" encoding="UTF-8" standalone="no"?>
<!DOCTYPE svg PUBLIC "-//W3C//DTD SVG 1.1//EN"
 "http://www.w3.org/Graphics/SVG/1.1/DTD/svg11.dtd">
<!-- Generated by graphviz version 2.43.0 (0)
 -->
<!-- Title: src/AutocompletePopup.h Pages: 1 -->
<svg width="1263pt" height="302pt"
 viewBox="0.00 0.00 1263.07 302.00" xmlns="http://www.w3.org/2000/svg" xmlns:xlink="http://www.w3.org/1999/xlink">
<g id="graph0" class="graph" transform="scale(1 1) rotate(0) translate(4 298)">
<title>src/AutocompletePopup.h</title>
<!-- Node1 -->
<g id="node1" class="node">
<title>Node1</title>
<g id="a_node1"><a xlink:title="The first number that is open for dynamic ID assignment.">
<polygon fill="#999999" stroke="#666666" points="681.57,-294 540.57,-294 540.57,-275 681.57,-275 681.57,-294"/>
<text text-anchor="middle" x="611.07" y="-282" font-family="Helvetica,sans-Serif" font-size="10.00">src/AutocompletePopup.h</text>
</a>
</g>
</g>
<!-- Node2 -->
<g id="node2" class="node">
<title>Node2</title>
<g id="a_node2"><a xlink:href="AutocompletePopup_8cpp.html" target="_top" xlink:title="This file defines the class AutocompletePopup.">
<polygon fill="white" stroke="#666666" points="1255.07,-129 1103.07,-129 1103.07,-110 1255.07,-110 1255.07,-129"/>
<text text-anchor="middle" x="1179.07" y="-117" font-family="Helvetica,sans-Serif" font-size="10.00">src/AutocompletePopup.cpp</text>
</a>
</g>
</g>
<!-- Node1&#45;&gt;Node2 -->
<g id="edge1" class="edge">
<title>Node1&#45;&gt;Node2</title>
<path fill="none" stroke="#63b8ff" d="M650.61,-272.15C758.16,-241.29 1054.24,-156.32 1149.28,-129.05"/>
<polygon fill="#63b8ff" stroke="#63b8ff" points="649.45,-268.84 640.81,-274.97 651.38,-275.57 649.45,-268.84"/>
</g>
<!-- Node3 -->
<g id="node3" class="node">
<title>Node3</title>
<g id="a_node3"><a xlink:href="Worksheet_8h.html" target="_top" xlink:title="This file defines the class Worksheet.">
<polygon fill="white" stroke="#666666" points="461.57,-239 366.57,-239 366.57,-220 461.57,-220 461.57,-239"/>
<text text-anchor="middle" x="414.07" y="-227" font-family="Helvetica,sans-Serif" font-size="10.00">src/Worksheet.h</text>
</a>
</g>
</g>
<!-- Node1&#45;&gt;Node3 -->
<g id="edge2" class="edge">
<title>Node1&#45;&gt;Node3</title>
<path fill="none" stroke="#63b8ff" d="M569.48,-272.31C532.62,-262.39 479.57,-248.12 445.97,-239.08"/>
<polygon fill="#63b8ff" stroke="#63b8ff" points="568.85,-275.77 579.42,-274.98 570.67,-269.01 568.85,-275.77"/>
</g>
<!-- Node4 -->
<g id="node4" class="node">
<title>Node4</title>
<g id="a_node4"><a xlink:href="Worksheet_8cpp.html" target="_top" xlink:title="This file defines the class Worksheet.">
<polygon fill="white" stroke="#666666" points="592.07,-74 486.07,-74 486.07,-55 592.07,-55 592.07,-74"/>
<text text-anchor="middle" x="539.07" y="-62" font-family="Helvetica,sans-Serif" font-size="10.00">src/Worksheet.cpp</text>
</a>
</g>
</g>
<!-- Node3&#45;&gt;Node4 -->
<g id="edge3" class="edge">
<title>Node3&#45;&gt;Node4</title>
<path fill="none" stroke="#63b8ff" d="M432.37,-213.45C441.78,-205.24 453.13,-194.62 462.07,-184 493.99,-146.09 523.48,-94.22 534.5,-74.03"/>
<polygon fill="#63b8ff" stroke="#63b8ff" points="430.05,-210.82 424.7,-219.97 434.59,-216.15 430.05,-210.82"/>
</g>
<!-- Node5 -->
<g id="node5" class="node">
<title>Node5</title>
<g id="a_node5"><a xlink:href="Cell_8cpp.html" target="_top" xlink:title="Core layout and rendering logic for worksheet cells.">
<polygon fill="white" stroke="#666666" points="119.07,-184 21.07,-184 21.07,-165 119.07,-165 119.07,-184"/>
<text text-anchor="middle" x="70.07" y="-172" font-family="Helvetica,sans-Serif" font-size="10.00">src/cells/Cell.cpp</text>
</a>
</g>
</g>
<!-- Node3&#45;&gt;Node5 -->
<g id="edge4" class="edge">
<title>Node3&#45;&gt;Node5</title>
<path fill="none" stroke="#63b8ff" d="M356.34,-219.61C289.85,-209.36 181.77,-192.71 119.16,-183.06"/>
<polygon fill="#63b8ff" stroke="#63b8ff" points="355.82,-223.07 366.24,-221.13 356.89,-216.15 355.82,-223.07"/>
</g>
<!-- Node6 -->
<g id="node6" class="node">
<title>Node6</title>
<g id="a_node6"><a xlink:href="GroupCell_8cpp.html" target="_top" xlink:title="This file defines the class GroupCell.">
<polygon fill="white" stroke="#666666" points="265.07,-184 137.07,-184 137.07,-165 265.07,-165 265.07,-184"/>
<text text-anchor="middle" x="201.07" y="-172" font-family="Helvetica,sans-Serif" font-size="10.00">src/cells/GroupCell.cpp</text>
</a>
</g>
</g>
<!-- Node3&#45;&gt;Node6 -->
<g id="edge5" class="edge">
<title>Node3&#45;&gt;Node6</title>
<path fill="none" stroke="#63b8ff" d="M370.12,-217.56C330.23,-207.64 272.2,-193.2 235.56,-184.08"/>
<polygon fill="#63b8ff" stroke="#63b8ff" points="369.3,-220.97 379.85,-219.98 370.99,-214.17 369.3,-220.97"/>
</g>
<!-- Node7 -->
<g id="node7" class="node">
<title>Node7</title>
<g id="a_node7"><a xlink:href="ConfigDialogue_8h.html" target="_top" xlink:title="The configuration dialog.">
<polygon fill="white" stroke="#666666" points="467.57,-74 312.57,-74 312.57,-55 467.57,-55 467.57,-74"/>
<text text-anchor="middle" x="390.07" y="-62" font-family="Helvetica,sans-Serif" font-size="10.00">src/dialogs/ConfigDialogue.h</text>
</a>
</g>
</g>
<!-- Node3&#45;&gt;Node7 -->
<g id="edge6" class="edge">
<title>Node3&#45;&gt;Node7</title>
<path fill="none" stroke="#63b8ff" d="M430.51,-212.37C437.35,-204.52 444.51,-194.53 448.07,-184 450.77,-176 450.27,-173.15 448.07,-165 438.06,-127.94 410.44,-90.5 397.25,-74.1"/>
<polygon fill="#63b8ff" stroke="#63b8ff" points="427.94,-209.99 423.68,-219.69 433.06,-214.77 427.94,-209.99"/>
</g>
<!-- Node10 -->
<g id="node10" class="node">
<title>Node10</title>
<g id="a_node10"><a xlink:href="DiffFrame_8h_source.html" target="_top" xlink:title=" ">
<polygon fill="white" stroke="#666666" points="294.57,-74 165.57,-74 165.57,-55 294.57,-55 294.57,-74"/>
<text text-anchor="middle" x="230.07" y="-62" font-family="Helvetica,sans-Serif" font-size="10.00">src/dialogs/DiffFrame.h</text>
</a>
</g>
</g>
<!-- Node3&#45;&gt;Node10 -->
<g id="edge9" class="edge">
<title>Node3&#45;&gt;Node10</title>
<path fill="none" stroke="#63b8ff" d="M356.04,-226.28C250.21,-221.63 34.59,-209.15 12.07,-184 -41.16,-124.55 96.8,-89.09 177.12,-74.03"/>
<polygon fill="#63b8ff" stroke="#63b8ff" points="356.1,-229.79 366.24,-226.72 356.4,-222.79 356.1,-229.79"/>
</g>
<!-- Node11 -->
<g id="node11" class="node">
<title>Node11</title>
<g id="a_node11"><a xlink:href="Printout_8cpp.html" target="_top" xlink:title="This file defines the class MathPrintOut.">
<polygon fill="white" stroke="#666666" points="438.57,-184 283.57,-184 283.57,-165 438.57,-165 438.57,-184"/>
<text text-anchor="middle" x="361.07" y="-172" font-family="Helvetica,sans-Serif" font-size="10.00">src/graphical_io/Printout.cpp</text>
</a>
</g>
</g>
<!-- Node3&#45;&gt;Node11 -->
<g id="edge12" class="edge">
<title>Node3&#45;&gt;Node11</title>
<path fill="none" stroke="#63b8ff" d="M398.09,-212.52C388.75,-203.18 377.32,-191.75 369.66,-184.09"/>
<polygon fill="#63b8ff" stroke="#63b8ff" points="395.77,-215.15 405.32,-219.75 400.72,-210.2 395.77,-215.15"/>
</g>
<!-- Node12 -->
<g id="node12" class="node">
<title>Node12</title>
<g id="a_node12"><a xlink:href="wxMaximaFrame_8h.html" target="_top" xlink:title="This file declares the class wxMaximaFrame.">
<polygon fill="white" stroke="#666666" points="888.07,-184 760.07,-184 760.07,-165 888.07,-165 888.07,-184"/>
<text text-anchor="middle" x="824.07" y="-172" font-family="Helvetica,sans-Serif" font-size="10.00">src/wxMaximaFrame.h</text>
</a>
</g>
</g>
<!-- Node3&#45;&gt;Node12 -->
<g id="edge13" class="edge">
<title>Node3&#45;&gt;Node12</title>
<path fill="none" stroke="#63b8ff" d="M472.24,-220.98C548.22,-211.16 680.83,-194.02 759.74,-183.82"/>
<polygon fill="#63b8ff" stroke="#63b8ff" points="471.37,-217.56 461.9,-222.32 472.27,-224.51 471.37,-217.56"/>
</g>
<!-- Node8 -->
<g id="node8" class="node">
<title>Node8</title>
<g id="a_node8"><a xlink:href="main_8cpp.html" target="_top" xlink:title="The file that defines the starting point of the program.">
<polygon fill="white" stroke="#666666" points="468.57,-19 389.57,-19 389.57,0 468.57,0 468.57,-19"/>
<text text-anchor="middle" x="429.07" y="-7" font-family="Helvetica,sans-Serif" font-size="10.00">src/main.cpp</text>
</a>
</g>
</g>
<!-- Node7&#45;&gt;Node8 -->
<g id="edge7" class="edge">
<title>Node7&#45;&gt;Node8</title>
<path fill="none" stroke="#63b8ff" d="M402.45,-46.67C409.2,-37.5 417.28,-26.52 422.75,-19.09"/>
<polygon fill="#63b8ff" stroke="#63b8ff" points="399.62,-44.62 396.51,-54.75 405.25,-48.77 399.62,-44.62"/>
</g>
<!-- Node9 -->
<g id="node9" class="node">
<title>Node9</title>
<g id="a_node9"><a xlink:href="wxMaxima_8cpp.html" target="_top" xlink:title="This file defines the contents of the class wxMaxima that contains most of the program&#39;s logic.">
<polygon fill="white" stroke="#666666" points="634.07,-19 526.07,-19 526.07,0 634.07,0 634.07,-19"/>
<text text-anchor="middle" x="580.07" y="-7" font-family="Helvetica,sans-Serif" font-size="10.00">src/wxMaxima.cpp</text>
</a>
</g>
</g>
<!-- Node7&#45;&gt;Node9 -->
<g id="edge8" class="edge">
<title>Node7&#45;&gt;Node9</title>
<path fill="none" stroke="#63b8ff" d="M430.64,-52.18C466.17,-42.27 517.04,-28.08 549.3,-19.08"/>
<polygon fill="#63b8ff" stroke="#63b8ff" points="429.29,-48.93 420.6,-54.98 431.17,-55.67 429.29,-48.93"/>
</g>
<!-- Node10&#45;&gt;Node8 -->
<g id="edge10" class="edge">
<title>Node10&#45;&gt;Node8</title>
<path fill="none" stroke="#63b8ff" d="M272.08,-52.31C309.32,-42.39 362.9,-28.12 396.85,-19.08"/>
<polygon fill="#63b8ff" stroke="#63b8ff" points="270.8,-49.03 262.04,-54.98 272.61,-55.79 270.8,-49.03"/>
</g>
<!-- Node10&#45;&gt;Node9 -->
<g id="edge11" class="edge">
<title>Node10&#45;&gt;Node9</title>
<path fill="none" stroke="#63b8ff" d="M296.26,-53.48C362.8,-43.4 464.12,-28.06 525.99,-18.69"/>
<polygon fill="#63b8ff" stroke="#63b8ff" points="295.67,-50.03 286.3,-54.98 296.71,-56.95 295.67,-50.03"/>
</g>
<!-- Node12&#45;&gt;Node2 -->
<g id="edge14" class="edge">
<title>Node12&#45;&gt;Node2</title>
<path fill="none" stroke="#63b8ff" d="M891.09,-163.49C957.74,-153.54 1058.9,-138.44 1121.88,-129.04"/>
<polygon fill="#63b8ff" stroke="#63b8ff" points="890.48,-160.05 881.11,-164.98 891.51,-166.97 890.48,-160.05"/>
</g>
<!-- Node12&#45;&gt;Node4 -->
<g id="edge15" class="edge">
<title>Node12&#45;&gt;Node4</title>
<path fill="none" stroke="#63b8ff" d="M749.89,-169C682.99,-163.51 590.95,-151.97 563.07,-129 546.15,-115.06 541.15,-87.86 539.68,-74.02"/>
<polygon fill="#63b8ff" stroke="#63b8ff" points="749.73,-172.49 759.98,-169.79 750.28,-165.52 749.73,-172.49"/>
</g>
<!-- Node13 -->
<g id="node13" class="node">
<title>Node13</title>
<g id="a_node13"><a xlink:href="EditorCell_8cpp.html" target="_top" xlink:title="This file defines the class EditorCell.">
<polygon fill="white" stroke="#666666" points="813.57,-74 686.57,-74 686.57,-55 813.57,-55 813.57,-74"/>
<text text-anchor="middle" x="750.07" y="-62" font-family="Helvetica,sans-Serif" font-size="10.00">src/cells/EditorCell.cpp</text>
</a>
</g>
</g>
<!-- Node12&#45;&gt;Node13 -->
<g id="edge16" class="edge">
<title>Node12&#45;&gt;Node13</title>
<path fill="none" stroke="#63b8ff" d="M843.27,-157.65C856.73,-144.55 870.61,-125.64 860.07,-110 847.4,-91.21 825.31,-80.35 804.23,-74.08"/>
<polygon fill="#63b8ff" stroke="#63b8ff" points="840.63,-155.31 835.57,-164.62 845.33,-160.5 840.63,-155.31"/>
</g>
<!-- Node14 -->
<g id="node14" class="node">
<title>Node14</title>
<g id="a_node14"><a xlink:href="main_8h.html" target="_top" xlink:title="This file declares the class wxMaxima that contains most of the program&#39;s logic.">
<polygon fill="white" stroke="#666666" points="900.07,-74 832.07,-74 832.07,-55 900.07,-55 900.07,-74"/>
<text text-anchor="middle" x="866.07" y="-62" font-family="Helvetica,sans-Serif" font-size="10.00">src/main.h</text>
</a>
</g>
</g>
<!-- Node12&#45;&gt;Node14 -->
<g id="edge17" class="edge">
<title>Node12&#45;&gt;Node14</title>
<path fill="none" stroke="#63b8ff" d="M898.32,-169.3C958.43,-164.17 1036.25,-152.98 1056.07,-129 1099.38,-76.59 965.73,-67.19 900.15,-65.68"/>
<polygon fill="#63b8ff" stroke="#63b8ff" points="897.77,-165.84 888.09,-170.13 898.34,-172.81 897.77,-165.84"/>
</g>
<!-- Node16 -->
<g id="node16" class="node">
<title>Node16</title>
<g id="a_node16"><a xlink:href="GreekSidebar_8cpp.html" target="_top" xlink:title="This file defines the class GreekSidebar.">
<polygon fill="white" stroke="#666666" points="851.07,-129 687.07,-129 687.07,-110 851.07,-110 851.07,-129"/>
<text text-anchor="middle" x="769.07" y="-117" font-family="Helvetica,sans-Serif" font-size="10.00">src/sidebars/GreekSidebar.cpp</text>
</a>
</g>
</g>
<!-- Node12&#45;&gt;Node16 -->
<g id="edge21" class="edge">
<title>Node12&#45;&gt;Node16</title>
<path fill="none" stroke="#63b8ff" d="M807.77,-157.8C798.03,-148.41 786.02,-136.83 777.98,-129.09"/>
<polygon fill="#63b8ff" stroke="#63b8ff" points="805.36,-160.33 814.99,-164.75 810.21,-155.29 805.36,-160.33"/>
</g>
<!-- Node17 -->
<g id="node17" class="node">
<title>Node17</title>
<g id="a_node17"><a xlink:href="wxMaxima_8h.html" target="_top" xlink:title="This file declares the class wxMaxima that contains most of the program&#39;s logic.">
<polygon fill="white" stroke="#666666" points="668.57,-129 571.57,-129 571.57,-110 668.57,-110 668.57,-129"/>
<text text-anchor="middle" x="620.07" y="-117" font-family="Helvetica,sans-Serif" font-size="10.00">src/wxMaxima.h</text>
</a>
</g>
</g>
<!-- Node12&#45;&gt;Node17 -->
<g id="edge22" class="edge">
<title>Node12&#45;&gt;Node17</title>
<path fill="none" stroke="#63b8ff" d="M781.49,-162.44C743.3,-152.52 688.04,-138.16 653.1,-129.08"/>
<polygon fill="#63b8ff" stroke="#63b8ff" points="780.73,-165.86 791.29,-164.98 782.49,-159.08 780.73,-165.86"/>
</g>
<!-- Node18 -->
<g id="node18" class="node">
<title>Node18</title>
<g id="a_node18"><a xlink:href="wxMaximaFrame_8cpp.html" target="_top" xlink:title="This file defines the class wxMaximaFrame.">
<polygon fill="white" stroke="#666666" points="1046.57,-129 907.57,-129 907.57,-110 1046.57,-110 1046.57,-129"/>
<text text-anchor="middle" x="977.07" y="-117" font-family="Helvetica,sans-Serif" font-size="10.00">src/wxMaximaFrame.cpp</text>
</a>
</g>
</g>
<!-- Node12&#45;&gt;Node18 -->
<g id="edge28" class="edge">
<title>Node12&#45;&gt;Node18</title>
<path fill="none" stroke="#63b8ff" d="M858.22,-161.67C886.75,-151.79 926.76,-137.93 952.29,-129.08"/>
<polygon fill="#63b8ff" stroke="#63b8ff" points="856.95,-158.4 848.65,-164.98 859.25,-165.02 856.95,-158.4"/>
</g>
<!-- Node14&#45;&gt;Node8 -->
<g id="edge19" class="edge">
<title>Node14&#45;&gt;Node8</title>
<path fill="none" stroke="#63b8ff" d="M821.82,-54.95C739.01,-42.78 550.83,-23.02 468.58,-14.54"/>
<polygon fill="#63b8ff" stroke="#63b8ff" points="821.44,-58.43 831.85,-56.47 822.48,-51.51 821.44,-58.43"/>
</g>
<!-- Node14&#45;&gt;Node9 -->
<g id="edge20" class="edge">
<title>Node14&#45;&gt;Node9</title>
<path fill="none" stroke="#63b8ff" d="M821.93,-54.8C748.53,-40.87 674.51,-27.44 627.6,-19"/>
<polygon fill="#63b8ff" stroke="#63b8ff" points="821.33,-58.25 831.81,-56.68 822.64,-51.38 821.33,-58.25"/>
</g>
<!-- Node15 -->
<g id="node15" class="node">
<title>Node15</title>
<g id="a_node15"><a xlink:href="MaximaManual_8cpp.html" target="_top" xlink:title="This file defines the class MaximaManual.">
<polygon fill="white" stroke="#666666" points="931.07,-19 801.07,-19 801.07,0 931.07,0 931.07,-19"/>
<text text-anchor="middle" x="866.07" y="-7" font-family="Helvetica,sans-Serif" font-size="10.00">src/MaximaManual.cpp</text>
</a>
</g>
</g>
<!-- Node14&#45;&gt;Node15 -->
<g id="edge18" class="edge">
<title>Node14&#45;&gt;Node15</title>
<path fill="none" stroke="#63b8ff" d="M866.07,-44.66C866.07,-35.93 866.07,-25.99 866.07,-19.09"/>
<polygon fill="#63b8ff" stroke="#63b8ff" points="862.57,-44.75 866.07,-54.75 869.57,-44.75 862.57,-44.75"/>
</g>
<!-- Node17&#45;&gt;Node4 -->
<g id="edge23" class="edge">
<title>Node17&#45;&gt;Node4</title>
<path fill="none" stroke="#63b8ff" d="M598.56,-104.42C583.86,-94.81 564.85,-82.37 552.32,-74.17"/>
<polygon fill="#63b8ff" stroke="#63b8ff" points="596.77,-107.44 607.05,-109.98 600.6,-101.58 596.77,-107.44"/>
</g>
<!-- Node17&#45;&gt;Node8 -->
<g id="edge25" class="edge">
<title>Node17&#45;&gt;Node8</title>
<path fill="none" stroke="#63b8ff" d="M619.23,-99.62C617.6,-85.46 613.1,-66.59 601.07,-55 582.3,-36.92 513.35,-23.32 468.66,-16.16"/>
<polygon fill="#63b8ff" stroke="#63b8ff" points="615.76,-100.04 620.02,-109.74 622.74,-99.5 615.76,-100.04"/>
</g>
<!-- Node17&#45;&gt;Node9 -->
<g id="edge27" class="edge">
<title>Node17&#45;&gt;Node9</title>
<path fill="none" stroke="#63b8ff" d="M629.99,-100.57C635.85,-87.46 640.91,-69.5 634.07,-55 626.45,-38.85 609.78,-26.57 596.96,-19.05"/>
<polygon fill="#63b8ff" stroke="#63b8ff" points="626.67,-99.38 625.33,-109.89 632.93,-102.51 626.67,-99.38"/>
</g>
<!-- Node17&#45;&gt;Node13 -->
<g id="edge24" class="edge">
<title>Node17&#45;&gt;Node13</title>
<path fill="none" stroke="#63b8ff" d="M650.34,-106.16C674.4,-96.35 707.47,-82.87 728.8,-74.17"/>
<polygon fill="#63b8ff" stroke="#63b8ff" points="648.89,-102.97 640.96,-109.98 651.54,-109.45 648.89,-102.97"/>
</g>
<!-- Node17&#45;&gt;Node14 -->
<g id="edge26" class="edge">
<title>Node17&#45;&gt;Node14</title>
<path fill="none" stroke="#63b8ff" d="M669.49,-107.85C717.65,-97.48 789.61,-81.97 831.8,-72.88"/>
<polygon fill="#63b8ff" stroke="#63b8ff" points="668.63,-104.46 659.59,-109.98 670.11,-111.3 668.63,-104.46"/>
</g>
</g>
</svg>
