<?xml version="1.0" encoding="UTF-8" standalone="no"?>
<!DOCTYPE svg PUBLIC "-//W3C//DTD SVG 1.1//EN"
 "http://www.w3.org/Graphics/SVG/1.1/DTD/svg11.dtd">
<!-- Generated by graphviz version 2.43.0 (0)
 -->
<!-- Title: src/Autocomplete.h Pages: 1 -->
<svg width="2031pt" height="308pt"
 viewBox="0.00 0.00 2031.00 308.00" xmlns="http://www.w3.org/2000/svg" xmlns:xlink="http://www.w3.org/1999/xlink">
<g id="graph0" class="graph" transform="scale(1 1) rotate(0) translate(4 304)">
<title>src/Autocomplete.h</title>
<polygon fill="white" stroke="transparent" points="-4,4 -4,-304 2027,-304 2027,4 -4,4"/>
<!-- Node1 -->
<g id="node1" class="node">
<title>Node1</title>
<g id="a_node1"><a xlink:title="This file declares the class AutoComplete.">
<polygon fill="#bfbfbf" stroke="black" points="1400.5,-280.5 1400.5,-299.5 1511.5,-299.5 1511.5,-280.5 1400.5,-280.5"/>
<text text-anchor="middle" x="1456" y="-287.5" font-family="Helvetica,sans-Serif" font-size="10.00">src/Autocomplete.h</text>
</a>
</g>
</g>
<!-- Node2 -->
<g id="node2" class="node">
<title>Node2</title>
<g id="a_node2"><a xlink:title=" ">
<polygon fill="white" stroke="#bfbfbf" points="0,-224.5 0,-243.5 48,-243.5 48,-224.5 0,-224.5"/>
<text text-anchor="middle" x="24" y="-231.5" font-family="Helvetica,sans-Serif" font-size="10.00">thread</text>
</a>
</g>
</g>
<!-- Node1&#45;&gt;Node2 -->
<g id="edge1" class="edge">
<title>Node1&#45;&gt;Node2</title>
<path fill="none" stroke="midnightblue" d="M1400.21,-288.69C1174.36,-287.2 327.37,-279.35 62,-244 60.89,-243.85 59.77,-243.69 58.64,-243.5"/>
<polygon fill="midnightblue" stroke="midnightblue" points="58.88,-239.99 48.4,-241.54 57.56,-246.86 58.88,-239.99"/>
</g>
<!-- Node3 -->
<g id="node3" class="node">
<title>Node3</title>
<g id="a_node3"><a xlink:title=" ">
<polygon fill="white" stroke="#bfbfbf" points="82,-56.5 82,-75.5 146,-75.5 146,-56.5 82,-56.5"/>
<text text-anchor="middle" x="114" y="-63.5" font-family="Helvetica,sans-Serif" font-size="10.00">algorithm</text>
</a>
</g>
</g>
<!-- Node1&#45;&gt;Node3 -->
<g id="edge2" class="edge">
<title>Node1&#45;&gt;Node3</title>
<path fill="none" stroke="midnightblue" d="M1400.31,-288.08C1183.47,-284.32 402.21,-269.16 294,-244 234.31,-230.12 215.25,-227.02 168,-188 144.61,-168.69 141.3,-159.72 129,-132 122.46,-117.26 118.6,-99.33 116.43,-86.04"/>
<polygon fill="midnightblue" stroke="midnightblue" points="119.84,-85.14 114.95,-75.75 112.91,-86.14 119.84,-85.14"/>
</g>
<!-- Node4 -->
<g id="node4" class="node">
<title>Node4</title>
<g id="a_node4"><a xlink:title=" ">
<polygon fill="white" stroke="#bfbfbf" points="1516,-56.5 1516,-75.5 1574,-75.5 1574,-56.5 1516,-56.5"/>
<text text-anchor="middle" x="1545" y="-63.5" font-family="Helvetica,sans-Serif" font-size="10.00">memory</text>
</a>
</g>
</g>
<!-- Node1&#45;&gt;Node4 -->
<g id="edge3" class="edge">
<title>Node1&#45;&gt;Node4</title>
<path fill="none" stroke="midnightblue" d="M1471.2,-280.48C1483.79,-272.63 1501.16,-259.82 1511,-244 1542.5,-193.38 1545.94,-120.06 1545.65,-85.87"/>
<polygon fill="midnightblue" stroke="midnightblue" points="1549.14,-85.44 1545.42,-75.51 1542.14,-85.59 1549.14,-85.44"/>
</g>
<!-- Node5 -->
<g id="node5" class="node">
<title>Node5</title>
<g id="a_node5"><a xlink:title=" ">
<polygon fill="white" stroke="#bfbfbf" points="1205,-168.5 1205,-187.5 1253,-187.5 1253,-168.5 1205,-168.5"/>
<text text-anchor="middle" x="1229" y="-175.5" font-family="Helvetica,sans-Serif" font-size="10.00">mutex</text>
</a>
</g>
</g>
<!-- Node1&#45;&gt;Node5 -->
<g id="edge4" class="edge">
<title>Node1&#45;&gt;Node5</title>
<path fill="none" stroke="midnightblue" d="M1437.75,-280.46C1418.59,-271.46 1387.62,-256.86 1361,-244 1324.33,-226.29 1282.14,-205.43 1255.53,-192.21"/>
<polygon fill="midnightblue" stroke="midnightblue" points="1256.98,-189.02 1246.47,-187.71 1253.86,-195.29 1256.98,-189.02"/>
</g>
<!-- Node6 -->
<g id="node6" class="node">
<title>Node6</title>
<g id="a_node6"><a xlink:title=" ">
<polygon fill="white" stroke="#bfbfbf" points="1271.5,-168.5 1271.5,-187.5 1328.5,-187.5 1328.5,-168.5 1271.5,-168.5"/>
<text text-anchor="middle" x="1300" y="-175.5" font-family="Helvetica,sans-Serif" font-size="10.00">wx/wx.h</text>
</a>
</g>
</g>
<!-- Node1&#45;&gt;Node6 -->
<g id="edge5" class="edge">
<title>Node1&#45;&gt;Node6</title>
<path fill="none" stroke="midnightblue" d="M1443.76,-280.37C1417.1,-261.57 1353.56,-216.77 1320.61,-193.53"/>
<polygon fill="midnightblue" stroke="midnightblue" points="1322.37,-190.49 1312.18,-187.59 1318.34,-196.21 1322.37,-190.49"/>
</g>
<!-- Node7 -->
<g id="node7" class="node">
<title>Node7</title>
<g id="a_node7"><a xlink:title=" ">
<polygon fill="white" stroke="#bfbfbf" points="1594.5,-224.5 1594.5,-243.5 1665.5,-243.5 1665.5,-224.5 1594.5,-224.5"/>
<text text-anchor="middle" x="1630" y="-231.5" font-family="Helvetica,sans-Serif" font-size="10.00">wx/event.h</text>
</a>
</g>
</g>
<!-- Node1&#45;&gt;Node7 -->
<g id="edge6" class="edge">
<title>Node1&#45;&gt;Node7</title>
<path fill="none" stroke="midnightblue" d="M1483.57,-280.44C1513.1,-271.28 1560.12,-256.69 1592.88,-246.52"/>
<polygon fill="midnightblue" stroke="midnightblue" points="1594.04,-249.82 1602.56,-243.52 1591.97,-243.14 1594.04,-249.82"/>
</g>
<!-- Node8 -->
<g id="node8" class="node">
<title>Node8</title>
<g id="a_node8"><a xlink:title=" ">
<polygon fill="white" stroke="#bfbfbf" points="1683.5,-224.5 1683.5,-243.5 1738.5,-243.5 1738.5,-224.5 1683.5,-224.5"/>
<text text-anchor="middle" x="1711" y="-231.5" font-family="Helvetica,sans-Serif" font-size="10.00">wx/dir.h</text>
</a>
</g>
</g>
<!-- Node1&#45;&gt;Node8 -->
<g id="edge7" class="edge">
<title>Node1&#45;&gt;Node8</title>
<path fill="none" stroke="midnightblue" d="M1500.16,-280.5C1542.31,-272.25 1607.84,-259.1 1673.08,-244.37"/>
<polygon fill="midnightblue" stroke="midnightblue" points="1674.14,-247.72 1683.12,-242.09 1672.59,-240.9 1674.14,-247.72"/>
</g>
<!-- Node9 -->
<g id="node9" class="node">
<title>Node9</title>
<g id="a_node9"><a xlink:title=" ">
<polygon fill="white" stroke="#bfbfbf" points="1346.5,-168.5 1346.5,-187.5 1393.5,-187.5 1393.5,-168.5 1346.5,-168.5"/>
<text text-anchor="middle" x="1370" y="-175.5" font-family="Helvetica,sans-Serif" font-size="10.00">vector</text>
</a>
</g>
</g>
<!-- Node1&#45;&gt;Node9 -->
<g id="edge8" class="edge">
<title>Node1&#45;&gt;Node9</title>
<path fill="none" stroke="midnightblue" d="M1449.25,-280.37C1435,-262.14 1401.61,-219.43 1383.04,-195.68"/>
<polygon fill="midnightblue" stroke="midnightblue" points="1385.63,-193.31 1376.72,-187.59 1380.12,-197.63 1385.63,-193.31"/>
</g>
<!-- Node10 -->
<g id="node10" class="node">
<title>Node10</title>
<g id="a_node10"><a xlink:title=" ">
<polygon fill="white" stroke="#bfbfbf" points="1756.5,-224.5 1756.5,-243.5 1829.5,-243.5 1829.5,-224.5 1756.5,-224.5"/>
<text text-anchor="middle" x="1793" y="-231.5" font-family="Helvetica,sans-Serif" font-size="10.00">wx/object.h</text>
</a>
</g>
</g>
<!-- Node1&#45;&gt;Node10 -->
<g id="edge9" class="edge">
<title>Node1&#45;&gt;Node10</title>
<path fill="none" stroke="midnightblue" d="M1511.56,-281.19C1568.21,-273.05 1658.88,-259.57 1746.12,-244.28"/>
<polygon fill="midnightblue" stroke="midnightblue" points="1746.95,-247.69 1756.19,-242.5 1745.73,-240.79 1746.95,-247.69"/>
</g>
<!-- Node11 -->
<g id="node11" class="node">
<title>Node11</title>
<g id="a_node11"><a xlink:title=" ">
<polygon fill="white" stroke="#bfbfbf" points="1847.5,-224.5 1847.5,-243.5 1918.5,-243.5 1918.5,-224.5 1847.5,-224.5"/>
<text text-anchor="middle" x="1883" y="-231.5" font-family="Helvetica,sans-Serif" font-size="10.00">wx/regex.h</text>
</a>
</g>
</g>
<!-- Node1&#45;&gt;Node11 -->
<g id="edge10" class="edge">
<title>Node1&#45;&gt;Node11</title>
<path fill="none" stroke="midnightblue" d="M1511.7,-283.95C1584.39,-277.03 1715.73,-263.39 1836.84,-244.24"/>
<polygon fill="midnightblue" stroke="midnightblue" points="1837.7,-247.65 1847.03,-242.62 1836.6,-240.74 1837.7,-247.65"/>
</g>
<!-- Node12 -->
<g id="node12" class="node">
<title>Node12</title>
<g id="a_node12"><a xlink:title=" ">
<polygon fill="white" stroke="#bfbfbf" points="1937,-224.5 1937,-243.5 2023,-243.5 2023,-224.5 1937,-224.5"/>
<text text-anchor="middle" x="1980" y="-231.5" font-family="Helvetica,sans-Serif" font-size="10.00">wx/filename.h</text>
</a>
</g>
</g>
<!-- Node1&#45;&gt;Node12 -->
<g id="edge11" class="edge">
<title>Node1&#45;&gt;Node12</title>
<path fill="none" stroke="midnightblue" d="M1511.74,-285.07C1598.31,-278.66 1770.48,-264.71 1926.65,-244.09"/>
<polygon fill="midnightblue" stroke="midnightblue" points="1927.46,-247.51 1936.91,-242.72 1926.53,-240.57 1927.46,-247.51"/>
</g>
<!-- Node13 -->
<g id="node13" class="node">
<title>Node13</title>
<g id="a_node13"><a xlink:title=" ">
<polygon fill="white" stroke="#bfbfbf" points="1412,-168.5 1412,-187.5 1500,-187.5 1500,-168.5 1412,-168.5"/>
<text text-anchor="middle" x="1456" y="-175.5" font-family="Helvetica,sans-Serif" font-size="10.00">wx/hashmap.h</text>
</a>
</g>
</g>
<!-- Node1&#45;&gt;Node13 -->
<g id="edge12" class="edge">
<title>Node1&#45;&gt;Node13</title>
<path fill="none" stroke="midnightblue" d="M1456,-280.37C1456,-262.62 1456,-221.67 1456,-197.6"/>
<polygon fill="midnightblue" stroke="midnightblue" points="1459.5,-197.59 1456,-187.59 1452.5,-197.59 1459.5,-197.59"/>
</g>
<!-- Node14 -->
<g id="node14" class="node">
<title>Node14</title>
<g id="a_node14"><a xlink:href="Configuration_8h_source.html" target="_top" xlink:title=" ">
<polygon fill="white" stroke="black" points="903.5,-224.5 903.5,-243.5 994.5,-243.5 994.5,-224.5 903.5,-224.5"/>
<text text-anchor="middle" x="949" y="-231.5" font-family="Helvetica,sans-Serif" font-size="10.00">Configuration.h</text>
</a>
</g>
</g>
<!-- Node1&#45;&gt;Node14 -->
<g id="edge13" class="edge">
<title>Node1&#45;&gt;Node14</title>
<path fill="none" stroke="midnightblue" d="M1400.29,-283.07C1302.78,-272.68 1102.27,-251.32 1004.74,-240.94"/>
<polygon fill="midnightblue" stroke="midnightblue" points="1005.09,-237.45 994.78,-239.88 1004.35,-244.42 1005.09,-237.45"/>
</g>
<!-- Node15 -->
<g id="node15" class="node">
<title>Node15</title>
<g id="a_node15"><a xlink:href="precomp_8h_source.html" target="_top" xlink:title=" ">
<polygon fill="white" stroke="black" points="238,-56.5 238,-75.5 306,-75.5 306,-56.5 238,-56.5"/>
<text text-anchor="middle" x="272" y="-63.5" font-family="Helvetica,sans-Serif" font-size="10.00">precomp.h</text>
</a>
</g>
</g>
<!-- Node1&#45;&gt;Node15 -->
<g id="edge68" class="edge">
<title>Node1&#45;&gt;Node15</title>
<path fill="none" stroke="midnightblue" d="M1400.39,-288.87C1167.48,-287.75 278.7,-277.6 196,-188 183.91,-174.9 188.87,-139.69 207,-112 215.77,-98.6 230.05,-88.07 242.99,-80.57"/>
<polygon fill="midnightblue" stroke="midnightblue" points="244.95,-83.49 252.08,-75.65 241.62,-77.33 244.95,-83.49"/>
</g>
<!-- Node43 -->
<g id="node43" class="node">
<title>Node43</title>
<g id="a_node43"><a xlink:title=" ">
<polygon fill="white" stroke="#bfbfbf" points="1404.5,-56.5 1404.5,-75.5 1497.5,-75.5 1497.5,-56.5 1404.5,-56.5"/>
<text text-anchor="middle" x="1451" y="-63.5" font-family="Helvetica,sans-Serif" font-size="10.00">unordered_map</text>
</a>
</g>
</g>
<!-- Node1&#45;&gt;Node43 -->
<g id="edge69" class="edge">
<title>Node1&#45;&gt;Node43</title>
<path fill="none" stroke="midnightblue" d="M1464.46,-280.23C1482.21,-260.75 1520.76,-212.1 1509,-168 1500.36,-135.62 1478.6,-102.83 1464.32,-83.73"/>
<polygon fill="midnightblue" stroke="midnightblue" points="1467.05,-81.54 1458.19,-75.75 1461.5,-85.81 1467.05,-81.54"/>
</g>
<!-- Node14&#45;&gt;Node3 -->
<g id="edge65" class="edge">
<title>Node14&#45;&gt;Node3</title>
<path fill="none" stroke="midnightblue" d="M903.3,-232.6C749.56,-230.94 257.35,-222.92 196,-188 155.7,-165.06 131.15,-113.21 120.4,-85.42"/>
<polygon fill="midnightblue" stroke="midnightblue" points="123.58,-83.92 116.84,-75.75 117.01,-86.34 123.58,-83.92"/>
</g>
<!-- Node14&#45;&gt;Node4 -->
<g id="edge59" class="edge">
<title>Node14&#45;&gt;Node4</title>
<path fill="none" stroke="midnightblue" d="M994.87,-226.21C1037.19,-219.19 1101.4,-206.63 1155,-188 1174.15,-181.34 1176.63,-174 1196,-168 1300.29,-135.69 1336.39,-169.29 1439,-132 1472.05,-119.99 1505.96,-96.95 1526.25,-81.77"/>
<polygon fill="midnightblue" stroke="midnightblue" points="1528.49,-84.47 1534.32,-75.62 1524.25,-78.9 1528.49,-84.47"/>
</g>
<!-- Node14&#45;&gt;Node5 -->
<g id="edge60" class="edge">
<title>Node14&#45;&gt;Node5</title>
<path fill="none" stroke="midnightblue" d="M994.63,-225.2C1043.37,-216.7 1122.85,-202.4 1191,-188 1192.27,-187.73 1193.56,-187.45 1194.86,-187.17"/>
<polygon fill="midnightblue" stroke="midnightblue" points="1195.94,-190.51 1204.92,-184.89 1194.39,-183.69 1195.94,-190.51"/>
</g>
<!-- Node14&#45;&gt;Node6 -->
<g id="edge16" class="edge">
<title>Node14&#45;&gt;Node6</title>
<path fill="none" stroke="midnightblue" d="M994.57,-227.75C1053.72,-220.65 1160.33,-206.88 1261.35,-187.96"/>
<polygon fill="midnightblue" stroke="midnightblue" points="1262.25,-191.36 1271.43,-186.06 1260.95,-184.48 1262.25,-191.36"/>
</g>
<!-- Node14&#45;&gt;Node9 -->
<g id="edge64" class="edge">
<title>Node14&#45;&gt;Node9</title>
<path fill="none" stroke="midnightblue" d="M994.74,-229.94C1065.8,-224.7 1207.08,-212.32 1336.24,-187.86"/>
<polygon fill="midnightblue" stroke="midnightblue" points="1337.15,-191.25 1346.31,-185.92 1335.83,-184.37 1337.15,-191.25"/>
</g>
<!-- Node14&#45;&gt;Node13 -->
<g id="edge20" class="edge">
<title>Node14&#45;&gt;Node13</title>
<path fill="none" stroke="midnightblue" d="M994.77,-229.46C1074.89,-223.05 1245.98,-208.37 1401.6,-187.96"/>
<polygon fill="midnightblue" stroke="midnightblue" points="1402.38,-191.39 1411.83,-186.61 1401.46,-184.45 1402.38,-191.39"/>
</g>
<!-- Node14&#45;&gt;Node15 -->
<g id="edge14" class="edge">
<title>Node14&#45;&gt;Node15</title>
<path fill="none" stroke="midnightblue" d="M903.29,-231.93C745.62,-228.01 232.87,-213.37 209,-188 178.86,-155.98 225.58,-106.75 253.53,-82.13"/>
<polygon fill="midnightblue" stroke="midnightblue" points="255.84,-84.76 261.16,-75.59 251.29,-79.44 255.84,-84.76"/>
</g>
<!-- Node17 -->
<g id="node17" class="node">
<title>Node17</title>
<g id="a_node17"><a xlink:title=" ">
<polygon fill="white" stroke="#bfbfbf" points="512,-112.5 512,-131.5 584,-131.5 584,-112.5 512,-112.5"/>
<text text-anchor="middle" x="548" y="-119.5" font-family="Helvetica,sans-Serif" font-size="10.00">wx/config.h</text>
</a>
</g>
</g>
<!-- Node14&#45;&gt;Node17 -->
<g id="edge17" class="edge">
<title>Node14&#45;&gt;Node17</title>
<path fill="none" stroke="midnightblue" d="M948.55,-224.17C947.31,-209.85 942.63,-181.78 925,-168 867.4,-122.98 670.35,-142.48 598,-132 596.72,-131.82 595.43,-131.62 594.12,-131.42"/>
<polygon fill="midnightblue" stroke="midnightblue" points="594.43,-127.93 584,-129.78 593.31,-134.84 594.43,-127.93"/>
</g>
<!-- Node18 -->
<g id="node18" class="node">
<title>Node18</title>
<g id="a_node18"><a xlink:title=" ">
<polygon fill="white" stroke="#bfbfbf" points="218.5,-168.5 218.5,-187.5 295.5,-187.5 295.5,-168.5 218.5,-168.5"/>
<text text-anchor="middle" x="257" y="-175.5" font-family="Helvetica,sans-Serif" font-size="10.00">wx/display.h</text>
</a>
</g>
</g>
<!-- Node14&#45;&gt;Node18 -->
<g id="edge18" class="edge">
<title>Node14&#45;&gt;Node18</title>
<path fill="none" stroke="midnightblue" d="M903.14,-231.62C798.9,-228.08 536.02,-216.95 305.95,-187.96"/>
<polygon fill="midnightblue" stroke="midnightblue" points="306.07,-184.45 295.71,-186.66 305.19,-191.39 306.07,-184.45"/>
</g>
<!-- Node19 -->
<g id="node19" class="node">
<title>Node19</title>
<g id="a_node19"><a xlink:title=" ">
<polygon fill="white" stroke="#bfbfbf" points="314,-168.5 314,-187.5 404,-187.5 404,-168.5 314,-168.5"/>
<text text-anchor="middle" x="359" y="-175.5" font-family="Helvetica,sans-Serif" font-size="10.00">wx/fontenum.h</text>
</a>
</g>
</g>
<!-- Node14&#45;&gt;Node19 -->
<g id="edge19" class="edge">
<title>Node14&#45;&gt;Node19</title>
<path fill="none" stroke="midnightblue" d="M903.34,-230.42C812.29,-225.02 601.5,-211.13 414.08,-188.04"/>
<polygon fill="midnightblue" stroke="midnightblue" points="414.4,-184.55 404.04,-186.79 413.53,-191.5 414.4,-184.55"/>
</g>
<!-- Node20 -->
<g id="node20" class="node">
<title>Node20</title>
<g id="a_node20"><a xlink:href="LoggingMessageDialog_8h.html" target="_top" xlink:title="This file declares a message dialog that sends its contents to the log message sink.">
<polygon fill="white" stroke="black" points="706.5,-168.5 706.5,-187.5 883.5,-187.5 883.5,-168.5 706.5,-168.5"/>
<text text-anchor="middle" x="795" y="-175.5" font-family="Helvetica,sans-Serif" font-size="10.00">dialogs/LoggingMessageDialog.h</text>
</a>
</g>
</g>
<!-- Node14&#45;&gt;Node20 -->
<g id="edge21" class="edge">
<title>Node14&#45;&gt;Node20</title>
<path fill="none" stroke="midnightblue" d="M924.6,-224.44C898.8,-215.4 857.92,-201.06 828.98,-190.92"/>
<polygon fill="midnightblue" stroke="midnightblue" points="829.88,-187.52 819.29,-187.52 827.57,-194.13 829.88,-187.52"/>
</g>
<!-- Node23 -->
<g id="node23" class="node">
<title>Node23</title>
<g id="a_node23"><a xlink:href="TextStyle_8h.html" target="_top" xlink:title="This file declares everything needed for the text style system used to style all the elements on the ...">
<polygon fill="white" stroke="black" points="977,-168.5 977,-187.5 1073,-187.5 1073,-168.5 977,-168.5"/>
<text text-anchor="middle" x="1025" y="-175.5" font-family="Helvetica,sans-Serif" font-size="10.00">cells/TextStyle.h</text>
</a>
</g>
</g>
<!-- Node14&#45;&gt;Node23 -->
<g id="edge25" class="edge">
<title>Node14&#45;&gt;Node23</title>
<path fill="none" stroke="midnightblue" d="M961.21,-224.32C972.78,-216.11 990.38,-203.6 1004.16,-193.81"/>
<polygon fill="midnightblue" stroke="midnightblue" points="1006.44,-196.48 1012.57,-187.83 1002.39,-190.77 1006.44,-196.48"/>
</g>
<!-- Node30 -->
<g id="node30" class="node">
<title>Node30</title>
<g id="a_node30"><a xlink:title=" ">
<polygon fill="white" stroke="#bfbfbf" points="535,-56.5 535,-75.5 585,-75.5 585,-56.5 535,-56.5"/>
<text text-anchor="middle" x="560" y="-63.5" font-family="Helvetica,sans-Serif" font-size="10.00">cstdint</text>
</a>
</g>
</g>
<!-- Node14&#45;&gt;Node30 -->
<g id="edge58" class="edge">
<title>Node14&#45;&gt;Node30</title>
<path fill="none" stroke="midnightblue" d="M944.39,-224.39C936.09,-209.86 917.14,-180.82 892,-168 814.66,-128.56 561.49,-196.15 503,-132 487,-114.45 512.55,-93.77 534.4,-80.53"/>
<polygon fill="midnightblue" stroke="midnightblue" points="536.19,-83.54 543.1,-75.51 532.69,-77.47 536.19,-83.54"/>
</g>
<!-- Node41 -->
<g id="node41" class="node">
<title>Node41</title>
<g id="a_node41"><a xlink:title=" ">
<polygon fill="white" stroke="#bfbfbf" points="1311,-56.5 1311,-75.5 1343,-75.5 1343,-56.5 1311,-56.5"/>
<text text-anchor="middle" x="1327" y="-63.5" font-family="Helvetica,sans-Serif" font-size="10.00">list</text>
</a>
</g>
</g>
<!-- Node14&#45;&gt;Node41 -->
<g id="edge63" class="edge">
<title>Node14&#45;&gt;Node41</title>
<path fill="none" stroke="midnightblue" d="M977.09,-224.48C1004.23,-216.01 1046.36,-202.27 1082,-188 1101.57,-180.17 1104.93,-174.43 1125,-168 1208.1,-141.39 1257.76,-195.13 1318,-132 1329.42,-120.03 1330.78,-100.73 1329.82,-86.27"/>
<polygon fill="midnightblue" stroke="midnightblue" points="1333.26,-85.5 1328.7,-75.93 1326.3,-86.25 1333.26,-85.5"/>
</g>
<!-- Node14&#45;&gt;Node43 -->
<g id="edge61" class="edge">
<title>Node14&#45;&gt;Node43</title>
<path fill="none" stroke="midnightblue" d="M988.12,-224.44C1022.72,-216.43 1074.34,-203.41 1118,-188 1138.64,-180.72 1141.96,-174.04 1163,-168 1272.59,-136.54 1323.86,-197.77 1417,-132 1432.57,-121.01 1441.56,-100.65 1446.33,-85.63"/>
<polygon fill="midnightblue" stroke="midnightblue" points="1449.75,-86.43 1449.1,-75.86 1443.01,-84.52 1449.75,-86.43"/>
</g>
<!-- Node44 -->
<g id="node44" class="node">
<title>Node44</title>
<g id="a_node44"><a xlink:title=" ">
<polygon fill="white" stroke="#bfbfbf" points="422,-168.5 422,-187.5 476,-187.5 476,-168.5 422,-168.5"/>
<text text-anchor="middle" x="449" y="-175.5" font-family="Helvetica,sans-Serif" font-size="10.00">random</text>
</a>
</g>
</g>
<!-- Node14&#45;&gt;Node44 -->
<g id="edge62" class="edge">
<title>Node14&#45;&gt;Node44</title>
<path fill="none" stroke="midnightblue" d="M903.26,-230.82C821.4,-226.42 644.39,-214.7 485.96,-187.92"/>
<polygon fill="midnightblue" stroke="midnightblue" points="486.48,-184.46 476.04,-186.22 485.3,-191.36 486.48,-184.46"/>
</g>
<!-- Node45 -->
<g id="node45" class="node">
<title>Node45</title>
<g id="a_node45"><a xlink:title=" ">
<polygon fill="white" stroke="#bfbfbf" points="494.5,-168.5 494.5,-187.5 583.5,-187.5 583.5,-168.5 494.5,-168.5"/>
<text text-anchor="middle" x="539" y="-175.5" font-family="Helvetica,sans-Serif" font-size="10.00">wx/wupdlock.h</text>
</a>
</g>
</g>
<!-- Node14&#45;&gt;Node45 -->
<g id="edge66" class="edge">
<title>Node14&#45;&gt;Node45</title>
<path fill="none" stroke="midnightblue" d="M903.4,-227.82C837.46,-220.2 711.39,-205.15 593.67,-188.05"/>
<polygon fill="midnightblue" stroke="midnightblue" points="594.17,-184.58 583.77,-186.6 593.16,-191.51 594.17,-184.58"/>
</g>
<!-- Node46 -->
<g id="node46" class="node">
<title>Node46</title>
<g id="a_node46"><a xlink:title=" ">
<polygon fill="white" stroke="#bfbfbf" points="602,-168.5 602,-187.5 688,-187.5 688,-168.5 602,-168.5"/>
<text text-anchor="middle" x="645" y="-175.5" font-family="Helvetica,sans-Serif" font-size="10.00">wx/webview.h</text>
</a>
</g>
</g>
<!-- Node14&#45;&gt;Node46 -->
<g id="edge67" class="edge">
<title>Node14&#45;&gt;Node46</title>
<path fill="none" stroke="midnightblue" d="M903.49,-224.92C848.64,-215.17 756.63,-198.83 698.45,-188.5"/>
<polygon fill="midnightblue" stroke="midnightblue" points="698.82,-185 688.36,-186.7 697.59,-191.9 698.82,-185"/>
</g>
<!-- Node16 -->
<g id="node16" class="node">
<title>Node16</title>
<g id="a_node16"><a xlink:href="Version_8h_source.html" target="_top" xlink:title=" ">
<polygon fill="white" stroke="black" points="241,-0.5 241,-19.5 303,-19.5 303,-0.5 241,-0.5"/>
<text text-anchor="middle" x="272" y="-7.5" font-family="Helvetica,sans-Serif" font-size="10.00">Version.h</text>
</a>
</g>
</g>
<!-- Node15&#45;&gt;Node16 -->
<g id="edge15" class="edge">
<title>Node15&#45;&gt;Node16</title>
<path fill="none" stroke="midnightblue" d="M272,-56.08C272,-49.01 272,-38.86 272,-29.99"/>
<polygon fill="midnightblue" stroke="midnightblue" points="275.5,-29.75 272,-19.75 268.5,-29.75 275.5,-29.75"/>
</g>
<!-- Node20&#45;&gt;Node15 -->
<g id="edge22" class="edge">
<title>Node20&#45;&gt;Node15</title>
<path fill="none" stroke="midnightblue" d="M706.33,-168.84C703.18,-168.56 700.06,-168.28 697,-168 651.9,-163.93 326,-160.74 291,-132 277.53,-120.94 273.29,-100.9 272.11,-85.98"/>
<polygon fill="midnightblue" stroke="midnightblue" points="275.6,-85.66 271.69,-75.81 268.6,-85.94 275.6,-85.66"/>
</g>
<!-- Node21 -->
<g id="node21" class="node">
<title>Node21</title>
<g id="a_node21"><a xlink:title=" ">
<polygon fill="white" stroke="#bfbfbf" points="376.5,-112.5 376.5,-131.5 455.5,-131.5 455.5,-112.5 376.5,-112.5"/>
<text text-anchor="middle" x="416" y="-119.5" font-family="Helvetica,sans-Serif" font-size="10.00">wx/msgdlg.h</text>
</a>
</g>
</g>
<!-- Node20&#45;&gt;Node21 -->
<g id="edge23" class="edge">
<title>Node20&#45;&gt;Node21</title>
<path fill="none" stroke="midnightblue" d="M729.56,-168.48C663.87,-159.8 559.82,-145.7 470,-132 468.71,-131.8 467.39,-131.6 466.07,-131.39"/>
<polygon fill="midnightblue" stroke="midnightblue" points="466.22,-127.87 455.79,-129.76 465.12,-134.79 466.22,-127.87"/>
</g>
<!-- Node22 -->
<g id="node22" class="node">
<title>Node22</title>
<g id="a_node22"><a xlink:title=" ">
<polygon fill="white" stroke="#bfbfbf" points="300,-112.5 300,-131.5 358,-131.5 358,-112.5 300,-112.5"/>
<text text-anchor="middle" x="329" y="-119.5" font-family="Helvetica,sans-Serif" font-size="10.00">wx/log.h</text>
</a>
</g>
</g>
<!-- Node20&#45;&gt;Node22 -->
<g id="edge24" class="edge">
<title>Node20&#45;&gt;Node22</title>
<path fill="none" stroke="midnightblue" d="M708.17,-168.47C600.47,-157.81 424.99,-140.12 368.55,-131.94"/>
<polygon fill="midnightblue" stroke="midnightblue" points="368.8,-128.44 358.38,-130.35 367.72,-135.36 368.8,-128.44"/>
</g>
<!-- Node23&#45;&gt;Node15 -->
<g id="edge26" class="edge">
<title>Node23&#45;&gt;Node15</title>
<path fill="none" stroke="midnightblue" d="M976.74,-171.41C966.9,-170.28 956.62,-169.1 947,-168 804.8,-151.8 762.77,-177.28 627,-132 610.37,-126.45 609.55,-117.77 593,-112 498.12,-78.92 379.43,-70.09 316.3,-67.78"/>
<polygon fill="midnightblue" stroke="midnightblue" points="316.4,-64.28 306.29,-67.45 316.17,-71.28 316.4,-64.28"/>
</g>
<!-- Node23&#45;&gt;Node17 -->
<g id="edge31" class="edge">
<title>Node23&#45;&gt;Node17</title>
<path fill="none" stroke="midnightblue" d="M976.97,-169.81C972.25,-169.17 967.53,-168.55 963,-168 801.19,-148.29 759.46,-154.46 598,-132 596.75,-131.83 595.48,-131.64 594.2,-131.45"/>
<polygon fill="midnightblue" stroke="midnightblue" points="594.69,-127.99 584.27,-129.88 593.6,-134.9 594.69,-127.99"/>
</g>
<!-- Node24 -->
<g id="node24" class="node">
<title>Node24</title>
<g id="a_node24"><a xlink:title=" ">
<polygon fill="white" stroke="#bfbfbf" points="776,-112.5 776,-131.5 848,-131.5 848,-112.5 776,-112.5"/>
<text text-anchor="middle" x="812" y="-119.5" font-family="Helvetica,sans-Serif" font-size="10.00">wx/colour.h</text>
</a>
</g>
</g>
<!-- Node23&#45;&gt;Node24 -->
<g id="edge27" class="edge">
<title>Node23&#45;&gt;Node24</title>
<path fill="none" stroke="midnightblue" d="M991.25,-168.44C954.48,-159.12 895.55,-144.18 855.38,-134"/>
<polygon fill="midnightblue" stroke="midnightblue" points="856.15,-130.58 845.59,-131.52 854.43,-137.37 856.15,-130.58"/>
</g>
<!-- Node25 -->
<g id="node25" class="node">
<title>Node25</title>
<g id="a_node25"><a xlink:title=" ">
<polygon fill="white" stroke="#bfbfbf" points="866,-112.5 866,-131.5 904,-131.5 904,-112.5 866,-112.5"/>
<text text-anchor="middle" x="885" y="-119.5" font-family="Helvetica,sans-Serif" font-size="10.00">map</text>
</a>
</g>
</g>
<!-- Node23&#45;&gt;Node25 -->
<g id="edge28" class="edge">
<title>Node23&#45;&gt;Node25</title>
<path fill="none" stroke="midnightblue" d="M1002.82,-168.44C978.75,-159.16 940.24,-144.31 913.84,-134.13"/>
<polygon fill="midnightblue" stroke="midnightblue" points="914.96,-130.81 904.37,-130.47 912.44,-137.34 914.96,-130.81"/>
</g>
<!-- Node26 -->
<g id="node26" class="node">
<title>Node26</title>
<g id="a_node26"><a xlink:title=" ">
<polygon fill="white" stroke="#bfbfbf" points="922,-112.5 922,-131.5 966,-131.5 966,-112.5 922,-112.5"/>
<text text-anchor="middle" x="944" y="-119.5" font-family="Helvetica,sans-Serif" font-size="10.00">string</text>
</a>
</g>
</g>
<!-- Node23&#45;&gt;Node26 -->
<g id="edge29" class="edge">
<title>Node23&#45;&gt;Node26</title>
<path fill="none" stroke="midnightblue" d="M1011.99,-168.32C999.47,-159.98 980.32,-147.21 965.53,-137.35"/>
<polygon fill="midnightblue" stroke="midnightblue" points="967.24,-134.29 956.98,-131.65 963.36,-140.11 967.24,-134.29"/>
</g>
<!-- Node27 -->
<g id="node27" class="node">
<title>Node27</title>
<g id="a_node27"><a xlink:title=" ">
<polygon fill="white" stroke="#bfbfbf" points="984.5,-112.5 984.5,-131.5 1041.5,-131.5 1041.5,-112.5 984.5,-112.5"/>
<text text-anchor="middle" x="1013" y="-119.5" font-family="Helvetica,sans-Serif" font-size="10.00">ostream</text>
</a>
</g>
</g>
<!-- Node23&#45;&gt;Node27 -->
<g id="edge30" class="edge">
<title>Node23&#45;&gt;Node27</title>
<path fill="none" stroke="midnightblue" d="M1023.02,-168.08C1021.43,-160.93 1019.14,-150.64 1017.15,-141.69"/>
<polygon fill="midnightblue" stroke="midnightblue" points="1020.53,-140.75 1014.94,-131.75 1013.7,-142.27 1020.53,-140.75"/>
</g>
<!-- Node28 -->
<g id="node28" class="node">
<title>Node28</title>
<g id="a_node28"><a xlink:title=" ">
<polygon fill="white" stroke="#bfbfbf" points="1119,-56.5 1119,-75.5 1181,-75.5 1181,-56.5 1119,-56.5"/>
<text text-anchor="middle" x="1150" y="-63.5" font-family="Helvetica,sans-Serif" font-size="10.00">wx/font.h</text>
</a>
</g>
</g>
<!-- Node23&#45;&gt;Node28 -->
<g id="edge32" class="edge">
<title>Node23&#45;&gt;Node28</title>
<path fill="none" stroke="midnightblue" d="M1063.2,-168.46C1096.34,-160.19 1140.6,-146.76 1151,-132 1160.44,-118.61 1158.85,-99.5 1155.71,-85.46"/>
<polygon fill="midnightblue" stroke="midnightblue" points="1159,-84.25 1153.03,-75.5 1152.24,-86.07 1159,-84.25"/>
</g>
<!-- Node29 -->
<g id="node29" class="node">
<title>Node29</title>
<g id="a_node29"><a xlink:title=" ">
<polygon fill="white" stroke="#bfbfbf" points="1060,-112.5 1060,-131.5 1142,-131.5 1142,-112.5 1060,-112.5"/>
<text text-anchor="middle" x="1101" y="-119.5" font-family="Helvetica,sans-Serif" font-size="10.00">wx/settings.h</text>
</a>
</g>
</g>
<!-- Node23&#45;&gt;Node29 -->
<g id="edge33" class="edge">
<title>Node23&#45;&gt;Node29</title>
<path fill="none" stroke="midnightblue" d="M1037.21,-168.32C1048.78,-160.11 1066.38,-147.6 1080.16,-137.81"/>
<polygon fill="midnightblue" stroke="midnightblue" points="1082.44,-140.48 1088.57,-131.83 1078.39,-134.77 1082.44,-140.48"/>
</g>
<!-- Node23&#45;&gt;Node30 -->
<g id="edge34" class="edge">
<title>Node23&#45;&gt;Node30</title>
<path fill="none" stroke="midnightblue" d="M976.8,-171.44C882.91,-160.53 683.38,-136.95 669,-132 651.02,-125.81 607.72,-98.4 581.42,-81.22"/>
<polygon fill="midnightblue" stroke="midnightblue" points="583.18,-78.18 572.9,-75.61 579.34,-84.03 583.18,-78.18"/>
</g>
<!-- Node31 -->
<g id="node31" class="node">
<title>Node31</title>
<g id="a_node31"><a xlink:title=" ">
<polygon fill="white" stroke="#bfbfbf" points="1146.5,-0.5 1146.5,-19.5 1211.5,-19.5 1211.5,-0.5 1146.5,-0.5"/>
<text text-anchor="middle" x="1179" y="-7.5" font-family="Helvetica,sans-Serif" font-size="10.00">functional</text>
</a>
</g>
</g>
<!-- Node23&#45;&gt;Node31 -->
<g id="edge35" class="edge">
<title>Node23&#45;&gt;Node31</title>
<path fill="none" stroke="midnightblue" d="M1073.02,-171.87C1150.87,-163.21 1297.99,-145.36 1318,-132 1342.21,-115.83 1344.15,-104.04 1352,-76 1367.38,-21.02 1277.81,-11.07 1221.75,-10.11"/>
<polygon fill="midnightblue" stroke="midnightblue" points="1221.73,-6.61 1211.7,-10.03 1221.68,-13.61 1221.73,-6.61"/>
</g>
<!-- Node32 -->
<g id="node32" class="node">
<title>Node32</title>
<g id="a_node32"><a xlink:href="FontAttribs_8h_source.html" target="_top" xlink:title=" ">
<polygon fill="white" stroke="black" points="678.5,-112.5 678.5,-131.5 757.5,-131.5 757.5,-112.5 678.5,-112.5"/>
<text text-anchor="middle" x="718" y="-119.5" font-family="Helvetica,sans-Serif" font-size="10.00">FontAttribs.h</text>
</a>
</g>
</g>
<!-- Node23&#45;&gt;Node32 -->
<g id="edge36" class="edge">
<title>Node23&#45;&gt;Node32</title>
<path fill="none" stroke="midnightblue" d="M976.95,-168.75C927.25,-160.19 847.09,-146.3 767.75,-132.12"/>
<polygon fill="midnightblue" stroke="midnightblue" points="768.04,-128.62 757.57,-130.3 766.8,-135.51 768.04,-128.62"/>
</g>
<!-- Node40 -->
<g id="node40" class="node">
<title>Node40</title>
<g id="a_node40"><a xlink:href="FontVariantCache_8h.html" target="_top" xlink:title="This file implements the wxFont cache system.">
<polygon fill="white" stroke="black" points="1198.5,-112.5 1198.5,-131.5 1309.5,-131.5 1309.5,-112.5 1198.5,-112.5"/>
<text text-anchor="middle" x="1254" y="-119.5" font-family="Helvetica,sans-Serif" font-size="10.00">FontVariantCache.h</text>
</a>
</g>
</g>
<!-- Node23&#45;&gt;Node40 -->
<g id="edge49" class="edge">
<title>Node23&#45;&gt;Node40</title>
<path fill="none" stroke="midnightblue" d="M1061.29,-168.44C1100.98,-159.08 1164.71,-144.06 1207.91,-133.87"/>
<polygon fill="midnightblue" stroke="midnightblue" points="1208.95,-137.22 1217.88,-131.52 1207.35,-130.41 1208.95,-137.22"/>
</g>
<!-- Node23&#45;&gt;Node43 -->
<g id="edge57" class="edge">
<title>Node23&#45;&gt;Node43</title>
<path fill="none" stroke="midnightblue" d="M1073.09,-171.95C1168.98,-161.76 1376.03,-139.09 1390,-132 1411.48,-121.09 1429.4,-99.41 1440.14,-84.09"/>
<polygon fill="midnightblue" stroke="midnightblue" points="1443.21,-85.79 1445.87,-75.53 1437.4,-81.9 1443.21,-85.79"/>
</g>
<!-- Node32&#45;&gt;Node3 -->
<g id="edge45" class="edge">
<title>Node32&#45;&gt;Node3</title>
<path fill="none" stroke="midnightblue" d="M678.37,-117.46C569.81,-107.75 268.28,-80.79 156.45,-70.8"/>
<polygon fill="midnightblue" stroke="midnightblue" points="156.51,-67.29 146.23,-69.88 155.88,-74.26 156.51,-67.29"/>
</g>
<!-- Node32&#45;&gt;Node28 -->
<g id="edge43" class="edge">
<title>Node32&#45;&gt;Node28</title>
<path fill="none" stroke="midnightblue" d="M757.54,-113.51C760.74,-112.97 763.92,-112.46 767,-112 903.73,-91.5 938.71,-92.35 1076,-76 1086.62,-74.74 1098.08,-73.35 1108.75,-72.05"/>
<polygon fill="midnightblue" stroke="midnightblue" points="1109.18,-75.53 1118.68,-70.84 1108.33,-68.58 1109.18,-75.53"/>
</g>
<!-- Node32&#45;&gt;Node30 -->
<g id="edge46" class="edge">
<title>Node32&#45;&gt;Node30</title>
<path fill="none" stroke="midnightblue" d="M692.96,-112.44C666.38,-103.36 624.19,-88.94 594.48,-78.78"/>
<polygon fill="midnightblue" stroke="midnightblue" points="595.51,-75.44 584.92,-75.52 593.25,-82.06 595.51,-75.44"/>
</g>
<!-- Node32&#45;&gt;Node31 -->
<g id="edge47" class="edge">
<title>Node32&#45;&gt;Node31</title>
<path fill="none" stroke="midnightblue" d="M757.55,-113.56C760.74,-113.01 763.92,-112.48 767,-112 888.77,-92.86 923.76,-110.84 1042,-76 1084.06,-63.61 1129.38,-39.83 1155.91,-24.72"/>
<polygon fill="midnightblue" stroke="midnightblue" points="1157.89,-27.62 1164.8,-19.59 1154.39,-21.56 1157.89,-27.62"/>
</g>
<!-- Node33 -->
<g id="node33" class="node">
<title>Node33</title>
<g id="a_node33"><a xlink:href="EnumWrapper_8h_source.html" target="_top" xlink:title=" ">
<polygon fill="white" stroke="black" points="939,-56.5 939,-75.5 1033,-75.5 1033,-56.5 939,-56.5"/>
<text text-anchor="middle" x="986" y="-63.5" font-family="Helvetica,sans-Serif" font-size="10.00">EnumWrapper.h</text>
</a>
</g>
</g>
<!-- Node32&#45;&gt;Node33 -->
<g id="edge37" class="edge">
<title>Node32&#45;&gt;Node33</title>
<path fill="none" stroke="midnightblue" d="M757.54,-113.03C804.23,-103.63 882.03,-87.95 933.67,-77.54"/>
<polygon fill="midnightblue" stroke="midnightblue" points="934.52,-80.94 943.64,-75.54 933.14,-74.08 934.52,-80.94"/>
</g>
<!-- Node36 -->
<g id="node36" class="node">
<title>Node36</title>
<g id="a_node36"><a xlink:href="clamp_8hpp_source.html" target="_top" xlink:title=" ">
<polygon fill="white" stroke="black" points="603,-56.5 603,-75.5 689,-75.5 689,-56.5 603,-56.5"/>
<text text-anchor="middle" x="646" y="-63.5" font-family="Helvetica,sans-Serif" font-size="10.00">stx/clamp.hpp</text>
</a>
</g>
</g>
<!-- Node32&#45;&gt;Node36 -->
<g id="edge41" class="edge">
<title>Node32&#45;&gt;Node36</title>
<path fill="none" stroke="midnightblue" d="M706.43,-112.32C695.58,-104.18 679.12,-91.84 666.12,-82.09"/>
<polygon fill="midnightblue" stroke="midnightblue" points="667.88,-79.03 657.78,-75.83 663.68,-84.63 667.88,-79.03"/>
</g>
<!-- Node38 -->
<g id="node38" class="node">
<title>Node38</title>
<g id="a_node38"><a xlink:title=" ">
<polygon fill="white" stroke="#bfbfbf" points="707.5,-56.5 707.5,-75.5 786.5,-75.5 786.5,-56.5 707.5,-56.5"/>
<text text-anchor="middle" x="747" y="-63.5" font-family="Helvetica,sans-Serif" font-size="10.00">wx/version.h</text>
</a>
</g>
</g>
<!-- Node32&#45;&gt;Node38 -->
<g id="edge44" class="edge">
<title>Node32&#45;&gt;Node38</title>
<path fill="none" stroke="midnightblue" d="M722.79,-112.08C726.76,-104.69 732.53,-93.95 737.43,-84.81"/>
<polygon fill="midnightblue" stroke="midnightblue" points="740.65,-86.22 742.3,-75.75 734.49,-82.91 740.65,-86.22"/>
</g>
<!-- Node39 -->
<g id="node39" class="node">
<title>Node39</title>
<g id="a_node39"><a xlink:title=" ">
<polygon fill="white" stroke="#bfbfbf" points="804,-56.5 804,-75.5 848,-75.5 848,-56.5 804,-56.5"/>
<text text-anchor="middle" x="826" y="-63.5" font-family="Helvetica,sans-Serif" font-size="10.00">limits</text>
</a>
</g>
</g>
<!-- Node32&#45;&gt;Node39 -->
<g id="edge48" class="edge">
<title>Node32&#45;&gt;Node39</title>
<path fill="none" stroke="midnightblue" d="M735.35,-112.32C752.67,-103.66 779.52,-90.24 799.5,-80.25"/>
<polygon fill="midnightblue" stroke="midnightblue" points="801.31,-83.26 808.69,-75.65 798.18,-77 801.31,-83.26"/>
</g>
<!-- Node33&#45;&gt;Node31 -->
<g id="edge39" class="edge">
<title>Node33&#45;&gt;Node31</title>
<path fill="none" stroke="midnightblue" d="M1016.58,-56.44C1049.61,-47.2 1102.39,-32.44 1138.77,-22.26"/>
<polygon fill="midnightblue" stroke="midnightblue" points="1139.87,-25.58 1148.56,-19.52 1137.99,-18.84 1139.87,-25.58"/>
</g>
<!-- Node34 -->
<g id="node34" class="node">
<title>Node34</title>
<g id="a_node34"><a xlink:title=" ">
<polygon fill="white" stroke="#bfbfbf" points="988.5,-0.5 988.5,-19.5 1041.5,-19.5 1041.5,-0.5 988.5,-0.5"/>
<text text-anchor="middle" x="1015" y="-7.5" font-family="Helvetica,sans-Serif" font-size="10.00">cstddef</text>
</a>
</g>
</g>
<!-- Node33&#45;&gt;Node34 -->
<g id="edge38" class="edge">
<title>Node33&#45;&gt;Node34</title>
<path fill="none" stroke="midnightblue" d="M990.79,-56.08C994.76,-48.69 1000.53,-37.95 1005.43,-28.81"/>
<polygon fill="midnightblue" stroke="midnightblue" points="1008.65,-30.22 1010.3,-19.75 1002.49,-26.91 1008.65,-30.22"/>
</g>
<!-- Node35 -->
<g id="node35" class="node">
<title>Node35</title>
<g id="a_node35"><a xlink:title=" ">
<polygon fill="white" stroke="#bfbfbf" points="901.5,-0.5 901.5,-19.5 970.5,-19.5 970.5,-0.5 901.5,-0.5"/>
<text text-anchor="middle" x="936" y="-7.5" font-family="Helvetica,sans-Serif" font-size="10.00">type_traits</text>
</a>
</g>
</g>
<!-- Node33&#45;&gt;Node35 -->
<g id="edge40" class="edge">
<title>Node33&#45;&gt;Node35</title>
<path fill="none" stroke="midnightblue" d="M977.74,-56.08C970.54,-48.3 959.89,-36.8 951.15,-27.37"/>
<polygon fill="midnightblue" stroke="midnightblue" points="953.47,-24.71 944.1,-19.75 948.33,-29.47 953.47,-24.71"/>
</g>
<!-- Node37 -->
<g id="node37" class="node">
<title>Node37</title>
<g id="a_node37"><a xlink:title=" ">
<polygon fill="white" stroke="#bfbfbf" points="620,-0.5 620,-19.5 672,-19.5 672,-0.5 620,-0.5"/>
<text text-anchor="middle" x="646" y="-7.5" font-family="Helvetica,sans-Serif" font-size="10.00">cassert</text>
</a>
</g>
</g>
<!-- Node36&#45;&gt;Node37 -->
<g id="edge42" class="edge">
<title>Node36&#45;&gt;Node37</title>
<path fill="none" stroke="midnightblue" d="M646,-56.08C646,-49.01 646,-38.86 646,-29.99"/>
<polygon fill="midnightblue" stroke="midnightblue" points="649.5,-29.75 646,-19.75 642.5,-29.75 649.5,-29.75"/>
</g>
<!-- Node40&#45;&gt;Node4 -->
<g id="edge51" class="edge">
<title>Node40&#45;&gt;Node4</title>
<path fill="none" stroke="midnightblue" d="M1306.98,-112.47C1356.08,-104.37 1431.38,-91.43 1505.95,-76.12"/>
<polygon fill="midnightblue" stroke="midnightblue" points="1506.91,-79.5 1515.99,-74.05 1505.49,-72.65 1506.91,-79.5"/>
</g>
<!-- Node40&#45;&gt;Node15 -->
<g id="edge50" class="edge">
<title>Node40&#45;&gt;Node15</title>
<path fill="none" stroke="midnightblue" d="M1198.44,-115.78C1183.08,-114.43 1166.4,-113.07 1151,-112 831.48,-89.87 445.91,-73.81 316.66,-68.72"/>
<polygon fill="midnightblue" stroke="midnightblue" points="316.5,-65.21 306.37,-68.31 316.23,-72.2 316.5,-65.21"/>
</g>
<!-- Node40&#45;&gt;Node28 -->
<g id="edge52" class="edge">
<title>Node40&#45;&gt;Node28</title>
<path fill="none" stroke="midnightblue" d="M1237.29,-112.32C1220.69,-103.7 1195,-90.36 1175.78,-80.39"/>
<polygon fill="midnightblue" stroke="midnightblue" points="1177.16,-77.16 1166.67,-75.65 1173.93,-83.37 1177.16,-77.16"/>
</g>
<!-- Node40&#45;&gt;Node31 -->
<g id="edge53" class="edge">
<title>Node40&#45;&gt;Node31</title>
<path fill="none" stroke="midnightblue" d="M1248.11,-112.37C1235.74,-94.22 1206.82,-51.8 1190.58,-27.99"/>
<polygon fill="midnightblue" stroke="midnightblue" points="1193.38,-25.88 1184.86,-19.59 1187.6,-29.83 1193.38,-25.88"/>
</g>
<!-- Node40&#45;&gt;Node41 -->
<g id="edge54" class="edge">
<title>Node40&#45;&gt;Node41</title>
<path fill="none" stroke="midnightblue" d="M1265.73,-112.32C1276.84,-104.11 1293.74,-91.6 1306.98,-81.81"/>
<polygon fill="midnightblue" stroke="midnightblue" points="1309.1,-84.59 1315.06,-75.83 1304.94,-78.97 1309.1,-84.59"/>
</g>
<!-- Node42 -->
<g id="node42" class="node">
<title>Node42</title>
<g id="a_node42"><a xlink:title=" ">
<polygon fill="white" stroke="#bfbfbf" points="1237.5,-56.5 1237.5,-75.5 1282.5,-75.5 1282.5,-56.5 1237.5,-56.5"/>
<text text-anchor="middle" x="1260" y="-63.5" font-family="Helvetica,sans-Serif" font-size="10.00">utility</text>
</a>
</g>
</g>
<!-- Node40&#45;&gt;Node42 -->
<g id="edge55" class="edge">
<title>Node40&#45;&gt;Node42</title>
<path fill="none" stroke="midnightblue" d="M1254.99,-112.08C1255.79,-104.93 1256.93,-94.64 1257.92,-85.69"/>
<polygon fill="midnightblue" stroke="midnightblue" points="1261.4,-86.08 1259.03,-75.75 1254.44,-85.3 1261.4,-86.08"/>
</g>
<!-- Node40&#45;&gt;Node43 -->
<g id="edge56" class="edge">
<title>Node40&#45;&gt;Node43</title>
<path fill="none" stroke="midnightblue" d="M1285.22,-112.44C1318.93,-103.2 1372.8,-88.44 1409.93,-78.26"/>
<polygon fill="midnightblue" stroke="midnightblue" points="1411.21,-81.54 1419.93,-75.52 1409.36,-74.78 1411.21,-81.54"/>
</g>
</g>
</svg>
