<?xml version="1.0" encoding="UTF-8" standalone="no"?>
<!DOCTYPE svg PUBLIC "-//W3C//DTD SVG 1.1//EN"
 "http://www.w3.org/Graphics/SVG/1.1/DTD/svg11.dtd">
<!-- Generated by graphviz version 2.43.0 (0)
 -->
<!-- Title: src/AutocompletePopup.h Pages: 1 -->
<!--zoomable 313 -->
<svg id="main" version="1.1" xmlns="http://www.w3.org/2000/svg" xmlns:xlink="http://www.w3.org/1999/xlink" xml:space="preserve" onload="init(evt)">
<style type="text/css"><![CDATA[
.edge:hover path { stroke: red; }
.edge:hover polygon { stroke: red; fill: red; }
]]></style>
<script type="text/javascript"><![CDATA[
var edges = document.getElementsByTagName('g');
if (edges && edges.length) {
  for (var i=0;i<edges.length;i++) {
    if (edges[i].id.substr(0,4)=='edge') {
      edges[i].setAttribute('class','edge');
    }
  }
}
]]></script>
        <defs>
                <circle id="rim" cx="0" cy="0" r="7"/>
                <circle id="rim2" cx="0" cy="0" r="3.5"/>
                <g id="zoomPlus">
                        <use xlink:href="#rim" fill="#404040">
                                <set attributeName="fill" to="#808080" begin="zoomplus.mouseover" end="zoomplus.mouseout"/>
                        </use>
                        <path d="M-4,0h8M0,-4v8" fill="none" stroke="white" stroke-width="1.5" pointer-events="none"/>
                </g>
                <g id="zoomMin">
                        <use xlink:href="#rim" fill="#404040">
                                <set attributeName="fill" to="#808080" begin="zoomminus.mouseover" end="zoomminus.mouseout"/>
                        </use>
                        <path d="M-4,0h8" fill="none" stroke="white" stroke-width="1.5" pointer-events="none"/>
                </g>
                <g id="dirArrow">
                        <path fill="none" stroke="white" stroke-width="1.5" d="M0,-3.0v7 M-2.5,-0.5L0,-3.0L2.5,-0.5"/>
                </g>
               <g id="resetDef">
                       <use xlink:href="#rim2" fill="#404040">
                               <set attributeName="fill" to="#808080" begin="reset.mouseover" end="reset.mouseout"/>
                       </use>
               </g>
        </defs>

<script type="text/javascript">
var viewWidth = 1635;
var viewHeight = 313;
var sectionId = 'dynsection-1';
</script>
<script xlink:href="svgpan.js"/>
<svg id="graph" class="graph">
<g id="viewport">
<title>src/AutocompletePopup.h</title>
<!-- Node1 -->
<g id="node1" class="node">
<title>Node1</title>
<g id="a_node1"><a xlink:title="The first number that is open for dynamic ID assignment.">
<polygon fill="#999999" stroke="#666666" points="416.67,-305 275.67,-305 275.67,-286 416.67,-286 416.67,-305"/>
<text text-anchor="middle" x="346.17" y="-293" font-family="Helvetica,sans-Serif" font-size="10.00">src/AutocompletePopup.h</text>
</a>
</g>
</g>
<!-- Node2 -->
<g id="node2" class="node">
<title>Node2</title>
<g id="a_node2"><a xlink:href="AutocompletePopup_8cpp.html" target="_top" xlink:title="This file defines the class AutocompletePopup.">
<polygon fill="white" stroke="#666666" points="698.17,-129 546.17,-129 546.17,-110 698.17,-110 698.17,-129"/>
<text text-anchor="middle" x="622.17" y="-117" font-family="Helvetica,sans-Serif" font-size="10.00">src/AutocompletePopup.cpp</text>
</a>
</g>
</g>
<!-- Node1&#45;&gt;Node2 -->
<g id="edge1" class="edge">
<title>Node1&#45;&gt;Node2</title>
<path fill="none" stroke="#63b8ff" d="M265.23,-289.23C144.72,-278.57 -59.86,-247.91 17.17,-165 52.46,-127.03 391.29,-121.14 545.91,-120.45"/>
<polygon fill="#63b8ff" stroke="#63b8ff" points="265.29,-292.75 275.55,-290.11 265.88,-285.77 265.29,-292.75"/>
</g>
<!-- Node3 -->
<g id="node3" class="node">
<title>Node3</title>
<g id="a_node3"><a xlink:href="Worksheet_8h.html" target="_top" xlink:title="This file defines the class Worksheet.">
<polygon fill="white" stroke="#666666" points="816.67,-250 721.67,-250 721.67,-231 816.67,-231 816.67,-250"/>
<text text-anchor="middle" x="769.17" y="-238" font-family="Helvetica,sans-Serif" font-size="10.00">src/Worksheet.h</text>
</a>
</g>
</g>
<!-- Node1&#45;&gt;Node3 -->
<g id="edge2" class="edge">
<title>Node1&#45;&gt;Node3</title>
<path fill="none" stroke="#63b8ff" d="M424.22,-284.72C511.22,-273.82 649.15,-256.54 721.42,-247.48"/>
<polygon fill="#63b8ff" stroke="#63b8ff" points="423.62,-281.27 414.14,-285.98 424.49,-288.21 423.62,-281.27"/>
</g>
<!-- Node4 -->
<g id="node4" class="node">
<title>Node4</title>
<g id="a_node4"><a xlink:href="Worksheet_8cpp.html" target="_top" xlink:title="This file defines the class Worksheet.">
<polygon fill="white" stroke="#666666" points="999.17,-74 893.17,-74 893.17,-55 999.17,-55 999.17,-74"/>
<text text-anchor="middle" x="946.17" y="-62" font-family="Helvetica,sans-Serif" font-size="10.00">src/Worksheet.cpp</text>
</a>
</g>
</g>
<!-- Node3&#45;&gt;Node4 -->
<g id="edge3" class="edge">
<title>Node3&#45;&gt;Node4</title>
<path fill="none" stroke="#63b8ff" d="M711.18,-238.05C595.12,-234.54 343.16,-223.68 317.17,-195 308.22,-185.12 308.97,-175.51 317.17,-165 387.51,-74.92 754.5,-65.44 893.1,-65.13"/>
<polygon fill="#63b8ff" stroke="#63b8ff" points="711.21,-241.55 721.3,-238.35 711.41,-234.55 711.21,-241.55"/>
</g>
<!-- Node5 -->
<g id="node5" class="node">
<title>Node5</title>
<g id="a_node5"><a xlink:href="Cell_8cpp.html" target="_top" xlink:title="Core layout and rendering logic for worksheet cells.">
<polygon fill="white" stroke="#666666" points="124.17,-189.5 26.17,-189.5 26.17,-170.5 124.17,-170.5 124.17,-189.5"/>
<text text-anchor="middle" x="75.17" y="-177.5" font-family="Helvetica,sans-Serif" font-size="10.00">src/cells/Cell.cpp</text>
</a>
</g>
</g>
<!-- Node3&#45;&gt;Node5 -->
<g id="edge4" class="edge">
<title>Node3&#45;&gt;Node5</title>
<path fill="none" stroke="#63b8ff" d="M711.32,-238.68C599.14,-236.37 344.53,-227.67 133.17,-195 124.37,-193.64 114.94,-191.61 106.29,-189.52"/>
<polygon fill="#63b8ff" stroke="#63b8ff" points="711.33,-242.18 721.4,-238.88 711.47,-235.18 711.33,-242.18"/>
</g>
<!-- Node6 -->
<g id="node6" class="node">
<title>Node6</title>
<g id="a_node6"><a xlink:href="GroupCell_8cpp.html" target="_top" xlink:title="This file defines the class GroupCell.">
<polygon fill="white" stroke="#666666" points="270.17,-189.5 142.17,-189.5 142.17,-170.5 270.17,-170.5 270.17,-189.5"/>
<text text-anchor="middle" x="206.17" y="-177.5" font-family="Helvetica,sans-Serif" font-size="10.00">src/cells/GroupCell.cpp</text>
</a>
</g>
</g>
<!-- Node3&#45;&gt;Node6 -->
<g id="edge5" class="edge">
<title>Node3&#45;&gt;Node6</title>
<path fill="none" stroke="#63b8ff" d="M711.4,-235.82C620.32,-229.64 437.87,-215.81 284.17,-195 272.99,-193.49 260.97,-191.51 249.8,-189.51"/>
<polygon fill="#63b8ff" stroke="#63b8ff" points="711.31,-239.32 721.52,-236.49 711.78,-232.33 711.31,-239.32"/>
</g>
<!-- Node7 -->
<g id="node7" class="node">
<title>Node7</title>
<g id="a_node7"><a xlink:href="ConfigDialogue_8h.html" target="_top" xlink:title="The configuration dialog.">
<polygon fill="white" stroke="#666666" points="1479.67,-74 1324.67,-74 1324.67,-55 1479.67,-55 1479.67,-74"/>
<text text-anchor="middle" x="1402.17" y="-62" font-family="Helvetica,sans-Serif" font-size="10.00">src/dialogs/ConfigDialogue.h</text>
</a>
</g>
</g>
<!-- Node3&#45;&gt;Node7 -->
<g id="edge6" class="edge">
<title>Node3&#45;&gt;Node7</title>
<path fill="none" stroke="#63b8ff" d="M827.31,-239.43C984.87,-238.72 1411.54,-233.25 1461.17,-195 1492.08,-171.18 1503.04,-143.59 1483.17,-110 1472.47,-91.91 1451.51,-80.68 1433.6,-74.03"/>
<polygon fill="#63b8ff" stroke="#63b8ff" points="826.87,-235.93 816.89,-239.47 826.9,-242.93 826.87,-235.93"/>
</g>
<!-- Node10 -->
<g id="node10" class="node">
<title>Node10</title>
<g id="a_node10"><a xlink:href="DiffFrame_8h_source.html" target="_top" xlink:title=" ">
<polygon fill="white" stroke="#666666" points="1626.67,-74 1497.67,-74 1497.67,-55 1626.67,-55 1626.67,-74"/>
<text text-anchor="middle" x="1562.17" y="-62" font-family="Helvetica,sans-Serif" font-size="10.00">src/dialogs/DiffFrame.h</text>
</a>
</g>
</g>
<!-- Node3&#45;&gt;Node10 -->
<g id="edge9" class="edge">
<title>Node3&#45;&gt;Node10</title>
<path fill="none" stroke="#63b8ff" d="M827.01,-239.05C987.9,-237.35 1432.65,-229.56 1488.17,-195 1534.12,-166.4 1554.37,-98.19 1560.25,-74.1"/>
<polygon fill="#63b8ff" stroke="#63b8ff" points="826.79,-235.55 816.82,-239.15 826.86,-242.55 826.79,-235.55"/>
</g>
<!-- Node11 -->
<g id="node11" class="node">
<title>Node11</title>
<g id="a_node11"><a xlink:href="Printout_8cpp.html" target="_top" xlink:title="This file defines the class MathPrintOut.">
<polygon fill="white" stroke="#666666" points="481.67,-189.5 326.67,-189.5 326.67,-170.5 481.67,-170.5 481.67,-189.5"/>
<text text-anchor="middle" x="404.17" y="-177.5" font-family="Helvetica,sans-Serif" font-size="10.00">src/graphical_io/Printout.cpp</text>
</a>
</g>
</g>
<!-- Node3&#45;&gt;Node11 -->
<g id="edge12" class="edge">
<title>Node3&#45;&gt;Node11</title>
<path fill="none" stroke="#63b8ff" d="M711.33,-230.26C655.1,-221.26 567.27,-207.21 491.17,-195 480.15,-193.23 468.33,-191.33 457.08,-189.52"/>
<polygon fill="#63b8ff" stroke="#63b8ff" points="711.03,-233.75 721.46,-231.87 712.13,-226.84 711.03,-233.75"/>
</g>
<!-- Node12 -->
<g id="node12" class="node">
<title>Node12</title>
<g id="a_node12"><a xlink:href="wxMaximaFrame_8h.html" target="_top" xlink:title="This file declares the class wxMaximaFrame.">
<polygon fill="white" stroke="#666666" points="1452.17,-189.5 1324.17,-189.5 1324.17,-170.5 1452.17,-170.5 1452.17,-189.5"/>
<text text-anchor="middle" x="1388.17" y="-177.5" font-family="Helvetica,sans-Serif" font-size="10.00">src/wxMaximaFrame.h</text>
</a>
</g>
</g>
<!-- Node3&#45;&gt;Node12 -->
<g id="edge13" class="edge">
<title>Node3&#45;&gt;Node12</title>
<path fill="none" stroke="#63b8ff" d="M827.02,-236.85C926.93,-231.8 1138.15,-219.12 1315.17,-195 1325.79,-193.55 1337.19,-191.57 1347.76,-189.56"/>
<polygon fill="#63b8ff" stroke="#63b8ff" points="826.65,-233.36 816.83,-237.35 826.99,-240.35 826.65,-233.36"/>
</g>
<!-- Node19 -->
<g id="node19" class="node">
<title>Node19</title>
<g id="a_node19"><a xlink:href="test__Accessibility_8cpp.html" target="_top" xlink:title="Logic&#45;level regression tests for wxMaxima&#39;s custom wxAccessible classes.">
<polygon fill="white" stroke="#666666" points="608.17,-195 500.17,-195 500.17,-165 608.17,-165 608.17,-195"/>
<text text-anchor="start" x="508.17" y="-183" font-family="Helvetica,sans-Serif" font-size="10.00">test/unit_tests/test</text>
<text text-anchor="middle" x="554.17" y="-172" font-family="Helvetica,sans-Serif" font-size="10.00">_Accessibility.cpp</text>
</a>
</g>
</g>
<!-- Node3&#45;&gt;Node19 -->
<g id="edge29" class="edge">
<title>Node3&#45;&gt;Node19</title>
<path fill="none" stroke="#63b8ff" d="M728.09,-228.32C693.33,-218.86 643.34,-205.26 605.86,-195.06"/>
<polygon fill="#63b8ff" stroke="#63b8ff" points="727.34,-231.75 737.91,-230.99 729.18,-224.99 727.34,-231.75"/>
</g>
<!-- Node20 -->
<g id="node20" class="node">
<title>Node20</title>
<g id="a_node20"><a xlink:href="test__EditorCellInvariants_8cpp.html" target="_top" xlink:title="Hardening tests for EditorCell&#39;s text&#45;editing core.">
<polygon fill="white" stroke="#666666" points="764.17,-195 626.17,-195 626.17,-165 764.17,-165 764.17,-195"/>
<text text-anchor="start" x="634.17" y="-183" font-family="Helvetica,sans-Serif" font-size="10.00">test/unit_tests/test</text>
<text text-anchor="middle" x="695.17" y="-172" font-family="Helvetica,sans-Serif" font-size="10.00">_EditorCellInvariants.cpp</text>
</a>
</g>
</g>
<!-- Node3&#45;&gt;Node20 -->
<g id="edge30" class="edge">
<title>Node3&#45;&gt;Node20</title>
<path fill="none" stroke="#63b8ff" d="M750.2,-224.5C738.76,-215.45 724.27,-204 713.03,-195.11"/>
<polygon fill="#63b8ff" stroke="#63b8ff" points="748.24,-227.41 758.25,-230.87 752.58,-221.92 748.24,-227.41"/>
</g>
<!-- Node21 -->
<g id="node21" class="node">
<title>Node21</title>
<g id="a_node21"><a xlink:href="test__GroupCellLayout_8cpp.html" target="_top" xlink:title="Regression tests for the GroupCell &lt;&#45;&gt; EditorCell layout coupling.">
<polygon fill="white" stroke="#666666" points="905.67,-195 782.67,-195 782.67,-165 905.67,-165 905.67,-195"/>
<text text-anchor="start" x="790.67" y="-183" font-family="Helvetica,sans-Serif" font-size="10.00">test/unit_tests/test</text>
<text text-anchor="middle" x="844.17" y="-172" font-family="Helvetica,sans-Serif" font-size="10.00">_GroupCellLayout.cpp</text>
</a>
</g>
</g>
<!-- Node3&#45;&gt;Node21 -->
<g id="edge31" class="edge">
<title>Node3&#45;&gt;Node21</title>
<path fill="none" stroke="#63b8ff" d="M788.4,-224.5C800,-215.45 814.69,-204 826.08,-195.11"/>
<polygon fill="#63b8ff" stroke="#63b8ff" points="785.97,-221.96 780.24,-230.87 790.28,-227.48 785.97,-221.96"/>
</g>
<!-- Node22 -->
<g id="node22" class="node">
<title>Node22</title>
<g id="a_node22"><a xlink:href="test__TreeUndo_8cpp.html" target="_top" xlink:title="Regression tests for the worksheet&#39;s cell&#45;tree undo/redo (the TreeUndo_* subsystem of Worksheet).">
<polygon fill="white" stroke="#666666" points="1032.17,-195 924.17,-195 924.17,-165 1032.17,-165 1032.17,-195"/>
<text text-anchor="start" x="932.17" y="-183" font-family="Helvetica,sans-Serif" font-size="10.00">test/unit_tests/test</text>
<text text-anchor="middle" x="978.17" y="-172" font-family="Helvetica,sans-Serif" font-size="10.00">_TreeUndo.cpp</text>
</a>
</g>
</g>
<!-- Node3&#45;&gt;Node22 -->
<g id="edge32" class="edge">
<title>Node3&#45;&gt;Node22</title>
<path fill="none" stroke="#63b8ff" d="M809.55,-228.2C843.32,-218.75 891.66,-205.22 927.93,-195.06"/>
<polygon fill="#63b8ff" stroke="#63b8ff" points="808.25,-224.93 799.56,-230.99 810.14,-231.67 808.25,-224.93"/>
</g>
<!-- Node23 -->
<g id="node23" class="node">
<title>Node23</title>
<g id="a_node23"><a xlink:href="test__WXMRoundtrip_8cpp.html" target="_top" xlink:title="Regression tests for images surviving the .wxm serialization round&#45;trip.">
<polygon fill="white" stroke="#666666" points="1165.67,-195 1050.67,-195 1050.67,-165 1165.67,-165 1165.67,-195"/>
<text text-anchor="start" x="1058.67" y="-183" font-family="Helvetica,sans-Serif" font-size="10.00">test/unit_tests/test</text>
<text text-anchor="middle" x="1108.17" y="-172" font-family="Helvetica,sans-Serif" font-size="10.00">_WXMRoundtrip.cpp</text>
</a>
</g>
</g>
<!-- Node3&#45;&gt;Node23 -->
<g id="edge33" class="edge">
<title>Node3&#45;&gt;Node23</title>
<path fill="none" stroke="#63b8ff" d="M826.88,-230.81C882.03,-222.33 967.44,-208.73 1041.17,-195 1044.21,-194.43 1047.32,-193.84 1050.46,-193.23"/>
<polygon fill="#63b8ff" stroke="#63b8ff" points="826.3,-227.36 816.94,-232.33 827.36,-234.28 826.3,-227.36"/>
</g>
<!-- Node24 -->
<g id="node24" class="node">
<title>Node24</title>
<g id="a_node24"><a xlink:href="test__WXMXRoundtrip_8cpp.html" target="_top" xlink:title="Round&#45;trip tests for the .wxmx content.xml (the MathML&#45;like math format).">
<polygon fill="white" stroke="#666666" points="1306.17,-195 1184.17,-195 1184.17,-165 1306.17,-165 1306.17,-195"/>
<text text-anchor="start" x="1192.17" y="-183" font-family="Helvetica,sans-Serif" font-size="10.00">test/unit_tests/test</text>
<text text-anchor="middle" x="1245.17" y="-172" font-family="Helvetica,sans-Serif" font-size="10.00">_WXMXRoundtrip.cpp</text>
</a>
</g>
</g>
<!-- Node3&#45;&gt;Node24 -->
<g id="edge34" class="edge">
<title>Node3&#45;&gt;Node24</title>
<path fill="none" stroke="#63b8ff" d="M826.93,-234.71C905.68,-227.83 1051.05,-213.87 1174.17,-195 1177.4,-194.51 1180.71,-193.97 1184.04,-193.4"/>
<polygon fill="#63b8ff" stroke="#63b8ff" points="826.39,-231.25 816.73,-235.6 827,-238.22 826.39,-231.25"/>
</g>
<!-- Node8 -->
<g id="node8" class="node">
<title>Node8</title>
<g id="a_node8"><a xlink:href="main_8cpp.html" target="_top" xlink:title="The file that defines the starting point of the program.">
<polygon fill="white" stroke="#666666" points="1271.67,-19 1192.67,-19 1192.67,0 1271.67,0 1271.67,-19"/>
<text text-anchor="middle" x="1232.17" y="-7" font-family="Helvetica,sans-Serif" font-size="10.00">src/main.cpp</text>
</a>
</g>
</g>
<!-- Node7&#45;&gt;Node8 -->
<g id="edge7" class="edge">
<title>Node7&#45;&gt;Node8</title>
<path fill="none" stroke="#63b8ff" d="M1365.05,-51.93C1333.3,-42.03 1288.32,-28.01 1259.7,-19.08"/>
<polygon fill="#63b8ff" stroke="#63b8ff" points="1364.27,-55.35 1374.86,-54.98 1366.35,-48.67 1364.27,-55.35"/>
</g>
<!-- Node9 -->
<g id="node9" class="node">
<title>Node9</title>
<g id="a_node9"><a xlink:href="wxMaxima_8cpp.html" target="_top" xlink:title="This file defines the contents of the class wxMaxima that contains most of the program&#39;s logic.">
<polygon fill="white" stroke="#666666" points="1427.17,-19 1319.17,-19 1319.17,0 1427.17,0 1427.17,-19"/>
<text text-anchor="middle" x="1373.17" y="-7" font-family="Helvetica,sans-Serif" font-size="10.00">src/wxMaxima.cpp</text>
</a>
</g>
</g>
<!-- Node7&#45;&gt;Node9 -->
<g id="edge8" class="edge">
<title>Node7&#45;&gt;Node9</title>
<path fill="none" stroke="#63b8ff" d="M1392.5,-45.82C1387.58,-36.82 1381.82,-26.29 1377.87,-19.09"/>
<polygon fill="#63b8ff" stroke="#63b8ff" points="1389.51,-47.66 1397.38,-54.75 1395.65,-44.3 1389.51,-47.66"/>
</g>
<!-- Node10&#45;&gt;Node8 -->
<g id="edge10" class="edge">
<title>Node10&#45;&gt;Node8</title>
<path fill="none" stroke="#63b8ff" d="M1499.15,-53.38C1432.24,-42.63 1328.54,-25.98 1272.09,-16.91"/>
<polygon fill="#63b8ff" stroke="#63b8ff" points="1498.72,-56.85 1509.15,-54.98 1499.83,-49.94 1498.72,-56.85"/>
</g>
<!-- Node10&#45;&gt;Node9 -->
<g id="edge11" class="edge">
<title>Node10&#45;&gt;Node9</title>
<path fill="none" stroke="#63b8ff" d="M1521.82,-52.18C1486.47,-42.27 1435.88,-28.08 1403.78,-19.08"/>
<polygon fill="#63b8ff" stroke="#63b8ff" points="1521.23,-55.65 1531.81,-54.98 1523.12,-48.91 1521.23,-55.65"/>
</g>
<!-- Node12&#45;&gt;Node2 -->
<g id="edge14" class="edge">
<title>Node12&#45;&gt;Node2</title>
<path fill="none" stroke="#63b8ff" d="M1338.48,-168.61C1330.7,-167.23 1322.74,-165.96 1315.17,-165 1092.13,-136.57 826.27,-125.94 698.35,-122.27"/>
<polygon fill="#63b8ff" stroke="#63b8ff" points="1338.07,-172.09 1348.54,-170.46 1339.34,-165.21 1338.07,-172.09"/>
</g>
<!-- Node12&#45;&gt;Node4 -->
<g id="edge15" class="edge">
<title>Node12&#45;&gt;Node4</title>
<path fill="none" stroke="#63b8ff" d="M1336.31,-168.56C1329.22,-167.28 1322.03,-166.05 1315.17,-165 1177.2,-143.84 1127.17,-193.1 1003.17,-129 978.7,-116.35 959.7,-88.56 951.14,-74.31"/>
<polygon fill="#63b8ff" stroke="#63b8ff" points="1336.1,-172.08 1346.57,-170.47 1337.38,-165.2 1336.1,-172.08"/>
</g>
<!-- Node13 -->
<g id="node13" class="node">
<title>Node13</title>
<g id="a_node13"><a xlink:href="EditorCell_8cpp.html" target="_top" xlink:title="This file defines the class EditorCell.">
<polygon fill="white" stroke="#666666" points="1306.67,-74 1179.67,-74 1179.67,-55 1306.67,-55 1306.67,-74"/>
<text text-anchor="middle" x="1243.17" y="-62" font-family="Helvetica,sans-Serif" font-size="10.00">src/cells/EditorCell.cpp</text>
</a>
</g>
</g>
<!-- Node12&#45;&gt;Node13 -->
<g id="edge16" class="edge">
<title>Node12&#45;&gt;Node13</title>
<path fill="none" stroke="#63b8ff" d="M1421.5,-166.43C1450.61,-153.58 1485.55,-132.38 1467.17,-110 1456.95,-97.55 1369.45,-82.98 1306.9,-73.99"/>
<polygon fill="#63b8ff" stroke="#63b8ff" points="1419.8,-163.35 1411.94,-170.46 1422.52,-169.8 1419.8,-163.35"/>
</g>
<!-- Node14 -->
<g id="node14" class="node">
<title>Node14</title>
<g id="a_node14"><a xlink:href="main_8h.html" target="_top" xlink:title="This file declares the class wxMaxima that contains most of the program&#39;s logic.">
<polygon fill="white" stroke="#666666" points="1085.17,-74 1017.17,-74 1017.17,-55 1085.17,-55 1085.17,-74"/>
<text text-anchor="middle" x="1051.17" y="-62" font-family="Helvetica,sans-Serif" font-size="10.00">src/main.h</text>
</a>
</g>
</g>
<!-- Node12&#45;&gt;Node14 -->
<g id="edge17" class="edge">
<title>Node12&#45;&gt;Node14</title>
<path fill="none" stroke="#63b8ff" d="M1336.31,-168.58C1329.22,-167.29 1322.03,-166.06 1315.17,-165 1247.95,-154.59 1056.36,-179.85 1011.17,-129 995.51,-111.37 1021.99,-86.93 1038.85,-74.12"/>
<polygon fill="#63b8ff" stroke="#63b8ff" points="1336.1,-172.1 1346.57,-170.49 1337.38,-165.22 1336.1,-172.1"/>
</g>
<!-- Node16 -->
<g id="node16" class="node">
<title>Node16</title>
<g id="a_node16"><a xlink:href="GreekSidebar_8cpp.html" target="_top" xlink:title="This file defines the class GreekSidebar.">
<polygon fill="white" stroke="#666666" points="1300.17,-129 1136.17,-129 1136.17,-110 1300.17,-110 1300.17,-129"/>
<text text-anchor="middle" x="1218.17" y="-117" font-family="Helvetica,sans-Serif" font-size="10.00">src/sidebars/GreekSidebar.cpp</text>
</a>
</g>
</g>
<!-- Node12&#45;&gt;Node16 -->
<g id="edge21" class="edge">
<title>Node12&#45;&gt;Node16</title>
<path fill="none" stroke="#63b8ff" d="M1353.8,-167.17C1320.92,-155.86 1272.15,-139.07 1242.92,-129.02"/>
<polygon fill="#63b8ff" stroke="#63b8ff" points="1352.86,-170.55 1363.45,-170.49 1355.14,-163.93 1352.86,-170.55"/>
</g>
<!-- Node17 -->
<g id="node17" class="node">
<title>Node17</title>
<g id="a_node17"><a xlink:href="wxMaxima_8h.html" target="_top" xlink:title="This file declares the class wxMaxima that contains most of the program&#39;s logic.">
<polygon fill="white" stroke="#666666" points="1117.67,-129 1020.67,-129 1020.67,-110 1117.67,-110 1117.67,-129"/>
<text text-anchor="middle" x="1069.17" y="-117" font-family="Helvetica,sans-Serif" font-size="10.00">src/wxMaxima.h</text>
</a>
</g>
</g>
<!-- Node12&#45;&gt;Node17 -->
<g id="edge22" class="edge">
<title>Node12&#45;&gt;Node17</title>
<path fill="none" stroke="#63b8ff" d="M1334.19,-168.58C1327.78,-167.36 1321.33,-166.15 1315.17,-165 1246.48,-152.2 1166.89,-137.9 1117.28,-129.05"/>
<polygon fill="#63b8ff" stroke="#63b8ff" points="1333.7,-172.05 1344.18,-170.49 1335.01,-165.17 1333.7,-172.05"/>
</g>
<!-- Node18 -->
<g id="node18" class="node">
<title>Node18</title>
<g id="a_node18"><a xlink:href="wxMaximaFrame_8cpp.html" target="_top" xlink:title="This file defines the class wxMaximaFrame.">
<polygon fill="white" stroke="#666666" points="1457.67,-129 1318.67,-129 1318.67,-110 1457.67,-110 1457.67,-129"/>
<text text-anchor="middle" x="1388.17" y="-117" font-family="Helvetica,sans-Serif" font-size="10.00">src/wxMaximaFrame.cpp</text>
</a>
</g>
</g>
<!-- Node12&#45;&gt;Node18 -->
<g id="edge28" class="edge">
<title>Node12&#45;&gt;Node18</title>
<path fill="none" stroke="#63b8ff" d="M1388.17,-160.16C1388.17,-149.74 1388.17,-137.3 1388.17,-129.17"/>
<polygon fill="#63b8ff" stroke="#63b8ff" points="1384.67,-160.37 1388.17,-170.37 1391.67,-160.37 1384.67,-160.37"/>
</g>
<!-- Node14&#45;&gt;Node8 -->
<g id="edge19" class="edge">
<title>Node14&#45;&gt;Node8</title>
<path fill="none" stroke="#63b8ff" d="M1090.26,-52.06C1124.09,-42.15 1172.26,-28.04 1202.86,-19.08"/>
<polygon fill="#63b8ff" stroke="#63b8ff" points="1088.87,-48.82 1080.25,-54.98 1090.83,-55.53 1088.87,-48.82"/>
</g>
<!-- Node14&#45;&gt;Node9 -->
<g id="edge20" class="edge">
<title>Node14&#45;&gt;Node9</title>
<path fill="none" stroke="#63b8ff" d="M1095.45,-56.21C1154.49,-46.49 1258.8,-29.33 1321.4,-19.02"/>
<polygon fill="#63b8ff" stroke="#63b8ff" points="1094.63,-52.8 1085.33,-57.88 1095.76,-59.71 1094.63,-52.8"/>
</g>
<!-- Node15 -->
<g id="node15" class="node">
<title>Node15</title>
<g id="a_node15"><a xlink:href="MaximaManual_8cpp.html" target="_top" xlink:title="This file defines the class MaximaManual.">
<polygon fill="white" stroke="#666666" points="1116.17,-19 986.17,-19 986.17,0 1116.17,0 1116.17,-19"/>
<text text-anchor="middle" x="1051.17" y="-7" font-family="Helvetica,sans-Serif" font-size="10.00">src/MaximaManual.cpp</text>
</a>
</g>
</g>
<!-- Node14&#45;&gt;Node15 -->
<g id="edge18" class="edge">
<title>Node14&#45;&gt;Node15</title>
<path fill="none" stroke="#63b8ff" d="M1051.17,-44.66C1051.17,-35.93 1051.17,-25.99 1051.17,-19.09"/>
<polygon fill="#63b8ff" stroke="#63b8ff" points="1047.67,-44.75 1051.17,-54.75 1054.67,-44.75 1047.67,-44.75"/>
</g>
<!-- Node17&#45;&gt;Node4 -->
<g id="edge23" class="edge">
<title>Node17&#45;&gt;Node4</title>
<path fill="none" stroke="#63b8ff" d="M1039.93,-105.9C1017.21,-96.11 986.3,-82.79 966.3,-74.17"/>
<polygon fill="#63b8ff" stroke="#63b8ff" points="1038.84,-109.24 1049.41,-109.98 1041.61,-102.81 1038.84,-109.24"/>
</g>
<!-- Node17&#45;&gt;Node8 -->
<g id="edge25" class="edge">
<title>Node17&#45;&gt;Node8</title>
<path fill="none" stroke="#63b8ff" d="M1083.62,-102.42C1096.64,-88.6 1116.82,-68.77 1137.17,-55 1159.95,-39.59 1188.91,-26.88 1208.84,-19.04"/>
<polygon fill="#63b8ff" stroke="#63b8ff" points="1081.04,-100.06 1076.83,-109.78 1086.18,-104.8 1081.04,-100.06"/>
</g>
<!-- Node17&#45;&gt;Node9 -->
<g id="edge27" class="edge">
<title>Node17&#45;&gt;Node9</title>
<path fill="none" stroke="#63b8ff" d="M1090.92,-104.27C1118.02,-86.62 1161.82,-58.42 1170.17,-55 1218.59,-35.18 1277.29,-23.54 1319.08,-17.17"/>
<polygon fill="#63b8ff" stroke="#63b8ff" points="1088.9,-101.4 1082.44,-109.8 1092.73,-107.27 1088.9,-101.4"/>
</g>
<!-- Node17&#45;&gt;Node13 -->
<g id="edge24" class="edge">
<title>Node17&#45;&gt;Node13</title>
<path fill="none" stroke="#63b8ff" d="M1106.75,-107.06C1139.27,-97.15 1185.57,-83.04 1215,-74.08"/>
<polygon fill="#63b8ff" stroke="#63b8ff" points="1105.68,-103.72 1097.13,-109.98 1107.72,-110.42 1105.68,-103.72"/>
</g>
<!-- Node17&#45;&gt;Node14 -->
<g id="edge26" class="edge">
<title>Node17&#45;&gt;Node14</title>
<path fill="none" stroke="#63b8ff" d="M1062.97,-100.24C1059.96,-91.37 1056.49,-81.14 1054.09,-74.09"/>
<polygon fill="#63b8ff" stroke="#63b8ff" points="1059.67,-101.4 1066.2,-109.75 1066.3,-99.15 1059.67,-101.4"/>
</g>
</g>
</svg>
        <g id="navigator" transform="translate(0 0)" fill="#404254">
                <rect fill="#f2f5e9" fill-opacity="0.5" stroke="#606060" stroke-width=".5" x="0" y="0" width="60" height="60"/>
                <use id="zoomplus" xlink:href="#zoomPlus" x="17" y="9" onmousedown="handleZoom(evt,'in')"/>
                <use id="zoomminus" xlink:href="#zoomMin" x="42" y="9" onmousedown="handleZoom(evt,'out')"/>
                <use id="reset" xlink:href="#resetDef" x="30" y="36" onmousedown="handleReset()"/>
                <g id="arrowUp" xlink:href="#dirArrow" transform="translate(30 24)" onmousedown="handlePan(0,-1)">
                  <use xlink:href="#rim" fill="#404040">
                        <set attributeName="fill" to="#808080" begin="arrowUp.mouseover" end="arrowUp.mouseout"/>
                  </use>
                  <path fill="none" stroke="white" stroke-width="1.5" d="M0,-3.0v7 M-2.5,-0.5L0,-3.0L2.5,-0.5"/>
                </g>
                <g id="arrowRight" xlink:href="#dirArrow" transform="rotate(90) translate(36 -43)" onmousedown="handlePan(1,0)">
                  <use xlink:href="#rim" fill="#404040">
                        <set attributeName="fill" to="#808080" begin="arrowRight.mouseover" end="arrowRight.mouseout"/>
                  </use>
                  <path fill="none" stroke="white" stroke-width="1.5" d="M0,-3.0v7 M-2.5,-0.5L0,-3.0L2.5,-0.5"/>
                </g>
                <g id="arrowDown" xlink:href="#dirArrow" transform="rotate(180) translate(-30 -48)" onmousedown="handlePan(0,1)">
                  <use xlink:href="#rim" fill="#404040">
                        <set attributeName="fill" to="#808080" begin="arrowDown.mouseover" end="arrowDown.mouseout"/>
                  </use>
                  <path fill="none" stroke="white" stroke-width="1.5" d="M0,-3.0v7 M-2.5,-0.5L0,-3.0L2.5,-0.5"/>
                </g>
                <g id="arrowLeft" xlink:href="#dirArrow" transform="rotate(270) translate(-36 17)" onmousedown="handlePan(-1,0)">
                  <use xlink:href="#rim" fill="#404040">
                        <set attributeName="fill" to="#808080" begin="arrowLeft.mouseover" end="arrowLeft.mouseout"/>
                  </use>
                  <path fill="none" stroke="white" stroke-width="1.5" d="M0,-3.0v7 M-2.5,-0.5L0,-3.0L2.5,-0.5"/>
                </g>
        </g>
        <svg viewBox="0 0 15 15" width="100%" height="30px" preserveAspectRatio="xMaxYMin meet">
         <g id="arrow_out" transform="scale(0.3 0.3)">
          <a xlink:href="AutocompletePopup_8h__dep__incl_org.svg" target="_base">
           <rect id="button" ry="5" rx="5" y="6" x="6" height="38" width="38"
                fill="#f2f5e9" fill-opacity="0.5" stroke="#606060" stroke-width="1.0"/>
           <path id="arrow"
             d="M 11.500037,31.436501 C 11.940474,20.09759 22.043105,11.32322 32.158766,21.979434 L 37.068811,17.246167 C 37.068811,17.246167 37.088388,32 37.088388,32 L 22.160133,31.978069 C 22.160133,31.978069 26.997745,27.140456 26.997745,27.140456 C 18.528582,18.264221 13.291696,25.230495 11.500037,31.436501 z"
             style="fill:#404040;"/>
          </a>
         </g>
        </svg>
</svg>
