<?xml version="1.0" encoding="UTF-8" standalone="no"?>
<!DOCTYPE svg PUBLIC "-//W3C//DTD SVG 1.1//EN"
 "http://www.w3.org/Graphics/SVG/1.1/DTD/svg11.dtd">
<!-- Generated by graphviz version 2.43.0 (0)
 -->
<!-- Title: src/Autocomplete.h Pages: 1 -->
<svg width="2690pt" height="368pt"
 viewBox="0.00 0.00 2690.46 368.00" xmlns="http://www.w3.org/2000/svg" xmlns:xlink="http://www.w3.org/1999/xlink">
<g id="graph0" class="graph" transform="scale(1 1) rotate(0) translate(4 364)">
<title>src/Autocomplete.h</title>
<!-- Node1 -->
<g id="node1" class="node">
<title>Node1</title>
<g id="a_node1"><a xlink:title="This file declares the class AutoComplete.">
<polygon fill="#999999" stroke="#666666" points="1438.22,-360 1327.22,-360 1327.22,-341 1438.22,-341 1438.22,-360"/>
<text text-anchor="middle" x="1382.72" y="-348" font-family="Helvetica,sans-Serif" font-size="10.00">src/Autocomplete.h</text>
</a>
</g>
</g>
<!-- Node2 -->
<g id="node2" class="node">
<title>Node2</title>
<g id="a_node2"><a xlink:href="Autocomplete_8cpp.html" target="_top" xlink:title="This file defines the class AutoComplete.">
<polygon fill="white" stroke="#666666" points="1293.72,-305 1171.72,-305 1171.72,-286 1293.72,-286 1293.72,-305"/>
<text text-anchor="middle" x="1232.72" y="-293" font-family="Helvetica,sans-Serif" font-size="10.00">src/Autocomplete.cpp</text>
</a>
</g>
</g>
<!-- Node1&#45;&gt;Node2 -->
<g id="edge1" class="edge">
<title>Node1&#45;&gt;Node2</title>
<path fill="none" stroke="#63b8ff" d="M1348.9,-337.55C1321.04,-327.71 1282.2,-313.98 1257.25,-305.17"/>
<polygon fill="#63b8ff" stroke="#63b8ff" points="1348.02,-340.95 1358.62,-340.98 1350.35,-334.35 1348.02,-340.95"/>
</g>
<!-- Node3 -->
<g id="node3" class="node">
<title>Node3</title>
<g id="a_node3"><a xlink:href="AutocompletePopup_8h.html" target="_top" xlink:title="The first number that is open for dynamic ID assignment.">
<polygon fill="white" stroke="#666666" points="1453.22,-305 1312.22,-305 1312.22,-286 1453.22,-286 1453.22,-305"/>
<text text-anchor="middle" x="1382.72" y="-293" font-family="Helvetica,sans-Serif" font-size="10.00">src/AutocompletePopup.h</text>
</a>
</g>
</g>
<!-- Node1&#45;&gt;Node3 -->
<g id="edge2" class="edge">
<title>Node1&#45;&gt;Node3</title>
<path fill="none" stroke="#63b8ff" d="M1382.72,-330.66C1382.72,-321.93 1382.72,-311.99 1382.72,-305.09"/>
<polygon fill="#63b8ff" stroke="#63b8ff" points="1379.22,-330.75 1382.72,-340.75 1386.22,-330.75 1379.22,-330.75"/>
</g>
<!-- Node5 -->
<g id="node5" class="node">
<title>Node5</title>
<g id="a_node5"><a xlink:href="Worksheet_8h.html" target="_top" xlink:title="This file defines the class Worksheet.">
<polygon fill="white" stroke="#666666" points="1529.22,-250 1434.22,-250 1434.22,-231 1529.22,-231 1529.22,-250"/>
<text text-anchor="middle" x="1481.72" y="-238" font-family="Helvetica,sans-Serif" font-size="10.00">src/Worksheet.h</text>
</a>
</g>
</g>
<!-- Node1&#45;&gt;Node5 -->
<g id="edge54" class="edge">
<title>Node1&#45;&gt;Node5</title>
<path fill="none" stroke="#63b8ff" d="M1417.46,-336.84C1432.93,-329.64 1450.22,-319.17 1461.72,-305 1474.97,-288.66 1479.49,-263.46 1480.99,-250.25"/>
<polygon fill="#63b8ff" stroke="#63b8ff" points="1415.89,-333.71 1408.13,-340.91 1418.69,-340.12 1415.89,-333.71"/>
</g>
<!-- Node4 -->
<g id="node4" class="node">
<title>Node4</title>
<g id="a_node4"><a xlink:href="AutocompletePopup_8cpp.html" target="_top" xlink:title="This file defines the class AutocompletePopup.">
<polygon fill="white" stroke="#666666" points="405.72,-129 253.72,-129 253.72,-110 405.72,-110 405.72,-129"/>
<text text-anchor="middle" x="329.72" y="-117" font-family="Helvetica,sans-Serif" font-size="10.00">src/AutocompletePopup.cpp</text>
</a>
</g>
</g>
<!-- Node3&#45;&gt;Node4 -->
<g id="edge3" class="edge">
<title>Node3&#45;&gt;Node4</title>
<path fill="none" stroke="#63b8ff" d="M1302.07,-286.11C1118.12,-274.33 103.23,-298.53 6.72,-195 -2.38,-185.25 -2.05,-175.05 6.72,-165 38.1,-129 168.46,-121.12 253.67,-119.94"/>
<polygon fill="#63b8ff" stroke="#63b8ff" points="1301.83,-289.6 1312.06,-286.85 1302.35,-282.62 1301.83,-289.6"/>
</g>
<!-- Node3&#45;&gt;Node5 -->
<g id="edge4" class="edge">
<title>Node3&#45;&gt;Node5</title>
<path fill="none" stroke="#63b8ff" d="M1407.5,-281.23C1425.65,-271.51 1449.78,-258.6 1465.52,-250.17"/>
<polygon fill="#63b8ff" stroke="#63b8ff" points="1405.79,-278.18 1398.62,-285.98 1409.09,-284.35 1405.79,-278.18"/>
</g>
<!-- Node6 -->
<g id="node6" class="node">
<title>Node6</title>
<g id="a_node6"><a xlink:href="MaximaFileIO_8cpp.html" target="_top" xlink:title="Implements the worksheet file loaders/savers extracted from the wxMaxima god class.">
<polygon fill="white" stroke="#666666" points="2316.72,-74 2194.72,-74 2194.72,-55 2316.72,-55 2316.72,-74"/>
<text text-anchor="middle" x="2255.72" y="-62" font-family="Helvetica,sans-Serif" font-size="10.00">src/MaximaFileIO.cpp</text>
</a>
</g>
</g>
<!-- Node5&#45;&gt;Node6 -->
<g id="edge5" class="edge">
<title>Node5&#45;&gt;Node6</title>
<path fill="none" stroke="#63b8ff" d="M1539.46,-239.45C1766.57,-238.96 2587.74,-234.48 2625.72,-195 2695.33,-122.62 2639.45,-152.07 2503.72,-110 2468.88,-99.2 2374.2,-83.59 2312.42,-74.02"/>
<polygon fill="#63b8ff" stroke="#63b8ff" points="1539.41,-235.95 1529.42,-239.47 1539.42,-242.95 1539.41,-235.95"/>
</g>
<!-- Node7 -->
<g id="node7" class="node">
<title>Node7</title>
<g id="a_node7"><a xlink:href="MaximaOutputAppender_8cpp.html" target="_top" xlink:title="Implements the worksheet output appenders extracted from the wxMaxima god class.">
<polygon fill="white" stroke="#666666" points="2508.22,-74 2335.22,-74 2335.22,-55 2508.22,-55 2508.22,-74"/>
<text text-anchor="middle" x="2421.72" y="-62" font-family="Helvetica,sans-Serif" font-size="10.00">src/MaximaOutputAppender.cpp</text>
</a>
</g>
</g>
<!-- Node5&#45;&gt;Node7 -->
<g id="edge6" class="edge">
<title>Node5&#45;&gt;Node7</title>
<path fill="none" stroke="#63b8ff" d="M1539.61,-239.5C1770.22,-239.22 2612.8,-235.43 2651.72,-195 2712.5,-131.86 2554.1,-90.79 2470.08,-74.05"/>
<polygon fill="#63b8ff" stroke="#63b8ff" points="1539.41,-236 1529.42,-239.51 1539.42,-243 1539.41,-236"/>
</g>
<!-- Node8 -->
<g id="node8" class="node">
<title>Node8</title>
<g id="a_node8"><a xlink:href="Worksheet_8cpp.html" target="_top" xlink:title="This file defines the class Worksheet.">
<polygon fill="white" stroke="#666666" points="496.72,-74 390.72,-74 390.72,-55 496.72,-55 496.72,-74"/>
<text text-anchor="middle" x="443.72" y="-62" font-family="Helvetica,sans-Serif" font-size="10.00">src/Worksheet.cpp</text>
</a>
</g>
</g>
<!-- Node5&#45;&gt;Node8 -->
<g id="edge7" class="edge">
<title>Node5&#45;&gt;Node8</title>
<path fill="none" stroke="#63b8ff" d="M1423.62,-239.64C1183.16,-239.95 276.45,-238.25 234.72,-195 221.61,-181.41 236.01,-119.07 244.72,-110 264.52,-89.38 338.54,-77.07 390.48,-70.79"/>
<polygon fill="#63b8ff" stroke="#63b8ff" points="1423.9,-243.14 1433.9,-239.63 1423.89,-236.14 1423.9,-243.14"/>
</g>
<!-- Node9 -->
<g id="node9" class="node">
<title>Node9</title>
<g id="a_node9"><a xlink:href="WorksheetContextMenu_8cpp.html" target="_top" xlink:title="The worksheet&#39;s right&#45;click context menu (see WorksheetContextMenu.h).">
<polygon fill="white" stroke="#666666" points="187.22,-189.5 16.22,-189.5 16.22,-170.5 187.22,-170.5 187.22,-189.5"/>
<text text-anchor="middle" x="101.72" y="-177.5" font-family="Helvetica,sans-Serif" font-size="10.00">src/WorksheetContextMenu.cpp</text>
</a>
</g>
</g>
<!-- Node5&#45;&gt;Node9 -->
<g id="edge8" class="edge">
<title>Node5&#45;&gt;Node9</title>
<path fill="none" stroke="#63b8ff" d="M1423.86,-239.64C1242.99,-239.6 672.17,-236 201.72,-195 186.52,-193.68 170.11,-191.63 155.05,-189.52"/>
<polygon fill="#63b8ff" stroke="#63b8ff" points="1423.95,-243.14 1433.95,-239.63 1423.95,-236.14 1423.95,-243.14"/>
</g>
<!-- Node10 -->
<g id="node10" class="node">
<title>Node10</title>
<g id="a_node10"><a xlink:href="ConfigDialogue_8h.html" target="_top" xlink:title="The configuration dialog.">
<polygon fill="white" stroke="#666666" points="2138.22,-74 1983.22,-74 1983.22,-55 2138.22,-55 2138.22,-74"/>
<text text-anchor="middle" x="2060.72" y="-62" font-family="Helvetica,sans-Serif" font-size="10.00">src/dialogs/ConfigDialogue.h</text>
</a>
</g>
</g>
<!-- Node5&#45;&gt;Node10 -->
<g id="edge9" class="edge">
<title>Node5&#45;&gt;Node10</title>
<path fill="none" stroke="#63b8ff" d="M1539.64,-239.41C1764.69,-238.78 2570.41,-233.81 2607.72,-195 2675.22,-124.78 2304.83,-85.33 2138.43,-71.36"/>
<polygon fill="#63b8ff" stroke="#63b8ff" points="1539.36,-235.91 1529.37,-239.44 1539.38,-242.91 1539.36,-235.91"/>
</g>
<!-- Node14 -->
<g id="node14" class="node">
<title>Node14</title>
<g id="a_node14"><a xlink:href="DiffFrame_8h_source.html" target="_top" xlink:title=" ">
<polygon fill="white" stroke="#666666" points="2655.22,-74 2526.22,-74 2526.22,-55 2655.22,-55 2655.22,-74"/>
<text text-anchor="middle" x="2590.72" y="-62" font-family="Helvetica,sans-Serif" font-size="10.00">src/dialogs/DiffFrame.h</text>
</a>
</g>
</g>
<!-- Node5&#45;&gt;Node14 -->
<g id="edge13" class="edge">
<title>Node5&#45;&gt;Node14</title>
<path fill="none" stroke="#63b8ff" d="M1539.82,-239.54C1773.24,-239.41 2632.07,-236.15 2671.72,-195 2709.43,-155.85 2634.8,-96.36 2603.57,-74.21"/>
<polygon fill="#63b8ff" stroke="#63b8ff" points="1539.5,-236.04 1529.51,-239.54 1539.51,-243.04 1539.5,-236.04"/>
</g>
<!-- Node15 -->
<g id="node15" class="node">
<title>Node15</title>
<g id="a_node15"><a xlink:href="Printout_8cpp.html" target="_top" xlink:title="This file defines the class MathPrintOut.">
<polygon fill="white" stroke="#666666" points="399.22,-189.5 244.22,-189.5 244.22,-170.5 399.22,-170.5 399.22,-189.5"/>
<text text-anchor="middle" x="321.72" y="-177.5" font-family="Helvetica,sans-Serif" font-size="10.00">src/graphical_io/Printout.cpp</text>
</a>
</g>
</g>
<!-- Node5&#45;&gt;Node15 -->
<g id="edge17" class="edge">
<title>Node5&#45;&gt;Node15</title>
<path fill="none" stroke="#63b8ff" d="M1423.81,-239.5C1262.56,-238.98 794.9,-233.94 408.72,-195 395.47,-193.66 381.18,-191.62 368.09,-189.5"/>
<polygon fill="#63b8ff" stroke="#63b8ff" points="1423.97,-243 1433.98,-239.53 1423.99,-236 1423.97,-243"/>
</g>
<!-- Node16 -->
<g id="node16" class="node">
<title>Node16</title>
<g id="a_node16"><a xlink:href="wxMaximaFrame_8h.html" target="_top" xlink:title="This file declares the class wxMaximaFrame.">
<polygon fill="white" stroke="#666666" points="545.72,-189.5 417.72,-189.5 417.72,-170.5 545.72,-170.5 545.72,-189.5"/>
<text text-anchor="middle" x="481.72" y="-177.5" font-family="Helvetica,sans-Serif" font-size="10.00">src/wxMaximaFrame.h</text>
</a>
</g>
</g>
<!-- Node5&#45;&gt;Node16 -->
<g id="edge18" class="edge">
<title>Node5&#45;&gt;Node16</title>
<path fill="none" stroke="#63b8ff" d="M1423.65,-239.56C1277.3,-239.09 881.65,-234 554.72,-195 543.57,-193.67 531.57,-191.63 520.58,-189.51"/>
<polygon fill="#63b8ff" stroke="#63b8ff" points="1423.75,-243.06 1433.76,-239.59 1423.77,-236.06 1423.75,-243.06"/>
</g>
<!-- Node26 -->
<g id="node26" class="node">
<title>Node26</title>
<g id="a_node26"><a xlink:href="test__Accessibility_8cpp.html" target="_top" xlink:title="Logic&#45;level regression tests for wxMaxima&#39;s custom wxAccessible classes.">
<polygon fill="white" stroke="#666666" points="671.72,-195 563.72,-195 563.72,-165 671.72,-165 671.72,-195"/>
<text text-anchor="start" x="571.72" y="-183" font-family="Helvetica,sans-Serif" font-size="10.00">test/unit_tests/test</text>
<text text-anchor="middle" x="617.72" y="-172" font-family="Helvetica,sans-Serif" font-size="10.00">_Accessibility.cpp</text>
</a>
</g>
</g>
<!-- Node5&#45;&gt;Node26 -->
<g id="edge40" class="edge">
<title>Node5&#45;&gt;Node26</title>
<path fill="none" stroke="#63b8ff" d="M1423.76,-239.51C1291.42,-238.83 957.1,-233.13 680.72,-195 677.83,-194.6 674.88,-194.14 671.91,-193.63"/>
<polygon fill="#63b8ff" stroke="#63b8ff" points="1424.04,-243.01 1434.06,-239.56 1424.07,-236.01 1424.04,-243.01"/>
</g>
<!-- Node27 -->
<g id="node27" class="node">
<title>Node27</title>
<g id="a_node27"><a xlink:href="test__EditorCellInvariants_8cpp.html" target="_top" xlink:title="Hardening tests for EditorCell&#39;s text&#45;editing core.">
<polygon fill="white" stroke="#666666" points="827.72,-195 689.72,-195 689.72,-165 827.72,-165 827.72,-195"/>
<text text-anchor="start" x="697.72" y="-183" font-family="Helvetica,sans-Serif" font-size="10.00">test/unit_tests/test</text>
<text text-anchor="middle" x="758.72" y="-172" font-family="Helvetica,sans-Serif" font-size="10.00">_EditorCellInvariants.cpp</text>
</a>
</g>
</g>
<!-- Node5&#45;&gt;Node27 -->
<g id="edge41" class="edge">
<title>Node5&#45;&gt;Node27</title>
<path fill="none" stroke="#63b8ff" d="M1424.05,-237.63C1311.01,-233.49 1052.49,-221.73 836.72,-195 833.85,-194.64 830.93,-194.25 827.98,-193.83"/>
<polygon fill="#63b8ff" stroke="#63b8ff" points="1424.09,-241.13 1434.21,-237.99 1424.34,-234.13 1424.09,-241.13"/>
</g>
<!-- Node28 -->
<g id="node28" class="node">
<title>Node28</title>
<g id="a_node28"><a xlink:href="test__EvalQueueCommands_8cpp.html" target="_top" xlink:title="Command&#45;level behavior of the EvaluationQueue: how a GroupCell&#39;s input is broken into the individual ...">
<polygon fill="white" stroke="#666666" points="995.72,-195 845.72,-195 845.72,-165 995.72,-165 995.72,-195"/>
<text text-anchor="start" x="853.72" y="-183" font-family="Helvetica,sans-Serif" font-size="10.00">test/unit_tests/test</text>
<text text-anchor="middle" x="920.72" y="-172" font-family="Helvetica,sans-Serif" font-size="10.00">_EvalQueueCommands.cpp</text>
</a>
</g>
</g>
<!-- Node5&#45;&gt;Node28 -->
<g id="edge42" class="edge">
<title>Node5&#45;&gt;Node28</title>
<path fill="none" stroke="#63b8ff" d="M1424.22,-235.48C1334.45,-228.91 1155.61,-214.59 1004.72,-195 1001.78,-194.62 998.8,-194.21 995.78,-193.79"/>
<polygon fill="#63b8ff" stroke="#63b8ff" points="1423.97,-238.97 1434.2,-236.21 1424.48,-231.99 1423.97,-238.97"/>
</g>
<!-- Node29 -->
<g id="node29" class="node">
<title>Node29</title>
<g id="a_node29"><a xlink:href="test__GroupCellLayout_8cpp.html" target="_top" xlink:title="Regression tests for the GroupCell &lt;&#45;&gt; EditorCell layout coupling.">
<polygon fill="white" stroke="#666666" points="1137.22,-195 1014.22,-195 1014.22,-165 1137.22,-165 1137.22,-195"/>
<text text-anchor="start" x="1022.22" y="-183" font-family="Helvetica,sans-Serif" font-size="10.00">test/unit_tests/test</text>
<text text-anchor="middle" x="1075.72" y="-172" font-family="Helvetica,sans-Serif" font-size="10.00">_GroupCellLayout.cpp</text>
</a>
</g>
</g>
<!-- Node5&#45;&gt;Node29 -->
<g id="edge43" class="edge">
<title>Node5&#45;&gt;Node29</title>
<path fill="none" stroke="#63b8ff" d="M1423.81,-232.92C1356.9,-225.07 1243.56,-210.96 1146.72,-195 1143.62,-194.49 1140.45,-193.94 1137.25,-193.38"/>
<polygon fill="#63b8ff" stroke="#63b8ff" points="1423.81,-236.45 1434.14,-234.13 1424.62,-229.5 1423.81,-236.45"/>
</g>
<!-- Node30 -->
<g id="node30" class="node">
<title>Node30</title>
<g id="a_node30"><a xlink:href="test__LayoutInvariants_8cpp.html" target="_top" xlink:title="Layout idempotency invariants.">
<polygon fill="white" stroke="#666666" points="1279.72,-195 1155.72,-195 1155.72,-165 1279.72,-165 1279.72,-195"/>
<text text-anchor="start" x="1163.72" y="-183" font-family="Helvetica,sans-Serif" font-size="10.00">test/unit_tests/test</text>
<text text-anchor="middle" x="1217.72" y="-172" font-family="Helvetica,sans-Serif" font-size="10.00">_LayoutInvariants.cpp</text>
</a>
</g>
</g>
<!-- Node5&#45;&gt;Node30 -->
<g id="edge44" class="edge">
<title>Node5&#45;&gt;Node30</title>
<path fill="none" stroke="#63b8ff" d="M1433.36,-228.79C1390.22,-219.23 1326.81,-205.18 1279.91,-194.78"/>
<polygon fill="#63b8ff" stroke="#63b8ff" points="1432.81,-232.25 1443.33,-230.99 1434.32,-225.41 1432.81,-232.25"/>
</g>
<!-- Node31 -->
<g id="node31" class="node">
<title>Node31</title>
<g id="a_node31"><a xlink:href="test__TreeUndo_8cpp.html" target="_top" xlink:title="Regression tests for the worksheet&#39;s cell&#45;tree undo/redo (the TreeUndo_* subsystem of Worksheet).">
<polygon fill="white" stroke="#666666" points="1405.72,-195 1297.72,-195 1297.72,-165 1405.72,-165 1405.72,-195"/>
<text text-anchor="start" x="1305.72" y="-183" font-family="Helvetica,sans-Serif" font-size="10.00">test/unit_tests/test</text>
<text text-anchor="middle" x="1351.72" y="-172" font-family="Helvetica,sans-Serif" font-size="10.00">_TreeUndo.cpp</text>
</a>
</g>
</g>
<!-- Node5&#45;&gt;Node31 -->
<g id="edge45" class="edge">
<title>Node5&#45;&gt;Node31</title>
<path fill="none" stroke="#63b8ff" d="M1453.56,-226.83C1432.76,-217.47 1404.46,-204.74 1382.97,-195.06"/>
<polygon fill="#63b8ff" stroke="#63b8ff" points="1452.26,-230.08 1462.81,-230.99 1455.13,-223.7 1452.26,-230.08"/>
</g>
<!-- Node32 -->
<g id="node32" class="node">
<title>Node32</title>
<g id="a_node32"><a xlink:href="test__WXMRoundtrip_8cpp.html" target="_top" xlink:title="Regression tests for images surviving the .wxm serialization round&#45;trip.">
<polygon fill="white" stroke="#666666" points="1539.22,-195 1424.22,-195 1424.22,-165 1539.22,-165 1539.22,-195"/>
<text text-anchor="start" x="1432.22" y="-183" font-family="Helvetica,sans-Serif" font-size="10.00">test/unit_tests/test</text>
<text text-anchor="middle" x="1481.72" y="-172" font-family="Helvetica,sans-Serif" font-size="10.00">_WXMRoundtrip.cpp</text>
</a>
</g>
</g>
<!-- Node5&#45;&gt;Node32 -->
<g id="edge46" class="edge">
<title>Node5&#45;&gt;Node32</title>
<path fill="none" stroke="#63b8ff" d="M1481.72,-220.65C1481.72,-212.36 1481.72,-202.78 1481.72,-195.11"/>
<polygon fill="#63b8ff" stroke="#63b8ff" points="1478.22,-220.87 1481.72,-230.87 1485.22,-220.87 1478.22,-220.87"/>
</g>
<!-- Node33 -->
<g id="node33" class="node">
<title>Node33</title>
<g id="a_node33"><a xlink:href="test__WXMXRoundtrip_8cpp.html" target="_top" xlink:title="Round&#45;trip tests for the .wxmx content.xml (the MathML&#45;like math format).">
<polygon fill="white" stroke="#666666" points="1679.72,-195 1557.72,-195 1557.72,-165 1679.72,-165 1679.72,-195"/>
<text text-anchor="start" x="1565.72" y="-183" font-family="Helvetica,sans-Serif" font-size="10.00">test/unit_tests/test</text>
<text text-anchor="middle" x="1618.72" y="-172" font-family="Helvetica,sans-Serif" font-size="10.00">_WXMXRoundtrip.cpp</text>
</a>
</g>
</g>
<!-- Node5&#45;&gt;Node33 -->
<g id="edge47" class="edge">
<title>Node5&#45;&gt;Node33</title>
<path fill="none" stroke="#63b8ff" d="M1511.1,-226.95C1533.03,-217.59 1563.03,-204.78 1585.78,-195.06"/>
<polygon fill="#63b8ff" stroke="#63b8ff" points="1509.46,-223.85 1501.64,-230.99 1512.21,-230.29 1509.46,-223.85"/>
</g>
<!-- Node34 -->
<g id="node34" class="node">
<title>Node34</title>
<g id="a_node34"><a xlink:href="test__WorksheetClipboard_8cpp.html" target="_top" xlink:title="Safety net for the multi&#45;format clipboard / drag&#45;and&#45;drop payload of Worksheet.">
<polygon fill="white" stroke="#666666" points="1837.72,-195 1697.72,-195 1697.72,-165 1837.72,-165 1837.72,-195"/>
<text text-anchor="start" x="1705.72" y="-183" font-family="Helvetica,sans-Serif" font-size="10.00">test/unit_tests/test</text>
<text text-anchor="middle" x="1767.72" y="-172" font-family="Helvetica,sans-Serif" font-size="10.00">_WorksheetClipboard.cpp</text>
</a>
</g>
</g>
<!-- Node5&#45;&gt;Node34 -->
<g id="edge48" class="edge">
<title>Node5&#45;&gt;Node34</title>
<path fill="none" stroke="#63b8ff" d="M1533.14,-228.98C1579.56,-219.49 1648.19,-205.45 1699.23,-195.01"/>
<polygon fill="#63b8ff" stroke="#63b8ff" points="1532.4,-225.56 1523.3,-230.99 1533.8,-232.42 1532.4,-225.56"/>
</g>
<!-- Node35 -->
<g id="node35" class="node">
<title>Node35</title>
<g id="a_node35"><a xlink:href="test__WorksheetContextMenu_8cpp.html" target="_top" xlink:title="Regression tests for the worksheet&#39;s right&#45;click context menu.">
<polygon fill="white" stroke="#666666" points="2015.22,-195 1856.22,-195 1856.22,-165 2015.22,-165 2015.22,-195"/>
<text text-anchor="start" x="1864.22" y="-183" font-family="Helvetica,sans-Serif" font-size="10.00">test/unit_tests/test</text>
<text text-anchor="middle" x="1935.72" y="-172" font-family="Helvetica,sans-Serif" font-size="10.00">_WorksheetContextMenu.cpp</text>
</a>
</g>
</g>
<!-- Node5&#45;&gt;Node35 -->
<g id="edge49" class="edge">
<title>Node5&#45;&gt;Node35</title>
<path fill="none" stroke="#63b8ff" d="M1539.55,-233.08C1611.58,-224.93 1738.4,-210.12 1846.72,-195 1849.81,-194.57 1852.97,-194.12 1856.16,-193.65"/>
<polygon fill="#63b8ff" stroke="#63b8ff" points="1538.87,-229.63 1529.32,-234.23 1539.65,-236.59 1538.87,-229.63"/>
</g>
<!-- Node36 -->
<g id="node36" class="node">
<title>Node36</title>
<g id="a_node36"><a xlink:href="test__WorksheetCursor_8cpp.html" target="_top" xlink:title="Pins the worksheet&#39;s cursor model before it is gathered into a cursor class.">
<polygon fill="white" stroke="#666666" points="2158.22,-195 2033.22,-195 2033.22,-165 2158.22,-165 2158.22,-195"/>
<text text-anchor="start" x="2041.22" y="-183" font-family="Helvetica,sans-Serif" font-size="10.00">test/unit_tests/test</text>
<text text-anchor="middle" x="2095.72" y="-172" font-family="Helvetica,sans-Serif" font-size="10.00">_WorksheetCursor.cpp</text>
</a>
</g>
</g>
<!-- Node5&#45;&gt;Node36 -->
<g id="edge50" class="edge">
<title>Node5&#45;&gt;Node36</title>
<path fill="none" stroke="#63b8ff" d="M1539.64,-236.9C1639.18,-231.96 1848.95,-219.45 2024.72,-195 2027.45,-194.62 2030.24,-194.2 2033.06,-193.75"/>
<polygon fill="#63b8ff" stroke="#63b8ff" points="1539.31,-233.42 1529.49,-237.4 1539.65,-240.41 1539.31,-233.42"/>
</g>
<!-- Node37 -->
<g id="node37" class="node">
<title>Node37</title>
<g id="a_node37"><a xlink:href="test__WorksheetEvalQueue_8cpp.html" target="_top" xlink:title="Pins the worksheet&#39;s &quot;add cells to the evaluation queue&quot; behavior before the Add*ToEvaluationQueue fa...">
<polygon fill="white" stroke="#666666" points="2322.72,-195 2176.72,-195 2176.72,-165 2322.72,-165 2322.72,-195"/>
<text text-anchor="start" x="2184.72" y="-183" font-family="Helvetica,sans-Serif" font-size="10.00">test/unit_tests/test</text>
<text text-anchor="middle" x="2249.72" y="-172" font-family="Helvetica,sans-Serif" font-size="10.00">_WorksheetEvalQueue.cpp</text>
</a>
</g>
</g>
<!-- Node5&#45;&gt;Node37 -->
<g id="edge51" class="edge">
<title>Node5&#45;&gt;Node37</title>
<path fill="none" stroke="#63b8ff" d="M1539.54,-237.79C1657.84,-233.83 1935.87,-222.24 2167.72,-195 2170.58,-194.66 2173.51,-194.29 2176.45,-193.9"/>
<polygon fill="#63b8ff" stroke="#63b8ff" points="1539.16,-234.3 1529.28,-238.12 1539.39,-241.29 1539.16,-234.3"/>
</g>
<!-- Node38 -->
<g id="node38" class="node">
<title>Node38</title>
<g id="a_node38"><a xlink:href="test__WorksheetExport_8cpp.html" target="_top" xlink:title="Safety net for the export/serialization cluster of Worksheet.">
<polygon fill="white" stroke="#666666" points="2466.22,-195 2341.22,-195 2341.22,-165 2466.22,-165 2466.22,-195"/>
<text text-anchor="start" x="2349.22" y="-183" font-family="Helvetica,sans-Serif" font-size="10.00">test/unit_tests/test</text>
<text text-anchor="middle" x="2403.72" y="-172" font-family="Helvetica,sans-Serif" font-size="10.00">_WorksheetExport.cpp</text>
</a>
</g>
</g>
<!-- Node5&#45;&gt;Node38 -->
<g id="edge52" class="edge">
<title>Node5&#45;&gt;Node38</title>
<path fill="none" stroke="#63b8ff" d="M1539.7,-239.25C1677.54,-238.05 2035.46,-231.38 2331.72,-195 2334.75,-194.63 2337.85,-194.2 2340.97,-193.74"/>
<polygon fill="#63b8ff" stroke="#63b8ff" points="1539.35,-235.75 1529.38,-239.33 1539.41,-242.75 1539.35,-235.75"/>
</g>
<!-- Node39 -->
<g id="node39" class="node">
<title>Node39</title>
<g id="a_node39"><a xlink:href="test__WorksheetFind_8cpp.html" target="_top" xlink:title="Pins the worksheet&#39;s find/replace behavior before the search engine is extracted into WorksheetSearch...">
<polygon fill="white" stroke="#666666" points="2598.72,-195 2484.72,-195 2484.72,-165 2598.72,-165 2598.72,-195"/>
<text text-anchor="start" x="2492.72" y="-183" font-family="Helvetica,sans-Serif" font-size="10.00">test/unit_tests/test</text>
<text text-anchor="middle" x="2541.72" y="-172" font-family="Helvetica,sans-Serif" font-size="10.00">_WorksheetFind.cpp</text>
</a>
</g>
</g>
<!-- Node5&#45;&gt;Node39 -->
<g id="edge53" class="edge">
<title>Node5&#45;&gt;Node39</title>
<path fill="none" stroke="#63b8ff" d="M1539.41,-240.22C1692.6,-241.41 2122.07,-240.11 2475.72,-195 2478.62,-194.63 2481.59,-194.2 2484.58,-193.72"/>
<polygon fill="#63b8ff" stroke="#63b8ff" points="1539.32,-236.72 1529.29,-240.13 1539.26,-243.72 1539.32,-236.72"/>
</g>
<!-- Node11 -->
<g id="node11" class="node">
<title>Node11</title>
<g id="a_node11"><a xlink:href="MaximaCommandMenus_8cpp.html" target="_top" xlink:title="Implementation of the menu&#45;command handlers extracted from wxMaxima &#45; see MaximaCommandMenus....">
<polygon fill="white" stroke="#666666" points="2254.72,-19 2078.72,-19 2078.72,0 2254.72,0 2254.72,-19"/>
<text text-anchor="middle" x="2166.72" y="-7" font-family="Helvetica,sans-Serif" font-size="10.00">src/MaximaCommandMenus.cpp</text>
</a>
</g>
</g>
<!-- Node10&#45;&gt;Node11 -->
<g id="edge10" class="edge">
<title>Node10&#45;&gt;Node11</title>
<path fill="none" stroke="#63b8ff" d="M2086.71,-50.5C2106.21,-40.75 2132.36,-27.68 2149.37,-19.17"/>
<polygon fill="#63b8ff" stroke="#63b8ff" points="2085.13,-47.38 2077.75,-54.98 2088.26,-53.64 2085.13,-47.38"/>
</g>
<!-- Node12 -->
<g id="node12" class="node">
<title>Node12</title>
<g id="a_node12"><a xlink:href="main_8cpp.html" target="_top" xlink:title="The file that defines the starting point of the program.">
<polygon fill="white" stroke="#666666" points="1704.22,-19 1625.22,-19 1625.22,0 1704.22,0 1704.22,-19"/>
<text text-anchor="middle" x="1664.72" y="-7" font-family="Helvetica,sans-Serif" font-size="10.00">src/main.cpp</text>
</a>
</g>
</g>
<!-- Node10&#45;&gt;Node12 -->
<g id="edge11" class="edge">
<title>Node10&#45;&gt;Node12</title>
<path fill="none" stroke="#63b8ff" d="M1987.16,-53.66C1903.61,-42.47 1770.36,-24.64 1704.39,-15.81"/>
<polygon fill="#63b8ff" stroke="#63b8ff" points="1986.72,-57.13 1997.09,-54.98 1987.64,-50.19 1986.72,-57.13"/>
</g>
<!-- Node13 -->
<g id="node13" class="node">
<title>Node13</title>
<g id="a_node13"><a xlink:href="wxMaxima_8cpp.html" target="_top" xlink:title="This file defines the contents of the class wxMaxima that contains most of the program&#39;s logic.">
<polygon fill="white" stroke="#666666" points="1955.72,-19 1847.72,-19 1847.72,0 1955.72,0 1955.72,-19"/>
<text text-anchor="middle" x="1901.72" y="-7" font-family="Helvetica,sans-Serif" font-size="10.00">src/wxMaxima.cpp</text>
</a>
</g>
</g>
<!-- Node10&#45;&gt;Node13 -->
<g id="edge12" class="edge">
<title>Node10&#45;&gt;Node13</title>
<path fill="none" stroke="#63b8ff" d="M2025.61,-51.8C1995.94,-41.91 1954.12,-27.97 1927.46,-19.08"/>
<polygon fill="#63b8ff" stroke="#63b8ff" points="2024.58,-55.14 2035.17,-54.98 2026.79,-48.5 2024.58,-55.14"/>
</g>
<!-- Node14&#45;&gt;Node11 -->
<g id="edge14" class="edge">
<title>Node14&#45;&gt;Node11</title>
<path fill="none" stroke="#63b8ff" d="M2515.9,-54.15C2436.34,-44.2 2311.59,-28.61 2234.73,-19"/>
<polygon fill="#63b8ff" stroke="#63b8ff" points="2515.5,-57.63 2525.86,-55.39 2516.37,-50.68 2515.5,-57.63"/>
</g>
<!-- Node14&#45;&gt;Node12 -->
<g id="edge15" class="edge">
<title>Node14&#45;&gt;Node12</title>
<path fill="none" stroke="#63b8ff" d="M2515.65,-54.99C2421.7,-48.77 1859.27,-20.31 1704.24,-12.49"/>
<polygon fill="#63b8ff" stroke="#63b8ff" points="2515.63,-58.5 2525.86,-55.73 2516.14,-51.52 2515.63,-58.5"/>
</g>
<!-- Node14&#45;&gt;Node13 -->
<g id="edge16" class="edge">
<title>Node14&#45;&gt;Node13</title>
<path fill="none" stroke="#63b8ff" d="M2515.73,-54.85C2302.66,-34.96 2061.34,-19.85 1955.75,-13.61"/>
<polygon fill="#63b8ff" stroke="#63b8ff" points="2515.57,-58.35 2525.85,-55.8 2516.22,-51.38 2515.57,-58.35"/>
</g>
<!-- Node16&#45;&gt;Node4 -->
<g id="edge19" class="edge">
<title>Node16&#45;&gt;Node4</title>
<path fill="none" stroke="#63b8ff" d="M450.22,-166.88C420.83,-155.57 377.75,-138.99 351.84,-129.02"/>
<polygon fill="#63b8ff" stroke="#63b8ff" points="449.02,-170.17 459.61,-170.49 451.54,-163.64 449.02,-170.17"/>
</g>
<!-- Node16&#45;&gt;Node8 -->
<g id="edge20" class="edge">
<title>Node16&#45;&gt;Node8</title>
<path fill="none" stroke="#63b8ff" d="M475.63,-160.82C467.33,-136.02 452.77,-92.54 446.6,-74.13"/>
<polygon fill="#63b8ff" stroke="#63b8ff" points="472.37,-162.1 478.86,-170.47 479,-159.88 472.37,-162.1"/>
</g>
<!-- Node17 -->
<g id="node17" class="node">
<title>Node17</title>
<g id="a_node17"><a xlink:href="EditorCell_8cpp.html" target="_top" xlink:title="This file defines the class EditorCell.">
<polygon fill="white" stroke="#666666" points="876.22,-74 749.22,-74 749.22,-55 876.22,-55 876.22,-74"/>
<text text-anchor="middle" x="812.72" y="-62" font-family="Helvetica,sans-Serif" font-size="10.00">src/cells/EditorCell.cpp</text>
</a>
</g>
</g>
<!-- Node16&#45;&gt;Node17 -->
<g id="edge21" class="edge">
<title>Node16&#45;&gt;Node17</title>
<path fill="none" stroke="#63b8ff" d="M481.57,-160.04C482.54,-144.26 486.61,-122.42 500.72,-110 536.55,-78.45 668.5,-69.24 748.88,-66.57"/>
<polygon fill="#63b8ff" stroke="#63b8ff" points="478.07,-160.16 481.31,-170.25 485.06,-160.34 478.07,-160.16"/>
</g>
<!-- Node18 -->
<g id="node18" class="node">
<title>Node18</title>
<g id="a_node18"><a xlink:href="main_8h.html" target="_top" xlink:title="This file declares the class wxMaxima that contains most of the program&#39;s logic.">
<polygon fill="white" stroke="#666666" points="1345.72,-74 1277.72,-74 1277.72,-55 1345.72,-55 1345.72,-74"/>
<text text-anchor="middle" x="1311.72" y="-62" font-family="Helvetica,sans-Serif" font-size="10.00">src/main.h</text>
</a>
</g>
</g>
<!-- Node16&#45;&gt;Node18 -->
<g id="edge22" class="edge">
<title>Node16&#45;&gt;Node18</title>
<path fill="none" stroke="#63b8ff" d="M533.85,-168.58C540.85,-167.3 547.95,-166.07 554.72,-165 681.25,-144.92 713.68,-145.56 840.72,-129 1004.35,-107.67 1199.78,-80.91 1277.45,-70.22"/>
<polygon fill="#63b8ff" stroke="#63b8ff" points="532.9,-165.2 523.71,-170.47 534.18,-172.08 532.9,-165.2"/>
</g>
<!-- Node20 -->
<g id="node20" class="node">
<title>Node20</title>
<g id="a_node20"><a xlink:href="GreekSidebar_8cpp.html" target="_top" xlink:title="This file defines the class GreekSidebar.">
<polygon fill="white" stroke="#666666" points="831.72,-129 667.72,-129 667.72,-110 831.72,-110 831.72,-129"/>
<text text-anchor="middle" x="749.72" y="-117" font-family="Helvetica,sans-Serif" font-size="10.00">src/sidebars/GreekSidebar.cpp</text>
</a>
</g>
</g>
<!-- Node16&#45;&gt;Node20 -->
<g id="edge26" class="edge">
<title>Node16&#45;&gt;Node20</title>
<path fill="none" stroke="#63b8ff" d="M530.63,-168.32C582.4,-157.02 663.04,-139.42 710.7,-129.02"/>
<polygon fill="#63b8ff" stroke="#63b8ff" points="529.71,-164.94 520.69,-170.49 531.2,-171.78 529.71,-164.94"/>
</g>
<!-- Node21 -->
<g id="node21" class="node">
<title>Node21</title>
<g id="a_node21"><a xlink:href="wxMaxima_8h.html" target="_top" xlink:title="This file declares the class wxMaxima that contains most of the program&#39;s logic.">
<polygon fill="white" stroke="#666666" points="1633.22,-129 1536.22,-129 1536.22,-110 1633.22,-110 1633.22,-129"/>
<text text-anchor="middle" x="1584.72" y="-117" font-family="Helvetica,sans-Serif" font-size="10.00">src/wxMaxima.h</text>
</a>
</g>
</g>
<!-- Node16&#45;&gt;Node21 -->
<g id="edge27" class="edge">
<title>Node16&#45;&gt;Node21</title>
<path fill="none" stroke="#63b8ff" d="M530.58,-168.61C538.61,-167.19 546.87,-165.92 554.72,-165 930.49,-121.09 1387.93,-119.35 1535.99,-120.08"/>
<polygon fill="#63b8ff" stroke="#63b8ff" points="529.77,-165.2 520.57,-170.46 531.04,-172.08 529.77,-165.2"/>
</g>
<!-- Node25 -->
<g id="node25" class="node">
<title>Node25</title>
<g id="a_node25"><a xlink:href="wxMaximaFrame_8cpp.html" target="_top" xlink:title="This file defines the class wxMaximaFrame.">
<polygon fill="white" stroke="#666666" points="649.22,-129 510.22,-129 510.22,-110 649.22,-110 649.22,-129"/>
<text text-anchor="middle" x="579.72" y="-117" font-family="Helvetica,sans-Serif" font-size="10.00">src/wxMaximaFrame.cpp</text>
</a>
</g>
</g>
<!-- Node16&#45;&gt;Node25 -->
<g id="edge39" class="edge">
<title>Node16&#45;&gt;Node25</title>
<path fill="none" stroke="#63b8ff" d="M504.97,-165.12C523.66,-153.96 549.32,-138.64 565.2,-129.17"/>
<polygon fill="#63b8ff" stroke="#63b8ff" points="502.97,-162.24 496.18,-170.37 506.56,-168.25 502.97,-162.24"/>
</g>
<!-- Node18&#45;&gt;Node12 -->
<g id="edge24" class="edge">
<title>Node18&#45;&gt;Node12</title>
<path fill="none" stroke="#63b8ff" d="M1355.86,-55.63C1357.16,-55.42 1358.45,-55.2 1359.72,-55 1454.81,-39.65 1566.96,-23.88 1625.18,-15.88"/>
<polygon fill="#63b8ff" stroke="#63b8ff" points="1355.06,-52.22 1345.78,-57.34 1356.23,-59.12 1355.06,-52.22"/>
</g>
<!-- Node18&#45;&gt;Node13 -->
<g id="edge25" class="edge">
<title>Node18&#45;&gt;Node13</title>
<path fill="none" stroke="#63b8ff" d="M1356.14,-58.7C1368.01,-57.45 1380.85,-56.14 1392.72,-55 1558.27,-39.08 1754.36,-22.61 1847.45,-14.93"/>
<polygon fill="#63b8ff" stroke="#63b8ff" points="1355.57,-55.24 1345.99,-59.77 1356.3,-62.2 1355.57,-55.24"/>
</g>
<!-- Node19 -->
<g id="node19" class="node">
<title>Node19</title>
<g id="a_node19"><a xlink:href="MaximaManual_8cpp.html" target="_top" xlink:title="This file defines the class MaximaManual.">
<polygon fill="white" stroke="#666666" points="1376.72,-19 1246.72,-19 1246.72,0 1376.72,0 1376.72,-19"/>
<text text-anchor="middle" x="1311.72" y="-7" font-family="Helvetica,sans-Serif" font-size="10.00">src/MaximaManual.cpp</text>
</a>
</g>
</g>
<!-- Node18&#45;&gt;Node19 -->
<g id="edge23" class="edge">
<title>Node18&#45;&gt;Node19</title>
<path fill="none" stroke="#63b8ff" d="M1311.72,-44.66C1311.72,-35.93 1311.72,-25.99 1311.72,-19.09"/>
<polygon fill="#63b8ff" stroke="#63b8ff" points="1308.22,-44.75 1311.72,-54.75 1315.22,-44.75 1308.22,-44.75"/>
</g>
<!-- Node21&#45;&gt;Node6 -->
<g id="edge30" class="edge">
<title>Node21&#45;&gt;Node6</title>
<path fill="none" stroke="#63b8ff" d="M1643.71,-114.85C1750.8,-108.05 1984.26,-92.46 2180.72,-74 2185.15,-73.58 2189.73,-73.13 2194.34,-72.65"/>
<polygon fill="#63b8ff" stroke="#63b8ff" points="1643.2,-111.37 1633.44,-115.5 1643.64,-118.36 1643.2,-111.37"/>
</g>
<!-- Node21&#45;&gt;Node7 -->
<g id="edge31" class="edge">
<title>Node21&#45;&gt;Node7</title>
<path fill="none" stroke="#63b8ff" d="M1643.45,-115.54C1768.83,-109.1 2071.95,-92.85 2325.72,-74 2328.8,-73.77 2331.94,-73.53 2335.12,-73.28"/>
<polygon fill="#63b8ff" stroke="#63b8ff" points="1643.11,-112.05 1633.3,-116.06 1643.46,-119.04 1643.11,-112.05"/>
</g>
<!-- Node21&#45;&gt;Node8 -->
<g id="edge34" class="edge">
<title>Node21&#45;&gt;Node8</title>
<path fill="none" stroke="#63b8ff" d="M1525.84,-115.77C1327.61,-106.56 686.25,-76.77 496.85,-67.97"/>
<polygon fill="#63b8ff" stroke="#63b8ff" points="1525.9,-119.27 1536.05,-116.24 1526.23,-112.28 1525.9,-119.27"/>
</g>
<!-- Node21&#45;&gt;Node11 -->
<g id="edge28" class="edge">
<title>Node21&#45;&gt;Node11</title>
<path fill="none" stroke="#63b8ff" d="M1643.69,-117.56C1780.18,-114.85 2109.15,-105.15 2147.72,-74 2164.37,-60.55 2166.85,-33.12 2166.97,-19.13"/>
<polygon fill="#63b8ff" stroke="#63b8ff" points="1643.35,-114.06 1633.42,-117.76 1643.49,-121.06 1643.35,-114.06"/>
</g>
<!-- Node21&#45;&gt;Node12 -->
<g id="edge36" class="edge">
<title>Node21&#45;&gt;Node12</title>
<path fill="none" stroke="#63b8ff" d="M1526,-117.45C1456.01,-114.15 1353.17,-101.54 1392.72,-55 1422.07,-20.45 1557.01,-12.67 1625.13,-10.95"/>
<polygon fill="#63b8ff" stroke="#63b8ff" points="1525.92,-120.95 1536.06,-117.88 1526.22,-113.96 1525.92,-120.95"/>
</g>
<!-- Node21&#45;&gt;Node13 -->
<g id="edge38" class="edge">
<title>Node21&#45;&gt;Node13</title>
<path fill="none" stroke="#63b8ff" d="M1643.34,-108.88C1682.17,-101.57 1733.83,-90.02 1777.72,-74 1783.27,-71.97 1852.66,-36.01 1885.14,-19.12"/>
<polygon fill="#63b8ff" stroke="#63b8ff" points="1642.46,-105.48 1633.26,-110.74 1643.73,-112.37 1642.46,-105.48"/>
</g>
<!-- Node21&#45;&gt;Node17 -->
<g id="edge35" class="edge">
<title>Node21&#45;&gt;Node17</title>
<path fill="none" stroke="#63b8ff" d="M1525.89,-114.46C1383.91,-104.71 1023.35,-79.96 876.46,-69.88"/>
<polygon fill="#63b8ff" stroke="#63b8ff" points="1525.91,-117.97 1536.13,-115.16 1526.39,-110.99 1525.91,-117.97"/>
</g>
<!-- Node21&#45;&gt;Node18 -->
<g id="edge37" class="edge">
<title>Node21&#45;&gt;Node18</title>
<path fill="none" stroke="#63b8ff" d="M1530.95,-108.06C1476.04,-97.4 1392.46,-81.18 1345.96,-72.15"/>
<polygon fill="#63b8ff" stroke="#63b8ff" points="1530.37,-111.51 1540.85,-109.98 1531.7,-104.64 1530.37,-111.51"/>
</g>
<!-- Node22 -->
<g id="node22" class="node">
<title>Node22</title>
<g id="a_node22"><a xlink:href="MaximaEvaluator_8cpp.html" target="_top" xlink:title="Implements the evaluation&#45;queue driver extracted from the wxMaxima god class.">
<polygon fill="white" stroke="#666666" points="1964.72,-74 1824.72,-74 1824.72,-55 1964.72,-55 1964.72,-74"/>
<text text-anchor="middle" x="1894.72" y="-62" font-family="Helvetica,sans-Serif" font-size="10.00">src/MaximaEvaluator.cpp</text>
</a>
</g>
</g>
<!-- Node21&#45;&gt;Node22 -->
<g id="edge29" class="edge">
<title>Node21&#45;&gt;Node22</title>
<path fill="none" stroke="#63b8ff" d="M1643.65,-108.42C1701.92,-98.46 1790.08,-83.39 1844.94,-74.01"/>
<polygon fill="#63b8ff" stroke="#63b8ff" points="1642.76,-105.03 1633.49,-110.16 1643.94,-111.93 1642.76,-105.03"/>
</g>
<!-- Node23 -->
<g id="node23" class="node">
<title>Node23</title>
<g id="a_node23"><a xlink:href="MaximaProcessManager_8cpp.html" target="_top" xlink:title="Implements the Maxima process/socket lifecycle extracted from the wxMaxima god class.">
<polygon fill="white" stroke="#666666" points="1575.22,-74 1402.22,-74 1402.22,-55 1575.22,-55 1575.22,-74"/>
<text text-anchor="middle" x="1488.72" y="-62" font-family="Helvetica,sans-Serif" font-size="10.00">src/MaximaProcessManager.cpp</text>
</a>
</g>
</g>
<!-- Node21&#45;&gt;Node23 -->
<g id="edge32" class="edge">
<title>Node21&#45;&gt;Node23</title>
<path fill="none" stroke="#63b8ff" d="M1560.2,-104.97C1542.65,-95.28 1519.55,-82.52 1504.42,-74.17"/>
<polygon fill="#63b8ff" stroke="#63b8ff" points="1558.85,-108.22 1569.29,-109.98 1562.23,-102.09 1558.85,-108.22"/>
</g>
<!-- Node24 -->
<g id="node24" class="node">
<title>Node24</title>
<g id="a_node24"><a xlink:href="MaximaResponseReader_8cpp.html" target="_top" xlink:title="Implements the Maxima&#45;response handlers extracted from the wxMaxima god class.">
<polygon fill="white" stroke="#666666" points="1768.22,-74 1593.22,-74 1593.22,-55 1768.22,-55 1768.22,-74"/>
<text text-anchor="middle" x="1680.72" y="-62" font-family="Helvetica,sans-Serif" font-size="10.00">src/MaximaResponseReader.cpp</text>
</a>
</g>
</g>
<!-- Node21&#45;&gt;Node24 -->
<g id="edge33" class="edge">
<title>Node21&#45;&gt;Node24</title>
<path fill="none" stroke="#63b8ff" d="M1609.23,-104.97C1626.78,-95.28 1649.89,-82.52 1665.01,-74.17"/>
<polygon fill="#63b8ff" stroke="#63b8ff" points="1607.2,-102.09 1600.14,-109.98 1610.59,-108.22 1607.2,-102.09"/>
</g>
</g>
</svg>
