<?xml version="1.0" encoding="UTF-8" standalone="no"?>
<!DOCTYPE svg PUBLIC "-//W3C//DTD SVG 1.1//EN"
 "http://www.w3.org/Graphics/SVG/1.1/DTD/svg11.dtd">
<!-- Generated by graphviz version 2.43.0 (0)
 -->
<!-- Title: src/BackgroundQueue.h Pages: 1 -->
<svg width="2563pt" height="533pt"
 viewBox="0.00 0.00 2562.51 533.00" xmlns="http://www.w3.org/2000/svg" xmlns:xlink="http://www.w3.org/1999/xlink">
<g id="graph0" class="graph" transform="scale(1 1) rotate(0) translate(4 529)">
<title>src/BackgroundQueue.h</title>
<!-- Node1 -->
<g id="node1" class="node">
<title>Node1</title>
<g id="a_node1"><a xlink:title="A priority work&#45;queue thread pool for offloading work to background threads.">
<polygon fill="#999999" stroke="#666666" points="1375.51,-525 1243.51,-525 1243.51,-506 1375.51,-506 1375.51,-525"/>
<text text-anchor="middle" x="1309.51" y="-513" font-family="Helvetica,sans-Serif" font-size="10.00">src/BackgroundQueue.h</text>
</a>
</g>
</g>
<!-- Node2 -->
<g id="node2" class="node">
<title>Node2</title>
<g id="a_node2"><a xlink:href="BackgroundQueue_8cpp.html" target="_top" xlink:title="A priority work&#45;queue thread pool for offloading work to background threads.">
<polygon fill="white" stroke="#666666" points="1318.01,-470 1175.01,-470 1175.01,-451 1318.01,-451 1318.01,-470"/>
<text text-anchor="middle" x="1246.51" y="-458" font-family="Helvetica,sans-Serif" font-size="10.00">src/BackgroundQueue.cpp</text>
</a>
</g>
</g>
<!-- Node1&#45;&gt;Node2 -->
<g id="edge1" class="edge">
<title>Node1&#45;&gt;Node2</title>
<path fill="none" stroke="#63b8ff" d="M1291.47,-499.32C1280.24,-489.87 1266.19,-478.06 1256.82,-470.17"/>
<polygon fill="#63b8ff" stroke="#63b8ff" points="1289.49,-502.23 1299.39,-505.98 1293.99,-496.87 1289.49,-502.23"/>
</g>
<!-- Node3 -->
<g id="node3" class="node">
<title>Node3</title>
<g id="a_node3"><a xlink:href="Image_8h.html" target="_top" xlink:title="This file declares the class Image.">
<polygon fill="white" stroke="#666666" points="1410.51,-470 1336.51,-470 1336.51,-451 1410.51,-451 1410.51,-470"/>
<text text-anchor="middle" x="1373.51" y="-458" font-family="Helvetica,sans-Serif" font-size="10.00">src/Image.h</text>
</a>
</g>
</g>
<!-- Node1&#45;&gt;Node3 -->
<g id="edge2" class="edge">
<title>Node1&#45;&gt;Node3</title>
<path fill="none" stroke="#63b8ff" d="M1327.5,-499.6C1338.97,-490.11 1353.43,-478.13 1363.04,-470.17"/>
<polygon fill="#63b8ff" stroke="#63b8ff" points="1325.27,-496.91 1319.8,-505.98 1329.73,-502.3 1325.27,-496.91"/>
</g>
<!-- Node4 -->
<g id="node4" class="node">
<title>Node4</title>
<g id="a_node4"><a xlink:href="Image_8cpp.html" target="_top" xlink:title="This file declares the class Image.">
<polygon fill="white" stroke="#666666" points="1057.01,-415 972.01,-415 972.01,-396 1057.01,-396 1057.01,-415"/>
<text text-anchor="middle" x="1014.51" y="-403" font-family="Helvetica,sans-Serif" font-size="10.00">src/Image.cpp</text>
</a>
</g>
</g>
<!-- Node3&#45;&gt;Node4 -->
<g id="edge3" class="edge">
<title>Node3&#45;&gt;Node4</title>
<path fill="none" stroke="#63b8ff" d="M1326.38,-450.88C1210.23,-432.35 1179.14,-431.97 1066.51,-415 1063.44,-414.54 1060.26,-414.05 1057.07,-413.54"/>
<polygon fill="#63b8ff" stroke="#63b8ff" points="1325.95,-454.36 1336.38,-452.49 1327.06,-447.45 1325.95,-454.36"/>
</g>
<!-- Node5 -->
<g id="node5" class="node">
<title>Node5</title>
<g id="a_node5"><a xlink:href="StatusBar_8cpp.html" target="_top" xlink:title="This file defines the contents of the class StatusBar that represents wxMaxima&#39;s status bar.">
<polygon fill="white" stroke="#666666" points="1176.01,-415 1075.01,-415 1075.01,-396 1176.01,-396 1176.01,-415"/>
<text text-anchor="middle" x="1125.51" y="-403" font-family="Helvetica,sans-Serif" font-size="10.00">src/StatusBar.cpp</text>
</a>
</g>
</g>
<!-- Node3&#45;&gt;Node5 -->
<g id="edge4" class="edge">
<title>Node3&#45;&gt;Node5</title>
<path fill="none" stroke="#63b8ff" d="M1326.54,-449.46C1279.93,-439.5 1209.3,-424.41 1165.36,-415.02"/>
<polygon fill="#63b8ff" stroke="#63b8ff" points="1325.87,-452.9 1336.39,-451.57 1327.34,-446.05 1325.87,-452.9"/>
</g>
<!-- Node6 -->
<g id="node6" class="node">
<title>Node6</title>
<g id="a_node6"><a xlink:href="ToolBar_8cpp.html" target="_top" xlink:title="This file defines the class ToolBar that represents wxMaxima&#39;s main tool bar.">
<polygon fill="white" stroke="#666666" points="1282.01,-250 1193.01,-250 1193.01,-231 1282.01,-231 1282.01,-250"/>
<text text-anchor="middle" x="1237.51" y="-238" font-family="Helvetica,sans-Serif" font-size="10.00">src/ToolBar.cpp</text>
</a>
</g>
</g>
<!-- Node3&#45;&gt;Node6 -->
<g id="edge5" class="edge">
<title>Node3&#45;&gt;Node6</title>
<path fill="none" stroke="#63b8ff" d="M1351.17,-445C1316.29,-420.87 1250.25,-368.76 1224.51,-305 1216.93,-286.22 1226.44,-262.45 1232.75,-250"/>
<polygon fill="#63b8ff" stroke="#63b8ff" points="1349.47,-448.08 1359.72,-450.79 1353.4,-442.28 1349.47,-448.08"/>
</g>
<!-- Node7 -->
<g id="node7" class="node">
<title>Node7</title>
<g id="a_node7"><a xlink:href="AnimationCell_8h.html" target="_top" xlink:title="This file declares the class AnimationCell.">
<polygon fill="white" stroke="#666666" points="1819.01,-360 1682.01,-360 1682.01,-341 1819.01,-341 1819.01,-360"/>
<text text-anchor="middle" x="1750.51" y="-348" font-family="Helvetica,sans-Serif" font-size="10.00">src/cells/AnimationCell.h</text>
</a>
</g>
</g>
<!-- Node3&#45;&gt;Node7 -->
<g id="edge6" class="edge">
<title>Node3&#45;&gt;Node7</title>
<path fill="none" stroke="#63b8ff" d="M1420.79,-454.64C1470.62,-448.66 1550.96,-436.53 1617.51,-415 1662.55,-400.43 1711.95,-373.76 1735.89,-360.08"/>
<polygon fill="#63b8ff" stroke="#63b8ff" points="1420.16,-451.19 1410.64,-455.83 1420.98,-458.14 1420.16,-451.19"/>
</g>
<!-- Node42 -->
<g id="node42" class="node">
<title>Node42</title>
<g id="a_node42"><a xlink:href="ImgCell_8h_source.html" target="_top" xlink:title=" ">
<polygon fill="white" stroke="#666666" points="2281.51,-360 2175.51,-360 2175.51,-341 2281.51,-341 2281.51,-360"/>
<text text-anchor="middle" x="2228.51" y="-348" font-family="Helvetica,sans-Serif" font-size="10.00">src/cells/ImgCell.h</text>
</a>
</g>
</g>
<!-- Node3&#45;&gt;Node42 -->
<g id="edge56" class="edge">
<title>Node3&#45;&gt;Node42</title>
<path fill="none" stroke="#63b8ff" d="M1420.6,-453.55C1567.96,-434.94 2019.72,-377.87 2175.25,-358.23"/>
<polygon fill="#63b8ff" stroke="#63b8ff" points="1420.01,-450.1 1410.53,-454.82 1420.89,-457.04 1420.01,-450.1"/>
</g>
<!-- Node44 -->
<g id="node44" class="node">
<title>Node44</title>
<g id="a_node44"><a xlink:href="ImgCellBase_8h_source.html" target="_top" xlink:title=" ">
<polygon fill="white" stroke="#666666" points="1608.51,-415 1478.51,-415 1478.51,-396 1608.51,-396 1608.51,-415"/>
<text text-anchor="middle" x="1543.51" y="-403" font-family="Helvetica,sans-Serif" font-size="10.00">src/cells/ImgCellBase.h</text>
</a>
</g>
</g>
<!-- Node3&#45;&gt;Node44 -->
<g id="edge66" class="edge">
<title>Node3&#45;&gt;Node44</title>
<path fill="none" stroke="#63b8ff" d="M1410.63,-447.93C1442.38,-438.03 1487.36,-424.01 1515.99,-415.08"/>
<polygon fill="#63b8ff" stroke="#63b8ff" points="1409.33,-444.67 1400.83,-450.98 1411.42,-451.35 1409.33,-444.67"/>
</g>
<!-- Node8 -->
<g id="node8" class="node">
<title>Node8</title>
<g id="a_node8"><a xlink:href="MathParser_8cpp.html" target="_top" xlink:title="This file defines the class MathParser that reads wxmx data and math from Maxima.">
<polygon fill="white" stroke="#666666" points="1886.51,-305 1778.51,-305 1778.51,-286 1886.51,-286 1886.51,-305"/>
<text text-anchor="middle" x="1832.51" y="-293" font-family="Helvetica,sans-Serif" font-size="10.00">src/MathParser.cpp</text>
</a>
</g>
</g>
<!-- Node7&#45;&gt;Node8 -->
<g id="edge7" class="edge">
<title>Node7&#45;&gt;Node8</title>
<path fill="none" stroke="#63b8ff" d="M1772.29,-335.42C1787.17,-325.81 1806.42,-313.37 1819.1,-305.17"/>
<polygon fill="#63b8ff" stroke="#63b8ff" points="1770.19,-332.62 1763.69,-340.98 1773.99,-338.5 1770.19,-332.62"/>
</g>
<!-- Node9 -->
<g id="node9" class="node">
<title>Node9</title>
<g id="a_node9"><a xlink:href="ToolBar_8h.html" target="_top" xlink:title="This file declares the class ToolBar that represents wxMaxima&#39;s main tool bar.">
<polygon fill="white" stroke="#666666" points="1466.51,-305 1388.51,-305 1388.51,-286 1466.51,-286 1466.51,-305"/>
<text text-anchor="middle" x="1427.51" y="-293" font-family="Helvetica,sans-Serif" font-size="10.00">src/ToolBar.h</text>
</a>
</g>
</g>
<!-- Node7&#45;&gt;Node9 -->
<g id="edge8" class="edge">
<title>Node7&#45;&gt;Node9</title>
<path fill="none" stroke="#63b8ff" d="M1688.42,-339.31C1622.92,-328.56 1521.72,-311.96 1466.58,-302.91"/>
<polygon fill="#63b8ff" stroke="#63b8ff" points="1688.18,-342.82 1698.62,-340.98 1689.32,-335.91 1688.18,-342.82"/>
</g>
<!-- Node10 -->
<g id="node10" class="node">
<title>Node10</title>
<g id="a_node10"><a xlink:href="Worksheet_8h.html" target="_top" xlink:title="This file defines the class Worksheet.">
<polygon fill="white" stroke="#666666" points="1471.01,-250 1376.01,-250 1376.01,-231 1471.01,-231 1471.01,-250"/>
<text text-anchor="middle" x="1423.51" y="-238" font-family="Helvetica,sans-Serif" font-size="10.00">src/Worksheet.h</text>
</a>
</g>
</g>
<!-- Node7&#45;&gt;Node10 -->
<g id="edge51" class="edge">
<title>Node7&#45;&gt;Node10</title>
<path fill="none" stroke="#63b8ff" d="M1714.99,-337.77C1648.7,-315.87 1507.64,-269.29 1449.45,-250.07"/>
<polygon fill="#63b8ff" stroke="#63b8ff" points="1713.99,-341.12 1724.58,-340.94 1716.18,-334.48 1713.99,-341.12"/>
</g>
<!-- Node11 -->
<g id="node11" class="node">
<title>Node11</title>
<g id="a_node11"><a xlink:href="Worksheet_8cpp.html" target="_top" xlink:title="This file defines the class Worksheet.">
<polygon fill="white" stroke="#666666" points="2145.51,-74 2039.51,-74 2039.51,-55 2145.51,-55 2145.51,-74"/>
<text text-anchor="middle" x="2092.51" y="-62" font-family="Helvetica,sans-Serif" font-size="10.00">src/Worksheet.cpp</text>
</a>
</g>
</g>
<!-- Node7&#45;&gt;Node11 -->
<g id="edge50" class="edge">
<title>Node7&#45;&gt;Node11</title>
<path fill="none" stroke="#63b8ff" d="M1739.44,-331.73C1732.4,-317.95 1726.36,-299.04 1736.51,-286 1837.91,-155.79 1980.39,-312.26 2096.51,-195 2123.56,-167.69 2120.57,-147.59 2112.51,-110 2109.71,-96.91 2102.75,-83.03 2097.83,-74.32"/>
<polygon fill="#63b8ff" stroke="#63b8ff" points="1736.55,-333.73 1744.52,-340.71 1742.64,-330.29 1736.55,-333.73"/>
</g>
<!-- Node15 -->
<g id="node15" class="node">
<title>Node15</title>
<g id="a_node15"><a xlink:href="wxMaxima_8cpp.html" target="_top" xlink:title="This file defines the contents of the class wxMaxima that contains most of the program&#39;s logic.">
<polygon fill="white" stroke="#666666" points="622.51,-19 514.51,-19 514.51,0 622.51,0 622.51,-19"/>
<text text-anchor="middle" x="568.51" y="-7" font-family="Helvetica,sans-Serif" font-size="10.00">src/wxMaxima.cpp</text>
</a>
</g>
</g>
<!-- Node7&#45;&gt;Node15 -->
<g id="edge55" class="edge">
<title>Node7&#45;&gt;Node15</title>
<path fill="none" stroke="#63b8ff" d="M1750.92,-330.66C1752.3,-316.22 1756.66,-296.95 1769.51,-286 1828.38,-235.85 2408.53,-253.15 2459.51,-195 2468.3,-184.97 2467.18,-175.91 2459.51,-165 2376.69,-47.08 2296.1,-81.8 2154.51,-55 2001.68,-26.07 883.85,-13.55 622.88,-11"/>
<polygon fill="#63b8ff" stroke="#63b8ff" points="1747.4,-330.79 1750.34,-340.97 1754.39,-331.18 1747.4,-330.79"/>
</g>
<!-- Node39 -->
<g id="node39" class="node">
<title>Node39</title>
<g id="a_node39"><a xlink:href="WorksheetExport_8cpp.html" target="_top" xlink:title="The document serializers declared in WorksheetExport.h.">
<polygon fill="white" stroke="#666666" points="1370.01,-305 1233.01,-305 1233.01,-286 1370.01,-286 1370.01,-305"/>
<text text-anchor="middle" x="1301.51" y="-293" font-family="Helvetica,sans-Serif" font-size="10.00">src/WorksheetExport.cpp</text>
</a>
</g>
</g>
<!-- Node7&#45;&gt;Node39 -->
<g id="edge52" class="edge">
<title>Node7&#45;&gt;Node39</title>
<path fill="none" stroke="#63b8ff" d="M1671.67,-340.19C1586.27,-330.11 1451.39,-314.19 1370.19,-304.61"/>
<polygon fill="#63b8ff" stroke="#63b8ff" points="1671.49,-343.7 1681.83,-341.39 1672.31,-336.74 1671.49,-343.7"/>
</g>
<!-- Node40 -->
<g id="node40" class="node">
<title>Node40</title>
<g id="a_node40"><a xlink:href="AnimationCell_8cpp.html" target="_top" xlink:title="This file defines the class AnimationCell.">
<polygon fill="white" stroke="#666666" points="2054.01,-305 1905.01,-305 1905.01,-286 2054.01,-286 2054.01,-305"/>
<text text-anchor="middle" x="1979.51" y="-293" font-family="Helvetica,sans-Serif" font-size="10.00">src/cells/AnimationCell.cpp</text>
</a>
</g>
</g>
<!-- Node7&#45;&gt;Node40 -->
<g id="edge53" class="edge">
<title>Node7&#45;&gt;Node40</title>
<path fill="none" stroke="#63b8ff" d="M1797.22,-338.69C1840.12,-328.76 1902.87,-314.24 1942.43,-305.08"/>
<polygon fill="#63b8ff" stroke="#63b8ff" points="1796.26,-335.32 1787.31,-340.98 1797.84,-342.14 1796.26,-335.32"/>
</g>
<!-- Node41 -->
<g id="node41" class="node">
<title>Node41</title>
<g id="a_node41"><a xlink:href="GroupCell_8cpp.html" target="_top" xlink:title="This file defines the class GroupCell.">
<polygon fill="white" stroke="#666666" points="2200.51,-305 2072.51,-305 2072.51,-286 2200.51,-286 2200.51,-305"/>
<text text-anchor="middle" x="2136.51" y="-293" font-family="Helvetica,sans-Serif" font-size="10.00">src/cells/GroupCell.cpp</text>
</a>
</g>
</g>
<!-- Node7&#45;&gt;Node41 -->
<g id="edge54" class="edge">
<title>Node7&#45;&gt;Node41</title>
<path fill="none" stroke="#63b8ff" d="M1822.49,-339.62C1894.95,-329.67 2005.57,-314.48 2074.33,-305.04"/>
<polygon fill="#63b8ff" stroke="#63b8ff" points="1821.96,-336.16 1812.53,-340.98 1822.91,-343.09 1821.96,-336.16"/>
</g>
<!-- Node9&#45;&gt;Node6 -->
<g id="edge9" class="edge">
<title>Node9&#45;&gt;Node6</title>
<path fill="none" stroke="#63b8ff" d="M1386.94,-283.18C1351.41,-273.27 1300.55,-259.08 1268.28,-250.08"/>
<polygon fill="#63b8ff" stroke="#63b8ff" points="1386.41,-286.67 1396.99,-285.98 1388.29,-279.93 1386.41,-286.67"/>
</g>
<!-- Node9&#45;&gt;Node10 -->
<g id="edge10" class="edge">
<title>Node9&#45;&gt;Node10</title>
<path fill="none" stroke="#63b8ff" d="M1426.09,-275.66C1425.43,-266.93 1424.68,-256.99 1424.16,-250.09"/>
<polygon fill="#63b8ff" stroke="#63b8ff" points="1422.61,-276.04 1426.85,-285.75 1429.59,-275.51 1422.61,-276.04"/>
</g>
<!-- Node27 -->
<g id="node27" class="node">
<title>Node27</title>
<g id="a_node27"><a xlink:href="test__Accessibility_8cpp.html" target="_top" xlink:title="Logic&#45;level regression tests for wxMaxima&#39;s custom wxAccessible classes.">
<polygon fill="white" stroke="#666666" points="189.51,-195 81.51,-195 81.51,-165 189.51,-165 189.51,-195"/>
<text text-anchor="start" x="89.51" y="-183" font-family="Helvetica,sans-Serif" font-size="10.00">test/unit_tests/test</text>
<text text-anchor="middle" x="135.51" y="-172" font-family="Helvetica,sans-Serif" font-size="10.00">_Accessibility.cpp</text>
</a>
</g>
</g>
<!-- Node9&#45;&gt;Node27 -->
<g id="edge49" class="edge">
<title>Node9&#45;&gt;Node27</title>
<path fill="none" stroke="#63b8ff" d="M1405.18,-280.61C1379.05,-265.19 1333.95,-241.16 1291.51,-231 1056.25,-174.68 443.74,-223.49 203.51,-195 198.97,-194.46 194.27,-193.77 189.57,-192.99"/>
<polygon fill="#63b8ff" stroke="#63b8ff" points="1403.53,-283.7 1413.91,-285.85 1407.14,-277.7 1403.53,-283.7"/>
</g>
<!-- Node10&#45;&gt;Node11 -->
<g id="edge11" class="edge">
<title>Node10&#45;&gt;Node11</title>
<path fill="none" stroke="#63b8ff" d="M1481.13,-239.6C1632.11,-239.32 2030.56,-234.76 2073.51,-195 2108.2,-162.9 2099.06,-97.47 2094.42,-74.06"/>
<polygon fill="#63b8ff" stroke="#63b8ff" points="1481.12,-236.1 1471.12,-239.62 1481.13,-243.1 1481.12,-236.1"/>
</g>
<!-- Node12 -->
<g id="node12" class="node">
<title>Node12</title>
<g id="a_node12"><a xlink:href="WorksheetContextMenu_8cpp.html" target="_top" xlink:title="The worksheet&#39;s right&#45;click context menu (see WorksheetContextMenu.h).">
<polygon fill="white" stroke="#666666" points="601.01,-189.5 430.01,-189.5 430.01,-170.5 601.01,-170.5 601.01,-189.5"/>
<text text-anchor="middle" x="515.51" y="-177.5" font-family="Helvetica,sans-Serif" font-size="10.00">src/WorksheetContextMenu.cpp</text>
</a>
</g>
</g>
<!-- Node10&#45;&gt;Node12 -->
<g id="edge12" class="edge">
<title>Node10&#45;&gt;Node12</title>
<path fill="none" stroke="#63b8ff" d="M1365.57,-233.17C1357.17,-232.37 1348.63,-231.61 1340.51,-231 1016.6,-206.44 933.8,-226.72 610.51,-195 596.41,-193.62 581.2,-191.61 567.17,-189.54"/>
<polygon fill="#63b8ff" stroke="#63b8ff" points="1365.42,-236.67 1375.71,-234.17 1366.1,-229.71 1365.42,-236.67"/>
</g>
<!-- Node13 -->
<g id="node13" class="node">
<title>Node13</title>
<g id="a_node13"><a xlink:href="ConfigDialogue_8h.html" target="_top" xlink:title="The configuration dialog.">
<polygon fill="white" stroke="#666666" points="173.01,-74 18.01,-74 18.01,-55 173.01,-55 173.01,-74"/>
<text text-anchor="middle" x="95.51" y="-62" font-family="Helvetica,sans-Serif" font-size="10.00">src/dialogs/ConfigDialogue.h</text>
</a>
</g>
</g>
<!-- Node10&#45;&gt;Node13 -->
<g id="edge13" class="edge">
<title>Node10&#45;&gt;Node13</title>
<path fill="none" stroke="#63b8ff" d="M1365.85,-233.59C1354.8,-232.6 1343.3,-231.68 1332.51,-231 1212.58,-223.41 363.86,-237.68 251.51,-195 216.47,-181.69 131.75,-100.88 104.27,-74.11"/>
<polygon fill="#63b8ff" stroke="#63b8ff" points="1365.58,-237.08 1375.85,-234.51 1366.22,-230.11 1365.58,-237.08"/>
</g>
<!-- Node16 -->
<g id="node16" class="node">
<title>Node16</title>
<g id="a_node16"><a xlink:href="DiffFrame_8h_source.html" target="_top" xlink:title=" ">
<polygon fill="white" stroke="#666666" points="320.01,-74 191.01,-74 191.01,-55 320.01,-55 320.01,-74"/>
<text text-anchor="middle" x="255.51" y="-62" font-family="Helvetica,sans-Serif" font-size="10.00">src/dialogs/DiffFrame.h</text>
</a>
</g>
</g>
<!-- Node10&#45;&gt;Node16 -->
<g id="edge16" class="edge">
<title>Node10&#45;&gt;Node16</title>
<path fill="none" stroke="#63b8ff" d="M1365.85,-233.6C1354.8,-232.61 1343.3,-231.69 1332.51,-231 1273.82,-227.26 318.36,-234.2 274.51,-195 239.28,-163.5 248.76,-97.7 253.55,-74.13"/>
<polygon fill="#63b8ff" stroke="#63b8ff" points="1365.58,-237.08 1375.85,-234.51 1366.22,-230.11 1365.58,-237.08"/>
</g>
<!-- Node17 -->
<g id="node17" class="node">
<title>Node17</title>
<g id="a_node17"><a xlink:href="Printout_8cpp.html" target="_top" xlink:title="This file defines the class MathPrintOut.">
<polygon fill="white" stroke="#666666" points="774.01,-189.5 619.01,-189.5 619.01,-170.5 774.01,-170.5 774.01,-189.5"/>
<text text-anchor="middle" x="696.51" y="-177.5" font-family="Helvetica,sans-Serif" font-size="10.00">src/graphical_io/Printout.cpp</text>
</a>
</g>
</g>
<!-- Node10&#45;&gt;Node17 -->
<g id="edge19" class="edge">
<title>Node10&#45;&gt;Node17</title>
<path fill="none" stroke="#63b8ff" d="M1365.57,-233.29C1357.17,-232.47 1348.62,-231.68 1340.51,-231 1093.3,-210.36 1030.03,-222.74 783.51,-195 770.74,-193.56 756.99,-191.56 744.27,-189.52"/>
<polygon fill="#63b8ff" stroke="#63b8ff" points="1365.4,-236.79 1375.7,-234.29 1366.1,-229.82 1365.4,-236.79"/>
</g>
<!-- Node18 -->
<g id="node18" class="node">
<title>Node18</title>
<g id="a_node18"><a xlink:href="wxMaximaFrame_8h.html" target="_top" xlink:title="This file declares the class wxMaximaFrame.">
<polygon fill="white" stroke="#666666" points="411.51,-189.5 283.51,-189.5 283.51,-170.5 411.51,-170.5 411.51,-189.5"/>
<text text-anchor="middle" x="347.51" y="-177.5" font-family="Helvetica,sans-Serif" font-size="10.00">src/wxMaximaFrame.h</text>
</a>
</g>
</g>
<!-- Node10&#45;&gt;Node18 -->
<g id="edge20" class="edge">
<title>Node10&#45;&gt;Node18</title>
<path fill="none" stroke="#63b8ff" d="M1365.58,-233.1C1357.18,-232.31 1348.63,-231.57 1340.51,-231 932.77,-202.16 827.66,-241.12 421.51,-195 410.21,-193.72 398.04,-191.69 386.91,-189.57"/>
<polygon fill="#63b8ff" stroke="#63b8ff" points="1365.42,-236.6 1375.72,-234.09 1366.1,-229.63 1365.42,-236.6"/>
</g>
<!-- Node10&#45;&gt;Node27 -->
<g id="edge37" class="edge">
<title>Node10&#45;&gt;Node27</title>
<path fill="none" stroke="#63b8ff" d="M1365.58,-233.04C1357.18,-232.26 1348.63,-231.54 1340.51,-231 836.06,-197.23 705.62,-254.19 203.51,-195 198.96,-194.46 194.27,-193.78 189.57,-193"/>
<polygon fill="#63b8ff" stroke="#63b8ff" points="1365.43,-236.54 1375.72,-234.03 1366.11,-229.58 1365.43,-236.54"/>
</g>
<!-- Node28 -->
<g id="node28" class="node">
<title>Node28</title>
<g id="a_node28"><a xlink:href="test__EditorCellInvariants_8cpp.html" target="_top" xlink:title="Hardening tests for EditorCell&#39;s text&#45;editing core.">
<polygon fill="white" stroke="#666666" points="930.51,-195 792.51,-195 792.51,-165 930.51,-165 930.51,-195"/>
<text text-anchor="start" x="800.51" y="-183" font-family="Helvetica,sans-Serif" font-size="10.00">test/unit_tests/test</text>
<text text-anchor="middle" x="861.51" y="-172" font-family="Helvetica,sans-Serif" font-size="10.00">_EditorCellInvariants.cpp</text>
</a>
</g>
</g>
<!-- Node10&#45;&gt;Node28 -->
<g id="edge38" class="edge">
<title>Node10&#45;&gt;Node28</title>
<path fill="none" stroke="#63b8ff" d="M1365.55,-233.47C1357.15,-232.63 1348.61,-231.78 1340.51,-231 1162.84,-213.91 1117.44,-218.6 940.51,-195 937.34,-194.58 934.1,-194.12 930.82,-193.63"/>
<polygon fill="#63b8ff" stroke="#63b8ff" points="1365.38,-236.97 1375.68,-234.5 1366.09,-230.01 1365.38,-236.97"/>
</g>
<!-- Node29 -->
<g id="node29" class="node">
<title>Node29</title>
<g id="a_node29"><a xlink:href="test__GroupCellLayout_8cpp.html" target="_top" xlink:title="Regression tests for the GroupCell &lt;&#45;&gt; EditorCell layout coupling.">
<polygon fill="white" stroke="#666666" points="1072.01,-195 949.01,-195 949.01,-165 1072.01,-165 1072.01,-195"/>
<text text-anchor="start" x="957.01" y="-183" font-family="Helvetica,sans-Serif" font-size="10.00">test/unit_tests/test</text>
<text text-anchor="middle" x="1010.51" y="-172" font-family="Helvetica,sans-Serif" font-size="10.00">_GroupCellLayout.cpp</text>
</a>
</g>
</g>
<!-- Node10&#45;&gt;Node29 -->
<g id="edge39" class="edge">
<title>Node10&#45;&gt;Node29</title>
<path fill="none" stroke="#63b8ff" d="M1365.69,-233.14C1297.55,-225.38 1181,-211.26 1081.51,-195 1078.41,-194.49 1075.24,-193.95 1072.04,-193.39"/>
<polygon fill="#63b8ff" stroke="#63b8ff" points="1365.46,-236.64 1375.79,-234.29 1366.25,-229.68 1365.46,-236.64"/>
</g>
<!-- Node30 -->
<g id="node30" class="node">
<title>Node30</title>
<g id="a_node30"><a xlink:href="test__LayoutInvariants_8cpp.html" target="_top" xlink:title="Layout idempotency invariants.">
<polygon fill="white" stroke="#666666" points="1214.51,-195 1090.51,-195 1090.51,-165 1214.51,-165 1214.51,-195"/>
<text text-anchor="start" x="1098.51" y="-183" font-family="Helvetica,sans-Serif" font-size="10.00">test/unit_tests/test</text>
<text text-anchor="middle" x="1152.51" y="-172" font-family="Helvetica,sans-Serif" font-size="10.00">_LayoutInvariants.cpp</text>
</a>
</g>
</g>
<!-- Node10&#45;&gt;Node30 -->
<g id="edge40" class="edge">
<title>Node10&#45;&gt;Node30</title>
<path fill="none" stroke="#63b8ff" d="M1374.32,-228.88C1329.47,-219.2 1263.02,-204.85 1214.54,-194.39"/>
<polygon fill="#63b8ff" stroke="#63b8ff" points="1373.59,-232.3 1384.11,-230.99 1375.07,-225.46 1373.59,-232.3"/>
</g>
<!-- Node31 -->
<g id="node31" class="node">
<title>Node31</title>
<g id="a_node31"><a xlink:href="test__TreeUndo_8cpp.html" target="_top" xlink:title="Regression tests for the worksheet&#39;s cell&#45;tree undo/redo (the TreeUndo_* subsystem of Worksheet).">
<polygon fill="white" stroke="#666666" points="1340.51,-195 1232.51,-195 1232.51,-165 1340.51,-165 1340.51,-195"/>
<text text-anchor="start" x="1240.51" y="-183" font-family="Helvetica,sans-Serif" font-size="10.00">test/unit_tests/test</text>
<text text-anchor="middle" x="1286.51" y="-172" font-family="Helvetica,sans-Serif" font-size="10.00">_TreeUndo.cpp</text>
</a>
</g>
</g>
<!-- Node10&#45;&gt;Node31 -->
<g id="edge41" class="edge">
<title>Node10&#45;&gt;Node31</title>
<path fill="none" stroke="#63b8ff" d="M1394.13,-226.95C1372.19,-217.59 1342.2,-204.78 1319.45,-195.06"/>
<polygon fill="#63b8ff" stroke="#63b8ff" points="1393.02,-230.29 1403.59,-230.99 1395.77,-223.85 1393.02,-230.29"/>
</g>
<!-- Node32 -->
<g id="node32" class="node">
<title>Node32</title>
<g id="a_node32"><a xlink:href="test__WXMRoundtrip_8cpp.html" target="_top" xlink:title="Regression tests for images surviving the .wxm serialization round&#45;trip.">
<polygon fill="white" stroke="#666666" points="2450.01,-195 2335.01,-195 2335.01,-165 2450.01,-165 2450.01,-195"/>
<text text-anchor="start" x="2343.01" y="-183" font-family="Helvetica,sans-Serif" font-size="10.00">test/unit_tests/test</text>
<text text-anchor="middle" x="2392.51" y="-172" font-family="Helvetica,sans-Serif" font-size="10.00">_WXMRoundtrip.cpp</text>
</a>
</g>
</g>
<!-- Node10&#45;&gt;Node32 -->
<g id="edge42" class="edge">
<title>Node10&#45;&gt;Node32</title>
<path fill="none" stroke="#63b8ff" d="M1481.58,-239.84C1625.41,-240 2009.52,-236.16 2326.51,-195 2329.18,-194.65 2331.91,-194.26 2334.66,-193.82"/>
<polygon fill="#63b8ff" stroke="#63b8ff" points="1481.24,-236.34 1471.24,-239.82 1481.23,-243.34 1481.24,-236.34"/>
</g>
<!-- Node33 -->
<g id="node33" class="node">
<title>Node33</title>
<g id="a_node33"><a xlink:href="test__WXMXRoundtrip_8cpp.html" target="_top" xlink:title="Round&#45;trip tests for the .wxmx content.xml (the MathML&#45;like math format).">
<polygon fill="white" stroke="#666666" points="1480.51,-195 1358.51,-195 1358.51,-165 1480.51,-165 1480.51,-195"/>
<text text-anchor="start" x="1366.51" y="-183" font-family="Helvetica,sans-Serif" font-size="10.00">test/unit_tests/test</text>
<text text-anchor="middle" x="1419.51" y="-172" font-family="Helvetica,sans-Serif" font-size="10.00">_WXMXRoundtrip.cpp</text>
</a>
</g>
</g>
<!-- Node10&#45;&gt;Node33 -->
<g id="edge43" class="edge">
<title>Node10&#45;&gt;Node33</title>
<path fill="none" stroke="#63b8ff" d="M1422.22,-220.65C1421.66,-212.36 1421,-202.78 1420.48,-195.11"/>
<polygon fill="#63b8ff" stroke="#63b8ff" points="1418.75,-221.13 1422.92,-230.87 1425.73,-220.65 1418.75,-221.13"/>
</g>
<!-- Node34 -->
<g id="node34" class="node">
<title>Node34</title>
<g id="a_node34"><a xlink:href="test__WorksheetContextMenu_8cpp.html" target="_top" xlink:title="Regression tests for the worksheet&#39;s right&#45;click context menu.">
<polygon fill="white" stroke="#666666" points="2317.01,-195 2158.01,-195 2158.01,-165 2317.01,-165 2317.01,-195"/>
<text text-anchor="start" x="2166.01" y="-183" font-family="Helvetica,sans-Serif" font-size="10.00">test/unit_tests/test</text>
<text text-anchor="middle" x="2237.51" y="-172" font-family="Helvetica,sans-Serif" font-size="10.00">_WorksheetContextMenu.cpp</text>
</a>
</g>
</g>
<!-- Node10&#45;&gt;Node34 -->
<g id="edge44" class="edge">
<title>Node10&#45;&gt;Node34</title>
<path fill="none" stroke="#63b8ff" d="M1481.4,-236.54C1599.21,-230.33 1875.23,-214.88 2106.51,-195 2123.15,-193.57 2140.95,-191.82 2157.9,-190.04"/>
<polygon fill="#63b8ff" stroke="#63b8ff" points="1480.98,-233.06 1471.18,-237.08 1481.35,-240.05 1480.98,-233.06"/>
</g>
<!-- Node35 -->
<g id="node35" class="node">
<title>Node35</title>
<g id="a_node35"><a xlink:href="test__WorksheetCursor_8cpp.html" target="_top" xlink:title="Pins the worksheet&#39;s cursor model before it is gathered into a cursor class.">
<polygon fill="white" stroke="#666666" points="1624.01,-195 1499.01,-195 1499.01,-165 1624.01,-165 1624.01,-195"/>
<text text-anchor="start" x="1507.01" y="-183" font-family="Helvetica,sans-Serif" font-size="10.00">test/unit_tests/test</text>
<text text-anchor="middle" x="1561.51" y="-172" font-family="Helvetica,sans-Serif" font-size="10.00">_WorksheetCursor.cpp</text>
</a>
</g>
</g>
<!-- Node10&#45;&gt;Node35 -->
<g id="edge45" class="edge">
<title>Node10&#45;&gt;Node35</title>
<path fill="none" stroke="#63b8ff" d="M1452.81,-227.08C1474.93,-217.7 1505.32,-204.82 1528.34,-195.06"/>
<polygon fill="#63b8ff" stroke="#63b8ff" points="1451.42,-223.87 1443.58,-230.99 1454.15,-230.31 1451.42,-223.87"/>
</g>
<!-- Node36 -->
<g id="node36" class="node">
<title>Node36</title>
<g id="a_node36"><a xlink:href="test__WorksheetEvalQueue_8cpp.html" target="_top" xlink:title="Pins the worksheet&#39;s &quot;add cells to the evaluation queue&quot; behavior before the Add*ToEvaluationQueue fa...">
<polygon fill="white" stroke="#666666" points="1788.51,-195 1642.51,-195 1642.51,-165 1788.51,-165 1788.51,-195"/>
<text text-anchor="start" x="1650.51" y="-183" font-family="Helvetica,sans-Serif" font-size="10.00">test/unit_tests/test</text>
<text text-anchor="middle" x="1715.51" y="-172" font-family="Helvetica,sans-Serif" font-size="10.00">_WorksheetEvalQueue.cpp</text>
</a>
</g>
</g>
<!-- Node10&#45;&gt;Node36 -->
<g id="edge46" class="edge">
<title>Node10&#45;&gt;Node36</title>
<path fill="none" stroke="#63b8ff" d="M1476.02,-228.98C1523.41,-219.49 1593.48,-205.45 1645.59,-195.01"/>
<polygon fill="#63b8ff" stroke="#63b8ff" points="1475.09,-225.6 1465.97,-230.99 1476.47,-232.46 1475.09,-225.6"/>
</g>
<!-- Node37 -->
<g id="node37" class="node">
<title>Node37</title>
<g id="a_node37"><a xlink:href="test__WorksheetExport_8cpp.html" target="_top" xlink:title="Safety net for the export/serialization cluster of Worksheet.">
<polygon fill="white" stroke="#666666" points="1932.01,-195 1807.01,-195 1807.01,-165 1932.01,-165 1932.01,-195"/>
<text text-anchor="start" x="1815.01" y="-183" font-family="Helvetica,sans-Serif" font-size="10.00">test/unit_tests/test</text>
<text text-anchor="middle" x="1869.51" y="-172" font-family="Helvetica,sans-Serif" font-size="10.00">_WorksheetExport.cpp</text>
</a>
</g>
</g>
<!-- Node10&#45;&gt;Node37 -->
<g id="edge47" class="edge">
<title>Node10&#45;&gt;Node37</title>
<path fill="none" stroke="#63b8ff" d="M1481.19,-233.97C1554.81,-226.6 1685.99,-212.45 1797.51,-195 1800.53,-194.53 1803.62,-194.02 1806.73,-193.49"/>
<polygon fill="#63b8ff" stroke="#63b8ff" points="1480.8,-230.49 1471.19,-234.96 1481.49,-237.46 1480.8,-230.49"/>
</g>
<!-- Node38 -->
<g id="node38" class="node">
<title>Node38</title>
<g id="a_node38"><a xlink:href="test__WorksheetFind_8cpp.html" target="_top" xlink:title="Pins the worksheet&#39;s find/replace behavior before the search engine is extracted into WorksheetSearch...">
<polygon fill="white" stroke="#666666" points="2064.51,-195 1950.51,-195 1950.51,-165 2064.51,-165 2064.51,-195"/>
<text text-anchor="start" x="1958.51" y="-183" font-family="Helvetica,sans-Serif" font-size="10.00">test/unit_tests/test</text>
<text text-anchor="middle" x="2007.51" y="-172" font-family="Helvetica,sans-Serif" font-size="10.00">_WorksheetFind.cpp</text>
</a>
</g>
</g>
<!-- Node10&#45;&gt;Node38 -->
<g id="edge48" class="edge">
<title>Node10&#45;&gt;Node38</title>
<path fill="none" stroke="#63b8ff" d="M1481.31,-236.87C1577.3,-231.97 1775.47,-219.65 1941.51,-195 1944.41,-194.57 1947.37,-194.09 1950.35,-193.58"/>
<polygon fill="#63b8ff" stroke="#63b8ff" points="1481.05,-233.37 1471.23,-237.37 1481.4,-240.37 1481.05,-233.37"/>
</g>
<!-- Node14 -->
<g id="node14" class="node">
<title>Node14</title>
<g id="a_node14"><a xlink:href="main_8cpp.html" target="_top" xlink:title="The file that defines the starting point of the program.">
<polygon fill="white" stroke="#666666" points="212.01,-19 133.01,-19 133.01,0 212.01,0 212.01,-19"/>
<text text-anchor="middle" x="172.51" y="-7" font-family="Helvetica,sans-Serif" font-size="10.00">src/main.cpp</text>
</a>
</g>
</g>
<!-- Node13&#45;&gt;Node14 -->
<g id="edge14" class="edge">
<title>Node13&#45;&gt;Node14</title>
<path fill="none" stroke="#63b8ff" d="M116.36,-49.15C130.28,-39.57 148.12,-27.29 159.92,-19.17"/>
<polygon fill="#63b8ff" stroke="#63b8ff" points="114.14,-46.43 107.88,-54.98 118.11,-52.2 114.14,-46.43"/>
</g>
<!-- Node13&#45;&gt;Node15 -->
<g id="edge15" class="edge">
<title>Node13&#45;&gt;Node15</title>
<path fill="none" stroke="#63b8ff" d="M181.58,-53.86C278.51,-42.99 433.09,-25.67 514.43,-16.56"/>
<polygon fill="#63b8ff" stroke="#63b8ff" points="181.06,-50.39 171.51,-54.98 181.84,-57.35 181.06,-50.39"/>
</g>
<!-- Node16&#45;&gt;Node14 -->
<g id="edge17" class="edge">
<title>Node16&#45;&gt;Node14</title>
<path fill="none" stroke="#63b8ff" d="M233.47,-49.42C218.41,-39.81 198.93,-27.37 186.09,-19.17"/>
<polygon fill="#63b8ff" stroke="#63b8ff" points="231.87,-52.55 242.18,-54.98 235.63,-46.65 231.87,-52.55"/>
</g>
<!-- Node16&#45;&gt;Node15 -->
<g id="edge18" class="edge">
<title>Node16&#45;&gt;Node15</title>
<path fill="none" stroke="#63b8ff" d="M315.69,-53.31C374.47,-43.36 462.9,-28.38 518.09,-19.04"/>
<polygon fill="#63b8ff" stroke="#63b8ff" points="315.08,-49.86 305.8,-54.98 316.25,-56.77 315.08,-49.86"/>
</g>
<!-- Node18&#45;&gt;Node11 -->
<g id="edge22" class="edge">
<title>Node18&#45;&gt;Node11</title>
<path fill="none" stroke="#63b8ff" d="M397.63,-168.63C405.59,-167.24 413.76,-165.96 421.51,-165 503.67,-154.82 1763.57,-83.93 2039.41,-68.47"/>
<polygon fill="#63b8ff" stroke="#63b8ff" points="396.9,-165.2 387.69,-170.43 398.16,-172.09 396.9,-165.2"/>
</g>
<!-- Node19 -->
<g id="node19" class="node">
<title>Node19</title>
<g id="a_node19"><a xlink:href="AutocompletePopup_8cpp.html" target="_top" xlink:title="This file defines the class AutocompletePopup.">
<polygon fill="white" stroke="#666666" points="590.51,-129 438.51,-129 438.51,-110 590.51,-110 590.51,-129"/>
<text text-anchor="middle" x="514.51" y="-117" font-family="Helvetica,sans-Serif" font-size="10.00">src/AutocompletePopup.cpp</text>
</a>
</g>
</g>
<!-- Node18&#45;&gt;Node19 -->
<g id="edge21" class="edge">
<title>Node18&#45;&gt;Node19</title>
<path fill="none" stroke="#63b8ff" d="M381.28,-167.17C413.58,-155.86 461.49,-139.07 490.2,-129.02"/>
<polygon fill="#63b8ff" stroke="#63b8ff" points="380.08,-163.88 371.8,-170.49 382.39,-170.49 380.08,-163.88"/>
</g>
<!-- Node20 -->
<g id="node20" class="node">
<title>Node20</title>
<g id="a_node20"><a xlink:href="EditorCell_8cpp.html" target="_top" xlink:title="This file defines the class EditorCell.">
<polygon fill="white" stroke="#666666" points="903.01,-74 776.01,-74 776.01,-55 903.01,-55 903.01,-74"/>
<text text-anchor="middle" x="839.51" y="-62" font-family="Helvetica,sans-Serif" font-size="10.00">src/cells/EditorCell.cpp</text>
</a>
</g>
</g>
<!-- Node18&#45;&gt;Node20 -->
<g id="edge23" class="edge">
<title>Node18&#45;&gt;Node20</title>
<path fill="none" stroke="#63b8ff" d="M398.18,-168.6C405.97,-167.24 413.94,-165.98 421.51,-165 478.73,-157.62 900.16,-171.19 939.51,-129 962.94,-103.89 913.25,-84.52 875.86,-74.08"/>
<polygon fill="#63b8ff" stroke="#63b8ff" points="397.3,-165.2 388.09,-170.43 398.55,-172.09 397.3,-165.2"/>
</g>
<!-- Node21 -->
<g id="node21" class="node">
<title>Node21</title>
<g id="a_node21"><a xlink:href="main_8h.html" target="_top" xlink:title="This file declares the class wxMaxima that contains most of the program&#39;s logic.">
<polygon fill="white" stroke="#666666" points="406.51,-74 338.51,-74 338.51,-55 406.51,-55 406.51,-74"/>
<text text-anchor="middle" x="372.51" y="-62" font-family="Helvetica,sans-Serif" font-size="10.00">src/main.h</text>
</a>
</g>
</g>
<!-- Node18&#45;&gt;Node21 -->
<g id="edge24" class="edge">
<title>Node18&#45;&gt;Node21</title>
<path fill="none" stroke="#63b8ff" d="M331.21,-163.09C318.92,-149.07 305.58,-128.12 314.51,-110 322.65,-93.5 340.18,-81.41 353.85,-74.03"/>
<polygon fill="#63b8ff" stroke="#63b8ff" points="328.75,-165.58 338.16,-170.47 333.85,-160.79 328.75,-165.58"/>
</g>
<!-- Node23 -->
<g id="node23" class="node">
<title>Node23</title>
<g id="a_node23"><a xlink:href="GreekSidebar_8cpp.html" target="_top" xlink:title="This file defines the class GreekSidebar.">
<polygon fill="white" stroke="#666666" points="772.51,-129 608.51,-129 608.51,-110 772.51,-110 772.51,-129"/>
<text text-anchor="middle" x="690.51" y="-117" font-family="Helvetica,sans-Serif" font-size="10.00">src/sidebars/GreekSidebar.cpp</text>
</a>
</g>
</g>
<!-- Node18&#45;&gt;Node23 -->
<g id="edge28" class="edge">
<title>Node18&#45;&gt;Node23</title>
<path fill="none" stroke="#63b8ff" d="M401.96,-168.55C408.54,-167.33 415.18,-166.12 421.51,-165 496.09,-151.78 582.52,-137.7 636.86,-129"/>
<polygon fill="#63b8ff" stroke="#63b8ff" points="400.89,-165.19 391.7,-170.47 402.17,-172.07 400.89,-165.19"/>
</g>
<!-- Node24 -->
<g id="node24" class="node">
<title>Node24</title>
<g id="a_node24"><a xlink:href="wxMaxima_8h.html" target="_top" xlink:title="This file declares the class wxMaxima that contains most of the program&#39;s logic.">
<polygon fill="white" stroke="#666666" points="420.01,-129 323.01,-129 323.01,-110 420.01,-110 420.01,-129"/>
<text text-anchor="middle" x="371.51" y="-117" font-family="Helvetica,sans-Serif" font-size="10.00">src/wxMaxima.h</text>
</a>
</g>
</g>
<!-- Node18&#45;&gt;Node24 -->
<g id="edge29" class="edge">
<title>Node18&#45;&gt;Node24</title>
<path fill="none" stroke="#63b8ff" d="M354.97,-160.82C359.3,-150.28 364.55,-137.48 367.96,-129.17"/>
<polygon fill="#63b8ff" stroke="#63b8ff" points="351.61,-159.79 351.05,-170.37 358.09,-162.44 351.61,-159.79"/>
</g>
<!-- Node26 -->
<g id="node26" class="node">
<title>Node26</title>
<g id="a_node26"><a xlink:href="wxMaximaFrame_8cpp.html" target="_top" xlink:title="This file defines the class wxMaximaFrame.">
<polygon fill="white" stroke="#666666" points="930.01,-129 791.01,-129 791.01,-110 930.01,-110 930.01,-129"/>
<text text-anchor="middle" x="860.51" y="-117" font-family="Helvetica,sans-Serif" font-size="10.00">src/wxMaximaFrame.cpp</text>
</a>
</g>
</g>
<!-- Node18&#45;&gt;Node26 -->
<g id="edge36" class="edge">
<title>Node18&#45;&gt;Node26</title>
<path fill="none" stroke="#63b8ff" d="M399.3,-168.61C406.73,-167.29 414.31,-166.04 421.51,-165 580.66,-142.03 621.57,-145.6 781.51,-129 784.53,-128.69 787.62,-128.36 790.73,-128.04"/>
<polygon fill="#63b8ff" stroke="#63b8ff" points="398.49,-165.2 389.28,-170.44 399.75,-172.08 398.49,-165.2"/>
</g>
<!-- Node21&#45;&gt;Node14 -->
<g id="edge26" class="edge">
<title>Node21&#45;&gt;Node14</title>
<path fill="none" stroke="#63b8ff" d="M330.29,-52.31C292.87,-42.39 239.01,-28.12 204.9,-19.08"/>
<polygon fill="#63b8ff" stroke="#63b8ff" points="329.82,-55.81 340.38,-54.98 331.61,-49.04 329.82,-55.81"/>
</g>
<!-- Node21&#45;&gt;Node15 -->
<g id="edge27" class="edge">
<title>Node21&#45;&gt;Node15</title>
<path fill="none" stroke="#63b8ff" d="M413.89,-52.31C450.57,-42.39 503.35,-28.12 536.78,-19.08"/>
<polygon fill="#63b8ff" stroke="#63b8ff" points="412.74,-49 404,-54.98 414.57,-55.75 412.74,-49"/>
</g>
<!-- Node22 -->
<g id="node22" class="node">
<title>Node22</title>
<g id="a_node22"><a xlink:href="MaximaManual_8cpp.html" target="_top" xlink:title="This file defines the class MaximaManual.">
<polygon fill="white" stroke="#666666" points="437.51,-19 307.51,-19 307.51,0 437.51,0 437.51,-19"/>
<text text-anchor="middle" x="372.51" y="-7" font-family="Helvetica,sans-Serif" font-size="10.00">src/MaximaManual.cpp</text>
</a>
</g>
</g>
<!-- Node21&#45;&gt;Node22 -->
<g id="edge25" class="edge">
<title>Node21&#45;&gt;Node22</title>
<path fill="none" stroke="#63b8ff" d="M372.51,-44.66C372.51,-35.93 372.51,-25.99 372.51,-19.09"/>
<polygon fill="#63b8ff" stroke="#63b8ff" points="369.01,-44.75 372.51,-54.75 376.01,-44.75 369.01,-44.75"/>
</g>
<!-- Node24&#45;&gt;Node11 -->
<g id="edge31" class="edge">
<title>Node24&#45;&gt;Node11</title>
<path fill="none" stroke="#63b8ff" d="M430.41,-110.07C773.96,-81.78 1795.01,-68.83 2039.5,-66.07"/>
<polygon fill="#63b8ff" stroke="#63b8ff" points="429.87,-106.61 420.2,-110.94 430.46,-113.58 429.87,-106.61"/>
</g>
<!-- Node24&#45;&gt;Node14 -->
<g id="edge33" class="edge">
<title>Node24&#45;&gt;Node14</title>
<path fill="none" stroke="#63b8ff" d="M312.99,-115.51C215.45,-109.92 28.32,-96.39 8.51,-74 -28.82,-31.81 72.84,-17.45 132.54,-12.72"/>
<polygon fill="#63b8ff" stroke="#63b8ff" points="312.82,-119 323,-116.07 313.21,-112.02 312.82,-119"/>
</g>
<!-- Node24&#45;&gt;Node15 -->
<g id="edge35" class="edge">
<title>Node24&#45;&gt;Node15</title>
<path fill="none" stroke="#63b8ff" d="M430.37,-109.41C498.96,-98.54 603.76,-80.93 609.51,-74 624.6,-55.83 598.2,-31.82 581.2,-19.16"/>
<polygon fill="#63b8ff" stroke="#63b8ff" points="429.44,-106.01 420.11,-111.03 430.53,-112.93 429.44,-106.01"/>
</g>
<!-- Node24&#45;&gt;Node20 -->
<g id="edge32" class="edge">
<title>Node24&#45;&gt;Node20</title>
<path fill="none" stroke="#63b8ff" d="M430.28,-109.95C559.09,-93.66 697.23,-79.45 775.86,-71.66"/>
<polygon fill="#63b8ff" stroke="#63b8ff" points="429.71,-106.49 420.23,-111.23 430.59,-113.44 429.71,-106.49"/>
</g>
<!-- Node24&#45;&gt;Node21 -->
<g id="edge34" class="edge">
<title>Node24&#45;&gt;Node21</title>
<path fill="none" stroke="#63b8ff" d="M371.87,-99.66C372.03,-90.93 372.22,-80.99 372.35,-74.09"/>
<polygon fill="#63b8ff" stroke="#63b8ff" points="368.37,-99.68 371.68,-109.75 375.37,-99.82 368.37,-99.68"/>
</g>
<!-- Node25 -->
<g id="node25" class="node">
<title>Node25</title>
<g id="a_node25"><a xlink:href="MaximaCommandMenus_8cpp.html" target="_top" xlink:title="Implementation of the menu&#45;command handlers extracted from wxMaxima &#45; see MaximaCommandMenus....">
<polygon fill="white" stroke="#666666" points="600.51,-74 424.51,-74 424.51,-55 600.51,-55 600.51,-74"/>
<text text-anchor="middle" x="512.51" y="-62" font-family="Helvetica,sans-Serif" font-size="10.00">src/MaximaCommandMenus.cpp</text>
</a>
</g>
</g>
<!-- Node24&#45;&gt;Node25 -->
<g id="edge30" class="edge">
<title>Node24&#45;&gt;Node25</title>
<path fill="none" stroke="#63b8ff" d="M403.65,-106.42C429.81,-96.59 466.1,-82.95 489.45,-74.17"/>
<polygon fill="#63b8ff" stroke="#63b8ff" points="402.3,-103.19 394.17,-109.98 404.76,-109.74 402.3,-103.19"/>
</g>
<!-- Node42&#45;&gt;Node8 -->
<g id="edge57" class="edge">
<title>Node42&#45;&gt;Node8</title>
<path fill="none" stroke="#63b8ff" d="M2165.05,-341.01C2087.96,-330.69 1959.27,-313.46 1886.66,-303.75"/>
<polygon fill="#63b8ff" stroke="#63b8ff" points="2164.73,-344.49 2175.11,-342.35 2165.66,-337.56 2164.73,-344.49"/>
</g>
<!-- Node42&#45;&gt;Node10 -->
<g id="edge59" class="edge">
<title>Node42&#45;&gt;Node10</title>
<path fill="none" stroke="#63b8ff" d="M2228.36,-330.83C2227.15,-316.19 2222.9,-296.57 2209.51,-286 2151.62,-240.29 1632.45,-240.03 1471.12,-241.07"/>
<polygon fill="#63b8ff" stroke="#63b8ff" points="2224.87,-330.99 2228.8,-340.83 2231.86,-330.69 2224.87,-330.99"/>
</g>
<!-- Node42&#45;&gt;Node11 -->
<g id="edge58" class="edge">
<title>Node42&#45;&gt;Node11</title>
<path fill="none" stroke="#63b8ff" d="M2291.71,-348.51C2365.77,-343.6 2478.51,-322.78 2478.51,-241.5 2478.51,-241.5 2478.51,-241.5 2478.51,-179 2478.51,-110.46 2251.67,-80.3 2145.78,-69.96"/>
<polygon fill="#63b8ff" stroke="#63b8ff" points="2291.31,-345.02 2281.53,-349.1 2291.72,-352.01 2291.31,-345.02"/>
</g>
<!-- Node42&#45;&gt;Node15 -->
<g id="edge63" class="edge">
<title>Node42&#45;&gt;Node15</title>
<path fill="none" stroke="#63b8ff" d="M2292,-345.4C2341.5,-340.4 2411.07,-329.35 2467.51,-305 2511.47,-286.04 2554.51,-289.37 2554.51,-241.5 2554.51,-241.5 2554.51,-241.5 2554.51,-118.5 2554.51,19.96 2387.05,-71.01 2249.51,-55 1923.46,-17.05 873.14,-11.44 622.56,-10.63"/>
<polygon fill="#63b8ff" stroke="#63b8ff" points="2291.38,-341.94 2281.75,-346.37 2292.04,-348.91 2291.38,-341.94"/>
</g>
<!-- Node42&#45;&gt;Node32 -->
<g id="edge64" class="edge">
<title>Node42&#45;&gt;Node32</title>
<path fill="none" stroke="#63b8ff" d="M2291.97,-343.33C2341.82,-337.01 2405.44,-325.2 2421.51,-305 2447.53,-272.3 2419.32,-220.3 2402.78,-195.32"/>
<polygon fill="#63b8ff" stroke="#63b8ff" points="2291.38,-339.87 2281.88,-344.56 2292.23,-346.82 2291.38,-339.87"/>
</g>
<!-- Node42&#45;&gt;Node34 -->
<g id="edge65" class="edge">
<title>Node42&#45;&gt;Node34</title>
<path fill="none" stroke="#63b8ff" d="M2229.53,-330.51C2231.35,-296.4 2235.14,-225.51 2236.75,-195.22"/>
<polygon fill="#63b8ff" stroke="#63b8ff" points="2226.01,-330.74 2228.97,-340.91 2233,-331.11 2226.01,-330.74"/>
</g>
<!-- Node42&#45;&gt;Node40 -->
<g id="edge60" class="edge">
<title>Node42&#45;&gt;Node40</title>
<path fill="none" stroke="#63b8ff" d="M2178.61,-338.88C2131.94,-328.94 2063.12,-314.3 2019.83,-305.08"/>
<polygon fill="#63b8ff" stroke="#63b8ff" points="2178,-342.33 2188.51,-340.98 2179.45,-335.48 2178,-342.33"/>
</g>
<!-- Node42&#45;&gt;Node41 -->
<g id="edge61" class="edge">
<title>Node42&#45;&gt;Node41</title>
<path fill="none" stroke="#63b8ff" d="M2205.02,-335.97C2188.2,-326.28 2166.06,-313.52 2151.56,-305.17"/>
<polygon fill="#63b8ff" stroke="#63b8ff" points="2203.32,-339.03 2213.73,-340.98 2206.81,-332.96 2203.32,-339.03"/>
</g>
<!-- Node43 -->
<g id="node43" class="node">
<title>Node43</title>
<g id="a_node43"><a xlink:href="ImgCell_8cpp.html" target="_top" xlink:title="This file defines the class ImgCell.">
<polygon fill="white" stroke="#666666" points="2412.01,-305 2295.01,-305 2295.01,-286 2412.01,-286 2412.01,-305"/>
<text text-anchor="middle" x="2353.51" y="-293" font-family="Helvetica,sans-Serif" font-size="10.00">src/cells/ImgCell.cpp</text>
</a>
</g>
</g>
<!-- Node42&#45;&gt;Node43 -->
<g id="edge62" class="edge">
<title>Node42&#45;&gt;Node43</title>
<path fill="none" stroke="#63b8ff" d="M2257.93,-337.03C2281.04,-327.23 2312.64,-313.83 2333.06,-305.17"/>
<polygon fill="#63b8ff" stroke="#63b8ff" points="2256.44,-333.86 2248.6,-340.98 2259.17,-340.3 2256.44,-333.86"/>
</g>
<!-- Node44&#45;&gt;Node7 -->
<g id="edge69" class="edge">
<title>Node44&#45;&gt;Node7</title>
<path fill="none" stroke="#63b8ff" d="M1586.72,-393.44C1625.47,-383.52 1681.54,-369.16 1716.99,-360.08"/>
<polygon fill="#63b8ff" stroke="#63b8ff" points="1585.59,-390.11 1576.77,-395.98 1587.33,-396.89 1585.59,-390.11"/>
</g>
<!-- Node44&#45;&gt;Node10 -->
<g id="edge67" class="edge">
<title>Node44&#45;&gt;Node10</title>
<path fill="none" stroke="#63b8ff" d="M1531.88,-387.46C1526.42,-379.27 1519.94,-369.24 1514.51,-360 1495.68,-327.95 1498.72,-315.05 1475.51,-286 1464.09,-271.7 1447.6,-258.5 1436.26,-250.25"/>
<polygon fill="#63b8ff" stroke="#63b8ff" points="1529,-389.45 1537.49,-395.79 1534.8,-385.54 1529,-389.45"/>
</g>
<!-- Node44&#45;&gt;Node39 -->
<g id="edge68" class="edge">
<title>Node44&#45;&gt;Node39</title>
<path fill="none" stroke="#63b8ff" d="M1514.84,-391.71C1464.85,-369.4 1363.02,-323.95 1320.66,-305.05"/>
<polygon fill="#63b8ff" stroke="#63b8ff" points="1513.56,-394.97 1524.12,-395.84 1516.41,-388.57 1513.56,-394.97"/>
</g>
<!-- Node44&#45;&gt;Node42 -->
<g id="edge70" class="edge">
<title>Node44&#45;&gt;Node42</title>
<path fill="none" stroke="#63b8ff" d="M1618.76,-398.68C1758.42,-387.87 2054.51,-364.96 2175.41,-355.61"/>
<polygon fill="#63b8ff" stroke="#63b8ff" points="1618.27,-395.21 1608.57,-399.47 1618.81,-402.18 1618.27,-395.21"/>
</g>
<!-- Node45 -->
<g id="node45" class="node">
<title>Node45</title>
<g id="a_node45"><a xlink:href="ImgCellBase_8cpp.html" target="_top" xlink:title="This file defines the class ImgCellBase.">
<polygon fill="white" stroke="#666666" points="1664.01,-360 1523.01,-360 1523.01,-341 1664.01,-341 1664.01,-360"/>
<text text-anchor="middle" x="1593.51" y="-348" font-family="Helvetica,sans-Serif" font-size="10.00">src/cells/ImgCellBase.cpp</text>
</a>
</g>
</g>
<!-- Node44&#45;&gt;Node45 -->
<g id="edge71" class="edge">
<title>Node44&#45;&gt;Node45</title>
<path fill="none" stroke="#63b8ff" d="M1558.85,-388.24C1567.62,-378.95 1578.25,-367.68 1585.41,-360.09"/>
<polygon fill="#63b8ff" stroke="#63b8ff" points="1556.09,-386.07 1551.77,-395.75 1561.18,-390.88 1556.09,-386.07"/>
</g>
</g>
</svg>
