<?xml version="1.0" encoding="UTF-8" standalone="no"?>
<!DOCTYPE svg PUBLIC "-//W3C//DTD SVG 1.1//EN"
 "http://www.w3.org/Graphics/SVG/1.1/DTD/svg11.dtd">
<!-- Generated by graphviz version 2.43.0 (0)
 -->
<!-- Title: src/BackgroundQueue.h Pages: 1 -->
<svg width="1578pt" height="533pt"
 viewBox="0.00 0.00 1577.50 533.00" xmlns="http://www.w3.org/2000/svg" xmlns:xlink="http://www.w3.org/1999/xlink">
<g id="graph0" class="graph" transform="scale(1 1) rotate(0) translate(4 529)">
<title>src/BackgroundQueue.h</title>
<!-- Node1 -->
<g id="node1" class="node">
<title>Node1</title>
<g id="a_node1"><a xlink:title="A priority work&#45;queue thread pool for offloading work to background threads.">
<polygon fill="#999999" stroke="#666666" points="707,-525 575,-525 575,-506 707,-506 707,-525"/>
<text text-anchor="middle" x="641" y="-513" font-family="Helvetica,sans-Serif" font-size="10.00">src/BackgroundQueue.h</text>
</a>
</g>
</g>
<!-- Node2 -->
<g id="node2" class="node">
<title>Node2</title>
<g id="a_node2"><a xlink:href="BackgroundQueue_8cpp.html" target="_top" xlink:title="A priority work&#45;queue thread pool for offloading work to background threads.">
<polygon fill="white" stroke="#666666" points="649.5,-470 506.5,-470 506.5,-451 649.5,-451 649.5,-470"/>
<text text-anchor="middle" x="578" y="-458" font-family="Helvetica,sans-Serif" font-size="10.00">src/BackgroundQueue.cpp</text>
</a>
</g>
</g>
<!-- Node1&#45;&gt;Node2 -->
<g id="edge1" class="edge">
<title>Node1&#45;&gt;Node2</title>
<path fill="none" stroke="#63b8ff" d="M622.96,-499.32C611.73,-489.87 597.68,-478.06 588.31,-470.17"/>
<polygon fill="#63b8ff" stroke="#63b8ff" points="620.97,-502.23 630.88,-505.98 625.48,-496.87 620.97,-502.23"/>
</g>
<!-- Node3 -->
<g id="node3" class="node">
<title>Node3</title>
<g id="a_node3"><a xlink:href="Image_8h.html" target="_top" xlink:title="This file declares the class Image.">
<polygon fill="white" stroke="#666666" points="742,-470 668,-470 668,-451 742,-451 742,-470"/>
<text text-anchor="middle" x="705" y="-458" font-family="Helvetica,sans-Serif" font-size="10.00">src/Image.h</text>
</a>
</g>
</g>
<!-- Node1&#45;&gt;Node3 -->
<g id="edge2" class="edge">
<title>Node1&#45;&gt;Node3</title>
<path fill="none" stroke="#63b8ff" d="M658.99,-499.6C670.46,-490.11 684.91,-478.13 694.53,-470.17"/>
<polygon fill="#63b8ff" stroke="#63b8ff" points="656.75,-496.91 651.28,-505.98 661.22,-502.3 656.75,-496.91"/>
</g>
<!-- Node4 -->
<g id="node4" class="node">
<title>Node4</title>
<g id="a_node4"><a xlink:href="Image_8cpp.html" target="_top" xlink:title="This file declares the class Image.">
<polygon fill="white" stroke="#666666" points="441.5,-415 356.5,-415 356.5,-396 441.5,-396 441.5,-415"/>
<text text-anchor="middle" x="399" y="-403" font-family="Helvetica,sans-Serif" font-size="10.00">src/Image.cpp</text>
</a>
</g>
</g>
<!-- Node3&#45;&gt;Node4 -->
<g id="edge3" class="edge">
<title>Node3&#45;&gt;Node4</title>
<path fill="none" stroke="#63b8ff" d="M657.84,-450.81C575.67,-436.23 491.36,-421.96 441.82,-413.65"/>
<polygon fill="#63b8ff" stroke="#63b8ff" points="657.39,-454.29 667.85,-452.59 658.62,-447.4 657.39,-454.29"/>
</g>
<!-- Node5 -->
<g id="node5" class="node">
<title>Node5</title>
<g id="a_node5"><a xlink:href="StatusBar_8cpp.html" target="_top" xlink:title="This file defines the contents of the class StatusBar that represents wxMaxima&#39;s status bar.">
<polygon fill="white" stroke="#666666" points="560.5,-415 459.5,-415 459.5,-396 560.5,-396 560.5,-415"/>
<text text-anchor="middle" x="510" y="-403" font-family="Helvetica,sans-Serif" font-size="10.00">src/StatusBar.cpp</text>
</a>
</g>
</g>
<!-- Node3&#45;&gt;Node5 -->
<g id="edge4" class="edge">
<title>Node3&#45;&gt;Node5</title>
<path fill="none" stroke="#63b8ff" d="M663.83,-448.31C627.34,-438.39 574.83,-424.12 541.58,-415.08"/>
<polygon fill="#63b8ff" stroke="#63b8ff" points="663.1,-451.74 673.67,-450.98 664.94,-444.98 663.1,-451.74"/>
</g>
<!-- Node6 -->
<g id="node6" class="node">
<title>Node6</title>
<g id="a_node6"><a xlink:href="ToolBar_8cpp.html" target="_top" xlink:title="This file defines the class ToolBar that represents wxMaxima&#39;s main tool bar.">
<polygon fill="white" stroke="#666666" points="623.5,-250 534.5,-250 534.5,-231 623.5,-231 623.5,-250"/>
<text text-anchor="middle" x="579" y="-238" font-family="Helvetica,sans-Serif" font-size="10.00">src/ToolBar.cpp</text>
</a>
</g>
</g>
<!-- Node3&#45;&gt;Node6 -->
<g id="edge5" class="edge">
<title>Node3&#45;&gt;Node6</title>
<path fill="none" stroke="#63b8ff" d="M693.2,-442.38C674.11,-414.34 635.82,-356.59 608,-305 597.76,-286.01 587.74,-262.73 582.58,-250.3"/>
<polygon fill="#63b8ff" stroke="#63b8ff" points="690.35,-444.42 698.89,-450.69 696.13,-440.46 690.35,-444.42"/>
</g>
<!-- Node7 -->
<g id="node7" class="node">
<title>Node7</title>
<g id="a_node7"><a xlink:href="AnimationCell_8h.html" target="_top" xlink:title="This file declares the class AnimationCell.">
<polygon fill="white" stroke="#666666" points="1047.5,-360 910.5,-360 910.5,-341 1047.5,-341 1047.5,-360"/>
<text text-anchor="middle" x="979" y="-348" font-family="Helvetica,sans-Serif" font-size="10.00">src/cells/AnimationCell.h</text>
</a>
</g>
</g>
<!-- Node3&#45;&gt;Node7 -->
<g id="edge6" class="edge">
<title>Node3&#45;&gt;Node7</title>
<path fill="none" stroke="#63b8ff" d="M752.04,-454.19C791.86,-448.39 849.69,-436.86 896,-415 926.19,-400.75 955.86,-374.18 970.16,-360.36"/>
<polygon fill="#63b8ff" stroke="#63b8ff" points="751.49,-450.73 742.07,-455.58 752.46,-457.66 751.49,-450.73"/>
</g>
<!-- Node32 -->
<g id="node32" class="node">
<title>Node32</title>
<g id="a_node32"><a xlink:href="ImgCell_8h_source.html" target="_top" xlink:title=" ">
<polygon fill="white" stroke="#666666" points="1363,-360 1257,-360 1257,-341 1363,-341 1363,-360"/>
<text text-anchor="middle" x="1310" y="-348" font-family="Helvetica,sans-Serif" font-size="10.00">src/cells/ImgCell.h</text>
</a>
</g>
</g>
<!-- Node3&#45;&gt;Node32 -->
<g id="edge47" class="edge">
<title>Node3&#45;&gt;Node32</title>
<path fill="none" stroke="#63b8ff" d="M752.46,-451.03C865.38,-430.87 1149.06,-380.23 1262.27,-360.02"/>
<polygon fill="#63b8ff" stroke="#63b8ff" points="751.62,-447.62 742.39,-452.83 752.85,-454.51 751.62,-447.62"/>
</g>
<!-- Node34 -->
<g id="node34" class="node">
<title>Node34</title>
<g id="a_node34"><a xlink:href="ImgCellBase_8h_source.html" target="_top" xlink:title=" ">
<polygon fill="white" stroke="#666666" points="887,-415 757,-415 757,-396 887,-396 887,-415"/>
<text text-anchor="middle" x="822" y="-403" font-family="Helvetica,sans-Serif" font-size="10.00">src/cells/ImgCellBase.h</text>
</a>
</g>
</g>
<!-- Node3&#45;&gt;Node34 -->
<g id="edge55" class="edge">
<title>Node3&#45;&gt;Node34</title>
<path fill="none" stroke="#63b8ff" d="M733.11,-446.77C754.69,-436.99 783.91,-423.75 802.86,-415.17"/>
<polygon fill="#63b8ff" stroke="#63b8ff" points="731.46,-443.67 723.8,-450.98 734.35,-450.05 731.46,-443.67"/>
</g>
<!-- Node8 -->
<g id="node8" class="node">
<title>Node8</title>
<g id="a_node8"><a xlink:href="MathParser_8cpp.html" target="_top" xlink:title="This file defines the class MathParser that reads wxmx data and math from Maxima.">
<polygon fill="white" stroke="#666666" points="1282,-305 1174,-305 1174,-286 1282,-286 1282,-305"/>
<text text-anchor="middle" x="1228" y="-293" font-family="Helvetica,sans-Serif" font-size="10.00">src/MathParser.cpp</text>
</a>
</g>
</g>
<!-- Node7&#45;&gt;Node8 -->
<g id="edge7" class="edge">
<title>Node7&#45;&gt;Node8</title>
<path fill="none" stroke="#63b8ff" d="M1028.9,-338.88C1075.57,-328.94 1144.39,-314.3 1187.68,-305.08"/>
<polygon fill="#63b8ff" stroke="#63b8ff" points="1028.06,-335.48 1019.01,-340.98 1029.52,-342.33 1028.06,-335.48"/>
</g>
<!-- Node9 -->
<g id="node9" class="node">
<title>Node9</title>
<g id="a_node9"><a xlink:href="ToolBar_8h.html" target="_top" xlink:title="This file declares the class ToolBar that represents wxMaxima&#39;s main tool bar.">
<polygon fill="white" stroke="#666666" points="695,-305 617,-305 617,-286 695,-286 695,-305"/>
<text text-anchor="middle" x="656" y="-293" font-family="Helvetica,sans-Serif" font-size="10.00">src/ToolBar.h</text>
</a>
</g>
</g>
<!-- Node7&#45;&gt;Node9 -->
<g id="edge8" class="edge">
<title>Node7&#45;&gt;Node9</title>
<path fill="none" stroke="#63b8ff" d="M916.91,-339.31C851.41,-328.56 750.2,-311.96 695.07,-302.91"/>
<polygon fill="#63b8ff" stroke="#63b8ff" points="916.67,-342.82 927.1,-340.98 917.8,-335.91 916.67,-342.82"/>
</g>
<!-- Node10 -->
<g id="node10" class="node">
<title>Node10</title>
<g id="a_node10"><a xlink:href="Worksheet_8h.html" target="_top" xlink:title="This file defines the class Worksheet.">
<polygon fill="white" stroke="#666666" points="775.5,-250 680.5,-250 680.5,-231 775.5,-231 775.5,-250"/>
<text text-anchor="middle" x="728" y="-238" font-family="Helvetica,sans-Serif" font-size="10.00">src/Worksheet.h</text>
</a>
</g>
</g>
<!-- Node7&#45;&gt;Node10 -->
<g id="edge43" class="edge">
<title>Node7&#45;&gt;Node10</title>
<path fill="none" stroke="#63b8ff" d="M949.59,-336.84C897.85,-314.58 791.89,-268.99 747.86,-250.05"/>
<polygon fill="#63b8ff" stroke="#63b8ff" points="948.31,-340.11 958.88,-340.84 951.08,-333.68 948.31,-340.11"/>
</g>
<!-- Node11 -->
<g id="node11" class="node">
<title>Node11</title>
<g id="a_node11"><a xlink:href="Worksheet_8cpp.html" target="_top" xlink:title="This file defines the class Worksheet.">
<polygon fill="white" stroke="#666666" points="1225,-74 1119,-74 1119,-55 1225,-55 1225,-74"/>
<text text-anchor="middle" x="1172" y="-62" font-family="Helvetica,sans-Serif" font-size="10.00">src/Worksheet.cpp</text>
</a>
</g>
</g>
<!-- Node7&#45;&gt;Node11 -->
<g id="edge42" class="edge">
<title>Node7&#45;&gt;Node11</title>
<path fill="none" stroke="#63b8ff" d="M965.64,-332.36C957.3,-319.45 949.3,-301.4 956,-286 970.3,-253.13 985.24,-250.99 1015,-231 1046.7,-209.71 1061.6,-216.72 1093,-195 1127.38,-171.22 1140.33,-165.88 1160,-129 1169.5,-111.18 1171.57,-87.03 1171.97,-74.25"/>
<polygon fill="#63b8ff" stroke="#63b8ff" points="962.94,-334.6 971.58,-340.74 968.66,-330.55 962.94,-334.6"/>
</g>
<!-- Node13 -->
<g id="node13" class="node">
<title>Node13</title>
<g id="a_node13"><a xlink:href="GroupCell_8cpp.html" target="_top" xlink:title="This file defines the class GroupCell.">
<polygon fill="white" stroke="#666666" points="1320,-189.5 1192,-189.5 1192,-170.5 1320,-170.5 1320,-189.5"/>
<text text-anchor="middle" x="1256" y="-177.5" font-family="Helvetica,sans-Serif" font-size="10.00">src/cells/GroupCell.cpp</text>
</a>
</g>
</g>
<!-- Node7&#45;&gt;Node13 -->
<g id="edge45" class="edge">
<title>Node7&#45;&gt;Node13</title>
<path fill="none" stroke="#63b8ff" d="M968.28,-332C961.45,-318.36 955.5,-299.53 965,-286 994.59,-243.86 1143.12,-205.94 1215.8,-189.56"/>
<polygon fill="#63b8ff" stroke="#63b8ff" points="965.29,-333.82 973.21,-340.86 971.41,-330.42 965.29,-333.82"/>
</g>
<!-- Node16 -->
<g id="node16" class="node">
<title>Node16</title>
<g id="a_node16"><a xlink:href="wxMaxima_8cpp.html" target="_top" xlink:title="This file defines the contents of the class wxMaxima that contains most of the program&#39;s logic.">
<polygon fill="white" stroke="#666666" points="725,-19 617,-19 617,0 725,0 725,-19"/>
<text text-anchor="middle" x="671" y="-7" font-family="Helvetica,sans-Serif" font-size="10.00">src/wxMaxima.cpp</text>
</a>
</g>
</g>
<!-- Node7&#45;&gt;Node16 -->
<g id="edge46" class="edge">
<title>Node7&#45;&gt;Node16</title>
<path fill="none" stroke="#63b8ff" d="M979.88,-330.67C981.55,-316.54 986.05,-297.68 998,-286 1114.12,-172.46 1348,-343.4 1348,-181 1348,-181 1348,-181 1348,-118.5 1348,-60.5 1289.52,-71.78 1234,-55 1139.79,-26.52 847.13,-15.34 725.19,-11.84"/>
<polygon fill="#63b8ff" stroke="#63b8ff" points="976.38,-330.52 979.07,-340.77 983.36,-331.08 976.38,-330.52"/>
</g>
<!-- Node31 -->
<g id="node31" class="node">
<title>Node31</title>
<g id="a_node31"><a xlink:href="AnimationCell_8cpp.html" target="_top" xlink:title="This file defines the class AnimationCell.">
<polygon fill="white" stroke="#666666" points="1155.5,-305 1006.5,-305 1006.5,-286 1155.5,-286 1155.5,-305"/>
<text text-anchor="middle" x="1081" y="-293" font-family="Helvetica,sans-Serif" font-size="10.00">src/cells/AnimationCell.cpp</text>
</a>
</g>
</g>
<!-- Node7&#45;&gt;Node31 -->
<g id="edge44" class="edge">
<title>Node7&#45;&gt;Node31</title>
<path fill="none" stroke="#63b8ff" d="M1004.27,-336.37C1023.01,-326.63 1048.02,-313.64 1064.31,-305.17"/>
<polygon fill="#63b8ff" stroke="#63b8ff" points="1002.65,-333.27 995.39,-340.98 1005.88,-339.48 1002.65,-333.27"/>
</g>
<!-- Node9&#45;&gt;Node6 -->
<g id="edge9" class="edge">
<title>Node9&#45;&gt;Node6</title>
<path fill="none" stroke="#63b8ff" d="M635.15,-280.15C621.24,-270.57 603.39,-258.29 591.6,-250.17"/>
<polygon fill="#63b8ff" stroke="#63b8ff" points="633.41,-283.2 643.63,-285.98 637.38,-277.43 633.41,-283.2"/>
</g>
<!-- Node9&#45;&gt;Node10 -->
<g id="edge10" class="edge">
<title>Node9&#45;&gt;Node10</title>
<path fill="none" stroke="#63b8ff" d="M675.87,-279.88C688.82,-270.34 705.3,-258.21 716.22,-250.17"/>
<polygon fill="#63b8ff" stroke="#63b8ff" points="673.55,-277.24 667.57,-285.98 677.7,-282.88 673.55,-277.24"/>
</g>
<!-- Node27 -->
<g id="node27" class="node">
<title>Node27</title>
<g id="a_node27"><a xlink:href="test__Accessibility_8cpp.html" target="_top" xlink:title="Logic&#45;level regression tests for wxMaxima&#39;s custom wxAccessible classes.">
<polygon fill="white" stroke="#666666" points="108,-195 0,-195 0,-165 108,-165 108,-195"/>
<text text-anchor="start" x="8" y="-183" font-family="Helvetica,sans-Serif" font-size="10.00">test/unit_tests/test</text>
<text text-anchor="middle" x="54" y="-172" font-family="Helvetica,sans-Serif" font-size="10.00">_Accessibility.cpp</text>
</a>
</g>
</g>
<!-- Node9&#45;&gt;Node27 -->
<g id="edge41" class="edge">
<title>Node9&#45;&gt;Node27</title>
<path fill="none" stroke="#63b8ff" d="M654.58,-275.78C652.39,-261.11 646.87,-241.47 633,-231 587.58,-196.7 178.39,-202.76 122,-195 117.46,-194.38 112.77,-193.63 108.08,-192.81"/>
<polygon fill="#63b8ff" stroke="#63b8ff" points="651.11,-276.25 655.69,-285.8 658.06,-275.48 651.11,-276.25"/>
</g>
<!-- Node10&#45;&gt;Node11 -->
<g id="edge11" class="edge">
<title>Node10&#45;&gt;Node11</title>
<path fill="none" stroke="#63b8ff" d="M786.11,-235.11C866.2,-228.44 1005.98,-214.47 1053,-195 1097.84,-176.43 1108.95,-166.3 1140,-129 1154.38,-111.73 1164.48,-86.92 1169.13,-74.02"/>
<polygon fill="#63b8ff" stroke="#63b8ff" points="785.37,-231.65 775.69,-235.96 785.95,-238.63 785.37,-231.65"/>
</g>
<!-- Node12 -->
<g id="node12" class="node">
<title>Node12</title>
<g id="a_node12"><a xlink:href="Cell_8cpp.html" target="_top" xlink:title="Core layout and rendering logic for worksheet cells.">
<polygon fill="white" stroke="#666666" points="1044,-189.5 946,-189.5 946,-170.5 1044,-170.5 1044,-189.5"/>
<text text-anchor="middle" x="995" y="-177.5" font-family="Helvetica,sans-Serif" font-size="10.00">src/cells/Cell.cpp</text>
</a>
</g>
</g>
<!-- Node10&#45;&gt;Node12 -->
<g id="edge12" class="edge">
<title>Node10&#45;&gt;Node12</title>
<path fill="none" stroke="#63b8ff" d="M779.51,-228.94C821.87,-220.15 883.41,-207.17 937,-195 944.58,-193.28 952.69,-191.37 960.38,-189.52"/>
<polygon fill="#63b8ff" stroke="#63b8ff" points="778.79,-225.51 769.71,-230.97 780.21,-232.37 778.79,-225.51"/>
</g>
<!-- Node10&#45;&gt;Node13 -->
<g id="edge13" class="edge">
<title>Node10&#45;&gt;Node13</title>
<path fill="none" stroke="#63b8ff" d="M785.92,-233.47C865.68,-225.13 1013.79,-209.43 1140,-195 1156.83,-193.08 1175.02,-190.92 1191.89,-188.88"/>
<polygon fill="#63b8ff" stroke="#63b8ff" points="785.18,-230.03 775.6,-234.55 785.91,-236.99 785.18,-230.03"/>
</g>
<!-- Node14 -->
<g id="node14" class="node">
<title>Node14</title>
<g id="a_node14"><a xlink:href="ConfigDialogue_8h.html" target="_top" xlink:title="The configuration dialog.">
<polygon fill="white" stroke="#666666" points="373.5,-74 218.5,-74 218.5,-55 373.5,-55 373.5,-74"/>
<text text-anchor="middle" x="296" y="-62" font-family="Helvetica,sans-Serif" font-size="10.00">src/dialogs/ConfigDialogue.h</text>
</a>
</g>
</g>
<!-- Node10&#45;&gt;Node14 -->
<g id="edge14" class="edge">
<title>Node10&#45;&gt;Node14</title>
<path fill="none" stroke="#63b8ff" d="M670.3,-229.83C619.45,-220.77 549.58,-206.89 524,-195 504.17,-185.78 503.41,-176.8 485,-165 425.38,-126.77 349.51,-90.2 314.83,-74.09"/>
<polygon fill="#63b8ff" stroke="#63b8ff" points="669.75,-233.28 680.2,-231.57 670.96,-226.39 669.75,-233.28"/>
</g>
<!-- Node17 -->
<g id="node17" class="node">
<title>Node17</title>
<g id="a_node17"><a xlink:href="DiffFrame_8h_source.html" target="_top" xlink:title=" ">
<polygon fill="white" stroke="#666666" points="200.5,-74 71.5,-74 71.5,-55 200.5,-55 200.5,-74"/>
<text text-anchor="middle" x="136" y="-62" font-family="Helvetica,sans-Serif" font-size="10.00">src/dialogs/DiffFrame.h</text>
</a>
</g>
</g>
<!-- Node10&#45;&gt;Node17 -->
<g id="edge17" class="edge">
<title>Node10&#45;&gt;Node17</title>
<path fill="none" stroke="#63b8ff" d="M669.94,-232.6C664.56,-232.03 659.18,-231.48 654,-231 598.65,-225.83 195.73,-232.83 155,-195 120.37,-162.83 129.47,-97.45 134.1,-74.06"/>
<polygon fill="#63b8ff" stroke="#63b8ff" points="669.94,-236.12 680.26,-233.72 670.7,-229.16 669.94,-236.12"/>
</g>
<!-- Node18 -->
<g id="node18" class="node">
<title>Node18</title>
<g id="a_node18"><a xlink:href="Printout_8cpp.html" target="_top" xlink:title="This file defines the class MathPrintOut.">
<polygon fill="white" stroke="#666666" points="319.5,-189.5 164.5,-189.5 164.5,-170.5 319.5,-170.5 319.5,-189.5"/>
<text text-anchor="middle" x="242" y="-177.5" font-family="Helvetica,sans-Serif" font-size="10.00">src/graphical_io/Printout.cpp</text>
</a>
</g>
</g>
<!-- Node10&#45;&gt;Node18 -->
<g id="edge20" class="edge">
<title>Node10&#45;&gt;Node18</title>
<path fill="none" stroke="#63b8ff" d="M669.95,-231.49C668.62,-231.32 667.3,-231.16 666,-231 516.48,-212.77 478.3,-214.97 329,-195 317.02,-193.4 304.15,-191.45 292.08,-189.52"/>
<polygon fill="#63b8ff" stroke="#63b8ff" points="669.93,-235.01 680.29,-232.81 670.82,-228.07 669.93,-235.01"/>
</g>
<!-- Node19 -->
<g id="node19" class="node">
<title>Node19</title>
<g id="a_node19"><a xlink:href="wxMaximaFrame_8h.html" target="_top" xlink:title="This file declares the class wxMaximaFrame.">
<polygon fill="white" stroke="#666666" points="928,-189.5 800,-189.5 800,-170.5 928,-170.5 928,-189.5"/>
<text text-anchor="middle" x="864" y="-177.5" font-family="Helvetica,sans-Serif" font-size="10.00">src/wxMaximaFrame.h</text>
</a>
</g>
</g>
<!-- Node10&#45;&gt;Node19 -->
<g id="edge21" class="edge">
<title>Node10&#45;&gt;Node19</title>
<path fill="none" stroke="#63b8ff" d="M757.22,-226.93C783.48,-215.64 821.33,-199.36 844.2,-189.52"/>
<polygon fill="#63b8ff" stroke="#63b8ff" points="755.58,-223.83 747.78,-230.99 758.34,-230.26 755.58,-223.83"/>
</g>
<!-- Node10&#45;&gt;Node27 -->
<g id="edge37" class="edge">
<title>Node10&#45;&gt;Node27</title>
<path fill="none" stroke="#63b8ff" d="M669.96,-231.42C668.63,-231.27 667.31,-231.13 666,-231 424.93,-206.53 362.12,-227.51 122,-195 117.46,-194.39 112.77,-193.65 108.08,-192.83"/>
<polygon fill="#63b8ff" stroke="#63b8ff" points="669.98,-234.94 680.31,-232.62 670.78,-227.99 669.98,-234.94"/>
</g>
<!-- Node28 -->
<g id="node28" class="node">
<title>Node28</title>
<g id="a_node28"><a xlink:href="test__EditorCellInvariants_8cpp.html" target="_top" xlink:title="Hardening tests for EditorCell&#39;s text&#45;editing core.">
<polygon fill="white" stroke="#666666" points="476,-195 338,-195 338,-165 476,-165 476,-195"/>
<text text-anchor="start" x="346" y="-183" font-family="Helvetica,sans-Serif" font-size="10.00">test/unit_tests/test</text>
<text text-anchor="middle" x="407" y="-172" font-family="Helvetica,sans-Serif" font-size="10.00">_EditorCellInvariants.cpp</text>
</a>
</g>
</g>
<!-- Node10&#45;&gt;Node28 -->
<g id="edge38" class="edge">
<title>Node10&#45;&gt;Node28</title>
<path fill="none" stroke="#63b8ff" d="M671.16,-229.14C616.72,-219.22 534.47,-204.23 476.24,-193.62"/>
<polygon fill="#63b8ff" stroke="#63b8ff" points="670.86,-232.64 681.32,-230.99 672.11,-225.76 670.86,-232.64"/>
</g>
<!-- Node29 -->
<g id="node29" class="node">
<title>Node29</title>
<g id="a_node29"><a xlink:href="test__GroupCellLayout_8cpp.html" target="_top" xlink:title="Regression tests for the GroupCell &lt;&#45;&gt; EditorCell layout coupling.">
<polygon fill="white" stroke="#666666" points="655.5,-195 532.5,-195 532.5,-165 655.5,-165 655.5,-195"/>
<text text-anchor="start" x="540.5" y="-183" font-family="Helvetica,sans-Serif" font-size="10.00">test/unit_tests/test</text>
<text text-anchor="middle" x="594" y="-172" font-family="Helvetica,sans-Serif" font-size="10.00">_GroupCellLayout.cpp</text>
</a>
</g>
</g>
<!-- Node10&#45;&gt;Node29 -->
<g id="edge39" class="edge">
<title>Node10&#45;&gt;Node29</title>
<path fill="none" stroke="#63b8ff" d="M699.26,-226.95C677.8,-217.59 648.47,-204.78 626.22,-195.06"/>
<polygon fill="#63b8ff" stroke="#63b8ff" points="697.95,-230.2 708.52,-230.99 700.75,-223.78 697.95,-230.2"/>
</g>
<!-- Node30 -->
<g id="node30" class="node">
<title>Node30</title>
<g id="a_node30"><a xlink:href="test__TreeUndo_8cpp.html" target="_top" xlink:title="Regression tests for the worksheet&#39;s cell&#45;tree undo/redo (the TreeUndo_* subsystem of Worksheet).">
<polygon fill="white" stroke="#666666" points="782,-195 674,-195 674,-165 782,-165 782,-195"/>
<text text-anchor="start" x="682" y="-183" font-family="Helvetica,sans-Serif" font-size="10.00">test/unit_tests/test</text>
<text text-anchor="middle" x="728" y="-172" font-family="Helvetica,sans-Serif" font-size="10.00">_TreeUndo.cpp</text>
</a>
</g>
</g>
<!-- Node10&#45;&gt;Node30 -->
<g id="edge40" class="edge">
<title>Node10&#45;&gt;Node30</title>
<path fill="none" stroke="#63b8ff" d="M728,-220.65C728,-212.36 728,-202.78 728,-195.11"/>
<polygon fill="#63b8ff" stroke="#63b8ff" points="724.5,-220.87 728,-230.87 731.5,-220.87 724.5,-220.87"/>
</g>
<!-- Node15 -->
<g id="node15" class="node">
<title>Node15</title>
<g id="a_node15"><a xlink:href="main_8cpp.html" target="_top" xlink:title="The file that defines the starting point of the program.">
<polygon fill="white" stroke="#666666" points="392.5,-19 313.5,-19 313.5,0 392.5,0 392.5,-19"/>
<text text-anchor="middle" x="353" y="-7" font-family="Helvetica,sans-Serif" font-size="10.00">src/main.cpp</text>
</a>
</g>
</g>
<!-- Node14&#45;&gt;Node15 -->
<g id="edge15" class="edge">
<title>Node14&#45;&gt;Node15</title>
<path fill="none" stroke="#63b8ff" d="M312.62,-48.04C322.73,-38.64 335.28,-26.98 343.68,-19.17"/>
<polygon fill="#63b8ff" stroke="#63b8ff" points="310.1,-45.61 305.16,-54.98 314.86,-50.74 310.1,-45.61"/>
</g>
<!-- Node14&#45;&gt;Node16 -->
<g id="edge16" class="edge">
<title>Node14&#45;&gt;Node16</title>
<path fill="none" stroke="#63b8ff" d="M366.24,-53.57C438.94,-43.3 550.92,-27.47 616.98,-18.13"/>
<polygon fill="#63b8ff" stroke="#63b8ff" points="365.66,-50.12 356.25,-54.98 366.64,-57.05 365.66,-50.12"/>
</g>
<!-- Node17&#45;&gt;Node15 -->
<g id="edge18" class="edge">
<title>Node17&#45;&gt;Node15</title>
<path fill="none" stroke="#63b8ff" d="M180.77,-52.56C221.42,-42.64 280.53,-28.2 317.86,-19.08"/>
<polygon fill="#63b8ff" stroke="#63b8ff" points="179.75,-49.21 170.86,-54.98 181.41,-56.01 179.75,-49.21"/>
</g>
<!-- Node17&#45;&gt;Node16 -->
<g id="edge19" class="edge">
<title>Node17&#45;&gt;Node16</title>
<path fill="none" stroke="#63b8ff" d="M210.51,-54.97C388.35,-36.93 434.69,-38.52 608,-19 610.85,-18.68 613.77,-18.34 616.72,-17.98"/>
<polygon fill="#63b8ff" stroke="#63b8ff" points="210.16,-51.49 200.56,-55.99 210.87,-58.46 210.16,-51.49"/>
</g>
<!-- Node19&#45;&gt;Node11 -->
<g id="edge23" class="edge">
<title>Node19&#45;&gt;Node11</title>
<path fill="none" stroke="#63b8ff" d="M917.78,-168.5C990.88,-154.21 1112.84,-130.23 1115,-129 1138.94,-115.36 1158.18,-88.02 1166.92,-74.09"/>
<polygon fill="#63b8ff" stroke="#63b8ff" points="916.95,-165.1 907.81,-170.45 918.3,-171.97 916.95,-165.1"/>
</g>
<!-- Node20 -->
<g id="node20" class="node">
<title>Node20</title>
<g id="a_node20"><a xlink:href="AutocompletePopup_8cpp.html" target="_top" xlink:title="This file defines the class AutocompletePopup.">
<polygon fill="white" stroke="#666666" points="766,-129 614,-129 614,-110 766,-110 766,-129"/>
<text text-anchor="middle" x="690" y="-117" font-family="Helvetica,sans-Serif" font-size="10.00">src/AutocompletePopup.cpp</text>
</a>
</g>
</g>
<!-- Node19&#45;&gt;Node20 -->
<g id="edge22" class="edge">
<title>Node19&#45;&gt;Node20</title>
<path fill="none" stroke="#63b8ff" d="M828.82,-167.17C795.17,-155.86 745.24,-139.07 715.33,-129.02"/>
<polygon fill="#63b8ff" stroke="#63b8ff" points="828.1,-170.62 838.7,-170.49 830.34,-163.99 828.1,-170.62"/>
</g>
<!-- Node21 -->
<g id="node21" class="node">
<title>Node21</title>
<g id="a_node21"><a xlink:href="EditorCell_8cpp.html" target="_top" xlink:title="This file defines the class EditorCell.">
<polygon fill="white" stroke="#666666" points="518.5,-74 391.5,-74 391.5,-55 518.5,-55 518.5,-74"/>
<text text-anchor="middle" x="455" y="-62" font-family="Helvetica,sans-Serif" font-size="10.00">src/cells/EditorCell.cpp</text>
</a>
</g>
</g>
<!-- Node19&#45;&gt;Node21 -->
<g id="edge24" class="edge">
<title>Node19&#45;&gt;Node21</title>
<path fill="none" stroke="#63b8ff" d="M812.14,-168.56C805.05,-167.28 797.86,-166.05 791,-165 722.01,-154.42 534.04,-171.91 479,-129 461.71,-115.52 456.88,-88.11 455.52,-74.12"/>
<polygon fill="#63b8ff" stroke="#63b8ff" points="811.93,-172.08 822.4,-170.47 813.21,-165.2 811.93,-172.08"/>
</g>
<!-- Node22 -->
<g id="node22" class="node">
<title>Node22</title>
<g id="a_node22"><a xlink:href="main_8h.html" target="_top" xlink:title="This file declares the class wxMaxima that contains most of the program&#39;s logic.">
<polygon fill="white" stroke="#666666" points="643,-74 575,-74 575,-55 643,-55 643,-74"/>
<text text-anchor="middle" x="609" y="-62" font-family="Helvetica,sans-Serif" font-size="10.00">src/main.h</text>
</a>
</g>
</g>
<!-- Node19&#45;&gt;Node22 -->
<g id="edge25" class="edge">
<title>Node19&#45;&gt;Node22</title>
<path fill="none" stroke="#63b8ff" d="M812.14,-168.59C805.05,-167.3 797.85,-166.07 791,-165 724.43,-154.65 534.72,-179.38 490,-129 462.33,-97.83 530.67,-79.3 574.88,-70.91"/>
<polygon fill="#63b8ff" stroke="#63b8ff" points="811.92,-172.11 822.4,-170.5 813.2,-165.23 811.92,-172.11"/>
</g>
<!-- Node24 -->
<g id="node24" class="node">
<title>Node24</title>
<g id="a_node24"><a xlink:href="GreekSidebar_8cpp.html" target="_top" xlink:title="This file defines the class GreekSidebar.">
<polygon fill="white" stroke="#666666" points="948,-129 784,-129 784,-110 948,-110 948,-129"/>
<text text-anchor="middle" x="866" y="-117" font-family="Helvetica,sans-Serif" font-size="10.00">src/sidebars/GreekSidebar.cpp</text>
</a>
</g>
</g>
<!-- Node19&#45;&gt;Node24 -->
<g id="edge29" class="edge">
<title>Node19&#45;&gt;Node24</title>
<path fill="none" stroke="#63b8ff" d="M864.64,-160.16C865,-149.74 865.43,-137.3 865.7,-129.17"/>
<polygon fill="#63b8ff" stroke="#63b8ff" points="861.14,-160.25 864.3,-170.37 868.13,-160.49 861.14,-160.25"/>
</g>
<!-- Node25 -->
<g id="node25" class="node">
<title>Node25</title>
<g id="a_node25"><a xlink:href="wxMaxima_8h.html" target="_top" xlink:title="This file declares the class wxMaxima that contains most of the program&#39;s logic.">
<polygon fill="white" stroke="#666666" points="595.5,-129 498.5,-129 498.5,-110 595.5,-110 595.5,-129"/>
<text text-anchor="middle" x="547" y="-117" font-family="Helvetica,sans-Serif" font-size="10.00">src/wxMaxima.h</text>
</a>
</g>
</g>
<!-- Node19&#45;&gt;Node25 -->
<g id="edge30" class="edge">
<title>Node19&#45;&gt;Node25</title>
<path fill="none" stroke="#63b8ff" d="M810.02,-168.59C803.61,-167.37 797.16,-166.15 791,-165 722.86,-152.25 643.92,-137.94 594.71,-129.07"/>
<polygon fill="#63b8ff" stroke="#63b8ff" points="809.53,-172.06 820.01,-170.5 810.84,-165.18 809.53,-172.06"/>
</g>
<!-- Node26 -->
<g id="node26" class="node">
<title>Node26</title>
<g id="a_node26"><a xlink:href="wxMaximaFrame_8cpp.html" target="_top" xlink:title="This file defines the class wxMaximaFrame.">
<polygon fill="white" stroke="#666666" points="1105.5,-129 966.5,-129 966.5,-110 1105.5,-110 1105.5,-129"/>
<text text-anchor="middle" x="1036" y="-117" font-family="Helvetica,sans-Serif" font-size="10.00">src/wxMaximaFrame.cpp</text>
</a>
</g>
</g>
<!-- Node19&#45;&gt;Node26 -->
<g id="edge36" class="edge">
<title>Node19&#45;&gt;Node26</title>
<path fill="none" stroke="#63b8ff" d="M898.78,-167.17C932.04,-155.86 981.39,-139.07 1010.96,-129.02"/>
<polygon fill="#63b8ff" stroke="#63b8ff" points="897.35,-163.96 889.01,-170.49 899.6,-170.59 897.35,-163.96"/>
</g>
<!-- Node22&#45;&gt;Node15 -->
<g id="edge27" class="edge">
<title>Node22&#45;&gt;Node15</title>
<path fill="none" stroke="#63b8ff" d="M564.84,-54.36C516.32,-44.31 439.1,-28.33 392.51,-18.68"/>
<polygon fill="#63b8ff" stroke="#63b8ff" points="564.24,-57.81 574.74,-56.41 565.66,-50.95 564.24,-57.81"/>
</g>
<!-- Node22&#45;&gt;Node16 -->
<g id="edge28" class="edge">
<title>Node22&#45;&gt;Node16</title>
<path fill="none" stroke="#63b8ff" d="M626.75,-48.32C637.81,-38.87 651.63,-27.06 660.86,-19.17"/>
<polygon fill="#63b8ff" stroke="#63b8ff" points="624.29,-45.83 618.96,-54.98 628.84,-51.15 624.29,-45.83"/>
</g>
<!-- Node23 -->
<g id="node23" class="node">
<title>Node23</title>
<g id="a_node23"><a xlink:href="MaximaManual_8cpp.html" target="_top" xlink:title="This file defines the class MaximaManual.">
<polygon fill="white" stroke="#666666" points="599,-19 469,-19 469,0 599,0 599,-19"/>
<text text-anchor="middle" x="534" y="-7" font-family="Helvetica,sans-Serif" font-size="10.00">src/MaximaManual.cpp</text>
</a>
</g>
</g>
<!-- Node22&#45;&gt;Node23 -->
<g id="edge26" class="edge">
<title>Node22&#45;&gt;Node23</title>
<path fill="none" stroke="#63b8ff" d="M588.69,-49.15C575.14,-39.57 557.76,-27.29 546.27,-19.17"/>
<polygon fill="#63b8ff" stroke="#63b8ff" points="586.76,-52.07 596.95,-54.98 590.8,-46.36 586.76,-52.07"/>
</g>
<!-- Node25&#45;&gt;Node11 -->
<g id="edge31" class="edge">
<title>Node25&#45;&gt;Node11</title>
<path fill="none" stroke="#63b8ff" d="M605.86,-109.98C801.04,-88.34 1019.85,-74.28 1118.73,-68.48"/>
<polygon fill="#63b8ff" stroke="#63b8ff" points="605.25,-106.53 595.7,-111.12 606.03,-113.49 605.25,-106.53"/>
</g>
<!-- Node25&#45;&gt;Node15 -->
<g id="edge33" class="edge">
<title>Node25&#45;&gt;Node15</title>
<path fill="none" stroke="#63b8ff" d="M546.18,-99.61C544.55,-85.44 540.06,-66.56 528,-55 491.69,-20.17 432.12,-11.52 392.73,-9.92"/>
<polygon fill="#63b8ff" stroke="#63b8ff" points="542.7,-100.03 546.96,-109.73 549.68,-99.49 542.7,-100.03"/>
</g>
<!-- Node25&#45;&gt;Node16 -->
<g id="edge35" class="edge">
<title>Node25&#45;&gt;Node16</title>
<path fill="none" stroke="#63b8ff" d="M597.98,-106.85C617.23,-100.13 637.88,-89.77 652,-74 666.13,-58.23 669.76,-32.32 670.69,-19"/>
<polygon fill="#63b8ff" stroke="#63b8ff" points="596.82,-103.55 588.38,-109.95 598.97,-110.21 596.82,-103.55"/>
</g>
<!-- Node25&#45;&gt;Node21 -->
<g id="edge32" class="edge">
<title>Node25&#45;&gt;Node21</title>
<path fill="none" stroke="#63b8ff" d="M523.51,-104.97C506.69,-95.28 484.55,-82.52 470.05,-74.17"/>
<polygon fill="#63b8ff" stroke="#63b8ff" points="521.81,-108.03 532.22,-109.98 525.3,-101.96 521.81,-108.03"/>
</g>
<!-- Node25&#45;&gt;Node22 -->
<g id="edge34" class="edge">
<title>Node25&#45;&gt;Node22</title>
<path fill="none" stroke="#63b8ff" d="M564.75,-103.32C575.81,-93.87 589.63,-82.06 598.86,-74.17"/>
<polygon fill="#63b8ff" stroke="#63b8ff" points="562.29,-100.83 556.96,-109.98 566.84,-106.15 562.29,-100.83"/>
</g>
<!-- Node32&#45;&gt;Node8 -->
<g id="edge48" class="edge">
<title>Node32&#45;&gt;Node8</title>
<path fill="none" stroke="#63b8ff" d="M1288.22,-335.42C1273.34,-325.81 1254.09,-313.37 1241.41,-305.17"/>
<polygon fill="#63b8ff" stroke="#63b8ff" points="1286.53,-338.5 1296.83,-340.98 1290.33,-332.62 1286.53,-338.5"/>
</g>
<!-- Node32&#45;&gt;Node10 -->
<g id="edge50" class="edge">
<title>Node32&#45;&gt;Node10</title>
<path fill="none" stroke="#63b8ff" d="M1309.75,-330.48C1308.46,-315.93 1304.14,-296.61 1291,-286 1251.34,-253.96 904.46,-244.61 775.77,-242.23"/>
<polygon fill="#63b8ff" stroke="#63b8ff" points="1306.27,-331.05 1310.25,-340.87 1313.27,-330.71 1306.27,-331.05"/>
</g>
<!-- Node32&#45;&gt;Node11 -->
<g id="edge49" class="edge">
<title>Node32&#45;&gt;Node11</title>
<path fill="none" stroke="#63b8ff" d="M1318.32,-331.39C1332.94,-296.69 1358.96,-219.46 1329,-165 1301.7,-115.38 1238.05,-87.03 1200.71,-74.11"/>
<polygon fill="#63b8ff" stroke="#63b8ff" points="1315.04,-330.16 1314.23,-340.72 1321.45,-332.97 1315.04,-330.16"/>
</g>
<!-- Node32&#45;&gt;Node13 -->
<g id="edge52" class="edge">
<title>Node32&#45;&gt;Node13</title>
<path fill="none" stroke="#63b8ff" d="M1312.77,-330.79C1314.06,-317.99 1314.63,-300.74 1311,-286 1301.46,-247.23 1274.79,-206.92 1262.44,-189.67"/>
<polygon fill="#63b8ff" stroke="#63b8ff" points="1309.29,-330.36 1311.53,-340.71 1316.24,-331.23 1309.29,-330.36"/>
</g>
<!-- Node32&#45;&gt;Node16 -->
<g id="edge54" class="edge">
<title>Node32&#45;&gt;Node16</title>
<path fill="none" stroke="#63b8ff" d="M1340.65,-336.47C1374.42,-319.82 1424,-287.53 1424,-241.5 1424,-241.5 1424,-241.5 1424,-118.5 1424,-52.6 1353.74,-71.76 1290,-55 1183.98,-27.12 855.37,-15.44 725.05,-11.83"/>
<polygon fill="#63b8ff" stroke="#63b8ff" points="1338.72,-333.51 1331.18,-340.95 1341.71,-339.84 1338.72,-333.51"/>
</g>
<!-- Node32&#45;&gt;Node31 -->
<g id="edge51" class="edge">
<title>Node32&#45;&gt;Node31</title>
<path fill="none" stroke="#63b8ff" d="M1263.29,-338.69C1220.39,-328.76 1157.64,-314.24 1118.08,-305.08"/>
<polygon fill="#63b8ff" stroke="#63b8ff" points="1262.68,-342.14 1273.21,-340.98 1264.25,-335.32 1262.68,-342.14"/>
</g>
<!-- Node33 -->
<g id="node33" class="node">
<title>Node33</title>
<g id="a_node33"><a xlink:href="ImgCell_8cpp.html" target="_top" xlink:title="This file defines the class ImgCell.">
<polygon fill="white" stroke="#666666" points="1569.5,-305 1452.5,-305 1452.5,-286 1569.5,-286 1569.5,-305"/>
<text text-anchor="middle" x="1511" y="-293" font-family="Helvetica,sans-Serif" font-size="10.00">src/cells/ImgCell.cpp</text>
</a>
</g>
</g>
<!-- Node32&#45;&gt;Node33 -->
<g id="edge53" class="edge">
<title>Node32&#45;&gt;Node33</title>
<path fill="none" stroke="#63b8ff" d="M1352.43,-338.31C1390.04,-328.39 1444.17,-314.12 1478.45,-305.08"/>
<polygon fill="#63b8ff" stroke="#63b8ff" points="1351.07,-335.05 1342.29,-340.98 1352.86,-341.82 1351.07,-335.05"/>
</g>
<!-- Node34&#45;&gt;Node7 -->
<g id="edge57" class="edge">
<title>Node34&#45;&gt;Node7</title>
<path fill="none" stroke="#63b8ff" d="M857.05,-392.67C886.32,-382.79 927.37,-368.93 953.58,-360.08"/>
<polygon fill="#63b8ff" stroke="#63b8ff" points="855.58,-389.47 847.22,-395.98 857.82,-396.1 855.58,-389.47"/>
</g>
<!-- Node34&#45;&gt;Node10 -->
<g id="edge56" class="edge">
<title>Node34&#45;&gt;Node10</title>
<path fill="none" stroke="#63b8ff" d="M784.39,-391.95C769.13,-384.94 752.82,-374.61 743,-360 719.51,-325.06 723.84,-271.02 726.64,-250.14"/>
<polygon fill="#63b8ff" stroke="#63b8ff" points="783.11,-395.21 793.68,-395.89 785.84,-388.77 783.11,-395.21"/>
</g>
<!-- Node34&#45;&gt;Node32 -->
<g id="edge58" class="edge">
<title>Node34&#45;&gt;Node32</title>
<path fill="none" stroke="#63b8ff" d="M897.05,-396.35C996.63,-385.53 1169.97,-366.71 1256.98,-357.26"/>
<polygon fill="#63b8ff" stroke="#63b8ff" points="896.62,-392.88 887.05,-397.43 897.37,-399.83 896.62,-392.88"/>
</g>
<!-- Node35 -->
<g id="node35" class="node">
<title>Node35</title>
<g id="a_node35"><a xlink:href="ImgCellBase_8cpp.html" target="_top" xlink:title="This file defines the class ImgCellBase.">
<polygon fill="white" stroke="#666666" points="892.5,-360 751.5,-360 751.5,-341 892.5,-341 892.5,-360"/>
<text text-anchor="middle" x="822" y="-348" font-family="Helvetica,sans-Serif" font-size="10.00">src/cells/ImgCellBase.cpp</text>
</a>
</g>
</g>
<!-- Node34&#45;&gt;Node35 -->
<g id="edge59" class="edge">
<title>Node34&#45;&gt;Node35</title>
<path fill="none" stroke="#63b8ff" d="M822,-385.66C822,-376.93 822,-366.99 822,-360.09"/>
<polygon fill="#63b8ff" stroke="#63b8ff" points="818.5,-385.75 822,-395.75 825.5,-385.75 818.5,-385.75"/>
</g>
</g>
</svg>
