<?xml version="1.0" encoding="UTF-8" standalone="no"?>
<!DOCTYPE svg PUBLIC "-//W3C//DTD SVG 1.1//EN"
 "http://www.w3.org/Graphics/SVG/1.1/DTD/svg11.dtd">
<!-- Generated by graphviz version 2.43.0 (0)
 -->
<!-- Title: src/BackgroundQueue.cpp Pages: 1 -->
<svg width="678pt" height="192pt"
 viewBox="0.00 0.00 677.50 192.00" xmlns="http://www.w3.org/2000/svg" xmlns:xlink="http://www.w3.org/1999/xlink">
<g id="graph0" class="graph" transform="scale(1 1) rotate(0) translate(4 188)">
<title>src/BackgroundQueue.cpp</title>
<!-- Node1 -->
<g id="node1" class="node">
<title>Node1</title>
<g id="a_node1"><a xlink:title="A priority work&#45;queue thread pool for offloading work to background threads.">
<polygon fill="#999999" stroke="#666666" points="437.5,-184 294.5,-184 294.5,-165 437.5,-165 437.5,-184"/>
<text text-anchor="middle" x="366" y="-172" font-family="Helvetica,sans-Serif" font-size="10.00">src/BackgroundQueue.cpp</text>
</a>
</g>
</g>
<!-- Node2 -->
<g id="node2" class="node">
<title>Node2</title>
<g id="a_node2"><a xlink:href="BackgroundQueue_8h.html" target="_top" xlink:title="A priority work&#45;queue thread pool for offloading work to background threads.">
<polygon fill="white" stroke="#666666" points="423.5,-129 308.5,-129 308.5,-110 423.5,-110 423.5,-129"/>
<text text-anchor="middle" x="366" y="-117" font-family="Helvetica,sans-Serif" font-size="10.00">BackgroundQueue.h</text>
</a>
</g>
</g>
<!-- Node1&#45;&gt;Node2 -->
<g id="edge1" class="edge">
<title>Node1&#45;&gt;Node2</title>
<path fill="none" stroke="#63b8ff" d="M366,-164.75C366,-157.8 366,-147.85 366,-139.13"/>
<polygon fill="#63b8ff" stroke="#63b8ff" points="369.5,-139.09 366,-129.09 362.5,-139.09 369.5,-139.09"/>
</g>
<!-- Node3 -->
<g id="node3" class="node">
<title>Node3</title>
<g id="a_node3"><a xlink:href="Compat_8h.html" target="_top" xlink:title="Small C++ standard&#45;library compatibility shims.">
<polygon fill="white" stroke="#666666" points="125,-74 61,-74 61,-55 125,-55 125,-74"/>
<text text-anchor="middle" x="93" y="-62" font-family="Helvetica,sans-Serif" font-size="10.00">Compat.h</text>
</a>
</g>
</g>
<!-- Node2&#45;&gt;Node3 -->
<g id="edge2" class="edge">
<title>Node2&#45;&gt;Node3</title>
<path fill="none" stroke="#63b8ff" d="M320.83,-109.93C274.24,-101.06 199.51,-86.74 135,-74 134.9,-73.98 134.8,-73.96 134.7,-73.94"/>
<polygon fill="#63b8ff" stroke="#63b8ff" points="135.59,-70.55 125.1,-72.03 134.22,-77.41 135.59,-70.55"/>
</g>
<!-- Node4 -->
<g id="node4" class="node">
<title>Node4</title>
<g id="a_node4"><a xlink:title=" ">
<polygon fill="#e0e0e0" stroke="#999999" points="48,-19 0,-19 0,0 48,0 48,-19"/>
<text text-anchor="middle" x="24" y="-7" font-family="Helvetica,sans-Serif" font-size="10.00">thread</text>
</a>
</g>
</g>
<!-- Node2&#45;&gt;Node4 -->
<g id="edge12" class="edge">
<title>Node2&#45;&gt;Node4</title>
<path fill="none" stroke="#63b8ff" d="M308.2,-116.9C228.76,-113.62 91.23,-103.71 52,-74 37.76,-63.22 30.63,-43.64 27.14,-29.06"/>
<polygon fill="#63b8ff" stroke="#63b8ff" points="30.54,-28.22 25.13,-19.11 23.68,-29.61 30.54,-28.22"/>
</g>
<!-- Node8 -->
<g id="node8" class="node">
<title>Node8</title>
<g id="a_node8"><a xlink:title=" ">
<polygon fill="#e0e0e0" stroke="#999999" points="250.5,-74 143.5,-74 143.5,-55 250.5,-55 250.5,-74"/>
<text text-anchor="middle" x="197" y="-62" font-family="Helvetica,sans-Serif" font-size="10.00">condition_variable</text>
</a>
</g>
</g>
<!-- Node2&#45;&gt;Node8 -->
<g id="edge7" class="edge">
<title>Node2&#45;&gt;Node8</title>
<path fill="none" stroke="#63b8ff" d="M338.85,-109.98C310.47,-101.09 265.77,-87.07 234.14,-77.15"/>
<polygon fill="#63b8ff" stroke="#63b8ff" points="234.95,-73.73 224.37,-74.08 232.86,-80.41 234.95,-73.73"/>
</g>
<!-- Node9 -->
<g id="node9" class="node">
<title>Node9</title>
<g id="a_node9"><a xlink:title=" ">
<polygon fill="#e0e0e0" stroke="#999999" points="315.5,-74 268.5,-74 268.5,-55 315.5,-55 315.5,-74"/>
<text text-anchor="middle" x="292" y="-62" font-family="Helvetica,sans-Serif" font-size="10.00">deque</text>
</a>
</g>
</g>
<!-- Node2&#45;&gt;Node9 -->
<g id="edge8" class="edge">
<title>Node2&#45;&gt;Node9</title>
<path fill="none" stroke="#63b8ff" d="M354.11,-109.98C342.85,-101.92 325.71,-89.65 312.29,-80.03"/>
<polygon fill="#63b8ff" stroke="#63b8ff" points="314.27,-77.15 304.11,-74.17 310.2,-82.84 314.27,-77.15"/>
</g>
<!-- Node10 -->
<g id="node10" class="node">
<title>Node10</title>
<g id="a_node10"><a xlink:title=" ">
<polygon fill="#e0e0e0" stroke="#999999" points="398.5,-74 333.5,-74 333.5,-55 398.5,-55 398.5,-74"/>
<text text-anchor="middle" x="366" y="-62" font-family="Helvetica,sans-Serif" font-size="10.00">functional</text>
</a>
</g>
</g>
<!-- Node2&#45;&gt;Node10 -->
<g id="edge9" class="edge">
<title>Node2&#45;&gt;Node10</title>
<path fill="none" stroke="#63b8ff" d="M366,-109.75C366,-102.8 366,-92.85 366,-84.13"/>
<polygon fill="#63b8ff" stroke="#63b8ff" points="369.5,-84.09 366,-74.09 362.5,-84.09 369.5,-84.09"/>
</g>
<!-- Node11 -->
<g id="node11" class="node">
<title>Node11</title>
<g id="a_node11"><a xlink:title=" ">
<polygon fill="#e0e0e0" stroke="#999999" points="475,-74 417,-74 417,-55 475,-55 475,-74"/>
<text text-anchor="middle" x="446" y="-62" font-family="Helvetica,sans-Serif" font-size="10.00">memory</text>
</a>
</g>
</g>
<!-- Node2&#45;&gt;Node11 -->
<g id="edge10" class="edge">
<title>Node2&#45;&gt;Node11</title>
<path fill="none" stroke="#63b8ff" d="M378.85,-109.98C391.14,-101.84 409.91,-89.41 424.48,-79.76"/>
<polygon fill="#63b8ff" stroke="#63b8ff" points="426.51,-82.61 432.91,-74.17 422.64,-76.78 426.51,-82.61"/>
</g>
<!-- Node12 -->
<g id="node12" class="node">
<title>Node12</title>
<g id="a_node12"><a xlink:title=" ">
<polygon fill="#e0e0e0" stroke="#999999" points="541,-74 493,-74 493,-55 541,-55 541,-74"/>
<text text-anchor="middle" x="517" y="-62" font-family="Helvetica,sans-Serif" font-size="10.00">mutex</text>
</a>
</g>
</g>
<!-- Node2&#45;&gt;Node12 -->
<g id="edge11" class="edge">
<title>Node2&#45;&gt;Node12</title>
<path fill="none" stroke="#63b8ff" d="M390.26,-109.98C415.47,-101.14 455.1,-87.23 483.33,-77.32"/>
<polygon fill="#63b8ff" stroke="#63b8ff" points="484.52,-80.61 492.8,-73.99 482.2,-74 484.52,-80.61"/>
</g>
<!-- Node13 -->
<g id="node13" class="node">
<title>Node13</title>
<g id="a_node13"><a xlink:title=" ">
<polygon fill="#e0e0e0" stroke="#999999" points="604.5,-74 559.5,-74 559.5,-55 604.5,-55 604.5,-74"/>
<text text-anchor="middle" x="582" y="-62" font-family="Helvetica,sans-Serif" font-size="10.00">utility</text>
</a>
</g>
</g>
<!-- Node2&#45;&gt;Node13 -->
<g id="edge13" class="edge">
<title>Node2&#45;&gt;Node13</title>
<path fill="none" stroke="#63b8ff" d="M402.37,-109.96C437.5,-101.65 492.45,-88.51 549.39,-74.11"/>
<polygon fill="#63b8ff" stroke="#63b8ff" points="550.46,-77.45 559.29,-71.6 548.74,-70.67 550.46,-77.45"/>
</g>
<!-- Node14 -->
<g id="node14" class="node">
<title>Node14</title>
<g id="a_node14"><a xlink:title=" ">
<polygon fill="#e0e0e0" stroke="#999999" points="669.5,-74 622.5,-74 622.5,-55 669.5,-55 669.5,-74"/>
<text text-anchor="middle" x="646" y="-62" font-family="Helvetica,sans-Serif" font-size="10.00">vector</text>
</a>
</g>
</g>
<!-- Node2&#45;&gt;Node14 -->
<g id="edge14" class="edge">
<title>Node2&#45;&gt;Node14</title>
<path fill="none" stroke="#63b8ff" d="M420.93,-109.97C469.09,-102.2 541.19,-89.83 612.27,-74.25"/>
<polygon fill="#63b8ff" stroke="#63b8ff" points="613.28,-77.61 622.29,-72.03 611.77,-70.78 613.28,-77.61"/>
</g>
<!-- Node3&#45;&gt;Node4 -->
<g id="edge3" class="edge">
<title>Node3&#45;&gt;Node4</title>
<path fill="none" stroke="#63b8ff" d="M81.91,-54.98C71.51,-47 55.74,-34.88 43.28,-25.31"/>
<polygon fill="#63b8ff" stroke="#63b8ff" points="45.35,-22.49 35.29,-19.17 41.09,-28.04 45.35,-22.49"/>
</g>
<!-- Node5 -->
<g id="node5" class="node">
<title>Node5</title>
<g id="a_node5"><a xlink:title=" ">
<polygon fill="#e0e0e0" stroke="#999999" points="119.5,-19 66.5,-19 66.5,0 119.5,0 119.5,-19"/>
<text text-anchor="middle" x="93" y="-7" font-family="Helvetica,sans-Serif" font-size="10.00">version</text>
</a>
</g>
</g>
<!-- Node3&#45;&gt;Node5 -->
<g id="edge4" class="edge">
<title>Node3&#45;&gt;Node5</title>
<path fill="none" stroke="#63b8ff" d="M93,-54.75C93,-47.8 93,-37.85 93,-29.13"/>
<polygon fill="#63b8ff" stroke="#63b8ff" points="96.5,-29.09 93,-19.09 89.5,-29.09 96.5,-29.09"/>
</g>
<!-- Node6 -->
<g id="node6" class="node">
<title>Node6</title>
<g id="a_node6"><a xlink:title=" ">
<polygon fill="#e0e0e0" stroke="#999999" points="202,-19 138,-19 138,0 202,0 202,-19"/>
<text text-anchor="middle" x="170" y="-7" font-family="Helvetica,sans-Serif" font-size="10.00">algorithm</text>
</a>
</g>
</g>
<!-- Node3&#45;&gt;Node6 -->
<g id="edge5" class="edge">
<title>Node3&#45;&gt;Node6</title>
<path fill="none" stroke="#63b8ff" d="M105.37,-54.98C117.09,-46.92 134.92,-34.65 148.89,-25.03"/>
<polygon fill="#63b8ff" stroke="#63b8ff" points="151.15,-27.72 157.4,-19.17 147.18,-21.96 151.15,-27.72"/>
</g>
<!-- Node7 -->
<g id="node7" class="node">
<title>Node7</title>
<g id="a_node7"><a xlink:title=" ">
<polygon fill="#e0e0e0" stroke="#999999" points="270,-19 220,-19 220,0 270,0 270,-19"/>
<text text-anchor="middle" x="245" y="-7" font-family="Helvetica,sans-Serif" font-size="10.00">ranges</text>
</a>
</g>
</g>
<!-- Node3&#45;&gt;Node7 -->
<g id="edge6" class="edge">
<title>Node3&#45;&gt;Node7</title>
<path fill="none" stroke="#63b8ff" d="M117.42,-54.98C142.72,-46.16 182.45,-32.31 210.86,-22.41"/>
<polygon fill="#63b8ff" stroke="#63b8ff" points="212.1,-25.68 220.39,-19.08 209.79,-19.07 212.1,-25.68"/>
</g>
</g>
</svg>
