<?xml version="1.0" encoding="UTF-8" standalone="no"?>
<!DOCTYPE svg PUBLIC "-//W3C//DTD SVG 1.1//EN"
 "http://www.w3.org/Graphics/SVG/1.1/DTD/svg11.dtd">
<!-- Generated by graphviz version 2.43.0 (0)
 -->
<!-- Title: src/sidebars/ButtonWrapSizer.cpp Pages: 1 -->
<svg width="379pt" height="192pt"
 viewBox="0.00 0.00 379.00 192.00" xmlns="http://www.w3.org/2000/svg" xmlns:xlink="http://www.w3.org/1999/xlink">
<g id="graph0" class="graph" transform="scale(1 1) rotate(0) translate(4 188)">
<title>src/sidebars/ButtonWrapSizer.cpp</title>
<!-- Node1 -->
<g id="node1" class="node">
<title>Node1</title>
<g id="a_node1"><a xlink:title="This file defines the class CharacterButton.">
<polygon fill="#999999" stroke="#666666" points="336,-184 157,-184 157,-165 336,-165 336,-184"/>
<text text-anchor="middle" x="246.5" y="-172" font-family="Helvetica,sans-Serif" font-size="10.00">src/sidebars/ButtonWrapSizer.cpp</text>
</a>
</g>
</g>
<!-- Node2 -->
<g id="node2" class="node">
<title>Node2</title>
<g id="a_node2"><a xlink:href="ButtonWrapSizer_8h.html" target="_top" xlink:title="This file contains the definition of the class Buttonwrapsizer that allows to select arbitrary unicod...">
<polygon fill="white" stroke="#666666" points="187,-129 80,-129 80,-110 187,-110 187,-129"/>
<text text-anchor="middle" x="133.5" y="-117" font-family="Helvetica,sans-Serif" font-size="10.00">ButtonWrapSizer.h</text>
</a>
</g>
</g>
<!-- Node1&#45;&gt;Node2 -->
<g id="edge1" class="edge">
<title>Node1&#45;&gt;Node2</title>
<path fill="none" stroke="#63b8ff" d="M228.34,-164.98C210.25,-156.5 182.22,-143.35 161.31,-133.54"/>
<polygon fill="#63b8ff" stroke="#63b8ff" points="162.53,-130.25 151.99,-129.17 159.55,-136.59 162.53,-130.25"/>
</g>
<!-- Node7 -->
<g id="node7" class="node">
<title>Node7</title>
<g id="a_node7"><a xlink:title=" ">
<polygon fill="#e0e0e0" stroke="#999999" points="287.5,-129 205.5,-129 205.5,-110 287.5,-110 287.5,-129"/>
<text text-anchor="middle" x="246.5" y="-117" font-family="Helvetica,sans-Serif" font-size="10.00">wx/settings.h</text>
</a>
</g>
</g>
<!-- Node1&#45;&gt;Node7 -->
<g id="edge6" class="edge">
<title>Node1&#45;&gt;Node7</title>
<path fill="none" stroke="#63b8ff" d="M246.5,-164.75C246.5,-157.8 246.5,-147.85 246.5,-139.13"/>
<polygon fill="#63b8ff" stroke="#63b8ff" points="250,-139.09 246.5,-129.09 243,-139.09 250,-139.09"/>
</g>
<!-- Node8 -->
<g id="node8" class="node">
<title>Node8</title>
<g id="a_node8"><a xlink:title=" ">
<polygon fill="#e0e0e0" stroke="#999999" points="371,-129 306,-129 306,-110 371,-110 371,-129"/>
<text text-anchor="middle" x="338.5" y="-117" font-family="Helvetica,sans-Serif" font-size="10.00">wx/sizer.h</text>
</a>
</g>
</g>
<!-- Node1&#45;&gt;Node8 -->
<g id="edge7" class="edge">
<title>Node1&#45;&gt;Node8</title>
<path fill="none" stroke="#63b8ff" d="M261.28,-164.98C275.68,-156.69 297.81,-143.94 314.69,-134.22"/>
<polygon fill="#63b8ff" stroke="#63b8ff" points="316.53,-137.19 323.45,-129.17 313.04,-131.13 316.53,-137.19"/>
</g>
<!-- Node3 -->
<g id="node3" class="node">
<title>Node3</title>
<g id="a_node3"><a xlink:title=" ">
<polygon fill="#e0e0e0" stroke="#999999" points="81,-74 0,-74 0,-55 81,-55 81,-74"/>
<text text-anchor="middle" x="40.5" y="-62" font-family="Helvetica,sans-Serif" font-size="10.00">wx/stattext.h</text>
</a>
</g>
</g>
<!-- Node2&#45;&gt;Node3 -->
<g id="edge2" class="edge">
<title>Node2&#45;&gt;Node3</title>
<path fill="none" stroke="#63b8ff" d="M118.56,-109.98C104,-101.69 81.63,-88.94 64.57,-79.22"/>
<polygon fill="#63b8ff" stroke="#63b8ff" points="66.14,-76.08 55.71,-74.17 62.67,-82.16 66.14,-76.08"/>
</g>
<!-- Node4 -->
<g id="node4" class="node">
<title>Node4</title>
<g id="a_node4"><a xlink:href="precomp_8h_source.html" target="_top" xlink:title=" ">
<polygon fill="white" stroke="#666666" points="167.5,-74 99.5,-74 99.5,-55 167.5,-55 167.5,-74"/>
<text text-anchor="middle" x="133.5" y="-62" font-family="Helvetica,sans-Serif" font-size="10.00">precomp.h</text>
</a>
</g>
</g>
<!-- Node2&#45;&gt;Node4 -->
<g id="edge3" class="edge">
<title>Node2&#45;&gt;Node4</title>
<path fill="none" stroke="#63b8ff" d="M133.5,-109.75C133.5,-102.8 133.5,-92.85 133.5,-84.13"/>
<polygon fill="#63b8ff" stroke="#63b8ff" points="137,-84.09 133.5,-74.09 130,-84.09 137,-84.09"/>
</g>
<!-- Node6 -->
<g id="node6" class="node">
<title>Node6</title>
<g id="a_node6"><a xlink:title=" ">
<polygon fill="#e0e0e0" stroke="#999999" points="275,-74 186,-74 186,-55 275,-55 275,-74"/>
<text text-anchor="middle" x="230.5" y="-62" font-family="Helvetica,sans-Serif" font-size="10.00">wx/wrapsizer.h</text>
</a>
</g>
</g>
<!-- Node2&#45;&gt;Node6 -->
<g id="edge5" class="edge">
<title>Node2&#45;&gt;Node6</title>
<path fill="none" stroke="#63b8ff" d="M149.08,-109.98C164.27,-101.69 187.6,-88.94 205.4,-79.22"/>
<polygon fill="#63b8ff" stroke="#63b8ff" points="207.53,-82.04 214.63,-74.17 204.18,-75.89 207.53,-82.04"/>
</g>
<!-- Node5 -->
<g id="node5" class="node">
<title>Node5</title>
<g id="a_node5"><a xlink:href="Version_8h_source.html" target="_top" xlink:title=" ">
<polygon fill="white" stroke="#666666" points="164.5,-19 102.5,-19 102.5,0 164.5,0 164.5,-19"/>
<text text-anchor="middle" x="133.5" y="-7" font-family="Helvetica,sans-Serif" font-size="10.00">Version.h</text>
</a>
</g>
</g>
<!-- Node4&#45;&gt;Node5 -->
<g id="edge4" class="edge">
<title>Node4&#45;&gt;Node5</title>
<path fill="none" stroke="#63b8ff" d="M133.5,-54.75C133.5,-47.8 133.5,-37.85 133.5,-29.13"/>
<polygon fill="#63b8ff" stroke="#63b8ff" points="137,-29.09 133.5,-19.09 130,-29.09 137,-29.09"/>
</g>
</g>
</svg>
