<?xml version="1.0" encoding="UTF-8" standalone="no"?>
<!DOCTYPE svg PUBLIC "-//W3C//DTD SVG 1.1//EN"
 "http://www.w3.org/Graphics/SVG/1.1/DTD/svg11.dtd">
<!-- Generated by graphviz version 2.43.0 (0)
 -->
<!-- Title: src/ButtonWrapSizer.cpp Pages: 1 -->
<!--zoomable 476 -->
<svg id="main" version="1.1" xmlns="http://www.w3.org/2000/svg" xmlns:xlink="http://www.w3.org/1999/xlink" xml:space="preserve" onload="init(evt)">
<style type="text/css"><![CDATA[
.edge:hover path { stroke: red; }
.edge:hover polygon { stroke: red; fill: red; }
]]></style>
<script type="text/javascript"><![CDATA[
var edges = document.getElementsByTagName('g');
if (edges && edges.length) {
  for (var i=0;i<edges.length;i++) {
    if (edges[i].id.substr(0,4)=='edge') {
      edges[i].setAttribute('class','edge');
    }
  }
}
]]></script>
        <defs>
                <circle id="rim" cx="0" cy="0" r="7"/>
                <circle id="rim2" cx="0" cy="0" r="3.5"/>
                <g id="zoomPlus">
                        <use xlink:href="#rim" fill="#404040">
                                <set attributeName="fill" to="#808080" begin="zoomplus.mouseover" end="zoomplus.mouseout"/>
                        </use>
                        <path d="M-4,0h8M0,-4v8" fill="none" stroke="white" stroke-width="1.5" pointer-events="none"/>
                </g>
                <g id="zoomMin">
                        <use xlink:href="#rim" fill="#404040">
                                <set attributeName="fill" to="#808080" begin="zoomminus.mouseover" end="zoomminus.mouseout"/>
                        </use>
                        <path d="M-4,0h8" fill="none" stroke="white" stroke-width="1.5" pointer-events="none"/>
                </g>
                <g id="dirArrow">
                        <path fill="none" stroke="white" stroke-width="1.5" d="M0,-3.0v7 M-2.5,-0.5L0,-3.0L2.5,-0.5"/>
                </g>
               <g id="resetDef">
                       <use xlink:href="#rim2" fill="#404040">
                               <set attributeName="fill" to="#808080" begin="reset.mouseover" end="reset.mouseout"/>
                       </use>
               </g>
        </defs>

<script type="text/javascript">
var viewWidth = 1863;
var viewHeight = 476;
var sectionId = 'dynsection-0';
</script>
<script xlink:href="svgpan.js"/>
<svg id="graph" class="graph">
<g id="viewport">
<title>src/ButtonWrapSizer.cpp</title>
<polygon fill="white" stroke="transparent" points="-4,4 -4,-472 1859,-472 1859,4 -4,4"/>
<!-- Node1 -->
<g id="node1" class="node">
<title>Node1</title>
<g id="a_node1"><a xlink:title="This file defines the class CharacterButton.">
<polygon fill="#bfbfbf" stroke="black" points="1153,-448.5 1153,-467.5 1288,-467.5 1288,-448.5 1153,-448.5"/>
<text text-anchor="middle" x="1220.5" y="-455.5" font-family="Helvetica,sans-Serif" font-size="10.00">src/ButtonWrapSizer.cpp</text>
</a>
</g>
</g>
<!-- Node2 -->
<g id="node2" class="node">
<title>Node2</title>
<g id="a_node2"><a xlink:href="ButtonWrapSizer_8h.html" target="_top" xlink:title="This file contains the definition of the class Buttonwrapsizer that allows to select arbitrary unicod...">
<polygon fill="white" stroke="black" points="129,-392.5 129,-411.5 236,-411.5 236,-392.5 129,-392.5"/>
<text text-anchor="middle" x="182.5" y="-399.5" font-family="Helvetica,sans-Serif" font-size="10.00">ButtonWrapSizer.h</text>
</a>
</g>
</g>
<!-- Node1&#45;&gt;Node2 -->
<g id="edge1" class="edge">
<title>Node1&#45;&gt;Node2</title>
<path fill="none" stroke="midnightblue" d="M1152.79,-453.48C963.49,-443.63 430.54,-415.9 246.19,-406.31"/>
<polygon fill="midnightblue" stroke="midnightblue" points="246.28,-402.81 236.11,-405.79 245.92,-409.8 246.28,-402.81"/>
</g>
<!-- Node7 -->
<g id="node7" class="node">
<title>Node7</title>
<g id="a_node7"><a xlink:href="UnicodeSidebar_8h.html" target="_top" xlink:title="This file contains the definition of the class Unicodesidebar that allows to select arbitrary unicode...">
<polygon fill="white" stroke="black" points="630,-392.5 630,-411.5 731,-411.5 731,-392.5 630,-392.5"/>
<text text-anchor="middle" x="680.5" y="-399.5" font-family="Helvetica,sans-Serif" font-size="10.00">UnicodeSidebar.h</text>
</a>
</g>
</g>
<!-- Node1&#45;&gt;Node7 -->
<g id="edge6" class="edge">
<title>Node1&#45;&gt;Node7</title>
<path fill="none" stroke="midnightblue" d="M1152.93,-450.24C1046.91,-439.64 843.1,-419.26 741.38,-409.09"/>
<polygon fill="midnightblue" stroke="midnightblue" points="741.56,-405.59 731.26,-408.08 740.87,-412.55 741.56,-405.59"/>
</g>
<!-- Node23 -->
<g id="node23" class="node">
<title>Node23</title>
<g id="a_node23"><a xlink:title=" ">
<polygon fill="white" stroke="#bfbfbf" points="1751.5,-112.5 1751.5,-131.5 1833.5,-131.5 1833.5,-112.5 1751.5,-112.5"/>
<text text-anchor="middle" x="1792.5" y="-119.5" font-family="Helvetica,sans-Serif" font-size="10.00">wx/settings.h</text>
</a>
</g>
</g>
<!-- Node1&#45;&gt;Node23 -->
<g id="edge67" class="edge">
<title>Node1&#45;&gt;Node23</title>
<path fill="none" stroke="midnightblue" d="M1288.2,-457.26C1433.36,-455.99 1761.5,-442.55 1761.5,-347 1761.5,-347 1761.5,-347 1761.5,-233 1761.5,-199.41 1775.06,-162.14 1784.24,-140.75"/>
<polygon fill="midnightblue" stroke="midnightblue" points="1787.44,-142.17 1788.32,-131.61 1781.05,-139.31 1787.44,-142.17"/>
</g>
<!-- Node47 -->
<g id="node47" class="node">
<title>Node47</title>
<g id="a_node47"><a xlink:title=" ">
<polygon fill="white" stroke="#bfbfbf" points="1790,-392.5 1790,-411.5 1855,-411.5 1855,-392.5 1790,-392.5"/>
<text text-anchor="middle" x="1822.5" y="-399.5" font-family="Helvetica,sans-Serif" font-size="10.00">wx/sizer.h</text>
</a>
</g>
</g>
<!-- Node1&#45;&gt;Node47 -->
<g id="edge68" class="edge">
<title>Node1&#45;&gt;Node47</title>
<path fill="none" stroke="midnightblue" d="M1288.25,-453.88C1393.06,-448.51 1600.68,-435.75 1775.5,-412 1776.97,-411.8 1778.46,-411.59 1779.96,-411.36"/>
<polygon fill="midnightblue" stroke="midnightblue" points="1780.66,-414.79 1789.96,-409.7 1779.52,-407.88 1780.66,-414.79"/>
</g>
<!-- Node3 -->
<g id="node3" class="node">
<title>Node3</title>
<g id="a_node3"><a xlink:title=" ">
<polygon fill="white" stroke="#bfbfbf" points="107,-336.5 107,-355.5 188,-355.5 188,-336.5 107,-336.5"/>
<text text-anchor="middle" x="147.5" y="-343.5" font-family="Helvetica,sans-Serif" font-size="10.00">wx/stattext.h</text>
</a>
</g>
</g>
<!-- Node2&#45;&gt;Node3 -->
<g id="edge2" class="edge">
<title>Node2&#45;&gt;Node3</title>
<path fill="none" stroke="midnightblue" d="M176.72,-392.08C171.83,-384.53 164.67,-373.49 158.67,-364.23"/>
<polygon fill="midnightblue" stroke="midnightblue" points="161.55,-362.24 153.17,-355.75 155.67,-366.05 161.55,-362.24"/>
</g>
<!-- Node4 -->
<g id="node4" class="node">
<title>Node4</title>
<g id="a_node4"><a xlink:href="precomp_8h_source.html" target="_top" xlink:title=" ">
<polygon fill="white" stroke="black" points="407.5,-56.5 407.5,-75.5 475.5,-75.5 475.5,-56.5 407.5,-56.5"/>
<text text-anchor="middle" x="441.5" y="-63.5" font-family="Helvetica,sans-Serif" font-size="10.00">precomp.h</text>
</a>
</g>
</g>
<!-- Node2&#45;&gt;Node4 -->
<g id="edge3" class="edge">
<title>Node2&#45;&gt;Node4</title>
<path fill="none" stroke="midnightblue" d="M187.09,-392.44C196.37,-374.29 216.5,-330.38 216.5,-291 216.5,-291 216.5,-291 216.5,-177 216.5,-97.34 331.73,-75.36 397.26,-69.3"/>
<polygon fill="midnightblue" stroke="midnightblue" points="397.65,-72.78 407.33,-68.46 397.07,-65.81 397.65,-72.78"/>
</g>
<!-- Node6 -->
<g id="node6" class="node">
<title>Node6</title>
<g id="a_node6"><a xlink:title=" ">
<polygon fill="white" stroke="#bfbfbf" points="0,-336.5 0,-355.5 89,-355.5 89,-336.5 0,-336.5"/>
<text text-anchor="middle" x="44.5" y="-343.5" font-family="Helvetica,sans-Serif" font-size="10.00">wx/wrapsizer.h</text>
</a>
</g>
</g>
<!-- Node2&#45;&gt;Node6 -->
<g id="edge5" class="edge">
<title>Node2&#45;&gt;Node6</title>
<path fill="none" stroke="midnightblue" d="M160.63,-392.44C137.72,-383.48 101.52,-369.31 75.63,-359.18"/>
<polygon fill="midnightblue" stroke="midnightblue" points="76.85,-355.9 66.26,-355.52 74.3,-362.42 76.85,-355.9"/>
</g>
<!-- Node5 -->
<g id="node5" class="node">
<title>Node5</title>
<g id="a_node5"><a xlink:href="Version_8h_source.html" target="_top" xlink:title=" ">
<polygon fill="white" stroke="black" points="410.5,-0.5 410.5,-19.5 472.5,-19.5 472.5,-0.5 410.5,-0.5"/>
<text text-anchor="middle" x="441.5" y="-7.5" font-family="Helvetica,sans-Serif" font-size="10.00">Version.h</text>
</a>
</g>
</g>
<!-- Node4&#45;&gt;Node5 -->
<g id="edge4" class="edge">
<title>Node4&#45;&gt;Node5</title>
<path fill="none" stroke="midnightblue" d="M441.5,-56.08C441.5,-49.01 441.5,-38.86 441.5,-29.99"/>
<polygon fill="midnightblue" stroke="midnightblue" points="445,-29.75 441.5,-19.75 438,-29.75 445,-29.75"/>
</g>
<!-- Node7&#45;&gt;Node4 -->
<g id="edge7" class="edge">
<title>Node7&#45;&gt;Node4</title>
<path fill="none" stroke="midnightblue" d="M629.96,-398.58C517.12,-391.8 254.5,-367.77 254.5,-291 254.5,-291 254.5,-291 254.5,-177 254.5,-111.05 341.99,-83.85 397.28,-73.25"/>
<polygon fill="midnightblue" stroke="midnightblue" points="397.98,-76.68 407.2,-71.46 396.74,-69.79 397.98,-76.68"/>
</g>
<!-- Node8 -->
<g id="node8" class="node">
<title>Node8</title>
<g id="a_node8"><a xlink:href="RegexCtrl_8h_source.html" target="_top" xlink:title=" ">
<polygon fill="white" stroke="black" points="488.5,-336.5 488.5,-355.5 562.5,-355.5 562.5,-336.5 488.5,-336.5"/>
<text text-anchor="middle" x="525.5" y="-343.5" font-family="Helvetica,sans-Serif" font-size="10.00">RegexCtrl.h</text>
</a>
</g>
</g>
<!-- Node7&#45;&gt;Node8 -->
<g id="edge8" class="edge">
<title>Node7&#45;&gt;Node8</title>
<path fill="none" stroke="midnightblue" d="M655.94,-392.44C629.98,-383.4 588.83,-369.06 559.7,-358.92"/>
<polygon fill="midnightblue" stroke="midnightblue" points="560.54,-355.5 549.95,-355.52 558.24,-362.11 560.54,-355.5"/>
</g>
<!-- Node9 -->
<g id="node9" class="node">
<title>Node9</title>
<g id="a_node9"><a xlink:title=" ">
<polygon fill="white" stroke="#bfbfbf" points="359,-168.5 359,-187.5 416,-187.5 416,-168.5 359,-168.5"/>
<text text-anchor="middle" x="387.5" y="-175.5" font-family="Helvetica,sans-Serif" font-size="10.00">wx/wx.h</text>
</a>
</g>
</g>
<!-- Node7&#45;&gt;Node9 -->
<g id="edge65" class="edge">
<title>Node7&#45;&gt;Node9</title>
<path fill="none" stroke="midnightblue" d="M681.84,-392.23C684.63,-370.55 688.74,-313.76 661.5,-280 646.1,-260.92 497.46,-212.98 425.78,-190.71"/>
<polygon fill="midnightblue" stroke="midnightblue" points="426.38,-187.23 415.79,-187.62 424.31,-193.92 426.38,-187.23"/>
</g>
<!-- Node46 -->
<g id="node46" class="node">
<title>Node46</title>
<g id="a_node46"><a xlink:title=" ">
<polygon fill="white" stroke="#bfbfbf" points="708.5,-336.5 708.5,-355.5 770.5,-355.5 770.5,-336.5 708.5,-336.5"/>
<text text-anchor="middle" x="739.5" y="-343.5" font-family="Helvetica,sans-Serif" font-size="10.00">wx/grid.h</text>
</a>
</g>
</g>
<!-- Node7&#45;&gt;Node46 -->
<g id="edge66" class="edge">
<title>Node7&#45;&gt;Node46</title>
<path fill="none" stroke="midnightblue" d="M689.98,-392.32C698.7,-384.34 711.84,-372.31 722.4,-362.65"/>
<polygon fill="midnightblue" stroke="midnightblue" points="724.83,-365.17 729.85,-355.83 720.11,-360 724.83,-365.17"/>
</g>
<!-- Node8&#45;&gt;Node4 -->
<g id="edge9" class="edge">
<title>Node8&#45;&gt;Node4</title>
<path fill="none" stroke="midnightblue" d="M488.32,-343.87C422.54,-339.67 292.5,-320.55 292.5,-235 292.5,-235 292.5,-235 292.5,-177 292.5,-123.94 354.41,-93.58 398.42,-78.7"/>
<polygon fill="midnightblue" stroke="midnightblue" points="399.62,-81.99 408.06,-75.59 397.47,-75.33 399.62,-81.99"/>
</g>
<!-- Node8&#45;&gt;Node9 -->
<g id="edge10" class="edge">
<title>Node8&#45;&gt;Node9</title>
<path fill="none" stroke="midnightblue" d="M488.41,-344.09C456.2,-341.09 411.24,-331.13 388.5,-300 366.48,-269.85 374.55,-223.26 381.54,-197.57"/>
<polygon fill="midnightblue" stroke="midnightblue" points="384.99,-198.25 384.48,-187.67 378.28,-196.26 384.99,-198.25"/>
</g>
<!-- Node10 -->
<g id="node10" class="node">
<title>Node10</title>
<g id="a_node10"><a xlink:title=" ">
<polygon fill="white" stroke="#bfbfbf" points="397,-280.5 397,-299.5 468,-299.5 468,-280.5 397,-280.5"/>
<text text-anchor="middle" x="432.5" y="-287.5" font-family="Helvetica,sans-Serif" font-size="10.00">wx/regex.h</text>
</a>
</g>
</g>
<!-- Node8&#45;&gt;Node10 -->
<g id="edge11" class="edge">
<title>Node8&#45;&gt;Node10</title>
<path fill="none" stroke="midnightblue" d="M510.56,-336.32C495.91,-327.82 473.37,-314.73 456.26,-304.8"/>
<polygon fill="midnightblue" stroke="midnightblue" points="457.81,-301.65 447.4,-299.65 454.3,-307.7 457.81,-301.65"/>
</g>
<!-- Node11 -->
<g id="node11" class="node">
<title>Node11</title>
<g id="a_node11"><a xlink:title=" ">
<polygon fill="white" stroke="#bfbfbf" points="486.5,-280.5 486.5,-299.5 564.5,-299.5 564.5,-280.5 486.5,-280.5"/>
<text text-anchor="middle" x="525.5" y="-287.5" font-family="Helvetica,sans-Serif" font-size="10.00">wx/textctrl.h</text>
</a>
</g>
</g>
<!-- Node8&#45;&gt;Node11 -->
<g id="edge12" class="edge">
<title>Node8&#45;&gt;Node11</title>
<path fill="none" stroke="midnightblue" d="M525.5,-336.08C525.5,-329.01 525.5,-318.86 525.5,-309.99"/>
<polygon fill="midnightblue" stroke="midnightblue" points="529,-309.75 525.5,-299.75 522,-309.75 529,-309.75"/>
</g>
<!-- Node12 -->
<g id="node12" class="node">
<title>Node12</title>
<g id="a_node12"><a xlink:href="Configuration_8h_source.html" target="_top" xlink:title=" ">
<polygon fill="white" stroke="black" points="983,-224.5 983,-243.5 1074,-243.5 1074,-224.5 983,-224.5"/>
<text text-anchor="middle" x="1028.5" y="-231.5" font-family="Helvetica,sans-Serif" font-size="10.00">Configuration.h</text>
</a>
</g>
</g>
<!-- Node8&#45;&gt;Node12 -->
<g id="edge13" class="edge">
<title>Node8&#45;&gt;Node12</title>
<path fill="none" stroke="midnightblue" d="M562.9,-336.82C652.48,-317.23 879.37,-267.61 979.61,-245.69"/>
<polygon fill="midnightblue" stroke="midnightblue" points="980.46,-249.09 989.48,-243.53 978.96,-242.25 980.46,-249.09"/>
</g>
<!-- Node45 -->
<g id="node45" class="node">
<title>Node45</title>
<g id="a_node45"><a xlink:href="BTextCtrl_8h_source.html" target="_top" xlink:title=" ">
<polygon fill="white" stroke="black" points="582.5,-280.5 582.5,-299.5 652.5,-299.5 652.5,-280.5 582.5,-280.5"/>
<text text-anchor="middle" x="617.5" y="-287.5" font-family="Helvetica,sans-Serif" font-size="10.00">BTextCtrl.h</text>
</a>
</g>
</g>
<!-- Node8&#45;&gt;Node45 -->
<g id="edge61" class="edge">
<title>Node8&#45;&gt;Node45</title>
<path fill="none" stroke="midnightblue" d="M540.28,-336.32C554.77,-327.82 577.07,-314.73 593.99,-304.8"/>
<polygon fill="midnightblue" stroke="midnightblue" points="595.9,-307.74 602.76,-299.65 592.36,-301.7 595.9,-307.74"/>
</g>
<!-- Node12&#45;&gt;Node4 -->
<g id="edge14" class="edge">
<title>Node12&#45;&gt;Node4</title>
<path fill="none" stroke="midnightblue" d="M1074.03,-232.48C1145.06,-230.6 1277.19,-222.44 1306.5,-188 1312.26,-181.23 1312.41,-174.64 1306.5,-168 1292.64,-152.43 660.25,-88.68 485.71,-71.36"/>
<polygon fill="midnightblue" stroke="midnightblue" points="485.89,-67.86 475.59,-70.36 485.2,-74.83 485.89,-67.86"/>
</g>
<!-- Node12&#45;&gt;Node9 -->
<g id="edge15" class="edge">
<title>Node12&#45;&gt;Node9</title>
<path fill="none" stroke="midnightblue" d="M982.83,-232.05C883.38,-229.46 639.72,-220.24 426.18,-187.83"/>
<polygon fill="midnightblue" stroke="midnightblue" points="426.45,-184.33 416.04,-186.27 425.39,-191.25 426.45,-184.33"/>
</g>
<!-- Node13 -->
<g id="node13" class="node">
<title>Node13</title>
<g id="a_node13"><a xlink:title=" ">
<polygon fill="white" stroke="#bfbfbf" points="1623.5,-112.5 1623.5,-131.5 1695.5,-131.5 1695.5,-112.5 1623.5,-112.5"/>
<text text-anchor="middle" x="1659.5" y="-119.5" font-family="Helvetica,sans-Serif" font-size="10.00">wx/config.h</text>
</a>
</g>
</g>
<!-- Node12&#45;&gt;Node13 -->
<g id="edge16" class="edge">
<title>Node12&#45;&gt;Node13</title>
<path fill="none" stroke="midnightblue" d="M1074.12,-231.88C1155.2,-229.11 1329.34,-219.68 1472.5,-188 1529.86,-175.31 1593.99,-150.59 1630.28,-135.56"/>
<polygon fill="midnightblue" stroke="midnightblue" points="1631.87,-138.68 1639.75,-131.59 1629.17,-132.23 1631.87,-138.68"/>
</g>
<!-- Node14 -->
<g id="node14" class="node">
<title>Node14</title>
<g id="a_node14"><a xlink:title=" ">
<polygon fill="white" stroke="#bfbfbf" points="591,-168.5 591,-187.5 668,-187.5 668,-168.5 591,-168.5"/>
<text text-anchor="middle" x="629.5" y="-175.5" font-family="Helvetica,sans-Serif" font-size="10.00">wx/display.h</text>
</a>
</g>
</g>
<!-- Node12&#45;&gt;Node14 -->
<g id="edge17" class="edge">
<title>Node12&#45;&gt;Node14</title>
<path fill="none" stroke="midnightblue" d="M982.94,-228.01C917.79,-220.69 794,-206.09 678.33,-188.05"/>
<polygon fill="midnightblue" stroke="midnightblue" points="678.66,-184.56 668.24,-186.46 677.57,-191.47 678.66,-184.56"/>
</g>
<!-- Node15 -->
<g id="node15" class="node">
<title>Node15</title>
<g id="a_node15"><a xlink:title=" ">
<polygon fill="white" stroke="#bfbfbf" points="686.5,-168.5 686.5,-187.5 776.5,-187.5 776.5,-168.5 686.5,-168.5"/>
<text text-anchor="middle" x="731.5" y="-175.5" font-family="Helvetica,sans-Serif" font-size="10.00">wx/fontenum.h</text>
</a>
</g>
</g>
<!-- Node12&#45;&gt;Node15 -->
<g id="edge18" class="edge">
<title>Node12&#45;&gt;Node15</title>
<path fill="none" stroke="midnightblue" d="M982.74,-224.68C930.05,-215.1 843.5,-199.36 787,-189.09"/>
<polygon fill="midnightblue" stroke="midnightblue" points="787.28,-185.59 776.82,-187.24 786.03,-192.47 787.28,-185.59"/>
</g>
<!-- Node16 -->
<g id="node16" class="node">
<title>Node16</title>
<g id="a_node16"><a xlink:title=" ">
<polygon fill="white" stroke="#bfbfbf" points="794.5,-168.5 794.5,-187.5 882.5,-187.5 882.5,-168.5 794.5,-168.5"/>
<text text-anchor="middle" x="838.5" y="-175.5" font-family="Helvetica,sans-Serif" font-size="10.00">wx/hashmap.h</text>
</a>
</g>
</g>
<!-- Node12&#45;&gt;Node16 -->
<g id="edge19" class="edge">
<title>Node12&#45;&gt;Node16</title>
<path fill="none" stroke="midnightblue" d="M998.39,-224.44C965.87,-215.2 913.92,-200.44 878.11,-190.26"/>
<polygon fill="midnightblue" stroke="midnightblue" points="879.04,-186.88 868.47,-187.52 877.13,-193.62 879.04,-186.88"/>
</g>
<!-- Node17 -->
<g id="node17" class="node">
<title>Node17</title>
<g id="a_node17"><a xlink:href="LoggingMessageDialog_8h.html" target="_top" xlink:title="This file declares a message dialog that sends its contents to the log message sink.">
<polygon fill="white" stroke="black" points="434,-168.5 434,-187.5 573,-187.5 573,-168.5 434,-168.5"/>
<text text-anchor="middle" x="503.5" y="-175.5" font-family="Helvetica,sans-Serif" font-size="10.00">LoggingMessageDialog.h</text>
</a>
</g>
</g>
<!-- Node12&#45;&gt;Node17 -->
<g id="edge20" class="edge">
<title>Node12&#45;&gt;Node17</title>
<path fill="none" stroke="midnightblue" d="M982.89,-228.59C903.88,-220.92 736.15,-204.44 583.33,-188.08"/>
<polygon fill="midnightblue" stroke="midnightblue" points="583.6,-184.59 573.28,-187 582.85,-191.55 583.6,-184.59"/>
</g>
<!-- Node20 -->
<g id="node20" class="node">
<title>Node20</title>
<g id="a_node20"><a xlink:href="TextStyle_8h.html" target="_top" xlink:title="This file declares everything needed for the text style system used to style all the elements on the ...">
<polygon fill="white" stroke="black" points="1392,-168.5 1392,-187.5 1463,-187.5 1463,-168.5 1392,-168.5"/>
<text text-anchor="middle" x="1427.5" y="-175.5" font-family="Helvetica,sans-Serif" font-size="10.00">TextStyle.h</text>
</a>
</g>
</g>
<!-- Node12&#45;&gt;Node20 -->
<g id="edge24" class="edge">
<title>Node12&#45;&gt;Node20</title>
<path fill="none" stroke="midnightblue" d="M1074.06,-227.86C1140.79,-220.17 1268.97,-204.75 1377.5,-188 1378.94,-187.78 1380.41,-187.55 1381.89,-187.31"/>
<polygon fill="midnightblue" stroke="midnightblue" points="1382.47,-190.76 1391.76,-185.66 1381.32,-183.85 1382.47,-190.76"/>
</g>
<!-- Node36 -->
<g id="node36" class="node">
<title>Node36</title>
<g id="a_node36"><a xlink:title=" ">
<polygon fill="white" stroke="#bfbfbf" points="1716.5,-56.5 1716.5,-75.5 1774.5,-75.5 1774.5,-56.5 1716.5,-56.5"/>
<text text-anchor="middle" x="1745.5" y="-63.5" font-family="Helvetica,sans-Serif" font-size="10.00">memory</text>
</a>
</g>
</g>
<!-- Node12&#45;&gt;Node36 -->
<g id="edge53" class="edge">
<title>Node12&#45;&gt;Node36</title>
<path fill="none" stroke="midnightblue" d="M1074.05,-231.93C1161.41,-229.21 1358.25,-219.76 1520.5,-188 1604.39,-171.58 1636.54,-183.85 1704.5,-132 1720.38,-119.89 1731.7,-99.72 1738.37,-85.06"/>
<polygon fill="midnightblue" stroke="midnightblue" points="1741.72,-86.12 1742.41,-75.55 1735.28,-83.39 1741.72,-86.12"/>
</g>
<!-- Node37 -->
<g id="node37" class="node">
<title>Node37</title>
<g id="a_node37"><a xlink:title=" ">
<polygon fill="white" stroke="#bfbfbf" points="1818.5,-56.5 1818.5,-75.5 1850.5,-75.5 1850.5,-56.5 1818.5,-56.5"/>
<text text-anchor="middle" x="1834.5" y="-63.5" font-family="Helvetica,sans-Serif" font-size="10.00">list</text>
</a>
</g>
</g>
<!-- Node12&#45;&gt;Node37 -->
<g id="edge57" class="edge">
<title>Node12&#45;&gt;Node37</title>
<path fill="none" stroke="midnightblue" d="M1074.07,-231.54C1170.32,-227.98 1401.16,-216.92 1592.5,-188 1705.09,-170.99 1771.33,-220.88 1842.5,-132 1853.02,-118.86 1848.7,-99.18 1843.18,-84.91"/>
<polygon fill="midnightblue" stroke="midnightblue" points="1846.35,-83.43 1839.15,-75.66 1839.93,-86.22 1846.35,-83.43"/>
</g>
<!-- Node39 -->
<g id="node39" class="node">
<title>Node39</title>
<g id="a_node39"><a xlink:title=" ">
<polygon fill="white" stroke="#bfbfbf" points="1503,-56.5 1503,-75.5 1596,-75.5 1596,-56.5 1503,-56.5"/>
<text text-anchor="middle" x="1549.5" y="-63.5" font-family="Helvetica,sans-Serif" font-size="10.00">unordered_map</text>
</a>
</g>
</g>
<!-- Node12&#45;&gt;Node39 -->
<g id="edge55" class="edge">
<title>Node12&#45;&gt;Node39</title>
<path fill="none" stroke="midnightblue" d="M1074.01,-233.38C1151.92,-232.95 1305.71,-227.03 1339.5,-188 1362.44,-161.51 1296.22,-139.05 1318.5,-112 1324.08,-105.22 1426.35,-87.25 1492.93,-76.18"/>
<polygon fill="midnightblue" stroke="midnightblue" points="1493.58,-79.62 1502.88,-74.53 1492.44,-72.71 1493.58,-79.62"/>
</g>
<!-- Node40 -->
<g id="node40" class="node">
<title>Node40</title>
<g id="a_node40"><a xlink:title=" ">
<polygon fill="white" stroke="#bfbfbf" points="900.5,-168.5 900.5,-187.5 948.5,-187.5 948.5,-168.5 900.5,-168.5"/>
<text text-anchor="middle" x="924.5" y="-175.5" font-family="Helvetica,sans-Serif" font-size="10.00">mutex</text>
</a>
</g>
</g>
<!-- Node12&#45;&gt;Node40 -->
<g id="edge54" class="edge">
<title>Node12&#45;&gt;Node40</title>
<path fill="none" stroke="midnightblue" d="M1011.79,-224.32C995.19,-215.7 969.5,-202.36 950.28,-192.39"/>
<polygon fill="midnightblue" stroke="midnightblue" points="951.66,-189.16 941.17,-187.65 948.43,-195.37 951.66,-189.16"/>
</g>
<!-- Node41 -->
<g id="node41" class="node">
<title>Node41</title>
<g id="a_node41"><a xlink:title=" ">
<polygon fill="white" stroke="#bfbfbf" points="966.5,-168.5 966.5,-187.5 1020.5,-187.5 1020.5,-168.5 966.5,-168.5"/>
<text text-anchor="middle" x="993.5" y="-175.5" font-family="Helvetica,sans-Serif" font-size="10.00">random</text>
</a>
</g>
</g>
<!-- Node12&#45;&gt;Node41 -->
<g id="edge56" class="edge">
<title>Node12&#45;&gt;Node41</title>
<path fill="none" stroke="midnightblue" d="M1022.72,-224.08C1017.83,-216.53 1010.67,-205.49 1004.67,-196.23"/>
<polygon fill="midnightblue" stroke="midnightblue" points="1007.55,-194.24 999.17,-187.75 1001.67,-198.05 1007.55,-194.24"/>
</g>
<!-- Node42 -->
<g id="node42" class="node">
<title>Node42</title>
<g id="a_node42"><a xlink:title=" ">
<polygon fill="white" stroke="#bfbfbf" points="1039,-168.5 1039,-187.5 1086,-187.5 1086,-168.5 1039,-168.5"/>
<text text-anchor="middle" x="1062.5" y="-175.5" font-family="Helvetica,sans-Serif" font-size="10.00">vector</text>
</a>
</g>
</g>
<!-- Node12&#45;&gt;Node42 -->
<g id="edge58" class="edge">
<title>Node12&#45;&gt;Node42</title>
<path fill="none" stroke="midnightblue" d="M1034.11,-224.08C1038.87,-216.53 1045.82,-205.49 1051.65,-196.23"/>
<polygon fill="midnightblue" stroke="midnightblue" points="1054.62,-198.08 1056.99,-187.75 1048.7,-194.35 1054.62,-198.08"/>
</g>
<!-- Node43 -->
<g id="node43" class="node">
<title>Node43</title>
<g id="a_node43"><a xlink:title=" ">
<polygon fill="white" stroke="#bfbfbf" points="1104,-168.5 1104,-187.5 1193,-187.5 1193,-168.5 1104,-168.5"/>
<text text-anchor="middle" x="1148.5" y="-175.5" font-family="Helvetica,sans-Serif" font-size="10.00">wx/wupdlock.h</text>
</a>
</g>
</g>
<!-- Node12&#45;&gt;Node43 -->
<g id="edge59" class="edge">
<title>Node12&#45;&gt;Node43</title>
<path fill="none" stroke="midnightblue" d="M1047.51,-224.44C1067.09,-215.64 1097.81,-201.81 1120.23,-191.72"/>
<polygon fill="midnightblue" stroke="midnightblue" points="1121.89,-194.81 1129.57,-187.52 1119.02,-188.43 1121.89,-194.81"/>
</g>
<!-- Node44 -->
<g id="node44" class="node">
<title>Node44</title>
<g id="a_node44"><a xlink:title=" ">
<polygon fill="white" stroke="#bfbfbf" points="1211.5,-168.5 1211.5,-187.5 1297.5,-187.5 1297.5,-168.5 1211.5,-168.5"/>
<text text-anchor="middle" x="1254.5" y="-175.5" font-family="Helvetica,sans-Serif" font-size="10.00">wx/webview.h</text>
</a>
</g>
</g>
<!-- Node12&#45;&gt;Node44 -->
<g id="edge60" class="edge">
<title>Node12&#45;&gt;Node44</title>
<path fill="none" stroke="midnightblue" d="M1064.31,-224.44C1103.49,-215.08 1166.38,-200.06 1209.02,-189.87"/>
<polygon fill="midnightblue" stroke="midnightblue" points="1209.94,-193.24 1218.86,-187.52 1208.32,-186.44 1209.94,-193.24"/>
</g>
<!-- Node17&#45;&gt;Node4 -->
<g id="edge21" class="edge">
<title>Node17&#45;&gt;Node4</title>
<path fill="none" stroke="midnightblue" d="M512.75,-168.21C525.13,-155.35 544.24,-130.89 532.5,-112 522.06,-95.2 503.29,-84.48 485.5,-77.74"/>
<polygon fill="midnightblue" stroke="midnightblue" points="486.36,-74.34 475.77,-74.39 484.09,-80.96 486.36,-74.34"/>
</g>
<!-- Node18 -->
<g id="node18" class="node">
<title>Node18</title>
<g id="a_node18"><a xlink:title=" ">
<polygon fill="white" stroke="#bfbfbf" points="369,-112.5 369,-131.5 448,-131.5 448,-112.5 369,-112.5"/>
<text text-anchor="middle" x="408.5" y="-119.5" font-family="Helvetica,sans-Serif" font-size="10.00">wx/msgdlg.h</text>
</a>
</g>
</g>
<!-- Node17&#45;&gt;Node18 -->
<g id="edge22" class="edge">
<title>Node17&#45;&gt;Node18</title>
<path fill="none" stroke="midnightblue" d="M488.24,-168.32C473.28,-159.82 450.25,-146.73 432.77,-136.8"/>
<polygon fill="midnightblue" stroke="midnightblue" points="434.15,-133.55 423.73,-131.65 430.69,-139.64 434.15,-133.55"/>
</g>
<!-- Node19 -->
<g id="node19" class="node">
<title>Node19</title>
<g id="a_node19"><a xlink:title=" ">
<polygon fill="white" stroke="#bfbfbf" points="465.5,-112.5 465.5,-131.5 523.5,-131.5 523.5,-112.5 465.5,-112.5"/>
<text text-anchor="middle" x="494.5" y="-119.5" font-family="Helvetica,sans-Serif" font-size="10.00">wx/log.h</text>
</a>
</g>
</g>
<!-- Node17&#45;&gt;Node19 -->
<g id="edge23" class="edge">
<title>Node17&#45;&gt;Node19</title>
<path fill="none" stroke="midnightblue" d="M502.01,-168.08C500.82,-160.93 499.11,-150.64 497.62,-141.69"/>
<polygon fill="midnightblue" stroke="midnightblue" points="501.05,-141.04 495.96,-131.75 494.15,-142.19 501.05,-141.04"/>
</g>
<!-- Node20&#45;&gt;Node4 -->
<g id="edge25" class="edge">
<title>Node20&#45;&gt;Node4</title>
<path fill="none" stroke="midnightblue" d="M1391.98,-172.54C1326.91,-164.17 1191.07,-145.72 1145.5,-132 1124.93,-125.81 1122.33,-117.26 1101.5,-112 984.39,-82.43 614.17,-71.07 485.83,-67.96"/>
<polygon fill="midnightblue" stroke="midnightblue" points="485.67,-64.46 475.59,-67.72 485.5,-71.46 485.67,-64.46"/>
</g>
<!-- Node20&#45;&gt;Node13 -->
<g id="edge27" class="edge">
<title>Node20&#45;&gt;Node13</title>
<path fill="none" stroke="midnightblue" d="M1463.24,-168.68C1503.57,-159.29 1569.28,-144 1613.43,-133.72"/>
<polygon fill="midnightblue" stroke="midnightblue" points="1614.39,-137.09 1623.34,-131.42 1612.8,-130.28 1614.39,-137.09"/>
</g>
<!-- Node21 -->
<g id="node21" class="node">
<title>Node21</title>
<g id="a_node21"><a xlink:title=" ">
<polygon fill="white" stroke="#bfbfbf" points="1327.5,-112.5 1327.5,-131.5 1399.5,-131.5 1399.5,-112.5 1327.5,-112.5"/>
<text text-anchor="middle" x="1363.5" y="-119.5" font-family="Helvetica,sans-Serif" font-size="10.00">wx/colour.h</text>
</a>
</g>
</g>
<!-- Node20&#45;&gt;Node21 -->
<g id="edge26" class="edge">
<title>Node20&#45;&gt;Node21</title>
<path fill="none" stroke="midnightblue" d="M1417.22,-168.32C1407.66,-160.26 1393.22,-148.08 1381.72,-138.37"/>
<polygon fill="midnightblue" stroke="midnightblue" points="1383.87,-135.61 1373.97,-131.83 1379.36,-140.96 1383.87,-135.61"/>
</g>
<!-- Node22 -->
<g id="node22" class="node">
<title>Node22</title>
<g id="a_node22"><a xlink:title=" ">
<polygon fill="white" stroke="#bfbfbf" points="1422.5,-56.5 1422.5,-75.5 1484.5,-75.5 1484.5,-56.5 1422.5,-56.5"/>
<text text-anchor="middle" x="1453.5" y="-63.5" font-family="Helvetica,sans-Serif" font-size="10.00">wx/font.h</text>
</a>
</g>
</g>
<!-- Node20&#45;&gt;Node22 -->
<g id="edge28" class="edge">
<title>Node20&#45;&gt;Node22</title>
<path fill="none" stroke="midnightblue" d="M1430.49,-168.46C1433.56,-159.47 1438.32,-144.87 1441.5,-132 1445.29,-116.66 1448.47,-99.02 1450.61,-85.99"/>
<polygon fill="midnightblue" stroke="midnightblue" points="1454.1,-86.33 1452.2,-75.9 1447.18,-85.23 1454.1,-86.33"/>
</g>
<!-- Node20&#45;&gt;Node23 -->
<g id="edge29" class="edge">
<title>Node20&#45;&gt;Node23</title>
<path fill="none" stroke="midnightblue" d="M1463.16,-171.72C1528.18,-162.1 1666.19,-141.69 1741.26,-130.58"/>
<polygon fill="midnightblue" stroke="midnightblue" points="1742.04,-134 1751.42,-129.08 1741.02,-127.08 1742.04,-134"/>
</g>
<!-- Node24 -->
<g id="node24" class="node">
<title>Node24</title>
<g id="a_node24"><a xlink:title=" ">
<polygon fill="white" stroke="#bfbfbf" points="1316.5,-56.5 1316.5,-75.5 1366.5,-75.5 1366.5,-56.5 1316.5,-56.5"/>
<text text-anchor="middle" x="1341.5" y="-63.5" font-family="Helvetica,sans-Serif" font-size="10.00">cstdint</text>
</a>
</g>
</g>
<!-- Node20&#45;&gt;Node24 -->
<g id="edge30" class="edge">
<title>Node20&#45;&gt;Node24</title>
<path fill="none" stroke="midnightblue" d="M1391.79,-172.61C1366.66,-167.44 1334.72,-156.25 1318.5,-132 1308.56,-117.15 1318.04,-97.51 1327.66,-83.72"/>
<polygon fill="midnightblue" stroke="midnightblue" points="1330.56,-85.7 1333.81,-75.61 1324.98,-81.47 1330.56,-85.7"/>
</g>
<!-- Node25 -->
<g id="node25" class="node">
<title>Node25</title>
<g id="a_node25"><a xlink:title=" ">
<polygon fill="white" stroke="#bfbfbf" points="1312,-0.5 1312,-19.5 1377,-19.5 1377,-0.5 1312,-0.5"/>
<text text-anchor="middle" x="1344.5" y="-7.5" font-family="Helvetica,sans-Serif" font-size="10.00">functional</text>
</a>
</g>
</g>
<!-- Node20&#45;&gt;Node25 -->
<g id="edge31" class="edge">
<title>Node20&#45;&gt;Node25</title>
<path fill="none" stroke="midnightblue" d="M1425.69,-168.35C1422.88,-155.67 1416.91,-131.42 1408.5,-112 1397.03,-85.49 1391.04,-80.35 1375.5,-56 1369.43,-46.49 1362.31,-36.1 1356.42,-27.7"/>
<polygon fill="midnightblue" stroke="midnightblue" points="1359.26,-25.65 1350.63,-19.51 1353.54,-29.69 1359.26,-25.65"/>
</g>
<!-- Node26 -->
<g id="node26" class="node">
<title>Node26</title>
<g id="a_node26"><a xlink:href="FontAttribs_8h_source.html" target="_top" xlink:title=" ">
<polygon fill="white" stroke="black" points="1154,-112.5 1154,-131.5 1233,-131.5 1233,-112.5 1154,-112.5"/>
<text text-anchor="middle" x="1193.5" y="-119.5" font-family="Helvetica,sans-Serif" font-size="10.00">FontAttribs.h</text>
</a>
</g>
</g>
<!-- Node20&#45;&gt;Node26 -->
<g id="edge32" class="edge">
<title>Node20&#45;&gt;Node26</title>
<path fill="none" stroke="midnightblue" d="M1391.96,-168.8C1351.43,-159.44 1285,-144.12 1240.29,-133.8"/>
<polygon fill="midnightblue" stroke="midnightblue" points="1241.07,-130.38 1230.54,-131.55 1239.49,-137.21 1241.07,-130.38"/>
</g>
<!-- Node35 -->
<g id="node35" class="node">
<title>Node35</title>
<g id="a_node35"><a xlink:href="FontVariantCache_8h.html" target="_top" xlink:title="This file implements the wxFont cache system.">
<polygon fill="white" stroke="black" points="1494,-112.5 1494,-131.5 1605,-131.5 1605,-112.5 1494,-112.5"/>
<text text-anchor="middle" x="1549.5" y="-119.5" font-family="Helvetica,sans-Serif" font-size="10.00">FontVariantCache.h</text>
</a>
</g>
</g>
<!-- Node20&#45;&gt;Node35 -->
<g id="edge45" class="edge">
<title>Node20&#45;&gt;Node35</title>
<path fill="none" stroke="midnightblue" d="M1446.83,-168.44C1466.82,-159.6 1498.24,-145.69 1521.06,-135.59"/>
<polygon fill="midnightblue" stroke="midnightblue" points="1522.53,-138.76 1530.26,-131.52 1519.7,-132.36 1522.53,-138.76"/>
</g>
<!-- Node26&#45;&gt;Node22 -->
<g id="edge39" class="edge">
<title>Node26&#45;&gt;Node22</title>
<path fill="none" stroke="midnightblue" d="M1233.27,-112.74C1281.75,-102.67 1363.25,-85.74 1412.34,-75.55"/>
<polygon fill="midnightblue" stroke="midnightblue" points="1413.22,-78.94 1422.3,-73.48 1411.8,-72.09 1413.22,-78.94"/>
</g>
<!-- Node26&#45;&gt;Node24 -->
<g id="edge42" class="edge">
<title>Node26&#45;&gt;Node24</title>
<path fill="none" stroke="midnightblue" d="M1216.95,-112.44C1241.63,-103.44 1280.69,-89.19 1308.48,-79.05"/>
<polygon fill="midnightblue" stroke="midnightblue" points="1309.96,-82.23 1318.16,-75.52 1307.56,-75.66 1309.96,-82.23"/>
</g>
<!-- Node26&#45;&gt;Node25 -->
<g id="edge43" class="edge">
<title>Node26&#45;&gt;Node25</title>
<path fill="none" stroke="midnightblue" d="M1209.74,-112.49C1225.5,-103.98 1249.84,-90.16 1269.5,-76 1290.97,-60.53 1313.67,-40.23 1328.4,-26.46"/>
<polygon fill="midnightblue" stroke="midnightblue" points="1330.84,-28.97 1335.7,-19.56 1326.03,-23.89 1330.84,-28.97"/>
</g>
<!-- Node27 -->
<g id="node27" class="node">
<title>Node27</title>
<g id="a_node27"><a xlink:href="EnumWrapper_8h_source.html" target="_top" xlink:title=" ">
<polygon fill="white" stroke="black" points="820.5,-56.5 820.5,-75.5 914.5,-75.5 914.5,-56.5 820.5,-56.5"/>
<text text-anchor="middle" x="867.5" y="-63.5" font-family="Helvetica,sans-Serif" font-size="10.00">EnumWrapper.h</text>
</a>
</g>
</g>
<!-- Node26&#45;&gt;Node27 -->
<g id="edge33" class="edge">
<title>Node26&#45;&gt;Node27</title>
<path fill="none" stroke="midnightblue" d="M1153.98,-114.41C1149.1,-113.6 1144.19,-112.78 1139.5,-112 1065.27,-99.67 979.63,-85.52 924.59,-76.42"/>
<polygon fill="midnightblue" stroke="midnightblue" points="925.11,-72.96 914.68,-74.79 923.97,-79.87 925.11,-72.96"/>
</g>
<!-- Node30 -->
<g id="node30" class="node">
<title>Node30</title>
<g id="a_node30"><a xlink:href="clamp_8hpp_source.html" target="_top" xlink:title=" ">
<polygon fill="white" stroke="black" points="1174.5,-56.5 1174.5,-75.5 1260.5,-75.5 1260.5,-56.5 1174.5,-56.5"/>
<text text-anchor="middle" x="1217.5" y="-63.5" font-family="Helvetica,sans-Serif" font-size="10.00">stx/clamp.hpp</text>
</a>
</g>
</g>
<!-- Node26&#45;&gt;Node30 -->
<g id="edge37" class="edge">
<title>Node26&#45;&gt;Node30</title>
<path fill="none" stroke="midnightblue" d="M1197.46,-112.08C1200.71,-104.77 1205.42,-94.18 1209.45,-85.1"/>
<polygon fill="midnightblue" stroke="midnightblue" points="1212.75,-86.31 1213.61,-75.75 1206.35,-83.47 1212.75,-86.31"/>
</g>
<!-- Node32 -->
<g id="node32" class="node">
<title>Node32</title>
<g id="a_node32"><a xlink:title=" ">
<polygon fill="white" stroke="#bfbfbf" points="933,-56.5 933,-75.5 1012,-75.5 1012,-56.5 933,-56.5"/>
<text text-anchor="middle" x="972.5" y="-63.5" font-family="Helvetica,sans-Serif" font-size="10.00">wx/version.h</text>
</a>
</g>
</g>
<!-- Node26&#45;&gt;Node32 -->
<g id="edge40" class="edge">
<title>Node26&#45;&gt;Node32</title>
<path fill="none" stroke="midnightblue" d="M1158.48,-112.44C1120.25,-103.1 1058.93,-88.12 1017.24,-77.93"/>
<polygon fill="midnightblue" stroke="midnightblue" points="1017.9,-74.49 1007.35,-75.52 1016.24,-81.29 1017.9,-74.49"/>
</g>
<!-- Node33 -->
<g id="node33" class="node">
<title>Node33</title>
<g id="a_node33"><a xlink:title=" ">
<polygon fill="white" stroke="#bfbfbf" points="1030.5,-56.5 1030.5,-75.5 1094.5,-75.5 1094.5,-56.5 1030.5,-56.5"/>
<text text-anchor="middle" x="1062.5" y="-63.5" font-family="Helvetica,sans-Serif" font-size="10.00">algorithm</text>
</a>
</g>
</g>
<!-- Node26&#45;&gt;Node33 -->
<g id="edge41" class="edge">
<title>Node26&#45;&gt;Node33</title>
<path fill="none" stroke="midnightblue" d="M1172.74,-112.44C1151.18,-103.56 1117.24,-89.56 1092.71,-79.45"/>
<polygon fill="midnightblue" stroke="midnightblue" points="1093.74,-76.09 1083.16,-75.52 1091.07,-82.56 1093.74,-76.09"/>
</g>
<!-- Node34 -->
<g id="node34" class="node">
<title>Node34</title>
<g id="a_node34"><a xlink:title=" ">
<polygon fill="white" stroke="#bfbfbf" points="1112.5,-56.5 1112.5,-75.5 1156.5,-75.5 1156.5,-56.5 1112.5,-56.5"/>
<text text-anchor="middle" x="1134.5" y="-63.5" font-family="Helvetica,sans-Serif" font-size="10.00">limits</text>
</a>
</g>
</g>
<!-- Node26&#45;&gt;Node34 -->
<g id="edge44" class="edge">
<title>Node26&#45;&gt;Node34</title>
<path fill="none" stroke="midnightblue" d="M1184.02,-112.32C1175.3,-104.34 1162.16,-92.31 1151.6,-82.65"/>
<polygon fill="midnightblue" stroke="midnightblue" points="1153.89,-80 1144.15,-75.83 1149.17,-85.17 1153.89,-80"/>
</g>
<!-- Node27&#45;&gt;Node25 -->
<g id="edge35" class="edge">
<title>Node27&#45;&gt;Node25</title>
<path fill="none" stroke="midnightblue" d="M914.75,-57.35C918.05,-56.88 921.32,-56.42 924.5,-56 996.78,-46.43 1210.15,-24.58 1301.84,-15.3"/>
<polygon fill="midnightblue" stroke="midnightblue" points="1302.29,-18.77 1311.88,-14.28 1301.58,-11.81 1302.29,-18.77"/>
</g>
<!-- Node28 -->
<g id="node28" class="node">
<title>Node28</title>
<g id="a_node28"><a xlink:title=" ">
<polygon fill="white" stroke="#bfbfbf" points="881,-0.5 881,-19.5 934,-19.5 934,-0.5 881,-0.5"/>
<text text-anchor="middle" x="907.5" y="-7.5" font-family="Helvetica,sans-Serif" font-size="10.00">cstddef</text>
</a>
</g>
</g>
<!-- Node27&#45;&gt;Node28 -->
<g id="edge34" class="edge">
<title>Node27&#45;&gt;Node28</title>
<path fill="none" stroke="midnightblue" d="M874.11,-56.08C879.76,-48.46 888.04,-37.26 894.95,-27.94"/>
<polygon fill="midnightblue" stroke="midnightblue" points="897.88,-29.87 901.02,-19.75 892.25,-25.7 897.88,-29.87"/>
</g>
<!-- Node29 -->
<g id="node29" class="node">
<title>Node29</title>
<g id="a_node29"><a xlink:title=" ">
<polygon fill="white" stroke="#bfbfbf" points="794,-0.5 794,-19.5 863,-19.5 863,-0.5 794,-0.5"/>
<text text-anchor="middle" x="828.5" y="-7.5" font-family="Helvetica,sans-Serif" font-size="10.00">type_traits</text>
</a>
</g>
</g>
<!-- Node27&#45;&gt;Node29 -->
<g id="edge36" class="edge">
<title>Node27&#45;&gt;Node29</title>
<path fill="none" stroke="midnightblue" d="M861.06,-56.08C855.55,-48.46 847.47,-37.26 840.74,-27.94"/>
<polygon fill="midnightblue" stroke="midnightblue" points="843.51,-25.81 834.82,-19.75 837.84,-29.91 843.51,-25.81"/>
</g>
<!-- Node31 -->
<g id="node31" class="node">
<title>Node31</title>
<g id="a_node31"><a xlink:title=" ">
<polygon fill="white" stroke="#bfbfbf" points="1191.5,-0.5 1191.5,-19.5 1243.5,-19.5 1243.5,-0.5 1191.5,-0.5"/>
<text text-anchor="middle" x="1217.5" y="-7.5" font-family="Helvetica,sans-Serif" font-size="10.00">cassert</text>
</a>
</g>
</g>
<!-- Node30&#45;&gt;Node31 -->
<g id="edge38" class="edge">
<title>Node30&#45;&gt;Node31</title>
<path fill="none" stroke="midnightblue" d="M1217.5,-56.08C1217.5,-49.01 1217.5,-38.86 1217.5,-29.99"/>
<polygon fill="midnightblue" stroke="midnightblue" points="1221,-29.75 1217.5,-19.75 1214,-29.75 1221,-29.75"/>
</g>
<!-- Node35&#45;&gt;Node4 -->
<g id="edge46" class="edge">
<title>Node35&#45;&gt;Node4</title>
<path fill="none" stroke="midnightblue" d="M1493.93,-117.23C1467.98,-115.53 1436.67,-113.55 1408.5,-112 1052.78,-92.37 623.14,-74.4 485.89,-68.79"/>
<polygon fill="midnightblue" stroke="midnightblue" points="485.9,-65.29 475.77,-68.38 485.62,-72.28 485.9,-65.29"/>
</g>
<!-- Node35&#45;&gt;Node22 -->
<g id="edge48" class="edge">
<title>Node35&#45;&gt;Node22</title>
<path fill="none" stroke="midnightblue" d="M1534.08,-112.32C1518.96,-103.82 1495.68,-90.73 1478.03,-80.8"/>
<polygon fill="midnightblue" stroke="midnightblue" points="1479.32,-77.51 1468.89,-75.65 1475.89,-83.61 1479.32,-77.51"/>
</g>
<!-- Node35&#45;&gt;Node25 -->
<g id="edge49" class="edge">
<title>Node35&#45;&gt;Node25</title>
<path fill="none" stroke="midnightblue" d="M1566.31,-112.43C1588.45,-100.05 1622.68,-76.39 1605.5,-56 1578.15,-23.54 1454.5,-14.49 1387.68,-11.97"/>
<polygon fill="midnightblue" stroke="midnightblue" points="1387.58,-8.47 1377.46,-11.62 1387.34,-15.46 1387.58,-8.47"/>
</g>
<!-- Node35&#45;&gt;Node36 -->
<g id="edge47" class="edge">
<title>Node35&#45;&gt;Node36</title>
<path fill="none" stroke="midnightblue" d="M1580.56,-112.44C1614.6,-103.07 1669.28,-88 1706.26,-77.81"/>
<polygon fill="midnightblue" stroke="midnightblue" points="1707.48,-81.11 1716.19,-75.08 1705.62,-74.36 1707.48,-81.11"/>
</g>
<!-- Node35&#45;&gt;Node37 -->
<g id="edge50" class="edge">
<title>Node35&#45;&gt;Node37</title>
<path fill="none" stroke="midnightblue" d="M1594.66,-112.44C1654.92,-101.02 1759.68,-81.18 1808.31,-71.96"/>
<polygon fill="midnightblue" stroke="midnightblue" points="1809.16,-75.36 1818.34,-70.06 1807.86,-68.49 1809.16,-75.36"/>
</g>
<!-- Node38 -->
<g id="node38" class="node">
<title>Node38</title>
<g id="a_node38"><a xlink:title=" ">
<polygon fill="white" stroke="#bfbfbf" points="1653,-56.5 1653,-75.5 1698,-75.5 1698,-56.5 1653,-56.5"/>
<text text-anchor="middle" x="1675.5" y="-63.5" font-family="Helvetica,sans-Serif" font-size="10.00">utility</text>
</a>
</g>
</g>
<!-- Node35&#45;&gt;Node38 -->
<g id="edge51" class="edge">
<title>Node35&#45;&gt;Node38</title>
<path fill="none" stroke="midnightblue" d="M1569.47,-112.44C1590.11,-103.6 1622.56,-89.69 1646.13,-79.59"/>
<polygon fill="midnightblue" stroke="midnightblue" points="1647.82,-82.67 1655.63,-75.52 1645.06,-76.24 1647.82,-82.67"/>
</g>
<!-- Node35&#45;&gt;Node39 -->
<g id="edge52" class="edge">
<title>Node35&#45;&gt;Node39</title>
<path fill="none" stroke="midnightblue" d="M1549.5,-112.08C1549.5,-105.01 1549.5,-94.86 1549.5,-85.99"/>
<polygon fill="midnightblue" stroke="midnightblue" points="1553,-85.75 1549.5,-75.75 1546,-85.75 1553,-85.75"/>
</g>
<!-- Node45&#45;&gt;Node4 -->
<g id="edge62" class="edge">
<title>Node45&#45;&gt;Node4</title>
<path fill="none" stroke="midnightblue" d="M582.47,-281.12C516.19,-265.41 376.72,-228.22 350.5,-188 340.29,-172.34 346.36,-131.8 360.5,-112 371.11,-97.15 388.22,-86.62 403.99,-79.5"/>
<polygon fill="midnightblue" stroke="midnightblue" points="405.69,-82.59 413.57,-75.5 402.99,-76.13 405.69,-82.59"/>
</g>
<!-- Node45&#45;&gt;Node9 -->
<g id="edge63" class="edge">
<title>Node45&#45;&gt;Node9</title>
<path fill="none" stroke="midnightblue" d="M599.45,-280.37C559.23,-261.13 462.04,-214.65 414.54,-191.93"/>
<polygon fill="midnightblue" stroke="midnightblue" points="416,-188.75 405.46,-187.59 412.98,-195.06 416,-188.75"/>
</g>
<!-- Node45&#45;&gt;Node12 -->
<g id="edge64" class="edge">
<title>Node45&#45;&gt;Node12</title>
<path fill="none" stroke="midnightblue" d="M652.54,-284.4C723.89,-275.02 886.56,-253.65 972.65,-242.34"/>
<polygon fill="midnightblue" stroke="midnightblue" points="973.3,-245.78 982.76,-241.01 972.39,-238.84 973.3,-245.78"/>
</g>
</g>
</svg>
        <g id="navigator" transform="translate(0 0)" fill="#404254">
                <rect fill="#f2f5e9" fill-opacity="0.5" stroke="#606060" stroke-width=".5" x="0" y="0" width="60" height="60"/>
                <use id="zoomplus" xlink:href="#zoomPlus" x="17" y="9" onmousedown="handleZoom(evt,'in')"/>
                <use id="zoomminus" xlink:href="#zoomMin" x="42" y="9" onmousedown="handleZoom(evt,'out')"/>
                <use id="reset" xlink:href="#resetDef" x="30" y="36" onmousedown="handleReset()"/>
                <g id="arrowUp" xlink:href="#dirArrow" transform="translate(30 24)" onmousedown="handlePan(0,-1)">
                  <use xlink:href="#rim" fill="#404040">
                        <set attributeName="fill" to="#808080" begin="arrowUp.mouseover" end="arrowUp.mouseout"/>
                  </use>
                  <path fill="none" stroke="white" stroke-width="1.5" d="M0,-3.0v7 M-2.5,-0.5L0,-3.0L2.5,-0.5"/>
                </g>
                <g id="arrowRight" xlink:href="#dirArrow" transform="rotate(90) translate(36 -43)" onmousedown="handlePan(1,0)">
                  <use xlink:href="#rim" fill="#404040">
                        <set attributeName="fill" to="#808080" begin="arrowRight.mouseover" end="arrowRight.mouseout"/>
                  </use>
                  <path fill="none" stroke="white" stroke-width="1.5" d="M0,-3.0v7 M-2.5,-0.5L0,-3.0L2.5,-0.5"/>
                </g>
                <g id="arrowDown" xlink:href="#dirArrow" transform="rotate(180) translate(-30 -48)" onmousedown="handlePan(0,1)">
                  <use xlink:href="#rim" fill="#404040">
                        <set attributeName="fill" to="#808080" begin="arrowDown.mouseover" end="arrowDown.mouseout"/>
                  </use>
                  <path fill="none" stroke="white" stroke-width="1.5" d="M0,-3.0v7 M-2.5,-0.5L0,-3.0L2.5,-0.5"/>
                </g>
                <g id="arrowLeft" xlink:href="#dirArrow" transform="rotate(270) translate(-36 17)" onmousedown="handlePan(-1,0)">
                  <use xlink:href="#rim" fill="#404040">
                        <set attributeName="fill" to="#808080" begin="arrowLeft.mouseover" end="arrowLeft.mouseout"/>
                  </use>
                  <path fill="none" stroke="white" stroke-width="1.5" d="M0,-3.0v7 M-2.5,-0.5L0,-3.0L2.5,-0.5"/>
                </g>
        </g>
        <svg viewBox="0 0 15 15" width="100%" height="30px" preserveAspectRatio="xMaxYMin meet">
         <g id="arrow_out" transform="scale(0.3 0.3)">
          <a xlink:href="ButtonWrapSizer_8cpp__incl_org.svg" target="_base">
           <rect id="button" ry="5" rx="5" y="6" x="6" height="38" width="38"
                fill="#f2f5e9" fill-opacity="0.5" stroke="#606060" stroke-width="1.0"/>
           <path id="arrow"
             d="M 11.500037,31.436501 C 11.940474,20.09759 22.043105,11.32322 32.158766,21.979434 L 37.068811,17.246167 C 37.068811,17.246167 37.088388,32 37.088388,32 L 22.160133,31.978069 C 22.160133,31.978069 26.997745,27.140456 26.997745,27.140456 C 18.528582,18.264221 13.291696,25.230495 11.500037,31.436501 z"
             style="fill:#404040;"/>
          </a>
         </g>
        </svg>
</svg>
