<?xml version="1.0" encoding="UTF-8" standalone="no"?>
<!DOCTYPE svg PUBLIC "-//W3C//DTD SVG 1.1//EN"
 "http://www.w3.org/Graphics/SVG/1.1/DTD/svg11.dtd">
<!-- Generated by graphviz version 2.43.0 (0)
 -->
<!-- Title: src/sidebars/ButtonWrapSizer.h Pages: 1 -->
<svg width="1319pt" height="324pt"
 viewBox="0.00 0.00 1319.00 324.00" xmlns="http://www.w3.org/2000/svg" xmlns:xlink="http://www.w3.org/1999/xlink">
<g id="graph0" class="graph" transform="scale(1 1) rotate(0) translate(4 320)">
<title>src/sidebars/ButtonWrapSizer.h</title>
<!-- Node1 -->
<g id="node1" class="node">
<title>Node1</title>
<g id="a_node1"><a xlink:title="This file contains the definition of the class Buttonwrapsizer that allows to select arbitrary unicod...">
<polygon fill="#999999" stroke="#666666" points="698.5,-316 530.5,-316 530.5,-297 698.5,-297 698.5,-316"/>
<text text-anchor="middle" x="614.5" y="-304" font-family="Helvetica,sans-Serif" font-size="10.00">src/sidebars/ButtonWrapSizer.h</text>
</a>
</g>
</g>
<!-- Node2 -->
<g id="node2" class="node">
<title>Node2</title>
<g id="a_node2"><a xlink:href="ButtonWrapSizer_8cpp.html" target="_top" xlink:title="This file defines the class CharacterButton.">
<polygon fill="white" stroke="#666666" points="179,-255.5 0,-255.5 0,-236.5 179,-236.5 179,-255.5"/>
<text text-anchor="middle" x="89.5" y="-243.5" font-family="Helvetica,sans-Serif" font-size="10.00">src/sidebars/ButtonWrapSizer.cpp</text>
</a>
</g>
</g>
<!-- Node1&#45;&gt;Node2 -->
<g id="edge1" class="edge">
<title>Node1&#45;&gt;Node2</title>
<path fill="none" stroke="#63b8ff" d="M520.29,-296.65C433.89,-288.3 302.45,-275 188.5,-261 175.15,-259.36 160.81,-257.43 147.3,-255.53"/>
<polygon fill="#63b8ff" stroke="#63b8ff" points="520.05,-300.14 530.33,-297.62 520.72,-293.18 520.05,-300.14"/>
</g>
<!-- Node3 -->
<g id="node3" class="node">
<title>Node3</title>
<g id="a_node3"><a xlink:href="DrawSidebar_8h.html" target="_top" xlink:title="This file declares the class StatSidebar, that provides some statistics buttons.">
<polygon fill="white" stroke="#666666" points="346,-255.5 197,-255.5 197,-236.5 346,-236.5 346,-255.5"/>
<text text-anchor="middle" x="271.5" y="-243.5" font-family="Helvetica,sans-Serif" font-size="10.00">src/sidebars/DrawSidebar.h</text>
</a>
</g>
</g>
<!-- Node1&#45;&gt;Node3 -->
<g id="edge2" class="edge">
<title>Node1&#45;&gt;Node3</title>
<path fill="none" stroke="#63b8ff" d="M554.77,-295.31C488.66,-284.04 383.32,-266.07 321.44,-255.52"/>
<polygon fill="#63b8ff" stroke="#63b8ff" points="554.18,-298.76 564.62,-296.99 555.36,-291.86 554.18,-298.76"/>
</g>
<!-- Node5 -->
<g id="node5" class="node">
<title>Node5</title>
<g id="a_node5"><a xlink:href="wxMaximaFrame_8h.html" target="_top" xlink:title="This file declares the class wxMaximaFrame.">
<polygon fill="white" stroke="#666666" points="373.5,-195 245.5,-195 245.5,-176 373.5,-176 373.5,-195"/>
<text text-anchor="middle" x="309.5" y="-183" font-family="Helvetica,sans-Serif" font-size="10.00">src/wxMaximaFrame.h</text>
</a>
</g>
</g>
<!-- Node1&#45;&gt;Node5 -->
<g id="edge33" class="edge">
<title>Node1&#45;&gt;Node5</title>
<path fill="none" stroke="#63b8ff" d="M520.4,-297.62C479.76,-291.46 432.66,-280.51 393.5,-261 376.31,-252.44 335.84,-212.94 318.09,-195.18"/>
<polygon fill="#63b8ff" stroke="#63b8ff" points="519.91,-301.08 530.31,-299.04 520.91,-294.15 519.91,-301.08"/>
</g>
<!-- Node13 -->
<g id="node13" class="node">
<title>Node13</title>
<g id="a_node13"><a xlink:href="GreekSidebar_8cpp.html" target="_top" xlink:title="This file defines the class GreekSidebar.">
<polygon fill="white" stroke="#666666" points="614.5,-134.5 450.5,-134.5 450.5,-115.5 614.5,-115.5 614.5,-134.5"/>
<text text-anchor="middle" x="532.5" y="-122.5" font-family="Helvetica,sans-Serif" font-size="10.00">src/sidebars/GreekSidebar.cpp</text>
</a>
</g>
</g>
<!-- Node1&#45;&gt;Node13 -->
<g id="edge21" class="edge">
<title>Node1&#45;&gt;Node13</title>
<path fill="none" stroke="#63b8ff" d="M611.65,-286.8C607.1,-260.71 596.59,-212.47 576.5,-176 567.46,-159.59 552.24,-143.93 542.28,-134.64"/>
<polygon fill="#63b8ff" stroke="#63b8ff" points="608.22,-287.52 613.29,-296.82 615.13,-286.39 608.22,-287.52"/>
</g>
<!-- Node16 -->
<g id="node16" class="node">
<title>Node16</title>
<g id="a_node16"><a xlink:href="FormatSidebar_8cpp.html" target="_top" xlink:title="This file defines the class FormatSidebar.">
<polygon fill="white" stroke="#666666" points="997,-255.5 828,-255.5 828,-236.5 997,-236.5 997,-255.5"/>
<text text-anchor="middle" x="912.5" y="-243.5" font-family="Helvetica,sans-Serif" font-size="10.00">src/sidebars/FormatSidebar.cpp</text>
</a>
</g>
</g>
<!-- Node1&#45;&gt;Node16 -->
<g id="edge20" class="edge">
<title>Node1&#45;&gt;Node16</title>
<path fill="none" stroke="#63b8ff" d="M667.82,-295.03C725.33,-283.74 815.79,-265.98 869.12,-255.52"/>
<polygon fill="#63b8ff" stroke="#63b8ff" points="666.97,-291.63 657.83,-296.99 668.32,-298.5 666.97,-291.63"/>
</g>
<!-- Node17 -->
<g id="node17" class="node">
<title>Node17</title>
<g id="a_node17"><a xlink:href="GreekSidebar_8h.html" target="_top" xlink:title="This file declares the class wxMaximaFrame.">
<polygon fill="white" stroke="#666666" points="775.5,-195 623.5,-195 623.5,-176 775.5,-176 775.5,-195"/>
<text text-anchor="middle" x="699.5" y="-183" font-family="Helvetica,sans-Serif" font-size="10.00">src/sidebars/GreekSidebar.h</text>
</a>
</g>
</g>
<!-- Node1&#45;&gt;Node17 -->
<g id="edge22" class="edge">
<title>Node1&#45;&gt;Node17</title>
<path fill="none" stroke="#63b8ff" d="M621.79,-287.08C628.49,-271.36 639.36,-248.57 652.5,-231 663,-216.96 678.16,-203.51 688.39,-195.14"/>
<polygon fill="#63b8ff" stroke="#63b8ff" points="618.41,-286.11 617.84,-296.69 624.88,-288.77 618.41,-286.11"/>
</g>
<!-- Node19 -->
<g id="node19" class="node">
<title>Node19</title>
<g id="a_node19"><a xlink:href="MathSidebar_8h.html" target="_top" xlink:title="This file declares the class wxMaximaFrame.">
<polygon fill="white" stroke="#666666" points="809.5,-255.5 661.5,-255.5 661.5,-236.5 809.5,-236.5 809.5,-255.5"/>
<text text-anchor="middle" x="735.5" y="-243.5" font-family="Helvetica,sans-Serif" font-size="10.00">src/sidebars/MathSidebar.h</text>
</a>
</g>
</g>
<!-- Node1&#45;&gt;Node19 -->
<g id="edge26" class="edge">
<title>Node1&#45;&gt;Node19</title>
<path fill="none" stroke="#63b8ff" d="M641.11,-292.63C664.45,-281.35 697.71,-265.27 717.88,-255.52"/>
<polygon fill="#63b8ff" stroke="#63b8ff" points="639.57,-289.49 632.09,-296.99 642.62,-295.79 639.57,-289.49"/>
</g>
<!-- Node21 -->
<g id="node21" class="node">
<title>Node21</title>
<g id="a_node21"><a xlink:href="StatSidebar_8cpp.html" target="_top" xlink:title="This file defines the class StatSidebar.">
<polygon fill="white" stroke="#666666" points="1169.5,-255.5 1015.5,-255.5 1015.5,-236.5 1169.5,-236.5 1169.5,-255.5"/>
<text text-anchor="middle" x="1092.5" y="-243.5" font-family="Helvetica,sans-Serif" font-size="10.00">src/sidebars/StatSidebar.cpp</text>
</a>
</g>
</g>
<!-- Node1&#45;&gt;Node21 -->
<g id="edge29" class="edge">
<title>Node1&#45;&gt;Node21</title>
<path fill="none" stroke="#63b8ff" d="M708.75,-296.09C788.26,-287.85 905,-275.01 1006.5,-261 1018.19,-259.39 1030.74,-257.46 1042.54,-255.55"/>
<polygon fill="#63b8ff" stroke="#63b8ff" points="708.35,-292.61 698.76,-297.12 709.07,-299.58 708.35,-292.61"/>
</g>
<!-- Node22 -->
<g id="node22" class="node">
<title>Node22</title>
<g id="a_node22"><a xlink:href="SymbolsSidebar_8h.html" target="_top" xlink:title="This file declares the class wxMaximaFrame.">
<polygon fill="white" stroke="#666666" points="567,-255.5 402,-255.5 402,-236.5 567,-236.5 567,-255.5"/>
<text text-anchor="middle" x="484.5" y="-243.5" font-family="Helvetica,sans-Serif" font-size="10.00">src/sidebars/SymbolsSidebar.h</text>
</a>
</g>
</g>
<!-- Node1&#45;&gt;Node22 -->
<g id="edge30" class="edge">
<title>Node1&#45;&gt;Node22</title>
<path fill="none" stroke="#63b8ff" d="M586.24,-292.78C561.15,-281.49 525.19,-265.31 503.43,-255.52"/>
<polygon fill="#63b8ff" stroke="#63b8ff" points="585.04,-296.08 595.6,-296.99 587.91,-289.7 585.04,-296.08"/>
</g>
<!-- Node24 -->
<g id="node24" class="node">
<title>Node24</title>
<g id="a_node24"><a xlink:href="test__ButtonWrapSizer_8cpp.html" target="_top" xlink:title="Regression tests for Buttonwrapsizer (the Greek/symbol sidebars&#39; wrap sizer).">
<polygon fill="white" stroke="#666666" points="1311,-261 1188,-261 1188,-231 1311,-231 1311,-261"/>
<text text-anchor="start" x="1196" y="-249" font-family="Helvetica,sans-Serif" font-size="10.00">test/unit_tests/test</text>
<text text-anchor="middle" x="1249.5" y="-238" font-family="Helvetica,sans-Serif" font-size="10.00">_ButtonWrapSizer.cpp</text>
</a>
</g>
</g>
<!-- Node1&#45;&gt;Node24 -->
<g id="edge34" class="edge">
<title>Node1&#45;&gt;Node24</title>
<path fill="none" stroke="#63b8ff" d="M709.2,-301.39C821.55,-295.73 1014.32,-283.59 1178.5,-261 1181.61,-260.57 1184.79,-260.09 1188,-259.58"/>
<polygon fill="#63b8ff" stroke="#63b8ff" points="708.73,-297.91 698.92,-301.9 709.08,-304.9 708.73,-297.91"/>
</g>
<!-- Node4 -->
<g id="node4" class="node">
<title>Node4</title>
<g id="a_node4"><a xlink:href="DrawSidebar_8cpp.html" target="_top" xlink:title="This file defines the class StatSidebar.">
<polygon fill="white" stroke="#666666" points="227.5,-195 67.5,-195 67.5,-176 227.5,-176 227.5,-195"/>
<text text-anchor="middle" x="147.5" y="-183" font-family="Helvetica,sans-Serif" font-size="10.00">src/sidebars/DrawSidebar.cpp</text>
</a>
</g>
</g>
<!-- Node3&#45;&gt;Node4 -->
<g id="edge3" class="edge">
<title>Node3&#45;&gt;Node4</title>
<path fill="none" stroke="#63b8ff" d="M244.23,-232.13C220.31,-220.85 186.22,-204.77 165.55,-195.02"/>
<polygon fill="#63b8ff" stroke="#63b8ff" points="242.93,-235.39 253.47,-236.49 245.92,-229.06 242.93,-235.39"/>
</g>
<!-- Node3&#45;&gt;Node5 -->
<g id="edge4" class="edge">
<title>Node3&#45;&gt;Node5</title>
<path fill="none" stroke="#63b8ff" d="M282.67,-227.8C289.64,-217.08 298.3,-203.73 303.87,-195.17"/>
<polygon fill="#63b8ff" stroke="#63b8ff" points="279.62,-226.08 277.11,-236.37 285.49,-229.89 279.62,-226.08"/>
</g>
<!-- Node6 -->
<g id="node6" class="node">
<title>Node6</title>
<g id="a_node6"><a xlink:href="AutocompletePopup_8cpp.html" target="_top" xlink:title="This file defines the class AutocompletePopup.">
<polygon fill="white" stroke="#666666" points="240.5,-134.5 88.5,-134.5 88.5,-115.5 240.5,-115.5 240.5,-134.5"/>
<text text-anchor="middle" x="164.5" y="-122.5" font-family="Helvetica,sans-Serif" font-size="10.00">src/AutocompletePopup.cpp</text>
</a>
</g>
</g>
<!-- Node5&#45;&gt;Node6 -->
<g id="edge5" class="edge">
<title>Node5&#45;&gt;Node6</title>
<path fill="none" stroke="#63b8ff" d="M279.09,-172.23C251.07,-160.92 210.21,-144.44 185.61,-134.52"/>
<polygon fill="#63b8ff" stroke="#63b8ff" points="277.83,-175.5 288.42,-175.99 280.45,-169.01 277.83,-175.5"/>
</g>
<!-- Node7 -->
<g id="node7" class="node">
<title>Node7</title>
<g id="a_node7"><a xlink:href="Worksheet_8cpp.html" target="_top" xlink:title="This file defines the class Worksheet.">
<polygon fill="white" stroke="#666666" points="169.5,-74 63.5,-74 63.5,-55 169.5,-55 169.5,-74"/>
<text text-anchor="middle" x="116.5" y="-62" font-family="Helvetica,sans-Serif" font-size="10.00">src/Worksheet.cpp</text>
</a>
</g>
</g>
<!-- Node5&#45;&gt;Node7 -->
<g id="edge6" class="edge">
<title>Node5&#45;&gt;Node7</title>
<path fill="none" stroke="#63b8ff" d="M235.27,-174.9C171.94,-165.94 89.54,-152.17 79.5,-140 62.22,-119.06 90.28,-88.7 106.4,-74.04"/>
<polygon fill="#63b8ff" stroke="#63b8ff" points="234.87,-178.37 245.26,-176.29 235.84,-171.44 234.87,-178.37"/>
</g>
<!-- Node8 -->
<g id="node8" class="node">
<title>Node8</title>
<g id="a_node8"><a xlink:href="EditorCell_8cpp.html" target="_top" xlink:title="This file defines the class EditorCell.">
<polygon fill="white" stroke="#666666" points="409,-74 282,-74 282,-55 409,-55 409,-74"/>
<text text-anchor="middle" x="345.5" y="-62" font-family="Helvetica,sans-Serif" font-size="10.00">src/cells/EditorCell.cpp</text>
</a>
</g>
</g>
<!-- Node5&#45;&gt;Node8 -->
<g id="edge7" class="edge">
<title>Node5&#45;&gt;Node8</title>
<path fill="none" stroke="#63b8ff" d="M335.58,-170.51C346.66,-163.06 358.41,-152.77 364.5,-140 375.19,-117.59 360.32,-88.42 351.38,-74.14"/>
<polygon fill="#63b8ff" stroke="#63b8ff" points="333.6,-167.62 326.96,-175.88 337.3,-173.57 333.6,-167.62"/>
</g>
<!-- Node9 -->
<g id="node9" class="node">
<title>Node9</title>
<g id="a_node9"><a xlink:href="main_8h.html" target="_top" xlink:title="This file declares the class wxMaxima that contains most of the program&#39;s logic.">
<polygon fill="white" stroke="#666666" points="495.5,-74 427.5,-74 427.5,-55 495.5,-55 495.5,-74"/>
<text text-anchor="middle" x="461.5" y="-62" font-family="Helvetica,sans-Serif" font-size="10.00">src/main.h</text>
</a>
</g>
</g>
<!-- Node5&#45;&gt;Node9 -->
<g id="edge8" class="edge">
<title>Node5&#45;&gt;Node9</title>
<path fill="none" stroke="#63b8ff" d="M333.39,-170.71C347.24,-162.37 364.8,-151.22 379.5,-140 407.94,-118.3 438.34,-88.8 452.84,-74.3"/>
<polygon fill="#63b8ff" stroke="#63b8ff" points="331.29,-167.89 324.47,-176 334.86,-173.91 331.29,-167.89"/>
</g>
<!-- Node5&#45;&gt;Node13 -->
<g id="edge12" class="edge">
<title>Node5&#45;&gt;Node13</title>
<path fill="none" stroke="#63b8ff" d="M351.83,-173.4C394.95,-162.08 460.88,-144.79 500.03,-134.52"/>
<polygon fill="#63b8ff" stroke="#63b8ff" points="350.71,-170.07 341.93,-175.99 352.49,-176.84 350.71,-170.07"/>
</g>
<!-- Node14 -->
<g id="node14" class="node">
<title>Node14</title>
<g id="a_node14"><a xlink:href="wxMaxima_8h.html" target="_top" xlink:title="This file declares the class wxMaxima that contains most of the program&#39;s logic.">
<polygon fill="white" stroke="#666666" points="356,-134.5 259,-134.5 259,-115.5 356,-115.5 356,-134.5"/>
<text text-anchor="middle" x="307.5" y="-122.5" font-family="Helvetica,sans-Serif" font-size="10.00">src/wxMaxima.h</text>
</a>
</g>
</g>
<!-- Node5&#45;&gt;Node14 -->
<g id="edge13" class="edge">
<title>Node5&#45;&gt;Node14</title>
<path fill="none" stroke="#63b8ff" d="M308.86,-165.66C308.5,-155.24 308.07,-142.8 307.8,-134.67"/>
<polygon fill="#63b8ff" stroke="#63b8ff" points="305.37,-165.99 309.2,-175.87 312.36,-165.75 305.37,-165.99"/>
</g>
<!-- Node15 -->
<g id="node15" class="node">
<title>Node15</title>
<g id="a_node15"><a xlink:href="wxMaximaFrame_8cpp.html" target="_top" xlink:title="This file defines the class wxMaximaFrame.">
<polygon fill="white" stroke="#666666" points="772,-134.5 633,-134.5 633,-115.5 772,-115.5 772,-134.5"/>
<text text-anchor="middle" x="702.5" y="-122.5" font-family="Helvetica,sans-Serif" font-size="10.00">src/wxMaximaFrame.cpp</text>
</a>
</g>
</g>
<!-- Node5&#45;&gt;Node15 -->
<g id="edge19" class="edge">
<title>Node5&#45;&gt;Node15</title>
<path fill="none" stroke="#63b8ff" d="M383.6,-174.74C447.3,-166.16 541.57,-153.06 623.5,-140 633.95,-138.33 645.16,-136.42 655.76,-134.56"/>
<polygon fill="#63b8ff" stroke="#63b8ff" points="383.09,-171.27 373.64,-176.07 384.02,-178.21 383.09,-171.27"/>
</g>
<!-- Node10 -->
<g id="node10" class="node">
<title>Node10</title>
<g id="a_node10"><a xlink:href="MaximaManual_8cpp.html" target="_top" xlink:title="This file defines the class MaximaManual.">
<polygon fill="white" stroke="#666666" points="529.5,-19 399.5,-19 399.5,0 529.5,0 529.5,-19"/>
<text text-anchor="middle" x="464.5" y="-7" font-family="Helvetica,sans-Serif" font-size="10.00">src/MaximaManual.cpp</text>
</a>
</g>
</g>
<!-- Node9&#45;&gt;Node10 -->
<g id="edge9" class="edge">
<title>Node9&#45;&gt;Node10</title>
<path fill="none" stroke="#63b8ff" d="M462.57,-44.66C463.06,-35.93 463.62,-25.99 464.01,-19.09"/>
<polygon fill="#63b8ff" stroke="#63b8ff" points="459.07,-44.57 462,-54.75 466.06,-44.96 459.07,-44.57"/>
</g>
<!-- Node11 -->
<g id="node11" class="node">
<title>Node11</title>
<g id="a_node11"><a xlink:href="main_8cpp.html" target="_top" xlink:title="The file that defines the starting point of the program.">
<polygon fill="white" stroke="#666666" points="255,-19 176,-19 176,0 255,0 255,-19"/>
<text text-anchor="middle" x="215.5" y="-7" font-family="Helvetica,sans-Serif" font-size="10.00">src/main.cpp</text>
</a>
</g>
</g>
<!-- Node9&#45;&gt;Node11 -->
<g id="edge10" class="edge">
<title>Node9&#45;&gt;Node11</title>
<path fill="none" stroke="#63b8ff" d="M417.29,-53.97C371.14,-44.03 299.46,-28.59 255.11,-19.03"/>
<polygon fill="#63b8ff" stroke="#63b8ff" points="416.78,-57.45 427.29,-56.13 418.26,-50.6 416.78,-57.45"/>
</g>
<!-- Node12 -->
<g id="node12" class="node">
<title>Node12</title>
<g id="a_node12"><a xlink:href="wxMaxima_8cpp.html" target="_top" xlink:title="This file defines the contents of the class wxMaxima that contains most of the program&#39;s logic.">
<polygon fill="white" stroke="#666666" points="381.5,-19 273.5,-19 273.5,0 381.5,0 381.5,-19"/>
<text text-anchor="middle" x="327.5" y="-7" font-family="Helvetica,sans-Serif" font-size="10.00">src/wxMaxima.cpp</text>
</a>
</g>
</g>
<!-- Node9&#45;&gt;Node12 -->
<g id="edge11" class="edge">
<title>Node9&#45;&gt;Node12</title>
<path fill="none" stroke="#63b8ff" d="M430.63,-51.29C405.8,-41.47 371.51,-27.91 349.42,-19.17"/>
<polygon fill="#63b8ff" stroke="#63b8ff" points="429.38,-54.56 439.97,-54.98 431.96,-48.05 429.38,-54.56"/>
</g>
<!-- Node14&#45;&gt;Node7 -->
<g id="edge14" class="edge">
<title>Node14&#45;&gt;Node7</title>
<path fill="none" stroke="#63b8ff" d="M269.83,-112.46C232.89,-101.15 177.42,-84.16 144.31,-74.02"/>
<polygon fill="#63b8ff" stroke="#63b8ff" points="269.14,-115.91 279.73,-115.49 271.19,-109.22 269.14,-115.91"/>
</g>
<!-- Node14&#45;&gt;Node8 -->
<g id="edge15" class="edge">
<title>Node14&#45;&gt;Node8</title>
<path fill="none" stroke="#63b8ff" d="M318.67,-106.8C325.64,-96.08 334.3,-82.73 339.87,-74.17"/>
<polygon fill="#63b8ff" stroke="#63b8ff" points="315.62,-105.08 313.11,-115.37 321.49,-108.89 315.62,-105.08"/>
</g>
<!-- Node14&#45;&gt;Node9 -->
<g id="edge17" class="edge">
<title>Node14&#45;&gt;Node9</title>
<path fill="none" stroke="#63b8ff" d="M339.41,-111.88C369.18,-100.57 412.84,-83.99 439.08,-74.02"/>
<polygon fill="#63b8ff" stroke="#63b8ff" points="338,-108.67 329.89,-115.49 340.48,-115.21 338,-108.67"/>
</g>
<!-- Node14&#45;&gt;Node11 -->
<g id="edge16" class="edge">
<title>Node14&#45;&gt;Node11</title>
<path fill="none" stroke="#63b8ff" d="M293.62,-107.16C285.66,-97.48 275.49,-85.08 266.5,-74 250.64,-54.46 232.18,-31.39 222.4,-19.15"/>
<polygon fill="#63b8ff" stroke="#63b8ff" points="291.16,-109.67 300.21,-115.17 296.56,-105.23 291.16,-109.67"/>
</g>
<!-- Node14&#45;&gt;Node12 -->
<g id="edge18" class="edge">
<title>Node14&#45;&gt;Node12</title>
<path fill="none" stroke="#63b8ff" d="M290.12,-107.79C277.41,-93.88 263.8,-73.24 272.5,-55 280.22,-38.82 297.03,-26.62 310.04,-19.12"/>
<polygon fill="#63b8ff" stroke="#63b8ff" points="287.82,-110.45 297.32,-115.14 292.82,-105.54 287.82,-110.45"/>
</g>
<!-- Node17&#45;&gt;Node13 -->
<g id="edge23" class="edge">
<title>Node17&#45;&gt;Node13</title>
<path fill="none" stroke="#63b8ff" d="M665.73,-172.67C633.44,-161.36 585.52,-144.57 556.81,-134.52"/>
<polygon fill="#63b8ff" stroke="#63b8ff" points="664.62,-175.99 675.22,-175.99 666.94,-169.38 664.62,-175.99"/>
</g>
<!-- Node17&#45;&gt;Node15 -->
<g id="edge24" class="edge">
<title>Node17&#45;&gt;Node15</title>
<path fill="none" stroke="#63b8ff" d="M700.47,-165.66C701,-155.24 701.64,-142.8 702.06,-134.67"/>
<polygon fill="#63b8ff" stroke="#63b8ff" points="696.96,-165.7 699.94,-175.87 703.95,-166.06 696.96,-165.7"/>
</g>
<!-- Node18 -->
<g id="node18" class="node">
<title>Node18</title>
<g id="a_node18"><a xlink:href="test__GreekSidebar_8cpp.html" target="_top" xlink:title="Regression test for the Greek sidebar&#39;s line wrapping.">
<polygon fill="white" stroke="#666666" points="898.5,-140 790.5,-140 790.5,-110 898.5,-110 898.5,-140"/>
<text text-anchor="start" x="798.5" y="-128" font-family="Helvetica,sans-Serif" font-size="10.00">test/unit_tests/test</text>
<text text-anchor="middle" x="844.5" y="-117" font-family="Helvetica,sans-Serif" font-size="10.00">_GreekSidebar.cpp</text>
</a>
</g>
</g>
<!-- Node17&#45;&gt;Node18 -->
<g id="edge25" class="edge">
<title>Node17&#45;&gt;Node18</title>
<path fill="none" stroke="#63b8ff" d="M729.97,-172.21C753.24,-162.82 785.34,-149.87 809.64,-140.06"/>
<polygon fill="#63b8ff" stroke="#63b8ff" points="728.55,-169.01 720.58,-175.99 731.17,-175.5 728.55,-169.01"/>
</g>
<!-- Node19&#45;&gt;Node15 -->
<g id="edge28" class="edge">
<title>Node19&#45;&gt;Node15</title>
<path fill="none" stroke="#63b8ff" d="M791.24,-234.53C856.69,-221.96 957.07,-201.76 962.5,-195 967.79,-188.42 967.88,-182.51 962.5,-176 960.79,-173.93 823.21,-148.27 748.91,-134.54"/>
<polygon fill="#63b8ff" stroke="#63b8ff" points="790.23,-231.16 781.06,-236.47 791.54,-238.03 790.23,-231.16"/>
</g>
<!-- Node20 -->
<g id="node20" class="node">
<title>Node20</title>
<g id="a_node20"><a xlink:href="MathSidebar_8cpp.html" target="_top" xlink:title="This file defines the class SymbolsSidebar.">
<polygon fill="white" stroke="#666666" points="953,-195 794,-195 794,-176 953,-176 953,-195"/>
<text text-anchor="middle" x="873.5" y="-183" font-family="Helvetica,sans-Serif" font-size="10.00">src/sidebars/MathSidebar.cpp</text>
</a>
</g>
</g>
<!-- Node19&#45;&gt;Node20 -->
<g id="edge27" class="edge">
<title>Node19&#45;&gt;Node20</title>
<path fill="none" stroke="#63b8ff" d="M764.79,-232.58C791.45,-221.28 830.1,-204.9 853.41,-195.02"/>
<polygon fill="#63b8ff" stroke="#63b8ff" points="763.41,-229.37 755.57,-236.49 766.14,-235.81 763.41,-229.37"/>
</g>
<!-- Node22&#45;&gt;Node5 -->
<g id="edge32" class="edge">
<title>Node22&#45;&gt;Node5</title>
<path fill="none" stroke="#63b8ff" d="M449.55,-233.32C415.7,-222 365.19,-205.12 334.98,-195.02"/>
<polygon fill="#63b8ff" stroke="#63b8ff" points="448.46,-236.64 459.05,-236.49 450.68,-230 448.46,-236.64"/>
</g>
<!-- Node23 -->
<g id="node23" class="node">
<title>Node23</title>
<g id="a_node23"><a xlink:href="SymbolsSidebar_8cpp.html" target="_top" xlink:title="This file defines the class SymbolsSidebar.">
<polygon fill="white" stroke="#666666" points="567.5,-195 391.5,-195 391.5,-176 567.5,-176 567.5,-195"/>
<text text-anchor="middle" x="479.5" y="-183" font-family="Helvetica,sans-Serif" font-size="10.00">src/sidebars/SymbolsSidebar.cpp</text>
</a>
</g>
</g>
<!-- Node22&#45;&gt;Node23 -->
<g id="edge31" class="edge">
<title>Node22&#45;&gt;Node23</title>
<path fill="none" stroke="#63b8ff" d="M482.89,-226.16C482,-215.74 480.94,-203.3 480.24,-195.17"/>
<polygon fill="#63b8ff" stroke="#63b8ff" points="479.42,-226.7 483.76,-236.37 486.4,-226.11 479.42,-226.7"/>
</g>
</g>
</svg>
