<?xml version="1.0" encoding="UTF-8" standalone="no"?>
<!DOCTYPE svg PUBLIC "-//W3C//DTD SVG 1.1//EN"
 "http://www.w3.org/Graphics/SVG/1.1/DTD/svg11.dtd">
<!-- Generated by graphviz version 2.43.0 (0)
 -->
<!-- Title: src/cells/CellImpl.h Pages: 1 -->
<!--zoomable 93 -->
<svg id="main" version="1.1" xmlns="http://www.w3.org/2000/svg" xmlns:xlink="http://www.w3.org/1999/xlink" xml:space="preserve" onload="init(evt)">
<style type="text/css"><![CDATA[
.edge:hover path { stroke: red; }
.edge:hover polygon { stroke: red; fill: red; }
]]></style>
<script type="text/javascript"><![CDATA[
var edges = document.getElementsByTagName('g');
if (edges && edges.length) {
  for (var i=0;i<edges.length;i++) {
    if (edges[i].id.substr(0,4)=='edge') {
      edges[i].setAttribute('class','edge');
    }
  }
}
]]></script>
        <defs>
                <circle id="rim" cx="0" cy="0" r="7"/>
                <circle id="rim2" cx="0" cy="0" r="3.5"/>
                <g id="zoomPlus">
                        <use xlink:href="#rim" fill="#404040">
                                <set attributeName="fill" to="#808080" begin="zoomplus.mouseover" end="zoomplus.mouseout"/>
                        </use>
                        <path d="M-4,0h8M0,-4v8" fill="none" stroke="white" stroke-width="1.5" pointer-events="none"/>
                </g>
                <g id="zoomMin">
                        <use xlink:href="#rim" fill="#404040">
                                <set attributeName="fill" to="#808080" begin="zoomminus.mouseover" end="zoomminus.mouseout"/>
                        </use>
                        <path d="M-4,0h8" fill="none" stroke="white" stroke-width="1.5" pointer-events="none"/>
                </g>
                <g id="dirArrow">
                        <path fill="none" stroke="white" stroke-width="1.5" d="M0,-3.0v7 M-2.5,-0.5L0,-3.0L2.5,-0.5"/>
                </g>
               <g id="resetDef">
                       <use xlink:href="#rim2" fill="#404040">
                               <set attributeName="fill" to="#808080" begin="reset.mouseover" end="reset.mouseout"/>
                       </use>
               </g>
        </defs>

<script type="text/javascript">
var viewWidth = 4452;
var viewHeight = 93;
var sectionId = 'dynsection-1';
</script>
<script xlink:href="svgpan.js"/>
<svg id="graph" class="graph">
<g id="viewport">
<title>src/cells/CellImpl.h</title>
<!-- Node1 -->
<g id="node1" class="node">
<title>Node1</title>
<g id="a_node1"><a xlink:title="Macros and types used only by cell implementations, not by cell users.">
<polygon fill="#999999" stroke="#666666" points="2252.5,-85 2143.5,-85 2143.5,-66 2252.5,-66 2252.5,-85"/>
<text text-anchor="middle" x="2198" y="-73" font-family="Helvetica,sans-Serif" font-size="10.00">src/cells/CellImpl.h</text>
</a>
</g>
</g>
<!-- Node2 -->
<g id="node2" class="node">
<title>Node2</title>
<g id="a_node2"><a xlink:href="AbsCell_8cpp.html" target="_top" xlink:title="This file defines the class AbsCell.">
<polygon fill="white" stroke="#666666" points="116,-24.5 0,-24.5 0,-5.5 116,-5.5 116,-24.5"/>
<text text-anchor="middle" x="58" y="-12.5" font-family="Helvetica,sans-Serif" font-size="10.00">src/cells/AbsCell.cpp</text>
</a>
</g>
</g>
<!-- Node1&#45;&gt;Node2 -->
<g id="edge1" class="edge">
<title>Node1&#45;&gt;Node2</title>
<path fill="none" stroke="#63b8ff" d="M2133.16,-74.72C1827.43,-75.5 527.92,-76.02 125,-30 114.49,-28.8 103.19,-26.74 92.92,-24.57"/>
<polygon fill="#63b8ff" stroke="#63b8ff" points="2133.2,-78.22 2143.19,-74.69 2133.18,-71.22 2133.2,-78.22"/>
</g>
<!-- Node3 -->
<g id="node3" class="node">
<title>Node3</title>
<g id="a_node3"><a xlink:href="AnimationCell_8cpp.html" target="_top" xlink:title="This file defines the class AnimationCell.">
<polygon fill="white" stroke="#666666" points="283.5,-24.5 134.5,-24.5 134.5,-5.5 283.5,-5.5 283.5,-24.5"/>
<text text-anchor="middle" x="209" y="-12.5" font-family="Helvetica,sans-Serif" font-size="10.00">src/cells/AnimationCell.cpp</text>
</a>
</g>
</g>
<!-- Node1&#45;&gt;Node3 -->
<g id="edge2" class="edge">
<title>Node1&#45;&gt;Node3</title>
<path fill="none" stroke="#63b8ff" d="M2132.85,-74.24C1842.05,-72.87 660.8,-65.22 292,-30 279.05,-28.76 265.08,-26.69 252.35,-24.52"/>
<polygon fill="#63b8ff" stroke="#63b8ff" points="2133.2,-77.74 2143.22,-74.29 2133.24,-70.74 2133.2,-77.74"/>
</g>
<!-- Node4 -->
<g id="node4" class="node">
<title>Node4</title>
<g id="a_node4"><a xlink:href="AtCell_8cpp.html" target="_top" xlink:title="This file defines the class AtCell.">
<polygon fill="white" stroke="#666666" points="410.5,-24.5 301.5,-24.5 301.5,-5.5 410.5,-5.5 410.5,-24.5"/>
<text text-anchor="middle" x="356" y="-12.5" font-family="Helvetica,sans-Serif" font-size="10.00">src/cells/AtCell.cpp</text>
</a>
</g>
</g>
<!-- Node1&#45;&gt;Node4 -->
<g id="edge3" class="edge">
<title>Node1&#45;&gt;Node4</title>
<path fill="none" stroke="#63b8ff" d="M2133.09,-74.56C1854.71,-74.55 760.56,-71.82 419,-30 409.1,-28.79 398.47,-26.73 388.81,-24.55"/>
<polygon fill="#63b8ff" stroke="#63b8ff" points="2133.42,-78.06 2143.42,-74.56 2133.42,-71.06 2133.42,-78.06"/>
</g>
<!-- Node5 -->
<g id="node5" class="node">
<title>Node5</title>
<g id="a_node5"><a xlink:href="BoxCell_8cpp.html" target="_top" xlink:title="This file defines the class BoxCell.">
<polygon fill="white" stroke="#666666" points="545.5,-24.5 428.5,-24.5 428.5,-5.5 545.5,-5.5 545.5,-24.5"/>
<text text-anchor="middle" x="487" y="-12.5" font-family="Helvetica,sans-Serif" font-size="10.00">src/cells/BoxCell.cpp</text>
</a>
</g>
</g>
<!-- Node1&#45;&gt;Node5 -->
<g id="edge4" class="edge">
<title>Node1&#45;&gt;Node5</title>
<path fill="none" stroke="#63b8ff" d="M2132.89,-74.27C1867.75,-73.08 868.64,-66.25 555,-30 544.34,-28.77 532.88,-26.7 522.45,-24.53"/>
<polygon fill="#63b8ff" stroke="#63b8ff" points="2133.1,-77.77 2143.12,-74.31 2133.13,-70.77 2133.1,-77.77"/>
</g>
<!-- Node6 -->
<g id="node6" class="node">
<title>Node6</title>
<g id="a_node6"><a xlink:href="ConjugateCell_8cpp.html" target="_top" xlink:title="This file defines the class ConjugateCell.">
<polygon fill="white" stroke="#666666" points="712,-24.5 564,-24.5 564,-5.5 712,-5.5 712,-24.5"/>
<text text-anchor="middle" x="638" y="-12.5" font-family="Helvetica,sans-Serif" font-size="10.00">src/cells/ConjugateCell.cpp</text>
</a>
</g>
</g>
<!-- Node1&#45;&gt;Node6 -->
<g id="edge5" class="edge">
<title>Node1&#45;&gt;Node6</title>
<path fill="none" stroke="#63b8ff" d="M2133.06,-73.73C1885.53,-70.6 1000.99,-57.7 721,-30 708.2,-28.73 694.4,-26.68 681.79,-24.54"/>
<polygon fill="#63b8ff" stroke="#63b8ff" points="2133.29,-77.23 2143.33,-73.86 2133.38,-70.23 2133.29,-77.23"/>
</g>
<!-- Node7 -->
<g id="node7" class="node">
<title>Node7</title>
<g id="a_node7"><a xlink:href="DiffCell_8cpp.html" target="_top" xlink:title="This file defines the class DiffCell.">
<polygon fill="white" stroke="#666666" points="846,-24.5 730,-24.5 730,-5.5 846,-5.5 846,-24.5"/>
<text text-anchor="middle" x="788" y="-12.5" font-family="Helvetica,sans-Serif" font-size="10.00">src/cells/DiffCell.cpp</text>
</a>
</g>
</g>
<!-- Node1&#45;&gt;Node7 -->
<g id="edge6" class="edge">
<title>Node1&#45;&gt;Node7</title>
<path fill="none" stroke="#63b8ff" d="M2133.15,-73.84C1900.31,-71.22 1106.91,-60.26 855,-30 844.62,-28.75 833.46,-26.71 823.28,-24.56"/>
<polygon fill="#63b8ff" stroke="#63b8ff" points="2133.13,-77.34 2143.16,-73.95 2133.2,-70.34 2133.13,-77.34"/>
</g>
<!-- Node8 -->
<g id="node8" class="node">
<title>Node8</title>
<g id="a_node8"><a xlink:href="DigitCell_8cpp.html" target="_top" xlink:title="This file defines the class DigitCell.">
<polygon fill="white" stroke="#666666" points="986,-24.5 864,-24.5 864,-5.5 986,-5.5 986,-24.5"/>
<text text-anchor="middle" x="925" y="-12.5" font-family="Helvetica,sans-Serif" font-size="10.00">src/cells/DigitCell.cpp</text>
</a>
</g>
</g>
<!-- Node1&#45;&gt;Node8 -->
<g id="edge7" class="edge">
<title>Node1&#45;&gt;Node8</title>
<path fill="none" stroke="#63b8ff" d="M2133.16,-73.47C1916.45,-69.83 1218.36,-56.3 995,-30 984.17,-28.72 972.51,-26.67 961.88,-24.53"/>
<polygon fill="#63b8ff" stroke="#63b8ff" points="2133.36,-76.98 2143.42,-73.65 2133.48,-69.98 2133.36,-76.98"/>
</g>
<!-- Node9 -->
<g id="node9" class="node">
<title>Node9</title>
<g id="a_node9"><a xlink:href="EditorCell_8cpp.html" target="_top" xlink:title="This file defines the class EditorCell.">
<polygon fill="white" stroke="#666666" points="1131.5,-24.5 1004.5,-24.5 1004.5,-5.5 1131.5,-5.5 1131.5,-24.5"/>
<text text-anchor="middle" x="1068" y="-12.5" font-family="Helvetica,sans-Serif" font-size="10.00">src/cells/EditorCell.cpp</text>
</a>
</g>
</g>
<!-- Node1&#45;&gt;Node9 -->
<g id="edge8" class="edge">
<title>Node1&#45;&gt;Node9</title>
<path fill="none" stroke="#63b8ff" d="M2133.29,-75.08C1967.64,-75.86 1514.93,-73.49 1141,-30 1129.85,-28.7 1117.85,-26.67 1106.86,-24.55"/>
<polygon fill="#63b8ff" stroke="#63b8ff" points="2133.34,-78.58 2143.32,-75.03 2133.3,-71.58 2133.34,-78.58"/>
</g>
<!-- Node10 -->
<g id="node10" class="node">
<title>Node10</title>
<g id="a_node10"><a xlink:href="ExptCell_8cpp.html" target="_top" xlink:title="This file defines the class ExptCell.">
<polygon fill="white" stroke="#666666" points="1270,-24.5 1150,-24.5 1150,-5.5 1270,-5.5 1270,-24.5"/>
<text text-anchor="middle" x="1210" y="-12.5" font-family="Helvetica,sans-Serif" font-size="10.00">src/cells/ExptCell.cpp</text>
</a>
</g>
</g>
<!-- Node1&#45;&gt;Node10 -->
<g id="edge9" class="edge">
<title>Node1&#45;&gt;Node10</title>
<path fill="none" stroke="#63b8ff" d="M2132.92,-74.73C1982.15,-74.53 1597.48,-69.79 1279,-30 1268.45,-28.68 1257.1,-26.64 1246.71,-24.52"/>
<polygon fill="#63b8ff" stroke="#63b8ff" points="2133.37,-78.23 2143.37,-74.74 2133.37,-71.23 2133.37,-78.23"/>
</g>
<!-- Node11 -->
<g id="node11" class="node">
<title>Node11</title>
<g id="a_node11"><a xlink:href="FracCell_8cpp.html" target="_top" xlink:title="This file defines the class FracCell.">
<polygon fill="white" stroke="#666666" points="1407.5,-24.5 1288.5,-24.5 1288.5,-5.5 1407.5,-5.5 1407.5,-24.5"/>
<text text-anchor="middle" x="1348" y="-12.5" font-family="Helvetica,sans-Serif" font-size="10.00">src/cells/FracCell.cpp</text>
</a>
</g>
</g>
<!-- Node1&#45;&gt;Node11 -->
<g id="edge10" class="edge">
<title>Node1&#45;&gt;Node11</title>
<path fill="none" stroke="#63b8ff" d="M2133.2,-73.94C1999.01,-72.09 1681.18,-64.15 1417,-30 1406.57,-28.65 1395.37,-26.63 1385.08,-24.54"/>
<polygon fill="#63b8ff" stroke="#63b8ff" points="2133.26,-77.44 2143.31,-74.07 2133.35,-70.44 2133.26,-77.44"/>
</g>
<!-- Node12 -->
<g id="node12" class="node">
<title>Node12</title>
<g id="a_node12"><a xlink:href="FunCell_8cpp.html" target="_top" xlink:title="This file defines the class FunCell.">
<polygon fill="white" stroke="#666666" points="1542,-24.5 1426,-24.5 1426,-5.5 1542,-5.5 1542,-24.5"/>
<text text-anchor="middle" x="1484" y="-12.5" font-family="Helvetica,sans-Serif" font-size="10.00">src/cells/FunCell.cpp</text>
</a>
</g>
</g>
<!-- Node1&#45;&gt;Node12 -->
<g id="edge11" class="edge">
<title>Node1&#45;&gt;Node12</title>
<path fill="none" stroke="#63b8ff" d="M2133,-72.98C2016.05,-69.59 1762.66,-59.25 1551,-30 1540.99,-28.62 1530.25,-26.61 1520.35,-24.54"/>
<polygon fill="#63b8ff" stroke="#63b8ff" points="2133.11,-76.48 2143.21,-73.27 2133.31,-69.49 2133.11,-76.48"/>
</g>
<!-- Node13 -->
<g id="node13" class="node">
<title>Node13</title>
<g id="a_node13"><a xlink:href="GroupCell_8cpp.html" target="_top" xlink:title="This file defines the class GroupCell.">
<polygon fill="white" stroke="#666666" points="1688,-24.5 1560,-24.5 1560,-5.5 1688,-5.5 1688,-24.5"/>
<text text-anchor="middle" x="1624" y="-12.5" font-family="Helvetica,sans-Serif" font-size="10.00">src/cells/GroupCell.cpp</text>
</a>
</g>
</g>
<!-- Node1&#45;&gt;Node13 -->
<g id="edge12" class="edge">
<title>Node1&#45;&gt;Node13</title>
<path fill="none" stroke="#63b8ff" d="M2133.2,-70.84C2037.49,-64.96 1852.82,-51.81 1697,-30 1686.39,-28.52 1674.99,-26.52 1664.42,-24.51"/>
<polygon fill="#63b8ff" stroke="#63b8ff" points="2133.11,-74.34 2143.31,-71.45 2133.54,-67.35 2133.11,-74.34"/>
</g>
<!-- Node14 -->
<g id="node14" class="node">
<title>Node14</title>
<g id="a_node14"><a xlink:href="ImgCell_8cpp.html" target="_top" xlink:title="This file defines the class ImgCell.">
<polygon fill="white" stroke="#666666" points="1823.5,-24.5 1706.5,-24.5 1706.5,-5.5 1823.5,-5.5 1823.5,-24.5"/>
<text text-anchor="middle" x="1765" y="-12.5" font-family="Helvetica,sans-Serif" font-size="10.00">src/cells/ImgCell.cpp</text>
</a>
</g>
</g>
<!-- Node1&#45;&gt;Node14 -->
<g id="edge13" class="edge">
<title>Node1&#45;&gt;Node14</title>
<path fill="none" stroke="#63b8ff" d="M2133.21,-68.3C2059.88,-60.9 1936.95,-47.31 1832,-30 1822.62,-28.45 1812.56,-26.51 1803.16,-24.56"/>
<polygon fill="#63b8ff" stroke="#63b8ff" points="2132.93,-71.79 2143.23,-69.31 2133.63,-64.83 2132.93,-71.79"/>
</g>
<!-- Node15 -->
<g id="node15" class="node">
<title>Node15</title>
<g id="a_node15"><a xlink:href="ImgCellBase_8cpp.html" target="_top" xlink:title="This file defines the class ImgCellBase.">
<polygon fill="white" stroke="#666666" points="1982.5,-24.5 1841.5,-24.5 1841.5,-5.5 1982.5,-5.5 1982.5,-24.5"/>
<text text-anchor="middle" x="1912" y="-12.5" font-family="Helvetica,sans-Serif" font-size="10.00">src/cells/ImgCellBase.cpp</text>
</a>
</g>
</g>
<!-- Node1&#45;&gt;Node15 -->
<g id="edge14" class="edge">
<title>Node1&#45;&gt;Node15</title>
<path fill="none" stroke="#63b8ff" d="M2146.48,-63.96C2091.28,-52.67 2004.71,-34.96 1953.64,-24.52"/>
<polygon fill="#63b8ff" stroke="#63b8ff" points="2145.91,-67.42 2156.41,-65.99 2147.32,-60.56 2145.91,-67.42"/>
</g>
<!-- Node16 -->
<g id="node16" class="node">
<title>Node16</title>
<g id="a_node16"><a xlink:href="IntCell_8cpp.html" target="_top" xlink:title="This file defines the class IntCell.">
<polygon fill="white" stroke="#666666" points="2111.5,-24.5 2000.5,-24.5 2000.5,-5.5 2111.5,-5.5 2111.5,-24.5"/>
<text text-anchor="middle" x="2056" y="-12.5" font-family="Helvetica,sans-Serif" font-size="10.00">src/cells/IntCell.cpp</text>
</a>
</g>
</g>
<!-- Node1&#45;&gt;Node16 -->
<g id="edge15" class="edge">
<title>Node1&#45;&gt;Node16</title>
<path fill="none" stroke="#63b8ff" d="M2167.86,-62.08C2140.43,-50.78 2100.66,-34.4 2076.67,-24.52"/>
<polygon fill="#63b8ff" stroke="#63b8ff" points="2166.77,-65.42 2177.35,-65.99 2169.44,-58.95 2166.77,-65.42"/>
</g>
<!-- Node17 -->
<g id="node17" class="node">
<title>Node17</title>
<g id="a_node17"><a xlink:href="IntervalCell_8cpp.html" target="_top" xlink:title="This file defines the class IntervalCell.">
<polygon fill="white" stroke="#666666" points="2266,-24.5 2130,-24.5 2130,-5.5 2266,-5.5 2266,-24.5"/>
<text text-anchor="middle" x="2198" y="-12.5" font-family="Helvetica,sans-Serif" font-size="10.00">src/cells/IntervalCell.cpp</text>
</a>
</g>
</g>
<!-- Node1&#45;&gt;Node17 -->
<g id="edge16" class="edge">
<title>Node1&#45;&gt;Node17</title>
<path fill="none" stroke="#63b8ff" d="M2198,-55.66C2198,-45.24 2198,-32.8 2198,-24.67"/>
<polygon fill="#63b8ff" stroke="#63b8ff" points="2194.5,-55.87 2198,-65.87 2201.5,-55.87 2194.5,-55.87"/>
</g>
<!-- Node18 -->
<g id="node18" class="node">
<title>Node18</title>
<g id="a_node18"><a xlink:href="LabelCell_8cpp.html" target="_top" xlink:title="This file defines the class LabelCell.">
<polygon fill="white" stroke="#666666" points="2409.5,-24.5 2284.5,-24.5 2284.5,-5.5 2409.5,-5.5 2409.5,-24.5"/>
<text text-anchor="middle" x="2347" y="-12.5" font-family="Helvetica,sans-Serif" font-size="10.00">src/cells/LabelCell.cpp</text>
</a>
</g>
</g>
<!-- Node1&#45;&gt;Node18 -->
<g id="edge17" class="edge">
<title>Node1&#45;&gt;Node18</title>
<path fill="none" stroke="#63b8ff" d="M2229.25,-62.23C2258.05,-50.92 2300.03,-34.44 2325.31,-24.52"/>
<polygon fill="#63b8ff" stroke="#63b8ff" points="2227.7,-59.08 2219.67,-65.99 2230.25,-65.6 2227.7,-59.08"/>
</g>
<!-- Node19 -->
<g id="node19" class="node">
<title>Node19</title>
<g id="a_node19"><a xlink:href="LimitCell_8cpp.html" target="_top" xlink:title="This file defines the class LimitCell.">
<polygon fill="white" stroke="#666666" points="2550.5,-24.5 2427.5,-24.5 2427.5,-5.5 2550.5,-5.5 2550.5,-24.5"/>
<text text-anchor="middle" x="2489" y="-12.5" font-family="Helvetica,sans-Serif" font-size="10.00">src/cells/LimitCell.cpp</text>
</a>
</g>
</g>
<!-- Node1&#45;&gt;Node19 -->
<g id="edge18" class="edge">
<title>Node1&#45;&gt;Node19</title>
<path fill="none" stroke="#63b8ff" d="M2250.42,-63.96C2306.59,-52.67 2394.67,-34.96 2446.64,-24.52"/>
<polygon fill="#63b8ff" stroke="#63b8ff" points="2249.43,-60.59 2240.31,-65.99 2250.81,-67.45 2249.43,-60.59"/>
</g>
<!-- Node20 -->
<g id="node20" class="node">
<title>Node20</title>
<g id="a_node20"><a xlink:href="ListCell_8cpp.html" target="_top" xlink:title="This file defines the class ListCell.">
<polygon fill="white" stroke="#666666" points="2685,-24.5 2569,-24.5 2569,-5.5 2685,-5.5 2685,-24.5"/>
<text text-anchor="middle" x="2627" y="-12.5" font-family="Helvetica,sans-Serif" font-size="10.00">src/cells/ListCell.cpp</text>
</a>
</g>
</g>
<!-- Node1&#45;&gt;Node20 -->
<g id="edge19" class="edge">
<title>Node1&#45;&gt;Node20</title>
<path fill="none" stroke="#63b8ff" d="M2263.15,-68.15C2335.8,-60.68 2456.7,-47.11 2560,-30 2569.38,-28.45 2579.44,-26.5 2588.84,-24.55"/>
<polygon fill="#63b8ff" stroke="#63b8ff" points="2262.38,-64.71 2252.79,-69.21 2263.09,-71.67 2262.38,-64.71"/>
</g>
<!-- Node21 -->
<g id="node21" class="node">
<title>Node21</title>
<g id="a_node21"><a xlink:href="LongNumberCell_8cpp.html" target="_top" xlink:title="This file defines the class LongNumberCell.">
<polygon fill="white" stroke="#666666" points="2864.5,-24.5 2703.5,-24.5 2703.5,-5.5 2864.5,-5.5 2864.5,-24.5"/>
<text text-anchor="middle" x="2784" y="-12.5" font-family="Helvetica,sans-Serif" font-size="10.00">src/cells/LongNumberCell.cpp</text>
</a>
</g>
</g>
<!-- Node1&#45;&gt;Node21 -->
<g id="edge20" class="edge">
<title>Node1&#45;&gt;Node21</title>
<path fill="none" stroke="#63b8ff" d="M2262.82,-70.03C2357.67,-63.19 2539.79,-48.89 2694,-30 2706.56,-28.46 2720.05,-26.52 2732.68,-24.57"/>
<polygon fill="#63b8ff" stroke="#63b8ff" points="2262.53,-66.54 2252.8,-70.75 2263.03,-73.53 2262.53,-66.54"/>
</g>
<!-- Node22 -->
<g id="node22" class="node">
<title>Node22</title>
<g id="a_node22"><a xlink:href="MatrCell_8cpp.html" target="_top" xlink:title="This file defines the class MatrCell.">
<polygon fill="white" stroke="#666666" points="3003.5,-24.5 2882.5,-24.5 2882.5,-5.5 3003.5,-5.5 3003.5,-24.5"/>
<text text-anchor="middle" x="2943" y="-12.5" font-family="Helvetica,sans-Serif" font-size="10.00">src/cells/MatrCell.cpp</text>
</a>
</g>
</g>
<!-- Node1&#45;&gt;Node22 -->
<g id="edge21" class="edge">
<title>Node1&#45;&gt;Node22</title>
<path fill="none" stroke="#63b8ff" d="M2262.75,-73.13C2383.45,-69.94 2650.85,-59.85 2874,-30 2884.3,-28.62 2895.36,-26.62 2905.55,-24.55"/>
<polygon fill="#63b8ff" stroke="#63b8ff" points="2262.48,-69.64 2252.57,-73.39 2262.66,-76.63 2262.48,-69.64"/>
</g>
<!-- Node23 -->
<g id="node23" class="node">
<title>Node23</title>
<g id="a_node23"><a xlink:href="NamedBoxCell_8cpp.html" target="_top" xlink:title="This file defines the class NamedBoxCell.">
<polygon fill="white" stroke="#666666" points="3174,-24.5 3022,-24.5 3022,-5.5 3174,-5.5 3174,-24.5"/>
<text text-anchor="middle" x="3098" y="-12.5" font-family="Helvetica,sans-Serif" font-size="10.00">src/cells/NamedBoxCell.cpp</text>
</a>
</g>
</g>
<!-- Node1&#45;&gt;Node23 -->
<g id="edge22" class="edge">
<title>Node1&#45;&gt;Node23</title>
<path fill="none" stroke="#63b8ff" d="M2262.94,-73.35C2401.25,-70.37 2734.99,-60.39 3013,-30 3025.64,-28.62 3039.25,-26.61 3051.8,-24.55"/>
<polygon fill="#63b8ff" stroke="#63b8ff" points="2262.46,-69.86 2252.53,-73.57 2262.6,-76.86 2262.46,-69.86"/>
</g>
<!-- Node24 -->
<g id="node24" class="node">
<title>Node24</title>
<g id="a_node24"><a xlink:href="ParenCell_8cpp.html" target="_top" xlink:title="This file defines the class ParenCell.">
<polygon fill="white" stroke="#666666" points="3317.5,-24.5 3192.5,-24.5 3192.5,-5.5 3317.5,-5.5 3317.5,-24.5"/>
<text text-anchor="middle" x="3255" y="-12.5" font-family="Helvetica,sans-Serif" font-size="10.00">src/cells/ParenCell.cpp</text>
</a>
</g>
</g>
<!-- Node1&#45;&gt;Node24 -->
<g id="edge23" class="edge">
<title>Node1&#45;&gt;Node24</title>
<path fill="none" stroke="#63b8ff" d="M2262.71,-74.85C2420.58,-75.01 2837.87,-71.12 3183,-30 3194,-28.69 3205.84,-26.65 3216.68,-24.53"/>
<polygon fill="#63b8ff" stroke="#63b8ff" points="2262.69,-71.35 2252.69,-74.84 2262.68,-78.35 2262.69,-71.35"/>
</g>
<!-- Node25 -->
<g id="node25" class="node">
<title>Node25</title>
<g id="a_node25"><a xlink:href="ProductCell_8cpp.html" target="_top" xlink:title="This file defines the class ProductCell.">
<polygon fill="white" stroke="#666666" points="3470.5,-24.5 3335.5,-24.5 3335.5,-5.5 3470.5,-5.5 3470.5,-24.5"/>
<text text-anchor="middle" x="3403" y="-12.5" font-family="Helvetica,sans-Serif" font-size="10.00">src/cells/ProductCell.cpp</text>
</a>
</g>
</g>
<!-- Node1&#45;&gt;Node25 -->
<g id="edge24" class="edge">
<title>Node1&#45;&gt;Node25</title>
<path fill="none" stroke="#63b8ff" d="M2262.77,-75.17C2435.98,-76.28 2924.12,-74.82 3327,-30 3338.6,-28.71 3351.09,-26.68 3362.53,-24.56"/>
<polygon fill="#63b8ff" stroke="#63b8ff" points="2262.57,-71.67 2252.55,-75.1 2262.52,-78.67 2262.57,-71.67"/>
</g>
<!-- Node26 -->
<g id="node26" class="node">
<title>Node26</title>
<g id="a_node26"><a xlink:href="SetCell_8cpp.html" target="_top" xlink:title="This file defines the class SetCell.">
<polygon fill="white" stroke="#666666" points="3603,-24.5 3489,-24.5 3489,-5.5 3603,-5.5 3603,-24.5"/>
<text text-anchor="middle" x="3546" y="-12.5" font-family="Helvetica,sans-Serif" font-size="10.00">src/cells/SetCell.cpp</text>
</a>
</g>
</g>
<!-- Node1&#45;&gt;Node26 -->
<g id="edge25" class="edge">
<title>Node1&#45;&gt;Node26</title>
<path fill="none" stroke="#63b8ff" d="M2262.52,-73.75C2488.07,-70.89 3240.52,-59.33 3480,-30 3490.23,-28.75 3501.23,-26.7 3511.25,-24.56"/>
<polygon fill="#63b8ff" stroke="#63b8ff" points="2262.46,-70.25 2252.5,-73.87 2262.54,-77.25 2262.46,-70.25"/>
</g>
<!-- Node27 -->
<g id="node27" class="node">
<title>Node27</title>
<g id="a_node27"><a xlink:href="SqrtCell_8cpp.html" target="_top" xlink:title="This file defines the class SqrtCell.">
<polygon fill="white" stroke="#666666" points="3739,-24.5 3621,-24.5 3621,-5.5 3739,-5.5 3739,-24.5"/>
<text text-anchor="middle" x="3680" y="-12.5" font-family="Helvetica,sans-Serif" font-size="10.00">src/cells/SqrtCell.cpp</text>
</a>
</g>
</g>
<!-- Node1&#45;&gt;Node27 -->
<g id="edge26" class="edge">
<title>Node1&#45;&gt;Node27</title>
<path fill="none" stroke="#63b8ff" d="M2262.97,-73.94C2503.83,-71.61 3345.51,-61.39 3612,-30 3622.53,-28.76 3633.86,-26.72 3644.19,-24.57"/>
<polygon fill="#63b8ff" stroke="#63b8ff" points="2262.6,-70.44 2252.63,-74.03 2262.67,-77.44 2262.6,-70.44"/>
</g>
<!-- Node28 -->
<g id="node28" class="node">
<title>Node28</title>
<g id="a_node28"><a xlink:href="SubCell_8cpp.html" target="_top" xlink:title="This file defines the class SubCell.">
<polygon fill="white" stroke="#666666" points="3873,-24.5 3757,-24.5 3757,-5.5 3873,-5.5 3873,-24.5"/>
<text text-anchor="middle" x="3815" y="-12.5" font-family="Helvetica,sans-Serif" font-size="10.00">src/cells/SubCell.cpp</text>
</a>
</g>
</g>
<!-- Node1&#45;&gt;Node28 -->
<g id="edge27" class="edge">
<title>Node1&#45;&gt;Node28</title>
<path fill="none" stroke="#63b8ff" d="M2262.77,-74.17C2517.85,-72.64 3453.48,-64.72 3748,-30 3758.5,-28.76 3769.8,-26.69 3780.07,-24.52"/>
<polygon fill="#63b8ff" stroke="#63b8ff" points="2262.54,-70.67 2252.56,-74.23 2262.58,-77.67 2262.54,-70.67"/>
</g>
<!-- Node29 -->
<g id="node29" class="node">
<title>Node29</title>
<g id="a_node29"><a xlink:href="SubSupCell_8cpp.html" target="_top" xlink:title="This file defines the class SubSupCell.">
<polygon fill="white" stroke="#666666" points="4025,-24.5 3891,-24.5 3891,-5.5 4025,-5.5 4025,-24.5"/>
<text text-anchor="middle" x="3958" y="-12.5" font-family="Helvetica,sans-Serif" font-size="10.00">src/cells/SubSupCell.cpp</text>
</a>
</g>
</g>
<!-- Node1&#45;&gt;Node29 -->
<g id="edge28" class="edge">
<title>Node1&#45;&gt;Node29</title>
<path fill="none" stroke="#63b8ff" d="M2262.91,-74.14C2531.82,-72.43 3559.44,-63.76 3882,-30 3893.88,-28.76 3906.68,-26.69 3918.33,-24.51"/>
<polygon fill="#63b8ff" stroke="#63b8ff" points="2262.52,-70.64 2252.54,-74.2 2262.56,-77.64 2262.52,-70.64"/>
</g>
<!-- Node30 -->
<g id="node30" class="node">
<title>Node30</title>
<g id="a_node30"><a xlink:href="SumCell_8cpp.html" target="_top" xlink:title="This file defines the class SumCell.">
<polygon fill="white" stroke="#666666" points="4163,-24.5 4043,-24.5 4043,-5.5 4163,-5.5 4163,-24.5"/>
<text text-anchor="middle" x="4103" y="-12.5" font-family="Helvetica,sans-Serif" font-size="10.00">src/cells/SumCell.cpp</text>
</a>
</g>
</g>
<!-- Node1&#45;&gt;Node30 -->
<g id="edge29" class="edge">
<title>Node1&#45;&gt;Node30</title>
<path fill="none" stroke="#63b8ff" d="M2262.65,-74.46C2546.06,-74.04 3680.15,-69.87 4034,-30 4044.81,-28.78 4056.44,-26.72 4067.02,-24.55"/>
<polygon fill="#63b8ff" stroke="#63b8ff" points="2262.54,-70.96 2252.54,-74.47 2262.55,-77.96 2262.54,-70.96"/>
</g>
<!-- Node31 -->
<g id="node31" class="node">
<title>Node31</title>
<g id="a_node31"><a xlink:href="TextCell_8cpp.html" target="_top" xlink:title="This file defines the class TextCell.">
<polygon fill="white" stroke="#666666" points="4300.5,-24.5 4181.5,-24.5 4181.5,-5.5 4300.5,-5.5 4300.5,-24.5"/>
<text text-anchor="middle" x="4241" y="-12.5" font-family="Helvetica,sans-Serif" font-size="10.00">src/cells/TextCell.cpp</text>
</a>
</g>
</g>
<!-- Node1&#45;&gt;Node31 -->
<g id="edge30" class="edge">
<title>Node1&#45;&gt;Node31</title>
<path fill="none" stroke="#63b8ff" d="M2263.08,-74.59C2560.2,-74.75 3789.66,-72.75 4172,-30 4182.81,-28.79 4194.45,-26.73 4205.02,-24.56"/>
<polygon fill="#63b8ff" stroke="#63b8ff" points="2262.91,-71.09 2252.91,-74.58 2262.91,-78.09 2262.91,-71.09"/>
</g>
<!-- Node32 -->
<g id="node32" class="node">
<title>Node32</title>
<g id="a_node32"><a xlink:href="VisiblyInvalidCell_8cpp.html" target="_top" xlink:title="This file defines the class VisiblyInvalidCell.">
<polygon fill="white" stroke="#666666" points="4443.5,-30 4318.5,-30 4318.5,0 4443.5,0 4443.5,-30"/>
<text text-anchor="start" x="4326.5" y="-18" font-family="Helvetica,sans-Serif" font-size="10.00">src/cells/VisiblyInvalid</text>
<text text-anchor="middle" x="4381" y="-7" font-family="Helvetica,sans-Serif" font-size="10.00">Cell.cpp</text>
</a>
</g>
</g>
<!-- Node1&#45;&gt;Node32 -->
<g id="edge31" class="edge">
<title>Node1&#45;&gt;Node32</title>
<path fill="none" stroke="#63b8ff" d="M2263.03,-74.65C2572.57,-75.14 3898.78,-74.53 4310,-30 4312.75,-29.7 4315.55,-29.35 4318.37,-28.96"/>
<polygon fill="#63b8ff" stroke="#63b8ff" points="2262.88,-71.15 2252.88,-74.63 2262.87,-78.15 2262.88,-71.15"/>
</g>
</g>
</svg>
        <g id="navigator" transform="translate(0 0)" fill="#404254">
                <rect fill="#f2f5e9" fill-opacity="0.5" stroke="#606060" stroke-width=".5" x="0" y="0" width="60" height="60"/>
                <use id="zoomplus" xlink:href="#zoomPlus" x="17" y="9" onmousedown="handleZoom(evt,'in')"/>
                <use id="zoomminus" xlink:href="#zoomMin" x="42" y="9" onmousedown="handleZoom(evt,'out')"/>
                <use id="reset" xlink:href="#resetDef" x="30" y="36" onmousedown="handleReset()"/>
                <g id="arrowUp" xlink:href="#dirArrow" transform="translate(30 24)" onmousedown="handlePan(0,-1)">
                  <use xlink:href="#rim" fill="#404040">
                        <set attributeName="fill" to="#808080" begin="arrowUp.mouseover" end="arrowUp.mouseout"/>
                  </use>
                  <path fill="none" stroke="white" stroke-width="1.5" d="M0,-3.0v7 M-2.5,-0.5L0,-3.0L2.5,-0.5"/>
                </g>
                <g id="arrowRight" xlink:href="#dirArrow" transform="rotate(90) translate(36 -43)" onmousedown="handlePan(1,0)">
                  <use xlink:href="#rim" fill="#404040">
                        <set attributeName="fill" to="#808080" begin="arrowRight.mouseover" end="arrowRight.mouseout"/>
                  </use>
                  <path fill="none" stroke="white" stroke-width="1.5" d="M0,-3.0v7 M-2.5,-0.5L0,-3.0L2.5,-0.5"/>
                </g>
                <g id="arrowDown" xlink:href="#dirArrow" transform="rotate(180) translate(-30 -48)" onmousedown="handlePan(0,1)">
                  <use xlink:href="#rim" fill="#404040">
                        <set attributeName="fill" to="#808080" begin="arrowDown.mouseover" end="arrowDown.mouseout"/>
                  </use>
                  <path fill="none" stroke="white" stroke-width="1.5" d="M0,-3.0v7 M-2.5,-0.5L0,-3.0L2.5,-0.5"/>
                </g>
                <g id="arrowLeft" xlink:href="#dirArrow" transform="rotate(270) translate(-36 17)" onmousedown="handlePan(-1,0)">
                  <use xlink:href="#rim" fill="#404040">
                        <set attributeName="fill" to="#808080" begin="arrowLeft.mouseover" end="arrowLeft.mouseout"/>
                  </use>
                  <path fill="none" stroke="white" stroke-width="1.5" d="M0,-3.0v7 M-2.5,-0.5L0,-3.0L2.5,-0.5"/>
                </g>
        </g>
        <svg viewBox="0 0 15 15" width="100%" height="30px" preserveAspectRatio="xMaxYMin meet">
         <g id="arrow_out" transform="scale(0.3 0.3)">
          <a xlink:href="CellImpl_8h__dep__incl_org.svg" target="_base">
           <rect id="button" ry="5" rx="5" y="6" x="6" height="38" width="38"
                fill="#f2f5e9" fill-opacity="0.5" stroke="#606060" stroke-width="1.0"/>
           <path id="arrow"
             d="M 11.500037,31.436501 C 11.940474,20.09759 22.043105,11.32322 32.158766,21.979434 L 37.068811,17.246167 C 37.068811,17.246167 37.088388,32 37.088388,32 L 22.160133,31.978069 C 22.160133,31.978069 26.997745,27.140456 26.997745,27.140456 C 18.528582,18.264221 13.291696,25.230495 11.500037,31.436501 z"
             style="fill:#404040;"/>
          </a>
         </g>
        </svg>
</svg>
