<?xml version="1.0" encoding="UTF-8" standalone="no"?>
<!DOCTYPE svg PUBLIC "-//W3C//DTD SVG 1.1//EN"
 "http://www.w3.org/Graphics/SVG/1.1/DTD/svg11.dtd">
<!-- Generated by graphviz version 2.43.0 (0)
 -->
<!-- Title: src/cells/CellImpl.h Pages: 1 -->
<svg width="4451pt" height="95pt"
 viewBox="0.00 0.00 4450.50 95.00" xmlns="http://www.w3.org/2000/svg" xmlns:xlink="http://www.w3.org/1999/xlink">
<g id="graph0" class="graph" transform="scale(1 1) rotate(0) translate(4 91)">
<title>src/cells/CellImpl.h</title>
<polygon fill="white" stroke="transparent" points="-4,4 -4,-91 4446.5,-91 4446.5,4 -4,4"/>
<!-- Node1 -->
<g id="node1" class="node">
<title>Node1</title>
<g id="a_node1"><a xlink:title="Macros and types used only by cell implementations, not by cell users.">
<polygon fill="#bfbfbf" stroke="black" points="2136.5,-67.5 2136.5,-86.5 2245.5,-86.5 2245.5,-67.5 2136.5,-67.5"/>
<text text-anchor="middle" x="2191" y="-74.5" font-family="Helvetica,sans-Serif" font-size="10.00">src/cells/CellImpl.h</text>
</a>
</g>
</g>
<!-- Node2 -->
<g id="node2" class="node">
<title>Node2</title>
<g id="a_node2"><a xlink:href="AbsCell_8cpp.html" target="_top" xlink:title="This file defines the class AbsCell.">
<polygon fill="white" stroke="black" points="0,-6 0,-25 116,-25 116,-6 0,-6"/>
<text text-anchor="middle" x="58" y="-13" font-family="Helvetica,sans-Serif" font-size="10.00">src/cells/AbsCell.cpp</text>
</a>
</g>
</g>
<!-- Node1&#45;&gt;Node2 -->
<g id="edge1" class="edge">
<title>Node1&#45;&gt;Node2</title>
<path fill="none" stroke="midnightblue" d="M2125.92,-76.26C1820.36,-77.21 526.19,-78.34 125,-31 114.01,-29.7 102.16,-27.43 91.53,-25.07"/>
<polygon fill="midnightblue" stroke="midnightblue" points="2126.38,-79.76 2136.37,-76.22 2126.36,-72.76 2126.38,-79.76"/>
</g>
<!-- Node3 -->
<g id="node3" class="node">
<title>Node3</title>
<g id="a_node3"><a xlink:href="AnimationCell_8cpp.html" target="_top" xlink:title="This file defines the class AnimationCell.">
<polygon fill="white" stroke="black" points="134.5,-6 134.5,-25 283.5,-25 283.5,-6 134.5,-6"/>
<text text-anchor="middle" x="209" y="-13" font-family="Helvetica,sans-Serif" font-size="10.00">src/cells/AnimationCell.cpp</text>
</a>
</g>
</g>
<!-- Node1&#45;&gt;Node3 -->
<g id="edge2" class="edge">
<title>Node1&#45;&gt;Node3</title>
<path fill="none" stroke="midnightblue" d="M2126.08,-75.76C1836.33,-74.51 659.34,-67.23 292,-31 278.46,-29.66 263.81,-27.39 250.63,-25.03"/>
<polygon fill="midnightblue" stroke="midnightblue" points="2126.4,-79.26 2136.42,-75.81 2126.43,-72.26 2126.4,-79.26"/>
</g>
<!-- Node4 -->
<g id="node4" class="node">
<title>Node4</title>
<g id="a_node4"><a xlink:href="AtCell_8cpp.html" target="_top" xlink:title="This file defines the class AtCell.">
<polygon fill="white" stroke="black" points="301.5,-6 301.5,-25 410.5,-25 410.5,-6 301.5,-6"/>
<text text-anchor="middle" x="356" y="-13" font-family="Helvetica,sans-Serif" font-size="10.00">src/cells/AtCell.cpp</text>
</a>
</g>
</g>
<!-- Node1&#45;&gt;Node4 -->
<g id="edge3" class="edge">
<title>Node1&#45;&gt;Node4</title>
<path fill="none" stroke="midnightblue" d="M2125.87,-76.1C1847.81,-76.24 758.86,-73.98 419,-31 408.64,-29.69 397.5,-27.42 387.5,-25.06"/>
<polygon fill="midnightblue" stroke="midnightblue" points="2126.2,-79.6 2136.19,-76.09 2126.19,-72.6 2126.2,-79.6"/>
</g>
<!-- Node5 -->
<g id="node5" class="node">
<title>Node5</title>
<g id="a_node5"><a xlink:href="BoxCell_8cpp.html" target="_top" xlink:title="This file defines the class BoxCell.">
<polygon fill="white" stroke="black" points="428.5,-6 428.5,-25 545.5,-25 545.5,-6 428.5,-6"/>
<text text-anchor="middle" x="487" y="-13" font-family="Helvetica,sans-Serif" font-size="10.00">src/cells/BoxCell.cpp</text>
</a>
</g>
</g>
<!-- Node1&#45;&gt;Node5 -->
<g id="edge4" class="edge">
<title>Node1&#45;&gt;Node5</title>
<path fill="none" stroke="midnightblue" d="M2126.16,-75.8C1862.12,-74.73 867.17,-68.26 555,-31 543.85,-29.67 531.83,-27.39 521.04,-25.03"/>
<polygon fill="midnightblue" stroke="midnightblue" points="2126.33,-79.3 2136.35,-75.84 2126.36,-72.3 2126.33,-79.3"/>
</g>
<!-- Node6 -->
<g id="node6" class="node">
<title>Node6</title>
<g id="a_node6"><a xlink:href="ConjugateCell_8cpp.html" target="_top" xlink:title="This file defines the class ConjugateCell.">
<polygon fill="white" stroke="black" points="564,-6 564,-25 712,-25 712,-6 564,-6"/>
<text text-anchor="middle" x="638" y="-13" font-family="Helvetica,sans-Serif" font-size="10.00">src/cells/ConjugateCell.cpp</text>
</a>
</g>
</g>
<!-- Node1&#45;&gt;Node6 -->
<g id="edge5" class="edge">
<title>Node1&#45;&gt;Node6</title>
<path fill="none" stroke="midnightblue" d="M2125.95,-75.24C1879,-72.17 999.42,-59.44 721,-31 707.61,-29.63 693.13,-27.38 680.06,-25.04"/>
<polygon fill="midnightblue" stroke="midnightblue" points="2126.15,-78.74 2136.2,-75.37 2126.24,-71.74 2126.15,-78.74"/>
</g>
<!-- Node7 -->
<g id="node7" class="node">
<title>Node7</title>
<g id="a_node7"><a xlink:href="DiffCell_8cpp.html" target="_top" xlink:title="This file defines the class DiffCell.">
<polygon fill="white" stroke="black" points="730,-6 730,-25 846,-25 846,-6 730,-6"/>
<text text-anchor="middle" x="788" y="-13" font-family="Helvetica,sans-Serif" font-size="10.00">src/cells/DiffCell.cpp</text>
</a>
</g>
</g>
<!-- Node1&#45;&gt;Node7 -->
<g id="edge6" class="edge">
<title>Node1&#45;&gt;Node7</title>
<path fill="none" stroke="midnightblue" d="M2126.14,-75.36C1894.04,-72.82 1105.36,-62.05 855,-31 844.13,-29.65 832.43,-27.4 821.88,-25.07"/>
<polygon fill="midnightblue" stroke="midnightblue" points="2126.41,-78.86 2136.44,-75.47 2126.48,-71.86 2126.41,-78.86"/>
</g>
<!-- Node8 -->
<g id="node8" class="node">
<title>Node8</title>
<g id="a_node8"><a xlink:href="DigitCell_8cpp.html" target="_top" xlink:title="This file defines the class DigitCell.">
<polygon fill="white" stroke="black" points="864,-6 864,-25 986,-25 986,-6 864,-6"/>
<text text-anchor="middle" x="925" y="-13" font-family="Helvetica,sans-Serif" font-size="10.00">src/cells/DigitCell.cpp</text>
</a>
</g>
</g>
<!-- Node1&#45;&gt;Node8 -->
<g id="edge7" class="edge">
<title>Node1&#45;&gt;Node8</title>
<path fill="none" stroke="midnightblue" d="M2126.17,-74.99C1910.27,-71.38 1216.84,-57.96 995,-31 983.67,-29.62 971.44,-27.36 960.42,-25.03"/>
<polygon fill="midnightblue" stroke="midnightblue" points="2126.33,-78.49 2136.38,-75.15 2126.44,-71.49 2126.33,-78.49"/>
</g>
<!-- Node9 -->
<g id="node9" class="node">
<title>Node9</title>
<g id="a_node9"><a xlink:href="ExptCell_8cpp.html" target="_top" xlink:title="This file defines the class ExptCell.">
<polygon fill="white" stroke="black" points="1004,-6 1004,-25 1124,-25 1124,-6 1004,-6"/>
<text text-anchor="middle" x="1064" y="-13" font-family="Helvetica,sans-Serif" font-size="10.00">src/cells/ExptCell.cpp</text>
</a>
</g>
</g>
<!-- Node1&#45;&gt;Node9 -->
<g id="edge8" class="edge">
<title>Node1&#45;&gt;Node9</title>
<path fill="none" stroke="midnightblue" d="M2126.33,-74.65C1927.47,-70.26 1326.75,-55.31 1133,-31 1121.83,-29.6 1109.77,-27.33 1098.91,-25"/>
<polygon fill="midnightblue" stroke="midnightblue" points="2126.26,-78.15 2136.34,-74.87 2126.42,-71.15 2126.26,-78.15"/>
</g>
<!-- Node10 -->
<g id="node10" class="node">
<title>Node10</title>
<g id="a_node10"><a xlink:href="EditorCell_8cpp.html" target="_top" xlink:title="This file defines the class EditorCell.">
<polygon fill="white" stroke="black" points="1142.5,-6 1142.5,-25 1269.5,-25 1269.5,-6 1142.5,-6"/>
<text text-anchor="middle" x="1206" y="-13" font-family="Helvetica,sans-Serif" font-size="10.00">src/cells/EditorCell.cpp</text>
</a>
</g>
</g>
<!-- Node1&#45;&gt;Node10 -->
<g id="edge9" class="edge">
<title>Node1&#45;&gt;Node10</title>
<path fill="none" stroke="midnightblue" d="M2126.08,-76.12C1976.11,-75.68 1594.23,-70.41 1278,-31 1266.49,-29.56 1254.06,-27.32 1242.82,-25.02"/>
<polygon fill="midnightblue" stroke="midnightblue" points="2126.46,-79.62 2136.47,-76.15 2126.48,-72.62 2126.46,-79.62"/>
</g>
<!-- Node11 -->
<g id="node11" class="node">
<title>Node11</title>
<g id="a_node11"><a xlink:href="FracCell_8cpp.html" target="_top" xlink:title="This file defines the class FracCell.">
<polygon fill="white" stroke="black" points="1287.5,-6 1287.5,-25 1406.5,-25 1406.5,-6 1287.5,-6"/>
<text text-anchor="middle" x="1347" y="-13" font-family="Helvetica,sans-Serif" font-size="10.00">src/cells/FracCell.cpp</text>
</a>
</g>
</g>
<!-- Node1&#45;&gt;Node11 -->
<g id="edge10" class="edge">
<title>Node1&#45;&gt;Node11</title>
<path fill="none" stroke="midnightblue" d="M2126.18,-75.49C1992.7,-73.74 1677.7,-65.9 1416,-31 1405.08,-29.54 1393.31,-27.32 1382.64,-25.05"/>
<polygon fill="midnightblue" stroke="midnightblue" points="2126.19,-78.99 2136.24,-75.62 2126.28,-72 2126.19,-78.99"/>
</g>
<!-- Node12 -->
<g id="node12" class="node">
<title>Node12</title>
<g id="a_node12"><a xlink:href="FunCell_8cpp.html" target="_top" xlink:title="This file defines the class FunCell.">
<polygon fill="white" stroke="black" points="1425,-6 1425,-25 1541,-25 1541,-6 1425,-6"/>
<text text-anchor="middle" x="1483" y="-13" font-family="Helvetica,sans-Serif" font-size="10.00">src/cells/FunCell.cpp</text>
</a>
</g>
</g>
<!-- Node1&#45;&gt;Node12 -->
<g id="edge11" class="edge">
<title>Node1&#45;&gt;Node12</title>
<path fill="none" stroke="midnightblue" d="M2126.13,-74.51C2010.04,-71.16 1759.32,-60.84 1550,-31 1539.51,-29.51 1528.22,-27.3 1517.95,-25.05"/>
<polygon fill="midnightblue" stroke="midnightblue" points="2126.18,-78.01 2136.27,-74.79 2126.37,-71.01 2126.18,-78.01"/>
</g>
<!-- Node13 -->
<g id="node13" class="node">
<title>Node13</title>
<g id="a_node13"><a xlink:href="GroupCell_8cpp.html" target="_top" xlink:title="This file defines the class GroupCell.">
<polygon fill="white" stroke="black" points="1559,-6 1559,-25 1687,-25 1687,-6 1559,-6"/>
<text text-anchor="middle" x="1623" y="-13" font-family="Helvetica,sans-Serif" font-size="10.00">src/cells/GroupCell.cpp</text>
</a>
</g>
</g>
<!-- Node1&#45;&gt;Node13 -->
<g id="edge12" class="edge">
<title>Node1&#45;&gt;Node13</title>
<path fill="none" stroke="midnightblue" d="M2126.2,-72.3C2031.4,-66.38 1849.48,-53.16 1696,-31 1684.87,-29.39 1672.88,-27.2 1661.89,-25.01"/>
<polygon fill="midnightblue" stroke="midnightblue" points="2126.01,-75.79 2136.21,-72.91 2126.45,-68.8 2126.01,-75.79"/>
</g>
<!-- Node14 -->
<g id="node14" class="node">
<title>Node14</title>
<g id="a_node14"><a xlink:href="ImgCell_8cpp.html" target="_top" xlink:title="This file defines the class ImgCell.">
<polygon fill="white" stroke="black" points="1705.5,-6 1705.5,-25 1822.5,-25 1822.5,-6 1705.5,-6"/>
<text text-anchor="middle" x="1764" y="-13" font-family="Helvetica,sans-Serif" font-size="10.00">src/cells/ImgCell.cpp</text>
</a>
</g>
</g>
<!-- Node1&#45;&gt;Node14 -->
<g id="edge13" class="edge">
<title>Node1&#45;&gt;Node14</title>
<path fill="none" stroke="midnightblue" d="M2126.19,-69.65C2053.92,-62.16 1933.68,-48.49 1831,-31 1821.14,-29.32 1810.54,-27.18 1800.75,-25.07"/>
<polygon fill="midnightblue" stroke="midnightblue" points="2126.19,-73.17 2136.5,-70.71 2126.91,-66.21 2126.19,-73.17"/>
</g>
<!-- Node15 -->
<g id="node15" class="node">
<title>Node15</title>
<g id="a_node15"><a xlink:href="ImgCellBase_8cpp.html" target="_top" xlink:title="This file defines the class ImgCellBase.">
<polygon fill="white" stroke="black" points="1840.5,-6 1840.5,-25 1981.5,-25 1981.5,-6 1840.5,-6"/>
<text text-anchor="middle" x="1911" y="-13" font-family="Helvetica,sans-Serif" font-size="10.00">src/cells/ImgCellBase.cpp</text>
</a>
</g>
</g>
<!-- Node1&#45;&gt;Node15 -->
<g id="edge14" class="edge">
<title>Node1&#45;&gt;Node15</title>
<path fill="none" stroke="midnightblue" d="M2140.79,-65.33C2086.49,-53.79 2001.01,-35.63 1951.04,-25.01"/>
<polygon fill="midnightblue" stroke="midnightblue" points="2140.37,-68.82 2150.88,-67.48 2141.83,-61.97 2140.37,-68.82"/>
</g>
<!-- Node16 -->
<g id="node16" class="node">
<title>Node16</title>
<g id="a_node16"><a xlink:href="IntCell_8cpp.html" target="_top" xlink:title="This file defines the class IntCell.">
<polygon fill="white" stroke="black" points="1999.5,-6 1999.5,-25 2110.5,-25 2110.5,-6 1999.5,-6"/>
<text text-anchor="middle" x="2055" y="-13" font-family="Helvetica,sans-Serif" font-size="10.00">src/cells/IntCell.cpp</text>
</a>
</g>
</g>
<!-- Node1&#45;&gt;Node16 -->
<g id="edge15" class="edge">
<title>Node1&#45;&gt;Node16</title>
<path fill="none" stroke="midnightblue" d="M2162.03,-63.33C2135.63,-51.78 2097.36,-35.03 2074.45,-25.01"/>
<polygon fill="midnightblue" stroke="midnightblue" points="2160.95,-66.67 2171.51,-67.48 2163.76,-60.26 2160.95,-66.67"/>
</g>
<!-- Node17 -->
<g id="node17" class="node">
<title>Node17</title>
<g id="a_node17"><a xlink:href="LabelCell_8cpp.html" target="_top" xlink:title="This file defines the class LabelCell.">
<polygon fill="white" stroke="black" points="2128.5,-6 2128.5,-25 2253.5,-25 2253.5,-6 2128.5,-6"/>
<text text-anchor="middle" x="2191" y="-13" font-family="Helvetica,sans-Serif" font-size="10.00">src/cells/LabelCell.cpp</text>
</a>
</g>
</g>
<!-- Node1&#45;&gt;Node17 -->
<g id="edge16" class="edge">
<title>Node1&#45;&gt;Node17</title>
<path fill="none" stroke="midnightblue" d="M2191,-57.32C2191,-46.5 2191,-33.4 2191,-25.01"/>
<polygon fill="midnightblue" stroke="midnightblue" points="2187.5,-57.48 2191,-67.48 2194.5,-57.48 2187.5,-57.48"/>
</g>
<!-- Node18 -->
<g id="node18" class="node">
<title>Node18</title>
<g id="a_node18"><a xlink:href="IntervalCell_8cpp.html" target="_top" xlink:title="This file defines the class IntervalCell.">
<polygon fill="white" stroke="black" points="2272,-6 2272,-25 2408,-25 2408,-6 2272,-6"/>
<text text-anchor="middle" x="2340" y="-13" font-family="Helvetica,sans-Serif" font-size="10.00">src/cells/IntervalCell.cpp</text>
</a>
</g>
</g>
<!-- Node1&#45;&gt;Node18 -->
<g id="edge17" class="edge">
<title>Node1&#45;&gt;Node18</title>
<path fill="none" stroke="midnightblue" d="M2221.97,-63.63C2250.92,-52.07 2293.37,-35.12 2318.69,-25.01"/>
<polygon fill="midnightblue" stroke="midnightblue" points="2220.34,-60.52 2212.35,-67.48 2222.93,-67.02 2220.34,-60.52"/>
</g>
<!-- Node19 -->
<g id="node19" class="node">
<title>Node19</title>
<g id="a_node19"><a xlink:href="LimitCell_8cpp.html" target="_top" xlink:title="This file defines the class LimitCell.">
<polygon fill="white" stroke="black" points="2426.5,-6 2426.5,-25 2549.5,-25 2549.5,-6 2426.5,-6"/>
<text text-anchor="middle" x="2488" y="-13" font-family="Helvetica,sans-Serif" font-size="10.00">src/cells/LimitCell.cpp</text>
</a>
</g>
</g>
<!-- Node1&#45;&gt;Node19 -->
<g id="edge18" class="edge">
<title>Node1&#45;&gt;Node19</title>
<path fill="none" stroke="midnightblue" d="M2244.34,-65.46C2290.15,-56.38 2357.94,-42.91 2417,-31 2426.5,-29.08 2436.7,-27.01 2446.33,-25.04"/>
<polygon fill="midnightblue" stroke="midnightblue" points="2243.47,-62.06 2234.34,-67.44 2244.83,-68.93 2243.47,-62.06"/>
</g>
<!-- Node20 -->
<g id="node20" class="node">
<title>Node20</title>
<g id="a_node20"><a xlink:href="ListCell_8cpp.html" target="_top" xlink:title="This file defines the class ListCell.">
<polygon fill="white" stroke="black" points="2568,-6 2568,-25 2684,-25 2684,-6 2568,-6"/>
<text text-anchor="middle" x="2626" y="-13" font-family="Helvetica,sans-Serif" font-size="10.00">src/cells/ListCell.cpp</text>
</a>
</g>
</g>
<!-- Node1&#45;&gt;Node20 -->
<g id="edge19" class="edge">
<title>Node1&#45;&gt;Node20</title>
<path fill="none" stroke="midnightblue" d="M2255.84,-69.88C2329.56,-62.51 2453.38,-48.85 2559,-31 2568.97,-29.31 2579.71,-27.15 2589.61,-25.01"/>
<polygon fill="midnightblue" stroke="midnightblue" points="2255.39,-66.41 2245.78,-70.88 2256.08,-73.38 2255.39,-66.41"/>
</g>
<!-- Node21 -->
<g id="node21" class="node">
<title>Node21</title>
<g id="a_node21"><a xlink:href="MatrCell_8cpp.html" target="_top" xlink:title="This file defines the class MatrCell.">
<polygon fill="white" stroke="black" points="2702.5,-6 2702.5,-25 2823.5,-25 2823.5,-6 2702.5,-6"/>
<text text-anchor="middle" x="2763" y="-13" font-family="Helvetica,sans-Serif" font-size="10.00">src/cells/MatrCell.cpp</text>
</a>
</g>
</g>
<!-- Node1&#45;&gt;Node21 -->
<g id="edge20" class="edge">
<title>Node1&#45;&gt;Node21</title>
<path fill="none" stroke="midnightblue" d="M2255.97,-72.57C2351.93,-66.96 2537.03,-54.07 2693,-31 2703.68,-29.42 2715.19,-27.24 2725.72,-25.05"/>
<polygon fill="midnightblue" stroke="midnightblue" points="2255.62,-69.08 2245.84,-73.15 2256.03,-76.07 2255.62,-69.08"/>
</g>
<!-- Node22 -->
<g id="node22" class="node">
<title>Node22</title>
<g id="a_node22"><a xlink:href="NamedBoxCell_8cpp.html" target="_top" xlink:title="This file defines the class NamedBoxCell.">
<polygon fill="white" stroke="black" points="2842,-6 2842,-25 2994,-25 2994,-6 2842,-6"/>
<text text-anchor="middle" x="2918" y="-13" font-family="Helvetica,sans-Serif" font-size="10.00">src/cells/NamedBoxCell.cpp</text>
</a>
</g>
</g>
<!-- Node1&#45;&gt;Node22 -->
<g id="edge21" class="edge">
<title>Node1&#45;&gt;Node22</title>
<path fill="none" stroke="midnightblue" d="M2255.85,-73.58C2371.92,-68.77 2622.74,-56.24 2833,-31 2846.08,-29.43 2860.21,-27.23 2873.13,-25.01"/>
<polygon fill="midnightblue" stroke="midnightblue" points="2255.56,-70.09 2245.71,-73.99 2255.84,-77.08 2255.56,-70.09"/>
</g>
<!-- Node23 -->
<g id="node23" class="node">
<title>Node23</title>
<g id="a_node23"><a xlink:href="ParenCell_8cpp.html" target="_top" xlink:title="This file defines the class ParenCell.">
<polygon fill="white" stroke="black" points="3012.5,-6 3012.5,-25 3137.5,-25 3137.5,-6 3012.5,-6"/>
<text text-anchor="middle" x="3075" y="-13" font-family="Helvetica,sans-Serif" font-size="10.00">src/cells/ParenCell.cpp</text>
</a>
</g>
</g>
<!-- Node1&#45;&gt;Node23 -->
<g id="edge22" class="edge">
<title>Node1&#45;&gt;Node23</title>
<path fill="none" stroke="midnightblue" d="M2256.3,-75.55C2394.59,-73.9 2726.94,-66.26 3003,-31 3014.38,-29.55 3026.66,-27.32 3037.8,-25.05"/>
<polygon fill="midnightblue" stroke="midnightblue" points="2255.86,-72.05 2245.9,-75.67 2255.93,-79.05 2255.86,-72.05"/>
</g>
<!-- Node24 -->
<g id="node24" class="node">
<title>Node24</title>
<g id="a_node24"><a xlink:href="ProductCell_8cpp.html" target="_top" xlink:title="This file defines the class ProductCell.">
<polygon fill="white" stroke="black" points="3155.5,-6 3155.5,-25 3290.5,-25 3290.5,-6 3155.5,-6"/>
<text text-anchor="middle" x="3223" y="-13" font-family="Helvetica,sans-Serif" font-size="10.00">src/cells/ProductCell.cpp</text>
</a>
</g>
</g>
<!-- Node1&#45;&gt;Node24 -->
<g id="edge23" class="edge">
<title>Node1&#45;&gt;Node24</title>
<path fill="none" stroke="midnightblue" d="M2255.93,-76.1C2410.74,-75.66 2813.51,-70.46 3147,-31 3159.14,-29.56 3172.25,-27.32 3184.11,-25.02"/>
<polygon fill="midnightblue" stroke="midnightblue" points="2255.65,-72.6 2245.66,-76.13 2255.66,-79.6 2255.65,-72.6"/>
</g>
<!-- Node25 -->
<g id="node25" class="node">
<title>Node25</title>
<g id="a_node25"><a xlink:href="SetCell_8cpp.html" target="_top" xlink:title="This file defines the class SetCell.">
<polygon fill="white" stroke="black" points="3309,-6 3309,-25 3423,-25 3423,-6 3309,-6"/>
<text text-anchor="middle" x="3366" y="-13" font-family="Helvetica,sans-Serif" font-size="10.00">src/cells/SetCell.cpp</text>
</a>
</g>
</g>
<!-- Node1&#45;&gt;Node25 -->
<g id="edge24" class="edge">
<title>Node1&#45;&gt;Node25</title>
<path fill="none" stroke="midnightblue" d="M2255.62,-74.87C2460.8,-71.05 3095.97,-57.34 3300,-31 3310.7,-29.62 3322.24,-27.36 3332.62,-25.03"/>
<polygon fill="midnightblue" stroke="midnightblue" points="2255.53,-71.37 2245.6,-75.06 2255.66,-78.37 2255.53,-71.37"/>
</g>
<!-- Node26 -->
<g id="node26" class="node">
<title>Node26</title>
<g id="a_node26"><a xlink:href="SqrtCell_8cpp.html" target="_top" xlink:title="This file defines the class SqrtCell.">
<polygon fill="white" stroke="black" points="3441,-6 3441,-25 3559,-25 3559,-6 3441,-6"/>
<text text-anchor="middle" x="3500" y="-13" font-family="Helvetica,sans-Serif" font-size="10.00">src/cells/SqrtCell.cpp</text>
</a>
</g>
</g>
<!-- Node1&#45;&gt;Node26 -->
<g id="edge25" class="edge">
<title>Node1&#45;&gt;Node26</title>
<path fill="none" stroke="midnightblue" d="M2255.66,-75.14C2476.66,-71.97 3200.98,-59.6 3432,-31 3443.02,-29.64 3454.9,-27.38 3465.6,-25.05"/>
<polygon fill="midnightblue" stroke="midnightblue" points="2255.47,-71.64 2245.52,-75.28 2255.57,-78.64 2255.47,-71.64"/>
</g>
<!-- Node27 -->
<g id="node27" class="node">
<title>Node27</title>
<g id="a_node27"><a xlink:href="SubCell_8cpp.html" target="_top" xlink:title="This file defines the class SubCell.">
<polygon fill="white" stroke="black" points="3577,-6 3577,-25 3693,-25 3693,-6 3577,-6"/>
<text text-anchor="middle" x="3635" y="-13" font-family="Helvetica,sans-Serif" font-size="10.00">src/cells/SubCell.cpp</text>
</a>
</g>
</g>
<!-- Node1&#45;&gt;Node27 -->
<g id="edge26" class="edge">
<title>Node1&#45;&gt;Node27</title>
<path fill="none" stroke="midnightblue" d="M2255.88,-75.43C2492.57,-73.12 3309.24,-62.96 3568,-31 3578.87,-29.66 3590.58,-27.41 3601.12,-25.08"/>
<polygon fill="midnightblue" stroke="midnightblue" points="2255.68,-71.93 2245.71,-75.53 2255.75,-78.93 2255.68,-71.93"/>
</g>
<!-- Node28 -->
<g id="node28" class="node">
<title>Node28</title>
<g id="a_node28"><a xlink:href="SubSupCell_8cpp.html" target="_top" xlink:title="This file defines the class SubSupCell.">
<polygon fill="white" stroke="black" points="3711,-6 3711,-25 3845,-25 3845,-6 3711,-6"/>
<text text-anchor="middle" x="3778" y="-13" font-family="Helvetica,sans-Serif" font-size="10.00">src/cells/SubSupCell.cpp</text>
</a>
</g>
</g>
<!-- Node1&#45;&gt;Node28 -->
<g id="edge27" class="edge">
<title>Node1&#45;&gt;Node28</title>
<path fill="none" stroke="midnightblue" d="M2255.8,-75.44C2506.8,-73.06 3415.26,-62.42 3702,-31 3714.28,-29.65 3727.55,-27.4 3739.52,-25.07"/>
<polygon fill="midnightblue" stroke="midnightblue" points="2255.71,-71.94 2245.75,-75.53 2255.78,-78.94 2255.71,-71.94"/>
</g>
<!-- Node29 -->
<g id="node29" class="node">
<title>Node29</title>
<g id="a_node29"><a xlink:href="SumCell_8cpp.html" target="_top" xlink:title="This file defines the class SumCell.">
<polygon fill="white" stroke="black" points="3863,-6 3863,-25 3983,-25 3983,-6 3863,-6"/>
<text text-anchor="middle" x="3923" y="-13" font-family="Helvetica,sans-Serif" font-size="10.00">src/cells/SumCell.cpp</text>
</a>
</g>
</g>
<!-- Node1&#45;&gt;Node29 -->
<g id="edge28" class="edge">
<title>Node1&#45;&gt;Node29</title>
<path fill="none" stroke="midnightblue" d="M2256.01,-75.81C2523.03,-74.76 3536.26,-68.38 3854,-31 3865.31,-29.67 3877.5,-27.39 3888.45,-25.03"/>
<polygon fill="midnightblue" stroke="midnightblue" points="2255.7,-72.31 2245.71,-75.84 2255.73,-79.31 2255.7,-72.31"/>
</g>
<!-- Node30 -->
<g id="node30" class="node">
<title>Node30</title>
<g id="a_node30"><a xlink:href="LongNumberCell_8cpp.html" target="_top" xlink:title="This file defines the class LongNumberCell.">
<polygon fill="white" stroke="black" points="4001.5,-6 4001.5,-25 4162.5,-25 4162.5,-6 4001.5,-6"/>
<text text-anchor="middle" x="4082" y="-13" font-family="Helvetica,sans-Serif" font-size="10.00">src/cells/LongNumberCell.cpp</text>
</a>
</g>
</g>
<!-- Node1&#45;&gt;Node30 -->
<g id="edge29" class="edge">
<title>Node1&#45;&gt;Node30</title>
<path fill="none" stroke="midnightblue" d="M2255.78,-75.55C2535.92,-73.44 3644.76,-63.16 3992,-31 4006.5,-29.66 4022.2,-27.41 4036.37,-25.07"/>
<polygon fill="midnightblue" stroke="midnightblue" points="2255.75,-72.05 2245.77,-75.63 2255.8,-79.05 2255.75,-72.05"/>
</g>
<!-- Node31 -->
<g id="node31" class="node">
<title>Node31</title>
<g id="a_node31"><a xlink:href="VisiblyInvalidCell_8cpp.html" target="_top" xlink:title="This file defines the class VisiblyInvalidCell.">
<polygon fill="white" stroke="black" points="4180.5,-0.5 4180.5,-30.5 4305.5,-30.5 4305.5,-0.5 4180.5,-0.5"/>
<text text-anchor="start" x="4188.5" y="-18.5" font-family="Helvetica,sans-Serif" font-size="10.00">src/cells/VisiblyInvalid</text>
<text text-anchor="middle" x="4243" y="-7.5" font-family="Helvetica,sans-Serif" font-size="10.00">Cell.cpp</text>
</a>
</g>
</g>
<!-- Node1&#45;&gt;Node31 -->
<g id="edge30" class="edge">
<title>Node1&#45;&gt;Node31</title>
<path fill="none" stroke="midnightblue" d="M2255.82,-76.09C2553.13,-76.24 3788.12,-74.21 4172,-31 4174.75,-30.69 4177.55,-30.33 4180.38,-29.92"/>
<polygon fill="midnightblue" stroke="midnightblue" points="2255.65,-72.59 2245.65,-76.08 2255.64,-79.59 2255.65,-72.59"/>
</g>
<!-- Node32 -->
<g id="node32" class="node">
<title>Node32</title>
<g id="a_node32"><a xlink:href="TextCell_8cpp.html" target="_top" xlink:title="This file defines the class TextCell.">
<polygon fill="white" stroke="black" points="4323.5,-6 4323.5,-25 4442.5,-25 4442.5,-6 4323.5,-6"/>
<text text-anchor="middle" x="4383" y="-13" font-family="Helvetica,sans-Serif" font-size="10.00">src/cells/TextCell.cpp</text>
</a>
</g>
</g>
<!-- Node1&#45;&gt;Node32 -->
<g id="edge31" class="edge">
<title>Node1&#45;&gt;Node32</title>
<path fill="none" stroke="midnightblue" d="M2255.9,-76.28C2566.32,-77.35 3901.58,-79.02 4315,-31 4326.15,-29.7 4338.17,-27.44 4348.96,-25.07"/>
<polygon fill="midnightblue" stroke="midnightblue" points="2255.74,-72.78 2245.72,-76.24 2255.71,-79.78 2255.74,-72.78"/>
</g>
</g>
</svg>
