<?xml version="1.0" encoding="UTF-8" standalone="no"?>
<!DOCTYPE svg PUBLIC "-//W3C//DTD SVG 1.1//EN"
 "http://www.w3.org/Graphics/SVG/1.1/DTD/svg11.dtd">
<!-- Generated by graphviz version 2.43.0 (0)
 -->
<!-- Title: src/cells/CellList.h Pages: 1 -->
<!--zoomable 93 -->
<svg id="main" version="1.1" xmlns="http://www.w3.org/2000/svg" xmlns:xlink="http://www.w3.org/1999/xlink" xml:space="preserve" onload="init(evt)">
<style type="text/css"><![CDATA[
.edge:hover path { stroke: red; }
.edge:hover polygon { stroke: red; fill: red; }
]]></style>
<script type="text/javascript"><![CDATA[
var edges = document.getElementsByTagName('g');
if (edges && edges.length) {
  for (var i=0;i<edges.length;i++) {
    if (edges[i].id.substr(0,4)=='edge') {
      edges[i].setAttribute('class','edge');
    }
  }
}
]]></script>
        <defs>
                <circle id="rim" cx="0" cy="0" r="7"/>
                <circle id="rim2" cx="0" cy="0" r="3.5"/>
                <g id="zoomPlus">
                        <use xlink:href="#rim" fill="#404040">
                                <set attributeName="fill" to="#808080" begin="zoomplus.mouseover" end="zoomplus.mouseout"/>
                        </use>
                        <path d="M-4,0h8M0,-4v8" fill="none" stroke="white" stroke-width="1.5" pointer-events="none"/>
                </g>
                <g id="zoomMin">
                        <use xlink:href="#rim" fill="#404040">
                                <set attributeName="fill" to="#808080" begin="zoomminus.mouseover" end="zoomminus.mouseout"/>
                        </use>
                        <path d="M-4,0h8" fill="none" stroke="white" stroke-width="1.5" pointer-events="none"/>
                </g>
                <g id="dirArrow">
                        <path fill="none" stroke="white" stroke-width="1.5" d="M0,-3.0v7 M-2.5,-0.5L0,-3.0L2.5,-0.5"/>
                </g>
               <g id="resetDef">
                       <use xlink:href="#rim2" fill="#404040">
                               <set attributeName="fill" to="#808080" begin="reset.mouseover" end="reset.mouseout"/>
                       </use>
               </g>
        </defs>

<script type="text/javascript">
var viewWidth = 1517;
var viewHeight = 93;
var sectionId = 'dynsection-1';
</script>
<script xlink:href="svgpan.js"/>
<svg id="graph" class="graph">
<g id="viewport">
<title>src/cells/CellList.h</title>
<!-- Node1 -->
<g id="node1" class="node">
<title>Node1</title>
<g id="a_node1"><a xlink:title="Declares the cell list management functionality.">
<polygon fill="#999999" stroke="#666666" points="785,-85 681,-85 681,-66 785,-66 785,-85"/>
<text text-anchor="middle" x="733" y="-73" font-family="Helvetica,sans-Serif" font-size="10.00">src/cells/CellList.h</text>
</a>
</g>
</g>
<!-- Node2 -->
<g id="node2" class="node">
<title>Node2</title>
<g id="a_node2"><a xlink:href="MathParser_8cpp.html" target="_top" xlink:title="This file defines the class MathParser that reads wxmx data and math from Maxima.">
<polygon fill="white" stroke="#666666" points="108,-24.5 0,-24.5 0,-5.5 108,-5.5 108,-24.5"/>
<text text-anchor="middle" x="54" y="-12.5" font-family="Helvetica,sans-Serif" font-size="10.00">src/MathParser.cpp</text>
</a>
</g>
</g>
<!-- Node1&#45;&gt;Node2 -->
<g id="edge1" class="edge">
<title>Node1&#45;&gt;Node2</title>
<path fill="none" stroke="#63b8ff" d="M670.74,-73.02C559.19,-69.69 318.13,-59.45 117,-30 107.58,-28.62 97.47,-26.61 88.16,-24.55"/>
<polygon fill="#63b8ff" stroke="#63b8ff" points="670.7,-76.52 680.8,-73.31 670.91,-69.52 670.7,-76.52"/>
</g>
<!-- Node3 -->
<g id="node3" class="node">
<title>Node3</title>
<g id="a_node3"><a xlink:href="Worksheet_8cpp.html" target="_top" xlink:title="This file defines the class Worksheet.">
<polygon fill="white" stroke="#666666" points="232,-24.5 126,-24.5 126,-5.5 232,-5.5 232,-24.5"/>
<text text-anchor="middle" x="179" y="-12.5" font-family="Helvetica,sans-Serif" font-size="10.00">src/Worksheet.cpp</text>
</a>
</g>
</g>
<!-- Node1&#45;&gt;Node3 -->
<g id="edge2" class="edge">
<title>Node1&#45;&gt;Node3</title>
<path fill="none" stroke="#63b8ff" d="M670.49,-71.49C576.73,-66.39 394.32,-54.14 241,-30 231.84,-28.56 222.02,-26.56 212.95,-24.52"/>
<polygon fill="#63b8ff" stroke="#63b8ff" points="670.48,-75 680.65,-72.04 670.86,-68.01 670.48,-75"/>
</g>
<!-- Node4 -->
<g id="node4" class="node">
<title>Node4</title>
<g id="a_node4"><a xlink:href="Cell_8cpp.html" target="_top" xlink:title="Core layout and rendering logic for worksheet cells.">
<polygon fill="white" stroke="#666666" points="348,-24.5 250,-24.5 250,-5.5 348,-5.5 348,-24.5"/>
<text text-anchor="middle" x="299" y="-12.5" font-family="Helvetica,sans-Serif" font-size="10.00">src/cells/Cell.cpp</text>
</a>
</g>
</g>
<!-- Node1&#45;&gt;Node4 -->
<g id="edge3" class="edge">
<title>Node1&#45;&gt;Node4</title>
<path fill="none" stroke="#63b8ff" d="M670.51,-69.4C595.62,-62.76 466.53,-49.63 357,-30 348.64,-28.5 339.68,-26.53 331.37,-24.53"/>
<polygon fill="#63b8ff" stroke="#63b8ff" points="670.44,-72.91 680.71,-70.29 671.05,-65.93 670.44,-72.91"/>
</g>
<!-- Node5 -->
<g id="node5" class="node">
<title>Node5</title>
<g id="a_node5"><a xlink:href="DigitCell_8cpp.html" target="_top" xlink:title="This file defines the class DigitCell.">
<polygon fill="white" stroke="#666666" points="488,-24.5 366,-24.5 366,-5.5 488,-5.5 488,-24.5"/>
<text text-anchor="middle" x="427" y="-12.5" font-family="Helvetica,sans-Serif" font-size="10.00">src/cells/DigitCell.cpp</text>
</a>
</g>
</g>
<!-- Node1&#45;&gt;Node5 -->
<g id="edge4" class="edge">
<title>Node1&#45;&gt;Node5</title>
<path fill="none" stroke="#63b8ff" d="M676.99,-64.12C629.16,-55.21 558.52,-41.95 497,-30 488,-28.25 478.35,-26.34 469.18,-24.51"/>
<polygon fill="#63b8ff" stroke="#63b8ff" points="676.37,-67.56 686.85,-65.95 677.65,-60.68 676.37,-67.56"/>
</g>
<!-- Node6 -->
<g id="node6" class="node">
<title>Node6</title>
<g id="a_node6"><a xlink:href="GroupCell_8cpp.html" target="_top" xlink:title="This file defines the class GroupCell.">
<polygon fill="white" stroke="#666666" points="634,-24.5 506,-24.5 506,-5.5 634,-5.5 634,-24.5"/>
<text text-anchor="middle" x="570" y="-12.5" font-family="Helvetica,sans-Serif" font-size="10.00">src/cells/GroupCell.cpp</text>
</a>
</g>
</g>
<!-- Node1&#45;&gt;Node6 -->
<g id="edge5" class="edge">
<title>Node1&#45;&gt;Node6</title>
<path fill="none" stroke="#63b8ff" d="M699.63,-62.52C668.12,-51.21 621.63,-34.53 593.73,-24.52"/>
<polygon fill="#63b8ff" stroke="#63b8ff" points="698.7,-65.91 709.3,-65.99 701.07,-59.32 698.7,-65.91"/>
</g>
<!-- Node7 -->
<g id="node7" class="node">
<title>Node7</title>
<g id="a_node7"><a xlink:href="LongNumberCell_8cpp.html" target="_top" xlink:title="This file defines the class LongNumberCell.">
<polygon fill="white" stroke="#666666" points="813.5,-24.5 652.5,-24.5 652.5,-5.5 813.5,-5.5 813.5,-24.5"/>
<text text-anchor="middle" x="733" y="-12.5" font-family="Helvetica,sans-Serif" font-size="10.00">src/cells/LongNumberCell.cpp</text>
</a>
</g>
</g>
<!-- Node1&#45;&gt;Node7 -->
<g id="edge6" class="edge">
<title>Node1&#45;&gt;Node7</title>
<path fill="none" stroke="#63b8ff" d="M733,-55.66C733,-45.24 733,-32.8 733,-24.67"/>
<polygon fill="#63b8ff" stroke="#63b8ff" points="729.5,-55.87 733,-65.87 736.5,-55.87 729.5,-55.87"/>
</g>
<!-- Node8 -->
<g id="node8" class="node">
<title>Node8</title>
<g id="a_node8"><a xlink:href="SumCell_8cpp.html" target="_top" xlink:title="This file defines the class SumCell.">
<polygon fill="white" stroke="#666666" points="952,-24.5 832,-24.5 832,-5.5 952,-5.5 952,-24.5"/>
<text text-anchor="middle" x="892" y="-12.5" font-family="Helvetica,sans-Serif" font-size="10.00">src/cells/SumCell.cpp</text>
</a>
</g>
</g>
<!-- Node1&#45;&gt;Node8 -->
<g id="edge7" class="edge">
<title>Node1&#45;&gt;Node8</title>
<path fill="none" stroke="#63b8ff" d="M765.55,-62.52C796.29,-51.21 841.64,-34.53 868.85,-24.52"/>
<polygon fill="#63b8ff" stroke="#63b8ff" points="764.3,-59.26 756.12,-65.99 766.71,-65.83 764.3,-59.26"/>
</g>
<!-- Node9 -->
<g id="node9" class="node">
<title>Node9</title>
<g id="a_node9"><a xlink:href="wxMaxima_8cpp.html" target="_top" xlink:title="This file defines the contents of the class wxMaxima that contains most of the program&#39;s logic.">
<polygon fill="white" stroke="#666666" points="1078,-24.5 970,-24.5 970,-5.5 1078,-5.5 1078,-24.5"/>
<text text-anchor="middle" x="1024" y="-12.5" font-family="Helvetica,sans-Serif" font-size="10.00">src/wxMaxima.cpp</text>
</a>
</g>
</g>
<!-- Node1&#45;&gt;Node9 -->
<g id="edge8" class="edge">
<title>Node1&#45;&gt;Node9</title>
<path fill="none" stroke="#63b8ff" d="M788.6,-64.07C834.82,-55.29 902.27,-42.25 961,-30 969.23,-28.28 978.04,-26.37 986.39,-24.53"/>
<polygon fill="#63b8ff" stroke="#63b8ff" points="787.67,-60.68 778.49,-65.98 788.97,-67.56 787.67,-60.68"/>
</g>
<!-- Node10 -->
<g id="node10" class="node">
<title>Node10</title>
<g id="a_node10"><a xlink:href="test__EditorCellInvariants_8cpp.html" target="_top" xlink:title="Hardening tests for EditorCell&#39;s text&#45;editing core.">
<polygon fill="white" stroke="#666666" points="1234,-30 1096,-30 1096,0 1234,0 1234,-30"/>
<text text-anchor="start" x="1104" y="-18" font-family="Helvetica,sans-Serif" font-size="10.00">test/unit_tests/test</text>
<text text-anchor="middle" x="1165" y="-7" font-family="Helvetica,sans-Serif" font-size="10.00">_EditorCellInvariants.cpp</text>
</a>
</g>
</g>
<!-- Node1&#45;&gt;Node10 -->
<g id="edge9" class="edge">
<title>Node1&#45;&gt;Node10</title>
<path fill="none" stroke="#63b8ff" d="M795.09,-67.7C865.88,-59.7 985.01,-45.55 1087,-30 1089.86,-29.56 1092.77,-29.11 1095.71,-28.63"/>
<polygon fill="#63b8ff" stroke="#63b8ff" points="794.55,-64.23 785.01,-68.83 795.33,-71.19 794.55,-64.23"/>
</g>
<!-- Node11 -->
<g id="node11" class="node">
<title>Node11</title>
<g id="a_node11"><a xlink:href="test__GroupCellLayout_8cpp.html" target="_top" xlink:title="Regression tests for the GroupCell &lt;&#45;&gt; EditorCell layout coupling.">
<polygon fill="white" stroke="#666666" points="1375.5,-30 1252.5,-30 1252.5,0 1375.5,0 1375.5,-30"/>
<text text-anchor="start" x="1260.5" y="-18" font-family="Helvetica,sans-Serif" font-size="10.00">test/unit_tests/test</text>
<text text-anchor="middle" x="1314" y="-7" font-family="Helvetica,sans-Serif" font-size="10.00">_GroupCellLayout.cpp</text>
</a>
</g>
</g>
<!-- Node1&#45;&gt;Node11 -->
<g id="edge10" class="edge">
<title>Node1&#45;&gt;Node11</title>
<path fill="none" stroke="#63b8ff" d="M795.49,-71.22C891.9,-65.67 1082.53,-52.75 1243,-30 1246.11,-29.56 1249.29,-29.07 1252.5,-28.55"/>
<polygon fill="#63b8ff" stroke="#63b8ff" points="795.12,-67.74 785.34,-71.8 795.52,-74.72 795.12,-67.74"/>
</g>
<!-- Node12 -->
<g id="node12" class="node">
<title>Node12</title>
<g id="a_node12"><a xlink:href="test__WXMRoundtrip_8cpp.html" target="_top" xlink:title="Regression tests for images surviving the .wxm serialization round&#45;trip.">
<polygon fill="white" stroke="#666666" points="1508.5,-30 1393.5,-30 1393.5,0 1508.5,0 1508.5,-30"/>
<text text-anchor="start" x="1401.5" y="-18" font-family="Helvetica,sans-Serif" font-size="10.00">test/unit_tests/test</text>
<text text-anchor="middle" x="1451" y="-7" font-family="Helvetica,sans-Serif" font-size="10.00">_WXMRoundtrip.cpp</text>
</a>
</g>
</g>
<!-- Node1&#45;&gt;Node12 -->
<g id="edge11" class="edge">
<title>Node1&#45;&gt;Node12</title>
<path fill="none" stroke="#63b8ff" d="M795.38,-73.16C911.8,-70.02 1169.84,-60.01 1385,-30 1387.78,-29.61 1390.63,-29.17 1393.49,-28.7"/>
<polygon fill="#63b8ff" stroke="#63b8ff" points="795.14,-69.67 785.23,-73.43 795.32,-76.67 795.14,-69.67"/>
</g>
</g>
</svg>
        <g id="navigator" transform="translate(0 0)" fill="#404254">
                <rect fill="#f2f5e9" fill-opacity="0.5" stroke="#606060" stroke-width=".5" x="0" y="0" width="60" height="60"/>
                <use id="zoomplus" xlink:href="#zoomPlus" x="17" y="9" onmousedown="handleZoom(evt,'in')"/>
                <use id="zoomminus" xlink:href="#zoomMin" x="42" y="9" onmousedown="handleZoom(evt,'out')"/>
                <use id="reset" xlink:href="#resetDef" x="30" y="36" onmousedown="handleReset()"/>
                <g id="arrowUp" xlink:href="#dirArrow" transform="translate(30 24)" onmousedown="handlePan(0,-1)">
                  <use xlink:href="#rim" fill="#404040">
                        <set attributeName="fill" to="#808080" begin="arrowUp.mouseover" end="arrowUp.mouseout"/>
                  </use>
                  <path fill="none" stroke="white" stroke-width="1.5" d="M0,-3.0v7 M-2.5,-0.5L0,-3.0L2.5,-0.5"/>
                </g>
                <g id="arrowRight" xlink:href="#dirArrow" transform="rotate(90) translate(36 -43)" onmousedown="handlePan(1,0)">
                  <use xlink:href="#rim" fill="#404040">
                        <set attributeName="fill" to="#808080" begin="arrowRight.mouseover" end="arrowRight.mouseout"/>
                  </use>
                  <path fill="none" stroke="white" stroke-width="1.5" d="M0,-3.0v7 M-2.5,-0.5L0,-3.0L2.5,-0.5"/>
                </g>
                <g id="arrowDown" xlink:href="#dirArrow" transform="rotate(180) translate(-30 -48)" onmousedown="handlePan(0,1)">
                  <use xlink:href="#rim" fill="#404040">
                        <set attributeName="fill" to="#808080" begin="arrowDown.mouseover" end="arrowDown.mouseout"/>
                  </use>
                  <path fill="none" stroke="white" stroke-width="1.5" d="M0,-3.0v7 M-2.5,-0.5L0,-3.0L2.5,-0.5"/>
                </g>
                <g id="arrowLeft" xlink:href="#dirArrow" transform="rotate(270) translate(-36 17)" onmousedown="handlePan(-1,0)">
                  <use xlink:href="#rim" fill="#404040">
                        <set attributeName="fill" to="#808080" begin="arrowLeft.mouseover" end="arrowLeft.mouseout"/>
                  </use>
                  <path fill="none" stroke="white" stroke-width="1.5" d="M0,-3.0v7 M-2.5,-0.5L0,-3.0L2.5,-0.5"/>
                </g>
        </g>
        <svg viewBox="0 0 15 15" width="100%" height="30px" preserveAspectRatio="xMaxYMin meet">
         <g id="arrow_out" transform="scale(0.3 0.3)">
          <a xlink:href="CellList_8h__dep__incl_org.svg" target="_base">
           <rect id="button" ry="5" rx="5" y="6" x="6" height="38" width="38"
                fill="#f2f5e9" fill-opacity="0.5" stroke="#606060" stroke-width="1.0"/>
           <path id="arrow"
             d="M 11.500037,31.436501 C 11.940474,20.09759 22.043105,11.32322 32.158766,21.979434 L 37.068811,17.246167 C 37.068811,17.246167 37.088388,32 37.088388,32 L 22.160133,31.978069 C 22.160133,31.978069 26.997745,27.140456 26.997745,27.140456 C 18.528582,18.264221 13.291696,25.230495 11.500037,31.436501 z"
             style="fill:#404040;"/>
          </a>
         </g>
        </svg>
</svg>
