<?xml version="1.0" encoding="UTF-8" standalone="no"?>
<!DOCTYPE svg PUBLIC "-//W3C//DTD SVG 1.1//EN"
 "http://www.w3.org/Graphics/SVG/1.1/DTD/svg11.dtd">
<!-- Generated by graphviz version 2.43.0 (0)
 -->
<!-- Title: src/cells/CellImpl.h Pages: 1 -->
<svg width="4454pt" height="95pt"
 viewBox="0.00 0.00 4453.50 95.00" xmlns="http://www.w3.org/2000/svg" xmlns:xlink="http://www.w3.org/1999/xlink">
<g id="graph0" class="graph" transform="scale(1 1) rotate(0) translate(4 91)">
<title>src/cells/CellImpl.h</title>
<polygon fill="white" stroke="transparent" points="-4,4 -4,-91 4449.5,-91 4449.5,4 -4,4"/>
<!-- Node1 -->
<g id="node1" class="node">
<title>Node1</title>
<g id="a_node1"><a xlink:title="Macros and types used only by cell implementations, not by cell users.">
<polygon fill="#bfbfbf" stroke="black" points="2144.5,-67.5 2144.5,-86.5 2253.5,-86.5 2253.5,-67.5 2144.5,-67.5"/>
<text text-anchor="middle" x="2199" y="-74.5" font-family="Helvetica,sans-Serif" font-size="10.00">src/cells/CellImpl.h</text>
</a>
</g>
</g>
<!-- Node2 -->
<g id="node2" class="node">
<title>Node2</title>
<g id="a_node2"><a xlink:href="AbsCell_8cpp.html" target="_top" xlink:title="This file defines the class AbsCell.">
<polygon fill="white" stroke="black" points="0,-6 0,-25 116,-25 116,-6 0,-6"/>
<text text-anchor="middle" x="58" y="-13" font-family="Helvetica,sans-Serif" font-size="10.00">src/cells/AbsCell.cpp</text>
</a>
</g>
</g>
<!-- Node1&#45;&gt;Node2 -->
<g id="edge1" class="edge">
<title>Node1&#45;&gt;Node2</title>
<path fill="none" stroke="midnightblue" d="M2134.12,-76.26C1828.21,-77.25 527.95,-78.53 125,-31 114.01,-29.7 102.16,-27.44 91.53,-25.07"/>
<polygon fill="midnightblue" stroke="midnightblue" points="2134.17,-79.76 2144.16,-76.23 2134.15,-72.76 2134.17,-79.76"/>
</g>
<!-- Node3 -->
<g id="node3" class="node">
<title>Node3</title>
<g id="a_node3"><a xlink:href="AnimationCell_8cpp.html" target="_top" xlink:title="This file defines the class AnimationCell.">
<polygon fill="white" stroke="black" points="134.5,-6 134.5,-25 283.5,-25 283.5,-6 134.5,-6"/>
<text text-anchor="middle" x="209" y="-13" font-family="Helvetica,sans-Serif" font-size="10.00">src/cells/AnimationCell.cpp</text>
</a>
</g>
</g>
<!-- Node1&#45;&gt;Node3 -->
<g id="edge2" class="edge">
<title>Node1&#45;&gt;Node3</title>
<path fill="none" stroke="midnightblue" d="M2133.81,-75.77C1842.83,-74.54 660.89,-67.37 292,-31 278.46,-29.67 263.81,-27.39 250.63,-25.03"/>
<polygon fill="midnightblue" stroke="midnightblue" points="2134.17,-79.27 2144.19,-75.81 2134.2,-72.27 2134.17,-79.27"/>
</g>
<!-- Node4 -->
<g id="node4" class="node">
<title>Node4</title>
<g id="a_node4"><a xlink:href="AtCell_8cpp.html" target="_top" xlink:title="This file defines the class AtCell.">
<polygon fill="white" stroke="black" points="301.5,-6 301.5,-25 410.5,-25 410.5,-6 301.5,-6"/>
<text text-anchor="middle" x="356" y="-13" font-family="Helvetica,sans-Serif" font-size="10.00">src/cells/AtCell.cpp</text>
</a>
</g>
</g>
<!-- Node1&#45;&gt;Node4 -->
<g id="edge3" class="edge">
<title>Node1&#45;&gt;Node4</title>
<path fill="none" stroke="midnightblue" d="M2134.04,-76.11C1855.48,-76.29 760.59,-74.18 419,-31 408.64,-29.69 397.5,-27.42 387.5,-25.06"/>
<polygon fill="midnightblue" stroke="midnightblue" points="2134.38,-79.6 2144.38,-76.1 2134.38,-72.6 2134.38,-79.6"/>
</g>
<!-- Node5 -->
<g id="node5" class="node">
<title>Node5</title>
<g id="a_node5"><a xlink:href="BoxCell_8cpp.html" target="_top" xlink:title="This file defines the class BoxCell.">
<polygon fill="white" stroke="black" points="428.5,-6 428.5,-25 545.5,-25 545.5,-6 428.5,-6"/>
<text text-anchor="middle" x="487" y="-13" font-family="Helvetica,sans-Serif" font-size="10.00">src/cells/BoxCell.cpp</text>
</a>
</g>
</g>
<!-- Node1&#45;&gt;Node5 -->
<g id="edge4" class="edge">
<title>Node1&#45;&gt;Node5</title>
<path fill="none" stroke="midnightblue" d="M2134.28,-75.81C1869.63,-74.78 868.87,-68.44 555,-31 543.85,-29.67 531.83,-27.39 521.04,-25.03"/>
<polygon fill="midnightblue" stroke="midnightblue" points="2134.48,-79.31 2144.49,-75.85 2134.51,-72.31 2134.48,-79.31"/>
</g>
<!-- Node6 -->
<g id="node6" class="node">
<title>Node6</title>
<g id="a_node6"><a xlink:href="ConjugateCell_8cpp.html" target="_top" xlink:title="This file defines the class ConjugateCell.">
<polygon fill="white" stroke="black" points="564,-6 564,-25 712,-25 712,-6 564,-6"/>
<text text-anchor="middle" x="638" y="-13" font-family="Helvetica,sans-Serif" font-size="10.00">src/cells/ConjugateCell.cpp</text>
</a>
</g>
</g>
<!-- Node1&#45;&gt;Node6 -->
<g id="edge5" class="edge">
<title>Node1&#45;&gt;Node6</title>
<path fill="none" stroke="midnightblue" d="M2134.02,-75.25C1886.3,-72.22 1001.1,-59.58 721,-31 707.61,-29.63 693.13,-27.38 680.06,-25.05"/>
<polygon fill="midnightblue" stroke="midnightblue" points="2134.25,-78.76 2144.29,-75.38 2134.33,-71.76 2134.25,-78.76"/>
</g>
<!-- Node7 -->
<g id="node7" class="node">
<title>Node7</title>
<g id="a_node7"><a xlink:href="DiffCell_8cpp.html" target="_top" xlink:title="This file defines the class DiffCell.">
<polygon fill="white" stroke="black" points="730,-6 730,-25 846,-25 846,-6 730,-6"/>
<text text-anchor="middle" x="788" y="-13" font-family="Helvetica,sans-Serif" font-size="10.00">src/cells/DiffCell.cpp</text>
</a>
</g>
</g>
<!-- Node1&#45;&gt;Node7 -->
<g id="edge6" class="edge">
<title>Node1&#45;&gt;Node7</title>
<path fill="none" stroke="midnightblue" d="M2134.15,-75.37C1901.17,-72.88 1107,-62.23 855,-31 844.13,-29.65 832.42,-27.4 821.88,-25.07"/>
<polygon fill="midnightblue" stroke="midnightblue" points="2134.45,-78.88 2144.49,-75.48 2134.53,-71.88 2134.45,-78.88"/>
</g>
<!-- Node8 -->
<g id="node8" class="node">
<title>Node8</title>
<g id="a_node8"><a xlink:href="DigitCell_8cpp.html" target="_top" xlink:title="This file defines the class DigitCell.">
<polygon fill="white" stroke="black" points="864,-6 864,-25 986,-25 986,-6 864,-6"/>
<text text-anchor="middle" x="925" y="-13" font-family="Helvetica,sans-Serif" font-size="10.00">src/cells/DigitCell.cpp</text>
</a>
</g>
</g>
<!-- Node1&#45;&gt;Node8 -->
<g id="edge7" class="edge">
<title>Node1&#45;&gt;Node8</title>
<path fill="none" stroke="midnightblue" d="M2134.1,-75C1917.19,-71.45 1218.46,-58.13 995,-31 983.67,-29.62 971.44,-27.36 960.42,-25.03"/>
<polygon fill="midnightblue" stroke="midnightblue" points="2134.31,-78.51 2144.37,-75.17 2134.43,-71.51 2134.31,-78.51"/>
</g>
<!-- Node9 -->
<g id="node9" class="node">
<title>Node9</title>
<g id="a_node9"><a xlink:href="EditorCell_8cpp.html" target="_top" xlink:title="This file defines the class EditorCell.">
<polygon fill="white" stroke="black" points="1004.5,-6 1004.5,-25 1131.5,-25 1131.5,-6 1004.5,-6"/>
<text text-anchor="middle" x="1068" y="-13" font-family="Helvetica,sans-Serif" font-size="10.00">src/cells/EditorCell.cpp</text>
</a>
</g>
</g>
<!-- Node1&#45;&gt;Node9 -->
<g id="edge8" class="edge">
<title>Node1&#45;&gt;Node9</title>
<path fill="none" stroke="midnightblue" d="M2134.21,-76.69C1968.36,-77.73 1515.13,-75.84 1141,-31 1129.33,-29.6 1116.73,-27.36 1105.34,-25.06"/>
<polygon fill="midnightblue" stroke="midnightblue" points="2134.28,-80.19 2144.25,-76.63 2134.23,-73.19 2134.28,-80.19"/>
</g>
<!-- Node10 -->
<g id="node10" class="node">
<title>Node10</title>
<g id="a_node10"><a xlink:href="ExptCell_8cpp.html" target="_top" xlink:title="This file defines the class ExptCell.">
<polygon fill="white" stroke="black" points="1150,-6 1150,-25 1270,-25 1270,-6 1150,-6"/>
<text text-anchor="middle" x="1210" y="-13" font-family="Helvetica,sans-Serif" font-size="10.00">src/cells/ExptCell.cpp</text>
</a>
</g>
</g>
<!-- Node1&#45;&gt;Node10 -->
<g id="edge9" class="edge">
<title>Node1&#45;&gt;Node10</title>
<path fill="none" stroke="midnightblue" d="M2134.29,-76.34C1983.63,-76.38 1598,-72.06 1279,-31 1267.95,-29.58 1256.04,-27.33 1245.27,-25.03"/>
<polygon fill="midnightblue" stroke="midnightblue" points="2134.3,-79.84 2144.29,-76.33 2134.29,-72.84 2134.3,-79.84"/>
</g>
<!-- Node11 -->
<g id="node11" class="node">
<title>Node11</title>
<g id="a_node11"><a xlink:href="FracCell_8cpp.html" target="_top" xlink:title="This file defines the class FracCell.">
<polygon fill="white" stroke="black" points="1288.5,-6 1288.5,-25 1407.5,-25 1407.5,-6 1288.5,-6"/>
<text text-anchor="middle" x="1348" y="-13" font-family="Helvetica,sans-Serif" font-size="10.00">src/cells/FracCell.cpp</text>
</a>
</g>
</g>
<!-- Node1&#45;&gt;Node11 -->
<g id="edge10" class="edge">
<title>Node1&#45;&gt;Node11</title>
<path fill="none" stroke="midnightblue" d="M2134.09,-75.54C1999.7,-73.87 1681.4,-66.19 1417,-31 1406.08,-29.55 1394.31,-27.32 1383.64,-25.05"/>
<polygon fill="midnightblue" stroke="midnightblue" points="2134.18,-79.04 2144.22,-75.66 2134.26,-72.04 2134.18,-79.04"/>
</g>
<!-- Node12 -->
<g id="node12" class="node">
<title>Node12</title>
<g id="a_node12"><a xlink:href="FunCell_8cpp.html" target="_top" xlink:title="This file defines the class FunCell.">
<polygon fill="white" stroke="black" points="1426,-6 1426,-25 1542,-25 1542,-6 1426,-6"/>
<text text-anchor="middle" x="1484" y="-13" font-family="Helvetica,sans-Serif" font-size="10.00">src/cells/FunCell.cpp</text>
</a>
</g>
</g>
<!-- Node1&#45;&gt;Node12 -->
<g id="edge11" class="edge">
<title>Node1&#45;&gt;Node12</title>
<path fill="none" stroke="midnightblue" d="M2133.87,-74.57C2016.72,-71.32 1762.88,-61.12 1551,-31 1540.51,-29.51 1529.22,-27.3 1518.95,-25.06"/>
<polygon fill="midnightblue" stroke="midnightblue" points="2134.01,-78.08 2144.1,-74.85 2134.2,-71.08 2134.01,-78.08"/>
</g>
<!-- Node13 -->
<g id="node13" class="node">
<title>Node13</title>
<g id="a_node13"><a xlink:href="ImgCell_8cpp.html" target="_top" xlink:title="This file defines the class ImgCell.">
<polygon fill="white" stroke="black" points="1560.5,-6 1560.5,-25 1677.5,-25 1677.5,-6 1560.5,-6"/>
<text text-anchor="middle" x="1619" y="-13" font-family="Helvetica,sans-Serif" font-size="10.00">src/cells/ImgCell.cpp</text>
</a>
</g>
</g>
<!-- Node1&#45;&gt;Node13 -->
<g id="edge12" class="edge">
<title>Node1&#45;&gt;Node13</title>
<path fill="none" stroke="midnightblue" d="M2134.19,-72.85C2036.72,-67.54 1846.8,-54.97 1687,-31 1676.5,-29.42 1665.18,-27.22 1654.85,-25"/>
<polygon fill="midnightblue" stroke="midnightblue" points="2134.01,-76.35 2144.18,-73.39 2134.38,-69.36 2134.01,-76.35"/>
</g>
<!-- Node14 -->
<g id="node14" class="node">
<title>Node14</title>
<g id="a_node14"><a xlink:href="GroupCell_8cpp.html" target="_top" xlink:title="This file defines the class GroupCell.">
<polygon fill="white" stroke="black" points="1696,-6 1696,-25 1824,-25 1824,-6 1696,-6"/>
<text text-anchor="middle" x="1760" y="-13" font-family="Helvetica,sans-Serif" font-size="10.00">src/cells/GroupCell.cpp</text>
</a>
</g>
</g>
<!-- Node1&#45;&gt;Node14 -->
<g id="edge13" class="edge">
<title>Node1&#45;&gt;Node14</title>
<path fill="none" stroke="midnightblue" d="M2134.25,-69.5C2060.94,-61.8 1938.05,-47.87 1833,-31 1822.28,-29.28 1810.74,-27.13 1800.07,-25.01"/>
<polygon fill="midnightblue" stroke="midnightblue" points="2133.95,-72.99 2144.26,-70.54 2134.67,-66.02 2133.95,-72.99"/>
</g>
<!-- Node15 -->
<g id="node15" class="node">
<title>Node15</title>
<g id="a_node15"><a xlink:href="ImgCellBase_8cpp.html" target="_top" xlink:title="This file defines the class ImgCellBase.">
<polygon fill="white" stroke="black" points="1842.5,-6 1842.5,-25 1983.5,-25 1983.5,-6 1842.5,-6"/>
<text text-anchor="middle" x="1913" y="-13" font-family="Helvetica,sans-Serif" font-size="10.00">src/cells/ImgCellBase.cpp</text>
</a>
</g>
</g>
<!-- Node1&#45;&gt;Node15 -->
<g id="edge14" class="edge">
<title>Node1&#45;&gt;Node15</title>
<path fill="none" stroke="midnightblue" d="M2148.06,-65.4C2092.61,-53.87 2005.05,-35.65 1953.9,-25.01"/>
<polygon fill="midnightblue" stroke="midnightblue" points="2147.52,-68.86 2158.02,-67.48 2148.95,-62.01 2147.52,-68.86"/>
</g>
<!-- Node16 -->
<g id="node16" class="node">
<title>Node16</title>
<g id="a_node16"><a xlink:href="IntCell_8cpp.html" target="_top" xlink:title="This file defines the class IntCell.">
<polygon fill="white" stroke="black" points="2001.5,-6 2001.5,-25 2112.5,-25 2112.5,-6 2001.5,-6"/>
<text text-anchor="middle" x="2057" y="-13" font-family="Helvetica,sans-Serif" font-size="10.00">src/cells/IntCell.cpp</text>
</a>
</g>
</g>
<!-- Node1&#45;&gt;Node16 -->
<g id="edge15" class="edge">
<title>Node1&#45;&gt;Node16</title>
<path fill="none" stroke="midnightblue" d="M2169.12,-63.48C2141.54,-51.92 2101.33,-35.08 2077.31,-25.01"/>
<polygon fill="midnightblue" stroke="midnightblue" points="2168.08,-66.84 2178.65,-67.48 2170.78,-60.38 2168.08,-66.84"/>
</g>
<!-- Node17 -->
<g id="node17" class="node">
<title>Node17</title>
<g id="a_node17"><a xlink:href="IntervalCell_8cpp.html" target="_top" xlink:title="This file defines the class IntervalCell.">
<polygon fill="white" stroke="black" points="2131,-6 2131,-25 2267,-25 2267,-6 2131,-6"/>
<text text-anchor="middle" x="2199" y="-13" font-family="Helvetica,sans-Serif" font-size="10.00">src/cells/IntervalCell.cpp</text>
</a>
</g>
</g>
<!-- Node1&#45;&gt;Node17 -->
<g id="edge16" class="edge">
<title>Node1&#45;&gt;Node17</title>
<path fill="none" stroke="midnightblue" d="M2199,-57.32C2199,-46.5 2199,-33.4 2199,-25.01"/>
<polygon fill="midnightblue" stroke="midnightblue" points="2195.5,-57.48 2199,-67.48 2202.5,-57.48 2195.5,-57.48"/>
</g>
<!-- Node18 -->
<g id="node18" class="node">
<title>Node18</title>
<g id="a_node18"><a xlink:href="LimitCell_8cpp.html" target="_top" xlink:title="This file defines the class LimitCell.">
<polygon fill="white" stroke="black" points="2285.5,-6 2285.5,-25 2408.5,-25 2408.5,-6 2285.5,-6"/>
<text text-anchor="middle" x="2347" y="-13" font-family="Helvetica,sans-Serif" font-size="10.00">src/cells/LimitCell.cpp</text>
</a>
</g>
</g>
<!-- Node1&#45;&gt;Node18 -->
<g id="edge17" class="edge">
<title>Node1&#45;&gt;Node18</title>
<path fill="none" stroke="midnightblue" d="M2229.77,-63.63C2258.52,-52.07 2300.68,-35.12 2325.83,-25.01"/>
<polygon fill="midnightblue" stroke="midnightblue" points="2228.18,-60.5 2220.2,-67.48 2230.79,-66.99 2228.18,-60.5"/>
</g>
<!-- Node19 -->
<g id="node19" class="node">
<title>Node19</title>
<g id="a_node19"><a xlink:href="ListCell_8cpp.html" target="_top" xlink:title="This file defines the class ListCell.">
<polygon fill="white" stroke="black" points="2427,-6 2427,-25 2543,-25 2543,-6 2427,-6"/>
<text text-anchor="middle" x="2485" y="-13" font-family="Helvetica,sans-Serif" font-size="10.00">src/cells/ListCell.cpp</text>
</a>
</g>
</g>
<!-- Node1&#45;&gt;Node19 -->
<g id="edge18" class="edge">
<title>Node1&#45;&gt;Node19</title>
<path fill="none" stroke="midnightblue" d="M2251.4,-65.39C2295.78,-56.37 2361.1,-43 2418,-31 2427.08,-29.08 2436.85,-26.99 2446.04,-25"/>
<polygon fill="midnightblue" stroke="midnightblue" points="2250.52,-62 2241.42,-67.42 2251.92,-68.86 2250.52,-62"/>
</g>
<!-- Node20 -->
<g id="node20" class="node">
<title>Node20</title>
<g id="a_node20"><a xlink:href="LongNumberCell_8cpp.html" target="_top" xlink:title="This file defines the class LongNumberCell.">
<polygon fill="white" stroke="black" points="2561.5,-6 2561.5,-25 2722.5,-25 2722.5,-6 2561.5,-6"/>
<text text-anchor="middle" x="2642" y="-13" font-family="Helvetica,sans-Serif" font-size="10.00">src/cells/LongNumberCell.cpp</text>
</a>
</g>
</g>
<!-- Node1&#45;&gt;Node20 -->
<g id="edge19" class="edge">
<title>Node1&#45;&gt;Node20</title>
<path fill="none" stroke="midnightblue" d="M2263.61,-68.41C2334.46,-59.94 2451.46,-45.5 2552,-31 2564.53,-29.19 2578.02,-27.1 2590.64,-25.07"/>
<polygon fill="midnightblue" stroke="midnightblue" points="2263.02,-64.96 2253.5,-69.62 2263.85,-71.91 2263.02,-64.96"/>
</g>
<!-- Node21 -->
<g id="node21" class="node">
<title>Node21</title>
<g id="a_node21"><a xlink:href="MatrCell_8cpp.html" target="_top" xlink:title="This file defines the class MatrCell.">
<polygon fill="white" stroke="black" points="2740.5,-6 2740.5,-25 2861.5,-25 2861.5,-6 2740.5,-6"/>
<text text-anchor="middle" x="2801" y="-13" font-family="Helvetica,sans-Serif" font-size="10.00">src/cells/MatrCell.cpp</text>
</a>
</g>
</g>
<!-- Node1&#45;&gt;Node21 -->
<g id="edge20" class="edge">
<title>Node1&#45;&gt;Node21</title>
<path fill="none" stroke="midnightblue" d="M2263.74,-73.1C2364.35,-68.03 2564.11,-55.63 2732,-31 2742.66,-29.44 2754.14,-27.23 2764.62,-25.02"/>
<polygon fill="midnightblue" stroke="midnightblue" points="2263.55,-69.61 2253.73,-73.6 2263.89,-76.6 2263.55,-69.61"/>
</g>
<!-- Node22 -->
<g id="node22" class="node">
<title>Node22</title>
<g id="a_node22"><a xlink:href="NamedBoxCell_8cpp.html" target="_top" xlink:title="This file defines the class NamedBoxCell.">
<polygon fill="white" stroke="black" points="2880,-6 2880,-25 3032,-25 3032,-6 2880,-6"/>
<text text-anchor="middle" x="2956" y="-13" font-family="Helvetica,sans-Serif" font-size="10.00">src/cells/NamedBoxCell.cpp</text>
</a>
</g>
</g>
<!-- Node1&#45;&gt;Node22 -->
<g id="edge21" class="edge">
<title>Node1&#45;&gt;Node22</title>
<path fill="none" stroke="midnightblue" d="M2263.74,-73.86C2383.81,-69.41 2649.01,-57.3 2871,-31 2884.08,-29.45 2898.21,-27.25 2911.13,-25.04"/>
<polygon fill="midnightblue" stroke="midnightblue" points="2263.48,-70.37 2253.61,-74.23 2263.74,-77.37 2263.48,-70.37"/>
</g>
<!-- Node23 -->
<g id="node23" class="node">
<title>Node23</title>
<g id="a_node23"><a xlink:href="ParenCell_8cpp.html" target="_top" xlink:title="This file defines the class ParenCell.">
<polygon fill="white" stroke="black" points="3050.5,-6 3050.5,-25 3175.5,-25 3175.5,-6 3050.5,-6"/>
<text text-anchor="middle" x="3113" y="-13" font-family="Helvetica,sans-Serif" font-size="10.00">src/cells/ParenCell.cpp</text>
</a>
</g>
</g>
<!-- Node1&#45;&gt;Node23 -->
<g id="edge22" class="edge">
<title>Node1&#45;&gt;Node23</title>
<path fill="none" stroke="midnightblue" d="M2264.18,-75.73C2406.01,-74.45 2753.03,-67.5 3041,-31 3052.38,-29.56 3064.66,-27.34 3075.8,-25.06"/>
<polygon fill="midnightblue" stroke="midnightblue" points="2263.89,-72.24 2253.92,-75.82 2263.95,-79.24 2263.89,-72.24"/>
</g>
<!-- Node24 -->
<g id="node24" class="node">
<title>Node24</title>
<g id="a_node24"><a xlink:href="ProductCell_8cpp.html" target="_top" xlink:title="This file defines the class ProductCell.">
<polygon fill="white" stroke="black" points="3193.5,-6 3193.5,-25 3328.5,-25 3328.5,-6 3193.5,-6"/>
<text text-anchor="middle" x="3261" y="-13" font-family="Helvetica,sans-Serif" font-size="10.00">src/cells/ProductCell.cpp</text>
</a>
</g>
</g>
<!-- Node1&#45;&gt;Node24 -->
<g id="edge23" class="edge">
<title>Node1&#45;&gt;Node24</title>
<path fill="none" stroke="midnightblue" d="M2263.76,-76.24C2421.78,-76.12 2839.45,-71.64 3185,-31 3197.14,-29.57 3210.25,-27.33 3222.11,-25.03"/>
<polygon fill="midnightblue" stroke="midnightblue" points="2263.74,-72.74 2253.74,-76.24 2263.74,-79.74 2263.74,-72.74"/>
</g>
<!-- Node25 -->
<g id="node25" class="node">
<title>Node25</title>
<g id="a_node25"><a xlink:href="SetCell_8cpp.html" target="_top" xlink:title="This file defines the class SetCell.">
<polygon fill="white" stroke="black" points="3347,-6 3347,-25 3461,-25 3461,-6 3347,-6"/>
<text text-anchor="middle" x="3404" y="-13" font-family="Helvetica,sans-Serif" font-size="10.00">src/cells/SetCell.cpp</text>
</a>
</g>
</g>
<!-- Node1&#45;&gt;Node25 -->
<g id="edge24" class="edge">
<title>Node1&#45;&gt;Node25</title>
<path fill="none" stroke="midnightblue" d="M2263.92,-74.94C2473.09,-71.31 3127.97,-58.01 3338,-31 3348.7,-29.62 3360.24,-27.36 3370.63,-25.03"/>
<polygon fill="midnightblue" stroke="midnightblue" points="2263.65,-71.45 2253.71,-75.12 2263.77,-78.45 2263.65,-71.45"/>
</g>
<!-- Node26 -->
<g id="node26" class="node">
<title>Node26</title>
<g id="a_node26"><a xlink:href="LabelCell_8cpp.html" target="_top" xlink:title="This file defines the class LabelCell.">
<polygon fill="white" stroke="black" points="3479.5,-6 3479.5,-25 3604.5,-25 3604.5,-6 3479.5,-6"/>
<text text-anchor="middle" x="3542" y="-13" font-family="Helvetica,sans-Serif" font-size="10.00">src/cells/LabelCell.cpp</text>
</a>
</g>
</g>
<!-- Node1&#45;&gt;Node26 -->
<g id="edge25" class="edge">
<title>Node1&#45;&gt;Node26</title>
<path fill="none" stroke="midnightblue" d="M2264.06,-75.1C2488.97,-71.78 3232.82,-58.89 3470,-31 3481.65,-29.63 3494.23,-27.37 3505.56,-25.04"/>
<polygon fill="midnightblue" stroke="midnightblue" points="2263.69,-71.61 2253.74,-75.25 2263.79,-78.61 2263.69,-71.61"/>
</g>
<!-- Node27 -->
<g id="node27" class="node">
<title>Node27</title>
<g id="a_node27"><a xlink:href="SqrtCell_8cpp.html" target="_top" xlink:title="This file defines the class SqrtCell.">
<polygon fill="white" stroke="black" points="3623,-6 3623,-25 3741,-25 3741,-6 3623,-6"/>
<text text-anchor="middle" x="3682" y="-13" font-family="Helvetica,sans-Serif" font-size="10.00">src/cells/SqrtCell.cpp</text>
</a>
</g>
</g>
<!-- Node1&#45;&gt;Node27 -->
<g id="edge26" class="edge">
<title>Node1&#45;&gt;Node27</title>
<path fill="none" stroke="midnightblue" d="M2264.03,-75.47C2505.08,-73.27 3347.44,-63.4 3614,-31 3625.14,-29.65 3637.17,-27.36 3647.96,-25"/>
<polygon fill="midnightblue" stroke="midnightblue" points="2263.65,-71.97 2253.68,-75.56 2263.71,-78.97 2263.65,-71.97"/>
</g>
<!-- Node28 -->
<g id="node28" class="node">
<title>Node28</title>
<g id="a_node28"><a xlink:href="SubCell_8cpp.html" target="_top" xlink:title="This file defines the class SubCell.">
<polygon fill="white" stroke="black" points="3759,-6 3759,-25 3875,-25 3875,-6 3759,-6"/>
<text text-anchor="middle" x="3817" y="-13" font-family="Helvetica,sans-Serif" font-size="10.00">src/cells/SubCell.cpp</text>
</a>
</g>
</g>
<!-- Node1&#45;&gt;Node28 -->
<g id="edge27" class="edge">
<title>Node1&#45;&gt;Node28</title>
<path fill="none" stroke="midnightblue" d="M2263.82,-75.71C2519.09,-74.32 3455.42,-66.84 3750,-31 3760.99,-29.66 3772.83,-27.38 3783.47,-25.02"/>
<polygon fill="midnightblue" stroke="midnightblue" points="2263.58,-72.21 2253.6,-75.76 2263.62,-79.21 2263.58,-72.21"/>
</g>
<!-- Node29 -->
<g id="node29" class="node">
<title>Node29</title>
<g id="a_node29"><a xlink:href="SubSupCell_8cpp.html" target="_top" xlink:title="This file defines the class SubSupCell.">
<polygon fill="white" stroke="black" points="3893,-6 3893,-25 4027,-25 4027,-6 3893,-6"/>
<text text-anchor="middle" x="3960" y="-13" font-family="Helvetica,sans-Serif" font-size="10.00">src/cells/SubSupCell.cpp</text>
</a>
</g>
</g>
<!-- Node1&#45;&gt;Node29 -->
<g id="edge28" class="edge">
<title>Node1&#45;&gt;Node29</title>
<path fill="none" stroke="midnightblue" d="M2263.95,-75.67C2533.05,-74.09 3561.36,-65.85 3884,-31 3896.42,-29.66 3909.85,-27.38 3921.91,-25.02"/>
<polygon fill="midnightblue" stroke="midnightblue" points="2263.56,-72.17 2253.58,-75.73 2263.6,-79.17 2263.56,-72.17"/>
</g>
<!-- Node30 -->
<g id="node30" class="node">
<title>Node30</title>
<g id="a_node30"><a xlink:href="SumCell_8cpp.html" target="_top" xlink:title="This file defines the class SumCell.">
<polygon fill="white" stroke="black" points="4045,-6 4045,-25 4165,-25 4165,-6 4045,-6"/>
<text text-anchor="middle" x="4105" y="-13" font-family="Helvetica,sans-Serif" font-size="10.00">src/cells/SumCell.cpp</text>
</a>
</g>
</g>
<!-- Node1&#45;&gt;Node30 -->
<g id="edge29" class="edge">
<title>Node1&#45;&gt;Node30</title>
<path fill="none" stroke="midnightblue" d="M2263.7,-76C2547.28,-75.75 3682.1,-72.17 4036,-31 4047.31,-29.68 4059.51,-27.41 4070.46,-25.05"/>
<polygon fill="midnightblue" stroke="midnightblue" points="2263.57,-72.5 2253.58,-76.01 2263.58,-79.5 2263.57,-72.5"/>
</g>
<!-- Node31 -->
<g id="node31" class="node">
<title>Node31</title>
<g id="a_node31"><a xlink:href="TextCell_8cpp.html" target="_top" xlink:title="This file defines the class TextCell.">
<polygon fill="white" stroke="black" points="4183.5,-6 4183.5,-25 4302.5,-25 4302.5,-6 4183.5,-6"/>
<text text-anchor="middle" x="4243" y="-13" font-family="Helvetica,sans-Serif" font-size="10.00">src/cells/TextCell.cpp</text>
</a>
</g>
</g>
<!-- Node1&#45;&gt;Node31 -->
<g id="edge30" class="edge">
<title>Node1&#45;&gt;Node31</title>
<path fill="none" stroke="midnightblue" d="M2264.12,-76.13C2561.42,-76.47 3791.62,-75.15 4174,-31 4185.31,-29.69 4197.51,-27.42 4208.46,-25.06"/>
<polygon fill="midnightblue" stroke="midnightblue" points="2263.95,-72.63 2253.94,-76.12 2263.94,-79.63 2263.95,-72.63"/>
</g>
<!-- Node32 -->
<g id="node32" class="node">
<title>Node32</title>
<g id="a_node32"><a xlink:href="VisiblyInvalidCell_8cpp.html" target="_top" xlink:title="This file defines the class VisiblyInvalidCell.">
<polygon fill="white" stroke="black" points="4320.5,-0.5 4320.5,-30.5 4445.5,-30.5 4445.5,-0.5 4320.5,-0.5"/>
<text text-anchor="start" x="4328.5" y="-18.5" font-family="Helvetica,sans-Serif" font-size="10.00">src/cells/VisiblyInvalid</text>
<text text-anchor="middle" x="4383" y="-7.5" font-family="Helvetica,sans-Serif" font-size="10.00">Cell.cpp</text>
</a>
</g>
</g>
<!-- Node1&#45;&gt;Node32 -->
<g id="edge31" class="edge">
<title>Node1&#45;&gt;Node32</title>
<path fill="none" stroke="midnightblue" d="M2264.06,-76.19C2573.79,-76.87 3900.74,-76.99 4312,-31 4314.75,-30.69 4317.55,-30.33 4320.38,-29.93"/>
<polygon fill="midnightblue" stroke="midnightblue" points="2263.92,-72.69 2253.91,-76.17 2263.9,-79.69 2263.92,-72.69"/>
</g>
</g>
</svg>
