<?xml version="1.0" encoding="UTF-8" standalone="no"?>
<!DOCTYPE svg PUBLIC "-//W3C//DTD SVG 1.1//EN"
 "http://www.w3.org/Graphics/SVG/1.1/DTD/svg11.dtd">
<!-- Generated by graphviz version 2.43.0 (0)
 -->
<!-- Title: src/cells/CellImpl.h Pages: 1 -->
<svg width="4452pt" height="95pt"
 viewBox="0.00 0.00 4451.50 95.00" xmlns="http://www.w3.org/2000/svg" xmlns:xlink="http://www.w3.org/1999/xlink">
<g id="graph0" class="graph" transform="scale(1 1) rotate(0) translate(4 91)">
<title>src/cells/CellImpl.h</title>
<polygon fill="white" stroke="transparent" points="-4,4 -4,-91 4447.5,-91 4447.5,4 -4,4"/>
<!-- Node1 -->
<g id="node1" class="node">
<title>Node1</title>
<g id="a_node1"><a xlink:title="Macros and types used only by cell implementations, not by cell users.">
<polygon fill="#bfbfbf" stroke="black" points="2143.5,-67.5 2143.5,-86.5 2252.5,-86.5 2252.5,-67.5 2143.5,-67.5"/>
<text text-anchor="middle" x="2198" y="-74.5" font-family="Helvetica,sans-Serif" font-size="10.00">src/cells/CellImpl.h</text>
</a>
</g>
</g>
<!-- Node2 -->
<g id="node2" class="node">
<title>Node2</title>
<g id="a_node2"><a xlink:href="AbsCell_8cpp.html" target="_top" xlink:title="This file defines the class AbsCell.">
<polygon fill="white" stroke="black" points="0,-6 0,-25 116,-25 116,-6 0,-6"/>
<text text-anchor="middle" x="58" y="-13" font-family="Helvetica,sans-Serif" font-size="10.00">src/cells/AbsCell.cpp</text>
</a>
</g>
</g>
<!-- Node1&#45;&gt;Node2 -->
<g id="edge1" class="edge">
<title>Node1&#45;&gt;Node2</title>
<path fill="none" stroke="midnightblue" d="M2133.15,-76.26C1827.39,-77.25 527.75,-78.51 125,-31 114.01,-29.7 102.16,-27.44 91.53,-25.07"/>
<polygon fill="midnightblue" stroke="midnightblue" points="2133.2,-79.76 2143.18,-76.23 2133.17,-72.76 2133.2,-79.76"/>
</g>
<!-- Node3 -->
<g id="node3" class="node">
<title>Node3</title>
<g id="a_node3"><a xlink:href="AnimationCell_8cpp.html" target="_top" xlink:title="This file defines the class AnimationCell.">
<polygon fill="white" stroke="black" points="134.5,-6 134.5,-25 283.5,-25 283.5,-6 134.5,-6"/>
<text text-anchor="middle" x="209" y="-13" font-family="Helvetica,sans-Serif" font-size="10.00">src/cells/AnimationCell.cpp</text>
</a>
</g>
</g>
<!-- Node1&#45;&gt;Node3 -->
<g id="edge2" class="edge">
<title>Node1&#45;&gt;Node3</title>
<path fill="none" stroke="midnightblue" d="M2132.84,-75.77C1842.02,-74.54 660.69,-67.35 292,-31 278.46,-29.67 263.81,-27.39 250.63,-25.03"/>
<polygon fill="midnightblue" stroke="midnightblue" points="2133.2,-79.27 2143.22,-75.81 2133.23,-72.27 2133.2,-79.27"/>
</g>
<!-- Node4 -->
<g id="node4" class="node">
<title>Node4</title>
<g id="a_node4"><a xlink:href="AtCell_8cpp.html" target="_top" xlink:title="This file defines the class AtCell.">
<polygon fill="white" stroke="black" points="301.5,-6 301.5,-25 410.5,-25 410.5,-6 301.5,-6"/>
<text text-anchor="middle" x="356" y="-13" font-family="Helvetica,sans-Serif" font-size="10.00">src/cells/AtCell.cpp</text>
</a>
</g>
</g>
<!-- Node1&#45;&gt;Node4 -->
<g id="edge3" class="edge">
<title>Node1&#45;&gt;Node4</title>
<path fill="none" stroke="midnightblue" d="M2133.08,-76.1C1854.67,-76.28 760.4,-74.16 419,-31 408.64,-29.69 397.5,-27.42 387.5,-25.06"/>
<polygon fill="midnightblue" stroke="midnightblue" points="2133.41,-79.6 2143.41,-76.1 2133.41,-72.6 2133.41,-79.6"/>
</g>
<!-- Node5 -->
<g id="node5" class="node">
<title>Node5</title>
<g id="a_node5"><a xlink:href="BoxCell_8cpp.html" target="_top" xlink:title="This file defines the class BoxCell.">
<polygon fill="white" stroke="black" points="428.5,-6 428.5,-25 545.5,-25 545.5,-6 428.5,-6"/>
<text text-anchor="middle" x="487" y="-13" font-family="Helvetica,sans-Serif" font-size="10.00">src/cells/BoxCell.cpp</text>
</a>
</g>
</g>
<!-- Node1&#45;&gt;Node5 -->
<g id="edge4" class="edge">
<title>Node1&#45;&gt;Node5</title>
<path fill="none" stroke="midnightblue" d="M2132.88,-75.81C1867.71,-74.77 868.51,-68.4 555,-31 543.85,-29.67 531.83,-27.39 521.04,-25.03"/>
<polygon fill="midnightblue" stroke="midnightblue" points="2133.1,-79.31 2143.11,-75.84 2133.13,-72.31 2133.1,-79.31"/>
</g>
<!-- Node6 -->
<g id="node6" class="node">
<title>Node6</title>
<g id="a_node6"><a xlink:href="ConjugateCell_8cpp.html" target="_top" xlink:title="This file defines the class ConjugateCell.">
<polygon fill="white" stroke="black" points="564,-6 564,-25 712,-25 712,-6 564,-6"/>
<text text-anchor="middle" x="638" y="-13" font-family="Helvetica,sans-Serif" font-size="10.00">src/cells/ConjugateCell.cpp</text>
</a>
</g>
</g>
<!-- Node1&#45;&gt;Node6 -->
<g id="edge5" class="edge">
<title>Node1&#45;&gt;Node6</title>
<path fill="none" stroke="midnightblue" d="M2133.06,-75.25C1885.51,-72.22 1000.91,-59.57 721,-31 707.61,-29.63 693.13,-27.38 680.06,-25.05"/>
<polygon fill="midnightblue" stroke="midnightblue" points="2133.29,-78.76 2143.33,-75.38 2133.37,-71.76 2133.29,-78.76"/>
</g>
<!-- Node7 -->
<g id="node7" class="node">
<title>Node7</title>
<g id="a_node7"><a xlink:href="DiffCell_8cpp.html" target="_top" xlink:title="This file defines the class DiffCell.">
<polygon fill="white" stroke="black" points="730,-6 730,-25 846,-25 846,-6 730,-6"/>
<text text-anchor="middle" x="788" y="-13" font-family="Helvetica,sans-Serif" font-size="10.00">src/cells/DiffCell.cpp</text>
</a>
</g>
</g>
<!-- Node1&#45;&gt;Node7 -->
<g id="edge6" class="edge">
<title>Node1&#45;&gt;Node7</title>
<path fill="none" stroke="midnightblue" d="M2133.15,-75.37C1900.28,-72.87 1106.8,-62.21 855,-31 844.13,-29.65 832.42,-27.4 821.88,-25.07"/>
<polygon fill="midnightblue" stroke="midnightblue" points="2133.12,-78.87 2143.16,-75.48 2133.2,-71.87 2133.12,-78.87"/>
</g>
<!-- Node8 -->
<g id="node8" class="node">
<title>Node8</title>
<g id="a_node8"><a xlink:href="DigitCell_8cpp.html" target="_top" xlink:title="This file defines the class DigitCell.">
<polygon fill="white" stroke="black" points="864,-6 864,-25 986,-25 986,-6 864,-6"/>
<text text-anchor="middle" x="925" y="-13" font-family="Helvetica,sans-Serif" font-size="10.00">src/cells/DigitCell.cpp</text>
</a>
</g>
</g>
<!-- Node1&#45;&gt;Node8 -->
<g id="edge7" class="edge">
<title>Node1&#45;&gt;Node8</title>
<path fill="none" stroke="midnightblue" d="M2133.16,-75C1916.42,-71.44 1218.27,-58.11 995,-31 983.67,-29.62 971.44,-27.36 960.42,-25.03"/>
<polygon fill="midnightblue" stroke="midnightblue" points="2133.36,-78.51 2143.41,-75.17 2133.47,-71.51 2133.36,-78.51"/>
</g>
<!-- Node9 -->
<g id="node9" class="node">
<title>Node9</title>
<g id="a_node9"><a xlink:href="EditorCell_8cpp.html" target="_top" xlink:title="This file defines the class EditorCell.">
<polygon fill="white" stroke="black" points="1004.5,-6 1004.5,-25 1131.5,-25 1131.5,-6 1004.5,-6"/>
<text text-anchor="middle" x="1068" y="-13" font-family="Helvetica,sans-Serif" font-size="10.00">src/cells/EditorCell.cpp</text>
</a>
</g>
</g>
<!-- Node1&#45;&gt;Node9 -->
<g id="edge8" class="edge">
<title>Node1&#45;&gt;Node9</title>
<path fill="none" stroke="midnightblue" d="M2133.28,-76.69C1967.58,-77.71 1514.78,-75.81 1141,-31 1129.33,-29.6 1116.73,-27.36 1105.34,-25.06"/>
<polygon fill="midnightblue" stroke="midnightblue" points="2133.33,-80.19 2143.3,-76.62 2133.28,-73.19 2133.33,-80.19"/>
</g>
<!-- Node10 -->
<g id="node10" class="node">
<title>Node10</title>
<g id="a_node10"><a xlink:href="ExptCell_8cpp.html" target="_top" xlink:title="This file defines the class ExptCell.">
<polygon fill="white" stroke="black" points="1150,-6 1150,-25 1270,-25 1270,-6 1150,-6"/>
<text text-anchor="middle" x="1210" y="-13" font-family="Helvetica,sans-Serif" font-size="10.00">src/cells/ExptCell.cpp</text>
</a>
</g>
</g>
<!-- Node1&#45;&gt;Node10 -->
<g id="edge9" class="edge">
<title>Node1&#45;&gt;Node10</title>
<path fill="none" stroke="midnightblue" d="M2132.9,-76.34C1982.09,-76.35 1597.33,-71.98 1279,-31 1267.95,-29.58 1256.04,-27.33 1245.27,-25.03"/>
<polygon fill="midnightblue" stroke="midnightblue" points="2133.36,-79.84 2143.35,-76.33 2133.35,-72.84 2133.36,-79.84"/>
</g>
<!-- Node11 -->
<g id="node11" class="node">
<title>Node11</title>
<g id="a_node11"><a xlink:href="FracCell_8cpp.html" target="_top" xlink:title="This file defines the class FracCell.">
<polygon fill="white" stroke="black" points="1288.5,-6 1288.5,-25 1407.5,-25 1407.5,-6 1288.5,-6"/>
<text text-anchor="middle" x="1348" y="-13" font-family="Helvetica,sans-Serif" font-size="10.00">src/cells/FracCell.cpp</text>
</a>
</g>
</g>
<!-- Node1&#45;&gt;Node11 -->
<g id="edge10" class="edge">
<title>Node1&#45;&gt;Node11</title>
<path fill="none" stroke="midnightblue" d="M2133.18,-75.54C1998.95,-73.85 1681.06,-66.15 1417,-31 1406.08,-29.55 1394.31,-27.32 1383.64,-25.05"/>
<polygon fill="midnightblue" stroke="midnightblue" points="2133.25,-79.04 2143.29,-75.65 2133.33,-72.04 2133.25,-79.04"/>
</g>
<!-- Node12 -->
<g id="node12" class="node">
<title>Node12</title>
<g id="a_node12"><a xlink:href="FunCell_8cpp.html" target="_top" xlink:title="This file defines the class FunCell.">
<polygon fill="white" stroke="black" points="1426,-6 1426,-25 1542,-25 1542,-6 1426,-6"/>
<text text-anchor="middle" x="1484" y="-13" font-family="Helvetica,sans-Serif" font-size="10.00">src/cells/FunCell.cpp</text>
</a>
</g>
</g>
<!-- Node1&#45;&gt;Node12 -->
<g id="edge11" class="edge">
<title>Node1&#45;&gt;Node12</title>
<path fill="none" stroke="midnightblue" d="M2132.98,-74.56C2016,-71.3 1762.55,-61.09 1551,-31 1540.51,-29.51 1529.22,-27.3 1518.95,-25.06"/>
<polygon fill="midnightblue" stroke="midnightblue" points="2133.1,-78.07 2143.19,-74.84 2133.29,-71.07 2133.1,-78.07"/>
</g>
<!-- Node13 -->
<g id="node13" class="node">
<title>Node13</title>
<g id="a_node13"><a xlink:href="GroupCell_8cpp.html" target="_top" xlink:title="This file defines the class GroupCell.">
<polygon fill="white" stroke="black" points="1560,-6 1560,-25 1688,-25 1688,-6 1560,-6"/>
<text text-anchor="middle" x="1624" y="-13" font-family="Helvetica,sans-Serif" font-size="10.00">src/cells/GroupCell.cpp</text>
</a>
</g>
</g>
<!-- Node1&#45;&gt;Node13 -->
<g id="edge12" class="edge">
<title>Node1&#45;&gt;Node13</title>
<path fill="none" stroke="midnightblue" d="M2133.18,-72.39C2037.45,-66.56 1852.75,-53.4 1697,-31 1685.87,-29.4 1673.88,-27.21 1662.89,-25.02"/>
<polygon fill="midnightblue" stroke="midnightblue" points="2133.1,-75.89 2143.29,-73 2133.52,-68.9 2133.1,-75.89"/>
</g>
<!-- Node14 -->
<g id="node14" class="node">
<title>Node14</title>
<g id="a_node14"><a xlink:href="ImgCell_8cpp.html" target="_top" xlink:title="This file defines the class ImgCell.">
<polygon fill="white" stroke="black" points="1706.5,-6 1706.5,-25 1823.5,-25 1823.5,-6 1706.5,-6"/>
<text text-anchor="middle" x="1765" y="-13" font-family="Helvetica,sans-Serif" font-size="10.00">src/cells/ImgCell.cpp</text>
</a>
</g>
</g>
<!-- Node1&#45;&gt;Node14 -->
<g id="edge13" class="edge">
<title>Node1&#45;&gt;Node14</title>
<path fill="none" stroke="midnightblue" d="M2133.19,-69.83C2059.84,-62.43 1936.9,-48.76 1832,-31 1822.03,-29.31 1811.29,-27.15 1801.4,-25.01"/>
<polygon fill="midnightblue" stroke="midnightblue" points="2132.91,-73.32 2143.21,-70.83 2133.61,-66.35 2132.91,-73.32"/>
</g>
<!-- Node15 -->
<g id="node15" class="node">
<title>Node15</title>
<g id="a_node15"><a xlink:href="ImgCellBase_8cpp.html" target="_top" xlink:title="This file defines the class ImgCellBase.">
<polygon fill="white" stroke="black" points="1841.5,-6 1841.5,-25 1982.5,-25 1982.5,-6 1841.5,-6"/>
<text text-anchor="middle" x="1912" y="-13" font-family="Helvetica,sans-Serif" font-size="10.00">src/cells/ImgCellBase.cpp</text>
</a>
</g>
</g>
<!-- Node1&#45;&gt;Node15 -->
<g id="edge14" class="edge">
<title>Node1&#45;&gt;Node15</title>
<path fill="none" stroke="midnightblue" d="M2147.06,-65.4C2091.61,-53.87 2004.05,-35.65 1952.9,-25.01"/>
<polygon fill="midnightblue" stroke="midnightblue" points="2146.52,-68.86 2157.02,-67.48 2147.95,-62.01 2146.52,-68.86"/>
</g>
<!-- Node16 -->
<g id="node16" class="node">
<title>Node16</title>
<g id="a_node16"><a xlink:href="IntCell_8cpp.html" target="_top" xlink:title="This file defines the class IntCell.">
<polygon fill="white" stroke="black" points="2000.5,-6 2000.5,-25 2111.5,-25 2111.5,-6 2000.5,-6"/>
<text text-anchor="middle" x="2056" y="-13" font-family="Helvetica,sans-Serif" font-size="10.00">src/cells/IntCell.cpp</text>
</a>
</g>
</g>
<!-- Node1&#45;&gt;Node16 -->
<g id="edge15" class="edge">
<title>Node1&#45;&gt;Node16</title>
<path fill="none" stroke="midnightblue" d="M2168.12,-63.48C2140.54,-51.92 2100.33,-35.08 2076.31,-25.01"/>
<polygon fill="midnightblue" stroke="midnightblue" points="2167.08,-66.84 2177.65,-67.48 2169.78,-60.38 2167.08,-66.84"/>
</g>
<!-- Node17 -->
<g id="node17" class="node">
<title>Node17</title>
<g id="a_node17"><a xlink:href="IntervalCell_8cpp.html" target="_top" xlink:title="This file defines the class IntervalCell.">
<polygon fill="white" stroke="black" points="2130,-6 2130,-25 2266,-25 2266,-6 2130,-6"/>
<text text-anchor="middle" x="2198" y="-13" font-family="Helvetica,sans-Serif" font-size="10.00">src/cells/IntervalCell.cpp</text>
</a>
</g>
</g>
<!-- Node1&#45;&gt;Node17 -->
<g id="edge16" class="edge">
<title>Node1&#45;&gt;Node17</title>
<path fill="none" stroke="midnightblue" d="M2198,-57.32C2198,-46.5 2198,-33.4 2198,-25.01"/>
<polygon fill="midnightblue" stroke="midnightblue" points="2194.5,-57.48 2198,-67.48 2201.5,-57.48 2194.5,-57.48"/>
</g>
<!-- Node18 -->
<g id="node18" class="node">
<title>Node18</title>
<g id="a_node18"><a xlink:href="LabelCell_8cpp.html" target="_top" xlink:title="This file defines the class LabelCell.">
<polygon fill="white" stroke="black" points="2284.5,-6 2284.5,-25 2409.5,-25 2409.5,-6 2284.5,-6"/>
<text text-anchor="middle" x="2347" y="-13" font-family="Helvetica,sans-Serif" font-size="10.00">src/cells/LabelCell.cpp</text>
</a>
</g>
</g>
<!-- Node1&#45;&gt;Node18 -->
<g id="edge17" class="edge">
<title>Node1&#45;&gt;Node18</title>
<path fill="none" stroke="midnightblue" d="M2228.97,-63.63C2257.92,-52.07 2300.37,-35.12 2325.69,-25.01"/>
<polygon fill="midnightblue" stroke="midnightblue" points="2227.34,-60.52 2219.35,-67.48 2229.93,-67.02 2227.34,-60.52"/>
</g>
<!-- Node19 -->
<g id="node19" class="node">
<title>Node19</title>
<g id="a_node19"><a xlink:href="LimitCell_8cpp.html" target="_top" xlink:title="This file defines the class LimitCell.">
<polygon fill="white" stroke="black" points="2427.5,-6 2427.5,-25 2550.5,-25 2550.5,-6 2427.5,-6"/>
<text text-anchor="middle" x="2489" y="-13" font-family="Helvetica,sans-Serif" font-size="10.00">src/cells/LimitCell.cpp</text>
</a>
</g>
</g>
<!-- Node1&#45;&gt;Node19 -->
<g id="edge18" class="edge">
<title>Node1&#45;&gt;Node19</title>
<path fill="none" stroke="midnightblue" d="M2250.02,-65.46C2294.82,-56.37 2361.18,-42.88 2419,-31 2428.36,-29.08 2438.42,-27 2447.92,-25.03"/>
<polygon fill="midnightblue" stroke="midnightblue" points="2249.07,-62.08 2239.96,-67.5 2250.46,-68.94 2249.07,-62.08"/>
</g>
<!-- Node20 -->
<g id="node20" class="node">
<title>Node20</title>
<g id="a_node20"><a xlink:href="ListCell_8cpp.html" target="_top" xlink:title="This file defines the class ListCell.">
<polygon fill="white" stroke="black" points="2569,-6 2569,-25 2685,-25 2685,-6 2569,-6"/>
<text text-anchor="middle" x="2627" y="-13" font-family="Helvetica,sans-Serif" font-size="10.00">src/cells/ListCell.cpp</text>
</a>
</g>
</g>
<!-- Node1&#45;&gt;Node20 -->
<g id="edge19" class="edge">
<title>Node1&#45;&gt;Node20</title>
<path fill="none" stroke="midnightblue" d="M2263.17,-69.67C2335.84,-62.21 2456.75,-48.55 2560,-31 2569.86,-29.32 2580.46,-27.19 2590.25,-25.07"/>
<polygon fill="midnightblue" stroke="midnightblue" points="2262.4,-66.23 2252.8,-70.73 2263.11,-73.2 2262.4,-66.23"/>
</g>
<!-- Node21 -->
<g id="node21" class="node">
<title>Node21</title>
<g id="a_node21"><a xlink:href="MatrCell_8cpp.html" target="_top" xlink:title="This file defines the class MatrCell.">
<polygon fill="white" stroke="black" points="2703.5,-6 2703.5,-25 2824.5,-25 2824.5,-6 2703.5,-6"/>
<text text-anchor="middle" x="2764" y="-13" font-family="Helvetica,sans-Serif" font-size="10.00">src/cells/MatrCell.cpp</text>
</a>
</g>
</g>
<!-- Node1&#45;&gt;Node21 -->
<g id="edge20" class="edge">
<title>Node1&#45;&gt;Node21</title>
<path fill="none" stroke="midnightblue" d="M2262.57,-72.49C2357.49,-66.81 2540.1,-53.85 2694,-31 2704.68,-29.41 2716.19,-27.23 2726.72,-25.04"/>
<polygon fill="midnightblue" stroke="midnightblue" points="2262.33,-69 2252.55,-73.09 2262.74,-75.99 2262.33,-69"/>
</g>
<!-- Node22 -->
<g id="node22" class="node">
<title>Node22</title>
<g id="a_node22"><a xlink:href="NamedBoxCell_8cpp.html" target="_top" xlink:title="This file defines the class NamedBoxCell.">
<polygon fill="white" stroke="black" points="2843,-6 2843,-25 2995,-25 2995,-6 2843,-6"/>
<text text-anchor="middle" x="2919" y="-13" font-family="Helvetica,sans-Serif" font-size="10.00">src/cells/NamedBoxCell.cpp</text>
</a>
</g>
</g>
<!-- Node1&#45;&gt;Node22 -->
<g id="edge21" class="edge">
<title>Node1&#45;&gt;Node22</title>
<path fill="none" stroke="midnightblue" d="M2262.68,-73.53C2377.87,-68.65 2625.97,-56.04 2834,-31 2847.08,-29.43 2861.21,-27.22 2874.12,-25"/>
<polygon fill="midnightblue" stroke="midnightblue" points="2262.47,-70.03 2252.62,-73.95 2262.76,-77.03 2262.47,-70.03"/>
</g>
<!-- Node23 -->
<g id="node23" class="node">
<title>Node23</title>
<g id="a_node23"><a xlink:href="LongNumberCell_8cpp.html" target="_top" xlink:title="This file defines the class LongNumberCell.">
<polygon fill="white" stroke="black" points="3013.5,-6 3013.5,-25 3174.5,-25 3174.5,-6 3013.5,-6"/>
<text text-anchor="middle" x="3094" y="-13" font-family="Helvetica,sans-Serif" font-size="10.00">src/cells/LongNumberCell.cpp</text>
</a>
</g>
</g>
<!-- Node1&#45;&gt;Node23 -->
<g id="edge22" class="edge">
<title>Node1&#45;&gt;Node23</title>
<path fill="none" stroke="midnightblue" d="M2263.23,-74.66C2400.61,-71.32 2729.69,-60.67 3004,-31 3018,-29.49 3033.15,-27.27 3046.95,-25.03"/>
<polygon fill="midnightblue" stroke="midnightblue" points="2262.8,-71.17 2252.89,-74.9 2262.97,-78.16 2262.8,-71.17"/>
</g>
<!-- Node24 -->
<g id="node24" class="node">
<title>Node24</title>
<g id="a_node24"><a xlink:href="ParenCell_8cpp.html" target="_top" xlink:title="This file defines the class ParenCell.">
<polygon fill="white" stroke="black" points="3192.5,-6 3192.5,-25 3317.5,-25 3317.5,-6 3192.5,-6"/>
<text text-anchor="middle" x="3255" y="-13" font-family="Helvetica,sans-Serif" font-size="10.00">src/cells/ParenCell.cpp</text>
</a>
</g>
</g>
<!-- Node1&#45;&gt;Node24 -->
<g id="edge23" class="edge">
<title>Node1&#45;&gt;Node24</title>
<path fill="none" stroke="midnightblue" d="M2262.8,-76.52C2420.89,-77.04 2838.72,-73.87 3184,-31 3195.36,-29.59 3207.62,-27.35 3218.7,-25.05"/>
<polygon fill="midnightblue" stroke="midnightblue" points="2262.78,-73.02 2252.77,-76.48 2262.75,-80.02 2262.78,-73.02"/>
</g>
<!-- Node25 -->
<g id="node25" class="node">
<title>Node25</title>
<g id="a_node25"><a xlink:href="ProductCell_8cpp.html" target="_top" xlink:title="This file defines the class ProductCell.">
<polygon fill="white" stroke="black" points="3335.5,-6 3335.5,-25 3470.5,-25 3470.5,-6 3335.5,-6"/>
<text text-anchor="middle" x="3403" y="-13" font-family="Helvetica,sans-Serif" font-size="10.00">src/cells/ProductCell.cpp</text>
</a>
</g>
</g>
<!-- Node1&#45;&gt;Node25 -->
<g id="edge24" class="edge">
<title>Node1&#45;&gt;Node25</title>
<path fill="none" stroke="midnightblue" d="M2262.68,-74.69C2470.31,-70.28 3118.58,-54.9 3327,-31 3339.14,-29.61 3352.26,-27.37 3364.12,-25.07"/>
<polygon fill="midnightblue" stroke="midnightblue" points="2262.47,-71.19 2252.54,-74.9 2262.62,-78.19 2262.47,-71.19"/>
</g>
<!-- Node26 -->
<g id="node26" class="node">
<title>Node26</title>
<g id="a_node26"><a xlink:href="SetCell_8cpp.html" target="_top" xlink:title="This file defines the class SetCell.">
<polygon fill="white" stroke="black" points="3489,-6 3489,-25 3603,-25 3603,-6 3489,-6"/>
<text text-anchor="middle" x="3546" y="-13" font-family="Helvetica,sans-Serif" font-size="10.00">src/cells/SetCell.cpp</text>
</a>
</g>
</g>
<!-- Node1&#45;&gt;Node26 -->
<g id="edge25" class="edge">
<title>Node1&#45;&gt;Node26</title>
<path fill="none" stroke="midnightblue" d="M2262.53,-75.28C2488.11,-72.53 3240.63,-61.24 3480,-31 3490.71,-29.65 3502.24,-27.39 3512.63,-25.06"/>
<polygon fill="midnightblue" stroke="midnightblue" points="2262.46,-71.78 2252.51,-75.4 2262.55,-78.78 2262.46,-71.78"/>
</g>
<!-- Node27 -->
<g id="node27" class="node">
<title>Node27</title>
<g id="a_node27"><a xlink:href="SqrtCell_8cpp.html" target="_top" xlink:title="This file defines the class SqrtCell.">
<polygon fill="white" stroke="black" points="3621,-6 3621,-25 3739,-25 3739,-6 3621,-6"/>
<text text-anchor="middle" x="3680" y="-13" font-family="Helvetica,sans-Serif" font-size="10.00">src/cells/SqrtCell.cpp</text>
</a>
</g>
</g>
<!-- Node1&#45;&gt;Node27 -->
<g id="edge26" class="edge">
<title>Node1&#45;&gt;Node27</title>
<path fill="none" stroke="midnightblue" d="M2262.98,-75.47C2503.87,-73.27 3345.63,-63.38 3612,-31 3623.14,-29.65 3635.17,-27.36 3645.96,-25"/>
<polygon fill="midnightblue" stroke="midnightblue" points="2262.61,-71.97 2252.64,-75.56 2262.67,-78.97 2262.61,-71.97"/>
</g>
<!-- Node28 -->
<g id="node28" class="node">
<title>Node28</title>
<g id="a_node28"><a xlink:href="SubCell_8cpp.html" target="_top" xlink:title="This file defines the class SubCell.">
<polygon fill="white" stroke="black" points="3757,-6 3757,-25 3873,-25 3873,-6 3757,-6"/>
<text text-anchor="middle" x="3815" y="-13" font-family="Helvetica,sans-Serif" font-size="10.00">src/cells/SubCell.cpp</text>
</a>
</g>
</g>
<!-- Node1&#45;&gt;Node28 -->
<g id="edge27" class="edge">
<title>Node1&#45;&gt;Node28</title>
<path fill="none" stroke="midnightblue" d="M2262.78,-75.71C2517.88,-74.32 3453.61,-66.82 3748,-31 3758.99,-29.66 3770.83,-27.38 3781.47,-25.02"/>
<polygon fill="midnightblue" stroke="midnightblue" points="2262.54,-72.21 2252.56,-75.76 2262.58,-79.21 2262.54,-72.21"/>
</g>
<!-- Node29 -->
<g id="node29" class="node">
<title>Node29</title>
<g id="a_node29"><a xlink:href="SubSupCell_8cpp.html" target="_top" xlink:title="This file defines the class SubSupCell.">
<polygon fill="white" stroke="black" points="3891,-6 3891,-25 4025,-25 4025,-6 3891,-6"/>
<text text-anchor="middle" x="3958" y="-13" font-family="Helvetica,sans-Serif" font-size="10.00">src/cells/SubSupCell.cpp</text>
</a>
</g>
</g>
<!-- Node1&#45;&gt;Node29 -->
<g id="edge28" class="edge">
<title>Node1&#45;&gt;Node29</title>
<path fill="none" stroke="midnightblue" d="M2262.92,-75.67C2531.85,-74.09 3559.55,-65.84 3882,-31 3894.42,-29.66 3907.85,-27.38 3919.91,-25.02"/>
<polygon fill="midnightblue" stroke="midnightblue" points="2262.53,-72.17 2252.55,-75.73 2262.57,-79.17 2262.53,-72.17"/>
</g>
<!-- Node30 -->
<g id="node30" class="node">
<title>Node30</title>
<g id="a_node30"><a xlink:href="SumCell_8cpp.html" target="_top" xlink:title="This file defines the class SumCell.">
<polygon fill="white" stroke="black" points="4043,-6 4043,-25 4163,-25 4163,-6 4043,-6"/>
<text text-anchor="middle" x="4103" y="-13" font-family="Helvetica,sans-Serif" font-size="10.00">src/cells/SumCell.cpp</text>
</a>
</g>
</g>
<!-- Node1&#45;&gt;Node30 -->
<g id="edge29" class="edge">
<title>Node1&#45;&gt;Node30</title>
<path fill="none" stroke="midnightblue" d="M2262.66,-76C2546.09,-75.75 3680.29,-72.15 4034,-31 4045.31,-29.68 4057.51,-27.41 4068.46,-25.05"/>
<polygon fill="midnightblue" stroke="midnightblue" points="2262.54,-72.5 2252.55,-76.01 2262.55,-79.5 2262.54,-72.5"/>
</g>
<!-- Node31 -->
<g id="node31" class="node">
<title>Node31</title>
<g id="a_node31"><a xlink:href="TextCell_8cpp.html" target="_top" xlink:title="This file defines the class TextCell.">
<polygon fill="white" stroke="black" points="4181.5,-6 4181.5,-25 4300.5,-25 4300.5,-6 4181.5,-6"/>
<text text-anchor="middle" x="4241" y="-13" font-family="Helvetica,sans-Serif" font-size="10.00">src/cells/TextCell.cpp</text>
</a>
</g>
</g>
<!-- Node1&#45;&gt;Node31 -->
<g id="edge30" class="edge">
<title>Node1&#45;&gt;Node31</title>
<path fill="none" stroke="midnightblue" d="M2263.09,-76.13C2560.23,-76.47 3789.81,-75.13 4172,-31 4183.31,-29.69 4195.51,-27.42 4206.46,-25.06"/>
<polygon fill="midnightblue" stroke="midnightblue" points="2262.92,-72.63 2252.92,-76.12 2262.91,-79.63 2262.92,-72.63"/>
</g>
<!-- Node32 -->
<g id="node32" class="node">
<title>Node32</title>
<g id="a_node32"><a xlink:href="VisiblyInvalidCell_8cpp.html" target="_top" xlink:title="This file defines the class VisiblyInvalidCell.">
<polygon fill="white" stroke="black" points="4318.5,-0.5 4318.5,-30.5 4443.5,-30.5 4443.5,-0.5 4318.5,-0.5"/>
<text text-anchor="start" x="4326.5" y="-18.5" font-family="Helvetica,sans-Serif" font-size="10.00">src/cells/VisiblyInvalid</text>
<text text-anchor="middle" x="4381" y="-7.5" font-family="Helvetica,sans-Serif" font-size="10.00">Cell.cpp</text>
</a>
</g>
</g>
<!-- Node1&#45;&gt;Node32 -->
<g id="edge31" class="edge">
<title>Node1&#45;&gt;Node32</title>
<path fill="none" stroke="midnightblue" d="M2263.03,-76.19C2572.61,-76.87 3898.94,-76.97 4310,-31 4312.75,-30.69 4315.55,-30.33 4318.38,-29.93"/>
<polygon fill="midnightblue" stroke="midnightblue" points="2262.89,-72.69 2252.88,-76.17 2262.87,-79.69 2262.89,-72.69"/>
</g>
</g>
</svg>
