<?xml version="1.0" encoding="UTF-8" standalone="no"?>
<!DOCTYPE svg PUBLIC "-//W3C//DTD SVG 1.1//EN"
 "http://www.w3.org/Graphics/SVG/1.1/DTD/svg11.dtd">
<!-- Generated by graphviz version 2.43.0 (0)
 -->
<!-- Title: src/cells/CellImpl.h Pages: 1 -->
<svg width="4451pt" height="95pt"
 viewBox="0.00 0.00 4450.50 95.00" xmlns="http://www.w3.org/2000/svg" xmlns:xlink="http://www.w3.org/1999/xlink">
<g id="graph0" class="graph" transform="scale(1 1) rotate(0) translate(4 91)">
<title>src/cells/CellImpl.h</title>
<polygon fill="white" stroke="transparent" points="-4,4 -4,-91 4446.5,-91 4446.5,4 -4,4"/>
<!-- Node1 -->
<g id="node1" class="node">
<title>Node1</title>
<g id="a_node1"><a xlink:title="Macros and types used only by cell implementations, not by cell users.">
<polygon fill="#bfbfbf" stroke="black" points="2156.5,-67.5 2156.5,-86.5 2265.5,-86.5 2265.5,-67.5 2156.5,-67.5"/>
<text text-anchor="middle" x="2211" y="-74.5" font-family="Helvetica,sans-Serif" font-size="10.00">src/cells/CellImpl.h</text>
</a>
</g>
</g>
<!-- Node2 -->
<g id="node2" class="node">
<title>Node2</title>
<g id="a_node2"><a xlink:href="AbsCell_8cpp.html" target="_top" xlink:title="This file defines the class AbsCell.">
<polygon fill="white" stroke="black" points="0,-6 0,-25 116,-25 116,-6 0,-6"/>
<text text-anchor="middle" x="58" y="-13" font-family="Helvetica,sans-Serif" font-size="10.00">src/cells/AbsCell.cpp</text>
</a>
</g>
</g>
<!-- Node1&#45;&gt;Node2 -->
<g id="edge1" class="edge">
<title>Node1&#45;&gt;Node2</title>
<path fill="none" stroke="midnightblue" d="M2146.25,-76.27C1839.5,-77.31 530.5,-78.81 125,-31 114.01,-29.7 102.16,-27.44 91.53,-25.07"/>
<polygon fill="midnightblue" stroke="midnightblue" points="2146.33,-79.77 2156.31,-76.24 2146.3,-72.77 2146.33,-79.77"/>
</g>
<!-- Node3 -->
<g id="node3" class="node">
<title>Node3</title>
<g id="a_node3"><a xlink:href="AtCell_8cpp.html" target="_top" xlink:title="This file defines the class AtCell.">
<polygon fill="white" stroke="black" points="134.5,-6 134.5,-25 243.5,-25 243.5,-6 134.5,-6"/>
<text text-anchor="middle" x="189" y="-13" font-family="Helvetica,sans-Serif" font-size="10.00">src/cells/AtCell.cpp</text>
</a>
</g>
</g>
<!-- Node1&#45;&gt;Node3 -->
<g id="edge2" class="edge">
<title>Node1&#45;&gt;Node3</title>
<path fill="none" stroke="midnightblue" d="M2146.38,-76.28C1851.41,-77.29 630.85,-78.45 252,-31 241.64,-29.7 230.5,-27.43 220.5,-25.07"/>
<polygon fill="midnightblue" stroke="midnightblue" points="2146.5,-79.78 2156.48,-76.24 2146.47,-72.78 2146.5,-79.78"/>
</g>
<!-- Node4 -->
<g id="node4" class="node">
<title>Node4</title>
<g id="a_node4"><a xlink:href="AnimationCell_8cpp.html" target="_top" xlink:title="This file defines the class AnimationCell.">
<polygon fill="white" stroke="black" points="261.5,-6 261.5,-25 410.5,-25 410.5,-6 261.5,-6"/>
<text text-anchor="middle" x="336" y="-13" font-family="Helvetica,sans-Serif" font-size="10.00">src/cells/AnimationCell.cpp</text>
</a>
</g>
</g>
<!-- Node1&#45;&gt;Node4 -->
<g id="edge3" class="edge">
<title>Node1&#45;&gt;Node4</title>
<path fill="none" stroke="midnightblue" d="M2146.12,-75.66C1866.65,-73.98 764.12,-65.29 419,-31 405.46,-29.65 390.81,-27.37 377.63,-25.01"/>
<polygon fill="midnightblue" stroke="midnightblue" points="2146.47,-79.16 2156.49,-75.72 2146.51,-72.16 2146.47,-79.16"/>
</g>
<!-- Node5 -->
<g id="node5" class="node">
<title>Node5</title>
<g id="a_node5"><a xlink:href="BoxCell_8cpp.html" target="_top" xlink:title="This file defines the class BoxCell.">
<polygon fill="white" stroke="black" points="428.5,-6 428.5,-25 545.5,-25 545.5,-6 428.5,-6"/>
<text text-anchor="middle" x="487" y="-13" font-family="Helvetica,sans-Serif" font-size="10.00">src/cells/BoxCell.cpp</text>
</a>
</g>
</g>
<!-- Node1&#45;&gt;Node5 -->
<g id="edge4" class="edge">
<title>Node1&#45;&gt;Node5</title>
<path fill="none" stroke="midnightblue" d="M2145.81,-75.82C1879.22,-74.84 871.17,-68.68 555,-31 543.85,-29.67 531.83,-27.39 521.04,-25.03"/>
<polygon fill="midnightblue" stroke="midnightblue" points="2146.08,-79.32 2156.1,-75.86 2146.11,-72.32 2146.08,-79.32"/>
</g>
<!-- Node6 -->
<g id="node6" class="node">
<title>Node6</title>
<g id="a_node6"><a xlink:href="ConjugateCell_8cpp.html" target="_top" xlink:title="This file defines the class ConjugateCell.">
<polygon fill="white" stroke="black" points="564,-6 564,-25 712,-25 712,-6 564,-6"/>
<text text-anchor="middle" x="638" y="-13" font-family="Helvetica,sans-Serif" font-size="10.00">src/cells/ConjugateCell.cpp</text>
</a>
</g>
</g>
<!-- Node1&#45;&gt;Node6 -->
<g id="edge5" class="edge">
<title>Node1&#45;&gt;Node6</title>
<path fill="none" stroke="midnightblue" d="M2145.91,-75.27C1896.76,-72.29 1003.53,-59.8 721,-31 707.61,-29.64 693.13,-27.38 680.06,-25.05"/>
<polygon fill="midnightblue" stroke="midnightblue" points="2146.2,-78.78 2156.24,-75.39 2146.28,-71.78 2146.2,-78.78"/>
</g>
<!-- Node7 -->
<g id="node7" class="node">
<title>Node7</title>
<g id="a_node7"><a xlink:href="DiffCell_8cpp.html" target="_top" xlink:title="This file defines the class DiffCell.">
<polygon fill="white" stroke="black" points="730,-6 730,-25 846,-25 846,-6 730,-6"/>
<text text-anchor="middle" x="788" y="-13" font-family="Helvetica,sans-Serif" font-size="10.00">src/cells/DiffCell.cpp</text>
</a>
</g>
</g>
<!-- Node1&#45;&gt;Node7 -->
<g id="edge6" class="edge">
<title>Node1&#45;&gt;Node7</title>
<path fill="none" stroke="midnightblue" d="M2146.32,-75.4C1912.21,-72.97 1109.52,-62.5 855,-31 844.13,-29.65 832.42,-27.4 821.88,-25.07"/>
<polygon fill="midnightblue" stroke="midnightblue" points="2146.34,-78.9 2156.38,-75.5 2146.41,-71.9 2146.34,-78.9"/>
</g>
<!-- Node8 -->
<g id="node8" class="node">
<title>Node8</title>
<g id="a_node8"><a xlink:href="DigitCell_8cpp.html" target="_top" xlink:title="This file defines the class DigitCell.">
<polygon fill="white" stroke="black" points="864,-6 864,-25 986,-25 986,-6 864,-6"/>
<text text-anchor="middle" x="925" y="-13" font-family="Helvetica,sans-Serif" font-size="10.00">src/cells/DigitCell.cpp</text>
</a>
</g>
</g>
<!-- Node1&#45;&gt;Node8 -->
<g id="edge7" class="edge">
<title>Node1&#45;&gt;Node8</title>
<path fill="none" stroke="midnightblue" d="M2146.16,-75.03C1927.89,-71.55 1220.93,-58.38 995,-31 983.67,-29.63 971.44,-27.37 960.42,-25.04"/>
<polygon fill="midnightblue" stroke="midnightblue" points="2146.12,-78.53 2156.18,-75.19 2146.23,-71.53 2146.12,-78.53"/>
</g>
<!-- Node9 -->
<g id="node9" class="node">
<title>Node9</title>
<g id="a_node9"><a xlink:href="ExptCell_8cpp.html" target="_top" xlink:title="This file defines the class ExptCell.">
<polygon fill="white" stroke="black" points="1004,-6 1004,-25 1124,-25 1124,-6 1004,-6"/>
<text text-anchor="middle" x="1064" y="-13" font-family="Helvetica,sans-Serif" font-size="10.00">src/cells/ExptCell.cpp</text>
</a>
</g>
</g>
<!-- Node1&#45;&gt;Node9 -->
<g id="edge8" class="edge">
<title>Node1&#45;&gt;Node9</title>
<path fill="none" stroke="midnightblue" d="M2146.16,-74.7C1944.62,-70.44 1330.76,-55.73 1133,-31 1121.83,-29.6 1109.77,-27.34 1098.91,-25.01"/>
<polygon fill="midnightblue" stroke="midnightblue" points="2146.23,-78.2 2156.3,-74.91 2146.37,-71.2 2146.23,-78.2"/>
</g>
<!-- Node10 -->
<g id="node10" class="node">
<title>Node10</title>
<g id="a_node10"><a xlink:href="FracCell_8cpp.html" target="_top" xlink:title="This file defines the class FracCell.">
<polygon fill="white" stroke="black" points="1142.5,-6 1142.5,-25 1261.5,-25 1261.5,-6 1142.5,-6"/>
<text text-anchor="middle" x="1202" y="-13" font-family="Helvetica,sans-Serif" font-size="10.00">src/cells/FracCell.cpp</text>
</a>
</g>
</g>
<!-- Node1&#45;&gt;Node10 -->
<g id="edge9" class="edge">
<title>Node1&#45;&gt;Node10</title>
<path fill="none" stroke="midnightblue" d="M2146.28,-76.44C1993.34,-76.71 1597.93,-72.91 1271,-31 1259.95,-29.58 1248.04,-27.34 1237.27,-25.04"/>
<polygon fill="midnightblue" stroke="midnightblue" points="2146.44,-79.94 2156.43,-76.42 2146.42,-72.94 2146.44,-79.94"/>
</g>
<!-- Node11 -->
<g id="node11" class="node">
<title>Node11</title>
<g id="a_node11"><a xlink:href="FunCell_8cpp.html" target="_top" xlink:title="This file defines the class FunCell.">
<polygon fill="white" stroke="black" points="1280,-6 1280,-25 1396,-25 1396,-6 1280,-6"/>
<text text-anchor="middle" x="1338" y="-13" font-family="Helvetica,sans-Serif" font-size="10.00">src/cells/FunCell.cpp</text>
</a>
</g>
</g>
<!-- Node1&#45;&gt;Node11 -->
<g id="edge10" class="edge">
<title>Node1&#45;&gt;Node11</title>
<path fill="none" stroke="midnightblue" d="M2146.14,-75.83C2008.79,-74.71 1678.76,-68.03 1405,-31 1394.39,-29.56 1382.95,-27.35 1372.59,-25.07"/>
<polygon fill="midnightblue" stroke="midnightblue" points="2146.45,-79.33 2156.47,-75.91 2146.5,-72.33 2146.45,-79.33"/>
</g>
<!-- Node12 -->
<g id="node12" class="node">
<title>Node12</title>
<g id="a_node12"><a xlink:href="EditorCell_8cpp.html" target="_top" xlink:title="This file defines the class EditorCell.">
<polygon fill="white" stroke="black" points="1414.5,-6 1414.5,-25 1541.5,-25 1541.5,-6 1414.5,-6"/>
<text text-anchor="middle" x="1478" y="-13" font-family="Helvetica,sans-Serif" font-size="10.00">src/cells/EditorCell.cpp</text>
</a>
</g>
</g>
<!-- Node1&#45;&gt;Node12 -->
<g id="edge11" class="edge">
<title>Node1&#45;&gt;Node12</title>
<path fill="none" stroke="midnightblue" d="M2146.09,-74.33C2027.46,-70.66 1767.88,-59.81 1551,-31 1539.6,-29.49 1527.3,-27.27 1516.11,-25.03"/>
<polygon fill="midnightblue" stroke="midnightblue" points="2146.34,-77.84 2156.44,-74.64 2146.55,-70.84 2146.34,-77.84"/>
</g>
<!-- Node13 -->
<g id="node13" class="node">
<title>Node13</title>
<g id="a_node13"><a xlink:href="GroupCell_8cpp.html" target="_top" xlink:title="This file defines the class GroupCell.">
<polygon fill="white" stroke="black" points="1560,-6 1560,-25 1688,-25 1688,-6 1560,-6"/>
<text text-anchor="middle" x="1624" y="-13" font-family="Helvetica,sans-Serif" font-size="10.00">src/cells/GroupCell.cpp</text>
</a>
</g>
</g>
<!-- Node1&#45;&gt;Node13 -->
<g id="edge12" class="edge">
<title>Node1&#45;&gt;Node13</title>
<path fill="none" stroke="midnightblue" d="M2146.37,-72.6C2048.69,-66.96 1857.81,-53.94 1697,-31 1685.87,-29.41 1673.88,-27.23 1662.89,-25.04"/>
<polygon fill="midnightblue" stroke="midnightblue" points="2146.2,-76.1 2156.38,-73.17 2146.6,-69.11 2146.2,-76.1"/>
</g>
<!-- Node14 -->
<g id="node14" class="node">
<title>Node14</title>
<g id="a_node14"><a xlink:href="ImgCell_8cpp.html" target="_top" xlink:title="This file defines the class ImgCell.">
<polygon fill="white" stroke="black" points="1706.5,-6 1706.5,-25 1823.5,-25 1823.5,-6 1706.5,-6"/>
<text text-anchor="middle" x="1765" y="-13" font-family="Helvetica,sans-Serif" font-size="10.00">src/cells/ImgCell.cpp</text>
</a>
</g>
</g>
<!-- Node1&#45;&gt;Node14 -->
<g id="edge13" class="edge">
<title>Node1&#45;&gt;Node14</title>
<path fill="none" stroke="midnightblue" d="M2146.16,-70.19C2070.48,-62.98 1941.7,-49.34 1832,-31 1822.02,-29.33 1811.28,-27.17 1801.39,-25.03"/>
<polygon fill="midnightblue" stroke="midnightblue" points="2146.2,-73.71 2156.48,-71.17 2146.85,-66.74 2146.2,-73.71"/>
</g>
<!-- Node15 -->
<g id="node15" class="node">
<title>Node15</title>
<g id="a_node15"><a xlink:href="ImgCellBase_8cpp.html" target="_top" xlink:title="This file defines the class ImgCellBase.">
<polygon fill="white" stroke="black" points="1841.5,-6 1841.5,-25 1982.5,-25 1982.5,-6 1841.5,-6"/>
<text text-anchor="middle" x="1912" y="-13" font-family="Helvetica,sans-Serif" font-size="10.00">src/cells/ImgCellBase.cpp</text>
</a>
</g>
</g>
<!-- Node1&#45;&gt;Node15 -->
<g id="edge14" class="edge">
<title>Node1&#45;&gt;Node15</title>
<path fill="none" stroke="midnightblue" d="M2158.1,-65.47C2100.16,-53.94 2008.34,-35.67 1954.76,-25.01"/>
<polygon fill="midnightblue" stroke="midnightblue" points="2157.67,-68.96 2168.16,-67.48 2159.04,-62.09 2157.67,-68.96"/>
</g>
<!-- Node16 -->
<g id="node16" class="node">
<title>Node16</title>
<g id="a_node16"><a xlink:href="IntervalCell_8cpp.html" target="_top" xlink:title="This file defines the class IntervalCell.">
<polygon fill="white" stroke="black" points="2001,-6 2001,-25 2137,-25 2137,-6 2001,-6"/>
<text text-anchor="middle" x="2069" y="-13" font-family="Helvetica,sans-Serif" font-size="10.00">src/cells/IntervalCell.cpp</text>
</a>
</g>
</g>
<!-- Node1&#45;&gt;Node16 -->
<g id="edge15" class="edge">
<title>Node1&#45;&gt;Node16</title>
<path fill="none" stroke="midnightblue" d="M2181.12,-63.48C2153.54,-51.92 2113.33,-35.08 2089.31,-25.01"/>
<polygon fill="midnightblue" stroke="midnightblue" points="2180.08,-66.84 2190.65,-67.48 2182.78,-60.38 2180.08,-66.84"/>
</g>
<!-- Node17 -->
<g id="node17" class="node">
<title>Node17</title>
<g id="a_node17"><a xlink:href="IntCell_8cpp.html" target="_top" xlink:title="This file defines the class IntCell.">
<polygon fill="white" stroke="black" points="2155.5,-6 2155.5,-25 2266.5,-25 2266.5,-6 2155.5,-6"/>
<text text-anchor="middle" x="2211" y="-13" font-family="Helvetica,sans-Serif" font-size="10.00">src/cells/IntCell.cpp</text>
</a>
</g>
</g>
<!-- Node1&#45;&gt;Node17 -->
<g id="edge16" class="edge">
<title>Node1&#45;&gt;Node17</title>
<path fill="none" stroke="midnightblue" d="M2211,-57.32C2211,-46.5 2211,-33.4 2211,-25.01"/>
<polygon fill="midnightblue" stroke="midnightblue" points="2207.5,-57.48 2211,-67.48 2214.5,-57.48 2207.5,-57.48"/>
</g>
<!-- Node18 -->
<g id="node18" class="node">
<title>Node18</title>
<g id="a_node18"><a xlink:href="LabelCell_8cpp.html" target="_top" xlink:title="This file defines the class LabelCell.">
<polygon fill="white" stroke="black" points="2284.5,-6 2284.5,-25 2409.5,-25 2409.5,-6 2284.5,-6"/>
<text text-anchor="middle" x="2347" y="-13" font-family="Helvetica,sans-Serif" font-size="10.00">src/cells/LabelCell.cpp</text>
</a>
</g>
</g>
<!-- Node1&#45;&gt;Node18 -->
<g id="edge17" class="edge">
<title>Node1&#45;&gt;Node18</title>
<path fill="none" stroke="midnightblue" d="M2239.97,-63.33C2266.37,-51.78 2304.64,-35.03 2327.55,-25.01"/>
<polygon fill="midnightblue" stroke="midnightblue" points="2238.24,-60.26 2230.49,-67.48 2241.05,-66.67 2238.24,-60.26"/>
</g>
<!-- Node19 -->
<g id="node19" class="node">
<title>Node19</title>
<g id="a_node19"><a xlink:href="LimitCell_8cpp.html" target="_top" xlink:title="This file defines the class LimitCell.">
<polygon fill="white" stroke="black" points="2427.5,-6 2427.5,-25 2550.5,-25 2550.5,-6 2427.5,-6"/>
<text text-anchor="middle" x="2489" y="-13" font-family="Helvetica,sans-Serif" font-size="10.00">src/cells/LimitCell.cpp</text>
</a>
</g>
</g>
<!-- Node1&#45;&gt;Node19 -->
<g id="edge18" class="edge">
<title>Node1&#45;&gt;Node19</title>
<path fill="none" stroke="midnightblue" d="M2260.85,-65.33C2314.76,-53.79 2399.63,-35.63 2449.24,-25.01"/>
<polygon fill="midnightblue" stroke="midnightblue" points="2259.88,-61.96 2250.83,-67.48 2261.34,-68.8 2259.88,-61.96"/>
</g>
<!-- Node20 -->
<g id="node20" class="node">
<title>Node20</title>
<g id="a_node20"><a xlink:href="LongNumberCell_8cpp.html" target="_top" xlink:title="This file defines the class LongNumberCell.">
<polygon fill="white" stroke="black" points="2568.5,-6 2568.5,-25 2729.5,-25 2729.5,-6 2568.5,-6"/>
<text text-anchor="middle" x="2649" y="-13" font-family="Helvetica,sans-Serif" font-size="10.00">src/cells/LongNumberCell.cpp</text>
</a>
</g>
</g>
<!-- Node1&#45;&gt;Node20 -->
<g id="edge19" class="edge">
<title>Node1&#45;&gt;Node20</title>
<path fill="none" stroke="midnightblue" d="M2275.8,-68.3C2345.94,-59.81 2461.04,-45.44 2560,-31 2572.39,-29.19 2585.73,-27.1 2598.21,-25.07"/>
<polygon fill="midnightblue" stroke="midnightblue" points="2275.29,-64.83 2265.78,-69.51 2276.13,-71.78 2275.29,-64.83"/>
</g>
<!-- Node21 -->
<g id="node21" class="node">
<title>Node21</title>
<g id="a_node21"><a xlink:href="MatrCell_8cpp.html" target="_top" xlink:title="This file defines the class MatrCell.">
<polygon fill="white" stroke="black" points="2747.5,-6 2747.5,-25 2868.5,-25 2868.5,-6 2747.5,-6"/>
<text text-anchor="middle" x="2808" y="-13" font-family="Helvetica,sans-Serif" font-size="10.00">src/cells/MatrCell.cpp</text>
</a>
</g>
</g>
<!-- Node1&#45;&gt;Node21 -->
<g id="edge20" class="edge">
<title>Node1&#45;&gt;Node21</title>
<path fill="none" stroke="midnightblue" d="M2275.83,-73.03C2375.72,-67.88 2573.07,-55.41 2739,-31 2749.66,-29.43 2761.14,-27.23 2771.62,-25.01"/>
<polygon fill="midnightblue" stroke="midnightblue" points="2275.41,-69.55 2265.6,-73.55 2275.76,-76.54 2275.41,-69.55"/>
</g>
<!-- Node22 -->
<g id="node22" class="node">
<title>Node22</title>
<g id="a_node22"><a xlink:href="NamedBoxCell_8cpp.html" target="_top" xlink:title="This file defines the class NamedBoxCell.">
<polygon fill="white" stroke="black" points="2887,-6 2887,-25 3039,-25 3039,-6 2887,-6"/>
<text text-anchor="middle" x="2963" y="-13" font-family="Helvetica,sans-Serif" font-size="10.00">src/cells/NamedBoxCell.cpp</text>
</a>
</g>
</g>
<!-- Node1&#45;&gt;Node22 -->
<g id="edge21" class="edge">
<title>Node1&#45;&gt;Node22</title>
<path fill="none" stroke="midnightblue" d="M2275.71,-73.82C2395.1,-69.31 2657.94,-57.12 2878,-31 2891.08,-29.45 2905.21,-27.25 2918.13,-25.03"/>
<polygon fill="midnightblue" stroke="midnightblue" points="2275.51,-70.32 2265.64,-74.19 2275.77,-77.32 2275.51,-70.32"/>
</g>
<!-- Node23 -->
<g id="node23" class="node">
<title>Node23</title>
<g id="a_node23"><a xlink:href="ParenCell_8cpp.html" target="_top" xlink:title="This file defines the class ParenCell.">
<polygon fill="white" stroke="black" points="3057.5,-6 3057.5,-25 3182.5,-25 3182.5,-6 3057.5,-6"/>
<text text-anchor="middle" x="3120" y="-13" font-family="Helvetica,sans-Serif" font-size="10.00">src/cells/ParenCell.cpp</text>
</a>
</g>
</g>
<!-- Node1&#45;&gt;Node23 -->
<g id="edge22" class="edge">
<title>Node1&#45;&gt;Node23</title>
<path fill="none" stroke="midnightblue" d="M2275.79,-75.71C2416.78,-74.38 2761.74,-67.32 3048,-31 3059.38,-29.56 3071.66,-27.33 3082.8,-25.06"/>
<polygon fill="midnightblue" stroke="midnightblue" points="2275.56,-72.21 2265.59,-75.8 2275.62,-79.21 2275.56,-72.21"/>
</g>
<!-- Node24 -->
<g id="node24" class="node">
<title>Node24</title>
<g id="a_node24"><a xlink:href="ProductCell_8cpp.html" target="_top" xlink:title="This file defines the class ProductCell.">
<polygon fill="white" stroke="black" points="3200.5,-6 3200.5,-25 3335.5,-25 3335.5,-6 3200.5,-6"/>
<text text-anchor="middle" x="3268" y="-13" font-family="Helvetica,sans-Serif" font-size="10.00">src/cells/ProductCell.cpp</text>
</a>
</g>
</g>
<!-- Node1&#45;&gt;Node24 -->
<g id="edge23" class="edge">
<title>Node1&#45;&gt;Node24</title>
<path fill="none" stroke="midnightblue" d="M2276.19,-76.21C2433.98,-76.04 2848.75,-71.41 3192,-31 3204.14,-29.57 3217.25,-27.33 3229.11,-25.02"/>
<polygon fill="midnightblue" stroke="midnightblue" points="2275.73,-72.71 2265.73,-76.22 2275.73,-79.71 2275.73,-72.71"/>
</g>
<!-- Node25 -->
<g id="node25" class="node">
<title>Node25</title>
<g id="a_node25"><a xlink:href="ListCell_8cpp.html" target="_top" xlink:title="This file defines the class ListCell.">
<polygon fill="white" stroke="black" points="3354,-6 3354,-25 3470,-25 3470,-6 3354,-6"/>
<text text-anchor="middle" x="3412" y="-13" font-family="Helvetica,sans-Serif" font-size="10.00">src/cells/ListCell.cpp</text>
</a>
</g>
</g>
<!-- Node1&#45;&gt;Node25 -->
<g id="edge24" class="edge">
<title>Node1&#45;&gt;Node25</title>
<path fill="none" stroke="midnightblue" d="M2275.99,-74.9C2484.62,-71.15 3135.97,-57.56 3345,-31 3355.86,-29.62 3367.57,-27.36 3378.11,-25.03"/>
<polygon fill="midnightblue" stroke="midnightblue" points="2275.74,-71.41 2265.81,-75.09 2275.87,-78.41 2275.74,-71.41"/>
</g>
<!-- Node26 -->
<g id="node26" class="node">
<title>Node26</title>
<g id="a_node26"><a xlink:href="SetCell_8cpp.html" target="_top" xlink:title="This file defines the class SetCell.">
<polygon fill="white" stroke="black" points="3488,-6 3488,-25 3602,-25 3602,-6 3488,-6"/>
<text text-anchor="middle" x="3545" y="-13" font-family="Helvetica,sans-Serif" font-size="10.00">src/cells/SetCell.cpp</text>
</a>
</g>
</g>
<!-- Node1&#45;&gt;Node26 -->
<g id="edge25" class="edge">
<title>Node1&#45;&gt;Node26</title>
<path fill="none" stroke="midnightblue" d="M2275.92,-75.25C2500.37,-72.4 3242.64,-60.91 3479,-31 3489.71,-29.65 3501.24,-27.39 3511.63,-25.06"/>
<polygon fill="midnightblue" stroke="midnightblue" points="2275.59,-71.75 2265.63,-75.38 2275.67,-78.75 2275.59,-71.75"/>
</g>
<!-- Node27 -->
<g id="node27" class="node">
<title>Node27</title>
<g id="a_node27"><a xlink:href="SqrtCell_8cpp.html" target="_top" xlink:title="This file defines the class SqrtCell.">
<polygon fill="white" stroke="black" points="3620,-6 3620,-25 3738,-25 3738,-6 3620,-6"/>
<text text-anchor="middle" x="3679" y="-13" font-family="Helvetica,sans-Serif" font-size="10.00">src/cells/SqrtCell.cpp</text>
</a>
</g>
</g>
<!-- Node1&#45;&gt;Node27 -->
<g id="edge26" class="edge">
<title>Node1&#45;&gt;Node27</title>
<path fill="none" stroke="midnightblue" d="M2276.15,-75.44C2515.72,-73.16 3347.57,-63.06 3611,-31 3622.02,-29.66 3633.91,-27.41 3644.61,-25.08"/>
<polygon fill="midnightblue" stroke="midnightblue" points="2275.83,-71.95 2265.86,-75.54 2275.89,-78.95 2275.83,-71.95"/>
</g>
<!-- Node28 -->
<g id="node28" class="node">
<title>Node28</title>
<g id="a_node28"><a xlink:href="SubCell_8cpp.html" target="_top" xlink:title="This file defines the class SubCell.">
<polygon fill="white" stroke="black" points="3756,-6 3756,-25 3872,-25 3872,-6 3756,-6"/>
<text text-anchor="middle" x="3814" y="-13" font-family="Helvetica,sans-Serif" font-size="10.00">src/cells/SubCell.cpp</text>
</a>
</g>
</g>
<!-- Node1&#45;&gt;Node28 -->
<g id="edge27" class="edge">
<title>Node1&#45;&gt;Node28</title>
<path fill="none" stroke="midnightblue" d="M2276.04,-75.69C2530.07,-74.22 3455.6,-66.5 3747,-31 3757.99,-29.66 3769.83,-27.38 3780.46,-25.02"/>
<polygon fill="midnightblue" stroke="midnightblue" points="2275.85,-72.19 2265.87,-75.74 2275.89,-79.19 2275.85,-72.19"/>
</g>
<!-- Node29 -->
<g id="node29" class="node">
<title>Node29</title>
<g id="a_node29"><a xlink:href="SumCell_8cpp.html" target="_top" xlink:title="This file defines the class SumCell.">
<polygon fill="white" stroke="black" points="3890,-6 3890,-25 4010,-25 4010,-6 3890,-6"/>
<text text-anchor="middle" x="3950" y="-13" font-family="Helvetica,sans-Serif" font-size="10.00">src/cells/SumCell.cpp</text>
</a>
</g>
</g>
<!-- Node1&#45;&gt;Node29 -->
<g id="edge28" class="edge">
<title>Node1&#45;&gt;Node29</title>
<path fill="none" stroke="midnightblue" d="M2275.84,-75.81C2543.3,-74.81 3561.75,-68.54 3881,-31 3892.31,-29.67 3904.5,-27.39 3915.45,-25.03"/>
<polygon fill="midnightblue" stroke="midnightblue" points="2275.51,-72.32 2265.53,-75.85 2275.54,-79.32 2275.51,-72.32"/>
</g>
<!-- Node30 -->
<g id="node30" class="node">
<title>Node30</title>
<g id="a_node30"><a xlink:href="SubSupCell_8cpp.html" target="_top" xlink:title="This file defines the class SubSupCell.">
<polygon fill="white" stroke="black" points="4028,-6 4028,-25 4162,-25 4162,-6 4028,-6"/>
<text text-anchor="middle" x="4095" y="-13" font-family="Helvetica,sans-Serif" font-size="10.00">src/cells/SubSupCell.cpp</text>
</a>
</g>
</g>
<!-- Node1&#45;&gt;Node30 -->
<g id="edge29" class="edge">
<title>Node1&#45;&gt;Node30</title>
<path fill="none" stroke="midnightblue" d="M2275.59,-75.81C2556.16,-74.77 3670.71,-68.31 4019,-31 4031.42,-29.67 4044.85,-27.39 4056.91,-25.03"/>
<polygon fill="midnightblue" stroke="midnightblue" points="2275.56,-72.31 2265.57,-75.85 2275.58,-79.31 2275.56,-72.31"/>
</g>
<!-- Node31 -->
<g id="node31" class="node">
<title>Node31</title>
<g id="a_node31"><a xlink:href="VisiblyInvalidCell_8cpp.html" target="_top" xlink:title="This file defines the class VisiblyInvalidCell.">
<polygon fill="white" stroke="black" points="4180.5,-0.5 4180.5,-30.5 4305.5,-30.5 4305.5,-0.5 4180.5,-0.5"/>
<text text-anchor="start" x="4188.5" y="-18.5" font-family="Helvetica,sans-Serif" font-size="10.00">src/cells/VisiblyInvalid</text>
<text text-anchor="middle" x="4243" y="-7.5" font-family="Helvetica,sans-Serif" font-size="10.00">Cell.cpp</text>
</a>
</g>
</g>
<!-- Node1&#45;&gt;Node31 -->
<g id="edge30" class="edge">
<title>Node1&#45;&gt;Node31</title>
<path fill="none" stroke="midnightblue" d="M2275.62,-76.04C2570.62,-76.01 3791.34,-73.26 4171,-31 4174.04,-30.66 4177.15,-30.26 4180.27,-29.81"/>
<polygon fill="midnightblue" stroke="midnightblue" points="2275.52,-72.54 2265.52,-76.04 2275.52,-79.54 2275.52,-72.54"/>
</g>
<!-- Node32 -->
<g id="node32" class="node">
<title>Node32</title>
<g id="a_node32"><a xlink:href="TextCell_8cpp.html" target="_top" xlink:title="This file defines the class TextCell.">
<polygon fill="white" stroke="black" points="4323.5,-6 4323.5,-25 4442.5,-25 4442.5,-6 4323.5,-6"/>
<text text-anchor="middle" x="4383" y="-13" font-family="Helvetica,sans-Serif" font-size="10.00">src/cells/TextCell.cpp</text>
</a>
</g>
</g>
<!-- Node1&#45;&gt;Node32 -->
<g id="edge31" class="edge">
<title>Node1&#45;&gt;Node32</title>
<path fill="none" stroke="midnightblue" d="M2275.8,-76.26C2584.24,-77.25 3905.7,-78.58 4315,-31 4326.15,-29.7 4338.17,-27.44 4348.96,-25.07"/>
<polygon fill="midnightblue" stroke="midnightblue" points="2275.69,-72.76 2265.68,-76.23 2275.67,-79.76 2275.69,-72.76"/>
</g>
</g>
</svg>
