<?xml version="1.0" encoding="UTF-8" standalone="no"?>
<!DOCTYPE svg PUBLIC "-//W3C//DTD SVG 1.1//EN"
 "http://www.w3.org/Graphics/SVG/1.1/DTD/svg11.dtd">
<!-- Generated by graphviz version 2.43.0 (0)
 -->
<!-- Title: src/sidebars/CharButton.cpp Pages: 1 -->
<svg width="2183pt" height="476pt"
 viewBox="0.00 0.00 2182.50 476.00" xmlns="http://www.w3.org/2000/svg" xmlns:xlink="http://www.w3.org/1999/xlink">
<g id="graph0" class="graph" transform="scale(1 1) rotate(0) translate(4 472)">
<title>src/sidebars/CharButton.cpp</title>
<polygon fill="white" stroke="transparent" points="-4,4 -4,-472 2178.5,-472 2178.5,4 -4,4"/>
<!-- Node1 -->
<g id="node1" class="node">
<title>Node1</title>
<g id="a_node1"><a xlink:title="This file defines the class CharacterButton.">
<polygon fill="#bfbfbf" stroke="black" points="1773,-448.5 1773,-467.5 1926,-467.5 1926,-448.5 1773,-448.5"/>
<text text-anchor="middle" x="1849.5" y="-455.5" font-family="Helvetica,sans-Serif" font-size="10.00">src/sidebars/CharButton.cpp</text>
</a>
</g>
</g>
<!-- Node2 -->
<g id="node2" class="node">
<title>Node2</title>
<g id="a_node2"><a xlink:href="CharButton_8h.html" target="_top" xlink:title="This file contains the definition of the class Charbutton that allows to select arbitrary unicode sym...">
<polygon fill="white" stroke="black" points="247.5,-280.5 247.5,-299.5 327.5,-299.5 327.5,-280.5 247.5,-280.5"/>
<text text-anchor="middle" x="287.5" y="-287.5" font-family="Helvetica,sans-Serif" font-size="10.00">CharButton.h</text>
</a>
</g>
</g>
<!-- Node1&#45;&gt;Node2 -->
<g id="edge1" class="edge">
<title>Node1&#45;&gt;Node2</title>
<path fill="none" stroke="midnightblue" d="M1772.99,-456.96C1474.46,-456.52 401.4,-452.15 341.5,-412 306.73,-388.7 294.11,-337.4 289.71,-309.67"/>
<polygon fill="midnightblue" stroke="midnightblue" points="293.17,-309.11 288.33,-299.69 286.24,-310.07 293.17,-309.11"/>
</g>
<!-- Node23 -->
<g id="node23" class="node">
<title>Node23</title>
<g id="a_node23"><a xlink:title=" ">
<polygon fill="white" stroke="#bfbfbf" points="154.5,-112.5 154.5,-131.5 236.5,-131.5 236.5,-112.5 154.5,-112.5"/>
<text text-anchor="middle" x="195.5" y="-119.5" font-family="Helvetica,sans-Serif" font-size="10.00">wx/settings.h</text>
</a>
</g>
</g>
<!-- Node1&#45;&gt;Node23 -->
<g id="edge75" class="edge">
<title>Node1&#45;&gt;Node23</title>
<path fill="none" stroke="midnightblue" d="M1772.84,-455.41C1467.65,-448.59 355.5,-418.81 355.5,-347 355.5,-347 355.5,-347 355.5,-289 355.5,-258.77 353.12,-248.56 335.5,-224 306.22,-183.17 255.24,-152.5 223.55,-136.19"/>
<polygon fill="midnightblue" stroke="midnightblue" points="224.88,-132.95 214.38,-131.6 221.75,-139.21 224.88,-132.95"/>
</g>
<!-- Node47 -->
<g id="node43" class="node">
<title>Node47</title>
<g id="a_node43"><a xlink:href="UnicodeSidebar_8h.html" target="_top" xlink:title="This file contains the definition of the class Unicodesidebar that allows to select arbitrary unicode...">
<polygon fill="white" stroke="black" points="1799,-392.5 1799,-411.5 1900,-411.5 1900,-392.5 1799,-392.5"/>
<text text-anchor="middle" x="1849.5" y="-399.5" font-family="Helvetica,sans-Serif" font-size="10.00">UnicodeSidebar.h</text>
</a>
</g>
</g>
<!-- Node1&#45;&gt;Node47 -->
<g id="edge59" class="edge">
<title>Node1&#45;&gt;Node47</title>
<path fill="none" stroke="midnightblue" d="M1849.5,-448.08C1849.5,-441.01 1849.5,-430.86 1849.5,-421.99"/>
<polygon fill="midnightblue" stroke="midnightblue" points="1853,-421.75 1849.5,-411.75 1846,-421.75 1853,-421.75"/>
</g>
<!-- Node53 -->
<g id="node49" class="node">
<title>Node53</title>
<g id="a_node49"><a xlink:title=" ">
<polygon fill="white" stroke="#bfbfbf" points="1918,-392.5 1918,-411.5 1983,-411.5 1983,-392.5 1918,-392.5"/>
<text text-anchor="middle" x="1950.5" y="-399.5" font-family="Helvetica,sans-Serif" font-size="10.00">wx/sizer.h</text>
</a>
</g>
</g>
<!-- Node1&#45;&gt;Node53 -->
<g id="edge73" class="edge">
<title>Node1&#45;&gt;Node53</title>
<path fill="none" stroke="midnightblue" d="M1865.73,-448.32C1881.85,-439.7 1906.8,-426.36 1925.46,-416.39"/>
<polygon fill="midnightblue" stroke="midnightblue" points="1927.14,-419.46 1934.31,-411.65 1923.84,-413.28 1927.14,-419.46"/>
</g>
<!-- Node54 -->
<g id="node50" class="node">
<title>Node54</title>
<g id="a_node50"><a xlink:title=" ">
<polygon fill="white" stroke="#bfbfbf" points="2001.5,-392.5 2001.5,-411.5 2083.5,-411.5 2083.5,-392.5 2001.5,-392.5"/>
<text text-anchor="middle" x="2042.5" y="-399.5" font-family="Helvetica,sans-Serif" font-size="10.00">wx/dcbuffer.h</text>
</a>
</g>
</g>
<!-- Node1&#45;&gt;Node54 -->
<g id="edge74" class="edge">
<title>Node1&#45;&gt;Node54</title>
<path fill="none" stroke="midnightblue" d="M1880.08,-448.44C1913.11,-439.2 1965.89,-424.44 2002.27,-414.26"/>
<polygon fill="midnightblue" stroke="midnightblue" points="2003.37,-417.58 2012.06,-411.52 2001.49,-410.84 2003.37,-417.58"/>
</g>
<!-- Node3 -->
<g id="node3" class="node">
<title>Node3</title>
<g id="a_node3"><a xlink:href="precomp_8h_source.html" target="_top" xlink:title=" ">
<polygon fill="white" stroke="black" points="1800.5,-56.5 1800.5,-75.5 1868.5,-75.5 1868.5,-56.5 1800.5,-56.5"/>
<text text-anchor="middle" x="1834.5" y="-63.5" font-family="Helvetica,sans-Serif" font-size="10.00">precomp.h</text>
</a>
</g>
</g>
<!-- Node2&#45;&gt;Node3 -->
<g id="edge2" class="edge">
<title>Node2&#45;&gt;Node3</title>
<path fill="none" stroke="midnightblue" d="M327.71,-280.91C467.66,-253.03 946.75,-160.08 1346.5,-112 1509.69,-92.37 1704.5,-76.74 1790.26,-70.25"/>
<polygon fill="midnightblue" stroke="midnightblue" points="1790.7,-73.73 1800.41,-69.49 1790.18,-66.75 1790.7,-73.73"/>
</g>
<!-- Node5 -->
<g id="node5" class="node">
<title>Node5</title>
<g id="a_node5"><a xlink:href="StringUtils_8h_source.html" target="_top" xlink:title=" ">
<polygon fill="white" stroke="black" points="62,-224.5 62,-243.5 139,-243.5 139,-224.5 62,-224.5"/>
<text text-anchor="middle" x="100.5" y="-231.5" font-family="Helvetica,sans-Serif" font-size="10.00">StringUtils.h</text>
</a>
</g>
</g>
<!-- Node2&#45;&gt;Node5 -->
<g id="edge4" class="edge">
<title>Node2&#45;&gt;Node5</title>
<path fill="none" stroke="midnightblue" d="M257.87,-280.44C226,-271.24 175.17,-256.56 139.94,-246.39"/>
<polygon fill="midnightblue" stroke="midnightblue" points="140.57,-242.93 129.99,-243.52 138.63,-249.65 140.57,-242.93"/>
</g>
<!-- Node8 -->
<g id="node8" class="node">
<title>Node8</title>
<g id="a_node8"><a xlink:href="Configuration_8h_source.html" target="_top" xlink:title=" ">
<polygon fill="white" stroke="black" points="1253,-224.5 1253,-243.5 1344,-243.5 1344,-224.5 1253,-224.5"/>
<text text-anchor="middle" x="1298.5" y="-231.5" font-family="Helvetica,sans-Serif" font-size="10.00">Configuration.h</text>
</a>
</g>
</g>
<!-- Node2&#45;&gt;Node8 -->
<g id="edge7" class="edge">
<title>Node2&#45;&gt;Node8</title>
<path fill="none" stroke="midnightblue" d="M327.76,-286.85C485.28,-278.44 1060.15,-247.73 1242.56,-237.99"/>
<polygon fill="midnightblue" stroke="midnightblue" points="1242.94,-241.47 1252.74,-237.44 1242.56,-234.48 1242.94,-241.47"/>
</g>
<!-- Node45 -->
<g id="node41" class="node">
<title>Node45</title>
<g id="a_node41"><a xlink:title=" ">
<polygon fill="white" stroke="#bfbfbf" points="157.5,-224.5 157.5,-243.5 227.5,-243.5 227.5,-224.5 157.5,-224.5"/>
<text text-anchor="middle" x="192.5" y="-231.5" font-family="Helvetica,sans-Serif" font-size="10.00">wx/panel.h</text>
</a>
</g>
</g>
<!-- Node2&#45;&gt;Node45 -->
<g id="edge57" class="edge">
<title>Node2&#45;&gt;Node45</title>
<path fill="none" stroke="midnightblue" d="M272.24,-280.32C257.28,-271.82 234.25,-258.73 216.77,-248.8"/>
<polygon fill="midnightblue" stroke="midnightblue" points="218.15,-245.55 207.73,-243.65 214.69,-251.64 218.15,-245.55"/>
</g>
<!-- Node46 -->
<g id="node42" class="node">
<title>Node46</title>
<g id="a_node42"><a xlink:title=" ">
<polygon fill="white" stroke="#bfbfbf" points="246,-224.5 246,-243.5 327,-243.5 327,-224.5 246,-224.5"/>
<text text-anchor="middle" x="286.5" y="-231.5" font-family="Helvetica,sans-Serif" font-size="10.00">wx/stattext.h</text>
</a>
</g>
</g>
<!-- Node2&#45;&gt;Node46 -->
<g id="edge58" class="edge">
<title>Node2&#45;&gt;Node46</title>
<path fill="none" stroke="midnightblue" d="M287.33,-280.08C287.2,-273.01 287.02,-262.86 286.85,-253.99"/>
<polygon fill="midnightblue" stroke="midnightblue" points="290.35,-253.68 286.66,-243.75 283.35,-253.81 290.35,-253.68"/>
</g>
<!-- Node4 -->
<g id="node4" class="node">
<title>Node4</title>
<g id="a_node4"><a xlink:href="Version_8h_source.html" target="_top" xlink:title=" ">
<polygon fill="white" stroke="black" points="1803.5,-0.5 1803.5,-19.5 1865.5,-19.5 1865.5,-0.5 1803.5,-0.5"/>
<text text-anchor="middle" x="1834.5" y="-7.5" font-family="Helvetica,sans-Serif" font-size="10.00">Version.h</text>
</a>
</g>
</g>
<!-- Node3&#45;&gt;Node4 -->
<g id="edge3" class="edge">
<title>Node3&#45;&gt;Node4</title>
<path fill="none" stroke="midnightblue" d="M1834.5,-56.08C1834.5,-49.01 1834.5,-38.86 1834.5,-29.99"/>
<polygon fill="midnightblue" stroke="midnightblue" points="1838,-29.75 1834.5,-19.75 1831,-29.75 1838,-29.75"/>
</g>
<!-- Node6 -->
<g id="node6" class="node">
<title>Node6</title>
<g id="a_node6"><a xlink:title=" ">
<polygon fill="white" stroke="#bfbfbf" points="113,-168.5 113,-187.5 184,-187.5 184,-168.5 113,-168.5"/>
<text text-anchor="middle" x="148.5" y="-175.5" font-family="Helvetica,sans-Serif" font-size="10.00">wx/string.h</text>
</a>
</g>
</g>
<!-- Node5&#45;&gt;Node6 -->
<g id="edge5" class="edge">
<title>Node5&#45;&gt;Node6</title>
<path fill="none" stroke="midnightblue" d="M108.43,-224.08C115.35,-216.3 125.57,-204.8 133.95,-195.37"/>
<polygon fill="midnightblue" stroke="midnightblue" points="136.69,-197.55 140.72,-187.75 131.46,-192.9 136.69,-197.55"/>
</g>
<!-- Node7 -->
<g id="node7" class="node">
<title>Node7</title>
<g id="a_node7"><a xlink:title=" ">
<polygon fill="white" stroke="#bfbfbf" points="0,-168.5 0,-187.5 95,-187.5 95,-168.5 0,-168.5"/>
<text text-anchor="middle" x="47.5" y="-175.5" font-family="Helvetica,sans-Serif" font-size="10.00">wx/translation.h</text>
</a>
</g>
</g>
<!-- Node5&#45;&gt;Node7 -->
<g id="edge6" class="edge">
<title>Node5&#45;&gt;Node7</title>
<path fill="none" stroke="midnightblue" d="M91.75,-224.08C84.03,-216.22 72.6,-204.57 63.28,-195.08"/>
<polygon fill="midnightblue" stroke="midnightblue" points="65.59,-192.44 56.09,-187.75 60.6,-197.34 65.59,-192.44"/>
</g>
<!-- Node8&#45;&gt;Node3 -->
<g id="edge8" class="edge">
<title>Node8&#45;&gt;Node3</title>
<path fill="none" stroke="midnightblue" d="M1344.35,-233.23C1482.55,-233.46 1887.96,-230.47 1927.5,-188 1961.12,-151.89 1896.62,-104.29 1858.96,-81.02"/>
<polygon fill="midnightblue" stroke="midnightblue" points="1860.41,-77.81 1850.04,-75.65 1856.8,-83.81 1860.41,-77.81"/>
</g>
<!-- Node9 -->
<g id="node9" class="node">
<title>Node9</title>
<g id="a_node9"><a xlink:title=" ">
<polygon fill="white" stroke="#bfbfbf" points="2013,-168.5 2013,-187.5 2070,-187.5 2070,-168.5 2013,-168.5"/>
<text text-anchor="middle" x="2041.5" y="-175.5" font-family="Helvetica,sans-Serif" font-size="10.00">wx/wx.h</text>
</a>
</g>
</g>
<!-- Node8&#45;&gt;Node9 -->
<g id="edge9" class="edge">
<title>Node8&#45;&gt;Node9</title>
<path fill="none" stroke="midnightblue" d="M1344.3,-230.56C1451.93,-224.69 1729.3,-208.69 1960.5,-188 1974.18,-186.78 1989.13,-185.19 2002.42,-183.68"/>
<polygon fill="midnightblue" stroke="midnightblue" points="2003.13,-187.13 2012.66,-182.51 2002.33,-180.17 2003.13,-187.13"/>
</g>
<!-- Node10 -->
<g id="node10" class="node">
<title>Node10</title>
<g id="a_node10"><a xlink:title=" ">
<polygon fill="white" stroke="#bfbfbf" points="1032.5,-112.5 1032.5,-131.5 1104.5,-131.5 1104.5,-112.5 1032.5,-112.5"/>
<text text-anchor="middle" x="1068.5" y="-119.5" font-family="Helvetica,sans-Serif" font-size="10.00">wx/config.h</text>
</a>
</g>
</g>
<!-- Node8&#45;&gt;Node10 -->
<g id="edge10" class="edge">
<title>Node8&#45;&gt;Node10</title>
<path fill="none" stroke="midnightblue" d="M1252.97,-230.66C1160.39,-225.42 957.15,-211.38 936.5,-188 930.62,-181.34 931.33,-175.23 936.5,-168 946.86,-153.53 988.84,-140.84 1022.71,-132.66"/>
<polygon fill="midnightblue" stroke="midnightblue" points="1023.53,-136.06 1032.47,-130.37 1021.93,-129.25 1023.53,-136.06"/>
</g>
<!-- Node11 -->
<g id="node11" class="node">
<title>Node11</title>
<g id="a_node11"><a xlink:title=" ">
<polygon fill="white" stroke="#bfbfbf" points="979,-168.5 979,-187.5 1056,-187.5 1056,-168.5 979,-168.5"/>
<text text-anchor="middle" x="1017.5" y="-175.5" font-family="Helvetica,sans-Serif" font-size="10.00">wx/display.h</text>
</a>
</g>
</g>
<!-- Node8&#45;&gt;Node11 -->
<g id="edge11" class="edge">
<title>Node8&#45;&gt;Node11</title>
<path fill="none" stroke="midnightblue" d="M1253.97,-224.44C1202.8,-214.61 1119.08,-198.52 1066.21,-188.36"/>
<polygon fill="midnightblue" stroke="midnightblue" points="1066.87,-184.92 1056.39,-186.47 1065.55,-191.8 1066.87,-184.92"/>
</g>
<!-- Node12 -->
<g id="node12" class="node">
<title>Node12</title>
<g id="a_node12"><a xlink:title=" ">
<polygon fill="white" stroke="#bfbfbf" points="1074.5,-168.5 1074.5,-187.5 1164.5,-187.5 1164.5,-168.5 1074.5,-168.5"/>
<text text-anchor="middle" x="1119.5" y="-175.5" font-family="Helvetica,sans-Serif" font-size="10.00">wx/fontenum.h</text>
</a>
</g>
</g>
<!-- Node8&#45;&gt;Node12 -->
<g id="edge12" class="edge">
<title>Node8&#45;&gt;Node12</title>
<path fill="none" stroke="midnightblue" d="M1270.14,-224.44C1239.76,-215.28 1191.39,-200.69 1157.68,-190.52"/>
<polygon fill="midnightblue" stroke="midnightblue" points="1158.32,-187.05 1147.73,-187.52 1156.29,-193.76 1158.32,-187.05"/>
</g>
<!-- Node13 -->
<g id="node13" class="node">
<title>Node13</title>
<g id="a_node13"><a xlink:title=" ">
<polygon fill="white" stroke="#bfbfbf" points="1182.5,-168.5 1182.5,-187.5 1270.5,-187.5 1270.5,-168.5 1182.5,-168.5"/>
<text text-anchor="middle" x="1226.5" y="-175.5" font-family="Helvetica,sans-Serif" font-size="10.00">wx/hashmap.h</text>
</a>
</g>
</g>
<!-- Node8&#45;&gt;Node13 -->
<g id="edge13" class="edge">
<title>Node8&#45;&gt;Node13</title>
<path fill="none" stroke="midnightblue" d="M1286.93,-224.32C1276.08,-216.18 1259.62,-203.84 1246.62,-194.09"/>
<polygon fill="midnightblue" stroke="midnightblue" points="1248.38,-191.03 1238.28,-187.83 1244.18,-196.63 1248.38,-191.03"/>
</g>
<!-- Node14 -->
<g id="node14" class="node">
<title>Node14</title>
<g id="a_node14"><a xlink:href="LoggingMessageDialog_8h.html" target="_top" xlink:title="This file declares a message dialog that sends its contents to the log message sink.">
<polygon fill="white" stroke="black" points="1326,-168.5 1326,-187.5 1503,-187.5 1503,-168.5 1326,-168.5"/>
<text text-anchor="middle" x="1414.5" y="-175.5" font-family="Helvetica,sans-Serif" font-size="10.00">dialogs/LoggingMessageDialog.h</text>
</a>
</g>
</g>
<!-- Node8&#45;&gt;Node14 -->
<g id="edge14" class="edge">
<title>Node8&#45;&gt;Node14</title>
<path fill="none" stroke="midnightblue" d="M1316.88,-224.44C1335.72,-215.68 1365.23,-201.94 1386.88,-191.86"/>
<polygon fill="midnightblue" stroke="midnightblue" points="1388.62,-194.91 1396.21,-187.52 1385.66,-188.56 1388.62,-194.91"/>
</g>
<!-- Node17 -->
<g id="node17" class="node">
<title>Node17</title>
<g id="a_node17"><a xlink:href="TextStyle_8h.html" target="_top" xlink:title="This file declares everything needed for the text style system used to style all the elements on the ...">
<polygon fill="white" stroke="black" points="509.5,-168.5 509.5,-187.5 605.5,-187.5 605.5,-168.5 509.5,-168.5"/>
<text text-anchor="middle" x="557.5" y="-175.5" font-family="Helvetica,sans-Serif" font-size="10.00">cells/TextStyle.h</text>
</a>
</g>
</g>
<!-- Node8&#45;&gt;Node17 -->
<g id="edge18" class="edge">
<title>Node8&#45;&gt;Node17</title>
<path fill="none" stroke="midnightblue" d="M1252.98,-229.68C1124.58,-220.33 759.52,-193.72 616.24,-183.28"/>
<polygon fill="midnightblue" stroke="midnightblue" points="616.14,-179.76 605.91,-182.53 615.63,-186.75 616.14,-179.76"/>
</g>
<!-- Node24 -->
<g id="node24" class="node">
<title>Node24</title>
<g id="a_node24"><a xlink:title=" ">
<polygon fill="white" stroke="#bfbfbf" points="183.5,-56.5 183.5,-75.5 233.5,-75.5 233.5,-56.5 183.5,-56.5"/>
<text text-anchor="middle" x="208.5" y="-63.5" font-family="Helvetica,sans-Serif" font-size="10.00">cstdint</text>
</a>
</g>
</g>
<!-- Node8&#45;&gt;Node24 -->
<g id="edge47" class="edge">
<title>Node8&#45;&gt;Node24</title>
<path fill="none" stroke="midnightblue" d="M1252.73,-232.67C1047.47,-230.73 218.65,-217.59 145.5,-132 129.46,-113.23 156.85,-93.01 180.39,-80.19"/>
<polygon fill="midnightblue" stroke="midnightblue" points="182.18,-83.21 189.46,-75.5 178.97,-76.99 182.18,-83.21"/>
</g>
<!-- Node33 -->
<g id="node30" class="node">
<title>Node33</title>
<g id="a_node30"><a xlink:title=" ">
<polygon fill="white" stroke="#bfbfbf" points="664.5,-56.5 664.5,-75.5 728.5,-75.5 728.5,-56.5 664.5,-56.5"/>
<text text-anchor="middle" x="696.5" y="-63.5" font-family="Helvetica,sans-Serif" font-size="10.00">algorithm</text>
</a>
</g>
</g>
<!-- Node8&#45;&gt;Node33 -->
<g id="edge54" class="edge">
<title>Node8&#45;&gt;Node33</title>
<path fill="none" stroke="midnightblue" d="M1252.66,-231.06C1159.04,-226.6 949.08,-213.96 882.5,-188 829.49,-167.34 827.51,-142.52 779.5,-112 761.23,-100.39 739.72,-88.78 723.17,-80.26"/>
<polygon fill="midnightblue" stroke="midnightblue" points="724.57,-77.04 714.07,-75.63 721.39,-83.28 724.57,-77.04"/>
</g>
<!-- Node36 -->
<g id="node33" class="node">
<title>Node36</title>
<g id="a_node33"><a xlink:title=" ">
<polygon fill="white" stroke="#bfbfbf" points="1040.5,-56.5 1040.5,-75.5 1098.5,-75.5 1098.5,-56.5 1040.5,-56.5"/>
<text text-anchor="middle" x="1069.5" y="-63.5" font-family="Helvetica,sans-Serif" font-size="10.00">memory</text>
</a>
</g>
</g>
<!-- Node8&#45;&gt;Node36 -->
<g id="edge48" class="edge">
<title>Node8&#45;&gt;Node36</title>
<path fill="none" stroke="midnightblue" d="M1252.96,-233.79C1171.45,-234.13 1005.74,-229.54 969.5,-188 963.66,-181.3 964.03,-175.01 969.5,-168 1010.1,-116 1072.9,-184 1113.5,-132 1126.35,-115.54 1108.04,-95.48 1091.28,-82.04"/>
<polygon fill="midnightblue" stroke="midnightblue" points="1092.91,-78.9 1082.82,-75.67 1088.7,-84.49 1092.91,-78.9"/>
</g>
<!-- Node37 -->
<g id="node34" class="node">
<title>Node37</title>
<g id="a_node34"><a xlink:title=" ">
<polygon fill="white" stroke="#bfbfbf" points="1199.5,-56.5 1199.5,-75.5 1231.5,-75.5 1231.5,-56.5 1199.5,-56.5"/>
<text text-anchor="middle" x="1215.5" y="-63.5" font-family="Helvetica,sans-Serif" font-size="10.00">list</text>
</a>
</g>
</g>
<!-- Node8&#45;&gt;Node37 -->
<g id="edge52" class="edge">
<title>Node8&#45;&gt;Node37</title>
<path fill="none" stroke="midnightblue" d="M1296.78,-224.31C1294.07,-211.58 1288.22,-187.28 1279.5,-168 1265.25,-136.48 1242.44,-103.21 1228.25,-83.82"/>
<polygon fill="midnightblue" stroke="midnightblue" points="1231,-81.64 1222.22,-75.71 1225.38,-85.82 1231,-81.64"/>
</g>
<!-- Node39 -->
<g id="node35" class="node">
<title>Node39</title>
<g id="a_node35"><a xlink:title=" ">
<polygon fill="white" stroke="#bfbfbf" points="827,-56.5 827,-75.5 920,-75.5 920,-56.5 827,-56.5"/>
<text text-anchor="middle" x="873.5" y="-63.5" font-family="Helvetica,sans-Serif" font-size="10.00">unordered_map</text>
</a>
</g>
</g>
<!-- Node8&#45;&gt;Node39 -->
<g id="edge50" class="edge">
<title>Node8&#45;&gt;Node39</title>
<path fill="none" stroke="midnightblue" d="M1252.81,-230.45C1167.25,-225.2 986.31,-211.61 928.5,-188 890.64,-172.54 873.59,-168.67 855.5,-132 848,-116.79 854.75,-97.98 862.02,-84.52"/>
<polygon fill="midnightblue" stroke="midnightblue" points="865.11,-86.17 867.22,-75.79 859.1,-82.59 865.11,-86.17"/>
</g>
<!-- Node40 -->
<g id="node36" class="node">
<title>Node40</title>
<g id="a_node36"><a xlink:title=" ">
<polygon fill="white" stroke="#bfbfbf" points="1521.5,-168.5 1521.5,-187.5 1569.5,-187.5 1569.5,-168.5 1521.5,-168.5"/>
<text text-anchor="middle" x="1545.5" y="-175.5" font-family="Helvetica,sans-Serif" font-size="10.00">mutex</text>
</a>
</g>
</g>
<!-- Node8&#45;&gt;Node40 -->
<g id="edge49" class="edge">
<title>Node8&#45;&gt;Node40</title>
<path fill="none" stroke="midnightblue" d="M1342.94,-224.45C1384.22,-216.33 1447.62,-203.41 1511.55,-188.12"/>
<polygon fill="midnightblue" stroke="midnightblue" points="1512.49,-191.5 1521.39,-185.75 1510.85,-184.69 1512.49,-191.5"/>
</g>
<!-- Node41 -->
<g id="node37" class="node">
<title>Node41</title>
<g id="a_node37"><a xlink:title=" ">
<polygon fill="white" stroke="#bfbfbf" points="1587.5,-168.5 1587.5,-187.5 1641.5,-187.5 1641.5,-168.5 1587.5,-168.5"/>
<text text-anchor="middle" x="1614.5" y="-175.5" font-family="Helvetica,sans-Serif" font-size="10.00">random</text>
</a>
</g>
</g>
<!-- Node8&#45;&gt;Node41 -->
<g id="edge51" class="edge">
<title>Node8&#45;&gt;Node41</title>
<path fill="none" stroke="midnightblue" d="M1344.31,-226.87C1397.93,-219.41 1489.58,-205.83 1577.55,-188.05"/>
<polygon fill="midnightblue" stroke="midnightblue" points="1578.33,-191.46 1587.43,-186.03 1576.93,-184.6 1578.33,-191.46"/>
</g>
<!-- Node42 -->
<g id="node38" class="node">
<title>Node42</title>
<g id="a_node38"><a xlink:title=" ">
<polygon fill="white" stroke="#bfbfbf" points="1660,-168.5 1660,-187.5 1707,-187.5 1707,-168.5 1660,-168.5"/>
<text text-anchor="middle" x="1683.5" y="-175.5" font-family="Helvetica,sans-Serif" font-size="10.00">vector</text>
</a>
</g>
</g>
<!-- Node8&#45;&gt;Node42 -->
<g id="edge53" class="edge">
<title>Node8&#45;&gt;Node42</title>
<path fill="none" stroke="midnightblue" d="M1344.11,-229.21C1409.63,-223.32 1534.28,-210.46 1649.73,-187.89"/>
<polygon fill="midnightblue" stroke="midnightblue" points="1650.67,-191.27 1659.8,-185.89 1649.31,-184.4 1650.67,-191.27"/>
</g>
<!-- Node43 -->
<g id="node39" class="node">
<title>Node43</title>
<g id="a_node39"><a xlink:title=" ">
<polygon fill="white" stroke="#bfbfbf" points="1725,-168.5 1725,-187.5 1814,-187.5 1814,-168.5 1725,-168.5"/>
<text text-anchor="middle" x="1769.5" y="-175.5" font-family="Helvetica,sans-Serif" font-size="10.00">wx/wupdlock.h</text>
</a>
</g>
</g>
<!-- Node8&#45;&gt;Node43 -->
<g id="edge55" class="edge">
<title>Node8&#45;&gt;Node43</title>
<path fill="none" stroke="midnightblue" d="M1344.07,-229.01C1419.21,-222.23 1574.01,-207.43 1714.88,-188.15"/>
<polygon fill="midnightblue" stroke="midnightblue" points="1715.57,-191.59 1725,-186.76 1714.61,-184.66 1715.57,-191.59"/>
</g>
<!-- Node44 -->
<g id="node40" class="node">
<title>Node44</title>
<g id="a_node40"><a xlink:title=" ">
<polygon fill="white" stroke="#bfbfbf" points="1832.5,-168.5 1832.5,-187.5 1918.5,-187.5 1918.5,-168.5 1832.5,-168.5"/>
<text text-anchor="middle" x="1875.5" y="-175.5" font-family="Helvetica,sans-Serif" font-size="10.00">wx/webview.h</text>
</a>
</g>
</g>
<!-- Node8&#45;&gt;Node44 -->
<g id="edge56" class="edge">
<title>Node8&#45;&gt;Node44</title>
<path fill="none" stroke="midnightblue" d="M1344.29,-230.4C1434.01,-225.03 1639.44,-211.3 1822.34,-188.04"/>
<polygon fill="midnightblue" stroke="midnightblue" points="1822.94,-191.5 1832.41,-186.75 1822.05,-184.55 1822.94,-191.5"/>
</g>
<!-- Node14&#45;&gt;Node3 -->
<g id="edge15" class="edge">
<title>Node14&#45;&gt;Node3</title>
<path fill="none" stroke="midnightblue" d="M1447.11,-168.46C1522.39,-148.74 1708.29,-100.05 1792.2,-78.08"/>
<polygon fill="midnightblue" stroke="midnightblue" points="1793.13,-81.45 1801.91,-75.53 1791.35,-74.68 1793.13,-81.45"/>
</g>
<!-- Node15 -->
<g id="node15" class="node">
<title>Node15</title>
<g id="a_node15"><a xlink:title=" ">
<polygon fill="white" stroke="#bfbfbf" points="1432,-112.5 1432,-131.5 1511,-131.5 1511,-112.5 1432,-112.5"/>
<text text-anchor="middle" x="1471.5" y="-119.5" font-family="Helvetica,sans-Serif" font-size="10.00">wx/msgdlg.h</text>
</a>
</g>
</g>
<!-- Node14&#45;&gt;Node15 -->
<g id="edge16" class="edge">
<title>Node14&#45;&gt;Node15</title>
<path fill="none" stroke="midnightblue" d="M1423.66,-168.32C1432,-160.42 1444.53,-148.55 1454.68,-138.94"/>
<polygon fill="midnightblue" stroke="midnightblue" points="1457.32,-141.25 1462.18,-131.83 1452.51,-136.17 1457.32,-141.25"/>
</g>
<!-- Node16 -->
<g id="node16" class="node">
<title>Node16</title>
<g id="a_node16"><a xlink:title=" ">
<polygon fill="white" stroke="#bfbfbf" points="1355.5,-112.5 1355.5,-131.5 1413.5,-131.5 1413.5,-112.5 1355.5,-112.5"/>
<text text-anchor="middle" x="1384.5" y="-119.5" font-family="Helvetica,sans-Serif" font-size="10.00">wx/log.h</text>
</a>
</g>
</g>
<!-- Node14&#45;&gt;Node16 -->
<g id="edge17" class="edge">
<title>Node14&#45;&gt;Node16</title>
<path fill="none" stroke="midnightblue" d="M1409.55,-168.08C1405.4,-160.61 1399.35,-149.72 1394.23,-140.52"/>
<polygon fill="midnightblue" stroke="midnightblue" points="1397.28,-138.79 1389.36,-131.75 1391.16,-142.19 1397.28,-138.79"/>
</g>
<!-- Node17&#45;&gt;Node3 -->
<g id="edge19" class="edge">
<title>Node17&#45;&gt;Node3</title>
<path fill="none" stroke="midnightblue" d="M605.69,-177.62C685.98,-177.41 851.44,-171.62 984.5,-132 1003.17,-126.44 1004.7,-117.1 1023.5,-112 1169.87,-72.33 1642.78,-67.56 1790.2,-67.04"/>
<polygon fill="midnightblue" stroke="midnightblue" points="1790.25,-70.54 1800.24,-67.01 1790.23,-63.54 1790.25,-70.54"/>
</g>
<!-- Node17&#45;&gt;Node10 -->
<g id="edge24" class="edge">
<title>Node17&#45;&gt;Node10</title>
<path fill="none" stroke="midnightblue" d="M605.77,-173.58C689.85,-167.33 868.55,-152.78 1018.5,-132 1019.75,-131.83 1021.02,-131.64 1022.3,-131.45"/>
<polygon fill="midnightblue" stroke="midnightblue" points="1022.9,-134.9 1032.23,-129.88 1021.81,-127.99 1022.9,-134.9"/>
</g>
<!-- Node18 -->
<g id="node18" class="node">
<title>Node18</title>
<g id="a_node18"><a xlink:title=" ">
<polygon fill="white" stroke="#bfbfbf" points="698.5,-112.5 698.5,-131.5 770.5,-131.5 770.5,-112.5 698.5,-112.5"/>
<text text-anchor="middle" x="734.5" y="-119.5" font-family="Helvetica,sans-Serif" font-size="10.00">wx/colour.h</text>
</a>
</g>
</g>
<!-- Node17&#45;&gt;Node18 -->
<g id="edge20" class="edge">
<title>Node17&#45;&gt;Node18</title>
<path fill="none" stroke="midnightblue" d="M585.55,-168.44C615.58,-159.28 663.41,-144.69 696.74,-134.52"/>
<polygon fill="midnightblue" stroke="midnightblue" points="698.04,-137.78 706.59,-131.52 696,-131.09 698.04,-137.78"/>
</g>
<!-- Node19 -->
<g id="node19" class="node">
<title>Node19</title>
<g id="a_node19"><a xlink:title=" ">
<polygon fill="white" stroke="#bfbfbf" points="428.5,-112.5 428.5,-131.5 466.5,-131.5 466.5,-112.5 428.5,-112.5"/>
<text text-anchor="middle" x="447.5" y="-119.5" font-family="Helvetica,sans-Serif" font-size="10.00">map</text>
</a>
</g>
</g>
<!-- Node17&#45;&gt;Node19 -->
<g id="edge21" class="edge">
<title>Node17&#45;&gt;Node19</title>
<path fill="none" stroke="midnightblue" d="M539.83,-168.32C522.11,-159.62 494.6,-146.12 474.21,-136.11"/>
<polygon fill="midnightblue" stroke="midnightblue" points="475.65,-132.92 465.13,-131.65 472.56,-139.2 475.65,-132.92"/>
</g>
<!-- Node20 -->
<g id="node20" class="node">
<title>Node20</title>
<g id="a_node20"><a xlink:title=" ">
<polygon fill="white" stroke="#bfbfbf" points="560.5,-112.5 560.5,-131.5 604.5,-131.5 604.5,-112.5 560.5,-112.5"/>
<text text-anchor="middle" x="582.5" y="-119.5" font-family="Helvetica,sans-Serif" font-size="10.00">string</text>
</a>
</g>
</g>
<!-- Node17&#45;&gt;Node20 -->
<g id="edge22" class="edge">
<title>Node17&#45;&gt;Node20</title>
<path fill="none" stroke="midnightblue" d="M561.63,-168.08C565.01,-160.77 569.92,-150.18 574.12,-141.1"/>
<polygon fill="midnightblue" stroke="midnightblue" points="577.42,-142.3 578.45,-131.75 571.07,-139.36 577.42,-142.3"/>
</g>
<!-- Node21 -->
<g id="node21" class="node">
<title>Node21</title>
<g id="a_node21"><a xlink:title=" ">
<polygon fill="white" stroke="#bfbfbf" points="623,-112.5 623,-131.5 680,-131.5 680,-112.5 623,-112.5"/>
<text text-anchor="middle" x="651.5" y="-119.5" font-family="Helvetica,sans-Serif" font-size="10.00">ostream</text>
</a>
</g>
</g>
<!-- Node17&#45;&gt;Node21 -->
<g id="edge23" class="edge">
<title>Node17&#45;&gt;Node21</title>
<path fill="none" stroke="midnightblue" d="M572.6,-168.32C587.4,-159.82 610.19,-146.73 627.48,-136.8"/>
<polygon fill="midnightblue" stroke="midnightblue" points="629.51,-139.67 636.43,-131.65 626.02,-133.6 629.51,-139.67"/>
</g>
<!-- Node22 -->
<g id="node22" class="node">
<title>Node22</title>
<g id="a_node22"><a xlink:title=" ">
<polygon fill="white" stroke="#bfbfbf" points="746.5,-56.5 746.5,-75.5 808.5,-75.5 808.5,-56.5 746.5,-56.5"/>
<text text-anchor="middle" x="777.5" y="-63.5" font-family="Helvetica,sans-Serif" font-size="10.00">wx/font.h</text>
</a>
</g>
</g>
<!-- Node17&#45;&gt;Node22 -->
<g id="edge25" class="edge">
<title>Node17&#45;&gt;Node22</title>
<path fill="none" stroke="midnightblue" d="M545.72,-168.42C529.25,-155.41 503,-130.26 518.5,-112 548.68,-76.46 674.24,-84.36 736.04,-75.89"/>
<polygon fill="midnightblue" stroke="midnightblue" points="736.79,-79.32 746.09,-74.25 735.66,-72.41 736.79,-79.32"/>
</g>
<!-- Node17&#45;&gt;Node23 -->
<g id="edge26" class="edge">
<title>Node17&#45;&gt;Node23</title>
<path fill="none" stroke="midnightblue" d="M509.34,-170.19C448.86,-161.59 341.93,-146.18 250.5,-132 249.24,-131.8 247.96,-131.6 246.67,-131.4"/>
<polygon fill="midnightblue" stroke="midnightblue" points="247.06,-127.92 236.63,-129.81 245.96,-134.83 247.06,-127.92"/>
</g>
<!-- Node17&#45;&gt;Node24 -->
<g id="edge27" class="edge">
<title>Node17&#45;&gt;Node24</title>
<path fill="none" stroke="midnightblue" d="M509.23,-172.55C460.62,-166.99 384.07,-155.21 321.5,-132 303.2,-125.21 258.25,-98.06 230.88,-81.07"/>
<polygon fill="midnightblue" stroke="midnightblue" points="232.67,-78.06 222.34,-75.74 228.97,-84 232.67,-78.06"/>
</g>
<!-- Node25 -->
<g id="node25" class="node">
<title>Node25</title>
<g id="a_node25"><a xlink:title=" ">
<polygon fill="white" stroke="#bfbfbf" points="567,-0.5 567,-19.5 632,-19.5 632,-0.5 567,-0.5"/>
<text text-anchor="middle" x="599.5" y="-7.5" font-family="Helvetica,sans-Serif" font-size="10.00">functional</text>
</a>
</g>
</g>
<!-- Node17&#45;&gt;Node25 -->
<g id="edge28" class="edge">
<title>Node17&#45;&gt;Node25</title>
<path fill="none" stroke="midnightblue" d="M509.39,-174.19C453.33,-169.78 358.55,-158.77 281.5,-132 264.21,-125.99 261.67,-120.58 245.5,-112 210.01,-93.15 147.62,-85.88 174.5,-56 199.78,-27.9 454.04,-16.03 556.78,-12.35"/>
<polygon fill="midnightblue" stroke="midnightblue" points="556.94,-15.84 566.81,-12 556.69,-8.85 556.94,-15.84"/>
</g>
<!-- Node26 -->
<g id="node26" class="node">
<title>Node26</title>
<g id="a_node26"><a xlink:href="FontAttribs_8h_source.html" target="_top" xlink:title=" ">
<polygon fill="white" stroke="black" points="331,-112.5 331,-131.5 410,-131.5 410,-112.5 331,-112.5"/>
<text text-anchor="middle" x="370.5" y="-119.5" font-family="Helvetica,sans-Serif" font-size="10.00">FontAttribs.h</text>
</a>
</g>
</g>
<!-- Node17&#45;&gt;Node26 -->
<g id="edge29" class="edge">
<title>Node17&#45;&gt;Node26</title>
<path fill="none" stroke="midnightblue" d="M527.87,-168.44C496,-159.24 445.17,-144.56 409.94,-134.39"/>
<polygon fill="midnightblue" stroke="midnightblue" points="410.57,-130.93 399.99,-131.52 408.63,-137.65 410.57,-130.93"/>
</g>
<!-- Node35 -->
<g id="node32" class="node">
<title>Node35</title>
<g id="a_node32"><a xlink:href="FontVariantCache_8h.html" target="_top" xlink:title="This file implements the wxFont cache system.">
<polygon fill="white" stroke="red" points="865,-112.5 865,-131.5 976,-131.5 976,-112.5 865,-112.5"/>
<text text-anchor="middle" x="920.5" y="-119.5" font-family="Helvetica,sans-Serif" font-size="10.00">FontVariantCache.h</text>
</a>
</g>
</g>
<!-- Node17&#45;&gt;Node35 -->
<g id="edge39" class="edge">
<title>Node17&#45;&gt;Node35</title>
<path fill="none" stroke="midnightblue" d="M605.7,-169.83C669.67,-160.31 782.87,-143.47 854.67,-132.79"/>
<polygon fill="midnightblue" stroke="midnightblue" points="855.58,-136.2 864.95,-131.26 854.55,-129.27 855.58,-136.2"/>
</g>
<!-- Node17&#45;&gt;Node39 -->
<g id="edge46" class="edge">
<title>Node17&#45;&gt;Node39</title>
<path fill="none" stroke="midnightblue" d="M553.09,-168.19C546.88,-154.41 537.78,-127.7 551.5,-112 588.91,-69.19 743.05,-83.22 816.53,-75.85"/>
<polygon fill="midnightblue" stroke="midnightblue" points="817.26,-79.29 826.76,-74.6 816.41,-72.34 817.26,-79.29"/>
</g>
<!-- Node26&#45;&gt;Node22 -->
<g id="edge33" class="edge">
<title>Node26&#45;&gt;Node22</title>
<path fill="none" stroke="midnightblue" d="M410.04,-113.5C413.24,-112.96 416.42,-112.46 419.5,-112 557.04,-91.61 595.53,-99.28 736.26,-76.05"/>
<polygon fill="midnightblue" stroke="midnightblue" points="736.84,-79.5 746.12,-74.4 735.68,-72.6 736.84,-79.5"/>
</g>
<!-- Node26&#45;&gt;Node24 -->
<g id="edge36" class="edge">
<title>Node26&#45;&gt;Node24</title>
<path fill="none" stroke="midnightblue" d="M344.83,-112.44C317.42,-103.31 273.81,-88.77 243.31,-78.6"/>
<polygon fill="midnightblue" stroke="midnightblue" points="244.11,-75.18 233.52,-75.34 241.9,-81.82 244.11,-75.18"/>
</g>
<!-- Node26&#45;&gt;Node25 -->
<g id="edge37" class="edge">
<title>Node26&#45;&gt;Node25</title>
<path fill="none" stroke="midnightblue" d="M410.08,-113.72C413.27,-113.14 416.44,-112.56 419.5,-112 463.49,-103.96 588.84,-110.33 617.5,-76 628.82,-62.43 620.54,-42.27 611.83,-28"/>
<polygon fill="midnightblue" stroke="midnightblue" points="614.7,-26 606.25,-19.61 608.87,-29.87 614.7,-26"/>
</g>
<!-- Node27 -->
<g id="node27" class="node">
<title>Node27</title>
<g id="a_node27"><a xlink:href="EnumWrapper_8h_source.html" target="_top" xlink:title=" ">
<polygon fill="white" stroke="red" points="514.5,-56.5 514.5,-75.5 608.5,-75.5 608.5,-56.5 514.5,-56.5"/>
<text text-anchor="middle" x="561.5" y="-63.5" font-family="Helvetica,sans-Serif" font-size="10.00">EnumWrapper.h</text>
</a>
</g>
</g>
<!-- Node26&#45;&gt;Node27 -->
<g id="edge30" class="edge">
<title>Node26&#45;&gt;Node27</title>
<path fill="none" stroke="midnightblue" d="M400.76,-112.44C433.46,-103.2 485.68,-88.44 521.68,-78.26"/>
<polygon fill="midnightblue" stroke="midnightblue" points="522.71,-81.61 531.38,-75.52 520.8,-74.87 522.71,-81.61"/>
</g>
<!-- Node30 -->
<g id="node28" class="node">
<title>Node30</title>
<g id="a_node28"><a xlink:href="clamp_8hpp_source.html" target="_top" xlink:title=" ">
<polygon fill="white" stroke="red" points="410.5,-56.5 410.5,-75.5 496.5,-75.5 496.5,-56.5 410.5,-56.5"/>
<text text-anchor="middle" x="453.5" y="-63.5" font-family="Helvetica,sans-Serif" font-size="10.00">stx/clamp.hpp</text>
</a>
</g>
</g>
<!-- Node26&#45;&gt;Node30 -->
<g id="edge32" class="edge">
<title>Node26&#45;&gt;Node30</title>
<path fill="none" stroke="midnightblue" d="M383.84,-112.32C396.66,-103.98 416.28,-91.21 431.44,-81.35"/>
<polygon fill="midnightblue" stroke="midnightblue" points="433.72,-84.04 440.2,-75.65 429.91,-78.17 433.72,-84.04"/>
</g>
<!-- Node32 -->
<g id="node29" class="node">
<title>Node32</title>
<g id="a_node29"><a xlink:title=" ">
<polygon fill="white" stroke="#bfbfbf" points="252,-56.5 252,-75.5 331,-75.5 331,-56.5 252,-56.5"/>
<text text-anchor="middle" x="291.5" y="-63.5" font-family="Helvetica,sans-Serif" font-size="10.00">wx/version.h</text>
</a>
</g>
</g>
<!-- Node26&#45;&gt;Node32 -->
<g id="edge34" class="edge">
<title>Node26&#45;&gt;Node32</title>
<path fill="none" stroke="midnightblue" d="M357.81,-112.32C345.6,-103.98 326.92,-91.21 312.5,-81.35"/>
<polygon fill="midnightblue" stroke="midnightblue" points="314.39,-78.41 304.16,-75.65 310.44,-84.19 314.39,-78.41"/>
</g>
<!-- Node26&#45;&gt;Node33 -->
<g id="edge35" class="edge">
<title>Node26&#45;&gt;Node33</title>
<path fill="none" stroke="midnightblue" d="M410.06,-113.64C413.25,-113.07 416.43,-112.52 419.5,-112 521.94,-94.61 548.16,-93.98 650.5,-76 651.76,-75.78 653.04,-75.55 654.34,-75.32"/>
<polygon fill="midnightblue" stroke="midnightblue" points="655.17,-78.72 664.36,-73.45 653.89,-71.84 655.17,-78.72"/>
</g>
<!-- Node34 -->
<g id="node31" class="node">
<title>Node34</title>
<g id="a_node31"><a xlink:title=" ">
<polygon fill="white" stroke="#bfbfbf" points="348.5,-56.5 348.5,-75.5 392.5,-75.5 392.5,-56.5 348.5,-56.5"/>
<text text-anchor="middle" x="370.5" y="-63.5" font-family="Helvetica,sans-Serif" font-size="10.00">limits</text>
</a>
</g>
</g>
<!-- Node26&#45;&gt;Node34 -->
<g id="edge38" class="edge">
<title>Node26&#45;&gt;Node34</title>
<path fill="none" stroke="midnightblue" d="M370.5,-112.08C370.5,-105.01 370.5,-94.86 370.5,-85.99"/>
<polygon fill="midnightblue" stroke="midnightblue" points="374,-85.75 370.5,-75.75 367,-85.75 374,-85.75"/>
</g>
<!-- Node27&#45;&gt;Node25 -->
<g id="edge31" class="edge">
<title>Node27&#45;&gt;Node25</title>
<path fill="none" stroke="midnightblue" d="M567.77,-56.08C573.14,-48.46 581.02,-37.26 587.58,-27.94"/>
<polygon fill="midnightblue" stroke="midnightblue" points="590.45,-29.94 593.34,-19.75 584.72,-25.91 590.45,-29.94"/>
</g>
<!-- Node35&#45;&gt;Node3 -->
<g id="edge40" class="edge">
<title>Node35&#45;&gt;Node3</title>
<path fill="none" stroke="midnightblue" d="M976.24,-113.45C981.06,-112.92 985.86,-112.42 990.5,-112 1295.74,-84.28 1664.76,-71.84 1790.27,-68.2"/>
<polygon fill="midnightblue" stroke="midnightblue" points="1790.37,-71.69 1800.27,-67.91 1790.17,-64.7 1790.37,-71.69"/>
</g>
<!-- Node35&#45;&gt;Node22 -->
<g id="edge42" class="edge">
<title>Node35&#45;&gt;Node22</title>
<path fill="none" stroke="midnightblue" d="M897.84,-112.44C874.1,-103.48 836.59,-89.31 809.76,-79.18"/>
<polygon fill="midnightblue" stroke="midnightblue" points="810.64,-75.77 800.05,-75.52 808.17,-82.32 810.64,-75.77"/>
</g>
<!-- Node35&#45;&gt;Node25 -->
<g id="edge43" class="edge">
<title>Node35&#45;&gt;Node25</title>
<path fill="none" stroke="midnightblue" d="M925.31,-112.21C932.1,-98.45 942.25,-71.76 928.5,-56 891.86,-14.01 722.94,-9.78 642.42,-10.22"/>
<polygon fill="midnightblue" stroke="midnightblue" points="642.1,-6.72 632.13,-10.31 642.16,-13.72 642.1,-6.72"/>
</g>
<!-- Node35&#45;&gt;Node36 -->
<g id="edge41" class="edge">
<title>Node35&#45;&gt;Node36</title>
<path fill="none" stroke="midnightblue" d="M944.11,-112.44C968.96,-103.44 1008.27,-89.19 1036.25,-79.05"/>
<polygon fill="midnightblue" stroke="midnightblue" points="1037.79,-82.21 1046,-75.52 1035.41,-75.63 1037.79,-82.21"/>
</g>
<!-- Node35&#45;&gt;Node37 -->
<g id="edge44" class="edge">
<title>Node35&#45;&gt;Node37</title>
<path fill="none" stroke="midnightblue" d="M967.24,-112.44C1030.06,-100.95 1139.57,-80.9 1189.43,-71.77"/>
<polygon fill="midnightblue" stroke="midnightblue" points="1190.2,-75.19 1199.4,-69.95 1188.94,-68.3 1190.2,-75.19"/>
</g>
<!-- Node35&#45;&gt;Node39 -->
<g id="edge45" class="edge">
<title>Node35&#45;&gt;Node39</title>
<path fill="none" stroke="midnightblue" d="M912.74,-112.08C905.96,-104.3 895.96,-92.8 887.74,-83.37"/>
<polygon fill="midnightblue" stroke="midnightblue" points="890.32,-81 881.12,-75.75 885.04,-85.59 890.32,-81"/>
</g>
<!-- Node47&#45;&gt;Node3 -->
<g id="edge60" class="edge">
<title>Node47&#45;&gt;Node3</title>
<path fill="none" stroke="midnightblue" d="M1894.89,-392.43C1945.52,-382.6 2024.06,-366.51 2052.5,-356 2110.13,-334.71 2174.5,-352.44 2174.5,-291 2174.5,-291 2174.5,-291 2174.5,-177 2174.5,-115.54 1970.87,-83.33 1878.79,-71.9"/>
<polygon fill="midnightblue" stroke="midnightblue" points="1879.01,-68.4 1868.66,-70.67 1878.16,-75.35 1879.01,-68.4"/>
</g>
<!-- Node47&#45;&gt;Node9 -->
<g id="edge71" class="edge">
<title>Node47&#45;&gt;Node9</title>
<path fill="none" stroke="midnightblue" d="M1886.81,-392.45C1953.89,-376.25 2090.41,-339.15 2117.5,-300 2143.32,-262.68 2093.43,-216.91 2062.84,-193.82"/>
<polygon fill="midnightblue" stroke="midnightblue" points="2064.58,-190.76 2054.44,-187.68 2060.45,-196.41 2064.58,-190.76"/>
</g>
<!-- Node48 -->
<g id="node44" class="node">
<title>Node48</title>
<g id="a_node44"><a xlink:href="RegexCtrl_8h_source.html" target="_top" xlink:title=" ">
<polygon fill="white" stroke="black" points="1855.5,-336.5 1855.5,-355.5 1929.5,-355.5 1929.5,-336.5 1855.5,-336.5"/>
<text text-anchor="middle" x="1892.5" y="-343.5" font-family="Helvetica,sans-Serif" font-size="10.00">RegexCtrl.h</text>
</a>
</g>
</g>
<!-- Node47&#45;&gt;Node48 -->
<g id="edge61" class="edge">
<title>Node47&#45;&gt;Node48</title>
<path fill="none" stroke="midnightblue" d="M1856.6,-392.08C1862.74,-384.38 1871.77,-373.03 1879.24,-363.65"/>
<polygon fill="midnightblue" stroke="midnightblue" points="1882.04,-365.75 1885.53,-355.75 1876.56,-361.39 1882.04,-365.75"/>
</g>
<!-- Node52 -->
<g id="node48" class="node">
<title>Node52</title>
<g id="a_node48"><a xlink:title=" ">
<polygon fill="white" stroke="#bfbfbf" points="1775.5,-336.5 1775.5,-355.5 1837.5,-355.5 1837.5,-336.5 1775.5,-336.5"/>
<text text-anchor="middle" x="1806.5" y="-343.5" font-family="Helvetica,sans-Serif" font-size="10.00">wx/grid.h</text>
</a>
</g>
</g>
<!-- Node47&#45;&gt;Node52 -->
<g id="edge72" class="edge">
<title>Node47&#45;&gt;Node52</title>
<path fill="none" stroke="midnightblue" d="M1842.4,-392.08C1836.26,-384.38 1827.23,-373.03 1819.76,-363.65"/>
<polygon fill="midnightblue" stroke="midnightblue" points="1822.44,-361.39 1813.47,-355.75 1816.96,-365.75 1822.44,-361.39"/>
</g>
<!-- Node48&#45;&gt;Node3 -->
<g id="edge62" class="edge">
<title>Node48&#45;&gt;Node3</title>
<path fill="none" stroke="midnightblue" d="M1895.29,-336.15C1899.26,-323.62 1906.79,-300.01 1913.5,-280 1929.96,-230.92 1954.34,-219.01 1945.5,-168 1940.99,-141.96 1943.07,-131.74 1925.5,-112 1912.05,-96.89 1892.38,-86.29 1874.76,-79.18"/>
<polygon fill="midnightblue" stroke="midnightblue" points="1875.83,-75.85 1865.24,-75.59 1873.36,-82.4 1875.83,-75.85"/>
</g>
<!-- Node48&#45;&gt;Node8 -->
<g id="edge66" class="edge">
<title>Node48&#45;&gt;Node8</title>
<path fill="none" stroke="midnightblue" d="M1885.63,-336.35C1873.48,-321.76 1846.6,-292.62 1816.5,-280 1734.28,-245.52 1470.52,-237.46 1354.34,-235.57"/>
<polygon fill="midnightblue" stroke="midnightblue" points="1354.29,-232.07 1344.23,-235.42 1354.18,-239.07 1354.29,-232.07"/>
</g>
<!-- Node48&#45;&gt;Node9 -->
<g id="edge63" class="edge">
<title>Node48&#45;&gt;Node9</title>
<path fill="none" stroke="midnightblue" d="M1896.6,-336.5C1903.04,-323.58 1916.36,-298.56 1931.5,-280 1959.4,-245.8 1998.84,-212.42 2022.13,-193.89"/>
<polygon fill="midnightblue" stroke="midnightblue" points="2024.51,-196.48 2030.21,-187.55 2020.19,-190.97 2024.51,-196.48"/>
</g>
<!-- Node49 -->
<g id="node45" class="node">
<title>Node49</title>
<g id="a_node45"><a xlink:title=" ">
<polygon fill="white" stroke="#bfbfbf" points="1940,-280.5 1940,-299.5 2011,-299.5 2011,-280.5 1940,-280.5"/>
<text text-anchor="middle" x="1975.5" y="-287.5" font-family="Helvetica,sans-Serif" font-size="10.00">wx/regex.h</text>
</a>
</g>
</g>
<!-- Node48&#45;&gt;Node49 -->
<g id="edge64" class="edge">
<title>Node48&#45;&gt;Node49</title>
<path fill="none" stroke="midnightblue" d="M1905.84,-336.32C1918.66,-327.98 1938.28,-315.21 1953.44,-305.35"/>
<polygon fill="midnightblue" stroke="midnightblue" points="1955.72,-308.04 1962.2,-299.65 1951.91,-302.17 1955.72,-308.04"/>
</g>
<!-- Node50 -->
<g id="node46" class="node">
<title>Node50</title>
<g id="a_node46"><a xlink:title=" ">
<polygon fill="white" stroke="#bfbfbf" points="1729.5,-280.5 1729.5,-299.5 1807.5,-299.5 1807.5,-280.5 1729.5,-280.5"/>
<text text-anchor="middle" x="1768.5" y="-287.5" font-family="Helvetica,sans-Serif" font-size="10.00">wx/textctrl.h</text>
</a>
</g>
</g>
<!-- Node48&#45;&gt;Node50 -->
<g id="edge65" class="edge">
<title>Node48&#45;&gt;Node50</title>
<path fill="none" stroke="midnightblue" d="M1872.85,-336.44C1852.54,-327.6 1820.6,-313.69 1797.4,-303.59"/>
<polygon fill="midnightblue" stroke="midnightblue" points="1798.62,-300.3 1788.06,-299.52 1795.83,-306.72 1798.62,-300.3"/>
</g>
<!-- Node51 -->
<g id="node47" class="node">
<title>Node51</title>
<g id="a_node47"><a xlink:href="BTextCtrl_8h_source.html" target="_top" xlink:title=" ">
<polygon fill="white" stroke="black" points="2029,-280.5 2029,-299.5 2108,-299.5 2108,-280.5 2029,-280.5"/>
<text text-anchor="middle" x="2068.5" y="-287.5" font-family="Helvetica,sans-Serif" font-size="10.00">../BTextCtrl.h</text>
</a>
</g>
</g>
<!-- Node48&#45;&gt;Node51 -->
<g id="edge67" class="edge">
<title>Node48&#45;&gt;Node51</title>
<path fill="none" stroke="midnightblue" d="M1920.39,-336.44C1950.25,-327.28 1997.81,-312.69 2030.96,-302.52"/>
<polygon fill="midnightblue" stroke="midnightblue" points="2032.21,-305.8 2040.74,-299.52 2030.16,-299.1 2032.21,-305.8"/>
</g>
<!-- Node51&#45;&gt;Node3 -->
<g id="edge68" class="edge">
<title>Node51&#45;&gt;Node3</title>
<path fill="none" stroke="midnightblue" d="M2072.28,-280.46C2080.82,-259.79 2099.39,-205.92 2079.5,-168 2041.61,-95.74 1938.63,-75.12 1878.93,-69.28"/>
<polygon fill="midnightblue" stroke="midnightblue" points="1878.94,-65.77 1868.67,-68.38 1878.33,-72.74 1878.94,-65.77"/>
</g>
<!-- Node51&#45;&gt;Node8 -->
<g id="edge70" class="edge">
<title>Node51&#45;&gt;Node8</title>
<path fill="none" stroke="midnightblue" d="M2028.75,-281.16C2025.96,-280.73 2023.19,-280.34 2020.5,-280 1773.46,-249.26 1476.11,-239.14 1354.48,-236.14"/>
<polygon fill="midnightblue" stroke="midnightblue" points="1354.38,-232.64 1344.3,-235.9 1354.21,-239.64 1354.38,-232.64"/>
</g>
<!-- Node51&#45;&gt;Node9 -->
<g id="edge69" class="edge">
<title>Node51&#45;&gt;Node9</title>
<path fill="none" stroke="midnightblue" d="M2066.38,-280.37C2062.02,-262.62 2051.97,-221.67 2046.06,-197.6"/>
<polygon fill="midnightblue" stroke="midnightblue" points="2049.39,-196.47 2043.61,-187.59 2042.59,-198.14 2049.39,-196.47"/>
</g>
</g>
</svg>
