<?xml version="1.0" encoding="UTF-8" standalone="no"?>
<!DOCTYPE svg PUBLIC "-//W3C//DTD SVG 1.1//EN"
 "http://www.w3.org/Graphics/SVG/1.1/DTD/svg11.dtd">
<!-- Generated by graphviz version 2.43.0 (0)
 -->
<!-- Title: src/sidebars/CharButton.h Pages: 1 -->
<!--zoomable 302 -->
<svg id="main" version="1.1" xmlns="http://www.w3.org/2000/svg" xmlns:xlink="http://www.w3.org/1999/xlink" xml:space="preserve" onload="init(evt)">
<style type="text/css"><![CDATA[
.edge:hover path { stroke: red; }
.edge:hover polygon { stroke: red; fill: red; }
]]></style>
<script type="text/javascript"><![CDATA[
var edges = document.getElementsByTagName('g');
if (edges && edges.length) {
  for (var i=0;i<edges.length;i++) {
    if (edges[i].id.substr(0,4)=='edge') {
      edges[i].setAttribute('class','edge');
    }
  }
}
]]></script>
        <defs>
                <circle id="rim" cx="0" cy="0" r="7"/>
                <circle id="rim2" cx="0" cy="0" r="3.5"/>
                <g id="zoomPlus">
                        <use xlink:href="#rim" fill="#404040">
                                <set attributeName="fill" to="#808080" begin="zoomplus.mouseover" end="zoomplus.mouseout"/>
                        </use>
                        <path d="M-4,0h8M0,-4v8" fill="none" stroke="white" stroke-width="1.5" pointer-events="none"/>
                </g>
                <g id="zoomMin">
                        <use xlink:href="#rim" fill="#404040">
                                <set attributeName="fill" to="#808080" begin="zoomminus.mouseover" end="zoomminus.mouseout"/>
                        </use>
                        <path d="M-4,0h8" fill="none" stroke="white" stroke-width="1.5" pointer-events="none"/>
                </g>
                <g id="dirArrow">
                        <path fill="none" stroke="white" stroke-width="1.5" d="M0,-3.0v7 M-2.5,-0.5L0,-3.0L2.5,-0.5"/>
                </g>
               <g id="resetDef">
                       <use xlink:href="#rim2" fill="#404040">
                               <set attributeName="fill" to="#808080" begin="reset.mouseover" end="reset.mouseout"/>
                       </use>
               </g>
        </defs>

<script type="text/javascript">
var viewWidth = 1982;
var viewHeight = 302;
var sectionId = 'dynsection-0';
</script>
<script xlink:href="svgpan.js"/>
<svg id="graph" class="graph">
<g id="viewport">
<title>src/sidebars/CharButton.h</title>
<!-- Node1 -->
<g id="node1" class="node">
<title>Node1</title>
<g id="a_node1"><a xlink:title="This file contains the definition of the class Charbutton that allows to select arbitrary unicode sym...">
<polygon fill="#999999" stroke="#666666" points="1307.67,-294 1165.67,-294 1165.67,-275 1307.67,-275 1307.67,-294"/>
<text text-anchor="middle" x="1236.67" y="-282" font-family="Helvetica,sans-Serif" font-size="10.00">src/sidebars/CharButton.h</text>
</a>
</g>
</g>
<!-- Node2 -->
<g id="node2" class="node">
<title>Node2</title>
<g id="a_node2"><a xlink:href="precomp_8h_source.html" target="_top" xlink:title=" ">
<polygon fill="white" stroke="#666666" points="659.67,-74 591.67,-74 591.67,-55 659.67,-55 659.67,-74"/>
<text text-anchor="middle" x="625.67" y="-62" font-family="Helvetica,sans-Serif" font-size="10.00">precomp.h</text>
</a>
</g>
</g>
<!-- Node1&#45;&gt;Node2 -->
<g id="edge1" class="edge">
<title>Node1&#45;&gt;Node2</title>
<path fill="none" stroke="#63b8ff" d="M1165.48,-282.4C934.92,-278.59 217.72,-264.79 116.67,-239 63.32,-225.39 34.7,-230.78 5.67,-184 -56.82,-83.29 428.94,-68.17 581.07,-65.9"/>
<polygon fill="#63b8ff" stroke="#63b8ff" points="581.49,-69.39 591.44,-65.76 581.39,-62.4 581.49,-69.39"/>
</g>
<!-- Node4 -->
<g id="node4" class="node">
<title>Node4</title>
<g id="a_node4"><a xlink:href="StringUtils_8h_source.html" target="_top" xlink:title=" ">
<polygon fill="white" stroke="#666666" points="202.17,-239 125.17,-239 125.17,-220 202.17,-220 202.17,-239"/>
<text text-anchor="middle" x="163.67" y="-227" font-family="Helvetica,sans-Serif" font-size="10.00">StringUtils.h</text>
</a>
</g>
</g>
<!-- Node1&#45;&gt;Node4 -->
<g id="edge3" class="edge">
<title>Node1&#45;&gt;Node4</title>
<path fill="none" stroke="#63b8ff" d="M1165.44,-279.98C962.35,-269.95 384.05,-241.39 212.33,-232.9"/>
<polygon fill="#63b8ff" stroke="#63b8ff" points="212.48,-229.41 202.32,-232.41 212.13,-236.4 212.48,-229.41"/>
</g>
<!-- Node7 -->
<g id="node7" class="node">
<title>Node7</title>
<g id="a_node7"><a xlink:href="Configuration_8h_source.html" target="_top" xlink:title=" ">
<polygon fill="white" stroke="#666666" points="1282.17,-239 1191.17,-239 1191.17,-220 1282.17,-220 1282.17,-239"/>
<text text-anchor="middle" x="1236.67" y="-227" font-family="Helvetica,sans-Serif" font-size="10.00">Configuration.h</text>
</a>
</g>
</g>
<!-- Node1&#45;&gt;Node7 -->
<g id="edge6" class="edge">
<title>Node1&#45;&gt;Node7</title>
<path fill="none" stroke="#63b8ff" d="M1236.67,-274.75C1236.67,-267.8 1236.67,-257.85 1236.67,-249.13"/>
<polygon fill="#63b8ff" stroke="#63b8ff" points="1240.17,-249.09 1236.67,-239.09 1233.17,-249.09 1240.17,-249.09"/>
</g>
<!-- Node42 -->
<g id="node42" class="node">
<title>Node42</title>
<g id="a_node42"><a xlink:title=" ">
<polygon fill="#e0e0e0" stroke="#999999" points="1370.67,-239 1300.67,-239 1300.67,-220 1370.67,-220 1370.67,-239"/>
<text text-anchor="middle" x="1335.67" y="-227" font-family="Helvetica,sans-Serif" font-size="10.00">wx/panel.h</text>
</a>
</g>
</g>
<!-- Node1&#45;&gt;Node42 -->
<g id="edge59" class="edge">
<title>Node1&#45;&gt;Node42</title>
<path fill="none" stroke="#63b8ff" d="M1252.58,-274.98C1268.22,-266.61 1292.33,-253.7 1310.55,-243.95"/>
<polygon fill="#63b8ff" stroke="#63b8ff" points="1312.31,-246.98 1319.47,-239.17 1309.01,-240.8 1312.31,-246.98"/>
</g>
<!-- Node43 -->
<g id="node43" class="node">
<title>Node43</title>
<g id="a_node43"><a xlink:title=" ">
<polygon fill="#e0e0e0" stroke="#999999" points="1470.17,-239 1389.17,-239 1389.17,-220 1470.17,-220 1470.17,-239"/>
<text text-anchor="middle" x="1429.67" y="-227" font-family="Helvetica,sans-Serif" font-size="10.00">wx/stattext.h</text>
</a>
</g>
</g>
<!-- Node1&#45;&gt;Node43 -->
<g id="edge60" class="edge">
<title>Node1&#45;&gt;Node43</title>
<path fill="none" stroke="#63b8ff" d="M1267.68,-274.98C1300.5,-265.97 1352.47,-251.7 1388.66,-241.76"/>
<polygon fill="#63b8ff" stroke="#63b8ff" points="1389.7,-245.11 1398.42,-239.08 1387.85,-238.36 1389.7,-245.11"/>
</g>
<!-- Node3 -->
<g id="node3" class="node">
<title>Node3</title>
<g id="a_node3"><a xlink:title=" ">
<polygon fill="#e0e0e0" stroke="#999999" points="656.67,-19 594.67,-19 594.67,0 656.67,0 656.67,-19"/>
<text text-anchor="middle" x="625.67" y="-7" font-family="Helvetica,sans-Serif" font-size="10.00">Version.h</text>
</a>
</g>
</g>
<!-- Node2&#45;&gt;Node3 -->
<g id="edge2" class="edge">
<title>Node2&#45;&gt;Node3</title>
<path fill="none" stroke="#63b8ff" d="M625.67,-54.75C625.67,-47.8 625.67,-37.85 625.67,-29.13"/>
<polygon fill="#63b8ff" stroke="#63b8ff" points="629.17,-29.09 625.67,-19.09 622.17,-29.09 629.17,-29.09"/>
</g>
<!-- Node5 -->
<g id="node5" class="node">
<title>Node5</title>
<g id="a_node5"><a xlink:title=" ">
<polygon fill="#e0e0e0" stroke="#999999" points="199.17,-184 128.17,-184 128.17,-165 199.17,-165 199.17,-184"/>
<text text-anchor="middle" x="163.67" y="-172" font-family="Helvetica,sans-Serif" font-size="10.00">wx/string.h</text>
</a>
</g>
</g>
<!-- Node4&#45;&gt;Node5 -->
<g id="edge4" class="edge">
<title>Node4&#45;&gt;Node5</title>
<path fill="none" stroke="#63b8ff" d="M163.67,-219.75C163.67,-212.8 163.67,-202.85 163.67,-194.13"/>
<polygon fill="#63b8ff" stroke="#63b8ff" points="167.17,-194.09 163.67,-184.09 160.17,-194.09 167.17,-194.09"/>
</g>
<!-- Node6 -->
<g id="node6" class="node">
<title>Node6</title>
<g id="a_node6"><a xlink:title=" ">
<polygon fill="#e0e0e0" stroke="#999999" points="110.17,-184 15.17,-184 15.17,-165 110.17,-165 110.17,-184"/>
<text text-anchor="middle" x="62.67" y="-172" font-family="Helvetica,sans-Serif" font-size="10.00">wx/translation.h</text>
</a>
</g>
</g>
<!-- Node4&#45;&gt;Node6 -->
<g id="edge5" class="edge">
<title>Node4&#45;&gt;Node6</title>
<path fill="none" stroke="#63b8ff" d="M147.44,-219.98C131.49,-211.61 106.89,-198.7 88.29,-188.95"/>
<polygon fill="#63b8ff" stroke="#63b8ff" points="89.67,-185.72 79.19,-184.17 86.42,-191.92 89.67,-185.72"/>
</g>
<!-- Node7&#45;&gt;Node2 -->
<g id="edge7" class="edge">
<title>Node7&#45;&gt;Node2</title>
<path fill="none" stroke="#63b8ff" d="M1190.77,-228.65C1082.31,-228.33 813.31,-223.45 733.67,-184 687.69,-161.22 651.92,-109.79 635.51,-82.79"/>
<polygon fill="#63b8ff" stroke="#63b8ff" points="638.45,-80.89 630.35,-74.05 632.42,-84.44 638.45,-80.89"/>
</g>
<!-- Node8 -->
<g id="node8" class="node">
<title>Node8</title>
<g id="a_node8"><a xlink:title=" ">
<polygon fill="#e0e0e0" stroke="#999999" points="1861.17,-184 1804.17,-184 1804.17,-165 1861.17,-165 1861.17,-184"/>
<text text-anchor="middle" x="1832.67" y="-172" font-family="Helvetica,sans-Serif" font-size="10.00">wx/wx.h</text>
</a>
</g>
</g>
<!-- Node7&#45;&gt;Node8 -->
<g id="edge8" class="edge">
<title>Node7&#45;&gt;Node8</title>
<path fill="none" stroke="#63b8ff" d="M1282.25,-221.16C1285.43,-220.74 1288.6,-220.35 1291.67,-220 1512.17,-195.03 1569.74,-213.57 1789.67,-184 1791.13,-183.8 1792.62,-183.59 1794.12,-183.36"/>
<polygon fill="#63b8ff" stroke="#63b8ff" points="1794.8,-186.79 1804.07,-181.66 1793.63,-179.89 1794.8,-186.79"/>
</g>
<!-- Node9 -->
<g id="node9" class="node">
<title>Node9</title>
<g id="a_node9"><a xlink:title=" ">
<polygon fill="#e0e0e0" stroke="#999999" points="1709.67,-129 1637.67,-129 1637.67,-110 1709.67,-110 1709.67,-129"/>
<text text-anchor="middle" x="1673.67" y="-117" font-family="Helvetica,sans-Serif" font-size="10.00">wx/config.h</text>
</a>
</g>
</g>
<!-- Node7&#45;&gt;Node9 -->
<g id="edge9" class="edge">
<title>Node7&#45;&gt;Node9</title>
<path fill="none" stroke="#63b8ff" d="M1242.26,-219.67C1251.85,-205.39 1272.91,-177.56 1298.67,-165 1429.29,-101.29 1479.75,-149.19 1623.67,-129 1624.95,-128.82 1626.24,-128.63 1627.54,-128.44"/>
<polygon fill="#63b8ff" stroke="#63b8ff" points="1628.31,-131.87 1637.66,-126.88 1627.24,-124.95 1628.31,-131.87"/>
</g>
<!-- Node10 -->
<g id="node10" class="node">
<title>Node10</title>
<g id="a_node10"><a xlink:title=" ">
<polygon fill="#e0e0e0" stroke="#999999" points="294.17,-184 217.17,-184 217.17,-165 294.17,-165 294.17,-184"/>
<text text-anchor="middle" x="255.67" y="-172" font-family="Helvetica,sans-Serif" font-size="10.00">wx/display.h</text>
</a>
</g>
</g>
<!-- Node7&#45;&gt;Node10 -->
<g id="edge10" class="edge">
<title>Node7&#45;&gt;Node10</title>
<path fill="none" stroke="#63b8ff" d="M1190.88,-228.38C1056.37,-227.59 650.73,-222.08 304.35,-183.9"/>
<polygon fill="#63b8ff" stroke="#63b8ff" points="304.71,-180.42 294.38,-182.79 303.93,-187.38 304.71,-180.42"/>
</g>
<!-- Node11 -->
<g id="node11" class="node">
<title>Node11</title>
<g id="a_node11"><a xlink:title=" ">
<polygon fill="#e0e0e0" stroke="#999999" points="402.67,-184 312.67,-184 312.67,-165 402.67,-165 402.67,-184"/>
<text text-anchor="middle" x="357.67" y="-172" font-family="Helvetica,sans-Serif" font-size="10.00">wx/fontenum.h</text>
</a>
</g>
</g>
<!-- Node7&#45;&gt;Node11 -->
<g id="edge11" class="edge">
<title>Node7&#45;&gt;Node11</title>
<path fill="none" stroke="#63b8ff" d="M1190.99,-227.63C1067.46,-224.92 716.35,-214.98 413.25,-183.93"/>
<polygon fill="#63b8ff" stroke="#63b8ff" points="413.25,-180.41 402.94,-182.86 412.53,-187.37 413.25,-180.41"/>
</g>
<!-- Node12 -->
<g id="node12" class="node">
<title>Node12</title>
<g id="a_node12"><a xlink:title=" ">
<polygon fill="#e0e0e0" stroke="#999999" points="817.67,-129 729.67,-129 729.67,-110 817.67,-110 817.67,-129"/>
<text text-anchor="middle" x="773.67" y="-117" font-family="Helvetica,sans-Serif" font-size="10.00">wx/hashmap.h</text>
</a>
</g>
</g>
<!-- Node7&#45;&gt;Node12 -->
<g id="edge12" class="edge">
<title>Node7&#45;&gt;Node12</title>
<path fill="none" stroke="#63b8ff" d="M1199.95,-219.94C1116.46,-200.46 912.48,-152.88 820.28,-131.37"/>
<polygon fill="#63b8ff" stroke="#63b8ff" points="820.93,-127.93 810.39,-129.07 819.34,-134.75 820.93,-127.93"/>
</g>
<!-- Node13 -->
<g id="node13" class="node">
<title>Node13</title>
<g id="a_node13"><a xlink:href="LoggingMessageDialog_8h.html" target="_top" xlink:title="This file declares a message dialog that sends its contents to the log message sink.">
<polygon fill="white" stroke="#666666" points="598.17,-184 421.17,-184 421.17,-165 598.17,-165 598.17,-184"/>
<text text-anchor="middle" x="509.67" y="-172" font-family="Helvetica,sans-Serif" font-size="10.00">dialogs/LoggingMessageDialog.h</text>
</a>
</g>
</g>
<!-- Node7&#45;&gt;Node13 -->
<g id="edge13" class="edge">
<title>Node7&#45;&gt;Node13</title>
<path fill="none" stroke="#63b8ff" d="M1190.78,-225.42C1087.39,-218.45 828.32,-200.74 611.67,-184 610.58,-183.92 609.49,-183.83 608.4,-183.75"/>
<polygon fill="#63b8ff" stroke="#63b8ff" points="608.64,-180.25 598.4,-182.96 608.09,-187.23 608.64,-180.25"/>
</g>
<!-- Node16 -->
<g id="node16" class="node">
<title>Node16</title>
<g id="a_node16"><a xlink:href="TextStyle_8h.html" target="_top" xlink:title="This file declares everything needed for the text style system used to style all the elements on the ...">
<polygon fill="white" stroke="#666666" points="1246.67,-184 1150.67,-184 1150.67,-165 1246.67,-165 1246.67,-184"/>
<text text-anchor="middle" x="1198.67" y="-172" font-family="Helvetica,sans-Serif" font-size="10.00">cells/TextStyle.h</text>
</a>
</g>
</g>
<!-- Node7&#45;&gt;Node16 -->
<g id="edge17" class="edge">
<title>Node7&#45;&gt;Node16</title>
<path fill="none" stroke="#63b8ff" d="M1230.4,-219.75C1225.08,-212.34 1217.31,-201.5 1210.79,-192.41"/>
<polygon fill="#63b8ff" stroke="#63b8ff" points="1213.5,-190.18 1204.83,-184.09 1207.81,-194.26 1213.5,-190.18"/>
</g>
<!-- Node23 -->
<g id="node23" class="node">
<title>Node23</title>
<g id="a_node23"><a xlink:title=" ">
<polygon fill="#e0e0e0" stroke="#999999" points="1891.67,-74 1841.67,-74 1841.67,-55 1891.67,-55 1891.67,-74"/>
<text text-anchor="middle" x="1866.67" y="-62" font-family="Helvetica,sans-Serif" font-size="10.00">cstdint</text>
</a>
</g>
</g>
<!-- Node7&#45;&gt;Node23 -->
<g id="edge49" class="edge">
<title>Node7&#45;&gt;Node23</title>
<path fill="none" stroke="#63b8ff" d="M1282.26,-221.21C1285.44,-220.78 1288.6,-220.37 1291.67,-220 1477.69,-197.68 1536.94,-251.59 1711.67,-184 1770.93,-161.07 1826.57,-108.12 1852.08,-81.45"/>
<polygon fill="#63b8ff" stroke="#63b8ff" points="1854.7,-83.77 1859,-74.08 1849.6,-78.98 1854.7,-83.77"/>
</g>
<!-- Node30 -->
<g id="node30" class="node">
<title>Node30</title>
<g id="a_node30"><a xlink:title=" ">
<polygon fill="#e0e0e0" stroke="#999999" points="1973.67,-74 1909.67,-74 1909.67,-55 1973.67,-55 1973.67,-74"/>
<text text-anchor="middle" x="1941.67" y="-62" font-family="Helvetica,sans-Serif" font-size="10.00">algorithm</text>
</a>
</g>
</g>
<!-- Node7&#45;&gt;Node30 -->
<g id="edge56" class="edge">
<title>Node7&#45;&gt;Node30</title>
<path fill="none" stroke="#63b8ff" d="M1282.25,-221.13C1285.43,-220.71 1288.6,-220.33 1291.67,-220 1355.75,-213.07 1815.6,-217.5 1870.67,-184 1907.95,-161.32 1928.1,-111.03 1936.64,-83.82"/>
<polygon fill="#63b8ff" stroke="#63b8ff" points="1940.06,-84.61 1939.52,-74.03 1933.34,-82.63 1940.06,-84.61"/>
</g>
<!-- Node33 -->
<g id="node33" class="node">
<title>Node33</title>
<g id="a_node33"><a xlink:title=" ">
<polygon fill="#e0e0e0" stroke="#999999" points="934.67,-74 876.67,-74 876.67,-55 934.67,-55 934.67,-74"/>
<text text-anchor="middle" x="905.67" y="-62" font-family="Helvetica,sans-Serif" font-size="10.00">memory</text>
</a>
</g>
</g>
<!-- Node7&#45;&gt;Node33 -->
<g id="edge50" class="edge">
<title>Node7&#45;&gt;Node33</title>
<path fill="none" stroke="#63b8ff" d="M1191.02,-227.63C1089.63,-225.13 848.76,-215.93 774.67,-184 740.54,-169.29 727.05,-162.84 711.67,-129 708.18,-121.31 706.41,-116.6 711.67,-110 730.65,-86.17 815.54,-74.05 866.53,-68.82"/>
<polygon fill="#63b8ff" stroke="#63b8ff" points="866.94,-72.3 876.55,-67.84 866.26,-65.33 866.94,-72.3"/>
</g>
<!-- Node34 -->
<g id="node34" class="node">
<title>Node34</title>
<g id="a_node34"><a xlink:title=" ">
<polygon fill="#e0e0e0" stroke="#999999" points="1823.67,-74 1791.67,-74 1791.67,-55 1823.67,-55 1823.67,-74"/>
<text text-anchor="middle" x="1807.67" y="-62" font-family="Helvetica,sans-Serif" font-size="10.00">list</text>
</a>
</g>
</g>
<!-- Node7&#45;&gt;Node34 -->
<g id="edge54" class="edge">
<title>Node7&#45;&gt;Node34</title>
<path fill="none" stroke="#63b8ff" d="M1248.73,-219.95C1272.21,-203.38 1322.56,-168.23 1331.67,-165 1494.47,-107.23 1556.77,-189.24 1718.67,-129 1746.85,-118.52 1774.23,-96.7 1791.01,-81.58"/>
<polygon fill="#63b8ff" stroke="#63b8ff" points="1793.82,-83.75 1798.77,-74.39 1789.06,-78.62 1793.82,-83.75"/>
</g>
<!-- Node36 -->
<g id="node36" class="node">
<title>Node36</title>
<g id="a_node36"><a xlink:title=" ">
<polygon fill="#e0e0e0" stroke="#999999" points="1244.17,-74 1151.17,-74 1151.17,-55 1244.17,-55 1244.17,-74"/>
<text text-anchor="middle" x="1197.67" y="-62" font-family="Helvetica,sans-Serif" font-size="10.00">unordered_map</text>
</a>
</g>
</g>
<!-- Node7&#45;&gt;Node36 -->
<g id="edge52" class="edge">
<title>Node7&#45;&gt;Node36</title>
<path fill="none" stroke="#63b8ff" d="M1190.8,-226.92C1075.65,-221.87 779.39,-201.92 720.67,-129 715.37,-122.42 714.98,-116.24 720.67,-110 748.5,-79.46 1020.51,-69.52 1140.87,-66.6"/>
<polygon fill="#63b8ff" stroke="#63b8ff" points="1141.09,-70.1 1151,-66.36 1140.92,-63.1 1141.09,-70.1"/>
</g>
<!-- Node37 -->
<g id="node37" class="node">
<title>Node37</title>
<g id="a_node37"><a xlink:title=" ">
<polygon fill="#e0e0e0" stroke="#999999" points="1388.67,-184 1340.67,-184 1340.67,-165 1388.67,-165 1388.67,-184"/>
<text text-anchor="middle" x="1364.67" y="-172" font-family="Helvetica,sans-Serif" font-size="10.00">mutex</text>
</a>
</g>
</g>
<!-- Node7&#45;&gt;Node37 -->
<g id="edge51" class="edge">
<title>Node7&#45;&gt;Node37</title>
<path fill="none" stroke="#63b8ff" d="M1257.24,-219.98C1278.1,-211.34 1310.64,-197.87 1334.44,-188.02"/>
<polygon fill="#63b8ff" stroke="#63b8ff" points="1335.83,-191.23 1343.73,-184.17 1333.15,-184.76 1335.83,-191.23"/>
</g>
<!-- Node38 -->
<g id="node38" class="node">
<title>Node38</title>
<g id="a_node38"><a xlink:title=" ">
<polygon fill="#e0e0e0" stroke="#999999" points="1460.67,-184 1406.67,-184 1406.67,-165 1460.67,-165 1460.67,-184"/>
<text text-anchor="middle" x="1433.67" y="-172" font-family="Helvetica,sans-Serif" font-size="10.00">random</text>
</a>
</g>
</g>
<!-- Node7&#45;&gt;Node38 -->
<g id="edge53" class="edge">
<title>Node7&#45;&gt;Node38</title>
<path fill="none" stroke="#63b8ff" d="M1268.32,-219.98C1303.32,-210.57 1359.63,-195.42 1396.64,-185.46"/>
<polygon fill="#63b8ff" stroke="#63b8ff" points="1397.79,-188.78 1406.54,-182.8 1395.97,-182.02 1397.79,-188.78"/>
</g>
<!-- Node39 -->
<g id="node39" class="node">
<title>Node39</title>
<g id="a_node39"><a xlink:title=" ">
<polygon fill="#e0e0e0" stroke="#999999" points="1526.17,-184 1479.17,-184 1479.17,-165 1526.17,-165 1526.17,-184"/>
<text text-anchor="middle" x="1502.67" y="-172" font-family="Helvetica,sans-Serif" font-size="10.00">vector</text>
</a>
</g>
</g>
<!-- Node7&#45;&gt;Node39 -->
<g id="edge55" class="edge">
<title>Node7&#45;&gt;Node39</title>
<path fill="none" stroke="#63b8ff" d="M1282.39,-220.65C1327.38,-212.73 1398.25,-199.73 1468.95,-184.04"/>
<polygon fill="#63b8ff" stroke="#63b8ff" points="1469.93,-187.41 1478.92,-181.81 1468.4,-180.58 1469.93,-187.41"/>
</g>
<!-- Node40 -->
<g id="node40" class="node">
<title>Node40</title>
<g id="a_node40"><a xlink:title=" ">
<polygon fill="#e0e0e0" stroke="#999999" points="1594.67,-184 1544.67,-184 1544.67,-165 1594.67,-165 1594.67,-184"/>
<text text-anchor="middle" x="1569.67" y="-172" font-family="Helvetica,sans-Serif" font-size="10.00">atomic</text>
</a>
</g>
</g>
<!-- Node7&#45;&gt;Node40 -->
<g id="edge57" class="edge">
<title>Node7&#45;&gt;Node40</title>
<path fill="none" stroke="#63b8ff" d="M1282.28,-221.43C1285.46,-220.94 1288.61,-220.46 1291.67,-220 1396.88,-204.11 1426.43,-205.24 1534.48,-184.07"/>
<polygon fill="#63b8ff" stroke="#63b8ff" points="1535.35,-187.46 1544.48,-182.09 1533.99,-180.6 1535.35,-187.46"/>
</g>
<!-- Node41 -->
<g id="node41" class="node">
<title>Node41</title>
<g id="a_node41"><a xlink:title=" ">
<polygon fill="#e0e0e0" stroke="#999999" points="1702.17,-184 1613.17,-184 1613.17,-165 1702.17,-165 1702.17,-184"/>
<text text-anchor="middle" x="1657.67" y="-172" font-family="Helvetica,sans-Serif" font-size="10.00">wx/wupdlock.h</text>
</a>
</g>
</g>
<!-- Node7&#45;&gt;Node41 -->
<g id="edge58" class="edge">
<title>Node7&#45;&gt;Node41</title>
<path fill="none" stroke="#63b8ff" d="M1282.27,-221.31C1285.45,-220.86 1288.61,-220.41 1291.67,-220 1426.76,-201.77 1463.65,-202.8 1602.71,-184.08"/>
<polygon fill="#63b8ff" stroke="#63b8ff" points="1603.46,-187.51 1612.9,-182.69 1602.52,-180.57 1603.46,-187.51"/>
</g>
<!-- Node13&#45;&gt;Node2 -->
<g id="edge14" class="edge">
<title>Node13&#45;&gt;Node2</title>
<path fill="none" stroke="#63b8ff" d="M519.16,-164.66C538.8,-146.38 584.12,-104.18 608.84,-81.17"/>
<polygon fill="#63b8ff" stroke="#63b8ff" points="611.44,-83.53 616.37,-74.16 606.67,-78.41 611.44,-83.53"/>
</g>
<!-- Node14 -->
<g id="node14" class="node">
<title>Node14</title>
<g id="a_node14"><a xlink:title=" ">
<polygon fill="#e0e0e0" stroke="#999999" points="468.17,-129 389.17,-129 389.17,-110 468.17,-110 468.17,-129"/>
<text text-anchor="middle" x="428.67" y="-117" font-family="Helvetica,sans-Serif" font-size="10.00">wx/msgdlg.h</text>
</a>
</g>
</g>
<!-- Node13&#45;&gt;Node14 -->
<g id="edge15" class="edge">
<title>Node13&#45;&gt;Node14</title>
<path fill="none" stroke="#63b8ff" d="M496.66,-164.98C484.21,-156.84 465.21,-144.41 450.46,-134.76"/>
<polygon fill="#63b8ff" stroke="#63b8ff" points="452.21,-131.72 441.92,-129.17 448.37,-137.57 452.21,-131.72"/>
</g>
<!-- Node15 -->
<g id="node15" class="node">
<title>Node15</title>
<g id="a_node15"><a xlink:title=" ">
<polygon fill="#e0e0e0" stroke="#999999" points="543.67,-129 485.67,-129 485.67,-110 543.67,-110 543.67,-129"/>
<text text-anchor="middle" x="514.67" y="-117" font-family="Helvetica,sans-Serif" font-size="10.00">wx/log.h</text>
</a>
</g>
</g>
<!-- Node13&#45;&gt;Node15 -->
<g id="edge16" class="edge">
<title>Node13&#45;&gt;Node15</title>
<path fill="none" stroke="#63b8ff" d="M510.5,-164.75C511.15,-157.8 512.09,-147.85 512.91,-139.13"/>
<polygon fill="#63b8ff" stroke="#63b8ff" points="516.4,-139.37 513.86,-129.09 509.44,-138.72 516.4,-139.37"/>
</g>
<!-- Node16&#45;&gt;Node2 -->
<g id="edge18" class="edge">
<title>Node16&#45;&gt;Node2</title>
<path fill="none" stroke="#63b8ff" d="M1150.6,-172.06C1084.74,-168.98 963.37,-159.32 864.67,-129 846.62,-123.46 844.47,-116.31 826.67,-110 774.19,-91.39 711.14,-78.95 669.83,-72.06"/>
<polygon fill="#63b8ff" stroke="#63b8ff" points="670.24,-68.58 659.81,-70.43 669.12,-75.49 670.24,-68.58"/>
</g>
<!-- Node16&#45;&gt;Node9 -->
<g id="edge24" class="edge">
<title>Node16&#45;&gt;Node9</title>
<path fill="none" stroke="#63b8ff" d="M1246.71,-166.73C1251.42,-166.12 1256.14,-165.54 1260.67,-165 1421.68,-145.99 1462.99,-150.6 1623.67,-129 1624.95,-128.83 1626.24,-128.65 1627.54,-128.46"/>
<polygon fill="#63b8ff" stroke="#63b8ff" points="1628.3,-131.89 1637.67,-126.93 1627.25,-124.97 1628.3,-131.89"/>
</g>
<!-- Node16&#45;&gt;Node12 -->
<g id="edge21" class="edge">
<title>Node16&#45;&gt;Node12</title>
<path fill="none" stroke="#63b8ff" d="M1150.53,-168.05C1080.35,-160.01 945.86,-144.29 831.67,-129 830.39,-128.83 829.1,-128.65 827.8,-128.48"/>
<polygon fill="#63b8ff" stroke="#63b8ff" points="828.06,-124.98 817.67,-127.07 827.09,-131.91 828.06,-124.98"/>
</g>
<!-- Node17 -->
<g id="node17" class="node">
<title>Node17</title>
<g id="a_node17"><a xlink:title=" ">
<polygon fill="#e0e0e0" stroke="#999999" points="945.67,-129 873.67,-129 873.67,-110 945.67,-110 945.67,-129"/>
<text text-anchor="middle" x="909.67" y="-117" font-family="Helvetica,sans-Serif" font-size="10.00">wx/colour.h</text>
</a>
</g>
</g>
<!-- Node16&#45;&gt;Node17 -->
<g id="edge19" class="edge">
<title>Node16&#45;&gt;Node17</title>
<path fill="none" stroke="#63b8ff" d="M1151.42,-164.97C1104.37,-156.46 1029.8,-142.92 955.95,-129.23"/>
<polygon fill="#63b8ff" stroke="#63b8ff" points="956.49,-125.77 946.02,-127.39 955.21,-132.65 956.49,-125.77"/>
</g>
<!-- Node18 -->
<g id="node18" class="node">
<title>Node18</title>
<g id="a_node18"><a xlink:title=" ">
<polygon fill="#e0e0e0" stroke="#999999" points="1001.67,-129 963.67,-129 963.67,-110 1001.67,-110 1001.67,-129"/>
<text text-anchor="middle" x="982.67" y="-117" font-family="Helvetica,sans-Serif" font-size="10.00">map</text>
</a>
</g>
</g>
<!-- Node16&#45;&gt;Node18 -->
<g id="edge20" class="edge">
<title>Node16&#45;&gt;Node18</title>
<path fill="none" stroke="#63b8ff" d="M1159.61,-165C1123.54,-156.99 1068.29,-144.29 1011.73,-129.16"/>
<polygon fill="#63b8ff" stroke="#63b8ff" points="1012.47,-125.74 1001.9,-126.51 1010.65,-132.49 1012.47,-125.74"/>
</g>
<!-- Node19 -->
<g id="node19" class="node">
<title>Node19</title>
<g id="a_node19"><a xlink:title=" ">
<polygon fill="#e0e0e0" stroke="#999999" points="1063.67,-129 1019.67,-129 1019.67,-110 1063.67,-110 1063.67,-129"/>
<text text-anchor="middle" x="1041.67" y="-117" font-family="Helvetica,sans-Serif" font-size="10.00">string</text>
</a>
</g>
</g>
<!-- Node16&#45;&gt;Node19 -->
<g id="edge22" class="edge">
<title>Node16&#45;&gt;Node19</title>
<path fill="none" stroke="#63b8ff" d="M1173.45,-164.98C1146.31,-155.82 1103.08,-141.23 1073.6,-131.28"/>
<polygon fill="#63b8ff" stroke="#63b8ff" points="1074.38,-127.85 1063.79,-127.97 1072.14,-134.48 1074.38,-127.85"/>
</g>
<!-- Node20 -->
<g id="node20" class="node">
<title>Node20</title>
<g id="a_node20"><a xlink:title=" ">
<polygon fill="#e0e0e0" stroke="#999999" points="1139.17,-129 1082.17,-129 1082.17,-110 1139.17,-110 1139.17,-129"/>
<text text-anchor="middle" x="1110.67" y="-117" font-family="Helvetica,sans-Serif" font-size="10.00">ostream</text>
</a>
</g>
</g>
<!-- Node16&#45;&gt;Node20 -->
<g id="edge23" class="edge">
<title>Node16&#45;&gt;Node20</title>
<path fill="none" stroke="#63b8ff" d="M1184.53,-164.98C1170.88,-156.77 1149.98,-144.18 1133.89,-134.49"/>
<polygon fill="#63b8ff" stroke="#63b8ff" points="1135.44,-131.33 1125.07,-129.17 1131.83,-137.33 1135.44,-131.33"/>
</g>
<!-- Node21 -->
<g id="node21" class="node">
<title>Node21</title>
<g id="a_node21"><a xlink:title=" ">
<polygon fill="#e0e0e0" stroke="#999999" points="1425.67,-74 1363.67,-74 1363.67,-55 1425.67,-55 1425.67,-74"/>
<text text-anchor="middle" x="1394.67" y="-62" font-family="Helvetica,sans-Serif" font-size="10.00">wx/font.h</text>
</a>
</g>
</g>
<!-- Node16&#45;&gt;Node21 -->
<g id="edge25" class="edge">
<title>Node16&#45;&gt;Node21</title>
<path fill="none" stroke="#63b8ff" d="M1246.86,-166.92C1307.75,-158.12 1405.97,-142.11 1416.67,-129 1427.69,-115.51 1418.37,-96.16 1408.69,-82.37"/>
<polygon fill="#63b8ff" stroke="#63b8ff" points="1411.33,-80.06 1402.49,-74.23 1405.77,-84.3 1411.33,-80.06"/>
</g>
<!-- Node22 -->
<g id="node22" class="node">
<title>Node22</title>
<g id="a_node22"><a xlink:title=" ">
<polygon fill="#e0e0e0" stroke="#999999" points="1239.67,-129 1157.67,-129 1157.67,-110 1239.67,-110 1239.67,-129"/>
<text text-anchor="middle" x="1198.67" y="-117" font-family="Helvetica,sans-Serif" font-size="10.00">wx/settings.h</text>
</a>
</g>
</g>
<!-- Node16&#45;&gt;Node22 -->
<g id="edge26" class="edge">
<title>Node16&#45;&gt;Node22</title>
<path fill="none" stroke="#63b8ff" d="M1198.67,-164.75C1198.67,-157.8 1198.67,-147.85 1198.67,-139.13"/>
<polygon fill="#63b8ff" stroke="#63b8ff" points="1202.17,-139.09 1198.67,-129.09 1195.17,-139.09 1202.17,-139.09"/>
</g>
<!-- Node16&#45;&gt;Node23 -->
<g id="edge27" class="edge">
<title>Node16&#45;&gt;Node23</title>
<path fill="none" stroke="#63b8ff" d="M1246.86,-167.59C1254.17,-166.71 1261.62,-165.82 1268.67,-165 1411.7,-148.32 1452.58,-169.83 1590.67,-129 1608.78,-123.65 1610.74,-115.92 1628.67,-110 1713.1,-82.1 1740.74,-92.4 1831.58,-74.07"/>
<polygon fill="#63b8ff" stroke="#63b8ff" points="1832.39,-77.47 1841.46,-72.01 1830.96,-70.62 1832.39,-77.47"/>
</g>
<!-- Node24 -->
<g id="node24" class="node">
<title>Node24</title>
<g id="a_node24"><a xlink:title=" ">
<polygon fill="#e0e0e0" stroke="#999999" points="1505.17,-19 1440.17,-19 1440.17,0 1505.17,0 1505.17,-19"/>
<text text-anchor="middle" x="1472.67" y="-7" font-family="Helvetica,sans-Serif" font-size="10.00">functional</text>
</a>
</g>
</g>
<!-- Node16&#45;&gt;Node24 -->
<g id="edge28" class="edge">
<title>Node16&#45;&gt;Node24</title>
<path fill="none" stroke="#63b8ff" d="M1246.74,-166.99C1311.08,-157.88 1418.79,-141.09 1432.67,-129 1461.91,-103.53 1469.82,-55.93 1471.93,-29.47"/>
<polygon fill="#63b8ff" stroke="#63b8ff" points="1475.44,-29.44 1472.54,-19.25 1468.45,-29.03 1475.44,-29.44"/>
</g>
<!-- Node25 -->
<g id="node25" class="node">
<title>Node25</title>
<g id="a_node25"><a xlink:href="FontAttribs_8h_source.html" target="_top" xlink:title=" ">
<polygon fill="white" stroke="#666666" points="1581.17,-129 1502.17,-129 1502.17,-110 1581.17,-110 1581.17,-129"/>
<text text-anchor="middle" x="1541.67" y="-117" font-family="Helvetica,sans-Serif" font-size="10.00">FontAttribs.h</text>
</a>
</g>
</g>
<!-- Node16&#45;&gt;Node25 -->
<g id="edge29" class="edge">
<title>Node16&#45;&gt;Node25</title>
<path fill="none" stroke="#63b8ff" d="M1246.75,-166.15C1304.1,-157.36 1402.9,-142.2 1487.67,-129 1489.14,-128.77 1490.62,-128.54 1492.12,-128.31"/>
<polygon fill="#63b8ff" stroke="#63b8ff" points="1492.81,-131.74 1502.15,-126.74 1491.73,-124.82 1492.81,-131.74"/>
</g>
<!-- Node32 -->
<g id="node32" class="node">
<title>Node32</title>
<g id="a_node32"><a xlink:href="FontVariantCache_8h.html" target="_top" xlink:title="This file implements the wxFont cache system.">
<polygon fill="white" stroke="#666666" points="1407.17,-129 1296.17,-129 1296.17,-110 1407.17,-110 1407.17,-129"/>
<text text-anchor="middle" x="1351.67" y="-117" font-family="Helvetica,sans-Serif" font-size="10.00">FontVariantCache.h</text>
</a>
</g>
</g>
<!-- Node16&#45;&gt;Node32 -->
<g id="edge40" class="edge">
<title>Node16&#45;&gt;Node32</title>
<path fill="none" stroke="#63b8ff" d="M1223.25,-164.98C1248.72,-156.16 1288.71,-142.31 1317.3,-132.41"/>
<polygon fill="#63b8ff" stroke="#63b8ff" points="1318.59,-135.66 1326.9,-129.08 1316.3,-129.05 1318.59,-135.66"/>
</g>
<!-- Node16&#45;&gt;Node36 -->
<g id="edge48" class="edge">
<title>Node16&#45;&gt;Node36</title>
<path fill="none" stroke="#63b8ff" d="M1213.88,-164.97C1232.04,-153.57 1258.77,-132.23 1248.67,-110 1243.05,-97.63 1232.1,-87.36 1221.78,-79.81"/>
<polygon fill="#63b8ff" stroke="#63b8ff" points="1223.64,-76.84 1213.4,-74.12 1219.71,-82.63 1223.64,-76.84"/>
</g>
<!-- Node25&#45;&gt;Node21 -->
<g id="edge34" class="edge">
<title>Node25&#45;&gt;Node21</title>
<path fill="none" stroke="#63b8ff" d="M1518.05,-109.98C1493.77,-101.23 1455.72,-87.51 1428.3,-77.62"/>
<polygon fill="#63b8ff" stroke="#63b8ff" points="1429.31,-74.27 1418.72,-74.17 1426.94,-80.85 1429.31,-74.27"/>
</g>
<!-- Node25&#45;&gt;Node23 -->
<g id="edge37" class="edge">
<title>Node25&#45;&gt;Node23</title>
<path fill="none" stroke="#63b8ff" d="M1581.19,-112.25C1586.06,-111.49 1590.98,-110.73 1595.67,-110 1697.77,-94.21 1726.49,-94.89 1831.42,-74.09"/>
<polygon fill="#63b8ff" stroke="#63b8ff" points="1832.36,-77.47 1841.48,-72.08 1830.99,-70.61 1832.36,-77.47"/>
</g>
<!-- Node25&#45;&gt;Node24 -->
<g id="edge38" class="edge">
<title>Node25&#45;&gt;Node24</title>
<path fill="none" stroke="#63b8ff" d="M1535.31,-109.76C1528.91,-100.87 1518.85,-86.65 1510.67,-74 1500.78,-58.7 1490.18,-40.86 1482.7,-27.99"/>
<polygon fill="#63b8ff" stroke="#63b8ff" points="1485.68,-26.15 1477.65,-19.24 1479.62,-29.65 1485.68,-26.15"/>
</g>
<!-- Node26 -->
<g id="node26" class="node">
<title>Node26</title>
<g id="a_node26"><a xlink:href="EnumWrapper_8h_source.html" target="_top" xlink:title=" ">
<polygon fill="white" stroke="#666666" points="1773.67,-74 1679.67,-74 1679.67,-55 1773.67,-55 1773.67,-74"/>
<text text-anchor="middle" x="1726.67" y="-62" font-family="Helvetica,sans-Serif" font-size="10.00">EnumWrapper.h</text>
</a>
</g>
</g>
<!-- Node25&#45;&gt;Node26 -->
<g id="edge30" class="edge">
<title>Node25&#45;&gt;Node26</title>
<path fill="none" stroke="#63b8ff" d="M1571.39,-109.98C1602.72,-101.01 1652.24,-86.82 1686.91,-76.89"/>
<polygon fill="#63b8ff" stroke="#63b8ff" points="1688.06,-80.2 1696.71,-74.08 1686.14,-73.47 1688.06,-80.2"/>
</g>
<!-- Node29 -->
<g id="node29" class="node">
<title>Node29</title>
<g id="a_node29"><a xlink:title=" ">
<polygon fill="#e0e0e0" stroke="#999999" points="1661.17,-74 1582.17,-74 1582.17,-55 1661.17,-55 1661.17,-74"/>
<text text-anchor="middle" x="1621.67" y="-62" font-family="Helvetica,sans-Serif" font-size="10.00">wx/version.h</text>
</a>
</g>
</g>
<!-- Node25&#45;&gt;Node29 -->
<g id="edge35" class="edge">
<title>Node25&#45;&gt;Node29</title>
<path fill="none" stroke="#63b8ff" d="M1554.52,-109.98C1566.81,-101.84 1585.58,-89.41 1600.15,-79.76"/>
<polygon fill="#63b8ff" stroke="#63b8ff" points="1602.18,-82.61 1608.58,-74.17 1598.31,-76.78 1602.18,-82.61"/>
</g>
<!-- Node25&#45;&gt;Node30 -->
<g id="edge36" class="edge">
<title>Node25&#45;&gt;Node30</title>
<path fill="none" stroke="#63b8ff" d="M1581.4,-114.64C1645.95,-108.14 1777.8,-93.89 1899.27,-74.11"/>
<polygon fill="#63b8ff" stroke="#63b8ff" points="1900.19,-77.51 1909.49,-72.43 1899.05,-70.6 1900.19,-77.51"/>
</g>
<!-- Node31 -->
<g id="node31" class="node">
<title>Node31</title>
<g id="a_node31"><a xlink:title=" ">
<polygon fill="#e0e0e0" stroke="#999999" points="1563.67,-74 1519.67,-74 1519.67,-55 1563.67,-55 1563.67,-74"/>
<text text-anchor="middle" x="1541.67" y="-62" font-family="Helvetica,sans-Serif" font-size="10.00">limits</text>
</a>
</g>
</g>
<!-- Node25&#45;&gt;Node31 -->
<g id="edge39" class="edge">
<title>Node25&#45;&gt;Node31</title>
<path fill="none" stroke="#63b8ff" d="M1541.67,-109.75C1541.67,-102.8 1541.67,-92.85 1541.67,-84.13"/>
<polygon fill="#63b8ff" stroke="#63b8ff" points="1545.17,-84.09 1541.67,-74.09 1538.17,-84.09 1545.17,-84.09"/>
</g>
<!-- Node26&#45;&gt;Node24 -->
<g id="edge32" class="edge">
<title>Node26&#45;&gt;Node24</title>
<path fill="none" stroke="#63b8ff" d="M1685.86,-54.98C1639.09,-45.23 1562.79,-29.3 1515.27,-19.39"/>
<polygon fill="#63b8ff" stroke="#63b8ff" points="1515.81,-15.93 1505.3,-17.31 1514.38,-22.78 1515.81,-15.93"/>
</g>
<!-- Node27 -->
<g id="node27" class="node">
<title>Node27</title>
<g id="a_node27"><a xlink:title=" ">
<polygon fill="#e0e0e0" stroke="#999999" points="1713.17,-19 1660.17,-19 1660.17,0 1713.17,0 1713.17,-19"/>
<text text-anchor="middle" x="1686.67" y="-7" font-family="Helvetica,sans-Serif" font-size="10.00">cstddef</text>
</a>
</g>
</g>
<!-- Node26&#45;&gt;Node27 -->
<g id="edge31" class="edge">
<title>Node26&#45;&gt;Node27</title>
<path fill="none" stroke="#63b8ff" d="M1720.06,-54.75C1714.41,-47.26 1706.13,-36.28 1699.22,-27.13"/>
<polygon fill="#63b8ff" stroke="#63b8ff" points="1701.97,-24.96 1693.15,-19.09 1696.38,-29.18 1701.97,-24.96"/>
</g>
<!-- Node28 -->
<g id="node28" class="node">
<title>Node28</title>
<g id="a_node28"><a xlink:title=" ">
<polygon fill="#e0e0e0" stroke="#999999" points="1800.17,-19 1731.17,-19 1731.17,0 1800.17,0 1800.17,-19"/>
<text text-anchor="middle" x="1765.67" y="-7" font-family="Helvetica,sans-Serif" font-size="10.00">type_traits</text>
</a>
</g>
</g>
<!-- Node26&#45;&gt;Node28 -->
<g id="edge33" class="edge">
<title>Node26&#45;&gt;Node28</title>
<path fill="none" stroke="#63b8ff" d="M1733.11,-54.75C1738.56,-47.34 1746.53,-36.5 1753.23,-27.41"/>
<polygon fill="#63b8ff" stroke="#63b8ff" points="1756.24,-29.22 1759.35,-19.09 1750.6,-25.07 1756.24,-29.22"/>
</g>
<!-- Node32&#45;&gt;Node2 -->
<g id="edge41" class="edge">
<title>Node32&#45;&gt;Node2</title>
<path fill="none" stroke="#63b8ff" d="M1296.09,-113.8C1280.73,-112.53 1264.06,-111.18 1248.67,-110 1031.74,-93.3 772.14,-75.44 670.03,-68.5"/>
<polygon fill="#63b8ff" stroke="#63b8ff" points="670,-64.99 659.78,-67.8 669.52,-71.97 670,-64.99"/>
</g>
<!-- Node32&#45;&gt;Node21 -->
<g id="edge43" class="edge">
<title>Node32&#45;&gt;Node21</title>
<path fill="none" stroke="#63b8ff" d="M1358.77,-109.75C1364.84,-102.26 1373.76,-91.28 1381.18,-82.13"/>
<polygon fill="#63b8ff" stroke="#63b8ff" points="1384.12,-84.06 1387.7,-74.09 1378.68,-79.65 1384.12,-84.06"/>
</g>
<!-- Node32&#45;&gt;Node24 -->
<g id="edge44" class="edge">
<title>Node32&#45;&gt;Node24</title>
<path fill="none" stroke="#63b8ff" d="M1349.32,-109.72C1346.32,-96.49 1342.86,-71.25 1354.67,-55 1372,-31.16 1403.74,-20.09 1429.94,-14.95"/>
<polygon fill="#63b8ff" stroke="#63b8ff" points="1430.78,-18.35 1440.03,-13.2 1429.58,-11.46 1430.78,-18.35"/>
</g>
<!-- Node32&#45;&gt;Node33 -->
<g id="edge42" class="edge">
<title>Node32&#45;&gt;Node33</title>
<path fill="none" stroke="#63b8ff" d="M1296.09,-111.89C1204.57,-101.02 1024.41,-79.61 944.93,-70.17"/>
<polygon fill="#63b8ff" stroke="#63b8ff" points="945.19,-66.67 934.85,-68.97 944.37,-73.62 945.19,-66.67"/>
</g>
<!-- Node32&#45;&gt;Node34 -->
<g id="edge45" class="edge">
<title>Node32&#45;&gt;Node34</title>
<path fill="none" stroke="#63b8ff" d="M1407.34,-114.32C1503.22,-106.87 1696.61,-90.68 1781.6,-73.69"/>
<polygon fill="#63b8ff" stroke="#63b8ff" points="1782.35,-77.11 1791.41,-71.61 1780.91,-70.26 1782.35,-77.11"/>
</g>
<!-- Node35 -->
<g id="node35" class="node">
<title>Node35</title>
<g id="a_node35"><a xlink:title=" ">
<polygon fill="#e0e0e0" stroke="#999999" points="1307.17,-74 1262.17,-74 1262.17,-55 1307.17,-55 1307.17,-74"/>
<text text-anchor="middle" x="1284.67" y="-62" font-family="Helvetica,sans-Serif" font-size="10.00">utility</text>
</a>
</g>
</g>
<!-- Node32&#45;&gt;Node35 -->
<g id="edge46" class="edge">
<title>Node32&#45;&gt;Node35</title>
<path fill="none" stroke="#63b8ff" d="M1340.91,-109.98C1330.9,-102.07 1315.78,-90.11 1303.74,-80.58"/>
<polygon fill="#63b8ff" stroke="#63b8ff" points="1305.64,-77.63 1295.63,-74.17 1301.3,-83.12 1305.64,-77.63"/>
</g>
<!-- Node32&#45;&gt;Node36 -->
<g id="edge47" class="edge">
<title>Node32&#45;&gt;Node36</title>
<path fill="none" stroke="#63b8ff" d="M1326.93,-109.98C1301.3,-101.16 1261.04,-87.31 1232.26,-77.41"/>
<polygon fill="#63b8ff" stroke="#63b8ff" points="1233.2,-74.03 1222.61,-74.08 1230.92,-80.65 1233.2,-74.03"/>
</g>
</g>
</svg>
        <g id="navigator" transform="translate(0 0)" fill="#404254">
                <rect fill="#f2f5e9" fill-opacity="0.5" stroke="#606060" stroke-width=".5" x="0" y="0" width="60" height="60"/>
                <use id="zoomplus" xlink:href="#zoomPlus" x="17" y="9" onmousedown="handleZoom(evt,'in')"/>
                <use id="zoomminus" xlink:href="#zoomMin" x="42" y="9" onmousedown="handleZoom(evt,'out')"/>
                <use id="reset" xlink:href="#resetDef" x="30" y="36" onmousedown="handleReset()"/>
                <g id="arrowUp" xlink:href="#dirArrow" transform="translate(30 24)" onmousedown="handlePan(0,-1)">
                  <use xlink:href="#rim" fill="#404040">
                        <set attributeName="fill" to="#808080" begin="arrowUp.mouseover" end="arrowUp.mouseout"/>
                  </use>
                  <path fill="none" stroke="white" stroke-width="1.5" d="M0,-3.0v7 M-2.5,-0.5L0,-3.0L2.5,-0.5"/>
                </g>
                <g id="arrowRight" xlink:href="#dirArrow" transform="rotate(90) translate(36 -43)" onmousedown="handlePan(1,0)">
                  <use xlink:href="#rim" fill="#404040">
                        <set attributeName="fill" to="#808080" begin="arrowRight.mouseover" end="arrowRight.mouseout"/>
                  </use>
                  <path fill="none" stroke="white" stroke-width="1.5" d="M0,-3.0v7 M-2.5,-0.5L0,-3.0L2.5,-0.5"/>
                </g>
                <g id="arrowDown" xlink:href="#dirArrow" transform="rotate(180) translate(-30 -48)" onmousedown="handlePan(0,1)">
                  <use xlink:href="#rim" fill="#404040">
                        <set attributeName="fill" to="#808080" begin="arrowDown.mouseover" end="arrowDown.mouseout"/>
                  </use>
                  <path fill="none" stroke="white" stroke-width="1.5" d="M0,-3.0v7 M-2.5,-0.5L0,-3.0L2.5,-0.5"/>
                </g>
                <g id="arrowLeft" xlink:href="#dirArrow" transform="rotate(270) translate(-36 17)" onmousedown="handlePan(-1,0)">
                  <use xlink:href="#rim" fill="#404040">
                        <set attributeName="fill" to="#808080" begin="arrowLeft.mouseover" end="arrowLeft.mouseout"/>
                  </use>
                  <path fill="none" stroke="white" stroke-width="1.5" d="M0,-3.0v7 M-2.5,-0.5L0,-3.0L2.5,-0.5"/>
                </g>
        </g>
        <svg viewBox="0 0 15 15" width="100%" height="30px" preserveAspectRatio="xMaxYMin meet">
         <g id="arrow_out" transform="scale(0.3 0.3)">
          <a xlink:href="CharButton_8h__incl_org.svg" target="_base">
           <rect id="button" ry="5" rx="5" y="6" x="6" height="38" width="38"
                fill="#f2f5e9" fill-opacity="0.5" stroke="#606060" stroke-width="1.0"/>
           <path id="arrow"
             d="M 11.500037,31.436501 C 11.940474,20.09759 22.043105,11.32322 32.158766,21.979434 L 37.068811,17.246167 C 37.068811,17.246167 37.088388,32 37.088388,32 L 22.160133,31.978069 C 22.160133,31.978069 26.997745,27.140456 26.997745,27.140456 C 18.528582,18.264221 13.291696,25.230495 11.500037,31.436501 z"
             style="fill:#404040;"/>
          </a>
         </g>
        </svg>
</svg>
