<?xml version="1.0" encoding="UTF-8" standalone="no"?>
<!DOCTYPE svg PUBLIC "-//W3C//DTD SVG 1.1//EN"
 "http://www.w3.org/Graphics/SVG/1.1/DTD/svg11.dtd">
<!-- Generated by graphviz version 2.43.0 (0)
 -->
<!-- Title: src/sidebars/CharButton.cpp Pages: 1 -->
<svg width="2033pt" height="467pt"
 viewBox="0.00 0.00 2033.00 467.00" xmlns="http://www.w3.org/2000/svg" xmlns:xlink="http://www.w3.org/1999/xlink">
<g id="graph0" class="graph" transform="scale(1 1) rotate(0) translate(4 463)">
<title>src/sidebars/CharButton.cpp</title>
<!-- Node1 -->
<g id="node1" class="node">
<title>Node1</title>
<g id="a_node1"><a xlink:title="This file defines the class CharacterButton.">
<polygon fill="#999999" stroke="#666666" points="1867.5,-459 1714.5,-459 1714.5,-440 1867.5,-440 1867.5,-459"/>
<text text-anchor="middle" x="1791" y="-447" font-family="Helvetica,sans-Serif" font-size="10.00">src/sidebars/CharButton.cpp</text>
</a>
</g>
</g>
<!-- Node2 -->
<g id="node2" class="node">
<title>Node2</title>
<g id="a_node2"><a xlink:href="CharButton_8h.html" target="_top" xlink:title="This file contains the definition of the class Charbutton that allows to select arbitrary unicode sym...">
<polygon fill="white" stroke="#666666" points="1029,-294 949,-294 949,-275 1029,-275 1029,-294"/>
<text text-anchor="middle" x="989" y="-282" font-family="Helvetica,sans-Serif" font-size="10.00">CharButton.h</text>
</a>
</g>
</g>
<!-- Node1&#45;&gt;Node2 -->
<g id="edge1" class="edge">
<title>Node1&#45;&gt;Node2</title>
<path fill="none" stroke="#63b8ff" d="M1749.01,-439.97C1613.2,-412.36 1186.13,-325.57 1039.23,-295.71"/>
<polygon fill="#63b8ff" stroke="#63b8ff" points="1039.64,-292.22 1029.14,-293.66 1038.24,-299.08 1039.64,-292.22"/>
</g>
<!-- Node23 -->
<g id="node23" class="node">
<title>Node23</title>
<g id="a_node23"><a xlink:title=" ">
<polygon fill="#e0e0e0" stroke="#999999" points="185,-74 103,-74 103,-55 185,-55 185,-74"/>
<text text-anchor="middle" x="144" y="-62" font-family="Helvetica,sans-Serif" font-size="10.00">wx/settings.h</text>
</a>
</g>
</g>
<!-- Node1&#45;&gt;Node23 -->
<g id="edge79" class="edge">
<title>Node1&#45;&gt;Node23</title>
<path fill="none" stroke="#63b8ff" d="M1714.33,-447.95C1372,-445 0,-427.74 0,-340.5 0,-340.5 0,-340.5 0,-228.5 0,-157.74 77.17,-103.23 118.52,-79.1"/>
<polygon fill="#63b8ff" stroke="#63b8ff" points="120.51,-81.99 127.48,-74.02 117.06,-75.9 120.51,-81.99"/>
</g>
<!-- Node56 -->
<g id="node43" class="node">
<title>Node56</title>
<g id="a_node43"><a xlink:href="UnicodeSidebar_8h.html" target="_top" xlink:title="This file contains the definition of the class Unicodesidebar that allows to select arbitrary unicode...">
<polygon fill="white" stroke="#666666" points="1841.5,-404 1740.5,-404 1740.5,-385 1841.5,-385 1841.5,-404"/>
<text text-anchor="middle" x="1791" y="-392" font-family="Helvetica,sans-Serif" font-size="10.00">UnicodeSidebar.h</text>
</a>
</g>
</g>
<!-- Node1&#45;&gt;Node56 -->
<g id="edge63" class="edge">
<title>Node1&#45;&gt;Node56</title>
<path fill="none" stroke="#63b8ff" d="M1791,-439.75C1791,-432.8 1791,-422.85 1791,-414.13"/>
<polygon fill="#63b8ff" stroke="#63b8ff" points="1794.5,-414.09 1791,-404.09 1787.5,-414.09 1794.5,-414.09"/>
</g>
<!-- Node63 -->
<g id="node49" class="node">
<title>Node63</title>
<g id="a_node49"><a xlink:title=" ">
<polygon fill="#e0e0e0" stroke="#999999" points="1924.5,-404 1859.5,-404 1859.5,-385 1924.5,-385 1924.5,-404"/>
<text text-anchor="middle" x="1892" y="-392" font-family="Helvetica,sans-Serif" font-size="10.00">wx/sizer.h</text>
</a>
</g>
</g>
<!-- Node1&#45;&gt;Node63 -->
<g id="edge77" class="edge">
<title>Node1&#45;&gt;Node63</title>
<path fill="none" stroke="#63b8ff" d="M1807.23,-439.98C1823.18,-431.61 1847.78,-418.7 1866.38,-408.95"/>
<polygon fill="#63b8ff" stroke="#63b8ff" points="1868.25,-411.92 1875.48,-404.17 1865,-405.72 1868.25,-411.92"/>
</g>
<!-- Node64 -->
<g id="node50" class="node">
<title>Node64</title>
<g id="a_node50"><a xlink:title=" ">
<polygon fill="#e0e0e0" stroke="#999999" points="2025,-404 1943,-404 1943,-385 2025,-385 2025,-404"/>
<text text-anchor="middle" x="1984" y="-392" font-family="Helvetica,sans-Serif" font-size="10.00">wx/dcbuffer.h</text>
</a>
</g>
</g>
<!-- Node1&#45;&gt;Node64 -->
<g id="edge78" class="edge">
<title>Node1&#45;&gt;Node64</title>
<path fill="none" stroke="#63b8ff" d="M1822.01,-439.98C1854.83,-430.97 1906.8,-416.7 1942.99,-406.76"/>
<polygon fill="#63b8ff" stroke="#63b8ff" points="1944.03,-410.11 1952.75,-404.08 1942.18,-403.36 1944.03,-410.11"/>
</g>
<!-- Node3 -->
<g id="node3" class="node">
<title>Node3</title>
<g id="a_node3"><a xlink:href="precomp_8h_source.html" target="_top" xlink:title=" ">
<polygon fill="white" stroke="#666666" points="1869,-74 1801,-74 1801,-55 1869,-55 1869,-74"/>
<text text-anchor="middle" x="1835" y="-62" font-family="Helvetica,sans-Serif" font-size="10.00">precomp.h</text>
</a>
</g>
</g>
<!-- Node2&#45;&gt;Node3 -->
<g id="edge2" class="edge">
<title>Node2&#45;&gt;Node3</title>
<path fill="none" stroke="#63b8ff" d="M1029.2,-282.22C1149.18,-277.59 1501.47,-257.86 1584,-184 1609.48,-161.2 1579.82,-133.12 1605,-110 1631.57,-85.61 1731.71,-73.66 1790.74,-68.61"/>
<polygon fill="#63b8ff" stroke="#63b8ff" points="1791.22,-72.09 1800.9,-67.78 1790.65,-65.11 1791.22,-72.09"/>
</g>
<!-- Node5 -->
<g id="node5" class="node">
<title>Node5</title>
<g id="a_node5"><a xlink:href="StringUtils_8h_source.html" target="_top" xlink:title=" ">
<polygon fill="white" stroke="#666666" points="152.5,-239 75.5,-239 75.5,-220 152.5,-220 152.5,-239"/>
<text text-anchor="middle" x="114" y="-227" font-family="Helvetica,sans-Serif" font-size="10.00">StringUtils.h</text>
</a>
</g>
</g>
<!-- Node2&#45;&gt;Node5 -->
<g id="edge4" class="edge">
<title>Node2&#45;&gt;Node5</title>
<path fill="none" stroke="#63b8ff" d="M948.84,-281.07C805.48,-272.38 319.13,-242.92 162.81,-233.46"/>
<polygon fill="#63b8ff" stroke="#63b8ff" points="162.76,-229.95 152.57,-232.84 162.34,-236.93 162.76,-229.95"/>
</g>
<!-- Node8 -->
<g id="node8" class="node">
<title>Node8</title>
<g id="a_node8"><a xlink:href="Configuration_8h_source.html" target="_top" xlink:title=" ">
<polygon fill="white" stroke="#666666" points="1086.5,-239 995.5,-239 995.5,-220 1086.5,-220 1086.5,-239"/>
<text text-anchor="middle" x="1041" y="-227" font-family="Helvetica,sans-Serif" font-size="10.00">Configuration.h</text>
</a>
</g>
</g>
<!-- Node2&#45;&gt;Node8 -->
<g id="edge7" class="edge">
<title>Node2&#45;&gt;Node8</title>
<path fill="none" stroke="#63b8ff" d="M997.59,-274.75C1005.16,-267.03 1016.38,-255.6 1025.51,-246.28"/>
<polygon fill="#63b8ff" stroke="#63b8ff" points="1028.07,-248.68 1032.57,-239.09 1023.07,-243.78 1028.07,-248.68"/>
</g>
<!-- Node54 -->
<g id="node41" class="node">
<title>Node54</title>
<g id="a_node41"><a xlink:title=" ">
<polygon fill="#e0e0e0" stroke="#999999" points="878,-239 808,-239 808,-220 878,-220 878,-239"/>
<text text-anchor="middle" x="843" y="-227" font-family="Helvetica,sans-Serif" font-size="10.00">wx/panel.h</text>
</a>
</g>
</g>
<!-- Node2&#45;&gt;Node54 -->
<g id="edge61" class="edge">
<title>Node2&#45;&gt;Node54</title>
<path fill="none" stroke="#63b8ff" d="M965.54,-274.98C941.42,-266.23 903.63,-252.51 876.4,-242.62"/>
<polygon fill="#63b8ff" stroke="#63b8ff" points="877.48,-239.29 866.88,-239.17 875.09,-245.87 877.48,-239.29"/>
</g>
<!-- Node55 -->
<g id="node42" class="node">
<title>Node55</title>
<g id="a_node42"><a xlink:title=" ">
<polygon fill="#e0e0e0" stroke="#999999" points="977.5,-239 896.5,-239 896.5,-220 977.5,-220 977.5,-239"/>
<text text-anchor="middle" x="937" y="-227" font-family="Helvetica,sans-Serif" font-size="10.00">wx/stattext.h</text>
</a>
</g>
</g>
<!-- Node2&#45;&gt;Node55 -->
<g id="edge62" class="edge">
<title>Node2&#45;&gt;Node55</title>
<path fill="none" stroke="#63b8ff" d="M980.41,-274.75C972.84,-267.03 961.62,-255.6 952.49,-246.28"/>
<polygon fill="#63b8ff" stroke="#63b8ff" points="954.93,-243.78 945.43,-239.09 949.93,-248.68 954.93,-243.78"/>
</g>
<!-- Node4 -->
<g id="node4" class="node">
<title>Node4</title>
<g id="a_node4"><a xlink:title=" ">
<polygon fill="#e0e0e0" stroke="#999999" points="1875.5,-19 1794.5,-19 1794.5,0 1875.5,0 1875.5,-19"/>
<text text-anchor="middle" x="1835" y="-7" font-family="Helvetica,sans-Serif" font-size="10.00">BuildConfig.h</text>
</a>
</g>
</g>
<!-- Node3&#45;&gt;Node4 -->
<g id="edge3" class="edge">
<title>Node3&#45;&gt;Node4</title>
<path fill="none" stroke="#63b8ff" d="M1835,-54.75C1835,-47.8 1835,-37.85 1835,-29.13"/>
<polygon fill="#63b8ff" stroke="#63b8ff" points="1838.5,-29.09 1835,-19.09 1831.5,-29.09 1838.5,-29.09"/>
</g>
<!-- Node6 -->
<g id="node6" class="node">
<title>Node6</title>
<g id="a_node6"><a xlink:title=" ">
<polygon fill="#e0e0e0" stroke="#999999" points="84.5,-74 13.5,-74 13.5,-55 84.5,-55 84.5,-74"/>
<text text-anchor="middle" x="49" y="-62" font-family="Helvetica,sans-Serif" font-size="10.00">wx/string.h</text>
</a>
</g>
</g>
<!-- Node5&#45;&gt;Node6 -->
<g id="edge5" class="edge">
<title>Node5&#45;&gt;Node6</title>
<path fill="none" stroke="#63b8ff" d="M96.23,-219.88C82.92,-212.39 65.59,-200.19 57,-184 40.15,-152.23 42.54,-108.76 45.78,-84.27"/>
<polygon fill="#63b8ff" stroke="#63b8ff" points="49.27,-84.59 47.31,-74.18 42.35,-83.54 49.27,-84.59"/>
</g>
<!-- Node7 -->
<g id="node7" class="node">
<title>Node7</title>
<g id="a_node7"><a xlink:title=" ">
<polygon fill="#e0e0e0" stroke="#999999" points="161.5,-184 66.5,-184 66.5,-165 161.5,-165 161.5,-184"/>
<text text-anchor="middle" x="114" y="-172" font-family="Helvetica,sans-Serif" font-size="10.00">wx/translation.h</text>
</a>
</g>
</g>
<!-- Node5&#45;&gt;Node7 -->
<g id="edge6" class="edge">
<title>Node5&#45;&gt;Node7</title>
<path fill="none" stroke="#63b8ff" d="M114,-219.75C114,-212.8 114,-202.85 114,-194.13"/>
<polygon fill="#63b8ff" stroke="#63b8ff" points="117.5,-194.09 114,-184.09 110.5,-194.09 117.5,-194.09"/>
</g>
<!-- Node8&#45;&gt;Node3 -->
<g id="edge8" class="edge">
<title>Node8&#45;&gt;Node3</title>
<path fill="none" stroke="#63b8ff" d="M1086.75,-227.44C1249.02,-223.49 1788.82,-208.55 1816,-184 1843.75,-158.94 1841.93,-110.79 1838.36,-84.23"/>
<polygon fill="#63b8ff" stroke="#63b8ff" points="1841.77,-83.34 1836.75,-74 1834.85,-84.43 1841.77,-83.34"/>
</g>
<!-- Node9 -->
<g id="node9" class="node">
<title>Node9</title>
<g id="a_node9"><a xlink:title=" ">
<polygon fill="#e0e0e0" stroke="#999999" points="1958.5,-184 1901.5,-184 1901.5,-165 1958.5,-165 1958.5,-184"/>
<text text-anchor="middle" x="1930" y="-172" font-family="Helvetica,sans-Serif" font-size="10.00">wx/wx.h</text>
</a>
</g>
</g>
<!-- Node8&#45;&gt;Node9 -->
<g id="edge9" class="edge">
<title>Node8&#45;&gt;Node9</title>
<path fill="none" stroke="#63b8ff" d="M1086.61,-226.78C1209.74,-221.97 1559.11,-207.18 1849,-184 1862.68,-182.91 1877.63,-181.42 1890.92,-180"/>
<polygon fill="#63b8ff" stroke="#63b8ff" points="1891.61,-183.44 1901.17,-178.88 1890.85,-176.48 1891.61,-183.44"/>
</g>
<!-- Node10 -->
<g id="node10" class="node">
<title>Node10</title>
<g id="a_node10"><a xlink:title=" ">
<polygon fill="#e0e0e0" stroke="#999999" points="1203,-74 1131,-74 1131,-55 1203,-55 1203,-74"/>
<text text-anchor="middle" x="1167" y="-62" font-family="Helvetica,sans-Serif" font-size="10.00">wx/config.h</text>
</a>
</g>
</g>
<!-- Node8&#45;&gt;Node10 -->
<g id="edge10" class="edge">
<title>Node8&#45;&gt;Node10</title>
<path fill="none" stroke="#63b8ff" d="M1086.71,-228.57C1161.59,-227.61 1305.26,-220.87 1337,-184 1358.46,-159.08 1357.1,-136.03 1337,-110 1321.95,-90.51 1258.29,-77.9 1213.3,-71.25"/>
<polygon fill="#63b8ff" stroke="#63b8ff" points="1213.55,-67.75 1203.16,-69.81 1212.57,-74.68 1213.55,-67.75"/>
</g>
<!-- Node11 -->
<g id="node11" class="node">
<title>Node11</title>
<g id="a_node11"><a xlink:title=" ">
<polygon fill="#e0e0e0" stroke="#999999" points="1466.5,-184 1389.5,-184 1389.5,-165 1466.5,-165 1466.5,-184"/>
<text text-anchor="middle" x="1428" y="-172" font-family="Helvetica,sans-Serif" font-size="10.00">wx/display.h</text>
</a>
</g>
</g>
<!-- Node8&#45;&gt;Node11 -->
<g id="edge11" class="edge">
<title>Node8&#45;&gt;Node11</title>
<path fill="none" stroke="#63b8ff" d="M1086.7,-222.8C1151.09,-214.68 1272.12,-199.1 1375,-184 1376.3,-183.81 1377.61,-183.61 1378.94,-183.42"/>
<polygon fill="#63b8ff" stroke="#63b8ff" points="1379.88,-186.81 1389.23,-181.84 1378.82,-179.89 1379.88,-186.81"/>
</g>
<!-- Node12 -->
<g id="node12" class="node">
<title>Node12</title>
<g id="a_node12"><a xlink:title=" ">
<polygon fill="#e0e0e0" stroke="#999999" points="1575,-184 1485,-184 1485,-165 1575,-165 1575,-184"/>
<text text-anchor="middle" x="1530" y="-172" font-family="Helvetica,sans-Serif" font-size="10.00">wx/fontenum.h</text>
</a>
</g>
</g>
<!-- Node8&#45;&gt;Node12 -->
<g id="edge12" class="edge">
<title>Node8&#45;&gt;Node12</title>
<path fill="none" stroke="#63b8ff" d="M1086.7,-224.59C1164.13,-217.79 1326.27,-202.83 1474.51,-183.99"/>
<polygon fill="#63b8ff" stroke="#63b8ff" points="1475.23,-187.43 1484.71,-182.69 1474.34,-180.49 1475.23,-187.43"/>
</g>
<!-- Node13 -->
<g id="node13" class="node">
<title>Node13</title>
<g id="a_node13"><a xlink:title=" ">
<polygon fill="#e0e0e0" stroke="#999999" points="551,-74 463,-74 463,-55 551,-55 551,-74"/>
<text text-anchor="middle" x="507" y="-62" font-family="Helvetica,sans-Serif" font-size="10.00">wx/hashmap.h</text>
</a>
</g>
</g>
<!-- Node8&#45;&gt;Node13 -->
<g id="edge13" class="edge">
<title>Node8&#45;&gt;Node13</title>
<path fill="none" stroke="#63b8ff" d="M1086.67,-227.56C1154.25,-225.09 1275.84,-216.17 1303,-184 1308.45,-177.55 1308.37,-171.52 1303,-165 1247.28,-97.36 688.51,-85.98 561.22,-73.92"/>
<polygon fill="#63b8ff" stroke="#63b8ff" points="561.52,-70.44 551.21,-72.86 560.79,-77.4 561.52,-70.44"/>
</g>
<!-- Node14 -->
<g id="node14" class="node">
<title>Node14</title>
<g id="a_node14"><a xlink:href="LoggingMessageDialog_8h.html" target="_top" xlink:title="This file declares a message dialog that sends its contents to the log message sink.">
<polygon fill="white" stroke="#666666" points="1807.5,-184 1630.5,-184 1630.5,-165 1807.5,-165 1807.5,-184"/>
<text text-anchor="middle" x="1719" y="-172" font-family="Helvetica,sans-Serif" font-size="10.00">dialogs/LoggingMessageDialog.h</text>
</a>
</g>
</g>
<!-- Node8&#45;&gt;Node14 -->
<g id="edge14" class="edge">
<title>Node8&#45;&gt;Node14</title>
<path fill="none" stroke="#63b8ff" d="M1086.54,-224.94C1195.16,-216.45 1471.47,-194.85 1620.36,-183.21"/>
<polygon fill="#63b8ff" stroke="#63b8ff" points="1620.73,-186.69 1630.42,-182.42 1620.18,-179.71 1620.73,-186.69"/>
</g>
<!-- Node17 -->
<g id="node17" class="node">
<title>Node17</title>
<g id="a_node17"><a xlink:href="TextStyle_8h.html" target="_top" xlink:title="This file declares everything needed for the text style system used to style all the elements on the ...">
<polygon fill="#fff0f0" stroke="red" points="652,-129 556,-129 556,-110 652,-110 652,-129"/>
<text text-anchor="middle" x="604" y="-117" font-family="Helvetica,sans-Serif" font-size="10.00">cells/TextStyle.h</text>
</a>
</g>
</g>
<!-- Node8&#45;&gt;Node17 -->
<g id="edge18" class="edge">
<title>Node8&#45;&gt;Node17</title>
<path fill="none" stroke="#63b8ff" d="M995.41,-221.21C992.23,-220.77 989.07,-220.37 986,-220 938.72,-214.36 591.22,-219.05 559,-184 544.78,-168.53 564.45,-148.41 582.08,-135.01"/>
<polygon fill="#63b8ff" stroke="#63b8ff" points="584.34,-137.7 590.41,-129.02 580.25,-132.02 584.34,-137.7"/>
</g>
<!-- Node24 -->
<g id="node24" class="node">
<title>Node24</title>
<g id="a_node24"><a xlink:title=" ">
<polygon fill="#e0e0e0" stroke="#999999" points="253,-74 203,-74 203,-55 253,-55 253,-74"/>
<text text-anchor="middle" x="228" y="-62" font-family="Helvetica,sans-Serif" font-size="10.00">cstdint</text>
</a>
</g>
</g>
<!-- Node8&#45;&gt;Node24 -->
<g id="edge49" class="edge">
<title>Node8&#45;&gt;Node24</title>
<path fill="none" stroke="#63b8ff" d="M995.43,-221.09C992.24,-220.69 989.08,-220.32 986,-220 908.42,-212.03 354.79,-218.82 285,-184 256.49,-169.77 252.4,-157.91 239,-129 232.45,-114.87 229.77,-97.33 228.69,-84.26"/>
<polygon fill="#63b8ff" stroke="#63b8ff" points="232.17,-83.91 228.09,-74.14 225.19,-84.32 232.17,-83.91"/>
</g>
<!-- Node37 -->
<g id="node26" class="node">
<title>Node37</title>
<g id="a_node26"><a xlink:title=" ">
<polygon fill="#e0e0e0" stroke="#999999" points="364.5,-74 271.5,-74 271.5,-55 364.5,-55 364.5,-74"/>
<text text-anchor="middle" x="318" y="-62" font-family="Helvetica,sans-Serif" font-size="10.00">unordered_map</text>
</a>
</g>
</g>
<!-- Node8&#45;&gt;Node37 -->
<g id="edge52" class="edge">
<title>Node8&#45;&gt;Node37</title>
<path fill="none" stroke="#63b8ff" d="M995.42,-221.14C992.24,-220.72 989.07,-220.34 986,-220 744.27,-193.4 679.62,-225.56 440,-184 352.12,-168.76 300.74,-200.19 247,-129 231.8,-108.87 259.92,-90.19 285.13,-78.37"/>
<polygon fill="#63b8ff" stroke="#63b8ff" points="286.83,-81.45 294.55,-74.19 283.99,-75.05 286.83,-81.45"/>
</g>
<!-- Node38 -->
<g id="node27" class="node">
<title>Node38</title>
<g id="a_node27"><a xlink:href="FontRenderabilityCache_8h.html" target="_top" xlink:title="Declares FontRenderabilityCache: which chars can each font render?">
<polygon fill="#fff0f0" stroke="red" points="538,-129 396,-129 396,-110 538,-110 538,-129"/>
<text text-anchor="middle" x="467" y="-117" font-family="Helvetica,sans-Serif" font-size="10.00">FontRenderabilityCache.h</text>
</a>
</g>
</g>
<!-- Node8&#45;&gt;Node38 -->
<g id="edge31" class="edge">
<title>Node8&#45;&gt;Node38</title>
<path fill="none" stroke="#63b8ff" d="M995.42,-221.2C992.23,-220.77 989.07,-220.36 986,-220 889.68,-208.59 641.61,-218.62 551,-184 523.95,-173.67 498.22,-151.81 482.53,-136.65"/>
<polygon fill="#63b8ff" stroke="#63b8ff" points="484.83,-134.01 475.28,-129.42 479.89,-138.96 484.83,-134.01"/>
</g>
<!-- Node40 -->
<g id="node28" class="node">
<title>Node40</title>
<g id="a_node28"><a xlink:href="MaximaSessionInfo_8h.html" target="_top" xlink:title="Declares MaximaSessionInfo: what we know about the connected Maxima.">
<polygon fill="white" stroke="#666666" points="378,-129 256,-129 256,-110 378,-110 378,-129"/>
<text text-anchor="middle" x="317" y="-117" font-family="Helvetica,sans-Serif" font-size="10.00">MaximaSessionInfo.h</text>
</a>
</g>
</g>
<!-- Node8&#45;&gt;Node40 -->
<g id="edge36" class="edge">
<title>Node8&#45;&gt;Node40</title>
<path fill="none" stroke="#63b8ff" d="M995.42,-221.18C992.23,-220.75 989.07,-220.35 986,-220 777.44,-195.95 721.03,-224.33 515,-184 454.19,-172.1 385.9,-147.6 347.51,-132.76"/>
<polygon fill="#63b8ff" stroke="#63b8ff" points="348.55,-129.41 337.96,-129.03 346,-135.93 348.55,-129.41"/>
</g>
<!-- Node41 -->
<g id="node29" class="node">
<title>Node41</title>
<g id="a_node29"><a xlink:href="RenderContext_8h.html" target="_top" xlink:title="Declares RenderContext: the per&#45;render&#45;pass state of a worksheet.">
<polygon fill="#fff0f0" stroke="red" points="816,-184 718,-184 718,-165 816,-165 816,-184"/>
<text text-anchor="middle" x="767" y="-172" font-family="Helvetica,sans-Serif" font-size="10.00">RenderContext.h</text>
</a>
</g>
</g>
<!-- Node8&#45;&gt;Node41 -->
<g id="edge40" class="edge">
<title>Node8&#45;&gt;Node41</title>
<path fill="none" stroke="#63b8ff" d="M996.98,-219.98C949.18,-210.74 872.8,-195.97 821.32,-186.01"/>
<polygon fill="#63b8ff" stroke="#63b8ff" points="821.85,-182.54 811.37,-184.08 820.52,-189.42 821.85,-182.54"/>
</g>
<!-- Node31 -->
<g id="node30" class="node">
<title>Node31</title>
<g id="a_node30"><a xlink:title=" ">
<polygon fill="#e0e0e0" stroke="#999999" points="800,-129 736,-129 736,-110 800,-110 800,-129"/>
<text text-anchor="middle" x="768" y="-117" font-family="Helvetica,sans-Serif" font-size="10.00">algorithm</text>
</a>
</g>
</g>
<!-- Node8&#45;&gt;Node31 -->
<g id="edge57" class="edge">
<title>Node8&#45;&gt;Node31</title>
<path fill="none" stroke="#63b8ff" d="M995.39,-221.37C992.22,-220.89 989.06,-220.44 986,-220 924.55,-211.26 749.97,-230.64 709,-184 693.55,-166.41 718.66,-146.75 740.75,-134.03"/>
<polygon fill="#63b8ff" stroke="#63b8ff" points="742.5,-137.06 749.59,-129.19 739.14,-130.92 742.5,-137.06"/>
</g>
<!-- Node46 -->
<g id="node31" class="node">
<title>Node46</title>
<g id="a_node31"><a xlink:title=" ">
<polygon fill="#e0e0e0" stroke="#999999" points="868,-129 818,-129 818,-110 868,-110 868,-129"/>
<text text-anchor="middle" x="843" y="-117" font-family="Helvetica,sans-Serif" font-size="10.00">atomic</text>
</a>
</g>
</g>
<!-- Node8&#45;&gt;Node46 -->
<g id="edge58" class="edge">
<title>Node8&#45;&gt;Node46</title>
<path fill="none" stroke="#63b8ff" d="M1007.18,-219.99C981.39,-212.65 945.57,-200.62 917,-184 894.49,-170.91 872.32,-150.62 858.2,-136.52"/>
<polygon fill="#63b8ff" stroke="#63b8ff" points="860.37,-133.73 850.88,-129.03 855.37,-138.62 860.37,-133.73"/>
</g>
<!-- Node47 -->
<g id="node32" class="node">
<title>Node47</title>
<g id="a_node32"><a xlink:title=" ">
<polygon fill="#e0e0e0" stroke="#999999" points="936,-129 886,-129 886,-110 936,-110 936,-129"/>
<text text-anchor="middle" x="911" y="-117" font-family="Helvetica,sans-Serif" font-size="10.00">chrono</text>
</a>
</g>
</g>
<!-- Node8&#45;&gt;Node47 -->
<g id="edge59" class="edge">
<title>Node8&#45;&gt;Node47</title>
<path fill="none" stroke="#63b8ff" d="M997.75,-219.98C975.41,-213.54 949.3,-202.52 932,-184 920.49,-171.68 915.28,-152.91 912.93,-138.97"/>
<polygon fill="#63b8ff" stroke="#63b8ff" points="916.4,-138.48 911.59,-129.04 909.46,-139.42 916.4,-138.48"/>
</g>
<!-- Node34 -->
<g id="node33" class="node">
<title>Node34</title>
<g id="a_node33"><a xlink:title=" ">
<polygon fill="#e0e0e0" stroke="#999999" points="1012,-129 954,-129 954,-110 1012,-110 1012,-129"/>
<text text-anchor="middle" x="983" y="-117" font-family="Helvetica,sans-Serif" font-size="10.00">memory</text>
</a>
</g>
</g>
<!-- Node8&#45;&gt;Node34 -->
<g id="edge50" class="edge">
<title>Node8&#45;&gt;Node34</title>
<path fill="none" stroke="#63b8ff" d="M995.45,-220.43C974.52,-214.2 951.59,-203.23 939,-184 927.86,-166.99 945.34,-147.86 961.45,-135.09"/>
<polygon fill="#63b8ff" stroke="#63b8ff" points="963.66,-137.81 969.59,-129.03 959.48,-132.19 963.66,-137.81"/>
</g>
<!-- Node48 -->
<g id="node34" class="node">
<title>Node48</title>
<g id="a_node34"><a xlink:title=" ">
<polygon fill="#e0e0e0" stroke="#999999" points="717.5,-129 670.5,-129 670.5,-110 717.5,-110 717.5,-129"/>
<text text-anchor="middle" x="694" y="-117" font-family="Helvetica,sans-Serif" font-size="10.00">vector</text>
</a>
</g>
</g>
<!-- Node8&#45;&gt;Node48 -->
<g id="edge56" class="edge">
<title>Node8&#45;&gt;Node48</title>
<path fill="none" stroke="#63b8ff" d="M995.4,-221.35C992.22,-220.89 989.06,-220.43 986,-220 922.78,-211.12 745.78,-229.5 701,-184 689.7,-172.52 688.97,-153.64 690.45,-139.44"/>
<polygon fill="#63b8ff" stroke="#63b8ff" points="693.95,-139.7 691.95,-129.29 687.03,-138.67 693.95,-139.7"/>
</g>
<!-- Node49 -->
<g id="node35" class="node">
<title>Node49</title>
<g id="a_node35"><a xlink:href="Styles_8h.html" target="_top" xlink:title="This file declares the class Styles.">
<polygon fill="#fff0f0" stroke="red" points="624,-184 568,-184 568,-165 624,-165 624,-184"/>
<text text-anchor="middle" x="596" y="-172" font-family="Helvetica,sans-Serif" font-size="10.00">Styles.h</text>
</a>
</g>
</g>
<!-- Node8&#45;&gt;Node49 -->
<g id="edge46" class="edge">
<title>Node8&#45;&gt;Node49</title>
<path fill="none" stroke="#63b8ff" d="M995.41,-221.27C992.23,-220.82 989.07,-220.4 986,-220 831.78,-200.12 791.71,-207.45 638,-184 636.9,-183.83 635.78,-183.65 634.65,-183.47"/>
<polygon fill="#63b8ff" stroke="#63b8ff" points="634.86,-179.95 624.4,-181.63 633.63,-186.84 634.86,-179.95"/>
</g>
<!-- Node50 -->
<g id="node36" class="node">
<title>Node50</title>
<g id="a_node36"><a xlink:title=" ">
<polygon fill="#e0e0e0" stroke="#999999" points="996,-184 948,-184 948,-165 996,-165 996,-184"/>
<text text-anchor="middle" x="972" y="-172" font-family="Helvetica,sans-Serif" font-size="10.00">mutex</text>
</a>
</g>
</g>
<!-- Node8&#45;&gt;Node50 -->
<g id="edge51" class="edge">
<title>Node8&#45;&gt;Node50</title>
<path fill="none" stroke="#63b8ff" d="M1029.91,-219.98C1019.51,-212 1003.74,-199.88 991.28,-190.31"/>
<polygon fill="#63b8ff" stroke="#63b8ff" points="993.35,-187.49 983.29,-184.17 989.09,-193.04 993.35,-187.49"/>
</g>
<!-- Node51 -->
<g id="node37" class="node">
<title>Node51</title>
<g id="a_node37"><a xlink:title=" ">
<polygon fill="#e0e0e0" stroke="#999999" points="1068,-184 1014,-184 1014,-165 1068,-165 1068,-184"/>
<text text-anchor="middle" x="1041" y="-172" font-family="Helvetica,sans-Serif" font-size="10.00">random</text>
</a>
</g>
</g>
<!-- Node8&#45;&gt;Node51 -->
<g id="edge53" class="edge">
<title>Node8&#45;&gt;Node51</title>
<path fill="none" stroke="#63b8ff" d="M1041,-219.75C1041,-212.8 1041,-202.85 1041,-194.13"/>
<polygon fill="#63b8ff" stroke="#63b8ff" points="1044.5,-194.09 1041,-184.09 1037.5,-194.09 1044.5,-194.09"/>
</g>
<!-- Node35 -->
<g id="node38" class="node">
<title>Node35</title>
<g id="a_node38"><a xlink:title=" ">
<polygon fill="#e0e0e0" stroke="#999999" points="1118,-184 1086,-184 1086,-165 1118,-165 1118,-184"/>
<text text-anchor="middle" x="1102" y="-172" font-family="Helvetica,sans-Serif" font-size="10.00">list</text>
</a>
</g>
</g>
<!-- Node8&#45;&gt;Node35 -->
<g id="edge54" class="edge">
<title>Node8&#45;&gt;Node35</title>
<path fill="none" stroke="#63b8ff" d="M1050.8,-219.98C1059.82,-212.15 1073.41,-200.34 1084.32,-190.86"/>
<polygon fill="#63b8ff" stroke="#63b8ff" points="1086.77,-193.37 1092.02,-184.17 1082.18,-188.09 1086.77,-193.37"/>
</g>
<!-- Node52 -->
<g id="node39" class="node">
<title>Node52</title>
<g id="a_node39"><a xlink:title=" ">
<polygon fill="#e0e0e0" stroke="#999999" points="1187.5,-184 1136.5,-184 1136.5,-165 1187.5,-165 1187.5,-184"/>
<text text-anchor="middle" x="1162" y="-172" font-family="Helvetica,sans-Serif" font-size="10.00">variant</text>
</a>
</g>
</g>
<!-- Node8&#45;&gt;Node52 -->
<g id="edge55" class="edge">
<title>Node8&#45;&gt;Node52</title>
<path fill="none" stroke="#63b8ff" d="M1060.44,-219.98C1079.99,-211.42 1110.38,-198.11 1132.82,-188.28"/>
<polygon fill="#63b8ff" stroke="#63b8ff" points="1134.45,-191.39 1142.21,-184.17 1131.64,-184.98 1134.45,-191.39"/>
</g>
<!-- Node53 -->
<g id="node40" class="node">
<title>Node53</title>
<g id="a_node40"><a xlink:title=" ">
<polygon fill="#e0e0e0" stroke="#999999" points="1294.5,-184 1205.5,-184 1205.5,-165 1294.5,-165 1294.5,-184"/>
<text text-anchor="middle" x="1250" y="-172" font-family="Helvetica,sans-Serif" font-size="10.00">wx/wupdlock.h</text>
</a>
</g>
</g>
<!-- Node8&#45;&gt;Node53 -->
<g id="edge60" class="edge">
<title>Node8&#45;&gt;Node53</title>
<path fill="none" stroke="#63b8ff" d="M1074.58,-219.98C1110.35,-210.91 1167.12,-196.52 1206.34,-186.57"/>
<polygon fill="#63b8ff" stroke="#63b8ff" points="1207.32,-189.93 1216.16,-184.08 1205.6,-183.15 1207.32,-189.93"/>
</g>
<!-- Node14&#45;&gt;Node3 -->
<g id="edge15" class="edge">
<title>Node14&#45;&gt;Node3</title>
<path fill="none" stroke="#63b8ff" d="M1731.75,-164.96C1744.09,-156.45 1763.07,-142.71 1778,-129 1794.11,-114.21 1810.6,-95.35 1821.67,-82.04"/>
<polygon fill="#63b8ff" stroke="#63b8ff" points="1824.47,-84.15 1828.11,-74.2 1819.06,-79.71 1824.47,-84.15"/>
</g>
<!-- Node15 -->
<g id="node15" class="node">
<title>Node15</title>
<g id="a_node15"><a xlink:title=" ">
<polygon fill="#e0e0e0" stroke="#999999" points="1693.5,-129 1614.5,-129 1614.5,-110 1693.5,-110 1693.5,-129"/>
<text text-anchor="middle" x="1654" y="-117" font-family="Helvetica,sans-Serif" font-size="10.00">wx/msgdlg.h</text>
</a>
</g>
</g>
<!-- Node14&#45;&gt;Node15 -->
<g id="edge16" class="edge">
<title>Node14&#45;&gt;Node15</title>
<path fill="none" stroke="#63b8ff" d="M1708.56,-164.98C1698.85,-157.07 1684.18,-145.11 1672.5,-135.58"/>
<polygon fill="#63b8ff" stroke="#63b8ff" points="1674.6,-132.78 1664.63,-129.17 1670.17,-138.2 1674.6,-132.78"/>
</g>
<!-- Node16 -->
<g id="node16" class="node">
<title>Node16</title>
<g id="a_node16"><a xlink:title=" ">
<polygon fill="#e0e0e0" stroke="#999999" points="1769,-129 1711,-129 1711,-110 1769,-110 1769,-129"/>
<text text-anchor="middle" x="1740" y="-117" font-family="Helvetica,sans-Serif" font-size="10.00">wx/log.h</text>
</a>
</g>
</g>
<!-- Node14&#45;&gt;Node16 -->
<g id="edge17" class="edge">
<title>Node14&#45;&gt;Node16</title>
<path fill="none" stroke="#63b8ff" d="M1722.47,-164.75C1725.28,-157.65 1729.34,-147.4 1732.85,-138.56"/>
<polygon fill="#63b8ff" stroke="#63b8ff" points="1736.17,-139.68 1736.6,-129.09 1729.66,-137.1 1736.17,-139.68"/>
</g>
<!-- Node17&#45;&gt;Node3 -->
<g id="edge19" class="edge">
<title>Node17&#45;&gt;Node3</title>
<path fill="none" stroke="#63b8ff" d="M652.16,-110.94C655.15,-110.59 658.11,-110.27 661,-110 1100.23,-69.05 1635.26,-65.53 1790.71,-65.42"/>
<polygon fill="#63b8ff" stroke="#63b8ff" points="1790.82,-68.92 1800.81,-65.42 1790.81,-61.92 1790.82,-68.92"/>
</g>
<!-- Node17&#45;&gt;Node10 -->
<g id="edge25" class="edge">
<title>Node17&#45;&gt;Node10</title>
<path fill="none" stroke="#63b8ff" d="M652.17,-111.11C655.16,-110.71 658.12,-110.34 661,-110 829.9,-90 1031.5,-74.88 1120.67,-68.64"/>
<polygon fill="#63b8ff" stroke="#63b8ff" points="1120.99,-72.12 1130.72,-67.94 1120.5,-65.14 1120.99,-72.12"/>
</g>
<!-- Node17&#45;&gt;Node13 -->
<g id="edge22" class="edge">
<title>Node17&#45;&gt;Node13</title>
<path fill="none" stroke="#63b8ff" d="M588.42,-109.98C573.23,-101.69 549.9,-88.94 532.1,-79.22"/>
<polygon fill="#63b8ff" stroke="#63b8ff" points="533.32,-75.89 522.87,-74.17 529.97,-82.04 533.32,-75.89"/>
</g>
<!-- Node18 -->
<g id="node18" class="node">
<title>Node18</title>
<g id="a_node18"><a xlink:title=" ">
<polygon fill="#e0e0e0" stroke="#999999" points="725,-74 653,-74 653,-55 725,-55 725,-74"/>
<text text-anchor="middle" x="689" y="-62" font-family="Helvetica,sans-Serif" font-size="10.00">wx/colour.h</text>
</a>
</g>
</g>
<!-- Node17&#45;&gt;Node18 -->
<g id="edge20" class="edge">
<title>Node17&#45;&gt;Node18</title>
<path fill="none" stroke="#63b8ff" d="M617.66,-109.98C630.84,-101.77 651.03,-89.18 666.57,-79.49"/>
<polygon fill="#63b8ff" stroke="#63b8ff" points="668.46,-82.43 675.09,-74.17 664.76,-76.49 668.46,-82.43"/>
</g>
<!-- Node19 -->
<g id="node19" class="node">
<title>Node19</title>
<g id="a_node19"><a xlink:title=" ">
<polygon fill="#e0e0e0" stroke="#999999" points="781,-74 743,-74 743,-55 781,-55 781,-74"/>
<text text-anchor="middle" x="762" y="-62" font-family="Helvetica,sans-Serif" font-size="10.00">map</text>
</a>
</g>
</g>
<!-- Node17&#45;&gt;Node19 -->
<g id="edge21" class="edge">
<title>Node17&#45;&gt;Node19</title>
<path fill="none" stroke="#63b8ff" d="M629.39,-109.98C657.63,-100.51 703.2,-85.23 732.87,-75.27"/>
<polygon fill="#63b8ff" stroke="#63b8ff" points="734.29,-78.49 742.65,-71.99 732.06,-71.85 734.29,-78.49"/>
</g>
<!-- Node20 -->
<g id="node20" class="node">
<title>Node20</title>
<g id="a_node20"><a xlink:title=" ">
<polygon fill="#e0e0e0" stroke="#999999" points="843,-74 799,-74 799,-55 843,-55 843,-74"/>
<text text-anchor="middle" x="821" y="-62" font-family="Helvetica,sans-Serif" font-size="10.00">string</text>
</a>
</g>
</g>
<!-- Node17&#45;&gt;Node20 -->
<g id="edge23" class="edge">
<title>Node17&#45;&gt;Node20</title>
<path fill="none" stroke="#63b8ff" d="M641.14,-109.99C676.69,-101.76 732.07,-88.73 788.81,-74.24"/>
<polygon fill="#63b8ff" stroke="#63b8ff" points="789.86,-77.59 798.67,-71.72 788.12,-70.81 789.86,-77.59"/>
</g>
<!-- Node21 -->
<g id="node21" class="node">
<title>Node21</title>
<g id="a_node21"><a xlink:title=" ">
<polygon fill="#e0e0e0" stroke="#999999" points="918.5,-74 861.5,-74 861.5,-55 918.5,-55 918.5,-74"/>
<text text-anchor="middle" x="890" y="-62" font-family="Helvetica,sans-Serif" font-size="10.00">ostream</text>
</a>
</g>
</g>
<!-- Node17&#45;&gt;Node21 -->
<g id="edge24" class="edge">
<title>Node17&#45;&gt;Node21</title>
<path fill="none" stroke="#63b8ff" d="M652.12,-110.49C700.02,-102.38 775.88,-89.15 851.25,-74.08"/>
<polygon fill="#63b8ff" stroke="#63b8ff" points="852.28,-77.44 861.39,-72.04 850.9,-70.58 852.28,-77.44"/>
</g>
<!-- Node22 -->
<g id="node22" class="node">
<title>Node22</title>
<g id="a_node22"><a xlink:title=" ">
<polygon fill="#e0e0e0" stroke="#999999" points="445,-74 383,-74 383,-55 445,-55 445,-74"/>
<text text-anchor="middle" x="414" y="-62" font-family="Helvetica,sans-Serif" font-size="10.00">wx/font.h</text>
</a>
</g>
</g>
<!-- Node17&#45;&gt;Node22 -->
<g id="edge26" class="edge">
<title>Node17&#45;&gt;Node22</title>
<path fill="none" stroke="#63b8ff" d="M573.47,-109.98C541.3,-101.01 490.44,-86.82 454.83,-76.89"/>
<polygon fill="#63b8ff" stroke="#63b8ff" points="455.34,-73.4 444.77,-74.08 453.46,-80.14 455.34,-73.4"/>
</g>
<!-- Node17&#45;&gt;Node23 -->
<g id="edge27" class="edge">
<title>Node17&#45;&gt;Node23</title>
<path fill="none" stroke="#63b8ff" d="M555.82,-111.15C552.84,-110.75 549.88,-110.36 547,-110 393.73,-90.77 351.97,-95.04 195.17,-74.07"/>
<polygon fill="#63b8ff" stroke="#63b8ff" points="195.55,-70.59 185.17,-72.72 194.61,-77.53 195.55,-70.59"/>
</g>
<!-- Node17&#45;&gt;Node24 -->
<g id="edge28" class="edge">
<title>Node17&#45;&gt;Node24</title>
<path fill="none" stroke="#63b8ff" d="M555.81,-111.24C552.83,-110.81 549.87,-110.4 547,-110 423.73,-93.03 389.22,-97.29 263.22,-74.02"/>
<polygon fill="#63b8ff" stroke="#63b8ff" points="263.65,-70.55 253.18,-72.15 262.36,-77.43 263.65,-70.55"/>
</g>
<!-- Node25 -->
<g id="node25" class="node">
<title>Node25</title>
<g id="a_node25"><a xlink:title=" ">
<polygon fill="#e0e0e0" stroke="#999999" points="634.5,-74 569.5,-74 569.5,-55 634.5,-55 634.5,-74"/>
<text text-anchor="middle" x="602" y="-62" font-family="Helvetica,sans-Serif" font-size="10.00">functional</text>
</a>
</g>
</g>
<!-- Node17&#45;&gt;Node25 -->
<g id="edge29" class="edge">
<title>Node17&#45;&gt;Node25</title>
<path fill="none" stroke="#63b8ff" d="M603.67,-109.75C603.41,-102.8 603.03,-92.85 602.7,-84.13"/>
<polygon fill="#63b8ff" stroke="#63b8ff" points="606.2,-83.95 602.32,-74.09 599.2,-84.21 606.2,-83.95"/>
</g>
<!-- Node17&#45;&gt;Node37 -->
<g id="edge30" class="edge">
<title>Node17&#45;&gt;Node37</title>
<path fill="none" stroke="#63b8ff" d="M558.05,-109.98C508.06,-100.72 428.11,-85.9 374.36,-75.94"/>
<polygon fill="#63b8ff" stroke="#63b8ff" points="374.78,-72.46 364.31,-74.08 373.51,-79.35 374.78,-72.46"/>
</g>
<!-- Node38&#45;&gt;Node6 -->
<g id="edge34" class="edge">
<title>Node38&#45;&gt;Node6</title>
<path fill="none" stroke="#63b8ff" d="M395.94,-110.61C308.9,-100.84 165.37,-84.4 95.06,-74.04"/>
<polygon fill="#63b8ff" stroke="#63b8ff" points="95.23,-70.53 84.82,-72.49 94.19,-77.45 95.23,-70.53"/>
</g>
<!-- Node38&#45;&gt;Node13 -->
<g id="edge33" class="edge">
<title>Node38&#45;&gt;Node13</title>
<path fill="none" stroke="#63b8ff" d="M473.61,-109.75C479.26,-102.26 487.54,-91.28 494.45,-82.13"/>
<polygon fill="#63b8ff" stroke="#63b8ff" points="497.29,-84.18 500.52,-74.09 491.7,-79.96 497.29,-84.18"/>
</g>
<!-- Node38&#45;&gt;Node22 -->
<g id="edge32" class="edge">
<title>Node38&#45;&gt;Node22</title>
<path fill="none" stroke="#63b8ff" d="M458.25,-109.75C450.53,-102.03 439.1,-90.6 429.78,-81.28"/>
<polygon fill="#63b8ff" stroke="#63b8ff" points="432.14,-78.69 422.59,-74.09 427.19,-83.64 432.14,-78.69"/>
</g>
<!-- Node38&#45;&gt;Node37 -->
<g id="edge35" class="edge">
<title>Node38&#45;&gt;Node37</title>
<path fill="none" stroke="#63b8ff" d="M443.06,-109.98C418.44,-101.23 379.88,-87.51 352.08,-77.62"/>
<polygon fill="#63b8ff" stroke="#63b8ff" points="352.97,-74.22 342.38,-74.17 350.62,-80.82 352.97,-74.22"/>
</g>
<!-- Node40&#45;&gt;Node6 -->
<g id="edge37" class="edge">
<title>Node40&#45;&gt;Node6</title>
<path fill="none" stroke="#63b8ff" d="M273.94,-109.98C224.8,-100.27 144.76,-84.44 94.59,-74.52"/>
<polygon fill="#63b8ff" stroke="#63b8ff" points="95.15,-71.06 84.66,-72.55 93.8,-77.93 95.15,-71.06"/>
</g>
<!-- Node40&#45;&gt;Node13 -->
<g id="edge38" class="edge">
<title>Node40&#45;&gt;Node13</title>
<path fill="none" stroke="#63b8ff" d="M347.53,-109.98C379.7,-101.01 430.56,-86.82 466.17,-76.89"/>
<polygon fill="#63b8ff" stroke="#63b8ff" points="467.54,-80.14 476.23,-74.08 465.66,-73.4 467.54,-80.14"/>
</g>
<!-- Node40&#45;&gt;Node37 -->
<g id="edge39" class="edge">
<title>Node40&#45;&gt;Node37</title>
<path fill="none" stroke="#63b8ff" d="M317.17,-109.75C317.3,-102.8 317.48,-92.85 317.65,-84.13"/>
<polygon fill="#63b8ff" stroke="#63b8ff" points="321.15,-84.15 317.84,-74.09 314.15,-84.02 321.15,-84.15"/>
</g>
<!-- Node41&#45;&gt;Node31 -->
<g id="edge41" class="edge">
<title>Node41&#45;&gt;Node31</title>
<path fill="none" stroke="#63b8ff" d="M767.17,-164.75C767.3,-157.8 767.48,-147.85 767.65,-139.13"/>
<polygon fill="#63b8ff" stroke="#63b8ff" points="771.15,-139.15 767.84,-129.09 764.15,-139.02 771.15,-139.15"/>
</g>
<!-- Node41&#45;&gt;Node46 -->
<g id="edge42" class="edge">
<title>Node41&#45;&gt;Node46</title>
<path fill="none" stroke="#63b8ff" d="M779.21,-164.98C790.78,-156.92 808.38,-144.65 822.16,-135.03"/>
<polygon fill="#63b8ff" stroke="#63b8ff" points="824.37,-137.76 830.57,-129.17 820.36,-132.02 824.37,-137.76"/>
</g>
<!-- Node41&#45;&gt;Node47 -->
<g id="edge43" class="edge">
<title>Node41&#45;&gt;Node47</title>
<path fill="none" stroke="#63b8ff" d="M790.14,-164.98C813.82,-156.27 850.87,-142.63 877.71,-132.75"/>
<polygon fill="#63b8ff" stroke="#63b8ff" points="879.27,-135.91 887.44,-129.17 876.85,-129.34 879.27,-135.91"/>
</g>
<!-- Node41&#45;&gt;Node34 -->
<g id="edge44" class="edge">
<title>Node41&#45;&gt;Node34</title>
<path fill="none" stroke="#63b8ff" d="M801.7,-164.98C840.62,-155.44 903.58,-139.99 944.13,-130.04"/>
<polygon fill="#63b8ff" stroke="#63b8ff" points="945.04,-133.42 953.92,-127.63 943.38,-126.62 945.04,-133.42"/>
</g>
<!-- Node41&#45;&gt;Node48 -->
<g id="edge45" class="edge">
<title>Node41&#45;&gt;Node48</title>
<path fill="none" stroke="#63b8ff" d="M755.27,-164.98C744.27,-157 727.58,-144.88 714.4,-135.31"/>
<polygon fill="#63b8ff" stroke="#63b8ff" points="716.09,-132.21 705.94,-129.17 711.98,-137.88 716.09,-132.21"/>
</g>
<!-- Node49&#45;&gt;Node17 -->
<g id="edge47" class="edge">
<title>Node49&#45;&gt;Node17</title>
<path fill="none" stroke="#63b8ff" d="M597.32,-164.75C598.37,-157.8 599.87,-147.85 601.19,-139.13"/>
<polygon fill="#63b8ff" stroke="#63b8ff" points="604.67,-139.5 602.7,-129.09 597.75,-138.45 604.67,-139.5"/>
</g>
<!-- Node49&#45;&gt;Node48 -->
<g id="edge48" class="edge">
<title>Node49&#45;&gt;Node48</title>
<path fill="none" stroke="#63b8ff" d="M611.75,-164.98C627.23,-156.61 651.09,-143.7 669.14,-133.95"/>
<polygon fill="#63b8ff" stroke="#63b8ff" points="670.84,-137.01 677.97,-129.17 667.51,-130.85 670.84,-137.01"/>
</g>
<!-- Node56&#45;&gt;Node3 -->
<g id="edge64" class="edge">
<title>Node56&#45;&gt;Node3</title>
<path fill="none" stroke="#63b8ff" d="M1826.54,-384.94C1892,-368.14 2025,-328.68 2025,-285.5 2025,-285.5 2025,-285.5 2025,-173.5 2025,-106.88 1935.63,-80.84 1879.48,-71.06"/>
<polygon fill="#63b8ff" stroke="#63b8ff" points="1879.84,-67.57 1869.41,-69.41 1878.71,-74.48 1879.84,-67.57"/>
</g>
<!-- Node56&#45;&gt;Node9 -->
<g id="edge75" class="edge">
<title>Node56&#45;&gt;Node9</title>
<path fill="none" stroke="#63b8ff" d="M1817.87,-384.89C1853.35,-371.82 1913.9,-343.15 1936,-294 1950.8,-261.09 1942.54,-217.73 1935.84,-193.64"/>
<polygon fill="#63b8ff" stroke="#63b8ff" points="1939.19,-192.6 1932.97,-184.03 1932.48,-194.61 1939.19,-192.6"/>
</g>
<!-- Node57 -->
<g id="node44" class="node">
<title>Node57</title>
<g id="a_node44"><a xlink:href="RegexCtrl_8h_source.html" target="_top" xlink:title=" ">
<polygon fill="white" stroke="#666666" points="1785,-349 1711,-349 1711,-330 1785,-330 1785,-349"/>
<text text-anchor="middle" x="1748" y="-337" font-family="Helvetica,sans-Serif" font-size="10.00">RegexCtrl.h</text>
</a>
</g>
</g>
<!-- Node56&#45;&gt;Node57 -->
<g id="edge65" class="edge">
<title>Node56&#45;&gt;Node57</title>
<path fill="none" stroke="#63b8ff" d="M1783.9,-384.75C1777.83,-377.26 1768.91,-366.28 1761.49,-357.13"/>
<polygon fill="#63b8ff" stroke="#63b8ff" points="1763.99,-354.65 1754.97,-349.09 1758.55,-359.06 1763.99,-354.65"/>
</g>
<!-- Node62 -->
<g id="node48" class="node">
<title>Node62</title>
<g id="a_node48"><a xlink:title=" ">
<polygon fill="#e0e0e0" stroke="#999999" points="1865,-349 1803,-349 1803,-330 1865,-330 1865,-349"/>
<text text-anchor="middle" x="1834" y="-337" font-family="Helvetica,sans-Serif" font-size="10.00">wx/grid.h</text>
</a>
</g>
</g>
<!-- Node56&#45;&gt;Node62 -->
<g id="edge76" class="edge">
<title>Node56&#45;&gt;Node62</title>
<path fill="none" stroke="#63b8ff" d="M1798.1,-384.75C1804.17,-377.26 1813.09,-366.28 1820.51,-357.13"/>
<polygon fill="#63b8ff" stroke="#63b8ff" points="1823.45,-359.06 1827.03,-349.09 1818.01,-354.65 1823.45,-359.06"/>
</g>
<!-- Node57&#45;&gt;Node3 -->
<g id="edge66" class="edge">
<title>Node57&#45;&gt;Node3</title>
<path fill="none" stroke="#63b8ff" d="M1755.19,-329.64C1776.93,-302.06 1841.36,-214.5 1855,-129 1856.33,-120.66 1856.77,-118.26 1855,-110 1853.03,-100.8 1849,-91.2 1845.07,-83.29"/>
<polygon fill="#63b8ff" stroke="#63b8ff" points="1848.09,-81.51 1840.32,-74.32 1841.91,-84.79 1848.09,-81.51"/>
</g>
<!-- Node57&#45;&gt;Node8 -->
<g id="edge70" class="edge">
<title>Node57&#45;&gt;Node8</title>
<path fill="none" stroke="#63b8ff" d="M1710.98,-332.85C1594.57,-315.06 1235.39,-260.19 1096.56,-238.99"/>
<polygon fill="#63b8ff" stroke="#63b8ff" points="1096.98,-235.51 1086.56,-237.46 1095.92,-242.43 1096.98,-235.51"/>
</g>
<!-- Node57&#45;&gt;Node9 -->
<g id="edge67" class="edge">
<title>Node57&#45;&gt;Node9</title>
<path fill="none" stroke="#63b8ff" d="M1757.79,-329.74C1787.16,-303.42 1874.89,-224.85 1912.53,-191.14"/>
<polygon fill="#63b8ff" stroke="#63b8ff" points="1915.05,-193.59 1920.17,-184.31 1910.38,-188.37 1915.05,-193.59"/>
</g>
<!-- Node58 -->
<g id="node45" class="node">
<title>Node58</title>
<g id="a_node45"><a xlink:title=" ">
<polygon fill="#e0e0e0" stroke="#999999" points="1657.5,-294 1586.5,-294 1586.5,-275 1657.5,-275 1657.5,-294"/>
<text text-anchor="middle" x="1622" y="-282" font-family="Helvetica,sans-Serif" font-size="10.00">wx/regex.h</text>
</a>
</g>
</g>
<!-- Node57&#45;&gt;Node58 -->
<g id="edge68" class="edge">
<title>Node57&#45;&gt;Node58</title>
<path fill="none" stroke="#63b8ff" d="M1727.76,-329.98C1707.3,-321.38 1675.47,-307.99 1652.07,-298.15"/>
<polygon fill="#63b8ff" stroke="#63b8ff" points="1653.19,-294.82 1642.61,-294.17 1650.47,-301.27 1653.19,-294.82"/>
</g>
<!-- Node59 -->
<g id="node46" class="node">
<title>Node59</title>
<g id="a_node46"><a xlink:title=" ">
<polygon fill="#e0e0e0" stroke="#999999" points="1754,-294 1676,-294 1676,-275 1754,-275 1754,-294"/>
<text text-anchor="middle" x="1715" y="-282" font-family="Helvetica,sans-Serif" font-size="10.00">wx/textctrl.h</text>
</a>
</g>
</g>
<!-- Node57&#45;&gt;Node59 -->
<g id="edge69" class="edge">
<title>Node57&#45;&gt;Node59</title>
<path fill="none" stroke="#63b8ff" d="M1742.55,-329.75C1737.99,-322.42 1731.33,-311.73 1725.71,-302.7"/>
<polygon fill="#63b8ff" stroke="#63b8ff" points="1728.6,-300.73 1720.35,-294.09 1722.66,-304.43 1728.6,-300.73"/>
</g>
<!-- Node60 -->
<g id="node47" class="node">
<title>Node60</title>
<g id="a_node47"><a xlink:href="BTextCtrl_8h_source.html" target="_top" xlink:title=" ">
<polygon fill="#fff0f0" stroke="red" points="1927.5,-294 1848.5,-294 1848.5,-275 1927.5,-275 1927.5,-294"/>
<text text-anchor="middle" x="1888" y="-282" font-family="Helvetica,sans-Serif" font-size="10.00">../BTextCtrl.h</text>
</a>
</g>
</g>
<!-- Node57&#45;&gt;Node60 -->
<g id="edge71" class="edge">
<title>Node57&#45;&gt;Node60</title>
<path fill="none" stroke="#63b8ff" d="M1770.49,-329.98C1793.52,-321.27 1829.54,-307.63 1855.63,-297.75"/>
<polygon fill="#63b8ff" stroke="#63b8ff" points="1856.98,-300.98 1865.1,-294.17 1854.51,-294.44 1856.98,-300.98"/>
</g>
<!-- Node60&#45;&gt;Node3 -->
<g id="edge72" class="edge">
<title>Node60&#45;&gt;Node3</title>
<path fill="none" stroke="#63b8ff" d="M1901.85,-274.78C1930.12,-255.8 1990.01,-208.95 1968,-165 1946.82,-122.71 1898.18,-93.76 1865.96,-78.42"/>
<polygon fill="#63b8ff" stroke="#63b8ff" points="1867.09,-75.09 1856.54,-74.1 1864.17,-81.45 1867.09,-75.09"/>
</g>
<!-- Node60&#45;&gt;Node8 -->
<g id="edge74" class="edge">
<title>Node60&#45;&gt;Node8</title>
<path fill="none" stroke="#63b8ff" d="M1848.32,-280.74C1823.75,-279.04 1791.54,-276.85 1763,-275 1514.58,-258.9 1217.99,-241.05 1096.77,-233.82"/>
<polygon fill="#63b8ff" stroke="#63b8ff" points="1096.81,-230.31 1086.62,-233.21 1096.4,-237.3 1096.81,-230.31"/>
</g>
<!-- Node60&#45;&gt;Node9 -->
<g id="edge73" class="edge">
<title>Node60&#45;&gt;Node9</title>
<path fill="none" stroke="#63b8ff" d="M1891.44,-274.66C1898.3,-257.01 1913.83,-217.09 1922.95,-193.64"/>
<polygon fill="#63b8ff" stroke="#63b8ff" points="1926.27,-194.75 1926.63,-184.16 1919.75,-192.21 1926.27,-194.75"/>
</g>
</g>
</svg>
