<?xml version="1.0" encoding="UTF-8" standalone="no"?>
<!DOCTYPE svg PUBLIC "-//W3C//DTD SVG 1.1//EN"
 "http://www.w3.org/Graphics/SVG/1.1/DTD/svg11.dtd">
<!-- Generated by graphviz version 2.43.0 (0)
 -->
<!-- Title: src/sidebars/CharButton.h Pages: 1 -->
<svg width="993pt" height="324pt"
 viewBox="0.00 0.00 992.50 324.00" xmlns="http://www.w3.org/2000/svg" xmlns:xlink="http://www.w3.org/1999/xlink">
<g id="graph0" class="graph" transform="scale(1 1) rotate(0) translate(4 320)">
<title>src/sidebars/CharButton.h</title>
<!-- Node1 -->
<g id="node1" class="node">
<title>Node1</title>
<g id="a_node1"><a xlink:title="This file contains the definition of the class Charbutton that allows to select arbitrary unicode sym...">
<polygon fill="#999999" stroke="#666666" points="341.5,-316 199.5,-316 199.5,-297 341.5,-297 341.5,-316"/>
<text text-anchor="middle" x="270.5" y="-304" font-family="Helvetica,sans-Serif" font-size="10.00">src/sidebars/CharButton.h</text>
</a>
</g>
</g>
<!-- Node2 -->
<g id="node2" class="node">
<title>Node2</title>
<g id="a_node2"><a xlink:href="CharButton_8cpp.html" target="_top" xlink:title="This file defines the class CharacterButton.">
<polygon fill="white" stroke="#666666" points="153,-255.5 0,-255.5 0,-236.5 153,-236.5 153,-255.5"/>
<text text-anchor="middle" x="76.5" y="-243.5" font-family="Helvetica,sans-Serif" font-size="10.00">src/sidebars/CharButton.cpp</text>
</a>
</g>
</g>
<!-- Node1&#45;&gt;Node2 -->
<g id="edge1" class="edge">
<title>Node1&#45;&gt;Node2</title>
<path fill="none" stroke="#63b8ff" d="M232.24,-293.96C194.72,-282.65 138.38,-265.66 104.74,-255.52"/>
<polygon fill="#63b8ff" stroke="#63b8ff" points="231.71,-297.46 242.29,-296.99 233.73,-290.76 231.71,-297.46"/>
</g>
<!-- Node3 -->
<g id="node3" class="node">
<title>Node3</title>
<g id="a_node3"><a xlink:href="GreekSidebar_8h.html" target="_top" xlink:title="This file declares the class wxMaximaFrame.">
<polygon fill="white" stroke="#666666" points="191.5,-195 39.5,-195 39.5,-176 191.5,-176 191.5,-195"/>
<text text-anchor="middle" x="115.5" y="-183" font-family="Helvetica,sans-Serif" font-size="10.00">src/sidebars/GreekSidebar.h</text>
</a>
</g>
</g>
<!-- Node1&#45;&gt;Node3 -->
<g id="edge2" class="edge">
<title>Node1&#45;&gt;Node3</title>
<path fill="none" stroke="#63b8ff" d="M248.71,-291.3C235.92,-282.79 219.56,-271.6 205.5,-261 175.37,-238.29 141.51,-209.25 125.25,-195.07"/>
<polygon fill="#63b8ff" stroke="#63b8ff" points="247.03,-294.39 257.31,-296.98 250.89,-288.55 247.03,-294.39"/>
</g>
<!-- Node5 -->
<g id="node5" class="node">
<title>Node5</title>
<g id="a_node5"><a xlink:href="wxMaximaFrame_8cpp.html" target="_top" xlink:title="This file defines the class wxMaximaFrame.">
<polygon fill="white" stroke="#666666" points="308,-134.5 169,-134.5 169,-115.5 308,-115.5 308,-134.5"/>
<text text-anchor="middle" x="238.5" y="-122.5" font-family="Helvetica,sans-Serif" font-size="10.00">src/wxMaximaFrame.cpp</text>
</a>
</g>
</g>
<!-- Node1&#45;&gt;Node5 -->
<g id="edge27" class="edge">
<title>Node1&#45;&gt;Node5</title>
<path fill="none" stroke="#63b8ff" d="M255.05,-289.26C248.6,-281.38 241.84,-271.38 238.5,-261 223.84,-215.49 232.54,-156.79 236.68,-134.81"/>
<polygon fill="#63b8ff" stroke="#63b8ff" points="252.53,-291.69 261.75,-296.9 257.79,-287.08 252.53,-291.69"/>
</g>
<!-- Node7 -->
<g id="node7" class="node">
<title>Node7</title>
<g id="a_node7"><a xlink:href="MathSidebar_8h.html" target="_top" xlink:title="This file declares the class wxMaximaFrame.">
<polygon fill="white" stroke="#666666" points="395.5,-255.5 247.5,-255.5 247.5,-236.5 395.5,-236.5 395.5,-255.5"/>
<text text-anchor="middle" x="321.5" y="-243.5" font-family="Helvetica,sans-Serif" font-size="10.00">src/sidebars/MathSidebar.h</text>
</a>
</g>
</g>
<!-- Node1&#45;&gt;Node7 -->
<g id="edge6" class="edge">
<title>Node1&#45;&gt;Node7</title>
<path fill="none" stroke="#63b8ff" d="M284.65,-289.27C294.13,-278.39 306.25,-264.49 313.94,-255.67"/>
<polygon fill="#63b8ff" stroke="#63b8ff" points="281.96,-287.03 278.03,-296.87 287.23,-291.63 281.96,-287.03"/>
</g>
<!-- Node9 -->
<g id="node9" class="node">
<title>Node9</title>
<g id="a_node9"><a xlink:href="SymbolsSidebar_8h.html" target="_top" xlink:title="This file declares the class wxMaximaFrame.">
<polygon fill="white" stroke="#666666" points="605,-255.5 440,-255.5 440,-236.5 605,-236.5 605,-255.5"/>
<text text-anchor="middle" x="522.5" y="-243.5" font-family="Helvetica,sans-Serif" font-size="10.00">src/sidebars/SymbolsSidebar.h</text>
</a>
</g>
</g>
<!-- Node1&#45;&gt;Node9 -->
<g id="edge9" class="edge">
<title>Node1&#45;&gt;Node9</title>
<path fill="none" stroke="#63b8ff" d="M317.11,-294.68C365.8,-283.38 441.19,-265.88 485.81,-255.52"/>
<polygon fill="#63b8ff" stroke="#63b8ff" points="316.09,-291.32 307.14,-296.99 317.68,-298.14 316.09,-291.32"/>
</g>
<!-- Node20 -->
<g id="node20" class="node">
<title>Node20</title>
<g id="a_node20"><a xlink:href="test__Accessibility_8cpp.html" target="_top" xlink:title="Logic&#45;level regression tests for wxMaxima&#39;s custom wxAccessible classes.">
<polygon fill="white" stroke="#666666" points="731.5,-261 623.5,-261 623.5,-231 731.5,-231 731.5,-261"/>
<text text-anchor="start" x="631.5" y="-249" font-family="Helvetica,sans-Serif" font-size="10.00">test/unit_tests/test</text>
<text text-anchor="middle" x="677.5" y="-238" font-family="Helvetica,sans-Serif" font-size="10.00">_Accessibility.cpp</text>
</a>
</g>
</g>
<!-- Node1&#45;&gt;Node20 -->
<g id="edge28" class="edge">
<title>Node1&#45;&gt;Node20</title>
<path fill="none" stroke="#63b8ff" d="M351.75,-296.96C421.44,-289.16 524.41,-276.49 613.5,-261 616.75,-260.43 620.08,-259.82 623.44,-259.17"/>
<polygon fill="#63b8ff" stroke="#63b8ff" points="351.27,-293.49 341.72,-298.08 352.04,-300.45 351.27,-293.49"/>
</g>
<!-- Node4 -->
<g id="node4" class="node">
<title>Node4</title>
<g id="a_node4"><a xlink:href="GreekSidebar_8cpp.html" target="_top" xlink:title="This file defines the class GreekSidebar.">
<polygon fill="white" stroke="#666666" points="490.5,-134.5 326.5,-134.5 326.5,-115.5 490.5,-115.5 490.5,-134.5"/>
<text text-anchor="middle" x="408.5" y="-122.5" font-family="Helvetica,sans-Serif" font-size="10.00">src/sidebars/GreekSidebar.cpp</text>
</a>
</g>
</g>
<!-- Node3&#45;&gt;Node4 -->
<g id="edge3" class="edge">
<title>Node3&#45;&gt;Node4</title>
<path fill="none" stroke="#63b8ff" d="M167.92,-174.03C224.47,-162.74 313.42,-144.98 365.84,-134.52"/>
<polygon fill="#63b8ff" stroke="#63b8ff" points="167.23,-170.6 158.1,-175.99 168.6,-177.47 167.23,-170.6"/>
</g>
<!-- Node3&#45;&gt;Node5 -->
<g id="edge4" class="edge">
<title>Node3&#45;&gt;Node5</title>
<path fill="none" stroke="#63b8ff" d="M142.55,-171.63C166.28,-160.35 200.09,-144.27 220.59,-134.52"/>
<polygon fill="#63b8ff" stroke="#63b8ff" points="140.91,-168.54 133.39,-175.99 143.92,-174.86 140.91,-168.54"/>
</g>
<!-- Node6 -->
<g id="node6" class="node">
<title>Node6</title>
<g id="a_node6"><a xlink:href="test__GreekSidebar_8cpp.html" target="_top" xlink:title="Regression test for the Greek sidebar&#39;s line wrapping.">
<polygon fill="white" stroke="#666666" points="150.5,-140 42.5,-140 42.5,-110 150.5,-110 150.5,-140"/>
<text text-anchor="start" x="50.5" y="-128" font-family="Helvetica,sans-Serif" font-size="10.00">test/unit_tests/test</text>
<text text-anchor="middle" x="96.5" y="-117" font-family="Helvetica,sans-Serif" font-size="10.00">_GreekSidebar.cpp</text>
</a>
</g>
</g>
<!-- Node3&#45;&gt;Node6 -->
<g id="edge5" class="edge">
<title>Node3&#45;&gt;Node6</title>
<path fill="none" stroke="#63b8ff" d="M109.56,-166.22C106.83,-157.79 103.63,-147.95 101.08,-140.11"/>
<polygon fill="#63b8ff" stroke="#63b8ff" points="106.28,-167.44 112.7,-175.87 112.94,-165.28 106.28,-167.44"/>
</g>
<!-- Node7&#45;&gt;Node5 -->
<g id="edge8" class="edge">
<title>Node7&#45;&gt;Node5</title>
<path fill="none" stroke="#63b8ff" d="M305.09,-229.26C295.77,-219.83 284.26,-207.32 275.5,-195 261.17,-174.84 248.51,-148.47 242.39,-134.91"/>
<polygon fill="#63b8ff" stroke="#63b8ff" points="302.72,-231.84 312.29,-236.38 307.64,-226.86 302.72,-231.84"/>
</g>
<!-- Node8 -->
<g id="node8" class="node">
<title>Node8</title>
<g id="a_node8"><a xlink:href="MathSidebar_8cpp.html" target="_top" xlink:title="This file defines the class SymbolsSidebar.">
<polygon fill="white" stroke="#666666" points="444,-195 285,-195 285,-176 444,-176 444,-195"/>
<text text-anchor="middle" x="364.5" y="-183" font-family="Helvetica,sans-Serif" font-size="10.00">src/sidebars/MathSidebar.cpp</text>
</a>
</g>
</g>
<!-- Node7&#45;&gt;Node8 -->
<g id="edge7" class="edge">
<title>Node7&#45;&gt;Node8</title>
<path fill="none" stroke="#63b8ff" d="M333.9,-228.13C341.82,-217.35 351.77,-203.82 358.13,-195.17"/>
<polygon fill="#63b8ff" stroke="#63b8ff" points="330.95,-226.24 327.84,-236.37 336.59,-230.38 330.95,-226.24"/>
</g>
<!-- Node10 -->
<g id="node10" class="node">
<title>Node10</title>
<g id="a_node10"><a xlink:href="SymbolsSidebar_8cpp.html" target="_top" xlink:title="This file defines the class SymbolsSidebar.">
<polygon fill="white" stroke="#666666" points="637.5,-195 461.5,-195 461.5,-176 637.5,-176 637.5,-195"/>
<text text-anchor="middle" x="549.5" y="-183" font-family="Helvetica,sans-Serif" font-size="10.00">src/sidebars/SymbolsSidebar.cpp</text>
</a>
</g>
</g>
<!-- Node9&#45;&gt;Node10 -->
<g id="edge10" class="edge">
<title>Node9&#45;&gt;Node10</title>
<path fill="none" stroke="#63b8ff" d="M530.74,-227.15C535.63,-216.54 541.63,-203.56 545.5,-195.17"/>
<polygon fill="#63b8ff" stroke="#63b8ff" points="527.5,-225.82 526.48,-236.37 533.85,-228.76 527.5,-225.82"/>
</g>
<!-- Node11 -->
<g id="node11" class="node">
<title>Node11</title>
<g id="a_node11"><a xlink:href="wxMaximaFrame_8h.html" target="_top" xlink:title="This file declares the class wxMaximaFrame.">
<polygon fill="white" stroke="#666666" points="783.5,-195 655.5,-195 655.5,-176 783.5,-176 783.5,-195"/>
<text text-anchor="middle" x="719.5" y="-183" font-family="Helvetica,sans-Serif" font-size="10.00">src/wxMaximaFrame.h</text>
</a>
</g>
</g>
<!-- Node9&#45;&gt;Node11 -->
<g id="edge11" class="edge">
<title>Node9&#45;&gt;Node11</title>
<path fill="none" stroke="#63b8ff" d="M560.86,-233.61C598.97,-222.29 656.52,-205.2 690.82,-195.02"/>
<polygon fill="#63b8ff" stroke="#63b8ff" points="559.74,-230.29 551.15,-236.49 561.73,-237 559.74,-230.29"/>
</g>
<!-- Node11&#45;&gt;Node4 -->
<g id="edge19" class="edge">
<title>Node11&#45;&gt;Node4</title>
<path fill="none" stroke="#63b8ff" d="M664.23,-174.1C604.23,-162.82 509.54,-145.01 453.78,-134.52"/>
<polygon fill="#63b8ff" stroke="#63b8ff" points="663.8,-177.58 674.28,-175.99 665.1,-170.71 663.8,-177.58"/>
</g>
<!-- Node11&#45;&gt;Node5 -->
<g id="edge26" class="edge">
<title>Node11&#45;&gt;Node5</title>
<path fill="none" stroke="#63b8ff" d="M645.14,-175.86C498.61,-159.54 459.84,-160.38 317.5,-140 306.47,-138.42 294.62,-136.46 283.54,-134.51"/>
<polygon fill="#63b8ff" stroke="#63b8ff" points="645.08,-179.38 655.41,-177.01 645.86,-172.42 645.08,-179.38"/>
</g>
<!-- Node12 -->
<g id="node12" class="node">
<title>Node12</title>
<g id="a_node12"><a xlink:href="AutocompletePopup_8cpp.html" target="_top" xlink:title="This file defines the class AutocompletePopup.">
<polygon fill="white" stroke="#666666" points="698.5,-134.5 546.5,-134.5 546.5,-115.5 698.5,-115.5 698.5,-134.5"/>
<text text-anchor="middle" x="622.5" y="-122.5" font-family="Helvetica,sans-Serif" font-size="10.00">src/AutocompletePopup.cpp</text>
</a>
</g>
</g>
<!-- Node11&#45;&gt;Node12 -->
<g id="edge12" class="edge">
<title>Node11&#45;&gt;Node12</title>
<path fill="none" stroke="#63b8ff" d="M696.48,-170.62C677.99,-159.46 652.58,-144.14 636.87,-134.67"/>
<polygon fill="#63b8ff" stroke="#63b8ff" points="694.82,-173.7 705.19,-175.87 698.43,-167.71 694.82,-173.7"/>
</g>
<!-- Node13 -->
<g id="node13" class="node">
<title>Node13</title>
<g id="a_node13"><a xlink:href="Worksheet_8cpp.html" target="_top" xlink:title="This file defines the class Worksheet.">
<polygon fill="white" stroke="#666666" points="627.5,-74 521.5,-74 521.5,-55 627.5,-55 627.5,-74"/>
<text text-anchor="middle" x="574.5" y="-62" font-family="Helvetica,sans-Serif" font-size="10.00">src/Worksheet.cpp</text>
</a>
</g>
</g>
<!-- Node11&#45;&gt;Node13 -->
<g id="edge13" class="edge">
<title>Node11&#45;&gt;Node13</title>
<path fill="none" stroke="#63b8ff" d="M645.31,-175.69C601.13,-168.75 551.08,-157.31 537.5,-140 520.83,-118.76 548.25,-88.8 564.25,-74.19"/>
<polygon fill="#63b8ff" stroke="#63b8ff" points="644.8,-179.15 655.21,-177.19 645.85,-172.23 644.8,-179.15"/>
</g>
<!-- Node14 -->
<g id="node14" class="node">
<title>Node14</title>
<g id="a_node14"><a xlink:href="EditorCell_8cpp.html" target="_top" xlink:title="This file defines the class EditorCell.">
<polygon fill="white" stroke="#666666" points="867,-74 740,-74 740,-55 867,-55 867,-74"/>
<text text-anchor="middle" x="803.5" y="-62" font-family="Helvetica,sans-Serif" font-size="10.00">src/cells/EditorCell.cpp</text>
</a>
</g>
</g>
<!-- Node11&#45;&gt;Node14 -->
<g id="edge14" class="edge">
<title>Node11&#45;&gt;Node14</title>
<path fill="none" stroke="#63b8ff" d="M778.09,-172.65C795.68,-166.06 813.05,-155.84 823.5,-140 837.37,-118.99 820.08,-88.66 809.92,-74.03"/>
<polygon fill="#63b8ff" stroke="#63b8ff" points="776.7,-169.42 768.35,-175.95 778.94,-176.05 776.7,-169.42"/>
</g>
<!-- Node15 -->
<g id="node15" class="node">
<title>Node15</title>
<g id="a_node15"><a xlink:href="main_8h.html" target="_top" xlink:title="This file declares the class wxMaxima that contains most of the program&#39;s logic.">
<polygon fill="white" stroke="#666666" points="953.5,-74 885.5,-74 885.5,-55 953.5,-55 953.5,-74"/>
<text text-anchor="middle" x="919.5" y="-62" font-family="Helvetica,sans-Serif" font-size="10.00">src/main.h</text>
</a>
</g>
</g>
<!-- Node11&#45;&gt;Node15 -->
<g id="edge15" class="edge">
<title>Node11&#45;&gt;Node15</title>
<path fill="none" stroke="#63b8ff" d="M762.72,-173.02C786.43,-165.63 815.75,-154.64 839.5,-140 870.2,-121.08 899.39,-89.2 912.41,-74.03"/>
<polygon fill="#63b8ff" stroke="#63b8ff" points="761.5,-169.73 752.93,-175.97 763.51,-176.43 761.5,-169.73"/>
</g>
<!-- Node19 -->
<g id="node19" class="node">
<title>Node19</title>
<g id="a_node19"><a xlink:href="wxMaxima_8h.html" target="_top" xlink:title="This file declares the class wxMaxima that contains most of the program&#39;s logic.">
<polygon fill="white" stroke="#666666" points="814,-134.5 717,-134.5 717,-115.5 814,-115.5 814,-134.5"/>
<text text-anchor="middle" x="765.5" y="-122.5" font-family="Helvetica,sans-Serif" font-size="10.00">src/wxMaxima.h</text>
</a>
</g>
</g>
<!-- Node11&#45;&gt;Node19 -->
<g id="edge20" class="edge">
<title>Node11&#45;&gt;Node19</title>
<path fill="none" stroke="#63b8ff" d="M732.51,-167.95C741.03,-157.12 751.81,-143.41 758.68,-134.67"/>
<polygon fill="#63b8ff" stroke="#63b8ff" points="729.72,-165.84 726.29,-175.87 735.22,-170.17 729.72,-165.84"/>
</g>
<!-- Node16 -->
<g id="node16" class="node">
<title>Node16</title>
<g id="a_node16"><a xlink:href="MaximaManual_8cpp.html" target="_top" xlink:title="This file defines the class MaximaManual.">
<polygon fill="white" stroke="#666666" points="984.5,-19 854.5,-19 854.5,0 984.5,0 984.5,-19"/>
<text text-anchor="middle" x="919.5" y="-7" font-family="Helvetica,sans-Serif" font-size="10.00">src/MaximaManual.cpp</text>
</a>
</g>
</g>
<!-- Node15&#45;&gt;Node16 -->
<g id="edge16" class="edge">
<title>Node15&#45;&gt;Node16</title>
<path fill="none" stroke="#63b8ff" d="M919.5,-44.66C919.5,-35.93 919.5,-25.99 919.5,-19.09"/>
<polygon fill="#63b8ff" stroke="#63b8ff" points="916,-44.75 919.5,-54.75 923,-44.75 916,-44.75"/>
</g>
<!-- Node17 -->
<g id="node17" class="node">
<title>Node17</title>
<g id="a_node17"><a xlink:href="main_8cpp.html" target="_top" xlink:title="The file that defines the starting point of the program.">
<polygon fill="white" stroke="#666666" points="833,-19 754,-19 754,0 833,0 833,-19"/>
<text text-anchor="middle" x="793.5" y="-7" font-family="Helvetica,sans-Serif" font-size="10.00">src/main.cpp</text>
</a>
</g>
</g>
<!-- Node15&#45;&gt;Node17 -->
<g id="edge17" class="edge">
<title>Node15&#45;&gt;Node17</title>
<path fill="none" stroke="#63b8ff" d="M889.85,-51.03C866.55,-41.23 834.7,-27.83 814.11,-19.17"/>
<polygon fill="#63b8ff" stroke="#63b8ff" points="888.68,-54.33 899.26,-54.98 891.4,-47.88 888.68,-54.33"/>
</g>
<!-- Node18 -->
<g id="node18" class="node">
<title>Node18</title>
<g id="a_node18"><a xlink:href="wxMaxima_8cpp.html" target="_top" xlink:title="This file defines the contents of the class wxMaxima that contains most of the program&#39;s logic.">
<polygon fill="white" stroke="#666666" points="730.5,-19 622.5,-19 622.5,0 730.5,0 730.5,-19"/>
<text text-anchor="middle" x="676.5" y="-7" font-family="Helvetica,sans-Serif" font-size="10.00">src/wxMaxima.cpp</text>
</a>
</g>
</g>
<!-- Node15&#45;&gt;Node18 -->
<g id="edge18" class="edge">
<title>Node15&#45;&gt;Node18</title>
<path fill="none" stroke="#63b8ff" d="M875.56,-53.92C829.94,-43.97 759.25,-28.55 715.54,-19.01"/>
<polygon fill="#63b8ff" stroke="#63b8ff" points="874.94,-57.36 885.46,-56.07 876.43,-50.52 874.94,-57.36"/>
</g>
<!-- Node19&#45;&gt;Node13 -->
<g id="edge21" class="edge">
<title>Node19&#45;&gt;Node13</title>
<path fill="none" stroke="#63b8ff" d="M727.83,-112.46C690.89,-101.15 635.42,-84.16 602.31,-74.02"/>
<polygon fill="#63b8ff" stroke="#63b8ff" points="727.14,-115.91 737.73,-115.49 729.19,-109.22 727.14,-115.91"/>
</g>
<!-- Node19&#45;&gt;Node14 -->
<g id="edge22" class="edge">
<title>Node19&#45;&gt;Node14</title>
<path fill="none" stroke="#63b8ff" d="M776.67,-106.8C783.64,-96.08 792.3,-82.73 797.87,-74.17"/>
<polygon fill="#63b8ff" stroke="#63b8ff" points="773.62,-105.08 771.11,-115.37 779.49,-108.89 773.62,-105.08"/>
</g>
<!-- Node19&#45;&gt;Node15 -->
<g id="edge24" class="edge">
<title>Node19&#45;&gt;Node15</title>
<path fill="none" stroke="#63b8ff" d="M797.41,-111.88C827.18,-100.57 870.84,-83.99 897.08,-74.02"/>
<polygon fill="#63b8ff" stroke="#63b8ff" points="796,-108.67 787.89,-115.49 798.48,-115.21 796,-108.67"/>
</g>
<!-- Node19&#45;&gt;Node17 -->
<g id="edge23" class="edge">
<title>Node19&#45;&gt;Node17</title>
<path fill="none" stroke="#63b8ff" d="M748.67,-108.07C735.98,-94.04 722.22,-73.08 731.5,-55 740.15,-38.14 758.48,-26.23 772.98,-19"/>
<polygon fill="#63b8ff" stroke="#63b8ff" points="746.36,-110.72 755.84,-115.46 751.39,-105.84 746.36,-110.72"/>
</g>
<!-- Node19&#45;&gt;Node18 -->
<g id="edge25" class="edge">
<title>Node19&#45;&gt;Node18</title>
<path fill="none" stroke="#63b8ff" d="M751.32,-107.63C743.05,-97.97 732.51,-85.43 723.5,-74 708.38,-54.83 691.56,-31.62 682.72,-19.25"/>
<polygon fill="#63b8ff" stroke="#63b8ff" points="748.72,-109.99 757.9,-115.28 754.03,-105.42 748.72,-109.99"/>
</g>
</g>
</svg>
