<?xml version="1.0" encoding="UTF-8" standalone="no"?>
<!DOCTYPE svg PUBLIC "-//W3C//DTD SVG 1.1//EN"
 "http://www.w3.org/Graphics/SVG/1.1/DTD/svg11.dtd">
<!-- Generated by graphviz version 2.43.0 (0)
 -->
<!-- Title: src/sidebars/CharButton.h Pages: 1 -->
<!--zoomable 308 -->
<svg id="main" version="1.1" xmlns="http://www.w3.org/2000/svg" xmlns:xlink="http://www.w3.org/1999/xlink" xml:space="preserve" onload="init(evt)">
<style type="text/css"><![CDATA[
.edge:hover path { stroke: red; }
.edge:hover polygon { stroke: red; fill: red; }
]]></style>
<script type="text/javascript"><![CDATA[
var edges = document.getElementsByTagName('g');
if (edges && edges.length) {
  for (var i=0;i<edges.length;i++) {
    if (edges[i].id.substr(0,4)=='edge') {
      edges[i].setAttribute('class','edge');
    }
  }
}
]]></script>
        <defs>
                <circle id="rim" cx="0" cy="0" r="7"/>
                <circle id="rim2" cx="0" cy="0" r="3.5"/>
                <g id="zoomPlus">
                        <use xlink:href="#rim" fill="#404040">
                                <set attributeName="fill" to="#808080" begin="zoomplus.mouseover" end="zoomplus.mouseout"/>
                        </use>
                        <path d="M-4,0h8M0,-4v8" fill="none" stroke="white" stroke-width="1.5" pointer-events="none"/>
                </g>
                <g id="zoomMin">
                        <use xlink:href="#rim" fill="#404040">
                                <set attributeName="fill" to="#808080" begin="zoomminus.mouseover" end="zoomminus.mouseout"/>
                        </use>
                        <path d="M-4,0h8" fill="none" stroke="white" stroke-width="1.5" pointer-events="none"/>
                </g>
                <g id="dirArrow">
                        <path fill="none" stroke="white" stroke-width="1.5" d="M0,-3.0v7 M-2.5,-0.5L0,-3.0L2.5,-0.5"/>
                </g>
               <g id="resetDef">
                       <use xlink:href="#rim2" fill="#404040">
                               <set attributeName="fill" to="#808080" begin="reset.mouseover" end="reset.mouseout"/>
                       </use>
               </g>
        </defs>

<script type="text/javascript">
var viewWidth = 1144;
var viewHeight = 308;
var sectionId = 'dynsection-1';
</script>
<script xlink:href="svgpan.js"/>
<svg id="graph" class="graph">
<g id="viewport">
<title>src/sidebars/CharButton.h</title>
<polygon fill="white" stroke="transparent" points="-4,4 -4,-304 1140,-304 1140,4 -4,4"/>
<!-- Node1 -->
<g id="node1" class="node">
<title>Node1</title>
<g id="a_node1"><a xlink:title="This file contains the definition of the class Charbutton that allows to select arbitrary unicode sym...">
<polygon fill="#bfbfbf" stroke="black" points="233.5,-280.5 233.5,-299.5 375.5,-299.5 375.5,-280.5 233.5,-280.5"/>
<text text-anchor="middle" x="304.5" y="-287.5" font-family="Helvetica,sans-Serif" font-size="10.00">src/sidebars/CharButton.h</text>
</a>
</g>
</g>
<!-- Node2 -->
<g id="node2" class="node">
<title>Node2</title>
<g id="a_node2"><a xlink:href="CharButton_8cpp.html" target="_top" xlink:title="This file defines the class CharacterButton.">
<polygon fill="white" stroke="black" points="0,-224.5 0,-243.5 153,-243.5 153,-224.5 0,-224.5"/>
<text text-anchor="middle" x="76.5" y="-231.5" font-family="Helvetica,sans-Serif" font-size="10.00">src/sidebars/CharButton.cpp</text>
</a>
</g>
</g>
<!-- Node1&#45;&gt;Node2 -->
<g id="edge1" class="edge">
<title>Node1&#45;&gt;Node2</title>
<path fill="none" stroke="midnightblue" d="M258.43,-278.09C215.35,-267.89 151.91,-252.86 112.46,-243.52"/>
<polygon fill="midnightblue" stroke="midnightblue" points="257.84,-281.54 268.37,-280.44 259.45,-274.73 257.84,-281.54"/>
</g>
<!-- Node3 -->
<g id="node3" class="node">
<title>Node3</title>
<g id="a_node3"><a xlink:href="GreekSidebar_8h.html" target="_top" xlink:title="This file declares the class wxMaximaFrame.">
<polygon fill="white" stroke="black" points="424.5,-168.5 424.5,-187.5 576.5,-187.5 576.5,-168.5 424.5,-168.5"/>
<text text-anchor="middle" x="500.5" y="-175.5" font-family="Helvetica,sans-Serif" font-size="10.00">src/sidebars/GreekSidebar.h</text>
</a>
</g>
</g>
<!-- Node1&#45;&gt;Node3 -->
<g id="edge2" class="edge">
<title>Node1&#45;&gt;Node3</title>
<path fill="none" stroke="midnightblue" d="M329.5,-275.66C346.02,-266.79 368.12,-254.82 387.5,-244 423.07,-224.13 464.48,-200.07 485.94,-187.53"/>
<polygon fill="midnightblue" stroke="midnightblue" points="327.64,-272.68 320.48,-280.49 330.94,-278.85 327.64,-272.68"/>
</g>
<!-- Node5 -->
<g id="node5" class="node">
<title>Node5</title>
<g id="a_node5"><a xlink:href="wxMaximaFrame_8cpp.html" target="_top" xlink:title="This file defines the class wxMaximaFrame.">
<polygon fill="white" stroke="black" points="206,-112.5 206,-131.5 345,-131.5 345,-112.5 206,-112.5"/>
<text text-anchor="middle" x="275.5" y="-119.5" font-family="Helvetica,sans-Serif" font-size="10.00">src/wxMaximaFrame.cpp</text>
</a>
</g>
</g>
<!-- Node1&#45;&gt;Node5 -->
<g id="edge26" class="edge">
<title>Node1&#45;&gt;Node5</title>
<path fill="none" stroke="midnightblue" d="M262.64,-276.61C246.89,-269.69 230.6,-259.28 221.5,-244 212.45,-228.79 220.64,-189.09 231.5,-168 239.2,-153.04 253.56,-139.79 263.78,-131.61"/>
<polygon fill="midnightblue" stroke="midnightblue" points="261.73,-280.02 272.32,-280.49 264.33,-273.52 261.73,-280.02"/>
</g>
<!-- Node6 -->
<g id="node6" class="node">
<title>Node6</title>
<g id="a_node6"><a xlink:href="SymbolsSidebar_8h.html" target="_top" xlink:title="This file declares the class wxMaximaFrame.">
<polygon fill="white" stroke="black" points="600,-224.5 600,-243.5 765,-243.5 765,-224.5 600,-224.5"/>
<text text-anchor="middle" x="682.5" y="-231.5" font-family="Helvetica,sans-Serif" font-size="10.00">src/sidebars/SymbolsSidebar.h</text>
</a>
</g>
</g>
<!-- Node1&#45;&gt;Node6 -->
<g id="edge5" class="edge">
<title>Node1&#45;&gt;Node6</title>
<path fill="none" stroke="midnightblue" d="M374.64,-278.98C446.05,-268.78 555.54,-253.14 622.88,-243.52"/>
<polygon fill="midnightblue" stroke="midnightblue" points="373.8,-275.56 364.4,-280.44 374.79,-282.49 373.8,-275.56"/>
</g>
<!-- Node17 -->
<g id="node17" class="node">
<title>Node17</title>
<g id="a_node17"><a xlink:href="MathSidebar_8h.html" target="_top" xlink:title="This file declares the class wxMaximaFrame.">
<polygon fill="white" stroke="black" points="230.5,-224.5 230.5,-243.5 378.5,-243.5 378.5,-224.5 230.5,-224.5"/>
<text text-anchor="middle" x="304.5" y="-231.5" font-family="Helvetica,sans-Serif" font-size="10.00">src/sidebars/MathSidebar.h</text>
</a>
</g>
</g>
<!-- Node1&#45;&gt;Node17 -->
<g id="edge23" class="edge">
<title>Node1&#45;&gt;Node17</title>
<path fill="none" stroke="midnightblue" d="M304.5,-269.8C304.5,-260.91 304.5,-250.78 304.5,-243.75"/>
<polygon fill="midnightblue" stroke="midnightblue" points="301,-270.08 304.5,-280.08 308,-270.08 301,-270.08"/>
</g>
<!-- Node4 -->
<g id="node4" class="node">
<title>Node4</title>
<g id="a_node4"><a xlink:href="GreekSidebar_8cpp.html" target="_top" xlink:title="This file defines the class GreekSidebar.">
<polygon fill="white" stroke="black" points="418.5,-112.5 418.5,-131.5 582.5,-131.5 582.5,-112.5 418.5,-112.5"/>
<text text-anchor="middle" x="500.5" y="-119.5" font-family="Helvetica,sans-Serif" font-size="10.00">src/sidebars/GreekSidebar.cpp</text>
</a>
</g>
</g>
<!-- Node3&#45;&gt;Node4 -->
<g id="edge3" class="edge">
<title>Node3&#45;&gt;Node4</title>
<path fill="none" stroke="midnightblue" d="M500.5,-157.8C500.5,-148.91 500.5,-138.78 500.5,-131.75"/>
<polygon fill="midnightblue" stroke="midnightblue" points="497,-158.08 500.5,-168.08 504,-158.08 497,-158.08"/>
</g>
<!-- Node3&#45;&gt;Node5 -->
<g id="edge4" class="edge">
<title>Node3&#45;&gt;Node5</title>
<path fill="none" stroke="midnightblue" d="M455.03,-166.09C412.53,-155.89 349.92,-140.86 310.99,-131.52"/>
<polygon fill="midnightblue" stroke="midnightblue" points="454.31,-169.51 464.85,-168.44 455.94,-162.71 454.31,-169.51"/>
</g>
<!-- Node7 -->
<g id="node7" class="node">
<title>Node7</title>
<g id="a_node7"><a xlink:href="SymbolsSidebar_8cpp.html" target="_top" xlink:title="This file defines the class SymbolsSidebar.">
<polygon fill="white" stroke="black" points="594.5,-168.5 594.5,-187.5 770.5,-187.5 770.5,-168.5 594.5,-168.5"/>
<text text-anchor="middle" x="682.5" y="-175.5" font-family="Helvetica,sans-Serif" font-size="10.00">src/sidebars/SymbolsSidebar.cpp</text>
</a>
</g>
</g>
<!-- Node6&#45;&gt;Node7 -->
<g id="edge6" class="edge">
<title>Node6&#45;&gt;Node7</title>
<path fill="none" stroke="midnightblue" d="M682.5,-213.8C682.5,-204.91 682.5,-194.78 682.5,-187.75"/>
<polygon fill="midnightblue" stroke="midnightblue" points="679,-214.08 682.5,-224.08 686,-214.08 679,-214.08"/>
</g>
<!-- Node8 -->
<g id="node8" class="node">
<title>Node8</title>
<g id="a_node8"><a xlink:href="wxMaximaFrame_8h.html" target="_top" xlink:title="This file declares the class wxMaximaFrame.">
<polygon fill="white" stroke="black" points="788.5,-168.5 788.5,-187.5 916.5,-187.5 916.5,-168.5 788.5,-168.5"/>
<text text-anchor="middle" x="852.5" y="-175.5" font-family="Helvetica,sans-Serif" font-size="10.00">src/wxMaximaFrame.h</text>
</a>
</g>
</g>
<!-- Node6&#45;&gt;Node8 -->
<g id="edge7" class="edge">
<title>Node6&#45;&gt;Node8</title>
<path fill="none" stroke="midnightblue" d="M719.32,-221.3C751.35,-211.13 797.02,-196.62 825.69,-187.52"/>
<polygon fill="midnightblue" stroke="midnightblue" points="717.91,-218.08 709.44,-224.44 720.03,-224.75 717.91,-218.08"/>
</g>
<!-- Node8&#45;&gt;Node4 -->
<g id="edge14" class="edge">
<title>Node8&#45;&gt;Node4</title>
<path fill="none" stroke="midnightblue" d="M786.77,-166.92C720.27,-156.71 618.6,-141.12 556.01,-131.52"/>
<polygon fill="midnightblue" stroke="midnightblue" points="786.31,-170.39 796.72,-168.44 787.37,-163.47 786.31,-170.39"/>
</g>
<!-- Node8&#45;&gt;Node5 -->
<g id="edge22" class="edge">
<title>Node8&#45;&gt;Node5</title>
<path fill="none" stroke="midnightblue" d="M778.32,-167.91C617.23,-150.93 440.63,-136.14 345.28,-128.48"/>
<polygon fill="midnightblue" stroke="midnightblue" points="778.11,-171.4 788.42,-168.98 778.84,-164.44 778.11,-171.4"/>
</g>
<!-- Node9 -->
<g id="node9" class="node">
<title>Node9</title>
<g id="a_node9"><a xlink:href="EditorCell_8cpp.html" target="_top" xlink:title="This file defines the class EditorCell.">
<polygon fill="white" stroke="black" points="1009,-56.5 1009,-75.5 1136,-75.5 1136,-56.5 1009,-56.5"/>
<text text-anchor="middle" x="1072.5" y="-63.5" font-family="Helvetica,sans-Serif" font-size="10.00">src/cells/EditorCell.cpp</text>
</a>
</g>
</g>
<!-- Node8&#45;&gt;Node9 -->
<g id="edge8" class="edge">
<title>Node8&#45;&gt;Node9</title>
<path fill="none" stroke="midnightblue" d="M878.74,-163.88C924.34,-141.08 1017,-94.75 1055.32,-75.59"/>
<polygon fill="midnightblue" stroke="midnightblue" points="877.14,-160.77 869.76,-168.37 880.27,-167.03 877.14,-160.77"/>
</g>
<!-- Node10 -->
<g id="node10" class="node">
<title>Node10</title>
<g id="a_node10"><a xlink:href="AutocompletePopup_8cpp.html" target="_top" xlink:title="This file defines the class AutocompletePopup.">
<polygon fill="white" stroke="black" points="600.5,-112.5 600.5,-131.5 752.5,-131.5 752.5,-112.5 600.5,-112.5"/>
<text text-anchor="middle" x="676.5" y="-119.5" font-family="Helvetica,sans-Serif" font-size="10.00">src/AutocompletePopup.cpp</text>
</a>
</g>
</g>
<!-- Node8&#45;&gt;Node10 -->
<g id="edge9" class="edge">
<title>Node8&#45;&gt;Node10</title>
<path fill="none" stroke="midnightblue" d="M814.81,-165.44C781.63,-155.26 734.07,-140.66 704.26,-131.52"/>
<polygon fill="midnightblue" stroke="midnightblue" points="814.03,-168.86 824.61,-168.44 816.08,-162.16 814.03,-168.86"/>
</g>
<!-- Node11 -->
<g id="node11" class="node">
<title>Node11</title>
<g id="a_node11"><a xlink:href="main_8h.html" target="_top" xlink:title="This file declares the class wxMaxima that contains most of the program&#39;s logic.">
<polygon fill="white" stroke="black" points="722.5,-56.5 722.5,-75.5 790.5,-75.5 790.5,-56.5 722.5,-56.5"/>
<text text-anchor="middle" x="756.5" y="-63.5" font-family="Helvetica,sans-Serif" font-size="10.00">src/main.h</text>
</a>
</g>
</g>
<!-- Node8&#45;&gt;Node11 -->
<g id="edge10" class="edge">
<title>Node8&#45;&gt;Node11</title>
<path fill="none" stroke="midnightblue" d="M832.98,-162.16C822.73,-153.87 810.29,-143.02 800.5,-132 784.03,-113.46 768.74,-88.43 761.28,-75.51"/>
<polygon fill="midnightblue" stroke="midnightblue" points="830.96,-165.02 840.98,-168.47 835.29,-159.53 830.96,-165.02"/>
</g>
<!-- Node15 -->
<g id="node15" class="node">
<title>Node15</title>
<g id="a_node15"><a xlink:href="wxMaxima_8h.html" target="_top" xlink:title="This file declares the class wxMaxima that contains most of the program&#39;s logic.">
<polygon fill="white" stroke="black" points="809,-112.5 809,-131.5 906,-131.5 906,-112.5 809,-112.5"/>
<text text-anchor="middle" x="857.5" y="-119.5" font-family="Helvetica,sans-Serif" font-size="10.00">src/wxMaxima.h</text>
</a>
</g>
</g>
<!-- Node8&#45;&gt;Node15 -->
<g id="edge15" class="edge">
<title>Node8&#45;&gt;Node15</title>
<path fill="none" stroke="midnightblue" d="M854.25,-158.1C855.08,-149.14 856.03,-138.86 856.69,-131.75"/>
<polygon fill="midnightblue" stroke="midnightblue" points="850.76,-157.8 853.33,-168.08 857.73,-158.45 850.76,-157.8"/>
</g>
<!-- Node16 -->
<g id="node16" class="node">
<title>Node16</title>
<g id="a_node16"><a xlink:href="Worksheet_8cpp.html" target="_top" xlink:title="This file defines the class Worksheet.">
<polygon fill="white" stroke="black" points="884.5,-56.5 884.5,-75.5 990.5,-75.5 990.5,-56.5 884.5,-56.5"/>
<text text-anchor="middle" x="937.5" y="-63.5" font-family="Helvetica,sans-Serif" font-size="10.00">src/Worksheet.cpp</text>
</a>
</g>
</g>
<!-- Node8&#45;&gt;Node16 -->
<g id="edge21" class="edge">
<title>Node8&#45;&gt;Node16</title>
<path fill="none" stroke="midnightblue" d="M878.84,-163.34C891.47,-155.63 905.9,-144.94 915.5,-132 928.42,-114.59 934.09,-89.08 936.29,-75.79"/>
<polygon fill="midnightblue" stroke="midnightblue" points="876.97,-160.38 870.06,-168.42 880.47,-166.44 876.97,-160.38"/>
</g>
<!-- Node12 -->
<g id="node12" class="node">
<title>Node12</title>
<g id="a_node12"><a xlink:href="main_8cpp.html" target="_top" xlink:title="The file that defines the starting point of the program.">
<polygon fill="white" stroke="black" points="717,-0.5 717,-19.5 796,-19.5 796,-0.5 717,-0.5"/>
<text text-anchor="middle" x="756.5" y="-7.5" font-family="Helvetica,sans-Serif" font-size="10.00">src/main.cpp</text>
</a>
</g>
</g>
<!-- Node11&#45;&gt;Node12 -->
<g id="edge11" class="edge">
<title>Node11&#45;&gt;Node12</title>
<path fill="none" stroke="midnightblue" d="M756.5,-45.8C756.5,-36.91 756.5,-26.78 756.5,-19.75"/>
<polygon fill="midnightblue" stroke="midnightblue" points="753,-46.08 756.5,-56.08 760,-46.08 753,-46.08"/>
</g>
<!-- Node13 -->
<g id="node13" class="node">
<title>Node13</title>
<g id="a_node13"><a xlink:href="MaximaManual_8cpp.html" target="_top" xlink:title="This file defines the class MaximaManual.">
<polygon fill="white" stroke="black" points="568.5,-0.5 568.5,-19.5 698.5,-19.5 698.5,-0.5 568.5,-0.5"/>
<text text-anchor="middle" x="633.5" y="-7.5" font-family="Helvetica,sans-Serif" font-size="10.00">src/MaximaManual.cpp</text>
</a>
</g>
</g>
<!-- Node11&#45;&gt;Node13 -->
<g id="edge12" class="edge">
<title>Node11&#45;&gt;Node13</title>
<path fill="none" stroke="midnightblue" d="M727.73,-52.37C704.69,-42.26 673.02,-28.35 652.9,-19.52"/>
<polygon fill="midnightblue" stroke="midnightblue" points="726.45,-55.63 737.01,-56.44 729.26,-49.22 726.45,-55.63"/>
</g>
<!-- Node14 -->
<g id="node14" class="node">
<title>Node14</title>
<g id="a_node14"><a xlink:href="wxMaxima_8cpp.html" target="_top" xlink:title="This file defines the contents of the class wxMaxima that contains most of the program&#39;s logic.">
<polygon fill="white" stroke="black" points="814.5,-0.5 814.5,-19.5 922.5,-19.5 922.5,-0.5 814.5,-0.5"/>
<text text-anchor="middle" x="868.5" y="-7.5" font-family="Helvetica,sans-Serif" font-size="10.00">src/wxMaxima.cpp</text>
</a>
</g>
</g>
<!-- Node11&#45;&gt;Node14 -->
<g id="edge13" class="edge">
<title>Node11&#45;&gt;Node14</title>
<path fill="none" stroke="midnightblue" d="M783.75,-51.86C804.52,-41.85 832.52,-28.35 850.55,-19.65"/>
<polygon fill="midnightblue" stroke="midnightblue" points="781.98,-48.83 774.49,-56.32 785.02,-55.13 781.98,-48.83"/>
</g>
<!-- Node15&#45;&gt;Node9 -->
<g id="edge16" class="edge">
<title>Node15&#45;&gt;Node9</title>
<path fill="none" stroke="midnightblue" d="M901.46,-109.96C942.07,-99.76 1001.54,-84.82 1038.59,-75.52"/>
<polygon fill="midnightblue" stroke="midnightblue" points="900.41,-106.61 891.57,-112.44 902.12,-113.4 900.41,-106.61"/>
</g>
<!-- Node15&#45;&gt;Node11 -->
<g id="edge17" class="edge">
<title>Node15&#45;&gt;Node11</title>
<path fill="none" stroke="midnightblue" d="M832.42,-107.59C813.74,-97.61 788.8,-84.27 772.69,-75.65"/>
<polygon fill="midnightblue" stroke="midnightblue" points="830.8,-110.7 841.27,-112.32 834.1,-104.52 830.8,-110.7"/>
</g>
<!-- Node15&#45;&gt;Node12 -->
<g id="edge18" class="edge">
<title>Node15&#45;&gt;Node12</title>
<path fill="none" stroke="midnightblue" d="M842.88,-104.3C831.24,-91.09 814.48,-72.22 799.5,-56 787.62,-43.14 773.56,-28.54 764.83,-19.54"/>
<polygon fill="midnightblue" stroke="midnightblue" points="840.49,-106.88 849.71,-112.08 845.74,-102.26 840.49,-106.88"/>
</g>
<!-- Node15&#45;&gt;Node14 -->
<g id="edge20" class="edge">
<title>Node15&#45;&gt;Node14</title>
<path fill="none" stroke="midnightblue" d="M859.37,-102.35C861.77,-78.25 865.87,-37.31 867.64,-19.59"/>
<polygon fill="midnightblue" stroke="midnightblue" points="855.88,-102.07 858.36,-112.37 862.84,-102.77 855.88,-102.07"/>
</g>
<!-- Node15&#45;&gt;Node16 -->
<g id="edge19" class="edge">
<title>Node15&#45;&gt;Node16</title>
<path fill="none" stroke="midnightblue" d="M878.8,-106.62C893.42,-96.76 912.33,-83.99 924.68,-75.65"/>
<polygon fill="midnightblue" stroke="midnightblue" points="876.68,-103.83 870.35,-112.32 880.6,-109.63 876.68,-103.83"/>
</g>
<!-- Node17&#45;&gt;Node5 -->
<g id="edge25" class="edge">
<title>Node17&#45;&gt;Node5</title>
<path fill="none" stroke="midnightblue" d="M272.66,-219.94C259.26,-212.67 245.05,-202.17 237.5,-188 226.56,-167.47 249.2,-144.06 264.02,-131.71"/>
<polygon fill="midnightblue" stroke="midnightblue" points="271.2,-223.13 281.71,-224.47 274.33,-216.87 271.2,-223.13"/>
</g>
<!-- Node18 -->
<g id="node18" class="node">
<title>Node18</title>
<g id="a_node18"><a xlink:href="MathSidebar_8cpp.html" target="_top" xlink:title="This file defines the class SymbolsSidebar.">
<polygon fill="white" stroke="black" points="247,-168.5 247,-187.5 406,-187.5 406,-168.5 247,-168.5"/>
<text text-anchor="middle" x="326.5" y="-175.5" font-family="Helvetica,sans-Serif" font-size="10.00">src/sidebars/MathSidebar.cpp</text>
</a>
</g>
</g>
<!-- Node17&#45;&gt;Node18 -->
<g id="edge24" class="edge">
<title>Node17&#45;&gt;Node18</title>
<path fill="none" stroke="midnightblue" d="M311.96,-214.69C315.67,-205.59 319.98,-195.01 322.93,-187.75"/>
<polygon fill="midnightblue" stroke="midnightblue" points="308.66,-213.5 308.13,-224.08 315.15,-216.14 308.66,-213.5"/>
</g>
</g>
</svg>
        <g id="navigator" transform="translate(0 0)" fill="#404254">
                <rect fill="#f2f5e9" fill-opacity="0.5" stroke="#606060" stroke-width=".5" x="0" y="0" width="60" height="60"/>
                <use id="zoomplus" xlink:href="#zoomPlus" x="17" y="9" onmousedown="handleZoom(evt,'in')"/>
                <use id="zoomminus" xlink:href="#zoomMin" x="42" y="9" onmousedown="handleZoom(evt,'out')"/>
                <use id="reset" xlink:href="#resetDef" x="30" y="36" onmousedown="handleReset()"/>
                <g id="arrowUp" xlink:href="#dirArrow" transform="translate(30 24)" onmousedown="handlePan(0,-1)">
                  <use xlink:href="#rim" fill="#404040">
                        <set attributeName="fill" to="#808080" begin="arrowUp.mouseover" end="arrowUp.mouseout"/>
                  </use>
                  <path fill="none" stroke="white" stroke-width="1.5" d="M0,-3.0v7 M-2.5,-0.5L0,-3.0L2.5,-0.5"/>
                </g>
                <g id="arrowRight" xlink:href="#dirArrow" transform="rotate(90) translate(36 -43)" onmousedown="handlePan(1,0)">
                  <use xlink:href="#rim" fill="#404040">
                        <set attributeName="fill" to="#808080" begin="arrowRight.mouseover" end="arrowRight.mouseout"/>
                  </use>
                  <path fill="none" stroke="white" stroke-width="1.5" d="M0,-3.0v7 M-2.5,-0.5L0,-3.0L2.5,-0.5"/>
                </g>
                <g id="arrowDown" xlink:href="#dirArrow" transform="rotate(180) translate(-30 -48)" onmousedown="handlePan(0,1)">
                  <use xlink:href="#rim" fill="#404040">
                        <set attributeName="fill" to="#808080" begin="arrowDown.mouseover" end="arrowDown.mouseout"/>
                  </use>
                  <path fill="none" stroke="white" stroke-width="1.5" d="M0,-3.0v7 M-2.5,-0.5L0,-3.0L2.5,-0.5"/>
                </g>
                <g id="arrowLeft" xlink:href="#dirArrow" transform="rotate(270) translate(-36 17)" onmousedown="handlePan(-1,0)">
                  <use xlink:href="#rim" fill="#404040">
                        <set attributeName="fill" to="#808080" begin="arrowLeft.mouseover" end="arrowLeft.mouseout"/>
                  </use>
                  <path fill="none" stroke="white" stroke-width="1.5" d="M0,-3.0v7 M-2.5,-0.5L0,-3.0L2.5,-0.5"/>
                </g>
        </g>
        <svg viewBox="0 0 15 15" width="100%" height="30px" preserveAspectRatio="xMaxYMin meet">
         <g id="arrow_out" transform="scale(0.3 0.3)">
          <a xlink:href="CharButton_8h__dep__incl_org.svg" target="_base">
           <rect id="button" ry="5" rx="5" y="6" x="6" height="38" width="38"
                fill="#f2f5e9" fill-opacity="0.5" stroke="#606060" stroke-width="1.0"/>
           <path id="arrow"
             d="M 11.500037,31.436501 C 11.940474,20.09759 22.043105,11.32322 32.158766,21.979434 L 37.068811,17.246167 C 37.068811,17.246167 37.088388,32 37.088388,32 L 22.160133,31.978069 C 22.160133,31.978069 26.997745,27.140456 26.997745,27.140456 C 18.528582,18.264221 13.291696,25.230495 11.500037,31.436501 z"
             style="fill:#404040;"/>
          </a>
         </g>
        </svg>
</svg>
