<?xml version="1.0" encoding="UTF-8" standalone="no"?>
<!DOCTYPE svg PUBLIC "-//W3C//DTD SVG 1.1//EN"
 "http://www.w3.org/Graphics/SVG/1.1/DTD/svg11.dtd">
<!-- Generated by graphviz version 2.43.0 (0)
 -->
<!-- Title: src/CharButton.cpp Pages: 1 -->
<svg width="1819pt" height="476pt"
 viewBox="0.00 0.00 1818.50 476.00" xmlns="http://www.w3.org/2000/svg" xmlns:xlink="http://www.w3.org/1999/xlink">
<g id="graph0" class="graph" transform="scale(1 1) rotate(0) translate(4 472)">
<title>src/CharButton.cpp</title>
<polygon fill="white" stroke="transparent" points="-4,4 -4,-472 1814.5,-472 1814.5,4 -4,4"/>
<!-- Node1 -->
<g id="node1" class="node">
<title>Node1</title>
<g id="a_node1"><a xlink:title="This file defines the class CharacterButton.">
<polygon fill="#bfbfbf" stroke="black" points="1562,-448.5 1562,-467.5 1671,-467.5 1671,-448.5 1562,-448.5"/>
<text text-anchor="middle" x="1616.5" y="-455.5" font-family="Helvetica,sans-Serif" font-size="10.00">src/CharButton.cpp</text>
</a>
</g>
</g>
<!-- Node2 -->
<g id="node2" class="node">
<title>Node2</title>
<g id="a_node2"><a xlink:href="CharButton_8h.html" target="_top" xlink:title="This file contains the definition of the class Charbutton that allows to select arbitrary unicode sym...">
<polygon fill="white" stroke="black" points="206.5,-280.5 206.5,-299.5 286.5,-299.5 286.5,-280.5 206.5,-280.5"/>
<text text-anchor="middle" x="246.5" y="-287.5" font-family="Helvetica,sans-Serif" font-size="10.00">CharButton.h</text>
</a>
</g>
</g>
<!-- Node1&#45;&gt;Node2 -->
<g id="edge1" class="edge">
<title>Node1&#45;&gt;Node2</title>
<path fill="none" stroke="midnightblue" d="M1561.99,-457.49C1345.26,-458.71 545.23,-456.22 316.5,-356 292.63,-345.54 271.69,-323.43 259.07,-307.91"/>
<polygon fill="midnightblue" stroke="midnightblue" points="261.56,-305.41 252.65,-299.67 256.04,-309.71 261.56,-305.41"/>
</g>
<!-- Node21 -->
<g id="node21" class="node">
<title>Node21</title>
<g id="a_node21"><a xlink:title=" ">
<polygon fill="white" stroke="#bfbfbf" points="1552.5,-112.5 1552.5,-131.5 1634.5,-131.5 1634.5,-112.5 1552.5,-112.5"/>
<text text-anchor="middle" x="1593.5" y="-119.5" font-family="Helvetica,sans-Serif" font-size="10.00">wx/settings.h</text>
</a>
</g>
</g>
<!-- Node1&#45;&gt;Node21 -->
<g id="edge72" class="edge">
<title>Node1&#45;&gt;Node21</title>
<path fill="none" stroke="midnightblue" d="M1616.5,-448.44C1616.5,-429.94 1616.5,-384.81 1616.5,-347 1616.5,-347 1616.5,-347 1616.5,-233 1616.5,-200.12 1606.53,-162.86 1599.72,-141.24"/>
<polygon fill="midnightblue" stroke="midnightblue" points="1603.04,-140.12 1596.6,-131.71 1596.39,-142.3 1603.04,-140.12"/>
</g>
<!-- Node43 -->
<g id="node43" class="node">
<title>Node43</title>
<g id="a_node43"><a xlink:href="UnicodeSidebar_8h.html" target="_top" xlink:title="This file contains the definition of the class Unicodesidebar that allows to select arbitrary unicode...">
<polygon fill="white" stroke="black" points="1139,-392.5 1139,-411.5 1240,-411.5 1240,-392.5 1139,-392.5"/>
<text text-anchor="middle" x="1189.5" y="-399.5" font-family="Helvetica,sans-Serif" font-size="10.00">UnicodeSidebar.h</text>
</a>
</g>
</g>
<!-- Node1&#45;&gt;Node43 -->
<g id="edge56" class="edge">
<title>Node1&#45;&gt;Node43</title>
<path fill="none" stroke="midnightblue" d="M1561.99,-450.11C1482.02,-439.99 1333.41,-421.2 1250.11,-410.66"/>
<polygon fill="midnightblue" stroke="midnightblue" points="1250.4,-407.17 1240.04,-409.39 1249.52,-414.12 1250.4,-407.17"/>
</g>
<!-- Node49 -->
<g id="node49" class="node">
<title>Node49</title>
<g id="a_node49"><a xlink:title=" ">
<polygon fill="white" stroke="#bfbfbf" points="1645,-392.5 1645,-411.5 1710,-411.5 1710,-392.5 1645,-392.5"/>
<text text-anchor="middle" x="1677.5" y="-399.5" font-family="Helvetica,sans-Serif" font-size="10.00">wx/sizer.h</text>
</a>
</g>
</g>
<!-- Node1&#45;&gt;Node49 -->
<g id="edge70" class="edge">
<title>Node1&#45;&gt;Node49</title>
<path fill="none" stroke="midnightblue" d="M1626.3,-448.32C1635.32,-440.34 1648.91,-428.31 1659.82,-418.65"/>
<polygon fill="midnightblue" stroke="midnightblue" points="1662.35,-421.08 1667.52,-411.83 1657.71,-415.84 1662.35,-421.08"/>
</g>
<!-- Node50 -->
<g id="node50" class="node">
<title>Node50</title>
<g id="a_node50"><a xlink:title=" ">
<polygon fill="white" stroke="#bfbfbf" points="1728.5,-392.5 1728.5,-411.5 1810.5,-411.5 1810.5,-392.5 1728.5,-392.5"/>
<text text-anchor="middle" x="1769.5" y="-399.5" font-family="Helvetica,sans-Serif" font-size="10.00">wx/dcbuffer.h</text>
</a>
</g>
</g>
<!-- Node1&#45;&gt;Node50 -->
<g id="edge71" class="edge">
<title>Node1&#45;&gt;Node50</title>
<path fill="none" stroke="midnightblue" d="M1640.74,-448.44C1666.37,-439.4 1706.99,-425.06 1735.74,-414.92"/>
<polygon fill="midnightblue" stroke="midnightblue" points="1737.11,-418.15 1745.37,-411.52 1734.78,-411.54 1737.11,-418.15"/>
</g>
<!-- Node3 -->
<g id="node3" class="node">
<title>Node3</title>
<g id="a_node3"><a xlink:title=" ">
<polygon fill="white" stroke="#bfbfbf" points="0,-224.5 0,-243.5 81,-243.5 81,-224.5 0,-224.5"/>
<text text-anchor="middle" x="40.5" y="-231.5" font-family="Helvetica,sans-Serif" font-size="10.00">wx/stattext.h</text>
</a>
</g>
</g>
<!-- Node2&#45;&gt;Node3 -->
<g id="edge2" class="edge">
<title>Node2&#45;&gt;Node3</title>
<path fill="none" stroke="midnightblue" d="M213.86,-280.44C178.45,-271.16 121.79,-256.31 82.95,-246.13"/>
<polygon fill="midnightblue" stroke="midnightblue" points="83.55,-242.67 72.99,-243.52 81.77,-249.44 83.55,-242.67"/>
</g>
<!-- Node4 -->
<g id="node4" class="node">
<title>Node4</title>
<g id="a_node4"><a xlink:href="precomp_8h_source.html" target="_top" xlink:title=" ">
<polygon fill="white" stroke="black" points="391.5,-56.5 391.5,-75.5 459.5,-75.5 459.5,-56.5 391.5,-56.5"/>
<text text-anchor="middle" x="425.5" y="-63.5" font-family="Helvetica,sans-Serif" font-size="10.00">precomp.h</text>
</a>
</g>
</g>
<!-- Node2&#45;&gt;Node4 -->
<g id="edge3" class="edge">
<title>Node2&#45;&gt;Node4</title>
<path fill="none" stroke="midnightblue" d="M252.49,-280.36C258.42,-271.53 267.45,-257.26 273.5,-244 299.09,-187.86 274.57,-157.27 316.5,-112 333.57,-93.57 359.32,-82.47 381.5,-75.9"/>
<polygon fill="midnightblue" stroke="midnightblue" points="382.68,-79.21 391.4,-73.2 380.83,-72.46 382.68,-79.21"/>
</g>
<!-- Node6 -->
<g id="node6" class="node">
<title>Node6</title>
<g id="a_node6"><a xlink:href="StringUtils_8h_source.html" target="_top" xlink:title=" ">
<polygon fill="white" stroke="black" points="99,-224.5 99,-243.5 176,-243.5 176,-224.5 99,-224.5"/>
<text text-anchor="middle" x="137.5" y="-231.5" font-family="Helvetica,sans-Serif" font-size="10.00">StringUtils.h</text>
</a>
</g>
</g>
<!-- Node2&#45;&gt;Node6 -->
<g id="edge5" class="edge">
<title>Node2&#45;&gt;Node6</title>
<path fill="none" stroke="midnightblue" d="M228.99,-280.32C211.43,-271.62 184.17,-258.12 163.97,-248.11"/>
<polygon fill="midnightblue" stroke="midnightblue" points="165.48,-244.96 154.97,-243.65 162.38,-251.23 165.48,-244.96"/>
</g>
<!-- Node9 -->
<g id="node9" class="node">
<title>Node9</title>
<g id="a_node9"><a xlink:href="Configuration_8h_source.html" target="_top" xlink:title=" ">
<polygon fill="white" stroke="black" points="1144,-224.5 1144,-243.5 1235,-243.5 1235,-224.5 1144,-224.5"/>
<text text-anchor="middle" x="1189.5" y="-231.5" font-family="Helvetica,sans-Serif" font-size="10.00">Configuration.h</text>
</a>
</g>
</g>
<!-- Node2&#45;&gt;Node9 -->
<g id="edge8" class="edge">
<title>Node2&#45;&gt;Node9</title>
<path fill="none" stroke="midnightblue" d="M286.72,-286.7C436.32,-278.13 960.91,-248.09 1133.78,-238.19"/>
<polygon fill="midnightblue" stroke="midnightblue" points="1134.15,-241.68 1143.93,-237.61 1133.75,-234.69 1134.15,-241.68"/>
</g>
<!-- Node42 -->
<g id="node42" class="node">
<title>Node42</title>
<g id="a_node42"><a xlink:title=" ">
<polygon fill="white" stroke="#bfbfbf" points="194.5,-224.5 194.5,-243.5 264.5,-243.5 264.5,-224.5 194.5,-224.5"/>
<text text-anchor="middle" x="229.5" y="-231.5" font-family="Helvetica,sans-Serif" font-size="10.00">wx/panel.h</text>
</a>
</g>
</g>
<!-- Node2&#45;&gt;Node42 -->
<g id="edge55" class="edge">
<title>Node2&#45;&gt;Node42</title>
<path fill="none" stroke="midnightblue" d="M243.69,-280.08C241.42,-272.85 238.13,-262.41 235.29,-253.4"/>
<polygon fill="midnightblue" stroke="midnightblue" points="238.6,-252.24 232.25,-243.75 231.92,-254.34 238.6,-252.24"/>
</g>
<!-- Node5 -->
<g id="node5" class="node">
<title>Node5</title>
<g id="a_node5"><a xlink:href="Version_8h_source.html" target="_top" xlink:title=" ">
<polygon fill="white" stroke="black" points="394.5,-0.5 394.5,-19.5 456.5,-19.5 456.5,-0.5 394.5,-0.5"/>
<text text-anchor="middle" x="425.5" y="-7.5" font-family="Helvetica,sans-Serif" font-size="10.00">Version.h</text>
</a>
</g>
</g>
<!-- Node4&#45;&gt;Node5 -->
<g id="edge4" class="edge">
<title>Node4&#45;&gt;Node5</title>
<path fill="none" stroke="midnightblue" d="M425.5,-56.08C425.5,-49.01 425.5,-38.86 425.5,-29.99"/>
<polygon fill="midnightblue" stroke="midnightblue" points="429,-29.75 425.5,-19.75 422,-29.75 429,-29.75"/>
</g>
<!-- Node7 -->
<g id="node7" class="node">
<title>Node7</title>
<g id="a_node7"><a xlink:title=" ">
<polygon fill="white" stroke="#bfbfbf" points="148,-168.5 148,-187.5 219,-187.5 219,-168.5 148,-168.5"/>
<text text-anchor="middle" x="183.5" y="-175.5" font-family="Helvetica,sans-Serif" font-size="10.00">wx/string.h</text>
</a>
</g>
</g>
<!-- Node6&#45;&gt;Node7 -->
<g id="edge6" class="edge">
<title>Node6&#45;&gt;Node7</title>
<path fill="none" stroke="midnightblue" d="M145.1,-224.08C151.73,-216.3 161.52,-204.8 169.56,-195.37"/>
<polygon fill="midnightblue" stroke="midnightblue" points="172.23,-197.63 176.05,-187.75 166.9,-193.09 172.23,-197.63"/>
</g>
<!-- Node8 -->
<g id="node8" class="node">
<title>Node8</title>
<g id="a_node8"><a xlink:title=" ">
<polygon fill="white" stroke="#bfbfbf" points="35,-168.5 35,-187.5 130,-187.5 130,-168.5 35,-168.5"/>
<text text-anchor="middle" x="82.5" y="-175.5" font-family="Helvetica,sans-Serif" font-size="10.00">wx/translation.h</text>
</a>
</g>
</g>
<!-- Node6&#45;&gt;Node8 -->
<g id="edge7" class="edge">
<title>Node6&#45;&gt;Node8</title>
<path fill="none" stroke="midnightblue" d="M128.42,-224.08C120.33,-216.14 108.3,-204.34 98.59,-194.8"/>
<polygon fill="midnightblue" stroke="midnightblue" points="101,-192.26 91.41,-187.75 96.1,-197.25 101,-192.26"/>
</g>
<!-- Node9&#45;&gt;Node4 -->
<g id="edge9" class="edge">
<title>Node9&#45;&gt;Node4</title>
<path fill="none" stroke="midnightblue" d="M1205.17,-224.29C1226.21,-211.54 1259.05,-187.2 1241.5,-168 1211.47,-135.14 886.68,-137.43 842.5,-132 706.19,-115.25 545.95,-88.18 469.88,-74.88"/>
<polygon fill="midnightblue" stroke="midnightblue" points="470.17,-71.38 459.72,-73.1 468.97,-78.28 470.17,-71.38"/>
</g>
<!-- Node10 -->
<g id="node10" class="node">
<title>Node10</title>
<g id="a_node10"><a xlink:title=" ">
<polygon fill="white" stroke="#bfbfbf" points="1531,-168.5 1531,-187.5 1588,-187.5 1588,-168.5 1531,-168.5"/>
<text text-anchor="middle" x="1559.5" y="-175.5" font-family="Helvetica,sans-Serif" font-size="10.00">wx/wx.h</text>
</a>
</g>
</g>
<!-- Node9&#45;&gt;Node10 -->
<g id="edge10" class="edge">
<title>Node9&#45;&gt;Node10</title>
<path fill="none" stroke="midnightblue" d="M1235.15,-227.74C1298.5,-220.2 1416.56,-205.31 1516.5,-188 1517.96,-187.75 1519.44,-187.48 1520.93,-187.21"/>
<polygon fill="midnightblue" stroke="midnightblue" points="1521.72,-190.62 1530.87,-185.28 1520.39,-183.75 1521.72,-190.62"/>
</g>
<!-- Node11 -->
<g id="node11" class="node">
<title>Node11</title>
<g id="a_node11"><a xlink:title=" ">
<polygon fill="white" stroke="#bfbfbf" points="1326.5,-112.5 1326.5,-131.5 1398.5,-131.5 1398.5,-112.5 1326.5,-112.5"/>
<text text-anchor="middle" x="1362.5" y="-119.5" font-family="Helvetica,sans-Serif" font-size="10.00">wx/config.h</text>
</a>
</g>
</g>
<!-- Node9&#45;&gt;Node11 -->
<g id="edge11" class="edge">
<title>Node9&#45;&gt;Node11</title>
<path fill="none" stroke="midnightblue" d="M1235.36,-227.92C1283.1,-221.59 1353.15,-208.95 1369.5,-188 1379.74,-174.88 1375.96,-155.47 1370.85,-141.27"/>
<polygon fill="midnightblue" stroke="midnightblue" points="1373.93,-139.55 1366.9,-131.63 1367.45,-142.21 1373.93,-139.55"/>
</g>
<!-- Node12 -->
<g id="node12" class="node">
<title>Node12</title>
<g id="a_node12"><a xlink:title=" ">
<polygon fill="white" stroke="#bfbfbf" points="592,-168.5 592,-187.5 669,-187.5 669,-168.5 592,-168.5"/>
<text text-anchor="middle" x="630.5" y="-175.5" font-family="Helvetica,sans-Serif" font-size="10.00">wx/display.h</text>
</a>
</g>
</g>
<!-- Node9&#45;&gt;Node12 -->
<g id="edge12" class="edge">
<title>Node9&#45;&gt;Node12</title>
<path fill="none" stroke="midnightblue" d="M1143.87,-230.48C1056,-225.3 857.01,-212 679.28,-187.97"/>
<polygon fill="midnightblue" stroke="midnightblue" points="679.6,-184.48 669.22,-186.6 678.65,-191.42 679.6,-184.48"/>
</g>
<!-- Node13 -->
<g id="node13" class="node">
<title>Node13</title>
<g id="a_node13"><a xlink:title=" ">
<polygon fill="white" stroke="#bfbfbf" points="687.5,-168.5 687.5,-187.5 777.5,-187.5 777.5,-168.5 687.5,-168.5"/>
<text text-anchor="middle" x="732.5" y="-175.5" font-family="Helvetica,sans-Serif" font-size="10.00">wx/fontenum.h</text>
</a>
</g>
</g>
<!-- Node9&#45;&gt;Node13 -->
<g id="edge13" class="edge">
<title>Node9&#45;&gt;Node13</title>
<path fill="none" stroke="midnightblue" d="M1143.77,-228.7C1070.75,-221.67 923.11,-206.72 787.7,-188.1"/>
<polygon fill="midnightblue" stroke="midnightblue" points="787.94,-184.6 777.55,-186.7 786.98,-191.53 787.94,-184.6"/>
</g>
<!-- Node14 -->
<g id="node14" class="node">
<title>Node14</title>
<g id="a_node14"><a xlink:title=" ">
<polygon fill="white" stroke="#bfbfbf" points="795.5,-168.5 795.5,-187.5 883.5,-187.5 883.5,-168.5 795.5,-168.5"/>
<text text-anchor="middle" x="839.5" y="-175.5" font-family="Helvetica,sans-Serif" font-size="10.00">wx/hashmap.h</text>
</a>
</g>
</g>
<!-- Node9&#45;&gt;Node14 -->
<g id="edge14" class="edge">
<title>Node9&#45;&gt;Node14</title>
<path fill="none" stroke="midnightblue" d="M1143.92,-226.35C1087.59,-218.08 988.52,-203.34 893.78,-188.18"/>
<polygon fill="midnightblue" stroke="midnightblue" points="894.16,-184.7 883.74,-186.57 893.06,-191.61 894.16,-184.7"/>
</g>
<!-- Node15 -->
<g id="node15" class="node">
<title>Node15</title>
<g id="a_node15"><a xlink:href="LoggingMessageDialog_8h.html" target="_top" xlink:title="This file declares a message dialog that sends its contents to the log message sink.">
<polygon fill="white" stroke="black" points="435,-168.5 435,-187.5 574,-187.5 574,-168.5 435,-168.5"/>
<text text-anchor="middle" x="504.5" y="-175.5" font-family="Helvetica,sans-Serif" font-size="10.00">LoggingMessageDialog.h</text>
</a>
</g>
</g>
<!-- Node9&#45;&gt;Node15 -->
<g id="edge15" class="edge">
<title>Node9&#45;&gt;Node15</title>
<path fill="none" stroke="midnightblue" d="M1143.84,-230.22C1044.34,-224.04 800.3,-208.17 584.52,-188.06"/>
<polygon fill="midnightblue" stroke="midnightblue" points="584.55,-184.55 574.27,-187.1 583.9,-191.52 584.55,-184.55"/>
</g>
<!-- Node18 -->
<g id="node18" class="node">
<title>Node18</title>
<g id="a_node18"><a xlink:href="TextStyle_8h.html" target="_top" xlink:title="This file declares everything needed for the text style system used to style all the elements on the ...">
<polygon fill="white" stroke="black" points="1289,-168.5 1289,-187.5 1360,-187.5 1360,-168.5 1289,-168.5"/>
<text text-anchor="middle" x="1324.5" y="-175.5" font-family="Helvetica,sans-Serif" font-size="10.00">TextStyle.h</text>
</a>
</g>
</g>
<!-- Node9&#45;&gt;Node18 -->
<g id="edge19" class="edge">
<title>Node9&#45;&gt;Node18</title>
<path fill="none" stroke="midnightblue" d="M1210.89,-224.44C1233.21,-215.52 1268.4,-201.44 1293.71,-191.32"/>
<polygon fill="midnightblue" stroke="midnightblue" points="1295.22,-194.48 1303.21,-187.52 1292.62,-187.98 1295.22,-194.48"/>
</g>
<!-- Node34 -->
<g id="node34" class="node">
<title>Node34</title>
<g id="a_node34"><a xlink:title=" ">
<polygon fill="white" stroke="#bfbfbf" points="1340.5,-56.5 1340.5,-75.5 1398.5,-75.5 1398.5,-56.5 1340.5,-56.5"/>
<text text-anchor="middle" x="1369.5" y="-63.5" font-family="Helvetica,sans-Serif" font-size="10.00">memory</text>
</a>
</g>
</g>
<!-- Node9&#45;&gt;Node34 -->
<g id="edge48" class="edge">
<title>Node9&#45;&gt;Node34</title>
<path fill="none" stroke="midnightblue" d="M1235.01,-227.64C1285.94,-220.79 1364.25,-207.45 1386.5,-188 1412.89,-164.94 1419.54,-144.91 1407.5,-112 1403.44,-100.91 1395.31,-90.67 1387.61,-82.76"/>
<polygon fill="midnightblue" stroke="midnightblue" points="1389.86,-80.07 1380.21,-75.7 1385.03,-85.14 1389.86,-80.07"/>
</g>
<!-- Node35 -->
<g id="node35" class="node">
<title>Node35</title>
<g id="a_node35"><a xlink:title=" ">
<polygon fill="white" stroke="#bfbfbf" points="1416.5,-56.5 1416.5,-75.5 1448.5,-75.5 1448.5,-56.5 1416.5,-56.5"/>
<text text-anchor="middle" x="1432.5" y="-63.5" font-family="Helvetica,sans-Serif" font-size="10.00">list</text>
</a>
</g>
</g>
<!-- Node9&#45;&gt;Node35 -->
<g id="edge51" class="edge">
<title>Node9&#45;&gt;Node35</title>
<path fill="none" stroke="midnightblue" d="M1235.44,-229.19C1292.12,-223.56 1384,-211.1 1408.5,-188 1436.59,-161.52 1437.02,-112.34 1434.82,-85.56"/>
<polygon fill="midnightblue" stroke="midnightblue" points="1438.3,-85.17 1433.78,-75.58 1431.33,-85.89 1438.3,-85.17"/>
</g>
<!-- Node37 -->
<g id="node37" class="node">
<title>Node37</title>
<g id="a_node37"><a xlink:title=" ">
<polygon fill="white" stroke="#bfbfbf" points="1467,-56.5 1467,-75.5 1560,-75.5 1560,-56.5 1467,-56.5"/>
<text text-anchor="middle" x="1513.5" y="-63.5" font-family="Helvetica,sans-Serif" font-size="10.00">unordered_map</text>
</a>
</g>
</g>
<!-- Node9&#45;&gt;Node37 -->
<g id="edge49" class="edge">
<title>Node9&#45;&gt;Node37</title>
<path fill="none" stroke="midnightblue" d="M1235.01,-228.54C1295.15,-221.96 1397.13,-208.21 1428.5,-188 1467.75,-162.72 1494.13,-112.29 1506.12,-85.21"/>
<polygon fill="midnightblue" stroke="midnightblue" points="1509.44,-86.34 1510.13,-75.77 1503,-83.6 1509.44,-86.34"/>
</g>
<!-- Node38 -->
<g id="node38" class="node">
<title>Node38</title>
<g id="a_node38"><a xlink:title=" ">
<polygon fill="white" stroke="#bfbfbf" points="901.5,-168.5 901.5,-187.5 955.5,-187.5 955.5,-168.5 901.5,-168.5"/>
<text text-anchor="middle" x="928.5" y="-175.5" font-family="Helvetica,sans-Serif" font-size="10.00">random</text>
</a>
</g>
</g>
<!-- Node9&#45;&gt;Node38 -->
<g id="edge50" class="edge">
<title>Node9&#45;&gt;Node38</title>
<path fill="none" stroke="midnightblue" d="M1144.34,-224.48C1099.02,-215.8 1027.26,-201.71 965.5,-188 965.4,-187.98 965.3,-187.96 965.2,-187.93"/>
<polygon fill="midnightblue" stroke="midnightblue" points="966.08,-184.54 955.55,-185.71 964.51,-191.37 966.08,-184.54"/>
</g>
<!-- Node39 -->
<g id="node39" class="node">
<title>Node39</title>
<g id="a_node39"><a xlink:title=" ">
<polygon fill="white" stroke="#bfbfbf" points="974,-168.5 974,-187.5 1021,-187.5 1021,-168.5 974,-168.5"/>
<text text-anchor="middle" x="997.5" y="-175.5" font-family="Helvetica,sans-Serif" font-size="10.00">vector</text>
</a>
</g>
</g>
<!-- Node9&#45;&gt;Node39 -->
<g id="edge52" class="edge">
<title>Node9&#45;&gt;Node39</title>
<path fill="none" stroke="midnightblue" d="M1159.08,-224.44C1124.24,-214.65 1067.33,-198.64 1031.18,-188.47"/>
<polygon fill="midnightblue" stroke="midnightblue" points="1031.7,-184.98 1021.12,-185.64 1029.8,-191.72 1031.7,-184.98"/>
</g>
<!-- Node40 -->
<g id="node40" class="node">
<title>Node40</title>
<g id="a_node40"><a xlink:title=" ">
<polygon fill="white" stroke="#bfbfbf" points="1039,-168.5 1039,-187.5 1128,-187.5 1128,-168.5 1039,-168.5"/>
<text text-anchor="middle" x="1083.5" y="-175.5" font-family="Helvetica,sans-Serif" font-size="10.00">wx/wupdlock.h</text>
</a>
</g>
</g>
<!-- Node9&#45;&gt;Node40 -->
<g id="edge53" class="edge">
<title>Node9&#45;&gt;Node40</title>
<path fill="none" stroke="midnightblue" d="M1172.47,-224.32C1155.47,-215.66 1129.12,-202.24 1109.51,-192.25"/>
<polygon fill="midnightblue" stroke="midnightblue" points="1110.99,-189.08 1100.49,-187.65 1107.81,-195.31 1110.99,-189.08"/>
</g>
<!-- Node41 -->
<g id="node41" class="node">
<title>Node41</title>
<g id="a_node41"><a xlink:title=" ">
<polygon fill="white" stroke="#bfbfbf" points="1146.5,-168.5 1146.5,-187.5 1232.5,-187.5 1232.5,-168.5 1146.5,-168.5"/>
<text text-anchor="middle" x="1189.5" y="-175.5" font-family="Helvetica,sans-Serif" font-size="10.00">wx/webview.h</text>
</a>
</g>
</g>
<!-- Node9&#45;&gt;Node41 -->
<g id="edge54" class="edge">
<title>Node9&#45;&gt;Node41</title>
<path fill="none" stroke="midnightblue" d="M1189.5,-224.08C1189.5,-217.01 1189.5,-206.86 1189.5,-197.99"/>
<polygon fill="midnightblue" stroke="midnightblue" points="1193,-197.75 1189.5,-187.75 1186,-197.75 1193,-197.75"/>
</g>
<!-- Node15&#45;&gt;Node4 -->
<g id="edge16" class="edge">
<title>Node15&#45;&gt;Node4</title>
<path fill="none" stroke="midnightblue" d="M496.02,-168.45C487.55,-159.69 474.4,-145.48 464.5,-132 453.33,-116.79 442.43,-98.22 435.01,-84.83"/>
<polygon fill="midnightblue" stroke="midnightblue" points="437.92,-82.85 430.06,-75.74 431.77,-86.19 437.92,-82.85"/>
</g>
<!-- Node16 -->
<g id="node16" class="node">
<title>Node16</title>
<g id="a_node16"><a xlink:title=" ">
<polygon fill="white" stroke="#bfbfbf" points="473,-112.5 473,-131.5 552,-131.5 552,-112.5 473,-112.5"/>
<text text-anchor="middle" x="512.5" y="-119.5" font-family="Helvetica,sans-Serif" font-size="10.00">wx/msgdlg.h</text>
</a>
</g>
</g>
<!-- Node15&#45;&gt;Node16 -->
<g id="edge17" class="edge">
<title>Node15&#45;&gt;Node16</title>
<path fill="none" stroke="midnightblue" d="M505.82,-168.08C506.88,-160.93 508.41,-150.64 509.73,-141.69"/>
<polygon fill="midnightblue" stroke="midnightblue" points="513.2,-142.16 511.2,-131.75 506.28,-141.13 513.2,-142.16"/>
</g>
<!-- Node17 -->
<g id="node17" class="node">
<title>Node17</title>
<g id="a_node17"><a xlink:title=" ">
<polygon fill="white" stroke="#bfbfbf" points="569.5,-112.5 569.5,-131.5 627.5,-131.5 627.5,-112.5 569.5,-112.5"/>
<text text-anchor="middle" x="598.5" y="-119.5" font-family="Helvetica,sans-Serif" font-size="10.00">wx/log.h</text>
</a>
</g>
</g>
<!-- Node15&#45;&gt;Node17 -->
<g id="edge18" class="edge">
<title>Node15&#45;&gt;Node17</title>
<path fill="none" stroke="midnightblue" d="M519.6,-168.32C534.4,-159.82 557.19,-146.73 574.48,-136.8"/>
<polygon fill="midnightblue" stroke="midnightblue" points="576.51,-139.67 583.43,-131.65 573.02,-133.6 576.51,-139.67"/>
</g>
<!-- Node18&#45;&gt;Node4 -->
<g id="edge20" class="edge">
<title>Node18&#45;&gt;Node4</title>
<path fill="none" stroke="midnightblue" d="M1288.78,-170.19C1283.99,-169.39 1279.13,-168.63 1274.5,-168 1102.9,-144.64 1053.88,-176.45 886.5,-132 865.74,-126.49 863.22,-117.67 842.5,-112 807.18,-102.34 569.96,-80.08 469.89,-70.98"/>
<polygon fill="midnightblue" stroke="midnightblue" points="470.07,-67.49 459.79,-70.07 469.44,-74.46 470.07,-67.49"/>
</g>
<!-- Node18&#45;&gt;Node11 -->
<g id="edge22" class="edge">
<title>Node18&#45;&gt;Node11</title>
<path fill="none" stroke="midnightblue" d="M1330.77,-168.08C1336.14,-160.46 1344.02,-149.26 1350.58,-139.94"/>
<polygon fill="midnightblue" stroke="midnightblue" points="1353.45,-141.94 1356.34,-131.75 1347.72,-137.91 1353.45,-141.94"/>
</g>
<!-- Node19 -->
<g id="node19" class="node">
<title>Node19</title>
<g id="a_node19"><a xlink:title=" ">
<polygon fill="white" stroke="#bfbfbf" points="1030.5,-112.5 1030.5,-131.5 1102.5,-131.5 1102.5,-112.5 1030.5,-112.5"/>
<text text-anchor="middle" x="1066.5" y="-119.5" font-family="Helvetica,sans-Serif" font-size="10.00">wx/colour.h</text>
</a>
</g>
</g>
<!-- Node18&#45;&gt;Node19 -->
<g id="edge21" class="edge">
<title>Node18&#45;&gt;Node19</title>
<path fill="none" stroke="midnightblue" d="M1288.9,-169.55C1242.99,-159.94 1163.06,-143.21 1112.56,-132.64"/>
<polygon fill="midnightblue" stroke="midnightblue" points="1113.07,-129.17 1102.57,-130.55 1111.64,-136.02 1113.07,-129.17"/>
</g>
<!-- Node20 -->
<g id="node20" class="node">
<title>Node20</title>
<g id="a_node20"><a xlink:title=" ">
<polygon fill="white" stroke="#bfbfbf" points="1158.5,-56.5 1158.5,-75.5 1220.5,-75.5 1220.5,-56.5 1158.5,-56.5"/>
<text text-anchor="middle" x="1189.5" y="-63.5" font-family="Helvetica,sans-Serif" font-size="10.00">wx/font.h</text>
</a>
</g>
</g>
<!-- Node18&#45;&gt;Node20 -->
<g id="edge23" class="edge">
<title>Node18&#45;&gt;Node20</title>
<path fill="none" stroke="midnightblue" d="M1288.73,-170.08C1252.58,-162.27 1200.41,-148.48 1188.5,-132 1178.9,-118.72 1180.51,-99.59 1183.71,-85.53"/>
<polygon fill="midnightblue" stroke="midnightblue" points="1187.18,-86.11 1186.42,-75.54 1180.42,-84.27 1187.18,-86.11"/>
</g>
<!-- Node18&#45;&gt;Node21 -->
<g id="edge24" class="edge">
<title>Node18&#45;&gt;Node21</title>
<path fill="none" stroke="midnightblue" d="M1360.22,-169.83C1406.94,-160.45 1489.11,-143.96 1542.41,-133.26"/>
<polygon fill="midnightblue" stroke="midnightblue" points="1543.22,-136.66 1552.34,-131.26 1541.84,-129.8 1543.22,-136.66"/>
</g>
<!-- Node22 -->
<g id="node22" class="node">
<title>Node22</title>
<g id="a_node22"><a xlink:title=" ">
<polygon fill="white" stroke="#bfbfbf" points="1052.5,-56.5 1052.5,-75.5 1102.5,-75.5 1102.5,-56.5 1052.5,-56.5"/>
<text text-anchor="middle" x="1077.5" y="-63.5" font-family="Helvetica,sans-Serif" font-size="10.00">cstdint</text>
</a>
</g>
</g>
<!-- Node18&#45;&gt;Node22 -->
<g id="edge25" class="edge">
<title>Node18&#45;&gt;Node22</title>
<path fill="none" stroke="midnightblue" d="M1288.75,-170.4C1283.96,-169.56 1279.12,-168.74 1274.5,-168 1218.43,-158.97 1058.72,-174.89 1021.5,-132 1006.21,-114.38 1030.59,-93.99 1051.82,-80.81"/>
<polygon fill="midnightblue" stroke="midnightblue" points="1053.77,-83.73 1060.61,-75.64 1050.21,-77.7 1053.77,-83.73"/>
</g>
<!-- Node23 -->
<g id="node23" class="node">
<title>Node23</title>
<g id="a_node23"><a xlink:title=" ">
<polygon fill="white" stroke="#bfbfbf" points="1045,-0.5 1045,-19.5 1110,-19.5 1110,-0.5 1045,-0.5"/>
<text text-anchor="middle" x="1077.5" y="-7.5" font-family="Helvetica,sans-Serif" font-size="10.00">functional</text>
</a>
</g>
</g>
<!-- Node18&#45;&gt;Node23 -->
<g id="edge26" class="edge">
<title>Node18&#45;&gt;Node23</title>
<path fill="none" stroke="midnightblue" d="M1288.92,-168.62C1251.59,-159.39 1195.81,-144.22 1177.5,-132 1166.57,-124.7 1115.3,-59.67 1090.72,-28.07"/>
<polygon fill="midnightblue" stroke="midnightblue" points="1093.18,-25.54 1084.28,-19.78 1087.65,-29.83 1093.18,-25.54"/>
</g>
<!-- Node24 -->
<g id="node24" class="node">
<title>Node24</title>
<g id="a_node24"><a xlink:href="FontAttribs_8h_source.html" target="_top" xlink:title=" ">
<polygon fill="white" stroke="black" points="895,-112.5 895,-131.5 974,-131.5 974,-112.5 895,-112.5"/>
<text text-anchor="middle" x="934.5" y="-119.5" font-family="Helvetica,sans-Serif" font-size="10.00">FontAttribs.h</text>
</a>
</g>
</g>
<!-- Node18&#45;&gt;Node24 -->
<g id="edge27" class="edge">
<title>Node18&#45;&gt;Node24</title>
<path fill="none" stroke="midnightblue" d="M1288.76,-170.33C1283.97,-169.51 1279.12,-168.71 1274.5,-168 1147.86,-148.65 1115.27,-150.53 988.5,-132 987.2,-131.81 985.89,-131.62 984.57,-131.42"/>
<polygon fill="midnightblue" stroke="midnightblue" points="984.7,-127.89 974.28,-129.82 983.63,-134.81 984.7,-127.89"/>
</g>
<!-- Node33 -->
<g id="node33" class="node">
<title>Node33</title>
<g id="a_node33"><a xlink:href="FontVariantCache_8h.html" target="_top" xlink:title="This file implements the wxFont cache system.">
<polygon fill="white" stroke="black" points="1197,-112.5 1197,-131.5 1308,-131.5 1308,-112.5 1197,-112.5"/>
<text text-anchor="middle" x="1252.5" y="-119.5" font-family="Helvetica,sans-Serif" font-size="10.00">FontVariantCache.h</text>
</a>
</g>
</g>
<!-- Node18&#45;&gt;Node33 -->
<g id="edge40" class="edge">
<title>Node18&#45;&gt;Node33</title>
<path fill="none" stroke="midnightblue" d="M1312.93,-168.32C1302.08,-160.18 1285.62,-147.84 1272.62,-138.09"/>
<polygon fill="midnightblue" stroke="midnightblue" points="1274.38,-135.03 1264.28,-131.83 1270.18,-140.63 1274.38,-135.03"/>
</g>
<!-- Node24&#45;&gt;Node20 -->
<g id="edge34" class="edge">
<title>Node24&#45;&gt;Node20</title>
<path fill="none" stroke="midnightblue" d="M974.06,-112.62C1021.37,-102.6 1100.18,-85.92 1148.23,-75.74"/>
<polygon fill="midnightblue" stroke="midnightblue" points="1149.23,-79.11 1158.29,-73.61 1147.78,-72.26 1149.23,-79.11"/>
</g>
<!-- Node24&#45;&gt;Node22 -->
<g id="edge37" class="edge">
<title>Node24&#45;&gt;Node22</title>
<path fill="none" stroke="midnightblue" d="M957.16,-112.44C980.9,-103.48 1018.41,-89.31 1045.24,-79.18"/>
<polygon fill="midnightblue" stroke="midnightblue" points="1046.83,-82.32 1054.95,-75.52 1044.36,-75.77 1046.83,-82.32"/>
</g>
<!-- Node24&#45;&gt;Node23 -->
<g id="edge38" class="edge">
<title>Node24&#45;&gt;Node23</title>
<path fill="none" stroke="midnightblue" d="M949.68,-112.4C964.4,-103.82 987.14,-89.95 1005.5,-76 1025.9,-60.5 1047.48,-40.47 1061.64,-26.76"/>
<polygon fill="midnightblue" stroke="midnightblue" points="1064.35,-29 1069.05,-19.51 1059.45,-24 1064.35,-29"/>
</g>
<!-- Node25 -->
<g id="node25" class="node">
<title>Node25</title>
<g id="a_node25"><a xlink:href="EnumWrapper_8h_source.html" target="_top" xlink:title=" ">
<polygon fill="white" stroke="black" points="660.5,-56.5 660.5,-75.5 754.5,-75.5 754.5,-56.5 660.5,-56.5"/>
<text text-anchor="middle" x="707.5" y="-63.5" font-family="Helvetica,sans-Serif" font-size="10.00">EnumWrapper.h</text>
</a>
</g>
</g>
<!-- Node24&#45;&gt;Node25 -->
<g id="edge28" class="edge">
<title>Node24&#45;&gt;Node25</title>
<path fill="none" stroke="midnightblue" d="M898.53,-112.44C859.18,-103.08 796.01,-88.06 753.19,-77.87"/>
<polygon fill="midnightblue" stroke="midnightblue" points="753.84,-74.43 743.3,-75.52 752.22,-81.24 753.84,-74.43"/>
</g>
<!-- Node28 -->
<g id="node28" class="node">
<title>Node28</title>
<g id="a_node28"><a xlink:href="clamp_8hpp_source.html" target="_top" xlink:title=" ">
<polygon fill="white" stroke="black" points="556.5,-56.5 556.5,-75.5 642.5,-75.5 642.5,-56.5 556.5,-56.5"/>
<text text-anchor="middle" x="599.5" y="-63.5" font-family="Helvetica,sans-Serif" font-size="10.00">stx/clamp.hpp</text>
</a>
</g>
</g>
<!-- Node24&#45;&gt;Node28 -->
<g id="edge32" class="edge">
<title>Node24&#45;&gt;Node28</title>
<path fill="none" stroke="midnightblue" d="M894.99,-114.37C890.11,-113.57 885.19,-112.76 880.5,-112 781.98,-96.05 754.83,-92.97 652.74,-76.18"/>
<polygon fill="midnightblue" stroke="midnightblue" points="653.06,-72.69 642.62,-74.52 651.92,-79.6 653.06,-72.69"/>
</g>
<!-- Node30 -->
<g id="node30" class="node">
<title>Node30</title>
<g id="a_node30"><a xlink:title=" ">
<polygon fill="white" stroke="#bfbfbf" points="773,-56.5 773,-75.5 852,-75.5 852,-56.5 773,-56.5"/>
<text text-anchor="middle" x="812.5" y="-63.5" font-family="Helvetica,sans-Serif" font-size="10.00">wx/version.h</text>
</a>
</g>
</g>
<!-- Node24&#45;&gt;Node30 -->
<g id="edge35" class="edge">
<title>Node24&#45;&gt;Node30</title>
<path fill="none" stroke="midnightblue" d="M915.17,-112.44C895.18,-103.6 863.76,-89.69 840.94,-79.59"/>
<polygon fill="midnightblue" stroke="midnightblue" points="842.3,-76.36 831.74,-75.52 839.47,-82.76 842.3,-76.36"/>
</g>
<!-- Node31 -->
<g id="node31" class="node">
<title>Node31</title>
<g id="a_node31"><a xlink:title=" ">
<polygon fill="white" stroke="#bfbfbf" points="870.5,-56.5 870.5,-75.5 934.5,-75.5 934.5,-56.5 870.5,-56.5"/>
<text text-anchor="middle" x="902.5" y="-63.5" font-family="Helvetica,sans-Serif" font-size="10.00">algorithm</text>
</a>
</g>
</g>
<!-- Node24&#45;&gt;Node31 -->
<g id="edge36" class="edge">
<title>Node24&#45;&gt;Node31</title>
<path fill="none" stroke="midnightblue" d="M929.22,-112.08C924.79,-104.61 918.34,-93.72 912.88,-84.52"/>
<polygon fill="midnightblue" stroke="midnightblue" points="915.79,-82.57 907.69,-75.75 909.77,-86.14 915.79,-82.57"/>
</g>
<!-- Node32 -->
<g id="node32" class="node">
<title>Node32</title>
<g id="a_node32"><a xlink:title=" ">
<polygon fill="white" stroke="#bfbfbf" points="952.5,-56.5 952.5,-75.5 996.5,-75.5 996.5,-56.5 952.5,-56.5"/>
<text text-anchor="middle" x="974.5" y="-63.5" font-family="Helvetica,sans-Serif" font-size="10.00">limits</text>
</a>
</g>
</g>
<!-- Node24&#45;&gt;Node32 -->
<g id="edge39" class="edge">
<title>Node24&#45;&gt;Node32</title>
<path fill="none" stroke="midnightblue" d="M941.11,-112.08C946.76,-104.46 955.04,-93.26 961.95,-83.94"/>
<polygon fill="midnightblue" stroke="midnightblue" points="964.88,-85.87 968.02,-75.75 959.25,-81.7 964.88,-85.87"/>
</g>
<!-- Node25&#45;&gt;Node23 -->
<g id="edge30" class="edge">
<title>Node25&#45;&gt;Node23</title>
<path fill="none" stroke="midnightblue" d="M754.77,-57.48C758.06,-56.98 761.33,-56.48 764.5,-56 860.97,-41.45 974.35,-25.41 1034.66,-16.97"/>
<polygon fill="midnightblue" stroke="midnightblue" points="1035.16,-20.43 1044.58,-15.58 1034.19,-13.5 1035.16,-20.43"/>
</g>
<!-- Node26 -->
<g id="node26" class="node">
<title>Node26</title>
<g id="a_node26"><a xlink:title=" ">
<polygon fill="white" stroke="#bfbfbf" points="663,-0.5 663,-19.5 716,-19.5 716,-0.5 663,-0.5"/>
<text text-anchor="middle" x="689.5" y="-7.5" font-family="Helvetica,sans-Serif" font-size="10.00">cstddef</text>
</a>
</g>
</g>
<!-- Node25&#45;&gt;Node26 -->
<g id="edge29" class="edge">
<title>Node25&#45;&gt;Node26</title>
<path fill="none" stroke="midnightblue" d="M704.53,-56.08C702.12,-48.85 698.64,-38.41 695.63,-29.4"/>
<polygon fill="midnightblue" stroke="midnightblue" points="698.9,-28.13 692.42,-19.75 692.26,-30.34 698.9,-28.13"/>
</g>
<!-- Node27 -->
<g id="node27" class="node">
<title>Node27</title>
<g id="a_node27"><a xlink:title=" ">
<polygon fill="white" stroke="#bfbfbf" points="734,-0.5 734,-19.5 803,-19.5 803,-0.5 734,-0.5"/>
<text text-anchor="middle" x="768.5" y="-7.5" font-family="Helvetica,sans-Serif" font-size="10.00">type_traits</text>
</a>
</g>
</g>
<!-- Node25&#45;&gt;Node27 -->
<g id="edge31" class="edge">
<title>Node25&#45;&gt;Node27</title>
<path fill="none" stroke="midnightblue" d="M717.3,-56.32C726.32,-48.34 739.91,-36.31 750.82,-26.65"/>
<polygon fill="midnightblue" stroke="midnightblue" points="753.35,-29.08 758.52,-19.83 748.71,-23.84 753.35,-29.08"/>
</g>
<!-- Node29 -->
<g id="node29" class="node">
<title>Node29</title>
<g id="a_node29"><a xlink:title=" ">
<polygon fill="white" stroke="#bfbfbf" points="573.5,-0.5 573.5,-19.5 625.5,-19.5 625.5,-0.5 573.5,-0.5"/>
<text text-anchor="middle" x="599.5" y="-7.5" font-family="Helvetica,sans-Serif" font-size="10.00">cassert</text>
</a>
</g>
</g>
<!-- Node28&#45;&gt;Node29 -->
<g id="edge33" class="edge">
<title>Node28&#45;&gt;Node29</title>
<path fill="none" stroke="midnightblue" d="M599.5,-56.08C599.5,-49.01 599.5,-38.86 599.5,-29.99"/>
<polygon fill="midnightblue" stroke="midnightblue" points="603,-29.75 599.5,-19.75 596,-29.75 603,-29.75"/>
</g>
<!-- Node33&#45;&gt;Node4 -->
<g id="edge41" class="edge">
<title>Node33&#45;&gt;Node4</title>
<path fill="none" stroke="midnightblue" d="M1196.98,-117.46C1030.76,-106.85 548.51,-76.07 547.5,-76 521.78,-74.23 493.01,-72.11 469.88,-70.38"/>
<polygon fill="midnightblue" stroke="midnightblue" points="469.91,-66.87 459.68,-69.61 469.38,-73.85 469.91,-66.87"/>
</g>
<!-- Node33&#45;&gt;Node20 -->
<g id="edge43" class="edge">
<title>Node33&#45;&gt;Node20</title>
<path fill="none" stroke="midnightblue" d="M1242.38,-112.32C1232.97,-104.26 1218.76,-92.08 1207.43,-82.37"/>
<polygon fill="midnightblue" stroke="midnightblue" points="1209.68,-79.68 1199.81,-75.83 1205.12,-85 1209.68,-79.68"/>
</g>
<!-- Node33&#45;&gt;Node23 -->
<g id="edge44" class="edge">
<title>Node33&#45;&gt;Node23</title>
<path fill="none" stroke="midnightblue" d="M1251.86,-112.07C1250.37,-98.11 1245.48,-71.16 1229.5,-56 1200.01,-28.01 1153.94,-17.34 1120.25,-13.32"/>
<polygon fill="midnightblue" stroke="midnightblue" points="1120.53,-9.83 1110.22,-12.28 1119.81,-16.79 1120.53,-9.83"/>
</g>
<!-- Node33&#45;&gt;Node34 -->
<g id="edge42" class="edge">
<title>Node33&#45;&gt;Node34</title>
<path fill="none" stroke="midnightblue" d="M1271.04,-112.44C1290.12,-103.64 1320.07,-89.81 1341.94,-79.72"/>
<polygon fill="midnightblue" stroke="midnightblue" points="1343.43,-82.88 1351.05,-75.52 1340.5,-76.53 1343.43,-82.88"/>
</g>
<!-- Node33&#45;&gt;Node35 -->
<g id="edge45" class="edge">
<title>Node33&#45;&gt;Node35</title>
<path fill="none" stroke="midnightblue" d="M1284.15,-112.44C1313.63,-104.33 1359.01,-91.5 1406.82,-76.08"/>
<polygon fill="midnightblue" stroke="midnightblue" points="1407.98,-79.38 1416.41,-72.96 1405.82,-72.72 1407.98,-79.38"/>
</g>
<!-- Node36 -->
<g id="node36" class="node">
<title>Node36</title>
<g id="a_node36"><a xlink:title=" ">
<polygon fill="white" stroke="#bfbfbf" points="1277,-56.5 1277,-75.5 1322,-75.5 1322,-56.5 1277,-56.5"/>
<text text-anchor="middle" x="1299.5" y="-63.5" font-family="Helvetica,sans-Serif" font-size="10.00">utility</text>
</a>
</g>
</g>
<!-- Node33&#45;&gt;Node36 -->
<g id="edge46" class="edge">
<title>Node33&#45;&gt;Node36</title>
<path fill="none" stroke="midnightblue" d="M1260.26,-112.08C1267.04,-104.3 1277.04,-92.8 1285.26,-83.37"/>
<polygon fill="midnightblue" stroke="midnightblue" points="1287.96,-85.59 1291.88,-75.75 1282.68,-81 1287.96,-85.59"/>
</g>
<!-- Node33&#45;&gt;Node37 -->
<g id="edge47" class="edge">
<title>Node33&#45;&gt;Node37</title>
<path fill="none" stroke="midnightblue" d="M1293.86,-112.44C1339.58,-102.98 1413.26,-87.74 1462.52,-77.55"/>
<polygon fill="midnightblue" stroke="midnightblue" points="1463.25,-80.97 1472.34,-75.52 1461.84,-74.12 1463.25,-80.97"/>
</g>
<!-- Node43&#45;&gt;Node4 -->
<g id="edge57" class="edge">
<title>Node43&#45;&gt;Node4</title>
<path fill="none" stroke="midnightblue" d="M1138.97,-399.88C954.84,-395.14 330.5,-373.03 330.5,-291 330.5,-291 330.5,-291 330.5,-177 330.5,-133.74 373.11,-99.09 401.25,-80.91"/>
<polygon fill="midnightblue" stroke="midnightblue" points="403.16,-83.85 409.81,-75.6 399.47,-77.9 403.16,-83.85"/>
</g>
<!-- Node43&#45;&gt;Node10 -->
<g id="edge68" class="edge">
<title>Node43&#45;&gt;Node10</title>
<path fill="none" stroke="midnightblue" d="M1204.14,-392.39C1244.17,-368.82 1358.78,-301.2 1453.5,-244 1482.31,-226.6 1515.35,-206.28 1536.78,-193.06"/>
<polygon fill="midnightblue" stroke="midnightblue" points="1538.81,-195.92 1545.48,-187.68 1535.13,-189.96 1538.81,-195.92"/>
</g>
<!-- Node44 -->
<g id="node44" class="node">
<title>Node44</title>
<g id="a_node44"><a xlink:href="RegexCtrl_8h_source.html" target="_top" xlink:title=" ">
<polygon fill="white" stroke="black" points="1152.5,-336.5 1152.5,-355.5 1226.5,-355.5 1226.5,-336.5 1152.5,-336.5"/>
<text text-anchor="middle" x="1189.5" y="-343.5" font-family="Helvetica,sans-Serif" font-size="10.00">RegexCtrl.h</text>
</a>
</g>
</g>
<!-- Node43&#45;&gt;Node44 -->
<g id="edge58" class="edge">
<title>Node43&#45;&gt;Node44</title>
<path fill="none" stroke="midnightblue" d="M1189.5,-392.08C1189.5,-385.01 1189.5,-374.86 1189.5,-365.99"/>
<polygon fill="midnightblue" stroke="midnightblue" points="1193,-365.75 1189.5,-355.75 1186,-365.75 1193,-365.75"/>
</g>
<!-- Node48 -->
<g id="node48" class="node">
<title>Node48</title>
<g id="a_node48"><a xlink:title=" ">
<polygon fill="white" stroke="#bfbfbf" points="1072.5,-336.5 1072.5,-355.5 1134.5,-355.5 1134.5,-336.5 1072.5,-336.5"/>
<text text-anchor="middle" x="1103.5" y="-343.5" font-family="Helvetica,sans-Serif" font-size="10.00">wx/grid.h</text>
</a>
</g>
</g>
<!-- Node43&#45;&gt;Node48 -->
<g id="edge69" class="edge">
<title>Node43&#45;&gt;Node48</title>
<path fill="none" stroke="midnightblue" d="M1175.68,-392.32C1162.27,-383.9 1141.68,-370.97 1125.91,-361.07"/>
<polygon fill="midnightblue" stroke="midnightblue" points="1127.61,-358.01 1117.28,-355.65 1123.89,-363.94 1127.61,-358.01"/>
</g>
<!-- Node44&#45;&gt;Node4 -->
<g id="edge59" class="edge">
<title>Node44&#45;&gt;Node4</title>
<path fill="none" stroke="midnightblue" d="M1152.38,-337.53C1149.38,-336.99 1146.39,-336.47 1143.5,-336 1057.79,-322.04 368.5,-321.84 368.5,-235 368.5,-235 368.5,-235 368.5,-177 368.5,-140.3 393.82,-103.66 410.71,-83.3"/>
<polygon fill="midnightblue" stroke="midnightblue" points="413.45,-85.48 417.33,-75.62 408.15,-80.9 413.45,-85.48"/>
</g>
<!-- Node44&#45;&gt;Node9 -->
<g id="edge63" class="edge">
<title>Node44&#45;&gt;Node9</title>
<path fill="none" stroke="midnightblue" d="M1202.28,-336.37C1212.89,-328.36 1227.23,-315.38 1233.5,-300 1241.14,-281.26 1225.11,-262.39 1210.3,-249.85"/>
<polygon fill="midnightblue" stroke="midnightblue" points="1212.37,-247.02 1202.36,-243.57 1208.03,-252.52 1212.37,-247.02"/>
</g>
<!-- Node44&#45;&gt;Node10 -->
<g id="edge60" class="edge">
<title>Node44&#45;&gt;Node10</title>
<path fill="none" stroke="midnightblue" d="M1208.61,-336.42C1269.39,-309.16 1458.42,-224.35 1530.86,-191.85"/>
<polygon fill="midnightblue" stroke="midnightblue" points="1532.59,-194.91 1540.28,-187.62 1529.72,-188.52 1532.59,-194.91"/>
</g>
<!-- Node45 -->
<g id="node45" class="node">
<title>Node45</title>
<g id="a_node45"><a xlink:title=" ">
<polygon fill="white" stroke="#bfbfbf" points="969,-280.5 969,-299.5 1040,-299.5 1040,-280.5 969,-280.5"/>
<text text-anchor="middle" x="1004.5" y="-287.5" font-family="Helvetica,sans-Serif" font-size="10.00">wx/regex.h</text>
</a>
</g>
</g>
<!-- Node44&#45;&gt;Node45 -->
<g id="edge61" class="edge">
<title>Node44&#45;&gt;Node45</title>
<path fill="none" stroke="midnightblue" d="M1160.19,-336.44C1128.66,-327.24 1078.37,-312.56 1043.51,-302.39"/>
<polygon fill="midnightblue" stroke="midnightblue" points="1044.26,-298.96 1033.68,-299.52 1042.3,-305.68 1044.26,-298.96"/>
</g>
<!-- Node46 -->
<g id="node46" class="node">
<title>Node46</title>
<g id="a_node46"><a xlink:title=" ">
<polygon fill="white" stroke="#bfbfbf" points="1058.5,-280.5 1058.5,-299.5 1136.5,-299.5 1136.5,-280.5 1058.5,-280.5"/>
<text text-anchor="middle" x="1097.5" y="-287.5" font-family="Helvetica,sans-Serif" font-size="10.00">wx/textctrl.h</text>
</a>
</g>
</g>
<!-- Node44&#45;&gt;Node46 -->
<g id="edge62" class="edge">
<title>Node44&#45;&gt;Node46</title>
<path fill="none" stroke="midnightblue" d="M1174.72,-336.32C1160.23,-327.82 1137.93,-314.73 1121.01,-304.8"/>
<polygon fill="midnightblue" stroke="midnightblue" points="1122.64,-301.7 1112.24,-299.65 1119.1,-307.74 1122.64,-301.7"/>
</g>
<!-- Node47 -->
<g id="node47" class="node">
<title>Node47</title>
<g id="a_node47"><a xlink:href="BTextCtrl_8h_source.html" target="_top" xlink:title=" ">
<polygon fill="white" stroke="black" points="1154.5,-280.5 1154.5,-299.5 1224.5,-299.5 1224.5,-280.5 1154.5,-280.5"/>
<text text-anchor="middle" x="1189.5" y="-287.5" font-family="Helvetica,sans-Serif" font-size="10.00">BTextCtrl.h</text>
</a>
</g>
</g>
<!-- Node44&#45;&gt;Node47 -->
<g id="edge64" class="edge">
<title>Node44&#45;&gt;Node47</title>
<path fill="none" stroke="midnightblue" d="M1189.5,-336.08C1189.5,-329.01 1189.5,-318.86 1189.5,-309.99"/>
<polygon fill="midnightblue" stroke="midnightblue" points="1193,-309.75 1189.5,-299.75 1186,-309.75 1193,-309.75"/>
</g>
<!-- Node47&#45;&gt;Node4 -->
<g id="edge65" class="edge">
<title>Node47&#45;&gt;Node4</title>
<path fill="none" stroke="midnightblue" d="M1154.48,-281.59C1151.45,-281.02 1148.42,-280.49 1145.5,-280 986.59,-253.62 533.43,-308.47 426.5,-188 401.49,-159.82 411.03,-111.72 418.99,-85.46"/>
<polygon fill="midnightblue" stroke="midnightblue" points="422.41,-86.25 422.2,-75.66 415.76,-84.07 422.41,-86.25"/>
</g>
<!-- Node47&#45;&gt;Node9 -->
<g id="edge67" class="edge">
<title>Node47&#45;&gt;Node9</title>
<path fill="none" stroke="midnightblue" d="M1189.5,-280.08C1189.5,-273.01 1189.5,-262.86 1189.5,-253.99"/>
<polygon fill="midnightblue" stroke="midnightblue" points="1193,-253.75 1189.5,-243.75 1186,-253.75 1193,-253.75"/>
</g>
<!-- Node47&#45;&gt;Node10 -->
<g id="edge66" class="edge">
<title>Node47&#45;&gt;Node10</title>
<path fill="none" stroke="midnightblue" d="M1218.23,-280.46C1284.15,-260.86 1446.32,-212.65 1520.87,-190.48"/>
<polygon fill="midnightblue" stroke="midnightblue" points="1522.2,-193.74 1530.79,-187.53 1520.21,-187.03 1522.2,-193.74"/>
</g>
</g>
</svg>
