<?xml version="1.0" encoding="UTF-8" standalone="no"?>
<!DOCTYPE svg PUBLIC "-//W3C//DTD SVG 1.1//EN"
 "http://www.w3.org/Graphics/SVG/1.1/DTD/svg11.dtd">
<!-- Generated by graphviz version 2.43.0 (0)
 -->
<!-- Title: GenWizPanel Pages: 1 -->
<svg width="328pt" height="170pt"
 viewBox="0.00 0.00 328.00 170.00" xmlns="http://www.w3.org/2000/svg" xmlns:xlink="http://www.w3.org/1999/xlink">
<g id="graph0" class="graph" transform="scale(1 1) rotate(0) translate(4 166)">
<title>GenWizPanel</title>
<!-- Node1 -->
<g id="node1" class="node">
<title>Node1</title>
<g id="a_node1"><a xlink:title="A dockable, embeddable generic wizard.">
<polygon fill="#999999" stroke="#666666" points="173,-19 93,-19 93,0 173,0 173,-19"/>
<text text-anchor="middle" x="133" y="-7" font-family="Helvetica,sans-Serif" font-size="10.00">GenWizPanel</text>
</a>
</g>
</g>
<!-- Node2 -->
<g id="node2" class="node">
<title>Node2</title>
<g id="a_node2"><a xlink:title=" ">
<polygon fill="white" stroke="#bfbfbf" points="73.5,-85 16.5,-85 16.5,-66 73.5,-66 73.5,-85"/>
<text text-anchor="middle" x="45" y="-73" font-family="Helvetica,sans-Serif" font-size="10.00">wxPanel</text>
</a>
</g>
</g>
<!-- Node2&#45;&gt;Node1 -->
<g id="edge1" class="edge">
<title>Node2&#45;&gt;Node1</title>
<path fill="none" stroke="#63b8ff" d="M65.17,-59.83C82.43,-47.28 106.69,-29.63 121.04,-19.2"/>
<polygon fill="#63b8ff" stroke="#63b8ff" points="62.9,-57.16 56.87,-65.87 67.01,-62.82 62.9,-57.16"/>
</g>
<!-- Node3 -->
<g id="node3" class="node">
<title>Node3</title>
<g id="a_node3"><a xlink:href="classConfiguration.html" target="_top" xlink:title="The configuration storage for the current worksheet.">
<polygon fill="white" stroke="#666666" points="174,-85 92,-85 92,-66 174,-66 174,-85"/>
<text text-anchor="middle" x="133" y="-73" font-family="Helvetica,sans-Serif" font-size="10.00">Configuration</text>
</a>
</g>
</g>
<!-- Node3&#45;&gt;Node1 -->
<g id="edge2" class="edge">
<title>Node3&#45;&gt;Node1</title>
<path fill="none" stroke="#9a32cd" stroke-dasharray="5,2" d="M133,-55.58C133,-43.63 133,-28.72 133,-19.41"/>
<polygon fill="#9a32cd" stroke="#9a32cd" points="129.5,-55.87 133,-65.87 136.5,-55.87 129.5,-55.87"/>
<text text-anchor="middle" x="174" y="-40" font-family="Helvetica,sans-Serif" font-size="10.00"> m_configuration</text>
</g>
<!-- Node4 -->
<g id="node4" class="node">
<title>Node4</title>
<g id="a_node4"><a xlink:href="structConfiguration_1_1PerformanceStats.html" target="_top" xlink:title=" ">
<polygon fill="white" stroke="#bfbfbf" points="150,-162 0,-162 0,-132 150,-132 150,-162"/>
<text text-anchor="start" x="8" y="-150" font-family="Helvetica,sans-Serif" font-size="10.00">Configuration::Performance</text>
<text text-anchor="middle" x="75" y="-139" font-family="Helvetica,sans-Serif" font-size="10.00">Stats</text>
</a>
</g>
</g>
<!-- Node4&#45;&gt;Node3 -->
<g id="edge3" class="edge">
<title>Node4&#45;&gt;Node3</title>
<path fill="none" stroke="#9a32cd" stroke-dasharray="5,2" d="M93.19,-124.2C104.18,-111.04 117.57,-94.99 125.68,-85.27"/>
<polygon fill="#9a32cd" stroke="#9a32cd" points="90.46,-122.02 86.74,-131.94 95.83,-126.5 90.46,-122.02"/>
<text text-anchor="middle" x="128.5" y="-106" font-family="Helvetica,sans-Serif" font-size="10.00"> g_stats</text>
</g>
<!-- Node5 -->
<g id="node5" class="node">
<title>Node5</title>
<g id="a_node5"><a xlink:href="classStyles.html" target="_top" xlink:title="Storage for the worksheet&#39;s per&#45;TextStyle text styles.">
<polygon fill="white" stroke="#666666" points="214.5,-156.5 167.5,-156.5 167.5,-137.5 214.5,-137.5 214.5,-156.5"/>
<text text-anchor="middle" x="191" y="-144.5" font-family="Helvetica,sans-Serif" font-size="10.00">Styles</text>
</a>
</g>
</g>
<!-- Node5&#45;&gt;Node3 -->
<g id="edge4" class="edge">
<title>Node5&#45;&gt;Node3</title>
<path fill="none" stroke="#9a32cd" stroke-dasharray="5,2" d="M177.34,-129.63C165.7,-115.68 149.42,-96.17 140.17,-85.09"/>
<polygon fill="#9a32cd" stroke="#9a32cd" points="174.79,-132.04 183.89,-137.48 180.17,-127.56 174.79,-132.04"/>
<text text-anchor="middle" x="197" y="-106" font-family="Helvetica,sans-Serif" font-size="10.00"> m_styleStore</text>
</g>
<!-- Node6 -->
<g id="node6" class="node">
<title>Node6</title>
<g id="a_node6"><a xlink:href="classMaximaManual.html" target="_top" xlink:title=" ">
<polygon fill="white" stroke="#bfbfbf" points="284,-85 192,-85 192,-66 284,-66 284,-85"/>
<text text-anchor="middle" x="238" y="-73" font-family="Helvetica,sans-Serif" font-size="10.00">MaximaManual</text>
</a>
</g>
</g>
<!-- Node6&#45;&gt;Node1 -->
<g id="edge5" class="edge">
<title>Node6&#45;&gt;Node1</title>
<path fill="none" stroke="#9a32cd" stroke-dasharray="5,2" d="M230.78,-56.4C227.23,-49.49 222.34,-42.07 216,-37 203.71,-27.17 187.71,-20.96 173.04,-17.04"/>
<polygon fill="#9a32cd" stroke="#9a32cd" points="227.72,-58.14 235.02,-65.82 234.1,-55.26 227.72,-58.14"/>
<text text-anchor="middle" x="272.5" y="-40" font-family="Helvetica,sans-Serif" font-size="10.00"> m_maximaManual</text>
</g>
</g>
</svg>
