<?xml version="1.0" encoding="UTF-8" standalone="no"?>
<!DOCTYPE svg PUBLIC "-//W3C//DTD SVG 1.1//EN"
 "http://www.w3.org/Graphics/SVG/1.1/DTD/svg11.dtd">
<!-- Generated by graphviz version 2.43.0 (0)
 -->
<!-- Title: Cell Pages: 1 -->
<!--zoomable 959 -->
<svg id="main" version="1.1" xmlns="http://www.w3.org/2000/svg" xmlns:xlink="http://www.w3.org/1999/xlink" xml:space="preserve" onload="init(evt)">
<style type="text/css"><![CDATA[
.edge:hover path { stroke: red; }
.edge:hover polygon { stroke: red; fill: red; }
]]></style>
<script type="text/javascript"><![CDATA[
var edges = document.getElementsByTagName('g');
if (edges && edges.length) {
  for (var i=0;i<edges.length;i++) {
    if (edges[i].id.substr(0,4)=='edge') {
      edges[i].setAttribute('class','edge');
    }
  }
}
]]></script>
        <defs>
                <circle id="rim" cx="0" cy="0" r="7"/>
                <circle id="rim2" cx="0" cy="0" r="3.5"/>
                <g id="zoomPlus">
                        <use xlink:href="#rim" fill="#404040">
                                <set attributeName="fill" to="#808080" begin="zoomplus.mouseover" end="zoomplus.mouseout"/>
                        </use>
                        <path d="M-4,0h8M0,-4v8" fill="none" stroke="white" stroke-width="1.5" pointer-events="none"/>
                </g>
                <g id="zoomMin">
                        <use xlink:href="#rim" fill="#404040">
                                <set attributeName="fill" to="#808080" begin="zoomminus.mouseover" end="zoomminus.mouseout"/>
                        </use>
                        <path d="M-4,0h8" fill="none" stroke="white" stroke-width="1.5" pointer-events="none"/>
                </g>
                <g id="dirArrow">
                        <path fill="none" stroke="white" stroke-width="1.5" d="M0,-3.0v7 M-2.5,-0.5L0,-3.0L2.5,-0.5"/>
                </g>
               <g id="resetDef">
                       <use xlink:href="#rim2" fill="#404040">
                               <set attributeName="fill" to="#808080" begin="reset.mouseover" end="reset.mouseout"/>
                       </use>
               </g>
        </defs>

<script type="text/javascript">
var viewWidth = 411;
var viewHeight = 959;
var sectionId = 'dynsection-0';
</script>
<script xlink:href="svgpan.js"/>
<svg id="graph" class="graph">
<g id="viewport">
<title>Cell</title>
<polygon fill="white" stroke="transparent" points="-4,4 -4,-955 407,-955 407,4 -4,4"/>
<!-- Node1 -->
<g id="node1" class="node">
<title>Node1</title>
<g id="a_node1"><a xlink:title="The base class all cell types the worksheet can consist of are derived from.">
<polygon fill="#bfbfbf" stroke="black" points="99,-494.5 99,-513.5 134,-513.5 134,-494.5 99,-494.5"/>
<text text-anchor="middle" x="116.5" y="-501.5" font-family="Helvetica,sans-Serif" font-size="10.00">Cell</text>
</a>
</g>
</g>
<!-- Node3 -->
<g id="node3" class="node">
<title>Node3</title>
<g id="a_node3"><a xlink:href="classAbsCell.html" target="_top" xlink:title="A cell that represents an abs(x) block.">
<polygon fill="white" stroke="black" points="188,-931.5 188,-950.5 241,-950.5 241,-931.5 188,-931.5"/>
<text text-anchor="middle" x="214.5" y="-938.5" font-family="Helvetica,sans-Serif" font-size="10.00">AbsCell</text>
</a>
</g>
</g>
<!-- Node1&#45;&gt;Node3 -->
<g id="edge2" class="edge">
<title>Node1&#45;&gt;Node3</title>
<path fill="none" stroke="midnightblue" d="M117.47,-523.86C117.73,-598.04 122.09,-857.92 170,-922 174.44,-927.94 181.14,-932.05 187.95,-934.89"/>
<polygon fill="midnightblue" stroke="midnightblue" points="120.97,-523.6 117.46,-513.61 113.97,-523.61 120.97,-523.6"/>
</g>
<!-- Node4 -->
<g id="node4" class="node">
<title>Node4</title>
<g id="a_node4"><a xlink:href="classAtCell.html" target="_top" xlink:title=" ">
<polygon fill="white" stroke="black" points="191.5,-893.5 191.5,-912.5 237.5,-912.5 237.5,-893.5 191.5,-893.5"/>
<text text-anchor="middle" x="214.5" y="-900.5" font-family="Helvetica,sans-Serif" font-size="10.00">AtCell</text>
</a>
</g>
</g>
<!-- Node1&#45;&gt;Node4 -->
<g id="edge3" class="edge">
<title>Node1&#45;&gt;Node4</title>
<path fill="none" stroke="midnightblue" d="M117.75,-523.83C118.99,-593.57 126.39,-826.41 170,-884 175.17,-890.83 183.32,-895.25 191.18,-898.09"/>
<polygon fill="midnightblue" stroke="midnightblue" points="121.25,-523.71 117.59,-513.76 114.25,-523.81 121.25,-523.71"/>
</g>
<!-- Node5 -->
<g id="node5" class="node">
<title>Node5</title>
<g id="a_node5"><a xlink:href="classBoxCell.html" target="_top" xlink:title="A cell that represents a box(x) block.">
<polygon fill="white" stroke="black" points="187.5,-855.5 187.5,-874.5 241.5,-874.5 241.5,-855.5 187.5,-855.5"/>
<text text-anchor="middle" x="214.5" y="-862.5" font-family="Helvetica,sans-Serif" font-size="10.00">BoxCell</text>
</a>
</g>
</g>
<!-- Node1&#45;&gt;Node5 -->
<g id="edge4" class="edge">
<title>Node1&#45;&gt;Node5</title>
<path fill="none" stroke="midnightblue" d="M118.09,-523.92C120.4,-589.12 130.7,-794.91 170,-846 174.32,-851.62 180.65,-855.61 187.15,-858.42"/>
<polygon fill="midnightblue" stroke="midnightblue" points="121.58,-523.64 117.76,-513.76 114.59,-523.87 121.58,-523.64"/>
</g>
<!-- Node6 -->
<g id="node6" class="node">
<title>Node6</title>
<g id="a_node6"><a xlink:href="classConjugateCell.html" target="_top" xlink:title="A cell that represents a conjugate(x) block.">
<polygon fill="white" stroke="black" points="172,-817.5 172,-836.5 257,-836.5 257,-817.5 172,-817.5"/>
<text text-anchor="middle" x="214.5" y="-824.5" font-family="Helvetica,sans-Serif" font-size="10.00">ConjugateCell</text>
</a>
</g>
</g>
<!-- Node1&#45;&gt;Node6 -->
<g id="edge5" class="edge">
<title>Node1&#45;&gt;Node6</title>
<path fill="none" stroke="midnightblue" d="M118.5,-523.63C121.91,-583.63 134.92,-763.26 170,-808 173.05,-811.89 177.06,-815 181.41,-817.48"/>
<polygon fill="midnightblue" stroke="midnightblue" points="121.99,-523.38 117.96,-513.58 115,-523.76 121.99,-523.38"/>
</g>
<!-- Node7 -->
<g id="node7" class="node">
<title>Node7</title>
<g id="a_node7"><a xlink:href="classDiffCell.html" target="_top" xlink:title=" ">
<polygon fill="white" stroke="black" points="188,-779.5 188,-798.5 241,-798.5 241,-779.5 188,-779.5"/>
<text text-anchor="middle" x="214.5" y="-786.5" font-family="Helvetica,sans-Serif" font-size="10.00">DiffCell</text>
</a>
</g>
</g>
<!-- Node1&#45;&gt;Node7 -->
<g id="edge6" class="edge">
<title>Node1&#45;&gt;Node7</title>
<path fill="none" stroke="midnightblue" d="M119.03,-523.63C123.68,-578.44 139.17,-731.63 170,-770 174.54,-775.65 181.1,-779.66 187.76,-782.5"/>
<polygon fill="midnightblue" stroke="midnightblue" points="122.51,-523.19 118.21,-513.5 115.53,-523.76 122.51,-523.19"/>
</g>
<!-- Node8 -->
<g id="node8" class="node">
<title>Node8</title>
<g id="a_node8"><a xlink:href="classEditorCell.html" target="_top" xlink:title="This class defines what the user sees as input cell.">
<polygon fill="white" stroke="black" points="182.5,-741.5 182.5,-760.5 246.5,-760.5 246.5,-741.5 182.5,-741.5"/>
<text text-anchor="middle" x="214.5" y="-748.5" font-family="Helvetica,sans-Serif" font-size="10.00">EditorCell</text>
</a>
</g>
</g>
<!-- Node1&#45;&gt;Node8 -->
<g id="edge7" class="edge">
<title>Node1&#45;&gt;Node8</title>
<path fill="none" stroke="midnightblue" d="M119.75,-523.71C125.74,-572.99 143.41,-699.96 170,-732 173.37,-736.06 177.77,-739.28 182.48,-741.82"/>
<polygon fill="midnightblue" stroke="midnightblue" points="123.22,-523.2 118.57,-513.68 116.27,-524.02 123.22,-523.2"/>
</g>
<!-- Node9 -->
<g id="node9" class="node">
<title>Node9</title>
<g id="a_node9"><a xlink:href="classExptCell.html" target="_top" xlink:title="This cell represents a exp() or e^x&#45;construct.">
<polygon fill="white" stroke="black" points="186,-703.5 186,-722.5 243,-722.5 243,-703.5 186,-703.5"/>
<text text-anchor="middle" x="214.5" y="-710.5" font-family="Helvetica,sans-Serif" font-size="10.00">ExptCell</text>
</a>
</g>
</g>
<!-- Node1&#45;&gt;Node9 -->
<g id="edge8" class="edge">
<title>Node1&#45;&gt;Node9</title>
<path fill="none" stroke="midnightblue" d="M117.61,-523.77C118.86,-561.42 126.73,-644.09 170,-694 174.21,-698.86 179.89,-702.52 185.76,-705.26"/>
<polygon fill="midnightblue" stroke="midnightblue" points="121.11,-523.55 117.4,-513.62 114.11,-523.69 121.11,-523.55"/>
</g>
<!-- Node10 -->
<g id="node10" class="node">
<title>Node10</title>
<g id="a_node10"><a xlink:href="classFracCell.html" target="_top" xlink:title=" ">
<polygon fill="white" stroke="black" points="186.5,-665.5 186.5,-684.5 242.5,-684.5 242.5,-665.5 186.5,-665.5"/>
<text text-anchor="middle" x="214.5" y="-672.5" font-family="Helvetica,sans-Serif" font-size="10.00">FracCell</text>
</a>
</g>
</g>
<!-- Node1&#45;&gt;Node10 -->
<g id="edge9" class="edge">
<title>Node1&#45;&gt;Node10</title>
<path fill="none" stroke="midnightblue" d="M119.27,-523.71C123.11,-555.41 134.91,-618.01 170,-656 174.47,-660.84 180.4,-664.51 186.43,-667.27"/>
<polygon fill="midnightblue" stroke="midnightblue" points="122.73,-523.1 118.19,-513.53 115.77,-523.84 122.73,-523.1"/>
</g>
<!-- Node11 -->
<g id="node11" class="node">
<title>Node11</title>
<g id="a_node11"><a xlink:href="classFullTestCell.html" target="_top" xlink:title=" ">
<polygon fill="white" stroke="black" points="178.5,-627.5 178.5,-646.5 250.5,-646.5 250.5,-627.5 178.5,-627.5"/>
<text text-anchor="middle" x="214.5" y="-634.5" font-family="Helvetica,sans-Serif" font-size="10.00">FullTestCell</text>
</a>
</g>
</g>
<!-- Node1&#45;&gt;Node11 -->
<g id="edge10" class="edge">
<title>Node1&#45;&gt;Node11</title>
<path fill="none" stroke="midnightblue" d="M121.85,-523.33C128.37,-548.22 142.89,-591.42 170,-618 173.88,-621.81 178.66,-624.92 183.6,-627.43"/>
<polygon fill="midnightblue" stroke="midnightblue" points="125.25,-522.48 119.47,-513.6 118.45,-524.14 125.25,-522.48"/>
</g>
<!-- Node14 -->
<g id="node14" class="node">
<title>Node14</title>
<g id="a_node14"><a xlink:href="classFunCell.html" target="_top" xlink:title="FunCell represents a maxima function no special visual representation exists for.">
<polygon fill="white" stroke="black" points="188,-589.5 188,-608.5 241,-608.5 241,-589.5 188,-589.5"/>
<text text-anchor="middle" x="214.5" y="-596.5" font-family="Helvetica,sans-Serif" font-size="10.00">FunCell</text>
</a>
</g>
</g>
<!-- Node1&#45;&gt;Node14 -->
<g id="edge13" class="edge">
<title>Node1&#45;&gt;Node14</title>
<path fill="none" stroke="midnightblue" d="M126.52,-522.62C135.52,-539.52 150.75,-564.15 170,-580 175.22,-584.3 181.55,-587.79 187.76,-590.55"/>
<polygon fill="midnightblue" stroke="midnightblue" points="129.63,-521 121.97,-513.69 123.39,-524.18 129.63,-521"/>
</g>
<!-- Node15 -->
<g id="node15" class="node">
<title>Node15</title>
<g id="a_node15"><a xlink:href="classGroupCell.html" target="_top" xlink:title="A cell grouping input (and, if there is one, also the output) cell to a foldable item.">
<polygon fill="white" stroke="black" points="182,-551.5 182,-570.5 247,-570.5 247,-551.5 182,-551.5"/>
<text text-anchor="middle" x="214.5" y="-558.5" font-family="Helvetica,sans-Serif" font-size="10.00">GroupCell</text>
</a>
</g>
</g>
<!-- Node1&#45;&gt;Node15 -->
<g id="edge14" class="edge">
<title>Node1&#45;&gt;Node15</title>
<path fill="none" stroke="midnightblue" d="M137.17,-519.78C146.75,-527.06 158.63,-535.5 170,-542 176.01,-545.43 182.76,-548.66 189.12,-551.45"/>
<polygon fill="midnightblue" stroke="midnightblue" points="139.15,-516.89 129.1,-513.52 134.85,-522.42 139.15,-516.89"/>
</g>
<!-- Node16 -->
<g id="node16" class="node">
<title>Node16</title>
<g id="a_node16"><a xlink:href="classImgCellBase.html" target="_top" xlink:title=" ">
<polygon fill="white" stroke="black" points="175.5,-513.5 175.5,-532.5 253.5,-532.5 253.5,-513.5 175.5,-513.5"/>
<text text-anchor="middle" x="214.5" y="-520.5" font-family="Helvetica,sans-Serif" font-size="10.00">ImgCellBase</text>
</a>
</g>
</g>
<!-- Node1&#45;&gt;Node16 -->
<g id="edge15" class="edge">
<title>Node1&#45;&gt;Node16</title>
<path fill="none" stroke="midnightblue" d="M144.08,-509.26C153.78,-511.18 164.96,-513.39 175.47,-515.47"/>
<polygon fill="midnightblue" stroke="midnightblue" points="144.71,-505.82 134.22,-507.31 143.35,-512.68 144.71,-505.82"/>
</g>
<!-- Node19 -->
<g id="node19" class="node">
<title>Node19</title>
<g id="a_node19"><a xlink:href="classIntCell.html" target="_top" xlink:title="This class represents an integral.">
<polygon fill="white" stroke="black" points="190.5,-475.5 190.5,-494.5 238.5,-494.5 238.5,-475.5 190.5,-475.5"/>
<text text-anchor="middle" x="214.5" y="-482.5" font-family="Helvetica,sans-Serif" font-size="10.00">IntCell</text>
</a>
</g>
</g>
<!-- Node1&#45;&gt;Node19 -->
<g id="edge18" class="edge">
<title>Node1&#45;&gt;Node19</title>
<path fill="none" stroke="midnightblue" d="M144.14,-498.73C158.7,-495.85 176.55,-492.31 190.5,-489.55"/>
<polygon fill="midnightblue" stroke="midnightblue" points="143.35,-495.32 134.22,-500.69 144.71,-502.18 143.35,-495.32"/>
</g>
<!-- Node20 -->
<g id="node20" class="node">
<title>Node20</title>
<g id="a_node20"><a xlink:href="classIntervalCell.html" target="_top" xlink:title="The class that represents parenthesis that are wrapped around text.">
<polygon fill="white" stroke="black" points="178,-437.5 178,-456.5 251,-456.5 251,-437.5 178,-437.5"/>
<text text-anchor="middle" x="214.5" y="-444.5" font-family="Helvetica,sans-Serif" font-size="10.00">IntervalCell</text>
</a>
</g>
</g>
<!-- Node1&#45;&gt;Node20 -->
<g id="edge19" class="edge">
<title>Node1&#45;&gt;Node20</title>
<path fill="none" stroke="midnightblue" d="M137.17,-488.22C146.75,-480.94 158.63,-472.5 170,-466 176.01,-462.57 182.76,-459.34 189.12,-456.55"/>
<polygon fill="midnightblue" stroke="midnightblue" points="134.85,-485.58 129.1,-494.48 139.15,-491.11 134.85,-485.58"/>
</g>
<!-- Node21 -->
<g id="node21" class="node">
<title>Node21</title>
<g id="a_node21"><a xlink:href="classLimitCell.html" target="_top" xlink:title=" ">
<polygon fill="white" stroke="black" points="184.5,-399.5 184.5,-418.5 244.5,-418.5 244.5,-399.5 184.5,-399.5"/>
<text text-anchor="middle" x="214.5" y="-406.5" font-family="Helvetica,sans-Serif" font-size="10.00">LimitCell</text>
</a>
</g>
</g>
<!-- Node1&#45;&gt;Node21 -->
<g id="edge20" class="edge">
<title>Node1&#45;&gt;Node21</title>
<path fill="none" stroke="midnightblue" d="M126.52,-485.38C135.52,-468.48 150.75,-443.85 170,-428 174.45,-424.33 179.72,-421.25 185.03,-418.71"/>
<polygon fill="midnightblue" stroke="midnightblue" points="123.39,-483.82 121.97,-494.31 129.63,-487 123.39,-483.82"/>
</g>
<!-- Node22 -->
<g id="node22" class="node">
<title>Node22</title>
<g id="a_node22"><a xlink:href="classListCell.html" target="_top" xlink:title="The class that represents parenthesis that are wrapped around text.">
<polygon fill="white" stroke="black" points="188,-361.5 188,-380.5 241,-380.5 241,-361.5 188,-361.5"/>
<text text-anchor="middle" x="214.5" y="-368.5" font-family="Helvetica,sans-Serif" font-size="10.00">ListCell</text>
</a>
</g>
</g>
<!-- Node1&#45;&gt;Node22 -->
<g id="edge21" class="edge">
<title>Node1&#45;&gt;Node22</title>
<path fill="none" stroke="midnightblue" d="M121.85,-484.67C128.37,-459.78 142.89,-416.58 170,-390 174.94,-385.15 181.33,-381.44 187.67,-378.64"/>
<polygon fill="midnightblue" stroke="midnightblue" points="118.45,-483.86 119.47,-494.4 125.25,-485.52 118.45,-483.86"/>
</g>
<!-- Node24 -->
<g id="node24" class="node">
<title>Node24</title>
<g id="a_node24"><a xlink:href="classMatrCell.html" target="_top" xlink:title=" ">
<polygon fill="white" stroke="black" points="185.5,-323.5 185.5,-342.5 243.5,-342.5 243.5,-323.5 185.5,-323.5"/>
<text text-anchor="middle" x="214.5" y="-330.5" font-family="Helvetica,sans-Serif" font-size="10.00">MatrCell</text>
</a>
</g>
</g>
<!-- Node1&#45;&gt;Node24 -->
<g id="edge23" class="edge">
<title>Node1&#45;&gt;Node24</title>
<path fill="none" stroke="midnightblue" d="M119.27,-484.29C123.11,-452.59 134.91,-389.99 170,-352 174.14,-347.52 179.52,-344.04 185.08,-341.36"/>
<polygon fill="midnightblue" stroke="midnightblue" points="115.77,-484.16 118.19,-494.47 122.73,-484.9 115.77,-484.16"/>
</g>
<!-- Node25 -->
<g id="node25" class="node">
<title>Node25</title>
<g id="a_node25"><a xlink:href="classNamedBoxCell.html" target="_top" xlink:title="A cell that represents a box(x) block.">
<polygon fill="white" stroke="black" points="170,-285.5 170,-304.5 259,-304.5 259,-285.5 170,-285.5"/>
<text text-anchor="middle" x="214.5" y="-292.5" font-family="Helvetica,sans-Serif" font-size="10.00">NamedBoxCell</text>
</a>
</g>
</g>
<!-- Node1&#45;&gt;Node25 -->
<g id="edge24" class="edge">
<title>Node1&#45;&gt;Node25</title>
<path fill="none" stroke="midnightblue" d="M117.61,-484.23C118.86,-446.58 126.73,-363.91 170,-314 173.35,-310.14 177.62,-307.03 182.19,-304.55"/>
<polygon fill="midnightblue" stroke="midnightblue" points="114.11,-484.31 117.4,-494.38 121.11,-484.45 114.11,-484.31"/>
</g>
<!-- Node26 -->
<g id="node26" class="node">
<title>Node26</title>
<g id="a_node26"><a xlink:href="classParenCell.html" target="_top" xlink:title="The class that represents parenthesis that are wrapped around text.">
<polygon fill="white" stroke="black" points="183.5,-247.5 183.5,-266.5 245.5,-266.5 245.5,-247.5 183.5,-247.5"/>
<text text-anchor="middle" x="214.5" y="-254.5" font-family="Helvetica,sans-Serif" font-size="10.00">ParenCell</text>
</a>
</g>
</g>
<!-- Node1&#45;&gt;Node26 -->
<g id="edge25" class="edge">
<title>Node1&#45;&gt;Node26</title>
<path fill="none" stroke="midnightblue" d="M119.75,-484.29C125.74,-435.01 143.41,-308.04 170,-276 173.58,-271.69 178.33,-268.33 183.37,-265.71"/>
<polygon fill="midnightblue" stroke="midnightblue" points="116.27,-483.98 118.57,-494.32 123.22,-484.8 116.27,-483.98"/>
</g>
<!-- Node27 -->
<g id="node27" class="node">
<title>Node27</title>
<g id="a_node27"><a xlink:href="classSqrtCell.html" target="_top" xlink:title="This class represents a square root.">
<polygon fill="white" stroke="black" points="187,-209.5 187,-228.5 242,-228.5 242,-209.5 187,-209.5"/>
<text text-anchor="middle" x="214.5" y="-216.5" font-family="Helvetica,sans-Serif" font-size="10.00">SqrtCell</text>
</a>
</g>
</g>
<!-- Node1&#45;&gt;Node27 -->
<g id="edge26" class="edge">
<title>Node1&#45;&gt;Node27</title>
<path fill="none" stroke="midnightblue" d="M119.03,-484.37C123.68,-429.56 139.17,-276.37 170,-238 174.34,-232.6 180.51,-228.7 186.85,-225.9"/>
<polygon fill="midnightblue" stroke="midnightblue" points="115.53,-484.24 118.21,-494.5 122.51,-484.81 115.53,-484.24"/>
</g>
<!-- Node28 -->
<g id="node28" class="node">
<title>Node28</title>
<g id="a_node28"><a xlink:href="classSubCell.html" target="_top" xlink:title=" ">
<polygon fill="white" stroke="black" points="188,-171.5 188,-190.5 241,-190.5 241,-171.5 188,-171.5"/>
<text text-anchor="middle" x="214.5" y="-178.5" font-family="Helvetica,sans-Serif" font-size="10.00">SubCell</text>
</a>
</g>
</g>
<!-- Node1&#45;&gt;Node28 -->
<g id="edge27" class="edge">
<title>Node1&#45;&gt;Node28</title>
<path fill="none" stroke="midnightblue" d="M118.5,-484.37C121.91,-424.37 134.92,-244.74 170,-200 174.47,-194.29 181.01,-190.26 187.67,-187.44"/>
<polygon fill="midnightblue" stroke="midnightblue" points="115,-484.24 117.96,-494.42 121.99,-484.62 115,-484.24"/>
</g>
<!-- Node29 -->
<g id="node29" class="node">
<title>Node29</title>
<g id="a_node29"><a xlink:href="classSubSupCell.html" target="_top" xlink:title=" ">
<polygon fill="white" stroke="black" points="179,-133.5 179,-152.5 250,-152.5 250,-133.5 179,-133.5"/>
<text text-anchor="middle" x="214.5" y="-140.5" font-family="Helvetica,sans-Serif" font-size="10.00">SubSupCell</text>
</a>
</g>
</g>
<!-- Node1&#45;&gt;Node29 -->
<g id="edge28" class="edge">
<title>Node1&#45;&gt;Node29</title>
<path fill="none" stroke="midnightblue" d="M118.09,-484.08C120.4,-418.88 130.7,-213.09 170,-162 172.91,-158.21 176.74,-155.16 180.92,-152.72"/>
<polygon fill="midnightblue" stroke="midnightblue" points="114.59,-484.13 117.76,-494.24 121.58,-484.36 114.59,-484.13"/>
</g>
<!-- Node30 -->
<g id="node30" class="node">
<title>Node30</title>
<g id="a_node30"><a xlink:href="classSumCell.html" target="_top" xlink:title=" ">
<polygon fill="white" stroke="black" points="186,-95.5 186,-114.5 243,-114.5 243,-95.5 186,-95.5"/>
<text text-anchor="middle" x="214.5" y="-102.5" font-family="Helvetica,sans-Serif" font-size="10.00">SumCell</text>
</a>
</g>
</g>
<!-- Node1&#45;&gt;Node30 -->
<g id="edge29" class="edge">
<title>Node1&#45;&gt;Node30</title>
<path fill="none" stroke="midnightblue" d="M117.75,-484.17C118.99,-414.43 126.39,-181.59 170,-124 173.98,-118.74 179.72,-114.92 185.73,-112.14"/>
<polygon fill="midnightblue" stroke="midnightblue" points="114.25,-484.19 117.59,-494.24 121.25,-484.29 114.25,-484.19"/>
</g>
<!-- Node31 -->
<g id="node31" class="node">
<title>Node31</title>
<g id="a_node31"><a xlink:href="classTextCell.html" target="_top" xlink:title="A Text cell.">
<polygon fill="white" stroke="black" points="186.5,-57.5 186.5,-76.5 242.5,-76.5 242.5,-57.5 186.5,-57.5"/>
<text text-anchor="middle" x="214.5" y="-64.5" font-family="Helvetica,sans-Serif" font-size="10.00">TextCell</text>
</a>
</g>
</g>
<!-- Node1&#45;&gt;Node31 -->
<g id="edge30" class="edge">
<title>Node1&#45;&gt;Node31</title>
<path fill="none" stroke="midnightblue" d="M117.47,-484.14C117.73,-409.96 122.09,-150.08 170,-86 174.05,-80.59 179.96,-76.69 186.14,-73.9"/>
<polygon fill="midnightblue" stroke="midnightblue" points="113.97,-484.39 117.46,-494.39 120.97,-484.4 113.97,-484.39"/>
</g>
<!-- Node2 -->
<g id="node2" class="node">
<title>Node2</title>
<g id="a_node2"><a xlink:href="classObserved.html" target="_top" xlink:title="Objects deriving from this class can be observed by the CellPtr.">
<polygon fill="white" stroke="black" points="0,-494.5 0,-513.5 63,-513.5 63,-494.5 0,-494.5"/>
<text text-anchor="middle" x="31.5" y="-501.5" font-family="Helvetica,sans-Serif" font-size="10.00">Observed</text>
</a>
</g>
</g>
<!-- Node2&#45;&gt;Node1 -->
<g id="edge1" class="edge">
<title>Node2&#45;&gt;Node1</title>
<path fill="none" stroke="midnightblue" d="M73.43,-504C82.4,-504 91.41,-504 98.77,-504"/>
<polygon fill="midnightblue" stroke="midnightblue" points="73.41,-500.5 63.41,-504 73.41,-507.5 73.41,-500.5"/>
</g>
<!-- Node12 -->
<g id="node12" class="node">
<title>Node12</title>
<g id="a_node12"><a xlink:href="classIterArrayCell.html" target="_top" xlink:title=" ">
<polygon fill="white" stroke="black" points="295,-636.5 295,-655.5 403,-655.5 403,-636.5 295,-636.5"/>
<text text-anchor="middle" x="349" y="-643.5" font-family="Helvetica,sans-Serif" font-size="10.00">IterArrayCell&lt; N &gt;</text>
</a>
</g>
</g>
<!-- Node11&#45;&gt;Node12 -->
<g id="edge11" class="edge">
<title>Node11&#45;&gt;Node12</title>
<path fill="none" stroke="midnightblue" d="M260.87,-640.08C271.84,-640.83 283.66,-641.63 294.94,-642.4"/>
<polygon fill="midnightblue" stroke="midnightblue" points="260.87,-636.57 250.66,-639.39 260.4,-643.56 260.87,-636.57"/>
</g>
<!-- Node13 -->
<g id="node13" class="node">
<title>Node13</title>
<g id="a_node13"><a xlink:href="classIterArrayCell_3_010_01_4.html" target="_top" xlink:title=" ">
<polygon fill="white" stroke="black" points="295.5,-598.5 295.5,-617.5 402.5,-617.5 402.5,-598.5 295.5,-598.5"/>
<text text-anchor="middle" x="349" y="-605.5" font-family="Helvetica,sans-Serif" font-size="10.00">IterArrayCell&lt; 0 &gt;</text>
</a>
</g>
</g>
<!-- Node11&#45;&gt;Node13 -->
<g id="edge12" class="edge">
<title>Node11&#45;&gt;Node13</title>
<path fill="none" stroke="midnightblue" d="M260.61,-627.13C274.67,-624.05 290.16,-620.66 304.13,-617.6"/>
<polygon fill="midnightblue" stroke="midnightblue" points="259.68,-623.75 250.66,-629.3 261.18,-630.59 259.68,-623.75"/>
</g>
<!-- Node17 -->
<g id="node17" class="node">
<title>Node17</title>
<g id="a_node17"><a xlink:href="classAnimationCell.html" target="_top" xlink:title=" ">
<polygon fill="white" stroke="black" points="306,-541.5 306,-560.5 392,-560.5 392,-541.5 306,-541.5"/>
<text text-anchor="middle" x="349" y="-548.5" font-family="Helvetica,sans-Serif" font-size="10.00">AnimationCell</text>
</a>
</g>
</g>
<!-- Node16&#45;&gt;Node17 -->
<g id="edge16" class="edge">
<title>Node16&#45;&gt;Node17</title>
<path fill="none" stroke="midnightblue" d="M263.99,-533.25C277.62,-536.13 292.34,-539.24 305.58,-542.04"/>
<polygon fill="midnightblue" stroke="midnightblue" points="264.33,-529.74 253.82,-531.1 262.88,-536.59 264.33,-529.74"/>
</g>
<!-- Node18 -->
<g id="node18" class="node">
<title>Node18</title>
<g id="a_node18"><a xlink:href="classImgCell.html" target="_top" xlink:title=" ">
<polygon fill="white" stroke="black" points="322,-503.5 322,-522.5 376,-522.5 376,-503.5 322,-503.5"/>
<text text-anchor="middle" x="349" y="-510.5" font-family="Helvetica,sans-Serif" font-size="10.00">ImgCell</text>
</a>
</g>
</g>
<!-- Node16&#45;&gt;Node18 -->
<g id="edge17" class="edge">
<title>Node16&#45;&gt;Node18</title>
<path fill="none" stroke="midnightblue" d="M263.85,-519.35C283.48,-517.87 305.39,-516.22 321.93,-514.97"/>
<polygon fill="midnightblue" stroke="midnightblue" points="263.53,-515.86 253.82,-520.11 264.06,-522.84 263.53,-515.86"/>
</g>
<!-- Node23 -->
<g id="node23" class="node">
<title>Node23</title>
<g id="a_node23"><a xlink:href="classSetCell.html" target="_top" xlink:title="The class that represents parenthesis that are wrapped around text.">
<polygon fill="white" stroke="black" points="323.5,-361.5 323.5,-380.5 374.5,-380.5 374.5,-361.5 323.5,-361.5"/>
<text text-anchor="middle" x="349" y="-368.5" font-family="Helvetica,sans-Serif" font-size="10.00">SetCell</text>
</a>
</g>
</g>
<!-- Node22&#45;&gt;Node23 -->
<g id="edge22" class="edge">
<title>Node22&#45;&gt;Node23</title>
<path fill="none" stroke="midnightblue" d="M251.07,-371C273.95,-371 303.1,-371 323.43,-371"/>
<polygon fill="midnightblue" stroke="midnightblue" points="251.05,-367.5 241.05,-371 251.05,-374.5 251.05,-367.5"/>
</g>
<!-- Node32 -->
<g id="node32" class="node">
<title>Node32</title>
<g id="a_node32"><a xlink:href="classDigitCell.html" target="_top" xlink:title="A Text cell that display a digit of a more&#45;than&#45;one&#45;line&#45;wide number.">
<polygon fill="white" stroke="black" points="319.5,-114.5 319.5,-133.5 378.5,-133.5 378.5,-114.5 319.5,-114.5"/>
<text text-anchor="middle" x="349" y="-121.5" font-family="Helvetica,sans-Serif" font-size="10.00">DigitCell</text>
</a>
</g>
</g>
<!-- Node31&#45;&gt;Node32 -->
<g id="edge31" class="edge">
<title>Node31&#45;&gt;Node32</title>
<path fill="none" stroke="midnightblue" d="M247.64,-80.72C251.49,-82.46 255.35,-84.24 259,-86 275.3,-93.85 278.44,-97.71 295,-105 302.78,-108.43 311.4,-111.72 319.38,-114.57"/>
<polygon fill="midnightblue" stroke="midnightblue" points="248.78,-77.4 238.22,-76.55 245.95,-83.8 248.78,-77.4"/>
</g>
<!-- Node33 -->
<g id="node33" class="node">
<title>Node33</title>
<g id="a_node33"><a xlink:href="classLabelCell.html" target="_top" xlink:title="A label cell.">
<polygon fill="white" stroke="black" points="318,-76.5 318,-95.5 380,-95.5 380,-76.5 318,-76.5"/>
<text text-anchor="middle" x="349" y="-83.5" font-family="Helvetica,sans-Serif" font-size="10.00">LabelCell</text>
</a>
</g>
</g>
<!-- Node31&#45;&gt;Node33 -->
<g id="edge32" class="edge">
<title>Node31&#45;&gt;Node33</title>
<path fill="none" stroke="midnightblue" d="M252.59,-72.32C273.12,-75.26 298.32,-78.88 317.66,-81.65"/>
<polygon fill="midnightblue" stroke="midnightblue" points="253.03,-68.85 242.63,-70.89 252.03,-75.77 253.03,-68.85"/>
</g>
<!-- Node34 -->
<g id="node34" class="node">
<title>Node34</title>
<g id="a_node34"><a xlink:href="classLongNumberCell.html" target="_top" xlink:title="A cell containing a long number.">
<polygon fill="white" stroke="black" points="300,-38.5 300,-57.5 398,-57.5 398,-38.5 300,-38.5"/>
<text text-anchor="middle" x="349" y="-45.5" font-family="Helvetica,sans-Serif" font-size="10.00">LongNumberCell</text>
</a>
</g>
</g>
<!-- Node31&#45;&gt;Node34 -->
<g id="edge33" class="edge">
<title>Node31&#45;&gt;Node34</title>
<path fill="none" stroke="midnightblue" d="M252.83,-61.65C267.47,-59.55 284.46,-57.11 300,-54.88"/>
<polygon fill="midnightblue" stroke="midnightblue" points="252.03,-58.23 242.63,-63.11 253.03,-65.15 252.03,-58.23"/>
</g>
<!-- Node35 -->
<g id="node35" class="node">
<title>Node35</title>
<g id="a_node35"><a xlink:href="classVisiblyInvalidCell.html" target="_top" xlink:title="A visibly invalid cell.">
<polygon fill="white" stroke="black" points="298.5,-0.5 298.5,-19.5 399.5,-19.5 399.5,-0.5 298.5,-0.5"/>
<text text-anchor="middle" x="349" y="-7.5" font-family="Helvetica,sans-Serif" font-size="10.00">VisiblyInvalidCell</text>
</a>
</g>
</g>
<!-- Node31&#45;&gt;Node35 -->
<g id="edge34" class="edge">
<title>Node31&#45;&gt;Node35</title>
<path fill="none" stroke="midnightblue" d="M243.5,-52.76C258.59,-45.3 277.63,-36.24 295,-29 302.94,-25.69 311.68,-22.41 319.74,-19.53"/>
<polygon fill="midnightblue" stroke="midnightblue" points="241.6,-49.8 234.21,-57.39 244.72,-56.06 241.6,-49.8"/>
</g>
</g>
</svg>
        <g id="navigator" transform="translate(0 0)" fill="#404254">
                <rect fill="#f2f5e9" fill-opacity="0.5" stroke="#606060" stroke-width=".5" x="0" y="0" width="60" height="60"/>
                <use id="zoomplus" xlink:href="#zoomPlus" x="17" y="9" onmousedown="handleZoom(evt,'in')"/>
                <use id="zoomminus" xlink:href="#zoomMin" x="42" y="9" onmousedown="handleZoom(evt,'out')"/>
                <use id="reset" xlink:href="#resetDef" x="30" y="36" onmousedown="handleReset()"/>
                <g id="arrowUp" xlink:href="#dirArrow" transform="translate(30 24)" onmousedown="handlePan(0,-1)">
                  <use xlink:href="#rim" fill="#404040">
                        <set attributeName="fill" to="#808080" begin="arrowUp.mouseover" end="arrowUp.mouseout"/>
                  </use>
                  <path fill="none" stroke="white" stroke-width="1.5" d="M0,-3.0v7 M-2.5,-0.5L0,-3.0L2.5,-0.5"/>
                </g>
                <g id="arrowRight" xlink:href="#dirArrow" transform="rotate(90) translate(36 -43)" onmousedown="handlePan(1,0)">
                  <use xlink:href="#rim" fill="#404040">
                        <set attributeName="fill" to="#808080" begin="arrowRight.mouseover" end="arrowRight.mouseout"/>
                  </use>
                  <path fill="none" stroke="white" stroke-width="1.5" d="M0,-3.0v7 M-2.5,-0.5L0,-3.0L2.5,-0.5"/>
                </g>
                <g id="arrowDown" xlink:href="#dirArrow" transform="rotate(180) translate(-30 -48)" onmousedown="handlePan(0,1)">
                  <use xlink:href="#rim" fill="#404040">
                        <set attributeName="fill" to="#808080" begin="arrowDown.mouseover" end="arrowDown.mouseout"/>
                  </use>
                  <path fill="none" stroke="white" stroke-width="1.5" d="M0,-3.0v7 M-2.5,-0.5L0,-3.0L2.5,-0.5"/>
                </g>
                <g id="arrowLeft" xlink:href="#dirArrow" transform="rotate(270) translate(-36 17)" onmousedown="handlePan(-1,0)">
                  <use xlink:href="#rim" fill="#404040">
                        <set attributeName="fill" to="#808080" begin="arrowLeft.mouseover" end="arrowLeft.mouseout"/>
                  </use>
                  <path fill="none" stroke="white" stroke-width="1.5" d="M0,-3.0v7 M-2.5,-0.5L0,-3.0L2.5,-0.5"/>
                </g>
        </g>
        <svg viewBox="0 0 15 15" width="100%" height="30px" preserveAspectRatio="xMaxYMin meet">
         <g id="arrow_out" transform="scale(0.3 0.3)">
          <a xlink:href="classCell__inherit__graph_org.svg" target="_base">
           <rect id="button" ry="5" rx="5" y="6" x="6" height="38" width="38"
                fill="#f2f5e9" fill-opacity="0.5" stroke="#606060" stroke-width="1.0"/>
           <path id="arrow"
             d="M 11.500037,31.436501 C 11.940474,20.09759 22.043105,11.32322 32.158766,21.979434 L 37.068811,17.246167 C 37.068811,17.246167 37.088388,32 37.088388,32 L 22.160133,31.978069 C 22.160133,31.978069 26.997745,27.140456 26.997745,27.140456 C 18.528582,18.264221 13.291696,25.230495 11.500037,31.436501 z"
             style="fill:#404040;"/>
          </a>
         </g>
        </svg>
</svg>
