<?xml version="1.0" encoding="UTF-8" standalone="no"?>
<!DOCTYPE svg PUBLIC "-//W3C//DTD SVG 1.1//EN"
 "http://www.w3.org/Graphics/SVG/1.1/DTD/svg11.dtd">
<!-- Generated by graphviz version 2.43.0 (0)
 -->
<!-- Title: Catch::Matchers::Impl::MatcherUntypedBase Pages: 1 -->
<svg width="744pt" height="949pt"
 viewBox="0.00 0.00 744.00 948.50" xmlns="http://www.w3.org/2000/svg" xmlns:xlink="http://www.w3.org/1999/xlink">
<g id="graph0" class="graph" transform="scale(1 1) rotate(0) translate(4 944.5)">
<title>Catch::Matchers::Impl::MatcherUntypedBase</title>
<polygon fill="white" stroke="transparent" points="-4,4 -4,-944.5 740,-944.5 740,4 -4,4"/>
<!-- Node1 -->
<g id="node1" class="node">
<title>Node1</title>
<g id="a_node1"><a xlink:title=" ">
<polygon fill="#bfbfbf" stroke="black" points="0,-746 0,-776 128,-776 128,-746 0,-746"/>
<text text-anchor="start" x="8" y="-764" font-family="Helvetica,sans-Serif" font-size="10.00">Catch::Matchers::Impl</text>
<text text-anchor="middle" x="64" y="-753" font-family="Helvetica,sans-Serif" font-size="10.00">::MatcherUntypedBase</text>
</a>
</g>
</g>
<!-- Node2 -->
<g id="node2" class="node">
<title>Node2</title>
<g id="a_node2"><a xlink:href="structCatch_1_1Matchers_1_1Impl_1_1MatcherBase.html" target="_top" xlink:title=" ">
<polygon fill="white" stroke="black" points="182,-910 182,-940 324,-940 324,-910 182,-910"/>
<text text-anchor="start" x="190" y="-928" font-family="Helvetica,sans-Serif" font-size="10.00">Catch::Matchers::Impl</text>
<text text-anchor="middle" x="253" y="-917" font-family="Helvetica,sans-Serif" font-size="10.00">::MatcherBase&lt; double &gt;</text>
</a>
</g>
</g>
<!-- Node1&#45;&gt;Node2 -->
<g id="edge1" class="edge">
<title>Node1&#45;&gt;Node2</title>
<path fill="none" stroke="midnightblue" d="M75.86,-785.66C91.03,-817.2 121.53,-871.27 164,-901 169.45,-904.81 175.48,-908.02 181.75,-910.72"/>
<polygon fill="midnightblue" stroke="midnightblue" points="78.88,-783.86 71.48,-776.28 72.54,-786.82 78.88,-783.86"/>
</g>
<!-- Node3 -->
<g id="node3" class="node">
<title>Node3</title>
<g id="a_node3"><a xlink:href="structCatch_1_1Matchers_1_1Impl_1_1MatcherBase.html" target="_top" xlink:title=" ">
<polygon fill="white" stroke="black" points="174,-861 174,-891 332,-891 332,-861 174,-861"/>
<text text-anchor="start" x="182" y="-879" font-family="Helvetica,sans-Serif" font-size="10.00">Catch::Matchers::Impl</text>
<text text-anchor="middle" x="253" y="-868" font-family="Helvetica,sans-Serif" font-size="10.00">::MatcherBase&lt; std::string &gt;</text>
</a>
</g>
</g>
<!-- Node1&#45;&gt;Node3 -->
<g id="edge2" class="edge">
<title>Node1&#45;&gt;Node3</title>
<path fill="none" stroke="midnightblue" d="M84.24,-783.66C102.73,-804.06 132.45,-833.47 164,-851 170.94,-854.86 178.53,-858.16 186.24,-860.98"/>
<polygon fill="midnightblue" stroke="midnightblue" points="86.75,-781.21 77.49,-776.06 81.51,-785.86 86.75,-781.21"/>
</g>
<!-- Node4 -->
<g id="node4" class="node">
<title>Node4</title>
<g id="a_node4"><a xlink:href="structCatch_1_1Matchers_1_1Impl_1_1MatcherBase.html" target="_top" xlink:title=" ">
<polygon fill="white" stroke="black" points="178.5,-800.5 178.5,-841.5 327.5,-841.5 327.5,-800.5 178.5,-800.5"/>
<text text-anchor="start" x="186.5" y="-829.5" font-family="Helvetica,sans-Serif" font-size="10.00">Catch::Matchers::Impl</text>
<text text-anchor="start" x="186.5" y="-818.5" font-family="Helvetica,sans-Serif" font-size="10.00">::MatcherBase&lt; std::vector</text>
<text text-anchor="middle" x="253" y="-807.5" font-family="Helvetica,sans-Serif" font-size="10.00">&lt; T, AllocMatch &gt; &gt;</text>
</a>
</g>
</g>
<!-- Node1&#45;&gt;Node4 -->
<g id="edge3" class="edge">
<title>Node1&#45;&gt;Node4</title>
<path fill="none" stroke="midnightblue" d="M121.85,-779.24C142.7,-785.93 166.43,-793.55 187.87,-800.42"/>
<polygon fill="midnightblue" stroke="midnightblue" points="122.78,-775.86 112.19,-776.14 120.64,-782.53 122.78,-775.86"/>
</g>
<!-- Node5 -->
<g id="node5" class="node">
<title>Node5</title>
<g id="a_node5"><a xlink:href="structCatch_1_1Matchers_1_1Impl_1_1MatcherBase.html" target="_top" xlink:title=" ">
<polygon fill="white" stroke="black" points="178.5,-740.5 178.5,-781.5 327.5,-781.5 327.5,-740.5 178.5,-740.5"/>
<text text-anchor="start" x="186.5" y="-769.5" font-family="Helvetica,sans-Serif" font-size="10.00">Catch::Matchers::Impl</text>
<text text-anchor="start" x="186.5" y="-758.5" font-family="Helvetica,sans-Serif" font-size="10.00">::MatcherBase&lt; std::vector</text>
<text text-anchor="middle" x="253" y="-747.5" font-family="Helvetica,sans-Serif" font-size="10.00">&lt; T, Alloc &gt; &gt;</text>
</a>
</g>
</g>
<!-- Node1&#45;&gt;Node5 -->
<g id="edge4" class="edge">
<title>Node1&#45;&gt;Node5</title>
<path fill="none" stroke="midnightblue" d="M138.41,-761C151.5,-761 165.14,-761 178.24,-761"/>
<polygon fill="midnightblue" stroke="midnightblue" points="138.05,-757.5 128.05,-761 138.05,-764.5 138.05,-757.5"/>
</g>
<!-- Node6 -->
<g id="node6" class="node">
<title>Node6</title>
<g id="a_node6"><a xlink:href="structCatch_1_1Matchers_1_1Impl_1_1MatcherBase.html" target="_top" xlink:title=" ">
<polygon fill="white" stroke="black" points="187.5,-691 187.5,-721 318.5,-721 318.5,-691 187.5,-691"/>
<text text-anchor="start" x="195.5" y="-709" font-family="Helvetica,sans-Serif" font-size="10.00">Catch::Matchers::Impl</text>
<text text-anchor="middle" x="253" y="-698" font-family="Helvetica,sans-Serif" font-size="10.00">::MatcherBase&lt; ArgT &gt;</text>
</a>
</g>
</g>
<!-- Node1&#45;&gt;Node6 -->
<g id="edge5" class="edge">
<title>Node1&#45;&gt;Node6</title>
<path fill="none" stroke="midnightblue" d="M123.95,-742.95C137.11,-738.97 151.02,-734.81 164,-731 175.12,-727.73 187.06,-724.3 198.44,-721.05"/>
<polygon fill="midnightblue" stroke="midnightblue" points="122.6,-739.7 114.05,-745.95 124.63,-746.4 122.6,-739.7"/>
</g>
<!-- Node10 -->
<g id="node10" class="node">
<title>Node10</title>
<g id="a_node10"><a xlink:href="structCatch_1_1Matchers_1_1Impl_1_1MatcherBase.html" target="_top" xlink:title=" ">
<polygon fill="white" stroke="black" points="164,-642 164,-672 342,-672 342,-642 164,-642"/>
<text text-anchor="start" x="172" y="-660" font-family="Helvetica,sans-Serif" font-size="10.00">Catch::Matchers::Impl</text>
<text text-anchor="middle" x="253" y="-649" font-family="Helvetica,sans-Serif" font-size="10.00">::MatcherBase&lt; std::exception &gt;</text>
</a>
</g>
</g>
<!-- Node1&#45;&gt;Node10 -->
<g id="edge9" class="edge">
<title>Node1&#45;&gt;Node10</title>
<path fill="none" stroke="midnightblue" d="M87.34,-738.82C106.29,-721.14 134.96,-696.94 164,-682 171.34,-678.22 179.34,-674.95 187.41,-672.13"/>
<polygon fill="midnightblue" stroke="midnightblue" points="84.92,-736.29 80.08,-745.72 89.74,-741.37 84.92,-736.29"/>
</g>
<!-- Node11 -->
<g id="node11" class="node">
<title>Node11</title>
<g id="a_node11"><a xlink:href="structCatch_1_1Matchers_1_1Impl_1_1MatcherBase.html" target="_top" xlink:title=" ">
<polygon fill="white" stroke="black" points="191.5,-361 191.5,-391 314.5,-391 314.5,-361 191.5,-361"/>
<text text-anchor="start" x="199.5" y="-379" font-family="Helvetica,sans-Serif" font-size="10.00">Catch::Matchers::Impl</text>
<text text-anchor="middle" x="253" y="-368" font-family="Helvetica,sans-Serif" font-size="10.00">::MatcherBase&lt; T &gt;</text>
</a>
</g>
</g>
<!-- Node1&#45;&gt;Node11 -->
<g id="edge10" class="edge">
<title>Node1&#45;&gt;Node11</title>
<path fill="none" stroke="midnightblue" d="M76.84,-736.63C112.09,-664.04 215.74,-450.64 244.52,-391.41"/>
<polygon fill="midnightblue" stroke="midnightblue" points="73.55,-735.38 72.33,-745.91 79.85,-738.44 73.55,-735.38"/>
</g>
<!-- Node7 -->
<g id="node7" class="node">
<title>Node7</title>
<g id="a_node7"><a xlink:href="structCatch_1_1Matchers_1_1Impl_1_1MatchAllOf.html" target="_top" xlink:title=" ">
<polygon fill="white" stroke="black" points="404.5,-765 404.5,-795 527.5,-795 527.5,-765 404.5,-765"/>
<text text-anchor="start" x="412.5" y="-783" font-family="Helvetica,sans-Serif" font-size="10.00">Catch::Matchers::Impl</text>
<text text-anchor="middle" x="466" y="-772" font-family="Helvetica,sans-Serif" font-size="10.00">::MatchAllOf&lt; ArgT &gt;</text>
</a>
</g>
</g>
<!-- Node6&#45;&gt;Node7 -->
<g id="edge6" class="edge">
<title>Node6&#45;&gt;Node7</title>
<path fill="none" stroke="midnightblue" d="M326.57,-724.52C331.87,-726.51 337.06,-728.67 342,-731 359.61,-739.33 360.36,-747.74 378,-756 386.23,-759.85 395.2,-763.2 404.14,-766.06"/>
<polygon fill="midnightblue" stroke="midnightblue" points="327.55,-721.15 316.96,-721.13 325.22,-727.75 327.55,-721.15"/>
</g>
<!-- Node8 -->
<g id="node8" class="node">
<title>Node8</title>
<g id="a_node8"><a xlink:href="structCatch_1_1Matchers_1_1Impl_1_1MatchAnyOf.html" target="_top" xlink:title=" ">
<polygon fill="white" stroke="black" points="402,-716 402,-746 530,-746 530,-716 402,-716"/>
<text text-anchor="start" x="410" y="-734" font-family="Helvetica,sans-Serif" font-size="10.00">Catch::Matchers::Impl</text>
<text text-anchor="middle" x="466" y="-723" font-family="Helvetica,sans-Serif" font-size="10.00">::MatchAnyOf&lt; ArgT &gt;</text>
</a>
</g>
</g>
<!-- Node6&#45;&gt;Node8 -->
<g id="edge7" class="edge">
<title>Node6&#45;&gt;Node8</title>
<path fill="none" stroke="midnightblue" d="M328.82,-714.86C352.69,-717.69 378.87,-720.79 401.83,-723.52"/>
<polygon fill="midnightblue" stroke="midnightblue" points="329.08,-711.37 318.74,-713.67 328.26,-718.32 329.08,-711.37"/>
</g>
<!-- Node9 -->
<g id="node9" class="node">
<title>Node9</title>
<g id="a_node9"><a xlink:href="structCatch_1_1Matchers_1_1Impl_1_1MatchNotOf.html" target="_top" xlink:title=" ">
<polygon fill="white" stroke="black" points="403,-667 403,-697 529,-697 529,-667 403,-667"/>
<text text-anchor="start" x="411" y="-685" font-family="Helvetica,sans-Serif" font-size="10.00">Catch::Matchers::Impl</text>
<text text-anchor="middle" x="466" y="-674" font-family="Helvetica,sans-Serif" font-size="10.00">::MatchNotOf&lt; ArgT &gt;</text>
</a>
</g>
</g>
<!-- Node6&#45;&gt;Node9 -->
<g id="edge8" class="edge">
<title>Node6&#45;&gt;Node9</title>
<path fill="none" stroke="midnightblue" d="M328.96,-697.47C353.17,-694.72 379.73,-691.7 402.91,-689.06"/>
<polygon fill="midnightblue" stroke="midnightblue" points="328.28,-694.03 318.74,-698.64 329.07,-700.98 328.28,-694.03"/>
</g>
<!-- Node12 -->
<g id="node12" class="node">
<title>Node12</title>
<g id="a_node12"><a xlink:href="classCatch_1_1Matchers_1_1Exception_1_1ExceptionMessageMatcher.html" target="_top" xlink:title=" ">
<polygon fill="white" stroke="black" points="389,-606.5 389,-647.5 543,-647.5 543,-606.5 389,-606.5"/>
<text text-anchor="start" x="397" y="-635.5" font-family="Helvetica,sans-Serif" font-size="10.00">Catch::Matchers::Exception</text>
<text text-anchor="start" x="397" y="-624.5" font-family="Helvetica,sans-Serif" font-size="10.00">::ExceptionMessageMatcher</text>
<text text-anchor="middle" x="466" y="-613.5" font-family="Helvetica,sans-Serif" font-size="10.00">&lt; std::exception &gt;</text>
</a>
</g>
</g>
<!-- Node11&#45;&gt;Node12 -->
<g id="edge11" class="edge">
<title>Node11&#45;&gt;Node12</title>
<path fill="none" stroke="midnightblue" d="M261.32,-400.68C276,-446.04 313.31,-542.98 378,-597 382.17,-600.48 386.77,-603.57 391.6,-606.3"/>
<polygon fill="midnightblue" stroke="midnightblue" points="264.63,-399.55 258.29,-391.06 257.95,-401.65 264.63,-399.55"/>
</g>
<!-- Node13 -->
<g id="node13" class="node">
<title>Node13</title>
<g id="a_node13"><a xlink:href="structCatch_1_1Matchers_1_1Floating_1_1WithinAbsMatcher.html" target="_top" xlink:title=" ">
<polygon fill="white" stroke="black" points="382.5,-557 382.5,-587 549.5,-587 549.5,-557 382.5,-557"/>
<text text-anchor="start" x="390.5" y="-575" font-family="Helvetica,sans-Serif" font-size="10.00">Catch::Matchers::Floating</text>
<text text-anchor="middle" x="466" y="-564" font-family="Helvetica,sans-Serif" font-size="10.00">::WithinAbsMatcher&lt; double &gt;</text>
</a>
</g>
</g>
<!-- Node11&#45;&gt;Node13 -->
<g id="edge12" class="edge">
<title>Node11&#45;&gt;Node13</title>
<path fill="none" stroke="midnightblue" d="M264.83,-400.23C282.84,-437.71 322.51,-509.41 378,-548 382.89,-551.4 388.24,-554.32 393.82,-556.82"/>
<polygon fill="midnightblue" stroke="midnightblue" points="267.94,-398.62 260.53,-391.06 261.6,-401.6 267.94,-398.62"/>
</g>
<!-- Node14 -->
<g id="node14" class="node">
<title>Node14</title>
<g id="a_node14"><a xlink:href="structCatch_1_1Matchers_1_1Floating_1_1WithinRelMatcher.html" target="_top" xlink:title=" ">
<polygon fill="white" stroke="black" points="383.5,-508 383.5,-538 548.5,-538 548.5,-508 383.5,-508"/>
<text text-anchor="start" x="391.5" y="-526" font-family="Helvetica,sans-Serif" font-size="10.00">Catch::Matchers::Floating</text>
<text text-anchor="middle" x="466" y="-515" font-family="Helvetica,sans-Serif" font-size="10.00">::WithinRelMatcher&lt; double &gt;</text>
</a>
</g>
</g>
<!-- Node11&#45;&gt;Node14 -->
<g id="edge13" class="edge">
<title>Node11&#45;&gt;Node14</title>
<path fill="none" stroke="midnightblue" d="M271.34,-399.38C293.18,-427.19 333.3,-473.09 378,-499 383.96,-502.46 390.45,-505.43 397.1,-508"/>
<polygon fill="midnightblue" stroke="midnightblue" points="274.04,-397.16 265.16,-391.37 268.5,-401.43 274.04,-397.16"/>
</g>
<!-- Node15 -->
<g id="node15" class="node">
<title>Node15</title>
<g id="a_node15"><a xlink:href="structCatch_1_1Matchers_1_1Floating_1_1WithinUlpsMatcher.html" target="_top" xlink:title=" ">
<polygon fill="white" stroke="black" points="380.5,-459 380.5,-489 551.5,-489 551.5,-459 380.5,-459"/>
<text text-anchor="start" x="388.5" y="-477" font-family="Helvetica,sans-Serif" font-size="10.00">Catch::Matchers::Floating</text>
<text text-anchor="middle" x="466" y="-466" font-family="Helvetica,sans-Serif" font-size="10.00">::WithinUlpsMatcher&lt; double &gt;</text>
</a>
</g>
</g>
<!-- Node11&#45;&gt;Node15 -->
<g id="edge14" class="edge">
<title>Node11&#45;&gt;Node15</title>
<path fill="none" stroke="midnightblue" d="M283.89,-396.97C308.28,-413.29 344.12,-435.53 378,-450 385.78,-453.32 394.15,-456.31 402.51,-458.96"/>
<polygon fill="midnightblue" stroke="midnightblue" points="285.69,-393.96 275.45,-391.25 281.76,-399.75 285.69,-393.96"/>
</g>
<!-- Node16 -->
<g id="node16" class="node">
<title>Node16</title>
<g id="a_node16"><a xlink:href="classCatch_1_1Matchers_1_1Generic_1_1PredicateMatcher.html" target="_top" xlink:title=" ">
<polygon fill="white" stroke="black" points="396.5,-410 396.5,-440 535.5,-440 535.5,-410 396.5,-410"/>
<text text-anchor="start" x="404.5" y="-428" font-family="Helvetica,sans-Serif" font-size="10.00">Catch::Matchers::Generic</text>
<text text-anchor="middle" x="466" y="-417" font-family="Helvetica,sans-Serif" font-size="10.00">::PredicateMatcher&lt; T &gt;</text>
</a>
</g>
</g>
<!-- Node11&#45;&gt;Node16 -->
<g id="edge15" class="edge">
<title>Node11&#45;&gt;Node16</title>
<path fill="none" stroke="midnightblue" d="M324.67,-392.41C349.1,-398.08 376.34,-404.41 400.27,-409.97"/>
<polygon fill="midnightblue" stroke="midnightblue" points="325.28,-388.96 314.75,-390.11 323.7,-395.78 325.28,-388.96"/>
</g>
<!-- Node17 -->
<g id="node17" class="node">
<title>Node17</title>
<g id="a_node17"><a xlink:href="structCatch_1_1Matchers_1_1StdString_1_1RegexMatcher.html" target="_top" xlink:title=" ">
<polygon fill="white" stroke="black" points="384,-361 384,-391 548,-391 548,-361 384,-361"/>
<text text-anchor="start" x="392" y="-379" font-family="Helvetica,sans-Serif" font-size="10.00">Catch::Matchers::StdString</text>
<text text-anchor="middle" x="466" y="-368" font-family="Helvetica,sans-Serif" font-size="10.00">::RegexMatcher&lt; std::string &gt;</text>
</a>
</g>
</g>
<!-- Node11&#45;&gt;Node17 -->
<g id="edge16" class="edge">
<title>Node11&#45;&gt;Node17</title>
<path fill="none" stroke="midnightblue" d="M324.79,-376C343.76,-376 364.4,-376 383.88,-376"/>
<polygon fill="midnightblue" stroke="midnightblue" points="324.75,-372.5 314.75,-376 324.75,-379.5 324.75,-372.5"/>
</g>
<!-- Node18 -->
<g id="node18" class="node">
<title>Node18</title>
<g id="a_node18"><a xlink:href="structCatch_1_1Matchers_1_1StdString_1_1StringMatcherBase.html" target="_top" xlink:title=" ">
<polygon fill="white" stroke="black" points="393,-300.5 393,-341.5 539,-341.5 539,-300.5 393,-300.5"/>
<text text-anchor="start" x="401" y="-329.5" font-family="Helvetica,sans-Serif" font-size="10.00">Catch::Matchers::StdString</text>
<text text-anchor="start" x="401" y="-318.5" font-family="Helvetica,sans-Serif" font-size="10.00">::StringMatcherBase&lt; std</text>
<text text-anchor="middle" x="466" y="-307.5" font-family="Helvetica,sans-Serif" font-size="10.00">::string &gt;</text>
</a>
</g>
</g>
<!-- Node11&#45;&gt;Node18 -->
<g id="edge17" class="edge">
<title>Node11&#45;&gt;Node18</title>
<path fill="none" stroke="midnightblue" d="M321.54,-358.39C344.24,-352.48 369.65,-345.85 392.7,-339.85"/>
<polygon fill="midnightblue" stroke="midnightblue" points="320.45,-355.06 311.66,-360.97 322.22,-361.84 320.45,-355.06"/>
</g>
<!-- Node23 -->
<g id="node23" class="node">
<title>Node23</title>
<g id="a_node23"><a xlink:href="structCatch_1_1Matchers_1_1Vector_1_1ApproxMatcher.html" target="_top" xlink:title=" ">
<polygon fill="white" stroke="black" points="378,-240.5 378,-281.5 554,-281.5 554,-240.5 378,-240.5"/>
<text text-anchor="start" x="386" y="-269.5" font-family="Helvetica,sans-Serif" font-size="10.00">Catch::Matchers::Vector</text>
<text text-anchor="start" x="386" y="-258.5" font-family="Helvetica,sans-Serif" font-size="10.00">::ApproxMatcher&lt; T, AllocComp,</text>
<text text-anchor="middle" x="466" y="-247.5" font-family="Helvetica,sans-Serif" font-size="10.00"> AllocMatch &gt;</text>
</a>
</g>
</g>
<!-- Node11&#45;&gt;Node23 -->
<g id="edge22" class="edge">
<title>Node11&#45;&gt;Node23</title>
<path fill="none" stroke="midnightblue" d="M280.76,-354.5C305.02,-335.8 342.34,-308.96 378,-291 384.71,-287.62 391.88,-284.47 399.13,-281.58"/>
<polygon fill="midnightblue" stroke="midnightblue" points="278.48,-351.84 272.75,-360.75 282.79,-357.36 278.48,-351.84"/>
</g>
<!-- Node24 -->
<g id="node24" class="node">
<title>Node24</title>
<g id="a_node24"><a xlink:href="structCatch_1_1Matchers_1_1Vector_1_1ContainsElementMatcher.html" target="_top" xlink:title=" ">
<polygon fill="white" stroke="black" points="393,-180.5 393,-221.5 539,-221.5 539,-180.5 393,-180.5"/>
<text text-anchor="start" x="401" y="-209.5" font-family="Helvetica,sans-Serif" font-size="10.00">Catch::Matchers::Vector</text>
<text text-anchor="start" x="401" y="-198.5" font-family="Helvetica,sans-Serif" font-size="10.00">::ContainsElementMatcher</text>
<text text-anchor="middle" x="466" y="-187.5" font-family="Helvetica,sans-Serif" font-size="10.00">&lt; T, Alloc &gt;</text>
</a>
</g>
</g>
<!-- Node11&#45;&gt;Node24 -->
<g id="edge23" class="edge">
<title>Node11&#45;&gt;Node24</title>
<path fill="none" stroke="midnightblue" d="M268.44,-352.29C289.01,-320.4 329.65,-263.91 378,-231 383.15,-227.49 388.75,-224.36 394.55,-221.57"/>
<polygon fill="midnightblue" stroke="midnightblue" points="265.34,-350.65 262.95,-360.97 271.25,-354.39 265.34,-350.65"/>
</g>
<!-- Node25 -->
<g id="node25" class="node">
<title>Node25</title>
<g id="a_node25"><a xlink:href="structCatch_1_1Matchers_1_1Vector_1_1ContainsMatcher.html" target="_top" xlink:title=" ">
<polygon fill="white" stroke="black" points="394.5,-120.5 394.5,-161.5 537.5,-161.5 537.5,-120.5 394.5,-120.5"/>
<text text-anchor="start" x="402.5" y="-149.5" font-family="Helvetica,sans-Serif" font-size="10.00">Catch::Matchers::Vector</text>
<text text-anchor="start" x="402.5" y="-138.5" font-family="Helvetica,sans-Serif" font-size="10.00">::ContainsMatcher&lt; T,</text>
<text text-anchor="middle" x="466" y="-127.5" font-family="Helvetica,sans-Serif" font-size="10.00"> AllocComp, AllocMatch &gt;</text>
</a>
</g>
</g>
<!-- Node11&#45;&gt;Node25 -->
<g id="edge24" class="edge">
<title>Node11&#45;&gt;Node25</title>
<path fill="none" stroke="midnightblue" d="M262.49,-351.32C278.43,-308.52 316.87,-220.38 378,-171 382.97,-166.98 388.51,-163.49 394.33,-160.46"/>
<polygon fill="midnightblue" stroke="midnightblue" points="259.12,-350.34 259,-360.94 265.7,-352.73 259.12,-350.34"/>
</g>
<!-- Node26 -->
<g id="node26" class="node">
<title>Node26</title>
<g id="a_node26"><a xlink:href="structCatch_1_1Matchers_1_1Vector_1_1EqualsMatcher.html" target="_top" xlink:title=" ">
<polygon fill="white" stroke="black" points="379.5,-60.5 379.5,-101.5 552.5,-101.5 552.5,-60.5 379.5,-60.5"/>
<text text-anchor="start" x="387.5" y="-89.5" font-family="Helvetica,sans-Serif" font-size="10.00">Catch::Matchers::Vector</text>
<text text-anchor="start" x="387.5" y="-78.5" font-family="Helvetica,sans-Serif" font-size="10.00">::EqualsMatcher&lt; T, AllocComp,</text>
<text text-anchor="middle" x="466" y="-67.5" font-family="Helvetica,sans-Serif" font-size="10.00"> AllocMatch &gt;</text>
</a>
</g>
</g>
<!-- Node11&#45;&gt;Node26 -->
<g id="edge25" class="edge">
<title>Node11&#45;&gt;Node26</title>
<path fill="none" stroke="midnightblue" d="M258.87,-350.92C270.28,-298.76 303.61,-177.92 378,-111 381.92,-107.47 386.27,-104.36 390.89,-101.61"/>
<polygon fill="midnightblue" stroke="midnightblue" points="255.39,-350.45 256.76,-360.96 262.24,-351.89 255.39,-350.45"/>
</g>
<!-- Node27 -->
<g id="node27" class="node">
<title>Node27</title>
<g id="a_node27"><a xlink:href="structCatch_1_1Matchers_1_1Vector_1_1UnorderedEqualsMatcher.html" target="_top" xlink:title=" ">
<polygon fill="white" stroke="black" points="384,-0.5 384,-41.5 548,-41.5 548,-0.5 384,-0.5"/>
<text text-anchor="start" x="392" y="-29.5" font-family="Helvetica,sans-Serif" font-size="10.00">Catch::Matchers::Vector</text>
<text text-anchor="start" x="392" y="-18.5" font-family="Helvetica,sans-Serif" font-size="10.00">::UnorderedEqualsMatcher</text>
<text text-anchor="middle" x="466" y="-7.5" font-family="Helvetica,sans-Serif" font-size="10.00">&lt; T, AllocComp, AllocMatch &gt;</text>
</a>
</g>
</g>
<!-- Node11&#45;&gt;Node27 -->
<g id="edge26" class="edge">
<title>Node11&#45;&gt;Node27</title>
<path fill="none" stroke="midnightblue" d="M256.43,-350.83C263.59,-290.47 289.97,-136.22 378,-51 381.67,-47.44 385.79,-44.31 390.18,-41.54"/>
<polygon fill="midnightblue" stroke="midnightblue" points="252.93,-350.64 255.31,-360.97 259.89,-351.41 252.93,-350.64"/>
</g>
<!-- Node19 -->
<g id="node19" class="node">
<title>Node19</title>
<g id="a_node19"><a xlink:href="structCatch_1_1Matchers_1_1StdString_1_1ContainsMatcher.html" target="_top" xlink:title=" ">
<polygon fill="white" stroke="black" points="590,-379 590,-409 736,-409 736,-379 590,-379"/>
<text text-anchor="start" x="598" y="-397" font-family="Helvetica,sans-Serif" font-size="10.00">Catch::Matchers::StdString</text>
<text text-anchor="middle" x="663" y="-386" font-family="Helvetica,sans-Serif" font-size="10.00">::ContainsMatcher</text>
</a>
</g>
</g>
<!-- Node18&#45;&gt;Node19 -->
<g id="edge18" class="edge">
<title>Node18&#45;&gt;Node19</title>
<path fill="none" stroke="midnightblue" d="M537.32,-345.22C542.99,-347.43 548.61,-349.7 554,-352 570.46,-359.02 573.47,-363.15 590,-370 597.55,-373.13 605.66,-376.15 613.63,-378.93"/>
<polygon fill="midnightblue" stroke="midnightblue" points="538.33,-341.87 527.74,-341.58 535.84,-348.41 538.33,-341.87"/>
</g>
<!-- Node20 -->
<g id="node20" class="node">
<title>Node20</title>
<g id="a_node20"><a xlink:href="structCatch_1_1Matchers_1_1StdString_1_1EndsWithMatcher.html" target="_top" xlink:title=" ">
<polygon fill="white" stroke="black" points="590,-330 590,-360 736,-360 736,-330 590,-330"/>
<text text-anchor="start" x="598" y="-348" font-family="Helvetica,sans-Serif" font-size="10.00">Catch::Matchers::StdString</text>
<text text-anchor="middle" x="663" y="-337" font-family="Helvetica,sans-Serif" font-size="10.00">::EndsWithMatcher</text>
</a>
</g>
</g>
<!-- Node18&#45;&gt;Node20 -->
<g id="edge19" class="edge">
<title>Node18&#45;&gt;Node20</title>
<path fill="none" stroke="midnightblue" d="M549.29,-331.13C562.79,-332.79 576.69,-334.5 589.91,-336.13"/>
<polygon fill="midnightblue" stroke="midnightblue" points="549.41,-327.62 539.06,-329.87 548.55,-334.56 549.41,-327.62"/>
</g>
<!-- Node21 -->
<g id="node21" class="node">
<title>Node21</title>
<g id="a_node21"><a xlink:href="structCatch_1_1Matchers_1_1StdString_1_1EqualsMatcher.html" target="_top" xlink:title=" ">
<polygon fill="white" stroke="black" points="590,-281 590,-311 736,-311 736,-281 590,-281"/>
<text text-anchor="start" x="598" y="-299" font-family="Helvetica,sans-Serif" font-size="10.00">Catch::Matchers::StdString</text>
<text text-anchor="middle" x="663" y="-288" font-family="Helvetica,sans-Serif" font-size="10.00">::EqualsMatcher</text>
</a>
</g>
</g>
<!-- Node18&#45;&gt;Node21 -->
<g id="edge20" class="edge">
<title>Node18&#45;&gt;Node21</title>
<path fill="none" stroke="midnightblue" d="M549.29,-310.45C562.79,-308.72 576.69,-306.94 589.91,-305.24"/>
<polygon fill="midnightblue" stroke="midnightblue" points="548.53,-307.02 539.06,-311.76 549.42,-313.96 548.53,-307.02"/>
</g>
<!-- Node22 -->
<g id="node22" class="node">
<title>Node22</title>
<g id="a_node22"><a xlink:href="structCatch_1_1Matchers_1_1StdString_1_1StartsWithMatcher.html" target="_top" xlink:title=" ">
<polygon fill="white" stroke="black" points="590,-232 590,-262 736,-262 736,-232 590,-232"/>
<text text-anchor="start" x="598" y="-250" font-family="Helvetica,sans-Serif" font-size="10.00">Catch::Matchers::StdString</text>
<text text-anchor="middle" x="663" y="-239" font-family="Helvetica,sans-Serif" font-size="10.00">::StartsWithMatcher</text>
</a>
</g>
</g>
<!-- Node18&#45;&gt;Node22 -->
<g id="edge21" class="edge">
<title>Node18&#45;&gt;Node22</title>
<path fill="none" stroke="midnightblue" d="M540.33,-296.76C544.99,-294.9 549.58,-292.97 554,-291 570.72,-283.54 573.25,-278.37 590,-271 597.24,-267.82 605.04,-264.81 612.74,-262.06"/>
<polygon fill="midnightblue" stroke="midnightblue" points="538.76,-293.61 530.7,-300.48 541.29,-300.14 538.76,-293.61"/>
</g>
</g>
</svg>
