<?xml version="1.0" encoding="UTF-8" standalone="no"?>
<!DOCTYPE svg PUBLIC "-//W3C//DTD SVG 1.1//EN"
 "http://www.w3.org/Graphics/SVG/1.1/DTD/svg11.dtd">
<!-- Generated by graphviz version 2.43.0 (0)
 -->
<!-- Title: SumCell Pages: 1 -->
<svg width="908pt" height="296pt"
 viewBox="0.00 0.00 908.00 295.88" xmlns="http://www.w3.org/2000/svg" xmlns:xlink="http://www.w3.org/1999/xlink">
<g id="graph0" class="graph" transform="scale(1 1) rotate(0) translate(4 291.88)">
<title>SumCell</title>
<!-- Node1 -->
<g id="node1" class="node">
<title>Node1</title>
<g id="a_node1"><a xlink:title=" ">
<polygon fill="#999999" stroke="#666666" points="900,-194.88 843,-194.88 843,-175.88 900,-175.88 900,-194.88"/>
<text text-anchor="middle" x="871.5" y="-182.88" font-family="Helvetica,sans-Serif" font-size="10.00">SumCell</text>
</a>
</g>
</g>
<!-- Node2 -->
<g id="node2" class="node">
<title>Node2</title>
<g id="a_node2"><a xlink:href="classCell.html" target="_top" xlink:title="The base class all cell types the worksheet can consist of are derived from.">
<polygon fill="white" stroke="#666666" points="806,-194.88 771,-194.88 771,-175.88 806,-175.88 806,-194.88"/>
<text text-anchor="middle" x="788.5" y="-182.88" font-family="Helvetica,sans-Serif" font-size="10.00">Cell</text>
</a>
</g>
</g>
<!-- Node2&#45;&gt;Node1 -->
<g id="edge1" class="edge">
<title>Node2&#45;&gt;Node1</title>
<path fill="none" stroke="#63b8ff" d="M816.44,-185.38C824.94,-185.38 834.35,-185.38 842.9,-185.38"/>
<polygon fill="#63b8ff" stroke="#63b8ff" points="816.28,-181.88 806.28,-185.38 816.28,-188.88 816.28,-181.88"/>
</g>
<!-- Node3 -->
<g id="node3" class="node">
<title>Node3</title>
<g id="a_node3"><a xlink:href="classObserved.html" target="_top" xlink:title="Objects deriving from this class can be observed by the CellPtr.">
<polygon fill="white" stroke="#666666" points="573.5,-287.88 510.5,-287.88 510.5,-268.88 573.5,-268.88 573.5,-287.88"/>
<text text-anchor="middle" x="542" y="-275.88" font-family="Helvetica,sans-Serif" font-size="10.00">Observed</text>
</a>
</g>
</g>
<!-- Node3&#45;&gt;Node2 -->
<g id="edge2" class="edge">
<title>Node3&#45;&gt;Node2</title>
<path fill="none" stroke="#63b8ff" d="M583.64,-283.9C629.07,-287.85 702.83,-287.39 753,-252.38 772.74,-238.61 781.93,-210.02 785.53,-195.03"/>
<polygon fill="#63b8ff" stroke="#63b8ff" points="583.86,-280.41 573.56,-282.91 583.17,-287.37 583.86,-280.41"/>
</g>
<!-- Node4 -->
<g id="node4" class="node">
<title>Node4</title>
<g id="a_node4"><a xlink:href="classCellPtr.html" target="_top" xlink:title=" ">
<polygon fill="white" stroke="#666666" points="601.5,-213.88 482.5,-213.88 482.5,-194.88 601.5,-194.88 601.5,-213.88"/>
<text text-anchor="middle" x="542" y="-201.88" font-family="Helvetica,sans-Serif" font-size="10.00">CellPtr&lt; GroupCell &gt;</text>
</a>
</g>
</g>
<!-- Node4&#45;&gt;Node2 -->
<g id="edge3" class="edge">
<title>Node4&#45;&gt;Node2</title>
<path fill="none" stroke="#9a32cd" stroke-dasharray="5,2" d="M611.53,-199.06C666.11,-194.82 738.52,-189.19 770.77,-186.68"/>
<polygon fill="#9a32cd" stroke="#9a32cd" points="611.26,-195.57 601.56,-199.83 611.8,-202.55 611.26,-195.57"/>
<text text-anchor="middle" x="694.5" y="-199.38" font-family="Helvetica,sans-Serif" font-size="10.00"> m_group</text>
</g>
<!-- Node5 -->
<g id="node5" class="node">
<title>Node5</title>
<g id="a_node5"><a xlink:href="classCellPtrBase.html" target="_top" xlink:title="An implementation detail for the type&#45;specific templated cell pointers.">
<polygon fill="white" stroke="#666666" points="298.5,-253.88 225.5,-253.88 225.5,-234.88 298.5,-234.88 298.5,-253.88"/>
<text text-anchor="middle" x="262" y="-241.88" font-family="Helvetica,sans-Serif" font-size="10.00">CellPtrBase</text>
</a>
</g>
</g>
<!-- Node5&#45;&gt;Node4 -->
<g id="edge4" class="edge">
<title>Node5&#45;&gt;Node4</title>
<path fill="none" stroke="#63b8ff" d="M308.77,-237.8C356.22,-230.97 430.58,-220.27 482.32,-212.82"/>
<polygon fill="#63b8ff" stroke="#63b8ff" points="308.17,-234.35 298.77,-239.23 309.17,-241.27 308.17,-234.35"/>
</g>
<!-- Node6 -->
<g id="node6" class="node">
<title>Node6</title>
<g id="a_node6"><a xlink:href="classCellPtr.html" target="_top" xlink:title=" ">
<polygon fill="white" stroke="#666666" points="587,-250.88 497,-250.88 497,-231.88 587,-231.88 587,-250.88"/>
<text text-anchor="middle" x="542" y="-238.88" font-family="Helvetica,sans-Serif" font-size="10.00">CellPtr&lt; Cell &gt;</text>
</a>
</g>
</g>
<!-- Node5&#45;&gt;Node6 -->
<g id="edge6" class="edge">
<title>Node5&#45;&gt;Node6</title>
<path fill="none" stroke="#63b8ff" d="M309.06,-243.89C361.12,-243.32 445.3,-242.41 496.65,-241.86"/>
<polygon fill="#63b8ff" stroke="#63b8ff" points="308.74,-240.39 298.77,-244 308.81,-247.39 308.74,-240.39"/>
</g>
<!-- Node6&#45;&gt;Node2 -->
<g id="edge5" class="edge">
<title>Node6&#45;&gt;Node2</title>
<path fill="none" stroke="#9a32cd" stroke-dasharray="5,2" d="M597.43,-241C641.02,-238.98 702.94,-232.19 753,-211.38 762.14,-207.58 771.03,-200.79 777.49,-195.1"/>
<polygon fill="#9a32cd" stroke="#9a32cd" points="597.17,-237.51 587.31,-241.4 597.44,-244.51 597.17,-237.51"/>
<text text-anchor="middle" x="694.5" y="-240.38" font-family="Helvetica,sans-Serif" font-size="10.00"> m_nextToDraw</text>
</g>
<!-- Node7 -->
<g id="node7" class="node">
<title>Node7</title>
<g id="a_node7"><a xlink:href="classConfiguration.html" target="_top" xlink:title="The configuration storage for the current worksheet.">
<polygon fill="white" stroke="#666666" points="583,-176.88 501,-176.88 501,-157.88 583,-157.88 583,-176.88"/>
<text text-anchor="middle" x="542" y="-164.88" font-family="Helvetica,sans-Serif" font-size="10.00">Configuration</text>
</a>
</g>
</g>
<!-- Node7&#45;&gt;Node2 -->
<g id="edge7" class="edge">
<title>Node7&#45;&gt;Node2</title>
<path fill="none" stroke="#9a32cd" stroke-dasharray="5,2" d="M593.2,-162.61C636.14,-159.82 699.33,-158.82 753,-170.38 759,-171.68 765.25,-174.04 770.75,-176.52"/>
<polygon fill="#9a32cd" stroke="#9a32cd" points="592.73,-159.13 583,-163.33 593.23,-166.11 592.73,-159.13"/>
<text text-anchor="middle" x="694.5" y="-173.38" font-family="Helvetica,sans-Serif" font-size="10.00"> m_configuration</text>
</g>
<!-- Node8 -->
<g id="node8" class="node">
<title>Node8</title>
<g id="a_node8"><a xlink:href="structConfiguration_1_1PerformanceStats.html" target="_top" xlink:title=" ">
<polygon fill="white" stroke="#bfbfbf" points="337,-176.38 187,-176.38 187,-146.38 337,-146.38 337,-176.38"/>
<text text-anchor="start" x="195" y="-164.38" font-family="Helvetica,sans-Serif" font-size="10.00">Configuration::Performance</text>
<text text-anchor="middle" x="262" y="-153.38" font-family="Helvetica,sans-Serif" font-size="10.00">Stats</text>
</a>
</g>
</g>
<!-- Node8&#45;&gt;Node7 -->
<g id="edge8" class="edge">
<title>Node8&#45;&gt;Node7</title>
<path fill="none" stroke="#9a32cd" stroke-dasharray="5,2" d="M347.36,-161.72C378.93,-162 415.12,-162.5 448,-163.38 465.29,-163.85 484.37,-164.62 500.73,-165.37"/>
<polygon fill="#9a32cd" stroke="#9a32cd" points="347.3,-158.22 337.28,-161.64 347.25,-165.22 347.3,-158.22"/>
<text text-anchor="middle" x="401.5" y="-166.38" font-family="Helvetica,sans-Serif" font-size="10.00"> g_stats</text>
</g>
<!-- Node9 -->
<g id="node9" class="node">
<title>Node9</title>
<g id="a_node9"><a xlink:href="classStyle.html" target="_top" xlink:title="Text Style Definition.">
<polygon fill="white" stroke="#666666" points="282.5,-213.88 241.5,-213.88 241.5,-194.88 282.5,-194.88 282.5,-213.88"/>
<text text-anchor="middle" x="262" y="-201.88" font-family="Helvetica,sans-Serif" font-size="10.00">Style</text>
</a>
</g>
</g>
<!-- Node9&#45;&gt;Node7 -->
<g id="edge9" class="edge">
<title>Node9&#45;&gt;Node7</title>
<path fill="none" stroke="#9a32cd" stroke-dasharray="5,2" d="M292.73,-200.43C342.94,-193.74 444.55,-180.22 500.97,-172.71"/>
<polygon fill="#9a32cd" stroke="#9a32cd" points="292,-196.99 282.55,-201.78 292.92,-203.93 292,-196.99"/>
<text text-anchor="middle" x="401.5" y="-193.38" font-family="Helvetica,sans-Serif" font-size="10.00"> m_styles</text>
</g>
<!-- Node10 -->
<g id="node10" class="node">
<title>Node10</title>
<g id="a_node10"><a xlink:href="classAFontSize.html" target="_top" xlink:title="A Type&#45;Safe Fixed&#45;Point Font Size.">
<polygon fill="white" stroke="#666666" points="65,-142.88 0,-142.88 0,-123.88 65,-123.88 65,-142.88"/>
<text text-anchor="middle" x="32.5" y="-130.88" font-family="Helvetica,sans-Serif" font-size="10.00">AFontSize</text>
</a>
</g>
</g>
<!-- Node10&#45;&gt;Node2 -->
<g id="edge12" class="edge">
<title>Node10&#45;&gt;Node2</title>
<path fill="none" stroke="#9a32cd" stroke-dasharray="5,2" d="M75.26,-125.09C189.12,-104.48 512.52,-59.25 753,-156.38 763.3,-160.54 772.79,-169.01 779.2,-175.73"/>
<polygon fill="#9a32cd" stroke="#9a32cd" points="74.42,-121.69 65.22,-126.95 75.69,-128.57 74.42,-121.69"/>
<text text-anchor="middle" x="401.5" y="-111.38" font-family="Helvetica,sans-Serif" font-size="10.00"> m_fontSize</text>
<text text-anchor="middle" x="401.5" y="-100.38" font-family="Helvetica,sans-Serif" font-size="10.00">m_fontSize_Scaled</text>
</g>
<!-- Node10&#45;&gt;Node9 -->
<g id="edge10" class="edge">
<title>Node10&#45;&gt;Node9</title>
<path fill="none" stroke="#9a32cd" stroke-dasharray="5,2" d="M69.15,-146.31C100.1,-157.33 146.24,-173.26 187,-185.38 205.31,-190.83 226.43,-196.16 241.41,-199.78"/>
<polygon fill="#9a32cd" stroke="#9a32cd" points="70.25,-142.99 59.65,-142.91 67.89,-149.58 70.25,-142.99"/>
<text text-anchor="middle" x="126" y="-181.38" font-family="Helvetica,sans-Serif" font-size="10.00"> Default_FontSize</text>
</g>
<!-- Node11 -->
<g id="node11" class="node">
<title>Node11</title>
<g id="a_node11"><a xlink:href="classCachedInteger.html" target="_top" xlink:title=" ">
<polygon fill="white" stroke="#666666" points="618,-34.88 466,-34.88 466,-15.88 618,-15.88 618,-34.88"/>
<text text-anchor="middle" x="542" y="-22.88" font-family="Helvetica,sans-Serif" font-size="10.00">CachedInteger&lt; wxCoord &gt;</text>
</a>
</g>
</g>
<!-- Node11&#45;&gt;Node2 -->
<g id="edge11" class="edge">
<title>Node11&#45;&gt;Node2</title>
<path fill="none" stroke="#9a32cd" stroke-dasharray="5,2" d="M579.89,-12.99C625.81,-0.09 704.15,13.2 753,-26.38 776.48,-45.41 784.81,-143.73 786.92,-175.48"/>
<polygon fill="#9a32cd" stroke="#9a32cd" points="578.66,-9.7 570.05,-15.88 580.63,-16.42 578.66,-9.7"/>
<text text-anchor="middle" x="694.5" y="-95.38" font-family="Helvetica,sans-Serif" font-size="10.00"> m_cachedCenterList</text>
<text text-anchor="middle" x="694.5" y="-84.38" font-family="Helvetica,sans-Serif" font-size="10.00">m_cachedLineWidth</text>
<text text-anchor="middle" x="694.5" y="-73.38" font-family="Helvetica,sans-Serif" font-size="10.00">m_cachedMaxDrop</text>
<text text-anchor="middle" x="694.5" y="-62.38" font-family="Helvetica,sans-Serif" font-size="10.00">m_cachedSumOfWidths</text>
<text text-anchor="middle" x="694.5" y="-51.38" font-family="Helvetica,sans-Serif" font-size="10.00">m_center</text>
<text text-anchor="middle" x="694.5" y="-40.38" font-family="Helvetica,sans-Serif" font-size="10.00">m_height</text>
<text text-anchor="middle" x="694.5" y="-29.38" font-family="Helvetica,sans-Serif" font-size="10.00">m_width</text>
</g>
</g>
</svg>
