<?xml version="1.0" encoding="UTF-8" standalone="no"?>
<!DOCTYPE svg PUBLIC "-//W3C//DTD SVG 1.1//EN"
 "http://www.w3.org/Graphics/SVG/1.1/DTD/svg11.dtd">
<!-- Generated by graphviz version 2.43.0 (0)
 -->
<!-- Title: TextCell Pages: 1 -->
<svg width="383pt" height="192pt"
 viewBox="0.00 0.00 383.00 192.00" xmlns="http://www.w3.org/2000/svg" xmlns:xlink="http://www.w3.org/1999/xlink">
<g id="graph0" class="graph" transform="scale(1 1) rotate(0) translate(4 188)">
<title>TextCell</title>
<!-- Node1 -->
<g id="node1" class="node">
<title>Node1</title>
<g id="a_node1"><a xlink:title="A Text cell.">
<polygon fill="#999999" stroke="#666666" points="185.5,-74 129.5,-74 129.5,-55 185.5,-55 185.5,-74"/>
<text text-anchor="middle" x="157.5" y="-62" font-family="Helvetica,sans-Serif" font-size="10.00">TextCell</text>
</a>
</g>
</g>
<!-- Node4 -->
<g id="node4" class="node">
<title>Node4</title>
<g id="a_node4"><a xlink:href="classDigitCell.html" target="_top" xlink:title="A Text cell that display a digit of a more&#45;than&#45;one&#45;line&#45;wide number.">
<polygon fill="white" stroke="#666666" points="59,-19 0,-19 0,0 59,0 59,-19"/>
<text text-anchor="middle" x="29.5" y="-7" font-family="Helvetica,sans-Serif" font-size="10.00">DigitCell</text>
</a>
</g>
</g>
<!-- Node1&#45;&gt;Node4 -->
<g id="edge3" class="edge">
<title>Node1&#45;&gt;Node4</title>
<path fill="none" stroke="#63b8ff" d="M127.38,-51.03C103.71,-41.23 71.35,-27.83 50.44,-19.17"/>
<polygon fill="#63b8ff" stroke="#63b8ff" points="126.36,-54.39 136.93,-54.98 129.03,-47.93 126.36,-54.39"/>
</g>
<!-- Node5 -->
<g id="node5" class="node">
<title>Node5</title>
<g id="a_node5"><a xlink:href="classLabelCell.html" target="_top" xlink:title="A label cell.">
<polygon fill="white" stroke="#666666" points="139.5,-19 77.5,-19 77.5,0 139.5,0 139.5,-19"/>
<text text-anchor="middle" x="108.5" y="-7" font-family="Helvetica,sans-Serif" font-size="10.00">LabelCell</text>
</a>
</g>
</g>
<!-- Node1&#45;&gt;Node5 -->
<g id="edge4" class="edge">
<title>Node1&#45;&gt;Node5</title>
<path fill="none" stroke="#63b8ff" d="M142.47,-47.24C133.88,-37.95 123.46,-26.68 116.44,-19.09"/>
<polygon fill="#63b8ff" stroke="#63b8ff" points="140.05,-49.78 149.41,-54.75 145.19,-45.03 140.05,-49.78"/>
</g>
<!-- Node6 -->
<g id="node6" class="node">
<title>Node6</title>
<g id="a_node6"><a xlink:href="classLongNumberCell.html" target="_top" xlink:title="A cell containing a long number.">
<polygon fill="white" stroke="#666666" points="255.5,-19 157.5,-19 157.5,0 255.5,0 255.5,-19"/>
<text text-anchor="middle" x="206.5" y="-7" font-family="Helvetica,sans-Serif" font-size="10.00">LongNumberCell</text>
</a>
</g>
</g>
<!-- Node1&#45;&gt;Node6 -->
<g id="edge5" class="edge">
<title>Node1&#45;&gt;Node6</title>
<path fill="none" stroke="#63b8ff" d="M172.53,-47.24C181.12,-37.95 191.54,-26.68 198.56,-19.09"/>
<polygon fill="#63b8ff" stroke="#63b8ff" points="169.81,-45.03 165.59,-54.75 174.95,-49.78 169.81,-45.03"/>
</g>
<!-- Node7 -->
<g id="node7" class="node">
<title>Node7</title>
<g id="a_node7"><a xlink:href="classVisiblyInvalidCell.html" target="_top" xlink:title="A visibly invalid cell.">
<polygon fill="white" stroke="#666666" points="375,-19 274,-19 274,0 375,0 375,-19"/>
<text text-anchor="middle" x="324.5" y="-7" font-family="Helvetica,sans-Serif" font-size="10.00">VisiblyInvalidCell</text>
</a>
</g>
</g>
<!-- Node1&#45;&gt;Node7 -->
<g id="edge6" class="edge">
<title>Node1&#45;&gt;Node7</title>
<path fill="none" stroke="#63b8ff" d="M193.96,-51.93C225.16,-42.03 269.34,-28.01 297.46,-19.08"/>
<polygon fill="#63b8ff" stroke="#63b8ff" points="192.8,-48.62 184.33,-54.98 194.92,-55.3 192.8,-48.62"/>
</g>
<!-- Node2 -->
<g id="node2" class="node">
<title>Node2</title>
<g id="a_node2"><a xlink:href="classCell.html" target="_top" xlink:title="The base class all cell types the worksheet can consist of are derived from.">
<polygon fill="white" stroke="#666666" points="175,-129 140,-129 140,-110 175,-110 175,-129"/>
<text text-anchor="middle" x="157.5" y="-117" font-family="Helvetica,sans-Serif" font-size="10.00">Cell</text>
</a>
</g>
</g>
<!-- Node2&#45;&gt;Node1 -->
<g id="edge1" class="edge">
<title>Node2&#45;&gt;Node1</title>
<path fill="none" stroke="#63b8ff" d="M157.5,-99.66C157.5,-90.93 157.5,-80.99 157.5,-74.09"/>
<polygon fill="#63b8ff" stroke="#63b8ff" points="154,-99.75 157.5,-109.75 161,-99.75 154,-99.75"/>
</g>
<!-- Node3 -->
<g id="node3" class="node">
<title>Node3</title>
<g id="a_node3"><a xlink:href="classObserved.html" target="_top" xlink:title="Objects deriving from this class can be observed by the CellPtr.">
<polygon fill="white" stroke="#666666" points="189,-184 126,-184 126,-165 189,-165 189,-184"/>
<text text-anchor="middle" x="157.5" y="-172" font-family="Helvetica,sans-Serif" font-size="10.00">Observed</text>
</a>
</g>
</g>
<!-- Node3&#45;&gt;Node2 -->
<g id="edge2" class="edge">
<title>Node3&#45;&gt;Node2</title>
<path fill="none" stroke="#63b8ff" d="M157.5,-154.66C157.5,-145.93 157.5,-135.99 157.5,-129.09"/>
<polygon fill="#63b8ff" stroke="#63b8ff" points="154,-154.75 157.5,-164.75 161,-154.75 154,-154.75"/>
</g>
</g>
</svg>
