<?xml version="1.0" encoding="UTF-8" standalone="no"?>
<!DOCTYPE svg PUBLIC "-//W3C//DTD SVG 1.1//EN"
 "http://www.w3.org/Graphics/SVG/1.1/DTD/svg11.dtd">
<!-- Generated by graphviz version 2.43.0 (0)
 -->
<!-- Title: CellPtrBase Pages: 1 -->
<svg width="236pt" height="180pt"
 viewBox="0.00 0.00 236.00 180.00" xmlns="http://www.w3.org/2000/svg" xmlns:xlink="http://www.w3.org/1999/xlink">
<g id="graph0" class="graph" transform="scale(1 1) rotate(0) translate(4 176)">
<title>CellPtrBase</title>
<polygon fill="white" stroke="transparent" points="-4,4 -4,-176 232,-176 232,4 -4,4"/>
<!-- Node1 -->
<g id="node1" class="node">
<title>Node1</title>
<g id="a_node1"><a xlink:title="An implementation detail for the type&#45;specific templated cell pointers.">
<polygon fill="#bfbfbf" stroke="black" points="0,-76.5 0,-95.5 73,-95.5 73,-76.5 0,-76.5"/>
<text text-anchor="middle" x="36.5" y="-83.5" font-family="Helvetica,sans-Serif" font-size="10.00">CellPtrBase</text>
</a>
</g>
</g>
<!-- Node2 -->
<g id="node2" class="node">
<title>Node2</title>
<g id="a_node2"><a xlink:href="classCellPtr.html" target="_top" xlink:title=" ">
<polygon fill="white" stroke="black" points="123.5,-152.5 123.5,-171.5 213.5,-171.5 213.5,-152.5 123.5,-152.5"/>
<text text-anchor="middle" x="168.5" y="-159.5" font-family="Helvetica,sans-Serif" font-size="10.00">CellPtr&lt; Cell &gt;</text>
</a>
</g>
</g>
<!-- Node1&#45;&gt;Node2 -->
<g id="edge1" class="edge">
<title>Node1&#45;&gt;Node2</title>
<path fill="none" stroke="midnightblue" d="M54.99,-102.94C68.74,-115.47 88.85,-132.16 109,-143 115.87,-146.69 123.57,-149.82 131.08,-152.42"/>
<polygon fill="midnightblue" stroke="midnightblue" points="57.02,-100.04 47.32,-95.77 52.24,-105.15 57.02,-100.04"/>
</g>
<!-- Node3 -->
<g id="node3" class="node">
<title>Node3</title>
<g id="a_node3"><a xlink:href="classCellPtr.html" target="_top" xlink:title=" ">
<polygon fill="white" stroke="black" points="109,-114.5 109,-133.5 228,-133.5 228,-114.5 109,-114.5"/>
<text text-anchor="middle" x="168.5" y="-121.5" font-family="Helvetica,sans-Serif" font-size="10.00">CellPtr&lt; GroupCell &gt;</text>
</a>
</g>
</g>
<!-- Node1&#45;&gt;Node3 -->
<g id="edge2" class="edge">
<title>Node1&#45;&gt;Node3</title>
<path fill="none" stroke="midnightblue" d="M80.38,-98.54C98.07,-103.7 118.23,-109.6 134.71,-114.41"/>
<polygon fill="midnightblue" stroke="midnightblue" points="80.88,-95.04 70.3,-95.59 78.92,-101.75 80.88,-95.04"/>
</g>
<!-- Node4 -->
<g id="node4" class="node">
<title>Node4</title>
<g id="a_node4"><a xlink:href="classCellPtr.html" target="_top" xlink:title=" ">
<polygon fill="white" stroke="black" points="109,-76.5 109,-95.5 228,-95.5 228,-76.5 109,-76.5"/>
<text text-anchor="middle" x="168.5" y="-83.5" font-family="Helvetica,sans-Serif" font-size="10.00">CellPtr&lt; EditorCell &gt;</text>
</a>
</g>
</g>
<!-- Node1&#45;&gt;Node4 -->
<g id="edge3" class="edge">
<title>Node1&#45;&gt;Node4</title>
<path fill="none" stroke="midnightblue" d="M83.13,-86C91.34,-86 99.99,-86 108.51,-86"/>
<polygon fill="midnightblue" stroke="midnightblue" points="83.02,-82.5 73.02,-86 83.02,-89.5 83.02,-82.5"/>
</g>
<!-- Node5 -->
<g id="node5" class="node">
<title>Node5</title>
<g id="a_node5"><a xlink:href="classCellPtr.html" target="_top" xlink:title=" ">
<polygon fill="white" stroke="black" points="113.5,-38.5 113.5,-57.5 223.5,-57.5 223.5,-38.5 113.5,-38.5"/>
<text text-anchor="middle" x="168.5" y="-45.5" font-family="Helvetica,sans-Serif" font-size="10.00">CellPtr&lt; TextCell &gt;</text>
</a>
</g>
</g>
<!-- Node1&#45;&gt;Node5 -->
<g id="edge4" class="edge">
<title>Node1&#45;&gt;Node5</title>
<path fill="none" stroke="midnightblue" d="M80.38,-73.46C98.07,-68.3 118.23,-62.4 134.71,-57.59"/>
<polygon fill="midnightblue" stroke="midnightblue" points="78.92,-70.25 70.3,-76.41 80.88,-76.96 78.92,-70.25"/>
</g>
<!-- Node6 -->
<g id="node6" class="node">
<title>Node6</title>
<g id="a_node6"><a xlink:href="classCellPtr.html" target="_top" xlink:title="A weak non&#45;owning pointer that becomes null whenever the observed object is destroyed.">
<polygon fill="white" stroke="black" points="130,-0.5 130,-19.5 207,-19.5 207,-0.5 130,-0.5"/>
<text text-anchor="middle" x="168.5" y="-7.5" font-family="Helvetica,sans-Serif" font-size="10.00">CellPtr&lt; T &gt;</text>
</a>
</g>
</g>
<!-- Node1&#45;&gt;Node6 -->
<g id="edge5" class="edge">
<title>Node1&#45;&gt;Node6</title>
<path fill="none" stroke="midnightblue" d="M54.99,-69.06C68.74,-56.53 88.85,-39.84 109,-29 115.87,-25.31 123.57,-22.18 131.08,-19.58"/>
<polygon fill="midnightblue" stroke="midnightblue" points="52.24,-66.85 47.32,-76.23 57.02,-71.96 52.24,-66.85"/>
</g>
</g>
</svg>
