<?xml version="1.0" encoding="UTF-8" standalone="no"?>
<!DOCTYPE svg PUBLIC "-//W3C//DTD SVG 1.1//EN"
 "http://www.w3.org/Graphics/SVG/1.1/DTD/svg11.dtd">
<!-- Generated by graphviz version 2.43.0 (0)
 -->
<!-- Title: Worksheet Pages: 1 -->
<!--zoomable 219 -->
<svg id="main" version="1.1" xmlns="http://www.w3.org/2000/svg" xmlns:xlink="http://www.w3.org/1999/xlink" xml:space="preserve" onload="init(evt)">
<style type="text/css"><![CDATA[
.edge:hover path { stroke: red; }
.edge:hover polygon { stroke: red; fill: red; }
]]></style>
<script type="text/javascript"><![CDATA[
var edges = document.getElementsByTagName('g');
if (edges && edges.length) {
  for (var i=0;i<edges.length;i++) {
    if (edges[i].id.substr(0,4)=='edge') {
      edges[i].setAttribute('class','edge');
    }
  }
}
]]></script>
        <defs>
                <circle id="rim" cx="0" cy="0" r="7"/>
                <circle id="rim2" cx="0" cy="0" r="3.5"/>
                <g id="zoomPlus">
                        <use xlink:href="#rim" fill="#404040">
                                <set attributeName="fill" to="#808080" begin="zoomplus.mouseover" end="zoomplus.mouseout"/>
                        </use>
                        <path d="M-4,0h8M0,-4v8" fill="none" stroke="white" stroke-width="1.5" pointer-events="none"/>
                </g>
                <g id="zoomMin">
                        <use xlink:href="#rim" fill="#404040">
                                <set attributeName="fill" to="#808080" begin="zoomminus.mouseover" end="zoomminus.mouseout"/>
                        </use>
                        <path d="M-4,0h8" fill="none" stroke="white" stroke-width="1.5" pointer-events="none"/>
                </g>
                <g id="dirArrow">
                        <path fill="none" stroke="white" stroke-width="1.5" d="M0,-3.0v7 M-2.5,-0.5L0,-3.0L2.5,-0.5"/>
                </g>
               <g id="resetDef">
                       <use xlink:href="#rim2" fill="#404040">
                               <set attributeName="fill" to="#808080" begin="reset.mouseover" end="reset.mouseout"/>
                       </use>
               </g>
        </defs>

<script type="text/javascript">
var viewWidth = 658;
var viewHeight = 219;
var sectionId = 'dynsection-1';
</script>
<script xlink:href="svgpan.js"/>
<svg id="graph" class="graph">
<g id="viewport">
<title>Worksheet</title>
<!-- Node1 -->
<g id="node1" class="node">
<title>Node1</title>
<g id="a_node1"><a xlink:title="The canvas that contains the spreadsheet the whole program is about.">
<polygon fill="#999999" stroke="#666666" points="650,-110 582,-110 582,-91 650,-91 650,-110"/>
<text text-anchor="middle" x="616" y="-98" font-family="Helvetica,sans-Serif" font-size="10.00">Worksheet</text>
</a>
</g>
</g>
<!-- Node2 -->
<g id="node2" class="node">
<title>Node2</title>
<g id="a_node2"><a xlink:href="classwxScrolled.html" target="_top" xlink:title=" ">
<polygon fill="white" stroke="#bfbfbf" points="436,-209 290,-209 290,-190 436,-190 436,-209"/>
<text text-anchor="middle" x="363" y="-197" font-family="Helvetica,sans-Serif" font-size="10.00">wxScrolled&lt; wxWindow &gt;</text>
</a>
</g>
</g>
<!-- Node2&#45;&gt;Node1 -->
<g id="edge1" class="edge">
<title>Node2&#45;&gt;Node1</title>
<path fill="none" stroke="#63b8ff" d="M432.77,-209.8C473.74,-212.44 525.16,-209.32 564,-185.5 592.31,-168.14 606.92,-128.64 612.4,-110.25"/>
<polygon fill="#63b8ff" stroke="#63b8ff" points="432.83,-206.3 422.59,-209.02 432.29,-213.28 432.83,-206.3"/>
</g>
<!-- Node3 -->
<g id="node3" class="node">
<title>Node3</title>
<g id="a_node3"><a xlink:href="classCellPtr.html" target="_top" xlink:title=" ">
<polygon fill="white" stroke="#666666" points="422.5,-167 303.5,-167 303.5,-148 422.5,-148 422.5,-167"/>
<text text-anchor="middle" x="363" y="-155" font-family="Helvetica,sans-Serif" font-size="10.00">CellPtr&lt; GroupCell &gt;</text>
</a>
</g>
</g>
<!-- Node3&#45;&gt;Node1 -->
<g id="edge2" class="edge">
<title>Node3&#45;&gt;Node1</title>
<path fill="none" stroke="#9a32cd" stroke-dasharray="5,2" d="M432.53,-152.98C471.77,-148.98 521.51,-141.48 564,-127.5 576.75,-123.3 590.13,-116.1 599.98,-110.19"/>
<polygon fill="#9a32cd" stroke="#9a32cd" points="432.15,-149.5 422.53,-153.95 432.82,-156.47 432.15,-149.5"/>
<text text-anchor="middle" x="509" y="-174.5" font-family="Helvetica,sans-Serif" font-size="10.00"> m_hCaretPositionEnd</text>
<text text-anchor="middle" x="509" y="-163.5" font-family="Helvetica,sans-Serif" font-size="10.00">m_hCaretPositionStart</text>
<text text-anchor="middle" x="509" y="-152.5" font-family="Helvetica,sans-Serif" font-size="10.00">m_recalculateStart</text>
</g>
<!-- Node4 -->
<g id="node4" class="node">
<title>Node4</title>
<g id="a_node4"><a xlink:href="classCellPtrBase.html" target="_top" xlink:title="An implementation detail for the type&#45;specific templated cell pointers.">
<polygon fill="white" stroke="#666666" points="180,-167 107,-167 107,-148 180,-148 180,-167"/>
<text text-anchor="middle" x="143.5" y="-155" font-family="Helvetica,sans-Serif" font-size="10.00">CellPtrBase</text>
</a>
</g>
</g>
<!-- Node4&#45;&gt;Node3 -->
<g id="edge3" class="edge">
<title>Node4&#45;&gt;Node3</title>
<path fill="none" stroke="#63b8ff" d="M190.67,-157.5C223.58,-157.5 268.08,-157.5 303.48,-157.5"/>
<polygon fill="#63b8ff" stroke="#63b8ff" points="190.42,-154 180.42,-157.5 190.42,-161 190.42,-154"/>
</g>
<!-- Node5 -->
<g id="node5" class="node">
<title>Node5</title>
<g id="a_node5"><a xlink:href="classAutoComplete.html" target="_top" xlink:title=" ">
<polygon fill="white" stroke="#bfbfbf" points="406,-130 320,-130 320,-111 406,-111 406,-130"/>
<text text-anchor="middle" x="363" y="-118" font-family="Helvetica,sans-Serif" font-size="10.00">AutoComplete</text>
</a>
</g>
</g>
<!-- Node5&#45;&gt;Node1 -->
<g id="edge4" class="edge">
<title>Node5&#45;&gt;Node1</title>
<path fill="none" stroke="#9a32cd" stroke-dasharray="5,2" d="M416.25,-116.34C466.01,-112.37 539.42,-106.52 581.69,-103.15"/>
<polygon fill="#9a32cd" stroke="#9a32cd" points="415.7,-112.87 406.01,-117.15 416.26,-119.85 415.7,-112.87"/>
<text text-anchor="middle" x="509" y="-115.5" font-family="Helvetica,sans-Serif" font-size="10.00"> m_autocomplete</text>
</g>
<!-- Node6 -->
<g id="node6" class="node">
<title>Node6</title>
<g id="a_node6"><a xlink:title=" ">
<polygon fill="white" stroke="#bfbfbf" points="186,-130 101,-130 101,-111 186,-111 186,-130"/>
<text text-anchor="middle" x="143.5" y="-118" font-family="Helvetica,sans-Serif" font-size="10.00">wxEvtHandler</text>
</a>
</g>
</g>
<!-- Node6&#45;&gt;Node5 -->
<g id="edge5" class="edge">
<title>Node6&#45;&gt;Node5</title>
<path fill="none" stroke="#63b8ff" d="M196.45,-120.5C234.14,-120.5 284.48,-120.5 319.72,-120.5"/>
<polygon fill="#63b8ff" stroke="#63b8ff" points="196.18,-117 186.18,-120.5 196.18,-124 196.18,-117"/>
</g>
<!-- Node7 -->
<g id="node7" class="node">
<title>Node7</title>
<g id="a_node7"><a xlink:href="classFindReplaceDialog.html" target="_top" xlink:title="The find+replace dialog.">
<polygon fill="white" stroke="#666666" points="416.5,-93 309.5,-93 309.5,-74 416.5,-74 416.5,-93"/>
<text text-anchor="middle" x="363" y="-81" font-family="Helvetica,sans-Serif" font-size="10.00">FindReplaceDialog</text>
</a>
</g>
</g>
<!-- Node7&#45;&gt;Node1 -->
<g id="edge6" class="edge">
<title>Node7&#45;&gt;Node1</title>
<path fill="none" stroke="#9a32cd" stroke-dasharray="5,2" d="M426.61,-79.05C466.22,-77.4 518.39,-77.4 564,-84.5 572.53,-85.83 581.59,-88.3 589.67,-90.92"/>
<polygon fill="#9a32cd" stroke="#9a32cd" points="426.39,-75.55 416.56,-79.51 426.71,-82.55 426.39,-75.55"/>
<text text-anchor="middle" x="509" y="-87.5" font-family="Helvetica,sans-Serif" font-size="10.00"> m_findDialog</text>
</g>
<!-- Node8 -->
<g id="node8" class="node">
<title>Node8</title>
<g id="a_node8"><a xlink:title=" ">
<polygon fill="white" stroke="#bfbfbf" points="174.5,-93 112.5,-93 112.5,-74 174.5,-74 174.5,-93"/>
<text text-anchor="middle" x="143.5" y="-81" font-family="Helvetica,sans-Serif" font-size="10.00">wxDialog</text>
</a>
</g>
</g>
<!-- Node8&#45;&gt;Node7 -->
<g id="edge7" class="edge">
<title>Node8&#45;&gt;Node7</title>
<path fill="none" stroke="#63b8ff" d="M185.1,-83.5C220.21,-83.5 271.21,-83.5 309.44,-83.5"/>
<polygon fill="#63b8ff" stroke="#63b8ff" points="184.74,-80 174.74,-83.5 184.74,-87 184.74,-80"/>
</g>
<!-- Node9 -->
<g id="node9" class="node">
<title>Node9</title>
<g id="a_node9"><a xlink:href="classFindReplacePane.html" target="_top" xlink:title="The find+replace pane.">
<polygon fill="white" stroke="#666666" points="193,-56 94,-56 94,-37 193,-37 193,-56"/>
<text text-anchor="middle" x="143.5" y="-44" font-family="Helvetica,sans-Serif" font-size="10.00">FindReplacePane</text>
</a>
</g>
</g>
<!-- Node9&#45;&gt;Node7 -->
<g id="edge8" class="edge">
<title>Node9&#45;&gt;Node7</title>
<path fill="none" stroke="#9a32cd" stroke-dasharray="5,2" d="M203.05,-56.46C236.2,-62.1 277.32,-69.09 309.43,-74.56"/>
<polygon fill="#9a32cd" stroke="#9a32cd" points="203.49,-52.98 193.04,-54.76 202.31,-59.89 203.49,-52.98"/>
<text text-anchor="middle" x="241.5" y="-69.5" font-family="Helvetica,sans-Serif" font-size="10.00"> m_contents</text>
</g>
<!-- Node10 -->
<g id="node10" class="node">
<title>Node10</title>
<g id="a_node10"><a xlink:title=" ">
<polygon fill="white" stroke="#bfbfbf" points="57,-56 0,-56 0,-37 57,-37 57,-56"/>
<text text-anchor="middle" x="28.5" y="-44" font-family="Helvetica,sans-Serif" font-size="10.00">wxPanel</text>
</a>
</g>
</g>
<!-- Node10&#45;&gt;Node9 -->
<g id="edge9" class="edge">
<title>Node10&#45;&gt;Node9</title>
<path fill="none" stroke="#63b8ff" d="M67.22,-46.5C75.8,-46.5 85.03,-46.5 93.99,-46.5"/>
<polygon fill="#63b8ff" stroke="#63b8ff" points="67.14,-43 57.14,-46.5 67.14,-50 67.14,-43"/>
</g>
<!-- Node11 -->
<g id="node11" class="node">
<title>Node11</title>
<g id="a_node11"><a xlink:href="classToolBar.html" target="_top" xlink:title=" ">
<polygon fill="white" stroke="#bfbfbf" points="389.5,-56 336.5,-56 336.5,-37 389.5,-37 389.5,-56"/>
<text text-anchor="middle" x="363" y="-44" font-family="Helvetica,sans-Serif" font-size="10.00">ToolBar</text>
</a>
</g>
</g>
<!-- Node11&#45;&gt;Node1 -->
<g id="edge10" class="edge">
<title>Node11&#45;&gt;Node1</title>
<path fill="none" stroke="#9a32cd" stroke-dasharray="5,2" d="M399.66,-43.54C440.69,-41.44 509.42,-41.95 564,-62.5 580.33,-68.65 595.93,-81.68 605.48,-90.76"/>
<polygon fill="#9a32cd" stroke="#9a32cd" points="399.38,-40.05 389.6,-44.14 399.79,-47.04 399.38,-40.05"/>
<text text-anchor="middle" x="509" y="-65.5" font-family="Helvetica,sans-Serif" font-size="10.00"> m_mainToolBar</text>
</g>
<!-- Node12 -->
<g id="node12" class="node">
<title>Node12</title>
<g id="a_node12"><a xlink:title=" ">
<polygon fill="white" stroke="#bfbfbf" points="185,-19 102,-19 102,0 185,0 185,-19"/>
<text text-anchor="middle" x="143.5" y="-7" font-family="Helvetica,sans-Serif" font-size="10.00">wxAuiToolBar</text>
</a>
</g>
</g>
<!-- Node12&#45;&gt;Node11 -->
<g id="edge11" class="edge">
<title>Node12&#45;&gt;Node11</title>
<path fill="none" stroke="#63b8ff" d="M195.12,-18.11C239.29,-25.62 301.56,-36.22 336.2,-42.11"/>
<polygon fill="#63b8ff" stroke="#63b8ff" points="195.6,-14.64 185.15,-16.42 194.43,-21.54 195.6,-14.64"/>
</g>
<!-- Node13 -->
<g id="node13" class="node">
<title>Node13</title>
<g id="a_node13"><a xlink:href="classMaximaManual.html" target="_top" xlink:title=" ">
<polygon fill="white" stroke="#bfbfbf" points="409,-19 317,-19 317,0 409,0 409,-19"/>
<text text-anchor="middle" x="363" y="-7" font-family="Helvetica,sans-Serif" font-size="10.00">MaximaManual</text>
</a>
</g>
</g>
<!-- Node13&#45;&gt;Node1 -->
<g id="edge12" class="edge">
<title>Node13&#45;&gt;Node1</title>
<path fill="none" stroke="#9a32cd" stroke-dasharray="5,2" d="M419.49,-2.42C461.88,0.26 520.25,-2.14 564,-27.5 589.15,-42.08 604.86,-74.61 611.44,-90.87"/>
<polygon fill="#9a32cd" stroke="#9a32cd" points="419.06,1.06 409.35,-3.18 419.59,-5.92 419.06,1.06"/>
<text text-anchor="middle" x="509" y="-30.5" font-family="Helvetica,sans-Serif" font-size="10.00"> m_maximaManual</text>
</g>
</g>
</svg>
        <g id="navigator" transform="translate(0 0)" fill="#404254">
                <rect fill="#f2f5e9" fill-opacity="0.5" stroke="#606060" stroke-width=".5" x="0" y="0" width="60" height="60"/>
                <use id="zoomplus" xlink:href="#zoomPlus" x="17" y="9" onmousedown="handleZoom(evt,'in')"/>
                <use id="zoomminus" xlink:href="#zoomMin" x="42" y="9" onmousedown="handleZoom(evt,'out')"/>
                <use id="reset" xlink:href="#resetDef" x="30" y="36" onmousedown="handleReset()"/>
                <g id="arrowUp" xlink:href="#dirArrow" transform="translate(30 24)" onmousedown="handlePan(0,-1)">
                  <use xlink:href="#rim" fill="#404040">
                        <set attributeName="fill" to="#808080" begin="arrowUp.mouseover" end="arrowUp.mouseout"/>
                  </use>
                  <path fill="none" stroke="white" stroke-width="1.5" d="M0,-3.0v7 M-2.5,-0.5L0,-3.0L2.5,-0.5"/>
                </g>
                <g id="arrowRight" xlink:href="#dirArrow" transform="rotate(90) translate(36 -43)" onmousedown="handlePan(1,0)">
                  <use xlink:href="#rim" fill="#404040">
                        <set attributeName="fill" to="#808080" begin="arrowRight.mouseover" end="arrowRight.mouseout"/>
                  </use>
                  <path fill="none" stroke="white" stroke-width="1.5" d="M0,-3.0v7 M-2.5,-0.5L0,-3.0L2.5,-0.5"/>
                </g>
                <g id="arrowDown" xlink:href="#dirArrow" transform="rotate(180) translate(-30 -48)" onmousedown="handlePan(0,1)">
                  <use xlink:href="#rim" fill="#404040">
                        <set attributeName="fill" to="#808080" begin="arrowDown.mouseover" end="arrowDown.mouseout"/>
                  </use>
                  <path fill="none" stroke="white" stroke-width="1.5" d="M0,-3.0v7 M-2.5,-0.5L0,-3.0L2.5,-0.5"/>
                </g>
                <g id="arrowLeft" xlink:href="#dirArrow" transform="rotate(270) translate(-36 17)" onmousedown="handlePan(-1,0)">
                  <use xlink:href="#rim" fill="#404040">
                        <set attributeName="fill" to="#808080" begin="arrowLeft.mouseover" end="arrowLeft.mouseout"/>
                  </use>
                  <path fill="none" stroke="white" stroke-width="1.5" d="M0,-3.0v7 M-2.5,-0.5L0,-3.0L2.5,-0.5"/>
                </g>
        </g>
        <svg viewBox="0 0 15 15" width="100%" height="30px" preserveAspectRatio="xMaxYMin meet">
         <g id="arrow_out" transform="scale(0.3 0.3)">
          <a xlink:href="classWorksheet__coll__graph_org.svg" target="_base">
           <rect id="button" ry="5" rx="5" y="6" x="6" height="38" width="38"
                fill="#f2f5e9" fill-opacity="0.5" stroke="#606060" stroke-width="1.0"/>
           <path id="arrow"
             d="M 11.500037,31.436501 C 11.940474,20.09759 22.043105,11.32322 32.158766,21.979434 L 37.068811,17.246167 C 37.068811,17.246167 37.088388,32 37.088388,32 L 22.160133,31.978069 C 22.160133,31.978069 26.997745,27.140456 26.997745,27.140456 C 18.528582,18.264221 13.291696,25.230495 11.500037,31.436501 z"
             style="fill:#404040;"/>
          </a>
         </g>
        </svg>
</svg>
