<?xml version="1.0" encoding="UTF-8" standalone="no"?>
<!DOCTYPE svg PUBLIC "-//W3C//DTD SVG 1.1//EN"
 "http://www.w3.org/Graphics/SVG/1.1/DTD/svg11.dtd">
<!-- Generated by graphviz version 2.43.0 (0)
 -->
<!-- Title: Notification Pages: 1 -->
<!--zoomable 572 -->
<svg id="main" version="1.1" xmlns="http://www.w3.org/2000/svg" xmlns:xlink="http://www.w3.org/1999/xlink" xml:space="preserve" onload="init(evt)">
<style type="text/css"><![CDATA[
.edge:hover path { stroke: red; }
.edge:hover polygon { stroke: red; fill: red; }
]]></style>
<script type="text/javascript"><![CDATA[
var edges = document.getElementsByTagName('g');
if (edges && edges.length) {
  for (var i=0;i<edges.length;i++) {
    if (edges[i].id.substr(0,4)=='edge') {
      edges[i].setAttribute('class','edge');
    }
  }
}
]]></script>
        <defs>
                <circle id="rim" cx="0" cy="0" r="7"/>
                <circle id="rim2" cx="0" cy="0" r="3.5"/>
                <g id="zoomPlus">
                        <use xlink:href="#rim" fill="#404040">
                                <set attributeName="fill" to="#808080" begin="zoomplus.mouseover" end="zoomplus.mouseout"/>
                        </use>
                        <path d="M-4,0h8M0,-4v8" fill="none" stroke="white" stroke-width="1.5" pointer-events="none"/>
                </g>
                <g id="zoomMin">
                        <use xlink:href="#rim" fill="#404040">
                                <set attributeName="fill" to="#808080" begin="zoomminus.mouseover" end="zoomminus.mouseout"/>
                        </use>
                        <path d="M-4,0h8" fill="none" stroke="white" stroke-width="1.5" pointer-events="none"/>
                </g>
                <g id="dirArrow">
                        <path fill="none" stroke="white" stroke-width="1.5" d="M0,-3.0v7 M-2.5,-0.5L0,-3.0L2.5,-0.5"/>
                </g>
               <g id="resetDef">
                       <use xlink:href="#rim2" fill="#404040">
                               <set attributeName="fill" to="#808080" begin="reset.mouseover" end="reset.mouseout"/>
                       </use>
               </g>
        </defs>

<script type="text/javascript">
var viewWidth = 1149;
var viewHeight = 572;
var sectionId = 'dynsection-1';
</script>
<script xlink:href="svgpan.js"/>
<svg id="graph" class="graph">
<g id="viewport">
<title>Notification</title>
<!-- Node1 -->
<g id="node1" class="node">
<title>Node1</title>
<g id="a_node1"><a xlink:title="A user notification the operating system claims to be non&#45;disturbing.">
<polygon fill="#999999" stroke="#666666" points="1141,-157 1068,-157 1068,-138 1141,-138 1141,-157"/>
<text text-anchor="middle" x="1104.5" y="-145" font-family="Helvetica,sans-Serif" font-size="10.00">Notification</text>
</a>
</g>
</g>
<!-- Node2 -->
<g id="node2" class="node">
<title>Node2</title>
<g id="a_node2"><a xlink:title=" ">
<polygon fill="white" stroke="#bfbfbf" points="915,-190 784,-190 784,-171 915,-171 915,-190"/>
<text text-anchor="middle" x="849.5" y="-178" font-family="Helvetica,sans-Serif" font-size="10.00">wxNotificationMessage</text>
</a>
</g>
</g>
<!-- Node2&#45;&gt;Node1 -->
<g id="edge1" class="edge">
<title>Node2&#45;&gt;Node1</title>
<path fill="none" stroke="#63b8ff" d="M925.47,-170.72C972.48,-164.59 1030.94,-156.96 1067.75,-152.16"/>
<polygon fill="#63b8ff" stroke="#63b8ff" points="924.79,-167.28 915.33,-172.04 925.69,-174.22 924.79,-167.28"/>
</g>
<!-- Node3 -->
<g id="node3" class="node">
<title>Node3</title>
<g id="a_node3"><a xlink:href="classGroupCell.html" target="_top" xlink:title="A cell grouping input (and, if there is one, also the output) cell to a foldable item.">
<polygon fill="white" stroke="#666666" points="882,-124 817,-124 817,-105 882,-105 882,-124"/>
<text text-anchor="middle" x="849.5" y="-112" font-family="Helvetica,sans-Serif" font-size="10.00">GroupCell</text>
</a>
</g>
</g>
<!-- Node3&#45;&gt;Node1 -->
<g id="edge2" class="edge">
<title>Node3&#45;&gt;Node1</title>
<path fill="none" stroke="#9a32cd" stroke-dasharray="5,2" d="M892.34,-119.45C932.73,-124.3 995.6,-132.03 1050,-139.5 1055.77,-140.29 1061.88,-141.17 1067.83,-142.05"/>
<polygon fill="#9a32cd" stroke="#9a32cd" points="892.66,-115.96 882.32,-118.25 891.83,-122.91 892.66,-115.96"/>
<text text-anchor="middle" x="991.5" y="-142.5" font-family="Helvetica,sans-Serif" font-size="10.00"> m_errorNotificationCell</text>
</g>
<!-- Node3&#45;&gt;Node3 -->
<g id="edge22" class="edge">
<title>Node3&#45;&gt;Node3</title>
<path fill="none" stroke="#9a32cd" stroke-dasharray="5,2" d="M827.28,-133.55C828.76,-138.38 836.17,-142 849.5,-142 870.83,-142 876.99,-132.73 868,-124.08"/>
<polygon fill="#9a32cd" stroke="#9a32cd" points="830.6,-134.67 831,-124.08 824.09,-132.11 830.6,-134.67"/>
<text text-anchor="middle" x="849.5" y="-145" font-family="Helvetica,sans-Serif" font-size="10.00"> m_hiddenTreeParent</text>
</g>
<!-- Node4 -->
<g id="node4" class="node">
<title>Node4</title>
<g id="a_node4"><a xlink:href="classCell.html" target="_top" xlink:title="The base class all cell types the worksheet can consist of are derived from.">
<polygon fill="white" stroke="#666666" points="647,-124 612,-124 612,-105 647,-105 647,-124"/>
<text text-anchor="middle" x="629.5" y="-112" font-family="Helvetica,sans-Serif" font-size="10.00">Cell</text>
</a>
</g>
</g>
<!-- Node4&#45;&gt;Node3 -->
<g id="edge3" class="edge">
<title>Node4&#45;&gt;Node3</title>
<path fill="none" stroke="#63b8ff" d="M657.4,-114.5C697.77,-114.5 773.89,-114.5 816.87,-114.5"/>
<polygon fill="#63b8ff" stroke="#63b8ff" points="657.24,-111 647.24,-114.5 657.24,-118 657.24,-111"/>
</g>
<!-- Node5 -->
<g id="node5" class="node">
<title>Node5</title>
<g id="a_node5"><a xlink:href="classObserved.html" target="_top" xlink:title="Objects deriving from this class can be observed by the CellPtr.">
<polygon fill="white" stroke="#666666" points="361.5,-108 298.5,-108 298.5,-89 361.5,-89 361.5,-108"/>
<text text-anchor="middle" x="330" y="-96" font-family="Helvetica,sans-Serif" font-size="10.00">Observed</text>
</a>
</g>
</g>
<!-- Node5&#45;&gt;Node4 -->
<g id="edge4" class="edge">
<title>Node5&#45;&gt;Node4</title>
<path fill="none" stroke="#63b8ff" d="M371.79,-100.69C438.01,-104.26 566.09,-111.14 611.79,-113.6"/>
<polygon fill="#63b8ff" stroke="#63b8ff" points="371.89,-97.19 361.72,-100.15 371.51,-104.18 371.89,-97.19"/>
</g>
<!-- Node6 -->
<g id="node6" class="node">
<title>Node6</title>
<g id="a_node6"><a xlink:href="classCellPtr.html" target="_top" xlink:title=" ">
<polygon fill="white" stroke="#666666" points="389.5,-275 270.5,-275 270.5,-256 389.5,-256 389.5,-275"/>
<text text-anchor="middle" x="330" y="-263" font-family="Helvetica,sans-Serif" font-size="10.00">CellPtr&lt; GroupCell &gt;</text>
</a>
</g>
</g>
<!-- Node6&#45;&gt;Node4 -->
<g id="edge5" class="edge">
<title>Node6&#45;&gt;Node4</title>
<path fill="none" stroke="#9a32cd" stroke-dasharray="5,2" d="M371.16,-253.03C387.47,-248.18 406.55,-242.77 424,-238.5 487.84,-222.88 514.92,-246.84 569,-209.5 600.39,-187.83 618.59,-143.65 625.4,-124.14"/>
<polygon fill="#9a32cd" stroke="#9a32cd" points="369.97,-249.73 361.4,-255.96 371.99,-256.44 369.97,-249.73"/>
<text text-anchor="middle" x="496.5" y="-241.5" font-family="Helvetica,sans-Serif" font-size="10.00"> m_group</text>
</g>
<!-- Node14 -->
<g id="node14" class="node">
<title>Node14</title>
<g id="a_node14"><a xlink:href="classCellPointers.html" target="_top" xlink:title="The storage for pointers to cells.">
<polygon fill="white" stroke="#666666" points="667,-393 592,-393 592,-374 667,-374 667,-393"/>
<text text-anchor="middle" x="629.5" y="-381" font-family="Helvetica,sans-Serif" font-size="10.00">CellPointers</text>
</a>
</g>
</g>
<!-- Node6&#45;&gt;Node14 -->
<g id="edge18" class="edge">
<title>Node6&#45;&gt;Node14</title>
<path fill="none" stroke="#9a32cd" stroke-dasharray="5,2" d="M399.86,-258.03C459.96,-252.89 541.69,-249.67 569,-266.5 608.58,-290.89 622.86,-350.7 627.03,-374"/>
<polygon fill="#9a32cd" stroke="#9a32cd" points="399.32,-254.56 389.67,-258.93 399.94,-261.53 399.32,-254.56"/>
<text text-anchor="middle" x="496.5" y="-291.5" font-family="Helvetica,sans-Serif" font-size="10.00"> m_groupCellUnderPointer</text>
<text text-anchor="middle" x="496.5" y="-280.5" font-family="Helvetica,sans-Serif" font-size="10.00">m_lastWorkingGroup</text>
<text text-anchor="middle" x="496.5" y="-269.5" font-family="Helvetica,sans-Serif" font-size="10.00">m_workingGroup</text>
</g>
<!-- Node7 -->
<g id="node7" class="node">
<title>Node7</title>
<g id="a_node7"><a xlink:href="classCellPtrBase.html" target="_top" xlink:title="An implementation detail for the type&#45;specific templated cell pointers.">
<polygon fill="white" stroke="#666666" points="111.5,-388 38.5,-388 38.5,-369 111.5,-369 111.5,-388"/>
<text text-anchor="middle" x="75" y="-376" font-family="Helvetica,sans-Serif" font-size="10.00">CellPtrBase</text>
</a>
</g>
</g>
<!-- Node7&#45;&gt;Node6 -->
<g id="edge6" class="edge">
<title>Node7&#45;&gt;Node6</title>
<path fill="none" stroke="#63b8ff" d="M106.96,-364.67C158.97,-341.44 262.63,-295.14 307.48,-275.11"/>
<polygon fill="#63b8ff" stroke="#63b8ff" points="105.27,-361.59 97.57,-368.87 108.13,-367.98 105.27,-361.59"/>
</g>
<!-- Node8 -->
<g id="node8" class="node">
<title>Node8</title>
<g id="a_node8"><a xlink:href="classCellPtr.html" target="_top" xlink:title=" ">
<polygon fill="white" stroke="#666666" points="375,-365 285,-365 285,-346 375,-346 375,-365"/>
<text text-anchor="middle" x="330" y="-353" font-family="Helvetica,sans-Serif" font-size="10.00">CellPtr&lt; Cell &gt;</text>
</a>
</g>
</g>
<!-- Node7&#45;&gt;Node8 -->
<g id="edge8" class="edge">
<title>Node7&#45;&gt;Node8</title>
<path fill="none" stroke="#63b8ff" d="M121.78,-374.34C168.11,-370.13 239.27,-363.66 284.97,-359.5"/>
<polygon fill="#63b8ff" stroke="#63b8ff" points="121.35,-370.86 111.71,-375.25 121.99,-377.83 121.35,-370.86"/>
</g>
<!-- Node16 -->
<g id="node16" class="node">
<title>Node16</title>
<g id="a_node16"><a xlink:href="classCellPtr.html" target="_top" xlink:title=" ">
<polygon fill="white" stroke="#666666" points="389.5,-491 270.5,-491 270.5,-472 389.5,-472 389.5,-491"/>
<text text-anchor="middle" x="330" y="-479" font-family="Helvetica,sans-Serif" font-size="10.00">CellPtr&lt; EditorCell &gt;</text>
</a>
</g>
</g>
<!-- Node7&#45;&gt;Node16 -->
<g id="edge17" class="edge">
<title>Node7&#45;&gt;Node16</title>
<path fill="none" stroke="#63b8ff" d="M101.34,-393.1C135.13,-411.97 197.26,-444.64 254,-463.5 263.53,-466.67 273.91,-469.52 283.83,-471.98"/>
<polygon fill="#63b8ff" stroke="#63b8ff" points="103.02,-390.03 92.59,-388.17 99.59,-396.13 103.02,-390.03"/>
</g>
<!-- Node17 -->
<g id="node17" class="node">
<title>Node17</title>
<g id="a_node17"><a xlink:href="classCellPtr.html" target="_top" xlink:title=" ">
<polygon fill="white" stroke="#666666" points="385,-454 275,-454 275,-435 385,-435 385,-454"/>
<text text-anchor="middle" x="330" y="-442" font-family="Helvetica,sans-Serif" font-size="10.00">CellPtr&lt; TextCell &gt;</text>
</a>
</g>
</g>
<!-- Node7&#45;&gt;Node17 -->
<g id="edge20" class="edge">
<title>Node7&#45;&gt;Node17</title>
<path fill="none" stroke="#63b8ff" d="M120.08,-390.75C156.04,-400.66 208.21,-414.83 254,-426.5 265.16,-429.34 277.29,-432.31 288.47,-434.99"/>
<polygon fill="#63b8ff" stroke="#63b8ff" points="120.95,-387.36 110.38,-388.08 119.09,-394.11 120.95,-387.36"/>
</g>
<!-- Node8&#45;&gt;Node4 -->
<g id="edge7" class="edge">
<title>Node8&#45;&gt;Node4</title>
<path fill="none" stroke="#9a32cd" stroke-dasharray="5,2" d="M368.34,-342.75C385.21,-337.28 405.48,-331.1 424,-326.5 487.62,-310.72 519.8,-342.82 569,-299.5 622.94,-252.01 628.31,-155.48 628.59,-124.39"/>
<polygon fill="#9a32cd" stroke="#9a32cd" points="367.24,-339.42 358.84,-345.87 369.43,-346.07 367.24,-339.42"/>
<text text-anchor="middle" x="496.5" y="-329.5" font-family="Helvetica,sans-Serif" font-size="10.00"> m_nextToDraw</text>
</g>
<!-- Node8&#45;&gt;Node14 -->
<g id="edge21" class="edge">
<title>Node8&#45;&gt;Node14</title>
<path fill="none" stroke="#9a32cd" stroke-dasharray="5,2" d="M385.21,-347.19C434.02,-341.5 507.36,-337.41 569,-352.5 585.74,-356.6 603.01,-366.32 614.61,-373.79"/>
<polygon fill="#9a32cd" stroke="#9a32cd" points="384.67,-343.73 375.18,-348.43 385.53,-350.68 384.67,-343.73"/>
<text text-anchor="middle" x="496.5" y="-377.5" font-family="Helvetica,sans-Serif" font-size="10.00"> m_cellUnderPointer</text>
<text text-anchor="middle" x="496.5" y="-366.5" font-family="Helvetica,sans-Serif" font-size="10.00">m_selectionEnd</text>
<text text-anchor="middle" x="496.5" y="-355.5" font-family="Helvetica,sans-Serif" font-size="10.00">m_selectionStart</text>
</g>
<!-- Node9 -->
<g id="node9" class="node">
<title>Node9</title>
<g id="a_node9"><a xlink:href="classConfiguration.html" target="_top" xlink:title="The configuration storage for the current worksheet.">
<polygon fill="white" stroke="#666666" points="371,-71 289,-71 289,-52 371,-52 371,-71"/>
<text text-anchor="middle" x="330" y="-59" font-family="Helvetica,sans-Serif" font-size="10.00">Configuration</text>
</a>
</g>
</g>
<!-- Node9&#45;&gt;Node4 -->
<g id="edge9" class="edge">
<title>Node9&#45;&gt;Node4</title>
<path fill="none" stroke="#9a32cd" stroke-dasharray="5,2" d="M381.55,-62.87C430.29,-65.21 505.77,-71.51 569,-88.5 584.02,-92.54 600.14,-99.78 611.81,-105.59"/>
<polygon fill="#9a32cd" stroke="#9a32cd" points="381.41,-59.36 371.26,-62.42 381.1,-66.35 381.41,-59.36"/>
<text text-anchor="middle" x="496.5" y="-91.5" font-family="Helvetica,sans-Serif" font-size="10.00"> m_configuration</text>
</g>
<!-- Node10 -->
<g id="node10" class="node">
<title>Node10</title>
<g id="a_node10"><a xlink:href="structConfiguration_1_1PerformanceStats.html" target="_top" xlink:title=" ">
<polygon fill="white" stroke="#bfbfbf" points="150,-98.5 0,-98.5 0,-68.5 150,-68.5 150,-98.5"/>
<text text-anchor="start" x="8" y="-86.5" font-family="Helvetica,sans-Serif" font-size="10.00">Configuration::Performance</text>
<text text-anchor="middle" x="75" y="-75.5" font-family="Helvetica,sans-Serif" font-size="10.00">Stats</text>
</a>
</g>
</g>
<!-- Node10&#45;&gt;Node9 -->
<g id="edge10" class="edge">
<title>Node10&#45;&gt;Node9</title>
<path fill="none" stroke="#9a32cd" stroke-dasharray="5,2" d="M160.19,-76.18C203.57,-72.41 254.46,-67.98 288.93,-64.98"/>
<polygon fill="#9a32cd" stroke="#9a32cd" points="159.86,-72.69 150.2,-77.05 160.46,-79.67 159.86,-72.69"/>
<text text-anchor="middle" x="202" y="-77.5" font-family="Helvetica,sans-Serif" font-size="10.00"> g_stats</text>
</g>
<!-- Node11 -->
<g id="node11" class="node">
<title>Node11</title>
<g id="a_node11"><a xlink:href="classStyles.html" target="_top" xlink:title="Storage for the worksheet&#39;s per&#45;TextStyle text styles.">
<polygon fill="white" stroke="#666666" points="98.5,-50 51.5,-50 51.5,-31 98.5,-31 98.5,-50"/>
<text text-anchor="middle" x="75" y="-38" font-family="Helvetica,sans-Serif" font-size="10.00">Styles</text>
</a>
</g>
</g>
<!-- Node11&#45;&gt;Node9 -->
<g id="edge11" class="edge">
<title>Node11&#45;&gt;Node9</title>
<path fill="none" stroke="#9a32cd" stroke-dasharray="5,2" d="M108.78,-42.02C141.15,-43.64 192.04,-46.53 236,-50.5 253.33,-52.06 272.42,-54.24 288.77,-56.25"/>
<polygon fill="#9a32cd" stroke="#9a32cd" points="108.71,-38.51 98.55,-41.52 108.37,-45.5 108.71,-38.51"/>
<text text-anchor="middle" x="202" y="-53.5" font-family="Helvetica,sans-Serif" font-size="10.00"> m_styleStore</text>
</g>
<!-- Node12 -->
<g id="node12" class="node">
<title>Node12</title>
<g id="a_node12"><a xlink:href="classCachedInteger.html" target="_top" xlink:title=" ">
<polygon fill="white" stroke="#666666" points="406,-145 254,-145 254,-126 406,-126 406,-145"/>
<text text-anchor="middle" x="330" y="-133" font-family="Helvetica,sans-Serif" font-size="10.00">CachedInteger&lt; wxCoord &gt;</text>
</a>
</g>
</g>
<!-- Node12&#45;&gt;Node4 -->
<g id="edge12" class="edge">
<title>Node12&#45;&gt;Node4</title>
<path fill="none" stroke="#9a32cd" stroke-dasharray="5,2" d="M416.43,-129.47C484.87,-124.64 575.29,-118.26 611.98,-115.67"/>
<polygon fill="#9a32cd" stroke="#9a32cd" points="415.8,-126.01 406.07,-130.2 416.29,-132.99 415.8,-126.01"/>
<text text-anchor="middle" x="496.5" y="-197.5" font-family="Helvetica,sans-Serif" font-size="10.00"> m_cachedCenterList</text>
<text text-anchor="middle" x="496.5" y="-186.5" font-family="Helvetica,sans-Serif" font-size="10.00">m_cachedLineWidth</text>
<text text-anchor="middle" x="496.5" y="-175.5" font-family="Helvetica,sans-Serif" font-size="10.00">m_cachedMaxDrop</text>
<text text-anchor="middle" x="496.5" y="-164.5" font-family="Helvetica,sans-Serif" font-size="10.00">m_cachedSumOfWidths</text>
<text text-anchor="middle" x="496.5" y="-153.5" font-family="Helvetica,sans-Serif" font-size="10.00">m_center</text>
<text text-anchor="middle" x="496.5" y="-142.5" font-family="Helvetica,sans-Serif" font-size="10.00">m_height</text>
<text text-anchor="middle" x="496.5" y="-131.5" font-family="Helvetica,sans-Serif" font-size="10.00">m_width</text>
</g>
<!-- Node13 -->
<g id="node13" class="node">
<title>Node13</title>
<g id="a_node13"><a xlink:href="classAFontSize.html" target="_top" xlink:title="A Type&#45;Safe Fixed&#45;Point Font Size.">
<polygon fill="white" stroke="#666666" points="362.5,-19 297.5,-19 297.5,0 362.5,0 362.5,-19"/>
<text text-anchor="middle" x="330" y="-7" font-family="Helvetica,sans-Serif" font-size="10.00">AFontSize</text>
</a>
</g>
</g>
<!-- Node13&#45;&gt;Node3 -->
<g id="edge23" class="edge">
<title>Node13&#45;&gt;Node3</title>
<path fill="none" stroke="#9a32cd" stroke-dasharray="5,2" d="M372.48,-5.31C420.29,-1.48 501.02,1.89 569,-10.5 671.64,-29.2 785.86,-82.89 829.85,-104.91"/>
<polygon fill="#9a32cd" stroke="#9a32cd" points="372.18,-1.82 362.51,-6.15 372.77,-8.8 372.18,-1.82"/>
<text text-anchor="middle" x="629.5" y="-39.5" font-family="Helvetica,sans-Serif" font-size="10.00"> m_mathFontSize</text>
</g>
<!-- Node13&#45;&gt;Node4 -->
<g id="edge13" class="edge">
<title>Node13&#45;&gt;Node4</title>
<path fill="none" stroke="#9a32cd" stroke-dasharray="5,2" d="M372.66,-10.99C431.73,-13.74 536.31,-21.09 569,-39.5 596.37,-54.91 615.76,-88.45 624.03,-104.94"/>
<polygon fill="#9a32cd" stroke="#9a32cd" points="372.68,-7.49 362.54,-10.55 372.37,-14.48 372.68,-7.49"/>
<text text-anchor="middle" x="496.5" y="-53.5" font-family="Helvetica,sans-Serif" font-size="10.00"> m_fontSize</text>
<text text-anchor="middle" x="496.5" y="-42.5" font-family="Helvetica,sans-Serif" font-size="10.00">m_fontSize_Scaled</text>
</g>
<!-- Node14&#45;&gt;Node3 -->
<g id="edge14" class="edge">
<title>Node14&#45;&gt;Node3</title>
<path fill="none" stroke="#9a32cd" stroke-dasharray="5,2" d="M640.59,-364.97C662.91,-325.02 719.61,-229.03 784,-162.5 798.85,-147.15 818.99,-133.01 832.79,-124.11"/>
<polygon fill="#9a32cd" stroke="#9a32cd" points="637.45,-363.42 635.68,-373.86 643.58,-366.8 637.45,-363.42"/>
<text text-anchor="middle" x="728" y="-285.5" font-family="Helvetica,sans-Serif" font-size="10.00"> m_cellPointers</text>
</g>
<!-- Node15 -->
<g id="node15" class="node">
<title>Node15</title>
<g id="a_node15"><a xlink:href="classCellPointers_1_1ErrorList.html" target="_top" xlink:title="A list of editor cells containing error messages.">
<polygon fill="white" stroke="#666666" points="391,-417 269,-417 269,-398 391,-398 391,-417"/>
<text text-anchor="middle" x="330" y="-405" font-family="Helvetica,sans-Serif" font-size="10.00">CellPointers::ErrorList</text>
</a>
</g>
</g>
<!-- Node15&#45;&gt;Node14 -->
<g id="edge15" class="edge">
<title>Node15&#45;&gt;Node14</title>
<path fill="none" stroke="#9a32cd" stroke-dasharray="5,2" d="M401.35,-402.64C448.75,-399.26 512.66,-394.47 569,-389.5 576.34,-388.85 584.19,-388.1 591.7,-387.36"/>
<polygon fill="#9a32cd" stroke="#9a32cd" points="400.92,-399.17 391.19,-403.37 401.41,-406.15 400.92,-399.17"/>
<text text-anchor="middle" x="496.5" y="-403.5" font-family="Helvetica,sans-Serif" font-size="10.00"> m_errorList</text>
</g>
<!-- Node16&#45;&gt;Node14 -->
<g id="edge16" class="edge">
<title>Node16&#45;&gt;Node14</title>
<path fill="none" stroke="#9a32cd" stroke-dasharray="5,2" d="M399.68,-487.29C449.53,-488.44 517.06,-483.51 569,-455.5 595.69,-441.11 615.14,-409.32 623.68,-393.24"/>
<polygon fill="#9a32cd" stroke="#9a32cd" points="399.75,-483.79 389.64,-486.97 399.52,-490.79 399.75,-483.79"/>
<text text-anchor="middle" x="496.5" y="-555.5" font-family="Helvetica,sans-Serif" font-size="10.00"> m_activeCell</text>
<text text-anchor="middle" x="496.5" y="-544.5" font-family="Helvetica,sans-Serif" font-size="10.00">m_answerCell</text>
<text text-anchor="start" x="424" y="-533.5" font-family="Helvetica,sans-Serif" font-size="10.00">m_cellKeyboardSelection</text>
<text text-anchor="middle" x="496.5" y="-522.5" font-family="Helvetica,sans-Serif" font-size="10.00">StartedIn</text>
<text text-anchor="start" x="424" y="-511.5" font-family="Helvetica,sans-Serif" font-size="10.00">m_cellMouseSelectionStarted</text>
<text text-anchor="middle" x="496.5" y="-500.5" font-family="Helvetica,sans-Serif" font-size="10.00">In</text>
<text text-anchor="middle" x="496.5" y="-489.5" font-family="Helvetica,sans-Serif" font-size="10.00">m_cellSearchStartedIn</text>
</g>
<!-- Node17&#45;&gt;Node14 -->
<g id="edge19" class="edge">
<title>Node17&#45;&gt;Node14</title>
<path fill="none" stroke="#9a32cd" stroke-dasharray="5,2" d="M395.23,-443.11C443.92,-440.52 511.96,-433.61 569,-415.5 585.32,-410.32 602.38,-400.64 614.02,-393.28"/>
<polygon fill="#9a32cd" stroke="#9a32cd" points="394.96,-439.61 385.14,-443.59 395.3,-446.61 394.96,-439.61"/>
<text text-anchor="middle" x="496.5" y="-443.5" font-family="Helvetica,sans-Serif" font-size="10.00"> m_currentTextCell</text>
</g>
</g>
</svg>
        <g id="navigator" transform="translate(0 0)" fill="#404254">
                <rect fill="#f2f5e9" fill-opacity="0.5" stroke="#606060" stroke-width=".5" x="0" y="0" width="60" height="60"/>
                <use id="zoomplus" xlink:href="#zoomPlus" x="17" y="9" onmousedown="handleZoom(evt,'in')"/>
                <use id="zoomminus" xlink:href="#zoomMin" x="42" y="9" onmousedown="handleZoom(evt,'out')"/>
                <use id="reset" xlink:href="#resetDef" x="30" y="36" onmousedown="handleReset()"/>
                <g id="arrowUp" xlink:href="#dirArrow" transform="translate(30 24)" onmousedown="handlePan(0,-1)">
                  <use xlink:href="#rim" fill="#404040">
                        <set attributeName="fill" to="#808080" begin="arrowUp.mouseover" end="arrowUp.mouseout"/>
                  </use>
                  <path fill="none" stroke="white" stroke-width="1.5" d="M0,-3.0v7 M-2.5,-0.5L0,-3.0L2.5,-0.5"/>
                </g>
                <g id="arrowRight" xlink:href="#dirArrow" transform="rotate(90) translate(36 -43)" onmousedown="handlePan(1,0)">
                  <use xlink:href="#rim" fill="#404040">
                        <set attributeName="fill" to="#808080" begin="arrowRight.mouseover" end="arrowRight.mouseout"/>
                  </use>
                  <path fill="none" stroke="white" stroke-width="1.5" d="M0,-3.0v7 M-2.5,-0.5L0,-3.0L2.5,-0.5"/>
                </g>
                <g id="arrowDown" xlink:href="#dirArrow" transform="rotate(180) translate(-30 -48)" onmousedown="handlePan(0,1)">
                  <use xlink:href="#rim" fill="#404040">
                        <set attributeName="fill" to="#808080" begin="arrowDown.mouseover" end="arrowDown.mouseout"/>
                  </use>
                  <path fill="none" stroke="white" stroke-width="1.5" d="M0,-3.0v7 M-2.5,-0.5L0,-3.0L2.5,-0.5"/>
                </g>
                <g id="arrowLeft" xlink:href="#dirArrow" transform="rotate(270) translate(-36 17)" onmousedown="handlePan(-1,0)">
                  <use xlink:href="#rim" fill="#404040">
                        <set attributeName="fill" to="#808080" begin="arrowLeft.mouseover" end="arrowLeft.mouseout"/>
                  </use>
                  <path fill="none" stroke="white" stroke-width="1.5" d="M0,-3.0v7 M-2.5,-0.5L0,-3.0L2.5,-0.5"/>
                </g>
        </g>
        <svg viewBox="0 0 15 15" width="100%" height="30px" preserveAspectRatio="xMaxYMin meet">
         <g id="arrow_out" transform="scale(0.3 0.3)">
          <a xlink:href="classNotification__coll__graph_org.svg" target="_base">
           <rect id="button" ry="5" rx="5" y="6" x="6" height="38" width="38"
                fill="#f2f5e9" fill-opacity="0.5" stroke="#606060" stroke-width="1.0"/>
           <path id="arrow"
             d="M 11.500037,31.436501 C 11.940474,20.09759 22.043105,11.32322 32.158766,21.979434 L 37.068811,17.246167 C 37.068811,17.246167 37.088388,32 37.088388,32 L 22.160133,31.978069 C 22.160133,31.978069 26.997745,27.140456 26.997745,27.140456 C 18.528582,18.264221 13.291696,25.230495 11.500037,31.436501 z"
             style="fill:#404040;"/>
          </a>
         </g>
        </svg>
</svg>
