<?xml version="1.0" encoding="UTF-8" standalone="no"?>
<!DOCTYPE svg PUBLIC "-//W3C//DTD SVG 1.1//EN"
 "http://www.w3.org/Graphics/SVG/1.1/DTD/svg11.dtd">
<!-- Generated by graphviz version 2.43.0 (0)
 -->
<!-- Title: SetCell Pages: 1 -->
<!--zoomable 268 -->
<svg id="main" version="1.1" xmlns="http://www.w3.org/2000/svg" xmlns:xlink="http://www.w3.org/1999/xlink" xml:space="preserve" onload="init(evt)">
<style type="text/css"><![CDATA[
.edge:hover path { stroke: red; }
.edge:hover polygon { stroke: red; fill: red; }
]]></style>
<script type="text/javascript"><![CDATA[
var edges = document.getElementsByTagName('g');
if (edges && edges.length) {
  for (var i=0;i<edges.length;i++) {
    if (edges[i].id.substr(0,4)=='edge') {
      edges[i].setAttribute('class','edge');
    }
  }
}
]]></script>
        <defs>
                <circle id="rim" cx="0" cy="0" r="7"/>
                <circle id="rim2" cx="0" cy="0" r="3.5"/>
                <g id="zoomPlus">
                        <use xlink:href="#rim" fill="#404040">
                                <set attributeName="fill" to="#808080" begin="zoomplus.mouseover" end="zoomplus.mouseout"/>
                        </use>
                        <path d="M-4,0h8M0,-4v8" fill="none" stroke="white" stroke-width="1.5" pointer-events="none"/>
                </g>
                <g id="zoomMin">
                        <use xlink:href="#rim" fill="#404040">
                                <set attributeName="fill" to="#808080" begin="zoomminus.mouseover" end="zoomminus.mouseout"/>
                        </use>
                        <path d="M-4,0h8" fill="none" stroke="white" stroke-width="1.5" pointer-events="none"/>
                </g>
                <g id="dirArrow">
                        <path fill="none" stroke="white" stroke-width="1.5" d="M0,-3.0v7 M-2.5,-0.5L0,-3.0L2.5,-0.5"/>
                </g>
               <g id="resetDef">
                       <use xlink:href="#rim2" fill="#404040">
                               <set attributeName="fill" to="#808080" begin="reset.mouseover" end="reset.mouseout"/>
                       </use>
               </g>
        </defs>

<script type="text/javascript">
var viewWidth = 1072;
var viewHeight = 268;
var sectionId = 'dynsection-1';
</script>
<script xlink:href="svgpan.js"/>
<svg id="graph" class="graph">
<g id="viewport">
<title>SetCell</title>
<!-- Node1 -->
<g id="node1" class="node">
<title>Node1</title>
<g id="a_node1"><a xlink:title="The class that represents parenthesis that are wrapped around text.">
<polygon fill="#999999" stroke="#666666" points="1064,-142.8 1013,-142.8 1013,-123.8 1064,-123.8 1064,-142.8"/>
<text text-anchor="middle" x="1038.5" y="-130.8" font-family="Helvetica,sans-Serif" font-size="10.00">SetCell</text>
</a>
</g>
</g>
<!-- Node2 -->
<g id="node2" class="node">
<title>Node2</title>
<g id="a_node2"><a xlink:href="classListCell.html" target="_top" xlink:title="The class that represents parenthesis that are wrapped around text.">
<polygon fill="white" stroke="#666666" points="976,-142.8 923,-142.8 923,-123.8 976,-123.8 976,-142.8"/>
<text text-anchor="middle" x="949.5" y="-130.8" font-family="Helvetica,sans-Serif" font-size="10.00">ListCell</text>
</a>
</g>
</g>
<!-- Node2&#45;&gt;Node1 -->
<g id="edge1" class="edge">
<title>Node2&#45;&gt;Node1</title>
<path fill="none" stroke="#63b8ff" d="M986.34,-133.3C995.29,-133.3 1004.68,-133.3 1012.95,-133.3"/>
<polygon fill="#63b8ff" stroke="#63b8ff" points="986.13,-129.8 976.13,-133.3 986.13,-136.8 986.13,-129.8"/>
</g>
<!-- Node3 -->
<g id="node3" class="node">
<title>Node3</title>
<g id="a_node3"><a xlink:href="classCell.html" target="_top" xlink:title="The base class all cell types the worksheet can consist of are derived from.">
<polygon fill="white" stroke="#666666" points="772.5,-166.8 737.5,-166.8 737.5,-147.8 772.5,-147.8 772.5,-166.8"/>
<text text-anchor="middle" x="755" y="-154.8" font-family="Helvetica,sans-Serif" font-size="10.00">Cell</text>
</a>
</g>
</g>
<!-- Node3&#45;&gt;Node2 -->
<g id="edge2" class="edge">
<title>Node3&#45;&gt;Node2</title>
<path fill="none" stroke="#63b8ff" d="M782.82,-153.96C819.93,-149.33 886.49,-141.03 922.93,-136.49"/>
<polygon fill="#63b8ff" stroke="#63b8ff" points="782.24,-150.5 772.75,-155.21 783.1,-157.45 782.24,-150.5"/>
</g>
<!-- Node4 -->
<g id="node4" class="node">
<title>Node4</title>
<g id="a_node4"><a xlink:href="classObserved.html" target="_top" xlink:title="Objects deriving from this class can be observed by the CellPtr.">
<polygon fill="white" stroke="#666666" points="496.5,-259.8 433.5,-259.8 433.5,-240.8 496.5,-240.8 496.5,-259.8"/>
<text text-anchor="middle" x="465" y="-247.8" font-family="Helvetica,sans-Serif" font-size="10.00">Observed</text>
</a>
</g>
</g>
<!-- Node4&#45;&gt;Node3 -->
<g id="edge3" class="edge">
<title>Node4&#45;&gt;Node3</title>
<path fill="none" stroke="#63b8ff" d="M506.74,-250.14C550.32,-248.62 620.63,-242.2 676,-218.3 704.41,-206.04 731.43,-180.86 744.97,-166.99"/>
<polygon fill="#63b8ff" stroke="#63b8ff" points="506.43,-246.65 496.53,-250.43 506.62,-253.65 506.43,-246.65"/>
</g>
<!-- Node5 -->
<g id="node5" class="node">
<title>Node5</title>
<g id="a_node5"><a xlink:href="classCellPtr.html" target="_top" xlink:title=" ">
<polygon fill="white" stroke="#666666" points="524.5,-222.8 405.5,-222.8 405.5,-203.8 524.5,-203.8 524.5,-222.8"/>
<text text-anchor="middle" x="465" y="-210.8" font-family="Helvetica,sans-Serif" font-size="10.00">CellPtr&lt; GroupCell &gt;</text>
</a>
</g>
</g>
<!-- Node5&#45;&gt;Node3 -->
<g id="edge4" class="edge">
<title>Node5&#45;&gt;Node3</title>
<path fill="none" stroke="#9a32cd" stroke-dasharray="5,2" d="M534.48,-207.27C575.83,-202.78 629.38,-195.47 676,-184.3 697.6,-179.12 721.64,-170.32 737.24,-164.17"/>
<polygon fill="#9a32cd" stroke="#9a32cd" points="534.09,-203.79 524.51,-208.32 534.82,-210.75 534.09,-203.79"/>
<text text-anchor="middle" x="617.5" y="-206.3" font-family="Helvetica,sans-Serif" font-size="10.00"> m_group</text>
</g>
<!-- Node6 -->
<g id="node6" class="node">
<title>Node6</title>
<g id="a_node6"><a xlink:href="classCellPtrBase.html" target="_top" xlink:title="An implementation detail for the type&#45;specific templated cell pointers.">
<polygon fill="white" stroke="#666666" points="260,-200.8 187,-200.8 187,-181.8 260,-181.8 260,-200.8"/>
<text text-anchor="middle" x="223.5" y="-188.8" font-family="Helvetica,sans-Serif" font-size="10.00">CellPtrBase</text>
</a>
</g>
</g>
<!-- Node6&#45;&gt;Node5 -->
<g id="edge5" class="edge">
<title>Node6&#45;&gt;Node5</title>
<path fill="none" stroke="#63b8ff" d="M270.28,-195.58C272.89,-195.83 275.48,-196.07 278,-196.3 320.62,-200.24 368.74,-204.64 405.36,-207.97"/>
<polygon fill="#63b8ff" stroke="#63b8ff" points="270.46,-192.09 260.18,-194.64 269.82,-199.06 270.46,-192.09"/>
</g>
<!-- Node7 -->
<g id="node7" class="node">
<title>Node7</title>
<g id="a_node7"><a xlink:href="classCellPtr.html" target="_top" xlink:title=" ">
<polygon fill="white" stroke="#666666" points="510,-185.8 420,-185.8 420,-166.8 510,-166.8 510,-185.8"/>
<text text-anchor="middle" x="465" y="-173.8" font-family="Helvetica,sans-Serif" font-size="10.00">CellPtr&lt; Cell &gt;</text>
</a>
</g>
</g>
<!-- Node6&#45;&gt;Node7 -->
<g id="edge7" class="edge">
<title>Node6&#45;&gt;Node7</title>
<path fill="none" stroke="#63b8ff" d="M270.28,-188.43C313.26,-185.74 377.13,-181.74 419.64,-179.08"/>
<polygon fill="#63b8ff" stroke="#63b8ff" points="269.86,-184.95 260.1,-189.07 270.3,-191.94 269.86,-184.95"/>
</g>
<!-- Node7&#45;&gt;Node3 -->
<g id="edge6" class="edge">
<title>Node7&#45;&gt;Node3</title>
<path fill="none" stroke="#9a32cd" stroke-dasharray="5,2" d="M520.37,-172.71C587.01,-168.32 696.16,-161.12 737.46,-158.39"/>
<polygon fill="#9a32cd" stroke="#9a32cd" points="519.8,-169.24 510.05,-173.39 520.26,-176.23 519.8,-169.24"/>
<text text-anchor="middle" x="617.5" y="-172.3" font-family="Helvetica,sans-Serif" font-size="10.00"> m_nextToDraw</text>
</g>
<!-- Node8 -->
<g id="node8" class="node">
<title>Node8</title>
<g id="a_node8"><a xlink:href="classConfiguration.html" target="_top" xlink:title="The configuration storage for the current worksheet.">
<polygon fill="white" stroke="#666666" points="506,-109.8 424,-109.8 424,-90.8 506,-90.8 506,-109.8"/>
<text text-anchor="middle" x="465" y="-97.8" font-family="Helvetica,sans-Serif" font-size="10.00">Configuration</text>
</a>
</g>
</g>
<!-- Node8&#45;&gt;Node3 -->
<g id="edge8" class="edge">
<title>Node8&#45;&gt;Node3</title>
<path fill="none" stroke="#9a32cd" stroke-dasharray="5,2" d="M516.29,-98.55C569.55,-97.54 649.54,-98.7 676,-113.3 687.99,-119.92 682.91,-130.27 694,-138.3 706.92,-147.66 724.62,-152.52 737.44,-154.97"/>
<polygon fill="#9a32cd" stroke="#9a32cd" points="515.93,-95.06 506.01,-98.78 516.09,-102.05 515.93,-95.06"/>
<text text-anchor="middle" x="617.5" y="-116.3" font-family="Helvetica,sans-Serif" font-size="10.00"> m_configuration</text>
</g>
<!-- Node9 -->
<g id="node9" class="node">
<title>Node9</title>
<g id="a_node9"><a xlink:href="classStyle.html" target="_top" xlink:title="Text Style Definition.">
<polygon fill="white" stroke="#666666" points="244,-109.8 203,-109.8 203,-90.8 244,-90.8 244,-109.8"/>
<text text-anchor="middle" x="223.5" y="-97.8" font-family="Helvetica,sans-Serif" font-size="10.00">Style</text>
</a>
</g>
</g>
<!-- Node9&#45;&gt;Node8 -->
<g id="edge9" class="edge">
<title>Node9&#45;&gt;Node8</title>
<path fill="none" stroke="#9a32cd" stroke-dasharray="5,2" d="M254.13,-100.3C296.79,-100.3 375.67,-100.3 423.63,-100.3"/>
<polygon fill="#9a32cd" stroke="#9a32cd" points="254.1,-96.8 244.1,-100.3 254.1,-103.8 254.1,-96.8"/>
<text text-anchor="middle" x="324.5" y="-103.3" font-family="Helvetica,sans-Serif" font-size="10.00"> m_styles</text>
</g>
<!-- Node10 -->
<g id="node10" class="node">
<title>Node10</title>
<g id="a_node10"><a xlink:href="classAFontSize.html" target="_top" xlink:title="A Type&#45;Safe Fixed&#45;Point Font Size.">
<polygon fill="white" stroke="#666666" points="65,-128.8 0,-128.8 0,-109.8 65,-109.8 65,-128.8"/>
<text text-anchor="middle" x="32.5" y="-116.8" font-family="Helvetica,sans-Serif" font-size="10.00">AFontSize</text>
</a>
</g>
</g>
<!-- Node10&#45;&gt;Node3 -->
<g id="edge12" class="edge">
<title>Node10&#45;&gt;Node3</title>
<path fill="none" stroke="#9a32cd" stroke-dasharray="5,2" d="M75.26,-123.67C77.88,-123.9 80.48,-124.11 83,-124.3 343.53,-143.85 661.87,-154.45 737.38,-156.8"/>
<polygon fill="#9a32cd" stroke="#9a32cd" points="75.45,-120.17 65.17,-122.74 74.8,-127.15 75.45,-120.17"/>
<text text-anchor="middle" x="324.5" y="-156.3" font-family="Helvetica,sans-Serif" font-size="10.00"> m_fontSize</text>
<text text-anchor="middle" x="324.5" y="-145.3" font-family="Helvetica,sans-Serif" font-size="10.00">m_fontSize_Scaled</text>
</g>
<!-- Node10&#45;&gt;Node9 -->
<g id="edge10" class="edge">
<title>Node10&#45;&gt;Node9</title>
<path fill="none" stroke="#9a32cd" stroke-dasharray="5,2" d="M75.27,-114.15C77.88,-113.86 80.48,-113.57 83,-113.3 125.57,-108.74 175.54,-104.3 202.62,-101.98"/>
<polygon fill="#9a32cd" stroke="#9a32cd" points="74.7,-110.7 65.17,-115.33 75.51,-117.65 74.7,-110.7"/>
<text text-anchor="middle" x="126" y="-116.3" font-family="Helvetica,sans-Serif" font-size="10.00"> Default_FontSize</text>
</g>
<!-- Node11 -->
<g id="node11" class="node">
<title>Node11</title>
<g id="a_node11"><a xlink:href="classCachedInteger.html" target="_top" xlink:title=" ">
<polygon fill="white" stroke="#666666" points="541,-32.8 389,-32.8 389,-13.8 541,-13.8 541,-32.8"/>
<text text-anchor="middle" x="465" y="-20.8" font-family="Helvetica,sans-Serif" font-size="10.00">CachedInteger&lt; wxCoord &gt;</text>
</a>
</g>
</g>
<!-- Node11&#45;&gt;Node3 -->
<g id="edge11" class="edge">
<title>Node11&#45;&gt;Node3</title>
<path fill="none" stroke="#9a32cd" stroke-dasharray="5,2" d="M504.96,-11.17C551.57,0.69 629.16,11.6 676,-29.3 712.98,-61.6 661.85,-101.19 694,-138.3 704.8,-150.77 723.74,-155.14 737.45,-156.63"/>
<polygon fill="#9a32cd" stroke="#9a32cd" points="503.98,-7.81 495.23,-13.78 505.79,-14.57 503.98,-7.81"/>
<text text-anchor="middle" x="617.5" y="-87.3" font-family="Helvetica,sans-Serif" font-size="10.00"> m_cachedCenterList</text>
<text text-anchor="middle" x="617.5" y="-76.3" font-family="Helvetica,sans-Serif" font-size="10.00">m_cachedMaxDrop</text>
<text text-anchor="middle" x="617.5" y="-65.3" font-family="Helvetica,sans-Serif" font-size="10.00">m_cachedSumOfWidths</text>
<text text-anchor="middle" x="617.5" y="-54.3" font-family="Helvetica,sans-Serif" font-size="10.00">m_center</text>
<text text-anchor="middle" x="617.5" y="-43.3" font-family="Helvetica,sans-Serif" font-size="10.00">m_height</text>
<text text-anchor="middle" x="617.5" y="-32.3" font-family="Helvetica,sans-Serif" font-size="10.00">m_width</text>
</g>
<!-- Node12 -->
<g id="node12" class="node">
<title>Node12</title>
<g id="a_node12"><a xlink:href="classCachedInteger.html" target="_top" xlink:title=" ">
<polygon fill="white" stroke="#666666" points="816,-129.8 694,-129.8 694,-110.8 816,-110.8 816,-129.8"/>
<text text-anchor="middle" x="755" y="-117.8" font-family="Helvetica,sans-Serif" font-size="10.00">CachedInteger&lt; int &gt;</text>
</a>
</g>
</g>
<!-- Node12&#45;&gt;Node2 -->
<g id="edge13" class="edge">
<title>Node12&#45;&gt;Node2</title>
<path fill="none" stroke="#9a32cd" stroke-dasharray="5,2" d="M826.37,-121.41C851.26,-122.26 879.42,-123.74 905,-126.3 910.78,-126.88 916.97,-127.73 922.8,-128.64"/>
<polygon fill="#9a32cd" stroke="#9a32cd" points="826.39,-117.91 816.29,-121.09 826.17,-124.91 826.39,-117.91"/>
<text text-anchor="middle" x="869.5" y="-129.3" font-family="Helvetica,sans-Serif" font-size="10.00"> m_signHeight</text>
</g>
</g>
</svg>
        <g id="navigator" transform="translate(0 0)" fill="#404254">
                <rect fill="#f2f5e9" fill-opacity="0.5" stroke="#606060" stroke-width=".5" x="0" y="0" width="60" height="60"/>
                <use id="zoomplus" xlink:href="#zoomPlus" x="17" y="9" onmousedown="handleZoom(evt,'in')"/>
                <use id="zoomminus" xlink:href="#zoomMin" x="42" y="9" onmousedown="handleZoom(evt,'out')"/>
                <use id="reset" xlink:href="#resetDef" x="30" y="36" onmousedown="handleReset()"/>
                <g id="arrowUp" xlink:href="#dirArrow" transform="translate(30 24)" onmousedown="handlePan(0,-1)">
                  <use xlink:href="#rim" fill="#404040">
                        <set attributeName="fill" to="#808080" begin="arrowUp.mouseover" end="arrowUp.mouseout"/>
                  </use>
                  <path fill="none" stroke="white" stroke-width="1.5" d="M0,-3.0v7 M-2.5,-0.5L0,-3.0L2.5,-0.5"/>
                </g>
                <g id="arrowRight" xlink:href="#dirArrow" transform="rotate(90) translate(36 -43)" onmousedown="handlePan(1,0)">
                  <use xlink:href="#rim" fill="#404040">
                        <set attributeName="fill" to="#808080" begin="arrowRight.mouseover" end="arrowRight.mouseout"/>
                  </use>
                  <path fill="none" stroke="white" stroke-width="1.5" d="M0,-3.0v7 M-2.5,-0.5L0,-3.0L2.5,-0.5"/>
                </g>
                <g id="arrowDown" xlink:href="#dirArrow" transform="rotate(180) translate(-30 -48)" onmousedown="handlePan(0,1)">
                  <use xlink:href="#rim" fill="#404040">
                        <set attributeName="fill" to="#808080" begin="arrowDown.mouseover" end="arrowDown.mouseout"/>
                  </use>
                  <path fill="none" stroke="white" stroke-width="1.5" d="M0,-3.0v7 M-2.5,-0.5L0,-3.0L2.5,-0.5"/>
                </g>
                <g id="arrowLeft" xlink:href="#dirArrow" transform="rotate(270) translate(-36 17)" onmousedown="handlePan(-1,0)">
                  <use xlink:href="#rim" fill="#404040">
                        <set attributeName="fill" to="#808080" begin="arrowLeft.mouseover" end="arrowLeft.mouseout"/>
                  </use>
                  <path fill="none" stroke="white" stroke-width="1.5" d="M0,-3.0v7 M-2.5,-0.5L0,-3.0L2.5,-0.5"/>
                </g>
        </g>
        <svg viewBox="0 0 15 15" width="100%" height="30px" preserveAspectRatio="xMaxYMin meet">
         <g id="arrow_out" transform="scale(0.3 0.3)">
          <a xlink:href="classSetCell__coll__graph_org.svg" target="_base">
           <rect id="button" ry="5" rx="5" y="6" x="6" height="38" width="38"
                fill="#f2f5e9" fill-opacity="0.5" stroke="#606060" stroke-width="1.0"/>
           <path id="arrow"
             d="M 11.500037,31.436501 C 11.940474,20.09759 22.043105,11.32322 32.158766,21.979434 L 37.068811,17.246167 C 37.068811,17.246167 37.088388,32 37.088388,32 L 22.160133,31.978069 C 22.160133,31.978069 26.997745,27.140456 26.997745,27.140456 C 18.528582,18.264221 13.291696,25.230495 11.500037,31.436501 z"
             style="fill:#404040;"/>
          </a>
         </g>
        </svg>
</svg>
