<?xml version="1.0" encoding="UTF-8" standalone="no"?>
<!DOCTYPE svg PUBLIC "-//W3C//DTD SVG 1.1//EN"
 "http://www.w3.org/Graphics/SVG/1.1/DTD/svg11.dtd">
<!-- Generated by graphviz version 2.43.0 (0)
 -->
<!-- Title: CellPointers Pages: 1 -->
<svg width="496pt" height="279pt"
 viewBox="0.00 0.00 496.00 279.17" xmlns="http://www.w3.org/2000/svg" xmlns:xlink="http://www.w3.org/1999/xlink">
<g id="graph0" class="graph" transform="scale(1 1) rotate(0) translate(4 275.17)">
<title>CellPointers</title>
<!-- Node1 -->
<g id="node1" class="node">
<title>Node1</title>
<g id="a_node1"><a xlink:title="The storage for pointers to cells.">
<polygon fill="#999999" stroke="#666666" points="488,-102.67 413,-102.67 413,-83.67 488,-83.67 488,-102.67"/>
<text text-anchor="middle" x="450.5" y="-90.67" font-family="Helvetica,sans-Serif" font-size="10.00">CellPointers</text>
</a>
</g>
</g>
<!-- Node2 -->
<g id="node2" class="node">
<title>Node2</title>
<g id="a_node2"><a xlink:href="classCellPointers_1_1ErrorList.html" target="_top" xlink:title="A list of editor cells containing error messages.">
<polygon fill="white" stroke="#666666" points="232,-258.67 110,-258.67 110,-239.67 232,-239.67 232,-258.67"/>
<text text-anchor="middle" x="171" y="-246.67" font-family="Helvetica,sans-Serif" font-size="10.00">CellPointers::ErrorList</text>
</a>
</g>
</g>
<!-- Node2&#45;&gt;Node1 -->
<g id="edge1" class="edge">
<title>Node2&#45;&gt;Node1</title>
<path fill="none" stroke="#9a32cd" stroke-dasharray="5,2" d="M242.21,-259.47C289.83,-262.57 351.74,-258.54 395,-226.17 436.16,-195.38 446.37,-128.02 448.79,-102.89"/>
<polygon fill="#9a32cd" stroke="#9a32cd" points="242.21,-255.96 231.97,-258.68 241.67,-262.94 242.21,-255.96"/>
<text text-anchor="middle" x="322.5" y="-263.17" font-family="Helvetica,sans-Serif" font-size="10.00"> m_errorList</text>
</g>
<!-- Node3 -->
<g id="node3" class="node">
<title>Node3</title>
<g id="a_node3"><a xlink:href="classCellPtr.html" target="_top" xlink:title=" ">
<polygon fill="white" stroke="#666666" points="230.5,-150.67 111.5,-150.67 111.5,-131.67 230.5,-131.67 230.5,-150.67"/>
<text text-anchor="middle" x="171" y="-138.67" font-family="Helvetica,sans-Serif" font-size="10.00">CellPtr&lt; EditorCell &gt;</text>
</a>
</g>
</g>
<!-- Node3&#45;&gt;Node1 -->
<g id="edge2" class="edge">
<title>Node3&#45;&gt;Node1</title>
<path fill="none" stroke="#9a32cd" stroke-dasharray="5,2" d="M240.95,-145.46C285.86,-146.18 345.14,-143.16 395,-127.17 411.14,-122 427.33,-110.98 437.82,-102.88"/>
<polygon fill="#9a32cd" stroke="#9a32cd" points="240.81,-141.96 230.73,-145.23 240.65,-148.95 240.81,-141.96"/>
<text text-anchor="middle" x="322.5" y="-214.17" font-family="Helvetica,sans-Serif" font-size="10.00"> m_activeCell</text>
<text text-anchor="middle" x="322.5" y="-203.17" font-family="Helvetica,sans-Serif" font-size="10.00">m_answerCell</text>
<text text-anchor="start" x="250" y="-192.17" font-family="Helvetica,sans-Serif" font-size="10.00">m_cellKeyboardSelection</text>
<text text-anchor="middle" x="322.5" y="-181.17" font-family="Helvetica,sans-Serif" font-size="10.00">StartedIn</text>
<text text-anchor="start" x="250" y="-170.17" font-family="Helvetica,sans-Serif" font-size="10.00">m_cellMouseSelectionStarted</text>
<text text-anchor="middle" x="322.5" y="-159.17" font-family="Helvetica,sans-Serif" font-size="10.00">In</text>
<text text-anchor="middle" x="322.5" y="-148.17" font-family="Helvetica,sans-Serif" font-size="10.00">m_cellSearchStartedIn</text>
</g>
<!-- Node4 -->
<g id="node4" class="node">
<title>Node4</title>
<g id="a_node4"><a xlink:href="classCellPtrBase.html" target="_top" xlink:title="An implementation detail for the type&#45;specific templated cell pointers.">
<polygon fill="white" stroke="#666666" points="73,-85.67 0,-85.67 0,-66.67 73,-66.67 73,-85.67"/>
<text text-anchor="middle" x="36.5" y="-73.67" font-family="Helvetica,sans-Serif" font-size="10.00">CellPtrBase</text>
</a>
</g>
</g>
<!-- Node4&#45;&gt;Node3 -->
<g id="edge3" class="edge">
<title>Node4&#45;&gt;Node3</title>
<path fill="none" stroke="#63b8ff" d="M63.8,-90.44C77.48,-97.74 94.53,-106.64 110,-114.17 122.43,-120.22 136.51,-126.58 147.91,-131.61"/>
<polygon fill="#63b8ff" stroke="#63b8ff" points="65.4,-87.33 54.93,-85.68 62.09,-93.49 65.4,-87.33"/>
</g>
<!-- Node5 -->
<g id="node5" class="node">
<title>Node5</title>
<g id="a_node5"><a xlink:href="classCellPtr.html" target="_top" xlink:title=" ">
<polygon fill="white" stroke="#666666" points="230.5,-104.67 111.5,-104.67 111.5,-85.67 230.5,-85.67 230.5,-104.67"/>
<text text-anchor="middle" x="171" y="-92.67" font-family="Helvetica,sans-Serif" font-size="10.00">CellPtr&lt; GroupCell &gt;</text>
</a>
</g>
</g>
<!-- Node4&#45;&gt;Node5 -->
<g id="edge5" class="edge">
<title>Node4&#45;&gt;Node5</title>
<path fill="none" stroke="#63b8ff" d="M83.02,-82.7C92.15,-84.01 101.87,-85.4 111.37,-86.76"/>
<polygon fill="#63b8ff" stroke="#63b8ff" points="83.4,-79.22 73.01,-81.26 82.41,-86.15 83.4,-79.22"/>
</g>
<!-- Node6 -->
<g id="node6" class="node">
<title>Node6</title>
<g id="a_node6"><a xlink:href="classCellPtr.html" target="_top" xlink:title=" ">
<polygon fill="white" stroke="#666666" points="226,-67.67 116,-67.67 116,-48.67 226,-48.67 226,-67.67"/>
<text text-anchor="middle" x="171" y="-55.67" font-family="Helvetica,sans-Serif" font-size="10.00">CellPtr&lt; TextCell &gt;</text>
</a>
</g>
</g>
<!-- Node4&#45;&gt;Node6 -->
<g id="edge7" class="edge">
<title>Node4&#45;&gt;Node6</title>
<path fill="none" stroke="#63b8ff" d="M83.24,-69.96C93.78,-68.53 105.08,-66.99 115.93,-65.52"/>
<polygon fill="#63b8ff" stroke="#63b8ff" points="82.45,-66.53 73.01,-71.35 83.39,-73.47 82.45,-66.53"/>
</g>
<!-- Node7 -->
<g id="node7" class="node">
<title>Node7</title>
<g id="a_node7"><a xlink:href="classCellPtr.html" target="_top" xlink:title=" ">
<polygon fill="white" stroke="#666666" points="216,-21.67 126,-21.67 126,-2.67 216,-2.67 216,-21.67"/>
<text text-anchor="middle" x="171" y="-9.67" font-family="Helvetica,sans-Serif" font-size="10.00">CellPtr&lt; Cell &gt;</text>
</a>
</g>
</g>
<!-- Node4&#45;&gt;Node7 -->
<g id="edge9" class="edge">
<title>Node4&#45;&gt;Node7</title>
<path fill="none" stroke="#63b8ff" d="M65.7,-61.97C79.08,-55.28 95.33,-47.24 110,-40.17 122.95,-33.94 137.55,-27.12 149.12,-21.77"/>
<polygon fill="#63b8ff" stroke="#63b8ff" points="63.89,-58.96 56.52,-66.57 67.03,-65.22 63.89,-58.96"/>
</g>
<!-- Node5&#45;&gt;Node1 -->
<g id="edge4" class="edge">
<title>Node5&#45;&gt;Node1</title>
<path fill="none" stroke="#9a32cd" stroke-dasharray="5,2" d="M240.79,-94.26C243.9,-94.23 246.98,-94.2 250,-94.17 306.8,-93.67 372.7,-93.4 412.73,-93.27"/>
<polygon fill="#9a32cd" stroke="#9a32cd" points="240.74,-90.76 230.77,-94.37 240.81,-97.76 240.74,-90.76"/>
<text text-anchor="middle" x="322.5" y="-119.17" font-family="Helvetica,sans-Serif" font-size="10.00"> m_groupCellUnderPointer</text>
<text text-anchor="middle" x="322.5" y="-108.17" font-family="Helvetica,sans-Serif" font-size="10.00">m_lastWorkingGroup</text>
<text text-anchor="middle" x="322.5" y="-97.17" font-family="Helvetica,sans-Serif" font-size="10.00">m_workingGroup</text>
</g>
<!-- Node6&#45;&gt;Node1 -->
<g id="edge6" class="edge">
<title>Node6&#45;&gt;Node1</title>
<path fill="none" stroke="#9a32cd" stroke-dasharray="5,2" d="M236.59,-60.9C281.33,-63.54 342.13,-68.6 395,-78.17 402.73,-79.57 410.94,-81.56 418.59,-83.63"/>
<polygon fill="#9a32cd" stroke="#9a32cd" points="236.62,-57.4 226.44,-60.33 236.22,-64.39 236.62,-57.4"/>
<text text-anchor="middle" x="322.5" y="-81.17" font-family="Helvetica,sans-Serif" font-size="10.00"> m_currentTextCell</text>
</g>
<!-- Node7&#45;&gt;Node1 -->
<g id="edge8" class="edge">
<title>Node7&#45;&gt;Node1</title>
<path fill="none" stroke="#9a32cd" stroke-dasharray="5,2" d="M226.3,-3.11C273.58,2.08 342.56,3 395,-24.17 420.21,-37.23 437.56,-67.74 445.16,-83.45"/>
<polygon fill="#9a32cd" stroke="#9a32cd" points="225.77,0.35 216.26,-4.32 226.6,-6.6 225.77,0.35"/>
<text text-anchor="middle" x="322.5" y="-49.17" font-family="Helvetica,sans-Serif" font-size="10.00"> m_cellUnderPointer</text>
<text text-anchor="middle" x="322.5" y="-38.17" font-family="Helvetica,sans-Serif" font-size="10.00">m_selectionEnd</text>
<text text-anchor="middle" x="322.5" y="-27.17" font-family="Helvetica,sans-Serif" font-size="10.00">m_selectionStart</text>
</g>
</g>
</svg>
