<?xml version="1.0" encoding="UTF-8" standalone="no"?>
<!DOCTYPE svg PUBLIC "-//W3C//DTD SVG 1.1//EN"
 "http://www.w3.org/Graphics/SVG/1.1/DTD/svg11.dtd">
<!-- Generated by graphviz version 2.43.0 (0)
 -->
<!-- Title: SetCell Pages: 1 -->
<!--zoomable 279 -->
<svg id="main" version="1.1" xmlns="http://www.w3.org/2000/svg" xmlns:xlink="http://www.w3.org/1999/xlink" xml:space="preserve" onload="init(evt)">
<style type="text/css"><![CDATA[
.edge:hover path { stroke: red; }
.edge:hover polygon { stroke: red; fill: red; }
]]></style>
<script type="text/javascript"><![CDATA[
var edges = document.getElementsByTagName('g');
if (edges && edges.length) {
  for (var i=0;i<edges.length;i++) {
    if (edges[i].id.substr(0,4)=='edge') {
      edges[i].setAttribute('class','edge');
    }
  }
}
]]></script>
        <defs>
                <circle id="rim" cx="0" cy="0" r="7"/>
                <circle id="rim2" cx="0" cy="0" r="3.5"/>
                <g id="zoomPlus">
                        <use xlink:href="#rim" fill="#404040">
                                <set attributeName="fill" to="#808080" begin="zoomplus.mouseover" end="zoomplus.mouseout"/>
                        </use>
                        <path d="M-4,0h8M0,-4v8" fill="none" stroke="white" stroke-width="1.5" pointer-events="none"/>
                </g>
                <g id="zoomMin">
                        <use xlink:href="#rim" fill="#404040">
                                <set attributeName="fill" to="#808080" begin="zoomminus.mouseover" end="zoomminus.mouseout"/>
                        </use>
                        <path d="M-4,0h8" fill="none" stroke="white" stroke-width="1.5" pointer-events="none"/>
                </g>
                <g id="dirArrow">
                        <path fill="none" stroke="white" stroke-width="1.5" d="M0,-3.0v7 M-2.5,-0.5L0,-3.0L2.5,-0.5"/>
                </g>
               <g id="resetDef">
                       <use xlink:href="#rim2" fill="#404040">
                               <set attributeName="fill" to="#808080" begin="reset.mouseover" end="reset.mouseout"/>
                       </use>
               </g>
        </defs>

<script type="text/javascript">
var viewWidth = 1072;
var viewHeight = 279;
var sectionId = 'dynsection-1';
</script>
<script xlink:href="svgpan.js"/>
<svg id="graph" class="graph">
<g id="viewport">
<title>SetCell</title>
<!-- Node1 -->
<g id="node1" class="node">
<title>Node1</title>
<g id="a_node1"><a xlink:title="The class that represents parenthesis that are wrapped around text.">
<polygon fill="#999999" stroke="#666666" points="1064,-154.02 1013,-154.02 1013,-135.02 1064,-135.02 1064,-154.02"/>
<text text-anchor="middle" x="1038.5" y="-142.02" font-family="Helvetica,sans-Serif" font-size="10.00">SetCell</text>
</a>
</g>
</g>
<!-- Node2 -->
<g id="node2" class="node">
<title>Node2</title>
<g id="a_node2"><a xlink:href="classListCell.html" target="_top" xlink:title="The class that represents parenthesis that are wrapped around text.">
<polygon fill="white" stroke="#666666" points="976,-154.02 923,-154.02 923,-135.02 976,-135.02 976,-154.02"/>
<text text-anchor="middle" x="949.5" y="-142.02" font-family="Helvetica,sans-Serif" font-size="10.00">ListCell</text>
</a>
</g>
</g>
<!-- Node2&#45;&gt;Node1 -->
<g id="edge1" class="edge">
<title>Node2&#45;&gt;Node1</title>
<path fill="none" stroke="#63b8ff" d="M986.34,-144.52C995.29,-144.52 1004.68,-144.52 1012.95,-144.52"/>
<polygon fill="#63b8ff" stroke="#63b8ff" points="986.13,-141.02 976.13,-144.52 986.13,-148.02 986.13,-141.02"/>
</g>
<!-- Node3 -->
<g id="node3" class="node">
<title>Node3</title>
<g id="a_node3"><a xlink:href="classCell.html" target="_top" xlink:title="The base class all cell types the worksheet can consist of are derived from.">
<polygon fill="white" stroke="#666666" points="772.5,-178.02 737.5,-178.02 737.5,-159.02 772.5,-159.02 772.5,-178.02"/>
<text text-anchor="middle" x="755" y="-166.02" font-family="Helvetica,sans-Serif" font-size="10.00">Cell</text>
</a>
</g>
</g>
<!-- Node3&#45;&gt;Node2 -->
<g id="edge2" class="edge">
<title>Node3&#45;&gt;Node2</title>
<path fill="none" stroke="#63b8ff" d="M782.82,-165.18C819.93,-160.55 886.49,-152.25 922.93,-147.71"/>
<polygon fill="#63b8ff" stroke="#63b8ff" points="782.24,-161.72 772.75,-166.43 783.1,-168.67 782.24,-161.72"/>
</g>
<!-- Node4 -->
<g id="node4" class="node">
<title>Node4</title>
<g id="a_node4"><a xlink:href="classObserved.html" target="_top" xlink:title="Objects deriving from this class can be observed by the CellPtr.">
<polygon fill="white" stroke="#666666" points="496.5,-271.02 433.5,-271.02 433.5,-252.02 496.5,-252.02 496.5,-271.02"/>
<text text-anchor="middle" x="465" y="-259.02" font-family="Helvetica,sans-Serif" font-size="10.00">Observed</text>
</a>
</g>
</g>
<!-- Node4&#45;&gt;Node3 -->
<g id="edge3" class="edge">
<title>Node4&#45;&gt;Node3</title>
<path fill="none" stroke="#63b8ff" d="M506.74,-261.37C550.32,-259.84 620.63,-253.42 676,-229.52 704.41,-217.26 731.43,-192.08 744.97,-178.21"/>
<polygon fill="#63b8ff" stroke="#63b8ff" points="506.43,-257.87 496.53,-261.65 506.62,-264.87 506.43,-257.87"/>
</g>
<!-- Node5 -->
<g id="node5" class="node">
<title>Node5</title>
<g id="a_node5"><a xlink:href="classCellPtr.html" target="_top" xlink:title=" ">
<polygon fill="white" stroke="#666666" points="524.5,-234.02 405.5,-234.02 405.5,-215.02 524.5,-215.02 524.5,-234.02"/>
<text text-anchor="middle" x="465" y="-222.02" font-family="Helvetica,sans-Serif" font-size="10.00">CellPtr&lt; GroupCell &gt;</text>
</a>
</g>
</g>
<!-- Node5&#45;&gt;Node3 -->
<g id="edge4" class="edge">
<title>Node5&#45;&gt;Node3</title>
<path fill="none" stroke="#9a32cd" stroke-dasharray="5,2" d="M534.48,-218.49C575.83,-214.01 629.38,-206.69 676,-195.52 697.6,-190.34 721.64,-181.54 737.24,-175.39"/>
<polygon fill="#9a32cd" stroke="#9a32cd" points="534.09,-215.01 524.51,-219.54 534.82,-221.97 534.09,-215.01"/>
<text text-anchor="middle" x="617.5" y="-217.52" font-family="Helvetica,sans-Serif" font-size="10.00"> m_group</text>
</g>
<!-- Node6 -->
<g id="node6" class="node">
<title>Node6</title>
<g id="a_node6"><a xlink:href="classCellPtrBase.html" target="_top" xlink:title="An implementation detail for the type&#45;specific templated cell pointers.">
<polygon fill="white" stroke="#666666" points="260,-212.02 187,-212.02 187,-193.02 260,-193.02 260,-212.02"/>
<text text-anchor="middle" x="223.5" y="-200.02" font-family="Helvetica,sans-Serif" font-size="10.00">CellPtrBase</text>
</a>
</g>
</g>
<!-- Node6&#45;&gt;Node5 -->
<g id="edge5" class="edge">
<title>Node6&#45;&gt;Node5</title>
<path fill="none" stroke="#63b8ff" d="M270.28,-206.81C272.89,-207.05 275.48,-207.29 278,-207.52 320.62,-211.46 368.74,-215.86 405.36,-219.19"/>
<polygon fill="#63b8ff" stroke="#63b8ff" points="270.46,-203.31 260.18,-205.87 269.82,-210.28 270.46,-203.31"/>
</g>
<!-- Node7 -->
<g id="node7" class="node">
<title>Node7</title>
<g id="a_node7"><a xlink:href="classCellPtr.html" target="_top" xlink:title=" ">
<polygon fill="white" stroke="#666666" points="510,-197.02 420,-197.02 420,-178.02 510,-178.02 510,-197.02"/>
<text text-anchor="middle" x="465" y="-185.02" font-family="Helvetica,sans-Serif" font-size="10.00">CellPtr&lt; Cell &gt;</text>
</a>
</g>
</g>
<!-- Node6&#45;&gt;Node7 -->
<g id="edge7" class="edge">
<title>Node6&#45;&gt;Node7</title>
<path fill="none" stroke="#63b8ff" d="M270.28,-199.65C313.26,-196.96 377.13,-192.96 419.64,-190.3"/>
<polygon fill="#63b8ff" stroke="#63b8ff" points="269.86,-196.17 260.1,-200.29 270.3,-203.16 269.86,-196.17"/>
</g>
<!-- Node7&#45;&gt;Node3 -->
<g id="edge6" class="edge">
<title>Node7&#45;&gt;Node3</title>
<path fill="none" stroke="#9a32cd" stroke-dasharray="5,2" d="M520.37,-183.93C587.01,-179.54 696.16,-172.34 737.46,-169.61"/>
<polygon fill="#9a32cd" stroke="#9a32cd" points="519.8,-180.46 510.05,-184.61 520.26,-187.45 519.8,-180.46"/>
<text text-anchor="middle" x="617.5" y="-183.52" font-family="Helvetica,sans-Serif" font-size="10.00"> m_nextToDraw</text>
</g>
<!-- Node8 -->
<g id="node8" class="node">
<title>Node8</title>
<g id="a_node8"><a xlink:href="classConfiguration.html" target="_top" xlink:title="The configuration storage for the current worksheet.">
<polygon fill="white" stroke="#666666" points="506,-121.02 424,-121.02 424,-102.02 506,-102.02 506,-121.02"/>
<text text-anchor="middle" x="465" y="-109.02" font-family="Helvetica,sans-Serif" font-size="10.00">Configuration</text>
</a>
</g>
</g>
<!-- Node8&#45;&gt;Node3 -->
<g id="edge8" class="edge">
<title>Node8&#45;&gt;Node3</title>
<path fill="none" stroke="#9a32cd" stroke-dasharray="5,2" d="M516.29,-109.77C569.55,-108.76 649.54,-109.92 676,-124.52 687.99,-131.14 682.91,-141.49 694,-149.52 706.92,-158.88 724.62,-163.74 737.44,-166.19"/>
<polygon fill="#9a32cd" stroke="#9a32cd" points="515.93,-106.28 506.01,-110 516.09,-113.27 515.93,-106.28"/>
<text text-anchor="middle" x="617.5" y="-127.52" font-family="Helvetica,sans-Serif" font-size="10.00"> m_configuration</text>
</g>
<!-- Node9 -->
<g id="node9" class="node">
<title>Node9</title>
<g id="a_node9"><a xlink:href="classStyle.html" target="_top" xlink:title="Text Style Definition.">
<polygon fill="white" stroke="#666666" points="244,-121.02 203,-121.02 203,-102.02 244,-102.02 244,-121.02"/>
<text text-anchor="middle" x="223.5" y="-109.02" font-family="Helvetica,sans-Serif" font-size="10.00">Style</text>
</a>
</g>
</g>
<!-- Node9&#45;&gt;Node8 -->
<g id="edge9" class="edge">
<title>Node9&#45;&gt;Node8</title>
<path fill="none" stroke="#9a32cd" stroke-dasharray="5,2" d="M254.13,-111.52C296.79,-111.52 375.67,-111.52 423.63,-111.52"/>
<polygon fill="#9a32cd" stroke="#9a32cd" points="254.1,-108.02 244.1,-111.52 254.1,-115.02 254.1,-108.02"/>
<text text-anchor="middle" x="324.5" y="-114.52" font-family="Helvetica,sans-Serif" font-size="10.00"> m_styles</text>
</g>
<!-- Node10 -->
<g id="node10" class="node">
<title>Node10</title>
<g id="a_node10"><a xlink:href="classAFontSize.html" target="_top" xlink:title="A Type&#45;Safe Fixed&#45;Point Font Size.">
<polygon fill="white" stroke="#666666" points="65,-140.02 0,-140.02 0,-121.02 65,-121.02 65,-140.02"/>
<text text-anchor="middle" x="32.5" y="-128.02" font-family="Helvetica,sans-Serif" font-size="10.00">AFontSize</text>
</a>
</g>
</g>
<!-- Node10&#45;&gt;Node3 -->
<g id="edge12" class="edge">
<title>Node10&#45;&gt;Node3</title>
<path fill="none" stroke="#9a32cd" stroke-dasharray="5,2" d="M75.26,-134.89C77.88,-135.12 80.48,-135.33 83,-135.52 343.53,-155.07 661.87,-165.67 737.38,-168.02"/>
<polygon fill="#9a32cd" stroke="#9a32cd" points="75.45,-131.4 65.17,-133.96 74.8,-138.37 75.45,-131.4"/>
<text text-anchor="middle" x="324.5" y="-167.52" font-family="Helvetica,sans-Serif" font-size="10.00"> m_fontSize</text>
<text text-anchor="middle" x="324.5" y="-156.52" font-family="Helvetica,sans-Serif" font-size="10.00">m_fontSize_Scaled</text>
</g>
<!-- Node10&#45;&gt;Node9 -->
<g id="edge10" class="edge">
<title>Node10&#45;&gt;Node9</title>
<path fill="none" stroke="#9a32cd" stroke-dasharray="5,2" d="M75.27,-125.37C77.88,-125.08 80.48,-124.79 83,-124.52 125.57,-119.96 175.54,-115.52 202.62,-113.2"/>
<polygon fill="#9a32cd" stroke="#9a32cd" points="74.7,-121.92 65.17,-126.55 75.51,-128.87 74.7,-121.92"/>
<text text-anchor="middle" x="126" y="-127.52" font-family="Helvetica,sans-Serif" font-size="10.00"> Default_FontSize</text>
</g>
<!-- Node11 -->
<g id="node11" class="node">
<title>Node11</title>
<g id="a_node11"><a xlink:href="classCachedInteger.html" target="_top" xlink:title=" ">
<polygon fill="white" stroke="#666666" points="541,-33.02 389,-33.02 389,-14.02 541,-14.02 541,-33.02"/>
<text text-anchor="middle" x="465" y="-21.02" font-family="Helvetica,sans-Serif" font-size="10.00">CachedInteger&lt; wxCoord &gt;</text>
</a>
</g>
</g>
<!-- Node11&#45;&gt;Node3 -->
<g id="edge11" class="edge">
<title>Node11&#45;&gt;Node3</title>
<path fill="none" stroke="#9a32cd" stroke-dasharray="5,2" d="M504.68,-11.37C551.35,0.63 629.34,11.84 676,-29.52 716.36,-65.29 658.99,-108.5 694,-149.52 704.71,-162.07 723.66,-166.43 737.4,-167.89"/>
<polygon fill="#9a32cd" stroke="#9a32cd" points="503.68,-8.02 494.94,-14.01 505.5,-14.78 503.68,-8.02"/>
<text text-anchor="middle" x="617.5" y="-98.52" font-family="Helvetica,sans-Serif" font-size="10.00"> m_cachedCenterList</text>
<text text-anchor="middle" x="617.5" y="-87.52" font-family="Helvetica,sans-Serif" font-size="10.00">m_cachedLineWidth</text>
<text text-anchor="middle" x="617.5" y="-76.52" font-family="Helvetica,sans-Serif" font-size="10.00">m_cachedMaxDrop</text>
<text text-anchor="middle" x="617.5" y="-65.52" font-family="Helvetica,sans-Serif" font-size="10.00">m_cachedSumOfWidths</text>
<text text-anchor="middle" x="617.5" y="-54.52" font-family="Helvetica,sans-Serif" font-size="10.00">m_center</text>
<text text-anchor="middle" x="617.5" y="-43.52" font-family="Helvetica,sans-Serif" font-size="10.00">m_height</text>
<text text-anchor="middle" x="617.5" y="-32.52" font-family="Helvetica,sans-Serif" font-size="10.00">m_width</text>
</g>
<!-- Node12 -->
<g id="node12" class="node">
<title>Node12</title>
<g id="a_node12"><a xlink:href="classCachedInteger.html" target="_top" xlink:title=" ">
<polygon fill="white" stroke="#666666" points="816,-141.02 694,-141.02 694,-122.02 816,-122.02 816,-141.02"/>
<text text-anchor="middle" x="755" y="-129.02" font-family="Helvetica,sans-Serif" font-size="10.00">CachedInteger&lt; int &gt;</text>
</a>
</g>
</g>
<!-- Node12&#45;&gt;Node2 -->
<g id="edge13" class="edge">
<title>Node12&#45;&gt;Node2</title>
<path fill="none" stroke="#9a32cd" stroke-dasharray="5,2" d="M826.37,-132.63C851.26,-133.48 879.42,-134.96 905,-137.52 910.78,-138.1 916.97,-138.95 922.8,-139.86"/>
<polygon fill="#9a32cd" stroke="#9a32cd" points="826.39,-129.13 816.29,-132.31 826.17,-136.13 826.39,-129.13"/>
<text text-anchor="middle" x="869.5" y="-140.52" font-family="Helvetica,sans-Serif" font-size="10.00"> m_signHeight</text>
</g>
</g>
</svg>
        <g id="navigator" transform="translate(0 0)" fill="#404254">
                <rect fill="#f2f5e9" fill-opacity="0.5" stroke="#606060" stroke-width=".5" x="0" y="0" width="60" height="60"/>
                <use id="zoomplus" xlink:href="#zoomPlus" x="17" y="9" onmousedown="handleZoom(evt,'in')"/>
                <use id="zoomminus" xlink:href="#zoomMin" x="42" y="9" onmousedown="handleZoom(evt,'out')"/>
                <use id="reset" xlink:href="#resetDef" x="30" y="36" onmousedown="handleReset()"/>
                <g id="arrowUp" xlink:href="#dirArrow" transform="translate(30 24)" onmousedown="handlePan(0,-1)">
                  <use xlink:href="#rim" fill="#404040">
                        <set attributeName="fill" to="#808080" begin="arrowUp.mouseover" end="arrowUp.mouseout"/>
                  </use>
                  <path fill="none" stroke="white" stroke-width="1.5" d="M0,-3.0v7 M-2.5,-0.5L0,-3.0L2.5,-0.5"/>
                </g>
                <g id="arrowRight" xlink:href="#dirArrow" transform="rotate(90) translate(36 -43)" onmousedown="handlePan(1,0)">
                  <use xlink:href="#rim" fill="#404040">
                        <set attributeName="fill" to="#808080" begin="arrowRight.mouseover" end="arrowRight.mouseout"/>
                  </use>
                  <path fill="none" stroke="white" stroke-width="1.5" d="M0,-3.0v7 M-2.5,-0.5L0,-3.0L2.5,-0.5"/>
                </g>
                <g id="arrowDown" xlink:href="#dirArrow" transform="rotate(180) translate(-30 -48)" onmousedown="handlePan(0,1)">
                  <use xlink:href="#rim" fill="#404040">
                        <set attributeName="fill" to="#808080" begin="arrowDown.mouseover" end="arrowDown.mouseout"/>
                  </use>
                  <path fill="none" stroke="white" stroke-width="1.5" d="M0,-3.0v7 M-2.5,-0.5L0,-3.0L2.5,-0.5"/>
                </g>
                <g id="arrowLeft" xlink:href="#dirArrow" transform="rotate(270) translate(-36 17)" onmousedown="handlePan(-1,0)">
                  <use xlink:href="#rim" fill="#404040">
                        <set attributeName="fill" to="#808080" begin="arrowLeft.mouseover" end="arrowLeft.mouseout"/>
                  </use>
                  <path fill="none" stroke="white" stroke-width="1.5" d="M0,-3.0v7 M-2.5,-0.5L0,-3.0L2.5,-0.5"/>
                </g>
        </g>
        <svg viewBox="0 0 15 15" width="100%" height="30px" preserveAspectRatio="xMaxYMin meet">
         <g id="arrow_out" transform="scale(0.3 0.3)">
          <a xlink:href="classSetCell__coll__graph_org.svg" target="_base">
           <rect id="button" ry="5" rx="5" y="6" x="6" height="38" width="38"
                fill="#f2f5e9" fill-opacity="0.5" stroke="#606060" stroke-width="1.0"/>
           <path id="arrow"
             d="M 11.500037,31.436501 C 11.940474,20.09759 22.043105,11.32322 32.158766,21.979434 L 37.068811,17.246167 C 37.068811,17.246167 37.088388,32 37.088388,32 L 22.160133,31.978069 C 22.160133,31.978069 26.997745,27.140456 26.997745,27.140456 C 18.528582,18.264221 13.291696,25.230495 11.500037,31.436501 z"
             style="fill:#404040;"/>
          </a>
         </g>
        </svg>
</svg>
