<?xml version="1.0" encoding="UTF-8" standalone="no"?>
<!DOCTYPE svg PUBLIC "-//W3C//DTD SVG 1.1//EN"
 "http://www.w3.org/Graphics/SVG/1.1/DTD/svg11.dtd">
<!-- Generated by graphviz version 2.43.0 (0)
 -->
<!-- Title: FunCell Pages: 1 -->
<!--zoomable 231 -->
<svg id="main" version="1.1" xmlns="http://www.w3.org/2000/svg" xmlns:xlink="http://www.w3.org/1999/xlink" xml:space="preserve" onload="init(evt)">
<style type="text/css"><![CDATA[
.edge:hover path { stroke: red; }
.edge:hover polygon { stroke: red; fill: red; }
]]></style>
<script type="text/javascript"><![CDATA[
var edges = document.getElementsByTagName('g');
if (edges && edges.length) {
  for (var i=0;i<edges.length;i++) {
    if (edges[i].id.substr(0,4)=='edge') {
      edges[i].setAttribute('class','edge');
    }
  }
}
]]></script>
        <defs>
                <circle id="rim" cx="0" cy="0" r="7"/>
                <circle id="rim2" cx="0" cy="0" r="3.5"/>
                <g id="zoomPlus">
                        <use xlink:href="#rim" fill="#404040">
                                <set attributeName="fill" to="#808080" begin="zoomplus.mouseover" end="zoomplus.mouseout"/>
                        </use>
                        <path d="M-4,0h8M0,-4v8" fill="none" stroke="white" stroke-width="1.5" pointer-events="none"/>
                </g>
                <g id="zoomMin">
                        <use xlink:href="#rim" fill="#404040">
                                <set attributeName="fill" to="#808080" begin="zoomminus.mouseover" end="zoomminus.mouseout"/>
                        </use>
                        <path d="M-4,0h8" fill="none" stroke="white" stroke-width="1.5" pointer-events="none"/>
                </g>
                <g id="dirArrow">
                        <path fill="none" stroke="white" stroke-width="1.5" d="M0,-3.0v7 M-2.5,-0.5L0,-3.0L2.5,-0.5"/>
                </g>
               <g id="resetDef">
                       <use xlink:href="#rim2" fill="#404040">
                               <set attributeName="fill" to="#808080" begin="reset.mouseover" end="reset.mouseout"/>
                       </use>
               </g>
        </defs>

<script type="text/javascript">
var viewWidth = 795;
var viewHeight = 231;
var sectionId = 'dynsection-1';
</script>
<script xlink:href="svgpan.js"/>
<svg id="graph" class="graph">
<g id="viewport">
<title>FunCell</title>
<!-- Node1 -->
<g id="node1" class="node">
<title>Node1</title>
<g id="a_node1"><a xlink:title="FunCell represents a maxima function no special visual representation exists for.">
<polygon fill="#999999" stroke="#666666" points="787,-130.21 734,-130.21 734,-111.21 787,-111.21 787,-130.21"/>
<text text-anchor="middle" x="760.5" y="-118.21" font-family="Helvetica,sans-Serif" font-size="10.00">FunCell</text>
</a>
</g>
</g>
<!-- Node2 -->
<g id="node2" class="node">
<title>Node2</title>
<g id="a_node2"><a xlink:href="classCell.html" target="_top" xlink:title="The base class all cell types the worksheet can consist of are derived from.">
<polygon fill="white" stroke="#666666" points="697,-130.21 662,-130.21 662,-111.21 697,-111.21 697,-130.21"/>
<text text-anchor="middle" x="679.5" y="-118.21" font-family="Helvetica,sans-Serif" font-size="10.00">Cell</text>
</a>
</g>
</g>
<!-- Node2&#45;&gt;Node1 -->
<g id="edge1" class="edge">
<title>Node2&#45;&gt;Node1</title>
<path fill="none" stroke="#63b8ff" d="M707.43,-120.71C715.94,-120.71 725.32,-120.71 733.75,-120.71"/>
<polygon fill="#63b8ff" stroke="#63b8ff" points="707.25,-117.21 697.25,-120.71 707.25,-124.21 707.25,-117.21"/>
</g>
<!-- Node3 -->
<g id="node3" class="node">
<title>Node3</title>
<g id="a_node3"><a xlink:href="classObserved.html" target="_top" xlink:title="Objects deriving from this class can be observed by the CellPtr.">
<polygon fill="white" stroke="#666666" points="499.5,-223.21 436.5,-223.21 436.5,-204.21 499.5,-204.21 499.5,-223.21"/>
<text text-anchor="middle" x="468" y="-211.21" font-family="Helvetica,sans-Serif" font-size="10.00">Observed</text>
</a>
</g>
</g>
<!-- Node3&#45;&gt;Node2 -->
<g id="edge2" class="edge">
<title>Node3&#45;&gt;Node2</title>
<path fill="none" stroke="#63b8ff" d="M509.75,-216C547.84,-216.1 604.61,-210.78 644,-182.71 662.06,-169.85 671.78,-144.42 675.96,-130.46"/>
<polygon fill="#63b8ff" stroke="#63b8ff" points="509.58,-212.5 499.53,-215.85 509.47,-219.5 509.58,-212.5"/>
</g>
<!-- Node4 -->
<g id="node4" class="node">
<title>Node4</title>
<g id="a_node4"><a xlink:href="classCellPtr.html" target="_top" xlink:title=" ">
<polygon fill="white" stroke="#666666" points="527.5,-186.21 408.5,-186.21 408.5,-167.21 527.5,-167.21 527.5,-186.21"/>
<text text-anchor="middle" x="468" y="-174.21" font-family="Helvetica,sans-Serif" font-size="10.00">CellPtr&lt; GroupCell &gt;</text>
</a>
</g>
</g>
<!-- Node4&#45;&gt;Node2 -->
<g id="edge3" class="edge">
<title>Node4&#45;&gt;Node2</title>
<path fill="none" stroke="#9a32cd" stroke-dasharray="5,2" d="M537.67,-171.78C570.81,-167.6 610.54,-159.91 644,-145.71 652.72,-142.02 661.34,-135.77 667.79,-130.44"/>
<polygon fill="#9a32cd" stroke="#9a32cd" points="537.14,-168.31 527.61,-172.96 537.95,-175.27 537.14,-168.31"/>
<text text-anchor="middle" x="603" y="-170.71" font-family="Helvetica,sans-Serif" font-size="10.00"> m_group</text>
</g>
<!-- Node5 -->
<g id="node5" class="node">
<title>Node5</title>
<g id="a_node5"><a xlink:href="classCellPtrBase.html" target="_top" xlink:title="An implementation detail for the type&#45;specific templated cell pointers.">
<polygon fill="white" stroke="#666666" points="260,-164.21 187,-164.21 187,-145.21 260,-145.21 260,-164.21"/>
<text text-anchor="middle" x="223.5" y="-152.21" font-family="Helvetica,sans-Serif" font-size="10.00">CellPtrBase</text>
</a>
</g>
</g>
<!-- Node5&#45;&gt;Node4 -->
<g id="edge4" class="edge">
<title>Node5&#45;&gt;Node4</title>
<path fill="none" stroke="#63b8ff" d="M270.28,-159C272.89,-159.24 275.48,-159.48 278,-159.71 321.63,-163.71 370.94,-168.15 408.25,-171.48"/>
<polygon fill="#63b8ff" stroke="#63b8ff" points="270.46,-155.5 260.18,-158.07 269.82,-162.47 270.46,-155.5"/>
</g>
<!-- Node6 -->
<g id="node6" class="node">
<title>Node6</title>
<g id="a_node6"><a xlink:href="classCellPtr.html" target="_top" xlink:title=" ">
<polygon fill="white" stroke="#666666" points="513,-149.21 423,-149.21 423,-130.21 513,-130.21 513,-149.21"/>
<text text-anchor="middle" x="468" y="-137.21" font-family="Helvetica,sans-Serif" font-size="10.00">CellPtr&lt; Cell &gt;</text>
</a>
</g>
</g>
<!-- Node5&#45;&gt;Node6 -->
<g id="edge6" class="edge">
<title>Node5&#45;&gt;Node6</title>
<path fill="none" stroke="#63b8ff" d="M270.1,-151.89C313.84,-149.19 379.45,-145.13 422.74,-142.45"/>
<polygon fill="#63b8ff" stroke="#63b8ff" points="269.79,-148.41 260.02,-152.52 270.22,-155.39 269.79,-148.41"/>
</g>
<!-- Node6&#45;&gt;Node2 -->
<g id="edge5" class="edge">
<title>Node6&#45;&gt;Node2</title>
<path fill="none" stroke="#9a32cd" stroke-dasharray="5,2" d="M523.28,-134.79C569.23,-130.62 632.19,-124.91 661.81,-122.23"/>
<polygon fill="#9a32cd" stroke="#9a32cd" points="522.82,-131.32 513.17,-135.71 523.45,-138.29 522.82,-131.32"/>
<text text-anchor="middle" x="603" y="-133.71" font-family="Helvetica,sans-Serif" font-size="10.00"> m_nextToDraw</text>
</g>
<!-- Node7 -->
<g id="node7" class="node">
<title>Node7</title>
<g id="a_node7"><a xlink:href="classConfiguration.html" target="_top" xlink:title="The configuration storage for the current worksheet.">
<polygon fill="white" stroke="#666666" points="509,-73.21 427,-73.21 427,-54.21 509,-54.21 509,-73.21"/>
<text text-anchor="middle" x="468" y="-61.21" font-family="Helvetica,sans-Serif" font-size="10.00">Configuration</text>
</a>
</g>
</g>
<!-- Node7&#45;&gt;Node2 -->
<g id="edge7" class="edge">
<title>Node7&#45;&gt;Node2</title>
<path fill="none" stroke="#9a32cd" stroke-dasharray="5,2" d="M519.03,-57.07C555.74,-54.57 605.67,-56.27 644,-76.71 658.22,-84.3 668.5,-100.55 673.98,-111.03"/>
<polygon fill="#9a32cd" stroke="#9a32cd" points="518.74,-53.58 509.05,-57.88 519.3,-60.56 518.74,-53.58"/>
<text text-anchor="middle" x="603" y="-79.71" font-family="Helvetica,sans-Serif" font-size="10.00"> m_configuration</text>
</g>
<!-- Node8 -->
<g id="node8" class="node">
<title>Node8</title>
<g id="a_node8"><a xlink:href="classStyle.html" target="_top" xlink:title="Text Style Definition.">
<polygon fill="white" stroke="#666666" points="244,-73.21 203,-73.21 203,-54.21 244,-54.21 244,-73.21"/>
<text text-anchor="middle" x="223.5" y="-61.21" font-family="Helvetica,sans-Serif" font-size="10.00">Style</text>
</a>
</g>
</g>
<!-- Node8&#45;&gt;Node7 -->
<g id="edge8" class="edge">
<title>Node8&#45;&gt;Node7</title>
<path fill="none" stroke="#9a32cd" stroke-dasharray="5,2" d="M254.53,-63.71C297.87,-63.71 378.07,-63.71 426.58,-63.71"/>
<polygon fill="#9a32cd" stroke="#9a32cd" points="254.34,-60.21 244.34,-63.71 254.34,-67.21 254.34,-60.21"/>
<text text-anchor="middle" x="326" y="-66.71" font-family="Helvetica,sans-Serif" font-size="10.00"> m_styles</text>
</g>
<!-- Node9 -->
<g id="node9" class="node">
<title>Node9</title>
<g id="a_node9"><a xlink:href="classAFontSize.html" target="_top" xlink:title="A Type&#45;Safe Fixed&#45;Point Font Size.">
<polygon fill="white" stroke="#666666" points="65,-92.21 0,-92.21 0,-73.21 65,-73.21 65,-92.21"/>
<text text-anchor="middle" x="32.5" y="-80.21" font-family="Helvetica,sans-Serif" font-size="10.00">AFontSize</text>
</a>
</g>
</g>
<!-- Node9&#45;&gt;Node2 -->
<g id="edge11" class="edge">
<title>Node9&#45;&gt;Node2</title>
<path fill="none" stroke="#9a32cd" stroke-dasharray="5,2" d="M75.26,-87.07C77.88,-87.3 80.48,-87.52 83,-87.71 312.17,-105.63 591.7,-117.29 661.9,-120.07"/>
<polygon fill="#9a32cd" stroke="#9a32cd" points="75.45,-83.57 65.17,-86.13 74.8,-90.54 75.45,-83.57"/>
<text text-anchor="middle" x="326" y="-108.71" font-family="Helvetica,sans-Serif" font-size="10.00"> m_fontSize_Scaled</text>
</g>
<!-- Node9&#45;&gt;Node8 -->
<g id="edge9" class="edge">
<title>Node9&#45;&gt;Node8</title>
<path fill="none" stroke="#9a32cd" stroke-dasharray="5,2" d="M75.27,-77.57C77.88,-77.27 80.48,-76.98 83,-76.71 125.57,-72.15 175.54,-67.72 202.62,-65.39"/>
<polygon fill="#9a32cd" stroke="#9a32cd" points="74.7,-74.11 65.17,-78.74 75.51,-81.06 74.7,-74.11"/>
<text text-anchor="middle" x="126" y="-79.71" font-family="Helvetica,sans-Serif" font-size="10.00"> Default_FontSize</text>
</g>
<!-- Node10 -->
<g id="node10" class="node">
<title>Node10</title>
<g id="a_node10"><a xlink:href="classCachedInteger.html" target="_top" xlink:title=" ">
<polygon fill="white" stroke="#666666" points="544,-29.21 392,-29.21 392,-10.21 544,-10.21 544,-29.21"/>
<text text-anchor="middle" x="468" y="-17.21" font-family="Helvetica,sans-Serif" font-size="10.00">CachedInteger&lt; wxCoord &gt;</text>
</a>
</g>
</g>
<!-- Node10&#45;&gt;Node2 -->
<g id="edge10" class="edge">
<title>Node10&#45;&gt;Node2</title>
<path fill="none" stroke="#9a32cd" stroke-dasharray="5,2" d="M509.23,-7.72C547.55,1.1 605.02,7.24 644,-20.71 673.55,-41.91 678.03,-90.14 678.54,-110.9"/>
<polygon fill="#9a32cd" stroke="#9a32cd" points="508.32,-4.34 499.44,-10.13 509.99,-11.14 508.32,-4.34"/>
<text text-anchor="middle" x="603" y="-45.71" font-family="Helvetica,sans-Serif" font-size="10.00"> m_center</text>
<text text-anchor="middle" x="603" y="-34.71" font-family="Helvetica,sans-Serif" font-size="10.00">m_height</text>
<text text-anchor="middle" x="603" y="-23.71" font-family="Helvetica,sans-Serif" font-size="10.00">m_width</text>
</g>
</g>
</svg>
        <g id="navigator" transform="translate(0 0)" fill="#404254">
                <rect fill="#f2f5e9" fill-opacity="0.5" stroke="#606060" stroke-width=".5" x="0" y="0" width="60" height="60"/>
                <use id="zoomplus" xlink:href="#zoomPlus" x="17" y="9" onmousedown="handleZoom(evt,'in')"/>
                <use id="zoomminus" xlink:href="#zoomMin" x="42" y="9" onmousedown="handleZoom(evt,'out')"/>
                <use id="reset" xlink:href="#resetDef" x="30" y="36" onmousedown="handleReset()"/>
                <g id="arrowUp" xlink:href="#dirArrow" transform="translate(30 24)" onmousedown="handlePan(0,-1)">
                  <use xlink:href="#rim" fill="#404040">
                        <set attributeName="fill" to="#808080" begin="arrowUp.mouseover" end="arrowUp.mouseout"/>
                  </use>
                  <path fill="none" stroke="white" stroke-width="1.5" d="M0,-3.0v7 M-2.5,-0.5L0,-3.0L2.5,-0.5"/>
                </g>
                <g id="arrowRight" xlink:href="#dirArrow" transform="rotate(90) translate(36 -43)" onmousedown="handlePan(1,0)">
                  <use xlink:href="#rim" fill="#404040">
                        <set attributeName="fill" to="#808080" begin="arrowRight.mouseover" end="arrowRight.mouseout"/>
                  </use>
                  <path fill="none" stroke="white" stroke-width="1.5" d="M0,-3.0v7 M-2.5,-0.5L0,-3.0L2.5,-0.5"/>
                </g>
                <g id="arrowDown" xlink:href="#dirArrow" transform="rotate(180) translate(-30 -48)" onmousedown="handlePan(0,1)">
                  <use xlink:href="#rim" fill="#404040">
                        <set attributeName="fill" to="#808080" begin="arrowDown.mouseover" end="arrowDown.mouseout"/>
                  </use>
                  <path fill="none" stroke="white" stroke-width="1.5" d="M0,-3.0v7 M-2.5,-0.5L0,-3.0L2.5,-0.5"/>
                </g>
                <g id="arrowLeft" xlink:href="#dirArrow" transform="rotate(270) translate(-36 17)" onmousedown="handlePan(-1,0)">
                  <use xlink:href="#rim" fill="#404040">
                        <set attributeName="fill" to="#808080" begin="arrowLeft.mouseover" end="arrowLeft.mouseout"/>
                  </use>
                  <path fill="none" stroke="white" stroke-width="1.5" d="M0,-3.0v7 M-2.5,-0.5L0,-3.0L2.5,-0.5"/>
                </g>
        </g>
        <svg viewBox="0 0 15 15" width="100%" height="30px" preserveAspectRatio="xMaxYMin meet">
         <g id="arrow_out" transform="scale(0.3 0.3)">
          <a xlink:href="classFunCell__coll__graph_org.svg" target="_base">
           <rect id="button" ry="5" rx="5" y="6" x="6" height="38" width="38"
                fill="#f2f5e9" fill-opacity="0.5" stroke="#606060" stroke-width="1.0"/>
           <path id="arrow"
             d="M 11.500037,31.436501 C 11.940474,20.09759 22.043105,11.32322 32.158766,21.979434 L 37.068811,17.246167 C 37.068811,17.246167 37.088388,32 37.088388,32 L 22.160133,31.978069 C 22.160133,31.978069 26.997745,27.140456 26.997745,27.140456 C 18.528582,18.264221 13.291696,25.230495 11.500037,31.436501 z"
             style="fill:#404040;"/>
          </a>
         </g>
        </svg>
</svg>
