<?xml version="1.0" encoding="UTF-8" standalone="no"?>
<!DOCTYPE svg PUBLIC "-//W3C//DTD SVG 1.1//EN"
 "http://www.w3.org/Graphics/SVG/1.1/DTD/svg11.dtd">
<!-- Generated by graphviz version 2.43.0 (0)
 -->
<!-- Title: MarkDownParser Pages: 1 -->
<svg width="210pt" height="82pt"
 viewBox="0.00 0.00 209.50 82.00" xmlns="http://www.w3.org/2000/svg" xmlns:xlink="http://www.w3.org/1999/xlink">
<g id="graph0" class="graph" transform="scale(1 1) rotate(0) translate(4 78)">
<title>MarkDownParser</title>
<!-- Node1 -->
<g id="node1" class="node">
<title>Node1</title>
<g id="a_node1"><a xlink:title="A generic markdown Parser.">
<polygon fill="#999999" stroke="#666666" points="153,-74 54,-74 54,-55 153,-55 153,-74"/>
<text text-anchor="middle" x="103.5" y="-62" font-family="Helvetica,sans-Serif" font-size="10.00">MarkDownParser</text>
</a>
</g>
</g>
<!-- Node2 -->
<g id="node2" class="node">
<title>Node2</title>
<g id="a_node2"><a xlink:href="classMarkDownHTML.html" target="_top" xlink:title="A markdown parser for HTML.">
<polygon fill="white" stroke="#666666" points="97,-19 0,-19 0,0 97,0 97,-19"/>
<text text-anchor="middle" x="48.5" y="-7" font-family="Helvetica,sans-Serif" font-size="10.00">MarkDownHTML</text>
</a>
</g>
</g>
<!-- Node1&#45;&gt;Node2 -->
<g id="edge1" class="edge">
<title>Node1&#45;&gt;Node2</title>
<path fill="none" stroke="#63b8ff" d="M87.21,-47.8C77.46,-38.41 65.45,-26.83 57.41,-19.09"/>
<polygon fill="#63b8ff" stroke="#63b8ff" points="84.79,-50.33 94.42,-54.75 89.65,-45.29 84.79,-50.33"/>
</g>
<!-- Node3 -->
<g id="node3" class="node">
<title>Node3</title>
<g id="a_node3"><a xlink:href="classMarkDownTeX.html" target="_top" xlink:title="A markdown parser for TeX.">
<polygon fill="white" stroke="#666666" points="201.5,-19 115.5,-19 115.5,0 201.5,0 201.5,-19"/>
<text text-anchor="middle" x="158.5" y="-7" font-family="Helvetica,sans-Serif" font-size="10.00">MarkDownTeX</text>
</a>
</g>
</g>
<!-- Node1&#45;&gt;Node3 -->
<g id="edge2" class="edge">
<title>Node1&#45;&gt;Node3</title>
<path fill="none" stroke="#63b8ff" d="M119.79,-47.8C129.54,-38.41 141.55,-26.83 149.59,-19.09"/>
<polygon fill="#63b8ff" stroke="#63b8ff" points="117.35,-45.29 112.58,-54.75 122.21,-50.33 117.35,-45.29"/>
</g>
</g>
</svg>
