<?xml version="1.0" encoding="UTF-8" standalone="no"?>
<!DOCTYPE svg PUBLIC "-//W3C//DTD SVG 1.1//EN"
 "http://www.w3.org/Graphics/SVG/1.1/DTD/svg11.dtd">
<!-- Generated by graphviz version 2.43.0 (0)
 -->
<!-- Title: Worksheet Pages: 1 -->
<svg width="653pt" height="249pt"
 viewBox="0.00 0.00 653.00 249.00" xmlns="http://www.w3.org/2000/svg" xmlns:xlink="http://www.w3.org/1999/xlink">
<g id="graph0" class="graph" transform="scale(1 1) rotate(0) translate(4 245)">
<title>Worksheet</title>
<!-- Node1 -->
<g id="node1" class="node">
<title>Node1</title>
<g id="a_node1"><a xlink:title="The canvas that contains the spreadsheet the whole program is about.">
<polygon fill="#999999" stroke="#666666" points="645,-130 577,-130 577,-111 645,-111 645,-130"/>
<text text-anchor="middle" x="611" y="-118" font-family="Helvetica,sans-Serif" font-size="10.00">Worksheet</text>
</a>
</g>
</g>
<!-- Node2 -->
<g id="node2" class="node">
<title>Node2</title>
<g id="a_node2"><a xlink:href="classwxScrolled.html" target="_top" xlink:title=" ">
<polygon fill="white" stroke="#bfbfbf" points="438.5,-241 292.5,-241 292.5,-222 438.5,-222 438.5,-241"/>
<text text-anchor="middle" x="365.5" y="-229" font-family="Helvetica,sans-Serif" font-size="10.00">wxScrolled&lt; wxWindow &gt;</text>
</a>
</g>
</g>
<!-- Node2&#45;&gt;Node1 -->
<g id="edge1" class="edge">
<title>Node2&#45;&gt;Node1</title>
<path fill="none" stroke="#63b8ff" d="M448.89,-226.54C484.99,-221.22 526.45,-210.57 559,-189.5 582.01,-174.6 598.29,-145.48 605.63,-130.27"/>
<polygon fill="#63b8ff" stroke="#63b8ff" points="448.3,-223.09 438.86,-227.9 449.24,-230.02 448.3,-223.09"/>
</g>
<!-- Node3 -->
<g id="node3" class="node">
<title>Node3</title>
<g id="a_node3"><a xlink:href="classWorksheetView.html" target="_top" xlink:title="The narrow view surface the worksheet&#39;s size pipeline needs.">
<polygon fill="white" stroke="#666666" points="411.5,-204 319.5,-204 319.5,-185 411.5,-185 411.5,-204"/>
<text text-anchor="middle" x="365.5" y="-192" font-family="Helvetica,sans-Serif" font-size="10.00">WorksheetView</text>
</a>
</g>
</g>
<!-- Node3&#45;&gt;Node1 -->
<g id="edge2" class="edge">
<title>Node3&#45;&gt;Node1</title>
<path fill="none" stroke="#63b8ff" d="M421.7,-193.41C461.47,-190.81 515.55,-183.43 559,-163.5 576.26,-155.58 592.34,-140.16 601.66,-130.1"/>
<polygon fill="#63b8ff" stroke="#63b8ff" points="421.44,-189.92 411.65,-193.99 421.84,-196.91 421.44,-189.92"/>
</g>
<!-- Node4 -->
<g id="node4" class="node">
<title>Node4</title>
<g id="a_node4"><a xlink:href="classFindReplaceDialog.html" target="_top" xlink:title="The find+replace dialog.">
<polygon fill="white" stroke="#666666" points="419,-167 312,-167 312,-148 419,-148 419,-167"/>
<text text-anchor="middle" x="365.5" y="-155" font-family="Helvetica,sans-Serif" font-size="10.00">FindReplaceDialog</text>
</a>
</g>
</g>
<!-- Node4&#45;&gt;Node1 -->
<g id="edge3" class="edge">
<title>Node4&#45;&gt;Node1</title>
<path fill="none" stroke="#9a32cd" stroke-dasharray="5,2" d="M429.47,-152.36C467.24,-148.69 516.13,-142.9 559,-134.5 565.22,-133.28 571.79,-131.7 578.07,-130.05"/>
<polygon fill="#9a32cd" stroke="#9a32cd" points="428.74,-148.92 419.12,-153.34 429.4,-155.89 428.74,-148.92"/>
<text text-anchor="middle" x="509" y="-151.5" font-family="Helvetica,sans-Serif" font-size="10.00"> m_findDialog</text>
</g>
<!-- Node5 -->
<g id="node5" class="node">
<title>Node5</title>
<g id="a_node5"><a xlink:title=" ">
<polygon fill="white" stroke="#bfbfbf" points="174.5,-204 112.5,-204 112.5,-185 174.5,-185 174.5,-204"/>
<text text-anchor="middle" x="143.5" y="-192" font-family="Helvetica,sans-Serif" font-size="10.00">wxDialog</text>
</a>
</g>
</g>
<!-- Node5&#45;&gt;Node4 -->
<g id="edge4" class="edge">
<title>Node5&#45;&gt;Node4</title>
<path fill="none" stroke="#63b8ff" d="M184.69,-187.74C220.43,-181.73 272.91,-172.9 311.96,-166.34"/>
<polygon fill="#63b8ff" stroke="#63b8ff" points="183.91,-184.32 174.63,-189.43 185.07,-191.23 183.91,-184.32"/>
</g>
<!-- Node6 -->
<g id="node6" class="node">
<title>Node6</title>
<g id="a_node6"><a xlink:href="classFindReplacePane.html" target="_top" xlink:title="The find+replace pane.">
<polygon fill="white" stroke="#666666" points="193,-167 94,-167 94,-148 193,-148 193,-167"/>
<text text-anchor="middle" x="143.5" y="-155" font-family="Helvetica,sans-Serif" font-size="10.00">FindReplacePane</text>
</a>
</g>
</g>
<!-- Node6&#45;&gt;Node4 -->
<g id="edge5" class="edge">
<title>Node6&#45;&gt;Node4</title>
<path fill="none" stroke="#9a32cd" stroke-dasharray="5,2" d="M203.25,-157.5C237.04,-157.5 279.14,-157.5 311.84,-157.5"/>
<polygon fill="#9a32cd" stroke="#9a32cd" points="203.05,-154 193.05,-157.5 203.05,-161 203.05,-154"/>
<text text-anchor="middle" x="241.5" y="-160.5" font-family="Helvetica,sans-Serif" font-size="10.00"> m_contents</text>
</g>
<!-- Node7 -->
<g id="node7" class="node">
<title>Node7</title>
<g id="a_node7"><a xlink:title=" ">
<polygon fill="white" stroke="#bfbfbf" points="57,-167 0,-167 0,-148 57,-148 57,-167"/>
<text text-anchor="middle" x="28.5" y="-155" font-family="Helvetica,sans-Serif" font-size="10.00">wxPanel</text>
</a>
</g>
</g>
<!-- Node7&#45;&gt;Node6 -->
<g id="edge6" class="edge">
<title>Node7&#45;&gt;Node6</title>
<path fill="none" stroke="#63b8ff" d="M67.22,-157.5C75.8,-157.5 85.03,-157.5 93.99,-157.5"/>
<polygon fill="#63b8ff" stroke="#63b8ff" points="67.14,-154 57.14,-157.5 67.14,-161 67.14,-154"/>
</g>
<!-- Node8 -->
<g id="node8" class="node">
<title>Node8</title>
<g id="a_node8"><a xlink:href="classToolBar.html" target="_top" xlink:title=" ">
<polygon fill="white" stroke="#bfbfbf" points="392,-130 339,-130 339,-111 392,-111 392,-130"/>
<text text-anchor="middle" x="365.5" y="-118" font-family="Helvetica,sans-Serif" font-size="10.00">ToolBar</text>
</a>
</g>
</g>
<!-- Node8&#45;&gt;Node1 -->
<g id="edge7" class="edge">
<title>Node8&#45;&gt;Node1</title>
<path fill="none" stroke="#9a32cd" stroke-dasharray="5,2" d="M402.11,-120.5C449.01,-120.5 530.89,-120.5 576.64,-120.5"/>
<polygon fill="#9a32cd" stroke="#9a32cd" points="402.1,-117 392.1,-120.5 402.1,-124 402.1,-117"/>
<text text-anchor="middle" x="509" y="-123.5" font-family="Helvetica,sans-Serif" font-size="10.00"> m_mainToolBar</text>
</g>
<!-- Node9 -->
<g id="node9" class="node">
<title>Node9</title>
<g id="a_node9"><a xlink:title=" ">
<polygon fill="white" stroke="#bfbfbf" points="185,-130 102,-130 102,-111 185,-111 185,-130"/>
<text text-anchor="middle" x="143.5" y="-118" font-family="Helvetica,sans-Serif" font-size="10.00">wxAuiToolBar</text>
</a>
</g>
</g>
<!-- Node9&#45;&gt;Node8 -->
<g id="edge8" class="edge">
<title>Node9&#45;&gt;Node8</title>
<path fill="none" stroke="#63b8ff" d="M195.24,-120.5C240.15,-120.5 303.85,-120.5 338.9,-120.5"/>
<polygon fill="#63b8ff" stroke="#63b8ff" points="195.11,-117 185.11,-120.5 195.11,-124 195.11,-117"/>
</g>
<!-- Node10 -->
<g id="node10" class="node">
<title>Node10</title>
<g id="a_node10"><a xlink:href="classMaximaManual.html" target="_top" xlink:title=" ">
<polygon fill="white" stroke="#bfbfbf" points="411.5,-93 319.5,-93 319.5,-74 411.5,-74 411.5,-93"/>
<text text-anchor="middle" x="365.5" y="-81" font-family="Helvetica,sans-Serif" font-size="10.00">MaximaManual</text>
</a>
</g>
</g>
<!-- Node10&#45;&gt;Node1 -->
<g id="edge9" class="edge">
<title>Node10&#45;&gt;Node1</title>
<path fill="none" stroke="#9a32cd" stroke-dasharray="5,2" d="M421.6,-87.26C460.31,-90.52 513.15,-96.21 559,-105.5 566.15,-106.95 573.74,-108.93 580.82,-110.98"/>
<polygon fill="#9a32cd" stroke="#9a32cd" points="421.83,-83.77 411.57,-86.45 421.26,-90.75 421.83,-83.77"/>
<text text-anchor="middle" x="509" y="-108.5" font-family="Helvetica,sans-Serif" font-size="10.00"> m_maximaManual</text>
</g>
<!-- Node11 -->
<g id="node11" class="node">
<title>Node11</title>
<g id="a_node11"><a xlink:href="structWorksheetVirtualSizeCache.html" target="_top" xlink:title="Remembers the last virtual size applied, so an unchanged size is a no&#45;op.">
<polygon fill="white" stroke="#666666" points="441,-56 290,-56 290,-37 441,-37 441,-56"/>
<text text-anchor="middle" x="365.5" y="-44" font-family="Helvetica,sans-Serif" font-size="10.00">WorksheetVirtualSizeCache</text>
</a>
</g>
</g>
<!-- Node11&#45;&gt;Node1 -->
<g id="edge10" class="edge">
<title>Node11&#45;&gt;Node1</title>
<path fill="none" stroke="#9a32cd" stroke-dasharray="5,2" d="M451.22,-48.83C485.93,-52.4 525.68,-59.97 559,-75.5 576.77,-83.78 592.94,-100.24 602.11,-110.8"/>
<polygon fill="#9a32cd" stroke="#9a32cd" points="451.38,-45.33 441.1,-47.89 450.73,-52.3 451.38,-45.33"/>
<text text-anchor="middle" x="509" y="-78.5" font-family="Helvetica,sans-Serif" font-size="10.00"> m_virtualSizeCache</text>
</g>
<!-- Node12 -->
<g id="node12" class="node">
<title>Node12</title>
<g id="a_node12"><a xlink:href="classCellPtr.html" target="_top" xlink:title=" ">
<polygon fill="white" stroke="#666666" points="425,-19 306,-19 306,0 425,0 425,-19"/>
<text text-anchor="middle" x="365.5" y="-7" font-family="Helvetica,sans-Serif" font-size="10.00">CellPtr&lt; GroupCell &gt;</text>
</a>
</g>
</g>
<!-- Node12&#45;&gt;Node1 -->
<g id="edge11" class="edge">
<title>Node12&#45;&gt;Node1</title>
<path fill="none" stroke="#9a32cd" stroke-dasharray="5,2" d="M435.66,-4.69C474.78,-5.25 522.93,-11.75 559,-35.5 586.74,-53.77 601.64,-92.8 607.29,-110.91"/>
<polygon fill="#9a32cd" stroke="#9a32cd" points="435.41,-1.19 425.4,-4.68 435.4,-8.19 435.41,-1.19"/>
<text text-anchor="middle" x="509" y="-38.5" font-family="Helvetica,sans-Serif" font-size="10.00"> m_recalculateStart</text>
</g>
<!-- Node13 -->
<g id="node13" class="node">
<title>Node13</title>
<g id="a_node13"><a xlink:href="classCellPtrBase.html" target="_top" xlink:title="An implementation detail for the type&#45;specific templated cell pointers.">
<polygon fill="white" stroke="#666666" points="180,-19 107,-19 107,0 180,0 180,-19"/>
<text text-anchor="middle" x="143.5" y="-7" font-family="Helvetica,sans-Serif" font-size="10.00">CellPtrBase</text>
</a>
</g>
</g>
<!-- Node13&#45;&gt;Node12 -->
<g id="edge12" class="edge">
<title>Node13&#45;&gt;Node12</title>
<path fill="none" stroke="#63b8ff" d="M190.77,-9.5C224.28,-9.5 269.84,-9.5 305.9,-9.5"/>
<polygon fill="#63b8ff" stroke="#63b8ff" points="190.34,-6 180.34,-9.5 190.34,-13 190.34,-6"/>
</g>
</g>
</svg>
