<?xml version="1.0" encoding="UTF-8" standalone="no"?>
<!DOCTYPE svg PUBLIC "-//W3C//DTD SVG 1.1//EN"
 "http://www.w3.org/Graphics/SVG/1.1/DTD/svg11.dtd">
<!-- Generated by graphviz version 2.43.0 (0)
 -->
<!-- Title: SetCell Pages: 1 -->
<svg width="937pt" height="294pt"
 viewBox="0.00 0.00 937.00 294.47" xmlns="http://www.w3.org/2000/svg" xmlns:xlink="http://www.w3.org/1999/xlink">
<g id="graph0" class="graph" transform="scale(1 1) rotate(0) translate(4 290.47)">
<title>SetCell</title>
<!-- Node1 -->
<g id="node1" class="node">
<title>Node1</title>
<g id="a_node1"><a xlink:title="The class that represents parenthesis that are wrapped around text.">
<polygon fill="#999999" stroke="#666666" points="929,-172.47 878,-172.47 878,-153.47 929,-153.47 929,-172.47"/>
<text text-anchor="middle" x="903.5" y="-160.47" font-family="Helvetica,sans-Serif" font-size="10.00">SetCell</text>
</a>
</g>
</g>
<!-- Node2 -->
<g id="node2" class="node">
<title>Node2</title>
<g id="a_node2"><a xlink:href="classListCell.html" target="_top" xlink:title="The class that represents parenthesis that are wrapped around text.">
<polygon fill="white" stroke="#666666" points="841,-172.47 788,-172.47 788,-153.47 841,-153.47 841,-172.47"/>
<text text-anchor="middle" x="814.5" y="-160.47" font-family="Helvetica,sans-Serif" font-size="10.00">ListCell</text>
</a>
</g>
</g>
<!-- Node2&#45;&gt;Node1 -->
<g id="edge1" class="edge">
<title>Node2&#45;&gt;Node1</title>
<path fill="none" stroke="#63b8ff" d="M851.34,-162.97C860.29,-162.97 869.68,-162.97 877.95,-162.97"/>
<polygon fill="#63b8ff" stroke="#63b8ff" points="851.13,-159.47 841.13,-162.97 851.13,-166.47 851.13,-159.47"/>
</g>
<!-- Node3 -->
<g id="node3" class="node">
<title>Node3</title>
<g id="a_node3"><a xlink:href="classCell.html" target="_top" xlink:title="The base class all cell types the worksheet can consist of are derived from.">
<polygon fill="white" stroke="#666666" points="637.5,-196.47 602.5,-196.47 602.5,-177.47 637.5,-177.47 637.5,-196.47"/>
<text text-anchor="middle" x="620" y="-184.47" font-family="Helvetica,sans-Serif" font-size="10.00">Cell</text>
</a>
</g>
</g>
<!-- Node3&#45;&gt;Node2 -->
<g id="edge2" class="edge">
<title>Node3&#45;&gt;Node2</title>
<path fill="none" stroke="#63b8ff" d="M647.82,-183.62C684.93,-179 751.49,-170.7 787.93,-166.16"/>
<polygon fill="#63b8ff" stroke="#63b8ff" points="647.24,-180.17 637.75,-184.88 648.1,-187.12 647.24,-180.17"/>
</g>
<!-- Node4 -->
<g id="node4" class="node">
<title>Node4</title>
<g id="a_node4"><a xlink:href="classObserved.html" target="_top" xlink:title="Objects deriving from this class can be observed by the CellPtr.">
<polygon fill="white" stroke="#666666" points="361.5,-286.47 298.5,-286.47 298.5,-267.47 361.5,-267.47 361.5,-286.47"/>
<text text-anchor="middle" x="330" y="-274.47" font-family="Helvetica,sans-Serif" font-size="10.00">Observed</text>
</a>
</g>
</g>
<!-- Node4&#45;&gt;Node3 -->
<g id="edge3" class="edge">
<title>Node4&#45;&gt;Node3</title>
<path fill="none" stroke="#63b8ff" d="M372,-276.53C415.51,-274.77 485.5,-268.13 541,-244.97 568.72,-233.4 595.6,-209.88 609.41,-196.62"/>
<polygon fill="#63b8ff" stroke="#63b8ff" points="371.67,-273.04 361.8,-276.88 371.91,-280.04 371.67,-273.04"/>
</g>
<!-- Node5 -->
<g id="node5" class="node">
<title>Node5</title>
<g id="a_node5"><a xlink:href="classCellPtr.html" target="_top" xlink:title=" ">
<polygon fill="white" stroke="#666666" points="389.5,-249.47 270.5,-249.47 270.5,-230.47 389.5,-230.47 389.5,-249.47"/>
<text text-anchor="middle" x="330" y="-237.47" font-family="Helvetica,sans-Serif" font-size="10.00">CellPtr&lt; GroupCell &gt;</text>
</a>
</g>
</g>
<!-- Node5&#45;&gt;Node3 -->
<g id="edge4" class="edge">
<title>Node5&#45;&gt;Node3</title>
<path fill="none" stroke="#9a32cd" stroke-dasharray="5,2" d="M399.83,-233.91C441.09,-229.5 494.42,-222.45 541,-211.97 562.64,-207.1 586.87,-198.88 602.5,-193.2"/>
<polygon fill="#9a32cd" stroke="#9a32cd" points="399.46,-230.42 389.88,-234.94 400.19,-237.39 399.46,-230.42"/>
<text text-anchor="middle" x="482.5" y="-232.97" font-family="Helvetica,sans-Serif" font-size="10.00"> m_group</text>
</g>
<!-- Node6 -->
<g id="node6" class="node">
<title>Node6</title>
<g id="a_node6"><a xlink:href="classCellPtrBase.html" target="_top" xlink:title="An implementation detail for the type&#45;specific templated cell pointers.">
<polygon fill="white" stroke="#666666" points="111.5,-234.47 38.5,-234.47 38.5,-215.47 111.5,-215.47 111.5,-234.47"/>
<text text-anchor="middle" x="75" y="-222.47" font-family="Helvetica,sans-Serif" font-size="10.00">CellPtrBase</text>
</a>
</g>
</g>
<!-- Node6&#45;&gt;Node5 -->
<g id="edge5" class="edge">
<title>Node6&#45;&gt;Node5</title>
<path fill="none" stroke="#63b8ff" d="M121.83,-227.69C163.39,-230.15 224.88,-233.8 270.08,-236.48"/>
<polygon fill="#63b8ff" stroke="#63b8ff" points="121.9,-224.18 111.71,-227.09 121.49,-231.17 121.9,-224.18"/>
</g>
<!-- Node7 -->
<g id="node7" class="node">
<title>Node7</title>
<g id="a_node7"><a xlink:href="classCellPtr.html" target="_top" xlink:title=" ">
<polygon fill="white" stroke="#666666" points="375,-212.47 285,-212.47 285,-193.47 375,-193.47 375,-212.47"/>
<text text-anchor="middle" x="330" y="-200.47" font-family="Helvetica,sans-Serif" font-size="10.00">CellPtr&lt; Cell &gt;</text>
</a>
</g>
</g>
<!-- Node6&#45;&gt;Node7 -->
<g id="edge7" class="edge">
<title>Node6&#45;&gt;Node7</title>
<path fill="none" stroke="#63b8ff" d="M121.78,-220.99C168.11,-216.96 239.27,-210.77 284.97,-206.8"/>
<polygon fill="#63b8ff" stroke="#63b8ff" points="121.37,-217.51 111.71,-221.86 121.98,-224.48 121.37,-217.51"/>
</g>
<!-- Node7&#45;&gt;Node3 -->
<g id="edge6" class="edge">
<title>Node7&#45;&gt;Node3</title>
<path fill="none" stroke="#9a32cd" stroke-dasharray="5,2" d="M385.37,-199.95C452.01,-196.25 561.16,-190.18 602.46,-187.89"/>
<polygon fill="#9a32cd" stroke="#9a32cd" points="384.84,-196.47 375.05,-200.52 385.23,-203.46 384.84,-196.47"/>
<text text-anchor="middle" x="482.5" y="-199.97" font-family="Helvetica,sans-Serif" font-size="10.00"> m_nextToDraw</text>
</g>
<!-- Node8 -->
<g id="node8" class="node">
<title>Node8</title>
<g id="a_node8"><a xlink:href="classConfiguration.html" target="_top" xlink:title="The configuration storage for the current worksheet.">
<polygon fill="white" stroke="#666666" points="371,-175.47 289,-175.47 289,-156.47 371,-156.47 371,-175.47"/>
<text text-anchor="middle" x="330" y="-163.47" font-family="Helvetica,sans-Serif" font-size="10.00">Configuration</text>
</a>
</g>
</g>
<!-- Node8&#45;&gt;Node3 -->
<g id="edge8" class="edge">
<title>Node8&#45;&gt;Node3</title>
<path fill="none" stroke="#9a32cd" stroke-dasharray="5,2" d="M381.45,-167.06C424.05,-168.3 486.61,-170.85 541,-175.97 562.24,-177.97 586.56,-181.61 602.32,-184.16"/>
<polygon fill="#9a32cd" stroke="#9a32cd" points="381.43,-163.56 371.34,-166.78 381.24,-170.56 381.43,-163.56"/>
<text text-anchor="middle" x="482.5" y="-178.97" font-family="Helvetica,sans-Serif" font-size="10.00"> m_configuration</text>
</g>
<!-- Node9 -->
<g id="node9" class="node">
<title>Node9</title>
<g id="a_node9"><a xlink:href="structConfiguration_1_1PerformanceStats.html" target="_top" xlink:title=" ">
<polygon fill="white" stroke="#bfbfbf" points="150,-187.97 0,-187.97 0,-157.97 150,-157.97 150,-187.97"/>
<text text-anchor="start" x="8" y="-175.97" font-family="Helvetica,sans-Serif" font-size="10.00">Configuration::Performance</text>
<text text-anchor="middle" x="75" y="-164.97" font-family="Helvetica,sans-Serif" font-size="10.00">Stats</text>
</a>
</g>
</g>
<!-- Node9&#45;&gt;Node8 -->
<g id="edge9" class="edge">
<title>Node9&#45;&gt;Node8</title>
<path fill="none" stroke="#9a32cd" stroke-dasharray="5,2" d="M160.46,-170.63C203.79,-169.43 254.53,-168.03 288.93,-167.08"/>
<polygon fill="#9a32cd" stroke="#9a32cd" points="160.1,-167.14 150.2,-170.92 160.29,-174.14 160.1,-167.14"/>
<text text-anchor="middle" x="202" y="-172.97" font-family="Helvetica,sans-Serif" font-size="10.00"> g_stats</text>
</g>
<!-- Node10 -->
<g id="node10" class="node">
<title>Node10</title>
<g id="a_node10"><a xlink:href="classStyles.html" target="_top" xlink:title="Storage for the worksheet&#39;s per&#45;TextStyle text styles.">
<polygon fill="white" stroke="#666666" points="98.5,-139.47 51.5,-139.47 51.5,-120.47 98.5,-120.47 98.5,-139.47"/>
<text text-anchor="middle" x="75" y="-127.47" font-family="Helvetica,sans-Serif" font-size="10.00">Styles</text>
</a>
</g>
</g>
<!-- Node10&#45;&gt;Node8 -->
<g id="edge10" class="edge">
<title>Node10&#45;&gt;Node8</title>
<path fill="none" stroke="#9a32cd" stroke-dasharray="5,2" d="M108.96,-134.66C155.09,-141.22 238.82,-153.14 288.63,-160.22"/>
<polygon fill="#9a32cd" stroke="#9a32cd" points="109.29,-131.17 98.9,-133.23 108.31,-138.1 109.29,-131.17"/>
<text text-anchor="middle" x="202" y="-154.97" font-family="Helvetica,sans-Serif" font-size="10.00"> m_styleStore</text>
</g>
<!-- Node11 -->
<g id="node11" class="node">
<title>Node11</title>
<g id="a_node11"><a xlink:href="classCachedInteger.html" target="_top" xlink:title=" ">
<polygon fill="white" stroke="#666666" points="406,-79.47 254,-79.47 254,-60.47 406,-60.47 406,-79.47"/>
<text text-anchor="middle" x="330" y="-67.47" font-family="Helvetica,sans-Serif" font-size="10.00">CachedInteger&lt; wxCoord &gt;</text>
</a>
</g>
</g>
<!-- Node11&#45;&gt;Node3 -->
<g id="edge11" class="edge">
<title>Node11&#45;&gt;Node3</title>
<path fill="none" stroke="#9a32cd" stroke-dasharray="5,2" d="M381.12,-58.75C428.16,-51.38 497.62,-49.09 541,-86.97 569.11,-111.51 533.63,-141.61 559,-168.97 570.09,-180.93 588.79,-185.05 602.36,-186.42"/>
<polygon fill="#9a32cd" stroke="#9a32cd" points="380.42,-55.32 371.14,-60.44 381.59,-62.22 380.42,-55.32"/>
<text text-anchor="middle" x="482.5" y="-155.97" font-family="Helvetica,sans-Serif" font-size="10.00"> m_cachedCenterList</text>
<text text-anchor="middle" x="482.5" y="-144.97" font-family="Helvetica,sans-Serif" font-size="10.00">m_cachedLineWidth</text>
<text text-anchor="middle" x="482.5" y="-133.97" font-family="Helvetica,sans-Serif" font-size="10.00">m_cachedMaxDrop</text>
<text text-anchor="middle" x="482.5" y="-122.97" font-family="Helvetica,sans-Serif" font-size="10.00">m_cachedSumOfWidths</text>
<text text-anchor="middle" x="482.5" y="-111.97" font-family="Helvetica,sans-Serif" font-size="10.00">m_center</text>
<text text-anchor="middle" x="482.5" y="-100.97" font-family="Helvetica,sans-Serif" font-size="10.00">m_height</text>
<text text-anchor="middle" x="482.5" y="-89.97" font-family="Helvetica,sans-Serif" font-size="10.00">m_width</text>
</g>
<!-- Node12 -->
<g id="node12" class="node">
<title>Node12</title>
<g id="a_node12"><a xlink:href="classAFontSize.html" target="_top" xlink:title="A Type&#45;Safe Fixed&#45;Point Font Size.">
<polygon fill="white" stroke="#666666" points="362.5,-34.47 297.5,-34.47 297.5,-15.47 362.5,-15.47 362.5,-34.47"/>
<text text-anchor="middle" x="330" y="-22.47" font-family="Helvetica,sans-Serif" font-size="10.00">AFontSize</text>
</a>
</g>
</g>
<!-- Node12&#45;&gt;Node3 -->
<g id="edge12" class="edge">
<title>Node12&#45;&gt;Node3</title>
<path fill="none" stroke="#9a32cd" stroke-dasharray="5,2" d="M368.24,-12.64C414.81,0.19 494.08,13.1 541,-28.97 587.71,-70.85 518.41,-121.13 559,-168.97 569.62,-181.49 588.59,-185.5 602.36,-186.69"/>
<polygon fill="#9a32cd" stroke="#9a32cd" points="367.18,-9.3 358.55,-15.44 369.13,-16.02 367.18,-9.3"/>
<text text-anchor="middle" x="482.5" y="-42.97" font-family="Helvetica,sans-Serif" font-size="10.00"> m_fontSize</text>
<text text-anchor="middle" x="482.5" y="-31.97" font-family="Helvetica,sans-Serif" font-size="10.00">m_fontSize_Scaled</text>
</g>
<!-- Node13 -->
<g id="node13" class="node">
<title>Node13</title>
<g id="a_node13"><a xlink:href="classCachedInteger.html" target="_top" xlink:title=" ">
<polygon fill="white" stroke="#666666" points="681,-159.47 559,-159.47 559,-140.47 681,-140.47 681,-159.47"/>
<text text-anchor="middle" x="620" y="-147.47" font-family="Helvetica,sans-Serif" font-size="10.00">CachedInteger&lt; int &gt;</text>
</a>
</g>
</g>
<!-- Node13&#45;&gt;Node2 -->
<g id="edge13" class="edge">
<title>Node13&#45;&gt;Node2</title>
<path fill="none" stroke="#9a32cd" stroke-dasharray="5,2" d="M691.37,-151.08C716.26,-151.93 744.42,-153.4 770,-155.97 775.78,-156.55 781.97,-157.4 787.8,-158.31"/>
<polygon fill="#9a32cd" stroke="#9a32cd" points="691.39,-147.58 681.29,-150.76 691.17,-154.57 691.39,-147.58"/>
<text text-anchor="middle" x="734.5" y="-158.97" font-family="Helvetica,sans-Serif" font-size="10.00"> m_signHeight</text>
</g>
</g>
</svg>
