<?xml version="1.0" encoding="UTF-8" standalone="no"?>
<!DOCTYPE svg PUBLIC "-//W3C//DTD SVG 1.1//EN"
 "http://www.w3.org/Graphics/SVG/1.1/DTD/svg11.dtd">
<!-- Generated by graphviz version 2.43.0 (0)
 -->
<!-- Title: CharButton Pages: 1 -->
<svg width="211pt" height="225pt"
 viewBox="0.00 0.00 210.50 225.00" xmlns="http://www.w3.org/2000/svg" xmlns:xlink="http://www.w3.org/1999/xlink">
<g id="graph0" class="graph" transform="scale(1 1) rotate(0) translate(4 221)">
<title>CharButton</title>
<!-- Node1 -->
<g id="node1" class="node">
<title>Node1</title>
<g id="a_node1"><a xlink:title="This class generates a pane containing the last commands that were issued.">
<polygon fill="#999999" stroke="#666666" points="80,-19 9,-19 9,0 80,0 80,-19"/>
<text text-anchor="middle" x="44.5" y="-7" font-family="Helvetica,sans-Serif" font-size="10.00">CharButton</text>
</a>
</g>
</g>
<!-- Node2 -->
<g id="node2" class="node">
<title>Node2</title>
<g id="a_node2"><a xlink:title=" ">
<polygon fill="white" stroke="#bfbfbf" points="57,-85 0,-85 0,-66 57,-66 57,-85"/>
<text text-anchor="middle" x="28.5" y="-73" font-family="Helvetica,sans-Serif" font-size="10.00">wxPanel</text>
</a>
</g>
</g>
<!-- Node2&#45;&gt;Node1 -->
<g id="edge1" class="edge">
<title>Node2&#45;&gt;Node1</title>
<path fill="none" stroke="#63b8ff" d="M33.14,-55.95C36.14,-43.93 39.92,-28.82 42.27,-19.41"/>
<polygon fill="#63b8ff" stroke="#63b8ff" points="29.69,-55.32 30.66,-65.87 36.48,-57.02 29.69,-55.32"/>
</g>
<!-- Node3 -->
<g id="node3" class="node">
<title>Node3</title>
<g id="a_node3"><a xlink:href="classConfiguration.html" target="_top" xlink:title="The configuration storage for the current worksheet.">
<polygon fill="white" stroke="#666666" points="157.5,-85 75.5,-85 75.5,-66 157.5,-66 157.5,-85"/>
<text text-anchor="middle" x="116.5" y="-73" font-family="Helvetica,sans-Serif" font-size="10.00">Configuration</text>
</a>
</g>
</g>
<!-- Node3&#45;&gt;Node1 -->
<g id="edge2" class="edge">
<title>Node3&#45;&gt;Node1</title>
<path fill="none" stroke="#9a32cd" stroke-dasharray="5,2" d="M99.26,-59.18C85.29,-46.76 66.08,-29.68 54.52,-19.41"/>
<polygon fill="#9a32cd" stroke="#9a32cd" points="96.99,-61.84 106.79,-65.87 101.64,-56.61 96.99,-61.84"/>
<text text-anchor="middle" x="125.5" y="-40" font-family="Helvetica,sans-Serif" font-size="10.00"> m_configuration</text>
</g>
<!-- Node4 -->
<g id="node4" class="node">
<title>Node4</title>
<g id="a_node4"><a xlink:href="classStyle.html" target="_top" xlink:title="Text Style Definition.">
<polygon fill="white" stroke="#666666" points="137,-151 96,-151 96,-132 137,-132 137,-151"/>
<text text-anchor="middle" x="116.5" y="-139" font-family="Helvetica,sans-Serif" font-size="10.00">Style</text>
</a>
</g>
</g>
<!-- Node4&#45;&gt;Node3 -->
<g id="edge3" class="edge">
<title>Node4&#45;&gt;Node3</title>
<path fill="none" stroke="#9a32cd" stroke-dasharray="5,2" d="M116.5,-121.58C116.5,-109.63 116.5,-94.72 116.5,-85.41"/>
<polygon fill="#9a32cd" stroke="#9a32cd" points="113,-121.87 116.5,-131.87 120,-121.87 113,-121.87"/>
<text text-anchor="middle" x="140.5" y="-106" font-family="Helvetica,sans-Serif" font-size="10.00"> m_styles</text>
</g>
<!-- Node5 -->
<g id="node5" class="node">
<title>Node5</title>
<g id="a_node5"><a xlink:href="classAFontSize.html" target="_top" xlink:title="A Type&#45;Safe Fixed&#45;Point Font Size.">
<polygon fill="white" stroke="#666666" points="149,-217 84,-217 84,-198 149,-198 149,-217"/>
<text text-anchor="middle" x="116.5" y="-205" font-family="Helvetica,sans-Serif" font-size="10.00">AFontSize</text>
</a>
</g>
</g>
<!-- Node5&#45;&gt;Node4 -->
<g id="edge4" class="edge">
<title>Node5&#45;&gt;Node4</title>
<path fill="none" stroke="#9a32cd" stroke-dasharray="5,2" d="M116.5,-187.58C116.5,-175.63 116.5,-160.72 116.5,-151.41"/>
<polygon fill="#9a32cd" stroke="#9a32cd" points="113,-187.87 116.5,-197.87 120,-187.87 113,-187.87"/>
<text text-anchor="middle" x="159.5" y="-172" font-family="Helvetica,sans-Serif" font-size="10.00"> Default_FontSize</text>
</g>
</g>
</svg>
