<?xml version="1.0" encoding="UTF-8" standalone="no"?>
<!DOCTYPE svg PUBLIC "-//W3C//DTD SVG 1.1//EN"
 "http://www.w3.org/Graphics/SVG/1.1/DTD/svg11.dtd">
<!-- Generated by graphviz version 2.43.0 (0)
 -->
<!-- Title: IterArrayCell&lt; 0 &gt; Pages: 1 -->
<!--zoomable 604 -->
<svg id="main" version="1.1" xmlns="http://www.w3.org/2000/svg" xmlns:xlink="http://www.w3.org/1999/xlink" xml:space="preserve" onload="init(evt)">
<style type="text/css"><![CDATA[
.edge:hover path { stroke: red; }
.edge:hover polygon { stroke: red; fill: red; }
]]></style>
<script type="text/javascript"><![CDATA[
var edges = document.getElementsByTagName('g');
if (edges && edges.length) {
  for (var i=0;i<edges.length;i++) {
    if (edges[i].id.substr(0,4)=='edge') {
      edges[i].setAttribute('class','edge');
    }
  }
}
]]></script>
        <defs>
                <circle id="rim" cx="0" cy="0" r="7"/>
                <circle id="rim2" cx="0" cy="0" r="3.5"/>
                <g id="zoomPlus">
                        <use xlink:href="#rim" fill="#404040">
                                <set attributeName="fill" to="#808080" begin="zoomplus.mouseover" end="zoomplus.mouseout"/>
                        </use>
                        <path d="M-4,0h8M0,-4v8" fill="none" stroke="white" stroke-width="1.5" pointer-events="none"/>
                </g>
                <g id="zoomMin">
                        <use xlink:href="#rim" fill="#404040">
                                <set attributeName="fill" to="#808080" begin="zoomminus.mouseover" end="zoomminus.mouseout"/>
                        </use>
                        <path d="M-4,0h8" fill="none" stroke="white" stroke-width="1.5" pointer-events="none"/>
                </g>
                <g id="dirArrow">
                        <path fill="none" stroke="white" stroke-width="1.5" d="M0,-3.0v7 M-2.5,-0.5L0,-3.0L2.5,-0.5"/>
                </g>
               <g id="resetDef">
                       <use xlink:href="#rim2" fill="#404040">
                               <set attributeName="fill" to="#808080" begin="reset.mouseover" end="reset.mouseout"/>
                       </use>
               </g>
        </defs>

<script type="text/javascript">
var viewWidth = 1245;
var viewHeight = 604;
var sectionId = 'dynsection-1';
</script>
<script xlink:href="svgpan.js"/>
<svg id="graph" class="graph">
<g id="viewport">
<title>IterArrayCell&lt; 0 &gt;</title>
<!-- Node1 -->
<g id="node1" class="node">
<title>Node1</title>
<g id="a_node1"><a xlink:title=" ">
<polygon fill="#999999" stroke="#666666" points="1237,-480.53 1130,-480.53 1130,-461.53 1237,-461.53 1237,-480.53"/>
<text text-anchor="middle" x="1183.5" y="-468.53" font-family="Helvetica,sans-Serif" font-size="10.00">IterArrayCell&lt; 0 &gt;</text>
</a>
</g>
</g>
<!-- Node2 -->
<g id="node2" class="node">
<title>Node2</title>
<g id="a_node2"><a xlink:href="classFullTestCell.html" target="_top" xlink:title=" ">
<polygon fill="white" stroke="#bfbfbf" points="1093,-480.53 1021,-480.53 1021,-461.53 1093,-461.53 1093,-480.53"/>
<text text-anchor="middle" x="1057" y="-468.53" font-family="Helvetica,sans-Serif" font-size="10.00">FullTestCell</text>
</a>
</g>
</g>
<!-- Node2&#45;&gt;Node1 -->
<g id="edge1" class="edge">
<title>Node2&#45;&gt;Node1</title>
<path fill="none" stroke="#63b8ff" d="M1103.2,-471.03C1111.77,-471.03 1120.82,-471.03 1129.61,-471.03"/>
<polygon fill="#63b8ff" stroke="#63b8ff" points="1103.01,-467.53 1093.01,-471.03 1103.01,-474.53 1103.01,-467.53"/>
</g>
<!-- Node3 -->
<g id="node3" class="node">
<title>Node3</title>
<g id="a_node3"><a xlink:href="structWithGroup.html" target="_top" xlink:title=" ">
<polygon fill="white" stroke="#bfbfbf" points="984,-518.53 916,-518.53 916,-499.53 984,-499.53 984,-518.53"/>
<text text-anchor="middle" x="950" y="-506.53" font-family="Helvetica,sans-Serif" font-size="10.00">WithGroup</text>
</a>
</g>
</g>
<!-- Node3&#45;&gt;Node2 -->
<g id="edge2" class="edge">
<title>Node3&#45;&gt;Node2</title>
<path fill="none" stroke="#8b1a1a" d="M987.25,-495.91C1001.13,-490.88 1016.71,-485.25 1029.51,-480.61"/>
<polygon fill="#8b1a1a" stroke="#8b1a1a" points="985.71,-492.74 977.5,-499.44 988.09,-499.32 985.71,-492.74"/>
</g>
<!-- Node4 -->
<g id="node4" class="node">
<title>Node4</title>
<g id="a_node4"><a xlink:href="classConfiguration.html" target="_top" xlink:title="The configuration storage for the current worksheet.">
<polygon fill="white" stroke="#666666" points="371,-569.53 289,-569.53 289,-550.53 371,-550.53 371,-569.53"/>
<text text-anchor="middle" x="330" y="-557.53" font-family="Helvetica,sans-Serif" font-size="10.00">Configuration</text>
</a>
</g>
</g>
<!-- Node4&#45;&gt;Node3 -->
<g id="edge3" class="edge">
<title>Node4&#45;&gt;Node3</title>
<path fill="none" stroke="#9a32cd" stroke-dasharray="5,2" d="M381.35,-566.69C474.89,-577.53 681.21,-594.17 849,-556.03 880.99,-548.75 914.86,-530.23 933.83,-518.72"/>
<polygon fill="#9a32cd" stroke="#9a32cd" points="381.66,-563.2 371.31,-565.5 380.83,-570.15 381.66,-563.2"/>
<text text-anchor="middle" x="728" y="-581.03" font-family="Helvetica,sans-Serif" font-size="10.00"> configuration</text>
</g>
<!-- Node8 -->
<g id="node8" class="node">
<title>Node8</title>
<g id="a_node8"><a xlink:href="classCell.html" target="_top" xlink:title="The base class all cell types the worksheet can consist of are derived from.">
<polygon fill="white" stroke="#666666" points="647,-459.53 612,-459.53 612,-440.53 647,-440.53 647,-459.53"/>
<text text-anchor="middle" x="629.5" y="-447.53" font-family="Helvetica,sans-Serif" font-size="10.00">Cell</text>
</a>
</g>
</g>
<!-- Node4&#45;&gt;Node8 -->
<g id="edge13" class="edge">
<title>Node4&#45;&gt;Node8</title>
<path fill="none" stroke="#9a32cd" stroke-dasharray="5,2" d="M381.39,-556.34C431.5,-550.95 509.29,-537.81 569,-506.03 591.04,-494.29 610.9,-472.22 621.16,-459.58"/>
<polygon fill="#9a32cd" stroke="#9a32cd" points="380.74,-552.89 371.14,-557.38 381.44,-559.85 380.74,-552.89"/>
<text text-anchor="middle" x="496.5" y="-554.03" font-family="Helvetica,sans-Serif" font-size="10.00"> m_configuration</text>
</g>
<!-- Node5 -->
<g id="node5" class="node">
<title>Node5</title>
<g id="a_node5"><a xlink:href="structConfiguration_1_1PerformanceStats.html" target="_top" xlink:title=" ">
<polygon fill="white" stroke="#bfbfbf" points="150,-596.03 0,-596.03 0,-566.03 150,-566.03 150,-596.03"/>
<text text-anchor="start" x="8" y="-584.03" font-family="Helvetica,sans-Serif" font-size="10.00">Configuration::Performance</text>
<text text-anchor="middle" x="75" y="-573.03" font-family="Helvetica,sans-Serif" font-size="10.00">Stats</text>
</a>
</g>
</g>
<!-- Node5&#45;&gt;Node4 -->
<g id="edge4" class="edge">
<title>Node5&#45;&gt;Node4</title>
<path fill="none" stroke="#9a32cd" stroke-dasharray="5,2" d="M160.19,-574.04C203.57,-570.44 254.46,-566.21 288.93,-563.35"/>
<polygon fill="#9a32cd" stroke="#9a32cd" points="159.88,-570.55 150.2,-574.87 160.45,-577.53 159.88,-570.55"/>
<text text-anchor="middle" x="202" y="-576.03" font-family="Helvetica,sans-Serif" font-size="10.00"> g_stats</text>
</g>
<!-- Node6 -->
<g id="node6" class="node">
<title>Node6</title>
<g id="a_node6"><a xlink:href="classStyles.html" target="_top" xlink:title="Storage for the worksheet&#39;s per&#45;TextStyle text styles.">
<polygon fill="white" stroke="#666666" points="98.5,-547.53 51.5,-547.53 51.5,-528.53 98.5,-528.53 98.5,-547.53"/>
<text text-anchor="middle" x="75" y="-535.53" font-family="Helvetica,sans-Serif" font-size="10.00">Styles</text>
</a>
</g>
</g>
<!-- Node6&#45;&gt;Node4 -->
<g id="edge5" class="edge">
<title>Node6&#45;&gt;Node4</title>
<path fill="none" stroke="#9a32cd" stroke-dasharray="5,2" d="M108.96,-540.89C155.09,-544.9 238.82,-552.18 288.63,-556.51"/>
<polygon fill="#9a32cd" stroke="#9a32cd" points="109.16,-537.4 98.9,-540.02 108.56,-544.37 109.16,-537.4"/>
<text text-anchor="middle" x="202" y="-555.03" font-family="Helvetica,sans-Serif" font-size="10.00"> m_styleStore</text>
</g>
<!-- Node7 -->
<g id="node7" class="node">
<title>Node7</title>
<g id="a_node7"><a xlink:href="classGroupCell.html" target="_top" xlink:title="A cell grouping input (and, if there is one, also the output) cell to a foldable item.">
<polygon fill="white" stroke="#666666" points="849,-518.53 784,-518.53 784,-499.53 849,-499.53 849,-518.53"/>
<text text-anchor="middle" x="816.5" y="-506.53" font-family="Helvetica,sans-Serif" font-size="10.00">GroupCell</text>
</a>
</g>
</g>
<!-- Node7&#45;&gt;Node3 -->
<g id="edge6" class="edge">
<title>Node7&#45;&gt;Node3</title>
<path fill="none" stroke="#9a32cd" stroke-dasharray="5,2" d="M859.37,-509.03C877.54,-509.03 898.53,-509.03 915.63,-509.03"/>
<polygon fill="#9a32cd" stroke="#9a32cd" points="859.33,-505.53 849.33,-509.03 859.33,-512.53 859.33,-505.53"/>
<text text-anchor="middle" x="882.5" y="-512.03" font-family="Helvetica,sans-Serif" font-size="10.00"> group</text>
</g>
<!-- Node7&#45;&gt;Node7 -->
<g id="edge24" class="edge">
<title>Node7&#45;&gt;Node7</title>
<path fill="none" stroke="#9a32cd" stroke-dasharray="5,2" d="M804.35,-528.44C805.3,-533.08 809.35,-536.53 816.5,-536.53 828.23,-536.53 831.62,-527.26 826.67,-518.61"/>
<polygon fill="#9a32cd" stroke="#9a32cd" points="807.78,-529.1 806.33,-518.61 800.92,-527.72 807.78,-529.1"/>
<text text-anchor="middle" x="816.5" y="-539.53" font-family="Helvetica,sans-Serif" font-size="10.00"> m_hiddenTreeParent</text>
</g>
<!-- Node8&#45;&gt;Node2 -->
<g id="edge26" class="edge">
<title>Node8&#45;&gt;Node2</title>
<path fill="none" stroke="#63b8ff" d="M657.51,-451.36C731.63,-455.02 938.14,-465.21 1020.97,-469.3"/>
<polygon fill="#63b8ff" stroke="#63b8ff" points="657.34,-447.85 647.18,-450.85 657,-454.84 657.34,-447.85"/>
</g>
<!-- Node8&#45;&gt;Node7 -->
<g id="edge7" class="edge">
<title>Node8&#45;&gt;Node7</title>
<path fill="none" stroke="#63b8ff" d="M647.61,-466.95C658.73,-476.88 674.09,-488.68 690,-495.03 720.34,-507.12 757.88,-509.88 783.96,-510.07"/>
<polygon fill="#63b8ff" stroke="#63b8ff" points="649.69,-464.11 639.99,-459.85 644.91,-469.23 649.69,-464.11"/>
</g>
<!-- Node9 -->
<g id="node9" class="node">
<title>Node9</title>
<g id="a_node9"><a xlink:href="classObserved.html" target="_top" xlink:title="Objects deriving from this class can be observed by the CellPtr.">
<polygon fill="white" stroke="#666666" points="361.5,-459.53 298.5,-459.53 298.5,-440.53 361.5,-440.53 361.5,-459.53"/>
<text text-anchor="middle" x="330" y="-447.53" font-family="Helvetica,sans-Serif" font-size="10.00">Observed</text>
</a>
</g>
</g>
<!-- Node9&#45;&gt;Node8 -->
<g id="edge8" class="edge">
<title>Node9&#45;&gt;Node8</title>
<path fill="none" stroke="#63b8ff" d="M371.79,-450.03C438.01,-450.03 566.09,-450.03 611.79,-450.03"/>
<polygon fill="#63b8ff" stroke="#63b8ff" points="371.72,-446.53 361.72,-450.03 371.72,-453.53 371.72,-446.53"/>
</g>
<!-- Node10 -->
<g id="node10" class="node">
<title>Node10</title>
<g id="a_node10"><a xlink:href="classCellPtr.html" target="_top" xlink:title=" ">
<polygon fill="white" stroke="#666666" points="389.5,-190.53 270.5,-190.53 270.5,-171.53 389.5,-171.53 389.5,-190.53"/>
<text text-anchor="middle" x="330" y="-178.53" font-family="Helvetica,sans-Serif" font-size="10.00">CellPtr&lt; GroupCell &gt;</text>
</a>
</g>
</g>
<!-- Node10&#45;&gt;Node8 -->
<g id="edge9" class="edge">
<title>Node10&#45;&gt;Node8</title>
<path fill="none" stroke="#9a32cd" stroke-dasharray="5,2" d="M376.64,-194.62C387.41,-199.61 398.05,-206.26 406,-215.03 422.71,-233.46 404.87,-252.12 424,-268.03 474.07,-309.66 518.38,-248.06 569,-289.03 617.88,-328.58 626.6,-412.3 628.16,-440.52"/>
<polygon fill="#9a32cd" stroke="#9a32cd" points="377.78,-191.3 367.21,-190.65 375.07,-197.75 377.78,-191.3"/>
<text text-anchor="middle" x="496.5" y="-292.03" font-family="Helvetica,sans-Serif" font-size="10.00"> m_group</text>
</g>
<!-- Node15 -->
<g id="node15" class="node">
<title>Node15</title>
<g id="a_node15"><a xlink:href="classCellPointers.html" target="_top" xlink:title="The storage for pointers to cells.">
<polygon fill="white" stroke="#666666" points="667,-170.53 592,-170.53 592,-151.53 667,-151.53 667,-170.53"/>
<text text-anchor="middle" x="629.5" y="-158.53" font-family="Helvetica,sans-Serif" font-size="10.00">CellPointers</text>
</a>
</g>
</g>
<!-- Node10&#45;&gt;Node15 -->
<g id="edge20" class="edge">
<title>Node10&#45;&gt;Node15</title>
<path fill="none" stroke="#9a32cd" stroke-dasharray="5,2" d="M399.91,-176.39C459.78,-172.37 544.17,-166.69 591.88,-163.49"/>
<polygon fill="#9a32cd" stroke="#9a32cd" points="399.52,-172.91 389.78,-177.07 399.99,-179.89 399.52,-172.91"/>
<text text-anchor="middle" x="496.5" y="-200.03" font-family="Helvetica,sans-Serif" font-size="10.00"> m_groupCellUnderPointer</text>
<text text-anchor="middle" x="496.5" y="-189.03" font-family="Helvetica,sans-Serif" font-size="10.00">m_lastWorkingGroup</text>
<text text-anchor="middle" x="496.5" y="-178.03" font-family="Helvetica,sans-Serif" font-size="10.00">m_workingGroup</text>
</g>
<!-- Node11 -->
<g id="node11" class="node">
<title>Node11</title>
<g id="a_node11"><a xlink:href="classCellPtrBase.html" target="_top" xlink:title="An implementation detail for the type&#45;specific templated cell pointers.">
<polygon fill="white" stroke="#666666" points="111.5,-135.53 38.5,-135.53 38.5,-116.53 111.5,-116.53 111.5,-135.53"/>
<text text-anchor="middle" x="75" y="-123.53" font-family="Helvetica,sans-Serif" font-size="10.00">CellPtrBase</text>
</a>
</g>
</g>
<!-- Node11&#45;&gt;Node10 -->
<g id="edge10" class="edge">
<title>Node11&#45;&gt;Node10</title>
<path fill="none" stroke="#63b8ff" d="M121.49,-135.91C167.82,-145.98 239.17,-161.5 284.97,-171.45"/>
<polygon fill="#63b8ff" stroke="#63b8ff" points="122.23,-132.49 111.71,-133.79 120.74,-139.33 122.23,-132.49"/>
</g>
<!-- Node12 -->
<g id="node12" class="node">
<title>Node12</title>
<g id="a_node12"><a xlink:href="classCellPtr.html" target="_top" xlink:title=" ">
<polygon fill="white" stroke="#666666" points="375,-243.53 285,-243.53 285,-224.53 375,-224.53 375,-243.53"/>
<text text-anchor="middle" x="330" y="-231.53" font-family="Helvetica,sans-Serif" font-size="10.00">CellPtr&lt; Cell &gt;</text>
</a>
</g>
</g>
<!-- Node11&#45;&gt;Node12 -->
<g id="edge12" class="edge">
<title>Node11&#45;&gt;Node12</title>
<path fill="none" stroke="#63b8ff" d="M105.73,-139.95C123.68,-148.28 147.06,-158.96 168,-168.03 216.24,-188.91 273.28,-211.9 304.87,-224.48"/>
<polygon fill="#63b8ff" stroke="#63b8ff" points="106.9,-136.64 96.36,-135.6 103.95,-142.99 106.9,-136.64"/>
</g>
<!-- Node17 -->
<g id="node17" class="node">
<title>Node17</title>
<g id="a_node17"><a xlink:href="classCellPtr.html" target="_top" xlink:title=" ">
<polygon fill="white" stroke="#666666" points="389.5,-101.53 270.5,-101.53 270.5,-82.53 389.5,-82.53 389.5,-101.53"/>
<text text-anchor="middle" x="330" y="-89.53" font-family="Helvetica,sans-Serif" font-size="10.00">CellPtr&lt; EditorCell &gt;</text>
</a>
</g>
</g>
<!-- Node11&#45;&gt;Node17 -->
<g id="edge19" class="edge">
<title>Node11&#45;&gt;Node17</title>
<path fill="none" stroke="#63b8ff" d="M121.83,-119.87C163.39,-114.28 224.88,-106.02 270.08,-99.94"/>
<polygon fill="#63b8ff" stroke="#63b8ff" points="121.16,-116.43 111.71,-121.23 122.09,-123.36 121.16,-116.43"/>
</g>
<!-- Node18 -->
<g id="node18" class="node">
<title>Node18</title>
<g id="a_node18"><a xlink:href="classCellPtr.html" target="_top" xlink:title=" ">
<polygon fill="white" stroke="#666666" points="385,-34.53 275,-34.53 275,-15.53 385,-15.53 385,-34.53"/>
<text text-anchor="middle" x="330" y="-22.53" font-family="Helvetica,sans-Serif" font-size="10.00">CellPtr&lt; TextCell &gt;</text>
</a>
</g>
</g>
<!-- Node11&#45;&gt;Node18 -->
<g id="edge22" class="edge">
<title>Node11&#45;&gt;Node18</title>
<path fill="none" stroke="#63b8ff" d="M109.2,-112.77C160.97,-92.11 259.68,-52.7 305.08,-34.58"/>
<polygon fill="#63b8ff" stroke="#63b8ff" points="107.79,-109.57 99.8,-116.52 110.39,-116.07 107.79,-109.57"/>
</g>
<!-- Node12&#45;&gt;Node8 -->
<g id="edge11" class="edge">
<title>Node12&#45;&gt;Node8</title>
<path fill="none" stroke="#9a32cd" stroke-dasharray="5,2" d="M348.66,-250.74C366.32,-266.49 394.97,-289.48 424,-302.03 484.18,-328.02 516.77,-289.41 569,-329.03 606.86,-357.74 622.09,-417 626.77,-440.31"/>
<polygon fill="#9a32cd" stroke="#9a32cd" points="350.66,-247.83 340.91,-243.67 345.94,-253 350.66,-247.83"/>
<text text-anchor="middle" x="496.5" y="-332.03" font-family="Helvetica,sans-Serif" font-size="10.00"> m_nextToDraw</text>
</g>
<!-- Node12&#45;&gt;Node15 -->
<g id="edge23" class="edge">
<title>Node12&#45;&gt;Node15</title>
<path fill="none" stroke="#9a32cd" stroke-dasharray="5,2" d="M385.38,-232.81C445.18,-230.8 537.03,-225.56 569,-212.03 590.8,-202.8 610.45,-182.55 620.81,-170.53"/>
<polygon fill="#9a32cd" stroke="#9a32cd" points="385.23,-229.31 375.34,-233.12 385.45,-236.31 385.23,-229.31"/>
<text text-anchor="middle" x="496.5" y="-257.03" font-family="Helvetica,sans-Serif" font-size="10.00"> m_cellUnderPointer</text>
<text text-anchor="middle" x="496.5" y="-246.03" font-family="Helvetica,sans-Serif" font-size="10.00">m_selectionEnd</text>
<text text-anchor="middle" x="496.5" y="-235.03" font-family="Helvetica,sans-Serif" font-size="10.00">m_selectionStart</text>
</g>
<!-- Node13 -->
<g id="node13" class="node">
<title>Node13</title>
<g id="a_node13"><a xlink:href="classCachedInteger.html" target="_top" xlink:title=" ">
<polygon fill="white" stroke="#666666" points="406,-367.53 254,-367.53 254,-348.53 406,-348.53 406,-367.53"/>
<text text-anchor="middle" x="330" y="-355.53" font-family="Helvetica,sans-Serif" font-size="10.00">CachedInteger&lt; wxCoord &gt;</text>
</a>
</g>
</g>
<!-- Node13&#45;&gt;Node8 -->
<g id="edge14" class="edge">
<title>Node13&#45;&gt;Node8</title>
<path fill="none" stroke="#9a32cd" stroke-dasharray="5,2" d="M390.39,-347.19C440.94,-341.01 513.91,-339.52 569,-369.03 598.53,-384.84 617.24,-422.5 624.74,-440.33"/>
<polygon fill="#9a32cd" stroke="#9a32cd" points="389.73,-343.74 380.28,-348.52 390.65,-350.68 389.73,-343.74"/>
<text text-anchor="middle" x="496.5" y="-438.03" font-family="Helvetica,sans-Serif" font-size="10.00"> m_cachedCenterList</text>
<text text-anchor="middle" x="496.5" y="-427.03" font-family="Helvetica,sans-Serif" font-size="10.00">m_cachedLineWidth</text>
<text text-anchor="middle" x="496.5" y="-416.03" font-family="Helvetica,sans-Serif" font-size="10.00">m_cachedMaxDrop</text>
<text text-anchor="middle" x="496.5" y="-405.03" font-family="Helvetica,sans-Serif" font-size="10.00">m_cachedSumOfWidths</text>
<text text-anchor="middle" x="496.5" y="-394.03" font-family="Helvetica,sans-Serif" font-size="10.00">m_center</text>
<text text-anchor="middle" x="496.5" y="-383.03" font-family="Helvetica,sans-Serif" font-size="10.00">m_height</text>
<text text-anchor="middle" x="496.5" y="-372.03" font-family="Helvetica,sans-Serif" font-size="10.00">m_width</text>
</g>
<!-- Node14 -->
<g id="node14" class="node">
<title>Node14</title>
<g id="a_node14"><a xlink:href="classAFontSize.html" target="_top" xlink:title="A Type&#45;Safe Fixed&#45;Point Font Size.">
<polygon fill="white" stroke="#666666" points="362.5,-530.53 297.5,-530.53 297.5,-511.53 362.5,-511.53 362.5,-530.53"/>
<text text-anchor="middle" x="330" y="-518.53" font-family="Helvetica,sans-Serif" font-size="10.00">AFontSize</text>
</a>
</g>
</g>
<!-- Node14&#45;&gt;Node7 -->
<g id="edge25" class="edge">
<title>Node14&#45;&gt;Node7</title>
<path fill="none" stroke="#9a32cd" stroke-dasharray="5,2" d="M372.69,-531.41C388.63,-534.88 407.05,-538.31 424,-540.03 557.64,-553.54 717.44,-527.9 784,-515.36"/>
<polygon fill="#9a32cd" stroke="#9a32cd" points="373.13,-527.92 362.61,-529.13 371.59,-534.75 373.13,-527.92"/>
<text text-anchor="middle" x="629.5" y="-544.03" font-family="Helvetica,sans-Serif" font-size="10.00"> m_mathFontSize</text>
</g>
<!-- Node14&#45;&gt;Node8 -->
<g id="edge15" class="edge">
<title>Node14&#45;&gt;Node8</title>
<path fill="none" stroke="#9a32cd" stroke-dasharray="5,2" d="M360.61,-507.29C378.6,-499.45 402.23,-490 424,-484.03 486.92,-466.75 504.69,-472.07 569,-461.03 583.49,-458.54 599.93,-455.48 611.85,-453.22"/>
<polygon fill="#9a32cd" stroke="#9a32cd" points="358.95,-504.2 351.24,-511.46 361.8,-510.59 358.95,-504.2"/>
<text text-anchor="middle" x="496.5" y="-498.03" font-family="Helvetica,sans-Serif" font-size="10.00"> m_fontSize</text>
<text text-anchor="middle" x="496.5" y="-487.03" font-family="Helvetica,sans-Serif" font-size="10.00">m_fontSize_Scaled</text>
</g>
<!-- Node15&#45;&gt;Node7 -->
<g id="edge16" class="edge">
<title>Node15&#45;&gt;Node7</title>
<path fill="none" stroke="#9a32cd" stroke-dasharray="5,2" d="M640.4,-179.64C674.28,-243.38 784.95,-451.56 810.3,-499.24"/>
<polygon fill="#9a32cd" stroke="#9a32cd" points="643.43,-177.88 635.64,-170.7 637.24,-181.17 643.43,-177.88"/>
<text text-anchor="middle" x="728" y="-419.03" font-family="Helvetica,sans-Serif" font-size="10.00"> m_cellPointers</text>
</g>
<!-- Node16 -->
<g id="node16" class="node">
<title>Node16</title>
<g id="a_node16"><a xlink:href="classCellPointers_1_1ErrorList.html" target="_top" xlink:title="A list of editor cells containing error messages.">
<polygon fill="white" stroke="#666666" points="391,-153.53 269,-153.53 269,-134.53 391,-134.53 391,-153.53"/>
<text text-anchor="middle" x="330" y="-141.53" font-family="Helvetica,sans-Serif" font-size="10.00">CellPointers::ErrorList</text>
</a>
</g>
</g>
<!-- Node16&#45;&gt;Node15 -->
<g id="edge17" class="edge">
<title>Node16&#45;&gt;Node15</title>
<path fill="none" stroke="#9a32cd" stroke-dasharray="5,2" d="M401.64,-139.57C449.16,-137.73 513.11,-137.52 569,-145.03 578.97,-146.36 589.63,-148.88 599.15,-151.52"/>
<polygon fill="#9a32cd" stroke="#9a32cd" points="401.3,-136.08 391.45,-140 401.59,-143.07 401.3,-136.08"/>
<text text-anchor="middle" x="496.5" y="-148.03" font-family="Helvetica,sans-Serif" font-size="10.00"> m_errorList</text>
</g>
<!-- Node17&#45;&gt;Node15 -->
<g id="edge18" class="edge">
<title>Node17&#45;&gt;Node15</title>
<path fill="none" stroke="#9a32cd" stroke-dasharray="5,2" d="M357.64,-78.01C403.94,-55.75 500.83,-18.68 569,-58.03 604.77,-78.67 620.97,-129.92 626.34,-151.36"/>
<polygon fill="#9a32cd" stroke="#9a32cd" points="355.97,-74.93 348.55,-82.5 359.07,-81.2 355.97,-74.93"/>
<text text-anchor="middle" x="496.5" y="-127.03" font-family="Helvetica,sans-Serif" font-size="10.00"> m_activeCell</text>
<text text-anchor="middle" x="496.5" y="-116.03" font-family="Helvetica,sans-Serif" font-size="10.00">m_answerCell</text>
<text text-anchor="start" x="424" y="-105.03" font-family="Helvetica,sans-Serif" font-size="10.00">m_cellKeyboardSelection</text>
<text text-anchor="middle" x="496.5" y="-94.03" font-family="Helvetica,sans-Serif" font-size="10.00">StartedIn</text>
<text text-anchor="start" x="424" y="-83.03" font-family="Helvetica,sans-Serif" font-size="10.00">m_cellMouseSelectionStarted</text>
<text text-anchor="middle" x="496.5" y="-72.03" font-family="Helvetica,sans-Serif" font-size="10.00">In</text>
<text text-anchor="middle" x="496.5" y="-61.03" font-family="Helvetica,sans-Serif" font-size="10.00">m_cellSearchStartedIn</text>
</g>
<!-- Node18&#45;&gt;Node15 -->
<g id="edge21" class="edge">
<title>Node18&#45;&gt;Node15</title>
<path fill="none" stroke="#9a32cd" stroke-dasharray="5,2" d="M371.32,-12.83C421.93,-0.11 509.34,13.06 569,-26.03 613.35,-55.08 624.88,-125.41 627.67,-151.27"/>
<polygon fill="#9a32cd" stroke="#9a32cd" points="370.18,-9.51 361.4,-15.44 371.96,-16.28 370.18,-9.51"/>
<text text-anchor="middle" x="496.5" y="-29.03" font-family="Helvetica,sans-Serif" font-size="10.00"> m_currentTextCell</text>
</g>
</g>
</svg>
        <g id="navigator" transform="translate(0 0)" fill="#404254">
                <rect fill="#f2f5e9" fill-opacity="0.5" stroke="#606060" stroke-width=".5" x="0" y="0" width="60" height="60"/>
                <use id="zoomplus" xlink:href="#zoomPlus" x="17" y="9" onmousedown="handleZoom(evt,'in')"/>
                <use id="zoomminus" xlink:href="#zoomMin" x="42" y="9" onmousedown="handleZoom(evt,'out')"/>
                <use id="reset" xlink:href="#resetDef" x="30" y="36" onmousedown="handleReset()"/>
                <g id="arrowUp" xlink:href="#dirArrow" transform="translate(30 24)" onmousedown="handlePan(0,-1)">
                  <use xlink:href="#rim" fill="#404040">
                        <set attributeName="fill" to="#808080" begin="arrowUp.mouseover" end="arrowUp.mouseout"/>
                  </use>
                  <path fill="none" stroke="white" stroke-width="1.5" d="M0,-3.0v7 M-2.5,-0.5L0,-3.0L2.5,-0.5"/>
                </g>
                <g id="arrowRight" xlink:href="#dirArrow" transform="rotate(90) translate(36 -43)" onmousedown="handlePan(1,0)">
                  <use xlink:href="#rim" fill="#404040">
                        <set attributeName="fill" to="#808080" begin="arrowRight.mouseover" end="arrowRight.mouseout"/>
                  </use>
                  <path fill="none" stroke="white" stroke-width="1.5" d="M0,-3.0v7 M-2.5,-0.5L0,-3.0L2.5,-0.5"/>
                </g>
                <g id="arrowDown" xlink:href="#dirArrow" transform="rotate(180) translate(-30 -48)" onmousedown="handlePan(0,1)">
                  <use xlink:href="#rim" fill="#404040">
                        <set attributeName="fill" to="#808080" begin="arrowDown.mouseover" end="arrowDown.mouseout"/>
                  </use>
                  <path fill="none" stroke="white" stroke-width="1.5" d="M0,-3.0v7 M-2.5,-0.5L0,-3.0L2.5,-0.5"/>
                </g>
                <g id="arrowLeft" xlink:href="#dirArrow" transform="rotate(270) translate(-36 17)" onmousedown="handlePan(-1,0)">
                  <use xlink:href="#rim" fill="#404040">
                        <set attributeName="fill" to="#808080" begin="arrowLeft.mouseover" end="arrowLeft.mouseout"/>
                  </use>
                  <path fill="none" stroke="white" stroke-width="1.5" d="M0,-3.0v7 M-2.5,-0.5L0,-3.0L2.5,-0.5"/>
                </g>
        </g>
        <svg viewBox="0 0 15 15" width="100%" height="30px" preserveAspectRatio="xMaxYMin meet">
         <g id="arrow_out" transform="scale(0.3 0.3)">
          <a xlink:href="classIterArrayCell_3_010_01_4__coll__graph_org.svg" target="_base">
           <rect id="button" ry="5" rx="5" y="6" x="6" height="38" width="38"
                fill="#f2f5e9" fill-opacity="0.5" stroke="#606060" stroke-width="1.0"/>
           <path id="arrow"
             d="M 11.500037,31.436501 C 11.940474,20.09759 22.043105,11.32322 32.158766,21.979434 L 37.068811,17.246167 C 37.068811,17.246167 37.088388,32 37.088388,32 L 22.160133,31.978069 C 22.160133,31.978069 26.997745,27.140456 26.997745,27.140456 C 18.528582,18.264221 13.291696,25.230495 11.500037,31.436501 z"
             style="fill:#404040;"/>
          </a>
         </g>
        </svg>
</svg>
