<?xml version="1.0" encoding="UTF-8" standalone="no"?>
<!DOCTYPE svg PUBLIC "-//W3C//DTD SVG 1.1//EN"
 "http://www.w3.org/Graphics/SVG/1.1/DTD/svg11.dtd">
<!-- Generated by graphviz version 2.43.0 (0)
 -->
<!-- Title: LongNumberCell Pages: 1 -->
<svg width="106pt" height="192pt"
 viewBox="0.00 0.00 106.00 192.00" xmlns="http://www.w3.org/2000/svg" xmlns:xlink="http://www.w3.org/1999/xlink">
<g id="graph0" class="graph" transform="scale(1 1) rotate(0) translate(4 188)">
<title>LongNumberCell</title>
<!-- Node1 -->
<g id="node1" class="node">
<title>Node1</title>
<g id="a_node1"><a xlink:title="A cell containing a long number.">
<polygon fill="#999999" stroke="#666666" points="98,-19 0,-19 0,0 98,0 98,-19"/>
<text text-anchor="middle" x="49" y="-7" font-family="Helvetica,sans-Serif" font-size="10.00">LongNumberCell</text>
</a>
</g>
</g>
<!-- Node2 -->
<g id="node2" class="node">
<title>Node2</title>
<g id="a_node2"><a xlink:href="classTextCell.html" target="_top" xlink:title="A Text cell.">
<polygon fill="white" stroke="#666666" points="77,-74 21,-74 21,-55 77,-55 77,-74"/>
<text text-anchor="middle" x="49" y="-62" font-family="Helvetica,sans-Serif" font-size="10.00">TextCell</text>
</a>
</g>
</g>
<!-- Node2&#45;&gt;Node1 -->
<g id="edge1" class="edge">
<title>Node2&#45;&gt;Node1</title>
<path fill="none" stroke="#63b8ff" d="M49,-44.66C49,-35.93 49,-25.99 49,-19.09"/>
<polygon fill="#63b8ff" stroke="#63b8ff" points="45.5,-44.75 49,-54.75 52.5,-44.75 45.5,-44.75"/>
</g>
<!-- Node3 -->
<g id="node3" class="node">
<title>Node3</title>
<g id="a_node3"><a xlink:href="classCell.html" target="_top" xlink:title="The base class all cell types the worksheet can consist of are derived from.">
<polygon fill="white" stroke="#666666" points="66.5,-129 31.5,-129 31.5,-110 66.5,-110 66.5,-129"/>
<text text-anchor="middle" x="49" y="-117" font-family="Helvetica,sans-Serif" font-size="10.00">Cell</text>
</a>
</g>
</g>
<!-- Node3&#45;&gt;Node2 -->
<g id="edge2" class="edge">
<title>Node3&#45;&gt;Node2</title>
<path fill="none" stroke="#63b8ff" d="M49,-99.66C49,-90.93 49,-80.99 49,-74.09"/>
<polygon fill="#63b8ff" stroke="#63b8ff" points="45.5,-99.75 49,-109.75 52.5,-99.75 45.5,-99.75"/>
</g>
<!-- Node4 -->
<g id="node4" class="node">
<title>Node4</title>
<g id="a_node4"><a xlink:href="classObserved.html" target="_top" xlink:title="Objects deriving from this class can be observed by the CellPtr.">
<polygon fill="white" stroke="#666666" points="80.5,-184 17.5,-184 17.5,-165 80.5,-165 80.5,-184"/>
<text text-anchor="middle" x="49" y="-172" font-family="Helvetica,sans-Serif" font-size="10.00">Observed</text>
</a>
</g>
</g>
<!-- Node4&#45;&gt;Node3 -->
<g id="edge3" class="edge">
<title>Node4&#45;&gt;Node3</title>
<path fill="none" stroke="#63b8ff" d="M49,-154.66C49,-145.93 49,-135.99 49,-129.09"/>
<polygon fill="#63b8ff" stroke="#63b8ff" points="45.5,-154.75 49,-164.75 52.5,-154.75 45.5,-154.75"/>
</g>
</g>
</svg>
