<?xml version="1.0" encoding="UTF-8" standalone="no"?>
<!DOCTYPE svg PUBLIC "-//W3C//DTD SVG 1.1//EN"
 "http://www.w3.org/Graphics/SVG/1.1/DTD/svg11.dtd">
<!-- Generated by graphviz version 2.43.0 (0)
 -->
<!-- Title: Worksheet Pages: 1 -->
<!--zoomable 255 -->
<svg id="main" version="1.1" xmlns="http://www.w3.org/2000/svg" xmlns:xlink="http://www.w3.org/1999/xlink" xml:space="preserve" onload="init(evt)">
<style type="text/css"><![CDATA[
.edge:hover path { stroke: red; }
.edge:hover polygon { stroke: red; fill: red; }
]]></style>
<script type="text/javascript"><![CDATA[
var edges = document.getElementsByTagName('g');
if (edges && edges.length) {
  for (var i=0;i<edges.length;i++) {
    if (edges[i].id.substr(0,4)=='edge') {
      edges[i].setAttribute('class','edge');
    }
  }
}
]]></script>
        <defs>
                <circle id="rim" cx="0" cy="0" r="7"/>
                <circle id="rim2" cx="0" cy="0" r="3.5"/>
                <g id="zoomPlus">
                        <use xlink:href="#rim" fill="#404040">
                                <set attributeName="fill" to="#808080" begin="zoomplus.mouseover" end="zoomplus.mouseout"/>
                        </use>
                        <path d="M-4,0h8M0,-4v8" fill="none" stroke="white" stroke-width="1.5" pointer-events="none"/>
                </g>
                <g id="zoomMin">
                        <use xlink:href="#rim" fill="#404040">
                                <set attributeName="fill" to="#808080" begin="zoomminus.mouseover" end="zoomminus.mouseout"/>
                        </use>
                        <path d="M-4,0h8" fill="none" stroke="white" stroke-width="1.5" pointer-events="none"/>
                </g>
                <g id="dirArrow">
                        <path fill="none" stroke="white" stroke-width="1.5" d="M0,-3.0v7 M-2.5,-0.5L0,-3.0L2.5,-0.5"/>
                </g>
               <g id="resetDef">
                       <use xlink:href="#rim2" fill="#404040">
                               <set attributeName="fill" to="#808080" begin="reset.mouseover" end="reset.mouseout"/>
                       </use>
               </g>
        </defs>

<script type="text/javascript">
var viewWidth = 658;
var viewHeight = 255;
var sectionId = 'dynsection-1';
</script>
<script xlink:href="svgpan.js"/>
<svg id="graph" class="graph">
<g id="viewport">
<title>Worksheet</title>
<!-- Node1 -->
<g id="node1" class="node">
<title>Node1</title>
<g id="a_node1"><a xlink:title="The canvas that contains the spreadsheet the whole program is about.">
<polygon fill="#999999" stroke="#666666" points="650,-128 582,-128 582,-109 650,-109 650,-128"/>
<text text-anchor="middle" x="616" y="-116" font-family="Helvetica,sans-Serif" font-size="10.00">Worksheet</text>
</a>
</g>
</g>
<!-- Node2 -->
<g id="node2" class="node">
<title>Node2</title>
<g id="a_node2"><a xlink:href="classwxScrolled.html" target="_top" xlink:title=" ">
<polygon fill="white" stroke="#bfbfbf" points="436,-244 290,-244 290,-225 436,-225 436,-244"/>
<text text-anchor="middle" x="363" y="-232" font-family="Helvetica,sans-Serif" font-size="10.00">wxScrolled&lt; wxWindow &gt;</text>
</a>
</g>
</g>
<!-- Node2&#45;&gt;Node1 -->
<g id="edge1" class="edge">
<title>Node2&#45;&gt;Node1</title>
<path fill="none" stroke="#63b8ff" d="M425.05,-245.15C467.49,-249.2 523.48,-247.54 564,-220.5 596.77,-198.63 609.41,-149.13 613.41,-128.17"/>
<polygon fill="#63b8ff" stroke="#63b8ff" points="425.16,-241.64 414.84,-244.04 424.41,-248.6 425.16,-241.64"/>
</g>
<!-- Node3 -->
<g id="node3" class="node">
<title>Node3</title>
<g id="a_node3"><a xlink:href="classCellPtr.html" target="_top" xlink:title=" ">
<polygon fill="white" stroke="#666666" points="422.5,-204 303.5,-204 303.5,-185 422.5,-185 422.5,-204"/>
<text text-anchor="middle" x="363" y="-192" font-family="Helvetica,sans-Serif" font-size="10.00">CellPtr&lt; GroupCell &gt;</text>
</a>
</g>
</g>
<!-- Node3&#45;&gt;Node1 -->
<g id="edge2" class="edge">
<title>Node3&#45;&gt;Node1</title>
<path fill="none" stroke="#9a32cd" stroke-dasharray="5,2" d="M432.84,-187.08C481.17,-181.14 541.1,-172.06 564,-161.5 581.25,-153.55 597.33,-138.14 606.66,-128.09"/>
<polygon fill="#9a32cd" stroke="#9a32cd" points="432.22,-183.63 422.72,-188.3 433.06,-190.58 432.22,-183.63"/>
<text text-anchor="middle" x="509" y="-208.5" font-family="Helvetica,sans-Serif" font-size="10.00"> m_hCaretPositionEnd</text>
<text text-anchor="middle" x="509" y="-197.5" font-family="Helvetica,sans-Serif" font-size="10.00">m_hCaretPositionStart</text>
<text text-anchor="middle" x="509" y="-186.5" font-family="Helvetica,sans-Serif" font-size="10.00">m_recalculateStart</text>
</g>
<!-- Node4 -->
<g id="node4" class="node">
<title>Node4</title>
<g id="a_node4"><a xlink:href="classCellPtrBase.html" target="_top" xlink:title="An implementation detail for the type&#45;specific templated cell pointers.">
<polygon fill="white" stroke="#666666" points="180,-204 107,-204 107,-185 180,-185 180,-204"/>
<text text-anchor="middle" x="143.5" y="-192" font-family="Helvetica,sans-Serif" font-size="10.00">CellPtrBase</text>
</a>
</g>
</g>
<!-- Node4&#45;&gt;Node3 -->
<g id="edge3" class="edge">
<title>Node4&#45;&gt;Node3</title>
<path fill="none" stroke="#63b8ff" d="M190.67,-194.5C223.58,-194.5 268.08,-194.5 303.48,-194.5"/>
<polygon fill="#63b8ff" stroke="#63b8ff" points="190.42,-191 180.42,-194.5 190.42,-198 190.42,-191"/>
</g>
<!-- Node5 -->
<g id="node5" class="node">
<title>Node5</title>
<g id="a_node5"><a xlink:href="classAutoComplete.html" target="_top" xlink:title=" ">
<polygon fill="white" stroke="#bfbfbf" points="406,-167 320,-167 320,-148 406,-148 406,-167"/>
<text text-anchor="middle" x="363" y="-155" font-family="Helvetica,sans-Serif" font-size="10.00">AutoComplete</text>
</a>
</g>
</g>
<!-- Node5&#45;&gt;Node1 -->
<g id="edge4" class="edge">
<title>Node5&#45;&gt;Node1</title>
<path fill="none" stroke="#9a32cd" stroke-dasharray="5,2" d="M416.5,-151.82C456.97,-147.11 514.24,-139.69 564,-130.5 569.81,-129.43 575.96,-128.12 581.9,-126.78"/>
<polygon fill="#9a32cd" stroke="#9a32cd" points="415.86,-148.37 406.33,-152.99 416.66,-155.33 415.86,-148.37"/>
<text text-anchor="middle" x="509" y="-149.5" font-family="Helvetica,sans-Serif" font-size="10.00"> m_autocomplete</text>
</g>
<!-- Node6 -->
<g id="node6" class="node">
<title>Node6</title>
<g id="a_node6"><a xlink:title=" ">
<polygon fill="white" stroke="#bfbfbf" points="186,-167 101,-167 101,-148 186,-148 186,-167"/>
<text text-anchor="middle" x="143.5" y="-155" font-family="Helvetica,sans-Serif" font-size="10.00">wxEvtHandler</text>
</a>
</g>
</g>
<!-- Node6&#45;&gt;Node5 -->
<g id="edge5" class="edge">
<title>Node6&#45;&gt;Node5</title>
<path fill="none" stroke="#63b8ff" d="M196.45,-157.5C234.14,-157.5 284.48,-157.5 319.72,-157.5"/>
<polygon fill="#63b8ff" stroke="#63b8ff" points="196.18,-154 186.18,-157.5 196.18,-161 196.18,-154"/>
</g>
<!-- Node7 -->
<g id="node7" class="node">
<title>Node7</title>
<g id="a_node7"><a xlink:href="classFindReplaceDialog.html" target="_top" xlink:title="The find+replace dialog.">
<polygon fill="white" stroke="#666666" points="416.5,-130 309.5,-130 309.5,-111 416.5,-111 416.5,-130"/>
<text text-anchor="middle" x="363" y="-118" font-family="Helvetica,sans-Serif" font-size="10.00">FindReplaceDialog</text>
</a>
</g>
</g>
<!-- Node7&#45;&gt;Node1 -->
<g id="edge6" class="edge">
<title>Node7&#45;&gt;Node1</title>
<path fill="none" stroke="#9a32cd" stroke-dasharray="5,2" d="M426.97,-119.76C436.04,-119.67 445.26,-119.58 454,-119.5 498.16,-119.12 549.14,-118.83 581.7,-118.66"/>
<polygon fill="#9a32cd" stroke="#9a32cd" points="426.79,-116.26 416.82,-119.87 426.86,-123.26 426.79,-116.26"/>
<text text-anchor="middle" x="509" y="-122.5" font-family="Helvetica,sans-Serif" font-size="10.00"> m_findDialog</text>
</g>
<!-- Node8 -->
<g id="node8" class="node">
<title>Node8</title>
<g id="a_node8"><a xlink:title=" ">
<polygon fill="white" stroke="#bfbfbf" points="174.5,-130 112.5,-130 112.5,-111 174.5,-111 174.5,-130"/>
<text text-anchor="middle" x="143.5" y="-118" font-family="Helvetica,sans-Serif" font-size="10.00">wxDialog</text>
</a>
</g>
</g>
<!-- Node8&#45;&gt;Node7 -->
<g id="edge7" class="edge">
<title>Node8&#45;&gt;Node7</title>
<path fill="none" stroke="#63b8ff" d="M185.1,-120.5C220.21,-120.5 271.21,-120.5 309.44,-120.5"/>
<polygon fill="#63b8ff" stroke="#63b8ff" points="184.74,-117 174.74,-120.5 184.74,-124 184.74,-117"/>
</g>
<!-- Node9 -->
<g id="node9" class="node">
<title>Node9</title>
<g id="a_node9"><a xlink:href="classFindReplacePane.html" target="_top" xlink:title="The find+replace pane.">
<polygon fill="white" stroke="#666666" points="193,-93 94,-93 94,-74 193,-74 193,-93"/>
<text text-anchor="middle" x="143.5" y="-81" font-family="Helvetica,sans-Serif" font-size="10.00">FindReplacePane</text>
</a>
</g>
</g>
<!-- Node9&#45;&gt;Node7 -->
<g id="edge8" class="edge">
<title>Node9&#45;&gt;Node7</title>
<path fill="none" stroke="#9a32cd" stroke-dasharray="5,2" d="M203.05,-93.46C236.2,-99.1 277.32,-106.09 309.43,-111.56"/>
<polygon fill="#9a32cd" stroke="#9a32cd" points="203.49,-89.98 193.04,-91.76 202.31,-96.89 203.49,-89.98"/>
<text text-anchor="middle" x="241.5" y="-106.5" font-family="Helvetica,sans-Serif" font-size="10.00"> m_contents</text>
</g>
<!-- Node10 -->
<g id="node10" class="node">
<title>Node10</title>
<g id="a_node10"><a xlink:title=" ">
<polygon fill="white" stroke="#bfbfbf" points="57,-93 0,-93 0,-74 57,-74 57,-93"/>
<text text-anchor="middle" x="28.5" y="-81" font-family="Helvetica,sans-Serif" font-size="10.00">wxPanel</text>
</a>
</g>
</g>
<!-- Node10&#45;&gt;Node9 -->
<g id="edge9" class="edge">
<title>Node10&#45;&gt;Node9</title>
<path fill="none" stroke="#63b8ff" d="M67.22,-83.5C75.8,-83.5 85.03,-83.5 93.99,-83.5"/>
<polygon fill="#63b8ff" stroke="#63b8ff" points="67.14,-80 57.14,-83.5 67.14,-87 67.14,-80"/>
</g>
<!-- Node11 -->
<g id="node11" class="node">
<title>Node11</title>
<g id="a_node11"><a xlink:href="classEvaluationQueue.html" target="_top" xlink:title="A simple FIFO queue with manual removal of elements.">
<polygon fill="white" stroke="#666666" points="413,-93 313,-93 313,-74 413,-74 413,-93"/>
<text text-anchor="middle" x="363" y="-81" font-family="Helvetica,sans-Serif" font-size="10.00">EvaluationQueue</text>
</a>
</g>
</g>
<!-- Node11&#45;&gt;Node1 -->
<g id="edge10" class="edge">
<title>Node11&#45;&gt;Node1</title>
<path fill="none" stroke="#9a32cd" stroke-dasharray="5,2" d="M423.4,-86.53C463.41,-89.28 517.21,-94.36 564,-103.5 571.25,-104.92 578.94,-106.91 586.1,-108.99"/>
<polygon fill="#9a32cd" stroke="#9a32cd" points="423.49,-83.03 413.28,-85.86 423.03,-90.01 423.49,-83.03"/>
<text text-anchor="middle" x="509" y="-106.5" font-family="Helvetica,sans-Serif" font-size="10.00"> m_evaluationQueue</text>
</g>
<!-- Node12 -->
<g id="node12" class="node">
<title>Node12</title>
<g id="a_node12"><a xlink:href="classToolBar.html" target="_top" xlink:title=" ">
<polygon fill="white" stroke="#bfbfbf" points="389.5,-56 336.5,-56 336.5,-37 389.5,-37 389.5,-56"/>
<text text-anchor="middle" x="363" y="-44" font-family="Helvetica,sans-Serif" font-size="10.00">ToolBar</text>
</a>
</g>
</g>
<!-- Node12&#45;&gt;Node1 -->
<g id="edge11" class="edge">
<title>Node12&#45;&gt;Node1</title>
<path fill="none" stroke="#9a32cd" stroke-dasharray="5,2" d="M399.76,-45.21C441.15,-45.06 510.5,-49.05 564,-73.5 581.83,-81.65 597.98,-98.15 607.13,-108.75"/>
<polygon fill="#9a32cd" stroke="#9a32cd" points="399.57,-41.71 389.61,-45.33 399.65,-48.71 399.57,-41.71"/>
<text text-anchor="middle" x="509" y="-76.5" font-family="Helvetica,sans-Serif" font-size="10.00"> m_mainToolBar</text>
</g>
<!-- Node13 -->
<g id="node13" class="node">
<title>Node13</title>
<g id="a_node13"><a xlink:title=" ">
<polygon fill="white" stroke="#bfbfbf" points="185,-56 102,-56 102,-37 185,-37 185,-56"/>
<text text-anchor="middle" x="143.5" y="-44" font-family="Helvetica,sans-Serif" font-size="10.00">wxAuiToolBar</text>
</a>
</g>
</g>
<!-- Node13&#45;&gt;Node12 -->
<g id="edge12" class="edge">
<title>Node13&#45;&gt;Node12</title>
<path fill="none" stroke="#63b8ff" d="M195.4,-46.5C239.55,-46.5 301.64,-46.5 336.2,-46.5"/>
<polygon fill="#63b8ff" stroke="#63b8ff" points="195.15,-43 185.15,-46.5 195.15,-50 195.15,-43"/>
</g>
<!-- Node14 -->
<g id="node14" class="node">
<title>Node14</title>
<g id="a_node14"><a xlink:href="classMaximaManual.html" target="_top" xlink:title=" ">
<polygon fill="white" stroke="#bfbfbf" points="409,-19 317,-19 317,0 409,0 409,-19"/>
<text text-anchor="middle" x="363" y="-7" font-family="Helvetica,sans-Serif" font-size="10.00">MaximaManual</text>
</a>
</g>
</g>
<!-- Node14&#45;&gt;Node1 -->
<g id="edge13" class="edge">
<title>Node14&#45;&gt;Node1</title>
<path fill="none" stroke="#9a32cd" stroke-dasharray="5,2" d="M419.36,-3.22C462.18,-1.17 521.19,-4.76 564,-32.5 592.11,-50.72 606.82,-90.35 612.36,-108.75"/>
<polygon fill="#9a32cd" stroke="#9a32cd" points="418.89,0.26 409.11,-3.83 419.3,-6.73 418.89,0.26"/>
<text text-anchor="middle" x="509" y="-35.5" font-family="Helvetica,sans-Serif" font-size="10.00"> m_maximaManual</text>
</g>
</g>
</svg>
        <g id="navigator" transform="translate(0 0)" fill="#404254">
                <rect fill="#f2f5e9" fill-opacity="0.5" stroke="#606060" stroke-width=".5" x="0" y="0" width="60" height="60"/>
                <use id="zoomplus" xlink:href="#zoomPlus" x="17" y="9" onmousedown="handleZoom(evt,'in')"/>
                <use id="zoomminus" xlink:href="#zoomMin" x="42" y="9" onmousedown="handleZoom(evt,'out')"/>
                <use id="reset" xlink:href="#resetDef" x="30" y="36" onmousedown="handleReset()"/>
                <g id="arrowUp" xlink:href="#dirArrow" transform="translate(30 24)" onmousedown="handlePan(0,-1)">
                  <use xlink:href="#rim" fill="#404040">
                        <set attributeName="fill" to="#808080" begin="arrowUp.mouseover" end="arrowUp.mouseout"/>
                  </use>
                  <path fill="none" stroke="white" stroke-width="1.5" d="M0,-3.0v7 M-2.5,-0.5L0,-3.0L2.5,-0.5"/>
                </g>
                <g id="arrowRight" xlink:href="#dirArrow" transform="rotate(90) translate(36 -43)" onmousedown="handlePan(1,0)">
                  <use xlink:href="#rim" fill="#404040">
                        <set attributeName="fill" to="#808080" begin="arrowRight.mouseover" end="arrowRight.mouseout"/>
                  </use>
                  <path fill="none" stroke="white" stroke-width="1.5" d="M0,-3.0v7 M-2.5,-0.5L0,-3.0L2.5,-0.5"/>
                </g>
                <g id="arrowDown" xlink:href="#dirArrow" transform="rotate(180) translate(-30 -48)" onmousedown="handlePan(0,1)">
                  <use xlink:href="#rim" fill="#404040">
                        <set attributeName="fill" to="#808080" begin="arrowDown.mouseover" end="arrowDown.mouseout"/>
                  </use>
                  <path fill="none" stroke="white" stroke-width="1.5" d="M0,-3.0v7 M-2.5,-0.5L0,-3.0L2.5,-0.5"/>
                </g>
                <g id="arrowLeft" xlink:href="#dirArrow" transform="rotate(270) translate(-36 17)" onmousedown="handlePan(-1,0)">
                  <use xlink:href="#rim" fill="#404040">
                        <set attributeName="fill" to="#808080" begin="arrowLeft.mouseover" end="arrowLeft.mouseout"/>
                  </use>
                  <path fill="none" stroke="white" stroke-width="1.5" d="M0,-3.0v7 M-2.5,-0.5L0,-3.0L2.5,-0.5"/>
                </g>
        </g>
        <svg viewBox="0 0 15 15" width="100%" height="30px" preserveAspectRatio="xMaxYMin meet">
         <g id="arrow_out" transform="scale(0.3 0.3)">
          <a xlink:href="classWorksheet__coll__graph_org.svg" target="_base">
           <rect id="button" ry="5" rx="5" y="6" x="6" height="38" width="38"
                fill="#f2f5e9" fill-opacity="0.5" stroke="#606060" stroke-width="1.0"/>
           <path id="arrow"
             d="M 11.500037,31.436501 C 11.940474,20.09759 22.043105,11.32322 32.158766,21.979434 L 37.068811,17.246167 C 37.068811,17.246167 37.088388,32 37.088388,32 L 22.160133,31.978069 C 22.160133,31.978069 26.997745,27.140456 26.997745,27.140456 C 18.528582,18.264221 13.291696,25.230495 11.500037,31.436501 z"
             style="fill:#404040;"/>
          </a>
         </g>
        </svg>
</svg>
