<?xml version="1.0" encoding="UTF-8" standalone="no"?>
<!DOCTYPE svg PUBLIC "-//W3C//DTD SVG 1.1//EN"
 "http://www.w3.org/Graphics/SVG/1.1/DTD/svg11.dtd">
<!-- Generated by graphviz version 2.43.0 (0)
 -->
<!-- Title: src/Compat.h Pages: 1 -->
<svg width="278pt" height="82pt"
 viewBox="0.00 0.00 278.00 82.00" xmlns="http://www.w3.org/2000/svg" xmlns:xlink="http://www.w3.org/1999/xlink">
<g id="graph0" class="graph" transform="scale(1 1) rotate(0) translate(4 78)">
<title>src/Compat.h</title>
<!-- Node1 -->
<g id="node1" class="node">
<title>Node1</title>
<g id="a_node1"><a xlink:title="Small C++ standard&#45;library compatibility shims.">
<polygon fill="#999999" stroke="#666666" points="171.5,-74 90.5,-74 90.5,-55 171.5,-55 171.5,-74"/>
<text text-anchor="middle" x="131" y="-62" font-family="Helvetica,sans-Serif" font-size="10.00">src/Compat.h</text>
</a>
</g>
</g>
<!-- Node2 -->
<g id="node2" class="node">
<title>Node2</title>
<g id="a_node2"><a xlink:title=" ">
<polygon fill="#e0e0e0" stroke="#999999" points="48,-19 0,-19 0,0 48,0 48,-19"/>
<text text-anchor="middle" x="24" y="-7" font-family="Helvetica,sans-Serif" font-size="10.00">thread</text>
</a>
</g>
</g>
<!-- Node1&#45;&gt;Node2 -->
<g id="edge1" class="edge">
<title>Node1&#45;&gt;Node2</title>
<path fill="none" stroke="#63b8ff" d="M113.81,-54.98C96.75,-46.54 70.37,-33.47 50.6,-23.68"/>
<polygon fill="#63b8ff" stroke="#63b8ff" points="52.02,-20.47 41.5,-19.17 48.91,-26.75 52.02,-20.47"/>
</g>
<!-- Node3 -->
<g id="node3" class="node">
<title>Node3</title>
<g id="a_node3"><a xlink:title=" ">
<polygon fill="#e0e0e0" stroke="#999999" points="119.5,-19 66.5,-19 66.5,0 119.5,0 119.5,-19"/>
<text text-anchor="middle" x="93" y="-7" font-family="Helvetica,sans-Serif" font-size="10.00">version</text>
</a>
</g>
</g>
<!-- Node1&#45;&gt;Node3 -->
<g id="edge2" class="edge">
<title>Node1&#45;&gt;Node3</title>
<path fill="none" stroke="#63b8ff" d="M124.73,-54.75C119.41,-47.34 111.64,-36.5 105.12,-27.41"/>
<polygon fill="#63b8ff" stroke="#63b8ff" points="107.83,-25.18 99.16,-19.09 102.14,-29.26 107.83,-25.18"/>
</g>
<!-- Node4 -->
<g id="node4" class="node">
<title>Node4</title>
<g id="a_node4"><a xlink:title=" ">
<polygon fill="#e0e0e0" stroke="#999999" points="202,-19 138,-19 138,0 202,0 202,-19"/>
<text text-anchor="middle" x="170" y="-7" font-family="Helvetica,sans-Serif" font-size="10.00">algorithm</text>
</a>
</g>
</g>
<!-- Node1&#45;&gt;Node4 -->
<g id="edge3" class="edge">
<title>Node1&#45;&gt;Node4</title>
<path fill="none" stroke="#63b8ff" d="M137.44,-54.75C142.89,-47.34 150.86,-36.5 157.56,-27.41"/>
<polygon fill="#63b8ff" stroke="#63b8ff" points="160.57,-29.22 163.68,-19.09 154.93,-25.07 160.57,-29.22"/>
</g>
<!-- Node5 -->
<g id="node5" class="node">
<title>Node5</title>
<g id="a_node5"><a xlink:title=" ">
<polygon fill="#e0e0e0" stroke="#999999" points="270,-19 220,-19 220,0 270,0 270,-19"/>
<text text-anchor="middle" x="245" y="-7" font-family="Helvetica,sans-Serif" font-size="10.00">ranges</text>
</a>
</g>
</g>
<!-- Node1&#45;&gt;Node5 -->
<g id="edge4" class="edge">
<title>Node1&#45;&gt;Node5</title>
<path fill="none" stroke="#63b8ff" d="M149.32,-54.98C167.66,-46.46 196.11,-33.23 217.23,-23.41"/>
<polygon fill="#63b8ff" stroke="#63b8ff" points="218.76,-26.56 226.35,-19.17 215.81,-20.21 218.76,-26.56"/>
</g>
</g>
</svg>
