<?xml version="1.0" encoding="UTF-8" standalone="no"?>
<!DOCTYPE svg PUBLIC "-//W3C//DTD SVG 1.1//EN"
 "http://www.w3.org/Graphics/SVG/1.1/DTD/svg11.dtd">
<!-- Generated by graphviz version 2.43.0 (0)
 -->
<!-- Title: src/Configuration.cpp Pages: 1 -->
<svg width="3073pt" height="357pt"
 viewBox="0.00 0.00 3073.00 357.00" xmlns="http://www.w3.org/2000/svg" xmlns:xlink="http://www.w3.org/1999/xlink">
<g id="graph0" class="graph" transform="scale(1 1) rotate(0) translate(4 353)">
<title>src/Configuration.cpp</title>
<!-- Node1 -->
<g id="node1" class="node">
<title>Node1</title>
<g id="a_node1"><a xlink:title="This file defines the class Configuration which serves as a fast configuration storage.">
<polygon fill="#999999" stroke="#666666" points="2335.5,-349 2216.5,-349 2216.5,-330 2335.5,-330 2335.5,-349"/>
<text text-anchor="middle" x="2276" y="-337" font-family="Helvetica,sans-Serif" font-size="10.00">src/Configuration.cpp</text>
</a>
</g>
</g>
<!-- Node2 -->
<g id="node2" class="node">
<title>Node2</title>
<g id="a_node2"><a xlink:href="Configuration_8h_source.html" target="_top" xlink:title=" ">
<polygon fill="white" stroke="#666666" points="1532.5,-239 1441.5,-239 1441.5,-220 1532.5,-220 1532.5,-239"/>
<text text-anchor="middle" x="1487" y="-227" font-family="Helvetica,sans-Serif" font-size="10.00">Configuration.h</text>
</a>
</g>
</g>
<!-- Node1&#45;&gt;Node2 -->
<g id="edge1" class="edge">
<title>Node1&#45;&gt;Node2</title>
<path fill="none" stroke="#63b8ff" d="M2216.37,-330.34C2068.43,-310.09 1686.11,-257.75 1542.56,-238.11"/>
<polygon fill="#63b8ff" stroke="#63b8ff" points="1543.03,-234.64 1532.64,-236.75 1542.08,-241.57 1543.03,-234.64"/>
</g>
<!-- Node5 -->
<g id="node5" class="node">
<title>Node5</title>
<g id="a_node5"><a xlink:title=" ">
<polygon fill="#e0e0e0" stroke="#999999" points="2321.5,-184 2264.5,-184 2264.5,-165 2321.5,-165 2321.5,-184"/>
<text text-anchor="middle" x="2293" y="-172" font-family="Helvetica,sans-Serif" font-size="10.00">wx/wx.h</text>
</a>
</g>
</g>
<!-- Node1&#45;&gt;Node5 -->
<g id="edge86" class="edge">
<title>Node1&#45;&gt;Node5</title>
<path fill="none" stroke="#63b8ff" d="M2275.71,-329.81C2275.21,-310.13 2274.73,-260.7 2281,-220 2282.34,-211.3 2284.74,-201.86 2287.05,-193.92"/>
<polygon fill="#63b8ff" stroke="#63b8ff" points="2290.43,-194.83 2290.03,-184.24 2283.74,-192.77 2290.43,-194.83"/>
</g>
<!-- Node6 -->
<g id="node6" class="node">
<title>Node6</title>
<g id="a_node6"><a xlink:title=" ">
<polygon fill="#e0e0e0" stroke="#999999" points="847,-129 775,-129 775,-110 847,-110 847,-129"/>
<text text-anchor="middle" x="811" y="-117" font-family="Helvetica,sans-Serif" font-size="10.00">wx/config.h</text>
</a>
</g>
</g>
<!-- Node1&#45;&gt;Node6 -->
<g id="edge78" class="edge">
<title>Node1&#45;&gt;Node6</title>
<path fill="none" stroke="#63b8ff" d="M2216.19,-338.04C2002.42,-336.13 1276.66,-327.27 1047,-294 949.81,-279.92 900.04,-310.76 833,-239 807.49,-211.7 806.87,-164.82 808.82,-138.97"/>
<polygon fill="#63b8ff" stroke="#63b8ff" points="812.3,-139.29 809.78,-129 805.34,-138.62 812.3,-139.29"/>
</g>
<!-- Node13 -->
<g id="node11" class="node">
<title>Node13</title>
<g id="a_node11"><a xlink:href="TextStyle_8h.html" target="_top" xlink:title="This file declares everything needed for the text style system used to style all the elements on the ...">
<polygon fill="white" stroke="#666666" points="688,-184 592,-184 592,-165 688,-165 688,-184"/>
<text text-anchor="middle" x="640" y="-172" font-family="Helvetica,sans-Serif" font-size="10.00">cells/TextStyle.h</text>
</a>
</g>
</g>
<!-- Node1&#45;&gt;Node13 -->
<g id="edge70" class="edge">
<title>Node1&#45;&gt;Node13</title>
<path fill="none" stroke="#63b8ff" d="M2216.44,-338.54C1936.57,-338.49 762.92,-335.79 698,-294 663.12,-271.55 648.56,-221.55 643.03,-194.22"/>
<polygon fill="#63b8ff" stroke="#63b8ff" points="646.41,-193.25 641.18,-184.04 639.52,-194.51 646.41,-193.25"/>
</g>
<!-- Node18 -->
<g id="node16" class="node">
<title>Node18</title>
<g id="a_node16"><a xlink:title=" ">
<polygon fill="#e0e0e0" stroke="#999999" points="296,-74 234,-74 234,-55 296,-55 296,-74"/>
<text text-anchor="middle" x="265" y="-62" font-family="Helvetica,sans-Serif" font-size="10.00">wx/font.h</text>
</a>
</g>
</g>
<!-- Node1&#45;&gt;Node18 -->
<g id="edge80" class="edge">
<title>Node1&#45;&gt;Node18</title>
<path fill="none" stroke="#63b8ff" d="M2216.3,-338.77C1864.39,-340 76,-340.83 76,-230.5 76,-230.5 76,-230.5 76,-173.5 76,-105.9 168.27,-80.04 223.87,-70.6"/>
<polygon fill="#63b8ff" stroke="#63b8ff" points="224.46,-74.04 233.79,-69.02 223.36,-67.13 224.46,-74.04"/>
</g>
<!-- Node29 -->
<g id="node21" class="node">
<title>Node29</title>
<g id="a_node21"><a xlink:title=" ">
<polygon fill="#e0e0e0" stroke="#999999" points="108,-74 44,-74 44,-55 108,-55 108,-74"/>
<text text-anchor="middle" x="76" y="-62" font-family="Helvetica,sans-Serif" font-size="10.00">algorithm</text>
</a>
</g>
</g>
<!-- Node1&#45;&gt;Node29 -->
<g id="edge88" class="edge">
<title>Node1&#45;&gt;Node29</title>
<path fill="none" stroke="#63b8ff" d="M2216.44,-338.12C1900.08,-335.99 423.35,-324.46 222,-294 120.53,-278.65 0,-333.12 0,-230.5 0,-230.5 0,-230.5 0,-173.5 0,-134.47 33.61,-99.58 56.13,-80.6"/>
<polygon fill="#63b8ff" stroke="#63b8ff" points="58.56,-83.14 64.12,-74.12 54.15,-77.7 58.56,-83.14"/>
</g>
<!-- Node30 -->
<g id="node22" class="node">
<title>Node30</title>
<g id="a_node22"><a xlink:title=" ">
<polygon fill="#e0e0e0" stroke="#999999" points="1419,-74 1375,-74 1375,-55 1419,-55 1419,-74"/>
<text text-anchor="middle" x="1397" y="-62" font-family="Helvetica,sans-Serif" font-size="10.00">limits</text>
</a>
</g>
</g>
<!-- Node1&#45;&gt;Node30 -->
<g id="edge89" class="edge">
<title>Node1&#45;&gt;Node30</title>
<path fill="none" stroke="#63b8ff" d="M2263.49,-329.95C2239.43,-313.33 2185.34,-275.12 2143,-239 2111.67,-212.28 2047.66,-126.64 2010,-110 1894.25,-58.87 1571.44,-93.53 1429.16,-73.71"/>
<polygon fill="#63b8ff" stroke="#63b8ff" points="1429.64,-70.24 1419.23,-72.18 1428.58,-77.16 1429.64,-70.24"/>
</g>
<!-- Node41 -->
<g id="node32" class="node">
<title>Node41</title>
<g id="a_node32"><a xlink:href="Cell_8h.html" target="_top" xlink:title="The definition of the base class of all cells the worksheet consists of.">
<polygon fill="white" stroke="#666666" points="1126,-294 1056,-294 1056,-275 1126,-275 1126,-294"/>
<text text-anchor="middle" x="1091" y="-282" font-family="Helvetica,sans-Serif" font-size="10.00">cells/Cell.h</text>
</a>
</g>
</g>
<!-- Node1&#45;&gt;Node41 -->
<g id="edge47" class="edge">
<title>Node1&#45;&gt;Node41</title>
<path fill="none" stroke="#63b8ff" d="M2216.42,-335.84C2008.79,-326.55 1319.69,-295.73 1136.21,-287.52"/>
<polygon fill="#63b8ff" stroke="#63b8ff" points="1136.25,-284.02 1126.1,-287.07 1135.94,-291.01 1136.25,-284.02"/>
</g>
<!-- Node47 -->
<g id="node36" class="node">
<title>Node47</title>
<g id="a_node36"><a xlink:href="StringUtils_8h_source.html" target="_top" xlink:title=" ">
<polygon fill="white" stroke="#666666" points="2228.5,-239 2151.5,-239 2151.5,-220 2228.5,-220 2228.5,-239"/>
<text text-anchor="middle" x="2190" y="-227" font-family="Helvetica,sans-Serif" font-size="10.00">StringUtils.h</text>
</a>
</g>
</g>
<!-- Node1&#45;&gt;Node47 -->
<g id="edge77" class="edge">
<title>Node1&#45;&gt;Node47</title>
<path fill="none" stroke="#63b8ff" d="M2268.96,-329.66C2254.59,-311.61 2221.67,-270.28 2203.2,-247.08"/>
<polygon fill="#63b8ff" stroke="#63b8ff" points="2205.86,-244.8 2196.89,-239.16 2200.39,-249.16 2205.86,-244.8"/>
</g>
<!-- Node48 -->
<g id="node37" class="node">
<title>Node48</title>
<g id="a_node37"><a xlink:title=" ">
<polygon fill="#e0e0e0" stroke="#999999" points="2410.5,-184 2339.5,-184 2339.5,-165 2410.5,-165 2410.5,-184"/>
<text text-anchor="middle" x="2375" y="-172" font-family="Helvetica,sans-Serif" font-size="10.00">wx/string.h</text>
</a>
</g>
</g>
<!-- Node1&#45;&gt;Node48 -->
<g id="edge83" class="edge">
<title>Node1&#45;&gt;Node48</title>
<path fill="none" stroke="#63b8ff" d="M2281.32,-329.74C2297.04,-303.87 2343.43,-227.48 2364.44,-192.88"/>
<polygon fill="#63b8ff" stroke="#63b8ff" points="2367.45,-194.67 2369.65,-184.31 2361.47,-191.04 2367.45,-194.67"/>
</g>
<!-- Node52 -->
<g id="node41" class="node">
<title>Node52</title>
<g id="a_node41"><a xlink:href="Dirstructure_8h.html" target="_top" xlink:title="This file declares the class DirStructure.">
<polygon fill="white" stroke="#666666" points="2448.5,-239 2365.5,-239 2365.5,-220 2448.5,-220 2448.5,-239"/>
<text text-anchor="middle" x="2407" y="-227" font-family="Helvetica,sans-Serif" font-size="10.00">Dirstructure.h</text>
</a>
</g>
</g>
<!-- Node1&#45;&gt;Node52 -->
<g id="edge71" class="edge">
<title>Node1&#45;&gt;Node52</title>
<path fill="none" stroke="#63b8ff" d="M2286.28,-329.82C2300.85,-317.54 2328.36,-294.44 2352,-275 2363.98,-265.15 2377.52,-254.19 2388.17,-245.62"/>
<polygon fill="#63b8ff" stroke="#63b8ff" points="2390.4,-248.31 2396,-239.31 2386.02,-242.85 2390.4,-248.31"/>
</g>
<!-- Node55 -->
<g id="node44" class="node">
<title>Node55</title>
<g id="a_node44"><a xlink:title=" ">
<polygon fill="#e0e0e0" stroke="#999999" points="2439,-294 2361,-294 2361,-275 2439,-275 2439,-294"/>
<text text-anchor="middle" x="2400" y="-282" font-family="Helvetica,sans-Serif" font-size="10.00">wx/fileconf.h</text>
</a>
</g>
</g>
<!-- Node1&#45;&gt;Node55 -->
<g id="edge79" class="edge">
<title>Node1&#45;&gt;Node55</title>
<path fill="none" stroke="#63b8ff" d="M2295.92,-329.98C2316.05,-321.38 2347.38,-307.99 2370.41,-298.15"/>
<polygon fill="#63b8ff" stroke="#63b8ff" points="2371.9,-301.32 2379.71,-294.17 2369.14,-294.88 2371.9,-301.32"/>
</g>
<!-- Node56 -->
<g id="node45" class="node">
<title>Node56</title>
<g id="a_node45"><a xlink:title=" ">
<polygon fill="#e0e0e0" stroke="#999999" points="2550.5,-294 2457.5,-294 2457.5,-275 2550.5,-275 2550.5,-294"/>
<text text-anchor="middle" x="2504" y="-282" font-family="Helvetica,sans-Serif" font-size="10.00">wx/mimetype.h</text>
</a>
</g>
</g>
<!-- Node1&#45;&gt;Node56 -->
<g id="edge81" class="edge">
<title>Node1&#45;&gt;Node56</title>
<path fill="none" stroke="#63b8ff" d="M2312.63,-329.98C2351.91,-320.86 2414.37,-306.33 2457.19,-296.38"/>
<polygon fill="#63b8ff" stroke="#63b8ff" points="2458.13,-299.76 2467.08,-294.08 2456.55,-292.94 2458.13,-299.76"/>
</g>
<!-- Node57 -->
<g id="node46" class="node">
<title>Node57</title>
<g id="a_node46"><a xlink:title=" ">
<polygon fill="#e0e0e0" stroke="#999999" points="2655.5,-294 2568.5,-294 2568.5,-275 2655.5,-275 2655.5,-294"/>
<text text-anchor="middle" x="2612" y="-282" font-family="Helvetica,sans-Serif" font-size="10.00">wx/mstream.h</text>
</a>
</g>
</g>
<!-- Node1&#45;&gt;Node57 -->
<g id="edge82" class="edge">
<title>Node1&#45;&gt;Node57</title>
<path fill="none" stroke="#63b8ff" d="M2330.99,-329.99C2386.04,-321.45 2473.44,-307.83 2558.25,-294.27"/>
<polygon fill="#63b8ff" stroke="#63b8ff" points="2558.99,-297.7 2568.31,-292.66 2557.88,-290.79 2558.99,-297.7"/>
</g>
<!-- Node58 -->
<g id="node47" class="node">
<title>Node58</title>
<g id="a_node47"><a xlink:title=" ">
<polygon fill="#e0e0e0" stroke="#999999" points="2752.5,-294 2673.5,-294 2673.5,-275 2752.5,-275 2752.5,-294"/>
<text text-anchor="middle" x="2713" y="-282" font-family="Helvetica,sans-Serif" font-size="10.00">wx/txtstrm.h</text>
</a>
</g>
</g>
<!-- Node1&#45;&gt;Node58 -->
<g id="edge84" class="edge">
<title>Node1&#45;&gt;Node58</title>
<path fill="none" stroke="#63b8ff" d="M2335.79,-332.81C2410.2,-325.47 2541.38,-311.7 2663.23,-294.18"/>
<polygon fill="#63b8ff" stroke="#63b8ff" points="2664.08,-297.6 2673.48,-292.7 2663.08,-290.67 2664.08,-297.6"/>
</g>
<!-- Node59 -->
<g id="node48" class="node">
<title>Node59</title>
<g id="a_node48"><a xlink:title=" ">
<polygon fill="#e0e0e0" stroke="#999999" points="2859.5,-294 2770.5,-294 2770.5,-275 2859.5,-275 2859.5,-294"/>
<text text-anchor="middle" x="2815" y="-282" font-family="Helvetica,sans-Serif" font-size="10.00">wx/wfstream.h</text>
</a>
</g>
</g>
<!-- Node1&#45;&gt;Node59 -->
<g id="edge85" class="edge">
<title>Node1&#45;&gt;Node59</title>
<path fill="none" stroke="#63b8ff" d="M2335.62,-334.35C2425.53,-327.8 2601.39,-313.86 2760.53,-294.11"/>
<polygon fill="#63b8ff" stroke="#63b8ff" points="2761.01,-297.58 2770.5,-292.86 2760.14,-290.63 2761.01,-297.58"/>
</g>
<!-- Node60 -->
<g id="node49" class="node">
<title>Node60</title>
<g id="a_node49"><a xlink:title=" ">
<polygon fill="#e0e0e0" stroke="#999999" points="2960.5,-294 2877.5,-294 2877.5,-275 2960.5,-275 2960.5,-294"/>
<text text-anchor="middle" x="2919" y="-282" font-family="Helvetica,sans-Serif" font-size="10.00">wx/xml/xml.h</text>
</a>
</g>
</g>
<!-- Node1&#45;&gt;Node60 -->
<g id="edge87" class="edge">
<title>Node1&#45;&gt;Node60</title>
<path fill="none" stroke="#63b8ff" d="M2335.52,-335.88C2440.79,-330.84 2666.88,-318.2 2867.18,-294.12"/>
<polygon fill="#63b8ff" stroke="#63b8ff" points="2867.8,-297.57 2877.3,-292.89 2866.95,-290.62 2867.8,-297.57"/>
</g>
<!-- Node61 -->
<g id="node50" class="node">
<title>Node61</title>
<g id="a_node50"><a xlink:title=" ">
<polygon fill="#e0e0e0" stroke="#999999" points="3065,-294 2979,-294 2979,-275 3065,-275 3065,-294"/>
<text text-anchor="middle" x="3022" y="-282" font-family="Helvetica,sans-Serif" font-size="10.00">wx/webview.h</text>
</a>
</g>
</g>
<!-- Node1&#45;&gt;Node61 -->
<g id="edge90" class="edge">
<title>Node1&#45;&gt;Node61</title>
<path fill="none" stroke="#63b8ff" d="M2335.59,-336.65C2454.2,-332.53 2728.44,-320.88 2968.93,-294"/>
<polygon fill="#63b8ff" stroke="#63b8ff" points="2969.37,-297.48 2978.91,-292.88 2968.59,-290.52 2969.37,-297.48"/>
</g>
<!-- Node3 -->
<g id="node3" class="node">
<title>Node3</title>
<g id="a_node3"><a xlink:href="precomp_8h_source.html" target="_top" xlink:title=" ">
<polygon fill="white" stroke="#666666" points="2023,-74 1955,-74 1955,-55 2023,-55 2023,-74"/>
<text text-anchor="middle" x="1989" y="-62" font-family="Helvetica,sans-Serif" font-size="10.00">precomp.h</text>
</a>
</g>
</g>
<!-- Node2&#45;&gt;Node3 -->
<g id="edge2" class="edge">
<title>Node2&#45;&gt;Node3</title>
<path fill="none" stroke="#63b8ff" d="M1532.71,-227.9C1653.31,-225.87 1973.08,-217.35 2006,-184 2032.42,-157.23 2012.99,-109.09 1999.33,-83.17"/>
<polygon fill="#63b8ff" stroke="#63b8ff" points="2002.23,-81.17 1994.32,-74.13 1996.11,-84.57 2002.23,-81.17"/>
</g>
<!-- Node2&#45;&gt;Node5 -->
<g id="edge4" class="edge">
<title>Node2&#45;&gt;Node5</title>
<path fill="none" stroke="#63b8ff" d="M1532.77,-228.52C1650.87,-228.02 1975.56,-223.01 2254.1,-184.03"/>
<polygon fill="#63b8ff" stroke="#63b8ff" points="2255,-187.44 2264.41,-182.57 2254.01,-180.51 2255,-187.44"/>
</g>
<!-- Node2&#45;&gt;Node6 -->
<g id="edge5" class="edge">
<title>Node2&#45;&gt;Node6</title>
<path fill="none" stroke="#63b8ff" d="M1441.43,-225.05C1390.73,-220.15 1307.01,-208.82 1239,-184 1223.1,-178.2 1222.1,-170.2 1206,-165 1060.25,-117.92 1012.69,-150.15 857.21,-129.03"/>
<polygon fill="#63b8ff" stroke="#63b8ff" points="857.7,-125.56 847.31,-127.63 856.72,-132.49 857.7,-125.56"/>
</g>
<!-- Node7 -->
<g id="node7" class="node">
<title>Node7</title>
<g id="a_node7"><a xlink:title=" ">
<polygon fill="#e0e0e0" stroke="#999999" points="1558.5,-184 1481.5,-184 1481.5,-165 1558.5,-165 1558.5,-184"/>
<text text-anchor="middle" x="1520" y="-172" font-family="Helvetica,sans-Serif" font-size="10.00">wx/display.h</text>
</a>
</g>
</g>
<!-- Node2&#45;&gt;Node7 -->
<g id="edge6" class="edge">
<title>Node2&#45;&gt;Node7</title>
<path fill="none" stroke="#63b8ff" d="M1492.45,-219.75C1497.01,-212.42 1503.67,-201.73 1509.29,-192.7"/>
<polygon fill="#63b8ff" stroke="#63b8ff" points="1512.34,-194.43 1514.65,-184.09 1506.4,-190.73 1512.34,-194.43"/>
</g>
<!-- Node8 -->
<g id="node8" class="node">
<title>Node8</title>
<g id="a_node8"><a xlink:title=" ">
<polygon fill="#e0e0e0" stroke="#999999" points="1667,-184 1577,-184 1577,-165 1667,-165 1667,-184"/>
<text text-anchor="middle" x="1622" y="-172" font-family="Helvetica,sans-Serif" font-size="10.00">wx/fontenum.h</text>
</a>
</g>
</g>
<!-- Node2&#45;&gt;Node8 -->
<g id="edge7" class="edge">
<title>Node2&#45;&gt;Node8</title>
<path fill="none" stroke="#63b8ff" d="M1508.69,-219.98C1530.8,-211.3 1565.32,-197.75 1590.45,-187.88"/>
<polygon fill="#63b8ff" stroke="#63b8ff" points="1591.89,-191.08 1599.92,-184.17 1589.33,-184.57 1591.89,-191.08"/>
</g>
<!-- Node9 -->
<g id="node9" class="node">
<title>Node9</title>
<g id="a_node9"><a xlink:title=" ">
<polygon fill="#e0e0e0" stroke="#999999" points="953,-129 865,-129 865,-110 953,-110 953,-129"/>
<text text-anchor="middle" x="909" y="-117" font-family="Helvetica,sans-Serif" font-size="10.00">wx/hashmap.h</text>
</a>
</g>
</g>
<!-- Node2&#45;&gt;Node9 -->
<g id="edge8" class="edge">
<title>Node2&#45;&gt;Node9</title>
<path fill="none" stroke="#63b8ff" d="M1441.19,-220.44C1400.3,-212.75 1339.03,-199.98 1287,-184 1265.07,-177.27 1261.2,-170.8 1239,-165 1188.21,-151.74 1043.42,-134.9 963.55,-126.23"/>
<polygon fill="#63b8ff" stroke="#63b8ff" points="963.52,-122.71 953.2,-125.11 962.77,-129.67 963.52,-122.71"/>
</g>
<!-- Node10 -->
<g id="node10" class="node">
<title>Node10</title>
<g id="a_node10"><a xlink:href="LoggingMessageDialog_8h.html" target="_top" xlink:title="This file declares a message dialog that sends its contents to the log message sink.">
<polygon fill="#fff0f0" stroke="red" points="2000.5,-129 1823.5,-129 1823.5,-110 2000.5,-110 2000.5,-129"/>
<text text-anchor="middle" x="1912" y="-117" font-family="Helvetica,sans-Serif" font-size="10.00">dialogs/LoggingMessageDialog.h</text>
</a>
</g>
</g>
<!-- Node2&#45;&gt;Node10 -->
<g id="edge9" class="edge">
<title>Node2&#45;&gt;Node10</title>
<path fill="none" stroke="#63b8ff" d="M1532.72,-227.9C1650.9,-225.86 1959.44,-217.38 1990,-184 2008.38,-163.92 1975.46,-144.75 1946.89,-132.83"/>
<polygon fill="#63b8ff" stroke="#63b8ff" points="1948.04,-129.52 1937.45,-129.07 1945.45,-136.02 1948.04,-129.52"/>
</g>
<!-- Node2&#45;&gt;Node13 -->
<g id="edge11" class="edge">
<title>Node2&#45;&gt;Node13</title>
<path fill="none" stroke="#63b8ff" d="M1441.46,-225.65C1298.31,-216.69 857.49,-189.11 698.19,-179.14"/>
<polygon fill="#63b8ff" stroke="#63b8ff" points="698.31,-175.64 688.11,-178.51 697.88,-182.63 698.31,-175.64"/>
</g>
<!-- Node20 -->
<g id="node18" class="node">
<title>Node20</title>
<g id="a_node18"><a xlink:title=" ">
<polygon fill="#e0e0e0" stroke="#999999" points="863,-74 813,-74 813,-55 863,-55 863,-74"/>
<text text-anchor="middle" x="838" y="-62" font-family="Helvetica,sans-Serif" font-size="10.00">cstdint</text>
</a>
</g>
</g>
<!-- Node2&#45;&gt;Node20 -->
<g id="edge37" class="edge">
<title>Node2&#45;&gt;Node20</title>
<path fill="none" stroke="#63b8ff" d="M1443.82,-219.97C1408.56,-212.38 1357.75,-200.01 1315,-184 1297.32,-177.38 1294.96,-170.83 1277,-165 1184.02,-134.8 1155.37,-150.48 1060,-129 993.02,-113.92 916.3,-90.59 872.85,-76.81"/>
<polygon fill="#63b8ff" stroke="#63b8ff" points="873.65,-73.39 863.06,-73.68 871.52,-80.06 873.65,-73.39"/>
</g>
<!-- Node2&#45;&gt;Node29 -->
<g id="edge44" class="edge">
<title>Node2&#45;&gt;Node29</title>
<path fill="none" stroke="#63b8ff" d="M1441.47,-226.45C1270.03,-218.72 668.77,-191.34 583,-184 382.25,-166.81 311.68,-222.12 133,-129 112.96,-118.55 96.56,-98 86.58,-83.1"/>
<polygon fill="#63b8ff" stroke="#63b8ff" points="89.29,-80.85 80.97,-74.29 83.39,-84.61 89.29,-80.85"/>
</g>
<!-- Node32 -->
<g id="node24" class="node">
<title>Node32</title>
<g id="a_node24"><a xlink:title=" ">
<polygon fill="#e0e0e0" stroke="#999999" points="1330,-74 1272,-74 1272,-55 1330,-55 1330,-74"/>
<text text-anchor="middle" x="1301" y="-62" font-family="Helvetica,sans-Serif" font-size="10.00">memory</text>
</a>
</g>
</g>
<!-- Node2&#45;&gt;Node32 -->
<g id="edge38" class="edge">
<title>Node2&#45;&gt;Node32</title>
<path fill="none" stroke="#63b8ff" d="M1477.3,-219.82C1455.29,-200.16 1399.86,-150.77 1353,-110 1341.79,-100.25 1329.13,-89.41 1319.11,-80.87"/>
<polygon fill="#63b8ff" stroke="#63b8ff" points="1321.29,-78.13 1311.4,-74.32 1316.75,-83.46 1321.29,-78.13"/>
</g>
<!-- Node33 -->
<g id="node25" class="node">
<title>Node33</title>
<g id="a_node25"><a xlink:title=" ">
<polygon fill="#e0e0e0" stroke="#999999" points="1469,-74 1437,-74 1437,-55 1469,-55 1469,-74"/>
<text text-anchor="middle" x="1453" y="-62" font-family="Helvetica,sans-Serif" font-size="10.00">list</text>
</a>
</g>
</g>
<!-- Node2&#45;&gt;Node33 -->
<g id="edge42" class="edge">
<title>Node2&#45;&gt;Node33</title>
<path fill="none" stroke="#63b8ff" d="M1483.85,-219.74C1480.74,-210.83 1476.03,-196.6 1473,-184 1464.62,-149.13 1458.47,-107.67 1455.34,-84.18"/>
<polygon fill="#63b8ff" stroke="#63b8ff" points="1458.81,-83.67 1454.05,-74.21 1451.86,-84.57 1458.81,-83.67"/>
</g>
<!-- Node35 -->
<g id="node26" class="node">
<title>Node35</title>
<g id="a_node26"><a xlink:title=" ">
<polygon fill="#e0e0e0" stroke="#999999" points="1103.5,-74 1010.5,-74 1010.5,-55 1103.5,-55 1103.5,-74"/>
<text text-anchor="middle" x="1057" y="-62" font-family="Helvetica,sans-Serif" font-size="10.00">unordered_map</text>
</a>
</g>
</g>
<!-- Node2&#45;&gt;Node35 -->
<g id="edge40" class="edge">
<title>Node2&#45;&gt;Node35</title>
<path fill="none" stroke="#63b8ff" d="M1467.81,-219.94C1436.46,-206.3 1372.03,-179.68 1315,-165 1211.4,-138.34 1158.28,-198.56 1077,-129 1064.11,-117.97 1059.43,-98.72 1057.78,-84.29"/>
<polygon fill="#63b8ff" stroke="#63b8ff" points="1061.24,-83.72 1057,-74.01 1054.26,-84.25 1061.24,-83.72"/>
</g>
<!-- Node36 -->
<g id="node27" class="node">
<title>Node36</title>
<g id="a_node27"><a xlink:title=" ">
<polygon fill="#e0e0e0" stroke="#999999" points="1733,-184 1685,-184 1685,-165 1733,-165 1733,-184"/>
<text text-anchor="middle" x="1709" y="-172" font-family="Helvetica,sans-Serif" font-size="10.00">mutex</text>
</a>
</g>
</g>
<!-- Node2&#45;&gt;Node36 -->
<g id="edge39" class="edge">
<title>Node2&#45;&gt;Node36</title>
<path fill="none" stroke="#63b8ff" d="M1524.35,-219.95C1560.43,-211.63 1616.87,-198.49 1674.8,-184.26"/>
<polygon fill="#63b8ff" stroke="#63b8ff" points="1675.99,-187.57 1684.86,-181.78 1674.32,-180.77 1675.99,-187.57"/>
</g>
<!-- Node37 -->
<g id="node28" class="node">
<title>Node37</title>
<g id="a_node28"><a xlink:title=" ">
<polygon fill="#e0e0e0" stroke="#999999" points="1805,-184 1751,-184 1751,-165 1805,-165 1805,-184"/>
<text text-anchor="middle" x="1778" y="-172" font-family="Helvetica,sans-Serif" font-size="10.00">random</text>
</a>
</g>
</g>
<!-- Node2&#45;&gt;Node37 -->
<g id="edge41" class="edge">
<title>Node2&#45;&gt;Node37</title>
<path fill="none" stroke="#63b8ff" d="M1532.76,-221.35C1581.81,-213.5 1662.21,-200.1 1740.83,-184.14"/>
<polygon fill="#63b8ff" stroke="#63b8ff" points="1741.82,-187.51 1750.91,-182.08 1740.41,-180.65 1741.82,-187.51"/>
</g>
<!-- Node38 -->
<g id="node29" class="node">
<title>Node38</title>
<g id="a_node29"><a xlink:title=" ">
<polygon fill="#e0e0e0" stroke="#999999" points="1196.5,-184 1149.5,-184 1149.5,-165 1196.5,-165 1196.5,-184"/>
<text text-anchor="middle" x="1173" y="-172" font-family="Helvetica,sans-Serif" font-size="10.00">vector</text>
</a>
</g>
</g>
<!-- Node2&#45;&gt;Node38 -->
<g id="edge43" class="edge">
<title>Node2&#45;&gt;Node38</title>
<path fill="none" stroke="#63b8ff" d="M1441.43,-222.01C1386.59,-214.01 1291.79,-199.53 1211,-184 1209.55,-183.72 1208.07,-183.43 1206.57,-183.12"/>
<polygon fill="#63b8ff" stroke="#63b8ff" points="1207.18,-179.67 1196.67,-181.03 1205.73,-186.52 1207.18,-179.67"/>
</g>
<!-- Node39 -->
<g id="node30" class="node">
<title>Node39</title>
<g id="a_node30"><a xlink:title=" ">
<polygon fill="#e0e0e0" stroke="#999999" points="1873,-184 1823,-184 1823,-165 1873,-165 1873,-184"/>
<text text-anchor="middle" x="1848" y="-172" font-family="Helvetica,sans-Serif" font-size="10.00">atomic</text>
</a>
</g>
</g>
<!-- Node2&#45;&gt;Node39 -->
<g id="edge45" class="edge">
<title>Node2&#45;&gt;Node39</title>
<path fill="none" stroke="#63b8ff" d="M1532.75,-223.88C1594.3,-217.31 1707.31,-204 1812.95,-184.01"/>
<polygon fill="#63b8ff" stroke="#63b8ff" points="1813.65,-187.44 1822.82,-182.12 1812.34,-180.57 1813.65,-187.44"/>
</g>
<!-- Node40 -->
<g id="node31" class="node">
<title>Node40</title>
<g id="a_node31"><a xlink:title=" ">
<polygon fill="#e0e0e0" stroke="#999999" points="1980.5,-184 1891.5,-184 1891.5,-165 1980.5,-165 1980.5,-184"/>
<text text-anchor="middle" x="1936" y="-172" font-family="Helvetica,sans-Serif" font-size="10.00">wx/wupdlock.h</text>
</a>
</g>
</g>
<!-- Node2&#45;&gt;Node40 -->
<g id="edge46" class="edge">
<title>Node2&#45;&gt;Node40</title>
<path fill="none" stroke="#63b8ff" d="M1532.7,-224.01C1604.55,-216.81 1748.57,-201.79 1881.29,-184.04"/>
<polygon fill="#63b8ff" stroke="#63b8ff" points="1881.79,-187.5 1891.23,-182.7 1880.86,-180.57 1881.79,-187.5"/>
</g>
<!-- Node4 -->
<g id="node4" class="node">
<title>Node4</title>
<g id="a_node4"><a xlink:title=" ">
<polygon fill="#e0e0e0" stroke="#999999" points="2020,-19 1958,-19 1958,0 2020,0 2020,-19"/>
<text text-anchor="middle" x="1989" y="-7" font-family="Helvetica,sans-Serif" font-size="10.00">Version.h</text>
</a>
</g>
</g>
<!-- Node3&#45;&gt;Node4 -->
<g id="edge3" class="edge">
<title>Node3&#45;&gt;Node4</title>
<path fill="none" stroke="#63b8ff" d="M1989,-54.75C1989,-47.8 1989,-37.85 1989,-29.13"/>
<polygon fill="#63b8ff" stroke="#63b8ff" points="1992.5,-29.09 1989,-19.09 1985.5,-29.09 1992.5,-29.09"/>
</g>
<!-- Node10&#45;&gt;Node3 -->
<g id="edge10" class="edge">
<title>Node10&#45;&gt;Node3</title>
<path fill="none" stroke="#63b8ff" d="M1924.37,-109.98C1936.09,-101.92 1953.92,-89.65 1967.89,-80.03"/>
<polygon fill="#63b8ff" stroke="#63b8ff" points="1970.15,-82.72 1976.4,-74.17 1966.18,-76.96 1970.15,-82.72"/>
</g>
<!-- Node13&#45;&gt;Node3 -->
<g id="edge12" class="edge">
<title>Node13&#45;&gt;Node3</title>
<path fill="none" stroke="#63b8ff" d="M688.08,-169.76C785.71,-162.16 1014.16,-144.32 1206,-129 1487.09,-106.55 1824.89,-78.94 1944.44,-69.15"/>
<polygon fill="#63b8ff" stroke="#63b8ff" points="1944.98,-72.62 1954.66,-68.32 1944.41,-65.64 1944.98,-72.62"/>
</g>
<!-- Node13&#45;&gt;Node6 -->
<g id="edge18" class="edge">
<title>Node13&#45;&gt;Node6</title>
<path fill="none" stroke="#63b8ff" d="M667.47,-164.98C696.18,-156.09 741.42,-142.07 773.42,-132.15"/>
<polygon fill="#63b8ff" stroke="#63b8ff" points="774.8,-135.39 783.31,-129.08 772.72,-128.7 774.8,-135.39"/>
</g>
<!-- Node13&#45;&gt;Node9 -->
<g id="edge15" class="edge">
<title>Node13&#45;&gt;Node9</title>
<path fill="none" stroke="#63b8ff" d="M683.22,-164.98C730.04,-155.76 804.81,-141.03 855.36,-131.07"/>
<polygon fill="#63b8ff" stroke="#63b8ff" points="856.31,-134.45 865.44,-129.08 854.95,-127.58 856.31,-134.45"/>
</g>
<!-- Node14 -->
<g id="node12" class="node">
<title>Node14</title>
<g id="a_node12"><a xlink:title=" ">
<polygon fill="#e0e0e0" stroke="#999999" points="346,-129 274,-129 274,-110 346,-110 346,-129"/>
<text text-anchor="middle" x="310" y="-117" font-family="Helvetica,sans-Serif" font-size="10.00">wx/colour.h</text>
</a>
</g>
</g>
<!-- Node13&#45;&gt;Node14 -->
<g id="edge13" class="edge">
<title>Node13&#45;&gt;Node14</title>
<path fill="none" stroke="#63b8ff" d="M591.95,-166.38C535.42,-157.91 438.77,-143.13 356,-129 355.9,-128.98 355.8,-128.97 355.7,-128.95"/>
<polygon fill="#63b8ff" stroke="#63b8ff" points="356.6,-125.55 346.14,-127.27 355.39,-132.45 356.6,-125.55"/>
</g>
<!-- Node15 -->
<g id="node13" class="node">
<title>Node15</title>
<g id="a_node13"><a xlink:title=" ">
<polygon fill="#e0e0e0" stroke="#999999" points="180,-129 142,-129 142,-110 180,-110 180,-129"/>
<text text-anchor="middle" x="161" y="-117" font-family="Helvetica,sans-Serif" font-size="10.00">map</text>
</a>
</g>
</g>
<!-- Node13&#45;&gt;Node15 -->
<g id="edge14" class="edge">
<title>Node13&#45;&gt;Node15</title>
<path fill="none" stroke="#63b8ff" d="M591.96,-166.71C587.25,-166.1 582.53,-165.52 578,-165 407.71,-145.35 362.86,-158.47 194,-129 192.72,-128.78 191.42,-128.53 190.11,-128.26"/>
<polygon fill="#63b8ff" stroke="#63b8ff" points="190.61,-124.79 180.08,-125.96 189.05,-131.61 190.61,-124.79"/>
</g>
<!-- Node16 -->
<g id="node14" class="node">
<title>Node16</title>
<g id="a_node14"><a xlink:title=" ">
<polygon fill="#e0e0e0" stroke="#999999" points="505,-129 461,-129 461,-110 505,-110 505,-129"/>
<text text-anchor="middle" x="483" y="-117" font-family="Helvetica,sans-Serif" font-size="10.00">string</text>
</a>
</g>
</g>
<!-- Node13&#45;&gt;Node16 -->
<g id="edge16" class="edge">
<title>Node13&#45;&gt;Node16</title>
<path fill="none" stroke="#63b8ff" d="M614.78,-164.98C587.64,-155.82 544.41,-141.23 514.93,-131.28"/>
<polygon fill="#63b8ff" stroke="#63b8ff" points="515.71,-127.85 505.12,-127.97 513.47,-134.48 515.71,-127.85"/>
</g>
<!-- Node17 -->
<g id="node15" class="node">
<title>Node17</title>
<g id="a_node15"><a xlink:title=" ">
<polygon fill="#e0e0e0" stroke="#999999" points="580.5,-129 523.5,-129 523.5,-110 580.5,-110 580.5,-129"/>
<text text-anchor="middle" x="552" y="-117" font-family="Helvetica,sans-Serif" font-size="10.00">ostream</text>
</a>
</g>
</g>
<!-- Node13&#45;&gt;Node17 -->
<g id="edge17" class="edge">
<title>Node13&#45;&gt;Node17</title>
<path fill="none" stroke="#63b8ff" d="M625.86,-164.98C612.21,-156.77 591.31,-144.18 575.22,-134.49"/>
<polygon fill="#63b8ff" stroke="#63b8ff" points="576.77,-131.33 566.4,-129.17 573.16,-137.33 576.77,-131.33"/>
</g>
<!-- Node13&#45;&gt;Node18 -->
<g id="edge19" class="edge">
<title>Node13&#45;&gt;Node18</title>
<path fill="none" stroke="#63b8ff" d="M591.95,-166.79C587.24,-166.17 582.53,-165.56 578,-165 505.89,-156.06 301.47,-183.14 253,-129 241.92,-116.62 247.67,-97.32 254.49,-83.25"/>
<polygon fill="#63b8ff" stroke="#63b8ff" points="257.76,-84.56 259.42,-74.09 251.6,-81.24 257.76,-84.56"/>
</g>
<!-- Node19 -->
<g id="node17" class="node">
<title>Node19</title>
<g id="a_node17"><a xlink:title=" ">
<polygon fill="#e0e0e0" stroke="#999999" points="681,-129 599,-129 599,-110 681,-110 681,-129"/>
<text text-anchor="middle" x="640" y="-117" font-family="Helvetica,sans-Serif" font-size="10.00">wx/settings.h</text>
</a>
</g>
</g>
<!-- Node13&#45;&gt;Node19 -->
<g id="edge20" class="edge">
<title>Node13&#45;&gt;Node19</title>
<path fill="none" stroke="#63b8ff" d="M640,-164.75C640,-157.8 640,-147.85 640,-139.13"/>
<polygon fill="#63b8ff" stroke="#63b8ff" points="643.5,-139.09 640,-129.09 636.5,-139.09 643.5,-139.09"/>
</g>
<!-- Node13&#45;&gt;Node20 -->
<g id="edge21" class="edge">
<title>Node13&#45;&gt;Node20</title>
<path fill="none" stroke="#63b8ff" d="M650.99,-164.93C667.94,-151.96 701.77,-127.06 733,-110 756.1,-97.38 783.52,-85.87 804.55,-77.71"/>
<polygon fill="#63b8ff" stroke="#63b8ff" points="805.92,-80.94 814.02,-74.1 803.43,-74.4 805.92,-80.94"/>
</g>
<!-- Node21 -->
<g id="node19" class="node">
<title>Node21</title>
<g id="a_node19"><a xlink:title=" ">
<polygon fill="#e0e0e0" stroke="#999999" points="436.5,-74 371.5,-74 371.5,-55 436.5,-55 436.5,-74"/>
<text text-anchor="middle" x="404" y="-62" font-family="Helvetica,sans-Serif" font-size="10.00">functional</text>
</a>
</g>
</g>
<!-- Node13&#45;&gt;Node21 -->
<g id="edge22" class="edge">
<title>Node13&#45;&gt;Node21</title>
<path fill="none" stroke="#63b8ff" d="M591.95,-166.81C587.24,-166.18 582.53,-165.57 578,-165 508.54,-156.24 311.59,-181.26 265,-129 234.21,-94.47 309.86,-77.52 361.23,-70.22"/>
<polygon fill="#63b8ff" stroke="#63b8ff" points="361.7,-73.69 371.14,-68.88 360.76,-66.75 361.7,-73.69"/>
</g>
<!-- Node22 -->
<g id="node20" class="node">
<title>Node22</title>
<g id="a_node20"><a xlink:href="FontAttribs_8h_source.html" target="_top" xlink:title=" ">
<polygon fill="#fff0f0" stroke="red" points="443.5,-129 364.5,-129 364.5,-110 443.5,-110 443.5,-129"/>
<text text-anchor="middle" x="404" y="-117" font-family="Helvetica,sans-Serif" font-size="10.00">FontAttribs.h</text>
</a>
</g>
</g>
<!-- Node13&#45;&gt;Node22 -->
<g id="edge23" class="edge">
<title>Node13&#45;&gt;Node22</title>
<path fill="none" stroke="#63b8ff" d="M602.08,-164.98C561.35,-155.84 496.5,-141.27 452.18,-131.32"/>
<polygon fill="#63b8ff" stroke="#63b8ff" points="452.74,-127.86 442.21,-129.08 451.2,-134.69 452.74,-127.86"/>
</g>
<!-- Node31 -->
<g id="node23" class="node">
<title>Node31</title>
<g id="a_node23"><a xlink:href="FontVariantCache_8h.html" target="_top" xlink:title="This file implements the wxFont cache system.">
<polygon fill="#fff0f0" stroke="red" points="1196.5,-129 1085.5,-129 1085.5,-110 1196.5,-110 1196.5,-129"/>
<text text-anchor="middle" x="1141" y="-117" font-family="Helvetica,sans-Serif" font-size="10.00">FontVariantCache.h</text>
</a>
</g>
</g>
<!-- Node13&#45;&gt;Node31 -->
<g id="edge29" class="edge">
<title>Node13&#45;&gt;Node31</title>
<path fill="none" stroke="#63b8ff" d="M688.04,-168.42C778.13,-158.89 972.59,-138.32 1074.94,-127.49"/>
<polygon fill="#63b8ff" stroke="#63b8ff" points="1075.58,-130.94 1085.15,-126.41 1074.84,-123.98 1075.58,-130.94"/>
</g>
<!-- Node13&#45;&gt;Node35 -->
<g id="edge36" class="edge">
<title>Node13&#45;&gt;Node35</title>
<path fill="none" stroke="#63b8ff" d="M658.49,-164.95C677.18,-156.22 706.82,-142.11 732,-129 747.35,-121.01 749.63,-115.62 766,-110 844.6,-83.02 940.74,-72.36 1000.44,-68.17"/>
<polygon fill="#63b8ff" stroke="#63b8ff" points="1000.68,-71.67 1010.42,-67.51 1000.21,-64.68 1000.68,-71.67"/>
</g>
<!-- Node22&#45;&gt;Node18 -->
<g id="edge24" class="edge">
<title>Node22&#45;&gt;Node18</title>
<path fill="none" stroke="#63b8ff" d="M381.67,-109.98C358.8,-101.27 323.04,-87.63 297.14,-77.75"/>
<polygon fill="#63b8ff" stroke="#63b8ff" points="298.33,-74.46 287.74,-74.17 295.84,-81 298.33,-74.46"/>
</g>
<!-- Node22&#45;&gt;Node20 -->
<g id="edge26" class="edge">
<title>Node22&#45;&gt;Node20</title>
<path fill="none" stroke="#63b8ff" d="M443.52,-111.31C446.39,-110.84 449.24,-110.4 452,-110 580.62,-91.22 734.31,-75.5 802.45,-68.87"/>
<polygon fill="#63b8ff" stroke="#63b8ff" points="803.02,-72.33 812.64,-67.89 802.35,-65.37 803.02,-72.33"/>
</g>
<!-- Node22&#45;&gt;Node21 -->
<g id="edge27" class="edge">
<title>Node22&#45;&gt;Node21</title>
<path fill="none" stroke="#63b8ff" d="M404,-109.75C404,-102.8 404,-92.85 404,-84.13"/>
<polygon fill="#63b8ff" stroke="#63b8ff" points="407.5,-84.09 404,-74.09 400.5,-84.09 407.5,-84.09"/>
</g>
<!-- Node22&#45;&gt;Node29 -->
<g id="edge25" class="edge">
<title>Node22&#45;&gt;Node29</title>
<path fill="none" stroke="#63b8ff" d="M364.43,-111.59C361.24,-111.05 358.07,-110.51 355,-110 271.14,-96.04 172.94,-80.58 118.26,-72.06"/>
<polygon fill="#63b8ff" stroke="#63b8ff" points="118.66,-68.58 108.24,-70.5 117.59,-75.49 118.66,-68.58"/>
</g>
<!-- Node22&#45;&gt;Node30 -->
<g id="edge28" class="edge">
<title>Node22&#45;&gt;Node30</title>
<path fill="none" stroke="#63b8ff" d="M443.75,-111.04C446.54,-110.64 449.31,-110.29 452,-110 844.25,-67.51 946.16,-110.66 1339,-74 1347.34,-73.22 1356.3,-72.07 1364.64,-70.86"/>
<polygon fill="#63b8ff" stroke="#63b8ff" points="1365.4,-74.28 1374.76,-69.32 1364.34,-67.36 1365.4,-74.28"/>
</g>
<!-- Node31&#45;&gt;Node3 -->
<g id="edge30" class="edge">
<title>Node31&#45;&gt;Node3</title>
<path fill="none" stroke="#63b8ff" d="M1196.75,-111.41C1201.57,-110.89 1206.37,-110.41 1211,-110 1489.62,-85.14 1825.68,-71.41 1944.65,-67.05"/>
<polygon fill="#63b8ff" stroke="#63b8ff" points="1944.95,-70.54 1954.82,-66.68 1944.7,-63.54 1944.95,-70.54"/>
</g>
<!-- Node31&#45;&gt;Node18 -->
<g id="edge32" class="edge">
<title>Node31&#45;&gt;Node18</title>
<path fill="none" stroke="#63b8ff" d="M1085.3,-115.88C957.54,-109.74 633.56,-93.47 363,-74 344.52,-72.67 324.1,-70.94 306.71,-69.39"/>
<polygon fill="#63b8ff" stroke="#63b8ff" points="306.59,-65.87 296.32,-68.45 305.96,-72.84 306.59,-65.87"/>
</g>
<!-- Node31&#45;&gt;Node21 -->
<g id="edge33" class="edge">
<title>Node31&#45;&gt;Node21</title>
<path fill="none" stroke="#63b8ff" d="M1085.3,-114.49C943.91,-104.33 573.34,-77.68 446.95,-68.59"/>
<polygon fill="#63b8ff" stroke="#63b8ff" points="447.11,-65.09 436.88,-67.86 446.61,-72.07 447.11,-65.09"/>
</g>
<!-- Node31&#45;&gt;Node32 -->
<g id="edge31" class="edge">
<title>Node31&#45;&gt;Node32</title>
<path fill="none" stroke="#63b8ff" d="M1166.71,-109.98C1193.45,-101.13 1235.53,-87.19 1265.45,-77.28"/>
<polygon fill="#63b8ff" stroke="#63b8ff" points="1266.7,-80.55 1275.09,-74.08 1264.5,-73.9 1266.7,-80.55"/>
</g>
<!-- Node31&#45;&gt;Node33 -->
<g id="edge34" class="edge">
<title>Node31&#45;&gt;Node33</title>
<path fill="none" stroke="#63b8ff" d="M1196.75,-111.03C1263.3,-101.92 1371.63,-86.44 1427.24,-73.74"/>
<polygon fill="#63b8ff" stroke="#63b8ff" points="1428.08,-77.14 1436.98,-71.4 1426.44,-70.33 1428.08,-77.14"/>
</g>
<!-- Node31&#45;&gt;Node35 -->
<g id="edge35" class="edge">
<title>Node31&#45;&gt;Node35</title>
<path fill="none" stroke="#63b8ff" d="M1127.5,-109.98C1114.6,-101.84 1094.9,-89.41 1079.6,-79.76"/>
<polygon fill="#63b8ff" stroke="#63b8ff" points="1081.07,-76.55 1070.74,-74.17 1077.33,-82.47 1081.07,-76.55"/>
</g>
<!-- Node41&#45;&gt;Node2 -->
<g id="edge56" class="edge">
<title>Node41&#45;&gt;Node2</title>
<path fill="none" stroke="#63b8ff" d="M1126.14,-278.8C1195.1,-269.57 1348.62,-249.02 1431.45,-237.93"/>
<polygon fill="#63b8ff" stroke="#63b8ff" points="1431.99,-241.39 1441.44,-236.6 1431.06,-234.46 1431.99,-241.39"/>
</g>
<!-- Node41&#45;&gt;Node3 -->
<g id="edge48" class="edge">
<title>Node41&#45;&gt;Node3</title>
<path fill="none" stroke="#63b8ff" d="M1126,-282.41C1288.27,-277.03 1962.08,-250.74 2025,-184 2047.58,-160.05 2039.59,-140.81 2028,-110 2023.82,-98.89 2015.48,-88.75 2007.57,-80.96"/>
<polygon fill="#63b8ff" stroke="#63b8ff" points="2009.72,-78.19 1999.99,-74.01 2004.99,-83.35 2009.72,-78.19"/>
</g>
<!-- Node41&#45;&gt;Node13 -->
<g id="edge60" class="edge">
<title>Node41&#45;&gt;Node13</title>
<path fill="none" stroke="#63b8ff" d="M1055.6,-279.07C1005.57,-272.44 911.5,-258.57 833,-239 775.19,-224.59 709.65,-201.55 671.74,-187.54"/>
<polygon fill="#63b8ff" stroke="#63b8ff" points="672.86,-184.23 662.27,-184.02 670.42,-190.79 672.86,-184.23"/>
</g>
<!-- Node41&#45;&gt;Node15 -->
<g id="edge66" class="edge">
<title>Node41&#45;&gt;Node15</title>
<path fill="none" stroke="#63b8ff" d="M1055.57,-279.37C995.46,-272.21 869.69,-256.56 764,-239 542.23,-202.15 277.01,-145.68 190.12,-126.85"/>
<polygon fill="#63b8ff" stroke="#63b8ff" points="190.71,-123.4 180.19,-124.7 189.22,-130.24 190.71,-123.4"/>
</g>
<!-- Node41&#45;&gt;Node29 -->
<g id="edge65" class="edge">
<title>Node41&#45;&gt;Node29</title>
<path fill="none" stroke="#63b8ff" d="M1055.59,-283.9C935.33,-284.35 532.53,-278.25 218,-184 164.88,-168.08 144.92,-168.51 106,-129 93.71,-116.53 85.77,-98.06 81.16,-84.26"/>
<polygon fill="#63b8ff" stroke="#63b8ff" points="84.42,-82.94 78.17,-74.39 77.72,-84.97 84.42,-82.94"/>
</g>
<!-- Node41&#45;&gt;Node32 -->
<g id="edge67" class="edge">
<title>Node41&#45;&gt;Node32</title>
<path fill="none" stroke="#63b8ff" d="M1094.12,-274.88C1103.6,-248.88 1131.94,-172.62 1141,-165 1195.46,-119.21 1250.97,-183.26 1297,-129 1307.37,-116.77 1307.27,-97.99 1305.23,-84.02"/>
<polygon fill="#63b8ff" stroke="#63b8ff" points="1308.65,-83.24 1303.35,-74.07 1301.77,-84.54 1308.65,-83.24"/>
</g>
<!-- Node41&#45;&gt;Node38 -->
<g id="edge68" class="edge">
<title>Node41&#45;&gt;Node38</title>
<path fill="none" stroke="#63b8ff" d="M1102.58,-274.94C1113.26,-266.62 1129.06,-253.2 1140,-239 1150.77,-225.02 1159.75,-207.01 1165.61,-193.74"/>
<polygon fill="#63b8ff" stroke="#63b8ff" points="1168.93,-194.86 1169.61,-184.28 1162.49,-192.13 1168.93,-194.86"/>
</g>
<!-- Node42 -->
<g id="node33" class="node">
<title>Node42</title>
<g id="a_node33"><a xlink:href="CellPtr_8h.html" target="_top" xlink:title="Implementation of an observing weak Cell pointer.">
<polygon fill="#fff0f0" stroke="red" points="993.5,-239 936.5,-239 936.5,-220 993.5,-220 993.5,-239"/>
<text text-anchor="middle" x="965" y="-227" font-family="Helvetica,sans-Serif" font-size="10.00">CellPtr.h</text>
</a>
</g>
</g>
<!-- Node41&#45;&gt;Node42 -->
<g id="edge49" class="edge">
<title>Node41&#45;&gt;Node42</title>
<path fill="none" stroke="#63b8ff" d="M1070.76,-274.98C1050.3,-266.38 1018.47,-252.99 995.07,-243.15"/>
<polygon fill="#63b8ff" stroke="#63b8ff" points="996.19,-239.82 985.61,-239.17 993.47,-246.27 996.19,-239.82"/>
</g>
<!-- Node25 -->
<g id="node34" class="node">
<title>Node25</title>
<g id="a_node34"><a xlink:title=" ">
<polygon fill="#e0e0e0" stroke="#999999" points="1054.5,-184 985.5,-184 985.5,-165 1054.5,-165 1054.5,-184"/>
<text text-anchor="middle" x="1020" y="-172" font-family="Helvetica,sans-Serif" font-size="10.00">type_traits</text>
</a>
</g>
</g>
<!-- Node41&#45;&gt;Node25 -->
<g id="edge69" class="edge">
<title>Node41&#45;&gt;Node25</title>
<path fill="none" stroke="#63b8ff" d="M1055.65,-282.46C994.14,-279.83 871.43,-270.64 845,-239 807.32,-193.89 911.51,-180.82 975,-177.04"/>
<polygon fill="#63b8ff" stroke="#63b8ff" points="975.4,-180.53 985.2,-176.49 975.02,-173.54 975.4,-180.53"/>
</g>
<!-- Node45 -->
<g id="node35" class="node">
<title>Node45</title>
<g id="a_node35"><a xlink:href="CellIterators_8h.html" target="_top" xlink:title="Declares the various iterators useful with the Cell class.">
<polygon fill="#fff0f0" stroke="red" points="1098,-239 1012,-239 1012,-220 1098,-220 1098,-239"/>
<text text-anchor="middle" x="1055" y="-227" font-family="Helvetica,sans-Serif" font-size="10.00">CellIterators.h</text>
</a>
</g>
</g>
<!-- Node41&#45;&gt;Node45 -->
<g id="edge53" class="edge">
<title>Node41&#45;&gt;Node45</title>
<path fill="none" stroke="#63b8ff" d="M1085.06,-274.75C1080.02,-267.34 1072.66,-256.5 1066.49,-247.41"/>
<polygon fill="#63b8ff" stroke="#63b8ff" points="1069.35,-245.39 1060.83,-239.09 1063.56,-249.33 1069.35,-245.39"/>
</g>
<!-- Node41&#45;&gt;Node47 -->
<g id="edge57" class="edge">
<title>Node41&#45;&gt;Node47</title>
<path fill="none" stroke="#63b8ff" d="M1126.32,-283.49C1259.24,-283.12 1741.87,-278.95 2137,-239 2138.3,-238.87 2139.62,-238.73 2140.96,-238.57"/>
<polygon fill="#63b8ff" stroke="#63b8ff" points="2141.81,-241.99 2151.28,-237.24 2140.92,-235.05 2141.81,-241.99"/>
</g>
<!-- Node50 -->
<g id="node39" class="node">
<title>Node50</title>
<g id="a_node39"><a xlink:href="CachedValue_8h.html" target="_top" xlink:title="Declares &quot;mostly read&#45;only&quot; wrappers around values that are expensive to compute and are thus cached.">
<polygon fill="#fff0f0" stroke="red" points="1281.5,-239 1192.5,-239 1192.5,-220 1281.5,-220 1281.5,-239"/>
<text text-anchor="middle" x="1237" y="-227" font-family="Helvetica,sans-Serif" font-size="10.00">CachedValue.h</text>
</a>
</g>
</g>
<!-- Node41&#45;&gt;Node50 -->
<g id="edge61" class="edge">
<title>Node41&#45;&gt;Node50</title>
<path fill="none" stroke="#63b8ff" d="M1114.46,-274.98C1138.58,-266.23 1176.37,-252.51 1203.6,-242.62"/>
<polygon fill="#63b8ff" stroke="#63b8ff" points="1204.91,-245.87 1213.12,-239.17 1202.52,-239.29 1204.91,-245.87"/>
</g>
<!-- Node51 -->
<g id="node40" class="node">
<title>Node51</title>
<g id="a_node40"><a xlink:title=" ">
<polygon fill="#e0e0e0" stroke="#999999" points="918,-239 854,-239 854,-220 918,-220 918,-239"/>
<text text-anchor="middle" x="886" y="-227" font-family="Helvetica,sans-Serif" font-size="10.00">wx/defs.h</text>
</a>
</g>
</g>
<!-- Node41&#45;&gt;Node51 -->
<g id="edge64" class="edge">
<title>Node41&#45;&gt;Node51</title>
<path fill="none" stroke="#63b8ff" d="M1058.06,-274.98C1022.74,-265.85 966.54,-251.32 928.05,-241.37"/>
<polygon fill="#63b8ff" stroke="#63b8ff" points="928.74,-237.93 918.18,-238.82 926.98,-244.71 928.74,-237.93"/>
</g>
<!-- Node42&#45;&gt;Node20 -->
<g id="edge50" class="edge">
<title>Node42&#45;&gt;Node20</title>
<path fill="none" stroke="#63b8ff" d="M959.16,-219.76C953.75,-211.1 946.1,-197.26 943,-184 941.08,-175.78 940.97,-173.2 943,-165 947.35,-147.44 957.65,-146.56 962,-129 964.03,-120.8 966.86,-116.91 962,-110 942.07,-81.68 902.34,-71.29 873.2,-67.53"/>
<polygon fill="#63b8ff" stroke="#63b8ff" points="873.32,-64.02 863,-66.43 872.57,-70.98 873.32,-64.02"/>
</g>
<!-- Node42&#45;&gt;Node32 -->
<g id="edge51" class="edge">
<title>Node42&#45;&gt;Node32</title>
<path fill="none" stroke="#63b8ff" d="M963.8,-219.67C962.46,-205.89 962.18,-179.37 977,-165 1050.97,-93.28 1110.04,-166.5 1206,-129 1235.53,-117.46 1265.22,-95.57 1283.36,-80.76"/>
<polygon fill="#63b8ff" stroke="#63b8ff" points="1285.86,-83.23 1291.28,-74.13 1281.37,-77.86 1285.86,-83.23"/>
</g>
<!-- Node42&#45;&gt;Node25 -->
<g id="edge52" class="edge">
<title>Node42&#45;&gt;Node25</title>
<path fill="none" stroke="#63b8ff" d="M974.08,-219.75C982.09,-212.03 993.96,-200.6 1003.62,-191.28"/>
<polygon fill="#63b8ff" stroke="#63b8ff" points="1006.31,-193.55 1011.09,-184.09 1001.46,-188.51 1006.31,-193.55"/>
</g>
<!-- Node45&#45;&gt;Node32 -->
<g id="edge54" class="edge">
<title>Node45&#45;&gt;Node32</title>
<path fill="none" stroke="#63b8ff" d="M1059.46,-219.94C1067.17,-206.06 1084.36,-178.78 1107,-165 1172.98,-124.85 1218.38,-179.29 1277,-129 1289.99,-117.86 1295.96,-98.93 1298.7,-84.63"/>
<polygon fill="#63b8ff" stroke="#63b8ff" points="1302.22,-84.81 1300.28,-74.39 1295.3,-83.74 1302.22,-84.81"/>
</g>
<!-- Node45&#45;&gt;Node25 -->
<g id="edge55" class="edge">
<title>Node45&#45;&gt;Node25</title>
<path fill="none" stroke="#63b8ff" d="M1049.22,-219.75C1044.38,-212.42 1037.32,-201.73 1031.36,-192.7"/>
<polygon fill="#63b8ff" stroke="#63b8ff" points="1034.1,-190.5 1025.67,-184.09 1028.26,-194.36 1034.1,-190.5"/>
</g>
<!-- Node47&#45;&gt;Node48 -->
<g id="edge58" class="edge">
<title>Node47&#45;&gt;Node48</title>
<path fill="none" stroke="#63b8ff" d="M2219.72,-219.98C2251.05,-211.01 2300.57,-196.82 2335.24,-186.89"/>
<polygon fill="#63b8ff" stroke="#63b8ff" points="2336.39,-190.2 2345.04,-184.08 2334.47,-183.47 2336.39,-190.2"/>
</g>
<!-- Node49 -->
<g id="node38" class="node">
<title>Node49</title>
<g id="a_node38"><a xlink:title=" ">
<polygon fill="#e0e0e0" stroke="#999999" points="2246.5,-184 2151.5,-184 2151.5,-165 2246.5,-165 2246.5,-184"/>
<text text-anchor="middle" x="2199" y="-172" font-family="Helvetica,sans-Serif" font-size="10.00">wx/translation.h</text>
</a>
</g>
</g>
<!-- Node47&#45;&gt;Node49 -->
<g id="edge59" class="edge">
<title>Node47&#45;&gt;Node49</title>
<path fill="none" stroke="#63b8ff" d="M2191.49,-219.75C2192.67,-212.8 2194.36,-202.85 2195.84,-194.13"/>
<polygon fill="#63b8ff" stroke="#63b8ff" points="2199.32,-194.53 2197.54,-184.09 2192.42,-193.36 2199.32,-194.53"/>
</g>
<!-- Node50&#45;&gt;Node30 -->
<g id="edge62" class="edge">
<title>Node50&#45;&gt;Node30</title>
<path fill="none" stroke="#63b8ff" d="M1249.07,-219.79C1271.19,-203.5 1319.06,-166.63 1353,-129 1366.01,-114.57 1378.38,-96.14 1386.68,-82.86"/>
<polygon fill="#63b8ff" stroke="#63b8ff" points="1389.72,-84.59 1391.94,-74.23 1383.75,-80.94 1389.72,-84.59"/>
</g>
<!-- Node50&#45;&gt;Node25 -->
<g id="edge63" class="edge">
<title>Node50&#45;&gt;Node25</title>
<path fill="none" stroke="#63b8ff" d="M1202.14,-219.98C1164.8,-210.87 1105.45,-196.37 1064.71,-186.42"/>
<polygon fill="#63b8ff" stroke="#63b8ff" points="1065.32,-182.97 1054.78,-183.99 1063.66,-189.77 1065.32,-182.97"/>
</g>
<!-- Node52&#45;&gt;Node3 -->
<g id="edge72" class="edge">
<title>Node52&#45;&gt;Node3</title>
<path fill="none" stroke="#63b8ff" d="M2412.83,-219.67C2420.8,-206.36 2432.75,-181.03 2420,-165 2371.92,-104.56 2133.34,-77.67 2033.28,-68.92"/>
<polygon fill="#63b8ff" stroke="#63b8ff" points="2033.46,-65.43 2023.2,-68.06 2032.86,-72.4 2033.46,-65.43"/>
</g>
<!-- Node52&#45;&gt;Node5 -->
<g id="edge73" class="edge">
<title>Node52&#45;&gt;Node5</title>
<path fill="none" stroke="#63b8ff" d="M2388.68,-219.98C2370.34,-211.46 2341.89,-198.23 2320.77,-188.41"/>
<polygon fill="#63b8ff" stroke="#63b8ff" points="2322.19,-185.21 2311.65,-184.17 2319.24,-191.56 2322.19,-185.21"/>
</g>
<!-- Node52&#45;&gt;Node48 -->
<g id="edge74" class="edge">
<title>Node52&#45;&gt;Node48</title>
<path fill="none" stroke="#63b8ff" d="M2401.72,-219.75C2397.29,-212.42 2390.84,-201.73 2385.38,-192.7"/>
<polygon fill="#63b8ff" stroke="#63b8ff" points="2388.35,-190.84 2380.19,-184.09 2382.36,-194.46 2388.35,-190.84"/>
</g>
<!-- Node53 -->
<g id="node42" class="node">
<title>Node53</title>
<g id="a_node42"><a xlink:title=" ">
<polygon fill="#e0e0e0" stroke="#999999" points="2552.5,-184 2467.5,-184 2467.5,-165 2552.5,-165 2552.5,-184"/>
<text text-anchor="middle" x="2510" y="-172" font-family="Helvetica,sans-Serif" font-size="10.00">wx/stdpaths.h</text>
</a>
</g>
</g>
<!-- Node52&#45;&gt;Node53 -->
<g id="edge75" class="edge">
<title>Node52&#45;&gt;Node53</title>
<path fill="none" stroke="#63b8ff" d="M2423.55,-219.98C2439.89,-211.57 2465.13,-198.59 2484.13,-188.81"/>
<polygon fill="#63b8ff" stroke="#63b8ff" points="2485.86,-191.86 2493.15,-184.17 2482.66,-185.63 2485.86,-191.86"/>
</g>
<!-- Node54 -->
<g id="node43" class="node">
<title>Node54</title>
<g id="a_node43"><a xlink:title=" ">
<polygon fill="#e0e0e0" stroke="#999999" points="2635,-184 2571,-184 2571,-165 2635,-165 2635,-184"/>
<text text-anchor="middle" x="2603" y="-172" font-family="Helvetica,sans-Serif" font-size="10.00">wx/utils.h</text>
</a>
</g>
</g>
<!-- Node52&#45;&gt;Node54 -->
<g id="edge76" class="edge">
<title>Node52&#45;&gt;Node54</title>
<path fill="none" stroke="#63b8ff" d="M2438.49,-219.98C2471.82,-210.97 2524.6,-196.7 2561.35,-186.76"/>
<polygon fill="#63b8ff" stroke="#63b8ff" points="2562.52,-190.07 2571.26,-184.08 2560.7,-183.31 2562.52,-190.07"/>
</g>
</g>
</svg>
