<?xml version="1.0" encoding="UTF-8" standalone="no"?>
<!DOCTYPE svg PUBLIC "-//W3C//DTD SVG 1.1//EN"
 "http://www.w3.org/Graphics/SVG/1.1/DTD/svg11.dtd">
<!-- Generated by graphviz version 2.43.0 (0)
 -->
<!-- Title: src/wizards/CsvWiz.h Pages: 1 -->
<!--zoomable 357 -->
<svg id="main" version="1.1" xmlns="http://www.w3.org/2000/svg" xmlns:xlink="http://www.w3.org/1999/xlink" xml:space="preserve" onload="init(evt)">
<style type="text/css"><![CDATA[
.edge:hover path { stroke: red; }
.edge:hover polygon { stroke: red; fill: red; }
]]></style>
<script type="text/javascript"><![CDATA[
var edges = document.getElementsByTagName('g');
if (edges && edges.length) {
  for (var i=0;i<edges.length;i++) {
    if (edges[i].id.substr(0,4)=='edge') {
      edges[i].setAttribute('class','edge');
    }
  }
}
]]></script>
        <defs>
                <circle id="rim" cx="0" cy="0" r="7"/>
                <circle id="rim2" cx="0" cy="0" r="3.5"/>
                <g id="zoomPlus">
                        <use xlink:href="#rim" fill="#404040">
                                <set attributeName="fill" to="#808080" begin="zoomplus.mouseover" end="zoomplus.mouseout"/>
                        </use>
                        <path d="M-4,0h8M0,-4v8" fill="none" stroke="white" stroke-width="1.5" pointer-events="none"/>
                </g>
                <g id="zoomMin">
                        <use xlink:href="#rim" fill="#404040">
                                <set attributeName="fill" to="#808080" begin="zoomminus.mouseover" end="zoomminus.mouseout"/>
                        </use>
                        <path d="M-4,0h8" fill="none" stroke="white" stroke-width="1.5" pointer-events="none"/>
                </g>
                <g id="dirArrow">
                        <path fill="none" stroke="white" stroke-width="1.5" d="M0,-3.0v7 M-2.5,-0.5L0,-3.0L2.5,-0.5"/>
                </g>
               <g id="resetDef">
                       <use xlink:href="#rim2" fill="#404040">
                               <set attributeName="fill" to="#808080" begin="reset.mouseover" end="reset.mouseout"/>
                       </use>
               </g>
        </defs>

<script type="text/javascript">
var viewWidth = 1959;
var viewHeight = 357;
var sectionId = 'dynsection-0';
</script>
<script xlink:href="svgpan.js"/>
<svg id="graph" class="graph">
<g id="viewport">
<title>src/wizards/CsvWiz.h</title>
<!-- Node1 -->
<g id="node1" class="node">
<title>Node1</title>
<g id="a_node1"><a xlink:title="This file declares all the wizards the draw sidepane needs.">
<polygon fill="#999999" stroke="#666666" points="415.5,-349 296.5,-349 296.5,-330 415.5,-330 415.5,-349"/>
<text text-anchor="middle" x="356" y="-337" font-family="Helvetica,sans-Serif" font-size="10.00">src/wizards/CsvWiz.h</text>
</a>
</g>
</g>
<!-- Node2 -->
<g id="node2" class="node">
<title>Node2</title>
<g id="a_node2"><a xlink:href="precomp_8h_source.html" target="_top" xlink:title=" ">
<polygon fill="white" stroke="#666666" points="206,-74 138,-74 138,-55 206,-55 206,-74"/>
<text text-anchor="middle" x="172" y="-62" font-family="Helvetica,sans-Serif" font-size="10.00">precomp.h</text>
</a>
</g>
</g>
<!-- Node1&#45;&gt;Node2 -->
<g id="edge1" class="edge">
<title>Node1&#45;&gt;Node2</title>
<path fill="none" stroke="#63b8ff" d="M296.41,-335.74C217.68,-331.12 84.14,-319.7 43,-294 14.09,-275.94 0,-264.58 0,-230.5 0,-230.5 0,-230.5 0,-173.5 0,-113.17 76.83,-85.24 127.79,-73.35"/>
<polygon fill="#63b8ff" stroke="#63b8ff" points="128.6,-76.76 137.61,-71.18 127.09,-69.92 128.6,-76.76"/>
</g>
<!-- Node4 -->
<g id="node4" class="node">
<title>Node4</title>
<g id="a_node4"><a xlink:title=" ">
<polygon fill="#e0e0e0" stroke="#999999" points="85.5,-184 28.5,-184 28.5,-165 85.5,-165 85.5,-184"/>
<text text-anchor="middle" x="57" y="-172" font-family="Helvetica,sans-Serif" font-size="10.00">wx/wx.h</text>
</a>
</g>
</g>
<!-- Node1&#45;&gt;Node4 -->
<g id="edge3" class="edge">
<title>Node1&#45;&gt;Node4</title>
<path fill="none" stroke="#63b8ff" d="M296.49,-338.45C218.28,-336.96 87.29,-329.13 57,-294 33.02,-266.19 42.48,-219.55 50.41,-193.86"/>
<polygon fill="#63b8ff" stroke="#63b8ff" points="53.77,-194.84 53.61,-184.25 47.13,-192.63 53.77,-194.84"/>
</g>
<!-- Node5 -->
<g id="node5" class="node">
<title>Node5</title>
<g id="a_node5"><a xlink:title=" ">
<polygon fill="#e0e0e0" stroke="#999999" points="140,-294 66,-294 66,-275 140,-275 140,-294"/>
<text text-anchor="middle" x="103" y="-282" font-family="Helvetica,sans-Serif" font-size="10.00">wx/button.h</text>
</a>
</g>
</g>
<!-- Node1&#45;&gt;Node5 -->
<g id="edge4" class="edge">
<title>Node1&#45;&gt;Node5</title>
<path fill="none" stroke="#63b8ff" d="M315.35,-329.98C270.32,-320.55 197.82,-305.36 150.29,-295.41"/>
<polygon fill="#63b8ff" stroke="#63b8ff" points="150.76,-291.93 140.25,-293.3 149.32,-298.78 150.76,-291.93"/>
</g>
<!-- Node6 -->
<g id="node6" class="node">
<title>Node6</title>
<g id="a_node6"><a xlink:title=" ">
<polygon fill="#e0e0e0" stroke="#999999" points="241.5,-294 158.5,-294 158.5,-275 241.5,-275 241.5,-294"/>
<text text-anchor="middle" x="200" y="-282" font-family="Helvetica,sans-Serif" font-size="10.00">wx/radiobut.h</text>
</a>
</g>
</g>
<!-- Node1&#45;&gt;Node6 -->
<g id="edge5" class="edge">
<title>Node1&#45;&gt;Node6</title>
<path fill="none" stroke="#63b8ff" d="M330.94,-329.98C304.97,-321.16 264.19,-307.31 235.04,-297.41"/>
<polygon fill="#63b8ff" stroke="#63b8ff" points="235.85,-293.99 225.26,-294.08 233.6,-300.61 235.85,-293.99"/>
</g>
<!-- Node7 -->
<g id="node7" class="node">
<title>Node7</title>
<g id="a_node7"><a xlink:title=" ">
<polygon fill="#e0e0e0" stroke="#999999" points="336,-294 260,-294 260,-275 336,-275 336,-294"/>
<text text-anchor="middle" x="298" y="-282" font-family="Helvetica,sans-Serif" font-size="10.00">wx/persist.h</text>
</a>
</g>
</g>
<!-- Node1&#45;&gt;Node7 -->
<g id="edge6" class="edge">
<title>Node1&#45;&gt;Node7</title>
<path fill="none" stroke="#63b8ff" d="M346.68,-329.98C338.19,-322.23 325.44,-310.58 315.12,-301.14"/>
<polygon fill="#63b8ff" stroke="#63b8ff" points="317.23,-298.33 307.49,-294.17 312.51,-303.5 317.23,-298.33"/>
</g>
<!-- Node8 -->
<g id="node8" class="node">
<title>Node8</title>
<g id="a_node8"><a xlink:title=" ">
<polygon fill="#e0e0e0" stroke="#999999" points="473.5,-294 354.5,-294 354.5,-275 473.5,-275 473.5,-294"/>
<text text-anchor="middle" x="414" y="-282" font-family="Helvetica,sans-Serif" font-size="10.00">wx/persist/toplevel.h</text>
</a>
</g>
</g>
<!-- Node1&#45;&gt;Node8 -->
<g id="edge7" class="edge">
<title>Node1&#45;&gt;Node8</title>
<path fill="none" stroke="#63b8ff" d="M365.32,-329.98C373.81,-322.23 386.56,-310.58 396.88,-301.14"/>
<polygon fill="#63b8ff" stroke="#63b8ff" points="399.49,-303.5 404.51,-294.17 394.77,-298.33 399.49,-303.5"/>
</g>
<!-- Node9 -->
<g id="node9" class="node">
<title>Node9</title>
<g id="a_node9"><a xlink:href="BTextCtrl_8h_source.html" target="_top" xlink:title=" ">
<polygon fill="white" stroke="#666666" points="562,-294 492,-294 492,-275 562,-275 562,-294"/>
<text text-anchor="middle" x="527" y="-282" font-family="Helvetica,sans-Serif" font-size="10.00">BTextCtrl.h</text>
</a>
</g>
</g>
<!-- Node1&#45;&gt;Node9 -->
<g id="edge8" class="edge">
<title>Node1&#45;&gt;Node9</title>
<path fill="none" stroke="#63b8ff" d="M383.47,-329.98C412.18,-321.09 457.42,-307.07 489.42,-297.15"/>
<polygon fill="#63b8ff" stroke="#63b8ff" points="490.8,-300.39 499.31,-294.08 488.72,-293.7 490.8,-300.39"/>
</g>
<!-- Node10 -->
<g id="node10" class="node">
<title>Node10</title>
<g id="a_node10"><a xlink:href="Configuration_8h_source.html" target="_top" xlink:title=" ">
<polygon fill="white" stroke="#666666" points="730.5,-239 639.5,-239 639.5,-220 730.5,-220 730.5,-239"/>
<text text-anchor="middle" x="685" y="-227" font-family="Helvetica,sans-Serif" font-size="10.00">Configuration.h</text>
</a>
</g>
</g>
<!-- Node1&#45;&gt;Node10 -->
<g id="edge68" class="edge">
<title>Node1&#45;&gt;Node10</title>
<path fill="none" stroke="#63b8ff" d="M415.75,-331.11C459.67,-324.5 520.27,-312.87 571,-294 589.31,-287.19 634.71,-260.72 662.37,-244.19"/>
<polygon fill="#63b8ff" stroke="#63b8ff" points="664.24,-247.15 671.01,-239 660.63,-241.15 664.24,-247.15"/>
</g>
<!-- Node46 -->
<g id="node46" class="node">
<title>Node46</title>
<g id="a_node46"><a xlink:title=" ">
<polygon fill="#e0e0e0" stroke="#999999" points="691.5,-294 618.5,-294 618.5,-275 691.5,-275 691.5,-294"/>
<text text-anchor="middle" x="655" y="-282" font-family="Helvetica,sans-Serif" font-size="10.00">wx/filedlg.h</text>
</a>
</g>
</g>
<!-- Node1&#45;&gt;Node46 -->
<g id="edge66" class="edge">
<title>Node1&#45;&gt;Node46</title>
<path fill="none" stroke="#63b8ff" d="M404.04,-329.98C460.3,-320.01 552.85,-303.61 608.45,-293.75"/>
<polygon fill="#63b8ff" stroke="#63b8ff" points="609.15,-297.18 618.39,-291.99 607.93,-290.29 609.15,-297.18"/>
</g>
<!-- Node47 -->
<g id="node47" class="node">
<title>Node47</title>
<g id="a_node47"><a xlink:title=" ">
<polygon fill="#e0e0e0" stroke="#999999" points="784,-294 710,-294 710,-275 784,-275 784,-294"/>
<text text-anchor="middle" x="747" y="-282" font-family="Helvetica,sans-Serif" font-size="10.00">wx/choice.h</text>
</a>
</g>
</g>
<!-- Node1&#45;&gt;Node47 -->
<g id="edge67" class="edge">
<title>Node1&#45;&gt;Node47</title>
<path fill="none" stroke="#63b8ff" d="M415.66,-331.8C482.47,-324.08 594.19,-310.5 699.98,-294.09"/>
<polygon fill="#63b8ff" stroke="#63b8ff" points="700.53,-297.54 709.87,-292.54 699.45,-290.63 700.53,-297.54"/>
</g>
<!-- Node3 -->
<g id="node3" class="node">
<title>Node3</title>
<g id="a_node3"><a xlink:href="Version_8h_source.html" target="_top" xlink:title=" ">
<polygon fill="white" stroke="#666666" points="203,-19 141,-19 141,0 203,0 203,-19"/>
<text text-anchor="middle" x="172" y="-7" font-family="Helvetica,sans-Serif" font-size="10.00">Version.h</text>
</a>
</g>
</g>
<!-- Node2&#45;&gt;Node3 -->
<g id="edge2" class="edge">
<title>Node2&#45;&gt;Node3</title>
<path fill="none" stroke="#63b8ff" d="M172,-54.75C172,-47.8 172,-37.85 172,-29.13"/>
<polygon fill="#63b8ff" stroke="#63b8ff" points="175.5,-29.09 172,-19.09 168.5,-29.09 175.5,-29.09"/>
</g>
<!-- Node9&#45;&gt;Node2 -->
<g id="edge9" class="edge">
<title>Node9&#45;&gt;Node2</title>
<path fill="none" stroke="#63b8ff" d="M491.81,-276.52C403.25,-258.64 176.65,-210.66 155,-184 131.51,-155.07 149.26,-108.54 162.01,-83.25"/>
<polygon fill="#63b8ff" stroke="#63b8ff" points="165.27,-84.58 166.87,-74.11 159.09,-81.29 165.27,-84.58"/>
</g>
<!-- Node9&#45;&gt;Node4 -->
<g id="edge10" class="edge">
<title>Node9&#45;&gt;Node4</title>
<path fill="none" stroke="#63b8ff" d="M491.99,-276.42C488.95,-275.9 485.93,-275.42 483,-275 398.38,-262.88 173.56,-282.56 100,-239 82.69,-228.75 70.83,-208.47 64.02,-193.58"/>
<polygon fill="#63b8ff" stroke="#63b8ff" points="67.22,-192.17 60.11,-184.32 60.78,-194.89 67.22,-192.17"/>
</g>
<!-- Node9&#45;&gt;Node10 -->
<g id="edge11" class="edge">
<title>Node9&#45;&gt;Node10</title>
<path fill="none" stroke="#63b8ff" d="M552.39,-274.98C578.8,-266.13 620.35,-252.19 649.89,-242.28"/>
<polygon fill="#63b8ff" stroke="#63b8ff" points="651.05,-245.58 659.42,-239.08 648.82,-238.94 651.05,-245.58"/>
</g>
<!-- Node10&#45;&gt;Node2 -->
<g id="edge12" class="edge">
<title>Node10&#45;&gt;Node2</title>
<path fill="none" stroke="#63b8ff" d="M639.07,-227.99C518.74,-226.2 201.39,-218.22 170,-184 145.05,-156.8 156.05,-109.54 164.86,-83.68"/>
<polygon fill="#63b8ff" stroke="#63b8ff" points="168.25,-84.63 168.4,-74.03 161.67,-82.22 168.25,-84.63"/>
</g>
<!-- Node10&#45;&gt;Node4 -->
<g id="edge13" class="edge">
<title>Node10&#45;&gt;Node4</title>
<path fill="none" stroke="#63b8ff" d="M639.22,-225.14C545.24,-218.16 323.71,-201.3 138,-184 124.34,-182.73 109.39,-181.2 96.1,-179.79"/>
<polygon fill="#63b8ff" stroke="#63b8ff" points="96.17,-176.28 85.85,-178.69 95.42,-183.24 96.17,-176.28"/>
</g>
<!-- Node11 -->
<g id="node11" class="node">
<title>Node11</title>
<g id="a_node11"><a xlink:title=" ">
<polygon fill="#e0e0e0" stroke="#999999" points="740,-129 668,-129 668,-110 740,-110 740,-129"/>
<text text-anchor="middle" x="704" y="-117" font-family="Helvetica,sans-Serif" font-size="10.00">wx/config.h</text>
</a>
</g>
</g>
<!-- Node10&#45;&gt;Node11 -->
<g id="edge14" class="edge">
<title>Node10&#45;&gt;Node11</title>
<path fill="none" stroke="#63b8ff" d="M639.41,-228.19C567.52,-226.61 432.87,-218.95 403,-184 397.51,-177.58 397.48,-171.39 403,-165 435.35,-127.52 581.68,-121.07 657.75,-120.3"/>
<polygon fill="#63b8ff" stroke="#63b8ff" points="658.02,-123.8 668,-120.23 657.97,-116.8 658.02,-123.8"/>
</g>
<!-- Node12 -->
<g id="node12" class="node">
<title>Node12</title>
<g id="a_node12"><a xlink:title=" ">
<polygon fill="#e0e0e0" stroke="#999999" points="945.5,-184 868.5,-184 868.5,-165 945.5,-165 945.5,-184"/>
<text text-anchor="middle" x="907" y="-172" font-family="Helvetica,sans-Serif" font-size="10.00">wx/display.h</text>
</a>
</g>
</g>
<!-- Node10&#45;&gt;Node12 -->
<g id="edge15" class="edge">
<title>Node10&#45;&gt;Node12</title>
<path fill="none" stroke="#63b8ff" d="M720.67,-219.98C758.83,-210.87 819.47,-196.4 861.15,-186.45"/>
<polygon fill="#63b8ff" stroke="#63b8ff" points="862.14,-189.81 871.05,-184.08 860.51,-183 862.14,-189.81"/>
</g>
<!-- Node13 -->
<g id="node13" class="node">
<title>Node13</title>
<g id="a_node13"><a xlink:title=" ">
<polygon fill="#e0e0e0" stroke="#999999" points="1336,-184 1246,-184 1246,-165 1336,-165 1336,-184"/>
<text text-anchor="middle" x="1291" y="-172" font-family="Helvetica,sans-Serif" font-size="10.00">wx/fontenum.h</text>
</a>
</g>
</g>
<!-- Node10&#45;&gt;Node13 -->
<g id="edge16" class="edge">
<title>Node10&#45;&gt;Node13</title>
<path fill="none" stroke="#63b8ff" d="M730.55,-226C823.52,-220.64 1042,-206.75 1235.86,-184.04"/>
<polygon fill="#63b8ff" stroke="#63b8ff" points="1236.43,-187.5 1245.95,-182.85 1235.61,-180.55 1236.43,-187.5"/>
</g>
<!-- Node14 -->
<g id="node14" class="node">
<title>Node14</title>
<g id="a_node14"><a xlink:title=" ">
<polygon fill="#e0e0e0" stroke="#999999" points="884,-129 796,-129 796,-110 884,-110 884,-129"/>
<text text-anchor="middle" x="840" y="-117" font-family="Helvetica,sans-Serif" font-size="10.00">wx/hashmap.h</text>
</a>
</g>
</g>
<!-- Node10&#45;&gt;Node14 -->
<g id="edge17" class="edge">
<title>Node10&#45;&gt;Node14</title>
<path fill="none" stroke="#63b8ff" d="M730.76,-222.93C758.57,-217.35 793.03,-206.2 816,-184 828.3,-172.11 834.37,-153.28 837.32,-139.21"/>
<polygon fill="#63b8ff" stroke="#63b8ff" points="840.8,-139.62 839.07,-129.17 833.9,-138.42 840.8,-139.62"/>
</g>
<!-- Node15 -->
<g id="node15" class="node">
<title>Node15</title>
<g id="a_node15"><a xlink:href="LoggingMessageDialog_8h.html" target="_top" xlink:title="This file declares a message dialog that sends its contents to the log message sink.">
<polygon fill="white" stroke="#666666" points="356.5,-184 179.5,-184 179.5,-165 356.5,-165 356.5,-184"/>
<text text-anchor="middle" x="268" y="-172" font-family="Helvetica,sans-Serif" font-size="10.00">dialogs/LoggingMessageDialog.h</text>
</a>
</g>
</g>
<!-- Node10&#45;&gt;Node15 -->
<g id="edge18" class="edge">
<title>Node10&#45;&gt;Node15</title>
<path fill="none" stroke="#63b8ff" d="M639.18,-222.68C568.36,-213.67 431.48,-196.28 345.19,-185.31"/>
<polygon fill="#63b8ff" stroke="#63b8ff" points="345.55,-181.83 335.19,-184.04 344.67,-188.77 345.55,-181.83"/>
</g>
<!-- Node18 -->
<g id="node18" class="node">
<title>Node18</title>
<g id="a_node18"><a xlink:href="TextStyle_8h.html" target="_top" xlink:title="This file declares everything needed for the text style system used to style all the elements on the ...">
<polygon fill="white" stroke="#666666" points="1228,-184 1132,-184 1132,-165 1228,-165 1228,-184"/>
<text text-anchor="middle" x="1180" y="-172" font-family="Helvetica,sans-Serif" font-size="10.00">cells/TextStyle.h</text>
</a>
</g>
</g>
<!-- Node10&#45;&gt;Node18 -->
<g id="edge22" class="edge">
<title>Node10&#45;&gt;Node18</title>
<path fill="none" stroke="#63b8ff" d="M730.68,-223.61C820.95,-213.94 1022.04,-192.41 1121.7,-181.74"/>
<polygon fill="#63b8ff" stroke="#63b8ff" points="1122.32,-185.2 1131.89,-180.65 1121.57,-178.24 1122.32,-185.2"/>
</g>
<!-- Node25 -->
<g id="node25" class="node">
<title>Node25</title>
<g id="a_node25"><a xlink:title=" ">
<polygon fill="#e0e0e0" stroke="#999999" points="1951,-74 1901,-74 1901,-55 1951,-55 1951,-74"/>
<text text-anchor="middle" x="1926" y="-62" font-family="Helvetica,sans-Serif" font-size="10.00">cstdint</text>
</a>
</g>
</g>
<!-- Node10&#45;&gt;Node25 -->
<g id="edge56" class="edge">
<title>Node10&#45;&gt;Node25</title>
<path fill="none" stroke="#63b8ff" d="M730.7,-227.88C852.45,-225.82 1194.57,-217.27 1477,-184 1613.8,-167.88 1650.28,-169.29 1782,-129 1825.24,-115.77 1872.75,-93.11 1900.94,-78.74"/>
<polygon fill="#63b8ff" stroke="#63b8ff" points="1902.79,-81.73 1910.07,-74.03 1899.58,-75.51 1902.79,-81.73"/>
</g>
<!-- Node34 -->
<g id="node34" class="node">
<title>Node34</title>
<g id="a_node34"><a xlink:title=" ">
<polygon fill="#e0e0e0" stroke="#999999" points="1470,-74 1406,-74 1406,-55 1470,-55 1470,-74"/>
<text text-anchor="middle" x="1438" y="-62" font-family="Helvetica,sans-Serif" font-size="10.00">algorithm</text>
</a>
</g>
</g>
<!-- Node10&#45;&gt;Node34 -->
<g id="edge63" class="edge">
<title>Node10&#45;&gt;Node34</title>
<path fill="none" stroke="#63b8ff" d="M730.52,-228.16C870.73,-226.72 1294.55,-219.49 1427,-184 1479.8,-169.85 1508.26,-175.5 1537,-129 1541.44,-121.82 1541.59,-117.09 1537,-110 1529.73,-98.76 1500.01,-86.28 1475.02,-77.41"/>
<polygon fill="#63b8ff" stroke="#63b8ff" points="1475.97,-74.03 1465.38,-74.07 1473.69,-80.65 1475.97,-74.03"/>
</g>
<!-- Node37 -->
<g id="node37" class="node">
<title>Node37</title>
<g id="a_node37"><a xlink:title=" ">
<polygon fill="#e0e0e0" stroke="#999999" points="1036,-74 978,-74 978,-55 1036,-55 1036,-74"/>
<text text-anchor="middle" x="1007" y="-62" font-family="Helvetica,sans-Serif" font-size="10.00">memory</text>
</a>
</g>
</g>
<!-- Node10&#45;&gt;Node37 -->
<g id="edge57" class="edge">
<title>Node10&#45;&gt;Node37</title>
<path fill="none" stroke="#63b8ff" d="M722.26,-219.91C757.69,-209.94 802.84,-191.42 783,-165 746.8,-116.79 619.16,-155.25 659,-110 679.16,-87.1 880.99,-72.78 967.73,-67.64"/>
<polygon fill="#63b8ff" stroke="#63b8ff" points="968.18,-71.12 977.96,-67.05 967.77,-64.14 968.18,-71.12"/>
</g>
<!-- Node38 -->
<g id="node38" class="node">
<title>Node38</title>
<g id="a_node38"><a xlink:title=" ">
<polygon fill="#e0e0e0" stroke="#999999" points="1086,-74 1054,-74 1054,-55 1086,-55 1086,-74"/>
<text text-anchor="middle" x="1070" y="-62" font-family="Helvetica,sans-Serif" font-size="10.00">list</text>
</a>
</g>
</g>
<!-- Node10&#45;&gt;Node38 -->
<g id="edge61" class="edge">
<title>Node10&#45;&gt;Node38</title>
<path fill="none" stroke="#63b8ff" d="M730.63,-227.82C799.95,-225.71 926.76,-217.28 955,-184 1007.79,-121.79 733.44,-171.55 787,-110 823.22,-68.38 973.61,-85.55 1044.18,-73.45"/>
<polygon fill="#63b8ff" stroke="#63b8ff" points="1044.9,-76.87 1053.99,-71.44 1043.49,-70.02 1044.9,-76.87"/>
</g>
<!-- Node40 -->
<g id="node40" class="node">
<title>Node40</title>
<g id="a_node40"><a xlink:title=" ">
<polygon fill="#e0e0e0" stroke="#999999" points="1307.5,-74 1214.5,-74 1214.5,-55 1307.5,-55 1307.5,-74"/>
<text text-anchor="middle" x="1261" y="-62" font-family="Helvetica,sans-Serif" font-size="10.00">unordered_map</text>
</a>
</g>
</g>
<!-- Node10&#45;&gt;Node40 -->
<g id="edge59" class="edge">
<title>Node10&#45;&gt;Node40</title>
<path fill="none" stroke="#63b8ff" d="M730.67,-229.1C838.57,-229.71 1117.26,-226.64 1345,-184 1425.55,-168.92 1472.46,-195.03 1521,-129 1526,-122.2 1526.44,-116.46 1521,-110 1517.72,-106.11 1393.46,-86.14 1317.94,-74.31"/>
<polygon fill="#63b8ff" stroke="#63b8ff" points="1318.04,-70.79 1307.62,-72.7 1316.96,-77.7 1318.04,-70.79"/>
</g>
<!-- Node41 -->
<g id="node41" class="node">
<title>Node41</title>
<g id="a_node41"><a xlink:title=" ">
<polygon fill="#e0e0e0" stroke="#999999" points="460,-184 412,-184 412,-165 460,-165 460,-184"/>
<text text-anchor="middle" x="436" y="-172" font-family="Helvetica,sans-Serif" font-size="10.00">mutex</text>
</a>
</g>
</g>
<!-- Node10&#45;&gt;Node41 -->
<g id="edge58" class="edge">
<title>Node10&#45;&gt;Node41</title>
<path fill="none" stroke="#63b8ff" d="M640.18,-219.93C598.54,-211.82 534.56,-198.98 470.05,-184.16"/>
<polygon fill="#63b8ff" stroke="#63b8ff" points="470.65,-180.7 460.12,-181.86 469.07,-187.52 470.65,-180.7"/>
</g>
<!-- Node42 -->
<g id="node42" class="node">
<title>Node42</title>
<g id="a_node42"><a xlink:title=" ">
<polygon fill="#e0e0e0" stroke="#999999" points="532,-184 478,-184 478,-165 532,-165 532,-184"/>
<text text-anchor="middle" x="505" y="-172" font-family="Helvetica,sans-Serif" font-size="10.00">random</text>
</a>
</g>
</g>
<!-- Node10&#45;&gt;Node42 -->
<g id="edge60" class="edge">
<title>Node10&#45;&gt;Node42</title>
<path fill="none" stroke="#63b8ff" d="M656.08,-219.98C625.1,-210.86 575.83,-196.36 542.04,-186.41"/>
<polygon fill="#63b8ff" stroke="#63b8ff" points="542.66,-182.94 532.08,-183.47 540.69,-189.66 542.66,-182.94"/>
</g>
<!-- Node43 -->
<g id="node43" class="node">
<title>Node43</title>
<g id="a_node43"><a xlink:title=" ">
<polygon fill="#e0e0e0" stroke="#999999" points="597.5,-184 550.5,-184 550.5,-165 597.5,-165 597.5,-184"/>
<text text-anchor="middle" x="574" y="-172" font-family="Helvetica,sans-Serif" font-size="10.00">vector</text>
</a>
</g>
</g>
<!-- Node10&#45;&gt;Node43 -->
<g id="edge62" class="edge">
<title>Node10&#45;&gt;Node43</title>
<path fill="none" stroke="#63b8ff" d="M667.17,-219.98C649.39,-211.5 621.85,-198.35 601.32,-188.54"/>
<polygon fill="#63b8ff" stroke="#63b8ff" points="602.69,-185.32 592.16,-184.17 599.67,-191.64 602.69,-185.32"/>
</g>
<!-- Node44 -->
<g id="node44" class="node">
<title>Node44</title>
<g id="a_node44"><a xlink:title=" ">
<polygon fill="#e0e0e0" stroke="#999999" points="666,-184 616,-184 616,-165 666,-165 666,-184"/>
<text text-anchor="middle" x="641" y="-172" font-family="Helvetica,sans-Serif" font-size="10.00">atomic</text>
</a>
</g>
</g>
<!-- Node10&#45;&gt;Node44 -->
<g id="edge64" class="edge">
<title>Node10&#45;&gt;Node44</title>
<path fill="none" stroke="#63b8ff" d="M677.73,-219.75C671.46,-212.18 662.21,-201.05 654.57,-191.84"/>
<polygon fill="#63b8ff" stroke="#63b8ff" points="657.21,-189.55 648.13,-184.09 651.83,-194.02 657.21,-189.55"/>
</g>
<!-- Node45 -->
<g id="node45" class="node">
<title>Node45</title>
<g id="a_node45"><a xlink:title=" ">
<polygon fill="#e0e0e0" stroke="#999999" points="773.5,-184 684.5,-184 684.5,-165 773.5,-165 773.5,-184"/>
<text text-anchor="middle" x="729" y="-172" font-family="Helvetica,sans-Serif" font-size="10.00">wx/wupdlock.h</text>
</a>
</g>
</g>
<!-- Node10&#45;&gt;Node45 -->
<g id="edge65" class="edge">
<title>Node10&#45;&gt;Node45</title>
<path fill="none" stroke="#63b8ff" d="M692.27,-219.75C698.54,-212.18 707.79,-201.05 715.43,-191.84"/>
<polygon fill="#63b8ff" stroke="#63b8ff" points="718.17,-194.02 721.87,-184.09 712.79,-189.55 718.17,-194.02"/>
</g>
<!-- Node15&#45;&gt;Node2 -->
<g id="edge19" class="edge">
<title>Node15&#45;&gt;Node2</title>
<path fill="none" stroke="#63b8ff" d="M259.24,-164.81C250.41,-155.97 236.49,-141.79 225,-129 211.12,-113.55 196.01,-95.29 185.49,-82.33"/>
<polygon fill="#63b8ff" stroke="#63b8ff" points="188.01,-79.88 179.01,-74.3 182.56,-84.28 188.01,-79.88"/>
</g>
<!-- Node16 -->
<g id="node16" class="node">
<title>Node16</title>
<g id="a_node16"><a xlink:title=" ">
<polygon fill="#e0e0e0" stroke="#999999" points="389.5,-129 310.5,-129 310.5,-110 389.5,-110 389.5,-129"/>
<text text-anchor="middle" x="350" y="-117" font-family="Helvetica,sans-Serif" font-size="10.00">wx/msgdlg.h</text>
</a>
</g>
</g>
<!-- Node15&#45;&gt;Node16 -->
<g id="edge20" class="edge">
<title>Node15&#45;&gt;Node16</title>
<path fill="none" stroke="#63b8ff" d="M281.17,-164.98C293.77,-156.84 313,-144.41 327.94,-134.76"/>
<polygon fill="#63b8ff" stroke="#63b8ff" points="330.09,-137.54 336.59,-129.17 326.29,-131.66 330.09,-137.54"/>
</g>
<!-- Node17 -->
<g id="node17" class="node">
<title>Node17</title>
<g id="a_node17"><a xlink:title=" ">
<polygon fill="#e0e0e0" stroke="#999999" points="292,-129 234,-129 234,-110 292,-110 292,-129"/>
<text text-anchor="middle" x="263" y="-117" font-family="Helvetica,sans-Serif" font-size="10.00">wx/log.h</text>
</a>
</g>
</g>
<!-- Node15&#45;&gt;Node17 -->
<g id="edge21" class="edge">
<title>Node15&#45;&gt;Node17</title>
<path fill="none" stroke="#63b8ff" d="M267.17,-164.75C266.52,-157.8 265.58,-147.85 264.76,-139.13"/>
<polygon fill="#63b8ff" stroke="#63b8ff" points="268.23,-138.72 263.81,-129.09 261.27,-139.37 268.23,-138.72"/>
</g>
<!-- Node18&#45;&gt;Node2 -->
<g id="edge23" class="edge">
<title>Node18&#45;&gt;Node2</title>
<path fill="none" stroke="#63b8ff" d="M1131.97,-168.14C1082.18,-161.8 1002.47,-149.43 936,-129 916.03,-122.86 913.3,-114.94 893,-110 763.55,-78.48 352.35,-68.63 216.23,-66.19"/>
<polygon fill="#63b8ff" stroke="#63b8ff" points="216.22,-62.69 206.16,-66.01 216.1,-69.69 216.22,-62.69"/>
</g>
<!-- Node18&#45;&gt;Node11 -->
<g id="edge29" class="edge">
<title>Node18&#45;&gt;Node11</title>
<path fill="none" stroke="#63b8ff" d="M1131.74,-168.13C1039.78,-157.89 840.56,-135.7 750.21,-125.65"/>
<polygon fill="#63b8ff" stroke="#63b8ff" points="750.33,-122.14 740.01,-124.51 749.56,-129.09 750.33,-122.14"/>
</g>
<!-- Node18&#45;&gt;Node14 -->
<g id="edge26" class="edge">
<title>Node18&#45;&gt;Node14</title>
<path fill="none" stroke="#63b8ff" d="M1131.65,-165.96C1068.91,-156.18 959.76,-139.17 894.26,-128.96"/>
<polygon fill="#63b8ff" stroke="#63b8ff" points="894.55,-125.46 884.13,-127.38 893.48,-132.38 894.55,-125.46"/>
</g>
<!-- Node19 -->
<g id="node19" class="node">
<title>Node19</title>
<g id="a_node19"><a xlink:title=" ">
<polygon fill="#e0e0e0" stroke="#999999" points="1180,-129 1108,-129 1108,-110 1180,-110 1180,-129"/>
<text text-anchor="middle" x="1144" y="-117" font-family="Helvetica,sans-Serif" font-size="10.00">wx/colour.h</text>
</a>
</g>
</g>
<!-- Node18&#45;&gt;Node19 -->
<g id="edge24" class="edge">
<title>Node18&#45;&gt;Node19</title>
<path fill="none" stroke="#63b8ff" d="M1174.06,-164.75C1169.02,-157.34 1161.66,-146.5 1155.49,-137.41"/>
<polygon fill="#63b8ff" stroke="#63b8ff" points="1158.35,-135.39 1149.83,-129.09 1152.56,-139.33 1158.35,-135.39"/>
</g>
<!-- Node20 -->
<g id="node20" class="node">
<title>Node20</title>
<g id="a_node20"><a xlink:title=" ">
<polygon fill="#e0e0e0" stroke="#999999" points="1236,-129 1198,-129 1198,-110 1236,-110 1236,-129"/>
<text text-anchor="middle" x="1217" y="-117" font-family="Helvetica,sans-Serif" font-size="10.00">map</text>
</a>
</g>
</g>
<!-- Node18&#45;&gt;Node20 -->
<g id="edge25" class="edge">
<title>Node18&#45;&gt;Node20</title>
<path fill="none" stroke="#63b8ff" d="M1186.11,-164.75C1191.28,-157.34 1198.85,-146.5 1205.19,-137.41"/>
<polygon fill="#63b8ff" stroke="#63b8ff" points="1208.15,-139.29 1211,-129.09 1202.41,-135.29 1208.15,-139.29"/>
</g>
<!-- Node21 -->
<g id="node21" class="node">
<title>Node21</title>
<g id="a_node21"><a xlink:title=" ">
<polygon fill="#e0e0e0" stroke="#999999" points="1298,-129 1254,-129 1254,-110 1298,-110 1298,-129"/>
<text text-anchor="middle" x="1276" y="-117" font-family="Helvetica,sans-Serif" font-size="10.00">string</text>
</a>
</g>
</g>
<!-- Node18&#45;&gt;Node21 -->
<g id="edge27" class="edge">
<title>Node18&#45;&gt;Node21</title>
<path fill="none" stroke="#63b8ff" d="M1195.42,-164.98C1210.45,-156.69 1233.54,-143.94 1251.16,-134.22"/>
<polygon fill="#63b8ff" stroke="#63b8ff" points="1253.23,-137.07 1260.3,-129.17 1249.85,-130.94 1253.23,-137.07"/>
</g>
<!-- Node22 -->
<g id="node22" class="node">
<title>Node22</title>
<g id="a_node22"><a xlink:title=" ">
<polygon fill="#e0e0e0" stroke="#999999" points="1373.5,-129 1316.5,-129 1316.5,-110 1373.5,-110 1373.5,-129"/>
<text text-anchor="middle" x="1345" y="-117" font-family="Helvetica,sans-Serif" font-size="10.00">ostream</text>
</a>
</g>
</g>
<!-- Node18&#45;&gt;Node22 -->
<g id="edge28" class="edge">
<title>Node18&#45;&gt;Node22</title>
<path fill="none" stroke="#63b8ff" d="M1206.51,-164.98C1234.21,-156.09 1277.86,-142.07 1308.74,-132.15"/>
<polygon fill="#63b8ff" stroke="#63b8ff" points="1309.83,-135.47 1318.28,-129.08 1307.69,-128.81 1309.83,-135.47"/>
</g>
<!-- Node23 -->
<g id="node23" class="node">
<title>Node23</title>
<g id="a_node23"><a xlink:title=" ">
<polygon fill="#e0e0e0" stroke="#999999" points="1388,-74 1326,-74 1326,-55 1388,-55 1388,-74"/>
<text text-anchor="middle" x="1357" y="-62" font-family="Helvetica,sans-Serif" font-size="10.00">wx/font.h</text>
</a>
</g>
</g>
<!-- Node18&#45;&gt;Node23 -->
<g id="edge30" class="edge">
<title>Node18&#45;&gt;Node23</title>
<path fill="none" stroke="#63b8ff" d="M1228.19,-166.24C1231.17,-165.81 1234.13,-165.4 1237,-165 1300.02,-156.31 1478.94,-176.73 1521,-129 1526.58,-122.66 1526.13,-116.71 1521,-110 1517.17,-104.99 1445.32,-86.83 1398,-75.31"/>
<polygon fill="#63b8ff" stroke="#63b8ff" points="1398.56,-71.85 1388.02,-72.89 1396.92,-78.65 1398.56,-71.85"/>
</g>
<!-- Node24 -->
<g id="node24" class="node">
<title>Node24</title>
<g id="a_node24"><a xlink:title=" ">
<polygon fill="#e0e0e0" stroke="#999999" points="1512,-129 1430,-129 1430,-110 1512,-110 1512,-129"/>
<text text-anchor="middle" x="1471" y="-117" font-family="Helvetica,sans-Serif" font-size="10.00">wx/settings.h</text>
</a>
</g>
</g>
<!-- Node18&#45;&gt;Node24 -->
<g id="edge31" class="edge">
<title>Node18&#45;&gt;Node24</title>
<path fill="none" stroke="#63b8ff" d="M1226.75,-164.98C1279.43,-155.39 1364.8,-139.84 1419.39,-129.9"/>
<polygon fill="#63b8ff" stroke="#63b8ff" points="1420.33,-133.29 1429.55,-128.05 1419.08,-126.4 1420.33,-133.29"/>
</g>
<!-- Node18&#45;&gt;Node25 -->
<g id="edge32" class="edge">
<title>Node18&#45;&gt;Node25</title>
<path fill="none" stroke="#63b8ff" d="M1228.17,-166.06C1231.15,-165.68 1234.12,-165.32 1237,-165 1456.68,-140.68 1516.17,-171.86 1733,-129 1792.4,-117.26 1858.92,-92.71 1896.3,-77.81"/>
<polygon fill="#63b8ff" stroke="#63b8ff" points="1897.63,-81.05 1905.6,-74.06 1895.02,-74.56 1897.63,-81.05"/>
</g>
<!-- Node26 -->
<g id="node26" class="node">
<title>Node26</title>
<g id="a_node26"><a xlink:title=" ">
<polygon fill="#e0e0e0" stroke="#999999" points="1337.5,-19 1272.5,-19 1272.5,0 1337.5,0 1337.5,-19"/>
<text text-anchor="middle" x="1305" y="-7" font-family="Helvetica,sans-Serif" font-size="10.00">functional</text>
</a>
</g>
</g>
<!-- Node18&#45;&gt;Node26 -->
<g id="edge33" class="edge">
<title>Node18&#45;&gt;Node26</title>
<path fill="none" stroke="#63b8ff" d="M1131.65,-170.08C1076.15,-165.04 990.17,-153.43 970,-129 949.06,-103.63 947.32,-79.74 969,-55 988.06,-33.25 1175.92,-18.67 1262.14,-13.07"/>
<polygon fill="#63b8ff" stroke="#63b8ff" points="1262.62,-16.54 1272.38,-12.41 1262.18,-9.56 1262.62,-16.54"/>
</g>
<!-- Node27 -->
<g id="node27" class="node">
<title>Node27</title>
<g id="a_node27"><a xlink:href="FontAttribs_8h_source.html" target="_top" xlink:title=" ">
<polygon fill="white" stroke="#666666" points="1723.5,-129 1644.5,-129 1644.5,-110 1723.5,-110 1723.5,-129"/>
<text text-anchor="middle" x="1684" y="-117" font-family="Helvetica,sans-Serif" font-size="10.00">FontAttribs.h</text>
</a>
</g>
</g>
<!-- Node18&#45;&gt;Node27 -->
<g id="edge34" class="edge">
<title>Node18&#45;&gt;Node27</title>
<path fill="none" stroke="#63b8ff" d="M1228.18,-166.15C1231.16,-165.74 1234.12,-165.36 1237,-165 1312.78,-155.58 1534.17,-134.54 1634.07,-125.16"/>
<polygon fill="#63b8ff" stroke="#63b8ff" points="1634.58,-128.63 1644.21,-124.21 1633.93,-121.66 1634.58,-128.63"/>
</g>
<!-- Node36 -->
<g id="node36" class="node">
<title>Node36</title>
<g id="a_node36"><a xlink:href="FontVariantCache_8h.html" target="_top" xlink:title="This file implements the wxFont cache system.">
<polygon fill="white" stroke="#666666" points="1089.5,-129 978.5,-129 978.5,-110 1089.5,-110 1089.5,-129"/>
<text text-anchor="middle" x="1034" y="-117" font-family="Helvetica,sans-Serif" font-size="10.00">FontVariantCache.h</text>
</a>
</g>
</g>
<!-- Node18&#45;&gt;Node36 -->
<g id="edge47" class="edge">
<title>Node18&#45;&gt;Node36</title>
<path fill="none" stroke="#63b8ff" d="M1156.54,-164.98C1132.42,-156.23 1094.63,-142.51 1067.4,-132.62"/>
<polygon fill="#63b8ff" stroke="#63b8ff" points="1068.48,-129.29 1057.88,-129.17 1066.09,-135.87 1068.48,-129.29"/>
</g>
<!-- Node18&#45;&gt;Node40 -->
<g id="edge55" class="edge">
<title>Node18&#45;&gt;Node40</title>
<path fill="none" stroke="#63b8ff" d="M1228.08,-166.18C1284.98,-157.02 1373.27,-141.09 1383,-129 1405.52,-101.01 1359.44,-83.99 1317.61,-74.71"/>
<polygon fill="#63b8ff" stroke="#63b8ff" points="1318.17,-71.25 1307.67,-72.63 1316.74,-78.1 1318.17,-71.25"/>
</g>
<!-- Node27&#45;&gt;Node23 -->
<g id="edge41" class="edge">
<title>Node27&#45;&gt;Node23</title>
<path fill="none" stroke="#63b8ff" d="M1644.42,-113.07C1590.86,-105.57 1492.07,-91.19 1398.34,-74.16"/>
<polygon fill="#63b8ff" stroke="#63b8ff" points="1398.88,-70.7 1388.41,-72.35 1397.62,-77.59 1398.88,-70.7"/>
</g>
<!-- Node27&#45;&gt;Node25 -->
<g id="edge44" class="edge">
<title>Node27&#45;&gt;Node25</title>
<path fill="none" stroke="#63b8ff" d="M1723.58,-110.45C1763.44,-102.25 1826.96,-88.94 1890.92,-74.19"/>
<polygon fill="#63b8ff" stroke="#63b8ff" points="1891.82,-77.58 1900.77,-71.91 1890.24,-70.76 1891.82,-77.58"/>
</g>
<!-- Node27&#45;&gt;Node26 -->
<g id="edge45" class="edge">
<title>Node27&#45;&gt;Node26</title>
<path fill="none" stroke="#63b8ff" d="M1644.49,-110.36C1610.19,-102.73 1559.51,-90.1 1517,-74 1499.34,-67.31 1496.69,-61.6 1479,-55 1435.39,-38.73 1383.48,-26.31 1347.78,-18.77"/>
<polygon fill="#63b8ff" stroke="#63b8ff" points="1348.2,-15.29 1337.7,-16.69 1346.78,-22.14 1348.2,-15.29"/>
</g>
<!-- Node28 -->
<g id="node28" class="node">
<title>Node28</title>
<g id="a_node28"><a xlink:href="EnumWrapper_8h_source.html" target="_top" xlink:title=" ">
<polygon fill="white" stroke="#666666" points="1620,-74 1526,-74 1526,-55 1620,-55 1620,-74"/>
<text text-anchor="middle" x="1573" y="-62" font-family="Helvetica,sans-Serif" font-size="10.00">EnumWrapper.h</text>
</a>
</g>
</g>
<!-- Node27&#45;&gt;Node28 -->
<g id="edge35" class="edge">
<title>Node27&#45;&gt;Node28</title>
<path fill="none" stroke="#63b8ff" d="M1666.17,-109.98C1648.39,-101.5 1620.85,-88.35 1600.32,-78.54"/>
<polygon fill="#63b8ff" stroke="#63b8ff" points="1601.69,-75.32 1591.16,-74.17 1598.67,-81.64 1601.69,-75.32"/>
</g>
<!-- Node31 -->
<g id="node31" class="node">
<title>Node31</title>
<g id="a_node31"><a xlink:href="clamp_8hpp_source.html" target="_top" xlink:title=" ">
<polygon fill="white" stroke="#666666" points="1724,-74 1638,-74 1638,-55 1724,-55 1724,-74"/>
<text text-anchor="middle" x="1681" y="-62" font-family="Helvetica,sans-Serif" font-size="10.00">stx/clamp.hpp</text>
</a>
</g>
</g>
<!-- Node27&#45;&gt;Node31 -->
<g id="edge39" class="edge">
<title>Node27&#45;&gt;Node31</title>
<path fill="none" stroke="#63b8ff" d="M1683.5,-109.75C1683.11,-102.8 1682.55,-92.85 1682.05,-84.13"/>
<polygon fill="#63b8ff" stroke="#63b8ff" points="1685.55,-83.88 1681.49,-74.09 1678.56,-84.27 1685.55,-83.88"/>
</g>
<!-- Node33 -->
<g id="node33" class="node">
<title>Node33</title>
<g id="a_node33"><a xlink:title=" ">
<polygon fill="#e0e0e0" stroke="#999999" points="1821.5,-74 1742.5,-74 1742.5,-55 1821.5,-55 1821.5,-74"/>
<text text-anchor="middle" x="1782" y="-62" font-family="Helvetica,sans-Serif" font-size="10.00">wx/version.h</text>
</a>
</g>
</g>
<!-- Node27&#45;&gt;Node33 -->
<g id="edge42" class="edge">
<title>Node27&#45;&gt;Node33</title>
<path fill="none" stroke="#63b8ff" d="M1699.75,-109.98C1715.23,-101.61 1739.09,-88.7 1757.14,-78.95"/>
<polygon fill="#63b8ff" stroke="#63b8ff" points="1758.84,-82.01 1765.97,-74.17 1755.51,-75.85 1758.84,-82.01"/>
</g>
<!-- Node27&#45;&gt;Node34 -->
<g id="edge43" class="edge">
<title>Node27&#45;&gt;Node34</title>
<path fill="none" stroke="#63b8ff" d="M1644.48,-109.98C1599.52,-100.3 1526.41,-84.55 1480.33,-74.62"/>
<polygon fill="#63b8ff" stroke="#63b8ff" points="1480.87,-71.16 1470.36,-72.47 1479.4,-78 1480.87,-71.16"/>
</g>
<!-- Node35 -->
<g id="node35" class="node">
<title>Node35</title>
<g id="a_node35"><a xlink:title=" ">
<polygon fill="#e0e0e0" stroke="#999999" points="1883,-74 1839,-74 1839,-55 1883,-55 1883,-74"/>
<text text-anchor="middle" x="1861" y="-62" font-family="Helvetica,sans-Serif" font-size="10.00">limits</text>
</a>
</g>
</g>
<!-- Node27&#45;&gt;Node35 -->
<g id="edge46" class="edge">
<title>Node27&#45;&gt;Node35</title>
<path fill="none" stroke="#63b8ff" d="M1712.44,-109.98C1744.32,-100.44 1795.89,-85 1829.12,-75.05"/>
<polygon fill="#63b8ff" stroke="#63b8ff" points="1830.22,-78.37 1838.8,-72.15 1828.21,-71.66 1830.22,-78.37"/>
</g>
<!-- Node28&#45;&gt;Node26 -->
<g id="edge37" class="edge">
<title>Node28&#45;&gt;Node26</title>
<path fill="none" stroke="#63b8ff" d="M1529.94,-54.98C1479.83,-45.07 1397.59,-28.81 1347.66,-18.94"/>
<polygon fill="#63b8ff" stroke="#63b8ff" points="1348.3,-15.5 1337.82,-16.99 1346.95,-22.36 1348.3,-15.5"/>
</g>
<!-- Node29 -->
<g id="node29" class="node">
<title>Node29</title>
<g id="a_node29"><a xlink:title=" ">
<polygon fill="#e0e0e0" stroke="#999999" points="1617.5,-19 1564.5,-19 1564.5,0 1617.5,0 1617.5,-19"/>
<text text-anchor="middle" x="1591" y="-7" font-family="Helvetica,sans-Serif" font-size="10.00">cstddef</text>
</a>
</g>
</g>
<!-- Node28&#45;&gt;Node29 -->
<g id="edge36" class="edge">
<title>Node28&#45;&gt;Node29</title>
<path fill="none" stroke="#63b8ff" d="M1575.97,-54.75C1578.36,-47.72 1581.79,-37.62 1584.77,-28.84"/>
<polygon fill="#63b8ff" stroke="#63b8ff" points="1588.18,-29.68 1588.08,-19.09 1581.55,-27.43 1588.18,-29.68"/>
</g>
<!-- Node30 -->
<g id="node30" class="node">
<title>Node30</title>
<g id="a_node30"><a xlink:title=" ">
<polygon fill="#e0e0e0" stroke="#999999" points="1546.5,-19 1477.5,-19 1477.5,0 1546.5,0 1546.5,-19"/>
<text text-anchor="middle" x="1512" y="-7" font-family="Helvetica,sans-Serif" font-size="10.00">type_traits</text>
</a>
</g>
</g>
<!-- Node28&#45;&gt;Node30 -->
<g id="edge38" class="edge">
<title>Node28&#45;&gt;Node30</title>
<path fill="none" stroke="#63b8ff" d="M1563.2,-54.98C1554.18,-47.15 1540.59,-35.34 1529.68,-25.86"/>
<polygon fill="#63b8ff" stroke="#63b8ff" points="1531.82,-23.09 1521.98,-19.17 1527.23,-28.37 1531.82,-23.09"/>
</g>
<!-- Node32 -->
<g id="node32" class="node">
<title>Node32</title>
<g id="a_node32"><a xlink:title=" ">
<polygon fill="#e0e0e0" stroke="#999999" points="1707,-19 1655,-19 1655,0 1707,0 1707,-19"/>
<text text-anchor="middle" x="1681" y="-7" font-family="Helvetica,sans-Serif" font-size="10.00">cassert</text>
</a>
</g>
</g>
<!-- Node31&#45;&gt;Node32 -->
<g id="edge40" class="edge">
<title>Node31&#45;&gt;Node32</title>
<path fill="none" stroke="#63b8ff" d="M1681,-54.75C1681,-47.8 1681,-37.85 1681,-29.13"/>
<polygon fill="#63b8ff" stroke="#63b8ff" points="1684.5,-29.09 1681,-19.09 1677.5,-29.09 1684.5,-29.09"/>
</g>
<!-- Node36&#45;&gt;Node2 -->
<g id="edge48" class="edge">
<title>Node36&#45;&gt;Node2</title>
<path fill="none" stroke="#63b8ff" d="M978.24,-113.9C961.45,-112.57 942.98,-111.17 926,-110 656.74,-91.46 333.05,-73.97 216.51,-67.82"/>
<polygon fill="#63b8ff" stroke="#63b8ff" points="216.38,-64.31 206.21,-67.28 216.01,-71.3 216.38,-64.31"/>
</g>
<!-- Node36&#45;&gt;Node23 -->
<g id="edge50" class="edge">
<title>Node36&#45;&gt;Node23</title>
<path fill="none" stroke="#63b8ff" d="M1089.73,-110.63C1144.73,-102.67 1231.46,-89.57 1315.61,-74.18"/>
<polygon fill="#63b8ff" stroke="#63b8ff" points="1316.39,-77.59 1325.59,-72.34 1315.12,-70.71 1316.39,-77.59"/>
</g>
<!-- Node36&#45;&gt;Node26 -->
<g id="edge51" class="edge">
<title>Node36&#45;&gt;Node26</title>
<path fill="none" stroke="#63b8ff" d="M1059.57,-109.97C1084.96,-101.36 1124.93,-87.45 1159,-74 1200.58,-57.58 1247.89,-36.57 1277.1,-23.31"/>
<polygon fill="#63b8ff" stroke="#63b8ff" points="1278.62,-26.46 1286.27,-19.13 1275.72,-20.09 1278.62,-26.46"/>
</g>
<!-- Node36&#45;&gt;Node37 -->
<g id="edge49" class="edge">
<title>Node36&#45;&gt;Node37</title>
<path fill="none" stroke="#63b8ff" d="M1029.54,-109.75C1025.88,-102.57 1020.59,-92.18 1016.05,-83.27"/>
<polygon fill="#63b8ff" stroke="#63b8ff" points="1019.03,-81.41 1011.38,-74.09 1012.8,-84.59 1019.03,-81.41"/>
</g>
<!-- Node36&#45;&gt;Node38 -->
<g id="edge52" class="edge">
<title>Node36&#45;&gt;Node38</title>
<path fill="none" stroke="#63b8ff" d="M1039.94,-109.75C1044.98,-102.34 1052.34,-91.5 1058.51,-82.41"/>
<polygon fill="#63b8ff" stroke="#63b8ff" points="1061.44,-84.33 1064.17,-74.09 1055.65,-80.39 1061.44,-84.33"/>
</g>
<!-- Node39 -->
<g id="node39" class="node">
<title>Node39</title>
<g id="a_node39"><a xlink:title=" ">
<polygon fill="#e0e0e0" stroke="#999999" points="1149.5,-74 1104.5,-74 1104.5,-55 1149.5,-55 1149.5,-74"/>
<text text-anchor="middle" x="1127" y="-62" font-family="Helvetica,sans-Serif" font-size="10.00">utility</text>
</a>
</g>
</g>
<!-- Node36&#45;&gt;Node39 -->
<g id="edge53" class="edge">
<title>Node36&#45;&gt;Node39</title>
<path fill="none" stroke="#63b8ff" d="M1048.94,-109.98C1063.5,-101.69 1085.87,-88.94 1102.93,-79.22"/>
<polygon fill="#63b8ff" stroke="#63b8ff" points="1104.83,-82.16 1111.79,-74.17 1101.36,-76.08 1104.83,-82.16"/>
</g>
<!-- Node36&#45;&gt;Node40 -->
<g id="edge54" class="edge">
<title>Node36&#45;&gt;Node40</title>
<path fill="none" stroke="#63b8ff" d="M1070.47,-109.98C1109.57,-100.86 1171.77,-86.33 1214.39,-76.38"/>
<polygon fill="#63b8ff" stroke="#63b8ff" points="1215.3,-79.76 1224.24,-74.08 1213.71,-72.95 1215.3,-79.76"/>
</g>
</g>
</svg>
        <g id="navigator" transform="translate(0 0)" fill="#404254">
                <rect fill="#f2f5e9" fill-opacity="0.5" stroke="#606060" stroke-width=".5" x="0" y="0" width="60" height="60"/>
                <use id="zoomplus" xlink:href="#zoomPlus" x="17" y="9" onmousedown="handleZoom(evt,'in')"/>
                <use id="zoomminus" xlink:href="#zoomMin" x="42" y="9" onmousedown="handleZoom(evt,'out')"/>
                <use id="reset" xlink:href="#resetDef" x="30" y="36" onmousedown="handleReset()"/>
                <g id="arrowUp" xlink:href="#dirArrow" transform="translate(30 24)" onmousedown="handlePan(0,-1)">
                  <use xlink:href="#rim" fill="#404040">
                        <set attributeName="fill" to="#808080" begin="arrowUp.mouseover" end="arrowUp.mouseout"/>
                  </use>
                  <path fill="none" stroke="white" stroke-width="1.5" d="M0,-3.0v7 M-2.5,-0.5L0,-3.0L2.5,-0.5"/>
                </g>
                <g id="arrowRight" xlink:href="#dirArrow" transform="rotate(90) translate(36 -43)" onmousedown="handlePan(1,0)">
                  <use xlink:href="#rim" fill="#404040">
                        <set attributeName="fill" to="#808080" begin="arrowRight.mouseover" end="arrowRight.mouseout"/>
                  </use>
                  <path fill="none" stroke="white" stroke-width="1.5" d="M0,-3.0v7 M-2.5,-0.5L0,-3.0L2.5,-0.5"/>
                </g>
                <g id="arrowDown" xlink:href="#dirArrow" transform="rotate(180) translate(-30 -48)" onmousedown="handlePan(0,1)">
                  <use xlink:href="#rim" fill="#404040">
                        <set attributeName="fill" to="#808080" begin="arrowDown.mouseover" end="arrowDown.mouseout"/>
                  </use>
                  <path fill="none" stroke="white" stroke-width="1.5" d="M0,-3.0v7 M-2.5,-0.5L0,-3.0L2.5,-0.5"/>
                </g>
                <g id="arrowLeft" xlink:href="#dirArrow" transform="rotate(270) translate(-36 17)" onmousedown="handlePan(-1,0)">
                  <use xlink:href="#rim" fill="#404040">
                        <set attributeName="fill" to="#808080" begin="arrowLeft.mouseover" end="arrowLeft.mouseout"/>
                  </use>
                  <path fill="none" stroke="white" stroke-width="1.5" d="M0,-3.0v7 M-2.5,-0.5L0,-3.0L2.5,-0.5"/>
                </g>
        </g>
        <svg viewBox="0 0 15 15" width="100%" height="30px" preserveAspectRatio="xMaxYMin meet">
         <g id="arrow_out" transform="scale(0.3 0.3)">
          <a xlink:href="CsvWiz_8h__incl_org.svg" target="_base">
           <rect id="button" ry="5" rx="5" y="6" x="6" height="38" width="38"
                fill="#f2f5e9" fill-opacity="0.5" stroke="#606060" stroke-width="1.0"/>
           <path id="arrow"
             d="M 11.500037,31.436501 C 11.940474,20.09759 22.043105,11.32322 32.158766,21.979434 L 37.068811,17.246167 C 37.068811,17.246167 37.088388,32 37.088388,32 L 22.160133,31.978069 C 22.160133,31.978069 26.997745,27.140456 26.997745,27.140456 C 18.528582,18.264221 13.291696,25.230495 11.500037,31.436501 z"
             style="fill:#404040;"/>
          </a>
         </g>
        </svg>
</svg>
