<?xml version="1.0" encoding="UTF-8" standalone="no"?>
<!DOCTYPE svg PUBLIC "-//W3C//DTD SVG 1.1//EN"
 "http://www.w3.org/Graphics/SVG/1.1/DTD/svg11.dtd">
<!-- Generated by graphviz version 2.43.0 (0)
 -->
<!-- Title: src/wizards/CsvWiz.h Pages: 1 -->
<svg width="2105pt" height="412pt"
 viewBox="0.00 0.00 2104.50 412.00" xmlns="http://www.w3.org/2000/svg" xmlns:xlink="http://www.w3.org/1999/xlink">
<g id="graph0" class="graph" transform="scale(1 1) rotate(0) translate(4 408)">
<title>src/wizards/CsvWiz.h</title>
<!-- Node1 -->
<g id="node1" class="node">
<title>Node1</title>
<g id="a_node1"><a xlink:title="This file declares all the wizards the draw sidepane needs.">
<polygon fill="#999999" stroke="#666666" points="415.5,-404 296.5,-404 296.5,-385 415.5,-385 415.5,-404"/>
<text text-anchor="middle" x="356" y="-392" font-family="Helvetica,sans-Serif" font-size="10.00">src/wizards/CsvWiz.h</text>
</a>
</g>
</g>
<!-- Node2 -->
<g id="node2" class="node">
<title>Node2</title>
<g id="a_node2"><a xlink:href="precomp_8h_source.html" target="_top" xlink:title=" ">
<polygon fill="white" stroke="#666666" points="319,-74 251,-74 251,-55 319,-55 319,-74"/>
<text text-anchor="middle" x="285" y="-62" font-family="Helvetica,sans-Serif" font-size="10.00">precomp.h</text>
</a>
</g>
</g>
<!-- Node1&#45;&gt;Node2 -->
<g id="edge1" class="edge">
<title>Node1&#45;&gt;Node2</title>
<path fill="none" stroke="#63b8ff" d="M296.41,-390.74C217.68,-386.12 84.14,-374.7 43,-349 14.09,-330.94 0,-319.58 0,-285.5 0,-285.5 0,-285.5 0,-173.5 0,-122.67 160.52,-87.31 240.62,-72.82"/>
<polygon fill="#63b8ff" stroke="#63b8ff" points="241.67,-76.19 250.91,-71 240.45,-69.3 241.67,-76.19"/>
</g>
<!-- Node4 -->
<g id="node4" class="node">
<title>Node4</title>
<g id="a_node4"><a xlink:title=" ">
<polygon fill="#e0e0e0" stroke="#999999" points="85.5,-239 28.5,-239 28.5,-220 85.5,-220 85.5,-239"/>
<text text-anchor="middle" x="57" y="-227" font-family="Helvetica,sans-Serif" font-size="10.00">wx/wx.h</text>
</a>
</g>
</g>
<!-- Node1&#45;&gt;Node4 -->
<g id="edge3" class="edge">
<title>Node1&#45;&gt;Node4</title>
<path fill="none" stroke="#63b8ff" d="M296.49,-393.45C218.28,-391.96 87.29,-384.13 57,-349 33.02,-321.19 42.48,-274.55 50.41,-248.86"/>
<polygon fill="#63b8ff" stroke="#63b8ff" points="53.77,-249.84 53.61,-239.25 47.13,-247.63 53.77,-249.84"/>
</g>
<!-- Node5 -->
<g id="node5" class="node">
<title>Node5</title>
<g id="a_node5"><a xlink:title=" ">
<polygon fill="#e0e0e0" stroke="#999999" points="140,-349 66,-349 66,-330 140,-330 140,-349"/>
<text text-anchor="middle" x="103" y="-337" font-family="Helvetica,sans-Serif" font-size="10.00">wx/button.h</text>
</a>
</g>
</g>
<!-- Node1&#45;&gt;Node5 -->
<g id="edge4" class="edge">
<title>Node1&#45;&gt;Node5</title>
<path fill="none" stroke="#63b8ff" d="M315.35,-384.98C270.32,-375.55 197.82,-360.36 150.29,-350.41"/>
<polygon fill="#63b8ff" stroke="#63b8ff" points="150.76,-346.93 140.25,-348.3 149.32,-353.78 150.76,-346.93"/>
</g>
<!-- Node6 -->
<g id="node6" class="node">
<title>Node6</title>
<g id="a_node6"><a xlink:title=" ">
<polygon fill="#e0e0e0" stroke="#999999" points="241.5,-349 158.5,-349 158.5,-330 241.5,-330 241.5,-349"/>
<text text-anchor="middle" x="200" y="-337" font-family="Helvetica,sans-Serif" font-size="10.00">wx/radiobut.h</text>
</a>
</g>
</g>
<!-- Node1&#45;&gt;Node6 -->
<g id="edge5" class="edge">
<title>Node1&#45;&gt;Node6</title>
<path fill="none" stroke="#63b8ff" d="M330.94,-384.98C304.97,-376.16 264.19,-362.31 235.04,-352.41"/>
<polygon fill="#63b8ff" stroke="#63b8ff" points="235.85,-348.99 225.26,-349.08 233.6,-355.61 235.85,-348.99"/>
</g>
<!-- Node7 -->
<g id="node7" class="node">
<title>Node7</title>
<g id="a_node7"><a xlink:title=" ">
<polygon fill="#e0e0e0" stroke="#999999" points="336,-349 260,-349 260,-330 336,-330 336,-349"/>
<text text-anchor="middle" x="298" y="-337" font-family="Helvetica,sans-Serif" font-size="10.00">wx/persist.h</text>
</a>
</g>
</g>
<!-- Node1&#45;&gt;Node7 -->
<g id="edge6" class="edge">
<title>Node1&#45;&gt;Node7</title>
<path fill="none" stroke="#63b8ff" d="M346.68,-384.98C338.19,-377.23 325.44,-365.58 315.12,-356.14"/>
<polygon fill="#63b8ff" stroke="#63b8ff" points="317.23,-353.33 307.49,-349.17 312.51,-358.5 317.23,-353.33"/>
</g>
<!-- Node8 -->
<g id="node8" class="node">
<title>Node8</title>
<g id="a_node8"><a xlink:title=" ">
<polygon fill="#e0e0e0" stroke="#999999" points="473.5,-349 354.5,-349 354.5,-330 473.5,-330 473.5,-349"/>
<text text-anchor="middle" x="414" y="-337" font-family="Helvetica,sans-Serif" font-size="10.00">wx/persist/toplevel.h</text>
</a>
</g>
</g>
<!-- Node1&#45;&gt;Node8 -->
<g id="edge7" class="edge">
<title>Node1&#45;&gt;Node8</title>
<path fill="none" stroke="#63b8ff" d="M365.32,-384.98C373.81,-377.23 386.56,-365.58 396.88,-356.14"/>
<polygon fill="#63b8ff" stroke="#63b8ff" points="399.49,-358.5 404.51,-349.17 394.77,-353.33 399.49,-358.5"/>
</g>
<!-- Node9 -->
<g id="node9" class="node">
<title>Node9</title>
<g id="a_node9"><a xlink:href="BTextCtrl_8h_source.html" target="_top" xlink:title=" ">
<polygon fill="white" stroke="#666666" points="562,-349 492,-349 492,-330 562,-330 562,-349"/>
<text text-anchor="middle" x="527" y="-337" font-family="Helvetica,sans-Serif" font-size="10.00">BTextCtrl.h</text>
</a>
</g>
</g>
<!-- Node1&#45;&gt;Node9 -->
<g id="edge8" class="edge">
<title>Node1&#45;&gt;Node9</title>
<path fill="none" stroke="#63b8ff" d="M383.47,-384.98C412.18,-376.09 457.42,-362.07 489.42,-352.15"/>
<polygon fill="#63b8ff" stroke="#63b8ff" points="490.8,-355.39 499.31,-349.08 488.72,-348.7 490.8,-355.39"/>
</g>
<!-- Node10 -->
<g id="node10" class="node">
<title>Node10</title>
<g id="a_node10"><a xlink:href="Configuration_8h_source.html" target="_top" xlink:title=" ">
<polygon fill="white" stroke="#666666" points="1182.5,-294 1091.5,-294 1091.5,-275 1182.5,-275 1182.5,-294"/>
<text text-anchor="middle" x="1137" y="-282" font-family="Helvetica,sans-Serif" font-size="10.00">Configuration.h</text>
</a>
</g>
</g>
<!-- Node1&#45;&gt;Node10 -->
<g id="edge82" class="edge">
<title>Node1&#45;&gt;Node10</title>
<path fill="none" stroke="#63b8ff" d="M415.92,-385.21C459.65,-378.17 519.95,-366.41 571,-349 589.25,-342.78 591.41,-335.12 610,-330 697.54,-305.89 964.37,-292.47 1081.21,-287.62"/>
<polygon fill="#63b8ff" stroke="#63b8ff" points="1081.52,-291.11 1091.37,-287.2 1081.24,-284.11 1081.52,-291.11"/>
</g>
<!-- Node56 -->
<g id="node49" class="node">
<title>Node56</title>
<g id="a_node49"><a xlink:title=" ">
<polygon fill="#e0e0e0" stroke="#999999" points="691.5,-349 618.5,-349 618.5,-330 691.5,-330 691.5,-349"/>
<text text-anchor="middle" x="655" y="-337" font-family="Helvetica,sans-Serif" font-size="10.00">wx/filedlg.h</text>
</a>
</g>
</g>
<!-- Node1&#45;&gt;Node56 -->
<g id="edge80" class="edge">
<title>Node1&#45;&gt;Node56</title>
<path fill="none" stroke="#63b8ff" d="M404.04,-384.98C460.3,-375.01 552.85,-358.61 608.45,-348.75"/>
<polygon fill="#63b8ff" stroke="#63b8ff" points="609.15,-352.18 618.39,-346.99 607.93,-345.29 609.15,-352.18"/>
</g>
<!-- Node57 -->
<g id="node50" class="node">
<title>Node57</title>
<g id="a_node50"><a xlink:title=" ">
<polygon fill="#e0e0e0" stroke="#999999" points="784,-349 710,-349 710,-330 784,-330 784,-349"/>
<text text-anchor="middle" x="747" y="-337" font-family="Helvetica,sans-Serif" font-size="10.00">wx/choice.h</text>
</a>
</g>
</g>
<!-- Node1&#45;&gt;Node57 -->
<g id="edge81" class="edge">
<title>Node1&#45;&gt;Node57</title>
<path fill="none" stroke="#63b8ff" d="M415.66,-386.8C482.47,-379.08 594.19,-365.5 699.98,-349.09"/>
<polygon fill="#63b8ff" stroke="#63b8ff" points="700.53,-352.54 709.87,-347.54 699.45,-345.63 700.53,-352.54"/>
</g>
<!-- Node3 -->
<g id="node3" class="node">
<title>Node3</title>
<g id="a_node3"><a xlink:title=" ">
<polygon fill="#e0e0e0" stroke="#999999" points="325.5,-19 244.5,-19 244.5,0 325.5,0 325.5,-19"/>
<text text-anchor="middle" x="285" y="-7" font-family="Helvetica,sans-Serif" font-size="10.00">BuildConfig.h</text>
</a>
</g>
</g>
<!-- Node2&#45;&gt;Node3 -->
<g id="edge2" class="edge">
<title>Node2&#45;&gt;Node3</title>
<path fill="none" stroke="#63b8ff" d="M285,-54.75C285,-47.8 285,-37.85 285,-29.13"/>
<polygon fill="#63b8ff" stroke="#63b8ff" points="288.5,-29.09 285,-19.09 281.5,-29.09 288.5,-29.09"/>
</g>
<!-- Node9&#45;&gt;Node2 -->
<g id="edge9" class="edge">
<title>Node9&#45;&gt;Node2</title>
<path fill="none" stroke="#63b8ff" d="M491.79,-331.18C391.91,-310.17 114,-249.95 114,-230.5 114,-230.5 114,-230.5 114,-173.5 114,-113.42 190.38,-85.41 241.05,-73.43"/>
<polygon fill="#63b8ff" stroke="#63b8ff" points="241.81,-76.85 250.81,-71.25 240.28,-70.02 241.81,-76.85"/>
</g>
<!-- Node9&#45;&gt;Node4 -->
<g id="edge10" class="edge">
<title>Node9&#45;&gt;Node4</title>
<path fill="none" stroke="#63b8ff" d="M491.99,-331.42C488.95,-330.9 485.93,-330.42 483,-330 398.38,-317.88 173.56,-337.56 100,-294 82.69,-283.75 70.83,-263.47 64.02,-248.58"/>
<polygon fill="#63b8ff" stroke="#63b8ff" points="67.22,-247.17 60.11,-239.32 60.78,-249.89 67.22,-247.17"/>
</g>
<!-- Node9&#45;&gt;Node10 -->
<g id="edge11" class="edge">
<title>Node9&#45;&gt;Node10</title>
<path fill="none" stroke="#63b8ff" d="M562,-332.02C566.7,-331.27 571.46,-330.57 576,-330 760.2,-306.77 980.05,-293.51 1081.13,-288.21"/>
<polygon fill="#63b8ff" stroke="#63b8ff" points="1081.6,-291.69 1091.41,-287.68 1081.24,-284.7 1081.6,-291.69"/>
</g>
<!-- Node10&#45;&gt;Node2 -->
<g id="edge12" class="edge">
<title>Node10&#45;&gt;Node2</title>
<path fill="none" stroke="#63b8ff" d="M1091.48,-283.13C904.41,-281.39 203.14,-272.65 171,-239 121.41,-187.07 218.04,-110.89 263.34,-79.66"/>
<polygon fill="#63b8ff" stroke="#63b8ff" points="265.34,-82.53 271.66,-74.03 261.42,-76.73 265.34,-82.53"/>
</g>
<!-- Node10&#45;&gt;Node4 -->
<g id="edge13" class="edge">
<title>Node10&#45;&gt;Node4</title>
<path fill="none" stroke="#63b8ff" d="M1091.14,-282.44C949.27,-278.94 505.03,-266.41 138,-239 124.31,-237.98 109.36,-236.51 96.07,-235.08"/>
<polygon fill="#63b8ff" stroke="#63b8ff" points="96.15,-231.57 85.83,-233.95 95.38,-238.52 96.15,-231.57"/>
</g>
<!-- Node11 -->
<g id="node11" class="node">
<title>Node11</title>
<g id="a_node11"><a xlink:title=" ">
<polygon fill="#e0e0e0" stroke="#999999" points="1471,-129 1399,-129 1399,-110 1471,-110 1471,-129"/>
<text text-anchor="middle" x="1435" y="-117" font-family="Helvetica,sans-Serif" font-size="10.00">wx/config.h</text>
</a>
</g>
</g>
<!-- Node10&#45;&gt;Node11 -->
<g id="edge14" class="edge">
<title>Node10&#45;&gt;Node11</title>
<path fill="none" stroke="#63b8ff" d="M1091.43,-277.67C1067.39,-272.02 1039.86,-260.9 1025,-239 1015.21,-224.58 1008.98,-186.31 1030,-165 1083.98,-110.28 1297.7,-138.31 1374,-129 1378.79,-128.42 1383.79,-127.77 1388.77,-127.11"/>
<polygon fill="#63b8ff" stroke="#63b8ff" points="1389.46,-130.55 1398.9,-125.74 1388.52,-123.61 1389.46,-130.55"/>
</g>
<!-- Node12 -->
<g id="node12" class="node">
<title>Node12</title>
<g id="a_node12"><a xlink:title=" ">
<polygon fill="#e0e0e0" stroke="#999999" points="2096.5,-239 2019.5,-239 2019.5,-220 2096.5,-220 2096.5,-239"/>
<text text-anchor="middle" x="2058" y="-227" font-family="Helvetica,sans-Serif" font-size="10.00">wx/display.h</text>
</a>
</g>
</g>
<!-- Node10&#45;&gt;Node12 -->
<g id="edge15" class="edge">
<title>Node10&#45;&gt;Node12</title>
<path fill="none" stroke="#63b8ff" d="M1182.78,-282.89C1312.21,-280.79 1691.75,-272.05 2005,-239 2006.3,-238.86 2007.62,-238.71 2008.95,-238.56"/>
<polygon fill="#63b8ff" stroke="#63b8ff" points="2009.82,-241.97 2019.28,-237.2 2008.91,-235.03 2009.82,-241.97"/>
</g>
<!-- Node13 -->
<g id="node13" class="node">
<title>Node13</title>
<g id="a_node13"><a xlink:title=" ">
<polygon fill="#e0e0e0" stroke="#999999" points="270,-239 180,-239 180,-220 270,-220 270,-239"/>
<text text-anchor="middle" x="225" y="-227" font-family="Helvetica,sans-Serif" font-size="10.00">wx/fontenum.h</text>
</a>
</g>
</g>
<!-- Node10&#45;&gt;Node13 -->
<g id="edge16" class="edge">
<title>Node10&#45;&gt;Node13</title>
<path fill="none" stroke="#63b8ff" d="M1091.35,-282.76C964.52,-280.35 597.01,-271.02 280.56,-238.92"/>
<polygon fill="#63b8ff" stroke="#63b8ff" points="280.58,-235.41 270.27,-237.87 279.87,-242.37 280.58,-235.41"/>
</g>
<!-- Node14 -->
<g id="node14" class="node">
<title>Node14</title>
<g id="a_node14"><a xlink:title=" ">
<polygon fill="#e0e0e0" stroke="#999999" points="1577,-129 1489,-129 1489,-110 1577,-110 1577,-129"/>
<text text-anchor="middle" x="1533" y="-117" font-family="Helvetica,sans-Serif" font-size="10.00">wx/hashmap.h</text>
</a>
</g>
</g>
<!-- Node10&#45;&gt;Node14 -->
<g id="edge17" class="edge">
<title>Node10&#45;&gt;Node14</title>
<path fill="none" stroke="#63b8ff" d="M1137.24,-274.91C1138.36,-252.68 1144.69,-193.03 1180,-165 1230.33,-125.04 1398.19,-137.13 1478.5,-128.96"/>
<polygon fill="#63b8ff" stroke="#63b8ff" points="1479.26,-132.39 1488.77,-127.73 1478.43,-125.44 1479.26,-132.39"/>
</g>
<!-- Node15 -->
<g id="node15" class="node">
<title>Node15</title>
<g id="a_node15"><a xlink:href="LoggingMessageDialog_8h.html" target="_top" xlink:title="This file declares a message dialog that sends its contents to the log message sink.">
<polygon fill="white" stroke="#666666" points="465.5,-239 288.5,-239 288.5,-220 465.5,-220 465.5,-239"/>
<text text-anchor="middle" x="377" y="-227" font-family="Helvetica,sans-Serif" font-size="10.00">dialogs/LoggingMessageDialog.h</text>
</a>
</g>
</g>
<!-- Node10&#45;&gt;Node15 -->
<g id="edge18" class="edge">
<title>Node10&#45;&gt;Node15</title>
<path fill="none" stroke="#63b8ff" d="M1091.11,-280.64C983.93,-273.92 708.77,-256.34 479,-239 477.91,-238.92 476.82,-238.84 475.73,-238.75"/>
<polygon fill="#63b8ff" stroke="#63b8ff" points="475.97,-235.26 465.73,-237.98 475.43,-242.24 475.97,-235.26"/>
</g>
<!-- Node18 -->
<g id="node18" class="node">
<title>Node18</title>
<g id="a_node18"><a xlink:href="TextStyle_8h.html" target="_top" xlink:title="This file declares everything needed for the text style system used to style all the elements on the ...">
<polygon fill="white" stroke="#666666" points="982,-184 886,-184 886,-165 982,-165 982,-184"/>
<text text-anchor="middle" x="934" y="-172" font-family="Helvetica,sans-Serif" font-size="10.00">cells/TextStyle.h</text>
</a>
</g>
</g>
<!-- Node10&#45;&gt;Node18 -->
<g id="edge22" class="edge">
<title>Node10&#45;&gt;Node18</title>
<path fill="none" stroke="#63b8ff" d="M1091.24,-275.96C1061.29,-269.51 1022.26,-258.15 992,-239 972.96,-226.95 956.21,-207.03 945.67,-192.72"/>
<polygon fill="#63b8ff" stroke="#63b8ff" points="948.31,-190.4 939.67,-184.26 942.6,-194.44 948.31,-190.4"/>
</g>
<!-- Node25 -->
<g id="node25" class="node">
<title>Node25</title>
<g id="a_node25"><a xlink:title=" ">
<polygon fill="#e0e0e0" stroke="#999999" points="632,-74 582,-74 582,-55 632,-55 632,-74"/>
<text text-anchor="middle" x="607" y="-62" font-family="Helvetica,sans-Serif" font-size="10.00">cstdint</text>
</a>
</g>
</g>
<!-- Node10&#45;&gt;Node25 -->
<g id="edge68" class="edge">
<title>Node10&#45;&gt;Node25</title>
<path fill="none" stroke="#63b8ff" d="M1091.31,-282.15C971.49,-278.25 654.78,-265.52 616,-239 567.05,-205.53 587.98,-121.15 600.32,-83.79"/>
<polygon fill="#63b8ff" stroke="#63b8ff" points="603.68,-84.78 603.65,-74.19 597.07,-82.49 603.68,-84.78"/>
</g>
<!-- Node32 -->
<g id="node28" class="node">
<title>Node32</title>
<g id="a_node28"><a xlink:title=" ">
<polygon fill="#e0e0e0" stroke="#999999" points="1061,-74 997,-74 997,-55 1061,-55 1061,-74"/>
<text text-anchor="middle" x="1029" y="-62" font-family="Helvetica,sans-Serif" font-size="10.00">algorithm</text>
</a>
</g>
</g>
<!-- Node10&#45;&gt;Node32 -->
<g id="edge76" class="edge">
<title>Node10&#45;&gt;Node32</title>
<path fill="none" stroke="#63b8ff" d="M1091.14,-283.11C986.08,-281.62 731.13,-274.35 654,-239 622,-224.33 610.76,-216.4 597,-184 588.53,-164.06 599.33,-117.91 608,-110 635.64,-84.8 885.48,-71.54 986.7,-67.17"/>
<polygon fill="#63b8ff" stroke="#63b8ff" points="987.03,-70.65 996.87,-66.73 986.73,-63.66 987.03,-70.65"/>
</g>
<!-- Node35 -->
<g id="node30" class="node">
<title>Node35</title>
<g id="a_node30"><a xlink:title=" ">
<polygon fill="#e0e0e0" stroke="#999999" points="1672,-74 1614,-74 1614,-55 1672,-55 1672,-74"/>
<text text-anchor="middle" x="1643" y="-62" font-family="Helvetica,sans-Serif" font-size="10.00">memory</text>
</a>
</g>
</g>
<!-- Node10&#45;&gt;Node35 -->
<g id="edge69" class="edge">
<title>Node10&#45;&gt;Node35</title>
<path fill="none" stroke="#63b8ff" d="M1141.36,-274.69C1153.99,-249.55 1191.1,-178.38 1213,-165 1355.13,-78.18 1437.34,-204.09 1586,-129 1606.18,-118.81 1622.55,-98.21 1632.49,-83.23"/>
<polygon fill="#63b8ff" stroke="#63b8ff" points="1635.7,-84.69 1638.06,-74.36 1629.78,-80.96 1635.7,-84.69"/>
</g>
<!-- Node36 -->
<g id="node31" class="node">
<title>Node36</title>
<g id="a_node31"><a xlink:title=" ">
<polygon fill="#e0e0e0" stroke="#999999" points="1113,-74 1081,-74 1081,-55 1113,-55 1113,-74"/>
<text text-anchor="middle" x="1097" y="-62" font-family="Helvetica,sans-Serif" font-size="10.00">list</text>
</a>
</g>
</g>
<!-- Node10&#45;&gt;Node36 -->
<g id="edge73" class="edge">
<title>Node10&#45;&gt;Node36</title>
<path fill="none" stroke="#63b8ff" d="M1091.37,-282.97C942.69,-279.81 489.44,-258.08 626,-110 659.55,-73.61 1021.42,-83.49 1070,-74 1070.33,-73.93 1070.67,-73.87 1071.01,-73.8"/>
<polygon fill="#63b8ff" stroke="#63b8ff" points="1072.08,-77.13 1080.88,-71.22 1070.32,-70.36 1072.08,-77.13"/>
</g>
<!-- Node38 -->
<g id="node32" class="node">
<title>Node38</title>
<g id="a_node32"><a xlink:title=" ">
<polygon fill="#e0e0e0" stroke="#999999" points="1871.5,-74 1778.5,-74 1778.5,-55 1871.5,-55 1871.5,-74"/>
<text text-anchor="middle" x="1825" y="-62" font-family="Helvetica,sans-Serif" font-size="10.00">unordered_map</text>
</a>
</g>
</g>
<!-- Node10&#45;&gt;Node38 -->
<g id="edge71" class="edge">
<title>Node10&#45;&gt;Node38</title>
<path fill="none" stroke="#63b8ff" d="M1182.75,-284.15C1290.83,-284.89 1569.99,-282.07 1798,-239 1877.7,-223.95 1924.07,-249.42 1972,-184 1987.66,-162.63 1964.21,-124.44 1949,-110 1930.57,-92.5 1904.78,-81.8 1881.48,-75.31"/>
<polygon fill="#63b8ff" stroke="#63b8ff" points="1882.24,-71.89 1871.68,-72.77 1880.49,-78.67 1882.24,-71.89"/>
</g>
<!-- Node39 -->
<g id="node33" class="node">
<title>Node39</title>
<g id="a_node33"><a xlink:href="FontRenderabilityCache_8h.html" target="_top" xlink:title="Declares FontRenderabilityCache: which chars can each font render?">
<polygon fill="white" stroke="#666666" points="1823,-184 1681,-184 1681,-165 1823,-165 1823,-184"/>
<text text-anchor="middle" x="1752" y="-172" font-family="Helvetica,sans-Serif" font-size="10.00">FontRenderabilityCache.h</text>
</a>
</g>
</g>
<!-- Node10&#45;&gt;Node39 -->
<g id="edge47" class="edge">
<title>Node10&#45;&gt;Node39</title>
<path fill="none" stroke="#63b8ff" d="M1182.66,-279.41C1235.95,-273.82 1326.31,-261.77 1401,-239 1420.6,-233.03 1423.33,-225.74 1443,-220 1484.45,-207.9 1594.02,-193.62 1670.85,-184.57"/>
<polygon fill="#63b8ff" stroke="#63b8ff" points="1671.46,-188.02 1680.99,-183.38 1670.65,-181.07 1671.46,-188.02"/>
</g>
<!-- Node42 -->
<g id="node36" class="node">
<title>Node42</title>
<g id="a_node36"><a xlink:href="MaximaSessionInfo_8h.html" target="_top" xlink:title="Declares MaximaSessionInfo: what we know about the connected Maxima.">
<polygon fill="white" stroke="#666666" points="1963,-184 1841,-184 1841,-165 1963,-165 1963,-184"/>
<text text-anchor="middle" x="1902" y="-172" font-family="Helvetica,sans-Serif" font-size="10.00">MaximaSessionInfo.h</text>
</a>
</g>
</g>
<!-- Node10&#45;&gt;Node42 -->
<g id="edge52" class="edge">
<title>Node10&#45;&gt;Node42</title>
<path fill="none" stroke="#63b8ff" d="M1182.8,-282.25C1307.13,-278.54 1648.9,-266.09 1758,-239 1802.36,-227.98 1850.23,-204.25 1878.08,-189.13"/>
<polygon fill="#63b8ff" stroke="#63b8ff" points="1880,-192.07 1887.06,-184.17 1876.62,-185.94 1880,-192.07"/>
</g>
<!-- Node43 -->
<g id="node37" class="node">
<title>Node43</title>
<g id="a_node37"><a xlink:href="RenderContext_8h.html" target="_top" xlink:title="Declares RenderContext: the per&#45;render&#45;pass state of a worksheet.">
<polygon fill="#fff0f0" stroke="red" points="1320,-239 1222,-239 1222,-220 1320,-220 1320,-239"/>
<text text-anchor="middle" x="1271" y="-227" font-family="Helvetica,sans-Serif" font-size="10.00">RenderContext.h</text>
</a>
</g>
</g>
<!-- Node10&#45;&gt;Node43 -->
<g id="edge56" class="edge">
<title>Node10&#45;&gt;Node43</title>
<path fill="none" stroke="#63b8ff" d="M1158.53,-274.98C1180.47,-266.3 1214.74,-252.75 1239.69,-242.88"/>
<polygon fill="#63b8ff" stroke="#63b8ff" points="1241.07,-246.1 1249.08,-239.17 1238.49,-239.59 1241.07,-246.1"/>
</g>
<!-- Node48 -->
<g id="node41" class="node">
<title>Node48</title>
<g id="a_node41"><a xlink:title=" ">
<polygon fill="#e0e0e0" stroke="#999999" points="1595,-184 1545,-184 1545,-165 1595,-165 1595,-184"/>
<text text-anchor="middle" x="1570" y="-172" font-family="Helvetica,sans-Serif" font-size="10.00">atomic</text>
</a>
</g>
</g>
<!-- Node10&#45;&gt;Node48 -->
<g id="edge77" class="edge">
<title>Node10&#45;&gt;Node48</title>
<path fill="none" stroke="#63b8ff" d="M1182.67,-275.43C1221.99,-267.89 1279.99,-255.35 1329,-239 1348.82,-232.39 1352.16,-226.54 1372,-220 1379.74,-217.45 1479.77,-195.33 1534.61,-183.27"/>
<polygon fill="#63b8ff" stroke="#63b8ff" points="1535.59,-186.63 1544.61,-181.07 1534.09,-179.8 1535.59,-186.63"/>
</g>
<!-- Node49 -->
<g id="node42" class="node">
<title>Node49</title>
<g id="a_node42"><a xlink:title=" ">
<polygon fill="#e0e0e0" stroke="#999999" points="1663,-184 1613,-184 1613,-165 1663,-165 1663,-184"/>
<text text-anchor="middle" x="1638" y="-172" font-family="Helvetica,sans-Serif" font-size="10.00">chrono</text>
</a>
</g>
</g>
<!-- Node10&#45;&gt;Node49 -->
<g id="edge78" class="edge">
<title>Node10&#45;&gt;Node49</title>
<path fill="none" stroke="#63b8ff" d="M1182.87,-277.24C1229.19,-270.29 1302.48,-257.54 1364,-239 1385.18,-232.62 1388.79,-226.27 1410,-220 1491.05,-196.03 1516.48,-202.14 1602.82,-184.12"/>
<polygon fill="#63b8ff" stroke="#63b8ff" points="1603.74,-187.5 1612.79,-181.99 1602.28,-180.65 1603.74,-187.5"/>
</g>
<!-- Node50 -->
<g id="node43" class="node">
<title>Node50</title>
<g id="a_node43"><a xlink:title=" ">
<polygon fill="#e0e0e0" stroke="#999999" points="1085.5,-184 1038.5,-184 1038.5,-165 1085.5,-165 1085.5,-184"/>
<text text-anchor="middle" x="1062" y="-172" font-family="Helvetica,sans-Serif" font-size="10.00">vector</text>
</a>
</g>
</g>
<!-- Node10&#45;&gt;Node50 -->
<g id="edge75" class="edge">
<title>Node10&#45;&gt;Node50</title>
<path fill="none" stroke="#63b8ff" d="M1132.25,-274.6C1125.43,-262.07 1112.22,-238.66 1099,-220 1092.1,-210.26 1083.64,-199.99 1076.55,-191.76"/>
<polygon fill="#63b8ff" stroke="#63b8ff" points="1079.01,-189.26 1069.79,-184.05 1073.75,-193.87 1079.01,-189.26"/>
</g>
<!-- Node51 -->
<g id="node44" class="node">
<title>Node51</title>
<g id="a_node44"><a xlink:href="Styles_8h.html" target="_top" xlink:title="This file declares the class Styles.">
<polygon fill="#fff0f0" stroke="red" points="1090,-239 1034,-239 1034,-220 1090,-220 1090,-239"/>
<text text-anchor="middle" x="1062" y="-227" font-family="Helvetica,sans-Serif" font-size="10.00">Styles.h</text>
</a>
</g>
</g>
<!-- Node10&#45;&gt;Node51 -->
<g id="edge65" class="edge">
<title>Node10&#45;&gt;Node51</title>
<path fill="none" stroke="#63b8ff" d="M1124.95,-274.98C1113.54,-266.92 1096.17,-254.65 1082.57,-245.03"/>
<polygon fill="#63b8ff" stroke="#63b8ff" points="1084.46,-242.08 1074.27,-239.17 1080.42,-247.8 1084.46,-242.08"/>
</g>
<!-- Node52 -->
<g id="node45" class="node">
<title>Node52</title>
<g id="a_node45"><a xlink:title=" ">
<polygon fill="#e0e0e0" stroke="#999999" points="1500,-239 1452,-239 1452,-220 1500,-220 1500,-239"/>
<text text-anchor="middle" x="1476" y="-227" font-family="Helvetica,sans-Serif" font-size="10.00">mutex</text>
</a>
</g>
</g>
<!-- Node10&#45;&gt;Node52 -->
<g id="edge70" class="edge">
<title>Node10&#45;&gt;Node52</title>
<path fill="none" stroke="#63b8ff" d="M1182.56,-277.82C1241.66,-270.21 1347.89,-255.72 1438,-239 1439.27,-238.76 1440.56,-238.52 1441.87,-238.26"/>
<polygon fill="#63b8ff" stroke="#63b8ff" points="1442.86,-241.63 1451.93,-236.16 1441.43,-234.78 1442.86,-241.63"/>
</g>
<!-- Node53 -->
<g id="node46" class="node">
<title>Node53</title>
<g id="a_node46"><a xlink:title=" ">
<polygon fill="#e0e0e0" stroke="#999999" points="1572,-239 1518,-239 1518,-220 1572,-220 1572,-239"/>
<text text-anchor="middle" x="1545" y="-227" font-family="Helvetica,sans-Serif" font-size="10.00">random</text>
</a>
</g>
</g>
<!-- Node10&#45;&gt;Node53 -->
<g id="edge72" class="edge">
<title>Node10&#45;&gt;Node53</title>
<path fill="none" stroke="#63b8ff" d="M1182.77,-279.7C1251.35,-273.64 1384.99,-260.41 1507.97,-238.99"/>
<polygon fill="#63b8ff" stroke="#63b8ff" points="1508.7,-242.42 1517.94,-237.23 1507.49,-235.53 1508.7,-242.42"/>
</g>
<!-- Node54 -->
<g id="node47" class="node">
<title>Node54</title>
<g id="a_node47"><a xlink:title=" ">
<polygon fill="#e0e0e0" stroke="#999999" points="1641.5,-239 1590.5,-239 1590.5,-220 1641.5,-220 1641.5,-239"/>
<text text-anchor="middle" x="1616" y="-227" font-family="Helvetica,sans-Serif" font-size="10.00">variant</text>
</a>
</g>
</g>
<!-- Node10&#45;&gt;Node54 -->
<g id="edge74" class="edge">
<title>Node10&#45;&gt;Node54</title>
<path fill="none" stroke="#63b8ff" d="M1182.66,-281.01C1261.71,-276.26 1429.27,-264.17 1580.53,-238.82"/>
<polygon fill="#63b8ff" stroke="#63b8ff" points="1581.2,-242.26 1590.47,-237.13 1580.03,-235.36 1581.2,-242.26"/>
</g>
<!-- Node55 -->
<g id="node48" class="node">
<title>Node55</title>
<g id="a_node48"><a xlink:title=" ">
<polygon fill="#e0e0e0" stroke="#999999" points="1748.5,-239 1659.5,-239 1659.5,-220 1748.5,-220 1748.5,-239"/>
<text text-anchor="middle" x="1704" y="-227" font-family="Helvetica,sans-Serif" font-size="10.00">wx/wupdlock.h</text>
</a>
</g>
</g>
<!-- Node10&#45;&gt;Node55 -->
<g id="edge79" class="edge">
<title>Node10&#45;&gt;Node55</title>
<path fill="none" stroke="#63b8ff" d="M1182.84,-280.65C1271.15,-274.93 1471.16,-260.78 1649.14,-239.15"/>
<polygon fill="#63b8ff" stroke="#63b8ff" points="1649.71,-242.61 1659.21,-237.92 1648.86,-235.66 1649.71,-242.61"/>
</g>
<!-- Node15&#45;&gt;Node2 -->
<g id="edge19" class="edge">
<title>Node15&#45;&gt;Node2</title>
<path fill="none" stroke="#63b8ff" d="M379.14,-219.91C381.83,-207.35 385.28,-183.46 378,-165 363.6,-128.5 328.78,-97.5 306.07,-80.22"/>
<polygon fill="#63b8ff" stroke="#63b8ff" points="307.87,-77.2 297.75,-74.08 303.72,-82.83 307.87,-77.2"/>
</g>
<!-- Node16 -->
<g id="node16" class="node">
<title>Node16</title>
<g id="a_node16"><a xlink:title=" ">
<polygon fill="#e0e0e0" stroke="#999999" points="293.5,-184 214.5,-184 214.5,-165 293.5,-165 293.5,-184"/>
<text text-anchor="middle" x="254" y="-172" font-family="Helvetica,sans-Serif" font-size="10.00">wx/msgdlg.h</text>
</a>
</g>
</g>
<!-- Node15&#45;&gt;Node16 -->
<g id="edge20" class="edge">
<title>Node15&#45;&gt;Node16</title>
<path fill="none" stroke="#63b8ff" d="M357.24,-219.98C337.27,-211.38 306.2,-197.99 283.35,-188.15"/>
<polygon fill="#63b8ff" stroke="#63b8ff" points="284.69,-184.91 274.12,-184.17 281.92,-191.34 284.69,-184.91"/>
</g>
<!-- Node17 -->
<g id="node17" class="node">
<title>Node17</title>
<g id="a_node17"><a xlink:title=" ">
<polygon fill="#e0e0e0" stroke="#999999" points="369,-184 311,-184 311,-165 369,-165 369,-184"/>
<text text-anchor="middle" x="340" y="-172" font-family="Helvetica,sans-Serif" font-size="10.00">wx/log.h</text>
</a>
</g>
</g>
<!-- Node15&#45;&gt;Node17 -->
<g id="edge21" class="edge">
<title>Node15&#45;&gt;Node17</title>
<path fill="none" stroke="#63b8ff" d="M370.89,-219.75C365.72,-212.34 358.15,-201.5 351.81,-192.41"/>
<polygon fill="#63b8ff" stroke="#63b8ff" points="354.59,-190.29 346,-184.09 348.85,-194.29 354.59,-190.29"/>
</g>
<!-- Node18&#45;&gt;Node2 -->
<g id="edge23" class="edge">
<title>Node18&#45;&gt;Node2</title>
<path fill="none" stroke="#63b8ff" d="M885.96,-167.8C822.42,-160.06 707.03,-145.3 609,-129 508.57,-112.3 391.54,-88.21 329.28,-75.02"/>
<polygon fill="#63b8ff" stroke="#63b8ff" points="329.92,-71.57 319.41,-72.92 328.46,-78.42 329.92,-71.57"/>
</g>
<!-- Node18&#45;&gt;Node11 -->
<g id="edge29" class="edge">
<title>Node18&#45;&gt;Node11</title>
<path fill="none" stroke="#63b8ff" d="M982.04,-166.7C986.75,-166.1 991.47,-165.52 996,-165 1168.5,-145.2 1212.84,-151.57 1385,-129 1386.28,-128.83 1387.57,-128.66 1388.88,-128.47"/>
<polygon fill="#63b8ff" stroke="#63b8ff" points="1389.63,-131.9 1399,-126.96 1388.59,-124.98 1389.63,-131.9"/>
</g>
<!-- Node18&#45;&gt;Node14 -->
<g id="edge26" class="edge">
<title>Node18&#45;&gt;Node14</title>
<path fill="none" stroke="#63b8ff" d="M982.34,-169.14C997.59,-167.79 1014.49,-166.31 1030,-165 1226.71,-148.42 1279.11,-152.76 1478.86,-129.05"/>
<polygon fill="#63b8ff" stroke="#63b8ff" points="1479.28,-132.52 1488.79,-127.86 1478.45,-125.57 1479.28,-132.52"/>
</g>
<!-- Node19 -->
<g id="node19" class="node">
<title>Node19</title>
<g id="a_node19"><a xlink:title=" ">
<polygon fill="#e0e0e0" stroke="#999999" points="707,-129 635,-129 635,-110 707,-110 707,-129"/>
<text text-anchor="middle" x="671" y="-117" font-family="Helvetica,sans-Serif" font-size="10.00">wx/colour.h</text>
</a>
</g>
</g>
<!-- Node18&#45;&gt;Node19 -->
<g id="edge24" class="edge">
<title>Node18&#45;&gt;Node19</title>
<path fill="none" stroke="#63b8ff" d="M891.74,-164.98C844.03,-155.37 766.62,-139.77 717.3,-129.83"/>
<polygon fill="#63b8ff" stroke="#63b8ff" points="717.72,-126.34 707.22,-127.8 716.34,-133.21 717.72,-126.34"/>
</g>
<!-- Node20 -->
<g id="node20" class="node">
<title>Node20</title>
<g id="a_node20"><a xlink:title=" ">
<polygon fill="#e0e0e0" stroke="#999999" points="763,-129 725,-129 725,-110 763,-110 763,-129"/>
<text text-anchor="middle" x="744" y="-117" font-family="Helvetica,sans-Serif" font-size="10.00">map</text>
</a>
</g>
</g>
<!-- Node18&#45;&gt;Node20 -->
<g id="edge25" class="edge">
<title>Node18&#45;&gt;Node20</title>
<path fill="none" stroke="#63b8ff" d="M901.96,-164.97C871.21,-156.72 823.23,-143.7 773,-129.23"/>
<polygon fill="#63b8ff" stroke="#63b8ff" points="773.84,-125.83 763.26,-126.42 771.89,-132.56 773.84,-125.83"/>
</g>
<!-- Node21 -->
<g id="node21" class="node">
<title>Node21</title>
<g id="a_node21"><a xlink:title=" ">
<polygon fill="#e0e0e0" stroke="#999999" points="825,-129 781,-129 781,-110 825,-110 825,-129"/>
<text text-anchor="middle" x="803" y="-117" font-family="Helvetica,sans-Serif" font-size="10.00">string</text>
</a>
</g>
</g>
<!-- Node18&#45;&gt;Node21 -->
<g id="edge27" class="edge">
<title>Node18&#45;&gt;Node21</title>
<path fill="none" stroke="#63b8ff" d="M912.95,-164.98C891.59,-156.34 858.3,-142.87 833.94,-133.02"/>
<polygon fill="#63b8ff" stroke="#63b8ff" points="835.01,-129.68 824.43,-129.17 832.39,-136.17 835.01,-129.68"/>
</g>
<!-- Node22 -->
<g id="node22" class="node">
<title>Node22</title>
<g id="a_node22"><a xlink:title=" ">
<polygon fill="#e0e0e0" stroke="#999999" points="900.5,-129 843.5,-129 843.5,-110 900.5,-110 900.5,-129"/>
<text text-anchor="middle" x="872" y="-117" font-family="Helvetica,sans-Serif" font-size="10.00">ostream</text>
</a>
</g>
</g>
<!-- Node18&#45;&gt;Node22 -->
<g id="edge28" class="edge">
<title>Node18&#45;&gt;Node22</title>
<path fill="none" stroke="#63b8ff" d="M924.04,-164.98C914.87,-157.15 901.06,-145.34 889.97,-135.86"/>
<polygon fill="#63b8ff" stroke="#63b8ff" points="892.02,-133.01 882.14,-129.17 887.47,-138.33 892.02,-133.01"/>
</g>
<!-- Node23 -->
<g id="node23" class="node">
<title>Node23</title>
<g id="a_node23"><a xlink:title=" ">
<polygon fill="#e0e0e0" stroke="#999999" points="1322,-74 1260,-74 1260,-55 1322,-55 1322,-74"/>
<text text-anchor="middle" x="1291" y="-62" font-family="Helvetica,sans-Serif" font-size="10.00">wx/font.h</text>
</a>
</g>
</g>
<!-- Node18&#45;&gt;Node23 -->
<g id="edge30" class="edge">
<title>Node18&#45;&gt;Node23</title>
<path fill="none" stroke="#63b8ff" d="M982.05,-166.8C986.76,-166.18 991.47,-165.57 996,-165 1066.57,-156.17 1266.62,-182.04 1314,-129 1325.77,-115.82 1315.71,-96.15 1305.44,-82.2"/>
<polygon fill="#63b8ff" stroke="#63b8ff" points="1308.18,-80.01 1299.22,-74.36 1302.7,-84.37 1308.18,-80.01"/>
</g>
<!-- Node24 -->
<g id="node24" class="node">
<title>Node24</title>
<g id="a_node24"><a xlink:title=" ">
<polygon fill="#e0e0e0" stroke="#999999" points="1001,-129 919,-129 919,-110 1001,-110 1001,-129"/>
<text text-anchor="middle" x="960" y="-117" font-family="Helvetica,sans-Serif" font-size="10.00">wx/settings.h</text>
</a>
</g>
</g>
<!-- Node18&#45;&gt;Node24 -->
<g id="edge31" class="edge">
<title>Node18&#45;&gt;Node24</title>
<path fill="none" stroke="#63b8ff" d="M938.29,-164.75C941.81,-157.57 946.91,-147.18 951.28,-138.27"/>
<polygon fill="#63b8ff" stroke="#63b8ff" points="954.52,-139.61 955.79,-129.09 948.24,-136.53 954.52,-139.61"/>
</g>
<!-- Node18&#45;&gt;Node25 -->
<g id="edge32" class="edge">
<title>Node18&#45;&gt;Node25</title>
<path fill="none" stroke="#63b8ff" d="M885.73,-172.69C809.01,-170.42 663.99,-161.78 626,-129 613.21,-117.97 608.84,-98.71 607.44,-84.29"/>
<polygon fill="#63b8ff" stroke="#63b8ff" points="610.92,-83.79 606.85,-74.01 603.93,-84.2 610.92,-83.79"/>
</g>
<!-- Node26 -->
<g id="node26" class="node">
<title>Node26</title>
<g id="a_node26"><a xlink:title=" ">
<polygon fill="#e0e0e0" stroke="#999999" points="1197.5,-74 1132.5,-74 1132.5,-55 1197.5,-55 1197.5,-74"/>
<text text-anchor="middle" x="1165" y="-62" font-family="Helvetica,sans-Serif" font-size="10.00">functional</text>
</a>
</g>
</g>
<!-- Node18&#45;&gt;Node26 -->
<g id="edge33" class="edge">
<title>Node18&#45;&gt;Node26</title>
<path fill="none" stroke="#63b8ff" d="M982.12,-166.05C1040.88,-156.56 1133.99,-140.04 1146,-129 1158.3,-117.69 1162.76,-98.79 1164.31,-84.54"/>
<polygon fill="#63b8ff" stroke="#63b8ff" points="1167.82,-84.56 1165.04,-74.34 1160.84,-84.07 1167.82,-84.56"/>
</g>
<!-- Node27 -->
<g id="node27" class="node">
<title>Node27</title>
<g id="a_node27"><a xlink:href="FontAttribs_8h_source.html" target="_top" xlink:title=" ">
<polygon fill="#fff0f0" stroke="red" points="1136.5,-129 1057.5,-129 1057.5,-110 1136.5,-110 1136.5,-129"/>
<text text-anchor="middle" x="1097" y="-117" font-family="Helvetica,sans-Serif" font-size="10.00">FontAttribs.h</text>
</a>
</g>
</g>
<!-- Node18&#45;&gt;Node27 -->
<g id="edge34" class="edge">
<title>Node18&#45;&gt;Node27</title>
<path fill="none" stroke="#63b8ff" d="M960.19,-164.98C987.44,-156.13 1030.3,-142.19 1060.78,-132.28"/>
<polygon fill="#63b8ff" stroke="#63b8ff" points="1062.18,-135.5 1070.61,-129.08 1060.01,-128.85 1062.18,-135.5"/>
</g>
<!-- Node34 -->
<g id="node29" class="node">
<title>Node34</title>
<g id="a_node29"><a xlink:href="FontVariantCache_8h.html" target="_top" xlink:title="This file implements the wxFont cache system.">
<polygon fill="#fff0f0" stroke="red" points="1304.5,-129 1193.5,-129 1193.5,-110 1304.5,-110 1304.5,-129"/>
<text text-anchor="middle" x="1249" y="-117" font-family="Helvetica,sans-Serif" font-size="10.00">FontVariantCache.h</text>
</a>
</g>
</g>
<!-- Node18&#45;&gt;Node34 -->
<g id="edge39" class="edge">
<title>Node18&#45;&gt;Node34</title>
<path fill="none" stroke="#63b8ff" d="M982.18,-165.39C1037.5,-156.09 1128.3,-140.81 1188.37,-130.7"/>
<polygon fill="#63b8ff" stroke="#63b8ff" points="1189.19,-134.11 1198.47,-129 1188.03,-127.21 1189.19,-134.11"/>
</g>
<!-- Node18&#45;&gt;Node38 -->
<g id="edge46" class="edge">
<title>Node18&#45;&gt;Node38</title>
<path fill="none" stroke="#63b8ff" d="M982.05,-166.77C986.76,-166.16 991.47,-165.55 996,-165 1144.2,-146.86 1183.88,-159.69 1330,-129 1357.37,-123.25 1362.61,-115.68 1390,-110 1460.88,-95.31 1667.55,-77.81 1768.37,-69.84"/>
<polygon fill="#63b8ff" stroke="#63b8ff" points="1768.67,-73.33 1778.37,-69.06 1768.13,-66.35 1768.67,-73.33"/>
</g>
<!-- Node27&#45;&gt;Node23 -->
<g id="edge35" class="edge">
<title>Node27&#45;&gt;Node23</title>
<path fill="none" stroke="#63b8ff" d="M1128.17,-109.98C1161.26,-100.94 1213.71,-86.62 1250.1,-76.67"/>
<polygon fill="#63b8ff" stroke="#63b8ff" points="1251.18,-80.01 1259.91,-73.99 1249.34,-73.25 1251.18,-80.01"/>
</g>
<!-- Node27&#45;&gt;Node25 -->
<g id="edge37" class="edge">
<title>Node27&#45;&gt;Node25</title>
<path fill="none" stroke="#63b8ff" d="M1057.32,-114.21C963.83,-104.1 730.97,-78.91 642.17,-69.3"/>
<polygon fill="#63b8ff" stroke="#63b8ff" points="642.39,-65.81 632.07,-68.21 641.63,-72.77 642.39,-65.81"/>
</g>
<!-- Node27&#45;&gt;Node26 -->
<g id="edge38" class="edge">
<title>Node27&#45;&gt;Node26</title>
<path fill="none" stroke="#63b8ff" d="M1107.93,-109.98C1118.08,-102.07 1133.42,-90.11 1145.65,-80.58"/>
<polygon fill="#63b8ff" stroke="#63b8ff" points="1148.14,-83.08 1153.88,-74.17 1143.84,-77.56 1148.14,-83.08"/>
</g>
<!-- Node27&#45;&gt;Node32 -->
<g id="edge36" class="edge">
<title>Node27&#45;&gt;Node32</title>
<path fill="none" stroke="#63b8ff" d="M1086.07,-109.98C1075.92,-102.07 1060.58,-90.11 1048.35,-80.58"/>
<polygon fill="#63b8ff" stroke="#63b8ff" points="1050.16,-77.56 1040.12,-74.17 1045.86,-83.08 1050.16,-77.56"/>
</g>
<!-- Node34&#45;&gt;Node2 -->
<g id="edge40" class="edge">
<title>Node34&#45;&gt;Node2</title>
<path fill="none" stroke="#63b8ff" d="M1193.43,-113.6C1178.07,-112.33 1161.4,-111.03 1146,-110 833.33,-89.02 456.21,-72.59 329.18,-67.3"/>
<polygon fill="#63b8ff" stroke="#63b8ff" points="329.2,-63.8 319.07,-66.88 328.91,-70.8 329.2,-63.8"/>
</g>
<!-- Node34&#45;&gt;Node23 -->
<g id="edge42" class="edge">
<title>Node34&#45;&gt;Node23</title>
<path fill="none" stroke="#63b8ff" d="M1255.94,-109.75C1261.87,-102.26 1270.57,-91.28 1277.82,-82.13"/>
<polygon fill="#63b8ff" stroke="#63b8ff" points="1280.73,-84.1 1284.19,-74.09 1275.24,-79.75 1280.73,-84.1"/>
</g>
<!-- Node34&#45;&gt;Node26 -->
<g id="edge43" class="edge">
<title>Node34&#45;&gt;Node26</title>
<path fill="none" stroke="#63b8ff" d="M1235.5,-109.98C1222.6,-101.84 1202.9,-89.41 1187.6,-79.76"/>
<polygon fill="#63b8ff" stroke="#63b8ff" points="1189.07,-76.55 1178.74,-74.17 1185.33,-82.47 1189.07,-76.55"/>
</g>
<!-- Node34&#45;&gt;Node35 -->
<g id="edge41" class="edge">
<title>Node34&#45;&gt;Node35</title>
<path fill="none" stroke="#63b8ff" d="M1304.61,-111.02C1385.32,-100.16 1532.94,-80.31 1603.46,-70.82"/>
<polygon fill="#63b8ff" stroke="#63b8ff" points="1604.24,-74.25 1613.69,-69.44 1603.31,-67.31 1604.24,-74.25"/>
</g>
<!-- Node34&#45;&gt;Node36 -->
<g id="edge44" class="edge">
<title>Node34&#45;&gt;Node36</title>
<path fill="none" stroke="#63b8ff" d="M1224.58,-109.98C1196.77,-100.29 1151.53,-84.51 1123.06,-74.59"/>
<polygon fill="#63b8ff" stroke="#63b8ff" points="1123.99,-71.21 1113.4,-71.22 1121.69,-77.81 1123.99,-71.21"/>
</g>
<!-- Node34&#45;&gt;Node38 -->
<g id="edge45" class="edge">
<title>Node34&#45;&gt;Node38</title>
<path fill="none" stroke="#63b8ff" d="M1304.75,-113.37C1414.54,-103.27 1657.66,-80.9 1768.25,-70.72"/>
<polygon fill="#63b8ff" stroke="#63b8ff" points="1768.57,-74.21 1778.21,-69.81 1767.93,-67.24 1768.57,-74.21"/>
</g>
<!-- Node39&#45;&gt;Node23 -->
<g id="edge49" class="edge">
<title>Node39&#45;&gt;Node23</title>
<path fill="none" stroke="#63b8ff" d="M1733.51,-164.91C1703.31,-151.23 1641.2,-124.54 1586,-110 1497.12,-86.59 1389.71,-74.25 1332.17,-68.89"/>
<polygon fill="#63b8ff" stroke="#63b8ff" points="1332.3,-65.38 1322.02,-67.96 1331.66,-72.35 1332.3,-65.38"/>
</g>
<!-- Node39&#45;&gt;Node38 -->
<g id="edge51" class="edge">
<title>Node39&#45;&gt;Node38</title>
<path fill="none" stroke="#63b8ff" d="M1766.92,-164.74C1779.11,-156.85 1795.92,-144.18 1806,-129 1814.95,-115.52 1819.8,-97.69 1822.36,-84.35"/>
<polygon fill="#63b8ff" stroke="#63b8ff" points="1825.82,-84.84 1824,-74.4 1818.92,-83.7 1825.82,-84.84"/>
</g>
<!-- Node40 -->
<g id="node34" class="node">
<title>Node40</title>
<g id="a_node34"><a xlink:title=" ">
<polygon fill="#e0e0e0" stroke="#999999" points="1796.5,-129 1709.5,-129 1709.5,-110 1796.5,-110 1796.5,-129"/>
<text text-anchor="middle" x="1753" y="-117" font-family="Helvetica,sans-Serif" font-size="10.00">wx/confbase.h</text>
</a>
</g>
</g>
<!-- Node39&#45;&gt;Node40 -->
<g id="edge48" class="edge">
<title>Node39&#45;&gt;Node40</title>
<path fill="none" stroke="#63b8ff" d="M1752.17,-164.75C1752.3,-157.8 1752.48,-147.85 1752.65,-139.13"/>
<polygon fill="#63b8ff" stroke="#63b8ff" points="1756.15,-139.15 1752.84,-129.09 1749.15,-139.02 1756.15,-139.15"/>
</g>
<!-- Node41 -->
<g id="node35" class="node">
<title>Node41</title>
<g id="a_node35"><a xlink:title=" ">
<polygon fill="#e0e0e0" stroke="#999999" points="1924.5,-129 1853.5,-129 1853.5,-110 1924.5,-110 1924.5,-129"/>
<text text-anchor="middle" x="1889" y="-117" font-family="Helvetica,sans-Serif" font-size="10.00">wx/string.h</text>
</a>
</g>
</g>
<!-- Node39&#45;&gt;Node41 -->
<g id="edge50" class="edge">
<title>Node39&#45;&gt;Node41</title>
<path fill="none" stroke="#63b8ff" d="M1774.01,-164.98C1796.45,-156.3 1831.48,-142.75 1856.99,-132.88"/>
<polygon fill="#63b8ff" stroke="#63b8ff" points="1858.52,-136.04 1866.59,-129.17 1856,-129.51 1858.52,-136.04"/>
</g>
<!-- Node42&#45;&gt;Node14 -->
<g id="edge54" class="edge">
<title>Node42&#45;&gt;Node14</title>
<path fill="none" stroke="#63b8ff" d="M1842.71,-164.98C1772.18,-154.85 1655.41,-138.08 1587.2,-128.28"/>
<polygon fill="#63b8ff" stroke="#63b8ff" points="1587.48,-124.79 1577.09,-126.83 1586.49,-131.72 1587.48,-124.79"/>
</g>
<!-- Node42&#45;&gt;Node38 -->
<g id="edge55" class="edge">
<title>Node42&#45;&gt;Node38</title>
<path fill="none" stroke="#63b8ff" d="M1912.06,-164.91C1925.54,-152.34 1946.39,-128.44 1934,-110 1922,-92.14 1901.44,-81.44 1881.38,-75.04"/>
<polygon fill="#63b8ff" stroke="#63b8ff" points="1882.2,-71.63 1871.62,-72.23 1880.26,-78.36 1882.2,-71.63"/>
</g>
<!-- Node42&#45;&gt;Node41 -->
<g id="edge53" class="edge">
<title>Node42&#45;&gt;Node41</title>
<path fill="none" stroke="#63b8ff" d="M1899.85,-164.75C1898.13,-157.72 1895.65,-147.62 1893.5,-138.84"/>
<polygon fill="#63b8ff" stroke="#63b8ff" points="1896.89,-137.97 1891.11,-129.09 1890.09,-139.63 1896.89,-137.97"/>
</g>
<!-- Node43&#45;&gt;Node32 -->
<g id="edge60" class="edge">
<title>Node43&#45;&gt;Node32</title>
<path fill="none" stroke="#63b8ff" d="M1245.07,-219.9C1192.62,-202.03 1076.59,-160 1049,-129 1038.07,-116.72 1033.12,-98.5 1030.87,-84.71"/>
<polygon fill="#63b8ff" stroke="#63b8ff" points="1034.29,-83.88 1029.54,-74.41 1027.34,-84.78 1034.29,-83.88"/>
</g>
<!-- Node43&#45;&gt;Node35 -->
<g id="edge63" class="edge">
<title>Node43&#45;&gt;Node35</title>
<path fill="none" stroke="#63b8ff" d="M1320.2,-220.45C1376.72,-210.93 1465.79,-194.98 1498,-184 1515.87,-177.91 1518.44,-171.94 1536,-165 1588.18,-144.38 1623.46,-173.98 1657,-129 1666.88,-115.75 1660.88,-96.88 1653.93,-83.15"/>
<polygon fill="#63b8ff" stroke="#63b8ff" points="1656.86,-81.23 1648.91,-74.22 1650.76,-84.65 1656.86,-81.23"/>
</g>
<!-- Node44 -->
<g id="node38" class="node">
<title>Node44</title>
<g id="a_node38"><a xlink:title=" ">
<polygon fill="#e0e0e0" stroke="#999999" points="1292,-184 1222,-184 1222,-165 1292,-165 1292,-184"/>
<text text-anchor="middle" x="1257" y="-172" font-family="Helvetica,sans-Serif" font-size="10.00">wx/brush.h</text>
</a>
</g>
</g>
<!-- Node43&#45;&gt;Node44 -->
<g id="edge57" class="edge">
<title>Node43&#45;&gt;Node44</title>
<path fill="none" stroke="#63b8ff" d="M1268.69,-219.75C1266.83,-212.72 1264.16,-202.62 1261.85,-193.84"/>
<polygon fill="#63b8ff" stroke="#63b8ff" points="1265.21,-192.86 1259.27,-184.09 1258.44,-194.65 1265.21,-192.86"/>
</g>
<!-- Node45 -->
<g id="node39" class="node">
<title>Node45</title>
<g id="a_node39"><a xlink:title=" ">
<polygon fill="#e0e0e0" stroke="#999999" points="1391.5,-184 1310.5,-184 1310.5,-165 1391.5,-165 1391.5,-184"/>
<text text-anchor="middle" x="1351" y="-172" font-family="Helvetica,sans-Serif" font-size="10.00">wx/dcclient.h</text>
</a>
</g>
</g>
<!-- Node43&#45;&gt;Node45 -->
<g id="edge58" class="edge">
<title>Node43&#45;&gt;Node45</title>
<path fill="none" stroke="#63b8ff" d="M1283.85,-219.98C1296.14,-211.84 1314.91,-199.41 1329.48,-189.76"/>
<polygon fill="#63b8ff" stroke="#63b8ff" points="1331.51,-192.61 1337.91,-184.17 1327.64,-186.78 1331.51,-192.61"/>
</g>
<!-- Node46 -->
<g id="node40" class="node">
<title>Node46</title>
<g id="a_node40"><a xlink:title=" ">
<polygon fill="#e0e0e0" stroke="#999999" points="1488.5,-184 1409.5,-184 1409.5,-165 1488.5,-165 1488.5,-184"/>
<text text-anchor="middle" x="1449" y="-172" font-family="Helvetica,sans-Serif" font-size="10.00">wx/gdicmn.h</text>
</a>
</g>
</g>
<!-- Node43&#45;&gt;Node46 -->
<g id="edge59" class="edge">
<title>Node43&#45;&gt;Node46</title>
<path fill="none" stroke="#63b8ff" d="M1299.6,-219.98C1329.61,-211.05 1376.98,-196.94 1410.32,-187.02"/>
<polygon fill="#63b8ff" stroke="#63b8ff" points="1411.59,-190.29 1420.18,-184.08 1409.59,-183.58 1411.59,-190.29"/>
</g>
<!-- Node43&#45;&gt;Node48 -->
<g id="edge61" class="edge">
<title>Node43&#45;&gt;Node48</title>
<path fill="none" stroke="#63b8ff" d="M1320.48,-220.71C1372.88,-212.31 1457.95,-198.2 1531,-184 1532.26,-183.75 1533.55,-183.5 1534.84,-183.24"/>
<polygon fill="#63b8ff" stroke="#63b8ff" points="1535.78,-186.62 1544.86,-181.15 1534.36,-179.77 1535.78,-186.62"/>
</g>
<!-- Node43&#45;&gt;Node49 -->
<g id="edge62" class="edge">
<title>Node43&#45;&gt;Node49</title>
<path fill="none" stroke="#63b8ff" d="M1320.09,-223.68C1383.31,-217.09 1496.76,-203.97 1602.9,-184.02"/>
<polygon fill="#63b8ff" stroke="#63b8ff" points="1603.65,-187.44 1612.82,-182.13 1602.34,-180.56 1603.65,-187.44"/>
</g>
<!-- Node43&#45;&gt;Node50 -->
<g id="edge64" class="edge">
<title>Node43&#45;&gt;Node50</title>
<path fill="none" stroke="#63b8ff" d="M1237.42,-219.98C1198.44,-210.1 1134.53,-193.89 1095.56,-184.01"/>
<polygon fill="#63b8ff" stroke="#63b8ff" points="1096.3,-180.59 1085.75,-181.52 1094.58,-187.37 1096.3,-180.59"/>
</g>
<!-- Node51&#45;&gt;Node18 -->
<g id="edge66" class="edge">
<title>Node51&#45;&gt;Node18</title>
<path fill="none" stroke="#63b8ff" d="M1041.43,-219.98C1020.57,-211.34 988.03,-197.87 964.23,-188.02"/>
<polygon fill="#63b8ff" stroke="#63b8ff" points="965.52,-184.76 954.94,-184.17 962.84,-191.23 965.52,-184.76"/>
</g>
<!-- Node51&#45;&gt;Node50 -->
<g id="edge67" class="edge">
<title>Node51&#45;&gt;Node50</title>
<path fill="none" stroke="#63b8ff" d="M1062,-219.75C1062,-212.8 1062,-202.85 1062,-194.13"/>
<polygon fill="#63b8ff" stroke="#63b8ff" points="1065.5,-194.09 1062,-184.09 1058.5,-194.09 1065.5,-194.09"/>
</g>
</g>
</svg>
