<?xml version="1.0" encoding="UTF-8" standalone="no"?>
<!DOCTYPE svg PUBLIC "-//W3C//DTD SVG 1.1//EN"
 "http://www.w3.org/Graphics/SVG/1.1/DTD/svg11.dtd">
<!-- Generated by graphviz version 2.43.0 (0)
 -->
<!-- Title: src/wizards/CsvWiz.h Pages: 1 -->
<!--zoomable 412 -->
<svg id="main" version="1.1" xmlns="http://www.w3.org/2000/svg" xmlns:xlink="http://www.w3.org/1999/xlink" xml:space="preserve" onload="init(evt)">
<style type="text/css"><![CDATA[
.edge:hover path { stroke: red; }
.edge:hover polygon { stroke: red; fill: red; }
]]></style>
<script type="text/javascript"><![CDATA[
var edges = document.getElementsByTagName('g');
if (edges && edges.length) {
  for (var i=0;i<edges.length;i++) {
    if (edges[i].id.substr(0,4)=='edge') {
      edges[i].setAttribute('class','edge');
    }
  }
}
]]></script>
        <defs>
                <circle id="rim" cx="0" cy="0" r="7"/>
                <circle id="rim2" cx="0" cy="0" r="3.5"/>
                <g id="zoomPlus">
                        <use xlink:href="#rim" fill="#404040">
                                <set attributeName="fill" to="#808080" begin="zoomplus.mouseover" end="zoomplus.mouseout"/>
                        </use>
                        <path d="M-4,0h8M0,-4v8" fill="none" stroke="white" stroke-width="1.5" pointer-events="none"/>
                </g>
                <g id="zoomMin">
                        <use xlink:href="#rim" fill="#404040">
                                <set attributeName="fill" to="#808080" begin="zoomminus.mouseover" end="zoomminus.mouseout"/>
                        </use>
                        <path d="M-4,0h8" fill="none" stroke="white" stroke-width="1.5" pointer-events="none"/>
                </g>
                <g id="dirArrow">
                        <path fill="none" stroke="white" stroke-width="1.5" d="M0,-3.0v7 M-2.5,-0.5L0,-3.0L2.5,-0.5"/>
                </g>
               <g id="resetDef">
                       <use xlink:href="#rim2" fill="#404040">
                               <set attributeName="fill" to="#808080" begin="reset.mouseover" end="reset.mouseout"/>
                       </use>
               </g>
        </defs>

<script type="text/javascript">
var viewWidth = 1766;
var viewHeight = 412;
var sectionId = 'dynsection-0';
</script>
<script xlink:href="svgpan.js"/>
<svg id="graph" class="graph">
<g id="viewport">
<title>src/wizards/CsvWiz.h</title>
<!-- Node1 -->
<g id="node1" class="node">
<title>Node1</title>
<g id="a_node1"><a xlink:title="This file declares all the wizards the draw sidepane needs.">
<polygon fill="#999999" stroke="#666666" points="1334.5,-404 1215.5,-404 1215.5,-385 1334.5,-385 1334.5,-404"/>
<text text-anchor="middle" x="1275" y="-392" font-family="Helvetica,sans-Serif" font-size="10.00">src/wizards/CsvWiz.h</text>
</a>
</g>
</g>
<!-- Node2 -->
<g id="node2" class="node">
<title>Node2</title>
<g id="a_node2"><a xlink:href="precomp_8h_source.html" target="_top" xlink:title=" ">
<polygon fill="white" stroke="#666666" points="1462,-74 1394,-74 1394,-55 1462,-55 1462,-74"/>
<text text-anchor="middle" x="1428" y="-62" font-family="Helvetica,sans-Serif" font-size="10.00">precomp.h</text>
</a>
</g>
</g>
<!-- Node1&#45;&gt;Node2 -->
<g id="edge1" class="edge">
<title>Node1&#45;&gt;Node2</title>
<path fill="none" stroke="#63b8ff" d="M1327.34,-384.99C1410.62,-369.94 1564,-335.45 1564,-285.5 1564,-285.5 1564,-285.5 1564,-173.5 1564,-123.36 1506.62,-92.79 1466.4,-77.52"/>
<polygon fill="#63b8ff" stroke="#63b8ff" points="1467.44,-74.18 1456.84,-74.05 1465.05,-80.76 1467.44,-74.18"/>
</g>
<!-- Node4 -->
<g id="node4" class="node">
<title>Node4</title>
<g id="a_node4"><a xlink:title=" ">
<polygon fill="#e0e0e0" stroke="#999999" points="159.5,-239 102.5,-239 102.5,-220 159.5,-220 159.5,-239"/>
<text text-anchor="middle" x="131" y="-227" font-family="Helvetica,sans-Serif" font-size="10.00">wx/wx.h</text>
</a>
</g>
</g>
<!-- Node1&#45;&gt;Node4 -->
<g id="edge3" class="edge">
<title>Node1&#45;&gt;Node4</title>
<path fill="none" stroke="#63b8ff" d="M1215.41,-389.36C1073.72,-378.94 705.93,-348.49 403,-294 319.11,-278.91 222.18,-254.6 169.67,-240.85"/>
<polygon fill="#63b8ff" stroke="#63b8ff" points="170.34,-237.41 159.78,-238.25 168.56,-244.18 170.34,-237.41"/>
</g>
<!-- Node5 -->
<g id="node5" class="node">
<title>Node5</title>
<g id="a_node5"><a xlink:title=" ">
<polygon fill="#e0e0e0" stroke="#999999" points="1059,-349 985,-349 985,-330 1059,-330 1059,-349"/>
<text text-anchor="middle" x="1022" y="-337" font-family="Helvetica,sans-Serif" font-size="10.00">wx/button.h</text>
</a>
</g>
</g>
<!-- Node1&#45;&gt;Node5 -->
<g id="edge4" class="edge">
<title>Node1&#45;&gt;Node5</title>
<path fill="none" stroke="#63b8ff" d="M1234.35,-384.98C1189.32,-375.55 1116.82,-360.36 1069.29,-350.41"/>
<polygon fill="#63b8ff" stroke="#63b8ff" points="1069.76,-346.93 1059.25,-348.3 1068.32,-353.78 1069.76,-346.93"/>
</g>
<!-- Node6 -->
<g id="node6" class="node">
<title>Node6</title>
<g id="a_node6"><a xlink:title=" ">
<polygon fill="#e0e0e0" stroke="#999999" points="1160.5,-349 1077.5,-349 1077.5,-330 1160.5,-330 1160.5,-349"/>
<text text-anchor="middle" x="1119" y="-337" font-family="Helvetica,sans-Serif" font-size="10.00">wx/radiobut.h</text>
</a>
</g>
</g>
<!-- Node1&#45;&gt;Node6 -->
<g id="edge5" class="edge">
<title>Node1&#45;&gt;Node6</title>
<path fill="none" stroke="#63b8ff" d="M1249.94,-384.98C1223.97,-376.16 1183.19,-362.31 1154.04,-352.41"/>
<polygon fill="#63b8ff" stroke="#63b8ff" points="1154.85,-348.99 1144.26,-349.08 1152.6,-355.61 1154.85,-348.99"/>
</g>
<!-- Node7 -->
<g id="node7" class="node">
<title>Node7</title>
<g id="a_node7"><a xlink:title=" ">
<polygon fill="#e0e0e0" stroke="#999999" points="1255,-349 1179,-349 1179,-330 1255,-330 1255,-349"/>
<text text-anchor="middle" x="1217" y="-337" font-family="Helvetica,sans-Serif" font-size="10.00">wx/persist.h</text>
</a>
</g>
</g>
<!-- Node1&#45;&gt;Node7 -->
<g id="edge6" class="edge">
<title>Node1&#45;&gt;Node7</title>
<path fill="none" stroke="#63b8ff" d="M1265.68,-384.98C1257.19,-377.23 1244.44,-365.58 1234.12,-356.14"/>
<polygon fill="#63b8ff" stroke="#63b8ff" points="1236.23,-353.33 1226.49,-349.17 1231.51,-358.5 1236.23,-353.33"/>
</g>
<!-- Node8 -->
<g id="node8" class="node">
<title>Node8</title>
<g id="a_node8"><a xlink:title=" ">
<polygon fill="#e0e0e0" stroke="#999999" points="1392.5,-349 1273.5,-349 1273.5,-330 1392.5,-330 1392.5,-349"/>
<text text-anchor="middle" x="1333" y="-337" font-family="Helvetica,sans-Serif" font-size="10.00">wx/persist/toplevel.h</text>
</a>
</g>
</g>
<!-- Node1&#45;&gt;Node8 -->
<g id="edge7" class="edge">
<title>Node1&#45;&gt;Node8</title>
<path fill="none" stroke="#63b8ff" d="M1284.32,-384.98C1292.81,-377.23 1305.56,-365.58 1315.88,-356.14"/>
<polygon fill="#63b8ff" stroke="#63b8ff" points="1318.49,-358.5 1323.51,-349.17 1313.77,-353.33 1318.49,-358.5"/>
</g>
<!-- Node9 -->
<g id="node9" class="node">
<title>Node9</title>
<g id="a_node9"><a xlink:href="BTextCtrl_8h_source.html" target="_top" xlink:title=" ">
<polygon fill="white" stroke="#666666" points="914,-349 844,-349 844,-330 914,-330 914,-349"/>
<text text-anchor="middle" x="879" y="-337" font-family="Helvetica,sans-Serif" font-size="10.00">BTextCtrl.h</text>
</a>
</g>
</g>
<!-- Node1&#45;&gt;Node9 -->
<g id="edge8" class="edge">
<title>Node1&#45;&gt;Node9</title>
<path fill="none" stroke="#63b8ff" d="M1215.29,-385.51C1135.48,-374.83 995.82,-356.14 924.19,-346.55"/>
<polygon fill="#63b8ff" stroke="#63b8ff" points="924.51,-343.06 914.13,-345.2 923.58,-350 924.51,-343.06"/>
</g>
<!-- Node10 -->
<g id="node10" class="node">
<title>Node10</title>
<g id="a_node10"><a xlink:href="Configuration_8h_source.html" target="_top" xlink:title=" ">
<polygon fill="white" stroke="#666666" points="872.5,-294 781.5,-294 781.5,-275 872.5,-275 872.5,-294"/>
<text text-anchor="middle" x="827" y="-282" font-family="Helvetica,sans-Serif" font-size="10.00">Configuration.h</text>
</a>
</g>
</g>
<!-- Node1&#45;&gt;Node10 -->
<g id="edge72" class="edge">
<title>Node1&#45;&gt;Node10</title>
<path fill="none" stroke="#63b8ff" d="M1329.11,-384.93C1374.15,-375.6 1427.04,-358.14 1401,-330 1366.3,-292.51 1021.01,-286.52 883.28,-285.63"/>
<polygon fill="#63b8ff" stroke="#63b8ff" points="882.97,-282.12 872.95,-285.57 882.93,-289.12 882.97,-282.12"/>
</g>
<!-- Node47 -->
<g id="node47" class="node">
<title>Node47</title>
<g id="a_node47"><a xlink:title=" ">
<polygon fill="#e0e0e0" stroke="#999999" points="1665.5,-349 1592.5,-349 1592.5,-330 1665.5,-330 1665.5,-349"/>
<text text-anchor="middle" x="1629" y="-337" font-family="Helvetica,sans-Serif" font-size="10.00">wx/filedlg.h</text>
</a>
</g>
</g>
<!-- Node1&#45;&gt;Node47 -->
<g id="edge70" class="edge">
<title>Node1&#45;&gt;Node47</title>
<path fill="none" stroke="#63b8ff" d="M1334.56,-385.1C1395.7,-376.4 1493.56,-362.24 1578,-349 1579.3,-348.8 1580.61,-348.59 1581.94,-348.38"/>
<polygon fill="#63b8ff" stroke="#63b8ff" points="1582.93,-351.76 1592.24,-346.71 1581.81,-344.85 1582.93,-351.76"/>
</g>
<!-- Node48 -->
<g id="node48" class="node">
<title>Node48</title>
<g id="a_node48"><a xlink:title=" ">
<polygon fill="#e0e0e0" stroke="#999999" points="1758,-349 1684,-349 1684,-330 1758,-330 1758,-349"/>
<text text-anchor="middle" x="1721" y="-337" font-family="Helvetica,sans-Serif" font-size="10.00">wx/choice.h</text>
</a>
</g>
</g>
<!-- Node1&#45;&gt;Node48 -->
<g id="edge71" class="edge">
<title>Node1&#45;&gt;Node48</title>
<path fill="none" stroke="#63b8ff" d="M1334.65,-388.12C1410.81,-380.97 1546.86,-367.24 1673.93,-348.9"/>
<polygon fill="#63b8ff" stroke="#63b8ff" points="1674.45,-352.37 1683.84,-347.46 1673.44,-345.44 1674.45,-352.37"/>
</g>
<!-- Node3 -->
<g id="node3" class="node">
<title>Node3</title>
<g id="a_node3"><a xlink:title=" ">
<polygon fill="#e0e0e0" stroke="#999999" points="1468.5,-19 1387.5,-19 1387.5,0 1468.5,0 1468.5,-19"/>
<text text-anchor="middle" x="1428" y="-7" font-family="Helvetica,sans-Serif" font-size="10.00">BuildConfig.h</text>
</a>
</g>
</g>
<!-- Node2&#45;&gt;Node3 -->
<g id="edge2" class="edge">
<title>Node2&#45;&gt;Node3</title>
<path fill="none" stroke="#63b8ff" d="M1428,-54.75C1428,-47.8 1428,-37.85 1428,-29.13"/>
<polygon fill="#63b8ff" stroke="#63b8ff" points="1431.5,-29.09 1428,-19.09 1424.5,-29.09 1431.5,-29.09"/>
</g>
<!-- Node9&#45;&gt;Node2 -->
<g id="edge9" class="edge">
<title>Node9&#45;&gt;Node2</title>
<path fill="none" stroke="#63b8ff" d="M914.25,-334.5C1049.26,-318.94 1526,-261.78 1526,-230.5 1526,-230.5 1526,-230.5 1526,-173.5 1526,-130.55 1482.97,-97.1 1453.93,-79.42"/>
<polygon fill="#63b8ff" stroke="#63b8ff" points="1455.47,-76.26 1445.07,-74.24 1451.94,-82.3 1455.47,-76.26"/>
</g>
<!-- Node9&#45;&gt;Node4 -->
<g id="edge10" class="edge">
<title>Node9&#45;&gt;Node4</title>
<path fill="none" stroke="#63b8ff" d="M843.68,-334.21C740.38,-321.52 429.94,-282.32 174,-239 172.55,-238.75 171.07,-238.5 169.57,-238.23"/>
<polygon fill="#63b8ff" stroke="#63b8ff" points="170.11,-234.77 159.64,-236.39 168.84,-241.65 170.11,-234.77"/>
</g>
<!-- Node9&#45;&gt;Node10 -->
<g id="edge11" class="edge">
<title>Node9&#45;&gt;Node10</title>
<path fill="none" stroke="#63b8ff" d="M870.41,-329.75C862.84,-322.03 851.62,-310.6 842.49,-301.28"/>
<polygon fill="#63b8ff" stroke="#63b8ff" points="844.93,-298.78 835.43,-294.09 839.93,-303.68 844.93,-298.78"/>
</g>
<!-- Node10&#45;&gt;Node2 -->
<g id="edge12" class="edge">
<title>Node10&#45;&gt;Node2</title>
<path fill="none" stroke="#63b8ff" d="M872.88,-283.44C1007.25,-282.82 1392.96,-277.65 1433,-239 1475.05,-198.41 1450.52,-119.75 1436.15,-83.99"/>
<polygon fill="#63b8ff" stroke="#63b8ff" points="1439.21,-82.22 1432.11,-74.36 1432.75,-84.94 1439.21,-82.22"/>
</g>
<!-- Node10&#45;&gt;Node4 -->
<g id="edge13" class="edge">
<title>Node10&#45;&gt;Node4</title>
<path fill="none" stroke="#63b8ff" d="M781.28,-282.38C674.53,-279.34 400.7,-269.01 174,-239 172.54,-238.81 171.05,-238.59 169.55,-238.37"/>
<polygon fill="#63b8ff" stroke="#63b8ff" points="170.04,-234.9 159.6,-236.68 168.87,-241.8 170.04,-234.9"/>
</g>
<!-- Node11 -->
<g id="node11" class="node">
<title>Node11</title>
<g id="a_node11"><a xlink:title=" ">
<polygon fill="#e0e0e0" stroke="#999999" points="1064,-129 992,-129 992,-110 1064,-110 1064,-129"/>
<text text-anchor="middle" x="1028" y="-117" font-family="Helvetica,sans-Serif" font-size="10.00">wx/config.h</text>
</a>
</g>
</g>
<!-- Node10&#45;&gt;Node11 -->
<g id="edge14" class="edge">
<title>Node10&#45;&gt;Node11</title>
<path fill="none" stroke="#63b8ff" d="M872.81,-278.59C921.98,-272.33 995.53,-259.75 1014,-239 1038.48,-211.5 1035.72,-165.08 1031.74,-139.26"/>
<polygon fill="#63b8ff" stroke="#63b8ff" points="1035.16,-138.51 1029.98,-129.27 1028.27,-139.73 1035.16,-138.51"/>
</g>
<!-- Node12 -->
<g id="node12" class="node">
<title>Node12</title>
<g id="a_node12"><a xlink:title=" ">
<polygon fill="#e0e0e0" stroke="#999999" points="1005.5,-239 928.5,-239 928.5,-220 1005.5,-220 1005.5,-239"/>
<text text-anchor="middle" x="967" y="-227" font-family="Helvetica,sans-Serif" font-size="10.00">wx/display.h</text>
</a>
</g>
</g>
<!-- Node10&#45;&gt;Node12 -->
<g id="edge15" class="edge">
<title>Node10&#45;&gt;Node12</title>
<path fill="none" stroke="#63b8ff" d="M849.49,-274.98C872.52,-266.27 908.54,-252.63 934.63,-242.75"/>
<polygon fill="#63b8ff" stroke="#63b8ff" points="935.98,-245.98 944.1,-239.17 933.51,-239.44 935.98,-245.98"/>
</g>
<!-- Node13 -->
<g id="node13" class="node">
<title>Node13</title>
<g id="a_node13"><a xlink:title=" ">
<polygon fill="#e0e0e0" stroke="#999999" points="1152,-239 1062,-239 1062,-220 1152,-220 1152,-239"/>
<text text-anchor="middle" x="1107" y="-227" font-family="Helvetica,sans-Serif" font-size="10.00">wx/fontenum.h</text>
</a>
</g>
</g>
<!-- Node10&#45;&gt;Node13 -->
<g id="edge16" class="edge">
<title>Node10&#45;&gt;Node13</title>
<path fill="none" stroke="#63b8ff" d="M871.99,-274.98C920.93,-265.72 999.2,-250.9 1051.82,-240.94"/>
<polygon fill="#63b8ff" stroke="#63b8ff" points="1052.49,-244.38 1061.66,-239.08 1051.18,-237.5 1052.49,-244.38"/>
</g>
<!-- Node14 -->
<g id="node14" class="node">
<title>Node14</title>
<g id="a_node14"><a xlink:title=" ">
<polygon fill="#e0e0e0" stroke="#999999" points="1170,-129 1082,-129 1082,-110 1170,-110 1170,-129"/>
<text text-anchor="middle" x="1126" y="-117" font-family="Helvetica,sans-Serif" font-size="10.00">wx/hashmap.h</text>
</a>
</g>
</g>
<!-- Node10&#45;&gt;Node14 -->
<g id="edge17" class="edge">
<title>Node10&#45;&gt;Node14</title>
<path fill="none" stroke="#63b8ff" d="M872.77,-283.38C1001.21,-282.57 1357.96,-276.91 1393,-239 1459.1,-167.5 1275.85,-136.59 1180.11,-125.61"/>
<polygon fill="#63b8ff" stroke="#63b8ff" points="1180.33,-122.11 1170,-124.49 1179.56,-129.07 1180.33,-122.11"/>
</g>
<!-- Node15 -->
<g id="node15" class="node">
<title>Node15</title>
<g id="a_node15"><a xlink:href="LoggingMessageDialog_8h.html" target="_top" xlink:title="This file declares a message dialog that sends its contents to the log message sink.">
<polygon fill="white" stroke="#666666" points="1384.5,-239 1207.5,-239 1207.5,-220 1384.5,-220 1384.5,-239"/>
<text text-anchor="middle" x="1296" y="-227" font-family="Helvetica,sans-Serif" font-size="10.00">dialogs/LoggingMessageDialog.h</text>
</a>
</g>
</g>
<!-- Node10&#45;&gt;Node15 -->
<g id="edge18" class="edge">
<title>Node10&#45;&gt;Node15</title>
<path fill="none" stroke="#63b8ff" d="M872.82,-278.32C950.93,-269.5 1111.01,-251.4 1210.35,-240.18"/>
<polygon fill="#63b8ff" stroke="#63b8ff" points="1210.82,-243.65 1220.36,-239.05 1210.03,-236.69 1210.82,-243.65"/>
</g>
<!-- Node18 -->
<g id="node18" class="node">
<title>Node18</title>
<g id="a_node18"><a xlink:href="TextStyle_8h.html" target="_top" xlink:title="This file declares everything needed for the text style system used to style all the elements on the ...">
<polygon fill="white" stroke="#666666" points="617,-184 521,-184 521,-165 617,-165 617,-184"/>
<text text-anchor="middle" x="569" y="-172" font-family="Helvetica,sans-Serif" font-size="10.00">cells/TextStyle.h</text>
</a>
</g>
</g>
<!-- Node10&#45;&gt;Node18 -->
<g id="edge22" class="edge">
<title>Node10&#45;&gt;Node18</title>
<path fill="none" stroke="#63b8ff" d="M781.23,-282.61C668.29,-279.94 383.36,-270.16 355,-239 308.19,-187.57 432.15,-177.04 510.47,-175.34"/>
<polygon fill="#63b8ff" stroke="#63b8ff" points="510.79,-178.84 520.73,-175.16 510.67,-171.84 510.79,-178.84"/>
</g>
<!-- Node25 -->
<g id="node25" class="node">
<title>Node25</title>
<g id="a_node25"><a xlink:title=" ">
<polygon fill="#e0e0e0" stroke="#999999" points="50,-74 0,-74 0,-55 50,-55 50,-74"/>
<text text-anchor="middle" x="25" y="-62" font-family="Helvetica,sans-Serif" font-size="10.00">cstdint</text>
</a>
</g>
</g>
<!-- Node10&#45;&gt;Node25 -->
<g id="edge58" class="edge">
<title>Node10&#45;&gt;Node25</title>
<path fill="none" stroke="#63b8ff" d="M781.09,-282.42C667.54,-279.32 376.06,-268.64 284,-239 180.55,-205.69 80.03,-117.88 41.5,-81.57"/>
<polygon fill="#63b8ff" stroke="#63b8ff" points="43.49,-78.64 33.84,-74.26 38.66,-83.7 43.49,-78.64"/>
</g>
<!-- Node32 -->
<g id="node32" class="node">
<title>Node32</title>
<g id="a_node32"><a xlink:title=" ">
<polygon fill="#e0e0e0" stroke="#999999" points="442,-74 378,-74 378,-55 442,-55 442,-74"/>
<text text-anchor="middle" x="410" y="-62" font-family="Helvetica,sans-Serif" font-size="10.00">algorithm</text>
</a>
</g>
</g>
<!-- Node10&#45;&gt;Node32 -->
<g id="edge66" class="edge">
<title>Node10&#45;&gt;Node32</title>
<path fill="none" stroke="#63b8ff" d="M781.24,-282.82C659.69,-280.59 335.61,-271.59 301,-239 276.92,-216.32 282.05,-196.22 293,-165 307.49,-123.68 351.54,-94.43 381.26,-78.76"/>
<polygon fill="#63b8ff" stroke="#63b8ff" points="383.01,-81.8 390.35,-74.16 379.85,-75.55 383.01,-81.8"/>
</g>
<!-- Node35 -->
<g id="node35" class="node">
<title>Node35</title>
<g id="a_node35"><a xlink:title=" ">
<polygon fill="#e0e0e0" stroke="#999999" points="1161,-74 1103,-74 1103,-55 1161,-55 1161,-74"/>
<text text-anchor="middle" x="1132" y="-62" font-family="Helvetica,sans-Serif" font-size="10.00">memory</text>
</a>
</g>
</g>
<!-- Node10&#45;&gt;Node35 -->
<g id="edge59" class="edge">
<title>Node10&#45;&gt;Node35</title>
<path fill="none" stroke="#63b8ff" d="M872.54,-283.47C953.74,-282.47 1118.99,-275.82 1161,-239 1186.62,-216.54 1169.98,-197.24 1181,-165 1186.61,-148.6 1192.6,-146 1196,-129 1197.66,-120.72 1199.91,-117.48 1196,-110 1188.89,-96.39 1175.51,-86.1 1162.81,-78.87"/>
<polygon fill="#63b8ff" stroke="#63b8ff" points="1164.27,-75.68 1153.79,-74.13 1161.02,-81.88 1164.27,-75.68"/>
</g>
<!-- Node36 -->
<g id="node36" class="node">
<title>Node36</title>
<g id="a_node36"><a xlink:title=" ">
<polygon fill="#e0e0e0" stroke="#999999" points="1373,-74 1341,-74 1341,-55 1373,-55 1373,-74"/>
<text text-anchor="middle" x="1357" y="-62" font-family="Helvetica,sans-Serif" font-size="10.00">list</text>
</a>
</g>
</g>
<!-- Node10&#45;&gt;Node36 -->
<g id="edge63" class="edge">
<title>Node10&#45;&gt;Node36</title>
<path fill="none" stroke="#63b8ff" d="M872.96,-283.51C1004.7,-283.07 1376.54,-278.33 1413,-239 1455.07,-193.61 1400.21,-116.34 1371.94,-82.37"/>
<polygon fill="#63b8ff" stroke="#63b8ff" points="1374.25,-79.68 1365.09,-74.36 1368.93,-84.23 1374.25,-79.68"/>
</g>
<!-- Node38 -->
<g id="node38" class="node">
<title>Node38</title>
<g id="a_node38"><a xlink:title=" ">
<polygon fill="#e0e0e0" stroke="#999999" points="671.5,-74 578.5,-74 578.5,-55 671.5,-55 671.5,-74"/>
<text text-anchor="middle" x="625" y="-62" font-family="Helvetica,sans-Serif" font-size="10.00">unordered_map</text>
</a>
</g>
</g>
<!-- Node10&#45;&gt;Node38 -->
<g id="edge61" class="edge">
<title>Node10&#45;&gt;Node38</title>
<path fill="none" stroke="#63b8ff" d="M781.24,-282.73C666.08,-280.34 371.28,-271.09 342,-239 318.08,-212.78 233.87,-236.8 355,-110 369.53,-94.79 493.27,-79.32 568.09,-71.23"/>
<polygon fill="#63b8ff" stroke="#63b8ff" points="568.74,-74.68 578.31,-70.14 568,-67.72 568.74,-74.68"/>
</g>
<!-- Node39 -->
<g id="node39" class="node">
<title>Node39</title>
<g id="a_node39"><a xlink:href="Styles_8h.html" target="_top" xlink:title="This file declares the class Styles.">
<polygon fill="white" stroke="#666666" points="420,-239 364,-239 364,-220 420,-220 420,-239"/>
<text text-anchor="middle" x="392" y="-227" font-family="Helvetica,sans-Serif" font-size="10.00">Styles.h</text>
</a>
</g>
</g>
<!-- Node10&#45;&gt;Node39 -->
<g id="edge54" class="edge">
<title>Node10&#45;&gt;Node39</title>
<path fill="none" stroke="#63b8ff" d="M781.4,-280.11C709,-274.35 563.15,-261.24 430.17,-239.02"/>
<polygon fill="#63b8ff" stroke="#63b8ff" points="430.66,-235.55 420.21,-237.33 429.49,-242.45 430.66,-235.55"/>
</g>
<!-- Node40 -->
<g id="node40" class="node">
<title>Node40</title>
<g id="a_node40"><a xlink:title=" ">
<polygon fill="#e0e0e0" stroke="#999999" points="1005.5,-184 958.5,-184 958.5,-165 1005.5,-165 1005.5,-184"/>
<text text-anchor="middle" x="982" y="-172" font-family="Helvetica,sans-Serif" font-size="10.00">vector</text>
</a>
</g>
</g>
<!-- Node10&#45;&gt;Node40 -->
<g id="edge65" class="edge">
<title>Node10&#45;&gt;Node40</title>
<path fill="none" stroke="#63b8ff" d="M839.42,-274.84C865.95,-256.36 928.38,-212.86 961.12,-190.05"/>
<polygon fill="#63b8ff" stroke="#63b8ff" points="963.31,-192.79 969.52,-184.2 959.31,-187.04 963.31,-192.79"/>
</g>
<!-- Node41 -->
<g id="node41" class="node">
<title>Node41</title>
<g id="a_node41"><a xlink:title=" ">
<polygon fill="#e0e0e0" stroke="#999999" points="486,-239 438,-239 438,-220 486,-220 486,-239"/>
<text text-anchor="middle" x="462" y="-227" font-family="Helvetica,sans-Serif" font-size="10.00">mutex</text>
</a>
</g>
</g>
<!-- Node10&#45;&gt;Node41 -->
<g id="edge60" class="edge">
<title>Node10&#45;&gt;Node41</title>
<path fill="none" stroke="#63b8ff" d="M781.34,-279.12C719.03,-272.75 603.71,-259.62 496.13,-239.01"/>
<polygon fill="#63b8ff" stroke="#63b8ff" points="496.56,-235.52 486.08,-237.05 495.22,-242.4 496.56,-235.52"/>
</g>
<!-- Node42 -->
<g id="node42" class="node">
<title>Node42</title>
<g id="a_node42"><a xlink:title=" ">
<polygon fill="#e0e0e0" stroke="#999999" points="558,-239 504,-239 504,-220 558,-220 558,-239"/>
<text text-anchor="middle" x="531" y="-227" font-family="Helvetica,sans-Serif" font-size="10.00">random</text>
</a>
</g>
</g>
<!-- Node10&#45;&gt;Node42 -->
<g id="edge62" class="edge">
<title>Node10&#45;&gt;Node42</title>
<path fill="none" stroke="#63b8ff" d="M781.28,-276.56C731.26,-268.77 648.5,-255.3 567.9,-239.08"/>
<polygon fill="#63b8ff" stroke="#63b8ff" points="568.58,-235.65 558.09,-237.09 567.19,-242.51 568.58,-235.65"/>
</g>
<!-- Node43 -->
<g id="node43" class="node">
<title>Node43</title>
<g id="a_node43"><a xlink:title=" ">
<polygon fill="#e0e0e0" stroke="#999999" points="627.5,-239 576.5,-239 576.5,-220 627.5,-220 627.5,-239"/>
<text text-anchor="middle" x="602" y="-227" font-family="Helvetica,sans-Serif" font-size="10.00">variant</text>
</a>
</g>
</g>
<!-- Node10&#45;&gt;Node43 -->
<g id="edge64" class="edge">
<title>Node10&#45;&gt;Node43</title>
<path fill="none" stroke="#63b8ff" d="M790.2,-274.97C753.93,-266.55 696.66,-253.2 637.5,-239.1"/>
<polygon fill="#63b8ff" stroke="#63b8ff" points="638.15,-235.66 627.61,-236.74 636.52,-242.47 638.15,-235.66"/>
</g>
<!-- Node44 -->
<g id="node44" class="node">
<title>Node44</title>
<g id="a_node44"><a xlink:title=" ">
<polygon fill="#e0e0e0" stroke="#999999" points="696,-239 646,-239 646,-220 696,-220 696,-239"/>
<text text-anchor="middle" x="671" y="-227" font-family="Helvetica,sans-Serif" font-size="10.00">atomic</text>
</a>
</g>
</g>
<!-- Node10&#45;&gt;Node44 -->
<g id="edge67" class="edge">
<title>Node10&#45;&gt;Node44</title>
<path fill="none" stroke="#63b8ff" d="M801.94,-274.98C775.89,-266.14 734.95,-252.23 705.78,-242.32"/>
<polygon fill="#63b8ff" stroke="#63b8ff" points="706.6,-238.9 696,-238.99 704.34,-245.53 706.6,-238.9"/>
</g>
<!-- Node45 -->
<g id="node45" class="node">
<title>Node45</title>
<g id="a_node45"><a xlink:title=" ">
<polygon fill="#e0e0e0" stroke="#999999" points="764,-239 714,-239 714,-220 764,-220 764,-239"/>
<text text-anchor="middle" x="739" y="-227" font-family="Helvetica,sans-Serif" font-size="10.00">chrono</text>
</a>
</g>
</g>
<!-- Node10&#45;&gt;Node45 -->
<g id="edge68" class="edge">
<title>Node10&#45;&gt;Node45</title>
<path fill="none" stroke="#63b8ff" d="M812.86,-274.98C799.21,-266.77 778.31,-254.18 762.22,-244.49"/>
<polygon fill="#63b8ff" stroke="#63b8ff" points="763.77,-241.33 753.4,-239.17 760.16,-247.33 763.77,-241.33"/>
</g>
<!-- Node46 -->
<g id="node46" class="node">
<title>Node46</title>
<g id="a_node46"><a xlink:title=" ">
<polygon fill="#e0e0e0" stroke="#999999" points="871.5,-239 782.5,-239 782.5,-220 871.5,-220 871.5,-239"/>
<text text-anchor="middle" x="827" y="-227" font-family="Helvetica,sans-Serif" font-size="10.00">wx/wupdlock.h</text>
</a>
</g>
</g>
<!-- Node10&#45;&gt;Node46 -->
<g id="edge69" class="edge">
<title>Node10&#45;&gt;Node46</title>
<path fill="none" stroke="#63b8ff" d="M827,-274.75C827,-267.8 827,-257.85 827,-249.13"/>
<polygon fill="#63b8ff" stroke="#63b8ff" points="830.5,-249.09 827,-239.09 823.5,-249.09 830.5,-249.09"/>
</g>
<!-- Node15&#45;&gt;Node2 -->
<g id="edge19" class="edge">
<title>Node15&#45;&gt;Node2</title>
<path fill="none" stroke="#63b8ff" d="M1310.03,-219.83C1322.54,-211.63 1340.86,-198.47 1354,-184 1382.82,-152.26 1407.12,-107.86 1419.4,-83.41"/>
<polygon fill="#63b8ff" stroke="#63b8ff" points="1422.63,-84.77 1423.91,-74.25 1416.35,-81.68 1422.63,-84.77"/>
</g>
<!-- Node16 -->
<g id="node16" class="node">
<title>Node16</title>
<g id="a_node16"><a xlink:title=" ">
<polygon fill="#e0e0e0" stroke="#999999" points="1345.5,-184 1266.5,-184 1266.5,-165 1345.5,-165 1345.5,-184"/>
<text text-anchor="middle" x="1306" y="-172" font-family="Helvetica,sans-Serif" font-size="10.00">wx/msgdlg.h</text>
</a>
</g>
</g>
<!-- Node15&#45;&gt;Node16 -->
<g id="edge20" class="edge">
<title>Node15&#45;&gt;Node16</title>
<path fill="none" stroke="#63b8ff" d="M1297.65,-219.75C1298.96,-212.8 1300.84,-202.85 1302.48,-194.13"/>
<polygon fill="#63b8ff" stroke="#63b8ff" points="1305.96,-194.56 1304.38,-184.09 1299.09,-193.27 1305.96,-194.56"/>
</g>
<!-- Node17 -->
<g id="node17" class="node">
<title>Node17</title>
<g id="a_node17"><a xlink:title=" ">
<polygon fill="#e0e0e0" stroke="#999999" points="1248,-184 1190,-184 1190,-165 1248,-165 1248,-184"/>
<text text-anchor="middle" x="1219" y="-172" font-family="Helvetica,sans-Serif" font-size="10.00">wx/log.h</text>
</a>
</g>
</g>
<!-- Node15&#45;&gt;Node17 -->
<g id="edge21" class="edge">
<title>Node15&#45;&gt;Node17</title>
<path fill="none" stroke="#63b8ff" d="M1283.63,-219.98C1271.91,-211.92 1254.08,-199.65 1240.11,-190.03"/>
<polygon fill="#63b8ff" stroke="#63b8ff" points="1241.82,-186.96 1231.6,-184.17 1237.85,-192.72 1241.82,-186.96"/>
</g>
<!-- Node18&#45;&gt;Node2 -->
<g id="edge23" class="edge">
<title>Node18&#45;&gt;Node2</title>
<path fill="none" stroke="#63b8ff" d="M617.26,-173.07C689.86,-171.25 830.86,-163.15 945,-129 963.09,-123.59 964.84,-115.16 983,-110 1154.28,-61.34 1205.6,-98.2 1382,-74 1382.6,-73.92 1383.21,-73.83 1383.82,-73.74"/>
<polygon fill="#63b8ff" stroke="#63b8ff" points="1384.56,-77.17 1393.89,-72.17 1383.47,-70.26 1384.56,-77.17"/>
</g>
<!-- Node18&#45;&gt;Node11 -->
<g id="edge29" class="edge">
<title>Node18&#45;&gt;Node11</title>
<path fill="none" stroke="#63b8ff" d="M617.28,-169.19C693.91,-162.15 848.01,-147.1 978,-129 979.28,-128.82 980.57,-128.64 981.87,-128.45"/>
<polygon fill="#63b8ff" stroke="#63b8ff" points="982.64,-131.87 991.99,-126.89 981.57,-124.95 982.64,-131.87"/>
</g>
<!-- Node18&#45;&gt;Node14 -->
<g id="edge26" class="edge">
<title>Node18&#45;&gt;Node14</title>
<path fill="none" stroke="#63b8ff" d="M617.07,-170.4C705.15,-164.46 898.52,-150.28 1071.72,-129.07"/>
<polygon fill="#63b8ff" stroke="#63b8ff" points="1072.29,-132.53 1081.79,-127.83 1071.43,-125.58 1072.29,-132.53"/>
</g>
<!-- Node19 -->
<g id="node19" class="node">
<title>Node19</title>
<g id="a_node19"><a xlink:title=" ">
<polygon fill="#e0e0e0" stroke="#999999" points="818,-129 746,-129 746,-110 818,-110 818,-129"/>
<text text-anchor="middle" x="782" y="-117" font-family="Helvetica,sans-Serif" font-size="10.00">wx/colour.h</text>
</a>
</g>
</g>
<!-- Node18&#45;&gt;Node19 -->
<g id="edge24" class="edge">
<title>Node18&#45;&gt;Node19</title>
<path fill="none" stroke="#63b8ff" d="M603.22,-164.98C639.76,-155.89 697.78,-141.46 737.76,-131.51"/>
<polygon fill="#63b8ff" stroke="#63b8ff" points="738.65,-134.89 747.51,-129.08 736.96,-128.1 738.65,-134.89"/>
</g>
<!-- Node20 -->
<g id="node20" class="node">
<title>Node20</title>
<g id="a_node20"><a xlink:title=" ">
<polygon fill="#e0e0e0" stroke="#999999" points="874,-129 836,-129 836,-110 874,-110 874,-129"/>
<text text-anchor="middle" x="855" y="-117" font-family="Helvetica,sans-Serif" font-size="10.00">map</text>
</a>
</g>
</g>
<!-- Node18&#45;&gt;Node20 -->
<g id="edge25" class="edge">
<title>Node18&#45;&gt;Node20</title>
<path fill="none" stroke="#63b8ff" d="M617.39,-166.98C667.37,-159.84 747.76,-147.23 825.81,-129.03"/>
<polygon fill="#63b8ff" stroke="#63b8ff" points="826.88,-132.38 835.81,-126.67 825.27,-125.57 826.88,-132.38"/>
</g>
<!-- Node21 -->
<g id="node21" class="node">
<title>Node21</title>
<g id="a_node21"><a xlink:title=" ">
<polygon fill="#e0e0e0" stroke="#999999" points="936,-129 892,-129 892,-110 936,-110 936,-129"/>
<text text-anchor="middle" x="914" y="-117" font-family="Helvetica,sans-Serif" font-size="10.00">string</text>
</a>
</g>
</g>
<!-- Node18&#45;&gt;Node21 -->
<g id="edge27" class="edge">
<title>Node18&#45;&gt;Node21</title>
<path fill="none" stroke="#63b8ff" d="M617.2,-168.59C677.13,-162.06 782.65,-149.18 881.84,-129.01"/>
<polygon fill="#63b8ff" stroke="#63b8ff" points="882.64,-132.42 891.73,-126.97 881.23,-125.56 882.64,-132.42"/>
</g>
<!-- Node22 -->
<g id="node22" class="node">
<title>Node22</title>
<g id="a_node22"><a xlink:title=" ">
<polygon fill="#e0e0e0" stroke="#999999" points="421.5,-129 364.5,-129 364.5,-110 421.5,-110 421.5,-129"/>
<text text-anchor="middle" x="393" y="-117" font-family="Helvetica,sans-Serif" font-size="10.00">ostream</text>
</a>
</g>
</g>
<!-- Node18&#45;&gt;Node22 -->
<g id="edge28" class="edge">
<title>Node18&#45;&gt;Node22</title>
<path fill="none" stroke="#63b8ff" d="M540.72,-164.98C511.05,-156.05 464.21,-141.94 431.25,-132.02"/>
<polygon fill="#63b8ff" stroke="#63b8ff" points="432.08,-128.61 421.5,-129.08 430.07,-135.32 432.08,-128.61"/>
</g>
<!-- Node23 -->
<g id="node23" class="node">
<title>Node23</title>
<g id="a_node23"><a xlink:title=" ">
<polygon fill="#e0e0e0" stroke="#999999" points="522,-74 460,-74 460,-55 522,-55 522,-74"/>
<text text-anchor="middle" x="491" y="-62" font-family="Helvetica,sans-Serif" font-size="10.00">wx/font.h</text>
</a>
</g>
</g>
<!-- Node18&#45;&gt;Node23 -->
<g id="edge30" class="edge">
<title>Node18&#45;&gt;Node23</title>
<path fill="none" stroke="#63b8ff" d="M520.66,-170.36C464.08,-165.57 375.47,-154.17 355,-129 349.67,-122.45 350.04,-116.84 355,-110 360.81,-101.99 412.03,-86.72 449.91,-76.33"/>
<polygon fill="#63b8ff" stroke="#63b8ff" points="450.97,-79.67 459.7,-73.67 449.13,-72.91 450.97,-79.67"/>
</g>
<!-- Node24 -->
<g id="node24" class="node">
<title>Node24</title>
<g id="a_node24"><a xlink:title=" ">
<polygon fill="#e0e0e0" stroke="#999999" points="522,-129 440,-129 440,-110 522,-110 522,-129"/>
<text text-anchor="middle" x="481" y="-117" font-family="Helvetica,sans-Serif" font-size="10.00">wx/settings.h</text>
</a>
</g>
</g>
<!-- Node18&#45;&gt;Node24 -->
<g id="edge31" class="edge">
<title>Node18&#45;&gt;Node24</title>
<path fill="none" stroke="#63b8ff" d="M554.86,-164.98C541.21,-156.77 520.31,-144.18 504.22,-134.49"/>
<polygon fill="#63b8ff" stroke="#63b8ff" points="505.77,-131.33 495.4,-129.17 502.16,-137.33 505.77,-131.33"/>
</g>
<!-- Node18&#45;&gt;Node25 -->
<g id="edge32" class="edge">
<title>Node18&#45;&gt;Node25</title>
<path fill="none" stroke="#63b8ff" d="M520.84,-174.47C440.61,-174.78 275.36,-169.78 143,-129 123.82,-123.09 76.91,-96.31 48.35,-79.47"/>
<polygon fill="#63b8ff" stroke="#63b8ff" points="49.82,-76.28 39.44,-74.19 46.25,-82.3 49.82,-76.28"/>
</g>
<!-- Node26 -->
<g id="node26" class="node">
<title>Node26</title>
<g id="a_node26"><a xlink:title=" ">
<polygon fill="#e0e0e0" stroke="#999999" points="482.5,-19 417.5,-19 417.5,0 482.5,0 482.5,-19"/>
<text text-anchor="middle" x="450" y="-7" font-family="Helvetica,sans-Serif" font-size="10.00">functional</text>
</a>
</g>
</g>
<!-- Node18&#45;&gt;Node26 -->
<g id="edge33" class="edge">
<title>Node18&#45;&gt;Node26</title>
<path fill="none" stroke="#63b8ff" d="M568.38,-164.72C566.44,-143.53 558.9,-88.84 531,-55 519.25,-40.75 501.69,-30.32 485.92,-23.15"/>
<polygon fill="#63b8ff" stroke="#63b8ff" points="486.98,-19.79 476.4,-19.1 484.24,-26.24 486.98,-19.79"/>
</g>
<!-- Node27 -->
<g id="node27" class="node">
<title>Node27</title>
<g id="a_node27"><a xlink:href="FontAttribs_8h_source.html" target="_top" xlink:title=" ">
<polygon fill="white" stroke="#666666" points="231.5,-129 152.5,-129 152.5,-110 231.5,-110 231.5,-129"/>
<text text-anchor="middle" x="192" y="-117" font-family="Helvetica,sans-Serif" font-size="10.00">FontAttribs.h</text>
</a>
</g>
</g>
<!-- Node18&#45;&gt;Node27 -->
<g id="edge34" class="edge">
<title>Node18&#45;&gt;Node27</title>
<path fill="none" stroke="#63b8ff" d="M520.87,-166.73C449.07,-156.64 314.58,-137.73 241.81,-127.5"/>
<polygon fill="#63b8ff" stroke="#63b8ff" points="241.93,-123.98 231.54,-126.06 240.96,-130.92 241.93,-123.98"/>
</g>
<!-- Node34 -->
<g id="node34" class="node">
<title>Node34</title>
<g id="a_node34"><a xlink:href="FontVariantCache_8h.html" target="_top" xlink:title="This file implements the wxFont cache system.">
<polygon fill="white" stroke="#666666" points="727.5,-129 616.5,-129 616.5,-110 727.5,-110 727.5,-129"/>
<text text-anchor="middle" x="672" y="-117" font-family="Helvetica,sans-Serif" font-size="10.00">FontVariantCache.h</text>
</a>
</g>
</g>
<!-- Node18&#45;&gt;Node34 -->
<g id="edge45" class="edge">
<title>Node18&#45;&gt;Node34</title>
<path fill="none" stroke="#63b8ff" d="M585.55,-164.98C601.89,-156.57 627.13,-143.59 646.13,-133.81"/>
<polygon fill="#63b8ff" stroke="#63b8ff" points="647.86,-136.86 655.15,-129.17 644.66,-130.63 647.86,-136.86"/>
</g>
<!-- Node18&#45;&gt;Node38 -->
<g id="edge53" class="edge">
<title>Node18&#45;&gt;Node38</title>
<path fill="none" stroke="#63b8ff" d="M573.58,-164.66C582.78,-146.93 603.62,-106.73 615.76,-83.32"/>
<polygon fill="#63b8ff" stroke="#63b8ff" points="619.01,-84.65 620.51,-74.16 612.8,-81.42 619.01,-84.65"/>
</g>
<!-- Node27&#45;&gt;Node23 -->
<g id="edge39" class="edge">
<title>Node27&#45;&gt;Node23</title>
<path fill="none" stroke="#63b8ff" d="M231.58,-112.2C280.52,-104.29 366.61,-90.03 449.72,-74.19"/>
<polygon fill="#63b8ff" stroke="#63b8ff" points="450.42,-77.62 459.58,-72.3 449.1,-70.74 450.42,-77.62"/>
</g>
<!-- Node27&#45;&gt;Node25 -->
<g id="edge42" class="edge">
<title>Node27&#45;&gt;Node25</title>
<path fill="none" stroke="#63b8ff" d="M165.17,-109.98C136.55,-100.9 91.11,-86.48 59.77,-76.53"/>
<polygon fill="#63b8ff" stroke="#63b8ff" points="60.72,-73.16 50.13,-73.47 58.6,-79.84 60.72,-73.16"/>
</g>
<!-- Node27&#45;&gt;Node26 -->
<g id="edge43" class="edge">
<title>Node27&#45;&gt;Node26</title>
<path fill="none" stroke="#63b8ff" d="M223.81,-109.96C252.15,-101.94 294.52,-88.97 330,-74 348.71,-66.1 396.62,-40.06 425.93,-23.88"/>
<polygon fill="#63b8ff" stroke="#63b8ff" points="427.68,-26.91 434.73,-19.01 424.29,-20.79 427.68,-26.91"/>
</g>
<!-- Node28 -->
<g id="node28" class="node">
<title>Node28</title>
<g id="a_node28"><a xlink:href="EnumWrapper_8h_source.html" target="_top" xlink:title=" ">
<polygon fill="white" stroke="#666666" points="224,-74 130,-74 130,-55 224,-55 224,-74"/>
<text text-anchor="middle" x="177" y="-62" font-family="Helvetica,sans-Serif" font-size="10.00">EnumWrapper.h</text>
</a>
</g>
</g>
<!-- Node27&#45;&gt;Node28 -->
<g id="edge35" class="edge">
<title>Node27&#45;&gt;Node28</title>
<path fill="none" stroke="#63b8ff" d="M189.52,-109.75C187.54,-102.72 184.68,-92.62 182.19,-83.84"/>
<polygon fill="#63b8ff" stroke="#63b8ff" points="185.52,-82.76 179.43,-74.09 178.79,-84.66 185.52,-82.76"/>
</g>
<!-- Node31 -->
<g id="node31" class="node">
<title>Node31</title>
<g id="a_node31"><a xlink:title=" ">
<polygon fill="#e0e0e0" stroke="#999999" points="321.5,-74 242.5,-74 242.5,-55 321.5,-55 321.5,-74"/>
<text text-anchor="middle" x="282" y="-62" font-family="Helvetica,sans-Serif" font-size="10.00">wx/version.h</text>
</a>
</g>
</g>
<!-- Node27&#45;&gt;Node31 -->
<g id="edge40" class="edge">
<title>Node27&#45;&gt;Node31</title>
<path fill="none" stroke="#63b8ff" d="M206.46,-109.98C220.42,-101.77 241.79,-89.18 258.25,-79.49"/>
<polygon fill="#63b8ff" stroke="#63b8ff" points="260.44,-82.26 267.28,-74.17 256.88,-76.23 260.44,-82.26"/>
</g>
<!-- Node27&#45;&gt;Node32 -->
<g id="edge41" class="edge">
<title>Node27&#45;&gt;Node32</title>
<path fill="none" stroke="#63b8ff" d="M227.03,-109.98C265.42,-100.65 326.99,-85.68 367.96,-75.72"/>
<polygon fill="#63b8ff" stroke="#63b8ff" points="369.01,-79.07 377.9,-73.3 367.36,-72.26 369.01,-79.07"/>
</g>
<!-- Node33 -->
<g id="node33" class="node">
<title>Node33</title>
<g id="a_node33"><a xlink:title=" ">
<polygon fill="#e0e0e0" stroke="#999999" points="112,-74 68,-74 68,-55 112,-55 112,-74"/>
<text text-anchor="middle" x="90" y="-62" font-family="Helvetica,sans-Serif" font-size="10.00">limits</text>
</a>
</g>
</g>
<!-- Node27&#45;&gt;Node33 -->
<g id="edge44" class="edge">
<title>Node27&#45;&gt;Node33</title>
<path fill="none" stroke="#63b8ff" d="M175.61,-109.98C159.43,-101.57 134.43,-88.59 115.62,-78.81"/>
<polygon fill="#63b8ff" stroke="#63b8ff" points="117.17,-75.68 106.69,-74.17 113.95,-81.89 117.17,-75.68"/>
</g>
<!-- Node28&#45;&gt;Node26 -->
<g id="edge37" class="edge">
<title>Node28&#45;&gt;Node26</title>
<path fill="none" stroke="#63b8ff" d="M220.86,-54.98C272.19,-45.02 356.61,-28.63 407.39,-18.77"/>
<polygon fill="#63b8ff" stroke="#63b8ff" points="408.23,-22.17 417.38,-16.83 406.9,-15.3 408.23,-22.17"/>
</g>
<!-- Node29 -->
<g id="node29" class="node">
<title>Node29</title>
<g id="a_node29"><a xlink:title=" ">
<polygon fill="#e0e0e0" stroke="#999999" points="164.5,-19 111.5,-19 111.5,0 164.5,0 164.5,-19"/>
<text text-anchor="middle" x="138" y="-7" font-family="Helvetica,sans-Serif" font-size="10.00">cstddef</text>
</a>
</g>
</g>
<!-- Node28&#45;&gt;Node29 -->
<g id="edge36" class="edge">
<title>Node28&#45;&gt;Node29</title>
<path fill="none" stroke="#63b8ff" d="M170.56,-54.75C165.11,-47.34 157.14,-36.5 150.44,-27.41"/>
<polygon fill="#63b8ff" stroke="#63b8ff" points="153.07,-25.07 144.32,-19.09 147.43,-29.22 153.07,-25.07"/>
</g>
<!-- Node30 -->
<g id="node30" class="node">
<title>Node30</title>
<g id="a_node30"><a xlink:title=" ">
<polygon fill="#e0e0e0" stroke="#999999" points="251.5,-19 182.5,-19 182.5,0 251.5,0 251.5,-19"/>
<text text-anchor="middle" x="217" y="-7" font-family="Helvetica,sans-Serif" font-size="10.00">type_traits</text>
</a>
</g>
</g>
<!-- Node28&#45;&gt;Node30 -->
<g id="edge38" class="edge">
<title>Node28&#45;&gt;Node30</title>
<path fill="none" stroke="#63b8ff" d="M183.61,-54.75C189.26,-47.26 197.54,-36.28 204.45,-27.13"/>
<polygon fill="#63b8ff" stroke="#63b8ff" points="207.29,-29.18 210.52,-19.09 201.7,-24.96 207.29,-29.18"/>
</g>
<!-- Node34&#45;&gt;Node2 -->
<g id="edge46" class="edge">
<title>Node34&#45;&gt;Node2</title>
<path fill="none" stroke="#63b8ff" d="M727.64,-110.95C730.8,-110.6 733.94,-110.29 737,-110 1022.87,-83.37 1096.93,-108.15 1382,-74 1382.6,-73.93 1383.21,-73.85 1383.83,-73.77"/>
<polygon fill="#63b8ff" stroke="#63b8ff" points="1384.52,-77.21 1393.91,-72.3 1383.51,-70.28 1384.52,-77.21"/>
</g>
<!-- Node34&#45;&gt;Node23 -->
<g id="edge48" class="edge">
<title>Node34&#45;&gt;Node23</title>
<path fill="none" stroke="#63b8ff" d="M642.92,-109.98C612.4,-101.05 564.24,-86.94 530.34,-77.02"/>
<polygon fill="#63b8ff" stroke="#63b8ff" points="530.89,-73.53 520.31,-74.08 528.92,-80.25 530.89,-73.53"/>
</g>
<!-- Node34&#45;&gt;Node26 -->
<g id="edge49" class="edge">
<title>Node34&#45;&gt;Node26</title>
<path fill="none" stroke="#63b8ff" d="M676.63,-110C683.19,-96.67 693.01,-70.77 680,-55 656.74,-26.81 552.8,-16.27 492.91,-12.49"/>
<polygon fill="#63b8ff" stroke="#63b8ff" points="492.81,-8.98 482.62,-11.88 492.4,-15.97 492.81,-8.98"/>
</g>
<!-- Node34&#45;&gt;Node35 -->
<g id="edge47" class="edge">
<title>Node34&#45;&gt;Node35</title>
<path fill="none" stroke="#63b8ff" d="M727.66,-111.15C730.82,-110.76 733.95,-110.37 737,-110 866.99,-94.18 1021.3,-77.36 1092.46,-69.72"/>
<polygon fill="#63b8ff" stroke="#63b8ff" points="1093.17,-73.16 1102.74,-68.62 1092.43,-66.2 1093.17,-73.16"/>
</g>
<!-- Node34&#45;&gt;Node36 -->
<g id="edge50" class="edge">
<title>Node34&#45;&gt;Node36</title>
<path fill="none" stroke="#63b8ff" d="M727.64,-111.01C730.81,-110.65 733.94,-110.31 737,-110 966.38,-86.79 1244.69,-71.33 1330.53,-66.85"/>
<polygon fill="#63b8ff" stroke="#63b8ff" points="1330.88,-70.33 1340.68,-66.32 1330.52,-63.34 1330.88,-70.33"/>
</g>
<!-- Node37 -->
<g id="node37" class="node">
<title>Node37</title>
<g id="a_node37"><a xlink:title=" ">
<polygon fill="#e0e0e0" stroke="#999999" points="877.5,-74 832.5,-74 832.5,-55 877.5,-55 877.5,-74"/>
<text text-anchor="middle" x="855" y="-62" font-family="Helvetica,sans-Serif" font-size="10.00">utility</text>
</a>
</g>
</g>
<!-- Node34&#45;&gt;Node37 -->
<g id="edge51" class="edge">
<title>Node34&#45;&gt;Node37</title>
<path fill="none" stroke="#63b8ff" d="M701.4,-109.98C734.46,-100.41 787.98,-84.91 822.32,-74.96"/>
<polygon fill="#63b8ff" stroke="#63b8ff" points="823.69,-78.21 832.32,-72.07 821.74,-71.49 823.69,-78.21"/>
</g>
<!-- Node34&#45;&gt;Node38 -->
<g id="edge52" class="edge">
<title>Node34&#45;&gt;Node38</title>
<path fill="none" stroke="#63b8ff" d="M664.24,-109.75C657.53,-102.18 647.66,-91.05 639.49,-81.84"/>
<polygon fill="#63b8ff" stroke="#63b8ff" points="641.87,-79.25 632.62,-74.09 636.63,-83.89 641.87,-79.25"/>
</g>
<!-- Node39&#45;&gt;Node18 -->
<g id="edge55" class="edge">
<title>Node39&#45;&gt;Node18</title>
<path fill="none" stroke="#63b8ff" d="M420.05,-220.1C449.91,-211.16 497.35,-196.95 530.65,-186.98"/>
<polygon fill="#63b8ff" stroke="#63b8ff" points="531.92,-190.26 540.5,-184.03 529.92,-183.55 531.92,-190.26"/>
</g>
<!-- Node39&#45;&gt;Node37 -->
<g id="edge56" class="edge">
<title>Node39&#45;&gt;Node37</title>
<path fill="none" stroke="#63b8ff" d="M420.22,-221.7C423.18,-221.08 426.14,-220.5 429,-220 449.67,-216.38 1165.08,-144.71 1179,-129 1184.6,-122.68 1184.55,-116.36 1179,-110 1141.48,-66.97 962.95,-64.08 888.12,-64.83"/>
<polygon fill="#63b8ff" stroke="#63b8ff" points="887.82,-61.33 877.86,-64.96 887.91,-68.33 887.82,-61.33"/>
</g>
<!-- Node39&#45;&gt;Node40 -->
<g id="edge57" class="edge">
<title>Node39&#45;&gt;Node40</title>
<path fill="none" stroke="#63b8ff" d="M420.2,-221.55C423.16,-220.96 426.13,-220.43 429,-220 655.95,-186.21 716.96,-217.14 944,-184 945.46,-183.79 946.95,-183.55 948.46,-183.29"/>
<polygon fill="#63b8ff" stroke="#63b8ff" points="949.24,-186.7 958.39,-181.36 947.9,-179.83 949.24,-186.7"/>
</g>
</g>
</svg>
        <g id="navigator" transform="translate(0 0)" fill="#404254">
                <rect fill="#f2f5e9" fill-opacity="0.5" stroke="#606060" stroke-width=".5" x="0" y="0" width="60" height="60"/>
                <use id="zoomplus" xlink:href="#zoomPlus" x="17" y="9" onmousedown="handleZoom(evt,'in')"/>
                <use id="zoomminus" xlink:href="#zoomMin" x="42" y="9" onmousedown="handleZoom(evt,'out')"/>
                <use id="reset" xlink:href="#resetDef" x="30" y="36" onmousedown="handleReset()"/>
                <g id="arrowUp" xlink:href="#dirArrow" transform="translate(30 24)" onmousedown="handlePan(0,-1)">
                  <use xlink:href="#rim" fill="#404040">
                        <set attributeName="fill" to="#808080" begin="arrowUp.mouseover" end="arrowUp.mouseout"/>
                  </use>
                  <path fill="none" stroke="white" stroke-width="1.5" d="M0,-3.0v7 M-2.5,-0.5L0,-3.0L2.5,-0.5"/>
                </g>
                <g id="arrowRight" xlink:href="#dirArrow" transform="rotate(90) translate(36 -43)" onmousedown="handlePan(1,0)">
                  <use xlink:href="#rim" fill="#404040">
                        <set attributeName="fill" to="#808080" begin="arrowRight.mouseover" end="arrowRight.mouseout"/>
                  </use>
                  <path fill="none" stroke="white" stroke-width="1.5" d="M0,-3.0v7 M-2.5,-0.5L0,-3.0L2.5,-0.5"/>
                </g>
                <g id="arrowDown" xlink:href="#dirArrow" transform="rotate(180) translate(-30 -48)" onmousedown="handlePan(0,1)">
                  <use xlink:href="#rim" fill="#404040">
                        <set attributeName="fill" to="#808080" begin="arrowDown.mouseover" end="arrowDown.mouseout"/>
                  </use>
                  <path fill="none" stroke="white" stroke-width="1.5" d="M0,-3.0v7 M-2.5,-0.5L0,-3.0L2.5,-0.5"/>
                </g>
                <g id="arrowLeft" xlink:href="#dirArrow" transform="rotate(270) translate(-36 17)" onmousedown="handlePan(-1,0)">
                  <use xlink:href="#rim" fill="#404040">
                        <set attributeName="fill" to="#808080" begin="arrowLeft.mouseover" end="arrowLeft.mouseout"/>
                  </use>
                  <path fill="none" stroke="white" stroke-width="1.5" d="M0,-3.0v7 M-2.5,-0.5L0,-3.0L2.5,-0.5"/>
                </g>
        </g>
        <svg viewBox="0 0 15 15" width="100%" height="30px" preserveAspectRatio="xMaxYMin meet">
         <g id="arrow_out" transform="scale(0.3 0.3)">
          <a xlink:href="CsvWiz_8h__incl_org.svg" target="_base">
           <rect id="button" ry="5" rx="5" y="6" x="6" height="38" width="38"
                fill="#f2f5e9" fill-opacity="0.5" stroke="#606060" stroke-width="1.0"/>
           <path id="arrow"
             d="M 11.500037,31.436501 C 11.940474,20.09759 22.043105,11.32322 32.158766,21.979434 L 37.068811,17.246167 C 37.068811,17.246167 37.088388,32 37.088388,32 L 22.160133,31.978069 C 22.160133,31.978069 26.997745,27.140456 26.997745,27.140456 C 18.528582,18.264221 13.291696,25.230495 11.500037,31.436501 z"
             style="fill:#404040;"/>
          </a>
         </g>
        </svg>
</svg>
