<?xml version="1.0" encoding="UTF-8" standalone="no"?>
<!DOCTYPE svg PUBLIC "-//W3C//DTD SVG 1.1//EN"
 "http://www.w3.org/Graphics/SVG/1.1/DTD/svg11.dtd">
<!-- Generated by graphviz version 2.43.0 (0)
 -->
<!-- Title: src/wizards/CsvWiz.h Pages: 1 -->
<svg width="2014pt" height="364pt"
 viewBox="0.00 0.00 2014.00 364.00" xmlns="http://www.w3.org/2000/svg" xmlns:xlink="http://www.w3.org/1999/xlink">
<g id="graph0" class="graph" transform="scale(1 1) rotate(0) translate(4 360)">
<title>src/wizards/CsvWiz.h</title>
<polygon fill="white" stroke="transparent" points="-4,4 -4,-360 2010,-360 2010,4 -4,4"/>
<!-- Node1 -->
<g id="node1" class="node">
<title>Node1</title>
<g id="a_node1"><a xlink:title="This file declares all the wizards the draw sidepane needs.">
<polygon fill="#bfbfbf" stroke="black" points="1503.5,-336.5 1503.5,-355.5 1622.5,-355.5 1622.5,-336.5 1503.5,-336.5"/>
<text text-anchor="middle" x="1563" y="-343.5" font-family="Helvetica,sans-Serif" font-size="10.00">src/wizards/CsvWiz.h</text>
</a>
</g>
</g>
<!-- Node2 -->
<g id="node2" class="node">
<title>Node2</title>
<g id="a_node2"><a xlink:href="precomp_8h_source.html" target="_top" xlink:title=" ">
<polygon fill="white" stroke="black" points="1543,-56.5 1543,-75.5 1611,-75.5 1611,-56.5 1543,-56.5"/>
<text text-anchor="middle" x="1577" y="-63.5" font-family="Helvetica,sans-Serif" font-size="10.00">precomp.h</text>
</a>
</g>
</g>
<!-- Node1&#45;&gt;Node2 -->
<g id="edge1" class="edge">
<title>Node1&#45;&gt;Node2</title>
<path fill="none" stroke="midnightblue" d="M1622.64,-343.73C1696.31,-338.62 1812,-317.47 1812,-235 1812,-235 1812,-235 1812,-177 1812,-93.66 1689.27,-73.33 1621.2,-68.46"/>
<polygon fill="midnightblue" stroke="midnightblue" points="1621.37,-64.96 1611.17,-67.83 1620.93,-71.95 1621.37,-64.96"/>
</g>
<!-- Node4 -->
<g id="node4" class="node">
<title>Node4</title>
<g id="a_node4"><a xlink:title=" ">
<polygon fill="white" stroke="#bfbfbf" points="526.5,-168.5 526.5,-187.5 583.5,-187.5 583.5,-168.5 526.5,-168.5"/>
<text text-anchor="middle" x="555" y="-175.5" font-family="Helvetica,sans-Serif" font-size="10.00">wx/wx.h</text>
</a>
</g>
</g>
<!-- Node1&#45;&gt;Node4 -->
<g id="edge3" class="edge">
<title>Node1&#45;&gt;Node4</title>
<path fill="none" stroke="midnightblue" d="M1503.21,-340.51C1372.52,-329.98 1052.05,-300.23 789,-244 718.28,-228.88 637.27,-204.84 591.52,-190.62"/>
<polygon fill="midnightblue" stroke="midnightblue" points="592.35,-187.22 581.76,-187.57 590.26,-193.9 592.35,-187.22"/>
</g>
<!-- Node5 -->
<g id="node5" class="node">
<title>Node5</title>
<g id="a_node5"><a xlink:title=" ">
<polygon fill="white" stroke="#bfbfbf" points="1273,-280.5 1273,-299.5 1347,-299.5 1347,-280.5 1273,-280.5"/>
<text text-anchor="middle" x="1310" y="-287.5" font-family="Helvetica,sans-Serif" font-size="10.00">wx/button.h</text>
</a>
</g>
</g>
<!-- Node1&#45;&gt;Node5 -->
<g id="edge4" class="edge">
<title>Node1&#45;&gt;Node5</title>
<path fill="none" stroke="midnightblue" d="M1522.91,-336.44C1477.87,-326.83 1404.82,-311.24 1357.1,-301.05"/>
<polygon fill="midnightblue" stroke="midnightblue" points="1357.53,-297.57 1347.02,-298.9 1356.07,-304.41 1357.53,-297.57"/>
</g>
<!-- Node6 -->
<g id="node6" class="node">
<title>Node6</title>
<g id="a_node6"><a xlink:title=" ">
<polygon fill="white" stroke="#bfbfbf" points="1365.5,-280.5 1365.5,-299.5 1448.5,-299.5 1448.5,-280.5 1365.5,-280.5"/>
<text text-anchor="middle" x="1407" y="-287.5" font-family="Helvetica,sans-Serif" font-size="10.00">wx/radiobut.h</text>
</a>
</g>
</g>
<!-- Node1&#45;&gt;Node6 -->
<g id="edge5" class="edge">
<title>Node1&#45;&gt;Node6</title>
<path fill="none" stroke="midnightblue" d="M1538.28,-336.44C1512.15,-327.4 1470.74,-313.06 1441.42,-302.92"/>
<polygon fill="midnightblue" stroke="midnightblue" points="1442.2,-299.48 1431.6,-299.52 1439.91,-306.1 1442.2,-299.48"/>
</g>
<!-- Node7 -->
<g id="node7" class="node">
<title>Node7</title>
<g id="a_node7"><a xlink:title=" ">
<polygon fill="white" stroke="#bfbfbf" points="1467,-280.5 1467,-299.5 1543,-299.5 1543,-280.5 1467,-280.5"/>
<text text-anchor="middle" x="1505" y="-287.5" font-family="Helvetica,sans-Serif" font-size="10.00">wx/persist.h</text>
</a>
</g>
</g>
<!-- Node1&#45;&gt;Node7 -->
<g id="edge6" class="edge">
<title>Node1&#45;&gt;Node7</title>
<path fill="none" stroke="midnightblue" d="M1553.68,-336.32C1545.11,-328.34 1532.19,-316.31 1521.81,-306.65"/>
<polygon fill="midnightblue" stroke="midnightblue" points="1524.19,-304.09 1514.49,-299.83 1519.42,-309.21 1524.19,-304.09"/>
</g>
<!-- Node8 -->
<g id="node8" class="node">
<title>Node8</title>
<g id="a_node8"><a xlink:title=" ">
<polygon fill="white" stroke="#bfbfbf" points="1561.5,-280.5 1561.5,-299.5 1680.5,-299.5 1680.5,-280.5 1561.5,-280.5"/>
<text text-anchor="middle" x="1621" y="-287.5" font-family="Helvetica,sans-Serif" font-size="10.00">wx/persist/toplevel.h</text>
</a>
</g>
</g>
<!-- Node1&#45;&gt;Node8 -->
<g id="edge7" class="edge">
<title>Node1&#45;&gt;Node8</title>
<path fill="none" stroke="midnightblue" d="M1572.32,-336.32C1580.89,-328.34 1593.81,-316.31 1604.19,-306.65"/>
<polygon fill="midnightblue" stroke="midnightblue" points="1606.58,-309.21 1611.51,-299.83 1601.81,-304.09 1606.58,-309.21"/>
</g>
<!-- Node9 -->
<g id="node9" class="node">
<title>Node9</title>
<g id="a_node9"><a xlink:href="BTextCtrl_8h_source.html" target="_top" xlink:title=" ">
<polygon fill="white" stroke="black" points="1168,-280.5 1168,-299.5 1238,-299.5 1238,-280.5 1168,-280.5"/>
<text text-anchor="middle" x="1203" y="-287.5" font-family="Helvetica,sans-Serif" font-size="10.00">BTextCtrl.h</text>
</a>
</g>
</g>
<!-- Node1&#45;&gt;Node9 -->
<g id="edge8" class="edge">
<title>Node1&#45;&gt;Node9</title>
<path fill="none" stroke="midnightblue" d="M1505.96,-336.44C1434.44,-325.72 1313.33,-307.55 1247.99,-297.75"/>
<polygon fill="midnightblue" stroke="midnightblue" points="1248.41,-294.27 1238,-296.25 1247.37,-301.2 1248.41,-294.27"/>
</g>
<!-- Node10 -->
<g id="node10" class="node">
<title>Node10</title>
<g id="a_node10"><a xlink:href="Configuration_8h_source.html" target="_top" xlink:title=" ">
<polygon fill="white" stroke="black" points="1124.5,-224.5 1124.5,-243.5 1215.5,-243.5 1215.5,-224.5 1124.5,-224.5"/>
<text text-anchor="middle" x="1170" y="-231.5" font-family="Helvetica,sans-Serif" font-size="10.00">Configuration.h</text>
</a>
</g>
</g>
<!-- Node1&#45;&gt;Node10 -->
<g id="edge62" class="edge">
<title>Node1&#45;&gt;Node10</title>
<path fill="none" stroke="midnightblue" d="M1614.95,-336.5C1660.44,-326.93 1715.45,-308.84 1689,-280 1658.19,-246.41 1354.1,-237.82 1226.21,-235.68"/>
<polygon fill="midnightblue" stroke="midnightblue" points="1225.9,-232.18 1215.85,-235.52 1225.79,-239.18 1225.9,-232.18"/>
</g>
<!-- Node43 -->
<g id="node43" class="node">
<title>Node43</title>
<g id="a_node43"><a xlink:title=" ">
<polygon fill="white" stroke="#bfbfbf" points="1840.5,-280.5 1840.5,-299.5 1913.5,-299.5 1913.5,-280.5 1840.5,-280.5"/>
<text text-anchor="middle" x="1877" y="-287.5" font-family="Helvetica,sans-Serif" font-size="10.00">wx/filedlg.h</text>
</a>
</g>
</g>
<!-- Node1&#45;&gt;Node43 -->
<g id="edge60" class="edge">
<title>Node1&#45;&gt;Node43</title>
<path fill="none" stroke="midnightblue" d="M1613.43,-336.45C1666.38,-327.46 1752.06,-312.85 1826,-300 1827.44,-299.75 1828.9,-299.5 1830.38,-299.24"/>
<polygon fill="midnightblue" stroke="midnightblue" points="1830.99,-302.68 1840.23,-297.51 1829.78,-295.79 1830.99,-302.68"/>
</g>
<!-- Node44 -->
<g id="node44" class="node">
<title>Node44</title>
<g id="a_node44"><a xlink:title=" ">
<polygon fill="white" stroke="#bfbfbf" points="1932,-280.5 1932,-299.5 2006,-299.5 2006,-280.5 1932,-280.5"/>
<text text-anchor="middle" x="1969" y="-287.5" font-family="Helvetica,sans-Serif" font-size="10.00">wx/choice.h</text>
</a>
</g>
</g>
<!-- Node1&#45;&gt;Node44 -->
<g id="edge61" class="edge">
<title>Node1&#45;&gt;Node44</title>
<path fill="none" stroke="midnightblue" d="M1622.56,-338.72C1691.83,-331.16 1809.83,-317.45 1921.73,-299.94"/>
<polygon fill="midnightblue" stroke="midnightblue" points="1922.51,-303.36 1931.84,-298.35 1921.42,-296.45 1922.51,-303.36"/>
</g>
<!-- Node3 -->
<g id="node3" class="node">
<title>Node3</title>
<g id="a_node3"><a xlink:href="Version_8h_source.html" target="_top" xlink:title=" ">
<polygon fill="white" stroke="black" points="1546,-0.5 1546,-19.5 1608,-19.5 1608,-0.5 1546,-0.5"/>
<text text-anchor="middle" x="1577" y="-7.5" font-family="Helvetica,sans-Serif" font-size="10.00">Version.h</text>
</a>
</g>
</g>
<!-- Node2&#45;&gt;Node3 -->
<g id="edge2" class="edge">
<title>Node2&#45;&gt;Node3</title>
<path fill="none" stroke="midnightblue" d="M1577,-56.08C1577,-49.01 1577,-38.86 1577,-29.99"/>
<polygon fill="midnightblue" stroke="midnightblue" points="1580.5,-29.75 1577,-19.75 1573.5,-29.75 1580.5,-29.75"/>
</g>
<!-- Node9&#45;&gt;Node2 -->
<g id="edge9" class="edge">
<title>Node9&#45;&gt;Node2</title>
<path fill="none" stroke="midnightblue" d="M1238.33,-282.96C1291,-272.31 1390.58,-245.64 1453,-188 1480.75,-162.38 1464.54,-138.95 1491,-112 1505.11,-97.63 1524.8,-86.86 1541.77,-79.47"/>
<polygon fill="midnightblue" stroke="midnightblue" points="1543.48,-82.56 1551.39,-75.51 1540.81,-76.08 1543.48,-82.56"/>
</g>
<!-- Node9&#45;&gt;Node4 -->
<g id="edge10" class="edge">
<title>Node9&#45;&gt;Node4</title>
<path fill="none" stroke="midnightblue" d="M1167.7,-284.11C1075.06,-271.07 817.24,-233.5 593.59,-188.21"/>
<polygon fill="midnightblue" stroke="midnightblue" points="594.13,-184.75 583.64,-186.19 592.74,-191.61 594.13,-184.75"/>
</g>
<!-- Node9&#45;&gt;Node10 -->
<g id="edge11" class="edge">
<title>Node9&#45;&gt;Node10</title>
<path fill="none" stroke="midnightblue" d="M1197.55,-280.08C1192.99,-272.61 1186.33,-261.72 1180.71,-252.52"/>
<polygon fill="midnightblue" stroke="midnightblue" points="1183.55,-250.46 1175.35,-243.75 1177.58,-254.11 1183.55,-250.46"/>
</g>
<!-- Node10&#45;&gt;Node2 -->
<g id="edge12" class="edge">
<title>Node10&#45;&gt;Node2</title>
<path fill="none" stroke="midnightblue" d="M1215.89,-232.97C1347.41,-232.39 1718.62,-227.28 1755,-188 1801.97,-137.28 1688.09,-96.67 1621.32,-78.05"/>
<polygon fill="midnightblue" stroke="midnightblue" points="1622,-74.61 1611.43,-75.36 1620.16,-81.37 1622,-74.61"/>
</g>
<!-- Node10&#45;&gt;Node4 -->
<g id="edge13" class="edge">
<title>Node10&#45;&gt;Node4</title>
<path fill="none" stroke="midnightblue" d="M1124.18,-230.39C1009.6,-223.71 711.89,-205.4 593.48,-187.96"/>
<polygon fill="midnightblue" stroke="midnightblue" points="594.01,-184.5 583.59,-186.44 592.94,-191.42 594.01,-184.5"/>
</g>
<!-- Node11 -->
<g id="node11" class="node">
<title>Node11</title>
<g id="a_node11"><a xlink:title=" ">
<polygon fill="white" stroke="#bfbfbf" points="1097,-112.5 1097,-131.5 1169,-131.5 1169,-112.5 1097,-112.5"/>
<text text-anchor="middle" x="1133" y="-119.5" font-family="Helvetica,sans-Serif" font-size="10.00">wx/config.h</text>
</a>
</g>
</g>
<!-- Node10&#45;&gt;Node11 -->
<g id="edge14" class="edge">
<title>Node10&#45;&gt;Node11</title>
<path fill="none" stroke="midnightblue" d="M1215.82,-227.7C1265.12,-220.11 1333.05,-202.99 1306,-168 1290.56,-148.03 1224.87,-135.27 1179.04,-128.62"/>
<polygon fill="midnightblue" stroke="midnightblue" points="1179.4,-125.13 1169.01,-127.21 1178.43,-132.07 1179.4,-125.13"/>
</g>
<!-- Node12 -->
<g id="node12" class="node">
<title>Node12</title>
<g id="a_node12"><a xlink:title=" ">
<polygon fill="white" stroke="#bfbfbf" points="1220.5,-168.5 1220.5,-187.5 1297.5,-187.5 1297.5,-168.5 1220.5,-168.5"/>
<text text-anchor="middle" x="1259" y="-175.5" font-family="Helvetica,sans-Serif" font-size="10.00">wx/display.h</text>
</a>
</g>
</g>
<!-- Node10&#45;&gt;Node12 -->
<g id="edge15" class="edge">
<title>Node10&#45;&gt;Node12</title>
<path fill="none" stroke="midnightblue" d="M1184.3,-224.32C1198.18,-215.9 1219.49,-202.97 1235.8,-193.07"/>
<polygon fill="midnightblue" stroke="midnightblue" points="1238,-195.83 1244.74,-187.65 1234.37,-189.85 1238,-195.83"/>
</g>
<!-- Node13 -->
<g id="node13" class="node">
<title>Node13</title>
<g id="a_node13"><a xlink:title=" ">
<polygon fill="white" stroke="#bfbfbf" points="1354,-168.5 1354,-187.5 1444,-187.5 1444,-168.5 1354,-168.5"/>
<text text-anchor="middle" x="1399" y="-175.5" font-family="Helvetica,sans-Serif" font-size="10.00">wx/fontenum.h</text>
</a>
</g>
</g>
<!-- Node10&#45;&gt;Node13 -->
<g id="edge16" class="edge">
<title>Node10&#45;&gt;Node13</title>
<path fill="none" stroke="midnightblue" d="M1206.29,-224.44C1245.98,-215.08 1309.71,-200.06 1352.91,-189.87"/>
<polygon fill="midnightblue" stroke="midnightblue" points="1353.95,-193.22 1362.88,-187.52 1352.35,-186.41 1353.95,-193.22"/>
</g>
<!-- Node14 -->
<g id="node14" class="node">
<title>Node14</title>
<g id="a_node14"><a xlink:title=" ">
<polygon fill="white" stroke="#bfbfbf" points="1658,-168.5 1658,-187.5 1746,-187.5 1746,-168.5 1658,-168.5"/>
<text text-anchor="middle" x="1702" y="-175.5" font-family="Helvetica,sans-Serif" font-size="10.00">wx/hashmap.h</text>
</a>
</g>
</g>
<!-- Node10&#45;&gt;Node14 -->
<g id="edge17" class="edge">
<title>Node10&#45;&gt;Node14</title>
<path fill="none" stroke="midnightblue" d="M1215.6,-229.8C1299.02,-223.7 1482.01,-209.22 1647.47,-187.97"/>
<polygon fill="midnightblue" stroke="midnightblue" points="1648.37,-191.38 1657.83,-186.62 1647.47,-184.44 1648.37,-191.38"/>
</g>
<!-- Node15 -->
<g id="node15" class="node">
<title>Node15</title>
<g id="a_node15"><a xlink:href="LoggingMessageDialog_8h.html" target="_top" xlink:title="This file declares a message dialog that sends its contents to the log message sink.">
<polygon fill="white" stroke="black" points="1500.5,-168.5 1500.5,-187.5 1639.5,-187.5 1639.5,-168.5 1500.5,-168.5"/>
<text text-anchor="middle" x="1570" y="-175.5" font-family="Helvetica,sans-Serif" font-size="10.00">LoggingMessageDialog.h</text>
</a>
</g>
</g>
<!-- Node10&#45;&gt;Node15 -->
<g id="edge18" class="edge">
<title>Node10&#45;&gt;Node15</title>
<path fill="none" stroke="midnightblue" d="M1215.89,-226.81C1284.64,-217.52 1415.03,-199.92 1496.97,-188.86"/>
<polygon fill="midnightblue" stroke="midnightblue" points="1497.51,-192.32 1506.96,-187.51 1496.58,-185.38 1497.51,-192.32"/>
</g>
<!-- Node18 -->
<g id="node18" class="node">
<title>Node18</title>
<g id="a_node18"><a xlink:href="TextStyle_8h.html" target="_top" xlink:title="This file declares everything needed for the text style system used to style all the elements on the ...">
<polygon fill="white" stroke="black" points="601.5,-168.5 601.5,-187.5 672.5,-187.5 672.5,-168.5 601.5,-168.5"/>
<text text-anchor="middle" x="637" y="-175.5" font-family="Helvetica,sans-Serif" font-size="10.00">TextStyle.h</text>
</a>
</g>
</g>
<!-- Node10&#45;&gt;Node18 -->
<g id="edge22" class="edge">
<title>Node10&#45;&gt;Node18</title>
<path fill="none" stroke="midnightblue" d="M1124.24,-230.04C1038.3,-224.2 847.01,-209.81 687,-188 685.55,-187.8 684.08,-187.59 682.6,-187.37"/>
<polygon fill="midnightblue" stroke="midnightblue" points="683.14,-183.92 672.72,-185.81 682.05,-190.83 683.14,-183.92"/>
</g>
<!-- Node34 -->
<g id="node34" class="node">
<title>Node34</title>
<g id="a_node34"><a xlink:title=" ">
<polygon fill="white" stroke="#bfbfbf" points="857,-56.5 857,-75.5 915,-75.5 915,-56.5 857,-56.5"/>
<text text-anchor="middle" x="886" y="-63.5" font-family="Helvetica,sans-Serif" font-size="10.00">memory</text>
</a>
</g>
</g>
<!-- Node10&#45;&gt;Node34 -->
<g id="edge52" class="edge">
<title>Node10&#45;&gt;Node34</title>
<path fill="none" stroke="midnightblue" d="M1167.42,-224.2C1162.96,-210.44 1152.56,-183.75 1135,-168 1102.51,-138.86 984.53,-98.37 923.36,-78.68"/>
<polygon fill="midnightblue" stroke="midnightblue" points="924.28,-75.3 913.69,-75.59 922.15,-81.97 924.28,-75.3"/>
</g>
<!-- Node35 -->
<g id="node35" class="node">
<title>Node35</title>
<g id="a_node35"><a xlink:title=" ">
<polygon fill="white" stroke="#bfbfbf" points="933,-56.5 933,-75.5 965,-75.5 965,-56.5 933,-56.5"/>
<text text-anchor="middle" x="949" y="-63.5" font-family="Helvetica,sans-Serif" font-size="10.00">list</text>
</a>
</g>
</g>
<!-- Node10&#45;&gt;Node35 -->
<g id="edge56" class="edge">
<title>Node10&#45;&gt;Node35</title>
<path fill="none" stroke="midnightblue" d="M1174.09,-224.48C1183.79,-202.87 1205.42,-145.33 1178,-112 1152.59,-81.12 1030.21,-71.1 975.51,-68.14"/>
<polygon fill="midnightblue" stroke="midnightblue" points="975.39,-64.63 965.22,-67.62 975.03,-71.62 975.39,-64.63"/>
</g>
<!-- Node37 -->
<g id="node37" class="node">
<title>Node37</title>
<g id="a_node37"><a xlink:title=" ">
<polygon fill="white" stroke="#bfbfbf" points="644.5,-56.5 644.5,-75.5 737.5,-75.5 737.5,-56.5 644.5,-56.5"/>
<text text-anchor="middle" x="691" y="-63.5" font-family="Helvetica,sans-Serif" font-size="10.00">unordered_map</text>
</a>
</g>
</g>
<!-- Node10&#45;&gt;Node37 -->
<g id="edge54" class="edge">
<title>Node10&#45;&gt;Node37</title>
<path fill="none" stroke="midnightblue" d="M1124.38,-231.4C1016.04,-227.18 750.06,-214.23 720,-188 690.67,-162.4 688.26,-112.86 689.41,-85.79"/>
<polygon fill="midnightblue" stroke="midnightblue" points="692.91,-85.9 690.05,-75.7 685.92,-85.45 692.91,-85.9"/>
</g>
<!-- Node38 -->
<g id="node38" class="node">
<title>Node38</title>
<g id="a_node38"><a xlink:title=" ">
<polygon fill="white" stroke="#bfbfbf" points="729,-168.5 729,-187.5 777,-187.5 777,-168.5 729,-168.5"/>
<text text-anchor="middle" x="753" y="-175.5" font-family="Helvetica,sans-Serif" font-size="10.00">mutex</text>
</a>
</g>
</g>
<!-- Node10&#45;&gt;Node38 -->
<g id="edge53" class="edge">
<title>Node10&#45;&gt;Node38</title>
<path fill="none" stroke="midnightblue" d="M1124.44,-229.88C1054.02,-224.57 914.41,-212.12 786.99,-187.92"/>
<polygon fill="midnightblue" stroke="midnightblue" points="787.53,-184.46 777.05,-186.01 786.21,-191.34 787.53,-184.46"/>
</g>
<!-- Node39 -->
<g id="node39" class="node">
<title>Node39</title>
<g id="a_node39"><a xlink:title=" ">
<polygon fill="white" stroke="#bfbfbf" points="795,-168.5 795,-187.5 849,-187.5 849,-168.5 795,-168.5"/>
<text text-anchor="middle" x="822" y="-175.5" font-family="Helvetica,sans-Serif" font-size="10.00">random</text>
</a>
</g>
</g>
<!-- Node10&#45;&gt;Node39 -->
<g id="edge55" class="edge">
<title>Node10&#45;&gt;Node39</title>
<path fill="none" stroke="midnightblue" d="M1124.28,-227.88C1065.23,-220.95 959.09,-207.38 859.03,-188.03"/>
<polygon fill="midnightblue" stroke="midnightblue" points="859.55,-184.57 849.06,-186.08 858.2,-191.43 859.55,-184.57"/>
</g>
<!-- Node40 -->
<g id="node40" class="node">
<title>Node40</title>
<g id="a_node40"><a xlink:title=" ">
<polygon fill="white" stroke="#bfbfbf" points="867.5,-168.5 867.5,-187.5 914.5,-187.5 914.5,-168.5 867.5,-168.5"/>
<text text-anchor="middle" x="891" y="-175.5" font-family="Helvetica,sans-Serif" font-size="10.00">vector</text>
</a>
</g>
</g>
<!-- Node10&#45;&gt;Node40 -->
<g id="edge57" class="edge">
<title>Node10&#45;&gt;Node40</title>
<path fill="none" stroke="midnightblue" d="M1124.21,-225.98C1076.57,-218.38 999.62,-205.29 924.77,-188.25"/>
<polygon fill="midnightblue" stroke="midnightblue" points="925.23,-184.77 914.7,-185.93 923.66,-191.59 925.23,-184.77"/>
</g>
<!-- Node41 -->
<g id="node41" class="node">
<title>Node41</title>
<g id="a_node41"><a xlink:title=" ">
<polygon fill="white" stroke="#bfbfbf" points="932.5,-168.5 932.5,-187.5 1021.5,-187.5 1021.5,-168.5 932.5,-168.5"/>
<text text-anchor="middle" x="977" y="-175.5" font-family="Helvetica,sans-Serif" font-size="10.00">wx/wupdlock.h</text>
</a>
</g>
</g>
<!-- Node10&#45;&gt;Node41 -->
<g id="edge58" class="edge">
<title>Node10&#45;&gt;Node41</title>
<path fill="none" stroke="midnightblue" d="M1139.42,-224.44C1106.39,-215.2 1053.61,-200.44 1017.23,-190.26"/>
<polygon fill="midnightblue" stroke="midnightblue" points="1018.01,-186.84 1007.44,-187.52 1016.13,-193.58 1018.01,-186.84"/>
</g>
<!-- Node42 -->
<g id="node42" class="node">
<title>Node42</title>
<g id="a_node42"><a xlink:title=" ">
<polygon fill="white" stroke="#bfbfbf" points="1040,-168.5 1040,-187.5 1126,-187.5 1126,-168.5 1040,-168.5"/>
<text text-anchor="middle" x="1083" y="-175.5" font-family="Helvetica,sans-Serif" font-size="10.00">wx/webview.h</text>
</a>
</g>
</g>
<!-- Node10&#45;&gt;Node42 -->
<g id="edge59" class="edge">
<title>Node10&#45;&gt;Node42</title>
<path fill="none" stroke="midnightblue" d="M1156.02,-224.32C1142.45,-215.9 1121.62,-202.97 1105.68,-193.07"/>
<polygon fill="midnightblue" stroke="midnightblue" points="1107.29,-189.95 1096.94,-187.65 1103.59,-195.9 1107.29,-189.95"/>
</g>
<!-- Node15&#45;&gt;Node2 -->
<g id="edge19" class="edge">
<title>Node15&#45;&gt;Node2</title>
<path fill="none" stroke="midnightblue" d="M1610.15,-168.43C1629.97,-161.95 1652.14,-150.83 1664,-132 1679.03,-108.14 1646.79,-89.97 1617.39,-78.99"/>
<polygon fill="midnightblue" stroke="midnightblue" points="1618.2,-75.56 1607.6,-75.54 1615.87,-82.16 1618.2,-75.56"/>
</g>
<!-- Node16 -->
<g id="node16" class="node">
<title>Node16</title>
<g id="a_node16"><a xlink:title=" ">
<polygon fill="white" stroke="#bfbfbf" points="1500.5,-112.5 1500.5,-131.5 1579.5,-131.5 1579.5,-112.5 1500.5,-112.5"/>
<text text-anchor="middle" x="1540" y="-119.5" font-family="Helvetica,sans-Serif" font-size="10.00">wx/msgdlg.h</text>
</a>
</g>
</g>
<!-- Node15&#45;&gt;Node16 -->
<g id="edge20" class="edge">
<title>Node15&#45;&gt;Node16</title>
<path fill="none" stroke="midnightblue" d="M1565.05,-168.08C1560.9,-160.61 1554.85,-149.72 1549.73,-140.52"/>
<polygon fill="midnightblue" stroke="midnightblue" points="1552.78,-138.79 1544.86,-131.75 1546.66,-142.19 1552.78,-138.79"/>
</g>
<!-- Node17 -->
<g id="node17" class="node">
<title>Node17</title>
<g id="a_node17"><a xlink:title=" ">
<polygon fill="white" stroke="#bfbfbf" points="1597,-112.5 1597,-131.5 1655,-131.5 1655,-112.5 1597,-112.5"/>
<text text-anchor="middle" x="1626" y="-119.5" font-family="Helvetica,sans-Serif" font-size="10.00">wx/log.h</text>
</a>
</g>
</g>
<!-- Node15&#45;&gt;Node17 -->
<g id="edge21" class="edge">
<title>Node15&#45;&gt;Node17</title>
<path fill="none" stroke="midnightblue" d="M1579,-168.32C1587.19,-160.42 1599.51,-148.55 1609.47,-138.94"/>
<polygon fill="midnightblue" stroke="midnightblue" points="1612.07,-141.29 1616.84,-131.83 1607.21,-136.26 1612.07,-141.29"/>
</g>
<!-- Node18&#45;&gt;Node2 -->
<g id="edge23" class="edge">
<title>Node18&#45;&gt;Node2</title>
<path fill="none" stroke="midnightblue" d="M672.58,-172.92C758.86,-163 974.54,-137.96 1007,-132 1043.47,-125.3 1051.43,-118.16 1088,-112 1250.62,-84.6 1446.67,-72.92 1532.79,-68.84"/>
<polygon fill="midnightblue" stroke="midnightblue" points="1533.15,-72.33 1542.98,-68.37 1532.83,-65.33 1533.15,-72.33"/>
</g>
<!-- Node18&#45;&gt;Node11 -->
<g id="edge25" class="edge">
<title>Node18&#45;&gt;Node11</title>
<path fill="none" stroke="midnightblue" d="M672.54,-173.07C687.22,-171.47 704.43,-169.62 720,-168 881.26,-151.26 922.43,-154.38 1083,-132 1084.25,-131.83 1085.52,-131.64 1086.8,-131.45"/>
<polygon fill="midnightblue" stroke="midnightblue" points="1087.41,-134.9 1096.73,-129.88 1086.31,-127.99 1087.41,-134.9"/>
</g>
<!-- Node19 -->
<g id="node19" class="node">
<title>Node19</title>
<g id="a_node19"><a xlink:title=" ">
<polygon fill="white" stroke="#bfbfbf" points="463,-112.5 463,-131.5 535,-131.5 535,-112.5 463,-112.5"/>
<text text-anchor="middle" x="499" y="-119.5" font-family="Helvetica,sans-Serif" font-size="10.00">wx/colour.h</text>
</a>
</g>
</g>
<!-- Node18&#45;&gt;Node19 -->
<g id="edge24" class="edge">
<title>Node18&#45;&gt;Node19</title>
<path fill="none" stroke="midnightblue" d="M615.13,-168.44C592.22,-159.48 556.02,-145.31 530.13,-135.18"/>
<polygon fill="midnightblue" stroke="midnightblue" points="531.35,-131.9 520.76,-131.52 528.8,-138.42 531.35,-131.9"/>
</g>
<!-- Node20 -->
<g id="node20" class="node">
<title>Node20</title>
<g id="a_node20"><a xlink:title=" ">
<polygon fill="white" stroke="#bfbfbf" points="564,-56.5 564,-75.5 626,-75.5 626,-56.5 564,-56.5"/>
<text text-anchor="middle" x="595" y="-63.5" font-family="Helvetica,sans-Serif" font-size="10.00">wx/font.h</text>
</a>
</g>
</g>
<!-- Node18&#45;&gt;Node20 -->
<g id="edge26" class="edge">
<title>Node18&#45;&gt;Node20</title>
<path fill="none" stroke="midnightblue" d="M601.12,-169.36C549.15,-158.13 458.59,-137.86 454,-132 448.52,-125 448.76,-119.18 454,-112 460.12,-103.63 514.6,-87.92 554.01,-77.45"/>
<polygon fill="midnightblue" stroke="midnightblue" points="555.13,-80.78 563.91,-74.85 553.35,-74.01 555.13,-80.78"/>
</g>
<!-- Node21 -->
<g id="node21" class="node">
<title>Node21</title>
<g id="a_node21"><a xlink:title=" ">
<polygon fill="white" stroke="#bfbfbf" points="553,-112.5 553,-131.5 635,-131.5 635,-112.5 553,-112.5"/>
<text text-anchor="middle" x="594" y="-119.5" font-family="Helvetica,sans-Serif" font-size="10.00">wx/settings.h</text>
</a>
</g>
</g>
<!-- Node18&#45;&gt;Node21 -->
<g id="edge27" class="edge">
<title>Node18&#45;&gt;Node21</title>
<path fill="none" stroke="midnightblue" d="M629.9,-168.08C623.76,-160.38 614.73,-149.03 607.26,-139.65"/>
<polygon fill="midnightblue" stroke="midnightblue" points="609.94,-137.39 600.97,-131.75 604.46,-141.75 609.94,-137.39"/>
</g>
<!-- Node22 -->
<g id="node22" class="node">
<title>Node22</title>
<g id="a_node22"><a xlink:title=" ">
<polygon fill="white" stroke="#bfbfbf" points="0,-56.5 0,-75.5 50,-75.5 50,-56.5 0,-56.5"/>
<text text-anchor="middle" x="25" y="-63.5" font-family="Helvetica,sans-Serif" font-size="10.00">cstdint</text>
</a>
</g>
</g>
<!-- Node18&#45;&gt;Node22 -->
<g id="edge28" class="edge">
<title>Node18&#45;&gt;Node22</title>
<path fill="none" stroke="midnightblue" d="M601.18,-169.6C598.08,-169.03 594.99,-168.49 592,-168 468.63,-147.73 436.17,-153.48 313,-132 202.23,-112.68 172.93,-103.74 59.95,-76.17"/>
<polygon fill="midnightblue" stroke="midnightblue" points="60.77,-72.77 50.22,-73.8 59.11,-79.57 60.77,-72.77"/>
</g>
<!-- Node23 -->
<g id="node23" class="node">
<title>Node23</title>
<g id="a_node23"><a xlink:title=" ">
<polygon fill="white" stroke="#bfbfbf" points="532.5,-0.5 532.5,-19.5 597.5,-19.5 597.5,-0.5 532.5,-0.5"/>
<text text-anchor="middle" x="565" y="-7.5" font-family="Helvetica,sans-Serif" font-size="10.00">functional</text>
</a>
</g>
</g>
<!-- Node18&#45;&gt;Node23 -->
<g id="edge29" class="edge">
<title>Node18&#45;&gt;Node23</title>
<path fill="none" stroke="midnightblue" d="M672.79,-173.58C719.49,-168.34 803.23,-156.28 871,-132 924.56,-112.81 1011.96,-98.37 974,-56 949.86,-29.06 707.81,-16.58 607.84,-12.54"/>
<polygon fill="midnightblue" stroke="midnightblue" points="607.91,-9.04 597.78,-12.14 607.63,-16.04 607.91,-9.04"/>
</g>
<!-- Node24 -->
<g id="node24" class="node">
<title>Node24</title>
<g id="a_node24"><a xlink:href="FontAttribs_8h_source.html" target="_top" xlink:title=" ">
<polygon fill="white" stroke="black" points="322.5,-112.5 322.5,-131.5 401.5,-131.5 401.5,-112.5 322.5,-112.5"/>
<text text-anchor="middle" x="362" y="-119.5" font-family="Helvetica,sans-Serif" font-size="10.00">FontAttribs.h</text>
</a>
</g>
</g>
<!-- Node18&#45;&gt;Node24 -->
<g id="edge30" class="edge">
<title>Node18&#45;&gt;Node24</title>
<path fill="none" stroke="midnightblue" d="M601.14,-169.81C598.05,-169.2 594.97,-168.59 592,-168 529.9,-155.72 458.33,-141.74 411.74,-132.67"/>
<polygon fill="midnightblue" stroke="midnightblue" points="412.38,-129.23 401.9,-130.75 411.05,-136.1 412.38,-129.23"/>
</g>
<!-- Node33 -->
<g id="node33" class="node">
<title>Node33</title>
<g id="a_node33"><a xlink:href="FontVariantCache_8h.html" target="_top" xlink:title="This file implements the wxFont cache system.">
<polygon fill="white" stroke="black" points="751.5,-112.5 751.5,-131.5 862.5,-131.5 862.5,-112.5 751.5,-112.5"/>
<text text-anchor="middle" x="807" y="-119.5" font-family="Helvetica,sans-Serif" font-size="10.00">FontVariantCache.h</text>
</a>
</g>
</g>
<!-- Node18&#45;&gt;Node33 -->
<g id="edge43" class="edge">
<title>Node18&#45;&gt;Node33</title>
<path fill="none" stroke="midnightblue" d="M663.94,-168.44C692.66,-159.32 738.33,-144.81 770.32,-134.65"/>
<polygon fill="midnightblue" stroke="midnightblue" points="771.72,-137.88 780.19,-131.52 769.6,-131.21 771.72,-137.88"/>
</g>
<!-- Node18&#45;&gt;Node37 -->
<g id="edge51" class="edge">
<title>Node18&#45;&gt;Node37</title>
<path fill="none" stroke="midnightblue" d="M641.24,-168.37C650.07,-150.38 670.6,-108.55 682.35,-84.63"/>
<polygon fill="midnightblue" stroke="midnightblue" points="685.52,-86.11 686.78,-75.59 679.23,-83.03 685.52,-86.11"/>
</g>
<!-- Node24&#45;&gt;Node20 -->
<g id="edge37" class="edge">
<title>Node24&#45;&gt;Node20</title>
<path fill="none" stroke="midnightblue" d="M398.92,-112.44C441.18,-102.65 510.21,-86.65 554.08,-76.48"/>
<polygon fill="midnightblue" stroke="midnightblue" points="554.89,-79.89 563.85,-74.22 553.31,-73.07 554.89,-79.89"/>
</g>
<!-- Node24&#45;&gt;Node22 -->
<g id="edge40" class="edge">
<title>Node24&#45;&gt;Node22</title>
<path fill="none" stroke="midnightblue" d="M322.05,-116.5C265.72,-109.85 159.62,-96.17 60.1,-76.03"/>
<polygon fill="midnightblue" stroke="midnightblue" points="60.68,-72.58 50.18,-74 59.27,-79.44 60.68,-72.58"/>
</g>
<!-- Node24&#45;&gt;Node23 -->
<g id="edge41" class="edge">
<title>Node24&#45;&gt;Node23</title>
<path fill="none" stroke="midnightblue" d="M347.29,-112.37C327.53,-99.72 296.67,-75.5 313,-56 339.15,-24.77 457.04,-15.19 521.9,-12.27"/>
<polygon fill="midnightblue" stroke="midnightblue" points="522.36,-15.75 532.21,-11.84 522.07,-8.76 522.36,-15.75"/>
</g>
<!-- Node25 -->
<g id="node25" class="node">
<title>Node25</title>
<g id="a_node25"><a xlink:href="EnumWrapper_8h_source.html" target="_top" xlink:title=" ">
<polygon fill="white" stroke="black" points="68,-56.5 68,-75.5 162,-75.5 162,-56.5 68,-56.5"/>
<text text-anchor="middle" x="115" y="-63.5" font-family="Helvetica,sans-Serif" font-size="10.00">EnumWrapper.h</text>
</a>
</g>
</g>
<!-- Node24&#45;&gt;Node25 -->
<g id="edge31" class="edge">
<title>Node24&#45;&gt;Node25</title>
<path fill="none" stroke="midnightblue" d="M322.86,-112.44C279.77,-103.02 210.44,-87.87 163.83,-77.68"/>
<polygon fill="midnightblue" stroke="midnightblue" points="164.47,-74.23 153.95,-75.52 162.98,-81.07 164.47,-74.23"/>
</g>
<!-- Node28 -->
<g id="node28" class="node">
<title>Node28</title>
<g id="a_node28"><a xlink:href="clamp_8hpp_source.html" target="_top" xlink:title=" ">
<polygon fill="white" stroke="black" points="180,-56.5 180,-75.5 266,-75.5 266,-56.5 180,-56.5"/>
<text text-anchor="middle" x="223" y="-63.5" font-family="Helvetica,sans-Serif" font-size="10.00">stx/clamp.hpp</text>
</a>
</g>
</g>
<!-- Node24&#45;&gt;Node28 -->
<g id="edge35" class="edge">
<title>Node24&#45;&gt;Node28</title>
<path fill="none" stroke="midnightblue" d="M339.98,-112.44C316.9,-103.48 280.44,-89.31 254.36,-79.18"/>
<polygon fill="midnightblue" stroke="midnightblue" points="255.51,-75.88 244.92,-75.52 252.98,-82.4 255.51,-75.88"/>
</g>
<!-- Node30 -->
<g id="node30" class="node">
<title>Node30</title>
<g id="a_node30"><a xlink:title=" ">
<polygon fill="white" stroke="#bfbfbf" points="322.5,-56.5 322.5,-75.5 401.5,-75.5 401.5,-56.5 322.5,-56.5"/>
<text text-anchor="middle" x="362" y="-63.5" font-family="Helvetica,sans-Serif" font-size="10.00">wx/version.h</text>
</a>
</g>
</g>
<!-- Node24&#45;&gt;Node30 -->
<g id="edge38" class="edge">
<title>Node24&#45;&gt;Node30</title>
<path fill="none" stroke="midnightblue" d="M362,-112.08C362,-105.01 362,-94.86 362,-85.99"/>
<polygon fill="midnightblue" stroke="midnightblue" points="365.5,-85.75 362,-75.75 358.5,-85.75 365.5,-85.75"/>
</g>
<!-- Node31 -->
<g id="node31" class="node">
<title>Node31</title>
<g id="a_node31"><a xlink:title=" ">
<polygon fill="white" stroke="#bfbfbf" points="420,-56.5 420,-75.5 484,-75.5 484,-56.5 420,-56.5"/>
<text text-anchor="middle" x="452" y="-63.5" font-family="Helvetica,sans-Serif" font-size="10.00">algorithm</text>
</a>
</g>
</g>
<!-- Node24&#45;&gt;Node31 -->
<g id="edge39" class="edge">
<title>Node24&#45;&gt;Node31</title>
<path fill="none" stroke="midnightblue" d="M376.46,-112.32C390.5,-103.9 412.05,-90.97 428.54,-81.07"/>
<polygon fill="midnightblue" stroke="midnightblue" points="430.8,-83.8 437.58,-75.65 427.2,-77.8 430.8,-83.8"/>
</g>
<!-- Node32 -->
<g id="node32" class="node">
<title>Node32</title>
<g id="a_node32"><a xlink:title=" ">
<polygon fill="white" stroke="#bfbfbf" points="502,-56.5 502,-75.5 546,-75.5 546,-56.5 502,-56.5"/>
<text text-anchor="middle" x="524" y="-63.5" font-family="Helvetica,sans-Serif" font-size="10.00">limits</text>
</a>
</g>
</g>
<!-- Node24&#45;&gt;Node32 -->
<g id="edge42" class="edge">
<title>Node24&#45;&gt;Node32</title>
<path fill="none" stroke="midnightblue" d="M387.67,-112.44C415.96,-103.01 461.52,-87.83 492.09,-77.64"/>
<polygon fill="midnightblue" stroke="midnightblue" points="493.45,-80.87 501.83,-74.39 491.24,-74.23 493.45,-80.87"/>
</g>
<!-- Node25&#45;&gt;Node23 -->
<g id="edge33" class="edge">
<title>Node25&#45;&gt;Node23</title>
<path fill="none" stroke="midnightblue" d="M162.03,-57.28C165.06,-56.83 168.07,-56.4 171,-56 298.42,-38.49 449.68,-22.57 522.14,-15.25"/>
<polygon fill="midnightblue" stroke="midnightblue" points="522.65,-18.71 532.25,-14.23 521.95,-11.75 522.65,-18.71"/>
</g>
<!-- Node26 -->
<g id="node26" class="node">
<title>Node26</title>
<g id="a_node26"><a xlink:title=" ">
<polygon fill="white" stroke="#bfbfbf" points="107.5,-0.5 107.5,-19.5 160.5,-19.5 160.5,-0.5 107.5,-0.5"/>
<text text-anchor="middle" x="134" y="-7.5" font-family="Helvetica,sans-Serif" font-size="10.00">cstddef</text>
</a>
</g>
</g>
<!-- Node25&#45;&gt;Node26 -->
<g id="edge32" class="edge">
<title>Node25&#45;&gt;Node26</title>
<path fill="none" stroke="midnightblue" d="M118.14,-56.08C120.68,-48.85 124.36,-38.41 127.53,-29.4"/>
<polygon fill="midnightblue" stroke="midnightblue" points="130.9,-30.35 130.92,-19.75 124.3,-28.02 130.9,-30.35"/>
</g>
<!-- Node27 -->
<g id="node27" class="node">
<title>Node27</title>
<g id="a_node27"><a xlink:title=" ">
<polygon fill="white" stroke="#bfbfbf" points="20.5,-0.5 20.5,-19.5 89.5,-19.5 89.5,-0.5 20.5,-0.5"/>
<text text-anchor="middle" x="55" y="-7.5" font-family="Helvetica,sans-Serif" font-size="10.00">type_traits</text>
</a>
</g>
</g>
<!-- Node25&#45;&gt;Node27 -->
<g id="edge34" class="edge">
<title>Node25&#45;&gt;Node27</title>
<path fill="none" stroke="midnightblue" d="M105.36,-56.32C96.49,-48.34 83.13,-36.31 72.39,-26.65"/>
<polygon fill="midnightblue" stroke="midnightblue" points="74.59,-23.92 64.82,-19.83 69.91,-29.13 74.59,-23.92"/>
</g>
<!-- Node29 -->
<g id="node29" class="node">
<title>Node29</title>
<g id="a_node29"><a xlink:title=" ">
<polygon fill="white" stroke="#bfbfbf" points="197,-0.5 197,-19.5 249,-19.5 249,-0.5 197,-0.5"/>
<text text-anchor="middle" x="223" y="-7.5" font-family="Helvetica,sans-Serif" font-size="10.00">cassert</text>
</a>
</g>
</g>
<!-- Node28&#45;&gt;Node29 -->
<g id="edge36" class="edge">
<title>Node28&#45;&gt;Node29</title>
<path fill="none" stroke="midnightblue" d="M223,-56.08C223,-49.01 223,-38.86 223,-29.99"/>
<polygon fill="midnightblue" stroke="midnightblue" points="226.5,-29.75 223,-19.75 219.5,-29.75 226.5,-29.75"/>
</g>
<!-- Node33&#45;&gt;Node2 -->
<g id="edge44" class="edge">
<title>Node33&#45;&gt;Node2</title>
<path fill="none" stroke="midnightblue" d="M862.69,-117.09C1008.66,-106.86 1400.23,-79.4 1532.58,-70.11"/>
<polygon fill="midnightblue" stroke="midnightblue" points="1533.02,-73.59 1542.76,-69.4 1532.53,-66.61 1533.02,-73.59"/>
</g>
<!-- Node33&#45;&gt;Node20 -->
<g id="edge46" class="edge">
<title>Node33&#45;&gt;Node20</title>
<path fill="none" stroke="midnightblue" d="M773.41,-112.44C736.06,-102.93 675.74,-87.57 635.73,-77.37"/>
<polygon fill="midnightblue" stroke="midnightblue" points="636.58,-73.98 626.02,-74.9 634.85,-80.76 636.58,-73.98"/>
</g>
<!-- Node33&#45;&gt;Node23 -->
<g id="edge47" class="edge">
<title>Node33&#45;&gt;Node23</title>
<path fill="none" stroke="midnightblue" d="M810.54,-112.26C815.44,-98.56 822.29,-71.97 809,-56 783.87,-25.82 670.74,-15.8 607.73,-12.54"/>
<polygon fill="midnightblue" stroke="midnightblue" points="607.85,-9.04 597.69,-12.05 607.51,-16.03 607.85,-9.04"/>
</g>
<!-- Node33&#45;&gt;Node34 -->
<g id="edge45" class="edge">
<title>Node33&#45;&gt;Node34</title>
<path fill="none" stroke="midnightblue" d="M819.69,-112.32C831.9,-103.98 850.58,-91.21 865,-81.35"/>
<polygon fill="midnightblue" stroke="midnightblue" points="867.06,-84.19 873.34,-75.65 863.11,-78.41 867.06,-84.19"/>
</g>
<!-- Node33&#45;&gt;Node35 -->
<g id="edge48" class="edge">
<title>Node33&#45;&gt;Node35</title>
<path fill="none" stroke="midnightblue" d="M829.5,-112.44C855.02,-102.74 896.55,-86.95 923.32,-76.77"/>
<polygon fill="midnightblue" stroke="midnightblue" points="924.69,-79.99 932.79,-73.16 922.2,-73.45 924.69,-79.99"/>
</g>
<!-- Node36 -->
<g id="node36" class="node">
<title>Node36</title>
<g id="a_node36"><a xlink:title=" ">
<polygon fill="white" stroke="#bfbfbf" points="755.5,-56.5 755.5,-75.5 800.5,-75.5 800.5,-56.5 755.5,-56.5"/>
<text text-anchor="middle" x="778" y="-63.5" font-family="Helvetica,sans-Serif" font-size="10.00">utility</text>
</a>
</g>
</g>
<!-- Node33&#45;&gt;Node36 -->
<g id="edge49" class="edge">
<title>Node33&#45;&gt;Node36</title>
<path fill="none" stroke="midnightblue" d="M802.21,-112.08C798.24,-104.69 792.47,-93.95 787.57,-84.81"/>
<polygon fill="midnightblue" stroke="midnightblue" points="790.51,-82.91 782.7,-75.75 784.35,-86.22 790.51,-82.91"/>
</g>
<!-- Node33&#45;&gt;Node37 -->
<g id="edge50" class="edge">
<title>Node33&#45;&gt;Node37</title>
<path fill="none" stroke="midnightblue" d="M788.62,-112.44C769.78,-103.68 740.27,-89.94 718.62,-79.86"/>
<polygon fill="midnightblue" stroke="midnightblue" points="719.84,-76.56 709.29,-75.52 716.88,-82.91 719.84,-76.56"/>
</g>
</g>
</svg>
