<?xml version="1.0" encoding="UTF-8" standalone="no"?>
<!DOCTYPE svg PUBLIC "-//W3C//DTD SVG 1.1//EN"
 "http://www.w3.org/Graphics/SVG/1.1/DTD/svg11.dtd">
<!-- Generated by graphviz version 2.43.0 (0)
 -->
<!-- Title: src/dialogs Pages: 1 -->
<svg width="166pt" height="133pt"
 viewBox="0.00 0.00 166.00 133.00" xmlns="http://www.w3.org/2000/svg" xmlns:xlink="http://www.w3.org/1999/xlink">
<g id="graph0" class="graph" transform="scale(1 1) rotate(0) translate(4 129)">
<title>src/dialogs</title>
<g id="clust1" class="cluster">
<title>clusterdir_68267d1309a1af8e8297ef4c3efbcdba</title>
<g id="a_clust1"><a xlink:href="dir_68267d1309a1af8e8297ef4c3efbcdba.html" target="_top" xlink:title="src">
<polygon fill="#edf0f7" stroke="#404040" stroke-dasharray="5,2" points="8,-8 8,-117 150,-117 150,-8 8,-8"/>
<text text-anchor="middle" x="79" y="-105" font-family="Helvetica,sans-Serif" font-size="10.00">src</text>
</a>
</g>
</g>
<!-- dir_2e2a2979d943a16aa37a98c086a549c7 -->
<g id="node1" class="node">
<title>dir_2e2a2979d943a16aa37a98c086a549c7</title>
<g id="a_node1"><a xlink:href="dir_2e2a2979d943a16aa37a98c086a549c7.html" target="_top" xlink:title="cells">
<polygon fill="#a2b4d6" stroke="#404040" points="55.5,-35 16.5,-35 16.5,-16 55.5,-16 55.5,-35"/>
<text text-anchor="middle" x="36" y="-23" font-family="Helvetica,sans-Serif" font-size="10.00">cells</text>
</a>
</g>
</g>
<!-- dir_77e3d816d0344befe5c019023fa466b6 -->
<g id="node2" class="node">
<title>dir_77e3d816d0344befe5c019023fa466b6</title>
<g id="a_node2"><a xlink:href="dir_77e3d816d0344befe5c019023fa466b6.html" target="_top" xlink:title="worksheet">
<polygon fill="#a2b4d6" stroke="#404040" points="142,-35 74,-35 74,-16 142,-16 142,-35"/>
<text text-anchor="middle" x="108" y="-23" font-family="Helvetica,sans-Serif" font-size="10.00">worksheet</text>
</a>
</g>
</g>
<!-- dir_9870864803860a03def48f6710b1f137 -->
<g id="node3" class="node">
<title>dir_9870864803860a03def48f6710b1f137</title>
<g id="a_node3"><a xlink:href="dir_9870864803860a03def48f6710b1f137.html" target="_top" xlink:title="dialogs">
<polygon fill="#edf0f7" stroke="#404040" stroke-width="2" points="101,-90 49,-90 49,-71 101,-71 101,-90"/>
<text text-anchor="middle" x="75" y="-78" font-family="Helvetica,sans-Serif" font-size="10.00">dialogs</text>
</a>
</g>
</g>
<!-- dir_9870864803860a03def48f6710b1f137&#45;&gt;dir_2e2a2979d943a16aa37a98c086a549c7 -->
<g id="edge1" class="edge">
<title>dir_9870864803860a03def48f6710b1f137&#45;&gt;dir_2e2a2979d943a16aa37a98c086a549c7</title>
<path fill="none" stroke="#63b8ff" d="M68.56,-70.75C63.11,-63.34 55.14,-52.5 48.44,-43.41"/>
<polygon fill="#63b8ff" stroke="#63b8ff" points="51.07,-41.07 42.32,-35.09 45.43,-45.22 51.07,-41.07"/>
<g id="a_edge1&#45;headlabel"><a xlink:href="dir_000006_000002.html" target="_top" xlink:title="6">
<text text-anchor="middle" x="55.48" y="-39.78" font-family="Helvetica,sans-Serif" font-size="10.00" fill="#63b8ff">6</text>
</a>
</g>
</g>
<!-- dir_9870864803860a03def48f6710b1f137&#45;&gt;dir_77e3d816d0344befe5c019023fa466b6 -->
<g id="edge2" class="edge">
<title>dir_9870864803860a03def48f6710b1f137&#45;&gt;dir_77e3d816d0344befe5c019023fa466b6</title>
<path fill="none" stroke="#63b8ff" d="M80.45,-70.75C85.01,-63.42 91.67,-52.73 97.29,-43.7"/>
<polygon fill="#63b8ff" stroke="#63b8ff" points="100.34,-45.43 102.65,-35.09 94.4,-41.73 100.34,-45.43"/>
<g id="a_edge2&#45;headlabel"><a xlink:href="dir_000006_000031.html" target="_top" xlink:title="2">
<text text-anchor="middle" x="100.85" y="-47.48" font-family="Helvetica,sans-Serif" font-size="10.00" fill="#63b8ff">2</text>
</a>
</g>
</g>
</g>
</svg>
