<?xml version="1.0" encoding="UTF-8" standalone="no"?>
<!DOCTYPE svg PUBLIC "-//W3C//DTD SVG 1.1//EN"
 "http://www.w3.org/Graphics/SVG/1.1/DTD/svg11.dtd">
<!-- Generated by graphviz version 2.43.0 (0)
 -->
<!-- Title: src/Dirstructure.cpp Pages: 1 -->
<!--zoomable 192 -->
<svg id="main" version="1.1" xmlns="http://www.w3.org/2000/svg" xmlns:xlink="http://www.w3.org/1999/xlink" xml:space="preserve" onload="init(evt)">
<style type="text/css"><![CDATA[
.edge:hover path { stroke: red; }
.edge:hover polygon { stroke: red; fill: red; }
]]></style>
<script type="text/javascript"><![CDATA[
var edges = document.getElementsByTagName('g');
if (edges && edges.length) {
  for (var i=0;i<edges.length;i++) {
    if (edges[i].id.substr(0,4)=='edge') {
      edges[i].setAttribute('class','edge');
    }
  }
}
]]></script>
        <defs>
                <circle id="rim" cx="0" cy="0" r="7"/>
                <circle id="rim2" cx="0" cy="0" r="3.5"/>
                <g id="zoomPlus">
                        <use xlink:href="#rim" fill="#404040">
                                <set attributeName="fill" to="#808080" begin="zoomplus.mouseover" end="zoomplus.mouseout"/>
                        </use>
                        <path d="M-4,0h8M0,-4v8" fill="none" stroke="white" stroke-width="1.5" pointer-events="none"/>
                </g>
                <g id="zoomMin">
                        <use xlink:href="#rim" fill="#404040">
                                <set attributeName="fill" to="#808080" begin="zoomminus.mouseover" end="zoomminus.mouseout"/>
                        </use>
                        <path d="M-4,0h8" fill="none" stroke="white" stroke-width="1.5" pointer-events="none"/>
                </g>
                <g id="dirArrow">
                        <path fill="none" stroke="white" stroke-width="1.5" d="M0,-3.0v7 M-2.5,-0.5L0,-3.0L2.5,-0.5"/>
                </g>
               <g id="resetDef">
                       <use xlink:href="#rim2" fill="#404040">
                               <set attributeName="fill" to="#808080" begin="reset.mouseover" end="reset.mouseout"/>
                       </use>
               </g>
        </defs>

<script type="text/javascript">
var viewWidth = 698;
var viewHeight = 192;
var sectionId = 'dynsection-0';
</script>
<script xlink:href="svgpan.js"/>
<svg id="graph" class="graph">
<g id="viewport">
<title>src/Dirstructure.cpp</title>
<!-- Node1 -->
<g id="node1" class="node">
<title>Node1</title>
<g id="a_node1"><a xlink:title="This file defines the class DirStructure.">
<polygon fill="#999999" stroke="#666666" points="450.8,-184 338.8,-184 338.8,-165 450.8,-165 450.8,-184"/>
<text text-anchor="middle" x="394.8" y="-172" font-family="Helvetica,sans-Serif" font-size="10.00">src/Dirstructure.cpp</text>
</a>
</g>
</g>
<!-- Node2 -->
<g id="node2" class="node">
<title>Node2</title>
<g id="a_node2"><a xlink:href="Dirstructure_8h.html" target="_top" xlink:title="This file declares the class DirStructure.">
<polygon fill="white" stroke="#666666" points="345.3,-129 262.3,-129 262.3,-110 345.3,-110 345.3,-129"/>
<text text-anchor="middle" x="303.8" y="-117" font-family="Helvetica,sans-Serif" font-size="10.00">Dirstructure.h</text>
</a>
</g>
</g>
<!-- Node1&#45;&gt;Node2 -->
<g id="edge1" class="edge">
<title>Node1&#45;&gt;Node2</title>
<path fill="none" stroke="#63b8ff" d="M380.18,-164.98C365.94,-156.69 344.05,-143.94 327.35,-134.22"/>
<polygon fill="#63b8ff" stroke="#63b8ff" points="329.09,-131.18 318.69,-129.17 325.57,-137.23 329.09,-131.18"/>
</g>
<!-- Node4 -->
<g id="node4" class="node">
<title>Node4</title>
<g id="a_node4"><a xlink:title=" ">
<polygon fill="#e0e0e0" stroke="#999999" points="145.3,-19 64.3,-19 64.3,0 145.3,0 145.3,-19"/>
<text text-anchor="middle" x="104.8" y="-7" font-family="Helvetica,sans-Serif" font-size="10.00">BuildConfig.h</text>
</a>
</g>
</g>
<!-- Node1&#45;&gt;Node4 -->
<g id="edge13" class="edge">
<title>Node1&#45;&gt;Node4</title>
<path fill="none" stroke="#63b8ff" d="M338.75,-171.22C254.47,-166.96 99.83,-155.68 51.8,-129 18.15,-110.31 -14.04,-87.36 6.8,-55 17.57,-38.29 36.31,-27.78 54.54,-21.21"/>
<polygon fill="#63b8ff" stroke="#63b8ff" points="55.85,-24.46 64.27,-18.03 53.67,-17.81 55.85,-24.46"/>
</g>
<!-- Node9 -->
<g id="node9" class="node">
<title>Node9</title>
<g id="a_node9"><a xlink:href="LoggingMessageDialog_8h.html" target="_top" xlink:title="This file declares a message dialog that sends its contents to the log message sink.">
<polygon fill="white" stroke="#666666" points="237.3,-129 60.3,-129 60.3,-110 237.3,-110 237.3,-129"/>
<text text-anchor="middle" x="148.8" y="-117" font-family="Helvetica,sans-Serif" font-size="10.00">dialogs/LoggingMessageDialog.h</text>
</a>
</g>
</g>
<!-- Node1&#45;&gt;Node9 -->
<g id="edge8" class="edge">
<title>Node1&#45;&gt;Node9</title>
<path fill="none" stroke="#63b8ff" d="M355.28,-164.98C312.64,-155.8 244.65,-141.15 198.44,-131.19"/>
<polygon fill="#63b8ff" stroke="#63b8ff" points="199.15,-127.77 188.64,-129.08 197.67,-134.61 199.15,-127.77"/>
</g>
<!-- Node12 -->
<g id="node12" class="node">
<title>Node12</title>
<g id="a_node12"><a xlink:title=" ">
<polygon fill="#e0e0e0" stroke="#999999" points="425.8,-129 363.8,-129 363.8,-110 425.8,-110 425.8,-129"/>
<text text-anchor="middle" x="394.8" y="-117" font-family="Helvetica,sans-Serif" font-size="10.00">Version.h</text>
</a>
</g>
</g>
<!-- Node1&#45;&gt;Node12 -->
<g id="edge12" class="edge">
<title>Node1&#45;&gt;Node12</title>
<path fill="none" stroke="#63b8ff" d="M394.8,-164.75C394.8,-157.8 394.8,-147.85 394.8,-139.13"/>
<polygon fill="#63b8ff" stroke="#63b8ff" points="398.3,-139.09 394.8,-129.09 391.3,-139.09 398.3,-139.09"/>
</g>
<!-- Node13 -->
<g id="node13" class="node">
<title>Node13</title>
<g id="a_node13"><a xlink:title=" ">
<polygon fill="#e0e0e0" stroke="#999999" points="499.3,-129 444.3,-129 444.3,-110 499.3,-110 499.3,-129"/>
<text text-anchor="middle" x="471.8" y="-117" font-family="Helvetica,sans-Serif" font-size="10.00">wx/dir.h</text>
</a>
</g>
</g>
<!-- Node1&#45;&gt;Node13 -->
<g id="edge14" class="edge">
<title>Node1&#45;&gt;Node13</title>
<path fill="none" stroke="#63b8ff" d="M407.17,-164.98C418.89,-156.92 436.72,-144.65 450.69,-135.03"/>
<polygon fill="#63b8ff" stroke="#63b8ff" points="452.95,-137.72 459.2,-129.17 448.98,-131.96 452.95,-137.72"/>
</g>
<!-- Node14 -->
<g id="node14" class="node">
<title>Node14</title>
<g id="a_node14"><a xlink:title=" ">
<polygon fill="#e0e0e0" stroke="#999999" points="585.8,-129 517.8,-129 517.8,-110 585.8,-110 585.8,-129"/>
<text text-anchor="middle" x="551.8" y="-117" font-family="Helvetica,sans-Serif" font-size="10.00">wx/filefn.h</text>
</a>
</g>
</g>
<!-- Node1&#45;&gt;Node14 -->
<g id="edge15" class="edge">
<title>Node1&#45;&gt;Node14</title>
<path fill="none" stroke="#63b8ff" d="M420.03,-164.98C446.16,-156.16 487.2,-142.31 516.53,-132.41"/>
<polygon fill="#63b8ff" stroke="#63b8ff" points="518.02,-135.6 526.38,-129.08 515.78,-128.96 518.02,-135.6"/>
</g>
<!-- Node15 -->
<g id="node15" class="node">
<title>Node15</title>
<g id="a_node15"><a xlink:title=" ">
<polygon fill="#e0e0e0" stroke="#999999" points="689.8,-129 603.8,-129 603.8,-110 689.8,-110 689.8,-129"/>
<text text-anchor="middle" x="646.8" y="-117" font-family="Helvetica,sans-Serif" font-size="10.00">wx/filename.h</text>
</a>
</g>
</g>
<!-- Node1&#45;&gt;Node15 -->
<g id="edge16" class="edge">
<title>Node1&#45;&gt;Node15</title>
<path fill="none" stroke="#63b8ff" d="M435.29,-164.98C478.97,-155.8 548.61,-141.15 595.95,-131.19"/>
<polygon fill="#63b8ff" stroke="#63b8ff" points="596.93,-134.57 606,-129.08 595.49,-127.72 596.93,-134.57"/>
</g>
<!-- Node3 -->
<g id="node3" class="node">
<title>Node3</title>
<g id="a_node3"><a xlink:href="precomp_8h_source.html" target="_top" xlink:title=" ">
<polygon fill="white" stroke="#666666" points="256.8,-74 188.8,-74 188.8,-55 256.8,-55 256.8,-74"/>
<text text-anchor="middle" x="222.8" y="-62" font-family="Helvetica,sans-Serif" font-size="10.00">precomp.h</text>
</a>
</g>
</g>
<!-- Node2&#45;&gt;Node3 -->
<g id="edge2" class="edge">
<title>Node2&#45;&gt;Node3</title>
<path fill="none" stroke="#63b8ff" d="M290.79,-109.98C278.34,-101.84 259.35,-89.41 244.59,-79.76"/>
<polygon fill="#63b8ff" stroke="#63b8ff" points="246.34,-76.72 236.05,-74.17 242.5,-82.57 246.34,-76.72"/>
</g>
<!-- Node5 -->
<g id="node5" class="node">
<title>Node5</title>
<g id="a_node5"><a xlink:title=" ">
<polygon fill="#e0e0e0" stroke="#999999" points="332.3,-74 275.3,-74 275.3,-55 332.3,-55 332.3,-74"/>
<text text-anchor="middle" x="303.8" y="-62" font-family="Helvetica,sans-Serif" font-size="10.00">wx/wx.h</text>
</a>
</g>
</g>
<!-- Node2&#45;&gt;Node5 -->
<g id="edge4" class="edge">
<title>Node2&#45;&gt;Node5</title>
<path fill="none" stroke="#63b8ff" d="M303.8,-109.75C303.8,-102.8 303.8,-92.85 303.8,-84.13"/>
<polygon fill="#63b8ff" stroke="#63b8ff" points="307.3,-84.09 303.8,-74.09 300.3,-84.09 307.3,-84.09"/>
</g>
<!-- Node6 -->
<g id="node6" class="node">
<title>Node6</title>
<g id="a_node6"><a xlink:title=" ">
<polygon fill="#e0e0e0" stroke="#999999" points="421.3,-74 350.3,-74 350.3,-55 421.3,-55 421.3,-74"/>
<text text-anchor="middle" x="385.8" y="-62" font-family="Helvetica,sans-Serif" font-size="10.00">wx/string.h</text>
</a>
</g>
</g>
<!-- Node2&#45;&gt;Node6 -->
<g id="edge5" class="edge">
<title>Node2&#45;&gt;Node6</title>
<path fill="none" stroke="#63b8ff" d="M316.98,-109.98C329.57,-101.84 348.81,-89.41 363.74,-79.76"/>
<polygon fill="#63b8ff" stroke="#63b8ff" points="365.89,-82.54 372.39,-74.17 362.09,-76.66 365.89,-82.54"/>
</g>
<!-- Node7 -->
<g id="node7" class="node">
<title>Node7</title>
<g id="a_node7"><a xlink:title=" ">
<polygon fill="#e0e0e0" stroke="#999999" points="524.3,-74 439.3,-74 439.3,-55 524.3,-55 524.3,-74"/>
<text text-anchor="middle" x="481.8" y="-62" font-family="Helvetica,sans-Serif" font-size="10.00">wx/stdpaths.h</text>
</a>
</g>
</g>
<!-- Node2&#45;&gt;Node7 -->
<g id="edge6" class="edge">
<title>Node2&#45;&gt;Node7</title>
<path fill="none" stroke="#63b8ff" d="M332.4,-109.98C362.41,-101.05 409.78,-86.94 443.12,-77.02"/>
<polygon fill="#63b8ff" stroke="#63b8ff" points="444.39,-80.29 452.98,-74.08 442.4,-73.58 444.39,-80.29"/>
</g>
<!-- Node8 -->
<g id="node8" class="node">
<title>Node8</title>
<g id="a_node8"><a xlink:title=" ">
<polygon fill="#e0e0e0" stroke="#999999" points="606.8,-74 542.8,-74 542.8,-55 606.8,-55 606.8,-74"/>
<text text-anchor="middle" x="574.8" y="-62" font-family="Helvetica,sans-Serif" font-size="10.00">wx/utils.h</text>
</a>
</g>
</g>
<!-- Node2&#45;&gt;Node8 -->
<g id="edge7" class="edge">
<title>Node2&#45;&gt;Node8</title>
<path fill="none" stroke="#63b8ff" d="M345.38,-110.63C389.4,-102.25 461.19,-88.49 532.52,-74.24"/>
<polygon fill="#63b8ff" stroke="#63b8ff" points="533.46,-77.62 542.58,-72.22 532.09,-70.75 533.46,-77.62"/>
</g>
<!-- Node3&#45;&gt;Node4 -->
<g id="edge3" class="edge">
<title>Node3&#45;&gt;Node4</title>
<path fill="none" stroke="#63b8ff" d="M203.84,-54.98C184.77,-46.42 155.14,-33.11 133.25,-23.28"/>
<polygon fill="#63b8ff" stroke="#63b8ff" points="134.66,-20.07 124.11,-19.17 131.79,-26.46 134.66,-20.07"/>
</g>
<!-- Node9&#45;&gt;Node3 -->
<g id="edge9" class="edge">
<title>Node9&#45;&gt;Node3</title>
<path fill="none" stroke="#63b8ff" d="M160.69,-109.98C171.95,-101.92 189.09,-89.65 202.51,-80.03"/>
<polygon fill="#63b8ff" stroke="#63b8ff" points="204.6,-82.84 210.7,-74.17 200.53,-77.15 204.6,-82.84"/>
</g>
<!-- Node10 -->
<g id="node10" class="node">
<title>Node10</title>
<g id="a_node10"><a xlink:title=" ">
<polygon fill="#e0e0e0" stroke="#999999" points="95.3,-74 16.3,-74 16.3,-55 95.3,-55 95.3,-74"/>
<text text-anchor="middle" x="55.8" y="-62" font-family="Helvetica,sans-Serif" font-size="10.00">wx/msgdlg.h</text>
</a>
</g>
</g>
<!-- Node9&#45;&gt;Node10 -->
<g id="edge10" class="edge">
<title>Node9&#45;&gt;Node10</title>
<path fill="none" stroke="#63b8ff" d="M133.86,-109.98C119.3,-101.69 96.93,-88.94 79.87,-79.22"/>
<polygon fill="#63b8ff" stroke="#63b8ff" points="81.44,-76.08 71.02,-74.17 77.97,-82.16 81.44,-76.08"/>
</g>
<!-- Node11 -->
<g id="node11" class="node">
<title>Node11</title>
<g id="a_node11"><a xlink:title=" ">
<polygon fill="#e0e0e0" stroke="#999999" points="170.8,-74 112.8,-74 112.8,-55 170.8,-55 170.8,-74"/>
<text text-anchor="middle" x="141.8" y="-62" font-family="Helvetica,sans-Serif" font-size="10.00">wx/log.h</text>
</a>
</g>
</g>
<!-- Node9&#45;&gt;Node11 -->
<g id="edge11" class="edge">
<title>Node9&#45;&gt;Node11</title>
<path fill="none" stroke="#63b8ff" d="M147.65,-109.75C146.73,-102.8 145.41,-92.85 144.26,-84.13"/>
<polygon fill="#63b8ff" stroke="#63b8ff" points="147.72,-83.54 142.94,-74.09 140.78,-84.46 147.72,-83.54"/>
</g>
</g>
</svg>
        <g id="navigator" transform="translate(0 0)" fill="#404254">
                <rect fill="#f2f5e9" fill-opacity="0.5" stroke="#606060" stroke-width=".5" x="0" y="0" width="60" height="60"/>
                <use id="zoomplus" xlink:href="#zoomPlus" x="17" y="9" onmousedown="handleZoom(evt,'in')"/>
                <use id="zoomminus" xlink:href="#zoomMin" x="42" y="9" onmousedown="handleZoom(evt,'out')"/>
                <use id="reset" xlink:href="#resetDef" x="30" y="36" onmousedown="handleReset()"/>
                <g id="arrowUp" xlink:href="#dirArrow" transform="translate(30 24)" onmousedown="handlePan(0,-1)">
                  <use xlink:href="#rim" fill="#404040">
                        <set attributeName="fill" to="#808080" begin="arrowUp.mouseover" end="arrowUp.mouseout"/>
                  </use>
                  <path fill="none" stroke="white" stroke-width="1.5" d="M0,-3.0v7 M-2.5,-0.5L0,-3.0L2.5,-0.5"/>
                </g>
                <g id="arrowRight" xlink:href="#dirArrow" transform="rotate(90) translate(36 -43)" onmousedown="handlePan(1,0)">
                  <use xlink:href="#rim" fill="#404040">
                        <set attributeName="fill" to="#808080" begin="arrowRight.mouseover" end="arrowRight.mouseout"/>
                  </use>
                  <path fill="none" stroke="white" stroke-width="1.5" d="M0,-3.0v7 M-2.5,-0.5L0,-3.0L2.5,-0.5"/>
                </g>
                <g id="arrowDown" xlink:href="#dirArrow" transform="rotate(180) translate(-30 -48)" onmousedown="handlePan(0,1)">
                  <use xlink:href="#rim" fill="#404040">
                        <set attributeName="fill" to="#808080" begin="arrowDown.mouseover" end="arrowDown.mouseout"/>
                  </use>
                  <path fill="none" stroke="white" stroke-width="1.5" d="M0,-3.0v7 M-2.5,-0.5L0,-3.0L2.5,-0.5"/>
                </g>
                <g id="arrowLeft" xlink:href="#dirArrow" transform="rotate(270) translate(-36 17)" onmousedown="handlePan(-1,0)">
                  <use xlink:href="#rim" fill="#404040">
                        <set attributeName="fill" to="#808080" begin="arrowLeft.mouseover" end="arrowLeft.mouseout"/>
                  </use>
                  <path fill="none" stroke="white" stroke-width="1.5" d="M0,-3.0v7 M-2.5,-0.5L0,-3.0L2.5,-0.5"/>
                </g>
        </g>
        <svg viewBox="0 0 15 15" width="100%" height="30px" preserveAspectRatio="xMaxYMin meet">
         <g id="arrow_out" transform="scale(0.3 0.3)">
          <a xlink:href="Dirstructure_8cpp__incl_org.svg" target="_base">
           <rect id="button" ry="5" rx="5" y="6" x="6" height="38" width="38"
                fill="#f2f5e9" fill-opacity="0.5" stroke="#606060" stroke-width="1.0"/>
           <path id="arrow"
             d="M 11.500037,31.436501 C 11.940474,20.09759 22.043105,11.32322 32.158766,21.979434 L 37.068811,17.246167 C 37.068811,17.246167 37.088388,32 37.088388,32 L 22.160133,31.978069 C 22.160133,31.978069 26.997745,27.140456 26.997745,27.140456 C 18.528582,18.264221 13.291696,25.230495 11.500037,31.436501 z"
             style="fill:#404040;"/>
          </a>
         </g>
        </svg>
</svg>
