<?xml version="1.0" encoding="UTF-8" standalone="no"?>
<!DOCTYPE svg PUBLIC "-//W3C//DTD SVG 1.1//EN"
 "http://www.w3.org/Graphics/SVG/1.1/DTD/svg11.dtd">
<!-- Generated by graphviz version 2.43.0 (0)
 -->
<!-- Title: src/Dirstructure.h Pages: 1 -->
<svg width="1232pt" height="196pt"
 viewBox="0.00 0.00 1231.50 196.00" xmlns="http://www.w3.org/2000/svg" xmlns:xlink="http://www.w3.org/1999/xlink">
<g id="graph0" class="graph" transform="scale(1 1) rotate(0) translate(4 192)">
<title>src/Dirstructure.h</title>
<polygon fill="white" stroke="transparent" points="-4,4 -4,-192 1227.5,-192 1227.5,4 -4,4"/>
<!-- Node1 -->
<g id="node1" class="node">
<title>Node1</title>
<g id="a_node1"><a xlink:title="This file declares the class DirStructure.">
<polygon fill="#bfbfbf" stroke="black" points="537.5,-168.5 537.5,-187.5 638.5,-187.5 638.5,-168.5 537.5,-168.5"/>
<text text-anchor="middle" x="588" y="-175.5" font-family="Helvetica,sans-Serif" font-size="10.00">src/Dirstructure.h</text>
</a>
</g>
</g>
<!-- Node2 -->
<g id="node2" class="node">
<title>Node2</title>
<g id="a_node2"><a xlink:href="Autocomplete_8cpp.html" target="_top" xlink:title="This file defines the class AutoComplete.">
<polygon fill="white" stroke="black" points="0,-112.5 0,-131.5 122,-131.5 122,-112.5 0,-112.5"/>
<text text-anchor="middle" x="61" y="-119.5" font-family="Helvetica,sans-Serif" font-size="10.00">src/Autocomplete.cpp</text>
</a>
</g>
</g>
<!-- Node1&#45;&gt;Node2 -->
<g id="edge1" class="edge">
<title>Node1&#45;&gt;Node2</title>
<path fill="none" stroke="midnightblue" d="M527.2,-171.59C439.57,-163.67 272.73,-148.09 131,-132 128.08,-131.67 125.09,-131.32 122.07,-130.96"/>
<polygon fill="midnightblue" stroke="midnightblue" points="526.95,-175.08 537.23,-172.5 527.58,-168.11 526.95,-175.08"/>
</g>
<!-- Node3 -->
<g id="node3" class="node">
<title>Node3</title>
<g id="a_node3"><a xlink:href="AutocompletePopup_8cpp.html" target="_top" xlink:title="This file defines the class AutocompletePopup.">
<polygon fill="white" stroke="black" points="140,-112.5 140,-131.5 292,-131.5 292,-112.5 140,-112.5"/>
<text text-anchor="middle" x="216" y="-119.5" font-family="Helvetica,sans-Serif" font-size="10.00">src/AutocompletePopup.cpp</text>
</a>
</g>
</g>
<!-- Node1&#45;&gt;Node3 -->
<g id="edge2" class="edge">
<title>Node1&#45;&gt;Node3</title>
<path fill="none" stroke="midnightblue" d="M527.48,-168.21C457.69,-158.08 343.74,-141.54 274.73,-131.52"/>
<polygon fill="midnightblue" stroke="midnightblue" points="527.04,-171.69 537.44,-169.66 528.05,-164.76 527.04,-171.69"/>
</g>
<!-- Node4 -->
<g id="node4" class="node">
<title>Node4</title>
<g id="a_node4"><a xlink:href="Configuration_8cpp.html" target="_top" xlink:title="This file defines the class Configuration which serves as a fast configuration storage.">
<polygon fill="white" stroke="black" points="310.5,-112.5 310.5,-131.5 429.5,-131.5 429.5,-112.5 310.5,-112.5"/>
<text text-anchor="middle" x="370" y="-119.5" font-family="Helvetica,sans-Serif" font-size="10.00">src/Configuration.cpp</text>
</a>
</g>
</g>
<!-- Node1&#45;&gt;Node4 -->
<g id="edge3" class="edge">
<title>Node1&#45;&gt;Node4</title>
<path fill="none" stroke="midnightblue" d="M543.69,-166.02C502.51,-155.82 442.03,-140.84 404.38,-131.52"/>
<polygon fill="midnightblue" stroke="midnightblue" points="542.91,-169.44 553.46,-168.44 544.59,-162.64 542.91,-169.44"/>
</g>
<!-- Node5 -->
<g id="node5" class="node">
<title>Node5</title>
<g id="a_node5"><a xlink:href="Dirstructure_8cpp.html" target="_top" xlink:title="This file defines the class DirStructure.">
<polygon fill="white" stroke="black" points="448,-112.5 448,-131.5 560,-131.5 560,-112.5 448,-112.5"/>
<text text-anchor="middle" x="504" y="-119.5" font-family="Helvetica,sans-Serif" font-size="10.00">src/Dirstructure.cpp</text>
</a>
</g>
</g>
<!-- Node1&#45;&gt;Node5 -->
<g id="edge4" class="edge">
<title>Node1&#45;&gt;Node5</title>
<path fill="none" stroke="midnightblue" d="M566.07,-162.9C550.66,-153 530.55,-140.07 517.46,-131.65"/>
<polygon fill="midnightblue" stroke="midnightblue" points="564.2,-165.86 574.5,-168.32 567.98,-159.97 564.2,-165.86"/>
</g>
<!-- Node6 -->
<g id="node6" class="node">
<title>Node6</title>
<g id="a_node6"><a xlink:href="main_8h.html" target="_top" xlink:title="This file declares the class wxMaxima that contains most of the program&#39;s logic.">
<polygon fill="white" stroke="black" points="614,-56.5 614,-75.5 682,-75.5 682,-56.5 614,-56.5"/>
<text text-anchor="middle" x="648" y="-63.5" font-family="Helvetica,sans-Serif" font-size="10.00">src/main.h</text>
</a>
</g>
</g>
<!-- Node1&#45;&gt;Node6 -->
<g id="edge5" class="edge">
<title>Node1&#45;&gt;Node6</title>
<path fill="none" stroke="midnightblue" d="M597.64,-159.32C610.71,-135.37 633.52,-93.55 643.31,-75.59"/>
<polygon fill="midnightblue" stroke="midnightblue" points="594.42,-157.91 592.71,-168.37 600.57,-161.27 594.42,-157.91"/>
</g>
<!-- Node7 -->
<g id="node7" class="node">
<title>Node7</title>
<g id="a_node7"><a xlink:href="MaximaManual_8cpp.html" target="_top" xlink:title="This file defines the class MaximaManual.">
<polygon fill="white" stroke="black" points="515,-0.5 515,-19.5 645,-19.5 645,-0.5 515,-0.5"/>
<text text-anchor="middle" x="580" y="-7.5" font-family="Helvetica,sans-Serif" font-size="10.00">src/MaximaManual.cpp</text>
</a>
</g>
</g>
<!-- Node1&#45;&gt;Node7 -->
<g id="edge9" class="edge">
<title>Node1&#45;&gt;Node7</title>
<path fill="none" stroke="midnightblue" d="M587.08,-157.93C585.35,-121.92 581.65,-45.23 580.41,-19.57"/>
<polygon fill="midnightblue" stroke="midnightblue" points="583.59,-158.26 587.57,-168.08 590.58,-157.92 583.59,-158.26"/>
</g>
<!-- Node8 -->
<g id="node8" class="node">
<title>Node8</title>
<g id="a_node8"><a xlink:href="main_8cpp.html" target="_top" xlink:title="The file that defines the starting point of the program.">
<polygon fill="white" stroke="black" points="978.5,-0.5 978.5,-19.5 1057.5,-19.5 1057.5,-0.5 978.5,-0.5"/>
<text text-anchor="middle" x="1018" y="-7.5" font-family="Helvetica,sans-Serif" font-size="10.00">src/main.cpp</text>
</a>
</g>
</g>
<!-- Node1&#45;&gt;Node8 -->
<g id="edge10" class="edge">
<title>Node1&#45;&gt;Node8</title>
<path fill="none" stroke="midnightblue" d="M648.69,-171.87C756.28,-161.38 973.44,-133.47 1019,-76 1031.9,-59.73 1025.74,-33.27 1021.25,-19.67"/>
<polygon fill="midnightblue" stroke="midnightblue" points="648.25,-168.4 638.63,-172.83 648.92,-175.36 648.25,-168.4"/>
</g>
<!-- Node10 -->
<g id="node10" class="node">
<title>Node10</title>
<g id="a_node10"><a xlink:href="wxMaxima_8h.html" target="_top" xlink:title="This file declares the class wxMaxima that contains most of the program&#39;s logic.">
<polygon fill="white" stroke="black" points="670.5,-112.5 670.5,-131.5 767.5,-131.5 767.5,-112.5 670.5,-112.5"/>
<text text-anchor="middle" x="719" y="-119.5" font-family="Helvetica,sans-Serif" font-size="10.00">src/wxMaxima.h</text>
</a>
</g>
</g>
<!-- Node1&#45;&gt;Node10 -->
<g id="edge11" class="edge">
<title>Node1&#45;&gt;Node10</title>
<path fill="none" stroke="midnightblue" d="M618.32,-164.5C642.88,-154.38 676.82,-140.39 698.34,-131.52"/>
<polygon fill="midnightblue" stroke="midnightblue" points="616.67,-161.4 608.76,-168.44 619.34,-167.87 616.67,-161.4"/>
</g>
<!-- Node13 -->
<g id="node13" class="node">
<title>Node13</title>
<g id="a_node13"><a xlink:href="wxMaximaFrame_8cpp.html" target="_top" xlink:title="This file defines the class wxMaximaFrame.">
<polygon fill="white" stroke="black" points="1084.5,-112.5 1084.5,-131.5 1223.5,-131.5 1223.5,-112.5 1084.5,-112.5"/>
<text text-anchor="middle" x="1154" y="-119.5" font-family="Helvetica,sans-Serif" font-size="10.00">src/wxMaximaFrame.cpp</text>
</a>
</g>
</g>
<!-- Node1&#45;&gt;Node13 -->
<g id="edge17" class="edge">
<title>Node1&#45;&gt;Node13</title>
<path fill="none" stroke="midnightblue" d="M648.86,-171.59C740.32,-163.39 918.62,-147.18 1070,-132 1074.67,-131.53 1079.48,-131.04 1084.34,-130.54"/>
<polygon fill="midnightblue" stroke="midnightblue" points="648.33,-168.12 638.68,-172.5 648.95,-175.09 648.33,-168.12"/>
</g>
<!-- Node6&#45;&gt;Node7 -->
<g id="edge6" class="edge">
<title>Node6&#45;&gt;Node7</title>
<path fill="none" stroke="midnightblue" d="M629.24,-50.1C617,-40.38 601.44,-28.03 591.12,-19.83"/>
<polygon fill="midnightblue" stroke="midnightblue" points="627.07,-52.85 637.07,-56.32 631.42,-47.36 627.07,-52.85"/>
</g>
<!-- Node6&#45;&gt;Node8 -->
<g id="edge7" class="edge">
<title>Node6&#45;&gt;Node8</title>
<path fill="none" stroke="midnightblue" d="M692.35,-58.53C765.15,-47.9 908.83,-26.93 978.4,-16.78"/>
<polygon fill="midnightblue" stroke="midnightblue" points="691.54,-55.11 682.15,-60.02 692.55,-62.04 691.54,-55.11"/>
</g>
<!-- Node9 -->
<g id="node9" class="node">
<title>Node9</title>
<g id="a_node9"><a xlink:href="wxMaxima_8cpp.html" target="_top" xlink:title="This file defines the contents of the class wxMaxima that contains most of the program&#39;s logic.">
<polygon fill="white" stroke="black" points="663,-0.5 663,-19.5 771,-19.5 771,-0.5 663,-0.5"/>
<text text-anchor="middle" x="717" y="-7.5" font-family="Helvetica,sans-Serif" font-size="10.00">src/wxMaxima.cpp</text>
</a>
</g>
</g>
<!-- Node6&#45;&gt;Node9 -->
<g id="edge8" class="edge">
<title>Node6&#45;&gt;Node9</title>
<path fill="none" stroke="midnightblue" d="M667.04,-50.1C679.46,-40.38 695.24,-28.03 705.71,-19.83"/>
<polygon fill="midnightblue" stroke="midnightblue" points="664.8,-47.4 659.09,-56.32 669.12,-52.92 664.8,-47.4"/>
</g>
<!-- Node10&#45;&gt;Node6 -->
<g id="edge13" class="edge">
<title>Node10&#45;&gt;Node6</title>
<path fill="none" stroke="midnightblue" d="M699.41,-106.1C686.63,-96.38 670.39,-84.03 659.61,-75.83"/>
<polygon fill="midnightblue" stroke="midnightblue" points="697.51,-109.06 707.59,-112.32 701.75,-103.48 697.51,-109.06"/>
</g>
<!-- Node10&#45;&gt;Node8 -->
<g id="edge14" class="edge">
<title>Node10&#45;&gt;Node8</title>
<path fill="none" stroke="midnightblue" d="M777.85,-118.78C850.11,-114.85 967.02,-104.21 999,-76 1015.4,-61.53 1018,-33.78 1018.19,-19.68"/>
<polygon fill="midnightblue" stroke="midnightblue" points="777.34,-115.3 767.53,-119.31 777.7,-122.29 777.34,-115.3"/>
</g>
<!-- Node10&#45;&gt;Node9 -->
<g id="edge16" class="edge">
<title>Node10&#45;&gt;Node9</title>
<path fill="none" stroke="midnightblue" d="M718.66,-102.35C718.22,-78.25 717.48,-37.31 717.16,-19.59"/>
<polygon fill="midnightblue" stroke="midnightblue" points="715.16,-102.43 718.84,-112.37 722.16,-102.31 715.16,-102.43"/>
</g>
<!-- Node11 -->
<g id="node11" class="node">
<title>Node11</title>
<g id="a_node11"><a xlink:href="EditorCell_8cpp.html" target="_top" xlink:title="This file defines the class EditorCell.">
<polygon fill="white" stroke="black" points="738.5,-56.5 738.5,-75.5 865.5,-75.5 865.5,-56.5 738.5,-56.5"/>
<text text-anchor="middle" x="802" y="-63.5" font-family="Helvetica,sans-Serif" font-size="10.00">src/cells/EditorCell.cpp</text>
</a>
</g>
</g>
<!-- Node10&#45;&gt;Node11 -->
<g id="edge12" class="edge">
<title>Node10&#45;&gt;Node11</title>
<path fill="none" stroke="midnightblue" d="M741.1,-106.62C756.26,-96.76 775.88,-83.99 788.7,-75.65"/>
<polygon fill="midnightblue" stroke="midnightblue" points="738.81,-103.94 732.34,-112.32 742.63,-109.8 738.81,-103.94"/>
</g>
<!-- Node12 -->
<g id="node12" class="node">
<title>Node12</title>
<g id="a_node12"><a xlink:href="Worksheet_8cpp.html" target="_top" xlink:title="This file defines the class Worksheet.">
<polygon fill="white" stroke="black" points="884,-56.5 884,-75.5 990,-75.5 990,-56.5 884,-56.5"/>
<text text-anchor="middle" x="937" y="-63.5" font-family="Helvetica,sans-Serif" font-size="10.00">src/Worksheet.cpp</text>
</a>
</g>
</g>
<!-- Node10&#45;&gt;Node12 -->
<g id="edge15" class="edge">
<title>Node10&#45;&gt;Node12</title>
<path fill="none" stroke="midnightblue" d="M763.31,-110.02C804.49,-99.82 864.97,-84.84 902.62,-75.52"/>
<polygon fill="midnightblue" stroke="midnightblue" points="762.41,-106.64 753.54,-112.44 764.09,-113.44 762.41,-106.64"/>
</g>
</g>
</svg>
