<?xml version="1.0" encoding="UTF-8" standalone="no"?>
<!DOCTYPE svg PUBLIC "-//W3C//DTD SVG 1.1//EN"
 "http://www.w3.org/Graphics/SVG/1.1/DTD/svg11.dtd">
<!-- Generated by graphviz version 2.43.0 (0)
 -->
<!-- Title: src/wizards/DrawWiz.cpp Pages: 1 -->
<svg width="2333pt" height="532pt"
 viewBox="0.00 0.00 2332.50 532.00" xmlns="http://www.w3.org/2000/svg" xmlns:xlink="http://www.w3.org/1999/xlink">
<g id="graph0" class="graph" transform="scale(1 1) rotate(0) translate(4 528)">
<title>src/wizards/DrawWiz.cpp</title>
<polygon fill="white" stroke="transparent" points="-4,4 -4,-528 2328.5,-528 2328.5,4 -4,4"/>
<!-- Node1 -->
<g id="node1" class="node">
<title>Node1</title>
<g id="a_node1"><a xlink:title="This file contains all the wizards the draw sidepane needs.">
<polygon fill="#bfbfbf" stroke="black" points="1884,-504.5 1884,-523.5 2022,-523.5 2022,-504.5 1884,-504.5"/>
<text text-anchor="middle" x="1953" y="-511.5" font-family="Helvetica,sans-Serif" font-size="10.00">src/wizards/DrawWiz.cpp</text>
</a>
</g>
</g>
<!-- Node2 -->
<g id="node2" class="node">
<title>Node2</title>
<g id="a_node2"><a xlink:href="DrawWiz_8h.html" target="_top" xlink:title="This file declares all the wizards the draw sidepane needs.">
<polygon fill="white" stroke="black" points="554.5,-448.5 554.5,-467.5 623.5,-467.5 623.5,-448.5 554.5,-448.5"/>
<text text-anchor="middle" x="589" y="-455.5" font-family="Helvetica,sans-Serif" font-size="10.00">DrawWiz.h</text>
</a>
</g>
</g>
<!-- Node1&#45;&gt;Node2 -->
<g id="edge1" class="edge">
<title>Node1&#45;&gt;Node2</title>
<path fill="none" stroke="midnightblue" d="M1883.95,-510.27C1641.48,-500.67 832.79,-468.65 633.62,-460.77"/>
<polygon fill="midnightblue" stroke="midnightblue" points="633.65,-457.26 623.52,-460.37 633.37,-464.26 633.65,-457.26"/>
</g>
<!-- Node10 -->
<g id="node10" class="node">
<title>Node10</title>
<g id="a_node10"><a xlink:title=" ">
<polygon fill="white" stroke="#bfbfbf" points="1357.5,-392.5 1357.5,-411.5 1476.5,-411.5 1476.5,-392.5 1357.5,-392.5"/>
<text text-anchor="middle" x="1417" y="-399.5" font-family="Helvetica,sans-Serif" font-size="10.00">wx/persist/toplevel.h</text>
</a>
</g>
</g>
<!-- Node1&#45;&gt;Node10 -->
<g id="edge81" class="edge">
<title>Node1&#45;&gt;Node10</title>
<path fill="none" stroke="midnightblue" d="M1911.39,-504.46C1814.53,-484.58 1574.2,-435.26 1468.4,-413.55"/>
<polygon fill="midnightblue" stroke="midnightblue" points="1469.09,-410.12 1458.59,-411.53 1467.68,-416.97 1469.09,-410.12"/>
</g>
<!-- Node14 -->
<g id="node14" class="node">
<title>Node14</title>
<g id="a_node14"><a xlink:title=" ">
<polygon fill="white" stroke="#bfbfbf" points="1645.5,-168.5 1645.5,-187.5 1722.5,-187.5 1722.5,-168.5 1645.5,-168.5"/>
<text text-anchor="middle" x="1684" y="-175.5" font-family="Helvetica,sans-Serif" font-size="10.00">wx/display.h</text>
</a>
</g>
</g>
<!-- Node1&#45;&gt;Node14 -->
<g id="edge79" class="edge">
<title>Node1&#45;&gt;Node14</title>
<path fill="none" stroke="midnightblue" d="M1932.3,-504.35C1916.86,-496.88 1896.36,-484.65 1884,-468 1866.06,-443.83 1865,-433.1 1865,-403 1865,-403 1865,-403 1865,-289 1865,-226.99 1786.46,-198.95 1732.86,-187.02"/>
<polygon fill="midnightblue" stroke="midnightblue" points="1733.34,-183.55 1722.83,-184.92 1731.89,-190.4 1733.34,-183.55"/>
</g>
<!-- Node63 -->
<g id="node47" class="node">
<title>Node63</title>
<g id="a_node47"><a xlink:title=" ">
<polygon fill="white" stroke="#bfbfbf" points="1893,-448.5 1893,-467.5 2013,-467.5 2013,-448.5 1893,-448.5"/>
<text text-anchor="middle" x="1953" y="-455.5" font-family="Helvetica,sans-Serif" font-size="10.00">wxm_draw_images.h</text>
</a>
</g>
</g>
<!-- Node1&#45;&gt;Node63 -->
<g id="edge78" class="edge">
<title>Node1&#45;&gt;Node63</title>
<path fill="none" stroke="midnightblue" d="M1953,-504.08C1953,-497.01 1953,-486.86 1953,-477.99"/>
<polygon fill="midnightblue" stroke="midnightblue" points="1956.5,-477.75 1953,-467.75 1949.5,-477.75 1956.5,-477.75"/>
</g>
<!-- Node64 -->
<g id="node48" class="node">
<title>Node64</title>
<g id="a_node48"><a xlink:title=" ">
<polygon fill="white" stroke="#bfbfbf" points="2031.5,-448.5 2031.5,-467.5 2118.5,-467.5 2118.5,-448.5 2031.5,-448.5"/>
<text text-anchor="middle" x="2075" y="-455.5" font-family="Helvetica,sans-Serif" font-size="10.00">wx/mstream.h</text>
</a>
</g>
</g>
<!-- Node1&#45;&gt;Node64 -->
<g id="edge80" class="edge">
<title>Node1&#45;&gt;Node64</title>
<path fill="none" stroke="midnightblue" d="M1972.33,-504.44C1992.32,-495.6 2023.74,-481.69 2046.56,-471.59"/>
<polygon fill="midnightblue" stroke="midnightblue" points="2048.03,-474.76 2055.76,-467.52 2045.2,-468.36 2048.03,-474.76"/>
</g>
<!-- Node65 -->
<g id="node49" class="node">
<title>Node65</title>
<g id="a_node49"><a xlink:title=" ">
<polygon fill="white" stroke="#bfbfbf" points="2137,-448.5 2137,-467.5 2217,-467.5 2217,-448.5 2137,-448.5"/>
<text text-anchor="middle" x="2177" y="-455.5" font-family="Helvetica,sans-Serif" font-size="10.00">wx/statbox.h</text>
</a>
</g>
</g>
<!-- Node1&#45;&gt;Node65 -->
<g id="edge82" class="edge">
<title>Node1&#45;&gt;Node65</title>
<path fill="none" stroke="midnightblue" d="M1988.49,-504.44C2027.32,-495.08 2089.66,-480.06 2131.92,-469.87"/>
<polygon fill="midnightblue" stroke="midnightblue" points="2132.77,-473.26 2141.67,-467.52 2131.13,-466.46 2132.77,-473.26"/>
</g>
<!-- Node66 -->
<g id="node50" class="node">
<title>Node66</title>
<g id="a_node50"><a xlink:title=" ">
<polygon fill="white" stroke="#bfbfbf" points="2235.5,-448.5 2235.5,-467.5 2324.5,-467.5 2324.5,-448.5 2235.5,-448.5"/>
<text text-anchor="middle" x="2280" y="-455.5" font-family="Helvetica,sans-Serif" font-size="10.00">wx/wfstream.h</text>
</a>
</g>
</g>
<!-- Node1&#45;&gt;Node66 -->
<g id="edge83" class="edge">
<title>Node1&#45;&gt;Node66</title>
<path fill="none" stroke="midnightblue" d="M2004.83,-504.48C2057.6,-495.81 2142.07,-481.9 2225.1,-468.15"/>
<polygon fill="midnightblue" stroke="midnightblue" points="2225.92,-471.56 2235.21,-466.47 2224.77,-464.65 2225.92,-471.56"/>
</g>
<!-- Node3 -->
<g id="node3" class="node">
<title>Node3</title>
<g id="a_node3"><a xlink:href="precomp_8h_source.html" target="_top" xlink:title=" ">
<polygon fill="white" stroke="black" points="291,-56.5 291,-75.5 359,-75.5 359,-56.5 291,-56.5"/>
<text text-anchor="middle" x="325" y="-63.5" font-family="Helvetica,sans-Serif" font-size="10.00">precomp.h</text>
</a>
</g>
</g>
<!-- Node2&#45;&gt;Node3 -->
<g id="edge2" class="edge">
<title>Node2&#45;&gt;Node3</title>
<path fill="none" stroke="midnightblue" d="M554.42,-455.82C483.92,-452.84 318.82,-442.87 184,-412 99.46,-392.64 0,-433.73 0,-347 0,-347 0,-347 0,-177 0,-140.55 18.71,-130.7 50,-112 88.04,-89.27 212.47,-76.03 280.16,-70.33"/>
<polygon fill="midnightblue" stroke="midnightblue" points="280.83,-73.79 290.51,-69.48 280.26,-66.81 280.83,-73.79"/>
</g>
<!-- Node5 -->
<g id="node5" class="node">
<title>Node5</title>
<g id="a_node5"><a xlink:title=" ">
<polygon fill="white" stroke="#bfbfbf" points="1107.5,-168.5 1107.5,-187.5 1164.5,-187.5 1164.5,-168.5 1107.5,-168.5"/>
<text text-anchor="middle" x="1136" y="-175.5" font-family="Helvetica,sans-Serif" font-size="10.00">wx/wx.h</text>
</a>
</g>
</g>
<!-- Node2&#45;&gt;Node5 -->
<g id="edge4" class="edge">
<title>Node2&#45;&gt;Node5</title>
<path fill="none" stroke="midnightblue" d="M596.23,-448.42C623.53,-416.19 720.96,-303.02 762,-280 824.44,-244.98 849.78,-262.28 919,-244 983.07,-227.08 1056.8,-204.27 1099.73,-190.66"/>
<polygon fill="midnightblue" stroke="midnightblue" points="1100.97,-193.94 1109.43,-187.57 1098.84,-187.27 1100.97,-193.94"/>
</g>
<!-- Node6 -->
<g id="node6" class="node">
<title>Node6</title>
<g id="a_node6"><a xlink:title=" ">
<polygon fill="white" stroke="#bfbfbf" points="193,-392.5 193,-411.5 273,-411.5 273,-392.5 193,-392.5"/>
<text text-anchor="middle" x="233" y="-399.5" font-family="Helvetica,sans-Serif" font-size="10.00">wx/statline.h</text>
</a>
</g>
</g>
<!-- Node2&#45;&gt;Node6 -->
<g id="edge5" class="edge">
<title>Node2&#45;&gt;Node6</title>
<path fill="none" stroke="midnightblue" d="M554.41,-452.34C499.27,-444.83 387.84,-429.29 283.19,-412.15"/>
<polygon fill="midnightblue" stroke="midnightblue" points="283.53,-408.66 273.09,-410.49 282.39,-415.56 283.53,-408.66"/>
</g>
<!-- Node7 -->
<g id="node7" class="node">
<title>Node7</title>
<g id="a_node7"><a xlink:title=" ">
<polygon fill="white" stroke="#bfbfbf" points="291,-392.5 291,-411.5 365,-411.5 365,-392.5 291,-392.5"/>
<text text-anchor="middle" x="328" y="-399.5" font-family="Helvetica,sans-Serif" font-size="10.00">wx/image.h</text>
</a>
</g>
</g>
<!-- Node2&#45;&gt;Node7 -->
<g id="edge6" class="edge">
<title>Node2&#45;&gt;Node7</title>
<path fill="none" stroke="midnightblue" d="M554.34,-449.83C508.32,-440.31 426.86,-423.45 375.24,-412.77"/>
<polygon fill="midnightblue" stroke="midnightblue" points="375.84,-409.32 365.34,-410.72 374.42,-416.18 375.84,-409.32"/>
</g>
<!-- Node8 -->
<g id="node8" class="node">
<title>Node8</title>
<g id="a_node8"><a xlink:title=" ">
<polygon fill="white" stroke="#bfbfbf" points="383.5,-392.5 383.5,-411.5 466.5,-411.5 466.5,-392.5 383.5,-392.5"/>
<text text-anchor="middle" x="425" y="-399.5" font-family="Helvetica,sans-Serif" font-size="10.00">wx/radiobut.h</text>
</a>
</g>
</g>
<!-- Node2&#45;&gt;Node8 -->
<g id="edge7" class="edge">
<title>Node2&#45;&gt;Node8</title>
<path fill="none" stroke="midnightblue" d="M563.01,-448.44C535.3,-439.32 491.25,-424.81 460.38,-414.65"/>
<polygon fill="midnightblue" stroke="midnightblue" points="461.46,-411.32 450.86,-411.52 459.27,-417.97 461.46,-411.32"/>
</g>
<!-- Node9 -->
<g id="node9" class="node">
<title>Node9</title>
<g id="a_node9"><a xlink:title=" ">
<polygon fill="white" stroke="#bfbfbf" points="485,-392.5 485,-411.5 561,-411.5 561,-392.5 485,-392.5"/>
<text text-anchor="middle" x="523" y="-399.5" font-family="Helvetica,sans-Serif" font-size="10.00">wx/persist.h</text>
</a>
</g>
</g>
<!-- Node2&#45;&gt;Node9 -->
<g id="edge8" class="edge">
<title>Node2&#45;&gt;Node9</title>
<path fill="none" stroke="midnightblue" d="M578.4,-448.32C568.54,-440.26 553.65,-428.08 541.78,-418.37"/>
<polygon fill="midnightblue" stroke="midnightblue" points="543.75,-415.46 533.8,-411.83 539.32,-420.88 543.75,-415.46"/>
</g>
<!-- Node2&#45;&gt;Node10 -->
<g id="edge9" class="edge">
<title>Node2&#45;&gt;Node10</title>
<path fill="none" stroke="midnightblue" d="M623.52,-454.75C748.37,-446.61 1177.94,-418.59 1347.44,-407.54"/>
<polygon fill="midnightblue" stroke="midnightblue" points="1347.74,-411.02 1357.49,-406.88 1347.29,-404.04 1347.74,-411.02"/>
</g>
<!-- Node11 -->
<g id="node11" class="node">
<title>Node11</title>
<g id="a_node11"><a xlink:href="BTextCtrl_8h_source.html" target="_top" xlink:title=" ">
<polygon fill="white" stroke="black" points="607,-280.5 607,-299.5 677,-299.5 677,-280.5 607,-280.5"/>
<text text-anchor="middle" x="642" y="-287.5" font-family="Helvetica,sans-Serif" font-size="10.00">BTextCtrl.h</text>
</a>
</g>
</g>
<!-- Node2&#45;&gt;Node11 -->
<g id="edge10" class="edge">
<title>Node2&#45;&gt;Node11</title>
<path fill="none" stroke="midnightblue" d="M591.85,-448.08C600.23,-421.83 624.9,-344.55 636.22,-309.12"/>
<polygon fill="midnightblue" stroke="midnightblue" points="639.56,-310.16 639.26,-299.57 632.89,-308.03 639.56,-310.16"/>
</g>
<!-- Node12 -->
<g id="node12" class="node">
<title>Node12</title>
<g id="a_node12"><a xlink:href="Configuration_8h_source.html" target="_top" xlink:title=" ">
<polygon fill="white" stroke="black" points="783.5,-224.5 783.5,-243.5 874.5,-243.5 874.5,-224.5 783.5,-224.5"/>
<text text-anchor="middle" x="829" y="-231.5" font-family="Helvetica,sans-Serif" font-size="10.00">Configuration.h</text>
</a>
</g>
</g>
<!-- Node2&#45;&gt;Node12 -->
<g id="edge60" class="edge">
<title>Node2&#45;&gt;Node12</title>
<path fill="none" stroke="midnightblue" d="M586.16,-448.29C577.55,-420.01 554.85,-329.74 598,-280 620.4,-254.18 712.2,-242.89 773.11,-238.16"/>
<polygon fill="midnightblue" stroke="midnightblue" points="773.64,-241.63 783.35,-237.41 773.12,-234.65 773.64,-241.63"/>
</g>
<!-- Node48 -->
<g id="node41" class="node">
<title>Node48</title>
<g id="a_node41"><a xlink:href="SvgPanel_8h.html" target="_top" xlink:title="This file declares all the wizards the draw sidepane needs.">
<polygon fill="white" stroke="black" points="820,-392.5 820,-411.5 890,-411.5 890,-392.5 820,-392.5"/>
<text text-anchor="middle" x="855" y="-399.5" font-family="Helvetica,sans-Serif" font-size="10.00">SvgPanel.h</text>
</a>
</g>
</g>
<!-- Node2&#45;&gt;Node48 -->
<g id="edge61" class="edge">
<title>Node2&#45;&gt;Node48</title>
<path fill="none" stroke="midnightblue" d="M623.5,-450C671.08,-440.34 756.91,-422.91 809.63,-412.21"/>
<polygon fill="midnightblue" stroke="midnightblue" points="810.61,-415.58 819.71,-410.16 809.22,-408.72 810.61,-415.58"/>
</g>
<!-- Node4 -->
<g id="node4" class="node">
<title>Node4</title>
<g id="a_node4"><a xlink:href="Version_8h_source.html" target="_top" xlink:title=" ">
<polygon fill="white" stroke="black" points="294,-0.5 294,-19.5 356,-19.5 356,-0.5 294,-0.5"/>
<text text-anchor="middle" x="325" y="-7.5" font-family="Helvetica,sans-Serif" font-size="10.00">Version.h</text>
</a>
</g>
</g>
<!-- Node3&#45;&gt;Node4 -->
<g id="edge3" class="edge">
<title>Node3&#45;&gt;Node4</title>
<path fill="none" stroke="midnightblue" d="M325,-56.08C325,-49.01 325,-38.86 325,-29.99"/>
<polygon fill="midnightblue" stroke="midnightblue" points="328.5,-29.75 325,-19.75 321.5,-29.75 328.5,-29.75"/>
</g>
<!-- Node11&#45;&gt;Node3 -->
<g id="edge11" class="edge">
<title>Node11&#45;&gt;Node3</title>
<path fill="none" stroke="midnightblue" d="M606.88,-289.58C517.94,-289.58 278.9,-280.33 110,-188 79.93,-171.56 69.68,-163.84 57,-132 53.71,-123.74 51.26,-118.79 57,-112 85.15,-78.73 212.27,-70.04 280.83,-67.78"/>
<polygon fill="midnightblue" stroke="midnightblue" points="281.02,-71.28 290.91,-67.49 280.81,-64.28 281.02,-71.28"/>
</g>
<!-- Node11&#45;&gt;Node5 -->
<g id="edge12" class="edge">
<title>Node11&#45;&gt;Node5</title>
<path fill="none" stroke="midnightblue" d="M677.2,-282.54C742.91,-270.47 878.09,-245.55 883,-244 903.49,-237.54 906.61,-230.74 927,-224 935.08,-221.33 1038.94,-199.37 1097.14,-187.14"/>
<polygon fill="midnightblue" stroke="midnightblue" points="1098.03,-190.53 1107.09,-185.05 1096.59,-183.68 1098.03,-190.53"/>
</g>
<!-- Node11&#45;&gt;Node12 -->
<g id="edge13" class="edge">
<title>Node11&#45;&gt;Node12</title>
<path fill="none" stroke="midnightblue" d="M671.63,-280.44C703.5,-271.24 754.33,-256.56 789.56,-246.39"/>
<polygon fill="midnightblue" stroke="midnightblue" points="790.87,-249.65 799.51,-243.52 788.93,-242.93 790.87,-249.65"/>
</g>
<!-- Node12&#45;&gt;Node3 -->
<g id="edge14" class="edge">
<title>Node12&#45;&gt;Node3</title>
<path fill="none" stroke="midnightblue" d="M783.41,-229C671.2,-219.09 390.15,-193.76 382,-188 364.18,-175.4 341.81,-116.1 331.17,-85.45"/>
<polygon fill="midnightblue" stroke="midnightblue" points="334.35,-83.93 327.81,-75.59 327.72,-86.19 334.35,-83.93"/>
</g>
<!-- Node12&#45;&gt;Node5 -->
<g id="edge15" class="edge">
<title>Node12&#45;&gt;Node5</title>
<path fill="none" stroke="midnightblue" d="M874.88,-225.72C927.61,-217.22 1016.72,-202.48 1093,-188 1094.45,-187.72 1095.93,-187.44 1097.42,-187.15"/>
<polygon fill="midnightblue" stroke="midnightblue" points="1098.23,-190.55 1107.35,-185.15 1096.86,-183.69 1098.23,-190.55"/>
</g>
<!-- Node13 -->
<g id="node13" class="node">
<title>Node13</title>
<g id="a_node13"><a xlink:title=" ">
<polygon fill="white" stroke="#bfbfbf" points="735,-112.5 735,-131.5 807,-131.5 807,-112.5 735,-112.5"/>
<text text-anchor="middle" x="771" y="-119.5" font-family="Helvetica,sans-Serif" font-size="10.00">wx/config.h</text>
</a>
</g>
</g>
<!-- Node12&#45;&gt;Node13 -->
<g id="edge16" class="edge">
<title>Node12&#45;&gt;Node13</title>
<path fill="none" stroke="midnightblue" d="M874.94,-225.05C927.69,-215.46 1008.14,-199.23 1017,-188 1022.51,-181.02 1022.69,-174.83 1017,-168 1016.6,-167.52 888.44,-144.26 817.29,-131.37"/>
<polygon fill="midnightblue" stroke="midnightblue" points="817.69,-127.89 807.22,-129.55 816.44,-134.78 817.69,-127.89"/>
</g>
<!-- Node12&#45;&gt;Node14 -->
<g id="edge17" class="edge">
<title>Node12&#45;&gt;Node14</title>
<path fill="none" stroke="midnightblue" d="M874.75,-232.59C996.83,-231.03 1340.52,-223.68 1635.31,-188.05"/>
<polygon fill="midnightblue" stroke="midnightblue" points="1635.83,-191.51 1645.34,-186.83 1634.99,-184.57 1635.83,-191.51"/>
</g>
<!-- Node15 -->
<g id="node15" class="node">
<title>Node15</title>
<g id="a_node15"><a xlink:title=" ">
<polygon fill="white" stroke="#bfbfbf" points="391,-168.5 391,-187.5 481,-187.5 481,-168.5 391,-168.5"/>
<text text-anchor="middle" x="436" y="-175.5" font-family="Helvetica,sans-Serif" font-size="10.00">wx/fontenum.h</text>
</a>
</g>
</g>
<!-- Node12&#45;&gt;Node15 -->
<g id="edge18" class="edge">
<title>Node12&#45;&gt;Node15</title>
<path fill="none" stroke="midnightblue" d="M783.42,-227.44C720.18,-219.61 601.99,-204.6 491.08,-188.12"/>
<polygon fill="midnightblue" stroke="midnightblue" points="491.47,-184.64 481.06,-186.63 490.44,-191.56 491.47,-184.64"/>
</g>
<!-- Node16 -->
<g id="node16" class="node">
<title>Node16</title>
<g id="a_node16"><a xlink:title=" ">
<polygon fill="white" stroke="#bfbfbf" points="499,-168.5 499,-187.5 587,-187.5 587,-168.5 499,-168.5"/>
<text text-anchor="middle" x="543" y="-175.5" font-family="Helvetica,sans-Serif" font-size="10.00">wx/hashmap.h</text>
</a>
</g>
</g>
<!-- Node12&#45;&gt;Node16 -->
<g id="edge19" class="edge">
<title>Node12&#45;&gt;Node16</title>
<path fill="none" stroke="midnightblue" d="M783.68,-224.44C733.08,-214.89 651.21,-199.43 597.24,-189.24"/>
<polygon fill="midnightblue" stroke="midnightblue" points="597.64,-185.76 587.17,-187.34 596.34,-192.63 597.64,-185.76"/>
</g>
<!-- Node17 -->
<g id="node17" class="node">
<title>Node17</title>
<g id="a_node17"><a xlink:href="LoggingMessageDialog_8h.html" target="_top" xlink:title="This file declares a message dialog that sends its contents to the log message sink.">
<polygon fill="white" stroke="black" points="119.5,-168.5 119.5,-187.5 258.5,-187.5 258.5,-168.5 119.5,-168.5"/>
<text text-anchor="middle" x="189" y="-175.5" font-family="Helvetica,sans-Serif" font-size="10.00">LoggingMessageDialog.h</text>
</a>
</g>
</g>
<!-- Node12&#45;&gt;Node17 -->
<g id="edge20" class="edge">
<title>Node12&#45;&gt;Node17</title>
<path fill="none" stroke="midnightblue" d="M783.49,-229.16C675.91,-220.08 404.84,-197.21 269.08,-185.76"/>
<polygon fill="midnightblue" stroke="midnightblue" points="269.01,-182.24 258.75,-184.89 268.42,-189.21 269.01,-182.24"/>
</g>
<!-- Node20 -->
<g id="node20" class="node">
<title>Node20</title>
<g id="a_node20"><a xlink:href="TextStyle_8h.html" target="_top" xlink:title="This file declares everything needed for the text style system used to style all the elements on the ...">
<polygon fill="white" stroke="black" points="1250.5,-168.5 1250.5,-187.5 1321.5,-187.5 1321.5,-168.5 1250.5,-168.5"/>
<text text-anchor="middle" x="1286" y="-175.5" font-family="Helvetica,sans-Serif" font-size="10.00">TextStyle.h</text>
</a>
</g>
</g>
<!-- Node12&#45;&gt;Node20 -->
<g id="edge24" class="edge">
<title>Node12&#45;&gt;Node20</title>
<path fill="none" stroke="midnightblue" d="M874.91,-227.58C962.57,-217.22 1152.8,-194.74 1240.29,-184.4"/>
<polygon fill="midnightblue" stroke="midnightblue" points="1240.92,-187.85 1250.44,-183.2 1240.1,-180.9 1240.92,-187.85"/>
</g>
<!-- Node27 -->
<g id="node27" class="node">
<title>Node27</title>
<g id="a_node27"><a xlink:title=" ">
<polygon fill="white" stroke="#bfbfbf" points="1357,-56.5 1357,-75.5 1407,-75.5 1407,-56.5 1357,-56.5"/>
<text text-anchor="middle" x="1382" y="-63.5" font-family="Helvetica,sans-Serif" font-size="10.00">cstdint</text>
</a>
</g>
</g>
<!-- Node12&#45;&gt;Node27 -->
<g id="edge50" class="edge">
<title>Node12&#45;&gt;Node27</title>
<path fill="none" stroke="midnightblue" d="M874.93,-224.54C931.12,-213.94 1020.47,-196.17 1034,-188 1071.8,-165.16 1059.4,-133.44 1098,-112 1193.36,-59.04 1235.58,-96.16 1346.91,-75.93"/>
<polygon fill="midnightblue" stroke="midnightblue" points="1347.67,-79.35 1356.83,-74.01 1346.34,-72.48 1347.67,-79.35"/>
</g>
<!-- Node36 -->
<g id="node31" class="node">
<title>Node36</title>
<g id="a_node31"><a xlink:title=" ">
<polygon fill="white" stroke="#bfbfbf" points="1681,-56.5 1681,-75.5 1745,-75.5 1745,-56.5 1681,-56.5"/>
<text text-anchor="middle" x="1713" y="-63.5" font-family="Helvetica,sans-Serif" font-size="10.00">algorithm</text>
</a>
</g>
</g>
<!-- Node12&#45;&gt;Node36 -->
<g id="edge57" class="edge">
<title>Node12&#45;&gt;Node36</title>
<path fill="none" stroke="midnightblue" d="M874.69,-229.87C962.9,-223.6 1162.69,-208.36 1330,-188 1370.62,-183.06 1663.22,-158.97 1694,-132 1707.11,-120.52 1711.41,-100.54 1712.7,-85.76"/>
<polygon fill="midnightblue" stroke="midnightblue" points="1716.2,-85.85 1713.2,-75.69 1709.21,-85.5 1716.2,-85.85"/>
</g>
<!-- Node39 -->
<g id="node33" class="node">
<title>Node39</title>
<g id="a_node33"><a xlink:title=" ">
<polygon fill="white" stroke="#bfbfbf" points="1780,-56.5 1780,-75.5 1838,-75.5 1838,-56.5 1780,-56.5"/>
<text text-anchor="middle" x="1809" y="-63.5" font-family="Helvetica,sans-Serif" font-size="10.00">memory</text>
</a>
</g>
</g>
<!-- Node12&#45;&gt;Node39 -->
<g id="edge51" class="edge">
<title>Node12&#45;&gt;Node39</title>
<path fill="none" stroke="midnightblue" d="M874.59,-231.58C976.05,-228 1228.07,-216.73 1437,-188 1499.22,-179.44 1656.15,-156.44 1714,-132 1743.42,-119.57 1773.14,-97.32 1791.31,-82.36"/>
<polygon fill="midnightblue" stroke="midnightblue" points="1793.86,-84.79 1799.26,-75.68 1789.35,-79.44 1793.86,-84.79"/>
</g>
<!-- Node40 -->
<g id="node34" class="node">
<title>Node40</title>
<g id="a_node34"><a xlink:title=" ">
<polygon fill="white" stroke="#bfbfbf" points="978,-56.5 978,-75.5 1010,-75.5 1010,-56.5 978,-56.5"/>
<text text-anchor="middle" x="994" y="-63.5" font-family="Helvetica,sans-Serif" font-size="10.00">list</text>
</a>
</g>
</g>
<!-- Node12&#45;&gt;Node40 -->
<g id="edge55" class="edge">
<title>Node12&#45;&gt;Node40</title>
<path fill="none" stroke="midnightblue" d="M871.61,-224.45C906.89,-216.41 952.95,-203.33 964,-188 969.2,-180.79 969.8,-174.74 964,-168 893.14,-85.62 655.09,-194.34 726,-112 761.19,-71.14 913.49,-88.29 966,-76 966.73,-75.83 967.46,-75.65 968.2,-75.46"/>
<polygon fill="midnightblue" stroke="midnightblue" points="969.2,-78.82 977.84,-72.69 967.26,-72.09 969.2,-78.82"/>
</g>
<!-- Node42 -->
<g id="node35" class="node">
<title>Node42</title>
<g id="a_node35"><a xlink:title=" ">
<polygon fill="white" stroke="#bfbfbf" points="864.5,-56.5 864.5,-75.5 957.5,-75.5 957.5,-56.5 864.5,-56.5"/>
<text text-anchor="middle" x="911" y="-63.5" font-family="Helvetica,sans-Serif" font-size="10.00">unordered_map</text>
</a>
</g>
</g>
<!-- Node12&#45;&gt;Node42 -->
<g id="edge53" class="edge">
<title>Node12&#45;&gt;Node42</title>
<path fill="none" stroke="midnightblue" d="M874.72,-224.64C917.27,-214.91 970.67,-196.43 946,-168 870.52,-81.02 620.26,-201.29 693,-112 712.97,-87.48 796.52,-75.92 854.18,-70.77"/>
<polygon fill="midnightblue" stroke="midnightblue" points="854.6,-74.25 864.27,-69.91 854.01,-67.27 854.6,-74.25"/>
</g>
<!-- Node43 -->
<g id="node36" class="node">
<title>Node43</title>
<g id="a_node36"><a xlink:title=" ">
<polygon fill="white" stroke="#bfbfbf" points="605,-168.5 605,-187.5 653,-187.5 653,-168.5 605,-168.5"/>
<text text-anchor="middle" x="629" y="-175.5" font-family="Helvetica,sans-Serif" font-size="10.00">mutex</text>
</a>
</g>
</g>
<!-- Node12&#45;&gt;Node43 -->
<g id="edge52" class="edge">
<title>Node12&#45;&gt;Node43</title>
<path fill="none" stroke="midnightblue" d="M797.29,-224.49C765.66,-215.99 715.42,-202.47 662.96,-188.26"/>
<polygon fill="midnightblue" stroke="midnightblue" points="663.72,-184.83 653.15,-185.59 661.88,-191.59 663.72,-184.83"/>
</g>
<!-- Node44 -->
<g id="node37" class="node">
<title>Node44</title>
<g id="a_node37"><a xlink:title=" ">
<polygon fill="white" stroke="#bfbfbf" points="671,-168.5 671,-187.5 725,-187.5 725,-168.5 671,-168.5"/>
<text text-anchor="middle" x="698" y="-175.5" font-family="Helvetica,sans-Serif" font-size="10.00">random</text>
</a>
</g>
</g>
<!-- Node12&#45;&gt;Node44 -->
<g id="edge54" class="edge">
<title>Node12&#45;&gt;Node44</title>
<path fill="none" stroke="midnightblue" d="M808.24,-224.44C786.68,-215.56 752.74,-201.56 728.21,-191.45"/>
<polygon fill="midnightblue" stroke="midnightblue" points="729.24,-188.09 718.66,-187.52 726.57,-194.56 729.24,-188.09"/>
</g>
<!-- Node45 -->
<g id="node38" class="node">
<title>Node45</title>
<g id="a_node38"><a xlink:title=" ">
<polygon fill="white" stroke="#bfbfbf" points="1580.5,-168.5 1580.5,-187.5 1627.5,-187.5 1627.5,-168.5 1580.5,-168.5"/>
<text text-anchor="middle" x="1604" y="-175.5" font-family="Helvetica,sans-Serif" font-size="10.00">vector</text>
</a>
</g>
</g>
<!-- Node12&#45;&gt;Node45 -->
<g id="edge56" class="edge">
<title>Node12&#45;&gt;Node45</title>
<path fill="none" stroke="midnightblue" d="M874.57,-232.93C990.59,-232.15 1306.35,-226.38 1566,-188 1567.47,-187.78 1568.96,-187.54 1570.47,-187.27"/>
<polygon fill="midnightblue" stroke="midnightblue" points="1571.3,-190.67 1580.4,-185.25 1569.91,-183.81 1571.3,-190.67"/>
</g>
<!-- Node46 -->
<g id="node39" class="node">
<title>Node46</title>
<g id="a_node39"><a xlink:title=" ">
<polygon fill="white" stroke="#bfbfbf" points="743.5,-168.5 743.5,-187.5 832.5,-187.5 832.5,-168.5 743.5,-168.5"/>
<text text-anchor="middle" x="788" y="-175.5" font-family="Helvetica,sans-Serif" font-size="10.00">wx/wupdlock.h</text>
</a>
</g>
</g>
<!-- Node12&#45;&gt;Node46 -->
<g id="edge58" class="edge">
<title>Node12&#45;&gt;Node46</title>
<path fill="none" stroke="midnightblue" d="M822.23,-224.08C816.44,-216.46 807.94,-205.26 800.86,-195.94"/>
<polygon fill="midnightblue" stroke="midnightblue" points="803.48,-193.6 794.64,-187.75 797.9,-197.83 803.48,-193.6"/>
</g>
<!-- Node47 -->
<g id="node40" class="node">
<title>Node47</title>
<g id="a_node40"><a xlink:title=" ">
<polygon fill="white" stroke="#bfbfbf" points="851,-168.5 851,-187.5 937,-187.5 937,-168.5 851,-168.5"/>
<text text-anchor="middle" x="894" y="-175.5" font-family="Helvetica,sans-Serif" font-size="10.00">wx/webview.h</text>
</a>
</g>
</g>
<!-- Node12&#45;&gt;Node47 -->
<g id="edge59" class="edge">
<title>Node12&#45;&gt;Node47</title>
<path fill="none" stroke="midnightblue" d="M839.44,-224.32C849.15,-216.26 863.82,-204.08 875.5,-194.37"/>
<polygon fill="midnightblue" stroke="midnightblue" points="877.91,-196.92 883.37,-187.83 873.44,-191.53 877.91,-196.92"/>
</g>
<!-- Node17&#45;&gt;Node3 -->
<g id="edge21" class="edge">
<title>Node17&#45;&gt;Node3</title>
<path fill="none" stroke="midnightblue" d="M199.67,-168.37C222.71,-149.73 277.36,-105.53 306.29,-82.13"/>
<polygon fill="midnightblue" stroke="midnightblue" points="308.8,-84.6 314.38,-75.59 304.4,-79.16 308.8,-84.6"/>
</g>
<!-- Node18 -->
<g id="node18" class="node">
<title>Node18</title>
<g id="a_node18"><a xlink:title=" ">
<polygon fill="white" stroke="#bfbfbf" points="66.5,-112.5 66.5,-131.5 145.5,-131.5 145.5,-112.5 66.5,-112.5"/>
<text text-anchor="middle" x="106" y="-119.5" font-family="Helvetica,sans-Serif" font-size="10.00">wx/msgdlg.h</text>
</a>
</g>
</g>
<!-- Node17&#45;&gt;Node18 -->
<g id="edge22" class="edge">
<title>Node17&#45;&gt;Node18</title>
<path fill="none" stroke="midnightblue" d="M175.66,-168.32C162.84,-159.98 143.22,-147.21 128.06,-137.35"/>
<polygon fill="midnightblue" stroke="midnightblue" points="129.59,-134.17 119.3,-131.65 125.78,-140.04 129.59,-134.17"/>
</g>
<!-- Node19 -->
<g id="node19" class="node">
<title>Node19</title>
<g id="a_node19"><a xlink:title=" ">
<polygon fill="white" stroke="#bfbfbf" points="163,-112.5 163,-131.5 221,-131.5 221,-112.5 163,-112.5"/>
<text text-anchor="middle" x="192" y="-119.5" font-family="Helvetica,sans-Serif" font-size="10.00">wx/log.h</text>
</a>
</g>
</g>
<!-- Node17&#45;&gt;Node19 -->
<g id="edge23" class="edge">
<title>Node17&#45;&gt;Node19</title>
<path fill="none" stroke="midnightblue" d="M189.5,-168.08C189.89,-161.01 190.45,-150.86 190.95,-141.99"/>
<polygon fill="midnightblue" stroke="midnightblue" points="194.45,-141.93 191.51,-131.75 187.46,-141.54 194.45,-141.93"/>
</g>
<!-- Node20&#45;&gt;Node3 -->
<g id="edge25" class="edge">
<title>Node20&#45;&gt;Node3</title>
<path fill="none" stroke="midnightblue" d="M1250.19,-172.84C1160.16,-162.37 930.35,-135.47 914,-132 884.44,-125.72 878.67,-117.77 849,-112 673.55,-77.88 460.04,-69.63 369.26,-67.63"/>
<polygon fill="midnightblue" stroke="midnightblue" points="369.13,-64.13 359.06,-67.43 368.99,-71.13 369.13,-64.13"/>
</g>
<!-- Node20&#45;&gt;Node13 -->
<g id="edge30" class="edge">
<title>Node20&#45;&gt;Node13</title>
<path fill="none" stroke="midnightblue" d="M1250.2,-173.25C1159.12,-163.7 918.66,-138.48 817.2,-127.84"/>
<polygon fill="midnightblue" stroke="midnightblue" points="817.56,-124.36 807.25,-126.8 816.83,-131.33 817.56,-124.36"/>
</g>
<!-- Node21 -->
<g id="node21" class="node">
<title>Node21</title>
<g id="a_node21"><a xlink:title=" ">
<polygon fill="white" stroke="#bfbfbf" points="1519,-112.5 1519,-131.5 1591,-131.5 1591,-112.5 1519,-112.5"/>
<text text-anchor="middle" x="1555" y="-119.5" font-family="Helvetica,sans-Serif" font-size="10.00">wx/colour.h</text>
</a>
</g>
</g>
<!-- Node20&#45;&gt;Node21 -->
<g id="edge26" class="edge">
<title>Node20&#45;&gt;Node21</title>
<path fill="none" stroke="midnightblue" d="M1321.72,-169.83C1369.92,-160.15 1455.84,-142.91 1508.88,-132.26"/>
<polygon fill="midnightblue" stroke="midnightblue" points="1509.59,-135.69 1518.7,-130.29 1508.21,-128.82 1509.59,-135.69"/>
</g>
<!-- Node22 -->
<g id="node22" class="node">
<title>Node22</title>
<g id="a_node22"><a xlink:title=" ">
<polygon fill="white" stroke="#bfbfbf" points="1647,-112.5 1647,-131.5 1685,-131.5 1685,-112.5 1647,-112.5"/>
<text text-anchor="middle" x="1666" y="-119.5" font-family="Helvetica,sans-Serif" font-size="10.00">map</text>
</a>
</g>
</g>
<!-- Node20&#45;&gt;Node22 -->
<g id="edge27" class="edge">
<title>Node20&#45;&gt;Node22</title>
<path fill="none" stroke="midnightblue" d="M1321.73,-174C1384.94,-168.33 1520.42,-154.54 1633,-132 1634.28,-131.74 1635.58,-131.47 1636.89,-131.17"/>
<polygon fill="midnightblue" stroke="midnightblue" points="1638.05,-134.49 1646.91,-128.68 1636.36,-127.7 1638.05,-134.49"/>
</g>
<!-- Node23 -->
<g id="node23" class="node">
<title>Node23</title>
<g id="a_node23"><a xlink:title=" ">
<polygon fill="white" stroke="#bfbfbf" points="1107,-112.5 1107,-131.5 1151,-131.5 1151,-112.5 1107,-112.5"/>
<text text-anchor="middle" x="1129" y="-119.5" font-family="Helvetica,sans-Serif" font-size="10.00">string</text>
</a>
</g>
</g>
<!-- Node20&#45;&gt;Node23 -->
<g id="edge28" class="edge">
<title>Node20&#45;&gt;Node23</title>
<path fill="none" stroke="midnightblue" d="M1261.12,-168.44C1233.93,-159.09 1190.31,-144.09 1160.69,-133.9"/>
<polygon fill="midnightblue" stroke="midnightblue" points="1161.82,-130.59 1151.22,-130.64 1159.54,-137.21 1161.82,-130.59"/>
</g>
<!-- Node24 -->
<g id="node24" class="node">
<title>Node24</title>
<g id="a_node24"><a xlink:title=" ">
<polygon fill="white" stroke="#bfbfbf" points="1169.5,-112.5 1169.5,-131.5 1226.5,-131.5 1226.5,-112.5 1169.5,-112.5"/>
<text text-anchor="middle" x="1198" y="-119.5" font-family="Helvetica,sans-Serif" font-size="10.00">ostream</text>
</a>
</g>
</g>
<!-- Node20&#45;&gt;Node24 -->
<g id="edge29" class="edge">
<title>Node20&#45;&gt;Node24</title>
<path fill="none" stroke="midnightblue" d="M1271.86,-168.32C1258.13,-159.9 1237.06,-146.97 1220.94,-137.07"/>
<polygon fill="midnightblue" stroke="midnightblue" points="1222.46,-133.9 1212.1,-131.65 1218.8,-139.87 1222.46,-133.9"/>
</g>
<!-- Node25 -->
<g id="node25" class="node">
<title>Node25</title>
<g id="a_node25"><a xlink:title=" ">
<polygon fill="white" stroke="#bfbfbf" points="1277,-56.5 1277,-75.5 1339,-75.5 1339,-56.5 1277,-56.5"/>
<text text-anchor="middle" x="1308" y="-63.5" font-family="Helvetica,sans-Serif" font-size="10.00">wx/font.h</text>
</a>
</g>
</g>
<!-- Node20&#45;&gt;Node25 -->
<g id="edge31" class="edge">
<title>Node20&#45;&gt;Node25</title>
<path fill="none" stroke="midnightblue" d="M1300.95,-168.47C1312.93,-160.7 1328.87,-148 1336,-132 1343.3,-115.61 1333.16,-96.77 1323.11,-83.61"/>
<polygon fill="midnightblue" stroke="midnightblue" points="1325.77,-81.33 1316.69,-75.86 1320.37,-85.8 1325.77,-81.33"/>
</g>
<!-- Node26 -->
<g id="node26" class="node">
<title>Node26</title>
<g id="a_node26"><a xlink:title=" ">
<polygon fill="white" stroke="#bfbfbf" points="1245,-112.5 1245,-131.5 1327,-131.5 1327,-112.5 1245,-112.5"/>
<text text-anchor="middle" x="1286" y="-119.5" font-family="Helvetica,sans-Serif" font-size="10.00">wx/settings.h</text>
</a>
</g>
</g>
<!-- Node20&#45;&gt;Node26 -->
<g id="edge32" class="edge">
<title>Node20&#45;&gt;Node26</title>
<path fill="none" stroke="midnightblue" d="M1286,-168.08C1286,-161.01 1286,-150.86 1286,-141.99"/>
<polygon fill="midnightblue" stroke="midnightblue" points="1289.5,-141.75 1286,-131.75 1282.5,-141.75 1289.5,-141.75"/>
</g>
<!-- Node20&#45;&gt;Node27 -->
<g id="edge33" class="edge">
<title>Node20&#45;&gt;Node27</title>
<path fill="none" stroke="midnightblue" d="M1303.66,-168.41C1318.21,-160.6 1338.56,-147.88 1352,-132 1363.53,-118.38 1371.57,-99.58 1376.4,-85.71"/>
<polygon fill="midnightblue" stroke="midnightblue" points="1379.85,-86.42 1379.59,-75.83 1373.19,-84.26 1379.85,-86.42"/>
</g>
<!-- Node28 -->
<g id="node28" class="node">
<title>Node28</title>
<g id="a_node28"><a xlink:title=" ">
<polygon fill="white" stroke="#bfbfbf" points="1476.5,-0.5 1476.5,-19.5 1541.5,-19.5 1541.5,-0.5 1476.5,-0.5"/>
<text text-anchor="middle" x="1509" y="-7.5" font-family="Helvetica,sans-Serif" font-size="10.00">functional</text>
</a>
</g>
</g>
<!-- Node20&#45;&gt;Node28 -->
<g id="edge34" class="edge">
<title>Node20&#45;&gt;Node28</title>
<path fill="none" stroke="midnightblue" d="M1321.55,-177.46C1395.98,-177.59 1564.29,-173.2 1600,-132 1632.06,-95.02 1569.33,-47.81 1532.74,-24.83"/>
<polygon fill="midnightblue" stroke="midnightblue" points="1534.44,-21.76 1524.08,-19.53 1530.78,-27.73 1534.44,-21.76"/>
</g>
<!-- Node29 -->
<g id="node29" class="node">
<title>Node29</title>
<g id="a_node29"><a xlink:href="FontAttribs_8h_source.html" target="_top" xlink:title=" ">
<polygon fill="white" stroke="red" points="1421.5,-112.5 1421.5,-131.5 1500.5,-131.5 1500.5,-112.5 1421.5,-112.5"/>
<text text-anchor="middle" x="1461" y="-119.5" font-family="Helvetica,sans-Serif" font-size="10.00">FontAttribs.h</text>
</a>
</g>
</g>
<!-- Node20&#45;&gt;Node29 -->
<g id="edge35" class="edge">
<title>Node20&#45;&gt;Node29</title>
<path fill="none" stroke="midnightblue" d="M1313.73,-168.44C1343.43,-159.28 1390.72,-144.69 1423.67,-134.52"/>
<polygon fill="midnightblue" stroke="midnightblue" points="1424.88,-137.81 1433.4,-131.52 1422.81,-131.12 1424.88,-137.81"/>
</g>
<!-- Node38 -->
<g id="node32" class="node">
<title>Node38</title>
<g id="a_node32"><a xlink:href="FontVariantCache_8h.html" target="_top" xlink:title="This file implements the wxFont cache system.">
<polygon fill="white" stroke="red" points="939.5,-112.5 939.5,-131.5 1050.5,-131.5 1050.5,-112.5 939.5,-112.5"/>
<text text-anchor="middle" x="995" y="-119.5" font-family="Helvetica,sans-Serif" font-size="10.00">FontVariantCache.h</text>
</a>
</g>
</g>
<!-- Node20&#45;&gt;Node38 -->
<g id="edge42" class="edge">
<title>Node20&#45;&gt;Node38</title>
<path fill="none" stroke="midnightblue" d="M1250.32,-170.38C1200.53,-161.14 1109.74,-144.29 1050.92,-133.38"/>
<polygon fill="midnightblue" stroke="midnightblue" points="1051.52,-129.93 1041.05,-131.55 1050.24,-136.81 1051.52,-129.93"/>
</g>
<!-- Node20&#45;&gt;Node42 -->
<g id="edge49" class="edge">
<title>Node20&#45;&gt;Node42</title>
<path fill="none" stroke="midnightblue" d="M1250.26,-172.74C1160.6,-162.02 933.04,-134.6 930,-132 916.74,-120.69 912.47,-100.69 911.22,-85.85"/>
<polygon fill="midnightblue" stroke="midnightblue" points="914.71,-85.57 910.75,-75.74 907.71,-85.89 914.71,-85.57"/>
</g>
<!-- Node29&#45;&gt;Node25 -->
<g id="edge38" class="edge">
<title>Node29&#45;&gt;Node25</title>
<path fill="none" stroke="midnightblue" d="M1436.76,-112.44C1411.13,-103.4 1370.51,-89.06 1341.76,-78.92"/>
<polygon fill="midnightblue" stroke="midnightblue" points="1342.72,-75.54 1332.13,-75.52 1340.39,-82.15 1342.72,-75.54"/>
</g>
<!-- Node29&#45;&gt;Node27 -->
<g id="edge40" class="edge">
<title>Node29&#45;&gt;Node27</title>
<path fill="none" stroke="midnightblue" d="M1448.31,-112.32C1436.1,-103.98 1417.42,-91.21 1403,-81.35"/>
<polygon fill="midnightblue" stroke="midnightblue" points="1404.89,-78.41 1394.66,-75.65 1400.94,-84.19 1404.89,-78.41"/>
</g>
<!-- Node29&#45;&gt;Node28 -->
<g id="edge41" class="edge">
<title>Node29&#45;&gt;Node28</title>
<path fill="none" stroke="midnightblue" d="M1483.79,-112.47C1499.33,-105.32 1518.71,-93.44 1528,-76 1536.01,-60.97 1528.87,-42.14 1521.17,-28.62"/>
<polygon fill="midnightblue" stroke="midnightblue" points="1523.94,-26.46 1515.66,-19.85 1518.01,-30.18 1523.94,-26.46"/>
</g>
<!-- Node30 -->
<g id="node30" class="node">
<title>Node30</title>
<g id="a_node30"><a xlink:href="EnumWrapper_8h_source.html" target="_top" xlink:title=" ">
<polygon fill="white" stroke="red" points="1425,-56.5 1425,-75.5 1519,-75.5 1519,-56.5 1425,-56.5"/>
<text text-anchor="middle" x="1472" y="-63.5" font-family="Helvetica,sans-Serif" font-size="10.00">EnumWrapper.h</text>
</a>
</g>
</g>
<!-- Node29&#45;&gt;Node30 -->
<g id="edge36" class="edge">
<title>Node29&#45;&gt;Node30</title>
<path fill="none" stroke="midnightblue" d="M1462.82,-112.08C1464.27,-104.93 1466.37,-94.64 1468.19,-85.69"/>
<polygon fill="midnightblue" stroke="midnightblue" points="1471.65,-86.25 1470.22,-75.75 1464.79,-84.85 1471.65,-86.25"/>
</g>
<!-- Node29&#45;&gt;Node36 -->
<g id="edge39" class="edge">
<title>Node29&#45;&gt;Node36</title>
<path fill="none" stroke="midnightblue" d="M1500.65,-112.5C1547.01,-102.57 1623.42,-86.2 1670.83,-76.04"/>
<polygon fill="midnightblue" stroke="midnightblue" points="1671.73,-79.42 1680.78,-73.91 1670.27,-72.58 1671.73,-79.42"/>
</g>
<!-- Node30&#45;&gt;Node28 -->
<g id="edge37" class="edge">
<title>Node30&#45;&gt;Node28</title>
<path fill="none" stroke="midnightblue" d="M1478.11,-56.08C1483.28,-48.53 1490.85,-37.49 1497.19,-28.23"/>
<polygon fill="midnightblue" stroke="midnightblue" points="1500.24,-29.98 1503,-19.75 1494.46,-26.02 1500.24,-29.98"/>
</g>
<!-- Node38&#45;&gt;Node3 -->
<g id="edge43" class="edge">
<title>Node38&#45;&gt;Node3</title>
<path fill="none" stroke="midnightblue" d="M939.23,-116.32C922.44,-114.92 903.97,-113.39 887,-112 694.24,-96.25 464.23,-78 369.31,-70.5"/>
<polygon fill="midnightblue" stroke="midnightblue" points="369.46,-67 359.22,-69.7 368.91,-73.98 369.46,-67"/>
</g>
<!-- Node38&#45;&gt;Node25 -->
<g id="edge45" class="edge">
<title>Node38&#45;&gt;Node25</title>
<path fill="none" stroke="midnightblue" d="M1044.6,-112.44C1105.94,-101.86 1209.25,-84.04 1266.56,-74.15"/>
<polygon fill="midnightblue" stroke="midnightblue" points="1267.45,-77.55 1276.71,-72.4 1266.26,-70.65 1267.45,-77.55"/>
</g>
<!-- Node38&#45;&gt;Node28 -->
<g id="edge46" class="edge">
<title>Node38&#45;&gt;Node28</title>
<path fill="none" stroke="midnightblue" d="M1028.5,-112.46C1079.87,-99.5 1181.26,-74.41 1268,-56 1337.05,-41.34 1417.77,-26.79 1466.06,-18.36"/>
<polygon fill="midnightblue" stroke="midnightblue" points="1466.9,-21.77 1476.15,-16.61 1465.7,-14.87 1466.9,-21.77"/>
</g>
<!-- Node38&#45;&gt;Node39 -->
<g id="edge44" class="edge">
<title>Node38&#45;&gt;Node39</title>
<path fill="none" stroke="midnightblue" d="M1050.57,-115.81C1065.93,-114.47 1082.6,-113.09 1098,-112 1389.26,-91.29 1463.72,-107.62 1754,-76 1759.16,-75.44 1764.57,-74.72 1769.9,-73.93"/>
<polygon fill="midnightblue" stroke="midnightblue" points="1770.63,-77.36 1779.97,-72.35 1769.54,-70.44 1770.63,-77.36"/>
</g>
<!-- Node38&#45;&gt;Node40 -->
<g id="edge47" class="edge">
<title>Node38&#45;&gt;Node40</title>
<path fill="none" stroke="midnightblue" d="M994.83,-112.08C994.7,-105.01 994.52,-94.86 994.35,-85.99"/>
<polygon fill="midnightblue" stroke="midnightblue" points="997.85,-85.68 994.16,-75.75 990.85,-85.81 997.85,-85.68"/>
</g>
<!-- Node38&#45;&gt;Node42 -->
<g id="edge48" class="edge">
<title>Node38&#45;&gt;Node42</title>
<path fill="none" stroke="midnightblue" d="M981.5,-112.32C968.4,-103.9 948.29,-90.97 932.89,-81.07"/>
<polygon fill="midnightblue" stroke="midnightblue" points="934.77,-78.12 924.46,-75.65 930.98,-84.01 934.77,-78.12"/>
</g>
<!-- Node48&#45;&gt;Node3 -->
<g id="edge62" class="edge">
<title>Node48&#45;&gt;Node3</title>
<path fill="none" stroke="midnightblue" d="M819.9,-396.44C728.16,-382.67 479.02,-333.15 344,-188 318.14,-160.2 319.11,-112.31 322.07,-85.88"/>
<polygon fill="midnightblue" stroke="midnightblue" points="325.57,-86.07 323.43,-75.69 318.63,-85.14 325.57,-86.07"/>
</g>
<!-- Node48&#45;&gt;Node5 -->
<g id="edge63" class="edge">
<title>Node48&#45;&gt;Node5</title>
<path fill="none" stroke="midnightblue" d="M890,-399.67C949.76,-395.29 1070.29,-376.86 1125,-300 1146.74,-269.46 1143.6,-223.02 1139.64,-197.46"/>
<polygon fill="midnightblue" stroke="midnightblue" points="1143.09,-196.85 1137.91,-187.61 1136.19,-198.06 1143.09,-196.85"/>
</g>
<!-- Node49 -->
<g id="node42" class="node">
<title>Node49</title>
<g id="a_node42"><a xlink:href="SvgBitmap_8h.html" target="_top" xlink:title="This file declares the class Image.">
<polygon fill="white" stroke="black" points="913.5,-336.5 913.5,-355.5 992.5,-355.5 992.5,-336.5 913.5,-336.5"/>
<text text-anchor="middle" x="953" y="-343.5" font-family="Helvetica,sans-Serif" font-size="10.00">SvgBitmap.h</text>
</a>
</g>
</g>
<!-- Node48&#45;&gt;Node49 -->
<g id="edge64" class="edge">
<title>Node48&#45;&gt;Node49</title>
<path fill="none" stroke="midnightblue" d="M870.75,-392.32C886.32,-383.74 910.38,-370.49 928.46,-360.52"/>
<polygon fill="midnightblue" stroke="midnightblue" points="930.22,-363.55 937.29,-355.65 926.85,-357.42 930.22,-363.55"/>
</g>
<!-- Node49&#45;&gt;Node3 -->
<g id="edge66" class="edge">
<title>Node49&#45;&gt;Node3</title>
<path fill="none" stroke="midnightblue" d="M914.47,-336.43C875.81,-327.7 814.61,-313.58 762,-300 750.85,-297.12 371.66,-195.59 363,-188 333.16,-161.84 326.5,-112.53 325.17,-85.64"/>
<polygon fill="midnightblue" stroke="midnightblue" points="328.67,-85.52 324.88,-75.62 321.67,-85.72 328.67,-85.52"/>
</g>
<!-- Node49&#45;&gt;Node39 -->
<g id="edge65" class="edge">
<title>Node49&#45;&gt;Node39</title>
<path fill="none" stroke="midnightblue" d="M992.71,-343.66C1132.81,-338.37 1602.48,-315.55 1732,-244 1784.88,-214.79 1796.41,-191.08 1809,-132 1812.27,-116.63 1811.99,-98.76 1811.04,-85.65"/>
<polygon fill="midnightblue" stroke="midnightblue" points="1814.52,-85.17 1810.12,-75.53 1807.54,-85.81 1814.52,-85.17"/>
</g>
<!-- Node50 -->
<g id="node43" class="node">
<title>Node50</title>
<g id="a_node43"><a xlink:title=" ">
<polygon fill="white" stroke="#bfbfbf" points="914.5,-280.5 914.5,-299.5 991.5,-299.5 991.5,-280.5 914.5,-280.5"/>
<text text-anchor="middle" x="953" y="-287.5" font-family="Helvetica,sans-Serif" font-size="10.00">wx/bitmap.h</text>
</a>
</g>
</g>
<!-- Node49&#45;&gt;Node50 -->
<g id="edge67" class="edge">
<title>Node49&#45;&gt;Node50</title>
<path fill="none" stroke="midnightblue" d="M953,-336.08C953,-329.01 953,-318.86 953,-309.99"/>
<polygon fill="midnightblue" stroke="midnightblue" points="956.5,-309.75 953,-299.75 949.5,-309.75 956.5,-309.75"/>
</g>
<!-- Node51 -->
<g id="node44" class="node">
<title>Node51</title>
<g id="a_node44"><a xlink:title=" ">
<polygon fill="white" stroke="#bfbfbf" points="1009.5,-280.5 1009.5,-299.5 1116.5,-299.5 1116.5,-280.5 1009.5,-280.5"/>
<text text-anchor="middle" x="1063" y="-287.5" font-family="Helvetica,sans-Serif" font-size="10.00">nanosvg_private.h</text>
</a>
</g>
</g>
<!-- Node49&#45;&gt;Node51 -->
<g id="edge68" class="edge">
<title>Node49&#45;&gt;Node51</title>
<path fill="none" stroke="midnightblue" d="M970.67,-336.32C988.39,-327.62 1015.9,-314.12 1036.29,-304.11"/>
<polygon fill="midnightblue" stroke="midnightblue" points="1037.94,-307.2 1045.37,-299.65 1034.85,-300.92 1037.94,-307.2"/>
</g>
<!-- Node52 -->
<g id="node45" class="node">
<title>Node52</title>
<g id="a_node45"><a xlink:title=" ">
<polygon fill="white" stroke="#bfbfbf" points="771.5,-280.5 771.5,-299.5 896.5,-299.5 896.5,-280.5 771.5,-280.5"/>
<text text-anchor="middle" x="834" y="-287.5" font-family="Helvetica,sans-Serif" font-size="10.00">nanosvgrast_private.h</text>
</a>
</g>
</g>
<!-- Node49&#45;&gt;Node52 -->
<g id="edge69" class="edge">
<title>Node49&#45;&gt;Node52</title>
<path fill="none" stroke="midnightblue" d="M934.14,-336.44C914.73,-327.64 884.27,-313.81 862.04,-303.72"/>
<polygon fill="midnightblue" stroke="midnightblue" points="863.32,-300.46 852.77,-299.52 860.43,-306.84 863.32,-300.46"/>
</g>
<!-- Node53 -->
<g id="node46" class="node">
<title>Node53</title>
<g id="a_node46"><a xlink:href="Cell_8h.html" target="_top" xlink:title="The definition of the base class of all cells the worksheet consists of.">
<polygon fill="white" stroke="red" points="1383,-280.5 1383,-299.5 1427,-299.5 1427,-280.5 1383,-280.5"/>
<text text-anchor="middle" x="1405" y="-287.5" font-family="Helvetica,sans-Serif" font-size="10.00">Cell.h</text>
</a>
</g>
</g>
<!-- Node49&#45;&gt;Node53 -->
<g id="edge70" class="edge">
<title>Node49&#45;&gt;Node53</title>
<path fill="none" stroke="midnightblue" d="M992.72,-340.26C1080.95,-329.71 1291.88,-304.51 1372.72,-294.86"/>
<polygon fill="midnightblue" stroke="midnightblue" points="1373.28,-298.31 1382.79,-293.65 1372.45,-291.36 1373.28,-298.31"/>
</g>
<!-- Node53&#45;&gt;Node3 -->
<g id="edge71" class="edge">
<title>Node53&#45;&gt;Node3</title>
<path fill="none" stroke="midnightblue" d="M1390.26,-280.39C1346.72,-255.11 1218.85,-181.97 1173,-168 1034.4,-125.78 986.17,-178.64 849,-132 832.76,-126.48 832.29,-117.36 816,-112 733.66,-84.88 474.26,-72.51 369.52,-68.52"/>
<polygon fill="midnightblue" stroke="midnightblue" points="369.41,-65.01 359.28,-68.14 369.15,-72.01 369.41,-65.01"/>
</g>
<!-- Node53&#45;&gt;Node12 -->
<g id="edge72" class="edge">
<title>Node53&#45;&gt;Node12</title>
<path fill="none" stroke="midnightblue" d="M1382.77,-286.92C1300.02,-279.16 1008.23,-251.8 884.8,-240.23"/>
<polygon fill="midnightblue" stroke="midnightblue" points="885.08,-236.74 874.8,-239.29 884.43,-243.71 885.08,-236.74"/>
</g>
<!-- Node53&#45;&gt;Node20 -->
<g id="edge73" class="edge">
<title>Node53&#45;&gt;Node20</title>
<path fill="none" stroke="midnightblue" d="M1395.66,-280.37C1375.59,-261.81 1328.1,-217.91 1302.7,-194.44"/>
<polygon fill="midnightblue" stroke="midnightblue" points="1305.01,-191.81 1295.29,-187.59 1300.26,-196.95 1305.01,-191.81"/>
</g>
<!-- Node53&#45;&gt;Node22 -->
<g id="edge75" class="edge">
<title>Node53&#45;&gt;Node22</title>
<path fill="none" stroke="midnightblue" d="M1427.35,-285.57C1494.89,-274.69 1694.61,-238.68 1732,-188 1747,-167.66 1718.72,-147.8 1694.64,-135.5"/>
<polygon fill="midnightblue" stroke="midnightblue" points="1695.91,-132.22 1685.38,-131.01 1692.85,-138.52 1695.91,-132.22"/>
</g>
<!-- Node53&#45;&gt;Node36 -->
<g id="edge74" class="edge">
<title>Node53&#45;&gt;Node36</title>
<path fill="none" stroke="midnightblue" d="M1427.22,-288.16C1472.93,-285.78 1580.16,-276.86 1663,-244 1705.05,-227.32 1726.54,-227.83 1748,-188 1766.58,-153.52 1742.02,-108.05 1725.6,-83.85"/>
<polygon fill="midnightblue" stroke="midnightblue" points="1728.45,-81.82 1719.81,-75.69 1722.74,-85.87 1728.45,-81.82"/>
</g>
<!-- Node53&#45;&gt;Node39 -->
<g id="edge76" class="edge">
<title>Node53&#45;&gt;Node39</title>
<path fill="none" stroke="midnightblue" d="M1427.09,-289.82C1478.13,-290.87 1607.09,-288.51 1702,-244 1735.92,-228.09 1743.96,-218.99 1765,-188 1787.1,-155.45 1799.61,-110.45 1805.27,-85.51"/>
<polygon fill="midnightblue" stroke="midnightblue" points="1808.73,-86.1 1807.4,-75.58 1801.88,-84.63 1808.73,-86.1"/>
</g>
<!-- Node53&#45;&gt;Node45 -->
<g id="edge77" class="edge">
<title>Node53&#45;&gt;Node45</title>
<path fill="none" stroke="midnightblue" d="M1420.62,-280.37C1455.13,-261.29 1538.11,-215.42 1579.57,-192.51"/>
<polygon fill="midnightblue" stroke="midnightblue" points="1581.4,-195.49 1588.46,-187.59 1578.01,-189.37 1581.4,-195.49"/>
</g>
</g>
</svg>
