<?xml version="1.0" encoding="UTF-8" standalone="no"?>
<!DOCTYPE svg PUBLIC "-//W3C//DTD SVG 1.1//EN"
 "http://www.w3.org/Graphics/SVG/1.1/DTD/svg11.dtd">
<!-- Generated by graphviz version 2.43.0 (0)
 -->
<!-- Title: src/sidebars/DrawSidebar.cpp Pages: 1 -->
<!--zoomable 412 -->
<svg id="main" version="1.1" xmlns="http://www.w3.org/2000/svg" xmlns:xlink="http://www.w3.org/1999/xlink" xml:space="preserve" onload="init(evt)">
<style type="text/css"><![CDATA[
.edge:hover path { stroke: red; }
.edge:hover polygon { stroke: red; fill: red; }
]]></style>
<script type="text/javascript"><![CDATA[
var edges = document.getElementsByTagName('g');
if (edges && edges.length) {
  for (var i=0;i<edges.length;i++) {
    if (edges[i].id.substr(0,4)=='edge') {
      edges[i].setAttribute('class','edge');
    }
  }
}
]]></script>
        <defs>
                <circle id="rim" cx="0" cy="0" r="7"/>
                <circle id="rim2" cx="0" cy="0" r="3.5"/>
                <g id="zoomPlus">
                        <use xlink:href="#rim" fill="#404040">
                                <set attributeName="fill" to="#808080" begin="zoomplus.mouseover" end="zoomplus.mouseout"/>
                        </use>
                        <path d="M-4,0h8M0,-4v8" fill="none" stroke="white" stroke-width="1.5" pointer-events="none"/>
                </g>
                <g id="zoomMin">
                        <use xlink:href="#rim" fill="#404040">
                                <set attributeName="fill" to="#808080" begin="zoomminus.mouseover" end="zoomminus.mouseout"/>
                        </use>
                        <path d="M-4,0h8" fill="none" stroke="white" stroke-width="1.5" pointer-events="none"/>
                </g>
                <g id="dirArrow">
                        <path fill="none" stroke="white" stroke-width="1.5" d="M0,-3.0v7 M-2.5,-0.5L0,-3.0L2.5,-0.5"/>
                </g>
               <g id="resetDef">
                       <use xlink:href="#rim2" fill="#404040">
                               <set attributeName="fill" to="#808080" begin="reset.mouseover" end="reset.mouseout"/>
                       </use>
               </g>
        </defs>

<script type="text/javascript">
var viewWidth = 2783;
var viewHeight = 412;
var sectionId = 'dynsection-0';
</script>
<script xlink:href="svgpan.js"/>
<svg id="graph" class="graph">
<g id="viewport">
<title>src/sidebars/DrawSidebar.cpp</title>
<!-- Node1 -->
<g id="node1" class="node">
<title>Node1</title>
<g id="a_node1"><a xlink:title="This file defines the class StatSidebar.">
<polygon fill="#999999" stroke="#666666" points="687.5,-404 527.5,-404 527.5,-385 687.5,-385 687.5,-404"/>
<text text-anchor="middle" x="607.5" y="-392" font-family="Helvetica,sans-Serif" font-size="10.00">src/sidebars/DrawSidebar.cpp</text>
</a>
</g>
</g>
<!-- Node2 -->
<g id="node2" class="node">
<title>Node2</title>
<g id="a_node2"><a xlink:href="DrawSidebar_8h.html" target="_top" xlink:title="This file declares the class StatSidebar, that provides some statistics buttons.">
<polygon fill="white" stroke="#666666" points="470,-294 383,-294 383,-275 470,-275 470,-294"/>
<text text-anchor="middle" x="426.5" y="-282" font-family="Helvetica,sans-Serif" font-size="10.00">DrawSidebar.h</text>
</a>
</g>
</g>
<!-- Node1&#45;&gt;Node2 -->
<g id="edge1" class="edge">
<title>Node1&#45;&gt;Node2</title>
<path fill="none" stroke="#63b8ff" d="M592.99,-384.84C561.67,-366.16 487.5,-321.9 449.62,-299.3"/>
<polygon fill="#63b8ff" stroke="#63b8ff" points="451.2,-296.17 440.82,-294.05 447.62,-302.18 451.2,-296.17"/>
</g>
<!-- Node14 -->
<g id="node14" class="node">
<title>Node14</title>
<g id="a_node14"><a xlink:title=" ">
<polygon fill="#e0e0e0" stroke="#999999" points="774,-349 681,-349 681,-330 774,-330 774,-349"/>
<text text-anchor="middle" x="727.5" y="-337" font-family="Helvetica,sans-Serif" font-size="10.00">wx/windowptr.h</text>
</a>
</g>
</g>
<!-- Node1&#45;&gt;Node14 -->
<g id="edge15" class="edge">
<title>Node1&#45;&gt;Node14</title>
<path fill="none" stroke="#63b8ff" d="M626.78,-384.98C646.17,-376.42 676.31,-363.11 698.57,-353.28"/>
<polygon fill="#63b8ff" stroke="#63b8ff" points="700.14,-356.41 707.87,-349.17 697.31,-350.01 700.14,-356.41"/>
</g>
<!-- Node15 -->
<g id="node15" class="node">
<title>Node15</title>
<g id="a_node15"><a xlink:href="Gen1Wiz_8h_source.html" target="_top" xlink:title=" ">
<polygon fill="white" stroke="#666666" points="662.5,-349 552.5,-349 552.5,-330 662.5,-330 662.5,-349"/>
<text text-anchor="middle" x="607.5" y="-337" font-family="Helvetica,sans-Serif" font-size="10.00">wizards/Gen1Wiz.h</text>
</a>
</g>
</g>
<!-- Node1&#45;&gt;Node15 -->
<g id="edge16" class="edge">
<title>Node1&#45;&gt;Node15</title>
<path fill="none" stroke="#63b8ff" d="M607.5,-384.75C607.5,-377.8 607.5,-367.85 607.5,-359.13"/>
<polygon fill="#63b8ff" stroke="#63b8ff" points="611,-359.09 607.5,-349.09 604,-359.09 611,-359.09"/>
</g>
<!-- Node3 -->
<g id="node3" class="node">
<title>Node3</title>
<g id="a_node3"><a xlink:href="precomp_8h_source.html" target="_top" xlink:title=" ">
<polygon fill="white" stroke="#666666" points="733.5,-74 665.5,-74 665.5,-55 733.5,-55 733.5,-74"/>
<text text-anchor="middle" x="699.5" y="-62" font-family="Helvetica,sans-Serif" font-size="10.00">precomp.h</text>
</a>
</g>
</g>
<!-- Node2&#45;&gt;Node3 -->
<g id="edge2" class="edge">
<title>Node2&#45;&gt;Node3</title>
<path fill="none" stroke="#63b8ff" d="M435.6,-274.94C444.73,-266.2 459.06,-252.09 470.5,-239 497.81,-207.74 496.27,-192.36 527.5,-165 571.85,-126.14 633.66,-94.82 669.84,-78.29"/>
<polygon fill="#63b8ff" stroke="#63b8ff" points="671.64,-81.31 679.32,-74.02 668.77,-74.93 671.64,-81.31"/>
</g>
<!-- Node5 -->
<g id="node5" class="node">
<title>Node5</title>
<g id="a_node5"><a xlink:title=" ">
<polygon fill="#e0e0e0" stroke="#999999" points="594,-184 537,-184 537,-165 594,-165 594,-184"/>
<text text-anchor="middle" x="565.5" y="-172" font-family="Helvetica,sans-Serif" font-size="10.00">wx/wx.h</text>
</a>
</g>
</g>
<!-- Node2&#45;&gt;Node5 -->
<g id="edge4" class="edge">
<title>Node2&#45;&gt;Node5</title>
<path fill="none" stroke="#63b8ff" d="M444.49,-274.89C460.67,-266.73 484.73,-253.59 503.5,-239 521.84,-224.75 540.07,-205.27 551.97,-191.66"/>
<polygon fill="#63b8ff" stroke="#63b8ff" points="554.65,-193.91 558.5,-184.04 549.34,-189.35 554.65,-193.91"/>
</g>
<!-- Node6 -->
<g id="node6" class="node">
<title>Node6</title>
<g id="a_node6"><a xlink:title=" ">
<polygon fill="#e0e0e0" stroke="#999999" points="285.5,-239 211.5,-239 211.5,-220 285.5,-220 285.5,-239"/>
<text text-anchor="middle" x="248.5" y="-227" font-family="Helvetica,sans-Serif" font-size="10.00">wx/button.h</text>
</a>
</g>
</g>
<!-- Node2&#45;&gt;Node6 -->
<g id="edge5" class="edge">
<title>Node2&#45;&gt;Node6</title>
<path fill="none" stroke="#63b8ff" d="M397.9,-274.98C367.89,-266.05 320.52,-251.94 287.18,-242.02"/>
<polygon fill="#63b8ff" stroke="#63b8ff" points="287.91,-238.58 277.32,-239.08 285.91,-245.29 287.91,-238.58"/>
</g>
<!-- Node7 -->
<g id="node7" class="node">
<title>Node7</title>
<g id="a_node7"><a xlink:href="EventIDs_8h.html" target="_top" xlink:title="This file declares the class EventIDs that contains unique IDs for many events wxMaxima needs.">
<polygon fill="white" stroke="#666666" points="373,-239 304,-239 304,-220 373,-220 373,-239"/>
<text text-anchor="middle" x="338.5" y="-227" font-family="Helvetica,sans-Serif" font-size="10.00">EventIDs.h</text>
</a>
</g>
</g>
<!-- Node2&#45;&gt;Node7 -->
<g id="edge6" class="edge">
<title>Node2&#45;&gt;Node7</title>
<path fill="none" stroke="#63b8ff" d="M412.36,-274.98C398.71,-266.77 377.81,-254.18 361.72,-244.49"/>
<polygon fill="#63b8ff" stroke="#63b8ff" points="363.27,-241.33 352.9,-239.17 359.66,-247.33 363.27,-241.33"/>
</g>
<!-- Node10 -->
<g id="node10" class="node">
<title>Node10</title>
<g id="a_node10"><a xlink:href="ButtonWrapSizer_8h.html" target="_top" xlink:title="This file contains the definition of the class Buttonwrapsizer that allows to select arbitrary unicod...">
<polygon fill="white" stroke="#666666" points="193,-239 86,-239 86,-220 193,-220 193,-239"/>
<text text-anchor="middle" x="139.5" y="-227" font-family="Helvetica,sans-Serif" font-size="10.00">ButtonWrapSizer.h</text>
</a>
</g>
</g>
<!-- Node2&#45;&gt;Node10 -->
<g id="edge10" class="edge">
<title>Node2&#45;&gt;Node10</title>
<path fill="none" stroke="#63b8ff" d="M382.91,-275.45C332.87,-266.21 250.64,-251.02 195.79,-240.9"/>
<polygon fill="#63b8ff" stroke="#63b8ff" points="196.35,-237.44 185.88,-239.07 195.08,-244.32 196.35,-237.44"/>
</g>
<!-- Node13 -->
<g id="node13" class="node">
<title>Node13</title>
<g id="a_node13"><a xlink:title=" ">
<polygon fill="#e0e0e0" stroke="#999999" points="461.5,-239 391.5,-239 391.5,-220 461.5,-220 461.5,-239"/>
<text text-anchor="middle" x="426.5" y="-227" font-family="Helvetica,sans-Serif" font-size="10.00">wx/panel.h</text>
</a>
</g>
</g>
<!-- Node2&#45;&gt;Node13 -->
<g id="edge14" class="edge">
<title>Node2&#45;&gt;Node13</title>
<path fill="none" stroke="#63b8ff" d="M426.5,-274.75C426.5,-267.8 426.5,-257.85 426.5,-249.13"/>
<polygon fill="#63b8ff" stroke="#63b8ff" points="430,-249.09 426.5,-239.09 423,-249.09 430,-249.09"/>
</g>
<!-- Node4 -->
<g id="node4" class="node">
<title>Node4</title>
<g id="a_node4"><a xlink:title=" ">
<polygon fill="#e0e0e0" stroke="#999999" points="730.5,-19 668.5,-19 668.5,0 730.5,0 730.5,-19"/>
<text text-anchor="middle" x="699.5" y="-7" font-family="Helvetica,sans-Serif" font-size="10.00">Version.h</text>
</a>
</g>
</g>
<!-- Node3&#45;&gt;Node4 -->
<g id="edge3" class="edge">
<title>Node3&#45;&gt;Node4</title>
<path fill="none" stroke="#63b8ff" d="M699.5,-54.75C699.5,-47.8 699.5,-37.85 699.5,-29.13"/>
<polygon fill="#63b8ff" stroke="#63b8ff" points="703,-29.09 699.5,-19.09 696,-29.09 703,-29.09"/>
</g>
<!-- Node7&#45;&gt;Node5 -->
<g id="edge8" class="edge">
<title>Node7&#45;&gt;Node5</title>
<path fill="none" stroke="#63b8ff" d="M373.47,-220.33C415.04,-210.63 484.16,-194.49 527.15,-184.45"/>
<polygon fill="#63b8ff" stroke="#63b8ff" points="528.02,-187.85 536.96,-182.16 526.43,-181.03 528.02,-187.85"/>
</g>
<!-- Node8 -->
<g id="node8" class="node">
<title>Node8</title>
<g id="a_node8"><a xlink:title=" ">
<polygon fill="#e0e0e0" stroke="#999999" points="435.5,-184 393.5,-184 393.5,-165 435.5,-165 435.5,-184"/>
<text text-anchor="middle" x="414.5" y="-172" font-family="Helvetica,sans-Serif" font-size="10.00">array</text>
</a>
</g>
</g>
<!-- Node7&#45;&gt;Node8 -->
<g id="edge7" class="edge">
<title>Node7&#45;&gt;Node8</title>
<path fill="none" stroke="#63b8ff" d="M350.71,-219.98C362.28,-211.92 379.88,-199.65 393.66,-190.03"/>
<polygon fill="#63b8ff" stroke="#63b8ff" points="395.87,-192.76 402.07,-184.17 391.86,-187.02 395.87,-192.76"/>
</g>
<!-- Node9 -->
<g id="node9" class="node">
<title>Node9</title>
<g id="a_node9"><a xlink:title=" ">
<polygon fill="#e0e0e0" stroke="#999999" points="376,-184 287,-184 287,-165 376,-165 376,-184"/>
<text text-anchor="middle" x="331.5" y="-172" font-family="Helvetica,sans-Serif" font-size="10.00">wx/windowid.h</text>
</a>
</g>
</g>
<!-- Node7&#45;&gt;Node9 -->
<g id="edge9" class="edge">
<title>Node7&#45;&gt;Node9</title>
<path fill="none" stroke="#63b8ff" d="M337.34,-219.75C336.43,-212.8 335.11,-202.85 333.96,-194.13"/>
<polygon fill="#63b8ff" stroke="#63b8ff" points="337.41,-193.54 332.63,-184.09 330.47,-194.46 337.41,-193.54"/>
</g>
<!-- Node10&#45;&gt;Node3 -->
<g id="edge12" class="edge">
<title>Node10&#45;&gt;Node3</title>
<path fill="none" stroke="#63b8ff" d="M156.13,-219.79C181.69,-206.64 232.43,-181.51 277.5,-165 411.1,-116.07 577.46,-85.15 655.38,-72.32"/>
<polygon fill="#63b8ff" stroke="#63b8ff" points="656.02,-75.76 665.33,-70.7 654.9,-68.85 656.02,-75.76"/>
</g>
<!-- Node11 -->
<g id="node11" class="node">
<title>Node11</title>
<g id="a_node11"><a xlink:title=" ">
<polygon fill="#e0e0e0" stroke="#999999" points="188,-184 107,-184 107,-165 188,-165 188,-184"/>
<text text-anchor="middle" x="147.5" y="-172" font-family="Helvetica,sans-Serif" font-size="10.00">wx/stattext.h</text>
</a>
</g>
</g>
<!-- Node10&#45;&gt;Node11 -->
<g id="edge11" class="edge">
<title>Node10&#45;&gt;Node11</title>
<path fill="none" stroke="#63b8ff" d="M140.82,-219.75C141.87,-212.8 143.37,-202.85 144.69,-194.13"/>
<polygon fill="#63b8ff" stroke="#63b8ff" points="148.17,-194.5 146.2,-184.09 141.25,-193.45 148.17,-194.5"/>
</g>
<!-- Node12 -->
<g id="node12" class="node">
<title>Node12</title>
<g id="a_node12"><a xlink:title=" ">
<polygon fill="#e0e0e0" stroke="#999999" points="89,-184 0,-184 0,-165 89,-165 89,-184"/>
<text text-anchor="middle" x="44.5" y="-172" font-family="Helvetica,sans-Serif" font-size="10.00">wx/wrapsizer.h</text>
</a>
</g>
</g>
<!-- Node10&#45;&gt;Node12 -->
<g id="edge13" class="edge">
<title>Node10&#45;&gt;Node12</title>
<path fill="none" stroke="#63b8ff" d="M124.24,-219.98C109.37,-211.69 86.52,-198.94 69.08,-189.22"/>
<polygon fill="#63b8ff" stroke="#63b8ff" points="70.48,-185.99 60.04,-184.17 67.07,-192.1 70.48,-185.99"/>
</g>
<!-- Node15&#45;&gt;Node3 -->
<g id="edge17" class="edge">
<title>Node15&#45;&gt;Node3</title>
<path fill="none" stroke="#63b8ff" d="M612.23,-329.83C621.57,-311.87 641.5,-269.03 641.5,-230.5 641.5,-230.5 641.5,-230.5 641.5,-173.5 641.5,-137.37 667,-101.67 684.19,-81.71"/>
<polygon fill="#63b8ff" stroke="#63b8ff" points="686.88,-83.95 690.94,-74.17 681.66,-79.28 686.88,-83.95"/>
</g>
<!-- Node15&#45;&gt;Node5 -->
<g id="edge18" class="edge">
<title>Node15&#45;&gt;Node5</title>
<path fill="none" stroke="#63b8ff" d="M574.48,-329.87C556.32,-323.26 535.33,-312.1 524.5,-294 514.05,-276.54 540.73,-221.38 555.88,-192.9"/>
<polygon fill="#63b8ff" stroke="#63b8ff" points="558.99,-194.5 560.68,-184.04 552.84,-191.17 558.99,-194.5"/>
</g>
<!-- Node16 -->
<g id="node16" class="node">
<title>Node16</title>
<g id="a_node16"><a xlink:title=" ">
<polygon fill="#e0e0e0" stroke="#999999" points="613.5,-294 533.5,-294 533.5,-275 613.5,-275 613.5,-294"/>
<text text-anchor="middle" x="573.5" y="-282" font-family="Helvetica,sans-Serif" font-size="10.00">wx/statline.h</text>
</a>
</g>
</g>
<!-- Node15&#45;&gt;Node16 -->
<g id="edge19" class="edge">
<title>Node15&#45;&gt;Node16</title>
<path fill="none" stroke="#63b8ff" d="M601.89,-329.75C597.18,-322.42 590.33,-311.73 584.53,-302.7"/>
<polygon fill="#63b8ff" stroke="#63b8ff" points="587.36,-300.62 579.01,-294.09 581.46,-304.4 587.36,-300.62"/>
</g>
<!-- Node17 -->
<g id="node17" class="node">
<title>Node17</title>
<g id="a_node17"><a xlink:title=" ">
<polygon fill="#e0e0e0" stroke="#999999" points="2507,-19 2442,-19 2442,0 2507,0 2507,-19"/>
<text text-anchor="middle" x="2474.5" y="-7" font-family="Helvetica,sans-Serif" font-size="10.00">functional</text>
</a>
</g>
</g>
<!-- Node15&#45;&gt;Node17 -->
<g id="edge20" class="edge">
<title>Node15&#45;&gt;Node17</title>
<path fill="none" stroke="#63b8ff" d="M662.62,-330.88C665.62,-330.56 668.6,-330.26 671.5,-330 787.99,-319.53 2774.5,-347.46 2774.5,-230.5 2774.5,-230.5 2774.5,-230.5 2774.5,-118.5 2774.5,-89.04 2777.68,-74.39 2755.5,-55 2720.75,-24.61 2586.96,-14.88 2517.27,-11.83"/>
<polygon fill="#63b8ff" stroke="#63b8ff" points="2517.2,-8.33 2507.06,-11.42 2516.91,-15.32 2517.2,-8.33"/>
</g>
<!-- Node18 -->
<g id="node18" class="node">
<title>Node18</title>
<g id="a_node18"><a xlink:href="BTextCtrl_8h_source.html" target="_top" xlink:title=" ">
<polygon fill="white" stroke="#666666" points="739.5,-294 669.5,-294 669.5,-275 739.5,-275 739.5,-294"/>
<text text-anchor="middle" x="704.5" y="-282" font-family="Helvetica,sans-Serif" font-size="10.00">BTextCtrl.h</text>
</a>
</g>
</g>
<!-- Node15&#45;&gt;Node18 -->
<g id="edge21" class="edge">
<title>Node15&#45;&gt;Node18</title>
<path fill="none" stroke="#63b8ff" d="M623.08,-329.98C638.27,-321.69 661.6,-308.94 679.4,-299.22"/>
<polygon fill="#63b8ff" stroke="#63b8ff" points="681.53,-302.04 688.63,-294.17 678.18,-295.89 681.53,-302.04"/>
</g>
<!-- Node18&#45;&gt;Node3 -->
<g id="edge22" class="edge">
<title>Node18&#45;&gt;Node3</title>
<path fill="none" stroke="#63b8ff" d="M703.7,-274.99C702.13,-257.81 698.69,-217.75 697.5,-184 696.26,-148.82 697.57,-107.73 698.58,-84.35"/>
<polygon fill="#63b8ff" stroke="#63b8ff" points="702.08,-84.28 699.05,-74.13 695.09,-83.96 702.08,-84.28"/>
</g>
<!-- Node18&#45;&gt;Node5 -->
<g id="edge23" class="edge">
<title>Node18&#45;&gt;Node5</title>
<path fill="none" stroke="#63b8ff" d="M693.13,-274.66C669.39,-256.22 614.34,-213.45 584.9,-190.57"/>
<polygon fill="#63b8ff" stroke="#63b8ff" points="586.69,-187.53 576.64,-184.16 582.39,-193.06 586.69,-187.53"/>
</g>
<!-- Node19 -->
<g id="node19" class="node">
<title>Node19</title>
<g id="a_node19"><a xlink:href="Configuration_8h_source.html" target="_top" xlink:title=" ">
<polygon fill="white" stroke="#666666" points="1429,-239 1338,-239 1338,-220 1429,-220 1429,-239"/>
<text text-anchor="middle" x="1383.5" y="-227" font-family="Helvetica,sans-Serif" font-size="10.00">Configuration.h</text>
</a>
</g>
</g>
<!-- Node18&#45;&gt;Node19 -->
<g id="edge24" class="edge">
<title>Node18&#45;&gt;Node19</title>
<path fill="none" stroke="#63b8ff" d="M739.58,-280.76C850.21,-272.13 1192.45,-245.41 1327.69,-234.86"/>
<polygon fill="#63b8ff" stroke="#63b8ff" points="1328.14,-238.33 1337.83,-234.06 1327.59,-231.35 1328.14,-238.33"/>
</g>
<!-- Node19&#45;&gt;Node3 -->
<g id="edge25" class="edge">
<title>Node19&#45;&gt;Node3</title>
<path fill="none" stroke="#63b8ff" d="M1375.22,-219.86C1361.25,-205.85 1331.47,-178.41 1300.5,-165 1105.52,-80.59 846.46,-67.39 743.96,-65.61"/>
<polygon fill="#63b8ff" stroke="#63b8ff" points="743.72,-62.11 733.67,-65.46 743.62,-69.11 743.72,-62.11"/>
</g>
<!-- Node19&#45;&gt;Node5 -->
<g id="edge26" class="edge">
<title>Node19&#45;&gt;Node5</title>
<path fill="none" stroke="#63b8ff" d="M1337.77,-225.54C1191.99,-216.09 739.92,-186.8 604.33,-178.02"/>
<polygon fill="#63b8ff" stroke="#63b8ff" points="604.23,-174.5 594.02,-177.35 603.77,-181.49 604.23,-174.5"/>
</g>
<!-- Node20 -->
<g id="node20" class="node">
<title>Node20</title>
<g id="a_node20"><a xlink:title=" ">
<polygon fill="#e0e0e0" stroke="#999999" points="1687.5,-129 1615.5,-129 1615.5,-110 1687.5,-110 1687.5,-129"/>
<text text-anchor="middle" x="1651.5" y="-117" font-family="Helvetica,sans-Serif" font-size="10.00">wx/config.h</text>
</a>
</g>
</g>
<!-- Node19&#45;&gt;Node20 -->
<g id="edge27" class="edge">
<title>Node19&#45;&gt;Node20</title>
<path fill="none" stroke="#63b8ff" d="M1429.13,-227.82C1498.45,-225.71 1625.26,-217.28 1653.5,-184 1663.96,-171.67 1661.79,-152.63 1658.01,-138.62"/>
<polygon fill="#63b8ff" stroke="#63b8ff" points="1661.35,-137.55 1655,-129.07 1654.67,-139.66 1661.35,-137.55"/>
</g>
<!-- Node21 -->
<g id="node21" class="node">
<title>Node21</title>
<g id="a_node21"><a xlink:title=" ">
<polygon fill="#e0e0e0" stroke="#999999" points="979,-184 902,-184 902,-165 979,-165 979,-184"/>
<text text-anchor="middle" x="940.5" y="-172" font-family="Helvetica,sans-Serif" font-size="10.00">wx/display.h</text>
</a>
</g>
</g>
<!-- Node19&#45;&gt;Node21 -->
<g id="edge28" class="edge">
<title>Node19&#45;&gt;Node21</title>
<path fill="none" stroke="#63b8ff" d="M1337.76,-224.29C1265.86,-217.47 1121.77,-202.97 989.17,-184.01"/>
<polygon fill="#63b8ff" stroke="#63b8ff" points="989.64,-180.54 979.24,-182.58 988.64,-187.47 989.64,-180.54"/>
</g>
<!-- Node22 -->
<g id="node22" class="node">
<title>Node22</title>
<g id="a_node22"><a xlink:title=" ">
<polygon fill="#e0e0e0" stroke="#999999" points="1087.5,-184 997.5,-184 997.5,-165 1087.5,-165 1087.5,-184"/>
<text text-anchor="middle" x="1042.5" y="-172" font-family="Helvetica,sans-Serif" font-size="10.00">wx/fontenum.h</text>
</a>
</g>
</g>
<!-- Node19&#45;&gt;Node22 -->
<g id="edge29" class="edge">
<title>Node19&#45;&gt;Node22</title>
<path fill="none" stroke="#63b8ff" d="M1337.76,-221.44C1283.12,-213 1188.63,-198.38 1097.52,-184.16"/>
<polygon fill="#63b8ff" stroke="#63b8ff" points="1098,-180.69 1087.58,-182.6 1096.92,-187.61 1098,-180.69"/>
</g>
<!-- Node23 -->
<g id="node23" class="node">
<title>Node23</title>
<g id="a_node23"><a xlink:title=" ">
<polygon fill="#e0e0e0" stroke="#999999" points="1597.5,-129 1509.5,-129 1509.5,-110 1597.5,-110 1597.5,-129"/>
<text text-anchor="middle" x="1553.5" y="-117" font-family="Helvetica,sans-Serif" font-size="10.00">wx/hashmap.h</text>
</a>
</g>
</g>
<!-- Node19&#45;&gt;Node23 -->
<g id="edge30" class="edge">
<title>Node19&#45;&gt;Node23</title>
<path fill="none" stroke="#63b8ff" d="M1378.97,-219.64C1372.86,-206.3 1364.09,-180.92 1376.5,-165 1391.57,-145.68 1453.02,-133.46 1499.33,-126.82"/>
<polygon fill="#63b8ff" stroke="#63b8ff" points="1499.82,-130.28 1509.25,-125.44 1498.86,-123.35 1499.82,-130.28"/>
</g>
<!-- Node24 -->
<g id="node24" class="node">
<title>Node24</title>
<g id="a_node24"><a xlink:href="LoggingMessageDialog_8h.html" target="_top" xlink:title="This file declares a message dialog that sends its contents to the log message sink.">
<polygon fill="white" stroke="#666666" points="884,-184 707,-184 707,-165 884,-165 884,-184"/>
<text text-anchor="middle" x="795.5" y="-172" font-family="Helvetica,sans-Serif" font-size="10.00">dialogs/LoggingMessageDialog.h</text>
</a>
</g>
</g>
<!-- Node19&#45;&gt;Node24 -->
<g id="edge31" class="edge">
<title>Node19&#45;&gt;Node24</title>
<path fill="none" stroke="#63b8ff" d="M1337.85,-224.39C1243.08,-215.84 1023.1,-196.01 894.3,-184.41"/>
<polygon fill="#63b8ff" stroke="#63b8ff" points="894.31,-180.89 884.04,-183.48 893.69,-187.86 894.31,-180.89"/>
</g>
<!-- Node27 -->
<g id="node27" class="node">
<title>Node27</title>
<g id="a_node27"><a xlink:href="TextStyle_8h.html" target="_top" xlink:title="This file declares everything needed for the text style system used to style all the elements on the ...">
<polygon fill="white" stroke="#666666" points="2046.5,-184 1950.5,-184 1950.5,-165 2046.5,-165 2046.5,-184"/>
<text text-anchor="middle" x="1998.5" y="-172" font-family="Helvetica,sans-Serif" font-size="10.00">cells/TextStyle.h</text>
</a>
</g>
</g>
<!-- Node19&#45;&gt;Node27 -->
<g id="edge35" class="edge">
<title>Node19&#45;&gt;Node27</title>
<path fill="none" stroke="#63b8ff" d="M1429.22,-224.56C1539.18,-215.08 1818.29,-191.03 1940.12,-180.53"/>
<polygon fill="#63b8ff" stroke="#63b8ff" points="1940.7,-183.99 1950.36,-179.65 1940.1,-177.02 1940.7,-183.99"/>
</g>
<!-- Node34 -->
<g id="node34" class="node">
<title>Node34</title>
<g id="a_node34"><a xlink:title=" ">
<polygon fill="#e0e0e0" stroke="#999999" points="2746.5,-74 2696.5,-74 2696.5,-55 2746.5,-55 2746.5,-74"/>
<text text-anchor="middle" x="2721.5" y="-62" font-family="Helvetica,sans-Serif" font-size="10.00">cstdint</text>
</a>
</g>
</g>
<!-- Node19&#45;&gt;Node34 -->
<g id="edge65" class="edge">
<title>Node19&#45;&gt;Node34</title>
<path fill="none" stroke="#63b8ff" d="M1429.1,-227.53C1595.41,-223.8 2169.08,-209.36 2350.5,-184 2455.88,-169.27 2482.89,-163.63 2583.5,-129 2624.14,-115.01 2668.97,-93.09 2696.18,-79.02"/>
<polygon fill="#63b8ff" stroke="#63b8ff" points="2698.13,-81.95 2705.37,-74.21 2694.88,-75.74 2698.13,-81.95"/>
</g>
<!-- Node40 -->
<g id="node38" class="node">
<title>Node40</title>
<g id="a_node38"><a xlink:title=" ">
<polygon fill="#e0e0e0" stroke="#999999" points="2678.5,-74 2614.5,-74 2614.5,-55 2678.5,-55 2678.5,-74"/>
<text text-anchor="middle" x="2646.5" y="-62" font-family="Helvetica,sans-Serif" font-size="10.00">algorithm</text>
</a>
</g>
</g>
<!-- Node19&#45;&gt;Node40 -->
<g id="edge72" class="edge">
<title>Node19&#45;&gt;Node40</title>
<path fill="none" stroke="#63b8ff" d="M1429.46,-228.56C1560.27,-228.2 1945.61,-223.61 2262.5,-184 2385.75,-168.6 2420.29,-172.85 2536.5,-129 2569.9,-116.4 2605.04,-94.34 2626.37,-79.83"/>
<polygon fill="#63b8ff" stroke="#63b8ff" points="2628.39,-82.69 2634.62,-74.12 2624.4,-76.93 2628.39,-82.69"/>
</g>
<!-- Node43 -->
<g id="node41" class="node">
<title>Node43</title>
<g id="a_node41"><a xlink:title=" ">
<polygon fill="#e0e0e0" stroke="#999999" points="1966.5,-74 1908.5,-74 1908.5,-55 1966.5,-55 1966.5,-74"/>
<text text-anchor="middle" x="1937.5" y="-62" font-family="Helvetica,sans-Serif" font-size="10.00">memory</text>
</a>
</g>
</g>
<!-- Node19&#45;&gt;Node43 -->
<g id="edge66" class="edge">
<title>Node19&#45;&gt;Node43</title>
<path fill="none" stroke="#63b8ff" d="M1429.33,-226.08C1486.92,-221.99 1588.18,-211.28 1670.5,-184 1737.31,-161.86 1746,-138.16 1810.5,-110 1839.8,-97.21 1874.06,-85.38 1899.61,-77.14"/>
<polygon fill="#63b8ff" stroke="#63b8ff" points="1900.83,-80.42 1909.29,-74.05 1898.7,-73.75 1900.83,-80.42"/>
</g>
<!-- Node44 -->
<g id="node42" class="node">
<title>Node44</title>
<g id="a_node42"><a xlink:title=" ">
<polygon fill="#e0e0e0" stroke="#999999" points="2169.5,-74 2137.5,-74 2137.5,-55 2169.5,-55 2169.5,-74"/>
<text text-anchor="middle" x="2153.5" y="-62" font-family="Helvetica,sans-Serif" font-size="10.00">list</text>
</a>
</g>
</g>
<!-- Node19&#45;&gt;Node44 -->
<g id="edge70" class="edge">
<title>Node19&#45;&gt;Node44</title>
<path fill="none" stroke="#63b8ff" d="M1429.17,-227.66C1618.73,-223.72 2336.59,-203.9 2400.5,-129 2405.98,-122.58 2405.92,-116.48 2400.5,-110 2393.4,-101.5 2241.81,-78.44 2179.7,-69.3"/>
<polygon fill="#63b8ff" stroke="#63b8ff" points="2179.93,-65.8 2169.52,-67.81 2178.91,-72.72 2179.93,-65.8"/>
</g>
<!-- Node46 -->
<g id="node44" class="node">
<title>Node46</title>
<g id="a_node44"><a xlink:title=" ">
<polygon fill="#e0e0e0" stroke="#999999" points="1838,-74 1745,-74 1745,-55 1838,-55 1838,-74"/>
<text text-anchor="middle" x="1791.5" y="-62" font-family="Helvetica,sans-Serif" font-size="10.00">unordered_map</text>
</a>
</g>
</g>
<!-- Node19&#45;&gt;Node46 -->
<g id="edge68" class="edge">
<title>Node19&#45;&gt;Node46</title>
<path fill="none" stroke="#63b8ff" d="M1429.21,-226.63C1491.13,-223.02 1596.67,-212.71 1620.5,-184 1660.51,-135.78 1459.68,-157.54 1500.5,-110 1530.03,-75.61 1658.38,-67.51 1734.41,-65.78"/>
<polygon fill="#63b8ff" stroke="#63b8ff" points="1734.84,-69.27 1744.77,-65.58 1734.71,-62.28 1734.84,-69.27"/>
</g>
<!-- Node47 -->
<g id="node45" class="node">
<title>Node47</title>
<g id="a_node45"><a xlink:title=" ">
<polygon fill="#e0e0e0" stroke="#999999" points="1153.5,-184 1105.5,-184 1105.5,-165 1153.5,-165 1153.5,-184"/>
<text text-anchor="middle" x="1129.5" y="-172" font-family="Helvetica,sans-Serif" font-size="10.00">mutex</text>
</a>
</g>
</g>
<!-- Node19&#45;&gt;Node47 -->
<g id="edge67" class="edge">
<title>Node19&#45;&gt;Node47</title>
<path fill="none" stroke="#63b8ff" d="M1337.64,-220.01C1295.02,-211.95 1229.56,-199.15 1163.75,-184.19"/>
<polygon fill="#63b8ff" stroke="#63b8ff" points="1164.14,-180.69 1153.61,-181.87 1162.58,-187.51 1164.14,-180.69"/>
</g>
<!-- Node48 -->
<g id="node46" class="node">
<title>Node48</title>
<g id="a_node46"><a xlink:title=" ">
<polygon fill="#e0e0e0" stroke="#999999" points="1225.5,-184 1171.5,-184 1171.5,-165 1225.5,-165 1225.5,-184"/>
<text text-anchor="middle" x="1198.5" y="-172" font-family="Helvetica,sans-Serif" font-size="10.00">random</text>
</a>
</g>
</g>
<!-- Node19&#45;&gt;Node48 -->
<g id="edge69" class="edge">
<title>Node19&#45;&gt;Node48</title>
<path fill="none" stroke="#63b8ff" d="M1353.78,-219.98C1321.61,-210.77 1270.27,-196.06 1235.51,-186.1"/>
<polygon fill="#63b8ff" stroke="#63b8ff" points="1236.32,-182.69 1225.74,-183.3 1234.39,-189.42 1236.32,-182.69"/>
</g>
<!-- Node49 -->
<g id="node47" class="node">
<title>Node49</title>
<g id="a_node47"><a xlink:title=" ">
<polygon fill="#e0e0e0" stroke="#999999" points="1291,-184 1244,-184 1244,-165 1291,-165 1291,-184"/>
<text text-anchor="middle" x="1267.5" y="-172" font-family="Helvetica,sans-Serif" font-size="10.00">vector</text>
</a>
</g>
</g>
<!-- Node19&#45;&gt;Node49 -->
<g id="edge71" class="edge">
<title>Node19&#45;&gt;Node49</title>
<path fill="none" stroke="#63b8ff" d="M1364.86,-219.98C1346.2,-211.46 1317.25,-198.23 1295.76,-188.41"/>
<polygon fill="#63b8ff" stroke="#63b8ff" points="1297.03,-185.14 1286.48,-184.17 1294.12,-191.51 1297.03,-185.14"/>
</g>
<!-- Node50 -->
<g id="node48" class="node">
<title>Node50</title>
<g id="a_node48"><a xlink:title=" ">
<polygon fill="#e0e0e0" stroke="#999999" points="1435.5,-184 1385.5,-184 1385.5,-165 1435.5,-165 1435.5,-184"/>
<text text-anchor="middle" x="1410.5" y="-172" font-family="Helvetica,sans-Serif" font-size="10.00">atomic</text>
</a>
</g>
</g>
<!-- Node19&#45;&gt;Node50 -->
<g id="edge73" class="edge">
<title>Node19&#45;&gt;Node50</title>
<path fill="none" stroke="#63b8ff" d="M1387.96,-219.75C1391.62,-212.57 1396.91,-202.18 1401.45,-193.27"/>
<polygon fill="#63b8ff" stroke="#63b8ff" points="1404.7,-194.59 1406.12,-184.09 1398.47,-191.41 1404.7,-194.59"/>
</g>
<!-- Node51 -->
<g id="node49" class="node">
<title>Node51</title>
<g id="a_node49"><a xlink:title=" ">
<polygon fill="#e0e0e0" stroke="#999999" points="1503.5,-184 1453.5,-184 1453.5,-165 1503.5,-165 1503.5,-184"/>
<text text-anchor="middle" x="1478.5" y="-172" font-family="Helvetica,sans-Serif" font-size="10.00">chrono</text>
</a>
</g>
</g>
<!-- Node19&#45;&gt;Node51 -->
<g id="edge74" class="edge">
<title>Node19&#45;&gt;Node51</title>
<path fill="none" stroke="#63b8ff" d="M1398.76,-219.98C1413.63,-211.69 1436.48,-198.94 1453.92,-189.22"/>
<polygon fill="#63b8ff" stroke="#63b8ff" points="1455.93,-192.1 1462.96,-184.17 1452.52,-185.99 1455.93,-192.1"/>
</g>
<!-- Node52 -->
<g id="node50" class="node">
<title>Node52</title>
<g id="a_node50"><a xlink:title=" ">
<polygon fill="#e0e0e0" stroke="#999999" points="1611,-184 1522,-184 1522,-165 1611,-165 1611,-184"/>
<text text-anchor="middle" x="1566.5" y="-172" font-family="Helvetica,sans-Serif" font-size="10.00">wx/wupdlock.h</text>
</a>
</g>
</g>
<!-- Node19&#45;&gt;Node52 -->
<g id="edge75" class="edge">
<title>Node19&#45;&gt;Node52</title>
<path fill="none" stroke="#63b8ff" d="M1412.9,-219.98C1443.89,-211.01 1492.88,-196.82 1527.17,-186.89"/>
<polygon fill="#63b8ff" stroke="#63b8ff" points="1528.24,-190.23 1536.87,-184.08 1526.29,-183.5 1528.24,-190.23"/>
</g>
<!-- Node24&#45;&gt;Node3 -->
<g id="edge32" class="edge">
<title>Node24&#45;&gt;Node3</title>
<path fill="none" stroke="#63b8ff" d="M784.27,-164.98C773.46,-156.5 756.95,-142.77 744.5,-129 731.38,-114.48 718.7,-96.06 710.16,-82.81"/>
<polygon fill="#63b8ff" stroke="#63b8ff" points="713.03,-80.79 704.73,-74.2 707.11,-84.52 713.03,-80.79"/>
</g>
<!-- Node25 -->
<g id="node25" class="node">
<title>Node25</title>
<g id="a_node25"><a xlink:title=" ">
<polygon fill="#e0e0e0" stroke="#999999" points="833,-129 754,-129 754,-110 833,-110 833,-129"/>
<text text-anchor="middle" x="793.5" y="-117" font-family="Helvetica,sans-Serif" font-size="10.00">wx/msgdlg.h</text>
</a>
</g>
</g>
<!-- Node24&#45;&gt;Node25 -->
<g id="edge33" class="edge">
<title>Node24&#45;&gt;Node25</title>
<path fill="none" stroke="#63b8ff" d="M795.17,-164.75C794.91,-157.8 794.53,-147.85 794.2,-139.13"/>
<polygon fill="#63b8ff" stroke="#63b8ff" points="797.7,-138.95 793.82,-129.09 790.7,-139.21 797.7,-138.95"/>
</g>
<!-- Node26 -->
<g id="node26" class="node">
<title>Node26</title>
<g id="a_node26"><a xlink:title=" ">
<polygon fill="#e0e0e0" stroke="#999999" points="908.5,-129 850.5,-129 850.5,-110 908.5,-110 908.5,-129"/>
<text text-anchor="middle" x="879.5" y="-117" font-family="Helvetica,sans-Serif" font-size="10.00">wx/log.h</text>
</a>
</g>
</g>
<!-- Node24&#45;&gt;Node26 -->
<g id="edge34" class="edge">
<title>Node24&#45;&gt;Node26</title>
<path fill="none" stroke="#63b8ff" d="M809,-164.98C821.9,-156.84 841.6,-144.41 856.9,-134.76"/>
<polygon fill="#63b8ff" stroke="#63b8ff" points="859.17,-137.47 865.76,-129.17 855.43,-131.55 859.17,-137.47"/>
</g>
<!-- Node27&#45;&gt;Node3 -->
<g id="edge36" class="edge">
<title>Node27&#45;&gt;Node3</title>
<path fill="none" stroke="#63b8ff" d="M1959.64,-164.96C1884.07,-148.41 1722.41,-113.28 1696.5,-110 1330.87,-63.71 884.53,-63.62 744.02,-64.92"/>
<polygon fill="#63b8ff" stroke="#63b8ff" points="743.64,-61.42 733.67,-65.02 743.71,-68.42 743.64,-61.42"/>
</g>
<!-- Node27&#45;&gt;Node17 -->
<g id="edge46" class="edge">
<title>Node27&#45;&gt;Node17</title>
<path fill="none" stroke="#63b8ff" d="M2046.84,-172.27C2086.08,-168.95 2140.89,-158.76 2178.5,-129 2207.49,-106.06 2186.7,-76.89 2216.5,-55 2249.98,-30.4 2367.23,-18.24 2431.52,-13.3"/>
<polygon fill="#63b8ff" stroke="#63b8ff" points="2432.02,-16.77 2441.74,-12.54 2431.51,-9.79 2432.02,-16.77"/>
</g>
<!-- Node27&#45;&gt;Node20 -->
<g id="edge42" class="edge">
<title>Node27&#45;&gt;Node20</title>
<path fill="none" stroke="#63b8ff" d="M1950.25,-166.13C1883.43,-155.93 1763.55,-137.61 1697.79,-127.57"/>
<polygon fill="#63b8ff" stroke="#63b8ff" points="1698.13,-124.08 1687.71,-126.03 1697.07,-131 1698.13,-124.08"/>
</g>
<!-- Node27&#45;&gt;Node23 -->
<g id="edge39" class="edge">
<title>Node27&#45;&gt;Node23</title>
<path fill="none" stroke="#63b8ff" d="M1950.44,-168.76C1878.31,-161.5 1737.56,-146.7 1607.84,-129.13"/>
<polygon fill="#63b8ff" stroke="#63b8ff" points="1608.11,-125.63 1597.72,-127.75 1607.16,-132.57 1608.11,-125.63"/>
</g>
<!-- Node28 -->
<g id="node28" class="node">
<title>Node28</title>
<g id="a_node28"><a xlink:title=" ">
<polygon fill="#e0e0e0" stroke="#999999" points="2335.5,-129 2263.5,-129 2263.5,-110 2335.5,-110 2335.5,-129"/>
<text text-anchor="middle" x="2299.5" y="-117" font-family="Helvetica,sans-Serif" font-size="10.00">wx/colour.h</text>
</a>
</g>
</g>
<!-- Node27&#45;&gt;Node28 -->
<g id="edge37" class="edge">
<title>Node27&#45;&gt;Node28</title>
<path fill="none" stroke="#63b8ff" d="M2046.53,-165.04C2103.4,-155.03 2197.46,-138.47 2253.46,-128.61"/>
<polygon fill="#63b8ff" stroke="#63b8ff" points="2254.21,-132.03 2263.45,-126.85 2253,-125.13 2254.21,-132.03"/>
</g>
<!-- Node29 -->
<g id="node29" class="node">
<title>Node29</title>
<g id="a_node29"><a xlink:title=" ">
<polygon fill="#e0e0e0" stroke="#999999" points="2391.5,-129 2353.5,-129 2353.5,-110 2391.5,-110 2391.5,-129"/>
<text text-anchor="middle" x="2372.5" y="-117" font-family="Helvetica,sans-Serif" font-size="10.00">map</text>
</a>
</g>
</g>
<!-- Node27&#45;&gt;Node29 -->
<g id="edge38" class="edge">
<title>Node27&#45;&gt;Node29</title>
<path fill="none" stroke="#63b8ff" d="M2046.78,-169.85C2112.08,-164.35 2232.24,-152.25 2343.3,-128.92"/>
<polygon fill="#63b8ff" stroke="#63b8ff" points="2344.28,-132.29 2353.33,-126.78 2342.82,-125.45 2344.28,-132.29"/>
</g>
<!-- Node30 -->
<g id="node30" class="node">
<title>Node30</title>
<g id="a_node30"><a xlink:title=" ">
<polygon fill="#e0e0e0" stroke="#999999" points="1863.5,-129 1819.5,-129 1819.5,-110 1863.5,-110 1863.5,-129"/>
<text text-anchor="middle" x="1841.5" y="-117" font-family="Helvetica,sans-Serif" font-size="10.00">string</text>
</a>
</g>
</g>
<!-- Node27&#45;&gt;Node30 -->
<g id="edge40" class="edge">
<title>Node27&#45;&gt;Node30</title>
<path fill="none" stroke="#63b8ff" d="M1973.28,-164.98C1946.14,-155.82 1902.91,-141.23 1873.43,-131.28"/>
<polygon fill="#63b8ff" stroke="#63b8ff" points="1874.21,-127.85 1863.62,-127.97 1871.97,-134.48 1874.21,-127.85"/>
</g>
<!-- Node31 -->
<g id="node31" class="node">
<title>Node31</title>
<g id="a_node31"><a xlink:title=" ">
<polygon fill="#e0e0e0" stroke="#999999" points="1939,-129 1882,-129 1882,-110 1939,-110 1939,-129"/>
<text text-anchor="middle" x="1910.5" y="-117" font-family="Helvetica,sans-Serif" font-size="10.00">ostream</text>
</a>
</g>
</g>
<!-- Node27&#45;&gt;Node31 -->
<g id="edge41" class="edge">
<title>Node27&#45;&gt;Node31</title>
<path fill="none" stroke="#63b8ff" d="M1984.36,-164.98C1970.71,-156.77 1949.81,-144.18 1933.72,-134.49"/>
<polygon fill="#63b8ff" stroke="#63b8ff" points="1935.27,-131.33 1924.9,-129.17 1931.66,-137.33 1935.27,-131.33"/>
</g>
<!-- Node32 -->
<g id="node32" class="node">
<title>Node32</title>
<g id="a_node32"><a xlink:title=" ">
<polygon fill="#e0e0e0" stroke="#999999" points="2287.5,-74 2225.5,-74 2225.5,-55 2287.5,-55 2287.5,-74"/>
<text text-anchor="middle" x="2256.5" y="-62" font-family="Helvetica,sans-Serif" font-size="10.00">wx/font.h</text>
</a>
</g>
</g>
<!-- Node27&#45;&gt;Node32 -->
<g id="edge43" class="edge">
<title>Node27&#45;&gt;Node32</title>
<path fill="none" stroke="#63b8ff" d="M2046.73,-173.29C2092.58,-170.94 2161.73,-161.61 2211.5,-129 2228.58,-117.81 2241.18,-97.7 2248.63,-83.1"/>
<polygon fill="#63b8ff" stroke="#63b8ff" points="2251.8,-84.59 2252.96,-74.06 2245.49,-81.57 2251.8,-84.59"/>
</g>
<!-- Node33 -->
<g id="node33" class="node">
<title>Node33</title>
<g id="a_node33"><a xlink:title=" ">
<polygon fill="#e0e0e0" stroke="#999999" points="2039.5,-129 1957.5,-129 1957.5,-110 2039.5,-110 2039.5,-129"/>
<text text-anchor="middle" x="1998.5" y="-117" font-family="Helvetica,sans-Serif" font-size="10.00">wx/settings.h</text>
</a>
</g>
</g>
<!-- Node27&#45;&gt;Node33 -->
<g id="edge44" class="edge">
<title>Node27&#45;&gt;Node33</title>
<path fill="none" stroke="#63b8ff" d="M1998.5,-164.75C1998.5,-157.8 1998.5,-147.85 1998.5,-139.13"/>
<polygon fill="#63b8ff" stroke="#63b8ff" points="2002,-139.09 1998.5,-129.09 1995,-139.09 2002,-139.09"/>
</g>
<!-- Node27&#45;&gt;Node34 -->
<g id="edge45" class="edge">
<title>Node27&#45;&gt;Node34</title>
<path fill="none" stroke="#63b8ff" d="M2046.57,-173.5C2141.34,-172.62 2358.55,-166.29 2536.5,-129 2593.31,-117.09 2656.73,-92.78 2692.61,-77.93"/>
<polygon fill="#63b8ff" stroke="#63b8ff" points="2694.1,-81.1 2701.97,-74.01 2691.39,-74.65 2694.1,-81.1"/>
</g>
<!-- Node35 -->
<g id="node35" class="node">
<title>Node35</title>
<g id="a_node35"><a xlink:href="FontAttribs_8h_source.html" target="_top" xlink:title=" ">
<polygon fill="white" stroke="#666666" points="2527,-129 2448,-129 2448,-110 2527,-110 2527,-129"/>
<text text-anchor="middle" x="2487.5" y="-117" font-family="Helvetica,sans-Serif" font-size="10.00">FontAttribs.h</text>
</a>
</g>
</g>
<!-- Node27&#45;&gt;Node35 -->
<g id="edge47" class="edge">
<title>Node27&#45;&gt;Node35</title>
<path fill="none" stroke="#63b8ff" d="M2046.73,-168.27C2139.86,-158.18 2343.57,-136.1 2437.83,-125.88"/>
<polygon fill="#63b8ff" stroke="#63b8ff" points="2438.39,-129.34 2447.96,-124.79 2437.64,-122.38 2438.39,-129.34"/>
</g>
<!-- Node42 -->
<g id="node40" class="node">
<title>Node42</title>
<g id="a_node40"><a xlink:href="FontVariantCache_8h.html" target="_top" xlink:title="This file implements the wxFont cache system.">
<polygon fill="white" stroke="#666666" points="2169,-129 2058,-129 2058,-110 2169,-110 2169,-129"/>
<text text-anchor="middle" x="2113.5" y="-117" font-family="Helvetica,sans-Serif" font-size="10.00">FontVariantCache.h</text>
</a>
</g>
</g>
<!-- Node27&#45;&gt;Node42 -->
<g id="edge56" class="edge">
<title>Node27&#45;&gt;Node42</title>
<path fill="none" stroke="#63b8ff" d="M2016.98,-164.98C2035.48,-156.46 2064.18,-143.23 2085.48,-133.41"/>
<polygon fill="#63b8ff" stroke="#63b8ff" points="2087.07,-136.53 2094.69,-129.17 2084.14,-130.18 2087.07,-136.53"/>
</g>
<!-- Node27&#45;&gt;Node46 -->
<g id="edge64" class="edge">
<title>Node27&#45;&gt;Node46</title>
<path fill="none" stroke="#63b8ff" d="M1950.41,-167.64C1901.6,-160.75 1830.45,-147.82 1810.5,-129 1798.35,-117.54 1793.87,-98.65 1792.27,-84.45"/>
<polygon fill="#63b8ff" stroke="#63b8ff" points="1795.74,-84.01 1791.51,-74.3 1788.76,-84.53 1795.74,-84.01"/>
</g>
<!-- Node35&#45;&gt;Node17 -->
<g id="edge54" class="edge">
<title>Node35&#45;&gt;Node17</title>
<path fill="none" stroke="#63b8ff" d="M2486.44,-109.66C2484.33,-92.17 2479.59,-52.8 2476.76,-29.27"/>
<polygon fill="#63b8ff" stroke="#63b8ff" points="2480.21,-28.67 2475.54,-19.16 2473.26,-29.51 2480.21,-28.67"/>
</g>
<!-- Node35&#45;&gt;Node32 -->
<g id="edge50" class="edge">
<title>Node35&#45;&gt;Node32</title>
<path fill="none" stroke="#63b8ff" d="M2450.39,-109.98C2408.59,-100.39 2340.86,-84.86 2297.52,-74.91"/>
<polygon fill="#63b8ff" stroke="#63b8ff" points="2298.13,-71.46 2287.6,-72.63 2296.56,-78.28 2298.13,-71.46"/>
</g>
<!-- Node35&#45;&gt;Node34 -->
<g id="edge53" class="edge">
<title>Node35&#45;&gt;Node34</title>
<path fill="none" stroke="#63b8ff" d="M2527.04,-110.02C2565.38,-101.73 2625.45,-88.55 2686.47,-74.2"/>
<polygon fill="#63b8ff" stroke="#63b8ff" points="2687.34,-77.59 2696.27,-71.89 2685.73,-70.78 2687.34,-77.59"/>
</g>
<!-- Node36 -->
<g id="node36" class="node">
<title>Node36</title>
<g id="a_node36"><a xlink:href="EnumWrapper_8h_source.html" target="_top" xlink:title=" ">
<polygon fill="#fff0f0" stroke="red" points="2596.5,-74 2502.5,-74 2502.5,-55 2596.5,-55 2596.5,-74"/>
<text text-anchor="middle" x="2549.5" y="-62" font-family="Helvetica,sans-Serif" font-size="10.00">EnumWrapper.h</text>
</a>
</g>
</g>
<!-- Node35&#45;&gt;Node36 -->
<g id="edge48" class="edge">
<title>Node35&#45;&gt;Node36</title>
<path fill="none" stroke="#63b8ff" d="M2497.46,-109.98C2506.63,-102.15 2520.44,-90.34 2531.53,-80.86"/>
<polygon fill="#63b8ff" stroke="#63b8ff" points="2534.03,-83.33 2539.36,-74.17 2529.48,-78.01 2534.03,-83.33"/>
</g>
<!-- Node39 -->
<g id="node37" class="node">
<title>Node39</title>
<g id="a_node37"><a xlink:title=" ">
<polygon fill="#e0e0e0" stroke="#999999" points="2385,-74 2306,-74 2306,-55 2385,-55 2385,-74"/>
<text text-anchor="middle" x="2345.5" y="-62" font-family="Helvetica,sans-Serif" font-size="10.00">wx/version.h</text>
</a>
</g>
</g>
<!-- Node35&#45;&gt;Node39 -->
<g id="edge51" class="edge">
<title>Node35&#45;&gt;Node39</title>
<path fill="none" stroke="#63b8ff" d="M2464.69,-109.98C2441.33,-101.27 2404.8,-87.63 2378.33,-77.75"/>
<polygon fill="#63b8ff" stroke="#63b8ff" points="2379.32,-74.39 2368.73,-74.17 2376.87,-80.95 2379.32,-74.39"/>
</g>
<!-- Node35&#45;&gt;Node40 -->
<g id="edge52" class="edge">
<title>Node35&#45;&gt;Node40</title>
<path fill="none" stroke="#63b8ff" d="M2513.05,-109.98C2539.62,-101.13 2581.44,-87.19 2611.17,-77.28"/>
<polygon fill="#63b8ff" stroke="#63b8ff" points="2612.37,-80.56 2620.75,-74.08 2610.16,-73.92 2612.37,-80.56"/>
</g>
<!-- Node41 -->
<g id="node39" class="node">
<title>Node41</title>
<g id="a_node39"><a xlink:title=" ">
<polygon fill="#e0e0e0" stroke="#999999" points="2446.5,-74 2402.5,-74 2402.5,-55 2446.5,-55 2446.5,-74"/>
<text text-anchor="middle" x="2424.5" y="-62" font-family="Helvetica,sans-Serif" font-size="10.00">limits</text>
</a>
</g>
</g>
<!-- Node35&#45;&gt;Node41 -->
<g id="edge55" class="edge">
<title>Node35&#45;&gt;Node41</title>
<path fill="none" stroke="#63b8ff" d="M2477.38,-109.98C2468.06,-102.15 2454.03,-90.34 2442.76,-80.86"/>
<polygon fill="#63b8ff" stroke="#63b8ff" points="2444.71,-77.93 2434.81,-74.17 2440.21,-83.29 2444.71,-77.93"/>
</g>
<!-- Node36&#45;&gt;Node17 -->
<g id="edge49" class="edge">
<title>Node36&#45;&gt;Node17</title>
<path fill="none" stroke="#63b8ff" d="M2537.45,-54.98C2526.04,-46.92 2508.67,-34.65 2495.07,-25.03"/>
<polygon fill="#63b8ff" stroke="#63b8ff" points="2496.96,-22.08 2486.77,-19.17 2492.92,-27.8 2496.96,-22.08"/>
</g>
<!-- Node42&#45;&gt;Node3 -->
<g id="edge57" class="edge">
<title>Node42&#45;&gt;Node3</title>
<path fill="none" stroke="#63b8ff" d="M2057.87,-110.86C2054.7,-110.54 2051.56,-110.25 2048.5,-110 1536.93,-68.21 913.2,-65.36 743.75,-65.4"/>
<polygon fill="#63b8ff" stroke="#63b8ff" points="743.71,-61.9 733.71,-65.41 743.71,-68.9 743.71,-61.9"/>
</g>
<!-- Node42&#45;&gt;Node17 -->
<g id="edge60" class="edge">
<title>Node42&#45;&gt;Node17</title>
<path fill="none" stroke="#63b8ff" d="M2098.93,-109.93C2079.37,-97.39 2048.89,-73.52 2065.5,-55 2089.66,-28.07 2331.7,-15.9 2431.66,-11.99"/>
<polygon fill="#63b8ff" stroke="#63b8ff" points="2431.86,-15.48 2441.72,-11.6 2431.6,-8.49 2431.86,-15.48"/>
</g>
<!-- Node42&#45;&gt;Node32 -->
<g id="edge59" class="edge">
<title>Node42&#45;&gt;Node32</title>
<path fill="none" stroke="#63b8ff" d="M2136.48,-109.98C2160,-101.27 2196.79,-87.63 2223.44,-77.75"/>
<polygon fill="#63b8ff" stroke="#63b8ff" points="2224.95,-80.93 2233.11,-74.17 2222.51,-74.36 2224.95,-80.93"/>
</g>
<!-- Node42&#45;&gt;Node43 -->
<g id="edge58" class="edge">
<title>Node42&#45;&gt;Node43</title>
<path fill="none" stroke="#63b8ff" d="M2085.22,-109.98C2055.55,-101.05 2008.71,-86.94 1975.75,-77.02"/>
<polygon fill="#63b8ff" stroke="#63b8ff" points="1976.58,-73.61 1966,-74.08 1974.57,-80.32 1976.58,-73.61"/>
</g>
<!-- Node42&#45;&gt;Node44 -->
<g id="edge61" class="edge">
<title>Node42&#45;&gt;Node44</title>
<path fill="none" stroke="#63b8ff" d="M2120.11,-109.75C2125.76,-102.26 2134.04,-91.28 2140.95,-82.13"/>
<polygon fill="#63b8ff" stroke="#63b8ff" points="2143.79,-84.18 2147.02,-74.09 2138.2,-79.96 2143.79,-84.18"/>
</g>
<!-- Node45 -->
<g id="node43" class="node">
<title>Node45</title>
<g id="a_node43"><a xlink:title=" ">
<polygon fill="#e0e0e0" stroke="#999999" points="2119,-74 2074,-74 2074,-55 2119,-55 2119,-74"/>
<text text-anchor="middle" x="2096.5" y="-62" font-family="Helvetica,sans-Serif" font-size="10.00">utility</text>
</a>
</g>
</g>
<!-- Node42&#45;&gt;Node45 -->
<g id="edge62" class="edge">
<title>Node42&#45;&gt;Node45</title>
<path fill="none" stroke="#63b8ff" d="M2110.69,-109.75C2108.44,-102.72 2105.2,-92.62 2102.38,-83.84"/>
<polygon fill="#63b8ff" stroke="#63b8ff" points="2105.64,-82.54 2099.25,-74.09 2098.98,-84.68 2105.64,-82.54"/>
</g>
<!-- Node42&#45;&gt;Node46 -->
<g id="edge63" class="edge">
<title>Node42&#45;&gt;Node46</title>
<path fill="none" stroke="#63b8ff" d="M2061.77,-109.98C2003.37,-100.37 1908.65,-84.78 1848.26,-74.84"/>
<polygon fill="#63b8ff" stroke="#63b8ff" points="1848.57,-71.35 1838.14,-73.18 1847.44,-78.25 1848.57,-71.35"/>
</g>
</g>
</svg>
        <g id="navigator" transform="translate(0 0)" fill="#404254">
                <rect fill="#f2f5e9" fill-opacity="0.5" stroke="#606060" stroke-width=".5" x="0" y="0" width="60" height="60"/>
                <use id="zoomplus" xlink:href="#zoomPlus" x="17" y="9" onmousedown="handleZoom(evt,'in')"/>
                <use id="zoomminus" xlink:href="#zoomMin" x="42" y="9" onmousedown="handleZoom(evt,'out')"/>
                <use id="reset" xlink:href="#resetDef" x="30" y="36" onmousedown="handleReset()"/>
                <g id="arrowUp" xlink:href="#dirArrow" transform="translate(30 24)" onmousedown="handlePan(0,-1)">
                  <use xlink:href="#rim" fill="#404040">
                        <set attributeName="fill" to="#808080" begin="arrowUp.mouseover" end="arrowUp.mouseout"/>
                  </use>
                  <path fill="none" stroke="white" stroke-width="1.5" d="M0,-3.0v7 M-2.5,-0.5L0,-3.0L2.5,-0.5"/>
                </g>
                <g id="arrowRight" xlink:href="#dirArrow" transform="rotate(90) translate(36 -43)" onmousedown="handlePan(1,0)">
                  <use xlink:href="#rim" fill="#404040">
                        <set attributeName="fill" to="#808080" begin="arrowRight.mouseover" end="arrowRight.mouseout"/>
                  </use>
                  <path fill="none" stroke="white" stroke-width="1.5" d="M0,-3.0v7 M-2.5,-0.5L0,-3.0L2.5,-0.5"/>
                </g>
                <g id="arrowDown" xlink:href="#dirArrow" transform="rotate(180) translate(-30 -48)" onmousedown="handlePan(0,1)">
                  <use xlink:href="#rim" fill="#404040">
                        <set attributeName="fill" to="#808080" begin="arrowDown.mouseover" end="arrowDown.mouseout"/>
                  </use>
                  <path fill="none" stroke="white" stroke-width="1.5" d="M0,-3.0v7 M-2.5,-0.5L0,-3.0L2.5,-0.5"/>
                </g>
                <g id="arrowLeft" xlink:href="#dirArrow" transform="rotate(270) translate(-36 17)" onmousedown="handlePan(-1,0)">
                  <use xlink:href="#rim" fill="#404040">
                        <set attributeName="fill" to="#808080" begin="arrowLeft.mouseover" end="arrowLeft.mouseout"/>
                  </use>
                  <path fill="none" stroke="white" stroke-width="1.5" d="M0,-3.0v7 M-2.5,-0.5L0,-3.0L2.5,-0.5"/>
                </g>
        </g>
        <svg viewBox="0 0 15 15" width="100%" height="30px" preserveAspectRatio="xMaxYMin meet">
         <g id="arrow_out" transform="scale(0.3 0.3)">
          <a xlink:href="DrawSidebar_8cpp__incl_org.svg" target="_base">
           <rect id="button" ry="5" rx="5" y="6" x="6" height="38" width="38"
                fill="#f2f5e9" fill-opacity="0.5" stroke="#606060" stroke-width="1.0"/>
           <path id="arrow"
             d="M 11.500037,31.436501 C 11.940474,20.09759 22.043105,11.32322 32.158766,21.979434 L 37.068811,17.246167 C 37.068811,17.246167 37.088388,32 37.088388,32 L 22.160133,31.978069 C 22.160133,31.978069 26.997745,27.140456 26.997745,27.140456 C 18.528582,18.264221 13.291696,25.230495 11.500037,31.436501 z"
             style="fill:#404040;"/>
          </a>
         </g>
        </svg>
</svg>
