<?xml version="1.0" encoding="UTF-8" standalone="no"?>
<!DOCTYPE svg PUBLIC "-//W3C//DTD SVG 1.1//EN"
 "http://www.w3.org/Graphics/SVG/1.1/DTD/svg11.dtd">
<!-- Generated by graphviz version 2.43.0 (0)
 -->
<!-- Title: src/sidebars/DrawSidebar.cpp Pages: 1 -->
<!--zoomable 412 -->
<svg id="main" version="1.1" xmlns="http://www.w3.org/2000/svg" xmlns:xlink="http://www.w3.org/1999/xlink" xml:space="preserve" onload="init(evt)">
<style type="text/css"><![CDATA[
.edge:hover path { stroke: red; }
.edge:hover polygon { stroke: red; fill: red; }
]]></style>
<script type="text/javascript"><![CDATA[
var edges = document.getElementsByTagName('g');
if (edges && edges.length) {
  for (var i=0;i<edges.length;i++) {
    if (edges[i].id.substr(0,4)=='edge') {
      edges[i].setAttribute('class','edge');
    }
  }
}
]]></script>
        <defs>
                <circle id="rim" cx="0" cy="0" r="7"/>
                <circle id="rim2" cx="0" cy="0" r="3.5"/>
                <g id="zoomPlus">
                        <use xlink:href="#rim" fill="#404040">
                                <set attributeName="fill" to="#808080" begin="zoomplus.mouseover" end="zoomplus.mouseout"/>
                        </use>
                        <path d="M-4,0h8M0,-4v8" fill="none" stroke="white" stroke-width="1.5" pointer-events="none"/>
                </g>
                <g id="zoomMin">
                        <use xlink:href="#rim" fill="#404040">
                                <set attributeName="fill" to="#808080" begin="zoomminus.mouseover" end="zoomminus.mouseout"/>
                        </use>
                        <path d="M-4,0h8" fill="none" stroke="white" stroke-width="1.5" pointer-events="none"/>
                </g>
                <g id="dirArrow">
                        <path fill="none" stroke="white" stroke-width="1.5" d="M0,-3.0v7 M-2.5,-0.5L0,-3.0L2.5,-0.5"/>
                </g>
               <g id="resetDef">
                       <use xlink:href="#rim2" fill="#404040">
                               <set attributeName="fill" to="#808080" begin="reset.mouseover" end="reset.mouseout"/>
                       </use>
               </g>
        </defs>

<script type="text/javascript">
var viewWidth = 2414;
var viewHeight = 412;
var sectionId = 'dynsection-0';
</script>
<script xlink:href="svgpan.js"/>
<svg id="graph" class="graph">
<g id="viewport">
<title>src/sidebars/DrawSidebar.cpp</title>
<!-- Node1 -->
<g id="node1" class="node">
<title>Node1</title>
<g id="a_node1"><a xlink:title="This file defines the class StatSidebar.">
<polygon fill="#999999" stroke="#666666" points="651.5,-404 491.5,-404 491.5,-385 651.5,-385 651.5,-404"/>
<text text-anchor="middle" x="571.5" y="-392" font-family="Helvetica,sans-Serif" font-size="10.00">src/sidebars/DrawSidebar.cpp</text>
</a>
</g>
</g>
<!-- Node2 -->
<g id="node2" class="node">
<title>Node2</title>
<g id="a_node2"><a xlink:href="DrawSidebar_8h.html" target="_top" xlink:title="This file declares the class StatSidebar, that provides some statistics buttons.">
<polygon fill="white" stroke="#666666" points="403,-294 316,-294 316,-275 403,-275 403,-294"/>
<text text-anchor="middle" x="359.5" y="-282" font-family="Helvetica,sans-Serif" font-size="10.00">DrawSidebar.h</text>
</a>
</g>
</g>
<!-- Node1&#45;&gt;Node2 -->
<g id="edge1" class="edge">
<title>Node1&#45;&gt;Node2</title>
<path fill="none" stroke="#63b8ff" d="M554.51,-384.84C517.44,-365.96 429.1,-320.96 385.19,-298.59"/>
<polygon fill="#63b8ff" stroke="#63b8ff" points="386.78,-295.47 376.28,-294.05 383.6,-301.7 386.78,-295.47"/>
</g>
<!-- Node14 -->
<g id="node14" class="node">
<title>Node14</title>
<g id="a_node14"><a xlink:title=" ">
<polygon fill="#e0e0e0" stroke="#999999" points="738,-349 645,-349 645,-330 738,-330 738,-349"/>
<text text-anchor="middle" x="691.5" y="-337" font-family="Helvetica,sans-Serif" font-size="10.00">wx/windowptr.h</text>
</a>
</g>
</g>
<!-- Node1&#45;&gt;Node14 -->
<g id="edge15" class="edge">
<title>Node1&#45;&gt;Node14</title>
<path fill="none" stroke="#63b8ff" d="M590.78,-384.98C610.17,-376.42 640.31,-363.11 662.57,-353.28"/>
<polygon fill="#63b8ff" stroke="#63b8ff" points="664.14,-356.41 671.87,-349.17 661.31,-350.01 664.14,-356.41"/>
</g>
<!-- Node15 -->
<g id="node15" class="node">
<title>Node15</title>
<g id="a_node15"><a xlink:href="Gen1Wiz_8h_source.html" target="_top" xlink:title=" ">
<polygon fill="white" stroke="#666666" points="626.5,-349 516.5,-349 516.5,-330 626.5,-330 626.5,-349"/>
<text text-anchor="middle" x="571.5" y="-337" font-family="Helvetica,sans-Serif" font-size="10.00">wizards/Gen1Wiz.h</text>
</a>
</g>
</g>
<!-- Node1&#45;&gt;Node15 -->
<g id="edge16" class="edge">
<title>Node1&#45;&gt;Node15</title>
<path fill="none" stroke="#63b8ff" d="M571.5,-384.75C571.5,-377.8 571.5,-367.85 571.5,-359.13"/>
<polygon fill="#63b8ff" stroke="#63b8ff" points="575,-359.09 571.5,-349.09 568,-359.09 575,-359.09"/>
</g>
<!-- Node3 -->
<g id="node3" class="node">
<title>Node3</title>
<g id="a_node3"><a xlink:href="precomp_8h_source.html" target="_top" xlink:title=" ">
<polygon fill="white" stroke="#666666" points="627.5,-74 559.5,-74 559.5,-55 627.5,-55 627.5,-74"/>
<text text-anchor="middle" x="593.5" y="-62" font-family="Helvetica,sans-Serif" font-size="10.00">precomp.h</text>
</a>
</g>
</g>
<!-- Node2&#45;&gt;Node3 -->
<g id="edge2" class="edge">
<title>Node2&#45;&gt;Node3</title>
<path fill="none" stroke="#63b8ff" d="M370.06,-274.98C379.71,-266.7 393.76,-253.3 402.5,-239 434.08,-187.31 402.93,-152.08 446.5,-110 474.02,-83.42 516.86,-72.66 549.21,-68.33"/>
<polygon fill="#63b8ff" stroke="#63b8ff" points="549.79,-71.79 559.31,-67.14 548.97,-64.83 549.79,-71.79"/>
</g>
<!-- Node5 -->
<g id="node5" class="node">
<title>Node5</title>
<g id="a_node5"><a xlink:title=" ">
<polygon fill="#e0e0e0" stroke="#999999" points="546,-184 489,-184 489,-165 546,-165 546,-184"/>
<text text-anchor="middle" x="517.5" y="-172" font-family="Helvetica,sans-Serif" font-size="10.00">wx/wx.h</text>
</a>
</g>
</g>
<!-- Node2&#45;&gt;Node5 -->
<g id="edge4" class="edge">
<title>Node2&#45;&gt;Node5</title>
<path fill="none" stroke="#63b8ff" d="M375.83,-274.94C391.7,-266.41 416.29,-252.66 436.5,-239 458.98,-223.8 483.3,-204.29 499.36,-190.93"/>
<polygon fill="#63b8ff" stroke="#63b8ff" points="501.96,-193.31 507.37,-184.2 497.46,-187.95 501.96,-193.31"/>
</g>
<!-- Node6 -->
<g id="node6" class="node">
<title>Node6</title>
<g id="a_node6"><a xlink:title=" ">
<polygon fill="#e0e0e0" stroke="#999999" points="92.5,-239 18.5,-239 18.5,-220 92.5,-220 92.5,-239"/>
<text text-anchor="middle" x="55.5" y="-227" font-family="Helvetica,sans-Serif" font-size="10.00">wx/button.h</text>
</a>
</g>
</g>
<!-- Node2&#45;&gt;Node6 -->
<g id="edge5" class="edge">
<title>Node2&#45;&gt;Node6</title>
<path fill="none" stroke="#63b8ff" d="M315.65,-276.1C266.3,-267.74 183.46,-253.59 102.51,-239.16"/>
<polygon fill="#63b8ff" stroke="#63b8ff" points="103.11,-235.72 92.65,-237.4 101.88,-242.61 103.11,-235.72"/>
</g>
<!-- Node7 -->
<g id="node7" class="node">
<title>Node7</title>
<g id="a_node7"><a xlink:href="EventIDs_8h.html" target="_top" xlink:title="This file declares the class EventIDs that contains unique IDs for many events wxMaxima needs.">
<polygon fill="white" stroke="#666666" points="394,-239 325,-239 325,-220 394,-220 394,-239"/>
<text text-anchor="middle" x="359.5" y="-227" font-family="Helvetica,sans-Serif" font-size="10.00">EventIDs.h</text>
</a>
</g>
</g>
<!-- Node2&#45;&gt;Node7 -->
<g id="edge6" class="edge">
<title>Node2&#45;&gt;Node7</title>
<path fill="none" stroke="#63b8ff" d="M359.5,-274.75C359.5,-267.8 359.5,-257.85 359.5,-249.13"/>
<polygon fill="#63b8ff" stroke="#63b8ff" points="363,-249.09 359.5,-239.09 356,-249.09 363,-249.09"/>
</g>
<!-- Node10 -->
<g id="node10" class="node">
<title>Node10</title>
<g id="a_node10"><a xlink:href="ButtonWrapSizer_8h.html" target="_top" xlink:title="This file contains the definition of the class Buttonwrapsizer that allows to select arbitrary unicod...">
<polygon fill="white" stroke="#666666" points="218,-239 111,-239 111,-220 218,-220 218,-239"/>
<text text-anchor="middle" x="164.5" y="-227" font-family="Helvetica,sans-Serif" font-size="10.00">ButtonWrapSizer.h</text>
</a>
</g>
</g>
<!-- Node2&#45;&gt;Node10 -->
<g id="edge10" class="edge">
<title>Node2&#45;&gt;Node10</title>
<path fill="none" stroke="#63b8ff" d="M328.17,-274.98C295.01,-265.97 242.5,-251.7 205.94,-241.76"/>
<polygon fill="#63b8ff" stroke="#63b8ff" points="206.64,-238.33 196.08,-239.08 204.81,-245.08 206.64,-238.33"/>
</g>
<!-- Node13 -->
<g id="node13" class="node">
<title>Node13</title>
<g id="a_node13"><a xlink:title=" ">
<polygon fill="#e0e0e0" stroke="#999999" points="306.5,-239 236.5,-239 236.5,-220 306.5,-220 306.5,-239"/>
<text text-anchor="middle" x="271.5" y="-227" font-family="Helvetica,sans-Serif" font-size="10.00">wx/panel.h</text>
</a>
</g>
</g>
<!-- Node2&#45;&gt;Node13 -->
<g id="edge14" class="edge">
<title>Node2&#45;&gt;Node13</title>
<path fill="none" stroke="#63b8ff" d="M345.36,-274.98C331.71,-266.77 310.81,-254.18 294.72,-244.49"/>
<polygon fill="#63b8ff" stroke="#63b8ff" points="296.27,-241.33 285.9,-239.17 292.66,-247.33 296.27,-241.33"/>
</g>
<!-- Node4 -->
<g id="node4" class="node">
<title>Node4</title>
<g id="a_node4"><a xlink:href="Version_8h_source.html" target="_top" xlink:title=" ">
<polygon fill="white" stroke="#666666" points="624.5,-19 562.5,-19 562.5,0 624.5,0 624.5,-19"/>
<text text-anchor="middle" x="593.5" y="-7" font-family="Helvetica,sans-Serif" font-size="10.00">Version.h</text>
</a>
</g>
</g>
<!-- Node3&#45;&gt;Node4 -->
<g id="edge3" class="edge">
<title>Node3&#45;&gt;Node4</title>
<path fill="none" stroke="#63b8ff" d="M593.5,-54.75C593.5,-47.8 593.5,-37.85 593.5,-29.13"/>
<polygon fill="#63b8ff" stroke="#63b8ff" points="597,-29.09 593.5,-19.09 590,-29.09 597,-29.09"/>
</g>
<!-- Node7&#45;&gt;Node5 -->
<g id="edge8" class="edge">
<title>Node7&#45;&gt;Node5</title>
<path fill="none" stroke="#63b8ff" d="M384.89,-219.98C411.3,-211.13 452.85,-197.19 482.39,-187.28"/>
<polygon fill="#63b8ff" stroke="#63b8ff" points="483.55,-190.58 491.92,-184.08 481.32,-183.94 483.55,-190.58"/>
</g>
<!-- Node8 -->
<g id="node8" class="node">
<title>Node8</title>
<g id="a_node8"><a xlink:title=" ">
<polygon fill="#e0e0e0" stroke="#999999" points="286.5,-184 244.5,-184 244.5,-165 286.5,-165 286.5,-184"/>
<text text-anchor="middle" x="265.5" y="-172" font-family="Helvetica,sans-Serif" font-size="10.00">array</text>
</a>
</g>
</g>
<!-- Node7&#45;&gt;Node8 -->
<g id="edge7" class="edge">
<title>Node7&#45;&gt;Node8</title>
<path fill="none" stroke="#63b8ff" d="M344.4,-219.98C329.68,-211.69 307.08,-198.94 289.83,-189.22"/>
<polygon fill="#63b8ff" stroke="#63b8ff" points="291.31,-186.03 280.88,-184.17 287.87,-192.13 291.31,-186.03"/>
</g>
<!-- Node9 -->
<g id="node9" class="node">
<title>Node9</title>
<g id="a_node9"><a xlink:title=" ">
<polygon fill="#e0e0e0" stroke="#999999" points="394,-184 305,-184 305,-165 394,-165 394,-184"/>
<text text-anchor="middle" x="349.5" y="-172" font-family="Helvetica,sans-Serif" font-size="10.00">wx/windowid.h</text>
</a>
</g>
</g>
<!-- Node7&#45;&gt;Node9 -->
<g id="edge9" class="edge">
<title>Node7&#45;&gt;Node9</title>
<path fill="none" stroke="#63b8ff" d="M357.85,-219.75C356.54,-212.8 354.66,-202.85 353.02,-194.13"/>
<polygon fill="#63b8ff" stroke="#63b8ff" points="356.41,-193.27 351.12,-184.09 349.54,-194.56 356.41,-193.27"/>
</g>
<!-- Node10&#45;&gt;Node3 -->
<g id="edge12" class="edge">
<title>Node10&#45;&gt;Node3</title>
<path fill="none" stroke="#63b8ff" d="M171.92,-219.84C183.96,-206.29 209.07,-180.09 235.5,-165 338.61,-106.13 478.5,-80.48 548.99,-70.71"/>
<polygon fill="#63b8ff" stroke="#63b8ff" points="549.84,-74.13 559.29,-69.33 548.91,-67.19 549.84,-74.13"/>
</g>
<!-- Node11 -->
<g id="node11" class="node">
<title>Node11</title>
<g id="a_node11"><a xlink:title=" ">
<polygon fill="#e0e0e0" stroke="#999999" points="188,-184 107,-184 107,-165 188,-165 188,-184"/>
<text text-anchor="middle" x="147.5" y="-172" font-family="Helvetica,sans-Serif" font-size="10.00">wx/stattext.h</text>
</a>
</g>
</g>
<!-- Node10&#45;&gt;Node11 -->
<g id="edge11" class="edge">
<title>Node10&#45;&gt;Node11</title>
<path fill="none" stroke="#63b8ff" d="M161.69,-219.75C159.44,-212.72 156.2,-202.62 153.38,-193.84"/>
<polygon fill="#63b8ff" stroke="#63b8ff" points="156.64,-192.54 150.25,-184.09 149.98,-194.68 156.64,-192.54"/>
</g>
<!-- Node12 -->
<g id="node12" class="node">
<title>Node12</title>
<g id="a_node12"><a xlink:title=" ">
<polygon fill="#e0e0e0" stroke="#999999" points="89,-184 0,-184 0,-165 89,-165 89,-184"/>
<text text-anchor="middle" x="44.5" y="-172" font-family="Helvetica,sans-Serif" font-size="10.00">wx/wrapsizer.h</text>
</a>
</g>
</g>
<!-- Node10&#45;&gt;Node12 -->
<g id="edge13" class="edge">
<title>Node10&#45;&gt;Node12</title>
<path fill="none" stroke="#63b8ff" d="M145.22,-219.98C125.83,-211.42 95.69,-198.11 73.43,-188.28"/>
<polygon fill="#63b8ff" stroke="#63b8ff" points="74.69,-185.01 64.13,-184.17 71.86,-191.41 74.69,-185.01"/>
</g>
<!-- Node15&#45;&gt;Node3 -->
<g id="edge17" class="edge">
<title>Node15&#45;&gt;Node3</title>
<path fill="none" stroke="#63b8ff" d="M551.14,-329.91C519.1,-314.86 460.5,-280.51 460.5,-230.5 460.5,-230.5 460.5,-230.5 460.5,-173.5 460.5,-123.87 517,-93.05 556.35,-77.61"/>
<polygon fill="#63b8ff" stroke="#63b8ff" points="557.81,-80.8 565.94,-74.02 555.35,-74.25 557.81,-80.8"/>
</g>
<!-- Node15&#45;&gt;Node5 -->
<g id="edge18" class="edge">
<title>Node15&#45;&gt;Node5</title>
<path fill="none" stroke="#63b8ff" d="M568.6,-329.74C560.14,-304.2 535.37,-229.43 523.71,-194.23"/>
<polygon fill="#63b8ff" stroke="#63b8ff" points="526.88,-192.7 520.42,-184.31 520.24,-194.9 526.88,-192.7"/>
</g>
<!-- Node16 -->
<g id="node16" class="node">
<title>Node16</title>
<g id="a_node16"><a xlink:title=" ">
<polygon fill="#e0e0e0" stroke="#999999" points="2405.5,-294 2325.5,-294 2325.5,-275 2405.5,-275 2405.5,-294"/>
<text text-anchor="middle" x="2365.5" y="-282" font-family="Helvetica,sans-Serif" font-size="10.00">wx/statline.h</text>
</a>
</g>
</g>
<!-- Node15&#45;&gt;Node16 -->
<g id="edge19" class="edge">
<title>Node15&#45;&gt;Node16</title>
<path fill="none" stroke="#63b8ff" d="M626.62,-330.79C629.62,-330.49 632.59,-330.22 635.5,-330 1378.37,-272.87 1569.38,-360.08 2311.5,-294 2312.78,-293.89 2314.07,-293.76 2315.37,-293.63"/>
<polygon fill="#63b8ff" stroke="#63b8ff" points="2315.96,-297.08 2325.47,-292.42 2315.12,-290.13 2315.96,-297.08"/>
</g>
<!-- Node17 -->
<g id="node17" class="node">
<title>Node17</title>
<g id="a_node17"><a xlink:title=" ">
<polygon fill="#e0e0e0" stroke="#999999" points="1848,-19 1783,-19 1783,0 1848,0 1848,-19"/>
<text text-anchor="middle" x="1815.5" y="-7" font-family="Helvetica,sans-Serif" font-size="10.00">functional</text>
</a>
</g>
</g>
<!-- Node15&#45;&gt;Node17 -->
<g id="edge20" class="edge">
<title>Node15&#45;&gt;Node17</title>
<path fill="none" stroke="#63b8ff" d="M626.63,-330.92C629.63,-330.59 632.6,-330.28 635.5,-330 727.57,-321.14 2297.5,-323 2297.5,-230.5 2297.5,-230.5 2297.5,-230.5 2297.5,-118.5 2297.5,-89.04 2301.26,-73.7 2278.5,-55 2246.43,-28.64 1967.09,-15.91 1858.46,-11.93"/>
<polygon fill="#63b8ff" stroke="#63b8ff" points="1858.31,-8.42 1848.19,-11.56 1858.06,-15.42 1858.31,-8.42"/>
</g>
<!-- Node18 -->
<g id="node18" class="node">
<title>Node18</title>
<g id="a_node18"><a xlink:href="BTextCtrl_8h_source.html" target="_top" xlink:title=" ">
<polygon fill="white" stroke="#666666" points="641.5,-294 571.5,-294 571.5,-275 641.5,-275 641.5,-294"/>
<text text-anchor="middle" x="606.5" y="-282" font-family="Helvetica,sans-Serif" font-size="10.00">BTextCtrl.h</text>
</a>
</g>
</g>
<!-- Node15&#45;&gt;Node18 -->
<g id="edge21" class="edge">
<title>Node15&#45;&gt;Node18</title>
<path fill="none" stroke="#63b8ff" d="M577.28,-329.75C582.12,-322.42 589.18,-311.73 595.14,-302.7"/>
<polygon fill="#63b8ff" stroke="#63b8ff" points="598.24,-304.36 600.83,-294.09 592.4,-300.5 598.24,-304.36"/>
</g>
<!-- Node18&#45;&gt;Node3 -->
<g id="edge22" class="edge">
<title>Node18&#45;&gt;Node3</title>
<path fill="none" stroke="#63b8ff" d="M605.43,-274.81C602.62,-251.34 595.02,-184.69 592.5,-129 592.12,-120.56 592.41,-118.44 592.5,-110 592.6,-101.49 592.79,-92.07 592.99,-84.09"/>
<polygon fill="#63b8ff" stroke="#63b8ff" points="596.49,-84.12 593.25,-74.03 589.49,-83.94 596.49,-84.12"/>
</g>
<!-- Node18&#45;&gt;Node5 -->
<g id="edge23" class="edge">
<title>Node18&#45;&gt;Node5</title>
<path fill="none" stroke="#63b8ff" d="M599.22,-274.66C584.34,-256.61 550.28,-215.28 531.16,-192.08"/>
<polygon fill="#63b8ff" stroke="#63b8ff" points="533.7,-189.65 524.64,-184.16 528.29,-194.1 533.7,-189.65"/>
</g>
<!-- Node19 -->
<g id="node19" class="node">
<title>Node19</title>
<g id="a_node19"><a xlink:href="Configuration_8h_source.html" target="_top" xlink:title=" ">
<polygon fill="white" stroke="#666666" points="1298,-239 1207,-239 1207,-220 1298,-220 1298,-239"/>
<text text-anchor="middle" x="1252.5" y="-227" font-family="Helvetica,sans-Serif" font-size="10.00">Configuration.h</text>
</a>
</g>
</g>
<!-- Node18&#45;&gt;Node19 -->
<g id="edge24" class="edge">
<title>Node18&#45;&gt;Node19</title>
<path fill="none" stroke="#63b8ff" d="M641.69,-280.61C748.08,-271.88 1066.96,-245.72 1196.69,-235.08"/>
<polygon fill="#63b8ff" stroke="#63b8ff" points="1197.12,-238.56 1206.8,-234.25 1196.55,-231.58 1197.12,-238.56"/>
</g>
<!-- Node19&#45;&gt;Node3 -->
<g id="edge25" class="edge">
<title>Node19&#45;&gt;Node3</title>
<path fill="none" stroke="#63b8ff" d="M1206.72,-228.16C1070.65,-226.73 675.38,-219.54 630.5,-184 600.04,-159.88 594.13,-110.98 593.3,-84.15"/>
<polygon fill="#63b8ff" stroke="#63b8ff" points="596.8,-84.1 593.2,-74.14 589.8,-84.18 596.8,-84.1"/>
</g>
<!-- Node19&#45;&gt;Node5 -->
<g id="edge26" class="edge">
<title>Node19&#45;&gt;Node5</title>
<path fill="none" stroke="#63b8ff" d="M1206.86,-225.97C1100.28,-219.94 826.68,-203.73 598.5,-184 584.83,-182.82 569.88,-181.31 556.59,-179.89"/>
<polygon fill="#63b8ff" stroke="#63b8ff" points="556.66,-176.38 546.34,-178.79 555.91,-183.34 556.66,-176.38"/>
</g>
<!-- Node20 -->
<g id="node20" class="node">
<title>Node20</title>
<g id="a_node20"><a xlink:title=" ">
<polygon fill="#e0e0e0" stroke="#999999" points="1381.5,-129 1309.5,-129 1309.5,-110 1381.5,-110 1381.5,-129"/>
<text text-anchor="middle" x="1345.5" y="-117" font-family="Helvetica,sans-Serif" font-size="10.00">wx/config.h</text>
</a>
</g>
</g>
<!-- Node19&#45;&gt;Node20 -->
<g id="edge27" class="edge">
<title>Node19&#45;&gt;Node20</title>
<path fill="none" stroke="#63b8ff" d="M1271.22,-219.96C1286.05,-212.36 1306.4,-199.98 1319.5,-184 1330.34,-170.77 1337.2,-152.4 1341.14,-138.82"/>
<polygon fill="#63b8ff" stroke="#63b8ff" points="1344.52,-139.71 1343.68,-129.15 1337.75,-137.93 1344.52,-139.71"/>
</g>
<!-- Node21 -->
<g id="node21" class="node">
<title>Node21</title>
<g id="a_node21"><a xlink:title=" ">
<polygon fill="#e0e0e0" stroke="#999999" points="912,-184 835,-184 835,-165 912,-165 912,-184"/>
<text text-anchor="middle" x="873.5" y="-172" font-family="Helvetica,sans-Serif" font-size="10.00">wx/display.h</text>
</a>
</g>
</g>
<!-- Node19&#45;&gt;Node21 -->
<g id="edge28" class="edge">
<title>Node19&#45;&gt;Node21</title>
<path fill="none" stroke="#63b8ff" d="M1206.9,-222.98C1144.93,-215.34 1030.4,-200.75 922.35,-184.07"/>
<polygon fill="#63b8ff" stroke="#63b8ff" points="922.67,-180.58 912.25,-182.5 921.59,-187.5 922.67,-180.58"/>
</g>
<!-- Node22 -->
<g id="node22" class="node">
<title>Node22</title>
<g id="a_node22"><a xlink:title=" ">
<polygon fill="#e0e0e0" stroke="#999999" points="1020.5,-184 930.5,-184 930.5,-165 1020.5,-165 1020.5,-184"/>
<text text-anchor="middle" x="975.5" y="-172" font-family="Helvetica,sans-Serif" font-size="10.00">wx/fontenum.h</text>
</a>
</g>
</g>
<!-- Node19&#45;&gt;Node22 -->
<g id="edge29" class="edge">
<title>Node19&#45;&gt;Node22</title>
<path fill="none" stroke="#63b8ff" d="M1208,-219.98C1159.68,-210.74 1082.46,-195.97 1030.41,-186.01"/>
<polygon fill="#63b8ff" stroke="#63b8ff" points="1030.83,-182.52 1020.35,-184.08 1029.52,-189.4 1030.83,-182.52"/>
</g>
<!-- Node23 -->
<g id="node23" class="node">
<title>Node23</title>
<g id="a_node23"><a xlink:title=" ">
<polygon fill="#e0e0e0" stroke="#999999" points="1291.5,-129 1203.5,-129 1203.5,-110 1291.5,-110 1291.5,-129"/>
<text text-anchor="middle" x="1247.5" y="-117" font-family="Helvetica,sans-Serif" font-size="10.00">wx/hashmap.h</text>
</a>
</g>
</g>
<!-- Node19&#45;&gt;Node23 -->
<g id="edge30" class="edge">
<title>Node19&#45;&gt;Node23</title>
<path fill="none" stroke="#63b8ff" d="M1268.43,-219.99C1287.44,-208.61 1315.37,-187.28 1304.5,-165 1298.2,-152.09 1286.15,-141.83 1274.74,-134.43"/>
<polygon fill="#63b8ff" stroke="#63b8ff" points="1276.23,-131.25 1265.85,-129.12 1272.64,-137.25 1276.23,-131.25"/>
</g>
<!-- Node24 -->
<g id="node24" class="node">
<title>Node24</title>
<g id="a_node24"><a xlink:href="LoggingMessageDialog_8h.html" target="_top" xlink:title="This file declares a message dialog that sends its contents to the log message sink.">
<polygon fill="white" stroke="#666666" points="817,-184 640,-184 640,-165 817,-165 817,-184"/>
<text text-anchor="middle" x="728.5" y="-172" font-family="Helvetica,sans-Serif" font-size="10.00">dialogs/LoggingMessageDialog.h</text>
</a>
</g>
</g>
<!-- Node19&#45;&gt;Node24 -->
<g id="edge31" class="edge">
<title>Node19&#45;&gt;Node24</title>
<path fill="none" stroke="#63b8ff" d="M1206.92,-223.89C1121.59,-215.26 936.19,-196.51 822.89,-185.05"/>
<polygon fill="#63b8ff" stroke="#63b8ff" points="823.13,-181.55 812.83,-184.03 822.43,-188.52 823.13,-181.55"/>
</g>
<!-- Node27 -->
<g id="node27" class="node">
<title>Node27</title>
<g id="a_node27"><a xlink:href="TextStyle_8h.html" target="_top" xlink:title="This file declares everything needed for the text style system used to style all the elements on the ...">
<polygon fill="white" stroke="#666666" points="1780.5,-184 1684.5,-184 1684.5,-165 1780.5,-165 1780.5,-184"/>
<text text-anchor="middle" x="1732.5" y="-172" font-family="Helvetica,sans-Serif" font-size="10.00">cells/TextStyle.h</text>
</a>
</g>
</g>
<!-- Node19&#45;&gt;Node27 -->
<g id="edge35" class="edge">
<title>Node19&#45;&gt;Node27</title>
<path fill="none" stroke="#63b8ff" d="M1298.27,-224.34C1374.13,-217.3 1530.94,-202.14 1674.04,-184.14"/>
<polygon fill="#63b8ff" stroke="#63b8ff" points="1674.84,-187.56 1684.32,-182.83 1673.96,-180.62 1674.84,-187.56"/>
</g>
<!-- Node34 -->
<g id="node34" class="node">
<title>Node34</title>
<g id="a_node34"><a xlink:title=" ">
<polygon fill="#e0e0e0" stroke="#999999" points="2269.5,-74 2219.5,-74 2219.5,-55 2269.5,-55 2269.5,-74"/>
<text text-anchor="middle" x="2244.5" y="-62" font-family="Helvetica,sans-Serif" font-size="10.00">cstdint</text>
</a>
</g>
</g>
<!-- Node19&#45;&gt;Node34 -->
<g id="edge66" class="edge">
<title>Node19&#45;&gt;Node34</title>
<path fill="none" stroke="#63b8ff" d="M1298.13,-227.01C1481.87,-220.61 2160.95,-192.75 2230.5,-129 2242.58,-117.93 2245.46,-98.99 2245.69,-84.67"/>
<polygon fill="#63b8ff" stroke="#63b8ff" points="2249.19,-84.32 2245.43,-74.41 2242.19,-84.5 2249.19,-84.32"/>
</g>
<!-- Node42 -->
<g id="node39" class="node">
<title>Node42</title>
<g id="a_node39"><a xlink:title=" ">
<polygon fill="#e0e0e0" stroke="#999999" points="1787.5,-74 1723.5,-74 1723.5,-55 1787.5,-55 1787.5,-74"/>
<text text-anchor="middle" x="1755.5" y="-62" font-family="Helvetica,sans-Serif" font-size="10.00">algorithm</text>
</a>
</g>
</g>
<!-- Node19&#45;&gt;Node42 -->
<g id="edge73" class="edge">
<title>Node19&#45;&gt;Node42</title>
<path fill="none" stroke="#63b8ff" d="M1298.38,-227.97C1421.93,-226.11 1754.66,-217.95 1789.5,-184 1813.13,-160.97 1807.31,-140.81 1795.5,-110 1791.26,-98.94 1782.86,-88.91 1774.86,-81.18"/>
<polygon fill="#63b8ff" stroke="#63b8ff" points="1776.92,-78.33 1767.14,-74.27 1772.25,-83.55 1776.92,-78.33"/>
</g>
<!-- Node45 -->
<g id="node42" class="node">
<title>Node45</title>
<g id="a_node42"><a xlink:title=" ">
<polygon fill="#e0e0e0" stroke="#999999" points="1177.5,-74 1119.5,-74 1119.5,-55 1177.5,-55 1177.5,-74"/>
<text text-anchor="middle" x="1148.5" y="-62" font-family="Helvetica,sans-Serif" font-size="10.00">memory</text>
</a>
</g>
</g>
<!-- Node19&#45;&gt;Node45 -->
<g id="edge67" class="edge">
<title>Node19&#45;&gt;Node45</title>
<path fill="none" stroke="#63b8ff" d="M1251.64,-219.97C1249.98,-207.06 1245.39,-182.24 1233.5,-165 1218.56,-143.34 1204.01,-148.64 1186.5,-129 1174.24,-115.25 1163.78,-96.97 1156.97,-83.56"/>
<polygon fill="#63b8ff" stroke="#63b8ff" points="1160.03,-81.85 1152.49,-74.4 1153.74,-84.92 1160.03,-81.85"/>
</g>
<!-- Node46 -->
<g id="node43" class="node">
<title>Node46</title>
<g id="a_node43"><a xlink:title=" ">
<polygon fill="#e0e0e0" stroke="#999999" points="1324.5,-74 1292.5,-74 1292.5,-55 1324.5,-55 1324.5,-74"/>
<text text-anchor="middle" x="1308.5" y="-62" font-family="Helvetica,sans-Serif" font-size="10.00">list</text>
</a>
</g>
</g>
<!-- Node19&#45;&gt;Node46 -->
<g id="edge71" class="edge">
<title>Node19&#45;&gt;Node46</title>
<path fill="none" stroke="#63b8ff" d="M1258.29,-219.6C1265.92,-206.66 1277.18,-182.29 1266.5,-165 1247.69,-134.57 1213.31,-159.43 1194.5,-129 1190.06,-121.82 1189.74,-116.97 1194.5,-110 1214.07,-81.35 1255.07,-71.14 1282.19,-67.51"/>
<polygon fill="#63b8ff" stroke="#63b8ff" points="1282.63,-70.98 1292.17,-66.38 1281.84,-64.03 1282.63,-70.98"/>
</g>
<!-- Node48 -->
<g id="node45" class="node">
<title>Node48</title>
<g id="a_node45"><a xlink:title=" ">
<polygon fill="#e0e0e0" stroke="#999999" points="1587,-74 1494,-74 1494,-55 1587,-55 1587,-74"/>
<text text-anchor="middle" x="1540.5" y="-62" font-family="Helvetica,sans-Serif" font-size="10.00">unordered_map</text>
</a>
</g>
</g>
<!-- Node19&#45;&gt;Node48 -->
<g id="edge69" class="edge">
<title>Node19&#45;&gt;Node48</title>
<path fill="none" stroke="#63b8ff" d="M1286.21,-219.96C1350.52,-203.04 1487.33,-163.89 1520.5,-129 1532.06,-116.84 1536.94,-98.05 1539,-84.06"/>
<polygon fill="#63b8ff" stroke="#63b8ff" points="1542.48,-84.41 1540.12,-74.09 1535.53,-83.63 1542.48,-84.41"/>
</g>
<!-- Node49 -->
<g id="node46" class="node">
<title>Node49</title>
<g id="a_node46"><a xlink:title=" ">
<polygon fill="#e0e0e0" stroke="#999999" points="1086.5,-184 1038.5,-184 1038.5,-165 1086.5,-165 1086.5,-184"/>
<text text-anchor="middle" x="1062.5" y="-172" font-family="Helvetica,sans-Serif" font-size="10.00">mutex</text>
</a>
</g>
</g>
<!-- Node19&#45;&gt;Node49 -->
<g id="edge68" class="edge">
<title>Node19&#45;&gt;Node49</title>
<path fill="none" stroke="#63b8ff" d="M1221.97,-219.98C1187.7,-210.42 1132.22,-194.95 1096.56,-185"/>
<polygon fill="#63b8ff" stroke="#63b8ff" points="1097.2,-181.54 1086.62,-182.23 1095.31,-188.29 1097.2,-181.54"/>
</g>
<!-- Node50 -->
<g id="node47" class="node">
<title>Node50</title>
<g id="a_node47"><a xlink:title=" ">
<polygon fill="#e0e0e0" stroke="#999999" points="1158.5,-184 1104.5,-184 1104.5,-165 1158.5,-165 1158.5,-184"/>
<text text-anchor="middle" x="1131.5" y="-172" font-family="Helvetica,sans-Serif" font-size="10.00">random</text>
</a>
</g>
</g>
<!-- Node19&#45;&gt;Node50 -->
<g id="edge70" class="edge">
<title>Node19&#45;&gt;Node50</title>
<path fill="none" stroke="#63b8ff" d="M1233.06,-219.98C1213.51,-211.42 1183.12,-198.11 1160.68,-188.28"/>
<polygon fill="#63b8ff" stroke="#63b8ff" points="1161.86,-184.98 1151.29,-184.17 1159.05,-191.39 1161.86,-184.98"/>
</g>
<!-- Node51 -->
<g id="node48" class="node">
<title>Node51</title>
<g id="a_node48"><a xlink:title=" ">
<polygon fill="#e0e0e0" stroke="#999999" points="1224,-184 1177,-184 1177,-165 1224,-165 1224,-184"/>
<text text-anchor="middle" x="1200.5" y="-172" font-family="Helvetica,sans-Serif" font-size="10.00">vector</text>
</a>
</g>
</g>
<!-- Node19&#45;&gt;Node51 -->
<g id="edge72" class="edge">
<title>Node19&#45;&gt;Node51</title>
<path fill="none" stroke="#63b8ff" d="M1243.91,-219.75C1236.34,-212.03 1225.12,-200.6 1215.99,-191.28"/>
<polygon fill="#63b8ff" stroke="#63b8ff" points="1218.43,-188.78 1208.93,-184.09 1213.43,-193.68 1218.43,-188.78"/>
</g>
<!-- Node52 -->
<g id="node49" class="node">
<title>Node52</title>
<g id="a_node49"><a xlink:title=" ">
<polygon fill="#e0e0e0" stroke="#999999" points="1562,-184 1473,-184 1473,-165 1562,-165 1562,-184"/>
<text text-anchor="middle" x="1517.5" y="-172" font-family="Helvetica,sans-Serif" font-size="10.00">wx/wupdlock.h</text>
</a>
</g>
</g>
<!-- Node19&#45;&gt;Node52 -->
<g id="edge74" class="edge">
<title>Node19&#45;&gt;Node52</title>
<path fill="none" stroke="#63b8ff" d="M1295.08,-219.98C1341.2,-210.76 1414.86,-196.03 1464.66,-186.07"/>
<polygon fill="#63b8ff" stroke="#63b8ff" points="1465.47,-189.48 1474.59,-184.08 1464.1,-182.61 1465.47,-189.48"/>
</g>
<!-- Node53 -->
<g id="node50" class="node">
<title>Node53</title>
<g id="a_node50"><a xlink:title=" ">
<polygon fill="#e0e0e0" stroke="#999999" points="1666.5,-184 1580.5,-184 1580.5,-165 1666.5,-165 1666.5,-184"/>
<text text-anchor="middle" x="1623.5" y="-172" font-family="Helvetica,sans-Serif" font-size="10.00">wx/webview.h</text>
</a>
</g>
</g>
<!-- Node19&#45;&gt;Node53 -->
<g id="edge75" class="edge">
<title>Node19&#45;&gt;Node53</title>
<path fill="none" stroke="#63b8ff" d="M1298.24,-222.46C1358.29,-214.46 1467.25,-199.68 1570.42,-184.13"/>
<polygon fill="#63b8ff" stroke="#63b8ff" points="1571.02,-187.58 1580.38,-182.63 1569.97,-180.66 1571.02,-187.58"/>
</g>
<!-- Node24&#45;&gt;Node3 -->
<g id="edge32" class="edge">
<title>Node24&#45;&gt;Node3</title>
<path fill="none" stroke="#63b8ff" d="M717.45,-164.66C694.4,-146.22 640.93,-103.45 612.34,-80.57"/>
<polygon fill="#63b8ff" stroke="#63b8ff" points="614.32,-77.67 604.32,-74.16 609.95,-83.14 614.32,-77.67"/>
</g>
<!-- Node25 -->
<g id="node25" class="node">
<title>Node25</title>
<g id="a_node25"><a xlink:title=" ">
<polygon fill="#e0e0e0" stroke="#999999" points="763,-129 684,-129 684,-110 763,-110 763,-129"/>
<text text-anchor="middle" x="723.5" y="-117" font-family="Helvetica,sans-Serif" font-size="10.00">wx/msgdlg.h</text>
</a>
</g>
</g>
<!-- Node24&#45;&gt;Node25 -->
<g id="edge33" class="edge">
<title>Node24&#45;&gt;Node25</title>
<path fill="none" stroke="#63b8ff" d="M727.67,-164.75C727.02,-157.8 726.08,-147.85 725.26,-139.13"/>
<polygon fill="#63b8ff" stroke="#63b8ff" points="728.73,-138.72 724.31,-129.09 721.77,-139.37 728.73,-138.72"/>
</g>
<!-- Node26 -->
<g id="node26" class="node">
<title>Node26</title>
<g id="a_node26"><a xlink:title=" ">
<polygon fill="#e0e0e0" stroke="#999999" points="838.5,-129 780.5,-129 780.5,-110 838.5,-110 838.5,-129"/>
<text text-anchor="middle" x="809.5" y="-117" font-family="Helvetica,sans-Serif" font-size="10.00">wx/log.h</text>
</a>
</g>
</g>
<!-- Node24&#45;&gt;Node26 -->
<g id="edge34" class="edge">
<title>Node24&#45;&gt;Node26</title>
<path fill="none" stroke="#63b8ff" d="M741.51,-164.98C753.96,-156.84 772.96,-144.41 787.71,-134.76"/>
<polygon fill="#63b8ff" stroke="#63b8ff" points="789.8,-137.57 796.25,-129.17 785.96,-131.72 789.8,-137.57"/>
</g>
<!-- Node27&#45;&gt;Node3 -->
<g id="edge36" class="edge">
<title>Node27&#45;&gt;Node3</title>
<path fill="none" stroke="#63b8ff" d="M1684.33,-166.06C1681.35,-165.68 1678.38,-165.32 1675.5,-165 1462.45,-141.17 1408.01,-148.26 1194.5,-129 985.84,-110.17 737.03,-82.08 637.66,-70.63"/>
<polygon fill="#63b8ff" stroke="#63b8ff" points="638.02,-67.15 627.68,-69.48 637.22,-74.11 638.02,-67.15"/>
</g>
<!-- Node27&#45;&gt;Node17 -->
<g id="edge46" class="edge">
<title>Node27&#45;&gt;Node17</title>
<path fill="none" stroke="#63b8ff" d="M1688.69,-164.97C1668.56,-158.62 1646.54,-147.69 1634.5,-129 1616.69,-101.35 1614.21,-80.88 1634.5,-55 1651.33,-33.53 1724.52,-21.04 1772.52,-15.01"/>
<polygon fill="#63b8ff" stroke="#63b8ff" points="1773.14,-18.46 1782.65,-13.79 1772.3,-11.51 1773.14,-18.46"/>
</g>
<!-- Node27&#45;&gt;Node20 -->
<g id="edge42" class="edge">
<title>Node27&#45;&gt;Node20</title>
<path fill="none" stroke="#63b8ff" d="M1684.31,-166.24C1681.33,-165.81 1678.37,-165.4 1675.5,-165 1549.46,-147.62 1517.22,-148.57 1391.5,-129 1391.4,-128.98 1391.3,-128.97 1391.2,-128.95"/>
<polygon fill="#63b8ff" stroke="#63b8ff" points="1392.06,-125.55 1381.63,-127.38 1390.92,-132.46 1392.06,-125.55"/>
</g>
<!-- Node27&#45;&gt;Node23 -->
<g id="edge39" class="edge">
<title>Node27&#45;&gt;Node23</title>
<path fill="none" stroke="#63b8ff" d="M1684.32,-166.13C1681.34,-165.73 1678.38,-165.35 1675.5,-165 1512.55,-145.04 1468.29,-150.06 1301.81,-129.09"/>
<polygon fill="#63b8ff" stroke="#63b8ff" points="1302.08,-125.6 1291.72,-127.81 1301.19,-132.54 1302.08,-125.6"/>
</g>
<!-- Node28 -->
<g id="node28" class="node">
<title>Node28</title>
<g id="a_node28"><a xlink:title=" ">
<polygon fill="#e0e0e0" stroke="#999999" points="1715.5,-129 1643.5,-129 1643.5,-110 1715.5,-110 1715.5,-129"/>
<text text-anchor="middle" x="1679.5" y="-117" font-family="Helvetica,sans-Serif" font-size="10.00">wx/colour.h</text>
</a>
</g>
</g>
<!-- Node27&#45;&gt;Node28 -->
<g id="edge37" class="edge">
<title>Node27&#45;&gt;Node28</title>
<path fill="none" stroke="#63b8ff" d="M1723.75,-164.75C1716.03,-157.03 1704.6,-145.6 1695.28,-136.28"/>
<polygon fill="#63b8ff" stroke="#63b8ff" points="1697.64,-133.69 1688.09,-129.09 1692.69,-138.64 1697.64,-133.69"/>
</g>
<!-- Node29 -->
<g id="node29" class="node">
<title>Node29</title>
<g id="a_node29"><a xlink:title=" ">
<polygon fill="#e0e0e0" stroke="#999999" points="1771.5,-129 1733.5,-129 1733.5,-110 1771.5,-110 1771.5,-129"/>
<text text-anchor="middle" x="1752.5" y="-117" font-family="Helvetica,sans-Serif" font-size="10.00">map</text>
</a>
</g>
</g>
<!-- Node27&#45;&gt;Node29 -->
<g id="edge38" class="edge">
<title>Node27&#45;&gt;Node29</title>
<path fill="none" stroke="#63b8ff" d="M1735.8,-164.75C1738.48,-157.65 1742.35,-147.4 1745.69,-138.56"/>
<polygon fill="#63b8ff" stroke="#63b8ff" points="1749,-139.68 1749.26,-129.09 1742.45,-137.21 1749,-139.68"/>
</g>
<!-- Node30 -->
<g id="node30" class="node">
<title>Node30</title>
<g id="a_node30"><a xlink:title=" ">
<polygon fill="#e0e0e0" stroke="#999999" points="2045.5,-129 2001.5,-129 2001.5,-110 2045.5,-110 2045.5,-129"/>
<text text-anchor="middle" x="2023.5" y="-117" font-family="Helvetica,sans-Serif" font-size="10.00">string</text>
</a>
</g>
</g>
<!-- Node27&#45;&gt;Node30 -->
<g id="edge40" class="edge">
<title>Node27&#45;&gt;Node30</title>
<path fill="none" stroke="#63b8ff" d="M1780.6,-165.98C1831.98,-157.74 1915.74,-143.72 1987.5,-129 1988.77,-128.74 1990.07,-128.47 1991.38,-128.18"/>
<polygon fill="#63b8ff" stroke="#63b8ff" points="1992.47,-131.53 2001.46,-125.92 1990.94,-124.7 1992.47,-131.53"/>
</g>
<!-- Node31 -->
<g id="node31" class="node">
<title>Node31</title>
<g id="a_node31"><a xlink:title=" ">
<polygon fill="#e0e0e0" stroke="#999999" points="2121,-129 2064,-129 2064,-110 2121,-110 2121,-129"/>
<text text-anchor="middle" x="2092.5" y="-117" font-family="Helvetica,sans-Serif" font-size="10.00">ostream</text>
</a>
</g>
</g>
<!-- Node27&#45;&gt;Node31 -->
<g id="edge41" class="edge">
<title>Node27&#45;&gt;Node31</title>
<path fill="none" stroke="#63b8ff" d="M1780.7,-168.1C1841.87,-160.97 1950.79,-147.34 2053.95,-128.95"/>
<polygon fill="#63b8ff" stroke="#63b8ff" points="2054.7,-132.38 2063.92,-127.16 2053.46,-125.49 2054.7,-132.38"/>
</g>
<!-- Node32 -->
<g id="node32" class="node">
<title>Node32</title>
<g id="a_node32"><a xlink:title=" ">
<polygon fill="#e0e0e0" stroke="#999999" points="1705.5,-74 1643.5,-74 1643.5,-55 1705.5,-55 1705.5,-74"/>
<text text-anchor="middle" x="1674.5" y="-62" font-family="Helvetica,sans-Serif" font-size="10.00">wx/font.h</text>
</a>
</g>
</g>
<!-- Node27&#45;&gt;Node32 -->
<g id="edge43" class="edge">
<title>Node27&#45;&gt;Node32</title>
<path fill="none" stroke="#63b8ff" d="M1747.26,-164.91C1765.91,-152.93 1794.04,-130.37 1780.5,-110 1772.65,-98.19 1740.87,-85.79 1714.14,-77.08"/>
<polygon fill="#63b8ff" stroke="#63b8ff" points="1715.16,-73.74 1704.57,-74.05 1713.05,-80.41 1715.16,-73.74"/>
</g>
<!-- Node33 -->
<g id="node33" class="node">
<title>Node33</title>
<g id="a_node33"><a xlink:title=" ">
<polygon fill="#e0e0e0" stroke="#999999" points="2221.5,-129 2139.5,-129 2139.5,-110 2221.5,-110 2221.5,-129"/>
<text text-anchor="middle" x="2180.5" y="-117" font-family="Helvetica,sans-Serif" font-size="10.00">wx/settings.h</text>
</a>
</g>
</g>
<!-- Node27&#45;&gt;Node33 -->
<g id="edge44" class="edge">
<title>Node27&#45;&gt;Node33</title>
<path fill="none" stroke="#63b8ff" d="M1780.7,-169.01C1853.77,-162 1997.16,-147.48 2129.05,-129.13"/>
<polygon fill="#63b8ff" stroke="#63b8ff" points="2129.91,-132.54 2139.33,-127.69 2128.94,-125.61 2129.91,-132.54"/>
</g>
<!-- Node27&#45;&gt;Node34 -->
<g id="edge45" class="edge">
<title>Node27&#45;&gt;Node34</title>
<path fill="none" stroke="#63b8ff" d="M1780.67,-167.61C1826.31,-161.16 1896.32,-148.98 1954.5,-129 1972.36,-122.87 1974.54,-115.83 1992.5,-110 2082.9,-80.68 2112.44,-93.05 2209.39,-74.05"/>
<polygon fill="#63b8ff" stroke="#63b8ff" points="2210.19,-77.46 2219.3,-72.04 2208.81,-70.59 2210.19,-77.46"/>
</g>
<!-- Node35 -->
<g id="node35" class="node">
<title>Node35</title>
<g id="a_node35"><a xlink:href="FontAttribs_8h_source.html" target="_top" xlink:title=" ">
<polygon fill="white" stroke="#666666" points="1945,-129 1866,-129 1866,-110 1945,-110 1945,-129"/>
<text text-anchor="middle" x="1905.5" y="-117" font-family="Helvetica,sans-Serif" font-size="10.00">FontAttribs.h</text>
</a>
</g>
</g>
<!-- Node27&#45;&gt;Node35 -->
<g id="edge47" class="edge">
<title>Node27&#45;&gt;Node35</title>
<path fill="none" stroke="#63b8ff" d="M1760.3,-164.98C1789.47,-156.05 1835.5,-141.94 1867.9,-132.02"/>
<polygon fill="#63b8ff" stroke="#63b8ff" points="1868.95,-135.36 1877.49,-129.08 1866.9,-128.66 1868.95,-135.36"/>
</g>
<!-- Node44 -->
<g id="node41" class="node">
<title>Node44</title>
<g id="a_node41"><a xlink:href="FontVariantCache_8h.html" target="_top" xlink:title="This file implements the wxFont cache system.">
<polygon fill="white" stroke="#666666" points="1511,-129 1400,-129 1400,-110 1511,-110 1511,-129"/>
<text text-anchor="middle" x="1455.5" y="-117" font-family="Helvetica,sans-Serif" font-size="10.00">FontVariantCache.h</text>
</a>
</g>
</g>
<!-- Node27&#45;&gt;Node44 -->
<g id="edge57" class="edge">
<title>Node27&#45;&gt;Node44</title>
<path fill="none" stroke="#63b8ff" d="M1688,-164.98C1639.68,-155.74 1562.46,-140.97 1510.41,-131.01"/>
<polygon fill="#63b8ff" stroke="#63b8ff" points="1510.83,-127.52 1500.35,-129.08 1509.52,-134.4 1510.83,-127.52"/>
</g>
<!-- Node27&#45;&gt;Node48 -->
<g id="edge65" class="edge">
<title>Node27&#45;&gt;Node48</title>
<path fill="none" stroke="#63b8ff" d="M1691.6,-164.96C1664.57,-158.08 1629.17,-146.6 1601.5,-129 1581.85,-116.5 1563.98,-96.38 1552.73,-82.15"/>
<polygon fill="#63b8ff" stroke="#63b8ff" points="1555.48,-79.98 1546.63,-74.16 1549.92,-84.23 1555.48,-79.98"/>
</g>
<!-- Node35&#45;&gt;Node17 -->
<g id="edge55" class="edge">
<title>Node35&#45;&gt;Node17</title>
<path fill="none" stroke="#63b8ff" d="M1883.91,-109.97C1868.07,-102.66 1847.19,-90.67 1834.5,-74 1824.59,-60.98 1819.82,-42.84 1817.55,-29.27"/>
<polygon fill="#63b8ff" stroke="#63b8ff" points="1820.99,-28.61 1816.16,-19.17 1814.06,-29.56 1820.99,-28.61"/>
</g>
<!-- Node35&#45;&gt;Node32 -->
<g id="edge51" class="edge">
<title>Node35&#45;&gt;Node32</title>
<path fill="none" stroke="#63b8ff" d="M1868.39,-109.98C1826.59,-100.39 1758.86,-84.86 1715.52,-74.91"/>
<polygon fill="#63b8ff" stroke="#63b8ff" points="1716.13,-71.46 1705.6,-72.63 1714.56,-78.28 1716.13,-71.46"/>
</g>
<!-- Node35&#45;&gt;Node34 -->
<g id="edge54" class="edge">
<title>Node35&#45;&gt;Node34</title>
<path fill="none" stroke="#63b8ff" d="M1945.01,-112.22C1949.89,-111.46 1954.81,-110.71 1959.5,-110 2067.79,-93.71 2098.2,-95.57 2209.38,-74.04"/>
<polygon fill="#63b8ff" stroke="#63b8ff" points="2210.17,-77.46 2219.31,-72.1 2208.83,-70.59 2210.17,-77.46"/>
</g>
<!-- Node36 -->
<g id="node36" class="node">
<title>Node36</title>
<g id="a_node36"><a xlink:href="EnumWrapper_8h_source.html" target="_top" xlink:title=" ">
<polygon fill="#fff0f0" stroke="red" points="1937.5,-74 1843.5,-74 1843.5,-55 1937.5,-55 1937.5,-74"/>
<text text-anchor="middle" x="1890.5" y="-62" font-family="Helvetica,sans-Serif" font-size="10.00">EnumWrapper.h</text>
</a>
</g>
</g>
<!-- Node35&#45;&gt;Node36 -->
<g id="edge48" class="edge">
<title>Node35&#45;&gt;Node36</title>
<path fill="none" stroke="#63b8ff" d="M1903.02,-109.75C1901.04,-102.72 1898.18,-92.62 1895.69,-83.84"/>
<polygon fill="#63b8ff" stroke="#63b8ff" points="1899.02,-82.76 1892.93,-74.09 1892.29,-84.66 1899.02,-82.76"/>
</g>
<!-- Node39 -->
<g id="node37" class="node">
<title>Node39</title>
<g id="a_node37"><a xlink:href="clamp_8hpp_source.html" target="_top" xlink:title=" ">
<polygon fill="#fff0f0" stroke="red" points="2103.5,-74 2017.5,-74 2017.5,-55 2103.5,-55 2103.5,-74"/>
<text text-anchor="middle" x="2060.5" y="-62" font-family="Helvetica,sans-Serif" font-size="10.00">stx/clamp.hpp</text>
</a>
</g>
</g>
<!-- Node35&#45;&gt;Node39 -->
<g id="edge50" class="edge">
<title>Node35&#45;&gt;Node39</title>
<path fill="none" stroke="#63b8ff" d="M1930.4,-109.98C1956.2,-101.16 1996.72,-87.31 2025.68,-77.41"/>
<polygon fill="#63b8ff" stroke="#63b8ff" points="2027.07,-80.63 2035.4,-74.08 2024.81,-74.01 2027.07,-80.63"/>
</g>
<!-- Node41 -->
<g id="node38" class="node">
<title>Node41</title>
<g id="a_node38"><a xlink:title=" ">
<polygon fill="#e0e0e0" stroke="#999999" points="2201,-74 2122,-74 2122,-55 2201,-55 2201,-74"/>
<text text-anchor="middle" x="2161.5" y="-62" font-family="Helvetica,sans-Serif" font-size="10.00">wx/version.h</text>
</a>
</g>
</g>
<!-- Node35&#45;&gt;Node41 -->
<g id="edge52" class="edge">
<title>Node35&#45;&gt;Node41</title>
<path fill="none" stroke="#63b8ff" d="M1945.22,-110.28C1990.06,-100.99 2063.08,-85.88 2111.7,-75.81"/>
<polygon fill="#63b8ff" stroke="#63b8ff" points="2112.6,-79.2 2121.69,-73.74 2111.19,-72.34 2112.6,-79.2"/>
</g>
<!-- Node35&#45;&gt;Node42 -->
<g id="edge53" class="edge">
<title>Node35&#45;&gt;Node42</title>
<path fill="none" stroke="#63b8ff" d="M1881.4,-109.98C1856.62,-101.23 1817.8,-87.51 1789.81,-77.62"/>
<polygon fill="#63b8ff" stroke="#63b8ff" points="1790.63,-74.2 1780.04,-74.17 1788.3,-80.8 1790.63,-74.2"/>
</g>
<!-- Node43 -->
<g id="node40" class="node">
<title>Node43</title>
<g id="a_node40"><a xlink:title=" ">
<polygon fill="#e0e0e0" stroke="#999999" points="1999.5,-74 1955.5,-74 1955.5,-55 1999.5,-55 1999.5,-74"/>
<text text-anchor="middle" x="1977.5" y="-62" font-family="Helvetica,sans-Serif" font-size="10.00">limits</text>
</a>
</g>
</g>
<!-- Node35&#45;&gt;Node43 -->
<g id="edge56" class="edge">
<title>Node35&#45;&gt;Node43</title>
<path fill="none" stroke="#63b8ff" d="M1917.07,-109.98C1927.92,-102 1944.38,-89.88 1957.38,-80.31"/>
<polygon fill="#63b8ff" stroke="#63b8ff" points="1959.74,-82.92 1965.72,-74.17 1955.59,-77.28 1959.74,-82.92"/>
</g>
<!-- Node36&#45;&gt;Node17 -->
<g id="edge49" class="edge">
<title>Node36&#45;&gt;Node17</title>
<path fill="none" stroke="#63b8ff" d="M1878.45,-54.98C1867.04,-46.92 1849.67,-34.65 1836.07,-25.03"/>
<polygon fill="#63b8ff" stroke="#63b8ff" points="1837.96,-22.08 1827.77,-19.17 1833.92,-27.8 1837.96,-22.08"/>
</g>
<!-- Node44&#45;&gt;Node3 -->
<g id="edge58" class="edge">
<title>Node44&#45;&gt;Node3</title>
<path fill="none" stroke="#63b8ff" d="M1399.86,-110.95C1396.7,-110.6 1393.56,-110.29 1390.5,-110 1104.53,-83.36 759.24,-70.69 638.1,-66.83"/>
<polygon fill="#63b8ff" stroke="#63b8ff" points="637.85,-63.32 627.75,-66.5 637.63,-70.32 637.85,-63.32"/>
</g>
<!-- Node44&#45;&gt;Node17 -->
<g id="edge61" class="edge">
<title>Node44&#45;&gt;Node17</title>
<path fill="none" stroke="#63b8ff" d="M1456.9,-109.86C1459.65,-95.85 1467.2,-68.39 1485.5,-55 1530.37,-22.16 1694.14,-13.55 1772.78,-11.3"/>
<polygon fill="#63b8ff" stroke="#63b8ff" points="1772.94,-14.79 1782.84,-11.03 1772.75,-7.79 1772.94,-14.79"/>
</g>
<!-- Node44&#45;&gt;Node32 -->
<g id="edge60" class="edge">
<title>Node44&#45;&gt;Node32</title>
<path fill="none" stroke="#63b8ff" d="M1490.69,-109.98C1529.59,-100.57 1592.18,-85.42 1633.33,-75.46"/>
<polygon fill="#63b8ff" stroke="#63b8ff" points="1634.41,-78.8 1643.3,-73.05 1632.76,-72 1634.41,-78.8"/>
</g>
<!-- Node44&#45;&gt;Node45 -->
<g id="edge59" class="edge">
<title>Node44&#45;&gt;Node45</title>
<path fill="none" stroke="#63b8ff" d="M1406.18,-109.98C1345.51,-99.51 1243.73,-81.94 1187.97,-72.31"/>
<polygon fill="#63b8ff" stroke="#63b8ff" points="1188.24,-68.81 1177.79,-70.56 1187.05,-75.71 1188.24,-68.81"/>
</g>
<!-- Node44&#45;&gt;Node46 -->
<g id="edge62" class="edge">
<title>Node44&#45;&gt;Node46</title>
<path fill="none" stroke="#63b8ff" d="M1431.88,-109.98C1405.25,-100.38 1362.09,-84.82 1334.52,-74.88"/>
<polygon fill="#63b8ff" stroke="#63b8ff" points="1335.37,-71.47 1324.78,-71.37 1333,-78.05 1335.37,-71.47"/>
</g>
<!-- Node47 -->
<g id="node44" class="node">
<title>Node47</title>
<g id="a_node44"><a xlink:title=" ">
<polygon fill="#e0e0e0" stroke="#999999" points="1437,-74 1392,-74 1392,-55 1437,-55 1437,-74"/>
<text text-anchor="middle" x="1414.5" y="-62" font-family="Helvetica,sans-Serif" font-size="10.00">utility</text>
</a>
</g>
</g>
<!-- Node44&#45;&gt;Node47 -->
<g id="edge63" class="edge">
<title>Node44&#45;&gt;Node47</title>
<path fill="none" stroke="#63b8ff" d="M1448.73,-109.75C1442.94,-102.26 1434.44,-91.28 1427.36,-82.13"/>
<polygon fill="#63b8ff" stroke="#63b8ff" points="1430.03,-79.86 1421.14,-74.09 1424.49,-84.14 1430.03,-79.86"/>
</g>
<!-- Node44&#45;&gt;Node48 -->
<g id="edge64" class="edge">
<title>Node44&#45;&gt;Node48</title>
<path fill="none" stroke="#63b8ff" d="M1469.16,-109.98C1482.34,-101.77 1502.53,-89.18 1518.07,-79.49"/>
<polygon fill="#63b8ff" stroke="#63b8ff" points="1519.96,-82.43 1526.59,-74.17 1516.26,-76.49 1519.96,-82.43"/>
</g>
</g>
</svg>
        <g id="navigator" transform="translate(0 0)" fill="#404254">
                <rect fill="#f2f5e9" fill-opacity="0.5" stroke="#606060" stroke-width=".5" x="0" y="0" width="60" height="60"/>
                <use id="zoomplus" xlink:href="#zoomPlus" x="17" y="9" onmousedown="handleZoom(evt,'in')"/>
                <use id="zoomminus" xlink:href="#zoomMin" x="42" y="9" onmousedown="handleZoom(evt,'out')"/>
                <use id="reset" xlink:href="#resetDef" x="30" y="36" onmousedown="handleReset()"/>
                <g id="arrowUp" xlink:href="#dirArrow" transform="translate(30 24)" onmousedown="handlePan(0,-1)">
                  <use xlink:href="#rim" fill="#404040">
                        <set attributeName="fill" to="#808080" begin="arrowUp.mouseover" end="arrowUp.mouseout"/>
                  </use>
                  <path fill="none" stroke="white" stroke-width="1.5" d="M0,-3.0v7 M-2.5,-0.5L0,-3.0L2.5,-0.5"/>
                </g>
                <g id="arrowRight" xlink:href="#dirArrow" transform="rotate(90) translate(36 -43)" onmousedown="handlePan(1,0)">
                  <use xlink:href="#rim" fill="#404040">
                        <set attributeName="fill" to="#808080" begin="arrowRight.mouseover" end="arrowRight.mouseout"/>
                  </use>
                  <path fill="none" stroke="white" stroke-width="1.5" d="M0,-3.0v7 M-2.5,-0.5L0,-3.0L2.5,-0.5"/>
                </g>
                <g id="arrowDown" xlink:href="#dirArrow" transform="rotate(180) translate(-30 -48)" onmousedown="handlePan(0,1)">
                  <use xlink:href="#rim" fill="#404040">
                        <set attributeName="fill" to="#808080" begin="arrowDown.mouseover" end="arrowDown.mouseout"/>
                  </use>
                  <path fill="none" stroke="white" stroke-width="1.5" d="M0,-3.0v7 M-2.5,-0.5L0,-3.0L2.5,-0.5"/>
                </g>
                <g id="arrowLeft" xlink:href="#dirArrow" transform="rotate(270) translate(-36 17)" onmousedown="handlePan(-1,0)">
                  <use xlink:href="#rim" fill="#404040">
                        <set attributeName="fill" to="#808080" begin="arrowLeft.mouseover" end="arrowLeft.mouseout"/>
                  </use>
                  <path fill="none" stroke="white" stroke-width="1.5" d="M0,-3.0v7 M-2.5,-0.5L0,-3.0L2.5,-0.5"/>
                </g>
        </g>
        <svg viewBox="0 0 15 15" width="100%" height="30px" preserveAspectRatio="xMaxYMin meet">
         <g id="arrow_out" transform="scale(0.3 0.3)">
          <a xlink:href="DrawSidebar_8cpp__incl_org.svg" target="_base">
           <rect id="button" ry="5" rx="5" y="6" x="6" height="38" width="38"
                fill="#f2f5e9" fill-opacity="0.5" stroke="#606060" stroke-width="1.0"/>
           <path id="arrow"
             d="M 11.500037,31.436501 C 11.940474,20.09759 22.043105,11.32322 32.158766,21.979434 L 37.068811,17.246167 C 37.068811,17.246167 37.088388,32 37.088388,32 L 22.160133,31.978069 C 22.160133,31.978069 26.997745,27.140456 26.997745,27.140456 C 18.528582,18.264221 13.291696,25.230495 11.500037,31.436501 z"
             style="fill:#404040;"/>
          </a>
         </g>
        </svg>
</svg>
