<?xml version="1.0" encoding="UTF-8" standalone="no"?>
<!DOCTYPE svg PUBLIC "-//W3C//DTD SVG 1.1//EN"
 "http://www.w3.org/Graphics/SVG/1.1/DTD/svg11.dtd">
<!-- Generated by graphviz version 2.43.0 (0)
 -->
<!-- Title: src/cells/EditorCell.h Pages: 1 -->
<svg width="2090pt" height="423pt"
 viewBox="0.00 0.00 2089.50 423.00" xmlns="http://www.w3.org/2000/svg" xmlns:xlink="http://www.w3.org/1999/xlink">
<g id="graph0" class="graph" transform="scale(1 1) rotate(0) translate(4 419)">
<title>src/cells/EditorCell.h</title>
<!-- Node1 -->
<g id="node1" class="node">
<title>Node1</title>
<g id="a_node1"><a xlink:title="This file contains the definition of the class EditorCell.">
<polygon fill="#999999" stroke="#666666" points="1464,-415 1348,-415 1348,-396 1464,-396 1464,-415"/>
<text text-anchor="middle" x="1406" y="-403" font-family="Helvetica,sans-Serif" font-size="10.00">src/cells/EditorCell.h</text>
</a>
</g>
</g>
<!-- Node2 -->
<g id="node2" class="node">
<title>Node2</title>
<g id="a_node2"><a xlink:href="AutocompletePopup_8h.html" target="_top" xlink:title="The first number that is open for dynamic ID assignment.">
<polygon fill="white" stroke="#666666" points="284.5,-305 143.5,-305 143.5,-286 284.5,-286 284.5,-305"/>
<text text-anchor="middle" x="214" y="-293" font-family="Helvetica,sans-Serif" font-size="10.00">src/AutocompletePopup.h</text>
</a>
</g>
</g>
<!-- Node1&#45;&gt;Node2 -->
<g id="edge1" class="edge">
<title>Node1&#45;&gt;Node2</title>
<path fill="none" stroke="#63b8ff" d="M1337.68,-398.82C1163.46,-384.26 688.39,-343.94 293,-305 290.25,-304.73 287.46,-304.45 284.63,-304.16"/>
<polygon fill="#63b8ff" stroke="#63b8ff" points="1337.48,-402.32 1347.73,-399.66 1338.06,-395.34 1337.48,-402.32"/>
</g>
<!-- Node4 -->
<g id="node4" class="node">
<title>Node4</title>
<g id="a_node4"><a xlink:href="Worksheet_8h.html" target="_top" xlink:title="This file defines the class Worksheet.">
<polygon fill="white" stroke="#666666" points="1081.5,-250 986.5,-250 986.5,-231 1081.5,-231 1081.5,-250"/>
<text text-anchor="middle" x="1034" y="-238" font-family="Helvetica,sans-Serif" font-size="10.00">src/Worksheet.h</text>
</a>
</g>
</g>
<!-- Node1&#45;&gt;Node4 -->
<g id="edge35" class="edge">
<title>Node1&#45;&gt;Node4</title>
<path fill="none" stroke="#63b8ff" d="M1390.76,-388.55C1365.1,-362.71 1310.51,-311.98 1254,-286 1238.53,-278.89 1141.67,-260.75 1081.74,-249.95"/>
<polygon fill="#63b8ff" stroke="#63b8ff" points="1388.55,-391.29 1398.04,-396 1393.55,-386.4 1388.55,-391.29"/>
</g>
<!-- Node10 -->
<g id="node10" class="node">
<title>Node10</title>
<g id="a_node10"><a xlink:href="wxMaxima_8cpp.html" target="_top" xlink:title="This file defines the contents of the class wxMaxima that contains most of the program&#39;s logic.">
<polygon fill="white" stroke="#666666" points="1130,-19 1022,-19 1022,0 1130,0 1130,-19"/>
<text text-anchor="middle" x="1076" y="-7" font-family="Helvetica,sans-Serif" font-size="10.00">src/wxMaxima.cpp</text>
</a>
</g>
</g>
<!-- Node1&#45;&gt;Node10 -->
<g id="edge70" class="edge">
<title>Node1&#45;&gt;Node10</title>
<path fill="none" stroke="#63b8ff" d="M1428.42,-390.38C1475.22,-358.95 1579,-278.29 1579,-181 1579,-181 1579,-181 1579,-118.5 1579,-27.51 1260.37,-12.94 1130.31,-10.79"/>
<polygon fill="#63b8ff" stroke="#63b8ff" points="1426.3,-387.58 1419.86,-396 1430.14,-393.43 1426.3,-387.58"/>
</g>
<!-- Node14 -->
<g id="node14" class="node">
<title>Node14</title>
<g id="a_node14"><a xlink:href="EditorCell_8cpp.html" target="_top" xlink:title="This file defines the class EditorCell.">
<polygon fill="white" stroke="#666666" points="311.5,-74 184.5,-74 184.5,-55 311.5,-55 311.5,-74"/>
<text text-anchor="middle" x="248" y="-62" font-family="Helvetica,sans-Serif" font-size="10.00">src/cells/EditorCell.cpp</text>
</a>
</g>
</g>
<!-- Node1&#45;&gt;Node14 -->
<g id="edge36" class="edge">
<title>Node1&#45;&gt;Node14</title>
<path fill="none" stroke="#63b8ff" d="M1337.74,-402.87C1056.22,-395.73 0,-364.4 0,-296.5 0,-296.5 0,-296.5 0,-179 0,-97.91 110.98,-74.52 184.46,-67.92"/>
<polygon fill="#63b8ff" stroke="#63b8ff" points="1337.73,-406.38 1347.82,-403.13 1337.91,-399.38 1337.73,-406.38"/>
</g>
<!-- Node20 -->
<g id="node20" class="node">
<title>Node20</title>
<g id="a_node20"><a xlink:href="test__GroupCellLayout_8cpp.html" target="_top" xlink:title="Regression tests for the GroupCell &lt;&#45;&gt; EditorCell layout coupling.">
<polygon fill="white" stroke="#666666" points="1301.5,-195 1178.5,-195 1178.5,-165 1301.5,-165 1301.5,-195"/>
<text text-anchor="start" x="1186.5" y="-183" font-family="Helvetica,sans-Serif" font-size="10.00">test/unit_tests/test</text>
<text text-anchor="middle" x="1240" y="-172" font-family="Helvetica,sans-Serif" font-size="10.00">_GroupCellLayout.cpp</text>
</a>
</g>
</g>
<!-- Node1&#45;&gt;Node20 -->
<g id="edge71" class="edge">
<title>Node1&#45;&gt;Node20</title>
<path fill="none" stroke="#63b8ff" d="M1395.97,-387.04C1377.09,-354.8 1334.2,-284.35 1290,-231 1279.35,-218.14 1265.9,-204.84 1255.64,-195.18"/>
<polygon fill="#63b8ff" stroke="#63b8ff" points="1392.98,-388.87 1401.03,-395.76 1399.03,-385.35 1392.98,-388.87"/>
</g>
<!-- Node21 -->
<g id="node21" class="node">
<title>Node21</title>
<g id="a_node21"><a xlink:href="MathParser_8h.html" target="_top" xlink:title="The header file for the xml cell parser.">
<polygon fill="white" stroke="#666666" points="125.5,-305 28.5,-305 28.5,-286 125.5,-286 125.5,-305"/>
<text text-anchor="middle" x="77" y="-293" font-family="Helvetica,sans-Serif" font-size="10.00">src/MathParser.h</text>
</a>
</g>
</g>
<!-- Node1&#45;&gt;Node21 -->
<g id="edge31" class="edge">
<title>Node1&#45;&gt;Node21</title>
<path fill="none" stroke="#63b8ff" d="M1337.66,-401.12C1209.81,-394.61 925.8,-379.26 687,-360 440.81,-340.15 379.11,-335.45 134,-305 131.32,-304.67 128.57,-304.31 125.8,-303.94"/>
<polygon fill="#63b8ff" stroke="#63b8ff" points="1337.53,-404.62 1347.7,-401.63 1337.89,-397.63 1337.53,-404.62"/>
</g>
<!-- Node23 -->
<g id="node23" class="node">
<title>Node23</title>
<g id="a_node23"><a xlink:href="GroupCell_8h.html" target="_top" xlink:title="This file defines the class GroupCell that bundles input and output in the worksheet.">
<polygon fill="white" stroke="#666666" points="1082,-360 966,-360 966,-341 1082,-341 1082,-360"/>
<text text-anchor="middle" x="1024" y="-348" font-family="Helvetica,sans-Serif" font-size="10.00">src/cells/GroupCell.h</text>
</a>
</g>
</g>
<!-- Node1&#45;&gt;Node23 -->
<g id="edge37" class="edge">
<title>Node1&#45;&gt;Node23</title>
<path fill="none" stroke="#63b8ff" d="M1338,-395.07C1265.24,-384.97 1151.03,-369.12 1082.25,-359.58"/>
<polygon fill="#63b8ff" stroke="#63b8ff" points="1337.6,-398.54 1347.98,-396.45 1338.56,-391.61 1337.6,-398.54"/>
</g>
<!-- Node38 -->
<g id="node38" class="node">
<title>Node38</title>
<g id="a_node38"><a xlink:href="SumCell_8cpp.html" target="_top" xlink:title="This file defines the class SumCell.">
<polygon fill="white" stroke="#666666" points="1687,-360 1567,-360 1567,-341 1687,-341 1687,-360"/>
<text text-anchor="middle" x="1627" y="-348" font-family="Helvetica,sans-Serif" font-size="10.00">src/cells/SumCell.cpp</text>
</a>
</g>
</g>
<!-- Node1&#45;&gt;Node38 -->
<g id="edge67" class="edge">
<title>Node1&#45;&gt;Node38</title>
<path fill="none" stroke="#63b8ff" d="M1451.34,-393.63C1492.74,-383.7 1553.12,-369.22 1591.21,-360.08"/>
<polygon fill="#63b8ff" stroke="#63b8ff" points="1450.42,-390.25 1441.51,-395.98 1452.05,-397.06 1450.42,-390.25"/>
</g>
<!-- Node39 -->
<g id="node39" class="node">
<title>Node39</title>
<g id="a_node39"><a xlink:href="FindReplaceDialog_8cpp.html" target="_top" xlink:title="This file defines the class FindReplaceDialog.">
<polygon fill="white" stroke="#666666" points="1888.5,-360 1705.5,-360 1705.5,-341 1888.5,-341 1888.5,-360"/>
<text text-anchor="middle" x="1797" y="-348" font-family="Helvetica,sans-Serif" font-size="10.00">src/dialogs/FindReplaceDialog.cpp</text>
</a>
</g>
</g>
<!-- Node1&#45;&gt;Node39 -->
<g id="edge68" class="edge">
<title>Node1&#45;&gt;Node39</title>
<path fill="none" stroke="#63b8ff" d="M1474.16,-395.26C1547.4,-385.33 1662.85,-369.68 1734.03,-360.04"/>
<polygon fill="#63b8ff" stroke="#63b8ff" points="1473.55,-391.81 1464.11,-396.62 1474.49,-398.75 1473.55,-391.81"/>
</g>
<!-- Node40 -->
<g id="node40" class="node">
<title>Node40</title>
<g id="a_node40"><a xlink:href="FindReplacePane_8cpp.html" target="_top" xlink:title="This file defines the class FindReplacePane.">
<polygon fill="white" stroke="#666666" points="2081.5,-360 1906.5,-360 1906.5,-341 2081.5,-341 2081.5,-360"/>
<text text-anchor="middle" x="1994" y="-348" font-family="Helvetica,sans-Serif" font-size="10.00">src/dialogs/FindReplacePane.cpp</text>
</a>
</g>
</g>
<!-- Node1&#45;&gt;Node40 -->
<g id="edge69" class="edge">
<title>Node1&#45;&gt;Node40</title>
<path fill="none" stroke="#63b8ff" d="M1474.3,-398.34C1581.36,-388.69 1788.62,-370.01 1906.48,-359.39"/>
<polygon fill="#63b8ff" stroke="#63b8ff" points="1473.9,-394.87 1464.26,-399.25 1474.53,-401.84 1473.9,-394.87"/>
</g>
<!-- Node3 -->
<g id="node3" class="node">
<title>Node3</title>
<g id="a_node3"><a xlink:href="AutocompletePopup_8cpp.html" target="_top" xlink:title="This file defines the class AutocompletePopup.">
<polygon fill="white" stroke="#666666" points="220,-129 68,-129 68,-110 220,-110 220,-129"/>
<text text-anchor="middle" x="144" y="-117" font-family="Helvetica,sans-Serif" font-size="10.00">src/AutocompletePopup.cpp</text>
</a>
</g>
</g>
<!-- Node2&#45;&gt;Node3 -->
<g id="edge2" class="edge">
<title>Node2&#45;&gt;Node3</title>
<path fill="none" stroke="#63b8ff" d="M206.57,-276.04C191.6,-238.83 158.31,-156.07 147.48,-129.14"/>
<polygon fill="#63b8ff" stroke="#63b8ff" points="203.45,-277.66 210.43,-285.63 209.95,-275.05 203.45,-277.66"/>
</g>
<!-- Node2&#45;&gt;Node4 -->
<g id="edge3" class="edge">
<title>Node2&#45;&gt;Node4</title>
<path fill="none" stroke="#63b8ff" d="M294.59,-285.92C598.14,-262.11 677.36,-280.16 977,-250 980.09,-249.69 983.26,-249.33 986.46,-248.94"/>
<polygon fill="#63b8ff" stroke="#63b8ff" points="294.31,-282.43 284.62,-286.71 294.86,-289.41 294.31,-282.43"/>
</g>
<!-- Node5 -->
<g id="node5" class="node">
<title>Node5</title>
<g id="a_node5"><a xlink:href="Worksheet_8cpp.html" target="_top" xlink:title="This file defines the class Worksheet.">
<polygon fill="white" stroke="#666666" points="913,-74 807,-74 807,-55 913,-55 913,-74"/>
<text text-anchor="middle" x="860" y="-62" font-family="Helvetica,sans-Serif" font-size="10.00">src/Worksheet.cpp</text>
</a>
</g>
</g>
<!-- Node4&#45;&gt;Node5 -->
<g id="edge4" class="edge">
<title>Node4&#45;&gt;Node5</title>
<path fill="none" stroke="#63b8ff" d="M1017.87,-223.37C981.91,-187.41 896.14,-101.64 868.64,-74.14"/>
<polygon fill="#63b8ff" stroke="#63b8ff" points="1015.59,-226.04 1025.13,-230.63 1020.54,-221.09 1015.59,-226.04"/>
</g>
<!-- Node6 -->
<g id="node6" class="node">
<title>Node6</title>
<g id="a_node6"><a xlink:href="Cell_8cpp.html" target="_top" xlink:title="Core layout and rendering logic for worksheet cells.">
<polygon fill="white" stroke="#666666" points="1160,-189.5 1062,-189.5 1062,-170.5 1160,-170.5 1160,-189.5"/>
<text text-anchor="middle" x="1111" y="-177.5" font-family="Helvetica,sans-Serif" font-size="10.00">src/cells/Cell.cpp</text>
</a>
</g>
</g>
<!-- Node4&#45;&gt;Node6 -->
<g id="edge5" class="edge">
<title>Node4&#45;&gt;Node6</title>
<path fill="none" stroke="#63b8ff" d="M1053.69,-224.54C1068.23,-213.49 1087.52,-198.84 1099.59,-189.67"/>
<polygon fill="#63b8ff" stroke="#63b8ff" points="1051.21,-222.03 1045.36,-230.87 1055.44,-227.61 1051.21,-222.03"/>
</g>
<!-- Node7 -->
<g id="node7" class="node">
<title>Node7</title>
<g id="a_node7"><a xlink:href="GroupCell_8cpp.html" target="_top" xlink:title="This file defines the class GroupCell.">
<polygon fill="white" stroke="#666666" points="631,-189.5 503,-189.5 503,-170.5 631,-170.5 631,-189.5"/>
<text text-anchor="middle" x="567" y="-177.5" font-family="Helvetica,sans-Serif" font-size="10.00">src/cells/GroupCell.cpp</text>
</a>
</g>
</g>
<!-- Node4&#45;&gt;Node7 -->
<g id="edge6" class="edge">
<title>Node4&#45;&gt;Node7</title>
<path fill="none" stroke="#63b8ff" d="M976.36,-230.98C825.88,-212.1 785.78,-216.73 640,-195 629.66,-193.46 618.56,-191.49 608.21,-189.52"/>
<polygon fill="#63b8ff" stroke="#63b8ff" points="976.07,-234.47 986.43,-232.26 976.95,-227.53 976.07,-234.47"/>
</g>
<!-- Node8 -->
<g id="node8" class="node">
<title>Node8</title>
<g id="a_node8"><a xlink:href="ConfigDialogue_8h.html" target="_top" xlink:title="The configuration dialog.">
<polygon fill="white" stroke="#666666" points="1233.5,-74 1078.5,-74 1078.5,-55 1233.5,-55 1233.5,-74"/>
<text text-anchor="middle" x="1156" y="-62" font-family="Helvetica,sans-Serif" font-size="10.00">src/dialogs/ConfigDialogue.h</text>
</a>
</g>
</g>
<!-- Node4&#45;&gt;Node8 -->
<g id="edge7" class="edge">
<title>Node4&#45;&gt;Node8</title>
<path fill="none" stroke="#63b8ff" d="M1035.92,-220.56C1038.17,-204.82 1042.97,-182.28 1053,-165 1076.6,-124.37 1121.49,-89.5 1143.38,-74.03"/>
<polygon fill="#63b8ff" stroke="#63b8ff" points="1032.42,-220.3 1034.69,-230.65 1039.37,-221.15 1032.42,-220.3"/>
</g>
<!-- Node11 -->
<g id="node11" class="node">
<title>Node11</title>
<g id="a_node11"><a xlink:href="DiffFrame_8h_source.html" target="_top" xlink:title=" ">
<polygon fill="white" stroke="#666666" points="1060.5,-74 931.5,-74 931.5,-55 1060.5,-55 1060.5,-74"/>
<text text-anchor="middle" x="996" y="-62" font-family="Helvetica,sans-Serif" font-size="10.00">src/dialogs/DiffFrame.h</text>
</a>
</g>
</g>
<!-- Node4&#45;&gt;Node11 -->
<g id="edge10" class="edge">
<title>Node4&#45;&gt;Node11</title>
<path fill="none" stroke="#63b8ff" d="M1027.63,-221.02C1025.04,-213.08 1022.15,-203.64 1020,-195 1008.79,-149.96 1000.27,-94.92 997.22,-74.06"/>
<polygon fill="#63b8ff" stroke="#63b8ff" points="1024.39,-222.36 1030.89,-230.72 1031.03,-220.13 1024.39,-222.36"/>
</g>
<!-- Node12 -->
<g id="node12" class="node">
<title>Node12</title>
<g id="a_node12"><a xlink:href="Printout_8cpp.html" target="_top" xlink:title="This file defines the class MathPrintOut.">
<polygon fill="white" stroke="#666666" points="1474.5,-189.5 1319.5,-189.5 1319.5,-170.5 1474.5,-170.5 1474.5,-189.5"/>
<text text-anchor="middle" x="1397" y="-177.5" font-family="Helvetica,sans-Serif" font-size="10.00">src/graphical_io/Printout.cpp</text>
</a>
</g>
</g>
<!-- Node4&#45;&gt;Node12 -->
<g id="edge13" class="edge">
<title>Node4&#45;&gt;Node12</title>
<path fill="none" stroke="#63b8ff" d="M1091.73,-230.2C1161.18,-219 1276.81,-200.37 1344.06,-189.53"/>
<polygon fill="#63b8ff" stroke="#63b8ff" points="1091.14,-226.75 1081.83,-231.79 1092.26,-233.66 1091.14,-226.75"/>
</g>
<!-- Node13 -->
<g id="node13" class="node">
<title>Node13</title>
<g id="a_node13"><a xlink:href="wxMaximaFrame_8h.html" target="_top" xlink:title="This file declares the class wxMaximaFrame.">
<polygon fill="white" stroke="#666666" points="358,-189.5 230,-189.5 230,-170.5 358,-170.5 358,-189.5"/>
<text text-anchor="middle" x="294" y="-177.5" font-family="Helvetica,sans-Serif" font-size="10.00">src/wxMaximaFrame.h</text>
</a>
</g>
</g>
<!-- Node4&#45;&gt;Node13 -->
<g id="edge14" class="edge">
<title>Node4&#45;&gt;Node13</title>
<path fill="none" stroke="#63b8ff" d="M976.09,-231.13C899.33,-224.24 513.05,-196.61 358.2,-185.57"/>
<polygon fill="#63b8ff" stroke="#63b8ff" points="976.16,-234.65 986.45,-232.14 976.83,-227.68 976.16,-234.65"/>
</g>
<!-- Node4&#45;&gt;Node20 -->
<g id="edge30" class="edge">
<title>Node4&#45;&gt;Node20</title>
<path fill="none" stroke="#63b8ff" d="M1073.79,-228.2C1107.08,-218.75 1154.72,-205.22 1190.47,-195.06"/>
<polygon fill="#63b8ff" stroke="#63b8ff" points="1072.62,-224.89 1063.95,-230.99 1074.53,-231.63 1072.62,-224.89"/>
</g>
<!-- Node9 -->
<g id="node9" class="node">
<title>Node9</title>
<g id="a_node9"><a xlink:href="main_8cpp.html" target="_top" xlink:title="The file that defines the starting point of the program.">
<polygon fill="white" stroke="#666666" points="943.5,-19 864.5,-19 864.5,0 943.5,0 943.5,-19"/>
<text text-anchor="middle" x="904" y="-7" font-family="Helvetica,sans-Serif" font-size="10.00">src/main.cpp</text>
</a>
</g>
</g>
<!-- Node8&#45;&gt;Node9 -->
<g id="edge8" class="edge">
<title>Node8&#45;&gt;Node9</title>
<path fill="none" stroke="#63b8ff" d="M1105.7,-52.92C1058.02,-42.89 987.34,-28.03 943.56,-18.82"/>
<polygon fill="#63b8ff" stroke="#63b8ff" points="1105.01,-56.35 1115.51,-54.98 1106.45,-49.5 1105.01,-56.35"/>
</g>
<!-- Node8&#45;&gt;Node10 -->
<g id="edge9" class="edge">
<title>Node8&#45;&gt;Node10</title>
<path fill="none" stroke="#63b8ff" d="M1134.75,-49.42C1120.24,-39.81 1101.46,-27.37 1089.09,-19.17"/>
<polygon fill="#63b8ff" stroke="#63b8ff" points="1132.88,-52.38 1143.15,-54.98 1136.74,-46.54 1132.88,-52.38"/>
</g>
<!-- Node11&#45;&gt;Node9 -->
<g id="edge11" class="edge">
<title>Node11&#45;&gt;Node9</title>
<path fill="none" stroke="#63b8ff" d="M972.51,-49.97C955.69,-40.28 933.55,-27.52 919.05,-19.17"/>
<polygon fill="#63b8ff" stroke="#63b8ff" points="970.81,-53.03 981.22,-54.98 974.3,-46.96 970.81,-53.03"/>
</g>
<!-- Node11&#45;&gt;Node10 -->
<g id="edge12" class="edge">
<title>Node11&#45;&gt;Node10</title>
<path fill="none" stroke="#63b8ff" d="M1017.25,-49.42C1031.76,-39.81 1050.54,-27.37 1062.91,-19.17"/>
<polygon fill="#63b8ff" stroke="#63b8ff" points="1015.26,-46.54 1008.85,-54.98 1019.12,-52.38 1015.26,-46.54"/>
</g>
<!-- Node13&#45;&gt;Node3 -->
<g id="edge15" class="edge">
<title>Node13&#45;&gt;Node3</title>
<path fill="none" stroke="#63b8ff" d="M262.54,-166.73C233.55,-155.42 191.29,-138.94 165.84,-129.02"/>
<polygon fill="#63b8ff" stroke="#63b8ff" points="261.6,-170.12 272.19,-170.49 264.14,-163.6 261.6,-170.12"/>
</g>
<!-- Node13&#45;&gt;Node5 -->
<g id="edge16" class="edge">
<title>Node13&#45;&gt;Node5</title>
<path fill="none" stroke="#63b8ff" d="M368.38,-172.85C490.36,-162.5 723.05,-141.48 759,-129 795.59,-116.3 832.62,-88.27 849.92,-74.08"/>
<polygon fill="#63b8ff" stroke="#63b8ff" points="368.03,-169.37 358.36,-173.7 368.62,-176.35 368.03,-169.37"/>
</g>
<!-- Node13&#45;&gt;Node14 -->
<g id="edge17" class="edge">
<title>Node13&#45;&gt;Node14</title>
<path fill="none" stroke="#63b8ff" d="M285.81,-161.03C281.57,-151.55 276.37,-139.7 272,-129 264.06,-109.58 255.56,-86.47 251.12,-74.18"/>
<polygon fill="#63b8ff" stroke="#63b8ff" points="282.66,-162.54 289.96,-170.21 289.04,-159.66 282.66,-162.54"/>
</g>
<!-- Node15 -->
<g id="node15" class="node">
<title>Node15</title>
<g id="a_node15"><a xlink:href="main_8h.html" target="_top" xlink:title="This file declares the class wxMaxima that contains most of the program&#39;s logic.">
<polygon fill="white" stroke="#666666" points="675,-74 607,-74 607,-55 675,-55 675,-74"/>
<text text-anchor="middle" x="641" y="-62" font-family="Helvetica,sans-Serif" font-size="10.00">src/main.h</text>
</a>
</g>
</g>
<!-- Node13&#45;&gt;Node15 -->
<g id="edge18" class="edge">
<title>Node13&#45;&gt;Node15</title>
<path fill="none" stroke="#63b8ff" d="M291.42,-160.24C290.4,-144.57 291.85,-122.8 305,-110 347.31,-68.79 529.88,-64.85 606.72,-65.07"/>
<polygon fill="#63b8ff" stroke="#63b8ff" points="287.95,-160.76 292.46,-170.35 294.92,-160.04 287.95,-160.76"/>
</g>
<!-- Node17 -->
<g id="node17" class="node">
<title>Node17</title>
<g id="a_node17"><a xlink:href="GreekSidebar_8cpp.html" target="_top" xlink:title="This file defines the class GreekSidebar.">
<polygon fill="white" stroke="#666666" points="478,-129 314,-129 314,-110 478,-110 478,-129"/>
<text text-anchor="middle" x="396" y="-117" font-family="Helvetica,sans-Serif" font-size="10.00">src/sidebars/GreekSidebar.cpp</text>
</a>
</g>
</g>
<!-- Node13&#45;&gt;Node17 -->
<g id="edge22" class="edge">
<title>Node13&#45;&gt;Node17</title>
<path fill="none" stroke="#63b8ff" d="M317.94,-165.27C337.41,-154.1 364.29,-138.69 380.89,-129.17"/>
<polygon fill="#63b8ff" stroke="#63b8ff" points="315.98,-162.36 309.05,-170.37 319.47,-168.43 315.98,-162.36"/>
</g>
<!-- Node18 -->
<g id="node18" class="node">
<title>Node18</title>
<g id="a_node18"><a xlink:href="wxMaxima_8h.html" target="_top" xlink:title="This file declares the class wxMaxima that contains most of the program&#39;s logic.">
<polygon fill="white" stroke="#666666" points="750.5,-129 653.5,-129 653.5,-110 750.5,-110 750.5,-129"/>
<text text-anchor="middle" x="702" y="-117" font-family="Helvetica,sans-Serif" font-size="10.00">src/wxMaxima.h</text>
</a>
</g>
</g>
<!-- Node13&#45;&gt;Node18 -->
<g id="edge23" class="edge">
<title>Node13&#45;&gt;Node18</title>
<path fill="none" stroke="#63b8ff" d="M349.79,-168.67C357.25,-167.38 364.8,-166.12 372,-165 492.49,-146.22 523.23,-145.84 644,-129 647.02,-128.58 650.14,-128.14 653.27,-127.69"/>
<polygon fill="#63b8ff" stroke="#63b8ff" points="348.97,-165.26 339.72,-170.43 350.18,-172.15 348.97,-165.26"/>
</g>
<!-- Node19 -->
<g id="node19" class="node">
<title>Node19</title>
<g id="a_node19"><a xlink:href="wxMaximaFrame_8cpp.html" target="_top" xlink:title="This file defines the class wxMaximaFrame.">
<polygon fill="white" stroke="#666666" points="635.5,-129 496.5,-129 496.5,-110 635.5,-110 635.5,-129"/>
<text text-anchor="middle" x="566" y="-117" font-family="Helvetica,sans-Serif" font-size="10.00">src/wxMaximaFrame.cpp</text>
</a>
</g>
</g>
<!-- Node13&#45;&gt;Node19 -->
<g id="edge29" class="edge">
<title>Node13&#45;&gt;Node19</title>
<path fill="none" stroke="#63b8ff" d="M343.65,-168.32C396.18,-157.02 478.03,-139.42 526.4,-129.02"/>
<polygon fill="#63b8ff" stroke="#63b8ff" points="342.59,-164.97 333.55,-170.49 344.06,-171.81 342.59,-164.97"/>
</g>
<!-- Node15&#45;&gt;Node9 -->
<g id="edge20" class="edge">
<title>Node15&#45;&gt;Node9</title>
<path fill="none" stroke="#63b8ff" d="M685,-54.63C735.09,-44.54 816.18,-28.2 864.37,-18.49"/>
<polygon fill="#63b8ff" stroke="#63b8ff" points="684.22,-51.22 675.11,-56.63 685.61,-58.08 684.22,-51.22"/>
</g>
<!-- Node15&#45;&gt;Node10 -->
<g id="edge21" class="edge">
<title>Node15&#45;&gt;Node10</title>
<path fill="none" stroke="#63b8ff" d="M685.4,-58.09C765.69,-48.31 934.76,-27.71 1021.75,-17.11"/>
<polygon fill="#63b8ff" stroke="#63b8ff" points="684.64,-54.66 675.13,-59.34 685.48,-61.61 684.64,-54.66"/>
</g>
<!-- Node16 -->
<g id="node16" class="node">
<title>Node16</title>
<g id="a_node16"><a xlink:href="MaximaManual_8cpp.html" target="_top" xlink:title="This file defines the class MaximaManual.">
<polygon fill="white" stroke="#666666" points="706,-19 576,-19 576,0 706,0 706,-19"/>
<text text-anchor="middle" x="641" y="-7" font-family="Helvetica,sans-Serif" font-size="10.00">src/MaximaManual.cpp</text>
</a>
</g>
</g>
<!-- Node15&#45;&gt;Node16 -->
<g id="edge19" class="edge">
<title>Node15&#45;&gt;Node16</title>
<path fill="none" stroke="#63b8ff" d="M641,-44.66C641,-35.93 641,-25.99 641,-19.09"/>
<polygon fill="#63b8ff" stroke="#63b8ff" points="637.5,-44.75 641,-54.75 644.5,-44.75 637.5,-44.75"/>
</g>
<!-- Node18&#45;&gt;Node5 -->
<g id="edge24" class="edge">
<title>Node18&#45;&gt;Node5</title>
<path fill="none" stroke="#63b8ff" d="M736.88,-106.8C766.37,-96.91 807.93,-82.97 834.42,-74.08"/>
<polygon fill="#63b8ff" stroke="#63b8ff" points="735.75,-103.49 727.39,-109.98 737.98,-110.12 735.75,-103.49"/>
</g>
<!-- Node18&#45;&gt;Node9 -->
<g id="edge26" class="edge">
<title>Node18&#45;&gt;Node9</title>
<path fill="none" stroke="#63b8ff" d="M704.73,-99.49C707.77,-85.26 714.08,-66.36 727,-55 765.2,-21.43 825.07,-12.46 864.43,-10.44"/>
<polygon fill="#63b8ff" stroke="#63b8ff" points="701.23,-99.22 702.93,-109.67 708.12,-100.43 701.23,-99.22"/>
</g>
<!-- Node18&#45;&gt;Node10 -->
<g id="edge28" class="edge">
<title>Node18&#45;&gt;Node10</title>
<path fill="none" stroke="#63b8ff" d="M713.85,-101.41C725.17,-86.55 743.63,-65.74 765,-55 808.92,-32.92 945.17,-19.87 1021.96,-14.08"/>
<polygon fill="#63b8ff" stroke="#63b8ff" points="710.83,-99.62 707.77,-109.76 716.48,-103.74 710.83,-99.62"/>
</g>
<!-- Node18&#45;&gt;Node14 -->
<g id="edge25" class="edge">
<title>Node18&#45;&gt;Node14</title>
<path fill="none" stroke="#63b8ff" d="M643.26,-109.95C519.66,-94.07 387.74,-79.89 311.52,-71.97"/>
<polygon fill="#63b8ff" stroke="#63b8ff" points="642.92,-113.43 653.28,-111.24 643.81,-106.49 642.92,-113.43"/>
</g>
<!-- Node18&#45;&gt;Node15 -->
<g id="edge27" class="edge">
<title>Node18&#45;&gt;Node15</title>
<path fill="none" stroke="#63b8ff" d="M684.53,-103.32C673.66,-93.87 660.06,-82.06 650.98,-74.17"/>
<polygon fill="#63b8ff" stroke="#63b8ff" points="682.35,-106.07 692.2,-109.98 686.95,-100.78 682.35,-106.07"/>
</g>
<!-- Node21&#45;&gt;Node15 -->
<g id="edge33" class="edge">
<title>Node21&#45;&gt;Node15</title>
<path fill="none" stroke="#63b8ff" d="M67.51,-276.71C49.46,-240.12 15.63,-156.04 59,-110 77.89,-89.95 484.79,-71.85 606.75,-66.86"/>
<polygon fill="#63b8ff" stroke="#63b8ff" points="64.44,-278.39 72.11,-285.69 70.67,-275.2 64.44,-278.39"/>
</g>
<!-- Node21&#45;&gt;Node18 -->
<g id="edge34" class="edge">
<title>Node21&#45;&gt;Node18</title>
<path fill="none" stroke="#63b8ff" d="M111.44,-282.64C182.41,-258.47 350.36,-202.59 494,-165 549.37,-150.51 613.95,-137.25 656.28,-129.05"/>
<polygon fill="#63b8ff" stroke="#63b8ff" points="110.02,-279.43 101.69,-285.97 112.28,-286.05 110.02,-279.43"/>
</g>
<!-- Node22 -->
<g id="node22" class="node">
<title>Node22</title>
<g id="a_node22"><a xlink:href="MathParser_8cpp.html" target="_top" xlink:title="This file defines the class MathParser that reads wxmx data and math from Maxima.">
<polygon fill="white" stroke="#666666" points="174,-250 66,-250 66,-231 174,-231 174,-250"/>
<text text-anchor="middle" x="120" y="-238" font-family="Helvetica,sans-Serif" font-size="10.00">src/MathParser.cpp</text>
</a>
</g>
</g>
<!-- Node21&#45;&gt;Node22 -->
<g id="edge32" class="edge">
<title>Node21&#45;&gt;Node22</title>
<path fill="none" stroke="#63b8ff" d="M90.42,-277.96C97.91,-268.72 106.94,-257.6 113.03,-250.09"/>
<polygon fill="#63b8ff" stroke="#63b8ff" points="87.68,-275.78 84.1,-285.75 93.12,-280.19 87.68,-275.78"/>
</g>
<!-- Node23&#45;&gt;Node4 -->
<g id="edge55" class="edge">
<title>Node23&#45;&gt;Node4</title>
<path fill="none" stroke="#63b8ff" d="M1046.63,-334.97C1056.37,-327.35 1066.73,-317.08 1072,-305 1081.05,-284.28 1059.69,-262.03 1045.46,-250.16"/>
<polygon fill="#63b8ff" stroke="#63b8ff" points="1044.41,-332.26 1038.37,-340.96 1048.52,-337.93 1044.41,-332.26"/>
</g>
<!-- Node23&#45;&gt;Node6 -->
<g id="edge56" class="edge">
<title>Node23&#45;&gt;Node6</title>
<path fill="none" stroke="#63b8ff" d="M1092.38,-345.66C1152.6,-340.67 1233.78,-329.5 1254,-305 1265.45,-291.12 1265.22,-255.6 1245,-231 1232.03,-215.22 1180.4,-199.08 1145.15,-189.55"/>
<polygon fill="#63b8ff" stroke="#63b8ff" points="1091.85,-342.19 1082.15,-346.46 1092.4,-349.17 1091.85,-342.19"/>
</g>
<!-- Node23&#45;&gt;Node7 -->
<g id="edge58" class="edge">
<title>Node23&#45;&gt;Node7</title>
<path fill="none" stroke="#63b8ff" d="M955.57,-345.94C820.34,-338.56 530.65,-320.98 516,-305 495.82,-282.98 543.39,-256.67 547,-250 557.93,-229.82 563.48,-203 565.74,-189.52"/>
<polygon fill="#63b8ff" stroke="#63b8ff" points="955.64,-349.45 965.81,-346.49 956.02,-342.46 955.64,-349.45"/>
</g>
<!-- Node23&#45;&gt;Node20 -->
<g id="edge66" class="edge">
<title>Node23&#45;&gt;Node20</title>
<path fill="none" stroke="#63b8ff" d="M1092.48,-346.78C1157.81,-342.57 1249.49,-331.91 1272,-305 1299.1,-272.6 1268.35,-219.99 1250.69,-195.02"/>
<polygon fill="#63b8ff" stroke="#63b8ff" points="1092.01,-343.3 1082.24,-347.4 1092.44,-350.29 1092.01,-343.3"/>
</g>
<!-- Node23&#45;&gt;Node21 -->
<g id="edge41" class="edge">
<title>Node23&#45;&gt;Node21</title>
<path fill="none" stroke="#63b8ff" d="M955.41,-348.36C805.87,-345.38 439.38,-335.33 134,-305 131.31,-304.73 128.56,-304.43 125.78,-304.1"/>
<polygon fill="#63b8ff" stroke="#63b8ff" points="955.74,-351.87 965.8,-348.56 955.87,-344.87 955.74,-351.87"/>
</g>
<!-- Node24 -->
<g id="node24" class="node">
<title>Node24</title>
<g id="a_node24"><a xlink:href="EvaluationQueue_8h.html" target="_top" xlink:title="The evaluation queue.">
<polygon fill="white" stroke="#666666" points="1245,-305 1119,-305 1119,-286 1245,-286 1245,-305"/>
<text text-anchor="middle" x="1182" y="-293" font-family="Helvetica,sans-Serif" font-size="10.00">src/EvaluationQueue.h</text>
</a>
</g>
</g>
<!-- Node23&#45;&gt;Node24 -->
<g id="edge38" class="edge">
<title>Node23&#45;&gt;Node24</title>
<path fill="none" stroke="#63b8ff" d="M1058.88,-337.8C1088.37,-327.91 1129.93,-313.97 1156.42,-305.08"/>
<polygon fill="#63b8ff" stroke="#63b8ff" points="1057.75,-334.49 1049.39,-340.98 1059.98,-341.12 1057.75,-334.49"/>
</g>
<!-- Node26 -->
<g id="node26" class="node">
<title>Node26</title>
<g id="a_node26"><a xlink:href="Notification_8h.html" target="_top" xlink:title="This file defines the class Notification.">
<polygon fill="white" stroke="#666666" points="796.5,-305 697.5,-305 697.5,-286 796.5,-286 796.5,-305"/>
<text text-anchor="middle" x="747" y="-293" font-family="Helvetica,sans-Serif" font-size="10.00">src/Notification.h</text>
</a>
</g>
</g>
<!-- Node23&#45;&gt;Node26 -->
<g id="edge42" class="edge">
<title>Node23&#45;&gt;Node26</title>
<path fill="none" stroke="#63b8ff" d="M969.46,-339.07C917.53,-329.13 840.31,-314.35 791.85,-305.08"/>
<polygon fill="#63b8ff" stroke="#63b8ff" points="969.02,-342.54 979.5,-340.98 970.33,-335.67 969.02,-342.54"/>
</g>
<!-- Node28 -->
<g id="node28" class="node">
<title>Node28</title>
<g id="a_node28"><a xlink:href="ToolBar_8h.html" target="_top" xlink:title="This file declares the class ToolBar that represents wxMaxima&#39;s main tool bar.">
<polygon fill="white" stroke="#666666" points="1063,-305 985,-305 985,-286 1063,-286 1063,-305"/>
<text text-anchor="middle" x="1024" y="-293" font-family="Helvetica,sans-Serif" font-size="10.00">src/ToolBar.h</text>
</a>
</g>
</g>
<!-- Node23&#45;&gt;Node28 -->
<g id="edge45" class="edge">
<title>Node23&#45;&gt;Node28</title>
<path fill="none" stroke="#63b8ff" d="M1024,-330.66C1024,-321.93 1024,-311.99 1024,-305.09"/>
<polygon fill="#63b8ff" stroke="#63b8ff" points="1020.5,-330.75 1024,-340.75 1027.5,-330.75 1020.5,-330.75"/>
</g>
<!-- Node30 -->
<g id="node30" class="node">
<title>Node30</title>
<g id="a_node30"><a xlink:href="WXMXformat_8h_source.html" target="_top" xlink:title=" ">
<polygon fill="white" stroke="#666666" points="757,-189.5 649,-189.5 649,-170.5 757,-170.5 757,-189.5"/>
<text text-anchor="middle" x="703" y="-177.5" font-family="Helvetica,sans-Serif" font-size="10.00">src/WXMXformat.h</text>
</a>
</g>
</g>
<!-- Node23&#45;&gt;Node30 -->
<g id="edge48" class="edge">
<title>Node23&#45;&gt;Node30</title>
<path fill="none" stroke="#63b8ff" d="M955.49,-345.2C862.36,-338.64 705.33,-324.78 688,-305 658.7,-271.57 685.95,-212.16 697.96,-189.82"/>
<polygon fill="#63b8ff" stroke="#63b8ff" points="955.46,-348.7 965.68,-345.9 955.95,-341.72 955.46,-348.7"/>
</g>
<!-- Node31 -->
<g id="node31" class="node">
<title>Node31</title>
<g id="a_node31"><a xlink:href="WXMformat_8h_source.html" target="_top" xlink:title=" ">
<polygon fill="white" stroke="#666666" points="1397.5,-129 1296.5,-129 1296.5,-110 1397.5,-110 1397.5,-129"/>
<text text-anchor="middle" x="1347" y="-117" font-family="Helvetica,sans-Serif" font-size="10.00">src/WXMformat.h</text>
</a>
</g>
</g>
<!-- Node23&#45;&gt;Node31 -->
<g id="edge51" class="edge">
<title>Node23&#45;&gt;Node31</title>
<path fill="none" stroke="#63b8ff" d="M1092.26,-346.86C1216.64,-340.37 1471.9,-318.8 1521,-250 1542.02,-220.55 1512.36,-188.86 1483,-165 1458.71,-145.26 1425.38,-134.17 1397.8,-128"/>
<polygon fill="#63b8ff" stroke="#63b8ff" points="1091.9,-343.37 1082.09,-347.37 1092.25,-350.36 1091.9,-343.37"/>
</g>
<!-- Node33 -->
<g id="node33" class="node">
<title>Node33</title>
<g id="a_node33"><a xlink:href="DiffCell_8cpp.html" target="_top" xlink:title="This file defines the class DiffCell.">
<polygon fill="white" stroke="#666666" points="641,-305 525,-305 525,-286 641,-286 641,-305"/>
<text text-anchor="middle" x="583" y="-293" font-family="Helvetica,sans-Serif" font-size="10.00">src/cells/DiffCell.cpp</text>
</a>
</g>
</g>
<!-- Node23&#45;&gt;Node33 -->
<g id="edge57" class="edge">
<title>Node23&#45;&gt;Node33</title>
<path fill="none" stroke="#63b8ff" d="M955.94,-341.32C869.7,-330.96 722.52,-313.27 641.24,-303.5"/>
<polygon fill="#63b8ff" stroke="#63b8ff" points="955.55,-344.8 965.89,-342.52 956.38,-337.85 955.55,-344.8"/>
</g>
<!-- Node34 -->
<g id="node34" class="node">
<title>Node34</title>
<g id="a_node34"><a xlink:href="Printout_8h.html" target="_top" xlink:title="This file declares the class MathPrintOut.">
<polygon fill="white" stroke="#666666" points="1512.5,-250 1369.5,-250 1369.5,-231 1512.5,-231 1512.5,-250"/>
<text text-anchor="middle" x="1441" y="-238" font-family="Helvetica,sans-Serif" font-size="10.00">src/graphical_io/Printout.h</text>
</a>
</g>
</g>
<!-- Node23&#45;&gt;Node34 -->
<g id="edge59" class="edge">
<title>Node23&#45;&gt;Node34</title>
<path fill="none" stroke="#63b8ff" d="M1092.34,-346.28C1154.42,-341.75 1247.79,-330.91 1325,-305 1365.48,-291.41 1408.38,-264.05 1428.8,-250.1"/>
<polygon fill="#63b8ff" stroke="#63b8ff" points="1092.01,-342.79 1082.28,-346.98 1092.49,-349.78 1092.01,-342.79"/>
</g>
<!-- Node35 -->
<g id="node35" class="node">
<title>Node35</title>
<g id="a_node35"><a xlink:href="SVGout_8cpp.html" target="_top" xlink:title="This file defines the class Svgout that renders math as scalable vector graphics.">
<polygon fill="white" stroke="#666666" points="967,-305 815,-305 815,-286 967,-286 967,-305"/>
<text text-anchor="middle" x="891" y="-293" font-family="Helvetica,sans-Serif" font-size="10.00">src/graphical_io/SVGout.cpp</text>
</a>
</g>
</g>
<!-- Node23&#45;&gt;Node35 -->
<g id="edge62" class="edge">
<title>Node23&#45;&gt;Node35</title>
<path fill="none" stroke="#63b8ff" d="M993.03,-337.16C968.41,-327.35 934.59,-313.87 912.76,-305.17"/>
<polygon fill="#63b8ff" stroke="#63b8ff" points="992.05,-340.53 1002.63,-340.98 994.64,-334.03 992.05,-340.53"/>
</g>
<!-- Node36 -->
<g id="node36" class="node">
<title>Node36</title>
<g id="a_node36"><a xlink:href="TableOfContents_8h.html" target="_top" xlink:title="This file contains the definition of the class TableOfContents that handles the table of contents pan...">
<polygon fill="white" stroke="#666666" points="469.5,-305 302.5,-305 302.5,-286 469.5,-286 469.5,-305"/>
<text text-anchor="middle" x="386" y="-293" font-family="Helvetica,sans-Serif" font-size="10.00">src/sidebars/TableOfContents.h</text>
</a>
</g>
</g>
<!-- Node23&#45;&gt;Node36 -->
<g id="edge63" class="edge">
<title>Node23&#45;&gt;Node36</title>
<path fill="none" stroke="#63b8ff" d="M955.72,-344C853.1,-335.71 652.99,-319.44 483,-305 478.62,-304.63 474.13,-304.24 469.6,-303.85"/>
<polygon fill="#63b8ff" stroke="#63b8ff" points="955.7,-347.51 965.95,-344.83 956.26,-340.53 955.7,-347.51"/>
</g>
<!-- Node24&#45;&gt;Node4 -->
<g id="edge40" class="edge">
<title>Node24&#45;&gt;Node4</title>
<path fill="none" stroke="#63b8ff" d="M1148.63,-282.55C1121.15,-272.71 1082.83,-258.98 1058.21,-250.17"/>
<polygon fill="#63b8ff" stroke="#63b8ff" points="1147.63,-285.91 1158.22,-285.98 1149.99,-279.32 1147.63,-285.91"/>
</g>
<!-- Node25 -->
<g id="node25" class="node">
<title>Node25</title>
<g id="a_node25"><a xlink:href="EvaluationQueue_8cpp.html" target="_top" xlink:title="This file defines the class EvaluationQueue.">
<polygon fill="white" stroke="#666666" points="1236.5,-250 1099.5,-250 1099.5,-231 1236.5,-231 1236.5,-250"/>
<text text-anchor="middle" x="1168" y="-238" font-family="Helvetica,sans-Serif" font-size="10.00">src/EvaluationQueue.cpp</text>
</a>
</g>
</g>
<!-- Node24&#45;&gt;Node25 -->
<g id="edge39" class="edge">
<title>Node24&#45;&gt;Node25</title>
<path fill="none" stroke="#63b8ff" d="M1177.1,-275.95C1174.78,-267.15 1172.11,-257.06 1170.27,-250.09"/>
<polygon fill="#63b8ff" stroke="#63b8ff" points="1173.75,-276.97 1179.69,-285.75 1180.52,-275.19 1173.75,-276.97"/>
</g>
<!-- Node26&#45;&gt;Node4 -->
<g id="edge44" class="edge">
<title>Node26&#45;&gt;Node4</title>
<path fill="none" stroke="#63b8ff" d="M803.17,-284.13C856.98,-274.19 937.22,-259.37 987.53,-250.08"/>
<polygon fill="#63b8ff" stroke="#63b8ff" points="802.31,-280.73 793.11,-285.98 803.58,-287.61 802.31,-280.73"/>
</g>
<!-- Node27 -->
<g id="node27" class="node">
<title>Node27</title>
<g id="a_node27"><a xlink:href="Notification_8cpp.html" target="_top" xlink:title="This file defines the class Notification.">
<polygon fill="white" stroke="#666666" points="807,-250 697,-250 697,-231 807,-231 807,-250"/>
<text text-anchor="middle" x="752" y="-238" font-family="Helvetica,sans-Serif" font-size="10.00">src/Notification.cpp</text>
</a>
</g>
</g>
<!-- Node26&#45;&gt;Node27 -->
<g id="edge43" class="edge">
<title>Node26&#45;&gt;Node27</title>
<path fill="none" stroke="#63b8ff" d="M748.78,-275.66C749.6,-266.93 750.54,-256.99 751.19,-250.09"/>
<polygon fill="#63b8ff" stroke="#63b8ff" points="745.28,-275.46 747.83,-285.75 752.25,-276.12 745.28,-275.46"/>
</g>
<!-- Node28&#45;&gt;Node4 -->
<g id="edge47" class="edge">
<title>Node28&#45;&gt;Node4</title>
<path fill="none" stroke="#63b8ff" d="M1027.55,-275.66C1029.2,-266.93 1031.08,-256.99 1032.38,-250.09"/>
<polygon fill="#63b8ff" stroke="#63b8ff" points="1024.07,-275.27 1025.65,-285.75 1030.94,-276.57 1024.07,-275.27"/>
</g>
<!-- Node29 -->
<g id="node29" class="node">
<title>Node29</title>
<g id="a_node29"><a xlink:href="ToolBar_8cpp.html" target="_top" xlink:title="This file defines the class ToolBar that represents wxMaxima&#39;s main tool bar.">
<polygon fill="white" stroke="#666666" points="968.5,-250 879.5,-250 879.5,-231 968.5,-231 968.5,-250"/>
<text text-anchor="middle" x="924" y="-238" font-family="Helvetica,sans-Serif" font-size="10.00">src/ToolBar.cpp</text>
</a>
</g>
</g>
<!-- Node28&#45;&gt;Node29 -->
<g id="edge46" class="edge">
<title>Node28&#45;&gt;Node29</title>
<path fill="none" stroke="#63b8ff" d="M998.97,-281.23C980.63,-271.51 956.26,-258.6 940.36,-250.17"/>
<polygon fill="#63b8ff" stroke="#63b8ff" points="997.46,-284.39 1007.93,-285.98 1000.74,-278.21 997.46,-284.39"/>
</g>
<!-- Node30&#45;&gt;Node10 -->
<g id="edge49" class="edge">
<title>Node30&#45;&gt;Node10</title>
<path fill="none" stroke="#63b8ff" d="M723,-164.09C734.49,-154.86 748.64,-142.26 759,-129 781.9,-99.71 767.79,-76.67 798,-55 832.95,-29.93 951.24,-18.3 1021.76,-13.48"/>
<polygon fill="#63b8ff" stroke="#63b8ff" points="720.58,-161.54 714.85,-170.46 724.88,-167.06 720.58,-161.54"/>
</g>
<!-- Node30&#45;&gt;Node18 -->
<g id="edge50" class="edge">
<title>Node30&#45;&gt;Node18</title>
<path fill="none" stroke="#63b8ff" d="M702.68,-160.16C702.5,-149.74 702.29,-137.3 702.15,-129.17"/>
<polygon fill="#63b8ff" stroke="#63b8ff" points="699.18,-160.43 702.85,-170.37 706.18,-160.31 699.18,-160.43"/>
</g>
<!-- Node31&#45;&gt;Node5 -->
<g id="edge53" class="edge">
<title>Node31&#45;&gt;Node5</title>
<path fill="none" stroke="#63b8ff" d="M1286.28,-112.76C1203.75,-104.81 1051.56,-89.66 922,-74 919.09,-73.65 916.1,-73.28 913.09,-72.89"/>
<polygon fill="#63b8ff" stroke="#63b8ff" points="1285.95,-116.24 1296.24,-113.71 1286.62,-109.27 1285.95,-116.24"/>
</g>
<!-- Node31&#45;&gt;Node10 -->
<g id="edge54" class="edge">
<title>Node31&#45;&gt;Node10</title>
<path fill="none" stroke="#63b8ff" d="M1361.2,-101.49C1370.98,-87.61 1380.35,-68.21 1369,-55 1338.81,-19.88 1206.22,-12.15 1130.16,-10.65"/>
<polygon fill="#63b8ff" stroke="#63b8ff" points="1358.22,-99.62 1354.92,-109.69 1363.78,-103.87 1358.22,-99.62"/>
</g>
<!-- Node32 -->
<g id="node32" class="node">
<title>Node32</title>
<g id="a_node32"><a xlink:href="DiffAlgorithm_8h_source.html" target="_top" xlink:title=" ">
<polygon fill="white" stroke="#666666" points="1360,-74 1252,-74 1252,-55 1360,-55 1360,-74"/>
<text text-anchor="middle" x="1306" y="-62" font-family="Helvetica,sans-Serif" font-size="10.00">src/DiffAlgorithm.h</text>
</a>
</g>
</g>
<!-- Node31&#45;&gt;Node32 -->
<g id="edge52" class="edge">
<title>Node31&#45;&gt;Node32</title>
<path fill="none" stroke="#63b8ff" d="M1333.98,-101.67C1326.88,-92.5 1318.4,-81.52 1312.64,-74.09"/>
<polygon fill="#63b8ff" stroke="#63b8ff" points="1331.34,-103.98 1340.23,-109.75 1336.88,-99.7 1331.34,-103.98"/>
</g>
<!-- Node34&#45;&gt;Node10 -->
<g id="edge61" class="edge">
<title>Node34&#45;&gt;Node10</title>
<path fill="none" stroke="#63b8ff" d="M1461.04,-224.24C1469.53,-216.52 1478.48,-206.37 1483,-195 1487.92,-182.61 1487.71,-177.47 1483,-165 1459.96,-104.03 1443.35,-85.98 1386,-55 1342.89,-31.71 1206.8,-19.15 1130.04,-13.76"/>
<polygon fill="#63b8ff" stroke="#63b8ff" points="1458.59,-221.73 1453.21,-230.86 1463.11,-227.08 1458.59,-221.73"/>
</g>
<!-- Node34&#45;&gt;Node12 -->
<g id="edge60" class="edge">
<title>Node34&#45;&gt;Node12</title>
<path fill="none" stroke="#63b8ff" d="M1428.31,-222.63C1420.2,-211.85 1410.03,-198.32 1403.52,-189.67"/>
<polygon fill="#63b8ff" stroke="#63b8ff" points="1425.7,-224.98 1434.51,-230.87 1431.29,-220.77 1425.7,-224.98"/>
</g>
<!-- Node36&#45;&gt;Node13 -->
<g id="edge65" class="edge">
<title>Node36&#45;&gt;Node13</title>
<path fill="none" stroke="#63b8ff" d="M372.6,-277.96C352.75,-253.48 316.25,-208.46 301,-189.63"/>
<polygon fill="#63b8ff" stroke="#63b8ff" points="370.07,-280.4 379.09,-285.97 375.51,-276 370.07,-280.4"/>
</g>
<!-- Node37 -->
<g id="node37" class="node">
<title>Node37</title>
<g id="a_node37"><a xlink:href="TableOfContents_8cpp.html" target="_top" xlink:title="This file defines the class Structure.">
<polygon fill="white" stroke="#666666" points="538.5,-250 359.5,-250 359.5,-231 538.5,-231 538.5,-250"/>
<text text-anchor="middle" x="449" y="-238" font-family="Helvetica,sans-Serif" font-size="10.00">src/sidebars/TableOfContents.cpp</text>
</a>
</g>
</g>
<!-- Node36&#45;&gt;Node37 -->
<g id="edge64" class="edge">
<title>Node36&#45;&gt;Node37</title>
<path fill="none" stroke="#63b8ff" d="M404.04,-279.32C415.27,-269.87 429.32,-258.06 438.69,-250.17"/>
<polygon fill="#63b8ff" stroke="#63b8ff" points="401.52,-276.87 396.12,-285.98 406.03,-282.23 401.52,-276.87"/>
</g>
</g>
</svg>
