<?xml version="1.0" encoding="UTF-8" standalone="no"?>
<!DOCTYPE svg PUBLIC "-//W3C//DTD SVG 1.1//EN"
 "http://www.w3.org/Graphics/SVG/1.1/DTD/svg11.dtd">
<!-- Generated by graphviz version 2.43.0 (0)
 -->
<!-- Title: src/cells/EditorCell.h Pages: 1 -->
<svg width="2501pt" height="423pt"
 viewBox="0.00 0.00 2500.50 423.00" xmlns="http://www.w3.org/2000/svg" xmlns:xlink="http://www.w3.org/1999/xlink">
<g id="graph0" class="graph" transform="scale(1 1) rotate(0) translate(4 419)">
<title>src/cells/EditorCell.h</title>
<!-- Node1 -->
<g id="node1" class="node">
<title>Node1</title>
<g id="a_node1"><a xlink:title="This file contains the definition of the class EditorCell.">
<polygon fill="#999999" stroke="#666666" points="1026,-415 910,-415 910,-396 1026,-396 1026,-415"/>
<text text-anchor="middle" x="968" y="-403" font-family="Helvetica,sans-Serif" font-size="10.00">src/cells/EditorCell.h</text>
</a>
</g>
</g>
<!-- Node2 -->
<g id="node2" class="node">
<title>Node2</title>
<g id="a_node2"><a xlink:href="AutocompletePopup_8h.html" target="_top" xlink:title="The first number that is open for dynamic ID assignment.">
<polygon fill="white" stroke="#666666" points="485.5,-305 344.5,-305 344.5,-286 485.5,-286 485.5,-305"/>
<text text-anchor="middle" x="415" y="-293" font-family="Helvetica,sans-Serif" font-size="10.00">src/AutocompletePopup.h</text>
</a>
</g>
</g>
<!-- Node1&#45;&gt;Node2 -->
<g id="edge1" class="edge">
<title>Node1&#45;&gt;Node2</title>
<path fill="none" stroke="#63b8ff" d="M899.82,-405.19C813.73,-404.32 661.88,-396.95 538,-360 494.93,-347.16 449.15,-319.19 427.6,-305.05"/>
<polygon fill="#63b8ff" stroke="#63b8ff" points="899.96,-408.69 909.99,-405.27 900.01,-401.69 899.96,-408.69"/>
</g>
<!-- Node4 -->
<g id="node4" class="node">
<title>Node4</title>
<g id="a_node4"><a xlink:href="Worksheet_8h.html" target="_top" xlink:title="This file defines the class Worksheet.">
<polygon fill="white" stroke="#666666" points="1115.5,-250 1020.5,-250 1020.5,-231 1115.5,-231 1115.5,-250"/>
<text text-anchor="middle" x="1068" y="-238" font-family="Helvetica,sans-Serif" font-size="10.00">src/Worksheet.h</text>
</a>
</g>
</g>
<!-- Node1&#45;&gt;Node4 -->
<g id="edge39" class="edge">
<title>Node1&#45;&gt;Node4</title>
<path fill="none" stroke="#63b8ff" d="M973.22,-386.07C980.73,-361.65 996.21,-317.93 1019,-286 1029.28,-271.6 1044.93,-258.42 1055.76,-250.2"/>
<polygon fill="#63b8ff" stroke="#63b8ff" points="969.82,-385.24 970.34,-395.82 976.53,-387.22 969.82,-385.24"/>
</g>
<!-- Node10 -->
<g id="node10" class="node">
<title>Node10</title>
<g id="a_node10"><a xlink:href="wxMaxima_8cpp.html" target="_top" xlink:title="This file defines the contents of the class wxMaxima that contains most of the program&#39;s logic.">
<polygon fill="white" stroke="#666666" points="1268,-19 1160,-19 1160,0 1268,0 1268,-19"/>
<text text-anchor="middle" x="1214" y="-7" font-family="Helvetica,sans-Serif" font-size="10.00">src/wxMaxima.cpp</text>
</a>
</g>
</g>
<!-- Node1&#45;&gt;Node10 -->
<g id="edge80" class="edge">
<title>Node1&#45;&gt;Node10</title>
<path fill="none" stroke="#63b8ff" d="M1036.57,-405.12C1193.14,-404.85 1587.71,-394.49 1902,-305 1984.64,-281.47 2040.36,-278.41 2061,-195 2115.96,27.08 1860.72,-95.7 1636,-55 1505.15,-31.3 1349.03,-18.9 1268.32,-13.65"/>
<polygon fill="#63b8ff" stroke="#63b8ff" points="1036.15,-401.62 1026.16,-405.13 1036.16,-408.62 1036.15,-401.62"/>
</g>
<!-- Node14 -->
<g id="node14" class="node">
<title>Node14</title>
<g id="a_node14"><a xlink:href="EditorCell_8cpp.html" target="_top" xlink:title="This file defines the class EditorCell.">
<polygon fill="white" stroke="#666666" points="464.5,-74 337.5,-74 337.5,-55 464.5,-55 464.5,-74"/>
<text text-anchor="middle" x="401" y="-62" font-family="Helvetica,sans-Serif" font-size="10.00">src/cells/EditorCell.cpp</text>
</a>
</g>
</g>
<!-- Node1&#45;&gt;Node14 -->
<g id="edge40" class="edge">
<title>Node1&#45;&gt;Node14</title>
<path fill="none" stroke="#63b8ff" d="M899.84,-404.05C679.41,-401.72 0,-387.17 0,-296.5 0,-296.5 0,-296.5 0,-179 0,-109.72 224.39,-80.58 337.46,-70.29"/>
<polygon fill="#63b8ff" stroke="#63b8ff" points="899.95,-407.55 909.99,-404.16 900.02,-400.56 899.95,-407.55"/>
</g>
<!-- Node21 -->
<g id="node21" class="node">
<title>Node21</title>
<g id="a_node21"><a xlink:href="test__EditorCellInvariants_8cpp.html" target="_top" xlink:title="Hardening tests for EditorCell&#39;s text&#45;editing core.">
<polygon fill="white" stroke="#666666" points="299,-195 161,-195 161,-165 299,-165 299,-195"/>
<text text-anchor="start" x="169" y="-183" font-family="Helvetica,sans-Serif" font-size="10.00">test/unit_tests/test</text>
<text text-anchor="middle" x="230" y="-172" font-family="Helvetica,sans-Serif" font-size="10.00">_EditorCellInvariants.cpp</text>
</a>
</g>
</g>
<!-- Node1&#45;&gt;Node21 -->
<g id="edge81" class="edge">
<title>Node1&#45;&gt;Node21</title>
<path fill="none" stroke="#63b8ff" d="M899.67,-403.96C765.94,-402.14 474.53,-394.25 381,-360 311.51,-334.55 294.31,-313.32 256,-250 245.33,-232.37 237.8,-209.62 233.68,-195.17"/>
<polygon fill="#63b8ff" stroke="#63b8ff" points="899.75,-407.46 909.8,-404.09 899.84,-400.46 899.75,-407.46"/>
</g>
<!-- Node22 -->
<g id="node22" class="node">
<title>Node22</title>
<g id="a_node22"><a xlink:href="test__GroupCellLayout_8cpp.html" target="_top" xlink:title="Regression tests for the GroupCell &lt;&#45;&gt; EditorCell layout coupling.">
<polygon fill="white" stroke="#666666" points="510.5,-195 387.5,-195 387.5,-165 510.5,-165 510.5,-195"/>
<text text-anchor="start" x="395.5" y="-183" font-family="Helvetica,sans-Serif" font-size="10.00">test/unit_tests/test</text>
<text text-anchor="middle" x="449" y="-172" font-family="Helvetica,sans-Serif" font-size="10.00">_GroupCellLayout.cpp</text>
</a>
</g>
</g>
<!-- Node1&#45;&gt;Node22 -->
<g id="edge82" class="edge">
<title>Node1&#45;&gt;Node22</title>
<path fill="none" stroke="#63b8ff" d="M899.92,-405.35C749.92,-405.53 399.13,-396 335,-305 304.26,-261.38 375.28,-216.93 418.6,-195.01"/>
<polygon fill="#63b8ff" stroke="#63b8ff" points="899.95,-408.85 909.94,-405.33 899.93,-401.85 899.95,-408.85"/>
</g>
<!-- Node23 -->
<g id="node23" class="node">
<title>Node23</title>
<g id="a_node23"><a xlink:href="test__TreeUndo_8cpp.html" target="_top" xlink:title="Regression tests for the worksheet&#39;s cell&#45;tree undo/redo (the TreeUndo_* subsystem of Worksheet).">
<polygon fill="white" stroke="#666666" points="637,-195 529,-195 529,-165 637,-165 637,-195"/>
<text text-anchor="start" x="537" y="-183" font-family="Helvetica,sans-Serif" font-size="10.00">test/unit_tests/test</text>
<text text-anchor="middle" x="583" y="-172" font-family="Helvetica,sans-Serif" font-size="10.00">_TreeUndo.cpp</text>
</a>
</g>
</g>
<!-- Node1&#45;&gt;Node23 -->
<g id="edge83" class="edge">
<title>Node1&#45;&gt;Node23</title>
<path fill="none" stroke="#63b8ff" d="M899.54,-402.09C821.59,-395.9 694.5,-374.87 613,-305 580.71,-277.32 579.98,-221.41 581.63,-195.19"/>
<polygon fill="#63b8ff" stroke="#63b8ff" points="899.51,-405.6 909.74,-402.84 900.02,-398.62 899.51,-405.6"/>
</g>
<!-- Node24 -->
<g id="node24" class="node">
<title>Node24</title>
<g id="a_node24"><a xlink:href="test__WXMRoundtrip_8cpp.html" target="_top" xlink:title="Regression tests for images surviving the .wxm serialization round&#45;trip.">
<polygon fill="white" stroke="#666666" points="1849.5,-195 1734.5,-195 1734.5,-165 1849.5,-165 1849.5,-195"/>
<text text-anchor="start" x="1742.5" y="-183" font-family="Helvetica,sans-Serif" font-size="10.00">test/unit_tests/test</text>
<text text-anchor="middle" x="1792" y="-172" font-family="Helvetica,sans-Serif" font-size="10.00">_WXMRoundtrip.cpp</text>
</a>
</g>
</g>
<!-- Node1&#45;&gt;Node24 -->
<g id="edge84" class="edge">
<title>Node1&#45;&gt;Node24</title>
<path fill="none" stroke="#63b8ff" d="M1036.18,-399.87C1203.61,-387.89 1631.08,-353.37 1765,-305 1807.67,-289.59 1829.21,-289.8 1851,-250 1862.58,-228.85 1839.24,-208.33 1818.59,-195.25"/>
<polygon fill="#63b8ff" stroke="#63b8ff" points="1035.74,-396.39 1026.01,-400.59 1036.24,-403.38 1035.74,-396.39"/>
</g>
<!-- Node25 -->
<g id="node25" class="node">
<title>Node25</title>
<g id="a_node25"><a xlink:href="MathParser_8h.html" target="_top" xlink:title="The header file for the xml cell parser.">
<polygon fill="white" stroke="#666666" points="206.5,-305 109.5,-305 109.5,-286 206.5,-286 206.5,-305"/>
<text text-anchor="middle" x="158" y="-293" font-family="Helvetica,sans-Serif" font-size="10.00">src/MathParser.h</text>
</a>
</g>
</g>
<!-- Node1&#45;&gt;Node25 -->
<g id="edge35" class="edge">
<title>Node1&#45;&gt;Node25</title>
<path fill="none" stroke="#63b8ff" d="M899.7,-403.04C727.86,-398.99 286.9,-386.15 226,-360 198.1,-348.02 174.5,-319.39 163.94,-305.02"/>
<polygon fill="#63b8ff" stroke="#63b8ff" points="899.81,-406.54 909.89,-403.27 899.98,-399.54 899.81,-406.54"/>
</g>
<!-- Node27 -->
<g id="node27" class="node">
<title>Node27</title>
<g id="a_node27"><a xlink:href="GroupCell_8h.html" target="_top" xlink:title="This file defines the class GroupCell that bundles input and output in the worksheet.">
<polygon fill="white" stroke="#666666" points="1150,-360 1034,-360 1034,-341 1150,-341 1150,-360"/>
<text text-anchor="middle" x="1092" y="-348" font-family="Helvetica,sans-Serif" font-size="10.00">src/cells/GroupCell.h</text>
</a>
</g>
</g>
<!-- Node1&#45;&gt;Node27 -->
<g id="edge41" class="edge">
<title>Node1&#45;&gt;Node27</title>
<path fill="none" stroke="#63b8ff" d="M997.18,-392.03C1020.11,-382.23 1051.45,-368.83 1071.71,-360.17"/>
<polygon fill="#63b8ff" stroke="#63b8ff" points="995.74,-388.84 987.92,-395.98 998.49,-395.27 995.74,-388.84"/>
</g>
<!-- Node42 -->
<g id="node42" class="node">
<title>Node42</title>
<g id="a_node42"><a xlink:href="SumCell_8cpp.html" target="_top" xlink:title="This file defines the class SumCell.">
<polygon fill="white" stroke="#666666" points="2098,-360 1978,-360 1978,-341 2098,-341 2098,-360"/>
<text text-anchor="middle" x="2038" y="-348" font-family="Helvetica,sans-Serif" font-size="10.00">src/cells/SumCell.cpp</text>
</a>
</g>
</g>
<!-- Node1&#45;&gt;Node42 -->
<g id="edge77" class="edge">
<title>Node1&#45;&gt;Node42</title>
<path fill="none" stroke="#63b8ff" d="M1036.46,-403.09C1198.09,-399.39 1615.99,-387.73 1964,-360 1968.51,-359.64 1973.17,-359.22 1977.86,-358.76"/>
<polygon fill="#63b8ff" stroke="#63b8ff" points="1036.1,-399.59 1026.19,-403.32 1036.26,-406.59 1036.1,-399.59"/>
</g>
<!-- Node43 -->
<g id="node43" class="node">
<title>Node43</title>
<g id="a_node43"><a xlink:href="FindReplaceDialog_8cpp.html" target="_top" xlink:title="This file defines the class FindReplaceDialog.">
<polygon fill="white" stroke="#666666" points="2299.5,-360 2116.5,-360 2116.5,-341 2299.5,-341 2299.5,-360"/>
<text text-anchor="middle" x="2208" y="-348" font-family="Helvetica,sans-Serif" font-size="10.00">src/dialogs/FindReplaceDialog.cpp</text>
</a>
</g>
</g>
<!-- Node1&#45;&gt;Node43 -->
<g id="edge78" class="edge">
<title>Node1&#45;&gt;Node43</title>
<path fill="none" stroke="#63b8ff" d="M1036.33,-402.9C1213.34,-398.52 1701.28,-384.99 2107,-360 2110.07,-359.81 2113.2,-359.61 2116.35,-359.39"/>
<polygon fill="#63b8ff" stroke="#63b8ff" points="1036.04,-399.41 1026.13,-403.15 1036.21,-406.4 1036.04,-399.41"/>
</g>
<!-- Node44 -->
<g id="node44" class="node">
<title>Node44</title>
<g id="a_node44"><a xlink:href="FindReplacePane_8cpp.html" target="_top" xlink:title="This file defines the class FindReplacePane.">
<polygon fill="white" stroke="#666666" points="2492.5,-360 2317.5,-360 2317.5,-341 2492.5,-341 2492.5,-360"/>
<text text-anchor="middle" x="2405" y="-348" font-family="Helvetica,sans-Serif" font-size="10.00">src/dialogs/FindReplacePane.cpp</text>
</a>
</g>
</g>
<!-- Node1&#45;&gt;Node44 -->
<g id="edge79" class="edge">
<title>Node1&#45;&gt;Node44</title>
<path fill="none" stroke="#63b8ff" d="M1036.44,-403.56C1233.95,-400.56 1821.89,-389.62 2309,-360 2311.76,-359.83 2314.55,-359.65 2317.38,-359.46"/>
<polygon fill="#63b8ff" stroke="#63b8ff" points="1036.16,-400.06 1026.22,-403.71 1036.27,-407.06 1036.16,-400.06"/>
</g>
<!-- Node3 -->
<g id="node3" class="node">
<title>Node3</title>
<g id="a_node3"><a xlink:href="AutocompletePopup_8cpp.html" target="_top" xlink:title="This file defines the class AutocompletePopup.">
<polygon fill="white" stroke="#666666" points="373,-129 221,-129 221,-110 373,-110 373,-129"/>
<text text-anchor="middle" x="297" y="-117" font-family="Helvetica,sans-Serif" font-size="10.00">src/AutocompletePopup.cpp</text>
</a>
</g>
</g>
<!-- Node2&#45;&gt;Node3 -->
<g id="edge2" class="edge">
<title>Node2&#45;&gt;Node3</title>
<path fill="none" stroke="#63b8ff" d="M403.13,-276.99C378.21,-240.26 321.28,-156.3 302.86,-129.14"/>
<polygon fill="#63b8ff" stroke="#63b8ff" points="400.48,-279.32 408.99,-285.63 406.27,-275.39 400.48,-279.32"/>
</g>
<!-- Node2&#45;&gt;Node4 -->
<g id="edge3" class="edge">
<title>Node2&#45;&gt;Node4</title>
<path fill="none" stroke="#63b8ff" d="M495.91,-290.35C610.71,-284.03 827.32,-270.52 1011,-250 1014.08,-249.66 1017.25,-249.27 1020.45,-248.86"/>
<polygon fill="#63b8ff" stroke="#63b8ff" points="495.59,-286.86 485.8,-290.9 495.98,-293.85 495.59,-286.86"/>
</g>
<!-- Node5 -->
<g id="node5" class="node">
<title>Node5</title>
<g id="a_node5"><a xlink:href="Worksheet_8cpp.html" target="_top" xlink:title="This file defines the class Worksheet.">
<polygon fill="white" stroke="#666666" points="985,-74 879,-74 879,-55 985,-55 985,-74"/>
<text text-anchor="middle" x="932" y="-62" font-family="Helvetica,sans-Serif" font-size="10.00">src/Worksheet.cpp</text>
</a>
</g>
</g>
<!-- Node4&#45;&gt;Node5 -->
<g id="edge4" class="edge">
<title>Node4&#45;&gt;Node5</title>
<path fill="none" stroke="#63b8ff" d="M1054.68,-222.46C1026.16,-185.97 960.07,-101.41 938.76,-74.14"/>
<polygon fill="#63b8ff" stroke="#63b8ff" points="1052.15,-224.91 1061.07,-230.63 1057.67,-220.6 1052.15,-224.91"/>
</g>
<!-- Node6 -->
<g id="node6" class="node">
<title>Node6</title>
<g id="a_node6"><a xlink:href="Cell_8cpp.html" target="_top" xlink:title="Core layout and rendering logic for worksheet cells.">
<polygon fill="white" stroke="#666666" points="1358,-189.5 1260,-189.5 1260,-170.5 1358,-170.5 1358,-189.5"/>
<text text-anchor="middle" x="1309" y="-177.5" font-family="Helvetica,sans-Serif" font-size="10.00">src/cells/Cell.cpp</text>
</a>
</g>
</g>
<!-- Node4&#45;&gt;Node6 -->
<g id="edge5" class="edge">
<title>Node4&#45;&gt;Node6</title>
<path fill="none" stroke="#63b8ff" d="M1112.87,-228.61C1159.44,-217.3 1231.33,-199.85 1273.91,-189.52"/>
<polygon fill="#63b8ff" stroke="#63b8ff" points="1111.94,-225.23 1103.04,-230.99 1113.59,-232.04 1111.94,-225.23"/>
</g>
<!-- Node7 -->
<g id="node7" class="node">
<title>Node7</title>
<g id="a_node7"><a xlink:href="GroupCell_8cpp.html" target="_top" xlink:title="This file defines the class GroupCell.">
<polygon fill="white" stroke="#666666" points="1504,-189.5 1376,-189.5 1376,-170.5 1504,-170.5 1504,-189.5"/>
<text text-anchor="middle" x="1440" y="-177.5" font-family="Helvetica,sans-Serif" font-size="10.00">src/cells/GroupCell.cpp</text>
</a>
</g>
</g>
<!-- Node4&#45;&gt;Node7 -->
<g id="edge6" class="edge">
<title>Node4&#45;&gt;Node7</title>
<path fill="none" stroke="#63b8ff" d="M1125.83,-231.62C1186.14,-223.24 1283.37,-209.24 1367,-195 1376.8,-193.33 1387.3,-191.4 1397.21,-189.52"/>
<polygon fill="#63b8ff" stroke="#63b8ff" points="1125.16,-228.18 1115.74,-233.02 1126.13,-235.11 1125.16,-228.18"/>
</g>
<!-- Node8 -->
<g id="node8" class="node">
<title>Node8</title>
<g id="a_node8"><a xlink:href="ConfigDialogue_8h.html" target="_top" xlink:title="The configuration dialog.">
<polygon fill="white" stroke="#666666" points="1344.5,-74 1189.5,-74 1189.5,-55 1344.5,-55 1344.5,-74"/>
<text text-anchor="middle" x="1267" y="-62" font-family="Helvetica,sans-Serif" font-size="10.00">src/dialogs/ConfigDialogue.h</text>
</a>
</g>
</g>
<!-- Node4&#45;&gt;Node8 -->
<g id="edge7" class="edge">
<title>Node4&#45;&gt;Node8</title>
<path fill="none" stroke="#63b8ff" d="M1079.31,-221.72C1089.94,-205.8 1106.89,-182.36 1125,-165 1166.28,-125.41 1224.51,-89.78 1251.78,-74.04"/>
<polygon fill="#63b8ff" stroke="#63b8ff" points="1076.09,-220.25 1073.55,-230.54 1081.95,-224.08 1076.09,-220.25"/>
</g>
<!-- Node11 -->
<g id="node11" class="node">
<title>Node11</title>
<g id="a_node11"><a xlink:href="DiffFrame_8h_source.html" target="_top" xlink:title=" ">
<polygon fill="white" stroke="#666666" points="1132.5,-74 1003.5,-74 1003.5,-55 1132.5,-55 1132.5,-74"/>
<text text-anchor="middle" x="1068" y="-62" font-family="Helvetica,sans-Serif" font-size="10.00">src/dialogs/DiffFrame.h</text>
</a>
</g>
</g>
<!-- Node4&#45;&gt;Node11 -->
<g id="edge10" class="edge">
<title>Node4&#45;&gt;Node11</title>
<path fill="none" stroke="#63b8ff" d="M1068,-220.56C1068,-183.12 1068,-100.95 1068,-74.14"/>
<polygon fill="#63b8ff" stroke="#63b8ff" points="1064.5,-220.63 1068,-230.63 1071.5,-220.63 1064.5,-220.63"/>
</g>
<!-- Node12 -->
<g id="node12" class="node">
<title>Node12</title>
<g id="a_node12"><a xlink:href="Printout_8cpp.html" target="_top" xlink:title="This file defines the class MathPrintOut.">
<polygon fill="white" stroke="#666666" points="1677.5,-189.5 1522.5,-189.5 1522.5,-170.5 1677.5,-170.5 1677.5,-189.5"/>
<text text-anchor="middle" x="1600" y="-177.5" font-family="Helvetica,sans-Serif" font-size="10.00">src/graphical_io/Printout.cpp</text>
</a>
</g>
</g>
<!-- Node4&#45;&gt;Node12 -->
<g id="edge13" class="edge">
<title>Node4&#45;&gt;Node12</title>
<path fill="none" stroke="#63b8ff" d="M1125.74,-234.84C1210.73,-227.72 1374.42,-213.06 1513,-195 1525.14,-193.42 1538.18,-191.46 1550.39,-189.51"/>
<polygon fill="#63b8ff" stroke="#63b8ff" points="1125.2,-231.37 1115.53,-235.69 1125.78,-238.35 1125.2,-231.37"/>
</g>
<!-- Node13 -->
<g id="node13" class="node">
<title>Node13</title>
<g id="a_node13"><a xlink:href="wxMaximaFrame_8h.html" target="_top" xlink:title="This file declares the class wxMaximaFrame.">
<polygon fill="white" stroke="#666666" points="783,-189.5 655,-189.5 655,-170.5 783,-170.5 783,-189.5"/>
<text text-anchor="middle" x="719" y="-177.5" font-family="Helvetica,sans-Serif" font-size="10.00">src/wxMaximaFrame.h</text>
</a>
</g>
</g>
<!-- Node4&#45;&gt;Node13 -->
<g id="edge14" class="edge">
<title>Node4&#45;&gt;Node13</title>
<path fill="none" stroke="#63b8ff" d="M1009.99,-230.66C954.08,-222.02 867.14,-208.26 792,-195 782.34,-193.3 771.98,-191.37 762.19,-189.5"/>
<polygon fill="#63b8ff" stroke="#63b8ff" points="1009.64,-234.15 1020.06,-232.21 1010.71,-227.23 1009.64,-234.15"/>
</g>
<!-- Node20 -->
<g id="node20" class="node">
<title>Node20</title>
<g id="a_node20"><a xlink:href="test__Accessibility_8cpp.html" target="_top" xlink:title="Logic&#45;level regression tests for wxMaxima&#39;s custom wxAccessible classes.">
<polygon fill="white" stroke="#666666" points="1242,-195 1134,-195 1134,-165 1242,-165 1242,-195"/>
<text text-anchor="start" x="1142" y="-183" font-family="Helvetica,sans-Serif" font-size="10.00">test/unit_tests/test</text>
<text text-anchor="middle" x="1188" y="-172" font-family="Helvetica,sans-Serif" font-size="10.00">_Accessibility.cpp</text>
</a>
</g>
</g>
<!-- Node4&#45;&gt;Node20 -->
<g id="edge30" class="edge">
<title>Node4&#45;&gt;Node20</title>
<path fill="none" stroke="#63b8ff" d="M1094.48,-226.59C1113.56,-217.29 1139.28,-204.75 1158.92,-195.18"/>
<polygon fill="#63b8ff" stroke="#63b8ff" points="1092.9,-223.47 1085.45,-230.99 1095.97,-229.76 1092.9,-223.47"/>
</g>
<!-- Node4&#45;&gt;Node21 -->
<g id="edge31" class="edge">
<title>Node4&#45;&gt;Node21</title>
<path fill="none" stroke="#63b8ff" d="M1010.36,-231.05C728.98,-202.51 655.69,-216.02 378,-195 352.26,-193.05 324.05,-190.49 299.22,-188.09"/>
<polygon fill="#63b8ff" stroke="#63b8ff" points="1010.15,-234.54 1020.46,-232.08 1010.86,-227.58 1010.15,-234.54"/>
</g>
<!-- Node4&#45;&gt;Node22 -->
<g id="edge32" class="edge">
<title>Node4&#45;&gt;Node22</title>
<path fill="none" stroke="#63b8ff" d="M1010.26,-231.02C791.78,-207.36 733.57,-223.78 520,-195 517.01,-194.6 513.96,-194.15 510.88,-193.66"/>
<polygon fill="#63b8ff" stroke="#63b8ff" points="1010.13,-234.52 1020.45,-232.14 1010.89,-227.57 1010.13,-234.52"/>
</g>
<!-- Node4&#45;&gt;Node23 -->
<g id="edge33" class="edge">
<title>Node4&#45;&gt;Node23</title>
<path fill="none" stroke="#63b8ff" d="M1010.07,-230.96C847.44,-211.36 803.67,-220.2 646,-195 643.12,-194.54 640.18,-194.03 637.22,-193.48"/>
<polygon fill="#63b8ff" stroke="#63b8ff" points="1010.09,-234.49 1020.44,-232.23 1010.94,-227.54 1010.09,-234.49"/>
</g>
<!-- Node4&#45;&gt;Node24 -->
<g id="edge34" class="edge">
<title>Node4&#45;&gt;Node24</title>
<path fill="none" stroke="#63b8ff" d="M1126.04,-236.51C1235.78,-230.59 1481.15,-216.1 1687,-195 1702.37,-193.42 1718.95,-191.38 1734.31,-189.33"/>
<polygon fill="#63b8ff" stroke="#63b8ff" points="1125.65,-233.02 1115.85,-237.05 1126.02,-240.01 1125.65,-233.02"/>
</g>
<!-- Node9 -->
<g id="node9" class="node">
<title>Node9</title>
<g id="a_node9"><a xlink:href="main_8cpp.html" target="_top" xlink:title="The file that defines the starting point of the program.">
<polygon fill="white" stroke="#666666" points="1000.5,-19 921.5,-19 921.5,0 1000.5,0 1000.5,-19"/>
<text text-anchor="middle" x="961" y="-7" font-family="Helvetica,sans-Serif" font-size="10.00">src/main.cpp</text>
</a>
</g>
</g>
<!-- Node8&#45;&gt;Node9 -->
<g id="edge8" class="edge">
<title>Node8&#45;&gt;Node9</title>
<path fill="none" stroke="#63b8ff" d="M1207.97,-53.28C1146.99,-42.71 1053.51,-26.52 1000.78,-17.39"/>
<polygon fill="#63b8ff" stroke="#63b8ff" points="1207.39,-56.73 1217.84,-54.98 1208.58,-49.83 1207.39,-56.73"/>
</g>
<!-- Node8&#45;&gt;Node10 -->
<g id="edge9" class="edge">
<title>Node8&#45;&gt;Node10</title>
<path fill="none" stroke="#63b8ff" d="M1251.02,-47.52C1241.68,-38.18 1230.25,-26.75 1222.59,-19.09"/>
<polygon fill="#63b8ff" stroke="#63b8ff" points="1248.7,-50.15 1258.25,-54.75 1253.65,-45.2 1248.7,-50.15"/>
</g>
<!-- Node11&#45;&gt;Node9 -->
<g id="edge11" class="edge">
<title>Node11&#45;&gt;Node9</title>
<path fill="none" stroke="#63b8ff" d="M1041.76,-50.5C1022.07,-40.75 995.68,-27.68 978.5,-19.17"/>
<polygon fill="#63b8ff" stroke="#63b8ff" points="1040.29,-53.68 1050.81,-54.98 1043.4,-47.41 1040.29,-53.68"/>
</g>
<!-- Node11&#45;&gt;Node10 -->
<g id="edge12" class="edge">
<title>Node11&#45;&gt;Node10</title>
<path fill="none" stroke="#63b8ff" d="M1100.92,-51.55C1128.03,-41.71 1165.83,-27.98 1190.12,-19.17"/>
<polygon fill="#63b8ff" stroke="#63b8ff" points="1099.66,-48.28 1091.46,-54.98 1102.05,-54.86 1099.66,-48.28"/>
</g>
<!-- Node13&#45;&gt;Node3 -->
<g id="edge15" class="edge">
<title>Node13&#45;&gt;Node3</title>
<path fill="none" stroke="#63b8ff" d="M666.86,-168.59C659.86,-167.31 652.76,-166.08 646,-165 552.36,-150.07 443.94,-136.88 373.11,-128.81"/>
<polygon fill="#63b8ff" stroke="#63b8ff" points="666.53,-172.09 677,-170.48 667.81,-165.21 666.53,-172.09"/>
</g>
<!-- Node13&#45;&gt;Node5 -->
<g id="edge16" class="edge">
<title>Node13&#45;&gt;Node5</title>
<path fill="none" stroke="#63b8ff" d="M770.56,-168.34C824.14,-156.84 901.63,-138.85 912,-129 927.42,-114.36 931.01,-87.96 931.8,-74.27"/>
<polygon fill="#63b8ff" stroke="#63b8ff" points="769.58,-164.97 760.53,-170.48 771.04,-171.81 769.58,-164.97"/>
</g>
<!-- Node13&#45;&gt;Node14 -->
<g id="edge17" class="edge">
<title>Node13&#45;&gt;Node14</title>
<path fill="none" stroke="#63b8ff" d="M665.02,-168.57C658.61,-167.35 652.16,-166.14 646,-165 556.33,-148.41 520.48,-178.67 444,-129 423.23,-115.51 409.94,-88.1 404.23,-74.12"/>
<polygon fill="#63b8ff" stroke="#63b8ff" points="664.53,-172.04 675.01,-170.47 665.84,-165.16 664.53,-172.04"/>
</g>
<!-- Node15 -->
<g id="node15" class="node">
<title>Node15</title>
<g id="a_node15"><a xlink:href="main_8h.html" target="_top" xlink:title="This file declares the class wxMaxima that contains most of the program&#39;s logic.">
<polygon fill="white" stroke="#666666" points="785,-74 717,-74 717,-55 785,-55 785,-74"/>
<text text-anchor="middle" x="751" y="-62" font-family="Helvetica,sans-Serif" font-size="10.00">src/main.h</text>
</a>
</g>
</g>
<!-- Node13&#45;&gt;Node15 -->
<g id="edge18" class="edge">
<title>Node13&#45;&gt;Node15</title>
<path fill="none" stroke="#63b8ff" d="M664.75,-168.59C658.43,-167.38 652.07,-166.16 646,-165 560.5,-148.61 401.25,-176.02 458,-110 491.04,-71.57 646.74,-65.93 716.75,-65.38"/>
<polygon fill="#63b8ff" stroke="#63b8ff" points="664.13,-172.04 674.61,-170.48 665.44,-165.16 664.13,-172.04"/>
</g>
<!-- Node17 -->
<g id="node17" class="node">
<title>Node17</title>
<g id="a_node17"><a xlink:href="GreekSidebar_8cpp.html" target="_top" xlink:title="This file defines the class GreekSidebar.">
<polygon fill="white" stroke="#666666" points="631,-129 467,-129 467,-110 631,-110 631,-129"/>
<text text-anchor="middle" x="549" y="-117" font-family="Helvetica,sans-Serif" font-size="10.00">src/sidebars/GreekSidebar.cpp</text>
</a>
</g>
</g>
<!-- Node13&#45;&gt;Node17 -->
<g id="edge22" class="edge">
<title>Node13&#45;&gt;Node17</title>
<path fill="none" stroke="#63b8ff" d="M684.63,-167.17C651.75,-155.86 602.97,-139.07 573.75,-129.02"/>
<polygon fill="#63b8ff" stroke="#63b8ff" points="683.69,-170.55 694.28,-170.49 685.96,-163.93 683.69,-170.55"/>
</g>
<!-- Node18 -->
<g id="node18" class="node">
<title>Node18</title>
<g id="a_node18"><a xlink:href="wxMaxima_8h.html" target="_top" xlink:title="This file declares the class wxMaxima that contains most of the program&#39;s logic.">
<polygon fill="white" stroke="#666666" points="903.5,-129 806.5,-129 806.5,-110 903.5,-110 903.5,-129"/>
<text text-anchor="middle" x="855" y="-117" font-family="Helvetica,sans-Serif" font-size="10.00">src/wxMaxima.h</text>
</a>
</g>
</g>
<!-- Node13&#45;&gt;Node18 -->
<g id="edge23" class="edge">
<title>Node13&#45;&gt;Node18</title>
<path fill="none" stroke="#63b8ff" d="M748.22,-166.43C774.48,-155.14 812.33,-138.86 835.2,-129.02"/>
<polygon fill="#63b8ff" stroke="#63b8ff" points="746.58,-163.33 738.78,-170.49 749.34,-169.76 746.58,-163.33"/>
</g>
<!-- Node19 -->
<g id="node19" class="node">
<title>Node19</title>
<g id="a_node19"><a xlink:href="wxMaximaFrame_8cpp.html" target="_top" xlink:title="This file defines the class wxMaximaFrame.">
<polygon fill="white" stroke="#666666" points="788.5,-129 649.5,-129 649.5,-110 788.5,-110 788.5,-129"/>
<text text-anchor="middle" x="719" y="-117" font-family="Helvetica,sans-Serif" font-size="10.00">src/wxMaximaFrame.cpp</text>
</a>
</g>
</g>
<!-- Node13&#45;&gt;Node19 -->
<g id="edge29" class="edge">
<title>Node13&#45;&gt;Node19</title>
<path fill="none" stroke="#63b8ff" d="M719,-160.16C719,-149.74 719,-137.3 719,-129.17"/>
<polygon fill="#63b8ff" stroke="#63b8ff" points="715.5,-160.37 719,-170.37 722.5,-160.37 715.5,-160.37"/>
</g>
<!-- Node15&#45;&gt;Node9 -->
<g id="edge20" class="edge">
<title>Node15&#45;&gt;Node9</title>
<path fill="none" stroke="#63b8ff" d="M794.58,-52.5C833.9,-42.58 890.95,-28.18 927,-19.08"/>
<polygon fill="#63b8ff" stroke="#63b8ff" points="793.58,-49.14 784.74,-54.98 795.29,-55.93 793.58,-49.14"/>
</g>
<!-- Node15&#45;&gt;Node10 -->
<g id="edge21" class="edge">
<title>Node15&#45;&gt;Node10</title>
<path fill="none" stroke="#63b8ff" d="M795.16,-58.44C880.36,-48.69 1067.15,-27.31 1159.75,-16.71"/>
<polygon fill="#63b8ff" stroke="#63b8ff" points="794.58,-54.99 785.05,-59.6 795.38,-61.94 794.58,-54.99"/>
</g>
<!-- Node16 -->
<g id="node16" class="node">
<title>Node16</title>
<g id="a_node16"><a xlink:href="MaximaManual_8cpp.html" target="_top" xlink:title="This file defines the class MaximaManual.">
<polygon fill="white" stroke="#666666" points="816,-19 686,-19 686,0 816,0 816,-19"/>
<text text-anchor="middle" x="751" y="-7" font-family="Helvetica,sans-Serif" font-size="10.00">src/MaximaManual.cpp</text>
</a>
</g>
</g>
<!-- Node15&#45;&gt;Node16 -->
<g id="edge19" class="edge">
<title>Node15&#45;&gt;Node16</title>
<path fill="none" stroke="#63b8ff" d="M751,-44.66C751,-35.93 751,-25.99 751,-19.09"/>
<polygon fill="#63b8ff" stroke="#63b8ff" points="747.5,-44.75 751,-54.75 754.5,-44.75 747.5,-44.75"/>
</g>
<!-- Node18&#45;&gt;Node5 -->
<g id="edge24" class="edge">
<title>Node18&#45;&gt;Node5</title>
<path fill="none" stroke="#63b8ff" d="M875.85,-104.15C889.76,-94.57 907.61,-82.29 919.4,-74.17"/>
<polygon fill="#63b8ff" stroke="#63b8ff" points="873.62,-101.43 867.37,-109.98 877.59,-107.2 873.62,-101.43"/>
</g>
<!-- Node18&#45;&gt;Node9 -->
<g id="edge26" class="edge">
<title>Node18&#45;&gt;Node9</title>
<path fill="none" stroke="#63b8ff" d="M842.86,-101.5C834.77,-87.89 827.25,-68.86 837,-55 855.95,-28.06 892.82,-17.35 921.45,-13.13"/>
<polygon fill="#63b8ff" stroke="#63b8ff" points="839.96,-103.46 848.35,-109.93 845.82,-99.64 839.96,-103.46"/>
</g>
<!-- Node18&#45;&gt;Node10 -->
<g id="edge28" class="edge">
<title>Node18&#45;&gt;Node10</title>
<path fill="none" stroke="#63b8ff" d="M854.13,-99.3C854.6,-84.96 857.79,-66.01 870,-55 891.13,-35.95 1068.56,-20.77 1159.99,-14.13"/>
<polygon fill="#63b8ff" stroke="#63b8ff" points="850.63,-99.6 854.22,-109.57 857.63,-99.54 850.63,-99.6"/>
</g>
<!-- Node18&#45;&gt;Node14 -->
<g id="edge25" class="edge">
<title>Node18&#45;&gt;Node14</title>
<path fill="none" stroke="#63b8ff" d="M796.26,-109.95C672.66,-94.07 540.74,-79.89 464.52,-71.97"/>
<polygon fill="#63b8ff" stroke="#63b8ff" points="795.92,-113.43 806.28,-111.24 796.81,-106.49 795.92,-113.43"/>
</g>
<!-- Node18&#45;&gt;Node15 -->
<g id="edge27" class="edge">
<title>Node18&#45;&gt;Node15</title>
<path fill="none" stroke="#63b8ff" d="M829.23,-105.37C810.13,-95.63 784.63,-82.64 768.01,-74.17"/>
<polygon fill="#63b8ff" stroke="#63b8ff" points="827.79,-108.56 838.29,-109.98 830.97,-102.33 827.79,-108.56"/>
</g>
<!-- Node25&#45;&gt;Node15 -->
<g id="edge37" class="edge">
<title>Node25&#45;&gt;Node15</title>
<path fill="none" stroke="#63b8ff" d="M123.11,-281.5C109.29,-274.43 94.84,-264.17 87,-250 82.91,-242.61 85.76,-239.35 87,-231 91.49,-200.68 87.46,-188.61 107,-165 140.58,-124.41 161.41,-124.68 212,-110 307.47,-82.29 613.78,-69.98 716.81,-66.55"/>
<polygon fill="#63b8ff" stroke="#63b8ff" points="121.95,-284.82 132.49,-285.9 124.92,-278.48 121.95,-284.82"/>
</g>
<!-- Node25&#45;&gt;Node18 -->
<g id="edge38" class="edge">
<title>Node25&#45;&gt;Node18</title>
<path fill="none" stroke="#63b8ff" d="M127.92,-281.18C115.34,-273.91 102.04,-263.59 95,-250 73.43,-208.35 134.5,-173.61 152,-165 216.41,-133.32 725.58,-136.21 797,-129 800.04,-128.69 803.16,-128.34 806.31,-127.96"/>
<polygon fill="#63b8ff" stroke="#63b8ff" points="126.38,-284.32 136.85,-285.93 129.67,-278.14 126.38,-284.32"/>
</g>
<!-- Node26 -->
<g id="node26" class="node">
<title>Node26</title>
<g id="a_node26"><a xlink:href="MathParser_8cpp.html" target="_top" xlink:title="This file defines the class MathParser that reads wxmx data and math from Maxima.">
<polygon fill="white" stroke="#666666" points="212,-250 104,-250 104,-231 212,-231 212,-250"/>
<text text-anchor="middle" x="158" y="-238" font-family="Helvetica,sans-Serif" font-size="10.00">src/MathParser.cpp</text>
</a>
</g>
</g>
<!-- Node25&#45;&gt;Node26 -->
<g id="edge36" class="edge">
<title>Node25&#45;&gt;Node26</title>
<path fill="none" stroke="#63b8ff" d="M158,-275.66C158,-266.93 158,-256.99 158,-250.09"/>
<polygon fill="#63b8ff" stroke="#63b8ff" points="154.5,-275.75 158,-285.75 161.5,-275.75 154.5,-275.75"/>
</g>
<!-- Node27&#45;&gt;Node4 -->
<g id="edge61" class="edge">
<title>Node27&#45;&gt;Node4</title>
<path fill="none" stroke="#63b8ff" d="M1059.88,-336.52C1046.57,-329.34 1032.51,-319 1025,-305 1013.93,-284.35 1038.4,-262.08 1054.78,-250.18"/>
<polygon fill="#63b8ff" stroke="#63b8ff" points="1058.37,-339.67 1068.89,-340.98 1061.48,-333.4 1058.37,-339.67"/>
</g>
<!-- Node27&#45;&gt;Node6 -->
<g id="edge62" class="edge">
<title>Node27&#45;&gt;Node6</title>
<path fill="none" stroke="#63b8ff" d="M1160.22,-348.38C1289.46,-345.54 1559.71,-335.95 1588,-305 1600.41,-291.43 1604.41,-255.98 1580,-231 1546.45,-196.67 1414.03,-204.64 1367,-195 1359.08,-193.38 1350.61,-191.44 1342.65,-189.54"/>
<polygon fill="#63b8ff" stroke="#63b8ff" points="1159.96,-344.88 1150.03,-348.59 1160.1,-351.88 1159.96,-344.88"/>
</g>
<!-- Node27&#45;&gt;Node7 -->
<g id="edge64" class="edge">
<title>Node27&#45;&gt;Node7</title>
<path fill="none" stroke="#63b8ff" d="M1160.41,-348.62C1293.61,-346.2 1577.4,-337.27 1607,-305 1618.1,-292.9 1624.41,-259.41 1601,-231 1586.3,-213.16 1528.41,-198.29 1486.25,-189.53"/>
<polygon fill="#63b8ff" stroke="#63b8ff" points="1160.25,-345.12 1150.31,-348.8 1160.37,-352.12 1160.25,-345.12"/>
</g>
<!-- Node27&#45;&gt;Node20 -->
<g id="edge72" class="edge">
<title>Node27&#45;&gt;Node20</title>
<path fill="none" stroke="#63b8ff" d="M1160.34,-348.11C1285.69,-344.85 1542.03,-334.6 1569,-305 1582.34,-290.36 1583.41,-253.91 1559,-231 1508.75,-183.84 1318.95,-206.49 1251,-195 1248.13,-194.51 1245.19,-193.98 1242.23,-193.42"/>
<polygon fill="#63b8ff" stroke="#63b8ff" points="1160,-344.62 1150.09,-348.37 1160.17,-351.62 1160,-344.62"/>
</g>
<!-- Node27&#45;&gt;Node21 -->
<g id="edge73" class="edge">
<title>Node27&#45;&gt;Node21</title>
<path fill="none" stroke="#63b8ff" d="M1023.64,-348.54C848.96,-345.66 395.65,-335.31 335,-305 286.3,-280.66 251.35,-222.54 237.1,-195.41"/>
<polygon fill="#63b8ff" stroke="#63b8ff" points="1023.69,-352.04 1033.74,-348.7 1023.8,-345.04 1023.69,-352.04"/>
</g>
<!-- Node27&#45;&gt;Node22 -->
<g id="edge74" class="edge">
<title>Node27&#45;&gt;Node22</title>
<path fill="none" stroke="#63b8ff" d="M1023.75,-347.75C909.81,-344.06 686.13,-333.36 613,-305 548.77,-280.09 488.17,-222.26 462.24,-195.31"/>
<polygon fill="#63b8ff" stroke="#63b8ff" points="1023.65,-351.25 1033.76,-348.06 1023.87,-344.25 1023.65,-351.25"/>
</g>
<!-- Node27&#45;&gt;Node23 -->
<g id="edge75" class="edge">
<title>Node27&#45;&gt;Node23</title>
<path fill="none" stroke="#63b8ff" d="M1023.76,-346.72C903.73,-341.28 664.58,-327.71 634,-305 598.12,-278.36 587.37,-221.93 584.24,-195.38"/>
<polygon fill="#63b8ff" stroke="#63b8ff" points="1023.79,-350.23 1033.94,-347.18 1024.11,-343.23 1023.79,-350.23"/>
</g>
<!-- Node27&#45;&gt;Node24 -->
<g id="edge76" class="edge">
<title>Node27&#45;&gt;Node24</title>
<path fill="none" stroke="#63b8ff" d="M1160.51,-347.39C1298.41,-342.67 1604.99,-329.71 1707,-305 1767.58,-290.33 1801.64,-302 1836,-250 1848.45,-231.15 1828.46,-209.1 1811.53,-195.09"/>
<polygon fill="#63b8ff" stroke="#63b8ff" points="1160.36,-343.89 1150.48,-347.73 1160.6,-350.89 1160.36,-343.89"/>
</g>
<!-- Node27&#45;&gt;Node25 -->
<g id="edge45" class="edge">
<title>Node27&#45;&gt;Node25</title>
<path fill="none" stroke="#63b8ff" d="M1023.73,-346.44C882.06,-339.96 545.83,-323.87 264,-305 245.21,-303.74 224.57,-302.14 206.53,-300.66"/>
<polygon fill="#63b8ff" stroke="#63b8ff" points="1023.85,-349.95 1034,-346.91 1024.17,-342.96 1023.85,-349.95"/>
</g>
<!-- Node28 -->
<g id="node28" class="node">
<title>Node28</title>
<g id="a_node28"><a xlink:href="EvaluationQueue_8h.html" target="_top" xlink:title="The evaluation queue.">
<polygon fill="white" stroke="#666666" points="1560,-305 1434,-305 1434,-286 1560,-286 1560,-305"/>
<text text-anchor="middle" x="1497" y="-293" font-family="Helvetica,sans-Serif" font-size="10.00">src/EvaluationQueue.h</text>
</a>
</g>
</g>
<!-- Node27&#45;&gt;Node28 -->
<g id="edge42" class="edge">
<title>Node27&#45;&gt;Node28</title>
<path fill="none" stroke="#63b8ff" d="M1160.02,-340.6C1236.41,-330.6 1359.37,-314.51 1433.75,-304.78"/>
<polygon fill="#63b8ff" stroke="#63b8ff" points="1159.49,-337.14 1150.03,-341.91 1160.4,-344.08 1159.49,-337.14"/>
</g>
<!-- Node30 -->
<g id="node30" class="node">
<title>Node30</title>
<g id="a_node30"><a xlink:href="Notification_8h.html" target="_top" xlink:title="This file defines the class Notification.">
<polygon fill="white" stroke="#666666" points="939.5,-305 840.5,-305 840.5,-286 939.5,-286 939.5,-305"/>
<text text-anchor="middle" x="890" y="-293" font-family="Helvetica,sans-Serif" font-size="10.00">src/Notification.h</text>
</a>
</g>
</g>
<!-- Node27&#45;&gt;Node30 -->
<g id="edge46" class="edge">
<title>Node27&#45;&gt;Node30</title>
<path fill="none" stroke="#63b8ff" d="M1049.84,-338.44C1012.02,-328.52 957.31,-314.16 922.71,-305.08"/>
<polygon fill="#63b8ff" stroke="#63b8ff" points="1048.98,-341.83 1059.55,-340.98 1050.76,-335.06 1048.98,-341.83"/>
</g>
<!-- Node32 -->
<g id="node32" class="node">
<title>Node32</title>
<g id="a_node32"><a xlink:href="ToolBar_8h.html" target="_top" xlink:title="This file declares the class ToolBar that represents wxMaxima&#39;s main tool bar.">
<polygon fill="white" stroke="#666666" points="1416,-305 1338,-305 1338,-286 1416,-286 1416,-305"/>
<text text-anchor="middle" x="1377" y="-293" font-family="Helvetica,sans-Serif" font-size="10.00">src/ToolBar.h</text>
</a>
</g>
</g>
<!-- Node27&#45;&gt;Node32 -->
<g id="edge49" class="edge">
<title>Node27&#45;&gt;Node32</title>
<path fill="none" stroke="#63b8ff" d="M1147.89,-339.11C1203.86,-328.7 1288.53,-312.95 1337.75,-303.8"/>
<polygon fill="#63b8ff" stroke="#63b8ff" points="1146.98,-335.72 1137.79,-340.98 1148.26,-342.6 1146.98,-335.72"/>
</g>
<!-- Node34 -->
<g id="node34" class="node">
<title>Node34</title>
<g id="a_node34"><a xlink:href="WXMXformat_8h_source.html" target="_top" xlink:title=" ">
<polygon fill="white" stroke="#666666" points="909,-189.5 801,-189.5 801,-170.5 909,-170.5 909,-189.5"/>
<text text-anchor="middle" x="855" y="-177.5" font-family="Helvetica,sans-Serif" font-size="10.00">src/WXMXformat.h</text>
</a>
</g>
</g>
<!-- Node27&#45;&gt;Node34 -->
<g id="edge53" class="edge">
<title>Node27&#45;&gt;Node34</title>
<path fill="none" stroke="#63b8ff" d="M1023.68,-347.63C904.97,-343.67 670.83,-332.43 646,-305 621.73,-278.19 655.76,-251.87 685,-231 696.24,-222.98 775.29,-201.62 821.54,-189.58"/>
<polygon fill="#63b8ff" stroke="#63b8ff" points="1023.65,-351.13 1033.76,-347.96 1023.88,-344.13 1023.65,-351.13"/>
</g>
<!-- Node35 -->
<g id="node35" class="node">
<title>Node35</title>
<g id="a_node35"><a xlink:href="WXMformat_8h_source.html" target="_top" xlink:title=" ">
<polygon fill="white" stroke="#666666" points="2022.5,-250 1921.5,-250 1921.5,-231 2022.5,-231 2022.5,-250"/>
<text text-anchor="middle" x="1972" y="-238" font-family="Helvetica,sans-Serif" font-size="10.00">src/WXMformat.h</text>
</a>
</g>
</g>
<!-- Node27&#45;&gt;Node35 -->
<g id="edge56" class="edge">
<title>Node27&#45;&gt;Node35</title>
<path fill="none" stroke="#63b8ff" d="M1160.6,-349.86C1325.09,-350.04 1737.99,-346.22 1869,-305 1906.67,-293.15 1944.56,-264.46 1962.03,-250.05"/>
<polygon fill="#63b8ff" stroke="#63b8ff" points="1160.14,-346.36 1150.13,-349.84 1160.13,-353.36 1160.14,-346.36"/>
</g>
<!-- Node37 -->
<g id="node37" class="node">
<title>Node37</title>
<g id="a_node37"><a xlink:href="DiffCell_8cpp.html" target="_top" xlink:title="This file defines the class DiffCell.">
<polygon fill="white" stroke="#666666" points="1150,-305 1034,-305 1034,-286 1150,-286 1150,-305"/>
<text text-anchor="middle" x="1092" y="-293" font-family="Helvetica,sans-Serif" font-size="10.00">src/cells/DiffCell.cpp</text>
</a>
</g>
</g>
<!-- Node27&#45;&gt;Node37 -->
<g id="edge63" class="edge">
<title>Node27&#45;&gt;Node37</title>
<path fill="none" stroke="#63b8ff" d="M1092,-330.66C1092,-321.93 1092,-311.99 1092,-305.09"/>
<polygon fill="#63b8ff" stroke="#63b8ff" points="1088.5,-330.75 1092,-340.75 1095.5,-330.75 1088.5,-330.75"/>
</g>
<!-- Node38 -->
<g id="node38" class="node">
<title>Node38</title>
<g id="a_node38"><a xlink:href="Printout_8h.html" target="_top" xlink:title="This file declares the class MathPrintOut.">
<polygon fill="white" stroke="#666666" points="1826.5,-250 1683.5,-250 1683.5,-231 1826.5,-231 1826.5,-250"/>
<text text-anchor="middle" x="1755" y="-238" font-family="Helvetica,sans-Serif" font-size="10.00">src/graphical_io/Printout.h</text>
</a>
</g>
</g>
<!-- Node27&#45;&gt;Node38 -->
<g id="edge65" class="edge">
<title>Node27&#45;&gt;Node38</title>
<path fill="none" stroke="#63b8ff" d="M1160.4,-349.45C1294.25,-348.52 1585.75,-342.13 1678,-305 1707.9,-292.96 1735,-264.9 1747.58,-250.45"/>
<polygon fill="#63b8ff" stroke="#63b8ff" points="1160.25,-345.95 1150.27,-349.51 1160.29,-352.95 1160.25,-345.95"/>
</g>
<!-- Node39 -->
<g id="node39" class="node">
<title>Node39</title>
<g id="a_node39"><a xlink:href="SVGout_8cpp.html" target="_top" xlink:title="This file defines the class Svgout that renders math as scalable vector graphics.">
<polygon fill="white" stroke="#666666" points="1320,-305 1168,-305 1168,-286 1320,-286 1320,-305"/>
<text text-anchor="middle" x="1244" y="-293" font-family="Helvetica,sans-Serif" font-size="10.00">src/graphical_io/SVGout.cpp</text>
</a>
</g>
</g>
<!-- Node27&#45;&gt;Node39 -->
<g id="edge68" class="edge">
<title>Node27&#45;&gt;Node39</title>
<path fill="none" stroke="#63b8ff" d="M1125.93,-337.67C1154.27,-327.79 1194.02,-313.93 1219.39,-305.08"/>
<polygon fill="#63b8ff" stroke="#63b8ff" points="1124.71,-334.39 1116.42,-340.98 1127.02,-341 1124.71,-334.39"/>
</g>
<!-- Node40 -->
<g id="node40" class="node">
<title>Node40</title>
<g id="a_node40"><a xlink:href="TableOfContents_8h.html" target="_top" xlink:title="This file contains the definition of the class TableOfContents that handles the table of contents pan...">
<polygon fill="white" stroke="#666666" points="822.5,-305 655.5,-305 655.5,-286 822.5,-286 822.5,-305"/>
<text text-anchor="middle" x="739" y="-293" font-family="Helvetica,sans-Serif" font-size="10.00">src/sidebars/TableOfContents.h</text>
</a>
</g>
</g>
<!-- Node27&#45;&gt;Node40 -->
<g id="edge69" class="edge">
<title>Node27&#45;&gt;Node40</title>
<path fill="none" stroke="#63b8ff" d="M1025.36,-339.49C959.08,-329.54 858.49,-314.44 795.87,-305.04"/>
<polygon fill="#63b8ff" stroke="#63b8ff" points="1024.88,-342.96 1035.28,-340.98 1025.91,-336.04 1024.88,-342.96"/>
</g>
<!-- Node28&#45;&gt;Node4 -->
<g id="edge44" class="edge">
<title>Node28&#45;&gt;Node4</title>
<path fill="none" stroke="#63b8ff" d="M1423.51,-285.42C1335.39,-274.53 1190.28,-256.61 1115.63,-247.38"/>
<polygon fill="#63b8ff" stroke="#63b8ff" points="1423.35,-288.93 1433.7,-286.68 1424.2,-281.98 1423.35,-288.93"/>
</g>
<!-- Node29 -->
<g id="node29" class="node">
<title>Node29</title>
<g id="a_node29"><a xlink:href="EvaluationQueue_8cpp.html" target="_top" xlink:title="This file defines the class EvaluationQueue.">
<polygon fill="white" stroke="#666666" points="1550.5,-250 1413.5,-250 1413.5,-231 1550.5,-231 1550.5,-250"/>
<text text-anchor="middle" x="1482" y="-238" font-family="Helvetica,sans-Serif" font-size="10.00">src/EvaluationQueue.cpp</text>
</a>
</g>
</g>
<!-- Node28&#45;&gt;Node29 -->
<g id="edge43" class="edge">
<title>Node28&#45;&gt;Node29</title>
<path fill="none" stroke="#63b8ff" d="M1491.75,-275.95C1489.26,-267.15 1486.4,-257.06 1484.43,-250.09"/>
<polygon fill="#63b8ff" stroke="#63b8ff" points="1488.43,-277.08 1494.52,-285.75 1495.17,-275.17 1488.43,-277.08"/>
</g>
<!-- Node30&#45;&gt;Node4 -->
<g id="edge48" class="edge">
<title>Node30&#45;&gt;Node4</title>
<path fill="none" stroke="#63b8ff" d="M928.44,-283.06C961.7,-273.15 1009.08,-259.04 1039.18,-250.08"/>
<polygon fill="#63b8ff" stroke="#63b8ff" points="927.18,-279.78 918.6,-285.98 929.18,-286.49 927.18,-279.78"/>
</g>
<!-- Node31 -->
<g id="node31" class="node">
<title>Node31</title>
<g id="a_node31"><a xlink:href="Notification_8cpp.html" target="_top" xlink:title="This file defines the class Notification.">
<polygon fill="white" stroke="#666666" points="1002,-250 892,-250 892,-231 1002,-231 1002,-250"/>
<text text-anchor="middle" x="947" y="-238" font-family="Helvetica,sans-Serif" font-size="10.00">src/Notification.cpp</text>
</a>
</g>
</g>
<!-- Node30&#45;&gt;Node31 -->
<g id="edge47" class="edge">
<title>Node30&#45;&gt;Node31</title>
<path fill="none" stroke="#63b8ff" d="M906.62,-279.04C916.73,-269.64 929.28,-257.98 937.68,-250.17"/>
<polygon fill="#63b8ff" stroke="#63b8ff" points="904.1,-276.61 899.16,-285.98 908.86,-281.74 904.1,-276.61"/>
</g>
<!-- Node32&#45;&gt;Node4 -->
<g id="edge51" class="edge">
<title>Node32&#45;&gt;Node4</title>
<path fill="none" stroke="#63b8ff" d="M1327.69,-285.78C1247.46,-271.86 1165.83,-258.01 1115.64,-249.53"/>
<polygon fill="#63b8ff" stroke="#63b8ff" points="1327.52,-289.3 1337.97,-287.57 1328.72,-282.41 1327.52,-289.3"/>
</g>
<!-- Node32&#45;&gt;Node20 -->
<g id="edge52" class="edge">
<title>Node32&#45;&gt;Node20</title>
<path fill="none" stroke="#63b8ff" d="M1375.73,-275.72C1373.79,-261.61 1368.97,-242.76 1357,-231 1348.54,-222.69 1288.37,-206.11 1242.21,-194.33"/>
<polygon fill="#63b8ff" stroke="#63b8ff" points="1372.26,-276.19 1376.74,-285.79 1379.23,-275.49 1372.26,-276.19"/>
</g>
<!-- Node33 -->
<g id="node33" class="node">
<title>Node33</title>
<g id="a_node33"><a xlink:href="ToolBar_8cpp.html" target="_top" xlink:title="This file defines the class ToolBar that represents wxMaxima&#39;s main tool bar.">
<polygon fill="white" stroke="#666666" points="1348.5,-250 1259.5,-250 1259.5,-231 1348.5,-231 1348.5,-250"/>
<text text-anchor="middle" x="1304" y="-238" font-family="Helvetica,sans-Serif" font-size="10.00">src/ToolBar.cpp</text>
</a>
</g>
</g>
<!-- Node32&#45;&gt;Node33 -->
<g id="edge50" class="edge">
<title>Node32&#45;&gt;Node33</title>
<path fill="none" stroke="#63b8ff" d="M1356.86,-279.88C1343.72,-270.34 1327.02,-258.21 1315.94,-250.17"/>
<polygon fill="#63b8ff" stroke="#63b8ff" points="1355.12,-282.94 1365.27,-285.98 1359.24,-277.28 1355.12,-282.94"/>
</g>
<!-- Node34&#45;&gt;Node10 -->
<g id="edge54" class="edge">
<title>Node34&#45;&gt;Node10</title>
<path fill="none" stroke="#63b8ff" d="M900.75,-167.76C959.18,-152.19 1062.18,-120.59 1141,-74 1167.61,-58.27 1193.68,-32.35 1206.24,-19.01"/>
<polygon fill="#63b8ff" stroke="#63b8ff" points="899.5,-164.47 890.72,-170.39 901.28,-171.24 899.5,-164.47"/>
</g>
<!-- Node34&#45;&gt;Node18 -->
<g id="edge55" class="edge">
<title>Node34&#45;&gt;Node18</title>
<path fill="none" stroke="#63b8ff" d="M855,-160.16C855,-149.74 855,-137.3 855,-129.17"/>
<polygon fill="#63b8ff" stroke="#63b8ff" points="851.5,-160.37 855,-170.37 858.5,-160.37 851.5,-160.37"/>
</g>
<!-- Node35&#45;&gt;Node5 -->
<g id="edge58" class="edge">
<title>Node35&#45;&gt;Node5</title>
<path fill="none" stroke="#63b8ff" d="M1949.4,-225.48C1935.61,-216.83 1917.68,-205.44 1902,-195 1882.61,-182.08 1880.83,-173.14 1859,-165 1496.81,-29.91 1377.76,-120.48 994,-74 991.09,-73.65 988.1,-73.27 985.09,-72.89"/>
<polygon fill="#63b8ff" stroke="#63b8ff" points="1947.87,-228.65 1958.21,-230.97 1951.58,-222.71 1947.87,-228.65"/>
</g>
<!-- Node35&#45;&gt;Node10 -->
<g id="edge59" class="edge">
<title>Node35&#45;&gt;Node10</title>
<path fill="none" stroke="#63b8ff" d="M1959.05,-222.94C1944.87,-205.91 1920.58,-179.87 1894,-165 1683.46,-47.27 1388.72,-19.21 1268.4,-12.55"/>
<polygon fill="#63b8ff" stroke="#63b8ff" points="1956.49,-225.34 1965.51,-230.91 1961.93,-220.93 1956.49,-225.34"/>
</g>
<!-- Node35&#45;&gt;Node24 -->
<g id="edge60" class="edge">
<title>Node35&#45;&gt;Node24</title>
<path fill="none" stroke="#63b8ff" d="M1936.09,-227.83C1907.07,-218.4 1866.11,-205.09 1835.27,-195.06"/>
<polygon fill="#63b8ff" stroke="#63b8ff" points="1935.23,-231.23 1945.83,-230.99 1937.4,-224.57 1935.23,-231.23"/>
</g>
<!-- Node36 -->
<g id="node36" class="node">
<title>Node36</title>
<g id="a_node36"><a xlink:href="DiffAlgorithm_8h_source.html" target="_top" xlink:title=" ">
<polygon fill="white" stroke="#666666" points="2052,-189.5 1944,-189.5 1944,-170.5 2052,-170.5 2052,-189.5"/>
<text text-anchor="middle" x="1998" y="-177.5" font-family="Helvetica,sans-Serif" font-size="10.00">src/DiffAlgorithm.h</text>
</a>
</g>
</g>
<!-- Node35&#45;&gt;Node36 -->
<g id="edge57" class="edge">
<title>Node35&#45;&gt;Node36</title>
<path fill="none" stroke="#63b8ff" d="M1979.93,-221.65C1984.65,-211.04 1990.42,-198.06 1994.15,-189.67"/>
<polygon fill="#63b8ff" stroke="#63b8ff" points="1976.7,-220.31 1975.84,-230.87 1983.1,-223.15 1976.7,-220.31"/>
</g>
<!-- Node38&#45;&gt;Node10 -->
<g id="edge67" class="edge">
<title>Node38&#45;&gt;Node10</title>
<path fill="none" stroke="#63b8ff" d="M1743.48,-222.45C1731.28,-205.62 1710.57,-180.26 1687,-165 1551.03,-76.97 1360.5,-35.01 1268.27,-18.86"/>
<polygon fill="#63b8ff" stroke="#63b8ff" points="1740.73,-224.63 1749.34,-230.8 1746.46,-220.61 1740.73,-224.63"/>
</g>
<!-- Node38&#45;&gt;Node12 -->
<g id="edge66" class="edge">
<title>Node38&#45;&gt;Node12</title>
<path fill="none" stroke="#63b8ff" d="M1722.88,-227.38C1692.92,-216.07 1648.98,-199.49 1622.57,-189.52"/>
<polygon fill="#63b8ff" stroke="#63b8ff" points="1721.87,-230.74 1732.46,-230.99 1724.34,-224.19 1721.87,-230.74"/>
</g>
<!-- Node40&#45;&gt;Node13 -->
<g id="edge71" class="edge">
<title>Node40&#45;&gt;Node13</title>
<path fill="none" stroke="#63b8ff" d="M713.61,-280.56C702.66,-273.08 691.01,-262.74 685,-250 674.74,-228.26 695.72,-202.98 709.08,-189.88"/>
<polygon fill="#63b8ff" stroke="#63b8ff" points="711.79,-283.56 722.11,-285.95 715.54,-277.64 711.79,-283.56"/>
</g>
<!-- Node41 -->
<g id="node41" class="node">
<title>Node41</title>
<g id="a_node41"><a xlink:href="TableOfContents_8cpp.html" target="_top" xlink:title="This file defines the class Structure.">
<polygon fill="white" stroke="#666666" points="873.5,-250 694.5,-250 694.5,-231 873.5,-231 873.5,-250"/>
<text text-anchor="middle" x="784" y="-238" font-family="Helvetica,sans-Serif" font-size="10.00">src/sidebars/TableOfContents.cpp</text>
</a>
</g>
</g>
<!-- Node40&#45;&gt;Node41 -->
<g id="edge70" class="edge">
<title>Node40&#45;&gt;Node41</title>
<path fill="none" stroke="#63b8ff" d="M753.05,-277.96C760.89,-268.72 770.33,-257.6 776.71,-250.09"/>
<polygon fill="#63b8ff" stroke="#63b8ff" points="750.24,-275.86 746.43,-285.75 755.57,-280.39 750.24,-275.86"/>
</g>
</g>
</svg>
