<?xml version="1.0" encoding="UTF-8" standalone="no"?>
<!DOCTYPE svg PUBLIC "-//W3C//DTD SVG 1.1//EN"
 "http://www.w3.org/Graphics/SVG/1.1/DTD/svg11.dtd">
<!-- Generated by graphviz version 2.43.0 (0)
 -->
<!-- Title: src/graphical_io/EMFout.cpp Pages: 1 -->
<svg width="2208pt" height="420pt"
 viewBox="0.00 0.00 2208.00 420.00" xmlns="http://www.w3.org/2000/svg" xmlns:xlink="http://www.w3.org/1999/xlink">
<g id="graph0" class="graph" transform="scale(1 1) rotate(0) translate(4 416)">
<title>src/graphical_io/EMFout.cpp</title>
<polygon fill="white" stroke="transparent" points="-4,4 -4,-416 2204,-416 2204,4 -4,4"/>
<!-- Node1 -->
<g id="node1" class="node">
<title>Node1</title>
<g id="a_node1"><a xlink:title="This file defines the class Emfout that renders math as scalable emf graphics.">
<polygon fill="#bfbfbf" stroke="black" points="380,-392.5 380,-411.5 532,-411.5 532,-392.5 380,-392.5"/>
<text text-anchor="middle" x="456" y="-399.5" font-family="Helvetica,sans-Serif" font-size="10.00">src/graphical_io/EMFout.cpp</text>
</a>
</g>
</g>
<!-- Node2 -->
<g id="node2" class="node">
<title>Node2</title>
<g id="a_node2"><a xlink:href="EMFout_8h_source.html" target="_top" xlink:title=" ">
<polygon fill="white" stroke="black" points="396,-336.5 396,-355.5 458,-355.5 458,-336.5 396,-336.5"/>
<text text-anchor="middle" x="427" y="-343.5" font-family="Helvetica,sans-Serif" font-size="10.00">EMFout.h</text>
</a>
</g>
</g>
<!-- Node1&#45;&gt;Node2 -->
<g id="edge1" class="edge">
<title>Node1&#45;&gt;Node2</title>
<path fill="none" stroke="midnightblue" d="M451.21,-392.08C447.24,-384.69 441.47,-373.95 436.57,-364.81"/>
<polygon fill="midnightblue" stroke="midnightblue" points="439.51,-362.91 431.7,-355.75 433.35,-366.22 439.51,-362.91"/>
</g>
<!-- Node41 -->
<g id="node40" class="node">
<title>Node41</title>
<g id="a_node40"><a xlink:href="Cell_8h.html" target="_top" xlink:title="The definition of the base class of all cells the worksheet consists of.">
<polygon fill="white" stroke="black" points="1551,-280.5 1551,-299.5 1595,-299.5 1595,-280.5 1551,-280.5"/>
<text text-anchor="middle" x="1573" y="-287.5" font-family="Helvetica,sans-Serif" font-size="10.00">Cell.h</text>
</a>
</g>
</g>
<!-- Node1&#45;&gt;Node41 -->
<g id="edge56" class="edge">
<title>Node1&#45;&gt;Node41</title>
<path fill="none" stroke="midnightblue" d="M532.34,-393.48C753.82,-371.67 1390.39,-308.98 1540.85,-294.17"/>
<polygon fill="midnightblue" stroke="midnightblue" points="1541.22,-297.65 1550.83,-293.18 1540.54,-290.68 1541.22,-297.65"/>
</g>
<!-- Node3 -->
<g id="node3" class="node">
<title>Node3</title>
<g id="a_node3"><a xlink:href="precomp_8h_source.html" target="_top" xlink:title=" ">
<polygon fill="white" stroke="black" points="178,-56.5 178,-75.5 246,-75.5 246,-56.5 178,-56.5"/>
<text text-anchor="middle" x="212" y="-63.5" font-family="Helvetica,sans-Serif" font-size="10.00">precomp.h</text>
</a>
</g>
</g>
<!-- Node2&#45;&gt;Node3 -->
<g id="edge2" class="edge">
<title>Node2&#45;&gt;Node3</title>
<path fill="none" stroke="midnightblue" d="M395.95,-343.69C297.69,-338.69 0,-316.82 0,-235 0,-235 0,-235 0,-177 0,-101.98 105.89,-78.06 168,-70.48"/>
<polygon fill="midnightblue" stroke="midnightblue" points="168.39,-73.95 177.94,-69.36 167.61,-67 168.39,-73.95"/>
</g>
<!-- Node5 -->
<g id="node5" class="node">
<title>Node5</title>
<g id="a_node5"><a xlink:href="OutCommon_8h.html" target="_top" xlink:title="This is the header for common code used by various file output modules that render cells to files.">
<polygon fill="white" stroke="black" points="383.5,-280.5 383.5,-299.5 470.5,-299.5 470.5,-280.5 383.5,-280.5"/>
<text text-anchor="middle" x="427" y="-287.5" font-family="Helvetica,sans-Serif" font-size="10.00">OutCommon.h</text>
</a>
</g>
</g>
<!-- Node2&#45;&gt;Node5 -->
<g id="edge4" class="edge">
<title>Node2&#45;&gt;Node5</title>
<path fill="none" stroke="midnightblue" d="M427,-336.08C427,-329.01 427,-318.86 427,-309.99"/>
<polygon fill="midnightblue" stroke="midnightblue" points="430.5,-309.75 427,-299.75 423.5,-309.75 430.5,-309.75"/>
</g>
<!-- Node4 -->
<g id="node4" class="node">
<title>Node4</title>
<g id="a_node4"><a xlink:href="Version_8h_source.html" target="_top" xlink:title=" ">
<polygon fill="white" stroke="black" points="181,-0.5 181,-19.5 243,-19.5 243,-0.5 181,-0.5"/>
<text text-anchor="middle" x="212" y="-7.5" font-family="Helvetica,sans-Serif" font-size="10.00">Version.h</text>
</a>
</g>
</g>
<!-- Node3&#45;&gt;Node4 -->
<g id="edge3" class="edge">
<title>Node3&#45;&gt;Node4</title>
<path fill="none" stroke="midnightblue" d="M212,-56.08C212,-49.01 212,-38.86 212,-29.99"/>
<polygon fill="midnightblue" stroke="midnightblue" points="215.5,-29.75 212,-19.75 208.5,-29.75 215.5,-29.75"/>
</g>
<!-- Node5&#45;&gt;Node3 -->
<g id="edge53" class="edge">
<title>Node5&#45;&gt;Node3</title>
<path fill="none" stroke="midnightblue" d="M383.26,-288.2C315.01,-285.92 188.08,-277.2 160,-244 122.12,-199.2 135.61,-165.36 160,-112 165.78,-99.36 177.05,-88.91 187.63,-81.27"/>
<polygon fill="midnightblue" stroke="midnightblue" points="189.85,-84 196.22,-75.53 185.96,-78.18 189.85,-84"/>
</g>
<!-- Node6 -->
<g id="node6" class="node">
<title>Node6</title>
<g id="a_node6"><a xlink:href="Configuration_8h_source.html" target="_top" xlink:title=" ">
<polygon fill="white" stroke="black" points="718.5,-224.5 718.5,-243.5 809.5,-243.5 809.5,-224.5 718.5,-224.5"/>
<text text-anchor="middle" x="764" y="-231.5" font-family="Helvetica,sans-Serif" font-size="10.00">Configuration.h</text>
</a>
</g>
</g>
<!-- Node5&#45;&gt;Node6 -->
<g id="edge5" class="edge">
<title>Node5&#45;&gt;Node6</title>
<path fill="none" stroke="midnightblue" d="M470.71,-282C531.61,-272.24 641.98,-254.55 708.58,-243.88"/>
<polygon fill="midnightblue" stroke="midnightblue" points="709.16,-247.33 718.48,-242.29 708.05,-240.42 709.16,-247.33"/>
</g>
<!-- Node31 -->
<g id="node30" class="node">
<title>Node31</title>
<g id="a_node30"><a xlink:title=" ">
<polygon fill="white" stroke="#bfbfbf" points="1150,-56.5 1150,-75.5 1208,-75.5 1208,-56.5 1150,-56.5"/>
<text text-anchor="middle" x="1179" y="-63.5" font-family="Helvetica,sans-Serif" font-size="10.00">memory</text>
</a>
</g>
</g>
<!-- Node5&#45;&gt;Node31 -->
<g id="edge55" class="edge">
<title>Node5&#45;&gt;Node31</title>
<path fill="none" stroke="midnightblue" d="M470.56,-286.83C630.36,-278.44 1177.69,-245.65 1228,-188 1235.55,-179.35 1241.69,-148.87 1225,-112 1219.59,-100.03 1209.44,-89.57 1200.06,-81.75"/>
<polygon fill="midnightblue" stroke="midnightblue" points="1202.18,-78.97 1192.14,-75.59 1197.88,-84.49 1202.18,-78.97"/>
</g>
<!-- Node40 -->
<g id="node39" class="node">
<title>Node40</title>
<g id="a_node39"><a xlink:title=" ">
<polygon fill="white" stroke="#bfbfbf" points="28,-224.5 28,-243.5 108,-243.5 108,-224.5 28,-224.5"/>
<text text-anchor="middle" x="68" y="-231.5" font-family="Helvetica,sans-Serif" font-size="10.00">wx/dataobj.h</text>
</a>
</g>
</g>
<!-- Node5&#45;&gt;Node40 -->
<g id="edge54" class="edge">
<title>Node5&#45;&gt;Node40</title>
<path fill="none" stroke="midnightblue" d="M383.27,-282.81C324.01,-274.36 214.93,-258.6 122,-244 120.73,-243.8 119.45,-243.6 118.15,-243.39"/>
<polygon fill="midnightblue" stroke="midnightblue" points="118.52,-239.91 108.09,-241.77 117.41,-246.82 118.52,-239.91"/>
</g>
<!-- Node6&#45;&gt;Node3 -->
<g id="edge6" class="edge">
<title>Node6&#45;&gt;Node3</title>
<path fill="none" stroke="midnightblue" d="M718.22,-233.01C612.73,-232.36 355.81,-226.73 280,-188 250.55,-172.95 246.9,-161 231,-132 223.05,-117.5 218.1,-99.32 215.25,-85.87"/>
<polygon fill="midnightblue" stroke="midnightblue" points="218.66,-85.04 213.34,-75.88 211.78,-86.36 218.66,-85.04"/>
</g>
<!-- Node7 -->
<g id="node7" class="node">
<title>Node7</title>
<g id="a_node7"><a xlink:title=" ">
<polygon fill="white" stroke="#bfbfbf" points="1014.5,-168.5 1014.5,-187.5 1071.5,-187.5 1071.5,-168.5 1014.5,-168.5"/>
<text text-anchor="middle" x="1043" y="-175.5" font-family="Helvetica,sans-Serif" font-size="10.00">wx/wx.h</text>
</a>
</g>
</g>
<!-- Node6&#45;&gt;Node7 -->
<g id="edge7" class="edge">
<title>Node6&#45;&gt;Node7</title>
<path fill="none" stroke="midnightblue" d="M809.73,-224.53C857.31,-215.66 933.95,-201.21 1000,-188 1001.45,-187.71 1002.93,-187.41 1004.42,-187.11"/>
<polygon fill="midnightblue" stroke="midnightblue" points="1005.24,-190.51 1014.33,-185.07 1003.83,-183.66 1005.24,-190.51"/>
</g>
<!-- Node8 -->
<g id="node8" class="node">
<title>Node8</title>
<g id="a_node8"><a xlink:title=" ">
<polygon fill="white" stroke="#bfbfbf" points="240,-112.5 240,-131.5 312,-131.5 312,-112.5 240,-112.5"/>
<text text-anchor="middle" x="276" y="-119.5" font-family="Helvetica,sans-Serif" font-size="10.00">wx/config.h</text>
</a>
</g>
</g>
<!-- Node6&#45;&gt;Node8 -->
<g id="edge8" class="edge">
<title>Node6&#45;&gt;Node8</title>
<path fill="none" stroke="midnightblue" d="M718.44,-231.42C607.38,-227.18 329.41,-214.06 297,-188 283.3,-176.99 278.43,-156.94 276.75,-142.01"/>
<polygon fill="midnightblue" stroke="midnightblue" points="280.22,-141.54 276,-131.82 273.24,-142.05 280.22,-141.54"/>
</g>
<!-- Node9 -->
<g id="node9" class="node">
<title>Node9</title>
<g id="a_node9"><a xlink:title=" ">
<polygon fill="white" stroke="#bfbfbf" points="316.5,-168.5 316.5,-187.5 393.5,-187.5 393.5,-168.5 316.5,-168.5"/>
<text text-anchor="middle" x="355" y="-175.5" font-family="Helvetica,sans-Serif" font-size="10.00">wx/display.h</text>
</a>
</g>
</g>
<!-- Node6&#45;&gt;Node9 -->
<g id="edge9" class="edge">
<title>Node6&#45;&gt;Node9</title>
<path fill="none" stroke="midnightblue" d="M718.28,-228.21C651.52,-221.02 523.21,-206.44 403.79,-188.04"/>
<polygon fill="midnightblue" stroke="midnightblue" points="404.16,-184.55 393.74,-186.47 403.08,-191.47 404.16,-184.55"/>
</g>
<!-- Node10 -->
<g id="node10" class="node">
<title>Node10</title>
<g id="a_node10"><a xlink:title=" ">
<polygon fill="white" stroke="#bfbfbf" points="412,-168.5 412,-187.5 502,-187.5 502,-168.5 412,-168.5"/>
<text text-anchor="middle" x="457" y="-175.5" font-family="Helvetica,sans-Serif" font-size="10.00">wx/fontenum.h</text>
</a>
</g>
</g>
<!-- Node6&#45;&gt;Node10 -->
<g id="edge10" class="edge">
<title>Node6&#45;&gt;Node10</title>
<path fill="none" stroke="midnightblue" d="M718.37,-224.97C663.42,-215.31 571.18,-199.08 512.26,-188.72"/>
<polygon fill="midnightblue" stroke="midnightblue" points="512.83,-185.27 502.38,-186.98 511.62,-192.16 512.83,-185.27"/>
</g>
<!-- Node11 -->
<g id="node11" class="node">
<title>Node11</title>
<g id="a_node11"><a xlink:title=" ">
<polygon fill="white" stroke="#bfbfbf" points="520,-168.5 520,-187.5 608,-187.5 608,-168.5 520,-168.5"/>
<text text-anchor="middle" x="564" y="-175.5" font-family="Helvetica,sans-Serif" font-size="10.00">wx/hashmap.h</text>
</a>
</g>
</g>
<!-- Node6&#45;&gt;Node11 -->
<g id="edge11" class="edge">
<title>Node6&#45;&gt;Node11</title>
<path fill="none" stroke="midnightblue" d="M732.31,-224.44C697.93,-215.16 642.92,-200.31 605.21,-190.13"/>
<polygon fill="midnightblue" stroke="midnightblue" points="606.11,-186.74 595.54,-187.52 604.28,-193.5 606.11,-186.74"/>
</g>
<!-- Node12 -->
<g id="node12" class="node">
<title>Node12</title>
<g id="a_node12"><a xlink:href="LoggingMessageDialog_8h.html" target="_top" xlink:title="This file declares a message dialog that sends its contents to the log message sink.">
<polygon fill="white" stroke="black" points="368.5,-112.5 368.5,-131.5 507.5,-131.5 507.5,-112.5 368.5,-112.5"/>
<text text-anchor="middle" x="438" y="-119.5" font-family="Helvetica,sans-Serif" font-size="10.00">LoggingMessageDialog.h</text>
</a>
</g>
</g>
<!-- Node6&#45;&gt;Node12 -->
<g id="edge12" class="edge">
<title>Node6&#45;&gt;Node12</title>
<path fill="none" stroke="midnightblue" d="M718.47,-231.91C608.29,-228.81 334.31,-218.13 307,-188 282.27,-160.72 327.61,-143.49 371.56,-133.67"/>
<polygon fill="midnightblue" stroke="midnightblue" points="372.42,-137.07 381.47,-131.57 370.97,-130.22 372.42,-137.07"/>
</g>
<!-- Node15 -->
<g id="node15" class="node">
<title>Node15</title>
<g id="a_node15"><a xlink:href="TextStyle_8h.html" target="_top" xlink:title="This file declares everything needed for the text style system used to style all the elements on the ...">
<polygon fill="white" stroke="black" points="1128.5,-168.5 1128.5,-187.5 1199.5,-187.5 1199.5,-168.5 1128.5,-168.5"/>
<text text-anchor="middle" x="1164" y="-175.5" font-family="Helvetica,sans-Serif" font-size="10.00">TextStyle.h</text>
</a>
</g>
</g>
<!-- Node6&#45;&gt;Node15 -->
<g id="edge16" class="edge">
<title>Node6&#45;&gt;Node15</title>
<path fill="none" stroke="midnightblue" d="M809.69,-227.87C876.61,-220.18 1005.16,-204.78 1114,-188 1115.44,-187.78 1116.91,-187.55 1118.39,-187.31"/>
<polygon fill="midnightblue" stroke="midnightblue" points="1118.97,-190.76 1128.26,-185.66 1117.82,-183.85 1118.97,-190.76"/>
</g>
<!-- Node6&#45;&gt;Node31 -->
<g id="edge45" class="edge">
<title>Node6&#45;&gt;Node31</title>
<path fill="none" stroke="midnightblue" d="M809.82,-231.76C917.9,-228.37 1181.64,-217.17 1208,-188 1234.45,-158.74 1208.42,-109.67 1191.31,-83.93"/>
<polygon fill="midnightblue" stroke="midnightblue" points="1194.1,-81.81 1185.53,-75.58 1188.35,-85.79 1194.1,-81.81"/>
</g>
<!-- Node32 -->
<g id="node31" class="node">
<title>Node32</title>
<g id="a_node31"><a xlink:title=" ">
<polygon fill="white" stroke="#bfbfbf" points="806,-56.5 806,-75.5 838,-75.5 838,-56.5 806,-56.5"/>
<text text-anchor="middle" x="822" y="-63.5" font-family="Helvetica,sans-Serif" font-size="10.00">list</text>
</a>
</g>
</g>
<!-- Node6&#45;&gt;Node32 -->
<g id="edge49" class="edge">
<title>Node6&#45;&gt;Node32</title>
<path fill="none" stroke="midnightblue" d="M809.89,-229.37C863.6,-224.06 947.68,-212.07 967,-188 1006.02,-139.38 939.5,-174.24 880,-132 861.38,-118.79 844.56,-98.56 833.88,-84.18"/>
<polygon fill="midnightblue" stroke="midnightblue" points="836.47,-81.79 827.8,-75.71 830.79,-85.87 836.47,-81.79"/>
</g>
<!-- Node34 -->
<g id="node33" class="node">
<title>Node34</title>
<g id="a_node33"><a xlink:title=" ">
<polygon fill="white" stroke="#bfbfbf" points="856.5,-56.5 856.5,-75.5 949.5,-75.5 949.5,-56.5 856.5,-56.5"/>
<text text-anchor="middle" x="903" y="-63.5" font-family="Helvetica,sans-Serif" font-size="10.00">unordered_map</text>
</a>
</g>
</g>
<!-- Node6&#45;&gt;Node34 -->
<g id="edge47" class="edge">
<title>Node6&#45;&gt;Node34</title>
<path fill="none" stroke="midnightblue" d="M809.61,-233.5C888.56,-233.28 1045.54,-227.71 1080,-188 1085.83,-181.29 1085.52,-174.97 1080,-168 1036.63,-113.24 979.33,-178.28 927,-132 913.64,-120.19 907.71,-100.27 905.08,-85.58"/>
<polygon fill="midnightblue" stroke="midnightblue" points="908.53,-85 903.64,-75.6 901.6,-85.99 908.53,-85"/>
</g>
<!-- Node35 -->
<g id="node34" class="node">
<title>Node35</title>
<g id="a_node34"><a xlink:title=" ">
<polygon fill="white" stroke="#bfbfbf" points="626,-168.5 626,-187.5 674,-187.5 674,-168.5 626,-168.5"/>
<text text-anchor="middle" x="650" y="-175.5" font-family="Helvetica,sans-Serif" font-size="10.00">mutex</text>
</a>
</g>
</g>
<!-- Node6&#45;&gt;Node35 -->
<g id="edge46" class="edge">
<title>Node6&#45;&gt;Node35</title>
<path fill="none" stroke="midnightblue" d="M745.94,-224.44C727.43,-215.68 698.42,-201.94 677.14,-191.86"/>
<polygon fill="midnightblue" stroke="midnightblue" points="678.51,-188.63 667.98,-187.52 675.52,-194.96 678.51,-188.63"/>
</g>
<!-- Node36 -->
<g id="node35" class="node">
<title>Node36</title>
<g id="a_node35"><a xlink:title=" ">
<polygon fill="white" stroke="#bfbfbf" points="692,-168.5 692,-187.5 746,-187.5 746,-168.5 692,-168.5"/>
<text text-anchor="middle" x="719" y="-175.5" font-family="Helvetica,sans-Serif" font-size="10.00">random</text>
</a>
</g>
</g>
<!-- Node6&#45;&gt;Node36 -->
<g id="edge48" class="edge">
<title>Node6&#45;&gt;Node36</title>
<path fill="none" stroke="midnightblue" d="M756.57,-224.08C750.15,-216.38 740.69,-205.03 732.88,-195.65"/>
<polygon fill="midnightblue" stroke="midnightblue" points="735.38,-193.19 726.29,-187.75 730.01,-197.67 735.38,-193.19"/>
</g>
<!-- Node37 -->
<g id="node36" class="node">
<title>Node37</title>
<g id="a_node36"><a xlink:title=" ">
<polygon fill="white" stroke="#bfbfbf" points="1294.5,-168.5 1294.5,-187.5 1341.5,-187.5 1341.5,-168.5 1294.5,-168.5"/>
<text text-anchor="middle" x="1318" y="-175.5" font-family="Helvetica,sans-Serif" font-size="10.00">vector</text>
</a>
</g>
</g>
<!-- Node6&#45;&gt;Node37 -->
<g id="edge50" class="edge">
<title>Node6&#45;&gt;Node37</title>
<path fill="none" stroke="midnightblue" d="M809.51,-229.08C894.54,-221.68 1083.27,-204.87 1242,-188 1255.87,-186.53 1271.14,-184.75 1284.33,-183.16"/>
<polygon fill="midnightblue" stroke="midnightblue" points="1284.89,-186.62 1294.4,-181.94 1284.05,-179.67 1284.89,-186.62"/>
</g>
<!-- Node38 -->
<g id="node37" class="node">
<title>Node38</title>
<g id="a_node37"><a xlink:title=" ">
<polygon fill="white" stroke="#bfbfbf" points="764.5,-168.5 764.5,-187.5 853.5,-187.5 853.5,-168.5 764.5,-168.5"/>
<text text-anchor="middle" x="809" y="-175.5" font-family="Helvetica,sans-Serif" font-size="10.00">wx/wupdlock.h</text>
</a>
</g>
</g>
<!-- Node6&#45;&gt;Node38 -->
<g id="edge51" class="edge">
<title>Node6&#45;&gt;Node38</title>
<path fill="none" stroke="midnightblue" d="M771.43,-224.08C777.85,-216.38 787.31,-205.03 795.12,-195.65"/>
<polygon fill="midnightblue" stroke="midnightblue" points="797.99,-197.67 801.71,-187.75 792.62,-193.19 797.99,-197.67"/>
</g>
<!-- Node39 -->
<g id="node38" class="node">
<title>Node39</title>
<g id="a_node38"><a xlink:title=" ">
<polygon fill="white" stroke="#bfbfbf" points="872,-168.5 872,-187.5 958,-187.5 958,-168.5 872,-168.5"/>
<text text-anchor="middle" x="915" y="-175.5" font-family="Helvetica,sans-Serif" font-size="10.00">wx/webview.h</text>
</a>
</g>
</g>
<!-- Node6&#45;&gt;Node39 -->
<g id="edge52" class="edge">
<title>Node6&#45;&gt;Node39</title>
<path fill="none" stroke="midnightblue" d="M787.93,-224.44C813.22,-215.4 853.3,-201.06 881.68,-190.92"/>
<polygon fill="midnightblue" stroke="midnightblue" points="882.95,-194.18 891.19,-187.52 880.59,-187.59 882.95,-194.18"/>
</g>
<!-- Node12&#45;&gt;Node3 -->
<g id="edge13" class="edge">
<title>Node12&#45;&gt;Node3</title>
<path fill="none" stroke="midnightblue" d="M402.19,-112.44C362.55,-102.97 298.64,-87.7 255.99,-77.51"/>
<polygon fill="midnightblue" stroke="midnightblue" points="256.7,-74.08 246.16,-75.16 255.08,-80.89 256.7,-74.08"/>
</g>
<!-- Node13 -->
<g id="node13" class="node">
<title>Node13</title>
<g id="a_node13"><a xlink:title=" ">
<polygon fill="white" stroke="#bfbfbf" points="398.5,-56.5 398.5,-75.5 477.5,-75.5 477.5,-56.5 398.5,-56.5"/>
<text text-anchor="middle" x="438" y="-63.5" font-family="Helvetica,sans-Serif" font-size="10.00">wx/msgdlg.h</text>
</a>
</g>
</g>
<!-- Node12&#45;&gt;Node13 -->
<g id="edge14" class="edge">
<title>Node12&#45;&gt;Node13</title>
<path fill="none" stroke="midnightblue" d="M438,-112.08C438,-105.01 438,-94.86 438,-85.99"/>
<polygon fill="midnightblue" stroke="midnightblue" points="441.5,-85.75 438,-75.75 434.5,-85.75 441.5,-85.75"/>
</g>
<!-- Node14 -->
<g id="node14" class="node">
<title>Node14</title>
<g id="a_node14"><a xlink:title=" ">
<polygon fill="white" stroke="#bfbfbf" points="1728,-56.5 1728,-75.5 1786,-75.5 1786,-56.5 1728,-56.5"/>
<text text-anchor="middle" x="1757" y="-63.5" font-family="Helvetica,sans-Serif" font-size="10.00">wx/log.h</text>
</a>
</g>
</g>
<!-- Node12&#45;&gt;Node14 -->
<g id="edge15" class="edge">
<title>Node12&#45;&gt;Node14</title>
<path fill="none" stroke="midnightblue" d="M507.64,-119.36C751.44,-113.5 1559.88,-93.14 1717.45,-75.8"/>
<polygon fill="midnightblue" stroke="midnightblue" points="1718.15,-79.24 1727.65,-74.56 1717.3,-72.29 1718.15,-79.24"/>
</g>
<!-- Node15&#45;&gt;Node3 -->
<g id="edge17" class="edge">
<title>Node15&#45;&gt;Node3</title>
<path fill="none" stroke="midnightblue" d="M1128.48,-172.74C1113.53,-171.07 1095.94,-169.25 1080,-168 920.07,-155.45 513.73,-174.35 359,-132 340.59,-126.96 338.28,-120.09 321,-112 295.44,-100.03 265.79,-87.9 243.87,-79.25"/>
<polygon fill="midnightblue" stroke="midnightblue" points="244.98,-75.93 234.39,-75.54 242.43,-82.44 244.98,-75.93"/>
</g>
<!-- Node15&#45;&gt;Node8 -->
<g id="edge19" class="edge">
<title>Node15&#45;&gt;Node8</title>
<path fill="none" stroke="midnightblue" d="M1128.48,-172.73C1113.53,-171.05 1095.94,-169.23 1080,-168 745.51,-142.12 659.36,-169.8 326,-132 324.74,-131.86 323.47,-131.7 322.19,-131.54"/>
<polygon fill="midnightblue" stroke="midnightblue" points="322.64,-128.07 312.24,-130.1 321.63,-134.99 322.64,-128.07"/>
</g>
<!-- Node16 -->
<g id="node16" class="node">
<title>Node16</title>
<g id="a_node16"><a xlink:title=" ">
<polygon fill="white" stroke="#bfbfbf" points="1090,-112.5 1090,-131.5 1162,-131.5 1162,-112.5 1090,-112.5"/>
<text text-anchor="middle" x="1126" y="-119.5" font-family="Helvetica,sans-Serif" font-size="10.00">wx/colour.h</text>
</a>
</g>
</g>
<!-- Node15&#45;&gt;Node16 -->
<g id="edge18" class="edge">
<title>Node15&#45;&gt;Node16</title>
<path fill="none" stroke="midnightblue" d="M1157.73,-168.08C1152.36,-160.46 1144.48,-149.26 1137.92,-139.94"/>
<polygon fill="midnightblue" stroke="midnightblue" points="1140.78,-137.91 1132.16,-131.75 1135.05,-141.94 1140.78,-137.91"/>
</g>
<!-- Node17 -->
<g id="node17" class="node">
<title>Node17</title>
<g id="a_node17"><a xlink:title=" ">
<polygon fill="white" stroke="#bfbfbf" points="1006,-56.5 1006,-75.5 1068,-75.5 1068,-56.5 1006,-56.5"/>
<text text-anchor="middle" x="1037" y="-63.5" font-family="Helvetica,sans-Serif" font-size="10.00">wx/font.h</text>
</a>
</g>
</g>
<!-- Node15&#45;&gt;Node17 -->
<g id="edge20" class="edge">
<title>Node15&#45;&gt;Node17</title>
<path fill="none" stroke="midnightblue" d="M1168.24,-168.49C1174.24,-155.12 1183.19,-128.96 1171,-112 1165.31,-104.09 1115.11,-88.68 1077.82,-78.11"/>
<polygon fill="midnightblue" stroke="midnightblue" points="1078.74,-74.74 1068.17,-75.41 1076.85,-81.48 1078.74,-74.74"/>
</g>
<!-- Node18 -->
<g id="node18" class="node">
<title>Node18</title>
<g id="a_node18"><a xlink:title=" ">
<polygon fill="white" stroke="#bfbfbf" points="1463,-112.5 1463,-131.5 1545,-131.5 1545,-112.5 1463,-112.5"/>
<text text-anchor="middle" x="1504" y="-119.5" font-family="Helvetica,sans-Serif" font-size="10.00">wx/settings.h</text>
</a>
</g>
</g>
<!-- Node15&#45;&gt;Node18 -->
<g id="edge21" class="edge">
<title>Node15&#45;&gt;Node18</title>
<path fill="none" stroke="midnightblue" d="M1199.63,-171.69C1252.41,-163.77 1354.74,-148.22 1452.74,-132.01"/>
<polygon fill="midnightblue" stroke="midnightblue" points="1453.52,-135.43 1462.82,-130.34 1452.38,-128.52 1453.52,-135.43"/>
</g>
<!-- Node19 -->
<g id="node19" class="node">
<title>Node19</title>
<g id="a_node19"><a xlink:title=" ">
<polygon fill="white" stroke="#bfbfbf" points="1660,-56.5 1660,-75.5 1710,-75.5 1710,-56.5 1660,-56.5"/>
<text text-anchor="middle" x="1685" y="-63.5" font-family="Helvetica,sans-Serif" font-size="10.00">cstdint</text>
</a>
</g>
</g>
<!-- Node15&#45;&gt;Node19 -->
<g id="edge22" class="edge">
<title>Node15&#45;&gt;Node19</title>
<path fill="none" stroke="midnightblue" d="M1199.62,-174.47C1282.82,-168.3 1487.91,-151.56 1554,-132 1594.37,-120.05 1637.4,-96.31 1662.71,-81.07"/>
<polygon fill="midnightblue" stroke="midnightblue" points="1664.8,-83.89 1671.5,-75.68 1661.15,-77.92 1664.8,-83.89"/>
</g>
<!-- Node20 -->
<g id="node20" class="node">
<title>Node20</title>
<g id="a_node20"><a xlink:title=" ">
<polygon fill="white" stroke="#bfbfbf" points="1074.5,-0.5 1074.5,-19.5 1139.5,-19.5 1139.5,-0.5 1074.5,-0.5"/>
<text text-anchor="middle" x="1107" y="-7.5" font-family="Helvetica,sans-Serif" font-size="10.00">functional</text>
</a>
</g>
</g>
<!-- Node15&#45;&gt;Node20 -->
<g id="edge23" class="edge">
<title>Node15&#45;&gt;Node20</title>
<path fill="none" stroke="midnightblue" d="M1128.38,-173.05C1043.55,-162.78 833.92,-132.1 797,-76 792.11,-68.57 791.18,-62.72 797,-56 831.03,-16.67 987.24,-10.99 1064.07,-10.63"/>
<polygon fill="midnightblue" stroke="midnightblue" points="1064.37,-14.13 1074.37,-10.61 1064.36,-7.13 1064.37,-14.13"/>
</g>
<!-- Node21 -->
<g id="node21" class="node">
<title>Node21</title>
<g id="a_node21"><a xlink:href="FontAttribs_8h_source.html" target="_top" xlink:title=" ">
<polygon fill="white" stroke="black" points="1365.5,-112.5 1365.5,-131.5 1444.5,-131.5 1444.5,-112.5 1365.5,-112.5"/>
<text text-anchor="middle" x="1405" y="-119.5" font-family="Helvetica,sans-Serif" font-size="10.00">FontAttribs.h</text>
</a>
</g>
</g>
<!-- Node15&#45;&gt;Node21 -->
<g id="edge24" class="edge">
<title>Node15&#45;&gt;Node21</title>
<path fill="none" stroke="midnightblue" d="M1199.56,-169.03C1241.28,-159.68 1310.63,-144.14 1357.07,-133.74"/>
<polygon fill="midnightblue" stroke="midnightblue" points="1357.91,-137.14 1366.9,-131.54 1356.38,-130.31 1357.91,-137.14"/>
</g>
<!-- Node30 -->
<g id="node29" class="node">
<title>Node30</title>
<g id="a_node29"><a xlink:href="FontVariantCache_8h.html" target="_top" xlink:title="This file implements the wxFont cache system.">
<polygon fill="white" stroke="black" points="960.5,-112.5 960.5,-131.5 1071.5,-131.5 1071.5,-112.5 960.5,-112.5"/>
<text text-anchor="middle" x="1016" y="-119.5" font-family="Helvetica,sans-Serif" font-size="10.00">FontVariantCache.h</text>
</a>
</g>
</g>
<!-- Node15&#45;&gt;Node30 -->
<g id="edge36" class="edge">
<title>Node15&#45;&gt;Node30</title>
<path fill="none" stroke="midnightblue" d="M1140.55,-168.44C1115.87,-159.44 1076.81,-145.19 1049.02,-135.05"/>
<polygon fill="midnightblue" stroke="midnightblue" points="1049.94,-131.66 1039.34,-131.52 1047.54,-138.23 1049.94,-131.66"/>
</g>
<!-- Node15&#45;&gt;Node34 -->
<g id="edge44" class="edge">
<title>Node15&#45;&gt;Node34</title>
<path fill="none" stroke="midnightblue" d="M1128.48,-170.18C1069.84,-158.82 958.47,-136.8 951,-132 933.17,-120.53 919.66,-99.95 911.59,-85.02"/>
<polygon fill="midnightblue" stroke="midnightblue" points="914.53,-83.08 906.88,-75.76 908.29,-86.26 914.53,-83.08"/>
</g>
<!-- Node21&#45;&gt;Node17 -->
<g id="edge30" class="edge">
<title>Node21&#45;&gt;Node17</title>
<path fill="none" stroke="midnightblue" d="M1365.45,-116.67C1305.45,-109.87 1187.67,-95.58 1078.27,-76.11"/>
<polygon fill="midnightblue" stroke="midnightblue" points="1078.85,-72.65 1068.39,-74.33 1077.61,-79.54 1078.85,-72.65"/>
</g>
<!-- Node21&#45;&gt;Node19 -->
<g id="edge33" class="edge">
<title>Node21&#45;&gt;Node19</title>
<path fill="none" stroke="midnightblue" d="M1444.58,-113.73C1447.77,-113.14 1450.94,-112.56 1454,-112 1538.47,-96.52 1562.47,-95.46 1649.98,-76.1"/>
<polygon fill="midnightblue" stroke="midnightblue" points="1650.8,-79.5 1659.8,-73.9 1649.28,-72.67 1650.8,-79.5"/>
</g>
<!-- Node21&#45;&gt;Node20 -->
<g id="edge34" class="edge">
<title>Node21&#45;&gt;Node20</title>
<path fill="none" stroke="midnightblue" d="M1369.79,-112.49C1338.96,-104.57 1293.25,-91.63 1255,-76 1237.33,-68.78 1234.3,-64.07 1217,-56 1191.22,-43.97 1161.3,-31.85 1139.18,-23.22"/>
<polygon fill="midnightblue" stroke="midnightblue" points="1140.19,-19.86 1129.6,-19.51 1137.67,-26.39 1140.19,-19.86"/>
</g>
<!-- Node22 -->
<g id="node22" class="node">
<title>Node22</title>
<g id="a_node22"><a xlink:href="EnumWrapper_8h_source.html" target="_top" xlink:title=" ">
<polygon fill="white" stroke="black" points="1466,-56.5 1466,-75.5 1560,-75.5 1560,-56.5 1466,-56.5"/>
<text text-anchor="middle" x="1513" y="-63.5" font-family="Helvetica,sans-Serif" font-size="10.00">EnumWrapper.h</text>
</a>
</g>
</g>
<!-- Node21&#45;&gt;Node22 -->
<g id="edge25" class="edge">
<title>Node21&#45;&gt;Node22</title>
<path fill="none" stroke="midnightblue" d="M1422.35,-112.32C1439.67,-103.66 1466.52,-90.24 1486.5,-80.25"/>
<polygon fill="midnightblue" stroke="midnightblue" points="1488.31,-83.26 1495.69,-75.65 1485.18,-77 1488.31,-83.26"/>
</g>
<!-- Node25 -->
<g id="node25" class="node">
<title>Node25</title>
<g id="a_node25"><a xlink:href="clamp_8hpp_source.html" target="_top" xlink:title=" ">
<polygon fill="white" stroke="red" points="1362,-56.5 1362,-75.5 1448,-75.5 1448,-56.5 1362,-56.5"/>
<text text-anchor="middle" x="1405" y="-63.5" font-family="Helvetica,sans-Serif" font-size="10.00">stx/clamp.hpp</text>
</a>
</g>
</g>
<!-- Node21&#45;&gt;Node25 -->
<g id="edge29" class="edge">
<title>Node21&#45;&gt;Node25</title>
<path fill="none" stroke="midnightblue" d="M1405,-112.08C1405,-105.01 1405,-94.86 1405,-85.99"/>
<polygon fill="midnightblue" stroke="midnightblue" points="1408.5,-85.75 1405,-75.75 1401.5,-85.75 1408.5,-85.75"/>
</g>
<!-- Node27 -->
<g id="node26" class="node">
<title>Node27</title>
<g id="a_node26"><a xlink:title=" ">
<polygon fill="white" stroke="#bfbfbf" points="1264.5,-56.5 1264.5,-75.5 1343.5,-75.5 1343.5,-56.5 1264.5,-56.5"/>
<text text-anchor="middle" x="1304" y="-63.5" font-family="Helvetica,sans-Serif" font-size="10.00">wx/version.h</text>
</a>
</g>
</g>
<!-- Node21&#45;&gt;Node27 -->
<g id="edge31" class="edge">
<title>Node21&#45;&gt;Node27</title>
<path fill="none" stroke="midnightblue" d="M1388.77,-112.32C1372.65,-103.7 1347.7,-90.36 1329.04,-80.39"/>
<polygon fill="midnightblue" stroke="midnightblue" points="1330.66,-77.28 1320.19,-75.65 1327.36,-83.46 1330.66,-77.28"/>
</g>
<!-- Node28 -->
<g id="node27" class="node">
<title>Node28</title>
<g id="a_node27"><a xlink:title=" ">
<polygon fill="white" stroke="#bfbfbf" points="1578,-56.5 1578,-75.5 1642,-75.5 1642,-56.5 1578,-56.5"/>
<text text-anchor="middle" x="1610" y="-63.5" font-family="Helvetica,sans-Serif" font-size="10.00">algorithm</text>
</a>
</g>
</g>
<!-- Node21&#45;&gt;Node28 -->
<g id="edge32" class="edge">
<title>Node21&#45;&gt;Node28</title>
<path fill="none" stroke="midnightblue" d="M1437.48,-112.44C1472.72,-103.16 1529.1,-88.31 1567.76,-78.13"/>
<polygon fill="midnightblue" stroke="midnightblue" points="1568.89,-81.45 1577.67,-75.52 1567.11,-74.68 1568.89,-81.45"/>
</g>
<!-- Node29 -->
<g id="node28" class="node">
<title>Node29</title>
<g id="a_node28"><a xlink:title=" ">
<polygon fill="white" stroke="#bfbfbf" points="1922,-56.5 1922,-75.5 1966,-75.5 1966,-56.5 1922,-56.5"/>
<text text-anchor="middle" x="1944" y="-63.5" font-family="Helvetica,sans-Serif" font-size="10.00">limits</text>
</a>
</g>
</g>
<!-- Node21&#45;&gt;Node29 -->
<g id="edge35" class="edge">
<title>Node21&#45;&gt;Node29</title>
<path fill="none" stroke="midnightblue" d="M1444.53,-113.38C1447.72,-112.87 1450.91,-112.4 1454,-112 1653.63,-85.91 1709.89,-111.85 1911.74,-75.86"/>
<polygon fill="midnightblue" stroke="midnightblue" points="1912.56,-79.27 1921.78,-74.04 1911.32,-72.38 1912.56,-79.27"/>
</g>
<!-- Node22&#45;&gt;Node20 -->
<g id="edge27" class="edge">
<title>Node22&#45;&gt;Node20</title>
<path fill="none" stroke="midnightblue" d="M1465.96,-57.33C1462.93,-56.87 1459.92,-56.42 1457,-56 1346.5,-40.02 1215.94,-23.99 1149.89,-16.07"/>
<polygon fill="midnightblue" stroke="midnightblue" points="1150.2,-12.59 1139.86,-14.87 1149.37,-19.54 1150.2,-12.59"/>
</g>
<!-- Node23 -->
<g id="node23" class="node">
<title>Node23</title>
<g id="a_node23"><a xlink:title=" ">
<polygon fill="white" stroke="#bfbfbf" points="1636.5,-0.5 1636.5,-19.5 1689.5,-19.5 1689.5,-0.5 1636.5,-0.5"/>
<text text-anchor="middle" x="1663" y="-7.5" font-family="Helvetica,sans-Serif" font-size="10.00">cstddef</text>
</a>
</g>
</g>
<!-- Node22&#45;&gt;Node23 -->
<g id="edge26" class="edge">
<title>Node22&#45;&gt;Node23</title>
<path fill="none" stroke="midnightblue" d="M1536.77,-56.44C1561.89,-47.4 1601.71,-33.06 1629.9,-22.92"/>
<polygon fill="midnightblue" stroke="midnightblue" points="1631.12,-26.2 1639.34,-19.52 1628.75,-19.61 1631.12,-26.2"/>
</g>
<!-- Node24 -->
<g id="node24" class="node">
<title>Node24</title>
<g id="a_node24"><a xlink:title=" ">
<polygon fill="white" stroke="#bfbfbf" points="1997.5,-0.5 1997.5,-19.5 2066.5,-19.5 2066.5,-0.5 1997.5,-0.5"/>
<text text-anchor="middle" x="2032" y="-7.5" font-family="Helvetica,sans-Serif" font-size="10.00">type_traits</text>
</a>
</g>
</g>
<!-- Node22&#45;&gt;Node24 -->
<g id="edge28" class="edge">
<title>Node22&#45;&gt;Node24</title>
<path fill="none" stroke="midnightblue" d="M1560.02,-57.22C1563.06,-56.79 1566.07,-56.38 1569,-56 1722.05,-36.28 1904.57,-20.93 1987.3,-14.41"/>
<polygon fill="midnightblue" stroke="midnightblue" points="1987.66,-17.89 1997.36,-13.62 1987.12,-10.91 1987.66,-17.89"/>
</g>
<!-- Node30&#45;&gt;Node3 -->
<g id="edge37" class="edge">
<title>Node30&#45;&gt;Node3</title>
<path fill="none" stroke="midnightblue" d="M960.42,-117.27C809.38,-107.12 393.54,-79.19 256.47,-69.99"/>
<polygon fill="midnightblue" stroke="midnightblue" points="256.54,-66.48 246.33,-69.31 256.07,-73.47 256.54,-66.48"/>
</g>
<!-- Node30&#45;&gt;Node17 -->
<g id="edge39" class="edge">
<title>Node30&#45;&gt;Node17</title>
<path fill="none" stroke="midnightblue" d="M1019.47,-112.08C1022.31,-104.77 1026.43,-94.18 1029.96,-85.1"/>
<polygon fill="midnightblue" stroke="midnightblue" points="1033.23,-86.34 1033.6,-75.75 1026.71,-83.8 1033.23,-86.34"/>
</g>
<!-- Node30&#45;&gt;Node20 -->
<g id="edge40" class="edge">
<title>Node30&#45;&gt;Node20</title>
<path fill="none" stroke="midnightblue" d="M1009.17,-112.3C999.71,-99.12 985.07,-73.77 997,-56 1011.99,-33.67 1040.25,-22.41 1064.36,-16.74"/>
<polygon fill="midnightblue" stroke="midnightblue" points="1065.33,-20.11 1074.39,-14.64 1063.89,-13.26 1065.33,-20.11"/>
</g>
<!-- Node30&#45;&gt;Node31 -->
<g id="edge38" class="edge">
<title>Node30&#45;&gt;Node31</title>
<path fill="none" stroke="midnightblue" d="M1041.83,-112.44C1069.25,-103.36 1112.78,-88.94 1143.43,-78.78"/>
<polygon fill="midnightblue" stroke="midnightblue" points="1144.9,-81.98 1153.29,-75.52 1142.7,-75.34 1144.9,-81.98"/>
</g>
<!-- Node30&#45;&gt;Node32 -->
<g id="edge41" class="edge">
<title>Node30&#45;&gt;Node32</title>
<path fill="none" stroke="midnightblue" d="M980.47,-112.48C948.11,-104.51 898.84,-91.86 847.65,-76.01"/>
<polygon fill="midnightblue" stroke="midnightblue" points="848.66,-72.66 838.07,-73.01 846.57,-79.34 848.66,-72.66"/>
</g>
<!-- Node33 -->
<g id="node32" class="node">
<title>Node33</title>
<g id="a_node32"><a xlink:title=" ">
<polygon fill="white" stroke="#bfbfbf" points="1086.5,-56.5 1086.5,-75.5 1131.5,-75.5 1131.5,-56.5 1086.5,-56.5"/>
<text text-anchor="middle" x="1109" y="-63.5" font-family="Helvetica,sans-Serif" font-size="10.00">utility</text>
</a>
</g>
</g>
<!-- Node30&#45;&gt;Node33 -->
<g id="edge42" class="edge">
<title>Node30&#45;&gt;Node33</title>
<path fill="none" stroke="midnightblue" d="M1030.94,-112.32C1045.59,-103.82 1068.13,-90.73 1085.24,-80.8"/>
<polygon fill="midnightblue" stroke="midnightblue" points="1087.2,-83.7 1094.1,-75.65 1083.69,-77.65 1087.2,-83.7"/>
</g>
<!-- Node30&#45;&gt;Node34 -->
<g id="edge43" class="edge">
<title>Node30&#45;&gt;Node34</title>
<path fill="none" stroke="midnightblue" d="M998.09,-112.44C979.75,-103.68 950.99,-89.94 929.91,-79.86"/>
<polygon fill="midnightblue" stroke="midnightblue" points="931.35,-76.67 920.82,-75.52 928.33,-82.99 931.35,-76.67"/>
</g>
<!-- Node41&#45;&gt;Node3 -->
<g id="edge57" class="edge">
<title>Node41&#45;&gt;Node3</title>
<path fill="none" stroke="midnightblue" d="M1550.78,-288.63C1386.29,-285.72 360.95,-264.6 249,-188 216.02,-165.43 211.23,-113.83 211.22,-85.86"/>
<polygon fill="midnightblue" stroke="midnightblue" points="214.72,-85.85 211.42,-75.78 207.72,-85.71 214.72,-85.85"/>
</g>
<!-- Node41&#45;&gt;Node6 -->
<g id="edge71" class="edge">
<title>Node41&#45;&gt;Node6</title>
<path fill="none" stroke="midnightblue" d="M1550.94,-287.53C1444.39,-280.42 981.5,-249.52 819.91,-238.73"/>
<polygon fill="midnightblue" stroke="midnightblue" points="819.92,-235.22 809.71,-238.05 819.45,-242.21 819.92,-235.22"/>
</g>
<!-- Node41&#45;&gt;Node15 -->
<g id="edge75" class="edge">
<title>Node41&#45;&gt;Node15</title>
<path fill="none" stroke="midnightblue" d="M1550.71,-286.13C1508.22,-280.35 1412.91,-265.99 1335,-244 1283.53,-229.48 1225.79,-205.94 1192.3,-191.53"/>
<polygon fill="midnightblue" stroke="midnightblue" points="1193.68,-188.31 1183.12,-187.54 1190.9,-194.73 1193.68,-188.31"/>
</g>
<!-- Node41&#45;&gt;Node24 -->
<g id="edge86" class="edge">
<title>Node41&#45;&gt;Node24</title>
<path fill="none" stroke="midnightblue" d="M1595.32,-287.5C1707.01,-279.7 2200,-241.72 2200,-179 2200,-179 2200,-179 2200,-121 2200,-61.97 2126.49,-32.9 2076.73,-19.99"/>
<polygon fill="midnightblue" stroke="midnightblue" points="2077.36,-16.54 2066.81,-17.54 2075.68,-23.33 2077.36,-16.54"/>
</g>
<!-- Node41&#45;&gt;Node28 -->
<g id="edge82" class="edge">
<title>Node41&#45;&gt;Node28</title>
<path fill="none" stroke="midnightblue" d="M1574.82,-280.39C1576.71,-271.35 1579.71,-256.7 1582,-244 1592.32,-186.74 1602.51,-118.67 1607.25,-86.15"/>
<polygon fill="midnightblue" stroke="midnightblue" points="1610.77,-86.26 1608.74,-75.86 1603.84,-85.26 1610.77,-86.26"/>
</g>
<!-- Node41&#45;&gt;Node31 -->
<g id="edge84" class="edge">
<title>Node41&#45;&gt;Node31</title>
<path fill="none" stroke="midnightblue" d="M1556.09,-280.39C1538.68,-271.46 1510.8,-257.02 1487,-244 1442.99,-219.92 1431.4,-214.82 1389,-188 1339.09,-156.43 1331.43,-141.04 1280,-112 1257.73,-99.43 1231.29,-87.76 1211.05,-79.45"/>
<polygon fill="midnightblue" stroke="midnightblue" points="1212.24,-76.16 1201.66,-75.66 1209.62,-82.65 1212.24,-76.16"/>
</g>
<!-- Node41&#45;&gt;Node37 -->
<g id="edge85" class="edge">
<title>Node41&#45;&gt;Node37</title>
<path fill="none" stroke="midnightblue" d="M1550.88,-286.71C1502.12,-281.29 1387.24,-266.45 1356,-244 1340.11,-232.58 1329.81,-212.3 1324,-197.42"/>
<polygon fill="midnightblue" stroke="midnightblue" points="1327.2,-195.98 1320.54,-187.74 1320.61,-198.33 1327.2,-195.98"/>
</g>
<!-- Node42 -->
<g id="node41" class="node">
<title>Node42</title>
<g id="a_node41"><a xlink:href="CellPtr_8h.html" target="_top" xlink:title="Implementation of an observing weak Cell pointer.">
<polygon fill="white" stroke="black" points="1717.5,-112.5 1717.5,-131.5 1774.5,-131.5 1774.5,-112.5 1717.5,-112.5"/>
<text text-anchor="middle" x="1746" y="-119.5" font-family="Helvetica,sans-Serif" font-size="10.00">CellPtr.h</text>
</a>
</g>
</g>
<!-- Node41&#45;&gt;Node42 -->
<g id="edge58" class="edge">
<title>Node41&#45;&gt;Node42</title>
<path fill="none" stroke="midnightblue" d="M1585.05,-280.23C1596.2,-271.74 1612.85,-258.12 1625,-244 1651.05,-213.71 1644.6,-196.09 1673,-168 1686.11,-155.03 1703.62,-144.08 1718.21,-136.22"/>
<polygon fill="midnightblue" stroke="midnightblue" points="1720.03,-139.23 1727.3,-131.52 1716.81,-133.01 1720.03,-139.23"/>
</g>
<!-- Node45 -->
<g id="node44" class="node">
<title>Node45</title>
<g id="a_node44"><a xlink:href="CellIterators_8h.html" target="_top" xlink:title="Declares the various iterators useful with the Cell class.">
<polygon fill="white" stroke="black" points="1793,-112.5 1793,-131.5 1879,-131.5 1879,-112.5 1793,-112.5"/>
<text text-anchor="middle" x="1836" y="-119.5" font-family="Helvetica,sans-Serif" font-size="10.00">CellIterators.h</text>
</a>
</g>
</g>
<!-- Node41&#45;&gt;Node45 -->
<g id="edge67" class="edge">
<title>Node41&#45;&gt;Node45</title>
<path fill="none" stroke="midnightblue" d="M1587.03,-280.43C1601.76,-271.42 1625.56,-256.81 1646,-244 1707.15,-205.69 1778.85,-159.74 1814.13,-137.07"/>
<polygon fill="midnightblue" stroke="midnightblue" points="1816.16,-139.93 1822.68,-131.58 1812.38,-134.04 1816.16,-139.93"/>
</g>
<!-- Node46 -->
<g id="node45" class="node">
<title>Node46</title>
<g id="a_node45"><a xlink:href="StringUtils_8h_source.html" target="_top" xlink:title=" ">
<polygon fill="white" stroke="black" points="1496.5,-224.5 1496.5,-243.5 1573.5,-243.5 1573.5,-224.5 1496.5,-224.5"/>
<text text-anchor="middle" x="1535" y="-231.5" font-family="Helvetica,sans-Serif" font-size="10.00">StringUtils.h</text>
</a>
</g>
</g>
<!-- Node41&#45;&gt;Node46 -->
<g id="edge72" class="edge">
<title>Node41&#45;&gt;Node46</title>
<path fill="none" stroke="midnightblue" d="M1566.73,-280.08C1561.36,-272.46 1553.48,-261.26 1546.92,-251.94"/>
<polygon fill="midnightblue" stroke="midnightblue" points="1549.78,-249.91 1541.16,-243.75 1544.05,-253.94 1549.78,-249.91"/>
</g>
<!-- Node49 -->
<g id="node48" class="node">
<title>Node49</title>
<g id="a_node48"><a xlink:href="CachedValue_8h.html" target="_top" xlink:title="Declares &quot;mostly read&#45;only&quot; wrappers around values that are expensive to compute and are thus cached.">
<polygon fill="white" stroke="black" points="1897.5,-112.5 1897.5,-131.5 2010.5,-131.5 2010.5,-112.5 1897.5,-112.5"/>
<text text-anchor="middle" x="1954" y="-119.5" font-family="Helvetica,sans-Serif" font-size="10.00">utils/CachedValue.h</text>
</a>
</g>
</g>
<!-- Node41&#45;&gt;Node49 -->
<g id="edge76" class="edge">
<title>Node41&#45;&gt;Node49</title>
<path fill="none" stroke="midnightblue" d="M1595.04,-287.21C1651.67,-282.32 1800.86,-267.5 1844,-244 1889.96,-218.96 1926.77,-167.23 1943.78,-140.24"/>
<polygon fill="midnightblue" stroke="midnightblue" points="1946.89,-141.87 1949.12,-131.51 1940.92,-138.21 1946.89,-141.87"/>
</g>
<!-- Node50 -->
<g id="node49" class="node">
<title>Node50</title>
<g id="a_node49"><a xlink:title=" ">
<polygon fill="white" stroke="#bfbfbf" points="1715,-224.5 1715,-243.5 1779,-243.5 1779,-224.5 1715,-224.5"/>
<text text-anchor="middle" x="1747" y="-231.5" font-family="Helvetica,sans-Serif" font-size="10.00">wx/defs.h</text>
</a>
</g>
</g>
<!-- Node41&#45;&gt;Node50 -->
<g id="edge81" class="edge">
<title>Node41&#45;&gt;Node50</title>
<path fill="none" stroke="midnightblue" d="M1595.04,-282.16C1623.84,-273.22 1674.7,-257.44 1709.59,-246.61"/>
<polygon fill="midnightblue" stroke="midnightblue" points="1710.9,-249.87 1719.41,-243.56 1708.83,-243.18 1710.9,-249.87"/>
</g>
<!-- Node51 -->
<g id="node50" class="node">
<title>Node51</title>
<g id="a_node50"><a xlink:title=" ">
<polygon fill="white" stroke="#bfbfbf" points="1797,-224.5 1797,-243.5 1835,-243.5 1835,-224.5 1797,-224.5"/>
<text text-anchor="middle" x="1816" y="-231.5" font-family="Helvetica,sans-Serif" font-size="10.00">map</text>
</a>
</g>
</g>
<!-- Node41&#45;&gt;Node51 -->
<g id="edge83" class="edge">
<title>Node41&#45;&gt;Node51</title>
<path fill="none" stroke="midnightblue" d="M1595.15,-285.15C1632.73,-278.46 1711.51,-263.71 1787.12,-244.02"/>
<polygon fill="midnightblue" stroke="midnightblue" points="1788.02,-247.4 1796.8,-241.46 1786.24,-240.63 1788.02,-247.4"/>
</g>
<!-- Node42&#45;&gt;Node14 -->
<g id="edge60" class="edge">
<title>Node42&#45;&gt;Node14</title>
<path fill="none" stroke="midnightblue" d="M1747.82,-112.08C1749.27,-104.93 1751.37,-94.64 1753.19,-85.69"/>
<polygon fill="midnightblue" stroke="midnightblue" points="1756.65,-86.25 1755.22,-75.75 1749.79,-84.85 1756.65,-86.25"/>
</g>
<!-- Node42&#45;&gt;Node19 -->
<g id="edge63" class="edge">
<title>Node42&#45;&gt;Node19</title>
<path fill="none" stroke="midnightblue" d="M1736.2,-112.32C1727.18,-104.34 1713.59,-92.31 1702.68,-82.65"/>
<polygon fill="midnightblue" stroke="midnightblue" points="1704.79,-79.84 1694.98,-75.83 1700.15,-85.08 1704.79,-79.84"/>
</g>
<!-- Node42&#45;&gt;Node23 -->
<g id="edge62" class="edge">
<title>Node42&#45;&gt;Node23</title>
<path fill="none" stroke="midnightblue" d="M1760.63,-112.48C1779.9,-100.15 1809.72,-76.57 1795,-56 1773.48,-25.93 1730.65,-15.72 1699.6,-12.38"/>
<polygon fill="midnightblue" stroke="midnightblue" points="1699.84,-8.89 1689.57,-11.49 1699.22,-15.86 1699.84,-8.89"/>
</g>
<!-- Node42&#45;&gt;Node24 -->
<g id="edge66" class="edge">
<title>Node42&#45;&gt;Node24</title>
<path fill="none" stroke="midnightblue" d="M1774.6,-114.08C1777.77,-113.35 1780.95,-112.65 1784,-112 1868.5,-94.04 1899.97,-118.82 1975,-76 1995.08,-64.54 2011.63,-43.34 2021.63,-28.27"/>
<polygon fill="midnightblue" stroke="midnightblue" points="2024.59,-30.14 2026.98,-19.82 2018.68,-26.39 2024.59,-30.14"/>
</g>
<!-- Node42&#45;&gt;Node31 -->
<g id="edge65" class="edge">
<title>Node42&#45;&gt;Node31</title>
<path fill="none" stroke="midnightblue" d="M1717.47,-118.65C1641.95,-112.38 1430.59,-94.44 1255,-76 1243.04,-74.74 1230.04,-73.25 1218.23,-71.85"/>
<polygon fill="midnightblue" stroke="midnightblue" points="1218.56,-68.36 1208.21,-70.64 1217.72,-75.31 1218.56,-68.36"/>
</g>
<!-- Node42&#45;&gt;Node33 -->
<g id="edge61" class="edge">
<title>Node42&#45;&gt;Node33</title>
<path fill="none" stroke="midnightblue" d="M1717.44,-119.64C1616.03,-114.67 1272.83,-96.87 1141.77,-75.69"/>
<polygon fill="midnightblue" stroke="midnightblue" points="1142.04,-72.18 1131.6,-73.96 1140.87,-79.08 1142.04,-72.18"/>
</g>
<!-- Node43 -->
<g id="node42" class="node">
<title>Node43</title>
<g id="a_node42"><a xlink:title=" ">
<polygon fill="white" stroke="#bfbfbf" points="2060.5,-56.5 2060.5,-75.5 2133.5,-75.5 2133.5,-56.5 2060.5,-56.5"/>
<text text-anchor="middle" x="2097" y="-63.5" font-family="Helvetica,sans-Serif" font-size="10.00">wx/debug.h</text>
</a>
</g>
</g>
<!-- Node42&#45;&gt;Node43 -->
<g id="edge59" class="edge">
<title>Node42&#45;&gt;Node43</title>
<path fill="none" stroke="midnightblue" d="M1774.57,-113.94C1777.75,-113.25 1780.94,-112.58 1784,-112 1877.81,-94.18 1988.64,-79.8 2050.05,-72.42"/>
<polygon fill="midnightblue" stroke="midnightblue" points="2050.69,-75.86 2060.2,-71.2 2049.86,-68.91 2050.69,-75.86"/>
</g>
<!-- Node44 -->
<g id="node43" class="node">
<title>Node44</title>
<g id="a_node43"><a xlink:title=" ">
<polygon fill="white" stroke="#bfbfbf" points="1842,-56.5 1842,-75.5 1904,-75.5 1904,-56.5 1842,-56.5"/>
<text text-anchor="middle" x="1873" y="-63.5" font-family="Helvetica,sans-Serif" font-size="10.00">cinttypes</text>
</a>
</g>
</g>
<!-- Node42&#45;&gt;Node44 -->
<g id="edge64" class="edge">
<title>Node42&#45;&gt;Node44</title>
<path fill="none" stroke="midnightblue" d="M1766.12,-112.44C1787.02,-103.56 1819.93,-89.56 1843.72,-79.45"/>
<polygon fill="midnightblue" stroke="midnightblue" points="1845.14,-82.65 1852.97,-75.52 1842.4,-76.21 1845.14,-82.65"/>
</g>
<!-- Node45&#45;&gt;Node24 -->
<g id="edge70" class="edge">
<title>Node45&#45;&gt;Node24</title>
<path fill="none" stroke="midnightblue" d="M1876.64,-112.43C1924.34,-102.06 1998.2,-84.89 2008,-76 2021.21,-64.02 2027.17,-44.13 2029.84,-29.49"/>
<polygon fill="midnightblue" stroke="midnightblue" points="2033.31,-29.96 2031.32,-19.55 2026.39,-28.93 2033.31,-29.96"/>
</g>
<!-- Node45&#45;&gt;Node31 -->
<g id="edge69" class="edge">
<title>Node45&#45;&gt;Node31</title>
<path fill="none" stroke="midnightblue" d="M1792.95,-113.32C1789.59,-112.83 1786.24,-112.39 1783,-112 1549.43,-84.28 1489.2,-97.84 1255,-76 1243.03,-74.88 1230.02,-73.43 1218.21,-72.02"/>
<polygon fill="midnightblue" stroke="midnightblue" points="1218.55,-68.54 1208.2,-70.8 1217.7,-75.49 1218.55,-68.54"/>
</g>
<!-- Node45&#45;&gt;Node43 -->
<g id="edge68" class="edge">
<title>Node45&#45;&gt;Node43</title>
<path fill="none" stroke="midnightblue" d="M1877.36,-112.44C1924.46,-102.7 2001.24,-86.81 2050.42,-76.64"/>
<polygon fill="midnightblue" stroke="midnightblue" points="2051.39,-80.01 2060.47,-74.56 2049.97,-73.16 2051.39,-80.01"/>
</g>
<!-- Node47 -->
<g id="node46" class="node">
<title>Node47</title>
<g id="a_node46"><a xlink:title=" ">
<polygon fill="white" stroke="#bfbfbf" points="1398.5,-168.5 1398.5,-187.5 1469.5,-187.5 1469.5,-168.5 1398.5,-168.5"/>
<text text-anchor="middle" x="1434" y="-175.5" font-family="Helvetica,sans-Serif" font-size="10.00">wx/string.h</text>
</a>
</g>
</g>
<!-- Node46&#45;&gt;Node47 -->
<g id="edge73" class="edge">
<title>Node46&#45;&gt;Node47</title>
<path fill="none" stroke="midnightblue" d="M1518.77,-224.32C1502.65,-215.7 1477.7,-202.36 1459.04,-192.39"/>
<polygon fill="midnightblue" stroke="midnightblue" points="1460.66,-189.28 1450.19,-187.65 1457.36,-195.46 1460.66,-189.28"/>
</g>
<!-- Node48 -->
<g id="node47" class="node">
<title>Node48</title>
<g id="a_node47"><a xlink:title=" ">
<polygon fill="white" stroke="#bfbfbf" points="1487.5,-168.5 1487.5,-187.5 1582.5,-187.5 1582.5,-168.5 1487.5,-168.5"/>
<text text-anchor="middle" x="1535" y="-175.5" font-family="Helvetica,sans-Serif" font-size="10.00">wx/translation.h</text>
</a>
</g>
</g>
<!-- Node46&#45;&gt;Node48 -->
<g id="edge74" class="edge">
<title>Node46&#45;&gt;Node48</title>
<path fill="none" stroke="midnightblue" d="M1535,-224.08C1535,-217.01 1535,-206.86 1535,-197.99"/>
<polygon fill="midnightblue" stroke="midnightblue" points="1538.5,-197.75 1535,-187.75 1531.5,-197.75 1538.5,-197.75"/>
</g>
<!-- Node49&#45;&gt;Node14 -->
<g id="edge78" class="edge">
<title>Node49&#45;&gt;Node14</title>
<path fill="none" stroke="midnightblue" d="M1922.78,-112.44C1888.47,-103.04 1833.29,-87.91 1796.12,-77.72"/>
<polygon fill="midnightblue" stroke="midnightblue" points="1796.71,-74.26 1786.14,-74.99 1794.86,-81.01 1796.71,-74.26"/>
</g>
<!-- Node49&#45;&gt;Node24 -->
<g id="edge80" class="edge">
<title>Node49&#45;&gt;Node24</title>
<path fill="none" stroke="midnightblue" d="M2010.52,-115.22C2060.08,-108.84 2126.69,-96.65 2143,-76 2165.14,-47.97 2116.28,-29.59 2076.51,-19.75"/>
<polygon fill="midnightblue" stroke="midnightblue" points="2077.17,-16.31 2066.64,-17.43 2075.57,-23.12 2077.17,-16.31"/>
</g>
<!-- Node49&#45;&gt;Node29 -->
<g id="edge79" class="edge">
<title>Node49&#45;&gt;Node29</title>
<path fill="none" stroke="midnightblue" d="M1952.35,-112.08C1951.02,-104.93 1949.12,-94.64 1947.46,-85.69"/>
<polygon fill="midnightblue" stroke="midnightblue" points="1950.88,-84.95 1945.62,-75.75 1944,-86.22 1950.88,-84.95"/>
</g>
<!-- Node49&#45;&gt;Node43 -->
<g id="edge77" class="edge">
<title>Node49&#45;&gt;Node43</title>
<path fill="none" stroke="midnightblue" d="M1976.66,-112.44C2000.4,-103.48 2037.91,-89.31 2064.74,-79.18"/>
<polygon fill="midnightblue" stroke="midnightblue" points="2066.33,-82.32 2074.45,-75.52 2063.86,-75.77 2066.33,-82.32"/>
</g>
</g>
</svg>
