<?xml version="1.0" encoding="UTF-8" standalone="no"?>
<!DOCTYPE svg PUBLIC "-//W3C//DTD SVG 1.1//EN"
 "http://www.w3.org/Graphics/SVG/1.1/DTD/svg11.dtd">
<!-- Generated by graphviz version 2.43.0 (0)
 -->
<!-- Title: src/ErrorRedirector.h Pages: 1 -->
<svg width="1176pt" height="308pt"
 viewBox="0.00 0.00 1176.00 308.00" xmlns="http://www.w3.org/2000/svg" xmlns:xlink="http://www.w3.org/1999/xlink">
<g id="graph0" class="graph" transform="scale(1 1) rotate(0) translate(4 304)">
<title>src/ErrorRedirector.h</title>
<polygon fill="white" stroke="transparent" points="-4,4 -4,-304 1172,-304 1172,4 -4,4"/>
<!-- Node1 -->
<g id="node1" class="node">
<title>Node1</title>
<g id="a_node1"><a xlink:title="This file defines the class ErrorRedirector that redirects wx Errors to a dialogue.">
<polygon fill="#bfbfbf" stroke="black" points="680,-280.5 680,-299.5 796,-299.5 796,-280.5 680,-280.5"/>
<text text-anchor="middle" x="738" y="-287.5" font-family="Helvetica,sans-Serif" font-size="10.00">src/ErrorRedirector.h</text>
</a>
</g>
</g>
<!-- Node2 -->
<g id="node2" class="node">
<title>Node2</title>
<g id="a_node2"><a xlink:href="Autocomplete_8cpp.html" target="_top" xlink:title="This file defines the class AutoComplete.">
<polygon fill="white" stroke="black" points="0,-224.5 0,-243.5 122,-243.5 122,-224.5 0,-224.5"/>
<text text-anchor="middle" x="61" y="-231.5" font-family="Helvetica,sans-Serif" font-size="10.00">src/Autocomplete.cpp</text>
</a>
</g>
</g>
<!-- Node1&#45;&gt;Node2 -->
<g id="edge1" class="edge">
<title>Node1&#45;&gt;Node2</title>
<path fill="none" stroke="midnightblue" d="M669.55,-285.13C557.03,-278.5 325.98,-263.75 131,-244 128.07,-243.7 125.08,-243.38 122.06,-243.05"/>
<polygon fill="midnightblue" stroke="midnightblue" points="669.55,-288.64 679.74,-285.73 669.96,-281.65 669.55,-288.64"/>
</g>
<!-- Node3 -->
<g id="node3" class="node">
<title>Node3</title>
<g id="a_node3"><a xlink:href="Configuration_8cpp.html" target="_top" xlink:title="This file defines the class Configuration which serves as a fast configuration storage.">
<polygon fill="white" stroke="black" points="140.5,-224.5 140.5,-243.5 259.5,-243.5 259.5,-224.5 140.5,-224.5"/>
<text text-anchor="middle" x="200" y="-231.5" font-family="Helvetica,sans-Serif" font-size="10.00">src/Configuration.cpp</text>
</a>
</g>
</g>
<!-- Node1&#45;&gt;Node3 -->
<g id="edge2" class="edge">
<title>Node1&#45;&gt;Node3</title>
<path fill="none" stroke="midnightblue" d="M669.71,-283.24C578.17,-275.34 410.67,-260.27 268,-244 265.28,-243.69 262.5,-243.36 259.69,-243.02"/>
<polygon fill="midnightblue" stroke="midnightblue" points="669.41,-286.73 679.68,-284.1 670.01,-279.75 669.41,-286.73"/>
</g>
<!-- Node4 -->
<g id="node4" class="node">
<title>Node4</title>
<g id="a_node4"><a xlink:href="ErrorRedirector_8cpp.html" target="_top" xlink:title="This file contains the class ErrorRedirector that redirects wx Errors to a dialogue.">
<polygon fill="white" stroke="black" points="277.5,-224.5 277.5,-243.5 404.5,-243.5 404.5,-224.5 277.5,-224.5"/>
<text text-anchor="middle" x="341" y="-231.5" font-family="Helvetica,sans-Serif" font-size="10.00">src/ErrorRedirector.cpp</text>
</a>
</g>
</g>
<!-- Node1&#45;&gt;Node4 -->
<g id="edge3" class="edge">
<title>Node1&#45;&gt;Node4</title>
<path fill="none" stroke="midnightblue" d="M669.6,-279.7C594.8,-269.52 475.97,-253.36 403.57,-243.51"/>
<polygon fill="midnightblue" stroke="midnightblue" points="669.47,-283.21 679.85,-281.09 670.41,-276.27 669.47,-283.21"/>
</g>
<!-- Node5 -->
<g id="node5" class="node">
<title>Node5</title>
<g id="a_node5"><a xlink:href="SVGout_8cpp.html" target="_top" xlink:title="This file defines the class Svgout that renders math as scalable vector graphics.">
<polygon fill="white" stroke="black" points="423,-224.5 423,-243.5 575,-243.5 575,-224.5 423,-224.5"/>
<text text-anchor="middle" x="499" y="-231.5" font-family="Helvetica,sans-Serif" font-size="10.00">src/graphical_io/SVGout.cpp</text>
</a>
</g>
</g>
<!-- Node1&#45;&gt;Node5 -->
<g id="edge4" class="edge">
<title>Node1&#45;&gt;Node5</title>
<path fill="none" stroke="midnightblue" d="M690.28,-278.22C645.11,-268.01 578.23,-252.9 536.69,-243.52"/>
<polygon fill="midnightblue" stroke="midnightblue" points="689.6,-281.65 700.13,-280.44 691.15,-274.83 689.6,-281.65"/>
</g>
<!-- Node6 -->
<g id="node6" class="node">
<title>Node6</title>
<g id="a_node6"><a xlink:href="Image_8cpp.html" target="_top" xlink:title="This file declares the class Image.">
<polygon fill="white" stroke="black" points="593.5,-224.5 593.5,-243.5 678.5,-243.5 678.5,-224.5 593.5,-224.5"/>
<text text-anchor="middle" x="636" y="-231.5" font-family="Helvetica,sans-Serif" font-size="10.00">src/Image.cpp</text>
</a>
</g>
</g>
<!-- Node1&#45;&gt;Node6 -->
<g id="edge5" class="edge">
<title>Node1&#45;&gt;Node6</title>
<path fill="none" stroke="midnightblue" d="M712.67,-275.59C693.81,-265.61 668.62,-252.27 652.35,-243.65"/>
<polygon fill="midnightblue" stroke="midnightblue" points="711.14,-278.74 721.61,-280.32 714.41,-272.55 711.14,-278.74"/>
</g>
<!-- Node7 -->
<g id="node7" class="node">
<title>Node7</title>
<g id="a_node7"><a xlink:href="LogPane_8h_source.html" target="_top" xlink:title=" ">
<polygon fill="white" stroke="black" points="696.5,-224.5 696.5,-243.5 779.5,-243.5 779.5,-224.5 696.5,-224.5"/>
<text text-anchor="middle" x="738" y="-231.5" font-family="Helvetica,sans-Serif" font-size="10.00">src/LogPane.h</text>
</a>
</g>
</g>
<!-- Node1&#45;&gt;Node7 -->
<g id="edge6" class="edge">
<title>Node1&#45;&gt;Node7</title>
<path fill="none" stroke="midnightblue" d="M738,-269.8C738,-260.91 738,-250.78 738,-243.75"/>
<polygon fill="midnightblue" stroke="midnightblue" points="734.5,-270.08 738,-280.08 741.5,-270.08 734.5,-270.08"/>
</g>
<!-- Node13 -->
<g id="node13" class="node">
<title>Node13</title>
<g id="a_node13"><a xlink:href="MaximaManual_8cpp.html" target="_top" xlink:title="This file defines the class MaximaManual.">
<polygon fill="white" stroke="black" points="749,-0.5 749,-19.5 879,-19.5 879,-0.5 749,-0.5"/>
<text text-anchor="middle" x="814" y="-7.5" font-family="Helvetica,sans-Serif" font-size="10.00">src/MaximaManual.cpp</text>
</a>
</g>
</g>
<!-- Node1&#45;&gt;Node13 -->
<g id="edge23" class="edge">
<title>Node1&#45;&gt;Node13</title>
<path fill="none" stroke="midnightblue" d="M798.9,-277.65C820.51,-270.97 843.52,-260.47 860,-244 881.78,-222.23 884,-209.8 884,-179 884,-179 884,-179 884,-121 884,-90.2 876.75,-81.84 860,-56 850.52,-41.37 835.51,-27.86 825.23,-19.54"/>
<polygon fill="midnightblue" stroke="midnightblue" points="797.75,-274.33 789.1,-280.45 799.68,-281.06 797.75,-274.33"/>
</g>
<!-- Node14 -->
<g id="node14" class="node">
<title>Node14</title>
<g id="a_node14"><a xlink:href="wxMaxima_8cpp.html" target="_top" xlink:title="This file defines the contents of the class wxMaxima that contains most of the program&#39;s logic.">
<polygon fill="white" stroke="black" points="543,-0.5 543,-19.5 651,-19.5 651,-0.5 543,-0.5"/>
<text text-anchor="middle" x="597" y="-7.5" font-family="Helvetica,sans-Serif" font-size="10.00">src/wxMaxima.cpp</text>
</a>
</g>
</g>
<!-- Node1&#45;&gt;Node14 -->
<g id="edge26" class="edge">
<title>Node1&#45;&gt;Node14</title>
<path fill="none" stroke="midnightblue" d="M765.75,-275.84C797.75,-258.51 846,-224.79 846,-179 846,-179 846,-179 846,-121 846,-90.9 849.23,-76.29 827,-56 801.79,-32.99 710.86,-20.82 651.17,-15.15"/>
<polygon fill="midnightblue" stroke="midnightblue" points="764.07,-272.77 756.81,-280.49 767.3,-278.98 764.07,-272.77"/>
</g>
<!-- Node15 -->
<g id="node15" class="node">
<title>Node15</title>
<g id="a_node15"><a xlink:href="Worksheet_8cpp.html" target="_top" xlink:title="This file defines the class Worksheet.">
<polygon fill="white" stroke="black" points="712,-56.5 712,-75.5 818,-75.5 818,-56.5 712,-56.5"/>
<text text-anchor="middle" x="765" y="-63.5" font-family="Helvetica,sans-Serif" font-size="10.00">src/Worksheet.cpp</text>
</a>
</g>
</g>
<!-- Node1&#45;&gt;Node15 -->
<g id="edge25" class="edge">
<title>Node1&#45;&gt;Node15</title>
<path fill="none" stroke="midnightblue" d="M762.12,-274.47C772.44,-266.83 783.38,-256.44 789,-244 816.04,-184.08 781.84,-102.02 769.28,-75.58"/>
<polygon fill="midnightblue" stroke="midnightblue" points="759.99,-271.69 753.73,-280.24 763.96,-277.46 759.99,-271.69"/>
</g>
<!-- Node18 -->
<g id="node18" class="node">
<title>Node18</title>
<g id="a_node18"><a xlink:href="MathParser_8cpp.html" target="_top" xlink:title="This file defines the class MathParser that reads wxmx data and math from Maxima.">
<polygon fill="white" stroke="black" points="912,-224.5 912,-243.5 1020,-243.5 1020,-224.5 912,-224.5"/>
<text text-anchor="middle" x="966" y="-231.5" font-family="Helvetica,sans-Serif" font-size="10.00">src/MathParser.cpp</text>
</a>
</g>
</g>
<!-- Node1&#45;&gt;Node18 -->
<g id="edge22" class="edge">
<title>Node1&#45;&gt;Node18</title>
<path fill="none" stroke="midnightblue" d="M784.07,-278.09C827.15,-267.89 890.59,-252.86 930.04,-243.52"/>
<polygon fill="midnightblue" stroke="midnightblue" points="783.05,-274.73 774.13,-280.44 784.66,-281.54 783.05,-274.73"/>
</g>
<!-- Node19 -->
<g id="node19" class="node">
<title>Node19</title>
<g id="a_node19"><a xlink:href="UnicodeSidebar_8cpp.html" target="_top" xlink:title="This file defines the class UnicodeSidebar.">
<polygon fill="white" stroke="black" points="1038,-224.5 1038,-243.5 1168,-243.5 1168,-224.5 1038,-224.5"/>
<text text-anchor="middle" x="1103" y="-231.5" font-family="Helvetica,sans-Serif" font-size="10.00">src/UnicodeSidebar.cpp</text>
</a>
</g>
</g>
<!-- Node1&#45;&gt;Node19 -->
<g id="edge24" class="edge">
<title>Node1&#45;&gt;Node19</title>
<path fill="none" stroke="midnightblue" d="M805.73,-278.98C874.68,-268.78 980.41,-253.14 1045.44,-243.52"/>
<polygon fill="midnightblue" stroke="midnightblue" points="805.22,-275.52 795.84,-280.44 806.24,-282.44 805.22,-275.52"/>
</g>
<!-- Node8 -->
<g id="node8" class="node">
<title>Node8</title>
<g id="a_node8"><a xlink:href="wxMaximaFrame_8h.html" target="_top" xlink:title="This file declares the class wxMaximaFrame.">
<polygon fill="white" stroke="black" points="510,-168.5 510,-187.5 638,-187.5 638,-168.5 510,-168.5"/>
<text text-anchor="middle" x="574" y="-175.5" font-family="Helvetica,sans-Serif" font-size="10.00">src/wxMaximaFrame.h</text>
</a>
</g>
</g>
<!-- Node7&#45;&gt;Node8 -->
<g id="edge7" class="edge">
<title>Node7&#45;&gt;Node8</title>
<path fill="none" stroke="midnightblue" d="M702.48,-221.3C671.58,-211.13 627.53,-196.62 599.86,-187.52"/>
<polygon fill="midnightblue" stroke="midnightblue" points="701.42,-224.64 712.01,-224.44 703.61,-217.99 701.42,-224.64"/>
</g>
<!-- Node9 -->
<g id="node9" class="node">
<title>Node9</title>
<g id="a_node9"><a xlink:href="AutocompletePopup_8cpp.html" target="_top" xlink:title="This file defines the class AutocompletePopup.">
<polygon fill="white" stroke="black" points="278,-112.5 278,-131.5 430,-131.5 430,-112.5 278,-112.5"/>
<text text-anchor="middle" x="354" y="-119.5" font-family="Helvetica,sans-Serif" font-size="10.00">src/AutocompletePopup.cpp</text>
</a>
</g>
</g>
<!-- Node8&#45;&gt;Node9 -->
<g id="edge8" class="edge">
<title>Node8&#45;&gt;Node9</title>
<path fill="none" stroke="midnightblue" d="M529.28,-166.02C487.72,-155.82 426.69,-140.84 388.7,-131.52"/>
<polygon fill="midnightblue" stroke="midnightblue" points="528.59,-169.46 539.14,-168.44 530.26,-162.66 528.59,-169.46"/>
</g>
<!-- Node10 -->
<g id="node10" class="node">
<title>Node10</title>
<g id="a_node10"><a xlink:href="EditorCell_8cpp.html" target="_top" xlink:title="This file defines the class EditorCell.">
<polygon fill="white" stroke="black" points="263.5,-56.5 263.5,-75.5 390.5,-75.5 390.5,-56.5 263.5,-56.5"/>
<text text-anchor="middle" x="327" y="-63.5" font-family="Helvetica,sans-Serif" font-size="10.00">src/cells/EditorCell.cpp</text>
</a>
</g>
</g>
<!-- Node8&#45;&gt;Node10 -->
<g id="edge9" class="edge">
<title>Node8&#45;&gt;Node10</title>
<path fill="none" stroke="midnightblue" d="M499.78,-176.74C419.25,-174.68 298.22,-165.85 269,-132 251.31,-111.51 286.71,-87.89 309.61,-75.54"/>
<polygon fill="midnightblue" stroke="midnightblue" points="499.8,-180.24 509.88,-176.96 499.96,-173.24 499.8,-180.24"/>
</g>
<!-- Node11 -->
<g id="node11" class="node">
<title>Node11</title>
<g id="a_node11"><a xlink:href="main_8h.html" target="_top" xlink:title="This file declares the class wxMaxima that contains most of the program&#39;s logic.">
<polygon fill="white" stroke="black" points="551,-56.5 551,-75.5 619,-75.5 619,-56.5 551,-56.5"/>
<text text-anchor="middle" x="585" y="-63.5" font-family="Helvetica,sans-Serif" font-size="10.00">src/main.h</text>
</a>
</g>
</g>
<!-- Node8&#45;&gt;Node11 -->
<g id="edge10" class="edge">
<title>Node8&#45;&gt;Node11</title>
<path fill="none" stroke="midnightblue" d="M575.87,-158.35C578.27,-134.25 582.37,-93.31 584.14,-75.59"/>
<polygon fill="midnightblue" stroke="midnightblue" points="572.38,-158.07 574.86,-168.37 579.34,-158.77 572.38,-158.07"/>
</g>
<!-- Node8&#45;&gt;Node15 -->
<g id="edge14" class="edge">
<title>Node8&#45;&gt;Node15</title>
<path fill="none" stroke="midnightblue" d="M645.14,-166.7C687.62,-159.11 736.13,-147.43 751,-132 765.74,-116.71 766.52,-89.82 765.8,-75.9"/>
<polygon fill="midnightblue" stroke="midnightblue" points="644.31,-163.29 635.06,-168.45 645.51,-170.19 644.31,-163.29"/>
</g>
<!-- Node16 -->
<g id="node16" class="node">
<title>Node16</title>
<g id="a_node16"><a xlink:href="wxMaxima_8h.html" target="_top" xlink:title="This file declares the class wxMaxima that contains most of the program&#39;s logic.">
<polygon fill="white" stroke="black" points="448.5,-112.5 448.5,-131.5 545.5,-131.5 545.5,-112.5 448.5,-112.5"/>
<text text-anchor="middle" x="497" y="-119.5" font-family="Helvetica,sans-Serif" font-size="10.00">src/wxMaxima.h</text>
</a>
</g>
</g>
<!-- Node8&#45;&gt;Node16 -->
<g id="edge15" class="edge">
<title>Node8&#45;&gt;Node16</title>
<path fill="none" stroke="midnightblue" d="M553.1,-162.34C539.09,-152.52 521.12,-139.91 509.34,-131.65"/>
<polygon fill="midnightblue" stroke="midnightblue" points="551.43,-165.45 561.63,-168.32 555.45,-159.72 551.43,-165.45"/>
</g>
<!-- Node17 -->
<g id="node17" class="node">
<title>Node17</title>
<g id="a_node17"><a xlink:href="wxMaximaFrame_8cpp.html" target="_top" xlink:title="This file defines the class wxMaximaFrame.">
<polygon fill="white" stroke="black" points="602.5,-112.5 602.5,-131.5 741.5,-131.5 741.5,-112.5 602.5,-112.5"/>
<text text-anchor="middle" x="672" y="-119.5" font-family="Helvetica,sans-Serif" font-size="10.00">src/wxMaximaFrame.cpp</text>
</a>
</g>
</g>
<!-- Node8&#45;&gt;Node17 -->
<g id="edge21" class="edge">
<title>Node8&#45;&gt;Node17</title>
<path fill="none" stroke="midnightblue" d="M598.59,-163.45C616.68,-153.48 640.73,-140.23 656.29,-131.65"/>
<polygon fill="midnightblue" stroke="midnightblue" points="596.81,-160.43 589.75,-168.32 600.19,-166.56 596.81,-160.43"/>
</g>
<!-- Node12 -->
<g id="node12" class="node">
<title>Node12</title>
<g id="a_node12"><a xlink:href="main_8cpp.html" target="_top" xlink:title="The file that defines the starting point of the program.">
<polygon fill="white" stroke="black" points="445.5,-0.5 445.5,-19.5 524.5,-19.5 524.5,-0.5 445.5,-0.5"/>
<text text-anchor="middle" x="485" y="-7.5" font-family="Helvetica,sans-Serif" font-size="10.00">src/main.cpp</text>
</a>
</g>
</g>
<!-- Node11&#45;&gt;Node12 -->
<g id="edge11" class="edge">
<title>Node11&#45;&gt;Node12</title>
<path fill="none" stroke="midnightblue" d="M559.91,-51.45C541.45,-41.48 516.9,-28.23 501.03,-19.65"/>
<polygon fill="midnightblue" stroke="midnightblue" points="558.47,-54.65 568.93,-56.32 561.8,-48.49 558.47,-54.65"/>
</g>
<!-- Node11&#45;&gt;Node13 -->
<g id="edge12" class="edge">
<title>Node11&#45;&gt;Node13</title>
<path fill="none" stroke="midnightblue" d="M629.22,-54.57C672.4,-44.39 737.3,-29.09 777.59,-19.59"/>
<polygon fill="midnightblue" stroke="midnightblue" points="628.21,-51.21 619.28,-56.92 629.82,-58.03 628.21,-51.21"/>
</g>
<!-- Node11&#45;&gt;Node14 -->
<g id="edge13" class="edge">
<title>Node11&#45;&gt;Node14</title>
<path fill="none" stroke="midnightblue" d="M589.2,-46.1C591.19,-37.14 593.48,-26.86 595.06,-19.75"/>
<polygon fill="midnightblue" stroke="midnightblue" points="585.73,-45.56 586.98,-56.08 592.57,-47.08 585.73,-45.56"/>
</g>
<!-- Node16&#45;&gt;Node10 -->
<g id="edge16" class="edge">
<title>Node16&#45;&gt;Node10</title>
<path fill="none" stroke="midnightblue" d="M460.18,-109.3C428.15,-99.13 382.48,-84.62 353.81,-75.52"/>
<polygon fill="midnightblue" stroke="midnightblue" points="459.47,-112.75 470.06,-112.44 461.59,-106.08 459.47,-112.75"/>
</g>
<!-- Node16&#45;&gt;Node11 -->
<g id="edge18" class="edge">
<title>Node16&#45;&gt;Node11</title>
<path fill="none" stroke="midnightblue" d="M519.98,-106.9C536.11,-97 557.18,-84.07 570.9,-75.65"/>
<polygon fill="midnightblue" stroke="midnightblue" points="517.83,-104.11 511.14,-112.32 521.49,-110.08 517.83,-104.11"/>
</g>
<!-- Node16&#45;&gt;Node12 -->
<g id="edge17" class="edge">
<title>Node16&#45;&gt;Node12</title>
<path fill="none" stroke="midnightblue" d="M494.97,-102.35C492.34,-78.25 487.87,-37.31 485.94,-19.59"/>
<polygon fill="midnightblue" stroke="midnightblue" points="491.49,-102.81 496.06,-112.37 498.45,-102.05 491.49,-102.81"/>
</g>
<!-- Node16&#45;&gt;Node14 -->
<g id="edge20" class="edge">
<title>Node16&#45;&gt;Node14</title>
<path fill="none" stroke="midnightblue" d="M507.18,-103.59C515.61,-89.92 528.37,-70.77 542,-56 555.05,-41.86 572.62,-28.24 584.35,-19.76"/>
<polygon fill="midnightblue" stroke="midnightblue" points="504.01,-102.07 501.86,-112.45 510.01,-105.68 504.01,-102.07"/>
</g>
<!-- Node16&#45;&gt;Node15 -->
<g id="edge19" class="edge">
<title>Node16&#45;&gt;Node15</title>
<path fill="none" stroke="midnightblue" d="M549.56,-110.41C600.21,-100.2 675.87,-84.96 722.73,-75.52"/>
<polygon fill="midnightblue" stroke="midnightblue" points="548.58,-107.04 539.47,-112.44 549.96,-113.9 548.58,-107.04"/>
</g>
</g>
</svg>
