<?xml version="1.0" encoding="UTF-8" standalone="no"?>
<!DOCTYPE svg PUBLIC "-//W3C//DTD SVG 1.1//EN"
 "http://www.w3.org/Graphics/SVG/1.1/DTD/svg11.dtd">
<!-- Generated by graphviz version 2.43.0 (0)
 -->
<!-- Title: src/ErrorRedirector.h Pages: 1 -->
<svg width="1840pt" height="308pt"
 viewBox="0.00 0.00 1839.50 308.00" xmlns="http://www.w3.org/2000/svg" xmlns:xlink="http://www.w3.org/1999/xlink">
<g id="graph0" class="graph" transform="scale(1 1) rotate(0) translate(4 304)">
<title>src/ErrorRedirector.h</title>
<polygon fill="white" stroke="transparent" points="-4,4 -4,-304 1835.5,-304 1835.5,4 -4,4"/>
<!-- Node1 -->
<g id="node1" class="node">
<title>Node1</title>
<g id="a_node1"><a xlink:title="This file defines the class ErrorRedirector that redirects wx Errors to a dialogue.">
<polygon fill="#bfbfbf" stroke="black" points="860.5,-280.5 860.5,-299.5 976.5,-299.5 976.5,-280.5 860.5,-280.5"/>
<text text-anchor="middle" x="918.5" y="-287.5" font-family="Helvetica,sans-Serif" font-size="10.00">src/ErrorRedirector.h</text>
</a>
</g>
</g>
<!-- Node2 -->
<g id="node2" class="node">
<title>Node2</title>
<g id="a_node2"><a xlink:href="AnimationCell_8cpp.html" target="_top" xlink:title="This file defines the class AnimationCell.">
<polygon fill="white" stroke="black" points="0,-224.5 0,-243.5 149,-243.5 149,-224.5 0,-224.5"/>
<text text-anchor="middle" x="74.5" y="-231.5" font-family="Helvetica,sans-Serif" font-size="10.00">src/cells/AnimationCell.cpp</text>
</a>
</g>
</g>
<!-- Node1&#45;&gt;Node2 -->
<g id="edge1" class="edge">
<title>Node1&#45;&gt;Node2</title>
<path fill="none" stroke="midnightblue" d="M850.21,-286.05C717.03,-280.05 413.33,-265.18 158.5,-244 155.43,-243.74 152.3,-243.47 149.14,-243.18"/>
<polygon fill="midnightblue" stroke="midnightblue" points="850.12,-289.55 860.27,-286.5 850.44,-282.55 850.12,-289.55"/>
</g>
<!-- Node3 -->
<g id="node3" class="node">
<title>Node3</title>
<g id="a_node3"><a xlink:href="Autocomplete_8cpp.html" target="_top" xlink:title="This file defines the class AutoComplete.">
<polygon fill="white" stroke="black" points="167.5,-224.5 167.5,-243.5 289.5,-243.5 289.5,-224.5 167.5,-224.5"/>
<text text-anchor="middle" x="228.5" y="-231.5" font-family="Helvetica,sans-Serif" font-size="10.00">src/Autocomplete.cpp</text>
</a>
</g>
</g>
<!-- Node1&#45;&gt;Node3 -->
<g id="edge2" class="edge">
<title>Node1&#45;&gt;Node3</title>
<path fill="none" stroke="midnightblue" d="M850.27,-285.29C735.98,-278.79 498.63,-264.11 298.5,-244 295.57,-243.71 292.58,-243.39 289.56,-243.05"/>
<polygon fill="midnightblue" stroke="midnightblue" points="850.1,-288.78 860.28,-285.85 850.5,-281.79 850.1,-288.78"/>
</g>
<!-- Node4 -->
<g id="node4" class="node">
<title>Node4</title>
<g id="a_node4"><a xlink:href="Configuration_8cpp.html" target="_top" xlink:title="This file defines the class Configuration which serves as a fast configuration storage.">
<polygon fill="white" stroke="black" points="308,-224.5 308,-243.5 427,-243.5 427,-224.5 308,-224.5"/>
<text text-anchor="middle" x="367.5" y="-231.5" font-family="Helvetica,sans-Serif" font-size="10.00">src/Configuration.cpp</text>
</a>
</g>
</g>
<!-- Node1&#45;&gt;Node4 -->
<g id="edge3" class="edge">
<title>Node1&#45;&gt;Node4</title>
<path fill="none" stroke="midnightblue" d="M850.25,-283.48C756.61,-275.71 583.11,-260.64 435.5,-244 432.78,-243.69 430,-243.37 427.19,-243.03"/>
<polygon fill="midnightblue" stroke="midnightblue" points="850.18,-286.98 860.43,-284.32 850.76,-280.01 850.18,-286.98"/>
</g>
<!-- Node5 -->
<g id="node5" class="node">
<title>Node5</title>
<g id="a_node5"><a xlink:href="ErrorRedirector_8cpp.html" target="_top" xlink:title="This file contains the class ErrorRedirector that redirects wx Errors to a dialogue.">
<polygon fill="white" stroke="black" points="445,-224.5 445,-243.5 572,-243.5 572,-224.5 445,-224.5"/>
<text text-anchor="middle" x="508.5" y="-231.5" font-family="Helvetica,sans-Serif" font-size="10.00">src/ErrorRedirector.cpp</text>
</a>
</g>
</g>
<!-- Node1&#45;&gt;Node5 -->
<g id="edge4" class="edge">
<title>Node1&#45;&gt;Node5</title>
<path fill="none" stroke="midnightblue" d="M850.07,-279.99C772.71,-269.8 647.75,-253.34 572.34,-243.41"/>
<polygon fill="midnightblue" stroke="midnightblue" points="849.82,-283.48 860.19,-281.32 850.74,-276.54 849.82,-283.48"/>
</g>
<!-- Node6 -->
<g id="node6" class="node">
<title>Node6</title>
<g id="a_node6"><a xlink:href="SVGout_8cpp.html" target="_top" xlink:title="This file defines the class Svgout that renders math as scalable vector graphics.">
<polygon fill="white" stroke="black" points="590.5,-224.5 590.5,-243.5 742.5,-243.5 742.5,-224.5 590.5,-224.5"/>
<text text-anchor="middle" x="666.5" y="-231.5" font-family="Helvetica,sans-Serif" font-size="10.00">src/graphical_io/SVGout.cpp</text>
</a>
</g>
</g>
<!-- Node1&#45;&gt;Node6 -->
<g id="edge5" class="edge">
<title>Node1&#45;&gt;Node6</title>
<path fill="none" stroke="midnightblue" d="M868.78,-278.35C821.16,-268.14 750.22,-252.94 706.24,-243.52"/>
<polygon fill="midnightblue" stroke="midnightblue" points="868.06,-281.77 878.57,-280.44 869.53,-274.93 868.06,-281.77"/>
</g>
<!-- Node7 -->
<g id="node7" class="node">
<title>Node7</title>
<g id="a_node7"><a xlink:href="Image_8cpp.html" target="_top" xlink:title="This file declares the class Image.">
<polygon fill="white" stroke="black" points="761,-224.5 761,-243.5 846,-243.5 846,-224.5 761,-224.5"/>
<text text-anchor="middle" x="803.5" y="-231.5" font-family="Helvetica,sans-Serif" font-size="10.00">src/Image.cpp</text>
</a>
</g>
</g>
<!-- Node1&#45;&gt;Node7 -->
<g id="edge6" class="edge">
<title>Node1&#45;&gt;Node7</title>
<path fill="none" stroke="midnightblue" d="M891.02,-276.1C869.53,-266.01 840.28,-252.27 821.64,-243.52"/>
<polygon fill="midnightblue" stroke="midnightblue" points="889.74,-279.36 900.28,-280.44 892.71,-273.02 889.74,-279.36"/>
</g>
<!-- Node8 -->
<g id="node8" class="node">
<title>Node8</title>
<g id="a_node8"><a xlink:href="MathParser_8cpp.html" target="_top" xlink:title="This file defines the class MathParser that reads wxmx data and math from Maxima.">
<polygon fill="white" stroke="black" points="864.5,-224.5 864.5,-243.5 972.5,-243.5 972.5,-224.5 864.5,-224.5"/>
<text text-anchor="middle" x="918.5" y="-231.5" font-family="Helvetica,sans-Serif" font-size="10.00">src/MathParser.cpp</text>
</a>
</g>
</g>
<!-- Node1&#45;&gt;Node8 -->
<g id="edge7" class="edge">
<title>Node1&#45;&gt;Node8</title>
<path fill="none" stroke="midnightblue" d="M918.5,-269.8C918.5,-260.91 918.5,-250.78 918.5,-243.75"/>
<polygon fill="midnightblue" stroke="midnightblue" points="915,-270.08 918.5,-280.08 922,-270.08 915,-270.08"/>
</g>
<!-- Node9 -->
<g id="node9" class="node">
<title>Node9</title>
<g id="a_node9"><a xlink:href="MaximaManual_8cpp.html" target="_top" xlink:title="This file defines the class MaximaManual.">
<polygon fill="white" stroke="black" points="811.5,-0.5 811.5,-19.5 941.5,-19.5 941.5,-0.5 811.5,-0.5"/>
<text text-anchor="middle" x="876.5" y="-7.5" font-family="Helvetica,sans-Serif" font-size="10.00">src/MaximaManual.cpp</text>
</a>
</g>
</g>
<!-- Node1&#45;&gt;Node9 -->
<g id="edge8" class="edge">
<title>Node1&#45;&gt;Node9</title>
<path fill="none" stroke="midnightblue" d="M947.34,-275.58C970.02,-263.14 995.6,-243.63 981.5,-224 906.81,-120.01 783.19,-235.99 708.5,-132 668.34,-76.09 782.27,-36.12 842.23,-19.53"/>
<polygon fill="midnightblue" stroke="midnightblue" points="945.51,-272.59 938.25,-280.3 948.74,-278.8 945.51,-272.59"/>
</g>
<!-- Node10 -->
<g id="node10" class="node">
<title>Node10</title>
<g id="a_node10"><a xlink:href="History_8cpp.html" target="_top" xlink:title="This file defines the class History.">
<polygon fill="white" stroke="black" points="1507.5,-224.5 1507.5,-243.5 1639.5,-243.5 1639.5,-224.5 1507.5,-224.5"/>
<text text-anchor="middle" x="1573.5" y="-231.5" font-family="Helvetica,sans-Serif" font-size="10.00">src/sidebars/History.cpp</text>
</a>
</g>
</g>
<!-- Node1&#45;&gt;Node10 -->
<g id="edge9" class="edge">
<title>Node1&#45;&gt;Node10</title>
<path fill="none" stroke="midnightblue" d="M986.58,-284.42C1094.28,-277.01 1310.51,-261.45 1493.5,-244 1497.95,-243.58 1502.54,-243.12 1507.16,-242.64"/>
<polygon fill="midnightblue" stroke="midnightblue" points="986.24,-280.94 976.5,-285.11 986.72,-287.92 986.24,-280.94"/>
</g>
<!-- Node11 -->
<g id="node11" class="node">
<title>Node11</title>
<g id="a_node11"><a xlink:href="LogPane_8h_source.html" target="_top" xlink:title=" ">
<polygon fill="white" stroke="black" points="1028.5,-224.5 1028.5,-243.5 1156.5,-243.5 1156.5,-224.5 1028.5,-224.5"/>
<text text-anchor="middle" x="1092.5" y="-231.5" font-family="Helvetica,sans-Serif" font-size="10.00">src/sidebars/LogPane.h</text>
</a>
</g>
</g>
<!-- Node1&#45;&gt;Node11 -->
<g id="edge10" class="edge">
<title>Node1&#45;&gt;Node11</title>
<path fill="none" stroke="midnightblue" d="M955.76,-277.44C988.57,-267.26 1035.58,-252.66 1065.06,-243.52"/>
<polygon fill="midnightblue" stroke="midnightblue" points="954.58,-274.14 946.07,-280.44 956.66,-280.82 954.58,-274.14"/>
</g>
<!-- Node17 -->
<g id="node17" class="node">
<title>Node17</title>
<g id="a_node17"><a xlink:href="wxMaxima_8cpp.html" target="_top" xlink:title="This file defines the contents of the class wxMaxima that contains most of the program&#39;s logic.">
<polygon fill="white" stroke="black" points="1266.5,-0.5 1266.5,-19.5 1374.5,-19.5 1374.5,-0.5 1266.5,-0.5"/>
<text text-anchor="middle" x="1320.5" y="-7.5" font-family="Helvetica,sans-Serif" font-size="10.00">src/wxMaxima.cpp</text>
</a>
</g>
</g>
<!-- Node1&#45;&gt;Node17 -->
<g id="edge29" class="edge">
<title>Node1&#45;&gt;Node17</title>
<path fill="none" stroke="midnightblue" d="M987.13,-289.76C1136.84,-289.57 1479.5,-278.29 1479.5,-179 1479.5,-179 1479.5,-179 1479.5,-121 1479.5,-90.9 1481.5,-77.56 1460.5,-56 1438.06,-32.95 1403.79,-21.69 1374.78,-16.2"/>
<polygon fill="midnightblue" stroke="midnightblue" points="986.69,-286.26 976.69,-289.76 986.68,-293.26 986.69,-286.26"/>
</g>
<!-- Node20 -->
<g id="node20" class="node">
<title>Node20</title>
<g id="a_node20"><a xlink:href="Worksheet_8cpp.html" target="_top" xlink:title="This file defines the class Worksheet.">
<polygon fill="white" stroke="black" points="1345.5,-56.5 1345.5,-75.5 1451.5,-75.5 1451.5,-56.5 1345.5,-56.5"/>
<text text-anchor="middle" x="1398.5" y="-63.5" font-family="Helvetica,sans-Serif" font-size="10.00">src/Worksheet.cpp</text>
</a>
</g>
</g>
<!-- Node1&#45;&gt;Node20 -->
<g id="edge28" class="edge">
<title>Node1&#45;&gt;Node20</title>
<path fill="none" stroke="midnightblue" d="M986.79,-281.41C1037.04,-274.66 1106.57,-262.88 1165.5,-244 1276.83,-208.33 1340.86,-230.71 1403.5,-132 1414.54,-114.61 1407.35,-89.09 1402.28,-75.79"/>
<polygon fill="midnightblue" stroke="midnightblue" points="986.14,-277.96 976.68,-282.73 987.05,-284.9 986.14,-277.96"/>
</g>
<!-- Node22 -->
<g id="node22" class="node">
<title>Node22</title>
<g id="a_node22"><a xlink:href="UnicodeSidebar_8cpp.html" target="_top" xlink:title="This file defines the class UnicodeSidebar.">
<polygon fill="white" stroke="black" points="1657.5,-224.5 1657.5,-243.5 1831.5,-243.5 1831.5,-224.5 1657.5,-224.5"/>
<text text-anchor="middle" x="1744.5" y="-231.5" font-family="Helvetica,sans-Serif" font-size="10.00">src/sidebars/UnicodeSidebar.cpp</text>
</a>
</g>
</g>
<!-- Node1&#45;&gt;Node22 -->
<g id="edge27" class="edge">
<title>Node1&#45;&gt;Node22</title>
<path fill="none" stroke="midnightblue" d="M986.89,-285.51C1116.2,-278.76 1405.37,-262.89 1648.5,-244 1651.42,-243.77 1654.39,-243.54 1657.39,-243.29"/>
<polygon fill="midnightblue" stroke="midnightblue" points="986.54,-282.03 976.74,-286.04 986.91,-289.02 986.54,-282.03"/>
</g>
<!-- Node12 -->
<g id="node12" class="node">
<title>Node12</title>
<g id="a_node12"><a xlink:href="wxMaximaFrame_8h.html" target="_top" xlink:title="This file declares the class wxMaximaFrame.">
<polygon fill="white" stroke="black" points="1028.5,-168.5 1028.5,-187.5 1156.5,-187.5 1156.5,-168.5 1028.5,-168.5"/>
<text text-anchor="middle" x="1092.5" y="-175.5" font-family="Helvetica,sans-Serif" font-size="10.00">src/wxMaximaFrame.h</text>
</a>
</g>
</g>
<!-- Node11&#45;&gt;Node12 -->
<g id="edge11" class="edge">
<title>Node11&#45;&gt;Node12</title>
<path fill="none" stroke="midnightblue" d="M1092.5,-213.8C1092.5,-204.91 1092.5,-194.78 1092.5,-187.75"/>
<polygon fill="midnightblue" stroke="midnightblue" points="1089,-214.08 1092.5,-224.08 1096,-214.08 1089,-214.08"/>
</g>
<!-- Node13 -->
<g id="node13" class="node">
<title>Node13</title>
<g id="a_node13"><a xlink:href="AutocompletePopup_8cpp.html" target="_top" xlink:title="This file defines the class AutocompletePopup.">
<polygon fill="white" stroke="black" points="730.5,-112.5 730.5,-131.5 882.5,-131.5 882.5,-112.5 730.5,-112.5"/>
<text text-anchor="middle" x="806.5" y="-119.5" font-family="Helvetica,sans-Serif" font-size="10.00">src/AutocompletePopup.cpp</text>
</a>
</g>
</g>
<!-- Node12&#45;&gt;Node13 -->
<g id="edge12" class="edge">
<title>Node12&#45;&gt;Node13</title>
<path fill="none" stroke="midnightblue" d="M1037.09,-166.54C983.03,-156.33 901.83,-141 851.61,-131.52"/>
<polygon fill="midnightblue" stroke="midnightblue" points="1036.71,-170.03 1047.18,-168.44 1038.01,-163.15 1036.71,-170.03"/>
</g>
<!-- Node14 -->
<g id="node14" class="node">
<title>Node14</title>
<g id="a_node14"><a xlink:href="EditorCell_8cpp.html" target="_top" xlink:title="This file defines the class EditorCell.">
<polygon fill="white" stroke="black" points="863,-56.5 863,-75.5 990,-75.5 990,-56.5 863,-56.5"/>
<text text-anchor="middle" x="926.5" y="-63.5" font-family="Helvetica,sans-Serif" font-size="10.00">src/cells/EditorCell.cpp</text>
</a>
</g>
</g>
<!-- Node12&#45;&gt;Node14 -->
<g id="edge13" class="edge">
<title>Node12&#45;&gt;Node14</title>
<path fill="none" stroke="midnightblue" d="M1018.12,-173.19C915.48,-167.15 740.81,-153.79 721.5,-132 678.54,-83.52 787.97,-70.89 862.97,-67.79"/>
<polygon fill="midnightblue" stroke="midnightblue" points="1017.94,-176.68 1028.13,-173.77 1018.35,-169.69 1017.94,-176.68"/>
</g>
<!-- Node15 -->
<g id="node15" class="node">
<title>Node15</title>
<g id="a_node15"><a xlink:href="main_8h.html" target="_top" xlink:title="This file declares the class wxMaxima that contains most of the program&#39;s logic.">
<polygon fill="white" stroke="black" points="1174.5,-56.5 1174.5,-75.5 1242.5,-75.5 1242.5,-56.5 1174.5,-56.5"/>
<text text-anchor="middle" x="1208.5" y="-63.5" font-family="Helvetica,sans-Serif" font-size="10.00">src/main.h</text>
</a>
</g>
</g>
<!-- Node12&#45;&gt;Node15 -->
<g id="edge14" class="edge">
<title>Node12&#45;&gt;Node15</title>
<path fill="none" stroke="midnightblue" d="M1093.84,-158.28C1095.75,-144.11 1100.37,-124.94 1111.5,-112 1127.72,-93.14 1153.54,-81.7 1174.46,-75.07"/>
<polygon fill="midnightblue" stroke="midnightblue" points="1090.35,-158.06 1092.82,-168.36 1097.31,-158.76 1090.35,-158.06"/>
</g>
<!-- Node18 -->
<g id="node18" class="node">
<title>Node18</title>
<g id="a_node18"><a xlink:href="GreekSidebar_8cpp.html" target="_top" xlink:title="This file defines the class GreekSidebar.">
<polygon fill="white" stroke="black" points="900.5,-112.5 900.5,-131.5 1064.5,-131.5 1064.5,-112.5 900.5,-112.5"/>
<text text-anchor="middle" x="982.5" y="-119.5" font-family="Helvetica,sans-Serif" font-size="10.00">src/sidebars/GreekSidebar.cpp</text>
</a>
</g>
</g>
<!-- Node12&#45;&gt;Node18 -->
<g id="edge18" class="edge">
<title>Node12&#45;&gt;Node18</title>
<path fill="none" stroke="midnightblue" d="M1065.74,-163.86C1045.34,-153.85 1017.83,-140.35 1000.13,-131.65"/>
<polygon fill="midnightblue" stroke="midnightblue" points="1064.31,-167.06 1074.83,-168.32 1067.39,-160.78 1064.31,-167.06"/>
</g>
<!-- Node19 -->
<g id="node19" class="node">
<title>Node19</title>
<g id="a_node19"><a xlink:href="wxMaxima_8h.html" target="_top" xlink:title="This file declares the class wxMaxima that contains most of the program&#39;s logic.">
<polygon fill="white" stroke="black" points="1278,-112.5 1278,-131.5 1375,-131.5 1375,-112.5 1278,-112.5"/>
<text text-anchor="middle" x="1326.5" y="-119.5" font-family="Helvetica,sans-Serif" font-size="10.00">src/wxMaxima.h</text>
</a>
</g>
</g>
<!-- Node12&#45;&gt;Node19 -->
<g id="edge19" class="edge">
<title>Node12&#45;&gt;Node19</title>
<path fill="none" stroke="midnightblue" d="M1139.5,-166.15C1183.72,-155.95 1249.02,-140.88 1289.6,-131.52"/>
<polygon fill="midnightblue" stroke="midnightblue" points="1138.53,-162.78 1129.58,-168.44 1140.11,-169.61 1138.53,-162.78"/>
</g>
<!-- Node12&#45;&gt;Node20 -->
<g id="edge25" class="edge">
<title>Node12&#45;&gt;Node20</title>
<path fill="none" stroke="midnightblue" d="M1166.95,-174.77C1242.6,-170.92 1352.87,-160.46 1383.5,-132 1399.28,-117.34 1400.05,-89.67 1399.29,-75.63"/>
<polygon fill="midnightblue" stroke="midnightblue" points="1166.34,-171.29 1156.52,-175.27 1166.67,-178.28 1166.34,-171.29"/>
</g>
<!-- Node21 -->
<g id="node21" class="node">
<title>Node21</title>
<g id="a_node21"><a xlink:href="wxMaximaFrame_8cpp.html" target="_top" xlink:title="This file defines the class wxMaximaFrame.">
<polygon fill="white" stroke="black" points="1121,-112.5 1121,-131.5 1260,-131.5 1260,-112.5 1121,-112.5"/>
<text text-anchor="middle" x="1190.5" y="-119.5" font-family="Helvetica,sans-Serif" font-size="10.00">src/wxMaximaFrame.cpp</text>
</a>
</g>
</g>
<!-- Node12&#45;&gt;Node21 -->
<g id="edge26" class="edge">
<title>Node12&#45;&gt;Node21</title>
<path fill="none" stroke="midnightblue" d="M1117.09,-163.45C1135.18,-153.48 1159.23,-140.23 1174.79,-131.65"/>
<polygon fill="midnightblue" stroke="midnightblue" points="1115.31,-160.43 1108.25,-168.32 1118.69,-166.56 1115.31,-160.43"/>
</g>
<!-- Node15&#45;&gt;Node9 -->
<g id="edge16" class="edge">
<title>Node15&#45;&gt;Node9</title>
<path fill="none" stroke="midnightblue" d="M1164.16,-57.79C1103.27,-47.88 993.97,-30.11 929.05,-19.55"/>
<polygon fill="midnightblue" stroke="midnightblue" points="1163.79,-61.27 1174.22,-59.42 1164.91,-54.36 1163.79,-61.27"/>
</g>
<!-- Node16 -->
<g id="node16" class="node">
<title>Node16</title>
<g id="a_node16"><a xlink:href="main_8cpp.html" target="_top" xlink:title="The file that defines the starting point of the program.">
<polygon fill="white" stroke="black" points="1169,-0.5 1169,-19.5 1248,-19.5 1248,-0.5 1169,-0.5"/>
<text text-anchor="middle" x="1208.5" y="-7.5" font-family="Helvetica,sans-Serif" font-size="10.00">src/main.cpp</text>
</a>
</g>
</g>
<!-- Node15&#45;&gt;Node16 -->
<g id="edge15" class="edge">
<title>Node15&#45;&gt;Node16</title>
<path fill="none" stroke="midnightblue" d="M1208.5,-45.8C1208.5,-36.91 1208.5,-26.78 1208.5,-19.75"/>
<polygon fill="midnightblue" stroke="midnightblue" points="1205,-46.08 1208.5,-56.08 1212,-46.08 1205,-46.08"/>
</g>
<!-- Node15&#45;&gt;Node17 -->
<g id="edge17" class="edge">
<title>Node15&#45;&gt;Node17</title>
<path fill="none" stroke="midnightblue" d="M1235.75,-51.86C1256.52,-41.85 1284.52,-28.35 1302.55,-19.65"/>
<polygon fill="midnightblue" stroke="midnightblue" points="1233.98,-48.83 1226.49,-56.32 1237.02,-55.13 1233.98,-48.83"/>
</g>
<!-- Node19&#45;&gt;Node14 -->
<g id="edge20" class="edge">
<title>Node19&#45;&gt;Node14</title>
<path fill="none" stroke="midnightblue" d="M1267.8,-111.93C1164.58,-97.2 1056.81,-83.33 990.22,-74.94"/>
<polygon fill="midnightblue" stroke="midnightblue" points="1267.38,-115.4 1277.78,-113.36 1268.37,-108.47 1267.38,-115.4"/>
</g>
<!-- Node19&#45;&gt;Node15 -->
<g id="edge21" class="edge">
<title>Node19&#45;&gt;Node15</title>
<path fill="none" stroke="midnightblue" d="M1298.6,-108.23C1276.53,-98.13 1246.32,-84.31 1227.11,-75.52"/>
<polygon fill="midnightblue" stroke="midnightblue" points="1297.25,-111.46 1307.8,-112.44 1300.17,-105.1 1297.25,-111.46"/>
</g>
<!-- Node19&#45;&gt;Node16 -->
<g id="edge22" class="edge">
<title>Node19&#45;&gt;Node16</title>
<path fill="none" stroke="midnightblue" d="M1309.89,-105.51C1284.67,-82.01 1237.58,-38.11 1217.72,-19.59"/>
<polygon fill="midnightblue" stroke="midnightblue" points="1307.54,-108.11 1317.24,-112.37 1312.31,-102.99 1307.54,-108.11"/>
</g>
<!-- Node19&#45;&gt;Node17 -->
<g id="edge24" class="edge">
<title>Node19&#45;&gt;Node17</title>
<path fill="none" stroke="midnightblue" d="M1325.48,-102.35C1324.17,-78.25 1321.93,-37.31 1320.97,-19.59"/>
<polygon fill="midnightblue" stroke="midnightblue" points="1321.99,-102.57 1326.03,-112.37 1328.98,-102.19 1321.99,-102.57"/>
</g>
<!-- Node19&#45;&gt;Node20 -->
<g id="edge23" class="edge">
<title>Node19&#45;&gt;Node20</title>
<path fill="none" stroke="midnightblue" d="M1346.37,-106.1C1359.32,-96.38 1375.8,-84.03 1386.72,-75.83"/>
<polygon fill="midnightblue" stroke="midnightblue" points="1343.97,-103.52 1338.07,-112.32 1348.17,-109.12 1343.97,-103.52"/>
</g>
</g>
</svg>
