<?xml version="1.0" encoding="UTF-8" standalone="no"?>
<!DOCTYPE svg PUBLIC "-//W3C//DTD SVG 1.1//EN"
 "http://www.w3.org/Graphics/SVG/1.1/DTD/svg11.dtd">
<!-- Generated by graphviz version 2.43.0 (0)
 -->
<!-- Title: src/EvaluationQueue.h Pages: 1 -->
<!--zoomable 368 -->
<svg id="main" version="1.1" xmlns="http://www.w3.org/2000/svg" xmlns:xlink="http://www.w3.org/1999/xlink" xml:space="preserve" onload="init(evt)">
<style type="text/css"><![CDATA[
.edge:hover path { stroke: red; }
.edge:hover polygon { stroke: red; fill: red; }
]]></style>
<script type="text/javascript"><![CDATA[
var edges = document.getElementsByTagName('g');
if (edges && edges.length) {
  for (var i=0;i<edges.length;i++) {
    if (edges[i].id.substr(0,4)=='edge') {
      edges[i].setAttribute('class','edge');
    }
  }
}
]]></script>
        <defs>
                <circle id="rim" cx="0" cy="0" r="7"/>
                <circle id="rim2" cx="0" cy="0" r="3.5"/>
                <g id="zoomPlus">
                        <use xlink:href="#rim" fill="#404040">
                                <set attributeName="fill" to="#808080" begin="zoomplus.mouseover" end="zoomplus.mouseout"/>
                        </use>
                        <path d="M-4,0h8M0,-4v8" fill="none" stroke="white" stroke-width="1.5" pointer-events="none"/>
                </g>
                <g id="zoomMin">
                        <use xlink:href="#rim" fill="#404040">
                                <set attributeName="fill" to="#808080" begin="zoomminus.mouseover" end="zoomminus.mouseout"/>
                        </use>
                        <path d="M-4,0h8" fill="none" stroke="white" stroke-width="1.5" pointer-events="none"/>
                </g>
                <g id="dirArrow">
                        <path fill="none" stroke="white" stroke-width="1.5" d="M0,-3.0v7 M-2.5,-0.5L0,-3.0L2.5,-0.5"/>
                </g>
               <g id="resetDef">
                       <use xlink:href="#rim2" fill="#404040">
                               <set attributeName="fill" to="#808080" begin="reset.mouseover" end="reset.mouseout"/>
                       </use>
               </g>
        </defs>

<script type="text/javascript">
var viewWidth = 2318;
var viewHeight = 368;
var sectionId = 'dynsection-1';
</script>
<script xlink:href="svgpan.js"/>
<svg id="graph" class="graph">
<g id="viewport">
<title>src/EvaluationQueue.h</title>
<!-- Node1 -->
<g id="node1" class="node">
<title>Node1</title>
<g id="a_node1"><a xlink:title="The evaluation queue.">
<polygon fill="#999999" stroke="#666666" points="1278.52,-360 1152.52,-360 1152.52,-341 1278.52,-341 1278.52,-360"/>
<text text-anchor="middle" x="1215.52" y="-348" font-family="Helvetica,sans-Serif" font-size="10.00">src/EvaluationQueue.h</text>
</a>
</g>
</g>
<!-- Node2 -->
<g id="node2" class="node">
<title>Node2</title>
<g id="a_node2"><a xlink:href="EvaluationQueue_8cpp.html" target="_top" xlink:title="This file defines the class EvaluationQueue.">
<polygon fill="white" stroke="#666666" points="1024.02,-305 887.02,-305 887.02,-286 1024.02,-286 1024.02,-305"/>
<text text-anchor="middle" x="955.52" y="-293" font-family="Helvetica,sans-Serif" font-size="10.00">src/EvaluationQueue.cpp</text>
</a>
</g>
</g>
<!-- Node1&#45;&gt;Node2 -->
<g id="edge1" class="edge">
<title>Node1&#45;&gt;Node2</title>
<path fill="none" stroke="#63b8ff" d="M1163.72,-338.94C1114.98,-329.01 1042.91,-314.31 997.62,-305.08"/>
<polygon fill="#63b8ff" stroke="#63b8ff" points="1163.25,-342.42 1173.74,-340.98 1164.64,-335.56 1163.25,-342.42"/>
</g>
<!-- Node3 -->
<g id="node3" class="node">
<title>Node3</title>
<g id="a_node3"><a xlink:href="Worksheet_8h.html" target="_top" xlink:title="This file defines the class Worksheet.">
<polygon fill="white" stroke="#666666" points="1162.02,-250 1067.02,-250 1067.02,-231 1162.02,-231 1162.02,-250"/>
<text text-anchor="middle" x="1114.52" y="-238" font-family="Helvetica,sans-Serif" font-size="10.00">src/Worksheet.h</text>
</a>
</g>
</g>
<!-- Node1&#45;&gt;Node3 -->
<g id="edge2" class="edge">
<title>Node1&#45;&gt;Node3</title>
<path fill="none" stroke="#63b8ff" d="M1213.71,-330.54C1211.55,-316.88 1206.83,-298.7 1196.52,-286 1182.42,-268.65 1159.7,-257.07 1141.74,-250.09"/>
<polygon fill="#63b8ff" stroke="#63b8ff" points="1210.27,-331.24 1214.98,-340.72 1217.21,-330.37 1210.27,-331.24"/>
</g>
<!-- Node28 -->
<g id="node28" class="node">
<title>Node28</title>
<g id="a_node28"><a xlink:href="test__WorksheetEvalQueue_8cpp.html" target="_top" xlink:title="Pins the worksheet&#39;s &quot;add cells to the evaluation queue&quot; behavior before the Add*ToEvaluationQueue fa...">
<polygon fill="white" stroke="#666666" points="2309.52,-195 2163.52,-195 2163.52,-165 2309.52,-165 2309.52,-195"/>
<text text-anchor="start" x="2171.52" y="-183" font-family="Helvetica,sans-Serif" font-size="10.00">test/unit_tests/test</text>
<text text-anchor="middle" x="2236.52" y="-172" font-family="Helvetica,sans-Serif" font-size="10.00">_WorksheetEvalQueue.cpp</text>
</a>
</g>
</g>
<!-- Node1&#45;&gt;Node28 -->
<g id="edge43" class="edge">
<title>Node1&#45;&gt;Node28</title>
<path fill="none" stroke="#63b8ff" d="M1226.05,-331.82C1236,-316.86 1252.39,-296.28 1272.52,-286 1444.26,-198.29 1944.1,-218.35 2135.52,-195 2144.57,-193.9 2154.06,-192.67 2163.46,-191.41"/>
<polygon fill="#63b8ff" stroke="#63b8ff" points="1222.85,-330.34 1220.47,-340.66 1228.77,-334.08 1222.85,-330.34"/>
</g>
<!-- Node31 -->
<g id="node31" class="node">
<title>Node31</title>
<g id="a_node31"><a xlink:href="WorksheetDocument_8h.html" target="_top" xlink:title="The document half of the worksheet: the state and commands that describe the edited document itself,...">
<polygon fill="white" stroke="#666666" points="1187.02,-305 1042.02,-305 1042.02,-286 1187.02,-286 1187.02,-305"/>
<text text-anchor="middle" x="1114.52" y="-293" font-family="Helvetica,sans-Serif" font-size="10.00">src/WorksheetDocument.h</text>
</a>
</g>
</g>
<!-- Node1&#45;&gt;Node31 -->
<g id="edge40" class="edge">
<title>Node1&#45;&gt;Node31</title>
<path fill="none" stroke="#63b8ff" d="M1190.24,-336.23C1171.71,-326.51 1147.1,-313.6 1131.04,-305.17"/>
<polygon fill="#63b8ff" stroke="#63b8ff" points="1188.81,-339.44 1199.29,-340.98 1192.06,-333.24 1188.81,-339.44"/>
</g>
<!-- Node32 -->
<g id="node32" class="node">
<title>Node32</title>
<g id="a_node32"><a xlink:href="WorksheetEvalQueue_8cpp.html" target="_top" xlink:title="Implementation of the document&#45;pure evaluation&#45;queue helpers &#45; see WorksheetEvalQueue....">
<polygon fill="white" stroke="#666666" points="1439.52,-305 1281.52,-305 1281.52,-286 1439.52,-286 1439.52,-305"/>
<text text-anchor="middle" x="1360.52" y="-293" font-family="Helvetica,sans-Serif" font-size="10.00">src/WorksheetEvalQueue.cpp</text>
</a>
</g>
</g>
<!-- Node1&#45;&gt;Node32 -->
<g id="edge42" class="edge">
<title>Node1&#45;&gt;Node32</title>
<path fill="none" stroke="#63b8ff" d="M1248.21,-337.55C1275.14,-327.71 1312.68,-313.98 1336.8,-305.17"/>
<polygon fill="#63b8ff" stroke="#63b8ff" points="1247,-334.26 1238.81,-340.98 1249.41,-340.84 1247,-334.26"/>
</g>
<!-- Node4 -->
<g id="node4" class="node">
<title>Node4</title>
<g id="a_node4"><a xlink:href="Worksheet_8cpp.html" target="_top" xlink:title="This file defines the class Worksheet.">
<polygon fill="white" stroke="#666666" points="2126.52,-74 2020.52,-74 2020.52,-55 2126.52,-55 2126.52,-74"/>
<text text-anchor="middle" x="2073.52" y="-62" font-family="Helvetica,sans-Serif" font-size="10.00">src/Worksheet.cpp</text>
</a>
</g>
</g>
<!-- Node3&#45;&gt;Node4 -->
<g id="edge3" class="edge">
<title>Node3&#45;&gt;Node4</title>
<path fill="none" stroke="#63b8ff" d="M1172.39,-235.24C1193.51,-233.77 1217.59,-232.2 1239.52,-231 1288.21,-228.35 2082.75,-230.18 2116.52,-195 2150.47,-159.62 2101.4,-96.79 2081.37,-74.03"/>
<polygon fill="#63b8ff" stroke="#63b8ff" points="1172.01,-231.76 1162.28,-235.95 1172.5,-238.74 1172.01,-231.76"/>
</g>
<!-- Node5 -->
<g id="node5" class="node">
<title>Node5</title>
<g id="a_node5"><a xlink:href="WorksheetContextMenu_8cpp.html" target="_top" xlink:title="The worksheet&#39;s right&#45;click context menu (see WorksheetContextMenu.h).">
<polygon fill="white" stroke="#666666" points="2107.02,-189.5 1936.02,-189.5 1936.02,-170.5 2107.02,-170.5 2107.02,-189.5"/>
<text text-anchor="middle" x="2021.52" y="-177.5" font-family="Helvetica,sans-Serif" font-size="10.00">src/WorksheetContextMenu.cpp</text>
</a>
</g>
</g>
<!-- Node3&#45;&gt;Node5 -->
<g id="edge4" class="edge">
<title>Node3&#45;&gt;Node5</title>
<path fill="none" stroke="#63b8ff" d="M1172.4,-235.38C1193.52,-233.92 1217.59,-232.32 1239.52,-231 1544.72,-212.63 1622.27,-225.32 1926.52,-195 1940.62,-193.59 1955.83,-191.58 1969.86,-189.51"/>
<polygon fill="#63b8ff" stroke="#63b8ff" points="1172.02,-231.89 1162.29,-236.08 1172.51,-238.88 1172.02,-231.89"/>
</g>
<!-- Node6 -->
<g id="node6" class="node">
<title>Node6</title>
<g id="a_node6"><a xlink:href="ConfigDialogue_8h.html" target="_top" xlink:title="The configuration dialog.">
<polygon fill="white" stroke="#666666" points="1411.02,-74 1256.02,-74 1256.02,-55 1411.02,-55 1411.02,-74"/>
<text text-anchor="middle" x="1333.52" y="-62" font-family="Helvetica,sans-Serif" font-size="10.00">src/dialogs/ConfigDialogue.h</text>
</a>
</g>
</g>
<!-- Node3&#45;&gt;Node6 -->
<g id="edge5" class="edge">
<title>Node3&#45;&gt;Node6</title>
<path fill="none" stroke="#63b8ff" d="M1056.77,-239.37C834.29,-238.6 43.17,-233.16 6.52,-195 -2.72,-185.38 -1.41,-175.72 6.52,-165 55.98,-98.06 103.47,-123.95 185.52,-110 391.98,-74.89 1032.22,-67.44 1255.64,-65.89"/>
<polygon fill="#63b8ff" stroke="#63b8ff" points="1056.92,-242.87 1066.93,-239.4 1056.94,-235.87 1056.92,-242.87"/>
</g>
<!-- Node9 -->
<g id="node9" class="node">
<title>Node9</title>
<g id="a_node9"><a xlink:href="DiffFrame_8h_source.html" target="_top" xlink:title=" ">
<polygon fill="white" stroke="#666666" points="1558.02,-74 1429.02,-74 1429.02,-55 1558.02,-55 1558.02,-74"/>
<text text-anchor="middle" x="1493.52" y="-62" font-family="Helvetica,sans-Serif" font-size="10.00">src/dialogs/DiffFrame.h</text>
</a>
</g>
</g>
<!-- Node3&#45;&gt;Node9 -->
<g id="edge8" class="edge">
<title>Node3&#45;&gt;Node9</title>
<path fill="none" stroke="#63b8ff" d="M1056.6,-238.79C862.79,-236.15 247.44,-225.4 218.52,-195 209.33,-185.34 209.45,-174.78 218.52,-165 309.58,-66.78 1287.19,-86.8 1420.52,-74 1423.18,-73.74 1425.91,-73.47 1428.65,-73.19"/>
<polygon fill="#63b8ff" stroke="#63b8ff" points="1056.82,-242.3 1066.86,-238.93 1056.91,-235.3 1056.82,-242.3"/>
</g>
<!-- Node10 -->
<g id="node10" class="node">
<title>Node10</title>
<g id="a_node10"><a xlink:href="Printout_8cpp.html" target="_top" xlink:title="This file defines the class MathPrintOut.">
<polygon fill="white" stroke="#666666" points="171.02,-189.5 16.02,-189.5 16.02,-170.5 171.02,-170.5 171.02,-189.5"/>
<text text-anchor="middle" x="93.52" y="-177.5" font-family="Helvetica,sans-Serif" font-size="10.00">src/graphical_io/Printout.cpp</text>
</a>
</g>
</g>
<!-- Node3&#45;&gt;Node10 -->
<g id="edge11" class="edge">
<title>Node3&#45;&gt;Node10</title>
<path fill="none" stroke="#63b8ff" d="M1056.94,-238.8C910.88,-236.59 514.24,-227.8 185.52,-195 171.85,-193.64 157.12,-191.64 143.53,-189.57"/>
<polygon fill="#63b8ff" stroke="#63b8ff" points="1056.97,-242.31 1067.02,-238.95 1057.07,-235.31 1056.97,-242.31"/>
</g>
<!-- Node11 -->
<g id="node11" class="node">
<title>Node11</title>
<g id="a_node11"><a xlink:href="wxMaximaFrame_8h.html" target="_top" xlink:title="This file declares the class wxMaximaFrame.">
<polygon fill="white" stroke="#666666" points="1917.52,-189.5 1789.52,-189.5 1789.52,-170.5 1917.52,-170.5 1917.52,-189.5"/>
<text text-anchor="middle" x="1853.52" y="-177.5" font-family="Helvetica,sans-Serif" font-size="10.00">src/wxMaximaFrame.h</text>
</a>
</g>
</g>
<!-- Node3&#45;&gt;Node11 -->
<g id="edge12" class="edge">
<title>Node3&#45;&gt;Node11</title>
<path fill="none" stroke="#63b8ff" d="M1172.41,-235.55C1193.53,-234.11 1217.6,-232.47 1239.52,-231 1479.95,-214.83 1541.51,-225.75 1780.52,-195 1791.4,-193.6 1803.1,-191.59 1813.88,-189.52"/>
<polygon fill="#63b8ff" stroke="#63b8ff" points="1172.04,-232.06 1162.3,-236.23 1172.51,-239.05 1172.04,-232.06"/>
</g>
<!-- Node19 -->
<g id="node19" class="node">
<title>Node19</title>
<g id="a_node19"><a xlink:href="test__Accessibility_8cpp.html" target="_top" xlink:title="Logic&#45;level regression tests for wxMaxima&#39;s custom wxAccessible classes.">
<polygon fill="white" stroke="#666666" points="335.52,-195 227.52,-195 227.52,-165 335.52,-165 335.52,-195"/>
<text text-anchor="start" x="235.52" y="-183" font-family="Helvetica,sans-Serif" font-size="10.00">test/unit_tests/test</text>
<text text-anchor="middle" x="281.52" y="-172" font-family="Helvetica,sans-Serif" font-size="10.00">_Accessibility.cpp</text>
</a>
</g>
</g>
<!-- Node3&#45;&gt;Node19 -->
<g id="edge28" class="edge">
<title>Node3&#45;&gt;Node19</title>
<path fill="none" stroke="#63b8ff" d="M1056.93,-239.33C928.46,-238.26 608.91,-231.77 344.52,-195 341.63,-194.6 338.68,-194.13 335.71,-193.62"/>
<polygon fill="#63b8ff" stroke="#63b8ff" points="1056.92,-242.83 1066.94,-239.4 1056.97,-235.83 1056.92,-242.83"/>
</g>
<!-- Node20 -->
<g id="node20" class="node">
<title>Node20</title>
<g id="a_node20"><a xlink:href="test__EditorCellInvariants_8cpp.html" target="_top" xlink:title="Hardening tests for EditorCell&#39;s text&#45;editing core.">
<polygon fill="white" stroke="#666666" points="491.52,-195 353.52,-195 353.52,-165 491.52,-165 491.52,-195"/>
<text text-anchor="start" x="361.52" y="-183" font-family="Helvetica,sans-Serif" font-size="10.00">test/unit_tests/test</text>
<text text-anchor="middle" x="422.52" y="-172" font-family="Helvetica,sans-Serif" font-size="10.00">_EditorCellInvariants.cpp</text>
</a>
</g>
</g>
<!-- Node3&#45;&gt;Node20 -->
<g id="edge29" class="edge">
<title>Node3&#45;&gt;Node20</title>
<path fill="none" stroke="#63b8ff" d="M1056.85,-237.35C947.83,-232.83 704.18,-220.59 500.52,-195 497.65,-194.64 494.73,-194.24 491.78,-193.82"/>
<polygon fill="#63b8ff" stroke="#63b8ff" points="1056.84,-240.85 1066.97,-237.76 1057.12,-233.85 1056.84,-240.85"/>
</g>
<!-- Node21 -->
<g id="node21" class="node">
<title>Node21</title>
<g id="a_node21"><a xlink:href="test__GroupCellLayout_8cpp.html" target="_top" xlink:title="Regression tests for the GroupCell &lt;&#45;&gt; EditorCell layout coupling.">
<polygon fill="white" stroke="#666666" points="633.02,-195 510.02,-195 510.02,-165 633.02,-165 633.02,-195"/>
<text text-anchor="start" x="518.02" y="-183" font-family="Helvetica,sans-Serif" font-size="10.00">test/unit_tests/test</text>
<text text-anchor="middle" x="571.52" y="-172" font-family="Helvetica,sans-Serif" font-size="10.00">_GroupCellLayout.cpp</text>
</a>
</g>
</g>
<!-- Node3&#45;&gt;Node21 -->
<g id="edge30" class="edge">
<title>Node3&#45;&gt;Node21</title>
<path fill="none" stroke="#63b8ff" d="M1056.58,-235.92C967.33,-229.99 790.99,-216.58 642.52,-195 639.41,-194.55 636.23,-194.05 633.03,-193.52"/>
<polygon fill="#63b8ff" stroke="#63b8ff" points="1056.55,-239.43 1066.76,-236.59 1057.01,-232.44 1056.55,-239.43"/>
</g>
<!-- Node22 -->
<g id="node22" class="node">
<title>Node22</title>
<g id="a_node22"><a xlink:href="test__LayoutInvariants_8cpp.html" target="_top" xlink:title="Layout idempotency invariants.">
<polygon fill="white" stroke="#666666" points="775.52,-195 651.52,-195 651.52,-165 775.52,-165 775.52,-195"/>
<text text-anchor="start" x="659.52" y="-183" font-family="Helvetica,sans-Serif" font-size="10.00">test/unit_tests/test</text>
<text text-anchor="middle" x="713.52" y="-172" font-family="Helvetica,sans-Serif" font-size="10.00">_LayoutInvariants.cpp</text>
</a>
</g>
</g>
<!-- Node3&#45;&gt;Node22 -->
<g id="edge31" class="edge">
<title>Node3&#45;&gt;Node22</title>
<path fill="none" stroke="#63b8ff" d="M1056.64,-232.77C990.62,-224.85 879.52,-210.76 784.52,-195 781.67,-194.53 778.75,-194.03 775.82,-193.51"/>
<polygon fill="#63b8ff" stroke="#63b8ff" points="1056.49,-236.28 1066.84,-233.99 1057.32,-229.33 1056.49,-236.28"/>
</g>
<!-- Node23 -->
<g id="node23" class="node">
<title>Node23</title>
<g id="a_node23"><a xlink:href="test__TreeUndo_8cpp.html" target="_top" xlink:title="Regression tests for the worksheet&#39;s cell&#45;tree undo/redo (the TreeUndo_* subsystem of Worksheet).">
<polygon fill="white" stroke="#666666" points="901.52,-195 793.52,-195 793.52,-165 901.52,-165 901.52,-195"/>
<text text-anchor="start" x="801.52" y="-183" font-family="Helvetica,sans-Serif" font-size="10.00">test/unit_tests/test</text>
<text text-anchor="middle" x="847.52" y="-172" font-family="Helvetica,sans-Serif" font-size="10.00">_TreeUndo.cpp</text>
</a>
</g>
</g>
<!-- Node3&#45;&gt;Node23 -->
<g id="edge32" class="edge">
<title>Node3&#45;&gt;Node23</title>
<path fill="none" stroke="#63b8ff" d="M1065.2,-228.8C1023.88,-219.82 963.34,-206.63 910.52,-195 907.67,-194.37 904.76,-193.73 901.81,-193.08"/>
<polygon fill="#63b8ff" stroke="#63b8ff" points="1064.5,-232.23 1075.02,-230.93 1065.99,-225.39 1064.5,-232.23"/>
</g>
<!-- Node24 -->
<g id="node24" class="node">
<title>Node24</title>
<g id="a_node24"><a xlink:href="test__WXMRoundtrip_8cpp.html" target="_top" xlink:title="Regression tests for images surviving the .wxm serialization round&#45;trip.">
<polygon fill="white" stroke="#666666" points="1035.02,-195 920.02,-195 920.02,-165 1035.02,-165 1035.02,-195"/>
<text text-anchor="start" x="928.02" y="-183" font-family="Helvetica,sans-Serif" font-size="10.00">test/unit_tests/test</text>
<text text-anchor="middle" x="977.52" y="-172" font-family="Helvetica,sans-Serif" font-size="10.00">_WXMRoundtrip.cpp</text>
</a>
</g>
</g>
<!-- Node3&#45;&gt;Node24 -->
<g id="edge33" class="edge">
<title>Node3&#45;&gt;Node24</title>
<path fill="none" stroke="#63b8ff" d="M1085.14,-226.95C1063.2,-217.59 1033.2,-204.78 1010.45,-195.06"/>
<polygon fill="#63b8ff" stroke="#63b8ff" points="1084.03,-230.29 1094.6,-230.99 1086.77,-223.85 1084.03,-230.29"/>
</g>
<!-- Node25 -->
<g id="node25" class="node">
<title>Node25</title>
<g id="a_node25"><a xlink:href="test__WXMXRoundtrip_8cpp.html" target="_top" xlink:title="Round&#45;trip tests for the .wxmx content.xml (the MathML&#45;like math format).">
<polygon fill="white" stroke="#666666" points="1175.52,-195 1053.52,-195 1053.52,-165 1175.52,-165 1175.52,-195"/>
<text text-anchor="start" x="1061.52" y="-183" font-family="Helvetica,sans-Serif" font-size="10.00">test/unit_tests/test</text>
<text text-anchor="middle" x="1114.52" y="-172" font-family="Helvetica,sans-Serif" font-size="10.00">_WXMXRoundtrip.cpp</text>
</a>
</g>
</g>
<!-- Node3&#45;&gt;Node25 -->
<g id="edge34" class="edge">
<title>Node3&#45;&gt;Node25</title>
<path fill="none" stroke="#63b8ff" d="M1114.52,-220.65C1114.52,-212.36 1114.52,-202.78 1114.52,-195.11"/>
<polygon fill="#63b8ff" stroke="#63b8ff" points="1111.02,-220.87 1114.52,-230.87 1118.02,-220.87 1111.02,-220.87"/>
</g>
<!-- Node26 -->
<g id="node26" class="node">
<title>Node26</title>
<g id="a_node26"><a xlink:href="test__WorksheetContextMenu_8cpp.html" target="_top" xlink:title="Regression tests for the worksheet&#39;s right&#45;click context menu.">
<polygon fill="white" stroke="#666666" points="1353.02,-195 1194.02,-195 1194.02,-165 1353.02,-165 1353.02,-195"/>
<text text-anchor="start" x="1202.02" y="-183" font-family="Helvetica,sans-Serif" font-size="10.00">test/unit_tests/test</text>
<text text-anchor="middle" x="1273.52" y="-172" font-family="Helvetica,sans-Serif" font-size="10.00">_WorksheetContextMenu.cpp</text>
</a>
</g>
</g>
<!-- Node3&#45;&gt;Node26 -->
<g id="edge35" class="edge">
<title>Node3&#45;&gt;Node26</title>
<path fill="none" stroke="#63b8ff" d="M1147.25,-227.46C1172.82,-218.05 1208.41,-204.95 1235.29,-195.06"/>
<polygon fill="#63b8ff" stroke="#63b8ff" points="1145.81,-224.26 1137.64,-230.99 1148.23,-230.83 1145.81,-224.26"/>
</g>
<!-- Node27 -->
<g id="node27" class="node">
<title>Node27</title>
<g id="a_node27"><a xlink:href="test__WorksheetCursor_8cpp.html" target="_top" xlink:title="Pins the worksheet&#39;s cursor model before it is gathered into a cursor class.">
<polygon fill="white" stroke="#666666" points="1496.02,-195 1371.02,-195 1371.02,-165 1496.02,-165 1496.02,-195"/>
<text text-anchor="start" x="1379.02" y="-183" font-family="Helvetica,sans-Serif" font-size="10.00">test/unit_tests/test</text>
<text text-anchor="middle" x="1433.52" y="-172" font-family="Helvetica,sans-Serif" font-size="10.00">_WorksheetCursor.cpp</text>
</a>
</g>
</g>
<!-- Node3&#45;&gt;Node27 -->
<g id="edge36" class="edge">
<title>Node3&#45;&gt;Node27</title>
<path fill="none" stroke="#63b8ff" d="M1172.14,-229.45C1222.43,-220.61 1297.37,-207.27 1362.52,-195 1365.23,-194.49 1368.01,-193.96 1370.81,-193.43"/>
<polygon fill="#63b8ff" stroke="#63b8ff" points="1171.35,-226.03 1162.1,-231.21 1172.56,-232.93 1171.35,-226.03"/>
</g>
<!-- Node3&#45;&gt;Node28 -->
<g id="edge37" class="edge">
<title>Node3&#45;&gt;Node28</title>
<path fill="none" stroke="#63b8ff" d="M1172.39,-235.22C1193.51,-233.75 1217.59,-232.18 1239.52,-231 1643.69,-209.27 1746.76,-235.23 2149.52,-195 2154.08,-194.54 2158.78,-194 2163.5,-193.4"/>
<polygon fill="#63b8ff" stroke="#63b8ff" points="1172.01,-231.74 1162.28,-235.93 1172.5,-238.72 1172.01,-231.74"/>
</g>
<!-- Node29 -->
<g id="node29" class="node">
<title>Node29</title>
<g id="a_node29"><a xlink:href="test__WorksheetExport_8cpp.html" target="_top" xlink:title="Safety net for the export/serialization cluster of Worksheet.">
<polygon fill="white" stroke="#666666" points="1639.02,-195 1514.02,-195 1514.02,-165 1639.02,-165 1639.02,-195"/>
<text text-anchor="start" x="1522.02" y="-183" font-family="Helvetica,sans-Serif" font-size="10.00">test/unit_tests/test</text>
<text text-anchor="middle" x="1576.52" y="-172" font-family="Helvetica,sans-Serif" font-size="10.00">_WorksheetExport.cpp</text>
</a>
</g>
</g>
<!-- Node3&#45;&gt;Node29 -->
<g id="edge38" class="edge">
<title>Node3&#45;&gt;Node29</title>
<path fill="none" stroke="#63b8ff" d="M1172.61,-234.38C1249.15,-227.29 1387.84,-213.27 1505.52,-195 1508.25,-194.58 1511.03,-194.12 1513.85,-193.64"/>
<polygon fill="#63b8ff" stroke="#63b8ff" points="1171.87,-230.93 1162.23,-235.33 1172.51,-237.9 1171.87,-230.93"/>
</g>
<!-- Node30 -->
<g id="node30" class="node">
<title>Node30</title>
<g id="a_node30"><a xlink:href="test__WorksheetFind_8cpp.html" target="_top" xlink:title="Pins the worksheet&#39;s find/replace behavior before the search engine is extracted into WorksheetSearch...">
<polygon fill="white" stroke="#666666" points="1771.52,-195 1657.52,-195 1657.52,-165 1771.52,-165 1771.52,-195"/>
<text text-anchor="start" x="1665.52" y="-183" font-family="Helvetica,sans-Serif" font-size="10.00">test/unit_tests/test</text>
<text text-anchor="middle" x="1714.52" y="-172" font-family="Helvetica,sans-Serif" font-size="10.00">_WorksheetFind.cpp</text>
</a>
</g>
</g>
<!-- Node3&#45;&gt;Node30 -->
<g id="edge39" class="edge">
<title>Node3&#45;&gt;Node30</title>
<path fill="none" stroke="#63b8ff" d="M1172.43,-235.6C1291.02,-227.46 1557.95,-208.33 1648.52,-195 1651.41,-194.57 1654.38,-194.1 1657.36,-193.58"/>
<polygon fill="#63b8ff" stroke="#63b8ff" points="1171.85,-232.13 1162.11,-236.31 1172.32,-239.12 1171.85,-232.13"/>
</g>
<!-- Node7 -->
<g id="node7" class="node">
<title>Node7</title>
<g id="a_node7"><a xlink:href="main_8cpp.html" target="_top" xlink:title="The file that defines the starting point of the program.">
<polygon fill="white" stroke="#666666" points="1556.02,-19 1477.02,-19 1477.02,0 1556.02,0 1556.02,-19"/>
<text text-anchor="middle" x="1516.52" y="-7" font-family="Helvetica,sans-Serif" font-size="10.00">src/main.cpp</text>
</a>
</g>
</g>
<!-- Node6&#45;&gt;Node7 -->
<g id="edge6" class="edge">
<title>Node6&#45;&gt;Node7</title>
<path fill="none" stroke="#63b8ff" d="M1372.59,-52.18C1406.81,-42.27 1455.81,-28.08 1486.88,-19.08"/>
<polygon fill="#63b8ff" stroke="#63b8ff" points="1371.55,-48.84 1362.92,-54.98 1373.5,-55.56 1371.55,-48.84"/>
</g>
<!-- Node8 -->
<g id="node8" class="node">
<title>Node8</title>
<g id="a_node8"><a xlink:href="wxMaxima_8cpp.html" target="_top" xlink:title="This file defines the contents of the class wxMaxima that contains most of the program&#39;s logic.">
<polygon fill="white" stroke="#666666" points="1726.52,-19 1618.52,-19 1618.52,0 1726.52,0 1726.52,-19"/>
<text text-anchor="middle" x="1672.52" y="-7" font-family="Helvetica,sans-Serif" font-size="10.00">src/wxMaxima.cpp</text>
</a>
</g>
</g>
<!-- Node6&#45;&gt;Node8 -->
<g id="edge7" class="edge">
<title>Node6&#45;&gt;Node8</title>
<path fill="none" stroke="#63b8ff" d="M1397.94,-53.43C1461.79,-43.45 1558.5,-28.33 1618.47,-18.95"/>
<polygon fill="#63b8ff" stroke="#63b8ff" points="1397.32,-49.98 1387.98,-54.98 1398.4,-56.9 1397.32,-49.98"/>
</g>
<!-- Node9&#45;&gt;Node7 -->
<g id="edge9" class="edge">
<title>Node9&#45;&gt;Node7</title>
<path fill="none" stroke="#63b8ff" d="M1501.32,-45.53C1505.19,-36.6 1509.7,-26.22 1512.79,-19.09"/>
<polygon fill="#63b8ff" stroke="#63b8ff" points="1498.09,-44.18 1497.32,-54.75 1504.51,-46.97 1498.09,-44.18"/>
</g>
<!-- Node9&#45;&gt;Node8 -->
<g id="edge10" class="edge">
<title>Node9&#45;&gt;Node8</title>
<path fill="none" stroke="#63b8ff" d="M1532.17,-52.06C1565.62,-42.15 1613.26,-28.04 1643.53,-19.08"/>
<polygon fill="#63b8ff" stroke="#63b8ff" points="1530.87,-48.79 1522.28,-54.98 1532.86,-55.5 1530.87,-48.79"/>
</g>
<!-- Node11&#45;&gt;Node4 -->
<g id="edge14" class="edge">
<title>Node11&#45;&gt;Node4</title>
<path fill="none" stroke="#63b8ff" d="M1907.84,-168.37C1963.64,-157 2043.8,-139.22 2054.52,-129 2069.84,-114.38 2072.95,-87.97 2073.49,-74.27"/>
<polygon fill="#63b8ff" stroke="#63b8ff" points="1906.84,-165 1897.73,-170.41 1908.23,-171.86 1906.84,-165"/>
</g>
<!-- Node12 -->
<g id="node12" class="node">
<title>Node12</title>
<g id="a_node12"><a xlink:href="AutocompletePopup_8cpp.html" target="_top" xlink:title="This file defines the class AutocompletePopup.">
<polygon fill="white" stroke="#666666" points="1513.52,-129 1361.52,-129 1361.52,-110 1513.52,-110 1513.52,-129"/>
<text text-anchor="middle" x="1437.52" y="-117" font-family="Helvetica,sans-Serif" font-size="10.00">src/AutocompletePopup.cpp</text>
</a>
</g>
</g>
<!-- Node11&#45;&gt;Node12 -->
<g id="edge13" class="edge">
<title>Node11&#45;&gt;Node12</title>
<path fill="none" stroke="#63b8ff" d="M1801.38,-168.6C1794.38,-167.32 1787.28,-166.09 1780.52,-165 1688.92,-150.29 1582.95,-137.13 1513.32,-129"/>
<polygon fill="#63b8ff" stroke="#63b8ff" points="1801.05,-172.1 1811.52,-170.5 1802.33,-165.22 1801.05,-172.1"/>
</g>
<!-- Node13 -->
<g id="node13" class="node">
<title>Node13</title>
<g id="a_node13"><a xlink:href="EditorCell_8cpp.html" target="_top" xlink:title="This file defines the class EditorCell.">
<polygon fill="white" stroke="#666666" points="1703.02,-74 1576.02,-74 1576.02,-55 1703.02,-55 1703.02,-74"/>
<text text-anchor="middle" x="1639.52" y="-62" font-family="Helvetica,sans-Serif" font-size="10.00">src/cells/EditorCell.cpp</text>
</a>
</g>
</g>
<!-- Node11&#45;&gt;Node13 -->
<g id="edge15" class="edge">
<title>Node11&#45;&gt;Node13</title>
<path fill="none" stroke="#63b8ff" d="M1799.82,-168.53C1793.32,-167.31 1786.77,-166.11 1780.52,-165 1731.74,-156.33 1592.59,-166.75 1560.52,-129 1540.92,-105.94 1583.32,-85.2 1613.25,-74.07"/>
<polygon fill="#63b8ff" stroke="#63b8ff" points="1799.46,-172.02 1809.93,-170.44 1800.76,-165.14 1799.46,-172.02"/>
</g>
<!-- Node14 -->
<g id="node14" class="node">
<title>Node14</title>
<g id="a_node14"><a xlink:href="main_8h.html" target="_top" xlink:title="This file declares the class wxMaxima that contains most of the program&#39;s logic.">
<polygon fill="white" stroke="#666666" points="1865.52,-74 1797.52,-74 1797.52,-55 1865.52,-55 1865.52,-74"/>
<text text-anchor="middle" x="1831.52" y="-62" font-family="Helvetica,sans-Serif" font-size="10.00">src/main.h</text>
</a>
</g>
</g>
<!-- Node11&#45;&gt;Node14 -->
<g id="edge16" class="edge">
<title>Node11&#45;&gt;Node14</title>
<path fill="none" stroke="#63b8ff" d="M1858.25,-160.38C1861.02,-146.3 1863.16,-126.61 1858.52,-110 1854.67,-96.25 1845.29,-82.52 1838.67,-74.03"/>
<polygon fill="#63b8ff" stroke="#63b8ff" points="1854.79,-159.79 1856,-170.31 1861.62,-161.33 1854.79,-159.79"/>
</g>
<!-- Node16 -->
<g id="node16" class="node">
<title>Node16</title>
<g id="a_node16"><a xlink:href="GreekSidebar_8cpp.html" target="_top" xlink:title="This file defines the class GreekSidebar.">
<polygon fill="white" stroke="#666666" points="1733.52,-129 1569.52,-129 1569.52,-110 1733.52,-110 1733.52,-129"/>
<text text-anchor="middle" x="1651.52" y="-117" font-family="Helvetica,sans-Serif" font-size="10.00">src/sidebars/GreekSidebar.cpp</text>
</a>
</g>
</g>
<!-- Node11&#45;&gt;Node16 -->
<g id="edge20" class="edge">
<title>Node11&#45;&gt;Node16</title>
<path fill="none" stroke="#63b8ff" d="M1814.18,-167.61C1775.11,-156.29 1716.1,-139.2 1680.93,-129.02"/>
<polygon fill="#63b8ff" stroke="#63b8ff" points="1813.57,-171.07 1824.14,-170.49 1815.51,-164.35 1813.57,-171.07"/>
</g>
<!-- Node17 -->
<g id="node17" class="node">
<title>Node17</title>
<g id="a_node17"><a xlink:href="wxMaxima_8h.html" target="_top" xlink:title="This file declares the class wxMaxima that contains most of the program&#39;s logic.">
<polygon fill="white" stroke="#666666" points="1849.02,-129 1752.02,-129 1752.02,-110 1849.02,-110 1849.02,-129"/>
<text text-anchor="middle" x="1800.52" y="-117" font-family="Helvetica,sans-Serif" font-size="10.00">src/wxMaxima.h</text>
</a>
</g>
</g>
<!-- Node11&#45;&gt;Node17 -->
<g id="edge21" class="edge">
<title>Node11&#45;&gt;Node17</title>
<path fill="none" stroke="#63b8ff" d="M1838.81,-162.77C1828.96,-151.89 1816.37,-137.99 1808.37,-129.17"/>
<polygon fill="#63b8ff" stroke="#63b8ff" points="1836.39,-165.31 1845.7,-170.37 1841.58,-160.61 1836.39,-165.31"/>
</g>
<!-- Node18 -->
<g id="node18" class="node">
<title>Node18</title>
<g id="a_node18"><a xlink:href="wxMaximaFrame_8cpp.html" target="_top" xlink:title="This file defines the class wxMaximaFrame.">
<polygon fill="white" stroke="#666666" points="2045.02,-129 1906.02,-129 1906.02,-110 2045.02,-110 2045.02,-129"/>
<text text-anchor="middle" x="1975.52" y="-117" font-family="Helvetica,sans-Serif" font-size="10.00">src/wxMaximaFrame.cpp</text>
</a>
</g>
</g>
<!-- Node11&#45;&gt;Node18 -->
<g id="edge27" class="edge">
<title>Node11&#45;&gt;Node18</title>
<path fill="none" stroke="#63b8ff" d="M1880.35,-166.13C1903.88,-154.85 1937.42,-138.77 1957.76,-129.02"/>
<polygon fill="#63b8ff" stroke="#63b8ff" points="1878.76,-163.01 1871.26,-170.49 1881.79,-169.33 1878.76,-163.01"/>
</g>
<!-- Node14&#45;&gt;Node7 -->
<g id="edge18" class="edge">
<title>Node14&#45;&gt;Node7</title>
<path fill="none" stroke="#63b8ff" d="M1787.33,-56.07C1725.74,-45.7 1615.03,-27.07 1556.04,-17.15"/>
<polygon fill="#63b8ff" stroke="#63b8ff" points="1787.07,-59.57 1797.51,-57.78 1788.23,-52.67 1787.07,-59.57"/>
</g>
<!-- Node14&#45;&gt;Node8 -->
<g id="edge19" class="edge">
<title>Node14&#45;&gt;Node8</title>
<path fill="none" stroke="#63b8ff" d="M1796.41,-51.8C1766.74,-41.91 1724.92,-27.97 1698.26,-19.08"/>
<polygon fill="#63b8ff" stroke="#63b8ff" points="1795.38,-55.14 1805.97,-54.98 1797.59,-48.5 1795.38,-55.14"/>
</g>
<!-- Node15 -->
<g id="node15" class="node">
<title>Node15</title>
<g id="a_node15"><a xlink:href="MaximaManual_8cpp.html" target="_top" xlink:title="This file defines the class MaximaManual.">
<polygon fill="white" stroke="#666666" points="1896.52,-19 1766.52,-19 1766.52,0 1896.52,0 1896.52,-19"/>
<text text-anchor="middle" x="1831.52" y="-7" font-family="Helvetica,sans-Serif" font-size="10.00">src/MaximaManual.cpp</text>
</a>
</g>
</g>
<!-- Node14&#45;&gt;Node15 -->
<g id="edge17" class="edge">
<title>Node14&#45;&gt;Node15</title>
<path fill="none" stroke="#63b8ff" d="M1831.52,-44.66C1831.52,-35.93 1831.52,-25.99 1831.52,-19.09"/>
<polygon fill="#63b8ff" stroke="#63b8ff" points="1828.02,-44.75 1831.52,-54.75 1835.02,-44.75 1828.02,-44.75"/>
</g>
<!-- Node17&#45;&gt;Node4 -->
<g id="edge22" class="edge">
<title>Node17&#45;&gt;Node4</title>
<path fill="none" stroke="#63b8ff" d="M1854.27,-108.07C1905.45,-98.13 1981.56,-83.35 2029.31,-74.08"/>
<polygon fill="#63b8ff" stroke="#63b8ff" points="1853.53,-104.64 1844.38,-109.98 1854.86,-111.51 1853.53,-104.64"/>
</g>
<!-- Node17&#45;&gt;Node7 -->
<g id="edge24" class="edge">
<title>Node17&#45;&gt;Node7</title>
<path fill="none" stroke="#63b8ff" d="M1781.87,-103.68C1760.63,-87.05 1727,-61.54 1712.52,-55 1661.32,-31.88 1596.99,-20.24 1556.31,-14.78"/>
<polygon fill="#63b8ff" stroke="#63b8ff" points="1779.84,-106.54 1789.86,-109.97 1784.17,-101.04 1779.84,-106.54"/>
</g>
<!-- Node17&#45;&gt;Node8 -->
<g id="edge26" class="edge">
<title>Node17&#45;&gt;Node8</title>
<path fill="none" stroke="#63b8ff" d="M1788.48,-101.93C1778.08,-88.32 1762.14,-69.06 1745.52,-55 1728.07,-40.24 1705.19,-27.13 1689.74,-19.03"/>
<polygon fill="#63b8ff" stroke="#63b8ff" points="1785.68,-104.03 1794.47,-109.95 1791.29,-99.84 1785.68,-104.03"/>
</g>
<!-- Node17&#45;&gt;Node13 -->
<g id="edge23" class="edge">
<title>Node17&#45;&gt;Node13</title>
<path fill="none" stroke="#63b8ff" d="M1764.97,-106.8C1734.92,-96.91 1692.58,-82.97 1665.59,-74.08"/>
<polygon fill="#63b8ff" stroke="#63b8ff" points="1764.06,-110.18 1774.65,-109.98 1766.25,-103.53 1764.06,-110.18"/>
</g>
<!-- Node17&#45;&gt;Node14 -->
<g id="edge25" class="edge">
<title>Node17&#45;&gt;Node14</title>
<path fill="none" stroke="#63b8ff" d="M1810.69,-101.1C1815.99,-92.04 1822.23,-81.37 1826.49,-74.09"/>
<polygon fill="#63b8ff" stroke="#63b8ff" points="1807.66,-99.35 1805.64,-109.75 1813.71,-102.88 1807.66,-99.35"/>
</g>
<!-- Node31&#45;&gt;Node3 -->
<g id="edge41" class="edge">
<title>Node31&#45;&gt;Node3</title>
<path fill="none" stroke="#63b8ff" d="M1114.52,-275.66C1114.52,-266.93 1114.52,-256.99 1114.52,-250.09"/>
<polygon fill="#63b8ff" stroke="#63b8ff" points="1111.02,-275.75 1114.52,-285.75 1118.02,-275.75 1111.02,-275.75"/>
</g>
</g>
</svg>
        <g id="navigator" transform="translate(0 0)" fill="#404254">
                <rect fill="#f2f5e9" fill-opacity="0.5" stroke="#606060" stroke-width=".5" x="0" y="0" width="60" height="60"/>
                <use id="zoomplus" xlink:href="#zoomPlus" x="17" y="9" onmousedown="handleZoom(evt,'in')"/>
                <use id="zoomminus" xlink:href="#zoomMin" x="42" y="9" onmousedown="handleZoom(evt,'out')"/>
                <use id="reset" xlink:href="#resetDef" x="30" y="36" onmousedown="handleReset()"/>
                <g id="arrowUp" xlink:href="#dirArrow" transform="translate(30 24)" onmousedown="handlePan(0,-1)">
                  <use xlink:href="#rim" fill="#404040">
                        <set attributeName="fill" to="#808080" begin="arrowUp.mouseover" end="arrowUp.mouseout"/>
                  </use>
                  <path fill="none" stroke="white" stroke-width="1.5" d="M0,-3.0v7 M-2.5,-0.5L0,-3.0L2.5,-0.5"/>
                </g>
                <g id="arrowRight" xlink:href="#dirArrow" transform="rotate(90) translate(36 -43)" onmousedown="handlePan(1,0)">
                  <use xlink:href="#rim" fill="#404040">
                        <set attributeName="fill" to="#808080" begin="arrowRight.mouseover" end="arrowRight.mouseout"/>
                  </use>
                  <path fill="none" stroke="white" stroke-width="1.5" d="M0,-3.0v7 M-2.5,-0.5L0,-3.0L2.5,-0.5"/>
                </g>
                <g id="arrowDown" xlink:href="#dirArrow" transform="rotate(180) translate(-30 -48)" onmousedown="handlePan(0,1)">
                  <use xlink:href="#rim" fill="#404040">
                        <set attributeName="fill" to="#808080" begin="arrowDown.mouseover" end="arrowDown.mouseout"/>
                  </use>
                  <path fill="none" stroke="white" stroke-width="1.5" d="M0,-3.0v7 M-2.5,-0.5L0,-3.0L2.5,-0.5"/>
                </g>
                <g id="arrowLeft" xlink:href="#dirArrow" transform="rotate(270) translate(-36 17)" onmousedown="handlePan(-1,0)">
                  <use xlink:href="#rim" fill="#404040">
                        <set attributeName="fill" to="#808080" begin="arrowLeft.mouseover" end="arrowLeft.mouseout"/>
                  </use>
                  <path fill="none" stroke="white" stroke-width="1.5" d="M0,-3.0v7 M-2.5,-0.5L0,-3.0L2.5,-0.5"/>
                </g>
        </g>
        <svg viewBox="0 0 15 15" width="100%" height="30px" preserveAspectRatio="xMaxYMin meet">
         <g id="arrow_out" transform="scale(0.3 0.3)">
          <a xlink:href="EvaluationQueue_8h__dep__incl_org.svg" target="_base">
           <rect id="button" ry="5" rx="5" y="6" x="6" height="38" width="38"
                fill="#f2f5e9" fill-opacity="0.5" stroke="#606060" stroke-width="1.0"/>
           <path id="arrow"
             d="M 11.500037,31.436501 C 11.940474,20.09759 22.043105,11.32322 32.158766,21.979434 L 37.068811,17.246167 C 37.068811,17.246167 37.088388,32 37.088388,32 L 22.160133,31.978069 C 22.160133,31.978069 26.997745,27.140456 26.997745,27.140456 C 18.528582,18.264221 13.291696,25.230495 11.500037,31.436501 z"
             style="fill:#404040;"/>
          </a>
         </g>
        </svg>
</svg>
