<?xml version="1.0" encoding="UTF-8" standalone="no"?>
<!DOCTYPE svg PUBLIC "-//W3C//DTD SVG 1.1//EN"
 "http://www.w3.org/Graphics/SVG/1.1/DTD/svg11.dtd">
<!-- Generated by graphviz version 2.43.0 (0)
 -->
<!-- Title: src/EvaluationQueue.h Pages: 1 -->
<!--zoomable 368 -->
<svg id="main" version="1.1" xmlns="http://www.w3.org/2000/svg" xmlns:xlink="http://www.w3.org/1999/xlink" xml:space="preserve" onload="init(evt)">
<style type="text/css"><![CDATA[
.edge:hover path { stroke: red; }
.edge:hover polygon { stroke: red; fill: red; }
]]></style>
<script type="text/javascript"><![CDATA[
var edges = document.getElementsByTagName('g');
if (edges && edges.length) {
  for (var i=0;i<edges.length;i++) {
    if (edges[i].id.substr(0,4)=='edge') {
      edges[i].setAttribute('class','edge');
    }
  }
}
]]></script>
        <defs>
                <circle id="rim" cx="0" cy="0" r="7"/>
                <circle id="rim2" cx="0" cy="0" r="3.5"/>
                <g id="zoomPlus">
                        <use xlink:href="#rim" fill="#404040">
                                <set attributeName="fill" to="#808080" begin="zoomplus.mouseover" end="zoomplus.mouseout"/>
                        </use>
                        <path d="M-4,0h8M0,-4v8" fill="none" stroke="white" stroke-width="1.5" pointer-events="none"/>
                </g>
                <g id="zoomMin">
                        <use xlink:href="#rim" fill="#404040">
                                <set attributeName="fill" to="#808080" begin="zoomminus.mouseover" end="zoomminus.mouseout"/>
                        </use>
                        <path d="M-4,0h8" fill="none" stroke="white" stroke-width="1.5" pointer-events="none"/>
                </g>
                <g id="dirArrow">
                        <path fill="none" stroke="white" stroke-width="1.5" d="M0,-3.0v7 M-2.5,-0.5L0,-3.0L2.5,-0.5"/>
                </g>
               <g id="resetDef">
                       <use xlink:href="#rim2" fill="#404040">
                               <set attributeName="fill" to="#808080" begin="reset.mouseover" end="reset.mouseout"/>
                       </use>
               </g>
        </defs>

<script type="text/javascript">
var viewWidth = 2830;
var viewHeight = 368;
var sectionId = 'dynsection-1';
</script>
<script xlink:href="svgpan.js"/>
<svg id="graph" class="graph">
<g id="viewport">
<title>src/EvaluationQueue.h</title>
<!-- Node1 -->
<g id="node1" class="node">
<title>Node1</title>
<g id="a_node1"><a xlink:title="The evaluation queue.">
<polygon fill="#999999" stroke="#666666" points="1583,-360 1457,-360 1457,-341 1583,-341 1583,-360"/>
<text text-anchor="middle" x="1520" y="-348" font-family="Helvetica,sans-Serif" font-size="10.00">src/EvaluationQueue.h</text>
</a>
</g>
</g>
<!-- Node2 -->
<g id="node2" class="node">
<title>Node2</title>
<g id="a_node2"><a xlink:href="EvaluationQueue_8cpp.html" target="_top" xlink:title="This file defines the class EvaluationQueue.">
<polygon fill="white" stroke="#666666" points="1365.5,-305 1228.5,-305 1228.5,-286 1365.5,-286 1365.5,-305"/>
<text text-anchor="middle" x="1297" y="-293" font-family="Helvetica,sans-Serif" font-size="10.00">src/EvaluationQueue.cpp</text>
</a>
</g>
</g>
<!-- Node1&#45;&gt;Node2 -->
<g id="edge1" class="edge">
<title>Node1&#45;&gt;Node2</title>
<path fill="none" stroke="#63b8ff" d="M1474.25,-338.63C1432.48,-328.7 1371.55,-314.22 1333.11,-305.08"/>
<polygon fill="#63b8ff" stroke="#63b8ff" points="1473.63,-342.08 1484.17,-340.98 1475.25,-335.27 1473.63,-342.08"/>
</g>
<!-- Node3 -->
<g id="node3" class="node">
<title>Node3</title>
<g id="a_node3"><a xlink:href="Worksheet_8h.html" target="_top" xlink:title="This file defines the class Worksheet.">
<polygon fill="white" stroke="#666666" points="1517.5,-250 1422.5,-250 1422.5,-231 1517.5,-231 1517.5,-250"/>
<text text-anchor="middle" x="1470" y="-238" font-family="Helvetica,sans-Serif" font-size="10.00">src/Worksheet.h</text>
</a>
</g>
</g>
<!-- Node1&#45;&gt;Node3 -->
<g id="edge2" class="edge">
<title>Node1&#45;&gt;Node3</title>
<path fill="none" stroke="#63b8ff" d="M1506.93,-332.61C1501.16,-324.58 1494.64,-314.64 1490,-305 1480.97,-286.26 1474.75,-262.48 1471.85,-250.01"/>
<polygon fill="#63b8ff" stroke="#63b8ff" points="1504.21,-334.83 1512.99,-340.76 1509.83,-330.65 1504.21,-334.83"/>
</g>
<!-- Node27 -->
<g id="node27" class="node">
<title>Node27</title>
<g id="a_node27"><a xlink:href="test__EvalQueueCommands_8cpp.html" target="_top" xlink:title="Command&#45;level behavior of the EvaluationQueue: how a GroupCell&#39;s input is broken into the individual ...">
<polygon fill="white" stroke="#666666" points="150,-195 0,-195 0,-165 150,-165 150,-195"/>
<text text-anchor="start" x="8" y="-183" font-family="Helvetica,sans-Serif" font-size="10.00">test/unit_tests/test</text>
<text text-anchor="middle" x="75" y="-172" font-family="Helvetica,sans-Serif" font-size="10.00">_EvalQueueCommands.cpp</text>
</a>
</g>
</g>
<!-- Node1&#45;&gt;Node27 -->
<g id="edge56" class="edge">
<title>Node1&#45;&gt;Node27</title>
<path fill="none" stroke="#63b8ff" d="M1495.71,-335.95C1467.43,-320.9 1418.85,-297.24 1374,-286 1366.51,-284.12 426.57,-209.04 150.45,-187.02"/>
<polygon fill="#63b8ff" stroke="#63b8ff" points="1494.36,-339.21 1504.83,-340.88 1497.69,-333.05 1494.36,-339.21"/>
</g>
<!-- Node36 -->
<g id="node36" class="node">
<title>Node36</title>
<g id="a_node36"><a xlink:href="test__WorksheetEvalQueue_8cpp.html" target="_top" xlink:title="Pins the worksheet&#39;s &quot;add cells to the evaluation queue&quot; behavior before the Add*ToEvaluationQueue fa...">
<polygon fill="white" stroke="#666666" points="2822,-195 2676,-195 2676,-165 2822,-165 2822,-195"/>
<text text-anchor="start" x="2684" y="-183" font-family="Helvetica,sans-Serif" font-size="10.00">test/unit_tests/test</text>
<text text-anchor="middle" x="2749" y="-172" font-family="Helvetica,sans-Serif" font-size="10.00">_WorksheetEvalQueue.cpp</text>
</a>
</g>
</g>
<!-- Node1&#45;&gt;Node36 -->
<g id="edge57" class="edge">
<title>Node1&#45;&gt;Node36</title>
<path fill="none" stroke="#63b8ff" d="M1553.52,-337.68C1596.09,-323.16 1672.06,-298.87 1739,-286 2145.97,-207.74 2256.26,-250.13 2667,-195 2669.86,-194.62 2672.78,-194.21 2675.72,-193.78"/>
<polygon fill="#63b8ff" stroke="#63b8ff" points="1552.27,-334.41 1543.95,-340.97 1554.54,-341.03 1552.27,-334.41"/>
</g>
<!-- Node39 -->
<g id="node39" class="node">
<title>Node39</title>
<g id="a_node39"><a xlink:href="WorksheetDocument_8h.html" target="_top" xlink:title="The document half of the worksheet: the state and commands that describe the edited document itself,...">
<polygon fill="white" stroke="#666666" points="1643.5,-305 1498.5,-305 1498.5,-286 1643.5,-286 1643.5,-305"/>
<text text-anchor="middle" x="1571" y="-293" font-family="Helvetica,sans-Serif" font-size="10.00">src/WorksheetDocument.h</text>
</a>
</g>
</g>
<!-- Node1&#45;&gt;Node39 -->
<g id="edge52" class="edge">
<title>Node1&#45;&gt;Node39</title>
<path fill="none" stroke="#63b8ff" d="M1535.38,-333.52C1544.37,-324.18 1555.36,-312.75 1562.74,-305.09"/>
<polygon fill="#63b8ff" stroke="#63b8ff" points="1532.83,-331.12 1528.42,-340.75 1537.88,-335.97 1532.83,-331.12"/>
</g>
<!-- Node41 -->
<g id="node41" class="node">
<title>Node41</title>
<g id="a_node41"><a xlink:href="WorksheetEvalQueue_8cpp.html" target="_top" xlink:title="Implementation of the document&#45;pure evaluation&#45;queue helpers &#45; see WorksheetEvalQueue....">
<polygon fill="white" stroke="#666666" points="1906,-305 1748,-305 1748,-286 1906,-286 1906,-305"/>
<text text-anchor="middle" x="1827" y="-293" font-family="Helvetica,sans-Serif" font-size="10.00">src/WorksheetEvalQueue.cpp</text>
</a>
</g>
</g>
<!-- Node1&#45;&gt;Node41 -->
<g id="edge55" class="edge">
<title>Node1&#45;&gt;Node41</title>
<path fill="none" stroke="#63b8ff" d="M1579.38,-339.25C1637.03,-329.3 1723.53,-314.36 1777.54,-305.04"/>
<polygon fill="#63b8ff" stroke="#63b8ff" points="1578.58,-335.83 1569.32,-340.98 1579.77,-342.73 1578.58,-335.83"/>
</g>
<!-- Node4 -->
<g id="node4" class="node">
<title>Node4</title>
<g id="a_node4"><a xlink:href="MaximaFileIO_8cpp.html" target="_top" xlink:title="Implements the worksheet file loaders/savers extracted from the wxMaxima god class.">
<polygon fill="white" stroke="#666666" points="1512,-74 1390,-74 1390,-55 1512,-55 1512,-74"/>
<text text-anchor="middle" x="1451" y="-62" font-family="Helvetica,sans-Serif" font-size="10.00">src/MaximaFileIO.cpp</text>
</a>
</g>
</g>
<!-- Node3&#45;&gt;Node4 -->
<g id="edge3" class="edge">
<title>Node3&#45;&gt;Node4</title>
<path fill="none" stroke="#63b8ff" d="M1527.84,-231.39C1634.2,-226.67 2332.16,-227.19 2363,-195 2493.61,-58.65 1709.6,-95.38 1522,-74 1518.79,-73.63 1515.51,-73.26 1512.19,-72.87"/>
<polygon fill="#63b8ff" stroke="#63b8ff" points="1527.3,-227.92 1517.54,-232.03 1527.74,-234.9 1527.3,-227.92"/>
</g>
<!-- Node5 -->
<g id="node5" class="node">
<title>Node5</title>
<g id="a_node5"><a xlink:href="MaximaOutputAppender_8cpp.html" target="_top" xlink:title="Implements the worksheet output appenders extracted from the wxMaxima god class.">
<polygon fill="white" stroke="#666666" points="1703.5,-74 1530.5,-74 1530.5,-55 1703.5,-55 1703.5,-74"/>
<text text-anchor="middle" x="1617" y="-62" font-family="Helvetica,sans-Serif" font-size="10.00">src/MaximaOutputAppender.cpp</text>
</a>
</g>
</g>
<!-- Node3&#45;&gt;Node5 -->
<g id="edge4" class="edge">
<title>Node3&#45;&gt;Node5</title>
<path fill="none" stroke="#63b8ff" d="M1527.74,-231.4C1635.43,-226.65 2352.34,-228.02 2384,-195 2430.95,-146.03 2347.21,-123.1 2312,-110 2187.02,-63.5 1845.98,-83.88 1713,-74 1709.91,-73.77 1706.77,-73.53 1703.6,-73.28"/>
<polygon fill="#63b8ff" stroke="#63b8ff" points="1527.31,-227.92 1517.54,-232.03 1527.74,-234.9 1527.31,-227.92"/>
</g>
<!-- Node6 -->
<g id="node6" class="node">
<title>Node6</title>
<g id="a_node6"><a xlink:href="Worksheet_8cpp.html" target="_top" xlink:title="This file defines the class Worksheet.">
<polygon fill="white" stroke="#666666" points="269,-74 163,-74 163,-55 269,-55 269,-74"/>
<text text-anchor="middle" x="216" y="-62" font-family="Helvetica,sans-Serif" font-size="10.00">src/Worksheet.cpp</text>
</a>
</g>
</g>
<!-- Node3&#45;&gt;Node6 -->
<g id="edge5" class="edge">
<title>Node3&#45;&gt;Node6</title>
<path fill="none" stroke="#63b8ff" d="M1411.97,-231.36C1410.63,-231.23 1409.31,-231.11 1408,-231 1345.8,-225.75 339.06,-226.2 285,-195 238.89,-168.38 222.08,-98.91 217.46,-74.3"/>
<polygon fill="#63b8ff" stroke="#63b8ff" points="1412.01,-234.88 1422.33,-232.45 1412.75,-227.92 1412.01,-234.88"/>
</g>
<!-- Node7 -->
<g id="node7" class="node">
<title>Node7</title>
<g id="a_node7"><a xlink:href="WorksheetContextMenu_8cpp.html" target="_top" xlink:title="The worksheet&#39;s right&#45;click context menu (see WorksheetContextMenu.h).">
<polygon fill="white" stroke="#666666" points="2657.5,-189.5 2486.5,-189.5 2486.5,-170.5 2657.5,-170.5 2657.5,-189.5"/>
<text text-anchor="middle" x="2572" y="-177.5" font-family="Helvetica,sans-Serif" font-size="10.00">src/WorksheetContextMenu.cpp</text>
</a>
</g>
</g>
<!-- Node3&#45;&gt;Node7 -->
<g id="edge6" class="edge">
<title>Node3&#45;&gt;Node7</title>
<path fill="none" stroke="#63b8ff" d="M1527.51,-231.09C1947.19,-192.57 2056.61,-231.89 2472,-195 2487.1,-193.66 2503.42,-191.63 2518.4,-189.52"/>
<polygon fill="#63b8ff" stroke="#63b8ff" points="1527.17,-227.6 1517.54,-232.01 1527.82,-234.57 1527.17,-227.6"/>
</g>
<!-- Node8 -->
<g id="node8" class="node">
<title>Node8</title>
<g id="a_node8"><a xlink:href="ConfigDialogue_8h.html" target="_top" xlink:title="The configuration dialog.">
<polygon fill="white" stroke="#666666" points="1333.5,-74 1178.5,-74 1178.5,-55 1333.5,-55 1333.5,-74"/>
<text text-anchor="middle" x="1256" y="-62" font-family="Helvetica,sans-Serif" font-size="10.00">src/dialogs/ConfigDialogue.h</text>
</a>
</g>
</g>
<!-- Node3&#45;&gt;Node8 -->
<g id="edge7" class="edge">
<title>Node3&#45;&gt;Node8</title>
<path fill="none" stroke="#63b8ff" d="M1411.97,-231.38C1410.63,-231.25 1409.31,-231.12 1408,-231 1365.63,-227.11 672.37,-225.78 643,-195 633.8,-185.35 634.17,-174.99 643,-165 686.31,-116.02 870.44,-139.35 935,-129 1037.65,-112.54 1157.57,-87.16 1217.62,-74.03"/>
<polygon fill="#63b8ff" stroke="#63b8ff" points="1412,-234.91 1422.32,-232.53 1412.77,-227.95 1412,-234.91"/>
</g>
<!-- Node12 -->
<g id="node12" class="node">
<title>Node12</title>
<g id="a_node12"><a xlink:href="DiffFrame_8h_source.html" target="_top" xlink:title=" ">
<polygon fill="white" stroke="#666666" points="1850.5,-74 1721.5,-74 1721.5,-55 1850.5,-55 1850.5,-74"/>
<text text-anchor="middle" x="1786" y="-62" font-family="Helvetica,sans-Serif" font-size="10.00">src/dialogs/DiffFrame.h</text>
</a>
</g>
</g>
<!-- Node3&#45;&gt;Node12 -->
<g id="edge11" class="edge">
<title>Node3&#45;&gt;Node12</title>
<path fill="none" stroke="#63b8ff" d="M1527.62,-231.4C1636.47,-226.63 2371.55,-228.81 2404,-195 2441.64,-155.78 2365.37,-117.17 2350,-110 2262.89,-69.34 1979.23,-64.84 1850.54,-64.98"/>
<polygon fill="#63b8ff" stroke="#63b8ff" points="1527.31,-227.92 1517.54,-232.02 1527.73,-234.9 1527.31,-227.92"/>
</g>
<!-- Node13 -->
<g id="node13" class="node">
<title>Node13</title>
<g id="a_node13"><a xlink:href="Printout_8cpp.html" target="_top" xlink:title="This file defines the class MathPrintOut.">
<polygon fill="white" stroke="#666666" points="595.5,-189.5 440.5,-189.5 440.5,-170.5 595.5,-170.5 595.5,-189.5"/>
<text text-anchor="middle" x="518" y="-177.5" font-family="Helvetica,sans-Serif" font-size="10.00">src/graphical_io/Printout.cpp</text>
</a>
</g>
</g>
<!-- Node3&#45;&gt;Node13 -->
<g id="edge15" class="edge">
<title>Node3&#45;&gt;Node13</title>
<path fill="none" stroke="#63b8ff" d="M1411.97,-231.38C1410.63,-231.25 1409.31,-231.12 1408,-231 1054.43,-198.86 963.32,-229.75 610,-195 596.17,-193.64 581.25,-191.61 567.54,-189.52"/>
<polygon fill="#63b8ff" stroke="#63b8ff" points="1412,-234.9 1422.32,-232.52 1412.76,-227.95 1412,-234.9"/>
</g>
<!-- Node14 -->
<g id="node14" class="node">
<title>Node14</title>
<g id="a_node14"><a xlink:href="wxMaximaFrame_8h.html" target="_top" xlink:title="This file declares the class wxMaximaFrame.">
<polygon fill="white" stroke="#666666" points="422,-189.5 294,-189.5 294,-170.5 422,-170.5 422,-189.5"/>
<text text-anchor="middle" x="358" y="-177.5" font-family="Helvetica,sans-Serif" font-size="10.00">src/wxMaximaFrame.h</text>
</a>
</g>
</g>
<!-- Node3&#45;&gt;Node14 -->
<g id="edge16" class="edge">
<title>Node3&#45;&gt;Node14</title>
<path fill="none" stroke="#63b8ff" d="M1411.97,-231.36C1410.63,-231.24 1409.31,-231.11 1408,-231 975.11,-193.44 862.74,-244.06 431,-195 419.72,-193.72 407.56,-191.66 396.47,-189.52"/>
<polygon fill="#63b8ff" stroke="#63b8ff" points="1412.01,-234.89 1422.33,-232.48 1412.76,-227.93 1412.01,-234.89"/>
</g>
<!-- Node25 -->
<g id="node25" class="node">
<title>Node25</title>
<g id="a_node25"><a xlink:href="test__Accessibility_8cpp.html" target="_top" xlink:title="Logic&#45;level regression tests for wxMaxima&#39;s custom wxAccessible classes.">
<polygon fill="white" stroke="#666666" points="760,-195 652,-195 652,-165 760,-165 760,-195"/>
<text text-anchor="start" x="660" y="-183" font-family="Helvetica,sans-Serif" font-size="10.00">test/unit_tests/test</text>
<text text-anchor="middle" x="706" y="-172" font-family="Helvetica,sans-Serif" font-size="10.00">_Accessibility.cpp</text>
</a>
</g>
</g>
<!-- Node3&#45;&gt;Node25 -->
<g id="edge38" class="edge">
<title>Node3&#45;&gt;Node25</title>
<path fill="none" stroke="#63b8ff" d="M1411.96,-231.4C1410.63,-231.26 1409.31,-231.13 1408,-231 1124.87,-203.66 1050.77,-233.98 769,-195 766.11,-194.6 763.17,-194.14 760.19,-193.63"/>
<polygon fill="#63b8ff" stroke="#63b8ff" points="1411.99,-234.92 1422.32,-232.57 1412.77,-227.97 1411.99,-234.92"/>
</g>
<!-- Node26 -->
<g id="node26" class="node">
<title>Node26</title>
<g id="a_node26"><a xlink:href="test__EditorCellInvariants_8cpp.html" target="_top" xlink:title="Hardening tests for EditorCell&#39;s text&#45;editing core.">
<polygon fill="white" stroke="#666666" points="916,-195 778,-195 778,-165 916,-165 916,-195"/>
<text text-anchor="start" x="786" y="-183" font-family="Helvetica,sans-Serif" font-size="10.00">test/unit_tests/test</text>
<text text-anchor="middle" x="847" y="-172" font-family="Helvetica,sans-Serif" font-size="10.00">_EditorCellInvariants.cpp</text>
</a>
</g>
</g>
<!-- Node3&#45;&gt;Node26 -->
<g id="edge39" class="edge">
<title>Node3&#45;&gt;Node26</title>
<path fill="none" stroke="#63b8ff" d="M1411.96,-231.43C1410.63,-231.28 1409.31,-231.14 1408,-231 1193.93,-208.37 1138.56,-222.05 925,-195 922.13,-194.64 919.21,-194.24 916.27,-193.82"/>
<polygon fill="#63b8ff" stroke="#63b8ff" points="1411.97,-234.96 1422.31,-232.66 1412.79,-228.01 1411.97,-234.96"/>
</g>
<!-- Node3&#45;&gt;Node27 -->
<g id="edge40" class="edge">
<title>Node3&#45;&gt;Node27</title>
<path fill="none" stroke="#63b8ff" d="M1411.97,-231.35C1410.63,-231.23 1409.31,-231.11 1408,-231 856.76,-185.37 714.76,-246.08 164,-195 159.48,-194.58 154.85,-194.08 150.18,-193.51"/>
<polygon fill="#63b8ff" stroke="#63b8ff" points="1412.02,-234.87 1422.33,-232.44 1412.75,-227.91 1412.02,-234.87"/>
</g>
<!-- Node28 -->
<g id="node28" class="node">
<title>Node28</title>
<g id="a_node28"><a xlink:href="test__GroupCellLayout_8cpp.html" target="_top" xlink:title="Regression tests for the GroupCell &lt;&#45;&gt; EditorCell layout coupling.">
<polygon fill="white" stroke="#666666" points="1057.5,-195 934.5,-195 934.5,-165 1057.5,-165 1057.5,-195"/>
<text text-anchor="start" x="942.5" y="-183" font-family="Helvetica,sans-Serif" font-size="10.00">test/unit_tests/test</text>
<text text-anchor="middle" x="996" y="-172" font-family="Helvetica,sans-Serif" font-size="10.00">_GroupCellLayout.cpp</text>
</a>
</g>
</g>
<!-- Node3&#45;&gt;Node28 -->
<g id="edge41" class="edge">
<title>Node3&#45;&gt;Node28</title>
<path fill="none" stroke="#63b8ff" d="M1411.95,-231.49C1410.62,-231.32 1409.3,-231.16 1408,-231 1256.71,-212.65 1217.69,-217.76 1067,-195 1063.89,-194.53 1060.72,-194.02 1057.51,-193.48"/>
<polygon fill="#63b8ff" stroke="#63b8ff" points="1411.93,-235.01 1422.29,-232.81 1412.82,-228.07 1411.93,-235.01"/>
</g>
<!-- Node29 -->
<g id="node29" class="node">
<title>Node29</title>
<g id="a_node29"><a xlink:href="test__LayoutInvariants_8cpp.html" target="_top" xlink:title="Layout idempotency invariants.">
<polygon fill="white" stroke="#666666" points="1200,-195 1076,-195 1076,-165 1200,-165 1200,-195"/>
<text text-anchor="start" x="1084" y="-183" font-family="Helvetica,sans-Serif" font-size="10.00">test/unit_tests/test</text>
<text text-anchor="middle" x="1138" y="-172" font-family="Helvetica,sans-Serif" font-size="10.00">_LayoutInvariants.cpp</text>
</a>
</g>
</g>
<!-- Node3&#45;&gt;Node29 -->
<g id="edge42" class="edge">
<title>Node3&#45;&gt;Node29</title>
<path fill="none" stroke="#63b8ff" d="M1412.43,-230.12C1359.49,-221.4 1278.87,-207.84 1209,-195 1206.16,-194.48 1203.25,-193.94 1200.32,-193.38"/>
<polygon fill="#63b8ff" stroke="#63b8ff" points="1411.87,-233.58 1422.31,-231.75 1413.01,-226.67 1411.87,-233.58"/>
</g>
<!-- Node30 -->
<g id="node30" class="node">
<title>Node30</title>
<g id="a_node30"><a xlink:href="test__TreeUndo_8cpp.html" target="_top" xlink:title="Regression tests for the worksheet&#39;s cell&#45;tree undo/redo (the TreeUndo_* subsystem of Worksheet).">
<polygon fill="white" stroke="#666666" points="1326,-195 1218,-195 1218,-165 1326,-165 1326,-195"/>
<text text-anchor="start" x="1226" y="-183" font-family="Helvetica,sans-Serif" font-size="10.00">test/unit_tests/test</text>
<text text-anchor="middle" x="1272" y="-172" font-family="Helvetica,sans-Serif" font-size="10.00">_TreeUndo.cpp</text>
</a>
</g>
</g>
<!-- Node3&#45;&gt;Node30 -->
<g id="edge43" class="edge">
<title>Node3&#45;&gt;Node30</title>
<path fill="none" stroke="#63b8ff" d="M1431.34,-228.08C1399.36,-218.63 1353.82,-205.17 1319.6,-195.06"/>
<polygon fill="#63b8ff" stroke="#63b8ff" points="1430.63,-231.52 1441.21,-230.99 1432.61,-224.8 1430.63,-231.52"/>
</g>
<!-- Node31 -->
<g id="node31" class="node">
<title>Node31</title>
<g id="a_node31"><a xlink:href="test__WXMRoundtrip_8cpp.html" target="_top" xlink:title="Regression tests for images surviving the .wxm serialization round&#45;trip.">
<polygon fill="white" stroke="#666666" points="1459.5,-195 1344.5,-195 1344.5,-165 1459.5,-165 1459.5,-195"/>
<text text-anchor="start" x="1352.5" y="-183" font-family="Helvetica,sans-Serif" font-size="10.00">test/unit_tests/test</text>
<text text-anchor="middle" x="1402" y="-172" font-family="Helvetica,sans-Serif" font-size="10.00">_WXMRoundtrip.cpp</text>
</a>
</g>
</g>
<!-- Node3&#45;&gt;Node31 -->
<g id="edge44" class="edge">
<title>Node3&#45;&gt;Node31</title>
<path fill="none" stroke="#63b8ff" d="M1452.26,-224.23C1441.79,-215.23 1428.63,-203.91 1418.41,-195.11"/>
<polygon fill="#63b8ff" stroke="#63b8ff" points="1450.1,-227 1459.97,-230.87 1454.67,-221.69 1450.1,-227"/>
</g>
<!-- Node32 -->
<g id="node32" class="node">
<title>Node32</title>
<g id="a_node32"><a xlink:href="test__WXMXRoundtrip_8cpp.html" target="_top" xlink:title="Round&#45;trip tests for the .wxmx content.xml (the MathML&#45;like math format).">
<polygon fill="white" stroke="#666666" points="1600,-195 1478,-195 1478,-165 1600,-165 1600,-195"/>
<text text-anchor="start" x="1486" y="-183" font-family="Helvetica,sans-Serif" font-size="10.00">test/unit_tests/test</text>
<text text-anchor="middle" x="1539" y="-172" font-family="Helvetica,sans-Serif" font-size="10.00">_WXMXRoundtrip.cpp</text>
</a>
</g>
</g>
<!-- Node3&#45;&gt;Node32 -->
<g id="edge45" class="edge">
<title>Node3&#45;&gt;Node32</title>
<path fill="none" stroke="#63b8ff" d="M1488.01,-224.23C1498.63,-215.23 1511.98,-203.91 1522.35,-195.11"/>
<polygon fill="#63b8ff" stroke="#63b8ff" points="1485.55,-221.73 1480.18,-230.87 1490.07,-227.07 1485.55,-221.73"/>
</g>
<!-- Node33 -->
<g id="node33" class="node">
<title>Node33</title>
<g id="a_node33"><a xlink:href="test__WorksheetClipboard_8cpp.html" target="_top" xlink:title="Safety net for the multi&#45;format clipboard / drag&#45;and&#45;drop payload of Worksheet.">
<polygon fill="white" stroke="#666666" points="1758,-195 1618,-195 1618,-165 1758,-165 1758,-195"/>
<text text-anchor="start" x="1626" y="-183" font-family="Helvetica,sans-Serif" font-size="10.00">test/unit_tests/test</text>
<text text-anchor="middle" x="1688" y="-172" font-family="Helvetica,sans-Serif" font-size="10.00">_WorksheetClipboard.cpp</text>
</a>
</g>
</g>
<!-- Node3&#45;&gt;Node33 -->
<g id="edge46" class="edge">
<title>Node3&#45;&gt;Node33</title>
<path fill="none" stroke="#63b8ff" d="M1511.66,-228.32C1546.9,-218.86 1597.59,-205.26 1635.59,-195.06"/>
<polygon fill="#63b8ff" stroke="#63b8ff" points="1510.45,-225.02 1501.7,-230.99 1512.26,-231.78 1510.45,-225.02"/>
</g>
<!-- Node34 -->
<g id="node34" class="node">
<title>Node34</title>
<g id="a_node34"><a xlink:href="test__WorksheetContextMenu_8cpp.html" target="_top" xlink:title="Regression tests for the worksheet&#39;s right&#45;click context menu.">
<polygon fill="white" stroke="#666666" points="1935.5,-195 1776.5,-195 1776.5,-165 1935.5,-165 1935.5,-195"/>
<text text-anchor="start" x="1784.5" y="-183" font-family="Helvetica,sans-Serif" font-size="10.00">test/unit_tests/test</text>
<text text-anchor="middle" x="1856" y="-172" font-family="Helvetica,sans-Serif" font-size="10.00">_WorksheetContextMenu.cpp</text>
</a>
</g>
</g>
<!-- Node3&#45;&gt;Node34 -->
<g id="edge47" class="edge">
<title>Node3&#45;&gt;Node34</title>
<path fill="none" stroke="#63b8ff" d="M1527.91,-230.85C1607.61,-218.93 1743.91,-198.55 1767,-195 1770.09,-194.53 1773.24,-194.04 1776.43,-193.55"/>
<polygon fill="#63b8ff" stroke="#63b8ff" points="1526.91,-227.46 1517.54,-232.4 1527.94,-234.38 1526.91,-227.46"/>
</g>
<!-- Node35 -->
<g id="node35" class="node">
<title>Node35</title>
<g id="a_node35"><a xlink:href="test__WorksheetCursor_8cpp.html" target="_top" xlink:title="Pins the worksheet&#39;s cursor model before it is gathered into a cursor class.">
<polygon fill="white" stroke="#666666" points="2078.5,-195 1953.5,-195 1953.5,-165 2078.5,-165 2078.5,-195"/>
<text text-anchor="start" x="1961.5" y="-183" font-family="Helvetica,sans-Serif" font-size="10.00">test/unit_tests/test</text>
<text text-anchor="middle" x="2016" y="-172" font-family="Helvetica,sans-Serif" font-size="10.00">_WorksheetCursor.cpp</text>
</a>
</g>
</g>
<!-- Node3&#45;&gt;Node35 -->
<g id="edge48" class="edge">
<title>Node3&#45;&gt;Node35</title>
<path fill="none" stroke="#63b8ff" d="M1527.69,-231C1713.93,-209.64 1763.61,-220.62 1945,-195 1947.74,-194.61 1950.53,-194.19 1953.34,-193.74"/>
<polygon fill="#63b8ff" stroke="#63b8ff" points="1527.08,-227.55 1517.56,-232.18 1527.89,-234.5 1527.08,-227.55"/>
</g>
<!-- Node3&#45;&gt;Node36 -->
<g id="edge49" class="edge">
<title>Node3&#45;&gt;Node36</title>
<path fill="none" stroke="#63b8ff" d="M1527.66,-231.08C2033.62,-186.33 2165.95,-245.44 2667,-195 2669.87,-194.71 2672.8,-194.38 2675.75,-194.02"/>
<polygon fill="#63b8ff" stroke="#63b8ff" points="1527.18,-227.61 1517.54,-231.99 1527.81,-234.58 1527.18,-227.61"/>
</g>
<!-- Node37 -->
<g id="node37" class="node">
<title>Node37</title>
<g id="a_node37"><a xlink:href="test__WorksheetExport_8cpp.html" target="_top" xlink:title="Safety net for the export/serialization cluster of Worksheet.">
<polygon fill="white" stroke="#666666" points="2221.5,-195 2096.5,-195 2096.5,-165 2221.5,-165 2221.5,-195"/>
<text text-anchor="start" x="2104.5" y="-183" font-family="Helvetica,sans-Serif" font-size="10.00">test/unit_tests/test</text>
<text text-anchor="middle" x="2159" y="-172" font-family="Helvetica,sans-Serif" font-size="10.00">_WorksheetExport.cpp</text>
</a>
</g>
</g>
<!-- Node3&#45;&gt;Node37 -->
<g id="edge50" class="edge">
<title>Node3&#45;&gt;Node37</title>
<path fill="none" stroke="#63b8ff" d="M1527.65,-231.04C1777.18,-205.14 1843.51,-226.81 2088,-195 2090.74,-194.64 2093.54,-194.24 2096.35,-193.81"/>
<polygon fill="#63b8ff" stroke="#63b8ff" points="1527.13,-227.58 1517.55,-232.1 1527.86,-234.54 1527.13,-227.58"/>
</g>
<!-- Node38 -->
<g id="node38" class="node">
<title>Node38</title>
<g id="a_node38"><a xlink:href="test__WorksheetFind_8cpp.html" target="_top" xlink:title="Pins the worksheet&#39;s find/replace behavior before the search engine is extracted into WorksheetSearch...">
<polygon fill="white" stroke="#666666" points="2354,-195 2240,-195 2240,-165 2354,-165 2354,-195"/>
<text text-anchor="start" x="2248" y="-183" font-family="Helvetica,sans-Serif" font-size="10.00">test/unit_tests/test</text>
<text text-anchor="middle" x="2297" y="-172" font-family="Helvetica,sans-Serif" font-size="10.00">_WorksheetFind.cpp</text>
</a>
</g>
</g>
<!-- Node3&#45;&gt;Node38 -->
<g id="edge51" class="edge">
<title>Node3&#45;&gt;Node38</title>
<path fill="none" stroke="#63b8ff" d="M1527.81,-231.04C1840.53,-200.62 1923.69,-235.2 2231,-195 2233.9,-194.62 2236.87,-194.18 2239.86,-193.7"/>
<polygon fill="#63b8ff" stroke="#63b8ff" points="1527.15,-227.59 1517.54,-232.06 1527.84,-234.56 1527.15,-227.59"/>
</g>
<!-- Node9 -->
<g id="node9" class="node">
<title>Node9</title>
<g id="a_node9"><a xlink:href="MaximaCommandMenus_8cpp.html" target="_top" xlink:title="Implementation of the menu&#45;command handlers extracted from wxMaxima &#45; see MaximaCommandMenus....">
<polygon fill="white" stroke="#666666" points="1450,-19 1274,-19 1274,0 1450,0 1450,-19"/>
<text text-anchor="middle" x="1362" y="-7" font-family="Helvetica,sans-Serif" font-size="10.00">src/MaximaCommandMenus.cpp</text>
</a>
</g>
</g>
<!-- Node8&#45;&gt;Node9 -->
<g id="edge8" class="edge">
<title>Node8&#45;&gt;Node9</title>
<path fill="none" stroke="#63b8ff" d="M1282,-50.5C1301.5,-40.75 1327.65,-27.68 1344.66,-19.17"/>
<polygon fill="#63b8ff" stroke="#63b8ff" points="1280.41,-47.38 1273.03,-54.98 1283.54,-53.64 1280.41,-47.38"/>
</g>
<!-- Node10 -->
<g id="node10" class="node">
<title>Node10</title>
<g id="a_node10"><a xlink:href="main_8cpp.html" target="_top" xlink:title="The file that defines the starting point of the program.">
<polygon fill="white" stroke="#666666" points="989.5,-19 910.5,-19 910.5,0 989.5,0 989.5,-19"/>
<text text-anchor="middle" x="950" y="-7" font-family="Helvetica,sans-Serif" font-size="10.00">src/main.cpp</text>
</a>
</g>
</g>
<!-- Node8&#45;&gt;Node10 -->
<g id="edge9" class="edge">
<title>Node8&#45;&gt;Node10</title>
<path fill="none" stroke="#63b8ff" d="M1196.97,-53.28C1135.99,-42.71 1042.51,-26.52 989.78,-17.39"/>
<polygon fill="#63b8ff" stroke="#63b8ff" points="1196.39,-56.73 1206.84,-54.98 1197.58,-49.83 1196.39,-56.73"/>
</g>
<!-- Node11 -->
<g id="node11" class="node">
<title>Node11</title>
<g id="a_node11"><a xlink:href="wxMaxima_8cpp.html" target="_top" xlink:title="This file defines the contents of the class wxMaxima that contains most of the program&#39;s logic.">
<polygon fill="white" stroke="#666666" points="758,-19 650,-19 650,0 758,0 758,-19"/>
<text text-anchor="middle" x="704" y="-7" font-family="Helvetica,sans-Serif" font-size="10.00">src/wxMaxima.cpp</text>
</a>
</g>
</g>
<!-- Node8&#45;&gt;Node11 -->
<g id="edge10" class="edge">
<title>Node8&#45;&gt;Node11</title>
<path fill="none" stroke="#63b8ff" d="M1168.01,-54.91C1012.77,-39.9 842.89,-23.71 758.06,-15.64"/>
<polygon fill="#63b8ff" stroke="#63b8ff" points="1167.92,-58.41 1178.21,-55.89 1168.6,-51.45 1167.92,-58.41"/>
</g>
<!-- Node12&#45;&gt;Node9 -->
<g id="edge12" class="edge">
<title>Node12&#45;&gt;Node9</title>
<path fill="none" stroke="#63b8ff" d="M1711.19,-54.15C1631.63,-44.2 1506.88,-28.61 1430.01,-19"/>
<polygon fill="#63b8ff" stroke="#63b8ff" points="1710.79,-57.63 1721.14,-55.39 1711.65,-50.68 1710.79,-57.63"/>
</g>
<!-- Node12&#45;&gt;Node10 -->
<g id="edge13" class="edge">
<title>Node12&#45;&gt;Node10</title>
<path fill="none" stroke="#63b8ff" d="M1711.12,-54.88C1428.94,-30.54 1101.68,-16.43 989.77,-12.01"/>
<polygon fill="#63b8ff" stroke="#63b8ff" points="1710.88,-58.37 1721.14,-55.75 1711.48,-51.4 1710.88,-58.37"/>
</g>
<!-- Node12&#45;&gt;Node11 -->
<g id="edge14" class="edge">
<title>Node12&#45;&gt;Node11</title>
<path fill="none" stroke="#63b8ff" d="M1711.05,-55.09C1616.76,-49.95 953.91,-21.28 758.22,-12.84"/>
<polygon fill="#63b8ff" stroke="#63b8ff" points="1710.95,-58.59 1721.15,-55.7 1711.38,-51.6 1710.95,-58.59"/>
</g>
<!-- Node14&#45;&gt;Node6 -->
<g id="edge18" class="edge">
<title>Node14&#45;&gt;Node6</title>
<path fill="none" stroke="#63b8ff" d="M327.43,-166.23C308.53,-157.45 284.46,-144.57 266,-129 246.48,-112.53 229.44,-87.38 221.23,-74.22"/>
<polygon fill="#63b8ff" stroke="#63b8ff" points="326.22,-169.53 336.78,-170.44 329.1,-163.14 326.22,-169.53"/>
</g>
<!-- Node15 -->
<g id="node15" class="node">
<title>Node15</title>
<g id="a_node15"><a xlink:href="AutocompletePopup_8cpp.html" target="_top" xlink:title="This file defines the class AutocompletePopup.">
<polygon fill="white" stroke="#666666" points="434,-129 282,-129 282,-110 434,-110 434,-129"/>
<text text-anchor="middle" x="358" y="-117" font-family="Helvetica,sans-Serif" font-size="10.00">src/AutocompletePopup.cpp</text>
</a>
</g>
</g>
<!-- Node14&#45;&gt;Node15 -->
<g id="edge17" class="edge">
<title>Node14&#45;&gt;Node15</title>
<path fill="none" stroke="#63b8ff" d="M358,-160.16C358,-149.74 358,-137.3 358,-129.17"/>
<polygon fill="#63b8ff" stroke="#63b8ff" points="354.5,-160.37 358,-170.37 361.5,-160.37 354.5,-160.37"/>
</g>
<!-- Node16 -->
<g id="node16" class="node">
<title>Node16</title>
<g id="a_node16"><a xlink:href="EditorCell_8cpp.html" target="_top" xlink:title="This file defines the class EditorCell.">
<polygon fill="white" stroke="#666666" points="541.5,-74 414.5,-74 414.5,-55 541.5,-55 541.5,-74"/>
<text text-anchor="middle" x="478" y="-62" font-family="Helvetica,sans-Serif" font-size="10.00">src/cells/EditorCell.cpp</text>
</a>
</g>
</g>
<!-- Node14&#45;&gt;Node16 -->
<g id="edge19" class="edge">
<title>Node14&#45;&gt;Node16</title>
<path fill="none" stroke="#63b8ff" d="M388.6,-166C406.11,-157.42 427.59,-144.85 443,-129 458.97,-112.58 469.92,-87.41 474.92,-74.23"/>
<polygon fill="#63b8ff" stroke="#63b8ff" points="386.9,-162.93 379.34,-170.35 389.88,-169.27 386.9,-162.93"/>
</g>
<!-- Node17 -->
<g id="node17" class="node">
<title>Node17</title>
<g id="a_node17"><a xlink:href="main_8h.html" target="_top" xlink:title="This file declares the class wxMaxima that contains most of the program&#39;s logic.">
<polygon fill="white" stroke="#666666" points="396,-74 328,-74 328,-55 396,-55 396,-74"/>
<text text-anchor="middle" x="362" y="-62" font-family="Helvetica,sans-Serif" font-size="10.00">src/main.h</text>
</a>
</g>
</g>
<!-- Node14&#45;&gt;Node17 -->
<g id="edge20" class="edge">
<title>Node14&#45;&gt;Node17</title>
<path fill="none" stroke="#63b8ff" d="M321.37,-166.9C291.83,-155.01 257.54,-135.02 273,-110 284.9,-90.75 307.92,-79.55 327.57,-73.2"/>
<polygon fill="#63b8ff" stroke="#63b8ff" points="320.14,-170.17 330.73,-170.47 322.64,-163.64 320.14,-170.17"/>
</g>
<!-- Node19 -->
<g id="node19" class="node">
<title>Node19</title>
<g id="a_node19"><a xlink:href="GreekSidebar_8cpp.html" target="_top" xlink:title="This file defines the class GreekSidebar.">
<polygon fill="white" stroke="#666666" points="654,-129 490,-129 490,-110 654,-110 654,-129"/>
<text text-anchor="middle" x="572" y="-117" font-family="Helvetica,sans-Serif" font-size="10.00">src/sidebars/GreekSidebar.cpp</text>
</a>
</g>
</g>
<!-- Node14&#45;&gt;Node19 -->
<g id="edge24" class="edge">
<title>Node14&#45;&gt;Node19</title>
<path fill="none" stroke="#63b8ff" d="M398.88,-167.82C440.27,-156.51 503.35,-139.27 540.85,-129.02"/>
<polygon fill="#63b8ff" stroke="#63b8ff" points="397.84,-164.48 389.12,-170.49 399.69,-171.23 397.84,-164.48"/>
</g>
<!-- Node20 -->
<g id="node20" class="node">
<title>Node20</title>
<g id="a_node20"><a xlink:href="wxMaxima_8h.html" target="_top" xlink:title="This file declares the class wxMaxima that contains most of the program&#39;s logic.">
<polygon fill="white" stroke="#666666" points="769.5,-129 672.5,-129 672.5,-110 769.5,-110 769.5,-129"/>
<text text-anchor="middle" x="721" y="-117" font-family="Helvetica,sans-Serif" font-size="10.00">src/wxMaxima.h</text>
</a>
</g>
</g>
<!-- Node14&#45;&gt;Node20 -->
<g id="edge25" class="edge">
<title>Node14&#45;&gt;Node20</title>
<path fill="none" stroke="#63b8ff" d="M411.43,-168.52C418.02,-167.29 424.66,-166.09 431,-165 476.36,-157.17 602.24,-138.21 672.32,-127.75"/>
<polygon fill="#63b8ff" stroke="#63b8ff" points="410.37,-165.15 401.18,-170.44 411.66,-172.03 410.37,-165.15"/>
</g>
<!-- Node24 -->
<g id="node24" class="node">
<title>Node24</title>
<g id="a_node24"><a xlink:href="wxMaximaFrame_8cpp.html" target="_top" xlink:title="This file defines the class wxMaximaFrame.">
<polygon fill="white" stroke="#666666" points="926.5,-129 787.5,-129 787.5,-110 926.5,-110 926.5,-129"/>
<text text-anchor="middle" x="857" y="-117" font-family="Helvetica,sans-Serif" font-size="10.00">src/wxMaximaFrame.cpp</text>
</a>
</g>
</g>
<!-- Node14&#45;&gt;Node24 -->
<g id="edge37" class="edge">
<title>Node14&#45;&gt;Node24</title>
<path fill="none" stroke="#63b8ff" d="M409.08,-168.63C416.42,-167.3 423.89,-166.05 431,-165 584.39,-142.38 623.81,-145.29 778,-129 781.02,-128.68 784.1,-128.35 787.21,-128.02"/>
<polygon fill="#63b8ff" stroke="#63b8ff" points="408.4,-165.19 399.2,-170.46 409.67,-172.07 408.4,-165.19"/>
</g>
<!-- Node17&#45;&gt;Node10 -->
<g id="edge22" class="edge">
<title>Node17&#45;&gt;Node10</title>
<path fill="none" stroke="#63b8ff" d="M406.33,-54.97C600.77,-28.4 821.46,-16.32 910.17,-12.2"/>
<polygon fill="#63b8ff" stroke="#63b8ff" points="405.63,-51.54 396.21,-56.37 406.59,-58.47 405.63,-51.54"/>
</g>
<!-- Node17&#45;&gt;Node11 -->
<g id="edge23" class="edge">
<title>Node17&#45;&gt;Node11</title>
<path fill="none" stroke="#63b8ff" d="M406.18,-54.86C497.28,-39.23 591.98,-25.72 649.86,-17.77"/>
<polygon fill="#63b8ff" stroke="#63b8ff" points="405.5,-51.43 396.24,-56.58 406.69,-58.33 405.5,-51.43"/>
</g>
<!-- Node18 -->
<g id="node18" class="node">
<title>Node18</title>
<g id="a_node18"><a xlink:href="MaximaManual_8cpp.html" target="_top" xlink:title="This file defines the class MaximaManual.">
<polygon fill="white" stroke="#666666" points="427,-19 297,-19 297,0 427,0 427,-19"/>
<text text-anchor="middle" x="362" y="-7" font-family="Helvetica,sans-Serif" font-size="10.00">src/MaximaManual.cpp</text>
</a>
</g>
</g>
<!-- Node17&#45;&gt;Node18 -->
<g id="edge21" class="edge">
<title>Node17&#45;&gt;Node18</title>
<path fill="none" stroke="#63b8ff" d="M362,-44.66C362,-35.93 362,-25.99 362,-19.09"/>
<polygon fill="#63b8ff" stroke="#63b8ff" points="358.5,-44.75 362,-54.75 365.5,-44.75 358.5,-44.75"/>
</g>
<!-- Node20&#45;&gt;Node4 -->
<g id="edge28" class="edge">
<title>Node20&#45;&gt;Node4</title>
<path fill="none" stroke="#63b8ff" d="M780.08,-109.87C1044.57,-82.7 1114.1,-96.71 1376,-74 1380.44,-73.62 1385.02,-73.18 1389.63,-72.72"/>
<polygon fill="#63b8ff" stroke="#63b8ff" points="779.37,-106.42 769.78,-110.94 780.09,-113.39 779.37,-106.42"/>
</g>
<!-- Node20&#45;&gt;Node5 -->
<g id="edge29" class="edge">
<title>Node20&#45;&gt;Node5</title>
<path fill="none" stroke="#63b8ff" d="M780.07,-109.89C1108.77,-77.96 1194.54,-96.35 1521,-74 1524.09,-73.79 1527.23,-73.56 1530.41,-73.33"/>
<polygon fill="#63b8ff" stroke="#63b8ff" points="779.39,-106.44 769.78,-110.9 780.07,-113.41 779.39,-106.44"/>
</g>
<!-- Node20&#45;&gt;Node6 -->
<g id="edge32" class="edge">
<title>Node20&#45;&gt;Node6</title>
<path fill="none" stroke="#63b8ff" d="M662.07,-109.94C513.45,-91.85 351,-77.08 269.07,-69.98"/>
<polygon fill="#63b8ff" stroke="#63b8ff" points="661.94,-113.45 672.29,-111.19 662.79,-106.5 661.94,-113.45"/>
</g>
<!-- Node20&#45;&gt;Node9 -->
<g id="edge26" class="edge">
<title>Node20&#45;&gt;Node9</title>
<path fill="none" stroke="#63b8ff" d="M779.76,-110.13C875.15,-104.02 1294.51,-111.22 1342,-74 1358.92,-60.74 1361.81,-33.23 1362.13,-19.17"/>
<polygon fill="#63b8ff" stroke="#63b8ff" points="779.46,-106.65 769.78,-110.95 780.03,-113.62 779.46,-106.65"/>
</g>
<!-- Node20&#45;&gt;Node10 -->
<g id="edge34" class="edge">
<title>Node20&#45;&gt;Node10</title>
<path fill="none" stroke="#63b8ff" d="M677.92,-106.94C644.6,-95.94 607.21,-77.7 627,-55 645.39,-33.9 828.1,-18.85 910.3,-13.09"/>
<polygon fill="#63b8ff" stroke="#63b8ff" points="677.02,-110.33 687.61,-109.99 679.12,-103.65 677.02,-110.33"/>
</g>
<!-- Node20&#45;&gt;Node11 -->
<g id="edge36" class="edge">
<title>Node20&#45;&gt;Node11</title>
<path fill="none" stroke="#63b8ff" d="M671.52,-107.4C640.01,-99.22 603.39,-87.24 594,-74 574.04,-45.85 619.59,-28.39 658.02,-19.06"/>
<polygon fill="#63b8ff" stroke="#63b8ff" points="670.99,-110.88 681.54,-109.92 672.7,-104.09 670.99,-110.88"/>
</g>
<!-- Node20&#45;&gt;Node16 -->
<g id="edge33" class="edge">
<title>Node20&#45;&gt;Node16</title>
<path fill="none" stroke="#63b8ff" d="M672.01,-107.82C626.47,-97.88 559.5,-83.28 517.35,-74.08"/>
<polygon fill="#63b8ff" stroke="#63b8ff" points="671.44,-111.27 681.96,-109.98 672.93,-104.43 671.44,-111.27"/>
</g>
<!-- Node20&#45;&gt;Node17 -->
<g id="edge35" class="edge">
<title>Node20&#45;&gt;Node17</title>
<path fill="none" stroke="#63b8ff" d="M662.32,-109.92C546.73,-93.57 516.05,-92.71 405,-74 402.15,-73.52 399.2,-72.99 396.24,-72.45"/>
<polygon fill="#63b8ff" stroke="#63b8ff" points="661.88,-113.39 672.27,-111.33 662.86,-106.46 661.88,-113.39"/>
</g>
<!-- Node21 -->
<g id="node21" class="node">
<title>Node21</title>
<g id="a_node21"><a xlink:href="MaximaEvaluator_8cpp.html" target="_top" xlink:title="Implements the evaluation&#45;queue driver extracted from the wxMaxima god class.">
<polygon fill="white" stroke="#666666" points="776,-74 636,-74 636,-55 776,-55 776,-74"/>
<text text-anchor="middle" x="706" y="-62" font-family="Helvetica,sans-Serif" font-size="10.00">src/MaximaEvaluator.cpp</text>
</a>
</g>
</g>
<!-- Node20&#45;&gt;Node21 -->
<g id="edge27" class="edge">
<title>Node20&#45;&gt;Node21</title>
<path fill="none" stroke="#63b8ff" d="M715.75,-99.95C713.26,-91.15 710.4,-81.06 708.43,-74.09"/>
<polygon fill="#63b8ff" stroke="#63b8ff" points="712.43,-101.08 718.52,-109.75 719.17,-99.17 712.43,-101.08"/>
</g>
<!-- Node22 -->
<g id="node22" class="node">
<title>Node22</title>
<g id="a_node22"><a xlink:href="MaximaProcessManager_8cpp.html" target="_top" xlink:title="Implements the Maxima process/socket lifecycle extracted from the wxMaxima god class.">
<polygon fill="white" stroke="#666666" points="967.5,-74 794.5,-74 794.5,-55 967.5,-55 967.5,-74"/>
<text text-anchor="middle" x="881" y="-62" font-family="Helvetica,sans-Serif" font-size="10.00">src/MaximaProcessManager.cpp</text>
</a>
</g>
</g>
<!-- Node20&#45;&gt;Node22 -->
<g id="edge30" class="edge">
<title>Node20&#45;&gt;Node22</title>
<path fill="none" stroke="#63b8ff" d="M756.33,-106.8C786.19,-96.91 828.27,-82.97 855.09,-74.08"/>
<polygon fill="#63b8ff" stroke="#63b8ff" points="755.1,-103.52 746.71,-109.98 757.3,-110.16 755.1,-103.52"/>
</g>
<!-- Node23 -->
<g id="node23" class="node">
<title>Node23</title>
<g id="a_node23"><a xlink:href="MaximaResponseReader_8cpp.html" target="_top" xlink:title="Implements the Maxima&#45;response handlers extracted from the wxMaxima god class.">
<polygon fill="white" stroke="#666666" points="1160.5,-74 985.5,-74 985.5,-55 1160.5,-55 1160.5,-74"/>
<text text-anchor="middle" x="1073" y="-62" font-family="Helvetica,sans-Serif" font-size="10.00">src/MaximaResponseReader.cpp</text>
</a>
</g>
</g>
<!-- Node20&#45;&gt;Node23 -->
<g id="edge31" class="edge">
<title>Node20&#45;&gt;Node23</title>
<path fill="none" stroke="#63b8ff" d="M779.78,-109.65C845.63,-99.74 951.59,-83.78 1016.49,-74.01"/>
<polygon fill="#63b8ff" stroke="#63b8ff" points="778.94,-106.24 769.57,-111.19 779.98,-113.16 778.94,-106.24"/>
</g>
<!-- Node39&#45;&gt;Node3 -->
<g id="edge53" class="edge">
<title>Node39&#45;&gt;Node3</title>
<path fill="none" stroke="#63b8ff" d="M1545.72,-281.23C1527.2,-271.51 1502.58,-258.6 1486.52,-250.17"/>
<polygon fill="#63b8ff" stroke="#63b8ff" points="1544.29,-284.44 1554.77,-285.98 1547.54,-278.24 1544.29,-284.44"/>
</g>
<!-- Node40 -->
<g id="node40" class="node">
<title>Node40</title>
<g id="a_node40"><a xlink:href="WorksheetDocument_8cpp.html" target="_top" xlink:title="Implementation of WorksheetDocument&#39;s structural edits &#45; see WorksheetDocument.h.">
<polygon fill="white" stroke="#666666" points="1692,-250 1536,-250 1536,-231 1692,-231 1692,-250"/>
<text text-anchor="middle" x="1614" y="-238" font-family="Helvetica,sans-Serif" font-size="10.00">src/WorksheetDocument.cpp</text>
</a>
</g>
</g>
<!-- Node39&#45;&gt;Node40 -->
<g id="edge54" class="edge">
<title>Node39&#45;&gt;Node40</title>
<path fill="none" stroke="#63b8ff" d="M1584.42,-277.96C1591.91,-268.72 1600.94,-257.6 1607.03,-250.09"/>
<polygon fill="#63b8ff" stroke="#63b8ff" points="1581.68,-275.78 1578.1,-285.75 1587.12,-280.19 1581.68,-275.78"/>
</g>
</g>
</svg>
        <g id="navigator" transform="translate(0 0)" fill="#404254">
                <rect fill="#f2f5e9" fill-opacity="0.5" stroke="#606060" stroke-width=".5" x="0" y="0" width="60" height="60"/>
                <use id="zoomplus" xlink:href="#zoomPlus" x="17" y="9" onmousedown="handleZoom(evt,'in')"/>
                <use id="zoomminus" xlink:href="#zoomMin" x="42" y="9" onmousedown="handleZoom(evt,'out')"/>
                <use id="reset" xlink:href="#resetDef" x="30" y="36" onmousedown="handleReset()"/>
                <g id="arrowUp" xlink:href="#dirArrow" transform="translate(30 24)" onmousedown="handlePan(0,-1)">
                  <use xlink:href="#rim" fill="#404040">
                        <set attributeName="fill" to="#808080" begin="arrowUp.mouseover" end="arrowUp.mouseout"/>
                  </use>
                  <path fill="none" stroke="white" stroke-width="1.5" d="M0,-3.0v7 M-2.5,-0.5L0,-3.0L2.5,-0.5"/>
                </g>
                <g id="arrowRight" xlink:href="#dirArrow" transform="rotate(90) translate(36 -43)" onmousedown="handlePan(1,0)">
                  <use xlink:href="#rim" fill="#404040">
                        <set attributeName="fill" to="#808080" begin="arrowRight.mouseover" end="arrowRight.mouseout"/>
                  </use>
                  <path fill="none" stroke="white" stroke-width="1.5" d="M0,-3.0v7 M-2.5,-0.5L0,-3.0L2.5,-0.5"/>
                </g>
                <g id="arrowDown" xlink:href="#dirArrow" transform="rotate(180) translate(-30 -48)" onmousedown="handlePan(0,1)">
                  <use xlink:href="#rim" fill="#404040">
                        <set attributeName="fill" to="#808080" begin="arrowDown.mouseover" end="arrowDown.mouseout"/>
                  </use>
                  <path fill="none" stroke="white" stroke-width="1.5" d="M0,-3.0v7 M-2.5,-0.5L0,-3.0L2.5,-0.5"/>
                </g>
                <g id="arrowLeft" xlink:href="#dirArrow" transform="rotate(270) translate(-36 17)" onmousedown="handlePan(-1,0)">
                  <use xlink:href="#rim" fill="#404040">
                        <set attributeName="fill" to="#808080" begin="arrowLeft.mouseover" end="arrowLeft.mouseout"/>
                  </use>
                  <path fill="none" stroke="white" stroke-width="1.5" d="M0,-3.0v7 M-2.5,-0.5L0,-3.0L2.5,-0.5"/>
                </g>
        </g>
        <svg viewBox="0 0 15 15" width="100%" height="30px" preserveAspectRatio="xMaxYMin meet">
         <g id="arrow_out" transform="scale(0.3 0.3)">
          <a xlink:href="EvaluationQueue_8h__dep__incl_org.svg" target="_base">
           <rect id="button" ry="5" rx="5" y="6" x="6" height="38" width="38"
                fill="#f2f5e9" fill-opacity="0.5" stroke="#606060" stroke-width="1.0"/>
           <path id="arrow"
             d="M 11.500037,31.436501 C 11.940474,20.09759 22.043105,11.32322 32.158766,21.979434 L 37.068811,17.246167 C 37.068811,17.246167 37.088388,32 37.088388,32 L 22.160133,31.978069 C 22.160133,31.978069 26.997745,27.140456 26.997745,27.140456 C 18.528582,18.264221 13.291696,25.230495 11.500037,31.436501 z"
             style="fill:#404040;"/>
          </a>
         </g>
        </svg>
</svg>
