<?xml version="1.0" encoding="UTF-8" standalone="no"?>
<!DOCTYPE svg PUBLIC "-//W3C//DTD SVG 1.1//EN"
 "http://www.w3.org/Graphics/SVG/1.1/DTD/svg11.dtd">
<!-- Generated by graphviz version 2.43.0 (0)
 -->
<!-- Title: src/EvaluationQueue.h Pages: 1 -->
<svg width="1041pt" height="302pt"
 viewBox="0.00 0.00 1041.41 302.00" xmlns="http://www.w3.org/2000/svg" xmlns:xlink="http://www.w3.org/1999/xlink">
<g id="graph0" class="graph" transform="scale(1 1) rotate(0) translate(4 298)">
<title>src/EvaluationQueue.h</title>
<!-- Node1 -->
<g id="node1" class="node">
<title>Node1</title>
<g id="a_node1"><a xlink:title="The evaluation queue.">
<polygon fill="#999999" stroke="#666666" points="234.91,-294 108.91,-294 108.91,-275 234.91,-275 234.91,-294"/>
<text text-anchor="middle" x="171.91" y="-282" font-family="Helvetica,sans-Serif" font-size="10.00">src/EvaluationQueue.h</text>
</a>
</g>
</g>
<!-- Node2 -->
<g id="node2" class="node">
<title>Node2</title>
<g id="a_node2"><a xlink:href="EvaluationQueue_8cpp.html" target="_top" xlink:title="This file defines the class EvaluationQueue.">
<polygon fill="white" stroke="#666666" points="173.41,-239 36.41,-239 36.41,-220 173.41,-220 173.41,-239"/>
<text text-anchor="middle" x="104.91" y="-227" font-family="Helvetica,sans-Serif" font-size="10.00">src/EvaluationQueue.cpp</text>
</a>
</g>
</g>
<!-- Node1&#45;&gt;Node2 -->
<g id="edge1" class="edge">
<title>Node1&#45;&gt;Node2</title>
<path fill="none" stroke="#63b8ff" d="M153.08,-268.6C141.07,-259.11 125.94,-247.13 115.87,-239.17"/>
<polygon fill="#63b8ff" stroke="#63b8ff" points="151.13,-271.53 161.15,-274.98 155.48,-266.04 151.13,-271.53"/>
</g>
<!-- Node3 -->
<g id="node3" class="node">
<title>Node3</title>
<g id="a_node3"><a xlink:href="Worksheet_8h.html" target="_top" xlink:title="This file defines the class Worksheet.">
<polygon fill="white" stroke="#666666" points="286.41,-239 191.41,-239 191.41,-220 286.41,-220 286.41,-239"/>
<text text-anchor="middle" x="238.91" y="-227" font-family="Helvetica,sans-Serif" font-size="10.00">src/Worksheet.h</text>
</a>
</g>
</g>
<!-- Node1&#45;&gt;Node3 -->
<g id="edge2" class="edge">
<title>Node1&#45;&gt;Node3</title>
<path fill="none" stroke="#63b8ff" d="M190.75,-268.6C202.75,-259.11 217.88,-247.13 227.95,-239.17"/>
<polygon fill="#63b8ff" stroke="#63b8ff" points="188.35,-266.04 182.68,-274.98 192.69,-271.53 188.35,-266.04"/>
</g>
<!-- Node4 -->
<g id="node4" class="node">
<title>Node4</title>
<g id="a_node4"><a xlink:href="Worksheet_8cpp.html" target="_top" xlink:title="This file defines the class Worksheet.">
<polygon fill="white" stroke="#666666" points="487.91,-74 381.91,-74 381.91,-55 487.91,-55 487.91,-74"/>
<text text-anchor="middle" x="434.91" y="-62" font-family="Helvetica,sans-Serif" font-size="10.00">src/Worksheet.cpp</text>
</a>
</g>
</g>
<!-- Node3&#45;&gt;Node4 -->
<g id="edge3" class="edge">
<title>Node3&#45;&gt;Node4</title>
<path fill="none" stroke="#63b8ff" d="M248.75,-211.01C263.76,-185.69 294.61,-138.75 331.91,-110 353.82,-93.12 383.12,-81.27 404.86,-74.07"/>
<polygon fill="#63b8ff" stroke="#63b8ff" points="245.62,-209.44 243.63,-219.85 251.67,-212.95 245.62,-209.44"/>
</g>
<!-- Node5 -->
<g id="node5" class="node">
<title>Node5</title>
<g id="a_node5"><a xlink:href="Cell_8cpp.html" target="_top" xlink:title="This file defines the class Cell.">
<polygon fill="white" stroke="#666666" points="110.91,-184 12.91,-184 12.91,-165 110.91,-165 110.91,-184"/>
<text text-anchor="middle" x="61.91" y="-172" font-family="Helvetica,sans-Serif" font-size="10.00">src/cells/Cell.cpp</text>
</a>
</g>
</g>
<!-- Node3&#45;&gt;Node5 -->
<g id="edge4" class="edge">
<title>Node3&#45;&gt;Node5</title>
<path fill="none" stroke="#63b8ff" d="M200.69,-217.06C167.61,-207.15 120.5,-193.04 90.57,-184.08"/>
<polygon fill="#63b8ff" stroke="#63b8ff" points="199.89,-220.47 210.47,-219.98 201.9,-213.76 199.89,-220.47"/>
</g>
<!-- Node6 -->
<g id="node6" class="node">
<title>Node6</title>
<g id="a_node6"><a xlink:href="GroupCell_8cpp.html" target="_top" xlink:title="This file defines the class GroupCell.">
<polygon fill="white" stroke="#666666" points="256.91,-184 128.91,-184 128.91,-165 256.91,-165 256.91,-184"/>
<text text-anchor="middle" x="192.91" y="-172" font-family="Helvetica,sans-Serif" font-size="10.00">src/cells/GroupCell.cpp</text>
</a>
</g>
</g>
<!-- Node3&#45;&gt;Node6 -->
<g id="edge5" class="edge">
<title>Node3&#45;&gt;Node6</title>
<path fill="none" stroke="#63b8ff" d="M224.55,-211.96C216.54,-202.72 206.89,-191.6 200.37,-184.09"/>
<polygon fill="#63b8ff" stroke="#63b8ff" points="222.12,-214.49 231.32,-219.75 227.41,-209.9 222.12,-214.49"/>
</g>
<!-- Node7 -->
<g id="node7" class="node">
<title>Node7</title>
<g id="a_node7"><a xlink:href="ConfigDialogue_8h.html" target="_top" xlink:title="The configuration dialog.">
<polygon fill="white" stroke="#666666" points="363.41,-74 208.41,-74 208.41,-55 363.41,-55 363.41,-74"/>
<text text-anchor="middle" x="285.91" y="-62" font-family="Helvetica,sans-Serif" font-size="10.00">src/dialogs/ConfigDialogue.h</text>
</a>
</g>
</g>
<!-- Node3&#45;&gt;Node7 -->
<g id="edge6" class="edge">
<title>Node3&#45;&gt;Node7</title>
<path fill="none" stroke="#63b8ff" d="M181.08,-219.43C113.35,-208.54 9.6,-190.86 3.91,-184 -1.47,-177.5 -0.96,-171.89 3.91,-165 49.87,-100.05 141.86,-77.21 208.3,-69.33"/>
<polygon fill="#63b8ff" stroke="#63b8ff" points="180.78,-222.93 191.21,-221.05 181.89,-216.02 180.78,-222.93"/>
</g>
<!-- Node10 -->
<g id="node10" class="node">
<title>Node10</title>
<g id="a_node10"><a xlink:href="Printout_8cpp.html" target="_top" xlink:title="This file defines the class MathPrintOut.">
<polygon fill="white" stroke="#666666" points="468.41,-184 313.41,-184 313.41,-165 468.41,-165 468.41,-184"/>
<text text-anchor="middle" x="390.91" y="-172" font-family="Helvetica,sans-Serif" font-size="10.00">src/graphical_io/Printout.cpp</text>
</a>
</g>
</g>
<!-- Node3&#45;&gt;Node10 -->
<g id="edge9" class="edge">
<title>Node3&#45;&gt;Node10</title>
<path fill="none" stroke="#63b8ff" d="M272.84,-216.67C301.19,-206.79 340.93,-192.93 366.3,-184.08"/>
<polygon fill="#63b8ff" stroke="#63b8ff" points="271.62,-213.39 263.33,-219.98 273.93,-220 271.62,-213.39"/>
</g>
<!-- Node11 -->
<g id="node11" class="node">
<title>Node11</title>
<g id="a_node11"><a xlink:href="wxMaximaFrame_8h.html" target="_top" xlink:title="This file declares the class wxMaximaFrame.">
<polygon fill="white" stroke="#666666" points="734.91,-184 606.91,-184 606.91,-165 734.91,-165 734.91,-184"/>
<text text-anchor="middle" x="670.91" y="-172" font-family="Helvetica,sans-Serif" font-size="10.00">src/wxMaximaFrame.h</text>
</a>
</g>
</g>
<!-- Node3&#45;&gt;Node11 -->
<g id="edge10" class="edge">
<title>Node3&#45;&gt;Node11</title>
<path fill="none" stroke="#63b8ff" d="M296.77,-221.4C377.34,-211.52 522.87,-193.66 606.71,-183.38"/>
<polygon fill="#63b8ff" stroke="#63b8ff" points="296.29,-217.93 286.8,-222.63 297.15,-224.88 296.29,-217.93"/>
</g>
<!-- Node8 -->
<g id="node8" class="node">
<title>Node8</title>
<g id="a_node8"><a xlink:href="main_8cpp.html" target="_top" xlink:title="The file that defines the starting point of the program.">
<polygon fill="white" stroke="#666666" points="747.41,-19 668.41,-19 668.41,0 747.41,0 747.41,-19"/>
<text text-anchor="middle" x="707.91" y="-7" font-family="Helvetica,sans-Serif" font-size="10.00">src/main.cpp</text>
</a>
</g>
</g>
<!-- Node7&#45;&gt;Node8 -->
<g id="edge7" class="edge">
<title>Node7&#45;&gt;Node8</title>
<path fill="none" stroke="#63b8ff" d="M373.55,-54.37C449.25,-46.17 561.49,-33.25 658.91,-19 661.99,-18.55 665.17,-18.06 668.36,-17.55"/>
<polygon fill="#63b8ff" stroke="#63b8ff" points="373.15,-50.89 363.58,-55.45 373.9,-57.85 373.15,-50.89"/>
</g>
<!-- Node9 -->
<g id="node9" class="node">
<title>Node9</title>
<g id="a_node9"><a xlink:href="wxMaxima_8cpp.html" target="_top" xlink:title="This file defines the contents of the class wxMaxima that contains most of the program&#39;s logic.">
<polygon fill="white" stroke="#666666" points="649.91,-19 541.91,-19 541.91,0 649.91,0 649.91,-19"/>
<text text-anchor="middle" x="595.91" y="-7" font-family="Helvetica,sans-Serif" font-size="10.00">src/wxMaxima.cpp</text>
</a>
</g>
</g>
<!-- Node7&#45;&gt;Node9 -->
<g id="edge8" class="edge">
<title>Node7&#45;&gt;Node9</title>
<path fill="none" stroke="#63b8ff" d="M345.88,-53.25C404.09,-43.3 491.43,-28.36 545.97,-19.04"/>
<polygon fill="#63b8ff" stroke="#63b8ff" points="344.99,-49.85 335.72,-54.98 346.17,-56.75 344.99,-49.85"/>
</g>
<!-- Node11&#45;&gt;Node4 -->
<g id="edge12" class="edge">
<title>Node11&#45;&gt;Node4</title>
<path fill="none" stroke="#63b8ff" d="M596.7,-168.56C504.84,-161.69 358.43,-147.9 341.91,-129 320.3,-104.27 367.11,-84.65 401.84,-74.08"/>
<polygon fill="#63b8ff" stroke="#63b8ff" points="596.56,-172.06 606.79,-169.31 597.07,-165.08 596.56,-172.06"/>
</g>
<!-- Node12 -->
<g id="node12" class="node">
<title>Node12</title>
<g id="a_node12"><a xlink:href="AutocompletePopup_8cpp.html" target="_top" xlink:title="This file defines the class AutocompletePopup.">
<polygon fill="white" stroke="#666666" points="957.91,-129 805.91,-129 805.91,-110 957.91,-110 957.91,-129"/>
<text text-anchor="middle" x="881.91" y="-117" font-family="Helvetica,sans-Serif" font-size="10.00">src/AutocompletePopup.cpp</text>
</a>
</g>
</g>
<!-- Node11&#45;&gt;Node12 -->
<g id="edge11" class="edge">
<title>Node11&#45;&gt;Node12</title>
<path fill="none" stroke="#63b8ff" d="M714.7,-162.5C754.21,-152.58 811.53,-138.18 847.75,-129.08"/>
<polygon fill="#63b8ff" stroke="#63b8ff" points="713.66,-159.15 704.81,-164.98 715.37,-165.94 713.66,-159.15"/>
</g>
<!-- Node13 -->
<g id="node13" class="node">
<title>Node13</title>
<g id="a_node13"><a xlink:href="EditorCell_8cpp.html" target="_top" xlink:title="This file defines the class EditorCell.">
<polygon fill="white" stroke="#666666" points="1033.41,-74 906.41,-74 906.41,-55 1033.41,-55 1033.41,-74"/>
<text text-anchor="middle" x="969.91" y="-62" font-family="Helvetica,sans-Serif" font-size="10.00">src/cells/EditorCell.cpp</text>
</a>
</g>
</g>
<!-- Node11&#45;&gt;Node13 -->
<g id="edge13" class="edge">
<title>Node11&#45;&gt;Node13</title>
<path fill="none" stroke="#63b8ff" d="M745.15,-173.65C827.49,-172.06 952.75,-163.77 982.91,-129 996.48,-113.36 983.83,-87.4 975.64,-74.03"/>
<polygon fill="#63b8ff" stroke="#63b8ff" points="745.02,-170.16 735.08,-173.82 745.14,-177.15 745.02,-170.16"/>
</g>
<!-- Node14 -->
<g id="node14" class="node">
<title>Node14</title>
<g id="a_node14"><a xlink:href="main_8h.html" target="_top" xlink:title="This file declares the class wxMaxima that contains most of the program&#39;s logic.">
<polygon fill="white" stroke="#666666" points="803.91,-74 735.91,-74 735.91,-55 803.91,-55 803.91,-74"/>
<text text-anchor="middle" x="769.91" y="-62" font-family="Helvetica,sans-Serif" font-size="10.00">src/main.h</text>
</a>
</g>
</g>
<!-- Node11&#45;&gt;Node14 -->
<g id="edge14" class="edge">
<title>Node11&#45;&gt;Node14</title>
<path fill="none" stroke="#63b8ff" d="M745.46,-172.96C823.61,-170.62 938.89,-161.56 966.91,-129 972.42,-122.6 972.19,-116.6 966.91,-110 946.88,-84.94 854.82,-72.97 803.95,-68.18"/>
<polygon fill="#63b8ff" stroke="#63b8ff" points="745.07,-169.47 735.17,-173.23 745.26,-176.47 745.07,-169.47"/>
</g>
<!-- Node16 -->
<g id="node16" class="node">
<title>Node16</title>
<g id="a_node16"><a xlink:href="GreekSidebar_8cpp.html" target="_top" xlink:title="This file defines the class GreekSidebar.">
<polygon fill="white" stroke="#666666" points="514.91,-129 350.91,-129 350.91,-110 514.91,-110 514.91,-129"/>
<text text-anchor="middle" x="432.91" y="-117" font-family="Helvetica,sans-Serif" font-size="10.00">src/sidebars/GreekSidebar.cpp</text>
</a>
</g>
</g>
<!-- Node11&#45;&gt;Node16 -->
<g id="edge18" class="edge">
<title>Node11&#45;&gt;Node16</title>
<path fill="none" stroke="#63b8ff" d="M622.65,-162.75C578.06,-152.82 512.65,-138.26 471.45,-129.08"/>
<polygon fill="#63b8ff" stroke="#63b8ff" points="622.15,-166.23 632.67,-164.98 623.67,-159.39 622.15,-166.23"/>
</g>
<!-- Node17 -->
<g id="node17" class="node">
<title>Node17</title>
<g id="a_node17"><a xlink:href="wxMaxima_8h.html" target="_top" xlink:title="This file declares the class wxMaxima that contains most of the program&#39;s logic.">
<polygon fill="white" stroke="#666666" points="787.41,-129 690.41,-129 690.41,-110 787.41,-110 787.41,-129"/>
<text text-anchor="middle" x="738.91" y="-117" font-family="Helvetica,sans-Serif" font-size="10.00">src/wxMaxima.h</text>
</a>
</g>
</g>
<!-- Node11&#45;&gt;Node17 -->
<g id="edge19" class="edge">
<title>Node11&#45;&gt;Node17</title>
<path fill="none" stroke="#63b8ff" d="M690.03,-158.6C702.21,-149.11 717.57,-137.13 727.79,-129.17"/>
<polygon fill="#63b8ff" stroke="#63b8ff" points="687.57,-156.08 681.84,-164.98 691.88,-161.6 687.57,-156.08"/>
</g>
<!-- Node18 -->
<g id="node18" class="node">
<title>Node18</title>
<g id="a_node18"><a xlink:href="wxMaximaFrame_8cpp.html" target="_top" xlink:title="This file defines the class wxMaximaFrame.">
<polygon fill="white" stroke="#666666" points="672.41,-129 533.41,-129 533.41,-110 672.41,-110 672.41,-129"/>
<text text-anchor="middle" x="602.91" y="-117" font-family="Helvetica,sans-Serif" font-size="10.00">src/wxMaximaFrame.cpp</text>
</a>
</g>
</g>
<!-- Node11&#45;&gt;Node18 -->
<g id="edge25" class="edge">
<title>Node11&#45;&gt;Node18</title>
<path fill="none" stroke="#63b8ff" d="M651.8,-158.6C639.61,-149.11 624.26,-137.13 614.04,-129.17"/>
<polygon fill="#63b8ff" stroke="#63b8ff" points="649.95,-161.6 659.99,-164.98 654.25,-156.08 649.95,-161.6"/>
</g>
<!-- Node14&#45;&gt;Node8 -->
<g id="edge16" class="edge">
<title>Node14&#45;&gt;Node8</title>
<path fill="none" stroke="#63b8ff" d="M752.16,-48.32C741.1,-38.87 727.28,-27.06 718.06,-19.17"/>
<polygon fill="#63b8ff" stroke="#63b8ff" points="750.08,-51.15 759.95,-54.98 754.62,-45.83 750.08,-51.15"/>
</g>
<!-- Node14&#45;&gt;Node9 -->
<g id="edge17" class="edge">
<title>Node14&#45;&gt;Node9</title>
<path fill="none" stroke="#63b8ff" d="M732.34,-52.06C699.82,-42.15 653.51,-28.04 624.09,-19.08"/>
<polygon fill="#63b8ff" stroke="#63b8ff" points="731.37,-55.42 741.96,-54.98 733.41,-48.72 731.37,-55.42"/>
</g>
<!-- Node15 -->
<g id="node15" class="node">
<title>Node15</title>
<g id="a_node15"><a xlink:href="MaximaManual_8cpp.html" target="_top" xlink:title="This file defines the class MaximaManual.">
<polygon fill="white" stroke="#666666" points="895.91,-19 765.91,-19 765.91,0 895.91,0 895.91,-19"/>
<text text-anchor="middle" x="830.91" y="-7" font-family="Helvetica,sans-Serif" font-size="10.00">src/MaximaManual.cpp</text>
</a>
</g>
</g>
<!-- Node14&#45;&gt;Node15 -->
<g id="edge15" class="edge">
<title>Node14&#45;&gt;Node15</title>
<path fill="none" stroke="#63b8ff" d="M787.38,-48.32C798.26,-38.87 811.86,-27.06 820.93,-19.17"/>
<polygon fill="#63b8ff" stroke="#63b8ff" points="784.97,-45.78 779.71,-54.98 789.56,-51.07 784.97,-45.78"/>
</g>
<!-- Node17&#45;&gt;Node4 -->
<g id="edge20" class="edge">
<title>Node17&#45;&gt;Node4</title>
<path fill="none" stroke="#63b8ff" d="M680.44,-108.31C623.31,-98.34 537.33,-83.36 483.75,-74.01"/>
<polygon fill="#63b8ff" stroke="#63b8ff" points="679.95,-111.77 690.41,-110.04 681.16,-104.88 679.95,-111.77"/>
</g>
<!-- Node17&#45;&gt;Node8 -->
<g id="edge22" class="edge">
<title>Node17&#45;&gt;Node8</title>
<path fill="none" stroke="#63b8ff" d="M733.55,-99.8C726.77,-76.2 715.4,-36.58 710.4,-19.16"/>
<polygon fill="#63b8ff" stroke="#63b8ff" points="730.25,-101.02 736.38,-109.66 736.98,-99.08 730.25,-101.02"/>
</g>
<!-- Node17&#45;&gt;Node9 -->
<g id="edge24" class="edge">
<title>Node17&#45;&gt;Node9</title>
<path fill="none" stroke="#63b8ff" d="M719.05,-103.5C688.69,-80.57 631.69,-37.52 607.38,-19.16"/>
<polygon fill="#63b8ff" stroke="#63b8ff" points="717.12,-106.43 727.21,-109.66 721.34,-100.84 717.12,-106.43"/>
</g>
<!-- Node17&#45;&gt;Node13 -->
<g id="edge21" class="edge">
<title>Node17&#45;&gt;Node13</title>
<path fill="none" stroke="#63b8ff" d="M786.03,-107.69C829.31,-97.76 892.6,-83.24 932.51,-74.08"/>
<polygon fill="#63b8ff" stroke="#63b8ff" points="784.99,-104.34 776.03,-109.98 786.56,-111.16 784.99,-104.34"/>
</g>
<!-- Node17&#45;&gt;Node14 -->
<g id="edge23" class="edge">
<title>Node17&#45;&gt;Node14</title>
<path fill="none" stroke="#63b8ff" d="M749.09,-101.1C754.39,-92.04 760.63,-81.37 764.89,-74.09"/>
<polygon fill="#63b8ff" stroke="#63b8ff" points="746.06,-99.35 744.03,-109.75 752.1,-102.88 746.06,-99.35"/>
</g>
</g>
</svg>
