<?xml version="1.0" encoding="UTF-8" standalone="no"?>
<!DOCTYPE svg PUBLIC "-//W3C//DTD SVG 1.1//EN"
 "http://www.w3.org/Graphics/SVG/1.1/DTD/svg11.dtd">
<!-- Generated by graphviz version 2.43.0 (0)
 -->
<!-- Title: src/EvaluationQueue.h Pages: 1 -->
<!--zoomable 313 -->
<svg id="main" version="1.1" xmlns="http://www.w3.org/2000/svg" xmlns:xlink="http://www.w3.org/1999/xlink" xml:space="preserve" onload="init(evt)">
<style type="text/css"><![CDATA[
.edge:hover path { stroke: red; }
.edge:hover polygon { stroke: red; fill: red; }
]]></style>
<script type="text/javascript"><![CDATA[
var edges = document.getElementsByTagName('g');
if (edges && edges.length) {
  for (var i=0;i<edges.length;i++) {
    if (edges[i].id.substr(0,4)=='edge') {
      edges[i].setAttribute('class','edge');
    }
  }
}
]]></script>
        <defs>
                <circle id="rim" cx="0" cy="0" r="7"/>
                <circle id="rim2" cx="0" cy="0" r="3.5"/>
                <g id="zoomPlus">
                        <use xlink:href="#rim" fill="#404040">
                                <set attributeName="fill" to="#808080" begin="zoomplus.mouseover" end="zoomplus.mouseout"/>
                        </use>
                        <path d="M-4,0h8M0,-4v8" fill="none" stroke="white" stroke-width="1.5" pointer-events="none"/>
                </g>
                <g id="zoomMin">
                        <use xlink:href="#rim" fill="#404040">
                                <set attributeName="fill" to="#808080" begin="zoomminus.mouseover" end="zoomminus.mouseout"/>
                        </use>
                        <path d="M-4,0h8" fill="none" stroke="white" stroke-width="1.5" pointer-events="none"/>
                </g>
                <g id="dirArrow">
                        <path fill="none" stroke="white" stroke-width="1.5" d="M0,-3.0v7 M-2.5,-0.5L0,-3.0L2.5,-0.5"/>
                </g>
               <g id="resetDef">
                       <use xlink:href="#rim2" fill="#404040">
                               <set attributeName="fill" to="#808080" begin="reset.mouseover" end="reset.mouseout"/>
                       </use>
               </g>
        </defs>

<script type="text/javascript">
var viewWidth = 2158;
var viewHeight = 313;
var sectionId = 'dynsection-1';
</script>
<script xlink:href="svgpan.js"/>
<svg id="graph" class="graph">
<g id="viewport">
<title>src/EvaluationQueue.h</title>
<!-- Node1 -->
<g id="node1" class="node">
<title>Node1</title>
<g id="a_node1"><a xlink:title="The evaluation queue.">
<polygon fill="#999999" stroke="#666666" points="946.33,-305 820.33,-305 820.33,-286 946.33,-286 946.33,-305"/>
<text text-anchor="middle" x="883.33" y="-293" font-family="Helvetica,sans-Serif" font-size="10.00">src/EvaluationQueue.h</text>
</a>
</g>
</g>
<!-- Node2 -->
<g id="node2" class="node">
<title>Node2</title>
<g id="a_node2"><a xlink:href="EvaluationQueue_8cpp.html" target="_top" xlink:title="This file defines the class EvaluationQueue.">
<polygon fill="white" stroke="#666666" points="884.83,-250 747.83,-250 747.83,-231 884.83,-231 884.83,-250"/>
<text text-anchor="middle" x="816.33" y="-238" font-family="Helvetica,sans-Serif" font-size="10.00">src/EvaluationQueue.cpp</text>
</a>
</g>
</g>
<!-- Node1&#45;&gt;Node2 -->
<g id="edge1" class="edge">
<title>Node1&#45;&gt;Node2</title>
<path fill="none" stroke="#63b8ff" d="M864.49,-279.6C852.49,-270.11 837.35,-258.13 827.29,-250.17"/>
<polygon fill="#63b8ff" stroke="#63b8ff" points="862.55,-282.53 872.56,-285.98 866.89,-277.04 862.55,-282.53"/>
</g>
<!-- Node3 -->
<g id="node3" class="node">
<title>Node3</title>
<g id="a_node3"><a xlink:href="Worksheet_8h.html" target="_top" xlink:title="This file defines the class Worksheet.">
<polygon fill="white" stroke="#666666" points="997.83,-250 902.83,-250 902.83,-231 997.83,-231 997.83,-250"/>
<text text-anchor="middle" x="950.33" y="-238" font-family="Helvetica,sans-Serif" font-size="10.00">src/Worksheet.h</text>
</a>
</g>
</g>
<!-- Node1&#45;&gt;Node3 -->
<g id="edge2" class="edge">
<title>Node1&#45;&gt;Node3</title>
<path fill="none" stroke="#63b8ff" d="M902.16,-279.6C914.16,-270.11 929.3,-258.13 939.36,-250.17"/>
<polygon fill="#63b8ff" stroke="#63b8ff" points="899.76,-277.04 894.09,-285.98 904.1,-282.53 899.76,-277.04"/>
</g>
<!-- Node4 -->
<g id="node4" class="node">
<title>Node4</title>
<g id="a_node4"><a xlink:href="Worksheet_8cpp.html" target="_top" xlink:title="This file defines the class Worksheet.">
<polygon fill="white" stroke="#666666" points="427.33,-74 321.33,-74 321.33,-55 427.33,-55 427.33,-74"/>
<text text-anchor="middle" x="374.33" y="-62" font-family="Helvetica,sans-Serif" font-size="10.00">src/Worksheet.cpp</text>
</a>
</g>
</g>
<!-- Node3&#45;&gt;Node4 -->
<g id="edge3" class="edge">
<title>Node3&#45;&gt;Node4</title>
<path fill="none" stroke="#63b8ff" d="M892.47,-231.18C789.6,-225.31 323.62,-243.02 278.33,-195 255.56,-170.86 302.87,-113.85 306.33,-110 320.36,-94.35 341.09,-81.84 355.97,-74.12"/>
<polygon fill="#63b8ff" stroke="#63b8ff" points="892.47,-234.69 902.7,-231.97 893,-227.71 892.47,-234.69"/>
</g>
<!-- Node5 -->
<g id="node5" class="node">
<title>Node5</title>
<g id="a_node5"><a xlink:href="WorksheetContextMenu_8cpp.html" target="_top" xlink:title="The worksheet&#39;s right&#45;click context menu (see WorksheetContextMenu.h).">
<polygon fill="white" stroke="#666666" points="191.83,-189.5 20.83,-189.5 20.83,-170.5 191.83,-170.5 191.83,-189.5"/>
<text text-anchor="middle" x="106.33" y="-177.5" font-family="Helvetica,sans-Serif" font-size="10.00">src/WorksheetContextMenu.cpp</text>
</a>
</g>
</g>
<!-- Node3&#45;&gt;Node5 -->
<g id="edge4" class="edge">
<title>Node3&#45;&gt;Node5</title>
<path fill="none" stroke="#63b8ff" d="M892.7,-230.94C587.99,-200.5 507.85,-223.94 206.33,-195 191.58,-193.58 175.67,-191.58 160.98,-189.53"/>
<polygon fill="#63b8ff" stroke="#63b8ff" points="892.41,-234.42 902.71,-231.95 893.11,-227.46 892.41,-234.42"/>
</g>
<!-- Node6 -->
<g id="node6" class="node">
<title>Node6</title>
<g id="a_node6"><a xlink:href="ConfigDialogue_8h.html" target="_top" xlink:title="The configuration dialog.">
<polygon fill="white" stroke="#666666" points="302.83,-74 147.83,-74 147.83,-55 302.83,-55 302.83,-74"/>
<text text-anchor="middle" x="225.33" y="-62" font-family="Helvetica,sans-Serif" font-size="10.00">src/dialogs/ConfigDialogue.h</text>
</a>
</g>
</g>
<!-- Node3&#45;&gt;Node6 -->
<g id="edge5" class="edge">
<title>Node3&#45;&gt;Node6</title>
<path fill="none" stroke="#63b8ff" d="M892.65,-231.16C789.2,-224.69 320.57,-236.09 267.33,-195 228.41,-164.96 225,-98.25 225.1,-74.28"/>
<polygon fill="#63b8ff" stroke="#63b8ff" points="892.46,-234.65 902.71,-231.96 893.02,-227.67 892.46,-234.65"/>
</g>
<!-- Node9 -->
<g id="node9" class="node">
<title>Node9</title>
<g id="a_node9"><a xlink:href="DiffFrame_8h_source.html" target="_top" xlink:title=" ">
<polygon fill="white" stroke="#666666" points="129.83,-74 0.83,-74 0.83,-55 129.83,-55 129.83,-74"/>
<text text-anchor="middle" x="65.33" y="-62" font-family="Helvetica,sans-Serif" font-size="10.00">src/dialogs/DiffFrame.h</text>
</a>
</g>
</g>
<!-- Node3&#45;&gt;Node9 -->
<g id="edge8" class="edge">
<title>Node3&#45;&gt;Node9</title>
<path fill="none" stroke="#63b8ff" d="M892.69,-231.29C784.11,-226.57 44,-229.03 11.33,-195 -23.43,-158.8 32.72,-97.01 55.97,-74.25"/>
<polygon fill="#63b8ff" stroke="#63b8ff" points="892.51,-234.79 902.71,-231.91 892.94,-227.8 892.51,-234.79"/>
</g>
<!-- Node10 -->
<g id="node10" class="node">
<title>Node10</title>
<g id="a_node10"><a xlink:href="Printout_8cpp.html" target="_top" xlink:title="This file defines the class MathPrintOut.">
<polygon fill="white" stroke="#666666" points="441.83,-189.5 286.83,-189.5 286.83,-170.5 441.83,-170.5 441.83,-189.5"/>
<text text-anchor="middle" x="364.33" y="-177.5" font-family="Helvetica,sans-Serif" font-size="10.00">src/graphical_io/Printout.cpp</text>
</a>
</g>
</g>
<!-- Node3&#45;&gt;Node10 -->
<g id="edge11" class="edge">
<title>Node3&#45;&gt;Node10</title>
<path fill="none" stroke="#63b8ff" d="M892.63,-230.88C696.39,-208.5 644.18,-218.32 451.33,-195 438.87,-193.49 425.47,-191.52 413,-189.52"/>
<polygon fill="#63b8ff" stroke="#63b8ff" points="892.36,-234.37 902.7,-232.04 893.16,-227.42 892.36,-234.37"/>
</g>
<!-- Node11 -->
<g id="node11" class="node">
<title>Node11</title>
<g id="a_node11"><a xlink:href="wxMaximaFrame_8h.html" target="_top" xlink:title="This file declares the class wxMaximaFrame.">
<polygon fill="white" stroke="#666666" points="588.33,-189.5 460.33,-189.5 460.33,-170.5 588.33,-170.5 588.33,-189.5"/>
<text text-anchor="middle" x="524.33" y="-177.5" font-family="Helvetica,sans-Serif" font-size="10.00">src/wxMaximaFrame.h</text>
</a>
</g>
</g>
<!-- Node3&#45;&gt;Node11 -->
<g id="edge12" class="edge">
<title>Node3&#45;&gt;Node11</title>
<path fill="none" stroke="#63b8ff" d="M892.61,-230.8C760.87,-213.13 725.49,-215.03 597.33,-195 587.25,-193.43 576.45,-191.49 566.32,-189.57"/>
<polygon fill="#63b8ff" stroke="#63b8ff" points="892.3,-234.29 902.68,-232.17 893.24,-227.36 892.3,-234.29"/>
</g>
<!-- Node19 -->
<g id="node19" class="node">
<title>Node19</title>
<g id="a_node19"><a xlink:href="test__Accessibility_8cpp.html" target="_top" xlink:title="Logic&#45;level regression tests for wxMaxima&#39;s custom wxAccessible classes.">
<polygon fill="white" stroke="#666666" points="714.33,-195 606.33,-195 606.33,-165 714.33,-165 714.33,-195"/>
<text text-anchor="start" x="614.33" y="-183" font-family="Helvetica,sans-Serif" font-size="10.00">test/unit_tests/test</text>
<text text-anchor="middle" x="660.33" y="-172" font-family="Helvetica,sans-Serif" font-size="10.00">_Accessibility.cpp</text>
</a>
</g>
</g>
<!-- Node3&#45;&gt;Node19 -->
<g id="edge28" class="edge">
<title>Node3&#45;&gt;Node19</title>
<path fill="none" stroke="#63b8ff" d="M894.97,-229.05C848.96,-220.27 781.8,-207.23 723.33,-195 720.47,-194.4 717.55,-193.78 714.6,-193.15"/>
<polygon fill="#63b8ff" stroke="#63b8ff" points="894.56,-232.53 905.03,-230.97 895.87,-225.66 894.56,-232.53"/>
</g>
<!-- Node20 -->
<g id="node20" class="node">
<title>Node20</title>
<g id="a_node20"><a xlink:href="test__EditorCellInvariants_8cpp.html" target="_top" xlink:title="Hardening tests for EditorCell&#39;s text&#45;editing core.">
<polygon fill="white" stroke="#666666" points="870.33,-195 732.33,-195 732.33,-165 870.33,-165 870.33,-195"/>
<text text-anchor="start" x="740.33" y="-183" font-family="Helvetica,sans-Serif" font-size="10.00">test/unit_tests/test</text>
<text text-anchor="middle" x="801.33" y="-172" font-family="Helvetica,sans-Serif" font-size="10.00">_EditorCellInvariants.cpp</text>
</a>
</g>
</g>
<!-- Node3&#45;&gt;Node20 -->
<g id="edge29" class="edge">
<title>Node3&#45;&gt;Node20</title>
<path fill="none" stroke="#63b8ff" d="M919.33,-227.33C895.39,-217.93 862.22,-204.91 837.15,-195.06"/>
<polygon fill="#63b8ff" stroke="#63b8ff" points="918.07,-230.6 928.66,-230.99 920.63,-224.08 918.07,-230.6"/>
</g>
<!-- Node21 -->
<g id="node21" class="node">
<title>Node21</title>
<g id="a_node21"><a xlink:href="test__GroupCellLayout_8cpp.html" target="_top" xlink:title="Regression tests for the GroupCell &lt;&#45;&gt; EditorCell layout coupling.">
<polygon fill="white" stroke="#666666" points="1011.83,-195 888.83,-195 888.83,-165 1011.83,-165 1011.83,-195"/>
<text text-anchor="start" x="896.83" y="-183" font-family="Helvetica,sans-Serif" font-size="10.00">test/unit_tests/test</text>
<text text-anchor="middle" x="950.33" y="-172" font-family="Helvetica,sans-Serif" font-size="10.00">_GroupCellLayout.cpp</text>
</a>
</g>
</g>
<!-- Node3&#45;&gt;Node21 -->
<g id="edge30" class="edge">
<title>Node3&#45;&gt;Node21</title>
<path fill="none" stroke="#63b8ff" d="M950.33,-220.65C950.33,-212.36 950.33,-202.78 950.33,-195.11"/>
<polygon fill="#63b8ff" stroke="#63b8ff" points="946.83,-220.87 950.33,-230.87 953.83,-220.87 946.83,-220.87"/>
</g>
<!-- Node22 -->
<g id="node22" class="node">
<title>Node22</title>
<g id="a_node22"><a xlink:href="test__LayoutInvariants_8cpp.html" target="_top" xlink:title="Layout idempotency invariants.">
<polygon fill="white" stroke="#666666" points="1154.33,-195 1030.33,-195 1030.33,-165 1154.33,-165 1154.33,-195"/>
<text text-anchor="start" x="1038.33" y="-183" font-family="Helvetica,sans-Serif" font-size="10.00">test/unit_tests/test</text>
<text text-anchor="middle" x="1092.33" y="-172" font-family="Helvetica,sans-Serif" font-size="10.00">_LayoutInvariants.cpp</text>
</a>
</g>
</g>
<!-- Node3&#45;&gt;Node22 -->
<g id="edge31" class="edge">
<title>Node3&#45;&gt;Node22</title>
<path fill="none" stroke="#63b8ff" d="M980.47,-227.08C1003.24,-217.7 1034.5,-204.82 1058.19,-195.06"/>
<polygon fill="#63b8ff" stroke="#63b8ff" points="978.89,-223.95 970.97,-230.99 981.55,-230.42 978.89,-223.95"/>
</g>
<!-- Node23 -->
<g id="node23" class="node">
<title>Node23</title>
<g id="a_node23"><a xlink:href="test__TreeUndo_8cpp.html" target="_top" xlink:title="Regression tests for the worksheet&#39;s cell&#45;tree undo/redo (the TreeUndo_* subsystem of Worksheet).">
<polygon fill="white" stroke="#666666" points="1280.33,-195 1172.33,-195 1172.33,-165 1280.33,-165 1280.33,-195"/>
<text text-anchor="start" x="1180.33" y="-183" font-family="Helvetica,sans-Serif" font-size="10.00">test/unit_tests/test</text>
<text text-anchor="middle" x="1226.33" y="-172" font-family="Helvetica,sans-Serif" font-size="10.00">_TreeUndo.cpp</text>
</a>
</g>
</g>
<!-- Node3&#45;&gt;Node23 -->
<g id="edge32" class="edge">
<title>Node3&#45;&gt;Node23</title>
<path fill="none" stroke="#63b8ff" d="M1001.97,-228.9C1045.13,-220 1108.28,-206.87 1163.33,-195 1166.17,-194.39 1169.09,-193.75 1172.04,-193.11"/>
<polygon fill="#63b8ff" stroke="#63b8ff" points="1001.08,-225.51 991.99,-230.96 1002.49,-232.37 1001.08,-225.51"/>
</g>
<!-- Node24 -->
<g id="node24" class="node">
<title>Node24</title>
<g id="a_node24"><a xlink:href="test__WXMRoundtrip_8cpp.html" target="_top" xlink:title="Regression tests for images surviving the .wxm serialization round&#45;trip.">
<polygon fill="white" stroke="#666666" points="1413.83,-195 1298.83,-195 1298.83,-165 1413.83,-165 1413.83,-195"/>
<text text-anchor="start" x="1306.83" y="-183" font-family="Helvetica,sans-Serif" font-size="10.00">test/unit_tests/test</text>
<text text-anchor="middle" x="1356.33" y="-172" font-family="Helvetica,sans-Serif" font-size="10.00">_WXMRoundtrip.cpp</text>
</a>
</g>
</g>
<!-- Node3&#45;&gt;Node24 -->
<g id="edge33" class="edge">
<title>Node3&#45;&gt;Node24</title>
<path fill="none" stroke="#63b8ff" d="M1007.96,-233.28C1075.57,-225.67 1190.94,-211.71 1289.33,-195 1292.37,-194.48 1295.49,-193.93 1298.63,-193.34"/>
<polygon fill="#63b8ff" stroke="#63b8ff" points="1007.48,-229.81 997.94,-234.4 1008.26,-236.76 1007.48,-229.81"/>
</g>
<!-- Node25 -->
<g id="node25" class="node">
<title>Node25</title>
<g id="a_node25"><a xlink:href="test__WXMXRoundtrip_8cpp.html" target="_top" xlink:title="Round&#45;trip tests for the .wxmx content.xml (the MathML&#45;like math format).">
<polygon fill="white" stroke="#666666" points="1554.33,-195 1432.33,-195 1432.33,-165 1554.33,-165 1554.33,-195"/>
<text text-anchor="start" x="1440.33" y="-183" font-family="Helvetica,sans-Serif" font-size="10.00">test/unit_tests/test</text>
<text text-anchor="middle" x="1493.33" y="-172" font-family="Helvetica,sans-Serif" font-size="10.00">_WXMXRoundtrip.cpp</text>
</a>
</g>
</g>
<!-- Node3&#45;&gt;Node25 -->
<g id="edge34" class="edge">
<title>Node3&#45;&gt;Node25</title>
<path fill="none" stroke="#63b8ff" d="M1008.04,-236C1097.37,-230.16 1274.37,-216.84 1423.33,-195 1426.27,-194.57 1429.27,-194.09 1432.31,-193.59"/>
<polygon fill="#63b8ff" stroke="#63b8ff" points="1007.6,-232.53 997.85,-236.66 1008.06,-239.51 1007.6,-232.53"/>
</g>
<!-- Node26 -->
<g id="node26" class="node">
<title>Node26</title>
<g id="a_node26"><a xlink:href="test__WorksheetContextMenu_8cpp.html" target="_top" xlink:title="Regression tests for the worksheet&#39;s right&#45;click context menu.">
<polygon fill="white" stroke="#666666" points="1731.83,-195 1572.83,-195 1572.83,-165 1731.83,-165 1731.83,-195"/>
<text text-anchor="start" x="1580.83" y="-183" font-family="Helvetica,sans-Serif" font-size="10.00">test/unit_tests/test</text>
<text text-anchor="middle" x="1652.33" y="-172" font-family="Helvetica,sans-Serif" font-size="10.00">_WorksheetContextMenu.cpp</text>
</a>
</g>
</g>
<!-- Node3&#45;&gt;Node26 -->
<g id="edge35" class="edge">
<title>Node3&#45;&gt;Node26</title>
<path fill="none" stroke="#63b8ff" d="M1008.26,-236.91C1117.22,-231.68 1359.99,-218.33 1563.33,-195 1566.43,-194.64 1569.6,-194.26 1572.79,-193.85"/>
<polygon fill="#63b8ff" stroke="#63b8ff" points="1007.96,-233.42 998.14,-237.39 1008.3,-240.41 1007.96,-233.42"/>
</g>
<!-- Node27 -->
<g id="node27" class="node">
<title>Node27</title>
<g id="a_node27"><a xlink:href="test__WorksheetCursor_8cpp.html" target="_top" xlink:title="Pins the worksheet&#39;s cursor model before it is gathered into a cursor class.">
<polygon fill="white" stroke="#666666" points="1874.83,-195 1749.83,-195 1749.83,-165 1874.83,-165 1874.83,-195"/>
<text text-anchor="start" x="1757.83" y="-183" font-family="Helvetica,sans-Serif" font-size="10.00">test/unit_tests/test</text>
<text text-anchor="middle" x="1812.33" y="-172" font-family="Helvetica,sans-Serif" font-size="10.00">_WorksheetCursor.cpp</text>
</a>
</g>
</g>
<!-- Node3&#45;&gt;Node27 -->
<g id="edge36" class="edge">
<title>Node3&#45;&gt;Node27</title>
<path fill="none" stroke="#63b8ff" d="M1008.46,-238.98C1139.67,-237.21 1468.62,-229.39 1741.33,-195 1744.07,-194.65 1746.86,-194.26 1749.68,-193.84"/>
<polygon fill="#63b8ff" stroke="#63b8ff" points="1008.19,-235.48 998.24,-239.11 1008.28,-242.48 1008.19,-235.48"/>
</g>
<!-- Node28 -->
<g id="node28" class="node">
<title>Node28</title>
<g id="a_node28"><a xlink:href="test__WorksheetExport_8cpp.html" target="_top" xlink:title="Safety net for the export/serialization cluster of Worksheet.">
<polygon fill="white" stroke="#666666" points="2017.83,-195 1892.83,-195 1892.83,-165 2017.83,-165 2017.83,-195"/>
<text text-anchor="start" x="1900.83" y="-183" font-family="Helvetica,sans-Serif" font-size="10.00">test/unit_tests/test</text>
<text text-anchor="middle" x="1955.33" y="-172" font-family="Helvetica,sans-Serif" font-size="10.00">_WorksheetExport.cpp</text>
</a>
</g>
</g>
<!-- Node3&#45;&gt;Node28 -->
<g id="edge37" class="edge">
<title>Node3&#45;&gt;Node28</title>
<path fill="none" stroke="#63b8ff" d="M1008.31,-239.69C1155.37,-239.54 1554.63,-235.14 1884.33,-195 1887.07,-194.67 1889.87,-194.29 1892.69,-193.87"/>
<polygon fill="#63b8ff" stroke="#63b8ff" points="1008.16,-236.19 998.16,-239.7 1008.16,-243.19 1008.16,-236.19"/>
</g>
<!-- Node29 -->
<g id="node29" class="node">
<title>Node29</title>
<g id="a_node29"><a xlink:href="test__WorksheetFind_8cpp.html" target="_top" xlink:title="Pins the worksheet&#39;s find/replace behavior before the search engine is extracted into WorksheetSearch...">
<polygon fill="white" stroke="#666666" points="2150.33,-195 2036.33,-195 2036.33,-165 2150.33,-165 2150.33,-195"/>
<text text-anchor="start" x="2044.33" y="-183" font-family="Helvetica,sans-Serif" font-size="10.00">test/unit_tests/test</text>
<text text-anchor="middle" x="2093.33" y="-172" font-family="Helvetica,sans-Serif" font-size="10.00">_WorksheetFind.cpp</text>
</a>
</g>
</g>
<!-- Node3&#45;&gt;Node29 -->
<g id="edge38" class="edge">
<title>Node3&#45;&gt;Node29</title>
<path fill="none" stroke="#63b8ff" d="M1008.21,-238.39C1202.06,-234.47 1827.46,-220.15 2027.33,-195 2030.23,-194.63 2033.2,-194.21 2036.19,-193.73"/>
<polygon fill="#63b8ff" stroke="#63b8ff" points="1007.88,-234.9 997.95,-238.6 1008.02,-241.89 1007.88,-234.9"/>
</g>
<!-- Node7 -->
<g id="node7" class="node">
<title>Node7</title>
<g id="a_node7"><a xlink:href="main_8cpp.html" target="_top" xlink:title="The file that defines the starting point of the program.">
<polygon fill="white" stroke="#666666" points="447.83,-19 368.83,-19 368.83,0 447.83,0 447.83,-19"/>
<text text-anchor="middle" x="408.33" y="-7" font-family="Helvetica,sans-Serif" font-size="10.00">src/main.cpp</text>
</a>
</g>
</g>
<!-- Node6&#45;&gt;Node7 -->
<g id="edge6" class="edge">
<title>Node6&#45;&gt;Node7</title>
<path fill="none" stroke="#63b8ff" d="M264.4,-52.18C298.62,-42.27 347.61,-28.08 378.69,-19.08"/>
<polygon fill="#63b8ff" stroke="#63b8ff" points="263.36,-48.84 254.73,-54.98 265.31,-55.56 263.36,-48.84"/>
</g>
<!-- Node8 -->
<g id="node8" class="node">
<title>Node8</title>
<g id="a_node8"><a xlink:href="wxMaxima_8cpp.html" target="_top" xlink:title="This file defines the contents of the class wxMaxima that contains most of the program&#39;s logic.">
<polygon fill="white" stroke="#666666" points="303.33,-19 195.33,-19 195.33,0 303.33,0 303.33,-19"/>
<text text-anchor="middle" x="249.33" y="-7" font-family="Helvetica,sans-Serif" font-size="10.00">src/wxMaxima.cpp</text>
</a>
</g>
</g>
<!-- Node6&#45;&gt;Node8 -->
<g id="edge7" class="edge">
<title>Node6&#45;&gt;Node8</title>
<path fill="none" stroke="#63b8ff" d="M233.46,-45.53C237.51,-36.6 242.21,-26.22 245.44,-19.09"/>
<polygon fill="#63b8ff" stroke="#63b8ff" points="230.23,-44.19 229.29,-54.75 236.6,-47.08 230.23,-44.19"/>
</g>
<!-- Node9&#45;&gt;Node7 -->
<g id="edge9" class="edge">
<title>Node9&#45;&gt;Node7</title>
<path fill="none" stroke="#63b8ff" d="M130.5,-53.43C200.74,-42.58 310.27,-25.65 368.61,-16.64"/>
<polygon fill="#63b8ff" stroke="#63b8ff" points="129.78,-50 120.43,-54.98 130.85,-56.92 129.78,-50"/>
</g>
<!-- Node9&#45;&gt;Node8 -->
<g id="edge10" class="edge">
<title>Node9&#45;&gt;Node8</title>
<path fill="none" stroke="#63b8ff" d="M104.61,-52.18C139.02,-42.27 188.28,-28.08 219.53,-19.08"/>
<polygon fill="#63b8ff" stroke="#63b8ff" points="103.53,-48.85 94.89,-54.98 105.47,-55.58 103.53,-48.85"/>
</g>
<!-- Node11&#45;&gt;Node4 -->
<g id="edge14" class="edge">
<title>Node11&#45;&gt;Node4</title>
<path fill="none" stroke="#63b8ff" d="M472.74,-168.32C412.47,-155.6 320.28,-135.28 315.33,-129 298.92,-108.21 332.96,-85.99 355.83,-74.14"/>
<polygon fill="#63b8ff" stroke="#63b8ff" points="472.35,-171.82 482.86,-170.45 473.79,-164.97 472.35,-171.82"/>
</g>
<!-- Node12 -->
<g id="node12" class="node">
<title>Node12</title>
<g id="a_node12"><a xlink:href="AutocompletePopup_8cpp.html" target="_top" xlink:title="This file defines the class AutocompletePopup.">
<polygon fill="white" stroke="#666666" points="969.33,-129 817.33,-129 817.33,-110 969.33,-110 969.33,-129"/>
<text text-anchor="middle" x="893.33" y="-117" font-family="Helvetica,sans-Serif" font-size="10.00">src/AutocompletePopup.cpp</text>
</a>
</g>
</g>
<!-- Node11&#45;&gt;Node12 -->
<g id="edge13" class="edge">
<title>Node11&#45;&gt;Node12</title>
<path fill="none" stroke="#63b8ff" d="M577.02,-168.63C583.84,-167.37 590.74,-166.13 597.33,-165 678.13,-151.18 771.74,-137.5 831.7,-129.03"/>
<polygon fill="#63b8ff" stroke="#63b8ff" points="576.3,-165.21 567.12,-170.49 577.59,-172.09 576.3,-165.21"/>
</g>
<!-- Node13 -->
<g id="node13" class="node">
<title>Node13</title>
<g id="a_node13"><a xlink:href="EditorCell_8cpp.html" target="_top" xlink:title="This file defines the class EditorCell.">
<polygon fill="white" stroke="#666666" points="897.83,-74 770.83,-74 770.83,-55 897.83,-55 897.83,-74"/>
<text text-anchor="middle" x="834.33" y="-62" font-family="Helvetica,sans-Serif" font-size="10.00">src/cells/EditorCell.cpp</text>
</a>
</g>
</g>
<!-- Node11&#45;&gt;Node13 -->
<g id="edge15" class="edge">
<title>Node11&#45;&gt;Node13</title>
<path fill="none" stroke="#63b8ff" d="M575.13,-168.61C582.55,-167.28 590.12,-166.03 597.33,-165 639.42,-158.99 949.71,-160.45 978.33,-129 1006.64,-97.88 948.78,-81.22 898.18,-72.89"/>
<polygon fill="#63b8ff" stroke="#63b8ff" points="574.33,-165.2 565.14,-170.46 575.61,-172.08 574.33,-165.2"/>
</g>
<!-- Node14 -->
<g id="node14" class="node">
<title>Node14</title>
<g id="a_node14"><a xlink:href="main_8h.html" target="_top" xlink:title="This file declares the class wxMaxima that contains most of the program&#39;s logic.">
<polygon fill="white" stroke="#666666" points="589.33,-74 521.33,-74 521.33,-55 589.33,-55 589.33,-74"/>
<text text-anchor="middle" x="555.33" y="-62" font-family="Helvetica,sans-Serif" font-size="10.00">src/main.h</text>
</a>
</g>
</g>
<!-- Node11&#45;&gt;Node14 -->
<g id="edge16" class="edge">
<title>Node11&#45;&gt;Node14</title>
<path fill="none" stroke="#63b8ff" d="M577.77,-168.57C649.66,-154.48 768.79,-130.88 770.33,-129 819.4,-68.95 661.84,-63.91 589.57,-64.63"/>
<polygon fill="#63b8ff" stroke="#63b8ff" points="577.09,-165.13 567.95,-170.49 578.44,-172 577.09,-165.13"/>
</g>
<!-- Node16 -->
<g id="node16" class="node">
<title>Node16</title>
<g id="a_node16"><a xlink:href="GreekSidebar_8cpp.html" target="_top" xlink:title="This file defines the class GreekSidebar.">
<polygon fill="white" stroke="#666666" points="488.33,-129 324.33,-129 324.33,-110 488.33,-110 488.33,-129"/>
<text text-anchor="middle" x="406.33" y="-117" font-family="Helvetica,sans-Serif" font-size="10.00">src/sidebars/GreekSidebar.cpp</text>
</a>
</g>
</g>
<!-- Node11&#45;&gt;Node16 -->
<g id="edge20" class="edge">
<title>Node11&#45;&gt;Node16</title>
<path fill="none" stroke="#63b8ff" d="M498.07,-165.98C475.33,-154.71 443.09,-138.73 423.5,-129.02"/>
<polygon fill="#63b8ff" stroke="#63b8ff" points="496.65,-169.19 507.17,-170.49 499.76,-162.92 496.65,-169.19"/>
</g>
<!-- Node17 -->
<g id="node17" class="node">
<title>Node17</title>
<g id="a_node17"><a xlink:href="wxMaxima_8h.html" target="_top" xlink:title="This file declares the class wxMaxima that contains most of the program&#39;s logic.">
<polygon fill="white" stroke="#666666" points="603.83,-129 506.83,-129 506.83,-110 603.83,-110 603.83,-129"/>
<text text-anchor="middle" x="555.33" y="-117" font-family="Helvetica,sans-Serif" font-size="10.00">src/wxMaxima.h</text>
</a>
</g>
</g>
<!-- Node11&#45;&gt;Node17 -->
<g id="edge21" class="edge">
<title>Node11&#45;&gt;Node17</title>
<path fill="none" stroke="#63b8ff" d="M533.61,-161.48C539.26,-150.81 546.24,-137.65 550.73,-129.17"/>
<polygon fill="#63b8ff" stroke="#63b8ff" points="530.49,-159.89 528.9,-170.37 536.67,-163.17 530.49,-159.89"/>
</g>
<!-- Node18 -->
<g id="node18" class="node">
<title>Node18</title>
<g id="a_node18"><a xlink:href="wxMaximaFrame_8cpp.html" target="_top" xlink:title="This file defines the class wxMaximaFrame.">
<polygon fill="white" stroke="#666666" points="760.83,-129 621.83,-129 621.83,-110 760.83,-110 760.83,-129"/>
<text text-anchor="middle" x="691.33" y="-117" font-family="Helvetica,sans-Serif" font-size="10.00">src/wxMaximaFrame.cpp</text>
</a>
</g>
</g>
<!-- Node11&#45;&gt;Node18 -->
<g id="edge27" class="edge">
<title>Node11&#45;&gt;Node18</title>
<path fill="none" stroke="#63b8ff" d="M558.09,-167.17C590.39,-155.86 638.31,-139.07 667.01,-129.02"/>
<polygon fill="#63b8ff" stroke="#63b8ff" points="556.89,-163.88 548.61,-170.49 559.2,-170.49 556.89,-163.88"/>
</g>
<!-- Node14&#45;&gt;Node7 -->
<g id="edge18" class="edge">
<title>Node14&#45;&gt;Node7</title>
<path fill="none" stroke="#63b8ff" d="M522.18,-51.55C494.88,-41.71 456.82,-27.98 432.37,-19.17"/>
<polygon fill="#63b8ff" stroke="#63b8ff" points="521.11,-54.89 531.71,-54.98 523.49,-48.3 521.11,-54.89"/>
</g>
<!-- Node14&#45;&gt;Node8 -->
<g id="edge19" class="edge">
<title>Node14&#45;&gt;Node8</title>
<path fill="none" stroke="#63b8ff" d="M511.06,-55.83C454.56,-46.05 357.13,-29.17 298.41,-19"/>
<polygon fill="#63b8ff" stroke="#63b8ff" points="510.66,-59.32 521.11,-57.57 511.86,-52.42 510.66,-59.32"/>
</g>
<!-- Node15 -->
<g id="node15" class="node">
<title>Node15</title>
<g id="a_node15"><a xlink:href="MaximaManual_8cpp.html" target="_top" xlink:title="This file defines the class MaximaManual.">
<polygon fill="white" stroke="#666666" points="620.33,-19 490.33,-19 490.33,0 620.33,0 620.33,-19"/>
<text text-anchor="middle" x="555.33" y="-7" font-family="Helvetica,sans-Serif" font-size="10.00">src/MaximaManual.cpp</text>
</a>
</g>
</g>
<!-- Node14&#45;&gt;Node15 -->
<g id="edge17" class="edge">
<title>Node14&#45;&gt;Node15</title>
<path fill="none" stroke="#63b8ff" d="M555.33,-44.66C555.33,-35.93 555.33,-25.99 555.33,-19.09"/>
<polygon fill="#63b8ff" stroke="#63b8ff" points="551.83,-44.75 555.33,-54.75 558.83,-44.75 551.83,-44.75"/>
</g>
<!-- Node17&#45;&gt;Node4 -->
<g id="edge22" class="edge">
<title>Node17&#45;&gt;Node4</title>
<path fill="none" stroke="#63b8ff" d="M516.24,-107.06C482.41,-97.15 434.24,-83.04 403.63,-74.08"/>
<polygon fill="#63b8ff" stroke="#63b8ff" points="515.66,-110.53 526.24,-109.98 517.63,-103.82 515.66,-110.53"/>
</g>
<!-- Node17&#45;&gt;Node7 -->
<g id="edge24" class="edge">
<title>Node17&#45;&gt;Node7</title>
<path fill="none" stroke="#63b8ff" d="M535.39,-103.73C517.98,-90.84 492,-71.65 469.33,-55 452.21,-42.44 432.33,-27.95 420.03,-19.01"/>
<polygon fill="#63b8ff" stroke="#63b8ff" points="533.54,-106.71 543.66,-109.85 537.7,-101.09 533.54,-106.71"/>
</g>
<!-- Node17&#45;&gt;Node8 -->
<g id="edge26" class="edge">
<title>Node17&#45;&gt;Node8</title>
<path fill="none" stroke="#63b8ff" d="M528.72,-105.12C511.65,-96.44 489.06,-84.78 469.33,-74 454.47,-65.89 452.05,-61.25 436.33,-55 392.9,-37.76 341.05,-26.06 302.97,-19.01"/>
<polygon fill="#63b8ff" stroke="#63b8ff" points="527.57,-108.46 538.07,-109.86 530.73,-102.22 527.57,-108.46"/>
</g>
<!-- Node17&#45;&gt;Node13 -->
<g id="edge23" class="edge">
<title>Node17&#45;&gt;Node13</title>
<path fill="none" stroke="#63b8ff" d="M610.26,-108.07C662.56,-98.13 740.34,-83.35 789.15,-74.08"/>
<polygon fill="#63b8ff" stroke="#63b8ff" points="609.32,-104.68 600.15,-109.98 610.63,-111.56 609.32,-104.68"/>
</g>
<!-- Node17&#45;&gt;Node14 -->
<g id="edge25" class="edge">
<title>Node17&#45;&gt;Node14</title>
<path fill="none" stroke="#63b8ff" d="M555.33,-99.66C555.33,-90.93 555.33,-80.99 555.33,-74.09"/>
<polygon fill="#63b8ff" stroke="#63b8ff" points="551.83,-99.75 555.33,-109.75 558.83,-99.75 551.83,-99.75"/>
</g>
</g>
</svg>
        <g id="navigator" transform="translate(0 0)" fill="#404254">
                <rect fill="#f2f5e9" fill-opacity="0.5" stroke="#606060" stroke-width=".5" x="0" y="0" width="60" height="60"/>
                <use id="zoomplus" xlink:href="#zoomPlus" x="17" y="9" onmousedown="handleZoom(evt,'in')"/>
                <use id="zoomminus" xlink:href="#zoomMin" x="42" y="9" onmousedown="handleZoom(evt,'out')"/>
                <use id="reset" xlink:href="#resetDef" x="30" y="36" onmousedown="handleReset()"/>
                <g id="arrowUp" xlink:href="#dirArrow" transform="translate(30 24)" onmousedown="handlePan(0,-1)">
                  <use xlink:href="#rim" fill="#404040">
                        <set attributeName="fill" to="#808080" begin="arrowUp.mouseover" end="arrowUp.mouseout"/>
                  </use>
                  <path fill="none" stroke="white" stroke-width="1.5" d="M0,-3.0v7 M-2.5,-0.5L0,-3.0L2.5,-0.5"/>
                </g>
                <g id="arrowRight" xlink:href="#dirArrow" transform="rotate(90) translate(36 -43)" onmousedown="handlePan(1,0)">
                  <use xlink:href="#rim" fill="#404040">
                        <set attributeName="fill" to="#808080" begin="arrowRight.mouseover" end="arrowRight.mouseout"/>
                  </use>
                  <path fill="none" stroke="white" stroke-width="1.5" d="M0,-3.0v7 M-2.5,-0.5L0,-3.0L2.5,-0.5"/>
                </g>
                <g id="arrowDown" xlink:href="#dirArrow" transform="rotate(180) translate(-30 -48)" onmousedown="handlePan(0,1)">
                  <use xlink:href="#rim" fill="#404040">
                        <set attributeName="fill" to="#808080" begin="arrowDown.mouseover" end="arrowDown.mouseout"/>
                  </use>
                  <path fill="none" stroke="white" stroke-width="1.5" d="M0,-3.0v7 M-2.5,-0.5L0,-3.0L2.5,-0.5"/>
                </g>
                <g id="arrowLeft" xlink:href="#dirArrow" transform="rotate(270) translate(-36 17)" onmousedown="handlePan(-1,0)">
                  <use xlink:href="#rim" fill="#404040">
                        <set attributeName="fill" to="#808080" begin="arrowLeft.mouseover" end="arrowLeft.mouseout"/>
                  </use>
                  <path fill="none" stroke="white" stroke-width="1.5" d="M0,-3.0v7 M-2.5,-0.5L0,-3.0L2.5,-0.5"/>
                </g>
        </g>
        <svg viewBox="0 0 15 15" width="100%" height="30px" preserveAspectRatio="xMaxYMin meet">
         <g id="arrow_out" transform="scale(0.3 0.3)">
          <a xlink:href="EvaluationQueue_8h__dep__incl_org.svg" target="_base">
           <rect id="button" ry="5" rx="5" y="6" x="6" height="38" width="38"
                fill="#f2f5e9" fill-opacity="0.5" stroke="#606060" stroke-width="1.0"/>
           <path id="arrow"
             d="M 11.500037,31.436501 C 11.940474,20.09759 22.043105,11.32322 32.158766,21.979434 L 37.068811,17.246167 C 37.068811,17.246167 37.088388,32 37.088388,32 L 22.160133,31.978069 C 22.160133,31.978069 26.997745,27.140456 26.997745,27.140456 C 18.528582,18.264221 13.291696,25.230495 11.500037,31.436501 z"
             style="fill:#404040;"/>
          </a>
         </g>
        </svg>
</svg>
