<?xml version="1.0" encoding="UTF-8" standalone="no"?>
<!DOCTYPE svg PUBLIC "-//W3C//DTD SVG 1.1//EN"
 "http://www.w3.org/Graphics/SVG/1.1/DTD/svg11.dtd">
<!-- Generated by graphviz version 2.43.0 (0)
 -->
<!-- Title: src/EventIDs.h Pages: 1 -->
<svg width="1787pt" height="357pt"
 viewBox="0.00 0.00 1787.00 357.00" xmlns="http://www.w3.org/2000/svg" xmlns:xlink="http://www.w3.org/1999/xlink">
<g id="graph0" class="graph" transform="scale(1 1) rotate(0) translate(4 353)">
<title>src/EventIDs.h</title>
<!-- Node1 -->
<g id="node1" class="node">
<title>Node1</title>
<g id="a_node1"><a xlink:title="This file declares the class EventIDs that contains unique IDs for many events wxMaxima needs.">
<polygon fill="#999999" stroke="#666666" points="768,-349 682,-349 682,-330 768,-330 768,-349"/>
<text text-anchor="middle" x="725" y="-337" font-family="Helvetica,sans-Serif" font-size="10.00">src/EventIDs.h</text>
</a>
</g>
</g>
<!-- Node2 -->
<g id="node2" class="node">
<title>Node2</title>
<g id="a_node2"><a xlink:href="EventIDs_8cpp.html" target="_top" xlink:title="This file defines the class EventIDs that contains unique IDs for many events wxMaxima needs.">
<polygon fill="white" stroke="#666666" points="98,-294 0,-294 0,-275 98,-275 98,-294"/>
<text text-anchor="middle" x="49" y="-282" font-family="Helvetica,sans-Serif" font-size="10.00">src/EventIDs.cpp</text>
</a>
</g>
</g>
<!-- Node1&#45;&gt;Node2 -->
<g id="edge1" class="edge">
<title>Node1&#45;&gt;Node2</title>
<path fill="none" stroke="#63b8ff" d="M671.64,-335.74C565.09,-329.97 318.46,-315.4 112,-294 107.5,-293.53 102.82,-293 98.15,-292.43"/>
<polygon fill="#63b8ff" stroke="#63b8ff" points="671.64,-339.24 681.81,-336.28 672.02,-332.25 671.64,-339.24"/>
</g>
<!-- Node3 -->
<g id="node3" class="node">
<title>Node3</title>
<g id="a_node3"><a xlink:href="Worksheet_8h.html" target="_top" xlink:title="This file defines the class Worksheet.">
<polygon fill="white" stroke="#666666" points="203.5,-239 108.5,-239 108.5,-220 203.5,-220 203.5,-239"/>
<text text-anchor="middle" x="156" y="-227" font-family="Helvetica,sans-Serif" font-size="10.00">src/Worksheet.h</text>
</a>
</g>
</g>
<!-- Node1&#45;&gt;Node3 -->
<g id="edge2" class="edge">
<title>Node1&#45;&gt;Node3</title>
<path fill="none" stroke="#63b8ff" d="M671.57,-338.44C534.81,-337.73 180.36,-332.18 145,-294 131.01,-278.9 142.81,-252.7 150.56,-239.16"/>
<polygon fill="#63b8ff" stroke="#63b8ff" points="671.79,-341.94 681.81,-338.48 671.82,-334.94 671.79,-341.94"/>
</g>
<!-- Node9 -->
<g id="node9" class="node">
<title>Node9</title>
<g id="a_node9"><a xlink:href="wxMaximaFrame_8h.html" target="_top" xlink:title="This file declares the class wxMaximaFrame.">
<polygon fill="white" stroke="#666666" points="535,-184 407,-184 407,-165 535,-165 535,-184"/>
<text text-anchor="middle" x="471" y="-172" font-family="Helvetica,sans-Serif" font-size="10.00">src/wxMaximaFrame.h</text>
</a>
</g>
</g>
<!-- Node1&#45;&gt;Node9 -->
<g id="edge47" class="edge">
<title>Node1&#45;&gt;Node9</title>
<path fill="none" stroke="#63b8ff" d="M718.45,-320.23C707.42,-290.41 684.7,-233.3 668,-220 647.63,-203.79 584.6,-191.41 535.26,-183.87"/>
<polygon fill="#63b8ff" stroke="#63b8ff" points="715.25,-321.64 721.96,-329.84 721.82,-319.25 715.25,-321.64"/>
</g>
<!-- Node17 -->
<g id="node17" class="node">
<title>Node17</title>
<g id="a_node17"><a xlink:href="DrawSidebar_8h.html" target="_top" xlink:title="This file declares the class StatSidebar, that provides some statistics buttons.">
<polygon fill="white" stroke="#666666" points="659.5,-294 510.5,-294 510.5,-275 659.5,-275 659.5,-294"/>
<text text-anchor="middle" x="585" y="-282" font-family="Helvetica,sans-Serif" font-size="10.00">src/sidebars/DrawSidebar.h</text>
</a>
</g>
</g>
<!-- Node1&#45;&gt;Node17 -->
<g id="edge24" class="edge">
<title>Node1&#45;&gt;Node17</title>
<path fill="none" stroke="#63b8ff" d="M693.09,-326.42C667.12,-316.59 631.08,-302.95 607.9,-294.17"/>
<polygon fill="#63b8ff" stroke="#63b8ff" points="691.92,-329.72 702.51,-329.98 694.39,-323.17 691.92,-329.72"/>
</g>
<!-- Node19 -->
<g id="node19" class="node">
<title>Node19</title>
<g id="a_node19"><a xlink:href="FormatSidebar_8h.html" target="_top" xlink:title="This file declares the class StatSidebar, that provides some statistics buttons.">
<polygon fill="white" stroke="#666666" points="911,-294 753,-294 753,-275 911,-275 911,-294"/>
<text text-anchor="middle" x="832" y="-282" font-family="Helvetica,sans-Serif" font-size="10.00">src/sidebars/FormatSidebar.h</text>
</a>
</g>
</g>
<!-- Node1&#45;&gt;Node19 -->
<g id="edge27" class="edge">
<title>Node1&#45;&gt;Node19</title>
<path fill="none" stroke="#63b8ff" d="M751.24,-325.5C770.93,-315.75 797.32,-302.68 814.5,-294.17"/>
<polygon fill="#63b8ff" stroke="#63b8ff" points="749.6,-322.41 742.19,-329.98 752.71,-328.68 749.6,-322.41"/>
</g>
<!-- Node21 -->
<g id="node21" class="node">
<title>Node21</title>
<g id="a_node21"><a xlink:href="GreekSidebar_8h.html" target="_top" xlink:title="This file declares the class wxMaximaFrame.">
<polygon fill="white" stroke="#666666" points="735,-184 583,-184 583,-165 735,-165 735,-184"/>
<text text-anchor="middle" x="659" y="-172" font-family="Helvetica,sans-Serif" font-size="10.00">src/sidebars/GreekSidebar.h</text>
</a>
</g>
</g>
<!-- Node1&#45;&gt;Node21 -->
<g id="edge30" class="edge">
<title>Node1&#45;&gt;Node21</title>
<path fill="none" stroke="#63b8ff" d="M724.35,-319.63C722.83,-295.32 717.77,-252.35 701,-220 693.47,-205.48 679.8,-192.32 670.1,-184.15"/>
<polygon fill="#63b8ff" stroke="#63b8ff" points="720.87,-320.11 724.85,-329.93 727.86,-319.77 720.87,-320.11"/>
</g>
<!-- Node22 -->
<g id="node22" class="node">
<title>Node22</title>
<g id="a_node22"><a xlink:href="History_8cpp.html" target="_top" xlink:title="This file defines the class History.">
<polygon fill="white" stroke="#666666" points="1389,-294 1257,-294 1257,-275 1389,-275 1389,-294"/>
<text text-anchor="middle" x="1323" y="-282" font-family="Helvetica,sans-Serif" font-size="10.00">src/sidebars/History.cpp</text>
</a>
</g>
</g>
<!-- Node1&#45;&gt;Node22 -->
<g id="edge33" class="edge">
<title>Node1&#45;&gt;Node22</title>
<path fill="none" stroke="#63b8ff" d="M778.26,-334.46C872.88,-327.18 1076.47,-311.01 1248,-294 1250.87,-293.72 1253.8,-293.42 1256.76,-293.11"/>
<polygon fill="#63b8ff" stroke="#63b8ff" points="777.79,-330.99 768.09,-335.24 778.33,-337.97 777.79,-330.99"/>
</g>
<!-- Node23 -->
<g id="node23" class="node">
<title>Node23</title>
<g id="a_node23"><a xlink:href="MathSidebar_8h.html" target="_top" xlink:title="This file declares the class wxMaximaFrame.">
<polygon fill="white" stroke="#666666" points="1077,-294 929,-294 929,-275 1077,-275 1077,-294"/>
<text text-anchor="middle" x="1003" y="-282" font-family="Helvetica,sans-Serif" font-size="10.00">src/sidebars/MathSidebar.h</text>
</a>
</g>
</g>
<!-- Node1&#45;&gt;Node23 -->
<g id="edge34" class="edge">
<title>Node1&#45;&gt;Node23</title>
<path fill="none" stroke="#63b8ff" d="M778.21,-328.35C830.48,-318.39 909.31,-303.36 958.38,-294.01"/>
<polygon fill="#63b8ff" stroke="#63b8ff" points="777.3,-324.97 768.13,-330.28 778.61,-331.84 777.3,-324.97"/>
</g>
<!-- Node25 -->
<g id="node25" class="node">
<title>Node25</title>
<g id="a_node25"><a xlink:href="StatSidebar_8h.html" target="_top" xlink:title="This file declares the class StatSidebar, that provides some statistics buttons.">
<polygon fill="white" stroke="#666666" points="1238.5,-294 1095.5,-294 1095.5,-275 1238.5,-275 1238.5,-294"/>
<text text-anchor="middle" x="1167" y="-282" font-family="Helvetica,sans-Serif" font-size="10.00">src/sidebars/StatSidebar.h</text>
</a>
</g>
</g>
<!-- Node1&#45;&gt;Node25 -->
<g id="edge37" class="edge">
<title>Node1&#45;&gt;Node25</title>
<path fill="none" stroke="#63b8ff" d="M778.45,-332.09C857.85,-322.57 1007.1,-304.67 1095.72,-294.05"/>
<polygon fill="#63b8ff" stroke="#63b8ff" points="777.7,-328.66 768.19,-333.32 778.53,-335.61 777.7,-328.66"/>
</g>
<!-- Node27 -->
<g id="node27" class="node">
<title>Node27</title>
<g id="a_node27"><a xlink:href="SymbolsSidebar_8h.html" target="_top" xlink:title="This file declares the class wxMaximaFrame.">
<polygon fill="white" stroke="#666666" points="492.5,-294 327.5,-294 327.5,-275 492.5,-275 492.5,-294"/>
<text text-anchor="middle" x="410" y="-282" font-family="Helvetica,sans-Serif" font-size="10.00">src/sidebars/SymbolsSidebar.h</text>
</a>
</g>
</g>
<!-- Node1&#45;&gt;Node27 -->
<g id="edge40" class="edge">
<title>Node1&#45;&gt;Node27</title>
<path fill="none" stroke="#63b8ff" d="M671.64,-329.52C612.71,-319.61 518.52,-303.76 460.68,-294.03"/>
<polygon fill="#63b8ff" stroke="#63b8ff" points="671.42,-333.03 681.86,-331.24 672.58,-326.13 671.42,-333.03"/>
</g>
<!-- Node29 -->
<g id="node29" class="node">
<title>Node29</title>
<g id="a_node29"><a xlink:href="TableOfContents_8cpp.html" target="_top" xlink:title="This file defines the class Structure.">
<polygon fill="white" stroke="#666666" points="1586.5,-294 1407.5,-294 1407.5,-275 1586.5,-275 1586.5,-294"/>
<text text-anchor="middle" x="1497" y="-282" font-family="Helvetica,sans-Serif" font-size="10.00">src/sidebars/TableOfContents.cpp</text>
</a>
</g>
</g>
<!-- Node1&#45;&gt;Node29 -->
<g id="edge43" class="edge">
<title>Node1&#45;&gt;Node29</title>
<path fill="none" stroke="#63b8ff" d="M778.52,-335.32C892.5,-328.47 1167.59,-311.51 1398,-294 1401.1,-293.76 1404.25,-293.52 1407.43,-293.27"/>
<polygon fill="#63b8ff" stroke="#63b8ff" points="778.1,-331.84 768.33,-335.93 778.52,-338.83 778.1,-331.84"/>
</g>
<!-- Node30 -->
<g id="node30" class="node">
<title>Node30</title>
<g id="a_node30"><a xlink:href="UnicodeSidebar_8cpp.html" target="_top" xlink:title="This file defines the class UnicodeSidebar.">
<polygon fill="white" stroke="#666666" points="1779,-294 1605,-294 1605,-275 1779,-275 1779,-294"/>
<text text-anchor="middle" x="1692" y="-282" font-family="Helvetica,sans-Serif" font-size="10.00">src/sidebars/UnicodeSidebar.cpp</text>
</a>
</g>
</g>
<!-- Node1&#45;&gt;Node30 -->
<g id="edge44" class="edge">
<title>Node1&#45;&gt;Node30</title>
<path fill="none" stroke="#63b8ff" d="M778.24,-336.47C914.42,-331.13 1286.49,-315.6 1596,-294 1598.92,-293.8 1601.89,-293.58 1604.89,-293.36"/>
<polygon fill="#63b8ff" stroke="#63b8ff" points="777.94,-332.98 768.08,-336.87 778.21,-339.98 777.94,-332.98"/>
</g>
<!-- Node31 -->
<g id="node31" class="node">
<title>Node31</title>
<g id="a_node31"><a xlink:href="VariablesPane_8h.html" target="_top" xlink:title="The file that contains the &quot;variables&quot; sidepane.">
<polygon fill="white" stroke="#666666" points="309.5,-294 154.5,-294 154.5,-275 309.5,-275 309.5,-294"/>
<text text-anchor="middle" x="232" y="-282" font-family="Helvetica,sans-Serif" font-size="10.00">src/sidebars/VariablesPane.h</text>
</a>
</g>
</g>
<!-- Node1&#45;&gt;Node31 -->
<g id="edge45" class="edge">
<title>Node1&#45;&gt;Node31</title>
<path fill="none" stroke="#63b8ff" d="M671.74,-332.77C584.52,-323.4 410.86,-304.73 309.83,-293.87"/>
<polygon fill="#63b8ff" stroke="#63b8ff" points="671.36,-336.25 681.68,-333.84 672.11,-329.29 671.36,-336.25"/>
</g>
<!-- Node4 -->
<g id="node4" class="node">
<title>Node4</title>
<g id="a_node4"><a xlink:href="Worksheet_8cpp.html" target="_top" xlink:title="This file defines the class Worksheet.">
<polygon fill="white" stroke="#666666" points="333,-74 227,-74 227,-55 333,-55 333,-74"/>
<text text-anchor="middle" x="280" y="-62" font-family="Helvetica,sans-Serif" font-size="10.00">src/Worksheet.cpp</text>
</a>
</g>
</g>
<!-- Node3&#45;&gt;Node4 -->
<g id="edge3" class="edge">
<title>Node3&#45;&gt;Node4</title>
<path fill="none" stroke="#63b8ff" d="M152.42,-209.91C148.65,-184.63 145.96,-139.19 168,-110 182.18,-91.22 205.53,-80.35 227.25,-74.06"/>
<polygon fill="#63b8ff" stroke="#63b8ff" points="149,-210.72 154.14,-219.99 155.9,-209.54 149,-210.72"/>
</g>
<!-- Node5 -->
<g id="node5" class="node">
<title>Node5</title>
<g id="a_node5"><a xlink:href="ConfigDialogue_8h.html" target="_top" xlink:title="The configuration dialog.">
<polygon fill="white" stroke="#666666" points="208.5,-74 53.5,-74 53.5,-55 208.5,-55 208.5,-74"/>
<text text-anchor="middle" x="131" y="-62" font-family="Helvetica,sans-Serif" font-size="10.00">src/dialogs/ConfigDialogue.h</text>
</a>
</g>
</g>
<!-- Node3&#45;&gt;Node5 -->
<g id="edge4" class="edge">
<title>Node3&#45;&gt;Node5</title>
<path fill="none" stroke="#63b8ff" d="M145.58,-210.73C141.48,-202.82 137.23,-193.22 135,-184 125.32,-143.98 128.32,-94.17 130.1,-74.29"/>
<polygon fill="#63b8ff" stroke="#63b8ff" points="142.63,-212.63 150.52,-219.7 148.75,-209.25 142.63,-212.63"/>
</g>
<!-- Node8 -->
<g id="node8" class="node">
<title>Node8</title>
<g id="a_node8"><a xlink:href="Printout_8cpp.html" target="_top" xlink:title="This file defines the class MathPrintOut.">
<polygon fill="white" stroke="#666666" points="332.5,-184 177.5,-184 177.5,-165 332.5,-165 332.5,-184"/>
<text text-anchor="middle" x="255" y="-172" font-family="Helvetica,sans-Serif" font-size="10.00">src/graphical_io/Printout.cpp</text>
</a>
</g>
</g>
<!-- Node3&#45;&gt;Node8 -->
<g id="edge7" class="edge">
<title>Node3&#45;&gt;Node8</title>
<path fill="none" stroke="#63b8ff" d="M180.78,-215.23C198.94,-205.51 223.06,-192.6 238.8,-184.17"/>
<polygon fill="#63b8ff" stroke="#63b8ff" points="179.07,-212.18 171.91,-219.98 182.37,-218.35 179.07,-212.18"/>
</g>
<!-- Node3&#45;&gt;Node9 -->
<g id="edge8" class="edge">
<title>Node3&#45;&gt;Node9</title>
<path fill="none" stroke="#63b8ff" d="M213.77,-218.78C272.92,-208.83 363.94,-193.51 420.36,-184.02"/>
<polygon fill="#63b8ff" stroke="#63b8ff" points="213.12,-215.34 203.84,-220.45 214.28,-222.24 213.12,-215.34"/>
</g>
<!-- Node6 -->
<g id="node6" class="node">
<title>Node6</title>
<g id="a_node6"><a xlink:href="main_8cpp.html" target="_top" xlink:title="The file that defines the starting point of the program.">
<polygon fill="white" stroke="#666666" points="361.5,-19 282.5,-19 282.5,0 361.5,0 361.5,-19"/>
<text text-anchor="middle" x="322" y="-7" font-family="Helvetica,sans-Serif" font-size="10.00">src/main.cpp</text>
</a>
</g>
</g>
<!-- Node5&#45;&gt;Node6 -->
<g id="edge5" class="edge">
<title>Node5&#45;&gt;Node6</title>
<path fill="none" stroke="#63b8ff" d="M171.78,-52.18C207.5,-42.27 258.63,-28.08 291.07,-19.08"/>
<polygon fill="#63b8ff" stroke="#63b8ff" points="170.39,-48.94 161.69,-54.98 172.26,-55.68 170.39,-48.94"/>
</g>
<!-- Node7 -->
<g id="node7" class="node">
<title>Node7</title>
<g id="a_node7"><a xlink:href="wxMaxima_8cpp.html" target="_top" xlink:title="This file defines the contents of the class wxMaxima that contains most of the program&#39;s logic.">
<polygon fill="white" stroke="#666666" points="488,-19 380,-19 380,0 488,0 488,-19"/>
<text text-anchor="middle" x="434" y="-7" font-family="Helvetica,sans-Serif" font-size="10.00">src/wxMaxima.cpp</text>
</a>
</g>
</g>
<!-- Node5&#45;&gt;Node7 -->
<g id="edge6" class="edge">
<title>Node5&#45;&gt;Node7</title>
<path fill="none" stroke="#63b8ff" d="M189.61,-53.25C246.51,-43.3 331.87,-28.36 385.19,-19.04"/>
<polygon fill="#63b8ff" stroke="#63b8ff" points="188.93,-49.81 179.68,-54.98 190.14,-56.71 188.93,-49.81"/>
</g>
<!-- Node9&#45;&gt;Node4 -->
<g id="edge10" class="edge">
<title>Node9&#45;&gt;Node4</title>
<path fill="none" stroke="#63b8ff" d="M441.55,-160.82C422.76,-152.42 398.06,-140.8 377,-129 345.22,-111.19 309.89,-86.82 291.92,-74.07"/>
<polygon fill="#63b8ff" stroke="#63b8ff" points="440.23,-164.06 450.79,-164.9 443.06,-157.66 440.23,-164.06"/>
</g>
<!-- Node10 -->
<g id="node10" class="node">
<title>Node10</title>
<g id="a_node10"><a xlink:href="AutocompletePopup_8cpp.html" target="_top" xlink:title="This file defines the class AutocompletePopup.">
<polygon fill="white" stroke="#666666" points="329,-129 177,-129 177,-110 329,-110 329,-129"/>
<text text-anchor="middle" x="253" y="-117" font-family="Helvetica,sans-Serif" font-size="10.00">src/AutocompletePopup.cpp</text>
</a>
</g>
</g>
<!-- Node9&#45;&gt;Node10 -->
<g id="edge9" class="edge">
<title>Node9&#45;&gt;Node10</title>
<path fill="none" stroke="#63b8ff" d="M426.02,-162.56C385.19,-152.64 325.8,-138.2 288.3,-129.08"/>
<polygon fill="#63b8ff" stroke="#63b8ff" points="425.43,-166.02 435.97,-164.98 427.08,-159.22 425.43,-166.02"/>
</g>
<!-- Node11 -->
<g id="node11" class="node">
<title>Node11</title>
<g id="a_node11"><a xlink:href="EditorCell_8cpp.html" target="_top" xlink:title="This file defines the class EditorCell.">
<polygon fill="white" stroke="#666666" points="554.5,-74 427.5,-74 427.5,-55 554.5,-55 554.5,-74"/>
<text text-anchor="middle" x="491" y="-62" font-family="Helvetica,sans-Serif" font-size="10.00">src/cells/EditorCell.cpp</text>
</a>
</g>
</g>
<!-- Node9&#45;&gt;Node11 -->
<g id="edge11" class="edge">
<title>Node9&#45;&gt;Node11</title>
<path fill="none" stroke="#63b8ff" d="M481.57,-155.77C485.7,-147.86 489.92,-138.26 492,-129 496.29,-109.85 494.13,-86.63 492.42,-74.26"/>
<polygon fill="#63b8ff" stroke="#63b8ff" points="478.4,-154.28 476.58,-164.72 484.51,-157.69 478.4,-154.28"/>
</g>
<!-- Node12 -->
<g id="node12" class="node">
<title>Node12</title>
<g id="a_node12"><a xlink:href="main_8h.html" target="_top" xlink:title="This file declares the class wxMaxima that contains most of the program&#39;s logic.">
<polygon fill="white" stroke="#666666" points="641,-74 573,-74 573,-55 641,-55 641,-74"/>
<text text-anchor="middle" x="607" y="-62" font-family="Helvetica,sans-Serif" font-size="10.00">src/main.h</text>
</a>
</g>
</g>
<!-- Node9&#45;&gt;Node12 -->
<g id="edge12" class="edge">
<title>Node9&#45;&gt;Node12</title>
<path fill="none" stroke="#63b8ff" d="M490.26,-158.21C519.23,-135.2 573.07,-92.44 596.1,-74.16"/>
<polygon fill="#63b8ff" stroke="#63b8ff" points="487.78,-155.7 482.13,-164.66 492.14,-161.18 487.78,-155.7"/>
</g>
<!-- Node14 -->
<g id="node14" class="node">
<title>Node14</title>
<g id="a_node14"><a xlink:href="GreekSidebar_8cpp.html" target="_top" xlink:title="This file defines the class GreekSidebar.">
<polygon fill="white" stroke="#666666" points="741,-129 577,-129 577,-110 741,-110 741,-129"/>
<text text-anchor="middle" x="659" y="-117" font-family="Helvetica,sans-Serif" font-size="10.00">src/sidebars/GreekSidebar.cpp</text>
</a>
</g>
</g>
<!-- Node9&#45;&gt;Node14 -->
<g id="edge16" class="edge">
<title>Node9&#45;&gt;Node14</title>
<path fill="none" stroke="#63b8ff" d="M511.14,-162.18C546.3,-152.27 596.63,-138.08 628.56,-129.08"/>
<polygon fill="#63b8ff" stroke="#63b8ff" points="509.88,-158.9 501.21,-164.98 511.78,-165.64 509.88,-158.9"/>
</g>
<!-- Node15 -->
<g id="node15" class="node">
<title>Node15</title>
<g id="a_node15"><a xlink:href="wxMaxima_8h.html" target="_top" xlink:title="This file declares the class wxMaxima that contains most of the program&#39;s logic.">
<polygon fill="white" stroke="#666666" points="482.5,-129 385.5,-129 385.5,-110 482.5,-110 482.5,-129"/>
<text text-anchor="middle" x="434" y="-117" font-family="Helvetica,sans-Serif" font-size="10.00">src/wxMaxima.h</text>
</a>
</g>
</g>
<!-- Node9&#45;&gt;Node15 -->
<g id="edge17" class="edge">
<title>Node9&#45;&gt;Node15</title>
<path fill="none" stroke="#63b8ff" d="M459.05,-156.39C452.69,-147.27 445.13,-136.45 440,-129.09"/>
<polygon fill="#63b8ff" stroke="#63b8ff" points="456.3,-158.55 464.89,-164.75 462.04,-154.55 456.3,-158.55"/>
</g>
<!-- Node16 -->
<g id="node16" class="node">
<title>Node16</title>
<g id="a_node16"><a xlink:href="wxMaximaFrame_8cpp.html" target="_top" xlink:title="This file defines the class wxMaximaFrame.">
<polygon fill="white" stroke="#666666" points="898.5,-129 759.5,-129 759.5,-110 898.5,-110 898.5,-129"/>
<text text-anchor="middle" x="829" y="-117" font-family="Helvetica,sans-Serif" font-size="10.00">src/wxMaximaFrame.cpp</text>
</a>
</g>
</g>
<!-- Node9&#45;&gt;Node16 -->
<g id="edge23" class="edge">
<title>Node9&#45;&gt;Node16</title>
<path fill="none" stroke="#63b8ff" d="M538.59,-163.49C605.8,-153.54 707.81,-138.44 771.33,-129.04"/>
<polygon fill="#63b8ff" stroke="#63b8ff" points="537.9,-160.06 528.52,-164.98 538.92,-166.98 537.9,-160.06"/>
</g>
<!-- Node12&#45;&gt;Node6 -->
<g id="edge14" class="edge">
<title>Node12&#45;&gt;Node6</title>
<path fill="none" stroke="#63b8ff" d="M562.9,-54.81C486.12,-40.2 407.88,-25.97 361.86,-17.66"/>
<polygon fill="#63b8ff" stroke="#63b8ff" points="562.26,-58.25 572.74,-56.69 563.57,-51.37 562.26,-58.25"/>
</g>
<!-- Node12&#45;&gt;Node7 -->
<g id="edge15" class="edge">
<title>Node12&#45;&gt;Node7</title>
<path fill="none" stroke="#63b8ff" d="M569.23,-51.93C536.91,-42.03 491.14,-28.01 462.01,-19.08"/>
<polygon fill="#63b8ff" stroke="#63b8ff" points="568.62,-55.4 579.2,-54.98 570.67,-48.71 568.62,-55.4"/>
</g>
<!-- Node13 -->
<g id="node13" class="node">
<title>Node13</title>
<g id="a_node13"><a xlink:href="MaximaManual_8cpp.html" target="_top" xlink:title="This file defines the class MaximaManual.">
<polygon fill="white" stroke="#666666" points="672,-19 542,-19 542,0 672,0 672,-19"/>
<text text-anchor="middle" x="607" y="-7" font-family="Helvetica,sans-Serif" font-size="10.00">src/MaximaManual.cpp</text>
</a>
</g>
</g>
<!-- Node12&#45;&gt;Node13 -->
<g id="edge13" class="edge">
<title>Node12&#45;&gt;Node13</title>
<path fill="none" stroke="#63b8ff" d="M607,-44.66C607,-35.93 607,-25.99 607,-19.09"/>
<polygon fill="#63b8ff" stroke="#63b8ff" points="603.5,-44.75 607,-54.75 610.5,-44.75 603.5,-44.75"/>
</g>
<!-- Node15&#45;&gt;Node4 -->
<g id="edge18" class="edge">
<title>Node15&#45;&gt;Node4</title>
<path fill="none" stroke="#63b8ff" d="M399.62,-106.67C370.91,-96.79 330.64,-82.93 304.94,-74.08"/>
<polygon fill="#63b8ff" stroke="#63b8ff" points="398.66,-110.04 409.26,-109.98 400.94,-103.42 398.66,-110.04"/>
</g>
<!-- Node15&#45;&gt;Node6 -->
<g id="edge20" class="edge">
<title>Node15&#45;&gt;Node6</title>
<path fill="none" stroke="#63b8ff" d="M417.52,-102.61C393.52,-79.47 349.78,-37.29 330.98,-19.16"/>
<polygon fill="#63b8ff" stroke="#63b8ff" points="415.21,-105.24 424.83,-109.66 420.07,-100.2 415.21,-105.24"/>
</g>
<!-- Node15&#45;&gt;Node7 -->
<g id="edge22" class="edge">
<title>Node15&#45;&gt;Node7</title>
<path fill="none" stroke="#63b8ff" d="M425.87,-100.59C421.1,-87.94 416.45,-70.54 419,-55 421.11,-42.13 426.44,-27.96 430.14,-19.15"/>
<polygon fill="#63b8ff" stroke="#63b8ff" points="422.69,-102.06 429.76,-109.95 429.16,-99.37 422.69,-102.06"/>
</g>
<!-- Node15&#45;&gt;Node11 -->
<g id="edge19" class="edge">
<title>Node15&#45;&gt;Node11</title>
<path fill="none" stroke="#63b8ff" d="M450.62,-103.04C460.73,-93.64 473.28,-81.98 481.68,-74.17"/>
<polygon fill="#63b8ff" stroke="#63b8ff" points="448.1,-100.61 443.16,-109.98 452.86,-105.74 448.1,-100.61"/>
</g>
<!-- Node15&#45;&gt;Node12 -->
<g id="edge21" class="edge">
<title>Node15&#45;&gt;Node12</title>
<path fill="none" stroke="#63b8ff" d="M471.77,-106.93C504.09,-97.03 549.86,-83.01 578.99,-74.08"/>
<polygon fill="#63b8ff" stroke="#63b8ff" points="470.33,-103.71 461.8,-109.98 472.38,-110.4 470.33,-103.71"/>
</g>
<!-- Node17&#45;&gt;Node9 -->
<g id="edge26" class="edge">
<title>Node17&#45;&gt;Node9</title>
<path fill="none" stroke="#63b8ff" d="M540.57,-271.49C522.65,-264.62 503.15,-254.24 490,-239 476.32,-223.14 472.49,-197.74 471.42,-184.37"/>
<polygon fill="#63b8ff" stroke="#63b8ff" points="539.72,-274.9 550.32,-274.95 542.07,-268.31 539.72,-274.9"/>
</g>
<!-- Node18 -->
<g id="node18" class="node">
<title>Node18</title>
<g id="a_node18"><a xlink:href="DrawSidebar_8cpp.html" target="_top" xlink:title="This file defines the class StatSidebar.">
<polygon fill="white" stroke="#666666" points="659,-239 499,-239 499,-220 659,-220 659,-239"/>
<text text-anchor="middle" x="579" y="-227" font-family="Helvetica,sans-Serif" font-size="10.00">src/sidebars/DrawSidebar.cpp</text>
</a>
</g>
</g>
<!-- Node17&#45;&gt;Node18 -->
<g id="edge25" class="edge">
<title>Node17&#45;&gt;Node18</title>
<path fill="none" stroke="#63b8ff" d="M582.87,-264.66C581.88,-255.93 580.75,-245.99 579.97,-239.09"/>
<polygon fill="#63b8ff" stroke="#63b8ff" points="579.41,-265.21 584.01,-274.75 586.36,-264.42 579.41,-265.21"/>
</g>
<!-- Node19&#45;&gt;Node16 -->
<g id="edge29" class="edge">
<title>Node19&#45;&gt;Node16</title>
<path fill="none" stroke="#63b8ff" d="M808.35,-269.09C798.23,-261.52 787.5,-251.26 782,-239 763.88,-198.61 802.76,-149 820.64,-129.23"/>
<polygon fill="#63b8ff" stroke="#63b8ff" points="806.36,-271.97 816.57,-274.8 810.35,-266.22 806.36,-271.97"/>
</g>
<!-- Node20 -->
<g id="node20" class="node">
<title>Node20</title>
<g id="a_node20"><a xlink:href="FormatSidebar_8cpp.html" target="_top" xlink:title="This file defines the class FormatSidebar.">
<polygon fill="white" stroke="#666666" points="959.5,-239 790.5,-239 790.5,-220 959.5,-220 959.5,-239"/>
<text text-anchor="middle" x="875" y="-227" font-family="Helvetica,sans-Serif" font-size="10.00">src/sidebars/FormatSidebar.cpp</text>
</a>
</g>
</g>
<!-- Node19&#45;&gt;Node20 -->
<g id="edge28" class="edge">
<title>Node19&#45;&gt;Node20</title>
<path fill="none" stroke="#63b8ff" d="M845.42,-266.96C852.91,-257.72 861.94,-246.6 868.03,-239.09"/>
<polygon fill="#63b8ff" stroke="#63b8ff" points="842.68,-264.78 839.1,-274.75 848.12,-269.19 842.68,-264.78"/>
</g>
<!-- Node21&#45;&gt;Node14 -->
<g id="edge31" class="edge">
<title>Node21&#45;&gt;Node14</title>
<path fill="none" stroke="#63b8ff" d="M659,-154.66C659,-145.93 659,-135.99 659,-129.09"/>
<polygon fill="#63b8ff" stroke="#63b8ff" points="655.5,-154.75 659,-164.75 662.5,-154.75 655.5,-154.75"/>
</g>
<!-- Node21&#45;&gt;Node16 -->
<g id="edge32" class="edge">
<title>Node21&#45;&gt;Node16</title>
<path fill="none" stroke="#63b8ff" d="M696.12,-161.93C727.87,-152.03 772.85,-138.01 801.47,-129.08"/>
<polygon fill="#63b8ff" stroke="#63b8ff" points="694.82,-158.67 686.31,-164.98 696.9,-165.35 694.82,-158.67"/>
</g>
<!-- Node23&#45;&gt;Node16 -->
<g id="edge36" class="edge">
<title>Node23&#45;&gt;Node16</title>
<path fill="none" stroke="#63b8ff" d="M1087.23,-273.34C1129.23,-264.59 1167.03,-248.64 1146,-220 1114.25,-176.76 961.3,-143.83 880.02,-129.05"/>
<polygon fill="#63b8ff" stroke="#63b8ff" points="1086.52,-269.92 1077.37,-275.26 1087.85,-276.79 1086.52,-269.92"/>
</g>
<!-- Node24 -->
<g id="node24" class="node">
<title>Node24</title>
<g id="a_node24"><a xlink:href="MathSidebar_8cpp.html" target="_top" xlink:title="This file defines the class SymbolsSidebar.">
<polygon fill="white" stroke="#666666" points="1136.5,-239 977.5,-239 977.5,-220 1136.5,-220 1136.5,-239"/>
<text text-anchor="middle" x="1057" y="-227" font-family="Helvetica,sans-Serif" font-size="10.00">src/sidebars/MathSidebar.cpp</text>
</a>
</g>
</g>
<!-- Node23&#45;&gt;Node24 -->
<g id="edge35" class="edge">
<title>Node23&#45;&gt;Node24</title>
<path fill="none" stroke="#63b8ff" d="M1019.28,-267.52C1028.8,-258.18 1040.44,-246.75 1048.25,-239.09"/>
<polygon fill="#63b8ff" stroke="#63b8ff" points="1016.6,-265.25 1011.92,-274.75 1021.51,-270.24 1016.6,-265.25"/>
</g>
<!-- Node25&#45;&gt;Node16 -->
<g id="edge39" class="edge">
<title>Node25&#45;&gt;Node16</title>
<path fill="none" stroke="#63b8ff" d="M1169.69,-265.02C1170.7,-251.6 1170.05,-233.51 1162,-220 1138.96,-181.35 1118.85,-181.52 1077,-165 1019.32,-142.24 949.48,-131.04 898.63,-125.58"/>
<polygon fill="#63b8ff" stroke="#63b8ff" points="1166.21,-264.66 1168.57,-274.98 1173.16,-265.44 1166.21,-264.66"/>
</g>
<!-- Node26 -->
<g id="node26" class="node">
<title>Node26</title>
<g id="a_node26"><a xlink:href="StatSidebar_8cpp.html" target="_top" xlink:title="This file defines the class StatSidebar.">
<polygon fill="white" stroke="#666666" points="1384,-239 1230,-239 1230,-220 1384,-220 1384,-239"/>
<text text-anchor="middle" x="1307" y="-227" font-family="Helvetica,sans-Serif" font-size="10.00">src/sidebars/StatSidebar.cpp</text>
</a>
</g>
</g>
<!-- Node25&#45;&gt;Node26 -->
<g id="edge38" class="edge">
<title>Node25&#45;&gt;Node26</title>
<path fill="none" stroke="#63b8ff" d="M1198.91,-271.42C1224.88,-261.59 1260.92,-247.95 1284.1,-239.17"/>
<polygon fill="#63b8ff" stroke="#63b8ff" points="1197.61,-268.17 1189.49,-274.98 1200.08,-274.72 1197.61,-268.17"/>
</g>
<!-- Node27&#45;&gt;Node9 -->
<g id="edge42" class="edge">
<title>Node27&#45;&gt;Node9</title>
<path fill="none" stroke="#63b8ff" d="M420.02,-265.76C433.28,-242.28 456.14,-201.81 466.11,-184.16"/>
<polygon fill="#63b8ff" stroke="#63b8ff" points="416.86,-264.23 414.99,-274.66 422.96,-267.68 416.86,-264.23"/>
</g>
<!-- Node28 -->
<g id="node28" class="node">
<title>Node28</title>
<g id="a_node28"><a xlink:href="SymbolsSidebar_8cpp.html" target="_top" xlink:title="This file defines the class SymbolsSidebar.">
<polygon fill="white" stroke="#666666" points="405,-239 229,-239 229,-220 405,-220 405,-239"/>
<text text-anchor="middle" x="317" y="-227" font-family="Helvetica,sans-Serif" font-size="10.00">src/sidebars/SymbolsSidebar.cpp</text>
</a>
</g>
</g>
<!-- Node27&#45;&gt;Node28 -->
<g id="edge41" class="edge">
<title>Node27&#45;&gt;Node28</title>
<path fill="none" stroke="#63b8ff" d="M386.25,-269.97C369.25,-260.28 346.87,-247.52 332.21,-239.17"/>
<polygon fill="#63b8ff" stroke="#63b8ff" points="384.64,-273.07 395.06,-274.98 388.1,-266.99 384.64,-273.07"/>
</g>
<!-- Node31&#45;&gt;Node3 -->
<g id="edge46" class="edge">
<title>Node31&#45;&gt;Node3</title>
<path fill="none" stroke="#63b8ff" d="M211.42,-269.15C197.69,-259.57 180.07,-247.29 168.43,-239.17"/>
<polygon fill="#63b8ff" stroke="#63b8ff" points="209.58,-272.14 219.79,-274.98 213.59,-266.39 209.58,-272.14"/>
</g>
</g>
</svg>
