<?xml version="1.0" encoding="UTF-8" standalone="no"?>
<!DOCTYPE svg PUBLIC "-//W3C//DTD SVG 1.1//EN"
 "http://www.w3.org/Graphics/SVG/1.1/DTD/svg11.dtd">
<!-- Generated by graphviz version 2.43.0 (0)
 -->
<!-- Title: src/EventIDs.h Pages: 1 -->
<svg width="3940pt" height="379pt"
 viewBox="0.00 0.00 3939.90 379.00" xmlns="http://www.w3.org/2000/svg" xmlns:xlink="http://www.w3.org/1999/xlink">
<g id="graph0" class="graph" transform="scale(1 1) rotate(0) translate(4 375)">
<title>src/EventIDs.h</title>
<!-- Node1 -->
<g id="node1" class="node">
<title>Node1</title>
<g id="a_node1"><a xlink:title="This file declares the class EventIDs that contains unique IDs for many events wxMaxima needs.">
<polygon fill="#999999" stroke="#666666" points="2758.9,-371 2672.9,-371 2672.9,-352 2758.9,-352 2758.9,-371"/>
<text text-anchor="middle" x="2715.9" y="-359" font-family="Helvetica,sans-Serif" font-size="10.00">src/EventIDs.h</text>
</a>
</g>
</g>
<!-- Node2 -->
<g id="node2" class="node">
<title>Node2</title>
<g id="a_node2"><a xlink:href="EventIDs_8cpp.html" target="_top" xlink:title="This file defines the class EventIDs that contains unique IDs for many events wxMaxima needs.">
<polygon fill="white" stroke="#666666" points="1951.9,-316 1853.9,-316 1853.9,-297 1951.9,-297 1951.9,-316"/>
<text text-anchor="middle" x="1902.9" y="-304" font-family="Helvetica,sans-Serif" font-size="10.00">src/EventIDs.cpp</text>
</a>
</g>
</g>
<!-- Node1&#45;&gt;Node2 -->
<g id="edge1" class="edge">
<title>Node1&#45;&gt;Node2</title>
<path fill="none" stroke="#63b8ff" d="M2662.41,-358.7C2539.29,-354.26 2226.4,-341.27 1965.9,-316 1961.39,-315.56 1956.72,-315.05 1952.04,-314.49"/>
<polygon fill="#63b8ff" stroke="#63b8ff" points="2662.57,-362.21 2672.69,-359.07 2662.82,-355.21 2662.57,-362.21"/>
</g>
<!-- Node3 -->
<g id="node3" class="node">
<title>Node3</title>
<g id="a_node3"><a xlink:href="MaximaCommandMenus_8cpp.html" target="_top" xlink:title="Implementation of the menu&#45;command handlers extracted from wxMaxima &#45; see MaximaCommandMenus....">
<polygon fill="white" stroke="#666666" points="2303.9,-74 2127.9,-74 2127.9,-55 2303.9,-55 2303.9,-74"/>
<text text-anchor="middle" x="2215.9" y="-62" font-family="Helvetica,sans-Serif" font-size="10.00">src/MaximaCommandMenus.cpp</text>
</a>
</g>
</g>
<!-- Node1&#45;&gt;Node3 -->
<g id="edge2" class="edge">
<title>Node1&#45;&gt;Node3</title>
<path fill="none" stroke="#63b8ff" d="M2662.55,-360.18C2561.4,-358.73 2346.07,-351.45 2281.9,-316 2207.01,-274.63 2215.9,-224.71 2203.9,-140 2202.03,-126.8 2202.15,-123.22 2203.9,-110 2205.58,-97.31 2209.85,-83.1 2212.81,-74.23"/>
<polygon fill="#63b8ff" stroke="#63b8ff" points="2662.51,-363.68 2672.56,-360.31 2662.6,-356.68 2662.51,-363.68"/>
</g>
<!-- Node4 -->
<g id="node4" class="node">
<title>Node4</title>
<g id="a_node4"><a xlink:href="MaximaMenuSync_8cpp.html" target="_top" xlink:title="Implements the table that keeps menu check marks in sync with Maxima&#39;s variables.">
<polygon fill="white" stroke="#666666" points="3391.9,-316 3247.9,-316 3247.9,-297 3391.9,-297 3391.9,-316"/>
<text text-anchor="middle" x="3319.9" y="-304" font-family="Helvetica,sans-Serif" font-size="10.00">src/MaximaMenuSync.cpp</text>
</a>
</g>
</g>
<!-- Node1&#45;&gt;Node4 -->
<g id="edge3" class="edge">
<title>Node1&#45;&gt;Node4</title>
<path fill="none" stroke="#63b8ff" d="M2769.15,-356.32C2863.74,-348.81 3067.3,-332.3 3238.9,-316 3241.71,-315.73 3244.58,-315.45 3247.48,-315.17"/>
<polygon fill="#63b8ff" stroke="#63b8ff" points="2768.67,-352.84 2758.97,-357.12 2769.22,-359.82 2768.67,-352.84"/>
</g>
<!-- Node5 -->
<g id="node5" class="node">
<title>Node5</title>
<g id="a_node5"><a xlink:href="Worksheet_8h.html" target="_top" xlink:title="This file defines the class Worksheet.">
<polygon fill="white" stroke="#666666" points="1232.4,-261 1137.4,-261 1137.4,-242 1232.4,-242 1232.4,-261"/>
<text text-anchor="middle" x="1184.9" y="-249" font-family="Helvetica,sans-Serif" font-size="10.00">src/Worksheet.h</text>
</a>
</g>
</g>
<!-- Node1&#45;&gt;Node5 -->
<g id="edge4" class="edge">
<title>Node1&#45;&gt;Node5</title>
<path fill="none" stroke="#63b8ff" d="M2662.11,-359.86C2517.86,-357.72 2124.88,-348.94 1999.9,-316 1981.25,-311.09 1979.55,-301.87 1960.9,-297 1822.17,-260.79 1379.06,-254.03 1232.48,-252.78"/>
<polygon fill="#63b8ff" stroke="#63b8ff" points="2662.41,-363.37 2672.46,-360.01 2662.51,-356.37 2662.41,-363.37"/>
</g>
<!-- Node13 -->
<g id="node13" class="node">
<title>Node13</title>
<g id="a_node13"><a xlink:href="wxMaximaFrame_8h.html" target="_top" xlink:title="This file declares the class wxMaximaFrame.">
<polygon fill="white" stroke="#666666" points="2509.9,-200.5 2381.9,-200.5 2381.9,-181.5 2509.9,-181.5 2509.9,-200.5"/>
<text text-anchor="middle" x="2445.9" y="-188.5" font-family="Helvetica,sans-Serif" font-size="10.00">src/wxMaximaFrame.h</text>
</a>
</g>
</g>
<!-- Node1&#45;&gt;Node13 -->
<g id="edge67" class="edge">
<title>Node1&#45;&gt;Node13</title>
<path fill="none" stroke="#63b8ff" d="M2662.31,-360.71C2588.86,-359.52 2453.63,-352.01 2344.9,-316 2298.22,-300.54 2273.55,-303.54 2248.9,-261 2218.28,-208.17 2313.31,-194.99 2381.86,-192.16"/>
<polygon fill="#63b8ff" stroke="#63b8ff" points="2662.65,-364.21 2672.69,-360.84 2662.74,-357.21 2662.65,-364.21"/>
</g>
<!-- Node33 -->
<g id="node33" class="node">
<title>Node33</title>
<g id="a_node33"><a xlink:href="DrawSidebar_8h.html" target="_top" xlink:title="This file declares the class StatSidebar, that provides some statistics buttons.">
<polygon fill="white" stroke="#666666" points="2502.4,-316 2353.4,-316 2353.4,-297 2502.4,-297 2502.4,-316"/>
<text text-anchor="middle" x="2427.9" y="-304" font-family="Helvetica,sans-Serif" font-size="10.00">src/sidebars/DrawSidebar.h</text>
</a>
</g>
</g>
<!-- Node1&#45;&gt;Node33 -->
<g id="edge43" class="edge">
<title>Node1&#45;&gt;Node33</title>
<path fill="none" stroke="#63b8ff" d="M2662.7,-350.71C2608.6,-340.75 2525.63,-325.49 2474.17,-316.02"/>
<polygon fill="#63b8ff" stroke="#63b8ff" points="2662.31,-354.2 2672.78,-352.57 2663.58,-347.31 2662.31,-354.2"/>
</g>
<!-- Node35 -->
<g id="node35" class="node">
<title>Node35</title>
<g id="a_node35"><a xlink:href="FormatSidebar_8h.html" target="_top" xlink:title="This file declares the class FormatSidebar, that provides buttons for inserting wxMaxima cells.">
<polygon fill="white" stroke="#666666" points="2901.9,-316 2743.9,-316 2743.9,-297 2901.9,-297 2901.9,-316"/>
<text text-anchor="middle" x="2822.9" y="-304" font-family="Helvetica,sans-Serif" font-size="10.00">src/sidebars/FormatSidebar.h</text>
</a>
</g>
</g>
<!-- Node1&#45;&gt;Node35 -->
<g id="edge46" class="edge">
<title>Node1&#45;&gt;Node35</title>
<path fill="none" stroke="#63b8ff" d="M2742.14,-347.5C2761.82,-337.75 2788.22,-324.68 2805.39,-316.17"/>
<polygon fill="#63b8ff" stroke="#63b8ff" points="2740.5,-344.41 2733.09,-351.98 2743.6,-350.68 2740.5,-344.41"/>
</g>
<!-- Node37 -->
<g id="node37" class="node">
<title>Node37</title>
<g id="a_node37"><a xlink:href="GreekSidebar_8h.html" target="_top" xlink:title="This file declares the class wxMaximaFrame.">
<polygon fill="white" stroke="#666666" points="2845.9,-200.5 2693.9,-200.5 2693.9,-181.5 2845.9,-181.5 2845.9,-200.5"/>
<text text-anchor="middle" x="2769.9" y="-188.5" font-family="Helvetica,sans-Serif" font-size="10.00">src/sidebars/GreekSidebar.h</text>
</a>
</g>
</g>
<!-- Node1&#45;&gt;Node37 -->
<g id="edge49" class="edge">
<title>Node1&#45;&gt;Node37</title>
<path fill="none" stroke="#63b8ff" d="M2716.33,-341.63C2717.46,-317.65 2721.39,-275.36 2734.9,-242 2741.34,-226.09 2753.65,-210.29 2761.81,-200.84"/>
<polygon fill="#63b8ff" stroke="#63b8ff" points="2712.83,-341.7 2715.97,-351.82 2719.82,-341.95 2712.83,-341.7"/>
</g>
<!-- Node39 -->
<g id="node39" class="node">
<title>Node39</title>
<g id="a_node39"><a xlink:href="History_8cpp.html" target="_top" xlink:title="This file defines the class History.">
<polygon fill="white" stroke="#666666" points="3541.9,-316 3409.9,-316 3409.9,-297 3541.9,-297 3541.9,-316"/>
<text text-anchor="middle" x="3475.9" y="-304" font-family="Helvetica,sans-Serif" font-size="10.00">src/sidebars/History.cpp</text>
</a>
</g>
</g>
<!-- Node1&#45;&gt;Node39 -->
<g id="edge53" class="edge">
<title>Node1&#45;&gt;Node39</title>
<path fill="none" stroke="#63b8ff" d="M2769.56,-357.89C2885.13,-352.08 3166.07,-336.92 3400.9,-316 3403.77,-315.74 3406.7,-315.47 3409.66,-315.18"/>
<polygon fill="#63b8ff" stroke="#63b8ff" points="2769.04,-354.41 2759.23,-358.41 2769.39,-361.4 2769.04,-354.41"/>
</g>
<!-- Node40 -->
<g id="node40" class="node">
<title>Node40</title>
<g id="a_node40"><a xlink:href="MathSidebar_8h.html" target="_top" xlink:title="This file declares the class wxMaximaFrame.">
<polygon fill="white" stroke="#666666" points="3229.9,-316 3081.9,-316 3081.9,-297 3229.9,-297 3229.9,-316"/>
<text text-anchor="middle" x="3155.9" y="-304" font-family="Helvetica,sans-Serif" font-size="10.00">src/sidebars/MathSidebar.h</text>
</a>
</g>
</g>
<!-- Node1&#45;&gt;Node40 -->
<g id="edge54" class="edge">
<title>Node1&#45;&gt;Node40</title>
<path fill="none" stroke="#63b8ff" d="M2769.53,-354.04C2848.72,-344.5 2997.05,-326.63 3085.09,-316.03"/>
<polygon fill="#63b8ff" stroke="#63b8ff" points="2768.8,-350.6 2759.29,-355.27 2769.64,-357.55 2768.8,-350.6"/>
</g>
<!-- Node42 -->
<g id="node42" class="node">
<title>Node42</title>
<g id="a_node42"><a xlink:href="StatSidebar_8h.html" target="_top" xlink:title="This file declares the class StatSidebar, that provides some statistics buttons.">
<polygon fill="white" stroke="#666666" points="3063.4,-316 2920.4,-316 2920.4,-297 3063.4,-297 3063.4,-316"/>
<text text-anchor="middle" x="2991.9" y="-304" font-family="Helvetica,sans-Serif" font-size="10.00">src/sidebars/StatSidebar.h</text>
</a>
</g>
</g>
<!-- Node1&#45;&gt;Node42 -->
<g id="edge57" class="edge">
<title>Node1&#45;&gt;Node42</title>
<path fill="none" stroke="#63b8ff" d="M2769.01,-350.3C2820.77,-340.36 2898.59,-325.42 2947.25,-316.07"/>
<polygon fill="#63b8ff" stroke="#63b8ff" points="2768.18,-346.9 2759.02,-352.22 2769.5,-353.77 2768.18,-346.9"/>
</g>
<!-- Node44 -->
<g id="node44" class="node">
<title>Node44</title>
<g id="a_node44"><a xlink:href="SymbolsSidebar_8h.html" target="_top" xlink:title="This file declares the class wxMaximaFrame.">
<polygon fill="white" stroke="#666666" points="2685.4,-316 2520.4,-316 2520.4,-297 2685.4,-297 2685.4,-316"/>
<text text-anchor="middle" x="2602.9" y="-304" font-family="Helvetica,sans-Serif" font-size="10.00">src/sidebars/SymbolsSidebar.h</text>
</a>
</g>
</g>
<!-- Node1&#45;&gt;Node44 -->
<g id="edge60" class="edge">
<title>Node1&#45;&gt;Node44</title>
<path fill="none" stroke="#63b8ff" d="M2688.46,-347.63C2667.65,-337.87 2639.6,-324.71 2621.38,-316.17"/>
<polygon fill="#63b8ff" stroke="#63b8ff" points="2687.2,-350.91 2697.74,-351.98 2690.17,-344.57 2687.2,-350.91"/>
</g>
<!-- Node46 -->
<g id="node46" class="node">
<title>Node46</title>
<g id="a_node46"><a xlink:href="TableOfContents_8cpp.html" target="_top" xlink:title="This file defines the class Structure.">
<polygon fill="white" stroke="#666666" points="3739.4,-316 3560.4,-316 3560.4,-297 3739.4,-297 3739.4,-316"/>
<text text-anchor="middle" x="3649.9" y="-304" font-family="Helvetica,sans-Serif" font-size="10.00">src/sidebars/TableOfContents.cpp</text>
</a>
</g>
</g>
<!-- Node1&#45;&gt;Node46 -->
<g id="edge63" class="edge">
<title>Node1&#45;&gt;Node46</title>
<path fill="none" stroke="#63b8ff" d="M2769.21,-358.26C2901.57,-352.56 3255.85,-336.52 3550.9,-316 3554,-315.78 3557.15,-315.56 3560.33,-315.32"/>
<polygon fill="#63b8ff" stroke="#63b8ff" points="2768.79,-354.77 2758.95,-358.7 2769.09,-361.77 2768.79,-354.77"/>
</g>
<!-- Node47 -->
<g id="node47" class="node">
<title>Node47</title>
<g id="a_node47"><a xlink:href="UnicodeSidebar_8cpp.html" target="_top" xlink:title="This file defines the class UnicodeSidebar.">
<polygon fill="white" stroke="#666666" points="3931.9,-316 3757.9,-316 3757.9,-297 3931.9,-297 3931.9,-316"/>
<text text-anchor="middle" x="3844.9" y="-304" font-family="Helvetica,sans-Serif" font-size="10.00">src/sidebars/UnicodeSidebar.cpp</text>
</a>
</g>
</g>
<!-- Node1&#45;&gt;Node47 -->
<g id="edge64" class="edge">
<title>Node1&#45;&gt;Node47</title>
<path fill="none" stroke="#63b8ff" d="M2769.29,-359.05C2922.09,-354.73 3374.19,-340.65 3748.9,-316 3751.82,-315.81 3754.79,-315.6 3757.79,-315.39"/>
<polygon fill="#63b8ff" stroke="#63b8ff" points="2769.13,-355.56 2759.24,-359.34 2769.33,-362.55 2769.13,-355.56"/>
</g>
<!-- Node48 -->
<g id="node48" class="node">
<title>Node48</title>
<g id="a_node48"><a xlink:href="VariablesPane_8h.html" target="_top" xlink:title="The file that contains the &quot;variables&quot; sidepane.">
<polygon fill="white" stroke="#666666" points="2163.4,-316 2008.4,-316 2008.4,-297 2163.4,-297 2163.4,-316"/>
<text text-anchor="middle" x="2085.9" y="-304" font-family="Helvetica,sans-Serif" font-size="10.00">src/sidebars/VariablesPane.h</text>
</a>
</g>
</g>
<!-- Node1&#45;&gt;Node48 -->
<g id="edge65" class="edge">
<title>Node1&#45;&gt;Node48</title>
<path fill="none" stroke="#63b8ff" d="M2662.54,-356.26C2565.88,-348.53 2355.36,-331.54 2177.9,-316 2173.26,-315.59 2168.5,-315.17 2163.69,-314.74"/>
<polygon fill="#63b8ff" stroke="#63b8ff" points="2662.4,-359.76 2672.65,-357.06 2662.96,-352.78 2662.4,-359.76"/>
</g>
<!-- Node6 -->
<g id="node6" class="node">
<title>Node6</title>
<g id="a_node6"><a xlink:href="Worksheet_8cpp.html" target="_top" xlink:title="This file defines the class Worksheet.">
<polygon fill="white" stroke="#666666" points="2109.9,-74 2003.9,-74 2003.9,-55 2109.9,-55 2109.9,-74"/>
<text text-anchor="middle" x="2056.9" y="-62" font-family="Helvetica,sans-Serif" font-size="10.00">src/Worksheet.cpp</text>
</a>
</g>
</g>
<!-- Node5&#45;&gt;Node6 -->
<g id="edge5" class="edge">
<title>Node5&#45;&gt;Node6</title>
<path fill="none" stroke="#63b8ff" d="M1189.15,-231.76C1194.14,-214.36 1204.22,-189.2 1222.9,-176 1364.21,-76.12 1823.4,-97.09 1994.9,-74 1997.8,-73.61 2000.79,-73.21 2003.8,-72.8"/>
<polygon fill="#63b8ff" stroke="#63b8ff" points="1185.65,-231.32 1186.57,-241.88 1192.43,-233.05 1185.65,-231.32"/>
</g>
<!-- Node7 -->
<g id="node7" class="node">
<title>Node7</title>
<g id="a_node7"><a xlink:href="WorksheetContextMenu_8cpp.html" target="_top" xlink:title="The worksheet&#39;s right&#45;click context menu (see WorksheetContextMenu.h).">
<polygon fill="white" stroke="#666666" points="2163.4,-200.5 1992.4,-200.5 1992.4,-181.5 2163.4,-181.5 2163.4,-200.5"/>
<text text-anchor="middle" x="2077.9" y="-188.5" font-family="Helvetica,sans-Serif" font-size="10.00">src/WorksheetContextMenu.cpp</text>
</a>
</g>
</g>
<!-- Node5&#45;&gt;Node7 -->
<g id="edge6" class="edge">
<title>Node5&#45;&gt;Node7</title>
<path fill="none" stroke="#63b8ff" d="M1242.95,-249.07C1374.77,-245.41 1706.69,-234 1982.9,-206 1996.83,-204.59 2011.85,-202.6 2025.74,-200.55"/>
<polygon fill="#63b8ff" stroke="#63b8ff" points="1242.59,-245.57 1232.69,-249.34 1242.78,-252.57 1242.59,-245.57"/>
</g>
<!-- Node8 -->
<g id="node8" class="node">
<title>Node8</title>
<g id="a_node8"><a xlink:href="ConfigDialogue_8h.html" target="_top" xlink:title="The configuration dialog.">
<polygon fill="white" stroke="#666666" points="1985.4,-74 1830.4,-74 1830.4,-55 1985.4,-55 1985.4,-74"/>
<text text-anchor="middle" x="1907.9" y="-62" font-family="Helvetica,sans-Serif" font-size="10.00">src/dialogs/ConfigDialogue.h</text>
</a>
</g>
</g>
<!-- Node5&#45;&gt;Node8 -->
<g id="edge7" class="edge">
<title>Node5&#45;&gt;Node8</title>
<path fill="none" stroke="#63b8ff" d="M1178.71,-232.08C1169.91,-202 1158.12,-142.47 1189.9,-110 1239.1,-59.74 1751.77,-79.46 1821.9,-74 1824.59,-73.79 1827.33,-73.57 1830.09,-73.34"/>
<polygon fill="#63b8ff" stroke="#63b8ff" points="1175.4,-233.22 1181.73,-241.72 1182.08,-231.13 1175.4,-233.22"/>
</g>
<!-- Node11 -->
<g id="node11" class="node">
<title>Node11</title>
<g id="a_node11"><a xlink:href="DiffFrame_8h_source.html" target="_top" xlink:title=" ">
<polygon fill="white" stroke="#666666" points="1812.4,-74 1683.4,-74 1683.4,-55 1812.4,-55 1812.4,-74"/>
<text text-anchor="middle" x="1747.9" y="-62" font-family="Helvetica,sans-Serif" font-size="10.00">src/dialogs/DiffFrame.h</text>
</a>
</g>
</g>
<!-- Node5&#45;&gt;Node11 -->
<g id="edge10" class="edge">
<title>Node5&#45;&gt;Node11</title>
<path fill="none" stroke="#63b8ff" d="M1126.99,-250.52C895.37,-250.3 46.11,-246.72 6.9,-206 -2.35,-196.4 -2.23,-185.72 6.9,-176 65.39,-113.68 1374.58,-75.34 1683.17,-67.15"/>
<polygon fill="#63b8ff" stroke="#63b8ff" points="1127.23,-254.02 1137.23,-250.52 1127.23,-247.02 1127.23,-254.02"/>
</g>
<!-- Node12 -->
<g id="node12" class="node">
<title>Node12</title>
<g id="a_node12"><a xlink:href="Printout_8cpp.html" target="_top" xlink:title="This file defines the class MathPrintOut.">
<polygon fill="white" stroke="#666666" points="171.4,-200.5 16.4,-200.5 16.4,-181.5 171.4,-181.5 171.4,-200.5"/>
<text text-anchor="middle" x="93.9" y="-188.5" font-family="Helvetica,sans-Serif" font-size="10.00">src/graphical_io/Printout.cpp</text>
</a>
</g>
</g>
<!-- Node5&#45;&gt;Node12 -->
<g id="edge13" class="edge">
<title>Node5&#45;&gt;Node12</title>
<path fill="none" stroke="#63b8ff" d="M1127.02,-250.26C972.8,-249.13 539.33,-242.66 180.9,-206 167.81,-204.66 153.7,-202.64 140.72,-200.55"/>
<polygon fill="#63b8ff" stroke="#63b8ff" points="1127.18,-253.77 1137.2,-250.33 1127.22,-246.77 1127.18,-253.77"/>
</g>
<!-- Node5&#45;&gt;Node13 -->
<g id="edge14" class="edge">
<title>Node5&#45;&gt;Node13</title>
<path fill="none" stroke="#63b8ff" d="M1242.5,-248.03C1394.57,-241.49 1819.36,-223.03 2172.9,-206 2244.36,-202.56 2326.32,-198.32 2381.64,-195.41"/>
<polygon fill="#63b8ff" stroke="#63b8ff" points="1242.3,-244.54 1232.46,-248.46 1242.6,-251.53 1242.3,-244.54"/>
</g>
<!-- Node21 -->
<g id="node21" class="node">
<title>Node21</title>
<g id="a_node21"><a xlink:href="test__Accessibility_8cpp.html" target="_top" xlink:title="Logic&#45;level regression tests for wxMaxima&#39;s custom wxAccessible classes.">
<polygon fill="white" stroke="#666666" points="297.9,-206 189.9,-206 189.9,-176 297.9,-176 297.9,-206"/>
<text text-anchor="start" x="197.9" y="-194" font-family="Helvetica,sans-Serif" font-size="10.00">test/unit_tests/test</text>
<text text-anchor="middle" x="243.9" y="-183" font-family="Helvetica,sans-Serif" font-size="10.00">_Accessibility.cpp</text>
</a>
</g>
</g>
<!-- Node5&#45;&gt;Node21 -->
<g id="edge31" class="edge">
<title>Node5&#45;&gt;Node21</title>
<path fill="none" stroke="#63b8ff" d="M1126.9,-250.92C985.83,-251.2 613.81,-247.58 306.9,-206 304.01,-205.61 301.06,-205.15 298.09,-204.65"/>
<polygon fill="#63b8ff" stroke="#63b8ff" points="1127.06,-254.42 1137.05,-250.89 1127.04,-247.42 1127.06,-254.42"/>
</g>
<!-- Node22 -->
<g id="node22" class="node">
<title>Node22</title>
<g id="a_node22"><a xlink:href="test__EditorCellInvariants_8cpp.html" target="_top" xlink:title="Hardening tests for EditorCell&#39;s text&#45;editing core.">
<polygon fill="white" stroke="#666666" points="453.9,-206 315.9,-206 315.9,-176 453.9,-176 453.9,-206"/>
<text text-anchor="start" x="323.9" y="-194" font-family="Helvetica,sans-Serif" font-size="10.00">test/unit_tests/test</text>
<text text-anchor="middle" x="384.9" y="-183" font-family="Helvetica,sans-Serif" font-size="10.00">_EditorCellInvariants.cpp</text>
</a>
</g>
</g>
<!-- Node5&#45;&gt;Node22 -->
<g id="edge32" class="edge">
<title>Node5&#45;&gt;Node22</title>
<path fill="none" stroke="#63b8ff" d="M1126.68,-249.2C1003.7,-245.96 708.54,-235.51 462.9,-206 460.03,-205.66 457.11,-205.27 454.16,-204.86"/>
<polygon fill="#63b8ff" stroke="#63b8ff" points="1126.9,-252.71 1136.99,-249.47 1127.08,-245.71 1126.9,-252.71"/>
</g>
<!-- Node23 -->
<g id="node23" class="node">
<title>Node23</title>
<g id="a_node23"><a xlink:href="test__GroupCellLayout_8cpp.html" target="_top" xlink:title="Regression tests for the GroupCell &lt;&#45;&gt; EditorCell layout coupling.">
<polygon fill="white" stroke="#666666" points="595.4,-206 472.4,-206 472.4,-176 595.4,-176 595.4,-206"/>
<text text-anchor="start" x="480.4" y="-194" font-family="Helvetica,sans-Serif" font-size="10.00">test/unit_tests/test</text>
<text text-anchor="middle" x="533.9" y="-183" font-family="Helvetica,sans-Serif" font-size="10.00">_GroupCellLayout.cpp</text>
</a>
</g>
</g>
<!-- Node5&#45;&gt;Node23 -->
<g id="edge33" class="edge">
<title>Node5&#45;&gt;Node23</title>
<path fill="none" stroke="#63b8ff" d="M1127.31,-248.34C1022.82,-243.91 795.18,-231.97 604.9,-206 601.91,-205.59 598.86,-205.14 595.78,-204.65"/>
<polygon fill="#63b8ff" stroke="#63b8ff" points="1127.2,-251.84 1137.33,-248.75 1127.49,-244.84 1127.2,-251.84"/>
</g>
<!-- Node24 -->
<g id="node24" class="node">
<title>Node24</title>
<g id="a_node24"><a xlink:href="test__LayoutInvariants_8cpp.html" target="_top" xlink:title="Layout idempotency invariants.">
<polygon fill="white" stroke="#666666" points="737.9,-206 613.9,-206 613.9,-176 737.9,-176 737.9,-206"/>
<text text-anchor="start" x="621.9" y="-194" font-family="Helvetica,sans-Serif" font-size="10.00">test/unit_tests/test</text>
<text text-anchor="middle" x="675.9" y="-183" font-family="Helvetica,sans-Serif" font-size="10.00">_LayoutInvariants.cpp</text>
</a>
</g>
</g>
<!-- Node5&#45;&gt;Node24 -->
<g id="edge34" class="edge">
<title>Node5&#45;&gt;Node24</title>
<path fill="none" stroke="#63b8ff" d="M1126.97,-246.35C1042.93,-239.93 882.42,-226.2 746.9,-206 744.04,-205.57 741.12,-205.11 738.18,-204.62"/>
<polygon fill="#63b8ff" stroke="#63b8ff" points="1126.84,-249.85 1137.08,-247.11 1127.37,-242.87 1126.84,-249.85"/>
</g>
<!-- Node25 -->
<g id="node25" class="node">
<title>Node25</title>
<g id="a_node25"><a xlink:href="test__TreeUndo_8cpp.html" target="_top" xlink:title="Regression tests for the worksheet&#39;s cell&#45;tree undo/redo (the TreeUndo_* subsystem of Worksheet).">
<polygon fill="white" stroke="#666666" points="863.9,-206 755.9,-206 755.9,-176 863.9,-176 863.9,-206"/>
<text text-anchor="start" x="763.9" y="-194" font-family="Helvetica,sans-Serif" font-size="10.00">test/unit_tests/test</text>
<text text-anchor="middle" x="809.9" y="-183" font-family="Helvetica,sans-Serif" font-size="10.00">_TreeUndo.cpp</text>
</a>
</g>
</g>
<!-- Node5&#45;&gt;Node25 -->
<g id="edge35" class="edge">
<title>Node5&#45;&gt;Node25</title>
<path fill="none" stroke="#63b8ff" d="M1127.04,-243.6C1064.24,-235.8 961.11,-222.07 872.9,-206 870.03,-205.48 867.1,-204.92 864.14,-204.33"/>
<polygon fill="#63b8ff" stroke="#63b8ff" points="1126.79,-247.1 1137.14,-244.85 1127.65,-240.15 1126.79,-247.1"/>
</g>
<!-- Node26 -->
<g id="node26" class="node">
<title>Node26</title>
<g id="a_node26"><a xlink:href="test__WXMRoundtrip_8cpp.html" target="_top" xlink:title="Regression tests for images surviving the .wxm serialization round&#45;trip.">
<polygon fill="white" stroke="#666666" points="997.4,-206 882.4,-206 882.4,-176 997.4,-176 997.4,-206"/>
<text text-anchor="start" x="890.4" y="-194" font-family="Helvetica,sans-Serif" font-size="10.00">test/unit_tests/test</text>
<text text-anchor="middle" x="939.9" y="-183" font-family="Helvetica,sans-Serif" font-size="10.00">_WXMRoundtrip.cpp</text>
</a>
</g>
</g>
<!-- Node5&#45;&gt;Node26 -->
<g id="edge36" class="edge">
<title>Node5&#45;&gt;Node26</title>
<path fill="none" stroke="#63b8ff" d="M1139.53,-239.67C1099.58,-230.13 1041.18,-216.18 997.85,-205.84"/>
<polygon fill="#63b8ff" stroke="#63b8ff" points="1138.73,-243.08 1149.27,-241.99 1140.36,-236.27 1138.73,-243.08"/>
</g>
<!-- Node27 -->
<g id="node27" class="node">
<title>Node27</title>
<g id="a_node27"><a xlink:href="test__WXMXRoundtrip_8cpp.html" target="_top" xlink:title="Round&#45;trip tests for the .wxmx content.xml (the MathML&#45;like math format).">
<polygon fill="white" stroke="#666666" points="1137.9,-206 1015.9,-206 1015.9,-176 1137.9,-176 1137.9,-206"/>
<text text-anchor="start" x="1023.9" y="-194" font-family="Helvetica,sans-Serif" font-size="10.00">test/unit_tests/test</text>
<text text-anchor="middle" x="1076.9" y="-183" font-family="Helvetica,sans-Serif" font-size="10.00">_WXMXRoundtrip.cpp</text>
</a>
</g>
</g>
<!-- Node5&#45;&gt;Node27 -->
<g id="edge37" class="edge">
<title>Node5&#45;&gt;Node27</title>
<path fill="none" stroke="#63b8ff" d="M1160.11,-237.07C1143.01,-227.81 1120.32,-215.52 1102.96,-206.11"/>
<polygon fill="#63b8ff" stroke="#63b8ff" points="1158.5,-240.18 1168.96,-241.87 1161.84,-234.03 1158.5,-240.18"/>
</g>
<!-- Node28 -->
<g id="node28" class="node">
<title>Node28</title>
<g id="a_node28"><a xlink:href="test__WorksheetContextMenu_8cpp.html" target="_top" xlink:title="Regression tests for the worksheet&#39;s right&#45;click context menu.">
<polygon fill="white" stroke="#666666" points="1390.4,-206 1231.4,-206 1231.4,-176 1390.4,-176 1390.4,-206"/>
<text text-anchor="start" x="1239.4" y="-194" font-family="Helvetica,sans-Serif" font-size="10.00">test/unit_tests/test</text>
<text text-anchor="middle" x="1310.9" y="-183" font-family="Helvetica,sans-Serif" font-size="10.00">_WorksheetContextMenu.cpp</text>
</a>
</g>
</g>
<!-- Node5&#45;&gt;Node28 -->
<g id="edge38" class="edge">
<title>Node5&#45;&gt;Node28</title>
<path fill="none" stroke="#63b8ff" d="M1212.43,-237.72C1232.48,-228.41 1259.64,-215.8 1280.36,-206.18"/>
<polygon fill="#63b8ff" stroke="#63b8ff" points="1210.82,-234.61 1203.22,-241.99 1213.76,-240.96 1210.82,-234.61"/>
</g>
<!-- Node29 -->
<g id="node29" class="node">
<title>Node29</title>
<g id="a_node29"><a xlink:href="test__WorksheetCursor_8cpp.html" target="_top" xlink:title="Pins the worksheet&#39;s cursor model before it is gathered into a cursor class.">
<polygon fill="white" stroke="#666666" points="1533.4,-206 1408.4,-206 1408.4,-176 1533.4,-176 1533.4,-206"/>
<text text-anchor="start" x="1416.4" y="-194" font-family="Helvetica,sans-Serif" font-size="10.00">test/unit_tests/test</text>
<text text-anchor="middle" x="1470.9" y="-183" font-family="Helvetica,sans-Serif" font-size="10.00">_WorksheetCursor.cpp</text>
</a>
</g>
</g>
<!-- Node5&#45;&gt;Node29 -->
<g id="edge39" class="edge">
<title>Node5&#45;&gt;Node29</title>
<path fill="none" stroke="#63b8ff" d="M1236.39,-239.97C1284.56,-230.12 1356.62,-215.37 1408.14,-204.84"/>
<polygon fill="#63b8ff" stroke="#63b8ff" points="1235.58,-236.56 1226.48,-241.99 1236.98,-243.42 1235.58,-236.56"/>
</g>
<!-- Node30 -->
<g id="node30" class="node">
<title>Node30</title>
<g id="a_node30"><a xlink:href="test__WorksheetEvalQueue_8cpp.html" target="_top" xlink:title="Pins the worksheet&#39;s &quot;add cells to the evaluation queue&quot; behavior before the Add*ToEvaluationQueue fa...">
<polygon fill="white" stroke="#666666" points="1697.9,-206 1551.9,-206 1551.9,-176 1697.9,-176 1697.9,-206"/>
<text text-anchor="start" x="1559.9" y="-194" font-family="Helvetica,sans-Serif" font-size="10.00">test/unit_tests/test</text>
<text text-anchor="middle" x="1624.9" y="-183" font-family="Helvetica,sans-Serif" font-size="10.00">_WorksheetEvalQueue.cpp</text>
</a>
</g>
</g>
<!-- Node5&#45;&gt;Node30 -->
<g id="edge40" class="edge">
<title>Node5&#45;&gt;Node30</title>
<path fill="none" stroke="#63b8ff" d="M1242.53,-244.15C1313.37,-236.16 1437.19,-221.59 1542.9,-206 1545.76,-205.58 1548.67,-205.14 1551.61,-204.68"/>
<polygon fill="#63b8ff" stroke="#63b8ff" points="1242.02,-240.69 1232.48,-245.28 1242.8,-247.64 1242.02,-240.69"/>
</g>
<!-- Node31 -->
<g id="node31" class="node">
<title>Node31</title>
<g id="a_node31"><a xlink:href="test__WorksheetExport_8cpp.html" target="_top" xlink:title="Safety net for the export/serialization cluster of Worksheet.">
<polygon fill="white" stroke="#666666" points="1841.4,-206 1716.4,-206 1716.4,-176 1841.4,-176 1841.4,-206"/>
<text text-anchor="start" x="1724.4" y="-194" font-family="Helvetica,sans-Serif" font-size="10.00">test/unit_tests/test</text>
<text text-anchor="middle" x="1778.9" y="-183" font-family="Helvetica,sans-Serif" font-size="10.00">_WorksheetExport.cpp</text>
</a>
</g>
</g>
<!-- Node5&#45;&gt;Node31 -->
<g id="edge41" class="edge">
<title>Node5&#45;&gt;Node31</title>
<path fill="none" stroke="#63b8ff" d="M1242.72,-247.6C1339.25,-242.3 1539.15,-229.39 1706.9,-206 1709.92,-205.58 1713.02,-205.11 1716.14,-204.61"/>
<polygon fill="#63b8ff" stroke="#63b8ff" points="1242.39,-244.11 1232.59,-248.15 1242.77,-251.1 1242.39,-244.11"/>
</g>
<!-- Node32 -->
<g id="node32" class="node">
<title>Node32</title>
<g id="a_node32"><a xlink:href="test__WorksheetFind_8cpp.html" target="_top" xlink:title="Pins the worksheet&#39;s find/replace behavior before the search engine is extracted into WorksheetSearch...">
<polygon fill="white" stroke="#666666" points="1973.9,-206 1859.9,-206 1859.9,-176 1973.9,-176 1973.9,-206"/>
<text text-anchor="start" x="1867.9" y="-194" font-family="Helvetica,sans-Serif" font-size="10.00">test/unit_tests/test</text>
<text text-anchor="middle" x="1916.9" y="-183" font-family="Helvetica,sans-Serif" font-size="10.00">_WorksheetFind.cpp</text>
</a>
</g>
</g>
<!-- Node5&#45;&gt;Node32 -->
<g id="edge42" class="edge">
<title>Node5&#45;&gt;Node32</title>
<path fill="none" stroke="#63b8ff" d="M1242.86,-249.4C1358.84,-246.58 1627.5,-237 1850.9,-206 1853.8,-205.6 1856.76,-205.14 1859.75,-204.64"/>
<polygon fill="#63b8ff" stroke="#63b8ff" points="1242.7,-245.9 1232.78,-249.63 1242.86,-252.9 1242.7,-245.9"/>
</g>
<!-- Node9 -->
<g id="node9" class="node">
<title>Node9</title>
<g id="a_node9"><a xlink:href="main_8cpp.html" target="_top" xlink:title="The file that defines the starting point of the program.">
<polygon fill="white" stroke="#666666" points="2016.4,-19 1937.4,-19 1937.4,0 2016.4,0 2016.4,-19"/>
<text text-anchor="middle" x="1976.9" y="-7" font-family="Helvetica,sans-Serif" font-size="10.00">src/main.cpp</text>
</a>
</g>
</g>
<!-- Node8&#45;&gt;Node9 -->
<g id="edge8" class="edge">
<title>Node8&#45;&gt;Node9</title>
<path fill="none" stroke="#63b8ff" d="M1926.94,-48.88C1939.35,-39.34 1955.14,-27.21 1965.61,-19.17"/>
<polygon fill="#63b8ff" stroke="#63b8ff" points="1924.78,-46.12 1918.98,-54.98 1929.05,-51.67 1924.78,-46.12"/>
</g>
<!-- Node10 -->
<g id="node10" class="node">
<title>Node10</title>
<g id="a_node10"><a xlink:href="wxMaxima_8cpp.html" target="_top" xlink:title="This file defines the contents of the class wxMaxima that contains most of the program&#39;s logic.">
<polygon fill="white" stroke="#666666" points="2279.9,-19 2171.9,-19 2171.9,0 2279.9,0 2279.9,-19"/>
<text text-anchor="middle" x="2225.9" y="-7" font-family="Helvetica,sans-Serif" font-size="10.00">src/wxMaxima.cpp</text>
</a>
</g>
</g>
<!-- Node8&#45;&gt;Node10 -->
<g id="edge9" class="edge">
<title>Node8&#45;&gt;Node10</title>
<path fill="none" stroke="#63b8ff" d="M1969.04,-53.31C2028.75,-43.36 2118.6,-28.38 2174.67,-19.04"/>
<polygon fill="#63b8ff" stroke="#63b8ff" points="1968.28,-49.89 1958.99,-54.98 1969.43,-56.79 1968.28,-49.89"/>
</g>
<!-- Node11&#45;&gt;Node9 -->
<g id="edge11" class="edge">
<title>Node11&#45;&gt;Node9</title>
<path fill="none" stroke="#63b8ff" d="M1794.6,-52.69C1837.51,-42.76 1900.26,-28.24 1939.82,-19.08"/>
<polygon fill="#63b8ff" stroke="#63b8ff" points="1793.64,-49.32 1784.69,-54.98 1795.22,-56.14 1793.64,-49.32"/>
</g>
<!-- Node11&#45;&gt;Node10 -->
<g id="edge12" class="edge">
<title>Node11&#45;&gt;Node10</title>
<path fill="none" stroke="#63b8ff" d="M1822.74,-54.91C1954.48,-40.11 2096.07,-24.62 2171.65,-16.39"/>
<polygon fill="#63b8ff" stroke="#63b8ff" points="1822.02,-51.47 1812.47,-56.07 1822.8,-58.43 1822.02,-51.47"/>
</g>
<!-- Node13&#45;&gt;Node6 -->
<g id="edge16" class="edge">
<title>Node13&#45;&gt;Node6</title>
<path fill="none" stroke="#63b8ff" d="M2371.6,-179.89C2323.01,-172 2258.62,-159.14 2203.9,-140 2152.58,-122.06 2096.46,-89.71 2070.94,-74.22"/>
<polygon fill="#63b8ff" stroke="#63b8ff" points="2371.3,-183.38 2381.72,-181.49 2372.4,-176.47 2371.3,-183.38"/>
</g>
<!-- Node14 -->
<g id="node14" class="node">
<title>Node14</title>
<g id="a_node14"><a xlink:href="AutocompletePopup_8cpp.html" target="_top" xlink:title="This file defines the class AutocompletePopup.">
<polygon fill="white" stroke="#666666" points="2364.9,-134.5 2212.9,-134.5 2212.9,-115.5 2364.9,-115.5 2364.9,-134.5"/>
<text text-anchor="middle" x="2288.9" y="-122.5" font-family="Helvetica,sans-Serif" font-size="10.00">src/AutocompletePopup.cpp</text>
</a>
</g>
</g>
<!-- Node13&#45;&gt;Node14 -->
<g id="edge15" class="edge">
<title>Node13&#45;&gt;Node14</title>
<path fill="none" stroke="#63b8ff" d="M2415.26,-177.51C2384.23,-164.86 2337.06,-145.63 2309.99,-134.6"/>
<polygon fill="#63b8ff" stroke="#63b8ff" points="2414.14,-180.83 2424.72,-181.37 2416.78,-174.35 2414.14,-180.83"/>
</g>
<!-- Node15 -->
<g id="node15" class="node">
<title>Node15</title>
<g id="a_node15"><a xlink:href="EditorCell_8cpp.html" target="_top" xlink:title="This file defines the class EditorCell.">
<polygon fill="white" stroke="#666666" points="2611.4,-74 2484.4,-74 2484.4,-55 2611.4,-55 2611.4,-74"/>
<text text-anchor="middle" x="2547.9" y="-62" font-family="Helvetica,sans-Serif" font-size="10.00">src/cells/EditorCell.cpp</text>
</a>
</g>
</g>
<!-- Node13&#45;&gt;Node15 -->
<g id="edge17" class="edge">
<title>Node13&#45;&gt;Node15</title>
<path fill="none" stroke="#63b8ff" d="M2466.48,-175.4C2478.59,-166.15 2493.68,-153.44 2504.9,-140 2522.7,-118.68 2537.33,-89.01 2544,-74.38"/>
<polygon fill="#63b8ff" stroke="#63b8ff" points="2464.23,-172.71 2458.28,-181.48 2468.4,-178.33 2464.23,-172.71"/>
</g>
<!-- Node16 -->
<g id="node16" class="node">
<title>Node16</title>
<g id="a_node16"><a xlink:href="main_8h.html" target="_top" xlink:title="This file declares the class wxMaxima that contains most of the program&#39;s logic.">
<polygon fill="white" stroke="#666666" points="2465.9,-74 2397.9,-74 2397.9,-55 2465.9,-55 2465.9,-74"/>
<text text-anchor="middle" x="2431.9" y="-62" font-family="Helvetica,sans-Serif" font-size="10.00">src/main.h</text>
</a>
</g>
</g>
<!-- Node13&#45;&gt;Node16 -->
<g id="edge18" class="edge">
<title>Node13&#45;&gt;Node16</title>
<path fill="none" stroke="#63b8ff" d="M2464.66,-174.74C2474.18,-165.76 2484.79,-153.52 2489.9,-140 2494.6,-127.53 2495.8,-121.96 2489.9,-110 2481.76,-93.5 2464.23,-81.41 2450.56,-74.03"/>
<polygon fill="#63b8ff" stroke="#63b8ff" points="2462.22,-172.23 2457.06,-181.48 2466.87,-177.47 2462.22,-172.23"/>
</g>
<!-- Node18 -->
<g id="node18" class="node">
<title>Node18</title>
<g id="a_node18"><a xlink:href="GreekSidebar_8cpp.html" target="_top" xlink:title="This file defines the class GreekSidebar.">
<polygon fill="white" stroke="#666666" points="2738.9,-134.5 2574.9,-134.5 2574.9,-115.5 2738.9,-115.5 2738.9,-134.5"/>
<text text-anchor="middle" x="2656.9" y="-122.5" font-family="Helvetica,sans-Serif" font-size="10.00">src/sidebars/GreekSidebar.cpp</text>
</a>
</g>
</g>
<!-- Node13&#45;&gt;Node18 -->
<g id="edge22" class="edge">
<title>Node13&#45;&gt;Node18</title>
<path fill="none" stroke="#63b8ff" d="M2484.13,-178.4C2525.74,-165.78 2591.31,-145.89 2628.56,-134.6"/>
<polygon fill="#63b8ff" stroke="#63b8ff" points="2482.91,-175.12 2474.35,-181.37 2484.94,-181.82 2482.91,-175.12"/>
</g>
<!-- Node19 -->
<g id="node19" class="node">
<title>Node19</title>
<g id="a_node19"><a xlink:href="wxMaxima_8h.html" target="_top" xlink:title="This file declares the class wxMaxima that contains most of the program&#39;s logic.">
<polygon fill="white" stroke="#666666" points="2480.4,-134.5 2383.4,-134.5 2383.4,-115.5 2480.4,-115.5 2480.4,-134.5"/>
<text text-anchor="middle" x="2431.9" y="-122.5" font-family="Helvetica,sans-Serif" font-size="10.00">src/wxMaxima.h</text>
</a>
</g>
</g>
<!-- Node13&#45;&gt;Node19 -->
<g id="edge23" class="edge">
<title>Node13&#45;&gt;Node19</title>
<path fill="none" stroke="#63b8ff" d="M2441.84,-171.45C2439.21,-159.43 2435.9,-144.32 2433.85,-134.91"/>
<polygon fill="#63b8ff" stroke="#63b8ff" points="2438.45,-172.35 2444.01,-181.37 2445.29,-170.85 2438.45,-172.35"/>
</g>
<!-- Node20 -->
<g id="node20" class="node">
<title>Node20</title>
<g id="a_node20"><a xlink:href="wxMaximaFrame_8cpp.html" target="_top" xlink:title="This file defines the class wxMaximaFrame.">
<polygon fill="white" stroke="#666666" points="3022.4,-134.5 2883.4,-134.5 2883.4,-115.5 3022.4,-115.5 3022.4,-134.5"/>
<text text-anchor="middle" x="2952.9" y="-122.5" font-family="Helvetica,sans-Serif" font-size="10.00">src/wxMaximaFrame.cpp</text>
</a>
</g>
</g>
<!-- Node13&#45;&gt;Node20 -->
<g id="edge30" class="edge">
<title>Node13&#45;&gt;Node20</title>
<path fill="none" stroke="#63b8ff" d="M2520.36,-182.65C2605.88,-173.9 2750.32,-158.15 2873.9,-140 2884.78,-138.4 2896.48,-136.46 2907.44,-134.53"/>
<polygon fill="#63b8ff" stroke="#63b8ff" points="2519.82,-179.19 2510.22,-183.68 2520.53,-186.15 2519.82,-179.19"/>
</g>
<!-- Node16&#45;&gt;Node9 -->
<g id="edge20" class="edge">
<title>Node16&#45;&gt;Node9</title>
<path fill="none" stroke="#63b8ff" d="M2387.71,-58.35C2299.19,-48.04 2101.34,-25 2016.63,-15.13"/>
<polygon fill="#63b8ff" stroke="#63b8ff" points="2387.36,-61.84 2397.7,-59.52 2388.17,-54.88 2387.36,-61.84"/>
</g>
<!-- Node16&#45;&gt;Node10 -->
<g id="edge21" class="edge">
<title>Node16&#45;&gt;Node10</title>
<path fill="none" stroke="#63b8ff" d="M2388.9,-52.44C2350.34,-42.52 2294.54,-28.16 2259.25,-19.08"/>
<polygon fill="#63b8ff" stroke="#63b8ff" points="2388.24,-55.88 2398.8,-54.98 2389.99,-49.1 2388.24,-55.88"/>
</g>
<!-- Node17 -->
<g id="node17" class="node">
<title>Node17</title>
<g id="a_node17"><a xlink:href="MaximaManual_8cpp.html" target="_top" xlink:title="This file defines the class MaximaManual.">
<polygon fill="white" stroke="#666666" points="2496.9,-19 2366.9,-19 2366.9,0 2496.9,0 2496.9,-19"/>
<text text-anchor="middle" x="2431.9" y="-7" font-family="Helvetica,sans-Serif" font-size="10.00">src/MaximaManual.cpp</text>
</a>
</g>
</g>
<!-- Node16&#45;&gt;Node17 -->
<g id="edge19" class="edge">
<title>Node16&#45;&gt;Node17</title>
<path fill="none" stroke="#63b8ff" d="M2431.9,-44.66C2431.9,-35.93 2431.9,-25.99 2431.9,-19.09"/>
<polygon fill="#63b8ff" stroke="#63b8ff" points="2428.4,-44.75 2431.9,-54.75 2435.4,-44.75 2428.4,-44.75"/>
</g>
<!-- Node19&#45;&gt;Node3 -->
<g id="edge24" class="edge">
<title>Node19&#45;&gt;Node3</title>
<path fill="none" stroke="#63b8ff" d="M2390.63,-112.82C2348.86,-101.51 2285.19,-84.27 2247.34,-74.02"/>
<polygon fill="#63b8ff" stroke="#63b8ff" points="2389.92,-116.26 2400.49,-115.49 2391.75,-109.5 2389.92,-116.26"/>
</g>
<!-- Node19&#45;&gt;Node6 -->
<g id="edge25" class="edge">
<title>Node19&#45;&gt;Node6</title>
<path fill="none" stroke="#63b8ff" d="M2388.77,-113.1C2383.77,-111.98 2378.73,-110.92 2373.9,-110 2361.1,-107.56 2197,-84.82 2110.09,-72.83"/>
<polygon fill="#63b8ff" stroke="#63b8ff" points="2388.36,-116.6 2398.89,-115.45 2389.94,-109.78 2388.36,-116.6"/>
</g>
<!-- Node19&#45;&gt;Node9 -->
<g id="edge27" class="edge">
<title>Node19&#45;&gt;Node9</title>
<path fill="none" stroke="#63b8ff" d="M2407.92,-110.06C2373.35,-89.96 2313.54,-55.22 2312.9,-55 2210,-19.92 2080.63,-12.3 2016.58,-10.77"/>
<polygon fill="#63b8ff" stroke="#63b8ff" points="2406.53,-113.3 2416.93,-115.3 2410.04,-107.24 2406.53,-113.3"/>
</g>
<!-- Node19&#45;&gt;Node10 -->
<g id="edge29" class="edge">
<title>Node19&#45;&gt;Node10</title>
<path fill="none" stroke="#63b8ff" d="M2415.43,-108.08C2398.93,-92.81 2372.27,-69.95 2345.9,-55 2317.48,-38.89 2282.13,-26.61 2257.18,-19.07"/>
<polygon fill="#63b8ff" stroke="#63b8ff" points="2413.39,-110.97 2423.07,-115.28 2418.2,-105.88 2413.39,-110.97"/>
</g>
<!-- Node19&#45;&gt;Node15 -->
<g id="edge26" class="edge">
<title>Node19&#45;&gt;Node15</title>
<path fill="none" stroke="#63b8ff" d="M2458.22,-110.73C2480.43,-99.53 2511.58,-83.82 2530.71,-74.17"/>
<polygon fill="#63b8ff" stroke="#63b8ff" points="2456.37,-107.74 2449.01,-115.37 2459.52,-113.99 2456.37,-107.74"/>
</g>
<!-- Node19&#45;&gt;Node16 -->
<g id="edge28" class="edge">
<title>Node19&#45;&gt;Node16</title>
<path fill="none" stroke="#63b8ff" d="M2431.9,-105.16C2431.9,-94.74 2431.9,-82.3 2431.9,-74.17"/>
<polygon fill="#63b8ff" stroke="#63b8ff" points="2428.4,-105.37 2431.9,-115.37 2435.4,-105.37 2428.4,-105.37"/>
</g>
<!-- Node33&#45;&gt;Node13 -->
<g id="edge45" class="edge">
<title>Node33&#45;&gt;Node13</title>
<path fill="none" stroke="#63b8ff" d="M2430.83,-286.99C2434.78,-262.13 2441.62,-218.96 2444.53,-200.63"/>
<polygon fill="#63b8ff" stroke="#63b8ff" points="2427.36,-286.54 2429.25,-296.97 2434.27,-287.64 2427.36,-286.54"/>
</g>
<!-- Node34 -->
<g id="node34" class="node">
<title>Node34</title>
<g id="a_node34"><a xlink:href="DrawSidebar_8cpp.html" target="_top" xlink:title="This file defines the class StatSidebar.">
<polygon fill="white" stroke="#666666" points="2417.9,-261 2257.9,-261 2257.9,-242 2417.9,-242 2417.9,-261"/>
<text text-anchor="middle" x="2337.9" y="-249" font-family="Helvetica,sans-Serif" font-size="10.00">src/sidebars/DrawSidebar.cpp</text>
</a>
</g>
</g>
<!-- Node33&#45;&gt;Node34 -->
<g id="edge44" class="edge">
<title>Node33&#45;&gt;Node34</title>
<path fill="none" stroke="#63b8ff" d="M2404.46,-291.7C2388.06,-282.04 2366.67,-269.44 2352.62,-261.17"/>
<polygon fill="#63b8ff" stroke="#63b8ff" points="2403.04,-294.93 2413.44,-296.98 2406.6,-288.89 2403.04,-294.93"/>
</g>
<!-- Node35&#45;&gt;Node20 -->
<g id="edge48" class="edge">
<title>Node35&#45;&gt;Node20</title>
<path fill="none" stroke="#63b8ff" d="M2871.57,-293.63C2889.79,-286.88 2909.13,-276.56 2921.9,-261 2953.47,-222.52 2954.25,-158 2953.4,-134.71"/>
<polygon fill="#63b8ff" stroke="#63b8ff" points="2870.24,-290.39 2861.91,-296.93 2872.5,-297.01 2870.24,-290.39"/>
</g>
<!-- Node36 -->
<g id="node36" class="node">
<title>Node36</title>
<g id="a_node36"><a xlink:href="FormatSidebar_8cpp.html" target="_top" xlink:title="This file defines the class FormatSidebar.">
<polygon fill="white" stroke="#666666" points="2912.4,-261 2743.4,-261 2743.4,-242 2912.4,-242 2912.4,-261"/>
<text text-anchor="middle" x="2827.9" y="-249" font-family="Helvetica,sans-Serif" font-size="10.00">src/sidebars/FormatSidebar.cpp</text>
</a>
</g>
</g>
<!-- Node35&#45;&gt;Node36 -->
<g id="edge47" class="edge">
<title>Node35&#45;&gt;Node36</title>
<path fill="none" stroke="#63b8ff" d="M2824.67,-286.66C2825.5,-277.93 2826.44,-267.99 2827.09,-261.09"/>
<polygon fill="#63b8ff" stroke="#63b8ff" points="2821.18,-286.46 2823.72,-296.75 2828.15,-287.12 2821.18,-286.46"/>
</g>
<!-- Node37&#45;&gt;Node18 -->
<g id="edge50" class="edge">
<title>Node37&#45;&gt;Node18</title>
<path fill="none" stroke="#63b8ff" d="M2745.81,-176.36C2723.57,-163.76 2691.18,-145.42 2672.26,-134.7"/>
<polygon fill="#63b8ff" stroke="#63b8ff" points="2744.23,-179.49 2754.66,-181.37 2747.68,-173.39 2744.23,-179.49"/>
</g>
<!-- Node37&#45;&gt;Node20 -->
<g id="edge51" class="edge">
<title>Node37&#45;&gt;Node20</title>
<path fill="none" stroke="#63b8ff" d="M2804.21,-178C2840.35,-165.36 2896.35,-145.78 2928.32,-134.6"/>
<polygon fill="#63b8ff" stroke="#63b8ff" points="2802.86,-174.76 2794.58,-181.37 2805.17,-181.37 2802.86,-174.76"/>
</g>
<!-- Node38 -->
<g id="node38" class="node">
<title>Node38</title>
<g id="a_node38"><a xlink:href="test__GreekSidebar_8cpp.html" target="_top" xlink:title="Regression test for the Greek sidebar&#39;s line wrapping.">
<polygon fill="white" stroke="#666666" points="2864.9,-140 2756.9,-140 2756.9,-110 2864.9,-110 2864.9,-140"/>
<text text-anchor="start" x="2764.9" y="-128" font-family="Helvetica,sans-Serif" font-size="10.00">test/unit_tests/test</text>
<text text-anchor="middle" x="2810.9" y="-117" font-family="Helvetica,sans-Serif" font-size="10.00">_GreekSidebar.cpp</text>
</a>
</g>
</g>
<!-- Node37&#45;&gt;Node38 -->
<g id="edge52" class="edge">
<title>Node37&#45;&gt;Node38</title>
<path fill="none" stroke="#63b8ff" d="M2780.84,-172.92C2787.35,-162.76 2795.52,-150.01 2801.7,-140.36"/>
<polygon fill="#63b8ff" stroke="#63b8ff" points="2777.87,-171.06 2775.43,-181.37 2783.77,-174.84 2777.87,-171.06"/>
</g>
<!-- Node40&#45;&gt;Node20 -->
<g id="edge56" class="edge">
<title>Node40&#45;&gt;Node20</title>
<path fill="none" stroke="#63b8ff" d="M3239.96,-296.25C3284.68,-289.4 3333.22,-278.23 3346.9,-261 3352.15,-254.39 3351.96,-248.76 3346.9,-242 3306.48,-187.97 3110.5,-150.43 3011.05,-134.53"/>
<polygon fill="#63b8ff" stroke="#63b8ff" points="3239.28,-292.81 3229.9,-297.72 3240.3,-299.73 3239.28,-292.81"/>
</g>
<!-- Node41 -->
<g id="node41" class="node">
<title>Node41</title>
<g id="a_node41"><a xlink:href="MathSidebar_8cpp.html" target="_top" xlink:title="This file defines the class SymbolsSidebar.">
<polygon fill="white" stroke="#666666" points="3337.4,-261 3178.4,-261 3178.4,-242 3337.4,-242 3337.4,-261"/>
<text text-anchor="middle" x="3257.9" y="-249" font-family="Helvetica,sans-Serif" font-size="10.00">src/sidebars/MathSidebar.cpp</text>
</a>
</g>
</g>
<!-- Node40&#45;&gt;Node41 -->
<g id="edge55" class="edge">
<title>Node40&#45;&gt;Node41</title>
<path fill="none" stroke="#63b8ff" d="M3181.17,-292.37C3199.91,-282.63 3224.92,-269.64 3241.21,-261.17"/>
<polygon fill="#63b8ff" stroke="#63b8ff" points="3179.55,-289.27 3172.29,-296.98 3182.77,-295.48 3179.55,-289.27"/>
</g>
<!-- Node42&#45;&gt;Node20 -->
<g id="edge59" class="edge">
<title>Node42&#45;&gt;Node20</title>
<path fill="none" stroke="#63b8ff" d="M2987.88,-287.03C2979.57,-248.76 2960.74,-162.11 2954.76,-134.57"/>
<polygon fill="#63b8ff" stroke="#63b8ff" points="2984.47,-287.81 2990.02,-296.84 2991.31,-286.33 2984.47,-287.81"/>
</g>
<!-- Node43 -->
<g id="node43" class="node">
<title>Node43</title>
<g id="a_node43"><a xlink:href="StatSidebar_8cpp.html" target="_top" xlink:title="This file defines the class StatSidebar.">
<polygon fill="white" stroke="#666666" points="3159.9,-261 3005.9,-261 3005.9,-242 3159.9,-242 3159.9,-261"/>
<text text-anchor="middle" x="3082.9" y="-249" font-family="Helvetica,sans-Serif" font-size="10.00">src/sidebars/StatSidebar.cpp</text>
</a>
</g>
</g>
<!-- Node42&#45;&gt;Node43 -->
<g id="edge58" class="edge">
<title>Node42&#45;&gt;Node43</title>
<path fill="none" stroke="#63b8ff" d="M3015.6,-291.7C3032.18,-282.04 3053.81,-269.44 3068.01,-261.17"/>
<polygon fill="#63b8ff" stroke="#63b8ff" points="3013.4,-288.93 3006.52,-296.98 3016.92,-294.98 3013.4,-288.93"/>
</g>
<!-- Node44&#45;&gt;Node13 -->
<g id="edge62" class="edge">
<title>Node44&#45;&gt;Node13</title>
<path fill="none" stroke="#63b8ff" d="M2565.13,-293.43C2545.4,-285.99 2521.54,-275.16 2502.9,-261 2479.88,-243.52 2460.22,-215.02 2451.19,-200.74"/>
<polygon fill="#63b8ff" stroke="#63b8ff" points="2564.14,-296.79 2574.74,-296.9 2566.52,-290.21 2564.14,-296.79"/>
</g>
<!-- Node45 -->
<g id="node45" class="node">
<title>Node45</title>
<g id="a_node45"><a xlink:href="SymbolsSidebar_8cpp.html" target="_top" xlink:title="This file defines the class SymbolsSidebar.">
<polygon fill="white" stroke="#666666" points="2687.9,-261 2511.9,-261 2511.9,-242 2687.9,-242 2687.9,-261"/>
<text text-anchor="middle" x="2599.9" y="-249" font-family="Helvetica,sans-Serif" font-size="10.00">src/sidebars/SymbolsSidebar.cpp</text>
</a>
</g>
</g>
<!-- Node44&#45;&gt;Node45 -->
<g id="edge61" class="edge">
<title>Node44&#45;&gt;Node45</title>
<path fill="none" stroke="#63b8ff" d="M2601.83,-286.66C2601.34,-277.93 2600.77,-267.99 2600.38,-261.09"/>
<polygon fill="#63b8ff" stroke="#63b8ff" points="2598.34,-286.96 2602.4,-296.75 2605.33,-286.57 2598.34,-286.96"/>
</g>
<!-- Node48&#45;&gt;Node5 -->
<g id="edge66" class="edge">
<title>Node48&#45;&gt;Node5</title>
<path fill="none" stroke="#63b8ff" d="M1997.84,-297.3C1996.52,-297.19 1995.2,-297.1 1993.9,-297 1705.26,-275.74 1358.01,-259.91 1232.81,-254.51"/>
<polygon fill="#63b8ff" stroke="#63b8ff" points="1997.87,-300.81 2008.11,-298.11 1998.42,-293.83 1997.87,-300.81"/>
</g>
</g>
</svg>
