<?xml version="1.0" encoding="UTF-8" standalone="no"?>
<!DOCTYPE svg PUBLIC "-//W3C//DTD SVG 1.1//EN"
 "http://www.w3.org/Graphics/SVG/1.1/DTD/svg11.dtd">
<!-- Generated by graphviz version 2.43.0 (0)
 -->
<!-- Title: src/EventIDs.h Pages: 1 -->
<svg width="1821pt" height="364pt"
 viewBox="0.00 0.00 1820.50 364.00" xmlns="http://www.w3.org/2000/svg" xmlns:xlink="http://www.w3.org/1999/xlink">
<g id="graph0" class="graph" transform="scale(1 1) rotate(0) translate(4 360)">
<title>src/EventIDs.h</title>
<polygon fill="white" stroke="transparent" points="-4,4 -4,-360 1816.5,-360 1816.5,4 -4,4"/>
<!-- Node1 -->
<g id="node1" class="node">
<title>Node1</title>
<g id="a_node1"><a xlink:title="This file declares the class EventIDs that contains unique IDs for many events wxMaxima needs.">
<polygon fill="#bfbfbf" stroke="black" points="906,-336.5 906,-355.5 992,-355.5 992,-336.5 906,-336.5"/>
<text text-anchor="middle" x="949" y="-343.5" font-family="Helvetica,sans-Serif" font-size="10.00">src/EventIDs.h</text>
</a>
</g>
</g>
<!-- Node2 -->
<g id="node2" class="node">
<title>Node2</title>
<g id="a_node2"><a xlink:href="EventIDs_8cpp.html" target="_top" xlink:title="This file defines the class EventIDs that contains unique IDs for many events wxMaxima needs.">
<polygon fill="white" stroke="black" points="0,-280.5 0,-299.5 98,-299.5 98,-280.5 0,-280.5"/>
<text text-anchor="middle" x="49" y="-287.5" font-family="Helvetica,sans-Serif" font-size="10.00">src/EventIDs.cpp</text>
</a>
</g>
</g>
<!-- Node1&#45;&gt;Node2 -->
<g id="edge1" class="edge">
<title>Node1&#45;&gt;Node2</title>
<path fill="none" stroke="midnightblue" d="M895.61,-344.01C762.26,-341.13 404,-330.9 107,-300 104.06,-299.69 101.04,-299.34 98,-298.96"/>
<polygon fill="midnightblue" stroke="midnightblue" points="895.87,-347.51 905.94,-344.23 896.02,-340.52 895.87,-347.51"/>
</g>
<!-- Node3 -->
<g id="node3" class="node">
<title>Node3</title>
<g id="a_node3"><a xlink:href="DrawSidebar_8h.html" target="_top" xlink:title="This file declares the class StatSidebar, that provides some statistics buttons.">
<polygon fill="white" stroke="black" points="874.5,-280.5 874.5,-299.5 1023.5,-299.5 1023.5,-280.5 874.5,-280.5"/>
<text text-anchor="middle" x="949" y="-287.5" font-family="Helvetica,sans-Serif" font-size="10.00">src/sidebars/DrawSidebar.h</text>
</a>
</g>
</g>
<!-- Node1&#45;&gt;Node3 -->
<g id="edge2" class="edge">
<title>Node1&#45;&gt;Node3</title>
<path fill="none" stroke="midnightblue" d="M949,-325.8C949,-316.91 949,-306.78 949,-299.75"/>
<polygon fill="midnightblue" stroke="midnightblue" points="945.5,-326.08 949,-336.08 952.5,-326.08 945.5,-326.08"/>
</g>
<!-- Node5 -->
<g id="node5" class="node">
<title>Node5</title>
<g id="a_node5"><a xlink:href="wxMaximaFrame_8h.html" target="_top" xlink:title="This file declares the class wxMaximaFrame.">
<polygon fill="white" stroke="black" points="874,-168.5 874,-187.5 1002,-187.5 1002,-168.5 874,-168.5"/>
<text text-anchor="middle" x="938" y="-175.5" font-family="Helvetica,sans-Serif" font-size="10.00">src/wxMaximaFrame.h</text>
</a>
</g>
</g>
<!-- Node1&#45;&gt;Node5 -->
<g id="edge47" class="edge">
<title>Node1&#45;&gt;Node5</title>
<path fill="none" stroke="midnightblue" d="M974.54,-331.64C1023.38,-305.96 1125.62,-251.58 1130,-244 1134.44,-236.3 1135.52,-230.97 1130,-224 1114.16,-204.01 1051.71,-192.05 1002.28,-185.54"/>
<polygon fill="midnightblue" stroke="midnightblue" points="972.75,-328.62 965.53,-336.37 976.01,-334.82 972.75,-328.62"/>
</g>
<!-- Node16 -->
<g id="node16" class="node">
<title>Node16</title>
<g id="a_node16"><a xlink:href="FormatSidebar_8h.html" target="_top" xlink:title="This file declares the class StatSidebar, that provides some statistics buttons.">
<polygon fill="white" stroke="black" points="282,-280.5 282,-299.5 440,-299.5 440,-280.5 282,-280.5"/>
<text text-anchor="middle" x="361" y="-287.5" font-family="Helvetica,sans-Serif" font-size="10.00">src/sidebars/FormatSidebar.h</text>
</a>
</g>
</g>
<!-- Node1&#45;&gt;Node16 -->
<g id="edge20" class="edge">
<title>Node1&#45;&gt;Node16</title>
<path fill="none" stroke="midnightblue" d="M895.5,-340.09C791.52,-330.54 561.68,-309.43 440.06,-298.26"/>
<polygon fill="midnightblue" stroke="midnightblue" points="895.48,-343.6 905.76,-341.03 896.12,-336.63 895.48,-343.6"/>
</g>
<!-- Node18 -->
<g id="node18" class="node">
<title>Node18</title>
<g id="a_node18"><a xlink:href="GreekSidebar_8h.html" target="_top" xlink:title="This file declares the class wxMaximaFrame.">
<polygon fill="white" stroke="black" points="653,-168.5 653,-187.5 805,-187.5 805,-168.5 653,-168.5"/>
<text text-anchor="middle" x="729" y="-175.5" font-family="Helvetica,sans-Serif" font-size="10.00">src/sidebars/GreekSidebar.h</text>
</a>
</g>
</g>
<!-- Node1&#45;&gt;Node18 -->
<g id="edge23" class="edge">
<title>Node1&#45;&gt;Node18</title>
<path fill="none" stroke="midnightblue" d="M895.62,-343.81C825.94,-340.99 709.67,-331.56 683,-300 653.41,-264.98 700.19,-208.94 720.41,-187.61"/>
<polygon fill="midnightblue" stroke="midnightblue" points="895.85,-347.32 905.97,-344.19 896.11,-340.32 895.85,-347.32"/>
</g>
<!-- Node19 -->
<g id="node19" class="node">
<title>Node19</title>
<g id="a_node19"><a xlink:href="MathSidebar_8h.html" target="_top" xlink:title="This file declares the class wxMaximaFrame.">
<polygon fill="white" stroke="black" points="116,-280.5 116,-299.5 264,-299.5 264,-280.5 116,-280.5"/>
<text text-anchor="middle" x="190" y="-287.5" font-family="Helvetica,sans-Serif" font-size="10.00">src/sidebars/MathSidebar.h</text>
</a>
</g>
</g>
<!-- Node1&#45;&gt;Node19 -->
<g id="edge26" class="edge">
<title>Node1&#45;&gt;Node19</title>
<path fill="none" stroke="midnightblue" d="M895.63,-342.2C781.34,-336.05 504.51,-320.25 273,-300 270.11,-299.75 267.17,-299.48 264.2,-299.2"/>
<polygon fill="midnightblue" stroke="midnightblue" points="895.68,-345.71 905.85,-342.75 896.05,-338.72 895.68,-345.71"/>
</g>
<!-- Node21 -->
<g id="node21" class="node">
<title>Node21</title>
<g id="a_node21"><a xlink:href="StatSidebar_8h.html" target="_top" xlink:title="This file declares the class StatSidebar, that provides some statistics buttons.">
<polygon fill="white" stroke="black" points="491.5,-280.5 491.5,-299.5 634.5,-299.5 634.5,-280.5 491.5,-280.5"/>
<text text-anchor="middle" x="563" y="-287.5" font-family="Helvetica,sans-Serif" font-size="10.00">src/sidebars/StatSidebar.h</text>
</a>
</g>
</g>
<!-- Node1&#45;&gt;Node21 -->
<g id="edge29" class="edge">
<title>Node1&#45;&gt;Node21</title>
<path fill="none" stroke="midnightblue" d="M895.75,-337.55C824.59,-327.6 698.76,-309.99 623.91,-299.52"/>
<polygon fill="midnightblue" stroke="midnightblue" points="895.46,-341.04 905.84,-338.96 896.43,-334.11 895.46,-341.04"/>
</g>
<!-- Node23 -->
<g id="node23" class="node">
<title>Node23</title>
<g id="a_node23"><a xlink:href="SymbolsSidebar_8h.html" target="_top" xlink:title="This file declares the class wxMaximaFrame.">
<polygon fill="white" stroke="black" points="691.5,-280.5 691.5,-299.5 856.5,-299.5 856.5,-280.5 691.5,-280.5"/>
<text text-anchor="middle" x="774" y="-287.5" font-family="Helvetica,sans-Serif" font-size="10.00">src/sidebars/SymbolsSidebar.h</text>
</a>
</g>
</g>
<!-- Node1&#45;&gt;Node23 -->
<g id="edge32" class="edge">
<title>Node1&#45;&gt;Node23</title>
<path fill="none" stroke="midnightblue" d="M911.53,-333.44C878.53,-323.26 831.24,-308.66 801.6,-299.52"/>
<polygon fill="midnightblue" stroke="midnightblue" points="910.68,-336.84 921.27,-336.44 912.75,-330.15 910.68,-336.84"/>
</g>
<!-- Node25 -->
<g id="node25" class="node">
<title>Node25</title>
<g id="a_node25"><a xlink:href="TableOfContents_8cpp.html" target="_top" xlink:title="This file defines the class Structure.">
<polygon fill="white" stroke="black" points="1079.5,-280.5 1079.5,-299.5 1258.5,-299.5 1258.5,-280.5 1079.5,-280.5"/>
<text text-anchor="middle" x="1169" y="-287.5" font-family="Helvetica,sans-Serif" font-size="10.00">src/sidebars/TableOfContents.cpp</text>
</a>
</g>
</g>
<!-- Node1&#45;&gt;Node25 -->
<g id="edge35" class="edge">
<title>Node1&#45;&gt;Node25</title>
<path fill="none" stroke="midnightblue" d="M993.72,-334.02C1035.28,-323.82 1096.31,-308.84 1134.3,-299.52"/>
<polygon fill="midnightblue" stroke="midnightblue" points="992.74,-330.66 983.86,-336.44 994.41,-337.46 992.74,-330.66"/>
</g>
<!-- Node26 -->
<g id="node26" class="node">
<title>Node26</title>
<g id="a_node26"><a xlink:href="History_8cpp.html" target="_top" xlink:title="This file defines the class History.">
<polygon fill="white" stroke="black" points="1277,-280.5 1277,-299.5 1409,-299.5 1409,-280.5 1277,-280.5"/>
<text text-anchor="middle" x="1343" y="-287.5" font-family="Helvetica,sans-Serif" font-size="10.00">src/sidebars/History.cpp</text>
</a>
</g>
</g>
<!-- Node1&#45;&gt;Node26 -->
<g id="edge36" class="edge">
<title>Node1&#45;&gt;Node26</title>
<path fill="none" stroke="midnightblue" d="M1002.57,-337.66C1075.09,-327.72 1204.22,-310.02 1280.9,-299.51"/>
<polygon fill="midnightblue" stroke="midnightblue" points="1001.72,-334.24 992.29,-339.07 1002.67,-341.18 1001.72,-334.24"/>
</g>
<!-- Node27 -->
<g id="node27" class="node">
<title>Node27</title>
<g id="a_node27"><a xlink:href="UnicodeSidebar_8cpp.html" target="_top" xlink:title="This file defines the class UnicodeSidebar.">
<polygon fill="white" stroke="black" points="1427,-280.5 1427,-299.5 1601,-299.5 1601,-280.5 1427,-280.5"/>
<text text-anchor="middle" x="1514" y="-287.5" font-family="Helvetica,sans-Serif" font-size="10.00">src/sidebars/UnicodeSidebar.cpp</text>
</a>
</g>
</g>
<!-- Node1&#45;&gt;Node27 -->
<g id="edge37" class="edge">
<title>Node1&#45;&gt;Node27</title>
<path fill="none" stroke="midnightblue" d="M1002.64,-339.87C1100.45,-330.53 1308.59,-310.63 1426.95,-299.32"/>
<polygon fill="midnightblue" stroke="midnightblue" points="1002.02,-336.42 992.4,-340.85 1002.68,-343.38 1002.02,-336.42"/>
</g>
<!-- Node28 -->
<g id="node28" class="node">
<title>Node28</title>
<g id="a_node28"><a xlink:href="VariablesPane_8h.html" target="_top" xlink:title="The file that contains the &quot;variables&quot; sidepane.">
<polygon fill="white" stroke="black" points="1657.5,-280.5 1657.5,-299.5 1812.5,-299.5 1812.5,-280.5 1657.5,-280.5"/>
<text text-anchor="middle" x="1735" y="-287.5" font-family="Helvetica,sans-Serif" font-size="10.00">src/sidebars/VariablesPane.h</text>
</a>
</g>
</g>
<!-- Node1&#45;&gt;Node28 -->
<g id="edge38" class="edge">
<title>Node1&#45;&gt;Node28</title>
<path fill="none" stroke="midnightblue" d="M1002.14,-342.15C1118.41,-335.78 1404.11,-319.42 1643,-300 1647.64,-299.62 1652.41,-299.22 1657.22,-298.79"/>
<polygon fill="midnightblue" stroke="midnightblue" points="1001.87,-338.66 992.08,-342.7 1002.26,-345.65 1001.87,-338.66"/>
</g>
<!-- Node29 -->
<g id="node29" class="node">
<title>Node29</title>
<g id="a_node29"><a xlink:href="Worksheet_8h.html" target="_top" xlink:title="This file defines the class Worksheet.">
<polygon fill="white" stroke="black" points="1380.5,-224.5 1380.5,-243.5 1475.5,-243.5 1475.5,-224.5 1380.5,-224.5"/>
<text text-anchor="middle" x="1428" y="-231.5" font-family="Helvetica,sans-Serif" font-size="10.00">src/Worksheet.h</text>
</a>
</g>
</g>
<!-- Node1&#45;&gt;Node29 -->
<g id="edge46" class="edge">
<title>Node1&#45;&gt;Node29</title>
<path fill="none" stroke="midnightblue" d="M1002.49,-345.44C1152.49,-346.13 1568.88,-344.02 1610,-300 1651.63,-255.44 1542.41,-241.39 1475.56,-236.99"/>
<polygon fill="midnightblue" stroke="midnightblue" points="1002.18,-341.94 992.16,-345.39 1002.14,-348.94 1002.18,-341.94"/>
</g>
<!-- Node4 -->
<g id="node4" class="node">
<title>Node4</title>
<g id="a_node4"><a xlink:href="DrawSidebar_8cpp.html" target="_top" xlink:title="This file defines the class StatSidebar.">
<polygon fill="white" stroke="black" points="961,-224.5 961,-243.5 1121,-243.5 1121,-224.5 961,-224.5"/>
<text text-anchor="middle" x="1041" y="-231.5" font-family="Helvetica,sans-Serif" font-size="10.00">src/sidebars/DrawSidebar.cpp</text>
</a>
</g>
</g>
<!-- Node3&#45;&gt;Node4 -->
<g id="edge3" class="edge">
<title>Node3&#45;&gt;Node4</title>
<path fill="none" stroke="midnightblue" d="M972.55,-275.18C989.48,-265.24 1011.78,-252.15 1026.26,-243.65"/>
<polygon fill="midnightblue" stroke="midnightblue" points="970.63,-272.24 963.78,-280.32 974.18,-278.28 970.63,-272.24"/>
</g>
<!-- Node3&#45;&gt;Node5 -->
<g id="edge4" class="edge">
<title>Node3&#45;&gt;Node5</title>
<path fill="none" stroke="midnightblue" d="M947.13,-270.35C944.73,-246.25 940.63,-205.31 938.86,-187.59"/>
<polygon fill="midnightblue" stroke="midnightblue" points="943.66,-270.77 948.14,-280.37 950.62,-270.07 943.66,-270.77"/>
</g>
<!-- Node6 -->
<g id="node6" class="node">
<title>Node6</title>
<g id="a_node6"><a xlink:href="AutocompletePopup_8cpp.html" target="_top" xlink:title="This file defines the class AutocompletePopup.">
<polygon fill="white" stroke="black" points="1082,-112.5 1082,-131.5 1234,-131.5 1234,-112.5 1082,-112.5"/>
<text text-anchor="middle" x="1158" y="-119.5" font-family="Helvetica,sans-Serif" font-size="10.00">src/AutocompletePopup.cpp</text>
</a>
</g>
</g>
<!-- Node5&#45;&gt;Node6 -->
<g id="edge5" class="edge">
<title>Node5&#45;&gt;Node6</title>
<path fill="none" stroke="midnightblue" d="M982.72,-166.02C1024.28,-155.82 1085.31,-140.84 1123.3,-131.52"/>
<polygon fill="midnightblue" stroke="midnightblue" points="981.74,-162.66 972.86,-168.44 983.41,-169.46 981.74,-162.66"/>
</g>
<!-- Node7 -->
<g id="node7" class="node">
<title>Node7</title>
<g id="a_node7"><a xlink:href="EditorCell_8cpp.html" target="_top" xlink:title="This file defines the class EditorCell.">
<polygon fill="white" stroke="black" points="951.5,-56.5 951.5,-75.5 1078.5,-75.5 1078.5,-56.5 951.5,-56.5"/>
<text text-anchor="middle" x="1015" y="-63.5" font-family="Helvetica,sans-Serif" font-size="10.00">src/cells/EditorCell.cpp</text>
</a>
</g>
</g>
<!-- Node5&#45;&gt;Node7 -->
<g id="edge6" class="edge">
<title>Node5&#45;&gt;Node7</title>
<path fill="none" stroke="midnightblue" d="M940.72,-158.09C943.4,-144.37 948.51,-125.85 958,-112 968.76,-96.29 986.66,-83.46 999.53,-75.57"/>
<polygon fill="midnightblue" stroke="midnightblue" points="937.21,-157.85 939,-168.29 944.11,-159.01 937.21,-157.85"/>
</g>
<!-- Node8 -->
<g id="node8" class="node">
<title>Node8</title>
<g id="a_node8"><a xlink:href="main_8h.html" target="_top" xlink:title="This file declares the class wxMaxima that contains most of the program&#39;s logic.">
<polygon fill="white" stroke="black" points="865,-56.5 865,-75.5 933,-75.5 933,-56.5 865,-56.5"/>
<text text-anchor="middle" x="899" y="-63.5" font-family="Helvetica,sans-Serif" font-size="10.00">src/main.h</text>
</a>
</g>
</g>
<!-- Node5&#45;&gt;Node8 -->
<g id="edge7" class="edge">
<title>Node5&#45;&gt;Node8</title>
<path fill="none" stroke="midnightblue" d="M931.5,-158.67C922.98,-134.62 908.36,-93.39 902.05,-75.59"/>
<polygon fill="midnightblue" stroke="midnightblue" points="928.3,-160.11 934.94,-168.37 934.9,-157.77 928.3,-160.11"/>
</g>
<!-- Node12 -->
<g id="node12" class="node">
<title>Node12</title>
<g id="a_node12"><a xlink:href="GreekSidebar_8cpp.html" target="_top" xlink:title="This file defines the class GreekSidebar.">
<polygon fill="white" stroke="black" points="708,-112.5 708,-131.5 872,-131.5 872,-112.5 708,-112.5"/>
<text text-anchor="middle" x="790" y="-119.5" font-family="Helvetica,sans-Serif" font-size="10.00">src/sidebars/GreekSidebar.cpp</text>
</a>
</g>
</g>
<!-- Node5&#45;&gt;Node12 -->
<g id="edge11" class="edge">
<title>Node5&#45;&gt;Node12</title>
<path fill="none" stroke="midnightblue" d="M904.85,-164.91C877.03,-154.75 837.98,-140.51 813.34,-131.52"/>
<polygon fill="midnightblue" stroke="midnightblue" points="903.96,-168.3 914.55,-168.44 906.35,-161.73 903.96,-168.3"/>
</g>
<!-- Node13 -->
<g id="node13" class="node">
<title>Node13</title>
<g id="a_node13"><a xlink:href="Worksheet_8cpp.html" target="_top" xlink:title="This file defines the class Worksheet.">
<polygon fill="white" stroke="black" points="1173,-56.5 1173,-75.5 1279,-75.5 1279,-56.5 1173,-56.5"/>
<text text-anchor="middle" x="1226" y="-63.5" font-family="Helvetica,sans-Serif" font-size="10.00">src/Worksheet.cpp</text>
</a>
</g>
</g>
<!-- Node5&#45;&gt;Node13 -->
<g id="edge12" class="edge">
<title>Node5&#45;&gt;Node13</title>
<path fill="none" stroke="midnightblue" d="M1012.22,-176.74C1092.75,-174.68 1213.78,-165.85 1243,-132 1257.02,-115.75 1242.11,-89.28 1232.61,-75.68"/>
<polygon fill="midnightblue" stroke="midnightblue" points="1012.04,-173.24 1002.12,-176.96 1012.2,-180.24 1012.04,-173.24"/>
</g>
<!-- Node14 -->
<g id="node14" class="node">
<title>Node14</title>
<g id="a_node14"><a xlink:href="wxMaxima_8h.html" target="_top" xlink:title="This file declares the class wxMaxima that contains most of the program&#39;s logic.">
<polygon fill="white" stroke="black" points="966.5,-112.5 966.5,-131.5 1063.5,-131.5 1063.5,-112.5 966.5,-112.5"/>
<text text-anchor="middle" x="1015" y="-119.5" font-family="Helvetica,sans-Serif" font-size="10.00">src/wxMaxima.h</text>
</a>
</g>
</g>
<!-- Node5&#45;&gt;Node14 -->
<g id="edge13" class="edge">
<title>Node5&#45;&gt;Node14</title>
<path fill="none" stroke="midnightblue" d="M958.9,-162.34C972.91,-152.52 990.88,-139.91 1002.66,-131.65"/>
<polygon fill="midnightblue" stroke="midnightblue" points="956.55,-159.72 950.37,-168.32 960.57,-165.45 956.55,-159.72"/>
</g>
<!-- Node15 -->
<g id="node15" class="node">
<title>Node15</title>
<g id="a_node15"><a xlink:href="wxMaximaFrame_8cpp.html" target="_top" xlink:title="This file defines the class wxMaximaFrame.">
<polygon fill="white" stroke="black" points="550.5,-112.5 550.5,-131.5 689.5,-131.5 689.5,-112.5 550.5,-112.5"/>
<text text-anchor="middle" x="620" y="-119.5" font-family="Helvetica,sans-Serif" font-size="10.00">src/wxMaximaFrame.cpp</text>
</a>
</g>
</g>
<!-- Node5&#45;&gt;Node15 -->
<g id="edge19" class="edge">
<title>Node5&#45;&gt;Node15</title>
<path fill="none" stroke="midnightblue" d="M877.51,-166.73C817.41,-156.52 726.34,-141.06 670.15,-131.52"/>
<polygon fill="midnightblue" stroke="midnightblue" points="877.17,-170.22 887.61,-168.44 878.34,-163.32 877.17,-170.22"/>
</g>
<!-- Node9 -->
<g id="node9" class="node">
<title>Node9</title>
<g id="a_node9"><a xlink:href="MaximaManual_8cpp.html" target="_top" xlink:title="This file defines the class MaximaManual.">
<polygon fill="white" stroke="black" points="834,-0.5 834,-19.5 964,-19.5 964,-0.5 834,-0.5"/>
<text text-anchor="middle" x="899" y="-7.5" font-family="Helvetica,sans-Serif" font-size="10.00">src/MaximaManual.cpp</text>
</a>
</g>
</g>
<!-- Node8&#45;&gt;Node9 -->
<g id="edge8" class="edge">
<title>Node8&#45;&gt;Node9</title>
<path fill="none" stroke="midnightblue" d="M899,-45.8C899,-36.91 899,-26.78 899,-19.75"/>
<polygon fill="midnightblue" stroke="midnightblue" points="895.5,-46.08 899,-56.08 902.5,-46.08 895.5,-46.08"/>
</g>
<!-- Node10 -->
<g id="node10" class="node">
<title>Node10</title>
<g id="a_node10"><a xlink:href="main_8cpp.html" target="_top" xlink:title="The file that defines the starting point of the program.">
<polygon fill="white" stroke="black" points="1030.5,-0.5 1030.5,-19.5 1109.5,-19.5 1109.5,-0.5 1030.5,-0.5"/>
<text text-anchor="middle" x="1070" y="-7.5" font-family="Helvetica,sans-Serif" font-size="10.00">src/main.cpp</text>
</a>
</g>
</g>
<!-- Node8&#45;&gt;Node10 -->
<g id="edge9" class="edge">
<title>Node8&#45;&gt;Node10</title>
<path fill="none" stroke="midnightblue" d="M936.04,-53.3C968.26,-43.13 1014.19,-28.62 1043.03,-19.52"/>
<polygon fill="midnightblue" stroke="midnightblue" points="934.58,-50.09 926.1,-56.44 936.69,-56.77 934.58,-50.09"/>
</g>
<!-- Node11 -->
<g id="node11" class="node">
<title>Node11</title>
<g id="a_node11"><a xlink:href="wxMaxima_8cpp.html" target="_top" xlink:title="This file defines the contents of the class wxMaxima that contains most of the program&#39;s logic.">
<polygon fill="white" stroke="black" points="1128,-0.5 1128,-19.5 1236,-19.5 1236,-0.5 1128,-0.5"/>
<text text-anchor="middle" x="1182" y="-7.5" font-family="Helvetica,sans-Serif" font-size="10.00">src/wxMaxima.cpp</text>
</a>
</g>
</g>
<!-- Node8&#45;&gt;Node11 -->
<g id="edge10" class="edge">
<title>Node8&#45;&gt;Node11</title>
<path fill="none" stroke="midnightblue" d="M942.7,-56.06C942.8,-56.04 942.9,-56.02 943,-56 1009.7,-42.9 1087.04,-28.48 1135.25,-19.58"/>
<polygon fill="midnightblue" stroke="midnightblue" points="942.22,-52.59 933.1,-57.97 943.59,-59.45 942.22,-52.59"/>
</g>
<!-- Node14&#45;&gt;Node7 -->
<g id="edge14" class="edge">
<title>Node14&#45;&gt;Node7</title>
<path fill="none" stroke="midnightblue" d="M1015,-101.8C1015,-92.91 1015,-82.78 1015,-75.75"/>
<polygon fill="midnightblue" stroke="midnightblue" points="1011.5,-102.08 1015,-112.08 1018.5,-102.08 1011.5,-102.08"/>
</g>
<!-- Node14&#45;&gt;Node8 -->
<g id="edge15" class="edge">
<title>Node14&#45;&gt;Node8</title>
<path fill="none" stroke="midnightblue" d="M987.28,-108.1C965.61,-98.01 936.1,-84.27 917.29,-75.52"/>
<polygon fill="midnightblue" stroke="midnightblue" points="986.08,-111.4 996.62,-112.44 989.03,-105.05 986.08,-111.4"/>
</g>
<!-- Node14&#45;&gt;Node10 -->
<g id="edge16" class="edge">
<title>Node14&#45;&gt;Node10</title>
<path fill="none" stroke="midnightblue" d="M1050.45,-108.2C1064.78,-101.06 1079.84,-90.61 1088,-76 1098.27,-57.6 1085.2,-32.94 1076.53,-19.92"/>
<polygon fill="midnightblue" stroke="midnightblue" points="1048.85,-105.08 1041.21,-112.41 1051.76,-111.44 1048.85,-105.08"/>
</g>
<!-- Node14&#45;&gt;Node11 -->
<g id="edge18" class="edge">
<title>Node14&#45;&gt;Node11</title>
<path fill="none" stroke="midnightblue" d="M1043.76,-108.23C1061.39,-99.93 1084.11,-88.39 1103,-76 1130.03,-58.27 1158.55,-32.9 1172.79,-19.71"/>
<polygon fill="midnightblue" stroke="midnightblue" points="1042.16,-105.11 1034.55,-112.49 1045.09,-111.47 1042.16,-105.11"/>
</g>
<!-- Node14&#45;&gt;Node13 -->
<g id="edge17" class="edge">
<title>Node14&#45;&gt;Node13</title>
<path fill="none" stroke="midnightblue" d="M1058.14,-109.96C1097.99,-99.76 1156.36,-84.82 1192.72,-75.52"/>
<polygon fill="midnightblue" stroke="midnightblue" points="1057.25,-106.57 1048.43,-112.44 1058.99,-113.35 1057.25,-106.57"/>
</g>
<!-- Node16&#45;&gt;Node15 -->
<g id="edge22" class="edge">
<title>Node16&#45;&gt;Node15</title>
<path fill="none" stroke="midnightblue" d="M303.88,-277.93C265.63,-267.87 225.71,-250.49 246,-224 282.96,-175.74 454.17,-145.28 551.63,-131.54"/>
<polygon fill="midnightblue" stroke="midnightblue" points="303.5,-281.44 314.05,-280.46 305.18,-274.65 303.5,-281.44"/>
</g>
<!-- Node17 -->
<g id="node17" class="node">
<title>Node17</title>
<g id="a_node17"><a xlink:href="FormatSidebar_8cpp.html" target="_top" xlink:title="This file defines the class FormatSidebar.">
<polygon fill="white" stroke="black" points="255.5,-224.5 255.5,-243.5 424.5,-243.5 424.5,-224.5 255.5,-224.5"/>
<text text-anchor="middle" x="340" y="-231.5" font-family="Helvetica,sans-Serif" font-size="10.00">src/sidebars/FormatSidebar.cpp</text>
</a>
</g>
</g>
<!-- Node16&#45;&gt;Node17 -->
<g id="edge21" class="edge">
<title>Node16&#45;&gt;Node17</title>
<path fill="none" stroke="midnightblue" d="M353.88,-270.69C350.34,-261.59 346.23,-251.01 343.4,-243.75"/>
<polygon fill="midnightblue" stroke="midnightblue" points="350.65,-272.03 357.53,-280.08 357.17,-269.49 350.65,-272.03"/>
</g>
<!-- Node18&#45;&gt;Node12 -->
<g id="edge24" class="edge">
<title>Node18&#45;&gt;Node12</title>
<path fill="none" stroke="midnightblue" d="M746.47,-161.54C757.34,-151.91 770.94,-139.87 780.02,-131.83"/>
<polygon fill="midnightblue" stroke="midnightblue" points="743.97,-159.07 738.8,-168.32 748.61,-164.32 743.97,-159.07"/>
</g>
<!-- Node18&#45;&gt;Node15 -->
<g id="edge25" class="edge">
<title>Node18&#45;&gt;Node15</title>
<path fill="none" stroke="midnightblue" d="M702.48,-163.86C682.27,-153.85 655.01,-140.35 637.47,-131.65"/>
<polygon fill="midnightblue" stroke="midnightblue" points="700.97,-167.02 711.49,-168.32 704.08,-160.75 700.97,-167.02"/>
</g>
<!-- Node19&#45;&gt;Node15 -->
<g id="edge28" class="edge">
<title>Node19&#45;&gt;Node15</title>
<path fill="none" stroke="midnightblue" d="M199.75,-271.42C216.34,-243.52 252.99,-189.99 301,-168 344.16,-148.23 470.34,-134.89 550.47,-128.15"/>
<polygon fill="midnightblue" stroke="midnightblue" points="196.51,-270.02 194.56,-280.44 202.58,-273.52 196.51,-270.02"/>
</g>
<!-- Node20 -->
<g id="node20" class="node">
<title>Node20</title>
<g id="a_node20"><a xlink:href="MathSidebar_8cpp.html" target="_top" xlink:title="This file defines the class SymbolsSidebar.">
<polygon fill="white" stroke="black" points="3.5,-224.5 3.5,-243.5 162.5,-243.5 162.5,-224.5 3.5,-224.5"/>
<text text-anchor="middle" x="83" y="-231.5" font-family="Helvetica,sans-Serif" font-size="10.00">src/sidebars/MathSidebar.cpp</text>
</a>
</g>
</g>
<!-- Node19&#45;&gt;Node20 -->
<g id="edge27" class="edge">
<title>Node19&#45;&gt;Node20</title>
<path fill="none" stroke="midnightblue" d="M163.7,-275.73C143.89,-265.73 117.29,-252.31 100.15,-243.65"/>
<polygon fill="midnightblue" stroke="midnightblue" points="162.3,-278.94 172.81,-280.32 165.46,-272.69 162.3,-278.94"/>
</g>
<!-- Node21&#45;&gt;Node15 -->
<g id="edge31" class="edge">
<title>Node21&#45;&gt;Node15</title>
<path fill="none" stroke="midnightblue" d="M582.31,-273.91C591.04,-265.99 600.59,-255.53 606,-244 624.15,-205.33 622.38,-152.35 620.82,-131.72"/>
<polygon fill="midnightblue" stroke="midnightblue" points="580,-271.28 574.67,-280.44 584.55,-276.6 580,-271.28"/>
</g>
<!-- Node22 -->
<g id="node22" class="node">
<title>Node22</title>
<g id="a_node22"><a xlink:href="StatSidebar_8cpp.html" target="_top" xlink:title="This file defines the class StatSidebar.">
<polygon fill="white" stroke="black" points="443,-224.5 443,-243.5 597,-243.5 597,-224.5 443,-224.5"/>
<text text-anchor="middle" x="520" y="-231.5" font-family="Helvetica,sans-Serif" font-size="10.00">src/sidebars/StatSidebar.cpp</text>
</a>
</g>
</g>
<!-- Node21&#45;&gt;Node22 -->
<g id="edge30" class="edge">
<title>Node21&#45;&gt;Node22</title>
<path fill="none" stroke="midnightblue" d="M549.58,-272.14C542.09,-262.74 533.06,-251.4 526.97,-243.75"/>
<polygon fill="midnightblue" stroke="midnightblue" points="546.93,-274.44 555.9,-280.08 552.41,-270.08 546.93,-274.44"/>
</g>
<!-- Node23&#45;&gt;Node5 -->
<g id="edge34" class="edge">
<title>Node23&#45;&gt;Node5</title>
<path fill="none" stroke="midnightblue" d="M749.07,-275.1C728.74,-261.98 705.55,-241.74 720,-224 739.13,-200.52 816.57,-188.92 873.73,-183.46"/>
<polygon fill="midnightblue" stroke="midnightblue" points="747.42,-278.19 757.78,-280.42 751.07,-272.22 747.42,-278.19"/>
</g>
<!-- Node24 -->
<g id="node24" class="node">
<title>Node24</title>
<g id="a_node24"><a xlink:href="SymbolsSidebar_8cpp.html" target="_top" xlink:title="This file defines the class SymbolsSidebar.">
<polygon fill="white" stroke="black" points="729,-224.5 729,-243.5 905,-243.5 905,-224.5 729,-224.5"/>
<text text-anchor="middle" x="817" y="-231.5" font-family="Helvetica,sans-Serif" font-size="10.00">src/sidebars/SymbolsSidebar.cpp</text>
</a>
</g>
</g>
<!-- Node23&#45;&gt;Node24 -->
<g id="edge33" class="edge">
<title>Node23&#45;&gt;Node24</title>
<path fill="none" stroke="midnightblue" d="M787.42,-272.14C794.91,-262.74 803.94,-251.4 810.03,-243.75"/>
<polygon fill="midnightblue" stroke="midnightblue" points="784.59,-270.08 781.1,-280.08 790.07,-274.44 784.59,-270.08"/>
</g>
<!-- Node28&#45;&gt;Node29 -->
<g id="edge39" class="edge">
<title>Node28&#45;&gt;Node29</title>
<path fill="none" stroke="midnightblue" d="M1676.19,-278.66C1617.9,-268.4 1529.72,-252.89 1475.66,-243.38"/>
<polygon fill="midnightblue" stroke="midnightblue" points="1675.9,-282.16 1686.35,-280.44 1677.11,-275.26 1675.9,-282.16"/>
</g>
<!-- Node29&#45;&gt;Node5 -->
<g id="edge45" class="edge">
<title>Node29&#45;&gt;Node5</title>
<path fill="none" stroke="midnightblue" d="M1370.13,-226.62C1277.92,-216.46 1098.27,-196.66 1002.22,-186.08"/>
<polygon fill="midnightblue" stroke="midnightblue" points="1369.8,-230.11 1380.12,-227.72 1370.57,-223.15 1369.8,-230.11"/>
</g>
<!-- Node29&#45;&gt;Node13 -->
<g id="edge44" class="edge">
<title>Node29&#45;&gt;Node13</title>
<path fill="none" stroke="midnightblue" d="M1409.5,-217.8C1368.07,-183.75 1268.92,-102.27 1236.47,-75.61"/>
<polygon fill="midnightblue" stroke="midnightblue" points="1407.48,-220.66 1417.42,-224.31 1411.92,-215.26 1407.48,-220.66"/>
</g>
<!-- Node30 -->
<g id="node30" class="node">
<title>Node30</title>
<g id="a_node30"><a xlink:href="ConfigDialogue_8h.html" target="_top" xlink:title="The configuration dialog.">
<polygon fill="white" stroke="black" points="1297.5,-56.5 1297.5,-75.5 1452.5,-75.5 1452.5,-56.5 1297.5,-56.5"/>
<text text-anchor="middle" x="1375" y="-63.5" font-family="Helvetica,sans-Serif" font-size="10.00">src/dialogs/ConfigDialogue.h</text>
</a>
</g>
</g>
<!-- Node29&#45;&gt;Node30 -->
<g id="edge40" class="edge">
<title>Node29&#45;&gt;Node30</title>
<path fill="none" stroke="midnightblue" d="M1413.1,-216.65C1406.55,-208.57 1399.36,-198.36 1395,-188 1378.32,-148.36 1375.51,-95.94 1375.07,-75.59"/>
<polygon fill="midnightblue" stroke="midnightblue" points="1410.64,-219.15 1419.8,-224.47 1415.96,-214.6 1410.64,-219.15"/>
</g>
<!-- Node31 -->
<g id="node31" class="node">
<title>Node31</title>
<g id="a_node31"><a xlink:href="Printout_8cpp.html" target="_top" xlink:title="This file defines the class MathPrintOut.">
<polygon fill="white" stroke="black" points="1403.5,-168.5 1403.5,-187.5 1558.5,-187.5 1558.5,-168.5 1403.5,-168.5"/>
<text text-anchor="middle" x="1481" y="-175.5" font-family="Helvetica,sans-Serif" font-size="10.00">src/graphical_io/Printout.cpp</text>
</a>
</g>
</g>
<!-- Node29&#45;&gt;Node31 -->
<g id="edge43" class="edge">
<title>Node29&#45;&gt;Node31</title>
<path fill="none" stroke="midnightblue" d="M1443.98,-216.72C1453.32,-207.2 1464.75,-195.56 1472.41,-187.75"/>
<polygon fill="midnightblue" stroke="midnightblue" points="1441.26,-214.49 1436.75,-224.08 1446.25,-219.4 1441.26,-214.49"/>
</g>
<!-- Node30&#45;&gt;Node10 -->
<g id="edge41" class="edge">
<title>Node30&#45;&gt;Node10</title>
<path fill="none" stroke="midnightblue" d="M1315.88,-54.74C1263.97,-45.7 1186.45,-32.12 1119,-20 1115.94,-19.45 1112.76,-18.88 1109.58,-18.3"/>
<polygon fill="midnightblue" stroke="midnightblue" points="1315.45,-58.22 1325.9,-56.48 1316.65,-51.32 1315.45,-58.22"/>
</g>
<!-- Node30&#45;&gt;Node11 -->
<g id="edge42" class="edge">
<title>Node30&#45;&gt;Node11</title>
<path fill="none" stroke="midnightblue" d="M1334.61,-53.7C1298.18,-43.51 1245.41,-28.74 1212.44,-19.52"/>
<polygon fill="midnightblue" stroke="midnightblue" points="1333.85,-57.12 1344.42,-56.44 1335.73,-50.38 1333.85,-57.12"/>
</g>
</g>
</svg>
