<?xml version="1.0" encoding="UTF-8" standalone="no"?>
<!DOCTYPE svg PUBLIC "-//W3C//DTD SVG 1.1//EN"
 "http://www.w3.org/Graphics/SVG/1.1/DTD/svg11.dtd">
<!-- Generated by graphviz version 2.43.0 (0)
 -->
<!-- Title: src/EventIDs.h Pages: 1 -->
<svg width="2750pt" height="368pt"
 viewBox="0.00 0.00 2749.50 368.00" xmlns="http://www.w3.org/2000/svg" xmlns:xlink="http://www.w3.org/1999/xlink">
<g id="graph0" class="graph" transform="scale(1 1) rotate(0) translate(4 364)">
<title>src/EventIDs.h</title>
<!-- Node1 -->
<g id="node1" class="node">
<title>Node1</title>
<g id="a_node1"><a xlink:title="This file declares the class EventIDs that contains unique IDs for many events wxMaxima needs.">
<polygon fill="#999999" stroke="#666666" points="1730.5,-360 1644.5,-360 1644.5,-341 1730.5,-341 1730.5,-360"/>
<text text-anchor="middle" x="1687.5" y="-348" font-family="Helvetica,sans-Serif" font-size="10.00">src/EventIDs.h</text>
</a>
</g>
</g>
<!-- Node2 -->
<g id="node2" class="node">
<title>Node2</title>
<g id="a_node2"><a xlink:href="EventIDs_8cpp.html" target="_top" xlink:title="This file defines the class EventIDs that contains unique IDs for many events wxMaxima needs.">
<polygon fill="white" stroke="#666666" points="961.5,-305 863.5,-305 863.5,-286 961.5,-286 961.5,-305"/>
<text text-anchor="middle" x="912.5" y="-293" font-family="Helvetica,sans-Serif" font-size="10.00">src/EventIDs.cpp</text>
</a>
</g>
</g>
<!-- Node1&#45;&gt;Node2 -->
<g id="edge1" class="edge">
<title>Node1&#45;&gt;Node2</title>
<path fill="none" stroke="#63b8ff" d="M1634.23,-347.48C1515.66,-342.69 1221.07,-329.21 975.5,-305 971,-304.56 966.32,-304.04 961.64,-303.48"/>
<polygon fill="#63b8ff" stroke="#63b8ff" points="1634.34,-350.98 1644.48,-347.89 1634.62,-343.99 1634.34,-350.98"/>
</g>
<!-- Node3 -->
<g id="node3" class="node">
<title>Node3</title>
<g id="a_node3"><a xlink:href="Worksheet_8h.html" target="_top" xlink:title="This file defines the class Worksheet.">
<polygon fill="white" stroke="#666666" points="1037,-250 942,-250 942,-231 1037,-231 1037,-250"/>
<text text-anchor="middle" x="989.5" y="-238" font-family="Helvetica,sans-Serif" font-size="10.00">src/Worksheet.h</text>
</a>
</g>
</g>
<!-- Node1&#45;&gt;Node3 -->
<g id="edge2" class="edge">
<title>Node1&#45;&gt;Node3</title>
<path fill="none" stroke="#63b8ff" d="M1634.15,-349.45C1482.54,-348.83 1056.99,-343.63 1008.5,-305 991.76,-291.66 989.32,-264.18 989.23,-250.16"/>
<polygon fill="#63b8ff" stroke="#63b8ff" points="1634.14,-352.95 1644.16,-349.48 1634.17,-345.95 1634.14,-352.95"/>
</g>
<!-- Node12 -->
<g id="node12" class="node">
<title>Node12</title>
<g id="a_node12"><a xlink:href="wxMaximaFrame_8h.html" target="_top" xlink:title="This file declares the class wxMaximaFrame.">
<polygon fill="white" stroke="#666666" points="1501.5,-189.5 1373.5,-189.5 1373.5,-170.5 1501.5,-170.5 1501.5,-189.5"/>
<text text-anchor="middle" x="1437.5" y="-177.5" font-family="Helvetica,sans-Serif" font-size="10.00">src/wxMaximaFrame.h</text>
</a>
</g>
</g>
<!-- Node1&#45;&gt;Node12 -->
<g id="edge58" class="edge">
<title>Node1&#45;&gt;Node12</title>
<path fill="none" stroke="#63b8ff" d="M1633.91,-349.71C1560.46,-348.52 1425.23,-341.01 1316.5,-305 1269.82,-289.54 1245.16,-292.54 1220.5,-250 1216.27,-242.69 1215.24,-237.61 1220.5,-231 1225.95,-224.15 1332.46,-201.93 1394.2,-189.55"/>
<polygon fill="#63b8ff" stroke="#63b8ff" points="1634.25,-353.21 1644.29,-349.84 1634.34,-346.21 1634.25,-353.21"/>
</g>
<!-- Node26 -->
<g id="node26" class="node">
<title>Node26</title>
<g id="a_node26"><a xlink:href="DrawSidebar_8h.html" target="_top" xlink:title="This file declares the class StatSidebar, that provides some statistics buttons.">
<polygon fill="white" stroke="#666666" points="1474,-305 1325,-305 1325,-286 1474,-286 1474,-305"/>
<text text-anchor="middle" x="1399.5" y="-293" font-family="Helvetica,sans-Serif" font-size="10.00">src/sidebars/DrawSidebar.h</text>
</a>
</g>
</g>
<!-- Node1&#45;&gt;Node26 -->
<g id="edge35" class="edge">
<title>Node1&#45;&gt;Node26</title>
<path fill="none" stroke="#63b8ff" d="M1634.3,-339.71C1580.21,-329.75 1497.23,-314.49 1445.78,-305.02"/>
<polygon fill="#63b8ff" stroke="#63b8ff" points="1633.92,-343.2 1644.38,-341.57 1635.18,-336.31 1633.92,-343.2"/>
</g>
<!-- Node28 -->
<g id="node28" class="node">
<title>Node28</title>
<g id="a_node28"><a xlink:href="FormatSidebar_8h.html" target="_top" xlink:title="This file declares the class FormatSidebar, that provides buttons for inserting wxMaxima cells.">
<polygon fill="white" stroke="#666666" points="1873.5,-305 1715.5,-305 1715.5,-286 1873.5,-286 1873.5,-305"/>
<text text-anchor="middle" x="1794.5" y="-293" font-family="Helvetica,sans-Serif" font-size="10.00">src/sidebars/FormatSidebar.h</text>
</a>
</g>
</g>
<!-- Node1&#45;&gt;Node28 -->
<g id="edge38" class="edge">
<title>Node1&#45;&gt;Node28</title>
<path fill="none" stroke="#63b8ff" d="M1713.74,-336.5C1733.43,-326.75 1759.82,-313.68 1777,-305.17"/>
<polygon fill="#63b8ff" stroke="#63b8ff" points="1712.1,-333.41 1704.69,-340.98 1715.21,-339.68 1712.1,-333.41"/>
</g>
<!-- Node30 -->
<g id="node30" class="node">
<title>Node30</title>
<g id="a_node30"><a xlink:href="GreekSidebar_8h.html" target="_top" xlink:title="This file declares the class wxMaximaFrame.">
<polygon fill="white" stroke="#666666" points="1697.5,-189.5 1545.5,-189.5 1545.5,-170.5 1697.5,-170.5 1697.5,-189.5"/>
<text text-anchor="middle" x="1621.5" y="-177.5" font-family="Helvetica,sans-Serif" font-size="10.00">src/sidebars/GreekSidebar.h</text>
</a>
</g>
</g>
<!-- Node1&#45;&gt;Node30 -->
<g id="edge41" class="edge">
<title>Node1&#45;&gt;Node30</title>
<path fill="none" stroke="#63b8ff" d="M1687.82,-330.66C1687.51,-306.39 1684.45,-263.46 1668.5,-231 1660.09,-213.89 1643.84,-198.64 1632.82,-189.6"/>
<polygon fill="#63b8ff" stroke="#63b8ff" points="1684.32,-330.94 1687.8,-340.95 1691.32,-330.96 1684.32,-330.94"/>
</g>
<!-- Node31 -->
<g id="node31" class="node">
<title>Node31</title>
<g id="a_node31"><a xlink:href="History_8cpp.html" target="_top" xlink:title="This file defines the class History.">
<polygon fill="white" stroke="#666666" points="2351.5,-305 2219.5,-305 2219.5,-286 2351.5,-286 2351.5,-305"/>
<text text-anchor="middle" x="2285.5" y="-293" font-family="Helvetica,sans-Serif" font-size="10.00">src/sidebars/History.cpp</text>
</a>
</g>
</g>
<!-- Node1&#45;&gt;Node31 -->
<g id="edge44" class="edge">
<title>Node1&#45;&gt;Node31</title>
<path fill="none" stroke="#63b8ff" d="M1740.76,-345.46C1835.38,-338.18 2038.97,-322.01 2210.5,-305 2213.37,-304.72 2216.3,-304.42 2219.26,-304.11"/>
<polygon fill="#63b8ff" stroke="#63b8ff" points="1740.29,-341.99 1730.59,-346.24 1740.83,-348.97 1740.29,-341.99"/>
</g>
<!-- Node32 -->
<g id="node32" class="node">
<title>Node32</title>
<g id="a_node32"><a xlink:href="MathSidebar_8h.html" target="_top" xlink:title="This file declares the class wxMaximaFrame.">
<polygon fill="white" stroke="#666666" points="2039.5,-305 1891.5,-305 1891.5,-286 2039.5,-286 2039.5,-305"/>
<text text-anchor="middle" x="1965.5" y="-293" font-family="Helvetica,sans-Serif" font-size="10.00">src/sidebars/MathSidebar.h</text>
</a>
</g>
</g>
<!-- Node1&#45;&gt;Node32 -->
<g id="edge45" class="edge">
<title>Node1&#45;&gt;Node32</title>
<path fill="none" stroke="#63b8ff" d="M1740.71,-339.35C1792.98,-329.39 1871.81,-314.36 1920.88,-305.01"/>
<polygon fill="#63b8ff" stroke="#63b8ff" points="1739.8,-335.97 1730.63,-341.28 1741.11,-342.84 1739.8,-335.97"/>
</g>
<!-- Node34 -->
<g id="node34" class="node">
<title>Node34</title>
<g id="a_node34"><a xlink:href="StatSidebar_8h.html" target="_top" xlink:title="This file declares the class StatSidebar, that provides some statistics buttons.">
<polygon fill="white" stroke="#666666" points="2201,-305 2058,-305 2058,-286 2201,-286 2201,-305"/>
<text text-anchor="middle" x="2129.5" y="-293" font-family="Helvetica,sans-Serif" font-size="10.00">src/sidebars/StatSidebar.h</text>
</a>
</g>
</g>
<!-- Node1&#45;&gt;Node34 -->
<g id="edge48" class="edge">
<title>Node1&#45;&gt;Node34</title>
<path fill="none" stroke="#63b8ff" d="M1740.95,-343.09C1820.35,-333.57 1969.6,-315.67 2058.22,-305.05"/>
<polygon fill="#63b8ff" stroke="#63b8ff" points="1740.2,-339.66 1730.69,-344.32 1741.03,-346.61 1740.2,-339.66"/>
</g>
<!-- Node36 -->
<g id="node36" class="node">
<title>Node36</title>
<g id="a_node36"><a xlink:href="SymbolsSidebar_8h.html" target="_top" xlink:title="This file declares the class wxMaximaFrame.">
<polygon fill="white" stroke="#666666" points="1657,-305 1492,-305 1492,-286 1657,-286 1657,-305"/>
<text text-anchor="middle" x="1574.5" y="-293" font-family="Helvetica,sans-Serif" font-size="10.00">src/sidebars/SymbolsSidebar.h</text>
</a>
</g>
</g>
<!-- Node1&#45;&gt;Node36 -->
<g id="edge51" class="edge">
<title>Node1&#45;&gt;Node36</title>
<path fill="none" stroke="#63b8ff" d="M1660.07,-336.63C1639.25,-326.87 1611.2,-313.71 1592.99,-305.17"/>
<polygon fill="#63b8ff" stroke="#63b8ff" points="1658.8,-339.91 1669.34,-340.98 1661.78,-333.57 1658.8,-339.91"/>
</g>
<!-- Node38 -->
<g id="node38" class="node">
<title>Node38</title>
<g id="a_node38"><a xlink:href="TableOfContents_8cpp.html" target="_top" xlink:title="This file defines the class Structure.">
<polygon fill="white" stroke="#666666" points="2549,-305 2370,-305 2370,-286 2549,-286 2549,-305"/>
<text text-anchor="middle" x="2459.5" y="-293" font-family="Helvetica,sans-Serif" font-size="10.00">src/sidebars/TableOfContents.cpp</text>
</a>
</g>
</g>
<!-- Node1&#45;&gt;Node38 -->
<g id="edge54" class="edge">
<title>Node1&#45;&gt;Node38</title>
<path fill="none" stroke="#63b8ff" d="M1741.02,-346.32C1855,-339.47 2130.09,-322.51 2360.5,-305 2363.6,-304.76 2366.75,-304.52 2369.93,-304.27"/>
<polygon fill="#63b8ff" stroke="#63b8ff" points="1740.6,-342.84 1730.83,-346.93 1741.02,-349.83 1740.6,-342.84"/>
</g>
<!-- Node39 -->
<g id="node39" class="node">
<title>Node39</title>
<g id="a_node39"><a xlink:href="UnicodeSidebar_8cpp.html" target="_top" xlink:title="This file defines the class UnicodeSidebar.">
<polygon fill="white" stroke="#666666" points="2741.5,-305 2567.5,-305 2567.5,-286 2741.5,-286 2741.5,-305"/>
<text text-anchor="middle" x="2654.5" y="-293" font-family="Helvetica,sans-Serif" font-size="10.00">src/sidebars/UnicodeSidebar.cpp</text>
</a>
</g>
</g>
<!-- Node1&#45;&gt;Node39 -->
<g id="edge55" class="edge">
<title>Node1&#45;&gt;Node39</title>
<path fill="none" stroke="#63b8ff" d="M1740.74,-347.47C1876.92,-342.13 2248.99,-326.6 2558.5,-305 2561.42,-304.8 2564.39,-304.58 2567.39,-304.36"/>
<polygon fill="#63b8ff" stroke="#63b8ff" points="1740.44,-343.98 1730.58,-347.87 1740.71,-350.98 1740.44,-343.98"/>
</g>
<!-- Node40 -->
<g id="node40" class="node">
<title>Node40</title>
<g id="a_node40"><a xlink:href="VariablesPane_8h.html" target="_top" xlink:title="The file that contains the &quot;variables&quot; sidepane.">
<polygon fill="white" stroke="#666666" points="1173,-305 1018,-305 1018,-286 1173,-286 1173,-305"/>
<text text-anchor="middle" x="1095.5" y="-293" font-family="Helvetica,sans-Serif" font-size="10.00">src/sidebars/VariablesPane.h</text>
</a>
</g>
</g>
<!-- Node1&#45;&gt;Node40 -->
<g id="edge56" class="edge">
<title>Node1&#45;&gt;Node40</title>
<path fill="none" stroke="#63b8ff" d="M1634.25,-344.82C1542.86,-336.77 1350.26,-319.76 1187.5,-305 1182.87,-304.58 1178.1,-304.15 1173.3,-303.71"/>
<polygon fill="#63b8ff" stroke="#63b8ff" points="1634.09,-348.32 1644.36,-345.71 1634.7,-341.35 1634.09,-348.32"/>
</g>
<!-- Node4 -->
<g id="node4" class="node">
<title>Node4</title>
<g id="a_node4"><a xlink:href="Worksheet_8cpp.html" target="_top" xlink:title="This file defines the class Worksheet.">
<polygon fill="white" stroke="#666666" points="1202.5,-74 1096.5,-74 1096.5,-55 1202.5,-55 1202.5,-74"/>
<text text-anchor="middle" x="1149.5" y="-62" font-family="Helvetica,sans-Serif" font-size="10.00">src/Worksheet.cpp</text>
</a>
</g>
</g>
<!-- Node3&#45;&gt;Node4 -->
<g id="edge3" class="edge">
<title>Node3&#45;&gt;Node4</title>
<path fill="none" stroke="#63b8ff" d="M1007.29,-224.31C1016.81,-215.94 1028.59,-205.2 1038.5,-195 1080.39,-151.89 1125.64,-95.72 1142.58,-74.31"/>
<polygon fill="#63b8ff" stroke="#63b8ff" points="1004.85,-221.78 999.6,-230.98 1009.44,-227.07 1004.85,-221.78"/>
</g>
<!-- Node5 -->
<g id="node5" class="node">
<title>Node5</title>
<g id="a_node5"><a xlink:href="Cell_8cpp.html" target="_top" xlink:title="Core layout and rendering logic for worksheet cells.">
<polygon fill="white" stroke="#666666" points="1209.5,-189.5 1111.5,-189.5 1111.5,-170.5 1209.5,-170.5 1209.5,-189.5"/>
<text text-anchor="middle" x="1160.5" y="-177.5" font-family="Helvetica,sans-Serif" font-size="10.00">src/cells/Cell.cpp</text>
</a>
</g>
</g>
<!-- Node3&#45;&gt;Node5 -->
<g id="edge4" class="edge">
<title>Node3&#45;&gt;Node5</title>
<path fill="none" stroke="#63b8ff" d="M1024.08,-227.67C1057.15,-216.36 1106.21,-199.57 1135.61,-189.52"/>
<polygon fill="#63b8ff" stroke="#63b8ff" points="1022.69,-224.45 1014.36,-230.99 1024.96,-231.07 1022.69,-224.45"/>
</g>
<!-- Node6 -->
<g id="node6" class="node">
<title>Node6</title>
<g id="a_node6"><a xlink:href="GroupCell_8cpp.html" target="_top" xlink:title="This file defines the class GroupCell.">
<polygon fill="white" stroke="#666666" points="1355.5,-189.5 1227.5,-189.5 1227.5,-170.5 1355.5,-170.5 1355.5,-189.5"/>
<text text-anchor="middle" x="1291.5" y="-177.5" font-family="Helvetica,sans-Serif" font-size="10.00">src/cells/GroupCell.cpp</text>
</a>
</g>
</g>
<!-- Node3&#45;&gt;Node6 -->
<g id="edge5" class="edge">
<title>Node3&#45;&gt;Node6</title>
<path fill="none" stroke="#63b8ff" d="M1043.53,-229.03C1101.82,-217.74 1193.49,-199.98 1247.53,-189.52"/>
<polygon fill="#63b8ff" stroke="#63b8ff" points="1042.57,-225.66 1033.41,-230.99 1043.9,-232.53 1042.57,-225.66"/>
</g>
<!-- Node7 -->
<g id="node7" class="node">
<title>Node7</title>
<g id="a_node7"><a xlink:href="ConfigDialogue_8h.html" target="_top" xlink:title="The configuration dialog.">
<polygon fill="white" stroke="#666666" points="931,-74 776,-74 776,-55 931,-55 931,-74"/>
<text text-anchor="middle" x="853.5" y="-62" font-family="Helvetica,sans-Serif" font-size="10.00">src/dialogs/ConfigDialogue.h</text>
</a>
</g>
</g>
<!-- Node3&#45;&gt;Node7 -->
<g id="edge6" class="edge">
<title>Node3&#45;&gt;Node7</title>
<path fill="none" stroke="#63b8ff" d="M993.7,-220.53C996.19,-204.77 997.35,-182.22 988.5,-165 964.42,-118.12 906.91,-87.79 875.27,-74.05"/>
<polygon fill="#63b8ff" stroke="#63b8ff" points="990.21,-220.16 991.78,-230.64 997.09,-221.47 990.21,-220.16"/>
</g>
<!-- Node10 -->
<g id="node10" class="node">
<title>Node10</title>
<g id="a_node10"><a xlink:href="DiffFrame_8h_source.html" target="_top" xlink:title=" ">
<polygon fill="white" stroke="#666666" points="1078,-74 949,-74 949,-55 1078,-55 1078,-74"/>
<text text-anchor="middle" x="1013.5" y="-62" font-family="Helvetica,sans-Serif" font-size="10.00">src/dialogs/DiffFrame.h</text>
</a>
</g>
</g>
<!-- Node3&#45;&gt;Node10 -->
<g id="edge9" class="edge">
<title>Node3&#45;&gt;Node10</title>
<path fill="none" stroke="#63b8ff" d="M1004.95,-223.26C1011.4,-215.38 1018.16,-205.38 1021.5,-195 1035.52,-151.48 1022.28,-95.55 1016.19,-74.26"/>
<polygon fill="#63b8ff" stroke="#63b8ff" points="1002.21,-221.08 998.25,-230.9 1007.47,-225.69 1002.21,-221.08"/>
</g>
<!-- Node11 -->
<g id="node11" class="node">
<title>Node11</title>
<g id="a_node11"><a xlink:href="Printout_8cpp.html" target="_top" xlink:title="This file defines the class MathPrintOut.">
<polygon fill="white" stroke="#666666" points="155,-189.5 0,-189.5 0,-170.5 155,-170.5 155,-189.5"/>
<text text-anchor="middle" x="77.5" y="-177.5" font-family="Helvetica,sans-Serif" font-size="10.00">src/graphical_io/Printout.cpp</text>
</a>
</g>
</g>
<!-- Node3&#45;&gt;Node11 -->
<g id="edge12" class="edge">
<title>Node3&#45;&gt;Node11</title>
<path fill="none" stroke="#63b8ff" d="M931.83,-238.48C797.15,-235.65 451.54,-225.75 164.5,-195 151.57,-193.61 137.64,-191.61 124.79,-189.54"/>
<polygon fill="#63b8ff" stroke="#63b8ff" points="931.86,-241.98 941.93,-238.69 932,-234.99 931.86,-241.98"/>
</g>
<!-- Node3&#45;&gt;Node12 -->
<g id="edge13" class="edge">
<title>Node3&#45;&gt;Node12</title>
<path fill="none" stroke="#63b8ff" d="M1047.02,-233.96C1120.77,-226.57 1252.5,-212.36 1364.5,-195 1374.7,-193.42 1385.66,-191.46 1395.9,-189.51"/>
<polygon fill="#63b8ff" stroke="#63b8ff" points="1046.61,-230.49 1037.01,-234.96 1047.3,-237.45 1046.61,-230.49"/>
</g>
<!-- Node20 -->
<g id="node20" class="node">
<title>Node20</title>
<g id="a_node20"><a xlink:href="test__Accessibility_8cpp.html" target="_top" xlink:title="Logic&#45;level regression tests for wxMaxima&#39;s custom wxAccessible classes.">
<polygon fill="white" stroke="#666666" points="281.5,-195 173.5,-195 173.5,-165 281.5,-165 281.5,-195"/>
<text text-anchor="start" x="181.5" y="-183" font-family="Helvetica,sans-Serif" font-size="10.00">test/unit_tests/test</text>
<text text-anchor="middle" x="227.5" y="-172" font-family="Helvetica,sans-Serif" font-size="10.00">_Accessibility.cpp</text>
</a>
</g>
</g>
<!-- Node3&#45;&gt;Node20 -->
<g id="edge29" class="edge">
<title>Node3&#45;&gt;Node20</title>
<path fill="none" stroke="#63b8ff" d="M931.71,-238.85C811.66,-236.82 526.8,-228.57 290.5,-195 287.62,-194.59 284.67,-194.12 281.7,-193.6"/>
<polygon fill="#63b8ff" stroke="#63b8ff" points="931.72,-242.35 941.78,-239.01 931.84,-235.35 931.72,-242.35"/>
</g>
<!-- Node21 -->
<g id="node21" class="node">
<title>Node21</title>
<g id="a_node21"><a xlink:href="test__EditorCellInvariants_8cpp.html" target="_top" xlink:title="Hardening tests for EditorCell&#39;s text&#45;editing core.">
<polygon fill="white" stroke="#666666" points="437.5,-195 299.5,-195 299.5,-165 437.5,-165 437.5,-195"/>
<text text-anchor="start" x="307.5" y="-183" font-family="Helvetica,sans-Serif" font-size="10.00">test/unit_tests/test</text>
<text text-anchor="middle" x="368.5" y="-172" font-family="Helvetica,sans-Serif" font-size="10.00">_EditorCellInvariants.cpp</text>
</a>
</g>
</g>
<!-- Node3&#45;&gt;Node21 -->
<g id="edge30" class="edge">
<title>Node3&#45;&gt;Node21</title>
<path fill="none" stroke="#63b8ff" d="M931.62,-236.58C832.15,-231.16 622.46,-217.95 446.5,-195 443.64,-194.63 440.72,-194.22 437.77,-193.79"/>
<polygon fill="#63b8ff" stroke="#63b8ff" points="931.59,-240.09 941.76,-237.13 931.97,-233.1 931.59,-240.09"/>
</g>
<!-- Node22 -->
<g id="node22" class="node">
<title>Node22</title>
<g id="a_node22"><a xlink:href="test__GroupCellLayout_8cpp.html" target="_top" xlink:title="Regression tests for the GroupCell &lt;&#45;&gt; EditorCell layout coupling.">
<polygon fill="white" stroke="#666666" points="579,-195 456,-195 456,-165 579,-165 579,-195"/>
<text text-anchor="start" x="464" y="-183" font-family="Helvetica,sans-Serif" font-size="10.00">test/unit_tests/test</text>
<text text-anchor="middle" x="517.5" y="-172" font-family="Helvetica,sans-Serif" font-size="10.00">_GroupCellLayout.cpp</text>
</a>
</g>
</g>
<!-- Node3&#45;&gt;Node22 -->
<g id="edge31" class="edge">
<title>Node3&#45;&gt;Node22</title>
<path fill="none" stroke="#63b8ff" d="M931.68,-234.62C853.56,-227.68 710.08,-213.7 588.5,-195 585.4,-194.52 582.22,-194 579.02,-193.46"/>
<polygon fill="#63b8ff" stroke="#63b8ff" points="931.53,-238.12 941.8,-235.52 932.14,-231.15 931.53,-238.12"/>
</g>
<!-- Node23 -->
<g id="node23" class="node">
<title>Node23</title>
<g id="a_node23"><a xlink:href="test__TreeUndo_8cpp.html" target="_top" xlink:title="Regression tests for the worksheet&#39;s cell&#45;tree undo/redo (the TreeUndo_* subsystem of Worksheet).">
<polygon fill="white" stroke="#666666" points="705.5,-195 597.5,-195 597.5,-165 705.5,-165 705.5,-195"/>
<text text-anchor="start" x="605.5" y="-183" font-family="Helvetica,sans-Serif" font-size="10.00">test/unit_tests/test</text>
<text text-anchor="middle" x="651.5" y="-172" font-family="Helvetica,sans-Serif" font-size="10.00">_TreeUndo.cpp</text>
</a>
</g>
</g>
<!-- Node3&#45;&gt;Node23 -->
<g id="edge32" class="edge">
<title>Node3&#45;&gt;Node23</title>
<path fill="none" stroke="#63b8ff" d="M931.61,-231.13C875.84,-222.84 789.17,-209.33 714.5,-195 711.64,-194.45 708.71,-193.87 705.75,-193.27"/>
<polygon fill="#63b8ff" stroke="#63b8ff" points="931.25,-234.62 941.66,-232.62 932.28,-227.7 931.25,-234.62"/>
</g>
<!-- Node24 -->
<g id="node24" class="node">
<title>Node24</title>
<g id="a_node24"><a xlink:href="test__WXMRoundtrip_8cpp.html" target="_top" xlink:title="Regression tests for images surviving the .wxm serialization round&#45;trip.">
<polygon fill="white" stroke="#666666" points="839,-195 724,-195 724,-165 839,-165 839,-195"/>
<text text-anchor="start" x="732" y="-183" font-family="Helvetica,sans-Serif" font-size="10.00">test/unit_tests/test</text>
<text text-anchor="middle" x="781.5" y="-172" font-family="Helvetica,sans-Serif" font-size="10.00">_WXMRoundtrip.cpp</text>
</a>
</g>
</g>
<!-- Node3&#45;&gt;Node24 -->
<g id="edge33" class="edge">
<title>Node3&#45;&gt;Node24</title>
<path fill="none" stroke="#63b8ff" d="M949.32,-228.2C915.71,-218.75 867.6,-205.22 831.51,-195.06"/>
<polygon fill="#63b8ff" stroke="#63b8ff" points="948.68,-231.66 959.26,-230.99 950.58,-224.92 948.68,-231.66"/>
</g>
<!-- Node25 -->
<g id="node25" class="node">
<title>Node25</title>
<g id="a_node25"><a xlink:href="test__WXMXRoundtrip_8cpp.html" target="_top" xlink:title="Round&#45;trip tests for the .wxmx content.xml (the MathML&#45;like math format).">
<polygon fill="white" stroke="#666666" points="979.5,-195 857.5,-195 857.5,-165 979.5,-165 979.5,-195"/>
<text text-anchor="start" x="865.5" y="-183" font-family="Helvetica,sans-Serif" font-size="10.00">test/unit_tests/test</text>
<text text-anchor="middle" x="918.5" y="-172" font-family="Helvetica,sans-Serif" font-size="10.00">_WXMXRoundtrip.cpp</text>
</a>
</g>
</g>
<!-- Node3&#45;&gt;Node25 -->
<g id="edge34" class="edge">
<title>Node3&#45;&gt;Node25</title>
<path fill="none" stroke="#63b8ff" d="M971.3,-224.5C960.32,-215.45 946.41,-204 935.63,-195.11"/>
<polygon fill="#63b8ff" stroke="#63b8ff" points="969.08,-227.21 979.02,-230.87 973.53,-221.81 969.08,-227.21"/>
</g>
<!-- Node8 -->
<g id="node8" class="node">
<title>Node8</title>
<g id="a_node8"><a xlink:href="main_8cpp.html" target="_top" xlink:title="The file that defines the starting point of the program.">
<polygon fill="white" stroke="#666666" points="1237,-19 1158,-19 1158,0 1237,0 1237,-19"/>
<text text-anchor="middle" x="1197.5" y="-7" font-family="Helvetica,sans-Serif" font-size="10.00">src/main.cpp</text>
</a>
</g>
</g>
<!-- Node7&#45;&gt;Node8 -->
<g id="edge7" class="edge">
<title>Node7&#45;&gt;Node8</title>
<path fill="none" stroke="#63b8ff" d="M918.88,-53.43C989.42,-42.56 1099.47,-25.6 1157.92,-16.6"/>
<polygon fill="#63b8ff" stroke="#63b8ff" points="918.12,-50 908.77,-54.98 919.19,-56.92 918.12,-50"/>
</g>
<!-- Node9 -->
<g id="node9" class="node">
<title>Node9</title>
<g id="a_node9"><a xlink:href="wxMaxima_8cpp.html" target="_top" xlink:title="This file defines the contents of the class wxMaxima that contains most of the program&#39;s logic.">
<polygon fill="white" stroke="#666666" points="1103.5,-19 995.5,-19 995.5,0 1103.5,0 1103.5,-19"/>
<text text-anchor="middle" x="1049.5" y="-7" font-family="Helvetica,sans-Serif" font-size="10.00">src/wxMaxima.cpp</text>
</a>
</g>
</g>
<!-- Node7&#45;&gt;Node9 -->
<g id="edge8" class="edge">
<title>Node7&#45;&gt;Node9</title>
<path fill="none" stroke="#63b8ff" d="M894.88,-52.31C931.55,-42.39 984.33,-28.12 1017.76,-19.08"/>
<polygon fill="#63b8ff" stroke="#63b8ff" points="893.73,-49 884.99,-54.98 895.56,-55.75 893.73,-49"/>
</g>
<!-- Node10&#45;&gt;Node8 -->
<g id="edge10" class="edge">
<title>Node10&#45;&gt;Node8</title>
<path fill="none" stroke="#63b8ff" d="M1052.79,-52.18C1087.2,-42.27 1136.46,-28.08 1167.71,-19.08"/>
<polygon fill="#63b8ff" stroke="#63b8ff" points="1051.7,-48.85 1043.06,-54.98 1053.64,-55.58 1051.7,-48.85"/>
</g>
<!-- Node10&#45;&gt;Node9 -->
<g id="edge11" class="edge">
<title>Node10&#45;&gt;Node9</title>
<path fill="none" stroke="#63b8ff" d="M1025.12,-46.39C1031.32,-37.27 1038.67,-26.45 1043.67,-19.09"/>
<polygon fill="#63b8ff" stroke="#63b8ff" points="1022.17,-44.51 1019.44,-54.75 1027.96,-48.44 1022.17,-44.51"/>
</g>
<!-- Node12&#45;&gt;Node4 -->
<g id="edge15" class="edge">
<title>Node12&#45;&gt;Node4</title>
<path fill="none" stroke="#63b8ff" d="M1383.26,-168.55C1376.93,-167.34 1370.58,-166.14 1364.5,-165 1277.45,-148.66 1234.45,-188.12 1168.5,-129 1152.73,-114.87 1149.82,-88.25 1149.42,-74.39"/>
<polygon fill="#63b8ff" stroke="#63b8ff" points="1382.64,-171.99 1393.12,-170.43 1383.95,-165.12 1382.64,-171.99"/>
</g>
<!-- Node13 -->
<g id="node13" class="node">
<title>Node13</title>
<g id="a_node13"><a xlink:href="AutocompletePopup_8cpp.html" target="_top" xlink:title="This file defines the class AutocompletePopup.">
<polygon fill="white" stroke="#666666" points="1445.5,-129 1293.5,-129 1293.5,-110 1445.5,-110 1445.5,-129"/>
<text text-anchor="middle" x="1369.5" y="-117" font-family="Helvetica,sans-Serif" font-size="10.00">src/AutocompletePopup.cpp</text>
</a>
</g>
</g>
<!-- Node12&#45;&gt;Node13 -->
<g id="edge14" class="edge">
<title>Node12&#45;&gt;Node13</title>
<path fill="none" stroke="#63b8ff" d="M1419.74,-163.72C1406.95,-152.71 1390.14,-138.25 1379.57,-129.17"/>
<polygon fill="#63b8ff" stroke="#63b8ff" points="1417.6,-166.5 1427.47,-170.37 1422.17,-161.19 1417.6,-166.5"/>
</g>
<!-- Node14 -->
<g id="node14" class="node">
<title>Node14</title>
<g id="a_node14"><a xlink:href="EditorCell_8cpp.html" target="_top" xlink:title="This file defines the class EditorCell.">
<polygon fill="white" stroke="#666666" points="1424,-74 1297,-74 1297,-55 1424,-55 1424,-74"/>
<text text-anchor="middle" x="1360.5" y="-62" font-family="Helvetica,sans-Serif" font-size="10.00">src/cells/EditorCell.cpp</text>
</a>
</g>
</g>
<!-- Node12&#45;&gt;Node14 -->
<g id="edge16" class="edge">
<title>Node12&#45;&gt;Node14</title>
<path fill="none" stroke="#63b8ff" d="M1448.77,-161.62C1456.77,-146.9 1464.46,-125.73 1454.5,-110 1442.72,-91.39 1420.82,-80.41 1401.12,-74.01"/>
<polygon fill="#63b8ff" stroke="#63b8ff" points="1445.75,-159.86 1443.66,-170.25 1451.77,-163.43 1445.75,-159.86"/>
</g>
<!-- Node15 -->
<g id="node15" class="node">
<title>Node15</title>
<g id="a_node15"><a xlink:href="main_8h.html" target="_top" xlink:title="This file declares the class wxMaxima that contains most of the program&#39;s logic.">
<polygon fill="white" stroke="#666666" points="1510.5,-74 1442.5,-74 1442.5,-55 1510.5,-55 1510.5,-74"/>
<text text-anchor="middle" x="1476.5" y="-62" font-family="Helvetica,sans-Serif" font-size="10.00">src/main.h</text>
</a>
</g>
</g>
<!-- Node12&#45;&gt;Node15 -->
<g id="edge17" class="edge">
<title>Node12&#45;&gt;Node15</title>
<path fill="none" stroke="#63b8ff" d="M1459.26,-163.85C1469.94,-155.06 1481.72,-142.96 1487.5,-129 1495.21,-110.39 1486.64,-86.56 1480.87,-74.05"/>
<polygon fill="#63b8ff" stroke="#63b8ff" points="1456.85,-161.29 1451.07,-170.17 1461.13,-166.83 1456.85,-161.29"/>
</g>
<!-- Node17 -->
<g id="node17" class="node">
<title>Node17</title>
<g id="a_node17"><a xlink:href="GreekSidebar_8cpp.html" target="_top" xlink:title="This file defines the class GreekSidebar.">
<polygon fill="white" stroke="#666666" points="1703.5,-129 1539.5,-129 1539.5,-110 1703.5,-110 1703.5,-129"/>
<text text-anchor="middle" x="1621.5" y="-117" font-family="Helvetica,sans-Serif" font-size="10.00">src/sidebars/GreekSidebar.cpp</text>
</a>
</g>
</g>
<!-- Node12&#45;&gt;Node17 -->
<g id="edge21" class="edge">
<title>Node12&#45;&gt;Node17</title>
<path fill="none" stroke="#63b8ff" d="M1473.79,-167.46C1509.38,-156.15 1562.81,-139.16 1594.71,-129.02"/>
<polygon fill="#63b8ff" stroke="#63b8ff" points="1472.72,-164.13 1464.26,-170.49 1474.85,-170.8 1472.72,-164.13"/>
</g>
<!-- Node18 -->
<g id="node18" class="node">
<title>Node18</title>
<g id="a_node18"><a xlink:href="wxMaxima_8h.html" target="_top" xlink:title="This file declares the class wxMaxima that contains most of the program&#39;s logic.">
<polygon fill="white" stroke="#666666" points="1275,-129 1178,-129 1178,-110 1275,-110 1275,-129"/>
<text text-anchor="middle" x="1226.5" y="-117" font-family="Helvetica,sans-Serif" font-size="10.00">src/wxMaxima.h</text>
</a>
</g>
</g>
<!-- Node12&#45;&gt;Node18 -->
<g id="edge22" class="edge">
<title>Node12&#45;&gt;Node18</title>
<path fill="none" stroke="#63b8ff" d="M1396.93,-167.75C1356.12,-156.44 1294.11,-139.25 1257.22,-129.02"/>
<polygon fill="#63b8ff" stroke="#63b8ff" points="1396.25,-171.19 1406.82,-170.49 1398.12,-164.45 1396.25,-171.19"/>
</g>
<!-- Node19 -->
<g id="node19" class="node">
<title>Node19</title>
<g id="a_node19"><a xlink:href="wxMaximaFrame_8cpp.html" target="_top" xlink:title="This file defines the class wxMaximaFrame.">
<polygon fill="white" stroke="#666666" points="1861,-129 1722,-129 1722,-110 1861,-110 1861,-129"/>
<text text-anchor="middle" x="1791.5" y="-117" font-family="Helvetica,sans-Serif" font-size="10.00">src/wxMaximaFrame.cpp</text>
</a>
</g>
</g>
<!-- Node12&#45;&gt;Node19 -->
<g id="edge28" class="edge">
<title>Node12&#45;&gt;Node19</title>
<path fill="none" stroke="#63b8ff" d="M1499.15,-168.81C1567.37,-157.54 1676.1,-139.57 1739.96,-129.02"/>
<polygon fill="#63b8ff" stroke="#63b8ff" points="1498.27,-165.41 1488.97,-170.49 1499.41,-172.32 1498.27,-165.41"/>
</g>
<!-- Node15&#45;&gt;Node8 -->
<g id="edge19" class="edge">
<title>Node15&#45;&gt;Node8</title>
<path fill="none" stroke="#63b8ff" d="M1432.8,-55.06C1432.7,-55.04 1432.6,-55.02 1432.5,-55 1363.78,-41.86 1283.71,-26.74 1237.01,-17.94"/>
<polygon fill="#63b8ff" stroke="#63b8ff" points="1431.91,-58.45 1442.39,-56.9 1433.23,-51.58 1431.91,-58.45"/>
</g>
<!-- Node15&#45;&gt;Node9 -->
<g id="edge20" class="edge">
<title>Node15&#45;&gt;Node9</title>
<path fill="none" stroke="#63b8ff" d="M1432.8,-55.05C1432.7,-55.03 1432.6,-55.02 1432.5,-55 1315.73,-36.96 1177.92,-22.65 1103.59,-15.49"/>
<polygon fill="#63b8ff" stroke="#63b8ff" points="1431.99,-58.46 1442.43,-56.66 1433.15,-51.56 1431.99,-58.46"/>
</g>
<!-- Node16 -->
<g id="node16" class="node">
<title>Node16</title>
<g id="a_node16"><a xlink:href="MaximaManual_8cpp.html" target="_top" xlink:title="This file defines the class MaximaManual.">
<polygon fill="white" stroke="#666666" points="1541.5,-19 1411.5,-19 1411.5,0 1541.5,0 1541.5,-19"/>
<text text-anchor="middle" x="1476.5" y="-7" font-family="Helvetica,sans-Serif" font-size="10.00">src/MaximaManual.cpp</text>
</a>
</g>
</g>
<!-- Node15&#45;&gt;Node16 -->
<g id="edge18" class="edge">
<title>Node15&#45;&gt;Node16</title>
<path fill="none" stroke="#63b8ff" d="M1476.5,-44.66C1476.5,-35.93 1476.5,-25.99 1476.5,-19.09"/>
<polygon fill="#63b8ff" stroke="#63b8ff" points="1473,-44.75 1476.5,-54.75 1480,-44.75 1473,-44.75"/>
</g>
<!-- Node18&#45;&gt;Node4 -->
<g id="edge23" class="edge">
<title>Node18&#45;&gt;Node4</title>
<path fill="none" stroke="#63b8ff" d="M1205.65,-104.15C1191.74,-94.57 1173.89,-82.29 1162.1,-74.17"/>
<polygon fill="#63b8ff" stroke="#63b8ff" points="1203.91,-107.2 1214.13,-109.98 1207.88,-101.43 1203.91,-107.2"/>
</g>
<!-- Node18&#45;&gt;Node8 -->
<g id="edge25" class="edge">
<title>Node18&#45;&gt;Node8</title>
<path fill="none" stroke="#63b8ff" d="M1237.88,-100.79C1244.7,-87.81 1250.92,-69.93 1244.5,-55 1237.84,-39.52 1222.85,-26.9 1211.57,-19.11"/>
<polygon fill="#63b8ff" stroke="#63b8ff" points="1234.74,-99.22 1232.74,-109.63 1240.79,-102.74 1234.74,-99.22"/>
</g>
<!-- Node18&#45;&gt;Node9 -->
<g id="edge27" class="edge">
<title>Node18&#45;&gt;Node9</title>
<path fill="none" stroke="#63b8ff" d="M1226.92,-99.76C1226.21,-85.67 1222.92,-66.84 1211.5,-55 1183.66,-26.13 1138.99,-15.44 1103.6,-11.72"/>
<polygon fill="#63b8ff" stroke="#63b8ff" points="1223.42,-99.86 1227.04,-109.82 1230.42,-99.77 1223.42,-99.86"/>
</g>
<!-- Node18&#45;&gt;Node14 -->
<g id="edge24" class="edge">
<title>Node18&#45;&gt;Node14</title>
<path fill="none" stroke="#63b8ff" d="M1257.37,-106.29C1282.2,-96.47 1316.49,-82.91 1338.58,-74.17"/>
<polygon fill="#63b8ff" stroke="#63b8ff" points="1256.04,-103.05 1248.03,-109.98 1258.62,-109.56 1256.04,-103.05"/>
</g>
<!-- Node18&#45;&gt;Node15 -->
<g id="edge26" class="edge">
<title>Node18&#45;&gt;Node15</title>
<path fill="none" stroke="#63b8ff" d="M1276.48,-107.91C1325.72,-97.47 1399.62,-81.8 1442.46,-72.72"/>
<polygon fill="#63b8ff" stroke="#63b8ff" points="1275.72,-104.49 1266.67,-109.98 1277.18,-111.33 1275.72,-104.49"/>
</g>
<!-- Node26&#45;&gt;Node12 -->
<g id="edge37" class="edge">
<title>Node26&#45;&gt;Node12</title>
<path fill="none" stroke="#63b8ff" d="M1405.59,-276.32C1413.89,-251.52 1428.45,-208.04 1434.61,-189.63"/>
<polygon fill="#63b8ff" stroke="#63b8ff" points="1402.21,-275.38 1402.36,-285.97 1408.85,-277.6 1402.21,-275.38"/>
</g>
<!-- Node27 -->
<g id="node27" class="node">
<title>Node27</title>
<g id="a_node27"><a xlink:href="DrawSidebar_8cpp.html" target="_top" xlink:title="This file defines the class StatSidebar.">
<polygon fill="white" stroke="#666666" points="1389.5,-250 1229.5,-250 1229.5,-231 1389.5,-231 1389.5,-250"/>
<text text-anchor="middle" x="1309.5" y="-238" font-family="Helvetica,sans-Serif" font-size="10.00">src/sidebars/DrawSidebar.cpp</text>
</a>
</g>
</g>
<!-- Node26&#45;&gt;Node27 -->
<g id="edge36" class="edge">
<title>Node26&#45;&gt;Node27</title>
<path fill="none" stroke="#63b8ff" d="M1376.06,-280.7C1359.66,-271.04 1338.27,-258.44 1324.22,-250.17"/>
<polygon fill="#63b8ff" stroke="#63b8ff" points="1374.65,-283.93 1385.04,-285.98 1378.2,-277.89 1374.65,-283.93"/>
</g>
<!-- Node28&#45;&gt;Node19 -->
<g id="edge40" class="edge">
<title>Node28&#45;&gt;Node19</title>
<path fill="none" stroke="#63b8ff" d="M1770.85,-280.09C1760.73,-272.52 1750,-262.26 1744.5,-250 1724.62,-205.7 1765.82,-150.23 1783.73,-129.16"/>
<polygon fill="#63b8ff" stroke="#63b8ff" points="1768.86,-282.97 1779.07,-285.8 1772.85,-277.22 1768.86,-282.97"/>
</g>
<!-- Node29 -->
<g id="node29" class="node">
<title>Node29</title>
<g id="a_node29"><a xlink:href="FormatSidebar_8cpp.html" target="_top" xlink:title="This file defines the class FormatSidebar.">
<polygon fill="white" stroke="#666666" points="1922,-250 1753,-250 1753,-231 1922,-231 1922,-250"/>
<text text-anchor="middle" x="1837.5" y="-238" font-family="Helvetica,sans-Serif" font-size="10.00">src/sidebars/FormatSidebar.cpp</text>
</a>
</g>
</g>
<!-- Node28&#45;&gt;Node29 -->
<g id="edge39" class="edge">
<title>Node28&#45;&gt;Node29</title>
<path fill="none" stroke="#63b8ff" d="M1807.92,-277.96C1815.41,-268.72 1824.44,-257.6 1830.53,-250.09"/>
<polygon fill="#63b8ff" stroke="#63b8ff" points="1805.18,-275.78 1801.6,-285.75 1810.62,-280.19 1805.18,-275.78"/>
</g>
<!-- Node30&#45;&gt;Node17 -->
<g id="edge42" class="edge">
<title>Node30&#45;&gt;Node17</title>
<path fill="none" stroke="#63b8ff" d="M1621.5,-160.16C1621.5,-149.74 1621.5,-137.3 1621.5,-129.17"/>
<polygon fill="#63b8ff" stroke="#63b8ff" points="1618,-160.37 1621.5,-170.37 1625,-160.37 1618,-160.37"/>
</g>
<!-- Node30&#45;&gt;Node19 -->
<g id="edge43" class="edge">
<title>Node30&#45;&gt;Node19</title>
<path fill="none" stroke="#63b8ff" d="M1655.87,-167.17C1688.75,-155.86 1737.53,-139.07 1766.75,-129.02"/>
<polygon fill="#63b8ff" stroke="#63b8ff" points="1654.54,-163.93 1646.22,-170.49 1656.81,-170.55 1654.54,-163.93"/>
</g>
<!-- Node32&#45;&gt;Node19 -->
<g id="edge47" class="edge">
<title>Node32&#45;&gt;Node19</title>
<path fill="none" stroke="#63b8ff" d="M2049.41,-284.58C2091.29,-275.91 2129.08,-259.97 2108.5,-231 2052.55,-152.25 1936.16,-129.15 1861.05,-122.65"/>
<polygon fill="#63b8ff" stroke="#63b8ff" points="2048.73,-281.14 2039.57,-286.47 2050.06,-288.02 2048.73,-281.14"/>
</g>
<!-- Node33 -->
<g id="node33" class="node">
<title>Node33</title>
<g id="a_node33"><a xlink:href="MathSidebar_8cpp.html" target="_top" xlink:title="This file defines the class SymbolsSidebar.">
<polygon fill="white" stroke="#666666" points="2099,-250 1940,-250 1940,-231 2099,-231 2099,-250"/>
<text text-anchor="middle" x="2019.5" y="-238" font-family="Helvetica,sans-Serif" font-size="10.00">src/sidebars/MathSidebar.cpp</text>
</a>
</g>
</g>
<!-- Node32&#45;&gt;Node33 -->
<g id="edge46" class="edge">
<title>Node32&#45;&gt;Node33</title>
<path fill="none" stroke="#63b8ff" d="M1981.78,-278.52C1991.3,-269.18 2002.94,-257.75 2010.75,-250.09"/>
<polygon fill="#63b8ff" stroke="#63b8ff" points="1979.1,-276.25 1974.42,-285.75 1984.01,-281.24 1979.1,-276.25"/>
</g>
<!-- Node34&#45;&gt;Node19 -->
<g id="edge50" class="edge">
<title>Node34&#45;&gt;Node19</title>
<path fill="none" stroke="#63b8ff" d="M2131.11,-275.75C2131.5,-262.69 2130.55,-245.16 2124.5,-231 2109.03,-194.82 2100.01,-183.9 2065.5,-165 2031.21,-146.22 1930.32,-133.37 1861.03,-126.48"/>
<polygon fill="#63b8ff" stroke="#63b8ff" points="2127.6,-275.68 2130.51,-285.87 2134.59,-276.1 2127.6,-275.68"/>
</g>
<!-- Node35 -->
<g id="node35" class="node">
<title>Node35</title>
<g id="a_node35"><a xlink:href="StatSidebar_8cpp.html" target="_top" xlink:title="This file defines the class StatSidebar.">
<polygon fill="white" stroke="#666666" points="2346.5,-250 2192.5,-250 2192.5,-231 2346.5,-231 2346.5,-250"/>
<text text-anchor="middle" x="2269.5" y="-238" font-family="Helvetica,sans-Serif" font-size="10.00">src/sidebars/StatSidebar.cpp</text>
</a>
</g>
</g>
<!-- Node34&#45;&gt;Node35 -->
<g id="edge49" class="edge">
<title>Node34&#45;&gt;Node35</title>
<path fill="none" stroke="#63b8ff" d="M2161.41,-282.42C2187.38,-272.59 2223.42,-258.95 2246.6,-250.17"/>
<polygon fill="#63b8ff" stroke="#63b8ff" points="2160.11,-279.17 2151.99,-285.98 2162.58,-285.72 2160.11,-279.17"/>
</g>
<!-- Node36&#45;&gt;Node12 -->
<g id="edge53" class="edge">
<title>Node36&#45;&gt;Node12</title>
<path fill="none" stroke="#63b8ff" d="M1532.15,-282.65C1512.83,-275.61 1490.7,-265.05 1474.5,-250 1455.98,-232.79 1444.84,-204.16 1440.13,-189.8"/>
<polygon fill="#63b8ff" stroke="#63b8ff" points="1531.07,-285.98 1541.66,-285.93 1533.35,-279.36 1531.07,-285.98"/>
</g>
<!-- Node37 -->
<g id="node37" class="node">
<title>Node37</title>
<g id="a_node37"><a xlink:href="SymbolsSidebar_8cpp.html" target="_top" xlink:title="This file defines the class SymbolsSidebar.">
<polygon fill="white" stroke="#666666" points="1659.5,-250 1483.5,-250 1483.5,-231 1659.5,-231 1659.5,-250"/>
<text text-anchor="middle" x="1571.5" y="-238" font-family="Helvetica,sans-Serif" font-size="10.00">src/sidebars/SymbolsSidebar.cpp</text>
</a>
</g>
</g>
<!-- Node36&#45;&gt;Node37 -->
<g id="edge52" class="edge">
<title>Node36&#45;&gt;Node37</title>
<path fill="none" stroke="#63b8ff" d="M1573.43,-275.66C1572.94,-266.93 1572.38,-256.99 1571.99,-250.09"/>
<polygon fill="#63b8ff" stroke="#63b8ff" points="1569.94,-275.96 1574,-285.75 1576.93,-275.57 1569.94,-275.96"/>
</g>
<!-- Node40&#45;&gt;Node3 -->
<g id="edge57" class="edge">
<title>Node40&#45;&gt;Node3</title>
<path fill="none" stroke="#63b8ff" d="M1069.5,-281.5C1050,-271.75 1023.85,-258.68 1006.84,-250.17"/>
<polygon fill="#63b8ff" stroke="#63b8ff" points="1067.96,-284.64 1078.47,-285.98 1071.09,-278.38 1067.96,-284.64"/>
</g>
</g>
</svg>
