<?xml version="1.0" encoding="UTF-8" standalone="no"?>
<!DOCTYPE svg PUBLIC "-//W3C//DTD SVG 1.1//EN"
 "http://www.w3.org/Graphics/SVG/1.1/DTD/svg11.dtd">
<!-- Generated by graphviz version 2.43.0 (0)
 -->
<!-- Title: src/EventIDs.h Pages: 1 -->
<!--zoomable 364 -->
<svg id="main" version="1.1" xmlns="http://www.w3.org/2000/svg" xmlns:xlink="http://www.w3.org/1999/xlink" xml:space="preserve" onload="init(evt)">
<style type="text/css"><![CDATA[
.edge:hover path { stroke: red; }
.edge:hover polygon { stroke: red; fill: red; }
]]></style>
<script type="text/javascript"><![CDATA[
var edges = document.getElementsByTagName('g');
if (edges && edges.length) {
  for (var i=0;i<edges.length;i++) {
    if (edges[i].id.substr(0,4)=='edge') {
      edges[i].setAttribute('class','edge');
    }
  }
}
]]></script>
        <defs>
                <circle id="rim" cx="0" cy="0" r="7"/>
                <circle id="rim2" cx="0" cy="0" r="3.5"/>
                <g id="zoomPlus">
                        <use xlink:href="#rim" fill="#404040">
                                <set attributeName="fill" to="#808080" begin="zoomplus.mouseover" end="zoomplus.mouseout"/>
                        </use>
                        <path d="M-4,0h8M0,-4v8" fill="none" stroke="white" stroke-width="1.5" pointer-events="none"/>
                </g>
                <g id="zoomMin">
                        <use xlink:href="#rim" fill="#404040">
                                <set attributeName="fill" to="#808080" begin="zoomminus.mouseover" end="zoomminus.mouseout"/>
                        </use>
                        <path d="M-4,0h8" fill="none" stroke="white" stroke-width="1.5" pointer-events="none"/>
                </g>
                <g id="dirArrow">
                        <path fill="none" stroke="white" stroke-width="1.5" d="M0,-3.0v7 M-2.5,-0.5L0,-3.0L2.5,-0.5"/>
                </g>
               <g id="resetDef">
                       <use xlink:href="#rim2" fill="#404040">
                               <set attributeName="fill" to="#808080" begin="reset.mouseover" end="reset.mouseout"/>
                       </use>
               </g>
        </defs>

<script type="text/javascript">
var viewWidth = 1789;
var viewHeight = 364;
var sectionId = 'dynsection-1';
</script>
<script xlink:href="svgpan.js"/>
<svg id="graph" class="graph">
<g id="viewport">
<title>src/EventIDs.h</title>
<polygon fill="white" stroke="transparent" points="-4,4 -4,-360 1784.5,-360 1784.5,4 -4,4"/>
<!-- Node1 -->
<g id="node1" class="node">
<title>Node1</title>
<g id="a_node1"><a xlink:title="This file declares the class EventIDs that contains unique IDs for many events wxMaxima needs.">
<polygon fill="#bfbfbf" stroke="black" points="848,-336.5 848,-355.5 934,-355.5 934,-336.5 848,-336.5"/>
<text text-anchor="middle" x="891" y="-343.5" font-family="Helvetica,sans-Serif" font-size="10.00">src/EventIDs.h</text>
</a>
</g>
</g>
<!-- Node2 -->
<g id="node2" class="node">
<title>Node2</title>
<g id="a_node2"><a xlink:href="EventIDs_8cpp.html" target="_top" xlink:title="This file defines the class EventIDs that contains unique IDs for many events wxMaxima needs.">
<polygon fill="white" stroke="black" points="0,-280.5 0,-299.5 98,-299.5 98,-280.5 0,-280.5"/>
<text text-anchor="middle" x="49" y="-287.5" font-family="Helvetica,sans-Serif" font-size="10.00">src/EventIDs.cpp</text>
</a>
</g>
</g>
<!-- Node1&#45;&gt;Node2 -->
<g id="edge1" class="edge">
<title>Node1&#45;&gt;Node2</title>
<path fill="none" stroke="midnightblue" d="M837.75,-343.72C710.9,-340.28 380.96,-329.05 107,-300 104.06,-299.69 101.04,-299.33 98,-298.94"/>
<polygon fill="midnightblue" stroke="midnightblue" points="837.87,-347.22 847.96,-343.99 838.06,-340.22 837.87,-347.22"/>
</g>
<!-- Node3 -->
<g id="node3" class="node">
<title>Node3</title>
<g id="a_node3"><a xlink:href="FormatSidebar_8h.html" target="_top" xlink:title="This file declares the class StatSidebar, that provides some statistics buttons.">
<polygon fill="white" stroke="black" points="116,-280.5 116,-299.5 274,-299.5 274,-280.5 116,-280.5"/>
<text text-anchor="middle" x="195" y="-287.5" font-family="Helvetica,sans-Serif" font-size="10.00">src/sidebars/FormatSidebar.h</text>
</a>
</g>
</g>
<!-- Node1&#45;&gt;Node3 -->
<g id="edge2" class="edge">
<title>Node1&#45;&gt;Node3</title>
<path fill="none" stroke="midnightblue" d="M837.74,-341.56C731.94,-334.62 487.84,-318.05 283,-300 280.09,-299.74 277.13,-299.48 274.14,-299.2"/>
<polygon fill="midnightblue" stroke="midnightblue" points="837.63,-345.06 847.84,-342.22 838.09,-338.08 837.63,-345.06"/>
</g>
<!-- Node6 -->
<g id="node6" class="node">
<title>Node6</title>
<g id="a_node6"><a xlink:href="GreekSidebar_8h.html" target="_top" xlink:title="This file declares the class wxMaximaFrame.">
<polygon fill="white" stroke="black" points="656,-168.5 656,-187.5 808,-187.5 808,-168.5 656,-168.5"/>
<text text-anchor="middle" x="732" y="-175.5" font-family="Helvetica,sans-Serif" font-size="10.00">src/sidebars/GreekSidebar.h</text>
</a>
</g>
</g>
<!-- Node1&#45;&gt;Node6 -->
<g id="edge5" class="edge">
<title>Node1&#45;&gt;Node6</title>
<path fill="none" stroke="midnightblue" d="M837.44,-342.77C773.58,-338.85 672.48,-328.25 649,-300 616.11,-260.43 686.8,-207.97 718.09,-187.6"/>
<polygon fill="midnightblue" stroke="midnightblue" points="837.56,-346.28 847.74,-343.36 837.96,-339.29 837.56,-346.28"/>
</g>
<!-- Node8 -->
<g id="node8" class="node">
<title>Node8</title>
<g id="a_node8"><a xlink:href="DrawSidebar_8h.html" target="_top" xlink:title="This file declares the class StatSidebar, that provides some statistics buttons.">
<polygon fill="white" stroke="black" points="991.5,-280.5 991.5,-299.5 1140.5,-299.5 1140.5,-280.5 991.5,-280.5"/>
<text text-anchor="middle" x="1066" y="-287.5" font-family="Helvetica,sans-Serif" font-size="10.00">src/sidebars/DrawSidebar.h</text>
</a>
</g>
</g>
<!-- Node1&#45;&gt;Node8 -->
<g id="edge8" class="edge">
<title>Node1&#45;&gt;Node8</title>
<path fill="none" stroke="midnightblue" d="M928.47,-333.44C961.47,-323.26 1008.76,-308.66 1038.4,-299.52"/>
<polygon fill="midnightblue" stroke="midnightblue" points="927.25,-330.15 918.73,-336.44 929.32,-336.84 927.25,-330.15"/>
</g>
<!-- Node10 -->
<g id="node10" class="node">
<title>Node10</title>
<g id="a_node10"><a xlink:href="wxMaximaFrame_8h.html" target="_top" xlink:title="This file declares the class wxMaximaFrame.">
<polygon fill="white" stroke="black" points="1121,-168.5 1121,-187.5 1249,-187.5 1249,-168.5 1121,-168.5"/>
<text text-anchor="middle" x="1185" y="-175.5" font-family="Helvetica,sans-Serif" font-size="10.00">src/wxMaximaFrame.h</text>
</a>
</g>
</g>
<!-- Node1&#45;&gt;Node10 -->
<g id="edge47" class="edge">
<title>Node1&#45;&gt;Node10</title>
<path fill="none" stroke="midnightblue" d="M944.56,-345.37C1092.71,-345.84 1499.74,-343.14 1540,-300 1626.95,-206.81 1373.37,-185.39 1249.18,-180.47"/>
<polygon fill="midnightblue" stroke="midnightblue" points="944.36,-341.87 934.35,-345.33 944.33,-348.87 944.36,-341.87"/>
</g>
<!-- Node19 -->
<g id="node19" class="node">
<title>Node19</title>
<g id="a_node19"><a xlink:href="History_8cpp.html" target="_top" xlink:title="This file defines the class History.">
<polygon fill="white" stroke="black" points="658,-280.5 658,-299.5 790,-299.5 790,-280.5 658,-280.5"/>
<text text-anchor="middle" x="724" y="-287.5" font-family="Helvetica,sans-Serif" font-size="10.00">src/sidebars/History.cpp</text>
</a>
</g>
</g>
<!-- Node1&#45;&gt;Node19 -->
<g id="edge26" class="edge">
<title>Node1&#45;&gt;Node19</title>
<path fill="none" stroke="midnightblue" d="M854.83,-333.3C823.36,-323.13 778.51,-308.62 750.34,-299.52"/>
<polygon fill="midnightblue" stroke="midnightblue" points="853.95,-336.7 864.54,-336.44 856.1,-330.04 853.95,-336.7"/>
</g>
<!-- Node20 -->
<g id="node20" class="node">
<title>Node20</title>
<g id="a_node20"><a xlink:href="StatSidebar_8h.html" target="_top" xlink:title="This file declares the class StatSidebar, that provides some statistics buttons.">
<polygon fill="white" stroke="black" points="292.5,-280.5 292.5,-299.5 435.5,-299.5 435.5,-280.5 292.5,-280.5"/>
<text text-anchor="middle" x="364" y="-287.5" font-family="Helvetica,sans-Serif" font-size="10.00">src/sidebars/StatSidebar.h</text>
</a>
</g>
</g>
<!-- Node1&#45;&gt;Node20 -->
<g id="edge27" class="edge">
<title>Node1&#45;&gt;Node20</title>
<path fill="none" stroke="midnightblue" d="M837.92,-339.82C754.32,-331.62 586.9,-315.04 445,-300 441.9,-299.67 438.74,-299.33 435.55,-298.99"/>
<polygon fill="midnightblue" stroke="midnightblue" points="837.64,-343.31 847.93,-340.8 838.32,-336.34 837.64,-343.31"/>
</g>
<!-- Node22 -->
<g id="node22" class="node">
<title>Node22</title>
<g id="a_node22"><a xlink:href="SymbolsSidebar_8h.html" target="_top" xlink:title="This file declares the class wxMaximaFrame.">
<polygon fill="white" stroke="black" points="808.5,-280.5 808.5,-299.5 973.5,-299.5 973.5,-280.5 808.5,-280.5"/>
<text text-anchor="middle" x="891" y="-287.5" font-family="Helvetica,sans-Serif" font-size="10.00">src/sidebars/SymbolsSidebar.h</text>
</a>
</g>
</g>
<!-- Node1&#45;&gt;Node22 -->
<g id="edge30" class="edge">
<title>Node1&#45;&gt;Node22</title>
<path fill="none" stroke="midnightblue" d="M891,-325.8C891,-316.91 891,-306.78 891,-299.75"/>
<polygon fill="midnightblue" stroke="midnightblue" points="887.5,-326.08 891,-336.08 894.5,-326.08 887.5,-326.08"/>
</g>
<!-- Node24 -->
<g id="node24" class="node">
<title>Node24</title>
<g id="a_node24"><a xlink:href="UnicodeSidebar_8cpp.html" target="_top" xlink:title="This file defines the class UnicodeSidebar.">
<polygon fill="white" stroke="black" points="1159,-280.5 1159,-299.5 1333,-299.5 1333,-280.5 1159,-280.5"/>
<text text-anchor="middle" x="1246" y="-287.5" font-family="Helvetica,sans-Serif" font-size="10.00">src/sidebars/UnicodeSidebar.cpp</text>
</a>
</g>
</g>
<!-- Node1&#45;&gt;Node24 -->
<g id="edge33" class="edge">
<title>Node1&#45;&gt;Node24</title>
<path fill="none" stroke="midnightblue" d="M944.38,-336.88C1010.52,-326.82 1122.68,-309.76 1190,-299.52"/>
<polygon fill="midnightblue" stroke="midnightblue" points="943.53,-333.47 934.18,-338.43 944.59,-340.39 943.53,-333.47"/>
</g>
<!-- Node25 -->
<g id="node25" class="node">
<title>Node25</title>
<g id="a_node25"><a xlink:href="TableOfContents_8cpp.html" target="_top" xlink:title="This file defines the class Structure.">
<polygon fill="white" stroke="black" points="1351.5,-280.5 1351.5,-299.5 1530.5,-299.5 1530.5,-280.5 1351.5,-280.5"/>
<text text-anchor="middle" x="1441" y="-287.5" font-family="Helvetica,sans-Serif" font-size="10.00">src/sidebars/TableOfContents.cpp</text>
</a>
</g>
</g>
<!-- Node1&#45;&gt;Node25 -->
<g id="edge34" class="edge">
<title>Node1&#45;&gt;Node25</title>
<path fill="none" stroke="midnightblue" d="M944.12,-339.78C1039.19,-330.45 1239.21,-310.81 1354.38,-299.5"/>
<polygon fill="midnightblue" stroke="midnightblue" points="943.77,-336.3 934.16,-340.76 944.45,-343.27 943.77,-336.3"/>
</g>
<!-- Node26 -->
<g id="node26" class="node">
<title>Node26</title>
<g id="a_node26"><a xlink:href="VariablesPane_8h.html" target="_top" xlink:title="The file that contains the &quot;variables&quot; sidepane.">
<polygon fill="white" stroke="black" points="1625.5,-280.5 1625.5,-299.5 1780.5,-299.5 1780.5,-280.5 1625.5,-280.5"/>
<text text-anchor="middle" x="1703" y="-287.5" font-family="Helvetica,sans-Serif" font-size="10.00">src/sidebars/VariablesPane.h</text>
</a>
</g>
</g>
<!-- Node1&#45;&gt;Node26 -->
<g id="edge35" class="edge">
<title>Node1&#45;&gt;Node26</title>
<path fill="none" stroke="midnightblue" d="M944.37,-342.31C1063.86,-336.14 1361.96,-319.96 1611,-300 1615.64,-299.63 1620.41,-299.23 1625.22,-298.8"/>
<polygon fill="midnightblue" stroke="midnightblue" points="943.86,-338.83 934.05,-342.84 944.22,-345.82 943.86,-338.83"/>
</g>
<!-- Node27 -->
<g id="node27" class="node">
<title>Node27</title>
<g id="a_node27"><a xlink:href="Worksheet_8h.html" target="_top" xlink:title="This file defines the class Worksheet.">
<polygon fill="white" stroke="black" points="1587.5,-224.5 1587.5,-243.5 1682.5,-243.5 1682.5,-224.5 1587.5,-224.5"/>
<text text-anchor="middle" x="1635" y="-231.5" font-family="Helvetica,sans-Serif" font-size="10.00">src/Worksheet.h</text>
</a>
</g>
</g>
<!-- Node1&#45;&gt;Node27 -->
<g id="edge46" class="edge">
<title>Node1&#45;&gt;Node27</title>
<path fill="none" stroke="midnightblue" d="M944.82,-343.69C1095.91,-339.7 1516.71,-326.32 1573,-300 1599.56,-287.58 1620.55,-258.35 1629.82,-243.69"/>
<polygon fill="midnightblue" stroke="midnightblue" points="944.32,-340.2 934.41,-343.96 944.5,-347.2 944.32,-340.2"/>
</g>
<!-- Node30 -->
<g id="node30" class="node">
<title>Node30</title>
<g id="a_node30"><a xlink:href="MathSidebar_8h.html" target="_top" xlink:title="This file declares the class wxMaximaFrame.">
<polygon fill="white" stroke="black" points="454,-280.5 454,-299.5 602,-299.5 602,-280.5 454,-280.5"/>
<text text-anchor="middle" x="528" y="-287.5" font-family="Helvetica,sans-Serif" font-size="10.00">src/sidebars/MathSidebar.h</text>
</a>
</g>
</g>
<!-- Node1&#45;&gt;Node30 -->
<g id="edge43" class="edge">
<title>Node1&#45;&gt;Node30</title>
<path fill="none" stroke="midnightblue" d="M837.95,-337.11C770.56,-327.08 654.7,-309.85 585.33,-299.53"/>
<polygon fill="midnightblue" stroke="midnightblue" points="837.53,-340.58 847.93,-338.59 838.56,-333.66 837.53,-340.58"/>
</g>
<!-- Node4 -->
<g id="node4" class="node">
<title>Node4</title>
<g id="a_node4"><a xlink:href="FormatSidebar_8cpp.html" target="_top" xlink:title="This file defines the class FormatSidebar.">
<polygon fill="white" stroke="black" points="6.5,-224.5 6.5,-243.5 175.5,-243.5 175.5,-224.5 6.5,-224.5"/>
<text text-anchor="middle" x="91" y="-231.5" font-family="Helvetica,sans-Serif" font-size="10.00">src/sidebars/FormatSidebar.cpp</text>
</a>
</g>
</g>
<!-- Node3&#45;&gt;Node4 -->
<g id="edge3" class="edge">
<title>Node3&#45;&gt;Node4</title>
<path fill="none" stroke="midnightblue" d="M169.17,-275.59C149.94,-265.61 124.26,-252.27 107.67,-243.65"/>
<polygon fill="midnightblue" stroke="midnightblue" points="167.8,-278.82 178.29,-280.32 171.03,-272.61 167.8,-278.82"/>
</g>
<!-- Node5 -->
<g id="node5" class="node">
<title>Node5</title>
<g id="a_node5"><a xlink:href="wxMaximaFrame_8cpp.html" target="_top" xlink:title="This file defines the class wxMaximaFrame.">
<polygon fill="white" stroke="black" points="558.5,-112.5 558.5,-131.5 697.5,-131.5 697.5,-112.5 558.5,-112.5"/>
<text text-anchor="middle" x="628" y="-119.5" font-family="Helvetica,sans-Serif" font-size="10.00">src/wxMaximaFrame.cpp</text>
</a>
</g>
</g>
<!-- Node3&#45;&gt;Node5 -->
<g id="edge4" class="edge">
<title>Node3&#45;&gt;Node5</title>
<path fill="none" stroke="midnightblue" d="M206.04,-271.59C224.67,-243.96 265.22,-190.88 315,-168 357.09,-148.66 479.69,-135.26 558.38,-128.38"/>
<polygon fill="midnightblue" stroke="midnightblue" points="202.95,-269.93 200.39,-280.21 208.8,-273.77 202.95,-269.93"/>
</g>
<!-- Node6&#45;&gt;Node5 -->
<g id="edge7" class="edge">
<title>Node6&#45;&gt;Node5</title>
<path fill="none" stroke="midnightblue" d="M706.17,-163.59C686.94,-153.61 661.26,-140.27 644.67,-131.65"/>
<polygon fill="midnightblue" stroke="midnightblue" points="704.8,-166.82 715.29,-168.32 708.03,-160.61 704.8,-166.82"/>
</g>
<!-- Node7 -->
<g id="node7" class="node">
<title>Node7</title>
<g id="a_node7"><a xlink:href="GreekSidebar_8cpp.html" target="_top" xlink:title="This file defines the class GreekSidebar.">
<polygon fill="white" stroke="black" points="839,-112.5 839,-131.5 1003,-131.5 1003,-112.5 839,-112.5"/>
<text text-anchor="middle" x="921" y="-119.5" font-family="Helvetica,sans-Serif" font-size="10.00">src/sidebars/GreekSidebar.cpp</text>
</a>
</g>
</g>
<!-- Node6&#45;&gt;Node7 -->
<g id="edge6" class="edge">
<title>Node6&#45;&gt;Node7</title>
<path fill="none" stroke="midnightblue" d="M772.01,-165.57C807.67,-155.38 859.04,-140.7 891.19,-131.52"/>
<polygon fill="midnightblue" stroke="midnightblue" points="770.6,-162.33 761.95,-168.44 772.52,-169.06 770.6,-162.33"/>
</g>
<!-- Node9 -->
<g id="node9" class="node">
<title>Node9</title>
<g id="a_node9"><a xlink:href="DrawSidebar_8cpp.html" target="_top" xlink:title="This file defines the class StatSidebar.">
<polygon fill="white" stroke="black" points="997,-224.5 997,-243.5 1157,-243.5 1157,-224.5 997,-224.5"/>
<text text-anchor="middle" x="1077" y="-231.5" font-family="Helvetica,sans-Serif" font-size="10.00">src/sidebars/DrawSidebar.cpp</text>
</a>
</g>
</g>
<!-- Node8&#45;&gt;Node9 -->
<g id="edge9" class="edge">
<title>Node8&#45;&gt;Node9</title>
<path fill="none" stroke="midnightblue" d="M1069.85,-270.1C1071.68,-261.14 1073.77,-250.86 1075.22,-243.75"/>
<polygon fill="midnightblue" stroke="midnightblue" points="1066.38,-269.59 1067.82,-280.08 1073.24,-270.98 1066.38,-269.59"/>
</g>
<!-- Node8&#45;&gt;Node10 -->
<g id="edge10" class="edge">
<title>Node8&#45;&gt;Node10</title>
<path fill="none" stroke="midnightblue" d="M1113.14,-277.17C1131.91,-270.3 1152.27,-259.78 1166,-244 1180.2,-227.68 1183.8,-201.24 1184.71,-187.66"/>
<polygon fill="midnightblue" stroke="midnightblue" points="1111.85,-273.91 1103.51,-280.44 1114.1,-280.54 1111.85,-273.91"/>
</g>
<!-- Node10&#45;&gt;Node5 -->
<g id="edge25" class="edge">
<title>Node10&#45;&gt;Node5</title>
<path fill="none" stroke="midnightblue" d="M1110.65,-169.79C1002.46,-159.3 803.05,-139.97 697.6,-129.75"/>
<polygon fill="midnightblue" stroke="midnightblue" points="1110.54,-173.3 1120.83,-170.78 1111.22,-166.33 1110.54,-173.3"/>
</g>
<!-- Node10&#45;&gt;Node7 -->
<g id="edge17" class="edge">
<title>Node10&#45;&gt;Node7</title>
<path fill="none" stroke="midnightblue" d="M1133.22,-166.41C1083.33,-156.2 1008.8,-140.96 962.64,-131.52"/>
<polygon fill="midnightblue" stroke="midnightblue" points="1132.67,-169.87 1143.17,-168.44 1134.07,-163.01 1132.67,-169.87"/>
</g>
<!-- Node11 -->
<g id="node11" class="node">
<title>Node11</title>
<g id="a_node11"><a xlink:href="EditorCell_8cpp.html" target="_top" xlink:title="This file defines the class EditorCell.">
<polygon fill="white" stroke="black" points="1050.5,-56.5 1050.5,-75.5 1177.5,-75.5 1177.5,-56.5 1050.5,-56.5"/>
<text text-anchor="middle" x="1114" y="-63.5" font-family="Helvetica,sans-Serif" font-size="10.00">src/cells/EditorCell.cpp</text>
</a>
</g>
</g>
<!-- Node10&#45;&gt;Node11 -->
<g id="edge11" class="edge">
<title>Node10&#45;&gt;Node11</title>
<path fill="none" stroke="midnightblue" d="M1174,-159.96C1158.61,-136.12 1131.24,-93.71 1119.55,-75.59"/>
<polygon fill="midnightblue" stroke="midnightblue" points="1171.07,-161.86 1179.43,-168.37 1176.95,-158.07 1171.07,-161.86"/>
</g>
<!-- Node12 -->
<g id="node12" class="node">
<title>Node12</title>
<g id="a_node12"><a xlink:href="AutocompletePopup_8cpp.html" target="_top" xlink:title="This file defines the class AutocompletePopup.">
<polygon fill="white" stroke="black" points="1297,-112.5 1297,-131.5 1449,-131.5 1449,-112.5 1297,-112.5"/>
<text text-anchor="middle" x="1373" y="-119.5" font-family="Helvetica,sans-Serif" font-size="10.00">src/AutocompletePopup.cpp</text>
</a>
</g>
</g>
<!-- Node10&#45;&gt;Node12 -->
<g id="edge12" class="edge">
<title>Node10&#45;&gt;Node12</title>
<path fill="none" stroke="midnightblue" d="M1224.8,-165.57C1260.27,-155.38 1311.37,-140.7 1343.35,-131.52"/>
<polygon fill="midnightblue" stroke="midnightblue" points="1223.43,-162.32 1214.79,-168.44 1225.37,-169.05 1223.43,-162.32"/>
</g>
<!-- Node13 -->
<g id="node13" class="node">
<title>Node13</title>
<g id="a_node13"><a xlink:href="main_8h.html" target="_top" xlink:title="This file declares the class wxMaxima that contains most of the program&#39;s logic.">
<polygon fill="white" stroke="black" points="1196,-56.5 1196,-75.5 1264,-75.5 1264,-56.5 1196,-56.5"/>
<text text-anchor="middle" x="1230" y="-63.5" font-family="Helvetica,sans-Serif" font-size="10.00">src/main.h</text>
</a>
</g>
</g>
<!-- Node10&#45;&gt;Node13 -->
<g id="edge13" class="edge">
<title>Node10&#45;&gt;Node13</title>
<path fill="none" stroke="midnightblue" d="M1175.92,-158.94C1170.45,-145.43 1165.82,-126.81 1173,-112 1181.03,-95.43 1198.44,-83.13 1211.92,-75.61"/>
<polygon fill="midnightblue" stroke="midnightblue" points="1172.76,-160.46 1180.07,-168.13 1179.14,-157.58 1172.76,-160.46"/>
</g>
<!-- Node17 -->
<g id="node17" class="node">
<title>Node17</title>
<g id="a_node17"><a xlink:href="wxMaxima_8h.html" target="_top" xlink:title="This file declares the class wxMaxima that contains most of the program&#39;s logic.">
<polygon fill="white" stroke="black" points="1181.5,-112.5 1181.5,-131.5 1278.5,-131.5 1278.5,-112.5 1181.5,-112.5"/>
<text text-anchor="middle" x="1230" y="-119.5" font-family="Helvetica,sans-Serif" font-size="10.00">src/wxMaxima.h</text>
</a>
</g>
</g>
<!-- Node10&#45;&gt;Node17 -->
<g id="edge18" class="edge">
<title>Node10&#45;&gt;Node17</title>
<path fill="none" stroke="midnightblue" d="M1199.05,-160.14C1206.89,-150.74 1216.33,-139.4 1222.71,-131.75"/>
<polygon fill="midnightblue" stroke="midnightblue" points="1196.14,-158.16 1192.43,-168.08 1201.52,-162.64 1196.14,-158.16"/>
</g>
<!-- Node18 -->
<g id="node18" class="node">
<title>Node18</title>
<g id="a_node18"><a xlink:href="Worksheet_8cpp.html" target="_top" xlink:title="This file defines the class Worksheet.">
<polygon fill="white" stroke="black" points="1358,-56.5 1358,-75.5 1464,-75.5 1464,-56.5 1358,-56.5"/>
<text text-anchor="middle" x="1411" y="-63.5" font-family="Helvetica,sans-Serif" font-size="10.00">src/Worksheet.cpp</text>
</a>
</g>
</g>
<!-- Node10&#45;&gt;Node18 -->
<g id="edge24" class="edge">
<title>Node10&#45;&gt;Node18</title>
<path fill="none" stroke="midnightblue" d="M1259.44,-175.19C1331.35,-171.69 1432.97,-161.5 1458,-132 1474.31,-112.78 1444.06,-88.25 1424.94,-75.52"/>
<polygon fill="midnightblue" stroke="midnightblue" points="1258.89,-171.71 1249.06,-175.66 1259.21,-178.71 1258.89,-171.71"/>
</g>
<!-- Node14 -->
<g id="node14" class="node">
<title>Node14</title>
<g id="a_node14"><a xlink:href="main_8cpp.html" target="_top" xlink:title="The file that defines the starting point of the program.">
<polygon fill="white" stroke="black" points="1252.5,-0.5 1252.5,-19.5 1331.5,-19.5 1331.5,-0.5 1252.5,-0.5"/>
<text text-anchor="middle" x="1292" y="-7.5" font-family="Helvetica,sans-Serif" font-size="10.00">src/main.cpp</text>
</a>
</g>
</g>
<!-- Node13&#45;&gt;Node14 -->
<g id="edge14" class="edge">
<title>Node13&#45;&gt;Node14</title>
<path fill="none" stroke="midnightblue" d="M1247.75,-49.54C1258.81,-39.91 1272.63,-27.87 1281.86,-19.83"/>
<polygon fill="midnightblue" stroke="midnightblue" points="1245.2,-47.12 1239.96,-56.32 1249.8,-52.4 1245.2,-47.12"/>
</g>
<!-- Node15 -->
<g id="node15" class="node">
<title>Node15</title>
<g id="a_node15"><a xlink:href="MaximaManual_8cpp.html" target="_top" xlink:title="This file defines the class MaximaManual.">
<polygon fill="white" stroke="black" points="1104,-0.5 1104,-19.5 1234,-19.5 1234,-0.5 1104,-0.5"/>
<text text-anchor="middle" x="1169" y="-7.5" font-family="Helvetica,sans-Serif" font-size="10.00">src/MaximaManual.cpp</text>
</a>
</g>
</g>
<!-- Node13&#45;&gt;Node15 -->
<g id="edge15" class="edge">
<title>Node13&#45;&gt;Node15</title>
<path fill="none" stroke="midnightblue" d="M1212.53,-49.54C1201.66,-39.91 1188.06,-27.87 1178.98,-19.83"/>
<polygon fill="midnightblue" stroke="midnightblue" points="1210.39,-52.32 1220.2,-56.32 1215.03,-47.07 1210.39,-52.32"/>
</g>
<!-- Node16 -->
<g id="node16" class="node">
<title>Node16</title>
<g id="a_node16"><a xlink:href="wxMaxima_8cpp.html" target="_top" xlink:title="This file defines the contents of the class wxMaxima that contains most of the program&#39;s logic.">
<polygon fill="white" stroke="black" points="1350,-0.5 1350,-19.5 1458,-19.5 1458,-0.5 1350,-0.5"/>
<text text-anchor="middle" x="1404" y="-7.5" font-family="Helvetica,sans-Serif" font-size="10.00">src/wxMaxima.cpp</text>
</a>
</g>
</g>
<!-- Node13&#45;&gt;Node16 -->
<g id="edge16" class="edge">
<title>Node13&#45;&gt;Node16</title>
<path fill="none" stroke="midnightblue" d="M1267.26,-53.44C1300.07,-43.26 1347.08,-28.66 1376.56,-19.52"/>
<polygon fill="midnightblue" stroke="midnightblue" points="1266.08,-50.14 1257.57,-56.44 1268.16,-56.82 1266.08,-50.14"/>
</g>
<!-- Node17&#45;&gt;Node11 -->
<g id="edge19" class="edge">
<title>Node17&#45;&gt;Node11</title>
<path fill="none" stroke="midnightblue" d="M1202.28,-108.1C1180.61,-98.01 1151.1,-84.27 1132.29,-75.52"/>
<polygon fill="midnightblue" stroke="midnightblue" points="1201.08,-111.4 1211.62,-112.44 1204.03,-105.05 1201.08,-111.4"/>
</g>
<!-- Node17&#45;&gt;Node13 -->
<g id="edge20" class="edge">
<title>Node17&#45;&gt;Node13</title>
<path fill="none" stroke="midnightblue" d="M1230,-101.8C1230,-92.91 1230,-82.78 1230,-75.75"/>
<polygon fill="midnightblue" stroke="midnightblue" points="1226.5,-102.08 1230,-112.08 1233.5,-102.08 1226.5,-102.08"/>
</g>
<!-- Node17&#45;&gt;Node14 -->
<g id="edge21" class="edge">
<title>Node17&#45;&gt;Node14</title>
<path fill="none" stroke="midnightblue" d="M1248.41,-105.54C1256.96,-97.51 1266.61,-87.06 1273,-76 1283.7,-57.47 1288.79,-32.43 1290.84,-19.51"/>
<polygon fill="midnightblue" stroke="midnightblue" points="1245.81,-103.17 1240.7,-112.45 1250.48,-108.38 1245.81,-103.17"/>
</g>
<!-- Node17&#45;&gt;Node16 -->
<g id="edge23" class="edge">
<title>Node17&#45;&gt;Node16</title>
<path fill="none" stroke="midnightblue" d="M1252.13,-107.01C1288.66,-83.92 1360.48,-38.51 1390.41,-19.59"/>
<polygon fill="midnightblue" stroke="midnightblue" points="1250.24,-104.07 1243.65,-112.37 1253.98,-109.98 1250.24,-104.07"/>
</g>
<!-- Node17&#45;&gt;Node18 -->
<g id="edge22" class="edge">
<title>Node17&#45;&gt;Node18</title>
<path fill="none" stroke="midnightblue" d="M1268.32,-109.57C1302.46,-99.38 1351.66,-84.7 1382.45,-75.52"/>
<polygon fill="midnightblue" stroke="midnightblue" points="1267.26,-106.23 1258.68,-112.44 1269.26,-112.94 1267.26,-106.23"/>
</g>
<!-- Node20&#45;&gt;Node5 -->
<g id="edge29" class="edge">
<title>Node20&#45;&gt;Node5</title>
<path fill="none" stroke="midnightblue" d="M314.59,-277.65C279.15,-267.11 240.76,-249.23 260,-224 296.46,-176.19 466.2,-145.4 561.9,-131.54"/>
<polygon fill="midnightblue" stroke="midnightblue" points="313.89,-281.08 324.46,-280.42 315.79,-274.35 313.89,-281.08"/>
</g>
<!-- Node21 -->
<g id="node21" class="node">
<title>Node21</title>
<g id="a_node21"><a xlink:href="StatSidebar_8cpp.html" target="_top" xlink:title="This file defines the class StatSidebar.">
<polygon fill="white" stroke="black" points="269,-224.5 269,-243.5 423,-243.5 423,-224.5 269,-224.5"/>
<text text-anchor="middle" x="346" y="-231.5" font-family="Helvetica,sans-Serif" font-size="10.00">src/sidebars/StatSidebar.cpp</text>
</a>
</g>
</g>
<!-- Node20&#45;&gt;Node21 -->
<g id="edge28" class="edge">
<title>Node20&#45;&gt;Node21</title>
<path fill="none" stroke="midnightblue" d="M357.8,-270.4C354.79,-261.36 351.31,-250.94 348.92,-243.75"/>
<polygon fill="midnightblue" stroke="midnightblue" points="354.54,-271.7 361.03,-280.08 361.19,-269.49 354.54,-271.7"/>
</g>
<!-- Node22&#45;&gt;Node10 -->
<g id="edge32" class="edge">
<title>Node22&#45;&gt;Node10</title>
<path fill="none" stroke="midnightblue" d="M847.5,-277.47C812.79,-266.21 773.16,-247.37 794,-224 815.34,-200.06 1015.69,-187.03 1121,-181.79"/>
<polygon fill="midnightblue" stroke="midnightblue" points="846.52,-280.83 857.11,-280.44 848.59,-274.14 846.52,-280.83"/>
</g>
<!-- Node23 -->
<g id="node23" class="node">
<title>Node23</title>
<g id="a_node23"><a xlink:href="SymbolsSidebar_8cpp.html" target="_top" xlink:title="This file defines the class SymbolsSidebar.">
<polygon fill="white" stroke="black" points="803,-224.5 803,-243.5 979,-243.5 979,-224.5 803,-224.5"/>
<text text-anchor="middle" x="891" y="-231.5" font-family="Helvetica,sans-Serif" font-size="10.00">src/sidebars/SymbolsSidebar.cpp</text>
</a>
</g>
</g>
<!-- Node22&#45;&gt;Node23 -->
<g id="edge31" class="edge">
<title>Node22&#45;&gt;Node23</title>
<path fill="none" stroke="midnightblue" d="M891,-269.8C891,-260.91 891,-250.78 891,-243.75"/>
<polygon fill="midnightblue" stroke="midnightblue" points="887.5,-270.08 891,-280.08 894.5,-270.08 887.5,-270.08"/>
</g>
<!-- Node26&#45;&gt;Node27 -->
<g id="edge36" class="edge">
<title>Node26&#45;&gt;Node27</title>
<path fill="none" stroke="midnightblue" d="M1684.24,-274.1C1672,-264.38 1656.44,-252.03 1646.12,-243.83"/>
<polygon fill="midnightblue" stroke="midnightblue" points="1682.07,-276.85 1692.07,-280.32 1686.42,-271.36 1682.07,-276.85"/>
</g>
<!-- Node27&#45;&gt;Node10 -->
<g id="edge42" class="edge">
<title>Node27&#45;&gt;Node10</title>
<path fill="none" stroke="midnightblue" d="M1576.95,-224.52C1575.62,-224.34 1574.3,-224.17 1573,-224 1459.19,-209.14 1326.28,-194.26 1249.26,-185.88"/>
<polygon fill="midnightblue" stroke="midnightblue" points="1576.91,-228.05 1587.29,-225.93 1577.86,-221.11 1576.91,-228.05"/>
</g>
<!-- Node27&#45;&gt;Node18 -->
<g id="edge41" class="edge">
<title>Node27&#45;&gt;Node18</title>
<path fill="none" stroke="midnightblue" d="M1612.57,-218.96C1599.12,-210.35 1581.82,-198.91 1567,-188 1524.02,-156.34 1516.41,-144.42 1474,-112 1456.91,-98.94 1436.58,-84.63 1423.73,-75.73"/>
<polygon fill="midnightblue" stroke="midnightblue" points="1610.86,-222.02 1621.18,-224.43 1614.61,-216.11 1610.86,-222.02"/>
</g>
<!-- Node28 -->
<g id="node28" class="node">
<title>Node28</title>
<g id="a_node28"><a xlink:href="ConfigDialogue_8h.html" target="_top" xlink:title="The configuration dialog.">
<polygon fill="white" stroke="black" points="1482.5,-56.5 1482.5,-75.5 1637.5,-75.5 1637.5,-56.5 1482.5,-56.5"/>
<text text-anchor="middle" x="1560" y="-63.5" font-family="Helvetica,sans-Serif" font-size="10.00">src/dialogs/ConfigDialogue.h</text>
</a>
</g>
</g>
<!-- Node27&#45;&gt;Node28 -->
<g id="edge37" class="edge">
<title>Node27&#45;&gt;Node28</title>
<path fill="none" stroke="midnightblue" d="M1610.74,-218.92C1599.62,-211.21 1587.31,-200.64 1580,-188 1558.36,-150.59 1558.46,-96.42 1559.43,-75.6"/>
<polygon fill="midnightblue" stroke="midnightblue" points="1608.99,-221.96 1619.29,-224.48 1612.81,-216.1 1608.99,-221.96"/>
</g>
<!-- Node29 -->
<g id="node29" class="node">
<title>Node29</title>
<g id="a_node29"><a xlink:href="Printout_8cpp.html" target="_top" xlink:title="This file defines the class MathPrintOut.">
<polygon fill="white" stroke="black" points="1588.5,-168.5 1588.5,-187.5 1743.5,-187.5 1743.5,-168.5 1588.5,-168.5"/>
<text text-anchor="middle" x="1666" y="-175.5" font-family="Helvetica,sans-Serif" font-size="10.00">src/graphical_io/Printout.cpp</text>
</a>
</g>
</g>
<!-- Node27&#45;&gt;Node29 -->
<g id="edge40" class="edge">
<title>Node27&#45;&gt;Node29</title>
<path fill="none" stroke="midnightblue" d="M1645.18,-215.27C1650.47,-206.05 1656.72,-195.17 1660.98,-187.75"/>
<polygon fill="midnightblue" stroke="midnightblue" points="1642.06,-213.67 1640.12,-224.08 1648.13,-217.15 1642.06,-213.67"/>
</g>
<!-- Node28&#45;&gt;Node14 -->
<g id="edge38" class="edge">
<title>Node28&#45;&gt;Node14</title>
<path fill="none" stroke="midnightblue" d="M1507.58,-54.44C1455.97,-44.04 1378.31,-28.39 1331.65,-18.99"/>
<polygon fill="midnightblue" stroke="midnightblue" points="1507.04,-57.9 1517.53,-56.44 1508.42,-51.04 1507.04,-57.9"/>
</g>
<!-- Node28&#45;&gt;Node16 -->
<g id="edge39" class="edge">
<title>Node28&#45;&gt;Node16</title>
<path fill="none" stroke="midnightblue" d="M1525.83,-53.17C1496.46,-43 1454.8,-28.59 1428.6,-19.52"/>
<polygon fill="midnightblue" stroke="midnightblue" points="1524.69,-56.48 1535.28,-56.44 1526.98,-49.86 1524.69,-56.48"/>
</g>
<!-- Node30&#45;&gt;Node5 -->
<g id="edge45" class="edge">
<title>Node30&#45;&gt;Node5</title>
<path fill="none" stroke="midnightblue" d="M566,-276.44C581.7,-269.35 598.62,-258.85 609,-244 633.84,-208.44 631.16,-152.72 629.04,-131.55"/>
<polygon fill="midnightblue" stroke="midnightblue" points="564.33,-273.35 556.45,-280.43 567.03,-279.81 564.33,-273.35"/>
</g>
<!-- Node31 -->
<g id="node31" class="node">
<title>Node31</title>
<g id="a_node31"><a xlink:href="MathSidebar_8cpp.html" target="_top" xlink:title="This file defines the class SymbolsSidebar.">
<polygon fill="white" stroke="black" points="441.5,-224.5 441.5,-243.5 600.5,-243.5 600.5,-224.5 441.5,-224.5"/>
<text text-anchor="middle" x="521" y="-231.5" font-family="Helvetica,sans-Serif" font-size="10.00">src/sidebars/MathSidebar.cpp</text>
</a>
</g>
</g>
<!-- Node30&#45;&gt;Node31 -->
<g id="edge44" class="edge">
<title>Node30&#45;&gt;Node31</title>
<path fill="none" stroke="midnightblue" d="M525.55,-270.1C524.39,-261.14 523.06,-250.86 522.13,-243.75"/>
<polygon fill="midnightblue" stroke="midnightblue" points="522.09,-270.62 526.84,-280.08 529.03,-269.72 522.09,-270.62"/>
</g>
</g>
</svg>
        <g id="navigator" transform="translate(0 0)" fill="#404254">
                <rect fill="#f2f5e9" fill-opacity="0.5" stroke="#606060" stroke-width=".5" x="0" y="0" width="60" height="60"/>
                <use id="zoomplus" xlink:href="#zoomPlus" x="17" y="9" onmousedown="handleZoom(evt,'in')"/>
                <use id="zoomminus" xlink:href="#zoomMin" x="42" y="9" onmousedown="handleZoom(evt,'out')"/>
                <use id="reset" xlink:href="#resetDef" x="30" y="36" onmousedown="handleReset()"/>
                <g id="arrowUp" xlink:href="#dirArrow" transform="translate(30 24)" onmousedown="handlePan(0,-1)">
                  <use xlink:href="#rim" fill="#404040">
                        <set attributeName="fill" to="#808080" begin="arrowUp.mouseover" end="arrowUp.mouseout"/>
                  </use>
                  <path fill="none" stroke="white" stroke-width="1.5" d="M0,-3.0v7 M-2.5,-0.5L0,-3.0L2.5,-0.5"/>
                </g>
                <g id="arrowRight" xlink:href="#dirArrow" transform="rotate(90) translate(36 -43)" onmousedown="handlePan(1,0)">
                  <use xlink:href="#rim" fill="#404040">
                        <set attributeName="fill" to="#808080" begin="arrowRight.mouseover" end="arrowRight.mouseout"/>
                  </use>
                  <path fill="none" stroke="white" stroke-width="1.5" d="M0,-3.0v7 M-2.5,-0.5L0,-3.0L2.5,-0.5"/>
                </g>
                <g id="arrowDown" xlink:href="#dirArrow" transform="rotate(180) translate(-30 -48)" onmousedown="handlePan(0,1)">
                  <use xlink:href="#rim" fill="#404040">
                        <set attributeName="fill" to="#808080" begin="arrowDown.mouseover" end="arrowDown.mouseout"/>
                  </use>
                  <path fill="none" stroke="white" stroke-width="1.5" d="M0,-3.0v7 M-2.5,-0.5L0,-3.0L2.5,-0.5"/>
                </g>
                <g id="arrowLeft" xlink:href="#dirArrow" transform="rotate(270) translate(-36 17)" onmousedown="handlePan(-1,0)">
                  <use xlink:href="#rim" fill="#404040">
                        <set attributeName="fill" to="#808080" begin="arrowLeft.mouseover" end="arrowLeft.mouseout"/>
                  </use>
                  <path fill="none" stroke="white" stroke-width="1.5" d="M0,-3.0v7 M-2.5,-0.5L0,-3.0L2.5,-0.5"/>
                </g>
        </g>
        <svg viewBox="0 0 15 15" width="100%" height="30px" preserveAspectRatio="xMaxYMin meet">
         <g id="arrow_out" transform="scale(0.3 0.3)">
          <a xlink:href="EventIDs_8h__dep__incl_org.svg" target="_base">
           <rect id="button" ry="5" rx="5" y="6" x="6" height="38" width="38"
                fill="#f2f5e9" fill-opacity="0.5" stroke="#606060" stroke-width="1.0"/>
           <path id="arrow"
             d="M 11.500037,31.436501 C 11.940474,20.09759 22.043105,11.32322 32.158766,21.979434 L 37.068811,17.246167 C 37.068811,17.246167 37.088388,32 37.088388,32 L 22.160133,31.978069 C 22.160133,31.978069 26.997745,27.140456 26.997745,27.140456 C 18.528582,18.264221 13.291696,25.230495 11.500037,31.436501 z"
             style="fill:#404040;"/>
          </a>
         </g>
        </svg>
</svg>
