<?xml version="1.0" encoding="UTF-8" standalone="no"?>
<!DOCTYPE svg PUBLIC "-//W3C//DTD SVG 1.1//EN"
 "http://www.w3.org/Graphics/SVG/1.1/DTD/svg11.dtd">
<!-- Generated by graphviz version 2.43.0 (0)
 -->
<!-- Title: src/EventIDs.h Pages: 1 -->
<!--zoomable 364 -->
<svg id="main" version="1.1" xmlns="http://www.w3.org/2000/svg" xmlns:xlink="http://www.w3.org/1999/xlink" xml:space="preserve" onload="init(evt)">
<style type="text/css"><![CDATA[
.edge:hover path { stroke: red; }
.edge:hover polygon { stroke: red; fill: red; }
]]></style>
<script type="text/javascript"><![CDATA[
var edges = document.getElementsByTagName('g');
if (edges && edges.length) {
  for (var i=0;i<edges.length;i++) {
    if (edges[i].id.substr(0,4)=='edge') {
      edges[i].setAttribute('class','edge');
    }
  }
}
]]></script>
        <defs>
                <circle id="rim" cx="0" cy="0" r="7"/>
                <circle id="rim2" cx="0" cy="0" r="3.5"/>
                <g id="zoomPlus">
                        <use xlink:href="#rim" fill="#404040">
                                <set attributeName="fill" to="#808080" begin="zoomplus.mouseover" end="zoomplus.mouseout"/>
                        </use>
                        <path d="M-4,0h8M0,-4v8" fill="none" stroke="white" stroke-width="1.5" pointer-events="none"/>
                </g>
                <g id="zoomMin">
                        <use xlink:href="#rim" fill="#404040">
                                <set attributeName="fill" to="#808080" begin="zoomminus.mouseover" end="zoomminus.mouseout"/>
                        </use>
                        <path d="M-4,0h8" fill="none" stroke="white" stroke-width="1.5" pointer-events="none"/>
                </g>
                <g id="dirArrow">
                        <path fill="none" stroke="white" stroke-width="1.5" d="M0,-3.0v7 M-2.5,-0.5L0,-3.0L2.5,-0.5"/>
                </g>
               <g id="resetDef">
                       <use xlink:href="#rim2" fill="#404040">
                               <set attributeName="fill" to="#808080" begin="reset.mouseover" end="reset.mouseout"/>
                       </use>
               </g>
        </defs>

<script type="text/javascript">
var viewWidth = 1788;
var viewHeight = 364;
var sectionId = 'dynsection-1';
</script>
<script xlink:href="svgpan.js"/>
<svg id="graph" class="graph">
<g id="viewport">
<title>src/EventIDs.h</title>
<polygon fill="white" stroke="transparent" points="-4,4 -4,-360 1784,-360 1784,4 -4,4"/>
<!-- Node1 -->
<g id="node1" class="node">
<title>Node1</title>
<g id="a_node1"><a xlink:title="This file declares the class EventIDs that contains unique IDs for many events wxMaxima needs.">
<polygon fill="#bfbfbf" stroke="black" points="848,-336.5 848,-355.5 934,-355.5 934,-336.5 848,-336.5"/>
<text text-anchor="middle" x="891" y="-343.5" font-family="Helvetica,sans-Serif" font-size="10.00">src/EventIDs.h</text>
</a>
</g>
</g>
<!-- Node2 -->
<g id="node2" class="node">
<title>Node2</title>
<g id="a_node2"><a xlink:href="EventIDs_8cpp.html" target="_top" xlink:title="This file defines the class EventIDs that contains unique IDs for many events wxMaxima needs.">
<polygon fill="white" stroke="black" points="0,-280.5 0,-299.5 98,-299.5 98,-280.5 0,-280.5"/>
<text text-anchor="middle" x="49" y="-287.5" font-family="Helvetica,sans-Serif" font-size="10.00">src/EventIDs.cpp</text>
</a>
</g>
</g>
<!-- Node1&#45;&gt;Node2 -->
<g id="edge1" class="edge">
<title>Node1&#45;&gt;Node2</title>
<path fill="none" stroke="midnightblue" d="M837.75,-343.72C710.9,-340.28 380.96,-329.05 107,-300 104.06,-299.69 101.04,-299.33 98,-298.94"/>
<polygon fill="midnightblue" stroke="midnightblue" points="837.87,-347.22 847.96,-343.99 838.06,-340.22 837.87,-347.22"/>
</g>
<!-- Node3 -->
<g id="node3" class="node">
<title>Node3</title>
<g id="a_node3"><a xlink:href="DrawSidebar_8h.html" target="_top" xlink:title="This file declares the class StatSidebar, that provides some statistics buttons.">
<polygon fill="white" stroke="black" points="991.5,-280.5 991.5,-299.5 1140.5,-299.5 1140.5,-280.5 991.5,-280.5"/>
<text text-anchor="middle" x="1066" y="-287.5" font-family="Helvetica,sans-Serif" font-size="10.00">src/sidebars/DrawSidebar.h</text>
</a>
</g>
</g>
<!-- Node1&#45;&gt;Node3 -->
<g id="edge2" class="edge">
<title>Node1&#45;&gt;Node3</title>
<path fill="none" stroke="midnightblue" d="M928.47,-333.44C961.47,-323.26 1008.76,-308.66 1038.4,-299.52"/>
<polygon fill="midnightblue" stroke="midnightblue" points="927.25,-330.15 918.73,-336.44 929.32,-336.84 927.25,-330.15"/>
</g>
<!-- Node5 -->
<g id="node5" class="node">
<title>Node5</title>
<g id="a_node5"><a xlink:href="wxMaximaFrame_8h.html" target="_top" xlink:title="This file declares the class wxMaximaFrame.">
<polygon fill="white" stroke="black" points="1002,-168.5 1002,-187.5 1130,-187.5 1130,-168.5 1002,-168.5"/>
<text text-anchor="middle" x="1066" y="-175.5" font-family="Helvetica,sans-Serif" font-size="10.00">src/wxMaximaFrame.h</text>
</a>
</g>
</g>
<!-- Node1&#45;&gt;Node5 -->
<g id="edge47" class="edge">
<title>Node1&#45;&gt;Node5</title>
<path fill="none" stroke="midnightblue" d="M944.32,-343.68C1058.89,-340.28 1320.39,-329.37 1347,-300 1413.79,-226.3 1232.53,-195.68 1130.36,-184.55"/>
<polygon fill="midnightblue" stroke="midnightblue" points="943.92,-340.19 934.03,-343.97 944.13,-347.18 943.92,-340.19"/>
</g>
<!-- Node16 -->
<g id="node16" class="node">
<title>Node16</title>
<g id="a_node16"><a xlink:href="FormatSidebar_8h.html" target="_top" xlink:title="This file declares the class StatSidebar, that provides some statistics buttons.">
<polygon fill="white" stroke="black" points="282,-280.5 282,-299.5 440,-299.5 440,-280.5 282,-280.5"/>
<text text-anchor="middle" x="361" y="-287.5" font-family="Helvetica,sans-Serif" font-size="10.00">src/sidebars/FormatSidebar.h</text>
</a>
</g>
</g>
<!-- Node1&#45;&gt;Node16 -->
<g id="edge20" class="edge">
<title>Node1&#45;&gt;Node16</title>
<path fill="none" stroke="midnightblue" d="M837.76,-339.59C754.72,-331.14 589.33,-314.32 449,-300 446.1,-299.7 443.14,-299.4 440.15,-299.1"/>
<polygon fill="midnightblue" stroke="midnightblue" points="837.41,-343.07 847.71,-340.6 838.12,-336.11 837.41,-343.07"/>
</g>
<!-- Node18 -->
<g id="node18" class="node">
<title>Node18</title>
<g id="a_node18"><a xlink:href="GreekSidebar_8h.html" target="_top" xlink:title="This file declares the class wxMaximaFrame.">
<polygon fill="white" stroke="black" points="658,-168.5 658,-187.5 810,-187.5 810,-168.5 658,-168.5"/>
<text text-anchor="middle" x="734" y="-175.5" font-family="Helvetica,sans-Serif" font-size="10.00">src/sidebars/GreekSidebar.h</text>
</a>
</g>
</g>
<!-- Node1&#45;&gt;Node18 -->
<g id="edge23" class="edge">
<title>Node1&#45;&gt;Node18</title>
<path fill="none" stroke="midnightblue" d="M837.44,-342.77C773.58,-338.85 672.48,-328.25 649,-300 615.85,-260.12 687.94,-207.84 719.82,-187.56"/>
<polygon fill="midnightblue" stroke="midnightblue" points="837.56,-346.28 847.74,-343.36 837.96,-339.29 837.56,-346.28"/>
</g>
<!-- Node19 -->
<g id="node19" class="node">
<title>Node19</title>
<g id="a_node19"><a xlink:href="History_8cpp.html" target="_top" xlink:title="This file defines the class History.">
<polygon fill="white" stroke="black" points="658,-280.5 658,-299.5 790,-299.5 790,-280.5 658,-280.5"/>
<text text-anchor="middle" x="724" y="-287.5" font-family="Helvetica,sans-Serif" font-size="10.00">src/sidebars/History.cpp</text>
</a>
</g>
</g>
<!-- Node1&#45;&gt;Node19 -->
<g id="edge26" class="edge">
<title>Node1&#45;&gt;Node19</title>
<path fill="none" stroke="midnightblue" d="M854.83,-333.3C823.36,-323.13 778.51,-308.62 750.34,-299.52"/>
<polygon fill="midnightblue" stroke="midnightblue" points="853.95,-336.7 864.54,-336.44 856.1,-330.04 853.95,-336.7"/>
</g>
<!-- Node20 -->
<g id="node20" class="node">
<title>Node20</title>
<g id="a_node20"><a xlink:href="MathSidebar_8h.html" target="_top" xlink:title="This file declares the class wxMaximaFrame.">
<polygon fill="white" stroke="black" points="116,-280.5 116,-299.5 264,-299.5 264,-280.5 116,-280.5"/>
<text text-anchor="middle" x="190" y="-287.5" font-family="Helvetica,sans-Serif" font-size="10.00">src/sidebars/MathSidebar.h</text>
</a>
</g>
</g>
<!-- Node1&#45;&gt;Node20 -->
<g id="edge27" class="edge">
<title>Node1&#45;&gt;Node20</title>
<path fill="none" stroke="midnightblue" d="M837.65,-341.75C730.53,-335.09 481.66,-318.9 273,-300 270.11,-299.74 267.17,-299.46 264.2,-299.18"/>
<polygon fill="midnightblue" stroke="midnightblue" points="837.68,-345.26 847.88,-342.39 838.11,-338.27 837.68,-345.26"/>
</g>
<!-- Node22 -->
<g id="node22" class="node">
<title>Node22</title>
<g id="a_node22"><a xlink:href="StatSidebar_8h.html" target="_top" xlink:title="This file declares the class StatSidebar, that provides some statistics buttons.">
<polygon fill="white" stroke="black" points="458.5,-280.5 458.5,-299.5 601.5,-299.5 601.5,-280.5 458.5,-280.5"/>
<text text-anchor="middle" x="530" y="-287.5" font-family="Helvetica,sans-Serif" font-size="10.00">src/sidebars/StatSidebar.h</text>
</a>
</g>
</g>
<!-- Node1&#45;&gt;Node22 -->
<g id="edge30" class="edge">
<title>Node1&#45;&gt;Node22</title>
<path fill="none" stroke="midnightblue" d="M837.87,-337.05C770.75,-327.01 655.73,-309.81 586.89,-299.51"/>
<polygon fill="midnightblue" stroke="midnightblue" points="837.41,-340.52 847.81,-338.54 838.44,-333.6 837.41,-340.52"/>
</g>
<!-- Node24 -->
<g id="node24" class="node">
<title>Node24</title>
<g id="a_node24"><a xlink:href="TableOfContents_8cpp.html" target="_top" xlink:title="This file defines the class Structure.">
<polygon fill="white" stroke="black" points="1158.5,-280.5 1158.5,-299.5 1337.5,-299.5 1337.5,-280.5 1158.5,-280.5"/>
<text text-anchor="middle" x="1248" y="-287.5" font-family="Helvetica,sans-Serif" font-size="10.00">src/sidebars/TableOfContents.cpp</text>
</a>
</g>
</g>
<!-- Node1&#45;&gt;Node24 -->
<g id="edge33" class="edge">
<title>Node1&#45;&gt;Node24</title>
<path fill="none" stroke="midnightblue" d="M944.31,-336.94C1010.73,-326.89 1123.72,-309.8 1191.56,-299.54"/>
<polygon fill="midnightblue" stroke="midnightblue" points="943.43,-333.53 934.06,-338.49 944.47,-340.45 943.43,-333.53"/>
</g>
<!-- Node25 -->
<g id="node25" class="node">
<title>Node25</title>
<g id="a_node25"><a xlink:href="SymbolsSidebar_8h.html" target="_top" xlink:title="This file declares the class wxMaximaFrame.">
<polygon fill="white" stroke="black" points="808.5,-280.5 808.5,-299.5 973.5,-299.5 973.5,-280.5 808.5,-280.5"/>
<text text-anchor="middle" x="891" y="-287.5" font-family="Helvetica,sans-Serif" font-size="10.00">src/sidebars/SymbolsSidebar.h</text>
</a>
</g>
</g>
<!-- Node1&#45;&gt;Node25 -->
<g id="edge34" class="edge">
<title>Node1&#45;&gt;Node25</title>
<path fill="none" stroke="midnightblue" d="M891,-325.8C891,-316.91 891,-306.78 891,-299.75"/>
<polygon fill="midnightblue" stroke="midnightblue" points="887.5,-326.08 891,-336.08 894.5,-326.08 887.5,-326.08"/>
</g>
<!-- Node27 -->
<g id="node27" class="node">
<title>Node27</title>
<g id="a_node27"><a xlink:href="VariablesPane_8h.html" target="_top" xlink:title="The file that contains the &quot;variables&quot; sidepane.">
<polygon fill="white" stroke="black" points="1432.5,-280.5 1432.5,-299.5 1587.5,-299.5 1587.5,-280.5 1432.5,-280.5"/>
<text text-anchor="middle" x="1510" y="-287.5" font-family="Helvetica,sans-Serif" font-size="10.00">src/sidebars/VariablesPane.h</text>
</a>
</g>
</g>
<!-- Node1&#45;&gt;Node27 -->
<g id="edge37" class="edge">
<title>Node1&#45;&gt;Node27</title>
<path fill="none" stroke="midnightblue" d="M944.28,-340.67C1039.42,-332.89 1244.81,-315.87 1418,-300 1422.63,-299.58 1427.4,-299.13 1432.21,-298.68"/>
<polygon fill="midnightblue" stroke="midnightblue" points="943.73,-337.2 934.05,-341.5 944.3,-344.18 943.73,-337.2"/>
</g>
<!-- Node28 -->
<g id="node28" class="node">
<title>Node28</title>
<g id="a_node28"><a xlink:href="Worksheet_8h.html" target="_top" xlink:title="This file defines the class Worksheet.">
<polygon fill="white" stroke="black" points="1394.5,-224.5 1394.5,-243.5 1489.5,-243.5 1489.5,-224.5 1394.5,-224.5"/>
<text text-anchor="middle" x="1442" y="-231.5" font-family="Helvetica,sans-Serif" font-size="10.00">src/Worksheet.h</text>
</a>
</g>
</g>
<!-- Node1&#45;&gt;Node28 -->
<g id="edge46" class="edge">
<title>Node1&#45;&gt;Node28</title>
<path fill="none" stroke="midnightblue" d="M944.26,-344.76C1054.61,-343.52 1304.25,-336.63 1380,-300 1406.39,-287.24 1427.46,-258.16 1436.79,-243.62"/>
<polygon fill="midnightblue" stroke="midnightblue" points="943.99,-341.27 934.02,-344.87 944.06,-348.27 943.99,-341.27"/>
</g>
<!-- Node31 -->
<g id="node31" class="node">
<title>Node31</title>
<g id="a_node31"><a xlink:href="UnicodeSidebar_8cpp.html" target="_top" xlink:title="This file defines the class UnicodeSidebar.">
<polygon fill="white" stroke="black" points="1606,-280.5 1606,-299.5 1780,-299.5 1780,-280.5 1606,-280.5"/>
<text text-anchor="middle" x="1693" y="-287.5" font-family="Helvetica,sans-Serif" font-size="10.00">src/sidebars/UnicodeSidebar.cpp</text>
</a>
</g>
</g>
<!-- Node1&#45;&gt;Node31 -->
<g id="edge45" class="edge">
<title>Node1&#45;&gt;Node31</title>
<path fill="none" stroke="midnightblue" d="M944.19,-342.15C1061.9,-335.73 1353.35,-319.18 1597,-300 1599.92,-299.77 1602.89,-299.53 1605.89,-299.28"/>
<polygon fill="midnightblue" stroke="midnightblue" points="943.81,-338.67 934.01,-342.71 944.19,-345.66 943.81,-338.67"/>
</g>
<!-- Node4 -->
<g id="node4" class="node">
<title>Node4</title>
<g id="a_node4"><a xlink:href="DrawSidebar_8cpp.html" target="_top" xlink:title="This file defines the class StatSidebar.">
<polygon fill="white" stroke="black" points="1094,-224.5 1094,-243.5 1254,-243.5 1254,-224.5 1094,-224.5"/>
<text text-anchor="middle" x="1174" y="-231.5" font-family="Helvetica,sans-Serif" font-size="10.00">src/sidebars/DrawSidebar.cpp</text>
</a>
</g>
</g>
<!-- Node3&#45;&gt;Node4 -->
<g id="edge3" class="edge">
<title>Node3&#45;&gt;Node4</title>
<path fill="none" stroke="midnightblue" d="M1092.55,-275.73C1112.55,-265.73 1139.39,-252.31 1156.69,-243.65"/>
<polygon fill="midnightblue" stroke="midnightblue" points="1090.73,-272.72 1083.35,-280.32 1093.86,-278.98 1090.73,-272.72"/>
</g>
<!-- Node3&#45;&gt;Node5 -->
<g id="edge4" class="edge">
<title>Node3&#45;&gt;Node5</title>
<path fill="none" stroke="midnightblue" d="M1066,-270.35C1066,-246.25 1066,-205.31 1066,-187.59"/>
<polygon fill="midnightblue" stroke="midnightblue" points="1062.5,-270.37 1066,-280.37 1069.5,-270.37 1062.5,-270.37"/>
</g>
<!-- Node6 -->
<g id="node6" class="node">
<title>Node6</title>
<g id="a_node6"><a xlink:href="AutocompletePopup_8cpp.html" target="_top" xlink:title="This file defines the class AutocompletePopup.">
<polygon fill="white" stroke="black" points="1141,-112.5 1141,-131.5 1293,-131.5 1293,-112.5 1141,-112.5"/>
<text text-anchor="middle" x="1217" y="-119.5" font-family="Helvetica,sans-Serif" font-size="10.00">src/AutocompletePopup.cpp</text>
</a>
</g>
</g>
<!-- Node5&#45;&gt;Node6 -->
<g id="edge5" class="edge">
<title>Node5&#45;&gt;Node6</title>
<path fill="none" stroke="midnightblue" d="M1099.45,-165.04C1127.86,-154.88 1167.94,-140.55 1193.19,-131.52"/>
<polygon fill="midnightblue" stroke="midnightblue" points="1098.16,-161.78 1089.93,-168.44 1100.52,-168.37 1098.16,-161.78"/>
</g>
<!-- Node7 -->
<g id="node7" class="node">
<title>Node7</title>
<g id="a_node7"><a xlink:href="EditorCell_8cpp.html" target="_top" xlink:title="This file defines the class EditorCell.">
<polygon fill="white" stroke="black" points="1010.5,-56.5 1010.5,-75.5 1137.5,-75.5 1137.5,-56.5 1010.5,-56.5"/>
<text text-anchor="middle" x="1074" y="-63.5" font-family="Helvetica,sans-Serif" font-size="10.00">src/cells/EditorCell.cpp</text>
</a>
</g>
</g>
<!-- Node5&#45;&gt;Node7 -->
<g id="edge6" class="edge">
<title>Node5&#45;&gt;Node7</title>
<path fill="none" stroke="midnightblue" d="M1042.96,-162.58C1026.14,-150.08 1007.76,-131.06 1017,-112 1025.03,-95.43 1042.44,-83.13 1055.92,-75.61"/>
<polygon fill="midnightblue" stroke="midnightblue" points="1041.25,-165.65 1051.46,-168.48 1045.24,-159.9 1041.25,-165.65"/>
</g>
<!-- Node8 -->
<g id="node8" class="node">
<title>Node8</title>
<g id="a_node8"><a xlink:href="main_8h.html" target="_top" xlink:title="This file declares the class wxMaxima that contains most of the program&#39;s logic.">
<polygon fill="white" stroke="black" points="924,-56.5 924,-75.5 992,-75.5 992,-56.5 924,-56.5"/>
<text text-anchor="middle" x="958" y="-63.5" font-family="Helvetica,sans-Serif" font-size="10.00">src/main.h</text>
</a>
</g>
</g>
<!-- Node5&#45;&gt;Node8 -->
<g id="edge7" class="edge">
<title>Node5&#45;&gt;Node8</title>
<path fill="none" stroke="midnightblue" d="M1045.58,-162.31C1034.55,-153.97 1020.98,-143.01 1010,-132 991.63,-113.59 973.38,-88.93 964.17,-75.92"/>
<polygon fill="midnightblue" stroke="midnightblue" points="1043.67,-165.25 1053.78,-168.4 1047.84,-159.63 1043.67,-165.25"/>
</g>
<!-- Node12 -->
<g id="node12" class="node">
<title>Node12</title>
<g id="a_node12"><a xlink:href="GreekSidebar_8cpp.html" target="_top" xlink:title="This file defines the class GreekSidebar.">
<polygon fill="white" stroke="black" points="745,-112.5 745,-131.5 909,-131.5 909,-112.5 745,-112.5"/>
<text text-anchor="middle" x="827" y="-119.5" font-family="Helvetica,sans-Serif" font-size="10.00">src/sidebars/GreekSidebar.cpp</text>
</a>
</g>
</g>
<!-- Node5&#45;&gt;Node12 -->
<g id="edge11" class="edge">
<title>Node5&#45;&gt;Node12</title>
<path fill="none" stroke="midnightblue" d="M1018.28,-166.22C973.11,-156.01 906.23,-140.9 864.69,-131.52"/>
<polygon fill="midnightblue" stroke="midnightblue" points="1017.6,-169.65 1028.13,-168.44 1019.15,-162.83 1017.6,-169.65"/>
</g>
<!-- Node13 -->
<g id="node13" class="node">
<title>Node13</title>
<g id="a_node13"><a xlink:href="Worksheet_8cpp.html" target="_top" xlink:title="This file defines the class Worksheet.">
<polygon fill="white" stroke="black" points="1232,-56.5 1232,-75.5 1338,-75.5 1338,-56.5 1232,-56.5"/>
<text text-anchor="middle" x="1285" y="-63.5" font-family="Helvetica,sans-Serif" font-size="10.00">src/Worksheet.cpp</text>
</a>
</g>
</g>
<!-- Node5&#45;&gt;Node13 -->
<g id="edge12" class="edge">
<title>Node5&#45;&gt;Node13</title>
<path fill="none" stroke="midnightblue" d="M1140.3,-172.92C1201.6,-167.82 1281.69,-156.54 1302,-132 1315.68,-115.46 1300.91,-89.12 1291.52,-75.61"/>
<polygon fill="midnightblue" stroke="midnightblue" points="1139.94,-169.44 1130.25,-173.72 1140.49,-176.42 1139.94,-169.44"/>
</g>
<!-- Node14 -->
<g id="node14" class="node">
<title>Node14</title>
<g id="a_node14"><a xlink:href="wxMaxima_8h.html" target="_top" xlink:title="This file declares the class wxMaxima that contains most of the program&#39;s logic.">
<polygon fill="white" stroke="black" points="1025.5,-112.5 1025.5,-131.5 1122.5,-131.5 1122.5,-112.5 1025.5,-112.5"/>
<text text-anchor="middle" x="1074" y="-119.5" font-family="Helvetica,sans-Serif" font-size="10.00">src/wxMaxima.h</text>
</a>
</g>
</g>
<!-- Node5&#45;&gt;Node14 -->
<g id="edge13" class="edge">
<title>Node5&#45;&gt;Node14</title>
<path fill="none" stroke="midnightblue" d="M1068.8,-158.1C1070.13,-149.14 1071.65,-138.86 1072.7,-131.75"/>
<polygon fill="midnightblue" stroke="midnightblue" points="1065.32,-157.68 1067.32,-168.08 1072.25,-158.7 1065.32,-157.68"/>
</g>
<!-- Node15 -->
<g id="node15" class="node">
<title>Node15</title>
<g id="a_node15"><a xlink:href="wxMaximaFrame_8cpp.html" target="_top" xlink:title="This file defines the class wxMaximaFrame.">
<polygon fill="white" stroke="black" points="560.5,-112.5 560.5,-131.5 699.5,-131.5 699.5,-112.5 560.5,-112.5"/>
<text text-anchor="middle" x="630" y="-119.5" font-family="Helvetica,sans-Serif" font-size="10.00">src/wxMaximaFrame.cpp</text>
</a>
</g>
</g>
<!-- Node5&#45;&gt;Node15 -->
<g id="edge19" class="edge">
<title>Node5&#45;&gt;Node15</title>
<path fill="none" stroke="midnightblue" d="M991.67,-167.79C909.64,-157.63 778.71,-141.42 698.92,-131.54"/>
<polygon fill="midnightblue" stroke="midnightblue" points="991.31,-171.28 1001.67,-169.03 992.17,-164.33 991.31,-171.28"/>
</g>
<!-- Node9 -->
<g id="node9" class="node">
<title>Node9</title>
<g id="a_node9"><a xlink:href="main_8cpp.html" target="_top" xlink:title="The file that defines the starting point of the program.">
<polygon fill="white" stroke="black" points="1089.5,-0.5 1089.5,-19.5 1168.5,-19.5 1168.5,-0.5 1089.5,-0.5"/>
<text text-anchor="middle" x="1129" y="-7.5" font-family="Helvetica,sans-Serif" font-size="10.00">src/main.cpp</text>
</a>
</g>
</g>
<!-- Node8&#45;&gt;Node9 -->
<g id="edge8" class="edge">
<title>Node8&#45;&gt;Node9</title>
<path fill="none" stroke="midnightblue" d="M995.04,-53.3C1027.26,-43.13 1073.19,-28.62 1102.03,-19.52"/>
<polygon fill="midnightblue" stroke="midnightblue" points="993.58,-50.09 985.1,-56.44 995.69,-56.77 993.58,-50.09"/>
</g>
<!-- Node10 -->
<g id="node10" class="node">
<title>Node10</title>
<g id="a_node10"><a xlink:href="MaximaManual_8cpp.html" target="_top" xlink:title="This file defines the class MaximaManual.">
<polygon fill="white" stroke="black" points="893,-0.5 893,-19.5 1023,-19.5 1023,-0.5 893,-0.5"/>
<text text-anchor="middle" x="958" y="-7.5" font-family="Helvetica,sans-Serif" font-size="10.00">src/MaximaManual.cpp</text>
</a>
</g>
</g>
<!-- Node8&#45;&gt;Node10 -->
<g id="edge9" class="edge">
<title>Node8&#45;&gt;Node10</title>
<path fill="none" stroke="midnightblue" d="M958,-45.8C958,-36.91 958,-26.78 958,-19.75"/>
<polygon fill="midnightblue" stroke="midnightblue" points="954.5,-46.08 958,-56.08 961.5,-46.08 954.5,-46.08"/>
</g>
<!-- Node11 -->
<g id="node11" class="node">
<title>Node11</title>
<g id="a_node11"><a xlink:href="wxMaxima_8cpp.html" target="_top" xlink:title="This file defines the contents of the class wxMaxima that contains most of the program&#39;s logic.">
<polygon fill="white" stroke="black" points="1187,-0.5 1187,-19.5 1295,-19.5 1295,-0.5 1187,-0.5"/>
<text text-anchor="middle" x="1241" y="-7.5" font-family="Helvetica,sans-Serif" font-size="10.00">src/wxMaxima.cpp</text>
</a>
</g>
</g>
<!-- Node8&#45;&gt;Node11 -->
<g id="edge10" class="edge">
<title>Node8&#45;&gt;Node11</title>
<path fill="none" stroke="midnightblue" d="M1001.7,-56.06C1001.8,-56.04 1001.9,-56.02 1002,-56 1068.7,-42.9 1146.04,-28.48 1194.25,-19.58"/>
<polygon fill="midnightblue" stroke="midnightblue" points="1001.22,-52.59 992.1,-57.97 1002.59,-59.45 1001.22,-52.59"/>
</g>
<!-- Node14&#45;&gt;Node7 -->
<g id="edge14" class="edge">
<title>Node14&#45;&gt;Node7</title>
<path fill="none" stroke="midnightblue" d="M1074,-101.8C1074,-92.91 1074,-82.78 1074,-75.75"/>
<polygon fill="midnightblue" stroke="midnightblue" points="1070.5,-102.08 1074,-112.08 1077.5,-102.08 1070.5,-102.08"/>
</g>
<!-- Node14&#45;&gt;Node8 -->
<g id="edge16" class="edge">
<title>Node14&#45;&gt;Node8</title>
<path fill="none" stroke="midnightblue" d="M1046.28,-108.1C1024.61,-98.01 995.1,-84.27 976.29,-75.52"/>
<polygon fill="midnightblue" stroke="midnightblue" points="1045.08,-111.4 1055.62,-112.44 1048.03,-105.05 1045.08,-111.4"/>
</g>
<!-- Node14&#45;&gt;Node9 -->
<g id="edge15" class="edge">
<title>Node14&#45;&gt;Node9</title>
<path fill="none" stroke="midnightblue" d="M1109.45,-108.2C1123.78,-101.06 1138.84,-90.61 1147,-76 1157.27,-57.6 1144.2,-32.94 1135.53,-19.92"/>
<polygon fill="midnightblue" stroke="midnightblue" points="1107.85,-105.08 1100.21,-112.41 1110.76,-111.44 1107.85,-105.08"/>
</g>
<!-- Node14&#45;&gt;Node11 -->
<g id="edge18" class="edge">
<title>Node14&#45;&gt;Node11</title>
<path fill="none" stroke="midnightblue" d="M1102.76,-108.23C1120.39,-99.93 1143.11,-88.39 1162,-76 1189.03,-58.27 1217.55,-32.9 1231.79,-19.71"/>
<polygon fill="midnightblue" stroke="midnightblue" points="1101.16,-105.11 1093.55,-112.49 1104.09,-111.47 1101.16,-105.11"/>
</g>
<!-- Node14&#45;&gt;Node13 -->
<g id="edge17" class="edge">
<title>Node14&#45;&gt;Node13</title>
<path fill="none" stroke="midnightblue" d="M1117.14,-109.96C1156.99,-99.76 1215.36,-84.82 1251.72,-75.52"/>
<polygon fill="midnightblue" stroke="midnightblue" points="1116.25,-106.57 1107.43,-112.44 1117.99,-113.35 1116.25,-106.57"/>
</g>
<!-- Node16&#45;&gt;Node15 -->
<g id="edge22" class="edge">
<title>Node16&#45;&gt;Node15</title>
<path fill="none" stroke="midnightblue" d="M307.95,-277.91C270.78,-267.64 231.02,-250 251,-224 288.45,-175.27 461.5,-145.05 560.32,-131.46"/>
<polygon fill="midnightblue" stroke="midnightblue" points="307.25,-281.35 317.81,-280.49 309.02,-274.57 307.25,-281.35"/>
</g>
<!-- Node17 -->
<g id="node17" class="node">
<title>Node17</title>
<g id="a_node17"><a xlink:href="FormatSidebar_8cpp.html" target="_top" xlink:title="This file defines the class FormatSidebar.">
<polygon fill="white" stroke="black" points="260.5,-224.5 260.5,-243.5 429.5,-243.5 429.5,-224.5 260.5,-224.5"/>
<text text-anchor="middle" x="345" y="-231.5" font-family="Helvetica,sans-Serif" font-size="10.00">src/sidebars/FormatSidebar.cpp</text>
</a>
</g>
</g>
<!-- Node16&#45;&gt;Node17 -->
<g id="edge21" class="edge">
<title>Node16&#45;&gt;Node17</title>
<path fill="none" stroke="midnightblue" d="M355.49,-270.4C352.81,-261.36 349.72,-250.94 347.59,-243.75"/>
<polygon fill="midnightblue" stroke="midnightblue" points="352.16,-271.49 358.36,-280.08 358.87,-269.5 352.16,-271.49"/>
</g>
<!-- Node18&#45;&gt;Node12 -->
<g id="edge24" class="edge">
<title>Node18&#45;&gt;Node12</title>
<path fill="none" stroke="midnightblue" d="M757.81,-163.18C774.92,-153.24 797.47,-140.15 812.1,-131.65"/>
<polygon fill="midnightblue" stroke="midnightblue" points="755.83,-160.28 748.94,-168.32 759.35,-166.33 755.83,-160.28"/>
</g>
<!-- Node18&#45;&gt;Node15 -->
<g id="edge25" class="edge">
<title>Node18&#45;&gt;Node15</title>
<path fill="none" stroke="midnightblue" d="M708.17,-163.59C688.94,-153.61 663.26,-140.27 646.67,-131.65"/>
<polygon fill="midnightblue" stroke="midnightblue" points="706.8,-166.82 717.29,-168.32 710.03,-160.61 706.8,-166.82"/>
</g>
<!-- Node20&#45;&gt;Node15 -->
<g id="edge29" class="edge">
<title>Node20&#45;&gt;Node15</title>
<path fill="none" stroke="midnightblue" d="M200.33,-271.86C218.13,-244.16 257.46,-190.41 307,-168 350.91,-148.14 479.27,-134.79 560.34,-128.08"/>
<polygon fill="midnightblue" stroke="midnightblue" points="197.28,-270.14 194.96,-280.48 203.22,-273.84 197.28,-270.14"/>
</g>
<!-- Node21 -->
<g id="node21" class="node">
<title>Node21</title>
<g id="a_node21"><a xlink:href="MathSidebar_8cpp.html" target="_top" xlink:title="This file defines the class SymbolsSidebar.">
<polygon fill="white" stroke="black" points="8.5,-224.5 8.5,-243.5 167.5,-243.5 167.5,-224.5 8.5,-224.5"/>
<text text-anchor="middle" x="88" y="-231.5" font-family="Helvetica,sans-Serif" font-size="10.00">src/sidebars/MathSidebar.cpp</text>
</a>
</g>
</g>
<!-- Node20&#45;&gt;Node21 -->
<g id="edge28" class="edge">
<title>Node20&#45;&gt;Node21</title>
<path fill="none" stroke="midnightblue" d="M164.67,-275.59C145.81,-265.61 120.62,-252.27 104.35,-243.65"/>
<polygon fill="midnightblue" stroke="midnightblue" points="163.14,-278.74 173.61,-280.32 166.41,-272.55 163.14,-278.74"/>
</g>
<!-- Node22&#45;&gt;Node15 -->
<g id="edge32" class="edge">
<title>Node22&#45;&gt;Node15</title>
<path fill="none" stroke="midnightblue" d="M568,-276.44C583.7,-269.35 600.62,-258.85 611,-244 635.84,-208.44 633.16,-152.72 631.04,-131.55"/>
<polygon fill="midnightblue" stroke="midnightblue" points="566.33,-273.35 558.45,-280.43 569.03,-279.81 566.33,-273.35"/>
</g>
<!-- Node23 -->
<g id="node23" class="node">
<title>Node23</title>
<g id="a_node23"><a xlink:href="StatSidebar_8cpp.html" target="_top" xlink:title="This file defines the class StatSidebar.">
<polygon fill="white" stroke="black" points="448,-224.5 448,-243.5 602,-243.5 602,-224.5 448,-224.5"/>
<text text-anchor="middle" x="525" y="-231.5" font-family="Helvetica,sans-Serif" font-size="10.00">src/sidebars/StatSidebar.cpp</text>
</a>
</g>
</g>
<!-- Node22&#45;&gt;Node23 -->
<g id="edge31" class="edge">
<title>Node22&#45;&gt;Node23</title>
<path fill="none" stroke="midnightblue" d="M528.25,-270.1C527.42,-261.14 526.47,-250.86 525.81,-243.75"/>
<polygon fill="midnightblue" stroke="midnightblue" points="524.77,-270.45 529.17,-280.08 531.74,-269.8 524.77,-270.45"/>
</g>
<!-- Node25&#45;&gt;Node5 -->
<g id="edge36" class="edge">
<title>Node25&#45;&gt;Node5</title>
<path fill="none" stroke="midnightblue" d="M871.54,-273.6C856.56,-259.87 840.36,-239.59 853,-224 871.51,-201.17 946.12,-189.47 1001.85,-183.81"/>
<polygon fill="midnightblue" stroke="midnightblue" points="869.69,-276.62 879.55,-280.48 874.25,-271.31 869.69,-276.62"/>
</g>
<!-- Node26 -->
<g id="node26" class="node">
<title>Node26</title>
<g id="a_node26"><a xlink:href="SymbolsSidebar_8cpp.html" target="_top" xlink:title="This file defines the class SymbolsSidebar.">
<polygon fill="white" stroke="black" points="862,-224.5 862,-243.5 1038,-243.5 1038,-224.5 862,-224.5"/>
<text text-anchor="middle" x="950" y="-231.5" font-family="Helvetica,sans-Serif" font-size="10.00">src/sidebars/SymbolsSidebar.cpp</text>
</a>
</g>
</g>
<!-- Node25&#45;&gt;Node26 -->
<g id="edge35" class="edge">
<title>Node25&#45;&gt;Node26</title>
<path fill="none" stroke="midnightblue" d="M907.89,-273.54C918.41,-263.91 931.57,-251.87 940.35,-243.83"/>
<polygon fill="midnightblue" stroke="midnightblue" points="905.49,-270.99 900.48,-280.32 910.22,-276.15 905.49,-270.99"/>
</g>
<!-- Node27&#45;&gt;Node28 -->
<g id="edge38" class="edge">
<title>Node27&#45;&gt;Node28</title>
<path fill="none" stroke="midnightblue" d="M1491.24,-274.1C1479,-264.38 1463.44,-252.03 1453.12,-243.83"/>
<polygon fill="midnightblue" stroke="midnightblue" points="1489.07,-276.85 1499.07,-280.32 1493.42,-271.36 1489.07,-276.85"/>
</g>
<!-- Node28&#45;&gt;Node5 -->
<g id="edge44" class="edge">
<title>Node28&#45;&gt;Node5</title>
<path fill="none" stroke="midnightblue" d="M1383.95,-224.57C1382.62,-224.38 1381.3,-224.19 1380,-224 1291.43,-211.22 1188.78,-196.54 1125.62,-187.51"/>
<polygon fill="midnightblue" stroke="midnightblue" points="1383.88,-228.1 1394.27,-226.06 1384.88,-221.17 1383.88,-228.1"/>
</g>
<!-- Node28&#45;&gt;Node13 -->
<g id="edge43" class="edge">
<title>Node28&#45;&gt;Node13</title>
<path fill="none" stroke="midnightblue" d="M1426.54,-216.65C1393.71,-181.94 1318.01,-101.9 1293.1,-75.57"/>
<polygon fill="midnightblue" stroke="midnightblue" points="1424.14,-219.21 1433.56,-224.08 1429.23,-214.4 1424.14,-219.21"/>
</g>
<!-- Node29 -->
<g id="node29" class="node">
<title>Node29</title>
<g id="a_node29"><a xlink:href="ConfigDialogue_8h.html" target="_top" xlink:title="The configuration dialog.">
<polygon fill="white" stroke="black" points="1356.5,-56.5 1356.5,-75.5 1511.5,-75.5 1511.5,-56.5 1356.5,-56.5"/>
<text text-anchor="middle" x="1434" y="-63.5" font-family="Helvetica,sans-Serif" font-size="10.00">src/dialogs/ConfigDialogue.h</text>
</a>
</g>
</g>
<!-- Node28&#45;&gt;Node29 -->
<g id="edge39" class="edge">
<title>Node28&#45;&gt;Node29</title>
<path fill="none" stroke="midnightblue" d="M1441.08,-213.93C1439.35,-177.92 1435.65,-101.23 1434.41,-75.57"/>
<polygon fill="midnightblue" stroke="midnightblue" points="1437.59,-214.26 1441.57,-224.08 1444.58,-213.92 1437.59,-214.26"/>
</g>
<!-- Node30 -->
<g id="node30" class="node">
<title>Node30</title>
<g id="a_node30"><a xlink:href="Printout_8cpp.html" target="_top" xlink:title="This file defines the class MathPrintOut.">
<polygon fill="white" stroke="black" points="1462.5,-168.5 1462.5,-187.5 1617.5,-187.5 1617.5,-168.5 1462.5,-168.5"/>
<text text-anchor="middle" x="1540" y="-175.5" font-family="Helvetica,sans-Serif" font-size="10.00">src/graphical_io/Printout.cpp</text>
</a>
</g>
</g>
<!-- Node28&#45;&gt;Node30 -->
<g id="edge42" class="edge">
<title>Node28&#45;&gt;Node30</title>
<path fill="none" stroke="midnightblue" d="M1466.59,-219.45C1484.68,-209.48 1508.73,-196.23 1524.29,-187.65"/>
<polygon fill="midnightblue" stroke="midnightblue" points="1464.81,-216.43 1457.75,-224.32 1468.19,-222.56 1464.81,-216.43"/>
</g>
<!-- Node29&#45;&gt;Node9 -->
<g id="edge40" class="edge">
<title>Node29&#45;&gt;Node9</title>
<path fill="none" stroke="midnightblue" d="M1374.88,-54.74C1322.97,-45.7 1245.45,-32.12 1178,-20 1174.94,-19.45 1171.76,-18.88 1168.58,-18.3"/>
<polygon fill="midnightblue" stroke="midnightblue" points="1374.45,-58.22 1384.9,-56.48 1375.65,-51.32 1374.45,-58.22"/>
</g>
<!-- Node29&#45;&gt;Node11 -->
<g id="edge41" class="edge">
<title>Node29&#45;&gt;Node11</title>
<path fill="none" stroke="midnightblue" d="M1393.61,-53.7C1357.18,-43.51 1304.41,-28.74 1271.44,-19.52"/>
<polygon fill="midnightblue" stroke="midnightblue" points="1392.85,-57.12 1403.42,-56.44 1394.73,-50.38 1392.85,-57.12"/>
</g>
</g>
</svg>
        <g id="navigator" transform="translate(0 0)" fill="#404254">
                <rect fill="#f2f5e9" fill-opacity="0.5" stroke="#606060" stroke-width=".5" x="0" y="0" width="60" height="60"/>
                <use id="zoomplus" xlink:href="#zoomPlus" x="17" y="9" onmousedown="handleZoom(evt,'in')"/>
                <use id="zoomminus" xlink:href="#zoomMin" x="42" y="9" onmousedown="handleZoom(evt,'out')"/>
                <use id="reset" xlink:href="#resetDef" x="30" y="36" onmousedown="handleReset()"/>
                <g id="arrowUp" xlink:href="#dirArrow" transform="translate(30 24)" onmousedown="handlePan(0,-1)">
                  <use xlink:href="#rim" fill="#404040">
                        <set attributeName="fill" to="#808080" begin="arrowUp.mouseover" end="arrowUp.mouseout"/>
                  </use>
                  <path fill="none" stroke="white" stroke-width="1.5" d="M0,-3.0v7 M-2.5,-0.5L0,-3.0L2.5,-0.5"/>
                </g>
                <g id="arrowRight" xlink:href="#dirArrow" transform="rotate(90) translate(36 -43)" onmousedown="handlePan(1,0)">
                  <use xlink:href="#rim" fill="#404040">
                        <set attributeName="fill" to="#808080" begin="arrowRight.mouseover" end="arrowRight.mouseout"/>
                  </use>
                  <path fill="none" stroke="white" stroke-width="1.5" d="M0,-3.0v7 M-2.5,-0.5L0,-3.0L2.5,-0.5"/>
                </g>
                <g id="arrowDown" xlink:href="#dirArrow" transform="rotate(180) translate(-30 -48)" onmousedown="handlePan(0,1)">
                  <use xlink:href="#rim" fill="#404040">
                        <set attributeName="fill" to="#808080" begin="arrowDown.mouseover" end="arrowDown.mouseout"/>
                  </use>
                  <path fill="none" stroke="white" stroke-width="1.5" d="M0,-3.0v7 M-2.5,-0.5L0,-3.0L2.5,-0.5"/>
                </g>
                <g id="arrowLeft" xlink:href="#dirArrow" transform="rotate(270) translate(-36 17)" onmousedown="handlePan(-1,0)">
                  <use xlink:href="#rim" fill="#404040">
                        <set attributeName="fill" to="#808080" begin="arrowLeft.mouseover" end="arrowLeft.mouseout"/>
                  </use>
                  <path fill="none" stroke="white" stroke-width="1.5" d="M0,-3.0v7 M-2.5,-0.5L0,-3.0L2.5,-0.5"/>
                </g>
        </g>
        <svg viewBox="0 0 15 15" width="100%" height="30px" preserveAspectRatio="xMaxYMin meet">
         <g id="arrow_out" transform="scale(0.3 0.3)">
          <a xlink:href="EventIDs_8h__dep__incl_org.svg" target="_base">
           <rect id="button" ry="5" rx="5" y="6" x="6" height="38" width="38"
                fill="#f2f5e9" fill-opacity="0.5" stroke="#606060" stroke-width="1.0"/>
           <path id="arrow"
             d="M 11.500037,31.436501 C 11.940474,20.09759 22.043105,11.32322 32.158766,21.979434 L 37.068811,17.246167 C 37.068811,17.246167 37.088388,32 37.088388,32 L 22.160133,31.978069 C 22.160133,31.978069 26.997745,27.140456 26.997745,27.140456 C 18.528582,18.264221 13.291696,25.230495 11.500037,31.436501 z"
             style="fill:#404040;"/>
          </a>
         </g>
        </svg>
</svg>
