<?xml version="1.0" encoding="UTF-8" standalone="no"?>
<!DOCTYPE svg PUBLIC "-//W3C//DTD SVG 1.1//EN"
 "http://www.w3.org/Graphics/SVG/1.1/DTD/svg11.dtd">
<!-- Generated by graphviz version 2.43.0 (0)
 -->
<!-- Title: src/EventIDs.cpp Pages: 1 -->
<svg width="1717pt" height="302pt"
 viewBox="0.00 0.00 1717.00 302.00" xmlns="http://www.w3.org/2000/svg" xmlns:xlink="http://www.w3.org/1999/xlink">
<g id="graph0" class="graph" transform="scale(1 1) rotate(0) translate(4 298)">
<title>src/EventIDs.cpp</title>
<!-- Node1 -->
<g id="node1" class="node">
<title>Node1</title>
<g id="a_node1"><a xlink:title="This file defines the class EventIDs that contains unique IDs for many events wxMaxima needs.">
<polygon fill="#999999" stroke="#666666" points="1585,-294 1487,-294 1487,-275 1585,-275 1585,-294"/>
<text text-anchor="middle" x="1536" y="-282" font-family="Helvetica,sans-Serif" font-size="10.00">src/EventIDs.cpp</text>
</a>
</g>
</g>
<!-- Node2 -->
<g id="node2" class="node">
<title>Node2</title>
<g id="a_node2"><a xlink:href="Configuration_8h_source.html" target="_top" xlink:title=" ">
<polygon fill="white" stroke="#666666" points="889.5,-239 798.5,-239 798.5,-220 889.5,-220 889.5,-239"/>
<text text-anchor="middle" x="844" y="-227" font-family="Helvetica,sans-Serif" font-size="10.00">Configuration.h</text>
</a>
</g>
</g>
<!-- Node1&#45;&gt;Node2 -->
<g id="edge1" class="edge">
<title>Node1&#45;&gt;Node2</title>
<path fill="none" stroke="#63b8ff" d="M1486.79,-279.73C1361.72,-270.15 1032.27,-244.92 900.07,-234.79"/>
<polygon fill="#63b8ff" stroke="#63b8ff" points="900.01,-231.28 889.77,-234.01 899.48,-238.26 900.01,-231.28"/>
</g>
<!-- Node40 -->
<g id="node40" class="node">
<title>Node40</title>
<g id="a_node40"><a xlink:href="EventIDs_8h.html" target="_top" xlink:title="This file declares the class EventIDs that contains unique IDs for many events wxMaxima needs.">
<polygon fill="white" stroke="#666666" points="1528.5,-239 1459.5,-239 1459.5,-220 1528.5,-220 1528.5,-239"/>
<text text-anchor="middle" x="1494" y="-227" font-family="Helvetica,sans-Serif" font-size="10.00">EventIDs.h</text>
</a>
</g>
</g>
<!-- Node1&#45;&gt;Node40 -->
<g id="edge56" class="edge">
<title>Node1&#45;&gt;Node40</title>
<path fill="none" stroke="#63b8ff" d="M1529.06,-274.75C1523.13,-267.26 1514.43,-256.28 1507.18,-247.13"/>
<polygon fill="#63b8ff" stroke="#63b8ff" points="1509.76,-244.75 1500.81,-239.09 1504.27,-249.1 1509.76,-244.75"/>
</g>
<!-- Node43 -->
<g id="node43" class="node">
<title>Node43</title>
<g id="a_node43"><a xlink:title=" ">
<polygon fill="#e0e0e0" stroke="#999999" points="1611,-239 1547,-239 1547,-220 1611,-220 1611,-239"/>
<text text-anchor="middle" x="1579" y="-227" font-family="Helvetica,sans-Serif" font-size="10.00">wx/utils.h</text>
</a>
</g>
</g>
<!-- Node1&#45;&gt;Node43 -->
<g id="edge60" class="edge">
<title>Node1&#45;&gt;Node43</title>
<path fill="none" stroke="#63b8ff" d="M1543.1,-274.75C1549.17,-267.26 1558.09,-256.28 1565.51,-247.13"/>
<polygon fill="#63b8ff" stroke="#63b8ff" points="1568.45,-249.06 1572.03,-239.09 1563.01,-244.65 1568.45,-249.06"/>
</g>
<!-- Node44 -->
<g id="node44" class="node">
<title>Node44</title>
<g id="a_node44"><a xlink:title=" ">
<polygon fill="#e0e0e0" stroke="#999999" points="1709,-239 1629,-239 1629,-220 1709,-220 1709,-239"/>
<text text-anchor="middle" x="1669" y="-227" font-family="Helvetica,sans-Serif" font-size="10.00">wx/window.h</text>
</a>
</g>
</g>
<!-- Node1&#45;&gt;Node44 -->
<g id="edge61" class="edge">
<title>Node1&#45;&gt;Node44</title>
<path fill="none" stroke="#63b8ff" d="M1557.37,-274.98C1579.15,-266.3 1613.16,-252.75 1637.92,-242.88"/>
<polygon fill="#63b8ff" stroke="#63b8ff" points="1639.25,-246.12 1647.24,-239.17 1636.66,-239.62 1639.25,-246.12"/>
</g>
<!-- Node3 -->
<g id="node3" class="node">
<title>Node3</title>
<g id="a_node3"><a xlink:href="precomp_8h_source.html" target="_top" xlink:title=" ">
<polygon fill="white" stroke="#666666" points="1126,-74 1058,-74 1058,-55 1126,-55 1126,-74"/>
<text text-anchor="middle" x="1092" y="-62" font-family="Helvetica,sans-Serif" font-size="10.00">precomp.h</text>
</a>
</g>
</g>
<!-- Node2&#45;&gt;Node3 -->
<g id="edge2" class="edge">
<title>Node2&#45;&gt;Node3</title>
<path fill="none" stroke="#63b8ff" d="M889.73,-224.58C949.78,-218.64 1051.11,-205.72 1081,-184 1109.71,-163.13 1118.11,-144.77 1111,-110 1109.11,-100.74 1105.21,-91.03 1101.43,-83.04"/>
<polygon fill="#63b8ff" stroke="#63b8ff" points="1104.51,-81.37 1096.88,-74.02 1098.26,-84.53 1104.51,-81.37"/>
</g>
<!-- Node5 -->
<g id="node5" class="node">
<title>Node5</title>
<g id="a_node5"><a xlink:title=" ">
<polygon fill="#e0e0e0" stroke="#999999" points="1488.5,-184 1431.5,-184 1431.5,-165 1488.5,-165 1488.5,-184"/>
<text text-anchor="middle" x="1460" y="-172" font-family="Helvetica,sans-Serif" font-size="10.00">wx/wx.h</text>
</a>
</g>
</g>
<!-- Node2&#45;&gt;Node5 -->
<g id="edge4" class="edge">
<title>Node2&#45;&gt;Node5</title>
<path fill="none" stroke="#63b8ff" d="M889.5,-226.79C986.73,-222.73 1221.77,-210.78 1417,-184 1418.46,-183.8 1419.95,-183.58 1421.45,-183.35"/>
<polygon fill="#63b8ff" stroke="#63b8ff" points="1422.13,-186.78 1431.4,-181.64 1420.95,-179.88 1422.13,-186.78"/>
</g>
<!-- Node6 -->
<g id="node6" class="node">
<title>Node6</title>
<g id="a_node6"><a xlink:title=" ">
<polygon fill="#e0e0e0" stroke="#999999" points="981,-129 909,-129 909,-110 981,-110 981,-129"/>
<text text-anchor="middle" x="945" y="-117" font-family="Helvetica,sans-Serif" font-size="10.00">wx/config.h</text>
</a>
</g>
</g>
<!-- Node2&#45;&gt;Node6 -->
<g id="edge5" class="edge">
<title>Node2&#45;&gt;Node6</title>
<path fill="none" stroke="#63b8ff" d="M889.87,-223.19C936.25,-216.77 1003.27,-204.23 1019,-184 1034.92,-163.53 1005.29,-144.82 978.92,-133.09"/>
<polygon fill="#63b8ff" stroke="#63b8ff" points="980.02,-129.76 969.45,-129.1 977.3,-136.21 980.02,-129.76"/>
</g>
<!-- Node7 -->
<g id="node7" class="node">
<title>Node7</title>
<g id="a_node7"><a xlink:title=" ">
<polygon fill="#e0e0e0" stroke="#999999" points="454.5,-184 377.5,-184 377.5,-165 454.5,-165 454.5,-184"/>
<text text-anchor="middle" x="416" y="-172" font-family="Helvetica,sans-Serif" font-size="10.00">wx/display.h</text>
</a>
</g>
</g>
<!-- Node2&#45;&gt;Node7 -->
<g id="edge6" class="edge">
<title>Node2&#45;&gt;Node7</title>
<path fill="none" stroke="#63b8ff" d="M798.26,-224.02C728.65,-217.01 591.73,-202.47 465.01,-184.07"/>
<polygon fill="#63b8ff" stroke="#63b8ff" points="465.14,-180.55 454.74,-182.56 464.13,-187.47 465.14,-180.55"/>
</g>
<!-- Node8 -->
<g id="node8" class="node">
<title>Node8</title>
<g id="a_node8"><a xlink:title=" ">
<polygon fill="#e0e0e0" stroke="#999999" points="563,-184 473,-184 473,-165 563,-165 563,-184"/>
<text text-anchor="middle" x="518" y="-172" font-family="Helvetica,sans-Serif" font-size="10.00">wx/fontenum.h</text>
</a>
</g>
</g>
<!-- Node2&#45;&gt;Node8 -->
<g id="edge7" class="edge">
<title>Node2&#45;&gt;Node8</title>
<path fill="none" stroke="#63b8ff" d="M798.33,-221.07C739.32,-211.48 636.66,-194.79 573.3,-184.49"/>
<polygon fill="#63b8ff" stroke="#63b8ff" points="573.53,-180.98 563.1,-182.83 572.41,-187.89 573.53,-180.98"/>
</g>
<!-- Node9 -->
<g id="node9" class="node">
<title>Node9</title>
<g id="a_node9"><a xlink:title=" ">
<polygon fill="#e0e0e0" stroke="#999999" points="1087,-129 999,-129 999,-110 1087,-110 1087,-129"/>
<text text-anchor="middle" x="1043" y="-117" font-family="Helvetica,sans-Serif" font-size="10.00">wx/hashmap.h</text>
</a>
</g>
</g>
<!-- Node2&#45;&gt;Node9 -->
<g id="edge8" class="edge">
<title>Node2&#45;&gt;Node9</title>
<path fill="none" stroke="#63b8ff" d="M889.7,-223.96C940.19,-217.94 1016.91,-205.49 1036,-184 1046.7,-171.96 1047.51,-153.15 1046.21,-139.13"/>
<polygon fill="#63b8ff" stroke="#63b8ff" points="1049.67,-138.57 1044.87,-129.12 1042.73,-139.5 1049.67,-138.57"/>
</g>
<!-- Node10 -->
<g id="node10" class="node">
<title>Node10</title>
<g id="a_node10"><a xlink:href="LoggingMessageDialog_8h.html" target="_top" xlink:title="This file declares a message dialog that sends its contents to the log message sink.">
<polygon fill="white" stroke="#666666" points="1366.5,-184 1189.5,-184 1189.5,-165 1366.5,-165 1366.5,-184"/>
<text text-anchor="middle" x="1278" y="-172" font-family="Helvetica,sans-Serif" font-size="10.00">dialogs/LoggingMessageDialog.h</text>
</a>
</g>
</g>
<!-- Node2&#45;&gt;Node10 -->
<g id="edge9" class="edge">
<title>Node2&#45;&gt;Node10</title>
<path fill="none" stroke="#63b8ff" d="M889.63,-222.93C962.83,-213.99 1107.49,-196.32 1198.11,-185.26"/>
<polygon fill="#63b8ff" stroke="#63b8ff" points="1198.57,-188.73 1208.07,-184.04 1197.72,-181.78 1198.57,-188.73"/>
</g>
<!-- Node13 -->
<g id="node13" class="node">
<title>Node13</title>
<g id="a_node13"><a xlink:href="TextStyle_8h.html" target="_top" xlink:title="This file declares everything needed for the text style system used to style all the elements on the ...">
<polygon fill="white" stroke="#666666" points="359,-184 263,-184 263,-165 359,-165 359,-184"/>
<text text-anchor="middle" x="311" y="-172" font-family="Helvetica,sans-Serif" font-size="10.00">cells/TextStyle.h</text>
</a>
</g>
</g>
<!-- Node2&#45;&gt;Node13 -->
<g id="edge13" class="edge">
<title>Node2&#45;&gt;Node13</title>
<path fill="none" stroke="#63b8ff" d="M798.29,-225.07C715.12,-218.63 533.24,-203.73 369.44,-184.11"/>
<polygon fill="#63b8ff" stroke="#63b8ff" points="369.52,-180.6 359.18,-182.87 368.69,-187.55 369.52,-180.6"/>
</g>
<!-- Node20 -->
<g id="node20" class="node">
<title>Node20</title>
<g id="a_node20"><a xlink:title=" ">
<polygon fill="#e0e0e0" stroke="#999999" points="313,-74 263,-74 263,-55 313,-55 313,-74"/>
<text text-anchor="middle" x="288" y="-62" font-family="Helvetica,sans-Serif" font-size="10.00">cstdint</text>
</a>
</g>
</g>
<!-- Node2&#45;&gt;Node20 -->
<g id="edge45" class="edge">
<title>Node2&#45;&gt;Node20</title>
<path fill="none" stroke="#63b8ff" d="M798.28,-229.12C698.37,-229.59 453.54,-225.93 254,-184 182.05,-168.88 140.47,-189.01 98,-129 39.72,-46.65 -20.22,-138.9 253,-74 253.1,-73.98 253.2,-73.95 253.3,-73.93"/>
<polygon fill="#63b8ff" stroke="#63b8ff" points="253.86,-77.39 262.77,-71.66 252.23,-70.59 253.86,-77.39"/>
</g>
<!-- Node27 -->
<g id="node27" class="node">
<title>Node27</title>
<g id="a_node27"><a xlink:title=" ">
<polygon fill="#e0e0e0" stroke="#999999" points="64,-74 0,-74 0,-55 64,-55 64,-74"/>
<text text-anchor="middle" x="32" y="-62" font-family="Helvetica,sans-Serif" font-size="10.00">algorithm</text>
</a>
</g>
</g>
<!-- Node2&#45;&gt;Node27 -->
<g id="edge52" class="edge">
<title>Node2&#45;&gt;Node27</title>
<path fill="none" stroke="#63b8ff" d="M798.46,-228.34C645.32,-227.46 155.13,-221.7 96,-184 60.13,-161.13 42.92,-110.92 35.96,-83.78"/>
<polygon fill="#63b8ff" stroke="#63b8ff" points="39.36,-82.93 33.65,-74 32.55,-84.54 39.36,-82.93"/>
</g>
<!-- Node30 -->
<g id="node30" class="node">
<title>Node30</title>
<g id="a_node30"><a xlink:title=" ">
<polygon fill="#e0e0e0" stroke="#999999" points="1317,-74 1259,-74 1259,-55 1317,-55 1317,-74"/>
<text text-anchor="middle" x="1288" y="-62" font-family="Helvetica,sans-Serif" font-size="10.00">memory</text>
</a>
</g>
</g>
<!-- Node2&#45;&gt;Node30 -->
<g id="edge46" class="edge">
<title>Node2&#45;&gt;Node30</title>
<path fill="none" stroke="#63b8ff" d="M889.57,-228.13C1012.25,-226.65 1342.44,-219.41 1375,-184 1387.99,-169.88 1381.36,-136.51 1362,-110 1351.77,-96 1335.68,-85.56 1321.11,-78.33"/>
<polygon fill="#63b8ff" stroke="#63b8ff" points="1322.38,-75.06 1311.84,-74.04 1319.44,-81.41 1322.38,-75.06"/>
</g>
<!-- Node31 -->
<g id="node31" class="node">
<title>Node31</title>
<g id="a_node31"><a xlink:title=" ">
<polygon fill="#e0e0e0" stroke="#999999" points="979,-74 947,-74 947,-55 979,-55 979,-74"/>
<text text-anchor="middle" x="963" y="-62" font-family="Helvetica,sans-Serif" font-size="10.00">list</text>
</a>
</g>
</g>
<!-- Node2&#45;&gt;Node31 -->
<g id="edge50" class="edge">
<title>Node2&#45;&gt;Node31</title>
<path fill="none" stroke="#63b8ff" d="M889.9,-228.01C935.17,-225.53 1004.7,-216.17 1055,-184 1080.68,-167.57 1086.4,-157.94 1096,-129 1111.15,-83.33 1032.27,-70.49 989.33,-66.89"/>
<polygon fill="#63b8ff" stroke="#63b8ff" points="989.49,-63.4 979.27,-66.16 988.99,-70.38 989.49,-63.4"/>
</g>
<!-- Node33 -->
<g id="node33" class="node">
<title>Node33</title>
<g id="a_node33"><a xlink:title=" ">
<polygon fill="#e0e0e0" stroke="#999999" points="244.5,-74 151.5,-74 151.5,-55 244.5,-55 244.5,-74"/>
<text text-anchor="middle" x="198" y="-62" font-family="Helvetica,sans-Serif" font-size="10.00">unordered_map</text>
</a>
</g>
</g>
<!-- Node2&#45;&gt;Node33 -->
<g id="edge48" class="edge">
<title>Node2&#45;&gt;Node33</title>
<path fill="none" stroke="#63b8ff" d="M798.38,-227.5C651.24,-224.03 195.21,-211.18 135,-184 97.65,-167.14 56.69,-143.7 80,-110 94,-89.75 118.47,-78.71 141.5,-72.69"/>
<polygon fill="#63b8ff" stroke="#63b8ff" points="142.32,-76.09 151.25,-70.4 140.72,-69.27 142.32,-76.09"/>
</g>
<!-- Node34 -->
<g id="node34" class="node">
<title>Node34</title>
<g id="a_node34"><a xlink:title=" ">
<polygon fill="#e0e0e0" stroke="#999999" points="629,-184 581,-184 581,-165 629,-165 629,-184"/>
<text text-anchor="middle" x="605" y="-172" font-family="Helvetica,sans-Serif" font-size="10.00">mutex</text>
</a>
</g>
</g>
<!-- Node2&#45;&gt;Node34 -->
<g id="edge47" class="edge">
<title>Node2&#45;&gt;Node34</title>
<path fill="none" stroke="#63b8ff" d="M802.07,-219.95C762.48,-211.76 701.23,-198.8 639.1,-184.19"/>
<polygon fill="#63b8ff" stroke="#63b8ff" points="639.66,-180.73 629.12,-181.83 638.05,-187.54 639.66,-180.73"/>
</g>
<!-- Node35 -->
<g id="node35" class="node">
<title>Node35</title>
<g id="a_node35"><a xlink:title=" ">
<polygon fill="#e0e0e0" stroke="#999999" points="701,-184 647,-184 647,-165 701,-165 701,-184"/>
<text text-anchor="middle" x="674" y="-172" font-family="Helvetica,sans-Serif" font-size="10.00">random</text>
</a>
</g>
</g>
<!-- Node2&#45;&gt;Node35 -->
<g id="edge49" class="edge">
<title>Node2&#45;&gt;Node35</title>
<path fill="none" stroke="#63b8ff" d="M816.69,-219.98C788.06,-211.06 742.91,-196.98 711.08,-187.06"/>
<polygon fill="#63b8ff" stroke="#63b8ff" points="711.83,-183.63 701.25,-183.99 709.75,-190.31 711.83,-183.63"/>
</g>
<!-- Node36 -->
<g id="node36" class="node">
<title>Node36</title>
<g id="a_node36"><a xlink:title=" ">
<polygon fill="#e0e0e0" stroke="#999999" points="766.5,-184 719.5,-184 719.5,-165 766.5,-165 766.5,-184"/>
<text text-anchor="middle" x="743" y="-172" font-family="Helvetica,sans-Serif" font-size="10.00">vector</text>
</a>
</g>
</g>
<!-- Node2&#45;&gt;Node36 -->
<g id="edge51" class="edge">
<title>Node2&#45;&gt;Node36</title>
<path fill="none" stroke="#63b8ff" d="M827.77,-219.98C811.82,-211.61 787.22,-198.7 768.62,-188.95"/>
<polygon fill="#63b8ff" stroke="#63b8ff" points="770,-185.72 759.52,-184.17 766.75,-191.92 770,-185.72"/>
</g>
<!-- Node37 -->
<g id="node37" class="node">
<title>Node37</title>
<g id="a_node37"><a xlink:title=" ">
<polygon fill="#e0e0e0" stroke="#999999" points="835,-184 785,-184 785,-165 835,-165 835,-184"/>
<text text-anchor="middle" x="810" y="-172" font-family="Helvetica,sans-Serif" font-size="10.00">atomic</text>
</a>
</g>
</g>
<!-- Node2&#45;&gt;Node37 -->
<g id="edge53" class="edge">
<title>Node2&#45;&gt;Node37</title>
<path fill="none" stroke="#63b8ff" d="M838.39,-219.75C833.68,-212.42 826.83,-201.73 821.03,-192.7"/>
<polygon fill="#63b8ff" stroke="#63b8ff" points="823.86,-190.62 815.51,-184.09 817.96,-194.4 823.86,-190.62"/>
</g>
<!-- Node38 -->
<g id="node38" class="node">
<title>Node38</title>
<g id="a_node38"><a xlink:title=" ">
<polygon fill="#e0e0e0" stroke="#999999" points="903,-184 853,-184 853,-165 903,-165 903,-184"/>
<text text-anchor="middle" x="878" y="-172" font-family="Helvetica,sans-Serif" font-size="10.00">chrono</text>
</a>
</g>
</g>
<!-- Node2&#45;&gt;Node38 -->
<g id="edge54" class="edge">
<title>Node2&#45;&gt;Node38</title>
<path fill="none" stroke="#63b8ff" d="M849.61,-219.75C854.32,-212.42 861.17,-201.73 866.97,-192.7"/>
<polygon fill="#63b8ff" stroke="#63b8ff" points="870.04,-194.4 872.49,-184.09 864.14,-190.62 870.04,-194.4"/>
</g>
<!-- Node39 -->
<g id="node39" class="node">
<title>Node39</title>
<g id="a_node39"><a xlink:title=" ">
<polygon fill="#e0e0e0" stroke="#999999" points="1010.5,-184 921.5,-184 921.5,-165 1010.5,-165 1010.5,-184"/>
<text text-anchor="middle" x="966" y="-172" font-family="Helvetica,sans-Serif" font-size="10.00">wx/wupdlock.h</text>
</a>
</g>
</g>
<!-- Node2&#45;&gt;Node39 -->
<g id="edge55" class="edge">
<title>Node2&#45;&gt;Node39</title>
<path fill="none" stroke="#63b8ff" d="M863.6,-219.98C883.32,-211.42 913.95,-198.11 936.58,-188.28"/>
<polygon fill="#63b8ff" stroke="#63b8ff" points="938.26,-191.37 946.04,-184.17 935.48,-184.94 938.26,-191.37"/>
</g>
<!-- Node4 -->
<g id="node4" class="node">
<title>Node4</title>
<g id="a_node4"><a xlink:title=" ">
<polygon fill="#e0e0e0" stroke="#999999" points="1123,-19 1061,-19 1061,0 1123,0 1123,-19"/>
<text text-anchor="middle" x="1092" y="-7" font-family="Helvetica,sans-Serif" font-size="10.00">Version.h</text>
</a>
</g>
</g>
<!-- Node3&#45;&gt;Node4 -->
<g id="edge3" class="edge">
<title>Node3&#45;&gt;Node4</title>
<path fill="none" stroke="#63b8ff" d="M1092,-54.75C1092,-47.8 1092,-37.85 1092,-29.13"/>
<polygon fill="#63b8ff" stroke="#63b8ff" points="1095.5,-29.09 1092,-19.09 1088.5,-29.09 1095.5,-29.09"/>
</g>
<!-- Node10&#45;&gt;Node3 -->
<g id="edge10" class="edge">
<title>Node10&#45;&gt;Node3</title>
<path fill="none" stroke="#63b8ff" d="M1299.29,-164.9C1325.1,-153.27 1363.03,-131.48 1345,-110 1318.87,-78.87 1201.72,-69.51 1136.39,-66.7"/>
<polygon fill="#63b8ff" stroke="#63b8ff" points="1136.5,-63.2 1126.37,-66.3 1136.22,-70.2 1136.5,-63.2"/>
</g>
<!-- Node11 -->
<g id="node11" class="node">
<title>Node11</title>
<g id="a_node11"><a xlink:title=" ">
<polygon fill="#e0e0e0" stroke="#999999" points="1336.5,-129 1257.5,-129 1257.5,-110 1336.5,-110 1336.5,-129"/>
<text text-anchor="middle" x="1297" y="-117" font-family="Helvetica,sans-Serif" font-size="10.00">wx/msgdlg.h</text>
</a>
</g>
</g>
<!-- Node10&#45;&gt;Node11 -->
<g id="edge11" class="edge">
<title>Node10&#45;&gt;Node11</title>
<path fill="none" stroke="#63b8ff" d="M1281.14,-164.75C1283.68,-157.65 1287.36,-147.4 1290.53,-138.56"/>
<polygon fill="#63b8ff" stroke="#63b8ff" points="1293.84,-139.68 1293.92,-129.09 1287.25,-137.32 1293.84,-139.68"/>
</g>
<!-- Node12 -->
<g id="node12" class="node">
<title>Node12</title>
<g id="a_node12"><a xlink:title=" ">
<polygon fill="#e0e0e0" stroke="#999999" points="1239,-129 1181,-129 1181,-110 1239,-110 1239,-129"/>
<text text-anchor="middle" x="1210" y="-117" font-family="Helvetica,sans-Serif" font-size="10.00">wx/log.h</text>
</a>
</g>
</g>
<!-- Node10&#45;&gt;Node12 -->
<g id="edge12" class="edge">
<title>Node10&#45;&gt;Node12</title>
<path fill="none" stroke="#63b8ff" d="M1267.07,-164.98C1256.92,-157.07 1241.58,-145.11 1229.35,-135.58"/>
<polygon fill="#63b8ff" stroke="#63b8ff" points="1231.16,-132.56 1221.12,-129.17 1226.86,-138.08 1231.16,-132.56"/>
</g>
<!-- Node13&#45;&gt;Node3 -->
<g id="edge14" class="edge">
<title>Node13&#45;&gt;Node3</title>
<path fill="none" stroke="#63b8ff" d="M359.17,-166.06C362.15,-165.68 365.12,-165.32 368,-165 586.36,-140.78 648.87,-186.14 861,-129 879.62,-123.99 881.83,-116.44 900,-110 949.29,-92.53 1008.17,-80.06 1047.61,-72.85"/>
<polygon fill="#63b8ff" stroke="#63b8ff" points="1048.47,-76.25 1057.7,-71.04 1047.24,-69.36 1048.47,-76.25"/>
</g>
<!-- Node13&#45;&gt;Node6 -->
<g id="edge20" class="edge">
<title>Node13&#45;&gt;Node6</title>
<path fill="none" stroke="#63b8ff" d="M359.17,-166.04C362.15,-165.66 365.12,-165.31 368,-165 601.4,-139.67 661.87,-156.71 895,-129 896.25,-128.85 897.52,-128.69 898.81,-128.52"/>
<polygon fill="#63b8ff" stroke="#63b8ff" points="899.34,-131.98 908.74,-127.1 898.35,-125.05 899.34,-131.98"/>
</g>
<!-- Node13&#45;&gt;Node9 -->
<g id="edge17" class="edge">
<title>Node13&#45;&gt;Node9</title>
<path fill="none" stroke="#63b8ff" d="M359.16,-166.01C362.15,-165.64 365.11,-165.3 368,-165 640.08,-136.9 712.95,-158.42 988.49,-129.04"/>
<polygon fill="#63b8ff" stroke="#63b8ff" points="989.23,-132.48 998.8,-127.93 988.48,-125.53 989.23,-132.48"/>
</g>
<!-- Node14 -->
<g id="node14" class="node">
<title>Node14</title>
<g id="a_node14"><a xlink:title=" ">
<polygon fill="#e0e0e0" stroke="#999999" points="505,-129 433,-129 433,-110 505,-110 505,-129"/>
<text text-anchor="middle" x="469" y="-117" font-family="Helvetica,sans-Serif" font-size="10.00">wx/colour.h</text>
</a>
</g>
</g>
<!-- Node13&#45;&gt;Node14 -->
<g id="edge15" class="edge">
<title>Node13&#45;&gt;Node14</title>
<path fill="none" stroke="#63b8ff" d="M336.39,-164.98C362.8,-156.13 404.35,-142.19 433.89,-132.28"/>
<polygon fill="#63b8ff" stroke="#63b8ff" points="435.05,-135.58 443.42,-129.08 432.82,-128.94 435.05,-135.58"/>
</g>
<!-- Node15 -->
<g id="node15" class="node">
<title>Node15</title>
<g id="a_node15"><a xlink:title=" ">
<polygon fill="#e0e0e0" stroke="#999999" points="661,-129 623,-129 623,-110 661,-110 661,-129"/>
<text text-anchor="middle" x="642" y="-117" font-family="Helvetica,sans-Serif" font-size="10.00">map</text>
</a>
</g>
</g>
<!-- Node13&#45;&gt;Node15 -->
<g id="edge16" class="edge">
<title>Node13&#45;&gt;Node15</title>
<path fill="none" stroke="#63b8ff" d="M359.2,-166.3C362.18,-165.86 365.13,-165.42 368,-165 474.11,-149.32 504.41,-152.88 612.79,-128.98"/>
<polygon fill="#63b8ff" stroke="#63b8ff" points="613.82,-132.33 622.82,-126.73 612.3,-125.5 613.82,-132.33"/>
</g>
<!-- Node16 -->
<g id="node16" class="node">
<title>Node16</title>
<g id="a_node16"><a xlink:title=" ">
<polygon fill="#e0e0e0" stroke="#999999" points="723,-129 679,-129 679,-110 723,-110 723,-129"/>
<text text-anchor="middle" x="701" y="-117" font-family="Helvetica,sans-Serif" font-size="10.00">string</text>
</a>
</g>
</g>
<!-- Node13&#45;&gt;Node16 -->
<g id="edge18" class="edge">
<title>Node13&#45;&gt;Node16</title>
<path fill="none" stroke="#63b8ff" d="M359.19,-166.21C362.17,-165.79 365.12,-165.39 368,-165 498.7,-147.47 535.55,-154.57 668.57,-129.01"/>
<polygon fill="#63b8ff" stroke="#63b8ff" points="669.6,-132.38 678.74,-127.03 668.26,-125.51 669.6,-132.38"/>
</g>
<!-- Node17 -->
<g id="node17" class="node">
<title>Node17</title>
<g id="a_node17"><a xlink:title=" ">
<polygon fill="#e0e0e0" stroke="#999999" points="164.5,-129 107.5,-129 107.5,-110 164.5,-110 164.5,-129"/>
<text text-anchor="middle" x="136" y="-117" font-family="Helvetica,sans-Serif" font-size="10.00">ostream</text>
</a>
</g>
</g>
<!-- Node13&#45;&gt;Node17 -->
<g id="edge19" class="edge">
<title>Node13&#45;&gt;Node17</title>
<path fill="none" stroke="#63b8ff" d="M282.88,-164.98C253.38,-156.05 206.81,-141.94 174.03,-132.02"/>
<polygon fill="#63b8ff" stroke="#63b8ff" points="174.92,-128.63 164.34,-129.08 172.89,-135.33 174.92,-128.63"/>
</g>
<!-- Node18 -->
<g id="node18" class="node">
<title>Node18</title>
<g id="a_node18"><a xlink:title=" ">
<polygon fill="#e0e0e0" stroke="#999999" points="702,-74 640,-74 640,-55 702,-55 702,-74"/>
<text text-anchor="middle" x="671" y="-62" font-family="Helvetica,sans-Serif" font-size="10.00">wx/font.h</text>
</a>
</g>
</g>
<!-- Node13&#45;&gt;Node18 -->
<g id="edge21" class="edge">
<title>Node13&#45;&gt;Node18</title>
<path fill="none" stroke="#63b8ff" d="M324.84,-164.94C350.26,-149.34 403.65,-117.25 424,-110 508.96,-79.75 537.37,-90.87 629.55,-74.17"/>
<polygon fill="#63b8ff" stroke="#63b8ff" points="630.4,-77.57 639.58,-72.29 629.11,-70.69 630.4,-77.57"/>
</g>
<!-- Node19 -->
<g id="node19" class="node">
<title>Node19</title>
<g id="a_node19"><a xlink:title=" ">
<polygon fill="#e0e0e0" stroke="#999999" points="605,-129 523,-129 523,-110 605,-110 605,-129"/>
<text text-anchor="middle" x="564" y="-117" font-family="Helvetica,sans-Serif" font-size="10.00">wx/settings.h</text>
</a>
</g>
</g>
<!-- Node13&#45;&gt;Node19 -->
<g id="edge22" class="edge">
<title>Node13&#45;&gt;Node19</title>
<path fill="none" stroke="#63b8ff" d="M351.65,-164.98C395.5,-155.8 465.42,-141.15 512.95,-131.19"/>
<polygon fill="#63b8ff" stroke="#63b8ff" points="513.96,-134.56 523.03,-129.08 512.53,-127.71 513.96,-134.56"/>
</g>
<!-- Node13&#45;&gt;Node20 -->
<g id="edge23" class="edge">
<title>Node13&#45;&gt;Node20</title>
<path fill="none" stroke="#63b8ff" d="M304.9,-164.8C299.25,-156.17 291.25,-142.35 288,-129 284.45,-114.4 284.68,-97.35 285.67,-84.59"/>
<polygon fill="#63b8ff" stroke="#63b8ff" points="289.19,-84.58 286.71,-74.28 282.23,-83.88 289.19,-84.58"/>
</g>
<!-- Node21 -->
<g id="node21" class="node">
<title>Node21</title>
<g id="a_node21"><a xlink:title=" ">
<polygon fill="#e0e0e0" stroke="#999999" points="399.5,-19 334.5,-19 334.5,0 399.5,0 399.5,-19"/>
<text text-anchor="middle" x="367" y="-7" font-family="Helvetica,sans-Serif" font-size="10.00">functional</text>
</a>
</g>
</g>
<!-- Node13&#45;&gt;Node21 -->
<g id="edge24" class="edge">
<title>Node13&#45;&gt;Node21</title>
<path fill="none" stroke="#63b8ff" d="M291.48,-165C250.68,-146.78 158.73,-103.26 142,-74 137.81,-66.67 136.64,-61.52 142,-55 164.59,-27.5 265.35,-16.71 324.09,-12.7"/>
<polygon fill="#63b8ff" stroke="#63b8ff" points="324.43,-16.18 334.19,-12.05 323.98,-9.2 324.43,-16.18"/>
</g>
<!-- Node22 -->
<g id="node22" class="node">
<title>Node22</title>
<g id="a_node22"><a xlink:href="FontAttribs_8h_source.html" target="_top" xlink:title=" ">
<polygon fill="white" stroke="#666666" points="376.5,-129 297.5,-129 297.5,-110 376.5,-110 376.5,-129"/>
<text text-anchor="middle" x="337" y="-117" font-family="Helvetica,sans-Serif" font-size="10.00">FontAttribs.h</text>
</a>
</g>
</g>
<!-- Node13&#45;&gt;Node22 -->
<g id="edge25" class="edge">
<title>Node13&#45;&gt;Node22</title>
<path fill="none" stroke="#63b8ff" d="M315.29,-164.75C318.81,-157.57 323.91,-147.18 328.28,-138.27"/>
<polygon fill="#63b8ff" stroke="#63b8ff" points="331.52,-139.61 332.79,-129.09 325.24,-136.53 331.52,-139.61"/>
</g>
<!-- Node29 -->
<g id="node29" class="node">
<title>Node29</title>
<g id="a_node29"><a xlink:href="FontVariantCache_8h.html" target="_top" xlink:title="This file implements the wxFont cache system.">
<polygon fill="white" stroke="#666666" points="852.5,-129 741.5,-129 741.5,-110 852.5,-110 852.5,-129"/>
<text text-anchor="middle" x="797" y="-117" font-family="Helvetica,sans-Serif" font-size="10.00">FontVariantCache.h</text>
</a>
</g>
</g>
<!-- Node13&#45;&gt;Node29 -->
<g id="edge36" class="edge">
<title>Node13&#45;&gt;Node29</title>
<path fill="none" stroke="#63b8ff" d="M359.18,-166.14C362.16,-165.74 365.12,-165.36 368,-165 526.02,-145.42 568.76,-147.45 731,-129.08"/>
<polygon fill="#63b8ff" stroke="#63b8ff" points="731.81,-132.51 741.34,-127.89 731.01,-125.55 731.81,-132.51"/>
</g>
<!-- Node13&#45;&gt;Node33 -->
<g id="edge44" class="edge">
<title>Node13&#45;&gt;Node33</title>
<path fill="none" stroke="#63b8ff" d="M301.75,-164.66C282.62,-146.38 238.47,-104.18 214.39,-81.17"/>
<polygon fill="#63b8ff" stroke="#63b8ff" points="216.71,-78.54 207.06,-74.16 211.87,-83.6 216.71,-78.54"/>
</g>
<!-- Node22&#45;&gt;Node18 -->
<g id="edge30" class="edge">
<title>Node22&#45;&gt;Node18</title>
<path fill="none" stroke="#63b8ff" d="M376.51,-112.25C381.39,-111.48 386.31,-110.72 391,-110 494.48,-94.09 523.2,-93.26 629.73,-74.14"/>
<polygon fill="#63b8ff" stroke="#63b8ff" points="630.37,-77.58 639.59,-72.36 629.13,-70.69 630.37,-77.58"/>
</g>
<!-- Node22&#45;&gt;Node20 -->
<g id="edge33" class="edge">
<title>Node22&#45;&gt;Node20</title>
<path fill="none" stroke="#63b8ff" d="M328.91,-109.75C321.84,-102.11 311.41,-90.82 302.85,-81.56"/>
<polygon fill="#63b8ff" stroke="#63b8ff" points="305.3,-79.06 295.94,-74.09 300.16,-83.81 305.3,-79.06"/>
</g>
<!-- Node22&#45;&gt;Node21 -->
<g id="edge34" class="edge">
<title>Node22&#45;&gt;Node21</title>
<path fill="none" stroke="#63b8ff" d="M339.46,-109.66C344.34,-92.09 355.35,-52.45 361.87,-28.95"/>
<polygon fill="#63b8ff" stroke="#63b8ff" points="365.29,-29.73 364.59,-19.16 358.55,-27.86 365.29,-29.73"/>
</g>
<!-- Node23 -->
<g id="node23" class="node">
<title>Node23</title>
<g id="a_node23"><a xlink:href="EnumWrapper_8h_source.html" target="_top" xlink:title=" ">
<polygon fill="white" stroke="#666666" points="525,-74 431,-74 431,-55 525,-55 525,-74"/>
<text text-anchor="middle" x="478" y="-62" font-family="Helvetica,sans-Serif" font-size="10.00">EnumWrapper.h</text>
</a>
</g>
</g>
<!-- Node22&#45;&gt;Node23 -->
<g id="edge26" class="edge">
<title>Node22&#45;&gt;Node23</title>
<path fill="none" stroke="#63b8ff" d="M359.65,-109.98C382.85,-101.27 419.12,-87.63 445.4,-77.75"/>
<polygon fill="#63b8ff" stroke="#63b8ff" points="446.8,-80.97 454.93,-74.17 444.34,-74.41 446.8,-80.97"/>
</g>
<!-- Node26 -->
<g id="node26" class="node">
<title>Node26</title>
<g id="a_node26"><a xlink:title=" ">
<polygon fill="#e0e0e0" stroke="#999999" points="622.5,-74 543.5,-74 543.5,-55 622.5,-55 622.5,-74"/>
<text text-anchor="middle" x="583" y="-62" font-family="Helvetica,sans-Serif" font-size="10.00">wx/version.h</text>
</a>
</g>
</g>
<!-- Node22&#45;&gt;Node26 -->
<g id="edge31" class="edge">
<title>Node22&#45;&gt;Node26</title>
<path fill="none" stroke="#63b8ff" d="M376.52,-109.98C419.17,-100.8 487.15,-86.15 533.36,-76.19"/>
<polygon fill="#63b8ff" stroke="#63b8ff" points="534.13,-79.61 543.17,-74.08 532.65,-72.77 534.13,-79.61"/>
</g>
<!-- Node22&#45;&gt;Node27 -->
<g id="edge32" class="edge">
<title>Node22&#45;&gt;Node27</title>
<path fill="none" stroke="#63b8ff" d="M297.44,-111.63C239.81,-101.61 133.23,-83.09 74.17,-72.83"/>
<polygon fill="#63b8ff" stroke="#63b8ff" points="74.51,-69.34 64.06,-71.07 73.32,-76.23 74.51,-69.34"/>
</g>
<!-- Node28 -->
<g id="node28" class="node">
<title>Node28</title>
<g id="a_node28"><a xlink:title=" ">
<polygon fill="#e0e0e0" stroke="#999999" points="413,-74 369,-74 369,-55 413,-55 413,-74"/>
<text text-anchor="middle" x="391" y="-62" font-family="Helvetica,sans-Serif" font-size="10.00">limits</text>
</a>
</g>
</g>
<!-- Node22&#45;&gt;Node28 -->
<g id="edge35" class="edge">
<title>Node22&#45;&gt;Node28</title>
<path fill="none" stroke="#63b8ff" d="M345.92,-109.75C353.78,-102.03 365.43,-90.6 374.92,-81.28"/>
<polygon fill="#63b8ff" stroke="#63b8ff" points="377.56,-83.59 382.25,-74.09 372.66,-78.6 377.56,-83.59"/>
</g>
<!-- Node23&#45;&gt;Node21 -->
<g id="edge28" class="edge">
<title>Node23&#45;&gt;Node21</title>
<path fill="none" stroke="#63b8ff" d="M460.17,-54.98C442.39,-46.5 414.85,-33.35 394.32,-23.54"/>
<polygon fill="#63b8ff" stroke="#63b8ff" points="395.69,-20.32 385.16,-19.17 392.67,-26.64 395.69,-20.32"/>
</g>
<!-- Node24 -->
<g id="node24" class="node">
<title>Node24</title>
<g id="a_node24"><a xlink:title=" ">
<polygon fill="#e0e0e0" stroke="#999999" points="570.5,-19 517.5,-19 517.5,0 570.5,0 570.5,-19"/>
<text text-anchor="middle" x="544" y="-7" font-family="Helvetica,sans-Serif" font-size="10.00">cstddef</text>
</a>
</g>
</g>
<!-- Node23&#45;&gt;Node24 -->
<g id="edge27" class="edge">
<title>Node23&#45;&gt;Node24</title>
<path fill="none" stroke="#63b8ff" d="M488.6,-54.98C498.46,-47.07 513.35,-35.11 525.22,-25.58"/>
<polygon fill="#63b8ff" stroke="#63b8ff" points="527.6,-28.16 533.2,-19.17 523.21,-22.7 527.6,-28.16"/>
</g>
<!-- Node25 -->
<g id="node25" class="node">
<title>Node25</title>
<g id="a_node25"><a xlink:title=" ">
<polygon fill="#e0e0e0" stroke="#999999" points="499.5,-19 430.5,-19 430.5,0 499.5,0 499.5,-19"/>
<text text-anchor="middle" x="465" y="-7" font-family="Helvetica,sans-Serif" font-size="10.00">type_traits</text>
</a>
</g>
</g>
<!-- Node23&#45;&gt;Node25 -->
<g id="edge29" class="edge">
<title>Node23&#45;&gt;Node25</title>
<path fill="none" stroke="#63b8ff" d="M475.85,-54.75C474.13,-47.72 471.65,-37.62 469.5,-28.84"/>
<polygon fill="#63b8ff" stroke="#63b8ff" points="472.89,-27.97 467.11,-19.09 466.09,-29.63 472.89,-27.97"/>
</g>
<!-- Node29&#45;&gt;Node3 -->
<g id="edge37" class="edge">
<title>Node29&#45;&gt;Node3</title>
<path fill="none" stroke="#63b8ff" d="M844.4,-109.98C900.4,-99.92 992.85,-83.31 1047.54,-73.49"/>
<polygon fill="#63b8ff" stroke="#63b8ff" points="1048.4,-76.89 1057.62,-71.68 1047.16,-70 1048.4,-76.89"/>
</g>
<!-- Node29&#45;&gt;Node18 -->
<g id="edge39" class="edge">
<title>Node29&#45;&gt;Node18</title>
<path fill="none" stroke="#63b8ff" d="M776.76,-109.98C756.3,-101.38 724.47,-87.99 701.07,-78.15"/>
<polygon fill="#63b8ff" stroke="#63b8ff" points="702.19,-74.82 691.61,-74.17 699.47,-81.27 702.19,-74.82"/>
</g>
<!-- Node29&#45;&gt;Node21 -->
<g id="edge40" class="edge">
<title>Node29&#45;&gt;Node21</title>
<path fill="none" stroke="#63b8ff" d="M797.07,-109.9C796.68,-95.94 793.67,-68.57 777,-55 715.33,-4.8 499.86,-29.19 421,-19 417.3,-18.52 413.46,-17.99 409.62,-17.43"/>
<polygon fill="#63b8ff" stroke="#63b8ff" points="409.92,-13.94 399.51,-15.92 408.88,-20.86 409.92,-13.94"/>
</g>
<!-- Node29&#45;&gt;Node30 -->
<g id="edge38" class="edge">
<title>Node29&#45;&gt;Node30</title>
<path fill="none" stroke="#63b8ff" d="M852.85,-112.47C953.32,-101.63 1162.17,-79.08 1248.91,-69.72"/>
<polygon fill="#63b8ff" stroke="#63b8ff" points="1249.3,-73.2 1258.87,-68.64 1248.55,-66.24 1249.3,-73.2"/>
</g>
<!-- Node29&#45;&gt;Node31 -->
<g id="edge41" class="edge">
<title>Node29&#45;&gt;Node31</title>
<path fill="none" stroke="#63b8ff" d="M823.67,-109.98C854.96,-99.99 906.47,-83.55 937.33,-73.7"/>
<polygon fill="#63b8ff" stroke="#63b8ff" points="938.48,-77 946.94,-70.63 936.35,-70.34 938.48,-77"/>
</g>
<!-- Node32 -->
<g id="node32" class="node">
<title>Node32</title>
<g id="a_node32"><a xlink:title=" ">
<polygon fill="#e0e0e0" stroke="#999999" points="768.5,-74 723.5,-74 723.5,-55 768.5,-55 768.5,-74"/>
<text text-anchor="middle" x="746" y="-62" font-family="Helvetica,sans-Serif" font-size="10.00">utility</text>
</a>
</g>
</g>
<!-- Node29&#45;&gt;Node32 -->
<g id="edge42" class="edge">
<title>Node29&#45;&gt;Node32</title>
<path fill="none" stroke="#63b8ff" d="M788.58,-109.75C781.23,-102.11 770.37,-90.82 761.46,-81.56"/>
<polygon fill="#63b8ff" stroke="#63b8ff" points="763.72,-78.87 754.26,-74.09 758.68,-83.72 763.72,-78.87"/>
</g>
<!-- Node29&#45;&gt;Node33 -->
<g id="edge43" class="edge">
<title>Node29&#45;&gt;Node33</title>
<path fill="none" stroke="#63b8ff" d="M741.35,-111.02C738.19,-110.66 735.06,-110.31 732,-110 523.39,-88.52 467.43,-97.7 254.95,-74.01"/>
<polygon fill="#63b8ff" stroke="#63b8ff" points="255.04,-70.5 244.72,-72.86 254.26,-77.46 255.04,-70.5"/>
</g>
<!-- Node40&#45;&gt;Node5 -->
<g id="edge58" class="edge">
<title>Node40&#45;&gt;Node5</title>
<path fill="none" stroke="#63b8ff" d="M1488.39,-219.75C1483.68,-212.42 1476.83,-201.73 1471.03,-192.7"/>
<polygon fill="#63b8ff" stroke="#63b8ff" points="1473.86,-190.62 1465.51,-184.09 1467.96,-194.4 1473.86,-190.62"/>
</g>
<!-- Node41 -->
<g id="node41" class="node">
<title>Node41</title>
<g id="a_node41"><a xlink:title=" ">
<polygon fill="#e0e0e0" stroke="#999999" points="1549,-184 1507,-184 1507,-165 1549,-165 1549,-184"/>
<text text-anchor="middle" x="1528" y="-172" font-family="Helvetica,sans-Serif" font-size="10.00">array</text>
</a>
</g>
</g>
<!-- Node40&#45;&gt;Node41 -->
<g id="edge57" class="edge">
<title>Node40&#45;&gt;Node41</title>
<path fill="none" stroke="#63b8ff" d="M1499.61,-219.75C1504.32,-212.42 1511.17,-201.73 1516.97,-192.7"/>
<polygon fill="#63b8ff" stroke="#63b8ff" points="1520.04,-194.4 1522.49,-184.09 1514.14,-190.62 1520.04,-194.4"/>
</g>
<!-- Node42 -->
<g id="node42" class="node">
<title>Node42</title>
<g id="a_node42"><a xlink:title=" ">
<polygon fill="#e0e0e0" stroke="#999999" points="1656.5,-184 1567.5,-184 1567.5,-165 1656.5,-165 1656.5,-184"/>
<text text-anchor="middle" x="1612" y="-172" font-family="Helvetica,sans-Serif" font-size="10.00">wx/windowid.h</text>
</a>
</g>
</g>
<!-- Node40&#45;&gt;Node42 -->
<g id="edge59" class="edge">
<title>Node40&#45;&gt;Node42</title>
<path fill="none" stroke="#63b8ff" d="M1512.96,-219.98C1532.03,-211.42 1561.66,-198.11 1583.55,-188.28"/>
<polygon fill="#63b8ff" stroke="#63b8ff" points="1585.01,-191.46 1592.7,-184.17 1582.14,-185.07 1585.01,-191.46"/>
</g>
</g>
</svg>
