<?xml version="1.0" encoding="UTF-8" standalone="no"?>
<!DOCTYPE svg PUBLIC "-//W3C//DTD SVG 1.1//EN"
 "http://www.w3.org/Graphics/SVG/1.1/DTD/svg11.dtd">
<!-- Generated by graphviz version 2.43.0 (0)
 -->
<!-- Title: src/EventIDs.h Pages: 1 -->
<svg width="1691pt" height="364pt"
 viewBox="0.00 0.00 1691.00 364.00" xmlns="http://www.w3.org/2000/svg" xmlns:xlink="http://www.w3.org/1999/xlink">
<g id="graph0" class="graph" transform="scale(1 1) rotate(0) translate(4 360)">
<title>src/EventIDs.h</title>
<polygon fill="white" stroke="transparent" points="-4,4 -4,-360 1687,-360 1687,4 -4,4"/>
<!-- Node1 -->
<g id="node1" class="node">
<title>Node1</title>
<g id="a_node1"><a xlink:title="This file declares the class EventIDs that contains unique IDs for many events wxMaxima needs.">
<polygon fill="#bfbfbf" stroke="black" points="839,-336.5 839,-355.5 925,-355.5 925,-336.5 839,-336.5"/>
<text text-anchor="middle" x="882" y="-343.5" font-family="Helvetica,sans-Serif" font-size="10.00">src/EventIDs.h</text>
</a>
</g>
</g>
<!-- Node2 -->
<g id="node2" class="node">
<title>Node2</title>
<g id="a_node2"><a xlink:href="EventIDs_8cpp.html" target="_top" xlink:title="This file defines the class EventIDs that contains unique IDs for many events wxMaxima needs.">
<polygon fill="white" stroke="black" points="0,-280.5 0,-299.5 98,-299.5 98,-280.5 0,-280.5"/>
<text text-anchor="middle" x="49" y="-287.5" font-family="Helvetica,sans-Serif" font-size="10.00">src/EventIDs.cpp</text>
</a>
</g>
</g>
<!-- Node1&#45;&gt;Node2 -->
<g id="edge1" class="edge">
<title>Node1&#45;&gt;Node2</title>
<path fill="none" stroke="midnightblue" d="M828.45,-343.66C702.39,-340.12 377.16,-328.74 107,-300 104.06,-299.69 101.04,-299.33 98,-298.94"/>
<polygon fill="midnightblue" stroke="midnightblue" points="828.52,-347.16 838.61,-343.94 828.71,-340.17 828.52,-347.16"/>
</g>
<!-- Node3 -->
<g id="node3" class="node">
<title>Node3</title>
<g id="a_node3"><a xlink:href="FormatSidebar_8h.html" target="_top" xlink:title="This file declares the class StatSidebar, that provides some statistics buttons.">
<polygon fill="white" stroke="black" points="282,-280.5 282,-299.5 440,-299.5 440,-280.5 282,-280.5"/>
<text text-anchor="middle" x="361" y="-287.5" font-family="Helvetica,sans-Serif" font-size="10.00">src/sidebars/FormatSidebar.h</text>
</a>
</g>
</g>
<!-- Node1&#45;&gt;Node3 -->
<g id="edge2" class="edge">
<title>Node1&#45;&gt;Node3</title>
<path fill="none" stroke="midnightblue" d="M828.72,-339.48C736.69,-329.94 547.51,-310.33 440.08,-299.2"/>
<polygon fill="midnightblue" stroke="midnightblue" points="828.61,-342.99 838.92,-340.54 829.34,-336.02 828.61,-342.99"/>
</g>
<!-- Node6 -->
<g id="node6" class="node">
<title>Node6</title>
<g id="a_node6"><a xlink:href="GreekSidebar_8h.html" target="_top" xlink:title="This file declares the class wxMaximaFrame.">
<polygon fill="white" stroke="black" points="653,-168.5 653,-187.5 805,-187.5 805,-168.5 653,-168.5"/>
<text text-anchor="middle" x="729" y="-175.5" font-family="Helvetica,sans-Serif" font-size="10.00">src/sidebars/GreekSidebar.h</text>
</a>
</g>
</g>
<!-- Node1&#45;&gt;Node6 -->
<g id="edge5" class="edge">
<title>Node1&#45;&gt;Node6</title>
<path fill="none" stroke="midnightblue" d="M828.77,-338.75C782.07,-332.04 719.28,-319.62 704,-300 677.12,-265.47 708.95,-209.14 723,-187.68"/>
<polygon fill="midnightblue" stroke="midnightblue" points="828.38,-342.23 838.77,-340.14 829.34,-335.3 828.38,-342.23"/>
</g>
<!-- Node8 -->
<g id="node8" class="node">
<title>Node8</title>
<g id="a_node8"><a xlink:href="MathSidebar_8h.html" target="_top" xlink:title="This file declares the class wxMaximaFrame.">
<polygon fill="white" stroke="black" points="116,-280.5 116,-299.5 264,-299.5 264,-280.5 116,-280.5"/>
<text text-anchor="middle" x="190" y="-287.5" font-family="Helvetica,sans-Serif" font-size="10.00">src/sidebars/MathSidebar.h</text>
</a>
</g>
</g>
<!-- Node1&#45;&gt;Node8 -->
<g id="edge8" class="edge">
<title>Node1&#45;&gt;Node8</title>
<path fill="none" stroke="midnightblue" d="M828.64,-341.67C722.65,-334.93 478.12,-318.69 273,-300 270.11,-299.74 267.17,-299.46 264.2,-299.17"/>
<polygon fill="midnightblue" stroke="midnightblue" points="828.56,-345.18 838.76,-342.32 829,-338.19 828.56,-345.18"/>
</g>
<!-- Node10 -->
<g id="node10" class="node">
<title>Node10</title>
<g id="a_node10"><a xlink:href="DrawSidebar_8h.html" target="_top" xlink:title="This file declares the class StatSidebar, that provides some statistics buttons.">
<polygon fill="white" stroke="black" points="895.5,-280.5 895.5,-299.5 1044.5,-299.5 1044.5,-280.5 895.5,-280.5"/>
<text text-anchor="middle" x="970" y="-287.5" font-family="Helvetica,sans-Serif" font-size="10.00">src/sidebars/DrawSidebar.h</text>
</a>
</g>
</g>
<!-- Node1&#45;&gt;Node10 -->
<g id="edge11" class="edge">
<title>Node1&#45;&gt;Node10</title>
<path fill="none" stroke="midnightblue" d="M904.98,-330.9C921.11,-321 942.18,-308.07 955.9,-299.65"/>
<polygon fill="midnightblue" stroke="midnightblue" points="902.83,-328.11 896.14,-336.32 906.49,-334.08 902.83,-328.11"/>
</g>
<!-- Node12 -->
<g id="node12" class="node">
<title>Node12</title>
<g id="a_node12"><a xlink:href="wxMaximaFrame_8h.html" target="_top" xlink:title="This file declares the class wxMaximaFrame.">
<polygon fill="white" stroke="black" points="988,-168.5 988,-187.5 1116,-187.5 1116,-168.5 988,-168.5"/>
<text text-anchor="middle" x="1052" y="-175.5" font-family="Helvetica,sans-Serif" font-size="10.00">src/wxMaximaFrame.h</text>
</a>
</g>
</g>
<!-- Node1&#45;&gt;Node12 -->
<g id="edge46" class="edge">
<title>Node1&#45;&gt;Node12</title>
<path fill="none" stroke="midnightblue" d="M935.37,-338.83C970.92,-332.91 1017.61,-321.53 1054,-300 1089.44,-279.03 1124.63,-261.21 1107,-224 1099.23,-207.61 1082.25,-195.21 1069.2,-187.61"/>
<polygon fill="midnightblue" stroke="midnightblue" points="934.53,-335.42 925.19,-340.43 935.61,-342.33 934.53,-335.42"/>
</g>
<!-- Node21 -->
<g id="node21" class="node">
<title>Node21</title>
<g id="a_node21"><a xlink:href="StatSidebar_8h.html" target="_top" xlink:title="This file declares the class StatSidebar, that provides some statistics buttons.">
<polygon fill="white" stroke="black" points="491.5,-280.5 491.5,-299.5 634.5,-299.5 634.5,-280.5 491.5,-280.5"/>
<text text-anchor="middle" x="563" y="-287.5" font-family="Helvetica,sans-Serif" font-size="10.00">src/sidebars/StatSidebar.h</text>
</a>
</g>
</g>
<!-- Node1&#45;&gt;Node21 -->
<g id="edge29" class="edge">
<title>Node1&#45;&gt;Node21</title>
<path fill="none" stroke="midnightblue" d="M828.97,-336.02C769.07,-325.88 672.3,-309.5 613.47,-299.54"/>
<polygon fill="midnightblue" stroke="midnightblue" points="828.53,-339.5 838.98,-337.72 829.7,-332.6 828.53,-339.5"/>
</g>
<!-- Node23 -->
<g id="node23" class="node">
<title>Node23</title>
<g id="a_node23"><a xlink:href="SymbolsSidebar_8h.html" target="_top" xlink:title="This file declares the class wxMaximaFrame.">
<polygon fill="white" stroke="black" points="712.5,-280.5 712.5,-299.5 877.5,-299.5 877.5,-280.5 712.5,-280.5"/>
<text text-anchor="middle" x="795" y="-287.5" font-family="Helvetica,sans-Serif" font-size="10.00">src/sidebars/SymbolsSidebar.h</text>
</a>
</g>
</g>
<!-- Node1&#45;&gt;Node23 -->
<g id="edge32" class="edge">
<title>Node1&#45;&gt;Node23</title>
<path fill="none" stroke="midnightblue" d="M859.28,-330.9C843.33,-321 822.5,-308.07 808.94,-299.65"/>
<polygon fill="midnightblue" stroke="midnightblue" points="857.68,-334.02 868.02,-336.32 861.37,-328.08 857.68,-334.02"/>
</g>
<!-- Node25 -->
<g id="node25" class="node">
<title>Node25</title>
<g id="a_node25"><a xlink:href="TableOfContents_8cpp.html" target="_top" xlink:title="This file defines the class Structure.">
<polygon fill="white" stroke="black" points="1100.5,-280.5 1100.5,-299.5 1279.5,-299.5 1279.5,-280.5 1100.5,-280.5"/>
<text text-anchor="middle" x="1190" y="-287.5" font-family="Helvetica,sans-Serif" font-size="10.00">src/sidebars/TableOfContents.cpp</text>
</a>
</g>
</g>
<!-- Node1&#45;&gt;Node25 -->
<g id="edge35" class="edge">
<title>Node1&#45;&gt;Node25</title>
<path fill="none" stroke="midnightblue" d="M935.21,-335.67C993.19,-325.51 1085.16,-309.38 1141.3,-299.54"/>
<polygon fill="midnightblue" stroke="midnightblue" points="934.4,-332.26 925.15,-337.43 935.6,-339.16 934.4,-332.26"/>
</g>
<!-- Node26 -->
<g id="node26" class="node">
<title>Node26</title>
<g id="a_node26"><a xlink:href="VariablesPane_8h.html" target="_top" xlink:title="The file that contains the &quot;variables&quot; sidepane.">
<polygon fill="white" stroke="black" points="1297.5,-280.5 1297.5,-299.5 1452.5,-299.5 1452.5,-280.5 1297.5,-280.5"/>
<text text-anchor="middle" x="1375" y="-287.5" font-family="Helvetica,sans-Serif" font-size="10.00">src/sidebars/VariablesPane.h</text>
</a>
</g>
</g>
<!-- Node1&#45;&gt;Node26 -->
<g id="edge36" class="edge">
<title>Node1&#45;&gt;Node26</title>
<path fill="none" stroke="midnightblue" d="M935.26,-339.17C1022.48,-329.61 1196.14,-310.59 1297.17,-299.53"/>
<polygon fill="midnightblue" stroke="midnightblue" points="934.88,-335.69 925.32,-340.26 935.64,-342.65 934.88,-335.69"/>
</g>
<!-- Node27 -->
<g id="node27" class="node">
<title>Node27</title>
<g id="a_node27"><a xlink:href="Worksheet_8h.html" target="_top" xlink:title="This file defines the class Worksheet.">
<polygon fill="white" stroke="black" points="1327.5,-224.5 1327.5,-243.5 1422.5,-243.5 1422.5,-224.5 1327.5,-224.5"/>
<text text-anchor="middle" x="1375" y="-231.5" font-family="Helvetica,sans-Serif" font-size="10.00">src/Worksheet.h</text>
</a>
</g>
</g>
<!-- Node1&#45;&gt;Node27 -->
<g id="edge45" class="edge">
<title>Node1&#45;&gt;Node27</title>
<path fill="none" stroke="midnightblue" d="M935.43,-344.89C1072.19,-344.06 1426.65,-338.2 1462,-300 1484.15,-276.06 1436.63,-254.79 1403.49,-243.52"/>
<polygon fill="midnightblue" stroke="midnightblue" points="935.18,-341.39 925.2,-344.95 935.21,-348.39 935.18,-341.39"/>
</g>
<!-- Node30 -->
<g id="node30" class="node">
<title>Node30</title>
<g id="a_node30"><a xlink:href="UnicodeSidebar_8cpp.html" target="_top" xlink:title="This file defines the class UnicodeSidebar.">
<polygon fill="white" stroke="black" points="1509,-280.5 1509,-299.5 1683,-299.5 1683,-280.5 1509,-280.5"/>
<text text-anchor="middle" x="1596" y="-287.5" font-family="Helvetica,sans-Serif" font-size="10.00">src/sidebars/UnicodeSidebar.cpp</text>
</a>
</g>
</g>
<!-- Node1&#45;&gt;Node30 -->
<g id="edge44" class="edge">
<title>Node1&#45;&gt;Node30</title>
<path fill="none" stroke="midnightblue" d="M935.28,-341.37C1041.7,-334.06 1288.11,-316.81 1495,-300 1499.56,-299.63 1504.24,-299.24 1508.96,-298.84"/>
<polygon fill="midnightblue" stroke="midnightblue" points="934.86,-337.89 925.12,-342.07 935.34,-344.87 934.86,-337.89"/>
</g>
<!-- Node4 -->
<g id="node4" class="node">
<title>Node4</title>
<g id="a_node4"><a xlink:href="FormatSidebar_8cpp.html" target="_top" xlink:title="This file defines the class FormatSidebar.">
<polygon fill="white" stroke="black" points="255.5,-224.5 255.5,-243.5 424.5,-243.5 424.5,-224.5 255.5,-224.5"/>
<text text-anchor="middle" x="340" y="-231.5" font-family="Helvetica,sans-Serif" font-size="10.00">src/sidebars/FormatSidebar.cpp</text>
</a>
</g>
</g>
<!-- Node3&#45;&gt;Node4 -->
<g id="edge3" class="edge">
<title>Node3&#45;&gt;Node4</title>
<path fill="none" stroke="midnightblue" d="M353.88,-270.69C350.34,-261.59 346.23,-251.01 343.4,-243.75"/>
<polygon fill="midnightblue" stroke="midnightblue" points="350.65,-272.03 357.53,-280.08 357.17,-269.49 350.65,-272.03"/>
</g>
<!-- Node5 -->
<g id="node5" class="node">
<title>Node5</title>
<g id="a_node5"><a xlink:href="wxMaximaFrame_8cpp.html" target="_top" xlink:title="This file defines the class wxMaximaFrame.">
<polygon fill="white" stroke="black" points="555.5,-112.5 555.5,-131.5 694.5,-131.5 694.5,-112.5 555.5,-112.5"/>
<text text-anchor="middle" x="625" y="-119.5" font-family="Helvetica,sans-Serif" font-size="10.00">src/wxMaximaFrame.cpp</text>
</a>
</g>
</g>
<!-- Node3&#45;&gt;Node5 -->
<g id="edge4" class="edge">
<title>Node3&#45;&gt;Node5</title>
<path fill="none" stroke="midnightblue" d="M303.85,-277.91C265.6,-267.84 225.67,-250.46 246,-224 283.45,-175.27 456.5,-145.05 555.32,-131.46"/>
<polygon fill="midnightblue" stroke="midnightblue" points="303.48,-281.42 314.02,-280.44 305.16,-274.63 303.48,-281.42"/>
</g>
<!-- Node6&#45;&gt;Node5 -->
<g id="edge7" class="edge">
<title>Node6&#45;&gt;Node5</title>
<path fill="none" stroke="midnightblue" d="M703.17,-163.59C683.94,-153.61 658.26,-140.27 641.67,-131.65"/>
<polygon fill="midnightblue" stroke="midnightblue" points="701.8,-166.82 712.29,-168.32 705.03,-160.61 701.8,-166.82"/>
</g>
<!-- Node7 -->
<g id="node7" class="node">
<title>Node7</title>
<g id="a_node7"><a xlink:href="GreekSidebar_8cpp.html" target="_top" xlink:title="This file defines the class GreekSidebar.">
<polygon fill="white" stroke="black" points="740,-112.5 740,-131.5 904,-131.5 904,-112.5 740,-112.5"/>
<text text-anchor="middle" x="822" y="-119.5" font-family="Helvetica,sans-Serif" font-size="10.00">src/sidebars/GreekSidebar.cpp</text>
</a>
</g>
</g>
<!-- Node6&#45;&gt;Node7 -->
<g id="edge6" class="edge">
<title>Node6&#45;&gt;Node7</title>
<path fill="none" stroke="midnightblue" d="M752.81,-163.18C769.92,-153.24 792.47,-140.15 807.1,-131.65"/>
<polygon fill="midnightblue" stroke="midnightblue" points="750.83,-160.28 743.94,-168.32 754.35,-166.33 750.83,-160.28"/>
</g>
<!-- Node8&#45;&gt;Node5 -->
<g id="edge10" class="edge">
<title>Node8&#45;&gt;Node5</title>
<path fill="none" stroke="midnightblue" d="M199.64,-271.76C216.32,-243.91 253.47,-189.95 302,-168 345.91,-148.14 474.27,-134.79 555.34,-128.08"/>
<polygon fill="midnightblue" stroke="midnightblue" points="196.61,-270.02 194.61,-280.42 202.66,-273.53 196.61,-270.02"/>
</g>
<!-- Node9 -->
<g id="node9" class="node">
<title>Node9</title>
<g id="a_node9"><a xlink:href="MathSidebar_8cpp.html" target="_top" xlink:title="This file defines the class SymbolsSidebar.">
<polygon fill="white" stroke="black" points="3.5,-224.5 3.5,-243.5 162.5,-243.5 162.5,-224.5 3.5,-224.5"/>
<text text-anchor="middle" x="83" y="-231.5" font-family="Helvetica,sans-Serif" font-size="10.00">src/sidebars/MathSidebar.cpp</text>
</a>
</g>
</g>
<!-- Node8&#45;&gt;Node9 -->
<g id="edge9" class="edge">
<title>Node8&#45;&gt;Node9</title>
<path fill="none" stroke="midnightblue" d="M163.7,-275.73C143.89,-265.73 117.29,-252.31 100.15,-243.65"/>
<polygon fill="midnightblue" stroke="midnightblue" points="162.3,-278.94 172.81,-280.32 165.46,-272.69 162.3,-278.94"/>
</g>
<!-- Node11 -->
<g id="node11" class="node">
<title>Node11</title>
<g id="a_node11"><a xlink:href="DrawSidebar_8cpp.html" target="_top" xlink:title="This file defines the class StatSidebar.">
<polygon fill="white" stroke="black" points="923,-224.5 923,-243.5 1083,-243.5 1083,-224.5 923,-224.5"/>
<text text-anchor="middle" x="1003" y="-231.5" font-family="Helvetica,sans-Serif" font-size="10.00">src/sidebars/DrawSidebar.cpp</text>
</a>
</g>
</g>
<!-- Node10&#45;&gt;Node11 -->
<g id="edge12" class="edge">
<title>Node10&#45;&gt;Node11</title>
<path fill="none" stroke="midnightblue" d="M980.83,-271.27C986.47,-262.05 993.12,-251.17 997.65,-243.75"/>
<polygon fill="midnightblue" stroke="midnightblue" points="977.68,-269.73 975.45,-280.08 983.65,-273.38 977.68,-269.73"/>
</g>
<!-- Node10&#45;&gt;Node12 -->
<g id="edge13" class="edge">
<title>Node10&#45;&gt;Node12</title>
<path fill="none" stroke="midnightblue" d="M1044.17,-277.29C1062.79,-270.64 1080.68,-260.24 1092,-244 1105.64,-224.43 1080.32,-200.25 1064.09,-187.61"/>
<polygon fill="midnightblue" stroke="midnightblue" points="1042.84,-274.04 1034.4,-280.43 1044.99,-280.7 1042.84,-274.04"/>
</g>
<!-- Node12&#45;&gt;Node5 -->
<g id="edge28" class="edge">
<title>Node12&#45;&gt;Node5</title>
<path fill="none" stroke="midnightblue" d="M977.55,-167.58C897.09,-157.41 769.98,-141.34 692.38,-131.52"/>
<polygon fill="midnightblue" stroke="midnightblue" points="977.25,-171.07 987.61,-168.86 978.13,-164.13 977.25,-171.07"/>
</g>
<!-- Node12&#45;&gt;Node7 -->
<g id="edge20" class="edge">
<title>Node12&#45;&gt;Node7</title>
<path fill="none" stroke="midnightblue" d="M1005.8,-166.15C962.34,-155.95 898.16,-140.88 858.27,-131.52"/>
<polygon fill="midnightblue" stroke="midnightblue" points="1005.02,-169.57 1015.56,-168.44 1006.62,-162.75 1005.02,-169.57"/>
</g>
<!-- Node13 -->
<g id="node13" class="node">
<title>Node13</title>
<g id="a_node13"><a xlink:href="AutocompletePopup_8cpp.html" target="_top" xlink:title="This file defines the class AutocompletePopup.">
<polygon fill="white" stroke="black" points="1119,-112.5 1119,-131.5 1271,-131.5 1271,-112.5 1119,-112.5"/>
<text text-anchor="middle" x="1195" y="-119.5" font-family="Helvetica,sans-Serif" font-size="10.00">src/AutocompletePopup.cpp</text>
</a>
</g>
</g>
<!-- Node12&#45;&gt;Node13 -->
<g id="edge14" class="edge">
<title>Node12&#45;&gt;Node13</title>
<path fill="none" stroke="midnightblue" d="M1084.03,-164.91C1110.91,-154.75 1148.64,-140.51 1172.45,-131.52"/>
<polygon fill="midnightblue" stroke="midnightblue" points="1082.78,-161.64 1074.66,-168.44 1085.25,-168.19 1082.78,-161.64"/>
</g>
<!-- Node14 -->
<g id="node14" class="node">
<title>Node14</title>
<g id="a_node14"><a xlink:href="EditorCell_8cpp.html" target="_top" xlink:title="This file defines the class EditorCell.">
<polygon fill="white" stroke="black" points="872.5,-56.5 872.5,-75.5 999.5,-75.5 999.5,-56.5 872.5,-56.5"/>
<text text-anchor="middle" x="936" y="-63.5" font-family="Helvetica,sans-Serif" font-size="10.00">src/cells/EditorCell.cpp</text>
</a>
</g>
</g>
<!-- Node12&#45;&gt;Node14 -->
<g id="edge15" class="edge">
<title>Node12&#45;&gt;Node14</title>
<path fill="none" stroke="midnightblue" d="M1028.76,-162.95C1016.05,-154.72 1000.42,-143.68 988,-132 968.84,-113.99 950.64,-88.73 941.72,-75.64"/>
<polygon fill="midnightblue" stroke="midnightblue" points="1027.08,-166.03 1037.4,-168.41 1030.81,-160.11 1027.08,-166.03"/>
</g>
<!-- Node15 -->
<g id="node15" class="node">
<title>Node15</title>
<g id="a_node15"><a xlink:href="main_8h.html" target="_top" xlink:title="This file declares the class wxMaxima that contains most of the program&#39;s logic.">
<polygon fill="white" stroke="black" points="1018,-56.5 1018,-75.5 1086,-75.5 1086,-56.5 1018,-56.5"/>
<text text-anchor="middle" x="1052" y="-63.5" font-family="Helvetica,sans-Serif" font-size="10.00">src/main.h</text>
</a>
</g>
</g>
<!-- Node12&#45;&gt;Node15 -->
<g id="edge16" class="edge">
<title>Node12&#45;&gt;Node15</title>
<path fill="none" stroke="midnightblue" d="M1025.33,-163.22C1013.75,-155.7 1001.4,-145.2 995,-132 983.61,-108.5 1014.04,-86.92 1034.7,-75.5"/>
<polygon fill="midnightblue" stroke="midnightblue" points="1023.55,-166.23 1033.92,-168.39 1027.16,-160.23 1023.55,-166.23"/>
</g>
<!-- Node19 -->
<g id="node19" class="node">
<title>Node19</title>
<g id="a_node19"><a xlink:href="wxMaxima_8h.html" target="_top" xlink:title="This file declares the class wxMaxima that contains most of the program&#39;s logic.">
<polygon fill="white" stroke="black" points="1003.5,-112.5 1003.5,-131.5 1100.5,-131.5 1100.5,-112.5 1003.5,-112.5"/>
<text text-anchor="middle" x="1052" y="-119.5" font-family="Helvetica,sans-Serif" font-size="10.00">src/wxMaxima.h</text>
</a>
</g>
</g>
<!-- Node12&#45;&gt;Node19 -->
<g id="edge21" class="edge">
<title>Node12&#45;&gt;Node19</title>
<path fill="none" stroke="midnightblue" d="M1052,-157.8C1052,-148.91 1052,-138.78 1052,-131.75"/>
<polygon fill="midnightblue" stroke="midnightblue" points="1048.5,-158.08 1052,-168.08 1055.5,-158.08 1048.5,-158.08"/>
</g>
<!-- Node20 -->
<g id="node20" class="node">
<title>Node20</title>
<g id="a_node20"><a xlink:href="Worksheet_8cpp.html" target="_top" xlink:title="This file defines the class Worksheet.">
<polygon fill="white" stroke="black" points="1189,-56.5 1189,-75.5 1295,-75.5 1295,-56.5 1189,-56.5"/>
<text text-anchor="middle" x="1242" y="-63.5" font-family="Helvetica,sans-Serif" font-size="10.00">src/Worksheet.cpp</text>
</a>
</g>
</g>
<!-- Node12&#45;&gt;Node20 -->
<g id="edge27" class="edge">
<title>Node12&#45;&gt;Node20</title>
<path fill="none" stroke="midnightblue" d="M1126.1,-172.35C1185.03,-166.93 1260.69,-155.5 1280,-132 1295.11,-113.62 1269.53,-88.52 1253.48,-75.55"/>
<polygon fill="midnightblue" stroke="midnightblue" points="1125.71,-168.87 1116.06,-173.23 1126.33,-175.85 1125.71,-168.87"/>
</g>
<!-- Node16 -->
<g id="node16" class="node">
<title>Node16</title>
<g id="a_node16"><a xlink:href="main_8cpp.html" target="_top" xlink:title="The file that defines the starting point of the program.">
<polygon fill="white" stroke="black" points="1074.5,-0.5 1074.5,-19.5 1153.5,-19.5 1153.5,-0.5 1074.5,-0.5"/>
<text text-anchor="middle" x="1114" y="-7.5" font-family="Helvetica,sans-Serif" font-size="10.00">src/main.cpp</text>
</a>
</g>
</g>
<!-- Node15&#45;&gt;Node16 -->
<g id="edge17" class="edge">
<title>Node15&#45;&gt;Node16</title>
<path fill="none" stroke="midnightblue" d="M1069.75,-49.54C1080.81,-39.91 1094.63,-27.87 1103.86,-19.83"/>
<polygon fill="midnightblue" stroke="midnightblue" points="1067.2,-47.12 1061.96,-56.32 1071.8,-52.4 1067.2,-47.12"/>
</g>
<!-- Node17 -->
<g id="node17" class="node">
<title>Node17</title>
<g id="a_node17"><a xlink:href="MaximaManual_8cpp.html" target="_top" xlink:title="This file defines the class MaximaManual.">
<polygon fill="white" stroke="black" points="926,-0.5 926,-19.5 1056,-19.5 1056,-0.5 926,-0.5"/>
<text text-anchor="middle" x="991" y="-7.5" font-family="Helvetica,sans-Serif" font-size="10.00">src/MaximaManual.cpp</text>
</a>
</g>
</g>
<!-- Node15&#45;&gt;Node17 -->
<g id="edge18" class="edge">
<title>Node15&#45;&gt;Node17</title>
<path fill="none" stroke="midnightblue" d="M1034.53,-49.54C1023.66,-39.91 1010.06,-27.87 1000.98,-19.83"/>
<polygon fill="midnightblue" stroke="midnightblue" points="1032.39,-52.32 1042.2,-56.32 1037.03,-47.07 1032.39,-52.32"/>
</g>
<!-- Node18 -->
<g id="node18" class="node">
<title>Node18</title>
<g id="a_node18"><a xlink:href="wxMaxima_8cpp.html" target="_top" xlink:title="This file defines the contents of the class wxMaxima that contains most of the program&#39;s logic.">
<polygon fill="white" stroke="black" points="1172,-0.5 1172,-19.5 1280,-19.5 1280,-0.5 1172,-0.5"/>
<text text-anchor="middle" x="1226" y="-7.5" font-family="Helvetica,sans-Serif" font-size="10.00">src/wxMaxima.cpp</text>
</a>
</g>
</g>
<!-- Node15&#45;&gt;Node18 -->
<g id="edge19" class="edge">
<title>Node15&#45;&gt;Node18</title>
<path fill="none" stroke="midnightblue" d="M1089.26,-53.44C1122.07,-43.26 1169.08,-28.66 1198.56,-19.52"/>
<polygon fill="midnightblue" stroke="midnightblue" points="1088.08,-50.14 1079.57,-56.44 1090.16,-56.82 1088.08,-50.14"/>
</g>
<!-- Node19&#45;&gt;Node14 -->
<g id="edge22" class="edge">
<title>Node19&#45;&gt;Node14</title>
<path fill="none" stroke="midnightblue" d="M1024.28,-108.1C1002.61,-98.01 973.1,-84.27 954.29,-75.52"/>
<polygon fill="midnightblue" stroke="midnightblue" points="1023.08,-111.4 1033.62,-112.44 1026.03,-105.05 1023.08,-111.4"/>
</g>
<!-- Node19&#45;&gt;Node15 -->
<g id="edge23" class="edge">
<title>Node19&#45;&gt;Node15</title>
<path fill="none" stroke="midnightblue" d="M1052,-101.8C1052,-92.91 1052,-82.78 1052,-75.75"/>
<polygon fill="midnightblue" stroke="midnightblue" points="1048.5,-102.08 1052,-112.08 1055.5,-102.08 1048.5,-102.08"/>
</g>
<!-- Node19&#45;&gt;Node16 -->
<g id="edge24" class="edge">
<title>Node19&#45;&gt;Node16</title>
<path fill="none" stroke="midnightblue" d="M1070.41,-105.54C1078.96,-97.51 1088.61,-87.06 1095,-76 1105.7,-57.47 1110.79,-32.43 1112.84,-19.51"/>
<polygon fill="midnightblue" stroke="midnightblue" points="1067.81,-103.17 1062.7,-112.45 1072.48,-108.38 1067.81,-103.17"/>
</g>
<!-- Node19&#45;&gt;Node18 -->
<g id="edge26" class="edge">
<title>Node19&#45;&gt;Node18</title>
<path fill="none" stroke="midnightblue" d="M1074.13,-107.01C1110.66,-83.92 1182.48,-38.51 1212.41,-19.59"/>
<polygon fill="midnightblue" stroke="midnightblue" points="1072.24,-104.07 1065.65,-112.37 1075.98,-109.98 1072.24,-104.07"/>
</g>
<!-- Node19&#45;&gt;Node20 -->
<g id="edge25" class="edge">
<title>Node19&#45;&gt;Node20</title>
<path fill="none" stroke="midnightblue" d="M1091.76,-109.7C1127.62,-99.51 1179.57,-84.74 1212.03,-75.52"/>
<polygon fill="midnightblue" stroke="midnightblue" points="1090.77,-106.34 1082.11,-112.44 1092.68,-113.08 1090.77,-106.34"/>
</g>
<!-- Node21&#45;&gt;Node5 -->
<g id="edge31" class="edge">
<title>Node21&#45;&gt;Node5</title>
<path fill="none" stroke="midnightblue" d="M582.11,-273.81C590.79,-265.87 600.35,-255.42 606,-244 625.04,-205.5 625.86,-152.42 625.36,-131.74"/>
<polygon fill="midnightblue" stroke="midnightblue" points="579.8,-271.18 574.53,-280.37 584.38,-276.48 579.8,-271.18"/>
</g>
<!-- Node22 -->
<g id="node22" class="node">
<title>Node22</title>
<g id="a_node22"><a xlink:href="StatSidebar_8cpp.html" target="_top" xlink:title="This file defines the class StatSidebar.">
<polygon fill="white" stroke="black" points="443,-224.5 443,-243.5 597,-243.5 597,-224.5 443,-224.5"/>
<text text-anchor="middle" x="520" y="-231.5" font-family="Helvetica,sans-Serif" font-size="10.00">src/sidebars/StatSidebar.cpp</text>
</a>
</g>
</g>
<!-- Node21&#45;&gt;Node22 -->
<g id="edge30" class="edge">
<title>Node21&#45;&gt;Node22</title>
<path fill="none" stroke="midnightblue" d="M549.58,-272.14C542.09,-262.74 533.06,-251.4 526.97,-243.75"/>
<polygon fill="midnightblue" stroke="midnightblue" points="546.93,-274.44 555.9,-280.08 552.41,-270.08 546.93,-274.44"/>
</g>
<!-- Node23&#45;&gt;Node12 -->
<g id="edge34" class="edge">
<title>Node23&#45;&gt;Node12</title>
<path fill="none" stroke="midnightblue" d="M761.8,-276.39C734.26,-264.09 702.25,-244.31 720,-224 754.06,-185.01 901.26,-178.49 987.8,-178.13"/>
<polygon fill="midnightblue" stroke="midnightblue" points="760.7,-279.72 771.27,-280.42 763.44,-273.28 760.7,-279.72"/>
</g>
<!-- Node24 -->
<g id="node24" class="node">
<title>Node24</title>
<g id="a_node24"><a xlink:href="SymbolsSidebar_8cpp.html" target="_top" xlink:title="This file defines the class SymbolsSidebar.">
<polygon fill="white" stroke="black" points="729,-224.5 729,-243.5 905,-243.5 905,-224.5 729,-224.5"/>
<text text-anchor="middle" x="817" y="-231.5" font-family="Helvetica,sans-Serif" font-size="10.00">src/sidebars/SymbolsSidebar.cpp</text>
</a>
</g>
</g>
<!-- Node23&#45;&gt;Node24 -->
<g id="edge33" class="edge">
<title>Node23&#45;&gt;Node24</title>
<path fill="none" stroke="midnightblue" d="M802.46,-270.69C806.17,-261.59 810.48,-251.01 813.43,-243.75"/>
<polygon fill="midnightblue" stroke="midnightblue" points="799.16,-269.5 798.63,-280.08 805.65,-272.14 799.16,-269.5"/>
</g>
<!-- Node26&#45;&gt;Node27 -->
<g id="edge37" class="edge">
<title>Node26&#45;&gt;Node27</title>
<path fill="none" stroke="midnightblue" d="M1375,-269.8C1375,-260.91 1375,-250.78 1375,-243.75"/>
<polygon fill="midnightblue" stroke="midnightblue" points="1371.5,-270.08 1375,-280.08 1378.5,-270.08 1371.5,-270.08"/>
</g>
<!-- Node27&#45;&gt;Node12 -->
<g id="edge43" class="edge">
<title>Node27&#45;&gt;Node12</title>
<path fill="none" stroke="midnightblue" d="M1317.12,-223.32C1256.22,-213.14 1161.27,-197.27 1103.06,-187.54"/>
<polygon fill="midnightblue" stroke="midnightblue" points="1316.9,-226.84 1327.34,-225.03 1318.05,-219.93 1316.9,-226.84"/>
</g>
<!-- Node27&#45;&gt;Node20 -->
<g id="edge42" class="edge">
<title>Node27&#45;&gt;Node20</title>
<path fill="none" stroke="midnightblue" d="M1365.83,-215.61C1352.41,-191.04 1325.76,-145.44 1296,-112 1283.34,-97.78 1266.06,-84.18 1254.49,-75.72"/>
<polygon fill="midnightblue" stroke="midnightblue" points="1362.78,-217.33 1370.6,-224.48 1368.95,-214.02 1362.78,-217.33"/>
</g>
<!-- Node28 -->
<g id="node28" class="node">
<title>Node28</title>
<g id="a_node28"><a xlink:href="ConfigDialogue_8h.html" target="_top" xlink:title="The configuration dialog.">
<polygon fill="white" stroke="black" points="1313.5,-56.5 1313.5,-75.5 1430.5,-75.5 1430.5,-56.5 1313.5,-56.5"/>
<text text-anchor="middle" x="1372" y="-63.5" font-family="Helvetica,sans-Serif" font-size="10.00">src/ConfigDialogue.h</text>
</a>
</g>
</g>
<!-- Node27&#45;&gt;Node28 -->
<g id="edge38" class="edge">
<title>Node27&#45;&gt;Node28</title>
<path fill="none" stroke="midnightblue" d="M1374.66,-213.93C1374,-177.92 1372.62,-101.23 1372.15,-75.57"/>
<polygon fill="midnightblue" stroke="midnightblue" points="1371.16,-214.14 1374.84,-224.08 1378.16,-214.01 1371.16,-214.14"/>
</g>
<!-- Node29 -->
<g id="node29" class="node">
<title>Node29</title>
<g id="a_node29"><a xlink:href="Printout_8cpp.html" target="_top" xlink:title="This file defines the class MathPrintOut.">
<polygon fill="white" stroke="black" points="1403.5,-168.5 1403.5,-187.5 1558.5,-187.5 1558.5,-168.5 1403.5,-168.5"/>
<text text-anchor="middle" x="1481" y="-175.5" font-family="Helvetica,sans-Serif" font-size="10.00">src/graphical_io/Printout.cpp</text>
</a>
</g>
</g>
<!-- Node27&#45;&gt;Node29 -->
<g id="edge41" class="edge">
<title>Node27&#45;&gt;Node29</title>
<path fill="none" stroke="midnightblue" d="M1401.06,-219.73C1420.68,-209.73 1447.03,-196.31 1464.01,-187.65"/>
<polygon fill="midnightblue" stroke="midnightblue" points="1399.35,-216.67 1392.03,-224.32 1402.53,-222.9 1399.35,-216.67"/>
</g>
<!-- Node28&#45;&gt;Node16 -->
<g id="edge39" class="edge">
<title>Node28&#45;&gt;Node16</title>
<path fill="none" stroke="midnightblue" d="M1321.03,-54.33C1271.97,-44.06 1198.78,-28.74 1153.84,-19.34"/>
<polygon fill="midnightblue" stroke="midnightblue" points="1320.61,-57.82 1331.12,-56.44 1322.05,-50.97 1320.61,-57.82"/>
</g>
<!-- Node28&#45;&gt;Node18 -->
<g id="edge40" class="edge">
<title>Node28&#45;&gt;Node18</title>
<path fill="none" stroke="midnightblue" d="M1339.3,-52.91C1311.85,-42.75 1273.33,-28.51 1249.03,-19.52"/>
<polygon fill="midnightblue" stroke="midnightblue" points="1338.27,-56.26 1348.87,-56.44 1340.7,-49.69 1338.27,-56.26"/>
</g>
</g>
</svg>
