<?xml version="1.0" encoding="UTF-8" standalone="no"?>
<!DOCTYPE svg PUBLIC "-//W3C//DTD SVG 1.1//EN"
 "http://www.w3.org/Graphics/SVG/1.1/DTD/svg11.dtd">
<!-- Generated by graphviz version 2.43.0 (0)
 -->
<!-- Title: src/EventIDs.h Pages: 1 -->
<!--zoomable 364 -->
<svg id="main" version="1.1" xmlns="http://www.w3.org/2000/svg" xmlns:xlink="http://www.w3.org/1999/xlink" xml:space="preserve" onload="init(evt)">
<style type="text/css"><![CDATA[
.edge:hover path { stroke: red; }
.edge:hover polygon { stroke: red; fill: red; }
]]></style>
<script type="text/javascript"><![CDATA[
var edges = document.getElementsByTagName('g');
if (edges && edges.length) {
  for (var i=0;i<edges.length;i++) {
    if (edges[i].id.substr(0,4)=='edge') {
      edges[i].setAttribute('class','edge');
    }
  }
}
]]></script>
        <defs>
                <circle id="rim" cx="0" cy="0" r="7"/>
                <circle id="rim2" cx="0" cy="0" r="3.5"/>
                <g id="zoomPlus">
                        <use xlink:href="#rim" fill="#404040">
                                <set attributeName="fill" to="#808080" begin="zoomplus.mouseover" end="zoomplus.mouseout"/>
                        </use>
                        <path d="M-4,0h8M0,-4v8" fill="none" stroke="white" stroke-width="1.5" pointer-events="none"/>
                </g>
                <g id="zoomMin">
                        <use xlink:href="#rim" fill="#404040">
                                <set attributeName="fill" to="#808080" begin="zoomminus.mouseover" end="zoomminus.mouseout"/>
                        </use>
                        <path d="M-4,0h8" fill="none" stroke="white" stroke-width="1.5" pointer-events="none"/>
                </g>
                <g id="dirArrow">
                        <path fill="none" stroke="white" stroke-width="1.5" d="M0,-3.0v7 M-2.5,-0.5L0,-3.0L2.5,-0.5"/>
                </g>
               <g id="resetDef">
                       <use xlink:href="#rim2" fill="#404040">
                               <set attributeName="fill" to="#808080" begin="reset.mouseover" end="reset.mouseout"/>
                       </use>
               </g>
        </defs>

<script type="text/javascript">
var viewWidth = 1788;
var viewHeight = 364;
var sectionId = 'dynsection-1';
</script>
<script xlink:href="svgpan.js"/>
<svg id="graph" class="graph">
<g id="viewport">
<title>src/EventIDs.h</title>
<polygon fill="white" stroke="transparent" points="-4,4 -4,-360 1783.5,-360 1783.5,4 -4,4"/>
<!-- Node1 -->
<g id="node1" class="node">
<title>Node1</title>
<g id="a_node1"><a xlink:title="This file declares the class EventIDs that contains unique IDs for many events wxMaxima needs.">
<polygon fill="#bfbfbf" stroke="black" points="848,-336.5 848,-355.5 934,-355.5 934,-336.5 848,-336.5"/>
<text text-anchor="middle" x="891" y="-343.5" font-family="Helvetica,sans-Serif" font-size="10.00">src/EventIDs.h</text>
</a>
</g>
</g>
<!-- Node2 -->
<g id="node2" class="node">
<title>Node2</title>
<g id="a_node2"><a xlink:href="EventIDs_8cpp.html" target="_top" xlink:title="This file defines the class EventIDs that contains unique IDs for many events wxMaxima needs.">
<polygon fill="white" stroke="black" points="0,-280.5 0,-299.5 98,-299.5 98,-280.5 0,-280.5"/>
<text text-anchor="middle" x="49" y="-287.5" font-family="Helvetica,sans-Serif" font-size="10.00">src/EventIDs.cpp</text>
</a>
</g>
</g>
<!-- Node1&#45;&gt;Node2 -->
<g id="edge1" class="edge">
<title>Node1&#45;&gt;Node2</title>
<path fill="none" stroke="midnightblue" d="M837.75,-343.72C710.9,-340.28 380.96,-329.05 107,-300 104.06,-299.69 101.04,-299.33 98,-298.94"/>
<polygon fill="midnightblue" stroke="midnightblue" points="837.87,-347.22 847.96,-343.99 838.06,-340.22 837.87,-347.22"/>
</g>
<!-- Node3 -->
<g id="node3" class="node">
<title>Node3</title>
<g id="a_node3"><a xlink:href="FormatSidebar_8h.html" target="_top" xlink:title="This file declares the class StatSidebar, that provides some statistics buttons.">
<polygon fill="white" stroke="black" points="116,-280.5 116,-299.5 274,-299.5 274,-280.5 116,-280.5"/>
<text text-anchor="middle" x="195" y="-287.5" font-family="Helvetica,sans-Serif" font-size="10.00">src/sidebars/FormatSidebar.h</text>
</a>
</g>
</g>
<!-- Node1&#45;&gt;Node3 -->
<g id="edge2" class="edge">
<title>Node1&#45;&gt;Node3</title>
<path fill="none" stroke="midnightblue" d="M837.74,-341.56C731.94,-334.62 487.84,-318.05 283,-300 280.09,-299.74 277.13,-299.48 274.14,-299.2"/>
<polygon fill="midnightblue" stroke="midnightblue" points="837.63,-345.06 847.84,-342.22 838.09,-338.08 837.63,-345.06"/>
</g>
<!-- Node6 -->
<g id="node6" class="node">
<title>Node6</title>
<g id="a_node6"><a xlink:href="DrawSidebar_8h.html" target="_top" xlink:title="This file declares the class StatSidebar, that provides some statistics buttons.">
<polygon fill="white" stroke="black" points="991.5,-280.5 991.5,-299.5 1140.5,-299.5 1140.5,-280.5 991.5,-280.5"/>
<text text-anchor="middle" x="1066" y="-287.5" font-family="Helvetica,sans-Serif" font-size="10.00">src/sidebars/DrawSidebar.h</text>
</a>
</g>
</g>
<!-- Node1&#45;&gt;Node6 -->
<g id="edge5" class="edge">
<title>Node1&#45;&gt;Node6</title>
<path fill="none" stroke="midnightblue" d="M928.47,-333.44C961.47,-323.26 1008.76,-308.66 1038.4,-299.52"/>
<polygon fill="midnightblue" stroke="midnightblue" points="927.25,-330.15 918.73,-336.44 929.32,-336.84 927.25,-330.15"/>
</g>
<!-- Node8 -->
<g id="node8" class="node">
<title>Node8</title>
<g id="a_node8"><a xlink:href="wxMaximaFrame_8h.html" target="_top" xlink:title="This file declares the class wxMaximaFrame.">
<polygon fill="white" stroke="black" points="1121,-168.5 1121,-187.5 1249,-187.5 1249,-168.5 1121,-168.5"/>
<text text-anchor="middle" x="1185" y="-175.5" font-family="Helvetica,sans-Serif" font-size="10.00">src/wxMaximaFrame.h</text>
</a>
</g>
</g>
<!-- Node1&#45;&gt;Node8 -->
<g id="edge47" class="edge">
<title>Node1&#45;&gt;Node8</title>
<path fill="none" stroke="midnightblue" d="M944.32,-343.68C1058.89,-340.28 1320.39,-329.37 1347,-300 1393.08,-249.15 1274.3,-205.4 1215.59,-187.56"/>
<polygon fill="midnightblue" stroke="midnightblue" points="943.92,-340.19 934.03,-343.97 944.13,-347.18 943.92,-340.19"/>
</g>
<!-- Node18 -->
<g id="node18" class="node">
<title>Node18</title>
<g id="a_node18"><a xlink:href="GreekSidebar_8h.html" target="_top" xlink:title="This file declares the class wxMaximaFrame.">
<polygon fill="white" stroke="black" points="656,-168.5 656,-187.5 808,-187.5 808,-168.5 656,-168.5"/>
<text text-anchor="middle" x="732" y="-175.5" font-family="Helvetica,sans-Serif" font-size="10.00">src/sidebars/GreekSidebar.h</text>
</a>
</g>
</g>
<!-- Node1&#45;&gt;Node18 -->
<g id="edge23" class="edge">
<title>Node1&#45;&gt;Node18</title>
<path fill="none" stroke="midnightblue" d="M837.44,-342.77C773.58,-338.85 672.48,-328.25 649,-300 616.11,-260.43 686.8,-207.97 718.09,-187.6"/>
<polygon fill="midnightblue" stroke="midnightblue" points="837.56,-346.28 847.74,-343.36 837.96,-339.29 837.56,-346.28"/>
</g>
<!-- Node19 -->
<g id="node19" class="node">
<title>Node19</title>
<g id="a_node19"><a xlink:href="History_8cpp.html" target="_top" xlink:title="This file defines the class History.">
<polygon fill="white" stroke="black" points="658,-280.5 658,-299.5 790,-299.5 790,-280.5 658,-280.5"/>
<text text-anchor="middle" x="724" y="-287.5" font-family="Helvetica,sans-Serif" font-size="10.00">src/sidebars/History.cpp</text>
</a>
</g>
</g>
<!-- Node1&#45;&gt;Node19 -->
<g id="edge26" class="edge">
<title>Node1&#45;&gt;Node19</title>
<path fill="none" stroke="midnightblue" d="M854.83,-333.3C823.36,-323.13 778.51,-308.62 750.34,-299.52"/>
<polygon fill="midnightblue" stroke="midnightblue" points="853.95,-336.7 864.54,-336.44 856.1,-330.04 853.95,-336.7"/>
</g>
<!-- Node20 -->
<g id="node20" class="node">
<title>Node20</title>
<g id="a_node20"><a xlink:href="StatSidebar_8h.html" target="_top" xlink:title="This file declares the class StatSidebar, that provides some statistics buttons.">
<polygon fill="white" stroke="black" points="292.5,-280.5 292.5,-299.5 435.5,-299.5 435.5,-280.5 292.5,-280.5"/>
<text text-anchor="middle" x="364" y="-287.5" font-family="Helvetica,sans-Serif" font-size="10.00">src/sidebars/StatSidebar.h</text>
</a>
</g>
</g>
<!-- Node1&#45;&gt;Node20 -->
<g id="edge27" class="edge">
<title>Node1&#45;&gt;Node20</title>
<path fill="none" stroke="midnightblue" d="M837.92,-339.82C754.32,-331.62 586.9,-315.04 445,-300 441.9,-299.67 438.74,-299.33 435.55,-298.99"/>
<polygon fill="midnightblue" stroke="midnightblue" points="837.64,-343.31 847.93,-340.8 838.32,-336.34 837.64,-343.31"/>
</g>
<!-- Node22 -->
<g id="node22" class="node">
<title>Node22</title>
<g id="a_node22"><a xlink:href="MathSidebar_8h.html" target="_top" xlink:title="This file declares the class wxMaximaFrame.">
<polygon fill="white" stroke="black" points="454,-280.5 454,-299.5 602,-299.5 602,-280.5 454,-280.5"/>
<text text-anchor="middle" x="528" y="-287.5" font-family="Helvetica,sans-Serif" font-size="10.00">src/sidebars/MathSidebar.h</text>
</a>
</g>
</g>
<!-- Node1&#45;&gt;Node22 -->
<g id="edge30" class="edge">
<title>Node1&#45;&gt;Node22</title>
<path fill="none" stroke="midnightblue" d="M837.95,-337.11C770.56,-327.08 654.7,-309.85 585.33,-299.53"/>
<polygon fill="midnightblue" stroke="midnightblue" points="837.53,-340.58 847.93,-338.59 838.56,-333.66 837.53,-340.58"/>
</g>
<!-- Node24 -->
<g id="node24" class="node">
<title>Node24</title>
<g id="a_node24"><a xlink:href="TableOfContents_8cpp.html" target="_top" xlink:title="This file defines the class Structure.">
<polygon fill="white" stroke="black" points="1158.5,-280.5 1158.5,-299.5 1337.5,-299.5 1337.5,-280.5 1158.5,-280.5"/>
<text text-anchor="middle" x="1248" y="-287.5" font-family="Helvetica,sans-Serif" font-size="10.00">src/sidebars/TableOfContents.cpp</text>
</a>
</g>
</g>
<!-- Node1&#45;&gt;Node24 -->
<g id="edge33" class="edge">
<title>Node1&#45;&gt;Node24</title>
<path fill="none" stroke="midnightblue" d="M944.31,-336.94C1010.73,-326.89 1123.72,-309.8 1191.56,-299.54"/>
<polygon fill="midnightblue" stroke="midnightblue" points="943.43,-333.53 934.06,-338.49 944.47,-340.45 943.43,-333.53"/>
</g>
<!-- Node25 -->
<g id="node25" class="node">
<title>Node25</title>
<g id="a_node25"><a xlink:href="SymbolsSidebar_8h.html" target="_top" xlink:title="This file declares the class wxMaximaFrame.">
<polygon fill="white" stroke="black" points="808.5,-280.5 808.5,-299.5 973.5,-299.5 973.5,-280.5 808.5,-280.5"/>
<text text-anchor="middle" x="891" y="-287.5" font-family="Helvetica,sans-Serif" font-size="10.00">src/sidebars/SymbolsSidebar.h</text>
</a>
</g>
</g>
<!-- Node1&#45;&gt;Node25 -->
<g id="edge34" class="edge">
<title>Node1&#45;&gt;Node25</title>
<path fill="none" stroke="midnightblue" d="M891,-325.8C891,-316.91 891,-306.78 891,-299.75"/>
<polygon fill="midnightblue" stroke="midnightblue" points="887.5,-326.08 891,-336.08 894.5,-326.08 887.5,-326.08"/>
</g>
<!-- Node27 -->
<g id="node27" class="node">
<title>Node27</title>
<g id="a_node27"><a xlink:href="UnicodeSidebar_8cpp.html" target="_top" xlink:title="This file defines the class UnicodeSidebar.">
<polygon fill="white" stroke="black" points="1394,-280.5 1394,-299.5 1568,-299.5 1568,-280.5 1394,-280.5"/>
<text text-anchor="middle" x="1481" y="-287.5" font-family="Helvetica,sans-Serif" font-size="10.00">src/sidebars/UnicodeSidebar.cpp</text>
</a>
</g>
</g>
<!-- Node1&#45;&gt;Node27 -->
<g id="edge37" class="edge">
<title>Node1&#45;&gt;Node27</title>
<path fill="none" stroke="midnightblue" d="M944.46,-340.11C1046.52,-330.77 1269.95,-310.32 1393.87,-298.97"/>
<polygon fill="midnightblue" stroke="midnightblue" points="944.02,-336.63 934.38,-341.03 944.66,-343.6 944.02,-336.63"/>
</g>
<!-- Node28 -->
<g id="node28" class="node">
<title>Node28</title>
<g id="a_node28"><a xlink:href="VariablesPane_8h.html" target="_top" xlink:title="The file that contains the &quot;variables&quot; sidepane.">
<polygon fill="white" stroke="black" points="1624.5,-280.5 1624.5,-299.5 1779.5,-299.5 1779.5,-280.5 1624.5,-280.5"/>
<text text-anchor="middle" x="1702" y="-287.5" font-family="Helvetica,sans-Serif" font-size="10.00">src/sidebars/VariablesPane.h</text>
</a>
</g>
</g>
<!-- Node1&#45;&gt;Node28 -->
<g id="edge38" class="edge">
<title>Node1&#45;&gt;Node28</title>
<path fill="none" stroke="midnightblue" d="M944.74,-342.28C1064.35,-336.09 1361.61,-319.92 1610,-300 1614.64,-299.63 1619.41,-299.22 1624.22,-298.8"/>
<polygon fill="midnightblue" stroke="midnightblue" points="944.2,-338.8 934.4,-342.81 944.56,-345.79 944.2,-338.8"/>
</g>
<!-- Node29 -->
<g id="node29" class="node">
<title>Node29</title>
<g id="a_node29"><a xlink:href="Worksheet_8h.html" target="_top" xlink:title="This file defines the class Worksheet.">
<polygon fill="white" stroke="black" points="1535.5,-224.5 1535.5,-243.5 1630.5,-243.5 1630.5,-224.5 1535.5,-224.5"/>
<text text-anchor="middle" x="1583" y="-231.5" font-family="Helvetica,sans-Serif" font-size="10.00">src/Worksheet.h</text>
</a>
</g>
</g>
<!-- Node1&#45;&gt;Node29 -->
<g id="edge46" class="edge">
<title>Node1&#45;&gt;Node29</title>
<path fill="none" stroke="midnightblue" d="M944.23,-345.39C1097.54,-346 1532.02,-343.8 1577,-300 1592.1,-285.29 1588.43,-257.64 1585.29,-243.62"/>
<polygon fill="midnightblue" stroke="midnightblue" points="944.13,-341.89 934.11,-345.35 944.1,-348.89 944.13,-341.89"/>
</g>
<!-- Node4 -->
<g id="node4" class="node">
<title>Node4</title>
<g id="a_node4"><a xlink:href="FormatSidebar_8cpp.html" target="_top" xlink:title="This file defines the class FormatSidebar.">
<polygon fill="white" stroke="black" points="6.5,-224.5 6.5,-243.5 175.5,-243.5 175.5,-224.5 6.5,-224.5"/>
<text text-anchor="middle" x="91" y="-231.5" font-family="Helvetica,sans-Serif" font-size="10.00">src/sidebars/FormatSidebar.cpp</text>
</a>
</g>
</g>
<!-- Node3&#45;&gt;Node4 -->
<g id="edge3" class="edge">
<title>Node3&#45;&gt;Node4</title>
<path fill="none" stroke="midnightblue" d="M169.17,-275.59C149.94,-265.61 124.26,-252.27 107.67,-243.65"/>
<polygon fill="midnightblue" stroke="midnightblue" points="167.8,-278.82 178.29,-280.32 171.03,-272.61 167.8,-278.82"/>
</g>
<!-- Node5 -->
<g id="node5" class="node">
<title>Node5</title>
<g id="a_node5"><a xlink:href="wxMaximaFrame_8cpp.html" target="_top" xlink:title="This file defines the class wxMaximaFrame.">
<polygon fill="white" stroke="black" points="558.5,-112.5 558.5,-131.5 697.5,-131.5 697.5,-112.5 558.5,-112.5"/>
<text text-anchor="middle" x="628" y="-119.5" font-family="Helvetica,sans-Serif" font-size="10.00">src/wxMaximaFrame.cpp</text>
</a>
</g>
</g>
<!-- Node3&#45;&gt;Node5 -->
<g id="edge4" class="edge">
<title>Node3&#45;&gt;Node5</title>
<path fill="none" stroke="midnightblue" d="M206.04,-271.59C224.67,-243.96 265.22,-190.88 315,-168 357.09,-148.66 479.69,-135.26 558.38,-128.38"/>
<polygon fill="midnightblue" stroke="midnightblue" points="202.95,-269.93 200.39,-280.21 208.8,-273.77 202.95,-269.93"/>
</g>
<!-- Node7 -->
<g id="node7" class="node">
<title>Node7</title>
<g id="a_node7"><a xlink:href="DrawSidebar_8cpp.html" target="_top" xlink:title="This file defines the class StatSidebar.">
<polygon fill="white" stroke="black" points="997,-224.5 997,-243.5 1157,-243.5 1157,-224.5 997,-224.5"/>
<text text-anchor="middle" x="1077" y="-231.5" font-family="Helvetica,sans-Serif" font-size="10.00">src/sidebars/DrawSidebar.cpp</text>
</a>
</g>
</g>
<!-- Node6&#45;&gt;Node7 -->
<g id="edge6" class="edge">
<title>Node6&#45;&gt;Node7</title>
<path fill="none" stroke="midnightblue" d="M1069.85,-270.1C1071.68,-261.14 1073.77,-250.86 1075.22,-243.75"/>
<polygon fill="midnightblue" stroke="midnightblue" points="1066.38,-269.59 1067.82,-280.08 1073.24,-270.98 1066.38,-269.59"/>
</g>
<!-- Node6&#45;&gt;Node8 -->
<g id="edge7" class="edge">
<title>Node6&#45;&gt;Node8</title>
<path fill="none" stroke="midnightblue" d="M1113.14,-277.17C1131.91,-270.3 1152.27,-259.78 1166,-244 1180.2,-227.68 1183.8,-201.24 1184.71,-187.66"/>
<polygon fill="midnightblue" stroke="midnightblue" points="1111.85,-273.91 1103.51,-280.44 1114.1,-280.54 1111.85,-273.91"/>
</g>
<!-- Node8&#45;&gt;Node5 -->
<g id="edge22" class="edge">
<title>Node8&#45;&gt;Node5</title>
<path fill="none" stroke="midnightblue" d="M1110.65,-169.79C1002.46,-159.3 803.05,-139.97 697.6,-129.75"/>
<polygon fill="midnightblue" stroke="midnightblue" points="1110.54,-173.3 1120.83,-170.78 1111.22,-166.33 1110.54,-173.3"/>
</g>
<!-- Node9 -->
<g id="node9" class="node">
<title>Node9</title>
<g id="a_node9"><a xlink:href="AutocompletePopup_8cpp.html" target="_top" xlink:title="This file defines the class AutocompletePopup.">
<polygon fill="white" stroke="black" points="1277,-112.5 1277,-131.5 1429,-131.5 1429,-112.5 1277,-112.5"/>
<text text-anchor="middle" x="1353" y="-119.5" font-family="Helvetica,sans-Serif" font-size="10.00">src/AutocompletePopup.cpp</text>
</a>
</g>
</g>
<!-- Node8&#45;&gt;Node9 -->
<g id="edge8" class="edge">
<title>Node8&#45;&gt;Node9</title>
<path fill="none" stroke="midnightblue" d="M1221.39,-165.3C1253.04,-155.13 1298.17,-140.62 1326.5,-131.52"/>
<polygon fill="midnightblue" stroke="midnightblue" points="1220.07,-162.05 1211.62,-168.44 1222.21,-168.72 1220.07,-162.05"/>
</g>
<!-- Node10 -->
<g id="node10" class="node">
<title>Node10</title>
<g id="a_node10"><a xlink:href="EditorCell_8cpp.html" target="_top" xlink:title="This file defines the class EditorCell.">
<polygon fill="white" stroke="black" points="1146.5,-56.5 1146.5,-75.5 1273.5,-75.5 1273.5,-56.5 1146.5,-56.5"/>
<text text-anchor="middle" x="1210" y="-63.5" font-family="Helvetica,sans-Serif" font-size="10.00">src/cells/EditorCell.cpp</text>
</a>
</g>
</g>
<!-- Node8&#45;&gt;Node10 -->
<g id="edge9" class="edge">
<title>Node8&#45;&gt;Node10</title>
<path fill="none" stroke="midnightblue" d="M1168.25,-160.84C1156.75,-147.71 1144.91,-128.69 1153,-112 1161.03,-95.43 1178.44,-83.13 1191.92,-75.61"/>
<polygon fill="midnightblue" stroke="midnightblue" points="1165.77,-163.32 1175.18,-168.19 1170.86,-158.51 1165.77,-163.32"/>
</g>
<!-- Node11 -->
<g id="node11" class="node">
<title>Node11</title>
<g id="a_node11"><a xlink:href="main_8h.html" target="_top" xlink:title="This file declares the class wxMaxima that contains most of the program&#39;s logic.">
<polygon fill="white" stroke="black" points="1060,-56.5 1060,-75.5 1128,-75.5 1128,-56.5 1060,-56.5"/>
<text text-anchor="middle" x="1094" y="-63.5" font-family="Helvetica,sans-Serif" font-size="10.00">src/main.h</text>
</a>
</g>
</g>
<!-- Node8&#45;&gt;Node11 -->
<g id="edge10" class="edge">
<title>Node8&#45;&gt;Node11</title>
<path fill="none" stroke="midnightblue" d="M1170.67,-160.78C1163.23,-152.28 1154.04,-141.65 1146,-132 1129.54,-112.23 1110.83,-88.53 1100.96,-75.92"/>
<polygon fill="midnightblue" stroke="midnightblue" points="1168.19,-163.26 1177.42,-168.46 1173.45,-158.64 1168.19,-163.26"/>
</g>
<!-- Node15 -->
<g id="node15" class="node">
<title>Node15</title>
<g id="a_node15"><a xlink:href="GreekSidebar_8cpp.html" target="_top" xlink:title="This file defines the class GreekSidebar.">
<polygon fill="white" stroke="black" points="813,-112.5 813,-131.5 977,-131.5 977,-112.5 813,-112.5"/>
<text text-anchor="middle" x="895" y="-119.5" font-family="Helvetica,sans-Serif" font-size="10.00">src/sidebars/GreekSidebar.cpp</text>
</a>
</g>
</g>
<!-- Node8&#45;&gt;Node15 -->
<g id="edge14" class="edge">
<title>Node8&#45;&gt;Node15</title>
<path fill="none" stroke="midnightblue" d="M1129.15,-166.6C1074.35,-156.4 991.77,-141.02 940.74,-131.52"/>
<polygon fill="midnightblue" stroke="midnightblue" points="1128.58,-170.05 1139.05,-168.44 1129.86,-163.17 1128.58,-170.05"/>
</g>
<!-- Node16 -->
<g id="node16" class="node">
<title>Node16</title>
<g id="a_node16"><a xlink:href="Worksheet_8cpp.html" target="_top" xlink:title="This file defines the class Worksheet.">
<polygon fill="white" stroke="black" points="1368,-56.5 1368,-75.5 1474,-75.5 1474,-56.5 1368,-56.5"/>
<text text-anchor="middle" x="1421" y="-63.5" font-family="Helvetica,sans-Serif" font-size="10.00">src/Worksheet.cpp</text>
</a>
</g>
</g>
<!-- Node8&#45;&gt;Node16 -->
<g id="edge15" class="edge">
<title>Node8&#45;&gt;Node16</title>
<path fill="none" stroke="midnightblue" d="M1259.23,-174.05C1325.51,-169.68 1415.52,-158.83 1438,-132 1451.78,-115.55 1436.97,-89.17 1427.55,-75.63"/>
<polygon fill="midnightblue" stroke="midnightblue" points="1258.98,-170.56 1249.22,-174.68 1259.42,-177.55 1258.98,-170.56"/>
</g>
<!-- Node17 -->
<g id="node17" class="node">
<title>Node17</title>
<g id="a_node17"><a xlink:href="wxMaxima_8h.html" target="_top" xlink:title="This file declares the class wxMaxima that contains most of the program&#39;s logic.">
<polygon fill="white" stroke="black" points="1161.5,-112.5 1161.5,-131.5 1258.5,-131.5 1258.5,-112.5 1161.5,-112.5"/>
<text text-anchor="middle" x="1210" y="-119.5" font-family="Helvetica,sans-Serif" font-size="10.00">src/wxMaxima.h</text>
</a>
</g>
</g>
<!-- Node8&#45;&gt;Node17 -->
<g id="edge16" class="edge">
<title>Node8&#45;&gt;Node17</title>
<path fill="none" stroke="midnightblue" d="M1193.34,-158.98C1197.58,-149.82 1202.55,-139.09 1205.95,-131.75"/>
<polygon fill="midnightblue" stroke="midnightblue" points="1190.15,-157.54 1189.13,-168.08 1196.51,-160.48 1190.15,-157.54"/>
</g>
<!-- Node12 -->
<g id="node12" class="node">
<title>Node12</title>
<g id="a_node12"><a xlink:href="main_8cpp.html" target="_top" xlink:title="The file that defines the starting point of the program.">
<polygon fill="white" stroke="black" points="1225.5,-0.5 1225.5,-19.5 1304.5,-19.5 1304.5,-0.5 1225.5,-0.5"/>
<text text-anchor="middle" x="1265" y="-7.5" font-family="Helvetica,sans-Serif" font-size="10.00">src/main.cpp</text>
</a>
</g>
</g>
<!-- Node11&#45;&gt;Node12 -->
<g id="edge11" class="edge">
<title>Node11&#45;&gt;Node12</title>
<path fill="none" stroke="midnightblue" d="M1131.04,-53.3C1163.26,-43.13 1209.19,-28.62 1238.03,-19.52"/>
<polygon fill="midnightblue" stroke="midnightblue" points="1129.58,-50.09 1121.1,-56.44 1131.69,-56.77 1129.58,-50.09"/>
</g>
<!-- Node13 -->
<g id="node13" class="node">
<title>Node13</title>
<g id="a_node13"><a xlink:href="MaximaManual_8cpp.html" target="_top" xlink:title="This file defines the class MaximaManual.">
<polygon fill="white" stroke="black" points="1029,-0.5 1029,-19.5 1159,-19.5 1159,-0.5 1029,-0.5"/>
<text text-anchor="middle" x="1094" y="-7.5" font-family="Helvetica,sans-Serif" font-size="10.00">src/MaximaManual.cpp</text>
</a>
</g>
</g>
<!-- Node11&#45;&gt;Node13 -->
<g id="edge12" class="edge">
<title>Node11&#45;&gt;Node13</title>
<path fill="none" stroke="midnightblue" d="M1094,-45.8C1094,-36.91 1094,-26.78 1094,-19.75"/>
<polygon fill="midnightblue" stroke="midnightblue" points="1090.5,-46.08 1094,-56.08 1097.5,-46.08 1090.5,-46.08"/>
</g>
<!-- Node14 -->
<g id="node14" class="node">
<title>Node14</title>
<g id="a_node14"><a xlink:href="wxMaxima_8cpp.html" target="_top" xlink:title="This file defines the contents of the class wxMaxima that contains most of the program&#39;s logic.">
<polygon fill="white" stroke="black" points="1323,-0.5 1323,-19.5 1431,-19.5 1431,-0.5 1323,-0.5"/>
<text text-anchor="middle" x="1377" y="-7.5" font-family="Helvetica,sans-Serif" font-size="10.00">src/wxMaxima.cpp</text>
</a>
</g>
</g>
<!-- Node11&#45;&gt;Node14 -->
<g id="edge13" class="edge">
<title>Node11&#45;&gt;Node14</title>
<path fill="none" stroke="midnightblue" d="M1137.7,-56.06C1137.8,-56.04 1137.9,-56.02 1138,-56 1204.7,-42.9 1282.04,-28.48 1330.25,-19.58"/>
<polygon fill="midnightblue" stroke="midnightblue" points="1137.22,-52.59 1128.1,-57.97 1138.59,-59.45 1137.22,-52.59"/>
</g>
<!-- Node17&#45;&gt;Node10 -->
<g id="edge17" class="edge">
<title>Node17&#45;&gt;Node10</title>
<path fill="none" stroke="midnightblue" d="M1210,-101.8C1210,-92.91 1210,-82.78 1210,-75.75"/>
<polygon fill="midnightblue" stroke="midnightblue" points="1206.5,-102.08 1210,-112.08 1213.5,-102.08 1206.5,-102.08"/>
</g>
<!-- Node17&#45;&gt;Node11 -->
<g id="edge18" class="edge">
<title>Node17&#45;&gt;Node11</title>
<path fill="none" stroke="midnightblue" d="M1182.28,-108.1C1160.61,-98.01 1131.1,-84.27 1112.29,-75.52"/>
<polygon fill="midnightblue" stroke="midnightblue" points="1181.08,-111.4 1191.62,-112.44 1184.03,-105.05 1181.08,-111.4"/>
</g>
<!-- Node17&#45;&gt;Node12 -->
<g id="edge19" class="edge">
<title>Node17&#45;&gt;Node12</title>
<path fill="none" stroke="midnightblue" d="M1245.45,-108.2C1259.78,-101.06 1274.84,-90.61 1283,-76 1293.27,-57.6 1280.2,-32.94 1271.53,-19.92"/>
<polygon fill="midnightblue" stroke="midnightblue" points="1243.85,-105.08 1236.21,-112.41 1246.76,-111.44 1243.85,-105.08"/>
</g>
<!-- Node17&#45;&gt;Node14 -->
<g id="edge21" class="edge">
<title>Node17&#45;&gt;Node14</title>
<path fill="none" stroke="midnightblue" d="M1238.76,-108.23C1256.39,-99.93 1279.11,-88.39 1298,-76 1325.03,-58.27 1353.55,-32.9 1367.79,-19.71"/>
<polygon fill="midnightblue" stroke="midnightblue" points="1237.16,-105.11 1229.55,-112.49 1240.09,-111.47 1237.16,-105.11"/>
</g>
<!-- Node17&#45;&gt;Node16 -->
<g id="edge20" class="edge">
<title>Node17&#45;&gt;Node16</title>
<path fill="none" stroke="midnightblue" d="M1253.14,-109.96C1292.99,-99.76 1351.36,-84.82 1387.72,-75.52"/>
<polygon fill="midnightblue" stroke="midnightblue" points="1252.25,-106.57 1243.43,-112.44 1253.99,-113.35 1252.25,-106.57"/>
</g>
<!-- Node18&#45;&gt;Node5 -->
<g id="edge25" class="edge">
<title>Node18&#45;&gt;Node5</title>
<path fill="none" stroke="midnightblue" d="M706.17,-163.59C686.94,-153.61 661.26,-140.27 644.67,-131.65"/>
<polygon fill="midnightblue" stroke="midnightblue" points="704.8,-166.82 715.29,-168.32 708.03,-160.61 704.8,-166.82"/>
</g>
<!-- Node18&#45;&gt;Node15 -->
<g id="edge24" class="edge">
<title>Node18&#45;&gt;Node15</title>
<path fill="none" stroke="midnightblue" d="M767.7,-165.17C798.4,-155 841.92,-140.59 869.29,-131.52"/>
<polygon fill="midnightblue" stroke="midnightblue" points="766.22,-161.98 757.83,-168.44 768.42,-168.62 766.22,-161.98"/>
</g>
<!-- Node20&#45;&gt;Node5 -->
<g id="edge29" class="edge">
<title>Node20&#45;&gt;Node5</title>
<path fill="none" stroke="midnightblue" d="M314.59,-277.65C279.15,-267.11 240.76,-249.23 260,-224 296.46,-176.19 466.2,-145.4 561.9,-131.54"/>
<polygon fill="midnightblue" stroke="midnightblue" points="313.89,-281.08 324.46,-280.42 315.79,-274.35 313.89,-281.08"/>
</g>
<!-- Node21 -->
<g id="node21" class="node">
<title>Node21</title>
<g id="a_node21"><a xlink:href="StatSidebar_8cpp.html" target="_top" xlink:title="This file defines the class StatSidebar.">
<polygon fill="white" stroke="black" points="269,-224.5 269,-243.5 423,-243.5 423,-224.5 269,-224.5"/>
<text text-anchor="middle" x="346" y="-231.5" font-family="Helvetica,sans-Serif" font-size="10.00">src/sidebars/StatSidebar.cpp</text>
</a>
</g>
</g>
<!-- Node20&#45;&gt;Node21 -->
<g id="edge28" class="edge">
<title>Node20&#45;&gt;Node21</title>
<path fill="none" stroke="midnightblue" d="M357.8,-270.4C354.79,-261.36 351.31,-250.94 348.92,-243.75"/>
<polygon fill="midnightblue" stroke="midnightblue" points="354.54,-271.7 361.03,-280.08 361.19,-269.49 354.54,-271.7"/>
</g>
<!-- Node22&#45;&gt;Node5 -->
<g id="edge32" class="edge">
<title>Node22&#45;&gt;Node5</title>
<path fill="none" stroke="midnightblue" d="M566,-276.44C581.7,-269.35 598.62,-258.85 609,-244 633.84,-208.44 631.16,-152.72 629.04,-131.55"/>
<polygon fill="midnightblue" stroke="midnightblue" points="564.33,-273.35 556.45,-280.43 567.03,-279.81 564.33,-273.35"/>
</g>
<!-- Node23 -->
<g id="node23" class="node">
<title>Node23</title>
<g id="a_node23"><a xlink:href="MathSidebar_8cpp.html" target="_top" xlink:title="This file defines the class SymbolsSidebar.">
<polygon fill="white" stroke="black" points="441.5,-224.5 441.5,-243.5 600.5,-243.5 600.5,-224.5 441.5,-224.5"/>
<text text-anchor="middle" x="521" y="-231.5" font-family="Helvetica,sans-Serif" font-size="10.00">src/sidebars/MathSidebar.cpp</text>
</a>
</g>
</g>
<!-- Node22&#45;&gt;Node23 -->
<g id="edge31" class="edge">
<title>Node22&#45;&gt;Node23</title>
<path fill="none" stroke="midnightblue" d="M525.55,-270.1C524.39,-261.14 523.06,-250.86 522.13,-243.75"/>
<polygon fill="midnightblue" stroke="midnightblue" points="522.09,-270.62 526.84,-280.08 529.03,-269.72 522.09,-270.62"/>
</g>
<!-- Node25&#45;&gt;Node8 -->
<g id="edge36" class="edge">
<title>Node25&#45;&gt;Node8</title>
<path fill="none" stroke="midnightblue" d="M847.5,-277.47C812.79,-266.21 773.16,-247.37 794,-224 815.34,-200.06 1015.69,-187.03 1121,-181.79"/>
<polygon fill="midnightblue" stroke="midnightblue" points="846.52,-280.83 857.11,-280.44 848.59,-274.14 846.52,-280.83"/>
</g>
<!-- Node26 -->
<g id="node26" class="node">
<title>Node26</title>
<g id="a_node26"><a xlink:href="SymbolsSidebar_8cpp.html" target="_top" xlink:title="This file defines the class SymbolsSidebar.">
<polygon fill="white" stroke="black" points="803,-224.5 803,-243.5 979,-243.5 979,-224.5 803,-224.5"/>
<text text-anchor="middle" x="891" y="-231.5" font-family="Helvetica,sans-Serif" font-size="10.00">src/sidebars/SymbolsSidebar.cpp</text>
</a>
</g>
</g>
<!-- Node25&#45;&gt;Node26 -->
<g id="edge35" class="edge">
<title>Node25&#45;&gt;Node26</title>
<path fill="none" stroke="midnightblue" d="M891,-269.8C891,-260.91 891,-250.78 891,-243.75"/>
<polygon fill="midnightblue" stroke="midnightblue" points="887.5,-270.08 891,-280.08 894.5,-270.08 887.5,-270.08"/>
</g>
<!-- Node28&#45;&gt;Node29 -->
<g id="edge39" class="edge">
<title>Node28&#45;&gt;Node29</title>
<path fill="none" stroke="midnightblue" d="M1673.86,-276.23C1651.6,-266.13 1621.14,-252.31 1601.77,-243.52"/>
<polygon fill="midnightblue" stroke="midnightblue" points="1672.59,-279.5 1683.14,-280.44 1675.48,-273.12 1672.59,-279.5"/>
</g>
<!-- Node29&#45;&gt;Node8 -->
<g id="edge45" class="edge">
<title>Node29&#45;&gt;Node8</title>
<path fill="none" stroke="midnightblue" d="M1525.33,-225.18C1451.47,-215.15 1323.93,-197.85 1247.72,-187.51"/>
<polygon fill="midnightblue" stroke="midnightblue" points="1525.01,-228.66 1535.39,-226.54 1525.95,-221.73 1525.01,-228.66"/>
</g>
<!-- Node29&#45;&gt;Node16 -->
<g id="edge44" class="edge">
<title>Node29&#45;&gt;Node16</title>
<path fill="none" stroke="midnightblue" d="M1567.05,-216.65C1533.17,-181.94 1455.06,-101.9 1429.36,-75.57"/>
<polygon fill="midnightblue" stroke="midnightblue" points="1564.8,-219.36 1574.29,-224.08 1569.81,-214.47 1564.8,-219.36"/>
</g>
<!-- Node30 -->
<g id="node30" class="node">
<title>Node30</title>
<g id="a_node30"><a xlink:href="ConfigDialogue_8h.html" target="_top" xlink:title="The configuration dialog.">
<polygon fill="white" stroke="black" points="1492.5,-56.5 1492.5,-75.5 1647.5,-75.5 1647.5,-56.5 1492.5,-56.5"/>
<text text-anchor="middle" x="1570" y="-63.5" font-family="Helvetica,sans-Serif" font-size="10.00">src/dialogs/ConfigDialogue.h</text>
</a>
</g>
</g>
<!-- Node29&#45;&gt;Node30 -->
<g id="edge40" class="edge">
<title>Node29&#45;&gt;Node30</title>
<path fill="none" stroke="midnightblue" d="M1581.51,-213.93C1578.69,-177.92 1572.68,-101.23 1570.67,-75.57"/>
<polygon fill="midnightblue" stroke="midnightblue" points="1578.03,-214.38 1582.3,-224.08 1585.01,-213.83 1578.03,-214.38"/>
</g>
<!-- Node31 -->
<g id="node31" class="node">
<title>Node31</title>
<g id="a_node31"><a xlink:href="Printout_8cpp.html" target="_top" xlink:title="This file defines the class MathPrintOut.">
<polygon fill="white" stroke="black" points="1598.5,-168.5 1598.5,-187.5 1753.5,-187.5 1753.5,-168.5 1598.5,-168.5"/>
<text text-anchor="middle" x="1676" y="-175.5" font-family="Helvetica,sans-Serif" font-size="10.00">src/graphical_io/Printout.cpp</text>
</a>
</g>
</g>
<!-- Node29&#45;&gt;Node31 -->
<g id="edge43" class="edge">
<title>Node29&#45;&gt;Node31</title>
<path fill="none" stroke="midnightblue" d="M1606.81,-219.18C1623.92,-209.24 1646.47,-196.15 1661.1,-187.65"/>
<polygon fill="midnightblue" stroke="midnightblue" points="1604.83,-216.28 1597.94,-224.32 1608.35,-222.33 1604.83,-216.28"/>
</g>
<!-- Node30&#45;&gt;Node12 -->
<g id="edge41" class="edge">
<title>Node30&#45;&gt;Node12</title>
<path fill="none" stroke="midnightblue" d="M1510.88,-54.74C1458.97,-45.7 1381.45,-32.12 1314,-20 1310.94,-19.45 1307.76,-18.88 1304.58,-18.3"/>
<polygon fill="midnightblue" stroke="midnightblue" points="1510.45,-58.22 1520.9,-56.48 1511.65,-51.32 1510.45,-58.22"/>
</g>
<!-- Node30&#45;&gt;Node14 -->
<g id="edge42" class="edge">
<title>Node30&#45;&gt;Node14</title>
<path fill="none" stroke="midnightblue" d="M1529.61,-53.7C1493.18,-43.51 1440.41,-28.74 1407.44,-19.52"/>
<polygon fill="midnightblue" stroke="midnightblue" points="1528.85,-57.12 1539.42,-56.44 1530.73,-50.38 1528.85,-57.12"/>
</g>
</g>
</svg>
        <g id="navigator" transform="translate(0 0)" fill="#404254">
                <rect fill="#f2f5e9" fill-opacity="0.5" stroke="#606060" stroke-width=".5" x="0" y="0" width="60" height="60"/>
                <use id="zoomplus" xlink:href="#zoomPlus" x="17" y="9" onmousedown="handleZoom(evt,'in')"/>
                <use id="zoomminus" xlink:href="#zoomMin" x="42" y="9" onmousedown="handleZoom(evt,'out')"/>
                <use id="reset" xlink:href="#resetDef" x="30" y="36" onmousedown="handleReset()"/>
                <g id="arrowUp" xlink:href="#dirArrow" transform="translate(30 24)" onmousedown="handlePan(0,-1)">
                  <use xlink:href="#rim" fill="#404040">
                        <set attributeName="fill" to="#808080" begin="arrowUp.mouseover" end="arrowUp.mouseout"/>
                  </use>
                  <path fill="none" stroke="white" stroke-width="1.5" d="M0,-3.0v7 M-2.5,-0.5L0,-3.0L2.5,-0.5"/>
                </g>
                <g id="arrowRight" xlink:href="#dirArrow" transform="rotate(90) translate(36 -43)" onmousedown="handlePan(1,0)">
                  <use xlink:href="#rim" fill="#404040">
                        <set attributeName="fill" to="#808080" begin="arrowRight.mouseover" end="arrowRight.mouseout"/>
                  </use>
                  <path fill="none" stroke="white" stroke-width="1.5" d="M0,-3.0v7 M-2.5,-0.5L0,-3.0L2.5,-0.5"/>
                </g>
                <g id="arrowDown" xlink:href="#dirArrow" transform="rotate(180) translate(-30 -48)" onmousedown="handlePan(0,1)">
                  <use xlink:href="#rim" fill="#404040">
                        <set attributeName="fill" to="#808080" begin="arrowDown.mouseover" end="arrowDown.mouseout"/>
                  </use>
                  <path fill="none" stroke="white" stroke-width="1.5" d="M0,-3.0v7 M-2.5,-0.5L0,-3.0L2.5,-0.5"/>
                </g>
                <g id="arrowLeft" xlink:href="#dirArrow" transform="rotate(270) translate(-36 17)" onmousedown="handlePan(-1,0)">
                  <use xlink:href="#rim" fill="#404040">
                        <set attributeName="fill" to="#808080" begin="arrowLeft.mouseover" end="arrowLeft.mouseout"/>
                  </use>
                  <path fill="none" stroke="white" stroke-width="1.5" d="M0,-3.0v7 M-2.5,-0.5L0,-3.0L2.5,-0.5"/>
                </g>
        </g>
        <svg viewBox="0 0 15 15" width="100%" height="30px" preserveAspectRatio="xMaxYMin meet">
         <g id="arrow_out" transform="scale(0.3 0.3)">
          <a xlink:href="EventIDs_8h__dep__incl_org.svg" target="_base">
           <rect id="button" ry="5" rx="5" y="6" x="6" height="38" width="38"
                fill="#f2f5e9" fill-opacity="0.5" stroke="#606060" stroke-width="1.0"/>
           <path id="arrow"
             d="M 11.500037,31.436501 C 11.940474,20.09759 22.043105,11.32322 32.158766,21.979434 L 37.068811,17.246167 C 37.068811,17.246167 37.088388,32 37.088388,32 L 22.160133,31.978069 C 22.160133,31.978069 26.997745,27.140456 26.997745,27.140456 C 18.528582,18.264221 13.291696,25.230495 11.500037,31.436501 z"
             style="fill:#404040;"/>
          </a>
         </g>
        </svg>
</svg>
