<?xml version="1.0" encoding="UTF-8" standalone="no"?>
<!DOCTYPE svg PUBLIC "-//W3C//DTD SVG 1.1//EN"
 "http://www.w3.org/Graphics/SVG/1.1/DTD/svg11.dtd">
<!-- Generated by graphviz version 2.43.0 (0)
 -->
<!-- Title: src/dialogs/FindReplacePane.h Pages: 1 -->
<!--zoomable 368 -->
<svg id="main" version="1.1" xmlns="http://www.w3.org/2000/svg" xmlns:xlink="http://www.w3.org/1999/xlink" xml:space="preserve" onload="init(evt)">
<style type="text/css"><![CDATA[
.edge:hover path { stroke: red; }
.edge:hover polygon { stroke: red; fill: red; }
]]></style>
<script type="text/javascript"><![CDATA[
var edges = document.getElementsByTagName('g');
if (edges && edges.length) {
  for (var i=0;i<edges.length;i++) {
    if (edges[i].id.substr(0,4)=='edge') {
      edges[i].setAttribute('class','edge');
    }
  }
}
]]></script>
        <defs>
                <circle id="rim" cx="0" cy="0" r="7"/>
                <circle id="rim2" cx="0" cy="0" r="3.5"/>
                <g id="zoomPlus">
                        <use xlink:href="#rim" fill="#404040">
                                <set attributeName="fill" to="#808080" begin="zoomplus.mouseover" end="zoomplus.mouseout"/>
                        </use>
                        <path d="M-4,0h8M0,-4v8" fill="none" stroke="white" stroke-width="1.5" pointer-events="none"/>
                </g>
                <g id="zoomMin">
                        <use xlink:href="#rim" fill="#404040">
                                <set attributeName="fill" to="#808080" begin="zoomminus.mouseover" end="zoomminus.mouseout"/>
                        </use>
                        <path d="M-4,0h8" fill="none" stroke="white" stroke-width="1.5" pointer-events="none"/>
                </g>
                <g id="dirArrow">
                        <path fill="none" stroke="white" stroke-width="1.5" d="M0,-3.0v7 M-2.5,-0.5L0,-3.0L2.5,-0.5"/>
                </g>
               <g id="resetDef">
                       <use xlink:href="#rim2" fill="#404040">
                               <set attributeName="fill" to="#808080" begin="reset.mouseover" end="reset.mouseout"/>
                       </use>
               </g>
        </defs>

<script type="text/javascript">
var viewWidth = 3033;
var viewHeight = 368;
var sectionId = 'dynsection-1';
</script>
<script xlink:href="svgpan.js"/>
<svg id="graph" class="graph">
<g id="viewport">
<title>src/dialogs/FindReplacePane.h</title>
<!-- Node1 -->
<g id="node1" class="node">
<title>Node1</title>
<g id="a_node1"><a xlink:title="This file defines the class FindReplacePane.">
<polygon fill="#999999" stroke="#666666" points="1533.5,-360 1369.5,-360 1369.5,-341 1533.5,-341 1533.5,-360"/>
<text text-anchor="middle" x="1451.5" y="-348" font-family="Helvetica,sans-Serif" font-size="10.00">src/dialogs/FindReplacePane.h</text>
</a>
</g>
</g>
<!-- Node2 -->
<g id="node2" class="node">
<title>Node2</title>
<g id="a_node2"><a xlink:href="FindReplaceDialog_8h.html" target="_top" xlink:title="This file defines the class FindReplaceDialog.">
<polygon fill="white" stroke="#666666" points="1441.5,-305 1269.5,-305 1269.5,-286 1441.5,-286 1441.5,-305"/>
<text text-anchor="middle" x="1355.5" y="-293" font-family="Helvetica,sans-Serif" font-size="10.00">src/dialogs/FindReplaceDialog.h</text>
</a>
</g>
</g>
<!-- Node1&#45;&gt;Node2 -->
<g id="edge1" class="edge">
<title>Node1&#45;&gt;Node2</title>
<path fill="none" stroke="#63b8ff" d="M1426.98,-335.97C1409.44,-326.28 1386.33,-313.52 1371.2,-305.17"/>
<polygon fill="#63b8ff" stroke="#63b8ff" points="1425.63,-339.22 1436.08,-340.98 1429.01,-333.09 1425.63,-339.22"/>
</g>
<!-- Node40 -->
<g id="node40" class="node">
<title>Node40</title>
<g id="a_node40"><a xlink:href="FindReplacePane_8cpp.html" target="_top" xlink:title="This file defines the class FindReplacePane.">
<polygon fill="white" stroke="#666666" points="1635,-305 1460,-305 1460,-286 1635,-286 1635,-305"/>
<text text-anchor="middle" x="1547.5" y="-293" font-family="Helvetica,sans-Serif" font-size="10.00">src/dialogs/FindReplacePane.cpp</text>
</a>
</g>
</g>
<!-- Node1&#45;&gt;Node40 -->
<g id="edge54" class="edge">
<title>Node1&#45;&gt;Node40</title>
<path fill="none" stroke="#63b8ff" d="M1476.02,-335.97C1493.56,-326.28 1516.67,-313.52 1531.8,-305.17"/>
<polygon fill="#63b8ff" stroke="#63b8ff" points="1473.99,-333.09 1466.92,-340.98 1477.37,-339.22 1473.99,-333.09"/>
</g>
<!-- Node3 -->
<g id="node3" class="node">
<title>Node3</title>
<g id="a_node3"><a xlink:href="MaximaCommandMenus_8cpp.html" target="_top" xlink:title="Implementation of the menu&#45;command handlers extracted from wxMaxima &#45; see MaximaCommandMenus....">
<polygon fill="white" stroke="#666666" points="270.5,-74 94.5,-74 94.5,-55 270.5,-55 270.5,-74"/>
<text text-anchor="middle" x="182.5" y="-62" font-family="Helvetica,sans-Serif" font-size="10.00">src/MaximaCommandMenus.cpp</text>
</a>
</g>
</g>
<!-- Node2&#45;&gt;Node3 -->
<g id="edge2" class="edge">
<title>Node2&#45;&gt;Node3</title>
<path fill="none" stroke="#63b8ff" d="M1259.11,-290.1C1034.56,-279.09 482.18,-247.41 304.5,-195 243.49,-177 210.52,-183.37 177.5,-129 167.05,-111.8 173.99,-86.96 178.87,-74.04"/>
<polygon fill="#63b8ff" stroke="#63b8ff" points="1259.08,-293.6 1269.23,-290.59 1259.42,-286.61 1259.08,-293.6"/>
</g>
<!-- Node4 -->
<g id="node4" class="node">
<title>Node4</title>
<g id="a_node4"><a xlink:href="FindReplaceDialog_8cpp.html" target="_top" xlink:title="This file defines the class FindReplaceDialog.">
<polygon fill="white" stroke="#666666" points="1631,-250 1448,-250 1448,-231 1631,-231 1631,-250"/>
<text text-anchor="middle" x="1539.5" y="-238" font-family="Helvetica,sans-Serif" font-size="10.00">src/dialogs/FindReplaceDialog.cpp</text>
</a>
</g>
</g>
<!-- Node2&#45;&gt;Node4 -->
<g id="edge3" class="edge">
<title>Node2&#45;&gt;Node4</title>
<path fill="none" stroke="#63b8ff" d="M1394.79,-283.18C1429.2,-273.27 1478.46,-259.08 1509.71,-250.08"/>
<polygon fill="#63b8ff" stroke="#63b8ff" points="1393.7,-279.85 1385.06,-285.98 1395.64,-286.58 1393.7,-279.85"/>
</g>
<!-- Node5 -->
<g id="node5" class="node">
<title>Node5</title>
<g id="a_node5"><a xlink:href="Worksheet_8h.html" target="_top" xlink:title="This file defines the class Worksheet.">
<polygon fill="white" stroke="#666666" points="1430,-250 1281,-250 1281,-231 1430,-231 1430,-250"/>
<text text-anchor="middle" x="1355.5" y="-238" font-family="Helvetica,sans-Serif" font-size="10.00">src/worksheet/Worksheet.h</text>
</a>
</g>
</g>
<!-- Node2&#45;&gt;Node5 -->
<g id="edge4" class="edge">
<title>Node2&#45;&gt;Node5</title>
<path fill="none" stroke="#63b8ff" d="M1355.5,-275.66C1355.5,-266.93 1355.5,-256.99 1355.5,-250.09"/>
<polygon fill="#63b8ff" stroke="#63b8ff" points="1352,-275.75 1355.5,-285.75 1359,-275.75 1352,-275.75"/>
</g>
<!-- Node6 -->
<g id="node6" class="node">
<title>Node6</title>
<g id="a_node6"><a xlink:href="MaximaFileIO_8cpp.html" target="_top" xlink:title="Implements the worksheet file loaders/savers extracted from the wxMaxima god class.">
<polygon fill="white" stroke="#666666" points="664.5,-74 542.5,-74 542.5,-55 664.5,-55 664.5,-74"/>
<text text-anchor="middle" x="603.5" y="-62" font-family="Helvetica,sans-Serif" font-size="10.00">src/MaximaFileIO.cpp</text>
</a>
</g>
</g>
<!-- Node5&#45;&gt;Node6 -->
<g id="edge5" class="edge">
<title>Node5&#45;&gt;Node6</title>
<path fill="none" stroke="#63b8ff" d="M1270.75,-238.49C1050.07,-235.44 472.73,-224.65 444.5,-195 424.21,-173.69 462.99,-114.16 467.5,-110 487.94,-91.13 516.53,-80.25 542.22,-73.99"/>
<polygon fill="#63b8ff" stroke="#63b8ff" points="1270.94,-241.99 1280.98,-238.63 1271.03,-234.99 1270.94,-241.99"/>
</g>
<!-- Node7 -->
<g id="node7" class="node">
<title>Node7</title>
<g id="a_node7"><a xlink:href="MaximaOutputAppender_8cpp.html" target="_top" xlink:title="Implements the worksheet output appenders extracted from the wxMaxima god class.">
<polygon fill="white" stroke="#666666" points="856,-74 683,-74 683,-55 856,-55 856,-74"/>
<text text-anchor="middle" x="769.5" y="-62" font-family="Helvetica,sans-Serif" font-size="10.00">src/MaximaOutputAppender.cpp</text>
</a>
</g>
</g>
<!-- Node5&#45;&gt;Node7 -->
<g id="edge6" class="edge">
<title>Node5&#45;&gt;Node7</title>
<path fill="none" stroke="#63b8ff" d="M1270.77,-238.38C1053.75,-235.11 492.99,-223.9 465.5,-195 395.02,-120.91 570.08,-87.21 682.91,-73.58"/>
<polygon fill="#63b8ff" stroke="#63b8ff" points="1270.79,-241.89 1280.84,-238.53 1270.89,-234.89 1270.79,-241.89"/>
</g>
<!-- Node8 -->
<g id="node8" class="node">
<title>Node8</title>
<g id="a_node8"><a xlink:href="ConfigDialogue_8h.html" target="_top" xlink:title="The configuration dialog.">
<polygon fill="white" stroke="#666666" points="341,-129 186,-129 186,-110 341,-110 341,-129"/>
<text text-anchor="middle" x="263.5" y="-117" font-family="Helvetica,sans-Serif" font-size="10.00">src/dialogs/ConfigDialogue.h</text>
</a>
</g>
</g>
<!-- Node5&#45;&gt;Node8 -->
<g id="edge7" class="edge">
<title>Node5&#45;&gt;Node8</title>
<path fill="none" stroke="#63b8ff" d="M1270.69,-238.76C1044.77,-236.36 439.81,-226.98 355.5,-195 318.22,-180.86 284.61,-145.37 270.52,-129"/>
<polygon fill="#63b8ff" stroke="#63b8ff" points="1270.8,-242.26 1280.84,-238.86 1270.88,-235.26 1270.8,-242.26"/>
</g>
<!-- Node11 -->
<g id="node11" class="node">
<title>Node11</title>
<g id="a_node11"><a xlink:href="DiffFrame_8h_source.html" target="_top" xlink:title=" ">
<polygon fill="white" stroke="#666666" points="129,-129 0,-129 0,-110 129,-110 129,-129"/>
<text text-anchor="middle" x="64.5" y="-117" font-family="Helvetica,sans-Serif" font-size="10.00">src/dialogs/DiffFrame.h</text>
</a>
</g>
</g>
<!-- Node5&#45;&gt;Node11 -->
<g id="edge11" class="edge">
<title>Node5&#45;&gt;Node11</title>
<path fill="none" stroke="#63b8ff" d="M1270.55,-238.73C1054.74,-236.32 489.4,-227.05 304.5,-195 221.32,-180.58 126.77,-145.4 85.56,-129.07"/>
<polygon fill="#63b8ff" stroke="#63b8ff" points="1270.84,-242.23 1280.87,-238.84 1270.91,-235.23 1270.84,-242.23"/>
</g>
<!-- Node12 -->
<g id="node12" class="node">
<title>Node12</title>
<g id="a_node12"><a xlink:href="Printout_8cpp.html" target="_top" xlink:title="This file defines the class MathPrintOut.">
<polygon fill="white" stroke="#666666" points="629,-189.5 474,-189.5 474,-170.5 629,-170.5 629,-189.5"/>
<text text-anchor="middle" x="551.5" y="-177.5" font-family="Helvetica,sans-Serif" font-size="10.00">src/graphical_io/Printout.cpp</text>
</a>
</g>
</g>
<!-- Node5&#45;&gt;Node12 -->
<g id="edge15" class="edge">
<title>Node5&#45;&gt;Node12</title>
<path fill="none" stroke="#63b8ff" d="M1270.75,-236.92C1136.35,-232.22 866.22,-220.33 638.5,-195 625.73,-193.58 611.97,-191.58 599.25,-189.54"/>
<polygon fill="#63b8ff" stroke="#63b8ff" points="1270.86,-240.42 1280.98,-237.27 1271.1,-233.43 1270.86,-240.42"/>
</g>
<!-- Node13 -->
<g id="node13" class="node">
<title>Node13</title>
<g id="a_node13"><a xlink:href="Worksheet_8cpp.html" target="_top" xlink:title="This file defines the class Worksheet.">
<polygon fill="white" stroke="#666666" points="524.5,-74 364.5,-74 364.5,-55 524.5,-55 524.5,-74"/>
<text text-anchor="middle" x="444.5" y="-62" font-family="Helvetica,sans-Serif" font-size="10.00">src/worksheet/Worksheet.cpp</text>
</a>
</g>
</g>
<!-- Node5&#45;&gt;Node13 -->
<g id="edge16" class="edge">
<title>Node5&#45;&gt;Node13</title>
<path fill="none" stroke="#63b8ff" d="M1270.61,-238.53C1048.11,-235.58 463.09,-225 434.5,-195 402.3,-161.21 428.71,-97.39 440,-74.2"/>
<polygon fill="#63b8ff" stroke="#63b8ff" points="1270.89,-242.04 1280.93,-238.67 1270.98,-235.04 1270.89,-242.04"/>
</g>
<!-- Node14 -->
<g id="node14" class="node">
<title>Node14</title>
<g id="a_node14"><a xlink:href="WorksheetContextMenu_8cpp.html" target="_top" xlink:title="The worksheet&#39;s right&#45;click context menu (see WorksheetContextMenu.h).">
<polygon fill="white" stroke="#666666" points="825.5,-195 647.5,-195 647.5,-165 825.5,-165 825.5,-195"/>
<text text-anchor="start" x="655.5" y="-183" font-family="Helvetica,sans-Serif" font-size="10.00">src/worksheet/WorksheetContext</text>
<text text-anchor="middle" x="736.5" y="-172" font-family="Helvetica,sans-Serif" font-size="10.00">Menu.cpp</text>
</a>
</g>
</g>
<!-- Node5&#45;&gt;Node14 -->
<g id="edge17" class="edge">
<title>Node5&#45;&gt;Node14</title>
<path fill="none" stroke="#63b8ff" d="M1270.68,-233.74C1167.45,-226.39 987.91,-212.5 834.5,-195 831.6,-194.67 828.65,-194.32 825.67,-193.96"/>
<polygon fill="#63b8ff" stroke="#63b8ff" points="1270.52,-237.24 1280.74,-234.45 1271.01,-230.25 1270.52,-237.24"/>
</g>
<!-- Node15 -->
<g id="node15" class="node">
<title>Node15</title>
<g id="a_node15"><a xlink:href="wxMaximaFrame_8h.html" target="_top" xlink:title="This file declares the class wxMaximaFrame.">
<polygon fill="white" stroke="#666666" points="3024.5,-189.5 2896.5,-189.5 2896.5,-170.5 3024.5,-170.5 3024.5,-189.5"/>
<text text-anchor="middle" x="2960.5" y="-177.5" font-family="Helvetica,sans-Serif" font-size="10.00">src/wxMaximaFrame.h</text>
</a>
</g>
</g>
<!-- Node5&#45;&gt;Node15 -->
<g id="edge18" class="edge">
<title>Node5&#45;&gt;Node15</title>
<path fill="none" stroke="#63b8ff" d="M1440.12,-231.03C2083.69,-191.31 2250.72,-263.51 2887.5,-195 2898.92,-193.77 2911.22,-191.71 2922.41,-189.53"/>
<polygon fill="#63b8ff" stroke="#63b8ff" points="1439.89,-227.54 1430.13,-231.65 1440.33,-234.52 1439.89,-227.54"/>
</g>
<!-- Node26 -->
<g id="node26" class="node">
<title>Node26</title>
<g id="a_node26"><a xlink:href="test__Accessibility_8cpp.html" target="_top" xlink:title="Logic&#45;level regression tests for wxMaxima&#39;s custom wxAccessible classes.">
<polygon fill="white" stroke="#666666" points="951.5,-195 843.5,-195 843.5,-165 951.5,-165 951.5,-195"/>
<text text-anchor="start" x="851.5" y="-183" font-family="Helvetica,sans-Serif" font-size="10.00">test/unit_tests/test</text>
<text text-anchor="middle" x="897.5" y="-172" font-family="Helvetica,sans-Serif" font-size="10.00">_Accessibility.cpp</text>
</a>
</g>
</g>
<!-- Node5&#45;&gt;Node26 -->
<g id="edge40" class="edge">
<title>Node5&#45;&gt;Node26</title>
<path fill="none" stroke="#63b8ff" d="M1270.86,-232.59C1190.63,-225.43 1066.9,-212.76 960.5,-195 957.63,-194.52 954.69,-193.99 951.72,-193.43"/>
<polygon fill="#63b8ff" stroke="#63b8ff" points="1270.65,-236.09 1280.91,-233.48 1271.26,-229.11 1270.65,-236.09"/>
</g>
<!-- Node27 -->
<g id="node27" class="node">
<title>Node27</title>
<g id="a_node27"><a xlink:href="test__EditorCellInvariants_8cpp.html" target="_top" xlink:title="Hardening tests for EditorCell&#39;s text&#45;editing core.">
<polygon fill="white" stroke="#666666" points="1107.5,-195 969.5,-195 969.5,-165 1107.5,-165 1107.5,-195"/>
<text text-anchor="start" x="977.5" y="-183" font-family="Helvetica,sans-Serif" font-size="10.00">test/unit_tests/test</text>
<text text-anchor="middle" x="1038.5" y="-172" font-family="Helvetica,sans-Serif" font-size="10.00">_EditorCellInvariants.cpp</text>
</a>
</g>
</g>
<!-- Node5&#45;&gt;Node27 -->
<g id="edge41" class="edge">
<title>Node5&#45;&gt;Node27</title>
<path fill="none" stroke="#63b8ff" d="M1299.42,-229.15C1245.93,-219.28 1165.24,-204.39 1107.76,-193.78"/>
<polygon fill="#63b8ff" stroke="#63b8ff" points="1298.94,-232.62 1309.41,-230.99 1300.21,-225.74 1298.94,-232.62"/>
</g>
<!-- Node28 -->
<g id="node28" class="node">
<title>Node28</title>
<g id="a_node28"><a xlink:href="test__EvalQueueCommands_8cpp.html" target="_top" xlink:title="Command&#45;level behavior of the EvaluationQueue: how a GroupCell&#39;s input is broken into the individual ...">
<polygon fill="white" stroke="#666666" points="1275.5,-195 1125.5,-195 1125.5,-165 1275.5,-165 1275.5,-195"/>
<text text-anchor="start" x="1133.5" y="-183" font-family="Helvetica,sans-Serif" font-size="10.00">test/unit_tests/test</text>
<text text-anchor="middle" x="1200.5" y="-172" font-family="Helvetica,sans-Serif" font-size="10.00">_EvalQueueCommands.cpp</text>
</a>
</g>
</g>
<!-- Node5&#45;&gt;Node28 -->
<g id="edge42" class="edge">
<title>Node5&#45;&gt;Node28</title>
<path fill="none" stroke="#63b8ff" d="M1323.59,-227.46C1298.66,-218.05 1263.97,-204.95 1237.76,-195.06"/>
<polygon fill="#63b8ff" stroke="#63b8ff" points="1322.37,-230.74 1332.96,-230.99 1324.84,-224.19 1322.37,-230.74"/>
</g>
<!-- Node29 -->
<g id="node29" class="node">
<title>Node29</title>
<g id="a_node29"><a xlink:href="test__GroupCellLayout_8cpp.html" target="_top" xlink:title="Regression tests for the GroupCell &lt;&#45;&gt; EditorCell layout coupling.">
<polygon fill="white" stroke="#666666" points="1417,-195 1294,-195 1294,-165 1417,-165 1417,-195"/>
<text text-anchor="start" x="1302" y="-183" font-family="Helvetica,sans-Serif" font-size="10.00">test/unit_tests/test</text>
<text text-anchor="middle" x="1355.5" y="-172" font-family="Helvetica,sans-Serif" font-size="10.00">_GroupCellLayout.cpp</text>
</a>
</g>
</g>
<!-- Node5&#45;&gt;Node29 -->
<g id="edge43" class="edge">
<title>Node5&#45;&gt;Node29</title>
<path fill="none" stroke="#63b8ff" d="M1355.5,-220.65C1355.5,-212.36 1355.5,-202.78 1355.5,-195.11"/>
<polygon fill="#63b8ff" stroke="#63b8ff" points="1352,-220.87 1355.5,-230.87 1359,-220.87 1352,-220.87"/>
</g>
<!-- Node30 -->
<g id="node30" class="node">
<title>Node30</title>
<g id="a_node30"><a xlink:href="test__LayoutInvariants_8cpp.html" target="_top" xlink:title="Layout idempotency invariants.">
<polygon fill="white" stroke="#666666" points="1559.5,-195 1435.5,-195 1435.5,-165 1559.5,-165 1559.5,-195"/>
<text text-anchor="start" x="1443.5" y="-183" font-family="Helvetica,sans-Serif" font-size="10.00">test/unit_tests/test</text>
<text text-anchor="middle" x="1497.5" y="-172" font-family="Helvetica,sans-Serif" font-size="10.00">_LayoutInvariants.cpp</text>
</a>
</g>
</g>
<!-- Node5&#45;&gt;Node30 -->
<g id="edge44" class="edge">
<title>Node5&#45;&gt;Node30</title>
<path fill="none" stroke="#63b8ff" d="M1385.65,-227.08C1408.41,-217.7 1439.67,-204.82 1463.36,-195.06"/>
<polygon fill="#63b8ff" stroke="#63b8ff" points="1384.06,-223.95 1376.15,-230.99 1386.73,-230.42 1384.06,-223.95"/>
</g>
<!-- Node31 -->
<g id="node31" class="node">
<title>Node31</title>
<g id="a_node31"><a xlink:href="test__TreeUndo_8cpp.html" target="_top" xlink:title="Regression tests for the worksheet&#39;s cell&#45;tree undo/redo (the TreeUndo_* subsystem of Worksheet).">
<polygon fill="white" stroke="#666666" points="1685.5,-195 1577.5,-195 1577.5,-165 1685.5,-165 1685.5,-195"/>
<text text-anchor="start" x="1585.5" y="-183" font-family="Helvetica,sans-Serif" font-size="10.00">test/unit_tests/test</text>
<text text-anchor="middle" x="1631.5" y="-172" font-family="Helvetica,sans-Serif" font-size="10.00">_TreeUndo.cpp</text>
</a>
</g>
</g>
<!-- Node5&#45;&gt;Node31 -->
<g id="edge45" class="edge">
<title>Node5&#45;&gt;Node31</title>
<path fill="none" stroke="#63b8ff" d="M1407.14,-228.9C1450.3,-220 1513.46,-206.87 1568.5,-195 1571.35,-194.39 1574.27,-193.75 1577.21,-193.11"/>
<polygon fill="#63b8ff" stroke="#63b8ff" points="1406.25,-225.51 1397.16,-230.96 1407.66,-232.37 1406.25,-225.51"/>
</g>
<!-- Node32 -->
<g id="node32" class="node">
<title>Node32</title>
<g id="a_node32"><a xlink:href="test__WXMRoundtrip_8cpp.html" target="_top" xlink:title="Regression tests for images surviving the .wxm serialization round&#45;trip.">
<polygon fill="white" stroke="#666666" points="1819,-195 1704,-195 1704,-165 1819,-165 1819,-195"/>
<text text-anchor="start" x="1712" y="-183" font-family="Helvetica,sans-Serif" font-size="10.00">test/unit_tests/test</text>
<text text-anchor="middle" x="1761.5" y="-172" font-family="Helvetica,sans-Serif" font-size="10.00">_WXMRoundtrip.cpp</text>
</a>
</g>
</g>
<!-- Node5&#45;&gt;Node32 -->
<g id="edge46" class="edge">
<title>Node5&#45;&gt;Node32</title>
<path fill="none" stroke="#63b8ff" d="M1440.48,-230.15C1509.21,-222.15 1608.36,-209.63 1694.5,-195 1697.55,-194.48 1700.66,-193.93 1703.81,-193.34"/>
<polygon fill="#63b8ff" stroke="#63b8ff" points="1439.67,-226.72 1430.14,-231.34 1440.48,-233.67 1439.67,-226.72"/>
</g>
<!-- Node33 -->
<g id="node33" class="node">
<title>Node33</title>
<g id="a_node33"><a xlink:href="test__WXMXRoundtrip_8cpp.html" target="_top" xlink:title="Round&#45;trip tests for the .wxmx content.xml (the MathML&#45;like math format).">
<polygon fill="white" stroke="#666666" points="1959.5,-195 1837.5,-195 1837.5,-165 1959.5,-165 1959.5,-195"/>
<text text-anchor="start" x="1845.5" y="-183" font-family="Helvetica,sans-Serif" font-size="10.00">test/unit_tests/test</text>
<text text-anchor="middle" x="1898.5" y="-172" font-family="Helvetica,sans-Serif" font-size="10.00">_WXMXRoundtrip.cpp</text>
</a>
</g>
</g>
<!-- Node5&#45;&gt;Node33 -->
<g id="edge47" class="edge">
<title>Node5&#45;&gt;Node33</title>
<path fill="none" stroke="#63b8ff" d="M1440.15,-230.95C1614.01,-214.46 1659.88,-219.6 1828.5,-195 1831.44,-194.57 1834.45,-194.1 1837.48,-193.6"/>
<polygon fill="#63b8ff" stroke="#63b8ff" points="1439.77,-227.47 1430.15,-231.91 1440.44,-234.44 1439.77,-227.47"/>
</g>
<!-- Node34 -->
<g id="node34" class="node">
<title>Node34</title>
<g id="a_node34"><a xlink:href="test__WorksheetClipboard_8cpp.html" target="_top" xlink:title="Safety net for the multi&#45;format clipboard / drag&#45;and&#45;drop payload of Worksheet.">
<polygon fill="white" stroke="#666666" points="2117.5,-195 1977.5,-195 1977.5,-165 2117.5,-165 2117.5,-195"/>
<text text-anchor="start" x="1985.5" y="-183" font-family="Helvetica,sans-Serif" font-size="10.00">test/unit_tests/test</text>
<text text-anchor="middle" x="2047.5" y="-172" font-family="Helvetica,sans-Serif" font-size="10.00">_WorksheetClipboard.cpp</text>
</a>
</g>
</g>
<!-- Node5&#45;&gt;Node34 -->
<g id="edge48" class="edge">
<title>Node5&#45;&gt;Node34</title>
<path fill="none" stroke="#63b8ff" d="M1440.41,-230.96C1676.06,-211.48 1737.9,-223.2 1968.5,-195 1971.4,-194.64 1974.36,-194.25 1977.35,-193.84"/>
<polygon fill="#63b8ff" stroke="#63b8ff" points="1439.82,-227.5 1430.14,-231.82 1440.4,-234.47 1439.82,-227.5"/>
</g>
<!-- Node35 -->
<g id="node35" class="node">
<title>Node35</title>
<g id="a_node35"><a xlink:href="test__WorksheetContextMenu_8cpp.html" target="_top" xlink:title="Regression tests for the worksheet&#39;s right&#45;click context menu.">
<polygon fill="white" stroke="#666666" points="2295,-195 2136,-195 2136,-165 2295,-165 2295,-195"/>
<text text-anchor="start" x="2144" y="-183" font-family="Helvetica,sans-Serif" font-size="10.00">test/unit_tests/test</text>
<text text-anchor="middle" x="2215.5" y="-172" font-family="Helvetica,sans-Serif" font-size="10.00">_WorksheetContextMenu.cpp</text>
</a>
</g>
</g>
<!-- Node5&#45;&gt;Node35 -->
<g id="edge49" class="edge">
<title>Node5&#45;&gt;Node35</title>
<path fill="none" stroke="#63b8ff" d="M1440.18,-230.99C1746.06,-208.01 1825.67,-226.46 2126.5,-195 2129.61,-194.67 2132.78,-194.31 2135.98,-193.93"/>
<polygon fill="#63b8ff" stroke="#63b8ff" points="1439.84,-227.51 1430.14,-231.76 1440.37,-234.49 1439.84,-227.51"/>
</g>
<!-- Node36 -->
<g id="node36" class="node">
<title>Node36</title>
<g id="a_node36"><a xlink:href="test__WorksheetCursor_8cpp.html" target="_top" xlink:title="Pins the worksheet&#39;s cursor model before it is gathered into a cursor class.">
<polygon fill="white" stroke="#666666" points="2438,-195 2313,-195 2313,-165 2438,-165 2438,-195"/>
<text text-anchor="start" x="2321" y="-183" font-family="Helvetica,sans-Serif" font-size="10.00">test/unit_tests/test</text>
<text text-anchor="middle" x="2375.5" y="-172" font-family="Helvetica,sans-Serif" font-size="10.00">_WorksheetCursor.cpp</text>
</a>
</g>
</g>
<!-- Node5&#45;&gt;Node36 -->
<g id="edge50" class="edge">
<title>Node5&#45;&gt;Node36</title>
<path fill="none" stroke="#63b8ff" d="M1440.15,-231.01C1825.02,-204.24 1925.67,-239.96 2304.5,-195 2307.24,-194.67 2310.04,-194.3 2312.86,-193.89"/>
<polygon fill="#63b8ff" stroke="#63b8ff" points="1439.86,-227.52 1430.14,-231.72 1440.36,-234.5 1439.86,-227.52"/>
</g>
<!-- Node37 -->
<g id="node37" class="node">
<title>Node37</title>
<g id="a_node37"><a xlink:href="test__WorksheetEvalQueue_8cpp.html" target="_top" xlink:title="Pins the worksheet&#39;s &quot;add cells to the evaluation queue&quot; behavior before the Add*ToEvaluationQueue fa...">
<polygon fill="white" stroke="#666666" points="2602.5,-195 2456.5,-195 2456.5,-165 2602.5,-165 2602.5,-195"/>
<text text-anchor="start" x="2464.5" y="-183" font-family="Helvetica,sans-Serif" font-size="10.00">test/unit_tests/test</text>
<text text-anchor="middle" x="2529.5" y="-172" font-family="Helvetica,sans-Serif" font-size="10.00">_WorksheetEvalQueue.cpp</text>
</a>
</g>
</g>
<!-- Node5&#45;&gt;Node37 -->
<g id="edge51" class="edge">
<title>Node5&#45;&gt;Node37</title>
<path fill="none" stroke="#63b8ff" d="M1440.11,-231.02C1888.44,-201.01 2004.83,-240.49 2447.5,-195 2450.37,-194.7 2453.3,-194.37 2456.25,-194"/>
<polygon fill="#63b8ff" stroke="#63b8ff" points="1439.87,-227.53 1430.13,-231.69 1440.35,-234.51 1439.87,-227.53"/>
</g>
<!-- Node38 -->
<g id="node38" class="node">
<title>Node38</title>
<g id="a_node38"><a xlink:href="test__WorksheetExport_8cpp.html" target="_top" xlink:title="Safety net for the export/serialization cluster of Worksheet.">
<polygon fill="white" stroke="#666666" points="2746,-195 2621,-195 2621,-165 2746,-165 2746,-195"/>
<text text-anchor="start" x="2629" y="-183" font-family="Helvetica,sans-Serif" font-size="10.00">test/unit_tests/test</text>
<text text-anchor="middle" x="2683.5" y="-172" font-family="Helvetica,sans-Serif" font-size="10.00">_WorksheetExport.cpp</text>
</a>
</g>
</g>
<!-- Node5&#45;&gt;Node38 -->
<g id="edge52" class="edge">
<title>Node5&#45;&gt;Node38</title>
<path fill="none" stroke="#63b8ff" d="M1440.17,-231.02C1961.23,-197.45 2096.88,-252.56 2611.5,-195 2614.54,-194.66 2617.64,-194.26 2620.76,-193.82"/>
<polygon fill="#63b8ff" stroke="#63b8ff" points="1439.88,-227.53 1430.13,-231.67 1440.34,-234.52 1439.88,-227.53"/>
</g>
<!-- Node39 -->
<g id="node39" class="node">
<title>Node39</title>
<g id="a_node39"><a xlink:href="test__WorksheetFind_8cpp.html" target="_top" xlink:title="Pins the worksheet&#39;s find/replace behavior before the search engine is extracted into WorksheetSearch...">
<polygon fill="white" stroke="#666666" points="2878.5,-195 2764.5,-195 2764.5,-165 2878.5,-165 2878.5,-195"/>
<text text-anchor="start" x="2772.5" y="-183" font-family="Helvetica,sans-Serif" font-size="10.00">test/unit_tests/test</text>
<text text-anchor="middle" x="2821.5" y="-172" font-family="Helvetica,sans-Serif" font-size="10.00">_WorksheetFind.cpp</text>
</a>
</g>
</g>
<!-- Node5&#45;&gt;Node39 -->
<g id="edge53" class="edge">
<title>Node5&#45;&gt;Node39</title>
<path fill="none" stroke="#63b8ff" d="M1440.51,-231C2025.19,-194.34 2177.88,-263.59 2755.5,-195 2758.41,-194.65 2761.38,-194.24 2764.37,-193.78"/>
<polygon fill="#63b8ff" stroke="#63b8ff" points="1439.89,-227.53 1430.13,-231.66 1440.33,-234.52 1439.89,-227.53"/>
</g>
<!-- Node8&#45;&gt;Node3 -->
<g id="edge8" class="edge">
<title>Node8&#45;&gt;Node3</title>
<path fill="none" stroke="#63b8ff" d="M241.99,-104.42C227.29,-94.81 208.28,-82.37 195.75,-74.17"/>
<polygon fill="#63b8ff" stroke="#63b8ff" points="240.2,-107.44 250.49,-109.98 244.03,-101.58 240.2,-107.44"/>
</g>
<!-- Node9 -->
<g id="node9" class="node">
<title>Node9</title>
<g id="a_node9"><a xlink:href="main_8cpp.html" target="_top" xlink:title="The file that defines the starting point of the program.">
<polygon fill="white" stroke="#666666" points="631,-19 552,-19 552,0 631,0 631,-19"/>
<text text-anchor="middle" x="591.5" y="-7" font-family="Helvetica,sans-Serif" font-size="10.00">src/main.cpp</text>
</a>
</g>
</g>
<!-- Node8&#45;&gt;Node9 -->
<g id="edge9" class="edge">
<title>Node8&#45;&gt;Node9</title>
<path fill="none" stroke="#63b8ff" d="M274.41,-101.52C284.87,-86.73 302.08,-65.97 322.5,-55 361.49,-34.05 487.05,-19.96 551.91,-13.89"/>
<polygon fill="#63b8ff" stroke="#63b8ff" points="271.5,-99.58 268.79,-109.82 277.29,-103.5 271.5,-99.58"/>
</g>
<!-- Node10 -->
<g id="node10" class="node">
<title>Node10</title>
<g id="a_node10"><a xlink:href="wxMaxima_8cpp.html" target="_top" xlink:title="This file defines the contents of the class wxMaxima that contains most of the program&#39;s logic.">
<polygon fill="white" stroke="#666666" points="1101.5,-19 993.5,-19 993.5,0 1101.5,0 1101.5,-19"/>
<text text-anchor="middle" x="1047.5" y="-7" font-family="Helvetica,sans-Serif" font-size="10.00">src/wxMaxima.cpp</text>
</a>
</g>
</g>
<!-- Node8&#45;&gt;Node10 -->
<g id="edge10" class="edge">
<title>Node8&#45;&gt;Node10</title>
<path fill="none" stroke="#63b8ff" d="M282.25,-103.76C304.3,-86.76 339.88,-60.42 355.5,-55 415.1,-34.31 841.09,-17.67 993.47,-12.31"/>
<polygon fill="#63b8ff" stroke="#63b8ff" points="280.01,-101.07 274.26,-109.97 284.3,-106.6 280.01,-101.07"/>
</g>
<!-- Node11&#45;&gt;Node3 -->
<g id="edge12" class="edge">
<title>Node11&#45;&gt;Node3</title>
<path fill="none" stroke="#63b8ff" d="M92.85,-105.77C114.62,-95.99 144.09,-82.75 163.2,-74.17"/>
<polygon fill="#63b8ff" stroke="#63b8ff" points="91.15,-102.69 83.46,-109.98 94.01,-109.08 91.15,-102.69"/>
</g>
<!-- Node11&#45;&gt;Node9 -->
<g id="edge13" class="edge">
<title>Node11&#45;&gt;Node9</title>
<path fill="none" stroke="#63b8ff" d="M53.9,-100.67C47.03,-86.55 41.25,-67.22 52.5,-55 86.17,-18.44 432.91,-11.91 551.77,-10.75"/>
<polygon fill="#63b8ff" stroke="#63b8ff" points="51.03,-102.73 58.87,-109.86 57.19,-99.4 51.03,-102.73"/>
</g>
<!-- Node11&#45;&gt;Node10 -->
<g id="edge14" class="edge">
<title>Node11&#45;&gt;Node10</title>
<path fill="none" stroke="#63b8ff" d="M65.24,-99.74C66.91,-85.04 71.79,-65.4 85.5,-55 103.71,-41.19 793.21,-18.49 993.48,-12.18"/>
<polygon fill="#63b8ff" stroke="#63b8ff" points="61.75,-99.55 64.49,-109.78 68.73,-100.07 61.75,-99.55"/>
</g>
<!-- Node15&#45;&gt;Node13 -->
<g id="edge26" class="edge">
<title>Node15&#45;&gt;Node13</title>
<path fill="none" stroke="#63b8ff" d="M2912.76,-168.63C2904.38,-167.16 2895.71,-165.85 2887.5,-165 2001.03,-72.73 1770.84,-201.08 882.5,-129 738.33,-117.3 569.35,-88.47 490,-74.03"/>
<polygon fill="#63b8ff" stroke="#63b8ff" points="2912.32,-172.11 2922.8,-170.49 2913.6,-165.23 2912.32,-172.11"/>
</g>
<!-- Node16 -->
<g id="node16" class="node">
<title>Node16</title>
<g id="a_node16"><a xlink:href="AutocompletePopup_8cpp.html" target="_top" xlink:title="This file defines the class AutocompletePopup.">
<polygon fill="white" stroke="#666666" points="2932.5,-129 2780.5,-129 2780.5,-110 2932.5,-110 2932.5,-129"/>
<text text-anchor="middle" x="2856.5" y="-117" font-family="Helvetica,sans-Serif" font-size="10.00">src/AutocompletePopup.cpp</text>
</a>
</g>
</g>
<!-- Node15&#45;&gt;Node16 -->
<g id="edge19" class="edge">
<title>Node15&#45;&gt;Node16</title>
<path fill="none" stroke="#63b8ff" d="M2936.36,-165.42C2916.49,-154.24 2888.91,-138.73 2871.91,-129.17"/>
<polygon fill="#63b8ff" stroke="#63b8ff" points="2934.72,-168.52 2945.15,-170.37 2938.15,-162.41 2934.72,-168.52"/>
</g>
<!-- Node17 -->
<g id="node17" class="node">
<title>Node17</title>
<g id="a_node17"><a xlink:href="EditorCell_8cpp.html" target="_top" xlink:title="This file defines the class EditorCell.">
<polygon fill="white" stroke="#666666" points="2366,-74 2239,-74 2239,-55 2366,-55 2366,-74"/>
<text text-anchor="middle" x="2302.5" y="-62" font-family="Helvetica,sans-Serif" font-size="10.00">src/cells/EditorCell.cpp</text>
</a>
</g>
</g>
<!-- Node15&#45;&gt;Node17 -->
<g id="edge20" class="edge">
<title>Node15&#45;&gt;Node17</title>
<path fill="none" stroke="#63b8ff" d="M2960.87,-159.78C2960.04,-143.83 2956.05,-121.9 2941.5,-110 2897.66,-74.13 2518.83,-67.17 2366.01,-65.82"/>
<polygon fill="#63b8ff" stroke="#63b8ff" points="2957.37,-160.16 2961.02,-170.11 2964.37,-160.06 2957.37,-160.16"/>
</g>
<!-- Node18 -->
<g id="node18" class="node">
<title>Node18</title>
<g id="a_node18"><a xlink:href="main_8h.html" target="_top" xlink:title="This file declares the class wxMaxima that contains most of the program&#39;s logic.">
<polygon fill="white" stroke="#666666" points="1561.5,-74 1493.5,-74 1493.5,-55 1561.5,-55 1561.5,-74"/>
<text text-anchor="middle" x="1527.5" y="-62" font-family="Helvetica,sans-Serif" font-size="10.00">src/main.h</text>
</a>
</g>
</g>
<!-- Node15&#45;&gt;Node18 -->
<g id="edge21" class="edge">
<title>Node15&#45;&gt;Node18</title>
<path fill="none" stroke="#63b8ff" d="M2910.52,-168.62C2902.83,-167.25 2894.97,-165.99 2887.5,-165 2362.05,-95.63 1715.54,-71.5 1561.55,-66.53"/>
<polygon fill="#63b8ff" stroke="#63b8ff" points="2910.01,-172.08 2920.47,-170.45 2911.28,-165.2 2910.01,-172.08"/>
</g>
<!-- Node20 -->
<g id="node20" class="node">
<title>Node20</title>
<g id="a_node20"><a xlink:href="GreekSidebar_8cpp.html" target="_top" xlink:title="This file defines the class GreekSidebar.">
<polygon fill="white" stroke="#666666" points="1055.5,-129 891.5,-129 891.5,-110 1055.5,-110 1055.5,-129"/>
<text text-anchor="middle" x="973.5" y="-117" font-family="Helvetica,sans-Serif" font-size="10.00">src/sidebars/GreekSidebar.cpp</text>
</a>
</g>
</g>
<!-- Node15&#45;&gt;Node20 -->
<g id="edge25" class="edge">
<title>Node15&#45;&gt;Node20</title>
<path fill="none" stroke="#63b8ff" d="M2912.48,-168.59C2904.19,-167.14 2895.62,-165.85 2887.5,-165 2484.75,-122.71 1469.83,-151.64 1065.5,-129 1062.3,-128.82 1059.03,-128.62 1055.74,-128.4"/>
<polygon fill="#63b8ff" stroke="#63b8ff" points="2911.95,-172.05 2922.42,-170.43 2913.22,-165.17 2911.95,-172.05"/>
</g>
<!-- Node21 -->
<g id="node21" class="node">
<title>Node21</title>
<g id="a_node21"><a xlink:href="wxMaxima_8h.html" target="_top" xlink:title="This file declares the class wxMaxima that contains most of the program&#39;s logic.">
<polygon fill="white" stroke="#666666" points="1328,-129 1231,-129 1231,-110 1328,-110 1328,-129"/>
<text text-anchor="middle" x="1279.5" y="-117" font-family="Helvetica,sans-Serif" font-size="10.00">src/wxMaxima.h</text>
</a>
</g>
</g>
<!-- Node15&#45;&gt;Node21 -->
<g id="edge27" class="edge">
<title>Node15&#45;&gt;Node21</title>
<path fill="none" stroke="#63b8ff" d="M2912.48,-168.65C2904.18,-167.19 2895.62,-165.88 2887.5,-165 2573.95,-130.82 1561.88,-122.31 1328.03,-120.78"/>
<polygon fill="#63b8ff" stroke="#63b8ff" points="2911.94,-172.11 2922.41,-170.49 2913.22,-165.22 2911.94,-172.11"/>
</g>
<!-- Node25 -->
<g id="node25" class="node">
<title>Node25</title>
<g id="a_node25"><a xlink:href="wxMaximaFrame_8cpp.html" target="_top" xlink:title="This file defines the class wxMaximaFrame.">
<polygon fill="white" stroke="#666666" points="1213,-129 1074,-129 1074,-110 1213,-110 1213,-129"/>
<text text-anchor="middle" x="1143.5" y="-117" font-family="Helvetica,sans-Serif" font-size="10.00">src/wxMaximaFrame.cpp</text>
</a>
</g>
</g>
<!-- Node15&#45;&gt;Node25 -->
<g id="edge39" class="edge">
<title>Node15&#45;&gt;Node25</title>
<path fill="none" stroke="#63b8ff" d="M2912.48,-168.61C2904.19,-167.15 2895.62,-165.86 2887.5,-165 2151.45,-87.02 1961.14,-176.63 1222.5,-129 1219.47,-128.8 1216.38,-128.58 1213.26,-128.33"/>
<polygon fill="#63b8ff" stroke="#63b8ff" points="2911.95,-172.07 2922.42,-170.44 2913.22,-165.18 2911.95,-172.07"/>
</g>
<!-- Node18&#45;&gt;Node9 -->
<g id="edge23" class="edge">
<title>Node18&#45;&gt;Node9</title>
<path fill="none" stroke="#63b8ff" d="M1483.1,-58.42C1471.23,-57.17 1458.38,-55.93 1446.5,-55 1132.72,-30.39 753.06,-16.05 631.18,-11.82"/>
<polygon fill="#63b8ff" stroke="#63b8ff" points="1482.93,-61.92 1493.25,-59.5 1483.68,-54.96 1482.93,-61.92"/>
</g>
<!-- Node18&#45;&gt;Node10 -->
<g id="edge24" class="edge">
<title>Node18&#45;&gt;Node10</title>
<path fill="none" stroke="#63b8ff" d="M1483.37,-55.56C1482.06,-55.36 1480.77,-55.18 1479.5,-55 1343.97,-36.05 1183.47,-21.6 1101.53,-14.8"/>
<polygon fill="#63b8ff" stroke="#63b8ff" points="1483.04,-59.05 1493.46,-57.16 1484.13,-52.14 1483.04,-59.05"/>
</g>
<!-- Node19 -->
<g id="node19" class="node">
<title>Node19</title>
<g id="a_node19"><a xlink:href="MaximaManual_8cpp.html" target="_top" xlink:title="This file defines the class MaximaManual.">
<polygon fill="white" stroke="#666666" points="1592.5,-19 1462.5,-19 1462.5,0 1592.5,0 1592.5,-19"/>
<text text-anchor="middle" x="1527.5" y="-7" font-family="Helvetica,sans-Serif" font-size="10.00">src/MaximaManual.cpp</text>
</a>
</g>
</g>
<!-- Node18&#45;&gt;Node19 -->
<g id="edge22" class="edge">
<title>Node18&#45;&gt;Node19</title>
<path fill="none" stroke="#63b8ff" d="M1527.5,-44.66C1527.5,-35.93 1527.5,-25.99 1527.5,-19.09"/>
<polygon fill="#63b8ff" stroke="#63b8ff" points="1524,-44.75 1527.5,-54.75 1531,-44.75 1524,-44.75"/>
</g>
<!-- Node21&#45;&gt;Node3 -->
<g id="edge28" class="edge">
<title>Node21&#45;&gt;Node3</title>
<path fill="none" stroke="#63b8ff" d="M1220.74,-109.93C836.87,-73.81 737.48,-91.31 355.5,-74 327.86,-72.75 297.75,-71.3 270.5,-69.95"/>
<polygon fill="#63b8ff" stroke="#63b8ff" points="1220.44,-113.42 1230.72,-110.88 1221.1,-106.45 1220.44,-113.42"/>
</g>
<!-- Node21&#45;&gt;Node6 -->
<g id="edge30" class="edge">
<title>Node21&#45;&gt;Node6</title>
<path fill="none" stroke="#63b8ff" d="M1220.53,-109.87C978.07,-84.31 914.22,-96.21 674.5,-74 671.29,-73.7 667.99,-73.38 664.67,-73.03"/>
<polygon fill="#63b8ff" stroke="#63b8ff" points="1220.4,-113.38 1230.72,-110.96 1221.14,-106.42 1220.4,-113.38"/>
</g>
<!-- Node21&#45;&gt;Node7 -->
<g id="edge31" class="edge">
<title>Node21&#45;&gt;Node7</title>
<path fill="none" stroke="#63b8ff" d="M1220.71,-109.85C1138.7,-100.08 962.83,-83.41 856.24,-73.5"/>
<polygon fill="#63b8ff" stroke="#63b8ff" points="1220.36,-113.33 1230.7,-111.06 1221.2,-106.38 1220.36,-113.33"/>
</g>
<!-- Node21&#45;&gt;Node9 -->
<g id="edge35" class="edge">
<title>Node21&#45;&gt;Node9</title>
<path fill="none" stroke="#63b8ff" d="M1220.38,-109.8C1079.52,-92.52 1037.88,-112.79 904.5,-74 885.99,-68.62 883.88,-60.83 865.5,-55 784.65,-29.35 685.46,-17.94 631.36,-13.31"/>
<polygon fill="#63b8ff" stroke="#63b8ff" points="1220.34,-113.32 1230.7,-111.11 1221.22,-106.37 1220.34,-113.32"/>
</g>
<!-- Node21&#45;&gt;Node10 -->
<g id="edge38" class="edge">
<title>Node21&#45;&gt;Node10</title>
<path fill="none" stroke="#63b8ff" d="M1338.07,-114.86C1399.03,-108.94 1481.13,-93.7 1446.5,-55 1423.9,-29.74 1205.32,-17.18 1101.61,-12.6"/>
<polygon fill="#63b8ff" stroke="#63b8ff" points="1337.76,-111.37 1328.11,-115.76 1338.39,-118.34 1337.76,-111.37"/>
</g>
<!-- Node21&#45;&gt;Node13 -->
<g id="edge37" class="edge">
<title>Node21&#45;&gt;Node13</title>
<path fill="none" stroke="#63b8ff" d="M1220.7,-109.91C915.69,-79.72 836.02,-96.34 533.5,-74 530.56,-73.78 527.56,-73.55 524.54,-73.31"/>
<polygon fill="#63b8ff" stroke="#63b8ff" points="1220.42,-113.4 1230.72,-110.91 1221.12,-106.44 1220.42,-113.4"/>
</g>
<!-- Node21&#45;&gt;Node17 -->
<g id="edge34" class="edge">
<title>Node21&#45;&gt;Node17</title>
<path fill="none" stroke="#63b8ff" d="M1338.15,-115.46C1516.9,-106.2 2053.88,-78.38 2238.97,-68.79"/>
<polygon fill="#63b8ff" stroke="#63b8ff" points="1337.96,-111.97 1328.15,-115.98 1338.32,-118.96 1337.96,-111.97"/>
</g>
<!-- Node21&#45;&gt;Node18 -->
<g id="edge36" class="edge">
<title>Node21&#45;&gt;Node18</title>
<path fill="none" stroke="#63b8ff" d="M1329.35,-107.85C1378.05,-97.44 1450.87,-81.88 1493.34,-72.8"/>
<polygon fill="#63b8ff" stroke="#63b8ff" points="1328.39,-104.47 1319.35,-109.98 1329.86,-111.32 1328.39,-104.47"/>
</g>
<!-- Node22 -->
<g id="node22" class="node">
<title>Node22</title>
<g id="a_node22"><a xlink:href="MaximaEvaluator_8cpp.html" target="_top" xlink:title="Implements the evaluation&#45;queue driver extracted from the wxMaxima god class.">
<polygon fill="white" stroke="#666666" points="1437.5,-74 1297.5,-74 1297.5,-55 1437.5,-55 1437.5,-74"/>
<text text-anchor="middle" x="1367.5" y="-62" font-family="Helvetica,sans-Serif" font-size="10.00">src/MaximaEvaluator.cpp</text>
</a>
</g>
</g>
<!-- Node21&#45;&gt;Node22 -->
<g id="edge29" class="edge">
<title>Node21&#45;&gt;Node22</title>
<path fill="none" stroke="#63b8ff" d="M1302.42,-104.7C1318.45,-95.04 1339.37,-82.44 1353.1,-74.17"/>
<polygon fill="#63b8ff" stroke="#63b8ff" points="1300.4,-101.83 1293.64,-109.98 1304.01,-107.82 1300.4,-101.83"/>
</g>
<!-- Node23 -->
<g id="node23" class="node">
<title>Node23</title>
<g id="a_node23"><a xlink:href="MaximaProcessManager_8cpp.html" target="_top" xlink:title="Implements the Maxima process/socket lifecycle extracted from the wxMaxima god class.">
<polygon fill="white" stroke="#666666" points="1086,-74 913,-74 913,-55 1086,-55 1086,-74"/>
<text text-anchor="middle" x="999.5" y="-62" font-family="Helvetica,sans-Serif" font-size="10.00">src/MaximaProcessManager.cpp</text>
</a>
</g>
</g>
<!-- Node21&#45;&gt;Node23 -->
<g id="edge32" class="edge">
<title>Node21&#45;&gt;Node23</title>
<path fill="none" stroke="#63b8ff" d="M1224.37,-108.07C1171.88,-98.13 1093.82,-83.35 1044.84,-74.08"/>
<polygon fill="#63b8ff" stroke="#63b8ff" points="1224.04,-111.56 1234.51,-109.98 1225.34,-104.69 1224.04,-111.56"/>
</g>
<!-- Node24 -->
<g id="node24" class="node">
<title>Node24</title>
<g id="a_node24"><a xlink:href="MaximaResponseReader_8cpp.html" target="_top" xlink:title="Implements the Maxima&#45;response handlers extracted from the wxMaxima god class.">
<polygon fill="white" stroke="#666666" points="1279,-74 1104,-74 1104,-55 1279,-55 1279,-74"/>
<text text-anchor="middle" x="1191.5" y="-62" font-family="Helvetica,sans-Serif" font-size="10.00">src/MaximaResponseReader.cpp</text>
</a>
</g>
</g>
<!-- Node21&#45;&gt;Node24 -->
<g id="edge33" class="edge">
<title>Node21&#45;&gt;Node24</title>
<path fill="none" stroke="#63b8ff" d="M1256.58,-104.7C1240.55,-95.04 1219.63,-82.44 1205.9,-74.17"/>
<polygon fill="#63b8ff" stroke="#63b8ff" points="1254.99,-107.82 1265.36,-109.98 1258.6,-101.83 1254.99,-107.82"/>
</g>
</g>
</svg>
        <g id="navigator" transform="translate(0 0)" fill="#404254">
                <rect fill="#f2f5e9" fill-opacity="0.5" stroke="#606060" stroke-width=".5" x="0" y="0" width="60" height="60"/>
                <use id="zoomplus" xlink:href="#zoomPlus" x="17" y="9" onmousedown="handleZoom(evt,'in')"/>
                <use id="zoomminus" xlink:href="#zoomMin" x="42" y="9" onmousedown="handleZoom(evt,'out')"/>
                <use id="reset" xlink:href="#resetDef" x="30" y="36" onmousedown="handleReset()"/>
                <g id="arrowUp" xlink:href="#dirArrow" transform="translate(30 24)" onmousedown="handlePan(0,-1)">
                  <use xlink:href="#rim" fill="#404040">
                        <set attributeName="fill" to="#808080" begin="arrowUp.mouseover" end="arrowUp.mouseout"/>
                  </use>
                  <path fill="none" stroke="white" stroke-width="1.5" d="M0,-3.0v7 M-2.5,-0.5L0,-3.0L2.5,-0.5"/>
                </g>
                <g id="arrowRight" xlink:href="#dirArrow" transform="rotate(90) translate(36 -43)" onmousedown="handlePan(1,0)">
                  <use xlink:href="#rim" fill="#404040">
                        <set attributeName="fill" to="#808080" begin="arrowRight.mouseover" end="arrowRight.mouseout"/>
                  </use>
                  <path fill="none" stroke="white" stroke-width="1.5" d="M0,-3.0v7 M-2.5,-0.5L0,-3.0L2.5,-0.5"/>
                </g>
                <g id="arrowDown" xlink:href="#dirArrow" transform="rotate(180) translate(-30 -48)" onmousedown="handlePan(0,1)">
                  <use xlink:href="#rim" fill="#404040">
                        <set attributeName="fill" to="#808080" begin="arrowDown.mouseover" end="arrowDown.mouseout"/>
                  </use>
                  <path fill="none" stroke="white" stroke-width="1.5" d="M0,-3.0v7 M-2.5,-0.5L0,-3.0L2.5,-0.5"/>
                </g>
                <g id="arrowLeft" xlink:href="#dirArrow" transform="rotate(270) translate(-36 17)" onmousedown="handlePan(-1,0)">
                  <use xlink:href="#rim" fill="#404040">
                        <set attributeName="fill" to="#808080" begin="arrowLeft.mouseover" end="arrowLeft.mouseout"/>
                  </use>
                  <path fill="none" stroke="white" stroke-width="1.5" d="M0,-3.0v7 M-2.5,-0.5L0,-3.0L2.5,-0.5"/>
                </g>
        </g>
        <svg viewBox="0 0 15 15" width="100%" height="30px" preserveAspectRatio="xMaxYMin meet">
         <g id="arrow_out" transform="scale(0.3 0.3)">
          <a xlink:href="FindReplacePane_8h__dep__incl_org.svg" target="_base">
           <rect id="button" ry="5" rx="5" y="6" x="6" height="38" width="38"
                fill="#f2f5e9" fill-opacity="0.5" stroke="#606060" stroke-width="1.0"/>
           <path id="arrow"
             d="M 11.500037,31.436501 C 11.940474,20.09759 22.043105,11.32322 32.158766,21.979434 L 37.068811,17.246167 C 37.068811,17.246167 37.088388,32 37.088388,32 L 22.160133,31.978069 C 22.160133,31.978069 26.997745,27.140456 26.997745,27.140456 C 18.528582,18.264221 13.291696,25.230495 11.500037,31.436501 z"
             style="fill:#404040;"/>
          </a>
         </g>
        </svg>
</svg>
