<?xml version="1.0" encoding="UTF-8" standalone="no"?>
<!DOCTYPE svg PUBLIC "-//W3C//DTD SVG 1.1//EN"
 "http://www.w3.org/Graphics/SVG/1.1/DTD/svg11.dtd">
<!-- Generated by graphviz version 2.43.0 (0)
 -->
<!-- Title: src/dialogs/FindReplaceDialog.h Pages: 1 -->
<!--zoomable 192 -->
<svg id="main" version="1.1" xmlns="http://www.w3.org/2000/svg" xmlns:xlink="http://www.w3.org/1999/xlink" xml:space="preserve" onload="init(evt)">
<style type="text/css"><![CDATA[
.edge:hover path { stroke: red; }
.edge:hover polygon { stroke: red; fill: red; }
]]></style>
<script type="text/javascript"><![CDATA[
var edges = document.getElementsByTagName('g');
if (edges && edges.length) {
  for (var i=0;i<edges.length;i++) {
    if (edges[i].id.substr(0,4)=='edge') {
      edges[i].setAttribute('class','edge');
    }
  }
}
]]></script>
        <defs>
                <circle id="rim" cx="0" cy="0" r="7"/>
                <circle id="rim2" cx="0" cy="0" r="3.5"/>
                <g id="zoomPlus">
                        <use xlink:href="#rim" fill="#404040">
                                <set attributeName="fill" to="#808080" begin="zoomplus.mouseover" end="zoomplus.mouseout"/>
                        </use>
                        <path d="M-4,0h8M0,-4v8" fill="none" stroke="white" stroke-width="1.5" pointer-events="none"/>
                </g>
                <g id="zoomMin">
                        <use xlink:href="#rim" fill="#404040">
                                <set attributeName="fill" to="#808080" begin="zoomminus.mouseover" end="zoomminus.mouseout"/>
                        </use>
                        <path d="M-4,0h8" fill="none" stroke="white" stroke-width="1.5" pointer-events="none"/>
                </g>
                <g id="dirArrow">
                        <path fill="none" stroke="white" stroke-width="1.5" d="M0,-3.0v7 M-2.5,-0.5L0,-3.0L2.5,-0.5"/>
                </g>
               <g id="resetDef">
                       <use xlink:href="#rim2" fill="#404040">
                               <set attributeName="fill" to="#808080" begin="reset.mouseover" end="reset.mouseout"/>
                       </use>
               </g>
        </defs>

<script type="text/javascript">
var viewWidth = 661;
var viewHeight = 192;
var sectionId = 'dynsection-0';
</script>
<script xlink:href="svgpan.js"/>
<svg id="graph" class="graph">
<g id="viewport">
<title>src/dialogs/FindReplaceDialog.h</title>
<!-- Node1 -->
<g id="node1" class="node">
<title>Node1</title>
<g id="a_node1"><a xlink:title="This file defines the class FindReplaceDialog.">
<polygon fill="#999999" stroke="#666666" points="288,-184 116,-184 116,-165 288,-165 288,-184"/>
<text text-anchor="middle" x="202" y="-172" font-family="Helvetica,sans-Serif" font-size="10.00">src/dialogs/FindReplaceDialog.h</text>
</a>
</g>
</g>
<!-- Node2 -->
<g id="node2" class="node">
<title>Node2</title>
<g id="a_node2"><a xlink:href="precomp_8h_source.html" target="_top" xlink:title=" ">
<polygon fill="white" stroke="#666666" points="68,-74 0,-74 0,-55 68,-55 68,-74"/>
<text text-anchor="middle" x="34" y="-62" font-family="Helvetica,sans-Serif" font-size="10.00">precomp.h</text>
</a>
</g>
</g>
<!-- Node1&#45;&gt;Node2 -->
<g id="edge1" class="edge">
<title>Node1&#45;&gt;Node2</title>
<path fill="none" stroke="#63b8ff" d="M188.54,-164.84C159.66,-146.28 91.54,-102.49 56.17,-79.75"/>
<polygon fill="#63b8ff" stroke="#63b8ff" points="57.83,-76.66 47.53,-74.2 54.05,-82.55 57.83,-76.66"/>
</g>
<!-- Node4 -->
<g id="node4" class="node">
<title>Node4</title>
<g id="a_node4"><a xlink:title=" ">
<polygon fill="#e0e0e0" stroke="#999999" points="429.5,-129 356.5,-129 356.5,-110 429.5,-110 429.5,-129"/>
<text text-anchor="middle" x="393" y="-117" font-family="Helvetica,sans-Serif" font-size="10.00">wx/dialog.h</text>
</a>
</g>
</g>
<!-- Node1&#45;&gt;Node4 -->
<g id="edge3" class="edge">
<title>Node1&#45;&gt;Node4</title>
<path fill="none" stroke="#63b8ff" d="M232.69,-164.98C265.17,-155.97 316.6,-141.7 352.41,-131.76"/>
<polygon fill="#63b8ff" stroke="#63b8ff" points="353.37,-135.13 362.07,-129.08 351.5,-128.38 353.37,-135.13"/>
</g>
<!-- Node5 -->
<g id="node5" class="node">
<title>Node5</title>
<g id="a_node5"><a xlink:title=" ">
<polygon fill="#e0e0e0" stroke="#999999" points="157.5,-74 86.5,-74 86.5,-55 157.5,-55 157.5,-74"/>
<text text-anchor="middle" x="122" y="-62" font-family="Helvetica,sans-Serif" font-size="10.00">wx/event.h</text>
</a>
</g>
</g>
<!-- Node1&#45;&gt;Node5 -->
<g id="edge4" class="edge">
<title>Node1&#45;&gt;Node5</title>
<path fill="none" stroke="#63b8ff" d="M195.45,-164.66C182.14,-146.69 151.73,-105.64 134.51,-82.38"/>
<polygon fill="#63b8ff" stroke="#63b8ff" points="137.18,-80.11 128.41,-74.16 131.55,-84.28 137.18,-80.11"/>
</g>
<!-- Node6 -->
<g id="node6" class="node">
<title>Node6</title>
<g id="a_node6"><a xlink:title=" ">
<polygon fill="#e0e0e0" stroke="#999999" points="258.5,-74 175.5,-74 175.5,-55 258.5,-55 258.5,-74"/>
<text text-anchor="middle" x="217" y="-62" font-family="Helvetica,sans-Serif" font-size="10.00">wx/radiobut.h</text>
</a>
</g>
</g>
<!-- Node1&#45;&gt;Node6 -->
<g id="edge5" class="edge">
<title>Node1&#45;&gt;Node6</title>
<path fill="none" stroke="#63b8ff" d="M203.23,-164.66C205.66,-147.17 211.12,-107.8 214.39,-84.27"/>
<polygon fill="#63b8ff" stroke="#63b8ff" points="217.89,-84.54 215.8,-74.16 210.95,-83.58 217.89,-84.54"/>
</g>
<!-- Node7 -->
<g id="node7" class="node">
<title>Node7</title>
<g id="a_node7"><a xlink:href="FindReplacePane_8h.html" target="_top" xlink:title="This file defines the class FindReplacePane.">
<polygon fill="white" stroke="#666666" points="338,-129 230,-129 230,-110 338,-110 338,-129"/>
<text text-anchor="middle" x="284" y="-117" font-family="Helvetica,sans-Serif" font-size="10.00">FindReplacePane.h</text>
</a>
</g>
</g>
<!-- Node1&#45;&gt;Node7 -->
<g id="edge6" class="edge">
<title>Node1&#45;&gt;Node7</title>
<path fill="none" stroke="#63b8ff" d="M215.17,-164.98C227.77,-156.84 247,-144.41 261.94,-134.76"/>
<polygon fill="#63b8ff" stroke="#63b8ff" points="264.09,-137.54 270.59,-129.17 260.29,-131.66 264.09,-137.54"/>
</g>
<!-- Node3 -->
<g id="node3" class="node">
<title>Node3</title>
<g id="a_node3"><a xlink:href="Version_8h_source.html" target="_top" xlink:title=" ">
<polygon fill="white" stroke="#666666" points="65,-19 3,-19 3,0 65,0 65,-19"/>
<text text-anchor="middle" x="34" y="-7" font-family="Helvetica,sans-Serif" font-size="10.00">Version.h</text>
</a>
</g>
</g>
<!-- Node2&#45;&gt;Node3 -->
<g id="edge2" class="edge">
<title>Node2&#45;&gt;Node3</title>
<path fill="none" stroke="#63b8ff" d="M34,-54.75C34,-47.8 34,-37.85 34,-29.13"/>
<polygon fill="#63b8ff" stroke="#63b8ff" points="37.5,-29.09 34,-19.09 30.5,-29.09 37.5,-29.09"/>
</g>
<!-- Node7&#45;&gt;Node2 -->
<g id="edge7" class="edge">
<title>Node7&#45;&gt;Node2</title>
<path fill="none" stroke="#63b8ff" d="M243.83,-109.98C198.44,-100.36 124.79,-84.75 77.91,-74.81"/>
<polygon fill="#63b8ff" stroke="#63b8ff" points="78.55,-71.37 68.04,-72.72 77.1,-78.22 78.55,-71.37"/>
</g>
<!-- Node7&#45;&gt;Node5 -->
<g id="edge9" class="edge">
<title>Node7&#45;&gt;Node5</title>
<path fill="none" stroke="#63b8ff" d="M257.97,-109.98C230.89,-101.13 188.29,-87.19 157.99,-77.28"/>
<polygon fill="#63b8ff" stroke="#63b8ff" points="158.82,-73.87 148.23,-74.08 156.65,-80.52 158.82,-73.87"/>
</g>
<!-- Node7&#45;&gt;Node6 -->
<g id="edge11" class="edge">
<title>Node7&#45;&gt;Node6</title>
<path fill="none" stroke="#63b8ff" d="M273.24,-109.98C263.23,-102.07 248.11,-90.11 236.07,-80.58"/>
<polygon fill="#63b8ff" stroke="#63b8ff" points="237.97,-77.63 227.96,-74.17 233.63,-83.12 237.97,-77.63"/>
</g>
<!-- Node8 -->
<g id="node8" class="node">
<title>Node8</title>
<g id="a_node8"><a xlink:title=" ">
<polygon fill="#e0e0e0" stroke="#999999" points="652.5,-74 569.5,-74 569.5,-55 652.5,-55 652.5,-74"/>
<text text-anchor="middle" x="611" y="-62" font-family="Helvetica,sans-Serif" font-size="10.00">wx/fdrepdlg.h</text>
</a>
</g>
</g>
<!-- Node7&#45;&gt;Node8 -->
<g id="edge8" class="edge">
<title>Node7&#45;&gt;Node8</title>
<path fill="none" stroke="#63b8ff" d="M337.44,-109.97C390.93,-101.41 475.87,-87.77 559.35,-74.1"/>
<polygon fill="#63b8ff" stroke="#63b8ff" points="559.95,-77.55 569.25,-72.48 558.82,-70.64 559.95,-77.55"/>
</g>
<!-- Node9 -->
<g id="node9" class="node">
<title>Node9</title>
<g id="a_node9"><a xlink:title=" ">
<polygon fill="#e0e0e0" stroke="#999999" points="347,-74 277,-74 277,-55 347,-55 347,-74"/>
<text text-anchor="middle" x="312" y="-62" font-family="Helvetica,sans-Serif" font-size="10.00">wx/panel.h</text>
</a>
</g>
</g>
<!-- Node7&#45;&gt;Node9 -->
<g id="edge10" class="edge">
<title>Node7&#45;&gt;Node9</title>
<path fill="none" stroke="#63b8ff" d="M288.62,-109.75C292.46,-102.49 298.02,-91.95 302.76,-82.98"/>
<polygon fill="#63b8ff" stroke="#63b8ff" points="305.89,-84.57 307.46,-74.09 299.7,-81.3 305.89,-84.57"/>
</g>
<!-- Node10 -->
<g id="node10" class="node">
<title>Node10</title>
<g id="a_node10"><a xlink:title=" ">
<polygon fill="#e0e0e0" stroke="#999999" points="454.5,-74 365.5,-74 365.5,-55 454.5,-55 454.5,-74"/>
<text text-anchor="middle" x="410" y="-62" font-family="Helvetica,sans-Serif" font-size="10.00">wx/checkbox.h</text>
</a>
</g>
</g>
<!-- Node7&#45;&gt;Node10 -->
<g id="edge12" class="edge">
<title>Node7&#45;&gt;Node10</title>
<path fill="none" stroke="#63b8ff" d="M304.24,-109.98C324.7,-101.38 356.53,-87.99 379.93,-78.15"/>
<polygon fill="#63b8ff" stroke="#63b8ff" points="381.53,-81.27 389.39,-74.17 378.81,-74.82 381.53,-81.27"/>
</g>
<!-- Node11 -->
<g id="node11" class="node">
<title>Node11</title>
<g id="a_node11"><a xlink:title=" ">
<polygon fill="#e0e0e0" stroke="#999999" points="551,-74 473,-74 473,-55 551,-55 551,-74"/>
<text text-anchor="middle" x="512" y="-62" font-family="Helvetica,sans-Serif" font-size="10.00">wx/textctrl.h</text>
</a>
</g>
</g>
<!-- Node7&#45;&gt;Node11 -->
<g id="edge13" class="edge">
<title>Node7&#45;&gt;Node11</title>
<path fill="none" stroke="#63b8ff" d="M320.63,-109.98C359.91,-100.86 422.37,-86.33 465.19,-76.38"/>
<polygon fill="#63b8ff" stroke="#63b8ff" points="466.13,-79.76 475.08,-74.08 464.55,-72.94 466.13,-79.76"/>
</g>
</g>
</svg>
        <g id="navigator" transform="translate(0 0)" fill="#404254">
                <rect fill="#f2f5e9" fill-opacity="0.5" stroke="#606060" stroke-width=".5" x="0" y="0" width="60" height="60"/>
                <use id="zoomplus" xlink:href="#zoomPlus" x="17" y="9" onmousedown="handleZoom(evt,'in')"/>
                <use id="zoomminus" xlink:href="#zoomMin" x="42" y="9" onmousedown="handleZoom(evt,'out')"/>
                <use id="reset" xlink:href="#resetDef" x="30" y="36" onmousedown="handleReset()"/>
                <g id="arrowUp" xlink:href="#dirArrow" transform="translate(30 24)" onmousedown="handlePan(0,-1)">
                  <use xlink:href="#rim" fill="#404040">
                        <set attributeName="fill" to="#808080" begin="arrowUp.mouseover" end="arrowUp.mouseout"/>
                  </use>
                  <path fill="none" stroke="white" stroke-width="1.5" d="M0,-3.0v7 M-2.5,-0.5L0,-3.0L2.5,-0.5"/>
                </g>
                <g id="arrowRight" xlink:href="#dirArrow" transform="rotate(90) translate(36 -43)" onmousedown="handlePan(1,0)">
                  <use xlink:href="#rim" fill="#404040">
                        <set attributeName="fill" to="#808080" begin="arrowRight.mouseover" end="arrowRight.mouseout"/>
                  </use>
                  <path fill="none" stroke="white" stroke-width="1.5" d="M0,-3.0v7 M-2.5,-0.5L0,-3.0L2.5,-0.5"/>
                </g>
                <g id="arrowDown" xlink:href="#dirArrow" transform="rotate(180) translate(-30 -48)" onmousedown="handlePan(0,1)">
                  <use xlink:href="#rim" fill="#404040">
                        <set attributeName="fill" to="#808080" begin="arrowDown.mouseover" end="arrowDown.mouseout"/>
                  </use>
                  <path fill="none" stroke="white" stroke-width="1.5" d="M0,-3.0v7 M-2.5,-0.5L0,-3.0L2.5,-0.5"/>
                </g>
                <g id="arrowLeft" xlink:href="#dirArrow" transform="rotate(270) translate(-36 17)" onmousedown="handlePan(-1,0)">
                  <use xlink:href="#rim" fill="#404040">
                        <set attributeName="fill" to="#808080" begin="arrowLeft.mouseover" end="arrowLeft.mouseout"/>
                  </use>
                  <path fill="none" stroke="white" stroke-width="1.5" d="M0,-3.0v7 M-2.5,-0.5L0,-3.0L2.5,-0.5"/>
                </g>
        </g>
        <svg viewBox="0 0 15 15" width="100%" height="30px" preserveAspectRatio="xMaxYMin meet">
         <g id="arrow_out" transform="scale(0.3 0.3)">
          <a xlink:href="FindReplaceDialog_8h__incl_org.svg" target="_base">
           <rect id="button" ry="5" rx="5" y="6" x="6" height="38" width="38"
                fill="#f2f5e9" fill-opacity="0.5" stroke="#606060" stroke-width="1.0"/>
           <path id="arrow"
             d="M 11.500037,31.436501 C 11.940474,20.09759 22.043105,11.32322 32.158766,21.979434 L 37.068811,17.246167 C 37.068811,17.246167 37.088388,32 37.088388,32 L 22.160133,31.978069 C 22.160133,31.978069 26.997745,27.140456 26.997745,27.140456 C 18.528582,18.264221 13.291696,25.230495 11.500037,31.436501 z"
             style="fill:#404040;"/>
          </a>
         </g>
        </svg>
</svg>
