<?xml version="1.0" encoding="UTF-8" standalone="no"?>
<!DOCTYPE svg PUBLIC "-//W3C//DTD SVG 1.1//EN"
 "http://www.w3.org/Graphics/SVG/1.1/DTD/svg11.dtd">
<!-- Generated by graphviz version 2.43.0 (0)
 -->
<!-- Title: src/sidebars/FormatSidebar.cpp Pages: 1 -->
<!--zoomable 412 -->
<svg id="main" version="1.1" xmlns="http://www.w3.org/2000/svg" xmlns:xlink="http://www.w3.org/1999/xlink" xml:space="preserve" onload="init(evt)">
<style type="text/css"><![CDATA[
.edge:hover path { stroke: red; }
.edge:hover polygon { stroke: red; fill: red; }
]]></style>
<script type="text/javascript"><![CDATA[
var edges = document.getElementsByTagName('g');
if (edges && edges.length) {
  for (var i=0;i<edges.length;i++) {
    if (edges[i].id.substr(0,4)=='edge') {
      edges[i].setAttribute('class','edge');
    }
  }
}
]]></script>
        <defs>
                <circle id="rim" cx="0" cy="0" r="7"/>
                <circle id="rim2" cx="0" cy="0" r="3.5"/>
                <g id="zoomPlus">
                        <use xlink:href="#rim" fill="#404040">
                                <set attributeName="fill" to="#808080" begin="zoomplus.mouseover" end="zoomplus.mouseout"/>
                        </use>
                        <path d="M-4,0h8M0,-4v8" fill="none" stroke="white" stroke-width="1.5" pointer-events="none"/>
                </g>
                <g id="zoomMin">
                        <use xlink:href="#rim" fill="#404040">
                                <set attributeName="fill" to="#808080" begin="zoomminus.mouseover" end="zoomminus.mouseout"/>
                        </use>
                        <path d="M-4,0h8" fill="none" stroke="white" stroke-width="1.5" pointer-events="none"/>
                </g>
                <g id="dirArrow">
                        <path fill="none" stroke="white" stroke-width="1.5" d="M0,-3.0v7 M-2.5,-0.5L0,-3.0L2.5,-0.5"/>
                </g>
               <g id="resetDef">
                       <use xlink:href="#rim2" fill="#404040">
                               <set attributeName="fill" to="#808080" begin="reset.mouseover" end="reset.mouseout"/>
                       </use>
               </g>
        </defs>

<script type="text/javascript">
var viewWidth = 1817;
var viewHeight = 412;
var sectionId = 'dynsection-0';
</script>
<script xlink:href="svgpan.js"/>
<svg id="graph" class="graph">
<g id="viewport">
<title>src/sidebars/FormatSidebar.cpp</title>
<!-- Node1 -->
<g id="node1" class="node">
<title>Node1</title>
<g id="a_node1"><a xlink:title="This file defines the class FormatSidebar.">
<polygon fill="#999999" stroke="#666666" points="645,-404 476,-404 476,-385 645,-385 645,-404"/>
<text text-anchor="middle" x="560.5" y="-392" font-family="Helvetica,sans-Serif" font-size="10.00">src/sidebars/FormatSidebar.cpp</text>
</a>
</g>
</g>
<!-- Node2 -->
<g id="node2" class="node">
<title>Node2</title>
<g id="a_node2"><a xlink:href="FormatSidebar_8h.html" target="_top" xlink:title="This file declares the class StatSidebar, that provides some statistics buttons.">
<polygon fill="white" stroke="#666666" points="339.5,-294 243.5,-294 243.5,-275 339.5,-275 339.5,-294"/>
<text text-anchor="middle" x="291.5" y="-282" font-family="Helvetica,sans-Serif" font-size="10.00">FormatSidebar.h</text>
</a>
</g>
</g>
<!-- Node1&#45;&gt;Node2 -->
<g id="edge1" class="edge">
<title>Node1&#45;&gt;Node2</title>
<path fill="none" stroke="#63b8ff" d="M535.57,-384.88C510.8,-376.21 471.81,-362.26 438.5,-349 396.73,-332.38 349.07,-311.41 319.63,-298.23"/>
<polygon fill="#63b8ff" stroke="#63b8ff" points="320.94,-294.98 310.38,-294.07 318.07,-301.37 320.94,-294.98"/>
</g>
<!-- Node12 -->
<g id="node12" class="node">
<title>Node12</title>
<g id="a_node12"><a xlink:href="ButtonWrapSizer_8h.html" target="_top" xlink:title="This file contains the definition of the class Buttonwrapsizer that allows to select arbitrary unicod...">
<polygon fill="white" stroke="#666666" points="555,-349 448,-349 448,-330 555,-330 555,-349"/>
<text text-anchor="middle" x="501.5" y="-337" font-family="Helvetica,sans-Serif" font-size="10.00">ButtonWrapSizer.h</text>
</a>
</g>
</g>
<!-- Node1&#45;&gt;Node12 -->
<g id="edge12" class="edge">
<title>Node1&#45;&gt;Node12</title>
<path fill="none" stroke="#63b8ff" d="M551.02,-384.98C542.3,-377.15 529.16,-365.34 518.6,-355.86"/>
<polygon fill="#63b8ff" stroke="#63b8ff" points="520.93,-353.25 511.15,-349.17 516.25,-358.46 520.93,-353.25"/>
</g>
<!-- Node15 -->
<g id="node15" class="node">
<title>Node15</title>
<g id="a_node15"><a xlink:title=" ">
<polygon fill="#e0e0e0" stroke="#999999" points="666,-349 573,-349 573,-330 666,-330 666,-349"/>
<text text-anchor="middle" x="619.5" y="-337" font-family="Helvetica,sans-Serif" font-size="10.00">wx/windowptr.h</text>
</a>
</g>
</g>
<!-- Node1&#45;&gt;Node15 -->
<g id="edge16" class="edge">
<title>Node1&#45;&gt;Node15</title>
<path fill="none" stroke="#63b8ff" d="M569.98,-384.98C578.7,-377.15 591.84,-365.34 602.4,-355.86"/>
<polygon fill="#63b8ff" stroke="#63b8ff" points="604.75,-358.46 609.85,-349.17 600.07,-353.25 604.75,-358.46"/>
</g>
<!-- Node16 -->
<g id="node16" class="node">
<title>Node16</title>
<g id="a_node16"><a xlink:href="Gen1Wiz_8h_source.html" target="_top" xlink:title=" ">
<polygon fill="white" stroke="#666666" points="900.5,-349 790.5,-349 790.5,-330 900.5,-330 900.5,-349"/>
<text text-anchor="middle" x="845.5" y="-337" font-family="Helvetica,sans-Serif" font-size="10.00">wizards/Gen1Wiz.h</text>
</a>
</g>
</g>
<!-- Node1&#45;&gt;Node16 -->
<g id="edge17" class="edge">
<title>Node1&#45;&gt;Node16</title>
<path fill="none" stroke="#63b8ff" d="M606.29,-384.98C656.11,-375.72 735.78,-360.9 789.34,-350.94"/>
<polygon fill="#63b8ff" stroke="#63b8ff" points="790.16,-354.35 799.35,-349.08 788.88,-347.47 790.16,-354.35"/>
</g>
<!-- Node3 -->
<g id="node3" class="node">
<title>Node3</title>
<g id="a_node3"><a xlink:href="precomp_8h_source.html" target="_top" xlink:title=" ">
<polygon fill="white" stroke="#666666" points="1509.5,-74 1441.5,-74 1441.5,-55 1509.5,-55 1509.5,-74"/>
<text text-anchor="middle" x="1475.5" y="-62" font-family="Helvetica,sans-Serif" font-size="10.00">precomp.h</text>
</a>
</g>
</g>
<!-- Node2&#45;&gt;Node3 -->
<g id="edge2" class="edge">
<title>Node2&#45;&gt;Node3</title>
<path fill="none" stroke="#63b8ff" d="M327.62,-274.92C441.95,-247.77 788.56,-165.47 791.5,-165 984.41,-134.39 1036.9,-161.53 1229.5,-129 1239.64,-127.29 1365.47,-94.39 1433.12,-76.64"/>
<polygon fill="#63b8ff" stroke="#63b8ff" points="1434.27,-79.96 1443.05,-74.03 1432.49,-73.19 1434.27,-79.96"/>
</g>
<!-- Node5 -->
<g id="node5" class="node">
<title>Node5</title>
<g id="a_node5"><a xlink:title=" ">
<polygon fill="#e0e0e0" stroke="#999999" points="323,-184 266,-184 266,-165 323,-165 323,-184"/>
<text text-anchor="middle" x="294.5" y="-172" font-family="Helvetica,sans-Serif" font-size="10.00">wx/wx.h</text>
</a>
</g>
</g>
<!-- Node2&#45;&gt;Node5 -->
<g id="edge4" class="edge">
<title>Node2&#45;&gt;Node5</title>
<path fill="none" stroke="#63b8ff" d="M332.21,-274.97C366.24,-266.93 410.85,-253.9 421.5,-239 426.41,-232.13 426.39,-226.89 421.5,-220 411,-205.19 366.44,-191.96 333.04,-183.85"/>
<polygon fill="#63b8ff" stroke="#63b8ff" points="333.62,-180.39 323.09,-181.5 332.02,-187.21 333.62,-180.39"/>
</g>
<!-- Node6 -->
<g id="node6" class="node">
<title>Node6</title>
<g id="a_node6"><a xlink:title=" ">
<polygon fill="#e0e0e0" stroke="#999999" points="240.5,-239 166.5,-239 166.5,-220 240.5,-220 240.5,-239"/>
<text text-anchor="middle" x="203.5" y="-227" font-family="Helvetica,sans-Serif" font-size="10.00">wx/button.h</text>
</a>
</g>
</g>
<!-- Node2&#45;&gt;Node6 -->
<g id="edge5" class="edge">
<title>Node2&#45;&gt;Node6</title>
<path fill="none" stroke="#63b8ff" d="M277.36,-274.98C263.71,-266.77 242.81,-254.18 226.72,-244.49"/>
<polygon fill="#63b8ff" stroke="#63b8ff" points="228.27,-241.33 217.9,-239.17 224.66,-247.33 228.27,-241.33"/>
</g>
<!-- Node7 -->
<g id="node7" class="node">
<title>Node7</title>
<g id="a_node7"><a xlink:href="EventIDs_8h.html" target="_top" xlink:title="This file declares the class EventIDs that contains unique IDs for many events wxMaxima needs.">
<polygon fill="white" stroke="#666666" points="148,-239 79,-239 79,-220 148,-220 148,-239"/>
<text text-anchor="middle" x="113.5" y="-227" font-family="Helvetica,sans-Serif" font-size="10.00">EventIDs.h</text>
</a>
</g>
</g>
<!-- Node2&#45;&gt;Node7 -->
<g id="edge6" class="edge">
<title>Node2&#45;&gt;Node7</title>
<path fill="none" stroke="#63b8ff" d="M262.9,-274.98C232.89,-266.05 185.52,-251.94 152.18,-242.02"/>
<polygon fill="#63b8ff" stroke="#63b8ff" points="152.91,-238.58 142.32,-239.08 150.91,-245.29 152.91,-238.58"/>
</g>
<!-- Node10 -->
<g id="node10" class="node">
<title>Node10</title>
<g id="a_node10"><a xlink:title=" ">
<polygon fill="#e0e0e0" stroke="#999999" points="324,-239 259,-239 259,-220 324,-220 324,-239"/>
<text text-anchor="middle" x="291.5" y="-227" font-family="Helvetica,sans-Serif" font-size="10.00">wx/sizer.h</text>
</a>
</g>
</g>
<!-- Node2&#45;&gt;Node10 -->
<g id="edge10" class="edge">
<title>Node2&#45;&gt;Node10</title>
<path fill="none" stroke="#63b8ff" d="M291.5,-274.75C291.5,-267.8 291.5,-257.85 291.5,-249.13"/>
<polygon fill="#63b8ff" stroke="#63b8ff" points="295,-249.09 291.5,-239.09 288,-249.09 295,-249.09"/>
</g>
<!-- Node11 -->
<g id="node11" class="node">
<title>Node11</title>
<g id="a_node11"><a xlink:title=" ">
<polygon fill="#e0e0e0" stroke="#999999" points="412.5,-239 342.5,-239 342.5,-220 412.5,-220 412.5,-239"/>
<text text-anchor="middle" x="377.5" y="-227" font-family="Helvetica,sans-Serif" font-size="10.00">wx/panel.h</text>
</a>
</g>
</g>
<!-- Node2&#45;&gt;Node11 -->
<g id="edge11" class="edge">
<title>Node2&#45;&gt;Node11</title>
<path fill="none" stroke="#63b8ff" d="M305.32,-274.98C318.65,-266.77 339.08,-254.18 354.81,-244.49"/>
<polygon fill="#63b8ff" stroke="#63b8ff" points="356.75,-247.4 363.43,-239.17 353.08,-241.44 356.75,-247.4"/>
</g>
<!-- Node4 -->
<g id="node4" class="node">
<title>Node4</title>
<g id="a_node4"><a xlink:href="Version_8h_source.html" target="_top" xlink:title=" ">
<polygon fill="white" stroke="#666666" points="1506.5,-19 1444.5,-19 1444.5,0 1506.5,0 1506.5,-19"/>
<text text-anchor="middle" x="1475.5" y="-7" font-family="Helvetica,sans-Serif" font-size="10.00">Version.h</text>
</a>
</g>
</g>
<!-- Node3&#45;&gt;Node4 -->
<g id="edge3" class="edge">
<title>Node3&#45;&gt;Node4</title>
<path fill="none" stroke="#63b8ff" d="M1475.5,-54.75C1475.5,-47.8 1475.5,-37.85 1475.5,-29.13"/>
<polygon fill="#63b8ff" stroke="#63b8ff" points="1479,-29.09 1475.5,-19.09 1472,-29.09 1479,-29.09"/>
</g>
<!-- Node7&#45;&gt;Node5 -->
<g id="edge8" class="edge">
<title>Node7&#45;&gt;Node5</title>
<path fill="none" stroke="#63b8ff" d="M142.58,-219.98C173.28,-210.99 221.84,-196.78 255.77,-186.84"/>
<polygon fill="#63b8ff" stroke="#63b8ff" points="257.18,-190.08 265.79,-183.91 255.21,-183.36 257.18,-190.08"/>
</g>
<!-- Node8 -->
<g id="node8" class="node">
<title>Node8</title>
<g id="a_node8"><a xlink:title=" ">
<polygon fill="#e0e0e0" stroke="#999999" points="148.5,-184 106.5,-184 106.5,-165 148.5,-165 148.5,-184"/>
<text text-anchor="middle" x="127.5" y="-172" font-family="Helvetica,sans-Serif" font-size="10.00">array</text>
</a>
</g>
</g>
<!-- Node7&#45;&gt;Node8 -->
<g id="edge7" class="edge">
<title>Node7&#45;&gt;Node8</title>
<path fill="none" stroke="#63b8ff" d="M115.81,-219.75C117.67,-212.72 120.34,-202.62 122.65,-193.84"/>
<polygon fill="#63b8ff" stroke="#63b8ff" points="126.06,-194.65 125.23,-184.09 119.29,-192.86 126.06,-194.65"/>
</g>
<!-- Node9 -->
<g id="node9" class="node">
<title>Node9</title>
<g id="a_node9"><a xlink:title=" ">
<polygon fill="#e0e0e0" stroke="#999999" points="89,-184 0,-184 0,-165 89,-165 89,-184"/>
<text text-anchor="middle" x="44.5" y="-172" font-family="Helvetica,sans-Serif" font-size="10.00">wx/windowid.h</text>
</a>
</g>
</g>
<!-- Node7&#45;&gt;Node9 -->
<g id="edge9" class="edge">
<title>Node7&#45;&gt;Node9</title>
<path fill="none" stroke="#63b8ff" d="M102.41,-219.98C92.01,-212 76.24,-199.88 63.78,-190.31"/>
<polygon fill="#63b8ff" stroke="#63b8ff" points="65.85,-187.49 55.79,-184.17 61.59,-193.04 65.85,-187.49"/>
</g>
<!-- Node12&#45;&gt;Node3 -->
<g id="edge14" class="edge">
<title>Node12&#45;&gt;Node3</title>
<path fill="none" stroke="#63b8ff" d="M513.01,-329.87C553.22,-300.27 692.25,-202.61 824.5,-165 950.2,-129.25 1292.24,-182.45 1411.5,-129 1433.74,-119.03 1452.6,-97.7 1463.96,-82.52"/>
<polygon fill="#63b8ff" stroke="#63b8ff" points="1467.07,-84.19 1470.04,-74.01 1461.38,-80.12 1467.07,-84.19"/>
</g>
<!-- Node13 -->
<g id="node13" class="node">
<title>Node13</title>
<g id="a_node13"><a xlink:title=" ">
<polygon fill="#e0e0e0" stroke="#999999" points="439,-294 358,-294 358,-275 439,-275 439,-294"/>
<text text-anchor="middle" x="398.5" y="-282" font-family="Helvetica,sans-Serif" font-size="10.00">wx/stattext.h</text>
</a>
</g>
</g>
<!-- Node12&#45;&gt;Node13 -->
<g id="edge13" class="edge">
<title>Node12&#45;&gt;Node13</title>
<path fill="none" stroke="#63b8ff" d="M484.95,-329.98C468.61,-321.57 443.37,-308.59 424.37,-298.81"/>
<polygon fill="#63b8ff" stroke="#63b8ff" points="425.84,-295.63 415.35,-294.17 422.64,-301.86 425.84,-295.63"/>
</g>
<!-- Node14 -->
<g id="node14" class="node">
<title>Node14</title>
<g id="a_node14"><a xlink:title=" ">
<polygon fill="#e0e0e0" stroke="#999999" points="546,-294 457,-294 457,-275 546,-275 546,-294"/>
<text text-anchor="middle" x="501.5" y="-282" font-family="Helvetica,sans-Serif" font-size="10.00">wx/wrapsizer.h</text>
</a>
</g>
</g>
<!-- Node12&#45;&gt;Node14 -->
<g id="edge15" class="edge">
<title>Node12&#45;&gt;Node14</title>
<path fill="none" stroke="#63b8ff" d="M501.5,-329.75C501.5,-322.8 501.5,-312.85 501.5,-304.13"/>
<polygon fill="#63b8ff" stroke="#63b8ff" points="505,-304.09 501.5,-294.09 498,-304.09 505,-304.09"/>
</g>
<!-- Node16&#45;&gt;Node3 -->
<g id="edge18" class="edge">
<title>Node16&#45;&gt;Node3</title>
<path fill="none" stroke="#63b8ff" d="M900.73,-338.15C1105.36,-336.13 1808.5,-322.5 1808.5,-230.5 1808.5,-230.5 1808.5,-230.5 1808.5,-173.5 1808.5,-135.87 1785.46,-128.16 1752.5,-110 1713.32,-88.41 1587.77,-74.89 1519.96,-68.98"/>
<polygon fill="#63b8ff" stroke="#63b8ff" points="1519.85,-65.46 1509.59,-68.1 1519.26,-72.43 1519.85,-65.46"/>
</g>
<!-- Node16&#45;&gt;Node5 -->
<g id="edge19" class="edge">
<title>Node16&#45;&gt;Node5</title>
<path fill="none" stroke="#63b8ff" d="M827.02,-329.85C780.14,-308.22 652.37,-251.33 540.5,-220 452.26,-195.29 427.56,-200.89 337.5,-184 336.05,-183.73 334.57,-183.45 333.08,-183.16"/>
<polygon fill="#63b8ff" stroke="#63b8ff" points="333.65,-179.71 323.17,-181.25 332.32,-186.58 333.65,-179.71"/>
</g>
<!-- Node17 -->
<g id="node17" class="node">
<title>Node17</title>
<g id="a_node17"><a xlink:title=" ">
<polygon fill="#e0e0e0" stroke="#999999" points="946.5,-294 866.5,-294 866.5,-275 946.5,-275 946.5,-294"/>
<text text-anchor="middle" x="906.5" y="-282" font-family="Helvetica,sans-Serif" font-size="10.00">wx/statline.h</text>
</a>
</g>
</g>
<!-- Node16&#45;&gt;Node17 -->
<g id="edge20" class="edge">
<title>Node16&#45;&gt;Node17</title>
<path fill="none" stroke="#63b8ff" d="M855.3,-329.98C864.32,-322.15 877.91,-310.34 888.82,-300.86"/>
<polygon fill="#63b8ff" stroke="#63b8ff" points="891.27,-303.37 896.52,-294.17 886.68,-298.09 891.27,-303.37"/>
</g>
<!-- Node18 -->
<g id="node18" class="node">
<title>Node18</title>
<g id="a_node18"><a xlink:title=" ">
<polygon fill="#e0e0e0" stroke="#999999" points="407,-19 342,-19 342,0 407,0 407,-19"/>
<text text-anchor="middle" x="374.5" y="-7" font-family="Helvetica,sans-Serif" font-size="10.00">functional</text>
</a>
</g>
</g>
<!-- Node16&#45;&gt;Node18 -->
<g id="edge21" class="edge">
<title>Node16&#45;&gt;Node18</title>
<path fill="none" stroke="#63b8ff" d="M817.11,-329.95C749.14,-309.62 571.52,-257.3 421.5,-220 348.66,-201.89 329.13,-202.93 256.5,-184 175.14,-162.8 148.35,-170.97 75.5,-129 44.44,-111.1 30.8,-106.87 16.5,-74 13.13,-66.26 10.91,-61.33 16.5,-55 37.09,-31.69 241.26,-17.76 331.73,-12.69"/>
<polygon fill="#63b8ff" stroke="#63b8ff" points="332.13,-16.17 341.92,-12.13 331.75,-9.18 332.13,-16.17"/>
</g>
<!-- Node19 -->
<g id="node19" class="node">
<title>Node19</title>
<g id="a_node19"><a xlink:href="BTextCtrl_8h_source.html" target="_top" xlink:title=" ">
<polygon fill="white" stroke="#666666" points="1034.5,-294 964.5,-294 964.5,-275 1034.5,-275 1034.5,-294"/>
<text text-anchor="middle" x="999.5" y="-282" font-family="Helvetica,sans-Serif" font-size="10.00">BTextCtrl.h</text>
</a>
</g>
</g>
<!-- Node16&#45;&gt;Node19 -->
<g id="edge22" class="edge">
<title>Node16&#45;&gt;Node19</title>
<path fill="none" stroke="#63b8ff" d="M870.24,-329.98C895.87,-321.16 936.13,-307.31 964.91,-297.41"/>
<polygon fill="#63b8ff" stroke="#63b8ff" points="966.25,-300.65 974.56,-294.08 963.97,-294.03 966.25,-300.65"/>
</g>
<!-- Node19&#45;&gt;Node3 -->
<g id="edge23" class="edge">
<title>Node19&#45;&gt;Node3</title>
<path fill="none" stroke="#63b8ff" d="M1034.56,-282.07C1138.29,-277.02 1440.2,-256.27 1499.5,-184 1523.48,-154.78 1501.84,-108.02 1486.9,-82.87"/>
<polygon fill="#63b8ff" stroke="#63b8ff" points="1489.69,-80.72 1481.43,-74.08 1483.75,-84.42 1489.69,-80.72"/>
</g>
<!-- Node19&#45;&gt;Node5 -->
<g id="edge24" class="edge">
<title>Node19&#45;&gt;Node5</title>
<path fill="none" stroke="#63b8ff" d="M984.23,-274.83C958.17,-260.51 903.01,-232.3 852.5,-220 629.56,-165.73 564.94,-214.31 337.5,-184 336.04,-183.81 334.55,-183.59 333.05,-183.36"/>
<polygon fill="#63b8ff" stroke="#63b8ff" points="333.54,-179.9 323.1,-181.67 332.37,-186.8 333.54,-179.9"/>
</g>
<!-- Node20 -->
<g id="node20" class="node">
<title>Node20</title>
<g id="a_node20"><a xlink:href="Configuration_8h_source.html" target="_top" xlink:title=" ">
<polygon fill="white" stroke="#666666" points="1041,-239 950,-239 950,-220 1041,-220 1041,-239"/>
<text text-anchor="middle" x="995.5" y="-227" font-family="Helvetica,sans-Serif" font-size="10.00">Configuration.h</text>
</a>
</g>
</g>
<!-- Node19&#45;&gt;Node20 -->
<g id="edge25" class="edge">
<title>Node19&#45;&gt;Node20</title>
<path fill="none" stroke="#63b8ff" d="M998.84,-274.75C998.32,-267.8 997.56,-257.85 996.91,-249.13"/>
<polygon fill="#63b8ff" stroke="#63b8ff" points="1000.39,-248.8 996.15,-239.09 993.41,-249.32 1000.39,-248.8"/>
</g>
<!-- Node20&#45;&gt;Node3 -->
<g id="edge26" class="edge">
<title>Node20&#45;&gt;Node3</title>
<path fill="none" stroke="#63b8ff" d="M1041.09,-227.52C1200.84,-223.88 1727.03,-209.95 1751.5,-184 1769.7,-164.7 1753.78,-129.71 1729.5,-110 1698.06,-84.48 1584.19,-72.8 1520.11,-68.15"/>
<polygon fill="#63b8ff" stroke="#63b8ff" points="1520.11,-64.64 1509.89,-67.44 1519.62,-71.63 1520.11,-64.64"/>
</g>
<!-- Node20&#45;&gt;Node5 -->
<g id="edge27" class="edge">
<title>Node20&#45;&gt;Node5</title>
<path fill="none" stroke="#63b8ff" d="M949.75,-223.55C937.35,-222.3 923.92,-221.02 911.5,-220 656.74,-199.13 590.99,-216.86 337.5,-184 336.04,-183.81 334.55,-183.6 333.05,-183.38"/>
<polygon fill="#63b8ff" stroke="#63b8ff" points="333.54,-179.91 323.09,-181.7 332.38,-186.81 333.54,-179.91"/>
</g>
<!-- Node21 -->
<g id="node21" class="node">
<title>Node21</title>
<g id="a_node21"><a xlink:title=" ">
<polygon fill="#e0e0e0" stroke="#999999" points="1220.5,-129 1148.5,-129 1148.5,-110 1220.5,-110 1220.5,-129"/>
<text text-anchor="middle" x="1184.5" y="-117" font-family="Helvetica,sans-Serif" font-size="10.00">wx/config.h</text>
</a>
</g>
</g>
<!-- Node20&#45;&gt;Node21 -->
<g id="edge28" class="edge">
<title>Node20&#45;&gt;Node21</title>
<path fill="none" stroke="#63b8ff" d="M1041.11,-221.01C1069.83,-214.65 1106.61,-203.36 1134.5,-184 1151.73,-172.04 1165.89,-152.39 1174.69,-138.11"/>
<polygon fill="#63b8ff" stroke="#63b8ff" points="1177.85,-139.65 1179.89,-129.25 1171.81,-136.1 1177.85,-139.65"/>
</g>
<!-- Node22 -->
<g id="node22" class="node">
<title>Node22</title>
<g id="a_node22"><a xlink:title=" ">
<polygon fill="#e0e0e0" stroke="#999999" points="1364,-184 1287,-184 1287,-165 1364,-165 1364,-184"/>
<text text-anchor="middle" x="1325.5" y="-172" font-family="Helvetica,sans-Serif" font-size="10.00">wx/display.h</text>
</a>
</g>
</g>
<!-- Node20&#45;&gt;Node22 -->
<g id="edge29" class="edge">
<title>Node20&#45;&gt;Node22</title>
<path fill="none" stroke="#63b8ff" d="M1041.46,-221.52C1095.29,-213.28 1187.44,-198.99 1276.95,-184.06"/>
<polygon fill="#63b8ff" stroke="#63b8ff" points="1277.71,-187.49 1287,-182.38 1276.56,-180.58 1277.71,-187.49"/>
</g>
<!-- Node23 -->
<g id="node23" class="node">
<title>Node23</title>
<g id="a_node23"><a xlink:title=" ">
<polygon fill="#e0e0e0" stroke="#999999" points="1472.5,-184 1382.5,-184 1382.5,-165 1472.5,-165 1472.5,-184"/>
<text text-anchor="middle" x="1427.5" y="-172" font-family="Helvetica,sans-Serif" font-size="10.00">wx/fontenum.h</text>
</a>
</g>
</g>
<!-- Node20&#45;&gt;Node23 -->
<g id="edge30" class="edge">
<title>Node20&#45;&gt;Node23</title>
<path fill="none" stroke="#63b8ff" d="M1041.12,-223.65C1112.08,-215.98 1253.16,-200.26 1372.5,-184 1372.6,-183.99 1372.7,-183.97 1372.81,-183.96"/>
<polygon fill="#63b8ff" stroke="#63b8ff" points="1373.08,-187.45 1382.5,-182.59 1372.1,-180.52 1373.08,-187.45"/>
</g>
<!-- Node24 -->
<g id="node24" class="node">
<title>Node24</title>
<g id="a_node24"><a xlink:title=" ">
<polygon fill="#e0e0e0" stroke="#999999" points="1402.5,-129 1314.5,-129 1314.5,-110 1402.5,-110 1402.5,-129"/>
<text text-anchor="middle" x="1358.5" y="-117" font-family="Helvetica,sans-Serif" font-size="10.00">wx/hashmap.h</text>
</a>
</g>
</g>
<!-- Node20&#45;&gt;Node24 -->
<g id="edge31" class="edge">
<title>Node20&#45;&gt;Node24</title>
<path fill="none" stroke="#63b8ff" d="M1041.35,-227.74C1156.75,-225.36 1452.16,-216.15 1481.5,-184 1506.6,-156.5 1456.27,-139.03 1412.61,-129.52"/>
<polygon fill="#63b8ff" stroke="#63b8ff" points="1413.07,-126.04 1402.57,-127.44 1411.66,-132.89 1413.07,-126.04"/>
</g>
<!-- Node25 -->
<g id="node25" class="node">
<title>Node25</title>
<g id="a_node25"><a xlink:href="LoggingMessageDialog_8h.html" target="_top" xlink:title="This file declares a message dialog that sends its contents to the log message sink.">
<polygon fill="white" stroke="#666666" points="1743,-184 1566,-184 1566,-165 1743,-165 1743,-184"/>
<text text-anchor="middle" x="1654.5" y="-172" font-family="Helvetica,sans-Serif" font-size="10.00">dialogs/LoggingMessageDialog.h</text>
</a>
</g>
</g>
<!-- Node20&#45;&gt;Node25 -->
<g id="edge32" class="edge">
<title>Node20&#45;&gt;Node25</title>
<path fill="none" stroke="#63b8ff" d="M1041.06,-224.84C1146.75,-216.34 1410.66,-195.11 1555.5,-183.46"/>
<polygon fill="#63b8ff" stroke="#63b8ff" points="1556.03,-186.93 1565.72,-182.64 1555.47,-179.95 1556.03,-186.93"/>
</g>
<!-- Node28 -->
<g id="node28" class="node">
<title>Node28</title>
<g id="a_node28"><a xlink:href="TextStyle_8h.html" target="_top" xlink:title="This file declares everything needed for the text style system used to style all the elements on the ...">
<polygon fill="white" stroke="#666666" points="701.5,-184 605.5,-184 605.5,-165 701.5,-165 701.5,-184"/>
<text text-anchor="middle" x="653.5" y="-172" font-family="Helvetica,sans-Serif" font-size="10.00">cells/TextStyle.h</text>
</a>
</g>
</g>
<!-- Node20&#45;&gt;Node28 -->
<g id="edge36" class="edge">
<title>Node20&#45;&gt;Node28</title>
<path fill="none" stroke="#63b8ff" d="M949.73,-221.41C888.27,-211.88 779.03,-194.95 711.77,-184.53"/>
<polygon fill="#63b8ff" stroke="#63b8ff" points="712.17,-181.05 701.75,-182.98 711.1,-187.97 712.17,-181.05"/>
</g>
<!-- Node35 -->
<g id="node35" class="node">
<title>Node35</title>
<g id="a_node35"><a xlink:title=" ">
<polygon fill="#e0e0e0" stroke="#999999" points="83.5,-74 33.5,-74 33.5,-55 83.5,-55 83.5,-74"/>
<text text-anchor="middle" x="58.5" y="-62" font-family="Helvetica,sans-Serif" font-size="10.00">cstdint</text>
</a>
</g>
</g>
<!-- Node20&#45;&gt;Node35 -->
<g id="edge66" class="edge">
<title>Node20&#45;&gt;Node35</title>
<path fill="none" stroke="#63b8ff" d="M949.97,-224.58C851.14,-215.99 619.58,-195.36 541.5,-184 414.27,-165.49 382.07,-160.82 257.5,-129 198.35,-113.89 130.94,-91.19 91.71,-77.42"/>
<polygon fill="#63b8ff" stroke="#63b8ff" points="92.73,-74.07 82.13,-74.04 90.39,-80.67 92.73,-74.07"/>
</g>
<!-- Node43 -->
<g id="node40" class="node">
<title>Node43</title>
<g id="a_node40"><a xlink:title=" ">
<polygon fill="#e0e0e0" stroke="#999999" points="578.5,-74 514.5,-74 514.5,-55 578.5,-55 578.5,-74"/>
<text text-anchor="middle" x="546.5" y="-62" font-family="Helvetica,sans-Serif" font-size="10.00">algorithm</text>
</a>
</g>
</g>
<!-- Node20&#45;&gt;Node43 -->
<g id="edge73" class="edge">
<title>Node20&#45;&gt;Node43</title>
<path fill="none" stroke="#63b8ff" d="M949.88,-224.63C839.09,-215.13 564.37,-190.93 557.5,-184 531.41,-157.68 536.48,-110.07 541.85,-83.92"/>
<polygon fill="#63b8ff" stroke="#63b8ff" points="545.27,-84.68 544.09,-74.15 538.45,-83.12 545.27,-84.68"/>
</g>
<!-- Node46 -->
<g id="node43" class="node">
<title>Node46</title>
<g id="a_node43"><a xlink:title=" ">
<polygon fill="#e0e0e0" stroke="#999999" points="1137.5,-74 1079.5,-74 1079.5,-55 1137.5,-55 1137.5,-74"/>
<text text-anchor="middle" x="1108.5" y="-62" font-family="Helvetica,sans-Serif" font-size="10.00">memory</text>
</a>
</g>
</g>
<!-- Node20&#45;&gt;Node46 -->
<g id="edge67" class="edge">
<title>Node20&#45;&gt;Node46</title>
<path fill="none" stroke="#63b8ff" d="M949.84,-226.21C887.03,-221.48 785.86,-207.23 824.5,-165 885.5,-98.34 1168.5,-195.66 1229.5,-129 1257.12,-98.82 1192.61,-80.48 1147.57,-71.73"/>
<polygon fill="#63b8ff" stroke="#63b8ff" points="1148.21,-68.29 1137.73,-69.91 1146.93,-75.17 1148.21,-68.29"/>
</g>
<!-- Node47 -->
<g id="node44" class="node">
<title>Node47</title>
<g id="a_node44"><a xlink:title=" ">
<polygon fill="#e0e0e0" stroke="#999999" points="708.5,-74 676.5,-74 676.5,-55 708.5,-55 708.5,-74"/>
<text text-anchor="middle" x="692.5" y="-62" font-family="Helvetica,sans-Serif" font-size="10.00">list</text>
</a>
</g>
</g>
<!-- Node20&#45;&gt;Node47 -->
<g id="edge71" class="edge">
<title>Node20&#45;&gt;Node47</title>
<path fill="none" stroke="#63b8ff" d="M949.81,-224.4C842.37,-214.65 582.2,-190.45 575.5,-184 551.66,-161.07 548.43,-137.03 567.5,-110 569,-107.88 630.33,-86.69 666.51,-74.33"/>
<polygon fill="#63b8ff" stroke="#63b8ff" points="668.08,-77.5 676.41,-70.96 665.82,-70.87 668.08,-77.5"/>
</g>
<!-- Node49 -->
<g id="node45" class="node">
<title>Node49</title>
<g id="a_node45"><a xlink:title=" ">
<polygon fill="#e0e0e0" stroke="#999999" points="820,-74 727,-74 727,-55 820,-55 820,-74"/>
<text text-anchor="middle" x="773.5" y="-62" font-family="Helvetica,sans-Serif" font-size="10.00">unordered_map</text>
</a>
</g>
</g>
<!-- Node20&#45;&gt;Node49 -->
<g id="edge69" class="edge">
<title>Node20&#45;&gt;Node49</title>
<path fill="none" stroke="#63b8ff" d="M949.86,-224.08C846.56,-213.98 603.22,-189.65 596.5,-184 570.75,-162.34 559.55,-136.33 580.5,-110 589.1,-99.19 662.91,-84.43 716.7,-74.92"/>
<polygon fill="#63b8ff" stroke="#63b8ff" points="717.58,-78.32 726.82,-73.16 716.37,-71.43 717.58,-78.32"/>
</g>
<!-- Node50 -->
<g id="node46" class="node">
<title>Node50</title>
<g id="a_node46"><a xlink:title=" ">
<polygon fill="#e0e0e0" stroke="#999999" points="881.5,-184 833.5,-184 833.5,-165 881.5,-165 881.5,-184"/>
<text text-anchor="middle" x="857.5" y="-172" font-family="Helvetica,sans-Serif" font-size="10.00">mutex</text>
</a>
</g>
</g>
<!-- Node20&#45;&gt;Node50 -->
<g id="edge68" class="edge">
<title>Node20&#45;&gt;Node50</title>
<path fill="none" stroke="#63b8ff" d="M973.33,-219.98C950.73,-211.3 915.44,-197.75 889.75,-187.88"/>
<polygon fill="#63b8ff" stroke="#63b8ff" points="890.67,-184.49 880.08,-184.17 888.16,-191.02 890.67,-184.49"/>
</g>
<!-- Node51 -->
<g id="node47" class="node">
<title>Node51</title>
<g id="a_node47"><a xlink:title=" ">
<polygon fill="#e0e0e0" stroke="#999999" points="953.5,-184 899.5,-184 899.5,-165 953.5,-165 953.5,-184"/>
<text text-anchor="middle" x="926.5" y="-172" font-family="Helvetica,sans-Serif" font-size="10.00">random</text>
</a>
</g>
</g>
<!-- Node20&#45;&gt;Node51 -->
<g id="edge70" class="edge">
<title>Node20&#45;&gt;Node51</title>
<path fill="none" stroke="#63b8ff" d="M984.41,-219.98C974.01,-212 958.24,-199.88 945.78,-190.31"/>
<polygon fill="#63b8ff" stroke="#63b8ff" points="947.85,-187.49 937.79,-184.17 943.59,-193.04 947.85,-187.49"/>
</g>
<!-- Node52 -->
<g id="node48" class="node">
<title>Node52</title>
<g id="a_node48"><a xlink:title=" ">
<polygon fill="#e0e0e0" stroke="#999999" points="1019,-184 972,-184 972,-165 1019,-165 1019,-184"/>
<text text-anchor="middle" x="995.5" y="-172" font-family="Helvetica,sans-Serif" font-size="10.00">vector</text>
</a>
</g>
</g>
<!-- Node20&#45;&gt;Node52 -->
<g id="edge72" class="edge">
<title>Node20&#45;&gt;Node52</title>
<path fill="none" stroke="#63b8ff" d="M995.5,-219.75C995.5,-212.8 995.5,-202.85 995.5,-194.13"/>
<polygon fill="#63b8ff" stroke="#63b8ff" points="999,-194.09 995.5,-184.09 992,-194.09 999,-194.09"/>
</g>
<!-- Node53 -->
<g id="node49" class="node">
<title>Node53</title>
<g id="a_node49"><a xlink:title=" ">
<polygon fill="#e0e0e0" stroke="#999999" points="1126,-184 1037,-184 1037,-165 1126,-165 1126,-184"/>
<text text-anchor="middle" x="1081.5" y="-172" font-family="Helvetica,sans-Serif" font-size="10.00">wx/wupdlock.h</text>
</a>
</g>
</g>
<!-- Node20&#45;&gt;Node53 -->
<g id="edge74" class="edge">
<title>Node20&#45;&gt;Node53</title>
<path fill="none" stroke="#63b8ff" d="M1009.32,-219.98C1022.65,-211.77 1043.08,-199.18 1058.81,-189.49"/>
<polygon fill="#63b8ff" stroke="#63b8ff" points="1060.75,-192.4 1067.43,-184.17 1057.08,-186.44 1060.75,-192.4"/>
</g>
<!-- Node54 -->
<g id="node50" class="node">
<title>Node54</title>
<g id="a_node50"><a xlink:title=" ">
<polygon fill="#e0e0e0" stroke="#999999" points="1268.5,-184 1182.5,-184 1182.5,-165 1268.5,-165 1268.5,-184"/>
<text text-anchor="middle" x="1225.5" y="-172" font-family="Helvetica,sans-Serif" font-size="10.00">wx/webview.h</text>
</a>
</g>
</g>
<!-- Node20&#45;&gt;Node54 -->
<g id="edge75" class="edge">
<title>Node20&#45;&gt;Node54</title>
<path fill="none" stroke="#63b8ff" d="M1032.45,-219.98C1072.07,-210.86 1135.09,-196.33 1178.27,-186.38"/>
<polygon fill="#63b8ff" stroke="#63b8ff" points="1179.3,-189.74 1188.26,-184.08 1177.73,-182.92 1179.3,-189.74"/>
</g>
<!-- Node25&#45;&gt;Node3 -->
<g id="edge33" class="edge">
<title>Node25&#45;&gt;Node3</title>
<path fill="none" stroke="#63b8ff" d="M1672.48,-164.9C1695.19,-152.91 1729.37,-130.34 1712.5,-110 1688.49,-81.07 1581.51,-70.83 1519.8,-67.29"/>
<polygon fill="#63b8ff" stroke="#63b8ff" points="1519.74,-63.79 1509.57,-66.75 1519.37,-70.78 1519.74,-63.79"/>
</g>
<!-- Node26 -->
<g id="node26" class="node">
<title>Node26</title>
<g id="a_node26"><a xlink:title=" ">
<polygon fill="#e0e0e0" stroke="#999999" points="1704,-129 1625,-129 1625,-110 1704,-110 1704,-129"/>
<text text-anchor="middle" x="1664.5" y="-117" font-family="Helvetica,sans-Serif" font-size="10.00">wx/msgdlg.h</text>
</a>
</g>
</g>
<!-- Node25&#45;&gt;Node26 -->
<g id="edge34" class="edge">
<title>Node25&#45;&gt;Node26</title>
<path fill="none" stroke="#63b8ff" d="M1656.15,-164.75C1657.46,-157.8 1659.34,-147.85 1660.98,-139.13"/>
<polygon fill="#63b8ff" stroke="#63b8ff" points="1664.46,-139.56 1662.88,-129.09 1657.59,-138.27 1664.46,-139.56"/>
</g>
<!-- Node27 -->
<g id="node27" class="node">
<title>Node27</title>
<g id="a_node27"><a xlink:title=" ">
<polygon fill="#e0e0e0" stroke="#999999" points="1606.5,-129 1548.5,-129 1548.5,-110 1606.5,-110 1606.5,-129"/>
<text text-anchor="middle" x="1577.5" y="-117" font-family="Helvetica,sans-Serif" font-size="10.00">wx/log.h</text>
</a>
</g>
</g>
<!-- Node25&#45;&gt;Node27 -->
<g id="edge35" class="edge">
<title>Node25&#45;&gt;Node27</title>
<path fill="none" stroke="#63b8ff" d="M1642.13,-164.98C1630.41,-156.92 1612.58,-144.65 1598.61,-135.03"/>
<polygon fill="#63b8ff" stroke="#63b8ff" points="1600.32,-131.96 1590.1,-129.17 1596.35,-137.72 1600.32,-131.96"/>
</g>
<!-- Node28&#45;&gt;Node3 -->
<g id="edge37" class="edge">
<title>Node28&#45;&gt;Node3</title>
<path fill="none" stroke="#63b8ff" d="M701.54,-166.71C706.25,-166.1 710.97,-165.52 715.5,-165 886.67,-145.29 935.83,-176.34 1101.5,-129 1119.66,-123.81 1121.45,-115.54 1139.5,-110 1240.75,-78.94 1365.71,-69.56 1431,-66.72"/>
<polygon fill="#63b8ff" stroke="#63b8ff" points="1431.48,-70.21 1441.33,-66.31 1431.2,-63.21 1431.48,-70.21"/>
</g>
<!-- Node28&#45;&gt;Node18 -->
<g id="edge47" class="edge">
<title>Node28&#45;&gt;Node18</title>
<path fill="none" stroke="#63b8ff" d="M605.4,-173.85C470.9,-173.66 96.11,-164.84 24.5,-74 -14.41,-24.64 229.82,-13.63 331.54,-11.19"/>
<polygon fill="#63b8ff" stroke="#63b8ff" points="331.86,-14.68 341.78,-10.96 331.71,-7.68 331.86,-14.68"/>
</g>
<!-- Node28&#45;&gt;Node21 -->
<g id="edge43" class="edge">
<title>Node28&#45;&gt;Node21</title>
<path fill="none" stroke="#63b8ff" d="M701.53,-166.67C706.25,-166.07 710.96,-165.51 715.5,-165 901.26,-144.3 949.1,-152.68 1134.5,-129 1135.75,-128.84 1137.02,-128.67 1138.3,-128.5"/>
<polygon fill="#63b8ff" stroke="#63b8ff" points="1138.85,-131.95 1148.23,-127.03 1137.83,-125.03 1138.85,-131.95"/>
</g>
<!-- Node28&#45;&gt;Node24 -->
<g id="edge40" class="edge">
<title>Node28&#45;&gt;Node24</title>
<path fill="none" stroke="#63b8ff" d="M701.68,-169.88C828.48,-160.35 1170.84,-134.61 1304.24,-124.58"/>
<polygon fill="#63b8ff" stroke="#63b8ff" points="1304.53,-128.07 1314.24,-123.83 1304,-121.09 1304.53,-128.07"/>
</g>
<!-- Node29 -->
<g id="node29" class="node">
<title>Node29</title>
<g id="a_node29"><a xlink:title=" ">
<polygon fill="#e0e0e0" stroke="#999999" points="974.5,-129 902.5,-129 902.5,-110 974.5,-110 974.5,-129"/>
<text text-anchor="middle" x="938.5" y="-117" font-family="Helvetica,sans-Serif" font-size="10.00">wx/colour.h</text>
</a>
</g>
</g>
<!-- Node28&#45;&gt;Node29 -->
<g id="edge38" class="edge">
<title>Node28&#45;&gt;Node29</title>
<path fill="none" stroke="#63b8ff" d="M699.97,-164.93C746.15,-156.41 819.29,-142.87 891.91,-129.29"/>
<polygon fill="#63b8ff" stroke="#63b8ff" points="892.97,-132.66 902.15,-127.38 891.68,-125.78 892.97,-132.66"/>
</g>
<!-- Node30 -->
<g id="node30" class="node">
<title>Node30</title>
<g id="a_node30"><a xlink:title=" ">
<polygon fill="#e0e0e0" stroke="#999999" points="1030.5,-129 992.5,-129 992.5,-110 1030.5,-110 1030.5,-129"/>
<text text-anchor="middle" x="1011.5" y="-117" font-family="Helvetica,sans-Serif" font-size="10.00">map</text>
</a>
</g>
</g>
<!-- Node28&#45;&gt;Node30 -->
<g id="edge39" class="edge">
<title>Node28&#45;&gt;Node30</title>
<path fill="none" stroke="#63b8ff" d="M701.56,-166.9C706.27,-166.25 710.98,-165.61 715.5,-165 831.45,-149.26 864.34,-154.25 982.53,-128.89"/>
<polygon fill="#63b8ff" stroke="#63b8ff" points="983.3,-132.31 992.33,-126.77 981.81,-125.47 983.3,-132.31"/>
</g>
<!-- Node31 -->
<g id="node31" class="node">
<title>Node31</title>
<g id="a_node31"><a xlink:title=" ">
<polygon fill="#e0e0e0" stroke="#999999" points="1092.5,-129 1048.5,-129 1048.5,-110 1092.5,-110 1092.5,-129"/>
<text text-anchor="middle" x="1070.5" y="-117" font-family="Helvetica,sans-Serif" font-size="10.00">string</text>
</a>
</g>
</g>
<!-- Node28&#45;&gt;Node31 -->
<g id="edge41" class="edge">
<title>Node28&#45;&gt;Node31</title>
<path fill="none" stroke="#63b8ff" d="M701.55,-166.79C706.26,-166.17 710.97,-165.56 715.5,-165 856.05,-147.56 895.44,-155.85 1038.24,-128.96"/>
<polygon fill="#63b8ff" stroke="#63b8ff" points="1039.08,-132.36 1048.25,-127.05 1037.77,-125.49 1039.08,-132.36"/>
</g>
<!-- Node32 -->
<g id="node32" class="node">
<title>Node32</title>
<g id="a_node32"><a xlink:title=" ">
<polygon fill="#e0e0e0" stroke="#999999" points="784,-129 727,-129 727,-110 784,-110 784,-129"/>
<text text-anchor="middle" x="755.5" y="-117" font-family="Helvetica,sans-Serif" font-size="10.00">ostream</text>
</a>
</g>
</g>
<!-- Node28&#45;&gt;Node32 -->
<g id="edge42" class="edge">
<title>Node28&#45;&gt;Node32</title>
<path fill="none" stroke="#63b8ff" d="M669.89,-164.98C686.07,-156.57 711.07,-143.59 729.88,-133.81"/>
<polygon fill="#63b8ff" stroke="#63b8ff" points="731.55,-136.89 738.81,-129.17 728.33,-130.68 731.55,-136.89"/>
</g>
<!-- Node33 -->
<g id="node33" class="node">
<title>Node33</title>
<g id="a_node33"><a xlink:title=" ">
<polygon fill="#e0e0e0" stroke="#999999" points="658.5,-74 596.5,-74 596.5,-55 658.5,-55 658.5,-74"/>
<text text-anchor="middle" x="627.5" y="-62" font-family="Helvetica,sans-Serif" font-size="10.00">wx/font.h</text>
</a>
</g>
</g>
<!-- Node28&#45;&gt;Node33 -->
<g id="edge44" class="edge">
<title>Node28&#45;&gt;Node33</title>
<path fill="none" stroke="#63b8ff" d="M609.69,-164.97C589.56,-158.62 567.54,-147.69 555.5,-129 541.89,-107.88 569.28,-89.61 594.09,-78.17"/>
<polygon fill="#63b8ff" stroke="#63b8ff" points="595.62,-81.32 603.39,-74.12 592.82,-74.9 595.62,-81.32"/>
</g>
<!-- Node34 -->
<g id="node34" class="node">
<title>Node34</title>
<g id="a_node34"><a xlink:title=" ">
<polygon fill="#e0e0e0" stroke="#999999" points="884.5,-129 802.5,-129 802.5,-110 884.5,-110 884.5,-129"/>
<text text-anchor="middle" x="843.5" y="-117" font-family="Helvetica,sans-Serif" font-size="10.00">wx/settings.h</text>
</a>
</g>
</g>
<!-- Node28&#45;&gt;Node34 -->
<g id="edge45" class="edge">
<title>Node28&#45;&gt;Node34</title>
<path fill="none" stroke="#63b8ff" d="M684.03,-164.98C716.2,-156.01 767.06,-141.82 802.67,-131.89"/>
<polygon fill="#63b8ff" stroke="#63b8ff" points="804.04,-135.14 812.73,-129.08 802.16,-128.4 804.04,-135.14"/>
</g>
<!-- Node28&#45;&gt;Node35 -->
<g id="edge46" class="edge">
<title>Node28&#45;&gt;Node35</title>
<path fill="none" stroke="#63b8ff" d="M605.24,-171.84C536.45,-168.49 406.74,-158.49 300.5,-129 280.37,-123.41 277.36,-116.48 257.5,-110 189.07,-87.67 167.36,-90.79 93.5,-74.15"/>
<polygon fill="#63b8ff" stroke="#63b8ff" points="94.26,-70.73 83.73,-71.9 92.69,-77.55 94.26,-70.73"/>
</g>
<!-- Node36 -->
<g id="node36" class="node">
<title>Node36</title>
<g id="a_node36"><a xlink:href="FontAttribs_8h_source.html" target="_top" xlink:title=" ">
<polygon fill="white" stroke="#666666" points="389,-129 310,-129 310,-110 389,-110 389,-129"/>
<text text-anchor="middle" x="349.5" y="-117" font-family="Helvetica,sans-Serif" font-size="10.00">FontAttribs.h</text>
</a>
</g>
</g>
<!-- Node28&#45;&gt;Node36 -->
<g id="edge48" class="edge">
<title>Node28&#45;&gt;Node36</title>
<path fill="none" stroke="#63b8ff" d="M605.33,-165.1C548.95,-155.27 456.05,-139.08 399.07,-129.14"/>
<polygon fill="#63b8ff" stroke="#63b8ff" points="399.66,-125.69 389.21,-127.42 398.46,-132.59 399.66,-125.69"/>
</g>
<!-- Node45 -->
<g id="node42" class="node">
<title>Node45</title>
<g id="a_node42"><a xlink:href="FontVariantCache_8h.html" target="_top" xlink:title="This file implements the wxFont cache system.">
<polygon fill="#fff0f0" stroke="red" points="709,-129 598,-129 598,-110 709,-110 709,-129"/>
<text text-anchor="middle" x="653.5" y="-117" font-family="Helvetica,sans-Serif" font-size="10.00">FontVariantCache.h</text>
</a>
</g>
</g>
<!-- Node28&#45;&gt;Node45 -->
<g id="edge58" class="edge">
<title>Node28&#45;&gt;Node45</title>
<path fill="none" stroke="#63b8ff" d="M653.5,-164.75C653.5,-157.8 653.5,-147.85 653.5,-139.13"/>
<polygon fill="#63b8ff" stroke="#63b8ff" points="657,-139.09 653.5,-129.09 650,-139.09 657,-139.09"/>
</g>
<!-- Node28&#45;&gt;Node49 -->
<g id="edge65" class="edge">
<title>Node28&#45;&gt;Node49</title>
<path fill="none" stroke="#63b8ff" d="M632.96,-164.96C608.06,-153.4 571.41,-131.68 588.5,-110 596.6,-99.72 665.53,-85.12 716.9,-75.49"/>
<polygon fill="#63b8ff" stroke="#63b8ff" points="717.72,-78.89 726.92,-73.63 716.45,-72.01 717.72,-78.89"/>
</g>
<!-- Node36&#45;&gt;Node18 -->
<g id="edge56" class="edge">
<title>Node36&#45;&gt;Node18</title>
<path fill="none" stroke="#63b8ff" d="M351.55,-109.66C355.61,-92.09 364.79,-52.45 370.23,-28.95"/>
<polygon fill="#63b8ff" stroke="#63b8ff" points="373.65,-29.69 372.5,-19.16 366.83,-28.11 373.65,-29.69"/>
</g>
<!-- Node36&#45;&gt;Node33 -->
<g id="edge52" class="edge">
<title>Node36&#45;&gt;Node33</title>
<path fill="none" stroke="#63b8ff" d="M389.14,-111.4C434.4,-103.22 510.9,-89.18 585.97,-74.27"/>
<polygon fill="#63b8ff" stroke="#63b8ff" points="586.95,-77.64 596.07,-72.25 585.58,-70.78 586.95,-77.64"/>
</g>
<!-- Node36&#45;&gt;Node35 -->
<g id="edge55" class="edge">
<title>Node36&#45;&gt;Node35</title>
<path fill="none" stroke="#63b8ff" d="M309.62,-111.96C252.03,-102.47 147.42,-84.98 93.73,-74.1"/>
<polygon fill="#63b8ff" stroke="#63b8ff" points="94.21,-70.63 83.7,-72.02 92.78,-77.48 94.21,-70.63"/>
</g>
<!-- Node37 -->
<g id="node37" class="node">
<title>Node37</title>
<g id="a_node37"><a xlink:href="EnumWrapper_8h_source.html" target="_top" xlink:title=" ">
<polygon fill="#fff0f0" stroke="red" points="496.5,-74 402.5,-74 402.5,-55 496.5,-55 496.5,-74"/>
<text text-anchor="middle" x="449.5" y="-62" font-family="Helvetica,sans-Serif" font-size="10.00">EnumWrapper.h</text>
</a>
</g>
</g>
<!-- Node36&#45;&gt;Node37 -->
<g id="edge49" class="edge">
<title>Node36&#45;&gt;Node37</title>
<path fill="none" stroke="#63b8ff" d="M365.57,-109.98C381.36,-101.61 405.72,-88.7 424.13,-78.95"/>
<polygon fill="#63b8ff" stroke="#63b8ff" points="425.94,-81.95 433.14,-74.17 422.67,-75.76 425.94,-81.95"/>
</g>
<!-- Node40 -->
<g id="node38" class="node">
<title>Node40</title>
<g id="a_node38"><a xlink:href="clamp_8hpp_source.html" target="_top" xlink:title=" ">
<polygon fill="#fff0f0" stroke="red" points="187.5,-74 101.5,-74 101.5,-55 187.5,-55 187.5,-74"/>
<text text-anchor="middle" x="144.5" y="-62" font-family="Helvetica,sans-Serif" font-size="10.00">stx/clamp.hpp</text>
</a>
</g>
</g>
<!-- Node36&#45;&gt;Node40 -->
<g id="edge51" class="edge">
<title>Node36&#45;&gt;Node40</title>
<path fill="none" stroke="#63b8ff" d="M316.56,-109.98C281.55,-100.93 226.03,-86.58 187.57,-76.64"/>
<polygon fill="#63b8ff" stroke="#63b8ff" points="188.25,-73.2 177.69,-74.08 186.5,-79.97 188.25,-73.2"/>
</g>
<!-- Node42 -->
<g id="node39" class="node">
<title>Node42</title>
<g id="a_node39"><a xlink:title=" ">
<polygon fill="#e0e0e0" stroke="#999999" points="285,-74 206,-74 206,-55 285,-55 285,-74"/>
<text text-anchor="middle" x="245.5" y="-62" font-family="Helvetica,sans-Serif" font-size="10.00">wx/version.h</text>
</a>
</g>
</g>
<!-- Node36&#45;&gt;Node42 -->
<g id="edge53" class="edge">
<title>Node36&#45;&gt;Node42</title>
<path fill="none" stroke="#63b8ff" d="M332.79,-109.98C316.29,-101.57 290.8,-88.59 271.62,-78.81"/>
<polygon fill="#63b8ff" stroke="#63b8ff" points="273.01,-75.59 262.51,-74.17 269.83,-81.83 273.01,-75.59"/>
</g>
<!-- Node36&#45;&gt;Node43 -->
<g id="edge54" class="edge">
<title>Node36&#45;&gt;Node43</title>
<path fill="none" stroke="#63b8ff" d="M381.15,-109.98C414.66,-100.97 467.7,-86.7 504.64,-76.76"/>
<polygon fill="#63b8ff" stroke="#63b8ff" points="505.85,-80.06 514.6,-74.08 504.03,-73.3 505.85,-80.06"/>
</g>
<!-- Node44 -->
<g id="node41" class="node">
<title>Node44</title>
<g id="a_node41"><a xlink:title=" ">
<polygon fill="#e0e0e0" stroke="#999999" points="346.5,-74 302.5,-74 302.5,-55 346.5,-55 346.5,-74"/>
<text text-anchor="middle" x="324.5" y="-62" font-family="Helvetica,sans-Serif" font-size="10.00">limits</text>
</a>
</g>
</g>
<!-- Node36&#45;&gt;Node44 -->
<g id="edge57" class="edge">
<title>Node36&#45;&gt;Node44</title>
<path fill="none" stroke="#63b8ff" d="M345.37,-109.75C341.99,-102.57 337.08,-92.18 332.88,-83.27"/>
<polygon fill="#63b8ff" stroke="#63b8ff" points="335.98,-81.64 328.55,-74.09 329.65,-84.63 335.98,-81.64"/>
</g>
<!-- Node37&#45;&gt;Node18 -->
<g id="edge50" class="edge">
<title>Node37&#45;&gt;Node18</title>
<path fill="none" stroke="#63b8ff" d="M437.45,-54.98C426.04,-46.92 408.67,-34.65 395.07,-25.03"/>
<polygon fill="#63b8ff" stroke="#63b8ff" points="396.96,-22.08 386.77,-19.17 392.92,-27.8 396.96,-22.08"/>
</g>
<!-- Node45&#45;&gt;Node3 -->
<g id="edge59" class="edge">
<title>Node45&#45;&gt;Node3</title>
<path fill="none" stroke="#63b8ff" d="M709.32,-110.84C712.08,-110.54 714.82,-110.26 717.5,-110 987.91,-84.14 1314.13,-71.08 1431.1,-66.97"/>
<polygon fill="#63b8ff" stroke="#63b8ff" points="1431.56,-70.45 1441.43,-66.61 1431.32,-63.46 1431.56,-70.45"/>
</g>
<!-- Node45&#45;&gt;Node18 -->
<g id="edge62" class="edge">
<title>Node45&#45;&gt;Node18</title>
<path fill="none" stroke="#63b8ff" d="M698.89,-109.94C748.01,-100.22 820.44,-84.36 828.5,-74 833.68,-67.33 834.17,-61.26 828.5,-55 801.18,-24.87 525.41,-14.44 417.48,-11.5"/>
<polygon fill="#63b8ff" stroke="#63b8ff" points="417.36,-7.99 407.27,-11.23 417.18,-14.99 417.36,-7.99"/>
</g>
<!-- Node45&#45;&gt;Node33 -->
<g id="edge61" class="edge">
<title>Node45&#45;&gt;Node33</title>
<path fill="none" stroke="#63b8ff" d="M649.21,-109.75C645.69,-102.57 640.59,-92.18 636.22,-83.27"/>
<polygon fill="#63b8ff" stroke="#63b8ff" points="639.26,-81.53 631.71,-74.09 632.98,-84.61 639.26,-81.53"/>
</g>
<!-- Node45&#45;&gt;Node46 -->
<g id="edge60" class="edge">
<title>Node45&#45;&gt;Node46</title>
<path fill="none" stroke="#63b8ff" d="M709.34,-111.02C712.1,-110.67 714.83,-110.33 717.5,-110 845.85,-94.17 998.15,-77.42 1068.82,-69.77"/>
<polygon fill="#63b8ff" stroke="#63b8ff" points="1069.48,-73.22 1079.05,-68.66 1068.73,-66.26 1069.48,-73.22"/>
</g>
<!-- Node45&#45;&gt;Node47 -->
<g id="edge63" class="edge">
<title>Node45&#45;&gt;Node47</title>
<path fill="none" stroke="#63b8ff" d="M659.94,-109.75C665.39,-102.34 673.36,-91.5 680.06,-82.41"/>
<polygon fill="#63b8ff" stroke="#63b8ff" points="683.07,-84.22 686.18,-74.09 677.43,-80.07 683.07,-84.22"/>
</g>
<!-- Node45&#45;&gt;Node49 -->
<g id="edge64" class="edge">
<title>Node45&#45;&gt;Node49</title>
<path fill="none" stroke="#63b8ff" d="M672.78,-109.98C692.17,-101.42 722.31,-88.11 744.57,-78.28"/>
<polygon fill="#63b8ff" stroke="#63b8ff" points="746.14,-81.41 753.87,-74.17 743.31,-75.01 746.14,-81.41"/>
</g>
</g>
</svg>
        <g id="navigator" transform="translate(0 0)" fill="#404254">
                <rect fill="#f2f5e9" fill-opacity="0.5" stroke="#606060" stroke-width=".5" x="0" y="0" width="60" height="60"/>
                <use id="zoomplus" xlink:href="#zoomPlus" x="17" y="9" onmousedown="handleZoom(evt,'in')"/>
                <use id="zoomminus" xlink:href="#zoomMin" x="42" y="9" onmousedown="handleZoom(evt,'out')"/>
                <use id="reset" xlink:href="#resetDef" x="30" y="36" onmousedown="handleReset()"/>
                <g id="arrowUp" xlink:href="#dirArrow" transform="translate(30 24)" onmousedown="handlePan(0,-1)">
                  <use xlink:href="#rim" fill="#404040">
                        <set attributeName="fill" to="#808080" begin="arrowUp.mouseover" end="arrowUp.mouseout"/>
                  </use>
                  <path fill="none" stroke="white" stroke-width="1.5" d="M0,-3.0v7 M-2.5,-0.5L0,-3.0L2.5,-0.5"/>
                </g>
                <g id="arrowRight" xlink:href="#dirArrow" transform="rotate(90) translate(36 -43)" onmousedown="handlePan(1,0)">
                  <use xlink:href="#rim" fill="#404040">
                        <set attributeName="fill" to="#808080" begin="arrowRight.mouseover" end="arrowRight.mouseout"/>
                  </use>
                  <path fill="none" stroke="white" stroke-width="1.5" d="M0,-3.0v7 M-2.5,-0.5L0,-3.0L2.5,-0.5"/>
                </g>
                <g id="arrowDown" xlink:href="#dirArrow" transform="rotate(180) translate(-30 -48)" onmousedown="handlePan(0,1)">
                  <use xlink:href="#rim" fill="#404040">
                        <set attributeName="fill" to="#808080" begin="arrowDown.mouseover" end="arrowDown.mouseout"/>
                  </use>
                  <path fill="none" stroke="white" stroke-width="1.5" d="M0,-3.0v7 M-2.5,-0.5L0,-3.0L2.5,-0.5"/>
                </g>
                <g id="arrowLeft" xlink:href="#dirArrow" transform="rotate(270) translate(-36 17)" onmousedown="handlePan(-1,0)">
                  <use xlink:href="#rim" fill="#404040">
                        <set attributeName="fill" to="#808080" begin="arrowLeft.mouseover" end="arrowLeft.mouseout"/>
                  </use>
                  <path fill="none" stroke="white" stroke-width="1.5" d="M0,-3.0v7 M-2.5,-0.5L0,-3.0L2.5,-0.5"/>
                </g>
        </g>
        <svg viewBox="0 0 15 15" width="100%" height="30px" preserveAspectRatio="xMaxYMin meet">
         <g id="arrow_out" transform="scale(0.3 0.3)">
          <a xlink:href="FormatSidebar_8cpp__incl_org.svg" target="_base">
           <rect id="button" ry="5" rx="5" y="6" x="6" height="38" width="38"
                fill="#f2f5e9" fill-opacity="0.5" stroke="#606060" stroke-width="1.0"/>
           <path id="arrow"
             d="M 11.500037,31.436501 C 11.940474,20.09759 22.043105,11.32322 32.158766,21.979434 L 37.068811,17.246167 C 37.068811,17.246167 37.088388,32 37.088388,32 L 22.160133,31.978069 C 22.160133,31.978069 26.997745,27.140456 26.997745,27.140456 C 18.528582,18.264221 13.291696,25.230495 11.500037,31.436501 z"
             style="fill:#404040;"/>
          </a>
         </g>
        </svg>
</svg>
