<?xml version="1.0" encoding="UTF-8" standalone="no"?>
<!DOCTYPE svg PUBLIC "-//W3C//DTD SVG 1.1//EN"
 "http://www.w3.org/Graphics/SVG/1.1/DTD/svg11.dtd">
<!-- Generated by graphviz version 2.43.0 (0)
 -->
<!-- Title: src/cells/FracCell.h Pages: 1 -->
<svg width="576pt" height="252pt"
 viewBox="0.00 0.00 575.50 252.00" xmlns="http://www.w3.org/2000/svg" xmlns:xlink="http://www.w3.org/1999/xlink">
<g id="graph0" class="graph" transform="scale(1 1) rotate(0) translate(4 248)">
<title>src/cells/FracCell.h</title>
<polygon fill="white" stroke="transparent" points="-4,4 -4,-248 571.5,-248 571.5,4 -4,4"/>
<!-- Node1 -->
<g id="node1" class="node">
<title>Node1</title>
<g id="a_node1"><a xlink:title="This file declares the class FracCell.">
<polygon fill="#bfbfbf" stroke="black" points="169,-224.5 169,-243.5 276,-243.5 276,-224.5 169,-224.5"/>
<text text-anchor="middle" x="222.5" y="-231.5" font-family="Helvetica,sans-Serif" font-size="10.00">src/cells/FracCell.h</text>
</a>
</g>
</g>
<!-- Node2 -->
<g id="node2" class="node">
<title>Node2</title>
<g id="a_node2"><a xlink:href="FracCell_8cpp.html" target="_top" xlink:title="This file defines the class FracCell.">
<polygon fill="white" stroke="black" points="100,-168.5 100,-187.5 219,-187.5 219,-168.5 100,-168.5"/>
<text text-anchor="middle" x="159.5" y="-175.5" font-family="Helvetica,sans-Serif" font-size="10.00">src/cells/FracCell.cpp</text>
</a>
</g>
</g>
<!-- Node1&#45;&gt;Node2 -->
<g id="edge1" class="edge">
<title>Node1&#45;&gt;Node2</title>
<path fill="none" stroke="midnightblue" d="M204.46,-217.54C193.23,-207.91 179.18,-195.87 169.81,-187.83"/>
<polygon fill="midnightblue" stroke="midnightblue" points="202.51,-220.47 212.38,-224.32 207.06,-215.16 202.51,-220.47"/>
</g>
<!-- Node3 -->
<g id="node3" class="node">
<title>Node3</title>
<g id="a_node3"><a xlink:href="MathParser_8h.html" target="_top" xlink:title="The header file for the xml cell parser.">
<polygon fill="white" stroke="black" points="237,-168.5 237,-187.5 334,-187.5 334,-168.5 237,-168.5"/>
<text text-anchor="middle" x="285.5" y="-175.5" font-family="Helvetica,sans-Serif" font-size="10.00">src/MathParser.h</text>
</a>
</g>
</g>
<!-- Node1&#45;&gt;Node3 -->
<g id="edge2" class="edge">
<title>Node1&#45;&gt;Node3</title>
<path fill="none" stroke="midnightblue" d="M240.54,-217.54C251.77,-207.91 265.82,-195.87 275.19,-187.83"/>
<polygon fill="midnightblue" stroke="midnightblue" points="237.94,-215.16 232.62,-224.32 242.49,-220.47 237.94,-215.16"/>
</g>
<!-- Node4 -->
<g id="node4" class="node">
<title>Node4</title>
<g id="a_node4"><a xlink:href="MathParser_8cpp.html" target="_top" xlink:title="This file defines the class MathParser that reads wxmx data and math from Maxima.">
<polygon fill="white" stroke="black" points="110.5,-112.5 110.5,-131.5 218.5,-131.5 218.5,-112.5 110.5,-112.5"/>
<text text-anchor="middle" x="164.5" y="-119.5" font-family="Helvetica,sans-Serif" font-size="10.00">src/MathParser.cpp</text>
</a>
</g>
</g>
<!-- Node3&#45;&gt;Node4 -->
<g id="edge3" class="edge">
<title>Node3&#45;&gt;Node4</title>
<path fill="none" stroke="midnightblue" d="M257.19,-164.37C234.53,-154.26 203.37,-140.35 183.58,-131.52"/>
<polygon fill="midnightblue" stroke="midnightblue" points="255.77,-167.56 266.33,-168.44 258.62,-161.17 255.77,-167.56"/>
</g>
<!-- Node5 -->
<g id="node5" class="node">
<title>Node5</title>
<g id="a_node5"><a xlink:href="main_8h.html" target="_top" xlink:title="This file declares the class wxMaxima that contains most of the program&#39;s logic.">
<polygon fill="white" stroke="black" points="345.5,-56.5 345.5,-75.5 413.5,-75.5 413.5,-56.5 345.5,-56.5"/>
<text text-anchor="middle" x="379.5" y="-63.5" font-family="Helvetica,sans-Serif" font-size="10.00">src/main.h</text>
</a>
</g>
</g>
<!-- Node3&#45;&gt;Node5 -->
<g id="edge4" class="edge">
<title>Node3&#45;&gt;Node5</title>
<path fill="none" stroke="midnightblue" d="M308.02,-162.77C319.58,-154.71 333.32,-143.88 343.5,-132 358.77,-114.17 370.53,-88.84 376.04,-75.68"/>
<polygon fill="midnightblue" stroke="midnightblue" points="306.05,-159.87 299.7,-168.36 309.96,-165.68 306.05,-159.87"/>
</g>
<!-- Node9 -->
<g id="node9" class="node">
<title>Node9</title>
<g id="a_node9"><a xlink:href="wxMaxima_8h.html" target="_top" xlink:title="This file declares the class wxMaxima that contains most of the program&#39;s logic.">
<polygon fill="white" stroke="black" points="237,-112.5 237,-131.5 334,-131.5 334,-112.5 237,-112.5"/>
<text text-anchor="middle" x="285.5" y="-119.5" font-family="Helvetica,sans-Serif" font-size="10.00">src/wxMaxima.h</text>
</a>
</g>
</g>
<!-- Node3&#45;&gt;Node9 -->
<g id="edge8" class="edge">
<title>Node3&#45;&gt;Node9</title>
<path fill="none" stroke="midnightblue" d="M285.5,-157.8C285.5,-148.91 285.5,-138.78 285.5,-131.75"/>
<polygon fill="midnightblue" stroke="midnightblue" points="282,-158.08 285.5,-168.08 289,-158.08 282,-158.08"/>
</g>
<!-- Node6 -->
<g id="node6" class="node">
<title>Node6</title>
<g id="a_node6"><a xlink:href="MaximaManual_8cpp.html" target="_top" xlink:title="This file defines the class MaximaManual.">
<polygon fill="white" stroke="black" points="437.5,-0.5 437.5,-19.5 567.5,-19.5 567.5,-0.5 437.5,-0.5"/>
<text text-anchor="middle" x="502.5" y="-7.5" font-family="Helvetica,sans-Serif" font-size="10.00">src/MaximaManual.cpp</text>
</a>
</g>
</g>
<!-- Node5&#45;&gt;Node6 -->
<g id="edge5" class="edge">
<title>Node5&#45;&gt;Node6</title>
<path fill="none" stroke="midnightblue" d="M408.27,-52.37C431.31,-42.26 462.98,-28.35 483.1,-19.52"/>
<polygon fill="midnightblue" stroke="midnightblue" points="406.74,-49.22 398.99,-56.44 409.55,-55.63 406.74,-49.22"/>
</g>
<!-- Node7 -->
<g id="node7" class="node">
<title>Node7</title>
<g id="a_node7"><a xlink:href="main_8cpp.html" target="_top" xlink:title="The file that defines the starting point of the program.">
<polygon fill="white" stroke="black" points="340,-0.5 340,-19.5 419,-19.5 419,-0.5 340,-0.5"/>
<text text-anchor="middle" x="379.5" y="-7.5" font-family="Helvetica,sans-Serif" font-size="10.00">src/main.cpp</text>
</a>
</g>
</g>
<!-- Node5&#45;&gt;Node7 -->
<g id="edge6" class="edge">
<title>Node5&#45;&gt;Node7</title>
<path fill="none" stroke="midnightblue" d="M379.5,-45.8C379.5,-36.91 379.5,-26.78 379.5,-19.75"/>
<polygon fill="midnightblue" stroke="midnightblue" points="376,-46.08 379.5,-56.08 383,-46.08 376,-46.08"/>
</g>
<!-- Node8 -->
<g id="node8" class="node">
<title>Node8</title>
<g id="a_node8"><a xlink:href="wxMaxima_8cpp.html" target="_top" xlink:title="This file defines the contents of the class wxMaxima that contains most of the program&#39;s logic.">
<polygon fill="white" stroke="black" points="213.5,-0.5 213.5,-19.5 321.5,-19.5 321.5,-0.5 213.5,-0.5"/>
<text text-anchor="middle" x="267.5" y="-7.5" font-family="Helvetica,sans-Serif" font-size="10.00">src/wxMaxima.cpp</text>
</a>
</g>
</g>
<!-- Node5&#45;&gt;Node8 -->
<g id="edge7" class="edge">
<title>Node5&#45;&gt;Node8</title>
<path fill="none" stroke="midnightblue" d="M352.25,-51.86C331.48,-41.85 303.48,-28.35 285.45,-19.65"/>
<polygon fill="midnightblue" stroke="midnightblue" points="350.98,-55.13 361.51,-56.32 354.02,-48.83 350.98,-55.13"/>
</g>
<!-- Node9&#45;&gt;Node5 -->
<g id="edge10" class="edge">
<title>Node9&#45;&gt;Node5</title>
<path fill="none" stroke="midnightblue" d="M309.56,-107.18C326.86,-97.24 349.65,-84.15 364.43,-75.65"/>
<polygon fill="midnightblue" stroke="midnightblue" points="307.53,-104.31 300.6,-112.32 311.02,-110.38 307.53,-104.31"/>
</g>
<!-- Node9&#45;&gt;Node7 -->
<g id="edge11" class="edge">
<title>Node9&#45;&gt;Node7</title>
<path fill="none" stroke="midnightblue" d="M298.01,-104.15C308.08,-90.81 322.76,-71.85 336.5,-56 347.82,-42.93 361.79,-28.62 370.67,-19.73"/>
<polygon fill="midnightblue" stroke="midnightblue" points="295.04,-102.27 291.85,-112.37 300.64,-106.47 295.04,-102.27"/>
</g>
<!-- Node9&#45;&gt;Node8 -->
<g id="edge13" class="edge">
<title>Node9&#45;&gt;Node8</title>
<path fill="none" stroke="midnightblue" d="M282.45,-102.35C278.51,-78.25 271.8,-37.31 268.91,-19.59"/>
<polygon fill="midnightblue" stroke="midnightblue" points="279.02,-103.06 284.09,-112.37 285.93,-101.93 279.02,-103.06"/>
</g>
<!-- Node10 -->
<g id="node10" class="node">
<title>Node10</title>
<g id="a_node10"><a xlink:href="EditorCell_8cpp.html" target="_top" xlink:title="This file defines the class EditorCell.">
<polygon fill="white" stroke="black" points="0,-56.5 0,-75.5 127,-75.5 127,-56.5 0,-56.5"/>
<text text-anchor="middle" x="63.5" y="-63.5" font-family="Helvetica,sans-Serif" font-size="10.00">src/cells/EditorCell.cpp</text>
</a>
</g>
</g>
<!-- Node9&#45;&gt;Node10 -->
<g id="edge9" class="edge">
<title>Node9&#45;&gt;Node10</title>
<path fill="none" stroke="midnightblue" d="M240.38,-110.02C198.44,-99.82 136.85,-84.84 98.51,-75.52"/>
<polygon fill="midnightblue" stroke="midnightblue" points="239.78,-113.48 250.32,-112.44 241.43,-106.68 239.78,-113.48"/>
</g>
<!-- Node11 -->
<g id="node11" class="node">
<title>Node11</title>
<g id="a_node11"><a xlink:href="Worksheet_8cpp.html" target="_top" xlink:title="This file defines the class Worksheet.">
<polygon fill="white" stroke="black" points="145.5,-56.5 145.5,-75.5 251.5,-75.5 251.5,-56.5 145.5,-56.5"/>
<text text-anchor="middle" x="198.5" y="-63.5" font-family="Helvetica,sans-Serif" font-size="10.00">src/Worksheet.cpp</text>
</a>
</g>
</g>
<!-- Node9&#45;&gt;Node11 -->
<g id="edge12" class="edge">
<title>Node9&#45;&gt;Node11</title>
<path fill="none" stroke="midnightblue" d="M262.78,-106.9C246.83,-97 226,-84.07 212.44,-75.65"/>
<polygon fill="midnightblue" stroke="midnightblue" points="261.18,-110.02 271.52,-112.32 264.87,-104.08 261.18,-110.02"/>
</g>
</g>
</svg>
