<?xml version="1.0" encoding="UTF-8" standalone="no"?>
<!DOCTYPE svg PUBLIC "-//W3C//DTD SVG 1.1//EN"
 "http://www.w3.org/Graphics/SVG/1.1/DTD/svg11.dtd">
<!-- Generated by graphviz version 2.43.0 (0)
 -->
<!-- Title: src/cells/FracCell.cpp Pages: 1 -->
<svg width="2304pt" height="412pt"
 viewBox="0.00 0.00 2304.00 412.00" xmlns="http://www.w3.org/2000/svg" xmlns:xlink="http://www.w3.org/1999/xlink">
<g id="graph0" class="graph" transform="scale(1 1) rotate(0) translate(4 408)">
<title>src/cells/FracCell.cpp</title>
<!-- Node1 -->
<g id="node1" class="node">
<title>Node1</title>
<g id="a_node1"><a xlink:title="This file defines the class FracCell.">
<polygon fill="#999999" stroke="#666666" points="2246,-404 2127,-404 2127,-385 2246,-385 2246,-404"/>
<text text-anchor="middle" x="2186.5" y="-392" font-family="Helvetica,sans-Serif" font-size="10.00">src/cells/FracCell.cpp</text>
</a>
</g>
</g>
<!-- Node2 -->
<g id="node2" class="node">
<title>Node2</title>
<g id="a_node2"><a xlink:href="FracCell_8h.html" target="_top" xlink:title="This file declares the class FracCell.">
<polygon fill="white" stroke="#666666" points="1828,-349 1763,-349 1763,-330 1828,-330 1828,-349"/>
<text text-anchor="middle" x="1795.5" y="-337" font-family="Helvetica,sans-Serif" font-size="10.00">FracCell.h</text>
</a>
</g>
</g>
<!-- Node1&#45;&gt;Node2 -->
<g id="edge1" class="edge">
<title>Node1&#45;&gt;Node2</title>
<path fill="none" stroke="#63b8ff" d="M2126.69,-385.39C2047.13,-374.61 1908.4,-355.8 1838.45,-346.32"/>
<polygon fill="#63b8ff" stroke="#63b8ff" points="1838.61,-342.81 1828.23,-344.94 1837.67,-349.75 1838.61,-342.81"/>
</g>
<!-- Node3 -->
<g id="node3" class="node">
<title>Node3</title>
<g id="a_node3"><a xlink:title=" ">
<polygon fill="#e0e0e0" stroke="#999999" points="2227.5,-129 2169.5,-129 2169.5,-110 2227.5,-110 2227.5,-129"/>
<text text-anchor="middle" x="2198.5" y="-117" font-family="Helvetica,sans-Serif" font-size="10.00">memory</text>
</a>
</g>
</g>
<!-- Node1&#45;&gt;Node3 -->
<g id="edge81" class="edge">
<title>Node1&#45;&gt;Node3</title>
<path fill="none" stroke="#63b8ff" d="M2182.33,-384.77C2174.09,-366.69 2156.5,-323.64 2156.5,-285.5 2156.5,-285.5 2156.5,-285.5 2156.5,-228.5 2156.5,-194.46 2174.85,-158.24 2187.29,-137.59"/>
<polygon fill="#63b8ff" stroke="#63b8ff" points="2190.31,-139.35 2192.66,-129.02 2184.38,-135.63 2190.31,-139.35"/>
</g>
<!-- Node10 -->
<g id="node10" class="node">
<title>Node10</title>
<g id="a_node10"><a xlink:title=" ">
<polygon fill="#e0e0e0" stroke="#999999" points="2296,-129 2251,-129 2251,-110 2296,-110 2296,-129"/>
<text text-anchor="middle" x="2273.5" y="-117" font-family="Helvetica,sans-Serif" font-size="10.00">utility</text>
</a>
</g>
</g>
<!-- Node1&#45;&gt;Node10 -->
<g id="edge80" class="edge">
<title>Node1&#45;&gt;Node10</title>
<path fill="none" stroke="#63b8ff" d="M2209.04,-384.97C2225.28,-377.72 2246.54,-365.81 2259.5,-349 2277.49,-325.67 2278.5,-314.96 2278.5,-285.5 2278.5,-285.5 2278.5,-285.5 2278.5,-228.5 2278.5,-197.16 2276.37,-160.75 2274.89,-139.22"/>
<polygon fill="#63b8ff" stroke="#63b8ff" points="2278.38,-138.9 2274.17,-129.17 2271.4,-139.4 2278.38,-138.9"/>
</g>
<!-- Node55 -->
<g id="node50" class="node">
<title>Node55</title>
<g id="a_node50"><a xlink:href="CellImpl_8h.html" target="_top" xlink:title="Macros and types used only by cell implementations, not by cell users.">
<polygon fill="white" stroke="#666666" points="2250.5,-349 2184.5,-349 2184.5,-330 2250.5,-330 2250.5,-349"/>
<text text-anchor="middle" x="2217.5" y="-337" font-family="Helvetica,sans-Serif" font-size="10.00">CellImpl.h</text>
</a>
</g>
</g>
<!-- Node1&#45;&gt;Node55 -->
<g id="edge78" class="edge">
<title>Node1&#45;&gt;Node55</title>
<path fill="none" stroke="#63b8ff" d="M2191.62,-384.75C2195.86,-377.49 2202.03,-366.95 2207.28,-357.98"/>
<polygon fill="#63b8ff" stroke="#63b8ff" points="2210.45,-359.49 2212.48,-349.09 2204.41,-355.95 2210.45,-359.49"/>
</g>
<!-- Node2&#45;&gt;Node3 -->
<g id="edge2" class="edge">
<title>Node2&#45;&gt;Node3</title>
<path fill="none" stroke="#63b8ff" d="M1813.41,-329.95C1860.47,-307.34 1991.22,-243.65 2096.5,-184 2124.83,-167.95 2156.53,-147.86 2176.96,-134.63"/>
<polygon fill="#63b8ff" stroke="#63b8ff" points="2179.03,-137.46 2185.51,-129.07 2175.22,-131.59 2179.03,-137.46"/>
</g>
<!-- Node4 -->
<g id="node4" class="node">
<title>Node4</title>
<g id="a_node4"><a xlink:href="Cell_8h.html" target="_top" xlink:title="The definition of the base class of all cells the worksheet consists of.">
<polygon fill="white" stroke="#666666" points="1722.5,-239 1678.5,-239 1678.5,-220 1722.5,-220 1722.5,-239"/>
<text text-anchor="middle" x="1700.5" y="-227" font-family="Helvetica,sans-Serif" font-size="10.00">Cell.h</text>
</a>
</g>
</g>
<!-- Node2&#45;&gt;Node4 -->
<g id="edge3" class="edge">
<title>Node2&#45;&gt;Node4</title>
<path fill="none" stroke="#63b8ff" d="M1786.2,-329.95C1776.86,-321.22 1762.21,-307.11 1750.5,-294 1736.98,-278.86 1722.78,-260.56 1712.98,-247.5"/>
<polygon fill="#63b8ff" stroke="#63b8ff" points="1715.74,-245.34 1706.96,-239.4 1710.12,-249.52 1715.74,-245.34"/>
</g>
<!-- Node52 -->
<g id="node47" class="node">
<title>Node52</title>
<g id="a_node47"><a xlink:href="TextCell_8h_source.html" target="_top" xlink:title=" ">
<polygon fill="white" stroke="#666666" points="1703,-294 1638,-294 1638,-275 1703,-275 1703,-294"/>
<text text-anchor="middle" x="1670.5" y="-282" font-family="Helvetica,sans-Serif" font-size="10.00">TextCell.h</text>
</a>
</g>
</g>
<!-- Node2&#45;&gt;Node52 -->
<g id="edge73" class="edge">
<title>Node2&#45;&gt;Node52</title>
<path fill="none" stroke="#63b8ff" d="M1775.42,-329.98C1755.13,-321.38 1723.54,-307.99 1700.33,-298.15"/>
<polygon fill="#63b8ff" stroke="#63b8ff" points="1701.52,-294.85 1690.95,-294.17 1698.79,-301.3 1701.52,-294.85"/>
</g>
<!-- Node54 -->
<g id="node49" class="node">
<title>Node54</title>
<g id="a_node49"><a xlink:href="ParenCell_8h.html" target="_top" xlink:title="This file declares the class ParenCell.">
<polygon fill="white" stroke="#666666" points="1831,-294 1760,-294 1760,-275 1831,-275 1831,-294"/>
<text text-anchor="middle" x="1795.5" y="-282" font-family="Helvetica,sans-Serif" font-size="10.00">ParenCell.h</text>
</a>
</g>
</g>
<!-- Node2&#45;&gt;Node54 -->
<g id="edge76" class="edge">
<title>Node2&#45;&gt;Node54</title>
<path fill="none" stroke="#63b8ff" d="M1795.5,-329.75C1795.5,-322.8 1795.5,-312.85 1795.5,-304.13"/>
<polygon fill="#63b8ff" stroke="#63b8ff" points="1799,-304.09 1795.5,-294.09 1792,-304.09 1799,-304.09"/>
</g>
<!-- Node4&#45;&gt;Node3 -->
<g id="edge70" class="edge">
<title>Node4&#45;&gt;Node3</title>
<path fill="none" stroke="#63b8ff" d="M1722.53,-228.15C1779.65,-226.74 1936.73,-219.66 2061.5,-184 2067.19,-182.37 2133.1,-151.41 2171.38,-133.33"/>
<polygon fill="#63b8ff" stroke="#63b8ff" points="2172.92,-136.48 2180.47,-129.04 2169.93,-130.15 2172.92,-136.48"/>
</g>
<!-- Node5 -->
<g id="node5" class="node">
<title>Node5</title>
<g id="a_node5"><a xlink:href="precomp_8h_source.html" target="_top" xlink:title=" ">
<polygon fill="white" stroke="#666666" points="79,-74 2,-74 2,-55 79,-55 79,-74"/>
<text text-anchor="middle" x="40.5" y="-62" font-family="Helvetica,sans-Serif" font-size="10.00">../precomp.h</text>
</a>
</g>
</g>
<!-- Node4&#45;&gt;Node5 -->
<g id="edge4" class="edge">
<title>Node4&#45;&gt;Node5</title>
<path fill="none" stroke="#63b8ff" d="M1678.26,-221.9C1675.01,-221.14 1671.68,-220.47 1668.5,-220 1181.92,-148.41 1053.06,-219.18 562.5,-184 341.71,-168.17 245.09,-261.14 67.5,-129 53.26,-118.4 46.45,-98.79 43.25,-84.15"/>
<polygon fill="#63b8ff" stroke="#63b8ff" points="46.67,-83.38 41.44,-74.16 39.78,-84.63 46.67,-83.38"/>
</g>
<!-- Node7 -->
<g id="node7" class="node">
<title>Node7</title>
<g id="a_node7"><a xlink:href="CellPtr_8h.html" target="_top" xlink:title="Implementation of an observing weak Cell pointer.">
<polygon fill="white" stroke="#666666" points="1910,-184 1853,-184 1853,-165 1910,-165 1910,-184"/>
<text text-anchor="middle" x="1881.5" y="-172" font-family="Helvetica,sans-Serif" font-size="10.00">CellPtr.h</text>
</a>
</g>
</g>
<!-- Node4&#45;&gt;Node7 -->
<g id="edge6" class="edge">
<title>Node4&#45;&gt;Node7</title>
<path fill="none" stroke="#63b8ff" d="M1722.69,-222C1752.64,-213.23 1806.42,-197.48 1843.02,-186.77"/>
<polygon fill="#63b8ff" stroke="#63b8ff" points="1844.24,-190.06 1852.86,-183.89 1842.28,-183.34 1844.24,-190.06"/>
</g>
<!-- Node14 -->
<g id="node14" class="node">
<title>Node14</title>
<g id="a_node14"><a xlink:title=" ">
<polygon fill="#e0e0e0" stroke="#999999" points="2080,-129 2011,-129 2011,-110 2080,-110 2080,-129"/>
<text text-anchor="middle" x="2045.5" y="-117" font-family="Helvetica,sans-Serif" font-size="10.00">type_traits</text>
</a>
</g>
</g>
<!-- Node4&#45;&gt;Node14 -->
<g id="edge72" class="edge">
<title>Node4&#45;&gt;Node14</title>
<path fill="none" stroke="#63b8ff" d="M1722.67,-225.93C1762.65,-220.86 1849.13,-207.96 1918.5,-184 1923.72,-182.2 1983.83,-151.82 2019.45,-133.74"/>
<polygon fill="#63b8ff" stroke="#63b8ff" points="2021.45,-136.65 2028.78,-129 2018.28,-130.41 2021.45,-136.65"/>
</g>
<!-- Node15 -->
<g id="node15" class="node">
<title>Node15</title>
<g id="a_node15"><a xlink:href="CellIterators_8h.html" target="_top" xlink:title="Declares the various iterators useful with the Cell class.">
<polygon fill="white" stroke="#666666" points="2052.5,-184 1966.5,-184 1966.5,-165 2052.5,-165 2052.5,-184"/>
<text text-anchor="middle" x="2009.5" y="-172" font-family="Helvetica,sans-Serif" font-size="10.00">CellIterators.h</text>
</a>
</g>
</g>
<!-- Node4&#45;&gt;Node15 -->
<g id="edge15" class="edge">
<title>Node4&#45;&gt;Node15</title>
<path fill="none" stroke="#63b8ff" d="M1722.72,-224.69C1771.16,-216.38 1887.4,-196.44 1956.1,-184.66"/>
<polygon fill="#63b8ff" stroke="#63b8ff" points="1957.03,-188.05 1966.29,-182.91 1955.84,-181.15 1957.03,-188.05"/>
</g>
<!-- Node17 -->
<g id="node17" class="node">
<title>Node17</title>
<g id="a_node17"><a xlink:href="Configuration_8h_source.html" target="_top" xlink:title=" ">
<polygon fill="white" stroke="#666666" points="663,-184 572,-184 572,-165 663,-165 663,-184"/>
<text text-anchor="middle" x="617.5" y="-172" font-family="Helvetica,sans-Serif" font-size="10.00">Configuration.h</text>
</a>
</g>
</g>
<!-- Node4&#45;&gt;Node17 -->
<g id="edge20" class="edge">
<title>Node4&#45;&gt;Node17</title>
<path fill="none" stroke="#63b8ff" d="M1678.25,-221.93C1675,-221.16 1671.68,-220.48 1668.5,-220 1473.91,-190.4 861.9,-179.1 673.35,-176.26"/>
<polygon fill="#63b8ff" stroke="#63b8ff" points="673.17,-172.76 663.12,-176.11 673.07,-179.76 673.17,-172.76"/>
</g>
<!-- Node25 -->
<g id="node24" class="node">
<title>Node25</title>
<g id="a_node24"><a xlink:href="TextStyle_8h.html" target="_top" xlink:title="This file declares everything needed for the text style system used to style all the elements on the ...">
<polygon fill="#fff0f0" stroke="red" points="1355.5,-129 1259.5,-129 1259.5,-110 1355.5,-110 1355.5,-129"/>
<text text-anchor="middle" x="1307.5" y="-117" font-family="Helvetica,sans-Serif" font-size="10.00">cells/TextStyle.h</text>
</a>
</g>
</g>
<!-- Node4&#45;&gt;Node25 -->
<g id="edge62" class="edge">
<title>Node4&#45;&gt;Node25</title>
<path fill="none" stroke="#63b8ff" d="M1678.49,-222.54C1675.15,-221.67 1671.74,-220.8 1668.5,-220 1598.14,-202.7 1579.45,-202.88 1509.5,-184 1450.12,-167.97 1382.07,-145.77 1342.05,-132.31"/>
<polygon fill="#63b8ff" stroke="#63b8ff" points="1343.09,-128.97 1332.5,-129.09 1340.85,-135.6 1343.09,-128.97"/>
</g>
<!-- Node27 -->
<g id="node26" class="node">
<title>Node27</title>
<g id="a_node26"><a xlink:title=" ">
<polygon fill="#e0e0e0" stroke="#999999" points="1578.5,-74 1540.5,-74 1540.5,-55 1578.5,-55 1578.5,-74"/>
<text text-anchor="middle" x="1559.5" y="-62" font-family="Helvetica,sans-Serif" font-size="10.00">map</text>
</a>
</g>
</g>
<!-- Node4&#45;&gt;Node27 -->
<g id="edge69" class="edge">
<title>Node4&#45;&gt;Node27</title>
<path fill="none" stroke="#63b8ff" d="M1687.35,-219.76C1675.63,-211.52 1658.54,-198.32 1646.5,-184 1622.17,-155.05 1627.49,-140.02 1604.5,-110 1596.42,-99.45 1585.93,-88.93 1577.11,-80.77"/>
<polygon fill="#63b8ff" stroke="#63b8ff" points="1579.37,-78.1 1569.59,-74.01 1574.68,-83.3 1579.37,-78.1"/>
</g>
<!-- Node36 -->
<g id="node33" class="node">
<title>Node36</title>
<g id="a_node33"><a xlink:title=" ">
<polygon fill="#e0e0e0" stroke="#999999" points="697.5,-19 633.5,-19 633.5,0 697.5,0 697.5,-19"/>
<text text-anchor="middle" x="665.5" y="-7" font-family="Helvetica,sans-Serif" font-size="10.00">algorithm</text>
</a>
</g>
</g>
<!-- Node4&#45;&gt;Node36 -->
<g id="edge68" class="edge">
<title>Node4&#45;&gt;Node36</title>
<path fill="none" stroke="#63b8ff" d="M1678.19,-222.27C1674.95,-221.45 1671.65,-220.67 1668.5,-220 1569.87,-199.03 1542.95,-205.79 1444.5,-184 1357,-164.63 1334.22,-160.97 1250.5,-129 1232.49,-122.12 1230.13,-114.97 1211.5,-110 1098.08,-79.74 776.21,-147.27 684.5,-74 671.31,-63.46 667,-44.13 665.72,-29.56"/>
<polygon fill="#63b8ff" stroke="#63b8ff" points="669.2,-28.98 665.23,-19.15 662.2,-29.3 669.2,-28.98"/>
</g>
<!-- Node43 -->
<g id="node38" class="node">
<title>Node43</title>
<g id="a_node38"><a xlink:title=" ">
<polygon fill="#e0e0e0" stroke="#999999" points="1203,-129 1156,-129 1156,-110 1203,-110 1203,-129"/>
<text text-anchor="middle" x="1179.5" y="-117" font-family="Helvetica,sans-Serif" font-size="10.00">vector</text>
</a>
</g>
</g>
<!-- Node4&#45;&gt;Node43 -->
<g id="edge71" class="edge">
<title>Node4&#45;&gt;Node43</title>
<path fill="none" stroke="#63b8ff" d="M1678.23,-222.04C1674.99,-221.26 1671.67,-220.54 1668.5,-220 1569.4,-203.03 1302.92,-237.03 1217.5,-184 1201.16,-173.86 1190.94,-153.87 1185.27,-139.01"/>
<polygon fill="#63b8ff" stroke="#63b8ff" points="1188.49,-137.63 1181.92,-129.32 1181.87,-139.91 1188.49,-137.63"/>
</g>
<!-- Node47 -->
<g id="node42" class="node">
<title>Node47</title>
<g id="a_node42"><a xlink:href="StringUtils_8h_source.html" target="_top" xlink:title=" ">
<polygon fill="white" stroke="#666666" points="1596,-184 1519,-184 1519,-165 1596,-165 1596,-184"/>
<text text-anchor="middle" x="1557.5" y="-172" font-family="Helvetica,sans-Serif" font-size="10.00">StringUtils.h</text>
</a>
</g>
</g>
<!-- Node4&#45;&gt;Node47 -->
<g id="edge59" class="edge">
<title>Node4&#45;&gt;Node47</title>
<path fill="none" stroke="#63b8ff" d="M1678.47,-220.33C1654.89,-211.59 1617.22,-197.63 1590.18,-187.61"/>
<polygon fill="#63b8ff" stroke="#63b8ff" points="1591.34,-184.31 1580.74,-184.11 1588.9,-190.87 1591.34,-184.31"/>
</g>
<!-- Node50 -->
<g id="node45" class="node">
<title>Node50</title>
<g id="a_node45"><a xlink:href="CachedValue_8h.html" target="_top" xlink:title="Declares &quot;mostly read&#45;only&quot; wrappers around values that are expensive to compute and are thus cached.">
<polygon fill="#fff0f0" stroke="red" points="1745,-184 1656,-184 1656,-165 1745,-165 1745,-184"/>
<text text-anchor="middle" x="1700.5" y="-172" font-family="Helvetica,sans-Serif" font-size="10.00">CachedValue.h</text>
</a>
</g>
</g>
<!-- Node4&#45;&gt;Node50 -->
<g id="edge63" class="edge">
<title>Node4&#45;&gt;Node50</title>
<path fill="none" stroke="#63b8ff" d="M1700.5,-219.75C1700.5,-212.8 1700.5,-202.85 1700.5,-194.13"/>
<polygon fill="#63b8ff" stroke="#63b8ff" points="1704,-194.09 1700.5,-184.09 1697,-194.09 1704,-194.09"/>
</g>
<!-- Node51 -->
<g id="node46" class="node">
<title>Node51</title>
<g id="a_node46"><a xlink:title=" ">
<polygon fill="#e0e0e0" stroke="#999999" points="1827.5,-184 1763.5,-184 1763.5,-165 1827.5,-165 1827.5,-184"/>
<text text-anchor="middle" x="1795.5" y="-172" font-family="Helvetica,sans-Serif" font-size="10.00">wx/defs.h</text>
</a>
</g>
</g>
<!-- Node4&#45;&gt;Node51 -->
<g id="edge67" class="edge">
<title>Node4&#45;&gt;Node51</title>
<path fill="none" stroke="#63b8ff" d="M1715.76,-219.98C1730.63,-211.69 1753.48,-198.94 1770.92,-189.22"/>
<polygon fill="#63b8ff" stroke="#63b8ff" points="1772.93,-192.1 1779.96,-184.17 1769.52,-185.99 1772.93,-192.1"/>
</g>
<!-- Node6 -->
<g id="node6" class="node">
<title>Node6</title>
<g id="a_node6"><a xlink:title=" ">
<polygon fill="#e0e0e0" stroke="#999999" points="81,-19 0,-19 0,0 81,0 81,-19"/>
<text text-anchor="middle" x="40.5" y="-7" font-family="Helvetica,sans-Serif" font-size="10.00">BuildConfig.h</text>
</a>
</g>
</g>
<!-- Node5&#45;&gt;Node6 -->
<g id="edge5" class="edge">
<title>Node5&#45;&gt;Node6</title>
<path fill="none" stroke="#63b8ff" d="M40.5,-54.75C40.5,-47.8 40.5,-37.85 40.5,-29.13"/>
<polygon fill="#63b8ff" stroke="#63b8ff" points="44,-29.09 40.5,-19.09 37,-29.09 44,-29.09"/>
</g>
<!-- Node7&#45;&gt;Node3 -->
<g id="edge13" class="edge">
<title>Node7&#45;&gt;Node3</title>
<path fill="none" stroke="#63b8ff" d="M1910.01,-169.47C1958.78,-162.47 2061.6,-147.2 2159.12,-128.97"/>
<polygon fill="#63b8ff" stroke="#63b8ff" points="2159.97,-132.37 2169.15,-127.08 2158.67,-125.49 2159.97,-132.37"/>
</g>
<!-- Node8 -->
<g id="node8" class="node">
<title>Node8</title>
<g id="a_node8"><a xlink:title=" ">
<polygon fill="#e0e0e0" stroke="#999999" points="1764,-129 1691,-129 1691,-110 1764,-110 1764,-129"/>
<text text-anchor="middle" x="1727.5" y="-117" font-family="Helvetica,sans-Serif" font-size="10.00">wx/debug.h</text>
</a>
</g>
</g>
<!-- Node7&#45;&gt;Node8 -->
<g id="edge7" class="edge">
<title>Node7&#45;&gt;Node8</title>
<path fill="none" stroke="#63b8ff" d="M1856.76,-164.98C1831.13,-156.16 1790.87,-142.31 1762.09,-132.41"/>
<polygon fill="#63b8ff" stroke="#63b8ff" points="1763.03,-129.03 1752.44,-129.08 1760.75,-135.65 1763.03,-129.03"/>
</g>
<!-- Node9 -->
<g id="node9" class="node">
<title>Node9</title>
<g id="a_node9"><a xlink:title=" ">
<polygon fill="#e0e0e0" stroke="#999999" points="1692.5,-74 1634.5,-74 1634.5,-55 1692.5,-55 1692.5,-74"/>
<text text-anchor="middle" x="1663.5" y="-62" font-family="Helvetica,sans-Serif" font-size="10.00">wx/log.h</text>
</a>
</g>
</g>
<!-- Node7&#45;&gt;Node9 -->
<g id="edge8" class="edge">
<title>Node7&#45;&gt;Node9</title>
<path fill="none" stroke="#63b8ff" d="M1868.07,-164.85C1847.83,-152 1808.06,-127.51 1772.5,-110 1747.69,-97.78 1718.67,-86.05 1696.81,-77.7"/>
<polygon fill="#63b8ff" stroke="#63b8ff" points="1697.9,-74.38 1687.31,-74.12 1695.43,-80.93 1697.9,-74.38"/>
</g>
<!-- Node7&#45;&gt;Node10 -->
<g id="edge9" class="edge">
<title>Node7&#45;&gt;Node10</title>
<path fill="none" stroke="#63b8ff" d="M1910.16,-170.29C1982.95,-162.07 2173.66,-140.13 2236.5,-129 2237.96,-128.74 2239.45,-128.46 2240.95,-128.17"/>
<polygon fill="#63b8ff" stroke="#63b8ff" points="2241.81,-131.56 2250.88,-126.08 2240.37,-124.72 2241.81,-131.56"/>
</g>
<!-- Node11 -->
<g id="node11" class="node">
<title>Node11</title>
<g id="a_node11"><a xlink:title=" ">
<polygon fill="#e0e0e0" stroke="#999999" points="1954,-129 1901,-129 1901,-110 1954,-110 1954,-129"/>
<text text-anchor="middle" x="1927.5" y="-117" font-family="Helvetica,sans-Serif" font-size="10.00">cstddef</text>
</a>
</g>
</g>
<!-- Node7&#45;&gt;Node11 -->
<g id="edge10" class="edge">
<title>Node7&#45;&gt;Node11</title>
<path fill="none" stroke="#63b8ff" d="M1889.1,-164.75C1895.66,-157.18 1905.32,-146.05 1913.31,-136.84"/>
<polygon fill="#63b8ff" stroke="#63b8ff" points="1916.13,-138.94 1920.05,-129.09 1910.85,-134.35 1916.13,-138.94"/>
</g>
<!-- Node12 -->
<g id="node12" class="node">
<title>Node12</title>
<g id="a_node12"><a xlink:title=" ">
<polygon fill="#e0e0e0" stroke="#999999" points="1584.5,-19 1534.5,-19 1534.5,0 1584.5,0 1584.5,-19"/>
<text text-anchor="middle" x="1559.5" y="-7" font-family="Helvetica,sans-Serif" font-size="10.00">cstdint</text>
</a>
</g>
</g>
<!-- Node7&#45;&gt;Node12 -->
<g id="edge11" class="edge">
<title>Node7&#45;&gt;Node12</title>
<path fill="none" stroke="#63b8ff" d="M1909.12,-164.91C1939.36,-154.07 1981.23,-133.92 1962.5,-110 1916.81,-51.66 1684.48,-22.84 1594.85,-13.76"/>
<polygon fill="#63b8ff" stroke="#63b8ff" points="1594.94,-10.26 1584.64,-12.75 1594.25,-17.22 1594.94,-10.26"/>
</g>
<!-- Node13 -->
<g id="node13" class="node">
<title>Node13</title>
<g id="a_node13"><a xlink:title=" ">
<polygon fill="#e0e0e0" stroke="#999999" points="1882.5,-129 1820.5,-129 1820.5,-110 1882.5,-110 1882.5,-129"/>
<text text-anchor="middle" x="1851.5" y="-117" font-family="Helvetica,sans-Serif" font-size="10.00">cinttypes</text>
</a>
</g>
</g>
<!-- Node7&#45;&gt;Node13 -->
<g id="edge12" class="edge">
<title>Node7&#45;&gt;Node13</title>
<path fill="none" stroke="#63b8ff" d="M1876.55,-164.75C1872.44,-157.49 1866.47,-146.95 1861.4,-137.98"/>
<polygon fill="#63b8ff" stroke="#63b8ff" points="1864.33,-136.07 1856.36,-129.09 1858.24,-139.52 1864.33,-136.07"/>
</g>
<!-- Node7&#45;&gt;Node14 -->
<g id="edge14" class="edge">
<title>Node7&#45;&gt;Node14</title>
<path fill="none" stroke="#63b8ff" d="M1907.85,-164.98C1935.26,-156.13 1978.39,-142.19 2009.06,-132.28"/>
<polygon fill="#63b8ff" stroke="#63b8ff" points="2010.5,-135.49 2018.94,-129.08 2008.35,-128.83 2010.5,-135.49"/>
</g>
<!-- Node15&#45;&gt;Node3 -->
<g id="edge17" class="edge">
<title>Node15&#45;&gt;Node3</title>
<path fill="none" stroke="#63b8ff" d="M2039.87,-164.98C2072.35,-155.88 2123.97,-141.4 2159.45,-131.45"/>
<polygon fill="#63b8ff" stroke="#63b8ff" points="2160.77,-134.72 2169.45,-128.65 2158.88,-127.98 2160.77,-134.72"/>
</g>
<!-- Node15&#45;&gt;Node8 -->
<g id="edge16" class="edge">
<title>Node15&#45;&gt;Node8</title>
<path fill="none" stroke="#63b8ff" d="M1966.36,-165.39C1914.47,-155.64 1827.69,-139.33 1774.24,-129.28"/>
<polygon fill="#63b8ff" stroke="#63b8ff" points="1774.81,-125.83 1764.34,-127.42 1773.52,-132.71 1774.81,-125.83"/>
</g>
<!-- Node15&#45;&gt;Node14 -->
<g id="edge18" class="edge">
<title>Node15&#45;&gt;Node14</title>
<path fill="none" stroke="#63b8ff" d="M2015.44,-164.75C2020.48,-157.34 2027.84,-146.5 2034.01,-137.41"/>
<polygon fill="#63b8ff" stroke="#63b8ff" points="2036.94,-139.33 2039.67,-129.09 2031.15,-135.39 2036.94,-139.33"/>
</g>
<!-- Node16 -->
<g id="node16" class="node">
<title>Node16</title>
<g id="a_node16"><a xlink:title=" ">
<polygon fill="#e0e0e0" stroke="#999999" points="2151,-129 2098,-129 2098,-110 2151,-110 2151,-129"/>
<text text-anchor="middle" x="2124.5" y="-117" font-family="Helvetica,sans-Serif" font-size="10.00">iterator</text>
</a>
</g>
</g>
<!-- Node15&#45;&gt;Node16 -->
<g id="edge19" class="edge">
<title>Node15&#45;&gt;Node16</title>
<path fill="none" stroke="#63b8ff" d="M2027.98,-164.98C2046.48,-156.46 2075.18,-143.23 2096.48,-133.41"/>
<polygon fill="#63b8ff" stroke="#63b8ff" points="2098.07,-136.53 2105.69,-129.17 2095.14,-130.18 2098.07,-136.53"/>
</g>
<!-- Node17&#45;&gt;Node3 -->
<g id="edge49" class="edge">
<title>Node17&#45;&gt;Node3</title>
<path fill="none" stroke="#63b8ff" d="M663.32,-173.33C883.85,-172.31 1838.13,-165.91 2158.99,-128.72"/>
<polygon fill="#63b8ff" stroke="#63b8ff" points="2159.7,-132.16 2169.21,-127.49 2158.87,-125.21 2159.7,-132.16"/>
</g>
<!-- Node17&#45;&gt;Node5 -->
<g id="edge21" class="edge">
<title>Node17&#45;&gt;Node5</title>
<path fill="none" stroke="#63b8ff" d="M571.65,-174.06C459.8,-174.73 176.1,-172 93.5,-129 74.07,-118.88 58.97,-98.27 49.95,-83.26"/>
<polygon fill="#63b8ff" stroke="#63b8ff" points="52.89,-81.35 44.91,-74.38 46.8,-84.81 52.89,-81.35"/>
</g>
<!-- Node17&#45;&gt;Node12 -->
<g id="edge48" class="edge">
<title>Node17&#45;&gt;Node12</title>
<path fill="none" stroke="#63b8ff" d="M663.33,-173.17C804.48,-171.79 1231.16,-164.7 1364.5,-129 1382.74,-124.12 1384.62,-116.08 1402.5,-110 1481.8,-83.02 1534.23,-138.64 1587.5,-74 1599.05,-59.99 1587.29,-40.46 1575.67,-26.78"/>
<polygon fill="#63b8ff" stroke="#63b8ff" points="1577.99,-24.13 1568.66,-19.11 1572.83,-28.85 1577.99,-24.13"/>
</g>
<!-- Node18 -->
<g id="node18" class="node">
<title>Node18</title>
<g id="a_node18"><a xlink:title=" ">
<polygon fill="#e0e0e0" stroke="#999999" points="739,-129 682,-129 682,-110 739,-110 739,-129"/>
<text text-anchor="middle" x="710.5" y="-117" font-family="Helvetica,sans-Serif" font-size="10.00">wx/wx.h</text>
</a>
</g>
</g>
<!-- Node17&#45;&gt;Node18 -->
<g id="edge22" class="edge">
<title>Node17&#45;&gt;Node18</title>
<path fill="none" stroke="#63b8ff" d="M632.44,-164.98C647,-156.69 669.37,-143.94 686.43,-134.22"/>
<polygon fill="#63b8ff" stroke="#63b8ff" points="688.33,-137.16 695.29,-129.17 684.86,-131.08 688.33,-137.16"/>
</g>
<!-- Node19 -->
<g id="node19" class="node">
<title>Node19</title>
<g id="a_node19"><a xlink:title=" ">
<polygon fill="#e0e0e0" stroke="#999999" points="982.5,-74 910.5,-74 910.5,-55 982.5,-55 982.5,-74"/>
<text text-anchor="middle" x="946.5" y="-62" font-family="Helvetica,sans-Serif" font-size="10.00">wx/config.h</text>
</a>
</g>
</g>
<!-- Node17&#45;&gt;Node19 -->
<g id="edge23" class="edge">
<title>Node17&#45;&gt;Node19</title>
<path fill="none" stroke="#63b8ff" d="M622.27,-164.81C630.5,-150.72 648.78,-123.17 672.5,-110 762.19,-60.2 799.38,-91.32 900.5,-74 900.6,-73.98 900.7,-73.97 900.8,-73.95"/>
<polygon fill="#63b8ff" stroke="#63b8ff" points="901.11,-77.45 910.36,-72.27 899.9,-70.55 901.11,-77.45"/>
</g>
<!-- Node20 -->
<g id="node20" class="node">
<title>Node20</title>
<g id="a_node20"><a xlink:title=" ">
<polygon fill="#e0e0e0" stroke="#999999" points="834,-129 757,-129 757,-110 834,-110 834,-129"/>
<text text-anchor="middle" x="795.5" y="-117" font-family="Helvetica,sans-Serif" font-size="10.00">wx/display.h</text>
</a>
</g>
</g>
<!-- Node17&#45;&gt;Node20 -->
<g id="edge24" class="edge">
<title>Node17&#45;&gt;Node20</title>
<path fill="none" stroke="#63b8ff" d="M646.1,-164.98C676.11,-156.05 723.48,-141.94 756.82,-132.02"/>
<polygon fill="#63b8ff" stroke="#63b8ff" points="758.09,-135.29 766.68,-129.08 756.09,-128.58 758.09,-135.29"/>
</g>
<!-- Node21 -->
<g id="node21" class="node">
<title>Node21</title>
<g id="a_node21"><a xlink:title=" ">
<polygon fill="#e0e0e0" stroke="#999999" points="942.5,-129 852.5,-129 852.5,-110 942.5,-110 942.5,-129"/>
<text text-anchor="middle" x="897.5" y="-117" font-family="Helvetica,sans-Serif" font-size="10.00">wx/fontenum.h</text>
</a>
</g>
</g>
<!-- Node17&#45;&gt;Node21 -->
<g id="edge25" class="edge">
<title>Node17&#45;&gt;Node21</title>
<path fill="none" stroke="#63b8ff" d="M662.49,-164.98C711.43,-155.72 789.7,-140.9 842.32,-130.94"/>
<polygon fill="#63b8ff" stroke="#63b8ff" points="842.99,-134.38 852.16,-129.08 841.68,-127.5 842.99,-134.38"/>
</g>
<!-- Node22 -->
<g id="node22" class="node">
<title>Node22</title>
<g id="a_node22"><a xlink:title=" ">
<polygon fill="#e0e0e0" stroke="#999999" points="781.5,-74 693.5,-74 693.5,-55 781.5,-55 781.5,-74"/>
<text text-anchor="middle" x="737.5" y="-62" font-family="Helvetica,sans-Serif" font-size="10.00">wx/hashmap.h</text>
</a>
</g>
</g>
<!-- Node17&#45;&gt;Node22 -->
<g id="edge26" class="edge">
<title>Node17&#45;&gt;Node22</title>
<path fill="none" stroke="#63b8ff" d="M571.66,-173.96C446.84,-174.44 113.83,-170.2 169.5,-110 203.94,-72.75 547.96,-66.63 683.26,-65.66"/>
<polygon fill="#63b8ff" stroke="#63b8ff" points="683.42,-69.16 693.4,-65.6 683.38,-62.16 683.42,-69.16"/>
</g>
<!-- Node23 -->
<g id="node23" class="node">
<title>Node23</title>
<g id="a_node23"><a xlink:href="LoggingMessageDialog_8h.html" target="_top" xlink:title="This file declares a message dialog that sends its contents to the log message sink.">
<polygon fill="#fff0f0" stroke="red" points="1138,-129 961,-129 961,-110 1138,-110 1138,-129"/>
<text text-anchor="middle" x="1049.5" y="-117" font-family="Helvetica,sans-Serif" font-size="10.00">dialogs/LoggingMessageDialog.h</text>
</a>
</g>
</g>
<!-- Node17&#45;&gt;Node23 -->
<g id="edge27" class="edge">
<title>Node17&#45;&gt;Node23</title>
<path fill="none" stroke="#63b8ff" d="M663.32,-167.88C736.3,-158.93 879.84,-141.31 969.88,-130.27"/>
<polygon fill="#63b8ff" stroke="#63b8ff" points="970.54,-133.71 980.04,-129.02 969.69,-126.77 970.54,-133.71"/>
</g>
<!-- Node17&#45;&gt;Node25 -->
<g id="edge30" class="edge">
<title>Node17&#45;&gt;Node25</title>
<path fill="none" stroke="#63b8ff" d="M663.35,-170.28C763.08,-163.22 1007.16,-145.7 1211.5,-129 1223.62,-128.01 1236.59,-126.9 1248.95,-125.81"/>
<polygon fill="#63b8ff" stroke="#63b8ff" points="1249.51,-129.28 1259.17,-124.91 1248.9,-122.3 1249.51,-129.28"/>
</g>
<!-- Node17&#45;&gt;Node36 -->
<g id="edge55" class="edge">
<title>Node17&#45;&gt;Node36</title>
<path fill="none" stroke="#63b8ff" d="M571.88,-172.47C461.46,-169.51 186.88,-159.17 159.5,-129 153.82,-122.75 154.14,-116.52 159.5,-110 218.31,-38.49 512.38,-17.58 623.18,-12.19"/>
<polygon fill="#63b8ff" stroke="#63b8ff" points="623.49,-15.68 633.31,-11.71 623.16,-8.69 623.49,-15.68"/>
</g>
<!-- Node40 -->
<g id="node34" class="node">
<title>Node40</title>
<g id="a_node34"><a xlink:title=" ">
<polygon fill="#e0e0e0" stroke="#999999" points="892,-74 799,-74 799,-55 892,-55 892,-74"/>
<text text-anchor="middle" x="845.5" y="-62" font-family="Helvetica,sans-Serif" font-size="10.00">unordered_map</text>
</a>
</g>
</g>
<!-- Node17&#45;&gt;Node40 -->
<g id="edge51" class="edge">
<title>Node17&#45;&gt;Node40</title>
<path fill="none" stroke="#63b8ff" d="M571.6,-173.45C453.32,-172.53 150.88,-164.88 202.5,-110 245.64,-64.14 689.63,-79.68 788.64,-73.83"/>
<polygon fill="#63b8ff" stroke="#63b8ff" points="789.04,-77.31 798.73,-73.03 788.49,-70.33 789.04,-77.31"/>
</g>
<!-- Node41 -->
<g id="node35" class="node">
<title>Node41</title>
<g id="a_node35"><a xlink:title=" ">
<polygon fill="#e0e0e0" stroke="#999999" points="259.5,-129 211.5,-129 211.5,-110 259.5,-110 259.5,-129"/>
<text text-anchor="middle" x="235.5" y="-117" font-family="Helvetica,sans-Serif" font-size="10.00">mutex</text>
</a>
</g>
</g>
<!-- Node17&#45;&gt;Node41 -->
<g id="edge50" class="edge">
<title>Node17&#45;&gt;Node41</title>
<path fill="none" stroke="#63b8ff" d="M571.76,-169.51C506.69,-163.43 383.56,-150.44 269.52,-128.97"/>
<polygon fill="#63b8ff" stroke="#63b8ff" points="270.05,-125.51 259.57,-127.07 268.74,-132.38 270.05,-125.51"/>
</g>
<!-- Node42 -->
<g id="node36" class="node">
<title>Node42</title>
<g id="a_node36"><a xlink:title=" ">
<polygon fill="#e0e0e0" stroke="#999999" points="331.5,-129 277.5,-129 277.5,-110 331.5,-110 331.5,-129"/>
<text text-anchor="middle" x="304.5" y="-117" font-family="Helvetica,sans-Serif" font-size="10.00">random</text>
</a>
</g>
</g>
<!-- Node17&#45;&gt;Node42 -->
<g id="edge52" class="edge">
<title>Node17&#45;&gt;Node42</title>
<path fill="none" stroke="#63b8ff" d="M571.73,-167.19C518.71,-159.64 428.49,-146.1 341.61,-129.1"/>
<polygon fill="#63b8ff" stroke="#63b8ff" points="342.07,-125.62 331.58,-127.12 340.71,-132.49 342.07,-125.62"/>
</g>
<!-- Node39 -->
<g id="node37" class="node">
<title>Node39</title>
<g id="a_node37"><a xlink:title=" ">
<polygon fill="#e0e0e0" stroke="#999999" points="381.5,-129 349.5,-129 349.5,-110 381.5,-110 381.5,-129"/>
<text text-anchor="middle" x="365.5" y="-117" font-family="Helvetica,sans-Serif" font-size="10.00">list</text>
</a>
</g>
</g>
<!-- Node17&#45;&gt;Node39 -->
<g id="edge53" class="edge">
<title>Node17&#45;&gt;Node39</title>
<path fill="none" stroke="#63b8ff" d="M571.87,-166.41C527.9,-159.16 459.38,-146.79 391.54,-128.98"/>
<polygon fill="#63b8ff" stroke="#63b8ff" points="392.1,-125.5 381.54,-126.31 390.3,-132.27 392.1,-125.5"/>
</g>
<!-- Node17&#45;&gt;Node43 -->
<g id="edge54" class="edge">
<title>Node17&#45;&gt;Node43</title>
<path fill="none" stroke="#63b8ff" d="M663.11,-172.24C753.46,-169.2 961.61,-159.42 1145.68,-128.82"/>
<polygon fill="#63b8ff" stroke="#63b8ff" points="1146.53,-132.23 1155.81,-127.11 1145.37,-125.32 1146.53,-132.23"/>
</g>
<!-- Node44 -->
<g id="node39" class="node">
<title>Node44</title>
<g id="a_node39"><a xlink:title=" ">
<polygon fill="#e0e0e0" stroke="#999999" points="449.5,-129 399.5,-129 399.5,-110 449.5,-110 449.5,-129"/>
<text text-anchor="middle" x="424.5" y="-117" font-family="Helvetica,sans-Serif" font-size="10.00">atomic</text>
</a>
</g>
</g>
<!-- Node17&#45;&gt;Node44 -->
<g id="edge56" class="edge">
<title>Node17&#45;&gt;Node44</title>
<path fill="none" stroke="#63b8ff" d="M586.49,-164.98C551.72,-155.44 495.47,-139.99 459.24,-130.04"/>
<polygon fill="#63b8ff" stroke="#63b8ff" points="460.16,-126.66 449.59,-127.39 458.31,-133.41 460.16,-126.66"/>
</g>
<!-- Node45 -->
<g id="node40" class="node">
<title>Node45</title>
<g id="a_node40"><a xlink:title=" ">
<polygon fill="#e0e0e0" stroke="#999999" points="517.5,-129 467.5,-129 467.5,-110 517.5,-110 517.5,-129"/>
<text text-anchor="middle" x="492.5" y="-117" font-family="Helvetica,sans-Serif" font-size="10.00">chrono</text>
</a>
</g>
</g>
<!-- Node17&#45;&gt;Node45 -->
<g id="edge57" class="edge">
<title>Node17&#45;&gt;Node45</title>
<path fill="none" stroke="#63b8ff" d="M597.42,-164.98C577.13,-156.38 545.54,-142.99 522.33,-133.15"/>
<polygon fill="#63b8ff" stroke="#63b8ff" points="523.52,-129.85 512.95,-129.17 520.79,-136.3 523.52,-129.85"/>
</g>
<!-- Node46 -->
<g id="node41" class="node">
<title>Node46</title>
<g id="a_node41"><a xlink:title=" ">
<polygon fill="#e0e0e0" stroke="#999999" points="625,-129 536,-129 536,-110 625,-110 625,-129"/>
<text text-anchor="middle" x="580.5" y="-117" font-family="Helvetica,sans-Serif" font-size="10.00">wx/wupdlock.h</text>
</a>
</g>
</g>
<!-- Node17&#45;&gt;Node46 -->
<g id="edge58" class="edge">
<title>Node17&#45;&gt;Node46</title>
<path fill="none" stroke="#63b8ff" d="M611.39,-164.75C606.22,-157.34 598.65,-146.5 592.31,-137.41"/>
<polygon fill="#63b8ff" stroke="#63b8ff" points="595.09,-135.29 586.5,-129.09 589.35,-139.29 595.09,-135.29"/>
</g>
<!-- Node23&#45;&gt;Node5 -->
<g id="edge28" class="edge">
<title>Node23&#45;&gt;Node5</title>
<path fill="none" stroke="#63b8ff" d="M960.84,-110.66C957.69,-110.43 954.57,-110.21 951.5,-110 622.38,-87.7 225.64,-72.22 89.28,-67.23"/>
<polygon fill="#63b8ff" stroke="#63b8ff" points="89.28,-63.73 79.16,-66.87 89.02,-70.73 89.28,-63.73"/>
</g>
<!-- Node23&#45;&gt;Node9 -->
<g id="edge29" class="edge">
<title>Node23&#45;&gt;Node9</title>
<path fill="none" stroke="#63b8ff" d="M1138.05,-110.72C1140.9,-110.48 1143.72,-110.24 1146.5,-110 1342.45,-93.42 1391.76,-92.93 1587.5,-74 1599.46,-72.84 1612.46,-71.44 1624.27,-70.11"/>
<polygon fill="#63b8ff" stroke="#63b8ff" points="1624.75,-73.58 1634.29,-68.97 1623.96,-66.63 1624.75,-73.58"/>
</g>
<!-- Node25&#45;&gt;Node5 -->
<g id="edge31" class="edge">
<title>Node25&#45;&gt;Node5</title>
<path fill="none" stroke="#63b8ff" d="M1259.19,-113.74C1243.95,-112.37 1227.03,-110.98 1211.5,-110 776.64,-82.5 249.79,-69.87 89.24,-66.47"/>
<polygon fill="#63b8ff" stroke="#63b8ff" points="89.27,-62.97 79.2,-66.26 89.12,-69.97 89.27,-62.97"/>
</g>
<!-- Node25&#45;&gt;Node12 -->
<g id="edge40" class="edge">
<title>Node25&#45;&gt;Node12</title>
<path fill="none" stroke="#63b8ff" d="M1355.76,-110.17C1389.32,-103.25 1434.49,-91.65 1471.5,-74 1498.14,-61.29 1525.14,-40.35 1542.07,-26.02"/>
<polygon fill="#63b8ff" stroke="#63b8ff" points="1544.68,-28.39 1549.96,-19.2 1540.1,-23.09 1544.68,-28.39"/>
</g>
<!-- Node25&#45;&gt;Node19 -->
<g id="edge37" class="edge">
<title>Node25&#45;&gt;Node19</title>
<path fill="none" stroke="#63b8ff" d="M1259.3,-111.76C1185.05,-101.35 1046.08,-81.76 996.5,-74 995.23,-73.8 993.94,-73.6 992.64,-73.39"/>
<polygon fill="#63b8ff" stroke="#63b8ff" points="992.96,-69.9 982.53,-71.74 991.84,-76.81 992.96,-69.9"/>
</g>
<!-- Node25&#45;&gt;Node22 -->
<g id="edge34" class="edge">
<title>Node25&#45;&gt;Node22</title>
<path fill="none" stroke="#63b8ff" d="M1259.47,-111.64C1254.75,-111.05 1250.04,-110.49 1245.5,-110 1046.63,-88.54 993.04,-98.1 791.73,-74.19"/>
<polygon fill="#63b8ff" stroke="#63b8ff" points="792.06,-70.7 781.72,-72.99 791.23,-77.65 792.06,-70.7"/>
</g>
<!-- Node26 -->
<g id="node25" class="node">
<title>Node26</title>
<g id="a_node25"><a xlink:title=" ">
<polygon fill="#e0e0e0" stroke="#999999" points="1110.5,-74 1038.5,-74 1038.5,-55 1110.5,-55 1110.5,-74"/>
<text text-anchor="middle" x="1074.5" y="-62" font-family="Helvetica,sans-Serif" font-size="10.00">wx/colour.h</text>
</a>
</g>
</g>
<!-- Node25&#45;&gt;Node26 -->
<g id="edge32" class="edge">
<title>Node25&#45;&gt;Node26</title>
<path fill="none" stroke="#63b8ff" d="M1270.06,-109.98C1229.37,-100.73 1164.3,-85.93 1120.52,-75.97"/>
<polygon fill="#63b8ff" stroke="#63b8ff" points="1121.22,-72.54 1110.69,-73.73 1119.67,-79.36 1121.22,-72.54"/>
</g>
<!-- Node25&#45;&gt;Node27 -->
<g id="edge33" class="edge">
<title>Node25&#45;&gt;Node27</title>
<path fill="none" stroke="#63b8ff" d="M1352.95,-109.98C1397.34,-101.48 1466.76,-87.75 1526.5,-74 1527.76,-73.71 1529.06,-73.41 1530.36,-73.09"/>
<polygon fill="#63b8ff" stroke="#63b8ff" points="1531.48,-76.42 1540.35,-70.61 1529.8,-69.63 1531.48,-76.42"/>
</g>
<!-- Node28 -->
<g id="node27" class="node">
<title>Node28</title>
<g id="a_node27"><a xlink:title=" ">
<polygon fill="#e0e0e0" stroke="#999999" points="1172.5,-74 1128.5,-74 1128.5,-55 1172.5,-55 1172.5,-74"/>
<text text-anchor="middle" x="1150.5" y="-62" font-family="Helvetica,sans-Serif" font-size="10.00">string</text>
</a>
</g>
</g>
<!-- Node25&#45;&gt;Node28 -->
<g id="edge35" class="edge">
<title>Node25&#45;&gt;Node28</title>
<path fill="none" stroke="#63b8ff" d="M1282.28,-109.98C1255.14,-100.82 1211.91,-86.23 1182.43,-76.28"/>
<polygon fill="#63b8ff" stroke="#63b8ff" points="1183.21,-72.85 1172.62,-72.97 1180.97,-79.48 1183.21,-72.85"/>
</g>
<!-- Node29 -->
<g id="node28" class="node">
<title>Node29</title>
<g id="a_node28"><a xlink:title=" ">
<polygon fill="#e0e0e0" stroke="#999999" points="1248,-74 1191,-74 1191,-55 1248,-55 1248,-74"/>
<text text-anchor="middle" x="1219.5" y="-62" font-family="Helvetica,sans-Serif" font-size="10.00">ostream</text>
</a>
</g>
</g>
<!-- Node25&#45;&gt;Node29 -->
<g id="edge36" class="edge">
<title>Node25&#45;&gt;Node29</title>
<path fill="none" stroke="#63b8ff" d="M1293.36,-109.98C1279.71,-101.77 1258.81,-89.18 1242.72,-79.49"/>
<polygon fill="#63b8ff" stroke="#63b8ff" points="1244.27,-76.33 1233.9,-74.17 1240.66,-82.33 1244.27,-76.33"/>
</g>
<!-- Node30 -->
<g id="node29" class="node">
<title>Node30</title>
<g id="a_node29"><a xlink:title=" ">
<polygon fill="#e0e0e0" stroke="#999999" points="1198.5,-19 1136.5,-19 1136.5,0 1198.5,0 1198.5,-19"/>
<text text-anchor="middle" x="1167.5" y="-7" font-family="Helvetica,sans-Serif" font-size="10.00">wx/font.h</text>
</a>
</g>
</g>
<!-- Node25&#45;&gt;Node30 -->
<g id="edge38" class="edge">
<title>Node25&#45;&gt;Node30</title>
<path fill="none" stroke="#63b8ff" d="M1259.24,-111.58C1180.62,-100.2 1033.22,-78.36 1029.5,-74 999.48,-38.8 1075.4,-22.02 1126.16,-14.95"/>
<polygon fill="#63b8ff" stroke="#63b8ff" points="1126.8,-18.4 1136.25,-13.62 1125.88,-11.46 1126.8,-18.4"/>
</g>
<!-- Node31 -->
<g id="node30" class="node">
<title>Node31</title>
<g id="a_node30"><a xlink:title=" ">
<polygon fill="#e0e0e0" stroke="#999999" points="1348.5,-74 1266.5,-74 1266.5,-55 1348.5,-55 1348.5,-74"/>
<text text-anchor="middle" x="1307.5" y="-62" font-family="Helvetica,sans-Serif" font-size="10.00">wx/settings.h</text>
</a>
</g>
</g>
<!-- Node25&#45;&gt;Node31 -->
<g id="edge39" class="edge">
<title>Node25&#45;&gt;Node31</title>
<path fill="none" stroke="#63b8ff" d="M1307.5,-109.75C1307.5,-102.8 1307.5,-92.85 1307.5,-84.13"/>
<polygon fill="#63b8ff" stroke="#63b8ff" points="1311,-84.09 1307.5,-74.09 1304,-84.09 1311,-84.09"/>
</g>
<!-- Node32 -->
<g id="node31" class="node">
<title>Node32</title>
<g id="a_node31"><a xlink:title=" ">
<polygon fill="#e0e0e0" stroke="#999999" points="1473,-19 1408,-19 1408,0 1473,0 1473,-19"/>
<text text-anchor="middle" x="1440.5" y="-7" font-family="Helvetica,sans-Serif" font-size="10.00">functional</text>
</a>
</g>
</g>
<!-- Node25&#45;&gt;Node32 -->
<g id="edge41" class="edge">
<title>Node25&#45;&gt;Node32</title>
<path fill="none" stroke="#63b8ff" d="M1355.73,-110.27C1393.84,-102.66 1442.54,-90.11 1454.5,-74 1464.35,-60.72 1458.35,-41.86 1451.41,-28.14"/>
<polygon fill="#63b8ff" stroke="#63b8ff" points="1454.35,-26.22 1446.4,-19.21 1448.24,-29.65 1454.35,-26.22"/>
</g>
<!-- Node33 -->
<g id="node32" class="node">
<title>Node33</title>
<g id="a_node32"><a xlink:href="FontAttribs_8h_source.html" target="_top" xlink:title=" ">
<polygon fill="#fff0f0" stroke="red" points="1446,-74 1367,-74 1367,-55 1446,-55 1446,-74"/>
<text text-anchor="middle" x="1406.5" y="-62" font-family="Helvetica,sans-Serif" font-size="10.00">FontAttribs.h</text>
</a>
</g>
</g>
<!-- Node25&#45;&gt;Node33 -->
<g id="edge42" class="edge">
<title>Node25&#45;&gt;Node33</title>
<path fill="none" stroke="#63b8ff" d="M1323.41,-109.98C1339.05,-101.61 1363.16,-88.7 1381.38,-78.95"/>
<polygon fill="#63b8ff" stroke="#63b8ff" points="1383.14,-81.98 1390.3,-74.17 1379.84,-75.8 1383.14,-81.98"/>
</g>
<!-- Node25&#45;&gt;Node40 -->
<g id="edge47" class="edge">
<title>Node25&#45;&gt;Node40</title>
<path fill="none" stroke="#63b8ff" d="M1259.46,-111.76C1254.74,-111.14 1250.03,-110.55 1245.5,-110 1096.17,-91.95 1055.7,-93.46 902.49,-74.07"/>
<polygon fill="#63b8ff" stroke="#63b8ff" points="902.59,-70.55 892.23,-72.76 901.7,-77.5 902.59,-70.55"/>
</g>
<!-- Node33&#45;&gt;Node12 -->
<g id="edge45" class="edge">
<title>Node33&#45;&gt;Node12</title>
<path fill="none" stroke="#63b8ff" d="M1431.08,-54.98C1456.55,-46.16 1496.54,-32.31 1525.13,-22.41"/>
<polygon fill="#63b8ff" stroke="#63b8ff" points="1526.42,-25.66 1534.73,-19.08 1524.13,-19.05 1526.42,-25.66"/>
</g>
<!-- Node33&#45;&gt;Node30 -->
<g id="edge43" class="edge">
<title>Node33&#45;&gt;Node30</title>
<path fill="none" stroke="#63b8ff" d="M1368.1,-54.98C1324.4,-45.29 1253.29,-29.53 1208.53,-19.6"/>
<polygon fill="#63b8ff" stroke="#63b8ff" points="1209.09,-16.14 1198.57,-17.39 1207.58,-22.97 1209.09,-16.14"/>
</g>
<!-- Node33&#45;&gt;Node32 -->
<g id="edge46" class="edge">
<title>Node33&#45;&gt;Node32</title>
<path fill="none" stroke="#63b8ff" d="M1412.11,-54.75C1416.82,-47.42 1423.67,-36.73 1429.47,-27.7"/>
<polygon fill="#63b8ff" stroke="#63b8ff" points="1432.54,-29.4 1434.99,-19.09 1426.64,-25.62 1432.54,-29.4"/>
</g>
<!-- Node33&#45;&gt;Node36 -->
<g id="edge44" class="edge">
<title>Node33&#45;&gt;Node36</title>
<path fill="none" stroke="#63b8ff" d="M1366.97,-56.27C1363.77,-55.8 1360.59,-55.37 1357.5,-55 1112.51,-25.96 816.32,-14.9 707.89,-11.64"/>
<polygon fill="#63b8ff" stroke="#63b8ff" points="707.79,-8.13 697.69,-11.34 707.58,-15.13 707.79,-8.13"/>
</g>
<!-- Node48 -->
<g id="node43" class="node">
<title>Node48</title>
<g id="a_node43"><a xlink:title=" ">
<polygon fill="#e0e0e0" stroke="#999999" points="1596,-129 1525,-129 1525,-110 1596,-110 1596,-129"/>
<text text-anchor="middle" x="1560.5" y="-117" font-family="Helvetica,sans-Serif" font-size="10.00">wx/string.h</text>
</a>
</g>
</g>
<!-- Node47&#45;&gt;Node48 -->
<g id="edge60" class="edge">
<title>Node47&#45;&gt;Node48</title>
<path fill="none" stroke="#63b8ff" d="M1558,-164.75C1558.39,-157.8 1558.95,-147.85 1559.45,-139.13"/>
<polygon fill="#63b8ff" stroke="#63b8ff" points="1562.94,-139.27 1560.01,-129.09 1555.95,-138.88 1562.94,-139.27"/>
</g>
<!-- Node49 -->
<g id="node44" class="node">
<title>Node49</title>
<g id="a_node44"><a xlink:title=" ">
<polygon fill="#e0e0e0" stroke="#999999" points="1507,-129 1412,-129 1412,-110 1507,-110 1507,-129"/>
<text text-anchor="middle" x="1459.5" y="-117" font-family="Helvetica,sans-Serif" font-size="10.00">wx/translation.h</text>
</a>
</g>
</g>
<!-- Node47&#45;&gt;Node49 -->
<g id="edge61" class="edge">
<title>Node47&#45;&gt;Node49</title>
<path fill="none" stroke="#63b8ff" d="M1541.75,-164.98C1526.27,-156.61 1502.41,-143.7 1484.36,-133.95"/>
<polygon fill="#63b8ff" stroke="#63b8ff" points="1485.99,-130.85 1475.53,-129.17 1482.66,-137.01 1485.99,-130.85"/>
</g>
<!-- Node50&#45;&gt;Node8 -->
<g id="edge64" class="edge">
<title>Node50&#45;&gt;Node8</title>
<path fill="none" stroke="#63b8ff" d="M1704.96,-164.75C1708.62,-157.57 1713.91,-147.18 1718.45,-138.27"/>
<polygon fill="#63b8ff" stroke="#63b8ff" points="1721.7,-139.59 1723.12,-129.09 1715.47,-136.41 1721.7,-139.59"/>
</g>
<!-- Node50&#45;&gt;Node9 -->
<g id="edge65" class="edge">
<title>Node50&#45;&gt;Node9</title>
<path fill="none" stroke="#63b8ff" d="M1696.38,-164.77C1692.28,-155.89 1685.98,-141.67 1681.5,-129 1676.24,-114.13 1671.43,-96.89 1668.11,-84.13"/>
<polygon fill="#63b8ff" stroke="#63b8ff" points="1671.45,-83.07 1665.6,-74.24 1664.67,-84.79 1671.45,-83.07"/>
</g>
<!-- Node50&#45;&gt;Node14 -->
<g id="edge66" class="edge">
<title>Node50&#45;&gt;Node14</title>
<path fill="none" stroke="#63b8ff" d="M1745.29,-166.43C1748.4,-165.95 1751.5,-165.47 1754.5,-165 1841.51,-151.5 1943.2,-136.02 2000.4,-127.33"/>
<polygon fill="#63b8ff" stroke="#63b8ff" points="2001.19,-130.75 2010.55,-125.79 2000.14,-123.83 2001.19,-130.75"/>
</g>
<!-- Node52&#45;&gt;Node4 -->
<g id="edge75" class="edge">
<title>Node52&#45;&gt;Node4</title>
<path fill="none" stroke="#63b8ff" d="M1675.45,-274.75C1679.56,-267.49 1685.53,-256.95 1690.6,-247.98"/>
<polygon fill="#63b8ff" stroke="#63b8ff" points="1693.76,-249.52 1695.64,-239.09 1687.67,-246.07 1693.76,-249.52"/>
</g>
<!-- Node53 -->
<g id="node48" class="node">
<title>Node53</title>
<g id="a_node48"><a xlink:title=" ">
<polygon fill="#e0e0e0" stroke="#999999" points="1660,-239 1589,-239 1589,-220 1660,-220 1660,-239"/>
<text text-anchor="middle" x="1624.5" y="-227" font-family="Helvetica,sans-Serif" font-size="10.00">wx/regex.h</text>
</a>
</g>
</g>
<!-- Node52&#45;&gt;Node53 -->
<g id="edge74" class="edge">
<title>Node52&#45;&gt;Node53</title>
<path fill="none" stroke="#63b8ff" d="M1662.9,-274.75C1656.34,-267.18 1646.68,-256.05 1638.69,-246.84"/>
<polygon fill="#63b8ff" stroke="#63b8ff" points="1641.15,-244.35 1631.95,-239.09 1635.87,-248.94 1641.15,-244.35"/>
</g>
<!-- Node54&#45;&gt;Node4 -->
<g id="edge77" class="edge">
<title>Node54&#45;&gt;Node4</title>
<path fill="none" stroke="#63b8ff" d="M1780.24,-274.98C1765.37,-266.69 1742.52,-253.94 1725.08,-244.22"/>
<polygon fill="#63b8ff" stroke="#63b8ff" points="1726.48,-240.99 1716.04,-239.17 1723.07,-247.1 1726.48,-240.99"/>
</g>
<!-- Node55&#45;&gt;Node3 -->
<g id="edge79" class="edge">
<title>Node55&#45;&gt;Node3</title>
<path fill="none" stroke="#63b8ff" d="M2216.76,-329.95C2213.97,-297.95 2204.09,-184.68 2200.15,-139.4"/>
<polygon fill="#63b8ff" stroke="#63b8ff" points="2203.62,-138.88 2199.26,-129.22 2196.64,-139.49 2203.62,-138.88"/>
</g>
</g>
</svg>
