<?xml version="1.0" encoding="UTF-8" standalone="no"?>
<!DOCTYPE svg PUBLIC "-//W3C//DTD SVG 1.1//EN"
 "http://www.w3.org/Graphics/SVG/1.1/DTD/svg11.dtd">
<!-- Generated by graphviz version 2.43.0 (0)
 -->
<!-- Title: src/cells/FunCell.cpp Pages: 1 -->
<svg width="2147pt" height="412pt"
 viewBox="0.00 0.00 2147.28 412.00" xmlns="http://www.w3.org/2000/svg" xmlns:xlink="http://www.w3.org/1999/xlink">
<g id="graph0" class="graph" transform="scale(1 1) rotate(0) translate(4 408)">
<title>src/cells/FunCell.cpp</title>
<!-- Node1 -->
<g id="node1" class="node">
<title>Node1</title>
<g id="a_node1"><a xlink:title="This file defines the class FunCell.">
<polygon fill="#999999" stroke="#666666" points="209,-404 93,-404 93,-385 209,-385 209,-404"/>
<text text-anchor="middle" x="151" y="-392" font-family="Helvetica,sans-Serif" font-size="10.00">src/cells/FunCell.cpp</text>
</a>
</g>
</g>
<!-- Node2 -->
<g id="node2" class="node">
<title>Node2</title>
<g id="a_node2"><a xlink:href="FunCell_8h.html" target="_top" xlink:title="This file declares the class FunCell() that represents a maxima function.">
<polygon fill="white" stroke="#666666" points="241,-349 179,-349 179,-330 241,-330 241,-349"/>
<text text-anchor="middle" x="210" y="-337" font-family="Helvetica,sans-Serif" font-size="10.00">FunCell.h</text>
</a>
</g>
</g>
<!-- Node1&#45;&gt;Node2 -->
<g id="edge1" class="edge">
<title>Node1&#45;&gt;Node2</title>
<path fill="none" stroke="#63b8ff" d="M160.48,-384.98C169.2,-377.15 182.34,-365.34 192.9,-355.86"/>
<polygon fill="#63b8ff" stroke="#63b8ff" points="195.25,-358.46 200.35,-349.17 190.57,-353.25 195.25,-358.46"/>
</g>
<!-- Node9 -->
<g id="node9" class="node">
<title>Node9</title>
<g id="a_node9"><a xlink:title=" ">
<polygon fill="#e0e0e0" stroke="#999999" points="736.5,-74 691.5,-74 691.5,-55 736.5,-55 736.5,-74"/>
<text text-anchor="middle" x="714" y="-62" font-family="Helvetica,sans-Serif" font-size="10.00">utility</text>
</a>
</g>
</g>
<!-- Node1&#45;&gt;Node9 -->
<g id="edge87" class="edge">
<title>Node1&#45;&gt;Node9</title>
<path fill="none" stroke="#63b8ff" d="M150.78,-384.56C150.45,-349.63 154.38,-221.44 227,-165 303.06,-105.89 573.12,-172.63 659,-129 678.84,-118.92 694.57,-98.3 704.04,-83.28"/>
<polygon fill="#63b8ff" stroke="#63b8ff" points="707.22,-84.77 709.34,-74.39 701.21,-81.19 707.22,-84.77"/>
</g>
<!-- Node13 -->
<g id="node13" class="node">
<title>Node13</title>
<g id="a_node13"><a xlink:title=" ">
<polygon fill="#e0e0e0" stroke="#999999" points="195,-74 137,-74 137,-55 195,-55 195,-74"/>
<text text-anchor="middle" x="166" y="-62" font-family="Helvetica,sans-Serif" font-size="10.00">memory</text>
</a>
</g>
</g>
<!-- Node1&#45;&gt;Node13 -->
<g id="edge88" class="edge">
<title>Node1&#45;&gt;Node13</title>
<path fill="none" stroke="#63b8ff" d="M142.59,-384.8C126.73,-367.44 94,-326.63 94,-285.5 94,-285.5 94,-285.5 94,-173.5 94,-135.1 125.89,-99.98 147.23,-80.78"/>
<polygon fill="#63b8ff" stroke="#63b8ff" points="149.79,-83.19 155.06,-74 145.21,-77.89 149.79,-83.19"/>
</g>
<!-- Node53 -->
<g id="node48" class="node">
<title>Node53</title>
<g id="a_node48"><a xlink:href="CellImpl_8h.html" target="_top" xlink:title="Macros and types used only by cell implementations, not by cell users.">
<polygon fill="white" stroke="#666666" points="66,-294 0,-294 0,-275 66,-275 66,-294"/>
<text text-anchor="middle" x="33" y="-282" font-family="Helvetica,sans-Serif" font-size="10.00">CellImpl.h</text>
</a>
</g>
</g>
<!-- Node1&#45;&gt;Node53 -->
<g id="edge82" class="edge">
<title>Node1&#45;&gt;Node53</title>
<path fill="none" stroke="#63b8ff" d="M133.4,-384.87C118.22,-376.89 96.23,-364.02 80,-349 65.26,-335.36 52,-316.54 43.36,-302.94"/>
<polygon fill="#63b8ff" stroke="#63b8ff" points="46.14,-300.78 37.92,-294.1 40.18,-304.45 46.14,-300.78"/>
</g>
<!-- Node54 -->
<g id="node49" class="node">
<title>Node54</title>
<g id="a_node49"><a xlink:href="TextCell_8h_source.html" target="_top" xlink:title=" ">
<polygon fill="white" stroke="#666666" points="557.5,-349 492.5,-349 492.5,-330 557.5,-330 557.5,-349"/>
<text text-anchor="middle" x="525" y="-337" font-family="Helvetica,sans-Serif" font-size="10.00">TextCell.h</text>
</a>
</g>
</g>
<!-- Node1&#45;&gt;Node54 -->
<g id="edge84" class="edge">
<title>Node1&#45;&gt;Node54</title>
<path fill="none" stroke="#63b8ff" d="M209.03,-385.28C284.59,-374.57 414.94,-356.1 482.16,-346.57"/>
<polygon fill="#63b8ff" stroke="#63b8ff" points="482.98,-349.99 492.39,-345.12 481.99,-343.06 482.98,-349.99"/>
</g>
<!-- Node3 -->
<g id="node3" class="node">
<title>Node3</title>
<g id="a_node3"><a xlink:href="Cell_8h.html" target="_top" xlink:title="The definition of the base class of all cells the worksheet consists of.">
<polygon fill="white" stroke="#666666" points="547,-294 503,-294 503,-275 547,-275 547,-294"/>
<text text-anchor="middle" x="525" y="-282" font-family="Helvetica,sans-Serif" font-size="10.00">Cell.h</text>
</a>
</g>
</g>
<!-- Node2&#45;&gt;Node3 -->
<g id="edge2" class="edge">
<title>Node2&#45;&gt;Node3</title>
<path fill="none" stroke="#63b8ff" d="M241.07,-333.27C300.95,-323.2 431.82,-301.18 492.68,-290.94"/>
<polygon fill="#63b8ff" stroke="#63b8ff" points="493.58,-294.34 502.86,-289.23 492.42,-287.43 493.58,-294.34"/>
</g>
<!-- Node2&#45;&gt;Node13 -->
<g id="edge81" class="edge">
<title>Node2&#45;&gt;Node13</title>
<path fill="none" stroke="#63b8ff" d="M208.24,-329.75C202.53,-301.07 184.21,-207.24 173,-129 170.86,-114.04 169.01,-97.01 167.75,-84.36"/>
<polygon fill="#63b8ff" stroke="#63b8ff" points="171.21,-83.77 166.77,-74.15 164.25,-84.44 171.21,-83.77"/>
</g>
<!-- Node4 -->
<g id="node4" class="node">
<title>Node4</title>
<g id="a_node4"><a xlink:href="precomp_8h_source.html" target="_top" xlink:title=" ">
<polygon fill="white" stroke="#666666" points="1529.5,-74 1452.5,-74 1452.5,-55 1529.5,-55 1529.5,-74"/>
<text text-anchor="middle" x="1491" y="-62" font-family="Helvetica,sans-Serif" font-size="10.00">../precomp.h</text>
</a>
</g>
</g>
<!-- Node3&#45;&gt;Node4 -->
<g id="edge3" class="edge">
<title>Node3&#45;&gt;Node4</title>
<path fill="none" stroke="#63b8ff" d="M547.25,-276.9C550.49,-276.14 553.82,-275.47 557,-275 1021.11,-206.34 1146.26,-295.58 1612,-239 1847.36,-210.41 1984.63,-313.13 2134,-129 2139.32,-122.44 2139.79,-116.15 2134,-110 2090.29,-63.56 1640.08,-80.4 1539.72,-73.64"/>
<polygon fill="#63b8ff" stroke="#63b8ff" points="1539.99,-70.15 1529.72,-72.75 1539.37,-77.12 1539.99,-70.15"/>
</g>
<!-- Node6 -->
<g id="node6" class="node">
<title>Node6</title>
<g id="a_node6"><a xlink:href="CellPtr_8h.html" target="_top" xlink:title="Implementation of an observing weak Cell pointer.">
<polygon fill="white" stroke="#666666" points="503.5,-129 446.5,-129 446.5,-110 503.5,-110 503.5,-129"/>
<text text-anchor="middle" x="475" y="-117" font-family="Helvetica,sans-Serif" font-size="10.00">CellPtr.h</text>
</a>
</g>
</g>
<!-- Node3&#45;&gt;Node6 -->
<g id="edge5" class="edge">
<title>Node3&#45;&gt;Node6</title>
<path fill="none" stroke="#63b8ff" d="M502.9,-283.81C471.01,-282.91 412.96,-275.94 386,-239 381.02,-232.18 382.43,-227.65 386,-220 396.55,-197.42 412,-202.23 429,-184 442.45,-169.58 455.4,-151.15 464.12,-137.86"/>
<polygon fill="#63b8ff" stroke="#63b8ff" points="467.2,-139.53 469.66,-129.23 461.31,-135.75 467.2,-139.53"/>
</g>
<!-- Node3&#45;&gt;Node13 -->
<g id="edge78" class="edge">
<title>Node3&#45;&gt;Node13</title>
<path fill="none" stroke="#63b8ff" d="M502.8,-282.46C445.06,-279.35 291.88,-268.45 252,-239 199.53,-200.25 177.2,-120.59 169.46,-84.28"/>
<polygon fill="#63b8ff" stroke="#63b8ff" points="172.82,-83.25 167.44,-74.12 165.95,-84.61 172.82,-83.25"/>
</g>
<!-- Node14 -->
<g id="node14" class="node">
<title>Node14</title>
<g id="a_node14"><a xlink:title=" ">
<polygon fill="#e0e0e0" stroke="#999999" points="596.5,-74 527.5,-74 527.5,-55 596.5,-55 596.5,-74"/>
<text text-anchor="middle" x="562" y="-62" font-family="Helvetica,sans-Serif" font-size="10.00">type_traits</text>
</a>
</g>
</g>
<!-- Node3&#45;&gt;Node14 -->
<g id="edge80" class="edge">
<title>Node3&#45;&gt;Node14</title>
<path fill="none" stroke="#63b8ff" d="M526.14,-274.8C529.54,-249.35 540.05,-172.89 552,-110 553.63,-101.44 555.7,-92.02 557.54,-84.06"/>
<polygon fill="#63b8ff" stroke="#63b8ff" points="560.94,-84.87 559.83,-74.33 554.13,-83.26 560.94,-84.87"/>
</g>
<!-- Node15 -->
<g id="node15" class="node">
<title>Node15</title>
<g id="a_node15"><a xlink:href="CellIterators_8h.html" target="_top" xlink:title="Declares the various iterators useful with the Cell class.">
<polygon fill="white" stroke="#666666" points="428,-129 342,-129 342,-110 428,-110 428,-129"/>
<text text-anchor="middle" x="385" y="-117" font-family="Helvetica,sans-Serif" font-size="10.00">CellIterators.h</text>
</a>
</g>
</g>
<!-- Node3&#45;&gt;Node15 -->
<g id="edge14" class="edge">
<title>Node3&#45;&gt;Node15</title>
<path fill="none" stroke="#63b8ff" d="M518.53,-274.93C503.44,-255.09 464.5,-204.65 429,-165 420.21,-155.19 409.88,-144.69 401.43,-136.35"/>
<polygon fill="#63b8ff" stroke="#63b8ff" points="403.63,-133.6 394.03,-129.12 398.74,-138.61 403.63,-133.6"/>
</g>
<!-- Node17 -->
<g id="node17" class="node">
<title>Node17</title>
<g id="a_node17"><a xlink:href="Configuration_8h_source.html" target="_top" xlink:title=" ">
<polygon fill="white" stroke="#666666" points="1093.5,-239 1002.5,-239 1002.5,-220 1093.5,-220 1093.5,-239"/>
<text text-anchor="middle" x="1048" y="-227" font-family="Helvetica,sans-Serif" font-size="10.00">Configuration.h</text>
</a>
</g>
</g>
<!-- Node3&#45;&gt;Node17 -->
<g id="edge19" class="edge">
<title>Node3&#45;&gt;Node17</title>
<path fill="none" stroke="#63b8ff" d="M547.27,-277.07C550.52,-276.28 553.83,-275.56 557,-275 713.23,-247.38 900.63,-236.43 992.16,-232.49"/>
<polygon fill="#63b8ff" stroke="#63b8ff" points="992.46,-235.98 1002.31,-232.06 992.17,-228.98 992.46,-235.98"/>
</g>
<!-- Node25 -->
<g id="node24" class="node">
<title>Node25</title>
<g id="a_node24"><a xlink:href="TextStyle_8h.html" target="_top" xlink:title="This file declares everything needed for the text style system used to style all the elements on the ...">
<polygon fill="white" stroke="#666666" points="1726,-184 1630,-184 1630,-165 1726,-165 1726,-184"/>
<text text-anchor="middle" x="1678" y="-172" font-family="Helvetica,sans-Serif" font-size="10.00">cells/TextStyle.h</text>
</a>
</g>
</g>
<!-- Node3&#45;&gt;Node25 -->
<g id="edge69" class="edge">
<title>Node3&#45;&gt;Node25</title>
<path fill="none" stroke="#63b8ff" d="M547.25,-276.91C550.49,-276.15 553.82,-275.47 557,-275 781.57,-241.65 1361.14,-306.2 1578,-239 1610.03,-229.08 1641.82,-206.04 1660.68,-190.61"/>
<polygon fill="#63b8ff" stroke="#63b8ff" points="1662.99,-193.25 1668.4,-184.14 1658.49,-187.89 1662.99,-193.25"/>
</g>
<!-- Node27 -->
<g id="node26" class="node">
<title>Node27</title>
<g id="a_node26"><a xlink:title=" ">
<polygon fill="#e0e0e0" stroke="#999999" points="1003,-129 965,-129 965,-110 1003,-110 1003,-129"/>
<text text-anchor="middle" x="984" y="-117" font-family="Helvetica,sans-Serif" font-size="10.00">map</text>
</a>
</g>
</g>
<!-- Node3&#45;&gt;Node27 -->
<g id="edge77" class="edge">
<title>Node3&#45;&gt;Node27</title>
<path fill="none" stroke="#63b8ff" d="M533.19,-274.83C541.44,-266 554.42,-251.82 565,-239 591.25,-207.19 585.1,-185.31 621,-165 748.91,-92.63 807.45,-156.82 955.09,-128.98"/>
<polygon fill="#63b8ff" stroke="#63b8ff" points="955.83,-132.4 964.95,-127.01 954.46,-125.54 955.83,-132.4"/>
</g>
<!-- Node38 -->
<g id="node33" class="node">
<title>Node38</title>
<g id="a_node33"><a xlink:title=" ">
<polygon fill="#e0e0e0" stroke="#999999" points="1364,-74 1300,-74 1300,-55 1364,-55 1364,-74"/>
<text text-anchor="middle" x="1332" y="-62" font-family="Helvetica,sans-Serif" font-size="10.00">algorithm</text>
</a>
</g>
</g>
<!-- Node3&#45;&gt;Node38 -->
<g id="edge76" class="edge">
<title>Node3&#45;&gt;Node38</title>
<path fill="none" stroke="#63b8ff" d="M547.26,-277C550.51,-276.22 553.82,-275.52 557,-275 663.38,-257.53 1451.89,-265.03 1523,-184 1567.71,-133.06 1532.48,-182.51 1428,-129 1400.06,-114.69 1370.25,-94.03 1351.4,-80.2"/>
<polygon fill="#63b8ff" stroke="#63b8ff" points="1353.43,-77.35 1343.31,-74.19 1349.25,-82.97 1353.43,-77.35"/>
</g>
<!-- Node45 -->
<g id="node40" class="node">
<title>Node45</title>
<g id="a_node40"><a xlink:title=" ">
<polygon fill="#e0e0e0" stroke="#999999" points="676.5,-184 629.5,-184 629.5,-165 676.5,-165 676.5,-184"/>
<text text-anchor="middle" x="653" y="-172" font-family="Helvetica,sans-Serif" font-size="10.00">vector</text>
</a>
</g>
</g>
<!-- Node3&#45;&gt;Node45 -->
<g id="edge79" class="edge">
<title>Node3&#45;&gt;Node45</title>
<path fill="none" stroke="#63b8ff" d="M547.08,-276.61C566.71,-269.61 595.27,-257.21 615,-239 628.69,-226.36 639.07,-207.66 645.49,-193.83"/>
<polygon fill="#63b8ff" stroke="#63b8ff" points="648.82,-194.94 649.62,-184.37 642.41,-192.14 648.82,-194.94"/>
</g>
<!-- Node48 -->
<g id="node43" class="node">
<title>Node48</title>
<g id="a_node43"><a xlink:href="StringUtils_8h_source.html" target="_top" xlink:title=" ">
<polygon fill="white" stroke="#666666" points="338.5,-239 261.5,-239 261.5,-220 338.5,-220 338.5,-239"/>
<text text-anchor="middle" x="300" y="-227" font-family="Helvetica,sans-Serif" font-size="10.00">StringUtils.h</text>
</a>
</g>
</g>
<!-- Node3&#45;&gt;Node48 -->
<g id="edge66" class="edge">
<title>Node3&#45;&gt;Node48</title>
<path fill="none" stroke="#63b8ff" d="M502.6,-278.22C466.28,-269.67 393.8,-252.6 346.11,-241.36"/>
<polygon fill="#63b8ff" stroke="#63b8ff" points="346.87,-237.94 336.33,-239.06 345.26,-244.76 346.87,-237.94"/>
</g>
<!-- Node51 -->
<g id="node46" class="node">
<title>Node51</title>
<g id="a_node46"><a xlink:href="CachedValue_8h.html" target="_top" xlink:title="Declares &quot;mostly read&#45;only&quot; wrappers around values that are expensive to compute and are thus cached.">
<polygon fill="white" stroke="#666666" points="649.5,-129 560.5,-129 560.5,-110 649.5,-110 649.5,-129"/>
<text text-anchor="middle" x="605" y="-117" font-family="Helvetica,sans-Serif" font-size="10.00">CachedValue.h</text>
</a>
</g>
</g>
<!-- Node3&#45;&gt;Node51 -->
<g id="edge70" class="edge">
<title>Node3&#45;&gt;Node51</title>
<path fill="none" stroke="#63b8ff" d="M529.3,-274.74C541.94,-248.98 579.17,-173.13 596.25,-138.33"/>
<polygon fill="#63b8ff" stroke="#63b8ff" points="599.41,-139.83 600.68,-129.31 593.13,-136.74 599.41,-139.83"/>
</g>
<!-- Node52 -->
<g id="node47" class="node">
<title>Node52</title>
<g id="a_node47"><a xlink:title=" ">
<polygon fill="#e0e0e0" stroke="#999999" points="459,-239 395,-239 395,-220 459,-220 459,-239"/>
<text text-anchor="middle" x="427" y="-227" font-family="Helvetica,sans-Serif" font-size="10.00">wx/defs.h</text>
</a>
</g>
</g>
<!-- Node3&#45;&gt;Node52 -->
<g id="edge75" class="edge">
<title>Node3&#45;&gt;Node52</title>
<path fill="none" stroke="#63b8ff" d="M509.25,-274.98C493.77,-266.61 469.91,-253.7 451.86,-243.95"/>
<polygon fill="#63b8ff" stroke="#63b8ff" points="453.49,-240.85 443.03,-239.17 450.16,-247.01 453.49,-240.85"/>
</g>
<!-- Node5 -->
<g id="node5" class="node">
<title>Node5</title>
<g id="a_node5"><a xlink:title=" ">
<polygon fill="#e0e0e0" stroke="#999999" points="1522,-19 1460,-19 1460,0 1522,0 1522,-19"/>
<text text-anchor="middle" x="1491" y="-7" font-family="Helvetica,sans-Serif" font-size="10.00">Version.h</text>
</a>
</g>
</g>
<!-- Node4&#45;&gt;Node5 -->
<g id="edge4" class="edge">
<title>Node4&#45;&gt;Node5</title>
<path fill="none" stroke="#63b8ff" d="M1491,-54.75C1491,-47.8 1491,-37.85 1491,-29.13"/>
<polygon fill="#63b8ff" stroke="#63b8ff" points="1494.5,-29.09 1491,-19.09 1487.5,-29.09 1494.5,-29.09"/>
</g>
<!-- Node7 -->
<g id="node7" class="node">
<title>Node7</title>
<g id="a_node7"><a xlink:title=" ">
<polygon fill="#e0e0e0" stroke="#999999" points="428.5,-74 355.5,-74 355.5,-55 428.5,-55 428.5,-74"/>
<text text-anchor="middle" x="392" y="-62" font-family="Helvetica,sans-Serif" font-size="10.00">wx/debug.h</text>
</a>
</g>
</g>
<!-- Node6&#45;&gt;Node7 -->
<g id="edge6" class="edge">
<title>Node6&#45;&gt;Node7</title>
<path fill="none" stroke="#63b8ff" d="M461.66,-109.98C448.91,-101.84 429.45,-89.41 414.33,-79.76"/>
<polygon fill="#63b8ff" stroke="#63b8ff" points="415.89,-76.6 405.58,-74.17 412.12,-82.5 415.89,-76.6"/>
</g>
<!-- Node8 -->
<g id="node8" class="node">
<title>Node8</title>
<g id="a_node8"><a xlink:title=" ">
<polygon fill="#e0e0e0" stroke="#999999" points="673,-74 615,-74 615,-55 673,-55 673,-74"/>
<text text-anchor="middle" x="644" y="-62" font-family="Helvetica,sans-Serif" font-size="10.00">wx/log.h</text>
</a>
</g>
</g>
<!-- Node6&#45;&gt;Node8 -->
<g id="edge7" class="edge">
<title>Node6&#45;&gt;Node8</title>
<path fill="none" stroke="#63b8ff" d="M502.15,-109.98C530.53,-101.09 575.23,-87.07 606.86,-77.15"/>
<polygon fill="#63b8ff" stroke="#63b8ff" points="608.14,-80.41 616.63,-74.08 606.05,-73.73 608.14,-80.41"/>
</g>
<!-- Node6&#45;&gt;Node9 -->
<g id="edge8" class="edge">
<title>Node6&#45;&gt;Node9</title>
<path fill="none" stroke="#63b8ff" d="M503.56,-112.81C541.78,-105.1 611.89,-90.61 681.49,-74.03"/>
<polygon fill="#63b8ff" stroke="#63b8ff" points="682.4,-77.41 691.31,-71.67 680.77,-70.6 682.4,-77.41"/>
</g>
<!-- Node10 -->
<g id="node10" class="node">
<title>Node10</title>
<g id="a_node10"><a xlink:title=" ">
<polygon fill="#e0e0e0" stroke="#999999" points="337.5,-74 284.5,-74 284.5,-55 337.5,-55 337.5,-74"/>
<text text-anchor="middle" x="311" y="-62" font-family="Helvetica,sans-Serif" font-size="10.00">cstddef</text>
</a>
</g>
</g>
<!-- Node6&#45;&gt;Node10 -->
<g id="edge9" class="edge">
<title>Node6&#45;&gt;Node10</title>
<path fill="none" stroke="#63b8ff" d="M448.65,-109.98C421.24,-101.13 378.11,-87.19 347.44,-77.28"/>
<polygon fill="#63b8ff" stroke="#63b8ff" points="348.15,-73.83 337.56,-74.08 346,-80.49 348.15,-73.83"/>
</g>
<!-- Node11 -->
<g id="node11" class="node">
<title>Node11</title>
<g id="a_node11"><a xlink:title=" ">
<polygon fill="#e0e0e0" stroke="#999999" points="947,-74 897,-74 897,-55 947,-55 947,-74"/>
<text text-anchor="middle" x="922" y="-62" font-family="Helvetica,sans-Serif" font-size="10.00">cstdint</text>
</a>
</g>
</g>
<!-- Node6&#45;&gt;Node11 -->
<g id="edge10" class="edge">
<title>Node6&#45;&gt;Node11</title>
<path fill="none" stroke="#63b8ff" d="M503.64,-115.1C582.26,-105.78 801.22,-79.82 886.95,-69.66"/>
<polygon fill="#63b8ff" stroke="#63b8ff" points="887.44,-73.12 896.96,-68.47 886.62,-66.17 887.44,-73.12"/>
</g>
<!-- Node12 -->
<g id="node12" class="node">
<title>Node12</title>
<g id="a_node12"><a xlink:title=" ">
<polygon fill="#e0e0e0" stroke="#999999" points="509,-74 447,-74 447,-55 509,-55 509,-74"/>
<text text-anchor="middle" x="478" y="-62" font-family="Helvetica,sans-Serif" font-size="10.00">cinttypes</text>
</a>
</g>
</g>
<!-- Node6&#45;&gt;Node12 -->
<g id="edge11" class="edge">
<title>Node6&#45;&gt;Node12</title>
<path fill="none" stroke="#63b8ff" d="M475.5,-109.75C475.89,-102.8 476.45,-92.85 476.95,-84.13"/>
<polygon fill="#63b8ff" stroke="#63b8ff" points="480.44,-84.27 477.51,-74.09 473.45,-83.88 480.44,-84.27"/>
</g>
<!-- Node6&#45;&gt;Node13 -->
<g id="edge12" class="edge">
<title>Node6&#45;&gt;Node13</title>
<path fill="none" stroke="#63b8ff" d="M446.41,-111.89C443.24,-111.22 440.06,-110.58 437,-110 337.15,-91.14 308.67,-93.29 204.94,-74.06"/>
<polygon fill="#63b8ff" stroke="#63b8ff" points="205.48,-70.6 195,-72.2 204.19,-77.48 205.48,-70.6"/>
</g>
<!-- Node6&#45;&gt;Node14 -->
<g id="edge13" class="edge">
<title>Node6&#45;&gt;Node14</title>
<path fill="none" stroke="#63b8ff" d="M488.98,-109.98C502.47,-101.77 523.13,-89.18 539.04,-79.49"/>
<polygon fill="#63b8ff" stroke="#63b8ff" points="541.05,-82.36 547.77,-74.17 537.41,-76.38 541.05,-82.36"/>
</g>
<!-- Node15&#45;&gt;Node7 -->
<g id="edge15" class="edge">
<title>Node15&#45;&gt;Node7</title>
<path fill="none" stroke="#63b8ff" d="M386.16,-109.75C387.07,-102.8 388.39,-92.85 389.54,-84.13"/>
<polygon fill="#63b8ff" stroke="#63b8ff" points="393.03,-84.46 390.87,-74.09 386.09,-83.54 393.03,-84.46"/>
</g>
<!-- Node15&#45;&gt;Node13 -->
<g id="edge16" class="edge">
<title>Node15&#45;&gt;Node13</title>
<path fill="none" stroke="#63b8ff" d="M349.81,-109.98C310.24,-100.41 246.16,-84.9 205.07,-74.95"/>
<polygon fill="#63b8ff" stroke="#63b8ff" points="205.69,-71.5 195.14,-72.55 204.04,-78.31 205.69,-71.5"/>
</g>
<!-- Node15&#45;&gt;Node14 -->
<g id="edge17" class="edge">
<title>Node15&#45;&gt;Node14</title>
<path fill="none" stroke="#63b8ff" d="M413.44,-109.98C443.28,-101.05 490.38,-86.94 523.53,-77.02"/>
<polygon fill="#63b8ff" stroke="#63b8ff" points="524.76,-80.3 533.34,-74.08 522.76,-73.6 524.76,-80.3"/>
</g>
<!-- Node16 -->
<g id="node16" class="node">
<title>Node16</title>
<g id="a_node16"><a xlink:title=" ">
<polygon fill="#e0e0e0" stroke="#999999" points="266.5,-74 213.5,-74 213.5,-55 266.5,-55 266.5,-74"/>
<text text-anchor="middle" x="240" y="-62" font-family="Helvetica,sans-Serif" font-size="10.00">iterator</text>
</a>
</g>
</g>
<!-- Node15&#45;&gt;Node16 -->
<g id="edge18" class="edge">
<title>Node15&#45;&gt;Node16</title>
<path fill="none" stroke="#63b8ff" d="M361.7,-109.98C337.75,-101.23 300.22,-87.51 273.17,-77.62"/>
<polygon fill="#63b8ff" stroke="#63b8ff" points="274.31,-74.32 263.72,-74.17 271.91,-80.89 274.31,-74.32"/>
</g>
<!-- Node17&#45;&gt;Node4 -->
<g id="edge20" class="edge">
<title>Node17&#45;&gt;Node4</title>
<path fill="none" stroke="#63b8ff" d="M1093.64,-227.64C1207.02,-225.04 1494.42,-215.38 1523,-184 1528.69,-177.76 1527.8,-171.95 1523,-165 1497.35,-127.84 1453.65,-166.16 1428,-129 1414.51,-109.46 1439.62,-90.6 1462.02,-78.59"/>
<polygon fill="#63b8ff" stroke="#63b8ff" points="1463.69,-81.67 1471.02,-74.03 1460.52,-75.43 1463.69,-81.67"/>
</g>
<!-- Node17&#45;&gt;Node11 -->
<g id="edge56" class="edge">
<title>Node17&#45;&gt;Node11</title>
<path fill="none" stroke="#63b8ff" d="M1002.25,-224.9C939,-219.18 828.91,-206.32 796,-184 772.22,-167.87 769.85,-156.64 762,-129 747.06,-76.42 835.14,-66.56 886.66,-65.21"/>
<polygon fill="#63b8ff" stroke="#63b8ff" points="886.8,-68.71 896.74,-65.05 886.68,-61.71 886.8,-68.71"/>
</g>
<!-- Node17&#45;&gt;Node13 -->
<g id="edge57" class="edge">
<title>Node17&#45;&gt;Node13</title>
<path fill="none" stroke="#63b8ff" d="M1002.44,-221.98C947.6,-213.93 852.81,-199.43 772,-184 733.55,-176.66 724.65,-171.22 686,-165 530.3,-139.95 486.46,-165.34 333,-129 282.12,-116.95 225.84,-93.24 193.33,-78.45"/>
<polygon fill="#63b8ff" stroke="#63b8ff" points="194.58,-75.17 184.04,-74.17 191.66,-81.53 194.58,-75.17"/>
</g>
<!-- Node18 -->
<g id="node18" class="node">
<title>Node18</title>
<g id="a_node18"><a xlink:title=" ">
<polygon fill="#e0e0e0" stroke="#999999" points="1294.5,-184 1237.5,-184 1237.5,-165 1294.5,-165 1294.5,-184"/>
<text text-anchor="middle" x="1266" y="-172" font-family="Helvetica,sans-Serif" font-size="10.00">wx/wx.h</text>
</a>
</g>
</g>
<!-- Node17&#45;&gt;Node18 -->
<g id="edge21" class="edge">
<title>Node17&#45;&gt;Node18</title>
<path fill="none" stroke="#63b8ff" d="M1083.03,-219.98C1122.53,-210.38 1186.57,-194.81 1227.46,-184.87"/>
<polygon fill="#63b8ff" stroke="#63b8ff" points="1228.44,-188.23 1237.33,-182.47 1226.78,-181.43 1228.44,-188.23"/>
</g>
<!-- Node19 -->
<g id="node19" class="node">
<title>Node19</title>
<g id="a_node19"><a xlink:title=" ">
<polygon fill="#e0e0e0" stroke="#999999" points="1143,-129 1071,-129 1071,-110 1143,-110 1143,-129"/>
<text text-anchor="middle" x="1107" y="-117" font-family="Helvetica,sans-Serif" font-size="10.00">wx/config.h</text>
</a>
</g>
</g>
<!-- Node17&#45;&gt;Node19 -->
<g id="edge22" class="edge">
<title>Node17&#45;&gt;Node19</title>
<path fill="none" stroke="#63b8ff" d="M1002.4,-226.75C939.93,-222.7 839.42,-209.3 876,-165 881.88,-157.88 994.71,-138.62 1060.46,-127.92"/>
<polygon fill="#63b8ff" stroke="#63b8ff" points="1061.28,-131.33 1070.59,-126.28 1060.16,-124.42 1061.28,-131.33"/>
</g>
<!-- Node20 -->
<g id="node20" class="node">
<title>Node20</title>
<g id="a_node20"><a xlink:title=" ">
<polygon fill="#e0e0e0" stroke="#999999" points="1389.5,-184 1312.5,-184 1312.5,-165 1389.5,-165 1389.5,-184"/>
<text text-anchor="middle" x="1351" y="-172" font-family="Helvetica,sans-Serif" font-size="10.00">wx/display.h</text>
</a>
</g>
</g>
<!-- Node17&#45;&gt;Node20 -->
<g id="edge23" class="edge">
<title>Node17&#45;&gt;Node20</title>
<path fill="none" stroke="#63b8ff" d="M1093.8,-220.64C1142.93,-212.18 1223.54,-198.24 1302.2,-184.31"/>
<polygon fill="#63b8ff" stroke="#63b8ff" points="1303.04,-187.72 1312.28,-182.52 1301.82,-180.82 1303.04,-187.72"/>
</g>
<!-- Node21 -->
<g id="node21" class="node">
<title>Node21</title>
<g id="a_node21"><a xlink:title=" ">
<polygon fill="#e0e0e0" stroke="#999999" points="1498,-184 1408,-184 1408,-165 1498,-165 1498,-184"/>
<text text-anchor="middle" x="1453" y="-172" font-family="Helvetica,sans-Serif" font-size="10.00">wx/fontenum.h</text>
</a>
</g>
</g>
<!-- Node17&#45;&gt;Node21 -->
<g id="edge24" class="edge">
<title>Node17&#45;&gt;Node21</title>
<path fill="none" stroke="#63b8ff" d="M1093.77,-223.14C1158.93,-215.42 1282.44,-200.41 1397.86,-184.12"/>
<polygon fill="#63b8ff" stroke="#63b8ff" points="1398.52,-187.57 1407.93,-182.7 1397.54,-180.64 1398.52,-187.57"/>
</g>
<!-- Node22 -->
<g id="node22" class="node">
<title>Node22</title>
<g id="a_node22"><a xlink:title=" ">
<polygon fill="#e0e0e0" stroke="#999999" points="1257,-129 1169,-129 1169,-110 1257,-110 1257,-129"/>
<text text-anchor="middle" x="1213" y="-117" font-family="Helvetica,sans-Serif" font-size="10.00">wx/hashmap.h</text>
</a>
</g>
</g>
<!-- Node17&#45;&gt;Node22 -->
<g id="edge25" class="edge">
<title>Node17&#45;&gt;Node22</title>
<path fill="none" stroke="#63b8ff" d="M1093.61,-224.67C1124.42,-219.82 1164.06,-208.83 1190,-184 1202.3,-172.23 1208.04,-153.39 1210.72,-139.28"/>
<polygon fill="#63b8ff" stroke="#63b8ff" points="1214.2,-139.62 1212.26,-129.2 1207.29,-138.56 1214.2,-139.62"/>
</g>
<!-- Node23 -->
<g id="node23" class="node">
<title>Node23</title>
<g id="a_node23"><a xlink:href="LoggingMessageDialog_8h.html" target="_top" xlink:title="This file declares a message dialog that sends its contents to the log message sink.">
<polygon fill="#fff0f0" stroke="red" points="947.5,-129 770.5,-129 770.5,-110 947.5,-110 947.5,-129"/>
<text text-anchor="middle" x="859" y="-117" font-family="Helvetica,sans-Serif" font-size="10.00">dialogs/LoggingMessageDialog.h</text>
</a>
</g>
</g>
<!-- Node17&#45;&gt;Node23 -->
<g id="edge26" class="edge">
<title>Node17&#45;&gt;Node23</title>
<path fill="none" stroke="#63b8ff" d="M1002.47,-226.87C939.2,-223.55 829.65,-213.57 805,-184 790.63,-166.76 813.48,-147.11 833.73,-134.29"/>
<polygon fill="#63b8ff" stroke="#63b8ff" points="835.65,-137.23 842.42,-129.08 832.05,-131.22 835.65,-137.23"/>
</g>
<!-- Node17&#45;&gt;Node25 -->
<g id="edge29" class="edge">
<title>Node17&#45;&gt;Node25</title>
<path fill="none" stroke="#63b8ff" d="M1093.73,-225.82C1190.34,-219.96 1422.26,-204.85 1616,-184 1617.28,-183.86 1618.57,-183.72 1619.87,-183.57"/>
<polygon fill="#63b8ff" stroke="#63b8ff" points="1620.46,-187.03 1629.97,-182.37 1619.63,-180.08 1620.46,-187.03"/>
</g>
<!-- Node17&#45;&gt;Node38 -->
<g id="edge63" class="edge">
<title>Node17&#45;&gt;Node38</title>
<path fill="none" stroke="#63b8ff" d="M1093.72,-227.48C1204.38,-224.54 1479.56,-214.23 1507,-184 1512.68,-177.75 1512.38,-171.51 1507,-165 1452.48,-99.12 1372.52,-194.88 1318,-129 1307.46,-116.26 1313.56,-97.32 1320.71,-83.43"/>
<polygon fill="#63b8ff" stroke="#63b8ff" points="1323.96,-84.8 1325.88,-74.38 1317.88,-81.33 1323.96,-84.8"/>
</g>
<!-- Node41 -->
<g id="node36" class="node">
<title>Node41</title>
<g id="a_node36"><a xlink:title=" ">
<polygon fill="#e0e0e0" stroke="#999999" points="1164,-74 1132,-74 1132,-55 1164,-55 1164,-74"/>
<text text-anchor="middle" x="1148" y="-62" font-family="Helvetica,sans-Serif" font-size="10.00">list</text>
</a>
</g>
</g>
<!-- Node17&#45;&gt;Node41 -->
<g id="edge61" class="edge">
<title>Node17&#45;&gt;Node41</title>
<path fill="none" stroke="#63b8ff" d="M1002.33,-227.82C936.23,-225.18 825.79,-213.62 864,-165 905.83,-111.77 948.13,-151.43 1012,-129 1052.07,-114.93 1096.24,-93.04 1123.05,-78.98"/>
<polygon fill="#63b8ff" stroke="#63b8ff" points="1124.91,-81.96 1132.11,-74.19 1121.63,-75.78 1124.91,-81.96"/>
</g>
<!-- Node42 -->
<g id="node37" class="node">
<title>Node42</title>
<g id="a_node37"><a xlink:title=" ">
<polygon fill="#e0e0e0" stroke="#999999" points="1804.5,-74 1711.5,-74 1711.5,-55 1804.5,-55 1804.5,-74"/>
<text text-anchor="middle" x="1758" y="-62" font-family="Helvetica,sans-Serif" font-size="10.00">unordered_map</text>
</a>
</g>
</g>
<!-- Node17&#45;&gt;Node42 -->
<g id="edge59" class="edge">
<title>Node17&#45;&gt;Node42</title>
<path fill="none" stroke="#63b8ff" d="M1093.7,-227.94C1291.19,-225.03 2064.61,-208.61 2134,-129 2176.96,-79.71 1929.75,-68.68 1814.59,-66.21"/>
<polygon fill="#63b8ff" stroke="#63b8ff" points="1814.61,-62.71 1804.54,-66.01 1814.47,-69.71 1814.61,-62.71"/>
</g>
<!-- Node43 -->
<g id="node38" class="node">
<title>Node43</title>
<g id="a_node38"><a xlink:title=" ">
<polygon fill="#e0e0e0" stroke="#999999" points="933,-184 885,-184 885,-165 933,-165 933,-184"/>
<text text-anchor="middle" x="909" y="-172" font-family="Helvetica,sans-Serif" font-size="10.00">mutex</text>
</a>
</g>
</g>
<!-- Node17&#45;&gt;Node43 -->
<g id="edge58" class="edge">
<title>Node17&#45;&gt;Node43</title>
<path fill="none" stroke="#63b8ff" d="M1025.67,-219.98C1002.8,-211.27 967.04,-197.63 941.14,-187.75"/>
<polygon fill="#63b8ff" stroke="#63b8ff" points="942.33,-184.46 931.74,-184.17 939.84,-191 942.33,-184.46"/>
</g>
<!-- Node44 -->
<g id="node39" class="node">
<title>Node44</title>
<g id="a_node39"><a xlink:title=" ">
<polygon fill="#e0e0e0" stroke="#999999" points="1005,-184 951,-184 951,-165 1005,-165 1005,-184"/>
<text text-anchor="middle" x="978" y="-172" font-family="Helvetica,sans-Serif" font-size="10.00">random</text>
</a>
</g>
</g>
<!-- Node17&#45;&gt;Node44 -->
<g id="edge60" class="edge">
<title>Node17&#45;&gt;Node44</title>
<path fill="none" stroke="#63b8ff" d="M1036.75,-219.98C1026.2,-212 1010.2,-199.88 997.56,-190.31"/>
<polygon fill="#63b8ff" stroke="#63b8ff" points="999.54,-187.42 989.45,-184.17 995.31,-193 999.54,-187.42"/>
</g>
<!-- Node17&#45;&gt;Node45 -->
<g id="edge62" class="edge">
<title>Node17&#45;&gt;Node45</title>
<path fill="none" stroke="#63b8ff" d="M1002.43,-224.24C934.36,-217.55 802.23,-203.33 691,-184 689.54,-183.75 688.06,-183.47 686.56,-183.19"/>
<polygon fill="#63b8ff" stroke="#63b8ff" points="687.15,-179.74 676.65,-181.16 685.74,-186.59 687.15,-179.74"/>
</g>
<!-- Node46 -->
<g id="node41" class="node">
<title>Node46</title>
<g id="a_node41"><a xlink:title=" ">
<polygon fill="#e0e0e0" stroke="#999999" points="1073,-184 1023,-184 1023,-165 1073,-165 1073,-184"/>
<text text-anchor="middle" x="1048" y="-172" font-family="Helvetica,sans-Serif" font-size="10.00">atomic</text>
</a>
</g>
</g>
<!-- Node17&#45;&gt;Node46 -->
<g id="edge64" class="edge">
<title>Node17&#45;&gt;Node46</title>
<path fill="none" stroke="#63b8ff" d="M1048,-219.75C1048,-212.8 1048,-202.85 1048,-194.13"/>
<polygon fill="#63b8ff" stroke="#63b8ff" points="1051.5,-194.09 1048,-184.09 1044.5,-194.09 1051.5,-194.09"/>
</g>
<!-- Node47 -->
<g id="node42" class="node">
<title>Node47</title>
<g id="a_node42"><a xlink:title=" ">
<polygon fill="#e0e0e0" stroke="#999999" points="1180.5,-184 1091.5,-184 1091.5,-165 1180.5,-165 1180.5,-184"/>
<text text-anchor="middle" x="1136" y="-172" font-family="Helvetica,sans-Serif" font-size="10.00">wx/wupdlock.h</text>
</a>
</g>
</g>
<!-- Node17&#45;&gt;Node47 -->
<g id="edge65" class="edge">
<title>Node17&#45;&gt;Node47</title>
<path fill="none" stroke="#63b8ff" d="M1062.14,-219.98C1075.79,-211.77 1096.69,-199.18 1112.78,-189.49"/>
<polygon fill="#63b8ff" stroke="#63b8ff" points="1114.84,-192.33 1121.6,-184.17 1111.23,-186.33 1114.84,-192.33"/>
</g>
<!-- Node23&#45;&gt;Node4 -->
<g id="edge27" class="edge">
<title>Node23&#45;&gt;Node4</title>
<path fill="none" stroke="#63b8ff" d="M947.55,-110.72C950.4,-110.48 953.22,-110.24 956,-110 1135.24,-94.69 1348.33,-77.17 1442.33,-69.48"/>
<polygon fill="#63b8ff" stroke="#63b8ff" points="1442.71,-72.96 1452.39,-68.65 1442.14,-65.98 1442.71,-72.96"/>
</g>
<!-- Node23&#45;&gt;Node8 -->
<g id="edge28" class="edge">
<title>Node23&#45;&gt;Node8</title>
<path fill="none" stroke="#63b8ff" d="M824.46,-109.98C785.83,-100.46 723.4,-85.07 683.04,-75.12"/>
<polygon fill="#63b8ff" stroke="#63b8ff" points="683.82,-71.71 673.28,-72.72 682.15,-78.51 683.82,-71.71"/>
</g>
<!-- Node25&#45;&gt;Node4 -->
<g id="edge30" class="edge">
<title>Node25&#45;&gt;Node4</title>
<path fill="none" stroke="#63b8ff" d="M1677.18,-164.72C1675.42,-151.01 1670.04,-124.59 1654,-110 1645.35,-102.13 1584.25,-86.8 1539.38,-76.36"/>
<polygon fill="#63b8ff" stroke="#63b8ff" points="1540.04,-72.92 1529.51,-74.08 1538.47,-79.74 1540.04,-72.92"/>
</g>
<!-- Node25&#45;&gt;Node11 -->
<g id="edge39" class="edge">
<title>Node25&#45;&gt;Node11</title>
<path fill="none" stroke="#63b8ff" d="M1629.85,-165.69C1553,-153.31 1397.85,-128.69 1266,-110 1153.27,-94.02 1019.43,-77.37 957.14,-69.76"/>
<polygon fill="#63b8ff" stroke="#63b8ff" points="957.41,-66.27 947.06,-68.53 956.57,-73.22 957.41,-66.27"/>
</g>
<!-- Node25&#45;&gt;Node19 -->
<g id="edge36" class="edge">
<title>Node25&#45;&gt;Node19</title>
<path fill="none" stroke="#63b8ff" d="M1629.67,-170.54C1537.91,-164.65 1332.23,-150.18 1160,-129 1157.78,-128.73 1155.52,-128.43 1153.23,-128.12"/>
<polygon fill="#63b8ff" stroke="#63b8ff" points="1153.56,-124.63 1143.16,-126.66 1152.55,-131.56 1153.56,-124.63"/>
</g>
<!-- Node25&#45;&gt;Node22 -->
<g id="edge33" class="edge">
<title>Node25&#45;&gt;Node22</title>
<path fill="none" stroke="#63b8ff" d="M1629.99,-168.03C1542.85,-158.1 1359.22,-137.17 1267.51,-126.71"/>
<polygon fill="#63b8ff" stroke="#63b8ff" points="1267.66,-123.21 1257.33,-125.55 1266.87,-130.16 1267.66,-123.21"/>
</g>
<!-- Node26 -->
<g id="node25" class="node">
<title>Node26</title>
<g id="a_node25"><a xlink:title=" ">
<polygon fill="#e0e0e0" stroke="#999999" points="1987,-129 1915,-129 1915,-110 1987,-110 1987,-129"/>
<text text-anchor="middle" x="1951" y="-117" font-family="Helvetica,sans-Serif" font-size="10.00">wx/colour.h</text>
</a>
</g>
</g>
<!-- Node25&#45;&gt;Node26 -->
<g id="edge31" class="edge">
<title>Node25&#45;&gt;Node26</title>
<path fill="none" stroke="#63b8ff" d="M1721.86,-164.98C1771.92,-155.27 1853.45,-139.44 1904.56,-129.52"/>
<polygon fill="#63b8ff" stroke="#63b8ff" points="1905.52,-132.89 1914.67,-127.55 1904.19,-126.02 1905.52,-132.89"/>
</g>
<!-- Node25&#45;&gt;Node27 -->
<g id="edge32" class="edge">
<title>Node25&#45;&gt;Node27</title>
<path fill="none" stroke="#63b8ff" d="M1629.63,-170.61C1525.66,-164.26 1273.17,-148.13 1062,-129 1045.84,-127.54 1027.84,-125.6 1013.2,-123.94"/>
<polygon fill="#63b8ff" stroke="#63b8ff" points="1013.55,-120.45 1003.21,-122.79 1012.75,-127.41 1013.55,-120.45"/>
</g>
<!-- Node28 -->
<g id="node27" class="node">
<title>Node28</title>
<g id="a_node27"><a xlink:title=" ">
<polygon fill="#e0e0e0" stroke="#999999" points="2049,-129 2005,-129 2005,-110 2049,-110 2049,-129"/>
<text text-anchor="middle" x="2027" y="-117" font-family="Helvetica,sans-Serif" font-size="10.00">string</text>
</a>
</g>
</g>
<!-- Node25&#45;&gt;Node28 -->
<g id="edge34" class="edge">
<title>Node25&#45;&gt;Node28</title>
<path fill="none" stroke="#63b8ff" d="M1726.01,-168.73C1786.54,-162.28 1893.93,-149.42 1994.69,-129.04"/>
<polygon fill="#63b8ff" stroke="#63b8ff" points="1995.64,-132.41 2004.73,-126.97 1994.23,-125.56 1995.64,-132.41"/>
</g>
<!-- Node29 -->
<g id="node28" class="node">
<title>Node29</title>
<g id="a_node28"><a xlink:title=" ">
<polygon fill="#e0e0e0" stroke="#999999" points="2124.5,-129 2067.5,-129 2067.5,-110 2124.5,-110 2124.5,-129"/>
<text text-anchor="middle" x="2096" y="-117" font-family="Helvetica,sans-Serif" font-size="10.00">ostream</text>
</a>
</g>
</g>
<!-- Node25&#45;&gt;Node29 -->
<g id="edge35" class="edge">
<title>Node25&#45;&gt;Node29</title>
<path fill="none" stroke="#63b8ff" d="M1726.22,-169.47C1796.68,-163.22 1932.09,-149.87 2057.28,-128.94"/>
<polygon fill="#63b8ff" stroke="#63b8ff" points="2058.15,-132.34 2067.43,-127.22 2056.99,-125.44 2058.15,-132.34"/>
</g>
<!-- Node30 -->
<g id="node29" class="node">
<title>Node30</title>
<g id="a_node29"><a xlink:title=" ">
<polygon fill="#e0e0e0" stroke="#999999" points="1693,-74 1631,-74 1631,-55 1693,-55 1693,-74"/>
<text text-anchor="middle" x="1662" y="-62" font-family="Helvetica,sans-Serif" font-size="10.00">wx/font.h</text>
</a>
</g>
</g>
<!-- Node25&#45;&gt;Node30 -->
<g id="edge37" class="edge">
<title>Node25&#45;&gt;Node30</title>
<path fill="none" stroke="#63b8ff" d="M1726.13,-173.01C1794.64,-170.6 1907.81,-159.33 1868,-110 1866.69,-108.38 1762.62,-86.47 1702.92,-74.01"/>
<polygon fill="#63b8ff" stroke="#63b8ff" points="1703.54,-70.56 1693.04,-71.95 1702.11,-77.41 1703.54,-70.56"/>
</g>
<!-- Node31 -->
<g id="node30" class="node">
<title>Node31</title>
<g id="a_node30"><a xlink:title=" ">
<polygon fill="#e0e0e0" stroke="#999999" points="1859,-129 1777,-129 1777,-110 1859,-110 1859,-129"/>
<text text-anchor="middle" x="1818" y="-117" font-family="Helvetica,sans-Serif" font-size="10.00">wx/settings.h</text>
</a>
</g>
</g>
<!-- Node25&#45;&gt;Node31 -->
<g id="edge38" class="edge">
<title>Node25&#45;&gt;Node31</title>
<path fill="none" stroke="#63b8ff" d="M1700.49,-164.98C1723.52,-156.27 1759.54,-142.63 1785.63,-132.75"/>
<polygon fill="#63b8ff" stroke="#63b8ff" points="1786.98,-135.98 1795.1,-129.17 1784.51,-129.44 1786.98,-135.98"/>
</g>
<!-- Node32 -->
<g id="node31" class="node">
<title>Node32</title>
<g id="a_node31"><a xlink:title=" ">
<polygon fill="#e0e0e0" stroke="#999999" points="1612.5,-74 1547.5,-74 1547.5,-55 1612.5,-55 1612.5,-74"/>
<text text-anchor="middle" x="1580" y="-62" font-family="Helvetica,sans-Serif" font-size="10.00">functional</text>
</a>
</g>
</g>
<!-- Node25&#45;&gt;Node32 -->
<g id="edge40" class="edge">
<title>Node25&#45;&gt;Node32</title>
<path fill="none" stroke="#63b8ff" d="M1682.64,-164.88C1688.95,-151.84 1698.25,-126.86 1687,-110 1679.07,-98.11 1646.99,-85.72 1620.01,-77.04"/>
<polygon fill="#63b8ff" stroke="#63b8ff" points="1620.94,-73.66 1610.35,-74.01 1618.85,-80.34 1620.94,-73.66"/>
</g>
<!-- Node33 -->
<g id="node32" class="node">
<title>Node33</title>
<g id="a_node32"><a xlink:href="FontAttribs_8h_source.html" target="_top" xlink:title=" ">
<polygon fill="#fff0f0" stroke="red" points="1515.5,-129 1436.5,-129 1436.5,-110 1515.5,-110 1515.5,-129"/>
<text text-anchor="middle" x="1476" y="-117" font-family="Helvetica,sans-Serif" font-size="10.00">FontAttribs.h</text>
</a>
</g>
</g>
<!-- Node25&#45;&gt;Node33 -->
<g id="edge41" class="edge">
<title>Node25&#45;&gt;Node33</title>
<path fill="none" stroke="#63b8ff" d="M1645.55,-164.98C1611.04,-155.93 1556.34,-141.58 1518.44,-131.64"/>
<polygon fill="#63b8ff" stroke="#63b8ff" points="1519.27,-128.23 1508.71,-129.08 1517.49,-135.01 1519.27,-128.23"/>
</g>
<!-- Node40 -->
<g id="node35" class="node">
<title>Node40</title>
<g id="a_node35"><a xlink:href="FontVariantCache_8h.html" target="_top" xlink:title="This file implements the wxFont cache system.">
<polygon fill="white" stroke="#666666" points="1644.5,-129 1533.5,-129 1533.5,-110 1644.5,-110 1644.5,-129"/>
<text text-anchor="middle" x="1589" y="-117" font-family="Helvetica,sans-Serif" font-size="10.00">FontVariantCache.h</text>
</a>
</g>
</g>
<!-- Node25&#45;&gt;Node40 -->
<g id="edge47" class="edge">
<title>Node25&#45;&gt;Node40</title>
<path fill="none" stroke="#63b8ff" d="M1663.7,-164.98C1649.9,-156.77 1628.76,-144.18 1612.49,-134.49"/>
<polygon fill="#63b8ff" stroke="#63b8ff" points="1613.94,-131.28 1603.56,-129.17 1610.36,-137.29 1613.94,-131.28"/>
</g>
<!-- Node25&#45;&gt;Node42 -->
<g id="edge55" class="edge">
<title>Node25&#45;&gt;Node42</title>
<path fill="none" stroke="#63b8ff" d="M1689.08,-164.84C1699.3,-156.46 1714.45,-143 1725,-129 1735.62,-114.91 1744.62,-96.91 1750.52,-83.67"/>
<polygon fill="#63b8ff" stroke="#63b8ff" points="1753.84,-84.82 1754.56,-74.25 1747.4,-82.06 1753.84,-84.82"/>
</g>
<!-- Node33&#45;&gt;Node11 -->
<g id="edge44" class="edge">
<title>Node33&#45;&gt;Node11</title>
<path fill="none" stroke="#63b8ff" d="M1436.23,-111.93C1431.44,-111.23 1426.62,-110.57 1422,-110 1376.16,-104.36 1063.43,-77.55 957.22,-68.5"/>
<polygon fill="#63b8ff" stroke="#63b8ff" points="957.28,-64.99 947.02,-67.63 956.69,-71.96 957.28,-64.99"/>
</g>
<!-- Node33&#45;&gt;Node30 -->
<g id="edge42" class="edge">
<title>Node33&#45;&gt;Node30</title>
<path fill="none" stroke="#63b8ff" d="M1505.88,-109.98C1537.38,-101.01 1587.17,-86.82 1622.03,-76.89"/>
<polygon fill="#63b8ff" stroke="#63b8ff" points="1623.22,-80.19 1631.88,-74.08 1621.31,-73.46 1623.22,-80.19"/>
</g>
<!-- Node33&#45;&gt;Node32 -->
<g id="edge45" class="edge">
<title>Node33&#45;&gt;Node32</title>
<path fill="none" stroke="#63b8ff" d="M1492.71,-109.98C1509.21,-101.57 1534.7,-88.59 1553.88,-78.81"/>
<polygon fill="#63b8ff" stroke="#63b8ff" points="1555.67,-81.83 1562.99,-74.17 1552.49,-75.59 1555.67,-81.83"/>
</g>
<!-- Node33&#45;&gt;Node38 -->
<g id="edge43" class="edge">
<title>Node33&#45;&gt;Node38</title>
<path fill="none" stroke="#63b8ff" d="M1452.86,-109.98C1429.18,-101.27 1392.13,-87.63 1365.29,-77.75"/>
<polygon fill="#63b8ff" stroke="#63b8ff" points="1366.15,-74.34 1355.56,-74.17 1363.73,-80.91 1366.15,-74.34"/>
</g>
<!-- Node39 -->
<g id="node34" class="node">
<title>Node39</title>
<g id="a_node34"><a xlink:title=" ">
<polygon fill="#e0e0e0" stroke="#999999" points="1079,-74 1035,-74 1035,-55 1079,-55 1079,-74"/>
<text text-anchor="middle" x="1057" y="-62" font-family="Helvetica,sans-Serif" font-size="10.00">limits</text>
</a>
</g>
</g>
<!-- Node33&#45;&gt;Node39 -->
<g id="edge46" class="edge">
<title>Node33&#45;&gt;Node39</title>
<path fill="none" stroke="#63b8ff" d="M1436.21,-112.07C1431.43,-111.35 1426.61,-110.64 1422,-110 1289.42,-91.59 1255.82,-90.55 1123,-74 1112.08,-72.64 1100.15,-71.11 1089.47,-69.74"/>
<polygon fill="#63b8ff" stroke="#63b8ff" points="1089.66,-66.23 1079.3,-68.42 1088.76,-73.17 1089.66,-66.23"/>
</g>
<!-- Node40&#45;&gt;Node4 -->
<g id="edge48" class="edge">
<title>Node40&#45;&gt;Node4</title>
<path fill="none" stroke="#63b8ff" d="M1573.25,-109.98C1557.77,-101.61 1533.91,-88.7 1515.86,-78.95"/>
<polygon fill="#63b8ff" stroke="#63b8ff" points="1517.49,-75.85 1507.03,-74.17 1514.16,-82.01 1517.49,-75.85"/>
</g>
<!-- Node40&#45;&gt;Node9 -->
<g id="edge53" class="edge">
<title>Node40&#45;&gt;Node9</title>
<path fill="none" stroke="#63b8ff" d="M1533.18,-110.83C1530.42,-110.53 1527.68,-110.25 1525,-110 1446.75,-102.67 889.72,-74.36 747.16,-67.17"/>
<polygon fill="#63b8ff" stroke="#63b8ff" points="747.05,-63.66 736.88,-66.65 746.69,-70.65 747.05,-63.66"/>
</g>
<!-- Node40&#45;&gt;Node13 -->
<g id="edge49" class="edge">
<title>Node40&#45;&gt;Node13</title>
<path fill="none" stroke="#63b8ff" d="M1533.19,-110.74C1530.42,-110.46 1527.68,-110.21 1525,-110 942.96,-63.55 788.65,-145.47 205.71,-73.94"/>
<polygon fill="#63b8ff" stroke="#63b8ff" points="205.71,-70.41 195.36,-72.65 204.85,-77.36 205.71,-70.41"/>
</g>
<!-- Node40&#45;&gt;Node30 -->
<g id="edge50" class="edge">
<title>Node40&#45;&gt;Node30</title>
<path fill="none" stroke="#63b8ff" d="M1600.73,-109.98C1611.73,-102 1628.42,-89.88 1641.6,-80.31"/>
<polygon fill="#63b8ff" stroke="#63b8ff" points="1644.02,-82.88 1650.06,-74.17 1639.91,-77.21 1644.02,-82.88"/>
</g>
<!-- Node40&#45;&gt;Node32 -->
<g id="edge51" class="edge">
<title>Node40&#45;&gt;Node32</title>
<path fill="none" stroke="#63b8ff" d="M1587.51,-109.75C1586.33,-102.8 1584.64,-92.85 1583.16,-84.13"/>
<polygon fill="#63b8ff" stroke="#63b8ff" points="1586.58,-83.36 1581.46,-74.09 1579.68,-84.53 1586.58,-83.36"/>
</g>
<!-- Node40&#45;&gt;Node41 -->
<g id="edge52" class="edge">
<title>Node40&#45;&gt;Node41</title>
<path fill="none" stroke="#63b8ff" d="M1533.16,-111.03C1530.4,-110.68 1527.67,-110.33 1525,-110 1393.29,-93.48 1235.47,-75.41 1174.15,-68.45"/>
<polygon fill="#63b8ff" stroke="#63b8ff" points="1174.51,-64.97 1164.18,-67.32 1173.72,-71.93 1174.51,-64.97"/>
</g>
<!-- Node40&#45;&gt;Node42 -->
<g id="edge54" class="edge">
<title>Node40&#45;&gt;Node42</title>
<path fill="none" stroke="#63b8ff" d="M1616.15,-109.98C1644.53,-101.09 1689.23,-87.07 1720.86,-77.15"/>
<polygon fill="#63b8ff" stroke="#63b8ff" points="1722.14,-80.41 1730.63,-74.08 1720.05,-73.73 1722.14,-80.41"/>
</g>
<!-- Node49 -->
<g id="node44" class="node">
<title>Node49</title>
<g id="a_node44"><a xlink:title=" ">
<polygon fill="#e0e0e0" stroke="#999999" points="307.5,-184 236.5,-184 236.5,-165 307.5,-165 307.5,-184"/>
<text text-anchor="middle" x="272" y="-172" font-family="Helvetica,sans-Serif" font-size="10.00">wx/string.h</text>
</a>
</g>
</g>
<!-- Node48&#45;&gt;Node49 -->
<g id="edge67" class="edge">
<title>Node48&#45;&gt;Node49</title>
<path fill="none" stroke="#63b8ff" d="M295.38,-219.75C291.54,-212.49 285.98,-201.95 281.24,-192.98"/>
<polygon fill="#63b8ff" stroke="#63b8ff" points="284.3,-191.3 276.54,-184.09 278.11,-194.57 284.3,-191.3"/>
</g>
<!-- Node50 -->
<g id="node45" class="node">
<title>Node50</title>
<g id="a_node45"><a xlink:title=" ">
<polygon fill="#e0e0e0" stroke="#999999" points="420.5,-184 325.5,-184 325.5,-165 420.5,-165 420.5,-184"/>
<text text-anchor="middle" x="373" y="-172" font-family="Helvetica,sans-Serif" font-size="10.00">wx/translation.h</text>
</a>
</g>
</g>
<!-- Node48&#45;&gt;Node50 -->
<g id="edge68" class="edge">
<title>Node48&#45;&gt;Node50</title>
<path fill="none" stroke="#63b8ff" d="M311.73,-219.98C322.73,-212 339.42,-199.88 352.6,-190.31"/>
<polygon fill="#63b8ff" stroke="#63b8ff" points="355.02,-192.88 361.06,-184.17 350.91,-187.21 355.02,-192.88"/>
</g>
<!-- Node51&#45;&gt;Node7 -->
<g id="edge71" class="edge">
<title>Node51&#45;&gt;Node7</title>
<path fill="none" stroke="#63b8ff" d="M570.78,-109.98C534.24,-100.89 476.22,-86.46 436.24,-76.51"/>
<polygon fill="#63b8ff" stroke="#63b8ff" points="437.04,-73.1 426.49,-74.08 435.35,-79.89 437.04,-73.1"/>
</g>
<!-- Node51&#45;&gt;Node8 -->
<g id="edge72" class="edge">
<title>Node51&#45;&gt;Node8</title>
<path fill="none" stroke="#63b8ff" d="M611.44,-109.75C616.89,-102.34 624.86,-91.5 631.56,-82.41"/>
<polygon fill="#63b8ff" stroke="#63b8ff" points="634.57,-84.22 637.68,-74.09 628.93,-80.07 634.57,-84.22"/>
</g>
<!-- Node51&#45;&gt;Node14 -->
<g id="edge74" class="edge">
<title>Node51&#45;&gt;Node14</title>
<path fill="none" stroke="#63b8ff" d="M597.9,-109.75C591.83,-102.26 582.91,-91.28 575.49,-82.13"/>
<polygon fill="#63b8ff" stroke="#63b8ff" points="577.99,-79.65 568.97,-74.09 572.55,-84.06 577.99,-79.65"/>
</g>
<!-- Node51&#45;&gt;Node39 -->
<g id="edge73" class="edge">
<title>Node51&#45;&gt;Node39</title>
<path fill="none" stroke="#63b8ff" d="M649.58,-113.27C740.41,-102.62 945.03,-78.63 1024.54,-69.31"/>
<polygon fill="#63b8ff" stroke="#63b8ff" points="1025.38,-72.73 1034.9,-68.09 1024.56,-65.78 1025.38,-72.73"/>
</g>
<!-- Node53&#45;&gt;Node13 -->
<g id="edge83" class="edge">
<title>Node53&#45;&gt;Node13</title>
<path fill="none" stroke="#63b8ff" d="M33,-274.84C33.44,-247.49 38.26,-161.73 80,-110 92.09,-95.02 110.57,-84.53 127.31,-77.52"/>
<polygon fill="#63b8ff" stroke="#63b8ff" points="128.85,-80.68 136.9,-73.79 126.31,-74.15 128.85,-80.68"/>
</g>
<!-- Node54&#45;&gt;Node3 -->
<g id="edge86" class="edge">
<title>Node54&#45;&gt;Node3</title>
<path fill="none" stroke="#63b8ff" d="M525,-329.75C525,-322.8 525,-312.85 525,-304.13"/>
<polygon fill="#63b8ff" stroke="#63b8ff" points="528.5,-304.09 525,-294.09 521.5,-304.09 528.5,-304.09"/>
</g>
<!-- Node55 -->
<g id="node50" class="node">
<title>Node55</title>
<g id="a_node50"><a xlink:title=" ">
<polygon fill="#e0e0e0" stroke="#999999" points="636.5,-294 565.5,-294 565.5,-275 636.5,-275 636.5,-294"/>
<text text-anchor="middle" x="601" y="-282" font-family="Helvetica,sans-Serif" font-size="10.00">wx/regex.h</text>
</a>
</g>
</g>
<!-- Node54&#45;&gt;Node55 -->
<g id="edge85" class="edge">
<title>Node54&#45;&gt;Node55</title>
<path fill="none" stroke="#63b8ff" d="M537.21,-329.98C548.78,-321.92 566.38,-309.65 580.16,-300.03"/>
<polygon fill="#63b8ff" stroke="#63b8ff" points="582.37,-302.76 588.57,-294.17 578.36,-297.02 582.37,-302.76"/>
</g>
</g>
</svg>
