<?xml version="1.0" encoding="UTF-8" standalone="no"?>
<!DOCTYPE svg PUBLIC "-//W3C//DTD SVG 1.1//EN"
 "http://www.w3.org/Graphics/SVG/1.1/DTD/svg11.dtd">
<!-- Generated by graphviz version 2.43.0 (0)
 -->
<!-- Title: src/cells/FunCell.cpp Pages: 1 -->
<svg width="2397pt" height="412pt"
 viewBox="0.00 0.00 2397.00 412.00" xmlns="http://www.w3.org/2000/svg" xmlns:xlink="http://www.w3.org/1999/xlink">
<g id="graph0" class="graph" transform="scale(1 1) rotate(0) translate(4 408)">
<title>src/cells/FunCell.cpp</title>
<!-- Node1 -->
<g id="node1" class="node">
<title>Node1</title>
<g id="a_node1"><a xlink:title="This file defines the class FunCell.">
<polygon fill="#999999" stroke="#666666" points="507,-404 391,-404 391,-385 507,-385 507,-404"/>
<text text-anchor="middle" x="449" y="-392" font-family="Helvetica,sans-Serif" font-size="10.00">src/cells/FunCell.cpp</text>
</a>
</g>
</g>
<!-- Node2 -->
<g id="node2" class="node">
<title>Node2</title>
<g id="a_node2"><a xlink:href="FunCell_8h.html" target="_top" xlink:title="This file declares the class FunCell() that represents a maxima function.">
<polygon fill="white" stroke="#666666" points="539,-349 477,-349 477,-330 539,-330 539,-349"/>
<text text-anchor="middle" x="508" y="-337" font-family="Helvetica,sans-Serif" font-size="10.00">FunCell.h</text>
</a>
</g>
</g>
<!-- Node1&#45;&gt;Node2 -->
<g id="edge1" class="edge">
<title>Node1&#45;&gt;Node2</title>
<path fill="none" stroke="#63b8ff" d="M458.48,-384.98C467.2,-377.15 480.34,-365.34 490.9,-355.86"/>
<polygon fill="#63b8ff" stroke="#63b8ff" points="493.25,-358.46 498.35,-349.17 488.57,-353.25 493.25,-358.46"/>
</g>
<!-- Node9 -->
<g id="node9" class="node">
<title>Node9</title>
<g id="a_node9"><a xlink:title=" ">
<polygon fill="#e0e0e0" stroke="#999999" points="535.5,-129 490.5,-129 490.5,-110 535.5,-110 535.5,-129"/>
<text text-anchor="middle" x="513" y="-117" font-family="Helvetica,sans-Serif" font-size="10.00">utility</text>
</a>
</g>
</g>
<!-- Node1&#45;&gt;Node9 -->
<g id="edge81" class="edge">
<title>Node1&#45;&gt;Node9</title>
<path fill="none" stroke="#63b8ff" d="M449,-384.82C449,-366.48 449,-322.44 449,-285.5 449,-285.5 449,-285.5 449,-228.5 449,-191.53 477.1,-156.14 496.06,-136.46"/>
<polygon fill="#63b8ff" stroke="#63b8ff" points="498.67,-138.8 503.28,-129.26 493.73,-133.84 498.67,-138.8"/>
</g>
<!-- Node13 -->
<g id="node13" class="node">
<title>Node13</title>
<g id="a_node13"><a xlink:title=" ">
<polygon fill="#e0e0e0" stroke="#999999" points="259,-129 201,-129 201,-110 259,-110 259,-129"/>
<text text-anchor="middle" x="230" y="-117" font-family="Helvetica,sans-Serif" font-size="10.00">memory</text>
</a>
</g>
</g>
<!-- Node1&#45;&gt;Node13 -->
<g id="edge82" class="edge">
<title>Node1&#45;&gt;Node13</title>
<path fill="none" stroke="#63b8ff" d="M430.94,-384.86C390.54,-364.71 291.97,-310.79 235,-239 213.59,-212.02 205.42,-198.81 212,-165 213.79,-155.8 217.48,-146.09 221.06,-138.1"/>
<polygon fill="#63b8ff" stroke="#63b8ff" points="224.23,-139.59 225.38,-129.06 217.91,-136.57 224.23,-139.59"/>
</g>
<!-- Node59 -->
<g id="node48" class="node">
<title>Node59</title>
<g id="a_node48"><a xlink:href="CellImpl_8h.html" target="_top" xlink:title="Macros and types used only by cell implementations, not by cell users.">
<polygon fill="white" stroke="#666666" points="66,-294 0,-294 0,-275 66,-275 66,-294"/>
<text text-anchor="middle" x="33" y="-282" font-family="Helvetica,sans-Serif" font-size="10.00">CellImpl.h</text>
</a>
</g>
</g>
<!-- Node1&#45;&gt;Node59 -->
<g id="edge76" class="edge">
<title>Node1&#45;&gt;Node59</title>
<path fill="none" stroke="#63b8ff" d="M390.77,-392.03C300.41,-388.83 131.45,-378.93 80,-349 62.08,-338.58 48.94,-318.33 41.18,-303.49"/>
<polygon fill="#63b8ff" stroke="#63b8ff" points="44.21,-301.72 36.67,-294.27 37.92,-304.79 44.21,-301.72"/>
</g>
<!-- Node60 -->
<g id="node49" class="node">
<title>Node60</title>
<g id="a_node49"><a xlink:href="TextCell_8h_source.html" target="_top" xlink:title=" ">
<polygon fill="white" stroke="#666666" points="682.5,-349 617.5,-349 617.5,-330 682.5,-330 682.5,-349"/>
<text text-anchor="middle" x="650" y="-337" font-family="Helvetica,sans-Serif" font-size="10.00">TextCell.h</text>
</a>
</g>
</g>
<!-- Node1&#45;&gt;Node60 -->
<g id="edge78" class="edge">
<title>Node1&#45;&gt;Node60</title>
<path fill="none" stroke="#63b8ff" d="M481.29,-384.98C515.62,-375.93 570.06,-361.58 607.77,-351.64"/>
<polygon fill="#63b8ff" stroke="#63b8ff" points="608.68,-355.02 617.45,-349.08 606.89,-348.25 608.68,-355.02"/>
</g>
<!-- Node3 -->
<g id="node3" class="node">
<title>Node3</title>
<g id="a_node3"><a xlink:href="Cell_8h.html" target="_top" xlink:title="The definition of the base class of all cells the worksheet consists of.">
<polygon fill="white" stroke="#666666" points="672,-294 628,-294 628,-275 672,-275 672,-294"/>
<text text-anchor="middle" x="650" y="-282" font-family="Helvetica,sans-Serif" font-size="10.00">Cell.h</text>
</a>
</g>
</g>
<!-- Node2&#45;&gt;Node3 -->
<g id="edge2" class="edge">
<title>Node2&#45;&gt;Node3</title>
<path fill="none" stroke="#63b8ff" d="M530.81,-329.98C554.45,-321.16 591.58,-307.31 618.11,-297.4"/>
<polygon fill="#63b8ff" stroke="#63b8ff" points="619.57,-300.6 627.71,-293.82 617.12,-294.04 619.57,-300.6"/>
</g>
<!-- Node2&#45;&gt;Node13 -->
<g id="edge75" class="edge">
<title>Node2&#45;&gt;Node13</title>
<path fill="none" stroke="#63b8ff" d="M476.7,-331.33C427.32,-318.89 329.98,-289.64 262,-239 236.89,-220.3 228.36,-213.54 218,-184 212.84,-169.28 216.82,-151.81 221.54,-138.93"/>
<polygon fill="#63b8ff" stroke="#63b8ff" points="224.92,-139.92 225.5,-129.34 218.45,-137.25 224.92,-139.92"/>
</g>
<!-- Node4 -->
<g id="node4" class="node">
<title>Node4</title>
<g id="a_node4"><a xlink:href="precomp_8h_source.html" target="_top" xlink:title=" ">
<polygon fill="white" stroke="#666666" points="1341.5,-74 1264.5,-74 1264.5,-55 1341.5,-55 1341.5,-74"/>
<text text-anchor="middle" x="1303" y="-62" font-family="Helvetica,sans-Serif" font-size="10.00">../precomp.h</text>
</a>
</g>
</g>
<!-- Node3&#45;&gt;Node4 -->
<g id="edge3" class="edge">
<title>Node3&#45;&gt;Node4</title>
<path fill="none" stroke="#63b8ff" d="M672.33,-277.37C675.57,-276.54 678.86,-275.73 682,-275 761.9,-256.46 783.47,-259.07 863,-239 943.7,-218.63 964.17,-213.49 1042,-184 1130.2,-150.59 1230.85,-101.7 1277.18,-78.56"/>
<polygon fill="#63b8ff" stroke="#63b8ff" points="1278.85,-81.64 1286.22,-74.03 1275.71,-75.39 1278.85,-81.64"/>
</g>
<!-- Node6 -->
<g id="node6" class="node">
<title>Node6</title>
<g id="a_node6"><a xlink:href="CellPtr_8h.html" target="_top" xlink:title="Implementation of an observing weak Cell pointer.">
<polygon fill="white" stroke="#666666" points="572.5,-184 515.5,-184 515.5,-165 572.5,-165 572.5,-184"/>
<text text-anchor="middle" x="544" y="-172" font-family="Helvetica,sans-Serif" font-size="10.00">CellPtr.h</text>
</a>
</g>
</g>
<!-- Node3&#45;&gt;Node6 -->
<g id="edge5" class="edge">
<title>Node3&#45;&gt;Node6</title>
<path fill="none" stroke="#63b8ff" d="M642.53,-274.62C631.89,-262.09 611.59,-238.7 593,-220 582.97,-209.92 571.19,-199.18 561.69,-190.78"/>
<polygon fill="#63b8ff" stroke="#63b8ff" points="563.86,-188.03 554.03,-184.08 559.25,-193.3 563.86,-188.03"/>
</g>
<!-- Node3&#45;&gt;Node13 -->
<g id="edge72" class="edge">
<title>Node3&#45;&gt;Node13</title>
<path fill="none" stroke="#63b8ff" d="M627.68,-283.29C574.05,-282.18 434.33,-275.69 325,-239 277.65,-223.11 252.24,-227.1 227,-184 219.07,-170.46 220.88,-152.37 224.05,-138.96"/>
<polygon fill="#63b8ff" stroke="#63b8ff" points="227.51,-139.58 226.85,-129.01 220.77,-137.68 227.51,-139.58"/>
</g>
<!-- Node14 -->
<g id="node14" class="node">
<title>Node14</title>
<g id="a_node14"><a xlink:title=" ">
<polygon fill="#e0e0e0" stroke="#999999" points="784.5,-129 715.5,-129 715.5,-110 784.5,-110 784.5,-129"/>
<text text-anchor="middle" x="750" y="-117" font-family="Helvetica,sans-Serif" font-size="10.00">type_traits</text>
</a>
</g>
</g>
<!-- Node3&#45;&gt;Node14 -->
<g id="edge74" class="edge">
<title>Node3&#45;&gt;Node14</title>
<path fill="none" stroke="#63b8ff" d="M655.38,-274.74C671.25,-248.87 718.11,-172.48 739.34,-137.88"/>
<polygon fill="#63b8ff" stroke="#63b8ff" points="742.35,-139.66 744.6,-129.31 736.38,-136 742.35,-139.66"/>
</g>
<!-- Node15 -->
<g id="node15" class="node">
<title>Node15</title>
<g id="a_node15"><a xlink:href="CellIterators_8h.html" target="_top" xlink:title="Declares the various iterators useful with the Cell class.">
<polygon fill="white" stroke="#666666" points="677,-184 591,-184 591,-165 677,-165 677,-184"/>
<text text-anchor="middle" x="634" y="-172" font-family="Helvetica,sans-Serif" font-size="10.00">CellIterators.h</text>
</a>
</g>
</g>
<!-- Node3&#45;&gt;Node15 -->
<g id="edge14" class="edge">
<title>Node3&#45;&gt;Node15</title>
<path fill="none" stroke="#63b8ff" d="M648.69,-274.66C646.1,-257.17 640.27,-217.8 636.78,-194.27"/>
<polygon fill="#63b8ff" stroke="#63b8ff" points="640.21,-193.54 635.28,-184.16 633.29,-194.56 640.21,-193.54"/>
</g>
<!-- Node17 -->
<g id="node17" class="node">
<title>Node17</title>
<g id="a_node17"><a xlink:href="Configuration_8h_source.html" target="_top" xlink:title=" ">
<polygon fill="white" stroke="#666666" points="1622.5,-239 1531.5,-239 1531.5,-220 1622.5,-220 1622.5,-239"/>
<text text-anchor="middle" x="1577" y="-227" font-family="Helvetica,sans-Serif" font-size="10.00">Configuration.h</text>
</a>
</g>
</g>
<!-- Node3&#45;&gt;Node17 -->
<g id="edge19" class="edge">
<title>Node3&#45;&gt;Node17</title>
<path fill="none" stroke="#63b8ff" d="M672.25,-276.95C675.5,-276.18 678.82,-275.5 682,-275 844.89,-249.61 1351.5,-235.76 1521.06,-231.74"/>
<polygon fill="#63b8ff" stroke="#63b8ff" points="1521.35,-235.24 1531.26,-231.5 1521.18,-228.24 1521.35,-235.24"/>
</g>
<!-- Node25 -->
<g id="node24" class="node">
<title>Node25</title>
<g id="a_node24"><a xlink:href="TextStyle_8h.html" target="_top" xlink:title="This file declares everything needed for the text style system used to style all the elements on the ...">
<polygon fill="#fff0f0" stroke="red" points="1013,-129 917,-129 917,-110 1013,-110 1013,-129"/>
<text text-anchor="middle" x="965" y="-117" font-family="Helvetica,sans-Serif" font-size="10.00">cells/TextStyle.h</text>
</a>
</g>
</g>
<!-- Node3&#45;&gt;Node25 -->
<g id="edge64" class="edge">
<title>Node3&#45;&gt;Node25</title>
<path fill="none" stroke="#63b8ff" d="M668.43,-274.84C687.08,-266.02 716.68,-251.84 742,-239 814.76,-202.09 899.57,-156.23 940.46,-133.93"/>
<polygon fill="#63b8ff" stroke="#63b8ff" points="942.33,-136.9 949.43,-129.04 938.97,-130.76 942.33,-136.9"/>
</g>
<!-- Node27 -->
<g id="node26" class="node">
<title>Node27</title>
<g id="a_node26"><a xlink:title=" ">
<polygon fill="#e0e0e0" stroke="#999999" points="406,-74 368,-74 368,-55 406,-55 406,-74"/>
<text text-anchor="middle" x="387" y="-62" font-family="Helvetica,sans-Serif" font-size="10.00">map</text>
</a>
</g>
</g>
<!-- Node3&#45;&gt;Node27 -->
<g id="edge71" class="edge">
<title>Node3&#45;&gt;Node27</title>
<path fill="none" stroke="#63b8ff" d="M627.99,-283.15C555.57,-281.67 325.71,-274.23 262,-239 234.61,-223.85 234.58,-210.55 218,-184 199.54,-154.43 170.26,-137.25 192,-110 212.42,-84.39 308.65,-72.36 357.86,-67.8"/>
<polygon fill="#63b8ff" stroke="#63b8ff" points="358.23,-71.28 367.88,-66.92 357.61,-64.31 358.23,-71.28"/>
</g>
<!-- Node49 -->
<g id="node36" class="node">
<title>Node49</title>
<g id="a_node36"><a xlink:title=" ">
<polygon fill="#e0e0e0" stroke="#999999" points="1078.5,-129 1031.5,-129 1031.5,-110 1078.5,-110 1078.5,-129"/>
<text text-anchor="middle" x="1055" y="-117" font-family="Helvetica,sans-Serif" font-size="10.00">vector</text>
</a>
</g>
</g>
<!-- Node3&#45;&gt;Node49 -->
<g id="edge73" class="edge">
<title>Node3&#45;&gt;Node49</title>
<path fill="none" stroke="#63b8ff" d="M672.19,-277.59C751.77,-256.41 1018.22,-185.4 1020,-184 1034.53,-172.61 1043.89,-153.44 1049.25,-139.13"/>
<polygon fill="#63b8ff" stroke="#63b8ff" points="1052.67,-139.95 1052.58,-129.35 1046.04,-137.69 1052.67,-139.95"/>
</g>
<!-- Node36 -->
<g id="node41" class="node">
<title>Node36</title>
<g id="a_node41"><a xlink:title=" ">
<polygon fill="#e0e0e0" stroke="#999999" points="2389,-184 2325,-184 2325,-165 2389,-165 2389,-184"/>
<text text-anchor="middle" x="2357" y="-172" font-family="Helvetica,sans-Serif" font-size="10.00">algorithm</text>
</a>
</g>
</g>
<!-- Node3&#45;&gt;Node36 -->
<g id="edge70" class="edge">
<title>Node3&#45;&gt;Node36</title>
<path fill="none" stroke="#63b8ff" d="M672.25,-276.92C675.49,-276.15 678.82,-275.48 682,-275 1099.86,-212.38 1210.22,-264.06 1632,-239 1934.23,-221.04 2010.86,-223.78 2311,-184 2312.27,-183.83 2313.55,-183.65 2314.85,-183.46"/>
<polygon fill="#63b8ff" stroke="#63b8ff" points="2315.57,-186.89 2324.9,-181.86 2314.47,-179.98 2315.57,-186.89"/>
</g>
<!-- Node54 -->
<g id="node43" class="node">
<title>Node54</title>
<g id="a_node43"><a xlink:href="StringUtils_8h_source.html" target="_top" xlink:title=" ">
<polygon fill="white" stroke="#666666" points="411.5,-239 334.5,-239 334.5,-220 411.5,-220 411.5,-239"/>
<text text-anchor="middle" x="373" y="-227" font-family="Helvetica,sans-Serif" font-size="10.00">StringUtils.h</text>
</a>
</g>
</g>
<!-- Node3&#45;&gt;Node54 -->
<g id="edge61" class="edge">
<title>Node3&#45;&gt;Node54</title>
<path fill="none" stroke="#63b8ff" d="M627.8,-279.25C583.38,-270.75 482.64,-251.48 421.98,-239.87"/>
<polygon fill="#63b8ff" stroke="#63b8ff" points="422.36,-236.38 411.88,-237.94 421.04,-243.26 422.36,-236.38"/>
</g>
<!-- Node57 -->
<g id="node46" class="node">
<title>Node57</title>
<g id="a_node46"><a xlink:href="CachedValue_8h.html" target="_top" xlink:title="Declares &quot;mostly read&#45;only&quot; wrappers around values that are expensive to compute and are thus cached.">
<polygon fill="#fff0f0" stroke="red" points="822.5,-184 733.5,-184 733.5,-165 822.5,-165 822.5,-184"/>
<text text-anchor="middle" x="778" y="-172" font-family="Helvetica,sans-Serif" font-size="10.00">CachedValue.h</text>
</a>
</g>
</g>
<!-- Node3&#45;&gt;Node57 -->
<g id="edge65" class="edge">
<title>Node3&#45;&gt;Node57</title>
<path fill="none" stroke="#63b8ff" d="M665.56,-274.97C680.06,-266.68 701.96,-253.28 719,-239 736.03,-224.73 753.04,-205.8 764.39,-192.33"/>
<polygon fill="#63b8ff" stroke="#63b8ff" points="767.3,-194.3 770.98,-184.37 761.91,-189.84 767.3,-194.3"/>
</g>
<!-- Node58 -->
<g id="node47" class="node">
<title>Node58</title>
<g id="a_node47"><a xlink:title=" ">
<polygon fill="#e0e0e0" stroke="#999999" points="584,-239 520,-239 520,-220 584,-220 584,-239"/>
<text text-anchor="middle" x="552" y="-227" font-family="Helvetica,sans-Serif" font-size="10.00">wx/defs.h</text>
</a>
</g>
</g>
<!-- Node3&#45;&gt;Node58 -->
<g id="edge69" class="edge">
<title>Node3&#45;&gt;Node58</title>
<path fill="none" stroke="#63b8ff" d="M634.25,-274.98C618.77,-266.61 594.91,-253.7 576.86,-243.95"/>
<polygon fill="#63b8ff" stroke="#63b8ff" points="578.49,-240.85 568.03,-239.17 575.16,-247.01 578.49,-240.85"/>
</g>
<!-- Node5 -->
<g id="node5" class="node">
<title>Node5</title>
<g id="a_node5"><a xlink:title=" ">
<polygon fill="#e0e0e0" stroke="#999999" points="1343.5,-19 1262.5,-19 1262.5,0 1343.5,0 1343.5,-19"/>
<text text-anchor="middle" x="1303" y="-7" font-family="Helvetica,sans-Serif" font-size="10.00">BuildConfig.h</text>
</a>
</g>
</g>
<!-- Node4&#45;&gt;Node5 -->
<g id="edge4" class="edge">
<title>Node4&#45;&gt;Node5</title>
<path fill="none" stroke="#63b8ff" d="M1303,-54.75C1303,-47.8 1303,-37.85 1303,-29.13"/>
<polygon fill="#63b8ff" stroke="#63b8ff" points="1306.5,-29.09 1303,-19.09 1299.5,-29.09 1306.5,-29.09"/>
</g>
<!-- Node7 -->
<g id="node7" class="node">
<title>Node7</title>
<g id="a_node7"><a xlink:title=" ">
<polygon fill="#e0e0e0" stroke="#999999" points="626.5,-129 553.5,-129 553.5,-110 626.5,-110 626.5,-129"/>
<text text-anchor="middle" x="590" y="-117" font-family="Helvetica,sans-Serif" font-size="10.00">wx/debug.h</text>
</a>
</g>
</g>
<!-- Node6&#45;&gt;Node7 -->
<g id="edge6" class="edge">
<title>Node6&#45;&gt;Node7</title>
<path fill="none" stroke="#63b8ff" d="M551.6,-164.75C558.16,-157.18 567.82,-146.05 575.81,-136.84"/>
<polygon fill="#63b8ff" stroke="#63b8ff" points="578.63,-138.94 582.55,-129.09 573.35,-134.35 578.63,-138.94"/>
</g>
<!-- Node8 -->
<g id="node8" class="node">
<title>Node8</title>
<g id="a_node8"><a xlink:title=" ">
<polygon fill="#e0e0e0" stroke="#999999" points="861,-129 803,-129 803,-110 861,-110 861,-129"/>
<text text-anchor="middle" x="832" y="-117" font-family="Helvetica,sans-Serif" font-size="10.00">wx/log.h</text>
</a>
</g>
</g>
<!-- Node6&#45;&gt;Node8 -->
<g id="edge7" class="edge">
<title>Node6&#45;&gt;Node8</title>
<path fill="none" stroke="#63b8ff" d="M572.6,-166.94C575.77,-166.26 578.95,-165.6 582,-165 672.66,-147.17 698.52,-147.4 793,-129.1"/>
<polygon fill="#63b8ff" stroke="#63b8ff" points="793.84,-132.51 802.99,-127.15 792.5,-125.64 793.84,-132.51"/>
</g>
<!-- Node6&#45;&gt;Node9 -->
<g id="edge8" class="edge">
<title>Node6&#45;&gt;Node9</title>
<path fill="none" stroke="#63b8ff" d="M538.88,-164.75C534.64,-157.49 528.47,-146.95 523.22,-137.98"/>
<polygon fill="#63b8ff" stroke="#63b8ff" points="526.09,-135.95 518.02,-129.09 520.05,-139.49 526.09,-135.95"/>
</g>
<!-- Node10 -->
<g id="node10" class="node">
<title>Node10</title>
<g id="a_node10"><a xlink:title=" ">
<polygon fill="#e0e0e0" stroke="#999999" points="353.5,-129 300.5,-129 300.5,-110 353.5,-110 353.5,-129"/>
<text text-anchor="middle" x="327" y="-117" font-family="Helvetica,sans-Serif" font-size="10.00">cstddef</text>
</a>
</g>
</g>
<!-- Node6&#45;&gt;Node10 -->
<g id="edge9" class="edge">
<title>Node6&#45;&gt;Node10</title>
<path fill="none" stroke="#63b8ff" d="M515.18,-166.46C476.1,-156.92 406.26,-139.86 363.53,-129.42"/>
<polygon fill="#63b8ff" stroke="#63b8ff" points="364.09,-125.96 353.55,-126.98 362.43,-132.76 364.09,-125.96"/>
</g>
<!-- Node11 -->
<g id="node11" class="node">
<title>Node11</title>
<g id="a_node11"><a xlink:title=" ">
<polygon fill="#e0e0e0" stroke="#999999" points="727,-74 677,-74 677,-55 727,-55 727,-74"/>
<text text-anchor="middle" x="702" y="-62" font-family="Helvetica,sans-Serif" font-size="10.00">cstdint</text>
</a>
</g>
</g>
<!-- Node6&#45;&gt;Node11 -->
<g id="edge10" class="edge">
<title>Node6&#45;&gt;Node11</title>
<path fill="none" stroke="#63b8ff" d="M524.32,-164.97C499.96,-153.23 463.69,-131.15 481,-110 504.06,-81.83 610.29,-71.11 666.65,-67.34"/>
<polygon fill="#63b8ff" stroke="#63b8ff" points="667.13,-70.82 676.89,-66.7 666.69,-63.83 667.13,-70.82"/>
</g>
<!-- Node12 -->
<g id="node12" class="node">
<title>Node12</title>
<g id="a_node12"><a xlink:title=" ">
<polygon fill="#e0e0e0" stroke="#999999" points="434,-129 372,-129 372,-110 434,-110 434,-129"/>
<text text-anchor="middle" x="403" y="-117" font-family="Helvetica,sans-Serif" font-size="10.00">cinttypes</text>
</a>
</g>
</g>
<!-- Node6&#45;&gt;Node12 -->
<g id="edge11" class="edge">
<title>Node6&#45;&gt;Node12</title>
<path fill="none" stroke="#63b8ff" d="M521.35,-164.98C498.15,-156.27 461.88,-142.63 435.6,-132.75"/>
<polygon fill="#63b8ff" stroke="#63b8ff" points="436.66,-129.41 426.07,-129.17 434.2,-135.97 436.66,-129.41"/>
</g>
<!-- Node6&#45;&gt;Node13 -->
<g id="edge12" class="edge">
<title>Node6&#45;&gt;Node13</title>
<path fill="none" stroke="#63b8ff" d="M515.34,-167.7C510.56,-166.77 505.64,-165.84 501,-165 418.75,-150.12 322.06,-134.75 269.28,-126.54"/>
<polygon fill="#63b8ff" stroke="#63b8ff" points="269.75,-123.07 259.33,-125 268.67,-129.99 269.75,-123.07"/>
</g>
<!-- Node6&#45;&gt;Node14 -->
<g id="edge13" class="edge">
<title>Node6&#45;&gt;Node14</title>
<path fill="none" stroke="#63b8ff" d="M572.64,-166.13C607.5,-157.16 666.68,-141.94 707.01,-131.56"/>
<polygon fill="#63b8ff" stroke="#63b8ff" points="708.02,-134.92 716.83,-129.03 706.27,-128.14 708.02,-134.92"/>
</g>
<!-- Node15&#45;&gt;Node7 -->
<g id="edge15" class="edge">
<title>Node15&#45;&gt;Node7</title>
<path fill="none" stroke="#63b8ff" d="M626.73,-164.75C620.46,-157.18 611.21,-146.05 603.57,-136.84"/>
<polygon fill="#63b8ff" stroke="#63b8ff" points="606.21,-134.55 597.13,-129.09 600.83,-139.02 606.21,-134.55"/>
</g>
<!-- Node15&#45;&gt;Node13 -->
<g id="edge16" class="edge">
<title>Node15&#45;&gt;Node13</title>
<path fill="none" stroke="#63b8ff" d="M590.92,-166.46C587.57,-165.95 584.23,-165.46 581,-165 452.42,-146.71 419.77,-145.96 291,-129 283.94,-128.07 276.42,-127.05 269.17,-126.05"/>
<polygon fill="#63b8ff" stroke="#63b8ff" points="269.54,-122.56 259.15,-124.65 268.58,-129.5 269.54,-122.56"/>
</g>
<!-- Node15&#45;&gt;Node14 -->
<g id="edge17" class="edge">
<title>Node15&#45;&gt;Node14</title>
<path fill="none" stroke="#63b8ff" d="M652.64,-164.98C671.3,-156.46 700.25,-143.23 721.74,-133.41"/>
<polygon fill="#63b8ff" stroke="#63b8ff" points="723.38,-136.51 731.02,-129.17 720.47,-130.14 723.38,-136.51"/>
</g>
<!-- Node16 -->
<g id="node16" class="node">
<title>Node16</title>
<g id="a_node16"><a xlink:title=" ">
<polygon fill="#e0e0e0" stroke="#999999" points="697.5,-129 644.5,-129 644.5,-110 697.5,-110 697.5,-129"/>
<text text-anchor="middle" x="671" y="-117" font-family="Helvetica,sans-Serif" font-size="10.00">iterator</text>
</a>
</g>
</g>
<!-- Node15&#45;&gt;Node16 -->
<g id="edge18" class="edge">
<title>Node15&#45;&gt;Node16</title>
<path fill="none" stroke="#63b8ff" d="M640.11,-164.75C645.28,-157.34 652.85,-146.5 659.19,-137.41"/>
<polygon fill="#63b8ff" stroke="#63b8ff" points="662.15,-139.29 665,-129.09 656.41,-135.29 662.15,-139.29"/>
</g>
<!-- Node17&#45;&gt;Node4 -->
<g id="edge20" class="edge">
<title>Node17&#45;&gt;Node4</title>
<path fill="none" stroke="#63b8ff" d="M1577.94,-219.82C1579.78,-197.89 1581.28,-139.88 1550,-110 1522.24,-83.49 1415.69,-72.39 1351.96,-68.05"/>
<polygon fill="#63b8ff" stroke="#63b8ff" points="1351.94,-64.54 1341.73,-67.38 1351.48,-71.52 1351.94,-64.54"/>
</g>
<!-- Node17&#45;&gt;Node11 -->
<g id="edge49" class="edge">
<title>Node17&#45;&gt;Node11</title>
<path fill="none" stroke="#63b8ff" d="M1531.41,-227.32C1393.84,-223.47 989.08,-210.03 936,-184 896.43,-164.6 907.55,-133.06 870,-110 867.11,-108.23 785.48,-87.01 737.09,-74.53"/>
<polygon fill="#63b8ff" stroke="#63b8ff" points="737.87,-71.11 727.31,-72 736.12,-77.89 737.87,-71.11"/>
</g>
<!-- Node17&#45;&gt;Node13 -->
<g id="edge50" class="edge">
<title>Node17&#45;&gt;Node13</title>
<path fill="none" stroke="#63b8ff" d="M1531.44,-227.82C1353.96,-225 708.66,-212.91 506,-184 471.1,-179.02 463.31,-173.07 429,-165 373.52,-151.95 309.12,-137.72 268.96,-128.95"/>
<polygon fill="#63b8ff" stroke="#63b8ff" points="269.56,-125.5 259.05,-126.79 268.07,-132.34 269.56,-125.5"/>
</g>
<!-- Node18 -->
<g id="node18" class="node">
<title>Node18</title>
<g id="a_node18"><a xlink:title=" ">
<polygon fill="#e0e0e0" stroke="#999999" points="2065.5,-184 2008.5,-184 2008.5,-165 2065.5,-165 2065.5,-184"/>
<text text-anchor="middle" x="2037" y="-172" font-family="Helvetica,sans-Serif" font-size="10.00">wx/wx.h</text>
</a>
</g>
</g>
<!-- Node17&#45;&gt;Node18 -->
<g id="edge21" class="edge">
<title>Node17&#45;&gt;Node18</title>
<path fill="none" stroke="#63b8ff" d="M1622.52,-224.98C1699.36,-218.73 1859.57,-204.42 1994,-184 1995.46,-183.78 1996.94,-183.54 1998.44,-183.29"/>
<polygon fill="#63b8ff" stroke="#63b8ff" points="1999.15,-186.72 2008.38,-181.53 1997.92,-179.83 1999.15,-186.72"/>
</g>
<!-- Node19 -->
<g id="node19" class="node">
<title>Node19</title>
<g id="a_node19"><a xlink:title=" ">
<polygon fill="#e0e0e0" stroke="#999999" points="1743,-74 1671,-74 1671,-55 1743,-55 1743,-74"/>
<text text-anchor="middle" x="1707" y="-62" font-family="Helvetica,sans-Serif" font-size="10.00">wx/config.h</text>
</a>
</g>
</g>
<!-- Node17&#45;&gt;Node19 -->
<g id="edge22" class="edge">
<title>Node17&#45;&gt;Node19</title>
<path fill="none" stroke="#63b8ff" d="M1622.58,-220.77C1624.41,-220.5 1626.22,-220.24 1628,-220 1701.74,-209.88 1911.28,-239.39 1961,-184 2024.63,-113.12 1842.44,-81.35 1753.16,-70.32"/>
<polygon fill="#63b8ff" stroke="#63b8ff" points="1753.36,-66.82 1743.01,-69.11 1752.53,-73.77 1753.36,-66.82"/>
</g>
<!-- Node20 -->
<g id="node20" class="node">
<title>Node20</title>
<g id="a_node20"><a xlink:title=" ">
<polygon fill="#e0e0e0" stroke="#999999" points="2160.5,-184 2083.5,-184 2083.5,-165 2160.5,-165 2160.5,-184"/>
<text text-anchor="middle" x="2122" y="-172" font-family="Helvetica,sans-Serif" font-size="10.00">wx/display.h</text>
</a>
</g>
</g>
<!-- Node17&#45;&gt;Node20 -->
<g id="edge23" class="edge">
<title>Node17&#45;&gt;Node20</title>
<path fill="none" stroke="#63b8ff" d="M1622.81,-225.79C1709.07,-220.38 1901.67,-206.88 2073.34,-184.12"/>
<polygon fill="#63b8ff" stroke="#63b8ff" points="2073.87,-187.58 2083.31,-182.78 2072.94,-180.64 2073.87,-187.58"/>
</g>
<!-- Node21 -->
<g id="node21" class="node">
<title>Node21</title>
<g id="a_node21"><a xlink:title=" ">
<polygon fill="#e0e0e0" stroke="#999999" points="2269,-184 2179,-184 2179,-165 2269,-165 2269,-184"/>
<text text-anchor="middle" x="2224" y="-172" font-family="Helvetica,sans-Serif" font-size="10.00">wx/fontenum.h</text>
</a>
</g>
</g>
<!-- Node17&#45;&gt;Node21 -->
<g id="edge24" class="edge">
<title>Node17&#45;&gt;Node21</title>
<path fill="none" stroke="#63b8ff" d="M1622.5,-226.35C1720.47,-221.44 1958.83,-208.05 2168.97,-184.02"/>
<polygon fill="#63b8ff" stroke="#63b8ff" points="2169.42,-187.49 2178.96,-182.87 2168.62,-180.54 2169.42,-187.49"/>
</g>
<!-- Node22 -->
<g id="node22" class="node">
<title>Node22</title>
<g id="a_node22"><a xlink:title=" ">
<polygon fill="#e0e0e0" stroke="#999999" points="2114,-74 2026,-74 2026,-55 2114,-55 2114,-74"/>
<text text-anchor="middle" x="2070" y="-62" font-family="Helvetica,sans-Serif" font-size="10.00">wx/hashmap.h</text>
</a>
</g>
</g>
<!-- Node17&#45;&gt;Node22 -->
<g id="edge25" class="edge">
<title>Node17&#45;&gt;Node22</title>
<path fill="none" stroke="#63b8ff" d="M1622.57,-220.65C1624.4,-220.42 1626.22,-220.2 1628,-220 1699.89,-212.04 2228.29,-236.54 2278,-184 2330.14,-128.89 2202.15,-92.12 2124.41,-75.56"/>
<polygon fill="#63b8ff" stroke="#63b8ff" points="2124.77,-72.06 2114.27,-73.45 2123.35,-78.91 2124.77,-72.06"/>
</g>
<!-- Node23 -->
<g id="node23" class="node">
<title>Node23</title>
<g id="a_node23"><a xlink:href="LoggingMessageDialog_8h.html" target="_top" xlink:title="This file declares a message dialog that sends its contents to the log message sink.">
<polygon fill="#fff0f0" stroke="red" points="1281.5,-184 1104.5,-184 1104.5,-165 1281.5,-165 1281.5,-184"/>
<text text-anchor="middle" x="1193" y="-172" font-family="Helvetica,sans-Serif" font-size="10.00">dialogs/LoggingMessageDialog.h</text>
</a>
</g>
</g>
<!-- Node17&#45;&gt;Node23 -->
<g id="edge26" class="edge">
<title>Node17&#45;&gt;Node23</title>
<path fill="none" stroke="#63b8ff" d="M1531.44,-222.21C1465.56,-213.12 1343.05,-196.21 1264.9,-185.42"/>
<polygon fill="#63b8ff" stroke="#63b8ff" points="1265.03,-181.91 1254.65,-184.01 1264.08,-188.84 1265.03,-181.91"/>
</g>
<!-- Node17&#45;&gt;Node25 -->
<g id="edge29" class="edge">
<title>Node17&#45;&gt;Node25</title>
<path fill="none" stroke="#63b8ff" d="M1531.49,-228.78C1393.33,-229.16 985.73,-226.63 946,-184 934.16,-171.29 942.89,-151.5 952.04,-137.39"/>
<polygon fill="#63b8ff" stroke="#63b8ff" points="955.01,-139.26 957.91,-129.07 949.29,-135.22 955.01,-139.26"/>
</g>
<!-- Node40 -->
<g id="node31" class="node">
<title>Node40</title>
<g id="a_node31"><a xlink:title=" ">
<polygon fill="#e0e0e0" stroke="#999999" points="1246.5,-74 1153.5,-74 1153.5,-55 1246.5,-55 1246.5,-74"/>
<text text-anchor="middle" x="1200" y="-62" font-family="Helvetica,sans-Serif" font-size="10.00">unordered_map</text>
</a>
</g>
</g>
<!-- Node17&#45;&gt;Node40 -->
<g id="edge52" class="edge">
<title>Node17&#45;&gt;Node40</title>
<path fill="none" stroke="#63b8ff" d="M1531.3,-224.34C1487.41,-219.09 1419.99,-207.72 1366,-184 1305.51,-157.43 1245.02,-106.64 1216.66,-81.05"/>
<polygon fill="#63b8ff" stroke="#63b8ff" points="1218.97,-78.43 1209.23,-74.26 1214.24,-83.59 1218.97,-78.43"/>
</g>
<!-- Node41 -->
<g id="node32" class="node">
<title>Node41</title>
<g id="a_node32"><a xlink:href="RenderContext_8h.html" target="_top" xlink:title="Declares RenderContext: the per&#45;render&#45;pass state of a worksheet.">
<polygon fill="#fff0f0" stroke="red" points="1473,-184 1375,-184 1375,-165 1473,-165 1473,-184"/>
<text text-anchor="middle" x="1424" y="-172" font-family="Helvetica,sans-Serif" font-size="10.00">RenderContext.h</text>
</a>
</g>
</g>
<!-- Node17&#45;&gt;Node41 -->
<g id="edge41" class="edge">
<title>Node17&#45;&gt;Node41</title>
<path fill="none" stroke="#63b8ff" d="M1552.42,-219.98C1526.95,-211.16 1486.96,-197.31 1458.37,-187.41"/>
<polygon fill="#63b8ff" stroke="#63b8ff" points="1459.37,-184.05 1448.77,-184.08 1457.08,-190.66 1459.37,-184.05"/>
</g>
<!-- Node46 -->
<g id="node33" class="node">
<title>Node46</title>
<g id="a_node33"><a xlink:title=" ">
<polygon fill="#e0e0e0" stroke="#999999" points="1457,-129 1407,-129 1407,-110 1457,-110 1457,-129"/>
<text text-anchor="middle" x="1432" y="-117" font-family="Helvetica,sans-Serif" font-size="10.00">atomic</text>
</a>
</g>
</g>
<!-- Node17&#45;&gt;Node46 -->
<g id="edge58" class="edge">
<title>Node17&#45;&gt;Node46</title>
<path fill="none" stroke="#63b8ff" d="M1565.13,-219.66C1540.26,-201.14 1482.45,-158.08 1451.84,-135.28"/>
<polygon fill="#63b8ff" stroke="#63b8ff" points="1453.74,-132.32 1443.62,-129.16 1449.55,-137.94 1453.74,-132.32"/>
</g>
<!-- Node47 -->
<g id="node34" class="node">
<title>Node47</title>
<g id="a_node34"><a xlink:title=" ">
<polygon fill="#e0e0e0" stroke="#999999" points="1541,-129 1491,-129 1491,-110 1541,-110 1541,-129"/>
<text text-anchor="middle" x="1516" y="-117" font-family="Helvetica,sans-Serif" font-size="10.00">chrono</text>
</a>
</g>
</g>
<!-- Node17&#45;&gt;Node47 -->
<g id="edge59" class="edge">
<title>Node17&#45;&gt;Node47</title>
<path fill="none" stroke="#63b8ff" d="M1572.01,-219.66C1561.95,-201.85 1539.08,-161.37 1525.89,-138.01"/>
<polygon fill="#63b8ff" stroke="#63b8ff" points="1528.86,-136.14 1520.89,-129.16 1522.76,-139.59 1528.86,-136.14"/>
</g>
<!-- Node48 -->
<g id="node35" class="node">
<title>Node48</title>
<g id="a_node35"><a xlink:href="Styles_8h.html" target="_top" xlink:title="This file declares the class Styles.">
<polygon fill="white" stroke="#666666" points="1011,-184 955,-184 955,-165 1011,-165 1011,-184"/>
<text text-anchor="middle" x="983" y="-172" font-family="Helvetica,sans-Serif" font-size="10.00">Styles.h</text>
</a>
</g>
</g>
<!-- Node17&#45;&gt;Node48 -->
<g id="edge45" class="edge">
<title>Node17&#45;&gt;Node48</title>
<path fill="none" stroke="#63b8ff" d="M1531.38,-224.43C1418.18,-214.33 1126.02,-188.26 1021.17,-178.91"/>
<polygon fill="#63b8ff" stroke="#63b8ff" points="1021.31,-175.4 1011.04,-178 1020.69,-182.38 1021.31,-175.4"/>
</g>
<!-- Node17&#45;&gt;Node49 -->
<g id="edge56" class="edge">
<title>Node17&#45;&gt;Node49</title>
<path fill="none" stroke="#63b8ff" d="M1531.23,-223.54C1481.59,-217.39 1400.41,-205.05 1333,-184 1313.44,-177.89 1310.54,-171.16 1291,-165 1220.73,-142.83 1135,-130.06 1088.65,-124.28"/>
<polygon fill="#63b8ff" stroke="#63b8ff" points="1088.92,-120.79 1078.57,-123.06 1088.07,-127.74 1088.92,-120.79"/>
</g>
<!-- Node50 -->
<g id="node37" class="node">
<title>Node50</title>
<g id="a_node37"><a xlink:title=" ">
<polygon fill="#e0e0e0" stroke="#999999" points="1653,-184 1605,-184 1605,-165 1653,-165 1653,-184"/>
<text text-anchor="middle" x="1629" y="-172" font-family="Helvetica,sans-Serif" font-size="10.00">mutex</text>
</a>
</g>
</g>
<!-- Node17&#45;&gt;Node50 -->
<g id="edge51" class="edge">
<title>Node17&#45;&gt;Node50</title>
<path fill="none" stroke="#63b8ff" d="M1585.59,-219.75C1593.16,-212.03 1604.38,-200.6 1613.51,-191.28"/>
<polygon fill="#63b8ff" stroke="#63b8ff" points="1616.07,-193.68 1620.57,-184.09 1611.07,-188.78 1616.07,-193.68"/>
</g>
<!-- Node51 -->
<g id="node38" class="node">
<title>Node51</title>
<g id="a_node38"><a xlink:title=" ">
<polygon fill="#e0e0e0" stroke="#999999" points="1725,-184 1671,-184 1671,-165 1725,-165 1725,-184"/>
<text text-anchor="middle" x="1698" y="-172" font-family="Helvetica,sans-Serif" font-size="10.00">random</text>
</a>
</g>
</g>
<!-- Node17&#45;&gt;Node51 -->
<g id="edge53" class="edge">
<title>Node17&#45;&gt;Node51</title>
<path fill="none" stroke="#63b8ff" d="M1596.44,-219.98C1615.99,-211.42 1646.38,-198.11 1668.82,-188.28"/>
<polygon fill="#63b8ff" stroke="#63b8ff" points="1670.45,-191.39 1678.21,-184.17 1667.64,-184.98 1670.45,-191.39"/>
</g>
<!-- Node39 -->
<g id="node39" class="node">
<title>Node39</title>
<g id="a_node39"><a xlink:title=" ">
<polygon fill="#e0e0e0" stroke="#999999" points="1775,-184 1743,-184 1743,-165 1775,-165 1775,-184"/>
<text text-anchor="middle" x="1759" y="-172" font-family="Helvetica,sans-Serif" font-size="10.00">list</text>
</a>
</g>
</g>
<!-- Node17&#45;&gt;Node39 -->
<g id="edge54" class="edge">
<title>Node17&#45;&gt;Node39</title>
<path fill="none" stroke="#63b8ff" d="M1609.02,-219.95C1638.86,-211.86 1684.8,-199.12 1733.19,-184.13"/>
<polygon fill="#63b8ff" stroke="#63b8ff" points="1734.4,-187.43 1742.9,-181.11 1732.31,-180.74 1734.4,-187.43"/>
</g>
<!-- Node52 -->
<g id="node40" class="node">
<title>Node52</title>
<g id="a_node40"><a xlink:title=" ">
<polygon fill="#e0e0e0" stroke="#999999" points="1844.5,-184 1793.5,-184 1793.5,-165 1844.5,-165 1844.5,-184"/>
<text text-anchor="middle" x="1819" y="-172" font-family="Helvetica,sans-Serif" font-size="10.00">variant</text>
</a>
</g>
</g>
<!-- Node17&#45;&gt;Node52 -->
<g id="edge55" class="edge">
<title>Node17&#45;&gt;Node52</title>
<path fill="none" stroke="#63b8ff" d="M1618.31,-219.96C1658.1,-211.65 1720.23,-198.49 1783.63,-184.03"/>
<polygon fill="#63b8ff" stroke="#63b8ff" points="1784.44,-187.44 1793.4,-181.8 1782.88,-180.62 1784.44,-187.44"/>
</g>
<!-- Node17&#45;&gt;Node36 -->
<g id="edge57" class="edge">
<title>Node17&#45;&gt;Node36</title>
<path fill="none" stroke="#63b8ff" d="M1622.7,-227.67C1738.35,-225.14 2051.86,-215.68 2311,-184 2312.27,-183.84 2313.56,-183.68 2314.86,-183.5"/>
<polygon fill="#63b8ff" stroke="#63b8ff" points="2315.56,-186.93 2324.91,-181.95 2314.49,-180.01 2315.56,-186.93"/>
</g>
<!-- Node53 -->
<g id="node42" class="node">
<title>Node53</title>
<g id="a_node42"><a xlink:title=" ">
<polygon fill="#e0e0e0" stroke="#999999" points="1951.5,-184 1862.5,-184 1862.5,-165 1951.5,-165 1951.5,-184"/>
<text text-anchor="middle" x="1907" y="-172" font-family="Helvetica,sans-Serif" font-size="10.00">wx/wupdlock.h</text>
</a>
</g>
</g>
<!-- Node17&#45;&gt;Node53 -->
<g id="edge60" class="edge">
<title>Node17&#45;&gt;Node53</title>
<path fill="none" stroke="#63b8ff" d="M1622.54,-221.19C1682.62,-211.54 1788.26,-194.57 1852.51,-184.25"/>
<polygon fill="#63b8ff" stroke="#63b8ff" points="1853.14,-187.7 1862.46,-182.65 1852.03,-180.78 1853.14,-187.7"/>
</g>
<!-- Node23&#45;&gt;Node4 -->
<g id="edge27" class="edge">
<title>Node23&#45;&gt;Node4</title>
<path fill="none" stroke="#63b8ff" d="M1209.15,-164.9C1223.32,-156.85 1243.95,-143.86 1259,-129 1272.98,-115.2 1285.36,-96.41 1293.4,-82.85"/>
<polygon fill="#63b8ff" stroke="#63b8ff" points="1296.51,-84.47 1298.45,-74.05 1290.44,-80.98 1296.51,-84.47"/>
</g>
<!-- Node23&#45;&gt;Node8 -->
<g id="edge28" class="edge">
<title>Node23&#45;&gt;Node8</title>
<path fill="none" stroke="#63b8ff" d="M1135,-164.98C1060.99,-154.12 934.96,-135.62 871.29,-126.27"/>
<polygon fill="#63b8ff" stroke="#63b8ff" points="871.66,-122.78 861.26,-124.8 870.64,-129.71 871.66,-122.78"/>
</g>
<!-- Node25&#45;&gt;Node4 -->
<g id="edge30" class="edge">
<title>Node25&#45;&gt;Node4</title>
<path fill="none" stroke="#63b8ff" d="M1013.26,-111.28C1079.34,-101.38 1195.64,-83.84 1254.07,-74.28"/>
<polygon fill="#63b8ff" stroke="#63b8ff" points="1254.99,-77.67 1264.29,-72.59 1253.85,-70.77 1254.99,-77.67"/>
</g>
<!-- Node25&#45;&gt;Node11 -->
<g id="edge39" class="edge">
<title>Node25&#45;&gt;Node11</title>
<path fill="none" stroke="#63b8ff" d="M917.04,-109.95C872.78,-101.88 805,-89.09 737.21,-74.18"/>
<polygon fill="#63b8ff" stroke="#63b8ff" points="737.74,-70.71 727.22,-71.96 736.22,-77.54 737.74,-70.71"/>
</g>
<!-- Node25&#45;&gt;Node19 -->
<g id="edge36" class="edge">
<title>Node25&#45;&gt;Node19</title>
<path fill="none" stroke="#63b8ff" d="M1013.07,-111.15C1016.43,-110.73 1019.76,-110.34 1023,-110 1262.32,-84.72 1550.37,-71.61 1660.82,-67.22"/>
<polygon fill="#63b8ff" stroke="#63b8ff" points="1661.09,-70.71 1670.94,-66.82 1660.82,-63.72 1661.09,-70.71"/>
</g>
<!-- Node25&#45;&gt;Node22 -->
<g id="edge33" class="edge">
<title>Node25&#45;&gt;Node22</title>
<path fill="none" stroke="#63b8ff" d="M1013.06,-111.07C1016.42,-110.67 1019.76,-110.31 1023,-110 1218.66,-91.55 1829.74,-72.55 2015.74,-67.07"/>
<polygon fill="#63b8ff" stroke="#63b8ff" points="2015.93,-70.56 2025.82,-66.77 2015.73,-63.56 2015.93,-70.56"/>
</g>
<!-- Node26 -->
<g id="node25" class="node">
<title>Node26</title>
<g id="a_node25"><a xlink:title=" ">
<polygon fill="#e0e0e0" stroke="#999999" points="817,-74 745,-74 745,-55 817,-55 817,-74"/>
<text text-anchor="middle" x="781" y="-62" font-family="Helvetica,sans-Serif" font-size="10.00">wx/colour.h</text>
</a>
</g>
</g>
<!-- Node25&#45;&gt;Node26 -->
<g id="edge31" class="edge">
<title>Node25&#45;&gt;Node26</title>
<path fill="none" stroke="#63b8ff" d="M935.44,-109.98C904.28,-101.01 855.03,-86.82 820.54,-76.89"/>
<polygon fill="#63b8ff" stroke="#63b8ff" points="821.37,-73.49 810.79,-74.08 819.43,-80.21 821.37,-73.49"/>
</g>
<!-- Node25&#45;&gt;Node27 -->
<g id="edge32" class="edge">
<title>Node25&#45;&gt;Node27</title>
<path fill="none" stroke="#63b8ff" d="M916.71,-114.07C800.84,-103.45 509.69,-76.75 416.31,-68.19"/>
<polygon fill="#63b8ff" stroke="#63b8ff" points="416.45,-64.69 406.17,-67.26 415.81,-71.66 416.45,-64.69"/>
</g>
<!-- Node28 -->
<g id="node27" class="node">
<title>Node28</title>
<g id="a_node27"><a xlink:title=" ">
<polygon fill="#e0e0e0" stroke="#999999" points="879,-74 835,-74 835,-55 879,-55 879,-74"/>
<text text-anchor="middle" x="857" y="-62" font-family="Helvetica,sans-Serif" font-size="10.00">string</text>
</a>
</g>
</g>
<!-- Node25&#45;&gt;Node28 -->
<g id="edge34" class="edge">
<title>Node25&#45;&gt;Node28</title>
<path fill="none" stroke="#63b8ff" d="M947.65,-109.98C930.43,-101.54 903.8,-88.47 883.85,-78.68"/>
<polygon fill="#63b8ff" stroke="#63b8ff" points="885.19,-75.43 874.67,-74.17 882.1,-81.72 885.19,-75.43"/>
</g>
<!-- Node29 -->
<g id="node28" class="node">
<title>Node29</title>
<g id="a_node28"><a xlink:title=" ">
<polygon fill="#e0e0e0" stroke="#999999" points="954.5,-74 897.5,-74 897.5,-55 954.5,-55 954.5,-74"/>
<text text-anchor="middle" x="926" y="-62" font-family="Helvetica,sans-Serif" font-size="10.00">ostream</text>
</a>
</g>
</g>
<!-- Node25&#45;&gt;Node29 -->
<g id="edge35" class="edge">
<title>Node25&#45;&gt;Node29</title>
<path fill="none" stroke="#63b8ff" d="M958.56,-109.75C953.11,-102.34 945.14,-91.5 938.44,-82.41"/>
<polygon fill="#63b8ff" stroke="#63b8ff" points="941.07,-80.07 932.32,-74.09 935.43,-84.22 941.07,-80.07"/>
</g>
<!-- Node30 -->
<g id="node29" class="node">
<title>Node30</title>
<g id="a_node29"><a xlink:title=" ">
<polygon fill="#e0e0e0" stroke="#999999" points="1035,-74 973,-74 973,-55 1035,-55 1035,-74"/>
<text text-anchor="middle" x="1004" y="-62" font-family="Helvetica,sans-Serif" font-size="10.00">wx/font.h</text>
</a>
</g>
</g>
<!-- Node25&#45;&gt;Node30 -->
<g id="edge37" class="edge">
<title>Node25&#45;&gt;Node30</title>
<path fill="none" stroke="#63b8ff" d="M971.44,-109.75C976.89,-102.34 984.86,-91.5 991.56,-82.41"/>
<polygon fill="#63b8ff" stroke="#63b8ff" points="994.57,-84.22 997.68,-74.09 988.93,-80.07 994.57,-84.22"/>
</g>
<!-- Node31 -->
<g id="node30" class="node">
<title>Node31</title>
<g id="a_node30"><a xlink:title=" ">
<polygon fill="#e0e0e0" stroke="#999999" points="1135,-74 1053,-74 1053,-55 1135,-55 1135,-74"/>
<text text-anchor="middle" x="1094" y="-62" font-family="Helvetica,sans-Serif" font-size="10.00">wx/settings.h</text>
</a>
</g>
</g>
<!-- Node25&#45;&gt;Node31 -->
<g id="edge38" class="edge">
<title>Node25&#45;&gt;Node31</title>
<path fill="none" stroke="#63b8ff" d="M985.73,-109.98C1006.76,-101.34 1039.55,-87.87 1063.54,-78.02"/>
<polygon fill="#63b8ff" stroke="#63b8ff" points="1064.98,-81.21 1072.9,-74.17 1062.32,-74.73 1064.98,-81.21"/>
</g>
<!-- Node25&#45;&gt;Node40 -->
<g id="edge40" class="edge">
<title>Node25&#45;&gt;Node40</title>
<path fill="none" stroke="#63b8ff" d="M1002.76,-109.98C1043.32,-100.84 1107.89,-86.27 1152.03,-76.32"/>
<polygon fill="#63b8ff" stroke="#63b8ff" points="1152.96,-79.7 1161.95,-74.08 1151.42,-72.87 1152.96,-79.7"/>
</g>
<!-- Node41&#45;&gt;Node13 -->
<g id="edge44" class="edge">
<title>Node41&#45;&gt;Node13</title>
<path fill="none" stroke="#63b8ff" d="M1374.75,-170.02C1349.69,-168.34 1318.73,-166.38 1291,-165 846.82,-142.82 734.04,-167.74 291,-129 283.9,-128.38 276.37,-127.51 269.11,-126.55"/>
<polygon fill="#63b8ff" stroke="#63b8ff" points="269.48,-123.07 259.1,-125.17 268.53,-130.01 269.48,-123.07"/>
</g>
<!-- Node41&#45;&gt;Node46 -->
<g id="edge42" class="edge">
<title>Node41&#45;&gt;Node46</title>
<path fill="none" stroke="#63b8ff" d="M1425.32,-164.75C1426.37,-157.8 1427.87,-147.85 1429.19,-139.13"/>
<polygon fill="#63b8ff" stroke="#63b8ff" points="1432.67,-139.5 1430.7,-129.09 1425.75,-138.45 1432.67,-139.5"/>
</g>
<!-- Node41&#45;&gt;Node47 -->
<g id="edge43" class="edge">
<title>Node41&#45;&gt;Node47</title>
<path fill="none" stroke="#63b8ff" d="M1438.78,-164.98C1453.18,-156.69 1475.31,-143.94 1492.19,-134.22"/>
<polygon fill="#63b8ff" stroke="#63b8ff" points="1494.03,-137.19 1500.95,-129.17 1490.54,-131.13 1494.03,-137.19"/>
</g>
<!-- Node48&#45;&gt;Node9 -->
<g id="edge47" class="edge">
<title>Node48&#45;&gt;Node9</title>
<path fill="none" stroke="#63b8ff" d="M954.78,-172.27C886.16,-168.94 705.07,-158.07 545.57,-129.01"/>
<polygon fill="#63b8ff" stroke="#63b8ff" points="546.06,-125.54 535.59,-127.16 544.78,-132.42 546.06,-125.54"/>
</g>
<!-- Node48&#45;&gt;Node25 -->
<g id="edge46" class="edge">
<title>Node48&#45;&gt;Node25</title>
<path fill="none" stroke="#63b8ff" d="M980.03,-164.75C977.64,-157.72 974.21,-147.62 971.23,-138.84"/>
<polygon fill="#63b8ff" stroke="#63b8ff" points="974.45,-137.43 967.92,-129.09 967.82,-139.68 974.45,-137.43"/>
</g>
<!-- Node48&#45;&gt;Node49 -->
<g id="edge48" class="edge">
<title>Node48&#45;&gt;Node49</title>
<path fill="none" stroke="#63b8ff" d="M994.57,-164.98C1005.42,-157 1021.88,-144.88 1034.88,-135.31"/>
<polygon fill="#63b8ff" stroke="#63b8ff" points="1037.24,-137.92 1043.22,-129.17 1033.09,-132.28 1037.24,-137.92"/>
</g>
<!-- Node55 -->
<g id="node44" class="node">
<title>Node55</title>
<g id="a_node44"><a xlink:title=" ">
<polygon fill="#e0e0e0" stroke="#999999" points="307.5,-184 236.5,-184 236.5,-165 307.5,-165 307.5,-184"/>
<text text-anchor="middle" x="272" y="-172" font-family="Helvetica,sans-Serif" font-size="10.00">wx/string.h</text>
</a>
</g>
</g>
<!-- Node54&#45;&gt;Node55 -->
<g id="edge62" class="edge">
<title>Node54&#45;&gt;Node55</title>
<path fill="none" stroke="#63b8ff" d="M356.77,-219.98C340.82,-211.61 316.22,-198.7 297.62,-188.95"/>
<polygon fill="#63b8ff" stroke="#63b8ff" points="299,-185.72 288.52,-184.17 295.75,-191.92 299,-185.72"/>
</g>
<!-- Node56 -->
<g id="node45" class="node">
<title>Node56</title>
<g id="a_node45"><a xlink:title=" ">
<polygon fill="#e0e0e0" stroke="#999999" points="420.5,-184 325.5,-184 325.5,-165 420.5,-165 420.5,-184"/>
<text text-anchor="middle" x="373" y="-172" font-family="Helvetica,sans-Serif" font-size="10.00">wx/translation.h</text>
</a>
</g>
</g>
<!-- Node54&#45;&gt;Node56 -->
<g id="edge63" class="edge">
<title>Node54&#45;&gt;Node56</title>
<path fill="none" stroke="#63b8ff" d="M373,-219.75C373,-212.8 373,-202.85 373,-194.13"/>
<polygon fill="#63b8ff" stroke="#63b8ff" points="376.5,-194.09 373,-184.09 369.5,-194.09 376.5,-194.09"/>
</g>
<!-- Node57&#45;&gt;Node7 -->
<g id="edge66" class="edge">
<title>Node57&#45;&gt;Node7</title>
<path fill="none" stroke="#63b8ff" d="M747.79,-164.98C715.96,-156.01 665.64,-141.82 630.4,-131.89"/>
<polygon fill="#63b8ff" stroke="#63b8ff" points="631.02,-128.43 620.44,-129.08 629.12,-135.16 631.02,-128.43"/>
</g>
<!-- Node57&#45;&gt;Node8 -->
<g id="edge67" class="edge">
<title>Node57&#45;&gt;Node8</title>
<path fill="none" stroke="#63b8ff" d="M786.92,-164.75C794.78,-157.03 806.43,-145.6 815.92,-136.28"/>
<polygon fill="#63b8ff" stroke="#63b8ff" points="818.56,-138.59 823.25,-129.09 813.66,-133.6 818.56,-138.59"/>
</g>
<!-- Node57&#45;&gt;Node14 -->
<g id="edge68" class="edge">
<title>Node57&#45;&gt;Node14</title>
<path fill="none" stroke="#63b8ff" d="M773.38,-164.75C769.54,-157.49 763.98,-146.95 759.24,-137.98"/>
<polygon fill="#63b8ff" stroke="#63b8ff" points="762.3,-136.3 754.54,-129.09 756.11,-139.57 762.3,-136.3"/>
</g>
<!-- Node59&#45;&gt;Node13 -->
<g id="edge77" class="edge">
<title>Node59&#45;&gt;Node13</title>
<path fill="none" stroke="#63b8ff" d="M37.06,-274.76C47.49,-253.17 77.3,-196.8 118,-165 139.4,-148.28 167.89,-137.07 190.78,-130.09"/>
<polygon fill="#63b8ff" stroke="#63b8ff" points="191.9,-133.41 200.53,-127.26 189.95,-126.68 191.9,-133.41"/>
</g>
<!-- Node60&#45;&gt;Node3 -->
<g id="edge80" class="edge">
<title>Node60&#45;&gt;Node3</title>
<path fill="none" stroke="#63b8ff" d="M650,-329.75C650,-322.8 650,-312.85 650,-304.13"/>
<polygon fill="#63b8ff" stroke="#63b8ff" points="653.5,-304.09 650,-294.09 646.5,-304.09 653.5,-304.09"/>
</g>
<!-- Node61 -->
<g id="node50" class="node">
<title>Node61</title>
<g id="a_node50"><a xlink:title=" ">
<polygon fill="#e0e0e0" stroke="#999999" points="761.5,-294 690.5,-294 690.5,-275 761.5,-275 761.5,-294"/>
<text text-anchor="middle" x="726" y="-282" font-family="Helvetica,sans-Serif" font-size="10.00">wx/regex.h</text>
</a>
</g>
</g>
<!-- Node60&#45;&gt;Node61 -->
<g id="edge79" class="edge">
<title>Node60&#45;&gt;Node61</title>
<path fill="none" stroke="#63b8ff" d="M662.21,-329.98C673.78,-321.92 691.38,-309.65 705.16,-300.03"/>
<polygon fill="#63b8ff" stroke="#63b8ff" points="707.37,-302.76 713.57,-294.17 703.36,-297.02 707.37,-302.76"/>
</g>
</g>
</svg>
