<?xml version="1.0" encoding="UTF-8" standalone="no"?>
<!DOCTYPE svg PUBLIC "-//W3C//DTD SVG 1.1//EN"
 "http://www.w3.org/Graphics/SVG/1.1/DTD/svg11.dtd">
<!-- Generated by graphviz version 2.43.0 (0)
 -->
<!-- Title: src/cells/GroupCell.h Pages: 1 -->
<svg width="1391pt" height="364pt"
 viewBox="0.00 0.00 1390.50 364.00" xmlns="http://www.w3.org/2000/svg" xmlns:xlink="http://www.w3.org/1999/xlink">
<g id="graph0" class="graph" transform="scale(1 1) rotate(0) translate(4 360)">
<title>src/cells/GroupCell.h</title>
<polygon fill="white" stroke="transparent" points="-4,4 -4,-360 1386.5,-360 1386.5,4 -4,4"/>
<!-- Node1 -->
<g id="node1" class="node">
<title>Node1</title>
<g id="a_node1"><a xlink:title="This file defines the class GroupCell that bundles input and output in the worksheet.">
<polygon fill="#bfbfbf" stroke="black" points="555,-336.5 555,-355.5 671,-355.5 671,-336.5 555,-336.5"/>
<text text-anchor="middle" x="613" y="-343.5" font-family="Helvetica,sans-Serif" font-size="10.00">src/cells/GroupCell.h</text>
</a>
</g>
</g>
<!-- Node2 -->
<g id="node2" class="node">
<title>Node2</title>
<g id="a_node2"><a xlink:href="Cell_8cpp.html" target="_top" xlink:title="This file defines the class Cell.">
<polygon fill="white" stroke="black" points="0,-280.5 0,-299.5 98,-299.5 98,-280.5 0,-280.5"/>
<text text-anchor="middle" x="49" y="-287.5" font-family="Helvetica,sans-Serif" font-size="10.00">src/cells/Cell.cpp</text>
</a>
</g>
</g>
<!-- Node1&#45;&gt;Node2 -->
<g id="edge1" class="edge">
<title>Node1&#45;&gt;Node2</title>
<path fill="none" stroke="midnightblue" d="M544.82,-340.36C447.49,-333.4 263.21,-319.05 107,-300 104.07,-299.64 101.05,-299.25 98.02,-298.84"/>
<polygon fill="midnightblue" stroke="midnightblue" points="544.59,-343.85 554.82,-341.07 545.09,-336.87 544.59,-343.85"/>
</g>
<!-- Node3 -->
<g id="node3" class="node">
<title>Node3</title>
<g id="a_node3"><a xlink:href="DiffCell_8cpp.html" target="_top" xlink:title="This file defines the class DiffCell.">
<polygon fill="white" stroke="black" points="116,-280.5 116,-299.5 232,-299.5 232,-280.5 116,-280.5"/>
<text text-anchor="middle" x="174" y="-287.5" font-family="Helvetica,sans-Serif" font-size="10.00">src/cells/DiffCell.cpp</text>
</a>
</g>
</g>
<!-- Node1&#45;&gt;Node3 -->
<g id="edge2" class="edge">
<title>Node1&#45;&gt;Node3</title>
<path fill="none" stroke="midnightblue" d="M544.78,-337.02C470.14,-328.23 347.01,-313.53 241,-300 238.09,-299.63 235.11,-299.24 232.1,-298.85"/>
<polygon fill="midnightblue" stroke="midnightblue" points="544.64,-340.53 554.98,-338.22 545.46,-333.58 544.64,-340.53"/>
</g>
<!-- Node4 -->
<g id="node4" class="node">
<title>Node4</title>
<g id="a_node4"><a xlink:href="GroupCell_8cpp.html" target="_top" xlink:title="This file defines the class GroupCell.">
<polygon fill="white" stroke="black" points="250,-280.5 250,-299.5 378,-299.5 378,-280.5 250,-280.5"/>
<text text-anchor="middle" x="314" y="-287.5" font-family="Helvetica,sans-Serif" font-size="10.00">src/cells/GroupCell.cpp</text>
</a>
</g>
</g>
<!-- Node1&#45;&gt;Node4 -->
<g id="edge3" class="edge">
<title>Node1&#45;&gt;Node4</title>
<path fill="none" stroke="midnightblue" d="M555.77,-334.66C499.26,-324.46 413.88,-309.04 361.16,-299.52"/>
<polygon fill="midnightblue" stroke="midnightblue" points="555.16,-338.11 565.62,-336.44 556.4,-331.22 555.16,-338.11"/>
</g>
<!-- Node5 -->
<g id="node5" class="node">
<title>Node5</title>
<g id="a_node5"><a xlink:href="EvaluationQueue_8h.html" target="_top" xlink:title="The evaluation queue.">
<polygon fill="white" stroke="black" points="472,-280.5 472,-299.5 598,-299.5 598,-280.5 472,-280.5"/>
<text text-anchor="middle" x="535" y="-287.5" font-family="Helvetica,sans-Serif" font-size="10.00">src/EvaluationQueue.h</text>
</a>
</g>
</g>
<!-- Node1&#45;&gt;Node5 -->
<g id="edge4" class="edge">
<title>Node1&#45;&gt;Node5</title>
<path fill="none" stroke="midnightblue" d="M592.23,-330.62C577.98,-320.76 559.54,-307.99 547.5,-299.65"/>
<polygon fill="midnightblue" stroke="midnightblue" points="590.25,-333.51 600.47,-336.32 594.24,-327.75 590.25,-333.51"/>
</g>
<!-- Node7 -->
<g id="node7" class="node">
<title>Node7</title>
<g id="a_node7"><a xlink:href="Worksheet_8h.html" target="_top" xlink:title="This file defines the class Worksheet.">
<polygon fill="white" stroke="black" points="866.5,-224.5 866.5,-243.5 961.5,-243.5 961.5,-224.5 866.5,-224.5"/>
<text text-anchor="middle" x="914" y="-231.5" font-family="Helvetica,sans-Serif" font-size="10.00">src/Worksheet.h</text>
</a>
</g>
</g>
<!-- Node1&#45;&gt;Node7 -->
<g id="edge45" class="edge">
<title>Node1&#45;&gt;Node7</title>
<path fill="none" stroke="midnightblue" d="M681.37,-342.33C754.48,-338.07 864.09,-327.24 895,-300 911.41,-285.54 914,-257.78 914.2,-243.68"/>
<polygon fill="midnightblue" stroke="midnightblue" points="681.09,-338.84 671.3,-342.88 681.48,-345.83 681.09,-338.84"/>
</g>
<!-- Node21 -->
<g id="node21" class="node">
<title>Node21</title>
<g id="a_node21"><a xlink:href="Printout_8h.html" target="_top" xlink:title="This file declares the class MathPrintOut.">
<polygon fill="white" stroke="black" points="1239.5,-224.5 1239.5,-243.5 1382.5,-243.5 1382.5,-224.5 1239.5,-224.5"/>
<text text-anchor="middle" x="1311" y="-231.5" font-family="Helvetica,sans-Serif" font-size="10.00">src/graphical_io/Printout.h</text>
</a>
</g>
</g>
<!-- Node1&#45;&gt;Node21 -->
<g id="edge28" class="edge">
<title>Node1&#45;&gt;Node21</title>
<path fill="none" stroke="midnightblue" d="M681.23,-342.51C809.14,-337.34 1080.3,-323.89 1171,-300 1219.72,-287.17 1272.38,-258.13 1296.93,-243.61"/>
<polygon fill="midnightblue" stroke="midnightblue" points="681.01,-339.01 671.15,-342.91 681.29,-346.01 681.01,-339.01"/>
</g>
<!-- Node22 -->
<g id="node22" class="node">
<title>Node22</title>
<g id="a_node22"><a xlink:href="SVGout_8cpp.html" target="_top" xlink:title="This file defines the class Svgout that renders math as scalable vector graphics.">
<polygon fill="white" stroke="black" points="616,-280.5 616,-299.5 768,-299.5 768,-280.5 616,-280.5"/>
<text text-anchor="middle" x="692" y="-287.5" font-family="Helvetica,sans-Serif" font-size="10.00">src/graphical_io/SVGout.cpp</text>
</a>
</g>
</g>
<!-- Node1&#45;&gt;Node22 -->
<g id="edge31" class="edge">
<title>Node1&#45;&gt;Node22</title>
<path fill="none" stroke="midnightblue" d="M634.03,-330.62C648.47,-320.76 667.14,-307.99 679.34,-299.65"/>
<polygon fill="midnightblue" stroke="midnightblue" points="631.97,-327.79 625.69,-336.32 635.92,-333.57 631.97,-327.79"/>
</g>
<!-- Node23 -->
<g id="node23" class="node">
<title>Node23</title>
<g id="a_node23"><a xlink:href="MathParser_8h.html" target="_top" xlink:title="The header file for the xml cell parser.">
<polygon fill="white" stroke="black" points="197.5,-168.5 197.5,-187.5 294.5,-187.5 294.5,-168.5 197.5,-168.5"/>
<text text-anchor="middle" x="246" y="-175.5" font-family="Helvetica,sans-Serif" font-size="10.00">src/MathParser.h</text>
</a>
</g>
</g>
<!-- Node1&#45;&gt;Node23 -->
<g id="edge32" class="edge">
<title>Node1&#45;&gt;Node23</title>
<path fill="none" stroke="midnightblue" d="M547.92,-334.6C512.15,-327.51 467.55,-316.38 430,-300 358.16,-268.66 283.39,-209.92 256.44,-187.76"/>
<polygon fill="midnightblue" stroke="midnightblue" points="547.28,-338.04 557.77,-336.49 548.61,-331.16 547.28,-338.04"/>
</g>
<!-- Node25 -->
<g id="node25" class="node">
<title>Node25</title>
<g id="a_node25"><a xlink:href="Notification_8h.html" target="_top" xlink:title="This file defines the class Notification.">
<polygon fill="white" stroke="black" points="786.5,-280.5 786.5,-299.5 885.5,-299.5 885.5,-280.5 786.5,-280.5"/>
<text text-anchor="middle" x="836" y="-287.5" font-family="Helvetica,sans-Serif" font-size="10.00">src/Notification.h</text>
</a>
</g>
</g>
<!-- Node1&#45;&gt;Node25 -->
<g id="edge36" class="edge">
<title>Node1&#45;&gt;Node25</title>
<path fill="none" stroke="midnightblue" d="M658.06,-334.09C700.19,-323.89 762.24,-308.86 800.83,-299.52"/>
<polygon fill="midnightblue" stroke="midnightblue" points="657.23,-330.69 648.34,-336.44 658.88,-337.49 657.23,-330.69"/>
</g>
<!-- Node27 -->
<g id="node27" class="node">
<title>Node27</title>
<g id="a_node27"><a xlink:href="TableOfContents_8h.html" target="_top" xlink:title="This file contains the definition of the class TableOfContents that handles the table of contents pan...">
<polygon fill="white" stroke="black" points="942.5,-280.5 942.5,-299.5 1065.5,-299.5 1065.5,-280.5 942.5,-280.5"/>
<text text-anchor="middle" x="1004" y="-287.5" font-family="Helvetica,sans-Serif" font-size="10.00">src/TableOfContents.h</text>
</a>
</g>
</g>
<!-- Node1&#45;&gt;Node27 -->
<g id="edge39" class="edge">
<title>Node1&#45;&gt;Node27</title>
<path fill="none" stroke="midnightblue" d="M681.22,-335.58C754.92,-325.4 871.3,-309.33 942.34,-299.52"/>
<polygon fill="midnightblue" stroke="midnightblue" points="680.54,-332.14 671.11,-336.97 681.5,-339.07 680.54,-332.14"/>
</g>
<!-- Node29 -->
<g id="node29" class="node">
<title>Node29</title>
<g id="a_node29"><a xlink:href="ToolBar_8h.html" target="_top" xlink:title="This file declares the class ToolBar that represents wxMaxima&#39;s main tool bar.">
<polygon fill="white" stroke="black" points="1084,-280.5 1084,-299.5 1162,-299.5 1162,-280.5 1084,-280.5"/>
<text text-anchor="middle" x="1123" y="-287.5" font-family="Helvetica,sans-Serif" font-size="10.00">src/ToolBar.h</text>
</a>
</g>
</g>
<!-- Node1&#45;&gt;Node29 -->
<g id="edge42" class="edge">
<title>Node1&#45;&gt;Node29</title>
<path fill="none" stroke="midnightblue" d="M681.29,-340.24C771.65,-333.52 935.75,-319.8 1075,-300 1077.85,-299.59 1080.8,-299.14 1083.75,-298.65"/>
<polygon fill="midnightblue" stroke="midnightblue" points="680.89,-336.76 671.18,-340.99 681.41,-343.74 680.89,-336.76"/>
</g>
<!-- Node31 -->
<g id="node31" class="node">
<title>Node31</title>
<g id="a_node31"><a xlink:href="WXMformat_8h_source.html" target="_top" xlink:title=" ">
<polygon fill="white" stroke="black" points="369.5,-112.5 369.5,-131.5 470.5,-131.5 470.5,-112.5 369.5,-112.5"/>
<text text-anchor="middle" x="420" y="-119.5" font-family="Helvetica,sans-Serif" font-size="10.00">src/WXMformat.h</text>
</a>
</g>
</g>
<!-- Node1&#45;&gt;Node31 -->
<g id="edge46" class="edge">
<title>Node1&#45;&gt;Node31</title>
<path fill="none" stroke="midnightblue" d="M544.79,-339.46C515.93,-333.71 484.17,-322.32 463,-300 416.44,-250.89 417.67,-160.2 419.33,-131.76"/>
<polygon fill="midnightblue" stroke="midnightblue" points="544.39,-342.94 554.85,-341.26 545.63,-336.05 544.39,-342.94"/>
</g>
<!-- Node6 -->
<g id="node6" class="node">
<title>Node6</title>
<g id="a_node6"><a xlink:href="EvaluationQueue_8cpp.html" target="_top" xlink:title="This file defines the class EvaluationQueue.">
<polygon fill="white" stroke="black" points="472.5,-224.5 472.5,-243.5 609.5,-243.5 609.5,-224.5 472.5,-224.5"/>
<text text-anchor="middle" x="541" y="-231.5" font-family="Helvetica,sans-Serif" font-size="10.00">src/EvaluationQueue.cpp</text>
</a>
</g>
</g>
<!-- Node5&#45;&gt;Node6 -->
<g id="edge5" class="edge">
<title>Node5&#45;&gt;Node6</title>
<path fill="none" stroke="midnightblue" d="M537.1,-270.1C538.1,-261.14 539.24,-250.86 540.03,-243.75"/>
<polygon fill="midnightblue" stroke="midnightblue" points="533.62,-269.76 535.99,-280.08 540.57,-270.53 533.62,-269.76"/>
</g>
<!-- Node5&#45;&gt;Node7 -->
<g id="edge6" class="edge">
<title>Node5&#45;&gt;Node7</title>
<path fill="none" stroke="midnightblue" d="M608.48,-279.11C673.78,-270.23 771.81,-256.68 857,-244 860.07,-243.54 863.24,-243.06 866.42,-242.58"/>
<polygon fill="midnightblue" stroke="midnightblue" points="607.72,-275.68 598.28,-280.49 608.66,-282.62 607.72,-275.68"/>
</g>
<!-- Node8 -->
<g id="node8" class="node">
<title>Node8</title>
<g id="a_node8"><a xlink:href="ConfigDialogue_8h.html" target="_top" xlink:title="The configuration dialog.">
<polygon fill="white" stroke="black" points="705.5,-56.5 705.5,-75.5 822.5,-75.5 822.5,-56.5 705.5,-56.5"/>
<text text-anchor="middle" x="764" y="-63.5" font-family="Helvetica,sans-Serif" font-size="10.00">src/ConfigDialogue.h</text>
</a>
</g>
</g>
<!-- Node7&#45;&gt;Node8 -->
<g id="edge7" class="edge">
<title>Node7&#45;&gt;Node8</title>
<path fill="none" stroke="midnightblue" d="M971.52,-222.69C1022.79,-212.91 1090.96,-198.23 1099,-188 1119.87,-161.44 1121.24,-137.42 1099,-112 1063.79,-71.75 908.93,-66 822.62,-66.03"/>
<polygon fill="midnightblue" stroke="midnightblue" points="970.69,-219.28 961.51,-224.57 971.99,-226.16 970.69,-219.28"/>
</g>
<!-- Node11 -->
<g id="node11" class="node">
<title>Node11</title>
<g id="a_node11"><a xlink:href="Printout_8cpp.html" target="_top" xlink:title="This file defines the class MathPrintOut.">
<polygon fill="white" stroke="black" points="1151.5,-168.5 1151.5,-187.5 1306.5,-187.5 1306.5,-168.5 1151.5,-168.5"/>
<text text-anchor="middle" x="1229" y="-175.5" font-family="Helvetica,sans-Serif" font-size="10.00">src/graphical_io/Printout.cpp</text>
</a>
</g>
</g>
<!-- Node7&#45;&gt;Node11 -->
<g id="edge10" class="edge">
<title>Node7&#45;&gt;Node11</title>
<path fill="none" stroke="midnightblue" d="M971.83,-223.09C1031.35,-212.88 1123.1,-197.15 1179.41,-187.5"/>
<polygon fill="midnightblue" stroke="midnightblue" points="971.11,-219.66 961.84,-224.8 972.29,-226.56 971.11,-219.66"/>
</g>
<!-- Node12 -->
<g id="node12" class="node">
<title>Node12</title>
<g id="a_node12"><a xlink:href="Worksheet_8cpp.html" target="_top" xlink:title="This file defines the class Worksheet.">
<polygon fill="white" stroke="black" points="581,-56.5 581,-75.5 687,-75.5 687,-56.5 581,-56.5"/>
<text text-anchor="middle" x="634" y="-63.5" font-family="Helvetica,sans-Serif" font-size="10.00">src/Worksheet.cpp</text>
</a>
</g>
</g>
<!-- Node7&#45;&gt;Node12 -->
<g id="edge11" class="edge">
<title>Node7&#45;&gt;Node12</title>
<path fill="none" stroke="midnightblue" d="M946.01,-220.55C995.86,-199.43 1082.53,-154.72 1044,-112 1017.97,-83.13 734.58,-80.79 696,-76 693.09,-75.64 690.1,-75.25 687.08,-74.85"/>
<polygon fill="midnightblue" stroke="midnightblue" points="944.48,-217.4 936.58,-224.45 947.15,-223.86 944.48,-217.4"/>
</g>
<!-- Node13 -->
<g id="node13" class="node">
<title>Node13</title>
<g id="a_node13"><a xlink:href="wxMaximaFrame_8h.html" target="_top" xlink:title="This file declares the class wxMaximaFrame.">
<polygon fill="white" stroke="black" points="627,-168.5 627,-187.5 755,-187.5 755,-168.5 627,-168.5"/>
<text text-anchor="middle" x="691" y="-175.5" font-family="Helvetica,sans-Serif" font-size="10.00">src/wxMaximaFrame.h</text>
</a>
</g>
</g>
<!-- Node7&#45;&gt;Node13 -->
<g id="edge12" class="edge">
<title>Node7&#45;&gt;Node13</title>
<path fill="none" stroke="midnightblue" d="M868.94,-222.09C826.81,-211.89 764.76,-196.86 726.17,-187.52"/>
<polygon fill="midnightblue" stroke="midnightblue" points="868.12,-225.49 878.66,-224.44 869.77,-218.69 868.12,-225.49"/>
</g>
<!-- Node9 -->
<g id="node9" class="node">
<title>Node9</title>
<g id="a_node9"><a xlink:href="main_8cpp.html" target="_top" xlink:title="The file that defines the starting point of the program.">
<polygon fill="white" stroke="black" points="263.5,-0.5 263.5,-19.5 342.5,-19.5 342.5,-0.5 263.5,-0.5"/>
<text text-anchor="middle" x="303" y="-7.5" font-family="Helvetica,sans-Serif" font-size="10.00">src/main.cpp</text>
</a>
</g>
</g>
<!-- Node8&#45;&gt;Node9 -->
<g id="edge8" class="edge">
<title>Node8&#45;&gt;Node9</title>
<path fill="none" stroke="midnightblue" d="M695.13,-55.93C541.61,-38.07 500.89,-41.43 352,-20 348.92,-19.56 345.73,-19.06 342.54,-18.53"/>
<polygon fill="midnightblue" stroke="midnightblue" points="695.07,-59.45 705.41,-57.14 695.88,-52.5 695.07,-59.45"/>
</g>
<!-- Node10 -->
<g id="node10" class="node">
<title>Node10</title>
<g id="a_node10"><a xlink:href="wxMaxima_8cpp.html" target="_top" xlink:title="This file defines the contents of the class wxMaxima that contains most of the program&#39;s logic.">
<polygon fill="white" stroke="black" points="361,-0.5 361,-19.5 469,-19.5 469,-0.5 361,-0.5"/>
<text text-anchor="middle" x="415" y="-7.5" font-family="Helvetica,sans-Serif" font-size="10.00">src/wxMaxima.cpp</text>
</a>
</g>
</g>
<!-- Node8&#45;&gt;Node10 -->
<g id="edge9" class="edge">
<title>Node8&#45;&gt;Node10</title>
<path fill="none" stroke="midnightblue" d="M698.79,-54.91C632.55,-44.66 531.14,-28.97 469.18,-19.38"/>
<polygon fill="midnightblue" stroke="midnightblue" points="698.28,-58.37 708.7,-56.44 699.35,-51.46 698.28,-58.37"/>
</g>
<!-- Node13&#45;&gt;Node12 -->
<g id="edge26" class="edge">
<title>Node13&#45;&gt;Node12</title>
<path fill="none" stroke="midnightblue" d="M765.18,-172.21C859.13,-165.38 1010.96,-151.47 1028,-132 1033.85,-125.31 1033.94,-118.62 1028,-112 978.43,-56.77 769.62,-85.33 696,-76 693.09,-75.63 690.1,-75.24 687.08,-74.83"/>
<polygon fill="midnightblue" stroke="midnightblue" points="764.87,-168.73 755.15,-172.93 765.37,-175.71 764.87,-168.73"/>
</g>
<!-- Node14 -->
<g id="node14" class="node">
<title>Node14</title>
<g id="a_node14"><a xlink:href="AutocompletePopup_8cpp.html" target="_top" xlink:title="This file defines the class AutocompletePopup.">
<polygon fill="white" stroke="black" points="527,-112.5 527,-131.5 679,-131.5 679,-112.5 527,-112.5"/>
<text text-anchor="middle" x="603" y="-119.5" font-family="Helvetica,sans-Serif" font-size="10.00">src/AutocompletePopup.cpp</text>
</a>
</g>
</g>
<!-- Node13&#45;&gt;Node14 -->
<g id="edge13" class="edge">
<title>Node13&#45;&gt;Node14</title>
<path fill="none" stroke="midnightblue" d="M668.02,-162.9C651.89,-153 630.82,-140.07 617.1,-131.65"/>
<polygon fill="midnightblue" stroke="midnightblue" points="666.51,-166.08 676.86,-168.32 670.17,-160.11 666.51,-166.08"/>
</g>
<!-- Node15 -->
<g id="node15" class="node">
<title>Node15</title>
<g id="a_node15"><a xlink:href="EditorCell_8cpp.html" target="_top" xlink:title="This file defines the class EditorCell.">
<polygon fill="white" stroke="black" points="435.5,-56.5 435.5,-75.5 562.5,-75.5 562.5,-56.5 435.5,-56.5"/>
<text text-anchor="middle" x="499" y="-63.5" font-family="Helvetica,sans-Serif" font-size="10.00">src/cells/EditorCell.cpp</text>
</a>
</g>
</g>
<!-- Node13&#45;&gt;Node15 -->
<g id="edge14" class="edge">
<title>Node13&#45;&gt;Node15</title>
<path fill="none" stroke="midnightblue" d="M616.78,-174.03C582.7,-168.94 544.15,-157.38 518,-132 502.31,-116.77 499.39,-89.36 498.97,-75.51"/>
<polygon fill="midnightblue" stroke="midnightblue" points="616.35,-177.5 626.72,-175.35 617.27,-170.56 616.35,-177.5"/>
</g>
<!-- Node16 -->
<g id="node16" class="node">
<title>Node16</title>
<g id="a_node16"><a xlink:href="main_8h.html" target="_top" xlink:title="This file declares the class wxMaxima that contains most of the program&#39;s logic.">
<polygon fill="white" stroke="black" points="199,-56.5 199,-75.5 267,-75.5 267,-56.5 199,-56.5"/>
<text text-anchor="middle" x="233" y="-63.5" font-family="Helvetica,sans-Serif" font-size="10.00">src/main.h</text>
</a>
</g>
</g>
<!-- Node13&#45;&gt;Node16 -->
<g id="edge15" class="edge">
<title>Node13&#45;&gt;Node16</title>
<path fill="none" stroke="midnightblue" d="M616.72,-174.31C496.93,-169.27 271.73,-156.62 245,-132 229.3,-117.54 230.08,-89.78 231.68,-75.68"/>
<polygon fill="midnightblue" stroke="midnightblue" points="616.78,-177.82 626.92,-174.73 617.07,-170.82 616.78,-177.82"/>
</g>
<!-- Node18 -->
<g id="node18" class="node">
<title>Node18</title>
<g id="a_node18"><a xlink:href="GreekSidebar_8cpp.html" target="_top" xlink:title="This file defines the class GreekSidebar.">
<polygon fill="white" stroke="black" points="697,-112.5 697,-131.5 861,-131.5 861,-112.5 697,-112.5"/>
<text text-anchor="middle" x="779" y="-119.5" font-family="Helvetica,sans-Serif" font-size="10.00">src/sidebars/GreekSidebar.cpp</text>
</a>
</g>
</g>
<!-- Node13&#45;&gt;Node18 -->
<g id="edge19" class="edge">
<title>Node13&#45;&gt;Node18</title>
<path fill="none" stroke="midnightblue" d="M713.98,-162.9C730.11,-153 751.18,-140.07 764.9,-131.65"/>
<polygon fill="midnightblue" stroke="midnightblue" points="711.83,-160.11 705.14,-168.32 715.49,-166.08 711.83,-160.11"/>
</g>
<!-- Node19 -->
<g id="node19" class="node">
<title>Node19</title>
<g id="a_node19"><a xlink:href="wxMaxima_8h.html" target="_top" xlink:title="This file declares the class wxMaxima that contains most of the program&#39;s logic.">
<polygon fill="white" stroke="black" points="254.5,-112.5 254.5,-131.5 351.5,-131.5 351.5,-112.5 254.5,-112.5"/>
<text text-anchor="middle" x="303" y="-119.5" font-family="Helvetica,sans-Serif" font-size="10.00">src/wxMaxima.h</text>
</a>
</g>
</g>
<!-- Node13&#45;&gt;Node19 -->
<g id="edge20" class="edge">
<title>Node13&#45;&gt;Node19</title>
<path fill="none" stroke="midnightblue" d="M616.81,-167.38C549.69,-158.56 448.14,-144.95 360,-132 357.32,-131.61 354.58,-131.2 351.81,-130.78"/>
<polygon fill="midnightblue" stroke="midnightblue" points="616.5,-170.87 626.87,-168.7 617.41,-163.93 616.5,-170.87"/>
</g>
<!-- Node20 -->
<g id="node20" class="node">
<title>Node20</title>
<g id="a_node20"><a xlink:href="wxMaximaFrame_8cpp.html" target="_top" xlink:title="This file defines the class wxMaximaFrame.">
<polygon fill="white" stroke="black" points="879.5,-112.5 879.5,-131.5 1018.5,-131.5 1018.5,-112.5 879.5,-112.5"/>
<text text-anchor="middle" x="949" y="-119.5" font-family="Helvetica,sans-Serif" font-size="10.00">src/wxMaximaFrame.cpp</text>
</a>
</g>
</g>
<!-- Node13&#45;&gt;Node20 -->
<g id="edge27" class="edge">
<title>Node13&#45;&gt;Node20</title>
<path fill="none" stroke="midnightblue" d="M741.9,-166.35C790.66,-156.14 863.29,-140.94 908.31,-131.52"/>
<polygon fill="midnightblue" stroke="midnightblue" points="740.95,-162.97 731.88,-168.44 742.39,-169.82 740.95,-162.97"/>
</g>
<!-- Node16&#45;&gt;Node9 -->
<g id="edge16" class="edge">
<title>Node16&#45;&gt;Node9</title>
<path fill="none" stroke="midnightblue" d="M252.31,-50.1C264.91,-40.38 280.93,-28.03 291.55,-19.83"/>
<polygon fill="midnightblue" stroke="midnightblue" points="250.03,-47.44 244.25,-56.32 254.3,-52.99 250.03,-47.44"/>
</g>
<!-- Node16&#45;&gt;Node10 -->
<g id="edge18" class="edge">
<title>Node16&#45;&gt;Node10</title>
<path fill="none" stroke="midnightblue" d="M271.53,-53.57C305.86,-43.38 355.33,-28.7 386.3,-19.52"/>
<polygon fill="midnightblue" stroke="midnightblue" points="270.43,-50.24 261.84,-56.44 272.42,-56.95 270.43,-50.24"/>
</g>
<!-- Node17 -->
<g id="node17" class="node">
<title>Node17</title>
<g id="a_node17"><a xlink:href="MaximaManual_8cpp.html" target="_top" xlink:title="This file defines the class MaximaManual.">
<polygon fill="white" stroke="black" points="115,-0.5 115,-19.5 245,-19.5 245,-0.5 115,-0.5"/>
<text text-anchor="middle" x="180" y="-7.5" font-family="Helvetica,sans-Serif" font-size="10.00">src/MaximaManual.cpp</text>
</a>
</g>
</g>
<!-- Node16&#45;&gt;Node17 -->
<g id="edge17" class="edge">
<title>Node16&#45;&gt;Node17</title>
<path fill="none" stroke="midnightblue" d="M217.02,-48.72C207.68,-39.2 196.25,-27.56 188.59,-19.75"/>
<polygon fill="midnightblue" stroke="midnightblue" points="214.75,-51.4 224.25,-56.08 219.74,-46.49 214.75,-51.4"/>
</g>
<!-- Node19&#45;&gt;Node9 -->
<g id="edge23" class="edge">
<title>Node19&#45;&gt;Node9</title>
<path fill="none" stroke="midnightblue" d="M303,-102.35C303,-78.25 303,-37.31 303,-19.59"/>
<polygon fill="midnightblue" stroke="midnightblue" points="299.5,-102.37 303,-112.37 306.5,-102.37 299.5,-102.37"/>
</g>
<!-- Node19&#45;&gt;Node10 -->
<g id="edge25" class="edge">
<title>Node19&#45;&gt;Node10</title>
<path fill="none" stroke="midnightblue" d="M319.08,-105.21C343.09,-81.63 387.48,-38.03 406.25,-19.59"/>
<polygon fill="midnightblue" stroke="midnightblue" points="316.47,-102.86 311.79,-112.37 321.38,-107.86 316.47,-102.86"/>
</g>
<!-- Node19&#45;&gt;Node12 -->
<g id="edge24" class="edge">
<title>Node19&#45;&gt;Node12</title>
<path fill="none" stroke="midnightblue" d="M361.92,-111.39C424.32,-101.21 521.9,-85.29 581.68,-75.54"/>
<polygon fill="midnightblue" stroke="midnightblue" points="361.15,-107.97 351.84,-113.03 362.27,-114.88 361.15,-107.97"/>
</g>
<!-- Node19&#45;&gt;Node15 -->
<g id="edge21" class="edge">
<title>Node19&#45;&gt;Node15</title>
<path fill="none" stroke="midnightblue" d="M344.02,-109.7C381.01,-99.51 434.6,-84.74 468.09,-75.52"/>
<polygon fill="midnightblue" stroke="midnightblue" points="342.77,-106.41 334.06,-112.44 344.63,-113.16 342.77,-106.41"/>
</g>
<!-- Node19&#45;&gt;Node16 -->
<g id="edge22" class="edge">
<title>Node19&#45;&gt;Node16</title>
<path fill="none" stroke="midnightblue" d="M283.69,-106.1C271.09,-96.38 255.07,-84.03 244.45,-75.83"/>
<polygon fill="midnightblue" stroke="midnightblue" points="281.7,-108.99 291.75,-112.32 285.97,-103.44 281.7,-108.99"/>
</g>
<!-- Node21&#45;&gt;Node10 -->
<g id="edge30" class="edge">
<title>Node21&#45;&gt;Node10</title>
<path fill="none" stroke="midnightblue" d="M1318.44,-214.79C1322.91,-200.64 1326,-181.24 1316,-168 1261.14,-95.37 1207.53,-133.15 1119,-112 992.17,-81.7 959.94,-75.47 831,-56 701.71,-36.47 548.57,-22.16 469.04,-15.38"/>
<polygon fill="midnightblue" stroke="midnightblue" points="1315.07,-213.82 1314.94,-224.41 1321.65,-216.21 1315.07,-213.82"/>
</g>
<!-- Node21&#45;&gt;Node11 -->
<g id="edge29" class="edge">
<title>Node21&#45;&gt;Node11</title>
<path fill="none" stroke="midnightblue" d="M1289.17,-218.62C1274.19,-208.76 1254.8,-195.99 1242.14,-187.65"/>
<polygon fill="midnightblue" stroke="midnightblue" points="1287.55,-221.75 1297.83,-224.32 1291.4,-215.9 1287.55,-221.75"/>
</g>
<!-- Node23&#45;&gt;Node16 -->
<g id="edge33" class="edge">
<title>Node23&#45;&gt;Node16</title>
<path fill="none" stroke="midnightblue" d="M229.82,-160.96C222.9,-152.98 215.6,-142.75 212,-132 205.29,-111.99 218.06,-88.38 226.47,-75.85"/>
<polygon fill="midnightblue" stroke="midnightblue" points="227.35,-163.44 236.71,-168.39 232.48,-158.68 227.35,-163.44"/>
</g>
<!-- Node23&#45;&gt;Node19 -->
<g id="edge35" class="edge">
<title>Node23&#45;&gt;Node19</title>
<path fill="none" stroke="midnightblue" d="M262.62,-161.25C272.73,-151.67 285.28,-139.79 293.68,-131.83"/>
<polygon fill="midnightblue" stroke="midnightblue" points="260.01,-158.91 255.16,-168.32 264.82,-163.99 260.01,-158.91"/>
</g>
<!-- Node24 -->
<g id="node24" class="node">
<title>Node24</title>
<g id="a_node24"><a xlink:href="MathParser_8cpp.html" target="_top" xlink:title="This file defines the class MathParser that reads wxmx data and math from Maxima.">
<polygon fill="white" stroke="black" points="52,-112.5 52,-131.5 160,-131.5 160,-112.5 52,-112.5"/>
<text text-anchor="middle" x="106" y="-119.5" font-family="Helvetica,sans-Serif" font-size="10.00">src/MathParser.cpp</text>
</a>
</g>
</g>
<!-- Node23&#45;&gt;Node24 -->
<g id="edge34" class="edge">
<title>Node23&#45;&gt;Node24</title>
<path fill="none" stroke="midnightblue" d="M214.3,-164.77C188,-154.63 151.28,-140.47 128.08,-131.52"/>
<polygon fill="midnightblue" stroke="midnightblue" points="213.23,-168.11 223.82,-168.44 215.75,-161.58 213.23,-168.11"/>
</g>
<!-- Node25&#45;&gt;Node7 -->
<g id="edge38" class="edge">
<title>Node25&#45;&gt;Node7</title>
<path fill="none" stroke="midnightblue" d="M856.77,-274.62C871.02,-264.76 889.46,-251.99 901.5,-243.65"/>
<polygon fill="midnightblue" stroke="midnightblue" points="854.76,-271.75 848.53,-280.32 858.75,-277.51 854.76,-271.75"/>
</g>
<!-- Node26 -->
<g id="node26" class="node">
<title>Node26</title>
<g id="a_node26"><a xlink:href="Notification_8cpp.html" target="_top" xlink:title="This file defines the class Notification.">
<polygon fill="white" stroke="black" points="738,-224.5 738,-243.5 848,-243.5 848,-224.5 738,-224.5"/>
<text text-anchor="middle" x="793" y="-231.5" font-family="Helvetica,sans-Serif" font-size="10.00">src/Notification.cpp</text>
</a>
</g>
</g>
<!-- Node25&#45;&gt;Node26 -->
<g id="edge37" class="edge">
<title>Node25&#45;&gt;Node26</title>
<path fill="none" stroke="midnightblue" d="M822.58,-272.14C815.09,-262.74 806.06,-251.4 799.97,-243.75"/>
<polygon fill="midnightblue" stroke="midnightblue" points="819.93,-274.44 828.9,-280.08 825.41,-270.08 819.93,-274.44"/>
</g>
<!-- Node27&#45;&gt;Node7 -->
<g id="edge41" class="edge">
<title>Node27&#45;&gt;Node7</title>
<path fill="none" stroke="midnightblue" d="M980.96,-275.18C964.4,-265.24 942.58,-252.15 928.42,-243.65"/>
<polygon fill="midnightblue" stroke="midnightblue" points="979.16,-278.18 989.54,-280.32 982.77,-272.18 979.16,-278.18"/>
</g>
<!-- Node28 -->
<g id="node28" class="node">
<title>Node28</title>
<g id="a_node28"><a xlink:href="TableOfContents_8cpp.html" target="_top" xlink:title="This file defines the class Structure.">
<polygon fill="white" stroke="black" points="980,-224.5 980,-243.5 1114,-243.5 1114,-224.5 980,-224.5"/>
<text text-anchor="middle" x="1047" y="-231.5" font-family="Helvetica,sans-Serif" font-size="10.00">src/TableOfContents.cpp</text>
</a>
</g>
</g>
<!-- Node27&#45;&gt;Node28 -->
<g id="edge40" class="edge">
<title>Node27&#45;&gt;Node28</title>
<path fill="none" stroke="midnightblue" d="M1017.42,-272.14C1024.91,-262.74 1033.94,-251.4 1040.03,-243.75"/>
<polygon fill="midnightblue" stroke="midnightblue" points="1014.59,-270.08 1011.1,-280.08 1020.07,-274.44 1014.59,-270.08"/>
</g>
<!-- Node29&#45;&gt;Node7 -->
<g id="edge44" class="edge">
<title>Node29&#45;&gt;Node7</title>
<path fill="none" stroke="midnightblue" d="M1080.02,-277.89C1040.55,-267.7 982.9,-252.8 946.96,-243.52"/>
<polygon fill="midnightblue" stroke="midnightblue" points="1079.33,-281.33 1089.88,-280.44 1081.08,-274.55 1079.33,-281.33"/>
</g>
<!-- Node30 -->
<g id="node30" class="node">
<title>Node30</title>
<g id="a_node30"><a xlink:href="ToolBar_8cpp.html" target="_top" xlink:title="This file defines the class ToolBar that represents wxMaxima&#39;s main tool bar.">
<polygon fill="white" stroke="black" points="1132.5,-224.5 1132.5,-243.5 1221.5,-243.5 1221.5,-224.5 1132.5,-224.5"/>
<text text-anchor="middle" x="1177" y="-231.5" font-family="Helvetica,sans-Serif" font-size="10.00">src/ToolBar.cpp</text>
</a>
</g>
</g>
<!-- Node29&#45;&gt;Node30 -->
<g id="edge43" class="edge">
<title>Node29&#45;&gt;Node30</title>
<path fill="none" stroke="midnightblue" d="M1139,-273C1148.57,-263.43 1160.36,-251.64 1168.25,-243.75"/>
<polygon fill="midnightblue" stroke="midnightblue" points="1136.51,-270.54 1131.92,-280.08 1141.46,-275.49 1136.51,-270.54"/>
</g>
<!-- Node31&#45;&gt;Node10 -->
<g id="edge48" class="edge">
<title>Node31&#45;&gt;Node10</title>
<path fill="none" stroke="midnightblue" d="M419.15,-102.35C418.06,-78.25 416.2,-37.31 415.39,-19.59"/>
<polygon fill="midnightblue" stroke="midnightblue" points="415.66,-102.54 419.61,-112.37 422.65,-102.22 415.66,-102.54"/>
</g>
<!-- Node31&#45;&gt;Node12 -->
<g id="edge47" class="edge">
<title>Node31&#45;&gt;Node12</title>
<path fill="none" stroke="midnightblue" d="M463.76,-109.96C504.17,-99.76 563.37,-84.82 600.25,-75.52"/>
<polygon fill="midnightblue" stroke="midnightblue" points="462.75,-106.6 453.91,-112.44 464.46,-113.39 462.75,-106.6"/>
</g>
</g>
</svg>
