<?xml version="1.0" encoding="UTF-8" standalone="no"?>
<!DOCTYPE svg PUBLIC "-//W3C//DTD SVG 1.1//EN"
 "http://www.w3.org/Graphics/SVG/1.1/DTD/svg11.dtd">
<!-- Generated by graphviz version 2.43.0 (0)
 -->
<!-- Title: src/cells/GroupCell.h Pages: 1 -->
<!--zoomable 364 -->
<svg id="main" version="1.1" xmlns="http://www.w3.org/2000/svg" xmlns:xlink="http://www.w3.org/1999/xlink" xml:space="preserve" onload="init(evt)">
<style type="text/css"><![CDATA[
.edge:hover path { stroke: red; }
.edge:hover polygon { stroke: red; fill: red; }
]]></style>
<script type="text/javascript"><![CDATA[
var edges = document.getElementsByTagName('g');
if (edges && edges.length) {
  for (var i=0;i<edges.length;i++) {
    if (edges[i].id.substr(0,4)=='edge') {
      edges[i].setAttribute('class','edge');
    }
  }
}
]]></script>
        <defs>
                <circle id="rim" cx="0" cy="0" r="7"/>
                <circle id="rim2" cx="0" cy="0" r="3.5"/>
                <g id="zoomPlus">
                        <use xlink:href="#rim" fill="#404040">
                                <set attributeName="fill" to="#808080" begin="zoomplus.mouseover" end="zoomplus.mouseout"/>
                        </use>
                        <path d="M-4,0h8M0,-4v8" fill="none" stroke="white" stroke-width="1.5" pointer-events="none"/>
                </g>
                <g id="zoomMin">
                        <use xlink:href="#rim" fill="#404040">
                                <set attributeName="fill" to="#808080" begin="zoomminus.mouseover" end="zoomminus.mouseout"/>
                        </use>
                        <path d="M-4,0h8" fill="none" stroke="white" stroke-width="1.5" pointer-events="none"/>
                </g>
                <g id="dirArrow">
                        <path fill="none" stroke="white" stroke-width="1.5" d="M0,-3.0v7 M-2.5,-0.5L0,-3.0L2.5,-0.5"/>
                </g>
               <g id="resetDef">
                       <use xlink:href="#rim2" fill="#404040">
                               <set attributeName="fill" to="#808080" begin="reset.mouseover" end="reset.mouseout"/>
                       </use>
               </g>
        </defs>

<script type="text/javascript">
var viewWidth = 1419;
var viewHeight = 364;
var sectionId = 'dynsection-1';
</script>
<script xlink:href="svgpan.js"/>
<svg id="graph" class="graph">
<g id="viewport">
<title>src/cells/GroupCell.h</title>
<polygon fill="white" stroke="transparent" points="-4,4 -4,-360 1415.01,-360 1415.01,4 -4,4"/>
<!-- Node1 -->
<g id="node1" class="node">
<title>Node1</title>
<g id="a_node1"><a xlink:title="This file defines the class GroupCell that bundles input and output in the worksheet.">
<polygon fill="#bfbfbf" stroke="black" points="634,-336.5 634,-355.5 750,-355.5 750,-336.5 634,-336.5"/>
<text text-anchor="middle" x="692" y="-343.5" font-family="Helvetica,sans-Serif" font-size="10.00">src/cells/GroupCell.h</text>
</a>
</g>
</g>
<!-- Node2 -->
<g id="node2" class="node">
<title>Node2</title>
<g id="a_node2"><a xlink:href="Cell_8cpp.html" target="_top" xlink:title="This file defines the class Cell.">
<polygon fill="white" stroke="black" points="0,-280.5 0,-299.5 98,-299.5 98,-280.5 0,-280.5"/>
<text text-anchor="middle" x="49" y="-287.5" font-family="Helvetica,sans-Serif" font-size="10.00">src/cells/Cell.cpp</text>
</a>
</g>
</g>
<!-- Node1&#45;&gt;Node2 -->
<g id="edge1" class="edge">
<title>Node1&#45;&gt;Node2</title>
<path fill="none" stroke="midnightblue" d="M623.5,-341.45C514.09,-335.39 293.24,-321.58 107,-300 104.06,-299.66 101.05,-299.28 98.01,-298.88"/>
<polygon fill="midnightblue" stroke="midnightblue" points="623.56,-344.96 633.73,-342.01 623.94,-337.97 623.56,-344.96"/>
</g>
<!-- Node3 -->
<g id="node3" class="node">
<title>Node3</title>
<g id="a_node3"><a xlink:href="DiffCell_8cpp.html" target="_top" xlink:title="This file defines the class DiffCell.">
<polygon fill="white" stroke="black" points="116,-280.5 116,-299.5 232,-299.5 232,-280.5 116,-280.5"/>
<text text-anchor="middle" x="174" y="-287.5" font-family="Helvetica,sans-Serif" font-size="10.00">src/cells/DiffCell.cpp</text>
</a>
</g>
</g>
<!-- Node1&#45;&gt;Node3 -->
<g id="edge2" class="edge">
<title>Node1&#45;&gt;Node3</title>
<path fill="none" stroke="midnightblue" d="M623.74,-338.92C535.34,-330.88 376.51,-315.86 241,-300 238.09,-299.66 235.1,-299.3 232.09,-298.93"/>
<polygon fill="midnightblue" stroke="midnightblue" points="623.63,-342.42 633.91,-339.84 624.27,-335.45 623.63,-342.42"/>
</g>
<!-- Node4 -->
<g id="node4" class="node">
<title>Node4</title>
<g id="a_node4"><a xlink:href="GroupCell_8cpp.html" target="_top" xlink:title="This file defines the class GroupCell.">
<polygon fill="white" stroke="black" points="250,-280.5 250,-299.5 378,-299.5 378,-280.5 250,-280.5"/>
<text text-anchor="middle" x="314" y="-287.5" font-family="Helvetica,sans-Serif" font-size="10.00">src/cells/GroupCell.cpp</text>
</a>
</g>
</g>
<!-- Node1&#45;&gt;Node4 -->
<g id="edge3" class="edge">
<title>Node1&#45;&gt;Node4</title>
<path fill="none" stroke="midnightblue" d="M623.53,-335.22C552.15,-325.02 441.42,-309.2 373.55,-299.51"/>
<polygon fill="midnightblue" stroke="midnightblue" points="623.37,-338.73 633.77,-336.68 624.36,-331.8 623.37,-338.73"/>
</g>
<!-- Node5 -->
<g id="node5" class="node">
<title>Node5</title>
<g id="a_node5"><a xlink:href="EvaluationQueue_8h.html" target="_top" xlink:title="The evaluation queue.">
<polygon fill="white" stroke="black" points="472,-280.5 472,-299.5 598,-299.5 598,-280.5 472,-280.5"/>
<text text-anchor="middle" x="535" y="-287.5" font-family="Helvetica,sans-Serif" font-size="10.00">src/EvaluationQueue.h</text>
</a>
</g>
</g>
<!-- Node1&#45;&gt;Node5 -->
<g id="edge4" class="edge">
<title>Node1&#45;&gt;Node5</title>
<path fill="none" stroke="midnightblue" d="M657.61,-333.17C628.05,-323 586.13,-308.59 559.76,-299.52"/>
<polygon fill="midnightblue" stroke="midnightblue" points="656.53,-336.5 667.12,-336.44 658.8,-329.88 656.53,-336.5"/>
</g>
<!-- Node7 -->
<g id="node7" class="node">
<title>Node7</title>
<g id="a_node7"><a xlink:href="Worksheet_8h.html" target="_top" xlink:title="This file defines the class Worksheet.">
<polygon fill="white" stroke="black" points="788.5,-224.5 788.5,-243.5 883.5,-243.5 883.5,-224.5 788.5,-224.5"/>
<text text-anchor="middle" x="836" y="-231.5" font-family="Helvetica,sans-Serif" font-size="10.00">src/Worksheet.h</text>
</a>
</g>
</g>
<!-- Node1&#45;&gt;Node7 -->
<g id="edge45" class="edge">
<title>Node1&#45;&gt;Node7</title>
<path fill="none" stroke="midnightblue" d="M760.35,-338.93C812.52,-332.71 878.21,-320.92 895,-300 911.98,-278.84 876.82,-255.68 853.82,-243.53"/>
<polygon fill="midnightblue" stroke="midnightblue" points="759.65,-335.49 750.12,-340.1 760.45,-342.44 759.65,-335.49"/>
</g>
<!-- Node21 -->
<g id="node21" class="node">
<title>Node21</title>
<g id="a_node21"><a xlink:href="Printout_8h.html" target="_top" xlink:title="This file declares the class MathPrintOut.">
<polygon fill="white" stroke="black" points="1244.5,-224.5 1244.5,-243.5 1387.5,-243.5 1387.5,-224.5 1244.5,-224.5"/>
<text text-anchor="middle" x="1316" y="-231.5" font-family="Helvetica,sans-Serif" font-size="10.00">src/graphical_io/Printout.h</text>
</a>
</g>
</g>
<!-- Node1&#45;&gt;Node21 -->
<g id="edge28" class="edge">
<title>Node1&#45;&gt;Node21</title>
<path fill="none" stroke="midnightblue" d="M760.69,-343.19C882.85,-339.29 1132.76,-328.06 1215,-300 1252.1,-287.34 1289.18,-258.22 1306.26,-243.64"/>
<polygon fill="midnightblue" stroke="midnightblue" points="760.23,-339.7 750.34,-343.51 760.44,-346.7 760.23,-339.7"/>
</g>
<!-- Node22 -->
<g id="node22" class="node">
<title>Node22</title>
<g id="a_node22"><a xlink:href="SVGout_8cpp.html" target="_top" xlink:title="This file defines the class Svgout that renders math as scalable vector graphics.">
<polygon fill="white" stroke="black" points="616,-280.5 616,-299.5 768,-299.5 768,-280.5 616,-280.5"/>
<text text-anchor="middle" x="692" y="-287.5" font-family="Helvetica,sans-Serif" font-size="10.00">src/graphical_io/SVGout.cpp</text>
</a>
</g>
</g>
<!-- Node1&#45;&gt;Node22 -->
<g id="edge31" class="edge">
<title>Node1&#45;&gt;Node22</title>
<path fill="none" stroke="midnightblue" d="M692,-325.8C692,-316.91 692,-306.78 692,-299.75"/>
<polygon fill="midnightblue" stroke="midnightblue" points="688.5,-326.08 692,-336.08 695.5,-326.08 688.5,-326.08"/>
</g>
<!-- Node23 -->
<g id="node23" class="node">
<title>Node23</title>
<g id="a_node23"><a xlink:href="MathParser_8h.html" target="_top" xlink:title="The header file for the xml cell parser.">
<polygon fill="white" stroke="black" points="357.5,-168.5 357.5,-187.5 454.5,-187.5 454.5,-168.5 357.5,-168.5"/>
<text text-anchor="middle" x="406" y="-175.5" font-family="Helvetica,sans-Serif" font-size="10.00">src/MathParser.h</text>
</a>
</g>
</g>
<!-- Node1&#45;&gt;Node23 -->
<g id="edge32" class="edge">
<title>Node1&#45;&gt;Node23</title>
<path fill="none" stroke="midnightblue" d="M623.69,-340.03C560.92,-334.14 473.85,-322.2 448,-300 413.25,-270.16 407.23,-209.99 406.2,-187.63"/>
<polygon fill="midnightblue" stroke="midnightblue" points="623.65,-343.54 633.93,-340.96 624.28,-336.57 623.65,-343.54"/>
</g>
<!-- Node25 -->
<g id="node25" class="node">
<title>Node25</title>
<g id="a_node25"><a xlink:href="Notification_8h.html" target="_top" xlink:title="This file defines the class Notification.">
<polygon fill="white" stroke="black" points="786.5,-280.5 786.5,-299.5 885.5,-299.5 885.5,-280.5 786.5,-280.5"/>
<text text-anchor="middle" x="836" y="-287.5" font-family="Helvetica,sans-Serif" font-size="10.00">src/Notification.h</text>
</a>
</g>
</g>
<!-- Node1&#45;&gt;Node25 -->
<g id="edge36" class="edge">
<title>Node1&#45;&gt;Node25</title>
<path fill="none" stroke="midnightblue" d="M724.25,-332.91C751.32,-322.75 789.32,-308.51 813.29,-299.52"/>
<polygon fill="midnightblue" stroke="midnightblue" points="722.95,-329.66 714.82,-336.44 725.41,-336.21 722.95,-329.66"/>
</g>
<!-- Node27 -->
<g id="node27" class="node">
<title>Node27</title>
<g id="a_node27"><a xlink:href="TableOfContents_8h.html" target="_top" xlink:title="This file contains the definition of the class TableOfContents that handles the table of contents pan...">
<polygon fill="white" stroke="black" points="1038.5,-280.5 1038.5,-299.5 1205.5,-299.5 1205.5,-280.5 1038.5,-280.5"/>
<text text-anchor="middle" x="1122" y="-287.5" font-family="Helvetica,sans-Serif" font-size="10.00">src/sidebars/TableOfContents.h</text>
</a>
</g>
</g>
<!-- Node1&#45;&gt;Node27 -->
<g id="edge39" class="edge">
<title>Node1&#45;&gt;Node27</title>
<path fill="none" stroke="midnightblue" d="M760.48,-336.4C841.01,-326.29 973.85,-309.61 1054.12,-299.52"/>
<polygon fill="midnightblue" stroke="midnightblue" points="759.93,-332.94 750.44,-337.66 760.8,-339.89 759.93,-332.94"/>
</g>
<!-- Node29 -->
<g id="node29" class="node">
<title>Node29</title>
<g id="a_node29"><a xlink:href="ToolBar_8h.html" target="_top" xlink:title="This file declares the class ToolBar that represents wxMaxima&#39;s main tool bar.">
<polygon fill="white" stroke="black" points="942,-280.5 942,-299.5 1020,-299.5 1020,-280.5 942,-280.5"/>
<text text-anchor="middle" x="981" y="-287.5" font-family="Helvetica,sans-Serif" font-size="10.00">src/ToolBar.h</text>
</a>
</g>
</g>
<!-- Node1&#45;&gt;Node29 -->
<g id="edge42" class="edge">
<title>Node1&#45;&gt;Node29</title>
<path fill="none" stroke="midnightblue" d="M747.72,-334.59C804.73,-323.94 891.84,-307.66 941.91,-298.3"/>
<polygon fill="midnightblue" stroke="midnightblue" points="746.98,-331.17 737.79,-336.44 748.27,-338.05 746.98,-331.17"/>
</g>
<!-- Node31 -->
<g id="node31" class="node">
<title>Node31</title>
<g id="a_node31"><a xlink:href="WXMformat_8h_source.html" target="_top" xlink:title=" ">
<polygon fill="white" stroke="black" points="1253.5,-112.5 1253.5,-131.5 1354.5,-131.5 1354.5,-112.5 1253.5,-112.5"/>
<text text-anchor="middle" x="1304" y="-119.5" font-family="Helvetica,sans-Serif" font-size="10.00">src/WXMformat.h</text>
</a>
</g>
</g>
<!-- Node1&#45;&gt;Node31 -->
<g id="edge46" class="edge">
<title>Node1&#45;&gt;Node31</title>
<path fill="none" stroke="midnightblue" d="M760.37,-345.61C866.35,-345.18 1076.1,-338.88 1249,-300 1317.62,-284.57 1357.03,-301.86 1397,-244 1416.2,-216.21 1414.94,-196.62 1397,-168 1385.18,-149.16 1363,-138.01 1343.25,-131.52"/>
<polygon fill="midnightblue" stroke="midnightblue" points="760.12,-342.11 750.13,-345.63 760.14,-349.11 760.12,-342.11"/>
</g>
<!-- Node32 -->
<g id="node32" class="node">
<title>Node32</title>
<g id="a_node32"><a xlink:href="WXMXformat_8h_source.html" target="_top" xlink:title=" ">
<polygon fill="white" stroke="black" points="473,-168.5 473,-187.5 581,-187.5 581,-168.5 473,-168.5"/>
<text text-anchor="middle" x="527" y="-175.5" font-family="Helvetica,sans-Serif" font-size="10.00">src/WXMXformat.h</text>
</a>
</g>
</g>
<!-- Node1&#45;&gt;Node32 -->
<g id="edge49" class="edge">
<title>Node1&#45;&gt;Node32</title>
<path fill="none" stroke="midnightblue" d="M623.63,-340.94C563.7,-335.77 483.07,-324.4 463,-300 441.54,-273.91 447.43,-253.98 463,-224 471.89,-206.88 490.61,-194.91 505.52,-187.64"/>
<polygon fill="midnightblue" stroke="midnightblue" points="623.56,-344.44 633.81,-341.77 624.13,-337.46 623.56,-344.44"/>
</g>
<!-- Node6 -->
<g id="node6" class="node">
<title>Node6</title>
<g id="a_node6"><a xlink:href="EvaluationQueue_8cpp.html" target="_top" xlink:title="This file defines the class EvaluationQueue.">
<polygon fill="white" stroke="black" points="472.5,-224.5 472.5,-243.5 609.5,-243.5 609.5,-224.5 472.5,-224.5"/>
<text text-anchor="middle" x="541" y="-231.5" font-family="Helvetica,sans-Serif" font-size="10.00">src/EvaluationQueue.cpp</text>
</a>
</g>
</g>
<!-- Node5&#45;&gt;Node6 -->
<g id="edge5" class="edge">
<title>Node5&#45;&gt;Node6</title>
<path fill="none" stroke="midnightblue" d="M537.1,-270.1C538.1,-261.14 539.24,-250.86 540.03,-243.75"/>
<polygon fill="midnightblue" stroke="midnightblue" points="533.62,-269.76 535.99,-280.08 540.57,-270.53 533.62,-269.76"/>
</g>
<!-- Node5&#45;&gt;Node7 -->
<g id="edge6" class="edge">
<title>Node5&#45;&gt;Node7</title>
<path fill="none" stroke="midnightblue" d="M592.61,-278.66C649.5,-268.46 735.45,-253.04 788.53,-243.52"/>
<polygon fill="midnightblue" stroke="midnightblue" points="591.92,-275.23 582.69,-280.44 593.16,-282.12 591.92,-275.23"/>
</g>
<!-- Node8 -->
<g id="node8" class="node">
<title>Node8</title>
<g id="a_node8"><a xlink:href="ConfigDialogue_8h.html" target="_top" xlink:title="The configuration dialog.">
<polygon fill="white" stroke="black" points="260.5,-56.5 260.5,-75.5 415.5,-75.5 415.5,-56.5 260.5,-56.5"/>
<text text-anchor="middle" x="338" y="-63.5" font-family="Helvetica,sans-Serif" font-size="10.00">src/dialogs/ConfigDialogue.h</text>
</a>
</g>
</g>
<!-- Node7&#45;&gt;Node8 -->
<g id="edge7" class="edge">
<title>Node7&#45;&gt;Node8</title>
<path fill="none" stroke="midnightblue" d="M778.3,-224.05C586.12,-202.68 526.39,-250.24 348,-188 305.64,-173.22 285.17,-171.56 264,-132 250.36,-106.52 286.98,-86.35 313.44,-75.59"/>
<polygon fill="midnightblue" stroke="midnightblue" points="778.11,-227.55 788.45,-225.23 778.92,-220.6 778.11,-227.55"/>
</g>
<!-- Node11 -->
<g id="node11" class="node">
<title>Node11</title>
<g id="a_node11"><a xlink:href="Printout_8cpp.html" target="_top" xlink:title="This file defines the class MathPrintOut.">
<polygon fill="white" stroke="black" points="1232.5,-168.5 1232.5,-187.5 1387.5,-187.5 1387.5,-168.5 1232.5,-168.5"/>
<text text-anchor="middle" x="1310" y="-175.5" font-family="Helvetica,sans-Serif" font-size="10.00">src/graphical_io/Printout.cpp</text>
</a>
</g>
</g>
<!-- Node7&#45;&gt;Node11 -->
<g id="edge10" class="edge">
<title>Node7&#45;&gt;Node11</title>
<path fill="none" stroke="midnightblue" d="M893.52,-224.01C971.4,-214.01 1134.67,-196.96 1232.33,-186.92"/>
<polygon fill="midnightblue" stroke="midnightblue" points="893.02,-220.54 883.56,-225.31 893.93,-227.48 893.02,-220.54"/>
</g>
<!-- Node12 -->
<g id="node12" class="node">
<title>Node12</title>
<g id="a_node12"><a xlink:href="wxMaximaFrame_8h.html" target="_top" xlink:title="This file declares the class wxMaximaFrame.">
<polygon fill="white" stroke="black" points="717,-168.5 717,-187.5 845,-187.5 845,-168.5 717,-168.5"/>
<text text-anchor="middle" x="781" y="-175.5" font-family="Helvetica,sans-Serif" font-size="10.00">src/wxMaximaFrame.h</text>
</a>
</g>
</g>
<!-- Node7&#45;&gt;Node12 -->
<g id="edge11" class="edge">
<title>Node7&#45;&gt;Node12</title>
<path fill="none" stroke="midnightblue" d="M819.71,-217C809.96,-207.43 797.95,-195.64 789.91,-187.75"/>
<polygon fill="midnightblue" stroke="midnightblue" points="817.33,-219.57 826.92,-224.08 822.23,-214.58 817.33,-219.57"/>
</g>
<!-- Node19 -->
<g id="node19" class="node">
<title>Node19</title>
<g id="a_node19"><a xlink:href="Worksheet_8cpp.html" target="_top" xlink:title="This file defines the class Worksheet.">
<polygon fill="white" stroke="black" points="874,-56.5 874,-75.5 980,-75.5 980,-56.5 874,-56.5"/>
<text text-anchor="middle" x="927" y="-63.5" font-family="Helvetica,sans-Serif" font-size="10.00">src/Worksheet.cpp</text>
</a>
</g>
</g>
<!-- Node7&#45;&gt;Node19 -->
<g id="edge27" class="edge">
<title>Node7&#45;&gt;Node19</title>
<path fill="none" stroke="midnightblue" d="M888.04,-222.43C985.26,-202.16 1186.46,-157.59 1206,-132 1211.39,-124.94 1211.76,-118.77 1206,-112 1205.08,-110.92 1060.96,-88.09 980.25,-75.37"/>
<polygon fill="midnightblue" stroke="midnightblue" points="887.2,-219.03 878.12,-224.49 888.62,-225.88 887.2,-219.03"/>
</g>
<!-- Node9 -->
<g id="node9" class="node">
<title>Node9</title>
<g id="a_node9"><a xlink:href="main_8cpp.html" target="_top" xlink:title="The file that defines the starting point of the program.">
<polygon fill="white" stroke="black" points="298.5,-0.5 298.5,-19.5 377.5,-19.5 377.5,-0.5 298.5,-0.5"/>
<text text-anchor="middle" x="338" y="-7.5" font-family="Helvetica,sans-Serif" font-size="10.00">src/main.cpp</text>
</a>
</g>
</g>
<!-- Node8&#45;&gt;Node9 -->
<g id="edge8" class="edge">
<title>Node8&#45;&gt;Node9</title>
<path fill="none" stroke="midnightblue" d="M338,-45.8C338,-36.91 338,-26.78 338,-19.75"/>
<polygon fill="midnightblue" stroke="midnightblue" points="334.5,-46.08 338,-56.08 341.5,-46.08 334.5,-46.08"/>
</g>
<!-- Node10 -->
<g id="node10" class="node">
<title>Node10</title>
<g id="a_node10"><a xlink:href="wxMaxima_8cpp.html" target="_top" xlink:title="This file defines the contents of the class wxMaxima that contains most of the program&#39;s logic.">
<polygon fill="white" stroke="black" points="547,-0.5 547,-19.5 655,-19.5 655,-0.5 547,-0.5"/>
<text text-anchor="middle" x="601" y="-7.5" font-family="Helvetica,sans-Serif" font-size="10.00">src/wxMaxima.cpp</text>
</a>
</g>
</g>
<!-- Node8&#45;&gt;Node10 -->
<g id="edge9" class="edge">
<title>Node8&#45;&gt;Node10</title>
<path fill="none" stroke="midnightblue" d="M389.58,-54.41C439.28,-44.2 513.53,-28.96 559.52,-19.52"/>
<polygon fill="midnightblue" stroke="midnightblue" points="388.76,-51 379.67,-56.44 390.17,-57.86 388.76,-51"/>
</g>
<!-- Node13 -->
<g id="node13" class="node">
<title>Node13</title>
<g id="a_node13"><a xlink:href="AutocompletePopup_8cpp.html" target="_top" xlink:title="This file defines the class AutocompletePopup.">
<polygon fill="white" stroke="black" points="705,-112.5 705,-131.5 857,-131.5 857,-112.5 705,-112.5"/>
<text text-anchor="middle" x="781" y="-119.5" font-family="Helvetica,sans-Serif" font-size="10.00">src/AutocompletePopup.cpp</text>
</a>
</g>
</g>
<!-- Node12&#45;&gt;Node13 -->
<g id="edge12" class="edge">
<title>Node12&#45;&gt;Node13</title>
<path fill="none" stroke="midnightblue" d="M781,-157.8C781,-148.91 781,-138.78 781,-131.75"/>
<polygon fill="midnightblue" stroke="midnightblue" points="777.5,-158.08 781,-168.08 784.5,-158.08 777.5,-158.08"/>
</g>
<!-- Node14 -->
<g id="node14" class="node">
<title>Node14</title>
<g id="a_node14"><a xlink:href="EditorCell_8cpp.html" target="_top" xlink:title="This file defines the class EditorCell.">
<polygon fill="white" stroke="black" points="629.5,-56.5 629.5,-75.5 756.5,-75.5 756.5,-56.5 629.5,-56.5"/>
<text text-anchor="middle" x="693" y="-63.5" font-family="Helvetica,sans-Serif" font-size="10.00">src/cells/EditorCell.cpp</text>
</a>
</g>
</g>
<!-- Node12&#45;&gt;Node14 -->
<g id="edge13" class="edge">
<title>Node12&#45;&gt;Node14</title>
<path fill="none" stroke="midnightblue" d="M710.78,-165.33C692.21,-158.7 674.23,-148.3 663,-132 650.31,-113.58 670.3,-88.93 683.28,-75.91"/>
<polygon fill="midnightblue" stroke="midnightblue" points="709.93,-168.73 720.52,-168.47 712.07,-162.07 709.93,-168.73"/>
</g>
<!-- Node15 -->
<g id="node15" class="node">
<title>Node15</title>
<g id="a_node15"><a xlink:href="main_8h.html" target="_top" xlink:title="This file declares the class wxMaxima that contains most of the program&#39;s logic.">
<polygon fill="white" stroke="black" points="434,-56.5 434,-75.5 502,-75.5 502,-56.5 434,-56.5"/>
<text text-anchor="middle" x="468" y="-63.5" font-family="Helvetica,sans-Serif" font-size="10.00">src/main.h</text>
</a>
</g>
</g>
<!-- Node12&#45;&gt;Node15 -->
<g id="edge14" class="edge">
<title>Node12&#45;&gt;Node15</title>
<path fill="none" stroke="midnightblue" d="M706.45,-171.43C618.32,-164.08 481.56,-149.94 466,-132 452.39,-116.31 459.38,-89.59 464.38,-75.81"/>
<polygon fill="midnightblue" stroke="midnightblue" points="706.43,-174.94 716.68,-172.27 707,-167.97 706.43,-174.94"/>
</g>
<!-- Node17 -->
<g id="node17" class="node">
<title>Node17</title>
<g id="a_node17"><a xlink:href="GreekSidebar_8cpp.html" target="_top" xlink:title="This file defines the class GreekSidebar.">
<polygon fill="white" stroke="black" points="875,-112.5 875,-131.5 1039,-131.5 1039,-112.5 875,-112.5"/>
<text text-anchor="middle" x="957" y="-119.5" font-family="Helvetica,sans-Serif" font-size="10.00">src/sidebars/GreekSidebar.cpp</text>
</a>
</g>
</g>
<!-- Node12&#45;&gt;Node17 -->
<g id="edge18" class="edge">
<title>Node12&#45;&gt;Node17</title>
<path fill="none" stroke="midnightblue" d="M818.69,-165.44C851.87,-155.26 899.43,-140.66 929.24,-131.52"/>
<polygon fill="midnightblue" stroke="midnightblue" points="817.42,-162.16 808.89,-168.44 819.47,-168.86 817.42,-162.16"/>
</g>
<!-- Node18 -->
<g id="node18" class="node">
<title>Node18</title>
<g id="a_node18"><a xlink:href="wxMaxima_8h.html" target="_top" xlink:title="This file declares the class wxMaxima that contains most of the program&#39;s logic.">
<polygon fill="white" stroke="black" points="475.5,-112.5 475.5,-131.5 572.5,-131.5 572.5,-112.5 475.5,-112.5"/>
<text text-anchor="middle" x="524" y="-119.5" font-family="Helvetica,sans-Serif" font-size="10.00">src/wxMaxima.h</text>
</a>
</g>
</g>
<!-- Node12&#45;&gt;Node18 -->
<g id="edge19" class="edge">
<title>Node12&#45;&gt;Node18</title>
<path fill="none" stroke="midnightblue" d="M730.29,-166.35C681.72,-156.14 609.38,-140.94 564.53,-131.52"/>
<polygon fill="midnightblue" stroke="midnightblue" points="729.77,-169.81 740.28,-168.44 731.21,-162.96 729.77,-169.81"/>
</g>
<!-- Node12&#45;&gt;Node19 -->
<g id="edge26" class="edge">
<title>Node12&#45;&gt;Node19</title>
<path fill="none" stroke="midnightblue" d="M743.05,-164.95C712.6,-153.3 677.72,-134.19 696,-112 718.09,-85.2 812.7,-74.15 873.78,-69.75"/>
<polygon fill="midnightblue" stroke="midnightblue" points="742.11,-168.34 752.71,-168.47 744.51,-161.76 742.11,-168.34"/>
</g>
<!-- Node20 -->
<g id="node20" class="node">
<title>Node20</title>
<g id="a_node20"><a xlink:href="wxMaximaFrame_8cpp.html" target="_top" xlink:title="This file defines the class wxMaximaFrame.">
<polygon fill="white" stroke="black" points="1057.5,-112.5 1057.5,-131.5 1196.5,-131.5 1196.5,-112.5 1057.5,-112.5"/>
<text text-anchor="middle" x="1127" y="-119.5" font-family="Helvetica,sans-Serif" font-size="10.00">src/wxMaximaFrame.cpp</text>
</a>
</g>
</g>
<!-- Node12&#45;&gt;Node20 -->
<g id="edge25" class="edge">
<title>Node12&#45;&gt;Node20</title>
<path fill="none" stroke="midnightblue" d="M846.01,-166.85C911.38,-156.65 1011.04,-141.1 1072.43,-131.52"/>
<polygon fill="midnightblue" stroke="midnightblue" points="845.17,-163.44 835.82,-168.44 846.24,-170.36 845.17,-163.44"/>
</g>
<!-- Node15&#45;&gt;Node9 -->
<g id="edge16" class="edge">
<title>Node15&#45;&gt;Node9</title>
<path fill="none" stroke="midnightblue" d="M437.91,-52.5C413.54,-42.38 379.86,-28.39 358.5,-19.52"/>
<polygon fill="midnightblue" stroke="midnightblue" points="436.82,-55.84 447.4,-56.44 439.51,-49.38 436.82,-55.84"/>
</g>
<!-- Node15&#45;&gt;Node10 -->
<g id="edge17" class="edge">
<title>Node15&#45;&gt;Node10</title>
<path fill="none" stroke="midnightblue" d="M498.45,-52.64C523.41,-42.5 558.08,-28.43 580.02,-19.52"/>
<polygon fill="midnightblue" stroke="midnightblue" points="497.02,-49.44 489.07,-56.44 499.66,-55.92 497.02,-49.44"/>
</g>
<!-- Node16 -->
<g id="node16" class="node">
<title>Node16</title>
<g id="a_node16"><a xlink:href="MaximaManual_8cpp.html" target="_top" xlink:title="This file defines the class MaximaManual.">
<polygon fill="white" stroke="black" points="399,-0.5 399,-19.5 529,-19.5 529,-0.5 399,-0.5"/>
<text text-anchor="middle" x="464" y="-7.5" font-family="Helvetica,sans-Serif" font-size="10.00">src/MaximaManual.cpp</text>
</a>
</g>
</g>
<!-- Node15&#45;&gt;Node16 -->
<g id="edge15" class="edge">
<title>Node15&#45;&gt;Node16</title>
<path fill="none" stroke="midnightblue" d="M466.6,-46.1C465.94,-37.14 465.17,-26.86 464.65,-19.75"/>
<polygon fill="midnightblue" stroke="midnightblue" points="463.11,-46.37 467.34,-56.08 470.09,-45.85 463.11,-46.37"/>
</g>
<!-- Node18&#45;&gt;Node9 -->
<g id="edge22" class="edge">
<title>Node18&#45;&gt;Node9</title>
<path fill="none" stroke="midnightblue" d="M464.96,-115.31C388.88,-107.38 264.69,-92.13 251,-76 230.08,-51.35 276.23,-30.55 308.98,-19.51"/>
<polygon fill="midnightblue" stroke="midnightblue" points="465.06,-118.84 475.36,-116.38 465.77,-111.88 465.06,-118.84"/>
</g>
<!-- Node18&#45;&gt;Node10 -->
<g id="edge24" class="edge">
<title>Node18&#45;&gt;Node10</title>
<path fill="none" stroke="midnightblue" d="M535.93,-103.96C552.62,-80.12 582.3,-37.71 594.99,-19.59"/>
<polygon fill="midnightblue" stroke="midnightblue" points="532.91,-102.17 530.04,-112.37 538.64,-106.18 532.91,-102.17"/>
</g>
<!-- Node18&#45;&gt;Node14 -->
<g id="edge20" class="edge">
<title>Node18&#45;&gt;Node14</title>
<path fill="none" stroke="midnightblue" d="M560.6,-109.3C592.45,-99.13 637.84,-84.62 666.35,-75.52"/>
<polygon fill="midnightblue" stroke="midnightblue" points="559.24,-106.07 550.78,-112.44 561.37,-112.73 559.24,-106.07"/>
</g>
<!-- Node18&#45;&gt;Node15 -->
<g id="edge21" class="edge">
<title>Node18&#45;&gt;Node15</title>
<path fill="none" stroke="midnightblue" d="M507.67,-105.25C497.74,-95.67 485.41,-83.79 477.16,-75.83"/>
<polygon fill="midnightblue" stroke="midnightblue" points="505.37,-107.9 515,-112.32 510.23,-102.86 505.37,-107.9"/>
</g>
<!-- Node18&#45;&gt;Node19 -->
<g id="edge23" class="edge">
<title>Node18&#45;&gt;Node19</title>
<path fill="none" stroke="midnightblue" d="M582.79,-113.12C661.06,-102.63 798.36,-84.24 873.74,-74.14"/>
<polygon fill="midnightblue" stroke="midnightblue" points="582.06,-109.69 572.61,-114.49 582.99,-116.63 582.06,-109.69"/>
</g>
<!-- Node21&#45;&gt;Node10 -->
<g id="edge30" class="edge">
<title>Node21&#45;&gt;Node10</title>
<path fill="none" stroke="midnightblue" d="M1356.52,-220.54C1372.01,-213.57 1388.08,-203.16 1397,-188 1413.95,-159.19 1370.59,-116.59 1364,-112 1248.97,-31.81 809.73,-15.22 655.18,-11.85"/>
<polygon fill="midnightblue" stroke="midnightblue" points="1354.94,-217.4 1347.02,-224.44 1357.6,-223.88 1354.94,-217.4"/>
</g>
<!-- Node21&#45;&gt;Node11 -->
<g id="edge29" class="edge">
<title>Node21&#45;&gt;Node11</title>
<path fill="none" stroke="midnightblue" d="M1313.9,-214.1C1312.9,-205.14 1311.76,-194.86 1310.97,-187.75"/>
<polygon fill="midnightblue" stroke="midnightblue" points="1310.43,-214.53 1315.01,-224.08 1317.38,-213.76 1310.43,-214.53"/>
</g>
<!-- Node23&#45;&gt;Node15 -->
<g id="edge33" class="edge">
<title>Node23&#45;&gt;Node15</title>
<path fill="none" stroke="midnightblue" d="M412.1,-158.74C416.91,-145.36 424.27,-127 433,-112 440.87,-98.49 452.36,-84.51 460,-75.79"/>
<polygon fill="midnightblue" stroke="midnightblue" points="408.77,-157.65 408.8,-168.24 415.38,-159.94 408.77,-157.65"/>
</g>
<!-- Node23&#45;&gt;Node18 -->
<g id="edge35" class="edge">
<title>Node23&#45;&gt;Node18</title>
<path fill="none" stroke="midnightblue" d="M433.9,-164.23C455.97,-154.13 486.18,-140.31 505.39,-131.52"/>
<polygon fill="midnightblue" stroke="midnightblue" points="432.33,-161.1 424.7,-168.44 435.25,-167.46 432.33,-161.1"/>
</g>
<!-- Node24 -->
<g id="node24" class="node">
<title>Node24</title>
<g id="a_node24"><a xlink:href="MathParser_8cpp.html" target="_top" xlink:title="This file defines the class MathParser that reads wxmx data and math from Maxima.">
<polygon fill="white" stroke="black" points="273,-112.5 273,-131.5 381,-131.5 381,-112.5 273,-112.5"/>
<text text-anchor="middle" x="327" y="-119.5" font-family="Helvetica,sans-Serif" font-size="10.00">src/MathParser.cpp</text>
</a>
</g>
</g>
<!-- Node23&#45;&gt;Node24 -->
<g id="edge34" class="edge">
<title>Node23&#45;&gt;Node24</title>
<path fill="none" stroke="midnightblue" d="M384.97,-162.62C370.53,-152.76 351.86,-139.99 339.66,-131.65"/>
<polygon fill="midnightblue" stroke="midnightblue" points="383.08,-165.57 393.31,-168.32 387.03,-159.79 383.08,-165.57"/>
</g>
<!-- Node25&#45;&gt;Node7 -->
<g id="edge38" class="edge">
<title>Node25&#45;&gt;Node7</title>
<path fill="none" stroke="midnightblue" d="M836,-269.8C836,-260.91 836,-250.78 836,-243.75"/>
<polygon fill="midnightblue" stroke="midnightblue" points="832.5,-270.08 836,-280.08 839.5,-270.08 832.5,-270.08"/>
</g>
<!-- Node26 -->
<g id="node26" class="node">
<title>Node26</title>
<g id="a_node26"><a xlink:href="Notification_8cpp.html" target="_top" xlink:title="This file defines the class Notification.">
<polygon fill="white" stroke="black" points="660,-224.5 660,-243.5 770,-243.5 770,-224.5 660,-224.5"/>
<text text-anchor="middle" x="715" y="-231.5" font-family="Helvetica,sans-Serif" font-size="10.00">src/Notification.cpp</text>
</a>
</g>
</g>
<!-- Node25&#45;&gt;Node26 -->
<g id="edge37" class="edge">
<title>Node25&#45;&gt;Node26</title>
<path fill="none" stroke="midnightblue" d="M807.69,-276.37C785.03,-266.26 753.87,-252.35 734.08,-243.52"/>
<polygon fill="midnightblue" stroke="midnightblue" points="806.27,-279.56 816.83,-280.44 809.12,-273.17 806.27,-279.56"/>
</g>
<!-- Node27&#45;&gt;Node12 -->
<g id="edge41" class="edge">
<title>Node27&#45;&gt;Node12</title>
<path fill="none" stroke="midnightblue" d="M1096.99,-275.44C1062.79,-256.93 1005.06,-225.82 1000,-224 949.43,-205.76 889.48,-194.09 845.1,-187.21"/>
<polygon fill="midnightblue" stroke="midnightblue" points="1095.49,-278.61 1105.95,-280.29 1098.82,-272.45 1095.49,-278.61"/>
</g>
<!-- Node28 -->
<g id="node28" class="node">
<title>Node28</title>
<g id="a_node28"><a xlink:href="TableOfContents_8cpp.html" target="_top" xlink:title="This file defines the class Structure.">
<polygon fill="white" stroke="black" points="1047.5,-224.5 1047.5,-243.5 1226.5,-243.5 1226.5,-224.5 1047.5,-224.5"/>
<text text-anchor="middle" x="1137" y="-231.5" font-family="Helvetica,sans-Serif" font-size="10.00">src/sidebars/TableOfContents.cpp</text>
</a>
</g>
</g>
<!-- Node27&#45;&gt;Node28 -->
<g id="edge40" class="edge">
<title>Node27&#45;&gt;Node28</title>
<path fill="none" stroke="midnightblue" d="M1127.17,-270.4C1129.68,-261.36 1132.57,-250.94 1134.57,-243.75"/>
<polygon fill="midnightblue" stroke="midnightblue" points="1123.78,-269.51 1124.48,-280.08 1130.53,-271.38 1123.78,-269.51"/>
</g>
<!-- Node29&#45;&gt;Node7 -->
<g id="edge44" class="edge">
<title>Node29&#45;&gt;Node7</title>
<path fill="none" stroke="midnightblue" d="M948.52,-276.91C921.26,-266.75 883.01,-252.51 858.87,-243.52"/>
<polygon fill="midnightblue" stroke="midnightblue" points="947.43,-280.23 958.02,-280.44 949.87,-273.67 947.43,-280.23"/>
</g>
<!-- Node30 -->
<g id="node30" class="node">
<title>Node30</title>
<g id="a_node30"><a xlink:href="ToolBar_8cpp.html" target="_top" xlink:title="This file defines the class ToolBar that represents wxMaxima&#39;s main tool bar.">
<polygon fill="white" stroke="black" points="901.5,-224.5 901.5,-243.5 990.5,-243.5 990.5,-224.5 901.5,-224.5"/>
<text text-anchor="middle" x="946" y="-231.5" font-family="Helvetica,sans-Serif" font-size="10.00">src/ToolBar.cpp</text>
</a>
</g>
</g>
<!-- Node29&#45;&gt;Node30 -->
<g id="edge43" class="edge">
<title>Node29&#45;&gt;Node30</title>
<path fill="none" stroke="midnightblue" d="M969.7,-271.57C963.68,-262.27 956.53,-251.25 951.67,-243.75"/>
<polygon fill="midnightblue" stroke="midnightblue" points="966.84,-273.6 975.22,-280.08 972.72,-269.79 966.84,-273.6"/>
</g>
<!-- Node31&#45;&gt;Node10 -->
<g id="edge48" class="edge">
<title>Node31&#45;&gt;Node10</title>
<path fill="none" stroke="midnightblue" d="M1257.71,-110.11C1196.5,-96.03 1085.15,-71.47 989,-56 870.49,-36.94 730.38,-22.72 655.19,-15.77"/>
<polygon fill="midnightblue" stroke="midnightblue" points="1257.28,-113.61 1267.81,-112.45 1258.86,-106.79 1257.28,-113.61"/>
</g>
<!-- Node31&#45;&gt;Node19 -->
<g id="edge47" class="edge">
<title>Node31&#45;&gt;Node19</title>
<path fill="none" stroke="midnightblue" d="M1243.2,-112.29C1170.31,-101.85 1049.34,-84.52 980.07,-74.6"/>
<polygon fill="midnightblue" stroke="midnightblue" points="1242.76,-115.76 1253.16,-113.72 1243.75,-108.83 1242.76,-115.76"/>
</g>
<!-- Node32&#45;&gt;Node10 -->
<g id="edge51" class="edge">
<title>Node32&#45;&gt;Node10</title>
<path fill="none" stroke="midnightblue" d="M550.82,-162.83C561.74,-155.1 573.82,-144.54 581,-132 602.47,-94.49 602.47,-40.38 601.54,-19.59"/>
<polygon fill="midnightblue" stroke="midnightblue" points="548.82,-159.96 542.43,-168.41 552.69,-165.79 548.82,-159.96"/>
</g>
<!-- Node32&#45;&gt;Node18 -->
<g id="edge50" class="edge">
<title>Node32&#45;&gt;Node18</title>
<path fill="none" stroke="midnightblue" d="M525.93,-157.8C525.44,-148.91 524.88,-138.78 524.49,-131.75"/>
<polygon fill="midnightblue" stroke="midnightblue" points="522.46,-158.29 526.5,-168.08 529.44,-157.9 522.46,-158.29"/>
</g>
</g>
</svg>
        <g id="navigator" transform="translate(0 0)" fill="#404254">
                <rect fill="#f2f5e9" fill-opacity="0.5" stroke="#606060" stroke-width=".5" x="0" y="0" width="60" height="60"/>
                <use id="zoomplus" xlink:href="#zoomPlus" x="17" y="9" onmousedown="handleZoom(evt,'in')"/>
                <use id="zoomminus" xlink:href="#zoomMin" x="42" y="9" onmousedown="handleZoom(evt,'out')"/>
                <use id="reset" xlink:href="#resetDef" x="30" y="36" onmousedown="handleReset()"/>
                <g id="arrowUp" xlink:href="#dirArrow" transform="translate(30 24)" onmousedown="handlePan(0,-1)">
                  <use xlink:href="#rim" fill="#404040">
                        <set attributeName="fill" to="#808080" begin="arrowUp.mouseover" end="arrowUp.mouseout"/>
                  </use>
                  <path fill="none" stroke="white" stroke-width="1.5" d="M0,-3.0v7 M-2.5,-0.5L0,-3.0L2.5,-0.5"/>
                </g>
                <g id="arrowRight" xlink:href="#dirArrow" transform="rotate(90) translate(36 -43)" onmousedown="handlePan(1,0)">
                  <use xlink:href="#rim" fill="#404040">
                        <set attributeName="fill" to="#808080" begin="arrowRight.mouseover" end="arrowRight.mouseout"/>
                  </use>
                  <path fill="none" stroke="white" stroke-width="1.5" d="M0,-3.0v7 M-2.5,-0.5L0,-3.0L2.5,-0.5"/>
                </g>
                <g id="arrowDown" xlink:href="#dirArrow" transform="rotate(180) translate(-30 -48)" onmousedown="handlePan(0,1)">
                  <use xlink:href="#rim" fill="#404040">
                        <set attributeName="fill" to="#808080" begin="arrowDown.mouseover" end="arrowDown.mouseout"/>
                  </use>
                  <path fill="none" stroke="white" stroke-width="1.5" d="M0,-3.0v7 M-2.5,-0.5L0,-3.0L2.5,-0.5"/>
                </g>
                <g id="arrowLeft" xlink:href="#dirArrow" transform="rotate(270) translate(-36 17)" onmousedown="handlePan(-1,0)">
                  <use xlink:href="#rim" fill="#404040">
                        <set attributeName="fill" to="#808080" begin="arrowLeft.mouseover" end="arrowLeft.mouseout"/>
                  </use>
                  <path fill="none" stroke="white" stroke-width="1.5" d="M0,-3.0v7 M-2.5,-0.5L0,-3.0L2.5,-0.5"/>
                </g>
        </g>
        <svg viewBox="0 0 15 15" width="100%" height="30px" preserveAspectRatio="xMaxYMin meet">
         <g id="arrow_out" transform="scale(0.3 0.3)">
          <a xlink:href="GroupCell_8h__dep__incl_org.svg" target="_base">
           <rect id="button" ry="5" rx="5" y="6" x="6" height="38" width="38"
                fill="#f2f5e9" fill-opacity="0.5" stroke="#606060" stroke-width="1.0"/>
           <path id="arrow"
             d="M 11.500037,31.436501 C 11.940474,20.09759 22.043105,11.32322 32.158766,21.979434 L 37.068811,17.246167 C 37.068811,17.246167 37.088388,32 37.088388,32 L 22.160133,31.978069 C 22.160133,31.978069 26.997745,27.140456 26.997745,27.140456 C 18.528582,18.264221 13.291696,25.230495 11.500037,31.436501 z"
             style="fill:#404040;"/>
          </a>
         </g>
        </svg>
</svg>
