<?xml version="1.0" encoding="UTF-8" standalone="no"?>
<!DOCTYPE svg PUBLIC "-//W3C//DTD SVG 1.1//EN"
 "http://www.w3.org/Graphics/SVG/1.1/DTD/svg11.dtd">
<!-- Generated by graphviz version 2.43.0 (0)
 -->
<!-- Title: src/cells/GroupCell.h Pages: 1 -->
<svg width="1684pt" height="357pt"
 viewBox="0.00 0.00 1683.81 357.00" xmlns="http://www.w3.org/2000/svg" xmlns:xlink="http://www.w3.org/1999/xlink">
<g id="graph0" class="graph" transform="scale(1 1) rotate(0) translate(4 353)">
<title>src/cells/GroupCell.h</title>
<!-- Node1 -->
<g id="node1" class="node">
<title>Node1</title>
<g id="a_node1"><a xlink:title="This file defines the class GroupCell that bundles input and output in the worksheet.">
<polygon fill="#999999" stroke="#666666" points="1051.81,-349 935.81,-349 935.81,-330 1051.81,-330 1051.81,-349"/>
<text text-anchor="middle" x="993.81" y="-337" font-family="Helvetica,sans-Serif" font-size="10.00">src/cells/GroupCell.h</text>
</a>
</g>
</g>
<!-- Node2 -->
<g id="node2" class="node">
<title>Node2</title>
<g id="a_node2"><a xlink:href="EvaluationQueue_8h.html" target="_top" xlink:title="The evaluation queue.">
<polygon fill="white" stroke="#666666" points="847.81,-294 721.81,-294 721.81,-275 847.81,-275 847.81,-294"/>
<text text-anchor="middle" x="784.81" y="-282" font-family="Helvetica,sans-Serif" font-size="10.00">src/EvaluationQueue.h</text>
</a>
</g>
</g>
<!-- Node1&#45;&gt;Node2 -->
<g id="edge1" class="edge">
<title>Node1&#45;&gt;Node2</title>
<path fill="none" stroke="#63b8ff" d="M950.43,-327.5C911.3,-317.58 854.52,-303.18 818.65,-294.08"/>
<polygon fill="#63b8ff" stroke="#63b8ff" points="949.67,-330.92 960.23,-329.98 951.39,-324.13 949.67,-330.92"/>
</g>
<!-- Node4 -->
<g id="node4" class="node">
<title>Node4</title>
<g id="a_node4"><a xlink:href="Worksheet_8h.html" target="_top" xlink:title="This file defines the class Worksheet.">
<polygon fill="white" stroke="#666666" points="1020.31,-239 925.31,-239 925.31,-220 1020.31,-220 1020.31,-239"/>
<text text-anchor="middle" x="972.81" y="-227" font-family="Helvetica,sans-Serif" font-size="10.00">src/Worksheet.h</text>
</a>
</g>
</g>
<!-- Node1&#45;&gt;Node4 -->
<g id="edge43" class="edge">
<title>Node1&#45;&gt;Node4</title>
<path fill="none" stroke="#63b8ff" d="M990.17,-319.8C985.58,-296.2 977.88,-256.58 974.49,-239.16"/>
<polygon fill="#63b8ff" stroke="#63b8ff" points="986.74,-320.51 992.09,-329.66 993.62,-319.18 986.74,-320.51"/>
</g>
<!-- Node6 -->
<g id="node6" class="node">
<title>Node6</title>
<g id="a_node6"><a xlink:href="Cell_8cpp.html" target="_top" xlink:title="This file defines the class Cell.">
<polygon fill="white" stroke="#666666" points="897.81,-184 799.81,-184 799.81,-165 897.81,-165 897.81,-184"/>
<text text-anchor="middle" x="848.81" y="-172" font-family="Helvetica,sans-Serif" font-size="10.00">src/cells/Cell.cpp</text>
</a>
</g>
</g>
<!-- Node1&#45;&gt;Node6 -->
<g id="edge44" class="edge">
<title>Node1&#45;&gt;Node6</title>
<path fill="none" stroke="#63b8ff" d="M925.42,-336.01C867.12,-331.95 782.02,-321.39 712.81,-294 672.34,-277.99 652.18,-277.45 631.81,-239 627.85,-231.54 626.47,-226.54 631.81,-220 637.15,-213.45 737.43,-194.92 799.78,-183.95"/>
<polygon fill="#63b8ff" stroke="#63b8ff" points="925.42,-339.51 935.63,-336.67 925.87,-332.53 925.42,-339.51"/>
</g>
<!-- Node7 -->
<g id="node7" class="node">
<title>Node7</title>
<g id="a_node7"><a xlink:href="GroupCell_8cpp.html" target="_top" xlink:title="This file defines the class GroupCell.">
<polygon fill="white" stroke="#666666" points="1121.81,-184 993.81,-184 993.81,-165 1121.81,-165 1121.81,-184"/>
<text text-anchor="middle" x="1057.81" y="-172" font-family="Helvetica,sans-Serif" font-size="10.00">src/cells/GroupCell.cpp</text>
</a>
</g>
</g>
<!-- Node1&#45;&gt;Node7 -->
<g id="edge46" class="edge">
<title>Node1&#45;&gt;Node7</title>
<path fill="none" stroke="#63b8ff" d="M1045.97,-327.09C1067.4,-320.33 1091.24,-309.86 1108.81,-294 1129.16,-275.61 1130.41,-265.67 1136.81,-239 1138.78,-230.79 1141.07,-227.29 1136.81,-220 1126.32,-202.06 1105.65,-190.79 1088.08,-184.08"/>
<polygon fill="#63b8ff" stroke="#63b8ff" points="1044.93,-323.75 1036.33,-329.95 1046.92,-330.46 1044.93,-323.75"/>
</g>
<!-- Node20 -->
<g id="node20" class="node">
<title>Node20</title>
<g id="a_node20"><a xlink:href="MathParser_8h.html" target="_top" xlink:title="The header file for the xml cell parser.">
<polygon fill="white" stroke="#666666" points="155.31,-184 58.31,-184 58.31,-165 155.31,-165 155.31,-184"/>
<text text-anchor="middle" x="106.81" y="-172" font-family="Helvetica,sans-Serif" font-size="10.00">src/MathParser.h</text>
</a>
</g>
</g>
<!-- Node1&#45;&gt;Node20 -->
<g id="edge27" class="edge">
<title>Node1&#45;&gt;Node20</title>
<path fill="none" stroke="#63b8ff" d="M925.69,-334.24C834.35,-327.85 677.45,-314.34 623.81,-294 596.77,-283.75 543.9,-230.09 516.81,-220 500.08,-213.77 260.43,-190.22 155.46,-180.14"/>
<polygon fill="#63b8ff" stroke="#63b8ff" points="925.46,-337.73 935.68,-334.93 925.94,-330.75 925.46,-337.73"/>
</g>
<!-- Node22 -->
<g id="node22" class="node">
<title>Node22</title>
<g id="a_node22"><a xlink:href="Notification_8h.html" target="_top" xlink:title="This file defines the class Notification.">
<polygon fill="white" stroke="#666666" points="965.31,-294 866.31,-294 866.31,-275 965.31,-275 965.31,-294"/>
<text text-anchor="middle" x="915.81" y="-282" font-family="Helvetica,sans-Serif" font-size="10.00">src/Notification.h</text>
</a>
</g>
</g>
<!-- Node1&#45;&gt;Node22 -->
<g id="edge31" class="edge">
<title>Node1&#45;&gt;Node22</title>
<path fill="none" stroke="#63b8ff" d="M972.69,-324.15C958.59,-314.57 940.52,-302.29 928.57,-294.17"/>
<polygon fill="#63b8ff" stroke="#63b8ff" points="971.04,-327.26 981.28,-329.98 974.97,-321.47 971.04,-327.26"/>
</g>
<!-- Node24 -->
<g id="node24" class="node">
<title>Node24</title>
<g id="a_node24"><a xlink:href="ToolBar_8h.html" target="_top" xlink:title="This file declares the class ToolBar that represents wxMaxima&#39;s main tool bar.">
<polygon fill="white" stroke="#666666" points="1099.81,-294 1021.81,-294 1021.81,-275 1099.81,-275 1099.81,-294"/>
<text text-anchor="middle" x="1060.81" y="-282" font-family="Helvetica,sans-Serif" font-size="10.00">src/ToolBar.h</text>
</a>
</g>
</g>
<!-- Node1&#45;&gt;Node24 -->
<g id="edge34" class="edge">
<title>Node1&#45;&gt;Node24</title>
<path fill="none" stroke="#63b8ff" d="M1012.64,-323.6C1024.65,-314.11 1039.78,-302.13 1049.85,-294.17"/>
<polygon fill="#63b8ff" stroke="#63b8ff" points="1010.24,-321.04 1004.57,-329.98 1014.59,-326.53 1010.24,-321.04"/>
</g>
<!-- Node26 -->
<g id="node26" class="node">
<title>Node26</title>
<g id="a_node26"><a xlink:href="WXMXformat_8h_source.html" target="_top" xlink:title=" ">
<polygon fill="white" stroke="#666666" points="319.81,-184 211.81,-184 211.81,-165 319.81,-165 319.81,-184"/>
<text text-anchor="middle" x="265.81" y="-172" font-family="Helvetica,sans-Serif" font-size="10.00">src/WXMXformat.h</text>
</a>
</g>
</g>
<!-- Node1&#45;&gt;Node26 -->
<g id="edge37" class="edge">
<title>Node1&#45;&gt;Node26</title>
<path fill="none" stroke="#63b8ff" d="M925.46,-338.15C856.98,-335.79 749.56,-326.53 662.81,-294 606.94,-273.05 606.44,-241.54 550.81,-220 474.1,-190.3 378.5,-180.39 319.83,-177.11"/>
<polygon fill="#63b8ff" stroke="#63b8ff" points="925.59,-341.66 935.69,-338.46 925.8,-334.66 925.59,-341.66"/>
</g>
<!-- Node27 -->
<g id="node27" class="node">
<title>Node27</title>
<g id="a_node27"><a xlink:href="WXMformat_8h_source.html" target="_top" xlink:title=" ">
<polygon fill="white" stroke="#666666" points="1432.31,-129 1331.31,-129 1331.31,-110 1432.31,-110 1432.31,-129"/>
<text text-anchor="middle" x="1381.81" y="-117" font-family="Helvetica,sans-Serif" font-size="10.00">src/WXMformat.h</text>
</a>
</g>
</g>
<!-- Node1&#45;&gt;Node27 -->
<g id="edge40" class="edge">
<title>Node1&#45;&gt;Node27</title>
<path fill="none" stroke="#63b8ff" d="M1062.02,-337.61C1139.28,-332.84 1263.88,-313.13 1336.81,-239 1368.29,-207 1378.17,-150.75 1380.89,-129.22"/>
<polygon fill="#63b8ff" stroke="#63b8ff" points="1061.71,-334.12 1051.91,-338.17 1062.09,-341.11 1061.71,-334.12"/>
</g>
<!-- Node28 -->
<g id="node28" class="node">
<title>Node28</title>
<g id="a_node28"><a xlink:href="DiffCell_8cpp.html" target="_top" xlink:title="This file defines the class DiffCell.">
<polygon fill="white" stroke="#666666" points="1505.81,-294 1389.81,-294 1389.81,-275 1505.81,-275 1505.81,-294"/>
<text text-anchor="middle" x="1447.81" y="-282" font-family="Helvetica,sans-Serif" font-size="10.00">src/cells/DiffCell.cpp</text>
</a>
</g>
</g>
<!-- Node1&#45;&gt;Node28 -->
<g id="edge45" class="edge">
<title>Node1&#45;&gt;Node28</title>
<path fill="none" stroke="#63b8ff" d="M1062.03,-330.58C1138.46,-321.71 1266.01,-306.88 1375.81,-294 1380.31,-293.47 1384.97,-292.92 1389.65,-292.37"/>
<polygon fill="#63b8ff" stroke="#63b8ff" points="1061.59,-327.11 1052.06,-331.74 1062.39,-334.07 1061.59,-327.11"/>
</g>
<!-- Node29 -->
<g id="node29" class="node">
<title>Node29</title>
<g id="a_node29"><a xlink:href="Printout_8h.html" target="_top" xlink:title="This file declares the class MathPrintOut.">
<polygon fill="white" stroke="#666666" points="1327.31,-239 1184.31,-239 1184.31,-220 1327.31,-220 1327.31,-239"/>
<text text-anchor="middle" x="1255.81" y="-227" font-family="Helvetica,sans-Serif" font-size="10.00">src/graphical_io/Printout.h</text>
</a>
</g>
</g>
<!-- Node1&#45;&gt;Node29 -->
<g id="edge47" class="edge">
<title>Node1&#45;&gt;Node29</title>
<path fill="none" stroke="#63b8ff" d="M1060.65,-327.95C1094.45,-321.06 1135.47,-310.24 1169.81,-294 1200.68,-279.4 1231.6,-252.98 1246.55,-239.28"/>
<polygon fill="#63b8ff" stroke="#63b8ff" points="1059.55,-324.6 1050.41,-329.97 1060.9,-331.47 1059.55,-324.6"/>
</g>
<!-- Node30 -->
<g id="node30" class="node">
<title>Node30</title>
<g id="a_node30"><a xlink:href="SVGout_8cpp.html" target="_top" xlink:title="This file defines the class Svgout that renders math as scalable vector graphics.">
<polygon fill="white" stroke="#666666" points="1675.81,-294 1523.81,-294 1523.81,-275 1675.81,-275 1675.81,-294"/>
<text text-anchor="middle" x="1599.81" y="-282" font-family="Helvetica,sans-Serif" font-size="10.00">src/graphical_io/SVGout.cpp</text>
</a>
</g>
</g>
<!-- Node1&#45;&gt;Node30 -->
<g id="edge50" class="edge">
<title>Node1&#45;&gt;Node30</title>
<path fill="none" stroke="#63b8ff" d="M1062.27,-332.97C1161.9,-324.85 1352.64,-309.03 1514.81,-294 1517.61,-293.74 1520.47,-293.47 1523.36,-293.2"/>
<polygon fill="#63b8ff" stroke="#63b8ff" points="1061.73,-329.5 1052.04,-333.8 1062.29,-336.48 1061.73,-329.5"/>
</g>
<!-- Node31 -->
<g id="node31" class="node">
<title>Node31</title>
<g id="a_node31"><a xlink:href="TableOfContents_8h.html" target="_top" xlink:title="This file contains the definition of the class TableOfContents that handles the table of contents pan...">
<polygon fill="white" stroke="#666666" points="502.31,-294 335.31,-294 335.31,-275 502.31,-275 502.31,-294"/>
<text text-anchor="middle" x="418.81" y="-282" font-family="Helvetica,sans-Serif" font-size="10.00">src/sidebars/TableOfContents.h</text>
</a>
</g>
</g>
<!-- Node1&#45;&gt;Node31 -->
<g id="edge51" class="edge">
<title>Node1&#45;&gt;Node31</title>
<path fill="none" stroke="#63b8ff" d="M925.56,-332.21C819.95,-322.47 617.21,-303.79 502.78,-293.24"/>
<polygon fill="#63b8ff" stroke="#63b8ff" points="925.5,-335.72 935.78,-333.15 926.14,-328.75 925.5,-335.72"/>
</g>
<!-- Node3 -->
<g id="node3" class="node">
<title>Node3</title>
<g id="a_node3"><a xlink:href="EvaluationQueue_8cpp.html" target="_top" xlink:title="This file defines the class EvaluationQueue.">
<polygon fill="white" stroke="#666666" points="778.31,-239 641.31,-239 641.31,-220 778.31,-220 778.31,-239"/>
<text text-anchor="middle" x="709.81" y="-227" font-family="Helvetica,sans-Serif" font-size="10.00">src/EvaluationQueue.cpp</text>
</a>
</g>
</g>
<!-- Node2&#45;&gt;Node3 -->
<g id="edge2" class="edge">
<title>Node2&#45;&gt;Node3</title>
<path fill="none" stroke="#63b8ff" d="M764.5,-269.15C750.95,-259.57 733.57,-247.29 722.08,-239.17"/>
<polygon fill="#63b8ff" stroke="#63b8ff" points="762.57,-272.07 772.76,-274.98 766.61,-266.36 762.57,-272.07"/>
</g>
<!-- Node2&#45;&gt;Node4 -->
<g id="edge3" class="edge">
<title>Node2&#45;&gt;Node4</title>
<path fill="none" stroke="#63b8ff" d="M824.95,-272.18C860.11,-262.27 910.44,-248.08 942.36,-239.08"/>
<polygon fill="#63b8ff" stroke="#63b8ff" points="823.69,-268.9 815.01,-274.98 825.59,-275.64 823.69,-268.9"/>
</g>
<!-- Node5 -->
<g id="node5" class="node">
<title>Node5</title>
<g id="a_node5"><a xlink:href="Worksheet_8cpp.html" target="_top" xlink:title="This file defines the class Worksheet.">
<polygon fill="white" stroke="#666666" points="869.81,-74 763.81,-74 763.81,-55 869.81,-55 869.81,-74"/>
<text text-anchor="middle" x="816.81" y="-62" font-family="Helvetica,sans-Serif" font-size="10.00">src/Worksheet.cpp</text>
</a>
</g>
</g>
<!-- Node4&#45;&gt;Node5 -->
<g id="edge4" class="edge">
<title>Node4&#45;&gt;Node5</title>
<path fill="none" stroke="#63b8ff" d="M962.45,-211.49C947.1,-187.15 916.45,-141.8 882.81,-110 867.34,-95.38 846.6,-82.25 832.52,-74.1"/>
<polygon fill="#63b8ff" stroke="#63b8ff" points="959.48,-213.35 967.73,-220 965.43,-209.66 959.48,-213.35"/>
</g>
<!-- Node4&#45;&gt;Node6 -->
<g id="edge5" class="edge">
<title>Node4&#45;&gt;Node6</title>
<path fill="none" stroke="#63b8ff" d="M943.63,-216.03C920.7,-206.23 889.35,-192.83 869.09,-184.17"/>
<polygon fill="#63b8ff" stroke="#63b8ff" points="942.31,-219.27 952.88,-219.98 945.06,-212.84 942.31,-219.27"/>
</g>
<!-- Node4&#45;&gt;Node7 -->
<g id="edge6" class="edge">
<title>Node4&#45;&gt;Node7</title>
<path fill="none" stroke="#63b8ff" d="M995.38,-214.42C1010.81,-204.81 1030.76,-192.37 1043.9,-184.17"/>
<polygon fill="#63b8ff" stroke="#63b8ff" points="993.1,-211.72 986.46,-219.98 996.8,-217.66 993.1,-211.72"/>
</g>
<!-- Node8 -->
<g id="node8" class="node">
<title>Node8</title>
<g id="a_node8"><a xlink:href="ConfigDialogue_8h.html" target="_top" xlink:title="The configuration dialog.">
<polygon fill="white" stroke="#666666" points="1043.31,-74 888.31,-74 888.31,-55 1043.31,-55 1043.31,-74"/>
<text text-anchor="middle" x="965.81" y="-62" font-family="Helvetica,sans-Serif" font-size="10.00">src/dialogs/ConfigDialogue.h</text>
</a>
</g>
</g>
<!-- Node4&#45;&gt;Node8 -->
<g id="edge7" class="edge">
<title>Node4&#45;&gt;Node8</title>
<path fill="none" stroke="#63b8ff" d="M971.99,-209.37C970.47,-174.03 967.28,-99.79 966.19,-74.31"/>
<polygon fill="#63b8ff" stroke="#63b8ff" points="968.5,-209.9 972.43,-219.74 975.5,-209.6 968.5,-209.9"/>
</g>
<!-- Node11 -->
<g id="node11" class="node">
<title>Node11</title>
<g id="a_node11"><a xlink:href="Printout_8cpp.html" target="_top" xlink:title="This file defines the class MathPrintOut.">
<polygon fill="white" stroke="#666666" points="1295.31,-184 1140.31,-184 1140.31,-165 1295.31,-165 1295.31,-184"/>
<text text-anchor="middle" x="1217.81" y="-172" font-family="Helvetica,sans-Serif" font-size="10.00">src/graphical_io/Printout.cpp</text>
</a>
</g>
</g>
<!-- Node4&#45;&gt;Node11 -->
<g id="edge10" class="edge">
<title>Node4&#45;&gt;Node11</title>
<path fill="none" stroke="#63b8ff" d="M1022.2,-217.82C1068.11,-207.88 1135.63,-193.28 1178.14,-184.08"/>
<polygon fill="#63b8ff" stroke="#63b8ff" points="1021.2,-214.45 1012.17,-219.98 1022.68,-221.29 1021.2,-214.45"/>
</g>
<!-- Node12 -->
<g id="node12" class="node">
<title>Node12</title>
<g id="a_node12"><a xlink:href="wxMaximaFrame_8h.html" target="_top" xlink:title="This file declares the class wxMaximaFrame.">
<polygon fill="white" stroke="#666666" points="779.81,-184 651.81,-184 651.81,-165 779.81,-165 779.81,-184"/>
<text text-anchor="middle" x="715.81" y="-172" font-family="Helvetica,sans-Serif" font-size="10.00">src/wxMaximaFrame.h</text>
</a>
</g>
</g>
<!-- Node4&#45;&gt;Node12 -->
<g id="edge11" class="edge">
<title>Node4&#45;&gt;Node12</title>
<path fill="none" stroke="#63b8ff" d="M921.6,-217.94C873.43,-208.01 802.19,-193.31 757.42,-184.08"/>
<polygon fill="#63b8ff" stroke="#63b8ff" points="921.01,-221.39 931.52,-219.98 922.43,-214.54 921.01,-221.39"/>
</g>
<!-- Node9 -->
<g id="node9" class="node">
<title>Node9</title>
<g id="a_node9"><a xlink:href="main_8cpp.html" target="_top" xlink:title="The file that defines the starting point of the program.">
<polygon fill="white" stroke="#666666" points="260.31,-19 181.31,-19 181.31,0 260.31,0 260.31,-19"/>
<text text-anchor="middle" x="220.81" y="-7" font-family="Helvetica,sans-Serif" font-size="10.00">src/main.cpp</text>
</a>
</g>
</g>
<!-- Node8&#45;&gt;Node9 -->
<g id="edge8" class="edge">
<title>Node8&#45;&gt;Node9</title>
<path fill="none" stroke="#63b8ff" d="M878.02,-54.96C636.93,-35.18 361.57,-18.64 260.52,-12.77"/>
<polygon fill="#63b8ff" stroke="#63b8ff" points="877.78,-58.45 888.03,-55.78 878.35,-51.48 877.78,-58.45"/>
</g>
<!-- Node10 -->
<g id="node10" class="node">
<title>Node10</title>
<g id="a_node10"><a xlink:href="wxMaxima_8cpp.html" target="_top" xlink:title="This file defines the contents of the class wxMaxima that contains most of the program&#39;s logic.">
<polygon fill="white" stroke="#666666" points="702.81,-19 594.81,-19 594.81,0 702.81,0 702.81,-19"/>
<text text-anchor="middle" x="648.81" y="-7" font-family="Helvetica,sans-Serif" font-size="10.00">src/wxMaxima.cpp</text>
</a>
</g>
</g>
<!-- Node8&#45;&gt;Node10 -->
<g id="edge9" class="edge">
<title>Node8&#45;&gt;Node10</title>
<path fill="none" stroke="#63b8ff" d="M904.86,-53.31C845.33,-43.36 755.77,-28.38 699.87,-19.04"/>
<polygon fill="#63b8ff" stroke="#63b8ff" points="904.44,-56.79 914.88,-54.98 905.59,-49.88 904.44,-56.79"/>
</g>
<!-- Node12&#45;&gt;Node5 -->
<g id="edge13" class="edge">
<title>Node12&#45;&gt;Node5</title>
<path fill="none" stroke="#63b8ff" d="M777.45,-162.89C813.83,-155.23 854.85,-143.67 865.81,-129 880.63,-109.14 851.15,-86.2 831.81,-74.06"/>
<polygon fill="#63b8ff" stroke="#63b8ff" points="776.45,-159.52 767.34,-164.95 777.84,-166.38 776.45,-159.52"/>
</g>
<!-- Node13 -->
<g id="node13" class="node">
<title>Node13</title>
<g id="a_node13"><a xlink:href="AutocompletePopup_8cpp.html" target="_top" xlink:title="This file defines the class AutocompletePopup.">
<polygon fill="white" stroke="#666666" points="445.81,-129 293.81,-129 293.81,-110 445.81,-110 445.81,-129"/>
<text text-anchor="middle" x="369.81" y="-117" font-family="Helvetica,sans-Serif" font-size="10.00">src/AutocompletePopup.cpp</text>
</a>
</g>
</g>
<!-- Node12&#45;&gt;Node13 -->
<g id="edge12" class="edge">
<title>Node12&#45;&gt;Node13</title>
<path fill="none" stroke="#63b8ff" d="M650.09,-163.43C585.12,-153.48 486.8,-138.42 425.55,-129.04"/>
<polygon fill="#63b8ff" stroke="#63b8ff" points="649.8,-166.93 660.22,-164.98 650.86,-160.01 649.8,-166.93"/>
</g>
<!-- Node14 -->
<g id="node14" class="node">
<title>Node14</title>
<g id="a_node14"><a xlink:href="EditorCell_8cpp.html" target="_top" xlink:title="This file defines the class EditorCell.">
<polygon fill="white" stroke="#666666" points="583.31,-74 456.31,-74 456.31,-55 583.31,-55 583.31,-74"/>
<text text-anchor="middle" x="519.81" y="-62" font-family="Helvetica,sans-Serif" font-size="10.00">src/cells/EditorCell.cpp</text>
</a>
</g>
</g>
<!-- Node12&#45;&gt;Node14 -->
<g id="edge14" class="edge">
<title>Node12&#45;&gt;Node14</title>
<path fill="none" stroke="#63b8ff" d="M770.51,-162.44C808.76,-152.28 849.43,-134.97 827.81,-110 796.86,-74.26 664.3,-66.59 583.5,-65.31"/>
<polygon fill="#63b8ff" stroke="#63b8ff" points="769.21,-159.16 760.36,-165 770.91,-165.95 769.21,-159.16"/>
</g>
<!-- Node15 -->
<g id="node15" class="node">
<title>Node15</title>
<g id="a_node15"><a xlink:href="main_8h.html" target="_top" xlink:title="This file declares the class wxMaxima that contains most of the program&#39;s logic.">
<polygon fill="white" stroke="#666666" points="161.81,-74 93.81,-74 93.81,-55 161.81,-55 161.81,-74"/>
<text text-anchor="middle" x="127.81" y="-62" font-family="Helvetica,sans-Serif" font-size="10.00">src/main.h</text>
</a>
</g>
</g>
<!-- Node12&#45;&gt;Node15 -->
<g id="edge15" class="edge">
<title>Node12&#45;&gt;Node15</title>
<path fill="none" stroke="#63b8ff" d="M750.55,-161.18C779.24,-149.2 812.45,-129.94 793.81,-110 772.01,-86.7 294.74,-70.55 161.87,-66.5"/>
<polygon fill="#63b8ff" stroke="#63b8ff" points="749.07,-158.01 741.08,-164.96 751.66,-164.51 749.07,-158.01"/>
</g>
<!-- Node17 -->
<g id="node17" class="node">
<title>Node17</title>
<g id="a_node17"><a xlink:href="GreekSidebar_8cpp.html" target="_top" xlink:title="This file defines the class GreekSidebar.">
<polygon fill="white" stroke="#666666" points="627.81,-129 463.81,-129 463.81,-110 627.81,-110 627.81,-129"/>
<text text-anchor="middle" x="545.81" y="-117" font-family="Helvetica,sans-Serif" font-size="10.00">src/sidebars/GreekSidebar.cpp</text>
</a>
</g>
</g>
<!-- Node12&#45;&gt;Node17 -->
<g id="edge19" class="edge">
<title>Node12&#45;&gt;Node17</title>
<path fill="none" stroke="#63b8ff" d="M678.69,-161.93C646.94,-152.03 601.96,-138.01 573.33,-129.08"/>
<polygon fill="#63b8ff" stroke="#63b8ff" points="677.91,-165.35 688.49,-164.98 679.99,-158.67 677.91,-165.35"/>
</g>
<!-- Node18 -->
<g id="node18" class="node">
<title>Node18</title>
<g id="a_node18"><a xlink:href="wxMaxima_8h.html" target="_top" xlink:title="This file declares the class wxMaxima that contains most of the program&#39;s logic.">
<polygon fill="white" stroke="#666666" points="237.31,-129 140.31,-129 140.31,-110 237.31,-110 237.31,-129"/>
<text text-anchor="middle" x="188.81" y="-117" font-family="Helvetica,sans-Serif" font-size="10.00">src/wxMaxima.h</text>
</a>
</g>
</g>
<!-- Node12&#45;&gt;Node18 -->
<g id="edge20" class="edge">
<title>Node12&#45;&gt;Node18</title>
<path fill="none" stroke="#63b8ff" d="M641.74,-166.05C532.29,-155.04 330.34,-134.73 237.64,-125.41"/>
<polygon fill="#63b8ff" stroke="#63b8ff" points="641.41,-169.54 651.71,-167.05 642.11,-162.57 641.41,-169.54"/>
</g>
<!-- Node19 -->
<g id="node19" class="node">
<title>Node19</title>
<g id="a_node19"><a xlink:href="wxMaximaFrame_8cpp.html" target="_top" xlink:title="This file defines the class wxMaximaFrame.">
<polygon fill="white" stroke="#666666" points="785.31,-129 646.31,-129 646.31,-110 785.31,-110 785.31,-129"/>
<text text-anchor="middle" x="715.81" y="-117" font-family="Helvetica,sans-Serif" font-size="10.00">src/wxMaximaFrame.cpp</text>
</a>
</g>
</g>
<!-- Node12&#45;&gt;Node19 -->
<g id="edge26" class="edge">
<title>Node12&#45;&gt;Node19</title>
<path fill="none" stroke="#63b8ff" d="M715.81,-154.66C715.81,-145.93 715.81,-135.99 715.81,-129.09"/>
<polygon fill="#63b8ff" stroke="#63b8ff" points="712.31,-154.75 715.81,-164.75 719.31,-154.75 712.31,-154.75"/>
</g>
<!-- Node15&#45;&gt;Node9 -->
<g id="edge17" class="edge">
<title>Node15&#45;&gt;Node9</title>
<path fill="none" stroke="#63b8ff" d="M151.56,-49.97C168.56,-40.28 190.94,-27.52 205.59,-19.17"/>
<polygon fill="#63b8ff" stroke="#63b8ff" points="149.7,-46.99 142.75,-54.98 153.17,-53.07 149.7,-46.99"/>
</g>
<!-- Node15&#45;&gt;Node10 -->
<g id="edge18" class="edge">
<title>Node15&#45;&gt;Node10</title>
<path fill="none" stroke="#63b8ff" d="M172.14,-58.99C267.33,-49.31 491.01,-26.55 594.51,-16.02"/>
<polygon fill="#63b8ff" stroke="#63b8ff" points="171.59,-55.53 161.99,-60.02 172.29,-62.49 171.59,-55.53"/>
</g>
<!-- Node16 -->
<g id="node16" class="node">
<title>Node16</title>
<g id="a_node16"><a xlink:href="MaximaManual_8cpp.html" target="_top" xlink:title="This file defines the class MaximaManual.">
<polygon fill="white" stroke="#666666" points="162.81,-19 32.81,-19 32.81,0 162.81,0 162.81,-19"/>
<text text-anchor="middle" x="97.81" y="-7" font-family="Helvetica,sans-Serif" font-size="10.00">src/MaximaManual.cpp</text>
</a>
</g>
</g>
<!-- Node15&#45;&gt;Node16 -->
<g id="edge16" class="edge">
<title>Node15&#45;&gt;Node16</title>
<path fill="none" stroke="#63b8ff" d="M117.8,-45.82C112.71,-36.82 106.75,-26.29 102.67,-19.09"/>
<polygon fill="#63b8ff" stroke="#63b8ff" points="114.88,-47.77 122.85,-54.75 120.97,-44.32 114.88,-47.77"/>
</g>
<!-- Node18&#45;&gt;Node5 -->
<g id="edge21" class="edge">
<title>Node18&#45;&gt;Node5</title>
<path fill="none" stroke="#63b8ff" d="M247.76,-113.23C260,-112.15 272.83,-111.03 284.81,-110 460.03,-94.91 667.77,-77.74 763.57,-69.87"/>
<polygon fill="#63b8ff" stroke="#63b8ff" points="247.29,-109.76 237.64,-114.13 247.91,-116.73 247.29,-109.76"/>
</g>
<!-- Node18&#45;&gt;Node9 -->
<g id="edge23" class="edge">
<title>Node18&#45;&gt;Node9</title>
<path fill="none" stroke="#63b8ff" d="M194.35,-99.8C201.34,-76.2 213.08,-36.58 218.24,-19.16"/>
<polygon fill="#63b8ff" stroke="#63b8ff" points="190.91,-99.08 191.43,-109.66 197.62,-101.07 190.91,-99.08"/>
</g>
<!-- Node18&#45;&gt;Node10 -->
<g id="edge25" class="edge">
<title>Node18&#45;&gt;Node10</title>
<path fill="none" stroke="#63b8ff" d="M200.58,-101.26C211.85,-86.29 230.27,-65.41 251.81,-55 311.04,-26.35 500.58,-15.72 594.71,-12.14"/>
<polygon fill="#63b8ff" stroke="#63b8ff" points="197.53,-99.51 194.53,-109.67 203.21,-103.6 197.53,-99.51"/>
</g>
<!-- Node18&#45;&gt;Node14 -->
<g id="edge22" class="edge">
<title>Node18&#45;&gt;Node14</title>
<path fill="none" stroke="#63b8ff" d="M247.68,-109.07C309.79,-99.13 406.79,-83.6 466.65,-74.01"/>
<polygon fill="#63b8ff" stroke="#63b8ff" points="246.97,-105.64 237.65,-110.68 248.07,-112.55 246.97,-105.64"/>
</g>
<!-- Node18&#45;&gt;Node15 -->
<g id="edge24" class="edge">
<title>Node18&#45;&gt;Node15</title>
<path fill="none" stroke="#63b8ff" d="M171.34,-103.32C160.46,-93.87 146.86,-82.06 137.79,-74.17"/>
<polygon fill="#63b8ff" stroke="#63b8ff" points="169.16,-106.07 179.01,-109.98 173.75,-100.78 169.16,-106.07"/>
</g>
<!-- Node20&#45;&gt;Node15 -->
<g id="edge29" class="edge">
<title>Node20&#45;&gt;Node15</title>
<path fill="none" stroke="#63b8ff" d="M56.54,-162.13C22.77,-151.99 -12.64,-134.87 4.81,-110 24.76,-81.56 64.8,-71.22 93.79,-67.5"/>
<polygon fill="#63b8ff" stroke="#63b8ff" points="55.87,-165.58 66.45,-164.93 57.78,-158.84 55.87,-165.58"/>
</g>
<!-- Node20&#45;&gt;Node18 -->
<g id="edge30" class="edge">
<title>Node20&#45;&gt;Node18</title>
<path fill="none" stroke="#63b8ff" d="M128.59,-159.42C143.47,-149.81 162.71,-137.37 175.39,-129.17"/>
<polygon fill="#63b8ff" stroke="#63b8ff" points="126.48,-156.62 119.98,-164.98 130.28,-162.5 126.48,-156.62"/>
</g>
<!-- Node21 -->
<g id="node21" class="node">
<title>Node21</title>
<g id="a_node21"><a xlink:href="MathParser_8cpp.html" target="_top" xlink:title="This file defines the class MathParser that reads wxmx data and math from Maxima.">
<polygon fill="white" stroke="#666666" points="121.81,-129 13.81,-129 13.81,-110 121.81,-110 121.81,-129"/>
<text text-anchor="middle" x="67.81" y="-117" font-family="Helvetica,sans-Serif" font-size="10.00">src/MathParser.cpp</text>
</a>
</g>
</g>
<!-- Node20&#45;&gt;Node21 -->
<g id="edge28" class="edge">
<title>Node20&#45;&gt;Node21</title>
<path fill="none" stroke="#63b8ff" d="M94.42,-156.67C87.67,-147.5 79.6,-136.52 74.13,-129.09"/>
<polygon fill="#63b8ff" stroke="#63b8ff" points="91.62,-158.77 100.37,-164.75 97.26,-154.62 91.62,-158.77"/>
</g>
<!-- Node22&#45;&gt;Node4 -->
<g id="edge33" class="edge">
<title>Node22&#45;&gt;Node4</title>
<path fill="none" stroke="#63b8ff" d="M932.43,-268.04C942.54,-258.64 955.08,-246.98 963.48,-239.17"/>
<polygon fill="#63b8ff" stroke="#63b8ff" points="929.91,-265.61 924.97,-274.98 934.67,-270.74 929.91,-265.61"/>
</g>
<!-- Node23 -->
<g id="node23" class="node">
<title>Node23</title>
<g id="a_node23"><a xlink:href="Notification_8cpp.html" target="_top" xlink:title="This file defines the class Notification.">
<polygon fill="white" stroke="#666666" points="906.81,-239 796.81,-239 796.81,-220 906.81,-220 906.81,-239"/>
<text text-anchor="middle" x="851.81" y="-227" font-family="Helvetica,sans-Serif" font-size="10.00">src/Notification.cpp</text>
</a>
</g>
</g>
<!-- Node22&#45;&gt;Node23 -->
<g id="edge32" class="edge">
<title>Node22&#45;&gt;Node23</title>
<path fill="none" stroke="#63b8ff" d="M897.82,-268.6C886.35,-259.11 871.89,-247.13 862.28,-239.17"/>
<polygon fill="#63b8ff" stroke="#63b8ff" points="895.59,-271.3 905.52,-274.98 900.05,-265.91 895.59,-271.3"/>
</g>
<!-- Node24&#45;&gt;Node4 -->
<g id="edge36" class="edge">
<title>Node24&#45;&gt;Node4</title>
<path fill="none" stroke="#63b8ff" d="M1037.89,-269.7C1021.86,-260.04 1000.94,-247.44 987.2,-239.17"/>
<polygon fill="#63b8ff" stroke="#63b8ff" points="1036.3,-272.82 1046.67,-274.98 1039.91,-266.83 1036.3,-272.82"/>
</g>
<!-- Node25 -->
<g id="node25" class="node">
<title>Node25</title>
<g id="a_node25"><a xlink:href="ToolBar_8cpp.html" target="_top" xlink:title="This file defines the class ToolBar that represents wxMaxima&#39;s main tool bar.">
<polygon fill="white" stroke="#666666" points="1127.31,-239 1038.31,-239 1038.31,-220 1127.31,-220 1127.31,-239"/>
<text text-anchor="middle" x="1082.81" y="-227" font-family="Helvetica,sans-Serif" font-size="10.00">src/ToolBar.cpp</text>
</a>
</g>
</g>
<!-- Node24&#45;&gt;Node25 -->
<g id="edge35" class="edge">
<title>Node24&#45;&gt;Node25</title>
<path fill="none" stroke="#63b8ff" d="M1068.39,-265.24C1072.07,-256.37 1076.31,-246.14 1079.24,-239.09"/>
<polygon fill="#63b8ff" stroke="#63b8ff" points="1065.04,-264.17 1064.44,-274.75 1071.51,-266.85 1065.04,-264.17"/>
</g>
<!-- Node26&#45;&gt;Node10 -->
<g id="edge38" class="edge">
<title>Node26&#45;&gt;Node10</title>
<path fill="none" stroke="#63b8ff" d="M266.89,-154.87C268.66,-140.84 273.21,-122.03 284.81,-110 327.55,-65.67 503.82,-32.79 594.45,-18.45"/>
<polygon fill="#63b8ff" stroke="#63b8ff" points="263.4,-154.6 265.98,-164.87 270.37,-155.23 263.4,-154.6"/>
</g>
<!-- Node26&#45;&gt;Node18 -->
<g id="edge39" class="edge">
<title>Node26&#45;&gt;Node18</title>
<path fill="none" stroke="#63b8ff" d="M244.96,-159.15C231.04,-149.57 213.2,-137.29 201.4,-129.17"/>
<polygon fill="#63b8ff" stroke="#63b8ff" points="243.21,-162.2 253.44,-164.98 247.18,-156.43 243.21,-162.2"/>
</g>
<!-- Node27&#45;&gt;Node5 -->
<g id="edge41" class="edge">
<title>Node27&#45;&gt;Node5</title>
<path fill="none" stroke="#63b8ff" d="M1320.78,-114.05C1226.05,-106.93 1037.93,-91.94 878.81,-74 875.89,-73.67 872.9,-73.32 869.89,-72.95"/>
<polygon fill="#63b8ff" stroke="#63b8ff" points="1320.8,-117.56 1331.04,-114.82 1321.32,-110.58 1320.8,-117.56"/>
</g>
<!-- Node27&#45;&gt;Node10 -->
<g id="edge42" class="edge">
<title>Node27&#45;&gt;Node10</title>
<path fill="none" stroke="#63b8ff" d="M1370.02,-101.51C1358.42,-86.34 1339.23,-65.02 1316.81,-55 1261.42,-30.26 852.19,-16.28 703.02,-11.96"/>
<polygon fill="#63b8ff" stroke="#63b8ff" points="1367.49,-103.99 1376.22,-110 1373.15,-99.86 1367.49,-103.99"/>
</g>
<!-- Node29&#45;&gt;Node10 -->
<g id="edge49" class="edge">
<title>Node29&#45;&gt;Node10</title>
<path fill="none" stroke="#63b8ff" d="M1279.21,-214.37C1296.93,-201.8 1316.42,-182.71 1304.81,-165 1237.58,-62.46 1170.3,-86.53 1051.81,-55 929.87,-22.56 781.12,-13.73 702.88,-11.35"/>
<polygon fill="#63b8ff" stroke="#63b8ff" points="1277.16,-211.52 1270.79,-219.98 1281.05,-217.34 1277.16,-211.52"/>
</g>
<!-- Node29&#45;&gt;Node11 -->
<g id="edge48" class="edge">
<title>Node29&#45;&gt;Node11</title>
<path fill="none" stroke="#63b8ff" d="M1243.54,-211.39C1237,-202.27 1229.24,-191.45 1223.97,-184.09"/>
<polygon fill="#63b8ff" stroke="#63b8ff" points="1240.86,-213.66 1249.53,-219.75 1246.55,-209.58 1240.86,-213.66"/>
</g>
<!-- Node31&#45;&gt;Node12 -->
<g id="edge53" class="edge">
<title>Node31&#45;&gt;Node12</title>
<path fill="none" stroke="#63b8ff" d="M372.96,-272.07C338,-261.23 299.1,-243.17 319.81,-220 341.48,-195.76 544.89,-183.12 651.42,-178.12"/>
<polygon fill="#63b8ff" stroke="#63b8ff" points="372.08,-275.46 382.66,-274.94 374.06,-268.75 372.08,-275.46"/>
</g>
<!-- Node32 -->
<g id="node32" class="node">
<title>Node32</title>
<g id="a_node32"><a xlink:href="TableOfContents_8cpp.html" target="_top" xlink:title="This file defines the class Structure.">
<polygon fill="white" stroke="#666666" points="508.31,-239 329.31,-239 329.31,-220 508.31,-220 508.31,-239"/>
<text text-anchor="middle" x="418.81" y="-227" font-family="Helvetica,sans-Serif" font-size="10.00">src/sidebars/TableOfContents.cpp</text>
</a>
</g>
</g>
<!-- Node31&#45;&gt;Node32 -->
<g id="edge52" class="edge">
<title>Node31&#45;&gt;Node32</title>
<path fill="none" stroke="#63b8ff" d="M418.81,-264.66C418.81,-255.93 418.81,-245.99 418.81,-239.09"/>
<polygon fill="#63b8ff" stroke="#63b8ff" points="415.31,-264.75 418.81,-274.75 422.31,-264.75 415.31,-264.75"/>
</g>
</g>
</svg>
