<?xml version="1.0" encoding="UTF-8" standalone="no"?>
<!DOCTYPE svg PUBLIC "-//W3C//DTD SVG 1.1//EN"
 "http://www.w3.org/Graphics/SVG/1.1/DTD/svg11.dtd">
<!-- Generated by graphviz version 2.43.0 (0)
 -->
<!-- Title: src/cells/GroupCell.h Pages: 1 -->
<!--zoomable 364 -->
<svg id="main" version="1.1" xmlns="http://www.w3.org/2000/svg" xmlns:xlink="http://www.w3.org/1999/xlink" xml:space="preserve" onload="init(evt)">
<style type="text/css"><![CDATA[
.edge:hover path { stroke: red; }
.edge:hover polygon { stroke: red; fill: red; }
]]></style>
<script type="text/javascript"><![CDATA[
var edges = document.getElementsByTagName('g');
if (edges && edges.length) {
  for (var i=0;i<edges.length;i++) {
    if (edges[i].id.substr(0,4)=='edge') {
      edges[i].setAttribute('class','edge');
    }
  }
}
]]></script>
        <defs>
                <circle id="rim" cx="0" cy="0" r="7"/>
                <circle id="rim2" cx="0" cy="0" r="3.5"/>
                <g id="zoomPlus">
                        <use xlink:href="#rim" fill="#404040">
                                <set attributeName="fill" to="#808080" begin="zoomplus.mouseover" end="zoomplus.mouseout"/>
                        </use>
                        <path d="M-4,0h8M0,-4v8" fill="none" stroke="white" stroke-width="1.5" pointer-events="none"/>
                </g>
                <g id="zoomMin">
                        <use xlink:href="#rim" fill="#404040">
                                <set attributeName="fill" to="#808080" begin="zoomminus.mouseover" end="zoomminus.mouseout"/>
                        </use>
                        <path d="M-4,0h8" fill="none" stroke="white" stroke-width="1.5" pointer-events="none"/>
                </g>
                <g id="dirArrow">
                        <path fill="none" stroke="white" stroke-width="1.5" d="M0,-3.0v7 M-2.5,-0.5L0,-3.0L2.5,-0.5"/>
                </g>
               <g id="resetDef">
                       <use xlink:href="#rim2" fill="#404040">
                               <set attributeName="fill" to="#808080" begin="reset.mouseover" end="reset.mouseout"/>
                       </use>
               </g>
        </defs>

<script type="text/javascript">
var viewWidth = 1435;
var viewHeight = 364;
var sectionId = 'dynsection-1';
</script>
<script xlink:href="svgpan.js"/>
<svg id="graph" class="graph">
<g id="viewport">
<title>src/cells/GroupCell.h</title>
<polygon fill="white" stroke="transparent" points="-4,4 -4,-360 1430.5,-360 1430.5,4 -4,4"/>
<!-- Node1 -->
<g id="node1" class="node">
<title>Node1</title>
<g id="a_node1"><a xlink:title="This file defines the class GroupCell that bundles input and output in the worksheet.">
<polygon fill="#bfbfbf" stroke="black" points="555,-336.5 555,-355.5 671,-355.5 671,-336.5 555,-336.5"/>
<text text-anchor="middle" x="613" y="-343.5" font-family="Helvetica,sans-Serif" font-size="10.00">src/cells/GroupCell.h</text>
</a>
</g>
</g>
<!-- Node2 -->
<g id="node2" class="node">
<title>Node2</title>
<g id="a_node2"><a xlink:href="Cell_8cpp.html" target="_top" xlink:title="This file defines the class Cell.">
<polygon fill="white" stroke="black" points="0,-280.5 0,-299.5 98,-299.5 98,-280.5 0,-280.5"/>
<text text-anchor="middle" x="49" y="-287.5" font-family="Helvetica,sans-Serif" font-size="10.00">src/cells/Cell.cpp</text>
</a>
</g>
</g>
<!-- Node1&#45;&gt;Node2 -->
<g id="edge1" class="edge">
<title>Node1&#45;&gt;Node2</title>
<path fill="none" stroke="midnightblue" d="M544.82,-340.36C447.49,-333.4 263.21,-319.05 107,-300 104.07,-299.64 101.05,-299.25 98.02,-298.84"/>
<polygon fill="midnightblue" stroke="midnightblue" points="544.59,-343.85 554.82,-341.07 545.09,-336.87 544.59,-343.85"/>
</g>
<!-- Node3 -->
<g id="node3" class="node">
<title>Node3</title>
<g id="a_node3"><a xlink:href="DiffCell_8cpp.html" target="_top" xlink:title="This file defines the class DiffCell.">
<polygon fill="white" stroke="black" points="116,-280.5 116,-299.5 232,-299.5 232,-280.5 116,-280.5"/>
<text text-anchor="middle" x="174" y="-287.5" font-family="Helvetica,sans-Serif" font-size="10.00">src/cells/DiffCell.cpp</text>
</a>
</g>
</g>
<!-- Node1&#45;&gt;Node3 -->
<g id="edge2" class="edge">
<title>Node1&#45;&gt;Node3</title>
<path fill="none" stroke="midnightblue" d="M544.78,-337.02C470.14,-328.23 347.01,-313.53 241,-300 238.09,-299.63 235.11,-299.24 232.1,-298.85"/>
<polygon fill="midnightblue" stroke="midnightblue" points="544.64,-340.53 554.98,-338.22 545.46,-333.58 544.64,-340.53"/>
</g>
<!-- Node4 -->
<g id="node4" class="node">
<title>Node4</title>
<g id="a_node4"><a xlink:href="GroupCell_8cpp.html" target="_top" xlink:title="This file defines the class GroupCell.">
<polygon fill="white" stroke="black" points="250,-280.5 250,-299.5 378,-299.5 378,-280.5 250,-280.5"/>
<text text-anchor="middle" x="314" y="-287.5" font-family="Helvetica,sans-Serif" font-size="10.00">src/cells/GroupCell.cpp</text>
</a>
</g>
</g>
<!-- Node1&#45;&gt;Node4 -->
<g id="edge3" class="edge">
<title>Node1&#45;&gt;Node4</title>
<path fill="none" stroke="midnightblue" d="M555.77,-334.66C499.26,-324.46 413.88,-309.04 361.16,-299.52"/>
<polygon fill="midnightblue" stroke="midnightblue" points="555.16,-338.11 565.62,-336.44 556.4,-331.22 555.16,-338.11"/>
</g>
<!-- Node5 -->
<g id="node5" class="node">
<title>Node5</title>
<g id="a_node5"><a xlink:href="EvaluationQueue_8h.html" target="_top" xlink:title="The evaluation queue.">
<polygon fill="white" stroke="black" points="472,-280.5 472,-299.5 598,-299.5 598,-280.5 472,-280.5"/>
<text text-anchor="middle" x="535" y="-287.5" font-family="Helvetica,sans-Serif" font-size="10.00">src/EvaluationQueue.h</text>
</a>
</g>
</g>
<!-- Node1&#45;&gt;Node5 -->
<g id="edge4" class="edge">
<title>Node1&#45;&gt;Node5</title>
<path fill="none" stroke="midnightblue" d="M592.23,-330.62C577.98,-320.76 559.54,-307.99 547.5,-299.65"/>
<polygon fill="midnightblue" stroke="midnightblue" points="590.25,-333.51 600.47,-336.32 594.24,-327.75 590.25,-333.51"/>
</g>
<!-- Node7 -->
<g id="node7" class="node">
<title>Node7</title>
<g id="a_node7"><a xlink:href="Worksheet_8h.html" target="_top" xlink:title="This file defines the class Worksheet.">
<polygon fill="white" stroke="black" points="866.5,-224.5 866.5,-243.5 961.5,-243.5 961.5,-224.5 866.5,-224.5"/>
<text text-anchor="middle" x="914" y="-231.5" font-family="Helvetica,sans-Serif" font-size="10.00">src/Worksheet.h</text>
</a>
</g>
</g>
<!-- Node1&#45;&gt;Node7 -->
<g id="edge45" class="edge">
<title>Node1&#45;&gt;Node7</title>
<path fill="none" stroke="midnightblue" d="M681.37,-342.33C754.48,-338.07 864.09,-327.24 895,-300 911.41,-285.54 914,-257.78 914.2,-243.68"/>
<polygon fill="midnightblue" stroke="midnightblue" points="681.09,-338.84 671.3,-342.88 681.48,-345.83 681.09,-338.84"/>
</g>
<!-- Node21 -->
<g id="node21" class="node">
<title>Node21</title>
<g id="a_node21"><a xlink:href="Printout_8h.html" target="_top" xlink:title="This file declares the class MathPrintOut.">
<polygon fill="white" stroke="black" points="1283.5,-224.5 1283.5,-243.5 1426.5,-243.5 1426.5,-224.5 1283.5,-224.5"/>
<text text-anchor="middle" x="1355" y="-231.5" font-family="Helvetica,sans-Serif" font-size="10.00">src/graphical_io/Printout.h</text>
</a>
</g>
</g>
<!-- Node1&#45;&gt;Node21 -->
<g id="edge28" class="edge">
<title>Node1&#45;&gt;Node21</title>
<path fill="none" stroke="midnightblue" d="M681.43,-342.94C816.98,-338.35 1115.03,-325.62 1214,-300 1263.06,-287.3 1316.1,-258.2 1340.82,-243.63"/>
<polygon fill="midnightblue" stroke="midnightblue" points="681.05,-339.45 671.18,-343.28 681.29,-346.44 681.05,-339.45"/>
</g>
<!-- Node22 -->
<g id="node22" class="node">
<title>Node22</title>
<g id="a_node22"><a xlink:href="SVGout_8cpp.html" target="_top" xlink:title="This file defines the class Svgout that renders math as scalable vector graphics.">
<polygon fill="white" stroke="black" points="616,-280.5 616,-299.5 768,-299.5 768,-280.5 616,-280.5"/>
<text text-anchor="middle" x="692" y="-287.5" font-family="Helvetica,sans-Serif" font-size="10.00">src/graphical_io/SVGout.cpp</text>
</a>
</g>
</g>
<!-- Node1&#45;&gt;Node22 -->
<g id="edge31" class="edge">
<title>Node1&#45;&gt;Node22</title>
<path fill="none" stroke="midnightblue" d="M634.03,-330.62C648.47,-320.76 667.14,-307.99 679.34,-299.65"/>
<polygon fill="midnightblue" stroke="midnightblue" points="631.97,-327.79 625.69,-336.32 635.92,-333.57 631.97,-327.79"/>
</g>
<!-- Node23 -->
<g id="node23" class="node">
<title>Node23</title>
<g id="a_node23"><a xlink:href="MathParser_8h.html" target="_top" xlink:title="The header file for the xml cell parser.">
<polygon fill="white" stroke="black" points="219.5,-168.5 219.5,-187.5 316.5,-187.5 316.5,-168.5 219.5,-168.5"/>
<text text-anchor="middle" x="268" y="-175.5" font-family="Helvetica,sans-Serif" font-size="10.00">src/MathParser.h</text>
</a>
</g>
</g>
<!-- Node1&#45;&gt;Node23 -->
<g id="edge32" class="edge">
<title>Node1&#45;&gt;Node23</title>
<path fill="none" stroke="midnightblue" d="M544.7,-334.93C509.32,-328.06 466.08,-317.04 430,-300 364.61,-269.11 299.56,-209.58 276.64,-187.51"/>
<polygon fill="midnightblue" stroke="midnightblue" points="544.46,-338.44 554.94,-336.84 545.75,-331.56 544.46,-338.44"/>
</g>
<!-- Node25 -->
<g id="node25" class="node">
<title>Node25</title>
<g id="a_node25"><a xlink:href="Notification_8h.html" target="_top" xlink:title="This file defines the class Notification.">
<polygon fill="white" stroke="black" points="786.5,-280.5 786.5,-299.5 885.5,-299.5 885.5,-280.5 786.5,-280.5"/>
<text text-anchor="middle" x="836" y="-287.5" font-family="Helvetica,sans-Serif" font-size="10.00">src/Notification.h</text>
</a>
</g>
</g>
<!-- Node1&#45;&gt;Node25 -->
<g id="edge36" class="edge">
<title>Node1&#45;&gt;Node25</title>
<path fill="none" stroke="midnightblue" d="M658.06,-334.09C700.19,-323.89 762.24,-308.86 800.83,-299.52"/>
<polygon fill="midnightblue" stroke="midnightblue" points="657.23,-330.69 648.34,-336.44 658.88,-337.49 657.23,-330.69"/>
</g>
<!-- Node27 -->
<g id="node27" class="node">
<title>Node27</title>
<g id="a_node27"><a xlink:href="TableOfContents_8h.html" target="_top" xlink:title="This file contains the definition of the class TableOfContents that handles the table of contents pan...">
<polygon fill="white" stroke="black" points="941.5,-280.5 941.5,-299.5 1108.5,-299.5 1108.5,-280.5 941.5,-280.5"/>
<text text-anchor="middle" x="1025" y="-287.5" font-family="Helvetica,sans-Serif" font-size="10.00">src/sidebars/TableOfContents.h</text>
</a>
</g>
</g>
<!-- Node1&#45;&gt;Node27 -->
<g id="edge39" class="edge">
<title>Node1&#45;&gt;Node27</title>
<path fill="none" stroke="midnightblue" d="M681.28,-336.05C758.7,-325.9 883.99,-309.48 960.01,-299.52"/>
<polygon fill="midnightblue" stroke="midnightblue" points="680.62,-332.61 671.16,-337.38 681.53,-339.55 680.62,-332.61"/>
</g>
<!-- Node29 -->
<g id="node29" class="node">
<title>Node29</title>
<g id="a_node29"><a xlink:href="ToolBar_8h.html" target="_top" xlink:title="This file declares the class ToolBar that represents wxMaxima&#39;s main tool bar.">
<polygon fill="white" stroke="black" points="1127,-280.5 1127,-299.5 1205,-299.5 1205,-280.5 1127,-280.5"/>
<text text-anchor="middle" x="1166" y="-287.5" font-family="Helvetica,sans-Serif" font-size="10.00">src/ToolBar.h</text>
</a>
</g>
</g>
<!-- Node1&#45;&gt;Node29 -->
<g id="edge42" class="edge">
<title>Node1&#45;&gt;Node29</title>
<path fill="none" stroke="midnightblue" d="M681.14,-341.02C778.38,-334.87 962.41,-321.47 1118,-300 1120.86,-299.61 1123.8,-299.16 1126.76,-298.68"/>
<polygon fill="midnightblue" stroke="midnightblue" points="680.91,-337.53 671.14,-341.65 681.34,-344.52 680.91,-337.53"/>
</g>
<!-- Node31 -->
<g id="node31" class="node">
<title>Node31</title>
<g id="a_node31"><a xlink:href="WXMformat_8h_source.html" target="_top" xlink:title=" ">
<polygon fill="white" stroke="black" points="391.5,-112.5 391.5,-131.5 492.5,-131.5 492.5,-112.5 391.5,-112.5"/>
<text text-anchor="middle" x="442" y="-119.5" font-family="Helvetica,sans-Serif" font-size="10.00">src/WXMformat.h</text>
</a>
</g>
</g>
<!-- Node1&#45;&gt;Node31 -->
<g id="edge46" class="edge">
<title>Node1&#45;&gt;Node31</title>
<path fill="none" stroke="midnightblue" d="M544.92,-340.87C515.42,-335.45 483.11,-323.94 463,-300 420.4,-249.3 434.35,-159.68 440.07,-131.64"/>
<polygon fill="midnightblue" stroke="midnightblue" points="544.36,-344.33 554.79,-342.48 545.48,-337.42 544.36,-344.33"/>
</g>
<!-- Node6 -->
<g id="node6" class="node">
<title>Node6</title>
<g id="a_node6"><a xlink:href="EvaluationQueue_8cpp.html" target="_top" xlink:title="This file defines the class EvaluationQueue.">
<polygon fill="white" stroke="black" points="472.5,-224.5 472.5,-243.5 609.5,-243.5 609.5,-224.5 472.5,-224.5"/>
<text text-anchor="middle" x="541" y="-231.5" font-family="Helvetica,sans-Serif" font-size="10.00">src/EvaluationQueue.cpp</text>
</a>
</g>
</g>
<!-- Node5&#45;&gt;Node6 -->
<g id="edge5" class="edge">
<title>Node5&#45;&gt;Node6</title>
<path fill="none" stroke="midnightblue" d="M537.1,-270.1C538.1,-261.14 539.24,-250.86 540.03,-243.75"/>
<polygon fill="midnightblue" stroke="midnightblue" points="533.62,-269.76 535.99,-280.08 540.57,-270.53 533.62,-269.76"/>
</g>
<!-- Node5&#45;&gt;Node7 -->
<g id="edge6" class="edge">
<title>Node5&#45;&gt;Node7</title>
<path fill="none" stroke="midnightblue" d="M608.48,-279.11C673.78,-270.23 771.81,-256.68 857,-244 860.07,-243.54 863.24,-243.06 866.42,-242.58"/>
<polygon fill="midnightblue" stroke="midnightblue" points="607.72,-275.68 598.28,-280.49 608.66,-282.62 607.72,-275.68"/>
</g>
<!-- Node8 -->
<g id="node8" class="node">
<title>Node8</title>
<g id="a_node8"><a xlink:href="ConfigDialogue_8h.html" target="_top" xlink:title="The configuration dialog.">
<polygon fill="white" stroke="black" points="739.5,-56.5 739.5,-75.5 894.5,-75.5 894.5,-56.5 739.5,-56.5"/>
<text text-anchor="middle" x="817" y="-63.5" font-family="Helvetica,sans-Serif" font-size="10.00">src/dialogs/ConfigDialogue.h</text>
</a>
</g>
</g>
<!-- Node7&#45;&gt;Node8 -->
<g id="edge7" class="edge">
<title>Node7&#45;&gt;Node8</title>
<path fill="none" stroke="midnightblue" d="M970.33,-222.55C1029.96,-211.23 1116.19,-193.96 1121,-188 1142.2,-161.7 1143.07,-137.57 1121,-112 1092.33,-78.78 974.98,-69.67 894.76,-67.4"/>
<polygon fill="midnightblue" stroke="midnightblue" points="969.44,-219.16 960.27,-224.46 970.75,-226.04 969.44,-219.16"/>
</g>
<!-- Node11 -->
<g id="node11" class="node">
<title>Node11</title>
<g id="a_node11"><a xlink:href="Printout_8cpp.html" target="_top" xlink:title="This file defines the class MathPrintOut.">
<polygon fill="white" stroke="black" points="1173.5,-168.5 1173.5,-187.5 1328.5,-187.5 1328.5,-168.5 1173.5,-168.5"/>
<text text-anchor="middle" x="1251" y="-175.5" font-family="Helvetica,sans-Serif" font-size="10.00">src/graphical_io/Printout.cpp</text>
</a>
</g>
</g>
<!-- Node7&#45;&gt;Node11 -->
<g id="edge10" class="edge">
<title>Node7&#45;&gt;Node11</title>
<path fill="none" stroke="midnightblue" d="M971.8,-223.74C1035.26,-213.57 1136.29,-197.38 1197.84,-187.52"/>
<polygon fill="midnightblue" stroke="midnightblue" points="970.89,-220.34 961.57,-225.38 972,-227.25 970.89,-220.34"/>
</g>
<!-- Node12 -->
<g id="node12" class="node">
<title>Node12</title>
<g id="a_node12"><a xlink:href="wxMaximaFrame_8h.html" target="_top" xlink:title="This file declares the class wxMaximaFrame.">
<polygon fill="white" stroke="black" points="682,-168.5 682,-187.5 810,-187.5 810,-168.5 682,-168.5"/>
<text text-anchor="middle" x="746" y="-175.5" font-family="Helvetica,sans-Serif" font-size="10.00">src/wxMaximaFrame.h</text>
</a>
</g>
</g>
<!-- Node7&#45;&gt;Node12 -->
<g id="edge11" class="edge">
<title>Node7&#45;&gt;Node12</title>
<path fill="none" stroke="midnightblue" d="M877.61,-221.3C845.96,-211.13 800.83,-196.62 772.5,-187.52"/>
<polygon fill="midnightblue" stroke="midnightblue" points="876.79,-224.72 887.38,-224.44 878.93,-218.05 876.79,-224.72"/>
</g>
<!-- Node19 -->
<g id="node19" class="node">
<title>Node19</title>
<g id="a_node19"><a xlink:href="Worksheet_8cpp.html" target="_top" xlink:title="This file defines the class Worksheet.">
<polygon fill="white" stroke="black" points="615,-56.5 615,-75.5 721,-75.5 721,-56.5 615,-56.5"/>
<text text-anchor="middle" x="668" y="-63.5" font-family="Helvetica,sans-Serif" font-size="10.00">src/Worksheet.cpp</text>
</a>
</g>
</g>
<!-- Node7&#45;&gt;Node19 -->
<g id="edge27" class="edge">
<title>Node7&#45;&gt;Node19</title>
<path fill="none" stroke="midnightblue" d="M951.51,-221.19C1008.95,-201.28 1107.88,-158.6 1066,-112 1015.81,-56.14 804.5,-85.4 730,-76 727.09,-75.63 724.1,-75.24 721.08,-74.84"/>
<polygon fill="midnightblue" stroke="midnightblue" points="950.34,-217.9 942,-224.42 952.59,-224.53 950.34,-217.9"/>
</g>
<!-- Node9 -->
<g id="node9" class="node">
<title>Node9</title>
<g id="a_node9"><a xlink:href="main_8cpp.html" target="_top" xlink:title="The file that defines the starting point of the program.">
<polygon fill="white" stroke="black" points="287.5,-0.5 287.5,-19.5 366.5,-19.5 366.5,-0.5 287.5,-0.5"/>
<text text-anchor="middle" x="327" y="-7.5" font-family="Helvetica,sans-Serif" font-size="10.00">src/main.cpp</text>
</a>
</g>
</g>
<!-- Node8&#45;&gt;Node9 -->
<g id="edge8" class="edge">
<title>Node8&#45;&gt;Node9</title>
<path fill="none" stroke="midnightblue" d="M729.18,-55.92C571.88,-39.97 530.56,-41.23 378,-20 374.35,-19.49 370.56,-18.92 366.77,-18.31"/>
<polygon fill="midnightblue" stroke="midnightblue" points="728.91,-59.41 739.21,-56.95 729.62,-52.45 728.91,-59.41"/>
</g>
<!-- Node10 -->
<g id="node10" class="node">
<title>Node10</title>
<g id="a_node10"><a xlink:href="wxMaxima_8cpp.html" target="_top" xlink:title="This file defines the contents of the class wxMaxima that contains most of the program&#39;s logic.">
<polygon fill="white" stroke="black" points="387,-0.5 387,-19.5 495,-19.5 495,-0.5 387,-0.5"/>
<text text-anchor="middle" x="441" y="-7.5" font-family="Helvetica,sans-Serif" font-size="10.00">src/wxMaxima.cpp</text>
</a>
</g>
</g>
<!-- Node8&#45;&gt;Node10 -->
<g id="edge9" class="edge">
<title>Node8&#45;&gt;Node10</title>
<path fill="none" stroke="midnightblue" d="M747.41,-55.01C674.53,-44.54 561.61,-28.32 495.12,-18.77"/>
<polygon fill="midnightblue" stroke="midnightblue" points="747.03,-58.49 757.42,-56.44 748.02,-51.56 747.03,-58.49"/>
</g>
<!-- Node13 -->
<g id="node13" class="node">
<title>Node13</title>
<g id="a_node13"><a xlink:href="AutocompletePopup_8cpp.html" target="_top" xlink:title="This file defines the class AutocompletePopup.">
<polygon fill="white" stroke="black" points="511,-112.5 511,-131.5 663,-131.5 663,-112.5 511,-112.5"/>
<text text-anchor="middle" x="587" y="-119.5" font-family="Helvetica,sans-Serif" font-size="10.00">src/AutocompletePopup.cpp</text>
</a>
</g>
</g>
<!-- Node12&#45;&gt;Node13 -->
<g id="edge12" class="edge">
<title>Node12&#45;&gt;Node13</title>
<path fill="none" stroke="midnightblue" d="M711.17,-165.17C681.23,-155 638.78,-140.59 612.08,-131.52"/>
<polygon fill="midnightblue" stroke="midnightblue" points="710.21,-168.54 720.81,-168.44 712.46,-161.91 710.21,-168.54"/>
</g>
<!-- Node14 -->
<g id="node14" class="node">
<title>Node14</title>
<g id="a_node14"><a xlink:href="EditorCell_8cpp.html" target="_top" xlink:title="This file defines the class EditorCell.">
<polygon fill="white" stroke="black" points="469.5,-56.5 469.5,-75.5 596.5,-75.5 596.5,-56.5 469.5,-56.5"/>
<text text-anchor="middle" x="533" y="-63.5" font-family="Helvetica,sans-Serif" font-size="10.00">src/cells/EditorCell.cpp</text>
</a>
</g>
</g>
<!-- Node12&#45;&gt;Node14 -->
<g id="edge13" class="edge">
<title>Node12&#45;&gt;Node14</title>
<path fill="none" stroke="midnightblue" d="M731.36,-160.82C717.38,-146.23 695.08,-125.12 672,-112 641.13,-94.45 602.45,-82.64 573.74,-75.54"/>
<polygon fill="midnightblue" stroke="midnightblue" points="728.84,-163.24 738.22,-168.16 733.95,-158.46 728.84,-163.24"/>
</g>
<!-- Node15 -->
<g id="node15" class="node">
<title>Node15</title>
<g id="a_node15"><a xlink:href="main_8h.html" target="_top" xlink:title="This file declares the class wxMaxima that contains most of the program&#39;s logic.">
<polygon fill="white" stroke="black" points="221,-56.5 221,-75.5 289,-75.5 289,-56.5 221,-56.5"/>
<text text-anchor="middle" x="255" y="-63.5" font-family="Helvetica,sans-Serif" font-size="10.00">src/main.h</text>
</a>
</g>
</g>
<!-- Node12&#45;&gt;Node15 -->
<g id="edge14" class="edge">
<title>Node12&#45;&gt;Node15</title>
<path fill="none" stroke="midnightblue" d="M671.48,-174.87C544.3,-170.52 296.18,-158.69 267,-132 251.25,-117.59 252.05,-89.81 253.67,-75.69"/>
<polygon fill="midnightblue" stroke="midnightblue" points="671.43,-178.37 681.54,-175.2 671.66,-171.37 671.43,-178.37"/>
</g>
<!-- Node17 -->
<g id="node17" class="node">
<title>Node17</title>
<g id="a_node17"><a xlink:href="GreekSidebar_8cpp.html" target="_top" xlink:title="This file defines the class GreekSidebar.">
<polygon fill="white" stroke="black" points="719,-112.5 719,-131.5 883,-131.5 883,-112.5 719,-112.5"/>
<text text-anchor="middle" x="801" y="-119.5" font-family="Helvetica,sans-Serif" font-size="10.00">src/sidebars/GreekSidebar.cpp</text>
</a>
</g>
</g>
<!-- Node12&#45;&gt;Node17 -->
<g id="edge18" class="edge">
<title>Node12&#45;&gt;Node17</title>
<path fill="none" stroke="midnightblue" d="M762.29,-161C772.04,-151.43 784.05,-139.64 792.09,-131.75"/>
<polygon fill="midnightblue" stroke="midnightblue" points="759.77,-158.58 755.08,-168.08 764.67,-163.57 759.77,-158.58"/>
</g>
<!-- Node18 -->
<g id="node18" class="node">
<title>Node18</title>
<g id="a_node18"><a xlink:href="wxMaxima_8h.html" target="_top" xlink:title="This file declares the class wxMaxima that contains most of the program&#39;s logic.">
<polygon fill="white" stroke="black" points="276.5,-112.5 276.5,-131.5 373.5,-131.5 373.5,-112.5 276.5,-112.5"/>
<text text-anchor="middle" x="325" y="-119.5" font-family="Helvetica,sans-Serif" font-size="10.00">src/wxMaxima.h</text>
</a>
</g>
</g>
<!-- Node12&#45;&gt;Node18 -->
<g id="edge19" class="edge">
<title>Node12&#45;&gt;Node18</title>
<path fill="none" stroke="midnightblue" d="M671.7,-168.56C598.07,-160.01 482.12,-146.09 382,-132 379.32,-131.62 376.57,-131.23 373.8,-130.82"/>
<polygon fill="midnightblue" stroke="midnightblue" points="671.47,-172.05 681.81,-169.72 672.27,-165.1 671.47,-172.05"/>
</g>
<!-- Node12&#45;&gt;Node19 -->
<g id="edge26" class="edge">
<title>Node12&#45;&gt;Node19</title>
<path fill="none" stroke="midnightblue" d="M820.33,-176.69C900.59,-174.59 1020.92,-165.7 1050,-132 1055.81,-125.27 1055.92,-118.63 1050,-112 1002.31,-58.65 800.97,-85.14 730,-76 727.09,-75.62 724.1,-75.23 721.08,-74.82"/>
<polygon fill="midnightblue" stroke="midnightblue" points="820.17,-173.19 810.26,-176.92 820.33,-180.19 820.17,-173.19"/>
</g>
<!-- Node20 -->
<g id="node20" class="node">
<title>Node20</title>
<g id="a_node20"><a xlink:href="wxMaximaFrame_8cpp.html" target="_top" xlink:title="This file defines the class wxMaximaFrame.">
<polygon fill="white" stroke="black" points="901.5,-112.5 901.5,-131.5 1040.5,-131.5 1040.5,-112.5 901.5,-112.5"/>
<text text-anchor="middle" x="971" y="-119.5" font-family="Helvetica,sans-Serif" font-size="10.00">src/wxMaximaFrame.cpp</text>
</a>
</g>
</g>
<!-- Node12&#45;&gt;Node20 -->
<g id="edge25" class="edge">
<title>Node12&#45;&gt;Node20</title>
<path fill="none" stroke="midnightblue" d="M791.47,-166.09C833.97,-155.89 896.58,-140.86 935.51,-131.52"/>
<polygon fill="midnightblue" stroke="midnightblue" points="790.56,-162.71 781.65,-168.44 792.19,-169.51 790.56,-162.71"/>
</g>
<!-- Node15&#45;&gt;Node9 -->
<g id="edge15" class="edge">
<title>Node15&#45;&gt;Node9</title>
<path fill="none" stroke="midnightblue" d="M274.87,-50.1C287.82,-40.38 304.3,-28.03 315.22,-19.83"/>
<polygon fill="midnightblue" stroke="midnightblue" points="272.47,-47.52 266.57,-56.32 276.67,-53.12 272.47,-47.52"/>
</g>
<!-- Node15&#45;&gt;Node10 -->
<g id="edge17" class="edge">
<title>Node15&#45;&gt;Node10</title>
<path fill="none" stroke="midnightblue" d="M294.38,-53.57C329.47,-43.38 380.02,-28.7 411.67,-19.52"/>
<polygon fill="midnightblue" stroke="midnightblue" points="293.1,-50.29 284.47,-56.44 295.05,-57.02 293.1,-50.29"/>
</g>
<!-- Node16 -->
<g id="node16" class="node">
<title>Node16</title>
<g id="a_node16"><a xlink:href="MaximaManual_8cpp.html" target="_top" xlink:title="This file defines the class MaximaManual.">
<polygon fill="white" stroke="black" points="139,-0.5 139,-19.5 269,-19.5 269,-0.5 139,-0.5"/>
<text text-anchor="middle" x="204" y="-7.5" font-family="Helvetica,sans-Serif" font-size="10.00">src/MaximaManual.cpp</text>
</a>
</g>
</g>
<!-- Node15&#45;&gt;Node16 -->
<g id="edge16" class="edge">
<title>Node15&#45;&gt;Node16</title>
<path fill="none" stroke="midnightblue" d="M239.62,-48.72C230.63,-39.2 219.64,-27.56 212.26,-19.75"/>
<polygon fill="midnightblue" stroke="midnightblue" points="237.17,-51.22 246.58,-56.08 242.26,-46.41 237.17,-51.22"/>
</g>
<!-- Node18&#45;&gt;Node9 -->
<g id="edge21" class="edge">
<title>Node18&#45;&gt;Node9</title>
<path fill="none" stroke="midnightblue" d="M325.34,-102.35C325.78,-78.25 326.52,-37.31 326.84,-19.59"/>
<polygon fill="midnightblue" stroke="midnightblue" points="321.84,-102.31 325.16,-112.37 328.84,-102.43 321.84,-102.31"/>
</g>
<!-- Node18&#45;&gt;Node10 -->
<g id="edge24" class="edge">
<title>Node18&#45;&gt;Node10</title>
<path fill="none" stroke="midnightblue" d="M341.66,-105.21C366.52,-81.63 412.5,-38.03 431.94,-19.59"/>
<polygon fill="midnightblue" stroke="midnightblue" points="338.95,-102.95 334.1,-112.37 343.77,-108.03 338.95,-102.95"/>
</g>
<!-- Node18&#45;&gt;Node14 -->
<g id="edge20" class="edge">
<title>Node18&#45;&gt;Node14</title>
<path fill="none" stroke="midnightblue" d="M367.78,-109.89C407.06,-99.7 464.43,-84.8 500.2,-75.52"/>
<polygon fill="midnightblue" stroke="midnightblue" points="366.76,-106.54 357.96,-112.44 368.52,-113.32 366.76,-106.54"/>
</g>
<!-- Node18&#45;&gt;Node15 -->
<g id="edge22" class="edge">
<title>Node18&#45;&gt;Node15</title>
<path fill="none" stroke="midnightblue" d="M305.69,-106.1C293.09,-96.38 277.07,-84.03 266.45,-75.83"/>
<polygon fill="midnightblue" stroke="midnightblue" points="303.7,-108.99 313.75,-112.32 307.97,-103.44 303.7,-108.99"/>
</g>
<!-- Node18&#45;&gt;Node19 -->
<g id="edge23" class="edge">
<title>Node18&#45;&gt;Node19</title>
<path fill="none" stroke="midnightblue" d="M383.51,-111.76C470.12,-98.11 559.46,-84.06 614.76,-75.37"/>
<polygon fill="midnightblue" stroke="midnightblue" points="382.84,-108.32 373.51,-113.34 383.93,-115.24 382.84,-108.32"/>
</g>
<!-- Node21&#45;&gt;Node10 -->
<g id="edge30" class="edge">
<title>Node21&#45;&gt;Node10</title>
<path fill="none" stroke="midnightblue" d="M1354.86,-213.81C1353.72,-199.38 1349.85,-180.1 1338,-168 1274.32,-102.96 1229.09,-134.92 1141,-112 1036.25,-84.75 1010.77,-73.72 904,-56 757.21,-31.64 581.88,-19.03 495.13,-13.88"/>
<polygon fill="midnightblue" stroke="midnightblue" points="1351.38,-214.26 1355.29,-224.11 1358.37,-213.97 1351.38,-214.26"/>
</g>
<!-- Node21&#45;&gt;Node11 -->
<g id="edge29" class="edge">
<title>Node21&#45;&gt;Node11</title>
<path fill="none" stroke="midnightblue" d="M1329.17,-219.59C1309.94,-209.61 1284.26,-196.27 1267.67,-187.65"/>
<polygon fill="midnightblue" stroke="midnightblue" points="1327.8,-222.82 1338.29,-224.32 1331.03,-216.61 1327.8,-222.82"/>
</g>
<!-- Node23&#45;&gt;Node15 -->
<g id="edge33" class="edge">
<title>Node23&#45;&gt;Node15</title>
<path fill="none" stroke="midnightblue" d="M251.82,-160.96C244.9,-152.98 237.6,-142.75 234,-132 227.29,-111.99 240.06,-88.38 248.47,-75.85"/>
<polygon fill="midnightblue" stroke="midnightblue" points="249.35,-163.44 258.71,-168.39 254.48,-158.68 249.35,-163.44"/>
</g>
<!-- Node23&#45;&gt;Node18 -->
<g id="edge35" class="edge">
<title>Node23&#45;&gt;Node18</title>
<path fill="none" stroke="midnightblue" d="M284.62,-161.25C294.73,-151.67 307.28,-139.79 315.68,-131.83"/>
<polygon fill="midnightblue" stroke="midnightblue" points="282.01,-158.91 277.16,-168.32 286.82,-163.99 282.01,-158.91"/>
</g>
<!-- Node24 -->
<g id="node24" class="node">
<title>Node24</title>
<g id="a_node24"><a xlink:href="MathParser_8cpp.html" target="_top" xlink:title="This file defines the class MathParser that reads wxmx data and math from Maxima.">
<polygon fill="white" stroke="black" points="74,-112.5 74,-131.5 182,-131.5 182,-112.5 74,-112.5"/>
<text text-anchor="middle" x="128" y="-119.5" font-family="Helvetica,sans-Serif" font-size="10.00">src/MathParser.cpp</text>
</a>
</g>
</g>
<!-- Node23&#45;&gt;Node24 -->
<g id="edge34" class="edge">
<title>Node23&#45;&gt;Node24</title>
<path fill="none" stroke="midnightblue" d="M236.3,-164.77C210,-154.63 173.28,-140.47 150.08,-131.52"/>
<polygon fill="midnightblue" stroke="midnightblue" points="235.23,-168.11 245.82,-168.44 237.75,-161.58 235.23,-168.11"/>
</g>
<!-- Node25&#45;&gt;Node7 -->
<g id="edge38" class="edge">
<title>Node25&#45;&gt;Node7</title>
<path fill="none" stroke="midnightblue" d="M856.77,-274.62C871.02,-264.76 889.46,-251.99 901.5,-243.65"/>
<polygon fill="midnightblue" stroke="midnightblue" points="854.76,-271.75 848.53,-280.32 858.75,-277.51 854.76,-271.75"/>
</g>
<!-- Node26 -->
<g id="node26" class="node">
<title>Node26</title>
<g id="a_node26"><a xlink:href="Notification_8cpp.html" target="_top" xlink:title="This file defines the class Notification.">
<polygon fill="white" stroke="black" points="738,-224.5 738,-243.5 848,-243.5 848,-224.5 738,-224.5"/>
<text text-anchor="middle" x="793" y="-231.5" font-family="Helvetica,sans-Serif" font-size="10.00">src/Notification.cpp</text>
</a>
</g>
</g>
<!-- Node25&#45;&gt;Node26 -->
<g id="edge37" class="edge">
<title>Node25&#45;&gt;Node26</title>
<path fill="none" stroke="midnightblue" d="M822.58,-272.14C815.09,-262.74 806.06,-251.4 799.97,-243.75"/>
<polygon fill="midnightblue" stroke="midnightblue" points="819.93,-274.44 828.9,-280.08 825.41,-270.08 819.93,-274.44"/>
</g>
<!-- Node27&#45;&gt;Node7 -->
<g id="edge41" class="edge">
<title>Node27&#45;&gt;Node7</title>
<path fill="none" stroke="midnightblue" d="M997.99,-275.86C977.41,-265.85 949.66,-252.35 931.79,-243.65"/>
<polygon fill="midnightblue" stroke="midnightblue" points="996.64,-279.1 1007.17,-280.32 999.7,-272.8 996.64,-279.1"/>
</g>
<!-- Node28 -->
<g id="node28" class="node">
<title>Node28</title>
<g id="a_node28"><a xlink:href="TableOfContents_8cpp.html" target="_top" xlink:title="This file defines the class Structure.">
<polygon fill="white" stroke="black" points="979.5,-224.5 979.5,-243.5 1158.5,-243.5 1158.5,-224.5 979.5,-224.5"/>
<text text-anchor="middle" x="1069" y="-231.5" font-family="Helvetica,sans-Serif" font-size="10.00">src/sidebars/TableOfContents.cpp</text>
</a>
</g>
</g>
<!-- Node27&#45;&gt;Node28 -->
<g id="edge40" class="edge">
<title>Node27&#45;&gt;Node28</title>
<path fill="none" stroke="midnightblue" d="M1038.73,-272.14C1046.4,-262.74 1055.63,-251.4 1061.87,-243.75"/>
<polygon fill="midnightblue" stroke="midnightblue" points="1035.87,-270.12 1032.27,-280.08 1041.3,-274.54 1035.87,-270.12"/>
</g>
<!-- Node29&#45;&gt;Node7 -->
<g id="edge44" class="edge">
<title>Node29&#45;&gt;Node7</title>
<path fill="none" stroke="midnightblue" d="M1116.84,-278.47C1069.32,-268.28 998.19,-253.04 954.02,-243.58"/>
<polygon fill="midnightblue" stroke="midnightblue" points="1116.39,-281.95 1126.9,-280.62 1117.86,-275.1 1116.39,-281.95"/>
</g>
<!-- Node30 -->
<g id="node30" class="node">
<title>Node30</title>
<g id="a_node30"><a xlink:href="ToolBar_8cpp.html" target="_top" xlink:title="This file defines the class ToolBar that represents wxMaxima&#39;s main tool bar.">
<polygon fill="white" stroke="black" points="1176.5,-224.5 1176.5,-243.5 1265.5,-243.5 1265.5,-224.5 1176.5,-224.5"/>
<text text-anchor="middle" x="1221" y="-231.5" font-family="Helvetica,sans-Serif" font-size="10.00">src/ToolBar.cpp</text>
</a>
</g>
</g>
<!-- Node29&#45;&gt;Node30 -->
<g id="edge43" class="edge">
<title>Node29&#45;&gt;Node30</title>
<path fill="none" stroke="midnightblue" d="M1182.29,-273C1192.04,-263.43 1204.05,-251.64 1212.09,-243.75"/>
<polygon fill="midnightblue" stroke="midnightblue" points="1179.77,-270.58 1175.08,-280.08 1184.67,-275.57 1179.77,-270.58"/>
</g>
<!-- Node31&#45;&gt;Node10 -->
<g id="edge48" class="edge">
<title>Node31&#45;&gt;Node10</title>
<path fill="none" stroke="midnightblue" d="M441.83,-102.35C441.61,-78.25 441.24,-37.31 441.08,-19.59"/>
<polygon fill="midnightblue" stroke="midnightblue" points="438.33,-102.4 441.92,-112.37 445.33,-102.34 438.33,-102.4"/>
</g>
<!-- Node31&#45;&gt;Node19 -->
<g id="edge47" class="edge">
<title>Node31&#45;&gt;Node19</title>
<path fill="none" stroke="midnightblue" d="M487.67,-110.09C530.36,-99.89 593.25,-84.86 632.36,-75.52"/>
<polygon fill="midnightblue" stroke="midnightblue" points="486.72,-106.72 477.81,-112.44 488.35,-113.52 486.72,-106.72"/>
</g>
</g>
</svg>
        <g id="navigator" transform="translate(0 0)" fill="#404254">
                <rect fill="#f2f5e9" fill-opacity="0.5" stroke="#606060" stroke-width=".5" x="0" y="0" width="60" height="60"/>
                <use id="zoomplus" xlink:href="#zoomPlus" x="17" y="9" onmousedown="handleZoom(evt,'in')"/>
                <use id="zoomminus" xlink:href="#zoomMin" x="42" y="9" onmousedown="handleZoom(evt,'out')"/>
                <use id="reset" xlink:href="#resetDef" x="30" y="36" onmousedown="handleReset()"/>
                <g id="arrowUp" xlink:href="#dirArrow" transform="translate(30 24)" onmousedown="handlePan(0,-1)">
                  <use xlink:href="#rim" fill="#404040">
                        <set attributeName="fill" to="#808080" begin="arrowUp.mouseover" end="arrowUp.mouseout"/>
                  </use>
                  <path fill="none" stroke="white" stroke-width="1.5" d="M0,-3.0v7 M-2.5,-0.5L0,-3.0L2.5,-0.5"/>
                </g>
                <g id="arrowRight" xlink:href="#dirArrow" transform="rotate(90) translate(36 -43)" onmousedown="handlePan(1,0)">
                  <use xlink:href="#rim" fill="#404040">
                        <set attributeName="fill" to="#808080" begin="arrowRight.mouseover" end="arrowRight.mouseout"/>
                  </use>
                  <path fill="none" stroke="white" stroke-width="1.5" d="M0,-3.0v7 M-2.5,-0.5L0,-3.0L2.5,-0.5"/>
                </g>
                <g id="arrowDown" xlink:href="#dirArrow" transform="rotate(180) translate(-30 -48)" onmousedown="handlePan(0,1)">
                  <use xlink:href="#rim" fill="#404040">
                        <set attributeName="fill" to="#808080" begin="arrowDown.mouseover" end="arrowDown.mouseout"/>
                  </use>
                  <path fill="none" stroke="white" stroke-width="1.5" d="M0,-3.0v7 M-2.5,-0.5L0,-3.0L2.5,-0.5"/>
                </g>
                <g id="arrowLeft" xlink:href="#dirArrow" transform="rotate(270) translate(-36 17)" onmousedown="handlePan(-1,0)">
                  <use xlink:href="#rim" fill="#404040">
                        <set attributeName="fill" to="#808080" begin="arrowLeft.mouseover" end="arrowLeft.mouseout"/>
                  </use>
                  <path fill="none" stroke="white" stroke-width="1.5" d="M0,-3.0v7 M-2.5,-0.5L0,-3.0L2.5,-0.5"/>
                </g>
        </g>
        <svg viewBox="0 0 15 15" width="100%" height="30px" preserveAspectRatio="xMaxYMin meet">
         <g id="arrow_out" transform="scale(0.3 0.3)">
          <a xlink:href="GroupCell_8h__dep__incl_org.svg" target="_base">
           <rect id="button" ry="5" rx="5" y="6" x="6" height="38" width="38"
                fill="#f2f5e9" fill-opacity="0.5" stroke="#606060" stroke-width="1.0"/>
           <path id="arrow"
             d="M 11.500037,31.436501 C 11.940474,20.09759 22.043105,11.32322 32.158766,21.979434 L 37.068811,17.246167 C 37.068811,17.246167 37.088388,32 37.088388,32 L 22.160133,31.978069 C 22.160133,31.978069 26.997745,27.140456 26.997745,27.140456 C 18.528582,18.264221 13.291696,25.230495 11.500037,31.436501 z"
             style="fill:#404040;"/>
          </a>
         </g>
        </svg>
</svg>
