<?xml version="1.0" encoding="UTF-8" standalone="no"?>
<!DOCTYPE svg PUBLIC "-//W3C//DTD SVG 1.1//EN"
 "http://www.w3.org/Graphics/SVG/1.1/DTD/svg11.dtd">
<!-- Generated by graphviz version 2.43.0 (0)
 -->
<!-- Title: src/sidebars/HelpBrowser.h Pages: 1 -->
<svg width="2116pt" height="357pt"
 viewBox="0.00 0.00 2115.50 357.00" xmlns="http://www.w3.org/2000/svg" xmlns:xlink="http://www.w3.org/1999/xlink">
<g id="graph0" class="graph" transform="scale(1 1) rotate(0) translate(4 353)">
<title>src/sidebars/HelpBrowser.h</title>
<!-- Node1 -->
<g id="node1" class="node">
<title>Node1</title>
<g id="a_node1"><a xlink:title="This file declares the class HelpBrowser.">
<polygon fill="#999999" stroke="#666666" points="620.5,-349 471.5,-349 471.5,-330 620.5,-330 620.5,-349"/>
<text text-anchor="middle" x="546" y="-337" font-family="Helvetica,sans-Serif" font-size="10.00">src/sidebars/HelpBrowser.h</text>
</a>
</g>
</g>
<!-- Node2 -->
<g id="node2" class="node">
<title>Node2</title>
<g id="a_node2"><a xlink:title=" ">
<polygon fill="#e0e0e0" stroke="#999999" points="316.5,-19 235.5,-19 235.5,0 316.5,0 316.5,-19"/>
<text text-anchor="middle" x="276" y="-7" font-family="Helvetica,sans-Serif" font-size="10.00">BuildConfig.h</text>
</a>
</g>
</g>
<!-- Node1&#45;&gt;Node2 -->
<g id="edge1" class="edge">
<title>Node1&#45;&gt;Node2</title>
<path fill="none" stroke="#63b8ff" d="M471.23,-339.1C321.69,-338.26 0,-325.44 0,-230.5 0,-230.5 0,-230.5 0,-118.5 0,-70.64 145.77,-35.3 225.43,-19.56"/>
<polygon fill="#63b8ff" stroke="#63b8ff" points="226.13,-23 235.28,-17.65 224.79,-16.12 226.13,-23"/>
</g>
<!-- Node3 -->
<g id="node3" class="node">
<title>Node3</title>
<g id="a_node3"><a xlink:title=" ">
<polygon fill="#e0e0e0" stroke="#999999" points="159.5,-239 104.5,-239 104.5,-220 159.5,-220 159.5,-239"/>
<text text-anchor="middle" x="132" y="-227" font-family="Helvetica,sans-Serif" font-size="10.00">wx/dir.h</text>
</a>
</g>
</g>
<!-- Node1&#45;&gt;Node3 -->
<g id="edge2" class="edge">
<title>Node1&#45;&gt;Node3</title>
<path fill="none" stroke="#63b8ff" d="M513.17,-329.94C437.15,-310.1 249.42,-261.13 169.26,-240.22"/>
<polygon fill="#63b8ff" stroke="#63b8ff" points="170.14,-236.83 159.58,-237.69 168.37,-243.61 170.14,-236.83"/>
</g>
<!-- Node4 -->
<g id="node4" class="node">
<title>Node4</title>
<g id="a_node4"><a xlink:href="precomp_8h_source.html" target="_top" xlink:title=" ">
<polygon fill="white" stroke="#666666" points="602,-74 534,-74 534,-55 602,-55 602,-74"/>
<text text-anchor="middle" x="568" y="-62" font-family="Helvetica,sans-Serif" font-size="10.00">precomp.h</text>
</a>
</g>
</g>
<!-- Node1&#45;&gt;Node4 -->
<g id="edge3" class="edge">
<title>Node1&#45;&gt;Node4</title>
<path fill="none" stroke="#63b8ff" d="M471.32,-337.96C330.11,-334.91 38,-318.02 38,-230.5 38,-230.5 38,-230.5 38,-173.5 38,-74.74 395.79,-65.36 523.43,-65.16"/>
<polygon fill="#63b8ff" stroke="#63b8ff" points="523.63,-68.66 533.63,-65.16 523.63,-61.66 523.63,-68.66"/>
</g>
<!-- Node5 -->
<g id="node5" class="node">
<title>Node5</title>
<g id="a_node5"><a xlink:title=" ">
<polygon fill="#e0e0e0" stroke="#999999" points="263.5,-184 206.5,-184 206.5,-165 263.5,-165 263.5,-184"/>
<text text-anchor="middle" x="235" y="-172" font-family="Helvetica,sans-Serif" font-size="10.00">wx/wx.h</text>
</a>
</g>
</g>
<!-- Node1&#45;&gt;Node5 -->
<g id="edge5" class="edge">
<title>Node1&#45;&gt;Node5</title>
<path fill="none" stroke="#63b8ff" d="M471.2,-333.26C355.19,-323.37 140.45,-297.48 95,-239 65.73,-201.35 145.53,-185.32 196.4,-179.07"/>
<polygon fill="#63b8ff" stroke="#63b8ff" points="196.92,-182.54 206.46,-177.92 196.12,-175.58 196.92,-182.54"/>
</g>
<!-- Node6 -->
<g id="node6" class="node">
<title>Node6</title>
<g id="a_node6"><a xlink:title=" ">
<polygon fill="#e0e0e0" stroke="#999999" points="1251,-294 1181,-294 1181,-275 1251,-275 1251,-294"/>
<text text-anchor="middle" x="1216" y="-282" font-family="Helvetica,sans-Serif" font-size="10.00">wx/panel.h</text>
</a>
</g>
</g>
<!-- Node1&#45;&gt;Node6 -->
<g id="edge6" class="edge">
<title>Node1&#45;&gt;Node6</title>
<path fill="none" stroke="#63b8ff" d="M620.79,-335.56C737.69,-330.43 970.66,-318 1167,-294 1168.28,-293.84 1169.57,-293.68 1170.88,-293.5"/>
<polygon fill="#63b8ff" stroke="#63b8ff" points="1171.62,-296.93 1181,-292.01 1170.6,-290.01 1171.62,-296.93"/>
</g>
<!-- Node7 -->
<g id="node7" class="node">
<title>Node7</title>
<g id="a_node7"><a xlink:title=" ">
<polygon fill="#e0e0e0" stroke="#999999" points="2107.5,-184 2060.5,-184 2060.5,-165 2107.5,-165 2107.5,-184"/>
<text text-anchor="middle" x="2084" y="-172" font-family="Helvetica,sans-Serif" font-size="10.00">vector</text>
</a>
</g>
</g>
<!-- Node1&#45;&gt;Node7 -->
<g id="edge7" class="edge">
<title>Node1&#45;&gt;Node7</title>
<path fill="none" stroke="#63b8ff" d="M620.7,-330.58C897.45,-301.25 1858.29,-199.42 2050.41,-179.06"/>
<polygon fill="#63b8ff" stroke="#63b8ff" points="2050.9,-182.53 2060.48,-177.99 2050.16,-175.57 2050.9,-182.53"/>
</g>
<!-- Node8 -->
<g id="node8" class="node">
<title>Node8</title>
<g id="a_node8"><a xlink:title=" ">
<polygon fill="#e0e0e0" stroke="#999999" points="1334.5,-294 1269.5,-294 1269.5,-275 1334.5,-275 1334.5,-294"/>
<text text-anchor="middle" x="1302" y="-282" font-family="Helvetica,sans-Serif" font-size="10.00">wx/sizer.h</text>
</a>
</g>
</g>
<!-- Node1&#45;&gt;Node8 -->
<g id="edge8" class="edge">
<title>Node1&#45;&gt;Node8</title>
<path fill="none" stroke="#63b8ff" d="M620.59,-337.22C749.01,-334.28 1020.22,-324.83 1258.8,-293.96"/>
<polygon fill="#63b8ff" stroke="#63b8ff" points="1259.6,-297.38 1269.06,-292.61 1258.69,-290.44 1259.6,-297.38"/>
</g>
<!-- Node9 -->
<g id="node9" class="node">
<title>Node9</title>
<g id="a_node9"><a xlink:href="Configuration_8h_source.html" target="_top" xlink:title=" ">
<polygon fill="white" stroke="#666666" points="1086.5,-239 995.5,-239 995.5,-220 1086.5,-220 1086.5,-239"/>
<text text-anchor="middle" x="1041" y="-227" font-family="Helvetica,sans-Serif" font-size="10.00">Configuration.h</text>
</a>
</g>
</g>
<!-- Node1&#45;&gt;Node9 -->
<g id="edge9" class="edge">
<title>Node1&#45;&gt;Node9</title>
<path fill="none" stroke="#63b8ff" d="M585.26,-329.94C674.7,-310.42 893.48,-262.69 991.77,-241.24"/>
<polygon fill="#63b8ff" stroke="#63b8ff" points="992.72,-244.62 1001.74,-239.07 991.22,-237.78 992.72,-244.62"/>
</g>
<!-- Node43 -->
<g id="node42" class="node">
<title>Node43</title>
<g id="a_node42"><a xlink:href="MaximaManual_8h.html" target="_top" xlink:title="This file declares the class MaximaManual.">
<polygon fill="white" stroke="#666666" points="596.5,-294 495.5,-294 495.5,-275 596.5,-275 596.5,-294"/>
<text text-anchor="middle" x="546" y="-282" font-family="Helvetica,sans-Serif" font-size="10.00">MaximaManual.h</text>
</a>
</g>
</g>
<!-- Node1&#45;&gt;Node43 -->
<g id="edge62" class="edge">
<title>Node1&#45;&gt;Node43</title>
<path fill="none" stroke="#63b8ff" d="M546,-329.75C546,-322.8 546,-312.85 546,-304.13"/>
<polygon fill="#63b8ff" stroke="#63b8ff" points="549.5,-304.09 546,-294.09 542.5,-304.09 549.5,-304.09"/>
</g>
<!-- Node4&#45;&gt;Node2 -->
<g id="edge4" class="edge">
<title>Node4&#45;&gt;Node2</title>
<path fill="none" stroke="#63b8ff" d="M533.93,-57.32C482.88,-48.05 386.18,-30.5 326.78,-19.72"/>
<polygon fill="#63b8ff" stroke="#63b8ff" points="327.33,-16.26 316.86,-17.92 326.08,-23.15 327.33,-16.26"/>
</g>
<!-- Node9&#45;&gt;Node4 -->
<g id="edge10" class="edge">
<title>Node9&#45;&gt;Node4</title>
<path fill="none" stroke="#63b8ff" d="M995.35,-221.21C992.53,-220.79 989.73,-220.39 987,-220 860.15,-202.04 817.64,-237 701,-184 648.89,-160.32 602.61,-108.94 580.97,-82.29"/>
<polygon fill="#63b8ff" stroke="#63b8ff" points="583.56,-79.93 574.6,-74.28 578.08,-84.29 583.56,-79.93"/>
</g>
<!-- Node9&#45;&gt;Node5 -->
<g id="edge11" class="edge">
<title>Node9&#45;&gt;Node5</title>
<path fill="none" stroke="#63b8ff" d="M995.38,-220.98C992.55,-220.62 989.74,-220.29 987,-220 687.78,-188.57 610.85,-208.73 311,-184 298.92,-183 285.8,-181.64 273.91,-180.29"/>
<polygon fill="#63b8ff" stroke="#63b8ff" points="274.17,-176.8 263.83,-179.12 273.36,-183.75 274.17,-176.8"/>
</g>
<!-- Node9&#45;&gt;Node7 -->
<g id="edge57" class="edge">
<title>Node9&#45;&gt;Node7</title>
<path fill="none" stroke="#63b8ff" d="M1086.81,-221.52C1091.59,-220.94 1096.39,-220.41 1101,-220 1519.63,-182.47 1629.19,-238.1 2046,-184 2047.47,-183.81 2048.96,-183.59 2050.46,-183.35"/>
<polygon fill="#63b8ff" stroke="#63b8ff" points="2051.22,-186.77 2060.4,-181.48 2049.93,-179.89 2051.22,-186.77"/>
</g>
<!-- Node10 -->
<g id="node10" class="node">
<title>Node10</title>
<g id="a_node10"><a xlink:title=" ">
<polygon fill="#e0e0e0" stroke="#999999" points="2057,-129 1985,-129 1985,-110 2057,-110 2057,-129"/>
<text text-anchor="middle" x="2021" y="-117" font-family="Helvetica,sans-Serif" font-size="10.00">wx/config.h</text>
</a>
</g>
</g>
<!-- Node9&#45;&gt;Node10 -->
<g id="edge12" class="edge">
<title>Node9&#45;&gt;Node10</title>
<path fill="none" stroke="#63b8ff" d="M1086.81,-221.57C1091.6,-220.98 1096.39,-220.44 1101,-220 1426.15,-189.06 1514.2,-245.36 1835,-184 1892.59,-172.98 1956.68,-148.14 1992.59,-133"/>
<polygon fill="#63b8ff" stroke="#63b8ff" points="1994.12,-136.16 2001.94,-129.01 1991.37,-129.72 1994.12,-136.16"/>
</g>
<!-- Node11 -->
<g id="node11" class="node">
<title>Node11</title>
<g id="a_node11"><a xlink:title=" ">
<polygon fill="#e0e0e0" stroke="#999999" points="1436.5,-184 1359.5,-184 1359.5,-165 1436.5,-165 1436.5,-184"/>
<text text-anchor="middle" x="1398" y="-172" font-family="Helvetica,sans-Serif" font-size="10.00">wx/display.h</text>
</a>
</g>
</g>
<!-- Node9&#45;&gt;Node11 -->
<g id="edge13" class="edge">
<title>Node9&#45;&gt;Node11</title>
<path fill="none" stroke="#63b8ff" d="M1086.61,-222.02C1146.1,-213.53 1253.39,-198.05 1345,-184 1346.3,-183.8 1347.61,-183.6 1348.93,-183.39"/>
<polygon fill="#63b8ff" stroke="#63b8ff" points="1349.88,-186.79 1359.22,-181.78 1348.8,-179.87 1349.88,-186.79"/>
</g>
<!-- Node12 -->
<g id="node12" class="node">
<title>Node12</title>
<g id="a_node12"><a xlink:title=" ">
<polygon fill="#e0e0e0" stroke="#999999" points="1545,-184 1455,-184 1455,-165 1545,-165 1545,-184"/>
<text text-anchor="middle" x="1500" y="-172" font-family="Helvetica,sans-Serif" font-size="10.00">wx/fontenum.h</text>
</a>
</g>
</g>
<!-- Node9&#45;&gt;Node12 -->
<g id="edge14" class="edge">
<title>Node9&#45;&gt;Node12</title>
<path fill="none" stroke="#63b8ff" d="M1086.51,-221.87C1091.4,-221.22 1096.3,-220.58 1101,-220 1250.73,-201.59 1291.4,-203.88 1444.68,-184.11"/>
<polygon fill="#63b8ff" stroke="#63b8ff" points="1445.48,-187.53 1454.94,-182.77 1444.58,-180.59 1445.48,-187.53"/>
</g>
<!-- Node13 -->
<g id="node13" class="node">
<title>Node13</title>
<g id="a_node13"><a xlink:title=" ">
<polygon fill="#e0e0e0" stroke="#999999" points="1127,-129 1039,-129 1039,-110 1127,-110 1127,-129"/>
<text text-anchor="middle" x="1083" y="-117" font-family="Helvetica,sans-Serif" font-size="10.00">wx/hashmap.h</text>
</a>
</g>
</g>
<!-- Node9&#45;&gt;Node13 -->
<g id="edge15" class="edge">
<title>Node9&#45;&gt;Node13</title>
<path fill="none" stroke="#63b8ff" d="M1044.44,-219.66C1051.3,-202.01 1066.83,-162.09 1075.95,-138.64"/>
<polygon fill="#63b8ff" stroke="#63b8ff" points="1079.27,-139.75 1079.63,-129.16 1072.75,-137.21 1079.27,-139.75"/>
</g>
<!-- Node14 -->
<g id="node14" class="node">
<title>Node14</title>
<g id="a_node14"><a xlink:href="LoggingMessageDialog_8h.html" target="_top" xlink:title="This file declares a message dialog that sends its contents to the log message sink.">
<polygon fill="white" stroke="#666666" points="912.5,-184 735.5,-184 735.5,-165 912.5,-165 912.5,-184"/>
<text text-anchor="middle" x="824" y="-172" font-family="Helvetica,sans-Serif" font-size="10.00">dialogs/LoggingMessageDialog.h</text>
</a>
</g>
</g>
<!-- Node9&#45;&gt;Node14 -->
<g id="edge16" class="edge">
<title>Node9&#45;&gt;Node14</title>
<path fill="none" stroke="#63b8ff" d="M1006.14,-219.98C968.91,-210.89 909.8,-196.46 869.07,-186.51"/>
<polygon fill="#63b8ff" stroke="#63b8ff" points="869.68,-183.05 859.14,-184.08 868.02,-189.85 869.68,-183.05"/>
</g>
<!-- Node17 -->
<g id="node17" class="node">
<title>Node17</title>
<g id="a_node17"><a xlink:href="TextStyle_8h.html" target="_top" xlink:title="This file declares everything needed for the text style system used to style all the elements on the ...">
<polygon fill="white" stroke="#666666" points="1303,-184 1207,-184 1207,-165 1303,-165 1303,-184"/>
<text text-anchor="middle" x="1255" y="-172" font-family="Helvetica,sans-Serif" font-size="10.00">cells/TextStyle.h</text>
</a>
</g>
</g>
<!-- Node9&#45;&gt;Node17 -->
<g id="edge20" class="edge">
<title>Node9&#45;&gt;Node17</title>
<path fill="none" stroke="#63b8ff" d="M1075.38,-219.98C1112.09,-210.89 1170.38,-196.46 1210.55,-186.51"/>
<polygon fill="#63b8ff" stroke="#63b8ff" points="1211.48,-189.88 1220.35,-184.08 1209.8,-183.09 1211.48,-189.88"/>
</g>
<!-- Node24 -->
<g id="node24" class="node">
<title>Node24</title>
<g id="a_node24"><a xlink:title=" ">
<polygon fill="#e0e0e0" stroke="#999999" points="1714,-74 1664,-74 1664,-55 1714,-55 1714,-74"/>
<text text-anchor="middle" x="1689" y="-62" font-family="Helvetica,sans-Serif" font-size="10.00">cstdint</text>
</a>
</g>
</g>
<!-- Node9&#45;&gt;Node24 -->
<g id="edge51" class="edge">
<title>Node9&#45;&gt;Node24</title>
<path fill="none" stroke="#63b8ff" d="M1086.56,-220.64C1088.4,-220.41 1090.22,-220.19 1092,-220 1131.27,-215.75 1774.79,-212.63 1802,-184 1824.66,-160.16 1820.51,-137.18 1802,-110 1792.83,-96.53 1753.56,-83.11 1723.86,-74.58"/>
<polygon fill="#63b8ff" stroke="#63b8ff" points="1724.79,-71.21 1714.22,-71.89 1722.91,-77.95 1724.79,-71.21"/>
</g>
<!-- Node31 -->
<g id="node30" class="node">
<title>Node31</title>
<g id="a_node30"><a xlink:title=" ">
<polygon fill="#e0e0e0" stroke="#999999" points="2106,-74 2042,-74 2042,-55 2106,-55 2106,-74"/>
<text text-anchor="middle" x="2074" y="-62" font-family="Helvetica,sans-Serif" font-size="10.00">algorithm</text>
</a>
</g>
</g>
<!-- Node9&#45;&gt;Node31 -->
<g id="edge58" class="edge">
<title>Node9&#45;&gt;Node31</title>
<path fill="none" stroke="#63b8ff" d="M1086.56,-220.63C1088.4,-220.4 1090.21,-220.19 1092,-220 1441.53,-183.04 1535.47,-242.77 1882,-184 1966.15,-169.73 2010.83,-194.13 2066,-129 2076.32,-116.81 2077.58,-98.29 2076.69,-84.39"/>
<polygon fill="#63b8ff" stroke="#63b8ff" points="2080.13,-83.62 2075.59,-74.04 2073.17,-84.35 2080.13,-83.62"/>
</g>
<!-- Node34 -->
<g id="node33" class="node">
<title>Node34</title>
<g id="a_node33"><a xlink:title=" ">
<polygon fill="#e0e0e0" stroke="#999999" points="678,-74 620,-74 620,-55 678,-55 678,-74"/>
<text text-anchor="middle" x="649" y="-62" font-family="Helvetica,sans-Serif" font-size="10.00">memory</text>
</a>
</g>
</g>
<!-- Node9&#45;&gt;Node34 -->
<g id="edge52" class="edge">
<title>Node9&#45;&gt;Node34</title>
<path fill="none" stroke="#63b8ff" d="M995.34,-221.25C992.52,-220.82 989.72,-220.4 987,-220 871.6,-202.93 825.65,-246.28 727,-184 689.29,-160.19 665.91,-110.79 655.45,-83.9"/>
<polygon fill="#63b8ff" stroke="#63b8ff" points="658.61,-82.36 651.85,-74.2 652.04,-84.79 658.61,-82.36"/>
</g>
<!-- Node35 -->
<g id="node34" class="node">
<title>Node35</title>
<g id="a_node34"><a xlink:title=" ">
<polygon fill="#e0e0e0" stroke="#999999" points="1209,-74 1177,-74 1177,-55 1209,-55 1209,-74"/>
<text text-anchor="middle" x="1193" y="-62" font-family="Helvetica,sans-Serif" font-size="10.00">list</text>
</a>
</g>
</g>
<!-- Node9&#45;&gt;Node35 -->
<g id="edge56" class="edge">
<title>Node9&#45;&gt;Node35</title>
<path fill="none" stroke="#63b8ff" d="M1036.66,-219.96C1026.59,-198.86 1004.42,-143.5 1030,-110 1046.58,-88.28 1125.34,-74.61 1167.01,-68.77"/>
<polygon fill="#63b8ff" stroke="#63b8ff" points="1167.54,-72.23 1176.98,-67.43 1166.6,-65.29 1167.54,-72.23"/>
</g>
<!-- Node37 -->
<g id="node36" class="node">
<title>Node37</title>
<g id="a_node36"><a xlink:title=" ">
<polygon fill="#e0e0e0" stroke="#999999" points="1088.5,-74 995.5,-74 995.5,-55 1088.5,-55 1088.5,-74"/>
<text text-anchor="middle" x="1042" y="-62" font-family="Helvetica,sans-Serif" font-size="10.00">unordered_map</text>
</a>
</g>
</g>
<!-- Node9&#45;&gt;Node37 -->
<g id="edge54" class="edge">
<title>Node9&#45;&gt;Node37</title>
<path fill="none" stroke="#63b8ff" d="M1030.33,-219.86C1021.08,-211.69 1008.24,-198.54 1002,-184 989.01,-153.7 984.3,-140.42 997,-110 1001.86,-98.36 1011.42,-88.2 1020.48,-80.55"/>
<polygon fill="#63b8ff" stroke="#63b8ff" points="1022.8,-83.17 1028.51,-74.25 1018.48,-77.67 1022.8,-83.17"/>
</g>
<!-- Node38 -->
<g id="node37" class="node">
<title>Node38</title>
<g id="a_node37"><a xlink:title=" ">
<polygon fill="#e0e0e0" stroke="#999999" points="434,-184 386,-184 386,-165 434,-165 434,-184"/>
<text text-anchor="middle" x="410" y="-172" font-family="Helvetica,sans-Serif" font-size="10.00">mutex</text>
</a>
</g>
</g>
<!-- Node9&#45;&gt;Node38 -->
<g id="edge53" class="edge">
<title>Node9&#45;&gt;Node38</title>
<path fill="none" stroke="#63b8ff" d="M995.37,-221.02C992.54,-220.65 989.74,-220.31 987,-220 749.48,-193.5 684.03,-221.6 444.12,-183.85"/>
<polygon fill="#63b8ff" stroke="#63b8ff" points="444.47,-180.36 434.04,-182.24 443.37,-187.28 444.47,-180.36"/>
</g>
<!-- Node39 -->
<g id="node38" class="node">
<title>Node39</title>
<g id="a_node38"><a xlink:title=" ">
<polygon fill="#e0e0e0" stroke="#999999" points="1617,-184 1563,-184 1563,-165 1617,-165 1617,-184"/>
<text text-anchor="middle" x="1590" y="-172" font-family="Helvetica,sans-Serif" font-size="10.00">random</text>
</a>
</g>
</g>
<!-- Node9&#45;&gt;Node39 -->
<g id="edge55" class="edge">
<title>Node9&#45;&gt;Node39</title>
<path fill="none" stroke="#63b8ff" d="M1086.83,-221.71C1091.61,-221.09 1096.4,-220.51 1101,-220 1298.51,-198.18 1352.73,-214.74 1553,-183.9"/>
<polygon fill="#63b8ff" stroke="#63b8ff" points="1553.62,-187.35 1562.96,-182.35 1552.54,-180.43 1553.62,-187.35"/>
</g>
<!-- Node40 -->
<g id="node39" class="node">
<title>Node40</title>
<g id="a_node39"><a xlink:title=" ">
<polygon fill="#e0e0e0" stroke="#999999" points="642,-184 592,-184 592,-165 642,-165 642,-184"/>
<text text-anchor="middle" x="617" y="-172" font-family="Helvetica,sans-Serif" font-size="10.00">atomic</text>
</a>
</g>
</g>
<!-- Node9&#45;&gt;Node40 -->
<g id="edge59" class="edge">
<title>Node9&#45;&gt;Node40</title>
<path fill="none" stroke="#63b8ff" d="M995.36,-221.16C992.53,-220.75 989.73,-220.36 987,-220 840.31,-200.49 802.05,-207.79 656,-184 654.73,-183.79 653.44,-183.57 652.14,-183.34"/>
<polygon fill="#63b8ff" stroke="#63b8ff" points="652.59,-179.86 642.1,-181.38 651.25,-186.73 652.59,-179.86"/>
</g>
<!-- Node41 -->
<g id="node40" class="node">
<title>Node41</title>
<g id="a_node40"><a xlink:title=" ">
<polygon fill="#e0e0e0" stroke="#999999" points="1685,-184 1635,-184 1635,-165 1685,-165 1685,-184"/>
<text text-anchor="middle" x="1660" y="-172" font-family="Helvetica,sans-Serif" font-size="10.00">chrono</text>
</a>
</g>
</g>
<!-- Node9&#45;&gt;Node41 -->
<g id="edge60" class="edge">
<title>Node9&#45;&gt;Node41</title>
<path fill="none" stroke="#63b8ff" d="M1086.82,-221.66C1091.6,-221.05 1096.4,-220.48 1101,-220 1330.31,-195.93 1393.21,-219.81 1624.77,-183.9"/>
<polygon fill="#63b8ff" stroke="#63b8ff" points="1625.52,-187.32 1634.85,-182.31 1624.43,-180.41 1625.52,-187.32"/>
</g>
<!-- Node42 -->
<g id="node41" class="node">
<title>Node42</title>
<g id="a_node41"><a xlink:title=" ">
<polygon fill="#e0e0e0" stroke="#999999" points="1792.5,-184 1703.5,-184 1703.5,-165 1792.5,-165 1792.5,-184"/>
<text text-anchor="middle" x="1748" y="-172" font-family="Helvetica,sans-Serif" font-size="10.00">wx/wupdlock.h</text>
</a>
</g>
</g>
<!-- Node9&#45;&gt;Node42 -->
<g id="edge61" class="edge">
<title>Node9&#45;&gt;Node42</title>
<path fill="none" stroke="#63b8ff" d="M1086.82,-221.62C1091.6,-221.02 1096.39,-220.47 1101,-220 1360.37,-193.8 1429.76,-212.08 1693,-183.99"/>
<polygon fill="#63b8ff" stroke="#63b8ff" points="1693.69,-187.43 1703.25,-182.88 1692.94,-180.47 1693.69,-187.43"/>
</g>
<!-- Node14&#45;&gt;Node4 -->
<g id="edge17" class="edge">
<title>Node14&#45;&gt;Node4</title>
<path fill="none" stroke="#63b8ff" d="M798.95,-164.88C774.51,-156.32 736.39,-142.54 704,-129 665.46,-112.89 621.85,-92.05 594.64,-78.73"/>
<polygon fill="#63b8ff" stroke="#63b8ff" points="595.92,-75.46 585.4,-74.18 592.83,-81.74 595.92,-75.46"/>
</g>
<!-- Node15 -->
<g id="node15" class="node">
<title>Node15</title>
<g id="a_node15"><a xlink:title=" ">
<polygon fill="#e0e0e0" stroke="#999999" points="868.5,-129 789.5,-129 789.5,-110 868.5,-110 868.5,-129"/>
<text text-anchor="middle" x="829" y="-117" font-family="Helvetica,sans-Serif" font-size="10.00">wx/msgdlg.h</text>
</a>
</g>
</g>
<!-- Node14&#45;&gt;Node15 -->
<g id="edge18" class="edge">
<title>Node14&#45;&gt;Node15</title>
<path fill="none" stroke="#63b8ff" d="M824.83,-164.75C825.48,-157.8 826.42,-147.85 827.24,-139.13"/>
<polygon fill="#63b8ff" stroke="#63b8ff" points="830.73,-139.37 828.19,-129.09 823.77,-138.72 830.73,-139.37"/>
</g>
<!-- Node16 -->
<g id="node16" class="node">
<title>Node16</title>
<g id="a_node16"><a xlink:title=" ">
<polygon fill="#e0e0e0" stroke="#999999" points="771,-129 713,-129 713,-110 771,-110 771,-129"/>
<text text-anchor="middle" x="742" y="-117" font-family="Helvetica,sans-Serif" font-size="10.00">wx/log.h</text>
</a>
</g>
</g>
<!-- Node14&#45;&gt;Node16 -->
<g id="edge19" class="edge">
<title>Node14&#45;&gt;Node16</title>
<path fill="none" stroke="#63b8ff" d="M810.83,-164.98C798.23,-156.84 779,-144.41 764.06,-134.76"/>
<polygon fill="#63b8ff" stroke="#63b8ff" points="765.71,-131.66 755.41,-129.17 761.91,-137.54 765.71,-131.66"/>
</g>
<!-- Node17&#45;&gt;Node4 -->
<g id="edge21" class="edge">
<title>Node17&#45;&gt;Node4</title>
<path fill="none" stroke="#63b8ff" d="M1207.47,-164.98C1136.06,-152.29 996.78,-128.01 878,-110 762.85,-92.54 730.86,-93.55 612.43,-74.15"/>
<polygon fill="#63b8ff" stroke="#63b8ff" points="612.67,-70.64 602.23,-72.46 611.53,-77.55 612.67,-70.64"/>
</g>
<!-- Node17&#45;&gt;Node10 -->
<g id="edge27" class="edge">
<title>Node17&#45;&gt;Node10</title>
<path fill="none" stroke="#63b8ff" d="M1303.32,-168.96C1318.57,-167.6 1335.48,-166.16 1351,-165 1611.65,-145.47 1677.49,-150.32 1938,-129 1949.84,-128.03 1962.6,-126.81 1974.49,-125.6"/>
<polygon fill="#63b8ff" stroke="#63b8ff" points="1975.08,-129.06 1984.67,-124.55 1974.36,-122.1 1975.08,-129.06"/>
</g>
<!-- Node17&#45;&gt;Node13 -->
<g id="edge24" class="edge">
<title>Node17&#45;&gt;Node13</title>
<path fill="none" stroke="#63b8ff" d="M1227.37,-164.98C1198.49,-156.09 1152.99,-142.07 1120.8,-132.15"/>
<polygon fill="#63b8ff" stroke="#63b8ff" points="1121.44,-128.68 1110.85,-129.08 1119.38,-135.37 1121.44,-128.68"/>
</g>
<!-- Node18 -->
<g id="node18" class="node">
<title>Node18</title>
<g id="a_node18"><a xlink:title=" ">
<polygon fill="#e0e0e0" stroke="#999999" points="1599,-129 1527,-129 1527,-110 1599,-110 1599,-129"/>
<text text-anchor="middle" x="1563" y="-117" font-family="Helvetica,sans-Serif" font-size="10.00">wx/colour.h</text>
</a>
</g>
</g>
<!-- Node17&#45;&gt;Node18 -->
<g id="edge22" class="edge">
<title>Node17&#45;&gt;Node18</title>
<path fill="none" stroke="#63b8ff" d="M1303.12,-165.22C1361.54,-155.17 1459.35,-138.34 1516.86,-128.44"/>
<polygon fill="#63b8ff" stroke="#63b8ff" points="1517.5,-131.88 1526.76,-126.74 1516.31,-124.98 1517.5,-131.88"/>
</g>
<!-- Node19 -->
<g id="node19" class="node">
<title>Node19</title>
<g id="a_node19"><a xlink:title=" ">
<polygon fill="#e0e0e0" stroke="#999999" points="1731,-129 1693,-129 1693,-110 1731,-110 1731,-129"/>
<text text-anchor="middle" x="1712" y="-117" font-family="Helvetica,sans-Serif" font-size="10.00">map</text>
</a>
</g>
</g>
<!-- Node17&#45;&gt;Node19 -->
<g id="edge23" class="edge">
<title>Node17&#45;&gt;Node19</title>
<path fill="none" stroke="#63b8ff" d="M1303.04,-166.73C1307.75,-166.12 1312.47,-165.54 1317,-165 1477.56,-146.02 1519.8,-157.25 1679,-129 1680.28,-128.77 1681.58,-128.52 1682.89,-128.25"/>
<polygon fill="#63b8ff" stroke="#63b8ff" points="1683.96,-131.6 1692.91,-125.94 1682.38,-124.78 1683.96,-131.6"/>
</g>
<!-- Node20 -->
<g id="node20" class="node">
<title>Node20</title>
<g id="a_node20"><a xlink:title=" ">
<polygon fill="#e0e0e0" stroke="#999999" points="1793,-129 1749,-129 1749,-110 1793,-110 1793,-129"/>
<text text-anchor="middle" x="1771" y="-117" font-family="Helvetica,sans-Serif" font-size="10.00">string</text>
</a>
</g>
</g>
<!-- Node17&#45;&gt;Node20 -->
<g id="edge25" class="edge">
<title>Node17&#45;&gt;Node20</title>
<path fill="none" stroke="#63b8ff" d="M1303.03,-166.67C1307.75,-166.07 1312.46,-165.5 1317,-165 1501.32,-144.54 1552.5,-161.48 1738.91,-128.87"/>
<polygon fill="#63b8ff" stroke="#63b8ff" points="1739.53,-132.31 1748.76,-127.12 1738.3,-125.42 1739.53,-132.31"/>
</g>
<!-- Node21 -->
<g id="node21" class="node">
<title>Node21</title>
<g id="a_node21"><a xlink:title=" ">
<polygon fill="#e0e0e0" stroke="#999999" points="1240.5,-129 1183.5,-129 1183.5,-110 1240.5,-110 1240.5,-129"/>
<text text-anchor="middle" x="1212" y="-117" font-family="Helvetica,sans-Serif" font-size="10.00">ostream</text>
</a>
</g>
</g>
<!-- Node17&#45;&gt;Node21 -->
<g id="edge26" class="edge">
<title>Node17&#45;&gt;Node21</title>
<path fill="none" stroke="#63b8ff" d="M1247.9,-164.75C1241.83,-157.26 1232.91,-146.28 1225.49,-137.13"/>
<polygon fill="#63b8ff" stroke="#63b8ff" points="1227.99,-134.65 1218.97,-129.09 1222.55,-139.06 1227.99,-134.65"/>
</g>
<!-- Node22 -->
<g id="node22" class="node">
<title>Node22</title>
<g id="a_node22"><a xlink:title=" ">
<polygon fill="#e0e0e0" stroke="#999999" points="1543,-74 1481,-74 1481,-55 1543,-55 1543,-74"/>
<text text-anchor="middle" x="1512" y="-62" font-family="Helvetica,sans-Serif" font-size="10.00">wx/font.h</text>
</a>
</g>
</g>
<!-- Node17&#45;&gt;Node22 -->
<g id="edge28" class="edge">
<title>Node17&#45;&gt;Node22</title>
<path fill="none" stroke="#63b8ff" d="M1303.1,-166.28C1364.93,-156.66 1466.05,-139.6 1480,-129 1494.57,-117.93 1503,-98.39 1507.51,-83.9"/>
<polygon fill="#63b8ff" stroke="#63b8ff" points="1510.95,-84.6 1510.23,-74.03 1504.2,-82.74 1510.95,-84.6"/>
</g>
<!-- Node23 -->
<g id="node23" class="node">
<title>Node23</title>
<g id="a_node23"><a xlink:title=" ">
<polygon fill="#e0e0e0" stroke="#999999" points="1341,-129 1259,-129 1259,-110 1341,-110 1341,-129"/>
<text text-anchor="middle" x="1300" y="-117" font-family="Helvetica,sans-Serif" font-size="10.00">wx/settings.h</text>
</a>
</g>
</g>
<!-- Node17&#45;&gt;Node23 -->
<g id="edge29" class="edge">
<title>Node17&#45;&gt;Node23</title>
<path fill="none" stroke="#63b8ff" d="M1262.43,-164.75C1268.85,-157.18 1278.31,-146.05 1286.12,-136.84"/>
<polygon fill="#63b8ff" stroke="#63b8ff" points="1288.9,-138.98 1292.71,-129.09 1283.57,-134.45 1288.9,-138.98"/>
</g>
<!-- Node17&#45;&gt;Node24 -->
<g id="edge30" class="edge">
<title>Node17&#45;&gt;Node24</title>
<path fill="none" stroke="#63b8ff" d="M1303.05,-166.79C1307.76,-166.17 1312.47,-165.56 1317,-165 1388.89,-156.08 1578.03,-164.81 1641,-129 1659.15,-118.68 1672.6,-98.41 1680.57,-83.54"/>
<polygon fill="#63b8ff" stroke="#63b8ff" points="1683.86,-84.8 1685.21,-74.3 1677.6,-81.67 1683.86,-84.8"/>
</g>
<!-- Node25 -->
<g id="node25" class="node">
<title>Node25</title>
<g id="a_node25"><a xlink:title=" ">
<polygon fill="#e0e0e0" stroke="#999999" points="1716.5,-19 1651.5,-19 1651.5,0 1716.5,0 1716.5,-19"/>
<text text-anchor="middle" x="1684" y="-7" font-family="Helvetica,sans-Serif" font-size="10.00">functional</text>
</a>
</g>
</g>
<!-- Node17&#45;&gt;Node25 -->
<g id="edge31" class="edge">
<title>Node17&#45;&gt;Node25</title>
<path fill="none" stroke="#63b8ff" d="M1303.06,-166.85C1307.77,-166.22 1312.48,-165.59 1317,-165 1381.61,-156.57 1552.93,-163.83 1608,-129 1640.93,-108.17 1633.92,-87.77 1655,-55 1660.87,-45.87 1667.48,-35.73 1672.9,-27.44"/>
<polygon fill="#63b8ff" stroke="#63b8ff" points="1675.86,-29.3 1678.41,-19.01 1670.01,-25.46 1675.86,-29.3"/>
</g>
<!-- Node26 -->
<g id="node26" class="node">
<title>Node26</title>
<g id="a_node26"><a xlink:href="FontAttribs_8h_source.html" target="_top" xlink:title=" ">
<polygon fill="white" stroke="#666666" points="1928.5,-129 1849.5,-129 1849.5,-110 1928.5,-110 1928.5,-129"/>
<text text-anchor="middle" x="1889" y="-117" font-family="Helvetica,sans-Serif" font-size="10.00">FontAttribs.h</text>
</a>
</g>
</g>
<!-- Node17&#45;&gt;Node26 -->
<g id="edge32" class="edge">
<title>Node17&#45;&gt;Node26</title>
<path fill="none" stroke="#63b8ff" d="M1303.03,-166.62C1307.74,-166.03 1312.46,-165.48 1317,-165 1531.95,-142.31 1586.65,-147.51 1802,-129 1814.05,-127.96 1827.03,-126.75 1839.19,-125.57"/>
<polygon fill="#63b8ff" stroke="#63b8ff" points="1839.56,-129.05 1849.17,-124.59 1838.88,-122.08 1839.56,-129.05"/>
</g>
<!-- Node33 -->
<g id="node32" class="node">
<title>Node33</title>
<g id="a_node32"><a xlink:href="FontVariantCache_8h.html" target="_top" xlink:title="This file implements the wxFont cache system.">
<polygon fill="white" stroke="#666666" points="1470.5,-129 1359.5,-129 1359.5,-110 1470.5,-110 1470.5,-129"/>
<text text-anchor="middle" x="1415" y="-117" font-family="Helvetica,sans-Serif" font-size="10.00">FontVariantCache.h</text>
</a>
</g>
</g>
<!-- Node17&#45;&gt;Node33 -->
<g id="edge42" class="edge">
<title>Node17&#45;&gt;Node33</title>
<path fill="none" stroke="#63b8ff" d="M1280.71,-164.98C1307.45,-156.13 1349.53,-142.19 1379.45,-132.28"/>
<polygon fill="#63b8ff" stroke="#63b8ff" points="1380.7,-135.55 1389.09,-129.08 1378.5,-128.9 1380.7,-135.55"/>
</g>
<!-- Node17&#45;&gt;Node37 -->
<g id="edge50" class="edge">
<title>Node17&#45;&gt;Node37</title>
<path fill="none" stroke="#63b8ff" d="M1239.34,-164.83C1216.7,-152.38 1173.44,-128.84 1136,-110 1114.02,-98.94 1088.81,-87.05 1070.04,-78.34"/>
<polygon fill="#63b8ff" stroke="#63b8ff" points="1071.4,-75.12 1060.85,-74.1 1068.47,-81.47 1071.4,-75.12"/>
</g>
<!-- Node26&#45;&gt;Node22 -->
<g id="edge36" class="edge">
<title>Node26&#45;&gt;Node22</title>
<path fill="none" stroke="#63b8ff" d="M1849.37,-112.93C1777.47,-102.82 1626.25,-81.56 1553.21,-71.29"/>
<polygon fill="#63b8ff" stroke="#63b8ff" points="1553.41,-67.79 1543.02,-69.86 1552.44,-74.72 1553.41,-67.79"/>
</g>
<!-- Node26&#45;&gt;Node24 -->
<g id="edge39" class="edge">
<title>Node26&#45;&gt;Node24</title>
<path fill="none" stroke="#63b8ff" d="M1856.87,-109.98C1820.53,-100.36 1761.56,-84.73 1724.06,-74.79"/>
<polygon fill="#63b8ff" stroke="#63b8ff" points="1724.65,-71.33 1714.09,-72.15 1722.86,-78.09 1724.65,-71.33"/>
</g>
<!-- Node26&#45;&gt;Node25 -->
<g id="edge40" class="edge">
<title>Node26&#45;&gt;Node25</title>
<path fill="none" stroke="#63b8ff" d="M1853.9,-109.93C1827.34,-102.61 1790.53,-90.6 1761,-74 1737.55,-60.82 1714.22,-40.27 1699.5,-26.14"/>
<polygon fill="#63b8ff" stroke="#63b8ff" points="1701.84,-23.54 1692.25,-19.04 1696.94,-28.54 1701.84,-23.54"/>
</g>
<!-- Node27 -->
<g id="node27" class="node">
<title>Node27</title>
<g id="a_node27"><a xlink:href="EnumWrapper_8h_source.html" target="_top" xlink:title=" ">
<polygon fill="#fff0f0" stroke="red" points="1926,-74 1832,-74 1832,-55 1926,-55 1926,-74"/>
<text text-anchor="middle" x="1879" y="-62" font-family="Helvetica,sans-Serif" font-size="10.00">EnumWrapper.h</text>
</a>
</g>
</g>
<!-- Node26&#45;&gt;Node27 -->
<g id="edge33" class="edge">
<title>Node26&#45;&gt;Node27</title>
<path fill="none" stroke="#63b8ff" d="M1887.35,-109.75C1886.04,-102.8 1884.16,-92.85 1882.52,-84.13"/>
<polygon fill="#63b8ff" stroke="#63b8ff" points="1885.91,-83.27 1880.62,-74.09 1879.04,-84.56 1885.91,-83.27"/>
</g>
<!-- Node30 -->
<g id="node29" class="node">
<title>Node30</title>
<g id="a_node29"><a xlink:title=" ">
<polygon fill="#e0e0e0" stroke="#999999" points="2023.5,-74 1944.5,-74 1944.5,-55 2023.5,-55 2023.5,-74"/>
<text text-anchor="middle" x="1984" y="-62" font-family="Helvetica,sans-Serif" font-size="10.00">wx/version.h</text>
</a>
</g>
</g>
<!-- Node26&#45;&gt;Node30 -->
<g id="edge37" class="edge">
<title>Node26&#45;&gt;Node30</title>
<path fill="none" stroke="#63b8ff" d="M1904.26,-109.98C1919.13,-101.69 1941.98,-88.94 1959.42,-79.22"/>
<polygon fill="#63b8ff" stroke="#63b8ff" points="1961.43,-82.1 1968.46,-74.17 1958.02,-75.99 1961.43,-82.1"/>
</g>
<!-- Node26&#45;&gt;Node31 -->
<g id="edge38" class="edge">
<title>Node26&#45;&gt;Node31</title>
<path fill="none" stroke="#63b8ff" d="M1918.72,-109.98C1950.05,-101.01 1999.57,-86.82 2034.24,-76.89"/>
<polygon fill="#63b8ff" stroke="#63b8ff" points="2035.39,-80.2 2044.04,-74.08 2033.47,-73.47 2035.39,-80.2"/>
</g>
<!-- Node32 -->
<g id="node31" class="node">
<title>Node32</title>
<g id="a_node31"><a xlink:title=" ">
<polygon fill="#e0e0e0" stroke="#999999" points="1814,-74 1770,-74 1770,-55 1814,-55 1814,-74"/>
<text text-anchor="middle" x="1792" y="-62" font-family="Helvetica,sans-Serif" font-size="10.00">limits</text>
</a>
</g>
</g>
<!-- Node26&#45;&gt;Node32 -->
<g id="edge41" class="edge">
<title>Node26&#45;&gt;Node32</title>
<path fill="none" stroke="#63b8ff" d="M1873.42,-109.98C1858.23,-101.69 1834.9,-88.94 1817.1,-79.22"/>
<polygon fill="#63b8ff" stroke="#63b8ff" points="1818.32,-75.89 1807.87,-74.17 1814.97,-82.04 1818.32,-75.89"/>
</g>
<!-- Node27&#45;&gt;Node25 -->
<g id="edge35" class="edge">
<title>Node27&#45;&gt;Node25</title>
<path fill="none" stroke="#63b8ff" d="M1847.67,-54.98C1814.51,-45.97 1762,-31.7 1725.44,-21.76"/>
<polygon fill="#63b8ff" stroke="#63b8ff" points="1726.14,-18.33 1715.58,-19.08 1724.31,-25.08 1726.14,-18.33"/>
</g>
<!-- Node28 -->
<g id="node28" class="node">
<title>Node28</title>
<g id="a_node28"><a xlink:title=" ">
<polygon fill="#e0e0e0" stroke="#999999" points="1905.5,-19 1852.5,-19 1852.5,0 1905.5,0 1905.5,-19"/>
<text text-anchor="middle" x="1879" y="-7" font-family="Helvetica,sans-Serif" font-size="10.00">cstddef</text>
</a>
</g>
</g>
<!-- Node27&#45;&gt;Node28 -->
<g id="edge34" class="edge">
<title>Node27&#45;&gt;Node28</title>
<path fill="none" stroke="#63b8ff" d="M1879,-54.75C1879,-47.8 1879,-37.85 1879,-29.13"/>
<polygon fill="#63b8ff" stroke="#63b8ff" points="1882.5,-29.09 1879,-19.09 1875.5,-29.09 1882.5,-29.09"/>
</g>
<!-- Node33&#45;&gt;Node4 -->
<g id="edge43" class="edge">
<title>Node33&#45;&gt;Node4</title>
<path fill="none" stroke="#63b8ff" d="M1359.36,-110.92C1356.2,-110.59 1353.06,-110.27 1350,-110 1025.84,-80.96 939.16,-113.31 612.43,-73.97"/>
<polygon fill="#63b8ff" stroke="#63b8ff" points="612.54,-70.46 602.19,-72.73 611.7,-77.41 612.54,-70.46"/>
</g>
<!-- Node33&#45;&gt;Node22 -->
<g id="edge45" class="edge">
<title>Node33&#45;&gt;Node22</title>
<path fill="none" stroke="#63b8ff" d="M1430.58,-109.98C1445.77,-101.69 1469.1,-88.94 1486.9,-79.22"/>
<polygon fill="#63b8ff" stroke="#63b8ff" points="1489.03,-82.04 1496.13,-74.17 1485.68,-75.89 1489.03,-82.04"/>
</g>
<!-- Node33&#45;&gt;Node25 -->
<g id="edge46" class="edge">
<title>Node33&#45;&gt;Node25</title>
<path fill="none" stroke="#63b8ff" d="M1420.1,-109.94C1428.86,-96.05 1448.13,-68.77 1472,-55 1525.04,-24.41 1596.37,-14.73 1641.27,-11.74"/>
<polygon fill="#63b8ff" stroke="#63b8ff" points="1641.48,-15.23 1651.26,-11.15 1641.07,-8.24 1641.48,-15.23"/>
</g>
<!-- Node33&#45;&gt;Node34 -->
<g id="edge44" class="edge">
<title>Node33&#45;&gt;Node34</title>
<path fill="none" stroke="#63b8ff" d="M1359.36,-110.98C1356.19,-110.63 1353.06,-110.3 1350,-110 1098.59,-85.61 795.09,-71.56 688.39,-67.08"/>
<polygon fill="#63b8ff" stroke="#63b8ff" points="688.24,-63.57 678.1,-66.65 687.95,-70.56 688.24,-63.57"/>
</g>
<!-- Node33&#45;&gt;Node35 -->
<g id="edge47" class="edge">
<title>Node33&#45;&gt;Node35</title>
<path fill="none" stroke="#63b8ff" d="M1379.33,-109.98C1334.53,-99.29 1258.74,-81.2 1219.04,-71.72"/>
<polygon fill="#63b8ff" stroke="#63b8ff" points="1219.62,-68.26 1209.08,-69.34 1217.99,-75.06 1219.62,-68.26"/>
</g>
<!-- Node36 -->
<g id="node35" class="node">
<title>Node36</title>
<g id="a_node35"><a xlink:title=" ">
<polygon fill="#e0e0e0" stroke="#999999" points="1424.5,-74 1379.5,-74 1379.5,-55 1424.5,-55 1424.5,-74"/>
<text text-anchor="middle" x="1402" y="-62" font-family="Helvetica,sans-Serif" font-size="10.00">utility</text>
</a>
</g>
</g>
<!-- Node33&#45;&gt;Node36 -->
<g id="edge48" class="edge">
<title>Node33&#45;&gt;Node36</title>
<path fill="none" stroke="#63b8ff" d="M1412.85,-109.75C1411.13,-102.72 1408.65,-92.62 1406.5,-83.84"/>
<polygon fill="#63b8ff" stroke="#63b8ff" points="1409.89,-82.97 1404.11,-74.09 1403.09,-84.63 1409.89,-82.97"/>
</g>
<!-- Node33&#45;&gt;Node37 -->
<g id="edge49" class="edge">
<title>Node33&#45;&gt;Node37</title>
<path fill="none" stroke="#63b8ff" d="M1359.16,-110.57C1289.04,-100.6 1169.39,-83.6 1098.82,-73.57"/>
<polygon fill="#63b8ff" stroke="#63b8ff" points="1099.16,-70.09 1088.77,-72.15 1098.18,-77.02 1099.16,-70.09"/>
</g>
<!-- Node43&#45;&gt;Node3 -->
<g id="edge68" class="edge">
<title>Node43&#45;&gt;Node3</title>
<path fill="none" stroke="#63b8ff" d="M495.28,-278.74C423.51,-271.71 288.31,-257.37 174,-239 172.53,-238.76 171.04,-238.51 169.53,-238.25"/>
<polygon fill="#63b8ff" stroke="#63b8ff" points="169.97,-234.77 159.5,-236.4 168.7,-241.66 169.97,-234.77"/>
</g>
<!-- Node43&#45;&gt;Node4 -->
<g id="edge74" class="edge">
<title>Node43&#45;&gt;Node4</title>
<path fill="none" stroke="#63b8ff" d="M495.25,-281.41C417.77,-277.39 274.52,-266.4 232,-239 201.42,-219.29 174.86,-193.87 197,-165 236.87,-113.02 434.06,-82.22 523.62,-70.71"/>
<polygon fill="#63b8ff" stroke="#63b8ff" points="524.25,-74.16 533.73,-69.43 523.37,-67.21 524.25,-74.16"/>
</g>
<!-- Node43&#45;&gt;Node5 -->
<g id="edge69" class="edge">
<title>Node43&#45;&gt;Node5</title>
<path fill="none" stroke="#63b8ff" d="M495.22,-283.01C418.78,-281.16 279.39,-273.06 245,-239 233.49,-227.6 231.82,-208.7 232.53,-194.48"/>
<polygon fill="#63b8ff" stroke="#63b8ff" points="236.03,-194.59 233.47,-184.31 229.06,-193.95 236.03,-194.59"/>
</g>
<!-- Node43&#45;&gt;Node7 -->
<g id="edge67" class="edge">
<title>Node43&#45;&gt;Node7</title>
<path fill="none" stroke="#63b8ff" d="M596.57,-281.57C713.99,-276.74 1002.21,-262.79 1096,-239 1116.25,-233.86 1118.65,-224.72 1139,-220 1335.5,-174.43 1845.98,-210.12 2046,-184 2047.47,-183.81 2048.96,-183.59 2050.46,-183.34"/>
<polygon fill="#63b8ff" stroke="#63b8ff" points="2051.22,-186.76 2060.4,-181.47 2049.93,-179.88 2051.22,-186.76"/>
</g>
<!-- Node43&#45;&gt;Node9 -->
<g id="edge75" class="edge">
<title>Node43&#45;&gt;Node9</title>
<path fill="none" stroke="#63b8ff" d="M596.7,-279.31C676.99,-272.46 838.54,-257.87 985.27,-239.16"/>
<polygon fill="#63b8ff" stroke="#63b8ff" points="985.89,-242.61 995.36,-237.87 985,-235.67 985.89,-242.61"/>
</g>
<!-- Node43&#45;&gt;Node34 -->
<g id="edge66" class="edge">
<title>Node43&#45;&gt;Node34</title>
<path fill="none" stroke="#63b8ff" d="M534.08,-274.79C512.67,-259.27 468.3,-227.73 451,-220 389.97,-192.71 270.96,-218.53 311,-165 329.31,-140.52 525.07,-93.61 610.03,-74.22"/>
<polygon fill="#63b8ff" stroke="#63b8ff" points="610.84,-77.63 619.82,-72 609.29,-70.8 610.84,-77.63"/>
</g>
<!-- Node43&#45;&gt;Node37 -->
<g id="edge81" class="edge">
<title>Node43&#45;&gt;Node37</title>
<path fill="none" stroke="#63b8ff" d="M583.28,-274.96C672.45,-254.34 892.86,-202.2 922,-184 958.88,-160.97 954.62,-140.1 986,-110 997.17,-99.28 1010.74,-88.45 1021.73,-80.16"/>
<polygon fill="#63b8ff" stroke="#63b8ff" points="1023.94,-82.87 1029.89,-74.1 1019.77,-77.25 1023.94,-82.87"/>
</g>
<!-- Node43&#45;&gt;Node38 -->
<g id="edge65" class="edge">
<title>Node43&#45;&gt;Node38</title>
<path fill="none" stroke="#63b8ff" d="M544.98,-274.93C542.95,-261.5 537.2,-235.46 522,-220 510.71,-208.52 472.54,-194.77 443.87,-185.62"/>
<polygon fill="#63b8ff" stroke="#63b8ff" points="444.78,-182.23 434.19,-182.59 442.68,-188.91 444.78,-182.23"/>
</g>
<!-- Node43&#45;&gt;Node40 -->
<g id="edge63" class="edge">
<title>Node43&#45;&gt;Node40</title>
<path fill="none" stroke="#63b8ff" d="M592.16,-275C612.6,-268.69 634.75,-257.78 647,-239 656.93,-223.78 645.12,-204.75 633.53,-191.51"/>
<polygon fill="#63b8ff" stroke="#63b8ff" points="635.94,-188.97 626.53,-184.11 630.85,-193.78 635.94,-188.97"/>
</g>
<!-- Node44 -->
<g id="node43" class="node">
<title>Node44</title>
<g id="a_node43"><a xlink:title=" ">
<polygon fill="#e0e0e0" stroke="#999999" points="368,-184 320,-184 320,-165 368,-165 368,-184"/>
<text text-anchor="middle" x="344" y="-172" font-family="Helvetica,sans-Serif" font-size="10.00">thread</text>
</a>
</g>
</g>
<!-- Node43&#45;&gt;Node44 -->
<g id="edge64" class="edge">
<title>Node43&#45;&gt;Node44</title>
<path fill="none" stroke="#63b8ff" d="M539.77,-274.79C529.6,-261.17 508.13,-234.88 484,-220 466.17,-209 413.57,-193.8 378.17,-184.31"/>
<polygon fill="#63b8ff" stroke="#63b8ff" points="378.8,-180.86 368.24,-181.68 377.01,-187.62 378.8,-180.86"/>
</g>
<!-- Node45 -->
<g id="node44" class="node">
<title>Node45</title>
<g id="a_node44"><a xlink:title=" ">
<polygon fill="#e0e0e0" stroke="#999999" points="888,-239 820,-239 820,-220 888,-220 888,-239"/>
<text text-anchor="middle" x="854" y="-227" font-family="Helvetica,sans-Serif" font-size="10.00">wx/arrstr.h</text>
</a>
</g>
</g>
<!-- Node43&#45;&gt;Node45 -->
<g id="edge70" class="edge">
<title>Node43&#45;&gt;Node45</title>
<path fill="none" stroke="#63b8ff" d="M596.34,-274.97C648.73,-266.08 733.14,-251.69 806,-239 807.27,-238.78 808.55,-238.56 809.85,-238.33"/>
<polygon fill="#63b8ff" stroke="#63b8ff" points="810.67,-241.74 819.92,-236.56 809.46,-234.84 810.67,-241.74"/>
</g>
<!-- Node46 -->
<g id="node45" class="node">
<title>Node46</title>
<g id="a_node45"><a xlink:title=" ">
<polygon fill="#e0e0e0" stroke="#999999" points="977.5,-239 906.5,-239 906.5,-220 977.5,-220 977.5,-239"/>
<text text-anchor="middle" x="942" y="-227" font-family="Helvetica,sans-Serif" font-size="10.00">wx/regex.h</text>
</a>
</g>
</g>
<!-- Node43&#45;&gt;Node46 -->
<g id="edge71" class="edge">
<title>Node43&#45;&gt;Node46</title>
<path fill="none" stroke="#63b8ff" d="M596.71,-278.05C663.07,-270.7 783.21,-256.65 895.98,-239.07"/>
<polygon fill="#63b8ff" stroke="#63b8ff" points="896.84,-242.48 906.17,-237.47 895.75,-235.56 896.84,-242.48"/>
</g>
<!-- Node47 -->
<g id="node46" class="node">
<title>Node47</title>
<g id="a_node46"><a xlink:title=" ">
<polygon fill="#e0e0e0" stroke="#999999" points="337.5,-239 254.5,-239 254.5,-220 337.5,-220 337.5,-239"/>
<text text-anchor="middle" x="296" y="-227" font-family="Helvetica,sans-Serif" font-size="10.00">wx/xml/xml.h</text>
</a>
</g>
</g>
<!-- Node43&#45;&gt;Node47 -->
<g id="edge72" class="edge">
<title>Node43&#45;&gt;Node47</title>
<path fill="none" stroke="#63b8ff" d="M505.83,-274.98C462.5,-265.8 393.41,-251.15 346.44,-241.19"/>
<polygon fill="#63b8ff" stroke="#63b8ff" points="346.99,-237.73 336.48,-239.08 345.54,-244.58 346.99,-237.73"/>
</g>
<!-- Node48 -->
<g id="node47" class="node">
<title>Node48</title>
<g id="a_node47"><a xlink:title=" ">
<polygon fill="#e0e0e0" stroke="#999999" points="442,-239 356,-239 356,-220 442,-220 442,-239"/>
<text text-anchor="middle" x="399" y="-227" font-family="Helvetica,sans-Serif" font-size="10.00">wx/filename.h</text>
</a>
</g>
</g>
<!-- Node43&#45;&gt;Node48 -->
<g id="edge73" class="edge">
<title>Node43&#45;&gt;Node48</title>
<path fill="none" stroke="#63b8ff" d="M522.38,-274.98C498.1,-266.23 460.05,-252.51 432.63,-242.62"/>
<polygon fill="#63b8ff" stroke="#63b8ff" points="433.64,-239.27 423.05,-239.17 431.27,-245.85 433.64,-239.27"/>
</g>
<!-- Node49 -->
<g id="node48" class="node">
<title>Node49</title>
<g id="a_node48"><a xlink:href="Compat_8h.html" target="_top" xlink:title="Small C++ standard&#45;library compatibility shims.">
<polygon fill="white" stroke="#666666" points="638,-239 574,-239 574,-220 638,-220 638,-239"/>
<text text-anchor="middle" x="606" y="-227" font-family="Helvetica,sans-Serif" font-size="10.00">Compat.h</text>
</a>
</g>
</g>
<!-- Node43&#45;&gt;Node49 -->
<g id="edge76" class="edge">
<title>Node43&#45;&gt;Node49</title>
<path fill="none" stroke="#63b8ff" d="M555.64,-274.98C564.51,-267.15 577.87,-255.34 588.61,-245.86"/>
<polygon fill="#63b8ff" stroke="#63b8ff" points="591.01,-248.41 596.18,-239.17 586.37,-243.17 591.01,-248.41"/>
</g>
<!-- Node49&#45;&gt;Node31 -->
<g id="edge79" class="edge">
<title>Node49&#45;&gt;Node31</title>
<path fill="none" stroke="#63b8ff" d="M638.3,-227.2C767.91,-221.9 1246.39,-201.32 1312,-184 1330.64,-179.08 1332.35,-169.91 1351,-165 1603.77,-98.49 1685.57,-196.81 1938,-129 1956.24,-124.1 1958.96,-118.13 1976,-110 1999.09,-98.99 2025.5,-87.03 2045.08,-78.29"/>
<polygon fill="#63b8ff" stroke="#63b8ff" points="2046.67,-81.42 2054.38,-74.15 2043.82,-75.02 2046.67,-81.42"/>
</g>
<!-- Node49&#45;&gt;Node44 -->
<g id="edge77" class="edge">
<title>Node49&#45;&gt;Node44</title>
<path fill="none" stroke="#63b8ff" d="M573.64,-222.84C531.07,-215.27 453.74,-201.03 378.26,-184.17"/>
<polygon fill="#63b8ff" stroke="#63b8ff" points="378.63,-180.67 368.11,-181.89 377.1,-187.5 378.63,-180.67"/>
</g>
<!-- Node50 -->
<g id="node49" class="node">
<title>Node50</title>
<g id="a_node49"><a xlink:title=" ">
<polygon fill="#e0e0e0" stroke="#999999" points="505.5,-184 452.5,-184 452.5,-165 505.5,-165 505.5,-184"/>
<text text-anchor="middle" x="479" y="-172" font-family="Helvetica,sans-Serif" font-size="10.00">version</text>
</a>
</g>
</g>
<!-- Node49&#45;&gt;Node50 -->
<g id="edge78" class="edge">
<title>Node49&#45;&gt;Node50</title>
<path fill="none" stroke="#63b8ff" d="M585.6,-219.98C564.98,-211.38 532.89,-197.99 509.31,-188.15"/>
<polygon fill="#63b8ff" stroke="#63b8ff" points="510.35,-184.79 499.78,-184.17 507.66,-191.25 510.35,-184.79"/>
</g>
<!-- Node51 -->
<g id="node50" class="node">
<title>Node51</title>
<g id="a_node50"><a xlink:title=" ">
<polygon fill="#e0e0e0" stroke="#999999" points="574,-184 524,-184 524,-165 574,-165 574,-184"/>
<text text-anchor="middle" x="549" y="-172" font-family="Helvetica,sans-Serif" font-size="10.00">ranges</text>
</a>
</g>
</g>
<!-- Node49&#45;&gt;Node51 -->
<g id="edge80" class="edge">
<title>Node49&#45;&gt;Node51</title>
<path fill="none" stroke="#63b8ff" d="M596.84,-219.98C588.5,-212.23 575.97,-200.58 565.82,-191.14"/>
<polygon fill="#63b8ff" stroke="#63b8ff" points="568.03,-188.42 558.32,-184.17 563.26,-193.54 568.03,-188.42"/>
</g>
</g>
</svg>
