<?xml version="1.0" encoding="UTF-8" standalone="no"?>
<!DOCTYPE svg PUBLIC "-//W3C//DTD SVG 1.1//EN"
 "http://www.w3.org/Graphics/SVG/1.1/DTD/svg11.dtd">
<!-- Generated by graphviz version 2.43.0 (0)
 -->
<!-- Title: src/History.h Pages: 1 -->
<svg width="1738pt" height="420pt"
 viewBox="0.00 0.00 1737.50 420.00" xmlns="http://www.w3.org/2000/svg" xmlns:xlink="http://www.w3.org/1999/xlink">
<g id="graph0" class="graph" transform="scale(1 1) rotate(0) translate(4 416)">
<title>src/History.h</title>
<polygon fill="white" stroke="transparent" points="-4,4 -4,-416 1733.5,-416 1733.5,4 -4,4"/>
<!-- Node1 -->
<g id="node1" class="node">
<title>Node1</title>
<g id="a_node1"><a xlink:title="This file contains the definition of the class History that handles the recently issued commands for ...">
<polygon fill="#bfbfbf" stroke="black" points="310.5,-392.5 310.5,-411.5 387.5,-411.5 387.5,-392.5 310.5,-392.5"/>
<text text-anchor="middle" x="349" y="-399.5" font-family="Helvetica,sans-Serif" font-size="10.00">src/History.h</text>
</a>
</g>
</g>
<!-- Node2 -->
<g id="node2" class="node">
<title>Node2</title>
<g id="a_node2"><a xlink:href="precomp_8h_source.html" target="_top" xlink:title=" ">
<polygon fill="white" stroke="black" points="290,-56.5 290,-75.5 358,-75.5 358,-56.5 290,-56.5"/>
<text text-anchor="middle" x="324" y="-63.5" font-family="Helvetica,sans-Serif" font-size="10.00">precomp.h</text>
</a>
</g>
</g>
<!-- Node1&#45;&gt;Node2 -->
<g id="edge1" class="edge">
<title>Node1&#45;&gt;Node2</title>
<path fill="none" stroke="midnightblue" d="M310.32,-397.1C219.45,-386.87 0,-355.48 0,-291 0,-291 0,-291 0,-177 0,-118.57 191.3,-84.99 279.91,-72.57"/>
<polygon fill="midnightblue" stroke="midnightblue" points="280.51,-76.02 289.94,-71.19 279.56,-69.08 280.51,-76.02"/>
</g>
<!-- Node4 -->
<g id="node4" class="node">
<title>Node4</title>
<g id="a_node4"><a xlink:href="RegexCtrl_8h_source.html" target="_top" xlink:title=" ">
<polygon fill="white" stroke="black" points="261,-336.5 261,-355.5 335,-355.5 335,-336.5 261,-336.5"/>
<text text-anchor="middle" x="298" y="-343.5" font-family="Helvetica,sans-Serif" font-size="10.00">RegexCtrl.h</text>
</a>
</g>
</g>
<!-- Node1&#45;&gt;Node4 -->
<g id="edge3" class="edge">
<title>Node1&#45;&gt;Node4</title>
<path fill="none" stroke="midnightblue" d="M340.58,-392.08C333.15,-384.22 322.15,-372.57 313.19,-363.08"/>
<polygon fill="midnightblue" stroke="midnightblue" points="315.68,-360.62 306.26,-355.75 310.59,-365.42 315.68,-360.62"/>
</g>
<!-- Node5 -->
<g id="node5" class="node">
<title>Node5</title>
<g id="a_node5"><a xlink:title=" ">
<polygon fill="white" stroke="#bfbfbf" points="152.5,-168.5 152.5,-187.5 209.5,-187.5 209.5,-168.5 152.5,-168.5"/>
<text text-anchor="middle" x="181" y="-175.5" font-family="Helvetica,sans-Serif" font-size="10.00">wx/wx.h</text>
</a>
</g>
</g>
<!-- Node1&#45;&gt;Node5 -->
<g id="edge66" class="edge">
<title>Node1&#45;&gt;Node5</title>
<path fill="none" stroke="midnightblue" d="M310.26,-400.78C245.21,-398.06 115.43,-382.03 57,-300 24.91,-254.94 102.93,-212.17 149.41,-191.66"/>
<polygon fill="midnightblue" stroke="midnightblue" points="150.99,-194.79 158.8,-187.63 148.23,-188.36 150.99,-194.79"/>
</g>
<!-- Node6 -->
<g id="node6" class="node">
<title>Node6</title>
<g id="a_node6"><a xlink:title=" ">
<polygon fill="white" stroke="#bfbfbf" points="364.5,-280.5 364.5,-299.5 435.5,-299.5 435.5,-280.5 364.5,-280.5"/>
<text text-anchor="middle" x="400" y="-287.5" font-family="Helvetica,sans-Serif" font-size="10.00">wx/regex.h</text>
</a>
</g>
</g>
<!-- Node1&#45;&gt;Node6 -->
<g id="edge67" class="edge">
<title>Node1&#45;&gt;Node6</title>
<path fill="none" stroke="midnightblue" d="M353,-392.37C361.31,-374.46 380.56,-332.92 391.68,-308.95"/>
<polygon fill="midnightblue" stroke="midnightblue" points="394.99,-310.14 396.02,-299.59 388.64,-307.19 394.99,-310.14"/>
</g>
<!-- Node41 -->
<g id="node41" class="node">
<title>Node41</title>
<g id="a_node41"><a xlink:title=" ">
<polygon fill="white" stroke="#bfbfbf" points="1682.5,-168.5 1682.5,-187.5 1729.5,-187.5 1729.5,-168.5 1682.5,-168.5"/>
<text text-anchor="middle" x="1706" y="-175.5" font-family="Helvetica,sans-Serif" font-size="10.00">vector</text>
</a>
</g>
</g>
<!-- Node1&#45;&gt;Node41 -->
<g id="edge68" class="edge">
<title>Node1&#45;&gt;Node41</title>
<path fill="none" stroke="midnightblue" d="M387.79,-394.65C586.33,-362.17 1486.77,-214.86 1672.45,-184.49"/>
<polygon fill="midnightblue" stroke="midnightblue" points="1673.14,-187.92 1682.44,-182.85 1672.01,-181.01 1673.14,-187.92"/>
</g>
<!-- Node45 -->
<g id="node45" class="node">
<title>Node45</title>
<g id="a_node45"><a xlink:title=" ">
<polygon fill="white" stroke="#bfbfbf" points="936,-336.5 936,-355.5 1004,-355.5 1004,-336.5 936,-336.5"/>
<text text-anchor="middle" x="970" y="-343.5" font-family="Helvetica,sans-Serif" font-size="10.00">wx/arrstr.h</text>
</a>
</g>
</g>
<!-- Node1&#45;&gt;Node45 -->
<g id="edge69" class="edge">
<title>Node1&#45;&gt;Node45</title>
<path fill="none" stroke="midnightblue" d="M387.71,-399.39C480.34,-395.23 721.94,-382.53 922,-356 923.28,-355.83 924.57,-355.65 925.88,-355.46"/>
<polygon fill="midnightblue" stroke="midnightblue" points="926.66,-358.88 935.98,-353.84 925.56,-351.97 926.66,-358.88"/>
</g>
<!-- Node3 -->
<g id="node3" class="node">
<title>Node3</title>
<g id="a_node3"><a xlink:href="Version_8h_source.html" target="_top" xlink:title=" ">
<polygon fill="white" stroke="black" points="293,-0.5 293,-19.5 355,-19.5 355,-0.5 293,-0.5"/>
<text text-anchor="middle" x="324" y="-7.5" font-family="Helvetica,sans-Serif" font-size="10.00">Version.h</text>
</a>
</g>
</g>
<!-- Node2&#45;&gt;Node3 -->
<g id="edge2" class="edge">
<title>Node2&#45;&gt;Node3</title>
<path fill="none" stroke="midnightblue" d="M324,-56.08C324,-49.01 324,-38.86 324,-29.99"/>
<polygon fill="midnightblue" stroke="midnightblue" points="327.5,-29.75 324,-19.75 320.5,-29.75 327.5,-29.75"/>
</g>
<!-- Node4&#45;&gt;Node2 -->
<g id="edge4" class="edge">
<title>Node4&#45;&gt;Node2</title>
<path fill="none" stroke="midnightblue" d="M298.24,-336.5C299.17,-305.99 303.14,-199.21 315,-112 316.2,-103.21 318.05,-93.55 319.77,-85.44"/>
<polygon fill="midnightblue" stroke="midnightblue" points="323.21,-86.09 321.95,-75.57 316.38,-84.58 323.21,-86.09"/>
</g>
<!-- Node4&#45;&gt;Node5 -->
<g id="edge5" class="edge">
<title>Node4&#45;&gt;Node5</title>
<path fill="none" stroke="midnightblue" d="M260.9,-339.42C236.93,-333.75 207.27,-322.43 191,-300 169.01,-269.68 172.73,-223.15 177.06,-197.52"/>
<polygon fill="midnightblue" stroke="midnightblue" points="180.51,-198.12 178.94,-187.64 173.64,-196.81 180.51,-198.12"/>
</g>
<!-- Node4&#45;&gt;Node6 -->
<g id="edge6" class="edge">
<title>Node4&#45;&gt;Node6</title>
<path fill="none" stroke="midnightblue" d="M314.39,-336.32C330.67,-327.7 355.87,-314.36 374.72,-304.39"/>
<polygon fill="midnightblue" stroke="midnightblue" points="376.45,-307.43 383.65,-299.65 373.18,-301.24 376.45,-307.43"/>
</g>
<!-- Node7 -->
<g id="node7" class="node">
<title>Node7</title>
<g id="a_node7"><a xlink:title=" ">
<polygon fill="white" stroke="#bfbfbf" points="66,-280.5 66,-299.5 144,-299.5 144,-280.5 66,-280.5"/>
<text text-anchor="middle" x="105" y="-287.5" font-family="Helvetica,sans-Serif" font-size="10.00">wx/textctrl.h</text>
</a>
</g>
</g>
<!-- Node4&#45;&gt;Node7 -->
<g id="edge7" class="edge">
<title>Node4&#45;&gt;Node7</title>
<path fill="none" stroke="midnightblue" d="M267.42,-336.44C234.39,-327.2 181.61,-312.44 145.23,-302.26"/>
<polygon fill="midnightblue" stroke="midnightblue" points="146.01,-298.84 135.44,-299.52 144.13,-305.58 146.01,-298.84"/>
</g>
<!-- Node8 -->
<g id="node8" class="node">
<title>Node8</title>
<g id="a_node8"><a xlink:href="Configuration_8h_source.html" target="_top" xlink:title=" ">
<polygon fill="white" stroke="black" points="788.5,-224.5 788.5,-243.5 879.5,-243.5 879.5,-224.5 788.5,-224.5"/>
<text text-anchor="middle" x="834" y="-231.5" font-family="Helvetica,sans-Serif" font-size="10.00">Configuration.h</text>
</a>
</g>
</g>
<!-- Node4&#45;&gt;Node8 -->
<g id="edge8" class="edge">
<title>Node4&#45;&gt;Node8</title>
<path fill="none" stroke="midnightblue" d="M302.73,-336.39C311.24,-321.87 330.62,-292.83 356,-280 428.6,-243.3 668.41,-236.4 778.21,-235.2"/>
<polygon fill="midnightblue" stroke="midnightblue" points="778.46,-238.7 788.42,-235.1 778.39,-231.7 778.46,-238.7"/>
</g>
<!-- Node44 -->
<g id="node44" class="node">
<title>Node44</title>
<g id="a_node44"><a xlink:href="BTextCtrl_8h_source.html" target="_top" xlink:title=" ">
<polygon fill="white" stroke="black" points="200,-280.5 200,-299.5 270,-299.5 270,-280.5 200,-280.5"/>
<text text-anchor="middle" x="235" y="-287.5" font-family="Helvetica,sans-Serif" font-size="10.00">BTextCtrl.h</text>
</a>
</g>
</g>
<!-- Node4&#45;&gt;Node44 -->
<g id="edge62" class="edge">
<title>Node4&#45;&gt;Node44</title>
<path fill="none" stroke="midnightblue" d="M287.88,-336.32C278.47,-328.26 264.26,-316.08 252.93,-306.37"/>
<polygon fill="midnightblue" stroke="midnightblue" points="255.18,-303.68 245.31,-299.83 250.62,-309 255.18,-303.68"/>
</g>
<!-- Node8&#45;&gt;Node2 -->
<g id="edge9" class="edge">
<title>Node8&#45;&gt;Node2</title>
<path fill="none" stroke="midnightblue" d="M788.49,-231.94C673.15,-228.82 376.17,-217.93 344,-188 315.9,-161.86 317.46,-112.54 320.84,-85.65"/>
<polygon fill="midnightblue" stroke="midnightblue" points="324.32,-86.03 322.32,-75.63 317.39,-85.01 324.32,-86.03"/>
</g>
<!-- Node8&#45;&gt;Node5 -->
<g id="edge10" class="edge">
<title>Node8&#45;&gt;Node5</title>
<path fill="none" stroke="midnightblue" d="M788.34,-229.22C666.11,-219.12 333.03,-191.57 219.5,-182.18"/>
<polygon fill="midnightblue" stroke="midnightblue" points="219.78,-178.7 209.52,-181.36 219.2,-185.67 219.78,-178.7"/>
</g>
<!-- Node9 -->
<g id="node9" class="node">
<title>Node9</title>
<g id="a_node9"><a xlink:title=" ">
<polygon fill="white" stroke="#bfbfbf" points="1516,-112.5 1516,-131.5 1588,-131.5 1588,-112.5 1516,-112.5"/>
<text text-anchor="middle" x="1552" y="-119.5" font-family="Helvetica,sans-Serif" font-size="10.00">wx/config.h</text>
</a>
</g>
</g>
<!-- Node8&#45;&gt;Node9 -->
<g id="edge11" class="edge">
<title>Node8&#45;&gt;Node9</title>
<path fill="none" stroke="midnightblue" d="M879.82,-225.78C884.6,-225.13 889.39,-224.52 894,-224 1100.4,-200.58 1156.49,-229.63 1360,-188 1419.25,-175.88 1485.47,-150.74 1522.6,-135.53"/>
<polygon fill="midnightblue" stroke="midnightblue" points="1524.38,-138.58 1532.28,-131.52 1521.7,-132.11 1524.38,-138.58"/>
</g>
<!-- Node10 -->
<g id="node10" class="node">
<title>Node10</title>
<g id="a_node10"><a xlink:title=" ">
<polygon fill="white" stroke="#bfbfbf" points="586.5,-168.5 586.5,-187.5 663.5,-187.5 663.5,-168.5 586.5,-168.5"/>
<text text-anchor="middle" x="625" y="-175.5" font-family="Helvetica,sans-Serif" font-size="10.00">wx/display.h</text>
</a>
</g>
</g>
<!-- Node8&#45;&gt;Node10 -->
<g id="edge12" class="edge">
<title>Node8&#45;&gt;Node10</title>
<path fill="none" stroke="midnightblue" d="M800.88,-224.44C764.88,-215.14 707.23,-200.25 667.81,-190.06"/>
<polygon fill="midnightblue" stroke="midnightblue" points="668.52,-186.63 657.96,-187.52 666.77,-193.41 668.52,-186.63"/>
</g>
<!-- Node11 -->
<g id="node11" class="node">
<title>Node11</title>
<g id="a_node11"><a xlink:title=" ">
<polygon fill="white" stroke="#bfbfbf" points="682,-168.5 682,-187.5 772,-187.5 772,-168.5 682,-168.5"/>
<text text-anchor="middle" x="727" y="-175.5" font-family="Helvetica,sans-Serif" font-size="10.00">wx/fontenum.h</text>
</a>
</g>
</g>
<!-- Node8&#45;&gt;Node11 -->
<g id="edge13" class="edge">
<title>Node8&#45;&gt;Node11</title>
<path fill="none" stroke="midnightblue" d="M816.81,-224.32C799.65,-215.66 773.05,-202.24 753.25,-192.25"/>
<polygon fill="midnightblue" stroke="midnightblue" points="754.65,-189.04 744.15,-187.65 751.5,-195.28 754.65,-189.04"/>
</g>
<!-- Node12 -->
<g id="node12" class="node">
<title>Node12</title>
<g id="a_node12"><a xlink:title=" ">
<polygon fill="white" stroke="#bfbfbf" points="790,-168.5 790,-187.5 878,-187.5 878,-168.5 790,-168.5"/>
<text text-anchor="middle" x="834" y="-175.5" font-family="Helvetica,sans-Serif" font-size="10.00">wx/hashmap.h</text>
</a>
</g>
</g>
<!-- Node8&#45;&gt;Node12 -->
<g id="edge14" class="edge">
<title>Node8&#45;&gt;Node12</title>
<path fill="none" stroke="midnightblue" d="M834,-224.08C834,-217.01 834,-206.86 834,-197.99"/>
<polygon fill="midnightblue" stroke="midnightblue" points="837.5,-197.75 834,-187.75 830.5,-197.75 837.5,-197.75"/>
</g>
<!-- Node13 -->
<g id="node13" class="node">
<title>Node13</title>
<g id="a_node13"><a xlink:href="LoggingMessageDialog_8h.html" target="_top" xlink:title="This file declares a message dialog that sends its contents to the log message sink.">
<polygon fill="white" stroke="black" points="352.5,-168.5 352.5,-187.5 491.5,-187.5 491.5,-168.5 352.5,-168.5"/>
<text text-anchor="middle" x="422" y="-175.5" font-family="Helvetica,sans-Serif" font-size="10.00">LoggingMessageDialog.h</text>
</a>
</g>
</g>
<!-- Node8&#45;&gt;Node13 -->
<g id="edge15" class="edge">
<title>Node8&#45;&gt;Node13</title>
<path fill="none" stroke="midnightblue" d="M788.33,-227.01C717.97,-217.79 582.29,-200.01 497.26,-188.86"/>
<polygon fill="midnightblue" stroke="midnightblue" points="497.52,-185.37 487.15,-187.54 496.61,-192.31 497.52,-185.37"/>
</g>
<!-- Node16 -->
<g id="node16" class="node">
<title>Node16</title>
<g id="a_node16"><a xlink:href="TextStyle_8h.html" target="_top" xlink:title="This file declares everything needed for the text style system used to style all the elements on the ...">
<polygon fill="white" stroke="black" points="1246.5,-168.5 1246.5,-187.5 1317.5,-187.5 1317.5,-168.5 1246.5,-168.5"/>
<text text-anchor="middle" x="1282" y="-175.5" font-family="Helvetica,sans-Serif" font-size="10.00">TextStyle.h</text>
</a>
</g>
</g>
<!-- Node8&#45;&gt;Node16 -->
<g id="edge19" class="edge">
<title>Node8&#45;&gt;Node16</title>
<path fill="none" stroke="midnightblue" d="M879.51,-225.96C884.4,-225.27 889.3,-224.6 894,-224 1042.79,-205.04 1083.72,-210.79 1236,-188.02"/>
<polygon fill="midnightblue" stroke="midnightblue" points="1236.83,-191.43 1246.19,-186.47 1235.78,-184.51 1236.83,-191.43"/>
</g>
<!-- Node23 -->
<g id="node23" class="node">
<title>Node23</title>
<g id="a_node23"><a xlink:title=" ">
<polygon fill="white" stroke="#bfbfbf" points="1566,-56.5 1566,-75.5 1616,-75.5 1616,-56.5 1566,-56.5"/>
<text text-anchor="middle" x="1591" y="-63.5" font-family="Helvetica,sans-Serif" font-size="10.00">cstdint</text>
</a>
</g>
</g>
<!-- Node8&#45;&gt;Node23 -->
<g id="edge52" class="edge">
<title>Node8&#45;&gt;Node23</title>
<path fill="none" stroke="midnightblue" d="M879.81,-225.68C884.59,-225.05 889.39,-224.47 894,-224 1038.13,-209.24 1410.03,-240.68 1545,-188 1581.47,-173.77 1596.29,-167.41 1613,-132 1620.44,-116.24 1612.2,-97.28 1603.76,-83.91"/>
<polygon fill="midnightblue" stroke="midnightblue" points="1606.64,-81.91 1598.09,-75.66 1600.87,-85.88 1606.64,-81.91"/>
</g>
<!-- Node32 -->
<g id="node32" class="node">
<title>Node32</title>
<g id="a_node32"><a xlink:title=" ">
<polygon fill="white" stroke="#bfbfbf" points="1446,-56.5 1446,-75.5 1510,-75.5 1510,-56.5 1446,-56.5"/>
<text text-anchor="middle" x="1478" y="-63.5" font-family="Helvetica,sans-Serif" font-size="10.00">algorithm</text>
</a>
</g>
</g>
<!-- Node8&#45;&gt;Node32 -->
<g id="edge59" class="edge">
<title>Node8&#45;&gt;Node32</title>
<path fill="none" stroke="midnightblue" d="M879.81,-225.75C884.6,-225.1 889.39,-224.51 894,-224 1050.61,-206.8 1502.74,-258.24 1597,-132 1620.41,-100.65 1563.28,-82.61 1520.31,-73.81"/>
<polygon fill="midnightblue" stroke="midnightblue" points="1520.78,-70.34 1510.3,-71.87 1519.45,-77.21 1520.78,-70.34"/>
</g>
<!-- Node35 -->
<g id="node35" class="node">
<title>Node35</title>
<g id="a_node35"><a xlink:title=" ">
<polygon fill="white" stroke="#bfbfbf" points="588,-56.5 588,-75.5 646,-75.5 646,-56.5 588,-56.5"/>
<text text-anchor="middle" x="617" y="-63.5" font-family="Helvetica,sans-Serif" font-size="10.00">memory</text>
</a>
</g>
</g>
<!-- Node8&#45;&gt;Node35 -->
<g id="edge53" class="edge">
<title>Node8&#45;&gt;Node35</title>
<path fill="none" stroke="midnightblue" d="M788.26,-232.03C720.22,-229.51 597.4,-220.47 570,-188 543.36,-156.43 578.96,-108.05 601.33,-83.1"/>
<polygon fill="midnightblue" stroke="midnightblue" points="604.06,-85.31 608.3,-75.6 598.93,-80.54 604.06,-85.31"/>
</g>
<!-- Node36 -->
<g id="node36" class="node">
<title>Node36</title>
<g id="a_node36"><a xlink:title=" ">
<polygon fill="white" stroke="#bfbfbf" points="681,-56.5 681,-75.5 713,-75.5 713,-56.5 681,-56.5"/>
<text text-anchor="middle" x="697" y="-63.5" font-family="Helvetica,sans-Serif" font-size="10.00">list</text>
</a>
</g>
</g>
<!-- Node8&#45;&gt;Node36 -->
<g id="edge57" class="edge">
<title>Node8&#45;&gt;Node36</title>
<path fill="none" stroke="midnightblue" d="M788.27,-231.75C722.01,-228.87 604.33,-219.36 578,-188 572.28,-181.19 574.07,-175.97 578,-168 589.65,-144.41 604.77,-148.83 625,-132 644.48,-115.79 665.93,-96.18 680.31,-82.77"/>
<polygon fill="midnightblue" stroke="midnightblue" points="682.99,-85.05 687.89,-75.66 678.2,-79.95 682.99,-85.05"/>
</g>
<!-- Node38 -->
<g id="node38" class="node">
<title>Node38</title>
<g id="a_node38"><a xlink:title=" ">
<polygon fill="white" stroke="#bfbfbf" points="803.5,-56.5 803.5,-75.5 896.5,-75.5 896.5,-56.5 803.5,-56.5"/>
<text text-anchor="middle" x="850" y="-63.5" font-family="Helvetica,sans-Serif" font-size="10.00">unordered_map</text>
</a>
</g>
</g>
<!-- Node8&#45;&gt;Node38 -->
<g id="edge55" class="edge">
<title>Node8&#45;&gt;Node38</title>
<path fill="none" stroke="midnightblue" d="M879.82,-225.81C884.6,-225.15 889.4,-224.54 894,-224 941.95,-218.42 1294.31,-223.52 1327,-188 1370.59,-140.64 1344.73,-148.69 1245,-112 1105.86,-60.82 1058.23,-94.51 906.85,-76"/>
<polygon fill="midnightblue" stroke="midnightblue" points="907.09,-72.5 896.72,-74.7 906.2,-79.44 907.09,-72.5"/>
</g>
<!-- Node39 -->
<g id="node39" class="node">
<title>Node39</title>
<g id="a_node39"><a xlink:title=" ">
<polygon fill="white" stroke="#bfbfbf" points="896,-168.5 896,-187.5 944,-187.5 944,-168.5 896,-168.5"/>
<text text-anchor="middle" x="920" y="-175.5" font-family="Helvetica,sans-Serif" font-size="10.00">mutex</text>
</a>
</g>
</g>
<!-- Node8&#45;&gt;Node39 -->
<g id="edge54" class="edge">
<title>Node8&#45;&gt;Node39</title>
<path fill="none" stroke="midnightblue" d="M847.82,-224.32C861.23,-215.9 881.82,-202.97 897.59,-193.07"/>
<polygon fill="midnightblue" stroke="midnightblue" points="899.61,-195.94 906.22,-187.65 895.89,-190.01 899.61,-195.94"/>
</g>
<!-- Node40 -->
<g id="node40" class="node">
<title>Node40</title>
<g id="a_node40"><a xlink:title=" ">
<polygon fill="white" stroke="#bfbfbf" points="962,-168.5 962,-187.5 1016,-187.5 1016,-168.5 962,-168.5"/>
<text text-anchor="middle" x="989" y="-175.5" font-family="Helvetica,sans-Serif" font-size="10.00">random</text>
</a>
</g>
</g>
<!-- Node8&#45;&gt;Node40 -->
<g id="edge56" class="edge">
<title>Node8&#45;&gt;Node40</title>
<path fill="none" stroke="midnightblue" d="M858.56,-224.44C884.52,-215.4 925.67,-201.06 954.8,-190.92"/>
<polygon fill="midnightblue" stroke="midnightblue" points="956.26,-194.11 964.55,-187.52 953.96,-187.5 956.26,-194.11"/>
</g>
<!-- Node8&#45;&gt;Node41 -->
<g id="edge58" class="edge">
<title>Node8&#45;&gt;Node41</title>
<path fill="none" stroke="midnightblue" d="M879.8,-225.64C884.59,-225.01 889.39,-224.45 894,-224 1236.73,-190.41 1326.97,-235.89 1668,-188 1669.47,-187.79 1670.96,-187.56 1672.47,-187.3"/>
<polygon fill="midnightblue" stroke="midnightblue" points="1673.3,-190.7 1682.41,-185.3 1671.92,-183.84 1673.3,-190.7"/>
</g>
<!-- Node42 -->
<g id="node42" class="node">
<title>Node42</title>
<g id="a_node42"><a xlink:title=" ">
<polygon fill="white" stroke="#bfbfbf" points="1034.5,-168.5 1034.5,-187.5 1123.5,-187.5 1123.5,-168.5 1034.5,-168.5"/>
<text text-anchor="middle" x="1079" y="-175.5" font-family="Helvetica,sans-Serif" font-size="10.00">wx/wupdlock.h</text>
</a>
</g>
</g>
<!-- Node8&#45;&gt;Node42 -->
<g id="edge60" class="edge">
<title>Node8&#45;&gt;Node42</title>
<path fill="none" stroke="midnightblue" d="M872.82,-224.44C915.56,-215.02 984.33,-199.87 1030.57,-189.68"/>
<polygon fill="midnightblue" stroke="midnightblue" points="1031.35,-193.09 1040.36,-187.52 1029.84,-186.25 1031.35,-193.09"/>
</g>
<!-- Node43 -->
<g id="node43" class="node">
<title>Node43</title>
<g id="a_node43"><a xlink:title=" ">
<polygon fill="white" stroke="#bfbfbf" points="1142,-168.5 1142,-187.5 1228,-187.5 1228,-168.5 1142,-168.5"/>
<text text-anchor="middle" x="1185" y="-175.5" font-family="Helvetica,sans-Serif" font-size="10.00">wx/webview.h</text>
</a>
</g>
</g>
<!-- Node8&#45;&gt;Node43 -->
<g id="edge61" class="edge">
<title>Node8&#45;&gt;Node43</title>
<path fill="none" stroke="midnightblue" d="M879.65,-226.16C952.4,-215.25 1090.07,-194.59 1131.88,-188.11"/>
<polygon fill="midnightblue" stroke="midnightblue" points="1132.55,-191.55 1141.88,-186.54 1131.46,-184.63 1132.55,-191.55"/>
</g>
<!-- Node13&#45;&gt;Node2 -->
<g id="edge16" class="edge">
<title>Node13&#45;&gt;Node2</title>
<path fill="none" stroke="midnightblue" d="M414.31,-168.37C397.99,-150.05 359.68,-107.05 338.58,-83.36"/>
<polygon fill="midnightblue" stroke="midnightblue" points="340.92,-80.73 331.65,-75.59 335.69,-85.39 340.92,-80.73"/>
</g>
<!-- Node14 -->
<g id="node14" class="node">
<title>Node14</title>
<g id="a_node14"><a xlink:title=" ">
<polygon fill="white" stroke="#bfbfbf" points="390.5,-112.5 390.5,-131.5 469.5,-131.5 469.5,-112.5 390.5,-112.5"/>
<text text-anchor="middle" x="430" y="-119.5" font-family="Helvetica,sans-Serif" font-size="10.00">wx/msgdlg.h</text>
</a>
</g>
</g>
<!-- Node13&#45;&gt;Node14 -->
<g id="edge17" class="edge">
<title>Node13&#45;&gt;Node14</title>
<path fill="none" stroke="midnightblue" d="M423.32,-168.08C424.38,-160.93 425.91,-150.64 427.23,-141.69"/>
<polygon fill="midnightblue" stroke="midnightblue" points="430.7,-142.16 428.7,-131.75 423.78,-141.13 430.7,-142.16"/>
</g>
<!-- Node15 -->
<g id="node15" class="node">
<title>Node15</title>
<g id="a_node15"><a xlink:title=" ">
<polygon fill="white" stroke="#bfbfbf" points="487,-112.5 487,-131.5 545,-131.5 545,-112.5 487,-112.5"/>
<text text-anchor="middle" x="516" y="-119.5" font-family="Helvetica,sans-Serif" font-size="10.00">wx/log.h</text>
</a>
</g>
</g>
<!-- Node13&#45;&gt;Node15 -->
<g id="edge18" class="edge">
<title>Node13&#45;&gt;Node15</title>
<path fill="none" stroke="midnightblue" d="M437.1,-168.32C451.9,-159.82 474.69,-146.73 491.98,-136.8"/>
<polygon fill="midnightblue" stroke="midnightblue" points="494.01,-139.67 500.93,-131.65 490.52,-133.6 494.01,-139.67"/>
</g>
<!-- Node16&#45;&gt;Node2 -->
<g id="edge20" class="edge">
<title>Node16&#45;&gt;Node2</title>
<path fill="none" stroke="midnightblue" d="M1246.21,-169.4C1243.1,-168.88 1240,-168.4 1237,-168 1000.77,-136.56 938.64,-160.23 702,-132 580.37,-117.49 438.36,-90.27 368.07,-76.1"/>
<polygon fill="midnightblue" stroke="midnightblue" points="368.72,-72.66 358.23,-74.11 367.33,-79.52 368.72,-72.66"/>
</g>
<!-- Node16&#45;&gt;Node9 -->
<g id="edge25" class="edge">
<title>Node16&#45;&gt;Node9</title>
<path fill="none" stroke="midnightblue" d="M1317.58,-169.88C1366,-160.2 1452.74,-142.85 1506.04,-132.19"/>
<polygon fill="midnightblue" stroke="midnightblue" points="1506.8,-135.61 1515.91,-130.22 1505.42,-128.75 1506.8,-135.61"/>
</g>
<!-- Node17 -->
<g id="node17" class="node">
<title>Node17</title>
<g id="a_node17"><a xlink:title=" ">
<polygon fill="white" stroke="#bfbfbf" points="944,-112.5 944,-131.5 1016,-131.5 1016,-112.5 944,-112.5"/>
<text text-anchor="middle" x="980" y="-119.5" font-family="Helvetica,sans-Serif" font-size="10.00">wx/colour.h</text>
</a>
</g>
</g>
<!-- Node16&#45;&gt;Node17 -->
<g id="edge21" class="edge">
<title>Node16&#45;&gt;Node17</title>
<path fill="none" stroke="midnightblue" d="M1246.16,-169.73C1243.06,-169.14 1239.98,-168.55 1237,-168 1146.14,-151.2 1120.65,-149.47 1026.3,-132.2"/>
<polygon fill="midnightblue" stroke="midnightblue" points="1026.8,-128.73 1016.33,-130.36 1025.53,-135.61 1026.8,-128.73"/>
</g>
<!-- Node18 -->
<g id="node18" class="node">
<title>Node18</title>
<g id="a_node18"><a xlink:title=" ">
<polygon fill="white" stroke="#bfbfbf" points="1034,-112.5 1034,-131.5 1072,-131.5 1072,-112.5 1034,-112.5"/>
<text text-anchor="middle" x="1053" y="-119.5" font-family="Helvetica,sans-Serif" font-size="10.00">map</text>
</a>
</g>
</g>
<!-- Node16&#45;&gt;Node18 -->
<g id="edge22" class="edge">
<title>Node16&#45;&gt;Node18</title>
<path fill="none" stroke="midnightblue" d="M1246.36,-169.43C1201.1,-159.75 1124.62,-143.16 1082.02,-132.06"/>
<polygon fill="midnightblue" stroke="midnightblue" points="1082.78,-128.64 1072.21,-129.43 1080.96,-135.4 1082.78,-128.64"/>
</g>
<!-- Node19 -->
<g id="node19" class="node">
<title>Node19</title>
<g id="a_node19"><a xlink:title=" ">
<polygon fill="white" stroke="#bfbfbf" points="1090,-112.5 1090,-131.5 1134,-131.5 1134,-112.5 1090,-112.5"/>
<text text-anchor="middle" x="1112" y="-119.5" font-family="Helvetica,sans-Serif" font-size="10.00">string</text>
</a>
</g>
</g>
<!-- Node16&#45;&gt;Node19 -->
<g id="edge23" class="edge">
<title>Node16&#45;&gt;Node19</title>
<path fill="none" stroke="midnightblue" d="M1255.06,-168.44C1224.9,-158.86 1176.06,-143.35 1143.99,-133.16"/>
<polygon fill="midnightblue" stroke="midnightblue" points="1144.8,-129.75 1134.21,-130.05 1142.68,-136.42 1144.8,-129.75"/>
</g>
<!-- Node20 -->
<g id="node20" class="node">
<title>Node20</title>
<g id="a_node20"><a xlink:title=" ">
<polygon fill="white" stroke="#bfbfbf" points="1152.5,-112.5 1152.5,-131.5 1209.5,-131.5 1209.5,-112.5 1152.5,-112.5"/>
<text text-anchor="middle" x="1181" y="-119.5" font-family="Helvetica,sans-Serif" font-size="10.00">ostream</text>
</a>
</g>
</g>
<!-- Node16&#45;&gt;Node20 -->
<g id="edge24" class="edge">
<title>Node16&#45;&gt;Node20</title>
<path fill="none" stroke="midnightblue" d="M1265.77,-168.32C1249.65,-159.7 1224.7,-146.36 1206.04,-136.39"/>
<polygon fill="midnightblue" stroke="midnightblue" points="1207.66,-133.28 1197.19,-131.65 1204.36,-139.46 1207.66,-133.28"/>
</g>
<!-- Node21 -->
<g id="node21" class="node">
<title>Node21</title>
<g id="a_node21"><a xlink:title=" ">
<polygon fill="white" stroke="#bfbfbf" points="1065,-56.5 1065,-75.5 1127,-75.5 1127,-56.5 1065,-56.5"/>
<text text-anchor="middle" x="1096" y="-63.5" font-family="Helvetica,sans-Serif" font-size="10.00">wx/font.h</text>
</a>
</g>
</g>
<!-- Node16&#45;&gt;Node21 -->
<g id="edge26" class="edge">
<title>Node16&#45;&gt;Node21</title>
<path fill="none" stroke="midnightblue" d="M1280.43,-168.46C1277.43,-154.55 1269.54,-127.06 1252,-112 1243.14,-104.39 1180.38,-87.78 1137.22,-77"/>
<polygon fill="midnightblue" stroke="midnightblue" points="1137.8,-73.54 1127.25,-74.53 1136.12,-80.34 1137.8,-73.54"/>
</g>
<!-- Node22 -->
<g id="node22" class="node">
<title>Node22</title>
<g id="a_node22"><a xlink:title=" ">
<polygon fill="white" stroke="#bfbfbf" points="844,-112.5 844,-131.5 926,-131.5 926,-112.5 844,-112.5"/>
<text text-anchor="middle" x="885" y="-119.5" font-family="Helvetica,sans-Serif" font-size="10.00">wx/settings.h</text>
</a>
</g>
</g>
<!-- Node16&#45;&gt;Node22 -->
<g id="edge27" class="edge">
<title>Node16&#45;&gt;Node22</title>
<path fill="none" stroke="midnightblue" d="M1246.18,-169.57C1243.08,-169.01 1239.99,-168.48 1237,-168 1106.77,-147.25 1070.45,-151.74 936.42,-132.13"/>
<polygon fill="midnightblue" stroke="midnightblue" points="936.57,-128.61 926.17,-130.61 935.55,-135.54 936.57,-128.61"/>
</g>
<!-- Node16&#45;&gt;Node23 -->
<g id="edge28" class="edge">
<title>Node16&#45;&gt;Node23</title>
<path fill="none" stroke="midnightblue" d="M1317.62,-170.72C1354.85,-163.58 1414.61,-150.46 1464,-132 1484.18,-124.45 1535.6,-97.14 1566.47,-80.41"/>
<polygon fill="midnightblue" stroke="midnightblue" points="1568.22,-83.45 1575.33,-75.6 1564.87,-77.3 1568.22,-83.45"/>
</g>
<!-- Node24 -->
<g id="node24" class="node">
<title>Node24</title>
<g id="a_node24"><a xlink:title=" ">
<polygon fill="white" stroke="#bfbfbf" points="1145.5,-0.5 1145.5,-19.5 1210.5,-19.5 1210.5,-0.5 1145.5,-0.5"/>
<text text-anchor="middle" x="1178" y="-7.5" font-family="Helvetica,sans-Serif" font-size="10.00">functional</text>
</a>
</g>
</g>
<!-- Node16&#45;&gt;Node24 -->
<g id="edge29" class="edge">
<title>Node16&#45;&gt;Node24</title>
<path fill="none" stroke="midnightblue" d="M1317.61,-169.16C1348.44,-161.69 1393.79,-149.07 1431,-132 1433.63,-130.79 1517.61,-78.54 1519,-76 1523.28,-68.21 1524.86,-62.68 1519,-56 1499.59,-33.86 1307.68,-19.12 1220.59,-13.53"/>
<polygon fill="midnightblue" stroke="midnightblue" points="1220.71,-10.03 1210.51,-12.89 1220.27,-17.01 1220.71,-10.03"/>
</g>
<!-- Node25 -->
<g id="node25" class="node">
<title>Node25</title>
<g id="a_node25"><a xlink:href="FontAttribs_8h_source.html" target="_top" xlink:title=" ">
<polygon fill="white" stroke="black" points="1342.5,-112.5 1342.5,-131.5 1421.5,-131.5 1421.5,-112.5 1342.5,-112.5"/>
<text text-anchor="middle" x="1382" y="-119.5" font-family="Helvetica,sans-Serif" font-size="10.00">FontAttribs.h</text>
</a>
</g>
</g>
<!-- Node16&#45;&gt;Node25 -->
<g id="edge30" class="edge">
<title>Node16&#45;&gt;Node25</title>
<path fill="none" stroke="midnightblue" d="M1298.07,-168.32C1313.96,-159.74 1338.51,-146.49 1356.96,-136.52"/>
<polygon fill="midnightblue" stroke="midnightblue" points="1358.84,-139.49 1365.97,-131.65 1355.51,-133.33 1358.84,-139.49"/>
</g>
<!-- Node34 -->
<g id="node34" class="node">
<title>Node34</title>
<g id="a_node34"><a xlink:href="FontVariantCache_8h.html" target="_top" xlink:title="This file implements the wxFont cache system.">
<polygon fill="white" stroke="black" points="710.5,-112.5 710.5,-131.5 821.5,-131.5 821.5,-112.5 710.5,-112.5"/>
<text text-anchor="middle" x="766" y="-119.5" font-family="Helvetica,sans-Serif" font-size="10.00">FontVariantCache.h</text>
</a>
</g>
</g>
<!-- Node16&#45;&gt;Node34 -->
<g id="edge43" class="edge">
<title>Node16&#45;&gt;Node34</title>
<path fill="none" stroke="midnightblue" d="M1246.2,-169.48C1243.09,-168.93 1240,-168.43 1237,-168 1059.46,-142.37 1013.31,-151.6 835,-132 833.92,-131.88 832.83,-131.76 831.73,-131.64"/>
<polygon fill="midnightblue" stroke="midnightblue" points="832.05,-128.15 821.71,-130.46 831.24,-135.1 832.05,-128.15"/>
</g>
<!-- Node16&#45;&gt;Node38 -->
<g id="edge51" class="edge">
<title>Node16&#45;&gt;Node38</title>
<path fill="none" stroke="midnightblue" d="M1276.64,-168.44C1267.06,-153.99 1245.5,-125.06 1219,-112 1096.33,-51.57 1047.04,-93.06 906.97,-76"/>
<polygon fill="midnightblue" stroke="midnightblue" points="907.1,-72.49 896.73,-74.67 906.19,-79.43 907.1,-72.49"/>
</g>
<!-- Node25&#45;&gt;Node21 -->
<g id="edge37" class="edge">
<title>Node25&#45;&gt;Node21</title>
<path fill="none" stroke="midnightblue" d="M1342.46,-114.17C1295.95,-106.04 1216.17,-91.8 1137.41,-76.02"/>
<polygon fill="midnightblue" stroke="midnightblue" points="1137.81,-72.53 1127.32,-73.99 1136.43,-79.39 1137.81,-72.53"/>
</g>
<!-- Node25&#45;&gt;Node23 -->
<g id="edge40" class="edge">
<title>Node25&#45;&gt;Node23</title>
<path fill="none" stroke="midnightblue" d="M1415.12,-112.44C1453.58,-102.51 1516.75,-86.18 1556,-76.04"/>
<polygon fill="midnightblue" stroke="midnightblue" points="1557.1,-79.37 1565.91,-73.48 1555.35,-72.6 1557.1,-79.37"/>
</g>
<!-- Node25&#45;&gt;Node24 -->
<g id="edge41" class="edge">
<title>Node25&#45;&gt;Node24</title>
<path fill="none" stroke="midnightblue" d="M1372.43,-112.45C1357.03,-99.01 1325.37,-72.77 1295,-56 1269.99,-42.2 1239.87,-30.72 1216.46,-22.81"/>
<polygon fill="midnightblue" stroke="midnightblue" points="1217.46,-19.45 1206.87,-19.64 1215.27,-26.1 1217.46,-19.45"/>
</g>
<!-- Node26 -->
<g id="node26" class="node">
<title>Node26</title>
<g id="a_node26"><a xlink:href="EnumWrapper_8h_source.html" target="_top" xlink:title=" ">
<polygon fill="white" stroke="black" points="915,-56.5 915,-75.5 1009,-75.5 1009,-56.5 915,-56.5"/>
<text text-anchor="middle" x="962" y="-63.5" font-family="Helvetica,sans-Serif" font-size="10.00">EnumWrapper.h</text>
</a>
</g>
</g>
<!-- Node25&#45;&gt;Node26 -->
<g id="edge31" class="edge">
<title>Node25&#45;&gt;Node26</title>
<path fill="none" stroke="midnightblue" d="M1342.22,-114.17C1337.43,-113.41 1332.61,-112.67 1328,-112 1219.15,-96.24 1091.56,-81.37 1019.41,-73.29"/>
<polygon fill="midnightblue" stroke="midnightblue" points="1019.5,-69.78 1009.17,-72.15 1018.72,-76.73 1019.5,-69.78"/>
</g>
<!-- Node29 -->
<g id="node29" class="node">
<title>Node29</title>
<g id="a_node29"><a xlink:href="clamp_8hpp_source.html" target="_top" xlink:title=" ">
<polygon fill="white" stroke="black" points="1342,-56.5 1342,-75.5 1428,-75.5 1428,-56.5 1342,-56.5"/>
<text text-anchor="middle" x="1385" y="-63.5" font-family="Helvetica,sans-Serif" font-size="10.00">stx/clamp.hpp</text>
</a>
</g>
</g>
<!-- Node25&#45;&gt;Node29 -->
<g id="edge35" class="edge">
<title>Node25&#45;&gt;Node29</title>
<path fill="none" stroke="midnightblue" d="M1382.5,-112.08C1382.89,-105.01 1383.45,-94.86 1383.95,-85.99"/>
<polygon fill="midnightblue" stroke="midnightblue" points="1387.45,-85.93 1384.51,-75.75 1380.46,-85.54 1387.45,-85.93"/>
</g>
<!-- Node31 -->
<g id="node31" class="node">
<title>Node31</title>
<g id="a_node31"><a xlink:title=" ">
<polygon fill="white" stroke="#bfbfbf" points="1145.5,-56.5 1145.5,-75.5 1224.5,-75.5 1224.5,-56.5 1145.5,-56.5"/>
<text text-anchor="middle" x="1185" y="-63.5" font-family="Helvetica,sans-Serif" font-size="10.00">wx/version.h</text>
</a>
</g>
</g>
<!-- Node25&#45;&gt;Node31 -->
<g id="edge38" class="edge">
<title>Node25&#45;&gt;Node31</title>
<path fill="none" stroke="midnightblue" d="M1350.78,-112.44C1317.07,-103.2 1263.2,-88.44 1226.07,-78.26"/>
<polygon fill="midnightblue" stroke="midnightblue" points="1226.64,-74.78 1216.07,-75.52 1224.79,-81.54 1226.64,-74.78"/>
</g>
<!-- Node25&#45;&gt;Node32 -->
<g id="edge39" class="edge">
<title>Node25&#45;&gt;Node32</title>
<path fill="none" stroke="midnightblue" d="M1397.42,-112.32C1412.54,-103.82 1435.82,-90.73 1453.47,-80.8"/>
<polygon fill="midnightblue" stroke="midnightblue" points="1455.61,-83.61 1462.61,-75.65 1452.18,-77.51 1455.61,-83.61"/>
</g>
<!-- Node33 -->
<g id="node33" class="node">
<title>Node33</title>
<g id="a_node33"><a xlink:title=" ">
<polygon fill="white" stroke="#bfbfbf" points="1242,-56.5 1242,-75.5 1286,-75.5 1286,-56.5 1242,-56.5"/>
<text text-anchor="middle" x="1264" y="-63.5" font-family="Helvetica,sans-Serif" font-size="10.00">limits</text>
</a>
</g>
</g>
<!-- Node25&#45;&gt;Node33 -->
<g id="edge42" class="edge">
<title>Node25&#45;&gt;Node33</title>
<path fill="none" stroke="midnightblue" d="M1363.3,-112.44C1344.06,-103.64 1313.85,-89.81 1291.8,-79.72"/>
<polygon fill="midnightblue" stroke="midnightblue" points="1293.16,-76.5 1282.61,-75.52 1290.25,-82.86 1293.16,-76.5"/>
</g>
<!-- Node26&#45;&gt;Node24 -->
<g id="edge33" class="edge">
<title>Node26&#45;&gt;Node24</title>
<path fill="none" stroke="midnightblue" d="M996.23,-56.44C1033.95,-47.01 1094.68,-31.83 1135.44,-21.64"/>
<polygon fill="midnightblue" stroke="midnightblue" points="1136.5,-24.98 1145.35,-19.16 1134.8,-18.19 1136.5,-24.98"/>
</g>
<!-- Node27 -->
<g id="node27" class="node">
<title>Node27</title>
<g id="a_node27"><a xlink:title=" ">
<polygon fill="white" stroke="#bfbfbf" points="895.5,-0.5 895.5,-19.5 948.5,-19.5 948.5,-0.5 895.5,-0.5"/>
<text text-anchor="middle" x="922" y="-7.5" font-family="Helvetica,sans-Serif" font-size="10.00">cstddef</text>
</a>
</g>
</g>
<!-- Node26&#45;&gt;Node27 -->
<g id="edge32" class="edge">
<title>Node26&#45;&gt;Node27</title>
<path fill="none" stroke="midnightblue" d="M955.39,-56.08C949.74,-48.46 941.46,-37.26 934.55,-27.94"/>
<polygon fill="midnightblue" stroke="midnightblue" points="937.25,-25.7 928.48,-19.75 931.62,-29.87 937.25,-25.7"/>
</g>
<!-- Node28 -->
<g id="node28" class="node">
<title>Node28</title>
<g id="a_node28"><a xlink:title=" ">
<polygon fill="white" stroke="#bfbfbf" points="966.5,-0.5 966.5,-19.5 1035.5,-19.5 1035.5,-0.5 966.5,-0.5"/>
<text text-anchor="middle" x="1001" y="-7.5" font-family="Helvetica,sans-Serif" font-size="10.00">type_traits</text>
</a>
</g>
</g>
<!-- Node26&#45;&gt;Node28 -->
<g id="edge34" class="edge">
<title>Node26&#45;&gt;Node28</title>
<path fill="none" stroke="midnightblue" d="M968.44,-56.08C973.95,-48.46 982.03,-37.26 988.76,-27.94"/>
<polygon fill="midnightblue" stroke="midnightblue" points="991.66,-29.91 994.68,-19.75 985.99,-25.81 991.66,-29.91"/>
</g>
<!-- Node30 -->
<g id="node30" class="node">
<title>Node30</title>
<g id="a_node30"><a xlink:title=" ">
<polygon fill="white" stroke="#bfbfbf" points="1359,-0.5 1359,-19.5 1411,-19.5 1411,-0.5 1359,-0.5"/>
<text text-anchor="middle" x="1385" y="-7.5" font-family="Helvetica,sans-Serif" font-size="10.00">cassert</text>
</a>
</g>
</g>
<!-- Node29&#45;&gt;Node30 -->
<g id="edge36" class="edge">
<title>Node29&#45;&gt;Node30</title>
<path fill="none" stroke="midnightblue" d="M1385,-56.08C1385,-49.01 1385,-38.86 1385,-29.99"/>
<polygon fill="midnightblue" stroke="midnightblue" points="1388.5,-29.75 1385,-19.75 1381.5,-29.75 1388.5,-29.75"/>
</g>
<!-- Node34&#45;&gt;Node2 -->
<g id="edge44" class="edge">
<title>Node34&#45;&gt;Node2</title>
<path fill="none" stroke="midnightblue" d="M710.47,-114.22C621.71,-103.37 449.63,-82.35 368.44,-72.43"/>
<polygon fill="midnightblue" stroke="midnightblue" points="368.43,-68.9 358.07,-71.16 367.58,-75.85 368.43,-68.9"/>
</g>
<!-- Node34&#45;&gt;Node21 -->
<g id="edge46" class="edge">
<title>Node34&#45;&gt;Node21</title>
<path fill="none" stroke="midnightblue" d="M821.55,-112.91C879.07,-104.38 971.49,-90.22 1051,-76 1052.1,-75.8 1053.21,-75.6 1054.33,-75.4"/>
<polygon fill="midnightblue" stroke="midnightblue" points="1055.39,-78.76 1064.56,-73.46 1054.08,-71.88 1055.39,-78.76"/>
</g>
<!-- Node34&#45;&gt;Node24 -->
<g id="edge47" class="edge">
<title>Node34&#45;&gt;Node24</title>
<path fill="none" stroke="midnightblue" d="M821.5,-113.12C884.33,-103.85 982.53,-88.17 1018,-76 1036.05,-69.8 1038.57,-63.76 1056,-56 1084.46,-43.33 1117.68,-31.24 1142.27,-22.79"/>
<polygon fill="midnightblue" stroke="midnightblue" points="1143.56,-26.05 1151.9,-19.52 1141.31,-19.42 1143.56,-26.05"/>
</g>
<!-- Node34&#45;&gt;Node35 -->
<g id="edge45" class="edge">
<title>Node34&#45;&gt;Node35</title>
<path fill="none" stroke="midnightblue" d="M742.39,-112.44C717.54,-103.44 678.23,-89.19 650.25,-79.05"/>
<polygon fill="midnightblue" stroke="midnightblue" points="651.09,-75.63 640.5,-75.52 648.71,-82.21 651.09,-75.63"/>
</g>
<!-- Node34&#45;&gt;Node36 -->
<g id="edge48" class="edge">
<title>Node34&#45;&gt;Node36</title>
<path fill="none" stroke="midnightblue" d="M754.91,-112.32C744.51,-104.18 728.74,-91.84 716.28,-82.09"/>
<polygon fill="midnightblue" stroke="midnightblue" points="718.32,-79.24 708.29,-75.83 714.01,-84.75 718.32,-79.24"/>
</g>
<!-- Node37 -->
<g id="node37" class="node">
<title>Node37</title>
<g id="a_node37"><a xlink:title=" ">
<polygon fill="white" stroke="#bfbfbf" points="740.5,-56.5 740.5,-75.5 785.5,-75.5 785.5,-56.5 740.5,-56.5"/>
<text text-anchor="middle" x="763" y="-63.5" font-family="Helvetica,sans-Serif" font-size="10.00">utility</text>
</a>
</g>
</g>
<!-- Node34&#45;&gt;Node37 -->
<g id="edge49" class="edge">
<title>Node34&#45;&gt;Node37</title>
<path fill="none" stroke="midnightblue" d="M765.5,-112.08C765.11,-105.01 764.55,-94.86 764.05,-85.99"/>
<polygon fill="midnightblue" stroke="midnightblue" points="767.54,-85.54 763.49,-75.75 760.55,-85.93 767.54,-85.54"/>
</g>
<!-- Node34&#45;&gt;Node38 -->
<g id="edge50" class="edge">
<title>Node34&#45;&gt;Node38</title>
<path fill="none" stroke="midnightblue" d="M779.5,-112.32C792.6,-103.9 812.71,-90.97 828.11,-81.07"/>
<polygon fill="midnightblue" stroke="midnightblue" points="830.02,-84.01 836.54,-75.65 826.23,-78.12 830.02,-84.01"/>
</g>
<!-- Node44&#45;&gt;Node2 -->
<g id="edge63" class="edge">
<title>Node44&#45;&gt;Node2</title>
<path fill="none" stroke="midnightblue" d="M234.91,-280.19C235.03,-253.1 238.25,-169.36 272,-112 279.19,-99.78 290.9,-89.21 301.39,-81.4"/>
<polygon fill="midnightblue" stroke="midnightblue" points="303.61,-84.11 309.78,-75.5 299.59,-78.38 303.61,-84.11"/>
</g>
<!-- Node44&#45;&gt;Node5 -->
<g id="edge64" class="edge">
<title>Node44&#45;&gt;Node5</title>
<path fill="none" stroke="midnightblue" d="M230.76,-280.37C221.93,-262.38 201.4,-220.55 189.65,-196.63"/>
<polygon fill="midnightblue" stroke="midnightblue" points="192.77,-195.03 185.22,-187.59 186.48,-198.11 192.77,-195.03"/>
</g>
<!-- Node44&#45;&gt;Node8 -->
<g id="edge65" class="edge">
<title>Node44&#45;&gt;Node8</title>
<path fill="none" stroke="midnightblue" d="M270.12,-285.24C285.97,-283.58 304.92,-281.63 322,-280 487.88,-264.13 684.21,-247.47 778.29,-239.61"/>
<polygon fill="midnightblue" stroke="midnightblue" points="778.75,-243.09 788.43,-238.77 778.17,-236.11 778.75,-243.09"/>
</g>
</g>
</svg>
