<?xml version="1.0" encoding="UTF-8" standalone="no"?>
<!DOCTYPE svg PUBLIC "-//W3C//DTD SVG 1.1//EN"
 "http://www.w3.org/Graphics/SVG/1.1/DTD/svg11.dtd">
<!-- Generated by graphviz version 2.43.0 (0)
 -->
<!-- Title: src/History.cpp Pages: 1 -->
<!--zoomable 476 -->
<svg id="main" version="1.1" xmlns="http://www.w3.org/2000/svg" xmlns:xlink="http://www.w3.org/1999/xlink" xml:space="preserve" onload="init(evt)">
<style type="text/css"><![CDATA[
.edge:hover path { stroke: red; }
.edge:hover polygon { stroke: red; fill: red; }
]]></style>
<script type="text/javascript"><![CDATA[
var edges = document.getElementsByTagName('g');
if (edges && edges.length) {
  for (var i=0;i<edges.length;i++) {
    if (edges[i].id.substr(0,4)=='edge') {
      edges[i].setAttribute('class','edge');
    }
  }
}
]]></script>
        <defs>
                <circle id="rim" cx="0" cy="0" r="7"/>
                <circle id="rim2" cx="0" cy="0" r="3.5"/>
                <g id="zoomPlus">
                        <use xlink:href="#rim" fill="#404040">
                                <set attributeName="fill" to="#808080" begin="zoomplus.mouseover" end="zoomplus.mouseout"/>
                        </use>
                        <path d="M-4,0h8M0,-4v8" fill="none" stroke="white" stroke-width="1.5" pointer-events="none"/>
                </g>
                <g id="zoomMin">
                        <use xlink:href="#rim" fill="#404040">
                                <set attributeName="fill" to="#808080" begin="zoomminus.mouseover" end="zoomminus.mouseout"/>
                        </use>
                        <path d="M-4,0h8" fill="none" stroke="white" stroke-width="1.5" pointer-events="none"/>
                </g>
                <g id="dirArrow">
                        <path fill="none" stroke="white" stroke-width="1.5" d="M0,-3.0v7 M-2.5,-0.5L0,-3.0L2.5,-0.5"/>
                </g>
               <g id="resetDef">
                       <use xlink:href="#rim2" fill="#404040">
                               <set attributeName="fill" to="#808080" begin="reset.mouseover" end="reset.mouseout"/>
                       </use>
               </g>
        </defs>

<script type="text/javascript">
var viewWidth = 1772;
var viewHeight = 476;
var sectionId = 'dynsection-0';
</script>
<script xlink:href="svgpan.js"/>
<svg id="graph" class="graph">
<g id="viewport">
<title>src/History.cpp</title>
<polygon fill="white" stroke="transparent" points="-4,4 -4,-472 1767.5,-472 1767.5,4 -4,4"/>
<!-- Node1 -->
<g id="node1" class="node">
<title>Node1</title>
<g id="a_node1"><a xlink:title="This file defines the class History.">
<polygon fill="#bfbfbf" stroke="black" points="1242,-448.5 1242,-467.5 1330,-467.5 1330,-448.5 1242,-448.5"/>
<text text-anchor="middle" x="1286" y="-455.5" font-family="Helvetica,sans-Serif" font-size="10.00">src/History.cpp</text>
</a>
</g>
</g>
<!-- Node2 -->
<g id="node2" class="node">
<title>Node2</title>
<g id="a_node2"><a xlink:href="History_8h.html" target="_top" xlink:title="This file contains the definition of the class History that handles the recently issued commands for ...">
<polygon fill="white" stroke="black" points="879.5,-392.5 879.5,-411.5 938.5,-411.5 938.5,-392.5 879.5,-392.5"/>
<text text-anchor="middle" x="909" y="-399.5" font-family="Helvetica,sans-Serif" font-size="10.00">History.h</text>
</a>
</g>
</g>
<!-- Node1&#45;&gt;Node2 -->
<g id="edge1" class="edge">
<title>Node1&#45;&gt;Node2</title>
<path fill="none" stroke="midnightblue" d="M1241.64,-450.65C1167.59,-440.04 1019.91,-418.89 948.92,-408.72"/>
<polygon fill="midnightblue" stroke="midnightblue" points="949.01,-405.19 938.61,-407.24 948.01,-412.12 949.01,-405.19"/>
</g>
<!-- Node9 -->
<g id="node9" class="node">
<title>Node9</title>
<g id="a_node9"><a xlink:href="Configuration_8h_source.html" target="_top" xlink:title=" ">
<polygon fill="white" stroke="black" points="626.5,-224.5 626.5,-243.5 717.5,-243.5 717.5,-224.5 626.5,-224.5"/>
<text text-anchor="middle" x="672" y="-231.5" font-family="Helvetica,sans-Serif" font-size="10.00">Configuration.h</text>
</a>
</g>
</g>
<!-- Node1&#45;&gt;Node9 -->
<g id="edge64" class="edge">
<title>Node1&#45;&gt;Node9</title>
<path fill="none" stroke="midnightblue" d="M1241.97,-454.98C1097.63,-447.3 643.63,-414.24 568,-300 550.88,-274.15 586.89,-256.67 621.13,-246.41"/>
<polygon fill="midnightblue" stroke="midnightblue" points="622.49,-249.67 631.16,-243.58 620.59,-242.93 622.49,-249.67"/>
</g>
<!-- Node10 -->
<g id="node10" class="node">
<title>Node10</title>
<g id="a_node10"><a xlink:title=" ">
<polygon fill="white" stroke="#bfbfbf" points="1046,-112.5 1046,-131.5 1118,-131.5 1118,-112.5 1046,-112.5"/>
<text text-anchor="middle" x="1082" y="-119.5" font-family="Helvetica,sans-Serif" font-size="10.00">wx/config.h</text>
</a>
</g>
</g>
<!-- Node1&#45;&gt;Node10 -->
<g id="edge67" class="edge">
<title>Node1&#45;&gt;Node10</title>
<path fill="none" stroke="midnightblue" d="M1280.72,-448.23C1270.27,-430.04 1248,-386.6 1248,-347 1248,-347 1248,-347 1248,-233 1248,-202.9 1250.15,-189.42 1229,-168 1202.52,-141.18 1160.52,-130.26 1128.18,-125.85"/>
<polygon fill="midnightblue" stroke="midnightblue" points="1128.4,-122.35 1118.06,-124.64 1127.57,-129.3 1128.4,-122.35"/>
</g>
<!-- Node30 -->
<g id="node30" class="node">
<title>Node30</title>
<g id="a_node30"><a xlink:title=" ">
<polygon fill="white" stroke="#bfbfbf" points="1389,-56.5 1389,-75.5 1453,-75.5 1453,-56.5 1389,-56.5"/>
<text text-anchor="middle" x="1421" y="-63.5" font-family="Helvetica,sans-Serif" font-size="10.00">algorithm</text>
</a>
</g>
</g>
<!-- Node1&#45;&gt;Node30 -->
<g id="edge65" class="edge">
<title>Node1&#45;&gt;Node30</title>
<path fill="none" stroke="midnightblue" d="M1286,-448.44C1286,-429.94 1286,-384.81 1286,-347 1286,-347 1286,-347 1286,-177 1286,-126.31 1343.91,-94.83 1383.88,-79.14"/>
<polygon fill="midnightblue" stroke="midnightblue" points="1385.22,-82.38 1393.35,-75.58 1382.76,-75.82 1385.22,-82.38"/>
</g>
<!-- Node33 -->
<g id="node33" class="node">
<title>Node33</title>
<g id="a_node33"><a xlink:title=" ">
<polygon fill="white" stroke="#bfbfbf" points="381,-56.5 381,-75.5 439,-75.5 439,-56.5 381,-56.5"/>
<text text-anchor="middle" x="410" y="-63.5" font-family="Helvetica,sans-Serif" font-size="10.00">memory</text>
</a>
</g>
</g>
<!-- Node1&#45;&gt;Node33 -->
<g id="edge66" class="edge">
<title>Node1&#45;&gt;Node33</title>
<path fill="none" stroke="midnightblue" d="M1241.73,-455.58C1015.6,-448.06 0,-410.72 0,-347 0,-347 0,-347 0,-289 0,-109.95 269.19,-320.15 390,-188 415.65,-159.94 415.25,-112.15 412.66,-85.81"/>
<polygon fill="midnightblue" stroke="midnightblue" points="416.11,-85.17 411.44,-75.66 409.16,-86 416.11,-85.17"/>
</g>
<!-- Node39 -->
<g id="node39" class="node">
<title>Node39</title>
<g id="a_node39"><a xlink:title=" ">
<polygon fill="white" stroke="#bfbfbf" points="1130.5,-168.5 1130.5,-187.5 1219.5,-187.5 1219.5,-168.5 1130.5,-168.5"/>
<text text-anchor="middle" x="1175" y="-175.5" font-family="Helvetica,sans-Serif" font-size="10.00">wx/wupdlock.h</text>
</a>
</g>
</g>
<!-- Node1&#45;&gt;Node39 -->
<g id="edge73" class="edge">
<title>Node1&#45;&gt;Node39</title>
<path fill="none" stroke="midnightblue" d="M1270.48,-448.35C1243.78,-432.2 1192,-394.73 1192,-347 1192,-347 1192,-347 1192,-289 1192,-256.58 1184.7,-219.42 1179.67,-197.64"/>
<polygon fill="midnightblue" stroke="midnightblue" points="1183.03,-196.67 1177.29,-187.77 1176.23,-198.31 1183.03,-196.67"/>
</g>
<!-- Node43 -->
<g id="node43" class="node">
<title>Node43</title>
<g id="a_node43"><a xlink:title=" ">
<polygon fill="white" stroke="#bfbfbf" points="1314.5,-392.5 1314.5,-411.5 1387.5,-411.5 1387.5,-392.5 1314.5,-392.5"/>
<text text-anchor="middle" x="1351" y="-399.5" font-family="Helvetica,sans-Serif" font-size="10.00">wx/filedlg.h</text>
</a>
</g>
</g>
<!-- Node1&#45;&gt;Node43 -->
<g id="edge68" class="edge">
<title>Node1&#45;&gt;Node43</title>
<path fill="none" stroke="midnightblue" d="M1296.44,-448.32C1306.15,-440.26 1320.82,-428.08 1332.5,-418.37"/>
<polygon fill="midnightblue" stroke="midnightblue" points="1334.91,-420.92 1340.37,-411.83 1330.44,-415.53 1334.91,-420.92"/>
</g>
<!-- Node44 -->
<g id="node44" class="node">
<title>Node44</title>
<g id="a_node44"><a xlink:title=" ">
<polygon fill="white" stroke="#bfbfbf" points="1405.5,-392.5 1405.5,-411.5 1476.5,-411.5 1476.5,-392.5 1405.5,-392.5"/>
<text text-anchor="middle" x="1441" y="-399.5" font-family="Helvetica,sans-Serif" font-size="10.00">wx/menu.h</text>
</a>
</g>
</g>
<!-- Node1&#45;&gt;Node44 -->
<g id="edge69" class="edge">
<title>Node1&#45;&gt;Node44</title>
<path fill="none" stroke="midnightblue" d="M1310.56,-448.44C1336.52,-439.4 1377.67,-425.06 1406.8,-414.92"/>
<polygon fill="midnightblue" stroke="midnightblue" points="1408.26,-418.11 1416.55,-411.52 1405.96,-411.5 1408.26,-418.11"/>
</g>
<!-- Node45 -->
<g id="node45" class="node">
<title>Node45</title>
<g id="a_node45"><a xlink:title=" ">
<polygon fill="white" stroke="#bfbfbf" points="1494.5,-392.5 1494.5,-411.5 1559.5,-411.5 1559.5,-392.5 1494.5,-392.5"/>
<text text-anchor="middle" x="1527" y="-399.5" font-family="Helvetica,sans-Serif" font-size="10.00">wx/sizer.h</text>
</a>
</g>
</g>
<!-- Node1&#45;&gt;Node45 -->
<g id="edge70" class="edge">
<title>Node1&#45;&gt;Node45</title>
<path fill="none" stroke="midnightblue" d="M1324.19,-448.44C1367.87,-438.66 1439.19,-422.67 1484.57,-412.51"/>
<polygon fill="midnightblue" stroke="midnightblue" points="1485.41,-415.91 1494.4,-410.3 1483.88,-409.08 1485.41,-415.91"/>
</g>
<!-- Node46 -->
<g id="node46" class="node">
<title>Node46</title>
<g id="a_node46"><a xlink:title=" ">
<polygon fill="white" stroke="#bfbfbf" points="1577.5,-392.5 1577.5,-411.5 1656.5,-411.5 1656.5,-392.5 1577.5,-392.5"/>
<text text-anchor="middle" x="1617" y="-399.5" font-family="Helvetica,sans-Serif" font-size="10.00">wx/txtstrm.h</text>
</a>
</g>
</g>
<!-- Node1&#45;&gt;Node46 -->
<g id="edge71" class="edge">
<title>Node1&#45;&gt;Node46</title>
<path fill="none" stroke="midnightblue" d="M1330.18,-450.36C1383.9,-442.2 1477.61,-427.7 1567.39,-412.24"/>
<polygon fill="midnightblue" stroke="midnightblue" points="1568.21,-415.65 1577.46,-410.5 1567.01,-408.76 1568.21,-415.65"/>
</g>
<!-- Node47 -->
<g id="node47" class="node">
<title>Node47</title>
<g id="a_node47"><a xlink:title=" ">
<polygon fill="white" stroke="#bfbfbf" points="1674.5,-392.5 1674.5,-411.5 1763.5,-411.5 1763.5,-392.5 1674.5,-392.5"/>
<text text-anchor="middle" x="1719" y="-399.5" font-family="Helvetica,sans-Serif" font-size="10.00">wx/wfstream.h</text>
</a>
</g>
</g>
<!-- Node1&#45;&gt;Node47 -->
<g id="edge72" class="edge">
<title>Node1&#45;&gt;Node47</title>
<path fill="none" stroke="midnightblue" d="M1330.27,-452.49C1399.44,-445.28 1537.6,-430.24 1664.59,-412.15"/>
<polygon fill="midnightblue" stroke="midnightblue" points="1665.09,-415.61 1674.49,-410.72 1664.1,-408.68 1665.09,-415.61"/>
</g>
<!-- Node3 -->
<g id="node3" class="node">
<title>Node3</title>
<g id="a_node3"><a xlink:href="precomp_8h_source.html" target="_top" xlink:title=" ">
<polygon fill="white" stroke="black" points="4,-56.5 4,-75.5 72,-75.5 72,-56.5 4,-56.5"/>
<text text-anchor="middle" x="38" y="-63.5" font-family="Helvetica,sans-Serif" font-size="10.00">precomp.h</text>
</a>
</g>
</g>
<!-- Node2&#45;&gt;Node3 -->
<g id="edge2" class="edge">
<title>Node2&#45;&gt;Node3</title>
<path fill="none" stroke="midnightblue" d="M879.28,-398.15C747.31,-385.08 214.53,-327.93 72,-244 40.29,-225.32 26.11,-221.56 11,-188 -2.87,-157.2 0.72,-144.48 10,-112 12.9,-101.84 18.83,-91.75 24.49,-83.7"/>
<polygon fill="midnightblue" stroke="midnightblue" points="27.38,-85.69 30.59,-75.59 21.78,-81.48 27.38,-85.69"/>
</g>
<!-- Node5 -->
<g id="node5" class="node">
<title>Node5</title>
<g id="a_node5"><a xlink:href="RegexCtrl_8h_source.html" target="_top" xlink:title=" ">
<polygon fill="white" stroke="black" points="709,-336.5 709,-355.5 783,-355.5 783,-336.5 709,-336.5"/>
<text text-anchor="middle" x="746" y="-343.5" font-family="Helvetica,sans-Serif" font-size="10.00">RegexCtrl.h</text>
</a>
</g>
</g>
<!-- Node2&#45;&gt;Node5 -->
<g id="edge4" class="edge">
<title>Node2&#45;&gt;Node5</title>
<path fill="none" stroke="midnightblue" d="M883.17,-392.44C855.75,-383.36 812.22,-368.94 781.57,-358.78"/>
<polygon fill="midnightblue" stroke="midnightblue" points="782.3,-355.34 771.71,-355.52 780.1,-361.98 782.3,-355.34"/>
</g>
<!-- Node6 -->
<g id="node6" class="node">
<title>Node6</title>
<g id="a_node6"><a xlink:title=" ">
<polygon fill="white" stroke="#bfbfbf" points="1055.5,-168.5 1055.5,-187.5 1112.5,-187.5 1112.5,-168.5 1055.5,-168.5"/>
<text text-anchor="middle" x="1084" y="-175.5" font-family="Helvetica,sans-Serif" font-size="10.00">wx/wx.h</text>
</a>
</g>
</g>
<!-- Node2&#45;&gt;Node6 -->
<g id="edge60" class="edge">
<title>Node2&#45;&gt;Node6</title>
<path fill="none" stroke="midnightblue" d="M917.17,-392.21C925.4,-383.26 938.37,-368.91 949,-356 996.19,-298.72 1048.55,-227.77 1071.77,-195.9"/>
<polygon fill="midnightblue" stroke="midnightblue" points="1074.71,-197.8 1077.76,-187.65 1069.05,-193.68 1074.71,-197.8"/>
</g>
<!-- Node7 -->
<g id="node7" class="node">
<title>Node7</title>
<g id="a_node7"><a xlink:title=" ">
<polygon fill="white" stroke="#bfbfbf" points="859.5,-280.5 859.5,-299.5 930.5,-299.5 930.5,-280.5 859.5,-280.5"/>
<text text-anchor="middle" x="895" y="-287.5" font-family="Helvetica,sans-Serif" font-size="10.00">wx/regex.h</text>
</a>
</g>
</g>
<!-- Node2&#45;&gt;Node7 -->
<g id="edge61" class="edge">
<title>Node2&#45;&gt;Node7</title>
<path fill="none" stroke="midnightblue" d="M907.9,-392.37C905.64,-374.62 900.43,-333.67 897.37,-309.6"/>
<polygon fill="midnightblue" stroke="midnightblue" points="900.83,-309.07 896.09,-299.59 893.88,-309.95 900.83,-309.07"/>
</g>
<!-- Node38 -->
<g id="node38" class="node">
<title>Node38</title>
<g id="a_node38"><a xlink:title=" ">
<polygon fill="white" stroke="#bfbfbf" points="990.5,-168.5 990.5,-187.5 1037.5,-187.5 1037.5,-168.5 990.5,-168.5"/>
<text text-anchor="middle" x="1014" y="-175.5" font-family="Helvetica,sans-Serif" font-size="10.00">vector</text>
</a>
</g>
</g>
<!-- Node2&#45;&gt;Node38 -->
<g id="edge62" class="edge">
<title>Node2&#45;&gt;Node38</title>
<path fill="none" stroke="midnightblue" d="M913.12,-392.3C928.66,-359.42 984.02,-242.39 1005.44,-197.09"/>
<polygon fill="midnightblue" stroke="midnightblue" points="1008.69,-198.42 1009.8,-187.88 1002.36,-195.43 1008.69,-198.42"/>
</g>
<!-- Node42 -->
<g id="node42" class="node">
<title>Node42</title>
<g id="a_node42"><a xlink:title=" ">
<polygon fill="white" stroke="#bfbfbf" points="813,-336.5 813,-355.5 881,-355.5 881,-336.5 813,-336.5"/>
<text text-anchor="middle" x="847" y="-343.5" font-family="Helvetica,sans-Serif" font-size="10.00">wx/arrstr.h</text>
</a>
</g>
</g>
<!-- Node2&#45;&gt;Node42 -->
<g id="edge63" class="edge">
<title>Node2&#45;&gt;Node42</title>
<path fill="none" stroke="midnightblue" d="M899.04,-392.32C889.87,-384.34 876.06,-372.31 864.97,-362.65"/>
<polygon fill="midnightblue" stroke="midnightblue" points="866.98,-359.76 857.14,-355.83 862.38,-365.04 866.98,-359.76"/>
</g>
<!-- Node4 -->
<g id="node4" class="node">
<title>Node4</title>
<g id="a_node4"><a xlink:href="Version_8h_source.html" target="_top" xlink:title=" ">
<polygon fill="white" stroke="black" points="7,-0.5 7,-19.5 69,-19.5 69,-0.5 7,-0.5"/>
<text text-anchor="middle" x="38" y="-7.5" font-family="Helvetica,sans-Serif" font-size="10.00">Version.h</text>
</a>
</g>
</g>
<!-- Node3&#45;&gt;Node4 -->
<g id="edge3" class="edge">
<title>Node3&#45;&gt;Node4</title>
<path fill="none" stroke="midnightblue" d="M38,-56.08C38,-49.01 38,-38.86 38,-29.99"/>
<polygon fill="midnightblue" stroke="midnightblue" points="41.5,-29.75 38,-19.75 34.5,-29.75 41.5,-29.75"/>
</g>
<!-- Node5&#45;&gt;Node3 -->
<g id="edge5" class="edge">
<title>Node5&#45;&gt;Node3</title>
<path fill="none" stroke="midnightblue" d="M708.9,-342.76C574.05,-333.81 113.23,-295.65 24,-188 -0.42,-158.53 16.68,-110.26 28.8,-84.49"/>
<polygon fill="midnightblue" stroke="midnightblue" points="31.95,-86.03 33.26,-75.52 25.68,-82.92 31.95,-86.03"/>
</g>
<!-- Node5&#45;&gt;Node6 -->
<g id="edge6" class="edge">
<title>Node5&#45;&gt;Node6</title>
<path fill="none" stroke="midnightblue" d="M758.44,-336.36C777.6,-323.26 815.68,-298 850,-280 869.17,-269.95 995.75,-216.25 1054.34,-191.51"/>
<polygon fill="midnightblue" stroke="midnightblue" points="1055.94,-194.63 1063.79,-187.52 1053.22,-188.18 1055.94,-194.63"/>
</g>
<!-- Node5&#45;&gt;Node7 -->
<g id="edge7" class="edge">
<title>Node5&#45;&gt;Node7</title>
<path fill="none" stroke="midnightblue" d="M769.61,-336.44C794.46,-327.44 833.77,-313.19 861.75,-303.05"/>
<polygon fill="midnightblue" stroke="midnightblue" points="863.29,-306.21 871.5,-299.52 860.91,-299.63 863.29,-306.21"/>
</g>
<!-- Node8 -->
<g id="node8" class="node">
<title>Node8</title>
<g id="a_node8"><a xlink:title=" ">
<polygon fill="white" stroke="#bfbfbf" points="577,-280.5 577,-299.5 655,-299.5 655,-280.5 577,-280.5"/>
<text text-anchor="middle" x="616" y="-287.5" font-family="Helvetica,sans-Serif" font-size="10.00">wx/textctrl.h</text>
</a>
</g>
</g>
<!-- Node5&#45;&gt;Node8 -->
<g id="edge8" class="edge">
<title>Node5&#45;&gt;Node8</title>
<path fill="none" stroke="midnightblue" d="M725.4,-336.44C704.01,-327.56 670.32,-313.56 645.98,-303.45"/>
<polygon fill="midnightblue" stroke="midnightblue" points="647.08,-300.12 636.5,-299.52 644.39,-306.58 647.08,-300.12"/>
</g>
<!-- Node5&#45;&gt;Node9 -->
<g id="edge9" class="edge">
<title>Node5&#45;&gt;Node9</title>
<path fill="none" stroke="midnightblue" d="M735.53,-336.19C725.89,-327.68 711.67,-314.04 702,-300 691.98,-285.46 683.85,-267.05 678.59,-253.53"/>
<polygon fill="midnightblue" stroke="midnightblue" points="681.78,-252.06 675.01,-243.91 675.22,-254.51 681.78,-252.06"/>
</g>
<!-- Node41 -->
<g id="node41" class="node">
<title>Node41</title>
<g id="a_node41"><a xlink:href="BTextCtrl_8h_source.html" target="_top" xlink:title=" ">
<polygon fill="white" stroke="black" points="711,-280.5 711,-299.5 781,-299.5 781,-280.5 711,-280.5"/>
<text text-anchor="middle" x="746" y="-287.5" font-family="Helvetica,sans-Serif" font-size="10.00">BTextCtrl.h</text>
</a>
</g>
</g>
<!-- Node5&#45;&gt;Node41 -->
<g id="edge56" class="edge">
<title>Node5&#45;&gt;Node41</title>
<path fill="none" stroke="midnightblue" d="M746,-336.08C746,-329.01 746,-318.86 746,-309.99"/>
<polygon fill="midnightblue" stroke="midnightblue" points="749.5,-309.75 746,-299.75 742.5,-309.75 749.5,-309.75"/>
</g>
<!-- Node9&#45;&gt;Node3 -->
<g id="edge10" class="edge">
<title>Node9&#45;&gt;Node3</title>
<path fill="none" stroke="midnightblue" d="M626.49,-232.87C491.25,-232.04 98.65,-226.34 57,-188 28.8,-162.04 30.89,-112.65 34.6,-85.69"/>
<polygon fill="midnightblue" stroke="midnightblue" points="38.08,-86.08 36.2,-75.65 31.17,-84.97 38.08,-86.08"/>
</g>
<!-- Node9&#45;&gt;Node6 -->
<g id="edge11" class="edge">
<title>Node9&#45;&gt;Node6</title>
<path fill="none" stroke="midnightblue" d="M717.82,-227.14C726.2,-226.08 734.86,-225 743,-224 874.75,-207.85 911.33,-211.91 1045.16,-188.16"/>
<polygon fill="midnightblue" stroke="midnightblue" points="1046.16,-191.53 1055.39,-186.32 1044.93,-184.64 1046.16,-191.53"/>
</g>
<!-- Node9&#45;&gt;Node10 -->
<g id="edge12" class="edge">
<title>Node9&#45;&gt;Node10</title>
<path fill="none" stroke="midnightblue" d="M717.93,-227.51C765.54,-221.04 841.7,-208.49 905,-188 925.05,-181.51 928.42,-175.81 948,-168 979.73,-155.34 1016.58,-143.14 1043.59,-134.65"/>
<polygon fill="midnightblue" stroke="midnightblue" points="1044.93,-137.9 1053.44,-131.58 1042.85,-131.21 1044.93,-137.9"/>
</g>
<!-- Node11 -->
<g id="node11" class="node">
<title>Node11</title>
<g id="a_node11"><a xlink:title=" ">
<polygon fill="white" stroke="#bfbfbf" points="514.5,-168.5 514.5,-187.5 591.5,-187.5 591.5,-168.5 514.5,-168.5"/>
<text text-anchor="middle" x="553" y="-175.5" font-family="Helvetica,sans-Serif" font-size="10.00">wx/display.h</text>
</a>
</g>
</g>
<!-- Node9&#45;&gt;Node11 -->
<g id="edge13" class="edge">
<title>Node9&#45;&gt;Node11</title>
<path fill="none" stroke="midnightblue" d="M653.14,-224.44C633.73,-215.64 603.27,-201.81 581.04,-191.72"/>
<polygon fill="midnightblue" stroke="midnightblue" points="582.32,-188.46 571.77,-187.52 579.43,-194.84 582.32,-188.46"/>
</g>
<!-- Node12 -->
<g id="node12" class="node">
<title>Node12</title>
<g id="a_node12"><a xlink:title=" ">
<polygon fill="white" stroke="#bfbfbf" points="610,-168.5 610,-187.5 700,-187.5 700,-168.5 610,-168.5"/>
<text text-anchor="middle" x="655" y="-175.5" font-family="Helvetica,sans-Serif" font-size="10.00">wx/fontenum.h</text>
</a>
</g>
</g>
<!-- Node9&#45;&gt;Node12 -->
<g id="edge14" class="edge">
<title>Node9&#45;&gt;Node12</title>
<path fill="none" stroke="midnightblue" d="M669.19,-224.08C666.92,-216.85 663.63,-206.41 660.79,-197.4"/>
<polygon fill="midnightblue" stroke="midnightblue" points="664.1,-196.24 657.75,-187.75 657.42,-198.34 664.1,-196.24"/>
</g>
<!-- Node13 -->
<g id="node13" class="node">
<title>Node13</title>
<g id="a_node13"><a xlink:title=" ">
<polygon fill="white" stroke="#bfbfbf" points="718,-168.5 718,-187.5 806,-187.5 806,-168.5 718,-168.5"/>
<text text-anchor="middle" x="762" y="-175.5" font-family="Helvetica,sans-Serif" font-size="10.00">wx/hashmap.h</text>
</a>
</g>
</g>
<!-- Node9&#45;&gt;Node13 -->
<g id="edge15" class="edge">
<title>Node9&#45;&gt;Node13</title>
<path fill="none" stroke="midnightblue" d="M686.46,-224.32C700.5,-215.9 722.05,-202.97 738.54,-193.07"/>
<polygon fill="midnightblue" stroke="midnightblue" points="740.8,-195.8 747.58,-187.65 737.2,-189.8 740.8,-195.8"/>
</g>
<!-- Node14 -->
<g id="node14" class="node">
<title>Node14</title>
<g id="a_node14"><a xlink:href="LoggingMessageDialog_8h.html" target="_top" xlink:title="This file declares a message dialog that sends its contents to the log message sink.">
<polygon fill="white" stroke="black" points="242.5,-168.5 242.5,-187.5 381.5,-187.5 381.5,-168.5 242.5,-168.5"/>
<text text-anchor="middle" x="312" y="-175.5" font-family="Helvetica,sans-Serif" font-size="10.00">LoggingMessageDialog.h</text>
</a>
</g>
</g>
<!-- Node9&#45;&gt;Node14 -->
<g id="edge16" class="edge">
<title>Node9&#45;&gt;Node14</title>
<path fill="none" stroke="midnightblue" d="M626.41,-226.16C563.79,-216.77 450.77,-199.82 378.66,-189"/>
<polygon fill="midnightblue" stroke="midnightblue" points="379.17,-185.54 368.77,-187.51 378.14,-192.46 379.17,-185.54"/>
</g>
<!-- Node17 -->
<g id="node17" class="node">
<title>Node17</title>
<g id="a_node17"><a xlink:href="TextStyle_8h.html" target="_top" xlink:title="This file declares everything needed for the text style system used to style all the elements on the ...">
<polygon fill="white" stroke="black" points="824.5,-168.5 824.5,-187.5 895.5,-187.5 895.5,-168.5 824.5,-168.5"/>
<text text-anchor="middle" x="860" y="-175.5" font-family="Helvetica,sans-Serif" font-size="10.00">TextStyle.h</text>
</a>
</g>
</g>
<!-- Node9&#45;&gt;Node17 -->
<g id="edge20" class="edge">
<title>Node9&#45;&gt;Node17</title>
<path fill="none" stroke="midnightblue" d="M701.79,-224.44C733.83,-215.24 784.93,-200.56 820.35,-190.39"/>
<polygon fill="midnightblue" stroke="midnightblue" points="821.71,-193.64 830.35,-187.52 819.77,-186.91 821.71,-193.64"/>
</g>
<!-- Node9&#45;&gt;Node33 -->
<g id="edge49" class="edge">
<title>Node9&#45;&gt;Node33</title>
<path fill="none" stroke="midnightblue" d="M626.21,-230.72C587.16,-226.78 531.14,-216.19 491,-188 453.38,-161.58 428.33,-111.63 416.98,-84.92"/>
<polygon fill="midnightblue" stroke="midnightblue" points="420.2,-83.56 413.19,-75.62 413.72,-86.2 420.2,-83.56"/>
</g>
<!-- Node34 -->
<g id="node34" class="node">
<title>Node34</title>
<g id="a_node34"><a xlink:title=" ">
<polygon fill="white" stroke="#bfbfbf" points="1271,-56.5 1271,-75.5 1303,-75.5 1303,-56.5 1271,-56.5"/>
<text text-anchor="middle" x="1287" y="-63.5" font-family="Helvetica,sans-Serif" font-size="10.00">list</text>
</a>
</g>
</g>
<!-- Node9&#45;&gt;Node34 -->
<g id="edge52" class="edge">
<title>Node9&#45;&gt;Node34</title>
<path fill="none" stroke="midnightblue" d="M717.95,-229.2C772.06,-223.83 864.18,-211.9 940,-188 959.72,-181.78 962.54,-174.97 982,-168 1044.51,-145.61 1063.86,-152.55 1127,-132 1175.62,-116.18 1230.47,-92.59 1261.67,-78.6"/>
<polygon fill="midnightblue" stroke="midnightblue" points="1263.26,-81.73 1270.93,-74.42 1260.38,-75.35 1263.26,-81.73"/>
</g>
<!-- Node36 -->
<g id="node36" class="node">
<title>Node36</title>
<g id="a_node36"><a xlink:title=" ">
<polygon fill="white" stroke="#bfbfbf" points="491.5,-56.5 491.5,-75.5 584.5,-75.5 584.5,-56.5 491.5,-56.5"/>
<text text-anchor="middle" x="538" y="-63.5" font-family="Helvetica,sans-Serif" font-size="10.00">unordered_map</text>
</a>
</g>
</g>
<!-- Node9&#45;&gt;Node36 -->
<g id="edge50" class="edge">
<title>Node9&#45;&gt;Node36</title>
<path fill="none" stroke="midnightblue" d="M626.15,-226.94C581.96,-220.04 519.7,-207.19 505,-188 484.46,-161.19 494.49,-144.1 505,-112 508.49,-101.34 515.57,-91.12 522.29,-83.12"/>
<polygon fill="midnightblue" stroke="midnightblue" points="524.9,-85.44 528.98,-75.66 519.7,-80.76 524.9,-85.44"/>
</g>
<!-- Node37 -->
<g id="node37" class="node">
<title>Node37</title>
<g id="a_node37"><a xlink:title=" ">
<polygon fill="white" stroke="#bfbfbf" points="66,-168.5 66,-187.5 120,-187.5 120,-168.5 66,-168.5"/>
<text text-anchor="middle" x="93" y="-175.5" font-family="Helvetica,sans-Serif" font-size="10.00">random</text>
</a>
</g>
</g>
<!-- Node9&#45;&gt;Node37 -->
<g id="edge51" class="edge">
<title>Node9&#45;&gt;Node37</title>
<path fill="none" stroke="midnightblue" d="M626.28,-231.71C534.13,-228.58 319.41,-218.56 130.16,-187.92"/>
<polygon fill="midnightblue" stroke="midnightblue" points="130.46,-184.42 120.03,-186.26 129.33,-191.33 130.46,-184.42"/>
</g>
<!-- Node9&#45;&gt;Node38 -->
<g id="edge53" class="edge">
<title>Node9&#45;&gt;Node38</title>
<path fill="none" stroke="midnightblue" d="M717.7,-226.72C789.99,-216.72 927.47,-197.32 976,-188 977.46,-187.72 978.94,-187.42 980.44,-187.11"/>
<polygon fill="midnightblue" stroke="midnightblue" points="981.34,-190.5 990.35,-184.93 979.83,-183.66 981.34,-190.5"/>
</g>
<!-- Node9&#45;&gt;Node39 -->
<g id="edge54" class="edge">
<title>Node9&#45;&gt;Node39</title>
<path fill="none" stroke="midnightblue" d="M717.79,-229.46C797.53,-223.08 967.25,-208.49 1120.17,-188.17"/>
<polygon fill="midnightblue" stroke="midnightblue" points="1120.77,-191.62 1130.21,-186.83 1119.84,-184.69 1120.77,-191.62"/>
</g>
<!-- Node40 -->
<g id="node40" class="node">
<title>Node40</title>
<g id="a_node40"><a xlink:title=" ">
<polygon fill="white" stroke="#bfbfbf" points="138,-168.5 138,-187.5 224,-187.5 224,-168.5 138,-168.5"/>
<text text-anchor="middle" x="181" y="-175.5" font-family="Helvetica,sans-Serif" font-size="10.00">wx/webview.h</text>
</a>
</g>
</g>
<!-- Node9&#45;&gt;Node40 -->
<g id="edge55" class="edge">
<title>Node9&#45;&gt;Node40</title>
<path fill="none" stroke="midnightblue" d="M626.37,-229.37C548.26,-222.93 383.68,-208.36 234.36,-188.1"/>
<polygon fill="midnightblue" stroke="midnightblue" points="234.48,-184.58 224.09,-186.7 233.53,-191.52 234.48,-184.58"/>
</g>
<!-- Node14&#45;&gt;Node3 -->
<g id="edge17" class="edge">
<title>Node14&#45;&gt;Node3</title>
<path fill="none" stroke="midnightblue" d="M283.92,-168.45C256.79,-159.97 214.67,-146.21 179,-132 138.23,-115.76 92.29,-93.89 64.25,-80.11"/>
<polygon fill="midnightblue" stroke="midnightblue" points="65.63,-76.89 55.11,-75.6 62.53,-83.17 65.63,-76.89"/>
</g>
<!-- Node15 -->
<g id="node15" class="node">
<title>Node15</title>
<g id="a_node15"><a xlink:title=" ">
<polygon fill="white" stroke="#bfbfbf" points="188.5,-112.5 188.5,-131.5 267.5,-131.5 267.5,-112.5 188.5,-112.5"/>
<text text-anchor="middle" x="228" y="-119.5" font-family="Helvetica,sans-Serif" font-size="10.00">wx/msgdlg.h</text>
</a>
</g>
</g>
<!-- Node14&#45;&gt;Node15 -->
<g id="edge18" class="edge">
<title>Node14&#45;&gt;Node15</title>
<path fill="none" stroke="midnightblue" d="M298.5,-168.32C285.4,-159.9 265.29,-146.97 249.89,-137.07"/>
<polygon fill="midnightblue" stroke="midnightblue" points="251.77,-134.12 241.46,-131.65 247.98,-140.01 251.77,-134.12"/>
</g>
<!-- Node16 -->
<g id="node16" class="node">
<title>Node16</title>
<g id="a_node16"><a xlink:title=" ">
<polygon fill="white" stroke="#bfbfbf" points="285,-112.5 285,-131.5 343,-131.5 343,-112.5 285,-112.5"/>
<text text-anchor="middle" x="314" y="-119.5" font-family="Helvetica,sans-Serif" font-size="10.00">wx/log.h</text>
</a>
</g>
</g>
<!-- Node14&#45;&gt;Node16 -->
<g id="edge19" class="edge">
<title>Node14&#45;&gt;Node16</title>
<path fill="none" stroke="midnightblue" d="M312.33,-168.08C312.59,-161.01 312.97,-150.86 313.3,-141.99"/>
<polygon fill="midnightblue" stroke="midnightblue" points="316.8,-141.87 313.68,-131.75 309.81,-141.61 316.8,-141.87"/>
</g>
<!-- Node17&#45;&gt;Node3 -->
<g id="edge21" class="edge">
<title>Node17&#45;&gt;Node3</title>
<path fill="none" stroke="midnightblue" d="M824.19,-169.56C821.08,-169 817.99,-168.47 815,-168 677.99,-146.38 642.59,-149.56 505,-132 349.46,-112.15 165.21,-85.61 82.31,-73.51"/>
<polygon fill="midnightblue" stroke="midnightblue" points="82.64,-70.02 72.24,-72.04 81.63,-76.95 82.64,-70.02"/>
</g>
<!-- Node17&#45;&gt;Node10 -->
<g id="edge23" class="edge">
<title>Node17&#45;&gt;Node10</title>
<path fill="none" stroke="midnightblue" d="M895.18,-168.44C933.58,-159.1 995.18,-144.12 1037.06,-133.93"/>
<polygon fill="midnightblue" stroke="midnightblue" points="1038.1,-137.28 1046.99,-131.52 1036.44,-130.48 1038.1,-137.28"/>
</g>
<!-- Node18 -->
<g id="node18" class="node">
<title>Node18</title>
<g id="a_node18"><a xlink:title=" ">
<polygon fill="white" stroke="#bfbfbf" points="514,-112.5 514,-131.5 586,-131.5 586,-112.5 514,-112.5"/>
<text text-anchor="middle" x="550" y="-119.5" font-family="Helvetica,sans-Serif" font-size="10.00">wx/colour.h</text>
</a>
</g>
</g>
<!-- Node17&#45;&gt;Node18 -->
<g id="edge22" class="edge">
<title>Node17&#45;&gt;Node18</title>
<path fill="none" stroke="midnightblue" d="M824.16,-169.71C821.06,-169.12 817.98,-168.54 815,-168 720.66,-150.85 694.17,-149.77 596.34,-132.19"/>
<polygon fill="midnightblue" stroke="midnightblue" points="596.79,-128.72 586.33,-130.38 595.55,-135.6 596.79,-128.72"/>
</g>
<!-- Node19 -->
<g id="node19" class="node">
<title>Node19</title>
<g id="a_node19"><a xlink:title=" ">
<polygon fill="white" stroke="#bfbfbf" points="778,-56.5 778,-75.5 840,-75.5 840,-56.5 778,-56.5"/>
<text text-anchor="middle" x="809" y="-63.5" font-family="Helvetica,sans-Serif" font-size="10.00">wx/font.h</text>
</a>
</g>
</g>
<!-- Node17&#45;&gt;Node19 -->
<g id="edge24" class="edge">
<title>Node17&#45;&gt;Node19</title>
<path fill="none" stroke="midnightblue" d="M862.68,-168.09C866.08,-155.09 870.53,-130.44 862,-112 856.08,-99.21 844.53,-88.72 833.72,-81.1"/>
<polygon fill="midnightblue" stroke="midnightblue" points="835.62,-78.16 825.33,-75.61 831.79,-84.02 835.62,-78.16"/>
</g>
<!-- Node20 -->
<g id="node20" class="node">
<title>Node20</title>
<g id="a_node20"><a xlink:title=" ">
<polygon fill="white" stroke="#bfbfbf" points="604,-112.5 604,-131.5 686,-131.5 686,-112.5 604,-112.5"/>
<text text-anchor="middle" x="645" y="-119.5" font-family="Helvetica,sans-Serif" font-size="10.00">wx/settings.h</text>
</a>
</g>
</g>
<!-- Node17&#45;&gt;Node20 -->
<g id="edge25" class="edge">
<title>Node17&#45;&gt;Node20</title>
<path fill="none" stroke="midnightblue" d="M825.93,-168.44C788.82,-159.12 729.34,-144.18 688.79,-134"/>
<polygon fill="midnightblue" stroke="midnightblue" points="689.46,-130.56 678.91,-131.52 687.75,-137.35 689.46,-130.56"/>
</g>
<!-- Node21 -->
<g id="node21" class="node">
<title>Node21</title>
<g id="a_node21"><a xlink:title=" ">
<polygon fill="white" stroke="#bfbfbf" points="1321,-56.5 1321,-75.5 1371,-75.5 1371,-56.5 1321,-56.5"/>
<text text-anchor="middle" x="1346" y="-63.5" font-family="Helvetica,sans-Serif" font-size="10.00">cstdint</text>
</a>
</g>
</g>
<!-- Node17&#45;&gt;Node21 -->
<g id="edge26" class="edge">
<title>Node17&#45;&gt;Node21</title>
<path fill="none" stroke="midnightblue" d="M891.47,-168.48C920.01,-160.37 963,-147.17 999,-132 1016.59,-124.59 1018.81,-117.77 1037,-112 1151.39,-75.69 1189.07,-98.54 1310.76,-75.98"/>
<polygon fill="midnightblue" stroke="midnightblue" points="1311.67,-79.37 1320.83,-74.05 1310.35,-72.5 1311.67,-79.37"/>
</g>
<!-- Node22 -->
<g id="node22" class="node">
<title>Node22</title>
<g id="a_node22"><a xlink:title=" ">
<polygon fill="white" stroke="#bfbfbf" points="741.5,-0.5 741.5,-19.5 806.5,-19.5 806.5,-0.5 741.5,-0.5"/>
<text text-anchor="middle" x="774" y="-7.5" font-family="Helvetica,sans-Serif" font-size="10.00">functional</text>
</a>
</g>
</g>
<!-- Node17&#45;&gt;Node22 -->
<g id="edge27" class="edge">
<title>Node17&#45;&gt;Node22</title>
<path fill="none" stroke="midnightblue" d="M828.68,-168.48C796.16,-159.19 748,-144.04 733,-132 710.11,-113.63 706.09,-104.21 698,-76 695.55,-67.46 693.6,-63.72 698,-56 706.41,-41.25 721.77,-30.84 736.48,-23.77"/>
<polygon fill="midnightblue" stroke="midnightblue" points="738.24,-26.83 745.98,-19.6 735.42,-20.42 738.24,-26.83"/>
</g>
<!-- Node23 -->
<g id="node23" class="node">
<title>Node23</title>
<g id="a_node23"><a xlink:href="FontAttribs_8h_source.html" target="_top" xlink:title=" ">
<polygon fill="white" stroke="black" points="910.5,-112.5 910.5,-131.5 989.5,-131.5 989.5,-112.5 910.5,-112.5"/>
<text text-anchor="middle" x="950" y="-119.5" font-family="Helvetica,sans-Serif" font-size="10.00">FontAttribs.h</text>
</a>
</g>
</g>
<!-- Node17&#45;&gt;Node23 -->
<g id="edge28" class="edge">
<title>Node17&#45;&gt;Node23</title>
<path fill="none" stroke="midnightblue" d="M874.46,-168.32C888.5,-159.9 910.05,-146.97 926.54,-137.07"/>
<polygon fill="midnightblue" stroke="midnightblue" points="928.8,-139.8 935.58,-131.65 925.2,-133.8 928.8,-139.8"/>
</g>
<!-- Node32 -->
<g id="node32" class="node">
<title>Node32</title>
<g id="a_node32"><a xlink:href="FontVariantCache_8h.html" target="_top" xlink:title="This file implements the wxFont cache system.">
<polygon fill="white" stroke="black" points="742.5,-112.5 742.5,-131.5 853.5,-131.5 853.5,-112.5 742.5,-112.5"/>
<text text-anchor="middle" x="798" y="-119.5" font-family="Helvetica,sans-Serif" font-size="10.00">FontVariantCache.h</text>
</a>
</g>
</g>
<!-- Node17&#45;&gt;Node32 -->
<g id="edge41" class="edge">
<title>Node17&#45;&gt;Node32</title>
<path fill="none" stroke="midnightblue" d="M850.04,-168.32C840.87,-160.34 827.06,-148.31 815.97,-138.65"/>
<polygon fill="midnightblue" stroke="midnightblue" points="817.98,-135.76 808.14,-131.83 813.38,-141.04 817.98,-135.76"/>
</g>
<!-- Node23&#45;&gt;Node19 -->
<g id="edge35" class="edge">
<title>Node23&#45;&gt;Node19</title>
<path fill="none" stroke="midnightblue" d="M927.66,-112.44C904.25,-103.48 867.26,-89.31 840.81,-79.18"/>
<polygon fill="midnightblue" stroke="midnightblue" points="841.83,-75.82 831.24,-75.52 839.32,-82.36 841.83,-75.82"/>
</g>
<!-- Node23&#45;&gt;Node21 -->
<g id="edge38" class="edge">
<title>Node23&#45;&gt;Node21</title>
<path fill="none" stroke="midnightblue" d="M989.78,-114.14C994.56,-113.39 999.39,-112.65 1004,-112 1137.26,-93.12 1174.85,-101.29 1310.87,-75.97"/>
<polygon fill="midnightblue" stroke="midnightblue" points="1311.66,-79.38 1320.84,-74.09 1310.36,-72.5 1311.66,-79.38"/>
</g>
<!-- Node23&#45;&gt;Node22 -->
<g id="edge39" class="edge">
<title>Node23&#45;&gt;Node22</title>
<path fill="none" stroke="midnightblue" d="M937.01,-112.45C917.86,-99.9 880.88,-75.81 849,-56 831.97,-45.41 812.55,-33.77 797.74,-24.98"/>
<polygon fill="midnightblue" stroke="midnightblue" points="799.13,-21.74 788.74,-19.66 795.56,-27.77 799.13,-21.74"/>
</g>
<!-- Node24 -->
<g id="node24" class="node">
<title>Node24</title>
<g id="a_node24"><a xlink:href="EnumWrapper_8h_source.html" target="_top" xlink:title=" ">
<polygon fill="white" stroke="black" points="1000,-56.5 1000,-75.5 1094,-75.5 1094,-56.5 1000,-56.5"/>
<text text-anchor="middle" x="1047" y="-63.5" font-family="Helvetica,sans-Serif" font-size="10.00">EnumWrapper.h</text>
</a>
</g>
</g>
<!-- Node23&#45;&gt;Node24 -->
<g id="edge29" class="edge">
<title>Node23&#45;&gt;Node24</title>
<path fill="none" stroke="midnightblue" d="M965.58,-112.32C981,-103.74 1004.81,-90.49 1022.71,-80.52"/>
<polygon fill="midnightblue" stroke="midnightblue" points="1024.42,-83.58 1031.45,-75.65 1021.01,-77.46 1024.42,-83.58"/>
</g>
<!-- Node27 -->
<g id="node27" class="node">
<title>Node27</title>
<g id="a_node27"><a xlink:href="clamp_8hpp_source.html" target="_top" xlink:title=" ">
<polygon fill="white" stroke="black" points="896,-56.5 896,-75.5 982,-75.5 982,-56.5 896,-56.5"/>
<text text-anchor="middle" x="939" y="-63.5" font-family="Helvetica,sans-Serif" font-size="10.00">stx/clamp.hpp</text>
</a>
</g>
</g>
<!-- Node23&#45;&gt;Node27 -->
<g id="edge33" class="edge">
<title>Node23&#45;&gt;Node27</title>
<path fill="none" stroke="midnightblue" d="M948.18,-112.08C946.73,-104.93 944.63,-94.64 942.81,-85.69"/>
<polygon fill="midnightblue" stroke="midnightblue" points="946.21,-84.85 940.78,-75.75 939.35,-86.25 946.21,-84.85"/>
</g>
<!-- Node29 -->
<g id="node29" class="node">
<title>Node29</title>
<g id="a_node29"><a xlink:title=" ">
<polygon fill="white" stroke="#bfbfbf" points="1112.5,-56.5 1112.5,-75.5 1191.5,-75.5 1191.5,-56.5 1112.5,-56.5"/>
<text text-anchor="middle" x="1152" y="-63.5" font-family="Helvetica,sans-Serif" font-size="10.00">wx/version.h</text>
</a>
</g>
</g>
<!-- Node23&#45;&gt;Node29 -->
<g id="edge36" class="edge">
<title>Node23&#45;&gt;Node29</title>
<path fill="none" stroke="midnightblue" d="M982.01,-112.44C1016.73,-103.16 1072.29,-88.31 1110.38,-78.13"/>
<polygon fill="midnightblue" stroke="midnightblue" points="1111.39,-81.48 1120.14,-75.52 1109.58,-74.72 1111.39,-81.48"/>
</g>
<!-- Node23&#45;&gt;Node30 -->
<g id="edge37" class="edge">
<title>Node23&#45;&gt;Node30</title>
<path fill="none" stroke="midnightblue" d="M989.55,-116.89C1085.32,-106.93 1325.22,-81.98 1378.68,-75.71"/>
<polygon fill="midnightblue" stroke="midnightblue" points="1379.36,-79.15 1388.84,-74.42 1378.47,-72.21 1379.36,-79.15"/>
</g>
<!-- Node31 -->
<g id="node31" class="node">
<title>Node31</title>
<g id="a_node31"><a xlink:title=" ">
<polygon fill="white" stroke="#bfbfbf" points="1209,-56.5 1209,-75.5 1253,-75.5 1253,-56.5 1209,-56.5"/>
<text text-anchor="middle" x="1231" y="-63.5" font-family="Helvetica,sans-Serif" font-size="10.00">limits</text>
</a>
</g>
</g>
<!-- Node23&#45;&gt;Node31 -->
<g id="edge40" class="edge">
<title>Node23&#45;&gt;Node31</title>
<path fill="none" stroke="midnightblue" d="M989.7,-114.14C1049.33,-103.8 1158.71,-84.69 1199,-76.16"/>
<polygon fill="midnightblue" stroke="midnightblue" points="1199.8,-79.57 1208.8,-73.97 1198.27,-72.74 1199.8,-79.57"/>
</g>
<!-- Node24&#45;&gt;Node22 -->
<g id="edge31" class="edge">
<title>Node24&#45;&gt;Node22</title>
<path fill="none" stroke="midnightblue" d="M1003.74,-56.44C952.54,-46.32 867.82,-29.56 816.81,-19.47"/>
<polygon fill="midnightblue" stroke="midnightblue" points="817.26,-15.99 806.77,-17.48 815.9,-22.86 817.26,-15.99"/>
</g>
<!-- Node25 -->
<g id="node25" class="node">
<title>Node25</title>
<g id="a_node25"><a xlink:title=" ">
<polygon fill="white" stroke="#bfbfbf" points="1084.5,-0.5 1084.5,-19.5 1137.5,-19.5 1137.5,-0.5 1084.5,-0.5"/>
<text text-anchor="middle" x="1111" y="-7.5" font-family="Helvetica,sans-Serif" font-size="10.00">cstddef</text>
</a>
</g>
</g>
<!-- Node24&#45;&gt;Node25 -->
<g id="edge30" class="edge">
<title>Node24&#45;&gt;Node25</title>
<path fill="none" stroke="midnightblue" d="M1057.28,-56.32C1066.84,-48.26 1081.28,-36.08 1092.78,-26.37"/>
<polygon fill="midnightblue" stroke="midnightblue" points="1095.14,-28.96 1100.53,-19.83 1090.63,-23.61 1095.14,-28.96"/>
</g>
<!-- Node26 -->
<g id="node26" class="node">
<title>Node26</title>
<g id="a_node26"><a xlink:title=" ">
<polygon fill="white" stroke="#bfbfbf" points="997.5,-0.5 997.5,-19.5 1066.5,-19.5 1066.5,-0.5 997.5,-0.5"/>
<text text-anchor="middle" x="1032" y="-7.5" font-family="Helvetica,sans-Serif" font-size="10.00">type_traits</text>
</a>
</g>
</g>
<!-- Node24&#45;&gt;Node26 -->
<g id="edge32" class="edge">
<title>Node24&#45;&gt;Node26</title>
<path fill="none" stroke="midnightblue" d="M1044.52,-56.08C1042.51,-48.85 1039.61,-38.41 1037.11,-29.4"/>
<polygon fill="midnightblue" stroke="midnightblue" points="1040.48,-28.45 1034.43,-19.75 1033.74,-30.32 1040.48,-28.45"/>
</g>
<!-- Node28 -->
<g id="node28" class="node">
<title>Node28</title>
<g id="a_node28"><a xlink:title=" ">
<polygon fill="white" stroke="#bfbfbf" points="913,-0.5 913,-19.5 965,-19.5 965,-0.5 913,-0.5"/>
<text text-anchor="middle" x="939" y="-7.5" font-family="Helvetica,sans-Serif" font-size="10.00">cassert</text>
</a>
</g>
</g>
<!-- Node27&#45;&gt;Node28 -->
<g id="edge34" class="edge">
<title>Node27&#45;&gt;Node28</title>
<path fill="none" stroke="midnightblue" d="M939,-56.08C939,-49.01 939,-38.86 939,-29.99"/>
<polygon fill="midnightblue" stroke="midnightblue" points="942.5,-29.75 939,-19.75 935.5,-29.75 942.5,-29.75"/>
</g>
<!-- Node32&#45;&gt;Node3 -->
<g id="edge42" class="edge">
<title>Node32&#45;&gt;Node3</title>
<path fill="none" stroke="midnightblue" d="M742.42,-115.95C727.06,-114.61 710.39,-113.2 695,-112 464.45,-94.03 188.08,-76.37 82.22,-69.74"/>
<polygon fill="midnightblue" stroke="midnightblue" points="82.41,-66.25 72.21,-69.12 81.98,-73.23 82.41,-66.25"/>
</g>
<!-- Node32&#45;&gt;Node19 -->
<g id="edge44" class="edge">
<title>Node32&#45;&gt;Node19</title>
<path fill="none" stroke="midnightblue" d="M799.82,-112.08C801.27,-104.93 803.37,-94.64 805.19,-85.69"/>
<polygon fill="midnightblue" stroke="midnightblue" points="808.65,-86.25 807.22,-75.75 801.79,-84.85 808.65,-86.25"/>
</g>
<!-- Node32&#45;&gt;Node22 -->
<g id="edge45" class="edge">
<title>Node32&#45;&gt;Node22</title>
<path fill="none" stroke="midnightblue" d="M758.75,-112.48C739,-105.99 716.82,-94.84 705,-76 691.72,-54.83 718.47,-35.9 742.44,-24.01"/>
<polygon fill="midnightblue" stroke="midnightblue" points="744.16,-27.07 751.73,-19.66 741.19,-20.73 744.16,-27.07"/>
</g>
<!-- Node32&#45;&gt;Node33 -->
<g id="edge43" class="edge">
<title>Node32&#45;&gt;Node33</title>
<path fill="none" stroke="midnightblue" d="M742.41,-113.26C662.88,-102.2 518.61,-82.12 449.28,-72.47"/>
<polygon fill="midnightblue" stroke="midnightblue" points="449.6,-68.98 439.21,-71.07 448.63,-75.91 449.6,-68.98"/>
</g>
<!-- Node32&#45;&gt;Node34 -->
<g id="edge46" class="edge">
<title>Node32&#45;&gt;Node34</title>
<path fill="none" stroke="midnightblue" d="M853.84,-115.96C964.04,-105.96 1203.19,-84.01 1260.62,-75.32"/>
<polygon fill="midnightblue" stroke="midnightblue" points="1261.54,-78.71 1270.77,-73.5 1260.31,-71.82 1261.54,-78.71"/>
</g>
<!-- Node35 -->
<g id="node35" class="node">
<title>Node35</title>
<g id="a_node35"><a xlink:title=" ">
<polygon fill="white" stroke="#bfbfbf" points="714.5,-56.5 714.5,-75.5 759.5,-75.5 759.5,-56.5 714.5,-56.5"/>
<text text-anchor="middle" x="737" y="-63.5" font-family="Helvetica,sans-Serif" font-size="10.00">utility</text>
</a>
</g>
</g>
<!-- Node32&#45;&gt;Node35 -->
<g id="edge47" class="edge">
<title>Node32&#45;&gt;Node35</title>
<path fill="none" stroke="midnightblue" d="M788.2,-112.32C779.18,-104.34 765.59,-92.31 754.68,-82.65"/>
<polygon fill="midnightblue" stroke="midnightblue" points="756.79,-79.84 746.98,-75.83 752.15,-85.08 756.79,-79.84"/>
</g>
<!-- Node32&#45;&gt;Node36 -->
<g id="edge48" class="edge">
<title>Node32&#45;&gt;Node36</title>
<path fill="none" stroke="midnightblue" d="M756.8,-112.44C711.35,-103 638.16,-87.8 589.09,-77.61"/>
<polygon fill="midnightblue" stroke="midnightblue" points="589.51,-74.12 579.01,-75.52 588.08,-80.98 589.51,-74.12"/>
</g>
<!-- Node41&#45;&gt;Node3 -->
<g id="edge57" class="edge">
<title>Node41&#45;&gt;Node3</title>
<path fill="none" stroke="midnightblue" d="M710.94,-285.12C571.78,-269.58 64.78,-211.52 40,-188 12.41,-161.81 22.85,-112.14 31.32,-85.3"/>
<polygon fill="midnightblue" stroke="midnightblue" points="34.7,-86.23 34.61,-75.63 28.08,-83.98 34.7,-86.23"/>
</g>
<!-- Node41&#45;&gt;Node6 -->
<g id="edge58" class="edge">
<title>Node41&#45;&gt;Node6</title>
<path fill="none" stroke="midnightblue" d="M772.24,-280.46C832.14,-260.97 979.04,-213.16 1047.62,-190.84"/>
<polygon fill="midnightblue" stroke="midnightblue" points="1049.12,-194.03 1057.54,-187.61 1046.95,-187.38 1049.12,-194.03"/>
</g>
<!-- Node41&#45;&gt;Node9 -->
<g id="edge59" class="edge">
<title>Node41&#45;&gt;Node9</title>
<path fill="none" stroke="midnightblue" d="M734.11,-280.32C722.85,-272.11 705.71,-259.6 692.29,-249.81"/>
<polygon fill="midnightblue" stroke="midnightblue" points="694.25,-246.9 684.11,-243.83 690.12,-252.56 694.25,-246.9"/>
</g>
</g>
</svg>
        <g id="navigator" transform="translate(0 0)" fill="#404254">
                <rect fill="#f2f5e9" fill-opacity="0.5" stroke="#606060" stroke-width=".5" x="0" y="0" width="60" height="60"/>
                <use id="zoomplus" xlink:href="#zoomPlus" x="17" y="9" onmousedown="handleZoom(evt,'in')"/>
                <use id="zoomminus" xlink:href="#zoomMin" x="42" y="9" onmousedown="handleZoom(evt,'out')"/>
                <use id="reset" xlink:href="#resetDef" x="30" y="36" onmousedown="handleReset()"/>
                <g id="arrowUp" xlink:href="#dirArrow" transform="translate(30 24)" onmousedown="handlePan(0,-1)">
                  <use xlink:href="#rim" fill="#404040">
                        <set attributeName="fill" to="#808080" begin="arrowUp.mouseover" end="arrowUp.mouseout"/>
                  </use>
                  <path fill="none" stroke="white" stroke-width="1.5" d="M0,-3.0v7 M-2.5,-0.5L0,-3.0L2.5,-0.5"/>
                </g>
                <g id="arrowRight" xlink:href="#dirArrow" transform="rotate(90) translate(36 -43)" onmousedown="handlePan(1,0)">
                  <use xlink:href="#rim" fill="#404040">
                        <set attributeName="fill" to="#808080" begin="arrowRight.mouseover" end="arrowRight.mouseout"/>
                  </use>
                  <path fill="none" stroke="white" stroke-width="1.5" d="M0,-3.0v7 M-2.5,-0.5L0,-3.0L2.5,-0.5"/>
                </g>
                <g id="arrowDown" xlink:href="#dirArrow" transform="rotate(180) translate(-30 -48)" onmousedown="handlePan(0,1)">
                  <use xlink:href="#rim" fill="#404040">
                        <set attributeName="fill" to="#808080" begin="arrowDown.mouseover" end="arrowDown.mouseout"/>
                  </use>
                  <path fill="none" stroke="white" stroke-width="1.5" d="M0,-3.0v7 M-2.5,-0.5L0,-3.0L2.5,-0.5"/>
                </g>
                <g id="arrowLeft" xlink:href="#dirArrow" transform="rotate(270) translate(-36 17)" onmousedown="handlePan(-1,0)">
                  <use xlink:href="#rim" fill="#404040">
                        <set attributeName="fill" to="#808080" begin="arrowLeft.mouseover" end="arrowLeft.mouseout"/>
                  </use>
                  <path fill="none" stroke="white" stroke-width="1.5" d="M0,-3.0v7 M-2.5,-0.5L0,-3.0L2.5,-0.5"/>
                </g>
        </g>
        <svg viewBox="0 0 15 15" width="100%" height="30px" preserveAspectRatio="xMaxYMin meet">
         <g id="arrow_out" transform="scale(0.3 0.3)">
          <a xlink:href="History_8cpp__incl_org.svg" target="_base">
           <rect id="button" ry="5" rx="5" y="6" x="6" height="38" width="38"
                fill="#f2f5e9" fill-opacity="0.5" stroke="#606060" stroke-width="1.0"/>
           <path id="arrow"
             d="M 11.500037,31.436501 C 11.940474,20.09759 22.043105,11.32322 32.158766,21.979434 L 37.068811,17.246167 C 37.068811,17.246167 37.088388,32 37.088388,32 L 22.160133,31.978069 C 22.160133,31.978069 26.997745,27.140456 26.997745,27.140456 C 18.528582,18.264221 13.291696,25.230495 11.500037,31.436501 z"
             style="fill:#404040;"/>
          </a>
         </g>
        </svg>
</svg>
