<?xml version="1.0" encoding="UTF-8" standalone="no"?>
<!DOCTYPE svg PUBLIC "-//W3C//DTD SVG 1.1//EN"
 "http://www.w3.org/Graphics/SVG/1.1/DTD/svg11.dtd">
<!-- Generated by graphviz version 2.43.0 (0)
 -->
<!-- Title: src/Image.h Pages: 1 -->
<!--zoomable 467 -->
<svg id="main" version="1.1" xmlns="http://www.w3.org/2000/svg" xmlns:xlink="http://www.w3.org/1999/xlink" xml:space="preserve" onload="init(evt)">
<style type="text/css"><![CDATA[
.edge:hover path { stroke: red; }
.edge:hover polygon { stroke: red; fill: red; }
]]></style>
<script type="text/javascript"><![CDATA[
var edges = document.getElementsByTagName('g');
if (edges && edges.length) {
  for (var i=0;i<edges.length;i++) {
    if (edges[i].id.substr(0,4)=='edge') {
      edges[i].setAttribute('class','edge');
    }
  }
}
]]></script>
        <defs>
                <circle id="rim" cx="0" cy="0" r="7"/>
                <circle id="rim2" cx="0" cy="0" r="3.5"/>
                <g id="zoomPlus">
                        <use xlink:href="#rim" fill="#404040">
                                <set attributeName="fill" to="#808080" begin="zoomplus.mouseover" end="zoomplus.mouseout"/>
                        </use>
                        <path d="M-4,0h8M0,-4v8" fill="none" stroke="white" stroke-width="1.5" pointer-events="none"/>
                </g>
                <g id="zoomMin">
                        <use xlink:href="#rim" fill="#404040">
                                <set attributeName="fill" to="#808080" begin="zoomminus.mouseover" end="zoomminus.mouseout"/>
                        </use>
                        <path d="M-4,0h8" fill="none" stroke="white" stroke-width="1.5" pointer-events="none"/>
                </g>
                <g id="dirArrow">
                        <path fill="none" stroke="white" stroke-width="1.5" d="M0,-3.0v7 M-2.5,-0.5L0,-3.0L2.5,-0.5"/>
                </g>
               <g id="resetDef">
                       <use xlink:href="#rim2" fill="#404040">
                               <set attributeName="fill" to="#808080" begin="reset.mouseover" end="reset.mouseout"/>
                       </use>
               </g>
        </defs>

<script type="text/javascript">
var viewWidth = 1301;
var viewHeight = 467;
var sectionId = 'dynsection-1';
</script>
<script xlink:href="svgpan.js"/>
<svg id="graph" class="graph">
<g id="viewport">
<title>src/Image.h</title>
<!-- Node1 -->
<g id="node1" class="node">
<title>Node1</title>
<g id="a_node1"><a xlink:title="This file declares the class Image.">
<polygon fill="#999999" stroke="#666666" points="516.71,-459 442.71,-459 442.71,-440 516.71,-440 516.71,-459"/>
<text text-anchor="middle" x="479.71" y="-447" font-family="Helvetica,sans-Serif" font-size="10.00">src/Image.h</text>
</a>
</g>
</g>
<!-- Node2 -->
<g id="node2" class="node">
<title>Node2</title>
<g id="a_node2"><a xlink:href="Image_8cpp.html" target="_top" xlink:title="This file declares the class Image.">
<polygon fill="white" stroke="#666666" points="286.21,-404 201.21,-404 201.21,-385 286.21,-385 286.21,-404"/>
<text text-anchor="middle" x="243.71" y="-392" font-family="Helvetica,sans-Serif" font-size="10.00">src/Image.cpp</text>
</a>
</g>
</g>
<!-- Node1&#45;&gt;Node2 -->
<g id="edge1" class="edge">
<title>Node1&#45;&gt;Node2</title>
<path fill="none" stroke="#63b8ff" d="M432.64,-437.93C388.36,-427.98 322.89,-413.28 281.8,-404.05"/>
<polygon fill="#63b8ff" stroke="#63b8ff" points="432.05,-441.38 442.58,-440.16 433.59,-434.55 432.05,-441.38"/>
</g>
<!-- Node3 -->
<g id="node3" class="node">
<title>Node3</title>
<g id="a_node3"><a xlink:href="StatusBar_8cpp.html" target="_top" xlink:title="This file defines the contents of the class StatusBar that represents wxMaxima&#39;s status bar.">
<polygon fill="white" stroke="#666666" points="405.21,-404 304.21,-404 304.21,-385 405.21,-385 405.21,-404"/>
<text text-anchor="middle" x="354.71" y="-392" font-family="Helvetica,sans-Serif" font-size="10.00">src/StatusBar.cpp</text>
</a>
</g>
</g>
<!-- Node1&#45;&gt;Node3 -->
<g id="edge2" class="edge">
<title>Node1&#45;&gt;Node3</title>
<path fill="none" stroke="#63b8ff" d="M450.3,-436.03C427.18,-426.23 395.59,-412.83 375.16,-404.17"/>
<polygon fill="#63b8ff" stroke="#63b8ff" points="449.06,-439.3 459.63,-439.98 451.79,-432.86 449.06,-439.3"/>
</g>
<!-- Node4 -->
<g id="node4" class="node">
<title>Node4</title>
<g id="a_node4"><a xlink:href="ToolBar_8cpp.html" target="_top" xlink:title="This file defines the class ToolBar that represents wxMaxima&#39;s main tool bar.">
<polygon fill="white" stroke="#666666" points="906.21,-239 817.21,-239 817.21,-220 906.21,-220 906.21,-239"/>
<text text-anchor="middle" x="861.71" y="-227" font-family="Helvetica,sans-Serif" font-size="10.00">src/ToolBar.cpp</text>
</a>
</g>
</g>
<!-- Node1&#45;&gt;Node4 -->
<g id="edge3" class="edge">
<title>Node1&#45;&gt;Node4</title>
<path fill="none" stroke="#63b8ff" d="M527.06,-441.07C589.22,-429.55 699.71,-402.86 778.71,-349 821.26,-320 848.89,-261.46 858.21,-239.28"/>
<polygon fill="#63b8ff" stroke="#63b8ff" points="526.36,-437.64 517.14,-442.86 527.6,-444.53 526.36,-437.64"/>
</g>
<!-- Node5 -->
<g id="node5" class="node">
<title>Node5</title>
<g id="a_node5"><a xlink:href="AnimationCell_8h.html" target="_top" xlink:title="This file declares the class AnimationCell.">
<polygon fill="white" stroke="#666666" points="688.21,-349 551.21,-349 551.21,-330 688.21,-330 688.21,-349"/>
<text text-anchor="middle" x="619.71" y="-337" font-family="Helvetica,sans-Serif" font-size="10.00">src/cells/AnimationCell.h</text>
</a>
</g>
</g>
<!-- Node1&#45;&gt;Node5 -->
<g id="edge4" class="edge">
<title>Node1&#45;&gt;Node5</title>
<path fill="none" stroke="#63b8ff" d="M526.88,-441.58C551.93,-435.59 581.44,-424.5 600.71,-404 615.22,-388.57 618.69,-362.52 619.49,-349.08"/>
<polygon fill="#63b8ff" stroke="#63b8ff" points="525.84,-438.22 516.81,-443.77 527.33,-445.06 525.84,-438.22"/>
</g>
<!-- Node25 -->
<g id="node25" class="node">
<title>Node25</title>
<g id="a_node25"><a xlink:href="ImgCell_8h_source.html" target="_top" xlink:title=" ">
<polygon fill="white" stroke="#666666" points="303.71,-349 197.71,-349 197.71,-330 303.71,-330 303.71,-349"/>
<text text-anchor="middle" x="250.71" y="-337" font-family="Helvetica,sans-Serif" font-size="10.00">src/cells/ImgCell.h</text>
</a>
</g>
</g>
<!-- Node1&#45;&gt;Node25 -->
<g id="edge37" class="edge">
<title>Node1&#45;&gt;Node25</title>
<path fill="none" stroke="#63b8ff" d="M466.38,-431.59C454.15,-417.18 434.78,-396.96 413.71,-385 379.78,-365.74 337.11,-354.48 303.94,-348.11"/>
<polygon fill="#63b8ff" stroke="#63b8ff" points="463.98,-434.17 473.02,-439.68 469.39,-429.73 463.98,-434.17"/>
</g>
<!-- Node27 -->
<g id="node27" class="node">
<title>Node27</title>
<g id="a_node27"><a xlink:href="ImgCellBase_8h_source.html" target="_top" xlink:title=" ">
<polygon fill="white" stroke="#666666" points="591.71,-404 461.71,-404 461.71,-385 591.71,-385 591.71,-404"/>
<text text-anchor="middle" x="526.71" y="-392" font-family="Helvetica,sans-Serif" font-size="10.00">src/cells/ImgCellBase.h</text>
</a>
</g>
</g>
<!-- Node1&#45;&gt;Node27 -->
<g id="edge45" class="edge">
<title>Node1&#45;&gt;Node27</title>
<path fill="none" stroke="#63b8ff" d="M494.13,-432.24C502.37,-422.95 512.37,-411.68 519.1,-404.09"/>
<polygon fill="#63b8ff" stroke="#63b8ff" points="491.49,-429.94 487.47,-439.75 496.73,-434.59 491.49,-429.94"/>
</g>
<!-- Node6 -->
<g id="node6" class="node">
<title>Node6</title>
<g id="a_node6"><a xlink:href="MathParser_8cpp.html" target="_top" xlink:title="This file defines the class MathParser that reads wxmx data and math from Maxima.">
<polygon fill="white" stroke="#666666" points="386.71,-294 278.71,-294 278.71,-275 386.71,-275 386.71,-294"/>
<text text-anchor="middle" x="332.71" y="-282" font-family="Helvetica,sans-Serif" font-size="10.00">src/MathParser.cpp</text>
</a>
</g>
</g>
<!-- Node5&#45;&gt;Node6 -->
<g id="edge5" class="edge">
<title>Node5&#45;&gt;Node6</title>
<path fill="none" stroke="#63b8ff" d="M563.54,-328.13C509.73,-318.19 429.49,-303.37 379.19,-294.08"/>
<polygon fill="#63b8ff" stroke="#63b8ff" points="563.13,-331.61 573.6,-329.98 564.4,-324.73 563.13,-331.61"/>
</g>
<!-- Node7 -->
<g id="node7" class="node">
<title>Node7</title>
<g id="a_node7"><a xlink:href="ToolBar_8h.html" target="_top" xlink:title="This file declares the class ToolBar that represents wxMaxima&#39;s main tool bar.">
<polygon fill="white" stroke="#666666" points="801.71,-294 723.71,-294 723.71,-275 801.71,-275 801.71,-294"/>
<text text-anchor="middle" x="762.71" y="-282" font-family="Helvetica,sans-Serif" font-size="10.00">src/ToolBar.h</text>
</a>
</g>
</g>
<!-- Node5&#45;&gt;Node7 -->
<g id="edge6" class="edge">
<title>Node5&#45;&gt;Node7</title>
<path fill="none" stroke="#63b8ff" d="M652.3,-326.42C678.83,-316.59 715.64,-302.95 739.32,-294.17"/>
<polygon fill="#63b8ff" stroke="#63b8ff" points="650.85,-323.23 642.69,-329.98 653.28,-329.79 650.85,-323.23"/>
</g>
<!-- Node8 -->
<g id="node8" class="node">
<title>Node8</title>
<g id="a_node8"><a xlink:href="Worksheet_8h.html" target="_top" xlink:title="This file defines the class Worksheet.">
<polygon fill="white" stroke="#666666" points="793.21,-239 698.21,-239 698.21,-220 793.21,-220 793.21,-239"/>
<text text-anchor="middle" x="745.71" y="-227" font-family="Helvetica,sans-Serif" font-size="10.00">src/Worksheet.h</text>
</a>
</g>
</g>
<!-- Node5&#45;&gt;Node8 -->
<g id="edge33" class="edge">
<title>Node5&#45;&gt;Node8</title>
<path fill="none" stroke="#63b8ff" d="M637.39,-323.38C647.46,-314.77 660.29,-303.79 671.71,-294 694.59,-274.39 721.43,-251.35 735.66,-239.13"/>
<polygon fill="#63b8ff" stroke="#63b8ff" points="635.01,-320.81 629.68,-329.97 639.56,-326.13 635.01,-320.81"/>
</g>
<!-- Node9 -->
<g id="node9" class="node">
<title>Node9</title>
<g id="a_node9"><a xlink:href="Worksheet_8cpp.html" target="_top" xlink:title="This file defines the class Worksheet.">
<polygon fill="white" stroke="#666666" points="515.71,-74 409.71,-74 409.71,-55 515.71,-55 515.71,-74"/>
<text text-anchor="middle" x="462.71" y="-62" font-family="Helvetica,sans-Serif" font-size="10.00">src/Worksheet.cpp</text>
</a>
</g>
</g>
<!-- Node5&#45;&gt;Node9 -->
<g id="edge32" class="edge">
<title>Node5&#45;&gt;Node9</title>
<path fill="none" stroke="#63b8ff" d="M616.59,-319.67C613.43,-305.82 607.29,-287.34 595.71,-275 528.62,-203.48 447.86,-266.41 394.71,-184 368.87,-143.93 425.53,-93.73 451.07,-74.01"/>
<polygon fill="#63b8ff" stroke="#63b8ff" points="613.18,-320.43 618.53,-329.57 620.05,-319.08 613.18,-320.43"/>
</g>
<!-- Node11 -->
<g id="node11" class="node">
<title>Node11</title>
<g id="a_node11"><a xlink:href="GroupCell_8cpp.html" target="_top" xlink:title="This file defines the class GroupCell.">
<polygon fill="white" stroke="#666666" points="531.71,-184 403.71,-184 403.71,-165 531.71,-165 531.71,-184"/>
<text text-anchor="middle" x="467.71" y="-172" font-family="Helvetica,sans-Serif" font-size="10.00">src/cells/GroupCell.cpp</text>
</a>
</g>
</g>
<!-- Node5&#45;&gt;Node11 -->
<g id="edge35" class="edge">
<title>Node5&#45;&gt;Node11</title>
<path fill="none" stroke="#63b8ff" d="M630.08,-320.64C636.34,-307.33 641.69,-289.09 633.71,-275 604.98,-224.28 538.94,-196.6 499.37,-184.04"/>
<polygon fill="#63b8ff" stroke="#63b8ff" points="626.87,-319.23 625.33,-329.71 633.07,-322.47 626.87,-319.23"/>
</g>
<!-- Node14 -->
<g id="node14" class="node">
<title>Node14</title>
<g id="a_node14"><a xlink:href="wxMaxima_8cpp.html" target="_top" xlink:title="This file defines the contents of the class wxMaxima that contains most of the program&#39;s logic.">
<polygon fill="white" stroke="#666666" points="668.71,-19 560.71,-19 560.71,0 668.71,0 668.71,-19"/>
<text text-anchor="middle" x="614.71" y="-7" font-family="Helvetica,sans-Serif" font-size="10.00">src/wxMaxima.cpp</text>
</a>
</g>
</g>
<!-- Node5&#45;&gt;Node14 -->
<g id="edge36" class="edge">
<title>Node5&#45;&gt;Node14</title>
<path fill="none" stroke="#63b8ff" d="M608.41,-321.12C598.16,-306.7 581.75,-286.72 562.71,-275 510.56,-242.9 481.11,-272.29 429.71,-239 403.2,-221.83 395.33,-213.75 384.71,-184 381.87,-176.05 384.1,-173.42 384.71,-165 388.28,-115.73 366.85,-90.98 400.71,-55 422.14,-32.24 504.62,-20.34 560.69,-14.75"/>
<polygon fill="#63b8ff" stroke="#63b8ff" points="605.7,-323.36 614.23,-329.65 611.49,-319.41 605.7,-323.36"/>
</g>
<!-- Node24 -->
<g id="node24" class="node">
<title>Node24</title>
<g id="a_node24"><a xlink:href="AnimationCell_8cpp.html" target="_top" xlink:title="This file defines the class AnimationCell.">
<polygon fill="white" stroke="#666666" points="554.21,-294 405.21,-294 405.21,-275 554.21,-275 554.21,-294"/>
<text text-anchor="middle" x="479.71" y="-282" font-family="Helvetica,sans-Serif" font-size="10.00">src/cells/AnimationCell.cpp</text>
</a>
</g>
</g>
<!-- Node5&#45;&gt;Node24 -->
<g id="edge34" class="edge">
<title>Node5&#45;&gt;Node24</title>
<path fill="none" stroke="#63b8ff" d="M587.8,-326.42C561.83,-316.59 525.8,-302.95 502.62,-294.17"/>
<polygon fill="#63b8ff" stroke="#63b8ff" points="586.63,-329.72 597.22,-329.98 589.11,-323.17 586.63,-329.72"/>
</g>
<!-- Node7&#45;&gt;Node4 -->
<g id="edge7" class="edge">
<title>Node7&#45;&gt;Node4</title>
<path fill="none" stroke="#63b8ff" d="M787.49,-270.23C805.65,-260.51 829.77,-247.6 845.52,-239.17"/>
<polygon fill="#63b8ff" stroke="#63b8ff" points="785.78,-267.18 778.62,-274.98 789.09,-273.35 785.78,-267.18"/>
</g>
<!-- Node7&#45;&gt;Node8 -->
<g id="edge8" class="edge">
<title>Node7&#45;&gt;Node8</title>
<path fill="none" stroke="#63b8ff" d="M756.76,-264.95C753.94,-256.15 750.7,-246.06 748.47,-239.09"/>
<polygon fill="#63b8ff" stroke="#63b8ff" points="753.52,-266.29 759.91,-274.75 760.18,-264.16 753.52,-266.29"/>
</g>
<!-- Node8&#45;&gt;Node9 -->
<g id="edge9" class="edge">
<title>Node8&#45;&gt;Node9</title>
<path fill="none" stroke="#63b8ff" d="M687.98,-220.93C654.38,-214.68 612.18,-203.53 578.71,-184 527.74,-154.25 484.02,-96.16 468.62,-74.19"/>
<polygon fill="#63b8ff" stroke="#63b8ff" points="687.66,-224.43 698.12,-222.72 688.88,-217.54 687.66,-224.43"/>
</g>
<!-- Node10 -->
<g id="node10" class="node">
<title>Node10</title>
<g id="a_node10"><a xlink:href="Cell_8cpp.html" target="_top" xlink:title="This file defines the class Cell.">
<polygon fill="white" stroke="#666666" points="1005.71,-184 907.71,-184 907.71,-165 1005.71,-165 1005.71,-184"/>
<text text-anchor="middle" x="956.71" y="-172" font-family="Helvetica,sans-Serif" font-size="10.00">src/cells/Cell.cpp</text>
</a>
</g>
</g>
<!-- Node8&#45;&gt;Node10 -->
<g id="edge10" class="edge">
<title>Node8&#45;&gt;Node10</title>
<path fill="none" stroke="#63b8ff" d="M789.5,-217.5C829.01,-207.58 886.33,-193.18 922.55,-184.08"/>
<polygon fill="#63b8ff" stroke="#63b8ff" points="788.46,-214.15 779.61,-219.98 790.16,-220.94 788.46,-214.15"/>
</g>
<!-- Node8&#45;&gt;Node11 -->
<g id="edge11" class="edge">
<title>Node8&#45;&gt;Node11</title>
<path fill="none" stroke="#63b8ff" d="M690.98,-218.07C638.86,-208.13 561.36,-193.35 512.73,-184.08"/>
<polygon fill="#63b8ff" stroke="#63b8ff" points="690.57,-221.55 701.05,-219.98 691.88,-214.67 690.57,-221.55"/>
</g>
<!-- Node12 -->
<g id="node12" class="node">
<title>Node12</title>
<g id="a_node12"><a xlink:href="ConfigDialogue_8h.html" target="_top" xlink:title="The configuration dialog.">
<polygon fill="white" stroke="#666666" points="997.21,-74 842.21,-74 842.21,-55 997.21,-55 997.21,-74"/>
<text text-anchor="middle" x="919.71" y="-62" font-family="Helvetica,sans-Serif" font-size="10.00">src/dialogs/ConfigDialogue.h</text>
</a>
</g>
</g>
<!-- Node8&#45;&gt;Node12 -->
<g id="edge12" class="edge">
<title>Node8&#45;&gt;Node12</title>
<path fill="none" stroke="#63b8ff" d="M803.89,-219.88C940.66,-199.32 1272.34,-147.78 1287.71,-129 1325.75,-82.53 1116.04,-70.06 997.21,-66.72"/>
<polygon fill="#63b8ff" stroke="#63b8ff" points="802.97,-216.47 793.6,-221.42 804.01,-223.4 802.97,-216.47"/>
</g>
<!-- Node15 -->
<g id="node15" class="node">
<title>Node15</title>
<g id="a_node15"><a xlink:href="Printout_8cpp.html" target="_top" xlink:title="This file defines the class MathPrintOut.">
<polygon fill="white" stroke="#666666" points="743.21,-184 588.21,-184 588.21,-165 743.21,-165 743.21,-184"/>
<text text-anchor="middle" x="665.71" y="-172" font-family="Helvetica,sans-Serif" font-size="10.00">src/graphical_io/Printout.cpp</text>
</a>
</g>
</g>
<!-- Node8&#45;&gt;Node15 -->
<g id="edge15" class="edge">
<title>Node8&#45;&gt;Node15</title>
<path fill="none" stroke="#63b8ff" d="M724.47,-214.42C709.95,-204.81 691.17,-192.37 678.8,-184.17"/>
<polygon fill="#63b8ff" stroke="#63b8ff" points="722.59,-217.38 732.86,-219.98 726.46,-211.54 722.59,-217.38"/>
</g>
<!-- Node16 -->
<g id="node16" class="node">
<title>Node16</title>
<g id="a_node16"><a xlink:href="wxMaximaFrame_8h.html" target="_top" xlink:title="This file declares the class wxMaximaFrame.">
<polygon fill="white" stroke="#666666" points="889.71,-184 761.71,-184 761.71,-165 889.71,-165 889.71,-184"/>
<text text-anchor="middle" x="825.71" y="-172" font-family="Helvetica,sans-Serif" font-size="10.00">src/wxMaximaFrame.h</text>
</a>
</g>
</g>
<!-- Node8&#45;&gt;Node16 -->
<g id="edge16" class="edge">
<title>Node8&#45;&gt;Node16</title>
<path fill="none" stroke="#63b8ff" d="M766.96,-214.42C781.48,-204.81 800.25,-192.37 812.63,-184.17"/>
<polygon fill="#63b8ff" stroke="#63b8ff" points="764.97,-211.54 758.57,-219.98 768.84,-217.38 764.97,-211.54"/>
</g>
<!-- Node13 -->
<g id="node13" class="node">
<title>Node13</title>
<g id="a_node13"><a xlink:href="main_8cpp.html" target="_top" xlink:title="The file that defines the starting point of the program.">
<polygon fill="white" stroke="#666666" points="914.21,-19 835.21,-19 835.21,0 914.21,0 914.21,-19"/>
<text text-anchor="middle" x="874.71" y="-7" font-family="Helvetica,sans-Serif" font-size="10.00">src/main.cpp</text>
</a>
</g>
</g>
<!-- Node12&#45;&gt;Node13 -->
<g id="edge13" class="edge">
<title>Node12&#45;&gt;Node13</title>
<path fill="none" stroke="#63b8ff" d="M905.67,-46.96C897.83,-37.72 888.38,-26.6 882,-19.09"/>
<polygon fill="#63b8ff" stroke="#63b8ff" points="903.14,-49.39 912.28,-54.75 908.48,-44.86 903.14,-49.39"/>
</g>
<!-- Node12&#45;&gt;Node14 -->
<g id="edge14" class="edge">
<title>Node12&#45;&gt;Node14</title>
<path fill="none" stroke="#63b8ff" d="M860.72,-53.25C803.44,-43.3 717.51,-28.36 663.85,-19.04"/>
<polygon fill="#63b8ff" stroke="#63b8ff" points="860.26,-56.72 870.71,-54.98 861.46,-49.82 860.26,-56.72"/>
</g>
<!-- Node16&#45;&gt;Node9 -->
<g id="edge18" class="edge">
<title>Node16&#45;&gt;Node9</title>
<path fill="none" stroke="#63b8ff" d="M756.35,-163.33C712.79,-155.98 655.76,-144.6 606.71,-129 558.8,-113.76 505.37,-87.63 479.11,-74.13"/>
<polygon fill="#63b8ff" stroke="#63b8ff" points="755.84,-166.79 766.28,-164.97 756.98,-159.88 755.84,-166.79"/>
</g>
<!-- Node17 -->
<g id="node17" class="node">
<title>Node17</title>
<g id="a_node17"><a xlink:href="AutocompletePopup_8cpp.html" target="_top" xlink:title="This file defines the class AutocompletePopup.">
<polygon fill="white" stroke="#666666" points="1096.71,-129 944.71,-129 944.71,-110 1096.71,-110 1096.71,-129"/>
<text text-anchor="middle" x="1020.71" y="-117" font-family="Helvetica,sans-Serif" font-size="10.00">src/AutocompletePopup.cpp</text>
</a>
</g>
</g>
<!-- Node16&#45;&gt;Node17 -->
<g id="edge17" class="edge">
<title>Node16&#45;&gt;Node17</title>
<path fill="none" stroke="#63b8ff" d="M866.88,-162.31C903.37,-152.39 955.88,-138.12 989.14,-129.08"/>
<polygon fill="#63b8ff" stroke="#63b8ff" points="865.77,-158.98 857.04,-164.98 867.61,-165.74 865.77,-158.98"/>
</g>
<!-- Node18 -->
<g id="node18" class="node">
<title>Node18</title>
<g id="a_node18"><a xlink:href="EditorCell_8cpp.html" target="_top" xlink:title="This file defines the class EditorCell.">
<polygon fill="white" stroke="#666666" points="661.21,-74 534.21,-74 534.21,-55 661.21,-55 661.21,-74"/>
<text text-anchor="middle" x="597.71" y="-62" font-family="Helvetica,sans-Serif" font-size="10.00">src/cells/EditorCell.cpp</text>
</a>
</g>
</g>
<!-- Node16&#45;&gt;Node18 -->
<g id="edge19" class="edge">
<title>Node16&#45;&gt;Node18</title>
<path fill="none" stroke="#63b8ff" d="M751.5,-164.27C702.54,-156.85 644,-145.03 624.71,-129 607.76,-114.91 601.23,-88.27 598.9,-74.4"/>
<polygon fill="#63b8ff" stroke="#63b8ff" points="751.07,-167.74 761.47,-165.74 752.09,-160.82 751.07,-167.74"/>
</g>
<!-- Node19 -->
<g id="node19" class="node">
<title>Node19</title>
<g id="a_node19"><a xlink:href="main_8h.html" target="_top" xlink:title="This file declares the class wxMaxima that contains most of the program&#39;s logic.">
<polygon fill="white" stroke="#666666" points="785.71,-74 717.71,-74 717.71,-55 785.71,-55 785.71,-74"/>
<text text-anchor="middle" x="751.71" y="-62" font-family="Helvetica,sans-Serif" font-size="10.00">src/main.h</text>
</a>
</g>
</g>
<!-- Node16&#45;&gt;Node19 -->
<g id="edge20" class="edge">
<title>Node16&#45;&gt;Node19</title>
<path fill="none" stroke="#63b8ff" d="M806.04,-158.12C796.84,-150.18 786.27,-139.88 778.71,-129 766.41,-111.29 758.06,-87.09 754.18,-74.29"/>
<polygon fill="#63b8ff" stroke="#63b8ff" points="804.05,-161.01 813.98,-164.7 808.51,-155.63 804.05,-161.01"/>
</g>
<!-- Node21 -->
<g id="node21" class="node">
<title>Node21</title>
<g id="a_node21"><a xlink:href="GreekSidebar_8cpp.html" target="_top" xlink:title="This file defines the class GreekSidebar.">
<polygon fill="white" stroke="#666666" points="1278.71,-129 1114.71,-129 1114.71,-110 1278.71,-110 1278.71,-129"/>
<text text-anchor="middle" x="1196.71" y="-117" font-family="Helvetica,sans-Serif" font-size="10.00">src/sidebars/GreekSidebar.cpp</text>
</a>
</g>
</g>
<!-- Node16&#45;&gt;Node21 -->
<g id="edge24" class="edge">
<title>Node16&#45;&gt;Node21</title>
<path fill="none" stroke="#63b8ff" d="M895.32,-163.56C964.97,-153.61 1070.99,-138.46 1136.95,-129.04"/>
<polygon fill="#63b8ff" stroke="#63b8ff" points="894.72,-160.11 885.32,-164.98 895.71,-167.04 894.72,-160.11"/>
</g>
<!-- Node22 -->
<g id="node22" class="node">
<title>Node22</title>
<g id="a_node22"><a xlink:href="wxMaxima_8h.html" target="_top" xlink:title="This file declares the class wxMaxima that contains most of the program&#39;s logic.">
<polygon fill="white" stroke="#666666" points="730.21,-129 633.21,-129 633.21,-110 730.21,-110 730.21,-129"/>
<text text-anchor="middle" x="681.71" y="-117" font-family="Helvetica,sans-Serif" font-size="10.00">src/wxMaxima.h</text>
</a>
</g>
</g>
<!-- Node16&#45;&gt;Node22 -->
<g id="edge25" class="edge">
<title>Node16&#45;&gt;Node22</title>
<path fill="none" stroke="#63b8ff" d="M792.89,-161.42C766.18,-151.59 729.11,-137.95 705.27,-129.17"/>
<polygon fill="#63b8ff" stroke="#63b8ff" points="791.98,-164.82 802.58,-164.98 794.4,-158.25 791.98,-164.82"/>
</g>
<!-- Node23 -->
<g id="node23" class="node">
<title>Node23</title>
<g id="a_node23"><a xlink:href="wxMaximaFrame_8cpp.html" target="_top" xlink:title="This file defines the class wxMaximaFrame.">
<polygon fill="white" stroke="#666666" points="926.21,-129 787.21,-129 787.21,-110 926.21,-110 926.21,-129"/>
<text text-anchor="middle" x="856.71" y="-117" font-family="Helvetica,sans-Serif" font-size="10.00">src/wxMaximaFrame.cpp</text>
</a>
</g>
</g>
<!-- Node16&#45;&gt;Node23 -->
<g id="edge31" class="edge">
<title>Node16&#45;&gt;Node23</title>
<path fill="none" stroke="#63b8ff" d="M835.89,-156.1C841.19,-147.04 847.43,-136.37 851.69,-129.09"/>
<polygon fill="#63b8ff" stroke="#63b8ff" points="832.86,-154.35 830.83,-164.75 838.9,-157.88 832.86,-154.35"/>
</g>
<!-- Node19&#45;&gt;Node13 -->
<g id="edge22" class="edge">
<title>Node19&#45;&gt;Node13</title>
<path fill="none" stroke="#63b8ff" d="M780.96,-50.9C803.68,-41.11 834.58,-27.79 854.59,-19.17"/>
<polygon fill="#63b8ff" stroke="#63b8ff" points="779.27,-47.81 771.47,-54.98 782.04,-54.24 779.27,-47.81"/>
</g>
<!-- Node19&#45;&gt;Node14 -->
<g id="edge23" class="edge">
<title>Node19&#45;&gt;Node14</title>
<path fill="none" stroke="#63b8ff" d="M720.15,-51.29C694.76,-41.47 659.71,-27.91 637.12,-19.17"/>
<polygon fill="#63b8ff" stroke="#63b8ff" points="719.11,-54.64 729.7,-54.98 721.64,-48.11 719.11,-54.64"/>
</g>
<!-- Node20 -->
<g id="node20" class="node">
<title>Node20</title>
<g id="a_node20"><a xlink:href="MaximaManual_8cpp.html" target="_top" xlink:title="This file defines the class MaximaManual.">
<polygon fill="white" stroke="#666666" points="816.71,-19 686.71,-19 686.71,0 816.71,0 816.71,-19"/>
<text text-anchor="middle" x="751.71" y="-7" font-family="Helvetica,sans-Serif" font-size="10.00">src/MaximaManual.cpp</text>
</a>
</g>
</g>
<!-- Node19&#45;&gt;Node20 -->
<g id="edge21" class="edge">
<title>Node19&#45;&gt;Node20</title>
<path fill="none" stroke="#63b8ff" d="M751.71,-44.66C751.71,-35.93 751.71,-25.99 751.71,-19.09"/>
<polygon fill="#63b8ff" stroke="#63b8ff" points="748.21,-44.75 751.71,-54.75 755.21,-44.75 748.21,-44.75"/>
</g>
<!-- Node22&#45;&gt;Node9 -->
<g id="edge26" class="edge">
<title>Node22&#45;&gt;Node9</title>
<path fill="none" stroke="#63b8ff" d="M636.79,-107.63C595.76,-97.7 535.93,-83.22 498.17,-74.08"/>
<polygon fill="#63b8ff" stroke="#63b8ff" points="635.98,-111.03 646.53,-109.98 637.63,-104.23 635.98,-111.03"/>
</g>
<!-- Node22&#45;&gt;Node13 -->
<g id="edge28" class="edge">
<title>Node22&#45;&gt;Node13</title>
<path fill="none" stroke="#63b8ff" d="M719.74,-106.68C742.29,-98.92 771,-87.67 794.71,-74 822.67,-57.88 851.31,-32.59 865.53,-19.31"/>
<polygon fill="#63b8ff" stroke="#63b8ff" points="718.53,-103.4 710.17,-109.9 720.76,-110.03 718.53,-103.4"/>
</g>
<!-- Node22&#45;&gt;Node14 -->
<g id="edge30" class="edge">
<title>Node22&#45;&gt;Node14</title>
<path fill="none" stroke="#63b8ff" d="M681.9,-99.28C681.22,-86 678.66,-68.4 670.71,-55 661.34,-39.19 644.08,-26.79 631.2,-19.14"/>
<polygon fill="#63b8ff" stroke="#63b8ff" points="678.4,-99.68 682.1,-109.61 685.4,-99.55 678.4,-99.68"/>
</g>
<!-- Node22&#45;&gt;Node18 -->
<g id="edge27" class="edge">
<title>Node22&#45;&gt;Node18</title>
<path fill="none" stroke="#63b8ff" d="M659.4,-104.42C644.16,-94.81 624.44,-82.37 611.45,-74.17"/>
<polygon fill="#63b8ff" stroke="#63b8ff" points="657.89,-107.61 668.22,-109.98 661.63,-101.69 657.89,-107.61"/>
</g>
<!-- Node22&#45;&gt;Node19 -->
<g id="edge29" class="edge">
<title>Node22&#45;&gt;Node19</title>
<path fill="none" stroke="#63b8ff" d="M701.03,-103.88C713.62,-94.34 729.64,-82.21 740.26,-74.17"/>
<polygon fill="#63b8ff" stroke="#63b8ff" points="698.82,-101.16 692.96,-109.98 703.04,-106.74 698.82,-101.16"/>
</g>
<!-- Node25&#45;&gt;Node6 -->
<g id="edge38" class="edge">
<title>Node25&#45;&gt;Node6</title>
<path fill="none" stroke="#63b8ff" d="M272.49,-324.42C287.37,-314.81 306.62,-302.37 319.3,-294.17"/>
<polygon fill="#63b8ff" stroke="#63b8ff" points="270.39,-321.62 263.89,-329.98 274.19,-327.5 270.39,-321.62"/>
</g>
<!-- Node25&#45;&gt;Node8 -->
<g id="edge40" class="edge">
<title>Node25&#45;&gt;Node8</title>
<path fill="none" stroke="#63b8ff" d="M251,-319.53C252.32,-305.01 256.65,-285.71 269.71,-275 302.37,-248.23 583.89,-235.9 697.99,-231.97"/>
<polygon fill="#63b8ff" stroke="#63b8ff" points="247.49,-319.73 250.48,-329.9 254.48,-320.08 247.49,-319.73"/>
</g>
<!-- Node25&#45;&gt;Node9 -->
<g id="edge39" class="edge">
<title>Node25&#45;&gt;Node9</title>
<path fill="none" stroke="#63b8ff" d="M244.27,-320.29C240.71,-307.26 238.04,-289.53 243.71,-275 283.51,-173.05 403.21,-98.47 446.7,-74.08"/>
<polygon fill="#63b8ff" stroke="#63b8ff" points="240.97,-321.46 247.31,-329.95 247.65,-319.36 240.97,-321.46"/>
</g>
<!-- Node25&#45;&gt;Node11 -->
<g id="edge42" class="edge">
<title>Node25&#45;&gt;Node11</title>
<path fill="none" stroke="#63b8ff" d="M246.78,-319.73C245.01,-306.17 244.96,-288.03 253.71,-275 275.98,-241.84 388.49,-201.46 440.85,-184.11"/>
<polygon fill="#63b8ff" stroke="#63b8ff" points="243.37,-320.57 248.51,-329.83 250.27,-319.38 243.37,-320.57"/>
</g>
<!-- Node25&#45;&gt;Node14 -->
<g id="edge44" class="edge">
<title>Node25&#45;&gt;Node14</title>
<path fill="none" stroke="#63b8ff" d="M187.57,-333.64C127.87,-327.78 43.91,-315.88 19.71,-294 -2.14,-274.24 0.71,-259.96 0.71,-230.5 0.71,-230.5 0.71,-230.5 0.71,-118.5 0.71,-61.91 410.44,-25.71 560.49,-14.35"/>
<polygon fill="#63b8ff" stroke="#63b8ff" points="187.39,-337.14 197.68,-334.59 188.05,-330.17 187.39,-337.14"/>
</g>
<!-- Node25&#45;&gt;Node24 -->
<g id="edge41" class="edge">
<title>Node25&#45;&gt;Node24</title>
<path fill="none" stroke="#63b8ff" d="M297.42,-327.69C340.32,-317.76 403.07,-303.24 442.63,-294.08"/>
<polygon fill="#63b8ff" stroke="#63b8ff" points="296.46,-324.32 287.51,-329.98 298.04,-331.14 296.46,-324.32"/>
</g>
<!-- Node26 -->
<g id="node26" class="node">
<title>Node26</title>
<g id="a_node26"><a xlink:href="ImgCell_8cpp.html" target="_top" xlink:title="This file defines the class ImgCell.">
<polygon fill="white" stroke="#666666" points="146.21,-294 29.21,-294 29.21,-275 146.21,-275 146.21,-294"/>
<text text-anchor="middle" x="87.71" y="-282" font-family="Helvetica,sans-Serif" font-size="10.00">src/cells/ImgCell.cpp</text>
</a>
</g>
</g>
<!-- Node25&#45;&gt;Node26 -->
<g id="edge43" class="edge">
<title>Node25&#45;&gt;Node26</title>
<path fill="none" stroke="#63b8ff" d="M214.72,-326.8C184.3,-316.91 141.43,-302.97 114.11,-294.08"/>
<polygon fill="#63b8ff" stroke="#63b8ff" points="213.93,-330.22 224.52,-329.98 216.1,-323.56 213.93,-330.22"/>
</g>
<!-- Node27&#45;&gt;Node5 -->
<g id="edge47" class="edge">
<title>Node27&#45;&gt;Node5</title>
<path fill="none" stroke="#63b8ff" d="M550.46,-379.97C567.46,-370.28 589.85,-357.52 604.5,-349.17"/>
<polygon fill="#63b8ff" stroke="#63b8ff" points="548.61,-376.99 541.65,-384.98 552.08,-383.07 548.61,-376.99"/>
</g>
<!-- Node27&#45;&gt;Node8 -->
<g id="edge46" class="edge">
<title>Node27&#45;&gt;Node8</title>
<path fill="none" stroke="#63b8ff" d="M602.15,-391.53C670.62,-385.13 767.3,-363.41 810.71,-294 825.1,-270.99 790.81,-250.24 766.76,-239.09"/>
<polygon fill="#63b8ff" stroke="#63b8ff" points="601.51,-388.07 591.84,-392.4 602.1,-395.05 601.51,-388.07"/>
</g>
<!-- Node27&#45;&gt;Node25 -->
<g id="edge48" class="edge">
<title>Node27&#45;&gt;Node25</title>
<path fill="none" stroke="#63b8ff" d="M472.37,-383.07C420.63,-373.13 343.68,-358.35 295.4,-349.08"/>
<polygon fill="#63b8ff" stroke="#63b8ff" points="471.89,-386.54 482.37,-384.98 473.21,-379.66 471.89,-386.54"/>
</g>
<!-- Node28 -->
<g id="node28" class="node">
<title>Node28</title>
<g id="a_node28"><a xlink:href="ImgCellBase_8cpp.html" target="_top" xlink:title="This file defines the class ImgCellBase.">
<polygon fill="white" stroke="#666666" points="533.21,-349 392.21,-349 392.21,-330 533.21,-330 533.21,-349"/>
<text text-anchor="middle" x="462.71" y="-337" font-family="Helvetica,sans-Serif" font-size="10.00">src/cells/ImgCellBase.cpp</text>
</a>
</g>
</g>
<!-- Node27&#45;&gt;Node28 -->
<g id="edge49" class="edge">
<title>Node27&#45;&gt;Node28</title>
<path fill="none" stroke="#63b8ff" d="M508.72,-378.6C497.25,-369.11 482.8,-357.13 473.18,-349.17"/>
<polygon fill="#63b8ff" stroke="#63b8ff" points="506.5,-381.3 516.43,-384.98 510.96,-375.91 506.5,-381.3"/>
</g>
</g>
</svg>
        <g id="navigator" transform="translate(0 0)" fill="#404254">
                <rect fill="#f2f5e9" fill-opacity="0.5" stroke="#606060" stroke-width=".5" x="0" y="0" width="60" height="60"/>
                <use id="zoomplus" xlink:href="#zoomPlus" x="17" y="9" onmousedown="handleZoom(evt,'in')"/>
                <use id="zoomminus" xlink:href="#zoomMin" x="42" y="9" onmousedown="handleZoom(evt,'out')"/>
                <use id="reset" xlink:href="#resetDef" x="30" y="36" onmousedown="handleReset()"/>
                <g id="arrowUp" xlink:href="#dirArrow" transform="translate(30 24)" onmousedown="handlePan(0,-1)">
                  <use xlink:href="#rim" fill="#404040">
                        <set attributeName="fill" to="#808080" begin="arrowUp.mouseover" end="arrowUp.mouseout"/>
                  </use>
                  <path fill="none" stroke="white" stroke-width="1.5" d="M0,-3.0v7 M-2.5,-0.5L0,-3.0L2.5,-0.5"/>
                </g>
                <g id="arrowRight" xlink:href="#dirArrow" transform="rotate(90) translate(36 -43)" onmousedown="handlePan(1,0)">
                  <use xlink:href="#rim" fill="#404040">
                        <set attributeName="fill" to="#808080" begin="arrowRight.mouseover" end="arrowRight.mouseout"/>
                  </use>
                  <path fill="none" stroke="white" stroke-width="1.5" d="M0,-3.0v7 M-2.5,-0.5L0,-3.0L2.5,-0.5"/>
                </g>
                <g id="arrowDown" xlink:href="#dirArrow" transform="rotate(180) translate(-30 -48)" onmousedown="handlePan(0,1)">
                  <use xlink:href="#rim" fill="#404040">
                        <set attributeName="fill" to="#808080" begin="arrowDown.mouseover" end="arrowDown.mouseout"/>
                  </use>
                  <path fill="none" stroke="white" stroke-width="1.5" d="M0,-3.0v7 M-2.5,-0.5L0,-3.0L2.5,-0.5"/>
                </g>
                <g id="arrowLeft" xlink:href="#dirArrow" transform="rotate(270) translate(-36 17)" onmousedown="handlePan(-1,0)">
                  <use xlink:href="#rim" fill="#404040">
                        <set attributeName="fill" to="#808080" begin="arrowLeft.mouseover" end="arrowLeft.mouseout"/>
                  </use>
                  <path fill="none" stroke="white" stroke-width="1.5" d="M0,-3.0v7 M-2.5,-0.5L0,-3.0L2.5,-0.5"/>
                </g>
        </g>
        <svg viewBox="0 0 15 15" width="100%" height="30px" preserveAspectRatio="xMaxYMin meet">
         <g id="arrow_out" transform="scale(0.3 0.3)">
          <a xlink:href="Image_8h__dep__incl_org.svg" target="_base">
           <rect id="button" ry="5" rx="5" y="6" x="6" height="38" width="38"
                fill="#f2f5e9" fill-opacity="0.5" stroke="#606060" stroke-width="1.0"/>
           <path id="arrow"
             d="M 11.500037,31.436501 C 11.940474,20.09759 22.043105,11.32322 32.158766,21.979434 L 37.068811,17.246167 C 37.068811,17.246167 37.088388,32 37.088388,32 L 22.160133,31.978069 C 22.160133,31.978069 26.997745,27.140456 26.997745,27.140456 C 18.528582,18.264221 13.291696,25.230495 11.500037,31.436501 z"
             style="fill:#404040;"/>
          </a>
         </g>
        </svg>
</svg>
