<?xml version="1.0" encoding="UTF-8" standalone="no"?>
<!DOCTYPE svg PUBLIC "-//W3C//DTD SVG 1.1//EN"
 "http://www.w3.org/Graphics/SVG/1.1/DTD/svg11.dtd">
<!-- Generated by graphviz version 2.43.0 (0)
 -->
<!-- Title: src/cells/ImgCell.cpp Pages: 1 -->
<svg width="2184pt" height="412pt"
 viewBox="0.00 0.00 2183.50 412.00" xmlns="http://www.w3.org/2000/svg" xmlns:xlink="http://www.w3.org/1999/xlink">
<g id="graph0" class="graph" transform="scale(1 1) rotate(0) translate(4 408)">
<title>src/cells/ImgCell.cpp</title>
<!-- Node1 -->
<g id="node1" class="node">
<title>Node1</title>
<g id="a_node1"><a xlink:title="This file defines the class ImgCell.">
<polygon fill="#999999" stroke="#666666" points="1098,-404 981,-404 981,-385 1098,-385 1098,-404"/>
<text text-anchor="middle" x="1039.5" y="-392" font-family="Helvetica,sans-Serif" font-size="10.00">src/cells/ImgCell.cpp</text>
</a>
</g>
</g>
<!-- Node2 -->
<g id="node2" class="node">
<title>Node2</title>
<g id="a_node2"><a xlink:href="ImgCell_8h_source.html" target="_top" xlink:title=" ">
<polygon fill="white" stroke="#666666" points="1027,-349 964,-349 964,-330 1027,-330 1027,-349"/>
<text text-anchor="middle" x="995.5" y="-337" font-family="Helvetica,sans-Serif" font-size="10.00">ImgCell.h</text>
</a>
</g>
</g>
<!-- Node1&#45;&gt;Node2 -->
<g id="edge1" class="edge">
<title>Node1&#45;&gt;Node2</title>
<path fill="none" stroke="#63b8ff" d="M1032.23,-384.75C1025.96,-377.18 1016.71,-366.05 1009.07,-356.84"/>
<polygon fill="#63b8ff" stroke="#63b8ff" points="1011.71,-354.55 1002.63,-349.09 1006.33,-359.02 1011.71,-354.55"/>
</g>
<!-- Node13 -->
<g id="node13" class="node">
<title>Node13</title>
<g id="a_node13"><a xlink:title=" ">
<polygon fill="#e0e0e0" stroke="#999999" points="877.5,-129 819.5,-129 819.5,-110 877.5,-110 877.5,-129"/>
<text text-anchor="middle" x="848.5" y="-117" font-family="Helvetica,sans-Serif" font-size="10.00">memory</text>
</a>
</g>
</g>
<!-- Node1&#45;&gt;Node13 -->
<g id="edge86" class="edge">
<title>Node1&#45;&gt;Node13</title>
<path fill="none" stroke="#63b8ff" d="M1012.14,-384.9C991.22,-377.48 962.37,-365.38 940.5,-349 914.77,-329.72 908.36,-322.51 893.5,-294 866.35,-241.92 854.78,-172.32 850.56,-139.35"/>
<polygon fill="#63b8ff" stroke="#63b8ff" points="854.03,-138.82 849.37,-129.3 847.08,-139.64 854.03,-138.82"/>
</g>
<!-- Node49 -->
<g id="node26" class="node">
<title>Node49</title>
<g id="a_node26"><a xlink:href="StringUtils_8h_source.html" target="_top" xlink:title=" ">
<polygon fill="white" stroke="#666666" points="179,-184 102,-184 102,-165 179,-165 179,-184"/>
<text text-anchor="middle" x="140.5" y="-172" font-family="Helvetica,sans-Serif" font-size="10.00">StringUtils.h</text>
</a>
</g>
</g>
<!-- Node1&#45;&gt;Node49 -->
<g id="edge85" class="edge">
<title>Node1&#45;&gt;Node49</title>
<path fill="none" stroke="#63b8ff" d="M987.53,-384.95C938.96,-376.69 864.54,-363.36 800.5,-349 562.99,-295.75 281.63,-216.23 179.76,-186.9"/>
<polygon fill="#63b8ff" stroke="#63b8ff" points="180.49,-183.46 169.91,-184.05 178.55,-190.19 180.49,-183.46"/>
</g>
<!-- Node71 -->
<g id="node44" class="node">
<title>Node71</title>
<g id="a_node44"><a xlink:href="CellImpl_8h.html" target="_top" xlink:title="Macros and types used only by cell implementations, not by cell users.">
<polygon fill="white" stroke="#666666" points="968.5,-294 902.5,-294 902.5,-275 968.5,-275 968.5,-294"/>
<text text-anchor="middle" x="935.5" y="-282" font-family="Helvetica,sans-Serif" font-size="10.00">CellImpl.h</text>
</a>
</g>
</g>
<!-- Node1&#45;&gt;Node71 -->
<g id="edge79" class="edge">
<title>Node1&#45;&gt;Node71</title>
<path fill="none" stroke="#63b8ff" d="M1011.3,-384.86C993.01,-377.9 969.97,-366.37 955.5,-349 944.98,-336.37 939.98,-318.18 937.61,-304.5"/>
<polygon fill="#63b8ff" stroke="#63b8ff" points="941.03,-303.71 936.17,-294.3 934.1,-304.69 941.03,-303.71"/>
</g>
<!-- Node72 -->
<g id="node45" class="node">
<title>Node72</title>
<g id="a_node45"><a xlink:href="CellPointers_8h_source.html" target="_top" xlink:title=" ">
<polygon fill="white" stroke="#666666" points="721.5,-294 637.5,-294 637.5,-275 721.5,-275 721.5,-294"/>
<text text-anchor="middle" x="679.5" y="-282" font-family="Helvetica,sans-Serif" font-size="10.00">CellPointers.h</text>
</a>
</g>
</g>
<!-- Node1&#45;&gt;Node72 -->
<g id="edge81" class="edge">
<title>Node1&#45;&gt;Node72</title>
<path fill="none" stroke="#63b8ff" d="M1000.81,-384.99C964.36,-376.7 908.36,-363.31 860.5,-349 807.57,-333.17 747.23,-311.19 711.31,-297.68"/>
<polygon fill="#63b8ff" stroke="#63b8ff" points="712.44,-294.37 701.85,-294.1 709.97,-300.91 712.44,-294.37"/>
</g>
<!-- Node73 -->
<g id="node46" class="node">
<title>Node73</title>
<g id="a_node46"><a xlink:title=" ">
<polygon fill="#e0e0e0" stroke="#999999" points="1121.5,-349 1045.5,-349 1045.5,-330 1121.5,-330 1121.5,-349"/>
<text text-anchor="middle" x="1083.5" y="-337" font-family="Helvetica,sans-Serif" font-size="10.00">wx/clipbrd.h</text>
</a>
</g>
</g>
<!-- Node1&#45;&gt;Node73 -->
<g id="edge87" class="edge">
<title>Node1&#45;&gt;Node73</title>
<path fill="none" stroke="#63b8ff" d="M1046.77,-384.75C1053.04,-377.18 1062.29,-366.05 1069.93,-356.84"/>
<polygon fill="#63b8ff" stroke="#63b8ff" points="1072.67,-359.02 1076.37,-349.09 1067.29,-354.55 1072.67,-359.02"/>
</g>
<!-- Node74 -->
<g id="node47" class="node">
<title>Node74</title>
<g id="a_node47"><a xlink:title=" ">
<polygon fill="#e0e0e0" stroke="#999999" points="1197.5,-349 1139.5,-349 1139.5,-330 1197.5,-330 1197.5,-349"/>
<text text-anchor="middle" x="1168.5" y="-337" font-family="Helvetica,sans-Serif" font-size="10.00">wx/file.h</text>
</a>
</g>
</g>
<!-- Node1&#45;&gt;Node74 -->
<g id="edge88" class="edge">
<title>Node1&#45;&gt;Node74</title>
<path fill="none" stroke="#63b8ff" d="M1060.23,-384.98C1081.26,-376.34 1114.05,-362.87 1138.04,-353.02"/>
<polygon fill="#63b8ff" stroke="#63b8ff" points="1139.48,-356.21 1147.4,-349.17 1136.82,-349.73 1139.48,-356.21"/>
</g>
<!-- Node75 -->
<g id="node48" class="node">
<title>Node75</title>
<g id="a_node48"><a xlink:title=" ">
<polygon fill="#e0e0e0" stroke="#999999" points="1301.5,-349 1215.5,-349 1215.5,-330 1301.5,-330 1301.5,-349"/>
<text text-anchor="middle" x="1258.5" y="-337" font-family="Helvetica,sans-Serif" font-size="10.00">wx/filename.h</text>
</a>
</g>
</g>
<!-- Node1&#45;&gt;Node75 -->
<g id="edge89" class="edge">
<title>Node1&#45;&gt;Node75</title>
<path fill="none" stroke="#63b8ff" d="M1074.69,-384.98C1112.33,-375.87 1172.16,-361.4 1213.27,-351.45"/>
<polygon fill="#63b8ff" stroke="#63b8ff" points="1214.14,-354.84 1223.04,-349.08 1212.5,-348.03 1214.14,-354.84"/>
</g>
<!-- Node76 -->
<g id="node49" class="node">
<title>Node76</title>
<g id="a_node49"><a xlink:title=" ">
<polygon fill="#e0e0e0" stroke="#999999" points="1403,-349 1320,-349 1320,-330 1403,-330 1403,-349"/>
<text text-anchor="middle" x="1361.5" y="-337" font-family="Helvetica,sans-Serif" font-size="10.00">wx/fs_mem.h</text>
</a>
</g>
</g>
<!-- Node1&#45;&gt;Node76 -->
<g id="edge90" class="edge">
<title>Node1&#45;&gt;Node76</title>
<path fill="none" stroke="#63b8ff" d="M1091.71,-384.96C1144.16,-376.38 1227.58,-362.71 1309.74,-349.12"/>
<polygon fill="#63b8ff" stroke="#63b8ff" points="1310.46,-352.55 1319.75,-347.47 1309.32,-345.65 1310.46,-352.55"/>
</g>
<!-- Node77 -->
<g id="node50" class="node">
<title>Node77</title>
<g id="a_node50"><a xlink:title=" ">
<polygon fill="#e0e0e0" stroke="#999999" points="1508,-349 1421,-349 1421,-330 1508,-330 1508,-349"/>
<text text-anchor="middle" x="1464.5" y="-337" font-family="Helvetica,sans-Serif" font-size="10.00">wx/mstream.h</text>
</a>
</g>
</g>
<!-- Node1&#45;&gt;Node77 -->
<g id="edge91" class="edge">
<title>Node1&#45;&gt;Node77</title>
<path fill="none" stroke="#63b8ff" d="M1098.07,-387.31C1169.53,-379.57 1294.28,-365.5 1410.67,-349.21"/>
<polygon fill="#63b8ff" stroke="#63b8ff" points="1411.41,-352.64 1420.83,-347.78 1410.44,-345.71 1411.41,-352.64"/>
</g>
<!-- Node3 -->
<g id="node3" class="node">
<title>Node3</title>
<g id="a_node3"><a xlink:href="Cell_8h.html" target="_top" xlink:title="The definition of the base class of all cells the worksheet consists of.">
<polygon fill="white" stroke="#666666" points="737.5,-239 693.5,-239 693.5,-220 737.5,-220 737.5,-239"/>
<text text-anchor="middle" x="715.5" y="-227" font-family="Helvetica,sans-Serif" font-size="10.00">Cell.h</text>
</a>
</g>
</g>
<!-- Node2&#45;&gt;Node3 -->
<g id="edge2" class="edge">
<title>Node2&#45;&gt;Node3</title>
<path fill="none" stroke="#63b8ff" d="M973.06,-329.84C923.48,-310.72 804.48,-264.82 747.27,-242.75"/>
<polygon fill="#63b8ff" stroke="#63b8ff" points="748.25,-239.38 737.66,-239.05 745.73,-245.91 748.25,-239.38"/>
</g>
<!-- Node2&#45;&gt;Node13 -->
<g id="edge77" class="edge">
<title>Node2&#45;&gt;Node13</title>
<path fill="none" stroke="#63b8ff" d="M993.82,-329.8C988.12,-302.36 967.15,-216.34 919.5,-165 907.6,-152.18 891.21,-141.58 877.18,-133.95"/>
<polygon fill="#63b8ff" stroke="#63b8ff" points="878.42,-130.65 867.93,-129.15 875.19,-136.86 878.42,-130.65"/>
</g>
<!-- Node54 -->
<g id="node31" class="node">
<title>Node54</title>
<g id="a_node31"><a xlink:title=" ">
<polygon fill="#e0e0e0" stroke="#999999" points="2175.5,-184 2101.5,-184 2101.5,-165 2175.5,-165 2175.5,-184"/>
<text text-anchor="middle" x="2138.5" y="-172" font-family="Helvetica,sans-Serif" font-size="10.00">wx/image.h</text>
</a>
</g>
</g>
<!-- Node2&#45;&gt;Node54 -->
<g id="edge48" class="edge">
<title>Node2&#45;&gt;Node54</title>
<path fill="none" stroke="#63b8ff" d="M1027.21,-331.44C1030.34,-330.89 1033.47,-330.4 1036.5,-330 1315.89,-293.3 1390.97,-336.71 1669.5,-294 1833.75,-268.81 2024.28,-211.77 2102.34,-187.16"/>
<polygon fill="#63b8ff" stroke="#63b8ff" points="2103.69,-190.41 2112.16,-184.05 2101.57,-183.73 2103.69,-190.41"/>
</g>
<!-- Node55 -->
<g id="node32" class="node">
<title>Node55</title>
<g id="a_node32"><a xlink:href="Image_8h.html" target="_top" xlink:title="This file declares the class Image.">
<polygon fill="white" stroke="#666666" points="1601.5,-239 1545.5,-239 1545.5,-220 1601.5,-220 1601.5,-239"/>
<text text-anchor="middle" x="1573.5" y="-227" font-family="Helvetica,sans-Serif" font-size="10.00">Image.h</text>
</a>
</g>
</g>
<!-- Node2&#45;&gt;Node55 -->
<g id="edge49" class="edge">
<title>Node2&#45;&gt;Node55</title>
<path fill="none" stroke="#63b8ff" d="M1027.27,-331.84C1030.39,-331.21 1033.5,-330.59 1036.5,-330 1223.14,-293.37 1447,-253.05 1535.16,-237.32"/>
<polygon fill="#63b8ff" stroke="#63b8ff" points="1535.99,-240.72 1545.22,-235.52 1534.76,-233.83 1535.99,-240.72"/>
</g>
<!-- Node68 -->
<g id="node41" class="node">
<title>Node68</title>
<g id="a_node41"><a xlink:href="ImgCellBase_8h_source.html" target="_top" xlink:title=" ">
<polygon fill="white" stroke="#666666" points="1617,-294 1530,-294 1530,-275 1617,-275 1617,-294"/>
<text text-anchor="middle" x="1573.5" y="-282" font-family="Helvetica,sans-Serif" font-size="10.00">ImgCellBase.h</text>
</a>
</g>
</g>
<!-- Node2&#45;&gt;Node68 -->
<g id="edge70" class="edge">
<title>Node2&#45;&gt;Node68</title>
<path fill="none" stroke="#63b8ff" d="M1027.22,-331.53C1030.34,-330.96 1033.48,-330.44 1036.5,-330 1212.26,-304.59 1422.64,-292.4 1519.65,-287.79"/>
<polygon fill="#63b8ff" stroke="#63b8ff" points="1519.97,-291.28 1529.79,-287.32 1519.64,-284.29 1519.97,-291.28"/>
</g>
<!-- Node70 -->
<g id="node43" class="node">
<title>Node70</title>
<g id="a_node43"><a xlink:title=" ">
<polygon fill="#e0e0e0" stroke="#999999" points="1821.5,-239 1749.5,-239 1749.5,-220 1821.5,-220 1821.5,-239"/>
<text text-anchor="middle" x="1785.5" y="-227" font-family="Helvetica,sans-Serif" font-size="10.00">wx/fs_arc.h</text>
</a>
</g>
</g>
<!-- Node2&#45;&gt;Node70 -->
<g id="edge78" class="edge">
<title>Node2&#45;&gt;Node70</title>
<path fill="none" stroke="#63b8ff" d="M1027.21,-331.46C1030.34,-330.9 1033.47,-330.4 1036.5,-330 1296.9,-295.25 1370.15,-351.45 1626.5,-294 1675.44,-283.03 1728.94,-258.93 1759.73,-243.78"/>
<polygon fill="#63b8ff" stroke="#63b8ff" points="1761.51,-246.8 1768.89,-239.2 1758.38,-240.54 1761.51,-246.8"/>
</g>
<!-- Node4 -->
<g id="node4" class="node">
<title>Node4</title>
<g id="a_node4"><a xlink:href="precomp_8h_source.html" target="_top" xlink:title=" ">
<polygon fill="white" stroke="#666666" points="1345,-74 1268,-74 1268,-55 1345,-55 1345,-74"/>
<text text-anchor="middle" x="1306.5" y="-62" font-family="Helvetica,sans-Serif" font-size="10.00">../precomp.h</text>
</a>
</g>
</g>
<!-- Node3&#45;&gt;Node4 -->
<g id="edge3" class="edge">
<title>Node3&#45;&gt;Node4</title>
<path fill="none" stroke="#63b8ff" d="M737.71,-228.21C831.2,-226.78 1192.87,-219.04 1300.5,-184 1322.61,-176.8 1378.18,-149.31 1389.5,-129 1393.61,-121.62 1393.84,-117.25 1389.5,-110 1380.53,-95.01 1364.59,-84.78 1349.07,-77.95"/>
<polygon fill="#63b8ff" stroke="#63b8ff" points="1350.1,-74.6 1339.52,-74.13 1347.5,-81.1 1350.1,-74.6"/>
</g>
<!-- Node6 -->
<g id="node6" class="node">
<title>Node6</title>
<g id="a_node6"><a xlink:href="CellPtr_8h.html" target="_top" xlink:title="Implementation of an observing weak Cell pointer.">
<polygon fill="white" stroke="#666666" points="482,-184 425,-184 425,-165 482,-165 482,-184"/>
<text text-anchor="middle" x="453.5" y="-172" font-family="Helvetica,sans-Serif" font-size="10.00">CellPtr.h</text>
</a>
</g>
</g>
<!-- Node3&#45;&gt;Node6 -->
<g id="edge5" class="edge">
<title>Node3&#45;&gt;Node6</title>
<path fill="none" stroke="#63b8ff" d="M693.16,-223.98C648.43,-214.93 547.39,-194.49 491.85,-183.26"/>
<polygon fill="#63b8ff" stroke="#63b8ff" points="492.53,-179.83 482.04,-181.27 491.14,-186.69 492.53,-179.83"/>
</g>
<!-- Node3&#45;&gt;Node13 -->
<g id="edge45" class="edge">
<title>Node3&#45;&gt;Node13</title>
<path fill="none" stroke="#63b8ff" d="M737.62,-225.72C763.28,-221.34 805.17,-210.4 829.5,-184 840.71,-171.84 845.32,-153.31 847.21,-139.4"/>
<polygon fill="#63b8ff" stroke="#63b8ff" points="850.73,-139.35 848.24,-129.05 843.77,-138.65 850.73,-139.35"/>
</g>
<!-- Node14 -->
<g id="node14" class="node">
<title>Node14</title>
<g id="a_node14"><a xlink:title=" ">
<polygon fill="#e0e0e0" stroke="#999999" points="667,-129 598,-129 598,-110 667,-110 667,-129"/>
<text text-anchor="middle" x="632.5" y="-117" font-family="Helvetica,sans-Serif" font-size="10.00">type_traits</text>
</a>
</g>
</g>
<!-- Node3&#45;&gt;Node14 -->
<g id="edge47" class="edge">
<title>Node3&#45;&gt;Node14</title>
<path fill="none" stroke="#63b8ff" d="M693.3,-226.56C648.48,-222.12 549.71,-209.61 529.5,-184 509.28,-158.37 551.56,-140.46 587.91,-130.34"/>
<polygon fill="#63b8ff" stroke="#63b8ff" points="589.17,-133.63 597.95,-127.69 587.39,-126.86 589.17,-133.63"/>
</g>
<!-- Node15 -->
<g id="node15" class="node">
<title>Node15</title>
<g id="a_node15"><a xlink:href="CellIterators_8h.html" target="_top" xlink:title="Declares the various iterators useful with the Cell class.">
<polygon fill="white" stroke="#666666" points="624.5,-184 538.5,-184 538.5,-165 624.5,-165 624.5,-184"/>
<text text-anchor="middle" x="581.5" y="-172" font-family="Helvetica,sans-Serif" font-size="10.00">CellIterators.h</text>
</a>
</g>
</g>
<!-- Node3&#45;&gt;Node15 -->
<g id="edge14" class="edge">
<title>Node3&#45;&gt;Node15</title>
<path fill="none" stroke="#63b8ff" d="M693.97,-219.98C672.03,-211.3 637.76,-197.75 612.81,-187.88"/>
<polygon fill="#63b8ff" stroke="#63b8ff" points="614.01,-184.59 603.42,-184.17 611.43,-191.1 614.01,-184.59"/>
</g>
<!-- Node17 -->
<g id="node17" class="node">
<title>Node17</title>
<g id="a_node17"><a xlink:href="Configuration_8h_source.html" target="_top" xlink:title=" ">
<polygon fill="#fff0f0" stroke="red" points="1291,-184 1200,-184 1200,-165 1291,-165 1291,-184"/>
<text text-anchor="middle" x="1245.5" y="-172" font-family="Helvetica,sans-Serif" font-size="10.00">Configuration.h</text>
</a>
</g>
</g>
<!-- Node3&#45;&gt;Node17 -->
<g id="edge19" class="edge">
<title>Node3&#45;&gt;Node17</title>
<path fill="none" stroke="#63b8ff" d="M737.86,-226.91C804.78,-222.05 1009.53,-206.42 1189.67,-184.16"/>
<polygon fill="#63b8ff" stroke="#63b8ff" points="1190.37,-187.6 1199.86,-182.89 1189.51,-180.65 1190.37,-187.6"/>
</g>
<!-- Node25 -->
<g id="node21" class="node">
<title>Node25</title>
<g id="a_node21"><a xlink:href="TextStyle_8h.html" target="_top" xlink:title="This file declares everything needed for the text style system used to style all the elements on the ...">
<polygon fill="#fff0f0" stroke="red" points="1095.5,-129 999.5,-129 999.5,-110 1095.5,-110 1095.5,-129"/>
<text text-anchor="middle" x="1047.5" y="-117" font-family="Helvetica,sans-Serif" font-size="10.00">cells/TextStyle.h</text>
</a>
</g>
</g>
<!-- Node3&#45;&gt;Node25 -->
<g id="edge37" class="edge">
<title>Node3&#45;&gt;Node25</title>
<path fill="none" stroke="#63b8ff" d="M717.19,-219.87C720.43,-205.87 728.89,-178.45 747.5,-165 766.74,-151.1 907.67,-134.71 989.35,-126.23"/>
<polygon fill="#63b8ff" stroke="#63b8ff" points="989.9,-129.69 999.49,-125.18 989.18,-122.73 989.9,-129.69"/>
</g>
<!-- Node27 -->
<g id="node22" class="node">
<title>Node27</title>
<g id="a_node22"><a xlink:title=" ">
<polygon fill="#e0e0e0" stroke="#999999" points="580.5,-74 542.5,-74 542.5,-55 580.5,-55 580.5,-74"/>
<text text-anchor="middle" x="561.5" y="-62" font-family="Helvetica,sans-Serif" font-size="10.00">map</text>
</a>
</g>
</g>
<!-- Node3&#45;&gt;Node27 -->
<g id="edge44" class="edge">
<title>Node3&#45;&gt;Node27</title>
<path fill="none" stroke="#63b8ff" d="M693.44,-226.73C614.03,-220.28 345.6,-197.66 309.5,-184 269.83,-168.99 251.02,-166.66 231.5,-129 227.61,-121.5 225.94,-116.36 231.5,-110 270.5,-65.39 458.61,-63.69 532.05,-64.78"/>
<polygon fill="#63b8ff" stroke="#63b8ff" points="532.35,-68.29 542.41,-64.97 532.48,-61.29 532.35,-68.29"/>
</g>
<!-- Node42 -->
<g id="node23" class="node">
<title>Node42</title>
<g id="a_node23"><a xlink:title=" ">
<polygon fill="#e0e0e0" stroke="#999999" points="943,-129 896,-129 896,-110 943,-110 943,-129"/>
<text text-anchor="middle" x="919.5" y="-117" font-family="Helvetica,sans-Serif" font-size="10.00">vector</text>
</a>
</g>
</g>
<!-- Node3&#45;&gt;Node42 -->
<g id="edge46" class="edge">
<title>Node3&#45;&gt;Node42</title>
<path fill="none" stroke="#63b8ff" d="M712.27,-219.99C707.82,-206.66 701.71,-180.75 714.5,-165 761.82,-106.75 806.79,-143.59 885.92,-128.83"/>
<polygon fill="#63b8ff" stroke="#63b8ff" points="886.67,-132.24 895.74,-126.76 885.23,-125.39 886.67,-132.24"/>
</g>
<!-- Node36 -->
<g id="node24" class="node">
<title>Node36</title>
<g id="a_node24"><a xlink:title=" ">
<polygon fill="#e0e0e0" stroke="#999999" points="1516.5,-74 1452.5,-74 1452.5,-55 1516.5,-55 1516.5,-74"/>
<text text-anchor="middle" x="1484.5" y="-62" font-family="Helvetica,sans-Serif" font-size="10.00">algorithm</text>
</a>
</g>
</g>
<!-- Node3&#45;&gt;Node36 -->
<g id="edge43" class="edge">
<title>Node3&#45;&gt;Node36</title>
<path fill="none" stroke="#63b8ff" d="M737.79,-228.63C835.04,-228.94 1222.32,-227.36 1334.5,-184 1392.32,-161.65 1445.62,-108.83 1470.21,-81.9"/>
<polygon fill="#63b8ff" stroke="#63b8ff" points="1473.1,-83.93 1477.16,-74.14 1467.88,-79.26 1473.1,-83.93"/>
</g>
<!-- Node3&#45;&gt;Node49 -->
<g id="edge34" class="edge">
<title>Node3&#45;&gt;Node49</title>
<path fill="none" stroke="#63b8ff" d="M693.25,-226.76C607.3,-220.03 296.82,-195.43 198.5,-184 195.46,-183.65 192.34,-183.26 189.2,-182.85"/>
<polygon fill="#63b8ff" stroke="#63b8ff" points="189.52,-179.36 179.14,-181.49 188.58,-186.3 189.52,-179.36"/>
</g>
<!-- Node52 -->
<g id="node29" class="node">
<title>Node52</title>
<g id="a_node29"><a xlink:href="CachedValue_8h.html" target="_top" xlink:title="Declares &quot;mostly read&#45;only&quot; wrappers around values that are expensive to compute and are thus cached.">
<polygon fill="#fff0f0" stroke="red" points="407,-184 318,-184 318,-165 407,-165 407,-184"/>
<text text-anchor="middle" x="362.5" y="-172" font-family="Helvetica,sans-Serif" font-size="10.00">CachedValue.h</text>
</a>
</g>
</g>
<!-- Node3&#45;&gt;Node52 -->
<g id="edge38" class="edge">
<title>Node3&#45;&gt;Node52</title>
<path fill="none" stroke="#63b8ff" d="M693.36,-225.27C645.22,-218.23 527.18,-200.9 417.22,-184.1"/>
<polygon fill="#63b8ff" stroke="#63b8ff" points="417.7,-180.63 407.28,-182.58 416.64,-187.55 417.7,-180.63"/>
</g>
<!-- Node53 -->
<g id="node30" class="node">
<title>Node53</title>
<g id="a_node30"><a xlink:title=" ">
<polygon fill="#e0e0e0" stroke="#999999" points="820.5,-184 756.5,-184 756.5,-165 820.5,-165 820.5,-184"/>
<text text-anchor="middle" x="788.5" y="-172" font-family="Helvetica,sans-Serif" font-size="10.00">wx/defs.h</text>
</a>
</g>
</g>
<!-- Node3&#45;&gt;Node53 -->
<g id="edge42" class="edge">
<title>Node3&#45;&gt;Node53</title>
<path fill="none" stroke="#63b8ff" d="M727.23,-219.98C738.23,-212 754.92,-199.88 768.1,-190.31"/>
<polygon fill="#63b8ff" stroke="#63b8ff" points="770.52,-192.88 776.56,-184.17 766.41,-187.21 770.52,-192.88"/>
</g>
<!-- Node5 -->
<g id="node5" class="node">
<title>Node5</title>
<g id="a_node5"><a xlink:title=" ">
<polygon fill="#e0e0e0" stroke="#999999" points="1347,-19 1266,-19 1266,0 1347,0 1347,-19"/>
<text text-anchor="middle" x="1306.5" y="-7" font-family="Helvetica,sans-Serif" font-size="10.00">BuildConfig.h</text>
</a>
</g>
</g>
<!-- Node4&#45;&gt;Node5 -->
<g id="edge4" class="edge">
<title>Node4&#45;&gt;Node5</title>
<path fill="none" stroke="#63b8ff" d="M1306.5,-54.75C1306.5,-47.8 1306.5,-37.85 1306.5,-29.13"/>
<polygon fill="#63b8ff" stroke="#63b8ff" points="1310,-29.09 1306.5,-19.09 1303,-29.09 1310,-29.09"/>
</g>
<!-- Node7 -->
<g id="node7" class="node">
<title>Node7</title>
<g id="a_node7"><a xlink:title=" ">
<polygon fill="#e0e0e0" stroke="#999999" points="580,-129 507,-129 507,-110 580,-110 580,-129"/>
<text text-anchor="middle" x="543.5" y="-117" font-family="Helvetica,sans-Serif" font-size="10.00">wx/debug.h</text>
</a>
</g>
</g>
<!-- Node6&#45;&gt;Node7 -->
<g id="edge6" class="edge">
<title>Node6&#45;&gt;Node7</title>
<path fill="none" stroke="#63b8ff" d="M467.96,-164.98C481.92,-156.77 503.29,-144.18 519.75,-134.49"/>
<polygon fill="#63b8ff" stroke="#63b8ff" points="521.94,-137.26 528.78,-129.17 518.38,-131.23 521.94,-137.26"/>
</g>
<!-- Node8 -->
<g id="node8" class="node">
<title>Node8</title>
<g id="a_node8"><a xlink:title=" ">
<polygon fill="#e0e0e0" stroke="#999999" points="298.5,-129 240.5,-129 240.5,-110 298.5,-110 298.5,-129"/>
<text text-anchor="middle" x="269.5" y="-117" font-family="Helvetica,sans-Serif" font-size="10.00">wx/log.h</text>
</a>
</g>
</g>
<!-- Node6&#45;&gt;Node8 -->
<g id="edge7" class="edge">
<title>Node6&#45;&gt;Node8</title>
<path fill="none" stroke="#63b8ff" d="M424.75,-165.22C393.47,-156.21 343.29,-141.75 308.48,-131.73"/>
<polygon fill="#63b8ff" stroke="#63b8ff" points="309.23,-128.3 298.66,-128.9 307.3,-135.03 309.23,-128.3"/>
</g>
<!-- Node9 -->
<g id="node9" class="node">
<title>Node9</title>
<g id="a_node9"><a xlink:title=" ">
<polygon fill="#e0e0e0" stroke="#999999" points="730,-129 685,-129 685,-110 730,-110 730,-129"/>
<text text-anchor="middle" x="707.5" y="-117" font-family="Helvetica,sans-Serif" font-size="10.00">utility</text>
</a>
</g>
</g>
<!-- Node6&#45;&gt;Node9 -->
<g id="edge8" class="edge">
<title>Node6&#45;&gt;Node9</title>
<path fill="none" stroke="#63b8ff" d="M482.15,-168.45C522.91,-161.13 600.15,-146.71 674.82,-129.27"/>
<polygon fill="#63b8ff" stroke="#63b8ff" points="675.93,-132.61 684.86,-126.91 674.32,-125.79 675.93,-132.61"/>
</g>
<!-- Node10 -->
<g id="node10" class="node">
<title>Node10</title>
<g id="a_node10"><a xlink:title=" ">
<polygon fill="#e0e0e0" stroke="#999999" points="370,-129 317,-129 317,-110 370,-110 370,-129"/>
<text text-anchor="middle" x="343.5" y="-117" font-family="Helvetica,sans-Serif" font-size="10.00">cstddef</text>
</a>
</g>
</g>
<!-- Node6&#45;&gt;Node10 -->
<g id="edge9" class="edge">
<title>Node6&#45;&gt;Node10</title>
<path fill="none" stroke="#63b8ff" d="M435.83,-164.98C418.21,-156.5 390.92,-143.35 370.57,-133.54"/>
<polygon fill="#63b8ff" stroke="#63b8ff" points="372.02,-130.36 361.49,-129.17 368.98,-136.66 372.02,-130.36"/>
</g>
<!-- Node11 -->
<g id="node11" class="node">
<title>Node11</title>
<g id="a_node11"><a xlink:title=" ">
<polygon fill="#e0e0e0" stroke="#999999" points="996.5,-74 946.5,-74 946.5,-55 996.5,-55 996.5,-74"/>
<text text-anchor="middle" x="971.5" y="-62" font-family="Helvetica,sans-Serif" font-size="10.00">cstdint</text>
</a>
</g>
</g>
<!-- Node6&#45;&gt;Node11 -->
<g id="edge10" class="edge">
<title>Node6&#45;&gt;Node11</title>
<path fill="none" stroke="#63b8ff" d="M456.87,-164.67C462.85,-150.4 476.74,-122.58 498.5,-110 572.92,-66.99 839.72,-64.52 936.29,-65.08"/>
<polygon fill="#63b8ff" stroke="#63b8ff" points="936.39,-68.58 946.41,-65.16 936.44,-61.58 936.39,-68.58"/>
</g>
<!-- Node12 -->
<g id="node12" class="node">
<title>Node12</title>
<g id="a_node12"><a xlink:title=" ">
<polygon fill="#e0e0e0" stroke="#999999" points="450.5,-129 388.5,-129 388.5,-110 450.5,-110 450.5,-129"/>
<text text-anchor="middle" x="419.5" y="-117" font-family="Helvetica,sans-Serif" font-size="10.00">cinttypes</text>
</a>
</g>
</g>
<!-- Node6&#45;&gt;Node12 -->
<g id="edge11" class="edge">
<title>Node6&#45;&gt;Node12</title>
<path fill="none" stroke="#63b8ff" d="M447.89,-164.75C443.18,-157.42 436.33,-146.73 430.53,-137.7"/>
<polygon fill="#63b8ff" stroke="#63b8ff" points="433.36,-135.62 425.01,-129.09 427.46,-139.4 433.36,-135.62"/>
</g>
<!-- Node6&#45;&gt;Node13 -->
<g id="edge12" class="edge">
<title>Node6&#45;&gt;Node13</title>
<path fill="none" stroke="#63b8ff" d="M482.05,-170.3C551.91,-162.42 730.9,-141.87 809.18,-129.05"/>
<polygon fill="#63b8ff" stroke="#63b8ff" points="809.82,-132.49 819.1,-127.37 808.65,-125.59 809.82,-132.49"/>
</g>
<!-- Node6&#45;&gt;Node14 -->
<g id="edge13" class="edge">
<title>Node6&#45;&gt;Node14</title>
<path fill="none" stroke="#63b8ff" d="M482.26,-164.98C512.44,-156.05 560.07,-141.94 593.6,-132.02"/>
<polygon fill="#63b8ff" stroke="#63b8ff" points="594.92,-135.28 603.52,-129.08 592.93,-128.57 594.92,-135.28"/>
</g>
<!-- Node15&#45;&gt;Node7 -->
<g id="edge15" class="edge">
<title>Node15&#45;&gt;Node7</title>
<path fill="none" stroke="#63b8ff" d="M575.23,-164.75C569.91,-157.34 562.14,-146.5 555.62,-137.41"/>
<polygon fill="#63b8ff" stroke="#63b8ff" points="558.33,-135.18 549.66,-129.09 552.64,-139.26 558.33,-135.18"/>
</g>
<!-- Node15&#45;&gt;Node13 -->
<g id="edge16" class="edge">
<title>Node15&#45;&gt;Node13</title>
<path fill="none" stroke="#63b8ff" d="M624.62,-165.49C668.64,-157.24 739.18,-143.78 809.55,-129.15"/>
<polygon fill="#63b8ff" stroke="#63b8ff" points="810.4,-132.55 819.47,-127.08 808.97,-125.7 810.4,-132.55"/>
</g>
<!-- Node15&#45;&gt;Node14 -->
<g id="edge17" class="edge">
<title>Node15&#45;&gt;Node14</title>
<path fill="none" stroke="#63b8ff" d="M589.92,-164.75C597.27,-157.11 608.13,-145.82 617.04,-136.56"/>
<polygon fill="#63b8ff" stroke="#63b8ff" points="619.82,-138.72 624.24,-129.09 614.78,-133.87 619.82,-138.72"/>
</g>
<!-- Node16 -->
<g id="node16" class="node">
<title>Node16</title>
<g id="a_node16"><a xlink:title=" ">
<polygon fill="#e0e0e0" stroke="#999999" points="801,-129 748,-129 748,-110 801,-110 801,-129"/>
<text text-anchor="middle" x="774.5" y="-117" font-family="Helvetica,sans-Serif" font-size="10.00">iterator</text>
</a>
</g>
</g>
<!-- Node15&#45;&gt;Node16 -->
<g id="edge18" class="edge">
<title>Node15&#45;&gt;Node16</title>
<path fill="none" stroke="#63b8ff" d="M612.51,-164.98C646.79,-155.57 701.96,-140.42 738.22,-130.46"/>
<polygon fill="#63b8ff" stroke="#63b8ff" points="739.2,-133.82 747.92,-127.8 737.35,-127.07 739.2,-133.82"/>
</g>
<!-- Node17&#45;&gt;Node4 -->
<g id="edge20" class="edge">
<title>Node17&#45;&gt;Node4</title>
<path fill="none" stroke="#63b8ff" d="M1237.03,-164.87C1225.71,-152.25 1208.31,-128.29 1219.5,-110 1228.9,-94.64 1245.46,-84.36 1261.64,-77.6"/>
<polygon fill="#63b8ff" stroke="#63b8ff" points="1262.96,-80.84 1271.06,-74.01 1260.46,-74.3 1262.96,-80.84"/>
</g>
<!-- Node17&#45;&gt;Node11 -->
<g id="edge29" class="edge">
<title>Node17&#45;&gt;Node11</title>
<path fill="none" stroke="#63b8ff" d="M1199.9,-166.16C1127.61,-154.45 994.41,-132.47 990.5,-129 978.01,-117.9 973.58,-98.97 972.08,-84.66"/>
<polygon fill="#63b8ff" stroke="#63b8ff" points="975.55,-84.16 971.41,-74.41 968.57,-84.61 975.55,-84.16"/>
</g>
<!-- Node17&#45;&gt;Node13 -->
<g id="edge30" class="edge">
<title>Node17&#45;&gt;Node13</title>
<path fill="none" stroke="#63b8ff" d="M1199.85,-166.19C1197.03,-165.78 1194.23,-165.38 1191.5,-165 1059.88,-146.85 1023.38,-151.29 887.77,-128.87"/>
<polygon fill="#63b8ff" stroke="#63b8ff" points="888.27,-125.41 877.83,-127.21 887.11,-132.31 888.27,-125.41"/>
</g>
<!-- Node18 -->
<g id="node18" class="node">
<title>Node18</title>
<g id="a_node18"><a xlink:title=" ">
<polygon fill="#e0e0e0" stroke="#999999" points="1285,-129 1228,-129 1228,-110 1285,-110 1285,-129"/>
<text text-anchor="middle" x="1256.5" y="-117" font-family="Helvetica,sans-Serif" font-size="10.00">wx/wx.h</text>
</a>
</g>
</g>
<!-- Node17&#45;&gt;Node18 -->
<g id="edge21" class="edge">
<title>Node17&#45;&gt;Node18</title>
<path fill="none" stroke="#63b8ff" d="M1247.32,-164.75C1248.76,-157.8 1250.82,-147.85 1252.63,-139.13"/>
<polygon fill="#63b8ff" stroke="#63b8ff" points="1256.11,-139.59 1254.72,-129.09 1249.26,-138.17 1256.11,-139.59"/>
</g>
<!-- Node19 -->
<g id="node19" class="node">
<title>Node19</title>
<g id="a_node19"><a xlink:title=" ">
<polygon fill="#e0e0e0" stroke="#999999" points="1123.5,-74 1051.5,-74 1051.5,-55 1123.5,-55 1123.5,-74"/>
<text text-anchor="middle" x="1087.5" y="-62" font-family="Helvetica,sans-Serif" font-size="10.00">wx/config.h</text>
</a>
</g>
</g>
<!-- Node17&#45;&gt;Node19 -->
<g id="edge22" class="edge">
<title>Node17&#45;&gt;Node19</title>
<path fill="none" stroke="#63b8ff" d="M1232.84,-164.84C1205.8,-146.36 1142.16,-102.86 1108.78,-80.05"/>
<polygon fill="#63b8ff" stroke="#63b8ff" points="1110.45,-76.95 1100.22,-74.2 1106.5,-82.73 1110.45,-76.95"/>
</g>
<!-- Node20 -->
<g id="node20" class="node">
<title>Node20</title>
<g id="a_node20"><a xlink:title=" ">
<polygon fill="#e0e0e0" stroke="#999999" points="1380,-129 1303,-129 1303,-110 1380,-110 1380,-129"/>
<text text-anchor="middle" x="1341.5" y="-117" font-family="Helvetica,sans-Serif" font-size="10.00">wx/display.h</text>
</a>
</g>
</g>
<!-- Node17&#45;&gt;Node20 -->
<g id="edge23" class="edge">
<title>Node17&#45;&gt;Node20</title>
<path fill="none" stroke="#63b8ff" d="M1260.92,-164.98C1275.95,-156.69 1299.04,-143.94 1316.66,-134.22"/>
<polygon fill="#63b8ff" stroke="#63b8ff" points="1318.73,-137.07 1325.8,-129.17 1315.35,-130.94 1318.73,-137.07"/>
</g>
<!-- Node17&#45;&gt;Node25 -->
<g id="edge24" class="edge">
<title>Node17&#45;&gt;Node25</title>
<path fill="none" stroke="#63b8ff" d="M1213.69,-164.98C1180.01,-155.97 1126.7,-141.7 1089.58,-131.76"/>
<polygon fill="#63b8ff" stroke="#63b8ff" points="1090.13,-128.29 1079.56,-129.08 1088.32,-135.05 1090.13,-128.29"/>
</g>
<!-- Node17&#45;&gt;Node42 -->
<g id="edge31" class="edge">
<title>Node17&#45;&gt;Node42</title>
<path fill="none" stroke="#63b8ff" d="M1199.84,-166.3C1197.02,-165.86 1194.22,-165.42 1191.5,-165 1087.53,-148.82 1060.9,-148.5 957.5,-129 956.05,-128.73 954.56,-128.44 953.07,-128.14"/>
<polygon fill="#63b8ff" stroke="#63b8ff" points="953.67,-124.69 943.17,-126.05 952.23,-131.54 953.67,-124.69"/>
</g>
<!-- Node17&#45;&gt;Node36 -->
<g id="edge32" class="edge">
<title>Node17&#45;&gt;Node36</title>
<path fill="none" stroke="#63b8ff" d="M1283.61,-164.93C1313.31,-157.51 1355.13,-145.37 1389.5,-129 1417.82,-115.51 1447.4,-94.46 1465.88,-80.33"/>
<polygon fill="#63b8ff" stroke="#63b8ff" points="1468.26,-82.92 1474,-74.02 1463.96,-77.39 1468.26,-82.92"/>
</g>
<!-- Node46 -->
<g id="node25" class="node">
<title>Node46</title>
<g id="a_node25"><a xlink:title=" ">
<polygon fill="#e0e0e0" stroke="#999999" points="1979.5,-129 1929.5,-129 1929.5,-110 1979.5,-110 1979.5,-129"/>
<text text-anchor="middle" x="1954.5" y="-117" font-family="Helvetica,sans-Serif" font-size="10.00">atomic</text>
</a>
</g>
</g>
<!-- Node17&#45;&gt;Node46 -->
<g id="edge33" class="edge">
<title>Node17&#45;&gt;Node46</title>
<path fill="none" stroke="#63b8ff" d="M1291.35,-170.34C1392.85,-163.29 1644.19,-145.62 1854.5,-129 1876.04,-127.3 1900.19,-125.25 1919.35,-123.59"/>
<polygon fill="#63b8ff" stroke="#63b8ff" points="1919.78,-127.07 1929.44,-122.71 1919.17,-120.09 1919.78,-127.07"/>
</g>
<!-- Node25&#45;&gt;Node4 -->
<g id="edge25" class="edge">
<title>Node25&#45;&gt;Node4</title>
<path fill="none" stroke="#63b8ff" d="M1089.11,-109.98C1135.17,-100.56 1209.31,-85.39 1257.97,-75.43"/>
<polygon fill="#63b8ff" stroke="#63b8ff" points="1258.85,-78.82 1267.95,-73.39 1257.45,-71.96 1258.85,-78.82"/>
</g>
<!-- Node25&#45;&gt;Node11 -->
<g id="edge28" class="edge">
<title>Node25&#45;&gt;Node11</title>
<path fill="none" stroke="#63b8ff" d="M1035.29,-109.98C1023.72,-101.92 1006.12,-89.65 992.34,-80.03"/>
<polygon fill="#63b8ff" stroke="#63b8ff" points="994.14,-77.02 983.93,-74.17 990.13,-82.76 994.14,-77.02"/>
</g>
<!-- Node25&#45;&gt;Node19 -->
<g id="edge27" class="edge">
<title>Node25&#45;&gt;Node19</title>
<path fill="none" stroke="#63b8ff" d="M1054.11,-109.75C1059.76,-102.26 1068.04,-91.28 1074.95,-82.13"/>
<polygon fill="#63b8ff" stroke="#63b8ff" points="1077.79,-84.18 1081.02,-74.09 1072.2,-79.96 1077.79,-84.18"/>
</g>
<!-- Node25&#45;&gt;Node27 -->
<g id="edge26" class="edge">
<title>Node25&#45;&gt;Node27</title>
<path fill="none" stroke="#63b8ff" d="M999.12,-113.22C898.94,-102.3 671.39,-77.48 590.61,-68.67"/>
<polygon fill="#63b8ff" stroke="#63b8ff" points="590.97,-65.19 580.65,-67.59 590.21,-72.15 590.97,-65.19"/>
</g>
<!-- Node50 -->
<g id="node27" class="node">
<title>Node50</title>
<g id="a_node27"><a xlink:title=" ">
<polygon fill="#e0e0e0" stroke="#999999" points="71,-129 0,-129 0,-110 71,-110 71,-129"/>
<text text-anchor="middle" x="35.5" y="-117" font-family="Helvetica,sans-Serif" font-size="10.00">wx/string.h</text>
</a>
</g>
</g>
<!-- Node49&#45;&gt;Node50 -->
<g id="edge35" class="edge">
<title>Node49&#45;&gt;Node50</title>
<path fill="none" stroke="#63b8ff" d="M123.63,-164.98C106.89,-156.54 81,-143.47 61.61,-133.68"/>
<polygon fill="#63b8ff" stroke="#63b8ff" points="63.18,-130.55 52.68,-129.17 60.03,-136.8 63.18,-130.55"/>
</g>
<!-- Node51 -->
<g id="node28" class="node">
<title>Node51</title>
<g id="a_node28"><a xlink:title=" ">
<polygon fill="#e0e0e0" stroke="#999999" points="184,-129 89,-129 89,-110 184,-110 184,-129"/>
<text text-anchor="middle" x="136.5" y="-117" font-family="Helvetica,sans-Serif" font-size="10.00">wx/translation.h</text>
</a>
</g>
</g>
<!-- Node49&#45;&gt;Node51 -->
<g id="edge36" class="edge">
<title>Node49&#45;&gt;Node51</title>
<path fill="none" stroke="#63b8ff" d="M139.84,-164.75C139.32,-157.8 138.56,-147.85 137.91,-139.13"/>
<polygon fill="#63b8ff" stroke="#63b8ff" points="141.39,-138.8 137.15,-129.09 134.41,-139.32 141.39,-138.8"/>
</g>
<!-- Node52&#45;&gt;Node7 -->
<g id="edge39" class="edge">
<title>Node52&#45;&gt;Node7</title>
<path fill="none" stroke="#63b8ff" d="M391.58,-164.98C422.1,-156.05 470.26,-141.94 504.16,-132.02"/>
<polygon fill="#63b8ff" stroke="#63b8ff" points="505.58,-135.25 514.19,-129.08 503.61,-128.53 505.58,-135.25"/>
</g>
<!-- Node52&#45;&gt;Node8 -->
<g id="edge40" class="edge">
<title>Node52&#45;&gt;Node8</title>
<path fill="none" stroke="#63b8ff" d="M347.56,-164.98C333,-156.69 310.63,-143.94 293.57,-134.22"/>
<polygon fill="#63b8ff" stroke="#63b8ff" points="295.14,-131.08 284.71,-129.17 291.67,-137.16 295.14,-131.08"/>
</g>
<!-- Node52&#45;&gt;Node14 -->
<g id="edge41" class="edge">
<title>Node52&#45;&gt;Node14</title>
<path fill="none" stroke="#63b8ff" d="M406.02,-164.99C449.58,-156.47 518.8,-142.91 587.62,-129.37"/>
<polygon fill="#63b8ff" stroke="#63b8ff" points="588.63,-132.74 597.77,-127.37 587.28,-125.87 588.63,-132.74"/>
</g>
<!-- Node55&#45;&gt;Node4 -->
<g id="edge61" class="edge">
<title>Node55&#45;&gt;Node4</title>
<path fill="none" stroke="#63b8ff" d="M1601.55,-222.67C1645.48,-213.26 1726.36,-194.7 1734.5,-184 1739.61,-177.28 1739.75,-171.61 1734.5,-165 1687.54,-105.87 1457.3,-78.69 1355.3,-69.41"/>
<polygon fill="#63b8ff" stroke="#63b8ff" points="1355.52,-65.91 1345.25,-68.51 1354.9,-72.89 1355.52,-65.91"/>
</g>
<!-- Node55&#45;&gt;Node13 -->
<g id="edge50" class="edge">
<title>Node55&#45;&gt;Node13</title>
<path fill="none" stroke="#63b8ff" d="M1545.3,-227.26C1451.71,-222.94 1152.05,-207.58 1058.5,-184 1037.85,-178.79 1034.62,-172 1014.5,-165 971.85,-150.16 921.61,-137.32 887.66,-129.29"/>
<polygon fill="#63b8ff" stroke="#63b8ff" points="888.21,-125.83 877.68,-126.96 886.62,-132.64 888.21,-125.83"/>
</g>
<!-- Node55&#45;&gt;Node17 -->
<g id="edge63" class="edge">
<title>Node55&#45;&gt;Node17</title>
<path fill="none" stroke="#63b8ff" d="M1545.25,-223.94C1491.12,-215.19 1371.88,-195.92 1301.19,-184.5"/>
<polygon fill="#63b8ff" stroke="#63b8ff" points="1301.56,-181.01 1291.13,-182.87 1300.44,-187.92 1301.56,-181.01"/>
</g>
<!-- Node55&#45;&gt;Node46 -->
<g id="edge52" class="edge">
<title>Node55&#45;&gt;Node46</title>
<path fill="none" stroke="#63b8ff" d="M1601.9,-222.33C1606.43,-221.47 1611.08,-220.65 1615.5,-220 1657.56,-213.77 1967.88,-215.45 1996.5,-184 2010.21,-168.93 1992.19,-148.99 1975.67,-135.5"/>
<polygon fill="#63b8ff" stroke="#63b8ff" points="1977.41,-132.42 1967.35,-129.1 1973.14,-137.97 1977.41,-132.42"/>
</g>
<!-- Node55&#45;&gt;Node54 -->
<g id="edge64" class="edge">
<title>Node55&#45;&gt;Node54</title>
<path fill="none" stroke="#63b8ff" d="M1601.88,-222.26C1606.42,-221.41 1611.08,-220.61 1615.5,-220 1823.89,-191.08 1878.64,-209.32 2087.5,-184 2088.75,-183.85 2090.02,-183.69 2091.3,-183.52"/>
<polygon fill="#63b8ff" stroke="#63b8ff" points="2091.83,-186.98 2101.23,-182.1 2090.84,-180.05 2091.83,-186.98"/>
</g>
<!-- Node56 -->
<g id="node33" class="node">
<title>Node56</title>
<g id="a_node33"><a xlink:title=" ">
<polygon fill="#e0e0e0" stroke="#999999" points="1837.5,-74 1789.5,-74 1789.5,-55 1837.5,-55 1837.5,-74"/>
<text text-anchor="middle" x="1813.5" y="-62" font-family="Helvetica,sans-Serif" font-size="10.00">thread</text>
</a>
</g>
</g>
<!-- Node55&#45;&gt;Node56 -->
<g id="edge51" class="edge">
<title>Node55&#45;&gt;Node56</title>
<path fill="none" stroke="#63b8ff" d="M1601.66,-222.22C1605.94,-221.39 1610.33,-220.62 1614.5,-220 1658.42,-213.48 1982.55,-216.78 2012.5,-184 2030.94,-163.82 2011.37,-129.42 1988.5,-110 1948.64,-76.14 1886.42,-67.52 1847.91,-65.61"/>
<polygon fill="#63b8ff" stroke="#63b8ff" points="1847.83,-62.11 1837.71,-65.24 1847.58,-69.1 1847.83,-62.11"/>
</g>
<!-- Node57 -->
<g id="node34" class="node">
<title>Node57</title>
<g id="a_node34"><a xlink:href="BackgroundQueue_8h.html" target="_top" xlink:title="A priority work&#45;queue thread pool for offloading work to background threads.">
<polygon fill="#fff0f0" stroke="red" points="1182,-184 1067,-184 1067,-165 1182,-165 1182,-184"/>
<text text-anchor="middle" x="1124.5" y="-172" font-family="Helvetica,sans-Serif" font-size="10.00">BackgroundQueue.h</text>
</a>
</g>
</g>
<!-- Node55&#45;&gt;Node57 -->
<g id="edge53" class="edge">
<title>Node55&#45;&gt;Node57</title>
<path fill="none" stroke="#63b8ff" d="M1545.21,-225.31C1483.34,-218.29 1331.09,-200.93 1192.21,-184.08"/>
<polygon fill="#63b8ff" stroke="#63b8ff" points="1192.59,-180.6 1182.24,-182.86 1191.74,-187.54 1192.59,-180.6"/>
</g>
<!-- Node58 -->
<g id="node35" class="node">
<title>Node58</title>
<g id="a_node35"><a xlink:href="Compat_8h.html" target="_top" xlink:title="Small C++ standard&#45;library compatibility shims.">
<polygon fill="#fff0f0" stroke="red" points="1845.5,-129 1781.5,-129 1781.5,-110 1845.5,-110 1845.5,-129"/>
<text text-anchor="middle" x="1813.5" y="-117" font-family="Helvetica,sans-Serif" font-size="10.00">Compat.h</text>
</a>
</g>
</g>
<!-- Node55&#45;&gt;Node58 -->
<g id="edge62" class="edge">
<title>Node55&#45;&gt;Node58</title>
<path fill="none" stroke="#63b8ff" d="M1601.9,-222.35C1606.43,-221.48 1611.09,-220.66 1615.5,-220 1655.58,-213.97 1951.29,-214.04 1978.5,-184 2016.09,-142.49 1916.3,-127.9 1855.85,-122.93"/>
<polygon fill="#63b8ff" stroke="#63b8ff" points="1856.02,-119.44 1845.79,-122.17 1855.49,-126.42 1856.02,-119.44"/>
</g>
<!-- Node63 -->
<g id="node36" class="node">
<title>Node63</title>
<g id="a_node36"><a xlink:title=" ">
<polygon fill="#e0e0e0" stroke="#999999" points="1725,-184 1654,-184 1654,-165 1725,-165 1725,-184"/>
<text text-anchor="middle" x="1689.5" y="-172" font-family="Helvetica,sans-Serif" font-size="10.00">wx/buffer.h</text>
</a>
</g>
</g>
<!-- Node55&#45;&gt;Node63 -->
<g id="edge65" class="edge">
<title>Node55&#45;&gt;Node63</title>
<path fill="none" stroke="#63b8ff" d="M1592.14,-219.98C1610.8,-211.46 1639.75,-198.23 1661.24,-188.41"/>
<polygon fill="#63b8ff" stroke="#63b8ff" points="1662.88,-191.51 1670.52,-184.17 1659.97,-185.14 1662.88,-191.51"/>
</g>
<!-- Node64 -->
<g id="node37" class="node">
<title>Node64</title>
<g id="a_node37"><a xlink:title=" ">
<polygon fill="#e0e0e0" stroke="#999999" points="1861.5,-184 1781.5,-184 1781.5,-165 1861.5,-165 1861.5,-184"/>
<text text-anchor="middle" x="1821.5" y="-172" font-family="Helvetica,sans-Serif" font-size="10.00">wx/zipstrm.h</text>
</a>
</g>
</g>
<!-- Node55&#45;&gt;Node64 -->
<g id="edge66" class="edge">
<title>Node55&#45;&gt;Node64</title>
<path fill="none" stroke="#63b8ff" d="M1601.95,-222.42C1643.34,-213.57 1720.77,-197.03 1771.73,-186.14"/>
<polygon fill="#63b8ff" stroke="#63b8ff" points="1772.5,-189.55 1781.55,-184.04 1771.04,-182.71 1772.5,-189.55"/>
</g>
<!-- Node65 -->
<g id="node38" class="node">
<title>Node65</title>
<g id="a_node38"><a xlink:title=" ">
<polygon fill="#e0e0e0" stroke="#999999" points="1969,-184 1880,-184 1880,-165 1969,-165 1969,-184"/>
<text text-anchor="middle" x="1924.5" y="-172" font-family="Helvetica,sans-Serif" font-size="10.00">wx/wfstream.h</text>
</a>
</g>
</g>
<!-- Node55&#45;&gt;Node65 -->
<g id="edge67" class="edge">
<title>Node55&#45;&gt;Node65</title>
<path fill="none" stroke="#63b8ff" d="M1601.92,-222.51C1606.46,-221.62 1611.1,-220.76 1615.5,-220 1725.11,-201.19 1755.59,-200.9 1869.54,-184.12"/>
<polygon fill="#63b8ff" stroke="#63b8ff" points="1870.34,-187.53 1879.72,-182.6 1869.31,-180.61 1870.34,-187.53"/>
</g>
<!-- Node66 -->
<g id="node39" class="node">
<title>Node66</title>
<g id="a_node39"><a xlink:title=" ">
<polygon fill="#e0e0e0" stroke="#999999" points="1493,-184 1386,-184 1386,-165 1493,-165 1493,-184"/>
<text text-anchor="middle" x="1439.5" y="-172" font-family="Helvetica,sans-Serif" font-size="10.00">nanosvg_private.h</text>
</a>
</g>
</g>
<!-- Node55&#45;&gt;Node66 -->
<g id="edge68" class="edge">
<title>Node55&#45;&gt;Node66</title>
<path fill="none" stroke="#63b8ff" d="M1551.97,-219.98C1530.03,-211.3 1495.76,-197.75 1470.81,-187.88"/>
<polygon fill="#63b8ff" stroke="#63b8ff" points="1472.01,-184.59 1461.42,-184.17 1469.43,-191.1 1472.01,-184.59"/>
</g>
<!-- Node67 -->
<g id="node40" class="node">
<title>Node67</title>
<g id="a_node40"><a xlink:title=" ">
<polygon fill="#e0e0e0" stroke="#999999" points="1636,-184 1511,-184 1511,-165 1636,-165 1636,-184"/>
<text text-anchor="middle" x="1573.5" y="-172" font-family="Helvetica,sans-Serif" font-size="10.00">nanosvgrast_private.h</text>
</a>
</g>
</g>
<!-- Node55&#45;&gt;Node67 -->
<g id="edge69" class="edge">
<title>Node55&#45;&gt;Node67</title>
<path fill="none" stroke="#63b8ff" d="M1573.5,-219.75C1573.5,-212.8 1573.5,-202.85 1573.5,-194.13"/>
<polygon fill="#63b8ff" stroke="#63b8ff" points="1577,-194.09 1573.5,-184.09 1570,-194.09 1577,-194.09"/>
</g>
<!-- Node57&#45;&gt;Node9 -->
<g id="edge59" class="edge">
<title>Node57&#45;&gt;Node9</title>
<path fill="none" stroke="#63b8ff" d="M1066.71,-169.44C993.04,-163.68 861.68,-151.47 740,-128.81"/>
<polygon fill="#63b8ff" stroke="#63b8ff" points="740.61,-125.36 730.13,-126.95 739.31,-132.24 740.61,-125.36"/>
</g>
<!-- Node57&#45;&gt;Node13 -->
<g id="edge57" class="edge">
<title>Node57&#45;&gt;Node13</title>
<path fill="none" stroke="#63b8ff" d="M1076.76,-164.96C1030.99,-156.67 959.7,-143.52 887.99,-129.05"/>
<polygon fill="#63b8ff" stroke="#63b8ff" points="888.36,-125.55 877.87,-127 886.97,-132.41 888.36,-125.55"/>
</g>
<!-- Node57&#45;&gt;Node42 -->
<g id="edge60" class="edge">
<title>Node57&#45;&gt;Node42</title>
<path fill="none" stroke="#63b8ff" d="M1091.56,-164.98C1053.6,-155.17 991.52,-139.12 953.22,-129.22"/>
<polygon fill="#63b8ff" stroke="#63b8ff" points="953.65,-125.71 943.09,-126.6 951.9,-132.49 953.65,-125.71"/>
</g>
<!-- Node57&#45;&gt;Node56 -->
<g id="edge58" class="edge">
<title>Node57&#45;&gt;Node56</title>
<path fill="none" stroke="#63b8ff" d="M1133.84,-164.78C1149.9,-150.4 1184.43,-122.09 1219.5,-110 1272.36,-91.78 1659.77,-72.59 1778.81,-67.07"/>
<polygon fill="#63b8ff" stroke="#63b8ff" points="1779.32,-70.55 1789.15,-66.59 1779,-63.55 1779.32,-70.55"/>
</g>
<!-- Node57&#45;&gt;Node58 -->
<g id="edge54" class="edge">
<title>Node57&#45;&gt;Node58</title>
<path fill="none" stroke="#63b8ff" d="M1182.22,-165.97C1185.36,-165.63 1188.47,-165.3 1191.5,-165 1409.23,-143.42 1670.83,-128.18 1771.34,-122.72"/>
<polygon fill="#63b8ff" stroke="#63b8ff" points="1771.6,-126.21 1781.4,-122.17 1771.23,-119.22 1771.6,-126.21"/>
</g>
<!-- Node58&#45;&gt;Node36 -->
<g id="edge56" class="edge">
<title>Node58&#45;&gt;Node36</title>
<path fill="none" stroke="#63b8ff" d="M1781.35,-112.45C1776.71,-111.6 1771.98,-110.77 1767.5,-110 1682.3,-95.43 1582.35,-80.13 1526.94,-71.81"/>
<polygon fill="#63b8ff" stroke="#63b8ff" points="1527.21,-68.31 1516.8,-70.29 1526.17,-75.24 1527.21,-68.31"/>
</g>
<!-- Node58&#45;&gt;Node56 -->
<g id="edge55" class="edge">
<title>Node58&#45;&gt;Node56</title>
<path fill="none" stroke="#63b8ff" d="M1813.5,-109.75C1813.5,-102.8 1813.5,-92.85 1813.5,-84.13"/>
<polygon fill="#63b8ff" stroke="#63b8ff" points="1817,-84.09 1813.5,-74.09 1810,-84.09 1817,-84.09"/>
</g>
<!-- Node68&#45;&gt;Node3 -->
<g id="edge72" class="edge">
<title>Node68&#45;&gt;Node3</title>
<path fill="none" stroke="#63b8ff" d="M1529.77,-280.8C1378.64,-271.46 880.4,-240.69 748.03,-232.51"/>
<polygon fill="#63b8ff" stroke="#63b8ff" points="747.95,-229 737.75,-231.87 747.52,-235.98 747.95,-229"/>
</g>
<!-- Node68&#45;&gt;Node13 -->
<g id="edge71" class="edge">
<title>Node68&#45;&gt;Node13</title>
<path fill="none" stroke="#63b8ff" d="M1529.68,-280.01C1434.03,-271.46 1200.24,-245.53 1014.5,-184 996.58,-178.06 993.9,-172.34 976.5,-165 946.65,-152.41 911.87,-140.49 886.11,-132.16"/>
<polygon fill="#63b8ff" stroke="#63b8ff" points="886.95,-128.75 876.35,-129.04 884.81,-135.42 886.95,-128.75"/>
</g>
<!-- Node68&#45;&gt;Node54 -->
<g id="edge73" class="edge">
<title>Node68&#45;&gt;Node54</title>
<path fill="none" stroke="#63b8ff" d="M1580.68,-274.57C1592.87,-260.15 1619.18,-232.13 1648.5,-220 1738.95,-182.59 1990.36,-196.06 2087.5,-184 2088.75,-183.84 2090.02,-183.68 2091.3,-183.51"/>
<polygon fill="#63b8ff" stroke="#63b8ff" points="2091.83,-186.97 2101.23,-182.08 2090.83,-180.04 2091.83,-186.97"/>
</g>
<!-- Node68&#45;&gt;Node55 -->
<g id="edge74" class="edge">
<title>Node68&#45;&gt;Node55</title>
<path fill="none" stroke="#63b8ff" d="M1573.5,-274.75C1573.5,-267.8 1573.5,-257.85 1573.5,-249.13"/>
<polygon fill="#63b8ff" stroke="#63b8ff" points="1577,-249.09 1573.5,-239.09 1570,-249.09 1577,-249.09"/>
</g>
<!-- Node69 -->
<g id="node42" class="node">
<title>Node69</title>
<g id="a_node42"><a xlink:title=" ">
<polygon fill="#e0e0e0" stroke="#999999" points="1731.5,-239 1657.5,-239 1657.5,-220 1731.5,-220 1731.5,-239"/>
<text text-anchor="middle" x="1694.5" y="-227" font-family="Helvetica,sans-Serif" font-size="10.00">wx/filesys.h</text>
</a>
</g>
</g>
<!-- Node68&#45;&gt;Node69 -->
<g id="edge75" class="edge">
<title>Node68&#45;&gt;Node69</title>
<path fill="none" stroke="#63b8ff" d="M1592.94,-274.98C1612.49,-266.42 1642.88,-253.11 1665.32,-243.28"/>
<polygon fill="#63b8ff" stroke="#63b8ff" points="1666.95,-246.39 1674.71,-239.17 1664.14,-239.98 1666.95,-246.39"/>
</g>
<!-- Node68&#45;&gt;Node70 -->
<g id="edge76" class="edge">
<title>Node68&#45;&gt;Node70</title>
<path fill="none" stroke="#63b8ff" d="M1607.56,-274.98C1643.92,-265.89 1701.67,-251.46 1741.47,-241.51"/>
<polygon fill="#63b8ff" stroke="#63b8ff" points="1742.32,-244.9 1751.17,-239.08 1740.62,-238.11 1742.32,-244.9"/>
</g>
<!-- Node71&#45;&gt;Node13 -->
<g id="edge80" class="edge">
<title>Node71&#45;&gt;Node13</title>
<path fill="none" stroke="#63b8ff" d="M934.63,-274.76C932.23,-254.12 924.07,-201.36 900.5,-165 892.83,-153.16 881.08,-142.73 870.7,-134.95"/>
<polygon fill="#63b8ff" stroke="#63b8ff" points="872.59,-132 862.41,-129.06 868.54,-137.71 872.59,-132"/>
</g>
<!-- Node72&#45;&gt;Node3 -->
<g id="edge82" class="edge">
<title>Node72&#45;&gt;Node3</title>
<path fill="none" stroke="#63b8ff" d="M685.44,-274.75C690.48,-267.34 697.84,-256.5 704.01,-247.41"/>
<polygon fill="#63b8ff" stroke="#63b8ff" points="706.94,-249.33 709.67,-239.09 701.15,-245.39 706.94,-249.33"/>
</g>
<!-- Node72&#45;&gt;Node42 -->
<g id="edge84" class="edge">
<title>Node72&#45;&gt;Node42</title>
<path fill="none" stroke="#63b8ff" d="M678.09,-274.98C674.97,-252.9 670.15,-193.59 702.5,-165 762.62,-111.86 802.21,-144.74 885.87,-128.86"/>
<polygon fill="#63b8ff" stroke="#63b8ff" points="886.67,-132.27 895.75,-126.8 885.24,-125.41 886.67,-132.27"/>
</g>
<!-- Node72&#45;&gt;Node50 -->
<g id="edge83" class="edge">
<title>Node72&#45;&gt;Node50</title>
<path fill="none" stroke="#63b8ff" d="M637.4,-279.98C519.28,-269.54 187.22,-236.19 92.5,-184 72.7,-173.09 56.26,-152.63 46.2,-137.88"/>
<polygon fill="#63b8ff" stroke="#63b8ff" points="48.92,-135.65 40.54,-129.16 43.05,-139.46 48.92,-135.65"/>
</g>
</g>
</svg>
