<?xml version="1.0" encoding="UTF-8" standalone="no"?>
<!DOCTYPE svg PUBLIC "-//W3C//DTD SVG 1.1//EN"
 "http://www.w3.org/Graphics/SVG/1.1/DTD/svg11.dtd">
<!-- Generated by graphviz version 2.43.0 (0)
 -->
<!-- Title: src/cells/ImgCell.cpp Pages: 1 -->
<svg width="2096pt" height="412pt"
 viewBox="0.00 0.00 2095.87 412.00" xmlns="http://www.w3.org/2000/svg" xmlns:xlink="http://www.w3.org/1999/xlink">
<g id="graph0" class="graph" transform="scale(1 1) rotate(0) translate(4 408)">
<title>src/cells/ImgCell.cpp</title>
<!-- Node1 -->
<g id="node1" class="node">
<title>Node1</title>
<g id="a_node1"><a xlink:title="This file defines the class ImgCell.">
<polygon fill="#999999" stroke="#666666" points="1688.87,-404 1571.87,-404 1571.87,-385 1688.87,-385 1688.87,-404"/>
<text text-anchor="middle" x="1630.37" y="-392" font-family="Helvetica,sans-Serif" font-size="10.00">src/cells/ImgCell.cpp</text>
</a>
</g>
</g>
<!-- Node2 -->
<g id="node2" class="node">
<title>Node2</title>
<g id="a_node2"><a xlink:href="ImgCell_8h_source.html" target="_top" xlink:title=" ">
<polygon fill="white" stroke="#666666" points="1502.87,-349 1439.87,-349 1439.87,-330 1502.87,-330 1502.87,-349"/>
<text text-anchor="middle" x="1471.37" y="-337" font-family="Helvetica,sans-Serif" font-size="10.00">ImgCell.h</text>
</a>
</g>
</g>
<!-- Node1&#45;&gt;Node2 -->
<g id="edge1" class="edge">
<title>Node1&#45;&gt;Node2</title>
<path fill="none" stroke="#63b8ff" d="M1604.82,-384.98C1578.25,-376.13 1536.43,-362.19 1506.7,-352.28"/>
<polygon fill="#63b8ff" stroke="#63b8ff" points="1507.71,-348.92 1497.12,-349.08 1505.5,-355.56 1507.71,-348.92"/>
</g>
<!-- Node13 -->
<g id="node13" class="node">
<title>Node13</title>
<g id="a_node13"><a xlink:title=" ">
<polygon fill="#e0e0e0" stroke="#999999" points="548.37,-129 490.37,-129 490.37,-110 548.37,-110 548.37,-129"/>
<text text-anchor="middle" x="519.37" y="-117" font-family="Helvetica,sans-Serif" font-size="10.00">memory</text>
</a>
</g>
</g>
<!-- Node1&#45;&gt;Node13 -->
<g id="edge82" class="edge">
<title>Node1&#45;&gt;Node13</title>
<path fill="none" stroke="#63b8ff" d="M1571.48,-391.53C1324.3,-382.86 383.37,-345.9 383.37,-285.5 383.37,-285.5 383.37,-285.5 383.37,-228.5 383.37,-178.36 440.75,-147.79 480.97,-132.52"/>
<polygon fill="#63b8ff" stroke="#63b8ff" points="482.32,-135.76 490.53,-129.05 479.93,-129.18 482.32,-135.76"/>
</g>
<!-- Node47 -->
<g id="node27" class="node">
<title>Node47</title>
<g id="a_node27"><a xlink:href="StringUtils_8h_source.html" target="_top" xlink:title=" ">
<polygon fill="white" stroke="#666666" points="1962.87,-184 1885.87,-184 1885.87,-165 1962.87,-165 1962.87,-184"/>
<text text-anchor="middle" x="1924.37" y="-172" font-family="Helvetica,sans-Serif" font-size="10.00">StringUtils.h</text>
</a>
</g>
</g>
<!-- Node1&#45;&gt;Node47 -->
<g id="edge81" class="edge">
<title>Node1&#45;&gt;Node47</title>
<path fill="none" stroke="#63b8ff" d="M1624.58,-384.61C1616.96,-371.66 1605.7,-347.29 1616.37,-330 1673.34,-237.69 1804.14,-198.63 1875.59,-183.7"/>
<polygon fill="#63b8ff" stroke="#63b8ff" points="1876.57,-187.08 1885.68,-181.67 1875.19,-180.21 1876.57,-187.08"/>
</g>
<!-- Node64 -->
<g id="node44" class="node">
<title>Node64</title>
<g id="a_node44"><a xlink:href="CellImpl_8h.html" target="_top" xlink:title="Macros and types used only by cell implementations, not by cell users.">
<polygon fill="white" stroke="#666666" points="477.37,-294 411.37,-294 411.37,-275 477.37,-275 477.37,-294"/>
<text text-anchor="middle" x="444.37" y="-282" font-family="Helvetica,sans-Serif" font-size="10.00">CellImpl.h</text>
</a>
</g>
</g>
<!-- Node1&#45;&gt;Node64 -->
<g id="edge75" class="edge">
<title>Node1&#45;&gt;Node64</title>
<path fill="none" stroke="#63b8ff" d="M1571.78,-390.29C1403.31,-380.64 903.3,-349.12 491.37,-294 490.1,-293.83 488.81,-293.65 487.51,-293.46"/>
<polygon fill="#63b8ff" stroke="#63b8ff" points="487.86,-289.97 477.43,-291.87 486.77,-296.89 487.86,-289.97"/>
</g>
<!-- Node65 -->
<g id="node45" class="node">
<title>Node65</title>
<g id="a_node45"><a xlink:href="CellPointers_8h_source.html" target="_top" xlink:title=" ">
<polygon fill="white" stroke="#666666" points="863.37,-294 779.37,-294 779.37,-275 863.37,-275 863.37,-294"/>
<text text-anchor="middle" x="821.37" y="-282" font-family="Helvetica,sans-Serif" font-size="10.00">CellPointers.h</text>
</a>
</g>
</g>
<!-- Node1&#45;&gt;Node65 -->
<g id="edge77" class="edge">
<title>Node1&#45;&gt;Node65</title>
<path fill="none" stroke="#63b8ff" d="M1571.86,-385.69C1420.52,-365.48 1017.89,-311.73 873.67,-292.48"/>
<polygon fill="#63b8ff" stroke="#63b8ff" points="874.12,-289.01 863.74,-291.16 873.19,-295.95 874.12,-289.01"/>
</g>
<!-- Node66 -->
<g id="node46" class="node">
<title>Node66</title>
<g id="a_node46"><a xlink:title=" ">
<polygon fill="#e0e0e0" stroke="#999999" points="1701.37,-349 1625.37,-349 1625.37,-330 1701.37,-330 1701.37,-349"/>
<text text-anchor="middle" x="1663.37" y="-337" font-family="Helvetica,sans-Serif" font-size="10.00">wx/clipbrd.h</text>
</a>
</g>
</g>
<!-- Node1&#45;&gt;Node66 -->
<g id="edge83" class="edge">
<title>Node1&#45;&gt;Node66</title>
<path fill="none" stroke="#63b8ff" d="M1635.82,-384.75C1640.38,-377.42 1647.04,-366.73 1652.66,-357.7"/>
<polygon fill="#63b8ff" stroke="#63b8ff" points="1655.71,-359.43 1658.02,-349.09 1649.77,-355.73 1655.71,-359.43"/>
</g>
<!-- Node67 -->
<g id="node47" class="node">
<title>Node67</title>
<g id="a_node47"><a xlink:title=" ">
<polygon fill="#e0e0e0" stroke="#999999" points="1777.37,-349 1719.37,-349 1719.37,-330 1777.37,-330 1777.37,-349"/>
<text text-anchor="middle" x="1748.37" y="-337" font-family="Helvetica,sans-Serif" font-size="10.00">wx/file.h</text>
</a>
</g>
</g>
<!-- Node1&#45;&gt;Node67 -->
<g id="edge84" class="edge">
<title>Node1&#45;&gt;Node67</title>
<path fill="none" stroke="#63b8ff" d="M1649.33,-384.98C1668.4,-376.42 1698.03,-363.11 1719.92,-353.28"/>
<polygon fill="#63b8ff" stroke="#63b8ff" points="1721.38,-356.46 1729.07,-349.17 1718.51,-350.07 1721.38,-356.46"/>
</g>
<!-- Node68 -->
<g id="node48" class="node">
<title>Node68</title>
<g id="a_node48"><a xlink:title=" ">
<polygon fill="#e0e0e0" stroke="#999999" points="1881.37,-349 1795.37,-349 1795.37,-330 1881.37,-330 1881.37,-349"/>
<text text-anchor="middle" x="1838.37" y="-337" font-family="Helvetica,sans-Serif" font-size="10.00">wx/filename.h</text>
</a>
</g>
</g>
<!-- Node1&#45;&gt;Node68 -->
<g id="edge85" class="edge">
<title>Node1&#45;&gt;Node68</title>
<path fill="none" stroke="#63b8ff" d="M1663.79,-384.98C1699.31,-375.93 1755.64,-361.58 1794.67,-351.64"/>
<polygon fill="#63b8ff" stroke="#63b8ff" points="1795.86,-354.94 1804.69,-349.08 1794.13,-348.16 1795.86,-354.94"/>
</g>
<!-- Node69 -->
<g id="node49" class="node">
<title>Node69</title>
<g id="a_node49"><a xlink:title=" ">
<polygon fill="#e0e0e0" stroke="#999999" points="1982.87,-349 1899.87,-349 1899.87,-330 1982.87,-330 1982.87,-349"/>
<text text-anchor="middle" x="1941.37" y="-337" font-family="Helvetica,sans-Serif" font-size="10.00">wx/fs_mem.h</text>
</a>
</g>
</g>
<!-- Node1&#45;&gt;Node69 -->
<g id="edge86" class="edge">
<title>Node1&#45;&gt;Node69</title>
<path fill="none" stroke="#63b8ff" d="M1680.34,-384.98C1737.68,-375.21 1831.27,-359.26 1889.43,-349.35"/>
<polygon fill="#63b8ff" stroke="#63b8ff" points="1890.23,-352.77 1899.5,-347.63 1889.06,-345.86 1890.23,-352.77"/>
</g>
<!-- Node70 -->
<g id="node50" class="node">
<title>Node70</title>
<g id="a_node50"><a xlink:title=" ">
<polygon fill="#e0e0e0" stroke="#999999" points="2087.87,-349 2000.87,-349 2000.87,-330 2087.87,-330 2087.87,-349"/>
<text text-anchor="middle" x="2044.37" y="-337" font-family="Helvetica,sans-Serif" font-size="10.00">wx/mstream.h</text>
</a>
</g>
</g>
<!-- Node1&#45;&gt;Node70 -->
<g id="edge87" class="edge">
<title>Node1&#45;&gt;Node70</title>
<path fill="none" stroke="#63b8ff" d="M1689.09,-387.01C1758.67,-379.15 1878.38,-365.13 1990.56,-349.21"/>
<polygon fill="#63b8ff" stroke="#63b8ff" points="1991.29,-352.65 2000.7,-347.77 1990.3,-345.72 1991.29,-352.65"/>
</g>
<!-- Node3 -->
<g id="node3" class="node">
<title>Node3</title>
<g id="a_node3"><a xlink:href="Cell_8h.html" target="_top" xlink:title="The definition of the base class of all cells the worksheet consists of.">
<polygon fill="white" stroke="#666666" points="687.37,-239 643.37,-239 643.37,-220 687.37,-220 687.37,-239"/>
<text text-anchor="middle" x="665.37" y="-227" font-family="Helvetica,sans-Serif" font-size="10.00">Cell.h</text>
</a>
</g>
</g>
<!-- Node2&#45;&gt;Node3 -->
<g id="edge2" class="edge">
<title>Node2&#45;&gt;Node3</title>
<path fill="none" stroke="#63b8ff" d="M1439.73,-334.37C1336.78,-320.93 1002.05,-277.05 725.37,-239 716.38,-237.76 706.64,-236.4 697.67,-235.12"/>
<polygon fill="#63b8ff" stroke="#63b8ff" points="697.98,-231.63 687.59,-233.69 697,-238.56 697.98,-231.63"/>
</g>
<!-- Node2&#45;&gt;Node13 -->
<g id="edge73" class="edge">
<title>Node2&#45;&gt;Node13</title>
<path fill="none" stroke="#63b8ff" d="M1439.48,-337.58C1320.3,-333.96 901.26,-319.65 770.37,-294 694.93,-279.22 668.47,-284.33 606.37,-239 569.06,-211.77 541.02,-163.82 527.79,-138.05"/>
<polygon fill="#63b8ff" stroke="#63b8ff" points="530.91,-136.46 523.32,-129.06 524.64,-139.57 530.91,-136.46"/>
</g>
<!-- Node52 -->
<g id="node32" class="node">
<title>Node52</title>
<g id="a_node32"><a xlink:title=" ">
<polygon fill="#e0e0e0" stroke="#999999" points="2055.37,-184 1981.37,-184 1981.37,-165 2055.37,-165 2055.37,-184"/>
<text text-anchor="middle" x="2018.37" y="-172" font-family="Helvetica,sans-Serif" font-size="10.00">wx/image.h</text>
</a>
</g>
</g>
<!-- Node2&#45;&gt;Node52 -->
<g id="edge52" class="edge">
<title>Node2&#45;&gt;Node52</title>
<path fill="none" stroke="#63b8ff" d="M1500.01,-329.97C1591.38,-302.74 1876.03,-217.91 1979.92,-186.96"/>
<polygon fill="#63b8ff" stroke="#63b8ff" points="1981.1,-190.26 1989.69,-184.05 1979.1,-183.55 1981.1,-190.26"/>
</g>
<!-- Node53 -->
<g id="node33" class="node">
<title>Node53</title>
<g id="a_node33"><a xlink:href="Image_8h.html" target="_top" xlink:title="This file declares the class Image.">
<polygon fill="white" stroke="#666666" points="1402.37,-239 1346.37,-239 1346.37,-220 1402.37,-220 1402.37,-239"/>
<text text-anchor="middle" x="1374.37" y="-227" font-family="Helvetica,sans-Serif" font-size="10.00">Image.h</text>
</a>
</g>
</g>
<!-- Node2&#45;&gt;Node53 -->
<g id="edge53" class="edge">
<title>Node2&#45;&gt;Node53</title>
<path fill="none" stroke="#63b8ff" d="M1459.49,-329.7C1448.44,-321.22 1431.87,-307.69 1419.37,-294 1406.18,-279.54 1393.51,-261.12 1384.99,-247.84"/>
<polygon fill="#63b8ff" stroke="#63b8ff" points="1387.86,-245.83 1379.58,-239.22 1381.93,-249.55 1387.86,-245.83"/>
</g>
<!-- Node61 -->
<g id="node41" class="node">
<title>Node61</title>
<g id="a_node41"><a xlink:href="ImgCellBase_8h_source.html" target="_top" xlink:title=" ">
<polygon fill="white" stroke="#666666" points="1514.87,-294 1427.87,-294 1427.87,-275 1514.87,-275 1514.87,-294"/>
<text text-anchor="middle" x="1471.37" y="-282" font-family="Helvetica,sans-Serif" font-size="10.00">ImgCellBase.h</text>
</a>
</g>
</g>
<!-- Node2&#45;&gt;Node61 -->
<g id="edge66" class="edge">
<title>Node2&#45;&gt;Node61</title>
<path fill="none" stroke="#63b8ff" d="M1471.37,-329.75C1471.37,-322.8 1471.37,-312.85 1471.37,-304.13"/>
<polygon fill="#63b8ff" stroke="#63b8ff" points="1474.87,-304.09 1471.37,-294.09 1467.87,-304.09 1474.87,-304.09"/>
</g>
<!-- Node63 -->
<g id="node43" class="node">
<title>Node63</title>
<g id="a_node43"><a xlink:title=" ">
<polygon fill="#e0e0e0" stroke="#999999" points="1660.37,-239 1588.37,-239 1588.37,-220 1660.37,-220 1660.37,-239"/>
<text text-anchor="middle" x="1624.37" y="-227" font-family="Helvetica,sans-Serif" font-size="10.00">wx/fs_arc.h</text>
</a>
</g>
</g>
<!-- Node2&#45;&gt;Node63 -->
<g id="edge74" class="edge">
<title>Node2&#45;&gt;Node63</title>
<path fill="none" stroke="#63b8ff" d="M1483.63,-329.84C1509.82,-311.36 1571.44,-267.86 1603.76,-245.05"/>
<polygon fill="#63b8ff" stroke="#63b8ff" points="1605.9,-247.82 1612.05,-239.2 1601.86,-242.1 1605.9,-247.82"/>
</g>
<!-- Node4 -->
<g id="node4" class="node">
<title>Node4</title>
<g id="a_node4"><a xlink:href="precomp_8h_source.html" target="_top" xlink:title=" ">
<polygon fill="white" stroke="#666666" points="1483.87,-74 1406.87,-74 1406.87,-55 1483.87,-55 1483.87,-74"/>
<text text-anchor="middle" x="1445.37" y="-62" font-family="Helvetica,sans-Serif" font-size="10.00">../precomp.h</text>
</a>
</g>
</g>
<!-- Node3&#45;&gt;Node4 -->
<g id="edge3" class="edge">
<title>Node3&#45;&gt;Node4</title>
<path fill="none" stroke="#63b8ff" d="M687.5,-227.17C735.25,-223.83 851.09,-213.16 943.37,-184 961.76,-178.19 963.78,-170.11 982.37,-165 1075.04,-139.52 1333.7,-182.77 1413.37,-129 1428.54,-118.76 1436.87,-99.09 1441.2,-84.35"/>
<polygon fill="#63b8ff" stroke="#63b8ff" points="1444.69,-84.82 1443.77,-74.27 1437.9,-83.09 1444.69,-84.82"/>
</g>
<!-- Node6 -->
<g id="node6" class="node">
<title>Node6</title>
<g id="a_node6"><a xlink:href="CellPtr_8h.html" target="_top" xlink:title="Implementation of an observing weak Cell pointer.">
<polygon fill="white" stroke="#666666" points="354.87,-184 297.87,-184 297.87,-165 354.87,-165 354.87,-184"/>
<text text-anchor="middle" x="326.37" y="-172" font-family="Helvetica,sans-Serif" font-size="10.00">CellPtr.h</text>
</a>
</g>
</g>
<!-- Node3&#45;&gt;Node6 -->
<g id="edge5" class="edge">
<title>Node3&#45;&gt;Node6</title>
<path fill="none" stroke="#63b8ff" d="M643.13,-225.02C586.55,-216.18 436.58,-192.73 365.2,-181.57"/>
<polygon fill="#63b8ff" stroke="#63b8ff" points="365.68,-178.1 355.25,-180.02 364.59,-185.02 365.68,-178.1"/>
</g>
<!-- Node3&#45;&gt;Node13 -->
<g id="edge49" class="edge">
<title>Node3&#45;&gt;Node13</title>
<path fill="none" stroke="#63b8ff" d="M648.44,-219.9C632.61,-211.55 608.6,-198.11 589.37,-184 569.47,-169.39 548.78,-150.02 535.1,-136.53"/>
<polygon fill="#63b8ff" stroke="#63b8ff" points="537.47,-133.94 527.92,-129.35 532.52,-138.89 537.47,-133.94"/>
</g>
<!-- Node14 -->
<g id="node14" class="node">
<title>Node14</title>
<g id="a_node14"><a xlink:title=" ">
<polygon fill="#e0e0e0" stroke="#999999" points="89.87,-129 20.87,-129 20.87,-110 89.87,-110 89.87,-129"/>
<text text-anchor="middle" x="55.37" y="-117" font-family="Helvetica,sans-Serif" font-size="10.00">type_traits</text>
</a>
</g>
</g>
<!-- Node3&#45;&gt;Node14 -->
<g id="edge51" class="edge">
<title>Node3&#45;&gt;Node14</title>
<path fill="none" stroke="#63b8ff" d="M643.16,-228.28C541.16,-227.05 120.59,-219.86 75.37,-184 62.08,-173.46 57.45,-154.13 55.93,-139.56"/>
<polygon fill="#63b8ff" stroke="#63b8ff" points="59.39,-138.91 55.26,-129.15 52.41,-139.35 59.39,-138.91"/>
</g>
<!-- Node15 -->
<g id="node15" class="node">
<title>Node15</title>
<g id="a_node15"><a xlink:href="CellIterators_8h.html" target="_top" xlink:title="Declares the various iterators useful with the Cell class.">
<polygon fill="white" stroke="#666666" points="279.37,-184 193.37,-184 193.37,-165 279.37,-165 279.37,-184"/>
<text text-anchor="middle" x="236.37" y="-172" font-family="Helvetica,sans-Serif" font-size="10.00">CellIterators.h</text>
</a>
</g>
</g>
<!-- Node3&#45;&gt;Node15 -->
<g id="edge14" class="edge">
<title>Node3&#45;&gt;Node15</title>
<path fill="none" stroke="#63b8ff" d="M643.23,-226.23C586.37,-220.34 430.36,-203.72 289.59,-184.11"/>
<polygon fill="#63b8ff" stroke="#63b8ff" points="289.87,-180.62 279.48,-182.7 288.9,-187.55 289.87,-180.62"/>
</g>
<!-- Node16 -->
<g id="node16" class="node">
<title>Node16</title>
<g id="a_node16"><a xlink:href="Configuration_8h_source.html" target="_top" xlink:title=" ">
<polygon fill="#fff0f0" stroke="red" points="934.87,-184 843.87,-184 843.87,-165 934.87,-165 934.87,-184"/>
<text text-anchor="middle" x="889.37" y="-172" font-family="Helvetica,sans-Serif" font-size="10.00">Configuration.h</text>
</a>
</g>
</g>
<!-- Node3&#45;&gt;Node16 -->
<g id="edge18" class="edge">
<title>Node3&#45;&gt;Node16</title>
<path fill="none" stroke="#63b8ff" d="M687.67,-223.22C723.83,-214.67 795.99,-197.6 843.47,-186.36"/>
<polygon fill="#63b8ff" stroke="#63b8ff" points="844.28,-189.77 853.2,-184.06 842.66,-182.95 844.28,-189.77"/>
</g>
<!-- Node24 -->
<g id="node23" class="node">
<title>Node24</title>
<g id="a_node23"><a xlink:href="TextStyle_8h.html" target="_top" xlink:title="This file declares everything needed for the text style system used to style all the elements on the ...">
<polygon fill="#fff0f0" stroke="red" points="848.37,-129 752.37,-129 752.37,-110 848.37,-110 848.37,-129"/>
<text text-anchor="middle" x="800.37" y="-117" font-family="Helvetica,sans-Serif" font-size="10.00">cells/TextStyle.h</text>
</a>
</g>
</g>
<!-- Node3&#45;&gt;Node24 -->
<g id="edge41" class="edge">
<title>Node3&#45;&gt;Node24</title>
<path fill="none" stroke="#63b8ff" d="M676.42,-219.66C699.47,-201.22 752.94,-158.45 781.53,-135.57"/>
<polygon fill="#63b8ff" stroke="#63b8ff" points="783.93,-138.14 789.55,-129.16 779.55,-132.67 783.93,-138.14"/>
</g>
<!-- Node26 -->
<g id="node24" class="node">
<title>Node26</title>
<g id="a_node24"><a xlink:title=" ">
<polygon fill="#e0e0e0" stroke="#999999" points="68.37,-74 30.37,-74 30.37,-55 68.37,-55 68.37,-74"/>
<text text-anchor="middle" x="49.37" y="-62" font-family="Helvetica,sans-Serif" font-size="10.00">map</text>
</a>
</g>
</g>
<!-- Node3&#45;&gt;Node26 -->
<g id="edge48" class="edge">
<title>Node3&#45;&gt;Node26</title>
<path fill="none" stroke="#63b8ff" d="M643.06,-228.89C546.64,-230.28 165.72,-232.55 58.37,-184 26.59,-169.62 15.87,-161.17 2.37,-129 -5.42,-110.43 11.18,-92.28 26.76,-80.17"/>
<polygon fill="#63b8ff" stroke="#63b8ff" points="29.1,-82.8 35.15,-74.1 25,-77.12 29.1,-82.8"/>
</g>
<!-- Node44 -->
<g id="node25" class="node">
<title>Node44</title>
<g id="a_node25"><a xlink:title=" ">
<polygon fill="#e0e0e0" stroke="#999999" points="613.87,-129 566.87,-129 566.87,-110 613.87,-110 613.87,-129"/>
<text text-anchor="middle" x="590.37" y="-117" font-family="Helvetica,sans-Serif" font-size="10.00">vector</text>
</a>
</g>
</g>
<!-- Node3&#45;&gt;Node44 -->
<g id="edge50" class="edge">
<title>Node3&#45;&gt;Node44</title>
<path fill="none" stroke="#63b8ff" d="M644.97,-219.96C630.14,-212.65 610.89,-200.65 600.37,-184 591.98,-170.72 589.79,-152.84 589.53,-139.44"/>
<polygon fill="#63b8ff" stroke="#63b8ff" points="593.03,-139.09 589.67,-129.05 586.03,-138.99 593.03,-139.09"/>
</g>
<!-- Node37 -->
<g id="node26" class="node">
<title>Node37</title>
<g id="a_node26"><a xlink:title=" ">
<polygon fill="#e0e0e0" stroke="#999999" points="696.37,-129 632.37,-129 632.37,-110 696.37,-110 696.37,-129"/>
<text text-anchor="middle" x="664.37" y="-117" font-family="Helvetica,sans-Serif" font-size="10.00">algorithm</text>
</a>
</g>
</g>
<!-- Node3&#45;&gt;Node37 -->
<g id="edge47" class="edge">
<title>Node3&#45;&gt;Node37</title>
<path fill="none" stroke="#63b8ff" d="M670.22,-219.96C676.52,-207.85 686.25,-184.94 682.37,-165 680.58,-155.8 676.89,-146.09 673.31,-138.1"/>
<polygon fill="#63b8ff" stroke="#63b8ff" points="676.46,-136.57 668.99,-129.06 670.14,-139.59 676.46,-136.57"/>
</g>
<!-- Node3&#45;&gt;Node47 -->
<g id="edge38" class="edge">
<title>Node3&#45;&gt;Node47</title>
<path fill="none" stroke="#63b8ff" d="M687.4,-227.88C803.07,-224.55 1351.9,-208.16 1800.37,-184 1825.22,-182.66 1852.85,-180.8 1875.71,-179.17"/>
<polygon fill="#63b8ff" stroke="#63b8ff" points="1876.13,-182.65 1885.85,-178.43 1875.62,-175.66 1876.13,-182.65"/>
</g>
<!-- Node50 -->
<g id="node30" class="node">
<title>Node50</title>
<g id="a_node30"><a xlink:href="CachedValue_8h.html" target="_top" xlink:title="Declares &quot;mostly read&#45;only&quot; wrappers around values that are expensive to compute and are thus cached.">
<polygon fill="#fff0f0" stroke="red" points="173.87,-184 84.87,-184 84.87,-165 173.87,-165 173.87,-184"/>
<text text-anchor="middle" x="129.37" y="-172" font-family="Helvetica,sans-Serif" font-size="10.00">CachedValue.h</text>
</a>
</g>
</g>
<!-- Node3&#45;&gt;Node50 -->
<g id="edge42" class="edge">
<title>Node3&#45;&gt;Node50</title>
<path fill="none" stroke="#63b8ff" d="M643.26,-226.94C574.89,-222 360.82,-205.78 184.37,-184 184.27,-183.99 184.16,-183.97 184.06,-183.96"/>
<polygon fill="#63b8ff" stroke="#63b8ff" points="184.44,-180.48 174.06,-182.64 183.52,-187.42 184.44,-180.48"/>
</g>
<!-- Node51 -->
<g id="node31" class="node">
<title>Node51</title>
<g id="a_node31"><a xlink:title=" ">
<polygon fill="#e0e0e0" stroke="#999999" points="673.37,-184 609.37,-184 609.37,-165 673.37,-165 673.37,-184"/>
<text text-anchor="middle" x="641.37" y="-172" font-family="Helvetica,sans-Serif" font-size="10.00">wx/defs.h</text>
</a>
</g>
</g>
<!-- Node3&#45;&gt;Node51 -->
<g id="edge46" class="edge">
<title>Node3&#45;&gt;Node51</title>
<path fill="none" stroke="#63b8ff" d="M661.41,-219.75C658.16,-212.57 653.45,-202.18 649.42,-193.27"/>
<polygon fill="#63b8ff" stroke="#63b8ff" points="652.57,-191.75 645.26,-184.09 646.2,-194.64 652.57,-191.75"/>
</g>
<!-- Node5 -->
<g id="node5" class="node">
<title>Node5</title>
<g id="a_node5"><a xlink:href="Version_8h_source.html" target="_top" xlink:title=" ">
<polygon fill="white" stroke="#666666" points="1672.37,-19 1610.37,-19 1610.37,0 1672.37,0 1672.37,-19"/>
<text text-anchor="middle" x="1641.37" y="-7" font-family="Helvetica,sans-Serif" font-size="10.00">Version.h</text>
</a>
</g>
</g>
<!-- Node4&#45;&gt;Node5 -->
<g id="edge4" class="edge">
<title>Node4&#45;&gt;Node5</title>
<path fill="none" stroke="#63b8ff" d="M1476.86,-54.98C1510.39,-45.92 1563.59,-31.53 1600.37,-21.59"/>
<polygon fill="#63b8ff" stroke="#63b8ff" points="1601.54,-24.9 1610.28,-18.91 1599.71,-18.14 1601.54,-24.9"/>
</g>
<!-- Node7 -->
<g id="node7" class="node">
<title>Node7</title>
<g id="a_node7"><a xlink:title=" ">
<polygon fill="#e0e0e0" stroke="#999999" points="180.87,-129 107.87,-129 107.87,-110 180.87,-110 180.87,-129"/>
<text text-anchor="middle" x="144.37" y="-117" font-family="Helvetica,sans-Serif" font-size="10.00">wx/debug.h</text>
</a>
</g>
</g>
<!-- Node6&#45;&gt;Node7 -->
<g id="edge6" class="edge">
<title>Node6&#45;&gt;Node7</title>
<path fill="none" stroke="#63b8ff" d="M297.53,-165.1C266.7,-156.12 217.62,-141.83 183.36,-131.85"/>
<polygon fill="#63b8ff" stroke="#63b8ff" points="184.26,-128.47 173.68,-129.03 182.3,-135.19 184.26,-128.47"/>
</g>
<!-- Node8 -->
<g id="node8" class="node">
<title>Node8</title>
<g id="a_node8"><a xlink:title=" ">
<polygon fill="#e0e0e0" stroke="#999999" points="238.37,-74 180.37,-74 180.37,-55 238.37,-55 238.37,-74"/>
<text text-anchor="middle" x="209.37" y="-62" font-family="Helvetica,sans-Serif" font-size="10.00">wx/log.h</text>
</a>
</g>
</g>
<!-- Node6&#45;&gt;Node8 -->
<g id="edge7" class="edge">
<title>Node6&#45;&gt;Node8</title>
<path fill="none" stroke="#63b8ff" d="M297.58,-167.3C275.66,-161.14 246.31,-149.55 228.37,-129 217.61,-116.67 212.94,-98.45 210.92,-84.68"/>
<polygon fill="#63b8ff" stroke="#63b8ff" points="214.36,-83.94 209.76,-74.4 207.4,-84.72 214.36,-83.94"/>
</g>
<!-- Node9 -->
<g id="node9" class="node">
<title>Node9</title>
<g id="a_node9"><a xlink:title=" ">
<polygon fill="#e0e0e0" stroke="#999999" points="282.87,-129 237.87,-129 237.87,-110 282.87,-110 282.87,-129"/>
<text text-anchor="middle" x="260.37" y="-117" font-family="Helvetica,sans-Serif" font-size="10.00">utility</text>
</a>
</g>
</g>
<!-- Node6&#45;&gt;Node9 -->
<g id="edge8" class="edge">
<title>Node6&#45;&gt;Node9</title>
<path fill="none" stroke="#63b8ff" d="M315.77,-164.98C305.91,-157.07 291.02,-145.11 279.16,-135.58"/>
<polygon fill="#63b8ff" stroke="#63b8ff" points="281.16,-132.7 271.17,-129.17 276.77,-138.16 281.16,-132.7"/>
</g>
<!-- Node10 -->
<g id="node10" class="node">
<title>Node10</title>
<g id="a_node10"><a xlink:title=" ">
<polygon fill="#e0e0e0" stroke="#999999" points="353.87,-129 300.87,-129 300.87,-110 353.87,-110 353.87,-129"/>
<text text-anchor="middle" x="327.37" y="-117" font-family="Helvetica,sans-Serif" font-size="10.00">cstddef</text>
</a>
</g>
</g>
<!-- Node6&#45;&gt;Node10 -->
<g id="edge9" class="edge">
<title>Node6&#45;&gt;Node10</title>
<path fill="none" stroke="#63b8ff" d="M326.54,-164.75C326.67,-157.8 326.85,-147.85 327.02,-139.13"/>
<polygon fill="#63b8ff" stroke="#63b8ff" points="330.52,-139.15 327.21,-129.09 323.52,-139.02 330.52,-139.15"/>
</g>
<!-- Node11 -->
<g id="node11" class="node">
<title>Node11</title>
<g id="a_node11"><a xlink:title=" ">
<polygon fill="#e0e0e0" stroke="#999999" points="749.37,-74 699.37,-74 699.37,-55 749.37,-55 749.37,-74"/>
<text text-anchor="middle" x="724.37" y="-62" font-family="Helvetica,sans-Serif" font-size="10.00">cstdint</text>
</a>
</g>
</g>
<!-- Node6&#45;&gt;Node11 -->
<g id="edge10" class="edge">
<title>Node6&#45;&gt;Node11</title>
<path fill="none" stroke="#63b8ff" d="M350.86,-165C374.73,-156.52 411.93,-142.8 443.37,-129 460.66,-121.41 463.46,-115.98 481.37,-110 553.04,-86.06 641.15,-74 689.13,-68.8"/>
<polygon fill="#63b8ff" stroke="#63b8ff" points="689.72,-72.26 699.3,-67.74 688.99,-65.29 689.72,-72.26"/>
</g>
<!-- Node12 -->
<g id="node12" class="node">
<title>Node12</title>
<g id="a_node12"><a xlink:title=" ">
<polygon fill="#e0e0e0" stroke="#999999" points="434.37,-129 372.37,-129 372.37,-110 434.37,-110 434.37,-129"/>
<text text-anchor="middle" x="403.37" y="-117" font-family="Helvetica,sans-Serif" font-size="10.00">cinttypes</text>
</a>
</g>
</g>
<!-- Node6&#45;&gt;Node12 -->
<g id="edge11" class="edge">
<title>Node6&#45;&gt;Node12</title>
<path fill="none" stroke="#63b8ff" d="M338.74,-164.98C350.46,-156.92 368.29,-144.65 382.26,-135.03"/>
<polygon fill="#63b8ff" stroke="#63b8ff" points="384.52,-137.72 390.77,-129.17 380.55,-131.96 384.52,-137.72"/>
</g>
<!-- Node6&#45;&gt;Node13 -->
<g id="edge12" class="edge">
<title>Node6&#45;&gt;Node13</title>
<path fill="none" stroke="#63b8ff" d="M355.26,-165.57C388.52,-156.43 443.31,-141.39 480.34,-131.22"/>
<polygon fill="#63b8ff" stroke="#63b8ff" points="481.56,-134.51 490.28,-128.49 479.71,-127.76 481.56,-134.51"/>
</g>
<!-- Node6&#45;&gt;Node14 -->
<g id="edge13" class="edge">
<title>Node6&#45;&gt;Node14</title>
<path fill="none" stroke="#63b8ff" d="M297.76,-166.99C294.59,-166.31 291.42,-165.63 288.37,-165 207.32,-148.26 184.43,-145.52 100.13,-129.32"/>
<polygon fill="#63b8ff" stroke="#63b8ff" points="100.58,-125.85 90.1,-127.39 99.26,-132.72 100.58,-125.85"/>
</g>
<!-- Node15&#45;&gt;Node7 -->
<g id="edge15" class="edge">
<title>Node15&#45;&gt;Node7</title>
<path fill="none" stroke="#63b8ff" d="M221.59,-164.98C207.19,-156.69 185.06,-143.94 168.18,-134.22"/>
<polygon fill="#63b8ff" stroke="#63b8ff" points="169.83,-131.13 159.42,-129.17 166.34,-137.19 169.83,-131.13"/>
</g>
<!-- Node15&#45;&gt;Node13 -->
<g id="edge16" class="edge">
<title>Node15&#45;&gt;Node13</title>
<path fill="none" stroke="#63b8ff" d="M279.66,-165.39C334.39,-155.14 427.78,-137.65 480.38,-127.8"/>
<polygon fill="#63b8ff" stroke="#63b8ff" points="481.15,-131.22 490.34,-125.94 479.86,-124.34 481.15,-131.22"/>
</g>
<!-- Node15&#45;&gt;Node14 -->
<g id="edge17" class="edge">
<title>Node15&#45;&gt;Node14</title>
<path fill="none" stroke="#63b8ff" d="M207.29,-164.98C176.77,-156.05 128.61,-141.94 94.71,-132.02"/>
<polygon fill="#63b8ff" stroke="#63b8ff" points="95.26,-128.53 84.68,-129.08 93.29,-135.25 95.26,-128.53"/>
</g>
<!-- Node16&#45;&gt;Node4 -->
<g id="edge19" class="edge">
<title>Node16&#45;&gt;Node4</title>
<path fill="none" stroke="#63b8ff" d="M934.87,-166.77C939.76,-166.13 944.67,-165.53 949.37,-165 1046.43,-154.15 1299.7,-172.03 1387.37,-129 1408.02,-118.87 1424.81,-97.94 1434.92,-82.87"/>
<polygon fill="#63b8ff" stroke="#63b8ff" points="1437.9,-84.72 1440.32,-74.4 1432,-80.95 1437.9,-84.72"/>
</g>
<!-- Node16&#45;&gt;Node11 -->
<g id="edge34" class="edge">
<title>Node16&#45;&gt;Node11</title>
<path fill="none" stroke="#63b8ff" d="M843.75,-170.71C811.63,-166.37 769.82,-155.58 743.37,-129 731.59,-117.16 727.06,-98.32 725.34,-84.24"/>
<polygon fill="#63b8ff" stroke="#63b8ff" points="728.82,-83.85 724.49,-74.18 721.85,-84.44 728.82,-83.85"/>
</g>
<!-- Node16&#45;&gt;Node13 -->
<g id="edge35" class="edge">
<title>Node16&#45;&gt;Node13</title>
<path fill="none" stroke="#63b8ff" d="M843.8,-168.66C781.58,-161.77 666.38,-148.03 558.83,-129.13"/>
<polygon fill="#63b8ff" stroke="#63b8ff" points="559.24,-125.65 548.78,-127.34 558.01,-132.54 559.24,-125.65"/>
</g>
<!-- Node17 -->
<g id="node17" class="node">
<title>Node17</title>
<g id="a_node17"><a xlink:title=" ">
<polygon fill="#e0e0e0" stroke="#999999" points="1156.87,-129 1099.87,-129 1099.87,-110 1156.87,-110 1156.87,-129"/>
<text text-anchor="middle" x="1128.37" y="-117" font-family="Helvetica,sans-Serif" font-size="10.00">wx/wx.h</text>
</a>
</g>
</g>
<!-- Node16&#45;&gt;Node17 -->
<g id="edge20" class="edge">
<title>Node16&#45;&gt;Node17</title>
<path fill="none" stroke="#63b8ff" d="M927.77,-164.98C972.33,-155.1 1045.37,-138.9 1089.95,-129.02"/>
<polygon fill="#63b8ff" stroke="#63b8ff" points="1090.81,-132.41 1099.82,-126.83 1089.3,-125.58 1090.81,-132.41"/>
</g>
<!-- Node18 -->
<g id="node18" class="node">
<title>Node18</title>
<g id="a_node18"><a xlink:title=" ">
<polygon fill="#e0e0e0" stroke="#999999" points="973.37,-74 901.37,-74 901.37,-55 973.37,-55 973.37,-74"/>
<text text-anchor="middle" x="937.37" y="-62" font-family="Helvetica,sans-Serif" font-size="10.00">wx/config.h</text>
</a>
</g>
</g>
<!-- Node16&#45;&gt;Node18 -->
<g id="edge21" class="edge">
<title>Node16&#45;&gt;Node18</title>
<path fill="none" stroke="#63b8ff" d="M934.94,-167.29C978.02,-160.37 1038.13,-147.65 1052.37,-129 1074.43,-100.11 1024.46,-82.58 983.59,-73.47"/>
<polygon fill="#63b8ff" stroke="#63b8ff" points="984.22,-70.02 973.71,-71.38 982.77,-76.87 984.22,-70.02"/>
</g>
<!-- Node19 -->
<g id="node19" class="node">
<title>Node19</title>
<g id="a_node19"><a xlink:title=" ">
<polygon fill="#e0e0e0" stroke="#999999" points="1251.87,-129 1174.87,-129 1174.87,-110 1251.87,-110 1251.87,-129"/>
<text text-anchor="middle" x="1213.37" y="-117" font-family="Helvetica,sans-Serif" font-size="10.00">wx/display.h</text>
</a>
</g>
</g>
<!-- Node16&#45;&gt;Node19 -->
<g id="edge22" class="edge">
<title>Node16&#45;&gt;Node19</title>
<path fill="none" stroke="#63b8ff" d="M935,-166.45C987.9,-158.22 1077.99,-144 1164.65,-129.27"/>
<polygon fill="#63b8ff" stroke="#63b8ff" points="1165.38,-132.7 1174.65,-127.56 1164.21,-125.79 1165.38,-132.7"/>
</g>
<!-- Node20 -->
<g id="node20" class="node">
<title>Node20</title>
<g id="a_node20"><a xlink:title=" ">
<polygon fill="#e0e0e0" stroke="#999999" points="1360.37,-129 1270.37,-129 1270.37,-110 1360.37,-110 1360.37,-129"/>
<text text-anchor="middle" x="1315.37" y="-117" font-family="Helvetica,sans-Serif" font-size="10.00">wx/fontenum.h</text>
</a>
</g>
</g>
<!-- Node16&#45;&gt;Node20 -->
<g id="edge23" class="edge">
<title>Node16&#45;&gt;Node20</title>
<path fill="none" stroke="#63b8ff" d="M934.89,-166.93C939.78,-166.26 944.67,-165.6 949.37,-165 1084.57,-147.63 1121.35,-147.84 1260.14,-129.12"/>
<polygon fill="#63b8ff" stroke="#63b8ff" points="1260.87,-132.55 1270.31,-127.74 1259.93,-125.61 1260.87,-132.55"/>
</g>
<!-- Node21 -->
<g id="node21" class="node">
<title>Node21</title>
<g id="a_node21"><a xlink:title=" ">
<polygon fill="#e0e0e0" stroke="#999999" points="1243.37,-74 1155.37,-74 1155.37,-55 1243.37,-55 1243.37,-74"/>
<text text-anchor="middle" x="1199.37" y="-62" font-family="Helvetica,sans-Serif" font-size="10.00">wx/hashmap.h</text>
</a>
</g>
</g>
<!-- Node16&#45;&gt;Node21 -->
<g id="edge24" class="edge">
<title>Node16&#45;&gt;Node21</title>
<path fill="none" stroke="#63b8ff" d="M934.87,-166.78C939.76,-166.14 944.67,-165.53 949.37,-165 995.91,-159.71 1337.7,-163.5 1369.37,-129 1406.1,-88.99 1316.26,-74.07 1253.67,-68.59"/>
<polygon fill="#63b8ff" stroke="#63b8ff" points="1253.74,-65.09 1243.49,-67.76 1253.17,-72.06 1253.74,-65.09"/>
</g>
<!-- Node22 -->
<g id="node22" class="node">
<title>Node22</title>
<g id="a_node22"><a xlink:href="LoggingMessageDialog_8h.html" target="_top" xlink:title="This file declares a message dialog that sends its contents to the log message sink.">
<polygon fill="#fff0f0" stroke="red" points="1043.87,-129 866.87,-129 866.87,-110 1043.87,-110 1043.87,-129"/>
<text text-anchor="middle" x="955.37" y="-117" font-family="Helvetica,sans-Serif" font-size="10.00">dialogs/LoggingMessageDialog.h</text>
</a>
</g>
</g>
<!-- Node16&#45;&gt;Node22 -->
<g id="edge25" class="edge">
<title>Node16&#45;&gt;Node22</title>
<path fill="none" stroke="#63b8ff" d="M899.97,-164.98C909.83,-157.07 924.72,-145.11 936.59,-135.58"/>
<polygon fill="#63b8ff" stroke="#63b8ff" points="938.97,-138.16 944.57,-129.17 934.58,-132.7 938.97,-138.16"/>
</g>
<!-- Node16&#45;&gt;Node24 -->
<g id="edge28" class="edge">
<title>Node16&#45;&gt;Node24</title>
<path fill="none" stroke="#63b8ff" d="M875.07,-164.98C861.27,-156.77 840.13,-144.18 823.86,-134.49"/>
<polygon fill="#63b8ff" stroke="#63b8ff" points="825.31,-131.28 814.93,-129.17 821.73,-137.29 825.31,-131.28"/>
</g>
<!-- Node16&#45;&gt;Node44 -->
<g id="edge36" class="edge">
<title>Node16&#45;&gt;Node44</title>
<path fill="none" stroke="#63b8ff" d="M843.49,-167.05C792.32,-159.59 706.91,-146.33 623.95,-128.96"/>
<polygon fill="#63b8ff" stroke="#63b8ff" points="624.61,-125.52 614.11,-126.87 623.16,-132.37 624.61,-125.52"/>
</g>
<!-- Node16&#45;&gt;Node37 -->
<g id="edge37" class="edge">
<title>Node16&#45;&gt;Node37</title>
<path fill="none" stroke="#63b8ff" d="M853.22,-164.98C813.17,-155.55 748.67,-140.36 706.4,-130.4"/>
<polygon fill="#63b8ff" stroke="#63b8ff" points="706.96,-126.94 696.42,-128.05 705.35,-133.75 706.96,-126.94"/>
</g>
<!-- Node22&#45;&gt;Node4 -->
<g id="edge26" class="edge">
<title>Node22&#45;&gt;Node4</title>
<path fill="none" stroke="#63b8ff" d="M1034.1,-109.98C1136.29,-98.93 1311.56,-79.97 1396.44,-70.79"/>
<polygon fill="#63b8ff" stroke="#63b8ff" points="1397.02,-74.25 1406.58,-69.7 1396.26,-67.29 1397.02,-74.25"/>
</g>
<!-- Node22&#45;&gt;Node8 -->
<g id="edge27" class="edge">
<title>Node22&#45;&gt;Node8</title>
<path fill="none" stroke="#63b8ff" d="M866.7,-110.74C863.55,-110.48 860.44,-110.24 857.37,-110 626.63,-92.07 349.37,-74.29 248.49,-67.94"/>
<polygon fill="#63b8ff" stroke="#63b8ff" points="248.65,-64.44 238.45,-67.31 248.21,-71.43 248.65,-64.44"/>
</g>
<!-- Node24&#45;&gt;Node4 -->
<g id="edge29" class="edge">
<title>Node24&#45;&gt;Node4</title>
<path fill="none" stroke="#63b8ff" d="M848.54,-111.07C851.53,-110.68 854.49,-110.32 857.37,-110 1056.84,-87.61 1295.67,-73.41 1396.57,-67.99"/>
<polygon fill="#63b8ff" stroke="#63b8ff" points="1396.95,-71.48 1406.75,-67.45 1396.58,-64.49 1396.95,-71.48"/>
</g>
<!-- Node24&#45;&gt;Node11 -->
<g id="edge33" class="edge">
<title>Node24&#45;&gt;Node11</title>
<path fill="none" stroke="#63b8ff" d="M788.16,-109.98C776.59,-101.92 758.99,-89.65 745.21,-80.03"/>
<polygon fill="#63b8ff" stroke="#63b8ff" points="747.01,-77.02 736.8,-74.17 743,-82.76 747.01,-77.02"/>
</g>
<!-- Node24&#45;&gt;Node18 -->
<g id="edge32" class="edge">
<title>Node24&#45;&gt;Node18</title>
<path fill="none" stroke="#63b8ff" d="M822.38,-109.98C844.82,-101.3 879.85,-87.75 905.36,-77.88"/>
<polygon fill="#63b8ff" stroke="#63b8ff" points="906.89,-81.04 914.96,-74.17 904.37,-74.51 906.89,-81.04"/>
</g>
<!-- Node24&#45;&gt;Node21 -->
<g id="edge31" class="edge">
<title>Node24&#45;&gt;Node21</title>
<path fill="none" stroke="#63b8ff" d="M848.56,-111.25C851.54,-110.82 854.5,-110.4 857.37,-110 959.04,-95.81 1077.93,-80.66 1145.37,-72.21"/>
<polygon fill="#63b8ff" stroke="#63b8ff" points="1145.85,-75.68 1155.34,-70.96 1144.98,-68.73 1145.85,-75.68"/>
</g>
<!-- Node24&#45;&gt;Node26 -->
<g id="edge30" class="edge">
<title>Node24&#45;&gt;Node26</title>
<path fill="none" stroke="#63b8ff" d="M752.06,-113.97C737.1,-112.62 720.56,-111.19 705.37,-110 468.23,-91.4 408.69,-90.27 171.37,-74 139.63,-71.82 103.26,-69.28 78.54,-67.55"/>
<polygon fill="#63b8ff" stroke="#63b8ff" points="78.61,-64.05 68.39,-66.84 78.12,-71.03 78.61,-64.05"/>
</g>
<!-- Node48 -->
<g id="node28" class="node">
<title>Node48</title>
<g id="a_node28"><a xlink:title=" ">
<polygon fill="#e0e0e0" stroke="#999999" points="1918.87,-129 1847.87,-129 1847.87,-110 1918.87,-110 1918.87,-129"/>
<text text-anchor="middle" x="1883.37" y="-117" font-family="Helvetica,sans-Serif" font-size="10.00">wx/string.h</text>
</a>
</g>
</g>
<!-- Node47&#45;&gt;Node48 -->
<g id="edge39" class="edge">
<title>Node47&#45;&gt;Node48</title>
<path fill="none" stroke="#63b8ff" d="M1917.6,-164.75C1911.81,-157.26 1903.31,-146.28 1896.23,-137.13"/>
<polygon fill="#63b8ff" stroke="#63b8ff" points="1898.9,-134.86 1890.01,-129.09 1893.36,-139.14 1898.9,-134.86"/>
</g>
<!-- Node49 -->
<g id="node29" class="node">
<title>Node49</title>
<g id="a_node29"><a xlink:title=" ">
<polygon fill="#e0e0e0" stroke="#999999" points="2031.87,-129 1936.87,-129 1936.87,-110 2031.87,-110 2031.87,-129"/>
<text text-anchor="middle" x="1984.37" y="-117" font-family="Helvetica,sans-Serif" font-size="10.00">wx/translation.h</text>
</a>
</g>
</g>
<!-- Node47&#45;&gt;Node49 -->
<g id="edge40" class="edge">
<title>Node47&#45;&gt;Node49</title>
<path fill="none" stroke="#63b8ff" d="M1934.01,-164.98C1942.88,-157.15 1956.24,-145.34 1966.98,-135.86"/>
<polygon fill="#63b8ff" stroke="#63b8ff" points="1969.38,-138.41 1974.55,-129.17 1964.74,-133.17 1969.38,-138.41"/>
</g>
<!-- Node50&#45;&gt;Node7 -->
<g id="edge43" class="edge">
<title>Node50&#45;&gt;Node7</title>
<path fill="none" stroke="#63b8ff" d="M131.85,-164.75C133.83,-157.72 136.69,-147.62 139.18,-138.84"/>
<polygon fill="#63b8ff" stroke="#63b8ff" points="142.58,-139.66 141.94,-129.09 135.85,-137.76 142.58,-139.66"/>
</g>
<!-- Node50&#45;&gt;Node8 -->
<g id="edge44" class="edge">
<title>Node50&#45;&gt;Node8</title>
<path fill="none" stroke="#63b8ff" d="M84.59,-166.17C41.99,-157.26 -12.32,-139.61 11.37,-110 30.83,-85.68 117.87,-73.73 169.85,-68.66"/>
<polygon fill="#63b8ff" stroke="#63b8ff" points="170.42,-72.12 180.06,-67.71 169.78,-65.15 170.42,-72.12"/>
</g>
<!-- Node50&#45;&gt;Node14 -->
<g id="edge45" class="edge">
<title>Node50&#45;&gt;Node14</title>
<path fill="none" stroke="#63b8ff" d="M117.48,-164.98C106.22,-156.92 89.08,-144.65 75.66,-135.03"/>
<polygon fill="#63b8ff" stroke="#63b8ff" points="77.64,-132.15 67.48,-129.17 73.57,-137.84 77.64,-132.15"/>
</g>
<!-- Node53&#45;&gt;Node4 -->
<g id="edge57" class="edge">
<title>Node53&#45;&gt;Node4</title>
<path fill="none" stroke="#63b8ff" d="M1402.79,-222.46C1407.32,-221.58 1411.97,-220.73 1416.37,-220 1478.27,-209.77 1654.94,-231.1 1696.37,-184 1757.91,-114.04 1583.32,-82.16 1494.17,-70.75"/>
<polygon fill="#63b8ff" stroke="#63b8ff" points="1494.36,-67.25 1484.01,-69.49 1493.5,-74.19 1494.36,-67.25"/>
</g>
<!-- Node53&#45;&gt;Node5 -->
<g id="edge58" class="edge">
<title>Node53&#45;&gt;Node5</title>
<path fill="none" stroke="#63b8ff" d="M1402.39,-220.96C1404.07,-220.61 1405.74,-220.28 1407.37,-220 1450.57,-212.51 1770.81,-216.39 1800.37,-184 1855.16,-123.97 1728.79,-52.47 1669.73,-23.57"/>
<polygon fill="#63b8ff" stroke="#63b8ff" points="1671.06,-20.33 1660.53,-19.15 1668.03,-26.64 1671.06,-20.33"/>
</g>
<!-- Node53&#45;&gt;Node13 -->
<g id="edge54" class="edge">
<title>Node53&#45;&gt;Node13</title>
<path fill="none" stroke="#63b8ff" d="M1346.09,-227.65C1265.6,-224.9 1028.57,-214.61 834.37,-184 797.84,-178.24 789.57,-172.56 753.37,-165 669.72,-147.52 645.82,-146.71 558.23,-129.1"/>
<polygon fill="#63b8ff" stroke="#63b8ff" points="558.89,-125.67 548.39,-127.11 557.5,-132.53 558.89,-125.67"/>
</g>
<!-- Node53&#45;&gt;Node16 -->
<g id="edge59" class="edge">
<title>Node53&#45;&gt;Node16</title>
<path fill="none" stroke="#63b8ff" d="M1346.2,-225.42C1268.23,-216.9 1048.53,-192.89 944.85,-181.56"/>
<polygon fill="#63b8ff" stroke="#63b8ff" points="945.21,-178.08 934.89,-180.47 944.45,-185.04 945.21,-178.08"/>
</g>
<!-- Node53&#45;&gt;Node52 -->
<g id="edge60" class="edge">
<title>Node53&#45;&gt;Node52</title>
<path fill="none" stroke="#63b8ff" d="M1402.48,-225.02C1416.54,-223.35 1433.84,-221.41 1449.37,-220 1678.12,-199.17 1739.49,-212.82 1971.18,-184"/>
<polygon fill="#63b8ff" stroke="#63b8ff" points="1971.78,-187.45 1981.27,-182.73 1970.91,-180.51 1971.78,-187.45"/>
</g>
<!-- Node54 -->
<g id="node34" class="node">
<title>Node54</title>
<g id="a_node34"><a xlink:title=" ">
<polygon fill="#e0e0e0" stroke="#999999" points="1791.37,-184 1743.37,-184 1743.37,-165 1791.37,-165 1791.37,-184"/>
<text text-anchor="middle" x="1767.37" y="-172" font-family="Helvetica,sans-Serif" font-size="10.00">thread</text>
</a>
</g>
</g>
<!-- Node53&#45;&gt;Node54 -->
<g id="edge55" class="edge">
<title>Node53&#45;&gt;Node54</title>
<path fill="none" stroke="#63b8ff" d="M1402.78,-222.41C1407.31,-221.54 1411.96,-220.7 1416.37,-220 1554.67,-198.09 1591.3,-207.32 1729.37,-184 1730.65,-183.78 1731.94,-183.55 1733.25,-183.31"/>
<polygon fill="#63b8ff" stroke="#63b8ff" points="1734.21,-186.69 1743.32,-181.28 1732.83,-179.83 1734.21,-186.69"/>
</g>
<!-- Node55 -->
<g id="node35" class="node">
<title>Node55</title>
<g id="a_node35"><a xlink:href="ThreadNumberLimiter_8h.html" target="_top" xlink:title="A mutex that locks if we have too many background threads.">
<polygon fill="#fff0f0" stroke="red" points="1123.37,-184 991.37,-184 991.37,-165 1123.37,-165 1123.37,-184"/>
<text text-anchor="middle" x="1057.37" y="-172" font-family="Helvetica,sans-Serif" font-size="10.00">ThreadNumberLimiter.h</text>
</a>
</g>
</g>
<!-- Node53&#45;&gt;Node55 -->
<g id="edge56" class="edge">
<title>Node53&#45;&gt;Node55</title>
<path fill="none" stroke="#63b8ff" d="M1346.24,-223.8C1295.43,-215.3 1187.29,-197.22 1118.69,-185.75"/>
<polygon fill="#63b8ff" stroke="#63b8ff" points="1118.89,-182.24 1108.45,-184.04 1117.74,-189.14 1118.89,-182.24"/>
</g>
<!-- Node56 -->
<g id="node36" class="node">
<title>Node56</title>
<g id="a_node36"><a xlink:title=" ">
<polygon fill="#e0e0e0" stroke="#999999" points="1212.87,-184 1141.87,-184 1141.87,-165 1212.87,-165 1212.87,-184"/>
<text text-anchor="middle" x="1177.37" y="-172" font-family="Helvetica,sans-Serif" font-size="10.00">wx/buffer.h</text>
</a>
</g>
</g>
<!-- Node53&#45;&gt;Node56 -->
<g id="edge61" class="edge">
<title>Node53&#45;&gt;Node56</title>
<path fill="none" stroke="#63b8ff" d="M1346.14,-220.91C1312.84,-211.95 1257.17,-196.97 1218.94,-186.68"/>
<polygon fill="#63b8ff" stroke="#63b8ff" points="1219.7,-183.26 1209.13,-184.05 1217.88,-190.02 1219.7,-183.26"/>
</g>
<!-- Node57 -->
<g id="node37" class="node">
<title>Node57</title>
<g id="a_node37"><a xlink:title=" ">
<polygon fill="#e0e0e0" stroke="#999999" points="1311.37,-184 1231.37,-184 1231.37,-165 1311.37,-165 1311.37,-184"/>
<text text-anchor="middle" x="1271.37" y="-172" font-family="Helvetica,sans-Serif" font-size="10.00">wx/zipstrm.h</text>
</a>
</g>
</g>
<!-- Node53&#45;&gt;Node57 -->
<g id="edge62" class="edge">
<title>Node53&#45;&gt;Node57</title>
<path fill="none" stroke="#63b8ff" d="M1357.82,-219.98C1341.48,-211.57 1316.24,-198.59 1297.24,-188.81"/>
<polygon fill="#63b8ff" stroke="#63b8ff" points="1298.71,-185.63 1288.22,-184.17 1295.51,-191.86 1298.71,-185.63"/>
</g>
<!-- Node58 -->
<g id="node38" class="node">
<title>Node58</title>
<g id="a_node38"><a xlink:title=" ">
<polygon fill="#e0e0e0" stroke="#999999" points="1418.87,-184 1329.87,-184 1329.87,-165 1418.87,-165 1418.87,-184"/>
<text text-anchor="middle" x="1374.37" y="-172" font-family="Helvetica,sans-Serif" font-size="10.00">wx/wfstream.h</text>
</a>
</g>
</g>
<!-- Node53&#45;&gt;Node58 -->
<g id="edge63" class="edge">
<title>Node53&#45;&gt;Node58</title>
<path fill="none" stroke="#63b8ff" d="M1374.37,-219.75C1374.37,-212.8 1374.37,-202.85 1374.37,-194.13"/>
<polygon fill="#63b8ff" stroke="#63b8ff" points="1377.87,-194.09 1374.37,-184.09 1370.87,-194.09 1377.87,-194.09"/>
</g>
<!-- Node59 -->
<g id="node39" class="node">
<title>Node59</title>
<g id="a_node39"><a xlink:title=" ">
<polygon fill="#e0e0e0" stroke="#999999" points="1543.87,-184 1436.87,-184 1436.87,-165 1543.87,-165 1543.87,-184"/>
<text text-anchor="middle" x="1490.37" y="-172" font-family="Helvetica,sans-Serif" font-size="10.00">nanosvg_private.h</text>
</a>
</g>
</g>
<!-- Node53&#45;&gt;Node59 -->
<g id="edge64" class="edge">
<title>Node53&#45;&gt;Node59</title>
<path fill="none" stroke="#63b8ff" d="M1393.01,-219.98C1411.67,-211.46 1440.62,-198.23 1462.11,-188.41"/>
<polygon fill="#63b8ff" stroke="#63b8ff" points="1463.75,-191.51 1471.39,-184.17 1460.84,-185.14 1463.75,-191.51"/>
</g>
<!-- Node60 -->
<g id="node40" class="node">
<title>Node60</title>
<g id="a_node40"><a xlink:title=" ">
<polygon fill="#e0e0e0" stroke="#999999" points="1686.87,-184 1561.87,-184 1561.87,-165 1686.87,-165 1686.87,-184"/>
<text text-anchor="middle" x="1624.37" y="-172" font-family="Helvetica,sans-Serif" font-size="10.00">nanosvgrast_private.h</text>
</a>
</g>
</g>
<!-- Node53&#45;&gt;Node60 -->
<g id="edge65" class="edge">
<title>Node53&#45;&gt;Node60</title>
<path fill="none" stroke="#63b8ff" d="M1402.56,-222.52C1444.1,-213.72 1522.4,-197.12 1573.98,-186.18"/>
<polygon fill="#63b8ff" stroke="#63b8ff" points="1574.86,-189.57 1583.92,-184.08 1573.41,-182.73 1574.86,-189.57"/>
</g>
<!-- Node61&#45;&gt;Node3 -->
<g id="edge68" class="edge">
<title>Node61&#45;&gt;Node3</title>
<path fill="none" stroke="#63b8ff" d="M1427.55,-282.13C1312.3,-278.25 991.3,-265.72 725.37,-239 716.34,-238.09 706.59,-236.83 697.62,-235.56"/>
<polygon fill="#63b8ff" stroke="#63b8ff" points="697.95,-232.07 687.54,-234.08 696.93,-239 697.95,-232.07"/>
</g>
<!-- Node61&#45;&gt;Node13 -->
<g id="edge67" class="edge">
<title>Node61&#45;&gt;Node13</title>
<path fill="none" stroke="#63b8ff" d="M1427.74,-279.41C1315.25,-268.44 1006.45,-235.66 753.37,-184 748.51,-183.01 624.04,-149.08 558.67,-131.23"/>
<polygon fill="#63b8ff" stroke="#63b8ff" points="559.28,-127.77 548.71,-128.51 557.43,-134.52 559.28,-127.77"/>
</g>
<!-- Node61&#45;&gt;Node52 -->
<g id="edge69" class="edge">
<title>Node61&#45;&gt;Node52</title>
<path fill="none" stroke="#63b8ff" d="M1484.52,-274.78C1508.68,-258.92 1559.49,-226.4 1579.37,-220 1743.23,-167.25 1796.64,-206.45 1971.23,-184"/>
<polygon fill="#63b8ff" stroke="#63b8ff" points="1971.81,-187.45 1981.26,-182.66 1970.88,-180.51 1971.81,-187.45"/>
</g>
<!-- Node61&#45;&gt;Node53 -->
<g id="edge70" class="edge">
<title>Node61&#45;&gt;Node53</title>
<path fill="none" stroke="#63b8ff" d="M1455.79,-274.98C1440.6,-266.69 1417.27,-253.94 1399.47,-244.22"/>
<polygon fill="#63b8ff" stroke="#63b8ff" points="1400.69,-240.89 1390.24,-239.17 1397.34,-247.04 1400.69,-240.89"/>
</g>
<!-- Node62 -->
<g id="node42" class="node">
<title>Node62</title>
<g id="a_node42"><a xlink:title=" ">
<polygon fill="#e0e0e0" stroke="#999999" points="1532.37,-239 1458.37,-239 1458.37,-220 1532.37,-220 1532.37,-239"/>
<text text-anchor="middle" x="1495.37" y="-227" font-family="Helvetica,sans-Serif" font-size="10.00">wx/filesys.h</text>
</a>
</g>
</g>
<!-- Node61&#45;&gt;Node62 -->
<g id="edge71" class="edge">
<title>Node61&#45;&gt;Node62</title>
<path fill="none" stroke="#63b8ff" d="M1475.33,-274.75C1478.58,-267.57 1483.29,-257.18 1487.32,-248.27"/>
<polygon fill="#63b8ff" stroke="#63b8ff" points="1490.54,-249.64 1491.48,-239.09 1484.17,-246.75 1490.54,-249.64"/>
</g>
<!-- Node61&#45;&gt;Node63 -->
<g id="edge72" class="edge">
<title>Node61&#45;&gt;Node63</title>
<path fill="none" stroke="#63b8ff" d="M1495.95,-274.98C1521.42,-266.16 1561.41,-252.31 1590,-242.41"/>
<polygon fill="#63b8ff" stroke="#63b8ff" points="1591.29,-245.66 1599.6,-239.08 1589,-239.05 1591.29,-245.66"/>
</g>
<!-- Node64&#45;&gt;Node13 -->
<g id="edge76" class="edge">
<title>Node64&#45;&gt;Node13</title>
<path fill="none" stroke="#63b8ff" d="M442.61,-274.72C438.93,-253.98 432.42,-201.03 453.37,-165 461.31,-151.35 475.31,-141.02 488.38,-133.76"/>
<polygon fill="#63b8ff" stroke="#63b8ff" points="490.33,-136.7 497.63,-129.02 487.14,-130.47 490.33,-136.7"/>
</g>
<!-- Node65&#45;&gt;Node3 -->
<g id="edge78" class="edge">
<title>Node65&#45;&gt;Node3</title>
<path fill="none" stroke="#63b8ff" d="M796.31,-274.98C769.49,-265.88 726.88,-251.4 697.6,-241.45"/>
<polygon fill="#63b8ff" stroke="#63b8ff" points="698.43,-238.04 687.84,-238.13 696.18,-244.67 698.43,-238.04"/>
</g>
<!-- Node65&#45;&gt;Node44 -->
<g id="edge80" class="edge">
<title>Node65&#45;&gt;Node44</title>
<path fill="none" stroke="#63b8ff" d="M779.03,-281.16C739.05,-277.24 678.78,-266.8 634.37,-239 607.6,-222.24 599.99,-213.75 589.37,-184 584.21,-169.54 584.96,-152.03 586.71,-139.06"/>
<polygon fill="#63b8ff" stroke="#63b8ff" points="590.2,-139.47 588.39,-129.02 583.29,-138.31 590.2,-139.47"/>
</g>
<!-- Node65&#45;&gt;Node48 -->
<g id="edge79" class="edge">
<title>Node65&#45;&gt;Node48</title>
<path fill="none" stroke="#63b8ff" d="M863.69,-282.43C980.91,-279.13 1308.02,-267.54 1411.37,-239 1429.57,-233.97 1431.22,-225.19 1449.37,-220 1614.18,-172.87 1682.83,-265.97 1833.37,-184 1852.17,-173.76 1866.32,-153.17 1874.69,-138.2"/>
<polygon fill="#63b8ff" stroke="#63b8ff" points="1877.79,-139.83 1879.34,-129.35 1871.59,-136.57 1877.79,-139.83"/>
</g>
</g>
</svg>
