<?xml version="1.0" encoding="UTF-8" standalone="no"?>
<!DOCTYPE svg PUBLIC "-//W3C//DTD SVG 1.1//EN"
 "http://www.w3.org/Graphics/SVG/1.1/DTD/svg11.dtd">
<!-- Generated by graphviz version 2.43.0 (0)
 -->
<!-- Title: src/cells/ImgCellBase.cpp Pages: 1 -->
<svg width="2128pt" height="420pt"
 viewBox="0.00 0.00 2128.00 420.00" xmlns="http://www.w3.org/2000/svg" xmlns:xlink="http://www.w3.org/1999/xlink">
<g id="graph0" class="graph" transform="scale(1 1) rotate(0) translate(4 416)">
<title>src/cells/ImgCellBase.cpp</title>
<polygon fill="white" stroke="transparent" points="-4,4 -4,-416 2124,-416 2124,4 -4,4"/>
<!-- Node1 -->
<g id="node1" class="node">
<title>Node1</title>
<g id="a_node1"><a xlink:title="This file defines the class ImgCellBase.">
<polygon fill="#bfbfbf" stroke="black" points="1592,-392.5 1592,-411.5 1733,-411.5 1733,-392.5 1592,-392.5"/>
<text text-anchor="middle" x="1662.5" y="-399.5" font-family="Helvetica,sans-Serif" font-size="10.00">src/cells/ImgCellBase.cpp</text>
</a>
</g>
</g>
<!-- Node2 -->
<g id="node2" class="node">
<title>Node2</title>
<g id="a_node2"><a xlink:href="ImgCellBase_8h_source.html" target="_top" xlink:title=" ">
<polygon fill="white" stroke="black" points="1228,-336.5 1228,-355.5 1315,-355.5 1315,-336.5 1228,-336.5"/>
<text text-anchor="middle" x="1271.5" y="-343.5" font-family="Helvetica,sans-Serif" font-size="10.00">ImgCellBase.h</text>
</a>
</g>
</g>
<!-- Node1&#45;&gt;Node2 -->
<g id="edge1" class="edge">
<title>Node1&#45;&gt;Node2</title>
<path fill="none" stroke="midnightblue" d="M1600.54,-392.44C1524.61,-381.96 1397.17,-364.36 1325.21,-354.42"/>
<polygon fill="midnightblue" stroke="midnightblue" points="1325.39,-350.91 1315.01,-353.01 1324.43,-357.84 1325.39,-350.91"/>
</g>
<!-- Node47 -->
<g id="node28" class="node">
<title>Node47</title>
<g id="a_node28"><a xlink:href="StringUtils_8h_source.html" target="_top" xlink:title=" ">
<polygon fill="white" stroke="black" points="1624,-168.5 1624,-187.5 1701,-187.5 1701,-168.5 1624,-168.5"/>
<text text-anchor="middle" x="1662.5" y="-175.5" font-family="Helvetica,sans-Serif" font-size="10.00">StringUtils.h</text>
</a>
</g>
</g>
<!-- Node1&#45;&gt;Node47 -->
<g id="edge76" class="edge">
<title>Node1&#45;&gt;Node47</title>
<path fill="none" stroke="midnightblue" d="M1658.9,-392.22C1655.44,-383.28 1650.47,-368.94 1648.5,-356 1639.76,-298.48 1651.52,-229.56 1658.3,-197.32"/>
<polygon fill="midnightblue" stroke="midnightblue" points="1661.72,-198.04 1660.45,-187.52 1654.89,-196.54 1661.72,-198.04"/>
</g>
<!-- Node61 -->
<g id="node42" class="node">
<title>Node61</title>
<g id="a_node42"><a xlink:title=" ">
<polygon fill="white" stroke="#bfbfbf" points="1419.5,-280.5 1419.5,-299.5 1493.5,-299.5 1493.5,-280.5 1419.5,-280.5"/>
<text text-anchor="middle" x="1456.5" y="-287.5" font-family="Helvetica,sans-Serif" font-size="10.00">wx/filesys.h</text>
</a>
</g>
</g>
<!-- Node1&#45;&gt;Node61 -->
<g id="edge80" class="edge">
<title>Node1&#45;&gt;Node61</title>
<path fill="none" stroke="midnightblue" d="M1646.34,-392.37C1610.53,-373.25 1524.35,-327.23 1481.52,-304.36"/>
<polygon fill="midnightblue" stroke="midnightblue" points="1483.06,-301.21 1472.59,-299.59 1479.76,-307.39 1483.06,-301.21"/>
</g>
<!-- Node63 -->
<g id="node44" class="node">
<title>Node63</title>
<g id="a_node44"><a xlink:href="CellImpl_8h.html" target="_top" xlink:title="Macros and types used only by cell implementations, not by cell users.">
<polygon fill="white" stroke="black" points="238.5,-280.5 238.5,-299.5 304.5,-299.5 304.5,-280.5 238.5,-280.5"/>
<text text-anchor="middle" x="271.5" y="-287.5" font-family="Helvetica,sans-Serif" font-size="10.00">CellImpl.h</text>
</a>
</g>
</g>
<!-- Node1&#45;&gt;Node63 -->
<g id="edge70" class="edge">
<title>Node1&#45;&gt;Node63</title>
<path fill="none" stroke="midnightblue" d="M1591.89,-398.54C1391.6,-390.94 802.99,-364.38 318.5,-300 317.23,-299.83 315.93,-299.65 314.63,-299.46"/>
<polygon fill="midnightblue" stroke="midnightblue" points="314.98,-295.97 304.55,-297.82 313.86,-302.88 314.98,-295.97"/>
</g>
<!-- Node64 -->
<g id="node45" class="node">
<title>Node64</title>
<g id="a_node45"><a xlink:href="CellPointers_8h_source.html" target="_top" xlink:title=" ">
<polygon fill="white" stroke="black" points="1520.5,-280.5 1520.5,-299.5 1604.5,-299.5 1604.5,-280.5 1520.5,-280.5"/>
<text text-anchor="middle" x="1562.5" y="-287.5" font-family="Helvetica,sans-Serif" font-size="10.00">CellPointers.h</text>
</a>
</g>
</g>
<!-- Node1&#45;&gt;Node64 -->
<g id="edge72" class="edge">
<title>Node1&#45;&gt;Node64</title>
<path fill="none" stroke="midnightblue" d="M1652.8,-392.36C1643.06,-383.54 1627.76,-369.28 1615.5,-356 1601.05,-340.35 1585.82,-321.37 1575.41,-307.97"/>
<polygon fill="midnightblue" stroke="midnightblue" points="1577.91,-305.49 1569.04,-299.69 1572.36,-309.75 1577.91,-305.49"/>
</g>
<!-- Node65 -->
<g id="node46" class="node">
<title>Node65</title>
<g id="a_node46"><a xlink:title=" ">
<polygon fill="white" stroke="#bfbfbf" points="1657.5,-336.5 1657.5,-355.5 1733.5,-355.5 1733.5,-336.5 1657.5,-336.5"/>
<text text-anchor="middle" x="1695.5" y="-343.5" font-family="Helvetica,sans-Serif" font-size="10.00">wx/clipbrd.h</text>
</a>
</g>
</g>
<!-- Node1&#45;&gt;Node65 -->
<g id="edge77" class="edge">
<title>Node1&#45;&gt;Node65</title>
<path fill="none" stroke="midnightblue" d="M1667.95,-392.08C1672.51,-384.61 1679.17,-373.72 1684.79,-364.52"/>
<polygon fill="midnightblue" stroke="midnightblue" points="1687.92,-366.11 1690.15,-355.75 1681.95,-362.46 1687.92,-366.11"/>
</g>
<!-- Node66 -->
<g id="node47" class="node">
<title>Node66</title>
<g id="a_node47"><a xlink:title=" ">
<polygon fill="white" stroke="#bfbfbf" points="1751.5,-336.5 1751.5,-355.5 1809.5,-355.5 1809.5,-336.5 1751.5,-336.5"/>
<text text-anchor="middle" x="1780.5" y="-343.5" font-family="Helvetica,sans-Serif" font-size="10.00">wx/file.h</text>
</a>
</g>
</g>
<!-- Node1&#45;&gt;Node66 -->
<g id="edge78" class="edge">
<title>Node1&#45;&gt;Node66</title>
<path fill="none" stroke="midnightblue" d="M1681.2,-392.44C1700.44,-383.64 1730.65,-369.81 1752.7,-359.72"/>
<polygon fill="midnightblue" stroke="midnightblue" points="1754.25,-362.86 1761.89,-355.52 1751.34,-356.5 1754.25,-362.86"/>
</g>
<!-- Node67 -->
<g id="node48" class="node">
<title>Node67</title>
<g id="a_node48"><a xlink:title=" ">
<polygon fill="white" stroke="#bfbfbf" points="1827.5,-336.5 1827.5,-355.5 1913.5,-355.5 1913.5,-336.5 1827.5,-336.5"/>
<text text-anchor="middle" x="1870.5" y="-343.5" font-family="Helvetica,sans-Serif" font-size="10.00">wx/filename.h</text>
</a>
</g>
</g>
<!-- Node1&#45;&gt;Node67 -->
<g id="edge79" class="edge">
<title>Node1&#45;&gt;Node67</title>
<path fill="none" stroke="midnightblue" d="M1695.46,-392.44C1731.29,-383.14 1788.66,-368.25 1827.89,-358.06"/>
<polygon fill="midnightblue" stroke="midnightblue" points="1828.9,-361.42 1837.7,-355.52 1827.14,-354.64 1828.9,-361.42"/>
</g>
<!-- Node68 -->
<g id="node49" class="node">
<title>Node68</title>
<g id="a_node49"><a xlink:title=" ">
<polygon fill="white" stroke="#bfbfbf" points="1932,-336.5 1932,-355.5 2015,-355.5 2015,-336.5 1932,-336.5"/>
<text text-anchor="middle" x="1973.5" y="-343.5" font-family="Helvetica,sans-Serif" font-size="10.00">wx/fs_mem.h</text>
</a>
</g>
</g>
<!-- Node1&#45;&gt;Node68 -->
<g id="edge81" class="edge">
<title>Node1&#45;&gt;Node68</title>
<path fill="none" stroke="midnightblue" d="M1712.35,-392.42C1762.55,-383.77 1842.5,-369.97 1921.61,-356.15"/>
<polygon fill="midnightblue" stroke="midnightblue" points="1922.51,-359.55 1931.75,-354.38 1921.3,-352.65 1922.51,-359.55"/>
</g>
<!-- Node69 -->
<g id="node50" class="node">
<title>Node69</title>
<g id="a_node50"><a xlink:title=" ">
<polygon fill="white" stroke="#bfbfbf" points="2033,-336.5 2033,-355.5 2120,-355.5 2120,-336.5 2033,-336.5"/>
<text text-anchor="middle" x="2076.5" y="-343.5" font-family="Helvetica,sans-Serif" font-size="10.00">wx/mstream.h</text>
</a>
</g>
</g>
<!-- Node1&#45;&gt;Node69 -->
<g id="edge82" class="edge">
<title>Node1&#45;&gt;Node69</title>
<path fill="none" stroke="midnightblue" d="M1733.05,-393.24C1803.89,-385.22 1916.42,-371.85 2022.88,-356.19"/>
<polygon fill="midnightblue" stroke="midnightblue" points="2023.45,-359.64 2032.83,-354.71 2022.43,-352.72 2023.45,-359.64"/>
</g>
<!-- Node3 -->
<g id="node3" class="node">
<title>Node3</title>
<g id="a_node3"><a xlink:title=" ">
<polygon fill="white" stroke="#bfbfbf" points="227.5,-112.5 227.5,-131.5 285.5,-131.5 285.5,-112.5 227.5,-112.5"/>
<text text-anchor="middle" x="256.5" y="-119.5" font-family="Helvetica,sans-Serif" font-size="10.00">memory</text>
</a>
</g>
</g>
<!-- Node2&#45;&gt;Node3 -->
<g id="edge2" class="edge">
<title>Node2&#45;&gt;Node3</title>
<path fill="none" stroke="midnightblue" d="M1227.78,-343.63C1071,-338.17 538.29,-314.71 385.5,-244 333.68,-220.01 289.07,-167.02 268.54,-139.82"/>
<polygon fill="midnightblue" stroke="midnightblue" points="271.28,-137.64 262.53,-131.67 265.65,-141.79 271.28,-137.64"/>
</g>
<!-- Node4 -->
<g id="node4" class="node">
<title>Node4</title>
<g id="a_node4"><a xlink:href="Cell_8h.html" target="_top" xlink:title="The definition of the base class of all cells the worksheet consists of.">
<polygon fill="white" stroke="black" points="1096.5,-224.5 1096.5,-243.5 1140.5,-243.5 1140.5,-224.5 1096.5,-224.5"/>
<text text-anchor="middle" x="1118.5" y="-231.5" font-family="Helvetica,sans-Serif" font-size="10.00">Cell.h</text>
</a>
</g>
</g>
<!-- Node2&#45;&gt;Node4 -->
<g id="edge3" class="edge">
<title>Node2&#45;&gt;Node4</title>
<path fill="none" stroke="midnightblue" d="M1259.49,-336.37C1233.35,-317.57 1171.03,-272.77 1138.71,-249.53"/>
<polygon fill="midnightblue" stroke="midnightblue" points="1140.61,-246.59 1130.45,-243.59 1136.53,-252.27 1140.61,-246.59"/>
</g>
<!-- Node52 -->
<g id="node33" class="node">
<title>Node52</title>
<g id="a_node33"><a xlink:title=" ">
<polygon fill="white" stroke="#bfbfbf" points="1455.5,-224.5 1455.5,-243.5 1529.5,-243.5 1529.5,-224.5 1455.5,-224.5"/>
<text text-anchor="middle" x="1492.5" y="-231.5" font-family="Helvetica,sans-Serif" font-size="10.00">wx/image.h</text>
</a>
</g>
</g>
<!-- Node2&#45;&gt;Node52 -->
<g id="edge54" class="edge">
<title>Node2&#45;&gt;Node52</title>
<path fill="none" stroke="midnightblue" d="M1288.84,-336.37C1327.41,-317.17 1420.49,-270.84 1466.23,-248.07"/>
<polygon fill="midnightblue" stroke="midnightblue" points="1467.85,-251.18 1475.24,-243.59 1464.73,-244.91 1467.85,-251.18"/>
</g>
<!-- Node53 -->
<g id="node34" class="node">
<title>Node53</title>
<g id="a_node34"><a xlink:href="Image_8h.html" target="_top" xlink:title="This file declares the class Image.">
<polygon fill="white" stroke="black" points="963.5,-280.5 963.5,-299.5 1019.5,-299.5 1019.5,-280.5 963.5,-280.5"/>
<text text-anchor="middle" x="991.5" y="-287.5" font-family="Helvetica,sans-Serif" font-size="10.00">Image.h</text>
</a>
</g>
</g>
<!-- Node2&#45;&gt;Node53 -->
<g id="edge55" class="edge">
<title>Node2&#45;&gt;Node53</title>
<path fill="none" stroke="midnightblue" d="M1227.75,-336.56C1173.36,-326.07 1081.4,-308.34 1029.71,-298.37"/>
<polygon fill="midnightblue" stroke="midnightblue" points="1030.11,-294.88 1019.63,-296.42 1028.79,-301.76 1030.11,-294.88"/>
</g>
<!-- Node2&#45;&gt;Node61 -->
<g id="edge68" class="edge">
<title>Node2&#45;&gt;Node61</title>
<path fill="none" stroke="midnightblue" d="M1300.81,-336.44C1332.34,-327.24 1382.63,-312.56 1417.49,-302.39"/>
<polygon fill="midnightblue" stroke="midnightblue" points="1418.7,-305.68 1427.32,-299.52 1416.74,-298.96 1418.7,-305.68"/>
</g>
<!-- Node62 -->
<g id="node43" class="node">
<title>Node62</title>
<g id="a_node43"><a xlink:title=" ">
<polygon fill="white" stroke="#bfbfbf" points="1235.5,-280.5 1235.5,-299.5 1307.5,-299.5 1307.5,-280.5 1235.5,-280.5"/>
<text text-anchor="middle" x="1271.5" y="-287.5" font-family="Helvetica,sans-Serif" font-size="10.00">wx/fs_arc.h</text>
</a>
</g>
</g>
<!-- Node2&#45;&gt;Node62 -->
<g id="edge69" class="edge">
<title>Node2&#45;&gt;Node62</title>
<path fill="none" stroke="midnightblue" d="M1271.5,-336.08C1271.5,-329.01 1271.5,-318.86 1271.5,-309.99"/>
<polygon fill="midnightblue" stroke="midnightblue" points="1275,-309.75 1271.5,-299.75 1268,-309.75 1275,-309.75"/>
</g>
<!-- Node4&#45;&gt;Node3 -->
<g id="edge51" class="edge">
<title>Node4&#45;&gt;Node3</title>
<path fill="none" stroke="midnightblue" d="M1096.29,-225.89C1093.36,-225.15 1090.37,-224.49 1087.5,-224 797.89,-174.73 712.5,-259.23 427.5,-188 407.05,-182.89 404.02,-175.95 384.5,-168 354.07,-155.61 318.8,-143.36 293,-134.78"/>
<polygon fill="midnightblue" stroke="midnightblue" points="293.85,-131.37 283.26,-131.56 291.66,-138.02 293.85,-131.37"/>
</g>
<!-- Node5 -->
<g id="node5" class="node">
<title>Node5</title>
<g id="a_node5"><a xlink:href="precomp_8h_source.html" target="_top" xlink:title=" ">
<polygon fill="white" stroke="black" points="858,-56.5 858,-75.5 935,-75.5 935,-56.5 858,-56.5"/>
<text text-anchor="middle" x="896.5" y="-63.5" font-family="Helvetica,sans-Serif" font-size="10.00">../precomp.h</text>
</a>
</g>
</g>
<!-- Node4&#45;&gt;Node5 -->
<g id="edge4" class="edge">
<title>Node4&#45;&gt;Node5</title>
<path fill="none" stroke="midnightblue" d="M1096.21,-226.28C1093.29,-225.47 1090.33,-224.69 1087.5,-224 882.81,-174.14 756.23,-294.78 622.5,-132 576.61,-76.14 475.61,-139.82 847.73,-76.09"/>
<polygon fill="midnightblue" stroke="midnightblue" points="848.48,-79.51 857.74,-74.36 847.29,-72.61 848.48,-79.51"/>
</g>
<!-- Node7 -->
<g id="node7" class="node">
<title>Node7</title>
<g id="a_node7"><a xlink:href="CellPtr_8h.html" target="_top" xlink:title="Implementation of an observing weak Cell pointer.">
<polygon fill="white" stroke="black" points="519,-168.5 519,-187.5 576,-187.5 576,-168.5 519,-168.5"/>
<text text-anchor="middle" x="547.5" y="-175.5" font-family="Helvetica,sans-Serif" font-size="10.00">CellPtr.h</text>
</a>
</g>
</g>
<!-- Node4&#45;&gt;Node7 -->
<g id="edge6" class="edge">
<title>Node4&#45;&gt;Node7</title>
<path fill="none" stroke="midnightblue" d="M1096.28,-225.94C1093.35,-225.19 1090.37,-224.51 1087.5,-224 869.51,-184.91 809.82,-218.75 590.5,-188 589.04,-187.79 587.55,-187.57 586.05,-187.33"/>
<polygon fill="midnightblue" stroke="midnightblue" points="586.55,-183.86 576.09,-185.54 585.31,-190.75 586.55,-183.86"/>
</g>
<!-- Node14 -->
<g id="node14" class="node">
<title>Node14</title>
<g id="a_node14"><a xlink:title=" ">
<polygon fill="white" stroke="#bfbfbf" points="49,-112.5 49,-131.5 118,-131.5 118,-112.5 49,-112.5"/>
<text text-anchor="middle" x="83.5" y="-119.5" font-family="Helvetica,sans-Serif" font-size="10.00">type_traits</text>
</a>
</g>
</g>
<!-- Node4&#45;&gt;Node14 -->
<g id="edge53" class="edge">
<title>Node4&#45;&gt;Node14</title>
<path fill="none" stroke="midnightblue" d="M1096.3,-225.85C1093.36,-225.11 1090.38,-224.47 1087.5,-224 884,-191.02 352.71,-262.54 160.5,-188 134.63,-177.97 111.25,-155.41 97.22,-139.7"/>
<polygon fill="midnightblue" stroke="midnightblue" points="99.6,-137.1 90.42,-131.8 94.29,-141.67 99.6,-137.1"/>
</g>
<!-- Node15 -->
<g id="node15" class="node">
<title>Node15</title>
<g id="a_node15"><a xlink:href="CellIterators_8h.html" target="_top" xlink:title="Declares the various iterators useful with the Cell class.">
<polygon fill="white" stroke="black" points="169.5,-168.5 169.5,-187.5 255.5,-187.5 255.5,-168.5 169.5,-168.5"/>
<text text-anchor="middle" x="212.5" y="-175.5" font-family="Helvetica,sans-Serif" font-size="10.00">CellIterators.h</text>
</a>
</g>
</g>
<!-- Node4&#45;&gt;Node15 -->
<g id="edge15" class="edge">
<title>Node4&#45;&gt;Node15</title>
<path fill="none" stroke="midnightblue" d="M1096.29,-225.89C1093.36,-225.14 1090.37,-224.48 1087.5,-224 1077.32,-222.28 454.16,-191.07 265.83,-181.66"/>
<polygon fill="midnightblue" stroke="midnightblue" points="265.78,-178.15 255.62,-181.15 265.43,-185.15 265.78,-178.15"/>
</g>
<!-- Node16 -->
<g id="node16" class="node">
<title>Node16</title>
<g id="a_node16"><a xlink:href="Configuration_8h_source.html" target="_top" xlink:title=" ">
<polygon fill="white" stroke="red" points="1073,-168.5 1073,-187.5 1164,-187.5 1164,-168.5 1073,-168.5"/>
<text text-anchor="middle" x="1118.5" y="-175.5" font-family="Helvetica,sans-Serif" font-size="10.00">Configuration.h</text>
</a>
</g>
</g>
<!-- Node4&#45;&gt;Node16 -->
<g id="edge19" class="edge">
<title>Node4&#45;&gt;Node16</title>
<path fill="none" stroke="midnightblue" d="M1118.5,-224.08C1118.5,-217.01 1118.5,-206.86 1118.5,-197.99"/>
<polygon fill="midnightblue" stroke="midnightblue" points="1122,-197.75 1118.5,-187.75 1115,-197.75 1122,-197.75"/>
</g>
<!-- Node24 -->
<g id="node23" class="node">
<title>Node24</title>
<g id="a_node23"><a xlink:href="TextStyle_8h.html" target="_top" xlink:title="This file declares everything needed for the text style system used to style all the elements on the ...">
<polygon fill="white" stroke="red" points="1219.5,-112.5 1219.5,-131.5 1315.5,-131.5 1315.5,-112.5 1219.5,-112.5"/>
<text text-anchor="middle" x="1267.5" y="-119.5" font-family="Helvetica,sans-Serif" font-size="10.00">cells/TextStyle.h</text>
</a>
</g>
</g>
<!-- Node4&#45;&gt;Node24 -->
<g id="edge43" class="edge">
<title>Node4&#45;&gt;Node24</title>
<path fill="none" stroke="midnightblue" d="M1130.19,-224.37C1155.65,-205.57 1216.34,-160.77 1247.81,-137.53"/>
<polygon fill="midnightblue" stroke="midnightblue" points="1249.9,-140.35 1255.86,-131.59 1245.74,-134.72 1249.9,-140.35"/>
</g>
<!-- Node26 -->
<g id="node24" class="node">
<title>Node26</title>
<g id="a_node24"><a xlink:title=" ">
<polygon fill="white" stroke="#bfbfbf" points="1509.5,-56.5 1509.5,-75.5 1547.5,-75.5 1547.5,-56.5 1509.5,-56.5"/>
<text text-anchor="middle" x="1528.5" y="-63.5" font-family="Helvetica,sans-Serif" font-size="10.00">map</text>
</a>
</g>
</g>
<!-- Node4&#45;&gt;Node26 -->
<g id="edge50" class="edge">
<title>Node4&#45;&gt;Node26</title>
<path fill="none" stroke="midnightblue" d="M1140.6,-231.79C1211.19,-227.69 1430.51,-213.19 1496.5,-188 1537.05,-172.52 1556.46,-170.5 1576.5,-132 1586.21,-113.35 1568.1,-94.26 1551.41,-81.64"/>
<polygon fill="midnightblue" stroke="midnightblue" points="1553.16,-78.58 1542.97,-75.66 1549.11,-84.29 1553.16,-78.58"/>
</g>
<!-- Node44 -->
<g id="node26" class="node">
<title>Node44</title>
<g id="a_node26"><a xlink:title=" ">
<polygon fill="white" stroke="#bfbfbf" points="1520,-112.5 1520,-131.5 1567,-131.5 1567,-112.5 1520,-112.5"/>
<text text-anchor="middle" x="1543.5" y="-119.5" font-family="Helvetica,sans-Serif" font-size="10.00">vector</text>
</a>
</g>
</g>
<!-- Node4&#45;&gt;Node44 -->
<g id="edge52" class="edge">
<title>Node4&#45;&gt;Node44</title>
<path fill="none" stroke="midnightblue" d="M1140.82,-226.6C1196.22,-210.71 1336.27,-170.58 1346.5,-168 1415.89,-150.51 1436.37,-149.85 1510,-132.02"/>
<polygon fill="midnightblue" stroke="midnightblue" points="1510.86,-135.41 1519.74,-129.63 1509.2,-128.61 1510.86,-135.41"/>
</g>
<!-- Node37 -->
<g id="node27" class="node">
<title>Node37</title>
<g id="a_node27"><a xlink:title=" ">
<polygon fill="white" stroke="#bfbfbf" points="1371.5,-112.5 1371.5,-131.5 1435.5,-131.5 1435.5,-112.5 1371.5,-112.5"/>
<text text-anchor="middle" x="1403.5" y="-119.5" font-family="Helvetica,sans-Serif" font-size="10.00">algorithm</text>
</a>
</g>
</g>
<!-- Node4&#45;&gt;Node37 -->
<g id="edge49" class="edge">
<title>Node4&#45;&gt;Node37</title>
<path fill="none" stroke="midnightblue" d="M1140.86,-224.37C1191.23,-204.93 1313.66,-157.67 1371.82,-135.23"/>
<polygon fill="midnightblue" stroke="midnightblue" points="1373.17,-138.46 1381.24,-131.59 1370.65,-131.93 1373.17,-138.46"/>
</g>
<!-- Node4&#45;&gt;Node47 -->
<g id="edge40" class="edge">
<title>Node4&#45;&gt;Node47</title>
<path fill="none" stroke="midnightblue" d="M1140.84,-230.78C1221.69,-222.76 1500.23,-195.11 1613.76,-183.84"/>
<polygon fill="midnightblue" stroke="midnightblue" points="1614.29,-187.3 1623.9,-182.83 1613.6,-180.34 1614.29,-187.3"/>
</g>
<!-- Node50 -->
<g id="node31" class="node">
<title>Node50</title>
<g id="a_node31"><a xlink:href="CachedValue_8h.html" target="_top" xlink:title="Declares &quot;mostly read&#45;only&quot; wrappers around values that are expensive to compute and are thus cached.">
<polygon fill="white" stroke="red" points="0,-168.5 0,-187.5 113,-187.5 113,-168.5 0,-168.5"/>
<text text-anchor="middle" x="56.5" y="-175.5" font-family="Helvetica,sans-Serif" font-size="10.00">utils/CachedValue.h</text>
</a>
</g>
</g>
<!-- Node4&#45;&gt;Node50 -->
<g id="edge44" class="edge">
<title>Node4&#45;&gt;Node50</title>
<path fill="none" stroke="midnightblue" d="M1096.3,-225.85C1093.36,-225.11 1090.38,-224.46 1087.5,-224 665.99,-155.97 553.04,-222.88 127.5,-188 126.03,-187.88 124.54,-187.75 123.04,-187.61"/>
<polygon fill="midnightblue" stroke="midnightblue" points="123.33,-184.13 113.03,-186.62 122.64,-191.09 123.33,-184.13"/>
</g>
<!-- Node51 -->
<g id="node32" class="node">
<title>Node51</title>
<g id="a_node32"><a xlink:title=" ">
<polygon fill="white" stroke="#bfbfbf" points="436.5,-168.5 436.5,-187.5 500.5,-187.5 500.5,-168.5 436.5,-168.5"/>
<text text-anchor="middle" x="468.5" y="-175.5" font-family="Helvetica,sans-Serif" font-size="10.00">wx/defs.h</text>
</a>
</g>
</g>
<!-- Node4&#45;&gt;Node51 -->
<g id="edge48" class="edge">
<title>Node4&#45;&gt;Node51</title>
<path fill="none" stroke="midnightblue" d="M1096.29,-225.92C1093.35,-225.17 1090.37,-224.5 1087.5,-224 837.15,-180.41 766.19,-222.6 510.6,-187.92"/>
<polygon fill="midnightblue" stroke="midnightblue" points="511.03,-184.45 500.64,-186.55 510.07,-191.38 511.03,-184.45"/>
</g>
<!-- Node6 -->
<g id="node6" class="node">
<title>Node6</title>
<g id="a_node6"><a xlink:href="Version_8h_source.html" target="_top" xlink:title=" ">
<polygon fill="white" stroke="black" points="865.5,-0.5 865.5,-19.5 927.5,-19.5 927.5,-0.5 865.5,-0.5"/>
<text text-anchor="middle" x="896.5" y="-7.5" font-family="Helvetica,sans-Serif" font-size="10.00">Version.h</text>
</a>
</g>
</g>
<!-- Node5&#45;&gt;Node6 -->
<g id="edge5" class="edge">
<title>Node5&#45;&gt;Node6</title>
<path fill="none" stroke="midnightblue" d="M896.5,-56.08C896.5,-49.01 896.5,-38.86 896.5,-29.99"/>
<polygon fill="midnightblue" stroke="midnightblue" points="900,-29.75 896.5,-19.75 893,-29.75 900,-29.75"/>
</g>
<!-- Node7&#45;&gt;Node3 -->
<g id="edge13" class="edge">
<title>Node7&#45;&gt;Node3</title>
<path fill="none" stroke="midnightblue" d="M518.91,-170.03C515.74,-169.31 512.56,-168.62 509.5,-168 416.71,-149.08 392.53,-149.7 299.5,-132 298.24,-131.76 296.95,-131.51 295.65,-131.26"/>
<polygon fill="midnightblue" stroke="midnightblue" points="296.11,-127.78 285.62,-129.24 294.73,-134.64 296.11,-127.78"/>
</g>
<!-- Node8 -->
<g id="node8" class="node">
<title>Node8</title>
<g id="a_node8"><a xlink:title=" ">
<polygon fill="white" stroke="#bfbfbf" points="136,-112.5 136,-131.5 209,-131.5 209,-112.5 136,-112.5"/>
<text text-anchor="middle" x="172.5" y="-119.5" font-family="Helvetica,sans-Serif" font-size="10.00">wx/debug.h</text>
</a>
</g>
</g>
<!-- Node7&#45;&gt;Node8 -->
<g id="edge7" class="edge">
<title>Node7&#45;&gt;Node8</title>
<path fill="none" stroke="midnightblue" d="M518.94,-169.88C515.76,-169.2 512.57,-168.55 509.5,-168 384.37,-145.51 348.91,-152.17 219.05,-131.97"/>
<polygon fill="midnightblue" stroke="midnightblue" points="219.54,-128.51 209.12,-130.4 218.45,-135.42 219.54,-128.51"/>
</g>
<!-- Node9 -->
<g id="node9" class="node">
<title>Node9</title>
<g id="a_node9"><a xlink:title=" ">
<polygon fill="white" stroke="#bfbfbf" points="284.5,-56.5 284.5,-75.5 342.5,-75.5 342.5,-56.5 284.5,-56.5"/>
<text text-anchor="middle" x="313.5" y="-63.5" font-family="Helvetica,sans-Serif" font-size="10.00">wx/log.h</text>
</a>
</g>
</g>
<!-- Node7&#45;&gt;Node9 -->
<g id="edge8" class="edge">
<title>Node7&#45;&gt;Node9</title>
<path fill="none" stroke="midnightblue" d="M518.89,-170.12C515.72,-169.39 512.55,-168.67 509.5,-168 431.1,-150.75 391.59,-186.34 332.5,-132 319.67,-120.2 315.33,-100.28 313.95,-85.59"/>
<polygon fill="midnightblue" stroke="midnightblue" points="317.44,-85.39 313.37,-75.6 310.45,-85.79 317.44,-85.39"/>
</g>
<!-- Node10 -->
<g id="node10" class="node">
<title>Node10</title>
<g id="a_node10"><a xlink:title=" ">
<polygon fill="white" stroke="#bfbfbf" points="422,-112.5 422,-131.5 467,-131.5 467,-112.5 422,-112.5"/>
<text text-anchor="middle" x="444.5" y="-119.5" font-family="Helvetica,sans-Serif" font-size="10.00">utility</text>
</a>
</g>
</g>
<!-- Node7&#45;&gt;Node10 -->
<g id="edge9" class="edge">
<title>Node7&#45;&gt;Node10</title>
<path fill="none" stroke="midnightblue" d="M530.95,-168.32C514.51,-159.7 489.07,-146.36 470.03,-136.39"/>
<polygon fill="midnightblue" stroke="midnightblue" points="471.49,-133.2 461.01,-131.65 468.24,-139.4 471.49,-133.2"/>
</g>
<!-- Node11 -->
<g id="node11" class="node">
<title>Node11</title>
<g id="a_node11"><a xlink:title=" ">
<polygon fill="white" stroke="#bfbfbf" points="485,-112.5 485,-131.5 538,-131.5 538,-112.5 485,-112.5"/>
<text text-anchor="middle" x="511.5" y="-119.5" font-family="Helvetica,sans-Serif" font-size="10.00">cstddef</text>
</a>
</g>
</g>
<!-- Node7&#45;&gt;Node11 -->
<g id="edge10" class="edge">
<title>Node7&#45;&gt;Node11</title>
<path fill="none" stroke="midnightblue" d="M541.56,-168.08C536.52,-160.53 529.16,-149.49 522.99,-140.23"/>
<polygon fill="midnightblue" stroke="midnightblue" points="525.79,-138.13 517.33,-131.75 519.97,-142.01 525.79,-138.13"/>
</g>
<!-- Node12 -->
<g id="node12" class="node">
<title>Node12</title>
<g id="a_node12"><a xlink:title=" ">
<polygon fill="white" stroke="#bfbfbf" points="789.5,-56.5 789.5,-75.5 839.5,-75.5 839.5,-56.5 789.5,-56.5"/>
<text text-anchor="middle" x="814.5" y="-63.5" font-family="Helvetica,sans-Serif" font-size="10.00">cstdint</text>
</a>
</g>
</g>
<!-- Node7&#45;&gt;Node12 -->
<g id="edge11" class="edge">
<title>Node7&#45;&gt;Node12</title>
<path fill="none" stroke="midnightblue" d="M550.7,-168.23C556.38,-154 569.62,-126.05 590.5,-112 648.2,-73.17 731.95,-66.42 778.99,-66.02"/>
<polygon fill="midnightblue" stroke="midnightblue" points="779.28,-69.52 789.28,-66.03 779.29,-62.52 779.28,-69.52"/>
</g>
<!-- Node13 -->
<g id="node13" class="node">
<title>Node13</title>
<g id="a_node13"><a xlink:title=" ">
<polygon fill="white" stroke="#bfbfbf" points="341.5,-112.5 341.5,-131.5 403.5,-131.5 403.5,-112.5 341.5,-112.5"/>
<text text-anchor="middle" x="372.5" y="-119.5" font-family="Helvetica,sans-Serif" font-size="10.00">cinttypes</text>
</a>
</g>
</g>
<!-- Node7&#45;&gt;Node13 -->
<g id="edge12" class="edge">
<title>Node7&#45;&gt;Node13</title>
<path fill="none" stroke="midnightblue" d="M519.77,-168.44C490.07,-159.28 442.78,-144.69 409.83,-134.52"/>
<polygon fill="midnightblue" stroke="midnightblue" points="410.69,-131.12 400.1,-131.52 408.62,-137.81 410.69,-131.12"/>
</g>
<!-- Node7&#45;&gt;Node14 -->
<g id="edge14" class="edge">
<title>Node7&#45;&gt;Node14</title>
<path fill="none" stroke="midnightblue" d="M518.95,-169.79C515.78,-169.12 512.58,-168.51 509.5,-168 344.01,-140.76 297.32,-156.91 128.16,-132.1"/>
<polygon fill="midnightblue" stroke="midnightblue" points="128.58,-128.62 118.17,-130.61 127.55,-135.55 128.58,-128.62"/>
</g>
<!-- Node15&#45;&gt;Node3 -->
<g id="edge17" class="edge">
<title>Node15&#45;&gt;Node3</title>
<path fill="none" stroke="midnightblue" d="M219.77,-168.08C226.04,-160.38 235.29,-149.03 242.93,-139.65"/>
<polygon fill="midnightblue" stroke="midnightblue" points="245.77,-141.71 249.37,-131.75 240.34,-137.29 245.77,-141.71"/>
</g>
<!-- Node15&#45;&gt;Node8 -->
<g id="edge16" class="edge">
<title>Node15&#45;&gt;Node8</title>
<path fill="none" stroke="midnightblue" d="M205.89,-168.08C200.24,-160.46 191.96,-149.26 185.05,-139.94"/>
<polygon fill="midnightblue" stroke="midnightblue" points="187.75,-137.7 178.98,-131.75 182.12,-141.87 187.75,-137.7"/>
</g>
<!-- Node15&#45;&gt;Node14 -->
<g id="edge18" class="edge">
<title>Node15&#45;&gt;Node14</title>
<path fill="none" stroke="midnightblue" d="M192.06,-168.44C170.83,-159.56 137.4,-145.56 113.25,-135.45"/>
<polygon fill="midnightblue" stroke="midnightblue" points="114.42,-132.15 103.84,-131.52 111.72,-138.61 114.42,-132.15"/>
</g>
<!-- Node16&#45;&gt;Node3 -->
<g id="edge36" class="edge">
<title>Node16&#45;&gt;Node3</title>
<path fill="none" stroke="midnightblue" d="M1072.8,-175.35C951.84,-170.79 613.33,-156.64 332.5,-132 320.52,-130.95 307.52,-129.52 295.71,-128.1"/>
<polygon fill="midnightblue" stroke="midnightblue" points="296.04,-124.62 285.69,-126.88 295.19,-131.57 296.04,-124.62"/>
</g>
<!-- Node16&#45;&gt;Node5 -->
<g id="edge20" class="edge">
<title>Node16&#45;&gt;Node5</title>
<path fill="none" stroke="midnightblue" d="M1072.83,-174.51C1013.74,-170.21 915.72,-159.11 893.5,-132 883,-119.19 885.51,-99.73 889.57,-85.44"/>
<polygon fill="midnightblue" stroke="midnightblue" points="892.97,-86.31 892.79,-75.72 886.33,-84.11 892.97,-86.31"/>
</g>
<!-- Node16&#45;&gt;Node12 -->
<g id="edge35" class="edge">
<title>Node16&#45;&gt;Node12</title>
<path fill="none" stroke="midnightblue" d="M1072.98,-175.9C1023.55,-173.04 943.5,-163.42 882.5,-132 859.93,-120.37 839.69,-98.89 827.28,-83.82"/>
<polygon fill="midnightblue" stroke="midnightblue" points="829.87,-81.46 820.91,-75.8 824.39,-85.81 829.87,-81.46"/>
</g>
<!-- Node17 -->
<g id="node17" class="node">
<title>Node17</title>
<g id="a_node17"><a xlink:title=" ">
<polygon fill="white" stroke="#bfbfbf" points="903,-112.5 903,-131.5 960,-131.5 960,-112.5 903,-112.5"/>
<text text-anchor="middle" x="931.5" y="-119.5" font-family="Helvetica,sans-Serif" font-size="10.00">wx/wx.h</text>
</a>
</g>
</g>
<!-- Node16&#45;&gt;Node17 -->
<g id="edge21" class="edge">
<title>Node16&#45;&gt;Node17</title>
<path fill="none" stroke="midnightblue" d="M1088.87,-168.44C1056.72,-159.16 1005.27,-144.3 970.01,-134.12"/>
<polygon fill="midnightblue" stroke="midnightblue" points="970.65,-130.66 960.07,-131.25 968.71,-137.39 970.65,-130.66"/>
</g>
<!-- Node18 -->
<g id="node18" class="node">
<title>Node18</title>
<g id="a_node18"><a xlink:title=" ">
<polygon fill="white" stroke="#bfbfbf" points="1168.5,-56.5 1168.5,-75.5 1240.5,-75.5 1240.5,-56.5 1168.5,-56.5"/>
<text text-anchor="middle" x="1204.5" y="-63.5" font-family="Helvetica,sans-Serif" font-size="10.00">wx/config.h</text>
</a>
</g>
</g>
<!-- Node16&#45;&gt;Node18 -->
<g id="edge22" class="edge">
<title>Node16&#45;&gt;Node18</title>
<path fill="none" stroke="midnightblue" d="M1131.85,-168.29C1143.7,-160.05 1160.88,-146.77 1172.5,-132 1183.67,-117.81 1192.38,-99.08 1197.87,-85.38"/>
<polygon fill="midnightblue" stroke="midnightblue" points="1201.29,-86.24 1201.57,-75.64 1194.75,-83.75 1201.29,-86.24"/>
</g>
<!-- Node19 -->
<g id="node19" class="node">
<title>Node19</title>
<g id="a_node19"><a xlink:title=" ">
<polygon fill="white" stroke="#bfbfbf" points="978,-112.5 978,-131.5 1055,-131.5 1055,-112.5 978,-112.5"/>
<text text-anchor="middle" x="1016.5" y="-119.5" font-family="Helvetica,sans-Serif" font-size="10.00">wx/display.h</text>
</a>
</g>
</g>
<!-- Node16&#45;&gt;Node19 -->
<g id="edge23" class="edge">
<title>Node16&#45;&gt;Node19</title>
<path fill="none" stroke="midnightblue" d="M1102.11,-168.32C1085.83,-159.7 1060.63,-146.36 1041.78,-136.39"/>
<polygon fill="midnightblue" stroke="midnightblue" points="1043.32,-133.24 1032.85,-131.65 1040.05,-139.43 1043.32,-133.24"/>
</g>
<!-- Node20 -->
<g id="node20" class="node">
<title>Node20</title>
<g id="a_node20"><a xlink:title=" ">
<polygon fill="white" stroke="#bfbfbf" points="1073.5,-112.5 1073.5,-131.5 1163.5,-131.5 1163.5,-112.5 1073.5,-112.5"/>
<text text-anchor="middle" x="1118.5" y="-119.5" font-family="Helvetica,sans-Serif" font-size="10.00">wx/fontenum.h</text>
</a>
</g>
</g>
<!-- Node16&#45;&gt;Node20 -->
<g id="edge24" class="edge">
<title>Node16&#45;&gt;Node20</title>
<path fill="none" stroke="midnightblue" d="M1118.5,-168.08C1118.5,-161.01 1118.5,-150.86 1118.5,-141.99"/>
<polygon fill="midnightblue" stroke="midnightblue" points="1122,-141.75 1118.5,-131.75 1115,-141.75 1122,-141.75"/>
</g>
<!-- Node21 -->
<g id="node21" class="node">
<title>Node21</title>
<g id="a_node21"><a xlink:title=" ">
<polygon fill="white" stroke="#bfbfbf" points="1285.5,-56.5 1285.5,-75.5 1373.5,-75.5 1373.5,-56.5 1285.5,-56.5"/>
<text text-anchor="middle" x="1329.5" y="-63.5" font-family="Helvetica,sans-Serif" font-size="10.00">wx/hashmap.h</text>
</a>
</g>
</g>
<!-- Node16&#45;&gt;Node21 -->
<g id="edge25" class="edge">
<title>Node16&#45;&gt;Node21</title>
<path fill="none" stroke="midnightblue" d="M1164.28,-173.27C1218.44,-167.83 1303.89,-155.68 1324.5,-132 1335.29,-119.61 1335.45,-100.36 1333.57,-86.03"/>
<polygon fill="midnightblue" stroke="midnightblue" points="1336.95,-85.05 1331.78,-75.81 1330.05,-86.26 1336.95,-85.05"/>
</g>
<!-- Node22 -->
<g id="node22" class="node">
<title>Node22</title>
<g id="a_node22"><a xlink:href="LoggingMessageDialog_8h.html" target="_top" xlink:title="This file declares a message dialog that sends its contents to the log message sink.">
<polygon fill="white" stroke="red" points="632,-112.5 632,-131.5 809,-131.5 809,-112.5 632,-112.5"/>
<text text-anchor="middle" x="720.5" y="-119.5" font-family="Helvetica,sans-Serif" font-size="10.00">dialogs/LoggingMessageDialog.h</text>
</a>
</g>
</g>
<!-- Node16&#45;&gt;Node22 -->
<g id="edge26" class="edge">
<title>Node16&#45;&gt;Node22</title>
<path fill="none" stroke="midnightblue" d="M1072.84,-170.81C1004.51,-161.53 874.95,-143.96 793.42,-132.89"/>
<polygon fill="midnightblue" stroke="midnightblue" points="793.61,-129.39 783.23,-131.51 792.67,-136.32 793.61,-129.39"/>
</g>
<!-- Node16&#45;&gt;Node24 -->
<g id="edge29" class="edge">
<title>Node16&#45;&gt;Node24</title>
<path fill="none" stroke="midnightblue" d="M1142.11,-168.44C1166.96,-159.44 1206.27,-145.19 1234.25,-135.05"/>
<polygon fill="midnightblue" stroke="midnightblue" points="1235.79,-138.21 1244,-131.52 1233.41,-131.63 1235.79,-138.21"/>
</g>
<!-- Node42 -->
<g id="node25" class="node">
<title>Node42</title>
<g id="a_node25"><a xlink:title=" ">
<polygon fill="white" stroke="#bfbfbf" points="1453.5,-112.5 1453.5,-131.5 1501.5,-131.5 1501.5,-112.5 1453.5,-112.5"/>
<text text-anchor="middle" x="1477.5" y="-119.5" font-family="Helvetica,sans-Serif" font-size="10.00">mutex</text>
</a>
</g>
</g>
<!-- Node16&#45;&gt;Node42 -->
<g id="edge37" class="edge">
<title>Node16&#45;&gt;Node42</title>
<path fill="none" stroke="midnightblue" d="M1164.17,-172.58C1225.59,-166.21 1338.33,-153.09 1443.6,-131.95"/>
<polygon fill="midnightblue" stroke="midnightblue" points="1444.34,-135.37 1453.44,-129.95 1442.94,-128.51 1444.34,-135.37"/>
</g>
<!-- Node16&#45;&gt;Node44 -->
<g id="edge38" class="edge">
<title>Node16&#45;&gt;Node44</title>
<path fill="none" stroke="midnightblue" d="M1164.11,-174.02C1235.7,-168.86 1378.88,-156.55 1509.62,-131.88"/>
<polygon fill="midnightblue" stroke="midnightblue" points="1510.65,-135.24 1519.81,-129.92 1509.33,-128.37 1510.65,-135.24"/>
</g>
<!-- Node16&#45;&gt;Node37 -->
<g id="edge39" class="edge">
<title>Node16&#45;&gt;Node37</title>
<path fill="none" stroke="midnightblue" d="M1164.34,-168.47C1212.46,-159.49 1290.33,-144.89 1357.5,-132 1358.76,-131.76 1360.04,-131.51 1361.33,-131.26"/>
<polygon fill="midnightblue" stroke="midnightblue" points="1362.18,-134.66 1371.34,-129.32 1360.85,-127.79 1362.18,-134.66"/>
</g>
<!-- Node22&#45;&gt;Node5 -->
<g id="edge27" class="edge">
<title>Node22&#45;&gt;Node5</title>
<path fill="none" stroke="midnightblue" d="M748.39,-112.44C778.25,-103.28 825.81,-88.69 858.96,-78.52"/>
<polygon fill="midnightblue" stroke="midnightblue" points="860.21,-81.8 868.74,-75.52 858.16,-75.1 860.21,-81.8"/>
</g>
<!-- Node22&#45;&gt;Node9 -->
<g id="edge28" class="edge">
<title>Node22&#45;&gt;Node9</title>
<path fill="none" stroke="midnightblue" d="M656.01,-112.44C570.73,-101.13 423.06,-81.54 352.81,-72.22"/>
<polygon fill="midnightblue" stroke="midnightblue" points="353,-68.71 342.63,-70.86 352.08,-75.65 353,-68.71"/>
</g>
<!-- Node24&#45;&gt;Node5 -->
<g id="edge30" class="edge">
<title>Node24&#45;&gt;Node5</title>
<path fill="none" stroke="midnightblue" d="M1219.38,-114C1148.46,-103.67 1016.6,-84.48 945.3,-74.1"/>
<polygon fill="midnightblue" stroke="midnightblue" points="945.63,-70.61 935.23,-72.64 944.62,-77.54 945.63,-70.61"/>
</g>
<!-- Node24&#45;&gt;Node12 -->
<g id="edge34" class="edge">
<title>Node24&#45;&gt;Node12</title>
<path fill="none" stroke="midnightblue" d="M1219.37,-116.25C1123.23,-106.7 911.96,-85.4 849.75,-75.82"/>
<polygon fill="midnightblue" stroke="midnightblue" points="850.1,-72.32 839.65,-74.11 848.93,-79.23 850.1,-72.32"/>
</g>
<!-- Node24&#45;&gt;Node18 -->
<g id="edge33" class="edge">
<title>Node24&#45;&gt;Node18</title>
<path fill="none" stroke="midnightblue" d="M1257.38,-112.32C1247.97,-104.26 1233.76,-92.08 1222.43,-82.37"/>
<polygon fill="midnightblue" stroke="midnightblue" points="1224.68,-79.68 1214.81,-75.83 1220.12,-85 1224.68,-79.68"/>
</g>
<!-- Node24&#45;&gt;Node21 -->
<g id="edge32" class="edge">
<title>Node24&#45;&gt;Node21</title>
<path fill="none" stroke="midnightblue" d="M1277.46,-112.32C1286.63,-104.34 1300.44,-92.31 1311.53,-82.65"/>
<polygon fill="midnightblue" stroke="midnightblue" points="1314.12,-85.04 1319.36,-75.83 1309.52,-79.76 1314.12,-85.04"/>
</g>
<!-- Node24&#45;&gt;Node26 -->
<g id="edge31" class="edge">
<title>Node24&#45;&gt;Node26</title>
<path fill="none" stroke="midnightblue" d="M1308.86,-112.44C1361.93,-101.46 1452.69,-82.69 1499.17,-73.07"/>
<polygon fill="midnightblue" stroke="midnightblue" points="1500.11,-76.45 1509.19,-71 1498.69,-69.59 1500.11,-76.45"/>
</g>
<!-- Node48 -->
<g id="node29" class="node">
<title>Node48</title>
<g id="a_node29"><a xlink:title=" ">
<polygon fill="white" stroke="#bfbfbf" points="1775,-112.5 1775,-131.5 1846,-131.5 1846,-112.5 1775,-112.5"/>
<text text-anchor="middle" x="1810.5" y="-119.5" font-family="Helvetica,sans-Serif" font-size="10.00">wx/string.h</text>
</a>
</g>
</g>
<!-- Node47&#45;&gt;Node48 -->
<g id="edge41" class="edge">
<title>Node47&#45;&gt;Node48</title>
<path fill="none" stroke="midnightblue" d="M1685.95,-168.44C1710.63,-159.44 1749.69,-145.19 1777.48,-135.05"/>
<polygon fill="midnightblue" stroke="midnightblue" points="1778.96,-138.23 1787.16,-131.52 1776.56,-131.66 1778.96,-138.23"/>
</g>
<!-- Node49 -->
<g id="node30" class="node">
<title>Node49</title>
<g id="a_node30"><a xlink:title=" ">
<polygon fill="white" stroke="#bfbfbf" points="1662,-112.5 1662,-131.5 1757,-131.5 1757,-112.5 1662,-112.5"/>
<text text-anchor="middle" x="1709.5" y="-119.5" font-family="Helvetica,sans-Serif" font-size="10.00">wx/translation.h</text>
</a>
</g>
</g>
<!-- Node47&#45;&gt;Node49 -->
<g id="edge42" class="edge">
<title>Node47&#45;&gt;Node49</title>
<path fill="none" stroke="midnightblue" d="M1670.26,-168.08C1677.04,-160.3 1687.04,-148.8 1695.26,-139.37"/>
<polygon fill="midnightblue" stroke="midnightblue" points="1697.96,-141.59 1701.88,-131.75 1692.68,-137 1697.96,-141.59"/>
</g>
<!-- Node50&#45;&gt;Node8 -->
<g id="edge45" class="edge">
<title>Node50&#45;&gt;Node8</title>
<path fill="none" stroke="midnightblue" d="M74.88,-168.44C93.72,-159.68 123.23,-145.94 144.88,-135.86"/>
<polygon fill="midnightblue" stroke="midnightblue" points="146.62,-138.91 154.21,-131.52 143.66,-132.56 146.62,-138.91"/>
</g>
<!-- Node50&#45;&gt;Node9 -->
<g id="edge46" class="edge">
<title>Node50&#45;&gt;Node9</title>
<path fill="none" stroke="midnightblue" d="M49.93,-168.35C40.47,-154.78 25.61,-128.36 39.5,-112 69.12,-77.12 205.49,-69.23 274,-67.47"/>
<polygon fill="midnightblue" stroke="midnightblue" points="274.46,-70.96 284.38,-67.24 274.31,-63.97 274.46,-70.96"/>
</g>
<!-- Node50&#45;&gt;Node14 -->
<g id="edge47" class="edge">
<title>Node50&#45;&gt;Node14</title>
<path fill="none" stroke="midnightblue" d="M60.96,-168.08C64.65,-160.69 70.02,-149.95 74.59,-140.81"/>
<polygon fill="midnightblue" stroke="midnightblue" points="77.78,-142.26 79.12,-131.75 71.52,-139.13 77.78,-142.26"/>
</g>
<!-- Node53&#45;&gt;Node3 -->
<g id="edge56" class="edge">
<title>Node53&#45;&gt;Node3</title>
<path fill="none" stroke="midnightblue" d="M963.31,-280.92C903.95,-263.93 770.66,-225.9 760.5,-224 595.49,-193.14 545.37,-236 384.5,-188 366.21,-182.54 363.48,-176.71 346.5,-168 325.25,-157.1 301.04,-145.01 283.08,-136.11"/>
<polygon fill="midnightblue" stroke="midnightblue" points="284.32,-132.82 273.81,-131.52 281.22,-139.09 284.32,-132.82"/>
</g>
<!-- Node53&#45;&gt;Node4 -->
<g id="edge61" class="edge">
<title>Node53&#45;&gt;Node4</title>
<path fill="none" stroke="midnightblue" d="M1011.62,-280.44C1032.52,-271.56 1065.43,-257.56 1089.22,-247.45"/>
<polygon fill="midnightblue" stroke="midnightblue" points="1090.64,-250.65 1098.47,-243.52 1087.9,-244.21 1090.64,-250.65"/>
</g>
<!-- Node53&#45;&gt;Node5 -->
<g id="edge60" class="edge">
<title>Node53&#45;&gt;Node5</title>
<path fill="none" stroke="midnightblue" d="M1019.59,-285.57C1146.64,-269.52 1657.89,-198.96 1576.5,-112 1554.96,-88.99 1097.94,-73.1 945.5,-68.43"/>
<polygon fill="midnightblue" stroke="midnightblue" points="945.16,-64.92 935.06,-68.11 944.95,-71.91 945.16,-64.92"/>
</g>
<!-- Node53&#45;&gt;Node52 -->
<g id="edge62" class="edge">
<title>Node53&#45;&gt;Node52</title>
<path fill="none" stroke="midnightblue" d="M1019.76,-286.92C1090.82,-281.51 1282.64,-265.93 1441.5,-244 1442.75,-243.83 1444.02,-243.65 1445.3,-243.46"/>
<polygon fill="midnightblue" stroke="midnightblue" points="1445.89,-246.91 1455.23,-241.91 1444.81,-239.99 1445.89,-246.91"/>
</g>
<!-- Node54 -->
<g id="node35" class="node">
<title>Node54</title>
<g id="a_node35"><a xlink:title=" ">
<polygon fill="white" stroke="#bfbfbf" points="842.5,-224.5 842.5,-243.5 890.5,-243.5 890.5,-224.5 842.5,-224.5"/>
<text text-anchor="middle" x="866.5" y="-231.5" font-family="Helvetica,sans-Serif" font-size="10.00">thread</text>
</a>
</g>
</g>
<!-- Node53&#45;&gt;Node54 -->
<g id="edge57" class="edge">
<title>Node53&#45;&gt;Node54</title>
<path fill="none" stroke="midnightblue" d="M971.69,-280.44C951.21,-271.6 919.02,-257.69 895.64,-247.59"/>
<polygon fill="midnightblue" stroke="midnightblue" points="896.78,-244.27 886.21,-243.52 894.01,-250.7 896.78,-244.27"/>
</g>
<!-- Node55 -->
<g id="node36" class="node">
<title>Node55</title>
<g id="a_node36"><a xlink:href="ThreadNumberLimiter_8h.html" target="_top" xlink:title="A mutex that locks if we have too many background threads.">
<polygon fill="white" stroke="black" points="1355.5,-168.5 1355.5,-187.5 1487.5,-187.5 1487.5,-168.5 1355.5,-168.5"/>
<text text-anchor="middle" x="1421.5" y="-175.5" font-family="Helvetica,sans-Serif" font-size="10.00">ThreadNumberLimiter.h</text>
</a>
</g>
</g>
<!-- Node53&#45;&gt;Node55 -->
<g id="edge58" class="edge">
<title>Node53&#45;&gt;Node55</title>
<path fill="none" stroke="midnightblue" d="M1019.71,-281.78C1093.13,-263 1290.51,-212.51 1378.34,-190.04"/>
<polygon fill="midnightblue" stroke="midnightblue" points="1379.42,-193.38 1388.24,-187.51 1377.68,-186.6 1379.42,-193.38"/>
</g>
<!-- Node56 -->
<g id="node37" class="node">
<title>Node56</title>
<g id="a_node37"><a xlink:title=" ">
<polygon fill="white" stroke="#bfbfbf" points="909,-224.5 909,-243.5 980,-243.5 980,-224.5 909,-224.5"/>
<text text-anchor="middle" x="944.5" y="-231.5" font-family="Helvetica,sans-Serif" font-size="10.00">wx/buffer.h</text>
</a>
</g>
</g>
<!-- Node53&#45;&gt;Node56 -->
<g id="edge63" class="edge">
<title>Node53&#45;&gt;Node56</title>
<path fill="none" stroke="midnightblue" d="M983.74,-280.08C976.96,-272.3 966.96,-260.8 958.74,-251.37"/>
<polygon fill="midnightblue" stroke="midnightblue" points="961.32,-249 952.12,-243.75 956.04,-253.59 961.32,-249"/>
</g>
<!-- Node57 -->
<g id="node38" class="node">
<title>Node57</title>
<g id="a_node38"><a xlink:title=" ">
<polygon fill="white" stroke="#bfbfbf" points="998.5,-224.5 998.5,-243.5 1078.5,-243.5 1078.5,-224.5 998.5,-224.5"/>
<text text-anchor="middle" x="1038.5" y="-231.5" font-family="Helvetica,sans-Serif" font-size="10.00">wx/zipstrm.h</text>
</a>
</g>
</g>
<!-- Node53&#45;&gt;Node57 -->
<g id="edge64" class="edge">
<title>Node53&#45;&gt;Node57</title>
<path fill="none" stroke="midnightblue" d="M999.26,-280.08C1006.04,-272.3 1016.04,-260.8 1024.26,-251.37"/>
<polygon fill="midnightblue" stroke="midnightblue" points="1026.96,-253.59 1030.88,-243.75 1021.68,-249 1026.96,-253.59"/>
</g>
<!-- Node58 -->
<g id="node39" class="node">
<title>Node58</title>
<g id="a_node39"><a xlink:title=" ">
<polygon fill="white" stroke="#bfbfbf" points="395,-224.5 395,-243.5 484,-243.5 484,-224.5 395,-224.5"/>
<text text-anchor="middle" x="439.5" y="-231.5" font-family="Helvetica,sans-Serif" font-size="10.00">wx/wfstream.h</text>
</a>
</g>
</g>
<!-- Node53&#45;&gt;Node58 -->
<g id="edge65" class="edge">
<title>Node53&#45;&gt;Node58</title>
<path fill="none" stroke="midnightblue" d="M963.28,-287.23C888.49,-282.38 678.82,-267.72 494.43,-244.17"/>
<polygon fill="midnightblue" stroke="midnightblue" points="494.65,-240.67 484.28,-242.86 493.75,-247.61 494.65,-240.67"/>
</g>
<!-- Node59 -->
<g id="node40" class="node">
<title>Node59</title>
<g id="a_node40"><a xlink:title=" ">
<polygon fill="white" stroke="#bfbfbf" points="502,-224.5 502,-243.5 609,-243.5 609,-224.5 502,-224.5"/>
<text text-anchor="middle" x="555.5" y="-231.5" font-family="Helvetica,sans-Serif" font-size="10.00">nanosvg_private.h</text>
</a>
</g>
</g>
<!-- Node53&#45;&gt;Node59 -->
<g id="edge66" class="edge">
<title>Node53&#45;&gt;Node59</title>
<path fill="none" stroke="midnightblue" d="M963.32,-285.85C902.47,-278.99 754,-261.98 619.34,-244.22"/>
<polygon fill="midnightblue" stroke="midnightblue" points="619.63,-240.73 609.26,-242.89 618.71,-247.67 619.63,-240.73"/>
</g>
<!-- Node60 -->
<g id="node41" class="node">
<title>Node60</title>
<g id="a_node41"><a xlink:title=" ">
<polygon fill="white" stroke="#bfbfbf" points="627,-224.5 627,-243.5 752,-243.5 752,-224.5 627,-224.5"/>
<text text-anchor="middle" x="689.5" y="-231.5" font-family="Helvetica,sans-Serif" font-size="10.00">nanosvgrast_private.h</text>
</a>
</g>
</g>
<!-- Node53&#45;&gt;Node60 -->
<g id="edge67" class="edge">
<title>Node53&#45;&gt;Node60</title>
<path fill="none" stroke="midnightblue" d="M963.36,-283.97C914.23,-275.18 811.87,-256.88 747.15,-245.31"/>
<polygon fill="midnightblue" stroke="midnightblue" points="747.56,-241.83 737.1,-243.51 746.33,-248.72 747.56,-241.83"/>
</g>
<!-- Node55&#45;&gt;Node42 -->
<g id="edge59" class="edge">
<title>Node55&#45;&gt;Node42</title>
<path fill="none" stroke="midnightblue" d="M1430.5,-168.32C1438.69,-160.42 1451.01,-148.55 1460.97,-138.94"/>
<polygon fill="midnightblue" stroke="midnightblue" points="1463.57,-141.29 1468.34,-131.83 1458.71,-136.26 1463.57,-141.29"/>
</g>
<!-- Node63&#45;&gt;Node3 -->
<g id="edge71" class="edge">
<title>Node63&#45;&gt;Node3</title>
<path fill="none" stroke="midnightblue" d="M271.35,-280.46C270.93,-260.64 269.43,-210.01 264.5,-168 263.47,-159.22 261.82,-149.57 260.29,-141.45"/>
<polygon fill="midnightblue" stroke="midnightblue" points="263.71,-140.71 258.34,-131.58 256.84,-142.07 263.71,-140.71"/>
</g>
<!-- Node64&#45;&gt;Node4 -->
<g id="edge73" class="edge">
<title>Node64&#45;&gt;Node4</title>
<path fill="none" stroke="midnightblue" d="M1520.24,-282.49C1514.29,-281.62 1508.24,-280.77 1502.5,-280 1372.36,-262.62 1216.9,-245.53 1150.8,-238.43"/>
<polygon fill="midnightblue" stroke="midnightblue" points="1150.92,-234.92 1140.61,-237.34 1150.18,-241.88 1150.92,-234.92"/>
</g>
<!-- Node64&#45;&gt;Node44 -->
<g id="edge75" class="edge">
<title>Node64&#45;&gt;Node44</title>
<path fill="none" stroke="midnightblue" d="M1561.48,-280.08C1558.49,-253.95 1549.7,-177.21 1545.63,-141.58"/>
<polygon fill="midnightblue" stroke="midnightblue" points="1549.1,-141.11 1544.48,-131.57 1542.14,-141.9 1549.1,-141.11"/>
</g>
<!-- Node64&#45;&gt;Node48 -->
<g id="edge74" class="edge">
<title>Node64&#45;&gt;Node48</title>
<path fill="none" stroke="midnightblue" d="M1575.48,-280.31C1615.83,-253.3 1739.29,-170.67 1789.21,-137.25"/>
<polygon fill="midnightblue" stroke="midnightblue" points="1791.28,-140.08 1797.64,-131.61 1787.39,-134.26 1791.28,-140.08"/>
</g>
</g>
</svg>
