<?xml version="1.0" encoding="UTF-8" standalone="no"?>
<!DOCTYPE svg PUBLIC "-//W3C//DTD SVG 1.1//EN"
 "http://www.w3.org/Graphics/SVG/1.1/DTD/svg11.dtd">
<!-- Generated by graphviz version 2.43.0 (0)
 -->
<!-- Title: Graphical Class Hierarchy Pages: 1 -->
<svg width="212pt" height="446pt"
 viewBox="0.00 0.00 212.00 446.00" xmlns="http://www.w3.org/2000/svg" xmlns:xlink="http://www.w3.org/1999/xlink">
<g id="graph0" class="graph" transform="scale(1 1) rotate(0) translate(4 442)">
<title>Graphical Class Hierarchy</title>
<polygon fill="white" stroke="transparent" points="-4,4 -4,-442 208,-442 208,4 -4,4"/>
<!-- Node363 -->
<g id="node1" class="node">
<title>Node363</title>
<g id="a_node1"><a xlink:title=" ">
<polygon fill="white" stroke="#bfbfbf" points="0,-209.5 0,-228.5 57,-228.5 57,-209.5 0,-209.5"/>
<text text-anchor="middle" x="28.5" y="-216.5" font-family="Helvetica,sans-Serif" font-size="10.00">wxPanel</text>
</a>
</g>
</g>
<!-- Node0 -->
<g id="node2" class="node">
<title>Node0</title>
<g id="a_node2"><a xlink:href="classCharButton.html" target="_top" xlink:title="This class generates a pane containing the last commands that were issued.">
<polygon fill="white" stroke="black" points="113,-418.5 113,-437.5 184,-437.5 184,-418.5 113,-418.5"/>
<text text-anchor="middle" x="148.5" y="-425.5" font-family="Helvetica,sans-Serif" font-size="10.00">CharButton</text>
</a>
</g>
</g>
<!-- Node363&#45;&gt;Node0 -->
<g id="edge1" class="edge">
<title>Node363&#45;&gt;Node0</title>
<path fill="none" stroke="midnightblue" d="M30.57,-239.16C33.69,-277.47 45.84,-361.22 93,-409 98.42,-414.49 105.51,-418.4 112.78,-421.18"/>
<polygon fill="midnightblue" stroke="midnightblue" points="34.04,-238.56 29.87,-228.82 27.06,-239.03 34.04,-238.56"/>
</g>
<!-- Node365 -->
<g id="node3" class="node">
<title>Node365</title>
<g id="a_node3"><a xlink:href="classFindReplacePane.html" target="_top" xlink:title="The find+replace pane.">
<polygon fill="white" stroke="black" points="99,-380.5 99,-399.5 198,-399.5 198,-380.5 99,-380.5"/>
<text text-anchor="middle" x="148.5" y="-387.5" font-family="Helvetica,sans-Serif" font-size="10.00">FindReplacePane</text>
</a>
</g>
</g>
<!-- Node363&#45;&gt;Node365 -->
<g id="edge2" class="edge">
<title>Node363&#45;&gt;Node365</title>
<path fill="none" stroke="midnightblue" d="M32.45,-238.67C38.29,-270.78 54.26,-334.52 93,-371 97.09,-374.85 101.99,-377.92 107.16,-380.37"/>
<polygon fill="midnightblue" stroke="midnightblue" points="35.89,-238.01 30.79,-228.73 28.99,-239.17 35.89,-238.01"/>
</g>
<!-- Node366 -->
<g id="node4" class="node">
<title>Node366</title>
<g id="a_node4"><a xlink:href="classGenWizPanel.html" target="_top" xlink:title="A dockable, embeddable generic wizard.">
<polygon fill="white" stroke="black" points="108.5,-342.5 108.5,-361.5 188.5,-361.5 188.5,-342.5 108.5,-342.5"/>
<text text-anchor="middle" x="148.5" y="-349.5" font-family="Helvetica,sans-Serif" font-size="10.00">GenWizPanel</text>
</a>
</g>
</g>
<!-- Node363&#45;&gt;Node366 -->
<g id="edge3" class="edge">
<title>Node363&#45;&gt;Node366</title>
<path fill="none" stroke="midnightblue" d="M35.43,-238.35C44.12,-263.58 62.65,-307.49 93,-333 97.6,-336.87 103.04,-339.97 108.67,-342.45"/>
<polygon fill="midnightblue" stroke="midnightblue" points="38.74,-237.21 32.31,-228.79 32.09,-239.39 38.74,-237.21"/>
</g>
<!-- Node367 -->
<g id="node5" class="node">
<title>Node367</title>
<g id="a_node5"><a xlink:href="classHelpBrowser.html" target="_top" xlink:title=" ">
<polygon fill="white" stroke="black" points="109,-304.5 109,-323.5 188,-323.5 188,-304.5 109,-304.5"/>
<text text-anchor="middle" x="148.5" y="-311.5" font-family="Helvetica,sans-Serif" font-size="10.00">HelpBrowser</text>
</a>
</g>
</g>
<!-- Node363&#45;&gt;Node367 -->
<g id="edge4" class="edge">
<title>Node363&#45;&gt;Node367</title>
<path fill="none" stroke="midnightblue" d="M40.52,-237.16C51.76,-254.29 70.69,-279.57 93,-295 98.52,-298.82 104.89,-301.94 111.27,-304.47"/>
<polygon fill="midnightblue" stroke="midnightblue" points="43.4,-235.17 35.09,-228.6 37.49,-238.92 43.4,-235.17"/>
</g>
<!-- Node368 -->
<g id="node6" class="node">
<title>Node368</title>
<g id="a_node6"><a xlink:href="classHistory.html" target="_top" xlink:title="This class generates a pane containing the last commands that were issued.">
<polygon fill="white" stroke="black" points="122.5,-266.5 122.5,-285.5 174.5,-285.5 174.5,-266.5 122.5,-266.5"/>
<text text-anchor="middle" x="148.5" y="-273.5" font-family="Helvetica,sans-Serif" font-size="10.00">History</text>
</a>
</g>
</g>
<!-- Node363&#45;&gt;Node368 -->
<g id="edge5" class="edge">
<title>Node363&#45;&gt;Node368</title>
<path fill="none" stroke="midnightblue" d="M52.42,-234.26C64.22,-241.72 79.04,-250.47 93,-257 102.35,-261.37 113,-265.3 122.39,-268.44"/>
<polygon fill="midnightblue" stroke="midnightblue" points="53.97,-231.1 43.67,-228.62 50.18,-236.98 53.97,-231.1"/>
</g>
<!-- Node369 -->
<g id="node7" class="node">
<title>Node369</title>
<g id="a_node7"><a xlink:href="classLogPane.html" target="_top" xlink:title="A &quot;debug messages&quot; sidepane.">
<polygon fill="white" stroke="black" points="120,-228.5 120,-247.5 177,-247.5 177,-228.5 120,-228.5"/>
<text text-anchor="middle" x="148.5" y="-235.5" font-family="Helvetica,sans-Serif" font-size="10.00">LogPane</text>
</a>
</g>
</g>
<!-- Node363&#45;&gt;Node369 -->
<g id="edge6" class="edge">
<title>Node363&#45;&gt;Node369</title>
<path fill="none" stroke="midnightblue" d="M67.33,-225.09C84.31,-227.83 103.99,-230.99 119.6,-233.51"/>
<polygon fill="midnightblue" stroke="midnightblue" points="67.6,-221.59 57.17,-223.45 66.48,-228.5 67.6,-221.59"/>
</g>
<!-- Node370 -->
<g id="node8" class="node">
<title>Node370</title>
<g id="a_node8"><a xlink:href="classSvgPanel.html" target="_top" xlink:title="A panel that shows an example image.">
<polygon fill="white" stroke="black" points="118,-190.5 118,-209.5 179,-209.5 179,-190.5 118,-190.5"/>
<text text-anchor="middle" x="148.5" y="-197.5" font-family="Helvetica,sans-Serif" font-size="10.00">SvgPanel</text>
</a>
</g>
</g>
<!-- Node363&#45;&gt;Node370 -->
<g id="edge7" class="edge">
<title>Node363&#45;&gt;Node370</title>
<path fill="none" stroke="midnightblue" d="M67.49,-212.88C83.84,-210.25 102.66,-207.22 117.94,-204.76"/>
<polygon fill="midnightblue" stroke="midnightblue" points="66.48,-209.5 57.17,-214.55 67.6,-216.41 66.48,-209.5"/>
</g>
<!-- Node371 -->
<g id="node9" class="node">
<title>Node371</title>
<g id="a_node9"><a xlink:href="classTableOfContents.html" target="_top" xlink:title="This class generates a pane containing the table of contents.">
<polygon fill="white" stroke="black" points="100,-152.5 100,-171.5 197,-171.5 197,-152.5 100,-152.5"/>
<text text-anchor="middle" x="148.5" y="-159.5" font-family="Helvetica,sans-Serif" font-size="10.00">TableOfContents</text>
</a>
</g>
</g>
<!-- Node363&#45;&gt;Node371 -->
<g id="edge8" class="edge">
<title>Node363&#45;&gt;Node371</title>
<path fill="none" stroke="midnightblue" d="M52.42,-203.74C64.22,-196.28 79.04,-187.53 93,-181 100.44,-177.52 108.71,-174.32 116.51,-171.58"/>
<polygon fill="midnightblue" stroke="midnightblue" points="50.18,-201.02 43.67,-209.38 53.97,-206.9 50.18,-201.02"/>
</g>
<!-- Node372 -->
<g id="node10" class="node">
<title>Node372</title>
<g id="a_node10"><a xlink:href="classUnicodeSidebar.html" target="_top" xlink:title="This class generates a pane containing the last commands that were issued.">
<polygon fill="white" stroke="black" points="102,-114.5 102,-133.5 195,-133.5 195,-114.5 102,-114.5"/>
<text text-anchor="middle" x="148.5" y="-121.5" font-family="Helvetica,sans-Serif" font-size="10.00">UnicodeSidebar</text>
</a>
</g>
</g>
<!-- Node363&#45;&gt;Node372 -->
<g id="edge9" class="edge">
<title>Node363&#45;&gt;Node372</title>
<path fill="none" stroke="midnightblue" d="M40.52,-200.84C51.76,-183.71 70.69,-158.43 93,-143 98.52,-139.18 104.89,-136.06 111.27,-133.53"/>
<polygon fill="midnightblue" stroke="midnightblue" points="37.49,-199.08 35.09,-209.4 43.4,-202.83 37.49,-199.08"/>
</g>
<!-- Node373 -->
<g id="node11" class="node">
<title>Node373</title>
<g id="a_node11"><a xlink:href="classVariablespane.html" target="_top" xlink:title="A &quot;variables&quot; sidepane.">
<polygon fill="white" stroke="black" points="105.5,-76.5 105.5,-95.5 191.5,-95.5 191.5,-76.5 105.5,-76.5"/>
<text text-anchor="middle" x="148.5" y="-83.5" font-family="Helvetica,sans-Serif" font-size="10.00">Variablespane</text>
</a>
</g>
</g>
<!-- Node363&#45;&gt;Node373 -->
<g id="edge10" class="edge">
<title>Node363&#45;&gt;Node373</title>
<path fill="none" stroke="midnightblue" d="M35.43,-199.65C44.12,-174.42 62.65,-130.51 93,-105 97.6,-101.13 103.04,-98.03 108.67,-95.55"/>
<polygon fill="midnightblue" stroke="midnightblue" points="32.09,-198.61 32.31,-209.21 38.74,-200.79 32.09,-198.61"/>
</g>
<!-- Node374 -->
<g id="node12" class="node">
<title>Node374</title>
<g id="a_node12"><a xlink:href="classWrappingStaticText.html" target="_top" xlink:title="A wxStaticText variant that auto&#45;wraps, if necessary.">
<polygon fill="white" stroke="black" points="93,-38.5 93,-57.5 204,-57.5 204,-38.5 93,-38.5"/>
<text text-anchor="middle" x="148.5" y="-45.5" font-family="Helvetica,sans-Serif" font-size="10.00">WrappingStaticText</text>
</a>
</g>
</g>
<!-- Node363&#45;&gt;Node374 -->
<g id="edge11" class="edge">
<title>Node363&#45;&gt;Node374</title>
<path fill="none" stroke="midnightblue" d="M32.45,-199.33C38.29,-167.22 54.26,-103.48 93,-67 97.09,-63.15 101.99,-60.08 107.16,-57.63"/>
<polygon fill="midnightblue" stroke="midnightblue" points="28.99,-198.83 30.79,-209.27 35.89,-199.99 28.99,-198.83"/>
</g>
<!-- Node375 -->
<g id="node13" class="node">
<title>Node375</title>
<g id="a_node13"><a xlink:href="classwxImagePanel.html" target="_top" xlink:title="A panel that shows an example image.">
<polygon fill="white" stroke="black" points="104.5,-0.5 104.5,-19.5 192.5,-19.5 192.5,-0.5 104.5,-0.5"/>
<text text-anchor="middle" x="148.5" y="-7.5" font-family="Helvetica,sans-Serif" font-size="10.00">wxImagePanel</text>
</a>
</g>
</g>
<!-- Node363&#45;&gt;Node375 -->
<g id="edge12" class="edge">
<title>Node363&#45;&gt;Node375</title>
<path fill="none" stroke="midnightblue" d="M30.57,-198.84C33.69,-160.53 45.84,-76.78 93,-29 96.8,-25.15 101.42,-22.08 106.35,-19.63"/>
<polygon fill="midnightblue" stroke="midnightblue" points="27.06,-198.97 29.87,-209.18 34.04,-199.44 27.06,-198.97"/>
</g>
</g>
</svg>
