<?xml version="1.0" encoding="UTF-8" standalone="no"?>
<!DOCTYPE svg PUBLIC "-//W3C//DTD SVG 1.1//EN"
 "http://www.w3.org/Graphics/SVG/1.1/DTD/svg11.dtd">
<!-- Generated by graphviz version 2.43.0 (0)
 -->
<!-- Title: Graphical Class Hierarchy Pages: 1 -->
<svg width="285pt" height="66pt"
 viewBox="0.00 0.00 285.00 66.00" xmlns="http://www.w3.org/2000/svg" xmlns:xlink="http://www.w3.org/1999/xlink">
<g id="graph0" class="graph" transform="scale(1 1) rotate(0) translate(4 62)">
<title>Graphical Class Hierarchy</title>
<polygon fill="white" stroke="transparent" points="-4,4 -4,-62 281,-62 281,4 -4,4"/>
<!-- Node384 -->
<g id="node1" class="node">
<title>Node384</title>
<g id="a_node1"><a xlink:title=" ">
<polygon fill="white" stroke="#bfbfbf" points="0,-19.5 0,-38.5 62,-38.5 62,-19.5 0,-19.5"/>
<text text-anchor="middle" x="31" y="-26.5" font-family="Helvetica,sans-Serif" font-size="10.00">wxRegEx</text>
</a>
</g>
</g>
<!-- Node0 -->
<g id="node2" class="node">
<title>Node0</title>
<g id="a_node2"><a xlink:href="classMarkDownParser_1_1RegexReplacer.html" target="_top" xlink:title="A pair of a regExp and a string that has to replace the matches.">
<polygon fill="white" stroke="black" points="98,-38.5 98,-57.5 277,-57.5 277,-38.5 98,-38.5"/>
<text text-anchor="middle" x="187.5" y="-45.5" font-family="Helvetica,sans-Serif" font-size="10.00">MarkDownParser::RegexReplacer</text>
</a>
</g>
</g>
<!-- Node384&#45;&gt;Node0 -->
<g id="edge1" class="edge">
<title>Node384&#45;&gt;Node0</title>
<path fill="none" stroke="midnightblue" d="M72.14,-33.94C83.48,-35.33 96.22,-36.9 108.97,-38.47"/>
<polygon fill="midnightblue" stroke="midnightblue" points="72.51,-30.46 62.16,-32.71 71.65,-37.4 72.51,-30.46"/>
</g>
<!-- Node386 -->
<g id="node3" class="node">
<title>Node386</title>
<g id="a_node3"><a xlink:href="classRegexSearch.html" target="_top" xlink:title="The find+replace dialog.">
<polygon fill="white" stroke="black" points="147.5,-0.5 147.5,-19.5 227.5,-19.5 227.5,-0.5 147.5,-0.5"/>
<text text-anchor="middle" x="187.5" y="-7.5" font-family="Helvetica,sans-Serif" font-size="10.00">RegexSearch</text>
</a>
</g>
</g>
<!-- Node384&#45;&gt;Node386 -->
<g id="edge2" class="edge">
<title>Node384&#45;&gt;Node386</title>
<path fill="none" stroke="midnightblue" d="M72.34,-24.04C95.48,-21.19 124.39,-17.64 147.33,-14.82"/>
<polygon fill="midnightblue" stroke="midnightblue" points="71.65,-20.6 62.16,-25.29 72.51,-27.54 71.65,-20.6"/>
</g>
</g>
</svg>
