<?xml version="1.0" encoding="UTF-8" standalone="no"?>
<!DOCTYPE svg PUBLIC "-//W3C//DTD SVG 1.1//EN"
 "http://www.w3.org/Graphics/SVG/1.1/DTD/svg11.dtd">
<!-- Generated by graphviz version 2.43.0 (0)
 -->
<!-- Title: Graphical Class Hierarchy Pages: 1 -->
<svg width="775pt" height="781pt"
 viewBox="0.00 0.00 775.00 781.00" xmlns="http://www.w3.org/2000/svg" xmlns:xlink="http://www.w3.org/1999/xlink">
<g id="graph0" class="graph" transform="scale(1 1) rotate(0) translate(4 777)">
<title>Graphical Class Hierarchy</title>
<polygon fill="white" stroke="transparent" points="-4,4 -4,-777 771,-777 771,4 -4,4"/>
<!-- Node0 -->
<g id="node1" class="node">
<title>Node0</title>
<g id="a_node1"><a xlink:href="structCatch_1_1Matchers_1_1Impl_1_1MatcherMethod.html" target="_top" xlink:title=" ">
<polygon fill="white" stroke="black" points="0,-619.5 0,-649.5 159,-649.5 159,-619.5 0,-619.5"/>
<text text-anchor="start" x="8" y="-637.5" font-family="Helvetica,sans-Serif" font-size="10.00">Catch::Matchers::Impl</text>
<text text-anchor="middle" x="79.5" y="-626.5" font-family="Helvetica,sans-Serif" font-size="10.00">::MatcherMethod&lt; ObjectT &gt;</text>
</a>
</g>
</g>
<!-- Node1 -->
<g id="node2" class="node">
<title>Node1</title>
<g id="a_node2"><a xlink:href="structCatch_1_1Matchers_1_1Impl_1_1MatcherBase.html" target="_top" xlink:title=" ">
<polygon fill="white" stroke="black" points="213,-570.5 213,-600.5 355,-600.5 355,-570.5 213,-570.5"/>
<text text-anchor="start" x="221" y="-588.5" font-family="Helvetica,sans-Serif" font-size="10.00">Catch::Matchers::Impl</text>
<text text-anchor="middle" x="284" y="-577.5" font-family="Helvetica,sans-Serif" font-size="10.00">::MatcherBase&lt; double &gt;</text>
</a>
</g>
</g>
<!-- Node0&#45;&gt;Node1 -->
<g id="edge1" class="edge">
<title>Node0&#45;&gt;Node1</title>
<path fill="none" stroke="midnightblue" d="M152.42,-617.1C174.83,-611.68 199.32,-605.75 220.98,-600.51"/>
<polygon fill="midnightblue" stroke="midnightblue" points="151.53,-613.71 142.63,-619.47 153.18,-620.52 151.53,-613.71"/>
</g>
<!-- Node2 -->
<g id="node3" class="node">
<title>Node2</title>
<g id="a_node3"><a xlink:href="structCatch_1_1Matchers_1_1Impl_1_1MatcherBase.html" target="_top" xlink:title=" ">
<polygon fill="white" stroke="black" points="205,-521.5 205,-551.5 363,-551.5 363,-521.5 205,-521.5"/>
<text text-anchor="start" x="213" y="-539.5" font-family="Helvetica,sans-Serif" font-size="10.00">Catch::Matchers::Impl</text>
<text text-anchor="middle" x="284" y="-528.5" font-family="Helvetica,sans-Serif" font-size="10.00">::MatcherBase&lt; std::string &gt;</text>
</a>
</g>
</g>
<!-- Node0&#45;&gt;Node2 -->
<g id="edge2" class="edge">
<title>Node0&#45;&gt;Node2</title>
<path fill="none" stroke="midnightblue" d="M150.57,-614.84C153.5,-613.19 156.33,-611.42 159,-609.5 180.95,-593.74 172.72,-575.8 195,-560.5 199.96,-557.09 205.39,-554.17 211.03,-551.66"/>
<polygon fill="midnightblue" stroke="midnightblue" points="148.89,-611.77 141.52,-619.38 152.03,-618.02 148.89,-611.77"/>
</g>
<!-- Node3 -->
<g id="node4" class="node">
<title>Node3</title>
<g id="a_node4"><a xlink:href="structCatch_1_1Matchers_1_1Impl_1_1MatcherBase.html" target="_top" xlink:title=" ">
<polygon fill="white" stroke="black" points="209.5,-461 209.5,-502 358.5,-502 358.5,-461 209.5,-461"/>
<text text-anchor="start" x="217.5" y="-490" font-family="Helvetica,sans-Serif" font-size="10.00">Catch::Matchers::Impl</text>
<text text-anchor="start" x="217.5" y="-479" font-family="Helvetica,sans-Serif" font-size="10.00">::MatcherBase&lt; std::vector</text>
<text text-anchor="middle" x="284" y="-468" font-family="Helvetica,sans-Serif" font-size="10.00">&lt; T, AllocMatch &gt; &gt;</text>
</a>
</g>
</g>
<!-- Node0&#45;&gt;Node3 -->
<g id="edge3" class="edge">
<title>Node0&#45;&gt;Node3</title>
<path fill="none" stroke="midnightblue" d="M153.81,-613.91C155.63,-612.54 157.36,-611.07 159,-609.5 192.52,-577.41 161.81,-543.92 195,-511.5 199.27,-507.33 204.15,-503.73 209.36,-500.64"/>
<polygon fill="midnightblue" stroke="midnightblue" points="151.88,-610.99 145.4,-619.38 155.7,-616.86 151.88,-610.99"/>
</g>
<!-- Node4 -->
<g id="node5" class="node">
<title>Node4</title>
<g id="a_node5"><a xlink:href="structCatch_1_1Matchers_1_1Impl_1_1MatcherBase.html" target="_top" xlink:title=" ">
<polygon fill="white" stroke="black" points="209.5,-718 209.5,-759 358.5,-759 358.5,-718 209.5,-718"/>
<text text-anchor="start" x="217.5" y="-747" font-family="Helvetica,sans-Serif" font-size="10.00">Catch::Matchers::Impl</text>
<text text-anchor="start" x="217.5" y="-736" font-family="Helvetica,sans-Serif" font-size="10.00">::MatcherBase&lt; std::vector</text>
<text text-anchor="middle" x="284" y="-725" font-family="Helvetica,sans-Serif" font-size="10.00">&lt; T, Alloc &gt; &gt;</text>
</a>
</g>
</g>
<!-- Node0&#45;&gt;Node4 -->
<g id="edge4" class="edge">
<title>Node0&#45;&gt;Node4</title>
<path fill="none" stroke="midnightblue" d="M109.09,-655.81C131.58,-671.85 164.16,-693.56 195,-708.5 201.97,-711.88 209.42,-715.04 216.93,-717.96"/>
<polygon fill="midnightblue" stroke="midnightblue" points="110.86,-652.76 100.7,-649.74 106.76,-658.44 110.86,-652.76"/>
</g>
<!-- Node5 -->
<g id="node6" class="node">
<title>Node5</title>
<g id="a_node6"><a xlink:href="structCatch_1_1Matchers_1_1Impl_1_1MatcherBase.html" target="_top" xlink:title=" ">
<polygon fill="white" stroke="black" points="218.5,-668.5 218.5,-698.5 349.5,-698.5 349.5,-668.5 218.5,-668.5"/>
<text text-anchor="start" x="226.5" y="-686.5" font-family="Helvetica,sans-Serif" font-size="10.00">Catch::Matchers::Impl</text>
<text text-anchor="middle" x="284" y="-675.5" font-family="Helvetica,sans-Serif" font-size="10.00">::MatcherBase&lt; ArgT &gt;</text>
</a>
</g>
</g>
<!-- Node0&#45;&gt;Node5 -->
<g id="edge5" class="edge">
<title>Node0&#45;&gt;Node5</title>
<path fill="none" stroke="midnightblue" d="M152.42,-651.9C174.83,-657.32 199.32,-663.25 220.98,-668.49"/>
<polygon fill="midnightblue" stroke="midnightblue" points="153.18,-648.48 142.63,-649.53 151.53,-655.29 153.18,-648.48"/>
</g>
<!-- Node9 -->
<g id="node10" class="node">
<title>Node9</title>
<g id="a_node10"><a xlink:href="structCatch_1_1Matchers_1_1Impl_1_1MatcherBase.html" target="_top" xlink:title=" ">
<polygon fill="white" stroke="black" points="195,-619.5 195,-649.5 373,-649.5 373,-619.5 195,-619.5"/>
<text text-anchor="start" x="203" y="-637.5" font-family="Helvetica,sans-Serif" font-size="10.00">Catch::Matchers::Impl</text>
<text text-anchor="middle" x="284" y="-626.5" font-family="Helvetica,sans-Serif" font-size="10.00">::MatcherBase&lt; std::exception &gt;</text>
</a>
</g>
</g>
<!-- Node0&#45;&gt;Node9 -->
<g id="edge9" class="edge">
<title>Node0&#45;&gt;Node9</title>
<path fill="none" stroke="midnightblue" d="M169.29,-634.5C177.73,-634.5 186.28,-634.5 194.71,-634.5"/>
<polygon fill="midnightblue" stroke="midnightblue" points="169.08,-631 159.08,-634.5 169.08,-638 169.08,-631"/>
</g>
<!-- Node6 -->
<g id="node7" class="node">
<title>Node6</title>
<g id="a_node7"><a xlink:href="structCatch_1_1Matchers_1_1Impl_1_1MatchAllOf.html" target="_top" xlink:title=" ">
<polygon fill="white" stroke="black" points="435.5,-742.5 435.5,-772.5 558.5,-772.5 558.5,-742.5 435.5,-742.5"/>
<text text-anchor="start" x="443.5" y="-760.5" font-family="Helvetica,sans-Serif" font-size="10.00">Catch::Matchers::Impl</text>
<text text-anchor="middle" x="497" y="-749.5" font-family="Helvetica,sans-Serif" font-size="10.00">::MatchAllOf&lt; ArgT &gt;</text>
</a>
</g>
</g>
<!-- Node5&#45;&gt;Node6 -->
<g id="edge6" class="edge">
<title>Node5&#45;&gt;Node6</title>
<path fill="none" stroke="midnightblue" d="M357.57,-702.02C362.87,-704.01 368.06,-706.17 373,-708.5 390.61,-716.83 391.36,-725.24 409,-733.5 417.23,-737.35 426.2,-740.7 435.14,-743.56"/>
<polygon fill="midnightblue" stroke="midnightblue" points="358.55,-698.65 347.96,-698.63 356.22,-705.25 358.55,-698.65"/>
</g>
<!-- Node7 -->
<g id="node8" class="node">
<title>Node7</title>
<g id="a_node8"><a xlink:href="structCatch_1_1Matchers_1_1Impl_1_1MatchAnyOf.html" target="_top" xlink:title=" ">
<polygon fill="white" stroke="black" points="433,-693.5 433,-723.5 561,-723.5 561,-693.5 433,-693.5"/>
<text text-anchor="start" x="441" y="-711.5" font-family="Helvetica,sans-Serif" font-size="10.00">Catch::Matchers::Impl</text>
<text text-anchor="middle" x="497" y="-700.5" font-family="Helvetica,sans-Serif" font-size="10.00">::MatchAnyOf&lt; ArgT &gt;</text>
</a>
</g>
</g>
<!-- Node5&#45;&gt;Node7 -->
<g id="edge7" class="edge">
<title>Node5&#45;&gt;Node7</title>
<path fill="none" stroke="midnightblue" d="M359.82,-692.36C383.69,-695.19 409.87,-698.29 432.83,-701.02"/>
<polygon fill="midnightblue" stroke="midnightblue" points="360.08,-688.87 349.74,-691.17 359.26,-695.82 360.08,-688.87"/>
</g>
<!-- Node8 -->
<g id="node9" class="node">
<title>Node8</title>
<g id="a_node9"><a xlink:href="structCatch_1_1Matchers_1_1Impl_1_1MatchNotOf.html" target="_top" xlink:title=" ">
<polygon fill="white" stroke="black" points="434,-644.5 434,-674.5 560,-674.5 560,-644.5 434,-644.5"/>
<text text-anchor="start" x="442" y="-662.5" font-family="Helvetica,sans-Serif" font-size="10.00">Catch::Matchers::Impl</text>
<text text-anchor="middle" x="497" y="-651.5" font-family="Helvetica,sans-Serif" font-size="10.00">::MatchNotOf&lt; ArgT &gt;</text>
</a>
</g>
</g>
<!-- Node5&#45;&gt;Node8 -->
<g id="edge8" class="edge">
<title>Node5&#45;&gt;Node8</title>
<path fill="none" stroke="midnightblue" d="M359.96,-674.97C384.17,-672.22 410.73,-669.2 433.91,-666.56"/>
<polygon fill="midnightblue" stroke="midnightblue" points="359.28,-671.53 349.74,-676.14 360.07,-678.48 359.28,-671.53"/>
</g>
<!-- Node134 -->
<g id="node11" class="node">
<title>Node134</title>
<g id="a_node11"><a xlink:href="structCatch_1_1Matchers_1_1Impl_1_1MatcherMethod.html" target="_top" xlink:title=" ">
<polygon fill="white" stroke="black" points="15.5,-333.5 15.5,-363.5 143.5,-363.5 143.5,-333.5 15.5,-333.5"/>
<text text-anchor="start" x="23.5" y="-351.5" font-family="Helvetica,sans-Serif" font-size="10.00">Catch::Matchers::Impl</text>
<text text-anchor="middle" x="79.5" y="-340.5" font-family="Helvetica,sans-Serif" font-size="10.00">::MatcherMethod&lt; T &gt;</text>
</a>
</g>
</g>
<!-- Node135 -->
<g id="node12" class="node">
<title>Node135</title>
<g id="a_node12"><a xlink:href="structCatch_1_1Matchers_1_1Impl_1_1MatcherBase.html" target="_top" xlink:title=" ">
<polygon fill="white" stroke="black" points="222.5,-333.5 222.5,-363.5 345.5,-363.5 345.5,-333.5 222.5,-333.5"/>
<text text-anchor="start" x="230.5" y="-351.5" font-family="Helvetica,sans-Serif" font-size="10.00">Catch::Matchers::Impl</text>
<text text-anchor="middle" x="284" y="-340.5" font-family="Helvetica,sans-Serif" font-size="10.00">::MatcherBase&lt; T &gt;</text>
</a>
</g>
</g>
<!-- Node134&#45;&gt;Node135 -->
<g id="edge10" class="edge">
<title>Node134&#45;&gt;Node135</title>
<path fill="none" stroke="midnightblue" d="M153.9,-348.5C176.36,-348.5 200.8,-348.5 222.32,-348.5"/>
<polygon fill="midnightblue" stroke="midnightblue" points="153.74,-345 143.74,-348.5 153.74,-352 153.74,-345"/>
</g>
<!-- Node136 -->
<g id="node13" class="node">
<title>Node136</title>
<g id="a_node13"><a xlink:href="classCatch_1_1Matchers_1_1Exception_1_1ExceptionMessageMatcher.html" target="_top" xlink:title=" ">
<polygon fill="white" stroke="black" points="420,-98.5 420,-128.5 574,-128.5 574,-98.5 420,-98.5"/>
<text text-anchor="start" x="428" y="-116.5" font-family="Helvetica,sans-Serif" font-size="10.00">Catch::Matchers::Exception</text>
<text text-anchor="middle" x="497" y="-105.5" font-family="Helvetica,sans-Serif" font-size="10.00">::ExceptionMessageMatcher</text>
</a>
</g>
</g>
<!-- Node135&#45;&gt;Node136 -->
<g id="edge11" class="edge">
<title>Node135&#45;&gt;Node136</title>
<path fill="none" stroke="midnightblue" d="M292.73,-323.81C307.79,-279.8 345.3,-187.8 409,-138.5 413.97,-134.65 419.51,-131.4 425.33,-128.64"/>
<polygon fill="midnightblue" stroke="midnightblue" points="289.37,-322.83 289.54,-333.42 296.01,-325.04 289.37,-322.83"/>
</g>
<!-- Node137 -->
<g id="node14" class="node">
<title>Node137</title>
<g id="a_node14"><a xlink:href="structCatch_1_1Matchers_1_1Floating_1_1WithinAbsMatcher.html" target="_top" xlink:title=" ">
<polygon fill="white" stroke="black" points="426.5,-49.5 426.5,-79.5 567.5,-79.5 567.5,-49.5 426.5,-49.5"/>
<text text-anchor="start" x="434.5" y="-67.5" font-family="Helvetica,sans-Serif" font-size="10.00">Catch::Matchers::Floating</text>
<text text-anchor="middle" x="497" y="-56.5" font-family="Helvetica,sans-Serif" font-size="10.00">::WithinAbsMatcher</text>
</a>
</g>
</g>
<!-- Node135&#45;&gt;Node137 -->
<g id="edge12" class="edge">
<title>Node135&#45;&gt;Node137</title>
<path fill="none" stroke="midnightblue" d="M289.77,-323.14C300.92,-271.05 333.67,-151.62 409,-88.5 414.16,-84.17 420.05,-80.62 426.26,-77.71"/>
<polygon fill="midnightblue" stroke="midnightblue" points="286.29,-322.69 287.71,-333.19 293.15,-324.09 286.29,-322.69"/>
</g>
<!-- Node138 -->
<g id="node15" class="node">
<title>Node138</title>
<g id="a_node15"><a xlink:href="structCatch_1_1Matchers_1_1Floating_1_1WithinRelMatcher.html" target="_top" xlink:title=" ">
<polygon fill="white" stroke="black" points="426.5,-0.5 426.5,-30.5 567.5,-30.5 567.5,-0.5 426.5,-0.5"/>
<text text-anchor="start" x="434.5" y="-18.5" font-family="Helvetica,sans-Serif" font-size="10.00">Catch::Matchers::Floating</text>
<text text-anchor="middle" x="497" y="-7.5" font-family="Helvetica,sans-Serif" font-size="10.00">::WithinRelMatcher</text>
</a>
</g>
</g>
<!-- Node135&#45;&gt;Node138 -->
<g id="edge13" class="edge">
<title>Node135&#45;&gt;Node138</title>
<path fill="none" stroke="midnightblue" d="M287.66,-323.01C295.19,-264 322.14,-117.11 409,-39.5 414.14,-34.91 420.09,-31.18 426.4,-28.17"/>
<polygon fill="midnightblue" stroke="midnightblue" points="284.14,-322.94 286.43,-333.28 291.09,-323.77 284.14,-322.94"/>
</g>
<!-- Node139 -->
<g id="node16" class="node">
<title>Node139</title>
<g id="a_node16"><a xlink:href="structCatch_1_1Matchers_1_1Floating_1_1WithinUlpsMatcher.html" target="_top" xlink:title=" ">
<polygon fill="white" stroke="black" points="426.5,-595.5 426.5,-625.5 567.5,-625.5 567.5,-595.5 426.5,-595.5"/>
<text text-anchor="start" x="434.5" y="-613.5" font-family="Helvetica,sans-Serif" font-size="10.00">Catch::Matchers::Floating</text>
<text text-anchor="middle" x="497" y="-602.5" font-family="Helvetica,sans-Serif" font-size="10.00">::WithinUlpsMatcher</text>
</a>
</g>
</g>
<!-- Node135&#45;&gt;Node139 -->
<g id="edge14" class="edge">
<title>Node135&#45;&gt;Node139</title>
<path fill="none" stroke="midnightblue" d="M309.28,-370.77C329.15,-390.26 356.55,-420.27 373,-451.5 401.74,-506.06 365.77,-541.52 409,-585.5 413.96,-590.54 419.86,-594.59 426.22,-597.83"/>
<polygon fill="midnightblue" stroke="midnightblue" points="311.45,-367.99 301.81,-363.58 306.59,-373.04 311.45,-367.99"/>
</g>
<!-- Node140 -->
<g id="node17" class="node">
<title>Node140</title>
<g id="a_node17"><a xlink:href="classCatch_1_1Matchers_1_1Generic_1_1PredicateMatcher.html" target="_top" xlink:title=" ">
<polygon fill="white" stroke="black" points="427.5,-546.5 427.5,-576.5 566.5,-576.5 566.5,-546.5 427.5,-546.5"/>
<text text-anchor="start" x="435.5" y="-564.5" font-family="Helvetica,sans-Serif" font-size="10.00">Catch::Matchers::Generic</text>
<text text-anchor="middle" x="497" y="-553.5" font-family="Helvetica,sans-Serif" font-size="10.00">::PredicateMatcher&lt; T &gt;</text>
</a>
</g>
</g>
<!-- Node135&#45;&gt;Node140 -->
<g id="edge15" class="edge">
<title>Node135&#45;&gt;Node140</title>
<path fill="none" stroke="midnightblue" d="M307.86,-371.04C327.08,-390.9 354.33,-421.3 373,-451.5 394.58,-486.39 378.29,-509.29 409,-536.5 414.41,-541.29 420.69,-545.17 427.34,-548.31"/>
<polygon fill="midnightblue" stroke="midnightblue" points="310.17,-368.4 300.67,-363.71 305.17,-373.3 310.17,-368.4"/>
</g>
<!-- Node141 -->
<g id="node18" class="node">
<title>Node141</title>
<g id="a_node18"><a xlink:href="structCatch_1_1Matchers_1_1StdString_1_1RegexMatcher.html" target="_top" xlink:title=" ">
<polygon fill="white" stroke="black" points="424,-497.5 424,-527.5 570,-527.5 570,-497.5 424,-497.5"/>
<text text-anchor="start" x="432" y="-515.5" font-family="Helvetica,sans-Serif" font-size="10.00">Catch::Matchers::StdString</text>
<text text-anchor="middle" x="497" y="-504.5" font-family="Helvetica,sans-Serif" font-size="10.00">::RegexMatcher</text>
</a>
</g>
</g>
<!-- Node135&#45;&gt;Node141 -->
<g id="edge16" class="edge">
<title>Node135&#45;&gt;Node141</title>
<path fill="none" stroke="midnightblue" d="M304.21,-371.4C335.72,-408.74 396.18,-479.44 409,-487.5 415.12,-491.35 421.85,-494.62 428.77,-497.4"/>
<polygon fill="midnightblue" stroke="midnightblue" points="306.71,-368.93 297.59,-363.54 301.36,-373.44 306.71,-368.93"/>
</g>
<!-- Node142 -->
<g id="node19" class="node">
<title>Node142</title>
<g id="a_node19"><a xlink:href="structCatch_1_1Matchers_1_1StdString_1_1StringMatcherBase.html" target="_top" xlink:title=" ">
<polygon fill="white" stroke="black" points="424,-448.5 424,-478.5 570,-478.5 570,-448.5 424,-448.5"/>
<text text-anchor="start" x="432" y="-466.5" font-family="Helvetica,sans-Serif" font-size="10.00">Catch::Matchers::StdString</text>
<text text-anchor="middle" x="497" y="-455.5" font-family="Helvetica,sans-Serif" font-size="10.00">::StringMatcherBase</text>
</a>
</g>
</g>
<!-- Node135&#45;&gt;Node142 -->
<g id="edge17" class="edge">
<title>Node135&#45;&gt;Node142</title>
<path fill="none" stroke="midnightblue" d="M309.66,-370.43C333.55,-390.66 371.57,-420.24 409,-438.5 416.77,-442.29 425.21,-445.6 433.69,-448.47"/>
<polygon fill="midnightblue" stroke="midnightblue" points="311.69,-367.56 301.82,-363.7 307.13,-372.87 311.69,-367.56"/>
</g>
<!-- Node147 -->
<g id="node24" class="node">
<title>Node147</title>
<g id="a_node24"><a xlink:href="structCatch_1_1Matchers_1_1Vector_1_1ApproxMatcher.html" target="_top" xlink:title=" ">
<polygon fill="white" stroke="black" points="409,-388 409,-429 585,-429 585,-388 409,-388"/>
<text text-anchor="start" x="417" y="-417" font-family="Helvetica,sans-Serif" font-size="10.00">Catch::Matchers::Vector</text>
<text text-anchor="start" x="417" y="-406" font-family="Helvetica,sans-Serif" font-size="10.00">::ApproxMatcher&lt; T, AllocComp,</text>
<text text-anchor="middle" x="497" y="-395" font-family="Helvetica,sans-Serif" font-size="10.00"> AllocMatch &gt;</text>
</a>
</g>
</g>
<!-- Node135&#45;&gt;Node147 -->
<g id="edge22" class="edge">
<title>Node135&#45;&gt;Node147</title>
<path fill="none" stroke="midnightblue" d="M347.65,-366.32C371.6,-373.13 399.1,-380.95 423.87,-387.99"/>
<polygon fill="midnightblue" stroke="midnightblue" points="348.55,-362.93 337.97,-363.56 346.63,-369.66 348.55,-362.93"/>
</g>
<!-- Node148 -->
<g id="node25" class="node">
<title>Node148</title>
<g id="a_node25"><a xlink:href="structCatch_1_1Matchers_1_1Vector_1_1ContainsElementMatcher.html" target="_top" xlink:title=" ">
<polygon fill="white" stroke="black" points="424,-328 424,-369 570,-369 570,-328 424,-328"/>
<text text-anchor="start" x="432" y="-357" font-family="Helvetica,sans-Serif" font-size="10.00">Catch::Matchers::Vector</text>
<text text-anchor="start" x="432" y="-346" font-family="Helvetica,sans-Serif" font-size="10.00">::ContainsElementMatcher</text>
<text text-anchor="middle" x="497" y="-335" font-family="Helvetica,sans-Serif" font-size="10.00">&lt; T, Alloc &gt;</text>
</a>
</g>
</g>
<!-- Node135&#45;&gt;Node148 -->
<g id="edge23" class="edge">
<title>Node135&#45;&gt;Node148</title>
<path fill="none" stroke="midnightblue" d="M355.94,-348.5C377.77,-348.5 401.82,-348.5 423.74,-348.5"/>
<polygon fill="midnightblue" stroke="midnightblue" points="355.75,-345 345.75,-348.5 355.75,-352 355.75,-345"/>
</g>
<!-- Node149 -->
<g id="node26" class="node">
<title>Node149</title>
<g id="a_node26"><a xlink:href="structCatch_1_1Matchers_1_1Vector_1_1ContainsMatcher.html" target="_top" xlink:title=" ">
<polygon fill="white" stroke="black" points="425.5,-268 425.5,-309 568.5,-309 568.5,-268 425.5,-268"/>
<text text-anchor="start" x="433.5" y="-297" font-family="Helvetica,sans-Serif" font-size="10.00">Catch::Matchers::Vector</text>
<text text-anchor="start" x="433.5" y="-286" font-family="Helvetica,sans-Serif" font-size="10.00">::ContainsMatcher&lt; T,</text>
<text text-anchor="middle" x="497" y="-275" font-family="Helvetica,sans-Serif" font-size="10.00"> AllocComp, AllocMatch &gt;</text>
</a>
</g>
</g>
<!-- Node135&#45;&gt;Node149 -->
<g id="edge24" class="edge">
<title>Node135&#45;&gt;Node149</title>
<path fill="none" stroke="midnightblue" d="M347.84,-330.63C372.26,-323.69 400.34,-315.7 425.45,-308.56"/>
<polygon fill="midnightblue" stroke="midnightblue" points="346.63,-327.34 337.97,-333.44 348.55,-334.07 346.63,-327.34"/>
</g>
<!-- Node150 -->
<g id="node27" class="node">
<title>Node150</title>
<g id="a_node27"><a xlink:href="structCatch_1_1Matchers_1_1Vector_1_1EqualsMatcher.html" target="_top" xlink:title=" ">
<polygon fill="white" stroke="black" points="410.5,-208 410.5,-249 583.5,-249 583.5,-208 410.5,-208"/>
<text text-anchor="start" x="418.5" y="-237" font-family="Helvetica,sans-Serif" font-size="10.00">Catch::Matchers::Vector</text>
<text text-anchor="start" x="418.5" y="-226" font-family="Helvetica,sans-Serif" font-size="10.00">::EqualsMatcher&lt; T, AllocComp,</text>
<text text-anchor="middle" x="497" y="-215" font-family="Helvetica,sans-Serif" font-size="10.00"> AllocMatch &gt;</text>
</a>
</g>
</g>
<!-- Node135&#45;&gt;Node150 -->
<g id="edge25" class="edge">
<title>Node135&#45;&gt;Node150</title>
<path fill="none" stroke="midnightblue" d="M310.29,-326.67C334.37,-306.76 372.27,-277.62 409,-258.5 415.52,-255.11 422.5,-251.96 429.58,-249.09"/>
<polygon fill="midnightblue" stroke="midnightblue" points="307.8,-324.19 302.38,-333.29 312.29,-329.56 307.8,-324.19"/>
</g>
<!-- Node151 -->
<g id="node28" class="node">
<title>Node151</title>
<g id="a_node28"><a xlink:href="structCatch_1_1Matchers_1_1Vector_1_1UnorderedEqualsMatcher.html" target="_top" xlink:title=" ">
<polygon fill="white" stroke="black" points="415,-148 415,-189 579,-189 579,-148 415,-148"/>
<text text-anchor="start" x="423" y="-177" font-family="Helvetica,sans-Serif" font-size="10.00">Catch::Matchers::Vector</text>
<text text-anchor="start" x="423" y="-166" font-family="Helvetica,sans-Serif" font-size="10.00">::UnorderedEqualsMatcher</text>
<text text-anchor="middle" x="497" y="-155" font-family="Helvetica,sans-Serif" font-size="10.00">&lt; T, AllocComp, AllocMatch &gt;</text>
</a>
</g>
</g>
<!-- Node135&#45;&gt;Node151 -->
<g id="edge26" class="edge">
<title>Node135&#45;&gt;Node151</title>
<path fill="none" stroke="midnightblue" d="M298.93,-324.46C319.17,-291.55 359.71,-232.66 409,-198.5 413.99,-195.04 419.42,-191.95 425.04,-189.19"/>
<polygon fill="midnightblue" stroke="midnightblue" points="295.71,-323.03 293.54,-333.4 301.7,-326.64 295.71,-323.03"/>
</g>
<!-- Node143 -->
<g id="node20" class="node">
<title>Node143</title>
<g id="a_node20"><a xlink:href="structCatch_1_1Matchers_1_1StdString_1_1ContainsMatcher.html" target="_top" xlink:title=" ">
<polygon fill="white" stroke="black" points="621,-521.5 621,-551.5 767,-551.5 767,-521.5 621,-521.5"/>
<text text-anchor="start" x="629" y="-539.5" font-family="Helvetica,sans-Serif" font-size="10.00">Catch::Matchers::StdString</text>
<text text-anchor="middle" x="694" y="-528.5" font-family="Helvetica,sans-Serif" font-size="10.00">::ContainsMatcher</text>
</a>
</g>
</g>
<!-- Node142&#45;&gt;Node143 -->
<g id="edge18" class="edge">
<title>Node142&#45;&gt;Node143</title>
<path fill="none" stroke="midnightblue" d="M571.57,-481.97C576.17,-483.69 580.68,-485.53 585,-487.5 602.49,-495.49 603.78,-502.94 621,-511.5 628.35,-515.15 636.36,-518.5 644.28,-521.48"/>
<polygon fill="midnightblue" stroke="midnightblue" points="572.63,-478.64 562.04,-478.63 570.32,-485.24 572.63,-478.64"/>
</g>
<!-- Node144 -->
<g id="node21" class="node">
<title>Node144</title>
<g id="a_node21"><a xlink:href="structCatch_1_1Matchers_1_1StdString_1_1EndsWithMatcher.html" target="_top" xlink:title=" ">
<polygon fill="white" stroke="black" points="621,-472.5 621,-502.5 767,-502.5 767,-472.5 621,-472.5"/>
<text text-anchor="start" x="629" y="-490.5" font-family="Helvetica,sans-Serif" font-size="10.00">Catch::Matchers::StdString</text>
<text text-anchor="middle" x="694" y="-479.5" font-family="Helvetica,sans-Serif" font-size="10.00">::EndsWithMatcher</text>
</a>
</g>
</g>
<!-- Node142&#45;&gt;Node144 -->
<g id="edge19" class="edge">
<title>Node142&#45;&gt;Node144</title>
<path fill="none" stroke="midnightblue" d="M580.29,-473.63C593.79,-475.29 607.69,-477 620.91,-478.63"/>
<polygon fill="midnightblue" stroke="midnightblue" points="580.41,-470.12 570.06,-472.37 579.55,-477.06 580.41,-470.12"/>
</g>
<!-- Node145 -->
<g id="node22" class="node">
<title>Node145</title>
<g id="a_node22"><a xlink:href="structCatch_1_1Matchers_1_1StdString_1_1EqualsMatcher.html" target="_top" xlink:title=" ">
<polygon fill="white" stroke="black" points="621,-423.5 621,-453.5 767,-453.5 767,-423.5 621,-423.5"/>
<text text-anchor="start" x="629" y="-441.5" font-family="Helvetica,sans-Serif" font-size="10.00">Catch::Matchers::StdString</text>
<text text-anchor="middle" x="694" y="-430.5" font-family="Helvetica,sans-Serif" font-size="10.00">::EqualsMatcher</text>
</a>
</g>
</g>
<!-- Node142&#45;&gt;Node145 -->
<g id="edge20" class="edge">
<title>Node142&#45;&gt;Node145</title>
<path fill="none" stroke="midnightblue" d="M580.29,-452.95C593.79,-451.22 607.69,-449.44 620.91,-447.74"/>
<polygon fill="midnightblue" stroke="midnightblue" points="579.53,-449.52 570.06,-454.26 580.42,-456.46 579.53,-449.52"/>
</g>
<!-- Node146 -->
<g id="node23" class="node">
<title>Node146</title>
<g id="a_node23"><a xlink:href="structCatch_1_1Matchers_1_1StdString_1_1StartsWithMatcher.html" target="_top" xlink:title=" ">
<polygon fill="white" stroke="black" points="621,-374.5 621,-404.5 767,-404.5 767,-374.5 621,-374.5"/>
<text text-anchor="start" x="629" y="-392.5" font-family="Helvetica,sans-Serif" font-size="10.00">Catch::Matchers::StdString</text>
<text text-anchor="middle" x="694" y="-381.5" font-family="Helvetica,sans-Serif" font-size="10.00">::StartsWithMatcher</text>
</a>
</g>
</g>
<!-- Node142&#45;&gt;Node146 -->
<g id="edge21" class="edge">
<title>Node142&#45;&gt;Node146</title>
<path fill="none" stroke="midnightblue" d="M569.46,-445.05C574.8,-443.04 580.03,-440.86 585,-438.5 602.6,-430.14 603.58,-422.22 621,-413.5 627.6,-410.2 634.75,-407.19 641.91,-404.51"/>
<polygon fill="midnightblue" stroke="midnightblue" points="568.03,-441.84 559.78,-448.48 570.37,-448.44 568.03,-441.84"/>
</g>
<!-- Node152 -->
<g id="node29" class="node">
<title>Node152</title>
<g id="a_node29"><a xlink:href="classCatch_1_1Matchers_1_1Impl_1_1MatcherUntypedBase.html" target="_top" xlink:title=" ">
<polygon fill="white" stroke="black" points="15.5,-570.5 15.5,-600.5 143.5,-600.5 143.5,-570.5 15.5,-570.5"/>
<text text-anchor="start" x="23.5" y="-588.5" font-family="Helvetica,sans-Serif" font-size="10.00">Catch::Matchers::Impl</text>
<text text-anchor="middle" x="79.5" y="-577.5" font-family="Helvetica,sans-Serif" font-size="10.00">::MatcherUntypedBase</text>
</a>
</g>
</g>
<!-- Node152&#45;&gt;Node1 -->
<g id="edge27" class="edge">
<title>Node152&#45;&gt;Node1</title>
<path fill="none" stroke="midnightblue" d="M153.94,-585.5C173.15,-585.5 193.81,-585.5 212.85,-585.5"/>
<polygon fill="midnightblue" stroke="midnightblue" points="153.74,-582 143.74,-585.5 153.74,-589 153.74,-582"/>
</g>
<!-- Node152&#45;&gt;Node2 -->
<g id="edge28" class="edge">
<title>Node152&#45;&gt;Node2</title>
<path fill="none" stroke="midnightblue" d="M152.42,-568.1C174.83,-562.68 199.32,-556.75 220.98,-551.51"/>
<polygon fill="midnightblue" stroke="midnightblue" points="151.53,-564.71 142.63,-570.47 153.18,-571.52 151.53,-564.71"/>
</g>
<!-- Node152&#45;&gt;Node3 -->
<g id="edge29" class="edge">
<title>Node152&#45;&gt;Node3</title>
<path fill="none" stroke="midnightblue" d="M109.09,-564.19C131.58,-548.15 164.16,-526.44 195,-511.5 201.97,-508.12 209.42,-504.96 216.93,-502.04"/>
<polygon fill="midnightblue" stroke="midnightblue" points="106.76,-561.56 100.7,-570.26 110.86,-567.24 106.76,-561.56"/>
</g>
<!-- Node152&#45;&gt;Node4 -->
<g id="edge30" class="edge">
<title>Node152&#45;&gt;Node4</title>
<path fill="none" stroke="midnightblue" d="M152.78,-604.38C154.97,-605.95 157.06,-607.65 159,-609.5 192.96,-641.73 161.56,-675.73 195,-708.5 199.27,-712.68 204.14,-716.28 209.35,-719.38"/>
<polygon fill="midnightblue" stroke="midnightblue" points="154.23,-601.16 143.87,-598.93 150.58,-607.13 154.23,-601.16"/>
</g>
<!-- Node152&#45;&gt;Node5 -->
<g id="edge31" class="edge">
<title>Node152&#45;&gt;Node5</title>
<path fill="none" stroke="midnightblue" d="M152.32,-605.23C154.63,-606.56 156.86,-607.99 159,-609.5 181.04,-625.13 172.8,-643.09 195,-658.5 202.04,-663.39 210.03,-667.33 218.25,-670.51"/>
<polygon fill="midnightblue" stroke="midnightblue" points="153.62,-601.96 143.12,-600.51 150.42,-608.19 153.62,-601.96"/>
</g>
<!-- Node152&#45;&gt;Node9 -->
<g id="edge32" class="edge">
<title>Node152&#45;&gt;Node9</title>
<path fill="none" stroke="midnightblue" d="M152.42,-602.9C174.83,-608.32 199.32,-614.25 220.98,-619.49"/>
<polygon fill="midnightblue" stroke="midnightblue" points="153.18,-599.48 142.63,-600.53 151.53,-606.29 153.18,-599.48"/>
</g>
<!-- Node152&#45;&gt;Node135 -->
<g id="edge33" class="edge">
<title>Node152&#45;&gt;Node135</title>
<path fill="none" stroke="midnightblue" d="M100.06,-562.61C141.19,-514.48 235.68,-403.88 270.13,-363.56"/>
<polygon fill="midnightblue" stroke="midnightblue" points="97.31,-560.44 93.48,-570.31 102.63,-564.98 97.31,-560.44"/>
</g>
</g>
</svg>
