<?xml version="1.0" encoding="UTF-8" standalone="no"?>
<!DOCTYPE svg PUBLIC "-//W3C//DTD SVG 1.1//EN"
 "http://www.w3.org/Graphics/SVG/1.1/DTD/svg11.dtd">
<!-- Generated by graphviz version 2.43.0 (0)
 -->
<!-- Title: Graphical Class Hierarchy Pages: 1 -->
<svg width="277pt" height="110pt"
 viewBox="0.00 0.00 277.00 110.00" xmlns="http://www.w3.org/2000/svg" xmlns:xlink="http://www.w3.org/1999/xlink">
<g id="graph0" class="graph" transform="scale(1 1) rotate(0) translate(4 106)">
<title>Graphical Class Hierarchy</title>
<polygon fill="white" stroke="transparent" points="-4,4 -4,-106 273,-106 273,4 -4,4"/>
<!-- Node281 -->
<g id="node1" class="node">
<title>Node281</title>
<g id="a_node1"><a xlink:title=" ">
<polygon fill="white" stroke="#bfbfbf" points="0,-36 0,-55 84,-55 84,-36 0,-36"/>
<text text-anchor="middle" x="42" y="-43" font-family="Helvetica,sans-Serif" font-size="10.00">std::true_type</text>
</a>
</g>
</g>
<!-- Node0 -->
<g id="node2" class="node">
<title>Node0</title>
<g id="a_node2"><a xlink:href="structCatch_1_1detail_1_1is__range__impl_3_01T_00_01typename_01void__type_3_01decltype_07begin_0efe009a05f00a00c1e4e06989d122a22.html" target="_top" xlink:title=" ">
<polygon fill="white" stroke="black" points="120,-49.5 120,-101.5 269,-101.5 269,-49.5 120,-49.5"/>
<text text-anchor="start" x="128" y="-89.5" font-family="Helvetica,sans-Serif" font-size="10.00">Catch::detail::is_range</text>
<text text-anchor="start" x="128" y="-78.5" font-family="Helvetica,sans-Serif" font-size="10.00">_impl&lt; T, typename void</text>
<text text-anchor="start" x="128" y="-67.5" font-family="Helvetica,sans-Serif" font-size="10.00">_type&lt; decltype(begin(std</text>
<text text-anchor="middle" x="194.5" y="-56.5" font-family="Helvetica,sans-Serif" font-size="10.00">::declval&lt; T &gt;()))&gt;::type &gt;</text>
</a>
</g>
</g>
<!-- Node281&#45;&gt;Node0 -->
<g id="edge1" class="edge">
<title>Node281&#45;&gt;Node0</title>
<path fill="none" stroke="midnightblue" d="M93.99,-55.66C102.28,-57.32 111.02,-59.06 119.72,-60.79"/>
<polygon fill="midnightblue" stroke="midnightblue" points="94.62,-52.22 84.12,-53.7 93.25,-59.09 94.62,-52.22"/>
</g>
<!-- Node283 -->
<g id="node3" class="node">
<title>Node283</title>
<g id="a_node3"><a xlink:href="structCatch_1_1true__given.html" target="_top" xlink:title=" ">
<polygon fill="white" stroke="black" points="139.5,-0.5 139.5,-30.5 249.5,-30.5 249.5,-0.5 139.5,-0.5"/>
<text text-anchor="start" x="147.5" y="-18.5" font-family="Helvetica,sans-Serif" font-size="10.00">Catch::true_given&lt;</text>
<text text-anchor="middle" x="194.5" y="-7.5" font-family="Helvetica,sans-Serif" font-size="10.00"> typename &gt;</text>
</a>
</g>
</g>
<!-- Node281&#45;&gt;Node283 -->
<g id="edge2" class="edge">
<title>Node281&#45;&gt;Node283</title>
<path fill="none" stroke="midnightblue" d="M94,-35.33C108.63,-32.42 124.63,-29.23 139.43,-26.28"/>
<polygon fill="midnightblue" stroke="midnightblue" points="93.25,-31.91 84.12,-37.3 94.62,-38.78 93.25,-31.91"/>
</g>
</g>
</svg>
