<?xml version="1.0" encoding="UTF-8" standalone="no"?>
<!DOCTYPE svg PUBLIC "-//W3C//DTD SVG 1.1//EN"
 "http://www.w3.org/Graphics/SVG/1.1/DTD/svg11.dtd">
<!-- Generated by graphviz version 2.43.0 (0)
 -->
<!-- Title: src/cells/IntCell.cpp Pages: 1 -->
<svg width="2007pt" height="420pt"
 viewBox="0.00 0.00 2007.19 420.00" xmlns="http://www.w3.org/2000/svg" xmlns:xlink="http://www.w3.org/1999/xlink">
<g id="graph0" class="graph" transform="scale(1 1) rotate(0) translate(4 416)">
<title>src/cells/IntCell.cpp</title>
<polygon fill="white" stroke="transparent" points="-4,4 -4,-416 2003.19,-416 2003.19,4 -4,4"/>
<!-- Node1 -->
<g id="node1" class="node">
<title>Node1</title>
<g id="a_node1"><a xlink:title="This file defines the class IntCell.">
<polygon fill="#bfbfbf" stroke="black" points="726.5,-392.5 726.5,-411.5 837.5,-411.5 837.5,-392.5 726.5,-392.5"/>
<text text-anchor="middle" x="782" y="-399.5" font-family="Helvetica,sans-Serif" font-size="10.00">src/cells/IntCell.cpp</text>
</a>
</g>
</g>
<!-- Node2 -->
<g id="node2" class="node">
<title>Node2</title>
<g id="a_node2"><a xlink:href="IntCell_8h.html" target="_top" xlink:title="This file declares the class IntCell.">
<polygon fill="white" stroke="black" points="714.5,-336.5 714.5,-355.5 771.5,-355.5 771.5,-336.5 714.5,-336.5"/>
<text text-anchor="middle" x="743" y="-343.5" font-family="Helvetica,sans-Serif" font-size="10.00">IntCell.h</text>
</a>
</g>
</g>
<!-- Node1&#45;&gt;Node2 -->
<g id="edge1" class="edge">
<title>Node1&#45;&gt;Node2</title>
<path fill="none" stroke="midnightblue" d="M775.56,-392.08C770.05,-384.46 761.97,-373.26 755.24,-363.94"/>
<polygon fill="midnightblue" stroke="midnightblue" points="758.01,-361.81 749.32,-355.75 752.34,-365.91 758.01,-361.81"/>
</g>
<!-- Node9 -->
<g id="node9" class="node">
<title>Node9</title>
<g id="a_node9"><a xlink:title=" ">
<polygon fill="white" stroke="#bfbfbf" points="1120.5,-56.5 1120.5,-75.5 1165.5,-75.5 1165.5,-56.5 1120.5,-56.5"/>
<text text-anchor="middle" x="1143" y="-63.5" font-family="Helvetica,sans-Serif" font-size="10.00">utility</text>
</a>
</g>
</g>
<!-- Node1&#45;&gt;Node9 -->
<g id="edge85" class="edge">
<title>Node1&#45;&gt;Node9</title>
<path fill="none" stroke="midnightblue" d="M837.76,-400.71C1046.93,-398.91 1773,-385.83 1773,-291 1773,-291 1773,-291 1773,-233 1773,-202.9 1776.12,-188.41 1754,-168 1663.6,-84.61 1604.26,-132.53 1483,-112 1424.11,-102.03 1248.69,-80.05 1175.57,-71.01"/>
<polygon fill="midnightblue" stroke="midnightblue" points="1175.9,-67.52 1165.55,-69.77 1175.04,-74.47 1175.9,-67.52"/>
</g>
<!-- Node13 -->
<g id="node13" class="node">
<title>Node13</title>
<g id="a_node13"><a xlink:title=" ">
<polygon fill="white" stroke="#bfbfbf" points="283,-56.5 283,-75.5 341,-75.5 341,-56.5 283,-56.5"/>
<text text-anchor="middle" x="312" y="-63.5" font-family="Helvetica,sans-Serif" font-size="10.00">memory</text>
</a>
</g>
</g>
<!-- Node1&#45;&gt;Node13 -->
<g id="edge84" class="edge">
<title>Node1&#45;&gt;Node13</title>
<path fill="none" stroke="midnightblue" d="M726.32,-400.35C596.37,-397.34 284,-380.76 284,-291 284,-291 284,-291 284,-177 284,-143.79 296.13,-106.63 304.43,-85.12"/>
<polygon fill="midnightblue" stroke="midnightblue" points="307.75,-86.23 308.22,-75.65 301.25,-83.63 307.75,-86.23"/>
</g>
<!-- Node50 -->
<g id="node47" class="node">
<title>Node50</title>
<g id="a_node47"><a xlink:href="CellImpl_8h.html" target="_top" xlink:title="Macros and types used only by cell implementations, not by cell users.">
<polygon fill="white" stroke="black" points="491,-280.5 491,-299.5 557,-299.5 557,-280.5 491,-280.5"/>
<text text-anchor="middle" x="524" y="-287.5" font-family="Helvetica,sans-Serif" font-size="10.00">CellImpl.h</text>
</a>
</g>
</g>
<!-- Node1&#45;&gt;Node50 -->
<g id="edge79" class="edge">
<title>Node1&#45;&gt;Node50</title>
<path fill="none" stroke="midnightblue" d="M761.76,-392.37C716.45,-373.05 606.7,-326.26 553.67,-303.65"/>
<polygon fill="midnightblue" stroke="midnightblue" points="554.72,-300.29 544.15,-299.59 551.98,-306.73 554.72,-300.29"/>
</g>
<!-- Node51 -->
<g id="node48" class="node">
<title>Node51</title>
<g id="a_node48"><a xlink:href="TextCell_8h_source.html" target="_top" xlink:title=" ">
<polygon fill="white" stroke="black" points="789.5,-336.5 789.5,-355.5 854.5,-355.5 854.5,-336.5 789.5,-336.5"/>
<text text-anchor="middle" x="822" y="-343.5" font-family="Helvetica,sans-Serif" font-size="10.00">TextCell.h</text>
</a>
</g>
</g>
<!-- Node1&#45;&gt;Node51 -->
<g id="edge81" class="edge">
<title>Node1&#45;&gt;Node51</title>
<path fill="none" stroke="midnightblue" d="M788.61,-392.08C794.26,-384.46 802.54,-373.26 809.45,-363.94"/>
<polygon fill="midnightblue" stroke="midnightblue" points="812.38,-365.87 815.52,-355.75 806.75,-361.7 812.38,-365.87"/>
</g>
<!-- Node53 -->
<g id="node50" class="node">
<title>Node53</title>
<g id="a_node50"><a xlink:title=" ">
<polygon fill="white" stroke="#bfbfbf" points="1801,-336.5 1801,-355.5 1883,-355.5 1883,-336.5 1801,-336.5"/>
<text text-anchor="middle" x="1842" y="-343.5" font-family="Helvetica,sans-Serif" font-size="10.00">intSign_svg.h</text>
</a>
</g>
</g>
<!-- Node1&#45;&gt;Node53 -->
<g id="edge86" class="edge">
<title>Node1&#45;&gt;Node53</title>
<path fill="none" stroke="midnightblue" d="M837.73,-400.8C990.14,-399.75 1426.53,-393.43 1787,-356 1788.27,-355.87 1789.56,-355.73 1790.86,-355.57"/>
<polygon fill="midnightblue" stroke="midnightblue" points="1791.46,-359.03 1800.93,-354.26 1790.56,-352.08 1791.46,-359.03"/>
</g>
<!-- Node3 -->
<g id="node3" class="node">
<title>Node3</title>
<g id="a_node3"><a xlink:href="Cell_8h.html" target="_top" xlink:title="The definition of the base class of all cells the worksheet consists of.">
<polygon fill="white" stroke="black" points="722,-280.5 722,-299.5 766,-299.5 766,-280.5 722,-280.5"/>
<text text-anchor="middle" x="744" y="-287.5" font-family="Helvetica,sans-Serif" font-size="10.00">Cell.h</text>
</a>
</g>
</g>
<!-- Node2&#45;&gt;Node3 -->
<g id="edge2" class="edge">
<title>Node2&#45;&gt;Node3</title>
<path fill="none" stroke="midnightblue" d="M743.17,-336.08C743.3,-329.01 743.48,-318.86 743.65,-309.99"/>
<polygon fill="midnightblue" stroke="midnightblue" points="747.15,-309.81 743.84,-299.75 740.15,-309.68 747.15,-309.81"/>
</g>
<!-- Node4 -->
<g id="node4" class="node">
<title>Node4</title>
<g id="a_node4"><a xlink:href="precomp_8h_source.html" target="_top" xlink:title=" ">
<polygon fill="white" stroke="black" points="1463.5,-56.5 1463.5,-75.5 1540.5,-75.5 1540.5,-56.5 1463.5,-56.5"/>
<text text-anchor="middle" x="1502" y="-63.5" font-family="Helvetica,sans-Serif" font-size="10.00">../precomp.h</text>
</a>
</g>
</g>
<!-- Node3&#45;&gt;Node4 -->
<g id="edge3" class="edge">
<title>Node3&#45;&gt;Node4</title>
<path fill="none" stroke="midnightblue" d="M766.22,-282.18C769.79,-281.31 773.48,-280.53 777,-280 1023.25,-242.99 1657.38,-311.77 1897,-244 1945.27,-230.35 1969.82,-231.39 1995,-188 2041.14,-108.5 1684.74,-78.22 1551.19,-69.73"/>
<polygon fill="midnightblue" stroke="midnightblue" points="1551.04,-66.22 1540.84,-69.09 1550.61,-73.2 1551.04,-66.22"/>
</g>
<!-- Node6 -->
<g id="node6" class="node">
<title>Node6</title>
<g id="a_node6"><a xlink:href="CellPtr_8h.html" target="_top" xlink:title="Implementation of an observing weak Cell pointer.">
<polygon fill="white" stroke="black" points="866.5,-112.5 866.5,-131.5 923.5,-131.5 923.5,-112.5 866.5,-112.5"/>
<text text-anchor="middle" x="895" y="-119.5" font-family="Helvetica,sans-Serif" font-size="10.00">CellPtr.h</text>
</a>
</g>
</g>
<!-- Node3&#45;&gt;Node6 -->
<g id="edge5" class="edge">
<title>Node3&#45;&gt;Node6</title>
<path fill="none" stroke="midnightblue" d="M745.12,-280.47C748.39,-258.87 759.81,-201.32 792,-168 801.92,-157.73 834.14,-144.5 859.94,-135.05"/>
<polygon fill="midnightblue" stroke="midnightblue" points="861.23,-138.31 869.45,-131.63 858.85,-131.72 861.23,-138.31"/>
</g>
<!-- Node3&#45;&gt;Node13 -->
<g id="edge76" class="edge">
<title>Node3&#45;&gt;Node13</title>
<path fill="none" stroke="midnightblue" d="M721.66,-283.34C693.59,-275.88 644.22,-261.62 604,-244 511.39,-203.43 491.67,-185.69 406,-132 379.85,-115.61 350.77,-95.14 331.98,-81.6"/>
<polygon fill="midnightblue" stroke="midnightblue" points="333.79,-78.59 323.64,-75.56 329.69,-84.26 333.79,-78.59"/>
</g>
<!-- Node14 -->
<g id="node14" class="node">
<title>Node14</title>
<g id="a_node14"><a xlink:title=" ">
<polygon fill="white" stroke="#bfbfbf" points="220.5,-0.5 220.5,-19.5 289.5,-19.5 289.5,-0.5 220.5,-0.5"/>
<text text-anchor="middle" x="255" y="-7.5" font-family="Helvetica,sans-Serif" font-size="10.00">type_traits</text>
</a>
</g>
</g>
<!-- Node3&#45;&gt;Node14 -->
<g id="edge78" class="edge">
<title>Node3&#45;&gt;Node14</title>
<path fill="none" stroke="midnightblue" d="M721.78,-285.78C686.09,-280.13 614.22,-266.84 557,-244 502.37,-222.19 290.16,-96.97 274,-76 263.69,-62.63 258.97,-43.8 256.81,-29.85"/>
<polygon fill="midnightblue" stroke="midnightblue" points="260.28,-29.4 255.57,-19.91 253.34,-30.26 260.28,-29.4"/>
</g>
<!-- Node15 -->
<g id="node15" class="node">
<title>Node15</title>
<g id="a_node15"><a xlink:href="CellIterators_8h.html" target="_top" xlink:title="Declares the various iterators useful with the Cell class.">
<polygon fill="white" stroke="black" points="0,-112.5 0,-131.5 86,-131.5 86,-112.5 0,-112.5"/>
<text text-anchor="middle" x="43" y="-119.5" font-family="Helvetica,sans-Serif" font-size="10.00">CellIterators.h</text>
</a>
</g>
</g>
<!-- Node3&#45;&gt;Node15 -->
<g id="edge14" class="edge">
<title>Node3&#45;&gt;Node15</title>
<path fill="none" stroke="midnightblue" d="M721.76,-287.87C641.95,-283.67 370.34,-267.9 287,-244 199.53,-218.92 105.68,-163.17 64.48,-137.03"/>
<polygon fill="midnightblue" stroke="midnightblue" points="66.36,-134.08 56.05,-131.64 62.59,-139.98 66.36,-134.08"/>
</g>
<!-- Node16 -->
<g id="node16" class="node">
<title>Node16</title>
<g id="a_node16"><a xlink:href="Configuration_8h_source.html" target="_top" xlink:title=" ">
<polygon fill="white" stroke="black" points="1058.5,-224.5 1058.5,-243.5 1149.5,-243.5 1149.5,-224.5 1058.5,-224.5"/>
<text text-anchor="middle" x="1104" y="-231.5" font-family="Helvetica,sans-Serif" font-size="10.00">Configuration.h</text>
</a>
</g>
</g>
<!-- Node3&#45;&gt;Node16 -->
<g id="edge18" class="edge">
<title>Node3&#45;&gt;Node16</title>
<path fill="none" stroke="midnightblue" d="M766.27,-282.51C769.84,-281.59 773.51,-280.71 777,-280 871.47,-260.7 983.01,-247.33 1048.37,-240.44"/>
<polygon fill="midnightblue" stroke="midnightblue" points="1048.88,-243.9 1058.46,-239.38 1048.15,-236.94 1048.88,-243.9"/>
</g>
<!-- Node24 -->
<g id="node24" class="node">
<title>Node24</title>
<g id="a_node24"><a xlink:href="TextStyle_8h.html" target="_top" xlink:title="This file declares everything needed for the text style system used to style all the elements on the ...">
<polygon fill="white" stroke="black" points="644.5,-168.5 644.5,-187.5 715.5,-187.5 715.5,-168.5 644.5,-168.5"/>
<text text-anchor="middle" x="680" y="-175.5" font-family="Helvetica,sans-Serif" font-size="10.00">TextStyle.h</text>
</a>
</g>
</g>
<!-- Node3&#45;&gt;Node24 -->
<g id="edge67" class="edge">
<title>Node3&#45;&gt;Node24</title>
<path fill="none" stroke="midnightblue" d="M738.98,-280.37C728.46,-262.3 703.96,-220.18 690.07,-196.31"/>
<polygon fill="midnightblue" stroke="midnightblue" points="693.05,-194.47 685,-187.59 687,-198 693.05,-194.47"/>
</g>
<!-- Node34 -->
<g id="node31" class="node">
<title>Node34</title>
<g id="a_node31"><a xlink:title=" ">
<polygon fill="white" stroke="#bfbfbf" points="359,-56.5 359,-75.5 423,-75.5 423,-56.5 359,-56.5"/>
<text text-anchor="middle" x="391" y="-63.5" font-family="Helvetica,sans-Serif" font-size="10.00">algorithm</text>
</a>
</g>
</g>
<!-- Node3&#45;&gt;Node34 -->
<g id="edge74" class="edge">
<title>Node3&#45;&gt;Node34</title>
<path fill="none" stroke="midnightblue" d="M723.51,-280.41C674.44,-259.31 547.37,-201.55 455,-132 435.93,-117.64 417.13,-97.66 404.9,-83.65"/>
<polygon fill="midnightblue" stroke="midnightblue" points="407.34,-81.13 398.18,-75.81 402.02,-85.68 407.34,-81.13"/>
</g>
<!-- Node41 -->
<g id="node38" class="node">
<title>Node41</title>
<g id="a_node38"><a xlink:title=" ">
<polygon fill="white" stroke="#bfbfbf" points="1697.5,-168.5 1697.5,-187.5 1744.5,-187.5 1744.5,-168.5 1697.5,-168.5"/>
<text text-anchor="middle" x="1721" y="-175.5" font-family="Helvetica,sans-Serif" font-size="10.00">vector</text>
</a>
</g>
</g>
<!-- Node3&#45;&gt;Node41 -->
<g id="edge77" class="edge">
<title>Node3&#45;&gt;Node41</title>
<path fill="none" stroke="midnightblue" d="M766.23,-282.3C769.81,-281.4 773.49,-280.59 777,-280 1005.41,-241.33 1066.65,-268.65 1297,-244 1469.37,-225.56 1512.71,-220.45 1683,-188 1684.46,-187.72 1685.94,-187.43 1687.44,-187.12"/>
<polygon fill="midnightblue" stroke="midnightblue" points="1688.34,-190.5 1697.35,-184.94 1686.83,-183.67 1688.34,-190.5"/>
</g>
<!-- Node44 -->
<g id="node41" class="node">
<title>Node44</title>
<g id="a_node41"><a xlink:href="StringUtils_8h_source.html" target="_top" xlink:title=" ">
<polygon fill="white" stroke="black" points="1810.5,-224.5 1810.5,-243.5 1887.5,-243.5 1887.5,-224.5 1810.5,-224.5"/>
<text text-anchor="middle" x="1849" y="-231.5" font-family="Helvetica,sans-Serif" font-size="10.00">StringUtils.h</text>
</a>
</g>
</g>
<!-- Node3&#45;&gt;Node44 -->
<g id="edge64" class="edge">
<title>Node3&#45;&gt;Node44</title>
<path fill="none" stroke="midnightblue" d="M766.22,-282.21C769.8,-281.33 773.48,-280.55 777,-280 878.72,-264.2 1604.02,-242.14 1800.19,-236.4"/>
<polygon fill="midnightblue" stroke="midnightblue" points="1800.31,-239.9 1810.2,-236.11 1800.11,-232.91 1800.31,-239.9"/>
</g>
<!-- Node47 -->
<g id="node44" class="node">
<title>Node47</title>
<g id="a_node44"><a xlink:href="CachedValue_8h.html" target="_top" xlink:title="Declares &quot;mostly read&#45;only&quot; wrappers around values that are expensive to compute and are thus cached.">
<polygon fill="white" stroke="black" points="104.5,-112.5 104.5,-131.5 217.5,-131.5 217.5,-112.5 104.5,-112.5"/>
<text text-anchor="middle" x="161" y="-119.5" font-family="Helvetica,sans-Serif" font-size="10.00">utils/CachedValue.h</text>
</a>
</g>
</g>
<!-- Node3&#45;&gt;Node47 -->
<g id="edge68" class="edge">
<title>Node3&#45;&gt;Node47</title>
<path fill="none" stroke="midnightblue" d="M721.91,-287.5C649.17,-282.42 417.66,-264.96 346,-244 291.82,-228.15 278.62,-219.83 232,-188 211,-173.67 189.88,-153.41 176.21,-139.34"/>
<polygon fill="midnightblue" stroke="midnightblue" points="178.51,-136.68 169.07,-131.86 173.44,-141.51 178.51,-136.68"/>
</g>
<!-- Node48 -->
<g id="node45" class="node">
<title>Node48</title>
<g id="a_node45"><a xlink:title=" ">
<polygon fill="white" stroke="#bfbfbf" points="1168,-224.5 1168,-243.5 1232,-243.5 1232,-224.5 1168,-224.5"/>
<text text-anchor="middle" x="1200" y="-231.5" font-family="Helvetica,sans-Serif" font-size="10.00">wx/defs.h</text>
</a>
</g>
</g>
<!-- Node3&#45;&gt;Node48 -->
<g id="edge73" class="edge">
<title>Node3&#45;&gt;Node48</title>
<path fill="none" stroke="midnightblue" d="M766.25,-282.37C769.82,-281.47 773.49,-280.64 777,-280 941.58,-250.03 988.73,-269.55 1157.85,-243.99"/>
<polygon fill="midnightblue" stroke="midnightblue" points="1158.49,-247.43 1167.84,-242.45 1157.42,-240.51 1158.49,-247.43"/>
</g>
<!-- Node49 -->
<g id="node46" class="node">
<title>Node49</title>
<g id="a_node46"><a xlink:title=" ">
<polygon fill="white" stroke="#bfbfbf" points="1250,-224.5 1250,-243.5 1288,-243.5 1288,-224.5 1250,-224.5"/>
<text text-anchor="middle" x="1269" y="-231.5" font-family="Helvetica,sans-Serif" font-size="10.00">map</text>
</a>
</g>
</g>
<!-- Node3&#45;&gt;Node49 -->
<g id="edge75" class="edge">
<title>Node3&#45;&gt;Node49</title>
<path fill="none" stroke="midnightblue" d="M766.24,-282.32C769.81,-281.43 773.49,-280.61 777,-280 977.61,-245.18 1036.22,-282.71 1240.06,-243.71"/>
<polygon fill="midnightblue" stroke="midnightblue" points="1240.73,-247.15 1249.88,-241.8 1239.39,-240.28 1240.73,-247.15"/>
</g>
<!-- Node5 -->
<g id="node5" class="node">
<title>Node5</title>
<g id="a_node5"><a xlink:href="Version_8h_source.html" target="_top" xlink:title=" ">
<polygon fill="white" stroke="black" points="1471,-0.5 1471,-19.5 1533,-19.5 1533,-0.5 1471,-0.5"/>
<text text-anchor="middle" x="1502" y="-7.5" font-family="Helvetica,sans-Serif" font-size="10.00">Version.h</text>
</a>
</g>
</g>
<!-- Node4&#45;&gt;Node5 -->
<g id="edge4" class="edge">
<title>Node4&#45;&gt;Node5</title>
<path fill="none" stroke="midnightblue" d="M1502,-56.08C1502,-49.01 1502,-38.86 1502,-29.99"/>
<polygon fill="midnightblue" stroke="midnightblue" points="1505.5,-29.75 1502,-19.75 1498.5,-29.75 1505.5,-29.75"/>
</g>
<!-- Node7 -->
<g id="node7" class="node">
<title>Node7</title>
<g id="a_node7"><a xlink:title=" ">
<polygon fill="white" stroke="#bfbfbf" points="53.5,-56.5 53.5,-75.5 126.5,-75.5 126.5,-56.5 53.5,-56.5"/>
<text text-anchor="middle" x="90" y="-63.5" font-family="Helvetica,sans-Serif" font-size="10.00">wx/debug.h</text>
</a>
</g>
</g>
<!-- Node6&#45;&gt;Node7 -->
<g id="edge6" class="edge">
<title>Node6&#45;&gt;Node7</title>
<path fill="none" stroke="midnightblue" d="M866.47,-113.66C863.29,-113.02 860.09,-112.44 857,-112 556.11,-68.8 477.01,-100.2 174,-76 162.01,-75.04 149.09,-73.78 137.06,-72.5"/>
<polygon fill="midnightblue" stroke="midnightblue" points="137.08,-68.98 126.76,-71.37 136.32,-75.94 137.08,-68.98"/>
</g>
<!-- Node8 -->
<g id="node8" class="node">
<title>Node8</title>
<g id="a_node8"><a xlink:title=" ">
<polygon fill="white" stroke="#bfbfbf" points="933,-56.5 933,-75.5 991,-75.5 991,-56.5 933,-56.5"/>
<text text-anchor="middle" x="962" y="-63.5" font-family="Helvetica,sans-Serif" font-size="10.00">wx/log.h</text>
</a>
</g>
</g>
<!-- Node6&#45;&gt;Node8 -->
<g id="edge7" class="edge">
<title>Node6&#45;&gt;Node8</title>
<path fill="none" stroke="midnightblue" d="M905.76,-112.32C915.77,-104.26 930.89,-92.08 942.93,-82.37"/>
<polygon fill="midnightblue" stroke="midnightblue" points="945.45,-84.83 951.04,-75.83 941.06,-79.38 945.45,-84.83"/>
</g>
<!-- Node6&#45;&gt;Node9 -->
<g id="edge8" class="edge">
<title>Node6&#45;&gt;Node9</title>
<path fill="none" stroke="midnightblue" d="M923.6,-115.81C963.47,-108.41 1038.19,-93.96 1110.63,-76.2"/>
<polygon fill="midnightblue" stroke="midnightblue" points="1111.5,-79.59 1120.37,-73.79 1109.82,-72.8 1111.5,-79.59"/>
</g>
<!-- Node10 -->
<g id="node10" class="node">
<title>Node10</title>
<g id="a_node10"><a xlink:title=" ">
<polygon fill="white" stroke="#bfbfbf" points="858.5,-0.5 858.5,-19.5 911.5,-19.5 911.5,-0.5 858.5,-0.5"/>
<text text-anchor="middle" x="885" y="-7.5" font-family="Helvetica,sans-Serif" font-size="10.00">cstddef</text>
</a>
</g>
</g>
<!-- Node6&#45;&gt;Node10 -->
<g id="edge9" class="edge">
<title>Node6&#45;&gt;Node10</title>
<path fill="none" stroke="midnightblue" d="M894.22,-112.37C892.6,-94.62 888.88,-53.67 886.69,-29.6"/>
<polygon fill="midnightblue" stroke="midnightblue" points="890.17,-29.23 885.78,-19.59 883.2,-29.87 890.17,-29.23"/>
</g>
<!-- Node11 -->
<g id="node11" class="node">
<title>Node11</title>
<g id="a_node11"><a xlink:title=" ">
<polygon fill="white" stroke="#bfbfbf" points="479,-56.5 479,-75.5 529,-75.5 529,-56.5 479,-56.5"/>
<text text-anchor="middle" x="504" y="-63.5" font-family="Helvetica,sans-Serif" font-size="10.00">cstdint</text>
</a>
</g>
</g>
<!-- Node6&#45;&gt;Node11 -->
<g id="edge10" class="edge">
<title>Node6&#45;&gt;Node11</title>
<path fill="none" stroke="midnightblue" d="M866.44,-113.85C863.27,-113.17 860.07,-112.54 857,-112 719.6,-88.06 680,-101.68 539.04,-75.94"/>
<polygon fill="midnightblue" stroke="midnightblue" points="539.63,-72.49 529.16,-74.1 538.35,-79.37 539.63,-72.49"/>
</g>
<!-- Node12 -->
<g id="node12" class="node">
<title>Node12</title>
<g id="a_node12"><a xlink:title=" ">
<polygon fill="white" stroke="#bfbfbf" points="815,-56.5 815,-75.5 877,-75.5 877,-56.5 815,-56.5"/>
<text text-anchor="middle" x="846" y="-63.5" font-family="Helvetica,sans-Serif" font-size="10.00">cinttypes</text>
</a>
</g>
</g>
<!-- Node6&#45;&gt;Node12 -->
<g id="edge11" class="edge">
<title>Node6&#45;&gt;Node12</title>
<path fill="none" stroke="midnightblue" d="M886.91,-112.08C879.84,-104.3 869.41,-92.8 860.85,-83.37"/>
<polygon fill="midnightblue" stroke="midnightblue" points="863.25,-80.8 853.94,-75.75 858.07,-85.51 863.25,-80.8"/>
</g>
<!-- Node6&#45;&gt;Node13 -->
<g id="edge12" class="edge">
<title>Node6&#45;&gt;Node13</title>
<path fill="none" stroke="midnightblue" d="M866.46,-113.72C863.28,-113.06 860.08,-112.47 857,-112 636.97,-78.36 575.11,-109.21 351.45,-75.98"/>
<polygon fill="midnightblue" stroke="midnightblue" points="351.78,-72.49 341.37,-74.45 350.73,-79.41 351.78,-72.49"/>
</g>
<!-- Node6&#45;&gt;Node14 -->
<g id="edge13" class="edge">
<title>Node6&#45;&gt;Node14</title>
<path fill="none" stroke="midnightblue" d="M866.4,-114.05C863.24,-113.33 860.05,-112.63 857,-112 768.14,-93.53 741.83,-105.48 656,-76 637.95,-69.8 636.21,-61.71 618,-56 507.2,-21.25 369.47,-13.18 299.82,-11.41"/>
<polygon fill="midnightblue" stroke="midnightblue" points="299.72,-7.91 289.65,-11.19 299.57,-14.91 299.72,-7.91"/>
</g>
<!-- Node15&#45;&gt;Node7 -->
<g id="edge15" class="edge">
<title>Node15&#45;&gt;Node7</title>
<path fill="none" stroke="midnightblue" d="M50.76,-112.08C57.54,-104.3 67.54,-92.8 75.76,-83.37"/>
<polygon fill="midnightblue" stroke="midnightblue" points="78.46,-85.59 82.38,-75.75 73.18,-81 78.46,-85.59"/>
</g>
<!-- Node15&#45;&gt;Node13 -->
<g id="edge16" class="edge">
<title>Node15&#45;&gt;Node13</title>
<path fill="none" stroke="midnightblue" d="M85.62,-112.44C137.07,-102.12 222.88,-84.89 272.77,-74.88"/>
<polygon fill="midnightblue" stroke="midnightblue" points="273.73,-78.25 282.84,-72.85 272.35,-71.39 273.73,-78.25"/>
</g>
<!-- Node15&#45;&gt;Node14 -->
<g id="edge17" class="edge">
<title>Node15&#45;&gt;Node14</title>
<path fill="none" stroke="midnightblue" d="M40.06,-112.27C36.07,-98.6 30.81,-72.04 44,-56 64.67,-30.86 154.53,-19.11 210.1,-14.16"/>
<polygon fill="midnightblue" stroke="midnightblue" points="210.72,-17.62 220.39,-13.29 210.13,-10.65 210.72,-17.62"/>
</g>
<!-- Node16&#45;&gt;Node4 -->
<g id="edge19" class="edge">
<title>Node16&#45;&gt;Node4</title>
<path fill="none" stroke="midnightblue" d="M1149.58,-225.23C1152.76,-224.78 1155.93,-224.37 1159,-224 1211.22,-217.75 1595.25,-226.58 1631,-188 1670.03,-145.87 1583.18,-100.72 1533.54,-79.44"/>
<polygon fill="midnightblue" stroke="midnightblue" points="1534.74,-76.15 1524.16,-75.51 1532.03,-82.6 1534.74,-76.15"/>
</g>
<!-- Node16&#45;&gt;Node13 -->
<g id="edge56" class="edge">
<title>Node16&#45;&gt;Node13</title>
<path fill="none" stroke="midnightblue" d="M1058.27,-231.73C973.85,-228.71 788.16,-218.83 635,-188 552.87,-171.47 533.29,-161.84 455,-132 413.28,-116.1 366.45,-93.96 338.1,-80.06"/>
<polygon fill="midnightblue" stroke="midnightblue" points="339.39,-76.79 328.88,-75.51 336.29,-83.07 339.39,-76.79"/>
</g>
<!-- Node17 -->
<g id="node17" class="node">
<title>Node17</title>
<g id="a_node17"><a xlink:title=" ">
<polygon fill="white" stroke="#bfbfbf" points="1170.5,-168.5 1170.5,-187.5 1227.5,-187.5 1227.5,-168.5 1170.5,-168.5"/>
<text text-anchor="middle" x="1199" y="-175.5" font-family="Helvetica,sans-Serif" font-size="10.00">wx/wx.h</text>
</a>
</g>
</g>
<!-- Node16&#45;&gt;Node17 -->
<g id="edge20" class="edge">
<title>Node16&#45;&gt;Node17</title>
<path fill="none" stroke="midnightblue" d="M1119.26,-224.32C1134.22,-215.82 1157.25,-202.73 1174.73,-192.8"/>
<polygon fill="midnightblue" stroke="midnightblue" points="1176.81,-195.64 1183.77,-187.65 1173.35,-189.55 1176.81,-195.64"/>
</g>
<!-- Node18 -->
<g id="node18" class="node">
<title>Node18</title>
<g id="a_node18"><a xlink:title=" ">
<polygon fill="white" stroke="#bfbfbf" points="1148,-112.5 1148,-131.5 1220,-131.5 1220,-112.5 1148,-112.5"/>
<text text-anchor="middle" x="1184" y="-119.5" font-family="Helvetica,sans-Serif" font-size="10.00">wx/config.h</text>
</a>
</g>
</g>
<!-- Node16&#45;&gt;Node18 -->
<g id="edge21" class="edge">
<title>Node16&#45;&gt;Node18</title>
<path fill="none" stroke="midnightblue" d="M1105.65,-224.3C1108.48,-211.13 1115.21,-185.77 1128,-168 1136.74,-155.86 1149.58,-145.22 1160.76,-137.33"/>
<polygon fill="midnightblue" stroke="midnightblue" points="1162.91,-140.11 1169.27,-131.63 1159.01,-134.29 1162.91,-140.11"/>
</g>
<!-- Node19 -->
<g id="node19" class="node">
<title>Node19</title>
<g id="a_node19"><a xlink:title=" ">
<polygon fill="white" stroke="#bfbfbf" points="1245.5,-168.5 1245.5,-187.5 1322.5,-187.5 1322.5,-168.5 1245.5,-168.5"/>
<text text-anchor="middle" x="1284" y="-175.5" font-family="Helvetica,sans-Serif" font-size="10.00">wx/display.h</text>
</a>
</g>
</g>
<!-- Node16&#45;&gt;Node19 -->
<g id="edge22" class="edge">
<title>Node16&#45;&gt;Node19</title>
<path fill="none" stroke="midnightblue" d="M1132.52,-224.44C1163.07,-215.28 1211.71,-200.69 1245.6,-190.52"/>
<polygon fill="midnightblue" stroke="midnightblue" points="1247.04,-193.74 1255.61,-187.52 1245.03,-187.04 1247.04,-193.74"/>
</g>
<!-- Node20 -->
<g id="node20" class="node">
<title>Node20</title>
<g id="a_node20"><a xlink:title=" ">
<polygon fill="white" stroke="#bfbfbf" points="1341,-168.5 1341,-187.5 1431,-187.5 1431,-168.5 1341,-168.5"/>
<text text-anchor="middle" x="1386" y="-175.5" font-family="Helvetica,sans-Serif" font-size="10.00">wx/fontenum.h</text>
</a>
</g>
</g>
<!-- Node16&#45;&gt;Node20 -->
<g id="edge23" class="edge">
<title>Node16&#45;&gt;Node20</title>
<path fill="none" stroke="midnightblue" d="M1148.68,-224.44C1198.29,-214.94 1278.36,-199.61 1331.59,-189.42"/>
<polygon fill="midnightblue" stroke="midnightblue" points="1332.36,-192.83 1341.53,-187.52 1331.05,-185.96 1332.36,-192.83"/>
</g>
<!-- Node21 -->
<g id="node21" class="node">
<title>Node21</title>
<g id="a_node21"><a xlink:title=" ">
<polygon fill="white" stroke="#bfbfbf" points="1449,-168.5 1449,-187.5 1537,-187.5 1537,-168.5 1449,-168.5"/>
<text text-anchor="middle" x="1493" y="-175.5" font-family="Helvetica,sans-Serif" font-size="10.00">wx/hashmap.h</text>
</a>
</g>
</g>
<!-- Node16&#45;&gt;Node21 -->
<g id="edge24" class="edge">
<title>Node16&#45;&gt;Node21</title>
<path fill="none" stroke="midnightblue" d="M1149.6,-225.41C1152.78,-224.92 1155.94,-224.45 1159,-224 1280.43,-206.29 1313.79,-206.52 1438.81,-188.12"/>
<polygon fill="midnightblue" stroke="midnightblue" points="1439.4,-191.58 1448.78,-186.65 1438.37,-184.65 1439.4,-191.58"/>
</g>
<!-- Node22 -->
<g id="node22" class="node">
<title>Node22</title>
<g id="a_node22"><a xlink:href="LoggingMessageDialog_8h.html" target="_top" xlink:title="This file declares a message dialog that sends its contents to the log message sink.">
<polygon fill="white" stroke="black" points="1334.5,-112.5 1334.5,-131.5 1473.5,-131.5 1473.5,-112.5 1334.5,-112.5"/>
<text text-anchor="middle" x="1404" y="-119.5" font-family="Helvetica,sans-Serif" font-size="10.00">LoggingMessageDialog.h</text>
</a>
</g>
</g>
<!-- Node16&#45;&gt;Node22 -->
<g id="edge25" class="edge">
<title>Node16&#45;&gt;Node22</title>
<path fill="none" stroke="midnightblue" d="M1149.58,-225.24C1152.76,-224.79 1155.93,-224.37 1159,-224 1209.12,-217.92 1577.74,-225.09 1612,-188 1653.62,-142.94 1559.1,-128.89 1484.19,-124.63"/>
<polygon fill="midnightblue" stroke="midnightblue" points="1483.93,-121.12 1473.76,-124.1 1483.57,-128.11 1483.93,-121.12"/>
</g>
<!-- Node16&#45;&gt;Node24 -->
<g id="edge29" class="edge">
<title>Node16&#45;&gt;Node24</title>
<path fill="none" stroke="midnightblue" d="M1058.22,-227.17C976.59,-216.77 806.86,-195.16 725.46,-184.79"/>
<polygon fill="midnightblue" stroke="midnightblue" points="725.88,-181.31 715.52,-183.52 724.99,-188.26 725.88,-181.31"/>
</g>
<!-- Node37 -->
<g id="node34" class="node">
<title>Node37</title>
<g id="a_node34"><a xlink:title=" ">
<polygon fill="white" stroke="#bfbfbf" points="1227,-56.5 1227,-75.5 1259,-75.5 1259,-56.5 1227,-56.5"/>
<text text-anchor="middle" x="1243" y="-63.5" font-family="Helvetica,sans-Serif" font-size="10.00">list</text>
</a>
</g>
</g>
<!-- Node16&#45;&gt;Node37 -->
<g id="edge60" class="edge">
<title>Node16&#45;&gt;Node37</title>
<path fill="none" stroke="midnightblue" d="M1110.32,-224.12C1120.19,-210.71 1140.38,-185.04 1162,-168 1188.55,-147.07 1208.68,-159.01 1229,-132 1238.98,-118.74 1242.16,-99.88 1243.04,-85.88"/>
<polygon fill="midnightblue" stroke="midnightblue" points="1246.55,-85.6 1243.33,-75.5 1239.55,-85.4 1246.55,-85.6"/>
</g>
<!-- Node38 -->
<g id="node35" class="node">
<title>Node38</title>
<g id="a_node35"><a xlink:title=" ">
<polygon fill="white" stroke="#bfbfbf" points="1009.5,-56.5 1009.5,-75.5 1102.5,-75.5 1102.5,-56.5 1009.5,-56.5"/>
<text text-anchor="middle" x="1056" y="-63.5" font-family="Helvetica,sans-Serif" font-size="10.00">unordered_map</text>
</a>
</g>
</g>
<!-- Node16&#45;&gt;Node38 -->
<g id="edge58" class="edge">
<title>Node16&#45;&gt;Node38</title>
<path fill="none" stroke="midnightblue" d="M1058.44,-233.18C982.15,-232.4 833.69,-225.91 801,-188 795.19,-181.27 795.42,-174.92 801,-168 848.08,-109.54 897.47,-162.62 966,-132 994.13,-119.43 1022.22,-97.22 1039.35,-82.3"/>
<polygon fill="midnightblue" stroke="midnightblue" points="1041.69,-84.91 1046.83,-75.64 1037.04,-79.68 1041.69,-84.91"/>
</g>
<!-- Node39 -->
<g id="node36" class="node">
<title>Node39</title>
<g id="a_node36"><a xlink:title=" ">
<polygon fill="white" stroke="#bfbfbf" points="1555,-168.5 1555,-187.5 1603,-187.5 1603,-168.5 1555,-168.5"/>
<text text-anchor="middle" x="1579" y="-175.5" font-family="Helvetica,sans-Serif" font-size="10.00">mutex</text>
</a>
</g>
</g>
<!-- Node16&#45;&gt;Node39 -->
<g id="edge57" class="edge">
<title>Node16&#45;&gt;Node39</title>
<path fill="none" stroke="midnightblue" d="M1149.58,-225.29C1152.77,-224.83 1155.93,-224.39 1159,-224 1327.08,-202.46 1374.25,-218.22 1544.88,-187.89"/>
<polygon fill="midnightblue" stroke="midnightblue" points="1545.74,-191.29 1554.96,-186.07 1544.5,-184.41 1545.74,-191.29"/>
</g>
<!-- Node40 -->
<g id="node37" class="node">
<title>Node40</title>
<g id="a_node37"><a xlink:title=" ">
<polygon fill="white" stroke="#bfbfbf" points="810,-168.5 810,-187.5 864,-187.5 864,-168.5 810,-168.5"/>
<text text-anchor="middle" x="837" y="-175.5" font-family="Helvetica,sans-Serif" font-size="10.00">random</text>
</a>
</g>
</g>
<!-- Node16&#45;&gt;Node40 -->
<g id="edge59" class="edge">
<title>Node16&#45;&gt;Node40</title>
<path fill="none" stroke="midnightblue" d="M1058.49,-224.73C1012,-216.13 937.79,-201.99 874,-188 873.9,-187.98 873.8,-187.96 873.7,-187.93"/>
<polygon fill="midnightblue" stroke="midnightblue" points="874.57,-184.54 864.05,-185.73 873.01,-191.37 874.57,-184.54"/>
</g>
<!-- Node16&#45;&gt;Node41 -->
<g id="edge61" class="edge">
<title>Node16&#45;&gt;Node41</title>
<path fill="none" stroke="midnightblue" d="M1149.57,-225.21C1152.76,-224.76 1155.92,-224.36 1159,-224 1390.89,-197.12 1452.2,-223.02 1683,-188 1684.47,-187.78 1685.96,-187.53 1687.46,-187.26"/>
<polygon fill="midnightblue" stroke="midnightblue" points="1688.31,-190.66 1697.4,-185.22 1686.9,-183.8 1688.31,-190.66"/>
</g>
<!-- Node42 -->
<g id="node39" class="node">
<title>Node42</title>
<g id="a_node39"><a xlink:title=" ">
<polygon fill="white" stroke="#bfbfbf" points="882.5,-168.5 882.5,-187.5 971.5,-187.5 971.5,-168.5 882.5,-168.5"/>
<text text-anchor="middle" x="927" y="-175.5" font-family="Helvetica,sans-Serif" font-size="10.00">wx/wupdlock.h</text>
</a>
</g>
</g>
<!-- Node16&#45;&gt;Node42 -->
<g id="edge62" class="edge">
<title>Node16&#45;&gt;Node42</title>
<path fill="none" stroke="midnightblue" d="M1075.95,-224.44C1045.92,-215.28 998.09,-200.69 964.76,-190.52"/>
<polygon fill="midnightblue" stroke="midnightblue" points="965.5,-187.09 954.91,-187.52 963.46,-193.78 965.5,-187.09"/>
</g>
<!-- Node43 -->
<g id="node40" class="node">
<title>Node43</title>
<g id="a_node40"><a xlink:title=" ">
<polygon fill="white" stroke="#bfbfbf" points="990,-168.5 990,-187.5 1076,-187.5 1076,-168.5 990,-168.5"/>
<text text-anchor="middle" x="1033" y="-175.5" font-family="Helvetica,sans-Serif" font-size="10.00">wx/webview.h</text>
</a>
</g>
</g>
<!-- Node16&#45;&gt;Node43 -->
<g id="edge63" class="edge">
<title>Node16&#45;&gt;Node43</title>
<path fill="none" stroke="midnightblue" d="M1092.59,-224.32C1081.89,-216.18 1065.66,-203.84 1052.84,-194.09"/>
<polygon fill="midnightblue" stroke="midnightblue" points="1054.69,-191.1 1044.61,-187.83 1050.46,-196.67 1054.69,-191.1"/>
</g>
<!-- Node22&#45;&gt;Node4 -->
<g id="edge26" class="edge">
<title>Node22&#45;&gt;Node4</title>
<path fill="none" stroke="midnightblue" d="M1419.75,-112.32C1435.32,-103.74 1459.38,-90.49 1477.46,-80.52"/>
<polygon fill="midnightblue" stroke="midnightblue" points="1479.22,-83.55 1486.29,-75.65 1475.85,-77.42 1479.22,-83.55"/>
</g>
<!-- Node22&#45;&gt;Node8 -->
<g id="edge28" class="edge">
<title>Node22&#45;&gt;Node8</title>
<path fill="none" stroke="midnightblue" d="M1334.49,-115.7C1256.02,-109.16 1124.41,-96.52 1001.3,-75.84"/>
<polygon fill="midnightblue" stroke="midnightblue" points="1001.76,-72.37 991.31,-74.15 1000.59,-79.27 1001.76,-72.37"/>
</g>
<!-- Node23 -->
<g id="node23" class="node">
<title>Node23</title>
<g id="a_node23"><a xlink:title=" ">
<polygon fill="white" stroke="#bfbfbf" points="1364.5,-56.5 1364.5,-75.5 1443.5,-75.5 1443.5,-56.5 1364.5,-56.5"/>
<text text-anchor="middle" x="1404" y="-63.5" font-family="Helvetica,sans-Serif" font-size="10.00">wx/msgdlg.h</text>
</a>
</g>
</g>
<!-- Node22&#45;&gt;Node23 -->
<g id="edge27" class="edge">
<title>Node22&#45;&gt;Node23</title>
<path fill="none" stroke="midnightblue" d="M1404,-112.08C1404,-105.01 1404,-94.86 1404,-85.99"/>
<polygon fill="midnightblue" stroke="midnightblue" points="1407.5,-85.75 1404,-75.75 1400.5,-85.75 1407.5,-85.75"/>
</g>
<!-- Node24&#45;&gt;Node4 -->
<g id="edge30" class="edge">
<title>Node24&#45;&gt;Node4</title>
<path fill="none" stroke="midnightblue" d="M715.72,-174.14C739.81,-172.26 772.3,-169.82 801,-168 876.73,-163.19 1423.5,-179.1 1483,-132 1496.66,-121.18 1500.87,-101.1 1502,-86.11"/>
<polygon fill="midnightblue" stroke="midnightblue" points="1505.5,-86 1502.36,-75.88 1498.51,-85.75 1505.5,-86"/>
</g>
<!-- Node24&#45;&gt;Node11 -->
<g id="edge35" class="edge">
<title>Node24&#45;&gt;Node11</title>
<path fill="none" stroke="midnightblue" d="M666.19,-168.37C635.86,-149.41 563.2,-104 526.31,-80.94"/>
<polygon fill="midnightblue" stroke="midnightblue" points="528.08,-77.92 517.75,-75.59 524.37,-83.86 528.08,-77.92"/>
</g>
<!-- Node24&#45;&gt;Node18 -->
<g id="edge32" class="edge">
<title>Node24&#45;&gt;Node18</title>
<path fill="none" stroke="midnightblue" d="M715.67,-173.97C805.45,-166.26 1039.95,-145.67 1137.59,-132.04"/>
<polygon fill="midnightblue" stroke="midnightblue" points="1138.31,-135.48 1147.71,-130.58 1137.31,-128.55 1138.31,-135.48"/>
</g>
<!-- Node25 -->
<g id="node25" class="node">
<title>Node25</title>
<g id="a_node25"><a xlink:title=" ">
<polygon fill="white" stroke="#bfbfbf" points="676,-112.5 676,-131.5 748,-131.5 748,-112.5 676,-112.5"/>
<text text-anchor="middle" x="712" y="-119.5" font-family="Helvetica,sans-Serif" font-size="10.00">wx/colour.h</text>
</a>
</g>
</g>
<!-- Node24&#45;&gt;Node25 -->
<g id="edge31" class="edge">
<title>Node24&#45;&gt;Node25</title>
<path fill="none" stroke="midnightblue" d="M685.28,-168.08C689.71,-160.61 696.16,-149.72 701.62,-140.52"/>
<polygon fill="midnightblue" stroke="midnightblue" points="704.73,-142.14 706.81,-131.75 698.71,-138.57 704.73,-142.14"/>
</g>
<!-- Node26 -->
<g id="node26" class="node">
<title>Node26</title>
<g id="a_node26"><a xlink:title=" ">
<polygon fill="white" stroke="#bfbfbf" points="547,-56.5 547,-75.5 609,-75.5 609,-56.5 547,-56.5"/>
<text text-anchor="middle" x="578" y="-63.5" font-family="Helvetica,sans-Serif" font-size="10.00">wx/font.h</text>
</a>
</g>
</g>
<!-- Node24&#45;&gt;Node26 -->
<g id="edge33" class="edge">
<title>Node24&#45;&gt;Node26</title>
<path fill="none" stroke="midnightblue" d="M670.61,-168.26C661.14,-159.35 646.23,-145.03 634,-132 618.95,-115.96 602.63,-96.8 591.51,-83.46"/>
<polygon fill="midnightblue" stroke="midnightblue" points="594.1,-81.09 585.02,-75.62 588.7,-85.55 594.1,-81.09"/>
</g>
<!-- Node27 -->
<g id="node27" class="node">
<title>Node27</title>
<g id="a_node27"><a xlink:title=" ">
<polygon fill="white" stroke="#bfbfbf" points="766,-112.5 766,-131.5 848,-131.5 848,-112.5 766,-112.5"/>
<text text-anchor="middle" x="807" y="-119.5" font-family="Helvetica,sans-Serif" font-size="10.00">wx/settings.h</text>
</a>
</g>
</g>
<!-- Node24&#45;&gt;Node27 -->
<g id="edge34" class="edge">
<title>Node24&#45;&gt;Node27</title>
<path fill="none" stroke="midnightblue" d="M700.12,-168.44C721.02,-159.56 753.93,-145.56 777.72,-135.45"/>
<polygon fill="midnightblue" stroke="midnightblue" points="779.14,-138.65 786.97,-131.52 776.4,-132.21 779.14,-138.65"/>
</g>
<!-- Node28 -->
<g id="node28" class="node">
<title>Node28</title>
<g id="a_node28"><a xlink:title=" ">
<polygon fill="white" stroke="#bfbfbf" points="717.5,-0.5 717.5,-19.5 782.5,-19.5 782.5,-0.5 717.5,-0.5"/>
<text text-anchor="middle" x="750" y="-7.5" font-family="Helvetica,sans-Serif" font-size="10.00">functional</text>
</a>
</g>
</g>
<!-- Node24&#45;&gt;Node28 -->
<g id="edge36" class="edge">
<title>Node24&#45;&gt;Node28</title>
<path fill="none" stroke="midnightblue" d="M674.34,-168.14C666.59,-154.75 654.93,-129.12 667,-112 694.46,-73.05 740.54,-114.95 768,-76 777.98,-61.85 770.42,-42.36 762.26,-28.42"/>
<polygon fill="midnightblue" stroke="midnightblue" points="765.07,-26.31 756.72,-19.79 759.18,-30.09 765.07,-26.31"/>
</g>
<!-- Node29 -->
<g id="node29" class="node">
<title>Node29</title>
<g id="a_node29"><a xlink:href="FontAttribs_8h_source.html" target="_top" xlink:title=" ">
<polygon fill="white" stroke="red" points="464.5,-112.5 464.5,-131.5 543.5,-131.5 543.5,-112.5 464.5,-112.5"/>
<text text-anchor="middle" x="504" y="-119.5" font-family="Helvetica,sans-Serif" font-size="10.00">FontAttribs.h</text>
</a>
</g>
</g>
<!-- Node24&#45;&gt;Node29 -->
<g id="edge37" class="edge">
<title>Node24&#45;&gt;Node29</title>
<path fill="none" stroke="midnightblue" d="M652.11,-168.44C622.25,-159.28 574.69,-144.69 541.54,-134.52"/>
<polygon fill="midnightblue" stroke="midnightblue" points="542.34,-131.1 531.76,-131.52 540.29,-137.8 542.34,-131.1"/>
</g>
<!-- Node36 -->
<g id="node33" class="node">
<title>Node36</title>
<g id="a_node33"><a xlink:href="FontVariantCache_8h.html" target="_top" xlink:title="This file implements the wxFont cache system.">
<polygon fill="white" stroke="black" points="1018.5,-112.5 1018.5,-131.5 1129.5,-131.5 1129.5,-112.5 1018.5,-112.5"/>
<text text-anchor="middle" x="1074" y="-119.5" font-family="Helvetica,sans-Serif" font-size="10.00">FontVariantCache.h</text>
</a>
</g>
</g>
<!-- Node24&#45;&gt;Node36 -->
<g id="edge47" class="edge">
<title>Node24&#45;&gt;Node36</title>
<path fill="none" stroke="midnightblue" d="M715.66,-172.11C781.83,-163.04 924.5,-143.49 1008.49,-131.98"/>
<polygon fill="midnightblue" stroke="midnightblue" points="1009,-135.44 1018.43,-130.62 1008.05,-128.51 1009,-135.44"/>
</g>
<!-- Node24&#45;&gt;Node38 -->
<g id="edge55" class="edge">
<title>Node24&#45;&gt;Node38</title>
<path fill="none" stroke="midnightblue" d="M715.67,-172.05C775.49,-163.51 893.34,-145.63 933,-132 952.79,-125.2 1002.13,-97.83 1031.96,-80.85"/>
<polygon fill="midnightblue" stroke="midnightblue" points="1033.95,-83.74 1040.89,-75.74 1030.47,-77.67 1033.95,-83.74"/>
</g>
<!-- Node29&#45;&gt;Node11 -->
<g id="edge44" class="edge">
<title>Node29&#45;&gt;Node11</title>
<path fill="none" stroke="midnightblue" d="M504,-112.08C504,-105.01 504,-94.86 504,-85.99"/>
<polygon fill="midnightblue" stroke="midnightblue" points="507.5,-85.75 504,-75.75 500.5,-85.75 507.5,-85.75"/>
</g>
<!-- Node29&#45;&gt;Node26 -->
<g id="edge42" class="edge">
<title>Node29&#45;&gt;Node26</title>
<path fill="none" stroke="midnightblue" d="M515.89,-112.32C527.15,-104.11 544.29,-91.6 557.71,-81.81"/>
<polygon fill="midnightblue" stroke="midnightblue" points="559.88,-84.56 565.89,-75.83 555.75,-78.9 559.88,-84.56"/>
</g>
<!-- Node29&#45;&gt;Node28 -->
<g id="edge45" class="edge">
<title>Node29&#45;&gt;Node28</title>
<path fill="none" stroke="midnightblue" d="M493.35,-112.27C478.49,-99.05 454.97,-73.64 470,-56 499.92,-20.89 636.05,-13.07 706.88,-11.4"/>
<polygon fill="midnightblue" stroke="midnightblue" points="707.32,-14.89 717.25,-11.19 707.18,-7.89 707.32,-14.89"/>
</g>
<!-- Node30 -->
<g id="node30" class="node">
<title>Node30</title>
<g id="a_node30"><a xlink:href="EnumWrapper_8h_source.html" target="_top" xlink:title=" ">
<polygon fill="white" stroke="black" points="665,-56.5 665,-75.5 759,-75.5 759,-56.5 665,-56.5"/>
<text text-anchor="middle" x="712" y="-63.5" font-family="Helvetica,sans-Serif" font-size="10.00">EnumWrapper.h</text>
</a>
</g>
</g>
<!-- Node29&#45;&gt;Node30 -->
<g id="edge38" class="edge">
<title>Node29&#45;&gt;Node30</title>
<path fill="none" stroke="midnightblue" d="M536.96,-112.44C572.79,-103.14 630.16,-88.25 669.39,-78.06"/>
<polygon fill="midnightblue" stroke="midnightblue" points="670.4,-81.42 679.2,-75.52 668.64,-74.64 670.4,-81.42"/>
</g>
<!-- Node29&#45;&gt;Node34 -->
<g id="edge43" class="edge">
<title>Node29&#45;&gt;Node34</title>
<path fill="none" stroke="midnightblue" d="M486.09,-112.44C467.75,-103.68 438.99,-89.94 417.91,-79.86"/>
<polygon fill="midnightblue" stroke="midnightblue" points="419.35,-76.67 408.82,-75.52 416.33,-82.99 419.35,-76.67"/>
</g>
<!-- Node35 -->
<g id="node32" class="node">
<title>Node35</title>
<g id="a_node32"><a xlink:title=" ">
<polygon fill="white" stroke="#bfbfbf" points="183,-56.5 183,-75.5 227,-75.5 227,-56.5 183,-56.5"/>
<text text-anchor="middle" x="205" y="-63.5" font-family="Helvetica,sans-Serif" font-size="10.00">limits</text>
</a>
</g>
</g>
<!-- Node29&#45;&gt;Node35 -->
<g id="edge46" class="edge">
<title>Node29&#45;&gt;Node35</title>
<path fill="none" stroke="midnightblue" d="M464.3,-113.83C404.45,-103.02 292.3,-82.77 237.21,-72.82"/>
<polygon fill="midnightblue" stroke="midnightblue" points="237.76,-69.36 227.3,-71.03 236.51,-76.25 237.76,-69.36"/>
</g>
<!-- Node30&#45;&gt;Node10 -->
<g id="edge39" class="edge">
<title>Node30&#45;&gt;Node10</title>
<path fill="none" stroke="midnightblue" d="M739.41,-56.44C768.94,-47.23 816.07,-32.52 848.67,-22.34"/>
<polygon fill="midnightblue" stroke="midnightblue" points="849.78,-25.66 858.28,-19.34 847.7,-18.98 849.78,-25.66"/>
</g>
<!-- Node30&#45;&gt;Node14 -->
<g id="edge41" class="edge">
<title>Node30&#45;&gt;Node14</title>
<path fill="none" stroke="midnightblue" d="M664.73,-57.87C660.1,-57.22 655.46,-56.58 651,-56 523.97,-39.42 373.56,-23.28 300.02,-15.62"/>
<polygon fill="midnightblue" stroke="midnightblue" points="300.05,-12.11 289.74,-14.55 299.33,-19.07 300.05,-12.11"/>
</g>
<!-- Node30&#45;&gt;Node28 -->
<g id="edge40" class="edge">
<title>Node30&#45;&gt;Node28</title>
<path fill="none" stroke="midnightblue" d="M718.27,-56.08C723.64,-48.46 731.52,-37.26 738.08,-27.94"/>
<polygon fill="midnightblue" stroke="midnightblue" points="740.95,-29.94 743.84,-19.75 735.22,-25.91 740.95,-29.94"/>
</g>
<!-- Node36&#45;&gt;Node4 -->
<g id="edge48" class="edge">
<title>Node36&#45;&gt;Node4</title>
<path fill="none" stroke="midnightblue" d="M1129.66,-113.21C1132.82,-112.79 1135.95,-112.39 1139,-112 1278.36,-94.37 1314.06,-96.7 1453,-76 1453.1,-75.98 1453.21,-75.97 1453.31,-75.95"/>
<polygon fill="midnightblue" stroke="midnightblue" points="1453.93,-79.4 1463.26,-74.37 1452.83,-72.49 1453.93,-79.4"/>
</g>
<!-- Node36&#45;&gt;Node9 -->
<g id="edge53" class="edge">
<title>Node36&#45;&gt;Node9</title>
<path fill="none" stroke="midnightblue" d="M1085.09,-112.32C1095.49,-104.18 1111.26,-91.84 1123.72,-82.09"/>
<polygon fill="midnightblue" stroke="midnightblue" points="1125.99,-84.75 1131.71,-75.83 1121.68,-79.24 1125.99,-84.75"/>
</g>
<!-- Node36&#45;&gt;Node13 -->
<g id="edge49" class="edge">
<title>Node36&#45;&gt;Node13</title>
<path fill="none" stroke="midnightblue" d="M1018.42,-117.43C992.47,-115.76 961.15,-113.77 933,-112 677.19,-95.94 608.54,-113.59 351.38,-75.96"/>
<polygon fill="midnightblue" stroke="midnightblue" points="351.77,-72.48 341.36,-74.48 350.74,-79.4 351.77,-72.48"/>
</g>
<!-- Node36&#45;&gt;Node26 -->
<g id="edge50" class="edge">
<title>Node36&#45;&gt;Node26</title>
<path fill="none" stroke="midnightblue" d="M1018.21,-115.13C938.05,-106.67 785.66,-90.46 656,-76 644.05,-74.67 631.09,-73.19 619.21,-71.81"/>
<polygon fill="midnightblue" stroke="midnightblue" points="619.45,-68.32 609.12,-70.65 618.65,-75.27 619.45,-68.32"/>
</g>
<!-- Node36&#45;&gt;Node28 -->
<g id="edge51" class="edge">
<title>Node36&#45;&gt;Node28</title>
<path fill="none" stroke="midnightblue" d="M1109.9,-112.47C1147.61,-101.9 1198.43,-82.04 1175,-56 1171.81,-52.46 900.12,-25.63 792.86,-15.16"/>
<polygon fill="midnightblue" stroke="midnightblue" points="793,-11.66 782.71,-14.17 792.32,-18.63 793,-11.66"/>
</g>
<!-- Node36&#45;&gt;Node37 -->
<g id="edge52" class="edge">
<title>Node36&#45;&gt;Node37</title>
<path fill="none" stroke="midnightblue" d="M1100.78,-112.44C1132.55,-102.29 1185.19,-85.47 1216.74,-75.39"/>
<polygon fill="midnightblue" stroke="midnightblue" points="1218.11,-78.63 1226.57,-72.25 1215.98,-71.96 1218.11,-78.63"/>
</g>
<!-- Node36&#45;&gt;Node38 -->
<g id="edge54" class="edge">
<title>Node36&#45;&gt;Node38</title>
<path fill="none" stroke="midnightblue" d="M1071.03,-112.08C1068.62,-104.85 1065.14,-94.41 1062.13,-85.4"/>
<polygon fill="midnightblue" stroke="midnightblue" points="1065.4,-84.13 1058.92,-75.75 1058.76,-86.34 1065.4,-84.13"/>
</g>
<!-- Node45 -->
<g id="node42" class="node">
<title>Node45</title>
<g id="a_node42"><a xlink:title=" ">
<polygon fill="white" stroke="#bfbfbf" points="1914.5,-168.5 1914.5,-187.5 1985.5,-187.5 1985.5,-168.5 1914.5,-168.5"/>
<text text-anchor="middle" x="1950" y="-175.5" font-family="Helvetica,sans-Serif" font-size="10.00">wx/string.h</text>
</a>
</g>
</g>
<!-- Node44&#45;&gt;Node45 -->
<g id="edge65" class="edge">
<title>Node44&#45;&gt;Node45</title>
<path fill="none" stroke="midnightblue" d="M1865.23,-224.32C1881.35,-215.7 1906.3,-202.36 1924.96,-192.39"/>
<polygon fill="midnightblue" stroke="midnightblue" points="1926.64,-195.46 1933.81,-187.65 1923.34,-189.28 1926.64,-195.46"/>
</g>
<!-- Node46 -->
<g id="node43" class="node">
<title>Node46</title>
<g id="a_node43"><a xlink:title=" ">
<polygon fill="white" stroke="#bfbfbf" points="1801.5,-168.5 1801.5,-187.5 1896.5,-187.5 1896.5,-168.5 1801.5,-168.5"/>
<text text-anchor="middle" x="1849" y="-175.5" font-family="Helvetica,sans-Serif" font-size="10.00">wx/translation.h</text>
</a>
</g>
</g>
<!-- Node44&#45;&gt;Node46 -->
<g id="edge66" class="edge">
<title>Node44&#45;&gt;Node46</title>
<path fill="none" stroke="midnightblue" d="M1849,-224.08C1849,-217.01 1849,-206.86 1849,-197.99"/>
<polygon fill="midnightblue" stroke="midnightblue" points="1852.5,-197.75 1849,-187.75 1845.5,-197.75 1852.5,-197.75"/>
</g>
<!-- Node47&#45;&gt;Node7 -->
<g id="edge69" class="edge">
<title>Node47&#45;&gt;Node7</title>
<path fill="none" stroke="midnightblue" d="M149.59,-112.32C138.89,-104.18 122.66,-91.84 109.84,-82.09"/>
<polygon fill="midnightblue" stroke="midnightblue" points="111.69,-79.1 101.61,-75.83 107.46,-84.67 111.69,-79.1"/>
</g>
<!-- Node47&#45;&gt;Node8 -->
<g id="edge70" class="edge">
<title>Node47&#45;&gt;Node8</title>
<path fill="none" stroke="midnightblue" d="M217.95,-118.55C340.37,-113.04 637.62,-98.4 886,-76 897.97,-74.92 910.98,-73.48 922.79,-72.07"/>
<polygon fill="midnightblue" stroke="midnightblue" points="923.31,-75.53 932.81,-70.84 922.46,-68.58 923.31,-75.53"/>
</g>
<!-- Node47&#45;&gt;Node14 -->
<g id="edge72" class="edge">
<title>Node47&#45;&gt;Node14</title>
<path fill="none" stroke="midnightblue" d="M160.54,-112.09C160.29,-98.63 161.65,-72.92 174,-56 184.76,-41.26 201.89,-30.74 217.63,-23.61"/>
<polygon fill="midnightblue" stroke="midnightblue" points="219.33,-26.69 227.19,-19.59 216.61,-20.24 219.33,-26.69"/>
</g>
<!-- Node47&#45;&gt;Node35 -->
<g id="edge71" class="edge">
<title>Node47&#45;&gt;Node35</title>
<path fill="none" stroke="midnightblue" d="M168.27,-112.08C174.54,-104.38 183.79,-93.03 191.43,-83.65"/>
<polygon fill="midnightblue" stroke="midnightblue" points="194.27,-85.71 197.87,-75.75 188.84,-81.29 194.27,-85.71"/>
</g>
<!-- Node50&#45;&gt;Node13 -->
<g id="edge80" class="edge">
<title>Node50&#45;&gt;Node13</title>
<path fill="none" stroke="midnightblue" d="M490.9,-284.64C460.6,-279.29 415.78,-267.8 384,-244 332.26,-205.25 317.57,-122.95 313.51,-85.84"/>
<polygon fill="midnightblue" stroke="midnightblue" points="316.99,-85.5 312.56,-75.88 310.02,-86.16 316.99,-85.5"/>
</g>
<!-- Node51&#45;&gt;Node3 -->
<g id="edge83" class="edge">
<title>Node51&#45;&gt;Node3</title>
<path fill="none" stroke="midnightblue" d="M809.47,-336.32C797.41,-327.98 778.97,-315.21 764.73,-305.35"/>
<polygon fill="midnightblue" stroke="midnightblue" points="766.72,-302.47 756.5,-299.65 762.73,-308.22 766.72,-302.47"/>
</g>
<!-- Node52 -->
<g id="node49" class="node">
<title>Node52</title>
<g id="a_node49"><a xlink:title=" ">
<polygon fill="white" stroke="#bfbfbf" points="786.5,-280.5 786.5,-299.5 857.5,-299.5 857.5,-280.5 786.5,-280.5"/>
<text text-anchor="middle" x="822" y="-287.5" font-family="Helvetica,sans-Serif" font-size="10.00">wx/regex.h</text>
</a>
</g>
</g>
<!-- Node51&#45;&gt;Node52 -->
<g id="edge82" class="edge">
<title>Node51&#45;&gt;Node52</title>
<path fill="none" stroke="midnightblue" d="M822,-336.08C822,-329.01 822,-318.86 822,-309.99"/>
<polygon fill="midnightblue" stroke="midnightblue" points="825.5,-309.75 822,-299.75 818.5,-309.75 825.5,-309.75"/>
</g>
</g>
</svg>
