<?xml version="1.0" encoding="UTF-8" standalone="no"?>
<!DOCTYPE svg PUBLIC "-//W3C//DTD SVG 1.1//EN"
 "http://www.w3.org/Graphics/SVG/1.1/DTD/svg11.dtd">
<!-- Generated by graphviz version 2.43.0 (0)
 -->
<!-- Title: src/MarkDown.h Pages: 1 -->
<!--zoomable 308 -->
<svg id="main" version="1.1" xmlns="http://www.w3.org/2000/svg" xmlns:xlink="http://www.w3.org/1999/xlink" xml:space="preserve" onload="init(evt)">
<style type="text/css"><![CDATA[
.edge:hover path { stroke: red; }
.edge:hover polygon { stroke: red; fill: red; }
]]></style>
<script type="text/javascript"><![CDATA[
var edges = document.getElementsByTagName('g');
if (edges && edges.length) {
  for (var i=0;i<edges.length;i++) {
    if (edges[i].id.substr(0,4)=='edge') {
      edges[i].setAttribute('class','edge');
    }
  }
}
]]></script>
        <defs>
                <circle id="rim" cx="0" cy="0" r="7"/>
                <circle id="rim2" cx="0" cy="0" r="3.5"/>
                <g id="zoomPlus">
                        <use xlink:href="#rim" fill="#404040">
                                <set attributeName="fill" to="#808080" begin="zoomplus.mouseover" end="zoomplus.mouseout"/>
                        </use>
                        <path d="M-4,0h8M0,-4v8" fill="none" stroke="white" stroke-width="1.5" pointer-events="none"/>
                </g>
                <g id="zoomMin">
                        <use xlink:href="#rim" fill="#404040">
                                <set attributeName="fill" to="#808080" begin="zoomminus.mouseover" end="zoomminus.mouseout"/>
                        </use>
                        <path d="M-4,0h8" fill="none" stroke="white" stroke-width="1.5" pointer-events="none"/>
                </g>
                <g id="dirArrow">
                        <path fill="none" stroke="white" stroke-width="1.5" d="M0,-3.0v7 M-2.5,-0.5L0,-3.0L2.5,-0.5"/>
                </g>
               <g id="resetDef">
                       <use xlink:href="#rim2" fill="#404040">
                               <set attributeName="fill" to="#808080" begin="reset.mouseover" end="reset.mouseout"/>
                       </use>
               </g>
        </defs>

<script type="text/javascript">
var viewWidth = 1583;
var viewHeight = 308;
var sectionId = 'dynsection-0';
</script>
<script xlink:href="svgpan.js"/>
<svg id="graph" class="graph">
<g id="viewport">
<title>src/MarkDown.h</title>
<polygon fill="white" stroke="transparent" points="-4,4 -4,-304 1579.39,-304 1579.39,4 -4,4"/>
<!-- Node1 -->
<g id="node1" class="node">
<title>Node1</title>
<g id="a_node1"><a xlink:title="This file contains the code for MarkDownParser.">
<polygon fill="#bfbfbf" stroke="black" points="409.89,-280.5 409.89,-299.5 504.89,-299.5 504.89,-280.5 409.89,-280.5"/>
<text text-anchor="middle" x="457.39" y="-287.5" font-family="Helvetica,sans-Serif" font-size="10.00">src/MarkDown.h</text>
</a>
</g>
</g>
<!-- Node2 -->
<g id="node2" class="node">
<title>Node2</title>
<g id="a_node2"><a xlink:href="precomp_8h_source.html" target="_top" xlink:title=" ">
<polygon fill="white" stroke="black" points="267.39,-56.5 267.39,-75.5 335.39,-75.5 335.39,-56.5 267.39,-56.5"/>
<text text-anchor="middle" x="301.39" y="-63.5" font-family="Helvetica,sans-Serif" font-size="10.00">precomp.h</text>
</a>
</g>
</g>
<!-- Node1&#45;&gt;Node2 -->
<g id="edge1" class="edge">
<title>Node1&#45;&gt;Node2</title>
<path fill="none" stroke="midnightblue" d="M409.67,-285.69C304.87,-277.32 60.1,-251.25 12.39,-188 -53.27,-100.96 161.08,-76.04 257.19,-69.32"/>
<polygon fill="midnightblue" stroke="midnightblue" points="257.46,-72.81 267.21,-68.66 257,-65.83 257.46,-72.81"/>
</g>
<!-- Node4 -->
<g id="node4" class="node">
<title>Node4</title>
<g id="a_node4"><a xlink:title=" ">
<polygon fill="white" stroke="#bfbfbf" points="21.89,-168.5 21.89,-187.5 78.89,-187.5 78.89,-168.5 21.89,-168.5"/>
<text text-anchor="middle" x="50.39" y="-175.5" font-family="Helvetica,sans-Serif" font-size="10.00">wx/wx.h</text>
</a>
</g>
</g>
<!-- Node1&#45;&gt;Node4 -->
<g id="edge3" class="edge">
<title>Node1&#45;&gt;Node4</title>
<path fill="none" stroke="midnightblue" d="M423.13,-280.42C387.81,-271.52 331.17,-257.1 282.39,-244 214.04,-225.64 134.69,-203.15 88.74,-190.02"/>
<polygon fill="midnightblue" stroke="midnightblue" points="89.49,-186.59 78.91,-187.2 87.56,-193.32 89.49,-186.59"/>
</g>
<!-- Node5 -->
<g id="node5" class="node">
<title>Node5</title>
<g id="a_node5"><a xlink:title=" ">
<polygon fill="white" stroke="#bfbfbf" points="290.89,-224.5 290.89,-243.5 361.89,-243.5 361.89,-224.5 290.89,-224.5"/>
<text text-anchor="middle" x="326.39" y="-231.5" font-family="Helvetica,sans-Serif" font-size="10.00">wx/string.h</text>
</a>
</g>
</g>
<!-- Node1&#45;&gt;Node5 -->
<g id="edge4" class="edge">
<title>Node1&#45;&gt;Node5</title>
<path fill="none" stroke="midnightblue" d="M436.63,-280.44C415.08,-271.56 381.13,-257.56 356.6,-247.45"/>
<polygon fill="midnightblue" stroke="midnightblue" points="357.63,-244.09 347.05,-243.52 354.96,-250.56 357.63,-244.09"/>
</g>
<!-- Node6 -->
<g id="node6" class="node">
<title>Node6</title>
<g id="a_node6"><a xlink:title=" ">
<polygon fill="white" stroke="#bfbfbf" points="367.39,-112.5 367.39,-131.5 439.39,-131.5 439.39,-112.5 367.39,-112.5"/>
<text text-anchor="middle" x="403.39" y="-119.5" font-family="Helvetica,sans-Serif" font-size="10.00">wx/config.h</text>
</a>
</g>
</g>
<!-- Node1&#45;&gt;Node6 -->
<g id="edge5" class="edge">
<title>Node1&#45;&gt;Node6</title>
<path fill="none" stroke="midnightblue" d="M443.22,-280.24C431.83,-272.33 416.59,-259.55 409.39,-244 393.98,-210.72 396.78,-166.63 400.13,-141.91"/>
<polygon fill="midnightblue" stroke="midnightblue" points="403.64,-142.15 401.7,-131.73 396.72,-141.09 403.64,-142.15"/>
</g>
<!-- Node7 -->
<g id="node7" class="node">
<title>Node7</title>
<g id="a_node7"><a xlink:title=" ">
<polygon fill="white" stroke="#bfbfbf" points="418.39,-224.5 418.39,-243.5 496.39,-243.5 496.39,-224.5 418.39,-224.5"/>
<text text-anchor="middle" x="457.39" y="-231.5" font-family="Helvetica,sans-Serif" font-size="10.00">wx/tokenzr.h</text>
</a>
</g>
</g>
<!-- Node1&#45;&gt;Node7 -->
<g id="edge6" class="edge">
<title>Node1&#45;&gt;Node7</title>
<path fill="none" stroke="midnightblue" d="M457.39,-280.08C457.39,-273.01 457.39,-262.86 457.39,-253.99"/>
<polygon fill="midnightblue" stroke="midnightblue" points="460.89,-253.75 457.39,-243.75 453.89,-253.75 460.89,-253.75"/>
</g>
<!-- Node8 -->
<g id="node8" class="node">
<title>Node8</title>
<g id="a_node8"><a xlink:title=" ">
<polygon fill="white" stroke="#bfbfbf" points="514.89,-224.5 514.89,-243.5 585.89,-243.5 585.89,-224.5 514.89,-224.5"/>
<text text-anchor="middle" x="550.39" y="-231.5" font-family="Helvetica,sans-Serif" font-size="10.00">wx/regex.h</text>
</a>
</g>
</g>
<!-- Node1&#45;&gt;Node8 -->
<g id="edge7" class="edge">
<title>Node1&#45;&gt;Node8</title>
<path fill="none" stroke="midnightblue" d="M472.33,-280.32C486.98,-271.82 509.53,-258.73 526.63,-248.8"/>
<polygon fill="midnightblue" stroke="midnightblue" points="528.6,-251.7 535.49,-243.65 525.08,-245.65 528.6,-251.7"/>
</g>
<!-- Node9 -->
<g id="node9" class="node">
<title>Node9</title>
<g id="a_node9"><a xlink:title=" ">
<polygon fill="white" stroke="#bfbfbf" points="1254.39,-56.5 1254.39,-75.5 1286.39,-75.5 1286.39,-56.5 1254.39,-56.5"/>
<text text-anchor="middle" x="1270.39" y="-63.5" font-family="Helvetica,sans-Serif" font-size="10.00">list</text>
</a>
</g>
</g>
<!-- Node1&#45;&gt;Node9 -->
<g id="edge8" class="edge">
<title>Node1&#45;&gt;Node9</title>
<path fill="none" stroke="midnightblue" d="M505.11,-287.93C697.2,-283.13 1406.69,-260.57 1472.39,-188 1478.36,-181.41 1477.98,-174.91 1472.39,-168 1424.08,-108.31 1364.27,-178.81 1303.39,-132 1288.38,-120.45 1279.64,-100.19 1274.97,-85.35"/>
<polygon fill="midnightblue" stroke="midnightblue" points="1278.33,-84.38 1272.26,-75.7 1271.6,-86.28 1278.33,-84.38"/>
</g>
<!-- Node10 -->
<g id="node10" class="node">
<title>Node10</title>
<g id="a_node10"><a xlink:title=" ">
<polygon fill="white" stroke="#bfbfbf" points="1517.39,-56.5 1517.39,-75.5 1575.39,-75.5 1575.39,-56.5 1517.39,-56.5"/>
<text text-anchor="middle" x="1546.39" y="-63.5" font-family="Helvetica,sans-Serif" font-size="10.00">memory</text>
</a>
</g>
</g>
<!-- Node1&#45;&gt;Node10 -->
<g id="edge9" class="edge">
<title>Node1&#45;&gt;Node10</title>
<path fill="none" stroke="midnightblue" d="M504.9,-288.24C662,-285.44 1163.7,-274.3 1322.39,-244 1398.87,-229.4 1430.09,-239.61 1488.39,-188 1519.68,-160.3 1535.6,-112.01 1542.32,-85.59"/>
<polygon fill="midnightblue" stroke="midnightblue" points="1545.76,-86.26 1544.66,-75.72 1538.95,-84.65 1545.76,-86.26"/>
</g>
<!-- Node11 -->
<g id="node11" class="node">
<title>Node11</title>
<g id="a_node11"><a xlink:href="Configuration_8h_source.html" target="_top" xlink:title=" ">
<polygon fill="white" stroke="black" points="671.89,-224.5 671.89,-243.5 762.89,-243.5 762.89,-224.5 671.89,-224.5"/>
<text text-anchor="middle" x="717.39" y="-231.5" font-family="Helvetica,sans-Serif" font-size="10.00">Configuration.h</text>
</a>
</g>
</g>
<!-- Node1&#45;&gt;Node11 -->
<g id="edge10" class="edge">
<title>Node1&#45;&gt;Node11</title>
<path fill="none" stroke="midnightblue" d="M498.59,-280.44C544.04,-271 617.23,-255.8 666.3,-245.61"/>
<polygon fill="midnightblue" stroke="midnightblue" points="667.31,-248.98 676.39,-243.52 665.88,-242.12 667.31,-248.98"/>
</g>
<!-- Node3 -->
<g id="node3" class="node">
<title>Node3</title>
<g id="a_node3"><a xlink:href="Version_8h_source.html" target="_top" xlink:title=" ">
<polygon fill="white" stroke="black" points="270.39,-0.5 270.39,-19.5 332.39,-19.5 332.39,-0.5 270.39,-0.5"/>
<text text-anchor="middle" x="301.39" y="-7.5" font-family="Helvetica,sans-Serif" font-size="10.00">Version.h</text>
</a>
</g>
</g>
<!-- Node2&#45;&gt;Node3 -->
<g id="edge2" class="edge">
<title>Node2&#45;&gt;Node3</title>
<path fill="none" stroke="midnightblue" d="M301.39,-56.08C301.39,-49.01 301.39,-38.86 301.39,-29.99"/>
<polygon fill="midnightblue" stroke="midnightblue" points="304.89,-29.75 301.39,-19.75 297.89,-29.75 304.89,-29.75"/>
</g>
<!-- Node11&#45;&gt;Node2 -->
<g id="edge11" class="edge">
<title>Node11&#45;&gt;Node2</title>
<path fill="none" stroke="midnightblue" d="M671.74,-229C585.6,-221.14 405.55,-203.14 381.39,-188 342.4,-163.56 318.31,-112.35 307.72,-85.05"/>
<polygon fill="midnightblue" stroke="midnightblue" points="310.96,-83.73 304.21,-75.56 304.39,-86.15 310.96,-83.73"/>
</g>
<!-- Node11&#45;&gt;Node4 -->
<g id="edge12" class="edge">
<title>Node11&#45;&gt;Node4</title>
<path fill="none" stroke="midnightblue" d="M671.63,-229.59C648.73,-227.9 620.6,-225.82 595.39,-224 372.94,-207.91 312.79,-222.43 89.07,-188.02"/>
<polygon fill="midnightblue" stroke="midnightblue" points="89.4,-184.53 78.98,-186.46 88.32,-191.45 89.4,-184.53"/>
</g>
<!-- Node11&#45;&gt;Node6 -->
<g id="edge13" class="edge">
<title>Node11&#45;&gt;Node6</title>
<path fill="none" stroke="midnightblue" d="M671.88,-229.75C604.9,-224.24 483.79,-211.35 447.39,-188 430.06,-176.88 417.86,-156.24 410.77,-141.19"/>
<polygon fill="midnightblue" stroke="midnightblue" points="413.9,-139.61 406.68,-131.85 407.48,-142.42 413.9,-139.61"/>
</g>
<!-- Node11&#45;&gt;Node9 -->
<g id="edge60" class="edge">
<title>Node11&#45;&gt;Node9</title>
<path fill="none" stroke="midnightblue" d="M763.16,-233.53C867.27,-233.96 1118.26,-230.44 1189.39,-188 1229.06,-164.33 1253.37,-112.8 1264.03,-85.24"/>
<polygon fill="midnightblue" stroke="midnightblue" points="1267.39,-86.25 1267.56,-75.66 1260.82,-83.83 1267.39,-86.25"/>
</g>
<!-- Node11&#45;&gt;Node10 -->
<g id="edge56" class="edge">
<title>Node11&#45;&gt;Node10</title>
<path fill="none" stroke="midnightblue" d="M763.03,-232.69C859.93,-231.3 1092.99,-224.13 1284.39,-188 1326.6,-180.03 1431.65,-152.5 1469.39,-132 1493.26,-119.04 1516.5,-97.89 1531.09,-83.26"/>
<polygon fill="midnightblue" stroke="midnightblue" points="1533.79,-85.5 1538.26,-75.89 1528.78,-80.61 1533.79,-85.5"/>
</g>
<!-- Node12 -->
<g id="node12" class="node">
<title>Node12</title>
<g id="a_node12"><a xlink:title=" ">
<polygon fill="white" stroke="#bfbfbf" points="1385.89,-168.5 1385.89,-187.5 1462.89,-187.5 1462.89,-168.5 1385.89,-168.5"/>
<text text-anchor="middle" x="1424.39" y="-175.5" font-family="Helvetica,sans-Serif" font-size="10.00">wx/display.h</text>
</a>
</g>
</g>
<!-- Node11&#45;&gt;Node12 -->
<g id="edge14" class="edge">
<title>Node11&#45;&gt;Node12</title>
<path fill="none" stroke="midnightblue" d="M763.13,-231.42C869.93,-227.39 1143.95,-215.07 1371.39,-188 1372.7,-187.84 1374.02,-187.68 1375.35,-187.51"/>
<polygon fill="midnightblue" stroke="midnightblue" points="1376.26,-190.91 1385.67,-186.03 1375.27,-183.98 1376.26,-190.91"/>
</g>
<!-- Node13 -->
<g id="node13" class="node">
<title>Node13</title>
<g id="a_node13"><a xlink:title=" ">
<polygon fill="white" stroke="#bfbfbf" points="456.39,-168.5 456.39,-187.5 546.39,-187.5 546.39,-168.5 456.39,-168.5"/>
<text text-anchor="middle" x="501.39" y="-175.5" font-family="Helvetica,sans-Serif" font-size="10.00">wx/fontenum.h</text>
</a>
</g>
</g>
<!-- Node11&#45;&gt;Node13 -->
<g id="edge15" class="edge">
<title>Node11&#45;&gt;Node13</title>
<path fill="none" stroke="midnightblue" d="M683.17,-224.44C645.88,-215.12 586.12,-200.18 545.38,-190"/>
<polygon fill="midnightblue" stroke="midnightblue" points="546.01,-186.55 535.46,-187.52 544.31,-193.34 546.01,-186.55"/>
</g>
<!-- Node14 -->
<g id="node14" class="node">
<title>Node14</title>
<g id="a_node14"><a xlink:title=" ">
<polygon fill="white" stroke="#bfbfbf" points="495.39,-112.5 495.39,-131.5 583.39,-131.5 583.39,-112.5 495.39,-112.5"/>
<text text-anchor="middle" x="539.39" y="-119.5" font-family="Helvetica,sans-Serif" font-size="10.00">wx/hashmap.h</text>
</a>
</g>
</g>
<!-- Node11&#45;&gt;Node14 -->
<g id="edge16" class="edge">
<title>Node11&#45;&gt;Node14</title>
<path fill="none" stroke="midnightblue" d="M703.42,-224.37C672.75,-205.41 599.27,-160 561.95,-136.94"/>
<polygon fill="midnightblue" stroke="midnightblue" points="563.64,-133.87 553.29,-131.59 559.96,-139.83 563.64,-133.87"/>
</g>
<!-- Node15 -->
<g id="node15" class="node">
<title>Node15</title>
<g id="a_node15"><a xlink:href="LoggingMessageDialog_8h.html" target="_top" xlink:title="This file declares a message dialog that sends its contents to the log message sink.">
<polygon fill="white" stroke="black" points="96.89,-168.5 96.89,-187.5 273.89,-187.5 273.89,-168.5 96.89,-168.5"/>
<text text-anchor="middle" x="185.39" y="-175.5" font-family="Helvetica,sans-Serif" font-size="10.00">dialogs/LoggingMessageDialog.h</text>
</a>
</g>
</g>
<!-- Node11&#45;&gt;Node15 -->
<g id="edge17" class="edge">
<title>Node11&#45;&gt;Node15</title>
<path fill="none" stroke="midnightblue" d="M671.57,-228.35C584.72,-219.53 394.54,-200.23 279.47,-188.55"/>
<polygon fill="midnightblue" stroke="midnightblue" points="279.56,-185.04 269.26,-187.51 278.86,-192.01 279.56,-185.04"/>
</g>
<!-- Node18 -->
<g id="node18" class="node">
<title>Node18</title>
<g id="a_node18"><a xlink:href="TextStyle_8h.html" target="_top" xlink:title="This file declares everything needed for the text style system used to style all the elements on the ...">
<polygon fill="white" stroke="black" points="669.39,-168.5 669.39,-187.5 765.39,-187.5 765.39,-168.5 669.39,-168.5"/>
<text text-anchor="middle" x="717.39" y="-175.5" font-family="Helvetica,sans-Serif" font-size="10.00">cells/TextStyle.h</text>
</a>
</g>
</g>
<!-- Node11&#45;&gt;Node18 -->
<g id="edge21" class="edge">
<title>Node11&#45;&gt;Node18</title>
<path fill="none" stroke="midnightblue" d="M717.39,-224.08C717.39,-217.01 717.39,-206.86 717.39,-197.99"/>
<polygon fill="midnightblue" stroke="midnightblue" points="720.89,-197.75 717.39,-187.75 713.89,-197.75 720.89,-197.75"/>
</g>
<!-- Node25 -->
<g id="node25" class="node">
<title>Node25</title>
<g id="a_node25"><a xlink:title=" ">
<polygon fill="white" stroke="#bfbfbf" points="494.39,-56.5 494.39,-75.5 544.39,-75.5 544.39,-56.5 494.39,-56.5"/>
<text text-anchor="middle" x="519.39" y="-63.5" font-family="Helvetica,sans-Serif" font-size="10.00">cstdint</text>
</a>
</g>
</g>
<!-- Node11&#45;&gt;Node25 -->
<g id="edge55" class="edge">
<title>Node11&#45;&gt;Node25</title>
<path fill="none" stroke="midnightblue" d="M695.91,-224.36C639.77,-201.69 492.51,-141.53 486.39,-132 476.11,-115.97 489.32,-96.33 501.95,-82.86"/>
<polygon fill="midnightblue" stroke="midnightblue" points="504.51,-85.25 509.14,-75.71 499.58,-80.28 504.51,-85.25"/>
</g>
<!-- Node34 -->
<g id="node34" class="node">
<title>Node34</title>
<g id="a_node34"><a xlink:title=" ">
<polygon fill="white" stroke="#bfbfbf" points="383.39,-56.5 383.39,-75.5 447.39,-75.5 447.39,-56.5 383.39,-56.5"/>
<text text-anchor="middle" x="415.39" y="-63.5" font-family="Helvetica,sans-Serif" font-size="10.00">algorithm</text>
</a>
</g>
</g>
<!-- Node11&#45;&gt;Node34 -->
<g id="edge62" class="edge">
<title>Node11&#45;&gt;Node34</title>
<path fill="none" stroke="midnightblue" d="M671.82,-229.12C600.63,-222.54 466.72,-207.95 423.39,-188 388.76,-172.05 374.28,-166.66 358.39,-132 349.05,-111.62 370.01,-92.9 389.09,-80.83"/>
<polygon fill="midnightblue" stroke="midnightblue" points="391.07,-83.73 397.89,-75.62 387.5,-77.71 391.07,-83.73"/>
</g>
<!-- Node38 -->
<g id="node38" class="node">
<title>Node38</title>
<g id="a_node38"><a xlink:title=" ">
<polygon fill="white" stroke="#bfbfbf" points="1405.89,-56.5 1405.89,-75.5 1498.89,-75.5 1498.89,-56.5 1405.89,-56.5"/>
<text text-anchor="middle" x="1452.39" y="-63.5" font-family="Helvetica,sans-Serif" font-size="10.00">unordered_map</text>
</a>
</g>
</g>
<!-- Node11&#45;&gt;Node38 -->
<g id="edge58" class="edge">
<title>Node11&#45;&gt;Node38</title>
<path fill="none" stroke="midnightblue" d="M763.23,-231.01C851.19,-226.71 1049.55,-214.72 1214.39,-188 1241.21,-183.65 1435.52,-153.3 1452.39,-132 1462.67,-119.03 1461.17,-99.59 1458.02,-85.35"/>
<polygon fill="midnightblue" stroke="midnightblue" points="1461.4,-84.44 1455.45,-75.67 1454.63,-86.23 1461.4,-84.44"/>
</g>
<!-- Node39 -->
<g id="node39" class="node">
<title>Node39</title>
<g id="a_node39"><a xlink:title=" ">
<polygon fill="white" stroke="#bfbfbf" points="783.39,-168.5 783.39,-187.5 831.39,-187.5 831.39,-168.5 783.39,-168.5"/>
<text text-anchor="middle" x="807.39" y="-175.5" font-family="Helvetica,sans-Serif" font-size="10.00">mutex</text>
</a>
</g>
</g>
<!-- Node11&#45;&gt;Node39 -->
<g id="edge57" class="edge">
<title>Node11&#45;&gt;Node39</title>
<path fill="none" stroke="midnightblue" d="M731.85,-224.32C745.89,-215.9 767.44,-202.97 783.94,-193.07"/>
<polygon fill="midnightblue" stroke="midnightblue" points="786.19,-195.8 792.97,-187.65 782.59,-189.8 786.19,-195.8"/>
</g>
<!-- Node40 -->
<g id="node40" class="node">
<title>Node40</title>
<g id="a_node40"><a xlink:title=" ">
<polygon fill="white" stroke="#bfbfbf" points="849.39,-168.5 849.39,-187.5 903.39,-187.5 903.39,-168.5 849.39,-168.5"/>
<text text-anchor="middle" x="876.39" y="-175.5" font-family="Helvetica,sans-Serif" font-size="10.00">random</text>
</a>
</g>
</g>
<!-- Node11&#45;&gt;Node40 -->
<g id="edge59" class="edge">
<title>Node11&#45;&gt;Node40</title>
<path fill="none" stroke="midnightblue" d="M742.59,-224.44C769.33,-215.36 811.79,-200.94 841.7,-190.78"/>
<polygon fill="midnightblue" stroke="midnightblue" points="842.97,-194.05 851.32,-187.52 840.72,-187.42 842.97,-194.05"/>
</g>
<!-- Node41 -->
<g id="node41" class="node">
<title>Node41</title>
<g id="a_node41"><a xlink:title=" ">
<polygon fill="white" stroke="#bfbfbf" points="921.89,-168.5 921.89,-187.5 968.89,-187.5 968.89,-168.5 921.89,-168.5"/>
<text text-anchor="middle" x="945.39" y="-175.5" font-family="Helvetica,sans-Serif" font-size="10.00">vector</text>
</a>
</g>
</g>
<!-- Node11&#45;&gt;Node41 -->
<g id="edge61" class="edge">
<title>Node11&#45;&gt;Node41</title>
<path fill="none" stroke="midnightblue" d="M756.35,-224.48C793.71,-216.21 851.93,-203.05 911.65,-188.11"/>
<polygon fill="midnightblue" stroke="midnightblue" points="912.78,-191.43 921.63,-185.6 911.08,-184.65 912.78,-191.43"/>
</g>
<!-- Node42 -->
<g id="node42" class="node">
<title>Node42</title>
<g id="a_node42"><a xlink:title=" ">
<polygon fill="white" stroke="#bfbfbf" points="986.89,-168.5 986.89,-187.5 1075.89,-187.5 1075.89,-168.5 986.89,-168.5"/>
<text text-anchor="middle" x="1031.39" y="-175.5" font-family="Helvetica,sans-Serif" font-size="10.00">wx/wupdlock.h</text>
</a>
</g>
</g>
<!-- Node11&#45;&gt;Node42 -->
<g id="edge63" class="edge">
<title>Node11&#45;&gt;Node42</title>
<path fill="none" stroke="midnightblue" d="M763.05,-225.15C819.65,-215.41 916.02,-198.84 976.56,-188.43"/>
<polygon fill="midnightblue" stroke="midnightblue" points="977.43,-191.83 986.7,-186.69 976.25,-184.93 977.43,-191.83"/>
</g>
<!-- Node43 -->
<g id="node43" class="node">
<title>Node43</title>
<g id="a_node43"><a xlink:title=" ">
<polygon fill="white" stroke="#bfbfbf" points="1094.39,-168.5 1094.39,-187.5 1180.39,-187.5 1180.39,-168.5 1094.39,-168.5"/>
<text text-anchor="middle" x="1137.39" y="-175.5" font-family="Helvetica,sans-Serif" font-size="10.00">wx/webview.h</text>
</a>
</g>
</g>
<!-- Node11&#45;&gt;Node43 -->
<g id="edge64" class="edge">
<title>Node11&#45;&gt;Node43</title>
<path fill="none" stroke="midnightblue" d="M763.1,-228.15C830.87,-220.8 962.23,-205.92 1084.04,-188.14"/>
<polygon fill="midnightblue" stroke="midnightblue" points="1084.9,-191.55 1094.29,-186.63 1083.89,-184.62 1084.9,-191.55"/>
</g>
<!-- Node15&#45;&gt;Node2 -->
<g id="edge18" class="edge">
<title>Node15&#45;&gt;Node2</title>
<path fill="none" stroke="midnightblue" d="M160.72,-168.36C132,-156.95 90.73,-135.54 109.39,-112 127.5,-89.16 206.46,-76.79 257.31,-71.08"/>
<polygon fill="midnightblue" stroke="midnightblue" points="257.82,-74.54 267.39,-69.99 257.07,-67.58 257.82,-74.54"/>
</g>
<!-- Node16 -->
<g id="node16" class="node">
<title>Node16</title>
<g id="a_node16"><a xlink:title=" ">
<polygon fill="white" stroke="#bfbfbf" points="118.89,-112.5 118.89,-131.5 197.89,-131.5 197.89,-112.5 118.89,-112.5"/>
<text text-anchor="middle" x="158.39" y="-119.5" font-family="Helvetica,sans-Serif" font-size="10.00">wx/msgdlg.h</text>
</a>
</g>
</g>
<!-- Node15&#45;&gt;Node16 -->
<g id="edge19" class="edge">
<title>Node15&#45;&gt;Node16</title>
<path fill="none" stroke="midnightblue" d="M180.93,-168.08C177.24,-160.69 171.87,-149.95 167.3,-140.81"/>
<polygon fill="midnightblue" stroke="midnightblue" points="170.37,-139.13 162.77,-131.75 164.11,-142.26 170.37,-139.13"/>
</g>
<!-- Node17 -->
<g id="node17" class="node">
<title>Node17</title>
<g id="a_node17"><a xlink:title=" ">
<polygon fill="white" stroke="#bfbfbf" points="215.39,-112.5 215.39,-131.5 273.39,-131.5 273.39,-112.5 215.39,-112.5"/>
<text text-anchor="middle" x="244.39" y="-119.5" font-family="Helvetica,sans-Serif" font-size="10.00">wx/log.h</text>
</a>
</g>
</g>
<!-- Node15&#45;&gt;Node17 -->
<g id="edge20" class="edge">
<title>Node15&#45;&gt;Node17</title>
<path fill="none" stroke="midnightblue" d="M194.87,-168.32C203.59,-160.34 216.74,-148.31 227.29,-138.65"/>
<polygon fill="midnightblue" stroke="midnightblue" points="229.73,-141.17 234.74,-131.83 225,-136 229.73,-141.17"/>
</g>
<!-- Node18&#45;&gt;Node2 -->
<g id="edge22" class="edge">
<title>Node18&#45;&gt;Node2</title>
<path fill="none" stroke="midnightblue" d="M698.46,-168.35C679.68,-159.63 650.2,-145.55 625.39,-132 610.34,-123.78 608.51,-117.87 592.39,-112 569.65,-103.72 421.36,-83.07 345.68,-72.88"/>
<polygon fill="midnightblue" stroke="midnightblue" points="345.88,-69.38 335.5,-71.51 344.95,-76.31 345.88,-69.38"/>
</g>
<!-- Node18&#45;&gt;Node6 -->
<g id="edge28" class="edge">
<title>Node18&#45;&gt;Node6</title>
<path fill="none" stroke="midnightblue" d="M669.36,-168.74C609.72,-158.48 508.68,-141.11 449.8,-130.98"/>
<polygon fill="midnightblue" stroke="midnightblue" points="450.12,-127.48 439.67,-129.24 448.93,-134.38 450.12,-127.48"/>
</g>
<!-- Node18&#45;&gt;Node14 -->
<g id="edge25" class="edge">
<title>Node18&#45;&gt;Node14</title>
<path fill="none" stroke="midnightblue" d="M689.19,-168.44C658.98,-159.28 610.88,-144.69 577.36,-134.52"/>
<polygon fill="midnightblue" stroke="midnightblue" points="578.05,-131.07 567.46,-131.52 576.02,-137.77 578.05,-131.07"/>
</g>
<!-- Node19 -->
<g id="node19" class="node">
<title>Node19</title>
<g id="a_node19"><a xlink:title=" ">
<polygon fill="white" stroke="#bfbfbf" points="813.39,-112.5 813.39,-131.5 885.39,-131.5 885.39,-112.5 813.39,-112.5"/>
<text text-anchor="middle" x="849.39" y="-119.5" font-family="Helvetica,sans-Serif" font-size="10.00">wx/colour.h</text>
</a>
</g>
</g>
<!-- Node18&#45;&gt;Node19 -->
<g id="edge23" class="edge">
<title>Node18&#45;&gt;Node19</title>
<path fill="none" stroke="midnightblue" d="M738.31,-168.44C760.13,-159.52 794.54,-145.44 819.28,-135.32"/>
<polygon fill="midnightblue" stroke="midnightblue" points="820.64,-138.54 828.57,-131.52 817.99,-132.06 820.64,-138.54"/>
</g>
<!-- Node20 -->
<g id="node20" class="node">
<title>Node20</title>
<g id="a_node20"><a xlink:title=" ">
<polygon fill="white" stroke="#bfbfbf" points="903.39,-112.5 903.39,-131.5 941.39,-131.5 941.39,-112.5 903.39,-112.5"/>
<text text-anchor="middle" x="922.39" y="-119.5" font-family="Helvetica,sans-Serif" font-size="10.00">map</text>
</a>
</g>
</g>
<!-- Node18&#45;&gt;Node20 -->
<g id="edge24" class="edge">
<title>Node18&#45;&gt;Node20</title>
<path fill="none" stroke="midnightblue" d="M753.84,-168.43C787.72,-160.32 839.78,-147.45 893.47,-132.14"/>
<polygon fill="midnightblue" stroke="midnightblue" points="894.52,-135.48 903.16,-129.35 892.58,-128.75 894.52,-135.48"/>
</g>
<!-- Node21 -->
<g id="node21" class="node">
<title>Node21</title>
<g id="a_node21"><a xlink:title=" ">
<polygon fill="white" stroke="#bfbfbf" points="959.39,-112.5 959.39,-131.5 1003.39,-131.5 1003.39,-112.5 959.39,-112.5"/>
<text text-anchor="middle" x="981.39" y="-119.5" font-family="Helvetica,sans-Serif" font-size="10.00">string</text>
</a>
</g>
</g>
<!-- Node18&#45;&gt;Node21 -->
<g id="edge26" class="edge">
<title>Node18&#45;&gt;Node21</title>
<path fill="none" stroke="midnightblue" d="M765.42,-169.05C810.6,-161.28 880.3,-148.52 949.37,-132.08"/>
<polygon fill="midnightblue" stroke="midnightblue" points="950.2,-135.48 959.11,-129.74 948.56,-128.67 950.2,-135.48"/>
</g>
<!-- Node22 -->
<g id="node22" class="node">
<title>Node22</title>
<g id="a_node22"><a xlink:title=" ">
<polygon fill="white" stroke="#bfbfbf" points="1021.89,-112.5 1021.89,-131.5 1078.89,-131.5 1078.89,-112.5 1021.89,-112.5"/>
<text text-anchor="middle" x="1050.39" y="-119.5" font-family="Helvetica,sans-Serif" font-size="10.00">ostream</text>
</a>
</g>
</g>
<!-- Node18&#45;&gt;Node22 -->
<g id="edge27" class="edge">
<title>Node18&#45;&gt;Node22</title>
<path fill="none" stroke="midnightblue" d="M765.59,-169.37C768.57,-168.9 771.52,-168.44 774.39,-168 877.02,-152.14 905.7,-152.32 1011.97,-131.94"/>
<polygon fill="midnightblue" stroke="midnightblue" points="1012.66,-135.37 1021.81,-130.04 1011.33,-128.5 1012.66,-135.37"/>
</g>
<!-- Node23 -->
<g id="node23" class="node">
<title>Node23</title>
<g id="a_node23"><a xlink:title=" ">
<polygon fill="white" stroke="#bfbfbf" points="975.39,-56.5 975.39,-75.5 1037.39,-75.5 1037.39,-56.5 975.39,-56.5"/>
<text text-anchor="middle" x="1006.39" y="-63.5" font-family="Helvetica,sans-Serif" font-size="10.00">wx/font.h</text>
</a>
</g>
</g>
<!-- Node18&#45;&gt;Node23 -->
<g id="edge29" class="edge">
<title>Node18&#45;&gt;Node23</title>
<path fill="none" stroke="midnightblue" d="M726.2,-168.36C741.04,-154.32 772.52,-126.63 804.39,-112 811.73,-108.63 908.31,-87.82 965.22,-75.71"/>
<polygon fill="midnightblue" stroke="midnightblue" points="965.96,-79.13 975.01,-73.63 964.51,-72.28 965.96,-79.13"/>
</g>
<!-- Node24 -->
<g id="node24" class="node">
<title>Node24</title>
<g id="a_node24"><a xlink:title=" ">
<polygon fill="white" stroke="#bfbfbf" points="1135.39,-112.5 1135.39,-131.5 1217.39,-131.5 1217.39,-112.5 1135.39,-112.5"/>
<text text-anchor="middle" x="1176.39" y="-119.5" font-family="Helvetica,sans-Serif" font-size="10.00">wx/settings.h</text>
</a>
</g>
</g>
<!-- Node18&#45;&gt;Node24 -->
<g id="edge30" class="edge">
<title>Node18&#45;&gt;Node24</title>
<path fill="none" stroke="midnightblue" d="M765.57,-169.21C768.55,-168.78 771.51,-168.38 774.39,-168 928.13,-147.9 967.71,-152.53 1121.39,-132 1122.66,-131.83 1123.94,-131.65 1125.24,-131.47"/>
<polygon fill="midnightblue" stroke="midnightblue" points="1125.9,-134.91 1135.29,-130 1124.88,-127.99 1125.9,-134.91"/>
</g>
<!-- Node18&#45;&gt;Node25 -->
<g id="edge31" class="edge">
<title>Node18&#45;&gt;Node25</title>
<path fill="none" stroke="midnightblue" d="M706.84,-168.41C690.23,-155.15 656.66,-129.42 625.39,-112 602.17,-99.06 574.48,-87.43 553.23,-79.23"/>
<polygon fill="midnightblue" stroke="midnightblue" points="554.25,-75.87 543.66,-75.6 551.77,-82.42 554.25,-75.87"/>
</g>
<!-- Node26 -->
<g id="node26" class="node">
<title>Node26</title>
<g id="a_node26"><a xlink:title=" ">
<polygon fill="white" stroke="#bfbfbf" points="994.89,-0.5 994.89,-19.5 1059.89,-19.5 1059.89,-0.5 994.89,-0.5"/>
<text text-anchor="middle" x="1027.39" y="-7.5" font-family="Helvetica,sans-Serif" font-size="10.00">functional</text>
</a>
</g>
</g>
<!-- Node18&#45;&gt;Node26 -->
<g id="edge32" class="edge">
<title>Node18&#45;&gt;Node26</title>
<path fill="none" stroke="midnightblue" d="M765.57,-169.25C768.56,-168.81 771.51,-168.39 774.39,-168 843.98,-158.52 1041.64,-184.42 1088.39,-132 1117.34,-99.54 1072.67,-50.86 1045.61,-26.31"/>
<polygon fill="midnightblue" stroke="midnightblue" points="1047.7,-23.49 1037.87,-19.52 1043.07,-28.75 1047.7,-23.49"/>
</g>
<!-- Node27 -->
<g id="node27" class="node">
<title>Node27</title>
<g id="a_node27"><a xlink:href="FontAttribs_8h_source.html" target="_top" xlink:title=" ">
<polygon fill="white" stroke="black" points="677.89,-112.5 677.89,-131.5 756.89,-131.5 756.89,-112.5 677.89,-112.5"/>
<text text-anchor="middle" x="717.39" y="-119.5" font-family="Helvetica,sans-Serif" font-size="10.00">FontAttribs.h</text>
</a>
</g>
</g>
<!-- Node18&#45;&gt;Node27 -->
<g id="edge33" class="edge">
<title>Node18&#45;&gt;Node27</title>
<path fill="none" stroke="midnightblue" d="M717.39,-168.08C717.39,-161.01 717.39,-150.86 717.39,-141.99"/>
<polygon fill="midnightblue" stroke="midnightblue" points="720.89,-141.75 717.39,-131.75 713.89,-141.75 720.89,-141.75"/>
</g>
<!-- Node36 -->
<g id="node36" class="node">
<title>Node36</title>
<g id="a_node36"><a xlink:href="FontVariantCache_8h.html" target="_top" xlink:title="This file implements the wxFont cache system.">
<polygon fill="white" stroke="black" points="1311.89,-112.5 1311.89,-131.5 1422.89,-131.5 1422.89,-112.5 1311.89,-112.5"/>
<text text-anchor="middle" x="1367.39" y="-119.5" font-family="Helvetica,sans-Serif" font-size="10.00">FontVariantCache.h</text>
</a>
</g>
</g>
<!-- Node18&#45;&gt;Node36 -->
<g id="edge46" class="edge">
<title>Node18&#45;&gt;Node36</title>
<path fill="none" stroke="midnightblue" d="M765.56,-169.11C768.54,-168.71 771.51,-168.34 774.39,-168 874.96,-156.26 1169.53,-136.1 1301.78,-127.31"/>
<polygon fill="midnightblue" stroke="midnightblue" points="1302.04,-130.8 1311.78,-126.64 1301.57,-123.81 1302.04,-130.8"/>
</g>
<!-- Node18&#45;&gt;Node38 -->
<g id="edge54" class="edge">
<title>Node18&#45;&gt;Node38</title>
<path fill="none" stroke="midnightblue" d="M765.55,-169.04C768.54,-168.66 771.5,-168.31 774.39,-168 847.2,-160.28 1374.7,-177.09 1432.39,-132 1446.18,-121.22 1450.71,-101.14 1452.07,-86.13"/>
<polygon fill="midnightblue" stroke="midnightblue" points="1455.58,-86.06 1452.6,-75.89 1448.59,-85.69 1455.58,-86.06"/>
</g>
<!-- Node27&#45;&gt;Node23 -->
<g id="edge40" class="edge">
<title>Node27&#45;&gt;Node23</title>
<path fill="none" stroke="midnightblue" d="M757.15,-113.86C805.48,-105.13 889.48,-89.82 961.39,-76 962.49,-75.79 963.6,-75.58 964.72,-75.36"/>
<polygon fill="midnightblue" stroke="midnightblue" points="965.79,-78.71 974.93,-73.35 964.45,-71.84 965.79,-78.71"/>
</g>
<!-- Node27&#45;&gt;Node25 -->
<g id="edge43" class="edge">
<title>Node27&#45;&gt;Node25</title>
<path fill="none" stroke="midnightblue" d="M686.02,-112.44C650.24,-102.68 591.87,-86.77 554.58,-76.6"/>
<polygon fill="midnightblue" stroke="midnightblue" points="555.22,-73.14 544.65,-73.89 553.38,-79.9 555.22,-73.14"/>
</g>
<!-- Node27&#45;&gt;Node26 -->
<g id="edge44" class="edge">
<title>Node27&#45;&gt;Node26</title>
<path fill="none" stroke="midnightblue" d="M757.08,-113.36C813.75,-102.32 912.75,-82.53 928.39,-76 944.54,-69.26 983,-42.73 1006.95,-25.72"/>
<polygon fill="midnightblue" stroke="midnightblue" points="1009.23,-28.39 1015.34,-19.73 1005.17,-22.69 1009.23,-28.39"/>
</g>
<!-- Node28 -->
<g id="node28" class="node">
<title>Node28</title>
<g id="a_node28"><a xlink:href="EnumWrapper_8h_source.html" target="_top" xlink:title=" ">
<polygon fill="white" stroke="black" points="562.39,-56.5 562.39,-75.5 656.39,-75.5 656.39,-56.5 562.39,-56.5"/>
<text text-anchor="middle" x="609.39" y="-63.5" font-family="Helvetica,sans-Serif" font-size="10.00">EnumWrapper.h</text>
</a>
</g>
</g>
<!-- Node27&#45;&gt;Node28 -->
<g id="edge34" class="edge">
<title>Node27&#45;&gt;Node28</title>
<path fill="none" stroke="midnightblue" d="M700.04,-112.32C682.72,-103.66 655.88,-90.24 635.89,-80.25"/>
<polygon fill="midnightblue" stroke="midnightblue" points="637.21,-77 626.7,-75.65 634.08,-83.26 637.21,-77"/>
</g>
<!-- Node31 -->
<g id="node31" class="node">
<title>Node31</title>
<g id="a_node31"><a xlink:href="clamp_8hpp_source.html" target="_top" xlink:title=" ">
<polygon fill="white" stroke="black" points="674.39,-56.5 674.39,-75.5 760.39,-75.5 760.39,-56.5 674.39,-56.5"/>
<text text-anchor="middle" x="717.39" y="-63.5" font-family="Helvetica,sans-Serif" font-size="10.00">stx/clamp.hpp</text>
</a>
</g>
</g>
<!-- Node27&#45;&gt;Node31 -->
<g id="edge38" class="edge">
<title>Node27&#45;&gt;Node31</title>
<path fill="none" stroke="midnightblue" d="M717.39,-112.08C717.39,-105.01 717.39,-94.86 717.39,-85.99"/>
<polygon fill="midnightblue" stroke="midnightblue" points="720.89,-85.75 717.39,-75.75 713.89,-85.75 720.89,-85.75"/>
</g>
<!-- Node33 -->
<g id="node33" class="node">
<title>Node33</title>
<g id="a_node33"><a xlink:title=" ">
<polygon fill="white" stroke="#bfbfbf" points="778.89,-56.5 778.89,-75.5 857.89,-75.5 857.89,-56.5 778.89,-56.5"/>
<text text-anchor="middle" x="818.39" y="-63.5" font-family="Helvetica,sans-Serif" font-size="10.00">wx/version.h</text>
</a>
</g>
</g>
<!-- Node27&#45;&gt;Node33 -->
<g id="edge41" class="edge">
<title>Node27&#45;&gt;Node33</title>
<path fill="none" stroke="midnightblue" d="M733.62,-112.32C749.74,-103.7 774.69,-90.36 793.36,-80.39"/>
<polygon fill="midnightblue" stroke="midnightblue" points="795.04,-83.46 802.2,-75.65 791.74,-77.28 795.04,-83.46"/>
</g>
<!-- Node27&#45;&gt;Node34 -->
<g id="edge42" class="edge">
<title>Node27&#45;&gt;Node34</title>
<path fill="none" stroke="midnightblue" d="M677.6,-113.88C620.49,-103.67 515.74,-84.94 457.41,-74.51"/>
<polygon fill="midnightblue" stroke="midnightblue" points="457.89,-71.04 447.43,-72.73 456.66,-77.93 457.89,-71.04"/>
</g>
<!-- Node35 -->
<g id="node35" class="node">
<title>Node35</title>
<g id="a_node35"><a xlink:title=" ">
<polygon fill="white" stroke="#bfbfbf" points="875.39,-56.5 875.39,-75.5 919.39,-75.5 919.39,-56.5 875.39,-56.5"/>
<text text-anchor="middle" x="897.39" y="-63.5" font-family="Helvetica,sans-Serif" font-size="10.00">limits</text>
</a>
</g>
</g>
<!-- Node27&#45;&gt;Node35 -->
<g id="edge45" class="edge">
<title>Node27&#45;&gt;Node35</title>
<path fill="none" stroke="midnightblue" d="M745.91,-112.44C778.43,-102.69 831.47,-86.78 865.38,-76.6"/>
<polygon fill="midnightblue" stroke="midnightblue" points="866.67,-79.87 875.25,-73.64 864.66,-73.17 866.67,-79.87"/>
</g>
<!-- Node28&#45;&gt;Node26 -->
<g id="edge36" class="edge">
<title>Node28&#45;&gt;Node26</title>
<path fill="none" stroke="midnightblue" d="M656.43,-57.32C659.46,-56.86 662.47,-56.42 665.39,-56 780.55,-39.59 916.81,-23.56 984.61,-15.82"/>
<polygon fill="midnightblue" stroke="midnightblue" points="985.35,-19.26 994.89,-14.65 984.56,-12.3 985.35,-19.26"/>
</g>
<!-- Node29 -->
<g id="node29" class="node">
<title>Node29</title>
<g id="a_node29"><a xlink:title=" ">
<polygon fill="white" stroke="#bfbfbf" points="601.89,-0.5 601.89,-19.5 654.89,-19.5 654.89,-0.5 601.89,-0.5"/>
<text text-anchor="middle" x="628.39" y="-7.5" font-family="Helvetica,sans-Serif" font-size="10.00">cstddef</text>
</a>
</g>
</g>
<!-- Node28&#45;&gt;Node29 -->
<g id="edge35" class="edge">
<title>Node28&#45;&gt;Node29</title>
<path fill="none" stroke="midnightblue" d="M612.53,-56.08C615.07,-48.85 618.75,-38.41 621.92,-29.4"/>
<polygon fill="midnightblue" stroke="midnightblue" points="625.3,-30.35 625.31,-19.75 618.69,-28.02 625.3,-30.35"/>
</g>
<!-- Node30 -->
<g id="node30" class="node">
<title>Node30</title>
<g id="a_node30"><a xlink:title=" ">
<polygon fill="white" stroke="#bfbfbf" points="514.89,-0.5 514.89,-19.5 583.89,-19.5 583.89,-0.5 514.89,-0.5"/>
<text text-anchor="middle" x="549.39" y="-7.5" font-family="Helvetica,sans-Serif" font-size="10.00">type_traits</text>
</a>
</g>
</g>
<!-- Node28&#45;&gt;Node30 -->
<g id="edge37" class="edge">
<title>Node28&#45;&gt;Node30</title>
<path fill="none" stroke="midnightblue" d="M599.75,-56.32C590.88,-48.34 577.52,-36.31 566.78,-26.65"/>
<polygon fill="midnightblue" stroke="midnightblue" points="568.98,-23.92 559.21,-19.83 564.3,-29.13 568.98,-23.92"/>
</g>
<!-- Node32 -->
<g id="node32" class="node">
<title>Node32</title>
<g id="a_node32"><a xlink:title=" ">
<polygon fill="white" stroke="#bfbfbf" points="691.39,-0.5 691.39,-19.5 743.39,-19.5 743.39,-0.5 691.39,-0.5"/>
<text text-anchor="middle" x="717.39" y="-7.5" font-family="Helvetica,sans-Serif" font-size="10.00">cassert</text>
</a>
</g>
</g>
<!-- Node31&#45;&gt;Node32 -->
<g id="edge39" class="edge">
<title>Node31&#45;&gt;Node32</title>
<path fill="none" stroke="midnightblue" d="M717.39,-56.08C717.39,-49.01 717.39,-38.86 717.39,-29.99"/>
<polygon fill="midnightblue" stroke="midnightblue" points="720.89,-29.75 717.39,-19.75 713.89,-29.75 720.89,-29.75"/>
</g>
<!-- Node36&#45;&gt;Node2 -->
<g id="edge47" class="edge">
<title>Node36&#45;&gt;Node2</title>
<path fill="none" stroke="midnightblue" d="M1311.82,-117.18C1285.88,-115.46 1254.56,-113.49 1226.39,-112 847.92,-91.93 752.11,-107.21 374.39,-76 365.05,-75.23 355.06,-74.16 345.56,-73.02"/>
<polygon fill="midnightblue" stroke="midnightblue" points="345.85,-69.53 335.5,-71.78 345,-76.48 345.85,-69.53"/>
</g>
<!-- Node36&#45;&gt;Node9 -->
<g id="edge51" class="edge">
<title>Node36&#45;&gt;Node9</title>
<path fill="none" stroke="midnightblue" d="M1351.81,-112.32C1336.39,-103.74 1312.58,-90.49 1294.68,-80.52"/>
<polygon fill="midnightblue" stroke="midnightblue" points="1296.38,-77.46 1285.94,-75.65 1292.97,-83.58 1296.38,-77.46"/>
</g>
<!-- Node36&#45;&gt;Node10 -->
<g id="edge48" class="edge">
<title>Node36&#45;&gt;Node10</title>
<path fill="none" stroke="midnightblue" d="M1395.76,-112.44C1426.13,-103.28 1474.5,-88.69 1508.21,-78.52"/>
<polygon fill="midnightblue" stroke="midnightblue" points="1509.6,-81.76 1518.16,-75.52 1507.58,-75.05 1509.6,-81.76"/>
</g>
<!-- Node36&#45;&gt;Node23 -->
<g id="edge49" class="edge">
<title>Node36&#45;&gt;Node23</title>
<path fill="none" stroke="midnightblue" d="M1311.78,-112.68C1238.9,-101.78 1112.74,-82.91 1047.74,-73.19"/>
<polygon fill="midnightblue" stroke="midnightblue" points="1047.88,-69.67 1037.48,-71.65 1046.85,-76.59 1047.88,-69.67"/>
</g>
<!-- Node36&#45;&gt;Node26 -->
<g id="edge50" class="edge">
<title>Node36&#45;&gt;Node26</title>
<path fill="none" stroke="midnightblue" d="M1360.51,-112.14C1348.82,-97.77 1323.59,-69.63 1295.39,-56 1221.77,-20.4 1124.99,-12.38 1070.15,-10.91"/>
<polygon fill="midnightblue" stroke="midnightblue" points="1070.16,-7.41 1060.09,-10.7 1070.02,-14.41 1070.16,-7.41"/>
</g>
<!-- Node37 -->
<g id="node37" class="node">
<title>Node37</title>
<g id="a_node37"><a xlink:title=" ">
<polygon fill="white" stroke="#bfbfbf" points="1342.89,-56.5 1342.89,-75.5 1387.89,-75.5 1387.89,-56.5 1342.89,-56.5"/>
<text text-anchor="middle" x="1365.39" y="-63.5" font-family="Helvetica,sans-Serif" font-size="10.00">utility</text>
</a>
</g>
</g>
<!-- Node36&#45;&gt;Node37 -->
<g id="edge52" class="edge">
<title>Node36&#45;&gt;Node37</title>
<path fill="none" stroke="midnightblue" d="M1367.06,-112.08C1366.8,-105.01 1366.42,-94.86 1366.1,-85.99"/>
<polygon fill="midnightblue" stroke="midnightblue" points="1369.58,-85.61 1365.72,-75.75 1362.59,-85.87 1369.58,-85.61"/>
</g>
<!-- Node36&#45;&gt;Node38 -->
<g id="edge53" class="edge">
<title>Node36&#45;&gt;Node38</title>
<path fill="none" stroke="midnightblue" d="M1381.05,-112.32C1394.31,-103.9 1414.66,-90.97 1430.24,-81.07"/>
<polygon fill="midnightblue" stroke="midnightblue" points="1432.21,-83.97 1438.77,-75.65 1428.45,-78.06 1432.21,-83.97"/>
</g>
</g>
</svg>
        <g id="navigator" transform="translate(0 0)" fill="#404254">
                <rect fill="#f2f5e9" fill-opacity="0.5" stroke="#606060" stroke-width=".5" x="0" y="0" width="60" height="60"/>
                <use id="zoomplus" xlink:href="#zoomPlus" x="17" y="9" onmousedown="handleZoom(evt,'in')"/>
                <use id="zoomminus" xlink:href="#zoomMin" x="42" y="9" onmousedown="handleZoom(evt,'out')"/>
                <use id="reset" xlink:href="#resetDef" x="30" y="36" onmousedown="handleReset()"/>
                <g id="arrowUp" xlink:href="#dirArrow" transform="translate(30 24)" onmousedown="handlePan(0,-1)">
                  <use xlink:href="#rim" fill="#404040">
                        <set attributeName="fill" to="#808080" begin="arrowUp.mouseover" end="arrowUp.mouseout"/>
                  </use>
                  <path fill="none" stroke="white" stroke-width="1.5" d="M0,-3.0v7 M-2.5,-0.5L0,-3.0L2.5,-0.5"/>
                </g>
                <g id="arrowRight" xlink:href="#dirArrow" transform="rotate(90) translate(36 -43)" onmousedown="handlePan(1,0)">
                  <use xlink:href="#rim" fill="#404040">
                        <set attributeName="fill" to="#808080" begin="arrowRight.mouseover" end="arrowRight.mouseout"/>
                  </use>
                  <path fill="none" stroke="white" stroke-width="1.5" d="M0,-3.0v7 M-2.5,-0.5L0,-3.0L2.5,-0.5"/>
                </g>
                <g id="arrowDown" xlink:href="#dirArrow" transform="rotate(180) translate(-30 -48)" onmousedown="handlePan(0,1)">
                  <use xlink:href="#rim" fill="#404040">
                        <set attributeName="fill" to="#808080" begin="arrowDown.mouseover" end="arrowDown.mouseout"/>
                  </use>
                  <path fill="none" stroke="white" stroke-width="1.5" d="M0,-3.0v7 M-2.5,-0.5L0,-3.0L2.5,-0.5"/>
                </g>
                <g id="arrowLeft" xlink:href="#dirArrow" transform="rotate(270) translate(-36 17)" onmousedown="handlePan(-1,0)">
                  <use xlink:href="#rim" fill="#404040">
                        <set attributeName="fill" to="#808080" begin="arrowLeft.mouseover" end="arrowLeft.mouseout"/>
                  </use>
                  <path fill="none" stroke="white" stroke-width="1.5" d="M0,-3.0v7 M-2.5,-0.5L0,-3.0L2.5,-0.5"/>
                </g>
        </g>
        <svg viewBox="0 0 15 15" width="100%" height="30px" preserveAspectRatio="xMaxYMin meet">
         <g id="arrow_out" transform="scale(0.3 0.3)">
          <a xlink:href="MarkDown_8h__incl_org.svg" target="_base">
           <rect id="button" ry="5" rx="5" y="6" x="6" height="38" width="38"
                fill="#f2f5e9" fill-opacity="0.5" stroke="#606060" stroke-width="1.0"/>
           <path id="arrow"
             d="M 11.500037,31.436501 C 11.940474,20.09759 22.043105,11.32322 32.158766,21.979434 L 37.068811,17.246167 C 37.068811,17.246167 37.088388,32 37.088388,32 L 22.160133,31.978069 C 22.160133,31.978069 26.997745,27.140456 26.997745,27.140456 C 18.528582,18.264221 13.291696,25.230495 11.500037,31.436501 z"
             style="fill:#404040;"/>
          </a>
         </g>
        </svg>
</svg>
