<?xml version="1.0" encoding="UTF-8" standalone="no"?>
<!DOCTYPE svg PUBLIC "-//W3C//DTD SVG 1.1//EN"
 "http://www.w3.org/Graphics/SVG/1.1/DTD/svg11.dtd">
<!-- Generated by graphviz version 2.43.0 (0)
 -->
<!-- Title: src/MathParser.h Pages: 1 -->
<svg width="1582pt" height="203pt"
 viewBox="0.00 0.00 1581.50 203.00" xmlns="http://www.w3.org/2000/svg" xmlns:xlink="http://www.w3.org/1999/xlink">
<g id="graph0" class="graph" transform="scale(1 1) rotate(0) translate(4 199)">
<title>src/MathParser.h</title>
<!-- Node1 -->
<g id="node1" class="node">
<title>Node1</title>
<g id="a_node1"><a xlink:title="The header file for the xml cell parser.">
<polygon fill="#999999" stroke="#666666" points="1026,-195 929,-195 929,-176 1026,-176 1026,-195"/>
<text text-anchor="middle" x="977.5" y="-183" font-family="Helvetica,sans-Serif" font-size="10.00">src/MathParser.h</text>
</a>
</g>
</g>
<!-- Node2 -->
<g id="node2" class="node">
<title>Node2</title>
<g id="a_node2"><a xlink:href="MathParser_8cpp.html" target="_top" xlink:title="This file defines the class MathParser that reads wxmx data and math from Maxima.">
<polygon fill="white" stroke="#666666" points="750.5,-134.5 642.5,-134.5 642.5,-115.5 750.5,-115.5 750.5,-134.5"/>
<text text-anchor="middle" x="696.5" y="-122.5" font-family="Helvetica,sans-Serif" font-size="10.00">src/MathParser.cpp</text>
</a>
</g>
</g>
<!-- Node1&#45;&gt;Node2 -->
<g id="edge1" class="edge">
<title>Node1&#45;&gt;Node2</title>
<path fill="none" stroke="#63b8ff" d="M926.55,-173.89C872.29,-162.6 787.48,-144.94 737.41,-134.52"/>
<polygon fill="#63b8ff" stroke="#63b8ff" points="926.14,-177.38 936.64,-175.99 927.56,-170.53 926.14,-177.38"/>
</g>
<!-- Node3 -->
<g id="node3" class="node">
<title>Node3</title>
<g id="a_node3"><a xlink:href="MaximaOutputAppender_8cpp.html" target="_top" xlink:title="Implements the worksheet output appenders extracted from the wxMaxima god class.">
<polygon fill="white" stroke="#666666" points="173,-74 0,-74 0,-55 173,-55 173,-74"/>
<text text-anchor="middle" x="86.5" y="-62" font-family="Helvetica,sans-Serif" font-size="10.00">src/MaximaOutputAppender.cpp</text>
</a>
</g>
</g>
<!-- Node1&#45;&gt;Node3 -->
<g id="edge2" class="edge">
<title>Node1&#45;&gt;Node3</title>
<path fill="none" stroke="#63b8ff" d="M919.02,-176.52C882.71,-170.03 835.82,-158.76 797.5,-140 778.17,-130.54 779.6,-117.69 759.5,-110 639.3,-64.03 309.82,-83.74 181.5,-74 178.78,-73.79 176.01,-73.58 173.21,-73.36"/>
<polygon fill="#63b8ff" stroke="#63b8ff" points="918.52,-179.99 928.97,-178.23 919.71,-173.09 918.52,-179.99"/>
</g>
<!-- Node4 -->
<g id="node4" class="node">
<title>Node4</title>
<g id="a_node4"><a xlink:href="main_8h.html" target="_top" xlink:title="This file declares the class wxMaxima that contains most of the program&#39;s logic.">
<polygon fill="white" stroke="#666666" points="1481.5,-74 1413.5,-74 1413.5,-55 1481.5,-55 1481.5,-74"/>
<text text-anchor="middle" x="1447.5" y="-62" font-family="Helvetica,sans-Serif" font-size="10.00">src/main.h</text>
</a>
</g>
</g>
<!-- Node1&#45;&gt;Node4 -->
<g id="edge3" class="edge">
<title>Node1&#45;&gt;Node4</title>
<path fill="none" stroke="#63b8ff" d="M962.68,-167.29C950.27,-150.75 936.76,-125.97 951.5,-110 985.37,-73.3 1349.97,-80.36 1399.5,-74 1404.03,-73.42 1408.79,-72.7 1413.47,-71.94"/>
<polygon fill="#63b8ff" stroke="#63b8ff" points="960.29,-169.91 969.27,-175.53 965.76,-165.54 960.29,-169.91"/>
</g>
<!-- Node8 -->
<g id="node8" class="node">
<title>Node8</title>
<g id="a_node8"><a xlink:href="wxMaxima_8h.html" target="_top" xlink:title="This file declares the class wxMaxima that contains most of the program&#39;s logic.">
<polygon fill="white" stroke="#666666" points="904,-134.5 807,-134.5 807,-115.5 904,-115.5 904,-134.5"/>
<text text-anchor="middle" x="855.5" y="-122.5" font-family="Helvetica,sans-Serif" font-size="10.00">src/wxMaxima.h</text>
</a>
</g>
</g>
<!-- Node1&#45;&gt;Node8 -->
<g id="edge7" class="edge">
<title>Node1&#45;&gt;Node8</title>
<path fill="none" stroke="#63b8ff" d="M950.67,-171.63C927.14,-160.35 893.6,-144.27 873.26,-134.52"/>
<polygon fill="#63b8ff" stroke="#63b8ff" points="949.23,-174.83 959.76,-175.99 952.26,-168.51 949.23,-174.83"/>
</g>
<!-- Node16 -->
<g id="node16" class="node">
<title>Node16</title>
<g id="a_node16"><a xlink:href="test__LayoutInvariants_8cpp.html" target="_top" xlink:title="Layout idempotency invariants.">
<polygon fill="white" stroke="#666666" points="1084.5,-140 960.5,-140 960.5,-110 1084.5,-110 1084.5,-140"/>
<text text-anchor="start" x="968.5" y="-128" font-family="Helvetica,sans-Serif" font-size="10.00">test/unit_tests/test</text>
<text text-anchor="middle" x="1022.5" y="-117" font-family="Helvetica,sans-Serif" font-size="10.00">_LayoutInvariants.cpp</text>
</a>
</g>
</g>
<!-- Node1&#45;&gt;Node16 -->
<g id="edge19" class="edge">
<title>Node1&#45;&gt;Node16</title>
<path fill="none" stroke="#63b8ff" d="M990.28,-167.88C997.03,-159.11 1005.21,-148.48 1011.64,-140.11"/>
<polygon fill="#63b8ff" stroke="#63b8ff" points="987.46,-165.81 984.14,-175.87 993.01,-170.08 987.46,-165.81"/>
</g>
<!-- Node17 -->
<g id="node17" class="node">
<title>Node17</title>
<g id="a_node17"><a xlink:href="test__WXMXRoundtrip_8cpp.html" target="_top" xlink:title="Round&#45;trip tests for the .wxmx content.xml (the MathML&#45;like math format).">
<polygon fill="white" stroke="#666666" points="1224.5,-140 1102.5,-140 1102.5,-110 1224.5,-110 1224.5,-140"/>
<text text-anchor="start" x="1110.5" y="-128" font-family="Helvetica,sans-Serif" font-size="10.00">test/unit_tests/test</text>
<text text-anchor="middle" x="1163.5" y="-117" font-family="Helvetica,sans-Serif" font-size="10.00">_WXMXRoundtrip.cpp</text>
</a>
</g>
</g>
<!-- Node1&#45;&gt;Node17 -->
<g id="edge20" class="edge">
<title>Node1&#45;&gt;Node17</title>
<path fill="none" stroke="#63b8ff" d="M1014.21,-172.95C1044.23,-163.51 1086.78,-150.13 1118.78,-140.06"/>
<polygon fill="#63b8ff" stroke="#63b8ff" points="1013.04,-169.65 1004.55,-175.99 1015.14,-176.33 1013.04,-169.65"/>
</g>
<!-- Node18 -->
<g id="node18" class="node">
<title>Node18</title>
<g id="a_node18"><a xlink:href="test__WorksheetClipboard_8cpp.html" target="_top" xlink:title="Safety net for the multi&#45;format clipboard / drag&#45;and&#45;drop payload of Worksheet.">
<polygon fill="white" stroke="#666666" points="1382.5,-140 1242.5,-140 1242.5,-110 1382.5,-110 1382.5,-140"/>
<text text-anchor="start" x="1250.5" y="-128" font-family="Helvetica,sans-Serif" font-size="10.00">test/unit_tests/test</text>
<text text-anchor="middle" x="1312.5" y="-117" font-family="Helvetica,sans-Serif" font-size="10.00">_WorksheetClipboard.cpp</text>
</a>
</g>
</g>
<!-- Node1&#45;&gt;Node18 -->
<g id="edge21" class="edge">
<title>Node1&#45;&gt;Node18</title>
<path fill="none" stroke="#63b8ff" d="M1036.13,-174.36C1088.03,-165.38 1165.81,-151.88 1233.5,-140 1236.38,-139.49 1239.32,-138.98 1242.29,-138.45"/>
<polygon fill="#63b8ff" stroke="#63b8ff" points="1035.37,-170.95 1026.11,-176.1 1036.56,-177.84 1035.37,-170.95"/>
</g>
<!-- Node19 -->
<g id="node19" class="node">
<title>Node19</title>
<g id="a_node19"><a xlink:href="test__WorksheetExport_8cpp.html" target="_top" xlink:title="Safety net for the export/serialization cluster of Worksheet.">
<polygon fill="white" stroke="#666666" points="1526,-140 1401,-140 1401,-110 1526,-110 1526,-140"/>
<text text-anchor="start" x="1409" y="-128" font-family="Helvetica,sans-Serif" font-size="10.00">test/unit_tests/test</text>
<text text-anchor="middle" x="1463.5" y="-117" font-family="Helvetica,sans-Serif" font-size="10.00">_WorksheetExport.cpp</text>
</a>
</g>
</g>
<!-- Node1&#45;&gt;Node19 -->
<g id="edge22" class="edge">
<title>Node1&#45;&gt;Node19</title>
<path fill="none" stroke="#63b8ff" d="M1036.53,-179.74C1117.03,-172.9 1265.62,-158.97 1391.5,-140 1394.52,-139.54 1397.61,-139.05 1400.73,-138.53"/>
<polygon fill="#63b8ff" stroke="#63b8ff" points="1035.78,-176.29 1026.11,-180.62 1036.37,-183.27 1035.78,-176.29"/>
</g>
<!-- Node5 -->
<g id="node5" class="node">
<title>Node5</title>
<g id="a_node5"><a xlink:href="MaximaManual_8cpp.html" target="_top" xlink:title="This file defines the class MaximaManual.">
<polygon fill="white" stroke="#666666" points="1573.5,-19 1443.5,-19 1443.5,0 1573.5,0 1573.5,-19"/>
<text text-anchor="middle" x="1508.5" y="-7" font-family="Helvetica,sans-Serif" font-size="10.00">src/MaximaManual.cpp</text>
</a>
</g>
</g>
<!-- Node4&#45;&gt;Node5 -->
<g id="edge4" class="edge">
<title>Node4&#45;&gt;Node5</title>
<path fill="none" stroke="#63b8ff" d="M1464.97,-48.32C1475.84,-38.87 1489.44,-27.06 1498.52,-19.17"/>
<polygon fill="#63b8ff" stroke="#63b8ff" points="1462.55,-45.78 1457.3,-54.98 1467.15,-51.07 1462.55,-45.78"/>
</g>
<!-- Node6 -->
<g id="node6" class="node">
<title>Node6</title>
<g id="a_node6"><a xlink:href="main_8cpp.html" target="_top" xlink:title="The file that defines the starting point of the program.">
<polygon fill="white" stroke="#666666" points="1425,-19 1346,-19 1346,0 1425,0 1425,-19"/>
<text text-anchor="middle" x="1385.5" y="-7" font-family="Helvetica,sans-Serif" font-size="10.00">src/main.cpp</text>
</a>
</g>
</g>
<!-- Node4&#45;&gt;Node6 -->
<g id="edge5" class="edge">
<title>Node4&#45;&gt;Node6</title>
<path fill="none" stroke="#63b8ff" d="M1429.75,-48.32C1418.69,-38.87 1404.87,-27.06 1395.64,-19.17"/>
<polygon fill="#63b8ff" stroke="#63b8ff" points="1427.66,-51.15 1437.54,-54.98 1432.21,-45.83 1427.66,-51.15"/>
</g>
<!-- Node7 -->
<g id="node7" class="node">
<title>Node7</title>
<g id="a_node7"><a xlink:href="wxMaxima_8cpp.html" target="_top" xlink:title="This file defines the contents of the class wxMaxima that contains most of the program&#39;s logic.">
<polygon fill="white" stroke="#666666" points="1118.5,-19 1010.5,-19 1010.5,0 1118.5,0 1118.5,-19"/>
<text text-anchor="middle" x="1064.5" y="-7" font-family="Helvetica,sans-Serif" font-size="10.00">src/wxMaxima.cpp</text>
</a>
</g>
</g>
<!-- Node4&#45;&gt;Node7 -->
<g id="edge6" class="edge">
<title>Node4&#45;&gt;Node7</title>
<path fill="none" stroke="#63b8ff" d="M1402.84,-57.32C1332.17,-47.54 1194.8,-28.53 1118.64,-17.99"/>
<polygon fill="#63b8ff" stroke="#63b8ff" points="1402.79,-60.85 1413.17,-58.75 1403.75,-53.91 1402.79,-60.85"/>
</g>
<!-- Node8&#45;&gt;Node3 -->
<g id="edge11" class="edge">
<title>Node8&#45;&gt;Node3</title>
<path fill="none" stroke="#63b8ff" d="M811.75,-113.34C805.33,-112.04 798.76,-110.87 792.5,-110 523.09,-72.37 452.78,-94.12 181.5,-74 178.78,-73.8 176.01,-73.59 173.21,-73.37"/>
<polygon fill="#63b8ff" stroke="#63b8ff" points="811.17,-116.79 821.68,-115.44 812.62,-109.94 811.17,-116.79"/>
</g>
<!-- Node8&#45;&gt;Node4 -->
<g id="edge17" class="edge">
<title>Node8&#45;&gt;Node4</title>
<path fill="none" stroke="#63b8ff" d="M899.48,-113.38C905.84,-112.09 912.32,-110.91 918.5,-110 1130.57,-78.67 1186.8,-100.72 1399.5,-74 1404.03,-73.43 1408.79,-72.72 1413.48,-71.96"/>
<polygon fill="#63b8ff" stroke="#63b8ff" points="898.72,-109.97 889.66,-115.47 900.17,-116.81 898.72,-109.97"/>
</g>
<!-- Node8&#45;&gt;Node6 -->
<g id="edge16" class="edge">
<title>Node8&#45;&gt;Node6</title>
<path fill="none" stroke="#63b8ff" d="M913.6,-113.92C922.91,-112.48 932.46,-111.12 941.5,-110 988.53,-104.19 1329.72,-103.88 1366.5,-74 1383.11,-60.5 1385.61,-33.1 1385.74,-19.12"/>
<polygon fill="#63b8ff" stroke="#63b8ff" points="912.95,-110.48 903.62,-115.5 914.04,-117.39 912.95,-110.48"/>
</g>
<!-- Node8&#45;&gt;Node7 -->
<g id="edge18" class="edge">
<title>Node8&#45;&gt;Node7</title>
<path fill="none" stroke="#63b8ff" d="M855.64,-105.35C856.78,-89.76 860.95,-68.03 874.5,-55 893.73,-36.5 961.21,-23.92 1010.3,-16.98"/>
<polygon fill="#63b8ff" stroke="#63b8ff" points="852.14,-105.28 855.25,-115.41 859.13,-105.55 852.14,-105.28"/>
</g>
<!-- Node9 -->
<g id="node9" class="node">
<title>Node9</title>
<g id="a_node9"><a xlink:href="MaximaCommandMenus_8cpp.html" target="_top" xlink:title="Implementation of the menu&#45;command handlers extracted from wxMaxima &#45; see MaximaCommandMenus....">
<polygon fill="white" stroke="#666666" points="1059.5,-74 883.5,-74 883.5,-55 1059.5,-55 1059.5,-74"/>
<text text-anchor="middle" x="971.5" y="-62" font-family="Helvetica,sans-Serif" font-size="10.00">src/MaximaCommandMenus.cpp</text>
</a>
</g>
</g>
<!-- Node8&#45;&gt;Node9 -->
<g id="edge8" class="edge">
<title>Node8&#45;&gt;Node9</title>
<path fill="none" stroke="#63b8ff" d="M881.82,-110.73C904.03,-99.53 935.18,-83.82 954.31,-74.17"/>
<polygon fill="#63b8ff" stroke="#63b8ff" points="879.97,-107.74 872.62,-115.37 883.12,-113.99 879.97,-107.74"/>
</g>
<!-- Node10 -->
<g id="node10" class="node">
<title>Node10</title>
<g id="a_node10"><a xlink:href="MaximaEvaluator_8cpp.html" target="_top" xlink:title="Implements the evaluation&#45;queue driver extracted from the wxMaxima god class.">
<polygon fill="white" stroke="#666666" points="1217.5,-74 1077.5,-74 1077.5,-55 1217.5,-55 1217.5,-74"/>
<text text-anchor="middle" x="1147.5" y="-62" font-family="Helvetica,sans-Serif" font-size="10.00">src/MaximaEvaluator.cpp</text>
</a>
</g>
</g>
<!-- Node8&#45;&gt;Node10 -->
<g id="edge9" class="edge">
<title>Node8&#45;&gt;Node10</title>
<path fill="none" stroke="#63b8ff" d="M903.04,-113.29C908.26,-112.16 913.49,-111.04 918.5,-110 981.94,-96.79 1055.53,-82.71 1101.81,-74.01"/>
<polygon fill="#63b8ff" stroke="#63b8ff" points="902.13,-109.91 893.11,-115.47 903.63,-116.75 902.13,-109.91"/>
</g>
<!-- Node11 -->
<g id="node11" class="node">
<title>Node11</title>
<g id="a_node11"><a xlink:href="MaximaFileIO_8cpp.html" target="_top" xlink:title="Implements the worksheet file loaders/savers extracted from the wxMaxima god class.">
<polygon fill="white" stroke="#666666" points="1357.5,-74 1235.5,-74 1235.5,-55 1357.5,-55 1357.5,-74"/>
<text text-anchor="middle" x="1296.5" y="-62" font-family="Helvetica,sans-Serif" font-size="10.00">src/MaximaFileIO.cpp</text>
</a>
</g>
</g>
<!-- Node8&#45;&gt;Node11 -->
<g id="edge10" class="edge">
<title>Node8&#45;&gt;Node11</title>
<path fill="none" stroke="#63b8ff" d="M900.85,-113.34C906.77,-112.12 912.77,-110.97 918.5,-110 1054.39,-87.02 1089.65,-90.31 1226.5,-74 1229.42,-73.65 1232.4,-73.3 1235.42,-72.93"/>
<polygon fill="#63b8ff" stroke="#63b8ff" points="900.07,-109.93 891.03,-115.44 901.54,-116.77 900.07,-109.93"/>
</g>
<!-- Node12 -->
<g id="node12" class="node">
<title>Node12</title>
<g id="a_node12"><a xlink:href="MaximaProcessManager_8cpp.html" target="_top" xlink:title="Implements the Maxima process/socket lifecycle extracted from the wxMaxima god class.">
<polygon fill="white" stroke="#666666" points="364,-74 191,-74 191,-55 364,-55 364,-74"/>
<text text-anchor="middle" x="277.5" y="-62" font-family="Helvetica,sans-Serif" font-size="10.00">src/MaximaProcessManager.cpp</text>
</a>
</g>
</g>
<!-- Node8&#45;&gt;Node12 -->
<g id="edge12" class="edge">
<title>Node8&#45;&gt;Node12</title>
<path fill="none" stroke="#63b8ff" d="M810.83,-113.31C804.7,-112.06 798.46,-110.91 792.5,-110 607.31,-81.62 559.14,-90.35 372.5,-74 369.78,-73.76 367.01,-73.52 364.22,-73.27"/>
<polygon fill="#63b8ff" stroke="#63b8ff" points="810.49,-116.81 821,-115.46 811.94,-109.96 810.49,-116.81"/>
</g>
<!-- Node13 -->
<g id="node13" class="node">
<title>Node13</title>
<g id="a_node13"><a xlink:href="MaximaResponseReader_8cpp.html" target="_top" xlink:title="Implements the Maxima&#45;response handlers extracted from the wxMaxima god class.">
<polygon fill="white" stroke="#666666" points="557,-74 382,-74 382,-55 557,-55 557,-74"/>
<text text-anchor="middle" x="469.5" y="-62" font-family="Helvetica,sans-Serif" font-size="10.00">src/MaximaResponseReader.cpp</text>
</a>
</g>
</g>
<!-- Node8&#45;&gt;Node13 -->
<g id="edge13" class="edge">
<title>Node8&#45;&gt;Node13</title>
<path fill="none" stroke="#63b8ff" d="M809.48,-113.32C803.78,-112.13 798.01,-110.99 792.5,-110 707.82,-94.78 609.82,-81.95 544.18,-74.03"/>
<polygon fill="#63b8ff" stroke="#63b8ff" points="809.11,-116.82 819.62,-115.49 810.58,-109.97 809.11,-116.82"/>
</g>
<!-- Node14 -->
<g id="node14" class="node">
<title>Node14</title>
<g id="a_node14"><a xlink:href="Worksheet_8cpp.html" target="_top" xlink:title="This file defines the class Worksheet.">
<polygon fill="white" stroke="#666666" points="681.5,-74 575.5,-74 575.5,-55 681.5,-55 681.5,-74"/>
<text text-anchor="middle" x="628.5" y="-62" font-family="Helvetica,sans-Serif" font-size="10.00">src/Worksheet.cpp</text>
</a>
</g>
</g>
<!-- Node8&#45;&gt;Node14 -->
<g id="edge14" class="edge">
<title>Node8&#45;&gt;Node14</title>
<path fill="none" stroke="#63b8ff" d="M812.69,-112.97C768.8,-101.66 701.49,-84.31 661.55,-74.02"/>
<polygon fill="#63b8ff" stroke="#63b8ff" points="811.94,-116.39 822.49,-115.49 813.68,-109.61 811.94,-116.39"/>
</g>
<!-- Node15 -->
<g id="node15" class="node">
<title>Node15</title>
<g id="a_node15"><a xlink:href="EditorCell_8cpp.html" target="_top" xlink:title="This file defines the class EditorCell.">
<polygon fill="white" stroke="#666666" points="827,-74 700,-74 700,-55 827,-55 827,-74"/>
<text text-anchor="middle" x="763.5" y="-62" font-family="Helvetica,sans-Serif" font-size="10.00">src/cells/EditorCell.cpp</text>
</a>
</g>
</g>
<!-- Node8&#45;&gt;Node15 -->
<g id="edge15" class="edge">
<title>Node8&#45;&gt;Node15</title>
<path fill="none" stroke="#63b8ff" d="M833.43,-109.97C815.91,-98.82 791.97,-83.6 777.13,-74.17"/>
<polygon fill="#63b8ff" stroke="#63b8ff" points="831.61,-112.96 841.93,-115.37 835.36,-107.05 831.61,-112.96"/>
</g>
</g>
</svg>
