<?xml version="1.0" encoding="UTF-8" standalone="no"?>
<!DOCTYPE svg PUBLIC "-//W3C//DTD SVG 1.1//EN"
 "http://www.w3.org/Graphics/SVG/1.1/DTD/svg11.dtd">
<!-- Generated by graphviz version 2.43.0 (0)
 -->
<!-- Title: src/MaximaTokenizer.cpp Pages: 1 -->
<!--zoomable 412 -->
<svg id="main" version="1.1" xmlns="http://www.w3.org/2000/svg" xmlns:xlink="http://www.w3.org/1999/xlink" xml:space="preserve" onload="init(evt)">
<style type="text/css"><![CDATA[
.edge:hover path { stroke: red; }
.edge:hover polygon { stroke: red; fill: red; }
]]></style>
<script type="text/javascript"><![CDATA[
var edges = document.getElementsByTagName('g');
if (edges && edges.length) {
  for (var i=0;i<edges.length;i++) {
    if (edges[i].id.substr(0,4)=='edge') {
      edges[i].setAttribute('class','edge');
    }
  }
}
]]></script>
        <defs>
                <circle id="rim" cx="0" cy="0" r="7"/>
                <circle id="rim2" cx="0" cy="0" r="3.5"/>
                <g id="zoomPlus">
                        <use xlink:href="#rim" fill="#404040">
                                <set attributeName="fill" to="#808080" begin="zoomplus.mouseover" end="zoomplus.mouseout"/>
                        </use>
                        <path d="M-4,0h8M0,-4v8" fill="none" stroke="white" stroke-width="1.5" pointer-events="none"/>
                </g>
                <g id="zoomMin">
                        <use xlink:href="#rim" fill="#404040">
                                <set attributeName="fill" to="#808080" begin="zoomminus.mouseover" end="zoomminus.mouseout"/>
                        </use>
                        <path d="M-4,0h8" fill="none" stroke="white" stroke-width="1.5" pointer-events="none"/>
                </g>
                <g id="dirArrow">
                        <path fill="none" stroke="white" stroke-width="1.5" d="M0,-3.0v7 M-2.5,-0.5L0,-3.0L2.5,-0.5"/>
                </g>
               <g id="resetDef">
                       <use xlink:href="#rim2" fill="#404040">
                               <set attributeName="fill" to="#808080" begin="reset.mouseover" end="reset.mouseout"/>
                       </use>
               </g>
        </defs>

<script type="text/javascript">
var viewWidth = 1710;
var viewHeight = 412;
var sectionId = 'dynsection-0';
</script>
<script xlink:href="svgpan.js"/>
<svg id="graph" class="graph">
<g id="viewport">
<title>src/MaximaTokenizer.cpp</title>
<!-- Node1 -->
<g id="node1" class="node">
<title>Node1</title>
<g id="a_node1"><a xlink:title="This file defines the class ExptCell.">
<polygon fill="#999999" stroke="#666666" points="1460.5,-404 1321.5,-404 1321.5,-385 1460.5,-385 1460.5,-404"/>
<text text-anchor="middle" x="1391" y="-392" font-family="Helvetica,sans-Serif" font-size="10.00">src/MaximaTokenizer.cpp</text>
</a>
</g>
</g>
<!-- Node2 -->
<g id="node2" class="node">
<title>Node2</title>
<g id="a_node2"><a xlink:href="MaximaTokenizer_8h.html" target="_top" xlink:title="This file declares the class Maximatokenizer.">
<polygon fill="white" stroke="#666666" points="1446,-349 1336,-349 1336,-330 1446,-330 1446,-349"/>
<text text-anchor="middle" x="1391" y="-337" font-family="Helvetica,sans-Serif" font-size="10.00">MaximaTokenizer.h</text>
</a>
</g>
</g>
<!-- Node1&#45;&gt;Node2 -->
<g id="edge1" class="edge">
<title>Node1&#45;&gt;Node2</title>
<path fill="none" stroke="#63b8ff" d="M1391,-384.75C1391,-377.8 1391,-367.85 1391,-359.13"/>
<polygon fill="#63b8ff" stroke="#63b8ff" points="1394.5,-359.09 1391,-349.09 1387.5,-359.09 1394.5,-359.09"/>
</g>
<!-- Node4 -->
<g id="node4" class="node">
<title>Node4</title>
<g id="a_node4"><a xlink:title=" ">
<polygon fill="#e0e0e0" stroke="#999999" points="189.5,-184 142.5,-184 142.5,-165 189.5,-165 189.5,-184"/>
<text text-anchor="middle" x="166" y="-172" font-family="Helvetica,sans-Serif" font-size="10.00">vector</text>
</a>
</g>
</g>
<!-- Node1&#45;&gt;Node4 -->
<g id="edge71" class="edge">
<title>Node1&#45;&gt;Node4</title>
<path fill="none" stroke="#63b8ff" d="M1321.5,-393.51C1149.06,-392.15 688.71,-380.04 317,-294 249.85,-278.46 213.78,-293.82 172,-239 162.46,-226.48 161.66,-208.28 162.84,-194.57"/>
<polygon fill="#63b8ff" stroke="#63b8ff" points="166.36,-194.7 164.15,-184.33 159.41,-193.81 166.36,-194.7"/>
</g>
<!-- Node6 -->
<g id="node6" class="node">
<title>Node6</title>
<g id="a_node6"><a xlink:title=" ">
<polygon fill="#e0e0e0" stroke="#999999" points="1557.5,-239 1500.5,-239 1500.5,-220 1557.5,-220 1557.5,-239"/>
<text text-anchor="middle" x="1529" y="-227" font-family="Helvetica,sans-Serif" font-size="10.00">wx/wx.h</text>
</a>
</g>
</g>
<!-- Node1&#45;&gt;Node6 -->
<g id="edge73" class="edge">
<title>Node1&#45;&gt;Node6</title>
<path fill="none" stroke="#63b8ff" d="M1460.7,-392.84C1532.83,-387.96 1642.18,-367.85 1695,-294 1728.19,-247.59 1626.84,-235.1 1567.98,-231.73"/>
<polygon fill="#63b8ff" stroke="#63b8ff" points="1568.04,-228.23 1557.88,-231.22 1567.69,-235.22 1568.04,-228.23"/>
</g>
<!-- Node7 -->
<g id="node7" class="node">
<title>Node7</title>
<g id="a_node7"><a xlink:title=" ">
<polygon fill="#e0e0e0" stroke="#999999" points="1685.5,-294 1614.5,-294 1614.5,-275 1685.5,-275 1685.5,-294"/>
<text text-anchor="middle" x="1650" y="-282" font-family="Helvetica,sans-Serif" font-size="10.00">wx/string.h</text>
</a>
</g>
</g>
<!-- Node1&#45;&gt;Node7 -->
<g id="edge72" class="edge">
<title>Node1&#45;&gt;Node7</title>
<path fill="none" stroke="#63b8ff" d="M1411.76,-384.84C1457.43,-365.8 1566.79,-320.2 1619.96,-298.03"/>
<polygon fill="#63b8ff" stroke="#63b8ff" points="1621.62,-301.13 1629.5,-294.05 1618.93,-294.67 1621.62,-301.13"/>
</g>
<!-- Node9 -->
<g id="node9" class="node">
<title>Node9</title>
<g id="a_node9"><a xlink:href="precomp_8h_source.html" target="_top" xlink:title=" ">
<polygon fill="white" stroke="#666666" points="224,-74 156,-74 156,-55 224,-55 224,-74"/>
<text text-anchor="middle" x="190" y="-62" font-family="Helvetica,sans-Serif" font-size="10.00">precomp.h</text>
</a>
</g>
</g>
<!-- Node1&#45;&gt;Node9 -->
<g id="edge70" class="edge">
<title>Node1&#45;&gt;Node9</title>
<path fill="none" stroke="#63b8ff" d="M1321.07,-391.77C1039,-384.36 0,-352.49 0,-285.5 0,-285.5 0,-285.5 0,-173.5 0,-106.88 89.37,-80.84 145.52,-71.06"/>
<polygon fill="#63b8ff" stroke="#63b8ff" points="146.29,-74.48 155.59,-69.41 145.16,-67.57 146.29,-74.48"/>
</g>
<!-- Node3 -->
<g id="node3" class="node">
<title>Node3</title>
<g id="a_node3"><a xlink:title=" ">
<polygon fill="#e0e0e0" stroke="#999999" points="306.5,-74 261.5,-74 261.5,-55 306.5,-55 306.5,-74"/>
<text text-anchor="middle" x="284" y="-62" font-family="Helvetica,sans-Serif" font-size="10.00">utility</text>
</a>
</g>
</g>
<!-- Node2&#45;&gt;Node3 -->
<g id="edge2" class="edge">
<title>Node2&#45;&gt;Node3</title>
<path fill="none" stroke="#63b8ff" d="M1335.99,-338.54C1145.48,-338.33 514.79,-334.5 317,-294 249.48,-280.17 226.52,-281.16 172,-239 142.59,-216.26 115.37,-197.73 133,-165 158.04,-118.51 215.35,-90.16 251.73,-76.18"/>
<polygon fill="#63b8ff" stroke="#63b8ff" points="253.22,-79.36 261.39,-72.62 250.79,-72.79 253.22,-79.36"/>
</g>
<!-- Node2&#45;&gt;Node4 -->
<g id="edge3" class="edge">
<title>Node2&#45;&gt;Node4</title>
<path fill="none" stroke="#63b8ff" d="M1335.65,-337.39C1111.78,-332.45 280.92,-309.46 189,-239 175.21,-228.43 169.68,-208.81 167.46,-194.17"/>
<polygon fill="#63b8ff" stroke="#63b8ff" points="170.93,-193.72 166.34,-184.17 163.98,-194.5 170.93,-193.72"/>
</g>
<!-- Node5 -->
<g id="node5" class="node">
<title>Node5</title>
<g id="a_node5"><a xlink:title=" ">
<polygon fill="#e0e0e0" stroke="#999999" points="1570,-74 1512,-74 1512,-55 1570,-55 1570,-74"/>
<text text-anchor="middle" x="1541" y="-62" font-family="Helvetica,sans-Serif" font-size="10.00">memory</text>
</a>
</g>
</g>
<!-- Node2&#45;&gt;Node5 -->
<g id="edge4" class="edge">
<title>Node2&#45;&gt;Node5</title>
<path fill="none" stroke="#63b8ff" d="M1446.21,-338.24C1484.78,-335.12 1534.91,-324.74 1567,-294 1588.27,-273.62 1586,-259.96 1586,-230.5 1586,-230.5 1586,-230.5 1586,-173.5 1586,-139.31 1566.54,-103.38 1553.22,-82.79"/>
<polygon fill="#63b8ff" stroke="#63b8ff" points="1555.94,-80.57 1547.45,-74.23 1550.13,-84.48 1555.94,-80.57"/>
</g>
<!-- Node2&#45;&gt;Node6 -->
<g id="edge5" class="edge">
<title>Node2&#45;&gt;Node6</title>
<path fill="none" stroke="#63b8ff" d="M1402.29,-329.66C1425.86,-311.22 1480.51,-268.45 1509.74,-245.57"/>
<polygon fill="#63b8ff" stroke="#63b8ff" points="1512.22,-248.08 1517.94,-239.16 1507.9,-242.57 1512.22,-248.08"/>
</g>
<!-- Node2&#45;&gt;Node7 -->
<g id="edge6" class="edge">
<title>Node2&#45;&gt;Node7</title>
<path fill="none" stroke="#63b8ff" d="M1432.61,-329.98C1479.6,-320.37 1555.83,-304.77 1604.4,-294.83"/>
<polygon fill="#63b8ff" stroke="#63b8ff" points="1605.23,-298.23 1614.33,-292.8 1603.83,-291.38 1605.23,-298.23"/>
</g>
<!-- Node8 -->
<g id="node8" class="node">
<title>Node8</title>
<g id="a_node8"><a xlink:title=" ">
<polygon fill="#e0e0e0" stroke="#999999" points="1558,-294 1490,-294 1490,-275 1558,-275 1558,-294"/>
<text text-anchor="middle" x="1524" y="-282" font-family="Helvetica,sans-Serif" font-size="10.00">wx/arrstr.h</text>
</a>
</g>
</g>
<!-- Node2&#45;&gt;Node8 -->
<g id="edge7" class="edge">
<title>Node2&#45;&gt;Node8</title>
<path fill="none" stroke="#63b8ff" d="M1412.37,-329.98C1434.15,-321.3 1468.16,-307.75 1492.92,-297.88"/>
<polygon fill="#63b8ff" stroke="#63b8ff" points="1494.25,-301.12 1502.24,-294.17 1491.66,-294.62 1494.25,-301.12"/>
</g>
<!-- Node2&#45;&gt;Node9 -->
<g id="edge8" class="edge">
<title>Node2&#45;&gt;Node9</title>
<path fill="none" stroke="#63b8ff" d="M1335.71,-338.95C1134.89,-340.18 444.69,-340.82 230,-294 157.67,-278.23 76,-304.53 76,-230.5 76,-230.5 76,-230.5 76,-173.5 76,-127.47 125.58,-95.18 159.35,-78.53"/>
<polygon fill="#63b8ff" stroke="#63b8ff" points="161.28,-81.49 168.82,-74.05 158.29,-75.16 161.28,-81.49"/>
</g>
<!-- Node11 -->
<g id="node11" class="node">
<title>Node11</title>
<g id="a_node11"><a xlink:href="TextStyle_8h.html" target="_top" xlink:title="This file declares everything needed for the text style system used to style all the elements on the ...">
<polygon fill="white" stroke="#666666" points="978,-184 882,-184 882,-165 978,-165 978,-184"/>
<text text-anchor="middle" x="930" y="-172" font-family="Helvetica,sans-Serif" font-size="10.00">cells/TextStyle.h</text>
</a>
</g>
</g>
<!-- Node2&#45;&gt;Node11 -->
<g id="edge10" class="edge">
<title>Node2&#45;&gt;Node11</title>
<path fill="none" stroke="#63b8ff" d="M1384.05,-329.76C1365.53,-307.17 1312.31,-246.72 1253,-220 1207,-199.28 1068.47,-185.84 988.56,-179.59"/>
<polygon fill="#63b8ff" stroke="#63b8ff" points="988.4,-176.07 978.16,-178.79 987.87,-183.04 988.4,-176.07"/>
</g>
<!-- Node31 -->
<g id="node31" class="node">
<title>Node31</title>
<g id="a_node31"><a xlink:title=" ">
<polygon fill="#e0e0e0" stroke="#999999" points="1493.5,-74 1400.5,-74 1400.5,-55 1493.5,-55 1493.5,-74"/>
<text text-anchor="middle" x="1447" y="-62" font-family="Helvetica,sans-Serif" font-size="10.00">unordered_map</text>
</a>
</g>
</g>
<!-- Node2&#45;&gt;Node31 -->
<g id="edge69" class="edge">
<title>Node2&#45;&gt;Node31</title>
<path fill="none" stroke="#63b8ff" d="M1392.8,-329.73C1400.68,-291.3 1432.25,-137.38 1443.22,-83.91"/>
<polygon fill="#63b8ff" stroke="#63b8ff" points="1446.65,-84.6 1445.23,-74.11 1439.8,-83.2 1446.65,-84.6"/>
</g>
<!-- Node32 -->
<g id="node32" class="node">
<title>Node32</title>
<g id="a_node32"><a xlink:href="Configuration_8h_source.html" target="_top" xlink:title=" ">
<polygon fill="white" stroke="#666666" points="937.5,-294 846.5,-294 846.5,-275 937.5,-275 937.5,-294"/>
<text text-anchor="middle" x="892" y="-282" font-family="Helvetica,sans-Serif" font-size="10.00">Configuration.h</text>
</a>
</g>
</g>
<!-- Node2&#45;&gt;Node32 -->
<g id="edge42" class="edge">
<title>Node2&#45;&gt;Node32</title>
<path fill="none" stroke="#63b8ff" d="M1335.69,-332.63C1239.84,-322.44 1043.92,-301.64 947.76,-291.42"/>
<polygon fill="#63b8ff" stroke="#63b8ff" points="947.97,-287.92 937.65,-290.35 947.23,-294.89 947.97,-287.92"/>
</g>
<!-- Node10 -->
<g id="node10" class="node">
<title>Node10</title>
<g id="a_node10"><a xlink:title=" ">
<polygon fill="#e0e0e0" stroke="#999999" points="230.5,-19 149.5,-19 149.5,0 230.5,0 230.5,-19"/>
<text text-anchor="middle" x="190" y="-7" font-family="Helvetica,sans-Serif" font-size="10.00">BuildConfig.h</text>
</a>
</g>
</g>
<!-- Node9&#45;&gt;Node10 -->
<g id="edge9" class="edge">
<title>Node9&#45;&gt;Node10</title>
<path fill="none" stroke="#63b8ff" d="M190,-54.75C190,-47.8 190,-37.85 190,-29.13"/>
<polygon fill="#63b8ff" stroke="#63b8ff" points="193.5,-29.09 190,-19.09 186.5,-29.09 193.5,-29.09"/>
</g>
<!-- Node11&#45;&gt;Node9 -->
<g id="edge11" class="edge">
<title>Node11&#45;&gt;Node9</title>
<path fill="none" stroke="#63b8ff" d="M881.95,-166.84C877.23,-166.21 872.53,-165.59 868,-165 737.89,-148.09 700.61,-166.89 575,-129 556.92,-123.55 555.07,-115.48 537,-110 414.83,-72.92 378.58,-90.67 252,-74 246.2,-73.24 240.1,-72.42 234.09,-71.6"/>
<polygon fill="#63b8ff" stroke="#63b8ff" points="234.48,-68.12 224.1,-70.24 233.54,-75.06 234.48,-68.12"/>
</g>
<!-- Node12 -->
<g id="node12" class="node">
<title>Node12</title>
<g id="a_node12"><a xlink:title=" ">
<polygon fill="#e0e0e0" stroke="#999999" points="656,-129 584,-129 584,-110 656,-110 656,-129"/>
<text text-anchor="middle" x="620" y="-117" font-family="Helvetica,sans-Serif" font-size="10.00">wx/colour.h</text>
</a>
</g>
</g>
<!-- Node11&#45;&gt;Node12 -->
<g id="edge12" class="edge">
<title>Node11&#45;&gt;Node12</title>
<path fill="none" stroke="#63b8ff" d="M881.59,-165.67C830.5,-157.35 747.36,-143.6 666.22,-129.19"/>
<polygon fill="#63b8ff" stroke="#63b8ff" points="666.8,-125.74 656.34,-127.43 665.57,-132.63 666.8,-125.74"/>
</g>
<!-- Node13 -->
<g id="node13" class="node">
<title>Node13</title>
<g id="a_node13"><a xlink:title=" ">
<polygon fill="#e0e0e0" stroke="#999999" points="842,-129 804,-129 804,-110 842,-110 842,-129"/>
<text text-anchor="middle" x="823" y="-117" font-family="Helvetica,sans-Serif" font-size="10.00">map</text>
</a>
</g>
</g>
<!-- Node11&#45;&gt;Node13 -->
<g id="edge13" class="edge">
<title>Node11&#45;&gt;Node13</title>
<path fill="none" stroke="#63b8ff" d="M912.81,-164.98C895.75,-156.54 869.37,-143.47 849.6,-133.68"/>
<polygon fill="#63b8ff" stroke="#63b8ff" points="851.02,-130.47 840.5,-129.17 847.91,-136.75 851.02,-130.47"/>
</g>
<!-- Node14 -->
<g id="node14" class="node">
<title>Node14</title>
<g id="a_node14"><a xlink:title=" ">
<polygon fill="#e0e0e0" stroke="#999999" points="438,-129 350,-129 350,-110 438,-110 438,-129"/>
<text text-anchor="middle" x="394" y="-117" font-family="Helvetica,sans-Serif" font-size="10.00">wx/hashmap.h</text>
</a>
</g>
</g>
<!-- Node11&#45;&gt;Node14 -->
<g id="edge14" class="edge">
<title>Node11&#45;&gt;Node14</title>
<path fill="none" stroke="#63b8ff" d="M881.92,-169.26C774.26,-159.73 518.35,-136.93 448.15,-129"/>
<polygon fill="#63b8ff" stroke="#63b8ff" points="448.56,-125.52 438.21,-127.82 447.73,-132.47 448.56,-125.52"/>
</g>
<!-- Node15 -->
<g id="node15" class="node">
<title>Node15</title>
<g id="a_node15"><a xlink:title=" ">
<polygon fill="#e0e0e0" stroke="#999999" points="904,-129 860,-129 860,-110 904,-110 904,-129"/>
<text text-anchor="middle" x="882" y="-117" font-family="Helvetica,sans-Serif" font-size="10.00">string</text>
</a>
</g>
</g>
<!-- Node11&#45;&gt;Node15 -->
<g id="edge15" class="edge">
<title>Node11&#45;&gt;Node15</title>
<path fill="none" stroke="#63b8ff" d="M922.07,-164.75C915.15,-157.11 904.93,-145.82 896.55,-136.56"/>
<polygon fill="#63b8ff" stroke="#63b8ff" points="899.09,-134.15 889.78,-129.09 893.9,-138.85 899.09,-134.15"/>
</g>
<!-- Node16 -->
<g id="node16" class="node">
<title>Node16</title>
<g id="a_node16"><a xlink:title=" ">
<polygon fill="#e0e0e0" stroke="#999999" points="979.5,-129 922.5,-129 922.5,-110 979.5,-110 979.5,-129"/>
<text text-anchor="middle" x="951" y="-117" font-family="Helvetica,sans-Serif" font-size="10.00">ostream</text>
</a>
</g>
</g>
<!-- Node11&#45;&gt;Node16 -->
<g id="edge16" class="edge">
<title>Node11&#45;&gt;Node16</title>
<path fill="none" stroke="#63b8ff" d="M933.47,-164.75C936.28,-157.65 940.34,-147.4 943.85,-138.56"/>
<polygon fill="#63b8ff" stroke="#63b8ff" points="947.17,-139.68 947.6,-129.09 940.66,-137.1 947.17,-139.68"/>
</g>
<!-- Node17 -->
<g id="node17" class="node">
<title>Node17</title>
<g id="a_node17"><a xlink:title=" ">
<polygon fill="#e0e0e0" stroke="#999999" points="528,-129 456,-129 456,-110 528,-110 528,-129"/>
<text text-anchor="middle" x="492" y="-117" font-family="Helvetica,sans-Serif" font-size="10.00">wx/config.h</text>
</a>
</g>
</g>
<!-- Node11&#45;&gt;Node17 -->
<g id="edge17" class="edge">
<title>Node11&#45;&gt;Node17</title>
<path fill="none" stroke="#63b8ff" d="M881.95,-166.79C877.24,-166.17 872.53,-165.56 868,-165 723.33,-147.1 686.36,-149.22 542,-129 540.72,-128.82 539.43,-128.64 538.13,-128.44"/>
<polygon fill="#63b8ff" stroke="#63b8ff" points="538.43,-124.95 528.01,-126.88 537.36,-131.87 538.43,-124.95"/>
</g>
<!-- Node18 -->
<g id="node18" class="node">
<title>Node18</title>
<g id="a_node18"><a xlink:title=" ">
<polygon fill="#e0e0e0" stroke="#999999" points="885,-74 823,-74 823,-55 885,-55 885,-74"/>
<text text-anchor="middle" x="854" y="-62" font-family="Helvetica,sans-Serif" font-size="10.00">wx/font.h</text>
</a>
</g>
</g>
<!-- Node11&#45;&gt;Node18 -->
<g id="edge18" class="edge">
<title>Node11&#45;&gt;Node18</title>
<path fill="none" stroke="#63b8ff" d="M978.15,-170.44C1036.19,-164.94 1122.09,-149.94 1089,-110 1088.9,-109.88 962.4,-85.98 895.07,-73.26"/>
<polygon fill="#63b8ff" stroke="#63b8ff" points="895.67,-69.81 885.19,-71.39 894.37,-76.69 895.67,-69.81"/>
</g>
<!-- Node19 -->
<g id="node19" class="node">
<title>Node19</title>
<g id="a_node19"><a xlink:title=" ">
<polygon fill="#e0e0e0" stroke="#999999" points="1080,-129 998,-129 998,-110 1080,-110 1080,-129"/>
<text text-anchor="middle" x="1039" y="-117" font-family="Helvetica,sans-Serif" font-size="10.00">wx/settings.h</text>
</a>
</g>
</g>
<!-- Node11&#45;&gt;Node19 -->
<g id="edge19" class="edge">
<title>Node11&#45;&gt;Node19</title>
<path fill="none" stroke="#63b8ff" d="M947.51,-164.98C964.97,-156.5 992.01,-143.35 1012.17,-133.54"/>
<polygon fill="#63b8ff" stroke="#63b8ff" points="1013.71,-136.69 1021.17,-129.17 1010.64,-130.4 1013.71,-136.69"/>
</g>
<!-- Node20 -->
<g id="node20" class="node">
<title>Node20</title>
<g id="a_node20"><a xlink:title=" ">
<polygon fill="#e0e0e0" stroke="#999999" points="1382,-74 1332,-74 1332,-55 1382,-55 1382,-74"/>
<text text-anchor="middle" x="1357" y="-62" font-family="Helvetica,sans-Serif" font-size="10.00">cstdint</text>
</a>
</g>
</g>
<!-- Node11&#45;&gt;Node20 -->
<g id="edge20" class="edge">
<title>Node11&#45;&gt;Node20</title>
<path fill="none" stroke="#63b8ff" d="M978.27,-173.41C1043.64,-171.86 1163.08,-163.93 1258,-129 1288.77,-117.68 1319.89,-95.58 1338.81,-80.67"/>
<polygon fill="#63b8ff" stroke="#63b8ff" points="1341.25,-83.21 1346.84,-74.21 1336.85,-77.76 1341.25,-83.21"/>
</g>
<!-- Node21 -->
<g id="node21" class="node">
<title>Node21</title>
<g id="a_node21"><a xlink:title=" ">
<polygon fill="#e0e0e0" stroke="#999999" points="1038.5,-19 973.5,-19 973.5,0 1038.5,0 1038.5,-19"/>
<text text-anchor="middle" x="1006" y="-7" font-family="Helvetica,sans-Serif" font-size="10.00">functional</text>
</a>
</g>
</g>
<!-- Node11&#45;&gt;Node21 -->
<g id="edge21" class="edge">
<title>Node11&#45;&gt;Node21</title>
<path fill="none" stroke="#63b8ff" d="M978.11,-173.48C1053.19,-172.32 1192.86,-165.2 1224,-129 1229.51,-122.6 1228.8,-116.95 1224,-110 1198.35,-72.84 1170.24,-92.39 1129,-74 1119.31,-69.68 1064.47,-41.11 1031.38,-23.8"/>
<polygon fill="#63b8ff" stroke="#63b8ff" points="1032.76,-20.57 1022.28,-19.03 1029.51,-26.77 1032.76,-20.57"/>
</g>
<!-- Node22 -->
<g id="node22" class="node">
<title>Node22</title>
<g id="a_node22"><a xlink:href="FontAttribs_8h_source.html" target="_top" xlink:title=" ">
<polygon fill="white" stroke="#666666" points="1215.5,-129 1136.5,-129 1136.5,-110 1215.5,-110 1215.5,-129"/>
<text text-anchor="middle" x="1176" y="-117" font-family="Helvetica,sans-Serif" font-size="10.00">FontAttribs.h</text>
</a>
</g>
</g>
<!-- Node11&#45;&gt;Node22 -->
<g id="edge22" class="edge">
<title>Node11&#45;&gt;Node22</title>
<path fill="none" stroke="#63b8ff" d="M969.52,-164.98C1012.17,-155.8 1080.15,-141.15 1126.36,-131.19"/>
<polygon fill="#63b8ff" stroke="#63b8ff" points="1127.13,-134.61 1136.17,-129.08 1125.65,-127.77 1127.13,-134.61"/>
</g>
<!-- Node29 -->
<g id="node29" class="node">
<title>Node29</title>
<g id="a_node29"><a xlink:href="FontVariantCache_8h.html" target="_top" xlink:title="This file implements the wxFont cache system.">
<polygon fill="white" stroke="#666666" points="785.5,-129 674.5,-129 674.5,-110 785.5,-110 785.5,-129"/>
<text text-anchor="middle" x="730" y="-117" font-family="Helvetica,sans-Serif" font-size="10.00">FontVariantCache.h</text>
</a>
</g>
</g>
<!-- Node11&#45;&gt;Node29 -->
<g id="edge33" class="edge">
<title>Node11&#45;&gt;Node29</title>
<path fill="none" stroke="#63b8ff" d="M897.87,-164.98C863.85,-155.97 810,-141.7 772.5,-131.76"/>
<polygon fill="#63b8ff" stroke="#63b8ff" points="772.95,-128.26 762.39,-129.08 771.16,-135.03 772.95,-128.26"/>
</g>
<!-- Node11&#45;&gt;Node31 -->
<g id="edge41" class="edge">
<title>Node11&#45;&gt;Node31</title>
<path fill="none" stroke="#63b8ff" d="M978.06,-171.6C1047.96,-167.94 1181.3,-157.55 1291,-129 1338.49,-116.64 1390.77,-93.19 1421.14,-78.51"/>
<polygon fill="#63b8ff" stroke="#63b8ff" points="1422.75,-81.61 1430.19,-74.07 1419.67,-75.33 1422.75,-81.61"/>
</g>
<!-- Node22&#45;&gt;Node18 -->
<g id="edge27" class="edge">
<title>Node22&#45;&gt;Node18</title>
<path fill="none" stroke="#63b8ff" d="M1136.48,-112.21C1065.58,-100.92 921.97,-78.01 899,-74 897.9,-73.81 896.79,-73.61 895.67,-73.41"/>
<polygon fill="#63b8ff" stroke="#63b8ff" points="895.92,-69.9 885.45,-71.55 894.66,-76.79 895.92,-69.9"/>
</g>
<!-- Node22&#45;&gt;Node20 -->
<g id="edge30" class="edge">
<title>Node22&#45;&gt;Node20</title>
<path fill="none" stroke="#63b8ff" d="M1205.08,-109.98C1236.87,-100.68 1287.8,-85.76 1321.81,-75.8"/>
<polygon fill="#63b8ff" stroke="#63b8ff" points="1323.17,-79.05 1331.79,-72.88 1321.21,-72.33 1323.17,-79.05"/>
</g>
<!-- Node22&#45;&gt;Node21 -->
<g id="edge31" class="edge">
<title>Node22&#45;&gt;Node21</title>
<path fill="none" stroke="#63b8ff" d="M1136.48,-112.64C1069.09,-102.45 938.53,-81.83 932,-74 915.22,-53.88 945.77,-34.88 972.56,-23"/>
<polygon fill="#63b8ff" stroke="#63b8ff" points="973.94,-26.22 981.79,-19.1 971.22,-19.77 973.94,-26.22"/>
</g>
<!-- Node23 -->
<g id="node23" class="node">
<title>Node23</title>
<g id="a_node23"><a xlink:href="EnumWrapper_8h_source.html" target="_top" xlink:title=" ">
<polygon fill="white" stroke="#666666" points="1232,-74 1138,-74 1138,-55 1232,-55 1232,-74"/>
<text text-anchor="middle" x="1185" y="-62" font-family="Helvetica,sans-Serif" font-size="10.00">EnumWrapper.h</text>
</a>
</g>
</g>
<!-- Node22&#45;&gt;Node23 -->
<g id="edge23" class="edge">
<title>Node22&#45;&gt;Node23</title>
<path fill="none" stroke="#63b8ff" d="M1177.49,-109.75C1178.67,-102.8 1180.36,-92.85 1181.84,-84.13"/>
<polygon fill="#63b8ff" stroke="#63b8ff" points="1185.32,-84.53 1183.54,-74.09 1178.42,-83.36 1185.32,-84.53"/>
</g>
<!-- Node26 -->
<g id="node26" class="node">
<title>Node26</title>
<g id="a_node26"><a xlink:title=" ">
<polygon fill="#e0e0e0" stroke="#999999" points="1020.5,-74 941.5,-74 941.5,-55 1020.5,-55 1020.5,-74"/>
<text text-anchor="middle" x="981" y="-62" font-family="Helvetica,sans-Serif" font-size="10.00">wx/version.h</text>
</a>
</g>
</g>
<!-- Node22&#45;&gt;Node26 -->
<g id="edge28" class="edge">
<title>Node22&#45;&gt;Node26</title>
<path fill="none" stroke="#63b8ff" d="M1144.67,-109.98C1111.51,-100.97 1059,-86.7 1022.44,-76.76"/>
<polygon fill="#63b8ff" stroke="#63b8ff" points="1023.14,-73.33 1012.58,-74.08 1021.31,-80.08 1023.14,-73.33"/>
</g>
<!-- Node27 -->
<g id="node27" class="node">
<title>Node27</title>
<g id="a_node27"><a xlink:title=" ">
<polygon fill="#e0e0e0" stroke="#999999" points="1314,-74 1250,-74 1250,-55 1314,-55 1314,-74"/>
<text text-anchor="middle" x="1282" y="-62" font-family="Helvetica,sans-Serif" font-size="10.00">algorithm</text>
</a>
</g>
</g>
<!-- Node22&#45;&gt;Node27 -->
<g id="edge29" class="edge">
<title>Node22&#45;&gt;Node27</title>
<path fill="none" stroke="#63b8ff" d="M1193.03,-109.98C1209.93,-101.54 1236.06,-88.47 1255.64,-78.68"/>
<polygon fill="#63b8ff" stroke="#63b8ff" points="1257.28,-81.77 1264.66,-74.17 1254.15,-75.51 1257.28,-81.77"/>
</g>
<!-- Node28 -->
<g id="node28" class="node">
<title>Node28</title>
<g id="a_node28"><a xlink:title=" ">
<polygon fill="#e0e0e0" stroke="#999999" points="1082,-74 1038,-74 1038,-55 1082,-55 1082,-74"/>
<text text-anchor="middle" x="1060" y="-62" font-family="Helvetica,sans-Serif" font-size="10.00">limits</text>
</a>
</g>
</g>
<!-- Node22&#45;&gt;Node28 -->
<g id="edge32" class="edge">
<title>Node22&#45;&gt;Node28</title>
<path fill="none" stroke="#63b8ff" d="M1157.36,-109.98C1138.7,-101.46 1109.75,-88.23 1088.26,-78.41"/>
<polygon fill="#63b8ff" stroke="#63b8ff" points="1089.53,-75.14 1078.98,-74.17 1086.62,-81.51 1089.53,-75.14"/>
</g>
<!-- Node23&#45;&gt;Node21 -->
<g id="edge25" class="edge">
<title>Node23&#45;&gt;Node21</title>
<path fill="none" stroke="#63b8ff" d="M1156.24,-54.98C1126.06,-46.05 1078.43,-31.94 1044.9,-22.02"/>
<polygon fill="#63b8ff" stroke="#63b8ff" points="1045.57,-18.57 1034.98,-19.08 1043.58,-25.28 1045.57,-18.57"/>
</g>
<!-- Node24 -->
<g id="node24" class="node">
<title>Node24</title>
<g id="a_node24"><a xlink:title=" ">
<polygon fill="#e0e0e0" stroke="#999999" points="1250.5,-19 1197.5,-19 1197.5,0 1250.5,0 1250.5,-19"/>
<text text-anchor="middle" x="1224" y="-7" font-family="Helvetica,sans-Serif" font-size="10.00">cstddef</text>
</a>
</g>
</g>
<!-- Node23&#45;&gt;Node24 -->
<g id="edge24" class="edge">
<title>Node23&#45;&gt;Node24</title>
<path fill="none" stroke="#63b8ff" d="M1191.44,-54.75C1196.89,-47.34 1204.86,-36.5 1211.56,-27.41"/>
<polygon fill="#63b8ff" stroke="#63b8ff" points="1214.57,-29.22 1217.68,-19.09 1208.93,-25.07 1214.57,-29.22"/>
</g>
<!-- Node25 -->
<g id="node25" class="node">
<title>Node25</title>
<g id="a_node25"><a xlink:title=" ">
<polygon fill="#e0e0e0" stroke="#999999" points="1179.5,-19 1110.5,-19 1110.5,0 1179.5,0 1179.5,-19"/>
<text text-anchor="middle" x="1145" y="-7" font-family="Helvetica,sans-Serif" font-size="10.00">type_traits</text>
</a>
</g>
</g>
<!-- Node23&#45;&gt;Node25 -->
<g id="edge26" class="edge">
<title>Node23&#45;&gt;Node25</title>
<path fill="none" stroke="#63b8ff" d="M1178.39,-54.75C1172.74,-47.26 1164.46,-36.28 1157.55,-27.13"/>
<polygon fill="#63b8ff" stroke="#63b8ff" points="1160.3,-24.96 1151.48,-19.09 1154.71,-29.18 1160.3,-24.96"/>
</g>
<!-- Node29&#45;&gt;Node3 -->
<g id="edge39" class="edge">
<title>Node29&#45;&gt;Node3</title>
<path fill="none" stroke="#63b8ff" d="M674.34,-111.17C671.18,-110.77 668.05,-110.38 665,-110 536.34,-94.08 383.05,-76.64 316.98,-69.2"/>
<polygon fill="#63b8ff" stroke="#63b8ff" points="317.1,-65.69 306.77,-68.05 316.32,-72.65 317.1,-65.69"/>
</g>
<!-- Node29&#45;&gt;Node5 -->
<g id="edge35" class="edge">
<title>Node29&#45;&gt;Node5</title>
<path fill="none" stroke="#63b8ff" d="M785.64,-110.93C788.8,-110.59 791.94,-110.28 795,-110 1104.98,-81.88 1188.35,-114.91 1501.42,-73.79"/>
<polygon fill="#63b8ff" stroke="#63b8ff" points="1502.25,-77.21 1511.7,-72.42 1501.33,-70.27 1502.25,-77.21"/>
</g>
<!-- Node29&#45;&gt;Node9 -->
<g id="edge34" class="edge">
<title>Node29&#45;&gt;Node9</title>
<path fill="none" stroke="#63b8ff" d="M674.35,-111.06C671.19,-110.69 668.05,-110.33 665,-110 481.83,-90.05 435.11,-94.52 252,-74 246.19,-73.35 240.08,-72.6 234.06,-71.81"/>
<polygon fill="#63b8ff" stroke="#63b8ff" points="234.45,-68.33 224.07,-70.48 233.52,-75.27 234.45,-68.33"/>
</g>
<!-- Node29&#45;&gt;Node18 -->
<g id="edge36" class="edge">
<title>Node29&#45;&gt;Node18</title>
<path fill="none" stroke="#63b8ff" d="M749.92,-109.98C770.05,-101.38 801.38,-87.99 824.41,-78.15"/>
<polygon fill="#63b8ff" stroke="#63b8ff" points="825.9,-81.32 833.71,-74.17 823.14,-74.88 825.9,-81.32"/>
</g>
<!-- Node29&#45;&gt;Node21 -->
<g id="edge37" class="edge">
<title>Node29&#45;&gt;Node21</title>
<path fill="none" stroke="#63b8ff" d="M738.97,-109.64C753.47,-95.82 783.53,-69.25 814,-55 862.47,-32.33 923.37,-20.75 963.43,-15.17"/>
<polygon fill="#63b8ff" stroke="#63b8ff" points="963.94,-18.63 973.39,-13.85 963.02,-11.69 963.94,-18.63"/>
</g>
<!-- Node30 -->
<g id="node30" class="node">
<title>Node30</title>
<g id="a_node30"><a xlink:title=" ">
<polygon fill="#e0e0e0" stroke="#999999" points="552,-74 520,-74 520,-55 552,-55 552,-74"/>
<text text-anchor="middle" x="536" y="-62" font-family="Helvetica,sans-Serif" font-size="10.00">list</text>
</a>
</g>
</g>
<!-- Node29&#45;&gt;Node30 -->
<g id="edge38" class="edge">
<title>Node29&#45;&gt;Node30</title>
<path fill="none" stroke="#63b8ff" d="M698.83,-109.98C660.97,-99.64 597.79,-82.38 562.29,-72.68"/>
<polygon fill="#63b8ff" stroke="#63b8ff" points="562.78,-69.19 552.21,-69.93 560.94,-75.94 562.78,-69.19"/>
</g>
<!-- Node29&#45;&gt;Node31 -->
<g id="edge40" class="edge">
<title>Node29&#45;&gt;Node31</title>
<path fill="none" stroke="#63b8ff" d="M785.64,-110.96C788.8,-110.62 791.94,-110.29 795,-110 1055.82,-85.1 1125.35,-101.51 1389.98,-74"/>
<polygon fill="#63b8ff" stroke="#63b8ff" points="1390.71,-77.44 1400.29,-72.91 1389.98,-70.48 1390.71,-77.44"/>
</g>
<!-- Node32&#45;&gt;Node4 -->
<g id="edge64" class="edge">
<title>Node32&#45;&gt;Node4</title>
<path fill="none" stroke="#63b8ff" d="M846.48,-282.69C703.46,-279.86 269.39,-268.87 214,-239 195.62,-229.09 182.21,-208.75 174.31,-193.75"/>
<polygon fill="#63b8ff" stroke="#63b8ff" points="177.28,-191.85 169.73,-184.41 170.99,-194.93 177.28,-191.85"/>
</g>
<!-- Node32&#45;&gt;Node5 -->
<g id="edge59" class="edge">
<title>Node32&#45;&gt;Node5</title>
<path fill="none" stroke="#63b8ff" d="M937.55,-282.15C1034.52,-278.73 1258.23,-267.89 1328,-239 1415.71,-202.68 1495.79,-117.95 1527.09,-82.05"/>
<polygon fill="#63b8ff" stroke="#63b8ff" points="1529.79,-84.27 1533.65,-74.41 1524.48,-79.71 1529.79,-84.27"/>
</g>
<!-- Node32&#45;&gt;Node6 -->
<g id="edge44" class="edge">
<title>Node32&#45;&gt;Node6</title>
<path fill="none" stroke="#63b8ff" d="M937.8,-280.22C1032.92,-273.32 1258.77,-256.5 1448,-239 1461.66,-237.74 1476.61,-236.21 1489.9,-234.8"/>
<polygon fill="#63b8ff" stroke="#63b8ff" points="1490.58,-238.25 1500.15,-233.7 1489.84,-231.29 1490.58,-238.25"/>
</g>
<!-- Node32&#45;&gt;Node9 -->
<g id="edge43" class="edge">
<title>Node32&#45;&gt;Node9</title>
<path fill="none" stroke="#63b8ff" d="M846.08,-283.2C706.59,-281.9 294.43,-275.02 247,-239 198.01,-201.8 190.54,-121.34 189.79,-84.55"/>
<polygon fill="#63b8ff" stroke="#63b8ff" points="193.29,-84.24 189.74,-74.25 186.29,-84.27 193.29,-84.24"/>
</g>
<!-- Node32&#45;&gt;Node11 -->
<g id="edge53" class="edge">
<title>Node32&#45;&gt;Node11</title>
<path fill="none" stroke="#63b8ff" d="M894.28,-274.77C897.57,-262.44 904.03,-239.26 911,-220 914.22,-211.11 918.27,-201.44 921.81,-193.39"/>
<polygon fill="#63b8ff" stroke="#63b8ff" points="925.02,-194.8 925.92,-184.25 918.63,-191.94 925.02,-194.8"/>
</g>
<!-- Node32&#45;&gt;Node14 -->
<g id="edge48" class="edge">
<title>Node32&#45;&gt;Node14</title>
<path fill="none" stroke="#63b8ff" d="M880.11,-274.94C861.79,-261.99 825.29,-237.12 792,-220 734.02,-190.18 718.73,-182.78 656,-165 646.06,-162.18 521.82,-141.53 448.06,-129.38"/>
<polygon fill="#63b8ff" stroke="#63b8ff" points="448.44,-125.89 438,-127.72 447.3,-132.8 448.44,-125.89"/>
</g>
<!-- Node32&#45;&gt;Node17 -->
<g id="edge45" class="edge">
<title>Node32&#45;&gt;Node17</title>
<path fill="none" stroke="#63b8ff" d="M890.33,-274.82C885.52,-252.35 869.35,-192.19 830,-165 777.76,-128.9 614.24,-138.73 538.3,-129.6"/>
<polygon fill="#63b8ff" stroke="#63b8ff" points="538.58,-126.1 528.19,-128.17 537.6,-133.03 538.58,-126.1"/>
</g>
<!-- Node32&#45;&gt;Node20 -->
<g id="edge58" class="edge">
<title>Node32&#45;&gt;Node20</title>
<path fill="none" stroke="#63b8ff" d="M937.84,-283.61C1027.51,-282.95 1221.97,-277.05 1275,-239 1327.51,-201.31 1347.53,-121.11 1354.14,-84.47"/>
<polygon fill="#63b8ff" stroke="#63b8ff" points="1357.66,-84.65 1355.84,-74.21 1350.75,-83.5 1357.66,-84.65"/>
</g>
<!-- Node32&#45;&gt;Node27 -->
<g id="edge65" class="edge">
<title>Node32&#45;&gt;Node27</title>
<path fill="none" stroke="#63b8ff" d="M937.82,-284.39C1024.73,-285.07 1208.82,-281.32 1253,-239 1295.59,-198.21 1290.43,-120.24 1285.32,-84.39"/>
<polygon fill="#63b8ff" stroke="#63b8ff" points="1288.75,-83.66 1283.73,-74.33 1281.83,-84.75 1288.75,-83.66"/>
</g>
<!-- Node32&#45;&gt;Node30 -->
<g id="edge63" class="edge">
<title>Node32&#45;&gt;Node30</title>
<path fill="none" stroke="#63b8ff" d="M871.02,-274.91C850.58,-266.37 818.76,-252.61 792,-239 776.92,-231.33 774.79,-226.09 759,-220 758.31,-219.73 341.47,-129.58 341,-129 295.39,-72.39 446.59,-65.69 509.66,-65.29"/>
<polygon fill="#63b8ff" stroke="#63b8ff" points="509.68,-68.79 519.67,-65.28 509.67,-61.79 509.68,-68.79"/>
</g>
<!-- Node32&#45;&gt;Node31 -->
<g id="edge61" class="edge">
<title>Node32&#45;&gt;Node31</title>
<path fill="none" stroke="#63b8ff" d="M937.73,-282.7C1030.51,-280.4 1237.27,-271.67 1299,-239 1367.77,-202.61 1418.17,-119.84 1437.88,-83.35"/>
<polygon fill="#63b8ff" stroke="#63b8ff" points="1441.05,-84.84 1442.62,-74.36 1434.86,-81.58 1441.05,-84.84"/>
</g>
<!-- Node33 -->
<g id="node33" class="node">
<title>Node33</title>
<g id="a_node33"><a xlink:title=" ">
<polygon fill="#e0e0e0" stroke="#999999" points="997.5,-239 920.5,-239 920.5,-220 997.5,-220 997.5,-239"/>
<text text-anchor="middle" x="959" y="-227" font-family="Helvetica,sans-Serif" font-size="10.00">wx/display.h</text>
</a>
</g>
</g>
<!-- Node32&#45;&gt;Node33 -->
<g id="edge46" class="edge">
<title>Node32&#45;&gt;Node33</title>
<path fill="none" stroke="#63b8ff" d="M902.76,-274.98C912.77,-267.07 927.89,-255.11 939.93,-245.58"/>
<polygon fill="#63b8ff" stroke="#63b8ff" points="942.37,-248.12 948.04,-239.17 938.03,-242.63 942.37,-248.12"/>
</g>
<!-- Node34 -->
<g id="node34" class="node">
<title>Node34</title>
<g id="a_node34"><a xlink:title=" ">
<polygon fill="#e0e0e0" stroke="#999999" points="1106,-239 1016,-239 1016,-220 1106,-220 1106,-239"/>
<text text-anchor="middle" x="1061" y="-227" font-family="Helvetica,sans-Serif" font-size="10.00">wx/fontenum.h</text>
</a>
</g>
</g>
<!-- Node32&#45;&gt;Node34 -->
<g id="edge47" class="edge">
<title>Node32&#45;&gt;Node34</title>
<path fill="none" stroke="#63b8ff" d="M919.15,-274.98C947.53,-266.09 992.23,-252.07 1023.86,-242.15"/>
<polygon fill="#63b8ff" stroke="#63b8ff" points="1025.14,-245.41 1033.63,-239.08 1023.05,-238.73 1025.14,-245.41"/>
</g>
<!-- Node35 -->
<g id="node35" class="node">
<title>Node35</title>
<g id="a_node35"><a xlink:href="LoggingMessageDialog_8h.html" target="_top" xlink:title="This file declares a message dialog that sends its contents to the log message sink.">
<polygon fill="white" stroke="#666666" points="676.5,-239 499.5,-239 499.5,-220 676.5,-220 676.5,-239"/>
<text text-anchor="middle" x="588" y="-227" font-family="Helvetica,sans-Serif" font-size="10.00">dialogs/LoggingMessageDialog.h</text>
</a>
</g>
</g>
<!-- Node32&#45;&gt;Node35 -->
<g id="edge49" class="edge">
<title>Node32&#45;&gt;Node35</title>
<path fill="none" stroke="#63b8ff" d="M846.49,-275.57C793.36,-266.3 705.36,-250.96 647.02,-240.79"/>
<polygon fill="#63b8ff" stroke="#63b8ff" points="647.3,-237.29 636.85,-239.02 646.1,-244.18 647.3,-237.29"/>
</g>
<!-- Node38 -->
<g id="node38" class="node">
<title>Node38</title>
<g id="a_node38"><a xlink:href="Styles_8h.html" target="_top" xlink:title="This file declares the class Styles.">
<polygon fill="white" stroke="#666666" points="750,-239 694,-239 694,-220 750,-220 750,-239"/>
<text text-anchor="middle" x="722" y="-227" font-family="Helvetica,sans-Serif" font-size="10.00">Styles.h</text>
</a>
</g>
</g>
<!-- Node32&#45;&gt;Node38 -->
<g id="edge54" class="edge">
<title>Node32&#45;&gt;Node38</title>
<path fill="none" stroke="#63b8ff" d="M864.69,-274.98C836.15,-266.09 791.17,-252.07 759.36,-242.15"/>
<polygon fill="#63b8ff" stroke="#63b8ff" points="760.12,-238.72 749.53,-239.08 758.03,-245.4 760.12,-238.72"/>
</g>
<!-- Node39 -->
<g id="node39" class="node">
<title>Node39</title>
<g id="a_node39"><a xlink:title=" ">
<polygon fill="#e0e0e0" stroke="#999999" points="1172,-239 1124,-239 1124,-220 1172,-220 1172,-239"/>
<text text-anchor="middle" x="1148" y="-227" font-family="Helvetica,sans-Serif" font-size="10.00">mutex</text>
</a>
</g>
</g>
<!-- Node32&#45;&gt;Node39 -->
<g id="edge60" class="edge">
<title>Node32&#45;&gt;Node39</title>
<path fill="none" stroke="#63b8ff" d="M937.86,-275.11C980.93,-267.07 1047.4,-254.21 1114.05,-239.12"/>
<polygon fill="#63b8ff" stroke="#63b8ff" points="1114.92,-242.51 1123.89,-236.87 1113.36,-235.69 1114.92,-242.51"/>
</g>
<!-- Node40 -->
<g id="node40" class="node">
<title>Node40</title>
<g id="a_node40"><a xlink:title=" ">
<polygon fill="#e0e0e0" stroke="#999999" points="1244,-239 1190,-239 1190,-220 1244,-220 1244,-239"/>
<text text-anchor="middle" x="1217" y="-227" font-family="Helvetica,sans-Serif" font-size="10.00">random</text>
</a>
</g>
</g>
<!-- Node32&#45;&gt;Node40 -->
<g id="edge62" class="edge">
<title>Node32&#45;&gt;Node40</title>
<path fill="none" stroke="#63b8ff" d="M937.74,-277.59C992.87,-270.23 1088.52,-256.64 1179.95,-239.07"/>
<polygon fill="#63b8ff" stroke="#63b8ff" points="1180.77,-242.48 1189.92,-237.14 1179.44,-235.61 1180.77,-242.48"/>
</g>
<!-- Node41 -->
<g id="node41" class="node">
<title>Node41</title>
<g id="a_node41"><a xlink:title=" ">
<polygon fill="#e0e0e0" stroke="#999999" points="306,-239 256,-239 256,-220 306,-220 306,-239"/>
<text text-anchor="middle" x="281" y="-227" font-family="Helvetica,sans-Serif" font-size="10.00">atomic</text>
</a>
</g>
</g>
<!-- Node32&#45;&gt;Node41 -->
<g id="edge66" class="edge">
<title>Node32&#45;&gt;Node41</title>
<path fill="none" stroke="#63b8ff" d="M846.43,-282.58C750.12,-280.09 518.73,-271.14 316.09,-238.89"/>
<polygon fill="#63b8ff" stroke="#63b8ff" points="316.58,-235.43 306.15,-237.29 315.47,-242.34 316.58,-235.43"/>
</g>
<!-- Node42 -->
<g id="node42" class="node">
<title>Node42</title>
<g id="a_node42"><a xlink:title=" ">
<polygon fill="#e0e0e0" stroke="#999999" points="374,-239 324,-239 324,-220 374,-220 374,-239"/>
<text text-anchor="middle" x="349" y="-227" font-family="Helvetica,sans-Serif" font-size="10.00">chrono</text>
</a>
</g>
</g>
<!-- Node32&#45;&gt;Node42 -->
<g id="edge67" class="edge">
<title>Node32&#45;&gt;Node42</title>
<path fill="none" stroke="#63b8ff" d="M846.41,-281.93C758.65,-278.38 560.05,-267.82 384.11,-238.92"/>
<polygon fill="#63b8ff" stroke="#63b8ff" points="384.6,-235.45 374.16,-237.26 383.45,-242.36 384.6,-235.45"/>
</g>
<!-- Node43 -->
<g id="node43" class="node">
<title>Node43</title>
<g id="a_node43"><a xlink:title=" ">
<polygon fill="#e0e0e0" stroke="#999999" points="481.5,-239 392.5,-239 392.5,-220 481.5,-220 481.5,-239"/>
<text text-anchor="middle" x="437" y="-227" font-family="Helvetica,sans-Serif" font-size="10.00">wx/wupdlock.h</text>
</a>
</g>
</g>
<!-- Node32&#45;&gt;Node43 -->
<g id="edge68" class="edge">
<title>Node32&#45;&gt;Node43</title>
<path fill="none" stroke="#63b8ff" d="M846.39,-279.18C773.58,-272.13 626.32,-257.21 491.6,-239.16"/>
<polygon fill="#63b8ff" stroke="#63b8ff" points="491.89,-235.67 481.51,-237.8 490.95,-242.61 491.89,-235.67"/>
</g>
<!-- Node35&#45;&gt;Node9 -->
<g id="edge50" class="edge">
<title>Node35&#45;&gt;Node9</title>
<path fill="none" stroke="#63b8ff" d="M504.02,-219.99C418.04,-210.74 294.3,-195.7 275,-184 235.62,-160.13 209.3,-110.38 197.35,-83.56"/>
<polygon fill="#63b8ff" stroke="#63b8ff" points="200.5,-82.02 193.36,-74.2 194.06,-84.77 200.5,-82.02"/>
</g>
<!-- Node36 -->
<g id="node36" class="node">
<title>Node36</title>
<g id="a_node36"><a xlink:title=" ">
<polygon fill="#e0e0e0" stroke="#999999" points="439.5,-184 360.5,-184 360.5,-165 439.5,-165 439.5,-184"/>
<text text-anchor="middle" x="400" y="-172" font-family="Helvetica,sans-Serif" font-size="10.00">wx/msgdlg.h</text>
</a>
</g>
</g>
<!-- Node35&#45;&gt;Node36 -->
<g id="edge51" class="edge">
<title>Node35&#45;&gt;Node36</title>
<path fill="none" stroke="#63b8ff" d="M557.79,-219.98C525.96,-211.01 475.64,-196.82 440.4,-186.89"/>
<polygon fill="#63b8ff" stroke="#63b8ff" points="441.02,-183.43 430.44,-184.08 439.12,-190.16 441.02,-183.43"/>
</g>
<!-- Node37 -->
<g id="node37" class="node">
<title>Node37</title>
<g id="a_node37"><a xlink:title=" ">
<polygon fill="#e0e0e0" stroke="#999999" points="342,-184 284,-184 284,-165 342,-165 342,-184"/>
<text text-anchor="middle" x="313" y="-172" font-family="Helvetica,sans-Serif" font-size="10.00">wx/log.h</text>
</a>
</g>
</g>
<!-- Node35&#45;&gt;Node37 -->
<g id="edge52" class="edge">
<title>Node35&#45;&gt;Node37</title>
<path fill="none" stroke="#63b8ff" d="M539.79,-219.95C493.99,-211.72 422.94,-198.65 352.03,-184.15"/>
<polygon fill="#63b8ff" stroke="#63b8ff" points="352.52,-180.68 342.02,-182.1 351.12,-187.54 352.52,-180.68"/>
</g>
<!-- Node38&#45;&gt;Node3 -->
<g id="edge56" class="edge">
<title>Node38&#45;&gt;Node3</title>
<path fill="none" stroke="#63b8ff" d="M693.83,-221.91C601.2,-200.23 311.73,-132.28 308,-129 295.17,-117.68 289.17,-98.78 286.38,-84.53"/>
<polygon fill="#63b8ff" stroke="#63b8ff" points="289.79,-83.67 284.77,-74.34 282.88,-84.76 289.79,-83.67"/>
</g>
<!-- Node38&#45;&gt;Node4 -->
<g id="edge57" class="edge">
<title>Node38&#45;&gt;Node4</title>
<path fill="none" stroke="#63b8ff" d="M693.8,-221.59C690.84,-221 687.86,-220.45 685,-220 637.28,-212.51 307.69,-186.52 199.97,-178.13"/>
<polygon fill="#63b8ff" stroke="#63b8ff" points="199.92,-174.62 189.68,-177.33 199.38,-181.6 199.92,-174.62"/>
</g>
<!-- Node38&#45;&gt;Node11 -->
<g id="edge55" class="edge">
<title>Node38&#45;&gt;Node11</title>
<path fill="none" stroke="#63b8ff" d="M750.05,-221.35C785.19,-212.4 845.76,-196.97 886.82,-186.5"/>
<polygon fill="#63b8ff" stroke="#63b8ff" points="887.73,-189.88 896.56,-184.02 886,-183.1 887.73,-189.88"/>
</g>
</g>
</svg>
        <g id="navigator" transform="translate(0 0)" fill="#404254">
                <rect fill="#f2f5e9" fill-opacity="0.5" stroke="#606060" stroke-width=".5" x="0" y="0" width="60" height="60"/>
                <use id="zoomplus" xlink:href="#zoomPlus" x="17" y="9" onmousedown="handleZoom(evt,'in')"/>
                <use id="zoomminus" xlink:href="#zoomMin" x="42" y="9" onmousedown="handleZoom(evt,'out')"/>
                <use id="reset" xlink:href="#resetDef" x="30" y="36" onmousedown="handleReset()"/>
                <g id="arrowUp" xlink:href="#dirArrow" transform="translate(30 24)" onmousedown="handlePan(0,-1)">
                  <use xlink:href="#rim" fill="#404040">
                        <set attributeName="fill" to="#808080" begin="arrowUp.mouseover" end="arrowUp.mouseout"/>
                  </use>
                  <path fill="none" stroke="white" stroke-width="1.5" d="M0,-3.0v7 M-2.5,-0.5L0,-3.0L2.5,-0.5"/>
                </g>
                <g id="arrowRight" xlink:href="#dirArrow" transform="rotate(90) translate(36 -43)" onmousedown="handlePan(1,0)">
                  <use xlink:href="#rim" fill="#404040">
                        <set attributeName="fill" to="#808080" begin="arrowRight.mouseover" end="arrowRight.mouseout"/>
                  </use>
                  <path fill="none" stroke="white" stroke-width="1.5" d="M0,-3.0v7 M-2.5,-0.5L0,-3.0L2.5,-0.5"/>
                </g>
                <g id="arrowDown" xlink:href="#dirArrow" transform="rotate(180) translate(-30 -48)" onmousedown="handlePan(0,1)">
                  <use xlink:href="#rim" fill="#404040">
                        <set attributeName="fill" to="#808080" begin="arrowDown.mouseover" end="arrowDown.mouseout"/>
                  </use>
                  <path fill="none" stroke="white" stroke-width="1.5" d="M0,-3.0v7 M-2.5,-0.5L0,-3.0L2.5,-0.5"/>
                </g>
                <g id="arrowLeft" xlink:href="#dirArrow" transform="rotate(270) translate(-36 17)" onmousedown="handlePan(-1,0)">
                  <use xlink:href="#rim" fill="#404040">
                        <set attributeName="fill" to="#808080" begin="arrowLeft.mouseover" end="arrowLeft.mouseout"/>
                  </use>
                  <path fill="none" stroke="white" stroke-width="1.5" d="M0,-3.0v7 M-2.5,-0.5L0,-3.0L2.5,-0.5"/>
                </g>
        </g>
        <svg viewBox="0 0 15 15" width="100%" height="30px" preserveAspectRatio="xMaxYMin meet">
         <g id="arrow_out" transform="scale(0.3 0.3)">
          <a xlink:href="MaximaTokenizer_8cpp__incl_org.svg" target="_base">
           <rect id="button" ry="5" rx="5" y="6" x="6" height="38" width="38"
                fill="#f2f5e9" fill-opacity="0.5" stroke="#606060" stroke-width="1.0"/>
           <path id="arrow"
             d="M 11.500037,31.436501 C 11.940474,20.09759 22.043105,11.32322 32.158766,21.979434 L 37.068811,17.246167 C 37.068811,17.246167 37.088388,32 37.088388,32 L 22.160133,31.978069 C 22.160133,31.978069 26.997745,27.140456 26.997745,27.140456 C 18.528582,18.264221 13.291696,25.230495 11.500037,31.436501 z"
             style="fill:#404040;"/>
          </a>
         </g>
        </svg>
</svg>
