<?xml version="1.0" encoding="UTF-8" standalone="no"?>
<!DOCTYPE svg PUBLIC "-//W3C//DTD SVG 1.1//EN"
 "http://www.w3.org/Graphics/SVG/1.1/DTD/svg11.dtd">
<!-- Generated by graphviz version 2.43.0 (0)
 -->
<!-- Title: src/MaximaManual.h Pages: 1 -->
<!--zoomable 308 -->
<svg id="main" version="1.1" xmlns="http://www.w3.org/2000/svg" xmlns:xlink="http://www.w3.org/1999/xlink" xml:space="preserve" onload="init(evt)">
<style type="text/css"><![CDATA[
.edge:hover path { stroke: red; }
.edge:hover polygon { stroke: red; fill: red; }
]]></style>
<script type="text/javascript"><![CDATA[
var edges = document.getElementsByTagName('g');
if (edges && edges.length) {
  for (var i=0;i<edges.length;i++) {
    if (edges[i].id.substr(0,4)=='edge') {
      edges[i].setAttribute('class','edge');
    }
  }
}
]]></script>
        <defs>
                <circle id="rim" cx="0" cy="0" r="7"/>
                <circle id="rim2" cx="0" cy="0" r="3.5"/>
                <g id="zoomPlus">
                        <use xlink:href="#rim" fill="#404040">
                                <set attributeName="fill" to="#808080" begin="zoomplus.mouseover" end="zoomplus.mouseout"/>
                        </use>
                        <path d="M-4,0h8M0,-4v8" fill="none" stroke="white" stroke-width="1.5" pointer-events="none"/>
                </g>
                <g id="zoomMin">
                        <use xlink:href="#rim" fill="#404040">
                                <set attributeName="fill" to="#808080" begin="zoomminus.mouseover" end="zoomminus.mouseout"/>
                        </use>
                        <path d="M-4,0h8" fill="none" stroke="white" stroke-width="1.5" pointer-events="none"/>
                </g>
                <g id="dirArrow">
                        <path fill="none" stroke="white" stroke-width="1.5" d="M0,-3.0v7 M-2.5,-0.5L0,-3.0L2.5,-0.5"/>
                </g>
               <g id="resetDef">
                       <use xlink:href="#rim2" fill="#404040">
                               <set attributeName="fill" to="#808080" begin="reset.mouseover" end="reset.mouseout"/>
                       </use>
               </g>
        </defs>

<script type="text/javascript">
var viewWidth = 1939;
var viewHeight = 308;
var sectionId = 'dynsection-0';
</script>
<script xlink:href="svgpan.js"/>
<svg id="graph" class="graph">
<g id="viewport">
<title>src/MaximaManual.h</title>
<polygon fill="white" stroke="transparent" points="-4,4 -4,-304 1935,-304 1935,4 -4,4"/>
<!-- Node1 -->
<g id="node1" class="node">
<title>Node1</title>
<g id="a_node1"><a xlink:title="This file declares the class MaximaManual.">
<polygon fill="#bfbfbf" stroke="black" points="853.5,-280.5 853.5,-299.5 972.5,-299.5 972.5,-280.5 853.5,-280.5"/>
<text text-anchor="middle" x="913" y="-287.5" font-family="Helvetica,sans-Serif" font-size="10.00">src/MaximaManual.h</text>
</a>
</g>
</g>
<!-- Node2 -->
<g id="node2" class="node">
<title>Node2</title>
<g id="a_node2"><a xlink:title=" ">
<polygon fill="white" stroke="#bfbfbf" points="0,-224.5 0,-243.5 50,-243.5 50,-224.5 0,-224.5"/>
<text text-anchor="middle" x="25" y="-231.5" font-family="Helvetica,sans-Serif" font-size="10.00">atomic</text>
</a>
</g>
</g>
<!-- Node1&#45;&gt;Node2 -->
<g id="edge1" class="edge">
<title>Node1&#45;&gt;Node2</title>
<path fill="none" stroke="midnightblue" d="M853.31,-287.46C688.97,-282.96 231.28,-268.68 60.25,-243.81"/>
<polygon fill="midnightblue" stroke="midnightblue" points="60.54,-240.31 50.13,-242.27 59.49,-247.23 60.54,-240.31"/>
</g>
<!-- Node3 -->
<g id="node3" class="node">
<title>Node3</title>
<g id="a_node3"><a xlink:title=" ">
<polygon fill="white" stroke="#bfbfbf" points="68,-224.5 68,-243.5 116,-243.5 116,-224.5 68,-224.5"/>
<text text-anchor="middle" x="92" y="-231.5" font-family="Helvetica,sans-Serif" font-size="10.00">thread</text>
</a>
</g>
</g>
<!-- Node1&#45;&gt;Node3 -->
<g id="edge2" class="edge">
<title>Node1&#45;&gt;Node3</title>
<path fill="none" stroke="midnightblue" d="M853.21,-289.12C721.72,-288.61 397.78,-283.1 130,-244 128.72,-243.81 127.41,-243.6 126.1,-243.38"/>
<polygon fill="midnightblue" stroke="midnightblue" points="126.49,-239.88 116,-241.35 125.12,-246.75 126.49,-239.88"/>
</g>
<!-- Node4 -->
<g id="node4" class="node">
<title>Node4</title>
<g id="a_node4"><a xlink:title=" ">
<polygon fill="white" stroke="#bfbfbf" points="248,-168.5 248,-187.5 296,-187.5 296,-168.5 248,-168.5"/>
<text text-anchor="middle" x="272" y="-175.5" font-family="Helvetica,sans-Serif" font-size="10.00">mutex</text>
</a>
</g>
</g>
<!-- Node1&#45;&gt;Node4 -->
<g id="edge3" class="edge">
<title>Node1&#45;&gt;Node4</title>
<path fill="none" stroke="midnightblue" d="M854.13,-280.47C745.96,-264.51 508.47,-228.08 310,-188 308.73,-187.74 307.44,-187.47 306.13,-187.2"/>
<polygon fill="midnightblue" stroke="midnightblue" points="306.59,-183.71 296.07,-184.96 305.07,-190.55 306.59,-183.71"/>
</g>
<!-- Node5 -->
<g id="node5" class="node">
<title>Node5</title>
<g id="a_node5"><a xlink:title=" ">
<polygon fill="white" stroke="#bfbfbf" points="295,-56.5 295,-75.5 353,-75.5 353,-56.5 295,-56.5"/>
<text text-anchor="middle" x="324" y="-63.5" font-family="Helvetica,sans-Serif" font-size="10.00">memory</text>
</a>
</g>
</g>
<!-- Node1&#45;&gt;Node5 -->
<g id="edge4" class="edge">
<title>Node1&#45;&gt;Node5</title>
<path fill="none" stroke="midnightblue" d="M853.28,-288.22C699.77,-285.75 299.97,-276.27 250,-244 200.04,-211.74 192.62,-159.81 228,-112 241.74,-93.44 265.07,-82.26 285.29,-75.69"/>
<polygon fill="midnightblue" stroke="midnightblue" points="286.33,-79.03 294.91,-72.82 284.33,-72.32 286.33,-79.03"/>
</g>
<!-- Node6 -->
<g id="node6" class="node">
<title>Node6</title>
<g id="a_node6"><a xlink:title=" ">
<polygon fill="white" stroke="#bfbfbf" points="1802.5,-168.5 1802.5,-187.5 1849.5,-187.5 1849.5,-168.5 1802.5,-168.5"/>
<text text-anchor="middle" x="1826" y="-175.5" font-family="Helvetica,sans-Serif" font-size="10.00">vector</text>
</a>
</g>
</g>
<!-- Node1&#45;&gt;Node6 -->
<g id="edge5" class="edge">
<title>Node1&#45;&gt;Node6</title>
<path fill="none" stroke="midnightblue" d="M918.03,-280.25C927.06,-265.51 947.56,-236.15 974,-224 1056.27,-186.2 1698.33,-200.49 1788,-188 1789.47,-187.8 1790.96,-187.56 1792.47,-187.3"/>
<polygon fill="midnightblue" stroke="midnightblue" points="1793.29,-190.71 1802.41,-185.31 1791.92,-183.84 1793.29,-190.71"/>
</g>
<!-- Node7 -->
<g id="node7" class="node">
<title>Node7</title>
<g id="a_node7"><a xlink:title=" ">
<polygon fill="white" stroke="#bfbfbf" points="1016.5,-224.5 1016.5,-243.5 1071.5,-243.5 1071.5,-224.5 1016.5,-224.5"/>
<text text-anchor="middle" x="1044" y="-231.5" font-family="Helvetica,sans-Serif" font-size="10.00">wx/dir.h</text>
</a>
</g>
</g>
<!-- Node1&#45;&gt;Node7 -->
<g id="edge6" class="edge">
<title>Node1&#45;&gt;Node7</title>
<path fill="none" stroke="midnightblue" d="M933.76,-280.44C955.32,-271.56 989.26,-257.56 1013.79,-247.45"/>
<polygon fill="midnightblue" stroke="midnightblue" points="1015.43,-250.56 1023.34,-243.52 1012.76,-244.09 1015.43,-250.56"/>
</g>
<!-- Node8 -->
<g id="node8" class="node">
<title>Node8</title>
<g id="a_node8"><a xlink:title=" ">
<polygon fill="white" stroke="#bfbfbf" points="1867.5,-168.5 1867.5,-187.5 1924.5,-187.5 1924.5,-168.5 1867.5,-168.5"/>
<text text-anchor="middle" x="1896" y="-175.5" font-family="Helvetica,sans-Serif" font-size="10.00">wx/wx.h</text>
</a>
</g>
</g>
<!-- Node1&#45;&gt;Node8 -->
<g id="edge7" class="edge">
<title>Node1&#45;&gt;Node8</title>
<path fill="none" stroke="midnightblue" d="M924.68,-280.47C947.96,-263.55 998.71,-227.09 1008,-224 1184.62,-165.24 1655.6,-212.86 1857.44,-187.87"/>
<polygon fill="midnightblue" stroke="midnightblue" points="1857.97,-191.33 1867.42,-186.54 1857.05,-184.39 1857.97,-191.33"/>
</g>
<!-- Node9 -->
<g id="node9" class="node">
<title>Node9</title>
<g id="a_node9"><a xlink:title=" ">
<polygon fill="white" stroke="#bfbfbf" points="1090,-224.5 1090,-243.5 1158,-243.5 1158,-224.5 1090,-224.5"/>
<text text-anchor="middle" x="1124" y="-231.5" font-family="Helvetica,sans-Serif" font-size="10.00">wx/arrstr.h</text>
</a>
</g>
</g>
<!-- Node1&#45;&gt;Node9 -->
<g id="edge8" class="edge">
<title>Node1&#45;&gt;Node9</title>
<path fill="none" stroke="midnightblue" d="M946.43,-280.44C982.86,-271.12 1041.23,-256.18 1081.03,-246"/>
<polygon fill="midnightblue" stroke="midnightblue" points="1081.9,-249.39 1090.72,-243.52 1080.17,-242.61 1081.9,-249.39"/>
</g>
<!-- Node10 -->
<g id="node10" class="node">
<title>Node10</title>
<g id="a_node10"><a xlink:title=" ">
<polygon fill="white" stroke="#bfbfbf" points="1176.5,-224.5 1176.5,-243.5 1247.5,-243.5 1247.5,-224.5 1176.5,-224.5"/>
<text text-anchor="middle" x="1212" y="-231.5" font-family="Helvetica,sans-Serif" font-size="10.00">wx/regex.h</text>
</a>
</g>
</g>
<!-- Node1&#45;&gt;Node10 -->
<g id="edge9" class="edge">
<title>Node1&#45;&gt;Node10</title>
<path fill="none" stroke="midnightblue" d="M963.18,-280.45C1012.26,-272 1089.38,-258.54 1165.86,-244.18"/>
<polygon fill="midnightblue" stroke="midnightblue" points="1166.97,-247.53 1176.15,-242.24 1165.68,-240.65 1166.97,-247.53"/>
</g>
<!-- Node11 -->
<g id="node11" class="node">
<title>Node11</title>
<g id="a_node11"><a xlink:title=" ">
<polygon fill="white" stroke="#bfbfbf" points="1265.5,-224.5 1265.5,-243.5 1348.5,-243.5 1348.5,-224.5 1265.5,-224.5"/>
<text text-anchor="middle" x="1307" y="-231.5" font-family="Helvetica,sans-Serif" font-size="10.00">wx/xml/xml.h</text>
</a>
</g>
</g>
<!-- Node1&#45;&gt;Node11 -->
<g id="edge10" class="edge">
<title>Node1&#45;&gt;Node11</title>
<path fill="none" stroke="midnightblue" d="M972.78,-282.06C1039.35,-274.14 1150.4,-260.33 1255.17,-244.23"/>
<polygon fill="midnightblue" stroke="midnightblue" points="1255.94,-247.65 1265.28,-242.66 1254.87,-240.73 1255.94,-247.65"/>
</g>
<!-- Node12 -->
<g id="node12" class="node">
<title>Node12</title>
<g id="a_node12"><a xlink:title=" ">
<polygon fill="white" stroke="#bfbfbf" points="1367,-224.5 1367,-243.5 1453,-243.5 1453,-224.5 1367,-224.5"/>
<text text-anchor="middle" x="1410" y="-231.5" font-family="Helvetica,sans-Serif" font-size="10.00">wx/filename.h</text>
</a>
</g>
</g>
<!-- Node1&#45;&gt;Node12 -->
<g id="edge11" class="edge">
<title>Node1&#45;&gt;Node12</title>
<path fill="none" stroke="midnightblue" d="M972.54,-284.32C1056.05,-277.47 1212.91,-263.5 1356.59,-244.11"/>
<polygon fill="midnightblue" stroke="midnightblue" points="1357.47,-247.52 1366.91,-242.7 1356.53,-240.58 1357.47,-247.52"/>
</g>
<!-- Node13 -->
<g id="node13" class="node">
<title>Node13</title>
<g id="a_node13"><a xlink:href="precomp_8h_source.html" target="_top" xlink:title=" ">
<polygon fill="white" stroke="black" points="735,-56.5 735,-75.5 803,-75.5 803,-56.5 735,-56.5"/>
<text text-anchor="middle" x="769" y="-63.5" font-family="Helvetica,sans-Serif" font-size="10.00">precomp.h</text>
</a>
</g>
</g>
<!-- Node1&#45;&gt;Node13 -->
<g id="edge12" class="edge">
<title>Node1&#45;&gt;Node13</title>
<path fill="none" stroke="midnightblue" d="M853.33,-289.78C703.06,-290.32 315.55,-282.35 239,-188 175.54,-109.78 586.32,-77.88 724.66,-69.44"/>
<polygon fill="midnightblue" stroke="midnightblue" points="725.13,-72.91 734.91,-68.82 724.71,-65.93 725.13,-72.91"/>
</g>
<!-- Node15 -->
<g id="node15" class="node">
<title>Node15</title>
<g id="a_node15"><a xlink:href="Configuration_8h_source.html" target="_top" xlink:title=" ">
<polygon fill="white" stroke="black" points="830.5,-224.5 830.5,-243.5 921.5,-243.5 921.5,-224.5 830.5,-224.5"/>
<text text-anchor="middle" x="876" y="-231.5" font-family="Helvetica,sans-Serif" font-size="10.00">Configuration.h</text>
</a>
</g>
</g>
<!-- Node1&#45;&gt;Node15 -->
<g id="edge14" class="edge">
<title>Node1&#45;&gt;Node15</title>
<path fill="none" stroke="midnightblue" d="M906.89,-280.08C901.72,-272.53 894.15,-261.49 887.81,-252.23"/>
<polygon fill="midnightblue" stroke="midnightblue" points="890.54,-250.02 882,-243.75 884.76,-253.98 890.54,-250.02"/>
</g>
<!-- Node44 -->
<g id="node44" class="node">
<title>Node44</title>
<g id="a_node44"><a xlink:title=" ">
<polygon fill="white" stroke="#bfbfbf" points="497.5,-56.5 497.5,-75.5 590.5,-75.5 590.5,-56.5 497.5,-56.5"/>
<text text-anchor="middle" x="544" y="-63.5" font-family="Helvetica,sans-Serif" font-size="10.00">unordered_map</text>
</a>
</g>
</g>
<!-- Node1&#45;&gt;Node44 -->
<g id="edge68" class="edge">
<title>Node1&#45;&gt;Node44</title>
<path fill="none" stroke="midnightblue" d="M853.45,-289.64C717.87,-290.3 390.19,-287.24 290,-244 256.21,-229.42 243.81,-221.69 229,-188 183.65,-84.81 384.38,-68.38 486.93,-66.59"/>
<polygon fill="midnightblue" stroke="midnightblue" points="487.18,-70.08 497.13,-66.45 487.08,-63.08 487.18,-70.08"/>
</g>
<!-- Node14 -->
<g id="node14" class="node">
<title>Node14</title>
<g id="a_node14"><a xlink:href="Version_8h_source.html" target="_top" xlink:title=" ">
<polygon fill="white" stroke="black" points="738,-0.5 738,-19.5 800,-19.5 800,-0.5 738,-0.5"/>
<text text-anchor="middle" x="769" y="-7.5" font-family="Helvetica,sans-Serif" font-size="10.00">Version.h</text>
</a>
</g>
</g>
<!-- Node13&#45;&gt;Node14 -->
<g id="edge13" class="edge">
<title>Node13&#45;&gt;Node14</title>
<path fill="none" stroke="midnightblue" d="M769,-56.08C769,-49.01 769,-38.86 769,-29.99"/>
<polygon fill="midnightblue" stroke="midnightblue" points="772.5,-29.75 769,-19.75 765.5,-29.75 772.5,-29.75"/>
</g>
<!-- Node15&#45;&gt;Node4 -->
<g id="edge60" class="edge">
<title>Node15&#45;&gt;Node4</title>
<path fill="none" stroke="midnightblue" d="M830.24,-231.74C733.6,-228.55 501.83,-218.16 310,-188 308.72,-187.8 307.42,-187.58 306.11,-187.34"/>
<polygon fill="midnightblue" stroke="midnightblue" points="306.51,-183.85 296.01,-185.27 305.11,-190.71 306.51,-183.85"/>
</g>
<!-- Node15&#45;&gt;Node5 -->
<g id="edge59" class="edge">
<title>Node15&#45;&gt;Node5</title>
<path fill="none" stroke="midnightblue" d="M830.1,-231.69C712.17,-227.95 405.23,-215.63 369,-188 336.72,-163.38 327.59,-113.03 325.01,-85.68"/>
<polygon fill="midnightblue" stroke="midnightblue" points="328.49,-85.22 324.26,-75.51 321.51,-85.74 328.49,-85.22"/>
</g>
<!-- Node15&#45;&gt;Node6 -->
<g id="edge64" class="edge">
<title>Node15&#45;&gt;Node6</title>
<path fill="none" stroke="midnightblue" d="M921.8,-225.62C926.59,-225 931.39,-224.44 936,-224 1313.28,-187.84 1412.57,-239.91 1788,-188 1789.47,-187.8 1790.96,-187.56 1792.47,-187.3"/>
<polygon fill="midnightblue" stroke="midnightblue" points="1793.29,-190.71 1802.41,-185.32 1791.92,-183.84 1793.29,-190.71"/>
</g>
<!-- Node15&#45;&gt;Node8 -->
<g id="edge16" class="edge">
<title>Node15&#45;&gt;Node8</title>
<path fill="none" stroke="midnightblue" d="M921.83,-228.3C938.27,-226.75 956.95,-225.13 974,-224 1363.44,-198.21 1467.4,-242.03 1857.28,-187.96"/>
<polygon fill="midnightblue" stroke="midnightblue" points="1858.01,-191.39 1867.43,-186.54 1857.04,-184.46 1858.01,-191.39"/>
</g>
<!-- Node15&#45;&gt;Node13 -->
<g id="edge15" class="edge">
<title>Node15&#45;&gt;Node13</title>
<path fill="none" stroke="midnightblue" d="M921.66,-226.76C1003.02,-215.54 1164.99,-192.67 1169,-188 1174.79,-181.25 1174.98,-174.58 1169,-168 1112.55,-105.88 859.5,-183.22 793,-132 778.87,-121.12 773.06,-101.05 770.67,-86.08"/>
<polygon fill="midnightblue" stroke="midnightblue" points="774.11,-85.36 769.43,-75.86 767.16,-86.21 774.11,-85.36"/>
</g>
<!-- Node16 -->
<g id="node16" class="node">
<title>Node16</title>
<g id="a_node16"><a xlink:title=" ">
<polygon fill="white" stroke="#bfbfbf" points="835,-112.5 835,-131.5 907,-131.5 907,-112.5 835,-112.5"/>
<text text-anchor="middle" x="871" y="-119.5" font-family="Helvetica,sans-Serif" font-size="10.00">wx/config.h</text>
</a>
</g>
</g>
<!-- Node15&#45;&gt;Node16 -->
<g id="edge17" class="edge">
<title>Node15&#45;&gt;Node16</title>
<path fill="none" stroke="midnightblue" d="M921.52,-226.02C926.4,-225.32 931.3,-224.63 936,-224 1003.42,-214.95 1194.81,-238.85 1240,-188 1245.9,-181.36 1245.92,-174.63 1240,-168 1192.47,-114.8 991.59,-142.32 921,-132 919.72,-131.81 918.43,-131.62 917.13,-131.42"/>
<polygon fill="midnightblue" stroke="midnightblue" points="917.44,-127.92 907,-129.77 916.31,-134.83 917.44,-127.92"/>
</g>
<!-- Node17 -->
<g id="node17" class="node">
<title>Node17</title>
<g id="a_node17"><a xlink:title=" ">
<polygon fill="white" stroke="#bfbfbf" points="584.5,-168.5 584.5,-187.5 661.5,-187.5 661.5,-168.5 584.5,-168.5"/>
<text text-anchor="middle" x="623" y="-175.5" font-family="Helvetica,sans-Serif" font-size="10.00">wx/display.h</text>
</a>
</g>
</g>
<!-- Node15&#45;&gt;Node17 -->
<g id="edge18" class="edge">
<title>Node15&#45;&gt;Node17</title>
<path fill="none" stroke="midnightblue" d="M835.91,-224.44C791.29,-214.92 719.2,-199.53 671.46,-189.34"/>
<polygon fill="midnightblue" stroke="midnightblue" points="672.17,-185.92 661.66,-187.25 670.71,-192.76 672.17,-185.92"/>
</g>
<!-- Node18 -->
<g id="node18" class="node">
<title>Node18</title>
<g id="a_node18"><a xlink:title=" ">
<polygon fill="white" stroke="#bfbfbf" points="680,-168.5 680,-187.5 770,-187.5 770,-168.5 680,-168.5"/>
<text text-anchor="middle" x="725" y="-175.5" font-family="Helvetica,sans-Serif" font-size="10.00">wx/fontenum.h</text>
</a>
</g>
</g>
<!-- Node15&#45;&gt;Node18 -->
<g id="edge19" class="edge">
<title>Node15&#45;&gt;Node18</title>
<path fill="none" stroke="midnightblue" d="M852.07,-224.44C826.78,-215.4 786.7,-201.06 758.32,-190.92"/>
<polygon fill="midnightblue" stroke="midnightblue" points="759.41,-187.59 748.81,-187.52 757.05,-194.18 759.41,-187.59"/>
</g>
<!-- Node19 -->
<g id="node19" class="node">
<title>Node19</title>
<g id="a_node19"><a xlink:title=" ">
<polygon fill="white" stroke="#bfbfbf" points="788,-168.5 788,-187.5 876,-187.5 876,-168.5 788,-168.5"/>
<text text-anchor="middle" x="832" y="-175.5" font-family="Helvetica,sans-Serif" font-size="10.00">wx/hashmap.h</text>
</a>
</g>
</g>
<!-- Node15&#45;&gt;Node19 -->
<g id="edge20" class="edge">
<title>Node15&#45;&gt;Node19</title>
<path fill="none" stroke="midnightblue" d="M868.73,-224.08C862.46,-216.38 853.21,-205.03 845.57,-195.65"/>
<polygon fill="midnightblue" stroke="midnightblue" points="848.16,-193.29 839.13,-187.75 842.73,-197.71 848.16,-193.29"/>
</g>
<!-- Node20 -->
<g id="node20" class="node">
<title>Node20</title>
<g id="a_node20"><a xlink:href="LoggingMessageDialog_8h.html" target="_top" xlink:title="This file declares a message dialog that sends its contents to the log message sink.">
<polygon fill="white" stroke="black" points="389.5,-168.5 389.5,-187.5 566.5,-187.5 566.5,-168.5 389.5,-168.5"/>
<text text-anchor="middle" x="478" y="-175.5" font-family="Helvetica,sans-Serif" font-size="10.00">dialogs/LoggingMessageDialog.h</text>
</a>
</g>
</g>
<!-- Node15&#45;&gt;Node20 -->
<g id="edge21" class="edge">
<title>Node15&#45;&gt;Node20</title>
<path fill="none" stroke="midnightblue" d="M830.34,-226.81C762.01,-217.53 632.45,-199.96 550.92,-188.89"/>
<polygon fill="midnightblue" stroke="midnightblue" points="551.11,-185.39 540.73,-187.51 550.17,-192.32 551.11,-185.39"/>
</g>
<!-- Node23 -->
<g id="node23" class="node">
<title>Node23</title>
<g id="a_node23"><a xlink:href="TextStyle_8h.html" target="_top" xlink:title="This file declares everything needed for the text style system used to style all the elements on the ...">
<polygon fill="white" stroke="black" points="1292,-168.5 1292,-187.5 1388,-187.5 1388,-168.5 1292,-168.5"/>
<text text-anchor="middle" x="1340" y="-175.5" font-family="Helvetica,sans-Serif" font-size="10.00">cells/TextStyle.h</text>
</a>
</g>
</g>
<!-- Node15&#45;&gt;Node23 -->
<g id="edge25" class="edge">
<title>Node15&#45;&gt;Node23</title>
<path fill="none" stroke="midnightblue" d="M921.51,-225.96C926.4,-225.27 931.3,-224.6 936,-224 1087.61,-204.66 1126.34,-206.98 1278,-188 1279.27,-187.84 1280.56,-187.68 1281.86,-187.51"/>
<polygon fill="midnightblue" stroke="midnightblue" points="1282.51,-190.95 1291.96,-186.16 1281.59,-184.01 1282.51,-190.95"/>
</g>
<!-- Node30 -->
<g id="node30" class="node">
<title>Node30</title>
<g id="a_node30"><a xlink:title=" ">
<polygon fill="white" stroke="#bfbfbf" points="1881,-56.5 1881,-75.5 1931,-75.5 1931,-56.5 1881,-56.5"/>
<text text-anchor="middle" x="1906" y="-63.5" font-family="Helvetica,sans-Serif" font-size="10.00">cstdint</text>
</a>
</g>
</g>
<!-- Node15&#45;&gt;Node30 -->
<g id="edge58" class="edge">
<title>Node15&#45;&gt;Node30</title>
<path fill="none" stroke="midnightblue" d="M921.72,-226.42C928.84,-225.52 936.11,-224.68 943,-224 1195.17,-199.12 1261.97,-229.14 1512,-188 1606.47,-172.46 1628.53,-160.25 1720,-132 1774.37,-115.21 1836.62,-92.79 1873.55,-79.15"/>
<polygon fill="midnightblue" stroke="midnightblue" points="1875.11,-82.31 1883.27,-75.55 1872.68,-75.74 1875.11,-82.31"/>
</g>
<!-- Node39 -->
<g id="node39" class="node">
<title>Node39</title>
<g id="a_node39"><a xlink:title=" ">
<polygon fill="white" stroke="#bfbfbf" points="1799,-56.5 1799,-75.5 1863,-75.5 1863,-56.5 1799,-56.5"/>
<text text-anchor="middle" x="1831" y="-63.5" font-family="Helvetica,sans-Serif" font-size="10.00">algorithm</text>
</a>
</g>
</g>
<!-- Node15&#45;&gt;Node39 -->
<g id="edge65" class="edge">
<title>Node15&#45;&gt;Node39</title>
<path fill="none" stroke="midnightblue" d="M921.73,-226.52C928.84,-225.61 936.11,-224.73 943,-224 1270.79,-189.01 1364.07,-229.44 1679,-132 1724.57,-117.9 1775.04,-94.71 1804.84,-80.18"/>
<polygon fill="midnightblue" stroke="midnightblue" points="1806.69,-83.16 1814.11,-75.6 1803.6,-76.89 1806.69,-83.16"/>
</g>
<!-- Node42 -->
<g id="node42" class="node">
<title>Node42</title>
<g id="a_node42"><a xlink:title=" ">
<polygon fill="white" stroke="#bfbfbf" points="968,-56.5 968,-75.5 1000,-75.5 1000,-56.5 968,-56.5"/>
<text text-anchor="middle" x="984" y="-63.5" font-family="Helvetica,sans-Serif" font-size="10.00">list</text>
</a>
</g>
</g>
<!-- Node15&#45;&gt;Node42 -->
<g id="edge63" class="edge">
<title>Node15&#45;&gt;Node42</title>
<path fill="none" stroke="midnightblue" d="M921.55,-226.75C1006.96,-214.98 1182.85,-190.48 1185,-188 1190.81,-181.28 1190.96,-174.59 1185,-168 1131.21,-108.54 879.79,-191.46 826,-132 786.53,-88.38 903.06,-73.33 957.55,-68.77"/>
<polygon fill="midnightblue" stroke="midnightblue" points="958.16,-72.23 967.86,-67.97 957.62,-65.25 958.16,-72.23"/>
</g>
<!-- Node15&#45;&gt;Node44 -->
<g id="edge61" class="edge">
<title>Node15&#45;&gt;Node44</title>
<path fill="none" stroke="midnightblue" d="M830.49,-232.29C713.64,-230 410.07,-220.92 380,-188 361.06,-167.26 383.88,-130.98 405,-112 427.69,-91.62 459.72,-80.45 487.32,-74.35"/>
<polygon fill="midnightblue" stroke="midnightblue" points="488.17,-77.75 497.27,-72.32 486.77,-70.89 488.17,-77.75"/>
</g>
<!-- Node45 -->
<g id="node45" class="node">
<title>Node45</title>
<g id="a_node45"><a xlink:title=" ">
<polygon fill="white" stroke="#bfbfbf" points="894,-168.5 894,-187.5 948,-187.5 948,-168.5 894,-168.5"/>
<text text-anchor="middle" x="921" y="-175.5" font-family="Helvetica,sans-Serif" font-size="10.00">random</text>
</a>
</g>
</g>
<!-- Node15&#45;&gt;Node45 -->
<g id="edge62" class="edge">
<title>Node15&#45;&gt;Node45</title>
<path fill="none" stroke="midnightblue" d="M883.43,-224.08C889.85,-216.38 899.31,-205.03 907.12,-195.65"/>
<polygon fill="midnightblue" stroke="midnightblue" points="909.99,-197.67 913.71,-187.75 904.62,-193.19 909.99,-197.67"/>
</g>
<!-- Node46 -->
<g id="node46" class="node">
<title>Node46</title>
<g id="a_node46"><a xlink:title=" ">
<polygon fill="white" stroke="#bfbfbf" points="966.5,-168.5 966.5,-187.5 1055.5,-187.5 1055.5,-168.5 966.5,-168.5"/>
<text text-anchor="middle" x="1011" y="-175.5" font-family="Helvetica,sans-Serif" font-size="10.00">wx/wupdlock.h</text>
</a>
</g>
</g>
<!-- Node15&#45;&gt;Node46 -->
<g id="edge66" class="edge">
<title>Node15&#45;&gt;Node46</title>
<path fill="none" stroke="midnightblue" d="M897.39,-224.44C919.71,-215.52 954.9,-201.44 980.21,-191.32"/>
<polygon fill="midnightblue" stroke="midnightblue" points="981.72,-194.48 989.71,-187.52 979.12,-187.98 981.72,-194.48"/>
</g>
<!-- Node47 -->
<g id="node47" class="node">
<title>Node47</title>
<g id="a_node47"><a xlink:title=" ">
<polygon fill="white" stroke="#bfbfbf" points="1074,-168.5 1074,-187.5 1160,-187.5 1160,-168.5 1074,-168.5"/>
<text text-anchor="middle" x="1117" y="-175.5" font-family="Helvetica,sans-Serif" font-size="10.00">wx/webview.h</text>
</a>
</g>
</g>
<!-- Node15&#45;&gt;Node47 -->
<g id="edge67" class="edge">
<title>Node15&#45;&gt;Node47</title>
<path fill="none" stroke="midnightblue" d="M914.19,-224.44C956.14,-215.04 1023.59,-199.93 1069.07,-189.74"/>
<polygon fill="midnightblue" stroke="midnightblue" points="1070,-193.12 1078.99,-187.52 1068.47,-186.29 1070,-193.12"/>
</g>
<!-- Node20&#45;&gt;Node13 -->
<g id="edge22" class="edge">
<title>Node20&#45;&gt;Node13</title>
<path fill="none" stroke="midnightblue" d="M500.83,-168.37C552.26,-148.93 677.27,-101.67 736.65,-79.23"/>
<polygon fill="midnightblue" stroke="midnightblue" points="738.16,-82.4 746.27,-75.59 735.68,-75.85 738.16,-82.4"/>
</g>
<!-- Node21 -->
<g id="node21" class="node">
<title>Node21</title>
<g id="a_node21"><a xlink:title=" ">
<polygon fill="white" stroke="#bfbfbf" points="414.5,-112.5 414.5,-131.5 493.5,-131.5 493.5,-112.5 414.5,-112.5"/>
<text text-anchor="middle" x="454" y="-119.5" font-family="Helvetica,sans-Serif" font-size="10.00">wx/msgdlg.h</text>
</a>
</g>
</g>
<!-- Node20&#45;&gt;Node21 -->
<g id="edge23" class="edge">
<title>Node20&#45;&gt;Node21</title>
<path fill="none" stroke="midnightblue" d="M474.04,-168.08C470.79,-160.77 466.08,-150.18 462.05,-141.1"/>
<polygon fill="midnightblue" stroke="midnightblue" points="465.15,-139.47 457.89,-131.75 458.75,-142.31 465.15,-139.47"/>
</g>
<!-- Node22 -->
<g id="node22" class="node">
<title>Node22</title>
<g id="a_node22"><a xlink:title=" ">
<polygon fill="white" stroke="#bfbfbf" points="511,-112.5 511,-131.5 569,-131.5 569,-112.5 511,-112.5"/>
<text text-anchor="middle" x="540" y="-119.5" font-family="Helvetica,sans-Serif" font-size="10.00">wx/log.h</text>
</a>
</g>
</g>
<!-- Node20&#45;&gt;Node22 -->
<g id="edge24" class="edge">
<title>Node20&#45;&gt;Node22</title>
<path fill="none" stroke="midnightblue" d="M487.96,-168.32C497.13,-160.34 510.94,-148.31 522.03,-138.65"/>
<polygon fill="midnightblue" stroke="midnightblue" points="524.62,-141.04 529.86,-131.83 520.02,-135.76 524.62,-141.04"/>
</g>
<!-- Node23&#45;&gt;Node13 -->
<g id="edge26" class="edge">
<title>Node23&#45;&gt;Node13</title>
<path fill="none" stroke="midnightblue" d="M1291.93,-171.61C1203.22,-161.55 1020.2,-140.17 992,-132 971.76,-126.14 968.87,-119.03 949,-112 903.62,-95.94 849.88,-83.29 813,-75.55"/>
<polygon fill="midnightblue" stroke="midnightblue" points="813.57,-72.09 803.07,-73.5 812.16,-78.95 813.57,-72.09"/>
</g>
<!-- Node23&#45;&gt;Node16 -->
<g id="edge31" class="edge">
<title>Node23&#45;&gt;Node16</title>
<path fill="none" stroke="midnightblue" d="M1291.96,-169.82C1287.25,-169.17 1282.53,-168.56 1278,-168 1119.72,-148.54 1078.93,-154.14 921,-132 919.75,-131.82 918.48,-131.64 917.2,-131.45"/>
<polygon fill="midnightblue" stroke="midnightblue" points="917.69,-127.98 907.27,-129.87 916.59,-134.9 917.69,-127.98"/>
</g>
<!-- Node24 -->
<g id="node24" class="node">
<title>Node24</title>
<g id="a_node24"><a xlink:title=" ">
<polygon fill="white" stroke="#bfbfbf" points="1001,-112.5 1001,-131.5 1073,-131.5 1073,-112.5 1001,-112.5"/>
<text text-anchor="middle" x="1037" y="-119.5" font-family="Helvetica,sans-Serif" font-size="10.00">wx/colour.h</text>
</a>
</g>
</g>
<!-- Node23&#45;&gt;Node24 -->
<g id="edge27" class="edge">
<title>Node23&#45;&gt;Node24</title>
<path fill="none" stroke="midnightblue" d="M1291.91,-168.98C1242.17,-160.6 1161.99,-146.86 1083.41,-132.23"/>
<polygon fill="midnightblue" stroke="midnightblue" points="1083.81,-128.74 1073.33,-130.35 1082.52,-135.62 1083.81,-128.74"/>
</g>
<!-- Node25 -->
<g id="node25" class="node">
<title>Node25</title>
<g id="a_node25"><a xlink:title=" ">
<polygon fill="white" stroke="#bfbfbf" points="1091,-112.5 1091,-131.5 1129,-131.5 1129,-112.5 1091,-112.5"/>
<text text-anchor="middle" x="1110" y="-119.5" font-family="Helvetica,sans-Serif" font-size="10.00">map</text>
</a>
</g>
</g>
<!-- Node23&#45;&gt;Node25 -->
<g id="edge28" class="edge">
<title>Node23&#45;&gt;Node25</title>
<path fill="none" stroke="midnightblue" d="M1296.37,-168.49C1257.44,-160.62 1198.69,-148.09 1139.16,-132.13"/>
<polygon fill="midnightblue" stroke="midnightblue" points="1139.78,-128.67 1129.21,-129.43 1137.95,-135.43 1139.78,-128.67"/>
</g>
<!-- Node26 -->
<g id="node26" class="node">
<title>Node26</title>
<g id="a_node26"><a xlink:title=" ">
<polygon fill="white" stroke="#bfbfbf" points="1147,-112.5 1147,-131.5 1191,-131.5 1191,-112.5 1147,-112.5"/>
<text text-anchor="middle" x="1169" y="-119.5" font-family="Helvetica,sans-Serif" font-size="10.00">string</text>
</a>
</g>
</g>
<!-- Node23&#45;&gt;Node26 -->
<g id="edge29" class="edge">
<title>Node23&#45;&gt;Node26</title>
<path fill="none" stroke="midnightblue" d="M1312.9,-168.44C1282.48,-158.84 1233.16,-143.26 1200.9,-133.07"/>
<polygon fill="midnightblue" stroke="midnightblue" points="1201.66,-129.64 1191.07,-129.97 1199.56,-136.32 1201.66,-129.64"/>
</g>
<!-- Node27 -->
<g id="node27" class="node">
<title>Node27</title>
<g id="a_node27"><a xlink:title=" ">
<polygon fill="white" stroke="#bfbfbf" points="1209.5,-112.5 1209.5,-131.5 1266.5,-131.5 1266.5,-112.5 1209.5,-112.5"/>
<text text-anchor="middle" x="1238" y="-119.5" font-family="Helvetica,sans-Serif" font-size="10.00">ostream</text>
</a>
</g>
</g>
<!-- Node23&#45;&gt;Node27 -->
<g id="edge30" class="edge">
<title>Node23&#45;&gt;Node27</title>
<path fill="none" stroke="midnightblue" d="M1323.61,-168.32C1307.33,-159.7 1282.13,-146.36 1263.28,-136.39"/>
<polygon fill="midnightblue" stroke="midnightblue" points="1264.82,-133.24 1254.35,-131.65 1261.55,-139.43 1264.82,-133.24"/>
</g>
<!-- Node28 -->
<g id="node28" class="node">
<title>Node28</title>
<g id="a_node28"><a xlink:title=" ">
<polygon fill="white" stroke="#bfbfbf" points="1268,-56.5 1268,-75.5 1330,-75.5 1330,-56.5 1268,-56.5"/>
<text text-anchor="middle" x="1299" y="-63.5" font-family="Helvetica,sans-Serif" font-size="10.00">wx/font.h</text>
</a>
</g>
</g>
<!-- Node23&#45;&gt;Node28 -->
<g id="edge32" class="edge">
<title>Node23&#45;&gt;Node28</title>
<path fill="none" stroke="midnightblue" d="M1360.45,-168.39C1384.79,-156.86 1420.33,-135.16 1405,-112 1397.11,-100.08 1364.98,-87.45 1338.15,-78.61"/>
<polygon fill="midnightblue" stroke="midnightblue" points="1339.14,-75.25 1328.55,-75.53 1337.01,-81.92 1339.14,-75.25"/>
</g>
<!-- Node29 -->
<g id="node29" class="node">
<title>Node29</title>
<g id="a_node29"><a xlink:title=" ">
<polygon fill="white" stroke="#bfbfbf" points="1588,-112.5 1588,-131.5 1670,-131.5 1670,-112.5 1588,-112.5"/>
<text text-anchor="middle" x="1629" y="-119.5" font-family="Helvetica,sans-Serif" font-size="10.00">wx/settings.h</text>
</a>
</g>
</g>
<!-- Node23&#45;&gt;Node29 -->
<g id="edge33" class="edge">
<title>Node23&#45;&gt;Node29</title>
<path fill="none" stroke="midnightblue" d="M1385.79,-168.44C1437.98,-158.69 1523.06,-142.8 1577.51,-132.62"/>
<polygon fill="midnightblue" stroke="midnightblue" points="1578.45,-136.01 1587.64,-130.73 1577.16,-129.13 1578.45,-136.01"/>
</g>
<!-- Node23&#45;&gt;Node30 -->
<g id="edge34" class="edge">
<title>Node23&#45;&gt;Node30</title>
<path fill="none" stroke="midnightblue" d="M1388.09,-172.86C1454.14,-166.67 1576.41,-153.38 1679,-132 1715.95,-124.3 1817.18,-94.05 1871.11,-77.67"/>
<polygon fill="midnightblue" stroke="midnightblue" points="1872.37,-80.95 1880.92,-74.69 1870.33,-74.25 1872.37,-80.95"/>
</g>
<!-- Node31 -->
<g id="node31" class="node">
<title>Node31</title>
<g id="a_node31"><a xlink:title=" ">
<polygon fill="white" stroke="#bfbfbf" points="1525.5,-0.5 1525.5,-19.5 1590.5,-19.5 1590.5,-0.5 1525.5,-0.5"/>
<text text-anchor="middle" x="1558" y="-7.5" font-family="Helvetica,sans-Serif" font-size="10.00">functional</text>
</a>
</g>
</g>
<!-- Node23&#45;&gt;Node31 -->
<g id="edge35" class="edge">
<title>Node23&#45;&gt;Node31</title>
<path fill="none" stroke="midnightblue" d="M1359.71,-168.47C1376.74,-160.53 1401.47,-147.59 1420,-132 1453.36,-103.94 1448.96,-84.43 1482,-56 1496.73,-43.33 1515.49,-32.18 1530.69,-24.14"/>
<polygon fill="midnightblue" stroke="midnightblue" points="1532.33,-27.24 1539.63,-19.56 1529.13,-21.01 1532.33,-27.24"/>
</g>
<!-- Node32 -->
<g id="node32" class="node">
<title>Node32</title>
<g id="a_node32"><a xlink:href="FontAttribs_8h_source.html" target="_top" xlink:title=" ">
<polygon fill="white" stroke="black" points="1490.5,-112.5 1490.5,-131.5 1569.5,-131.5 1569.5,-112.5 1490.5,-112.5"/>
<text text-anchor="middle" x="1530" y="-119.5" font-family="Helvetica,sans-Serif" font-size="10.00">FontAttribs.h</text>
</a>
</g>
</g>
<!-- Node23&#45;&gt;Node32 -->
<g id="edge36" class="edge">
<title>Node23&#45;&gt;Node32</title>
<path fill="none" stroke="midnightblue" d="M1370.11,-168.44C1402.63,-159.2 1454.58,-144.44 1490.39,-134.26"/>
<polygon fill="midnightblue" stroke="midnightblue" points="1491.37,-137.62 1500.03,-131.52 1489.46,-130.88 1491.37,-137.62"/>
</g>
<!-- Node41 -->
<g id="node41" class="node">
<title>Node41</title>
<g id="a_node41"><a xlink:href="FontVariantCache_8h.html" target="_top" xlink:title="This file implements the wxFont cache system.">
<polygon fill="white" stroke="black" points="1284.5,-112.5 1284.5,-131.5 1395.5,-131.5 1395.5,-112.5 1284.5,-112.5"/>
<text text-anchor="middle" x="1340" y="-119.5" font-family="Helvetica,sans-Serif" font-size="10.00">FontVariantCache.h</text>
</a>
</g>
</g>
<!-- Node23&#45;&gt;Node41 -->
<g id="edge49" class="edge">
<title>Node23&#45;&gt;Node41</title>
<path fill="none" stroke="midnightblue" d="M1340,-168.08C1340,-161.01 1340,-150.86 1340,-141.99"/>
<polygon fill="midnightblue" stroke="midnightblue" points="1343.5,-141.75 1340,-131.75 1336.5,-141.75 1343.5,-141.75"/>
</g>
<!-- Node23&#45;&gt;Node44 -->
<g id="edge57" class="edge">
<title>Node23&#45;&gt;Node44</title>
<path fill="none" stroke="midnightblue" d="M1291.68,-171.71C1188.85,-160.42 957.04,-134.75 949,-132 932.77,-126.45 932.21,-117.6 916,-112 859.15,-92.36 690.31,-77.61 600.95,-70.94"/>
<polygon fill="midnightblue" stroke="midnightblue" points="600.95,-67.43 590.72,-70.18 600.44,-74.41 600.95,-67.43"/>
</g>
<!-- Node32&#45;&gt;Node28 -->
<g id="edge43" class="edge">
<title>Node32&#45;&gt;Node28</title>
<path fill="none" stroke="midnightblue" d="M1493.4,-112.44C1451.7,-102.7 1383.74,-86.81 1340.22,-76.63"/>
<polygon fill="midnightblue" stroke="midnightblue" points="1340.78,-73.17 1330.25,-74.3 1339.19,-79.99 1340.78,-73.17"/>
</g>
<!-- Node32&#45;&gt;Node30 -->
<g id="edge46" class="edge">
<title>Node32&#45;&gt;Node30</title>
<path fill="none" stroke="midnightblue" d="M1569.55,-113.53C1572.74,-112.99 1575.92,-112.47 1579,-112 1705.52,-92.63 1741.43,-100.44 1870.94,-75.97"/>
<polygon fill="midnightblue" stroke="midnightblue" points="1871.68,-79.39 1880.84,-74.07 1870.36,-72.52 1871.68,-79.39"/>
</g>
<!-- Node32&#45;&gt;Node31 -->
<g id="edge47" class="edge">
<title>Node32&#45;&gt;Node31</title>
<path fill="none" stroke="midnightblue" d="M1561.2,-112.46C1590.38,-103.77 1630.83,-89.66 1640,-76 1655.37,-53.1 1623.67,-34.5 1595.32,-23.15"/>
<polygon fill="midnightblue" stroke="midnightblue" points="1596.5,-19.86 1585.9,-19.59 1594.02,-26.4 1596.5,-19.86"/>
</g>
<!-- Node33 -->
<g id="node33" class="node">
<title>Node33</title>
<g id="a_node33"><a xlink:href="EnumWrapper_8h_source.html" target="_top" xlink:title=" ">
<polygon fill="white" stroke="black" points="1687,-56.5 1687,-75.5 1781,-75.5 1781,-56.5 1687,-56.5"/>
<text text-anchor="middle" x="1734" y="-63.5" font-family="Helvetica,sans-Serif" font-size="10.00">EnumWrapper.h</text>
</a>
</g>
</g>
<!-- Node32&#45;&gt;Node33 -->
<g id="edge37" class="edge">
<title>Node32&#45;&gt;Node33</title>
<path fill="none" stroke="midnightblue" d="M1562.32,-112.44C1597.39,-103.16 1653.5,-88.31 1691.96,-78.13"/>
<polygon fill="midnightblue" stroke="midnightblue" points="1693.06,-81.46 1701.83,-75.52 1691.26,-74.69 1693.06,-81.46"/>
</g>
<!-- Node36 -->
<g id="node36" class="node">
<title>Node36</title>
<g id="a_node36"><a xlink:href="clamp_8hpp_source.html" target="_top" xlink:title=" ">
<polygon fill="white" stroke="black" points="1348,-56.5 1348,-75.5 1434,-75.5 1434,-56.5 1348,-56.5"/>
<text text-anchor="middle" x="1391" y="-63.5" font-family="Helvetica,sans-Serif" font-size="10.00">stx/clamp.hpp</text>
</a>
</g>
</g>
<!-- Node32&#45;&gt;Node36 -->
<g id="edge41" class="edge">
<title>Node32&#45;&gt;Node36</title>
<path fill="none" stroke="midnightblue" d="M1507.98,-112.44C1484.9,-103.48 1448.44,-89.31 1422.36,-79.18"/>
<polygon fill="midnightblue" stroke="midnightblue" points="1423.51,-75.88 1412.92,-75.52 1420.98,-82.4 1423.51,-75.88"/>
</g>
<!-- Node38 -->
<g id="node38" class="node">
<title>Node38</title>
<g id="a_node38"><a xlink:title=" ">
<polygon fill="white" stroke="#bfbfbf" points="1490.5,-56.5 1490.5,-75.5 1569.5,-75.5 1569.5,-56.5 1490.5,-56.5"/>
<text text-anchor="middle" x="1530" y="-63.5" font-family="Helvetica,sans-Serif" font-size="10.00">wx/version.h</text>
</a>
</g>
</g>
<!-- Node32&#45;&gt;Node38 -->
<g id="edge44" class="edge">
<title>Node32&#45;&gt;Node38</title>
<path fill="none" stroke="midnightblue" d="M1530,-112.08C1530,-105.01 1530,-94.86 1530,-85.99"/>
<polygon fill="midnightblue" stroke="midnightblue" points="1533.5,-85.75 1530,-75.75 1526.5,-85.75 1533.5,-85.75"/>
</g>
<!-- Node32&#45;&gt;Node39 -->
<g id="edge45" class="edge">
<title>Node32&#45;&gt;Node39</title>
<path fill="none" stroke="midnightblue" d="M1569.57,-113.69C1572.76,-113.11 1575.93,-112.54 1579,-112 1669.56,-95.96 1694.96,-94.3 1788.88,-76.15"/>
<polygon fill="midnightblue" stroke="midnightblue" points="1789.65,-79.56 1798.8,-74.22 1788.32,-72.69 1789.65,-79.56"/>
</g>
<!-- Node40 -->
<g id="node40" class="node">
<title>Node40</title>
<g id="a_node40"><a xlink:title=" ">
<polygon fill="white" stroke="#bfbfbf" points="1587,-56.5 1587,-75.5 1631,-75.5 1631,-56.5 1587,-56.5"/>
<text text-anchor="middle" x="1609" y="-63.5" font-family="Helvetica,sans-Serif" font-size="10.00">limits</text>
</a>
</g>
</g>
<!-- Node32&#45;&gt;Node40 -->
<g id="edge48" class="edge">
<title>Node32&#45;&gt;Node40</title>
<path fill="none" stroke="midnightblue" d="M1542.69,-112.32C1554.9,-103.98 1573.58,-91.21 1588,-81.35"/>
<polygon fill="midnightblue" stroke="midnightblue" points="1590.06,-84.19 1596.34,-75.65 1586.11,-78.41 1590.06,-84.19"/>
</g>
<!-- Node33&#45;&gt;Node31 -->
<g id="edge39" class="edge">
<title>Node33&#45;&gt;Node31</title>
<path fill="none" stroke="midnightblue" d="M1706.11,-56.44C1676.25,-47.28 1628.69,-32.69 1595.54,-22.52"/>
<polygon fill="midnightblue" stroke="midnightblue" points="1596.34,-19.1 1585.76,-19.52 1594.29,-25.8 1596.34,-19.1"/>
</g>
<!-- Node34 -->
<g id="node34" class="node">
<title>Node34</title>
<g id="a_node34"><a xlink:title=" ">
<polygon fill="white" stroke="#bfbfbf" points="1746.5,-0.5 1746.5,-19.5 1799.5,-19.5 1799.5,-0.5 1746.5,-0.5"/>
<text text-anchor="middle" x="1773" y="-7.5" font-family="Helvetica,sans-Serif" font-size="10.00">cstddef</text>
</a>
</g>
</g>
<!-- Node33&#45;&gt;Node34 -->
<g id="edge38" class="edge">
<title>Node33&#45;&gt;Node34</title>
<path fill="none" stroke="midnightblue" d="M1740.44,-56.08C1745.95,-48.46 1754.03,-37.26 1760.76,-27.94"/>
<polygon fill="midnightblue" stroke="midnightblue" points="1763.66,-29.91 1766.68,-19.75 1757.99,-25.81 1763.66,-29.91"/>
</g>
<!-- Node35 -->
<g id="node35" class="node">
<title>Node35</title>
<g id="a_node35"><a xlink:title=" ">
<polygon fill="white" stroke="#bfbfbf" points="1659.5,-0.5 1659.5,-19.5 1728.5,-19.5 1728.5,-0.5 1659.5,-0.5"/>
<text text-anchor="middle" x="1694" y="-7.5" font-family="Helvetica,sans-Serif" font-size="10.00">type_traits</text>
</a>
</g>
</g>
<!-- Node33&#45;&gt;Node35 -->
<g id="edge40" class="edge">
<title>Node33&#45;&gt;Node35</title>
<path fill="none" stroke="midnightblue" d="M1727.39,-56.08C1721.74,-48.46 1713.46,-37.26 1706.55,-27.94"/>
<polygon fill="midnightblue" stroke="midnightblue" points="1709.25,-25.7 1700.48,-19.75 1703.62,-29.87 1709.25,-25.7"/>
</g>
<!-- Node37 -->
<g id="node37" class="node">
<title>Node37</title>
<g id="a_node37"><a xlink:title=" ">
<polygon fill="white" stroke="#bfbfbf" points="1365,-0.5 1365,-19.5 1417,-19.5 1417,-0.5 1365,-0.5"/>
<text text-anchor="middle" x="1391" y="-7.5" font-family="Helvetica,sans-Serif" font-size="10.00">cassert</text>
</a>
</g>
</g>
<!-- Node36&#45;&gt;Node37 -->
<g id="edge42" class="edge">
<title>Node36&#45;&gt;Node37</title>
<path fill="none" stroke="midnightblue" d="M1391,-56.08C1391,-49.01 1391,-38.86 1391,-29.99"/>
<polygon fill="midnightblue" stroke="midnightblue" points="1394.5,-29.75 1391,-19.75 1387.5,-29.75 1394.5,-29.75"/>
</g>
<!-- Node41&#45;&gt;Node5 -->
<g id="edge51" class="edge">
<title>Node41&#45;&gt;Node5</title>
<path fill="none" stroke="midnightblue" d="M1284.19,-112.84C1281.42,-112.53 1278.68,-112.25 1276,-112 926.92,-79.55 838.15,-93.61 488,-76 445.34,-73.86 396.46,-71.14 363.24,-69.25"/>
<polygon fill="midnightblue" stroke="midnightblue" points="363.21,-65.75 353.03,-68.67 362.81,-72.74 363.21,-65.75"/>
</g>
<!-- Node41&#45;&gt;Node13 -->
<g id="edge50" class="edge">
<title>Node41&#45;&gt;Node13</title>
<path fill="none" stroke="midnightblue" d="M1284.17,-112.98C1281.41,-112.63 1278.68,-112.31 1276,-112 1105.38,-92.44 901.61,-76.65 813.36,-70.17"/>
<polygon fill="midnightblue" stroke="midnightblue" points="813.41,-66.66 803.18,-69.43 812.9,-73.65 813.41,-66.66"/>
</g>
<!-- Node41&#45;&gt;Node28 -->
<g id="edge52" class="edge">
<title>Node41&#45;&gt;Node28</title>
<path fill="none" stroke="midnightblue" d="M1333.23,-112.08C1327.44,-104.46 1318.94,-93.26 1311.86,-83.94"/>
<polygon fill="midnightblue" stroke="midnightblue" points="1314.48,-81.6 1305.64,-75.75 1308.9,-85.83 1314.48,-81.6"/>
</g>
<!-- Node41&#45;&gt;Node31 -->
<g id="edge53" class="edge">
<title>Node41&#45;&gt;Node31</title>
<path fill="none" stroke="midnightblue" d="M1313.83,-112.49C1283.05,-101.14 1238.59,-79.71 1259,-56 1275.51,-36.82 1436.81,-21 1515.4,-14.36"/>
<polygon fill="midnightblue" stroke="midnightblue" points="1515.79,-17.84 1525.46,-13.53 1515.21,-10.87 1515.79,-17.84"/>
</g>
<!-- Node41&#45;&gt;Node42 -->
<g id="edge54" class="edge">
<title>Node41&#45;&gt;Node42</title>
<path fill="none" stroke="midnightblue" d="M1284.38,-112.56C1206.48,-100.75 1067.98,-79.74 1010.32,-70.99"/>
<polygon fill="midnightblue" stroke="midnightblue" points="1010.63,-67.5 1000.22,-69.46 1009.58,-74.42 1010.63,-67.5"/>
</g>
<!-- Node43 -->
<g id="node43" class="node">
<title>Node43</title>
<g id="a_node43"><a xlink:title=" ">
<polygon fill="white" stroke="#bfbfbf" points="1166.5,-56.5 1166.5,-75.5 1211.5,-75.5 1211.5,-56.5 1166.5,-56.5"/>
<text text-anchor="middle" x="1189" y="-63.5" font-family="Helvetica,sans-Serif" font-size="10.00">utility</text>
</a>
</g>
</g>
<!-- Node41&#45;&gt;Node43 -->
<g id="edge55" class="edge">
<title>Node41&#45;&gt;Node43</title>
<path fill="none" stroke="midnightblue" d="M1316.07,-112.44C1290.48,-103.29 1249.75,-88.73 1221.32,-78.56"/>
<polygon fill="midnightblue" stroke="midnightblue" points="1222.42,-75.23 1211.83,-75.16 1220.06,-81.83 1222.42,-75.23"/>
</g>
<!-- Node41&#45;&gt;Node44 -->
<g id="edge56" class="edge">
<title>Node41&#45;&gt;Node44</title>
<path fill="none" stroke="midnightblue" d="M1284.18,-112.89C1281.42,-112.57 1278.68,-112.27 1276,-112 1145.18,-98.8 748.96,-77.61 600.76,-69.91"/>
<polygon fill="midnightblue" stroke="midnightblue" points="600.69,-66.4 590.52,-69.38 600.33,-73.39 600.69,-66.4"/>
</g>
</g>
</svg>
        <g id="navigator" transform="translate(0 0)" fill="#404254">
                <rect fill="#f2f5e9" fill-opacity="0.5" stroke="#606060" stroke-width=".5" x="0" y="0" width="60" height="60"/>
                <use id="zoomplus" xlink:href="#zoomPlus" x="17" y="9" onmousedown="handleZoom(evt,'in')"/>
                <use id="zoomminus" xlink:href="#zoomMin" x="42" y="9" onmousedown="handleZoom(evt,'out')"/>
                <use id="reset" xlink:href="#resetDef" x="30" y="36" onmousedown="handleReset()"/>
                <g id="arrowUp" xlink:href="#dirArrow" transform="translate(30 24)" onmousedown="handlePan(0,-1)">
                  <use xlink:href="#rim" fill="#404040">
                        <set attributeName="fill" to="#808080" begin="arrowUp.mouseover" end="arrowUp.mouseout"/>
                  </use>
                  <path fill="none" stroke="white" stroke-width="1.5" d="M0,-3.0v7 M-2.5,-0.5L0,-3.0L2.5,-0.5"/>
                </g>
                <g id="arrowRight" xlink:href="#dirArrow" transform="rotate(90) translate(36 -43)" onmousedown="handlePan(1,0)">
                  <use xlink:href="#rim" fill="#404040">
                        <set attributeName="fill" to="#808080" begin="arrowRight.mouseover" end="arrowRight.mouseout"/>
                  </use>
                  <path fill="none" stroke="white" stroke-width="1.5" d="M0,-3.0v7 M-2.5,-0.5L0,-3.0L2.5,-0.5"/>
                </g>
                <g id="arrowDown" xlink:href="#dirArrow" transform="rotate(180) translate(-30 -48)" onmousedown="handlePan(0,1)">
                  <use xlink:href="#rim" fill="#404040">
                        <set attributeName="fill" to="#808080" begin="arrowDown.mouseover" end="arrowDown.mouseout"/>
                  </use>
                  <path fill="none" stroke="white" stroke-width="1.5" d="M0,-3.0v7 M-2.5,-0.5L0,-3.0L2.5,-0.5"/>
                </g>
                <g id="arrowLeft" xlink:href="#dirArrow" transform="rotate(270) translate(-36 17)" onmousedown="handlePan(-1,0)">
                  <use xlink:href="#rim" fill="#404040">
                        <set attributeName="fill" to="#808080" begin="arrowLeft.mouseover" end="arrowLeft.mouseout"/>
                  </use>
                  <path fill="none" stroke="white" stroke-width="1.5" d="M0,-3.0v7 M-2.5,-0.5L0,-3.0L2.5,-0.5"/>
                </g>
        </g>
        <svg viewBox="0 0 15 15" width="100%" height="30px" preserveAspectRatio="xMaxYMin meet">
         <g id="arrow_out" transform="scale(0.3 0.3)">
          <a xlink:href="MaximaManual_8h__incl_org.svg" target="_base">
           <rect id="button" ry="5" rx="5" y="6" x="6" height="38" width="38"
                fill="#f2f5e9" fill-opacity="0.5" stroke="#606060" stroke-width="1.0"/>
           <path id="arrow"
             d="M 11.500037,31.436501 C 11.940474,20.09759 22.043105,11.32322 32.158766,21.979434 L 37.068811,17.246167 C 37.068811,17.246167 37.088388,32 37.088388,32 L 22.160133,31.978069 C 22.160133,31.978069 26.997745,27.140456 26.997745,27.140456 C 18.528582,18.264221 13.291696,25.230495 11.500037,31.436501 z"
             style="fill:#404040;"/>
          </a>
         </g>
        </svg>
</svg>
