<?xml version="1.0" encoding="UTF-8" standalone="no"?>
<!DOCTYPE svg PUBLIC "-//W3C//DTD SVG 1.1//EN"
 "http://www.w3.org/Graphics/SVG/1.1/DTD/svg11.dtd">
<!-- Generated by graphviz version 2.43.0 (0)
 -->
<!-- Title: src/MaximaTokenizer.cpp Pages: 1 -->
<!--zoomable 412 -->
<svg id="main" version="1.1" xmlns="http://www.w3.org/2000/svg" xmlns:xlink="http://www.w3.org/1999/xlink" xml:space="preserve" onload="init(evt)">
<style type="text/css"><![CDATA[
.edge:hover path { stroke: red; }
.edge:hover polygon { stroke: red; fill: red; }
]]></style>
<script type="text/javascript"><![CDATA[
var edges = document.getElementsByTagName('g');
if (edges && edges.length) {
  for (var i=0;i<edges.length;i++) {
    if (edges[i].id.substr(0,4)=='edge') {
      edges[i].setAttribute('class','edge');
    }
  }
}
]]></script>
        <defs>
                <circle id="rim" cx="0" cy="0" r="7"/>
                <circle id="rim2" cx="0" cy="0" r="3.5"/>
                <g id="zoomPlus">
                        <use xlink:href="#rim" fill="#404040">
                                <set attributeName="fill" to="#808080" begin="zoomplus.mouseover" end="zoomplus.mouseout"/>
                        </use>
                        <path d="M-4,0h8M0,-4v8" fill="none" stroke="white" stroke-width="1.5" pointer-events="none"/>
                </g>
                <g id="zoomMin">
                        <use xlink:href="#rim" fill="#404040">
                                <set attributeName="fill" to="#808080" begin="zoomminus.mouseover" end="zoomminus.mouseout"/>
                        </use>
                        <path d="M-4,0h8" fill="none" stroke="white" stroke-width="1.5" pointer-events="none"/>
                </g>
                <g id="dirArrow">
                        <path fill="none" stroke="white" stroke-width="1.5" d="M0,-3.0v7 M-2.5,-0.5L0,-3.0L2.5,-0.5"/>
                </g>
               <g id="resetDef">
                       <use xlink:href="#rim2" fill="#404040">
                               <set attributeName="fill" to="#808080" begin="reset.mouseover" end="reset.mouseout"/>
                       </use>
               </g>
        </defs>

<script type="text/javascript">
var viewWidth = 1840;
var viewHeight = 412;
var sectionId = 'dynsection-0';
</script>
<script xlink:href="svgpan.js"/>
<svg id="graph" class="graph">
<g id="viewport">
<title>src/MaximaTokenizer.cpp</title>
<!-- Node1 -->
<g id="node1" class="node">
<title>Node1</title>
<g id="a_node1"><a xlink:title="This file defines the class ExptCell.">
<polygon fill="#999999" stroke="#666666" points="1738.5,-404 1599.5,-404 1599.5,-385 1738.5,-385 1738.5,-404"/>
<text text-anchor="middle" x="1669" y="-392" font-family="Helvetica,sans-Serif" font-size="10.00">src/MaximaTokenizer.cpp</text>
</a>
</g>
</g>
<!-- Node2 -->
<g id="node2" class="node">
<title>Node2</title>
<g id="a_node2"><a xlink:href="MaximaTokenizer_8h.html" target="_top" xlink:title="This file declares the class Maximatokenizer.">
<polygon fill="white" stroke="#666666" points="1489,-349 1379,-349 1379,-330 1489,-330 1489,-349"/>
<text text-anchor="middle" x="1434" y="-337" font-family="Helvetica,sans-Serif" font-size="10.00">MaximaTokenizer.h</text>
</a>
</g>
</g>
<!-- Node1&#45;&gt;Node2 -->
<g id="edge1" class="edge">
<title>Node1&#45;&gt;Node2</title>
<path fill="none" stroke="#63b8ff" d="M1631.24,-384.98C1590.68,-375.84 1526.11,-361.27 1481.97,-351.32"/>
<polygon fill="#63b8ff" stroke="#63b8ff" points="1482.58,-347.87 1472.05,-349.08 1481.04,-354.7 1482.58,-347.87"/>
</g>
<!-- Node4 -->
<g id="node4" class="node">
<title>Node4</title>
<g id="a_node4"><a xlink:title=" ">
<polygon fill="#e0e0e0" stroke="#999999" points="1540.5,-184 1493.5,-184 1493.5,-165 1540.5,-165 1540.5,-184"/>
<text text-anchor="middle" x="1517" y="-172" font-family="Helvetica,sans-Serif" font-size="10.00">vector</text>
</a>
</g>
</g>
<!-- Node1&#45;&gt;Node4 -->
<g id="edge72" class="edge">
<title>Node1&#45;&gt;Node4</title>
<path fill="none" stroke="#63b8ff" d="M1685.38,-384.9C1698.15,-377.27 1715.15,-364.88 1724,-349 1740.09,-320.15 1748.26,-303.17 1731,-275 1692.02,-211.41 1600.26,-187.94 1550.5,-179.69"/>
<polygon fill="#63b8ff" stroke="#63b8ff" points="1550.97,-176.22 1540.55,-178.15 1549.9,-183.14 1550.97,-176.22"/>
</g>
<!-- Node6 -->
<g id="node6" class="node">
<title>Node6</title>
<g id="a_node6"><a xlink:title=" ">
<polygon fill="#e0e0e0" stroke="#999999" points="1614.5,-239 1557.5,-239 1557.5,-220 1614.5,-220 1614.5,-239"/>
<text text-anchor="middle" x="1586" y="-227" font-family="Helvetica,sans-Serif" font-size="10.00">wx/wx.h</text>
</a>
</g>
</g>
<!-- Node1&#45;&gt;Node6 -->
<g id="edge74" class="edge">
<title>Node1&#45;&gt;Node6</title>
<path fill="none" stroke="#63b8ff" d="M1677.6,-384.74C1696.85,-364.06 1739.76,-311.23 1714,-275 1693.94,-246.79 1654.65,-236.3 1624.86,-232.49"/>
<polygon fill="#63b8ff" stroke="#63b8ff" points="1625.09,-229 1614.77,-231.4 1624.34,-235.96 1625.09,-229"/>
</g>
<!-- Node7 -->
<g id="node7" class="node">
<title>Node7</title>
<g id="a_node7"><a xlink:title=" ">
<polygon fill="#e0e0e0" stroke="#999999" points="1704.5,-294 1633.5,-294 1633.5,-275 1704.5,-275 1704.5,-294"/>
<text text-anchor="middle" x="1669" y="-282" font-family="Helvetica,sans-Serif" font-size="10.00">wx/string.h</text>
</a>
</g>
</g>
<!-- Node1&#45;&gt;Node7 -->
<g id="edge73" class="edge">
<title>Node1&#45;&gt;Node7</title>
<path fill="none" stroke="#63b8ff" d="M1669,-384.66C1669,-367.17 1669,-327.8 1669,-304.27"/>
<polygon fill="#63b8ff" stroke="#63b8ff" points="1672.5,-304.16 1669,-294.16 1665.5,-304.16 1672.5,-304.16"/>
</g>
<!-- Node9 -->
<g id="node9" class="node">
<title>Node9</title>
<g id="a_node9"><a xlink:href="precomp_8h_source.html" target="_top" xlink:title=" ">
<polygon fill="white" stroke="#666666" points="129,-74 61,-74 61,-55 129,-55 129,-74"/>
<text text-anchor="middle" x="95" y="-62" font-family="Helvetica,sans-Serif" font-size="10.00">precomp.h</text>
</a>
</g>
</g>
<!-- Node1&#45;&gt;Node9 -->
<g id="edge71" class="edge">
<title>Node1&#45;&gt;Node9</title>
<path fill="none" stroke="#63b8ff" d="M1599.41,-392.7C1283.54,-388.61 0,-366.98 0,-285.5 0,-285.5 0,-285.5 0,-173.5 0,-130.91 42.16,-97.14 70.31,-79.33"/>
<polygon fill="#63b8ff" stroke="#63b8ff" points="72.16,-82.31 78.88,-74.12 68.52,-76.32 72.16,-82.31"/>
</g>
<!-- Node3 -->
<g id="node3" class="node">
<title>Node3</title>
<g id="a_node3"><a xlink:title=" ">
<polygon fill="#e0e0e0" stroke="#999999" points="461.5,-74 416.5,-74 416.5,-55 461.5,-55 461.5,-74"/>
<text text-anchor="middle" x="439" y="-62" font-family="Helvetica,sans-Serif" font-size="10.00">utility</text>
</a>
</g>
</g>
<!-- Node2&#45;&gt;Node3 -->
<g id="edge2" class="edge">
<title>Node2&#45;&gt;Node3</title>
<path fill="none" stroke="#63b8ff" d="M1378.85,-337.5C1208.54,-333.61 693.62,-315.65 548,-239 487.92,-207.38 468.88,-191.35 442,-129 435.92,-114.89 435.56,-97.35 436.51,-84.28"/>
<polygon fill="#63b8ff" stroke="#63b8ff" points="440.01,-84.45 437.56,-74.14 433.04,-83.73 440.01,-84.45"/>
</g>
<!-- Node2&#45;&gt;Node4 -->
<g id="edge3" class="edge">
<title>Node2&#45;&gt;Node4</title>
<path fill="none" stroke="#63b8ff" d="M1444.57,-329.99C1454.22,-321.71 1468.28,-308.31 1477,-294 1496.69,-261.66 1508.12,-218.39 1513.4,-194.09"/>
<polygon fill="#63b8ff" stroke="#63b8ff" points="1516.87,-194.59 1515.46,-184.09 1510.01,-193.18 1516.87,-194.59"/>
</g>
<!-- Node5 -->
<g id="node5" class="node">
<title>Node5</title>
<g id="a_node5"><a xlink:title=" ">
<polygon fill="#e0e0e0" stroke="#999999" points="1832,-74 1774,-74 1774,-55 1832,-55 1832,-74"/>
<text text-anchor="middle" x="1803" y="-62" font-family="Helvetica,sans-Serif" font-size="10.00">memory</text>
</a>
</g>
</g>
<!-- Node2&#45;&gt;Node5 -->
<g id="edge4" class="edge">
<title>Node2&#45;&gt;Node5</title>
<path fill="none" stroke="#63b8ff" d="M1473.81,-329.98C1501.09,-323 1537.38,-311.4 1566,-294 1665.65,-233.43 1757,-124.27 1789.98,-82.44"/>
<polygon fill="#63b8ff" stroke="#63b8ff" points="1792.89,-84.4 1796.28,-74.37 1787.37,-80.1 1792.89,-84.4"/>
</g>
<!-- Node2&#45;&gt;Node6 -->
<g id="edge5" class="edge">
<title>Node2&#45;&gt;Node6</title>
<path fill="none" stroke="#63b8ff" d="M1468.92,-329.95C1491.78,-323.06 1521.33,-311.58 1543,-294 1558.31,-281.58 1570.29,-262.29 1577.68,-248.22"/>
<polygon fill="#63b8ff" stroke="#63b8ff" points="1580.91,-249.59 1582.22,-239.08 1574.64,-246.48 1580.91,-249.59"/>
</g>
<!-- Node2&#45;&gt;Node7 -->
<g id="edge6" class="edge">
<title>Node2&#45;&gt;Node7</title>
<path fill="none" stroke="#63b8ff" d="M1471.76,-329.98C1513.04,-320.67 1579.2,-305.75 1623.36,-295.79"/>
<polygon fill="#63b8ff" stroke="#63b8ff" points="1624.28,-299.17 1633.26,-293.56 1622.74,-292.35 1624.28,-299.17"/>
</g>
<!-- Node8 -->
<g id="node8" class="node">
<title>Node8</title>
<g id="a_node8"><a xlink:title=" ">
<polygon fill="#e0e0e0" stroke="#999999" points="1468,-294 1400,-294 1400,-275 1468,-275 1468,-294"/>
<text text-anchor="middle" x="1434" y="-282" font-family="Helvetica,sans-Serif" font-size="10.00">wx/arrstr.h</text>
</a>
</g>
</g>
<!-- Node2&#45;&gt;Node8 -->
<g id="edge7" class="edge">
<title>Node2&#45;&gt;Node8</title>
<path fill="none" stroke="#63b8ff" d="M1434,-329.75C1434,-322.8 1434,-312.85 1434,-304.13"/>
<polygon fill="#63b8ff" stroke="#63b8ff" points="1437.5,-304.09 1434,-294.09 1430.5,-304.09 1437.5,-304.09"/>
</g>
<!-- Node2&#45;&gt;Node9 -->
<g id="edge8" class="edge">
<title>Node2&#45;&gt;Node9</title>
<path fill="none" stroke="#63b8ff" d="M1378.69,-338.14C1176.96,-336.58 481.21,-328.72 262,-294 159.8,-277.81 38,-333.98 38,-230.5 38,-230.5 38,-230.5 38,-173.5 38,-137.51 63.06,-101.76 79.95,-81.76"/>
<polygon fill="#63b8ff" stroke="#63b8ff" points="82.62,-84.02 86.59,-74.2 77.36,-79.4 82.62,-84.02"/>
</g>
<!-- Node11 -->
<g id="node11" class="node">
<title>Node11</title>
<g id="a_node11"><a xlink:href="TextStyle_8h.html" target="_top" xlink:title="This file declares everything needed for the text style system used to style all the elements on the ...">
<polygon fill="white" stroke="#666666" points="1085,-184 989,-184 989,-165 1085,-165 1085,-184"/>
<text text-anchor="middle" x="1037" y="-172" font-family="Helvetica,sans-Serif" font-size="10.00">cells/TextStyle.h</text>
</a>
</g>
</g>
<!-- Node2&#45;&gt;Node11 -->
<g id="edge10" class="edge">
<title>Node2&#45;&gt;Node11</title>
<path fill="none" stroke="#63b8ff" d="M1425.75,-329.98C1417.08,-321.03 1403.07,-306.54 1391,-294 1359.39,-261.17 1360.41,-241.09 1320,-220 1281.91,-200.12 1166.36,-186.81 1095.23,-180.25"/>
<polygon fill="#63b8ff" stroke="#63b8ff" points="1095.35,-176.75 1085.07,-179.33 1094.72,-183.72 1095.35,-176.75"/>
</g>
<!-- Node31 -->
<g id="node31" class="node">
<title>Node31</title>
<g id="a_node31"><a xlink:title=" ">
<polygon fill="#e0e0e0" stroke="#999999" points="285.5,-74 192.5,-74 192.5,-55 285.5,-55 285.5,-74"/>
<text text-anchor="middle" x="239" y="-62" font-family="Helvetica,sans-Serif" font-size="10.00">unordered_map</text>
</a>
</g>
</g>
<!-- Node2&#45;&gt;Node31 -->
<g id="edge70" class="edge">
<title>Node2&#45;&gt;Node31</title>
<path fill="none" stroke="#63b8ff" d="M1378.74,-338.4C1146.28,-337.42 255.87,-327.85 172,-239 132.27,-196.9 157.36,-157.81 190,-110 197.72,-98.7 208.86,-88.28 218.57,-80.37"/>
<polygon fill="#63b8ff" stroke="#63b8ff" points="220.88,-83.01 226.61,-74.1 216.58,-77.49 220.88,-83.01"/>
</g>
<!-- Node32 -->
<g id="node32" class="node">
<title>Node32</title>
<g id="a_node32"><a xlink:href="Configuration_8h_source.html" target="_top" xlink:title=" ">
<polygon fill="white" stroke="#666666" points="978.5,-294 887.5,-294 887.5,-275 978.5,-275 978.5,-294"/>
<text text-anchor="middle" x="933" y="-282" font-family="Helvetica,sans-Serif" font-size="10.00">Configuration.h</text>
</a>
</g>
</g>
<!-- Node2&#45;&gt;Node32 -->
<g id="edge42" class="edge">
<title>Node2&#45;&gt;Node32</title>
<path fill="none" stroke="#63b8ff" d="M1378.95,-332.68C1282.81,-322.51 1085.36,-301.62 988.74,-291.4"/>
<polygon fill="#63b8ff" stroke="#63b8ff" points="988.9,-287.89 978.59,-290.32 988.16,-294.86 988.9,-287.89"/>
</g>
<!-- Node10 -->
<g id="node10" class="node">
<title>Node10</title>
<g id="a_node10"><a xlink:title=" ">
<polygon fill="#e0e0e0" stroke="#999999" points="135.5,-19 54.5,-19 54.5,0 135.5,0 135.5,-19"/>
<text text-anchor="middle" x="95" y="-7" font-family="Helvetica,sans-Serif" font-size="10.00">BuildConfig.h</text>
</a>
</g>
</g>
<!-- Node9&#45;&gt;Node10 -->
<g id="edge9" class="edge">
<title>Node9&#45;&gt;Node10</title>
<path fill="none" stroke="#63b8ff" d="M95,-54.75C95,-47.8 95,-37.85 95,-29.13"/>
<polygon fill="#63b8ff" stroke="#63b8ff" points="98.5,-29.09 95,-19.09 91.5,-29.09 98.5,-29.09"/>
</g>
<!-- Node11&#45;&gt;Node9 -->
<g id="edge11" class="edge">
<title>Node11&#45;&gt;Node9</title>
<path fill="none" stroke="#63b8ff" d="M988.97,-173.32C920.27,-171.76 790.78,-163.9 687,-129 670.96,-123.61 670.17,-114.99 654,-110 453.39,-48.09 392.16,-92.09 183,-74 168.86,-72.78 153.46,-71.33 139.55,-69.98"/>
<polygon fill="#63b8ff" stroke="#63b8ff" points="139.55,-66.46 129.25,-68.97 138.87,-73.43 139.55,-66.46"/>
</g>
<!-- Node12 -->
<g id="node12" class="node">
<title>Node12</title>
<g id="a_node12"><a xlink:title=" ">
<polygon fill="#e0e0e0" stroke="#999999" points="941,-129 869,-129 869,-110 941,-110 941,-129"/>
<text text-anchor="middle" x="905" y="-117" font-family="Helvetica,sans-Serif" font-size="10.00">wx/colour.h</text>
</a>
</g>
</g>
<!-- Node11&#45;&gt;Node12 -->
<g id="edge12" class="edge">
<title>Node11&#45;&gt;Node12</title>
<path fill="none" stroke="#63b8ff" d="M1015.79,-164.98C994.27,-156.34 960.72,-142.87 936.17,-133.02"/>
<polygon fill="#63b8ff" stroke="#63b8ff" points="937.18,-129.65 926.59,-129.17 934.57,-136.14 937.18,-129.65"/>
</g>
<!-- Node13 -->
<g id="node13" class="node">
<title>Node13</title>
<g id="a_node13"><a xlink:title=" ">
<polygon fill="#e0e0e0" stroke="#999999" points="997,-129 959,-129 959,-110 997,-110 997,-129"/>
<text text-anchor="middle" x="978" y="-117" font-family="Helvetica,sans-Serif" font-size="10.00">map</text>
</a>
</g>
</g>
<!-- Node11&#45;&gt;Node13 -->
<g id="edge13" class="edge">
<title>Node11&#45;&gt;Node13</title>
<path fill="none" stroke="#63b8ff" d="M1027.52,-164.98C1018.8,-157.15 1005.66,-145.34 995.1,-135.86"/>
<polygon fill="#63b8ff" stroke="#63b8ff" points="997.43,-133.25 987.65,-129.17 992.75,-138.46 997.43,-133.25"/>
</g>
<!-- Node14 -->
<g id="node14" class="node">
<title>Node14</title>
<g id="a_node14"><a xlink:title=" ">
<polygon fill="#e0e0e0" stroke="#999999" points="555,-129 467,-129 467,-110 555,-110 555,-129"/>
<text text-anchor="middle" x="511" y="-117" font-family="Helvetica,sans-Serif" font-size="10.00">wx/hashmap.h</text>
</a>
</g>
</g>
<!-- Node11&#45;&gt;Node14 -->
<g id="edge14" class="edge">
<title>Node11&#45;&gt;Node14</title>
<path fill="none" stroke="#63b8ff" d="M988.88,-170.02C905,-163.71 726.37,-149.29 565.31,-129.09"/>
<polygon fill="#63b8ff" stroke="#63b8ff" points="565.58,-125.59 555.22,-127.81 564.7,-132.54 565.58,-125.59"/>
</g>
<!-- Node15 -->
<g id="node15" class="node">
<title>Node15</title>
<g id="a_node15"><a xlink:title=" ">
<polygon fill="#e0e0e0" stroke="#999999" points="1059,-129 1015,-129 1015,-110 1059,-110 1059,-129"/>
<text text-anchor="middle" x="1037" y="-117" font-family="Helvetica,sans-Serif" font-size="10.00">string</text>
</a>
</g>
</g>
<!-- Node11&#45;&gt;Node15 -->
<g id="edge15" class="edge">
<title>Node11&#45;&gt;Node15</title>
<path fill="none" stroke="#63b8ff" d="M1037,-164.75C1037,-157.8 1037,-147.85 1037,-139.13"/>
<polygon fill="#63b8ff" stroke="#63b8ff" points="1040.5,-139.09 1037,-129.09 1033.5,-139.09 1040.5,-139.09"/>
</g>
<!-- Node16 -->
<g id="node16" class="node">
<title>Node16</title>
<g id="a_node16"><a xlink:title=" ">
<polygon fill="#e0e0e0" stroke="#999999" points="1134.5,-129 1077.5,-129 1077.5,-110 1134.5,-110 1134.5,-129"/>
<text text-anchor="middle" x="1106" y="-117" font-family="Helvetica,sans-Serif" font-size="10.00">ostream</text>
</a>
</g>
</g>
<!-- Node11&#45;&gt;Node16 -->
<g id="edge16" class="edge">
<title>Node11&#45;&gt;Node16</title>
<path fill="none" stroke="#63b8ff" d="M1048.09,-164.98C1058.49,-157 1074.26,-144.88 1086.72,-135.31"/>
<polygon fill="#63b8ff" stroke="#63b8ff" points="1088.91,-138.04 1094.71,-129.17 1084.65,-132.49 1088.91,-138.04"/>
</g>
<!-- Node17 -->
<g id="node17" class="node">
<title>Node17</title>
<g id="a_node17"><a xlink:title=" ">
<polygon fill="#e0e0e0" stroke="#999999" points="645,-129 573,-129 573,-110 645,-110 645,-129"/>
<text text-anchor="middle" x="609" y="-117" font-family="Helvetica,sans-Serif" font-size="10.00">wx/config.h</text>
</a>
</g>
</g>
<!-- Node11&#45;&gt;Node17 -->
<g id="edge17" class="edge">
<title>Node11&#45;&gt;Node17</title>
<path fill="none" stroke="#63b8ff" d="M988.86,-168.63C916.94,-161.18 777.22,-146 659,-129 657.73,-128.82 656.43,-128.63 655.13,-128.43"/>
<polygon fill="#63b8ff" stroke="#63b8ff" points="655.44,-124.94 645.02,-126.85 654.35,-131.85 655.44,-124.94"/>
</g>
<!-- Node18 -->
<g id="node18" class="node">
<title>Node18</title>
<g id="a_node18"><a xlink:title=" ">
<polygon fill="#e0e0e0" stroke="#999999" points="1194,-74 1132,-74 1132,-55 1194,-55 1194,-74"/>
<text text-anchor="middle" x="1163" y="-62" font-family="Helvetica,sans-Serif" font-size="10.00">wx/font.h</text>
</a>
</g>
</g>
<!-- Node11&#45;&gt;Node18 -->
<g id="edge18" class="edge">
<title>Node11&#45;&gt;Node18</title>
<path fill="none" stroke="#63b8ff" d="M1078.66,-164.95C1100.53,-158.48 1126.19,-147.44 1143,-129 1154.19,-116.72 1159.12,-98.21 1161.29,-84.34"/>
<polygon fill="#63b8ff" stroke="#63b8ff" points="1164.82,-84.36 1162.54,-74.01 1157.87,-83.52 1164.82,-84.36"/>
</g>
<!-- Node19 -->
<g id="node19" class="node">
<title>Node19</title>
<g id="a_node19"><a xlink:title=" ">
<polygon fill="#e0e0e0" stroke="#999999" points="1273,-129 1191,-129 1191,-110 1273,-110 1273,-129"/>
<text text-anchor="middle" x="1232" y="-117" font-family="Helvetica,sans-Serif" font-size="10.00">wx/settings.h</text>
</a>
</g>
</g>
<!-- Node11&#45;&gt;Node19 -->
<g id="edge19" class="edge">
<title>Node11&#45;&gt;Node19</title>
<path fill="none" stroke="#63b8ff" d="M1068.33,-164.98C1101.49,-155.97 1154,-141.7 1190.56,-131.76"/>
<polygon fill="#63b8ff" stroke="#63b8ff" points="1191.69,-135.08 1200.42,-129.08 1189.86,-128.33 1191.69,-135.08"/>
</g>
<!-- Node20 -->
<g id="node20" class="node">
<title>Node20</title>
<g id="a_node20"><a xlink:title=" ">
<polygon fill="#e0e0e0" stroke="#999999" points="1365,-74 1315,-74 1315,-55 1365,-55 1365,-74"/>
<text text-anchor="middle" x="1340" y="-62" font-family="Helvetica,sans-Serif" font-size="10.00">cstdint</text>
</a>
</g>
</g>
<!-- Node11&#45;&gt;Node20 -->
<g id="edge20" class="edge">
<title>Node11&#45;&gt;Node20</title>
<path fill="none" stroke="#63b8ff" d="M1085.15,-171.45C1155.14,-167.55 1280.43,-156.8 1315,-129 1328.69,-118 1334.9,-98.45 1337.71,-83.94"/>
<polygon fill="#63b8ff" stroke="#63b8ff" points="1341.17,-84.47 1339.27,-74.05 1334.26,-83.39 1341.17,-84.47"/>
</g>
<!-- Node21 -->
<g id="node21" class="node">
<title>Node21</title>
<g id="a_node21"><a xlink:title=" ">
<polygon fill="#e0e0e0" stroke="#999999" points="1413.5,-19 1348.5,-19 1348.5,0 1413.5,0 1413.5,-19"/>
<text text-anchor="middle" x="1381" y="-7" font-family="Helvetica,sans-Serif" font-size="10.00">functional</text>
</a>
</g>
</g>
<!-- Node11&#45;&gt;Node21 -->
<g id="edge21" class="edge">
<title>Node11&#45;&gt;Node21</title>
<path fill="none" stroke="#63b8ff" d="M1085.17,-170.54C1148,-165.72 1253.32,-154.08 1282,-129 1308.03,-106.24 1284.41,-82 1306,-55 1317.01,-41.23 1333.53,-30.77 1348.27,-23.47"/>
<polygon fill="#63b8ff" stroke="#63b8ff" points="1350.02,-26.51 1357.61,-19.12 1347.07,-20.17 1350.02,-26.51"/>
</g>
<!-- Node22 -->
<g id="node22" class="node">
<title>Node22</title>
<g id="a_node22"><a xlink:href="FontAttribs_8h_source.html" target="_top" xlink:title=" ">
<polygon fill="white" stroke="#666666" points="1522.5,-129 1443.5,-129 1443.5,-110 1522.5,-110 1522.5,-129"/>
<text text-anchor="middle" x="1483" y="-117" font-family="Helvetica,sans-Serif" font-size="10.00">FontAttribs.h</text>
</a>
</g>
</g>
<!-- Node11&#45;&gt;Node22 -->
<g id="edge22" class="edge">
<title>Node11&#45;&gt;Node22</title>
<path fill="none" stroke="#63b8ff" d="M1085.15,-167.78C1170.43,-157.64 1347.14,-136.64 1433.42,-126.39"/>
<polygon fill="#63b8ff" stroke="#63b8ff" points="1433.97,-129.85 1443.49,-125.2 1433.14,-122.9 1433.97,-129.85"/>
</g>
<!-- Node29 -->
<g id="node29" class="node">
<title>Node29</title>
<g id="a_node29"><a xlink:href="FontVariantCache_8h.html" target="_top" xlink:title="This file implements the wxFont cache system.">
<polygon fill="white" stroke="#666666" points="850.5,-129 739.5,-129 739.5,-110 850.5,-110 850.5,-129"/>
<text text-anchor="middle" x="795" y="-117" font-family="Helvetica,sans-Serif" font-size="10.00">FontVariantCache.h</text>
</a>
</g>
</g>
<!-- Node11&#45;&gt;Node29 -->
<g id="edge33" class="edge">
<title>Node11&#45;&gt;Node29</title>
<path fill="none" stroke="#63b8ff" d="M998.12,-164.98C956.26,-155.82 889.57,-141.21 844.12,-131.26"/>
<polygon fill="#63b8ff" stroke="#63b8ff" points="844.7,-127.8 834.19,-129.08 843.21,-134.64 844.7,-127.8"/>
</g>
<!-- Node11&#45;&gt;Node31 -->
<g id="edge41" class="edge">
<title>Node11&#45;&gt;Node31</title>
<path fill="none" stroke="#63b8ff" d="M988.82,-170.58C927.63,-165.95 819.28,-154.67 730,-129 709.92,-123.23 707.2,-115.32 687,-110 650.03,-100.26 407.92,-79.42 295.8,-70.13"/>
<polygon fill="#63b8ff" stroke="#63b8ff" points="295.95,-66.63 285.69,-69.3 295.37,-73.61 295.95,-66.63"/>
</g>
<!-- Node22&#45;&gt;Node18 -->
<g id="edge27" class="edge">
<title>Node22&#45;&gt;Node18</title>
<path fill="none" stroke="#63b8ff" d="M1443.44,-111.95C1382.58,-101.87 1266.54,-82.65 1204.52,-72.38"/>
<polygon fill="#63b8ff" stroke="#63b8ff" points="1204.76,-68.87 1194.32,-70.69 1203.61,-75.77 1204.76,-68.87"/>
</g>
<!-- Node22&#45;&gt;Node20 -->
<g id="edge30" class="edge">
<title>Node22&#45;&gt;Node20</title>
<path fill="none" stroke="#63b8ff" d="M1460.02,-109.98C1436.5,-101.27 1399.71,-87.63 1373.06,-77.75"/>
<polygon fill="#63b8ff" stroke="#63b8ff" points="1373.99,-74.36 1363.39,-74.17 1371.55,-80.93 1373.99,-74.36"/>
</g>
<!-- Node22&#45;&gt;Node21 -->
<g id="edge31" class="edge">
<title>Node22&#45;&gt;Node21</title>
<path fill="none" stroke="#63b8ff" d="M1481.13,-109.76C1477.95,-96.58 1470.35,-71.41 1456,-55 1444.14,-41.45 1427.11,-30.88 1412.28,-23.45"/>
<polygon fill="#63b8ff" stroke="#63b8ff" points="1413.46,-20.14 1402.92,-19.02 1410.46,-26.47 1413.46,-20.14"/>
</g>
<!-- Node23 -->
<g id="node23" class="node">
<title>Node23</title>
<g id="a_node23"><a xlink:href="EnumWrapper_8h_source.html" target="_top" xlink:title=" ">
<polygon fill="white" stroke="#666666" points="1756,-74 1662,-74 1662,-55 1756,-55 1756,-74"/>
<text text-anchor="middle" x="1709" y="-62" font-family="Helvetica,sans-Serif" font-size="10.00">EnumWrapper.h</text>
</a>
</g>
</g>
<!-- Node22&#45;&gt;Node23 -->
<g id="edge23" class="edge">
<title>Node22&#45;&gt;Node23</title>
<path fill="none" stroke="#63b8ff" d="M1519.31,-109.98C1558.24,-100.86 1620.16,-86.33 1662.6,-76.38"/>
<polygon fill="#63b8ff" stroke="#63b8ff" points="1663.47,-79.77 1672.4,-74.08 1661.87,-72.96 1663.47,-79.77"/>
</g>
<!-- Node26 -->
<g id="node26" class="node">
<title>Node26</title>
<g id="a_node26"><a xlink:title=" ">
<polygon fill="#e0e0e0" stroke="#999999" points="1582.5,-74 1503.5,-74 1503.5,-55 1582.5,-55 1582.5,-74"/>
<text text-anchor="middle" x="1543" y="-62" font-family="Helvetica,sans-Serif" font-size="10.00">wx/version.h</text>
</a>
</g>
</g>
<!-- Node22&#45;&gt;Node26 -->
<g id="edge28" class="edge">
<title>Node22&#45;&gt;Node26</title>
<path fill="none" stroke="#63b8ff" d="M1492.64,-109.98C1501.51,-102.15 1514.87,-90.34 1525.61,-80.86"/>
<polygon fill="#63b8ff" stroke="#63b8ff" points="1528.01,-83.41 1533.18,-74.17 1523.37,-78.17 1528.01,-83.41"/>
</g>
<!-- Node27 -->
<g id="node27" class="node">
<title>Node27</title>
<g id="a_node27"><a xlink:title=" ">
<polygon fill="#e0e0e0" stroke="#999999" points="1447,-74 1383,-74 1383,-55 1447,-55 1447,-74"/>
<text text-anchor="middle" x="1415" y="-62" font-family="Helvetica,sans-Serif" font-size="10.00">algorithm</text>
</a>
</g>
</g>
<!-- Node22&#45;&gt;Node27 -->
<g id="edge29" class="edge">
<title>Node22&#45;&gt;Node27</title>
<path fill="none" stroke="#63b8ff" d="M1472.07,-109.98C1461.92,-102.07 1446.58,-90.11 1434.35,-80.58"/>
<polygon fill="#63b8ff" stroke="#63b8ff" points="1436.16,-77.56 1426.12,-74.17 1431.86,-83.08 1436.16,-77.56"/>
</g>
<!-- Node28 -->
<g id="node28" class="node">
<title>Node28</title>
<g id="a_node28"><a xlink:title=" ">
<polygon fill="#e0e0e0" stroke="#999999" points="1644,-74 1600,-74 1600,-55 1644,-55 1644,-74"/>
<text text-anchor="middle" x="1622" y="-62" font-family="Helvetica,sans-Serif" font-size="10.00">limits</text>
</a>
</g>
</g>
<!-- Node22&#45;&gt;Node28 -->
<g id="edge32" class="edge">
<title>Node22&#45;&gt;Node28</title>
<path fill="none" stroke="#63b8ff" d="M1505.33,-109.98C1528.33,-101.21 1564.38,-87.47 1590.32,-77.58"/>
<polygon fill="#63b8ff" stroke="#63b8ff" points="1591.63,-80.83 1599.72,-73.99 1589.13,-74.29 1591.63,-80.83"/>
</g>
<!-- Node23&#45;&gt;Node21 -->
<g id="edge25" class="edge">
<title>Node23&#45;&gt;Node21</title>
<path fill="none" stroke="#63b8ff" d="M1661.66,-55.85C1597.93,-45.55 1485.47,-27.38 1424.03,-17.45"/>
<polygon fill="#63b8ff" stroke="#63b8ff" points="1424.33,-13.96 1413.9,-15.82 1423.22,-20.87 1424.33,-13.96"/>
</g>
<!-- Node24 -->
<g id="node24" class="node">
<title>Node24</title>
<g id="a_node24"><a xlink:title=" ">
<polygon fill="#e0e0e0" stroke="#999999" points="1695.5,-19 1642.5,-19 1642.5,0 1695.5,0 1695.5,-19"/>
<text text-anchor="middle" x="1669" y="-7" font-family="Helvetica,sans-Serif" font-size="10.00">cstddef</text>
</a>
</g>
</g>
<!-- Node23&#45;&gt;Node24 -->
<g id="edge24" class="edge">
<title>Node23&#45;&gt;Node24</title>
<path fill="none" stroke="#63b8ff" d="M1702.39,-54.75C1696.74,-47.26 1688.46,-36.28 1681.55,-27.13"/>
<polygon fill="#63b8ff" stroke="#63b8ff" points="1684.3,-24.96 1675.48,-19.09 1678.71,-29.18 1684.3,-24.96"/>
</g>
<!-- Node25 -->
<g id="node25" class="node">
<title>Node25</title>
<g id="a_node25"><a xlink:title=" ">
<polygon fill="#e0e0e0" stroke="#999999" points="1782.5,-19 1713.5,-19 1713.5,0 1782.5,0 1782.5,-19"/>
<text text-anchor="middle" x="1748" y="-7" font-family="Helvetica,sans-Serif" font-size="10.00">type_traits</text>
</a>
</g>
</g>
<!-- Node23&#45;&gt;Node25 -->
<g id="edge26" class="edge">
<title>Node23&#45;&gt;Node25</title>
<path fill="none" stroke="#63b8ff" d="M1715.44,-54.75C1720.89,-47.34 1728.86,-36.5 1735.56,-27.41"/>
<polygon fill="#63b8ff" stroke="#63b8ff" points="1738.57,-29.22 1741.68,-19.09 1732.93,-25.07 1738.57,-29.22"/>
</g>
<!-- Node29&#45;&gt;Node3 -->
<g id="edge39" class="edge">
<title>Node29&#45;&gt;Node3</title>
<path fill="none" stroke="#63b8ff" d="M739.38,-110.22C664.29,-99.04 532.9,-79.48 471.88,-70.39"/>
<polygon fill="#63b8ff" stroke="#63b8ff" points="472.08,-66.89 461.68,-68.88 471.05,-73.81 472.08,-66.89"/>
</g>
<!-- Node29&#45;&gt;Node5 -->
<g id="edge35" class="edge">
<title>Node29&#45;&gt;Node5</title>
<path fill="none" stroke="#63b8ff" d="M850.63,-110.89C853.8,-110.56 856.94,-110.26 860,-110 1257.76,-76.15 1364.09,-125.32 1763.54,-73.93"/>
<polygon fill="#63b8ff" stroke="#63b8ff" points="1764.17,-77.38 1773.63,-72.62 1763.27,-70.44 1764.17,-77.38"/>
</g>
<!-- Node29&#45;&gt;Node9 -->
<g id="edge34" class="edge">
<title>Node29&#45;&gt;Node9</title>
<path fill="none" stroke="#63b8ff" d="M739.23,-114.03C722.44,-112.71 703.97,-111.27 687,-110 463.06,-93.19 406.78,-92.8 183,-74 168.86,-72.81 153.46,-71.37 139.55,-70.02"/>
<polygon fill="#63b8ff" stroke="#63b8ff" points="139.55,-66.5 129.25,-69.01 138.86,-73.47 139.55,-66.5"/>
</g>
<!-- Node29&#45;&gt;Node18 -->
<g id="edge36" class="edge">
<title>Node29&#45;&gt;Node18</title>
<path fill="none" stroke="#63b8ff" d="M850.89,-110.45C925.33,-99.73 1055.29,-81.01 1121.57,-71.47"/>
<polygon fill="#63b8ff" stroke="#63b8ff" points="1122.24,-74.91 1131.64,-70.02 1121.24,-67.98 1122.24,-74.91"/>
</g>
<!-- Node29&#45;&gt;Node21 -->
<g id="edge37" class="edge">
<title>Node29&#45;&gt;Node21</title>
<path fill="none" stroke="#63b8ff" d="M837.67,-109.95C900.2,-97.49 1020.45,-73.77 1123,-55 1198.71,-41.14 1287.14,-26.15 1338.34,-17.58"/>
<polygon fill="#63b8ff" stroke="#63b8ff" points="1339.09,-21.01 1348.38,-15.91 1337.94,-14.1 1339.09,-21.01"/>
</g>
<!-- Node30 -->
<g id="node30" class="node">
<title>Node30</title>
<g id="a_node30"><a xlink:title=" ">
<polygon fill="#e0e0e0" stroke="#999999" points="389,-74 357,-74 357,-55 389,-55 389,-74"/>
<text text-anchor="middle" x="373" y="-62" font-family="Helvetica,sans-Serif" font-size="10.00">list</text>
</a>
</g>
</g>
<!-- Node29&#45;&gt;Node30 -->
<g id="edge38" class="edge">
<title>Node29&#45;&gt;Node30</title>
<path fill="none" stroke="#63b8ff" d="M739.22,-111.69C734.41,-111.11 729.62,-110.54 725,-110 583.73,-93.43 546.97,-99.3 407,-74 404.43,-73.54 401.77,-72.99 399.12,-72.4"/>
<polygon fill="#63b8ff" stroke="#63b8ff" points="399.7,-68.94 389.16,-70 398.07,-75.75 399.7,-68.94"/>
</g>
<!-- Node29&#45;&gt;Node31 -->
<g id="edge40" class="edge">
<title>Node29&#45;&gt;Node31</title>
<path fill="none" stroke="#63b8ff" d="M739.23,-111.58C734.42,-111.03 729.63,-110.49 725,-110 569.85,-93.48 386.43,-77.7 295.69,-70.14"/>
<polygon fill="#63b8ff" stroke="#63b8ff" points="295.88,-66.65 285.62,-69.31 295.3,-73.62 295.88,-66.65"/>
</g>
<!-- Node32&#45;&gt;Node4 -->
<g id="edge65" class="edge">
<title>Node32&#45;&gt;Node4</title>
<path fill="none" stroke="#63b8ff" d="M978.66,-281.77C1100.07,-276.9 1424.5,-261.86 1467,-239 1485.86,-228.86 1500,-208.25 1508.34,-193.25"/>
<polygon fill="#63b8ff" stroke="#63b8ff" points="1511.45,-194.86 1512.98,-184.37 1505.25,-191.61 1511.45,-194.86"/>
</g>
<!-- Node32&#45;&gt;Node5 -->
<g id="edge59" class="edge">
<title>Node32&#45;&gt;Node5</title>
<path fill="none" stroke="#63b8ff" d="M978.71,-281.43C1074.92,-276.65 1295.25,-263.33 1366,-239 1424.54,-218.87 1428.57,-192.56 1484,-165 1545.72,-134.32 1563.29,-130.79 1629,-110 1653.91,-102.12 1720.76,-85.49 1763.97,-74.94"/>
<polygon fill="#63b8ff" stroke="#63b8ff" points="1764.99,-78.3 1773.87,-72.53 1763.33,-71.49 1764.99,-78.3"/>
</g>
<!-- Node32&#45;&gt;Node6 -->
<g id="edge44" class="edge">
<title>Node32&#45;&gt;Node6</title>
<path fill="none" stroke="#63b8ff" d="M978.64,-280.37C1075.61,-273.62 1309.34,-256.87 1505,-239 1518.67,-237.75 1533.61,-236.23 1546.9,-234.82"/>
<polygon fill="#63b8ff" stroke="#63b8ff" points="1547.58,-238.26 1557.15,-233.72 1546.84,-231.3 1547.58,-238.26"/>
</g>
<!-- Node32&#45;&gt;Node9 -->
<g id="edge43" class="edge">
<title>Node32&#45;&gt;Node9</title>
<path fill="none" stroke="#63b8ff" d="M887.37,-283.56C732.13,-283.4 230.75,-279.69 172,-239 119.44,-202.6 102.32,-121.73 97.11,-84.69"/>
<polygon fill="#63b8ff" stroke="#63b8ff" points="100.53,-83.81 95.81,-74.32 93.58,-84.68 100.53,-83.81"/>
</g>
<!-- Node32&#45;&gt;Node11 -->
<g id="edge53" class="edge">
<title>Node32&#45;&gt;Node11</title>
<path fill="none" stroke="#63b8ff" d="M887.17,-282.21C784.91,-278.51 550.22,-265.05 591,-220 616.57,-191.75 864.03,-180.68 978.92,-177.04"/>
<polygon fill="#63b8ff" stroke="#63b8ff" points="979.06,-180.54 988.95,-176.73 978.85,-173.54 979.06,-180.54"/>
</g>
<!-- Node32&#45;&gt;Node14 -->
<g id="edge48" class="edge">
<title>Node32&#45;&gt;Node14</title>
<path fill="none" stroke="#63b8ff" d="M887.29,-283.17C801.41,-281.72 620.09,-274.42 570,-239 536.18,-215.09 520.73,-166.1 514.56,-139.2"/>
<polygon fill="#63b8ff" stroke="#63b8ff" points="517.93,-138.24 512.45,-129.17 511.08,-139.67 517.93,-138.24"/>
</g>
<!-- Node32&#45;&gt;Node17 -->
<g id="edge45" class="edge">
<title>Node32&#45;&gt;Node17</title>
<path fill="none" stroke="#63b8ff" d="M887.26,-281C796.97,-275.61 602.81,-261.49 583,-239 557.82,-210.41 581.2,-163.06 597.1,-137.73"/>
<polygon fill="#63b8ff" stroke="#63b8ff" points="600.14,-139.47 602.7,-129.19 594.29,-135.63 600.14,-139.47"/>
</g>
<!-- Node32&#45;&gt;Node20 -->
<g id="edge58" class="edge">
<title>Node32&#45;&gt;Node20</title>
<path fill="none" stroke="#63b8ff" d="M978.77,-281.31C1075.91,-276.24 1295.78,-262.3 1320,-239 1362.2,-198.41 1352.12,-120.34 1344.61,-84.42"/>
<polygon fill="#63b8ff" stroke="#63b8ff" points="1347.95,-83.33 1342.34,-74.35 1341.13,-84.87 1347.95,-83.33"/>
</g>
<!-- Node32&#45;&gt;Node27 -->
<g id="edge66" class="edge">
<title>Node32&#45;&gt;Node27</title>
<path fill="none" stroke="#63b8ff" d="M978.81,-284.2C1073.26,-284.74 1285.52,-281.09 1342,-239 1392.83,-201.12 1408.55,-121.01 1413.17,-84.43"/>
<polygon fill="#63b8ff" stroke="#63b8ff" points="1416.69,-84.52 1414.32,-74.19 1409.73,-83.74 1416.69,-84.52"/>
</g>
<!-- Node32&#45;&gt;Node30 -->
<g id="edge63" class="edge">
<title>Node32&#45;&gt;Node30</title>
<path fill="none" stroke="#63b8ff" d="M887.29,-280.97C799.2,-275.65 609.23,-261.85 548,-239 466.81,-208.7 435.52,-200.81 387,-129 378.01,-115.7 374.69,-97.58 373.51,-84.11"/>
<polygon fill="#63b8ff" stroke="#63b8ff" points="377,-83.87 372.95,-74.08 370.02,-84.26 377,-83.87"/>
</g>
<!-- Node32&#45;&gt;Node31 -->
<g id="edge61" class="edge">
<title>Node32&#45;&gt;Node31</title>
<path fill="none" stroke="#63b8ff" d="M887.47,-282.49C729.17,-278.75 211.11,-264.59 187,-239 144.64,-194.04 197.91,-115.92 224.99,-82"/>
<polygon fill="#63b8ff" stroke="#63b8ff" points="227.9,-83.97 231.53,-74.02 222.49,-79.53 227.9,-83.97"/>
</g>
<!-- Node33 -->
<g id="node33" class="node">
<title>Node33</title>
<g id="a_node33"><a xlink:title=" ">
<polygon fill="#e0e0e0" stroke="#999999" points="677.5,-239 600.5,-239 600.5,-220 677.5,-220 677.5,-239"/>
<text text-anchor="middle" x="639" y="-227" font-family="Helvetica,sans-Serif" font-size="10.00">wx/display.h</text>
</a>
</g>
</g>
<!-- Node32&#45;&gt;Node33 -->
<g id="edge46" class="edge">
<title>Node32&#45;&gt;Node33</title>
<path fill="none" stroke="#63b8ff" d="M887.39,-275.28C833.18,-265.51 743.11,-249.27 687.62,-239.26"/>
<polygon fill="#63b8ff" stroke="#63b8ff" points="688.14,-235.8 677.68,-237.47 686.9,-242.69 688.14,-235.8"/>
</g>
<!-- Node34 -->
<g id="node34" class="node">
<title>Node34</title>
<g id="a_node34"><a xlink:title=" ">
<polygon fill="#e0e0e0" stroke="#999999" points="786,-239 696,-239 696,-220 786,-220 786,-239"/>
<text text-anchor="middle" x="741" y="-227" font-family="Helvetica,sans-Serif" font-size="10.00">wx/fontenum.h</text>
</a>
</g>
</g>
<!-- Node32&#45;&gt;Node34 -->
<g id="edge47" class="edge">
<title>Node32&#45;&gt;Node34</title>
<path fill="none" stroke="#63b8ff" d="M902.15,-274.98C869.5,-265.97 817.8,-251.7 781.8,-241.76"/>
<polygon fill="#63b8ff" stroke="#63b8ff" points="782.66,-238.37 772.09,-239.08 780.8,-245.12 782.66,-238.37"/>
</g>
<!-- Node35 -->
<g id="node35" class="node">
<title>Node35</title>
<g id="a_node35"><a xlink:href="LoggingMessageDialog_8h.html" target="_top" xlink:title="This file declares a message dialog that sends its contents to the log message sink.">
<polygon fill="white" stroke="#666666" points="373.5,-239 196.5,-239 196.5,-220 373.5,-220 373.5,-239"/>
<text text-anchor="middle" x="285" y="-227" font-family="Helvetica,sans-Serif" font-size="10.00">dialogs/LoggingMessageDialog.h</text>
</a>
</g>
</g>
<!-- Node32&#45;&gt;Node35 -->
<g id="edge49" class="edge">
<title>Node32&#45;&gt;Node35</title>
<path fill="none" stroke="#63b8ff" d="M887.34,-279.81C793.57,-272.22 572.54,-254.29 387,-239 385.92,-238.91 384.82,-238.82 383.73,-238.73"/>
<polygon fill="#63b8ff" stroke="#63b8ff" points="383.99,-235.24 373.73,-237.9 383.41,-242.22 383.99,-235.24"/>
</g>
<!-- Node38 -->
<g id="node38" class="node">
<title>Node38</title>
<g id="a_node38"><a xlink:href="Styles_8h.html" target="_top" xlink:title="This file declares the class Styles.">
<polygon fill="white" stroke="#666666" points="1311,-239 1255,-239 1255,-220 1311,-220 1311,-239"/>
<text text-anchor="middle" x="1283" y="-227" font-family="Helvetica,sans-Serif" font-size="10.00">Styles.h</text>
</a>
</g>
</g>
<!-- Node32&#45;&gt;Node38 -->
<g id="edge54" class="edge">
<title>Node32&#45;&gt;Node38</title>
<path fill="none" stroke="#63b8ff" d="M978.55,-278.25C1037.68,-271.16 1144.27,-257.47 1244.75,-239.1"/>
<polygon fill="#63b8ff" stroke="#63b8ff" points="1245.57,-242.5 1254.77,-237.24 1244.3,-235.62 1245.57,-242.5"/>
</g>
<!-- Node39 -->
<g id="node39" class="node">
<title>Node39</title>
<g id="a_node39"><a xlink:title=" ">
<polygon fill="#e0e0e0" stroke="#999999" points="852,-239 804,-239 804,-220 852,-220 852,-239"/>
<text text-anchor="middle" x="828" y="-227" font-family="Helvetica,sans-Serif" font-size="10.00">mutex</text>
</a>
</g>
</g>
<!-- Node32&#45;&gt;Node39 -->
<g id="edge60" class="edge">
<title>Node32&#45;&gt;Node39</title>
<path fill="none" stroke="#63b8ff" d="M916.13,-274.98C899.39,-266.54 873.5,-253.47 854.11,-243.68"/>
<polygon fill="#63b8ff" stroke="#63b8ff" points="855.68,-240.55 845.18,-239.17 852.53,-246.8 855.68,-240.55"/>
</g>
<!-- Node40 -->
<g id="node40" class="node">
<title>Node40</title>
<g id="a_node40"><a xlink:title=" ">
<polygon fill="#e0e0e0" stroke="#999999" points="924,-239 870,-239 870,-220 924,-220 924,-239"/>
<text text-anchor="middle" x="897" y="-227" font-family="Helvetica,sans-Serif" font-size="10.00">random</text>
</a>
</g>
</g>
<!-- Node32&#45;&gt;Node40 -->
<g id="edge62" class="edge">
<title>Node32&#45;&gt;Node40</title>
<path fill="none" stroke="#63b8ff" d="M927.06,-274.75C922.02,-267.34 914.66,-256.5 908.49,-247.41"/>
<polygon fill="#63b8ff" stroke="#63b8ff" points="911.35,-245.39 902.83,-239.09 905.56,-249.33 911.35,-245.39"/>
</g>
<!-- Node41 -->
<g id="node41" class="node">
<title>Node41</title>
<g id="a_node41"><a xlink:title=" ">
<polygon fill="#e0e0e0" stroke="#999999" points="993.5,-239 942.5,-239 942.5,-220 993.5,-220 993.5,-239"/>
<text text-anchor="middle" x="968" y="-227" font-family="Helvetica,sans-Serif" font-size="10.00">variant</text>
</a>
</g>
</g>
<!-- Node32&#45;&gt;Node41 -->
<g id="edge64" class="edge">
<title>Node32&#45;&gt;Node41</title>
<path fill="none" stroke="#63b8ff" d="M938.78,-274.75C943.62,-267.42 950.68,-256.73 956.64,-247.7"/>
<polygon fill="#63b8ff" stroke="#63b8ff" points="959.74,-249.36 962.33,-239.09 953.9,-245.5 959.74,-249.36"/>
</g>
<!-- Node42 -->
<g id="node42" class="node">
<title>Node42</title>
<g id="a_node42"><a xlink:title=" ">
<polygon fill="#e0e0e0" stroke="#999999" points="1062,-239 1012,-239 1012,-220 1062,-220 1062,-239"/>
<text text-anchor="middle" x="1037" y="-227" font-family="Helvetica,sans-Serif" font-size="10.00">atomic</text>
</a>
</g>
</g>
<!-- Node32&#45;&gt;Node42 -->
<g id="edge67" class="edge">
<title>Node32&#45;&gt;Node42</title>
<path fill="none" stroke="#63b8ff" d="M949.71,-274.98C966.21,-266.57 991.7,-253.59 1010.88,-243.81"/>
<polygon fill="#63b8ff" stroke="#63b8ff" points="1012.67,-246.83 1019.99,-239.17 1009.49,-240.59 1012.67,-246.83"/>
</g>
<!-- Node43 -->
<g id="node43" class="node">
<title>Node43</title>
<g id="a_node43"><a xlink:title=" ">
<polygon fill="#e0e0e0" stroke="#999999" points="1130,-239 1080,-239 1080,-220 1130,-220 1130,-239"/>
<text text-anchor="middle" x="1105" y="-227" font-family="Helvetica,sans-Serif" font-size="10.00">chrono</text>
</a>
</g>
</g>
<!-- Node32&#45;&gt;Node43 -->
<g id="edge68" class="edge">
<title>Node32&#45;&gt;Node43</title>
<path fill="none" stroke="#63b8ff" d="M960.63,-274.98C990.37,-265.82 1037.73,-251.23 1070.03,-241.27"/>
<polygon fill="#63b8ff" stroke="#63b8ff" points="1071.43,-244.51 1079.95,-238.22 1069.36,-237.82 1071.43,-244.51"/>
</g>
<!-- Node44 -->
<g id="node44" class="node">
<title>Node44</title>
<g id="a_node44"><a xlink:title=" ">
<polygon fill="#e0e0e0" stroke="#999999" points="1237.5,-239 1148.5,-239 1148.5,-220 1237.5,-220 1237.5,-239"/>
<text text-anchor="middle" x="1193" y="-227" font-family="Helvetica,sans-Serif" font-size="10.00">wx/wupdlock.h</text>
</a>
</g>
</g>
<!-- Node32&#45;&gt;Node44 -->
<g id="edge69" class="edge">
<title>Node32&#45;&gt;Node44</title>
<path fill="none" stroke="#63b8ff" d="M974.77,-274.98C1019.94,-265.78 1092,-251.09 1140.85,-241.13"/>
<polygon fill="#63b8ff" stroke="#63b8ff" points="1141.8,-244.51 1150.9,-239.08 1140.4,-237.65 1141.8,-244.51"/>
</g>
<!-- Node35&#45;&gt;Node9 -->
<g id="edge50" class="edge">
<title>Node35&#45;&gt;Node9</title>
<path fill="none" stroke="#63b8ff" d="M267.23,-219.88C251.24,-211.71 227.5,-198.57 209,-184 168.46,-152.06 128.32,-106.13 108.24,-81.9"/>
<polygon fill="#63b8ff" stroke="#63b8ff" points="110.83,-79.54 101.78,-74.02 105.41,-83.98 110.83,-79.54"/>
</g>
<!-- Node36 -->
<g id="node36" class="node">
<title>Node36</title>
<g id="a_node36"><a xlink:title=" ">
<polygon fill="#e0e0e0" stroke="#999999" points="297.5,-184 218.5,-184 218.5,-165 297.5,-165 297.5,-184"/>
<text text-anchor="middle" x="258" y="-172" font-family="Helvetica,sans-Serif" font-size="10.00">wx/msgdlg.h</text>
</a>
</g>
</g>
<!-- Node35&#45;&gt;Node36 -->
<g id="edge51" class="edge">
<title>Node35&#45;&gt;Node36</title>
<path fill="none" stroke="#63b8ff" d="M280.54,-219.75C276.88,-212.57 271.59,-202.18 267.05,-193.27"/>
<polygon fill="#63b8ff" stroke="#63b8ff" points="270.03,-191.41 262.38,-184.09 263.8,-194.59 270.03,-191.41"/>
</g>
<!-- Node37 -->
<g id="node37" class="node">
<title>Node37</title>
<g id="a_node37"><a xlink:title=" ">
<polygon fill="#e0e0e0" stroke="#999999" points="373,-184 315,-184 315,-165 373,-165 373,-184"/>
<text text-anchor="middle" x="344" y="-172" font-family="Helvetica,sans-Serif" font-size="10.00">wx/log.h</text>
</a>
</g>
</g>
<!-- Node35&#45;&gt;Node37 -->
<g id="edge52" class="edge">
<title>Node35&#45;&gt;Node37</title>
<path fill="none" stroke="#63b8ff" d="M294.48,-219.98C303.2,-212.15 316.34,-200.34 326.9,-190.86"/>
<polygon fill="#63b8ff" stroke="#63b8ff" points="329.25,-193.46 334.35,-184.17 324.57,-188.25 329.25,-193.46"/>
</g>
<!-- Node38&#45;&gt;Node3 -->
<g id="edge56" class="edge">
<title>Node38&#45;&gt;Node3</title>
<path fill="none" stroke="#63b8ff" d="M1254.78,-221.68C1251.83,-221.07 1248.86,-220.49 1246,-220 1072.28,-190.11 593.1,-242.22 458,-129 445.06,-118.15 440.71,-98.87 439.36,-84.39"/>
<polygon fill="#63b8ff" stroke="#63b8ff" points="442.83,-83.86 438.81,-74.06 435.84,-84.24 442.83,-83.86"/>
</g>
<!-- Node38&#45;&gt;Node4 -->
<g id="edge57" class="edge">
<title>Node38&#45;&gt;Node4</title>
<path fill="none" stroke="#63b8ff" d="M1311.23,-222.11C1354.51,-212.3 1437.11,-193.59 1483.41,-183.11"/>
<polygon fill="#63b8ff" stroke="#63b8ff" points="1484.28,-186.5 1493.26,-180.88 1482.73,-179.67 1484.28,-186.5"/>
</g>
<!-- Node38&#45;&gt;Node11 -->
<g id="edge55" class="edge">
<title>Node38&#45;&gt;Node11</title>
<path fill="none" stroke="#63b8ff" d="M1254.73,-221.96C1251.78,-221.29 1248.83,-220.63 1246,-220 1192.01,-208.05 1130.04,-194.93 1087.69,-186.05"/>
<polygon fill="#63b8ff" stroke="#63b8ff" points="1088.4,-182.63 1077.89,-184 1086.96,-189.48 1088.4,-182.63"/>
</g>
</g>
</svg>
        <g id="navigator" transform="translate(0 0)" fill="#404254">
                <rect fill="#f2f5e9" fill-opacity="0.5" stroke="#606060" stroke-width=".5" x="0" y="0" width="60" height="60"/>
                <use id="zoomplus" xlink:href="#zoomPlus" x="17" y="9" onmousedown="handleZoom(evt,'in')"/>
                <use id="zoomminus" xlink:href="#zoomMin" x="42" y="9" onmousedown="handleZoom(evt,'out')"/>
                <use id="reset" xlink:href="#resetDef" x="30" y="36" onmousedown="handleReset()"/>
                <g id="arrowUp" xlink:href="#dirArrow" transform="translate(30 24)" onmousedown="handlePan(0,-1)">
                  <use xlink:href="#rim" fill="#404040">
                        <set attributeName="fill" to="#808080" begin="arrowUp.mouseover" end="arrowUp.mouseout"/>
                  </use>
                  <path fill="none" stroke="white" stroke-width="1.5" d="M0,-3.0v7 M-2.5,-0.5L0,-3.0L2.5,-0.5"/>
                </g>
                <g id="arrowRight" xlink:href="#dirArrow" transform="rotate(90) translate(36 -43)" onmousedown="handlePan(1,0)">
                  <use xlink:href="#rim" fill="#404040">
                        <set attributeName="fill" to="#808080" begin="arrowRight.mouseover" end="arrowRight.mouseout"/>
                  </use>
                  <path fill="none" stroke="white" stroke-width="1.5" d="M0,-3.0v7 M-2.5,-0.5L0,-3.0L2.5,-0.5"/>
                </g>
                <g id="arrowDown" xlink:href="#dirArrow" transform="rotate(180) translate(-30 -48)" onmousedown="handlePan(0,1)">
                  <use xlink:href="#rim" fill="#404040">
                        <set attributeName="fill" to="#808080" begin="arrowDown.mouseover" end="arrowDown.mouseout"/>
                  </use>
                  <path fill="none" stroke="white" stroke-width="1.5" d="M0,-3.0v7 M-2.5,-0.5L0,-3.0L2.5,-0.5"/>
                </g>
                <g id="arrowLeft" xlink:href="#dirArrow" transform="rotate(270) translate(-36 17)" onmousedown="handlePan(-1,0)">
                  <use xlink:href="#rim" fill="#404040">
                        <set attributeName="fill" to="#808080" begin="arrowLeft.mouseover" end="arrowLeft.mouseout"/>
                  </use>
                  <path fill="none" stroke="white" stroke-width="1.5" d="M0,-3.0v7 M-2.5,-0.5L0,-3.0L2.5,-0.5"/>
                </g>
        </g>
        <svg viewBox="0 0 15 15" width="100%" height="30px" preserveAspectRatio="xMaxYMin meet">
         <g id="arrow_out" transform="scale(0.3 0.3)">
          <a xlink:href="MaximaTokenizer_8cpp__incl_org.svg" target="_base">
           <rect id="button" ry="5" rx="5" y="6" x="6" height="38" width="38"
                fill="#f2f5e9" fill-opacity="0.5" stroke="#606060" stroke-width="1.0"/>
           <path id="arrow"
             d="M 11.500037,31.436501 C 11.940474,20.09759 22.043105,11.32322 32.158766,21.979434 L 37.068811,17.246167 C 37.068811,17.246167 37.088388,32 37.088388,32 L 22.160133,31.978069 C 22.160133,31.978069 26.997745,27.140456 26.997745,27.140456 C 18.528582,18.264221 13.291696,25.230495 11.500037,31.436501 z"
             style="fill:#404040;"/>
          </a>
         </g>
        </svg>
</svg>
