<?xml version="1.0" encoding="UTF-8" standalone="no"?>
<!DOCTYPE svg PUBLIC "-//W3C//DTD SVG 1.1//EN"
 "http://www.w3.org/Graphics/SVG/1.1/DTD/svg11.dtd">
<!-- Generated by graphviz version 2.43.0 (0)
 -->
<!-- Title: src/MaximaVariableUpdates.h Pages: 1 -->
<svg width="308pt" height="148pt"
 viewBox="0.00 0.00 308.00 148.00" xmlns="http://www.w3.org/2000/svg" xmlns:xlink="http://www.w3.org/1999/xlink">
<g id="graph0" class="graph" transform="scale(1 1) rotate(0) translate(4 144)">
<title>src/MaximaVariableUpdates.h</title>
<!-- Node1 -->
<g id="node1" class="node">
<title>Node1</title>
<g id="a_node1"><a xlink:title="Declares the parser for the &lt;variables&gt; XML documents Maxima sends.">
<polygon fill="#999999" stroke="#666666" points="247.5,-140 84.5,-140 84.5,-121 247.5,-121 247.5,-140"/>
<text text-anchor="middle" x="166" y="-128" font-family="Helvetica,sans-Serif" font-size="10.00">src/MaximaVariableUpdates.h</text>
</a>
</g>
</g>
<!-- Node2 -->
<g id="node2" class="node">
<title>Node2</title>
<g id="a_node2"><a xlink:href="MaximaVariableUpdates_8cpp.html" target="_top" xlink:title="Implements the parser for the &lt;variables&gt; XML documents Maxima sends.">
<polygon fill="white" stroke="#666666" points="174,-85 0,-85 0,-66 174,-66 174,-85"/>
<text text-anchor="middle" x="87" y="-73" font-family="Helvetica,sans-Serif" font-size="10.00">src/MaximaVariableUpdates.cpp</text>
</a>
</g>
</g>
<!-- Node1&#45;&gt;Node2 -->
<g id="edge1" class="edge">
<title>Node1&#45;&gt;Node2</title>
<path fill="none" stroke="#63b8ff" d="M144.61,-115.15C130.33,-105.57 112.03,-93.29 99.92,-85.17"/>
<polygon fill="#63b8ff" stroke="#63b8ff" points="143.05,-118.32 153.31,-120.98 146.95,-112.51 143.05,-118.32"/>
</g>
<!-- Node4 -->
<g id="node4" class="node">
<title>Node4</title>
<g id="a_node4"><a xlink:href="wxMaxima_8cpp.html" target="_top" xlink:title="This file defines the contents of the class wxMaxima that contains most of the program&#39;s logic.">
<polygon fill="white" stroke="#666666" points="300,-85 192,-85 192,-66 300,-66 300,-85"/>
<text text-anchor="middle" x="246" y="-73" font-family="Helvetica,sans-Serif" font-size="10.00">src/wxMaxima.cpp</text>
</a>
</g>
</g>
<!-- Node1&#45;&gt;Node4 -->
<g id="edge3" class="edge">
<title>Node1&#45;&gt;Node4</title>
<path fill="none" stroke="#63b8ff" d="M187.25,-115.42C201.76,-105.81 220.54,-93.37 232.91,-85.17"/>
<polygon fill="#63b8ff" stroke="#63b8ff" points="185.26,-112.54 178.85,-120.98 189.12,-118.38 185.26,-112.54"/>
</g>
<!-- Node3 -->
<g id="node3" class="node">
<title>Node3</title>
<g id="a_node3"><a xlink:href="test__MaximaVariableUpdates_8cpp.html" target="_top" xlink:title="Tests for ParseMaximaVariableUpdates(), the GUI&#45;free parser for the &lt;variables&gt; XML documents Maxima ...">
<polygon fill="white" stroke="#666666" points="168,-30 6,-30 6,0 168,0 168,-30"/>
<text text-anchor="start" x="14" y="-18" font-family="Helvetica,sans-Serif" font-size="10.00">test/unit_tests/test</text>
<text text-anchor="middle" x="87" y="-7" font-family="Helvetica,sans-Serif" font-size="10.00">_MaximaVariableUpdates.cpp</text>
</a>
</g>
</g>
<!-- Node2&#45;&gt;Node3 -->
<g id="edge2" class="edge">
<title>Node2&#45;&gt;Node3</title>
<path fill="none" stroke="#63b8ff" d="M87,-55.65C87,-47.36 87,-37.78 87,-30.11"/>
<polygon fill="#63b8ff" stroke="#63b8ff" points="83.5,-55.87 87,-65.87 90.5,-55.87 83.5,-55.87"/>
</g>
</g>
</svg>
