<?xml version="1.0" encoding="UTF-8" standalone="no"?>
<!DOCTYPE svg PUBLIC "-//W3C//DTD SVG 1.1//EN"
 "http://www.w3.org/Graphics/SVG/1.1/DTD/svg11.dtd">
<!-- Generated by graphviz version 2.43.0 (0)
 -->
<!-- Title: src/MaximaManual.h Pages: 1 -->
<!--zoomable 390 -->
<svg id="main" version="1.1" xmlns="http://www.w3.org/2000/svg" xmlns:xlink="http://www.w3.org/1999/xlink" xml:space="preserve" onload="init(evt)">
<style type="text/css"><![CDATA[
.edge:hover path { stroke: red; }
.edge:hover polygon { stroke: red; fill: red; }
]]></style>
<script type="text/javascript"><![CDATA[
var edges = document.getElementsByTagName('g');
if (edges && edges.length) {
  for (var i=0;i<edges.length;i++) {
    if (edges[i].id.substr(0,4)=='edge') {
      edges[i].setAttribute('class','edge');
    }
  }
}
]]></script>
        <defs>
                <circle id="rim" cx="0" cy="0" r="7"/>
                <circle id="rim2" cx="0" cy="0" r="3.5"/>
                <g id="zoomPlus">
                        <use xlink:href="#rim" fill="#404040">
                                <set attributeName="fill" to="#808080" begin="zoomplus.mouseover" end="zoomplus.mouseout"/>
                        </use>
                        <path d="M-4,0h8M0,-4v8" fill="none" stroke="white" stroke-width="1.5" pointer-events="none"/>
                </g>
                <g id="zoomMin">
                        <use xlink:href="#rim" fill="#404040">
                                <set attributeName="fill" to="#808080" begin="zoomminus.mouseover" end="zoomminus.mouseout"/>
                        </use>
                        <path d="M-4,0h8" fill="none" stroke="white" stroke-width="1.5" pointer-events="none"/>
                </g>
                <g id="dirArrow">
                        <path fill="none" stroke="white" stroke-width="1.5" d="M0,-3.0v7 M-2.5,-0.5L0,-3.0L2.5,-0.5"/>
                </g>
               <g id="resetDef">
                       <use xlink:href="#rim2" fill="#404040">
                               <set attributeName="fill" to="#808080" begin="reset.mouseover" end="reset.mouseout"/>
                       </use>
               </g>
        </defs>

<script type="text/javascript">
var viewWidth = 3119;
var viewHeight = 390;
var sectionId = 'dynsection-1';
</script>
<script xlink:href="svgpan.js"/>
<svg id="graph" class="graph">
<g id="viewport">
<title>src/MaximaManual.h</title>
<!-- Node1 -->
<g id="node1" class="node">
<title>Node1</title>
<g id="a_node1"><a xlink:title="This file declares the class MaximaManual.">
<polygon fill="#999999" stroke="#666666" points="2315.5,-382 2196.5,-382 2196.5,-363 2315.5,-363 2315.5,-382"/>
<text text-anchor="middle" x="2256" y="-370" font-family="Helvetica,sans-Serif" font-size="10.00">src/MaximaManual.h</text>
</a>
</g>
</g>
<!-- Node2 -->
<g id="node2" class="node">
<title>Node2</title>
<g id="a_node2"><a xlink:href="MaximaManual_8cpp.html" target="_top" xlink:title="This file defines the class MaximaManual.">
<polygon fill="white" stroke="#666666" points="994,-19 864,-19 864,0 994,0 994,-19"/>
<text text-anchor="middle" x="929" y="-7" font-family="Helvetica,sans-Serif" font-size="10.00">src/MaximaManual.cpp</text>
</a>
</g>
</g>
<!-- Node1&#45;&gt;Node2 -->
<g id="edge1" class="edge">
<title>Node1&#45;&gt;Node2</title>
<path fill="none" stroke="#63b8ff" d="M2186.19,-371.39C1805.81,-370.31 0,-359.3 0,-247 0,-247 0,-247 0,-118.5 0,-31.43 652.21,-14.45 863.67,-11.23"/>
<polygon fill="#63b8ff" stroke="#63b8ff" points="2186.23,-374.89 2196.24,-371.41 2186.25,-367.89 2186.23,-374.89"/>
</g>
<!-- Node3 -->
<g id="node3" class="node">
<title>Node3</title>
<g id="a_node3"><a xlink:href="Worksheet_8h.html" target="_top" xlink:title="This file defines the class Worksheet.">
<polygon fill="white" stroke="#666666" points="1406.5,-255.5 1311.5,-255.5 1311.5,-236.5 1406.5,-236.5 1406.5,-255.5"/>
<text text-anchor="middle" x="1359" y="-243.5" font-family="Helvetica,sans-Serif" font-size="10.00">src/Worksheet.h</text>
</a>
</g>
</g>
<!-- Node1&#45;&gt;Node3 -->
<g id="edge2" class="edge">
<title>Node1&#45;&gt;Node3</title>
<path fill="none" stroke="#63b8ff" d="M2186.32,-361.83C2011.1,-337.51 1555.54,-274.28 1406.76,-253.63"/>
<polygon fill="#63b8ff" stroke="#63b8ff" points="2186.06,-365.33 2196.45,-363.23 2187.03,-358.39 2186.06,-365.33"/>
</g>
<!-- Node37 -->
<g id="node37" class="node">
<title>Node37</title>
<g id="a_node37"><a xlink:href="HelpBrowser_8h.html" target="_top" xlink:title="This file declares the class HelpBrowser.">
<polygon fill="white" stroke="#666666" points="2330.5,-321.5 2181.5,-321.5 2181.5,-302.5 2330.5,-302.5 2330.5,-321.5"/>
<text text-anchor="middle" x="2256" y="-309.5" font-family="Helvetica,sans-Serif" font-size="10.00">src/sidebars/HelpBrowser.h</text>
</a>
</g>
</g>
<!-- Node1&#45;&gt;Node37 -->
<g id="edge51" class="edge">
<title>Node1&#45;&gt;Node37</title>
<path fill="none" stroke="#63b8ff" d="M2256,-352.66C2256,-342.24 2256,-329.8 2256,-321.67"/>
<polygon fill="#63b8ff" stroke="#63b8ff" points="2252.5,-352.87 2256,-362.87 2259.5,-352.87 2252.5,-352.87"/>
</g>
<!-- Node39 -->
<g id="node39" class="node">
<title>Node39</title>
<g id="a_node39"><a xlink:href="GenWizPanel_8h_source.html" target="_top" xlink:title=" ">
<polygon fill="white" stroke="#666666" points="2549.5,-321.5 2402.5,-321.5 2402.5,-302.5 2549.5,-302.5 2549.5,-321.5"/>
<text text-anchor="middle" x="2476" y="-309.5" font-family="Helvetica,sans-Serif" font-size="10.00">src/wizards/GenWizPanel.h</text>
</a>
</g>
</g>
<!-- Node1&#45;&gt;Node39 -->
<g id="edge54" class="edge">
<title>Node1&#45;&gt;Node39</title>
<path fill="none" stroke="#63b8ff" d="M2297.76,-360.4C2340.3,-349.08 2405.34,-331.79 2443.97,-321.52"/>
<polygon fill="#63b8ff" stroke="#63b8ff" points="2296.75,-357.04 2287.99,-362.99 2298.55,-363.81 2296.75,-357.04"/>
</g>
<!-- Node42 -->
<g id="node42" class="node">
<title>Node42</title>
<g id="a_node42"><a xlink:href="test__ManualAnchors_8cpp.html" target="_top" xlink:title="Unit test for MaximaManual&#39;s help&#45;anchor parsing.">
<polygon fill="white" stroke="#666666" points="2684.5,-327 2567.5,-327 2567.5,-297 2684.5,-297 2684.5,-327"/>
<text text-anchor="start" x="2575.5" y="-315" font-family="Helvetica,sans-Serif" font-size="10.00">test/unit_tests/test</text>
<text text-anchor="middle" x="2626" y="-304" font-family="Helvetica,sans-Serif" font-size="10.00">_ManualAnchors.cpp</text>
</a>
</g>
</g>
<!-- Node1&#45;&gt;Node42 -->
<g id="edge60" class="edge">
<title>Node1&#45;&gt;Node42</title>
<path fill="none" stroke="#63b8ff" d="M2325.66,-362.48C2387.2,-354.23 2479.29,-341.17 2559,-327 2561.69,-326.52 2564.44,-326.02 2567.21,-325.49"/>
<polygon fill="#63b8ff" stroke="#63b8ff" points="2325.13,-359.02 2315.68,-363.81 2326.05,-365.96 2325.13,-359.02"/>
</g>
<!-- Node4 -->
<g id="node4" class="node">
<title>Node4</title>
<g id="a_node4"><a xlink:href="MaximaFileIO_8cpp.html" target="_top" xlink:title="Implements the worksheet file loaders/savers extracted from the wxMaxima god class.">
<polygon fill="white" stroke="#666666" points="867,-74 745,-74 745,-55 867,-55 867,-74"/>
<text text-anchor="middle" x="806" y="-62" font-family="Helvetica,sans-Serif" font-size="10.00">src/MaximaFileIO.cpp</text>
</a>
</g>
</g>
<!-- Node3&#45;&gt;Node4 -->
<g id="edge3" class="edge">
<title>Node3&#45;&gt;Node4</title>
<path fill="none" stroke="#63b8ff" d="M1301.2,-244.58C1078.49,-242.69 286.6,-233.29 250,-195 191.71,-134.02 270.59,-134.02 346,-110 418.72,-86.84 637.41,-73.52 744.95,-68.21"/>
<polygon fill="#63b8ff" stroke="#63b8ff" points="1301.34,-248.08 1311.37,-244.67 1301.4,-241.08 1301.34,-248.08"/>
</g>
<!-- Node5 -->
<g id="node5" class="node">
<title>Node5</title>
<g id="a_node5"><a xlink:href="MaximaOutputAppender_8cpp.html" target="_top" xlink:title="Implements the worksheet output appenders extracted from the wxMaxima god class.">
<polygon fill="white" stroke="#666666" points="1347.5,-74 1174.5,-74 1174.5,-55 1347.5,-55 1347.5,-74"/>
<text text-anchor="middle" x="1261" y="-62" font-family="Helvetica,sans-Serif" font-size="10.00">src/MaximaOutputAppender.cpp</text>
</a>
</g>
</g>
<!-- Node3&#45;&gt;Node5 -->
<g id="edge4" class="edge">
<title>Node3&#45;&gt;Node5</title>
<path fill="none" stroke="#63b8ff" d="M1300.87,-244.49C1082.3,-242.29 320.31,-231.99 285,-195 188.74,-94.16 114.59,-172.48 464,-110 598.2,-86 996.89,-72.61 1174.25,-67.69"/>
<polygon fill="#63b8ff" stroke="#63b8ff" points="1301.13,-247.99 1311.17,-244.59 1301.2,-240.99 1301.13,-247.99"/>
</g>
<!-- Node6 -->
<g id="node6" class="node">
<title>Node6</title>
<g id="a_node6"><a xlink:href="Worksheet_8cpp.html" target="_top" xlink:title="This file defines the class Worksheet.">
<polygon fill="white" stroke="#666666" points="1761,-74 1655,-74 1655,-55 1761,-55 1761,-74"/>
<text text-anchor="middle" x="1708" y="-62" font-family="Helvetica,sans-Serif" font-size="10.00">src/Worksheet.cpp</text>
</a>
</g>
</g>
<!-- Node3&#45;&gt;Node6 -->
<g id="edge5" class="edge">
<title>Node3&#45;&gt;Node6</title>
<path fill="none" stroke="#63b8ff" d="M1301.35,-243.81C1112.75,-239.62 524.62,-224.27 497,-195 487.85,-185.3 487.97,-174.81 497,-165 536.84,-121.75 1426.18,-78.35 1654.81,-67.88"/>
<polygon fill="#63b8ff" stroke="#63b8ff" points="1301.27,-247.31 1311.35,-244.03 1301.43,-240.31 1301.27,-247.31"/>
</g>
<!-- Node7 -->
<g id="node7" class="node">
<title>Node7</title>
<g id="a_node7"><a xlink:href="WorksheetContextMenu_8cpp.html" target="_top" xlink:title="The worksheet&#39;s right&#45;click context menu (see WorksheetContextMenu.h).">
<polygon fill="white" stroke="#666666" points="199.5,-189.5 28.5,-189.5 28.5,-170.5 199.5,-170.5 199.5,-189.5"/>
<text text-anchor="middle" x="114" y="-177.5" font-family="Helvetica,sans-Serif" font-size="10.00">src/WorksheetContextMenu.cpp</text>
</a>
</g>
</g>
<!-- Node3&#45;&gt;Node7 -->
<g id="edge6" class="edge">
<title>Node3&#45;&gt;Node7</title>
<path fill="none" stroke="#63b8ff" d="M1301.34,-244.43C1133.33,-242.33 629.82,-233.1 214,-195 198.99,-193.62 182.78,-191.59 167.86,-189.5"/>
<polygon fill="#63b8ff" stroke="#63b8ff" points="1301.4,-247.93 1311.45,-244.55 1301.49,-240.93 1301.4,-247.93"/>
</g>
<!-- Node8 -->
<g id="node8" class="node">
<title>Node8</title>
<g id="a_node8"><a xlink:href="ConfigDialogue_8h.html" target="_top" xlink:title="The configuration dialog.">
<polygon fill="white" stroke="#666666" points="2058.5,-74 1903.5,-74 1903.5,-55 2058.5,-55 2058.5,-74"/>
<text text-anchor="middle" x="1981" y="-62" font-family="Helvetica,sans-Serif" font-size="10.00">src/dialogs/ConfigDialogue.h</text>
</a>
</g>
</g>
<!-- Node3&#45;&gt;Node8 -->
<g id="edge7" class="edge">
<title>Node3&#45;&gt;Node8</title>
<path fill="none" stroke="#63b8ff" d="M1416.69,-244.38C1629.25,-241.83 2358.17,-230.51 2392,-195 2401.2,-185.35 2400.24,-175.48 2392,-165 2386.11,-157.52 2119.75,-96.79 2019.03,-74.06"/>
<polygon fill="#63b8ff" stroke="#63b8ff" points="1416.63,-240.88 1406.67,-244.5 1416.71,-247.88 1416.63,-240.88"/>
</g>
<!-- Node12 -->
<g id="node12" class="node">
<title>Node12</title>
<g id="a_node12"><a xlink:href="DiffFrame_8h_source.html" target="_top" xlink:title=" ">
<polygon fill="white" stroke="#666666" points="2932.5,-74 2803.5,-74 2803.5,-55 2932.5,-55 2932.5,-74"/>
<text text-anchor="middle" x="2868" y="-62" font-family="Helvetica,sans-Serif" font-size="10.00">src/dialogs/DiffFrame.h</text>
</a>
</g>
</g>
<!-- Node3&#45;&gt;Node12 -->
<g id="edge11" class="edge">
<title>Node3&#45;&gt;Node12</title>
<path fill="none" stroke="#63b8ff" d="M1416.77,-245.58C1591.9,-246.69 2132.06,-245.47 2576,-195 2734.15,-177.02 2826.35,-251.48 2928,-129 2945.14,-108.34 2909.9,-85.89 2886.51,-74.01"/>
<polygon fill="#63b8ff" stroke="#63b8ff" points="1416.77,-242.08 1406.74,-245.51 1416.72,-249.08 1416.77,-242.08"/>
</g>
<!-- Node13 -->
<g id="node13" class="node">
<title>Node13</title>
<g id="a_node13"><a xlink:href="Printout_8cpp.html" target="_top" xlink:title="This file defines the class MathPrintOut.">
<polygon fill="white" stroke="#666666" points="449.5,-189.5 294.5,-189.5 294.5,-170.5 449.5,-170.5 449.5,-189.5"/>
<text text-anchor="middle" x="372" y="-177.5" font-family="Helvetica,sans-Serif" font-size="10.00">src/graphical_io/Printout.cpp</text>
</a>
</g>
</g>
<!-- Node3&#45;&gt;Node13 -->
<g id="edge15" class="edge">
<title>Node3&#45;&gt;Node13</title>
<path fill="none" stroke="#63b8ff" d="M1301.07,-243.67C1158.41,-239.99 778.86,-227.68 464,-195 450.5,-193.6 435.96,-191.61 422.5,-189.57"/>
<polygon fill="#63b8ff" stroke="#63b8ff" points="1301.24,-247.18 1311.33,-243.93 1301.42,-240.18 1301.24,-247.18"/>
</g>
<!-- Node14 -->
<g id="node14" class="node">
<title>Node14</title>
<g id="a_node14"><a xlink:href="wxMaximaFrame_8h.html" target="_top" xlink:title="This file declares the class wxMaximaFrame.">
<polygon fill="white" stroke="#666666" points="2567,-189.5 2439,-189.5 2439,-170.5 2567,-170.5 2567,-189.5"/>
<text text-anchor="middle" x="2503" y="-177.5" font-family="Helvetica,sans-Serif" font-size="10.00">src/wxMaximaFrame.h</text>
</a>
</g>
</g>
<!-- Node3&#45;&gt;Node14 -->
<g id="edge16" class="edge">
<title>Node3&#45;&gt;Node14</title>
<path fill="none" stroke="#63b8ff" d="M1416.86,-244.94C1577.42,-244.2 2041.95,-238.17 2425,-195 2436.76,-193.67 2449.42,-191.66 2461.05,-189.57"/>
<polygon fill="#63b8ff" stroke="#63b8ff" points="1416.71,-241.44 1406.72,-244.98 1416.74,-248.44 1416.71,-241.44"/>
</g>
<!-- Node24 -->
<g id="node24" class="node">
<title>Node24</title>
<g id="a_node24"><a xlink:href="test__Accessibility_8cpp.html" target="_top" xlink:title="Logic&#45;level regression tests for wxMaxima&#39;s custom wxAccessible classes.">
<polygon fill="white" stroke="#666666" points="614,-195 506,-195 506,-165 614,-165 614,-195"/>
<text text-anchor="start" x="514" y="-183" font-family="Helvetica,sans-Serif" font-size="10.00">test/unit_tests/test</text>
<text text-anchor="middle" x="560" y="-172" font-family="Helvetica,sans-Serif" font-size="10.00">_Accessibility.cpp</text>
</a>
</g>
</g>
<!-- Node3&#45;&gt;Node24 -->
<g id="edge38" class="edge">
<title>Node3&#45;&gt;Node24</title>
<path fill="none" stroke="#63b8ff" d="M1301.31,-244.04C1176.81,-241.31 873.9,-231.19 623,-195 620.12,-194.58 617.17,-194.11 614.2,-193.59"/>
<polygon fill="#63b8ff" stroke="#63b8ff" points="1301.31,-247.54 1311.38,-244.25 1301.46,-240.54 1301.31,-247.54"/>
</g>
<!-- Node25 -->
<g id="node25" class="node">
<title>Node25</title>
<g id="a_node25"><a xlink:href="test__EditorCellInvariants_8cpp.html" target="_top" xlink:title="Hardening tests for EditorCell&#39;s text&#45;editing core.">
<polygon fill="white" stroke="#666666" points="770,-195 632,-195 632,-165 770,-165 770,-195"/>
<text text-anchor="start" x="640" y="-183" font-family="Helvetica,sans-Serif" font-size="10.00">test/unit_tests/test</text>
<text text-anchor="middle" x="701" y="-172" font-family="Helvetica,sans-Serif" font-size="10.00">_EditorCellInvariants.cpp</text>
</a>
</g>
</g>
<!-- Node3&#45;&gt;Node25 -->
<g id="edge39" class="edge">
<title>Node3&#45;&gt;Node25</title>
<path fill="none" stroke="#63b8ff" d="M1301.46,-241.79C1197.05,-235.58 969.53,-220.26 779,-195 776.14,-194.62 773.22,-194.21 770.27,-193.77"/>
<polygon fill="#63b8ff" stroke="#63b8ff" points="1301.29,-245.29 1311.48,-242.38 1301.7,-238.3 1301.29,-245.29"/>
</g>
<!-- Node26 -->
<g id="node26" class="node">
<title>Node26</title>
<g id="a_node26"><a xlink:href="test__EvalQueueCommands_8cpp.html" target="_top" xlink:title="Command&#45;level behavior of the EvaluationQueue: how a GroupCell&#39;s input is broken into the individual ...">
<polygon fill="white" stroke="#666666" points="938,-195 788,-195 788,-165 938,-165 938,-195"/>
<text text-anchor="start" x="796" y="-183" font-family="Helvetica,sans-Serif" font-size="10.00">test/unit_tests/test</text>
<text text-anchor="middle" x="863" y="-172" font-family="Helvetica,sans-Serif" font-size="10.00">_EvalQueueCommands.cpp</text>
</a>
</g>
</g>
<!-- Node3&#45;&gt;Node26 -->
<g id="edge40" class="edge">
<title>Node3&#45;&gt;Node26</title>
<path fill="none" stroke="#63b8ff" d="M1301,-238.78C1221.14,-230.03 1072.93,-213.13 947,-195 944.07,-194.58 941.09,-194.14 938.08,-193.68"/>
<polygon fill="#63b8ff" stroke="#63b8ff" points="1301.01,-242.3 1311.33,-239.91 1301.77,-235.35 1301.01,-242.3"/>
</g>
<!-- Node27 -->
<g id="node27" class="node">
<title>Node27</title>
<g id="a_node27"><a xlink:href="test__GroupCellLayout_8cpp.html" target="_top" xlink:title="Regression tests for the GroupCell &lt;&#45;&gt; EditorCell layout coupling.">
<polygon fill="white" stroke="#666666" points="1079.5,-195 956.5,-195 956.5,-165 1079.5,-165 1079.5,-195"/>
<text text-anchor="start" x="964.5" y="-183" font-family="Helvetica,sans-Serif" font-size="10.00">test/unit_tests/test</text>
<text text-anchor="middle" x="1018" y="-172" font-family="Helvetica,sans-Serif" font-size="10.00">_GroupCellLayout.cpp</text>
</a>
</g>
</g>
<!-- Node3&#45;&gt;Node27 -->
<g id="edge41" class="edge">
<title>Node3&#45;&gt;Node27</title>
<path fill="none" stroke="#63b8ff" d="M1302.3,-234.7C1247.64,-224.72 1162.61,-209.07 1089,-195 1085.91,-194.41 1082.76,-193.8 1079.57,-193.18"/>
<polygon fill="#63b8ff" stroke="#63b8ff" points="1301.68,-238.14 1312.14,-236.49 1302.93,-231.25 1301.68,-238.14"/>
</g>
<!-- Node28 -->
<g id="node28" class="node">
<title>Node28</title>
<g id="a_node28"><a xlink:href="test__LayoutInvariants_8cpp.html" target="_top" xlink:title="Layout idempotency invariants.">
<polygon fill="white" stroke="#666666" points="1222,-195 1098,-195 1098,-165 1222,-165 1222,-195"/>
<text text-anchor="start" x="1106" y="-183" font-family="Helvetica,sans-Serif" font-size="10.00">test/unit_tests/test</text>
<text text-anchor="middle" x="1160" y="-172" font-family="Helvetica,sans-Serif" font-size="10.00">_LayoutInvariants.cpp</text>
</a>
</g>
</g>
<!-- Node3&#45;&gt;Node28 -->
<g id="edge42" class="edge">
<title>Node3&#45;&gt;Node28</title>
<path fill="none" stroke="#63b8ff" d="M1322.33,-233.21C1288.89,-222.45 1239.42,-206.54 1203.89,-195.12"/>
<polygon fill="#63b8ff" stroke="#63b8ff" points="1321.57,-236.64 1332.16,-236.37 1323.71,-229.98 1321.57,-236.64"/>
</g>
<!-- Node29 -->
<g id="node29" class="node">
<title>Node29</title>
<g id="a_node29"><a xlink:href="test__TreeUndo_8cpp.html" target="_top" xlink:title="Regression tests for the worksheet&#39;s cell&#45;tree undo/redo (the TreeUndo_* subsystem of Worksheet).">
<polygon fill="white" stroke="#666666" points="1348,-195 1240,-195 1240,-165 1348,-165 1348,-195"/>
<text text-anchor="start" x="1248" y="-183" font-family="Helvetica,sans-Serif" font-size="10.00">test/unit_tests/test</text>
<text text-anchor="middle" x="1294" y="-172" font-family="Helvetica,sans-Serif" font-size="10.00">_TreeUndo.cpp</text>
</a>
</g>
</g>
<!-- Node3&#45;&gt;Node29 -->
<g id="edge43" class="edge">
<title>Node3&#45;&gt;Node29</title>
<path fill="none" stroke="#63b8ff" d="M1342.91,-229.16C1332.4,-218.81 1318.78,-205.4 1308.58,-195.36"/>
<polygon fill="#63b8ff" stroke="#63b8ff" points="1340.65,-231.85 1350.23,-236.37 1345.56,-226.86 1340.65,-231.85"/>
</g>
<!-- Node30 -->
<g id="node30" class="node">
<title>Node30</title>
<g id="a_node30"><a xlink:href="test__WXMRoundtrip_8cpp.html" target="_top" xlink:title="Regression tests for images surviving the .wxm serialization round&#45;trip.">
<polygon fill="white" stroke="#666666" points="1481.5,-195 1366.5,-195 1366.5,-165 1481.5,-165 1481.5,-195"/>
<text text-anchor="start" x="1374.5" y="-183" font-family="Helvetica,sans-Serif" font-size="10.00">test/unit_tests/test</text>
<text text-anchor="middle" x="1424" y="-172" font-family="Helvetica,sans-Serif" font-size="10.00">_WXMRoundtrip.cpp</text>
</a>
</g>
</g>
<!-- Node3&#45;&gt;Node30 -->
<g id="edge44" class="edge">
<title>Node3&#45;&gt;Node30</title>
<path fill="none" stroke="#63b8ff" d="M1375.09,-229.16C1385.6,-218.81 1399.22,-205.4 1409.42,-195.36"/>
<polygon fill="#63b8ff" stroke="#63b8ff" points="1372.44,-226.86 1367.77,-236.37 1377.35,-231.85 1372.44,-226.86"/>
</g>
<!-- Node31 -->
<g id="node31" class="node">
<title>Node31</title>
<g id="a_node31"><a xlink:href="test__WXMXRoundtrip_8cpp.html" target="_top" xlink:title="Round&#45;trip tests for the .wxmx content.xml (the MathML&#45;like math format).">
<polygon fill="white" stroke="#666666" points="1622,-195 1500,-195 1500,-165 1622,-165 1622,-195"/>
<text text-anchor="start" x="1508" y="-183" font-family="Helvetica,sans-Serif" font-size="10.00">test/unit_tests/test</text>
<text text-anchor="middle" x="1561" y="-172" font-family="Helvetica,sans-Serif" font-size="10.00">_WXMXRoundtrip.cpp</text>
</a>
</g>
</g>
<!-- Node3&#45;&gt;Node31 -->
<g id="edge45" class="edge">
<title>Node3&#45;&gt;Node31</title>
<path fill="none" stroke="#63b8ff" d="M1395.78,-233.35C1429.73,-222.59 1480.22,-206.59 1516.45,-195.12"/>
<polygon fill="#63b8ff" stroke="#63b8ff" points="1394.72,-230.01 1386.24,-236.37 1396.83,-236.68 1394.72,-230.01"/>
</g>
<!-- Node32 -->
<g id="node32" class="node">
<title>Node32</title>
<g id="a_node32"><a xlink:href="test__WorksheetContextMenu_8cpp.html" target="_top" xlink:title="Regression tests for the worksheet&#39;s right&#45;click context menu.">
<polygon fill="white" stroke="#666666" points="1799.5,-195 1640.5,-195 1640.5,-165 1799.5,-165 1799.5,-195"/>
<text text-anchor="start" x="1648.5" y="-183" font-family="Helvetica,sans-Serif" font-size="10.00">test/unit_tests/test</text>
<text text-anchor="middle" x="1720" y="-172" font-family="Helvetica,sans-Serif" font-size="10.00">_WorksheetContextMenu.cpp</text>
</a>
</g>
</g>
<!-- Node3&#45;&gt;Node32 -->
<g id="edge46" class="edge">
<title>Node3&#45;&gt;Node32</title>
<path fill="none" stroke="#63b8ff" d="M1416.73,-234.77C1477.39,-224.01 1573.21,-207.02 1640.89,-195.03"/>
<polygon fill="#63b8ff" stroke="#63b8ff" points="1415.8,-231.38 1406.57,-236.57 1417.02,-238.27 1415.8,-231.38"/>
</g>
<!-- Node33 -->
<g id="node33" class="node">
<title>Node33</title>
<g id="a_node33"><a xlink:href="test__WorksheetCursor_8cpp.html" target="_top" xlink:title="Pins the worksheet&#39;s cursor model before it is gathered into a cursor class.">
<polygon fill="white" stroke="#666666" points="1942.5,-195 1817.5,-195 1817.5,-165 1942.5,-165 1942.5,-195"/>
<text text-anchor="start" x="1825.5" y="-183" font-family="Helvetica,sans-Serif" font-size="10.00">test/unit_tests/test</text>
<text text-anchor="middle" x="1880" y="-172" font-family="Helvetica,sans-Serif" font-size="10.00">_WorksheetCursor.cpp</text>
</a>
</g>
</g>
<!-- Node3&#45;&gt;Node33 -->
<g id="edge47" class="edge">
<title>Node3&#45;&gt;Node33</title>
<path fill="none" stroke="#63b8ff" d="M1416.73,-240.08C1502.39,-232.44 1668.11,-216.35 1808,-195 1811.02,-194.54 1814.11,-194.04 1817.22,-193.52"/>
<polygon fill="#63b8ff" stroke="#63b8ff" points="1416.34,-236.6 1406.68,-240.97 1416.95,-243.58 1416.34,-236.6"/>
</g>
<!-- Node34 -->
<g id="node34" class="node">
<title>Node34</title>
<g id="a_node34"><a xlink:href="test__WorksheetEvalQueue_8cpp.html" target="_top" xlink:title="Pins the worksheet&#39;s &quot;add cells to the evaluation queue&quot; behavior before the Add*ToEvaluationQueue fa...">
<polygon fill="white" stroke="#666666" points="2107,-195 1961,-195 1961,-165 2107,-165 2107,-195"/>
<text text-anchor="start" x="1969" y="-183" font-family="Helvetica,sans-Serif" font-size="10.00">test/unit_tests/test</text>
<text text-anchor="middle" x="2034" y="-172" font-family="Helvetica,sans-Serif" font-size="10.00">_WorksheetEvalQueue.cpp</text>
</a>
</g>
</g>
<!-- Node3&#45;&gt;Node34 -->
<g id="edge48" class="edge">
<title>Node3&#45;&gt;Node34</title>
<path fill="none" stroke="#63b8ff" d="M1416.9,-241.71C1523.06,-235.32 1755.91,-219.65 1951,-195 1954.19,-194.6 1957.44,-194.16 1960.73,-193.7"/>
<polygon fill="#63b8ff" stroke="#63b8ff" points="1416.49,-238.23 1406.72,-242.32 1416.91,-245.21 1416.49,-238.23"/>
</g>
<!-- Node35 -->
<g id="node35" class="node">
<title>Node35</title>
<g id="a_node35"><a xlink:href="test__WorksheetExport_8cpp.html" target="_top" xlink:title="Safety net for the export/serialization cluster of Worksheet.">
<polygon fill="white" stroke="#666666" points="2250.5,-195 2125.5,-195 2125.5,-165 2250.5,-165 2250.5,-195"/>
<text text-anchor="start" x="2133.5" y="-183" font-family="Helvetica,sans-Serif" font-size="10.00">test/unit_tests/test</text>
<text text-anchor="middle" x="2188" y="-172" font-family="Helvetica,sans-Serif" font-size="10.00">_WorksheetExport.cpp</text>
</a>
</g>
</g>
<!-- Node3&#45;&gt;Node35 -->
<g id="edge49" class="edge">
<title>Node3&#45;&gt;Node35</title>
<path fill="none" stroke="#63b8ff" d="M1416.86,-243.66C1543.88,-240.19 1856.51,-228.66 2116,-195 2119.03,-194.61 2122.13,-194.16 2125.25,-193.69"/>
<polygon fill="#63b8ff" stroke="#63b8ff" points="1416.49,-240.17 1406.59,-243.94 1416.68,-247.17 1416.49,-240.17"/>
</g>
<!-- Node36 -->
<g id="node36" class="node">
<title>Node36</title>
<g id="a_node36"><a xlink:href="test__WorksheetFind_8cpp.html" target="_top" xlink:title="Pins the worksheet&#39;s find/replace behavior before the search engine is extracted into WorksheetSearch...">
<polygon fill="white" stroke="#666666" points="2383,-195 2269,-195 2269,-165 2383,-165 2383,-195"/>
<text text-anchor="start" x="2277" y="-183" font-family="Helvetica,sans-Serif" font-size="10.00">test/unit_tests/test</text>
<text text-anchor="middle" x="2326" y="-172" font-family="Helvetica,sans-Serif" font-size="10.00">_WorksheetFind.cpp</text>
</a>
</g>
</g>
<!-- Node3&#45;&gt;Node36 -->
<g id="edge50" class="edge">
<title>Node3&#45;&gt;Node36</title>
<path fill="none" stroke="#63b8ff" d="M1416.94,-244.86C1560.46,-243.85 1943.73,-237.07 2260,-195 2262.9,-194.61 2265.87,-194.17 2268.86,-193.68"/>
<polygon fill="#63b8ff" stroke="#63b8ff" points="1416.6,-241.36 1406.62,-244.93 1416.64,-248.36 1416.6,-241.36"/>
</g>
<!-- Node9 -->
<g id="node9" class="node">
<title>Node9</title>
<g id="a_node9"><a xlink:href="MaximaCommandMenus_8cpp.html" target="_top" xlink:title="Implementation of the menu&#45;command handlers extracted from wxMaxima &#45; see MaximaCommandMenus....">
<polygon fill="white" stroke="#666666" points="3002,-19 2826,-19 2826,0 3002,0 3002,-19"/>
<text text-anchor="middle" x="2914" y="-7" font-family="Helvetica,sans-Serif" font-size="10.00">src/MaximaCommandMenus.cpp</text>
</a>
</g>
</g>
<!-- Node8&#45;&gt;Node9 -->
<g id="edge8" class="edge">
<title>Node8&#45;&gt;Node9</title>
<path fill="none" stroke="#63b8ff" d="M2068.83,-54.97C2351.94,-33.91 2673.84,-19.87 2825.92,-13.83"/>
<polygon fill="#63b8ff" stroke="#63b8ff" points="2068.48,-51.49 2058.77,-55.73 2069.01,-58.47 2068.48,-51.49"/>
</g>
<!-- Node10 -->
<g id="node10" class="node">
<title>Node10</title>
<g id="a_node10"><a xlink:href="main_8cpp.html" target="_top" xlink:title="The file that defines the starting point of the program.">
<polygon fill="white" stroke="#666666" points="1967.5,-19 1888.5,-19 1888.5,0 1967.5,0 1967.5,-19"/>
<text text-anchor="middle" x="1928" y="-7" font-family="Helvetica,sans-Serif" font-size="10.00">src/main.cpp</text>
</a>
</g>
</g>
<!-- Node8&#45;&gt;Node10 -->
<g id="edge9" class="edge">
<title>Node8&#45;&gt;Node10</title>
<path fill="none" stroke="#63b8ff" d="M1965.02,-47.52C1955.68,-38.18 1944.25,-26.75 1936.59,-19.09"/>
<polygon fill="#63b8ff" stroke="#63b8ff" points="1962.7,-50.15 1972.25,-54.75 1967.65,-45.2 1962.7,-50.15"/>
</g>
<!-- Node11 -->
<g id="node11" class="node">
<title>Node11</title>
<g id="a_node11"><a xlink:href="wxMaxima_8cpp.html" target="_top" xlink:title="This file defines the contents of the class wxMaxima that contains most of the program&#39;s logic.">
<polygon fill="white" stroke="#666666" points="2684,-19 2576,-19 2576,0 2684,0 2684,-19"/>
<text text-anchor="middle" x="2630" y="-7" font-family="Helvetica,sans-Serif" font-size="10.00">src/wxMaxima.cpp</text>
</a>
</g>
</g>
<!-- Node8&#45;&gt;Node11 -->
<g id="edge10" class="edge">
<title>Node8&#45;&gt;Node11</title>
<path fill="none" stroke="#63b8ff" d="M2068.82,-54.94C2261.74,-37.97 2477.12,-21.74 2575.72,-14.46"/>
<polygon fill="#63b8ff" stroke="#63b8ff" points="2068.44,-51.46 2058.78,-55.83 2069.05,-58.44 2068.44,-51.46"/>
</g>
<!-- Node12&#45;&gt;Node9 -->
<g id="edge12" class="edge">
<title>Node12&#45;&gt;Node9</title>
<path fill="none" stroke="#63b8ff" d="M2882.36,-46.96C2890.37,-37.72 2900.03,-26.6 2906.55,-19.09"/>
<polygon fill="#63b8ff" stroke="#63b8ff" points="2879.51,-44.9 2875.6,-54.75 2884.79,-49.49 2879.51,-44.9"/>
</g>
<!-- Node12&#45;&gt;Node10 -->
<g id="edge13" class="edge">
<title>Node12&#45;&gt;Node10</title>
<path fill="none" stroke="#63b8ff" d="M2793.08,-54.89C2468.71,-28.05 2089.7,-15.27 1967.81,-11.63"/>
<polygon fill="#63b8ff" stroke="#63b8ff" points="2792.89,-58.39 2803.14,-55.73 2793.47,-51.41 2792.89,-58.39"/>
</g>
<!-- Node12&#45;&gt;Node11 -->
<g id="edge14" class="edge">
<title>Node12&#45;&gt;Node11</title>
<path fill="none" stroke="#63b8ff" d="M2819.74,-52.75C2775.14,-42.82 2709.74,-28.26 2668.54,-19.08"/>
<polygon fill="#63b8ff" stroke="#63b8ff" points="2819.24,-56.23 2829.76,-54.98 2820.76,-49.39 2819.24,-56.23"/>
</g>
<!-- Node14&#45;&gt;Node6 -->
<g id="edge18" class="edge">
<title>Node14&#45;&gt;Node6</title>
<path fill="none" stroke="#63b8ff" d="M2428.57,-169.55C2416.35,-168.02 2403.82,-166.46 2392,-165 2259.16,-148.63 2225.51,-147.9 2093,-129 1971.11,-111.62 1828.24,-86.91 1755.61,-74.04"/>
<polygon fill="#63b8ff" stroke="#63b8ff" points="2428.38,-173.06 2438.74,-170.83 2429.25,-166.11 2428.38,-173.06"/>
</g>
<!-- Node15 -->
<g id="node15" class="node">
<title>Node15</title>
<g id="a_node15"><a xlink:href="AutocompletePopup_8cpp.html" target="_top" xlink:title="This file defines the class AutocompletePopup.">
<polygon fill="white" stroke="#666666" points="2579,-129 2427,-129 2427,-110 2579,-110 2579,-129"/>
<text text-anchor="middle" x="2503" y="-117" font-family="Helvetica,sans-Serif" font-size="10.00">src/AutocompletePopup.cpp</text>
</a>
</g>
</g>
<!-- Node14&#45;&gt;Node15 -->
<g id="edge17" class="edge">
<title>Node14&#45;&gt;Node15</title>
<path fill="none" stroke="#63b8ff" d="M2503,-160.16C2503,-149.74 2503,-137.3 2503,-129.17"/>
<polygon fill="#63b8ff" stroke="#63b8ff" points="2499.5,-160.37 2503,-170.37 2506.5,-160.37 2499.5,-160.37"/>
</g>
<!-- Node16 -->
<g id="node16" class="node">
<title>Node16</title>
<g id="a_node16"><a xlink:href="EditorCell_8cpp.html" target="_top" xlink:title="This file defines the class EditorCell.">
<polygon fill="white" stroke="#666666" points="2785.5,-74 2658.5,-74 2658.5,-55 2785.5,-55 2785.5,-74"/>
<text text-anchor="middle" x="2722" y="-62" font-family="Helvetica,sans-Serif" font-size="10.00">src/cells/EditorCell.cpp</text>
</a>
</g>
</g>
<!-- Node14&#45;&gt;Node16 -->
<g id="edge19" class="edge">
<title>Node14&#45;&gt;Node16</title>
<path fill="none" stroke="#63b8ff" d="M2467.42,-166.76C2436.05,-154.08 2398.18,-132.94 2418,-110 2425.8,-100.97 2571.32,-82.81 2658.15,-72.71"/>
<polygon fill="#63b8ff" stroke="#63b8ff" points="2466.29,-170.07 2476.88,-170.41 2468.81,-163.54 2466.29,-170.07"/>
</g>
<!-- Node17 -->
<g id="node17" class="node">
<title>Node17</title>
<g id="a_node17"><a xlink:href="main_8h.html" target="_top" xlink:title="This file declares the class wxMaxima that contains most of the program&#39;s logic.">
<polygon fill="white" stroke="#666666" points="1847,-74 1779,-74 1779,-55 1847,-55 1847,-74"/>
<text text-anchor="middle" x="1813" y="-62" font-family="Helvetica,sans-Serif" font-size="10.00">src/main.h</text>
</a>
</g>
</g>
<!-- Node14&#45;&gt;Node17 -->
<g id="edge20" class="edge">
<title>Node14&#45;&gt;Node17</title>
<path fill="none" stroke="#63b8ff" d="M2440.9,-168.78C2299.39,-145.51 1956.79,-89.15 1847.27,-71.14"/>
<polygon fill="#63b8ff" stroke="#63b8ff" points="2440.7,-172.3 2451.14,-170.47 2441.84,-165.39 2440.7,-172.3"/>
</g>
<!-- Node18 -->
<g id="node18" class="node">
<title>Node18</title>
<g id="a_node18"><a xlink:href="GreekSidebar_8cpp.html" target="_top" xlink:title="This file defines the class GreekSidebar.">
<polygon fill="white" stroke="#666666" points="2761,-129 2597,-129 2597,-110 2761,-110 2761,-129"/>
<text text-anchor="middle" x="2679" y="-117" font-family="Helvetica,sans-Serif" font-size="10.00">src/sidebars/GreekSidebar.cpp</text>
</a>
</g>
</g>
<!-- Node14&#45;&gt;Node18 -->
<g id="edge24" class="edge">
<title>Node14&#45;&gt;Node18</title>
<path fill="none" stroke="#63b8ff" d="M2538.15,-167.32C2572.19,-156 2622.99,-139.12 2653.38,-129.02"/>
<polygon fill="#63b8ff" stroke="#63b8ff" points="2536.98,-164.02 2528.59,-170.49 2539.19,-170.66 2536.98,-164.02"/>
</g>
<!-- Node19 -->
<g id="node19" class="node">
<title>Node19</title>
<g id="a_node19"><a xlink:href="wxMaxima_8h.html" target="_top" xlink:title="This file declares the class wxMaxima that contains most of the program&#39;s logic.">
<polygon fill="white" stroke="#666666" points="2370.5,-129 2273.5,-129 2273.5,-110 2370.5,-110 2370.5,-129"/>
<text text-anchor="middle" x="2322" y="-117" font-family="Helvetica,sans-Serif" font-size="10.00">src/wxMaxima.h</text>
</a>
</g>
</g>
<!-- Node14&#45;&gt;Node19 -->
<g id="edge25" class="edge">
<title>Node14&#45;&gt;Node19</title>
<path fill="none" stroke="#63b8ff" d="M2466.85,-167.32C2431.85,-156 2379.6,-139.12 2348.35,-129.02"/>
<polygon fill="#63b8ff" stroke="#63b8ff" points="2466.09,-170.75 2476.68,-170.49 2468.24,-164.09 2466.09,-170.75"/>
</g>
<!-- Node23 -->
<g id="node23" class="node">
<title>Node23</title>
<g id="a_node23"><a xlink:href="wxMaximaFrame_8cpp.html" target="_top" xlink:title="This file defines the class wxMaximaFrame.">
<polygon fill="white" stroke="#666666" points="2918.5,-129 2779.5,-129 2779.5,-110 2918.5,-110 2918.5,-129"/>
<text text-anchor="middle" x="2849" y="-117" font-family="Helvetica,sans-Serif" font-size="10.00">src/wxMaximaFrame.cpp</text>
</a>
</g>
</g>
<!-- Node14&#45;&gt;Node23 -->
<g id="edge37" class="edge">
<title>Node14&#45;&gt;Node23</title>
<path fill="none" stroke="#63b8ff" d="M2563.26,-168.81C2629.94,-157.54 2736.2,-139.57 2798.63,-129.02"/>
<polygon fill="#63b8ff" stroke="#63b8ff" points="2562.59,-165.38 2553.31,-170.49 2563.75,-172.28 2562.59,-165.38"/>
</g>
<!-- Node17&#45;&gt;Node2 -->
<g id="edge21" class="edge">
<title>Node17&#45;&gt;Node2</title>
<path fill="none" stroke="#63b8ff" d="M1768.8,-55.04C1474.61,-18.99 1134.27,-12.12 994.17,-10.8"/>
<polygon fill="#63b8ff" stroke="#63b8ff" points="1768.45,-58.53 1778.8,-56.28 1769.31,-51.58 1768.45,-58.53"/>
</g>
<!-- Node17&#45;&gt;Node10 -->
<g id="edge22" class="edge">
<title>Node17&#45;&gt;Node10</title>
<path fill="none" stroke="#63b8ff" d="M1840.63,-50.77C1861.84,-40.99 1890.56,-27.75 1909.19,-19.17"/>
<polygon fill="#63b8ff" stroke="#63b8ff" points="1839.09,-47.62 1831.48,-54.98 1842.02,-53.98 1839.09,-47.62"/>
</g>
<!-- Node17&#45;&gt;Node11 -->
<g id="edge23" class="edge">
<title>Node17&#45;&gt;Node11</title>
<path fill="none" stroke="#63b8ff" d="M1857.4,-58.48C1869.28,-57.24 1882.12,-55.98 1894,-55 2148.83,-33.94 2454.08,-18.65 2575.92,-12.95"/>
<polygon fill="#63b8ff" stroke="#63b8ff" points="1856.83,-55.02 1847.26,-59.57 1857.57,-61.98 1856.83,-55.02"/>
</g>
<!-- Node19&#45;&gt;Node4 -->
<g id="edge28" class="edge">
<title>Node19&#45;&gt;Node4</title>
<path fill="none" stroke="#63b8ff" d="M2262.97,-116.44C2021.84,-108.01 1112.77,-76.22 867.37,-67.65"/>
<polygon fill="#63b8ff" stroke="#63b8ff" points="2263.16,-119.95 2273.28,-116.8 2263.41,-112.95 2263.16,-119.95"/>
</g>
<!-- Node19&#45;&gt;Node5 -->
<g id="edge29" class="edge">
<title>Node19&#45;&gt;Node5</title>
<path fill="none" stroke="#63b8ff" d="M2263.14,-115.56C2085.95,-106.71 1556.94,-80.28 1347.63,-69.83"/>
<polygon fill="#63b8ff" stroke="#63b8ff" points="2263.14,-119.06 2273.3,-116.07 2263.49,-112.07 2263.14,-119.06"/>
</g>
<!-- Node19&#45;&gt;Node6 -->
<g id="edge32" class="edge">
<title>Node19&#45;&gt;Node6</title>
<path fill="none" stroke="#63b8ff" d="M2263.17,-114.84C2162.16,-108.31 1949.27,-93.5 1770,-74 1767.08,-73.68 1764.09,-73.34 1761.08,-72.97"/>
<polygon fill="#63b8ff" stroke="#63b8ff" points="2262.97,-118.33 2273.18,-115.48 2263.42,-111.35 2262.97,-118.33"/>
</g>
<!-- Node19&#45;&gt;Node9 -->
<g id="edge26" class="edge">
<title>Node19&#45;&gt;Node9</title>
<path fill="none" stroke="#63b8ff" d="M2380.94,-113.1C2393.19,-112.03 2406.01,-110.94 2418,-110 2476.18,-105.43 2902.17,-116.66 2942,-74 2956.96,-57.97 2936.5,-32.64 2923.42,-19.33"/>
<polygon fill="#63b8ff" stroke="#63b8ff" points="2380.48,-109.62 2370.82,-113.99 2381.09,-116.6 2380.48,-109.62"/>
</g>
<!-- Node19&#45;&gt;Node10 -->
<g id="edge34" class="edge">
<title>Node19&#45;&gt;Node10</title>
<path fill="none" stroke="#63b8ff" d="M2263.02,-116.67C2151.41,-112.58 1918.25,-100.9 1894,-74 1878.76,-57.1 1902.37,-32.13 1917.3,-19.11"/>
<polygon fill="#63b8ff" stroke="#63b8ff" points="2262.99,-120.17 2273.11,-117.03 2263.24,-113.17 2262.99,-120.17"/>
</g>
<!-- Node19&#45;&gt;Node11 -->
<g id="edge36" class="edge">
<title>Node19&#45;&gt;Node11</title>
<path fill="none" stroke="#63b8ff" d="M2381.06,-112.79C2460.53,-104.6 2593.94,-88.86 2611,-74 2626.97,-60.1 2629.8,-33.37 2630.13,-19.44"/>
<polygon fill="#63b8ff" stroke="#63b8ff" points="2380.29,-109.35 2370.7,-113.85 2381,-116.31 2380.29,-109.35"/>
</g>
<!-- Node19&#45;&gt;Node16 -->
<g id="edge33" class="edge">
<title>Node19&#45;&gt;Node16</title>
<path fill="none" stroke="#63b8ff" d="M2381.08,-110.52C2382.4,-110.35 2383.71,-110.17 2385,-110 2480.2,-97.29 2590.56,-82.76 2658.33,-73.85"/>
<polygon fill="#63b8ff" stroke="#63b8ff" points="2380.28,-107.1 2370.84,-111.9 2381.21,-114.04 2380.28,-107.1"/>
</g>
<!-- Node19&#45;&gt;Node17 -->
<g id="edge35" class="edge">
<title>Node19&#45;&gt;Node17</title>
<path fill="none" stroke="#63b8ff" d="M2263.38,-114.33C2175.64,-107.76 2005.07,-93.68 1861,-74 1856.47,-73.38 1851.72,-72.65 1847.04,-71.87"/>
<polygon fill="#63b8ff" stroke="#63b8ff" points="2263.17,-117.83 2273.4,-115.08 2263.69,-110.85 2263.17,-117.83"/>
</g>
<!-- Node20 -->
<g id="node20" class="node">
<title>Node20</title>
<g id="a_node20"><a xlink:href="MaximaEvaluator_8cpp.html" target="_top" xlink:title="Implements the evaluation&#45;queue driver extracted from the wxMaxima god class.">
<polygon fill="white" stroke="#666666" points="2217,-74 2077,-74 2077,-55 2217,-55 2217,-74"/>
<text text-anchor="middle" x="2147" y="-62" font-family="Helvetica,sans-Serif" font-size="10.00">src/MaximaEvaluator.cpp</text>
</a>
</g>
</g>
<!-- Node19&#45;&gt;Node20 -->
<g id="edge27" class="edge">
<title>Node19&#45;&gt;Node20</title>
<path fill="none" stroke="#63b8ff" d="M2284.21,-107.06C2251.5,-97.15 2204.93,-83.04 2175.34,-74.08"/>
<polygon fill="#63b8ff" stroke="#63b8ff" points="2283.3,-110.44 2293.88,-109.98 2285.33,-103.74 2283.3,-110.44"/>
</g>
<!-- Node21 -->
<g id="node21" class="node">
<title>Node21</title>
<g id="a_node21"><a xlink:href="MaximaProcessManager_8cpp.html" target="_top" xlink:title="Implements the Maxima process/socket lifecycle extracted from the wxMaxima god class.">
<polygon fill="white" stroke="#666666" points="2408.5,-74 2235.5,-74 2235.5,-55 2408.5,-55 2408.5,-74"/>
<text text-anchor="middle" x="2322" y="-62" font-family="Helvetica,sans-Serif" font-size="10.00">src/MaximaProcessManager.cpp</text>
</a>
</g>
</g>
<!-- Node19&#45;&gt;Node21 -->
<g id="edge30" class="edge">
<title>Node19&#45;&gt;Node21</title>
<path fill="none" stroke="#63b8ff" d="M2322,-99.66C2322,-90.93 2322,-80.99 2322,-74.09"/>
<polygon fill="#63b8ff" stroke="#63b8ff" points="2318.5,-99.75 2322,-109.75 2325.5,-99.75 2318.5,-99.75"/>
</g>
<!-- Node22 -->
<g id="node22" class="node">
<title>Node22</title>
<g id="a_node22"><a xlink:href="MaximaResponseReader_8cpp.html" target="_top" xlink:title="Implements the Maxima&#45;response handlers extracted from the wxMaxima god class.">
<polygon fill="white" stroke="#666666" points="2601.5,-74 2426.5,-74 2426.5,-55 2601.5,-55 2601.5,-74"/>
<text text-anchor="middle" x="2514" y="-62" font-family="Helvetica,sans-Serif" font-size="10.00">src/MaximaResponseReader.cpp</text>
</a>
</g>
</g>
<!-- Node19&#45;&gt;Node22 -->
<g id="edge31" class="edge">
<title>Node19&#45;&gt;Node22</title>
<path fill="none" stroke="#63b8ff" d="M2362.53,-107.31C2398.46,-97.39 2450.16,-83.12 2482.91,-74.08"/>
<polygon fill="#63b8ff" stroke="#63b8ff" points="2361.56,-103.95 2352.85,-109.98 2363.42,-110.7 2361.56,-103.95"/>
</g>
<!-- Node37&#45;&gt;Node14 -->
<g id="edge53" class="edge">
<title>Node37&#45;&gt;Node14</title>
<path fill="none" stroke="#63b8ff" d="M2247.55,-293.13C2240.52,-275.35 2233.76,-248.3 2248,-231 2251.31,-226.98 2382.65,-202.72 2455.51,-189.53"/>
<polygon fill="#63b8ff" stroke="#63b8ff" points="2244.37,-294.6 2251.56,-302.38 2250.79,-291.81 2244.37,-294.6"/>
</g>
<!-- Node38 -->
<g id="node38" class="node">
<title>Node38</title>
<g id="a_node38"><a xlink:href="HelpBrowser_8cpp.html" target="_top" xlink:title="This file defines the class HelpBrowser.">
<polygon fill="white" stroke="#666666" points="2417,-255.5 2257,-255.5 2257,-236.5 2417,-236.5 2417,-255.5"/>
<text text-anchor="middle" x="2337" y="-243.5" font-family="Helvetica,sans-Serif" font-size="10.00">src/sidebars/HelpBrowser.cpp</text>
</a>
</g>
</g>
<!-- Node37&#45;&gt;Node38 -->
<g id="edge52" class="edge">
<title>Node37&#45;&gt;Node38</title>
<path fill="none" stroke="#63b8ff" d="M2275,-295.99C2290.86,-283.46 2312.91,-266.04 2325.99,-255.7"/>
<polygon fill="#63b8ff" stroke="#63b8ff" points="2272.6,-293.42 2266.92,-302.37 2276.94,-298.92 2272.6,-293.42"/>
</g>
<!-- Node40 -->
<g id="node40" class="node">
<title>Node40</title>
<g id="a_node40"><a xlink:href="GenWiz_8h_source.html" target="_top" xlink:title=" ">
<polygon fill="white" stroke="#666666" points="3110.5,-74 2989.5,-74 2989.5,-55 3110.5,-55 3110.5,-74"/>
<text text-anchor="middle" x="3050" y="-62" font-family="Helvetica,sans-Serif" font-size="10.00">src/wizards/GenWiz.h</text>
</a>
</g>
</g>
<!-- Node39&#45;&gt;Node40 -->
<g id="edge55" class="edge">
<title>Node39&#45;&gt;Node40</title>
<path fill="none" stroke="#63b8ff" d="M2512.11,-299.29C2591.84,-272.94 2788.2,-205.28 2944,-129 2979.07,-111.83 3017.85,-86.98 3037.34,-74.05"/>
<polygon fill="#63b8ff" stroke="#63b8ff" points="2510.94,-295.99 2502.53,-302.44 2513.13,-302.64 2510.94,-295.99"/>
</g>
<!-- Node41 -->
<g id="node41" class="node">
<title>Node41</title>
<g id="a_node41"><a xlink:href="ScrollingGenWizPanel_8h_source.html" target="_top" xlink:title=" ">
<polygon fill="white" stroke="#666666" points="2571,-261 2435,-261 2435,-231 2571,-231 2571,-261"/>
<text text-anchor="start" x="2443" y="-249" font-family="Helvetica,sans-Serif" font-size="10.00">src/wizards/ScrollingGen</text>
<text text-anchor="middle" x="2503" y="-238" font-family="Helvetica,sans-Serif" font-size="10.00">WizPanel.h</text>
</a>
</g>
</g>
<!-- Node39&#45;&gt;Node41 -->
<g id="edge58" class="edge">
<title>Node39&#45;&gt;Node41</title>
<path fill="none" stroke="#63b8ff" d="M2483.6,-292.98C2487.82,-282.98 2493,-270.71 2496.94,-261.36"/>
<polygon fill="#63b8ff" stroke="#63b8ff" points="2480.3,-291.79 2479.64,-302.37 2486.75,-294.52 2480.3,-291.79"/>
</g>
<!-- Node40&#45;&gt;Node9 -->
<g id="edge56" class="edge">
<title>Node40&#45;&gt;Node9</title>
<path fill="none" stroke="#63b8ff" d="M3018.67,-51.29C2993.46,-41.47 2958.67,-27.91 2936.25,-19.17"/>
<polygon fill="#63b8ff" stroke="#63b8ff" points="3017.56,-54.61 3028.15,-54.98 3020.1,-48.09 3017.56,-54.61"/>
</g>
<!-- Node40&#45;&gt;Node11 -->
<g id="edge57" class="edge">
<title>Node40&#45;&gt;Node11</title>
<path fill="none" stroke="#63b8ff" d="M2979.25,-54.57C2896,-44.07 2759.61,-26.85 2684.26,-17.35"/>
<polygon fill="#63b8ff" stroke="#63b8ff" points="2979.02,-58.07 2989.38,-55.85 2979.89,-51.13 2979.02,-58.07"/>
</g>
<!-- Node41&#45;&gt;Node14 -->
<g id="edge59" class="edge">
<title>Node41&#45;&gt;Node14</title>
<path fill="none" stroke="#63b8ff" d="M2503,-220.6C2503,-209.8 2503,-197.78 2503,-189.84"/>
<polygon fill="#63b8ff" stroke="#63b8ff" points="2499.5,-220.8 2503,-230.8 2506.5,-220.8 2499.5,-220.8"/>
</g>
</g>
</svg>
        <g id="navigator" transform="translate(0 0)" fill="#404254">
                <rect fill="#f2f5e9" fill-opacity="0.5" stroke="#606060" stroke-width=".5" x="0" y="0" width="60" height="60"/>
                <use id="zoomplus" xlink:href="#zoomPlus" x="17" y="9" onmousedown="handleZoom(evt,'in')"/>
                <use id="zoomminus" xlink:href="#zoomMin" x="42" y="9" onmousedown="handleZoom(evt,'out')"/>
                <use id="reset" xlink:href="#resetDef" x="30" y="36" onmousedown="handleReset()"/>
                <g id="arrowUp" xlink:href="#dirArrow" transform="translate(30 24)" onmousedown="handlePan(0,-1)">
                  <use xlink:href="#rim" fill="#404040">
                        <set attributeName="fill" to="#808080" begin="arrowUp.mouseover" end="arrowUp.mouseout"/>
                  </use>
                  <path fill="none" stroke="white" stroke-width="1.5" d="M0,-3.0v7 M-2.5,-0.5L0,-3.0L2.5,-0.5"/>
                </g>
                <g id="arrowRight" xlink:href="#dirArrow" transform="rotate(90) translate(36 -43)" onmousedown="handlePan(1,0)">
                  <use xlink:href="#rim" fill="#404040">
                        <set attributeName="fill" to="#808080" begin="arrowRight.mouseover" end="arrowRight.mouseout"/>
                  </use>
                  <path fill="none" stroke="white" stroke-width="1.5" d="M0,-3.0v7 M-2.5,-0.5L0,-3.0L2.5,-0.5"/>
                </g>
                <g id="arrowDown" xlink:href="#dirArrow" transform="rotate(180) translate(-30 -48)" onmousedown="handlePan(0,1)">
                  <use xlink:href="#rim" fill="#404040">
                        <set attributeName="fill" to="#808080" begin="arrowDown.mouseover" end="arrowDown.mouseout"/>
                  </use>
                  <path fill="none" stroke="white" stroke-width="1.5" d="M0,-3.0v7 M-2.5,-0.5L0,-3.0L2.5,-0.5"/>
                </g>
                <g id="arrowLeft" xlink:href="#dirArrow" transform="rotate(270) translate(-36 17)" onmousedown="handlePan(-1,0)">
                  <use xlink:href="#rim" fill="#404040">
                        <set attributeName="fill" to="#808080" begin="arrowLeft.mouseover" end="arrowLeft.mouseout"/>
                  </use>
                  <path fill="none" stroke="white" stroke-width="1.5" d="M0,-3.0v7 M-2.5,-0.5L0,-3.0L2.5,-0.5"/>
                </g>
        </g>
        <svg viewBox="0 0 15 15" width="100%" height="30px" preserveAspectRatio="xMaxYMin meet">
         <g id="arrow_out" transform="scale(0.3 0.3)">
          <a xlink:href="MaximaManual_8h__dep__incl_org.svg" target="_base">
           <rect id="button" ry="5" rx="5" y="6" x="6" height="38" width="38"
                fill="#f2f5e9" fill-opacity="0.5" stroke="#606060" stroke-width="1.0"/>
           <path id="arrow"
             d="M 11.500037,31.436501 C 11.940474,20.09759 22.043105,11.32322 32.158766,21.979434 L 37.068811,17.246167 C 37.068811,17.246167 37.088388,32 37.088388,32 L 22.160133,31.978069 C 22.160133,31.978069 26.997745,27.140456 26.997745,27.140456 C 18.528582,18.264221 13.291696,25.230495 11.500037,31.436501 z"
             style="fill:#404040;"/>
          </a>
         </g>
        </svg>
</svg>
