<?xml version="1.0" encoding="UTF-8" standalone="no"?>
<!DOCTYPE svg PUBLIC "-//W3C//DTD SVG 1.1//EN"
 "http://www.w3.org/Graphics/SVG/1.1/DTD/svg11.dtd">
<!-- Generated by graphviz version 2.43.0 (0)
 -->
<!-- Title: src/Maxima.h Pages: 1 -->
<!--zoomable 302 -->
<svg id="main" version="1.1" xmlns="http://www.w3.org/2000/svg" xmlns:xlink="http://www.w3.org/1999/xlink" xml:space="preserve" onload="init(evt)">
<style type="text/css"><![CDATA[
.edge:hover path { stroke: red; }
.edge:hover polygon { stroke: red; fill: red; }
]]></style>
<script type="text/javascript"><![CDATA[
var edges = document.getElementsByTagName('g');
if (edges && edges.length) {
  for (var i=0;i<edges.length;i++) {
    if (edges[i].id.substr(0,4)=='edge') {
      edges[i].setAttribute('class','edge');
    }
  }
}
]]></script>
        <defs>
                <circle id="rim" cx="0" cy="0" r="7"/>
                <circle id="rim2" cx="0" cy="0" r="3.5"/>
                <g id="zoomPlus">
                        <use xlink:href="#rim" fill="#404040">
                                <set attributeName="fill" to="#808080" begin="zoomplus.mouseover" end="zoomplus.mouseout"/>
                        </use>
                        <path d="M-4,0h8M0,-4v8" fill="none" stroke="white" stroke-width="1.5" pointer-events="none"/>
                </g>
                <g id="zoomMin">
                        <use xlink:href="#rim" fill="#404040">
                                <set attributeName="fill" to="#808080" begin="zoomminus.mouseover" end="zoomminus.mouseout"/>
                        </use>
                        <path d="M-4,0h8" fill="none" stroke="white" stroke-width="1.5" pointer-events="none"/>
                </g>
                <g id="dirArrow">
                        <path fill="none" stroke="white" stroke-width="1.5" d="M0,-3.0v7 M-2.5,-0.5L0,-3.0L2.5,-0.5"/>
                </g>
               <g id="resetDef">
                       <use xlink:href="#rim2" fill="#404040">
                               <set attributeName="fill" to="#808080" begin="reset.mouseover" end="reset.mouseout"/>
                       </use>
               </g>
        </defs>

<script type="text/javascript">
var viewWidth = 2330;
var viewHeight = 302;
var sectionId = 'dynsection-0';
</script>
<script xlink:href="svgpan.js"/>
<svg id="graph" class="graph">
<g id="viewport">
<title>src/Maxima.h</title>
<!-- Node1 -->
<g id="node1" class="node">
<title>Node1</title>
<g id="a_node1"><a xlink:title="Declares the interface to the Maxima process.">
<polygon fill="#999999" stroke="#666666" points="672.5,-294 589.5,-294 589.5,-275 672.5,-275 672.5,-294"/>
<text text-anchor="middle" x="631" y="-282" font-family="Helvetica,sans-Serif" font-size="10.00">src/Maxima.h</text>
</a>
</g>
</g>
<!-- Node2 -->
<g id="node2" class="node">
<title>Node2</title>
<g id="a_node2"><a xlink:title=" ">
<polygon fill="#e0e0e0" stroke="#999999" points="64,-239 0,-239 0,-220 64,-220 64,-239"/>
<text text-anchor="middle" x="32" y="-227" font-family="Helvetica,sans-Serif" font-size="10.00">wx/defs.h</text>
</a>
</g>
</g>
<!-- Node1&#45;&gt;Node2 -->
<g id="edge1" class="edge">
<title>Node1&#45;&gt;Node2</title>
<path fill="none" stroke="#63b8ff" d="M589.15,-281.95C497.56,-278.17 272.33,-266.79 74.17,-238.99"/>
<polygon fill="#63b8ff" stroke="#63b8ff" points="74.56,-235.5 64.16,-237.56 73.57,-242.44 74.56,-235.5"/>
</g>
<!-- Node3 -->
<g id="node3" class="node">
<title>Node3</title>
<g id="a_node3"><a xlink:title=" ">
<polygon fill="#e0e0e0" stroke="#999999" points="153.5,-239 82.5,-239 82.5,-220 153.5,-220 153.5,-239"/>
<text text-anchor="middle" x="118" y="-227" font-family="Helvetica,sans-Serif" font-size="10.00">wx/buffer.h</text>
</a>
</g>
</g>
<!-- Node1&#45;&gt;Node3 -->
<g id="edge2" class="edge">
<title>Node1&#45;&gt;Node3</title>
<path fill="none" stroke="#63b8ff" d="M589.43,-280.91C509.09,-275.6 326.74,-262.14 164.16,-239.19"/>
<polygon fill="#63b8ff" stroke="#63b8ff" points="164.36,-235.69 153.97,-237.74 163.38,-242.62 164.36,-235.69"/>
</g>
<!-- Node4 -->
<g id="node4" class="node">
<title>Node4</title>
<g id="a_node4"><a xlink:title=" ">
<polygon fill="#e0e0e0" stroke="#999999" points="242.5,-239 171.5,-239 171.5,-220 242.5,-220 242.5,-239"/>
<text text-anchor="middle" x="207" y="-227" font-family="Helvetica,sans-Serif" font-size="10.00">wx/event.h</text>
</a>
</g>
</g>
<!-- Node1&#45;&gt;Node4 -->
<g id="edge3" class="edge">
<title>Node1&#45;&gt;Node4</title>
<path fill="none" stroke="#63b8ff" d="M589.37,-279.57C521.24,-272.93 381.47,-258.44 252.85,-239.03"/>
<polygon fill="#63b8ff" stroke="#63b8ff" points="253.24,-235.55 242.82,-237.5 252.18,-242.47 253.24,-235.55"/>
</g>
<!-- Node5 -->
<g id="node5" class="node">
<title>Node5</title>
<g id="a_node5"><a xlink:title=" ">
<polygon fill="#e0e0e0" stroke="#999999" points="343,-239 261,-239 261,-220 343,-220 343,-239"/>
<text text-anchor="middle" x="302" y="-227" font-family="Helvetica,sans-Serif" font-size="10.00">wx/sckstrm.h</text>
</a>
</g>
</g>
<!-- Node1&#45;&gt;Node5 -->
<g id="edge4" class="edge">
<title>Node1&#45;&gt;Node5</title>
<path fill="none" stroke="#63b8ff" d="M589.38,-277C536.81,-268.75 443.28,-253.99 353.3,-239.2"/>
<polygon fill="#63b8ff" stroke="#63b8ff" points="353.63,-235.71 343.2,-237.54 352.49,-242.62 353.63,-235.71"/>
</g>
<!-- Node6 -->
<g id="node6" class="node">
<title>Node6</title>
<g id="a_node6"><a xlink:title=" ">
<polygon fill="#e0e0e0" stroke="#999999" points="440.5,-239 361.5,-239 361.5,-220 440.5,-220 440.5,-239"/>
<text text-anchor="middle" x="401" y="-227" font-family="Helvetica,sans-Serif" font-size="10.00">wx/txtstrm.h</text>
</a>
</g>
</g>
<!-- Node1&#45;&gt;Node6 -->
<g id="edge5" class="edge">
<title>Node1&#45;&gt;Node6</title>
<path fill="none" stroke="#63b8ff" d="M594.05,-274.98C554.43,-265.86 491.41,-251.33 448.23,-241.38"/>
<polygon fill="#63b8ff" stroke="#63b8ff" points="448.77,-237.92 438.24,-239.08 447.2,-244.74 448.77,-237.92"/>
</g>
<!-- Node7 -->
<g id="node7" class="node">
<title>Node7</title>
<g id="a_node7"><a xlink:title=" ">
<polygon fill="#e0e0e0" stroke="#999999" points="533,-239 459,-239 459,-220 533,-220 533,-239"/>
<text text-anchor="middle" x="496" y="-227" font-family="Helvetica,sans-Serif" font-size="10.00">wx/socket.h</text>
</a>
</g>
</g>
<!-- Node1&#45;&gt;Node7 -->
<g id="edge6" class="edge">
<title>Node1&#45;&gt;Node7</title>
<path fill="none" stroke="#63b8ff" d="M609.31,-274.98C587.2,-266.3 552.68,-252.75 527.55,-242.88"/>
<polygon fill="#63b8ff" stroke="#63b8ff" points="528.67,-239.57 518.08,-239.17 526.11,-246.08 528.67,-239.57"/>
</g>
<!-- Node8 -->
<g id="node8" class="node">
<title>Node8</title>
<g id="a_node8"><a xlink:title=" ">
<polygon fill="#e0e0e0" stroke="#999999" points="622.5,-239 551.5,-239 551.5,-220 622.5,-220 622.5,-239"/>
<text text-anchor="middle" x="587" y="-227" font-family="Helvetica,sans-Serif" font-size="10.00">wx/string.h</text>
</a>
</g>
</g>
<!-- Node1&#45;&gt;Node8 -->
<g id="edge7" class="edge">
<title>Node1&#45;&gt;Node8</title>
<path fill="none" stroke="#63b8ff" d="M623.73,-274.75C617.46,-267.18 608.21,-256.05 600.57,-246.84"/>
<polygon fill="#63b8ff" stroke="#63b8ff" points="603.21,-244.55 594.13,-239.09 597.83,-249.02 603.21,-244.55"/>
</g>
<!-- Node9 -->
<g id="node9" class="node">
<title>Node9</title>
<g id="a_node9"><a xlink:title=" ">
<polygon fill="#e0e0e0" stroke="#999999" points="709,-239 641,-239 641,-220 709,-220 709,-239"/>
<text text-anchor="middle" x="675" y="-227" font-family="Helvetica,sans-Serif" font-size="10.00">wx/timer.h</text>
</a>
</g>
</g>
<!-- Node1&#45;&gt;Node9 -->
<g id="edge8" class="edge">
<title>Node1&#45;&gt;Node9</title>
<path fill="none" stroke="#63b8ff" d="M638.27,-274.75C644.54,-267.18 653.79,-256.05 661.43,-246.84"/>
<polygon fill="#63b8ff" stroke="#63b8ff" points="664.17,-249.02 667.87,-239.09 658.79,-244.55 664.17,-249.02"/>
</g>
<!-- Node10 -->
<g id="node10" class="node">
<title>Node10</title>
<g id="a_node10"><a xlink:title=" ">
<polygon fill="#e0e0e0" stroke="#999999" points="817,-74 759,-74 759,-55 817,-55 817,-74"/>
<text text-anchor="middle" x="788" y="-62" font-family="Helvetica,sans-Serif" font-size="10.00">memory</text>
</a>
</g>
</g>
<!-- Node1&#45;&gt;Node10 -->
<g id="edge9" class="edge">
<title>Node1&#45;&gt;Node10</title>
<path fill="none" stroke="#63b8ff" d="M660.63,-274.97C679.52,-268.11 703.14,-256.65 718,-239 740.18,-212.65 728.5,-197.09 741,-165 752.45,-135.59 768.7,-102.7 778.78,-83.07"/>
<polygon fill="#63b8ff" stroke="#63b8ff" points="781.93,-84.59 783.43,-74.1 775.72,-81.37 781.93,-84.59"/>
</g>
<!-- Node11 -->
<g id="node11" class="node">
<title>Node11</title>
<g id="a_node11"><a xlink:title=" ">
<polygon fill="#e0e0e0" stroke="#999999" points="2322,-239 2274,-239 2274,-220 2322,-220 2322,-239"/>
<text text-anchor="middle" x="2298" y="-227" font-family="Helvetica,sans-Serif" font-size="10.00">thread</text>
</a>
</g>
</g>
<!-- Node1&#45;&gt;Node11 -->
<g id="edge10" class="edge">
<title>Node1&#45;&gt;Node11</title>
<path fill="none" stroke="#63b8ff" d="M672.61,-283.45C894.41,-283.02 1939.41,-278.86 2260,-239 2261.28,-238.84 2262.59,-238.66 2263.9,-238.46"/>
<polygon fill="#63b8ff" stroke="#63b8ff" points="2264.8,-241.85 2274,-236.6 2263.53,-234.96 2264.8,-241.85"/>
</g>
<!-- Node12 -->
<g id="node12" class="node">
<title>Node12</title>
<g id="a_node12"><a xlink:title=" ">
<polygon fill="#e0e0e0" stroke="#999999" points="800,-184 750,-184 750,-165 800,-165 800,-184"/>
<text text-anchor="middle" x="775" y="-172" font-family="Helvetica,sans-Serif" font-size="10.00">atomic</text>
</a>
</g>
</g>
<!-- Node1&#45;&gt;Node12 -->
<g id="edge11" class="edge">
<title>Node1&#45;&gt;Node12</title>
<path fill="none" stroke="#63b8ff" d="M672.68,-277.05C698.23,-271.11 729.96,-259.91 751,-239 763.14,-226.94 769.23,-208.13 772.22,-194.11"/>
<polygon fill="#63b8ff" stroke="#63b8ff" points="775.7,-194.58 774.02,-184.12 768.81,-193.34 775.7,-194.58"/>
</g>
<!-- Node13 -->
<g id="node13" class="node">
<title>Node13</title>
<g id="a_node13"><a xlink:title=" ">
<polygon fill="#e0e0e0" stroke="#999999" points="866,-184 818,-184 818,-165 866,-165 866,-184"/>
<text text-anchor="middle" x="842" y="-172" font-family="Helvetica,sans-Serif" font-size="10.00">mutex</text>
</a>
</g>
</g>
<!-- Node1&#45;&gt;Node13 -->
<g id="edge12" class="edge">
<title>Node1&#45;&gt;Node13</title>
<path fill="none" stroke="#63b8ff" d="M672.73,-275.32C701.87,-268.44 740.95,-256.83 772,-239 793.89,-226.43 814.74,-206.04 827.91,-191.77"/>
<polygon fill="#63b8ff" stroke="#63b8ff" points="830.64,-193.96 834.72,-184.18 825.43,-189.28 830.64,-193.96"/>
</g>
<!-- Node14 -->
<g id="node14" class="node">
<title>Node14</title>
<g id="a_node14"><a xlink:href="Configuration_8h_source.html" target="_top" xlink:title=" ">
<polygon fill="white" stroke="#666666" points="1589.5,-239 1498.5,-239 1498.5,-220 1589.5,-220 1589.5,-239"/>
<text text-anchor="middle" x="1544" y="-227" font-family="Helvetica,sans-Serif" font-size="10.00">Configuration.h</text>
</a>
</g>
</g>
<!-- Node1&#45;&gt;Node14 -->
<g id="edge13" class="edge">
<title>Node1&#45;&gt;Node14</title>
<path fill="none" stroke="#63b8ff" d="M672.6,-281.08C820.38,-272.51 1320.17,-243.49 1488.29,-233.73"/>
<polygon fill="#63b8ff" stroke="#63b8ff" points="1488.63,-237.22 1498.41,-233.15 1488.22,-230.23 1488.63,-237.22"/>
</g>
<!-- Node16 -->
<g id="node16" class="node">
<title>Node16</title>
<g id="a_node16"><a xlink:title=" ">
<polygon fill="#e0e0e0" stroke="#999999" points="2205,-19 2143,-19 2143,0 2205,0 2205,-19"/>
<text text-anchor="middle" x="2174" y="-7" font-family="Helvetica,sans-Serif" font-size="10.00">Version.h</text>
</a>
</g>
</g>
<!-- Node1&#45;&gt;Node16 -->
<g id="edge68" class="edge">
<title>Node1&#45;&gt;Node16</title>
<path fill="none" stroke="#63b8ff" d="M672.54,-282.96C925.33,-279.38 2246,-256.82 2246,-175.5 2246,-175.5 2246,-175.5 2246,-118.5 2246,-89.04 2243.18,-79.62 2227,-55 2219.16,-43.08 2207.19,-32.64 2196.61,-24.88"/>
<polygon fill="#63b8ff" stroke="#63b8ff" points="2198.38,-21.84 2188.17,-19.01 2194.38,-27.59 2198.38,-21.84"/>
</g>
<!-- Node14&#45;&gt;Node10 -->
<g id="edge58" class="edge">
<title>Node14&#45;&gt;Node10</title>
<path fill="none" stroke="#63b8ff" d="M1498.11,-227.95C1379.31,-226.04 1064.12,-217.84 966,-184 899.88,-161.2 834.67,-107.78 804.85,-81.15"/>
<polygon fill="#63b8ff" stroke="#63b8ff" points="806.84,-78.24 797.08,-74.11 802.14,-83.42 806.84,-78.24"/>
</g>
<!-- Node14&#45;&gt;Node12 -->
<g id="edge65" class="edge">
<title>Node14&#45;&gt;Node12</title>
<path fill="none" stroke="#63b8ff" d="M1498.1,-228.65C1383.46,-228.4 1075.34,-223.89 810.35,-183.9"/>
<polygon fill="#63b8ff" stroke="#63b8ff" points="810.56,-180.39 800.15,-182.34 809.5,-187.31 810.56,-180.39"/>
</g>
<!-- Node14&#45;&gt;Node13 -->
<g id="edge59" class="edge">
<title>Node14&#45;&gt;Node13</title>
<path fill="none" stroke="#63b8ff" d="M1498.26,-227.84C1390.17,-225.77 1110.7,-217.33 880,-184 878.72,-183.82 877.42,-183.61 876.11,-183.39"/>
<polygon fill="#63b8ff" stroke="#63b8ff" points="876.5,-179.9 866.02,-181.46 875.18,-186.78 876.5,-179.9"/>
</g>
<!-- Node15 -->
<g id="node15" class="node">
<title>Node15</title>
<g id="a_node15"><a xlink:href="precomp_8h_source.html" target="_top" xlink:title=" ">
<polygon fill="white" stroke="#666666" points="2136,-74 2068,-74 2068,-55 2136,-55 2136,-74"/>
<text text-anchor="middle" x="2102" y="-62" font-family="Helvetica,sans-Serif" font-size="10.00">precomp.h</text>
</a>
</g>
</g>
<!-- Node14&#45;&gt;Node15 -->
<g id="edge14" class="edge">
<title>Node14&#45;&gt;Node15</title>
<path fill="none" stroke="#63b8ff" d="M1589.63,-228.6C1723.22,-228.43 2106.51,-224.38 2144,-184 2171.1,-154.81 2138.23,-107.02 2117.11,-81.98"/>
<polygon fill="#63b8ff" stroke="#63b8ff" points="2119.46,-79.36 2110.25,-74.14 2114.2,-83.97 2119.46,-79.36"/>
</g>
<!-- Node17 -->
<g id="node17" class="node">
<title>Node17</title>
<g id="a_node17"><a xlink:title=" ">
<polygon fill="#e0e0e0" stroke="#999999" points="1261.5,-184 1204.5,-184 1204.5,-165 1261.5,-165 1261.5,-184"/>
<text text-anchor="middle" x="1233" y="-172" font-family="Helvetica,sans-Serif" font-size="10.00">wx/wx.h</text>
</a>
</g>
</g>
<!-- Node14&#45;&gt;Node17 -->
<g id="edge16" class="edge">
<title>Node14&#45;&gt;Node17</title>
<path fill="none" stroke="#63b8ff" d="M1498.27,-222C1445.76,-214.33 1356.84,-200.71 1271.49,-184.2"/>
<polygon fill="#63b8ff" stroke="#63b8ff" points="1272.13,-180.75 1261.64,-182.27 1270.79,-187.62 1272.13,-180.75"/>
</g>
<!-- Node18 -->
<g id="node18" class="node">
<title>Node18</title>
<g id="a_node18"><a xlink:title=" ">
<polygon fill="#e0e0e0" stroke="#999999" points="1749,-129 1677,-129 1677,-110 1749,-110 1749,-129"/>
<text text-anchor="middle" x="1713" y="-117" font-family="Helvetica,sans-Serif" font-size="10.00">wx/config.h</text>
</a>
</g>
</g>
<!-- Node14&#45;&gt;Node18 -->
<g id="edge17" class="edge">
<title>Node14&#45;&gt;Node18</title>
<path fill="none" stroke="#63b8ff" d="M1589.53,-226.87C1652.8,-223.55 1762.35,-213.57 1787,-184 1803.77,-163.88 1773.23,-144.88 1746.44,-133"/>
<polygon fill="#63b8ff" stroke="#63b8ff" points="1747.78,-129.76 1737.21,-129.1 1745.06,-136.21 1747.78,-129.76"/>
</g>
<!-- Node19 -->
<g id="node19" class="node">
<title>Node19</title>
<g id="a_node19"><a xlink:title=" ">
<polygon fill="#e0e0e0" stroke="#999999" points="1356.5,-184 1279.5,-184 1279.5,-165 1356.5,-165 1356.5,-184"/>
<text text-anchor="middle" x="1318" y="-172" font-family="Helvetica,sans-Serif" font-size="10.00">wx/display.h</text>
</a>
</g>
</g>
<!-- Node14&#45;&gt;Node19 -->
<g id="edge18" class="edge">
<title>Node14&#45;&gt;Node19</title>
<path fill="none" stroke="#63b8ff" d="M1507.69,-219.98C1468.76,-210.86 1406.84,-196.33 1364.4,-186.38"/>
<polygon fill="#63b8ff" stroke="#63b8ff" points="1365.13,-182.96 1354.6,-184.08 1363.53,-189.77 1365.13,-182.96"/>
</g>
<!-- Node20 -->
<g id="node20" class="node">
<title>Node20</title>
<g id="a_node20"><a xlink:title=" ">
<polygon fill="#e0e0e0" stroke="#999999" points="1465,-184 1375,-184 1375,-165 1465,-165 1465,-184"/>
<text text-anchor="middle" x="1420" y="-172" font-family="Helvetica,sans-Serif" font-size="10.00">wx/fontenum.h</text>
</a>
</g>
</g>
<!-- Node14&#45;&gt;Node20 -->
<g id="edge19" class="edge">
<title>Node14&#45;&gt;Node20</title>
<path fill="none" stroke="#63b8ff" d="M1524.08,-219.98C1503.95,-211.38 1472.62,-197.99 1449.59,-188.15"/>
<polygon fill="#63b8ff" stroke="#63b8ff" points="1450.86,-184.88 1440.29,-184.17 1448.1,-191.32 1450.86,-184.88"/>
</g>
<!-- Node21 -->
<g id="node21" class="node">
<title>Node21</title>
<g id="a_node21"><a xlink:title=" ">
<polygon fill="#e0e0e0" stroke="#999999" points="1855,-129 1767,-129 1767,-110 1855,-110 1855,-129"/>
<text text-anchor="middle" x="1811" y="-117" font-family="Helvetica,sans-Serif" font-size="10.00">wx/hashmap.h</text>
</a>
</g>
</g>
<!-- Node14&#45;&gt;Node21 -->
<g id="edge20" class="edge">
<title>Node14&#45;&gt;Node21</title>
<path fill="none" stroke="#63b8ff" d="M1589.73,-227.09C1656.4,-224 1775.46,-214.29 1804,-184 1815.04,-172.28 1815.81,-153.43 1814.41,-139.3"/>
<polygon fill="#63b8ff" stroke="#63b8ff" points="1817.85,-138.63 1812.97,-129.22 1810.92,-139.61 1817.85,-138.63"/>
</g>
<!-- Node22 -->
<g id="node22" class="node">
<title>Node22</title>
<g id="a_node22"><a xlink:href="LoggingMessageDialog_8h.html" target="_top" xlink:title="This file declares a message dialog that sends its contents to the log message sink.">
<polygon fill="white" stroke="#666666" points="2134.5,-184 1957.5,-184 1957.5,-165 2134.5,-165 2134.5,-184"/>
<text text-anchor="middle" x="2046" y="-172" font-family="Helvetica,sans-Serif" font-size="10.00">dialogs/LoggingMessageDialog.h</text>
</a>
</g>
</g>
<!-- Node14&#45;&gt;Node22 -->
<g id="edge21" class="edge">
<title>Node14&#45;&gt;Node22</title>
<path fill="none" stroke="#63b8ff" d="M1589.88,-223.66C1672.42,-214.94 1847.34,-196.47 1954.97,-185.11"/>
<polygon fill="#63b8ff" stroke="#63b8ff" points="1955.59,-188.56 1965.17,-184.03 1954.86,-181.6 1955.59,-188.56"/>
</g>
<!-- Node25 -->
<g id="node25" class="node">
<title>Node25</title>
<g id="a_node25"><a xlink:href="TextStyle_8h.html" target="_top" xlink:title="This file declares everything needed for the text style system used to style all the elements on the ...">
<polygon fill="white" stroke="#666666" points="1186,-184 1090,-184 1090,-165 1186,-165 1186,-184"/>
<text text-anchor="middle" x="1138" y="-172" font-family="Helvetica,sans-Serif" font-size="10.00">cells/TextStyle.h</text>
</a>
</g>
</g>
<!-- Node14&#45;&gt;Node25 -->
<g id="edge25" class="edge">
<title>Node14&#45;&gt;Node25</title>
<path fill="none" stroke="#63b8ff" d="M1498.23,-222.98C1433.38,-215.08 1310.8,-199.91 1196.19,-184.14"/>
<polygon fill="#63b8ff" stroke="#63b8ff" points="1196.58,-180.66 1186.19,-182.76 1195.62,-187.59 1196.58,-180.66"/>
</g>
<!-- Node32 -->
<g id="node32" class="node">
<title>Node32</title>
<g id="a_node32"><a xlink:title=" ">
<polygon fill="#e0e0e0" stroke="#999999" points="1636,-74 1586,-74 1586,-55 1636,-55 1636,-74"/>
<text text-anchor="middle" x="1611" y="-62" font-family="Helvetica,sans-Serif" font-size="10.00">cstdint</text>
</a>
</g>
</g>
<!-- Node14&#45;&gt;Node32 -->
<g id="edge57" class="edge">
<title>Node14&#45;&gt;Node32</title>
<path fill="none" stroke="#63b8ff" d="M1589.76,-228.36C1669.55,-227.14 1829.51,-220.13 1870,-184 1888.82,-167.21 1880.86,-154.03 1884,-129 1885.05,-120.62 1889.47,-116.43 1884,-110 1853.88,-74.58 1713.13,-67.28 1646.34,-65.83"/>
<polygon fill="#63b8ff" stroke="#63b8ff" points="1646.35,-62.33 1636.29,-65.64 1646.22,-69.33 1646.35,-62.33"/>
</g>
<!-- Node39 -->
<g id="node39" class="node">
<title>Node39</title>
<g id="a_node39"><a xlink:title=" ">
<polygon fill="#e0e0e0" stroke="#999999" points="2218,-74 2154,-74 2154,-55 2218,-55 2218,-74"/>
<text text-anchor="middle" x="2186" y="-62" font-family="Helvetica,sans-Serif" font-size="10.00">algorithm</text>
</a>
</g>
</g>
<!-- Node14&#45;&gt;Node39 -->
<g id="edge64" class="edge">
<title>Node14&#45;&gt;Node39</title>
<path fill="none" stroke="#63b8ff" d="M1589.66,-228.34C1725.33,-227.43 2119.29,-221.56 2162,-184 2190.28,-159.12 2190.71,-110.9 2188.43,-84.28"/>
<polygon fill="#63b8ff" stroke="#63b8ff" points="2191.88,-83.59 2187.33,-74.03 2184.92,-84.34 2191.88,-83.59"/>
</g>
<!-- Node42 -->
<g id="node42" class="node">
<title>Node42</title>
<g id="a_node42"><a xlink:title=" ">
<polygon fill="#e0e0e0" stroke="#999999" points="1538,-74 1506,-74 1506,-55 1538,-55 1538,-74"/>
<text text-anchor="middle" x="1522" y="-62" font-family="Helvetica,sans-Serif" font-size="10.00">list</text>
</a>
</g>
</g>
<!-- Node14&#45;&gt;Node42 -->
<g id="edge62" class="edge">
<title>Node14&#45;&gt;Node42</title>
<path fill="none" stroke="#63b8ff" d="M1589.7,-226.96C1695.73,-221.85 1943.57,-200.17 1864,-110 1821.47,-61.8 1640.66,-82.91 1577,-74 1567.65,-72.69 1557.42,-71.14 1548.34,-69.73"/>
<polygon fill="#63b8ff" stroke="#63b8ff" points="1548.77,-66.25 1538.35,-68.15 1547.68,-73.17 1548.77,-66.25"/>
</g>
<!-- Node44 -->
<g id="node44" class="node">
<title>Node44</title>
<g id="a_node44"><a xlink:title=" ">
<polygon fill="#e0e0e0" stroke="#999999" points="966.5,-74 873.5,-74 873.5,-55 966.5,-55 966.5,-74"/>
<text text-anchor="middle" x="920" y="-62" font-family="Helvetica,sans-Serif" font-size="10.00">unordered_map</text>
</a>
</g>
</g>
<!-- Node14&#45;&gt;Node44 -->
<g id="edge60" class="edge">
<title>Node14&#45;&gt;Node44</title>
<path fill="none" stroke="#63b8ff" d="M1498.4,-227.81C1414.71,-225.72 1231.38,-217.37 1081,-184 1009.64,-168.16 970.93,-186.66 926,-129 916.32,-116.58 915.54,-98.37 916.76,-84.63"/>
<polygon fill="#63b8ff" stroke="#63b8ff" points="920.28,-84.74 918.11,-74.37 913.34,-83.83 920.28,-84.74"/>
</g>
<!-- Node45 -->
<g id="node45" class="node">
<title>Node45</title>
<g id="a_node45"><a xlink:title=" ">
<polygon fill="#e0e0e0" stroke="#999999" points="1537,-184 1483,-184 1483,-165 1537,-165 1537,-184"/>
<text text-anchor="middle" x="1510" y="-172" font-family="Helvetica,sans-Serif" font-size="10.00">random</text>
</a>
</g>
</g>
<!-- Node14&#45;&gt;Node45 -->
<g id="edge61" class="edge">
<title>Node14&#45;&gt;Node45</title>
<path fill="none" stroke="#63b8ff" d="M1538.39,-219.75C1533.68,-212.42 1526.83,-201.73 1521.03,-192.7"/>
<polygon fill="#63b8ff" stroke="#63b8ff" points="1523.86,-190.62 1515.51,-184.09 1517.96,-194.4 1523.86,-190.62"/>
</g>
<!-- Node46 -->
<g id="node46" class="node">
<title>Node46</title>
<g id="a_node46"><a xlink:title=" ">
<polygon fill="#e0e0e0" stroke="#999999" points="1602.5,-184 1555.5,-184 1555.5,-165 1602.5,-165 1602.5,-184"/>
<text text-anchor="middle" x="1579" y="-172" font-family="Helvetica,sans-Serif" font-size="10.00">vector</text>
</a>
</g>
</g>
<!-- Node14&#45;&gt;Node46 -->
<g id="edge63" class="edge">
<title>Node14&#45;&gt;Node46</title>
<path fill="none" stroke="#63b8ff" d="M1549.78,-219.75C1554.62,-212.42 1561.68,-201.73 1567.64,-192.7"/>
<polygon fill="#63b8ff" stroke="#63b8ff" points="1570.74,-194.36 1573.33,-184.09 1564.9,-190.5 1570.74,-194.36"/>
</g>
<!-- Node47 -->
<g id="node47" class="node">
<title>Node47</title>
<g id="a_node47"><a xlink:title=" ">
<polygon fill="#e0e0e0" stroke="#999999" points="1671,-184 1621,-184 1621,-165 1671,-165 1671,-184"/>
<text text-anchor="middle" x="1646" y="-172" font-family="Helvetica,sans-Serif" font-size="10.00">chrono</text>
</a>
</g>
</g>
<!-- Node14&#45;&gt;Node47 -->
<g id="edge66" class="edge">
<title>Node14&#45;&gt;Node47</title>
<path fill="none" stroke="#63b8ff" d="M1560.39,-219.98C1576.57,-211.57 1601.57,-198.59 1620.38,-188.81"/>
<polygon fill="#63b8ff" stroke="#63b8ff" points="1622.05,-191.89 1629.31,-184.17 1618.83,-185.68 1622.05,-191.89"/>
</g>
<!-- Node48 -->
<g id="node48" class="node">
<title>Node48</title>
<g id="a_node48"><a xlink:title=" ">
<polygon fill="#e0e0e0" stroke="#999999" points="1778.5,-184 1689.5,-184 1689.5,-165 1778.5,-165 1778.5,-184"/>
<text text-anchor="middle" x="1734" y="-172" font-family="Helvetica,sans-Serif" font-size="10.00">wx/wupdlock.h</text>
</a>
</g>
</g>
<!-- Node14&#45;&gt;Node48 -->
<g id="edge67" class="edge">
<title>Node14&#45;&gt;Node48</title>
<path fill="none" stroke="#63b8ff" d="M1574.53,-219.98C1606.7,-211.01 1657.56,-196.82 1693.17,-186.89"/>
<polygon fill="#63b8ff" stroke="#63b8ff" points="1694.54,-190.14 1703.23,-184.08 1692.66,-183.4 1694.54,-190.14"/>
</g>
<!-- Node15&#45;&gt;Node16 -->
<g id="edge15" class="edge">
<title>Node15&#45;&gt;Node16</title>
<path fill="none" stroke="#63b8ff" d="M2113.57,-54.98C2124.42,-47 2140.88,-34.88 2153.88,-25.31"/>
<polygon fill="#63b8ff" stroke="#63b8ff" points="2156.24,-27.92 2162.22,-19.17 2152.09,-22.28 2156.24,-27.92"/>
</g>
<!-- Node22&#45;&gt;Node15 -->
<g id="edge22" class="edge">
<title>Node22&#45;&gt;Node15</title>
<path fill="none" stroke="#63b8ff" d="M2069.11,-164.98C2084.59,-157.92 2103.76,-146.23 2113,-129 2120.51,-115 2116.3,-96.98 2111.06,-83.72"/>
<polygon fill="#63b8ff" stroke="#63b8ff" points="2114.12,-81.98 2106.85,-74.27 2107.73,-84.83 2114.12,-81.98"/>
</g>
<!-- Node23 -->
<g id="node23" class="node">
<title>Node23</title>
<g id="a_node23"><a xlink:title=" ">
<polygon fill="#e0e0e0" stroke="#999999" points="2028.5,-129 1949.5,-129 1949.5,-110 2028.5,-110 2028.5,-129"/>
<text text-anchor="middle" x="1989" y="-117" font-family="Helvetica,sans-Serif" font-size="10.00">wx/msgdlg.h</text>
</a>
</g>
</g>
<!-- Node22&#45;&gt;Node23 -->
<g id="edge23" class="edge">
<title>Node22&#45;&gt;Node23</title>
<path fill="none" stroke="#63b8ff" d="M2036.84,-164.98C2028.5,-157.23 2015.97,-145.58 2005.82,-136.14"/>
<polygon fill="#63b8ff" stroke="#63b8ff" points="2008.03,-133.42 1998.32,-129.17 2003.26,-138.54 2008.03,-133.42"/>
</g>
<!-- Node24 -->
<g id="node24" class="node">
<title>Node24</title>
<g id="a_node24"><a xlink:title=" ">
<polygon fill="#e0e0e0" stroke="#999999" points="2104,-129 2046,-129 2046,-110 2104,-110 2104,-129"/>
<text text-anchor="middle" x="2075" y="-117" font-family="Helvetica,sans-Serif" font-size="10.00">wx/log.h</text>
</a>
</g>
</g>
<!-- Node22&#45;&gt;Node24 -->
<g id="edge24" class="edge">
<title>Node22&#45;&gt;Node24</title>
<path fill="none" stroke="#63b8ff" d="M2050.79,-164.75C2054.76,-157.49 2060.53,-146.95 2065.43,-137.98"/>
<polygon fill="#63b8ff" stroke="#63b8ff" points="2068.57,-139.54 2070.3,-129.09 2062.43,-136.18 2068.57,-139.54"/>
</g>
<!-- Node25&#45;&gt;Node15 -->
<g id="edge26" class="edge">
<title>Node25&#45;&gt;Node15</title>
<path fill="none" stroke="#63b8ff" d="M1186.17,-166.1C1189.16,-165.71 1192.12,-165.34 1195,-165 1379.75,-143.27 1429.93,-167.16 1612,-129 1637.72,-123.61 1642.32,-115.6 1668,-110 1808.23,-79.43 1978.65,-69.73 2057.74,-66.76"/>
<polygon fill="#63b8ff" stroke="#63b8ff" points="2057.96,-70.25 2067.83,-66.4 2057.71,-63.26 2057.96,-70.25"/>
</g>
<!-- Node25&#45;&gt;Node18 -->
<g id="edge32" class="edge">
<title>Node25&#45;&gt;Node18</title>
<path fill="none" stroke="#63b8ff" d="M1186.17,-166.07C1189.16,-165.69 1192.12,-165.33 1195,-165 1402.3,-141.6 1455.95,-154.51 1663,-129 1664.25,-128.85 1665.52,-128.68 1666.8,-128.51"/>
<polygon fill="#63b8ff" stroke="#63b8ff" points="1667.34,-131.97 1676.74,-127.07 1666.34,-125.04 1667.34,-131.97"/>
</g>
<!-- Node25&#45;&gt;Node21 -->
<g id="edge29" class="edge">
<title>Node25&#45;&gt;Node21</title>
<path fill="none" stroke="#63b8ff" d="M1186.17,-166.03C1189.15,-165.65 1192.11,-165.31 1195,-165 1441.04,-138.84 1507.09,-156.41 1756.69,-129.03"/>
<polygon fill="#63b8ff" stroke="#63b8ff" points="1757.24,-132.49 1766.8,-127.91 1756.47,-125.54 1757.24,-132.49"/>
</g>
<!-- Node26 -->
<g id="node26" class="node">
<title>Node26</title>
<g id="a_node26"><a xlink:title=" ">
<polygon fill="#e0e0e0" stroke="#999999" points="1389,-129 1317,-129 1317,-110 1389,-110 1389,-129"/>
<text text-anchor="middle" x="1353" y="-117" font-family="Helvetica,sans-Serif" font-size="10.00">wx/colour.h</text>
</a>
</g>
</g>
<!-- Node25&#45;&gt;Node26 -->
<g id="edge27" class="edge">
<title>Node25&#45;&gt;Node26</title>
<path fill="none" stroke="#63b8ff" d="M1172.54,-164.98C1209.42,-155.89 1267.99,-141.46 1308.34,-131.51"/>
<polygon fill="#63b8ff" stroke="#63b8ff" points="1309.31,-134.87 1318.19,-129.08 1307.64,-128.08 1309.31,-134.87"/>
</g>
<!-- Node27 -->
<g id="node27" class="node">
<title>Node27</title>
<g id="a_node27"><a xlink:title=" ">
<polygon fill="#e0e0e0" stroke="#999999" points="1445,-129 1407,-129 1407,-110 1445,-110 1445,-129"/>
<text text-anchor="middle" x="1426" y="-117" font-family="Helvetica,sans-Serif" font-size="10.00">map</text>
</a>
</g>
</g>
<!-- Node25&#45;&gt;Node27 -->
<g id="edge28" class="edge">
<title>Node25&#45;&gt;Node27</title>
<path fill="none" stroke="#63b8ff" d="M1186.27,-165.98C1245.88,-156.58 1344.85,-140.54 1396.77,-128.99"/>
<polygon fill="#63b8ff" stroke="#63b8ff" points="1397.85,-132.33 1406.81,-126.67 1396.28,-125.51 1397.85,-132.33"/>
</g>
<!-- Node28 -->
<g id="node28" class="node">
<title>Node28</title>
<g id="a_node28"><a xlink:title=" ">
<polygon fill="#e0e0e0" stroke="#999999" points="1507,-129 1463,-129 1463,-110 1507,-110 1507,-129"/>
<text text-anchor="middle" x="1485" y="-117" font-family="Helvetica,sans-Serif" font-size="10.00">string</text>
</a>
</g>
</g>
<!-- Node25&#45;&gt;Node28 -->
<g id="edge30" class="edge">
<title>Node25&#45;&gt;Node28</title>
<path fill="none" stroke="#63b8ff" d="M1186.2,-166.28C1189.18,-165.84 1192.13,-165.41 1195,-165 1306.88,-148.88 1338.45,-152.21 1452.88,-129"/>
<polygon fill="#63b8ff" stroke="#63b8ff" points="1453.64,-132.42 1462.73,-126.98 1452.23,-125.56 1453.64,-132.42"/>
</g>
<!-- Node29 -->
<g id="node29" class="node">
<title>Node29</title>
<g id="a_node29"><a xlink:title=" ">
<polygon fill="#e0e0e0" stroke="#999999" points="1582.5,-129 1525.5,-129 1525.5,-110 1582.5,-110 1582.5,-129"/>
<text text-anchor="middle" x="1554" y="-117" font-family="Helvetica,sans-Serif" font-size="10.00">ostream</text>
</a>
</g>
</g>
<!-- Node25&#45;&gt;Node29 -->
<g id="edge31" class="edge">
<title>Node25&#45;&gt;Node29</title>
<path fill="none" stroke="#63b8ff" d="M1186.18,-166.19C1189.17,-165.78 1192.12,-165.38 1195,-165 1334.15,-146.83 1372.69,-152.43 1515.43,-128.91"/>
<polygon fill="#63b8ff" stroke="#63b8ff" points="1516.14,-132.34 1525.43,-127.24 1514.99,-125.43 1516.14,-132.34"/>
</g>
<!-- Node30 -->
<g id="node30" class="node">
<title>Node30</title>
<g id="a_node30"><a xlink:title=" ">
<polygon fill="#e0e0e0" stroke="#999999" points="1148,-74 1086,-74 1086,-55 1148,-55 1148,-74"/>
<text text-anchor="middle" x="1117" y="-62" font-family="Helvetica,sans-Serif" font-size="10.00">wx/font.h</text>
</a>
</g>
</g>
<!-- Node25&#45;&gt;Node30 -->
<g id="edge33" class="edge">
<title>Node25&#45;&gt;Node30</title>
<path fill="none" stroke="#63b8ff" d="M1130.33,-164.7C1123.48,-156.21 1113.95,-142.68 1110,-129 1105.77,-114.33 1108.11,-97.07 1111.18,-84.25"/>
<polygon fill="#63b8ff" stroke="#63b8ff" points="1114.64,-84.88 1113.92,-74.31 1107.89,-83.02 1114.64,-84.88"/>
</g>
<!-- Node31 -->
<g id="node31" class="node">
<title>Node31</title>
<g id="a_node31"><a xlink:title=" ">
<polygon fill="#e0e0e0" stroke="#999999" points="1299,-129 1217,-129 1217,-110 1299,-110 1299,-129"/>
<text text-anchor="middle" x="1258" y="-117" font-family="Helvetica,sans-Serif" font-size="10.00">wx/settings.h</text>
</a>
</g>
</g>
<!-- Node25&#45;&gt;Node31 -->
<g id="edge34" class="edge">
<title>Node25&#45;&gt;Node31</title>
<path fill="none" stroke="#63b8ff" d="M1157.28,-164.98C1176.67,-156.42 1206.81,-143.11 1229.07,-133.28"/>
<polygon fill="#63b8ff" stroke="#63b8ff" points="1230.64,-136.41 1238.37,-129.17 1227.81,-130.01 1230.64,-136.41"/>
</g>
<!-- Node25&#45;&gt;Node32 -->
<g id="edge35" class="edge">
<title>Node25&#45;&gt;Node32</title>
<path fill="none" stroke="#63b8ff" d="M1186.18,-166.12C1189.16,-165.72 1192.12,-165.35 1195,-165 1282.73,-154.48 1522.19,-184.44 1591,-129 1604.21,-118.36 1608.85,-99.05 1610.4,-84.5"/>
<polygon fill="#63b8ff" stroke="#63b8ff" points="1613.92,-84.33 1611.09,-74.12 1606.93,-83.87 1613.92,-84.33"/>
</g>
<!-- Node33 -->
<g id="node33" class="node">
<title>Node33</title>
<g id="a_node33"><a xlink:title=" ">
<polygon fill="#e0e0e0" stroke="#999999" points="1149.5,-19 1084.5,-19 1084.5,0 1149.5,0 1149.5,-19"/>
<text text-anchor="middle" x="1117" y="-7" font-family="Helvetica,sans-Serif" font-size="10.00">functional</text>
</a>
</g>
</g>
<!-- Node25&#45;&gt;Node33 -->
<g id="edge36" class="edge">
<title>Node25&#45;&gt;Node33</title>
<path fill="none" stroke="#63b8ff" d="M1089.79,-170.47C1045.23,-166.06 978.24,-155.29 926,-129 893.1,-112.44 879.11,-107.6 864,-74 860.54,-66.3 858.57,-61.47 864,-55 890.28,-23.7 1008.63,-14.41 1073.73,-11.65"/>
<polygon fill="#63b8ff" stroke="#63b8ff" points="1074.23,-15.14 1084.08,-11.25 1073.96,-8.14 1074.23,-15.14"/>
</g>
<!-- Node34 -->
<g id="node34" class="node">
<title>Node34</title>
<g id="a_node34"><a xlink:href="FontAttribs_8h_source.html" target="_top" xlink:title=" ">
<polygon fill="white" stroke="#666666" points="1198.5,-129 1119.5,-129 1119.5,-110 1198.5,-110 1198.5,-129"/>
<text text-anchor="middle" x="1159" y="-117" font-family="Helvetica,sans-Serif" font-size="10.00">FontAttribs.h</text>
</a>
</g>
</g>
<!-- Node25&#45;&gt;Node34 -->
<g id="edge37" class="edge">
<title>Node25&#45;&gt;Node34</title>
<path fill="none" stroke="#63b8ff" d="M1141.47,-164.75C1144.28,-157.65 1148.34,-147.4 1151.85,-138.56"/>
<polygon fill="#63b8ff" stroke="#63b8ff" points="1155.17,-139.68 1155.6,-129.09 1148.66,-137.1 1155.17,-139.68"/>
</g>
<!-- Node41 -->
<g id="node41" class="node">
<title>Node41</title>
<g id="a_node41"><a xlink:href="FontVariantCache_8h.html" target="_top" xlink:title="This file implements the wxFont cache system.">
<polygon fill="white" stroke="#666666" points="1062.5,-129 951.5,-129 951.5,-110 1062.5,-110 1062.5,-129"/>
<text text-anchor="middle" x="1007" y="-117" font-family="Helvetica,sans-Serif" font-size="10.00">FontVariantCache.h</text>
</a>
</g>
</g>
<!-- Node25&#45;&gt;Node41 -->
<g id="edge48" class="edge">
<title>Node25&#45;&gt;Node41</title>
<path fill="none" stroke="#63b8ff" d="M1116.95,-164.98C1095.59,-156.34 1062.3,-142.87 1037.94,-133.02"/>
<polygon fill="#63b8ff" stroke="#63b8ff" points="1039.01,-129.68 1028.43,-129.17 1036.39,-136.17 1039.01,-129.68"/>
</g>
<!-- Node25&#45;&gt;Node44 -->
<g id="edge56" class="edge">
<title>Node25&#45;&gt;Node44</title>
<path fill="none" stroke="#63b8ff" d="M1089.9,-167.97C1039.13,-161.22 963.51,-148.26 942,-129 929.38,-117.7 924,-98.79 921.7,-84.54"/>
<polygon fill="#63b8ff" stroke="#63b8ff" points="925.14,-83.84 920.45,-74.35 918.2,-84.7 925.14,-83.84"/>
</g>
<!-- Node34&#45;&gt;Node30 -->
<g id="edge42" class="edge">
<title>Node34&#45;&gt;Node30</title>
<path fill="none" stroke="#63b8ff" d="M1152.06,-109.75C1146.13,-102.26 1137.43,-91.28 1130.18,-82.13"/>
<polygon fill="#63b8ff" stroke="#63b8ff" points="1132.76,-79.75 1123.81,-74.09 1127.27,-84.1 1132.76,-79.75"/>
</g>
<!-- Node34&#45;&gt;Node32 -->
<g id="edge45" class="edge">
<title>Node34&#45;&gt;Node32</title>
<path fill="none" stroke="#63b8ff" d="M1198.55,-111.41C1201.74,-110.91 1204.92,-110.43 1208,-110 1358.06,-89.04 1396.56,-91.98 1547,-74 1556.3,-72.89 1566.35,-71.6 1575.66,-70.36"/>
<polygon fill="#63b8ff" stroke="#63b8ff" points="1576.34,-73.8 1585.79,-69 1575.41,-66.86 1576.34,-73.8"/>
</g>
<!-- Node34&#45;&gt;Node33 -->
<g id="edge46" class="edge">
<title>Node34&#45;&gt;Node33</title>
<path fill="none" stroke="#63b8ff" d="M1160.53,-109.9C1162.38,-97.33 1164.4,-73.42 1157,-55 1152.59,-44.01 1144.17,-33.98 1136.19,-26.24"/>
<polygon fill="#63b8ff" stroke="#63b8ff" points="1138.29,-23.42 1128.53,-19.31 1133.6,-28.61 1138.29,-23.42"/>
</g>
<!-- Node35 -->
<g id="node35" class="node">
<title>Node35</title>
<g id="a_node35"><a xlink:href="EnumWrapper_8h_source.html" target="_top" xlink:title=" ">
<polygon fill="white" stroke="#666666" points="1457,-74 1363,-74 1363,-55 1457,-55 1457,-74"/>
<text text-anchor="middle" x="1410" y="-62" font-family="Helvetica,sans-Serif" font-size="10.00">EnumWrapper.h</text>
</a>
</g>
</g>
<!-- Node34&#45;&gt;Node35 -->
<g id="edge38" class="edge">
<title>Node34&#45;&gt;Node35</title>
<path fill="none" stroke="#63b8ff" d="M1198.77,-110.1C1242.3,-100.91 1312.19,-86.15 1359.54,-76.15"/>
<polygon fill="#63b8ff" stroke="#63b8ff" points="1360.52,-79.52 1369.58,-74.03 1359.08,-72.68 1360.52,-79.52"/>
</g>
<!-- Node38 -->
<g id="node38" class="node">
<title>Node38</title>
<g id="a_node38"><a xlink:title=" ">
<polygon fill="#e0e0e0" stroke="#999999" points="1283.5,-74 1204.5,-74 1204.5,-55 1283.5,-55 1283.5,-74"/>
<text text-anchor="middle" x="1244" y="-62" font-family="Helvetica,sans-Serif" font-size="10.00">wx/version.h</text>
</a>
</g>
</g>
<!-- Node34&#45;&gt;Node38 -->
<g id="edge43" class="edge">
<title>Node34&#45;&gt;Node38</title>
<path fill="none" stroke="#63b8ff" d="M1172.66,-109.98C1185.84,-101.77 1206.03,-89.18 1221.57,-79.49"/>
<polygon fill="#63b8ff" stroke="#63b8ff" points="1223.46,-82.43 1230.09,-74.17 1219.76,-76.49 1223.46,-82.43"/>
</g>
<!-- Node34&#45;&gt;Node39 -->
<g id="edge44" class="edge">
<title>Node34&#45;&gt;Node39</title>
<path fill="none" stroke="#63b8ff" d="M1198.52,-111.18C1201.72,-110.73 1204.91,-110.33 1208,-110 1619.11,-66.64 1729.54,-123.54 2143.7,-73.92"/>
<polygon fill="#63b8ff" stroke="#63b8ff" points="2144.35,-77.37 2153.85,-72.69 2143.51,-70.42 2144.35,-77.37"/>
</g>
<!-- Node40 -->
<g id="node40" class="node">
<title>Node40</title>
<g id="a_node40"><a xlink:title=" ">
<polygon fill="#e0e0e0" stroke="#999999" points="1345,-74 1301,-74 1301,-55 1345,-55 1345,-74"/>
<text text-anchor="middle" x="1323" y="-62" font-family="Helvetica,sans-Serif" font-size="10.00">limits</text>
</a>
</g>
</g>
<!-- Node34&#45;&gt;Node40 -->
<g id="edge47" class="edge">
<title>Node34&#45;&gt;Node40</title>
<path fill="none" stroke="#63b8ff" d="M1185.35,-109.98C1214.15,-100.68 1260.28,-85.77 1291.1,-75.81"/>
<polygon fill="#63b8ff" stroke="#63b8ff" points="1292.48,-79.04 1300.92,-72.63 1290.33,-72.38 1292.48,-79.04"/>
</g>
<!-- Node35&#45;&gt;Node33 -->
<g id="edge40" class="edge">
<title>Node35&#45;&gt;Node33</title>
<path fill="none" stroke="#63b8ff" d="M1362.92,-54.98C1306.85,-44.84 1213.97,-28.04 1159.83,-18.25"/>
<polygon fill="#63b8ff" stroke="#63b8ff" points="1160.33,-14.78 1149.87,-16.45 1159.08,-21.67 1160.33,-14.78"/>
</g>
<!-- Node36 -->
<g id="node36" class="node">
<title>Node36</title>
<g id="a_node36"><a xlink:title=" ">
<polygon fill="#e0e0e0" stroke="#999999" points="1475.5,-19 1422.5,-19 1422.5,0 1475.5,0 1475.5,-19"/>
<text text-anchor="middle" x="1449" y="-7" font-family="Helvetica,sans-Serif" font-size="10.00">cstddef</text>
</a>
</g>
</g>
<!-- Node35&#45;&gt;Node36 -->
<g id="edge39" class="edge">
<title>Node35&#45;&gt;Node36</title>
<path fill="none" stroke="#63b8ff" d="M1416.44,-54.75C1421.89,-47.34 1429.86,-36.5 1436.56,-27.41"/>
<polygon fill="#63b8ff" stroke="#63b8ff" points="1439.57,-29.22 1442.68,-19.09 1433.93,-25.07 1439.57,-29.22"/>
</g>
<!-- Node37 -->
<g id="node37" class="node">
<title>Node37</title>
<g id="a_node37"><a xlink:title=" ">
<polygon fill="#e0e0e0" stroke="#999999" points="1404.5,-19 1335.5,-19 1335.5,0 1404.5,0 1404.5,-19"/>
<text text-anchor="middle" x="1370" y="-7" font-family="Helvetica,sans-Serif" font-size="10.00">type_traits</text>
</a>
</g>
</g>
<!-- Node35&#45;&gt;Node37 -->
<g id="edge41" class="edge">
<title>Node35&#45;&gt;Node37</title>
<path fill="none" stroke="#63b8ff" d="M1403.39,-54.75C1397.74,-47.26 1389.46,-36.28 1382.55,-27.13"/>
<polygon fill="#63b8ff" stroke="#63b8ff" points="1385.3,-24.96 1376.48,-19.09 1379.71,-29.18 1385.3,-24.96"/>
</g>
<!-- Node41&#45;&gt;Node10 -->
<g id="edge50" class="edge">
<title>Node41&#45;&gt;Node10</title>
<path fill="none" stroke="#63b8ff" d="M971.81,-109.98C932.24,-100.41 868.16,-84.9 827.07,-74.95"/>
<polygon fill="#63b8ff" stroke="#63b8ff" points="827.69,-71.5 817.14,-72.55 826.04,-78.31 827.69,-71.5"/>
</g>
<!-- Node41&#45;&gt;Node15 -->
<g id="edge49" class="edge">
<title>Node41&#45;&gt;Node15</title>
<path fill="none" stroke="#63b8ff" d="M1062.57,-113.53C1077.92,-112.26 1094.6,-110.98 1110,-110 1475.54,-86.73 1917.62,-71.43 2057.41,-66.9"/>
<polygon fill="#63b8ff" stroke="#63b8ff" points="2057.83,-70.39 2067.71,-66.57 2057.6,-63.4 2057.83,-70.39"/>
</g>
<!-- Node41&#45;&gt;Node30 -->
<g id="edge51" class="edge">
<title>Node41&#45;&gt;Node30</title>
<path fill="none" stroke="#63b8ff" d="M1024.67,-109.98C1042.29,-101.5 1069.58,-88.35 1089.93,-78.54"/>
<polygon fill="#63b8ff" stroke="#63b8ff" points="1091.52,-81.66 1099.01,-74.17 1088.48,-75.36 1091.52,-81.66"/>
</g>
<!-- Node41&#45;&gt;Node33 -->
<g id="edge52" class="edge">
<title>Node41&#45;&gt;Node33</title>
<path fill="none" stroke="#63b8ff" d="M1016,-109.66C1034.63,-91.38 1077.6,-49.18 1101.04,-26.17"/>
<polygon fill="#63b8ff" stroke="#63b8ff" points="1103.5,-28.66 1108.18,-19.16 1098.59,-23.67 1103.5,-28.66"/>
</g>
<!-- Node41&#45;&gt;Node42 -->
<g id="edge53" class="edge">
<title>Node41&#45;&gt;Node42</title>
<path fill="none" stroke="#63b8ff" d="M1062.78,-113.47C1167.38,-103.98 1389.33,-83.53 1466,-74 1475.78,-72.78 1486.49,-71.22 1495.9,-69.76"/>
<polygon fill="#63b8ff" stroke="#63b8ff" points="1496.53,-73.2 1505.86,-68.19 1495.43,-66.29 1496.53,-73.2"/>
</g>
<!-- Node43 -->
<g id="node43" class="node">
<title>Node43</title>
<g id="a_node43"><a xlink:title=" ">
<polygon fill="#e0e0e0" stroke="#999999" points="1029.5,-74 984.5,-74 984.5,-55 1029.5,-55 1029.5,-74"/>
<text text-anchor="middle" x="1007" y="-62" font-family="Helvetica,sans-Serif" font-size="10.00">utility</text>
</a>
</g>
</g>
<!-- Node41&#45;&gt;Node43 -->
<g id="edge54" class="edge">
<title>Node41&#45;&gt;Node43</title>
<path fill="none" stroke="#63b8ff" d="M1007,-109.75C1007,-102.8 1007,-92.85 1007,-84.13"/>
<polygon fill="#63b8ff" stroke="#63b8ff" points="1010.5,-84.09 1007,-74.09 1003.5,-84.09 1010.5,-84.09"/>
</g>
<!-- Node41&#45;&gt;Node44 -->
<g id="edge55" class="edge">
<title>Node41&#45;&gt;Node44</title>
<path fill="none" stroke="#63b8ff" d="M993.02,-109.98C979.53,-101.77 958.87,-89.18 942.96,-79.49"/>
<polygon fill="#63b8ff" stroke="#63b8ff" points="944.59,-76.38 934.23,-74.17 940.95,-82.36 944.59,-76.38"/>
</g>
</g>
</svg>
        <g id="navigator" transform="translate(0 0)" fill="#404254">
                <rect fill="#f2f5e9" fill-opacity="0.5" stroke="#606060" stroke-width=".5" x="0" y="0" width="60" height="60"/>
                <use id="zoomplus" xlink:href="#zoomPlus" x="17" y="9" onmousedown="handleZoom(evt,'in')"/>
                <use id="zoomminus" xlink:href="#zoomMin" x="42" y="9" onmousedown="handleZoom(evt,'out')"/>
                <use id="reset" xlink:href="#resetDef" x="30" y="36" onmousedown="handleReset()"/>
                <g id="arrowUp" xlink:href="#dirArrow" transform="translate(30 24)" onmousedown="handlePan(0,-1)">
                  <use xlink:href="#rim" fill="#404040">
                        <set attributeName="fill" to="#808080" begin="arrowUp.mouseover" end="arrowUp.mouseout"/>
                  </use>
                  <path fill="none" stroke="white" stroke-width="1.5" d="M0,-3.0v7 M-2.5,-0.5L0,-3.0L2.5,-0.5"/>
                </g>
                <g id="arrowRight" xlink:href="#dirArrow" transform="rotate(90) translate(36 -43)" onmousedown="handlePan(1,0)">
                  <use xlink:href="#rim" fill="#404040">
                        <set attributeName="fill" to="#808080" begin="arrowRight.mouseover" end="arrowRight.mouseout"/>
                  </use>
                  <path fill="none" stroke="white" stroke-width="1.5" d="M0,-3.0v7 M-2.5,-0.5L0,-3.0L2.5,-0.5"/>
                </g>
                <g id="arrowDown" xlink:href="#dirArrow" transform="rotate(180) translate(-30 -48)" onmousedown="handlePan(0,1)">
                  <use xlink:href="#rim" fill="#404040">
                        <set attributeName="fill" to="#808080" begin="arrowDown.mouseover" end="arrowDown.mouseout"/>
                  </use>
                  <path fill="none" stroke="white" stroke-width="1.5" d="M0,-3.0v7 M-2.5,-0.5L0,-3.0L2.5,-0.5"/>
                </g>
                <g id="arrowLeft" xlink:href="#dirArrow" transform="rotate(270) translate(-36 17)" onmousedown="handlePan(-1,0)">
                  <use xlink:href="#rim" fill="#404040">
                        <set attributeName="fill" to="#808080" begin="arrowLeft.mouseover" end="arrowLeft.mouseout"/>
                  </use>
                  <path fill="none" stroke="white" stroke-width="1.5" d="M0,-3.0v7 M-2.5,-0.5L0,-3.0L2.5,-0.5"/>
                </g>
        </g>
        <svg viewBox="0 0 15 15" width="100%" height="30px" preserveAspectRatio="xMaxYMin meet">
         <g id="arrow_out" transform="scale(0.3 0.3)">
          <a xlink:href="Maxima_8h__incl_org.svg" target="_base">
           <rect id="button" ry="5" rx="5" y="6" x="6" height="38" width="38"
                fill="#f2f5e9" fill-opacity="0.5" stroke="#606060" stroke-width="1.0"/>
           <path id="arrow"
             d="M 11.500037,31.436501 C 11.940474,20.09759 22.043105,11.32322 32.158766,21.979434 L 37.068811,17.246167 C 37.068811,17.246167 37.088388,32 37.088388,32 L 22.160133,31.978069 C 22.160133,31.978069 26.997745,27.140456 26.997745,27.140456 C 18.528582,18.264221 13.291696,25.230495 11.500037,31.436501 z"
             style="fill:#404040;"/>
          </a>
         </g>
        </svg>
</svg>
