<?xml version="1.0" encoding="UTF-8" standalone="no"?>
<!DOCTYPE svg PUBLIC "-//W3C//DTD SVG 1.1//EN"
 "http://www.w3.org/Graphics/SVG/1.1/DTD/svg11.dtd">
<!-- Generated by graphviz version 2.43.0 (0)
 -->
<!-- Title: src/MaximaManual.h Pages: 1 -->
<svg width="1430pt" height="379pt"
 viewBox="0.00 0.00 1430.32 379.00" xmlns="http://www.w3.org/2000/svg" xmlns:xlink="http://www.w3.org/1999/xlink">
<g id="graph0" class="graph" transform="scale(1 1) rotate(0) translate(4 375)">
<title>src/MaximaManual.h</title>
<!-- Node1 -->
<g id="node1" class="node">
<title>Node1</title>
<g id="a_node1"><a xlink:title="This file declares the class MaximaManual.">
<polygon fill="#999999" stroke="#666666" points="353.5,-371 234.5,-371 234.5,-352 353.5,-352 353.5,-371"/>
<text text-anchor="middle" x="294" y="-359" font-family="Helvetica,sans-Serif" font-size="10.00">src/MaximaManual.h</text>
</a>
</g>
</g>
<!-- Node2 -->
<g id="node2" class="node">
<title>Node2</title>
<g id="a_node2"><a xlink:href="MaximaManual_8cpp.html" target="_top" xlink:title="This file defines the class MaximaManual.">
<polygon fill="white" stroke="#666666" points="328,-19 198,-19 198,0 328,0 328,-19"/>
<text text-anchor="middle" x="263" y="-7" font-family="Helvetica,sans-Serif" font-size="10.00">src/MaximaManual.cpp</text>
</a>
</g>
</g>
<!-- Node1&#45;&gt;Node2 -->
<g id="edge1" class="edge">
<title>Node1&#45;&gt;Node2</title>
<path fill="none" stroke="#63b8ff" d="M234.9,-350.09C149.06,-333.26 0,-296.87 0,-247 0,-247 0,-247 0,-118.5 0,-33.11 120.11,-13.81 197.99,-10.27"/>
<polygon fill="#63b8ff" stroke="#63b8ff" points="234.31,-353.54 244.79,-352 235.63,-346.67 234.31,-353.54"/>
</g>
<!-- Node3 -->
<g id="node3" class="node">
<title>Node3</title>
<g id="a_node3"><a xlink:href="Worksheet_8h.html" target="_top" xlink:title="This file defines the class Worksheet.">
<polygon fill="white" stroke="#666666" points="947.5,-255.5 852.5,-255.5 852.5,-236.5 947.5,-236.5 947.5,-255.5"/>
<text text-anchor="middle" x="900" y="-243.5" font-family="Helvetica,sans-Serif" font-size="10.00">src/Worksheet.h</text>
</a>
</g>
</g>
<!-- Node1&#45;&gt;Node3 -->
<g id="edge2" class="edge">
<title>Node1&#45;&gt;Node3</title>
<path fill="none" stroke="#63b8ff" d="M349.52,-350.1C468.26,-327.86 744.96,-276.04 854.34,-255.55"/>
<polygon fill="#63b8ff" stroke="#63b8ff" points="348.73,-346.69 339.55,-351.97 350.02,-353.57 348.73,-346.69"/>
</g>
<!-- Node21 -->
<g id="node21" class="node">
<title>Node21</title>
<g id="a_node21"><a xlink:href="HelpBrowser_8h.html" target="_top" xlink:title="This file declares the class HelpBrowser.">
<polygon fill="white" stroke="#666666" points="285.5,-316 136.5,-316 136.5,-297 285.5,-297 285.5,-316"/>
<text text-anchor="middle" x="211" y="-304" font-family="Helvetica,sans-Serif" font-size="10.00">src/sidebars/HelpBrowser.h</text>
</a>
</g>
</g>
<!-- Node1&#45;&gt;Node21 -->
<g id="edge31" class="edge">
<title>Node1&#45;&gt;Node21</title>
<path fill="none" stroke="#63b8ff" d="M271.96,-346.42C256.89,-336.81 237.41,-324.37 224.58,-316.17"/>
<polygon fill="#63b8ff" stroke="#63b8ff" points="270.35,-349.55 280.66,-351.98 274.12,-343.65 270.35,-349.55"/>
</g>
<!-- Node23 -->
<g id="node23" class="node">
<title>Node23</title>
<g id="a_node23"><a xlink:href="GenWizPanel_8h_source.html" target="_top" xlink:title=" ">
<polygon fill="white" stroke="#666666" points="450.5,-316 303.5,-316 303.5,-297 450.5,-297 450.5,-316"/>
<text text-anchor="middle" x="377" y="-304" font-family="Helvetica,sans-Serif" font-size="10.00">src/wizards/GenWizPanel.h</text>
</a>
</g>
</g>
<!-- Node1&#45;&gt;Node23 -->
<g id="edge34" class="edge">
<title>Node1&#45;&gt;Node23</title>
<path fill="none" stroke="#63b8ff" d="M316.04,-346.42C331.11,-336.81 350.59,-324.37 363.42,-316.17"/>
<polygon fill="#63b8ff" stroke="#63b8ff" points="313.88,-343.65 307.34,-351.98 317.65,-349.55 313.88,-343.65"/>
</g>
<!-- Node4 -->
<g id="node4" class="node">
<title>Node4</title>
<g id="a_node4"><a xlink:href="Worksheet_8cpp.html" target="_top" xlink:title="This file defines the class Worksheet.">
<polygon fill="white" stroke="#666666" points="834,-74 728,-74 728,-55 834,-55 834,-74"/>
<text text-anchor="middle" x="781" y="-62" font-family="Helvetica,sans-Serif" font-size="10.00">src/Worksheet.cpp</text>
</a>
</g>
</g>
<!-- Node3&#45;&gt;Node4 -->
<g id="edge3" class="edge">
<title>Node3&#45;&gt;Node4</title>
<path fill="none" stroke="#63b8ff" d="M842.6,-236.46C817.77,-229.6 791.02,-217.25 776,-195 768.54,-183.95 775.63,-178.33 776,-165 776.44,-148.98 777.18,-145 778,-129 779.01,-109.38 780.06,-86.34 780.62,-74.13"/>
<polygon fill="#63b8ff" stroke="#63b8ff" points="841.8,-239.86 852.35,-238.91 843.5,-233.07 841.8,-239.86"/>
</g>
<!-- Node5 -->
<g id="node5" class="node">
<title>Node5</title>
<g id="a_node5"><a xlink:href="Cell_8cpp.html" target="_top" xlink:title="Core layout and rendering logic for worksheet cells.">
<polygon fill="white" stroke="#666666" points="883,-189.5 785,-189.5 785,-170.5 883,-170.5 883,-189.5"/>
<text text-anchor="middle" x="834" y="-177.5" font-family="Helvetica,sans-Serif" font-size="10.00">src/cells/Cell.cpp</text>
</a>
</g>
</g>
<!-- Node3&#45;&gt;Node5 -->
<g id="edge4" class="edge">
<title>Node3&#45;&gt;Node5</title>
<path fill="none" stroke="#63b8ff" d="M883.84,-229.33C871.06,-216.94 853.68,-200.09 843.18,-189.91"/>
<polygon fill="#63b8ff" stroke="#63b8ff" points="881.48,-231.92 891.1,-236.37 886.36,-226.89 881.48,-231.92"/>
</g>
<!-- Node6 -->
<g id="node6" class="node">
<title>Node6</title>
<g id="a_node6"><a xlink:href="GroupCell_8cpp.html" target="_top" xlink:title="This file defines the class GroupCell.">
<polygon fill="white" stroke="#666666" points="1029,-189.5 901,-189.5 901,-170.5 1029,-170.5 1029,-189.5"/>
<text text-anchor="middle" x="965" y="-177.5" font-family="Helvetica,sans-Serif" font-size="10.00">src/cells/GroupCell.cpp</text>
</a>
</g>
</g>
<!-- Node3&#45;&gt;Node6 -->
<g id="edge5" class="edge">
<title>Node3&#45;&gt;Node6</title>
<path fill="none" stroke="#63b8ff" d="M915.92,-229.33C928.5,-216.94 945.62,-200.09 955.96,-189.91"/>
<polygon fill="#63b8ff" stroke="#63b8ff" points="913.44,-226.86 908.77,-236.37 918.35,-231.85 913.44,-226.86"/>
</g>
<!-- Node7 -->
<g id="node7" class="node">
<title>Node7</title>
<g id="a_node7"><a xlink:href="ConfigDialogue_8h.html" target="_top" xlink:title="The configuration dialog.">
<polygon fill="white" stroke="#666666" points="1007.5,-74 852.5,-74 852.5,-55 1007.5,-55 1007.5,-74"/>
<text text-anchor="middle" x="930" y="-62" font-family="Helvetica,sans-Serif" font-size="10.00">src/dialogs/ConfigDialogue.h</text>
</a>
</g>
</g>
<!-- Node3&#45;&gt;Node7 -->
<g id="edge6" class="edge">
<title>Node3&#45;&gt;Node7</title>
<path fill="none" stroke="#63b8ff" d="M957.84,-239.45C986.97,-233.39 1019.87,-220.85 1038,-195 1071.87,-146.7 985.51,-94.21 947.21,-74.04"/>
<polygon fill="#63b8ff" stroke="#63b8ff" points="956.91,-236.06 947.72,-241.33 958.19,-242.94 956.91,-236.06"/>
</g>
<!-- Node10 -->
<g id="node10" class="node">
<title>Node10</title>
<g id="a_node10"><a xlink:href="DiffFrame_8h_source.html" target="_top" xlink:title=" ">
<polygon fill="white" stroke="#666666" points="1154.5,-74 1025.5,-74 1025.5,-55 1154.5,-55 1154.5,-74"/>
<text text-anchor="middle" x="1090" y="-62" font-family="Helvetica,sans-Serif" font-size="10.00">src/dialogs/DiffFrame.h</text>
</a>
</g>
</g>
<!-- Node3&#45;&gt;Node10 -->
<g id="edge9" class="edge">
<title>Node3&#45;&gt;Node10</title>
<path fill="none" stroke="#63b8ff" d="M958.02,-243.56C1084.54,-239.81 1376.38,-227.69 1406,-195 1482.23,-110.86 1267.59,-80.14 1154.59,-70"/>
<polygon fill="#63b8ff" stroke="#63b8ff" points="957.64,-240.07 947.75,-243.85 957.84,-247.06 957.64,-240.07"/>
</g>
<!-- Node11 -->
<g id="node11" class="node">
<title>Node11</title>
<g id="a_node11"><a xlink:href="Printout_8cpp.html" target="_top" xlink:title="This file defines the class MathPrintOut.">
<polygon fill="white" stroke="#666666" points="1240.5,-189.5 1085.5,-189.5 1085.5,-170.5 1240.5,-170.5 1240.5,-189.5"/>
<text text-anchor="middle" x="1163" y="-177.5" font-family="Helvetica,sans-Serif" font-size="10.00">src/graphical_io/Printout.cpp</text>
</a>
</g>
</g>
<!-- Node3&#45;&gt;Node11 -->
<g id="edge12" class="edge">
<title>Node3&#45;&gt;Node11</title>
<path fill="none" stroke="#63b8ff" d="M945.11,-234.02C996.94,-221.41 1080.88,-200.98 1128.01,-189.51"/>
<polygon fill="#63b8ff" stroke="#63b8ff" points="944.09,-230.67 935.2,-236.44 945.74,-237.47 944.09,-230.67"/>
</g>
<!-- Node12 -->
<g id="node12" class="node">
<title>Node12</title>
<g id="a_node12"><a xlink:href="wxMaximaFrame_8h.html" target="_top" xlink:title="This file declares the class wxMaximaFrame.">
<polygon fill="white" stroke="#666666" points="530,-189.5 402,-189.5 402,-170.5 530,-170.5 530,-189.5"/>
<text text-anchor="middle" x="466" y="-177.5" font-family="Helvetica,sans-Serif" font-size="10.00">src/wxMaximaFrame.h</text>
</a>
</g>
</g>
<!-- Node3&#45;&gt;Node12 -->
<g id="edge13" class="edge">
<title>Node3&#45;&gt;Node12</title>
<path fill="none" stroke="#63b8ff" d="M842.29,-236.49C759.22,-224.24 606.81,-201.76 523.73,-189.51"/>
<polygon fill="#63b8ff" stroke="#63b8ff" points="841.91,-239.97 852.31,-237.97 842.93,-233.05 841.91,-239.97"/>
</g>
<!-- Node19 -->
<g id="node19" class="node">
<title>Node19</title>
<g id="a_node19"><a xlink:href="test__EditorCellInvariants_8cpp.html" target="_top" xlink:title="Hardening tests for EditorCell&#39;s text&#45;editing core.">
<polygon fill="white" stroke="#666666" points="1397,-195 1259,-195 1259,-165 1397,-165 1397,-195"/>
<text text-anchor="start" x="1267" y="-183" font-family="Helvetica,sans-Serif" font-size="10.00">test/unit_tests/test</text>
<text text-anchor="middle" x="1328" y="-172" font-family="Helvetica,sans-Serif" font-size="10.00">_EditorCellInvariants.cpp</text>
</a>
</g>
</g>
<!-- Node3&#45;&gt;Node19 -->
<g id="edge29" class="edge">
<title>Node3&#45;&gt;Node19</title>
<path fill="none" stroke="#63b8ff" d="M957.93,-237.37C1027.42,-228.07 1147.4,-211.53 1250,-195 1252.85,-194.54 1255.76,-194.06 1258.7,-193.57"/>
<polygon fill="#63b8ff" stroke="#63b8ff" points="957.08,-233.95 947.64,-238.74 958.01,-240.89 957.08,-233.95"/>
</g>
<!-- Node20 -->
<g id="node20" class="node">
<title>Node20</title>
<g id="a_node20"><a xlink:href="test__GroupCellLayout_8cpp.html" target="_top" xlink:title="Regression tests for the GroupCell &lt;&#45;&gt; EditorCell layout coupling.">
<polygon fill="white" stroke="#666666" points="728.5,-195 605.5,-195 605.5,-165 728.5,-165 728.5,-195"/>
<text text-anchor="start" x="613.5" y="-183" font-family="Helvetica,sans-Serif" font-size="10.00">test/unit_tests/test</text>
<text text-anchor="middle" x="667" y="-172" font-family="Helvetica,sans-Serif" font-size="10.00">_GroupCellLayout.cpp</text>
</a>
</g>
</g>
<!-- Node3&#45;&gt;Node20 -->
<g id="edge30" class="edge">
<title>Node3&#45;&gt;Node20</title>
<path fill="none" stroke="#63b8ff" d="M858.83,-233.69C819.66,-222.93 760.62,-206.72 718.39,-195.12"/>
<polygon fill="#63b8ff" stroke="#63b8ff" points="858.01,-237.09 868.58,-236.37 859.86,-230.34 858.01,-237.09"/>
</g>
<!-- Node8 -->
<g id="node8" class="node">
<title>Node8</title>
<g id="a_node8"><a xlink:href="main_8cpp.html" target="_top" xlink:title="The file that defines the starting point of the program.">
<polygon fill="white" stroke="#666666" points="891.5,-19 812.5,-19 812.5,0 891.5,0 891.5,-19"/>
<text text-anchor="middle" x="852" y="-7" font-family="Helvetica,sans-Serif" font-size="10.00">src/main.cpp</text>
</a>
</g>
</g>
<!-- Node7&#45;&gt;Node8 -->
<g id="edge7" class="edge">
<title>Node7&#45;&gt;Node8</title>
<path fill="none" stroke="#63b8ff" d="M908.88,-49.15C894.79,-39.57 876.71,-27.29 864.76,-19.17"/>
<polygon fill="#63b8ff" stroke="#63b8ff" points="907.23,-52.26 917.47,-54.98 911.16,-46.47 907.23,-52.26"/>
</g>
<!-- Node9 -->
<g id="node9" class="node">
<title>Node9</title>
<g id="a_node9"><a xlink:href="wxMaxima_8cpp.html" target="_top" xlink:title="This file defines the contents of the class wxMaxima that contains most of the program&#39;s logic.">
<polygon fill="white" stroke="#666666" points="716,-19 608,-19 608,0 716,0 716,-19"/>
<text text-anchor="middle" x="662" y="-7" font-family="Helvetica,sans-Serif" font-size="10.00">src/wxMaxima.cpp</text>
</a>
</g>
</g>
<!-- Node7&#45;&gt;Node9 -->
<g id="edge8" class="edge">
<title>Node7&#45;&gt;Node9</title>
<path fill="none" stroke="#63b8ff" d="M876.92,-53C826.68,-43.07 752.18,-28.33 705.4,-19.08"/>
<polygon fill="#63b8ff" stroke="#63b8ff" points="876.45,-56.48 886.94,-54.98 877.81,-49.61 876.45,-56.48"/>
</g>
<!-- Node10&#45;&gt;Node8 -->
<g id="edge10" class="edge">
<title>Node10&#45;&gt;Node8</title>
<path fill="none" stroke="#63b8ff" d="M1041.74,-52.75C997.14,-42.82 931.74,-28.26 890.54,-19.08"/>
<polygon fill="#63b8ff" stroke="#63b8ff" points="1041.24,-56.23 1051.76,-54.98 1042.76,-49.39 1041.24,-56.23"/>
</g>
<!-- Node10&#45;&gt;Node9 -->
<g id="edge11" class="edge">
<title>Node10&#45;&gt;Node9</title>
<path fill="none" stroke="#63b8ff" d="M1015.31,-54.25C929.85,-43.67 791.97,-26.59 716.2,-17.21"/>
<polygon fill="#63b8ff" stroke="#63b8ff" points="1015.11,-57.75 1025.46,-55.51 1015.97,-50.81 1015.11,-57.75"/>
</g>
<!-- Node12&#45;&gt;Node4 -->
<g id="edge15" class="edge">
<title>Node12&#45;&gt;Node4</title>
<path fill="none" stroke="#63b8ff" d="M540.23,-170.12C620.86,-159.87 740.43,-142.67 757,-129 773.91,-115.05 778.92,-87.85 780.39,-74.02"/>
<polygon fill="#63b8ff" stroke="#63b8ff" points="539.6,-166.67 530.11,-171.39 540.47,-173.62 539.6,-166.67"/>
</g>
<!-- Node13 -->
<g id="node13" class="node">
<title>Node13</title>
<g id="a_node13"><a xlink:href="AutocompletePopup_8cpp.html" target="_top" xlink:title="This file defines the class AutocompletePopup.">
<polygon fill="white" stroke="#666666" points="218,-129 66,-129 66,-110 218,-110 218,-129"/>
<text text-anchor="middle" x="142" y="-117" font-family="Helvetica,sans-Serif" font-size="10.00">src/AutocompletePopup.cpp</text>
</a>
</g>
</g>
<!-- Node12&#45;&gt;Node13 -->
<g id="edge14" class="edge">
<title>Node12&#45;&gt;Node13</title>
<path fill="none" stroke="#63b8ff" d="M408.8,-168.67C346.32,-157.39 247.38,-139.53 189.17,-129.02"/>
<polygon fill="#63b8ff" stroke="#63b8ff" points="408.42,-172.16 418.89,-170.49 409.67,-165.27 408.42,-172.16"/>
</g>
<!-- Node14 -->
<g id="node14" class="node">
<title>Node14</title>
<g id="a_node14"><a xlink:href="EditorCell_8cpp.html" target="_top" xlink:title="This file defines the class EditorCell.">
<polygon fill="white" stroke="#666666" points="428.5,-74 301.5,-74 301.5,-55 428.5,-55 428.5,-74"/>
<text text-anchor="middle" x="365" y="-62" font-family="Helvetica,sans-Serif" font-size="10.00">src/cells/EditorCell.cpp</text>
</a>
</g>
</g>
<!-- Node12&#45;&gt;Node14 -->
<g id="edge16" class="edge">
<title>Node12&#45;&gt;Node14</title>
<path fill="none" stroke="#63b8ff" d="M391.81,-170.13C341.27,-162.39 280.78,-149.19 265,-129 244.29,-102.51 290.82,-83.95 327.16,-74"/>
<polygon fill="#63b8ff" stroke="#63b8ff" points="391.36,-173.61 401.77,-171.61 392.39,-166.68 391.36,-173.61"/>
</g>
<!-- Node15 -->
<g id="node15" class="node">
<title>Node15</title>
<g id="a_node15"><a xlink:href="main_8h.html" target="_top" xlink:title="This file declares the class wxMaxima that contains most of the program&#39;s logic.">
<polygon fill="white" stroke="#666666" points="634,-74 566,-74 566,-55 634,-55 634,-74"/>
<text text-anchor="middle" x="600" y="-62" font-family="Helvetica,sans-Serif" font-size="10.00">src/main.h</text>
</a>
</g>
</g>
<!-- Node12&#45;&gt;Node15 -->
<g id="edge17" class="edge">
<title>Node12&#45;&gt;Node15</title>
<path fill="none" stroke="#63b8ff" d="M466.7,-159.87C468.23,-144.63 472.65,-123.66 485,-110 505.89,-86.9 540.18,-75.68 565.9,-70.3"/>
<polygon fill="#63b8ff" stroke="#63b8ff" points="463.18,-159.98 466.01,-170.19 470.17,-160.45 463.18,-159.98"/>
</g>
<!-- Node16 -->
<g id="node16" class="node">
<title>Node16</title>
<g id="a_node16"><a xlink:href="GreekSidebar_8cpp.html" target="_top" xlink:title="This file defines the class GreekSidebar.">
<polygon fill="white" stroke="#666666" points="438,-129 274,-129 274,-110 438,-110 438,-129"/>
<text text-anchor="middle" x="356" y="-117" font-family="Helvetica,sans-Serif" font-size="10.00">src/sidebars/GreekSidebar.cpp</text>
</a>
</g>
</g>
<!-- Node12&#45;&gt;Node16 -->
<g id="edge21" class="edge">
<title>Node12&#45;&gt;Node16</title>
<path fill="none" stroke="#63b8ff" d="M440.76,-165.58C419.72,-154.38 390.36,-138.77 372.3,-129.17"/>
<polygon fill="#63b8ff" stroke="#63b8ff" points="439.3,-168.76 449.77,-170.37 442.58,-162.58 439.3,-168.76"/>
</g>
<!-- Node17 -->
<g id="node17" class="node">
<title>Node17</title>
<g id="a_node17"><a xlink:href="wxMaxima_8h.html" target="_top" xlink:title="This file declares the class wxMaxima that contains most of the program&#39;s logic.">
<polygon fill="white" stroke="#666666" points="748.5,-129 651.5,-129 651.5,-110 748.5,-110 748.5,-129"/>
<text text-anchor="middle" x="700" y="-117" font-family="Helvetica,sans-Serif" font-size="10.00">src/wxMaxima.h</text>
</a>
</g>
</g>
<!-- Node12&#45;&gt;Node17 -->
<g id="edge22" class="edge">
<title>Node12&#45;&gt;Node17</title>
<path fill="none" stroke="#63b8ff" d="M509.85,-168.04C555.08,-156.73 624.67,-139.33 665.93,-129.02"/>
<polygon fill="#63b8ff" stroke="#63b8ff" points="508.88,-164.67 500.03,-170.49 510.58,-171.46 508.88,-164.67"/>
</g>
<!-- Node18 -->
<g id="node18" class="node">
<title>Node18</title>
<g id="a_node18"><a xlink:href="wxMaximaFrame_8cpp.html" target="_top" xlink:title="This file defines the class wxMaximaFrame.">
<polygon fill="white" stroke="#666666" points="633.5,-129 494.5,-129 494.5,-110 633.5,-110 633.5,-129"/>
<text text-anchor="middle" x="564" y="-117" font-family="Helvetica,sans-Serif" font-size="10.00">src/wxMaximaFrame.cpp</text>
</a>
</g>
</g>
<!-- Node12&#45;&gt;Node18 -->
<g id="edge28" class="edge">
<title>Node12&#45;&gt;Node18</title>
<path fill="none" stroke="#63b8ff" d="M489.25,-165.12C507.94,-153.96 533.61,-138.64 549.48,-129.17"/>
<polygon fill="#63b8ff" stroke="#63b8ff" points="487.25,-162.24 480.46,-170.37 490.84,-168.25 487.25,-162.24"/>
</g>
<!-- Node15&#45;&gt;Node2 -->
<g id="edge18" class="edge">
<title>Node15&#45;&gt;Node2</title>
<path fill="none" stroke="#63b8ff" d="M555.69,-56.53C494.29,-46.87 383.42,-29.44 317.18,-19.02"/>
<polygon fill="#63b8ff" stroke="#63b8ff" points="555.41,-60.03 565.83,-58.13 556.5,-53.12 555.41,-60.03"/>
</g>
<!-- Node15&#45;&gt;Node8 -->
<g id="edge19" class="edge">
<title>Node15&#45;&gt;Node8</title>
<path fill="none" stroke="#63b8ff" d="M644.26,-54.19C691.83,-44.19 766.76,-28.43 812.43,-18.82"/>
<polygon fill="#63b8ff" stroke="#63b8ff" points="643.31,-50.81 634.25,-56.3 644.75,-57.66 643.31,-50.81"/>
</g>
<!-- Node15&#45;&gt;Node9 -->
<g id="edge20" class="edge">
<title>Node15&#45;&gt;Node9</title>
<path fill="none" stroke="#63b8ff" d="M617.75,-48.32C628.81,-38.87 642.63,-27.06 651.86,-19.17"/>
<polygon fill="#63b8ff" stroke="#63b8ff" points="615.29,-45.83 609.96,-54.98 619.84,-51.15 615.29,-45.83"/>
</g>
<!-- Node17&#45;&gt;Node4 -->
<g id="edge23" class="edge">
<title>Node17&#45;&gt;Node4</title>
<path fill="none" stroke="#63b8ff" d="M721.51,-104.42C736.21,-94.81 755.22,-82.37 767.75,-74.17"/>
<polygon fill="#63b8ff" stroke="#63b8ff" points="719.47,-101.58 713.01,-109.98 723.3,-107.44 719.47,-101.58"/>
</g>
<!-- Node17&#45;&gt;Node8 -->
<g id="edge25" class="edge">
<title>Node17&#45;&gt;Node8</title>
<path fill="none" stroke="#63b8ff" d="M701.07,-99.85C702.83,-85.81 707.38,-67 719,-55 743.48,-29.72 782.7,-18.8 812.22,-14.09"/>
<polygon fill="#63b8ff" stroke="#63b8ff" points="697.57,-99.59 700.17,-109.87 704.55,-100.22 697.57,-99.59"/>
</g>
<!-- Node17&#45;&gt;Node9 -->
<g id="edge27" class="edge">
<title>Node17&#45;&gt;Node9</title>
<path fill="none" stroke="#63b8ff" d="M693.53,-100.12C685.24,-76.56 671.2,-36.66 665.05,-19.16"/>
<polygon fill="#63b8ff" stroke="#63b8ff" points="690.27,-101.39 696.89,-109.66 696.87,-99.07 690.27,-101.39"/>
</g>
<!-- Node17&#45;&gt;Node14 -->
<g id="edge24" class="edge">
<title>Node17&#45;&gt;Node14</title>
<path fill="none" stroke="#63b8ff" d="M641.14,-109.19C578.3,-99.25 479.58,-83.63 418.76,-74.01"/>
<polygon fill="#63b8ff" stroke="#63b8ff" points="640.86,-112.69 651.29,-110.79 641.96,-105.77 640.86,-112.69"/>
</g>
<!-- Node17&#45;&gt;Node15 -->
<g id="edge26" class="edge">
<title>Node17&#45;&gt;Node15</title>
<path fill="none" stroke="#63b8ff" d="M674.97,-105.23C656.63,-95.51 632.26,-82.6 616.36,-74.17"/>
<polygon fill="#63b8ff" stroke="#63b8ff" points="673.46,-108.39 683.93,-109.98 676.74,-102.21 673.46,-108.39"/>
</g>
<!-- Node21&#45;&gt;Node12 -->
<g id="edge33" class="edge">
<title>Node21&#45;&gt;Node12</title>
<path fill="none" stroke="#63b8ff" d="M259.37,-294.43C286.87,-287.07 321.42,-275.98 350,-261 369.37,-250.85 371.15,-243.63 389,-231 410.6,-215.72 436.56,-199.23 452.15,-189.53"/>
<polygon fill="#63b8ff" stroke="#63b8ff" points="258.38,-291.07 249.58,-296.98 260.14,-297.85 258.38,-291.07"/>
</g>
<!-- Node22 -->
<g id="node22" class="node">
<title>Node22</title>
<g id="a_node22"><a xlink:href="HelpBrowser_8cpp.html" target="_top" xlink:title="This file defines the class HelpBrowser.">
<polygon fill="white" stroke="#666666" points="202,-255.5 42,-255.5 42,-236.5 202,-236.5 202,-255.5"/>
<text text-anchor="middle" x="122" y="-243.5" font-family="Helvetica,sans-Serif" font-size="10.00">src/sidebars/HelpBrowser.cpp</text>
</a>
</g>
</g>
<!-- Node21&#45;&gt;Node22 -->
<g id="edge32" class="edge">
<title>Node21&#45;&gt;Node22</title>
<path fill="none" stroke="#63b8ff" d="M189.18,-291.16C172.27,-280.05 149.41,-265.01 135.19,-255.67"/>
<polygon fill="#63b8ff" stroke="#63b8ff" points="187.59,-294.3 197.87,-296.87 191.43,-288.45 187.59,-294.3"/>
</g>
<!-- Node24 -->
<g id="node24" class="node">
<title>Node24</title>
<g id="a_node24"><a xlink:href="GenWiz_8h_source.html" target="_top" xlink:title=" ">
<polygon fill="white" stroke="#666666" points="341.5,-255.5 220.5,-255.5 220.5,-236.5 341.5,-236.5 341.5,-255.5"/>
<text text-anchor="middle" x="281" y="-243.5" font-family="Helvetica,sans-Serif" font-size="10.00">src/wizards/GenWiz.h</text>
</a>
</g>
</g>
<!-- Node23&#45;&gt;Node24 -->
<g id="edge35" class="edge">
<title>Node23&#45;&gt;Node24</title>
<path fill="none" stroke="#63b8ff" d="M354.22,-291.62C335.92,-280.46 310.77,-265.14 295.22,-255.67"/>
<polygon fill="#63b8ff" stroke="#63b8ff" points="352.47,-294.65 362.83,-296.87 356.12,-288.68 352.47,-294.65"/>
</g>
<!-- Node25 -->
<g id="node25" class="node">
<title>Node25</title>
<g id="a_node25"><a xlink:href="ScrollingGenWizPanel_8h_source.html" target="_top" xlink:title=" ">
<polygon fill="white" stroke="#666666" points="534,-261 398,-261 398,-231 534,-231 534,-261"/>
<text text-anchor="start" x="406" y="-249" font-family="Helvetica,sans-Serif" font-size="10.00">src/wizards/ScrollingGen</text>
<text text-anchor="middle" x="466" y="-238" font-family="Helvetica,sans-Serif" font-size="10.00">WizPanel.h</text>
</a>
</g>
</g>
<!-- Node23&#45;&gt;Node25 -->
<g id="edge37" class="edge">
<title>Node23&#45;&gt;Node25</title>
<path fill="none" stroke="#63b8ff" d="M398.61,-291.29C412.55,-282.13 430.61,-270.26 444.53,-261.11"/>
<polygon fill="#63b8ff" stroke="#63b8ff" points="396.57,-288.45 390.13,-296.87 400.41,-294.3 396.57,-288.45"/>
</g>
<!-- Node24&#45;&gt;Node9 -->
<g id="edge36" class="edge">
<title>Node24&#45;&gt;Node9</title>
<path fill="none" stroke="#63b8ff" d="M247.68,-232.87C178.72,-206.87 29.03,-145.27 57,-110 124.79,-24.51 471.97,-12.13 607.6,-10.59"/>
<polygon fill="#63b8ff" stroke="#63b8ff" points="246.64,-236.22 257.23,-236.44 249.09,-229.67 246.64,-236.22"/>
</g>
<!-- Node25&#45;&gt;Node12 -->
<g id="edge38" class="edge">
<title>Node25&#45;&gt;Node12</title>
<path fill="none" stroke="#63b8ff" d="M466,-220.6C466,-209.8 466,-197.78 466,-189.84"/>
<polygon fill="#63b8ff" stroke="#63b8ff" points="462.5,-220.8 466,-230.8 469.5,-220.8 462.5,-220.8"/>
</g>
</g>
</svg>
