<?xml version="1.0" encoding="UTF-8" standalone="no"?>
<!DOCTYPE svg PUBLIC "-//W3C//DTD SVG 1.1//EN"
 "http://www.w3.org/Graphics/SVG/1.1/DTD/svg11.dtd">
<!-- Generated by graphviz version 2.43.0 (0)
 -->
<!-- Title: src/Notification.h Pages: 1 -->
<!--zoomable 313 -->
<svg id="main" version="1.1" xmlns="http://www.w3.org/2000/svg" xmlns:xlink="http://www.w3.org/1999/xlink" xml:space="preserve" onload="init(evt)">
<style type="text/css"><![CDATA[
.edge:hover path { stroke: red; }
.edge:hover polygon { stroke: red; fill: red; }
]]></style>
<script type="text/javascript"><![CDATA[
var edges = document.getElementsByTagName('g');
if (edges && edges.length) {
  for (var i=0;i<edges.length;i++) {
    if (edges[i].id.substr(0,4)=='edge') {
      edges[i].setAttribute('class','edge');
    }
  }
}
]]></script>
        <defs>
                <circle id="rim" cx="0" cy="0" r="7"/>
                <circle id="rim2" cx="0" cy="0" r="3.5"/>
                <g id="zoomPlus">
                        <use xlink:href="#rim" fill="#404040">
                                <set attributeName="fill" to="#808080" begin="zoomplus.mouseover" end="zoomplus.mouseout"/>
                        </use>
                        <path d="M-4,0h8M0,-4v8" fill="none" stroke="white" stroke-width="1.5" pointer-events="none"/>
                </g>
                <g id="zoomMin">
                        <use xlink:href="#rim" fill="#404040">
                                <set attributeName="fill" to="#808080" begin="zoomminus.mouseover" end="zoomminus.mouseout"/>
                        </use>
                        <path d="M-4,0h8" fill="none" stroke="white" stroke-width="1.5" pointer-events="none"/>
                </g>
                <g id="dirArrow">
                        <path fill="none" stroke="white" stroke-width="1.5" d="M0,-3.0v7 M-2.5,-0.5L0,-3.0L2.5,-0.5"/>
                </g>
               <g id="resetDef">
                       <use xlink:href="#rim2" fill="#404040">
                               <set attributeName="fill" to="#808080" begin="reset.mouseover" end="reset.mouseout"/>
                       </use>
               </g>
        </defs>

<script type="text/javascript">
var viewWidth = 2151;
var viewHeight = 313;
var sectionId = 'dynsection-1';
</script>
<script xlink:href="svgpan.js"/>
<svg id="graph" class="graph">
<g id="viewport">
<title>src/Notification.h</title>
<!-- Node1 -->
<g id="node1" class="node">
<title>Node1</title>
<g id="a_node1"><a xlink:title="This file defines the class Notification.">
<polygon fill="#999999" stroke="#666666" points="916.64,-305 817.64,-305 817.64,-286 916.64,-286 916.64,-305"/>
<text text-anchor="middle" x="867.14" y="-293" font-family="Helvetica,sans-Serif" font-size="10.00">src/Notification.h</text>
</a>
</g>
</g>
<!-- Node2 -->
<g id="node2" class="node">
<title>Node2</title>
<g id="a_node2"><a xlink:href="Notification_8cpp.html" target="_top" xlink:title="This file defines the class Notification.">
<polygon fill="white" stroke="#666666" points="862.14,-250 752.14,-250 752.14,-231 862.14,-231 862.14,-250"/>
<text text-anchor="middle" x="807.14" y="-238" font-family="Helvetica,sans-Serif" font-size="10.00">src/Notification.cpp</text>
</a>
</g>
</g>
<!-- Node1&#45;&gt;Node2 -->
<g id="edge1" class="edge">
<title>Node1&#45;&gt;Node2</title>
<path fill="none" stroke="#63b8ff" d="M849.96,-279.32C839.26,-269.87 825.88,-258.06 816.96,-250.17"/>
<polygon fill="#63b8ff" stroke="#63b8ff" points="847.69,-281.99 857.5,-285.98 852.32,-276.74 847.69,-281.99"/>
</g>
<!-- Node3 -->
<g id="node3" class="node">
<title>Node3</title>
<g id="a_node3"><a xlink:href="Worksheet_8h.html" target="_top" xlink:title="This file defines the class Worksheet.">
<polygon fill="white" stroke="#666666" points="975.64,-250 880.64,-250 880.64,-231 975.64,-231 975.64,-250"/>
<text text-anchor="middle" x="928.14" y="-238" font-family="Helvetica,sans-Serif" font-size="10.00">src/Worksheet.h</text>
</a>
</g>
</g>
<!-- Node1&#45;&gt;Node3 -->
<g id="edge2" class="edge">
<title>Node1&#45;&gt;Node3</title>
<path fill="none" stroke="#63b8ff" d="M884.61,-279.32C895.48,-269.87 909.08,-258.06 918.16,-250.17"/>
<polygon fill="#63b8ff" stroke="#63b8ff" points="882.19,-276.78 876.94,-285.98 886.79,-282.07 882.19,-276.78"/>
</g>
<!-- Node4 -->
<g id="node4" class="node">
<title>Node4</title>
<g id="a_node4"><a xlink:href="Worksheet_8cpp.html" target="_top" xlink:title="This file defines the class Worksheet.">
<polygon fill="white" stroke="#666666" points="695.14,-74 589.14,-74 589.14,-55 695.14,-55 695.14,-74"/>
<text text-anchor="middle" x="642.14" y="-62" font-family="Helvetica,sans-Serif" font-size="10.00">src/Worksheet.cpp</text>
</a>
</g>
</g>
<!-- Node3&#45;&gt;Node4 -->
<g id="edge3" class="edge">
<title>Node3&#45;&gt;Node4</title>
<path fill="none" stroke="#63b8ff" d="M870.48,-231.19C783.35,-223.66 592.72,-247.02 546.14,-195 523.95,-170.22 571.88,-112.52 574.14,-110 588.18,-94.35 608.91,-81.84 623.79,-74.12"/>
<polygon fill="#63b8ff" stroke="#63b8ff" points="870.26,-234.69 880.57,-232.27 871,-227.73 870.26,-234.69"/>
</g>
<!-- Node5 -->
<g id="node5" class="node">
<title>Node5</title>
<g id="a_node5"><a xlink:href="WorksheetContextMenu_8cpp.html" target="_top" xlink:title="The worksheet&#39;s right&#45;click context menu (see WorksheetContextMenu.h).">
<polygon fill="white" stroke="#666666" points="197.64,-189.5 26.64,-189.5 26.64,-170.5 197.64,-170.5 197.64,-189.5"/>
<text text-anchor="middle" x="112.14" y="-177.5" font-family="Helvetica,sans-Serif" font-size="10.00">src/WorksheetContextMenu.cpp</text>
</a>
</g>
</g>
<!-- Node3&#45;&gt;Node5 -->
<g id="edge4" class="edge">
<title>Node3&#45;&gt;Node5</title>
<path fill="none" stroke="#63b8ff" d="M870.46,-231.05C575.37,-201.69 497.9,-224.24 207.14,-195 193.21,-193.6 178.19,-191.61 164.3,-189.57"/>
<polygon fill="#63b8ff" stroke="#63b8ff" points="870.3,-234.55 880.6,-232.07 871,-227.59 870.3,-234.55"/>
</g>
<!-- Node6 -->
<g id="node6" class="node">
<title>Node6</title>
<g id="a_node6"><a xlink:href="Cell_8cpp.html" target="_top" xlink:title="Core layout and rendering logic for worksheet cells.">
<polygon fill="white" stroke="#666666" points="314.14,-189.5 216.14,-189.5 216.14,-170.5 314.14,-170.5 314.14,-189.5"/>
<text text-anchor="middle" x="265.14" y="-177.5" font-family="Helvetica,sans-Serif" font-size="10.00">src/cells/Cell.cpp</text>
</a>
</g>
</g>
<!-- Node3&#45;&gt;Node6 -->
<g id="edge5" class="edge">
<title>Node3&#45;&gt;Node6</title>
<path fill="none" stroke="#63b8ff" d="M870.36,-231.03C626.67,-205.7 561.14,-231.27 323.14,-195 314.33,-193.66 304.9,-191.64 296.25,-189.55"/>
<polygon fill="#63b8ff" stroke="#63b8ff" points="870.28,-234.54 880.59,-232.11 871.02,-227.58 870.28,-234.54"/>
</g>
<!-- Node7 -->
<g id="node7" class="node">
<title>Node7</title>
<g id="a_node7"><a xlink:href="GroupCell_8cpp.html" target="_top" xlink:title="This file defines the class GroupCell.">
<polygon fill="white" stroke="#666666" points="460.14,-189.5 332.14,-189.5 332.14,-170.5 460.14,-170.5 460.14,-189.5"/>
<text text-anchor="middle" x="396.14" y="-177.5" font-family="Helvetica,sans-Serif" font-size="10.00">src/cells/GroupCell.cpp</text>
</a>
</g>
</g>
<!-- Node3&#45;&gt;Node7 -->
<g id="edge6" class="edge">
<title>Node3&#45;&gt;Node7</title>
<path fill="none" stroke="#63b8ff" d="M870.41,-230.99C693.5,-210.24 646.46,-218.23 474.14,-195 462.96,-193.49 450.94,-191.51 439.76,-189.52"/>
<polygon fill="#63b8ff" stroke="#63b8ff" points="870.24,-234.5 880.58,-232.2 871.07,-227.54 870.24,-234.5"/>
</g>
<!-- Node8 -->
<g id="node8" class="node">
<title>Node8</title>
<g id="a_node8"><a xlink:href="ConfigDialogue_8h.html" target="_top" xlink:title="The configuration dialog.">
<polygon fill="white" stroke="#666666" points="570.64,-74 415.64,-74 415.64,-55 570.64,-55 570.64,-74"/>
<text text-anchor="middle" x="493.14" y="-62" font-family="Helvetica,sans-Serif" font-size="10.00">src/dialogs/ConfigDialogue.h</text>
</a>
</g>
</g>
<!-- Node3&#45;&gt;Node8 -->
<g id="edge7" class="edge">
<title>Node3&#45;&gt;Node8</title>
<path fill="none" stroke="#63b8ff" d="M870.51,-231.16C781.66,-222.94 592.2,-240.21 536.14,-195 497.78,-164.07 493.37,-97.91 493.06,-74.19"/>
<polygon fill="#63b8ff" stroke="#63b8ff" points="870.25,-234.65 880.58,-232.26 871.02,-227.69 870.25,-234.65"/>
</g>
<!-- Node11 -->
<g id="node11" class="node">
<title>Node11</title>
<g id="a_node11"><a xlink:href="DiffFrame_8h_source.html" target="_top" xlink:title=" ">
<polygon fill="white" stroke="#666666" points="397.64,-74 268.64,-74 268.64,-55 397.64,-55 397.64,-74"/>
<text text-anchor="middle" x="333.14" y="-62" font-family="Helvetica,sans-Serif" font-size="10.00">src/dialogs/DiffFrame.h</text>
</a>
</g>
</g>
<!-- Node3&#45;&gt;Node11 -->
<g id="edge10" class="edge">
<title>Node3&#45;&gt;Node11</title>
<path fill="none" stroke="#63b8ff" d="M870.43,-231.4C763.09,-226.66 48.69,-227.91 17.14,-195 -61.54,-112.94 154.94,-81.15 268.55,-70.37"/>
<polygon fill="#63b8ff" stroke="#63b8ff" points="870.4,-234.9 880.6,-232.03 870.84,-227.92 870.4,-234.9"/>
</g>
<!-- Node12 -->
<g id="node12" class="node">
<title>Node12</title>
<g id="a_node12"><a xlink:href="Printout_8cpp.html" target="_top" xlink:title="This file defines the class MathPrintOut.">
<polygon fill="white" stroke="#666666" points="709.64,-189.5 554.64,-189.5 554.64,-170.5 709.64,-170.5 709.64,-189.5"/>
<text text-anchor="middle" x="632.14" y="-177.5" font-family="Helvetica,sans-Serif" font-size="10.00">src/graphical_io/Printout.cpp</text>
</a>
</g>
</g>
<!-- Node3&#45;&gt;Node12 -->
<g id="edge13" class="edge">
<title>Node3&#45;&gt;Node12</title>
<path fill="none" stroke="#63b8ff" d="M875.18,-229.03C818.06,-217.74 728.2,-199.98 675.23,-189.52"/>
<polygon fill="#63b8ff" stroke="#63b8ff" points="874.61,-232.49 885.1,-230.99 875.97,-225.62 874.61,-232.49"/>
</g>
<!-- Node13 -->
<g id="node13" class="node">
<title>Node13</title>
<g id="a_node13"><a xlink:href="wxMaximaFrame_8h.html" target="_top" xlink:title="This file declares the class wxMaximaFrame.">
<polygon fill="white" stroke="#666666" points="856.14,-189.5 728.14,-189.5 728.14,-170.5 856.14,-170.5 856.14,-189.5"/>
<text text-anchor="middle" x="792.14" y="-177.5" font-family="Helvetica,sans-Serif" font-size="10.00">src/wxMaximaFrame.h</text>
</a>
</g>
</g>
<!-- Node3&#45;&gt;Node13 -->
<g id="edge14" class="edge">
<title>Node3&#45;&gt;Node13</title>
<path fill="none" stroke="#63b8ff" d="M898.92,-226.93C872.66,-215.64 834.81,-199.36 811.94,-189.52"/>
<polygon fill="#63b8ff" stroke="#63b8ff" points="897.8,-230.26 908.37,-230.99 900.56,-223.83 897.8,-230.26"/>
</g>
<!-- Node21 -->
<g id="node21" class="node">
<title>Node21</title>
<g id="a_node21"><a xlink:href="test__Accessibility_8cpp.html" target="_top" xlink:title="Logic&#45;level regression tests for wxMaxima&#39;s custom wxAccessible classes.">
<polygon fill="white" stroke="#666666" points="982.14,-195 874.14,-195 874.14,-165 982.14,-165 982.14,-195"/>
<text text-anchor="start" x="882.14" y="-183" font-family="Helvetica,sans-Serif" font-size="10.00">test/unit_tests/test</text>
<text text-anchor="middle" x="928.14" y="-172" font-family="Helvetica,sans-Serif" font-size="10.00">_Accessibility.cpp</text>
</a>
</g>
</g>
<!-- Node3&#45;&gt;Node21 -->
<g id="edge30" class="edge">
<title>Node3&#45;&gt;Node21</title>
<path fill="none" stroke="#63b8ff" d="M928.14,-220.65C928.14,-212.36 928.14,-202.78 928.14,-195.11"/>
<polygon fill="#63b8ff" stroke="#63b8ff" points="924.64,-220.87 928.14,-230.87 931.64,-220.87 924.64,-220.87"/>
</g>
<!-- Node22 -->
<g id="node22" class="node">
<title>Node22</title>
<g id="a_node22"><a xlink:href="test__EditorCellInvariants_8cpp.html" target="_top" xlink:title="Hardening tests for EditorCell&#39;s text&#45;editing core.">
<polygon fill="white" stroke="#666666" points="1138.14,-195 1000.14,-195 1000.14,-165 1138.14,-165 1138.14,-195"/>
<text text-anchor="start" x="1008.14" y="-183" font-family="Helvetica,sans-Serif" font-size="10.00">test/unit_tests/test</text>
<text text-anchor="middle" x="1069.14" y="-172" font-family="Helvetica,sans-Serif" font-size="10.00">_EditorCellInvariants.cpp</text>
</a>
</g>
</g>
<!-- Node3&#45;&gt;Node22 -->
<g id="edge31" class="edge">
<title>Node3&#45;&gt;Node22</title>
<path fill="none" stroke="#63b8ff" d="M958.07,-227.08C980.68,-217.7 1011.72,-204.82 1035.24,-195.06"/>
<polygon fill="#63b8ff" stroke="#63b8ff" points="956.54,-223.93 948.64,-230.99 959.22,-230.39 956.54,-223.93"/>
</g>
<!-- Node23 -->
<g id="node23" class="node">
<title>Node23</title>
<g id="a_node23"><a xlink:href="test__GroupCellLayout_8cpp.html" target="_top" xlink:title="Regression tests for the GroupCell &lt;&#45;&gt; EditorCell layout coupling.">
<polygon fill="white" stroke="#666666" points="1279.64,-195 1156.64,-195 1156.64,-165 1279.64,-165 1279.64,-195"/>
<text text-anchor="start" x="1164.64" y="-183" font-family="Helvetica,sans-Serif" font-size="10.00">test/unit_tests/test</text>
<text text-anchor="middle" x="1218.14" y="-172" font-family="Helvetica,sans-Serif" font-size="10.00">_GroupCellLayout.cpp</text>
</a>
</g>
</g>
<!-- Node3&#45;&gt;Node23 -->
<g id="edge32" class="edge">
<title>Node3&#45;&gt;Node23</title>
<path fill="none" stroke="#63b8ff" d="M980.16,-229.01C1029.6,-219.03 1103.98,-204.03 1156.4,-193.45"/>
<polygon fill="#63b8ff" stroke="#63b8ff" points="979.42,-225.59 970.31,-230.99 980.8,-232.45 979.42,-225.59"/>
</g>
<!-- Node24 -->
<g id="node24" class="node">
<title>Node24</title>
<g id="a_node24"><a xlink:href="test__LayoutInvariants_8cpp.html" target="_top" xlink:title="Layout idempotency invariants.">
<polygon fill="white" stroke="#666666" points="1422.14,-195 1298.14,-195 1298.14,-165 1422.14,-165 1422.14,-195"/>
<text text-anchor="start" x="1306.14" y="-183" font-family="Helvetica,sans-Serif" font-size="10.00">test/unit_tests/test</text>
<text text-anchor="middle" x="1360.14" y="-172" font-family="Helvetica,sans-Serif" font-size="10.00">_LayoutInvariants.cpp</text>
</a>
</g>
</g>
<!-- Node3&#45;&gt;Node24 -->
<g id="edge33" class="edge">
<title>Node3&#45;&gt;Node24</title>
<path fill="none" stroke="#63b8ff" d="M986.03,-233.66C1057.49,-226.16 1182.61,-212.05 1289.14,-195 1291.99,-194.54 1294.91,-194.06 1297.85,-193.55"/>
<polygon fill="#63b8ff" stroke="#63b8ff" points="985.47,-230.2 975.89,-234.72 986.2,-237.16 985.47,-230.2"/>
</g>
<!-- Node25 -->
<g id="node25" class="node">
<title>Node25</title>
<g id="a_node25"><a xlink:href="test__TreeUndo_8cpp.html" target="_top" xlink:title="Regression tests for the worksheet&#39;s cell&#45;tree undo/redo (the TreeUndo_* subsystem of Worksheet).">
<polygon fill="white" stroke="#666666" points="1548.14,-195 1440.14,-195 1440.14,-165 1548.14,-165 1548.14,-195"/>
<text text-anchor="start" x="1448.14" y="-183" font-family="Helvetica,sans-Serif" font-size="10.00">test/unit_tests/test</text>
<text text-anchor="middle" x="1494.14" y="-172" font-family="Helvetica,sans-Serif" font-size="10.00">_TreeUndo.cpp</text>
</a>
</g>
</g>
<!-- Node3&#45;&gt;Node25 -->
<g id="edge34" class="edge">
<title>Node3&#45;&gt;Node25</title>
<path fill="none" stroke="#63b8ff" d="M986.04,-236.84C1079.92,-231.97 1271.02,-219.77 1431.14,-195 1434.02,-194.55 1436.96,-194.06 1439.93,-193.52"/>
<polygon fill="#63b8ff" stroke="#63b8ff" points="985.7,-233.35 975.9,-237.35 986.06,-240.34 985.7,-233.35"/>
</g>
<!-- Node26 -->
<g id="node26" class="node">
<title>Node26</title>
<g id="a_node26"><a xlink:href="test__WXMRoundtrip_8cpp.html" target="_top" xlink:title="Regression tests for images surviving the .wxm serialization round&#45;trip.">
<polygon fill="white" stroke="#666666" points="1681.64,-195 1566.64,-195 1566.64,-165 1681.64,-165 1681.64,-195"/>
<text text-anchor="start" x="1574.64" y="-183" font-family="Helvetica,sans-Serif" font-size="10.00">test/unit_tests/test</text>
<text text-anchor="middle" x="1624.14" y="-172" font-family="Helvetica,sans-Serif" font-size="10.00">_WXMRoundtrip.cpp</text>
</a>
</g>
</g>
<!-- Node3&#45;&gt;Node26 -->
<g id="edge35" class="edge">
<title>Node3&#45;&gt;Node26</title>
<path fill="none" stroke="#63b8ff" d="M986.03,-238.02C1097.2,-234.61 1348.11,-224.1 1557.14,-195 1560.2,-194.57 1563.33,-194.09 1566.48,-193.56"/>
<polygon fill="#63b8ff" stroke="#63b8ff" points="985.6,-234.53 975.71,-238.33 985.81,-241.53 985.6,-234.53"/>
</g>
<!-- Node27 -->
<g id="node27" class="node">
<title>Node27</title>
<g id="a_node27"><a xlink:href="test__WXMXRoundtrip_8cpp.html" target="_top" xlink:title="Round&#45;trip tests for the .wxmx content.xml (the MathML&#45;like math format).">
<polygon fill="white" stroke="#666666" points="1822.14,-195 1700.14,-195 1700.14,-165 1822.14,-165 1822.14,-195"/>
<text text-anchor="start" x="1708.14" y="-183" font-family="Helvetica,sans-Serif" font-size="10.00">test/unit_tests/test</text>
<text text-anchor="middle" x="1761.14" y="-172" font-family="Helvetica,sans-Serif" font-size="10.00">_WXMXRoundtrip.cpp</text>
</a>
</g>
</g>
<!-- Node3&#45;&gt;Node27 -->
<g id="edge36" class="edge">
<title>Node3&#45;&gt;Node27</title>
<path fill="none" stroke="#63b8ff" d="M986,-238.87C1113.75,-236.87 1429.36,-228.65 1691.14,-195 1694.09,-194.62 1697.1,-194.19 1700.14,-193.72"/>
<polygon fill="#63b8ff" stroke="#63b8ff" points="985.62,-235.37 975.68,-239.02 985.73,-242.37 985.62,-235.37"/>
</g>
<!-- Node28 -->
<g id="node28" class="node">
<title>Node28</title>
<g id="a_node28"><a xlink:href="test__WorksheetContextMenu_8cpp.html" target="_top" xlink:title="Regression tests for the worksheet&#39;s right&#45;click context menu.">
<polygon fill="white" stroke="#666666" points="1999.64,-195 1840.64,-195 1840.64,-165 1999.64,-165 1999.64,-195"/>
<text text-anchor="start" x="1848.64" y="-183" font-family="Helvetica,sans-Serif" font-size="10.00">test/unit_tests/test</text>
<text text-anchor="middle" x="1920.14" y="-172" font-family="Helvetica,sans-Serif" font-size="10.00">_WorksheetContextMenu.cpp</text>
</a>
</g>
</g>
<!-- Node3&#45;&gt;Node28 -->
<g id="edge37" class="edge">
<title>Node3&#45;&gt;Node28</title>
<path fill="none" stroke="#63b8ff" d="M986.08,-238.79C1129.63,-236.56 1513.17,-227.75 1831.14,-195 1834.25,-194.68 1837.42,-194.32 1840.62,-193.94"/>
<polygon fill="#63b8ff" stroke="#63b8ff" points="985.71,-235.29 975.76,-238.94 985.81,-242.29 985.71,-235.29"/>
</g>
<!-- Node29 -->
<g id="node29" class="node">
<title>Node29</title>
<g id="a_node29"><a xlink:href="test__WorksheetExport_8cpp.html" target="_top" xlink:title="Safety net for the export/serialization cluster of Worksheet.">
<polygon fill="white" stroke="#666666" points="2142.64,-195 2017.64,-195 2017.64,-165 2142.64,-165 2142.64,-195"/>
<text text-anchor="start" x="2025.64" y="-183" font-family="Helvetica,sans-Serif" font-size="10.00">test/unit_tests/test</text>
<text text-anchor="middle" x="2080.14" y="-172" font-family="Helvetica,sans-Serif" font-size="10.00">_WorksheetExport.cpp</text>
</a>
</g>
</g>
<!-- Node3&#45;&gt;Node29 -->
<g id="edge38" class="edge">
<title>Node3&#45;&gt;Node29</title>
<path fill="none" stroke="#63b8ff" d="M985.94,-238.29C1180.13,-234.05 1808.25,-218.8 2009.14,-195 2011.89,-194.67 2014.68,-194.3 2017.5,-193.89"/>
<polygon fill="#63b8ff" stroke="#63b8ff" points="985.86,-234.79 975.93,-238.51 986.01,-241.79 985.86,-234.79"/>
</g>
<!-- Node9 -->
<g id="node9" class="node">
<title>Node9</title>
<g id="a_node9"><a xlink:href="main_8cpp.html" target="_top" xlink:title="The file that defines the starting point of the program.">
<polygon fill="white" stroke="#666666" points="715.64,-19 636.64,-19 636.64,0 715.64,0 715.64,-19"/>
<text text-anchor="middle" x="676.14" y="-7" font-family="Helvetica,sans-Serif" font-size="10.00">src/main.cpp</text>
</a>
</g>
</g>
<!-- Node8&#45;&gt;Node9 -->
<g id="edge8" class="edge">
<title>Node8&#45;&gt;Node9</title>
<path fill="none" stroke="#63b8ff" d="M532.21,-52.18C566.44,-42.27 615.43,-28.08 646.51,-19.08"/>
<polygon fill="#63b8ff" stroke="#63b8ff" points="531.17,-48.84 522.54,-54.98 533.12,-55.56 531.17,-48.84"/>
</g>
<!-- Node10 -->
<g id="node10" class="node">
<title>Node10</title>
<g id="a_node10"><a xlink:href="wxMaxima_8cpp.html" target="_top" xlink:title="This file defines the contents of the class wxMaxima that contains most of the program&#39;s logic.">
<polygon fill="white" stroke="#666666" points="571.14,-19 463.14,-19 463.14,0 571.14,0 571.14,-19"/>
<text text-anchor="middle" x="517.14" y="-7" font-family="Helvetica,sans-Serif" font-size="10.00">src/wxMaxima.cpp</text>
</a>
</g>
</g>
<!-- Node8&#45;&gt;Node10 -->
<g id="edge9" class="edge">
<title>Node8&#45;&gt;Node10</title>
<path fill="none" stroke="#63b8ff" d="M501.28,-45.53C505.32,-36.6 510.02,-26.22 513.25,-19.09"/>
<polygon fill="#63b8ff" stroke="#63b8ff" points="498.04,-44.19 497.1,-54.75 504.42,-47.08 498.04,-44.19"/>
</g>
<!-- Node11&#45;&gt;Node9 -->
<g id="edge11" class="edge">
<title>Node11&#45;&gt;Node9</title>
<path fill="none" stroke="#63b8ff" d="M398.32,-53.43C468.55,-42.58 578.08,-25.65 636.42,-16.64"/>
<polygon fill="#63b8ff" stroke="#63b8ff" points="397.6,-50 388.25,-54.98 398.67,-56.92 397.6,-50"/>
</g>
<!-- Node11&#45;&gt;Node10 -->
<g id="edge12" class="edge">
<title>Node11&#45;&gt;Node10</title>
<path fill="none" stroke="#63b8ff" d="M372.43,-52.18C406.84,-42.27 456.1,-28.08 487.35,-19.08"/>
<polygon fill="#63b8ff" stroke="#63b8ff" points="371.34,-48.85 362.7,-54.98 373.28,-55.58 371.34,-48.85"/>
</g>
<!-- Node13&#45;&gt;Node4 -->
<g id="edge16" class="edge">
<title>Node13&#45;&gt;Node4</title>
<path fill="none" stroke="#63b8ff" d="M740.56,-168.32C680.29,-155.6 588.1,-135.28 583.14,-129 566.74,-108.21 600.77,-85.99 623.65,-74.14"/>
<polygon fill="#63b8ff" stroke="#63b8ff" points="740.17,-171.82 750.67,-170.45 741.61,-164.97 740.17,-171.82"/>
</g>
<!-- Node14 -->
<g id="node14" class="node">
<title>Node14</title>
<g id="a_node14"><a xlink:href="AutocompletePopup_8cpp.html" target="_top" xlink:title="This file defines the class AutocompletePopup.">
<polygon fill="white" stroke="#666666" points="1237.14,-129 1085.14,-129 1085.14,-110 1237.14,-110 1237.14,-129"/>
<text text-anchor="middle" x="1161.14" y="-117" font-family="Helvetica,sans-Serif" font-size="10.00">src/AutocompletePopup.cpp</text>
</a>
</g>
</g>
<!-- Node13&#45;&gt;Node14 -->
<g id="edge15" class="edge">
<title>Node13&#45;&gt;Node14</title>
<path fill="none" stroke="#63b8ff" d="M844.83,-168.63C851.66,-167.37 858.56,-166.13 865.14,-165 945.94,-151.18 1039.56,-137.5 1099.52,-129.03"/>
<polygon fill="#63b8ff" stroke="#63b8ff" points="844.12,-165.21 834.94,-170.49 845.41,-172.09 844.12,-165.21"/>
</g>
<!-- Node15 -->
<g id="node15" class="node">
<title>Node15</title>
<g id="a_node15"><a xlink:href="EditorCell_8cpp.html" target="_top" xlink:title="This file defines the class EditorCell.">
<polygon fill="white" stroke="#666666" points="1165.64,-74 1038.64,-74 1038.64,-55 1165.64,-55 1165.64,-74"/>
<text text-anchor="middle" x="1102.14" y="-62" font-family="Helvetica,sans-Serif" font-size="10.00">src/cells/EditorCell.cpp</text>
</a>
</g>
</g>
<!-- Node13&#45;&gt;Node15 -->
<g id="edge17" class="edge">
<title>Node13&#45;&gt;Node15</title>
<path fill="none" stroke="#63b8ff" d="M842.94,-168.61C850.37,-167.28 857.94,-166.03 865.14,-165 907.24,-158.99 1217.52,-160.45 1246.14,-129 1274.46,-97.88 1216.6,-81.22 1165.99,-72.89"/>
<polygon fill="#63b8ff" stroke="#63b8ff" points="842.15,-165.2 832.95,-170.46 843.42,-172.08 842.15,-165.2"/>
</g>
<!-- Node16 -->
<g id="node16" class="node">
<title>Node16</title>
<g id="a_node16"><a xlink:href="main_8h.html" target="_top" xlink:title="This file declares the class wxMaxima that contains most of the program&#39;s logic.">
<polygon fill="white" stroke="#666666" points="857.14,-74 789.14,-74 789.14,-55 857.14,-55 857.14,-74"/>
<text text-anchor="middle" x="823.14" y="-62" font-family="Helvetica,sans-Serif" font-size="10.00">src/main.h</text>
</a>
</g>
</g>
<!-- Node13&#45;&gt;Node16 -->
<g id="edge18" class="edge">
<title>Node13&#45;&gt;Node16</title>
<path fill="none" stroke="#63b8ff" d="M845.58,-168.57C917.48,-154.48 1036.6,-130.88 1038.14,-129 1087.21,-68.95 929.65,-63.91 857.39,-64.63"/>
<polygon fill="#63b8ff" stroke="#63b8ff" points="844.91,-165.13 835.77,-170.49 846.26,-172 844.91,-165.13"/>
</g>
<!-- Node18 -->
<g id="node18" class="node">
<title>Node18</title>
<g id="a_node18"><a xlink:href="GreekSidebar_8cpp.html" target="_top" xlink:title="This file defines the class GreekSidebar.">
<polygon fill="white" stroke="#666666" points="756.14,-129 592.14,-129 592.14,-110 756.14,-110 756.14,-129"/>
<text text-anchor="middle" x="674.14" y="-117" font-family="Helvetica,sans-Serif" font-size="10.00">src/sidebars/GreekSidebar.cpp</text>
</a>
</g>
</g>
<!-- Node13&#45;&gt;Node18 -->
<g id="edge22" class="edge">
<title>Node13&#45;&gt;Node18</title>
<path fill="none" stroke="#63b8ff" d="M765.88,-165.98C743.14,-154.71 710.9,-138.73 691.32,-129.02"/>
<polygon fill="#63b8ff" stroke="#63b8ff" points="764.47,-169.19 774.98,-170.49 767.58,-162.92 764.47,-169.19"/>
</g>
<!-- Node19 -->
<g id="node19" class="node">
<title>Node19</title>
<g id="a_node19"><a xlink:href="wxMaxima_8h.html" target="_top" xlink:title="This file declares the class wxMaxima that contains most of the program&#39;s logic.">
<polygon fill="white" stroke="#666666" points="871.64,-129 774.64,-129 774.64,-110 871.64,-110 871.64,-129"/>
<text text-anchor="middle" x="823.14" y="-117" font-family="Helvetica,sans-Serif" font-size="10.00">src/wxMaxima.h</text>
</a>
</g>
</g>
<!-- Node13&#45;&gt;Node19 -->
<g id="edge23" class="edge">
<title>Node13&#45;&gt;Node19</title>
<path fill="none" stroke="#63b8ff" d="M801.43,-161.48C807.08,-150.81 814.05,-137.65 818.55,-129.17"/>
<polygon fill="#63b8ff" stroke="#63b8ff" points="798.3,-159.89 796.71,-170.37 804.49,-163.17 798.3,-159.89"/>
</g>
<!-- Node20 -->
<g id="node20" class="node">
<title>Node20</title>
<g id="a_node20"><a xlink:href="wxMaximaFrame_8cpp.html" target="_top" xlink:title="This file defines the class wxMaximaFrame.">
<polygon fill="white" stroke="#666666" points="1028.64,-129 889.64,-129 889.64,-110 1028.64,-110 1028.64,-129"/>
<text text-anchor="middle" x="959.14" y="-117" font-family="Helvetica,sans-Serif" font-size="10.00">src/wxMaximaFrame.cpp</text>
</a>
</g>
</g>
<!-- Node13&#45;&gt;Node20 -->
<g id="edge29" class="edge">
<title>Node13&#45;&gt;Node20</title>
<path fill="none" stroke="#63b8ff" d="M825.91,-167.17C858.21,-155.86 906.12,-139.07 934.83,-129.02"/>
<polygon fill="#63b8ff" stroke="#63b8ff" points="824.7,-163.88 816.42,-170.49 827.02,-170.49 824.7,-163.88"/>
</g>
<!-- Node16&#45;&gt;Node9 -->
<g id="edge20" class="edge">
<title>Node16&#45;&gt;Node9</title>
<path fill="none" stroke="#63b8ff" d="M790,-51.55C762.7,-41.71 724.64,-27.98 700.19,-19.17"/>
<polygon fill="#63b8ff" stroke="#63b8ff" points="788.93,-54.89 799.52,-54.98 791.3,-48.3 788.93,-54.89"/>
</g>
<!-- Node16&#45;&gt;Node10 -->
<g id="edge21" class="edge">
<title>Node16&#45;&gt;Node10</title>
<path fill="none" stroke="#63b8ff" d="M778.88,-55.83C722.38,-46.05 624.95,-29.17 566.23,-19"/>
<polygon fill="#63b8ff" stroke="#63b8ff" points="778.48,-59.32 788.93,-57.57 779.67,-52.42 778.48,-59.32"/>
</g>
<!-- Node17 -->
<g id="node17" class="node">
<title>Node17</title>
<g id="a_node17"><a xlink:href="MaximaManual_8cpp.html" target="_top" xlink:title="This file defines the class MaximaManual.">
<polygon fill="white" stroke="#666666" points="888.14,-19 758.14,-19 758.14,0 888.14,0 888.14,-19"/>
<text text-anchor="middle" x="823.14" y="-7" font-family="Helvetica,sans-Serif" font-size="10.00">src/MaximaManual.cpp</text>
</a>
</g>
</g>
<!-- Node16&#45;&gt;Node17 -->
<g id="edge19" class="edge">
<title>Node16&#45;&gt;Node17</title>
<path fill="none" stroke="#63b8ff" d="M823.14,-44.66C823.14,-35.93 823.14,-25.99 823.14,-19.09"/>
<polygon fill="#63b8ff" stroke="#63b8ff" points="819.64,-44.75 823.14,-54.75 826.64,-44.75 819.64,-44.75"/>
</g>
<!-- Node19&#45;&gt;Node4 -->
<g id="edge24" class="edge">
<title>Node19&#45;&gt;Node4</title>
<path fill="none" stroke="#63b8ff" d="M784.06,-107.06C750.23,-97.15 702.06,-83.04 671.45,-74.08"/>
<polygon fill="#63b8ff" stroke="#63b8ff" points="783.48,-110.53 794.06,-109.98 785.45,-103.82 783.48,-110.53"/>
</g>
<!-- Node19&#45;&gt;Node9 -->
<g id="edge26" class="edge">
<title>Node19&#45;&gt;Node9</title>
<path fill="none" stroke="#63b8ff" d="M803.21,-103.73C785.79,-90.84 759.82,-71.65 737.14,-55 720.02,-42.44 700.14,-27.95 687.85,-19.01"/>
<polygon fill="#63b8ff" stroke="#63b8ff" points="801.35,-106.71 811.47,-109.85 805.52,-101.09 801.35,-106.71"/>
</g>
<!-- Node19&#45;&gt;Node10 -->
<g id="edge28" class="edge">
<title>Node19&#45;&gt;Node10</title>
<path fill="none" stroke="#63b8ff" d="M796.54,-105.12C779.46,-96.44 756.87,-84.78 737.14,-74 722.29,-65.89 719.87,-61.25 704.14,-55 660.72,-37.76 608.86,-26.06 570.78,-19.01"/>
<polygon fill="#63b8ff" stroke="#63b8ff" points="795.39,-108.46 805.89,-109.86 798.55,-102.22 795.39,-108.46"/>
</g>
<!-- Node19&#45;&gt;Node15 -->
<g id="edge25" class="edge">
<title>Node19&#45;&gt;Node15</title>
<path fill="none" stroke="#63b8ff" d="M878.07,-108.07C930.38,-98.13 1008.16,-83.35 1056.96,-74.08"/>
<polygon fill="#63b8ff" stroke="#63b8ff" points="877.14,-104.68 867.97,-109.98 878.44,-111.56 877.14,-104.68"/>
</g>
<!-- Node19&#45;&gt;Node16 -->
<g id="edge27" class="edge">
<title>Node19&#45;&gt;Node16</title>
<path fill="none" stroke="#63b8ff" d="M823.14,-99.66C823.14,-90.93 823.14,-80.99 823.14,-74.09"/>
<polygon fill="#63b8ff" stroke="#63b8ff" points="819.64,-99.75 823.14,-109.75 826.64,-99.75 819.64,-99.75"/>
</g>
</g>
</svg>
        <g id="navigator" transform="translate(0 0)" fill="#404254">
                <rect fill="#f2f5e9" fill-opacity="0.5" stroke="#606060" stroke-width=".5" x="0" y="0" width="60" height="60"/>
                <use id="zoomplus" xlink:href="#zoomPlus" x="17" y="9" onmousedown="handleZoom(evt,'in')"/>
                <use id="zoomminus" xlink:href="#zoomMin" x="42" y="9" onmousedown="handleZoom(evt,'out')"/>
                <use id="reset" xlink:href="#resetDef" x="30" y="36" onmousedown="handleReset()"/>
                <g id="arrowUp" xlink:href="#dirArrow" transform="translate(30 24)" onmousedown="handlePan(0,-1)">
                  <use xlink:href="#rim" fill="#404040">
                        <set attributeName="fill" to="#808080" begin="arrowUp.mouseover" end="arrowUp.mouseout"/>
                  </use>
                  <path fill="none" stroke="white" stroke-width="1.5" d="M0,-3.0v7 M-2.5,-0.5L0,-3.0L2.5,-0.5"/>
                </g>
                <g id="arrowRight" xlink:href="#dirArrow" transform="rotate(90) translate(36 -43)" onmousedown="handlePan(1,0)">
                  <use xlink:href="#rim" fill="#404040">
                        <set attributeName="fill" to="#808080" begin="arrowRight.mouseover" end="arrowRight.mouseout"/>
                  </use>
                  <path fill="none" stroke="white" stroke-width="1.5" d="M0,-3.0v7 M-2.5,-0.5L0,-3.0L2.5,-0.5"/>
                </g>
                <g id="arrowDown" xlink:href="#dirArrow" transform="rotate(180) translate(-30 -48)" onmousedown="handlePan(0,1)">
                  <use xlink:href="#rim" fill="#404040">
                        <set attributeName="fill" to="#808080" begin="arrowDown.mouseover" end="arrowDown.mouseout"/>
                  </use>
                  <path fill="none" stroke="white" stroke-width="1.5" d="M0,-3.0v7 M-2.5,-0.5L0,-3.0L2.5,-0.5"/>
                </g>
                <g id="arrowLeft" xlink:href="#dirArrow" transform="rotate(270) translate(-36 17)" onmousedown="handlePan(-1,0)">
                  <use xlink:href="#rim" fill="#404040">
                        <set attributeName="fill" to="#808080" begin="arrowLeft.mouseover" end="arrowLeft.mouseout"/>
                  </use>
                  <path fill="none" stroke="white" stroke-width="1.5" d="M0,-3.0v7 M-2.5,-0.5L0,-3.0L2.5,-0.5"/>
                </g>
        </g>
        <svg viewBox="0 0 15 15" width="100%" height="30px" preserveAspectRatio="xMaxYMin meet">
         <g id="arrow_out" transform="scale(0.3 0.3)">
          <a xlink:href="Notification_8h__dep__incl_org.svg" target="_base">
           <rect id="button" ry="5" rx="5" y="6" x="6" height="38" width="38"
                fill="#f2f5e9" fill-opacity="0.5" stroke="#606060" stroke-width="1.0"/>
           <path id="arrow"
             d="M 11.500037,31.436501 C 11.940474,20.09759 22.043105,11.32322 32.158766,21.979434 L 37.068811,17.246167 C 37.068811,17.246167 37.088388,32 37.088388,32 L 22.160133,31.978069 C 22.160133,31.978069 26.997745,27.140456 26.997745,27.140456 C 18.528582,18.264221 13.291696,25.230495 11.500037,31.436501 z"
             style="fill:#404040;"/>
          </a>
         </g>
        </svg>
</svg>
