<?xml version="1.0" encoding="UTF-8" standalone="no"?>
<!DOCTYPE svg PUBLIC "-//W3C//DTD SVG 1.1//EN"
 "http://www.w3.org/Graphics/SVG/1.1/DTD/svg11.dtd">
<!-- Generated by graphviz version 2.43.0 (0)
 -->
<!-- Title: src/graphical_io/OutCommon.h Pages: 1 -->
<svg width="1910pt" height="302pt"
 viewBox="0.00 0.00 1910.00 302.00" xmlns="http://www.w3.org/2000/svg" xmlns:xlink="http://www.w3.org/1999/xlink">
<g id="graph0" class="graph" transform="scale(1 1) rotate(0) translate(4 298)">
<title>src/graphical_io/OutCommon.h</title>
<!-- Node1 -->
<g id="node1" class="node">
<title>Node1</title>
<g id="a_node1"><a xlink:title="This is the header for common code used by various file output modules that render cells to files.">
<polygon fill="#999999" stroke="#666666" points="1733.5,-294 1566.5,-294 1566.5,-275 1733.5,-275 1733.5,-294"/>
<text text-anchor="middle" x="1650" y="-282" font-family="Helvetica,sans-Serif" font-size="10.00">src/graphical_io/OutCommon.h</text>
</a>
</g>
</g>
<!-- Node2 -->
<g id="node2" class="node">
<title>Node2</title>
<g id="a_node2"><a xlink:href="Configuration_8h_source.html" target="_top" xlink:title=" ">
<polygon fill="white" stroke="#666666" points="1137.5,-239 1046.5,-239 1046.5,-220 1137.5,-220 1137.5,-239"/>
<text text-anchor="middle" x="1092" y="-227" font-family="Helvetica,sans-Serif" font-size="10.00">Configuration.h</text>
</a>
</g>
</g>
<!-- Node1&#45;&gt;Node2 -->
<g id="edge1" class="edge">
<title>Node1&#45;&gt;Node2</title>
<path fill="none" stroke="#63b8ff" d="M1566.46,-275.57C1451.06,-264.6 1246,-245.13 1147.65,-235.79"/>
<polygon fill="#63b8ff" stroke="#63b8ff" points="1147.9,-232.29 1137.61,-234.83 1147.24,-239.26 1147.9,-232.29"/>
</g>
<!-- Node3 -->
<g id="node3" class="node">
<title>Node3</title>
<g id="a_node3"><a xlink:href="precomp_8h_source.html" target="_top" xlink:title=" ">
<polygon fill="white" stroke="#666666" points="1752,-74 1684,-74 1684,-55 1752,-55 1752,-74"/>
<text text-anchor="middle" x="1718" y="-62" font-family="Helvetica,sans-Serif" font-size="10.00">precomp.h</text>
</a>
</g>
</g>
<!-- Node1&#45;&gt;Node3 -->
<g id="edge56" class="edge">
<title>Node1&#45;&gt;Node3</title>
<path fill="none" stroke="#63b8ff" d="M1663.01,-274.92C1684.96,-259.63 1728.82,-225.35 1748,-184 1761.87,-154.1 1763.78,-141.15 1753,-110 1749.33,-99.38 1741.96,-89.38 1734.92,-81.55"/>
<polygon fill="#63b8ff" stroke="#63b8ff" points="1737.34,-79.02 1727.88,-74.25 1732.3,-83.88 1737.34,-79.02"/>
</g>
<!-- Node30 -->
<g id="node30" class="node">
<title>Node30</title>
<g id="a_node30"><a xlink:title=" ">
<polygon fill="#e0e0e0" stroke="#999999" points="1497,-74 1439,-74 1439,-55 1497,-55 1497,-74"/>
<text text-anchor="middle" x="1468" y="-62" font-family="Helvetica,sans-Serif" font-size="10.00">memory</text>
</a>
</g>
</g>
<!-- Node1&#45;&gt;Node30 -->
<g id="edge58" class="edge">
<title>Node1&#45;&gt;Node30</title>
<path fill="none" stroke="#63b8ff" d="M1637.2,-274.85C1614.34,-258.94 1565.89,-223.04 1534,-184 1507.78,-151.91 1486.43,-107.95 1475.63,-83.6"/>
<polygon fill="#63b8ff" stroke="#63b8ff" points="1478.74,-81.96 1471.55,-74.18 1472.32,-84.74 1478.74,-81.96"/>
</g>
<!-- Node40 -->
<g id="node40" class="node">
<title>Node40</title>
<g id="a_node40"><a xlink:title=" ">
<polygon fill="#e0e0e0" stroke="#999999" points="1902,-239 1822,-239 1822,-220 1902,-220 1902,-239"/>
<text text-anchor="middle" x="1862" y="-227" font-family="Helvetica,sans-Serif" font-size="10.00">wx/dataobj.h</text>
</a>
</g>
</g>
<!-- Node1&#45;&gt;Node40 -->
<g id="edge57" class="edge">
<title>Node1&#45;&gt;Node40</title>
<path fill="none" stroke="#63b8ff" d="M1684.06,-274.98C1720.42,-265.89 1778.17,-251.46 1817.97,-241.51"/>
<polygon fill="#63b8ff" stroke="#63b8ff" points="1818.82,-244.9 1827.67,-239.08 1817.12,-238.11 1818.82,-244.9"/>
</g>
<!-- Node2&#45;&gt;Node3 -->
<g id="edge2" class="edge">
<title>Node2&#45;&gt;Node3</title>
<path fill="none" stroke="#63b8ff" d="M1137.94,-228.81C1277.41,-229.29 1688.88,-227.02 1729,-184 1754.39,-156.77 1738.59,-109.17 1727.01,-83.36"/>
<polygon fill="#63b8ff" stroke="#63b8ff" points="1730.03,-81.58 1722.58,-74.05 1723.71,-84.58 1730.03,-81.58"/>
</g>
<!-- Node5 -->
<g id="node5" class="node">
<title>Node5</title>
<g id="a_node5"><a xlink:title=" ">
<polygon fill="#e0e0e0" stroke="#999999" points="674.5,-184 617.5,-184 617.5,-165 674.5,-165 674.5,-184"/>
<text text-anchor="middle" x="646" y="-172" font-family="Helvetica,sans-Serif" font-size="10.00">wx/wx.h</text>
</a>
</g>
</g>
<!-- Node2&#45;&gt;Node5 -->
<g id="edge4" class="edge">
<title>Node2&#45;&gt;Node5</title>
<path fill="none" stroke="#63b8ff" d="M1046.49,-225.2C972.65,-219.49 822.02,-206.32 684.45,-183.88"/>
<polygon fill="#63b8ff" stroke="#63b8ff" points="685,-180.42 674.57,-182.25 683.86,-187.33 685,-180.42"/>
</g>
<!-- Node6 -->
<g id="node6" class="node">
<title>Node6</title>
<g id="a_node6"><a xlink:title=" ">
<polygon fill="#e0e0e0" stroke="#999999" points="1261,-129 1189,-129 1189,-110 1261,-110 1261,-129"/>
<text text-anchor="middle" x="1225" y="-117" font-family="Helvetica,sans-Serif" font-size="10.00">wx/config.h</text>
</a>
</g>
</g>
<!-- Node2&#45;&gt;Node6 -->
<g id="edge5" class="edge">
<title>Node2&#45;&gt;Node6</title>
<path fill="none" stroke="#63b8ff" d="M1137.53,-226.87C1200.8,-223.55 1310.35,-213.57 1335,-184 1357.26,-157.3 1310.39,-139.4 1271.09,-129.59"/>
<polygon fill="#63b8ff" stroke="#63b8ff" points="1271.85,-126.18 1261.31,-127.27 1270.23,-132.99 1271.85,-126.18"/>
</g>
<!-- Node7 -->
<g id="node7" class="node">
<title>Node7</title>
<g id="a_node7"><a xlink:title=" ">
<polygon fill="#e0e0e0" stroke="#999999" points="769.5,-184 692.5,-184 692.5,-165 769.5,-165 769.5,-184"/>
<text text-anchor="middle" x="731" y="-172" font-family="Helvetica,sans-Serif" font-size="10.00">wx/display.h</text>
</a>
</g>
</g>
<!-- Node2&#45;&gt;Node7 -->
<g id="edge6" class="edge">
<title>Node2&#45;&gt;Node7</title>
<path fill="none" stroke="#63b8ff" d="M1046.31,-222.5C987.25,-214.64 880.98,-200.11 779.84,-184.09"/>
<polygon fill="#63b8ff" stroke="#63b8ff" points="780.18,-180.6 769.75,-182.48 779.08,-187.51 780.18,-180.6"/>
</g>
<!-- Node8 -->
<g id="node8" class="node">
<title>Node8</title>
<g id="a_node8"><a xlink:title=" ">
<polygon fill="#e0e0e0" stroke="#999999" points="878,-184 788,-184 788,-165 878,-165 878,-184"/>
<text text-anchor="middle" x="833" y="-172" font-family="Helvetica,sans-Serif" font-size="10.00">wx/fontenum.h</text>
</a>
</g>
</g>
<!-- Node2&#45;&gt;Node8 -->
<g id="edge7" class="edge">
<title>Node2&#45;&gt;Node8</title>
<path fill="none" stroke="#63b8ff" d="M1050.39,-219.98C1005.4,-210.78 933.61,-196.09 884.95,-186.13"/>
<polygon fill="#63b8ff" stroke="#63b8ff" points="885.44,-182.66 874.94,-184.08 884.03,-189.52 885.44,-182.66"/>
</g>
<!-- Node9 -->
<g id="node9" class="node">
<title>Node9</title>
<g id="a_node9"><a xlink:title=" ">
<polygon fill="#e0e0e0" stroke="#999999" points="1390,-129 1302,-129 1302,-110 1390,-110 1390,-129"/>
<text text-anchor="middle" x="1346" y="-117" font-family="Helvetica,sans-Serif" font-size="10.00">wx/hashmap.h</text>
</a>
</g>
</g>
<!-- Node2&#45;&gt;Node9 -->
<g id="edge8" class="edge">
<title>Node2&#45;&gt;Node9</title>
<path fill="none" stroke="#63b8ff" d="M1137.71,-227.45C1204.62,-224.84 1324.24,-215.75 1351,-184 1361.45,-171.6 1358.29,-152.57 1353.68,-138.58"/>
<polygon fill="#63b8ff" stroke="#63b8ff" points="1356.89,-137.17 1350.08,-129.05 1350.34,-139.64 1356.89,-137.17"/>
</g>
<!-- Node10 -->
<g id="node10" class="node">
<title>Node10</title>
<g id="a_node10"><a xlink:href="LoggingMessageDialog_8h.html" target="_top" xlink:title="This file declares a message dialog that sends its contents to the log message sink.">
<polygon fill="white" stroke="#666666" points="1719.5,-184 1542.5,-184 1542.5,-165 1719.5,-165 1719.5,-184"/>
<text text-anchor="middle" x="1631" y="-172" font-family="Helvetica,sans-Serif" font-size="10.00">dialogs/LoggingMessageDialog.h</text>
</a>
</g>
</g>
<!-- Node2&#45;&gt;Node10 -->
<g id="edge9" class="edge">
<title>Node2&#45;&gt;Node10</title>
<path fill="none" stroke="#63b8ff" d="M1137.95,-223.98C1225.4,-215.38 1417.42,-196.5 1534.35,-185"/>
<polygon fill="#63b8ff" stroke="#63b8ff" points="1534.77,-188.48 1544.38,-184.02 1534.08,-181.51 1534.77,-188.48"/>
</g>
<!-- Node13 -->
<g id="node13" class="node">
<title>Node13</title>
<g id="a_node13"><a xlink:href="TextStyle_8h.html" target="_top" xlink:title="This file declares everything needed for the text style system used to style all the elements on the ...">
<polygon fill="white" stroke="#666666" points="599,-184 503,-184 503,-165 599,-165 599,-184"/>
<text text-anchor="middle" x="551" y="-172" font-family="Helvetica,sans-Serif" font-size="10.00">cells/TextStyle.h</text>
</a>
</g>
</g>
<!-- Node2&#45;&gt;Node13 -->
<g id="edge13" class="edge">
<title>Node2&#45;&gt;Node13</title>
<path fill="none" stroke="#63b8ff" d="M1046.3,-225.11C962.14,-218.69 776.76,-203.72 609.08,-183.94"/>
<polygon fill="#63b8ff" stroke="#63b8ff" points="609.42,-180.45 599.08,-182.75 608.6,-187.4 609.42,-180.45"/>
</g>
<!-- Node20 -->
<g id="node20" class="node">
<title>Node20</title>
<g id="a_node20"><a xlink:title=" ">
<polygon fill="#e0e0e0" stroke="#999999" points="50,-74 0,-74 0,-55 50,-55 50,-74"/>
<text text-anchor="middle" x="25" y="-62" font-family="Helvetica,sans-Serif" font-size="10.00">cstdint</text>
</a>
</g>
</g>
<!-- Node2&#45;&gt;Node20 -->
<g id="edge45" class="edge">
<title>Node2&#45;&gt;Node20</title>
<path fill="none" stroke="#63b8ff" d="M1046.1,-229.17C911.12,-229.93 504.96,-223.6 186,-129 138.17,-114.82 84.66,-92.32 52.96,-78.26"/>
<polygon fill="#63b8ff" stroke="#63b8ff" points="54.02,-74.9 43.46,-74.01 51.16,-81.29 54.02,-74.9"/>
</g>
<!-- Node27 -->
<g id="node27" class="node">
<title>Node27</title>
<g id="a_node27"><a xlink:title=" ">
<polygon fill="#e0e0e0" stroke="#999999" points="442,-74 378,-74 378,-55 442,-55 442,-74"/>
<text text-anchor="middle" x="410" y="-62" font-family="Helvetica,sans-Serif" font-size="10.00">algorithm</text>
</a>
</g>
</g>
<!-- Node2&#45;&gt;Node27 -->
<g id="edge52" class="edge">
<title>Node2&#45;&gt;Node27</title>
<path fill="none" stroke="#63b8ff" d="M1046.04,-227.56C912.29,-224.48 529.73,-213.19 482,-184 444.64,-161.15 424.01,-110.93 415.21,-83.78"/>
<polygon fill="#63b8ff" stroke="#63b8ff" points="418.49,-82.55 412.23,-74.01 411.8,-84.59 418.49,-82.55"/>
</g>
<!-- Node2&#45;&gt;Node30 -->
<g id="edge46" class="edge">
<title>Node2&#45;&gt;Node30</title>
<path fill="none" stroke="#63b8ff" d="M1137.55,-226.91C1213.28,-223.48 1360.9,-213.15 1403,-184 1437.77,-159.92 1455.8,-111 1463.43,-84.16"/>
<polygon fill="#63b8ff" stroke="#63b8ff" points="1466.9,-84.71 1466.08,-74.15 1460.14,-82.92 1466.9,-84.71"/>
</g>
<!-- Node31 -->
<g id="node31" class="node">
<title>Node31</title>
<g id="a_node31"><a xlink:title=" ">
<polygon fill="#e0e0e0" stroke="#999999" points="917,-74 885,-74 885,-55 917,-55 917,-74"/>
<text text-anchor="middle" x="901" y="-62" font-family="Helvetica,sans-Serif" font-size="10.00">list</text>
</a>
</g>
</g>
<!-- Node2&#45;&gt;Node31 -->
<g id="edge50" class="edge">
<title>Node2&#45;&gt;Node31</title>
<path fill="none" stroke="#63b8ff" d="M1137.61,-226.27C1240.71,-219.71 1476.89,-195.16 1399,-110 1366.95,-74.96 1025.85,-67.31 927.44,-65.83"/>
<polygon fill="#63b8ff" stroke="#63b8ff" points="927.22,-62.32 917.17,-65.68 927.12,-69.32 927.22,-62.32"/>
</g>
<!-- Node33 -->
<g id="node33" class="node">
<title>Node33</title>
<g id="a_node33"><a xlink:title=" ">
<polygon fill="#e0e0e0" stroke="#999999" points="633.5,-74 540.5,-74 540.5,-55 633.5,-55 633.5,-74"/>
<text text-anchor="middle" x="587" y="-62" font-family="Helvetica,sans-Serif" font-size="10.00">unordered_map</text>
</a>
</g>
</g>
<!-- Node2&#45;&gt;Node33 -->
<g id="edge48" class="edge">
<title>Node2&#45;&gt;Node33</title>
<path fill="none" stroke="#63b8ff" d="M1046.05,-228.59C912.47,-228.37 531.32,-224.2 494,-184 460.95,-148.4 524.83,-102.07 562.37,-79.33"/>
<polygon fill="#63b8ff" stroke="#63b8ff" points="564.44,-82.17 571.27,-74.07 560.88,-76.14 564.44,-82.17"/>
</g>
<!-- Node34 -->
<g id="node34" class="node">
<title>Node34</title>
<g id="a_node34"><a xlink:title=" ">
<polygon fill="#e0e0e0" stroke="#999999" points="944,-184 896,-184 896,-165 944,-165 944,-184"/>
<text text-anchor="middle" x="920" y="-172" font-family="Helvetica,sans-Serif" font-size="10.00">mutex</text>
</a>
</g>
</g>
<!-- Node2&#45;&gt;Node34 -->
<g id="edge47" class="edge">
<title>Node2&#45;&gt;Node34</title>
<path fill="none" stroke="#63b8ff" d="M1064.37,-219.98C1034.37,-210.74 986.45,-195.98 954.13,-186.02"/>
<polygon fill="#63b8ff" stroke="#63b8ff" points="954.82,-182.57 944.23,-182.97 952.76,-189.26 954.82,-182.57"/>
</g>
<!-- Node35 -->
<g id="node35" class="node">
<title>Node35</title>
<g id="a_node35"><a xlink:title=" ">
<polygon fill="#e0e0e0" stroke="#999999" points="1016,-184 962,-184 962,-165 1016,-165 1016,-184"/>
<text text-anchor="middle" x="989" y="-172" font-family="Helvetica,sans-Serif" font-size="10.00">random</text>
</a>
</g>
</g>
<!-- Node2&#45;&gt;Node35 -->
<g id="edge49" class="edge">
<title>Node2&#45;&gt;Node35</title>
<path fill="none" stroke="#63b8ff" d="M1075.45,-219.98C1059.11,-211.57 1033.87,-198.59 1014.87,-188.81"/>
<polygon fill="#63b8ff" stroke="#63b8ff" points="1016.34,-185.63 1005.85,-184.17 1013.14,-191.86 1016.34,-185.63"/>
</g>
<!-- Node36 -->
<g id="node36" class="node">
<title>Node36</title>
<g id="a_node36"><a xlink:title=" ">
<polygon fill="#e0e0e0" stroke="#999999" points="1081.5,-184 1034.5,-184 1034.5,-165 1081.5,-165 1081.5,-184"/>
<text text-anchor="middle" x="1058" y="-172" font-family="Helvetica,sans-Serif" font-size="10.00">vector</text>
</a>
</g>
</g>
<!-- Node2&#45;&gt;Node36 -->
<g id="edge51" class="edge">
<title>Node2&#45;&gt;Node36</title>
<path fill="none" stroke="#63b8ff" d="M1086.39,-219.75C1081.68,-212.42 1074.83,-201.73 1069.03,-192.7"/>
<polygon fill="#63b8ff" stroke="#63b8ff" points="1071.86,-190.62 1063.51,-184.09 1065.96,-194.4 1071.86,-190.62"/>
</g>
<!-- Node37 -->
<g id="node37" class="node">
<title>Node37</title>
<g id="a_node37"><a xlink:title=" ">
<polygon fill="#e0e0e0" stroke="#999999" points="1150,-184 1100,-184 1100,-165 1150,-165 1150,-184"/>
<text text-anchor="middle" x="1125" y="-172" font-family="Helvetica,sans-Serif" font-size="10.00">atomic</text>
</a>
</g>
</g>
<!-- Node2&#45;&gt;Node37 -->
<g id="edge53" class="edge">
<title>Node2&#45;&gt;Node37</title>
<path fill="none" stroke="#63b8ff" d="M1097.45,-219.75C1102.01,-212.42 1108.67,-201.73 1114.29,-192.7"/>
<polygon fill="#63b8ff" stroke="#63b8ff" points="1117.34,-194.43 1119.65,-184.09 1111.4,-190.73 1117.34,-194.43"/>
</g>
<!-- Node38 -->
<g id="node38" class="node">
<title>Node38</title>
<g id="a_node38"><a xlink:title=" ">
<polygon fill="#e0e0e0" stroke="#999999" points="1218,-184 1168,-184 1168,-165 1218,-165 1218,-184"/>
<text text-anchor="middle" x="1193" y="-172" font-family="Helvetica,sans-Serif" font-size="10.00">chrono</text>
</a>
</g>
</g>
<!-- Node2&#45;&gt;Node38 -->
<g id="edge54" class="edge">
<title>Node2&#45;&gt;Node38</title>
<path fill="none" stroke="#63b8ff" d="M1108.23,-219.98C1124.18,-211.61 1148.78,-198.7 1167.38,-188.95"/>
<polygon fill="#63b8ff" stroke="#63b8ff" points="1169.25,-191.92 1176.48,-184.17 1166,-185.72 1169.25,-191.92"/>
</g>
<!-- Node39 -->
<g id="node39" class="node">
<title>Node39</title>
<g id="a_node39"><a xlink:title=" ">
<polygon fill="#e0e0e0" stroke="#999999" points="1325.5,-184 1236.5,-184 1236.5,-165 1325.5,-165 1325.5,-184"/>
<text text-anchor="middle" x="1281" y="-172" font-family="Helvetica,sans-Serif" font-size="10.00">wx/wupdlock.h</text>
</a>
</g>
</g>
<!-- Node2&#45;&gt;Node39 -->
<g id="edge55" class="edge">
<title>Node2&#45;&gt;Node39</title>
<path fill="none" stroke="#63b8ff" d="M1122.37,-219.98C1154.37,-211.01 1204.96,-196.82 1240.38,-186.89"/>
<polygon fill="#63b8ff" stroke="#63b8ff" points="1241.71,-190.15 1250.4,-184.08 1239.82,-183.41 1241.71,-190.15"/>
</g>
<!-- Node4 -->
<g id="node4" class="node">
<title>Node4</title>
<g id="a_node4"><a xlink:title=" ">
<polygon fill="#e0e0e0" stroke="#999999" points="1758.5,-19 1677.5,-19 1677.5,0 1758.5,0 1758.5,-19"/>
<text text-anchor="middle" x="1718" y="-7" font-family="Helvetica,sans-Serif" font-size="10.00">BuildConfig.h</text>
</a>
</g>
</g>
<!-- Node3&#45;&gt;Node4 -->
<g id="edge3" class="edge">
<title>Node3&#45;&gt;Node4</title>
<path fill="none" stroke="#63b8ff" d="M1718,-54.75C1718,-47.8 1718,-37.85 1718,-29.13"/>
<polygon fill="#63b8ff" stroke="#63b8ff" points="1721.5,-29.09 1718,-19.09 1714.5,-29.09 1721.5,-29.09"/>
</g>
<!-- Node10&#45;&gt;Node3 -->
<g id="edge10" class="edge">
<title>Node10&#45;&gt;Node3</title>
<path fill="none" stroke="#63b8ff" d="M1651.37,-164.9C1666.58,-157.5 1686.77,-145.4 1699,-129 1708.78,-115.89 1713.56,-97.75 1715.87,-84.22"/>
<polygon fill="#63b8ff" stroke="#63b8ff" points="1719.36,-84.53 1717.29,-74.14 1712.43,-83.56 1719.36,-84.53"/>
</g>
<!-- Node11 -->
<g id="node11" class="node">
<title>Node11</title>
<g id="a_node11"><a xlink:title=" ">
<polygon fill="#e0e0e0" stroke="#999999" points="1689.5,-129 1610.5,-129 1610.5,-110 1689.5,-110 1689.5,-129"/>
<text text-anchor="middle" x="1650" y="-117" font-family="Helvetica,sans-Serif" font-size="10.00">wx/msgdlg.h</text>
</a>
</g>
</g>
<!-- Node10&#45;&gt;Node11 -->
<g id="edge11" class="edge">
<title>Node10&#45;&gt;Node11</title>
<path fill="none" stroke="#63b8ff" d="M1634.14,-164.75C1636.68,-157.65 1640.36,-147.4 1643.53,-138.56"/>
<polygon fill="#63b8ff" stroke="#63b8ff" points="1646.84,-139.68 1646.92,-129.09 1640.25,-137.32 1646.84,-139.68"/>
</g>
<!-- Node12 -->
<g id="node12" class="node">
<title>Node12</title>
<g id="a_node12"><a xlink:title=" ">
<polygon fill="#e0e0e0" stroke="#999999" points="1592,-129 1534,-129 1534,-110 1592,-110 1592,-129"/>
<text text-anchor="middle" x="1563" y="-117" font-family="Helvetica,sans-Serif" font-size="10.00">wx/log.h</text>
</a>
</g>
</g>
<!-- Node10&#45;&gt;Node12 -->
<g id="edge12" class="edge">
<title>Node10&#45;&gt;Node12</title>
<path fill="none" stroke="#63b8ff" d="M1620.07,-164.98C1609.92,-157.07 1594.58,-145.11 1582.35,-135.58"/>
<polygon fill="#63b8ff" stroke="#63b8ff" points="1584.16,-132.56 1574.12,-129.17 1579.86,-138.08 1584.16,-132.56"/>
</g>
<!-- Node13&#45;&gt;Node3 -->
<g id="edge14" class="edge">
<title>Node13&#45;&gt;Node3</title>
<path fill="none" stroke="#63b8ff" d="M599.07,-166.19C602.43,-165.76 605.76,-165.36 609,-165 817.21,-141.8 871.3,-156.41 1079,-129 1124.28,-123.02 1134.73,-116.11 1180,-110 1362.44,-85.36 1581.66,-72.33 1673.8,-67.6"/>
<polygon fill="#63b8ff" stroke="#63b8ff" points="1674.07,-71.1 1683.88,-67.1 1673.71,-64.1 1674.07,-71.1"/>
</g>
<!-- Node13&#45;&gt;Node6 -->
<g id="edge20" class="edge">
<title>Node13&#45;&gt;Node6</title>
<path fill="none" stroke="#63b8ff" d="M599.07,-166.17C602.43,-165.74 605.76,-165.35 609,-165 839.33,-140.19 898.05,-147.22 1129,-129 1145.28,-127.72 1163.11,-126.17 1178.93,-124.76"/>
<polygon fill="#63b8ff" stroke="#63b8ff" points="1179.35,-128.24 1189,-123.85 1178.73,-121.26 1179.35,-128.24"/>
</g>
<!-- Node13&#45;&gt;Node9 -->
<g id="edge17" class="edge">
<title>Node13&#45;&gt;Node9</title>
<path fill="none" stroke="#63b8ff" d="M599.07,-166.11C602.42,-165.7 605.76,-165.33 609,-165 901.74,-135.64 976.8,-153.36 1270,-129 1277.01,-128.42 1284.38,-127.71 1291.66,-126.96"/>
<polygon fill="#63b8ff" stroke="#63b8ff" points="1292.26,-130.41 1301.84,-125.87 1291.52,-123.45 1292.26,-130.41"/>
</g>
<!-- Node14 -->
<g id="node14" class="node">
<title>Node14</title>
<g id="a_node14"><a xlink:title=" ">
<polygon fill="#e0e0e0" stroke="#999999" points="743,-129 671,-129 671,-110 743,-110 743,-129"/>
<text text-anchor="middle" x="707" y="-117" font-family="Helvetica,sans-Serif" font-size="10.00">wx/colour.h</text>
</a>
</g>
</g>
<!-- Node13&#45;&gt;Node14 -->
<g id="edge15" class="edge">
<title>Node13&#45;&gt;Node14</title>
<path fill="none" stroke="#63b8ff" d="M576.06,-164.98C602.03,-156.16 642.81,-142.31 671.96,-132.41"/>
<polygon fill="#63b8ff" stroke="#63b8ff" points="673.4,-135.61 681.74,-129.08 671.15,-128.99 673.4,-135.61"/>
</g>
<!-- Node15 -->
<g id="node15" class="node">
<title>Node15</title>
<g id="a_node15"><a xlink:title=" ">
<polygon fill="#e0e0e0" stroke="#999999" points="899,-129 861,-129 861,-110 899,-110 899,-129"/>
<text text-anchor="middle" x="880" y="-117" font-family="Helvetica,sans-Serif" font-size="10.00">map</text>
</a>
</g>
</g>
<!-- Node13&#45;&gt;Node15 -->
<g id="edge16" class="edge">
<title>Node13&#45;&gt;Node15</title>
<path fill="none" stroke="#63b8ff" d="M599.1,-166.44C673.61,-155.48 811.84,-135.15 850.94,-128.56"/>
<polygon fill="#63b8ff" stroke="#63b8ff" points="851.62,-131.99 860.82,-126.73 850.35,-125.11 851.62,-131.99"/>
</g>
<!-- Node16 -->
<g id="node16" class="node">
<title>Node16</title>
<g id="a_node16"><a xlink:title=" ">
<polygon fill="#e0e0e0" stroke="#999999" points="961,-129 917,-129 917,-110 961,-110 961,-129"/>
<text text-anchor="middle" x="939" y="-117" font-family="Helvetica,sans-Serif" font-size="10.00">string</text>
</a>
</g>
</g>
<!-- Node13&#45;&gt;Node16 -->
<g id="edge18" class="edge">
<title>Node13&#45;&gt;Node16</title>
<path fill="none" stroke="#63b8ff" d="M599.09,-166.35C602.44,-165.89 605.77,-165.43 609,-165 738.43,-147.73 774.89,-154.42 906.67,-129"/>
<polygon fill="#63b8ff" stroke="#63b8ff" points="907.6,-132.38 916.74,-127.03 906.26,-125.51 907.6,-132.38"/>
</g>
<!-- Node17 -->
<g id="node17" class="node">
<title>Node17</title>
<g id="a_node17"><a xlink:title=" ">
<polygon fill="#e0e0e0" stroke="#999999" points="1036.5,-129 979.5,-129 979.5,-110 1036.5,-110 1036.5,-129"/>
<text text-anchor="middle" x="1008" y="-117" font-family="Helvetica,sans-Serif" font-size="10.00">ostream</text>
</a>
</g>
</g>
<!-- Node13&#45;&gt;Node17 -->
<g id="edge19" class="edge">
<title>Node13&#45;&gt;Node17</title>
<path fill="none" stroke="#63b8ff" d="M599.08,-166.28C602.44,-165.83 605.77,-165.4 609,-165 765.75,-145.71 809.05,-154.27 969.22,-128.91"/>
<polygon fill="#63b8ff" stroke="#63b8ff" points="970.12,-132.32 979.44,-127.28 969.01,-125.4 970.12,-132.32"/>
</g>
<!-- Node18 -->
<g id="node18" class="node">
<title>Node18</title>
<g id="a_node18"><a xlink:title=" ">
<polygon fill="#e0e0e0" stroke="#999999" points="522,-74 460,-74 460,-55 522,-55 522,-74"/>
<text text-anchor="middle" x="491" y="-62" font-family="Helvetica,sans-Serif" font-size="10.00">wx/font.h</text>
</a>
</g>
</g>
<!-- Node13&#45;&gt;Node18 -->
<g id="edge21" class="edge">
<title>Node13&#45;&gt;Node18</title>
<path fill="none" stroke="#63b8ff" d="M546.19,-164.98C541.14,-156.03 532.98,-141.54 526,-129 517.4,-113.55 507.7,-95.94 500.7,-83.19"/>
<polygon fill="#63b8ff" stroke="#63b8ff" points="503.61,-81.22 495.73,-74.14 497.48,-84.59 503.61,-81.22"/>
</g>
<!-- Node19 -->
<g id="node19" class="node">
<title>Node19</title>
<g id="a_node19"><a xlink:title=" ">
<polygon fill="#e0e0e0" stroke="#999999" points="843,-129 761,-129 761,-110 843,-110 843,-129"/>
<text text-anchor="middle" x="802" y="-117" font-family="Helvetica,sans-Serif" font-size="10.00">wx/settings.h</text>
</a>
</g>
</g>
<!-- Node13&#45;&gt;Node19 -->
<g id="edge22" class="edge">
<title>Node13&#45;&gt;Node19</title>
<path fill="none" stroke="#63b8ff" d="M591.33,-164.98C634.84,-155.8 704.2,-141.15 751.35,-131.19"/>
<polygon fill="#63b8ff" stroke="#63b8ff" points="752.3,-134.57 761.36,-129.08 750.85,-127.72 752.3,-134.57"/>
</g>
<!-- Node13&#45;&gt;Node20 -->
<g id="edge23" class="edge">
<title>Node13&#45;&gt;Node20</title>
<path fill="none" stroke="#63b8ff" d="M502.86,-167.22C447.06,-159.61 352.44,-145.72 272,-129 195.67,-113.14 107.49,-89.05 59.87,-75.56"/>
<polygon fill="#63b8ff" stroke="#63b8ff" points="60.64,-72.14 50.06,-72.77 58.72,-78.88 60.64,-72.14"/>
</g>
<!-- Node21 -->
<g id="node21" class="node">
<title>Node21</title>
<g id="a_node21"><a xlink:title=" ">
<polygon fill="#e0e0e0" stroke="#999999" points="552.5,-19 487.5,-19 487.5,0 552.5,0 552.5,-19"/>
<text text-anchor="middle" x="520" y="-7" font-family="Helvetica,sans-Serif" font-size="10.00">functional</text>
</a>
</g>
</g>
<!-- Node13&#45;&gt;Node21 -->
<g id="edge24" class="edge">
<title>Node13&#45;&gt;Node21</title>
<path fill="none" stroke="#63b8ff" d="M599.08,-166.22C602.43,-165.78 605.76,-165.37 609,-165 706.24,-153.88 1098.86,-192.38 1046,-110 993.8,-28.65 679.16,-13.81 563.03,-11.1"/>
<polygon fill="#63b8ff" stroke="#63b8ff" points="562.82,-7.6 552.74,-10.88 562.67,-14.6 562.82,-7.6"/>
</g>
<!-- Node22 -->
<g id="node22" class="node">
<title>Node22</title>
<g id="a_node22"><a xlink:href="FontAttribs_8h_source.html" target="_top" xlink:title=" ">
<polygon fill="white" stroke="#666666" points="360.5,-129 281.5,-129 281.5,-110 360.5,-110 360.5,-129"/>
<text text-anchor="middle" x="321" y="-117" font-family="Helvetica,sans-Serif" font-size="10.00">FontAttribs.h</text>
</a>
</g>
</g>
<!-- Node13&#45;&gt;Node22 -->
<g id="edge25" class="edge">
<title>Node13&#45;&gt;Node22</title>
<path fill="none" stroke="#63b8ff" d="M514.05,-164.98C474.43,-155.86 411.41,-141.33 368.23,-131.38"/>
<polygon fill="#63b8ff" stroke="#63b8ff" points="368.77,-127.92 358.24,-129.08 367.2,-134.74 368.77,-127.92"/>
</g>
<!-- Node29 -->
<g id="node29" class="node">
<title>Node29</title>
<g id="a_node29"><a xlink:href="FontVariantCache_8h.html" target="_top" xlink:title="This file implements the wxFont cache system.">
<polygon fill="white" stroke="#666666" points="652.5,-129 541.5,-129 541.5,-110 652.5,-110 652.5,-129"/>
<text text-anchor="middle" x="597" y="-117" font-family="Helvetica,sans-Serif" font-size="10.00">FontVariantCache.h</text>
</a>
</g>
</g>
<!-- Node13&#45;&gt;Node29 -->
<g id="edge36" class="edge">
<title>Node13&#45;&gt;Node29</title>
<path fill="none" stroke="#63b8ff" d="M558.6,-164.75C565.16,-157.18 574.82,-146.05 582.81,-136.84"/>
<polygon fill="#63b8ff" stroke="#63b8ff" points="585.63,-138.94 589.55,-129.09 580.35,-134.35 585.63,-138.94"/>
</g>
<!-- Node13&#45;&gt;Node33 -->
<g id="edge44" class="edge">
<title>Node13&#45;&gt;Node33</title>
<path fill="none" stroke="#63b8ff" d="M544.86,-164.97C536.67,-152.47 524.2,-128.65 533,-110 539.01,-97.26 550.66,-86.92 561.61,-79.44"/>
<polygon fill="#63b8ff" stroke="#63b8ff" points="563.54,-82.36 570.11,-74.05 559.79,-76.44 563.54,-82.36"/>
</g>
<!-- Node22&#45;&gt;Node18 -->
<g id="edge30" class="edge">
<title>Node22&#45;&gt;Node18</title>
<path fill="none" stroke="#63b8ff" d="M348.31,-109.98C376.85,-101.09 421.83,-87.07 453.64,-77.15"/>
<polygon fill="#63b8ff" stroke="#63b8ff" points="454.97,-80.4 463.47,-74.08 452.88,-73.72 454.97,-80.4"/>
</g>
<!-- Node22&#45;&gt;Node20 -->
<g id="edge33" class="edge">
<title>Node22&#45;&gt;Node20</title>
<path fill="none" stroke="#63b8ff" d="M281.32,-112.73C231.8,-105.32 144.33,-91.52 60.18,-74.11"/>
<polygon fill="#63b8ff" stroke="#63b8ff" points="60.71,-70.65 50.2,-72.03 59.27,-77.5 60.71,-70.65"/>
</g>
<!-- Node22&#45;&gt;Node21 -->
<g id="edge34" class="edge">
<title>Node22&#45;&gt;Node21</title>
<path fill="none" stroke="#63b8ff" d="M325.29,-109.69C332.44,-95.94 348.09,-69.46 369,-55 401.45,-32.56 445.33,-21.27 477.42,-15.7"/>
<polygon fill="#63b8ff" stroke="#63b8ff" points="478.08,-19.14 487.4,-14.09 476.96,-12.23 478.08,-19.14"/>
</g>
<!-- Node23 -->
<g id="node23" class="node">
<title>Node23</title>
<g id="a_node23"><a xlink:href="EnumWrapper_8h_source.html" target="_top" xlink:title=" ">
<polygon fill="white" stroke="#666666" points="260,-74 166,-74 166,-55 260,-55 260,-74"/>
<text text-anchor="middle" x="213" y="-62" font-family="Helvetica,sans-Serif" font-size="10.00">EnumWrapper.h</text>
</a>
</g>
</g>
<!-- Node22&#45;&gt;Node23 -->
<g id="edge26" class="edge">
<title>Node22&#45;&gt;Node23</title>
<path fill="none" stroke="#63b8ff" d="M303.65,-109.98C286.43,-101.54 259.8,-88.47 239.85,-78.68"/>
<polygon fill="#63b8ff" stroke="#63b8ff" points="241.19,-75.43 230.67,-74.17 238.1,-81.72 241.19,-75.43"/>
</g>
<!-- Node26 -->
<g id="node26" class="node">
<title>Node26</title>
<g id="a_node26"><a xlink:title=" ">
<polygon fill="#e0e0e0" stroke="#999999" points="147.5,-74 68.5,-74 68.5,-55 147.5,-55 147.5,-74"/>
<text text-anchor="middle" x="108" y="-62" font-family="Helvetica,sans-Serif" font-size="10.00">wx/version.h</text>
</a>
</g>
</g>
<!-- Node22&#45;&gt;Node26 -->
<g id="edge31" class="edge">
<title>Node22&#45;&gt;Node26</title>
<path fill="none" stroke="#63b8ff" d="M286.78,-109.98C250.24,-100.89 192.22,-86.46 152.24,-76.51"/>
<polygon fill="#63b8ff" stroke="#63b8ff" points="153.04,-73.1 142.49,-74.08 151.35,-79.89 153.04,-73.1"/>
</g>
<!-- Node22&#45;&gt;Node27 -->
<g id="edge32" class="edge">
<title>Node22&#45;&gt;Node27</title>
<path fill="none" stroke="#63b8ff" d="M335.3,-109.98C349.1,-101.77 370.24,-89.18 386.51,-79.49"/>
<polygon fill="#63b8ff" stroke="#63b8ff" points="388.64,-82.29 395.44,-74.17 385.06,-76.28 388.64,-82.29"/>
</g>
<!-- Node28 -->
<g id="node28" class="node">
<title>Node28</title>
<g id="a_node28"><a xlink:title=" ">
<polygon fill="#e0e0e0" stroke="#999999" points="322,-74 278,-74 278,-55 322,-55 322,-74"/>
<text text-anchor="middle" x="300" y="-62" font-family="Helvetica,sans-Serif" font-size="10.00">limits</text>
</a>
</g>
</g>
<!-- Node22&#45;&gt;Node28 -->
<g id="edge35" class="edge">
<title>Node22&#45;&gt;Node28</title>
<path fill="none" stroke="#63b8ff" d="M317.53,-109.75C314.72,-102.65 310.66,-92.4 307.15,-83.56"/>
<polygon fill="#63b8ff" stroke="#63b8ff" points="310.34,-82.1 303.4,-74.09 303.83,-84.68 310.34,-82.1"/>
</g>
<!-- Node23&#45;&gt;Node21 -->
<g id="edge28" class="edge">
<title>Node23&#45;&gt;Node21</title>
<path fill="none" stroke="#63b8ff" d="M260.3,-55.33C319.52,-45.11 420.1,-27.75 477.15,-17.9"/>
<polygon fill="#63b8ff" stroke="#63b8ff" points="478.02,-21.3 487.28,-16.15 476.83,-14.4 478.02,-21.3"/>
</g>
<!-- Node24 -->
<g id="node24" class="node">
<title>Node24</title>
<g id="a_node24"><a xlink:title=" ">
<polygon fill="#e0e0e0" stroke="#999999" points="200.5,-19 147.5,-19 147.5,0 200.5,0 200.5,-19"/>
<text text-anchor="middle" x="174" y="-7" font-family="Helvetica,sans-Serif" font-size="10.00">cstddef</text>
</a>
</g>
</g>
<!-- Node23&#45;&gt;Node24 -->
<g id="edge27" class="edge">
<title>Node23&#45;&gt;Node24</title>
<path fill="none" stroke="#63b8ff" d="M206.56,-54.75C201.11,-47.34 193.14,-36.5 186.44,-27.41"/>
<polygon fill="#63b8ff" stroke="#63b8ff" points="189.07,-25.07 180.32,-19.09 183.43,-29.22 189.07,-25.07"/>
</g>
<!-- Node25 -->
<g id="node25" class="node">
<title>Node25</title>
<g id="a_node25"><a xlink:title=" ">
<polygon fill="#e0e0e0" stroke="#999999" points="287.5,-19 218.5,-19 218.5,0 287.5,0 287.5,-19"/>
<text text-anchor="middle" x="253" y="-7" font-family="Helvetica,sans-Serif" font-size="10.00">type_traits</text>
</a>
</g>
</g>
<!-- Node23&#45;&gt;Node25 -->
<g id="edge29" class="edge">
<title>Node23&#45;&gt;Node25</title>
<path fill="none" stroke="#63b8ff" d="M219.61,-54.75C225.26,-47.26 233.54,-36.28 240.45,-27.13"/>
<polygon fill="#63b8ff" stroke="#63b8ff" points="243.29,-29.18 246.52,-19.09 237.7,-24.96 243.29,-29.18"/>
</g>
<!-- Node29&#45;&gt;Node3 -->
<g id="edge37" class="edge">
<title>Node29&#45;&gt;Node3</title>
<path fill="none" stroke="#63b8ff" d="M652.63,-110.9C655.8,-110.57 658.94,-110.26 662,-110 687.59,-107.79 1476.84,-75.38 1673.8,-67.31"/>
<polygon fill="#63b8ff" stroke="#63b8ff" points="1673.95,-70.81 1683.8,-66.9 1673.67,-63.81 1673.95,-70.81"/>
</g>
<!-- Node29&#45;&gt;Node18 -->
<g id="edge39" class="edge">
<title>Node29&#45;&gt;Node18</title>
<path fill="none" stroke="#63b8ff" d="M579.97,-109.98C563.07,-101.54 536.94,-88.47 517.36,-78.68"/>
<polygon fill="#63b8ff" stroke="#63b8ff" points="518.85,-75.51 508.34,-74.17 515.72,-81.77 518.85,-75.51"/>
</g>
<!-- Node29&#45;&gt;Node21 -->
<g id="edge40" class="edge">
<title>Node29&#45;&gt;Node21</title>
<path fill="none" stroke="#63b8ff" d="M611.08,-109.93C629.24,-97.79 656.92,-74.84 643,-55 624.94,-29.26 590.42,-18.34 562.54,-13.75"/>
<polygon fill="#63b8ff" stroke="#63b8ff" points="563,-10.28 552.61,-12.32 562.01,-17.21 563,-10.28"/>
</g>
<!-- Node29&#45;&gt;Node30 -->
<g id="edge38" class="edge">
<title>Node29&#45;&gt;Node30</title>
<path fill="none" stroke="#63b8ff" d="M652.64,-110.95C655.8,-110.6 658.94,-110.28 662,-110 955.64,-82.73 1311.13,-70.23 1428.39,-66.64"/>
<polygon fill="#63b8ff" stroke="#63b8ff" points="1428.77,-70.13 1438.66,-66.33 1428.56,-63.13 1428.77,-70.13"/>
</g>
<!-- Node29&#45;&gt;Node31 -->
<g id="edge41" class="edge">
<title>Node29&#45;&gt;Node31</title>
<path fill="none" stroke="#63b8ff" d="M645.84,-109.98C711.03,-98.62 824.14,-78.9 874.96,-70.04"/>
<polygon fill="#63b8ff" stroke="#63b8ff" points="875.57,-73.49 884.82,-68.32 874.36,-66.59 875.57,-73.49"/>
</g>
<!-- Node32 -->
<g id="node32" class="node">
<title>Node32</title>
<g id="a_node32"><a xlink:title=" ">
<polygon fill="#e0e0e0" stroke="#999999" points="735.5,-74 690.5,-74 690.5,-55 735.5,-55 735.5,-74"/>
<text text-anchor="middle" x="713" y="-62" font-family="Helvetica,sans-Serif" font-size="10.00">utility</text>
</a>
</g>
</g>
<!-- Node29&#45;&gt;Node32 -->
<g id="edge42" class="edge">
<title>Node29&#45;&gt;Node32</title>
<path fill="none" stroke="#63b8ff" d="M615.64,-109.98C634.3,-101.46 663.25,-88.23 684.74,-78.41"/>
<polygon fill="#63b8ff" stroke="#63b8ff" points="686.38,-81.51 694.02,-74.17 683.47,-75.14 686.38,-81.51"/>
</g>
<!-- Node29&#45;&gt;Node33 -->
<g id="edge43" class="edge">
<title>Node29&#45;&gt;Node33</title>
<path fill="none" stroke="#63b8ff" d="M595.35,-109.75C594.04,-102.8 592.16,-92.85 590.52,-84.13"/>
<polygon fill="#63b8ff" stroke="#63b8ff" points="593.91,-83.27 588.62,-74.09 587.04,-84.56 593.91,-83.27"/>
</g>
</g>
</svg>
