<?xml version="1.0" encoding="UTF-8" standalone="no"?>
<!DOCTYPE svg PUBLIC "-//W3C//DTD SVG 1.1//EN"
 "http://www.w3.org/Graphics/SVG/1.1/DTD/svg11.dtd">
<!-- Generated by graphviz version 2.43.0 (0)
 -->
<!-- Title: src/cells/ParenCell.cpp Pages: 1 -->
<svg width="2221pt" height="476pt"
 viewBox="0.00 0.00 2220.71 476.00" xmlns="http://www.w3.org/2000/svg" xmlns:xlink="http://www.w3.org/1999/xlink">
<g id="graph0" class="graph" transform="scale(1 1) rotate(0) translate(4 472)">
<title>src/cells/ParenCell.cpp</title>
<polygon fill="white" stroke="transparent" points="-4,4 -4,-472 2216.71,-472 2216.71,4 -4,4"/>
<!-- Node1 -->
<g id="node1" class="node">
<title>Node1</title>
<g id="a_node1"><a xlink:title="This file defines the class ParenCell.">
<polygon fill="#bfbfbf" stroke="black" points="876.5,-448.5 876.5,-467.5 1001.5,-467.5 1001.5,-448.5 876.5,-448.5"/>
<text text-anchor="middle" x="939" y="-455.5" font-family="Helvetica,sans-Serif" font-size="10.00">src/cells/ParenCell.cpp</text>
</a>
</g>
</g>
<!-- Node2 -->
<g id="node2" class="node">
<title>Node2</title>
<g id="a_node2"><a xlink:href="ParenCell_8h.html" target="_top" xlink:title="This file declares the class ParenCell.">
<polygon fill="white" stroke="black" points="903.5,-336.5 903.5,-355.5 974.5,-355.5 974.5,-336.5 903.5,-336.5"/>
<text text-anchor="middle" x="939" y="-343.5" font-family="Helvetica,sans-Serif" font-size="10.00">ParenCell.h</text>
</a>
</g>
</g>
<!-- Node1&#45;&gt;Node2 -->
<g id="edge1" class="edge">
<title>Node1&#45;&gt;Node2</title>
<path fill="none" stroke="midnightblue" d="M939,-448.37C939,-430.62 939,-389.67 939,-365.6"/>
<polygon fill="midnightblue" stroke="midnightblue" points="942.5,-365.59 939,-355.59 935.5,-365.59 942.5,-365.59"/>
</g>
<!-- Node52 -->
<g id="node47" class="node">
<title>Node52</title>
<g id="a_node47"><a xlink:href="CellImpl_8h.html" target="_top" xlink:title="Macros and types used only by cell implementations, not by cell users.">
<polygon fill="white" stroke="black" points="469,-392.5 469,-411.5 535,-411.5 535,-392.5 469,-392.5"/>
<text text-anchor="middle" x="502" y="-399.5" font-family="Helvetica,sans-Serif" font-size="10.00">CellImpl.h</text>
</a>
</g>
</g>
<!-- Node1&#45;&gt;Node52 -->
<g id="edge80" class="edge">
<title>Node1&#45;&gt;Node52</title>
<path fill="none" stroke="midnightblue" d="M876.39,-449.26C786.57,-438.16 623.4,-418 545.57,-408.38"/>
<polygon fill="midnightblue" stroke="midnightblue" points="545.53,-404.85 535.17,-407.1 544.67,-411.8 545.53,-404.85"/>
</g>
<!-- Node53 -->
<g id="node48" class="node">
<title>Node53</title>
<g id="a_node48"><a xlink:href="VisiblyInvalidCell_8h_source.html" target="_top" xlink:title=" ">
<polygon fill="white" stroke="black" points="968,-392.5 968,-411.5 1078,-411.5 1078,-392.5 968,-392.5"/>
<text text-anchor="middle" x="1023" y="-399.5" font-family="Helvetica,sans-Serif" font-size="10.00">VisiblyInvalidCell.h</text>
</a>
</g>
</g>
<!-- Node1&#45;&gt;Node53 -->
<g id="edge82" class="edge">
<title>Node1&#45;&gt;Node53</title>
<path fill="none" stroke="midnightblue" d="M952.5,-448.32C965.6,-439.9 985.71,-426.97 1001.11,-417.07"/>
<polygon fill="midnightblue" stroke="midnightblue" points="1003.02,-420.01 1009.54,-411.65 999.23,-414.12 1003.02,-420.01"/>
</g>
<!-- Node3 -->
<g id="node3" class="node">
<title>Node3</title>
<g id="a_node3"><a xlink:href="Cell_8h.html" target="_top" xlink:title="The definition of the base class of all cells the worksheet consists of.">
<polygon fill="white" stroke="black" points="965,-280.5 965,-299.5 1009,-299.5 1009,-280.5 965,-280.5"/>
<text text-anchor="middle" x="987" y="-287.5" font-family="Helvetica,sans-Serif" font-size="10.00">Cell.h</text>
</a>
</g>
</g>
<!-- Node2&#45;&gt;Node3 -->
<g id="edge2" class="edge">
<title>Node2&#45;&gt;Node3</title>
<path fill="none" stroke="midnightblue" d="M946.93,-336.08C953.85,-328.3 964.07,-316.8 972.45,-307.37"/>
<polygon fill="midnightblue" stroke="midnightblue" points="975.19,-309.55 979.22,-299.75 969.96,-304.9 975.19,-309.55"/>
</g>
<!-- Node4 -->
<g id="node4" class="node">
<title>Node4</title>
<g id="a_node4"><a xlink:href="precomp_8h_source.html" target="_top" xlink:title=" ">
<polygon fill="white" stroke="black" points="1106.5,-56.5 1106.5,-75.5 1183.5,-75.5 1183.5,-56.5 1106.5,-56.5"/>
<text text-anchor="middle" x="1145" y="-63.5" font-family="Helvetica,sans-Serif" font-size="10.00">../precomp.h</text>
</a>
</g>
</g>
<!-- Node3&#45;&gt;Node4 -->
<g id="edge3" class="edge">
<title>Node3&#45;&gt;Node4</title>
<path fill="none" stroke="midnightblue" d="M1009.06,-282.38C1060.62,-266.41 1186.33,-224.39 1209,-188 1213.7,-180.46 1211.73,-176.46 1209,-168 1202.93,-149.22 1193.77,-148.54 1183,-132 1172.77,-116.29 1162.07,-97.78 1154.64,-84.54"/>
<polygon fill="midnightblue" stroke="midnightblue" points="1157.58,-82.61 1149.66,-75.57 1151.46,-86.01 1157.58,-82.61"/>
</g>
<!-- Node6 -->
<g id="node6" class="node">
<title>Node6</title>
<g id="a_node6"><a xlink:href="CellPtr_8h.html" target="_top" xlink:title="Implementation of an observing weak Cell pointer.">
<polygon fill="white" stroke="black" points="232.5,-112.5 232.5,-131.5 289.5,-131.5 289.5,-112.5 232.5,-112.5"/>
<text text-anchor="middle" x="261" y="-119.5" font-family="Helvetica,sans-Serif" font-size="10.00">CellPtr.h</text>
</a>
</g>
</g>
<!-- Node3&#45;&gt;Node6 -->
<g id="edge5" class="edge">
<title>Node3&#45;&gt;Node6</title>
<path fill="none" stroke="midnightblue" d="M964.88,-288.62C837.67,-286.33 203.89,-273.48 176,-244 152.79,-219.46 158.58,-196.94 176,-168 186.25,-150.98 205.33,-140.06 222.82,-133.25"/>
<polygon fill="midnightblue" stroke="midnightblue" points="224.06,-136.52 232.3,-129.87 221.71,-129.93 224.06,-136.52"/>
</g>
<!-- Node13 -->
<g id="node13" class="node">
<title>Node13</title>
<g id="a_node13"><a xlink:title=" ">
<polygon fill="white" stroke="#bfbfbf" points="24,-56.5 24,-75.5 82,-75.5 82,-56.5 24,-56.5"/>
<text text-anchor="middle" x="53" y="-63.5" font-family="Helvetica,sans-Serif" font-size="10.00">memory</text>
</a>
</g>
</g>
<!-- Node3&#45;&gt;Node13 -->
<g id="edge77" class="edge">
<title>Node3&#45;&gt;Node13</title>
<path fill="none" stroke="midnightblue" d="M964.9,-289.11C839.03,-289.58 215.76,-289.59 145,-244 88.01,-207.28 64.39,-123.23 56.42,-85.7"/>
<polygon fill="midnightblue" stroke="midnightblue" points="59.81,-84.78 54.43,-75.65 52.94,-86.13 59.81,-84.78"/>
</g>
<!-- Node14 -->
<g id="node14" class="node">
<title>Node14</title>
<g id="a_node14"><a xlink:title=" ">
<polygon fill="white" stroke="#bfbfbf" points="342.5,-56.5 342.5,-75.5 411.5,-75.5 411.5,-56.5 342.5,-56.5"/>
<text text-anchor="middle" x="377" y="-63.5" font-family="Helvetica,sans-Serif" font-size="10.00">type_traits</text>
</a>
</g>
</g>
<!-- Node3&#45;&gt;Node14 -->
<g id="edge79" class="edge">
<title>Node3&#45;&gt;Node14</title>
<path fill="none" stroke="midnightblue" d="M964.7,-288.56C866.47,-286.46 472.05,-276.15 353,-244 298.5,-229.28 268.85,-235.91 239,-188 234.3,-180.46 234.65,-175.75 239,-168 254.04,-141.21 272.97,-149.8 298,-132 319.98,-116.37 343.69,-96.41 359.33,-82.75"/>
<polygon fill="midnightblue" stroke="midnightblue" points="361.94,-85.12 367.13,-75.89 357.32,-79.87 361.94,-85.12"/>
</g>
<!-- Node15 -->
<g id="node15" class="node">
<title>Node15</title>
<g id="a_node15"><a xlink:href="CellIterators_8h.html" target="_top" xlink:title="Declares the various iterators useful with the Cell class.">
<polygon fill="white" stroke="black" points="128,-112.5 128,-131.5 214,-131.5 214,-112.5 128,-112.5"/>
<text text-anchor="middle" x="171" y="-119.5" font-family="Helvetica,sans-Serif" font-size="10.00">CellIterators.h</text>
</a>
</g>
</g>
<!-- Node3&#45;&gt;Node15 -->
<g id="edge14" class="edge">
<title>Node3&#45;&gt;Node15</title>
<path fill="none" stroke="midnightblue" d="M964.87,-288.64C836.13,-286.47 188.49,-274.08 160,-244 133.75,-216.28 150.11,-167.28 161.96,-140.94"/>
<polygon fill="midnightblue" stroke="midnightblue" points="165.19,-142.29 166.32,-131.76 158.87,-139.28 165.19,-142.29"/>
</g>
<!-- Node16 -->
<g id="node16" class="node">
<title>Node16</title>
<g id="a_node16"><a xlink:href="Configuration_8h_source.html" target="_top" xlink:title=" ">
<polygon fill="white" stroke="black" points="853.5,-224.5 853.5,-243.5 944.5,-243.5 944.5,-224.5 853.5,-224.5"/>
<text text-anchor="middle" x="899" y="-231.5" font-family="Helvetica,sans-Serif" font-size="10.00">Configuration.h</text>
</a>
</g>
</g>
<!-- Node3&#45;&gt;Node16 -->
<g id="edge18" class="edge">
<title>Node3&#45;&gt;Node16</title>
<path fill="none" stroke="midnightblue" d="M972.86,-280.32C959.13,-271.9 938.06,-258.97 921.94,-249.07"/>
<polygon fill="midnightblue" stroke="midnightblue" points="923.46,-245.9 913.1,-243.65 919.8,-251.87 923.46,-245.9"/>
</g>
<!-- Node24 -->
<g id="node23" class="node">
<title>Node24</title>
<g id="a_node23"><a xlink:href="TextStyle_8h.html" target="_top" xlink:title="This file declares everything needed for the text style system used to style all the elements on the ...">
<polygon fill="white" stroke="black" points="1420,-168.5 1420,-187.5 1516,-187.5 1516,-168.5 1420,-168.5"/>
<text text-anchor="middle" x="1468" y="-175.5" font-family="Helvetica,sans-Serif" font-size="10.00">cells/TextStyle.h</text>
</a>
</g>
</g>
<!-- Node3&#45;&gt;Node24 -->
<g id="edge68" class="edge">
<title>Node3&#45;&gt;Node24</title>
<path fill="none" stroke="midnightblue" d="M1009.3,-282.38C1012.54,-281.52 1015.84,-280.7 1019,-280 1117.04,-258.37 1144.03,-265.91 1242,-244 1310.2,-228.75 1388.23,-204.83 1432.46,-190.66"/>
<polygon fill="midnightblue" stroke="midnightblue" points="1433.72,-193.93 1442.16,-187.53 1431.57,-187.27 1433.72,-193.93"/>
</g>
<!-- Node26 -->
<g id="node25" class="node">
<title>Node26</title>
<g id="a_node25"><a xlink:title=" ">
<polygon fill="white" stroke="#bfbfbf" points="1970,-112.5 1970,-131.5 2008,-131.5 2008,-112.5 1970,-112.5"/>
<text text-anchor="middle" x="1989" y="-119.5" font-family="Helvetica,sans-Serif" font-size="10.00">map</text>
</a>
</g>
</g>
<!-- Node3&#45;&gt;Node26 -->
<g id="edge76" class="edge">
<title>Node3&#45;&gt;Node26</title>
<path fill="none" stroke="midnightblue" d="M1009.23,-282C1012.48,-281.2 1015.81,-280.49 1019,-280 1082.62,-270.21 2123.55,-279.86 2177,-244 2206.53,-224.19 2224.39,-195.62 2202,-168 2179.17,-139.85 2071,-128.62 2018.17,-124.76"/>
<polygon fill="midnightblue" stroke="midnightblue" points="2018.3,-121.26 2008.09,-124.06 2017.82,-128.24 2018.3,-121.26"/>
</g>
<!-- Node37 -->
<g id="node32" class="node">
<title>Node37</title>
<g id="a_node32"><a xlink:title=" ">
<polygon fill="white" stroke="#bfbfbf" points="1910,-56.5 1910,-75.5 1974,-75.5 1974,-56.5 1910,-56.5"/>
<text text-anchor="middle" x="1942" y="-63.5" font-family="Helvetica,sans-Serif" font-size="10.00">algorithm</text>
</a>
</g>
</g>
<!-- Node3&#45;&gt;Node37 -->
<g id="edge75" class="edge">
<title>Node3&#45;&gt;Node37</title>
<path fill="none" stroke="midnightblue" d="M1009.28,-282.29C1012.52,-281.45 1015.83,-280.65 1019,-280 1139.32,-255.31 1171.33,-260.8 1293,-244 1615.55,-199.48 1806.48,-380.39 2017,-132 2034.34,-111.54 2002.87,-91.93 1975.53,-79.7"/>
<polygon fill="midnightblue" stroke="midnightblue" points="1976.69,-76.39 1966.12,-75.69 1973.95,-82.83 1976.69,-76.39"/>
</g>
<!-- Node44 -->
<g id="node39" class="node">
<title>Node44</title>
<g id="a_node39"><a xlink:title=" ">
<polygon fill="white" stroke="#bfbfbf" points="1152.5,-168.5 1152.5,-187.5 1199.5,-187.5 1199.5,-168.5 1152.5,-168.5"/>
<text text-anchor="middle" x="1176" y="-175.5" font-family="Helvetica,sans-Serif" font-size="10.00">vector</text>
</a>
</g>
</g>
<!-- Node3&#45;&gt;Node44 -->
<g id="edge78" class="edge">
<title>Node3&#45;&gt;Node44</title>
<path fill="none" stroke="midnightblue" d="M1001.83,-280.37C1034.54,-261.33 1113.09,-215.62 1152.55,-192.65"/>
<polygon fill="midnightblue" stroke="midnightblue" points="1154.36,-195.65 1161.24,-187.59 1150.84,-189.6 1154.36,-195.65"/>
</g>
<!-- Node47 -->
<g id="node42" class="node">
<title>Node47</title>
<g id="a_node42"><a xlink:href="StringUtils_8h_source.html" target="_top" xlink:title=" ">
<polygon fill="white" stroke="black" points="2008.5,-224.5 2008.5,-243.5 2085.5,-243.5 2085.5,-224.5 2008.5,-224.5"/>
<text text-anchor="middle" x="2047" y="-231.5" font-family="Helvetica,sans-Serif" font-size="10.00">StringUtils.h</text>
</a>
</g>
</g>
<!-- Node3&#45;&gt;Node47 -->
<g id="edge65" class="edge">
<title>Node3&#45;&gt;Node47</title>
<path fill="none" stroke="midnightblue" d="M1009.23,-282.02C1012.48,-281.21 1015.81,-280.5 1019,-280 1447.39,-212.83 1562.65,-288.39 1994,-244 1995.31,-243.87 1996.63,-243.72 1997.96,-243.56"/>
<polygon fill="midnightblue" stroke="midnightblue" points="1998.85,-246.97 2008.29,-242.18 1997.92,-240.04 1998.85,-246.97"/>
</g>
<!-- Node50 -->
<g id="node45" class="node">
<title>Node50</title>
<g id="a_node45"><a xlink:href="CachedValue_8h.html" target="_top" xlink:title="Declares &quot;mostly read&#45;only&quot; wrappers around values that are expensive to compute and are thus cached.">
<polygon fill="white" stroke="black" points="346.5,-112.5 346.5,-131.5 459.5,-131.5 459.5,-112.5 346.5,-112.5"/>
<text text-anchor="middle" x="403" y="-119.5" font-family="Helvetica,sans-Serif" font-size="10.00">utils/CachedValue.h</text>
</a>
</g>
</g>
<!-- Node3&#45;&gt;Node50 -->
<g id="edge69" class="edge">
<title>Node3&#45;&gt;Node50</title>
<path fill="none" stroke="midnightblue" d="M964.9,-287.69C847.02,-280.46 295.71,-243.8 247,-188 241.16,-181.3 241.66,-175.1 247,-168 258.43,-152.8 301.16,-141.12 339.01,-133.48"/>
<polygon fill="midnightblue" stroke="midnightblue" points="339.87,-136.87 349.01,-131.52 338.53,-130 339.87,-136.87"/>
</g>
<!-- Node51 -->
<g id="node46" class="node">
<title>Node51</title>
<g id="a_node46"><a xlink:title=" ">
<polygon fill="white" stroke="#bfbfbf" points="2104,-224.5 2104,-243.5 2168,-243.5 2168,-224.5 2104,-224.5"/>
<text text-anchor="middle" x="2136" y="-231.5" font-family="Helvetica,sans-Serif" font-size="10.00">wx/defs.h</text>
</a>
</g>
</g>
<!-- Node3&#45;&gt;Node51 -->
<g id="edge74" class="edge">
<title>Node3&#45;&gt;Node51</title>
<path fill="none" stroke="midnightblue" d="M1009.23,-282.01C1012.48,-281.2 1015.81,-280.5 1019,-280 1488.49,-207.21 1618.39,-302.18 2093.65,-243.9"/>
<polygon fill="midnightblue" stroke="midnightblue" points="2094.38,-247.34 2103.87,-242.63 2093.51,-240.39 2094.38,-247.34"/>
</g>
<!-- Node5 -->
<g id="node5" class="node">
<title>Node5</title>
<g id="a_node5"><a xlink:href="Version_8h_source.html" target="_top" xlink:title=" ">
<polygon fill="white" stroke="black" points="1114,-0.5 1114,-19.5 1176,-19.5 1176,-0.5 1114,-0.5"/>
<text text-anchor="middle" x="1145" y="-7.5" font-family="Helvetica,sans-Serif" font-size="10.00">Version.h</text>
</a>
</g>
</g>
<!-- Node4&#45;&gt;Node5 -->
<g id="edge4" class="edge">
<title>Node4&#45;&gt;Node5</title>
<path fill="none" stroke="midnightblue" d="M1145,-56.08C1145,-49.01 1145,-38.86 1145,-29.99"/>
<polygon fill="midnightblue" stroke="midnightblue" points="1148.5,-29.75 1145,-19.75 1141.5,-29.75 1148.5,-29.75"/>
</g>
<!-- Node7 -->
<g id="node7" class="node">
<title>Node7</title>
<g id="a_node7"><a xlink:title=" ">
<polygon fill="white" stroke="#bfbfbf" points="251.5,-56.5 251.5,-75.5 324.5,-75.5 324.5,-56.5 251.5,-56.5"/>
<text text-anchor="middle" x="288" y="-63.5" font-family="Helvetica,sans-Serif" font-size="10.00">wx/debug.h</text>
</a>
</g>
</g>
<!-- Node6&#45;&gt;Node7 -->
<g id="edge6" class="edge">
<title>Node6&#45;&gt;Node7</title>
<path fill="none" stroke="midnightblue" d="M265.46,-112.08C269.15,-104.69 274.52,-93.95 279.09,-84.81"/>
<polygon fill="midnightblue" stroke="midnightblue" points="282.28,-86.26 283.62,-75.75 276.02,-83.13 282.28,-86.26"/>
</g>
<!-- Node8 -->
<g id="node8" class="node">
<title>Node8</title>
<g id="a_node8"><a xlink:title=" ">
<polygon fill="white" stroke="#bfbfbf" points="430,-56.5 430,-75.5 488,-75.5 488,-56.5 430,-56.5"/>
<text text-anchor="middle" x="459" y="-63.5" font-family="Helvetica,sans-Serif" font-size="10.00">wx/log.h</text>
</a>
</g>
</g>
<!-- Node6&#45;&gt;Node8 -->
<g id="edge7" class="edge">
<title>Node6&#45;&gt;Node8</title>
<path fill="none" stroke="midnightblue" d="M289.79,-113.15C324.15,-103.78 381.76,-88.06 420.07,-77.62"/>
<polygon fill="midnightblue" stroke="midnightblue" points="421.13,-80.96 429.85,-74.95 419.28,-74.2 421.13,-80.96"/>
</g>
<!-- Node9 -->
<g id="node9" class="node">
<title>Node9</title>
<g id="a_node9"><a xlink:title=" ">
<polygon fill="white" stroke="#bfbfbf" points="634.5,-56.5 634.5,-75.5 679.5,-75.5 679.5,-56.5 634.5,-56.5"/>
<text text-anchor="middle" x="657" y="-63.5" font-family="Helvetica,sans-Serif" font-size="10.00">utility</text>
</a>
</g>
</g>
<!-- Node6&#45;&gt;Node9 -->
<g id="edge8" class="edge">
<title>Node6&#45;&gt;Node9</title>
<path fill="none" stroke="midnightblue" d="M289.8,-117.07C361.7,-107.27 548.76,-81.76 624.47,-71.44"/>
<polygon fill="midnightblue" stroke="midnightblue" points="624.96,-74.9 634.4,-70.08 624.01,-67.97 624.96,-74.9"/>
</g>
<!-- Node10 -->
<g id="node10" class="node">
<title>Node10</title>
<g id="a_node10"><a xlink:title=" ">
<polygon fill="white" stroke="#bfbfbf" points="180.5,-56.5 180.5,-75.5 233.5,-75.5 233.5,-56.5 180.5,-56.5"/>
<text text-anchor="middle" x="207" y="-63.5" font-family="Helvetica,sans-Serif" font-size="10.00">cstddef</text>
</a>
</g>
</g>
<!-- Node6&#45;&gt;Node10 -->
<g id="edge9" class="edge">
<title>Node6&#45;&gt;Node10</title>
<path fill="none" stroke="midnightblue" d="M252.08,-112.08C244.22,-104.22 232.57,-92.57 223.08,-83.08"/>
<polygon fill="midnightblue" stroke="midnightblue" points="225.3,-80.35 215.75,-75.75 220.35,-85.3 225.3,-80.35"/>
</g>
<!-- Node11 -->
<g id="node11" class="node">
<title>Node11</title>
<g id="a_node11"><a xlink:title=" ">
<polygon fill="white" stroke="#bfbfbf" points="925,-56.5 925,-75.5 975,-75.5 975,-56.5 925,-56.5"/>
<text text-anchor="middle" x="950" y="-63.5" font-family="Helvetica,sans-Serif" font-size="10.00">cstdint</text>
</a>
</g>
</g>
<!-- Node6&#45;&gt;Node11 -->
<g id="edge10" class="edge">
<title>Node6&#45;&gt;Node11</title>
<path fill="none" stroke="midnightblue" d="M289.84,-117.28C304.03,-115.53 321.39,-113.5 337,-112 556.39,-90.97 820.79,-74.58 914.76,-69.03"/>
<polygon fill="midnightblue" stroke="midnightblue" points="915.08,-72.52 924.86,-68.44 914.67,-65.53 915.08,-72.52"/>
</g>
<!-- Node12 -->
<g id="node12" class="node">
<title>Node12</title>
<g id="a_node12"><a xlink:title=" ">
<polygon fill="white" stroke="#bfbfbf" points="100,-56.5 100,-75.5 162,-75.5 162,-56.5 100,-56.5"/>
<text text-anchor="middle" x="131" y="-63.5" font-family="Helvetica,sans-Serif" font-size="10.00">cinttypes</text>
</a>
</g>
</g>
<!-- Node6&#45;&gt;Node12 -->
<g id="edge11" class="edge">
<title>Node6&#45;&gt;Node12</title>
<path fill="none" stroke="midnightblue" d="M240.4,-112.44C219.01,-103.56 185.32,-89.56 160.98,-79.45"/>
<polygon fill="midnightblue" stroke="midnightblue" points="162.08,-76.12 151.5,-75.52 159.39,-82.58 162.08,-76.12"/>
</g>
<!-- Node6&#45;&gt;Node13 -->
<g id="edge12" class="edge">
<title>Node6&#45;&gt;Node13</title>
<path fill="none" stroke="midnightblue" d="M232.08,-113.49C195.55,-104.01 132.55,-87.65 91.85,-77.09"/>
<polygon fill="midnightblue" stroke="midnightblue" points="92.57,-73.66 82.01,-74.53 90.81,-80.43 92.57,-73.66"/>
</g>
<!-- Node6&#45;&gt;Node14 -->
<g id="edge13" class="edge">
<title>Node6&#45;&gt;Node14</title>
<path fill="none" stroke="midnightblue" d="M279.38,-112.44C298.22,-103.68 327.73,-89.94 349.38,-79.86"/>
<polygon fill="midnightblue" stroke="midnightblue" points="351.12,-82.91 358.71,-75.52 348.16,-76.56 351.12,-82.91"/>
</g>
<!-- Node15&#45;&gt;Node7 -->
<g id="edge15" class="edge">
<title>Node15&#45;&gt;Node7</title>
<path fill="none" stroke="midnightblue" d="M189.54,-112.44C208.62,-103.64 238.57,-89.81 260.44,-79.72"/>
<polygon fill="midnightblue" stroke="midnightblue" points="261.93,-82.88 269.55,-75.52 259,-76.53 261.93,-82.88"/>
</g>
<!-- Node15&#45;&gt;Node13 -->
<g id="edge16" class="edge">
<title>Node15&#45;&gt;Node13</title>
<path fill="none" stroke="midnightblue" d="M152.3,-112.44C133.06,-103.64 102.85,-89.81 80.8,-79.72"/>
<polygon fill="midnightblue" stroke="midnightblue" points="82.16,-76.5 71.61,-75.52 79.25,-82.86 82.16,-76.5"/>
</g>
<!-- Node15&#45;&gt;Node14 -->
<g id="edge17" class="edge">
<title>Node15&#45;&gt;Node14</title>
<path fill="none" stroke="midnightblue" d="M203.64,-112.44C239.05,-103.16 295.71,-88.31 334.55,-78.13"/>
<polygon fill="midnightblue" stroke="midnightblue" points="335.73,-81.44 344.51,-75.52 333.95,-74.67 335.73,-81.44"/>
</g>
<!-- Node16&#45;&gt;Node4 -->
<g id="edge19" class="edge">
<title>Node16&#45;&gt;Node4</title>
<path fill="none" stroke="midnightblue" d="M915.3,-224.47C935.92,-212.51 967.15,-189.77 953,-168 931.53,-134.97 893.47,-165.03 872,-132 867.16,-124.55 866.25,-118.78 872,-112 900.22,-78.75 1025.74,-70.03 1096.34,-67.77"/>
<polygon fill="midnightblue" stroke="midnightblue" points="1096.45,-71.27 1106.34,-67.48 1096.25,-64.27 1096.45,-71.27"/>
</g>
<!-- Node16&#45;&gt;Node11 -->
<g id="edge55" class="edge">
<title>Node16&#45;&gt;Node11</title>
<path fill="none" stroke="midnightblue" d="M853.33,-231.97C785.38,-229.37 662.69,-220.22 635,-188 612.98,-162.38 611.86,-137.51 634,-112 670,-70.51 839.75,-66.29 914.51,-66.5"/>
<polygon fill="midnightblue" stroke="midnightblue" points="914.8,-70 924.82,-66.56 914.84,-63 914.8,-70"/>
</g>
<!-- Node16&#45;&gt;Node13 -->
<g id="edge56" class="edge">
<title>Node16&#45;&gt;Node13</title>
<path fill="none" stroke="midnightblue" d="M853.25,-231.88C724.72,-228.4 362.29,-216.29 247,-188 186.69,-173.2 170.42,-166.81 119,-132 98.71,-118.26 79.19,-97.85 66.71,-83.58"/>
<polygon fill="midnightblue" stroke="midnightblue" points="69.06,-80.94 59.91,-75.6 63.73,-85.48 69.06,-80.94"/>
</g>
<!-- Node17 -->
<g id="node17" class="node">
<title>Node17</title>
<g id="a_node17"><a xlink:title=" ">
<polygon fill="white" stroke="#bfbfbf" points="644.5,-168.5 644.5,-187.5 701.5,-187.5 701.5,-168.5 644.5,-168.5"/>
<text text-anchor="middle" x="673" y="-175.5" font-family="Helvetica,sans-Serif" font-size="10.00">wx/wx.h</text>
</a>
</g>
</g>
<!-- Node16&#45;&gt;Node17 -->
<g id="edge20" class="edge">
<title>Node16&#45;&gt;Node17</title>
<path fill="none" stroke="midnightblue" d="M863.19,-224.44C821.91,-214.58 754.31,-198.43 711.8,-188.27"/>
<polygon fill="midnightblue" stroke="midnightblue" points="712.37,-184.81 701.83,-185.89 710.74,-191.62 712.37,-184.81"/>
</g>
<!-- Node18 -->
<g id="node18" class="node">
<title>Node18</title>
<g id="a_node18"><a xlink:title=" ">
<polygon fill="white" stroke="#bfbfbf" points="914,-112.5 914,-131.5 986,-131.5 986,-112.5 914,-112.5"/>
<text text-anchor="middle" x="950" y="-119.5" font-family="Helvetica,sans-Serif" font-size="10.00">wx/config.h</text>
</a>
</g>
</g>
<!-- Node16&#45;&gt;Node18 -->
<g id="edge21" class="edge">
<title>Node16&#45;&gt;Node18</title>
<path fill="none" stroke="midnightblue" d="M944.69,-229.36C972.56,-224.51 1006.16,-213.38 1024,-188 1039.06,-166.57 1009.6,-147.51 983.51,-135.66"/>
<polygon fill="midnightblue" stroke="midnightblue" points="984.71,-132.37 974.14,-131.63 981.94,-138.8 984.71,-132.37"/>
</g>
<!-- Node19 -->
<g id="node19" class="node">
<title>Node19</title>
<g id="a_node19"><a xlink:title=" ">
<polygon fill="white" stroke="#bfbfbf" points="758.5,-168.5 758.5,-187.5 835.5,-187.5 835.5,-168.5 758.5,-168.5"/>
<text text-anchor="middle" x="797" y="-175.5" font-family="Helvetica,sans-Serif" font-size="10.00">wx/display.h</text>
</a>
</g>
</g>
<!-- Node16&#45;&gt;Node19 -->
<g id="edge22" class="edge">
<title>Node16&#45;&gt;Node19</title>
<path fill="none" stroke="midnightblue" d="M882.61,-224.32C866.33,-215.7 841.13,-202.36 822.28,-192.39"/>
<polygon fill="midnightblue" stroke="midnightblue" points="823.82,-189.24 813.35,-187.65 820.55,-195.43 823.82,-189.24"/>
</g>
<!-- Node20 -->
<g id="node20" class="node">
<title>Node20</title>
<g id="a_node20"><a xlink:title=" ">
<polygon fill="white" stroke="#bfbfbf" points="854,-168.5 854,-187.5 944,-187.5 944,-168.5 854,-168.5"/>
<text text-anchor="middle" x="899" y="-175.5" font-family="Helvetica,sans-Serif" font-size="10.00">wx/fontenum.h</text>
</a>
</g>
</g>
<!-- Node16&#45;&gt;Node20 -->
<g id="edge23" class="edge">
<title>Node16&#45;&gt;Node20</title>
<path fill="none" stroke="midnightblue" d="M899,-224.08C899,-217.01 899,-206.86 899,-197.99"/>
<polygon fill="midnightblue" stroke="midnightblue" points="902.5,-197.75 899,-187.75 895.5,-197.75 902.5,-197.75"/>
</g>
<!-- Node21 -->
<g id="node21" class="node">
<title>Node21</title>
<g id="a_node21"><a xlink:title=" ">
<polygon fill="white" stroke="#bfbfbf" points="1004,-112.5 1004,-131.5 1092,-131.5 1092,-112.5 1004,-112.5"/>
<text text-anchor="middle" x="1048" y="-119.5" font-family="Helvetica,sans-Serif" font-size="10.00">wx/hashmap.h</text>
</a>
</g>
</g>
<!-- Node16&#45;&gt;Node21 -->
<g id="edge24" class="edge">
<title>Node16&#45;&gt;Node21</title>
<path fill="none" stroke="midnightblue" d="M944.8,-230.8C976.45,-226.71 1016.88,-215.89 1040,-188 1050.54,-175.29 1051.69,-156.09 1050.72,-141.85"/>
<polygon fill="midnightblue" stroke="midnightblue" points="1054.18,-141.28 1049.63,-131.71 1047.22,-142.03 1054.18,-141.28"/>
</g>
<!-- Node22 -->
<g id="node22" class="node">
<title>Node22</title>
<g id="a_node22"><a xlink:href="LoggingMessageDialog_8h.html" target="_top" xlink:title="This file declares a message dialog that sends its contents to the log message sink.">
<polygon fill="white" stroke="red" points="643.5,-112.5 643.5,-131.5 820.5,-131.5 820.5,-112.5 643.5,-112.5"/>
<text text-anchor="middle" x="732" y="-119.5" font-family="Helvetica,sans-Serif" font-size="10.00">dialogs/LoggingMessageDialog.h</text>
</a>
</g>
</g>
<!-- Node16&#45;&gt;Node22 -->
<g id="edge25" class="edge">
<title>Node16&#45;&gt;Node22</title>
<path fill="none" stroke="midnightblue" d="M853.25,-230.83C819.94,-226.82 776.09,-216.08 749,-188 737.24,-175.81 733.35,-156.54 732.19,-142.14"/>
<polygon fill="midnightblue" stroke="midnightblue" points="735.67,-141.71 731.74,-131.87 728.68,-142.01 735.67,-141.71"/>
</g>
<!-- Node16&#45;&gt;Node24 -->
<g id="edge28" class="edge">
<title>Node16&#45;&gt;Node24</title>
<path fill="none" stroke="midnightblue" d="M944.6,-228.67C1047.15,-218.94 1295.84,-195.34 1409.53,-184.55"/>
<polygon fill="midnightblue" stroke="midnightblue" points="1410.15,-188.01 1419.78,-183.58 1409.49,-181.04 1410.15,-188.01"/>
</g>
<!-- Node16&#45;&gt;Node37 -->
<g id="edge62" class="edge">
<title>Node16&#45;&gt;Node37</title>
<path fill="none" stroke="midnightblue" d="M944.58,-230.86C1129.79,-221.83 1819.95,-184.86 1901,-132 1917.89,-120.98 1929.13,-100.32 1935.5,-85.24"/>
<polygon fill="midnightblue" stroke="midnightblue" points="1938.78,-86.47 1939.14,-75.88 1932.25,-83.93 1938.78,-86.47"/>
</g>
<!-- Node40 -->
<g id="node35" class="node">
<title>Node40</title>
<g id="a_node35"><a xlink:title=" ">
<polygon fill="white" stroke="#bfbfbf" points="1264,-56.5 1264,-75.5 1296,-75.5 1296,-56.5 1264,-56.5"/>
<text text-anchor="middle" x="1280" y="-63.5" font-family="Helvetica,sans-Serif" font-size="10.00">list</text>
</a>
</g>
</g>
<!-- Node16&#45;&gt;Node40 -->
<g id="edge60" class="edge">
<title>Node16&#45;&gt;Node40</title>
<path fill="none" stroke="midnightblue" d="M923.47,-224.44C939.57,-217.38 959.38,-205.63 969,-188 973.26,-180.2 973.49,-175.67 969,-168 952.52,-139.83 921.48,-160.17 905,-132 900.51,-124.33 899.04,-118.6 905,-112 955.44,-56.11 1162.57,-90.58 1253.75,-75.46"/>
<polygon fill="midnightblue" stroke="midnightblue" points="1254.63,-78.86 1263.76,-73.49 1253.28,-71.99 1254.63,-78.86"/>
</g>
<!-- Node41 -->
<g id="node36" class="node">
<title>Node41</title>
<g id="a_node36"><a xlink:title=" ">
<polygon fill="white" stroke="#bfbfbf" points="1317.5,-56.5 1317.5,-75.5 1410.5,-75.5 1410.5,-56.5 1317.5,-56.5"/>
<text text-anchor="middle" x="1364" y="-63.5" font-family="Helvetica,sans-Serif" font-size="10.00">unordered_map</text>
</a>
</g>
</g>
<!-- Node16&#45;&gt;Node41 -->
<g id="edge58" class="edge">
<title>Node16&#45;&gt;Node41</title>
<path fill="none" stroke="midnightblue" d="M928.23,-224.41C973.97,-211.16 1065.38,-185.44 1144,-168 1232.6,-148.35 1277.48,-192.64 1345,-132 1357.96,-120.36 1362.29,-100.41 1363.63,-85.67"/>
<polygon fill="midnightblue" stroke="midnightblue" points="1367.12,-85.82 1364.16,-75.64 1360.13,-85.44 1367.12,-85.82"/>
</g>
<!-- Node42 -->
<g id="node37" class="node">
<title>Node42</title>
<g id="a_node37"><a xlink:title=" ">
<polygon fill="white" stroke="#bfbfbf" points="256,-168.5 256,-187.5 304,-187.5 304,-168.5 256,-168.5"/>
<text text-anchor="middle" x="280" y="-175.5" font-family="Helvetica,sans-Serif" font-size="10.00">mutex</text>
</a>
</g>
</g>
<!-- Node16&#45;&gt;Node42 -->
<g id="edge57" class="edge">
<title>Node16&#45;&gt;Node42</title>
<path fill="none" stroke="midnightblue" d="M853.42,-232.43C755.96,-230.59 520.08,-222.77 314.13,-187.86"/>
<polygon fill="midnightblue" stroke="midnightblue" points="314.48,-184.37 304.03,-186.12 313.29,-191.27 314.48,-184.37"/>
</g>
<!-- Node43 -->
<g id="node38" class="node">
<title>Node43</title>
<g id="a_node38"><a xlink:title=" ">
<polygon fill="white" stroke="#bfbfbf" points="322,-168.5 322,-187.5 376,-187.5 376,-168.5 322,-168.5"/>
<text text-anchor="middle" x="349" y="-175.5" font-family="Helvetica,sans-Serif" font-size="10.00">random</text>
</a>
</g>
</g>
<!-- Node16&#45;&gt;Node43 -->
<g id="edge59" class="edge">
<title>Node16&#45;&gt;Node43</title>
<path fill="none" stroke="midnightblue" d="M853.32,-231.42C764.87,-227.83 564.02,-217.15 386.1,-187.92"/>
<polygon fill="midnightblue" stroke="midnightblue" points="386.47,-184.43 376.03,-186.24 385.32,-191.34 386.47,-184.43"/>
</g>
<!-- Node16&#45;&gt;Node44 -->
<g id="edge61" class="edge">
<title>Node16&#45;&gt;Node44</title>
<path fill="none" stroke="midnightblue" d="M944.94,-225C993.16,-216.46 1071.09,-202.21 1138,-188 1139.45,-187.69 1140.93,-187.37 1142.43,-187.04"/>
<polygon fill="midnightblue" stroke="midnightblue" points="1143.35,-190.42 1152.32,-184.79 1141.79,-183.59 1143.35,-190.42"/>
</g>
<!-- Node45 -->
<g id="node40" class="node">
<title>Node45</title>
<g id="a_node40"><a xlink:title=" ">
<polygon fill="white" stroke="#bfbfbf" points="394.5,-168.5 394.5,-187.5 483.5,-187.5 483.5,-168.5 394.5,-168.5"/>
<text text-anchor="middle" x="439" y="-175.5" font-family="Helvetica,sans-Serif" font-size="10.00">wx/wupdlock.h</text>
</a>
</g>
</g>
<!-- Node16&#45;&gt;Node45 -->
<g id="edge63" class="edge">
<title>Node16&#45;&gt;Node45</title>
<path fill="none" stroke="midnightblue" d="M853.23,-228.75C779.78,-221.75 630.81,-206.82 494.01,-188.07"/>
<polygon fill="midnightblue" stroke="midnightblue" points="494.14,-184.55 483.76,-186.65 493.19,-191.49 494.14,-184.55"/>
</g>
<!-- Node46 -->
<g id="node41" class="node">
<title>Node46</title>
<g id="a_node41"><a xlink:title=" ">
<polygon fill="white" stroke="#bfbfbf" points="502,-168.5 502,-187.5 588,-187.5 588,-168.5 502,-168.5"/>
<text text-anchor="middle" x="545" y="-175.5" font-family="Helvetica,sans-Serif" font-size="10.00">wx/webview.h</text>
</a>
</g>
</g>
<!-- Node16&#45;&gt;Node46 -->
<g id="edge64" class="edge">
<title>Node16&#45;&gt;Node46</title>
<path fill="none" stroke="midnightblue" d="M853.45,-226.19C795.15,-217.45 691.03,-201.77 602,-188 600.75,-187.81 599.48,-187.61 598.2,-187.41"/>
<polygon fill="midnightblue" stroke="midnightblue" points="598.68,-183.94 588.26,-185.86 597.6,-190.86 598.68,-183.94"/>
</g>
<!-- Node22&#45;&gt;Node4 -->
<g id="edge26" class="edge">
<title>Node22&#45;&gt;Node4</title>
<path fill="none" stroke="midnightblue" d="M797.44,-112.44C880.53,-101.58 1021.99,-83.08 1096.23,-73.38"/>
<polygon fill="midnightblue" stroke="midnightblue" points="1096.78,-76.83 1106.24,-72.07 1095.87,-69.89 1096.78,-76.83"/>
</g>
<!-- Node22&#45;&gt;Node8 -->
<g id="edge27" class="edge">
<title>Node22&#45;&gt;Node8</title>
<path fill="none" stroke="midnightblue" d="M688.74,-112.44C636.28,-102.07 548.61,-84.72 498.09,-74.73"/>
<polygon fill="midnightblue" stroke="midnightblue" points="498.69,-71.28 488.2,-72.78 497.34,-78.15 498.69,-71.28"/>
</g>
<!-- Node24&#45;&gt;Node4 -->
<g id="edge29" class="edge">
<title>Node24&#45;&gt;Node4</title>
<path fill="none" stroke="midnightblue" d="M1419.55,-176.28C1366.9,-173.74 1281.54,-164.39 1216,-132 1192.71,-120.49 1171.52,-98.98 1158.47,-83.87"/>
<polygon fill="midnightblue" stroke="midnightblue" points="1160.86,-81.27 1151.77,-75.83 1155.48,-85.76 1160.86,-81.27"/>
</g>
<!-- Node24&#45;&gt;Node11 -->
<g id="edge38" class="edge">
<title>Node24&#45;&gt;Node11</title>
<path fill="none" stroke="midnightblue" d="M1419.78,-171.11C1362.85,-163.77 1265.47,-149.95 1183,-132 1111.85,-116.51 1030.2,-92.19 984.9,-78.1"/>
<polygon fill="midnightblue" stroke="midnightblue" points="985.86,-74.73 975.27,-75.09 983.77,-81.41 985.86,-74.73"/>
</g>
<!-- Node24&#45;&gt;Node18 -->
<g id="edge35" class="edge">
<title>Node24&#45;&gt;Node18</title>
<path fill="none" stroke="midnightblue" d="M1419.8,-174.05C1335.8,-168.56 1156.98,-155.29 996.36,-132.06"/>
<polygon fill="midnightblue" stroke="midnightblue" points="996.69,-128.58 986.29,-130.59 995.68,-135.5 996.69,-128.58"/>
</g>
<!-- Node24&#45;&gt;Node21 -->
<g id="edge32" class="edge">
<title>Node24&#45;&gt;Node21</title>
<path fill="none" stroke="midnightblue" d="M1419.92,-171.49C1350.52,-163.44 1218.27,-147.69 1106,-132 1104.75,-131.83 1103.49,-131.65 1102.21,-131.46"/>
<polygon fill="midnightblue" stroke="midnightblue" points="1102.71,-128 1092.31,-130.02 1101.7,-134.93 1102.71,-128"/>
</g>
<!-- Node25 -->
<g id="node24" class="node">
<title>Node25</title>
<g id="a_node24"><a xlink:title=" ">
<polygon fill="white" stroke="#bfbfbf" points="1666,-112.5 1666,-131.5 1738,-131.5 1738,-112.5 1666,-112.5"/>
<text text-anchor="middle" x="1702" y="-119.5" font-family="Helvetica,sans-Serif" font-size="10.00">wx/colour.h</text>
</a>
</g>
</g>
<!-- Node24&#45;&gt;Node25 -->
<g id="edge30" class="edge">
<title>Node24&#45;&gt;Node25</title>
<path fill="none" stroke="midnightblue" d="M1505.08,-168.44C1545.97,-159.01 1611.8,-143.82 1655.96,-133.62"/>
<polygon fill="midnightblue" stroke="midnightblue" points="1656.91,-137 1665.86,-131.34 1655.33,-130.18 1656.91,-137"/>
</g>
<!-- Node24&#45;&gt;Node26 -->
<g id="edge31" class="edge">
<title>Node24&#45;&gt;Node26</title>
<path fill="none" stroke="midnightblue" d="M1516.33,-172.59C1598.78,-164.97 1771.92,-148.56 1918,-132 1931.7,-130.45 1946.86,-128.55 1959.64,-126.9"/>
<polygon fill="midnightblue" stroke="midnightblue" points="1960.27,-130.35 1969.73,-125.58 1959.36,-123.41 1960.27,-130.35"/>
</g>
<!-- Node27 -->
<g id="node26" class="node">
<title>Node27</title>
<g id="a_node26"><a xlink:title=" ">
<polygon fill="white" stroke="#bfbfbf" points="1756,-112.5 1756,-131.5 1800,-131.5 1800,-112.5 1756,-112.5"/>
<text text-anchor="middle" x="1778" y="-119.5" font-family="Helvetica,sans-Serif" font-size="10.00">string</text>
</a>
</g>
</g>
<!-- Node24&#45;&gt;Node27 -->
<g id="edge33" class="edge">
<title>Node24&#45;&gt;Node27</title>
<path fill="none" stroke="midnightblue" d="M1516.23,-171.05C1570.05,-164 1659.85,-151.04 1745.81,-132.04"/>
<polygon fill="midnightblue" stroke="midnightblue" points="1746.74,-135.42 1755.73,-129.82 1745.21,-128.59 1746.74,-135.42"/>
</g>
<!-- Node28 -->
<g id="node27" class="node">
<title>Node28</title>
<g id="a_node27"><a xlink:title=" ">
<polygon fill="white" stroke="#bfbfbf" points="1818.5,-112.5 1818.5,-131.5 1875.5,-131.5 1875.5,-112.5 1818.5,-112.5"/>
<text text-anchor="middle" x="1847" y="-119.5" font-family="Helvetica,sans-Serif" font-size="10.00">ostream</text>
</a>
</g>
</g>
<!-- Node24&#45;&gt;Node28 -->
<g id="edge34" class="edge">
<title>Node24&#45;&gt;Node28</title>
<path fill="none" stroke="midnightblue" d="M1516.24,-172.19C1580.58,-165.44 1698.19,-151.89 1808.47,-131.92"/>
<polygon fill="midnightblue" stroke="midnightblue" points="1809.23,-135.34 1818.43,-130.09 1807.96,-128.45 1809.23,-135.34"/>
</g>
<!-- Node29 -->
<g id="node28" class="node">
<title>Node29</title>
<g id="a_node28"><a xlink:title=" ">
<polygon fill="white" stroke="#bfbfbf" points="1584,-56.5 1584,-75.5 1646,-75.5 1646,-56.5 1584,-56.5"/>
<text text-anchor="middle" x="1615" y="-63.5" font-family="Helvetica,sans-Serif" font-size="10.00">wx/font.h</text>
</a>
</g>
</g>
<!-- Node24&#45;&gt;Node29 -->
<g id="edge36" class="edge">
<title>Node24&#45;&gt;Node29</title>
<path fill="none" stroke="midnightblue" d="M1516.03,-175.36C1620.44,-171.29 1860.71,-159.06 1885,-132 1890.94,-125.39 1890.75,-118.78 1885,-112 1856.21,-78.01 1724.79,-69.67 1656.5,-67.64"/>
<polygon fill="midnightblue" stroke="midnightblue" points="1656.19,-64.13 1646.1,-67.37 1656.01,-71.13 1656.19,-64.13"/>
</g>
<!-- Node30 -->
<g id="node29" class="node">
<title>Node30</title>
<g id="a_node29"><a xlink:title=" ">
<polygon fill="white" stroke="#bfbfbf" points="1392,-112.5 1392,-131.5 1474,-131.5 1474,-112.5 1392,-112.5"/>
<text text-anchor="middle" x="1433" y="-119.5" font-family="Helvetica,sans-Serif" font-size="10.00">wx/settings.h</text>
</a>
</g>
</g>
<!-- Node24&#45;&gt;Node30 -->
<g id="edge37" class="edge">
<title>Node24&#45;&gt;Node30</title>
<path fill="none" stroke="midnightblue" d="M1462.22,-168.08C1457.33,-160.53 1450.17,-149.49 1444.17,-140.23"/>
<polygon fill="midnightblue" stroke="midnightblue" points="1447.05,-138.24 1438.67,-131.75 1441.17,-142.05 1447.05,-138.24"/>
</g>
<!-- Node31 -->
<g id="node30" class="node">
<title>Node31</title>
<g id="a_node30"><a xlink:title=" ">
<polygon fill="white" stroke="#bfbfbf" points="1500.5,-56.5 1500.5,-75.5 1565.5,-75.5 1565.5,-56.5 1500.5,-56.5"/>
<text text-anchor="middle" x="1533" y="-63.5" font-family="Helvetica,sans-Serif" font-size="10.00">functional</text>
</a>
</g>
</g>
<!-- Node24&#45;&gt;Node31 -->
<g id="edge39" class="edge">
<title>Node24&#45;&gt;Node31</title>
<path fill="none" stroke="midnightblue" d="M1480.5,-168.46C1491.46,-160.33 1507.01,-147.12 1516,-132 1524.48,-117.75 1528.78,-99.27 1530.94,-85.67"/>
<polygon fill="midnightblue" stroke="midnightblue" points="1534.43,-85.96 1532.28,-75.58 1527.49,-85.03 1534.43,-85.96"/>
</g>
<!-- Node32 -->
<g id="node31" class="node">
<title>Node32</title>
<g id="a_node31"><a xlink:href="FontAttribs_8h_source.html" target="_top" xlink:title=" ">
<polygon fill="white" stroke="red" points="1568.5,-112.5 1568.5,-131.5 1647.5,-131.5 1647.5,-112.5 1568.5,-112.5"/>
<text text-anchor="middle" x="1608" y="-119.5" font-family="Helvetica,sans-Serif" font-size="10.00">FontAttribs.h</text>
</a>
</g>
</g>
<!-- Node24&#45;&gt;Node32 -->
<g id="edge40" class="edge">
<title>Node24&#45;&gt;Node32</title>
<path fill="none" stroke="midnightblue" d="M1490.18,-168.44C1513.43,-159.48 1550.15,-145.31 1576.42,-135.18"/>
<polygon fill="midnightblue" stroke="midnightblue" points="1577.85,-138.38 1585.92,-131.52 1575.33,-131.85 1577.85,-138.38"/>
</g>
<!-- Node39 -->
<g id="node34" class="node">
<title>Node39</title>
<g id="a_node34"><a xlink:href="FontVariantCache_8h.html" target="_top" xlink:title="This file implements the wxFont cache system.">
<polygon fill="white" stroke="black" points="1224.5,-112.5 1224.5,-131.5 1335.5,-131.5 1335.5,-112.5 1224.5,-112.5"/>
<text text-anchor="middle" x="1280" y="-119.5" font-family="Helvetica,sans-Serif" font-size="10.00">FontVariantCache.h</text>
</a>
</g>
</g>
<!-- Node24&#45;&gt;Node39 -->
<g id="edge46" class="edge">
<title>Node24&#45;&gt;Node39</title>
<path fill="none" stroke="midnightblue" d="M1438.21,-168.44C1406.17,-159.24 1355.07,-144.56 1319.65,-134.39"/>
<polygon fill="midnightblue" stroke="midnightblue" points="1320.23,-130.91 1309.65,-131.52 1318.29,-137.64 1320.23,-130.91"/>
</g>
<!-- Node24&#45;&gt;Node41 -->
<g id="edge54" class="edge">
<title>Node24&#45;&gt;Node41</title>
<path fill="none" stroke="midnightblue" d="M1474.04,-168.19C1482.35,-154.88 1494.98,-129.34 1483,-112 1468.77,-91.41 1443.83,-80.23 1420.44,-74.17"/>
<polygon fill="midnightblue" stroke="midnightblue" points="1421.08,-70.72 1410.54,-71.87 1419.49,-77.54 1421.08,-70.72"/>
</g>
<!-- Node32&#45;&gt;Node11 -->
<g id="edge43" class="edge">
<title>Node32&#45;&gt;Node11</title>
<path fill="none" stroke="midnightblue" d="M1568.32,-117.74C1449.62,-108 1098.51,-79.19 985.48,-69.91"/>
<polygon fill="midnightblue" stroke="midnightblue" points="985.56,-66.41 975.3,-69.08 984.98,-73.38 985.56,-66.41"/>
</g>
<!-- Node32&#45;&gt;Node29 -->
<g id="edge41" class="edge">
<title>Node32&#45;&gt;Node29</title>
<path fill="none" stroke="midnightblue" d="M1609.16,-112.08C1610.08,-104.93 1611.42,-94.64 1612.58,-85.69"/>
<polygon fill="midnightblue" stroke="midnightblue" points="1616.05,-86.12 1613.87,-75.75 1609.11,-85.22 1616.05,-86.12"/>
</g>
<!-- Node32&#45;&gt;Node31 -->
<g id="edge44" class="edge">
<title>Node32&#45;&gt;Node31</title>
<path fill="none" stroke="midnightblue" d="M1595.95,-112.32C1584.54,-104.11 1567.17,-91.6 1553.57,-81.81"/>
<polygon fill="midnightblue" stroke="midnightblue" points="1555.43,-78.84 1545.27,-75.83 1551.34,-84.52 1555.43,-78.84"/>
</g>
<!-- Node32&#45;&gt;Node37 -->
<g id="edge42" class="edge">
<title>Node32&#45;&gt;Node37</title>
<path fill="none" stroke="midnightblue" d="M1647.57,-113.65C1650.76,-113.08 1653.93,-112.52 1657,-112 1743.05,-97.31 1844.01,-81.76 1899.71,-73.34"/>
<polygon fill="midnightblue" stroke="midnightblue" points="1900.54,-76.75 1909.9,-71.8 1899.49,-69.83 1900.54,-76.75"/>
</g>
<!-- Node38 -->
<g id="node33" class="node">
<title>Node38</title>
<g id="a_node33"><a xlink:title=" ">
<polygon fill="white" stroke="#bfbfbf" points="1202,-56.5 1202,-75.5 1246,-75.5 1246,-56.5 1202,-56.5"/>
<text text-anchor="middle" x="1224" y="-63.5" font-family="Helvetica,sans-Serif" font-size="10.00">limits</text>
</a>
</g>
</g>
<!-- Node32&#45;&gt;Node38 -->
<g id="edge45" class="edge">
<title>Node32&#45;&gt;Node38</title>
<path fill="none" stroke="midnightblue" d="M1568.49,-117.99C1504.67,-112.68 1374.86,-100.07 1256.22,-75.97"/>
<polygon fill="midnightblue" stroke="midnightblue" points="1256.75,-72.5 1246.25,-73.91 1255.33,-79.36 1256.75,-72.5"/>
</g>
<!-- Node39&#45;&gt;Node4 -->
<g id="edge47" class="edge">
<title>Node39&#45;&gt;Node4</title>
<path fill="none" stroke="midnightblue" d="M1258.61,-112.44C1236.29,-103.52 1201.1,-89.44 1175.79,-79.32"/>
<polygon fill="midnightblue" stroke="midnightblue" points="1176.88,-75.98 1166.29,-75.52 1174.28,-82.48 1176.88,-75.98"/>
</g>
<!-- Node39&#45;&gt;Node9 -->
<g id="edge52" class="edge">
<title>Node39&#45;&gt;Node9</title>
<path fill="none" stroke="midnightblue" d="M1224.44,-116.18C1097.83,-105.21 791.06,-78.62 689.94,-69.86"/>
<polygon fill="midnightblue" stroke="midnightblue" points="689.99,-66.35 679.72,-68.97 689.38,-73.32 689.99,-66.35"/>
</g>
<!-- Node39&#45;&gt;Node13 -->
<g id="edge48" class="edge">
<title>Node39&#45;&gt;Node13</title>
<path fill="none" stroke="midnightblue" d="M1224.38,-117.99C1189.04,-116.14 1142.35,-113.78 1101,-112 655.53,-92.86 537.86,-135.42 92.27,-75.89"/>
<polygon fill="midnightblue" stroke="midnightblue" points="92.73,-72.42 82.35,-74.55 91.8,-79.36 92.73,-72.42"/>
</g>
<!-- Node39&#45;&gt;Node29 -->
<g id="edge49" class="edge">
<title>Node39&#45;&gt;Node29</title>
<path fill="none" stroke="midnightblue" d="M1335.65,-113.69C1392.96,-105.9 1485.06,-92.65 1573.65,-76.15"/>
<polygon fill="midnightblue" stroke="midnightblue" points="1574.42,-79.57 1583.6,-74.28 1573.13,-72.69 1574.42,-79.57"/>
</g>
<!-- Node39&#45;&gt;Node31 -->
<g id="edge50" class="edge">
<title>Node39&#45;&gt;Node31</title>
<path fill="none" stroke="midnightblue" d="M1320.09,-112.44C1366.56,-102.52 1442.84,-86.24 1490.36,-76.1"/>
<polygon fill="midnightblue" stroke="midnightblue" points="1491.29,-79.48 1500.34,-73.97 1489.83,-72.64 1491.29,-79.48"/>
</g>
<!-- Node39&#45;&gt;Node40 -->
<g id="edge51" class="edge">
<title>Node39&#45;&gt;Node40</title>
<path fill="none" stroke="midnightblue" d="M1280,-112.08C1280,-105.01 1280,-94.86 1280,-85.99"/>
<polygon fill="midnightblue" stroke="midnightblue" points="1283.5,-85.75 1280,-75.75 1276.5,-85.75 1283.5,-85.75"/>
</g>
<!-- Node39&#45;&gt;Node41 -->
<g id="edge53" class="edge">
<title>Node39&#45;&gt;Node41</title>
<path fill="none" stroke="midnightblue" d="M1293.5,-112.32C1306.6,-103.9 1326.71,-90.97 1342.11,-81.07"/>
<polygon fill="midnightblue" stroke="midnightblue" points="1344.02,-84.01 1350.54,-75.65 1340.23,-78.12 1344.02,-84.01"/>
</g>
<!-- Node48 -->
<g id="node43" class="node">
<title>Node48</title>
<g id="a_node43"><a xlink:title=" ">
<polygon fill="white" stroke="#bfbfbf" points="2008.5,-168.5 2008.5,-187.5 2079.5,-187.5 2079.5,-168.5 2008.5,-168.5"/>
<text text-anchor="middle" x="2044" y="-175.5" font-family="Helvetica,sans-Serif" font-size="10.00">wx/string.h</text>
</a>
</g>
</g>
<!-- Node47&#45;&gt;Node48 -->
<g id="edge66" class="edge">
<title>Node47&#45;&gt;Node48</title>
<path fill="none" stroke="midnightblue" d="M2046.5,-224.08C2046.11,-217.01 2045.55,-206.86 2045.05,-197.99"/>
<polygon fill="midnightblue" stroke="midnightblue" points="2048.54,-197.54 2044.49,-187.75 2041.55,-197.93 2048.54,-197.54"/>
</g>
<!-- Node49 -->
<g id="node44" class="node">
<title>Node49</title>
<g id="a_node44"><a xlink:title=" ">
<polygon fill="white" stroke="#bfbfbf" points="2097.5,-168.5 2097.5,-187.5 2192.5,-187.5 2192.5,-168.5 2097.5,-168.5"/>
<text text-anchor="middle" x="2145" y="-175.5" font-family="Helvetica,sans-Serif" font-size="10.00">wx/translation.h</text>
</a>
</g>
</g>
<!-- Node47&#45;&gt;Node49 -->
<g id="edge67" class="edge">
<title>Node47&#45;&gt;Node49</title>
<path fill="none" stroke="midnightblue" d="M2062.75,-224.32C2078.32,-215.74 2102.38,-202.49 2120.46,-192.52"/>
<polygon fill="midnightblue" stroke="midnightblue" points="2122.22,-195.55 2129.29,-187.65 2118.85,-189.42 2122.22,-195.55"/>
</g>
<!-- Node50&#45;&gt;Node7 -->
<g id="edge70" class="edge">
<title>Node50&#45;&gt;Node7</title>
<path fill="none" stroke="midnightblue" d="M384.78,-112.44C366.1,-103.68 336.84,-89.94 315.38,-79.86"/>
<polygon fill="midnightblue" stroke="midnightblue" points="316.68,-76.6 306.14,-75.52 313.7,-82.93 316.68,-76.6"/>
</g>
<!-- Node50&#45;&gt;Node8 -->
<g id="edge71" class="edge">
<title>Node50&#45;&gt;Node8</title>
<path fill="none" stroke="midnightblue" d="M412,-112.32C420.19,-104.42 432.51,-92.55 442.47,-82.94"/>
<polygon fill="midnightblue" stroke="midnightblue" points="445.07,-85.29 449.84,-75.83 440.21,-80.26 445.07,-85.29"/>
</g>
<!-- Node50&#45;&gt;Node14 -->
<g id="edge73" class="edge">
<title>Node50&#45;&gt;Node14</title>
<path fill="none" stroke="midnightblue" d="M398.71,-112.08C395.15,-104.69 389.98,-93.95 385.58,-84.81"/>
<polygon fill="midnightblue" stroke="midnightblue" points="388.71,-83.24 381.21,-75.75 382.4,-86.28 388.71,-83.24"/>
</g>
<!-- Node50&#45;&gt;Node38 -->
<g id="edge72" class="edge">
<title>Node50&#45;&gt;Node38</title>
<path fill="none" stroke="midnightblue" d="M459.52,-118.52C622.37,-111.27 1087.1,-89.86 1191.81,-75.63"/>
<polygon fill="midnightblue" stroke="midnightblue" points="1192.43,-79.07 1201.79,-74.1 1191.38,-72.15 1192.43,-79.07"/>
</g>
<!-- Node52&#45;&gt;Node13 -->
<g id="edge81" class="edge">
<title>Node52&#45;&gt;Node13</title>
<path fill="none" stroke="midnightblue" d="M468.67,-400.84C356.55,-399.39 0,-387.25 0,-291 0,-291 0,-291 0,-177 0,-140.99 23.33,-104.34 39.04,-83.75"/>
<polygon fill="midnightblue" stroke="midnightblue" points="41.93,-85.73 45.41,-75.72 36.45,-81.38 41.93,-85.73"/>
</g>
<!-- Node54 -->
<g id="node49" class="node">
<title>Node54</title>
<g id="a_node49"><a xlink:href="TextCell_8h_source.html" target="_top" xlink:title=" ">
<polygon fill="white" stroke="black" points="992.5,-336.5 992.5,-355.5 1057.5,-355.5 1057.5,-336.5 992.5,-336.5"/>
<text text-anchor="middle" x="1025" y="-343.5" font-family="Helvetica,sans-Serif" font-size="10.00">TextCell.h</text>
</a>
</g>
</g>
<!-- Node53&#45;&gt;Node54 -->
<g id="edge83" class="edge">
<title>Node53&#45;&gt;Node54</title>
<path fill="none" stroke="midnightblue" d="M1023.33,-392.08C1023.59,-385.01 1023.97,-374.86 1024.3,-365.99"/>
<polygon fill="midnightblue" stroke="midnightblue" points="1027.8,-365.87 1024.68,-355.75 1020.81,-365.61 1027.8,-365.87"/>
</g>
<!-- Node54&#45;&gt;Node3 -->
<g id="edge85" class="edge">
<title>Node54&#45;&gt;Node3</title>
<path fill="none" stroke="midnightblue" d="M1018.73,-336.08C1013.36,-328.46 1005.48,-317.26 998.92,-307.94"/>
<polygon fill="midnightblue" stroke="midnightblue" points="1001.78,-305.91 993.16,-299.75 996.05,-309.94 1001.78,-305.91"/>
</g>
<!-- Node55 -->
<g id="node50" class="node">
<title>Node55</title>
<g id="a_node50"><a xlink:title=" ">
<polygon fill="white" stroke="#bfbfbf" points="1027.5,-280.5 1027.5,-299.5 1098.5,-299.5 1098.5,-280.5 1027.5,-280.5"/>
<text text-anchor="middle" x="1063" y="-287.5" font-family="Helvetica,sans-Serif" font-size="10.00">wx/regex.h</text>
</a>
</g>
</g>
<!-- Node54&#45;&gt;Node55 -->
<g id="edge84" class="edge">
<title>Node54&#45;&gt;Node55</title>
<path fill="none" stroke="midnightblue" d="M1031.27,-336.08C1036.64,-328.46 1044.52,-317.26 1051.08,-307.94"/>
<polygon fill="midnightblue" stroke="midnightblue" points="1053.95,-309.94 1056.84,-299.75 1048.22,-305.91 1053.95,-309.94"/>
</g>
</g>
</svg>
