<?xml version="1.0" encoding="UTF-8" standalone="no"?>
<!DOCTYPE svg PUBLIC "-//W3C//DTD SVG 1.1//EN"
 "http://www.w3.org/Graphics/SVG/1.1/DTD/svg11.dtd">
<!-- Generated by graphviz version 2.43.0 (0)
 -->
<!-- Title: src/cells/ProductCell.h Pages: 1 -->
<svg width="270pt" height="82pt"
 viewBox="0.00 0.00 269.50 82.00" xmlns="http://www.w3.org/2000/svg" xmlns:xlink="http://www.w3.org/1999/xlink">
<g id="graph0" class="graph" transform="scale(1 1) rotate(0) translate(4 78)">
<title>src/cells/ProductCell.h</title>
<!-- Node1 -->
<g id="node1" class="node">
<title>Node1</title>
<g id="a_node1"><a xlink:title="This file declares the class SumCell.">
<polygon fill="#999999" stroke="#666666" points="186,-74 62,-74 62,-55 186,-55 186,-74"/>
<text text-anchor="middle" x="124" y="-62" font-family="Helvetica,sans-Serif" font-size="10.00">src/cells/ProductCell.h</text>
</a>
</g>
</g>
<!-- Node2 -->
<g id="node2" class="node">
<title>Node2</title>
<g id="a_node2"><a xlink:href="MathParser_8cpp.html" target="_top" xlink:title="This file defines the class MathParser that reads wxmx data and math from Maxima.">
<polygon fill="white" stroke="#666666" points="108,-19 0,-19 0,0 108,0 108,-19"/>
<text text-anchor="middle" x="54" y="-7" font-family="Helvetica,sans-Serif" font-size="10.00">src/MathParser.cpp</text>
</a>
</g>
</g>
<!-- Node1&#45;&gt;Node2 -->
<g id="edge1" class="edge">
<title>Node1&#45;&gt;Node2</title>
<path fill="none" stroke="#63b8ff" d="M104.69,-48.88C92.09,-39.34 76.07,-27.21 65.45,-19.17"/>
<polygon fill="#63b8ff" stroke="#63b8ff" points="102.67,-51.74 112.75,-54.98 106.89,-46.16 102.67,-51.74"/>
</g>
<!-- Node3 -->
<g id="node3" class="node">
<title>Node3</title>
<g id="a_node3"><a xlink:href="ProductCell_8cpp.html" target="_top" xlink:title="This file defines the class ProductCell.">
<polygon fill="white" stroke="#666666" points="261.5,-19 126.5,-19 126.5,0 261.5,0 261.5,-19"/>
<text text-anchor="middle" x="194" y="-7" font-family="Helvetica,sans-Serif" font-size="10.00">src/cells/ProductCell.cpp</text>
</a>
</g>
</g>
<!-- Node1&#45;&gt;Node3 -->
<g id="edge2" class="edge">
<title>Node1&#45;&gt;Node3</title>
<path fill="none" stroke="#63b8ff" d="M143.31,-48.88C155.91,-39.34 171.93,-27.21 182.55,-19.17"/>
<polygon fill="#63b8ff" stroke="#63b8ff" points="141.11,-46.16 135.25,-54.98 145.33,-51.74 141.11,-46.16"/>
</g>
</g>
</svg>
