<?xml version="1.0" encoding="UTF-8" standalone="no"?>
<!DOCTYPE svg PUBLIC "-//W3C//DTD SVG 1.1//EN"
 "http://www.w3.org/Graphics/SVG/1.1/DTD/svg11.dtd">
<!-- Generated by graphviz version 2.43.0 (0)
 -->
<!-- Title: src/cells/ProductCell.h Pages: 1 -->
<svg width="2357pt" height="467pt"
 viewBox="0.00 0.00 2356.83 467.00" xmlns="http://www.w3.org/2000/svg" xmlns:xlink="http://www.w3.org/1999/xlink">
<g id="graph0" class="graph" transform="scale(1 1) rotate(0) translate(4 463)">
<title>src/cells/ProductCell.h</title>
<!-- Node1 -->
<g id="node1" class="node">
<title>Node1</title>
<g id="a_node1"><a xlink:title="This file declares the class SumCell.">
<polygon fill="#999999" stroke="#666666" points="648.83,-459 524.83,-459 524.83,-440 648.83,-440 648.83,-459"/>
<text text-anchor="middle" x="586.83" y="-447" font-family="Helvetica,sans-Serif" font-size="10.00">src/cells/ProductCell.h</text>
</a>
</g>
</g>
<!-- Node2 -->
<g id="node2" class="node">
<title>Node2</title>
<g id="a_node2"><a xlink:href="SumCell_8h.html" target="_top" xlink:title="This file declares the class SumCell.">
<polygon fill="white" stroke="#666666" points="619.83,-404 553.83,-404 553.83,-385 619.83,-385 619.83,-404"/>
<text text-anchor="middle" x="586.83" y="-392" font-family="Helvetica,sans-Serif" font-size="10.00">SumCell.h</text>
</a>
</g>
</g>
<!-- Node1&#45;&gt;Node2 -->
<g id="edge1" class="edge">
<title>Node1&#45;&gt;Node2</title>
<path fill="none" stroke="#63b8ff" d="M586.83,-439.75C586.83,-432.8 586.83,-422.85 586.83,-414.13"/>
<polygon fill="#63b8ff" stroke="#63b8ff" points="590.33,-414.09 586.83,-404.09 583.33,-414.09 590.33,-414.09"/>
</g>
<!-- Node3 -->
<g id="node3" class="node">
<title>Node3</title>
<g id="a_node3"><a xlink:href="precomp_8h_source.html" target="_top" xlink:title=" ">
<polygon fill="white" stroke="#666666" points="2268.83,-74 2200.83,-74 2200.83,-55 2268.83,-55 2268.83,-74"/>
<text text-anchor="middle" x="2234.83" y="-62" font-family="Helvetica,sans-Serif" font-size="10.00">precomp.h</text>
</a>
</g>
</g>
<!-- Node2&#45;&gt;Node3 -->
<g id="edge2" class="edge">
<title>Node2&#45;&gt;Node3</title>
<path fill="none" stroke="#63b8ff" d="M620.07,-393.26C862.47,-391.29 2348.83,-375.58 2348.83,-285.5 2348.83,-285.5 2348.83,-285.5 2348.83,-173.5 2348.83,-127.47 2299.24,-95.18 2265.48,-78.53"/>
<polygon fill="#63b8ff" stroke="#63b8ff" points="2266.54,-75.16 2256,-74.05 2263.55,-81.49 2266.54,-75.16"/>
</g>
<!-- Node5 -->
<g id="node5" class="node">
<title>Node5</title>
<g id="a_node5"><a xlink:href="Cell_8h.html" target="_top" xlink:title="The definition of the base class of all cells the worksheet consists of.">
<polygon fill="white" stroke="#666666" points="544.83,-294 500.83,-294 500.83,-275 544.83,-275 544.83,-294"/>
<text text-anchor="middle" x="522.83" y="-282" font-family="Helvetica,sans-Serif" font-size="10.00">Cell.h</text>
</a>
</g>
</g>
<!-- Node2&#45;&gt;Node5 -->
<g id="edge4" class="edge">
<title>Node2&#45;&gt;Node5</title>
<path fill="none" stroke="#63b8ff" d="M585.43,-384.74C583.09,-371.97 577.57,-347.82 566.83,-330 560.22,-319.03 550.36,-308.72 541.65,-300.8"/>
<polygon fill="#63b8ff" stroke="#63b8ff" points="543.95,-298.16 534.1,-294.24 539.36,-303.44 543.95,-298.16"/>
</g>
<!-- Node62 -->
<g id="node50" class="node">
<title>Node62</title>
<g id="a_node50"><a xlink:href="ParenCell_8h.html" target="_top" xlink:title="This file declares the class ParenCell.">
<polygon fill="white" stroke="#666666" points="558.33,-349 487.33,-349 487.33,-330 558.33,-330 558.33,-349"/>
<text text-anchor="middle" x="522.83" y="-337" font-family="Helvetica,sans-Serif" font-size="10.00">ParenCell.h</text>
</a>
</g>
</g>
<!-- Node2&#45;&gt;Node62 -->
<g id="edge88" class="edge">
<title>Node2&#45;&gt;Node62</title>
<path fill="none" stroke="#63b8ff" d="M576.55,-384.98C566.99,-377.07 552.55,-365.11 541.05,-355.58"/>
<polygon fill="#63b8ff" stroke="#63b8ff" points="543.23,-352.85 533.3,-349.17 538.77,-358.24 543.23,-352.85"/>
</g>
<!-- Node4 -->
<g id="node4" class="node">
<title>Node4</title>
<g id="a_node4"><a xlink:title=" ">
<polygon fill="#e0e0e0" stroke="#999999" points="2275.33,-19 2194.33,-19 2194.33,0 2275.33,0 2275.33,-19"/>
<text text-anchor="middle" x="2234.83" y="-7" font-family="Helvetica,sans-Serif" font-size="10.00">BuildConfig.h</text>
</a>
</g>
</g>
<!-- Node3&#45;&gt;Node4 -->
<g id="edge3" class="edge">
<title>Node3&#45;&gt;Node4</title>
<path fill="none" stroke="#63b8ff" d="M2234.83,-54.75C2234.83,-47.8 2234.83,-37.85 2234.83,-29.13"/>
<polygon fill="#63b8ff" stroke="#63b8ff" points="2238.33,-29.09 2234.83,-19.09 2231.33,-29.09 2238.33,-29.09"/>
</g>
<!-- Node5&#45;&gt;Node3 -->
<g id="edge5" class="edge">
<title>Node5&#45;&gt;Node3</title>
<path fill="none" stroke="#63b8ff" d="M545.09,-283.37C747.3,-282.14 2259.81,-271.84 2291.83,-239 2335.5,-194.22 2278.01,-115.42 2249.34,-81.63"/>
<polygon fill="#63b8ff" stroke="#63b8ff" points="2251.96,-79.3 2242.75,-74.06 2246.68,-83.9 2251.96,-79.3"/>
</g>
<!-- Node6 -->
<g id="node6" class="node">
<title>Node6</title>
<g id="a_node6"><a xlink:href="CellPtr_8h.html" target="_top" xlink:title="Implementation of an observing weak Cell pointer.">
<polygon fill="white" stroke="#666666" points="418.33,-184 361.33,-184 361.33,-165 418.33,-165 418.33,-184"/>
<text text-anchor="middle" x="389.83" y="-172" font-family="Helvetica,sans-Serif" font-size="10.00">CellPtr.h</text>
</a>
</g>
</g>
<!-- Node5&#45;&gt;Node6 -->
<g id="edge6" class="edge">
<title>Node5&#45;&gt;Node6</title>
<path fill="none" stroke="#63b8ff" d="M500.6,-276.2C481.15,-269 452.93,-256.53 432.83,-239 418.14,-226.18 406.18,-207.25 398.64,-193.39"/>
<polygon fill="#63b8ff" stroke="#63b8ff" points="401.67,-191.62 393.95,-184.36 395.45,-194.85 401.67,-191.62"/>
</g>
<!-- Node13 -->
<g id="node13" class="node">
<title>Node13</title>
<g id="a_node13"><a xlink:title=" ">
<polygon fill="#e0e0e0" stroke="#999999" points="585.83,-129 527.83,-129 527.83,-110 585.83,-110 585.83,-129"/>
<text text-anchor="middle" x="556.83" y="-117" font-family="Helvetica,sans-Serif" font-size="10.00">memory</text>
</a>
</g>
</g>
<!-- Node5&#45;&gt;Node13 -->
<g id="edge85" class="edge">
<title>Node5&#45;&gt;Node13</title>
<path fill="none" stroke="#63b8ff" d="M506.8,-274.95C494.41,-267.35 478.18,-254.97 470.83,-239 457.07,-209.13 453.73,-193.1 470.83,-165 481.23,-147.91 500.53,-137.1 518.22,-130.41"/>
<polygon fill="#63b8ff" stroke="#63b8ff" points="519.5,-133.68 527.82,-127.11 517.22,-127.06 519.5,-133.68"/>
</g>
<!-- Node14 -->
<g id="node14" class="node">
<title>Node14</title>
<g id="a_node14"><a xlink:title=" ">
<polygon fill="#e0e0e0" stroke="#999999" points="153.33,-129 84.33,-129 84.33,-110 153.33,-110 153.33,-129"/>
<text text-anchor="middle" x="118.83" y="-117" font-family="Helvetica,sans-Serif" font-size="10.00">type_traits</text>
</a>
</g>
</g>
<!-- Node5&#45;&gt;Node14 -->
<g id="edge87" class="edge">
<title>Node5&#45;&gt;Node14</title>
<path fill="none" stroke="#63b8ff" d="M500.64,-280.61C427.19,-270.62 193.67,-235.33 140.83,-184 128.68,-172.2 123.23,-153.36 120.8,-139.26"/>
<polygon fill="#63b8ff" stroke="#63b8ff" points="124.24,-138.63 119.42,-129.19 117.31,-139.58 124.24,-138.63"/>
</g>
<!-- Node15 -->
<g id="node15" class="node">
<title>Node15</title>
<g id="a_node15"><a xlink:href="CellIterators_8h.html" target="_top" xlink:title="Declares the various iterators useful with the Cell class.">
<polygon fill="white" stroke="#666666" points="235.83,-184 149.83,-184 149.83,-165 235.83,-165 235.83,-184"/>
<text text-anchor="middle" x="192.83" y="-172" font-family="Helvetica,sans-Serif" font-size="10.00">CellIterators.h</text>
</a>
</g>
</g>
<!-- Node5&#45;&gt;Node15 -->
<g id="edge15" class="edge">
<title>Node5&#45;&gt;Node15</title>
<path fill="none" stroke="#63b8ff" d="M500.76,-277.26C471.59,-268.94 418.64,-253.54 373.83,-239 321.71,-222.09 261.82,-200.68 225.68,-187.55"/>
<polygon fill="#63b8ff" stroke="#63b8ff" points="226.73,-184.21 216.14,-184.07 224.34,-190.79 226.73,-184.21"/>
</g>
<!-- Node17 -->
<g id="node17" class="node">
<title>Node17</title>
<g id="a_node17"><a xlink:href="Configuration_8h_source.html" target="_top" xlink:title=" ">
<polygon fill="white" stroke="#666666" points="1500.33,-239 1409.33,-239 1409.33,-220 1500.33,-220 1500.33,-239"/>
<text text-anchor="middle" x="1454.83" y="-227" font-family="Helvetica,sans-Serif" font-size="10.00">Configuration.h</text>
</a>
</g>
</g>
<!-- Node5&#45;&gt;Node17 -->
<g id="edge20" class="edge">
<title>Node5&#45;&gt;Node17</title>
<path fill="none" stroke="#63b8ff" d="M544.95,-282.24C662.98,-275.53 1219.97,-243.86 1399.16,-233.67"/>
<polygon fill="#63b8ff" stroke="#63b8ff" points="1399.37,-237.16 1409.16,-233.1 1398.98,-230.17 1399.37,-237.16"/>
</g>
<!-- Node25 -->
<g id="node24" class="node">
<title>Node25</title>
<g id="a_node24"><a xlink:href="TextStyle_8h.html" target="_top" xlink:title="This file declares everything needed for the text style system used to style all the elements on the ...">
<polygon fill="#fff0f0" stroke="red" points="948.83,-129 852.83,-129 852.83,-110 948.83,-110 948.83,-129"/>
<text text-anchor="middle" x="900.83" y="-117" font-family="Helvetica,sans-Serif" font-size="10.00">cells/TextStyle.h</text>
</a>
</g>
</g>
<!-- Node5&#45;&gt;Node25 -->
<g id="edge77" class="edge">
<title>Node5&#45;&gt;Node25</title>
<path fill="none" stroke="#63b8ff" d="M517.29,-274.74C504.38,-253.12 475.5,-196.69 503.83,-165 525.98,-140.23 737.4,-127.61 842.33,-122.83"/>
<polygon fill="#63b8ff" stroke="#63b8ff" points="842.62,-126.32 852.45,-122.38 842.31,-119.33 842.62,-126.32"/>
</g>
<!-- Node27 -->
<g id="node26" class="node">
<title>Node27</title>
<g id="a_node26"><a xlink:title=" ">
<polygon fill="#e0e0e0" stroke="#999999" points="309.83,-74 271.83,-74 271.83,-55 309.83,-55 309.83,-74"/>
<text text-anchor="middle" x="290.83" y="-62" font-family="Helvetica,sans-Serif" font-size="10.00">map</text>
</a>
</g>
</g>
<!-- Node5&#45;&gt;Node27 -->
<g id="edge84" class="edge">
<title>Node5&#45;&gt;Node27</title>
<path fill="none" stroke="#63b8ff" d="M500.45,-283.03C448,-281.36 313.56,-273.74 207.83,-239 109.97,-206.85 56.62,-217.45 3.83,-129 -0.5,-121.75 -1.67,-116.41 3.83,-110 36.85,-71.46 195.39,-66.02 261.64,-65.45"/>
<polygon fill="#63b8ff" stroke="#63b8ff" points="261.82,-68.95 271.81,-65.39 261.79,-61.95 261.82,-68.95"/>
</g>
<!-- Node36 -->
<g id="node36" class="node">
<title>Node36</title>
<g id="a_node36"><a xlink:title=" ">
<polygon fill="#e0e0e0" stroke="#999999" points="2206.83,-129 2142.83,-129 2142.83,-110 2206.83,-110 2206.83,-129"/>
<text text-anchor="middle" x="2174.83" y="-117" font-family="Helvetica,sans-Serif" font-size="10.00">algorithm</text>
</a>
</g>
</g>
<!-- Node5&#45;&gt;Node36 -->
<g id="edge83" class="edge">
<title>Node5&#45;&gt;Node36</title>
<path fill="none" stroke="#63b8ff" d="M544.98,-283.05C738.51,-279.01 2136.09,-247.64 2194.83,-184 2206.66,-171.18 2197.59,-151.4 2188.15,-137.33"/>
<polygon fill="#63b8ff" stroke="#63b8ff" points="2190.82,-135.06 2182.11,-129.03 2185.17,-139.18 2190.82,-135.06"/>
</g>
<!-- Node52 -->
<g id="node39" class="node">
<title>Node52</title>
<g id="a_node39"><a xlink:title=" ">
<polygon fill="#e0e0e0" stroke="#999999" points="1061.33,-129 1014.33,-129 1014.33,-110 1061.33,-110 1061.33,-129"/>
<text text-anchor="middle" x="1037.83" y="-117" font-family="Helvetica,sans-Serif" font-size="10.00">vector</text>
</a>
</g>
</g>
<!-- Node5&#45;&gt;Node52 -->
<g id="edge86" class="edge">
<title>Node5&#45;&gt;Node52</title>
<path fill="none" stroke="#63b8ff" d="M544.96,-276.5C626.12,-250.81 907.79,-161.66 1004.74,-130.97"/>
<polygon fill="#63b8ff" stroke="#63b8ff" points="1005.84,-134.3 1014.32,-127.94 1003.73,-127.62 1005.84,-134.3"/>
</g>
<!-- Node58 -->
<g id="node46" class="node">
<title>Node58</title>
<g id="a_node46"><a xlink:href="StringUtils_8h_source.html" target="_top" xlink:title=" ">
<polygon fill="white" stroke="#666666" points="599.33,-239 522.33,-239 522.33,-220 599.33,-220 599.33,-239"/>
<text text-anchor="middle" x="560.83" y="-227" font-family="Helvetica,sans-Serif" font-size="10.00">StringUtils.h</text>
</a>
</g>
</g>
<!-- Node5&#45;&gt;Node58 -->
<g id="edge74" class="edge">
<title>Node5&#45;&gt;Node58</title>
<path fill="none" stroke="#63b8ff" d="M529.1,-274.75C534.42,-267.34 542.18,-256.5 548.7,-247.41"/>
<polygon fill="#63b8ff" stroke="#63b8ff" points="551.69,-249.26 554.67,-239.09 546,-245.18 551.69,-249.26"/>
</g>
<!-- Node60 -->
<g id="node48" class="node">
<title>Node60</title>
<g id="a_node48"><a xlink:href="CachedValue_8h.html" target="_top" xlink:title="Declares &quot;mostly read&#45;only&quot; wrappers around values that are expensive to compute and are thus cached.">
<polygon fill="#fff0f0" stroke="red" points="343.33,-184 254.33,-184 254.33,-165 343.33,-165 343.33,-184"/>
<text text-anchor="middle" x="298.83" y="-172" font-family="Helvetica,sans-Serif" font-size="10.00">CachedValue.h</text>
</a>
</g>
</g>
<!-- Node5&#45;&gt;Node60 -->
<g id="edge78" class="edge">
<title>Node5&#45;&gt;Node60</title>
<path fill="none" stroke="#63b8ff" d="M500.57,-275.42C478.1,-267.05 442.56,-253.23 412.83,-239 380.46,-223.51 344.51,-202.88 321.8,-189.4"/>
<polygon fill="#63b8ff" stroke="#63b8ff" points="323.31,-186.23 312.93,-184.1 319.71,-192.23 323.31,-186.23"/>
</g>
<!-- Node61 -->
<g id="node49" class="node">
<title>Node61</title>
<g id="a_node49"><a xlink:title=" ">
<polygon fill="#e0e0e0" stroke="#999999" points="2282.83,-239 2218.83,-239 2218.83,-220 2282.83,-220 2282.83,-239"/>
<text text-anchor="middle" x="2250.83" y="-227" font-family="Helvetica,sans-Serif" font-size="10.00">wx/defs.h</text>
</a>
</g>
</g>
<!-- Node5&#45;&gt;Node61 -->
<g id="edge82" class="edge">
<title>Node5&#45;&gt;Node61</title>
<path fill="none" stroke="#63b8ff" d="M544.91,-283.39C718.19,-282.46 1861.47,-275.04 2204.83,-239 2206.1,-238.87 2207.39,-238.72 2208.69,-238.55"/>
<polygon fill="#63b8ff" stroke="#63b8ff" points="2209.36,-241.99 2218.75,-237.09 2208.35,-235.07 2209.36,-241.99"/>
</g>
<!-- Node7 -->
<g id="node7" class="node">
<title>Node7</title>
<g id="a_node7"><a xlink:title=" ">
<polygon fill="#e0e0e0" stroke="#999999" points="244.33,-129 171.33,-129 171.33,-110 244.33,-110 244.33,-129"/>
<text text-anchor="middle" x="207.83" y="-117" font-family="Helvetica,sans-Serif" font-size="10.00">wx/debug.h</text>
</a>
</g>
</g>
<!-- Node6&#45;&gt;Node7 -->
<g id="edge7" class="edge">
<title>Node6&#45;&gt;Node7</title>
<path fill="none" stroke="#63b8ff" d="M360.99,-165.1C330.16,-156.12 281.08,-141.83 246.82,-131.85"/>
<polygon fill="#63b8ff" stroke="#63b8ff" points="247.72,-128.47 237.14,-129.03 245.76,-135.19 247.72,-128.47"/>
</g>
<!-- Node8 -->
<g id="node8" class="node">
<title>Node8</title>
<g id="a_node8"><a xlink:title=" ">
<polygon fill="#e0e0e0" stroke="#999999" points="471.83,-129 413.83,-129 413.83,-110 471.83,-110 471.83,-129"/>
<text text-anchor="middle" x="442.83" y="-117" font-family="Helvetica,sans-Serif" font-size="10.00">wx/log.h</text>
</a>
</g>
</g>
<!-- Node6&#45;&gt;Node8 -->
<g id="edge8" class="edge">
<title>Node6&#45;&gt;Node8</title>
<path fill="none" stroke="#63b8ff" d="M398.58,-164.75C406.3,-157.03 417.73,-145.6 427.05,-136.28"/>
<polygon fill="#63b8ff" stroke="#63b8ff" points="429.64,-138.64 434.24,-129.09 424.69,-133.69 429.64,-138.64"/>
</g>
<!-- Node9 -->
<g id="node9" class="node">
<title>Node9</title>
<g id="a_node9"><a xlink:title=" ">
<polygon fill="#e0e0e0" stroke="#999999" points="649.33,-129 604.33,-129 604.33,-110 649.33,-110 649.33,-129"/>
<text text-anchor="middle" x="626.83" y="-117" font-family="Helvetica,sans-Serif" font-size="10.00">utility</text>
</a>
</g>
</g>
<!-- Node6&#45;&gt;Node9 -->
<g id="edge9" class="edge">
<title>Node6&#45;&gt;Node9</title>
<path fill="none" stroke="#63b8ff" d="M418.44,-167.72C456.29,-159.98 525.3,-145.55 594.01,-129.11"/>
<polygon fill="#63b8ff" stroke="#63b8ff" points="595.23,-132.41 604.14,-126.67 593.59,-125.6 595.23,-132.41"/>
</g>
<!-- Node10 -->
<g id="node10" class="node">
<title>Node10</title>
<g id="a_node10"><a xlink:title=" ">
<polygon fill="#e0e0e0" stroke="#999999" points="315.33,-129 262.33,-129 262.33,-110 315.33,-110 315.33,-129"/>
<text text-anchor="middle" x="288.83" y="-117" font-family="Helvetica,sans-Serif" font-size="10.00">cstddef</text>
</a>
</g>
</g>
<!-- Node6&#45;&gt;Node10 -->
<g id="edge10" class="edge">
<title>Node6&#45;&gt;Node10</title>
<path fill="none" stroke="#63b8ff" d="M373.6,-164.98C357.65,-156.61 333.05,-143.7 314.45,-133.95"/>
<polygon fill="#63b8ff" stroke="#63b8ff" points="315.83,-130.72 305.35,-129.17 312.58,-136.92 315.83,-130.72"/>
</g>
<!-- Node11 -->
<g id="node11" class="node">
<title>Node11</title>
<g id="a_node11"><a xlink:title=" ">
<polygon fill="#e0e0e0" stroke="#999999" points="680.83,-74 630.83,-74 630.83,-55 680.83,-55 680.83,-74"/>
<text text-anchor="middle" x="655.83" y="-62" font-family="Helvetica,sans-Serif" font-size="10.00">cstdint</text>
</a>
</g>
</g>
<!-- Node6&#45;&gt;Node11 -->
<g id="edge11" class="edge">
<title>Node6&#45;&gt;Node11</title>
<path fill="none" stroke="#63b8ff" d="M407.64,-164.85C426,-155.92 455.45,-141.55 480.83,-129 497.76,-120.63 501.36,-117.16 518.83,-110 552.84,-96.07 592.94,-83.47 620.94,-75.26"/>
<polygon fill="#63b8ff" stroke="#63b8ff" points="622.05,-78.58 630.68,-72.44 620.1,-71.86 622.05,-78.58"/>
</g>
<!-- Node12 -->
<g id="node12" class="node">
<title>Node12</title>
<g id="a_node12"><a xlink:title=" ">
<polygon fill="#e0e0e0" stroke="#999999" points="395.83,-129 333.83,-129 333.83,-110 395.83,-110 395.83,-129"/>
<text text-anchor="middle" x="364.83" y="-117" font-family="Helvetica,sans-Serif" font-size="10.00">cinttypes</text>
</a>
</g>
</g>
<!-- Node6&#45;&gt;Node12 -->
<g id="edge12" class="edge">
<title>Node6&#45;&gt;Node12</title>
<path fill="none" stroke="#63b8ff" d="M385.7,-164.75C382.32,-157.57 377.41,-147.18 373.21,-138.27"/>
<polygon fill="#63b8ff" stroke="#63b8ff" points="376.31,-136.64 368.88,-129.09 369.98,-139.63 376.31,-136.64"/>
</g>
<!-- Node6&#45;&gt;Node13 -->
<g id="edge13" class="edge">
<title>Node6&#45;&gt;Node13</title>
<path fill="none" stroke="#63b8ff" d="M416.66,-164.98C444.7,-156.09 488.88,-142.07 520.13,-132.15"/>
<polygon fill="#63b8ff" stroke="#63b8ff" points="521.31,-135.44 529.79,-129.08 519.2,-128.77 521.31,-135.44"/>
</g>
<!-- Node6&#45;&gt;Node14 -->
<g id="edge14" class="edge">
<title>Node6&#45;&gt;Node14</title>
<path fill="none" stroke="#63b8ff" d="M361.22,-166.99C358.05,-166.31 354.87,-165.63 351.83,-165 270.78,-148.26 247.89,-145.52 163.59,-129.32"/>
<polygon fill="#63b8ff" stroke="#63b8ff" points="164.04,-125.85 153.56,-127.39 162.71,-132.72 164.04,-125.85"/>
</g>
<!-- Node15&#45;&gt;Node7 -->
<g id="edge16" class="edge">
<title>Node15&#45;&gt;Node7</title>
<path fill="none" stroke="#63b8ff" d="M195.31,-164.75C197.29,-157.72 200.15,-147.62 202.64,-138.84"/>
<polygon fill="#63b8ff" stroke="#63b8ff" points="206.04,-139.66 205.4,-129.09 199.31,-137.76 206.04,-139.66"/>
</g>
<!-- Node15&#45;&gt;Node13 -->
<g id="edge17" class="edge">
<title>Node15&#45;&gt;Node13</title>
<path fill="none" stroke="#63b8ff" d="M235.95,-166.38C238.95,-165.91 241.94,-165.44 244.83,-165 342.79,-150.01 458.32,-133.95 517.51,-125.85"/>
<polygon fill="#63b8ff" stroke="#63b8ff" points="518.12,-129.3 527.55,-124.47 517.17,-122.36 518.12,-129.3"/>
</g>
<!-- Node15&#45;&gt;Node14 -->
<g id="edge18" class="edge">
<title>Node15&#45;&gt;Node14</title>
<path fill="none" stroke="#63b8ff" d="M180.94,-164.98C169.68,-156.92 152.54,-144.65 139.12,-135.03"/>
<polygon fill="#63b8ff" stroke="#63b8ff" points="141.1,-132.15 130.94,-129.17 137.03,-137.84 141.1,-132.15"/>
</g>
<!-- Node16 -->
<g id="node16" class="node">
<title>Node16</title>
<g id="a_node16"><a xlink:title=" ">
<polygon fill="#e0e0e0" stroke="#999999" points="66.33,-129 13.33,-129 13.33,-110 66.33,-110 66.33,-129"/>
<text text-anchor="middle" x="39.83" y="-117" font-family="Helvetica,sans-Serif" font-size="10.00">iterator</text>
</a>
</g>
</g>
<!-- Node15&#45;&gt;Node16 -->
<g id="edge19" class="edge">
<title>Node15&#45;&gt;Node16</title>
<path fill="none" stroke="#63b8ff" d="M168.25,-164.98C142.78,-156.16 102.79,-142.31 74.2,-132.41"/>
<polygon fill="#63b8ff" stroke="#63b8ff" points="75.2,-129.05 64.6,-129.08 72.91,-135.66 75.2,-129.05"/>
</g>
<!-- Node17&#45;&gt;Node3 -->
<g id="edge21" class="edge">
<title>Node17&#45;&gt;Node3</title>
<path fill="none" stroke="#63b8ff" d="M1500.33,-228.59C1652.76,-228.51 2138.93,-225.02 2194.83,-184 2226.38,-160.85 2233.33,-111.55 2234.68,-84.4"/>
<polygon fill="#63b8ff" stroke="#63b8ff" points="2238.19,-84.36 2234.97,-74.27 2231.19,-84.16 2238.19,-84.36"/>
</g>
<!-- Node17&#45;&gt;Node11 -->
<g id="edge61" class="edge">
<title>Node17&#45;&gt;Node11</title>
<path fill="none" stroke="#63b8ff" d="M1409.28,-228.36C1257.25,-227.55 773.67,-221.99 715.83,-184 680.93,-161.08 665.38,-111.31 659.27,-84.13"/>
<polygon fill="#63b8ff" stroke="#63b8ff" points="662.7,-83.4 657.26,-74.31 655.84,-84.81 662.7,-83.4"/>
</g>
<!-- Node17&#45;&gt;Node13 -->
<g id="edge63" class="edge">
<title>Node17&#45;&gt;Node13</title>
<path fill="none" stroke="#63b8ff" d="M1409.12,-228.85C1261.95,-229.52 801.87,-227.95 660.83,-184 627.9,-173.74 594.73,-150.79 574.99,-135.48"/>
<polygon fill="#63b8ff" stroke="#63b8ff" points="576.91,-132.54 566.91,-129.06 572.56,-138.02 576.91,-132.54"/>
</g>
<!-- Node18 -->
<g id="node18" class="node">
<title>Node18</title>
<g id="a_node18"><a xlink:title=" ">
<polygon fill="#e0e0e0" stroke="#999999" points="1827.33,-184 1770.33,-184 1770.33,-165 1827.33,-165 1827.33,-184"/>
<text text-anchor="middle" x="1798.83" y="-172" font-family="Helvetica,sans-Serif" font-size="10.00">wx/wx.h</text>
</a>
</g>
</g>
<!-- Node17&#45;&gt;Node18 -->
<g id="edge22" class="edge">
<title>Node17&#45;&gt;Node18</title>
<path fill="none" stroke="#63b8ff" d="M1500.58,-222.44C1559.67,-214.45 1665.64,-199.57 1755.83,-184 1757.28,-183.75 1758.76,-183.49 1760.25,-183.22"/>
<polygon fill="#63b8ff" stroke="#63b8ff" points="1761,-186.64 1770.18,-181.36 1759.71,-179.76 1761,-186.64"/>
</g>
<!-- Node19 -->
<g id="node19" class="node">
<title>Node19</title>
<g id="a_node19"><a xlink:title=" ">
<polygon fill="#e0e0e0" stroke="#999999" points="770.83,-74 698.83,-74 698.83,-55 770.83,-55 770.83,-74"/>
<text text-anchor="middle" x="734.83" y="-62" font-family="Helvetica,sans-Serif" font-size="10.00">wx/config.h</text>
</a>
</g>
</g>
<!-- Node17&#45;&gt;Node19 -->
<g id="edge23" class="edge">
<title>Node17&#45;&gt;Node19</title>
<path fill="none" stroke="#63b8ff" d="M1409.09,-227.39C1253.81,-223.41 755.09,-208.74 731.83,-184 706.43,-156.99 718.27,-109.3 727.51,-83.42"/>
<polygon fill="#63b8ff" stroke="#63b8ff" points="730.78,-84.67 731.08,-74.08 724.24,-82.17 730.78,-84.67"/>
</g>
<!-- Node20 -->
<g id="node20" class="node">
<title>Node20</title>
<g id="a_node20"><a xlink:title=" ">
<polygon fill="#e0e0e0" stroke="#999999" points="1922.33,-184 1845.33,-184 1845.33,-165 1922.33,-165 1922.33,-184"/>
<text text-anchor="middle" x="1883.83" y="-172" font-family="Helvetica,sans-Serif" font-size="10.00">wx/display.h</text>
</a>
</g>
</g>
<!-- Node17&#45;&gt;Node20 -->
<g id="edge24" class="edge">
<title>Node17&#45;&gt;Node20</title>
<path fill="none" stroke="#63b8ff" d="M1500.52,-224.12C1570.41,-217.21 1708.29,-202.76 1834.87,-184.21"/>
<polygon fill="#63b8ff" stroke="#63b8ff" points="1835.75,-187.62 1845.13,-182.7 1834.73,-180.7 1835.75,-187.62"/>
</g>
<!-- Node21 -->
<g id="node21" class="node">
<title>Node21</title>
<g id="a_node21"><a xlink:title=" ">
<polygon fill="#e0e0e0" stroke="#999999" points="2030.83,-184 1940.83,-184 1940.83,-165 2030.83,-165 2030.83,-184"/>
<text text-anchor="middle" x="1985.83" y="-172" font-family="Helvetica,sans-Serif" font-size="10.00">wx/fontenum.h</text>
</a>
</g>
</g>
<!-- Node17&#45;&gt;Node21 -->
<g id="edge25" class="edge">
<title>Node17&#45;&gt;Node21</title>
<path fill="none" stroke="#63b8ff" d="M1500.65,-225.19C1584.02,-218.96 1766.32,-204.38 1930.49,-184.09"/>
<polygon fill="#63b8ff" stroke="#63b8ff" points="1931.29,-187.52 1940.78,-182.81 1930.42,-180.57 1931.29,-187.52"/>
</g>
<!-- Node22 -->
<g id="node22" class="node">
<title>Node22</title>
<g id="a_node22"><a xlink:title=" ">
<polygon fill="#e0e0e0" stroke="#999999" points="1268.83,-74 1180.83,-74 1180.83,-55 1268.83,-55 1268.83,-74"/>
<text text-anchor="middle" x="1224.83" y="-62" font-family="Helvetica,sans-Serif" font-size="10.00">wx/hashmap.h</text>
</a>
</g>
</g>
<!-- Node17&#45;&gt;Node22 -->
<g id="edge26" class="edge">
<title>Node17&#45;&gt;Node22</title>
<path fill="none" stroke="#63b8ff" d="M1451.62,-219.85C1445.94,-205.82 1432.69,-178.35 1411.83,-165 1328.74,-111.83 1256.67,-204.19 1192.83,-129 1180.67,-114.68 1194.27,-94.96 1207.3,-81.3"/>
<polygon fill="#63b8ff" stroke="#63b8ff" points="1210.01,-83.55 1214.71,-74.06 1205.11,-78.55 1210.01,-83.55"/>
</g>
<!-- Node23 -->
<g id="node23" class="node">
<title>Node23</title>
<g id="a_node23"><a xlink:href="LoggingMessageDialog_8h.html" target="_top" xlink:title="This file declares a message dialog that sends its contents to the log message sink.">
<polygon fill="#fff0f0" stroke="red" points="1332.33,-184 1155.33,-184 1155.33,-165 1332.33,-165 1332.33,-184"/>
<text text-anchor="middle" x="1243.83" y="-172" font-family="Helvetica,sans-Serif" font-size="10.00">dialogs/LoggingMessageDialog.h</text>
</a>
</g>
</g>
<!-- Node17&#45;&gt;Node23 -->
<g id="edge27" class="edge">
<title>Node17&#45;&gt;Node23</title>
<path fill="none" stroke="#63b8ff" d="M1420.93,-219.98C1384.81,-210.91 1327.5,-196.52 1287.91,-186.57"/>
<polygon fill="#63b8ff" stroke="#63b8ff" points="1288.55,-183.12 1278,-184.08 1286.84,-189.91 1288.55,-183.12"/>
</g>
<!-- Node17&#45;&gt;Node25 -->
<g id="edge30" class="edge">
<title>Node17&#45;&gt;Node25</title>
<path fill="none" stroke="#63b8ff" d="M1408.98,-227.6C1286.34,-224.8 957.42,-214.5 919.83,-184 906.71,-173.36 902.39,-154.05 901.09,-139.51"/>
<polygon fill="#63b8ff" stroke="#63b8ff" points="904.57,-138.94 900.59,-129.12 897.58,-139.28 904.57,-138.94"/>
</g>
<!-- Node32 -->
<g id="node30" class="node">
<title>Node32</title>
<g id="a_node30"><a xlink:title=" ">
<polygon fill="#e0e0e0" stroke="#999999" points="1082.33,-74 1017.33,-74 1017.33,-55 1082.33,-55 1082.33,-74"/>
<text text-anchor="middle" x="1049.83" y="-62" font-family="Helvetica,sans-Serif" font-size="10.00">functional</text>
</a>
</g>
</g>
<!-- Node17&#45;&gt;Node32 -->
<g id="edge62" class="edge">
<title>Node17&#45;&gt;Node32</title>
<path fill="none" stroke="#63b8ff" d="M1446.76,-219.93C1433.14,-206.03 1404.09,-178.74 1373.83,-165 1295.57,-129.48 1265.55,-155.62 1183.83,-129 1143.5,-115.86 1099.57,-93.33 1073.39,-78.94"/>
<polygon fill="#63b8ff" stroke="#63b8ff" points="1075.02,-75.85 1064.58,-74.04 1071.62,-81.96 1075.02,-75.85"/>
</g>
<!-- Node40 -->
<g id="node31" class="node">
<title>Node40</title>
<g id="a_node31"><a xlink:title=" ">
<polygon fill="#e0e0e0" stroke="#999999" points="1379.33,-74 1286.33,-74 1286.33,-55 1379.33,-55 1379.33,-74"/>
<text text-anchor="middle" x="1332.83" y="-62" font-family="Helvetica,sans-Serif" font-size="10.00">unordered_map</text>
</a>
</g>
</g>
<!-- Node17&#45;&gt;Node40 -->
<g id="edge65" class="edge">
<title>Node17&#45;&gt;Node40</title>
<path fill="none" stroke="#63b8ff" d="M1469.2,-219.96C1480.7,-212.21 1496.01,-199.62 1502.83,-184 1511.09,-165.09 1502.28,-120.35 1492.83,-110 1478.81,-94.64 1429.77,-82.46 1389.64,-74.75"/>
<polygon fill="#63b8ff" stroke="#63b8ff" points="1390.13,-71.28 1379.66,-72.89 1388.85,-78.16 1390.13,-71.28"/>
</g>
<!-- Node41 -->
<g id="node32" class="node">
<title>Node41</title>
<g id="a_node32"><a xlink:href="FontRenderabilityCache_8h.html" target="_top" xlink:title="Declares FontRenderabilityCache: which chars can each font render?">
<polygon fill="#fff0f0" stroke="red" points="1343.83,-129 1201.83,-129 1201.83,-110 1343.83,-110 1343.83,-129"/>
<text text-anchor="middle" x="1272.83" y="-117" font-family="Helvetica,sans-Serif" font-size="10.00">FontRenderabilityCache.h</text>
</a>
</g>
</g>
<!-- Node17&#45;&gt;Node41 -->
<g id="edge42" class="edge">
<title>Node17&#45;&gt;Node41</title>
<path fill="none" stroke="#63b8ff" d="M1456.98,-219.94C1459.8,-206.55 1462.96,-180.54 1449.83,-165 1436.48,-149.2 1390.73,-137.95 1349.08,-130.71"/>
<polygon fill="#63b8ff" stroke="#63b8ff" points="1349.61,-127.25 1339.17,-129.04 1348.45,-134.15 1349.61,-127.25"/>
</g>
<!-- Node44 -->
<g id="node34" class="node">
<title>Node44</title>
<g id="a_node34"><a xlink:href="MaximaSessionInfo_8h.html" target="_top" xlink:title="Declares MaximaSessionInfo: what we know about the connected Maxima.">
<polygon fill="white" stroke="#666666" points="1483.83,-129 1361.83,-129 1361.83,-110 1483.83,-110 1483.83,-129"/>
<text text-anchor="middle" x="1422.83" y="-117" font-family="Helvetica,sans-Serif" font-size="10.00">MaximaSessionInfo.h</text>
</a>
</g>
</g>
<!-- Node17&#45;&gt;Node44 -->
<g id="edge47" class="edge">
<title>Node17&#45;&gt;Node44</title>
<path fill="none" stroke="#63b8ff" d="M1465.03,-219.86C1478.16,-207.62 1498.14,-184.56 1487.83,-165 1480.59,-151.27 1467,-140.97 1454.11,-133.76"/>
<polygon fill="#63b8ff" stroke="#63b8ff" points="1455.44,-130.51 1444.95,-129.05 1452.24,-136.73 1455.44,-130.51"/>
</g>
<!-- Node45 -->
<g id="node35" class="node">
<title>Node45</title>
<g id="a_node35"><a xlink:href="RenderContext_8h.html" target="_top" xlink:title="Declares RenderContext: the per&#45;render&#45;pass state of a worksheet.">
<polygon fill="#fff0f0" stroke="red" points="1713.83,-184 1615.83,-184 1615.83,-165 1713.83,-165 1713.83,-184"/>
<text text-anchor="middle" x="1664.83" y="-172" font-family="Helvetica,sans-Serif" font-size="10.00">RenderContext.h</text>
</a>
</g>
</g>
<!-- Node17&#45;&gt;Node45 -->
<g id="edge51" class="edge">
<title>Node17&#45;&gt;Node45</title>
<path fill="none" stroke="#63b8ff" d="M1488.57,-219.98C1524.51,-210.91 1581.55,-196.52 1620.96,-186.57"/>
<polygon fill="#63b8ff" stroke="#63b8ff" points="1621.99,-189.92 1630.82,-184.08 1620.27,-183.14 1621.99,-189.92"/>
</g>
<!-- Node17&#45;&gt;Node36 -->
<g id="edge70" class="edge">
<title>Node17&#45;&gt;Node36</title>
<path fill="none" stroke="#63b8ff" d="M1500.56,-227.39C1655.85,-223.41 2154.57,-208.74 2177.83,-184 2188.91,-172.21 2186.32,-153.1 2182.07,-138.91"/>
<polygon fill="#63b8ff" stroke="#63b8ff" points="2185.3,-137.53 2178.71,-129.23 2178.69,-139.83 2185.3,-137.53"/>
</g>
<!-- Node50 -->
<g id="node37" class="node">
<title>Node50</title>
<g id="a_node37"><a xlink:title=" ">
<polygon fill="#e0e0e0" stroke="#999999" points="1762.83,-129 1712.83,-129 1712.83,-110 1762.83,-110 1762.83,-129"/>
<text text-anchor="middle" x="1737.83" y="-117" font-family="Helvetica,sans-Serif" font-size="10.00">atomic</text>
</a>
</g>
</g>
<!-- Node17&#45;&gt;Node50 -->
<g id="edge71" class="edge">
<title>Node17&#45;&gt;Node50</title>
<path fill="none" stroke="#63b8ff" d="M1500.36,-226.88C1568.24,-223.52 1691.35,-213.43 1722.83,-184 1734.84,-172.77 1738.06,-153.85 1738.58,-139.58"/>
<polygon fill="#63b8ff" stroke="#63b8ff" points="1742.08,-139.35 1738.55,-129.37 1735.08,-139.38 1742.08,-139.35"/>
</g>
<!-- Node51 -->
<g id="node38" class="node">
<title>Node51</title>
<g id="a_node38"><a xlink:title=" ">
<polygon fill="#e0e0e0" stroke="#999999" points="1683.83,-129 1633.83,-129 1633.83,-110 1683.83,-110 1683.83,-129"/>
<text text-anchor="middle" x="1658.83" y="-117" font-family="Helvetica,sans-Serif" font-size="10.00">chrono</text>
</a>
</g>
</g>
<!-- Node17&#45;&gt;Node51 -->
<g id="edge72" class="edge">
<title>Node17&#45;&gt;Node51</title>
<path fill="none" stroke="#63b8ff" d="M1479.71,-219.97C1502.23,-211.87 1536.03,-198.77 1563.83,-184 1591.23,-169.44 1620.61,-148.97 1639.32,-135.24"/>
<polygon fill="#63b8ff" stroke="#63b8ff" points="1641.65,-137.87 1647.6,-129.1 1637.48,-132.25 1641.65,-137.87"/>
</g>
<!-- Node17&#45;&gt;Node52 -->
<g id="edge69" class="edge">
<title>Node17&#45;&gt;Node52</title>
<path fill="none" stroke="#63b8ff" d="M1441.01,-219.89C1415.62,-204.21 1362.28,-171.97 1341.83,-165 1292.35,-148.13 1140.42,-131 1071.93,-123.91"/>
<polygon fill="#63b8ff" stroke="#63b8ff" points="1071.99,-120.39 1061.69,-122.85 1071.28,-127.36 1071.99,-120.39"/>
</g>
<!-- Node53 -->
<g id="node40" class="node">
<title>Node53</title>
<g id="a_node40"><a xlink:href="Styles_8h.html" target="_top" xlink:title="This file declares the class Styles.">
<polygon fill="white" stroke="#666666" points="796.83,-184 740.83,-184 740.83,-165 796.83,-165 796.83,-184"/>
<text text-anchor="middle" x="768.83" y="-172" font-family="Helvetica,sans-Serif" font-size="10.00">Styles.h</text>
</a>
</g>
</g>
<!-- Node17&#45;&gt;Node53 -->
<g id="edge57" class="edge">
<title>Node17&#45;&gt;Node53</title>
<path fill="none" stroke="#63b8ff" d="M1409.29,-224.98C1282.06,-215.15 924.49,-187.53 806.87,-178.44"/>
<polygon fill="#63b8ff" stroke="#63b8ff" points="807.12,-174.95 796.88,-177.67 806.58,-181.93 807.12,-174.95"/>
</g>
<!-- Node54 -->
<g id="node41" class="node">
<title>Node54</title>
<g id="a_node41"><a xlink:title=" ">
<polygon fill="#e0e0e0" stroke="#999999" points="2096.83,-184 2048.83,-184 2048.83,-165 2096.83,-165 2096.83,-184"/>
<text text-anchor="middle" x="2072.83" y="-172" font-family="Helvetica,sans-Serif" font-size="10.00">mutex</text>
</a>
</g>
</g>
<!-- Node17&#45;&gt;Node54 -->
<g id="edge64" class="edge">
<title>Node17&#45;&gt;Node54</title>
<path fill="none" stroke="#63b8ff" d="M1500.67,-227.75C1598.13,-225.58 1833.13,-217.2 2038.71,-183.87"/>
<polygon fill="#63b8ff" stroke="#63b8ff" points="2039.48,-187.29 2048.78,-182.22 2038.35,-180.39 2039.48,-187.29"/>
</g>
<!-- Node55 -->
<g id="node42" class="node">
<title>Node55</title>
<g id="a_node42"><a xlink:title=" ">
<polygon fill="#e0e0e0" stroke="#999999" points="2168.83,-184 2114.83,-184 2114.83,-165 2168.83,-165 2168.83,-184"/>
<text text-anchor="middle" x="2141.83" y="-172" font-family="Helvetica,sans-Serif" font-size="10.00">random</text>
</a>
</g>
</g>
<!-- Node17&#45;&gt;Node55 -->
<g id="edge66" class="edge">
<title>Node17&#45;&gt;Node55</title>
<path fill="none" stroke="#63b8ff" d="M1500.49,-227.94C1605.58,-226.11 1872.7,-218.31 2104.82,-183.88"/>
<polygon fill="#63b8ff" stroke="#63b8ff" points="2105.43,-187.33 2114.8,-182.38 2104.39,-180.41 2105.43,-187.33"/>
</g>
<!-- Node39 -->
<g id="node43" class="node">
<title>Node39</title>
<g id="a_node43"><a xlink:title=" ">
<polygon fill="#e0e0e0" stroke="#999999" points="960.83,-184 928.83,-184 928.83,-165 960.83,-165 960.83,-184"/>
<text text-anchor="middle" x="944.83" y="-172" font-family="Helvetica,sans-Serif" font-size="10.00">list</text>
</a>
</g>
</g>
<!-- Node17&#45;&gt;Node39 -->
<g id="edge67" class="edge">
<title>Node17&#45;&gt;Node39</title>
<path fill="none" stroke="#63b8ff" d="M1409.29,-227.7C1322.91,-225.45 1129.7,-216.84 970.83,-184 970.73,-183.98 970.63,-183.96 970.52,-183.94"/>
<polygon fill="#63b8ff" stroke="#63b8ff" points="971.47,-180.57 960.9,-181.38 969.67,-187.33 971.47,-180.57"/>
</g>
<!-- Node56 -->
<g id="node44" class="node">
<title>Node56</title>
<g id="a_node44"><a xlink:title=" ">
<polygon fill="#e0e0e0" stroke="#999999" points="1030.33,-184 979.33,-184 979.33,-165 1030.33,-165 1030.33,-184"/>
<text text-anchor="middle" x="1004.83" y="-172" font-family="Helvetica,sans-Serif" font-size="10.00">variant</text>
</a>
</g>
</g>
<!-- Node17&#45;&gt;Node56 -->
<g id="edge68" class="edge">
<title>Node17&#45;&gt;Node56</title>
<path fill="none" stroke="#63b8ff" d="M1409.11,-225.57C1334.17,-220.34 1180.39,-207.81 1040.42,-183.86"/>
<polygon fill="#63b8ff" stroke="#63b8ff" points="1040.81,-180.37 1030.36,-182.11 1039.62,-187.27 1040.81,-180.37"/>
</g>
<!-- Node57 -->
<g id="node45" class="node">
<title>Node57</title>
<g id="a_node45"><a xlink:title=" ">
<polygon fill="#e0e0e0" stroke="#999999" points="1137.33,-184 1048.33,-184 1048.33,-165 1137.33,-165 1137.33,-184"/>
<text text-anchor="middle" x="1092.83" y="-172" font-family="Helvetica,sans-Serif" font-size="10.00">wx/wupdlock.h</text>
</a>
</g>
</g>
<!-- Node17&#45;&gt;Node57 -->
<g id="edge73" class="edge">
<title>Node17&#45;&gt;Node57</title>
<path fill="none" stroke="#63b8ff" d="M1409.14,-222.08C1350.92,-213.86 1246.9,-199.04 1147.52,-184.09"/>
<polygon fill="#63b8ff" stroke="#63b8ff" points="1148.02,-180.62 1137.61,-182.59 1146.98,-187.55 1148.02,-180.62"/>
</g>
<!-- Node23&#45;&gt;Node3 -->
<g id="edge28" class="edge">
<title>Node23&#45;&gt;Node3</title>
<path fill="none" stroke="#63b8ff" d="M1301.44,-164.98C1358.5,-156.41 1448.32,-142.55 1525.83,-129 1569.96,-121.28 1580.41,-115.86 1624.83,-110 1835.55,-82.19 2089.68,-70.66 2190.51,-66.96"/>
<polygon fill="#63b8ff" stroke="#63b8ff" points="2190.76,-70.45 2200.63,-66.59 2190.51,-63.46 2190.76,-70.45"/>
</g>
<!-- Node23&#45;&gt;Node8 -->
<g id="edge29" class="edge">
<title>Node23&#45;&gt;Node8</title>
<path fill="none" stroke="#63b8ff" d="M1155.29,-165.63C1152.44,-165.41 1149.61,-165.2 1146.83,-165 867.99,-144.8 797.41,-152.55 518.83,-129 506.86,-127.99 493.85,-126.63 482.04,-125.3"/>
<polygon fill="#63b8ff" stroke="#63b8ff" points="482.36,-121.81 472.03,-124.14 481.56,-128.76 482.36,-121.81"/>
</g>
<!-- Node25&#45;&gt;Node3 -->
<g id="edge31" class="edge">
<title>Node25&#45;&gt;Node3</title>
<path fill="none" stroke="#63b8ff" d="M948.89,-114.16C966.75,-112.66 987.21,-111.09 1005.83,-110 1468.38,-82.92 2029.89,-69.77 2190.18,-66.4"/>
<polygon fill="#63b8ff" stroke="#63b8ff" points="2190.67,-69.89 2200.59,-66.18 2190.52,-62.89 2190.67,-69.89"/>
</g>
<!-- Node25&#45;&gt;Node11 -->
<g id="edge39" class="edge">
<title>Node25&#45;&gt;Node11</title>
<path fill="none" stroke="#63b8ff" d="M857.89,-109.93C817.27,-101.71 754.35,-88.71 690.84,-74.17"/>
<polygon fill="#63b8ff" stroke="#63b8ff" points="691.59,-70.75 681.06,-71.92 690.02,-77.57 691.59,-70.75"/>
</g>
<!-- Node25&#45;&gt;Node19 -->
<g id="edge37" class="edge">
<title>Node25&#45;&gt;Node19</title>
<path fill="none" stroke="#63b8ff" d="M874.16,-109.98C846.29,-101.09 802.38,-87.07 771.31,-77.15"/>
<polygon fill="#63b8ff" stroke="#63b8ff" points="772.3,-73.79 761.71,-74.08 770.17,-80.46 772.3,-73.79"/>
</g>
<!-- Node25&#45;&gt;Node22 -->
<g id="edge34" class="edge">
<title>Node25&#45;&gt;Node22</title>
<path fill="none" stroke="#63b8ff" d="M948.99,-110.62C1008.27,-100.93 1108.67,-84.5 1170.61,-74.37"/>
<polygon fill="#63b8ff" stroke="#63b8ff" points="1171.27,-77.81 1180.58,-72.74 1170.14,-70.9 1171.27,-77.81"/>
</g>
<!-- Node26 -->
<g id="node25" class="node">
<title>Node26</title>
<g id="a_node25"><a xlink:title=" ">
<polygon fill="#e0e0e0" stroke="#999999" points="936.83,-74 864.83,-74 864.83,-55 936.83,-55 936.83,-74"/>
<text text-anchor="middle" x="900.83" y="-62" font-family="Helvetica,sans-Serif" font-size="10.00">wx/colour.h</text>
</a>
</g>
</g>
<!-- Node25&#45;&gt;Node26 -->
<g id="edge32" class="edge">
<title>Node25&#45;&gt;Node26</title>
<path fill="none" stroke="#63b8ff" d="M900.83,-109.75C900.83,-102.8 900.83,-92.85 900.83,-84.13"/>
<polygon fill="#63b8ff" stroke="#63b8ff" points="904.33,-84.09 900.83,-74.09 897.33,-84.09 904.33,-84.09"/>
</g>
<!-- Node25&#45;&gt;Node27 -->
<g id="edge33" class="edge">
<title>Node25&#45;&gt;Node27</title>
<path fill="none" stroke="#63b8ff" d="M852.71,-114.32C731.63,-103.8 417.11,-76.47 319.89,-68.03"/>
<polygon fill="#63b8ff" stroke="#63b8ff" points="320.16,-64.54 309.9,-67.16 319.56,-71.51 320.16,-64.54"/>
</g>
<!-- Node28 -->
<g id="node27" class="node">
<title>Node28</title>
<g id="a_node27"><a xlink:title=" ">
<polygon fill="#e0e0e0" stroke="#999999" points="998.83,-74 954.83,-74 954.83,-55 998.83,-55 998.83,-74"/>
<text text-anchor="middle" x="976.83" y="-62" font-family="Helvetica,sans-Serif" font-size="10.00">string</text>
</a>
</g>
</g>
<!-- Node25&#45;&gt;Node28 -->
<g id="edge35" class="edge">
<title>Node25&#45;&gt;Node28</title>
<path fill="none" stroke="#63b8ff" d="M913.04,-109.98C924.61,-101.92 942.2,-89.65 955.99,-80.03"/>
<polygon fill="#63b8ff" stroke="#63b8ff" points="958.2,-82.76 964.4,-74.17 954.19,-77.02 958.2,-82.76"/>
</g>
<!-- Node29 -->
<g id="node28" class="node">
<title>Node29</title>
<g id="a_node28"><a xlink:title=" ">
<polygon fill="#e0e0e0" stroke="#999999" points="846.33,-74 789.33,-74 789.33,-55 846.33,-55 846.33,-74"/>
<text text-anchor="middle" x="817.83" y="-62" font-family="Helvetica,sans-Serif" font-size="10.00">ostream</text>
</a>
</g>
</g>
<!-- Node25&#45;&gt;Node29 -->
<g id="edge36" class="edge">
<title>Node25&#45;&gt;Node29</title>
<path fill="none" stroke="#63b8ff" d="M887.49,-109.98C874.74,-101.84 855.28,-89.41 840.16,-79.76"/>
<polygon fill="#63b8ff" stroke="#63b8ff" points="841.72,-76.6 831.41,-74.17 837.95,-82.5 841.72,-76.6"/>
</g>
<!-- Node30 -->
<g id="node29" class="node">
<title>Node30</title>
<g id="a_node29"><a xlink:title=" ">
<polygon fill="#e0e0e0" stroke="#999999" points="1162.83,-74 1100.83,-74 1100.83,-55 1162.83,-55 1162.83,-74"/>
<text text-anchor="middle" x="1131.83" y="-62" font-family="Helvetica,sans-Serif" font-size="10.00">wx/font.h</text>
</a>
</g>
</g>
<!-- Node25&#45;&gt;Node30 -->
<g id="edge38" class="edge">
<title>Node25&#45;&gt;Node30</title>
<path fill="none" stroke="#63b8ff" d="M937.94,-109.98C979.74,-100.39 1047.47,-84.86 1090.81,-74.91"/>
<polygon fill="#63b8ff" stroke="#63b8ff" points="1091.77,-78.28 1100.73,-72.63 1090.2,-71.46 1091.77,-78.28"/>
</g>
<!-- Node25&#45;&gt;Node32 -->
<g id="edge40" class="edge">
<title>Node25&#45;&gt;Node32</title>
<path fill="none" stroke="#63b8ff" d="M924.77,-109.98C949.39,-101.23 987.95,-87.51 1015.75,-77.62"/>
<polygon fill="#63b8ff" stroke="#63b8ff" points="1017.21,-80.82 1025.45,-74.17 1014.86,-74.22 1017.21,-80.82"/>
</g>
<!-- Node25&#45;&gt;Node40 -->
<g id="edge41" class="edge">
<title>Node25&#45;&gt;Node40</title>
<path fill="none" stroke="#63b8ff" d="M949.1,-113.36C1018.99,-105.8 1152.67,-90.87 1276.04,-74.21"/>
<polygon fill="#63b8ff" stroke="#63b8ff" points="1276.6,-77.66 1286.04,-72.85 1275.66,-70.73 1276.6,-77.66"/>
</g>
<!-- Node41&#45;&gt;Node22 -->
<g id="edge44" class="edge">
<title>Node41&#45;&gt;Node22</title>
<path fill="none" stroke="#63b8ff" d="M1264.9,-109.75C1257.98,-102.11 1247.76,-90.82 1239.38,-81.56"/>
<polygon fill="#63b8ff" stroke="#63b8ff" points="1241.92,-79.15 1232.61,-74.09 1236.73,-83.85 1241.92,-79.15"/>
</g>
<!-- Node41&#45;&gt;Node30 -->
<g id="edge43" class="edge">
<title>Node41&#45;&gt;Node30</title>
<path fill="none" stroke="#63b8ff" d="M1250.18,-109.98C1226.98,-101.27 1190.71,-87.63 1164.43,-77.75"/>
<polygon fill="#63b8ff" stroke="#63b8ff" points="1165.49,-74.41 1154.9,-74.17 1163.02,-80.97 1165.49,-74.41"/>
</g>
<!-- Node41&#45;&gt;Node40 -->
<g id="edge46" class="edge">
<title>Node41&#45;&gt;Node40</title>
<path fill="none" stroke="#63b8ff" d="M1282.47,-109.98C1291.34,-102.15 1304.7,-90.34 1315.44,-80.86"/>
<polygon fill="#63b8ff" stroke="#63b8ff" points="1317.84,-83.41 1323.01,-74.17 1313.2,-78.17 1317.84,-83.41"/>
</g>
<!-- Node43 -->
<g id="node33" class="node">
<title>Node43</title>
<g id="a_node33"><a xlink:title=" ">
<polygon fill="#e0e0e0" stroke="#999999" points="1468.33,-74 1397.33,-74 1397.33,-55 1468.33,-55 1468.33,-74"/>
<text text-anchor="middle" x="1432.83" y="-62" font-family="Helvetica,sans-Serif" font-size="10.00">wx/string.h</text>
</a>
</g>
</g>
<!-- Node41&#45;&gt;Node43 -->
<g id="edge45" class="edge">
<title>Node41&#45;&gt;Node43</title>
<path fill="none" stroke="#63b8ff" d="M1298.54,-109.98C1325.28,-101.13 1367.36,-87.19 1397.28,-77.28"/>
<polygon fill="#63b8ff" stroke="#63b8ff" points="1398.53,-80.55 1406.92,-74.08 1396.33,-73.9 1398.53,-80.55"/>
</g>
<!-- Node44&#45;&gt;Node22 -->
<g id="edge49" class="edge">
<title>Node44&#45;&gt;Node22</title>
<path fill="none" stroke="#63b8ff" d="M1391.02,-109.98C1357.34,-100.97 1304.03,-86.7 1266.9,-76.76"/>
<polygon fill="#63b8ff" stroke="#63b8ff" points="1267.46,-73.29 1256.89,-74.08 1265.65,-80.05 1267.46,-73.29"/>
</g>
<!-- Node44&#45;&gt;Node40 -->
<g id="edge50" class="edge">
<title>Node44&#45;&gt;Node40</title>
<path fill="none" stroke="#63b8ff" d="M1408.37,-109.98C1394.41,-101.77 1373.04,-89.18 1356.58,-79.49"/>
<polygon fill="#63b8ff" stroke="#63b8ff" points="1357.95,-76.23 1347.55,-74.17 1354.39,-82.26 1357.95,-76.23"/>
</g>
<!-- Node44&#45;&gt;Node43 -->
<g id="edge48" class="edge">
<title>Node44&#45;&gt;Node43</title>
<path fill="none" stroke="#63b8ff" d="M1424.48,-109.75C1425.79,-102.8 1427.67,-92.85 1429.31,-84.13"/>
<polygon fill="#63b8ff" stroke="#63b8ff" points="1432.79,-84.56 1431.21,-74.09 1425.92,-83.27 1432.79,-84.56"/>
</g>
<!-- Node45&#45;&gt;Node13 -->
<g id="edge55" class="edge">
<title>Node45&#45;&gt;Node13</title>
<path fill="none" stroke="#63b8ff" d="M1615.68,-171.97C1424.46,-165.96 734.36,-143.61 596.19,-128.8"/>
<polygon fill="#63b8ff" stroke="#63b8ff" points="596.54,-125.32 586.2,-127.61 595.71,-132.27 596.54,-125.32"/>
</g>
<!-- Node45&#45;&gt;Node36 -->
<g id="edge52" class="edge">
<title>Node45&#45;&gt;Node36</title>
<path fill="none" stroke="#63b8ff" d="M1714.19,-168.37C1814.19,-157.98 2039.1,-134.61 2132.7,-124.88"/>
<polygon fill="#63b8ff" stroke="#63b8ff" points="2133.08,-128.36 2142.66,-123.84 2132.36,-121.4 2133.08,-128.36"/>
</g>
<!-- Node45&#45;&gt;Node50 -->
<g id="edge53" class="edge">
<title>Node45&#45;&gt;Node50</title>
<path fill="none" stroke="#63b8ff" d="M1676.56,-164.98C1687.56,-157 1704.25,-144.88 1717.43,-135.31"/>
<polygon fill="#63b8ff" stroke="#63b8ff" points="1719.85,-137.88 1725.89,-129.17 1715.74,-132.21 1719.85,-137.88"/>
</g>
<!-- Node45&#45;&gt;Node51 -->
<g id="edge54" class="edge">
<title>Node45&#45;&gt;Node51</title>
<path fill="none" stroke="#63b8ff" d="M1663.84,-164.75C1663.05,-157.8 1661.93,-147.85 1660.94,-139.13"/>
<polygon fill="#63b8ff" stroke="#63b8ff" points="1664.4,-138.63 1659.8,-129.09 1657.45,-139.42 1664.4,-138.63"/>
</g>
<!-- Node45&#45;&gt;Node52 -->
<g id="edge56" class="edge">
<title>Node45&#45;&gt;Node52</title>
<path fill="none" stroke="#63b8ff" d="M1615.63,-169.34C1492.95,-158.97 1175.87,-132.17 1071.61,-123.36"/>
<polygon fill="#63b8ff" stroke="#63b8ff" points="1071.62,-119.84 1061.36,-122.49 1071.03,-126.82 1071.62,-119.84"/>
</g>
<!-- Node53&#45;&gt;Node9 -->
<g id="edge59" class="edge">
<title>Node53&#45;&gt;Node9</title>
<path fill="none" stroke="#63b8ff" d="M746.01,-164.98C722.52,-156.21 685.69,-142.47 659.19,-132.58"/>
<polygon fill="#63b8ff" stroke="#63b8ff" points="660.18,-129.21 649.59,-128.99 657.73,-135.77 660.18,-129.21"/>
</g>
<!-- Node53&#45;&gt;Node25 -->
<g id="edge58" class="edge">
<title>Node53&#45;&gt;Node25</title>
<path fill="none" stroke="#63b8ff" d="M790.04,-164.98C811.56,-156.34 845.11,-142.87 869.66,-133.02"/>
<polygon fill="#63b8ff" stroke="#63b8ff" points="871.26,-136.14 879.24,-129.17 868.65,-129.65 871.26,-136.14"/>
</g>
<!-- Node53&#45;&gt;Node52 -->
<g id="edge60" class="edge">
<title>Node53&#45;&gt;Node52</title>
<path fill="none" stroke="#63b8ff" d="M796.84,-167.81C801.51,-166.86 806.31,-165.9 810.83,-165 879.56,-151.31 960.07,-135.6 1004.36,-126.99"/>
<polygon fill="#63b8ff" stroke="#63b8ff" points="1005.14,-130.41 1014.29,-125.07 1003.81,-123.54 1005.14,-130.41"/>
</g>
<!-- Node58&#45;&gt;Node43 -->
<g id="edge75" class="edge">
<title>Node58&#45;&gt;Node43</title>
<path fill="none" stroke="#63b8ff" d="M599.37,-221.43C685.45,-205.68 888.29,-168.77 919.83,-165 983.17,-157.43 1449.16,-175.5 1492.83,-129 1509.07,-111.7 1483.06,-91.83 1460.36,-78.99"/>
<polygon fill="#63b8ff" stroke="#63b8ff" points="1461.76,-75.77 1451.29,-74.11 1458.44,-81.93 1461.76,-75.77"/>
</g>
<!-- Node59 -->
<g id="node47" class="node">
<title>Node59</title>
<g id="a_node47"><a xlink:title=" ">
<polygon fill="#e0e0e0" stroke="#999999" points="608.33,-184 513.33,-184 513.33,-165 608.33,-165 608.33,-184"/>
<text text-anchor="middle" x="560.83" y="-172" font-family="Helvetica,sans-Serif" font-size="10.00">wx/translation.h</text>
</a>
</g>
</g>
<!-- Node58&#45;&gt;Node59 -->
<g id="edge76" class="edge">
<title>Node58&#45;&gt;Node59</title>
<path fill="none" stroke="#63b8ff" d="M560.83,-219.75C560.83,-212.8 560.83,-202.85 560.83,-194.13"/>
<polygon fill="#63b8ff" stroke="#63b8ff" points="564.33,-194.09 560.83,-184.09 557.33,-194.09 564.33,-194.09"/>
</g>
<!-- Node60&#45;&gt;Node7 -->
<g id="edge79" class="edge">
<title>Node60&#45;&gt;Node7</title>
<path fill="none" stroke="#63b8ff" d="M284.21,-164.98C269.97,-156.69 248.08,-143.94 231.38,-134.22"/>
<polygon fill="#63b8ff" stroke="#63b8ff" points="233.12,-131.18 222.72,-129.17 229.6,-137.23 233.12,-131.18"/>
</g>
<!-- Node60&#45;&gt;Node8 -->
<g id="edge80" class="edge">
<title>Node60&#45;&gt;Node8</title>
<path fill="none" stroke="#63b8ff" d="M321.97,-164.98C345.65,-156.27 382.7,-142.63 409.54,-132.75"/>
<polygon fill="#63b8ff" stroke="#63b8ff" points="411.1,-135.91 419.27,-129.17 408.68,-129.34 411.1,-135.91"/>
</g>
<!-- Node60&#45;&gt;Node14 -->
<g id="edge81" class="edge">
<title>Node60&#45;&gt;Node14</title>
<path fill="none" stroke="#63b8ff" d="M269.91,-164.98C239.56,-156.05 191.66,-141.94 157.95,-132.02"/>
<polygon fill="#63b8ff" stroke="#63b8ff" points="158.56,-128.55 147.98,-129.08 156.58,-135.26 158.56,-128.55"/>
</g>
<!-- Node62&#45;&gt;Node5 -->
<g id="edge89" class="edge">
<title>Node62&#45;&gt;Node5</title>
<path fill="none" stroke="#63b8ff" d="M522.83,-329.75C522.83,-322.8 522.83,-312.85 522.83,-304.13"/>
<polygon fill="#63b8ff" stroke="#63b8ff" points="526.33,-304.09 522.83,-294.09 519.33,-304.09 526.33,-304.09"/>
</g>
</g>
</svg>
