<?xml version="1.0" encoding="UTF-8" standalone="no"?>
<!DOCTYPE svg PUBLIC "-//W3C//DTD SVG 1.1//EN"
 "http://www.w3.org/Graphics/SVG/1.1/DTD/svg11.dtd">
<!-- Generated by graphviz version 2.43.0 (0)
 -->
<!-- Title: src/RecentDocuments.h Pages: 1 -->
<!--zoomable 313 -->
<svg id="main" version="1.1" xmlns="http://www.w3.org/2000/svg" xmlns:xlink="http://www.w3.org/1999/xlink" xml:space="preserve" onload="init(evt)">
<style type="text/css"><![CDATA[
.edge:hover path { stroke: red; }
.edge:hover polygon { stroke: red; fill: red; }
]]></style>
<script type="text/javascript"><![CDATA[
var edges = document.getElementsByTagName('g');
if (edges && edges.length) {
  for (var i=0;i<edges.length;i++) {
    if (edges[i].id.substr(0,4)=='edge') {
      edges[i].setAttribute('class','edge');
    }
  }
}
]]></script>
        <defs>
                <circle id="rim" cx="0" cy="0" r="7"/>
                <circle id="rim2" cx="0" cy="0" r="3.5"/>
                <g id="zoomPlus">
                        <use xlink:href="#rim" fill="#404040">
                                <set attributeName="fill" to="#808080" begin="zoomplus.mouseover" end="zoomplus.mouseout"/>
                        </use>
                        <path d="M-4,0h8M0,-4v8" fill="none" stroke="white" stroke-width="1.5" pointer-events="none"/>
                </g>
                <g id="zoomMin">
                        <use xlink:href="#rim" fill="#404040">
                                <set attributeName="fill" to="#808080" begin="zoomminus.mouseover" end="zoomminus.mouseout"/>
                        </use>
                        <path d="M-4,0h8" fill="none" stroke="white" stroke-width="1.5" pointer-events="none"/>
                </g>
                <g id="dirArrow">
                        <path fill="none" stroke="white" stroke-width="1.5" d="M0,-3.0v7 M-2.5,-0.5L0,-3.0L2.5,-0.5"/>
                </g>
               <g id="resetDef">
                       <use xlink:href="#rim2" fill="#404040">
                               <set attributeName="fill" to="#808080" begin="reset.mouseover" end="reset.mouseout"/>
                       </use>
               </g>
        </defs>

<script type="text/javascript">
var viewWidth = 1579;
var viewHeight = 313;
var sectionId = 'dynsection-1';
</script>
<script xlink:href="svgpan.js"/>
<svg id="graph" class="graph">
<g id="viewport">
<title>src/RecentDocuments.h</title>
<!-- Node1 -->
<g id="node1" class="node">
<title>Node1</title>
<g id="a_node1"><a xlink:title="The definition of the class RecentDocuments that provides a recent files mechanism that is extensible...">
<polygon fill="#999999" stroke="#666666" points="685,-305 553,-305 553,-286 685,-286 685,-305"/>
<text text-anchor="middle" x="619" y="-293" font-family="Helvetica,sans-Serif" font-size="10.00">src/RecentDocuments.h</text>
</a>
</g>
</g>
<!-- Node2 -->
<g id="node2" class="node">
<title>Node2</title>
<g id="a_node2"><a xlink:href="Worksheet_8h.html" target="_top" xlink:title="This file defines the class Worksheet.">
<polygon fill="white" stroke="#666666" points="628.5,-250 533.5,-250 533.5,-231 628.5,-231 628.5,-250"/>
<text text-anchor="middle" x="581" y="-238" font-family="Helvetica,sans-Serif" font-size="10.00">src/Worksheet.h</text>
</a>
</g>
</g>
<!-- Node1&#45;&gt;Node2 -->
<g id="edge1" class="edge">
<title>Node1&#45;&gt;Node2</title>
<path fill="none" stroke="#63b8ff" d="M606.73,-277.39C600.19,-268.27 592.43,-257.45 587.16,-250.09"/>
<polygon fill="#63b8ff" stroke="#63b8ff" points="604.05,-279.66 612.73,-285.75 609.74,-275.58 604.05,-279.66"/>
</g>
<!-- Node11 -->
<g id="node11" class="node">
<title>Node11</title>
<g id="a_node11"><a xlink:href="wxMaximaFrame_8h.html" target="_top" xlink:title="This file declares the class wxMaximaFrame.">
<polygon fill="white" stroke="#666666" points="1204,-189.5 1076,-189.5 1076,-170.5 1204,-170.5 1204,-189.5"/>
<text text-anchor="middle" x="1140" y="-177.5" font-family="Helvetica,sans-Serif" font-size="10.00">src/wxMaximaFrame.h</text>
</a>
</g>
</g>
<!-- Node1&#45;&gt;Node11 -->
<g id="edge31" class="edge">
<title>Node1&#45;&gt;Node11</title>
<path fill="none" stroke="#63b8ff" d="M667.97,-283.83C770.73,-261.45 1007.09,-209.96 1100.74,-189.55"/>
<polygon fill="#63b8ff" stroke="#63b8ff" points="667.19,-280.42 658.16,-285.97 668.68,-287.26 667.19,-280.42"/>
</g>
<!-- Node3 -->
<g id="node3" class="node">
<title>Node3</title>
<g id="a_node3"><a xlink:href="Worksheet_8cpp.html" target="_top" xlink:title="This file defines the class Worksheet.">
<polygon fill="white" stroke="#666666" points="1012,-74 906,-74 906,-55 1012,-55 1012,-74"/>
<text text-anchor="middle" x="959" y="-62" font-family="Helvetica,sans-Serif" font-size="10.00">src/Worksheet.cpp</text>
</a>
</g>
</g>
<!-- Node2&#45;&gt;Node3 -->
<g id="edge2" class="edge">
<title>Node2&#45;&gt;Node3</title>
<path fill="none" stroke="#63b8ff" d="M638.8,-236.18C732.32,-230.2 908.3,-216.26 927,-195 935.81,-184.99 932.02,-177.35 927,-165 918.61,-144.32 900.39,-149.68 892,-129 888.82,-121.18 888.01,-117.44 892,-110 901.24,-92.77 920.41,-81.08 935.89,-74.02"/>
<polygon fill="#63b8ff" stroke="#63b8ff" points="638.4,-232.69 628.64,-236.81 638.84,-239.68 638.4,-232.69"/>
</g>
<!-- Node4 -->
<g id="node4" class="node">
<title>Node4</title>
<g id="a_node4"><a xlink:href="Cell_8cpp.html" target="_top" xlink:title="Core layout and rendering logic for worksheet cells.">
<polygon fill="white" stroke="#666666" points="98,-189.5 0,-189.5 0,-170.5 98,-170.5 98,-189.5"/>
<text text-anchor="middle" x="49" y="-177.5" font-family="Helvetica,sans-Serif" font-size="10.00">src/cells/Cell.cpp</text>
</a>
</g>
</g>
<!-- Node2&#45;&gt;Node4 -->
<g id="edge3" class="edge">
<title>Node2&#45;&gt;Node4</title>
<path fill="none" stroke="#63b8ff" d="M523.05,-236.74C433.38,-231.87 255.81,-219.81 107,-195 98.42,-193.57 89.22,-191.57 80.74,-189.53"/>
<polygon fill="#63b8ff" stroke="#63b8ff" points="523.11,-240.25 533.28,-237.28 523.48,-233.26 523.11,-240.25"/>
</g>
<!-- Node5 -->
<g id="node5" class="node">
<title>Node5</title>
<g id="a_node5"><a xlink:href="GroupCell_8cpp.html" target="_top" xlink:title="This file defines the class GroupCell.">
<polygon fill="white" stroke="#666666" points="244,-189.5 116,-189.5 116,-170.5 244,-170.5 244,-189.5"/>
<text text-anchor="middle" x="180" y="-177.5" font-family="Helvetica,sans-Serif" font-size="10.00">src/cells/GroupCell.cpp</text>
</a>
</g>
</g>
<!-- Node2&#45;&gt;Node5 -->
<g id="edge4" class="edge">
<title>Node2&#45;&gt;Node5</title>
<path fill="none" stroke="#63b8ff" d="M523.29,-232.27C458.6,-224 350.6,-209.68 258,-195 247.54,-193.34 236.31,-191.41 225.73,-189.53"/>
<polygon fill="#63b8ff" stroke="#63b8ff" points="522.93,-235.75 533.3,-233.54 523.82,-228.81 522.93,-235.75"/>
</g>
<!-- Node6 -->
<g id="node6" class="node">
<title>Node6</title>
<g id="a_node6"><a xlink:href="ConfigDialogue_8h.html" target="_top" xlink:title="The configuration dialog.">
<polygon fill="white" stroke="#666666" points="887.5,-74 732.5,-74 732.5,-55 887.5,-55 887.5,-74"/>
<text text-anchor="middle" x="810" y="-62" font-family="Helvetica,sans-Serif" font-size="10.00">src/dialogs/ConfigDialogue.h</text>
</a>
</g>
</g>
<!-- Node2&#45;&gt;Node6 -->
<g id="edge5" class="edge">
<title>Node2&#45;&gt;Node6</title>
<path fill="none" stroke="#63b8ff" d="M522.9,-237.6C456.32,-234.05 353.26,-223.92 329,-195 320.43,-184.78 320.58,-175.34 329,-165 355.35,-132.64 622.64,-91.59 746.99,-74.06"/>
<polygon fill="#63b8ff" stroke="#63b8ff" points="523.09,-241.11 533.26,-238.11 523.44,-234.12 523.09,-241.11"/>
</g>
<!-- Node9 -->
<g id="node9" class="node">
<title>Node9</title>
<g id="a_node9"><a xlink:href="DiffFrame_8h_source.html" target="_top" xlink:title=" ">
<polygon fill="white" stroke="#666666" points="714.5,-74 585.5,-74 585.5,-55 714.5,-55 714.5,-74"/>
<text text-anchor="middle" x="650" y="-62" font-family="Helvetica,sans-Serif" font-size="10.00">src/dialogs/DiffFrame.h</text>
</a>
</g>
</g>
<!-- Node2&#45;&gt;Node9 -->
<g id="edge8" class="edge">
<title>Node2&#45;&gt;Node9</title>
<path fill="none" stroke="#63b8ff" d="M523.26,-238.99C448.58,-236.96 324.65,-228.47 296,-195 271.43,-166.3 271.01,-138.33 296,-110 314.8,-88.69 488.53,-75.07 585.43,-69.06"/>
<polygon fill="#63b8ff" stroke="#63b8ff" points="523.37,-242.49 533.46,-239.23 523.54,-235.49 523.37,-242.49"/>
</g>
<!-- Node10 -->
<g id="node10" class="node">
<title>Node10</title>
<g id="a_node10"><a xlink:href="Printout_8cpp.html" target="_top" xlink:title="This file defines the class MathPrintOut.">
<polygon fill="white" stroke="#666666" points="493.5,-189.5 338.5,-189.5 338.5,-170.5 493.5,-170.5 493.5,-189.5"/>
<text text-anchor="middle" x="416" y="-177.5" font-family="Helvetica,sans-Serif" font-size="10.00">src/graphical_io/Printout.cpp</text>
</a>
</g>
</g>
<!-- Node2&#45;&gt;Node10 -->
<g id="edge11" class="edge">
<title>Node2&#45;&gt;Node10</title>
<path fill="none" stroke="#63b8ff" d="M547.22,-227.52C515.32,-216.21 468.26,-199.53 440.02,-189.52"/>
<polygon fill="#63b8ff" stroke="#63b8ff" points="546.41,-230.95 557.01,-230.99 548.75,-224.35 546.41,-230.95"/>
</g>
<!-- Node2&#45;&gt;Node11 -->
<g id="edge12" class="edge">
<title>Node2&#45;&gt;Node11</title>
<path fill="none" stroke="#63b8ff" d="M638.77,-233.45C743.89,-222.45 965.72,-199.24 1075.57,-187.74"/>
<polygon fill="#63b8ff" stroke="#63b8ff" points="638.24,-229.99 628.66,-234.51 638.97,-236.95 638.24,-229.99"/>
</g>
<!-- Node19 -->
<g id="node19" class="node">
<title>Node19</title>
<g id="a_node19"><a xlink:href="test__EditorCellInvariants_8cpp.html" target="_top" xlink:title="Hardening tests for EditorCell&#39;s text&#45;editing core.">
<polygon fill="white" stroke="#666666" points="650,-195 512,-195 512,-165 650,-165 650,-195"/>
<text text-anchor="start" x="520" y="-183" font-family="Helvetica,sans-Serif" font-size="10.00">test/unit_tests/test</text>
<text text-anchor="middle" x="581" y="-172" font-family="Helvetica,sans-Serif" font-size="10.00">_EditorCellInvariants.cpp</text>
</a>
</g>
</g>
<!-- Node2&#45;&gt;Node19 -->
<g id="edge28" class="edge">
<title>Node2&#45;&gt;Node19</title>
<path fill="none" stroke="#63b8ff" d="M581,-220.65C581,-212.36 581,-202.78 581,-195.11"/>
<polygon fill="#63b8ff" stroke="#63b8ff" points="577.5,-220.87 581,-230.87 584.5,-220.87 577.5,-220.87"/>
</g>
<!-- Node20 -->
<g id="node20" class="node">
<title>Node20</title>
<g id="a_node20"><a xlink:href="test__GroupCellLayout_8cpp.html" target="_top" xlink:title="Regression tests for the GroupCell &lt;&#45;&gt; EditorCell layout coupling.">
<polygon fill="white" stroke="#666666" points="791.5,-195 668.5,-195 668.5,-165 791.5,-165 791.5,-195"/>
<text text-anchor="start" x="676.5" y="-183" font-family="Helvetica,sans-Serif" font-size="10.00">test/unit_tests/test</text>
<text text-anchor="middle" x="730" y="-172" font-family="Helvetica,sans-Serif" font-size="10.00">_GroupCellLayout.cpp</text>
</a>
</g>
</g>
<!-- Node2&#45;&gt;Node20 -->
<g id="edge29" class="edge">
<title>Node2&#45;&gt;Node20</title>
<path fill="none" stroke="#63b8ff" d="M611.99,-227.33C635.93,-217.93 669.1,-204.91 694.18,-195.06"/>
<polygon fill="#63b8ff" stroke="#63b8ff" points="610.7,-224.08 602.67,-230.99 613.25,-230.6 610.7,-224.08"/>
</g>
<!-- Node21 -->
<g id="node21" class="node">
<title>Node21</title>
<g id="a_node21"><a xlink:href="test__TreeUndo_8cpp.html" target="_top" xlink:title="Regression tests for the worksheet&#39;s cell&#45;tree undo/redo (the TreeUndo_* subsystem of Worksheet).">
<polygon fill="white" stroke="#666666" points="918,-195 810,-195 810,-165 918,-165 918,-195"/>
<text text-anchor="start" x="818" y="-183" font-family="Helvetica,sans-Serif" font-size="10.00">test/unit_tests/test</text>
<text text-anchor="middle" x="864" y="-172" font-family="Helvetica,sans-Serif" font-size="10.00">_TreeUndo.cpp</text>
</a>
</g>
</g>
<!-- Node2&#45;&gt;Node21 -->
<g id="edge30" class="edge">
<title>Node2&#45;&gt;Node21</title>
<path fill="none" stroke="#63b8ff" d="M633.82,-229C678.21,-220.11 743.3,-206.96 800,-195 803.23,-194.32 806.54,-193.61 809.89,-192.9"/>
<polygon fill="#63b8ff" stroke="#63b8ff" points="632.96,-225.6 623.84,-230.99 634.33,-232.46 632.96,-225.6"/>
</g>
<!-- Node7 -->
<g id="node7" class="node">
<title>Node7</title>
<g id="a_node7"><a xlink:href="main_8cpp.html" target="_top" xlink:title="The file that defines the starting point of the program.">
<polygon fill="white" stroke="#666666" points="1032.5,-19 953.5,-19 953.5,0 1032.5,0 1032.5,-19"/>
<text text-anchor="middle" x="993" y="-7" font-family="Helvetica,sans-Serif" font-size="10.00">src/main.cpp</text>
</a>
</g>
</g>
<!-- Node6&#45;&gt;Node7 -->
<g id="edge6" class="edge">
<title>Node6&#45;&gt;Node7</title>
<path fill="none" stroke="#63b8ff" d="M849.07,-52.18C883.3,-42.27 932.29,-28.08 963.37,-19.08"/>
<polygon fill="#63b8ff" stroke="#63b8ff" points="848.03,-48.84 839.4,-54.98 849.98,-55.56 848.03,-48.84"/>
</g>
<!-- Node8 -->
<g id="node8" class="node">
<title>Node8</title>
<g id="a_node8"><a xlink:href="wxMaxima_8cpp.html" target="_top" xlink:title="This file defines the contents of the class wxMaxima that contains most of the program&#39;s logic.">
<polygon fill="white" stroke="#666666" points="888,-19 780,-19 780,0 888,0 888,-19"/>
<text text-anchor="middle" x="834" y="-7" font-family="Helvetica,sans-Serif" font-size="10.00">src/wxMaxima.cpp</text>
</a>
</g>
</g>
<!-- Node6&#45;&gt;Node8 -->
<g id="edge7" class="edge">
<title>Node6&#45;&gt;Node8</title>
<path fill="none" stroke="#63b8ff" d="M818.14,-45.53C822.18,-36.6 826.88,-26.22 830.11,-19.09"/>
<polygon fill="#63b8ff" stroke="#63b8ff" points="814.9,-44.19 813.96,-54.75 821.28,-47.08 814.9,-44.19"/>
</g>
<!-- Node9&#45;&gt;Node7 -->
<g id="edge9" class="edge">
<title>Node9&#45;&gt;Node7</title>
<path fill="none" stroke="#63b8ff" d="M715.18,-53.43C785.41,-42.58 894.94,-25.65 953.28,-16.64"/>
<polygon fill="#63b8ff" stroke="#63b8ff" points="714.46,-50 705.11,-54.98 715.53,-56.92 714.46,-50"/>
</g>
<!-- Node9&#45;&gt;Node8 -->
<g id="edge10" class="edge">
<title>Node9&#45;&gt;Node8</title>
<path fill="none" stroke="#63b8ff" d="M689.29,-52.18C723.7,-42.27 772.96,-28.08 804.21,-19.08"/>
<polygon fill="#63b8ff" stroke="#63b8ff" points="688.2,-48.85 679.56,-54.98 690.14,-55.58 688.2,-48.85"/>
</g>
<!-- Node11&#45;&gt;Node3 -->
<g id="edge14" class="edge">
<title>Node11&#45;&gt;Node3</title>
<path fill="none" stroke="#63b8ff" d="M1065.53,-173.58C1003,-167.3 920.63,-154.38 900,-129 883.2,-108.33 917.83,-85.89 940.81,-74.01"/>
<polygon fill="#63b8ff" stroke="#63b8ff" points="1065.49,-177.1 1075.78,-174.57 1066.16,-170.13 1065.49,-177.1"/>
</g>
<!-- Node12 -->
<g id="node12" class="node">
<title>Node12</title>
<g id="a_node12"><a xlink:href="AutocompletePopup_8cpp.html" target="_top" xlink:title="This file defines the class AutocompletePopup.">
<polygon fill="white" stroke="#666666" points="1554,-129 1402,-129 1402,-110 1554,-110 1554,-129"/>
<text text-anchor="middle" x="1478" y="-117" font-family="Helvetica,sans-Serif" font-size="10.00">src/AutocompletePopup.cpp</text>
</a>
</g>
</g>
<!-- Node11&#45;&gt;Node12 -->
<g id="edge13" class="edge">
<title>Node11&#45;&gt;Node12</title>
<path fill="none" stroke="#63b8ff" d="M1199.26,-168.74C1264.43,-157.46 1367.94,-139.55 1428.79,-129.02"/>
<polygon fill="#63b8ff" stroke="#63b8ff" points="1198.4,-165.34 1189.15,-170.49 1199.6,-172.24 1198.4,-165.34"/>
</g>
<!-- Node13 -->
<g id="node13" class="node">
<title>Node13</title>
<g id="a_node13"><a xlink:href="EditorCell_8cpp.html" target="_top" xlink:title="This file defines the class EditorCell.">
<polygon fill="white" stroke="#666666" points="1482.5,-74 1355.5,-74 1355.5,-55 1482.5,-55 1482.5,-74"/>
<text text-anchor="middle" x="1419" y="-62" font-family="Helvetica,sans-Serif" font-size="10.00">src/cells/EditorCell.cpp</text>
</a>
</g>
</g>
<!-- Node11&#45;&gt;Node13 -->
<g id="edge15" class="edge">
<title>Node11&#45;&gt;Node13</title>
<path fill="none" stroke="#63b8ff" d="M1214.47,-175.49C1329.68,-169.28 1540.29,-154.55 1563,-129 1590.95,-97.55 1533.16,-80.96 1482.68,-72.73"/>
<polygon fill="#63b8ff" stroke="#63b8ff" points="1214.11,-172 1204.31,-176.03 1214.48,-178.99 1214.11,-172"/>
</g>
<!-- Node14 -->
<g id="node14" class="node">
<title>Node14</title>
<g id="a_node14"><a xlink:href="main_8h.html" target="_top" xlink:title="This file declares the class wxMaxima that contains most of the program&#39;s logic.">
<polygon fill="white" stroke="#666666" points="1174,-74 1106,-74 1106,-55 1174,-55 1174,-74"/>
<text text-anchor="middle" x="1140" y="-62" font-family="Helvetica,sans-Serif" font-size="10.00">src/main.h</text>
</a>
</g>
</g>
<!-- Node11&#45;&gt;Node14 -->
<g id="edge16" class="edge">
<title>Node11&#45;&gt;Node14</title>
<path fill="none" stroke="#63b8ff" d="M1214.54,-178.2C1291.95,-174.7 1396.39,-160.84 1355,-110 1332.62,-82.51 1229.26,-71.48 1174.41,-67.5"/>
<polygon fill="#63b8ff" stroke="#63b8ff" points="1214.15,-174.72 1204.3,-178.61 1214.43,-181.71 1214.15,-174.72"/>
</g>
<!-- Node16 -->
<g id="node16" class="node">
<title>Node16</title>
<g id="a_node16"><a xlink:href="GreekSidebar_8cpp.html" target="_top" xlink:title="This file defines the class GreekSidebar.">
<polygon fill="white" stroke="#666666" points="1073,-129 909,-129 909,-110 1073,-110 1073,-129"/>
<text text-anchor="middle" x="991" y="-117" font-family="Helvetica,sans-Serif" font-size="10.00">src/sidebars/GreekSidebar.cpp</text>
</a>
</g>
</g>
<!-- Node11&#45;&gt;Node16 -->
<g id="edge20" class="edge">
<title>Node11&#45;&gt;Node16</title>
<path fill="none" stroke="#63b8ff" d="M1108.75,-166.73C1079.95,-155.42 1037.97,-138.94 1012.69,-129.02"/>
<polygon fill="#63b8ff" stroke="#63b8ff" points="1107.75,-170.1 1118.33,-170.49 1110.3,-163.58 1107.75,-170.1"/>
</g>
<!-- Node17 -->
<g id="node17" class="node">
<title>Node17</title>
<g id="a_node17"><a xlink:href="wxMaxima_8h.html" target="_top" xlink:title="This file declares the class wxMaxima that contains most of the program&#39;s logic.">
<polygon fill="white" stroke="#666666" points="1188.5,-129 1091.5,-129 1091.5,-110 1188.5,-110 1188.5,-129"/>
<text text-anchor="middle" x="1140" y="-117" font-family="Helvetica,sans-Serif" font-size="10.00">src/wxMaxima.h</text>
</a>
</g>
</g>
<!-- Node11&#45;&gt;Node17 -->
<g id="edge21" class="edge">
<title>Node11&#45;&gt;Node17</title>
<path fill="none" stroke="#63b8ff" d="M1140,-160.16C1140,-149.74 1140,-137.3 1140,-129.17"/>
<polygon fill="#63b8ff" stroke="#63b8ff" points="1136.5,-160.37 1140,-170.37 1143.5,-160.37 1136.5,-160.37"/>
</g>
<!-- Node18 -->
<g id="node18" class="node">
<title>Node18</title>
<g id="a_node18"><a xlink:href="wxMaximaFrame_8cpp.html" target="_top" xlink:title="This file defines the class wxMaximaFrame.">
<polygon fill="white" stroke="#666666" points="1345.5,-129 1206.5,-129 1206.5,-110 1345.5,-110 1345.5,-129"/>
<text text-anchor="middle" x="1276" y="-117" font-family="Helvetica,sans-Serif" font-size="10.00">src/wxMaximaFrame.cpp</text>
</a>
</g>
</g>
<!-- Node11&#45;&gt;Node18 -->
<g id="edge27" class="edge">
<title>Node11&#45;&gt;Node18</title>
<path fill="none" stroke="#63b8ff" d="M1169.22,-166.43C1195.48,-155.14 1233.33,-138.86 1256.2,-129.02"/>
<polygon fill="#63b8ff" stroke="#63b8ff" points="1167.58,-163.33 1159.78,-170.49 1170.34,-169.76 1167.58,-163.33"/>
</g>
<!-- Node14&#45;&gt;Node7 -->
<g id="edge18" class="edge">
<title>Node14&#45;&gt;Node7</title>
<path fill="none" stroke="#63b8ff" d="M1106.86,-51.55C1079.56,-41.71 1041.5,-27.98 1017.05,-19.17"/>
<polygon fill="#63b8ff" stroke="#63b8ff" points="1105.79,-54.89 1116.38,-54.98 1108.16,-48.3 1105.79,-54.89"/>
</g>
<!-- Node14&#45;&gt;Node8 -->
<g id="edge19" class="edge">
<title>Node14&#45;&gt;Node8</title>
<path fill="none" stroke="#63b8ff" d="M1095.73,-55.83C1039.24,-46.05 941.81,-29.17 883.09,-19"/>
<polygon fill="#63b8ff" stroke="#63b8ff" points="1095.34,-59.32 1105.79,-57.57 1096.53,-52.42 1095.34,-59.32"/>
</g>
<!-- Node15 -->
<g id="node15" class="node">
<title>Node15</title>
<g id="a_node15"><a xlink:href="MaximaManual_8cpp.html" target="_top" xlink:title="This file defines the class MaximaManual.">
<polygon fill="white" stroke="#666666" points="1205,-19 1075,-19 1075,0 1205,0 1205,-19"/>
<text text-anchor="middle" x="1140" y="-7" font-family="Helvetica,sans-Serif" font-size="10.00">src/MaximaManual.cpp</text>
</a>
</g>
</g>
<!-- Node14&#45;&gt;Node15 -->
<g id="edge17" class="edge">
<title>Node14&#45;&gt;Node15</title>
<path fill="none" stroke="#63b8ff" d="M1140,-44.66C1140,-35.93 1140,-25.99 1140,-19.09"/>
<polygon fill="#63b8ff" stroke="#63b8ff" points="1136.5,-44.75 1140,-54.75 1143.5,-44.75 1136.5,-44.75"/>
</g>
<!-- Node17&#45;&gt;Node3 -->
<g id="edge22" class="edge">
<title>Node17&#45;&gt;Node3</title>
<path fill="none" stroke="#63b8ff" d="M1100.92,-107.06C1067.09,-97.15 1018.92,-83.04 988.31,-74.08"/>
<polygon fill="#63b8ff" stroke="#63b8ff" points="1100.34,-110.53 1110.92,-109.98 1102.31,-103.82 1100.34,-110.53"/>
</g>
<!-- Node17&#45;&gt;Node7 -->
<g id="edge24" class="edge">
<title>Node17&#45;&gt;Node7</title>
<path fill="none" stroke="#63b8ff" d="M1120.07,-103.73C1102.65,-90.84 1076.68,-71.65 1054,-55 1036.88,-42.44 1017,-27.95 1004.71,-19.01"/>
<polygon fill="#63b8ff" stroke="#63b8ff" points="1118.21,-106.71 1128.33,-109.85 1122.38,-101.09 1118.21,-106.71"/>
</g>
<!-- Node17&#45;&gt;Node8 -->
<g id="edge26" class="edge">
<title>Node17&#45;&gt;Node8</title>
<path fill="none" stroke="#63b8ff" d="M1113.4,-105.12C1096.32,-96.44 1073.73,-84.78 1054,-74 1039.15,-65.89 1036.73,-61.25 1021,-55 977.58,-37.76 925.72,-26.06 887.64,-19.01"/>
<polygon fill="#63b8ff" stroke="#63b8ff" points="1112.25,-108.46 1122.75,-109.86 1115.41,-102.22 1112.25,-108.46"/>
</g>
<!-- Node17&#45;&gt;Node13 -->
<g id="edge23" class="edge">
<title>Node17&#45;&gt;Node13</title>
<path fill="none" stroke="#63b8ff" d="M1194.93,-108.07C1247.24,-98.13 1325.02,-83.35 1373.82,-74.08"/>
<polygon fill="#63b8ff" stroke="#63b8ff" points="1194,-104.68 1184.83,-109.98 1195.3,-111.56 1194,-104.68"/>
</g>
<!-- Node17&#45;&gt;Node14 -->
<g id="edge25" class="edge">
<title>Node17&#45;&gt;Node14</title>
<path fill="none" stroke="#63b8ff" d="M1140,-99.66C1140,-90.93 1140,-80.99 1140,-74.09"/>
<polygon fill="#63b8ff" stroke="#63b8ff" points="1136.5,-99.75 1140,-109.75 1143.5,-99.75 1136.5,-99.75"/>
</g>
</g>
</svg>
        <g id="navigator" transform="translate(0 0)" fill="#404254">
                <rect fill="#f2f5e9" fill-opacity="0.5" stroke="#606060" stroke-width=".5" x="0" y="0" width="60" height="60"/>
                <use id="zoomplus" xlink:href="#zoomPlus" x="17" y="9" onmousedown="handleZoom(evt,'in')"/>
                <use id="zoomminus" xlink:href="#zoomMin" x="42" y="9" onmousedown="handleZoom(evt,'out')"/>
                <use id="reset" xlink:href="#resetDef" x="30" y="36" onmousedown="handleReset()"/>
                <g id="arrowUp" xlink:href="#dirArrow" transform="translate(30 24)" onmousedown="handlePan(0,-1)">
                  <use xlink:href="#rim" fill="#404040">
                        <set attributeName="fill" to="#808080" begin="arrowUp.mouseover" end="arrowUp.mouseout"/>
                  </use>
                  <path fill="none" stroke="white" stroke-width="1.5" d="M0,-3.0v7 M-2.5,-0.5L0,-3.0L2.5,-0.5"/>
                </g>
                <g id="arrowRight" xlink:href="#dirArrow" transform="rotate(90) translate(36 -43)" onmousedown="handlePan(1,0)">
                  <use xlink:href="#rim" fill="#404040">
                        <set attributeName="fill" to="#808080" begin="arrowRight.mouseover" end="arrowRight.mouseout"/>
                  </use>
                  <path fill="none" stroke="white" stroke-width="1.5" d="M0,-3.0v7 M-2.5,-0.5L0,-3.0L2.5,-0.5"/>
                </g>
                <g id="arrowDown" xlink:href="#dirArrow" transform="rotate(180) translate(-30 -48)" onmousedown="handlePan(0,1)">
                  <use xlink:href="#rim" fill="#404040">
                        <set attributeName="fill" to="#808080" begin="arrowDown.mouseover" end="arrowDown.mouseout"/>
                  </use>
                  <path fill="none" stroke="white" stroke-width="1.5" d="M0,-3.0v7 M-2.5,-0.5L0,-3.0L2.5,-0.5"/>
                </g>
                <g id="arrowLeft" xlink:href="#dirArrow" transform="rotate(270) translate(-36 17)" onmousedown="handlePan(-1,0)">
                  <use xlink:href="#rim" fill="#404040">
                        <set attributeName="fill" to="#808080" begin="arrowLeft.mouseover" end="arrowLeft.mouseout"/>
                  </use>
                  <path fill="none" stroke="white" stroke-width="1.5" d="M0,-3.0v7 M-2.5,-0.5L0,-3.0L2.5,-0.5"/>
                </g>
        </g>
        <svg viewBox="0 0 15 15" width="100%" height="30px" preserveAspectRatio="xMaxYMin meet">
         <g id="arrow_out" transform="scale(0.3 0.3)">
          <a xlink:href="RecentDocuments_8h__dep__incl_org.svg" target="_base">
           <rect id="button" ry="5" rx="5" y="6" x="6" height="38" width="38"
                fill="#f2f5e9" fill-opacity="0.5" stroke="#606060" stroke-width="1.0"/>
           <path id="arrow"
             d="M 11.500037,31.436501 C 11.940474,20.09759 22.043105,11.32322 32.158766,21.979434 L 37.068811,17.246167 C 37.068811,17.246167 37.088388,32 37.088388,32 L 22.160133,31.978069 C 22.160133,31.978069 26.997745,27.140456 26.997745,27.140456 C 18.528582,18.264221 13.291696,25.230495 11.500037,31.436501 z"
             style="fill:#404040;"/>
          </a>
         </g>
        </svg>
</svg>
