<?xml version="1.0" encoding="UTF-8" standalone="no"?>
<!DOCTYPE svg PUBLIC "-//W3C//DTD SVG 1.1//EN"
 "http://www.w3.org/Graphics/SVG/1.1/DTD/svg11.dtd">
<!-- Generated by graphviz version 2.43.0 (0)
 -->
<!-- Title: src/RecentDocuments.h Pages: 1 -->
<svg width="3206pt" height="313pt"
 viewBox="0.00 0.00 3206.23 313.00" xmlns="http://www.w3.org/2000/svg" xmlns:xlink="http://www.w3.org/1999/xlink">
<g id="graph0" class="graph" transform="scale(1 1) rotate(0) translate(4 309)">
<title>src/RecentDocuments.h</title>
<!-- Node1 -->
<g id="node1" class="node">
<title>Node1</title>
<g id="a_node1"><a xlink:title="The definition of the class RecentDocuments that provides a recent files mechanism that is extensible...">
<polygon fill="#999999" stroke="#666666" points="1150.5,-305 1018.5,-305 1018.5,-286 1150.5,-286 1150.5,-305"/>
<text text-anchor="middle" x="1084.5" y="-293" font-family="Helvetica,sans-Serif" font-size="10.00">src/RecentDocuments.h</text>
</a>
</g>
</g>
<!-- Node2 -->
<g id="node2" class="node">
<title>Node2</title>
<g id="a_node2"><a xlink:href="Worksheet_8h.html" target="_top" xlink:title="This file defines the class Worksheet.">
<polygon fill="white" stroke="#666666" points="1803,-250 1708,-250 1708,-231 1803,-231 1803,-250"/>
<text text-anchor="middle" x="1755.5" y="-238" font-family="Helvetica,sans-Serif" font-size="10.00">src/Worksheet.h</text>
</a>
</g>
</g>
<!-- Node1&#45;&gt;Node2 -->
<g id="edge1" class="edge">
<title>Node1&#45;&gt;Node2</title>
<path fill="none" stroke="#63b8ff" d="M1160.86,-288.47C1300.5,-277.44 1593.16,-254.32 1707.9,-245.26"/>
<polygon fill="#63b8ff" stroke="#63b8ff" points="1160.37,-285 1150.67,-289.27 1160.92,-291.97 1160.37,-285"/>
</g>
<!-- Node13 -->
<g id="node13" class="node">
<title>Node13</title>
<g id="a_node13"><a xlink:href="wxMaximaFrame_8h.html" target="_top" xlink:title="This file declares the class wxMaximaFrame.">
<polygon fill="white" stroke="#666666" points="477.5,-189.5 349.5,-189.5 349.5,-170.5 477.5,-170.5 477.5,-189.5"/>
<text text-anchor="middle" x="413.5" y="-177.5" font-family="Helvetica,sans-Serif" font-size="10.00">src/wxMaximaFrame.h</text>
</a>
</g>
</g>
<!-- Node1&#45;&gt;Node13 -->
<g id="edge51" class="edge">
<title>Node1&#45;&gt;Node13</title>
<path fill="none" stroke="#63b8ff" d="M1023.82,-284.24C892.78,-262.07 585.41,-210.08 464.06,-189.55"/>
<polygon fill="#63b8ff" stroke="#63b8ff" points="1023.62,-287.75 1034.07,-285.97 1024.79,-280.85 1023.62,-287.75"/>
</g>
<!-- Node3 -->
<g id="node3" class="node">
<title>Node3</title>
<g id="a_node3"><a xlink:href="MaximaFileIO_8cpp.html" target="_top" xlink:title="Implements the worksheet file loaders/savers extracted from the wxMaxima god class.">
<polygon fill="white" stroke="#666666" points="1609.5,-74 1487.5,-74 1487.5,-55 1609.5,-55 1609.5,-74"/>
<text text-anchor="middle" x="1548.5" y="-62" font-family="Helvetica,sans-Serif" font-size="10.00">src/MaximaFileIO.cpp</text>
</a>
</g>
</g>
<!-- Node2&#45;&gt;Node3 -->
<g id="edge2" class="edge">
<title>Node2&#45;&gt;Node3</title>
<path fill="none" stroke="#63b8ff" d="M1813.38,-239.87C2070.47,-241.21 3098.49,-243.54 3145.5,-195 3154.78,-185.42 3154.64,-174.7 3145.5,-165 3029.02,-41.37 1788.68,-89.16 1619.5,-74 1616.29,-73.71 1612.99,-73.39 1609.67,-73.06"/>
<polygon fill="#63b8ff" stroke="#63b8ff" points="1813.15,-236.36 1803.14,-239.81 1813.12,-243.36 1813.15,-236.36"/>
</g>
<!-- Node4 -->
<g id="node4" class="node">
<title>Node4</title>
<g id="a_node4"><a xlink:href="MaximaOutputAppender_8cpp.html" target="_top" xlink:title="Implements the worksheet output appenders extracted from the wxMaxima god class.">
<polygon fill="white" stroke="#666666" points="1296,-74 1123,-74 1123,-55 1296,-55 1296,-74"/>
<text text-anchor="middle" x="1209.5" y="-62" font-family="Helvetica,sans-Serif" font-size="10.00">src/MaximaOutputAppender.cpp</text>
</a>
</g>
</g>
<!-- Node2&#45;&gt;Node4 -->
<g id="edge3" class="edge">
<title>Node2&#45;&gt;Node4</title>
<path fill="none" stroke="#63b8ff" d="M1697.62,-238.62C1511.01,-235.51 935.65,-223.62 908.5,-195 838.9,-121.65 1011.06,-87.72 1122.82,-73.84"/>
<polygon fill="#63b8ff" stroke="#63b8ff" points="1697.73,-242.12 1707.78,-238.79 1697.84,-235.12 1697.73,-242.12"/>
</g>
<!-- Node5 -->
<g id="node5" class="node">
<title>Node5</title>
<g id="a_node5"><a xlink:href="Worksheet_8cpp.html" target="_top" xlink:title="This file defines the class Worksheet.">
<polygon fill="white" stroke="#666666" points="361.5,-74 255.5,-74 255.5,-55 361.5,-55 361.5,-74"/>
<text text-anchor="middle" x="308.5" y="-62" font-family="Helvetica,sans-Serif" font-size="10.00">src/Worksheet.cpp</text>
</a>
</g>
</g>
<!-- Node2&#45;&gt;Node5 -->
<g id="edge4" class="edge">
<title>Node2&#45;&gt;Node5</title>
<path fill="none" stroke="#63b8ff" d="M1697.7,-238.85C1476.8,-236.14 696.06,-224.51 652.5,-195 618.24,-171.79 647.51,-134.96 614.5,-110 611.99,-108.1 448.57,-85.05 361.62,-72.9"/>
<polygon fill="#63b8ff" stroke="#63b8ff" points="1697.75,-242.35 1707.79,-238.97 1697.84,-235.35 1697.75,-242.35"/>
</g>
<!-- Node6 -->
<g id="node6" class="node">
<title>Node6</title>
<g id="a_node6"><a xlink:href="WorksheetContextMenu_8cpp.html" target="_top" xlink:title="The worksheet&#39;s right&#45;click context menu (see WorksheetContextMenu.h).">
<polygon fill="white" stroke="#666666" points="833,-189.5 662,-189.5 662,-170.5 833,-170.5 833,-189.5"/>
<text text-anchor="middle" x="747.5" y="-177.5" font-family="Helvetica,sans-Serif" font-size="10.00">src/WorksheetContextMenu.cpp</text>
</a>
</g>
</g>
<!-- Node2&#45;&gt;Node6 -->
<g id="edge5" class="edge">
<title>Node2&#45;&gt;Node6</title>
<path fill="none" stroke="#63b8ff" d="M1697.27,-238.46C1553,-235.5 1167.5,-225.18 847.5,-195 832.66,-193.6 816.66,-191.59 801.89,-189.52"/>
<polygon fill="#63b8ff" stroke="#63b8ff" points="1697.58,-241.97 1707.64,-238.67 1697.72,-234.97 1697.58,-241.97"/>
</g>
<!-- Node7 -->
<g id="node7" class="node">
<title>Node7</title>
<g id="a_node7"><a xlink:href="ConfigDialogue_8h.html" target="_top" xlink:title="The configuration dialog.">
<polygon fill="white" stroke="#666666" points="1469,-74 1314,-74 1314,-55 1469,-55 1469,-74"/>
<text text-anchor="middle" x="1391.5" y="-62" font-family="Helvetica,sans-Serif" font-size="10.00">src/dialogs/ConfigDialogue.h</text>
</a>
</g>
</g>
<!-- Node2&#45;&gt;Node7 -->
<g id="edge6" class="edge">
<title>Node2&#45;&gt;Node7</title>
<path fill="none" stroke="#63b8ff" d="M1697.74,-238.58C1512.88,-235.36 946.26,-223.22 919.5,-195 910.33,-185.32 911.1,-175.35 919.5,-165 945.38,-133.09 1208.97,-91.63 1330.6,-74.02"/>
<polygon fill="#63b8ff" stroke="#63b8ff" points="1697.75,-242.08 1707.81,-238.75 1697.87,-235.08 1697.75,-242.08"/>
</g>
<!-- Node11 -->
<g id="node11" class="node">
<title>Node11</title>
<g id="a_node11"><a xlink:href="DiffFrame_8h_source.html" target="_top" xlink:title=" ">
<polygon fill="white" stroke="#666666" points="1757,-74 1628,-74 1628,-55 1757,-55 1757,-74"/>
<text text-anchor="middle" x="1692.5" y="-62" font-family="Helvetica,sans-Serif" font-size="10.00">src/dialogs/DiffFrame.h</text>
</a>
</g>
</g>
<!-- Node2&#45;&gt;Node11 -->
<g id="edge10" class="edge">
<title>Node2&#45;&gt;Node11</title>
<path fill="none" stroke="#63b8ff" d="M1813.3,-238.78C2077.02,-235.37 3154.35,-219.92 3178.5,-195 3204.79,-167.87 3204.81,-137.11 3178.5,-110 3153.39,-84.13 2039.48,-69.51 1757.05,-66.22"/>
<polygon fill="#63b8ff" stroke="#63b8ff" points="1813.12,-235.28 1803.17,-238.91 1813.21,-242.28 1813.12,-235.28"/>
</g>
<!-- Node12 -->
<g id="node12" class="node">
<title>Node12</title>
<g id="a_node12"><a xlink:href="Printout_8cpp.html" target="_top" xlink:title="This file defines the class MathPrintOut.">
<polygon fill="white" stroke="#666666" points="1083,-189.5 928,-189.5 928,-170.5 1083,-170.5 1083,-189.5"/>
<text text-anchor="middle" x="1005.5" y="-177.5" font-family="Helvetica,sans-Serif" font-size="10.00">src/graphical_io/Printout.cpp</text>
</a>
</g>
</g>
<!-- Node2&#45;&gt;Node12 -->
<g id="edge14" class="edge">
<title>Node2&#45;&gt;Node12</title>
<path fill="none" stroke="#63b8ff" d="M1697.92,-237.43C1582.68,-232.89 1315.59,-220.38 1092.5,-195 1079.88,-193.56 1066.3,-191.59 1053.71,-189.57"/>
<polygon fill="#63b8ff" stroke="#63b8ff" points="1697.8,-240.93 1707.93,-237.82 1698.08,-233.93 1697.8,-240.93"/>
</g>
<!-- Node2&#45;&gt;Node13 -->
<g id="edge15" class="edge">
<title>Node2&#45;&gt;Node13</title>
<path fill="none" stroke="#63b8ff" d="M1697.81,-237.83C1530.82,-232.85 1032.63,-217.13 619.5,-195 572.07,-192.46 518.55,-188.8 477.96,-185.86"/>
<polygon fill="#63b8ff" stroke="#63b8ff" points="1697.76,-241.33 1707.86,-238.12 1697.97,-234.33 1697.76,-241.33"/>
</g>
<!-- Node24 -->
<g id="node24" class="node">
<title>Node24</title>
<g id="a_node24"><a xlink:href="test__Accessibility_8cpp.html" target="_top" xlink:title="Logic&#45;level regression tests for wxMaxima&#39;s custom wxAccessible classes.">
<polygon fill="white" stroke="#666666" points="1209.5,-195 1101.5,-195 1101.5,-165 1209.5,-165 1209.5,-195"/>
<text text-anchor="start" x="1109.5" y="-183" font-family="Helvetica,sans-Serif" font-size="10.00">test/unit_tests/test</text>
<text text-anchor="middle" x="1155.5" y="-172" font-family="Helvetica,sans-Serif" font-size="10.00">_Accessibility.cpp</text>
</a>
</g>
</g>
<!-- Node2&#45;&gt;Node24 -->
<g id="edge37" class="edge">
<title>Node2&#45;&gt;Node24</title>
<path fill="none" stroke="#63b8ff" d="M1697.77,-237.29C1599.08,-232.95 1391.8,-221.31 1218.5,-195 1215.62,-194.56 1212.67,-194.07 1209.71,-193.54"/>
<polygon fill="#63b8ff" stroke="#63b8ff" points="1697.7,-240.79 1707.84,-237.73 1698,-233.8 1697.7,-240.79"/>
</g>
<!-- Node25 -->
<g id="node25" class="node">
<title>Node25</title>
<g id="a_node25"><a xlink:href="test__EditorCellInvariants_8cpp.html" target="_top" xlink:title="Hardening tests for EditorCell&#39;s text&#45;editing core.">
<polygon fill="white" stroke="#666666" points="1365.5,-195 1227.5,-195 1227.5,-165 1365.5,-165 1365.5,-195"/>
<text text-anchor="start" x="1235.5" y="-183" font-family="Helvetica,sans-Serif" font-size="10.00">test/unit_tests/test</text>
<text text-anchor="middle" x="1296.5" y="-172" font-family="Helvetica,sans-Serif" font-size="10.00">_EditorCellInvariants.cpp</text>
</a>
</g>
</g>
<!-- Node2&#45;&gt;Node25 -->
<g id="edge38" class="edge">
<title>Node2&#45;&gt;Node25</title>
<path fill="none" stroke="#63b8ff" d="M1697.71,-233.86C1622.93,-226.32 1488.7,-211.9 1374.5,-195 1371.64,-194.58 1368.73,-194.13 1365.79,-193.66"/>
<polygon fill="#63b8ff" stroke="#63b8ff" points="1697.56,-237.37 1707.86,-234.88 1698.26,-230.4 1697.56,-237.37"/>
</g>
<!-- Node26 -->
<g id="node26" class="node">
<title>Node26</title>
<g id="a_node26"><a xlink:href="test__EvalQueueCommands_8cpp.html" target="_top" xlink:title="Command&#45;level behavior of the EvaluationQueue: how a GroupCell&#39;s input is broken into the individual ...">
<polygon fill="white" stroke="#666666" points="1533.5,-195 1383.5,-195 1383.5,-165 1533.5,-165 1533.5,-195"/>
<text text-anchor="start" x="1391.5" y="-183" font-family="Helvetica,sans-Serif" font-size="10.00">test/unit_tests/test</text>
<text text-anchor="middle" x="1458.5" y="-172" font-family="Helvetica,sans-Serif" font-size="10.00">_EvalQueueCommands.cpp</text>
</a>
</g>
</g>
<!-- Node2&#45;&gt;Node26 -->
<g id="edge39" class="edge">
<title>Node2&#45;&gt;Node26</title>
<path fill="none" stroke="#63b8ff" d="M1702.4,-229.04C1654.19,-219.55 1582.74,-205.47 1529.62,-195.01"/>
<polygon fill="#63b8ff" stroke="#63b8ff" points="1701.83,-232.49 1712.31,-230.99 1703.18,-225.63 1701.83,-232.49"/>
</g>
<!-- Node27 -->
<g id="node27" class="node">
<title>Node27</title>
<g id="a_node27"><a xlink:href="test__GroupCellLayout_8cpp.html" target="_top" xlink:title="Regression tests for the GroupCell &lt;&#45;&gt; EditorCell layout coupling.">
<polygon fill="white" stroke="#666666" points="1675,-195 1552,-195 1552,-165 1675,-165 1675,-195"/>
<text text-anchor="start" x="1560" y="-183" font-family="Helvetica,sans-Serif" font-size="10.00">test/unit_tests/test</text>
<text text-anchor="middle" x="1613.5" y="-172" font-family="Helvetica,sans-Serif" font-size="10.00">_GroupCellLayout.cpp</text>
</a>
</g>
</g>
<!-- Node2&#45;&gt;Node27 -->
<g id="edge40" class="edge">
<title>Node2&#45;&gt;Node27</title>
<path fill="none" stroke="#63b8ff" d="M1725.35,-227.08C1702.59,-217.7 1671.33,-204.82 1647.64,-195.06"/>
<polygon fill="#63b8ff" stroke="#63b8ff" points="1724.27,-230.42 1734.85,-230.99 1726.94,-223.95 1724.27,-230.42"/>
</g>
<!-- Node28 -->
<g id="node28" class="node">
<title>Node28</title>
<g id="a_node28"><a xlink:href="test__LayoutInvariants_8cpp.html" target="_top" xlink:title="Layout idempotency invariants.">
<polygon fill="white" stroke="#666666" points="1817.5,-195 1693.5,-195 1693.5,-165 1817.5,-165 1817.5,-195"/>
<text text-anchor="start" x="1701.5" y="-183" font-family="Helvetica,sans-Serif" font-size="10.00">test/unit_tests/test</text>
<text text-anchor="middle" x="1755.5" y="-172" font-family="Helvetica,sans-Serif" font-size="10.00">_LayoutInvariants.cpp</text>
</a>
</g>
</g>
<!-- Node2&#45;&gt;Node28 -->
<g id="edge41" class="edge">
<title>Node2&#45;&gt;Node28</title>
<path fill="none" stroke="#63b8ff" d="M1755.5,-220.65C1755.5,-212.36 1755.5,-202.78 1755.5,-195.11"/>
<polygon fill="#63b8ff" stroke="#63b8ff" points="1752,-220.87 1755.5,-230.87 1759,-220.87 1752,-220.87"/>
</g>
<!-- Node29 -->
<g id="node29" class="node">
<title>Node29</title>
<g id="a_node29"><a xlink:href="test__TreeUndo_8cpp.html" target="_top" xlink:title="Regression tests for the worksheet&#39;s cell&#45;tree undo/redo (the TreeUndo_* subsystem of Worksheet).">
<polygon fill="white" stroke="#666666" points="1943.5,-195 1835.5,-195 1835.5,-165 1943.5,-165 1943.5,-195"/>
<text text-anchor="start" x="1843.5" y="-183" font-family="Helvetica,sans-Serif" font-size="10.00">test/unit_tests/test</text>
<text text-anchor="middle" x="1889.5" y="-172" font-family="Helvetica,sans-Serif" font-size="10.00">_TreeUndo.cpp</text>
</a>
</g>
</g>
<!-- Node2&#45;&gt;Node29 -->
<g id="edge42" class="edge">
<title>Node2&#45;&gt;Node29</title>
<path fill="none" stroke="#63b8ff" d="M1784.24,-226.95C1805.7,-217.59 1835.03,-204.78 1857.28,-195.06"/>
<polygon fill="#63b8ff" stroke="#63b8ff" points="1782.75,-223.78 1774.98,-230.99 1785.55,-230.2 1782.75,-223.78"/>
</g>
<!-- Node30 -->
<g id="node30" class="node">
<title>Node30</title>
<g id="a_node30"><a xlink:href="test__WXMRoundtrip_8cpp.html" target="_top" xlink:title="Regression tests for images surviving the .wxm serialization round&#45;trip.">
<polygon fill="white" stroke="#666666" points="2077,-195 1962,-195 1962,-165 2077,-165 2077,-195"/>
<text text-anchor="start" x="1970" y="-183" font-family="Helvetica,sans-Serif" font-size="10.00">test/unit_tests/test</text>
<text text-anchor="middle" x="2019.5" y="-172" font-family="Helvetica,sans-Serif" font-size="10.00">_WXMRoundtrip.cpp</text>
</a>
</g>
</g>
<!-- Node2&#45;&gt;Node30 -->
<g id="edge43" class="edge">
<title>Node2&#45;&gt;Node30</title>
<path fill="none" stroke="#63b8ff" d="M1803.87,-228.78C1848.33,-218.93 1914.31,-204.31 1961.57,-193.84"/>
<polygon fill="#63b8ff" stroke="#63b8ff" points="1802.89,-225.41 1793.89,-230.99 1804.41,-232.25 1802.89,-225.41"/>
</g>
<!-- Node31 -->
<g id="node31" class="node">
<title>Node31</title>
<g id="a_node31"><a xlink:href="test__WXMXRoundtrip_8cpp.html" target="_top" xlink:title="Round&#45;trip tests for the .wxmx content.xml (the MathML&#45;like math format).">
<polygon fill="white" stroke="#666666" points="2217.5,-195 2095.5,-195 2095.5,-165 2217.5,-165 2217.5,-195"/>
<text text-anchor="start" x="2103.5" y="-183" font-family="Helvetica,sans-Serif" font-size="10.00">test/unit_tests/test</text>
<text text-anchor="middle" x="2156.5" y="-172" font-family="Helvetica,sans-Serif" font-size="10.00">_WXMXRoundtrip.cpp</text>
</a>
</g>
</g>
<!-- Node2&#45;&gt;Node31 -->
<g id="edge44" class="edge">
<title>Node2&#45;&gt;Node31</title>
<path fill="none" stroke="#63b8ff" d="M1813.28,-232.86C1879.47,-225 1991.09,-210.94 2086.5,-195 2089.43,-194.51 2092.43,-193.99 2095.46,-193.45"/>
<polygon fill="#63b8ff" stroke="#63b8ff" points="1812.58,-229.42 1803.06,-234.07 1813.4,-236.37 1812.58,-229.42"/>
</g>
<!-- Node32 -->
<g id="node32" class="node">
<title>Node32</title>
<g id="a_node32"><a xlink:href="test__WorksheetClipboard_8cpp.html" target="_top" xlink:title="Safety net for the multi&#45;format clipboard / drag&#45;and&#45;drop payload of Worksheet.">
<polygon fill="white" stroke="#666666" points="2375.5,-195 2235.5,-195 2235.5,-165 2375.5,-165 2375.5,-195"/>
<text text-anchor="start" x="2243.5" y="-183" font-family="Helvetica,sans-Serif" font-size="10.00">test/unit_tests/test</text>
<text text-anchor="middle" x="2305.5" y="-172" font-family="Helvetica,sans-Serif" font-size="10.00">_WorksheetClipboard.cpp</text>
</a>
</g>
</g>
<!-- Node2&#45;&gt;Node32 -->
<g id="edge45" class="edge">
<title>Node2&#45;&gt;Node32</title>
<path fill="none" stroke="#63b8ff" d="M1813.27,-235.56C1902.26,-229.15 2078.14,-215.12 2226.5,-195 2229.4,-194.61 2232.35,-194.18 2235.34,-193.74"/>
<polygon fill="#63b8ff" stroke="#63b8ff" points="1812.84,-232.08 1803.11,-236.29 1813.34,-239.06 1812.84,-232.08"/>
</g>
<!-- Node33 -->
<g id="node33" class="node">
<title>Node33</title>
<g id="a_node33"><a xlink:href="test__WorksheetContextMenu_8cpp.html" target="_top" xlink:title="Regression tests for the worksheet&#39;s right&#45;click context menu.">
<polygon fill="white" stroke="#666666" points="2553,-195 2394,-195 2394,-165 2553,-165 2553,-195"/>
<text text-anchor="start" x="2402" y="-183" font-family="Helvetica,sans-Serif" font-size="10.00">test/unit_tests/test</text>
<text text-anchor="middle" x="2473.5" y="-172" font-family="Helvetica,sans-Serif" font-size="10.00">_WorksheetContextMenu.cpp</text>
</a>
</g>
</g>
<!-- Node2&#45;&gt;Node33 -->
<g id="edge46" class="edge">
<title>Node2&#45;&gt;Node33</title>
<path fill="none" stroke="#63b8ff" d="M1813.69,-237.05C1924.87,-231.99 2175.07,-218.84 2384.5,-195 2387.61,-194.65 2390.77,-194.26 2393.97,-193.86"/>
<polygon fill="#63b8ff" stroke="#63b8ff" points="1813.2,-233.56 1803.37,-237.51 1813.51,-240.56 1813.2,-233.56"/>
</g>
<!-- Node34 -->
<g id="node34" class="node">
<title>Node34</title>
<g id="a_node34"><a xlink:href="test__WorksheetCursor_8cpp.html" target="_top" xlink:title="Pins the worksheet&#39;s cursor model before it is gathered into a cursor class.">
<polygon fill="white" stroke="#666666" points="2696,-195 2571,-195 2571,-165 2696,-165 2696,-195"/>
<text text-anchor="start" x="2579" y="-183" font-family="Helvetica,sans-Serif" font-size="10.00">test/unit_tests/test</text>
<text text-anchor="middle" x="2633.5" y="-172" font-family="Helvetica,sans-Serif" font-size="10.00">_WorksheetCursor.cpp</text>
</a>
</g>
</g>
<!-- Node2&#45;&gt;Node34 -->
<g id="edge47" class="edge">
<title>Node2&#45;&gt;Node34</title>
<path fill="none" stroke="#63b8ff" d="M1813.35,-239.08C1946.22,-237.5 2283.26,-230.06 2562.5,-195 2565.24,-194.66 2568.04,-194.27 2570.86,-193.84"/>
<polygon fill="#63b8ff" stroke="#63b8ff" points="1812.97,-235.58 1803.01,-239.19 1813.05,-242.58 1812.97,-235.58"/>
</g>
<!-- Node35 -->
<g id="node35" class="node">
<title>Node35</title>
<g id="a_node35"><a xlink:href="test__WorksheetEvalQueue_8cpp.html" target="_top" xlink:title="Pins the worksheet&#39;s &quot;add cells to the evaluation queue&quot; behavior before the Add*ToEvaluationQueue fa...">
<polygon fill="white" stroke="#666666" points="2860.5,-195 2714.5,-195 2714.5,-165 2860.5,-165 2860.5,-195"/>
<text text-anchor="start" x="2722.5" y="-183" font-family="Helvetica,sans-Serif" font-size="10.00">test/unit_tests/test</text>
<text text-anchor="middle" x="2787.5" y="-172" font-family="Helvetica,sans-Serif" font-size="10.00">_WorksheetEvalQueue.cpp</text>
</a>
</g>
</g>
<!-- Node2&#45;&gt;Node35 -->
<g id="edge48" class="edge">
<title>Node2&#45;&gt;Node35</title>
<path fill="none" stroke="#63b8ff" d="M1813.35,-239.25C1961.92,-238.07 2368.86,-231.48 2705.5,-195 2708.37,-194.69 2711.3,-194.34 2714.24,-193.96"/>
<polygon fill="#63b8ff" stroke="#63b8ff" points="1813.08,-235.75 1803.11,-239.32 1813.13,-242.75 1813.08,-235.75"/>
</g>
<!-- Node36 -->
<g id="node36" class="node">
<title>Node36</title>
<g id="a_node36"><a xlink:href="test__WorksheetExport_8cpp.html" target="_top" xlink:title="Safety net for the export/serialization cluster of Worksheet.">
<polygon fill="white" stroke="#666666" points="3004,-195 2879,-195 2879,-165 3004,-165 3004,-195"/>
<text text-anchor="start" x="2887" y="-183" font-family="Helvetica,sans-Serif" font-size="10.00">test/unit_tests/test</text>
<text text-anchor="middle" x="2941.5" y="-172" font-family="Helvetica,sans-Serif" font-size="10.00">_WorksheetExport.cpp</text>
</a>
</g>
</g>
<!-- Node2&#45;&gt;Node36 -->
<g id="edge49" class="edge">
<title>Node2&#45;&gt;Node36</title>
<path fill="none" stroke="#63b8ff" d="M1813.36,-238.35C2011.48,-234.24 2661.85,-219.19 2869.5,-195 2872.54,-194.65 2875.63,-194.24 2878.76,-193.78"/>
<polygon fill="#63b8ff" stroke="#63b8ff" points="1813.09,-234.86 1803.16,-238.56 1813.23,-241.86 1813.09,-234.86"/>
</g>
<!-- Node37 -->
<g id="node37" class="node">
<title>Node37</title>
<g id="a_node37"><a xlink:href="test__WorksheetFind_8cpp.html" target="_top" xlink:title="Pins the worksheet&#39;s find/replace behavior before the search engine is extracted into WorksheetSearch...">
<polygon fill="white" stroke="#666666" points="3136.5,-195 3022.5,-195 3022.5,-165 3136.5,-165 3136.5,-195"/>
<text text-anchor="start" x="3030.5" y="-183" font-family="Helvetica,sans-Serif" font-size="10.00">test/unit_tests/test</text>
<text text-anchor="middle" x="3079.5" y="-172" font-family="Helvetica,sans-Serif" font-size="10.00">_WorksheetFind.cpp</text>
</a>
</g>
</g>
<!-- Node2&#45;&gt;Node37 -->
<g id="edge50" class="edge">
<title>Node2&#45;&gt;Node37</title>
<path fill="none" stroke="#63b8ff" d="M1813.18,-238.79C2027.32,-235.95 2776.48,-224.11 3013.5,-195 3016.41,-194.64 3019.37,-194.22 3022.36,-193.75"/>
<polygon fill="#63b8ff" stroke="#63b8ff" points="1813.05,-235.29 1803.1,-238.92 1813.14,-242.29 1813.05,-235.29"/>
</g>
<!-- Node8 -->
<g id="node8" class="node">
<title>Node8</title>
<g id="a_node8"><a xlink:href="MaximaCommandMenus_8cpp.html" target="_top" xlink:title="Implementation of the menu&#45;command handlers extracted from wxMaxima &#45; see MaximaCommandMenus....">
<polygon fill="white" stroke="#666666" points="1479.5,-19 1303.5,-19 1303.5,0 1479.5,0 1479.5,-19"/>
<text text-anchor="middle" x="1391.5" y="-7" font-family="Helvetica,sans-Serif" font-size="10.00">src/MaximaCommandMenus.cpp</text>
</a>
</g>
</g>
<!-- Node7&#45;&gt;Node8 -->
<g id="edge7" class="edge">
<title>Node7&#45;&gt;Node8</title>
<path fill="none" stroke="#63b8ff" d="M1391.5,-44.66C1391.5,-35.93 1391.5,-25.99 1391.5,-19.09"/>
<polygon fill="#63b8ff" stroke="#63b8ff" points="1388,-44.75 1391.5,-54.75 1395,-44.75 1388,-44.75"/>
</g>
<!-- Node9 -->
<g id="node9" class="node">
<title>Node9</title>
<g id="a_node9"><a xlink:href="main_8cpp.html" target="_top" xlink:title="The file that defines the starting point of the program.">
<polygon fill="white" stroke="#666666" points="722,-19 643,-19 643,0 722,0 722,-19"/>
<text text-anchor="middle" x="682.5" y="-7" font-family="Helvetica,sans-Serif" font-size="10.00">src/main.cpp</text>
</a>
</g>
</g>
<!-- Node7&#45;&gt;Node9 -->
<g id="edge8" class="edge">
<title>Node7&#45;&gt;Node9</title>
<path fill="none" stroke="#63b8ff" d="M1303.64,-54.86C1077.65,-35.76 819.55,-19.07 722.25,-12.96"/>
<polygon fill="#63b8ff" stroke="#63b8ff" points="1303.43,-58.36 1313.69,-55.71 1304.02,-51.38 1303.43,-58.36"/>
</g>
<!-- Node10 -->
<g id="node10" class="node">
<title>Node10</title>
<g id="a_node10"><a xlink:href="wxMaxima_8cpp.html" target="_top" xlink:title="This file defines the contents of the class wxMaxima that contains most of the program&#39;s logic.">
<polygon fill="white" stroke="#666666" points="1139.5,-19 1031.5,-19 1031.5,0 1139.5,0 1139.5,-19"/>
<text text-anchor="middle" x="1085.5" y="-7" font-family="Helvetica,sans-Serif" font-size="10.00">src/wxMaxima.cpp</text>
</a>
</g>
</g>
<!-- Node7&#45;&gt;Node10 -->
<g id="edge9" class="edge">
<title>Node7&#45;&gt;Node10</title>
<path fill="none" stroke="#63b8ff" d="M1332.31,-53.25C1274.85,-43.3 1188.64,-28.36 1134.8,-19.04"/>
<polygon fill="#63b8ff" stroke="#63b8ff" points="1331.89,-56.73 1342.34,-54.98 1333.08,-49.83 1331.89,-56.73"/>
</g>
<!-- Node11&#45;&gt;Node8 -->
<g id="edge11" class="edge">
<title>Node11&#45;&gt;Node8</title>
<path fill="none" stroke="#63b8ff" d="M1633.94,-53.19C1577.51,-43.25 1493.11,-28.39 1440.24,-19.08"/>
<polygon fill="#63b8ff" stroke="#63b8ff" points="1633.68,-56.7 1644.14,-54.98 1634.9,-49.8 1633.68,-56.7"/>
</g>
<!-- Node11&#45;&gt;Node9 -->
<g id="edge12" class="edge">
<title>Node11&#45;&gt;Node9</title>
<path fill="none" stroke="#63b8ff" d="M1617.76,-55.01C1263.92,-26.66 850.32,-14.67 722.25,-11.44"/>
<polygon fill="#63b8ff" stroke="#63b8ff" points="1617.7,-58.51 1627.95,-55.83 1618.27,-51.54 1617.7,-58.51"/>
</g>
<!-- Node11&#45;&gt;Node10 -->
<g id="edge13" class="edge">
<title>Node11&#45;&gt;Node10</title>
<path fill="none" stroke="#63b8ff" d="M1617.93,-54.97C1436.16,-37.08 1234.28,-21.51 1139.65,-14.46"/>
<polygon fill="#63b8ff" stroke="#63b8ff" points="1617.64,-58.46 1627.94,-55.96 1618.33,-51.5 1617.64,-58.46"/>
</g>
<!-- Node13&#45;&gt;Node5 -->
<g id="edge17" class="edge">
<title>Node13&#45;&gt;Node5</title>
<path fill="none" stroke="#63b8ff" d="M339.04,-168.73C292.5,-160.61 238.77,-147.54 224.5,-129 205.65,-104.52 248.3,-84.69 279.46,-74.03"/>
<polygon fill="#63b8ff" stroke="#63b8ff" points="338.71,-172.22 349.15,-170.44 339.87,-165.32 338.71,-172.22"/>
</g>
<!-- Node14 -->
<g id="node14" class="node">
<title>Node14</title>
<g id="a_node14"><a xlink:href="AutocompletePopup_8cpp.html" target="_top" xlink:title="This file defines the class AutocompletePopup.">
<polygon fill="white" stroke="#666666" points="385.5,-129 233.5,-129 233.5,-110 385.5,-110 385.5,-129"/>
<text text-anchor="middle" x="309.5" y="-117" font-family="Helvetica,sans-Serif" font-size="10.00">src/AutocompletePopup.cpp</text>
</a>
</g>
</g>
<!-- Node13&#45;&gt;Node14 -->
<g id="edge16" class="edge">
<title>Node13&#45;&gt;Node14</title>
<path fill="none" stroke="#63b8ff" d="M389.36,-165.42C369.49,-154.24 341.91,-138.73 324.91,-129.17"/>
<polygon fill="#63b8ff" stroke="#63b8ff" points="387.72,-168.52 398.15,-170.37 391.15,-162.41 387.72,-168.52"/>
</g>
<!-- Node15 -->
<g id="node15" class="node">
<title>Node15</title>
<g id="a_node15"><a xlink:href="EditorCell_8cpp.html" target="_top" xlink:title="This file defines the class EditorCell.">
<polygon fill="white" stroke="#666666" points="234,-74 107,-74 107,-55 234,-55 234,-74"/>
<text text-anchor="middle" x="170.5" y="-62" font-family="Helvetica,sans-Serif" font-size="10.00">src/cells/EditorCell.cpp</text>
</a>
</g>
</g>
<!-- Node13&#45;&gt;Node15 -->
<g id="edge18" class="edge">
<title>Node13&#45;&gt;Node15</title>
<path fill="none" stroke="#63b8ff" d="M339.44,-172.45C300.2,-166.11 252.76,-153.61 216.5,-129 195.77,-114.94 181.08,-88.28 174.45,-74.41"/>
<polygon fill="#63b8ff" stroke="#63b8ff" points="339.08,-175.94 349.49,-173.98 340.13,-169.02 339.08,-175.94"/>
</g>
<!-- Node16 -->
<g id="node16" class="node">
<title>Node16</title>
<g id="a_node16"><a xlink:href="main_8h.html" target="_top" xlink:title="This file declares the class wxMaxima that contains most of the program&#39;s logic.">
<polygon fill="white" stroke="#666666" points="447.5,-74 379.5,-74 379.5,-55 447.5,-55 447.5,-74"/>
<text text-anchor="middle" x="413.5" y="-62" font-family="Helvetica,sans-Serif" font-size="10.00">src/main.h</text>
</a>
</g>
</g>
<!-- Node13&#45;&gt;Node16 -->
<g id="edge19" class="edge">
<title>Node13&#45;&gt;Node16</title>
<path fill="none" stroke="#63b8ff" d="M413.5,-160.15C413.5,-135.24 413.5,-92.38 413.5,-74.13"/>
<polygon fill="#63b8ff" stroke="#63b8ff" points="410,-160.47 413.5,-170.47 417,-160.47 410,-160.47"/>
</g>
<!-- Node18 -->
<g id="node18" class="node">
<title>Node18</title>
<g id="a_node18"><a xlink:href="GreekSidebar_8cpp.html" target="_top" xlink:title="This file defines the class GreekSidebar.">
<polygon fill="white" stroke="#666666" points="605.5,-129 441.5,-129 441.5,-110 605.5,-110 605.5,-129"/>
<text text-anchor="middle" x="523.5" y="-117" font-family="Helvetica,sans-Serif" font-size="10.00">src/sidebars/GreekSidebar.cpp</text>
</a>
</g>
</g>
<!-- Node13&#45;&gt;Node18 -->
<g id="edge23" class="edge">
<title>Node13&#45;&gt;Node18</title>
<path fill="none" stroke="#63b8ff" d="M438.74,-165.58C459.78,-154.38 489.14,-138.77 507.2,-129.17"/>
<polygon fill="#63b8ff" stroke="#63b8ff" points="436.92,-162.58 429.73,-170.37 440.2,-168.76 436.92,-162.58"/>
</g>
<!-- Node19 -->
<g id="node19" class="node">
<title>Node19</title>
<g id="a_node19"><a xlink:href="wxMaxima_8h.html" target="_top" xlink:title="This file declares the class wxMaxima that contains most of the program&#39;s logic.">
<polygon fill="white" stroke="#666666" points="759,-129 662,-129 662,-110 759,-110 759,-129"/>
<text text-anchor="middle" x="710.5" y="-117" font-family="Helvetica,sans-Serif" font-size="10.00">src/wxMaxima.h</text>
</a>
</g>
</g>
<!-- Node13&#45;&gt;Node19 -->
<g id="edge24" class="edge">
<title>Node13&#45;&gt;Node19</title>
<path fill="none" stroke="#63b8ff" d="M466.64,-168.53C523.96,-157.24 614.12,-139.48 667.26,-129.02"/>
<polygon fill="#63b8ff" stroke="#63b8ff" points="465.82,-165.13 456.69,-170.49 467.17,-171.99 465.82,-165.13"/>
</g>
<!-- Node23 -->
<g id="node23" class="node">
<title>Node23</title>
<g id="a_node23"><a xlink:href="wxMaximaFrame_8cpp.html" target="_top" xlink:title="This file defines the class wxMaximaFrame.">
<polygon fill="white" stroke="#666666" points="139,-129 0,-129 0,-110 139,-110 139,-129"/>
<text text-anchor="middle" x="69.5" y="-117" font-family="Helvetica,sans-Serif" font-size="10.00">src/wxMaximaFrame.cpp</text>
</a>
</g>
</g>
<!-- Node13&#45;&gt;Node23 -->
<g id="edge36" class="edge">
<title>Node13&#45;&gt;Node23</title>
<path fill="none" stroke="#63b8ff" d="M353.59,-168.81C287.3,-157.54 181.64,-139.57 119.58,-129.02"/>
<polygon fill="#63b8ff" stroke="#63b8ff" points="353.03,-172.27 363.48,-170.49 354.21,-165.37 353.03,-172.27"/>
</g>
<!-- Node16&#45;&gt;Node9 -->
<g id="edge21" class="edge">
<title>Node16&#45;&gt;Node9</title>
<path fill="none" stroke="#63b8ff" d="M457.7,-54.79C509.08,-44.67 593.12,-28.11 642.59,-18.36"/>
<polygon fill="#63b8ff" stroke="#63b8ff" points="456.7,-51.42 447.57,-56.79 458.06,-58.29 456.7,-51.42"/>
</g>
<!-- Node16&#45;&gt;Node10 -->
<g id="edge22" class="edge">
<title>Node16&#45;&gt;Node10</title>
<path fill="none" stroke="#63b8ff" d="M458.14,-58.89C471.44,-57.57 486.06,-56.17 499.5,-55 695.16,-37.9 927.91,-21.36 1031.34,-14.2"/>
<polygon fill="#63b8ff" stroke="#63b8ff" points="457.4,-55.45 447.8,-59.93 458.1,-62.42 457.4,-55.45"/>
</g>
<!-- Node17 -->
<g id="node17" class="node">
<title>Node17</title>
<g id="a_node17"><a xlink:href="MaximaManual_8cpp.html" target="_top" xlink:title="This file defines the class MaximaManual.">
<polygon fill="white" stroke="#666666" points="478.5,-19 348.5,-19 348.5,0 478.5,0 478.5,-19"/>
<text text-anchor="middle" x="413.5" y="-7" font-family="Helvetica,sans-Serif" font-size="10.00">src/MaximaManual.cpp</text>
</a>
</g>
</g>
<!-- Node16&#45;&gt;Node17 -->
<g id="edge20" class="edge">
<title>Node16&#45;&gt;Node17</title>
<path fill="none" stroke="#63b8ff" d="M413.5,-44.66C413.5,-35.93 413.5,-25.99 413.5,-19.09"/>
<polygon fill="#63b8ff" stroke="#63b8ff" points="410,-44.75 413.5,-54.75 417,-44.75 410,-44.75"/>
</g>
<!-- Node19&#45;&gt;Node3 -->
<g id="edge27" class="edge">
<title>Node19&#45;&gt;Node3</title>
<path fill="none" stroke="#63b8ff" d="M769.13,-116.36C897.75,-111.4 1214.29,-97.67 1478.5,-74 1481.43,-73.74 1484.42,-73.45 1487.44,-73.14"/>
<polygon fill="#63b8ff" stroke="#63b8ff" points="768.96,-112.87 759.1,-116.75 769.23,-119.86 768.96,-112.87"/>
</g>
<!-- Node19&#45;&gt;Node4 -->
<g id="edge28" class="edge">
<title>Node19&#45;&gt;Node4</title>
<path fill="none" stroke="#63b8ff" d="M769.2,-112.27C858.41,-102.79 1028.36,-84.74 1129.02,-74.05"/>
<polygon fill="#63b8ff" stroke="#63b8ff" points="768.83,-108.78 759.25,-113.32 769.57,-115.75 768.83,-108.78"/>
</g>
<!-- Node19&#45;&gt;Node5 -->
<g id="edge31" class="edge">
<title>Node19&#45;&gt;Node5</title>
<path fill="none" stroke="#63b8ff" d="M651.42,-110.52C650.1,-110.34 648.79,-110.17 647.5,-110 524.43,-93.7 493.55,-90.43 370.5,-74 367.59,-73.61 364.61,-73.21 361.6,-72.8"/>
<polygon fill="#63b8ff" stroke="#63b8ff" points="651.29,-114.03 661.66,-111.89 652.22,-107.1 651.29,-114.03"/>
</g>
<!-- Node19&#45;&gt;Node8 -->
<g id="edge25" class="edge">
<title>Node19&#45;&gt;Node8</title>
<path fill="none" stroke="#63b8ff" d="M769.29,-113.72C857.46,-106.14 1019.56,-90.53 1075.5,-74 1093.99,-68.54 1096.12,-60.81 1114.5,-55 1176.03,-35.54 1248.07,-24.3 1303.26,-17.99"/>
<polygon fill="#63b8ff" stroke="#63b8ff" points="768.84,-110.24 759.18,-114.58 769.44,-117.22 768.84,-110.24"/>
</g>
<!-- Node19&#45;&gt;Node9 -->
<g id="edge33" class="edge">
<title>Node19&#45;&gt;Node9</title>
<path fill="none" stroke="#63b8ff" d="M651.84,-109.97C592.81,-100.79 509.16,-85.9 499.5,-74 459.51,-24.7 577.97,-13.58 642.97,-11.14"/>
<polygon fill="#63b8ff" stroke="#63b8ff" points="651.4,-113.44 661.82,-111.5 652.46,-106.53 651.4,-113.44"/>
</g>
<!-- Node19&#45;&gt;Node10 -->
<g id="edge35" class="edge">
<title>Node19&#45;&gt;Node10</title>
<path fill="none" stroke="#63b8ff" d="M654.4,-108.05C605.15,-98.3 540.18,-83.84 532.5,-74 527.3,-67.34 526.77,-61.21 532.5,-55 565.89,-18.81 898.82,-12.04 1031.42,-10.78"/>
<polygon fill="#63b8ff" stroke="#63b8ff" points="653.85,-111.51 664.33,-109.99 655.19,-104.64 653.85,-111.51"/>
</g>
<!-- Node19&#45;&gt;Node15 -->
<g id="edge32" class="edge">
<title>Node19&#45;&gt;Node15</title>
<path fill="none" stroke="#63b8ff" d="M651.64,-113.15C563.51,-105.08 392.06,-89.12 246.5,-74 242.54,-73.59 238.46,-73.16 234.35,-72.72"/>
<polygon fill="#63b8ff" stroke="#63b8ff" points="651.43,-116.65 661.71,-114.08 652.07,-109.68 651.43,-116.65"/>
</g>
<!-- Node19&#45;&gt;Node16 -->
<g id="edge34" class="edge">
<title>Node19&#45;&gt;Node16</title>
<path fill="none" stroke="#63b8ff" d="M652.93,-108.23C591.98,-97.35 497.82,-80.55 447.68,-71.6"/>
<polygon fill="#63b8ff" stroke="#63b8ff" points="652.32,-111.67 662.78,-109.98 653.55,-104.78 652.32,-111.67"/>
</g>
<!-- Node20 -->
<g id="node20" class="node">
<title>Node20</title>
<g id="a_node20"><a xlink:href="MaximaEvaluator_8cpp.html" target="_top" xlink:title="Implements the evaluation&#45;queue driver extracted from the wxMaxima god class.">
<polygon fill="white" stroke="#666666" points="681.5,-74 541.5,-74 541.5,-55 681.5,-55 681.5,-74"/>
<text text-anchor="middle" x="611.5" y="-62" font-family="Helvetica,sans-Serif" font-size="10.00">src/MaximaEvaluator.cpp</text>
</a>
</g>
</g>
<!-- Node19&#45;&gt;Node20 -->
<g id="edge26" class="edge">
<title>Node19&#45;&gt;Node20</title>
<path fill="none" stroke="#63b8ff" d="M685.72,-105.23C667.56,-95.51 643.44,-82.6 627.7,-74.17"/>
<polygon fill="#63b8ff" stroke="#63b8ff" points="684.13,-108.35 694.59,-109.98 687.43,-102.18 684.13,-108.35"/>
</g>
<!-- Node21 -->
<g id="node21" class="node">
<title>Node21</title>
<g id="a_node21"><a xlink:href="MaximaProcessManager_8cpp.html" target="_top" xlink:title="Implements the Maxima process/socket lifecycle extracted from the wxMaxima god class.">
<polygon fill="white" stroke="#666666" points="873,-74 700,-74 700,-55 873,-55 873,-74"/>
<text text-anchor="middle" x="786.5" y="-62" font-family="Helvetica,sans-Serif" font-size="10.00">src/MaximaProcessManager.cpp</text>
</a>
</g>
</g>
<!-- Node19&#45;&gt;Node21 -->
<g id="edge29" class="edge">
<title>Node19&#45;&gt;Node21</title>
<path fill="none" stroke="#63b8ff" d="M731.08,-104.15C744.81,-94.57 762.43,-82.29 774.07,-74.17"/>
<polygon fill="#63b8ff" stroke="#63b8ff" points="728.91,-101.39 722.71,-109.98 732.92,-107.14 728.91,-101.39"/>
</g>
<!-- Node22 -->
<g id="node22" class="node">
<title>Node22</title>
<g id="a_node22"><a xlink:href="MaximaResponseReader_8cpp.html" target="_top" xlink:title="Implements the Maxima&#45;response handlers extracted from the wxMaxima god class.">
<polygon fill="white" stroke="#666666" points="1066,-74 891,-74 891,-55 1066,-55 1066,-74"/>
<text text-anchor="middle" x="978.5" y="-62" font-family="Helvetica,sans-Serif" font-size="10.00">src/MaximaResponseReader.cpp</text>
</a>
</g>
</g>
<!-- Node19&#45;&gt;Node22 -->
<g id="edge30" class="edge">
<title>Node19&#45;&gt;Node22</title>
<path fill="none" stroke="#63b8ff" d="M763.58,-108C813.82,-98.07 888.32,-83.33 935.1,-74.08"/>
<polygon fill="#63b8ff" stroke="#63b8ff" points="762.69,-104.61 753.56,-109.98 764.05,-111.48 762.69,-104.61"/>
</g>
</g>
</svg>
