<?xml version="1.0" encoding="UTF-8" standalone="no"?>
<!DOCTYPE svg PUBLIC "-//W3C//DTD SVG 1.1//EN"
 "http://www.w3.org/Graphics/SVG/1.1/DTD/svg11.dtd">
<!-- Generated by graphviz version 2.43.0 (0)
 -->
<!-- Title: src/RecentDocuments.h Pages: 1 -->
<svg width="797pt" height="308pt"
 viewBox="0.00 0.00 797.00 308.00" xmlns="http://www.w3.org/2000/svg" xmlns:xlink="http://www.w3.org/1999/xlink">
<g id="graph0" class="graph" transform="scale(1 1) rotate(0) translate(4 304)">
<title>src/RecentDocuments.h</title>
<polygon fill="white" stroke="transparent" points="-4,4 -4,-304 793,-304 793,4 -4,4"/>
<!-- Node1 -->
<g id="node1" class="node">
<title>Node1</title>
<g id="a_node1"><a xlink:title="The definition of the class RecentDocuments that provides a recent files mechanism that is extensible...">
<polygon fill="#bfbfbf" stroke="black" points="170.5,-280.5 170.5,-299.5 302.5,-299.5 302.5,-280.5 170.5,-280.5"/>
<text text-anchor="middle" x="236.5" y="-287.5" font-family="Helvetica,sans-Serif" font-size="10.00">src/RecentDocuments.h</text>
</a>
</g>
</g>
<!-- Node2 -->
<g id="node2" class="node">
<title>Node2</title>
<g id="a_node2"><a xlink:href="Worksheet_8h.html" target="_top" xlink:title="This file defines the class Worksheet.">
<polygon fill="white" stroke="black" points="151,-224.5 151,-243.5 246,-243.5 246,-224.5 151,-224.5"/>
<text text-anchor="middle" x="198.5" y="-231.5" font-family="Helvetica,sans-Serif" font-size="10.00">src/Worksheet.h</text>
</a>
</g>
</g>
<!-- Node1&#45;&gt;Node2 -->
<g id="edge1" class="edge">
<title>Node1&#45;&gt;Node2</title>
<path fill="none" stroke="midnightblue" d="M224.44,-271.86C217.86,-262.5 209.99,-251.33 204.66,-243.75"/>
<polygon fill="midnightblue" stroke="midnightblue" points="221.61,-273.92 230.23,-280.08 227.33,-269.89 221.61,-273.92"/>
</g>
<!-- Node8 -->
<g id="node8" class="node">
<title>Node8</title>
<g id="a_node8"><a xlink:href="wxMaximaFrame_8h.html" target="_top" xlink:title="This file declares the class wxMaximaFrame.">
<polygon fill="white" stroke="black" points="240.5,-168.5 240.5,-187.5 368.5,-187.5 368.5,-168.5 240.5,-168.5"/>
<text text-anchor="middle" x="304.5" y="-175.5" font-family="Helvetica,sans-Serif" font-size="10.00">src/wxMaximaFrame.h</text>
</a>
</g>
</g>
<!-- Node1&#45;&gt;Node8 -->
<g id="edge23" class="edge">
<title>Node1&#45;&gt;Node8</title>
<path fill="none" stroke="midnightblue" d="M247.23,-271.64C262,-247.74 288.04,-205.63 299.19,-187.59"/>
<polygon fill="midnightblue" stroke="midnightblue" points="244.12,-270.02 241.84,-280.37 250.07,-273.7 244.12,-270.02"/>
</g>
<!-- Node3 -->
<g id="node3" class="node">
<title>Node3</title>
<g id="a_node3"><a xlink:href="ConfigDialogue_8h.html" target="_top" xlink:title="The configuration dialog.">
<polygon fill="white" stroke="black" points="0,-56.5 0,-75.5 155,-75.5 155,-56.5 0,-56.5"/>
<text text-anchor="middle" x="77.5" y="-63.5" font-family="Helvetica,sans-Serif" font-size="10.00">src/dialogs/ConfigDialogue.h</text>
</a>
</g>
</g>
<!-- Node2&#45;&gt;Node3 -->
<g id="edge2" class="edge">
<title>Node2&#45;&gt;Node3</title>
<path fill="none" stroke="midnightblue" d="M197.55,-214.11C195.8,-199.55 191.07,-179.93 178.5,-168 130.97,-122.87 75.79,-183.69 35.5,-132 20.55,-112.82 47.74,-88.27 64.95,-75.53"/>
<polygon fill="midnightblue" stroke="midnightblue" points="194.09,-214.79 198.4,-224.47 201.07,-214.22 194.09,-214.79"/>
</g>
<!-- Node6 -->
<g id="node6" class="node">
<title>Node6</title>
<g id="a_node6"><a xlink:href="Printout_8cpp.html" target="_top" xlink:title="This file defines the class MathPrintOut.">
<polygon fill="white" stroke="black" points="15,-168.5 15,-187.5 170,-187.5 170,-168.5 15,-168.5"/>
<text text-anchor="middle" x="92.5" y="-175.5" font-family="Helvetica,sans-Serif" font-size="10.00">src/graphical_io/Printout.cpp</text>
</a>
</g>
</g>
<!-- Node2&#45;&gt;Node6 -->
<g id="edge5" class="edge">
<title>Node2&#45;&gt;Node6</title>
<path fill="none" stroke="midnightblue" d="M172.44,-219.73C152.82,-209.73 126.47,-196.31 109.49,-187.65"/>
<polygon fill="midnightblue" stroke="midnightblue" points="170.97,-222.9 181.47,-224.32 174.15,-216.67 170.97,-222.9"/>
</g>
<!-- Node7 -->
<g id="node7" class="node">
<title>Node7</title>
<g id="a_node7"><a xlink:href="Worksheet_8cpp.html" target="_top" xlink:title="This file defines the class Worksheet.">
<polygon fill="white" stroke="black" points="173.5,-56.5 173.5,-75.5 279.5,-75.5 279.5,-56.5 173.5,-56.5"/>
<text text-anchor="middle" x="226.5" y="-63.5" font-family="Helvetica,sans-Serif" font-size="10.00">src/Worksheet.cpp</text>
</a>
</g>
</g>
<!-- Node2&#45;&gt;Node7 -->
<g id="edge6" class="edge">
<title>Node2&#45;&gt;Node7</title>
<path fill="none" stroke="midnightblue" d="M140.57,-227.36C90,-221.1 22.16,-208.99 5.5,-188 -0.03,-181.04 3.34,-176.62 5.5,-168 12.37,-140.61 13.11,-129.2 35.5,-112 56.84,-95.6 124.59,-82.3 173.34,-74.53"/>
<polygon fill="midnightblue" stroke="midnightblue" points="140.41,-230.87 150.75,-228.57 141.24,-223.91 140.41,-230.87"/>
</g>
<!-- Node2&#45;&gt;Node8 -->
<g id="edge7" class="edge">
<title>Node2&#45;&gt;Node8</title>
<path fill="none" stroke="midnightblue" d="M224.56,-219.73C244.18,-209.73 270.53,-196.31 287.51,-187.65"/>
<polygon fill="midnightblue" stroke="midnightblue" points="222.85,-216.67 215.53,-224.32 226.03,-222.9 222.85,-216.67"/>
</g>
<!-- Node4 -->
<g id="node4" class="node">
<title>Node4</title>
<g id="a_node4"><a xlink:href="main_8cpp.html" target="_top" xlink:title="The file that defines the starting point of the program.">
<polygon fill="white" stroke="black" points="508,-0.5 508,-19.5 587,-19.5 587,-0.5 508,-0.5"/>
<text text-anchor="middle" x="547.5" y="-7.5" font-family="Helvetica,sans-Serif" font-size="10.00">src/main.cpp</text>
</a>
</g>
</g>
<!-- Node3&#45;&gt;Node4 -->
<g id="edge3" class="edge">
<title>Node3&#45;&gt;Node4</title>
<path fill="none" stroke="midnightblue" d="M165.34,-55.78C283.89,-43.31 482.26,-22.36 498.5,-20 501.58,-19.55 504.77,-19.05 507.96,-18.53"/>
<polygon fill="midnightblue" stroke="midnightblue" points="164.76,-52.32 155.18,-56.85 165.49,-59.28 164.76,-52.32"/>
</g>
<!-- Node5 -->
<g id="node5" class="node">
<title>Node5</title>
<g id="a_node5"><a xlink:href="wxMaxima_8cpp.html" target="_top" xlink:title="This file defines the contents of the class wxMaxima that contains most of the program&#39;s logic.">
<polygon fill="white" stroke="black" points="381.5,-0.5 381.5,-19.5 489.5,-19.5 489.5,-0.5 381.5,-0.5"/>
<text text-anchor="middle" x="435.5" y="-7.5" font-family="Helvetica,sans-Serif" font-size="10.00">src/wxMaxima.cpp</text>
</a>
</g>
</g>
<!-- Node3&#45;&gt;Node5 -->
<g id="edge4" class="edge">
<title>Node3&#45;&gt;Node5</title>
<path fill="none" stroke="midnightblue" d="M144.47,-54.9C212.94,-44.57 317.99,-28.73 381.38,-19.16"/>
<polygon fill="midnightblue" stroke="midnightblue" points="143.59,-51.49 134.23,-56.44 144.64,-58.41 143.59,-51.49"/>
</g>
<!-- Node8&#45;&gt;Node7 -->
<g id="edge21" class="edge">
<title>Node8&#45;&gt;Node7</title>
<path fill="none" stroke="midnightblue" d="M230.12,-169.07C157.28,-160.54 55.52,-146.27 43.5,-132 37.77,-125.2 38.02,-119 43.5,-112 51.95,-101.22 127.69,-85.28 179.04,-75.55"/>
<polygon fill="midnightblue" stroke="midnightblue" points="229.85,-172.57 240.19,-170.24 230.66,-165.61 229.85,-172.57"/>
</g>
<!-- Node9 -->
<g id="node9" class="node">
<title>Node9</title>
<g id="a_node9"><a xlink:href="EditorCell_8cpp.html" target="_top" xlink:title="This file defines the class EditorCell.">
<polygon fill="white" stroke="black" points="662,-56.5 662,-75.5 789,-75.5 789,-56.5 662,-56.5"/>
<text text-anchor="middle" x="725.5" y="-63.5" font-family="Helvetica,sans-Serif" font-size="10.00">src/cells/EditorCell.cpp</text>
</a>
</g>
</g>
<!-- Node8&#45;&gt;Node9 -->
<g id="edge8" class="edge">
<title>Node8&#45;&gt;Node9</title>
<path fill="none" stroke="midnightblue" d="M378.8,-175.68C474.72,-172.73 635.17,-163.13 684.5,-132 705.49,-118.76 717.62,-90.44 722.69,-75.95"/>
<polygon fill="midnightblue" stroke="midnightblue" points="378.48,-172.19 368.58,-175.98 378.68,-179.19 378.48,-172.19"/>
</g>
<!-- Node10 -->
<g id="node10" class="node">
<title>Node10</title>
<g id="a_node10"><a xlink:href="AutocompletePopup_8cpp.html" target="_top" xlink:title="This file defines the class AutocompletePopup.">
<polygon fill="white" stroke="black" points="52.5,-112.5 52.5,-131.5 204.5,-131.5 204.5,-112.5 52.5,-112.5"/>
<text text-anchor="middle" x="128.5" y="-119.5" font-family="Helvetica,sans-Serif" font-size="10.00">src/AutocompletePopup.cpp</text>
</a>
</g>
</g>
<!-- Node8&#45;&gt;Node10 -->
<g id="edge9" class="edge">
<title>Node8&#45;&gt;Node10</title>
<path fill="none" stroke="midnightblue" d="M266.81,-165.44C233.63,-155.26 186.07,-140.66 156.26,-131.52"/>
<polygon fill="midnightblue" stroke="midnightblue" points="266.03,-168.86 276.61,-168.44 268.08,-162.16 266.03,-168.86"/>
</g>
<!-- Node11 -->
<g id="node11" class="node">
<title>Node11</title>
<g id="a_node11"><a xlink:href="main_8h.html" target="_top" xlink:title="This file declares the class wxMaxima that contains most of the program&#39;s logic.">
<polygon fill="white" stroke="black" points="575.5,-56.5 575.5,-75.5 643.5,-75.5 643.5,-56.5 575.5,-56.5"/>
<text text-anchor="middle" x="609.5" y="-63.5" font-family="Helvetica,sans-Serif" font-size="10.00">src/main.h</text>
</a>
</g>
</g>
<!-- Node8&#45;&gt;Node11 -->
<g id="edge10" class="edge">
<title>Node8&#45;&gt;Node11</title>
<path fill="none" stroke="midnightblue" d="M379.01,-172.99C479.92,-166.79 649.67,-153.3 668.5,-132 686.57,-111.56 650.52,-87.93 627.21,-75.56"/>
<polygon fill="midnightblue" stroke="midnightblue" points="378.64,-169.51 368.87,-173.6 379.06,-176.49 378.64,-169.51"/>
</g>
<!-- Node13 -->
<g id="node13" class="node">
<title>Node13</title>
<g id="a_node13"><a xlink:href="GreekSidebar_8cpp.html" target="_top" xlink:title="This file defines the class GreekSidebar.">
<polygon fill="white" stroke="black" points="222.5,-112.5 222.5,-131.5 386.5,-131.5 386.5,-112.5 222.5,-112.5"/>
<text text-anchor="middle" x="304.5" y="-119.5" font-family="Helvetica,sans-Serif" font-size="10.00">src/sidebars/GreekSidebar.cpp</text>
</a>
</g>
</g>
<!-- Node8&#45;&gt;Node13 -->
<g id="edge14" class="edge">
<title>Node8&#45;&gt;Node13</title>
<path fill="none" stroke="midnightblue" d="M304.5,-157.8C304.5,-148.91 304.5,-138.78 304.5,-131.75"/>
<polygon fill="midnightblue" stroke="midnightblue" points="301,-158.08 304.5,-168.08 308,-158.08 301,-158.08"/>
</g>
<!-- Node14 -->
<g id="node14" class="node">
<title>Node14</title>
<g id="a_node14"><a xlink:href="wxMaxima_8h.html" target="_top" xlink:title="This file declares the class wxMaxima that contains most of the program&#39;s logic.">
<polygon fill="white" stroke="black" points="562,-112.5 562,-131.5 659,-131.5 659,-112.5 562,-112.5"/>
<text text-anchor="middle" x="610.5" y="-119.5" font-family="Helvetica,sans-Serif" font-size="10.00">src/wxMaxima.h</text>
</a>
</g>
</g>
<!-- Node8&#45;&gt;Node14 -->
<g id="edge15" class="edge">
<title>Node8&#45;&gt;Node14</title>
<path fill="none" stroke="midnightblue" d="M363.07,-166.66C420.9,-156.46 508.28,-141.04 562.24,-131.52"/>
<polygon fill="midnightblue" stroke="midnightblue" points="362.23,-163.26 352.99,-168.44 363.44,-170.15 362.23,-163.26"/>
</g>
<!-- Node15 -->
<g id="node15" class="node">
<title>Node15</title>
<g id="a_node15"><a xlink:href="wxMaximaFrame_8cpp.html" target="_top" xlink:title="This file defines the class wxMaximaFrame.">
<polygon fill="white" stroke="black" points="405,-112.5 405,-131.5 544,-131.5 544,-112.5 405,-112.5"/>
<text text-anchor="middle" x="474.5" y="-119.5" font-family="Helvetica,sans-Serif" font-size="10.00">src/wxMaximaFrame.cpp</text>
</a>
</g>
</g>
<!-- Node8&#45;&gt;Node15 -->
<g id="edge22" class="edge">
<title>Node8&#45;&gt;Node15</title>
<path fill="none" stroke="midnightblue" d="M341.32,-165.3C373.35,-155.13 419.02,-140.62 447.69,-131.52"/>
<polygon fill="midnightblue" stroke="midnightblue" points="339.91,-162.08 331.44,-168.44 342.03,-168.75 339.91,-162.08"/>
</g>
<!-- Node11&#45;&gt;Node4 -->
<g id="edge12" class="edge">
<title>Node11&#45;&gt;Node4</title>
<path fill="none" stroke="midnightblue" d="M591.75,-49.54C580.69,-39.91 566.87,-27.87 557.64,-19.83"/>
<polygon fill="midnightblue" stroke="midnightblue" points="589.7,-52.4 599.54,-56.32 594.3,-47.12 589.7,-52.4"/>
</g>
<!-- Node11&#45;&gt;Node5 -->
<g id="edge13" class="edge">
<title>Node11&#45;&gt;Node5</title>
<path fill="none" stroke="midnightblue" d="M572.24,-53.44C539.43,-43.26 492.42,-28.66 462.94,-19.52"/>
<polygon fill="midnightblue" stroke="midnightblue" points="571.34,-56.82 581.93,-56.44 573.42,-50.14 571.34,-56.82"/>
</g>
<!-- Node12 -->
<g id="node12" class="node">
<title>Node12</title>
<g id="a_node12"><a xlink:href="MaximaManual_8cpp.html" target="_top" xlink:title="This file defines the class MaximaManual.">
<polygon fill="white" stroke="black" points="605.5,-0.5 605.5,-19.5 735.5,-19.5 735.5,-0.5 605.5,-0.5"/>
<text text-anchor="middle" x="670.5" y="-7.5" font-family="Helvetica,sans-Serif" font-size="10.00">src/MaximaManual.cpp</text>
</a>
</g>
</g>
<!-- Node11&#45;&gt;Node12 -->
<g id="edge11" class="edge">
<title>Node11&#45;&gt;Node12</title>
<path fill="none" stroke="midnightblue" d="M626.97,-49.54C637.84,-39.91 651.44,-27.87 660.52,-19.83"/>
<polygon fill="midnightblue" stroke="midnightblue" points="624.47,-47.07 619.3,-56.32 629.11,-52.32 624.47,-47.07"/>
</g>
<!-- Node14&#45;&gt;Node4 -->
<g id="edge18" class="edge">
<title>Node14&#45;&gt;Node4</title>
<path fill="none" stroke="midnightblue" d="M591.58,-105.55C582.85,-97.54 573,-87.12 566.5,-76 555.7,-57.53 550.65,-32.47 548.64,-19.52"/>
<polygon fill="midnightblue" stroke="midnightblue" points="589.33,-108.23 599.16,-112.18 593.93,-102.96 589.33,-108.23"/>
</g>
<!-- Node14&#45;&gt;Node5 -->
<g id="edge20" class="edge">
<title>Node14&#45;&gt;Node5</title>
<path fill="none" stroke="midnightblue" d="M588.24,-107.01C551.51,-83.92 479.27,-38.51 449.17,-19.59"/>
<polygon fill="midnightblue" stroke="midnightblue" points="586.44,-110.01 596.77,-112.37 590.16,-104.08 586.44,-110.01"/>
</g>
<!-- Node14&#45;&gt;Node7 -->
<g id="edge19" class="edge">
<title>Node14&#45;&gt;Node7</title>
<path fill="none" stroke="midnightblue" d="M551.55,-111.73C449.77,-96.77 342.13,-82.27 279.5,-73.96"/>
<polygon fill="midnightblue" stroke="midnightblue" points="551.29,-115.23 561.69,-113.23 552.31,-108.31 551.29,-115.23"/>
</g>
<!-- Node14&#45;&gt;Node9 -->
<g id="edge16" class="edge">
<title>Node14&#45;&gt;Node9</title>
<path fill="none" stroke="midnightblue" d="M637.98,-108.1C659.47,-98.01 688.72,-84.27 707.36,-75.52"/>
<polygon fill="midnightblue" stroke="midnightblue" points="636.29,-105.02 628.72,-112.44 639.26,-111.36 636.29,-105.02"/>
</g>
<!-- Node14&#45;&gt;Node11 -->
<g id="edge17" class="edge">
<title>Node14&#45;&gt;Node11</title>
<path fill="none" stroke="midnightblue" d="M610.14,-101.8C609.98,-92.91 609.79,-82.78 609.66,-75.75"/>
<polygon fill="midnightblue" stroke="midnightblue" points="606.65,-102.15 610.33,-112.08 613.65,-102.02 606.65,-102.15"/>
</g>
</g>
</svg>
