<?xml version="1.0" encoding="UTF-8" standalone="no"?>
<!DOCTYPE svg PUBLIC "-//W3C//DTD SVG 1.1//EN"
 "http://www.w3.org/Graphics/SVG/1.1/DTD/svg11.dtd">
<!-- Generated by graphviz version 2.43.0 (0)
 -->
<!-- Title: src/RegexSearch.h Pages: 1 -->
<svg width="166pt" height="140pt"
 viewBox="0.00 0.00 165.50 140.00" xmlns="http://www.w3.org/2000/svg" xmlns:xlink="http://www.w3.org/1999/xlink">
<g id="graph0" class="graph" transform="scale(1 1) rotate(0) translate(4 136)">
<title>src/RegexSearch.h</title>
<polygon fill="white" stroke="transparent" points="-4,4 -4,-136 161.5,-136 161.5,4 -4,4"/>
<!-- Node1 -->
<g id="node1" class="node">
<title>Node1</title>
<g id="a_node1"><a xlink:title="This file defines the class FindReplaceDialog.">
<polygon fill="#bfbfbf" stroke="black" points="24.5,-112.5 24.5,-131.5 131.5,-131.5 131.5,-112.5 24.5,-112.5"/>
<text text-anchor="middle" x="78" y="-119.5" font-family="Helvetica,sans-Serif" font-size="10.00">src/RegexSearch.h</text>
</a>
</g>
</g>
<!-- Node2 -->
<g id="node2" class="node">
<title>Node2</title>
<g id="a_node2"><a xlink:href="precomp_8h_source.html" target="_top" xlink:title=" ">
<polygon fill="white" stroke="black" points="0,-56.5 0,-75.5 68,-75.5 68,-56.5 0,-56.5"/>
<text text-anchor="middle" x="34" y="-63.5" font-family="Helvetica,sans-Serif" font-size="10.00">precomp.h</text>
</a>
</g>
</g>
<!-- Node1&#45;&gt;Node2 -->
<g id="edge1" class="edge">
<title>Node1&#45;&gt;Node2</title>
<path fill="none" stroke="midnightblue" d="M70.73,-112.08C64.46,-104.38 55.21,-93.03 47.57,-83.65"/>
<polygon fill="midnightblue" stroke="midnightblue" points="50.16,-81.29 41.13,-75.75 44.73,-85.71 50.16,-81.29"/>
</g>
<!-- Node4 -->
<g id="node4" class="node">
<title>Node4</title>
<g id="a_node4"><a xlink:title=" ">
<polygon fill="white" stroke="#bfbfbf" points="86.5,-56.5 86.5,-75.5 157.5,-75.5 157.5,-56.5 86.5,-56.5"/>
<text text-anchor="middle" x="122" y="-63.5" font-family="Helvetica,sans-Serif" font-size="10.00">wx/regex.h</text>
</a>
</g>
</g>
<!-- Node1&#45;&gt;Node4 -->
<g id="edge3" class="edge">
<title>Node1&#45;&gt;Node4</title>
<path fill="none" stroke="midnightblue" d="M85.27,-112.08C91.54,-104.38 100.79,-93.03 108.43,-83.65"/>
<polygon fill="midnightblue" stroke="midnightblue" points="111.27,-85.71 114.87,-75.75 105.84,-81.29 111.27,-85.71"/>
</g>
<!-- Node3 -->
<g id="node3" class="node">
<title>Node3</title>
<g id="a_node3"><a xlink:href="Version_8h_source.html" target="_top" xlink:title=" ">
<polygon fill="white" stroke="black" points="3,-0.5 3,-19.5 65,-19.5 65,-0.5 3,-0.5"/>
<text text-anchor="middle" x="34" y="-7.5" font-family="Helvetica,sans-Serif" font-size="10.00">Version.h</text>
</a>
</g>
</g>
<!-- Node2&#45;&gt;Node3 -->
<g id="edge2" class="edge">
<title>Node2&#45;&gt;Node3</title>
<path fill="none" stroke="midnightblue" d="M34,-56.08C34,-49.01 34,-38.86 34,-29.99"/>
<polygon fill="midnightblue" stroke="midnightblue" points="37.5,-29.75 34,-19.75 30.5,-29.75 37.5,-29.75"/>
</g>
</g>
</svg>
