<?xml version="1.0" encoding="UTF-8" standalone="no"?>
<!DOCTYPE svg PUBLIC "-//W3C//DTD SVG 1.1//EN"
 "http://www.w3.org/Graphics/SVG/1.1/DTD/svg11.dtd">
<!-- Generated by graphviz version 2.43.0 (0)
 -->
<!-- Title: src/RenderContext.h Pages: 1 -->
<svg width="733pt" height="82pt"
 viewBox="0.00 0.00 732.50 82.00" xmlns="http://www.w3.org/2000/svg" xmlns:xlink="http://www.w3.org/1999/xlink">
<g id="graph0" class="graph" transform="scale(1 1) rotate(0) translate(4 78)">
<title>src/RenderContext.h</title>
<!-- Node1 -->
<g id="node1" class="node">
<title>Node1</title>
<g id="a_node1"><a xlink:title="Declares RenderContext: the per&#45;render&#45;pass state of a worksheet.">
<polygon fill="#999999" stroke="#666666" points="473,-74 357,-74 357,-55 473,-55 473,-74"/>
<text text-anchor="middle" x="415" y="-62" font-family="Helvetica,sans-Serif" font-size="10.00">src/RenderContext.h</text>
</a>
</g>
</g>
<!-- Node2 -->
<g id="node2" class="node">
<title>Node2</title>
<g id="a_node2"><a xlink:title=" ">
<polygon fill="#e0e0e0" stroke="#999999" points="70,-19 0,-19 0,0 70,0 70,-19"/>
<text text-anchor="middle" x="35" y="-7" font-family="Helvetica,sans-Serif" font-size="10.00">wx/brush.h</text>
</a>
</g>
</g>
<!-- Node1&#45;&gt;Node2 -->
<g id="edge1" class="edge">
<title>Node1&#45;&gt;Node2</title>
<path fill="none" stroke="#63b8ff" d="M356.88,-56.86C291.86,-49.2 183.19,-35.68 80,-19.08"/>
<polygon fill="#63b8ff" stroke="#63b8ff" points="80.46,-15.61 70.03,-17.46 79.34,-22.52 80.46,-15.61"/>
</g>
<!-- Node3 -->
<g id="node3" class="node">
<title>Node3</title>
<g id="a_node3"><a xlink:title=" ">
<polygon fill="#e0e0e0" stroke="#999999" points="169.5,-19 88.5,-19 88.5,0 169.5,0 169.5,-19"/>
<text text-anchor="middle" x="129" y="-7" font-family="Helvetica,sans-Serif" font-size="10.00">wx/dcclient.h</text>
</a>
</g>
</g>
<!-- Node1&#45;&gt;Node3 -->
<g id="edge2" class="edge">
<title>Node1&#45;&gt;Node3</title>
<path fill="none" stroke="#63b8ff" d="M369.05,-54.98C317.28,-45.39 233.37,-29.84 179.72,-19.9"/>
<polygon fill="#63b8ff" stroke="#63b8ff" points="180.21,-16.43 169.74,-18.05 178.94,-23.31 180.21,-16.43"/>
</g>
<!-- Node4 -->
<g id="node4" class="node">
<title>Node4</title>
<g id="a_node4"><a xlink:title=" ">
<polygon fill="#e0e0e0" stroke="#999999" points="266.5,-19 187.5,-19 187.5,0 266.5,0 266.5,-19"/>
<text text-anchor="middle" x="227" y="-7" font-family="Helvetica,sans-Serif" font-size="10.00">wx/gdicmn.h</text>
</a>
</g>
</g>
<!-- Node1&#45;&gt;Node4 -->
<g id="edge3" class="edge">
<title>Node1&#45;&gt;Node4</title>
<path fill="none" stroke="#63b8ff" d="M384.79,-54.98C352.96,-46.01 302.64,-31.82 267.4,-21.89"/>
<polygon fill="#63b8ff" stroke="#63b8ff" points="268.02,-18.43 257.44,-19.08 266.12,-25.16 268.02,-18.43"/>
</g>
<!-- Node5 -->
<g id="node5" class="node">
<title>Node5</title>
<g id="a_node5"><a xlink:title=" ">
<polygon fill="#e0e0e0" stroke="#999999" points="365,-19 285,-19 285,0 365,0 365,-19"/>
<text text-anchor="middle" x="325" y="-7" font-family="Helvetica,sans-Serif" font-size="10.00">wx/window.h</text>
</a>
</g>
</g>
<!-- Node1&#45;&gt;Node5 -->
<g id="edge4" class="edge">
<title>Node1&#45;&gt;Node5</title>
<path fill="none" stroke="#63b8ff" d="M400.54,-54.98C386.58,-46.77 365.21,-34.18 348.75,-24.49"/>
<polygon fill="#63b8ff" stroke="#63b8ff" points="350.12,-21.23 339.72,-19.17 346.56,-27.26 350.12,-21.23"/>
</g>
<!-- Node6 -->
<g id="node6" class="node">
<title>Node6</title>
<g id="a_node6"><a xlink:title=" ">
<polygon fill="#e0e0e0" stroke="#999999" points="447,-19 383,-19 383,0 447,0 447,-19"/>
<text text-anchor="middle" x="415" y="-7" font-family="Helvetica,sans-Serif" font-size="10.00">algorithm</text>
</a>
</g>
</g>
<!-- Node1&#45;&gt;Node6 -->
<g id="edge5" class="edge">
<title>Node1&#45;&gt;Node6</title>
<path fill="none" stroke="#63b8ff" d="M415,-54.75C415,-47.8 415,-37.85 415,-29.13"/>
<polygon fill="#63b8ff" stroke="#63b8ff" points="418.5,-29.09 415,-19.09 411.5,-29.09 418.5,-29.09"/>
</g>
<!-- Node7 -->
<g id="node7" class="node">
<title>Node7</title>
<g id="a_node7"><a xlink:title=" ">
<polygon fill="#e0e0e0" stroke="#999999" points="515,-19 465,-19 465,0 515,0 515,-19"/>
<text text-anchor="middle" x="490" y="-7" font-family="Helvetica,sans-Serif" font-size="10.00">atomic</text>
</a>
</g>
</g>
<!-- Node1&#45;&gt;Node7 -->
<g id="edge6" class="edge">
<title>Node1&#45;&gt;Node7</title>
<path fill="none" stroke="#63b8ff" d="M427.05,-54.98C438.46,-46.92 455.83,-34.65 469.43,-25.03"/>
<polygon fill="#63b8ff" stroke="#63b8ff" points="471.58,-27.8 477.73,-19.17 467.54,-22.08 471.58,-27.8"/>
</g>
<!-- Node8 -->
<g id="node8" class="node">
<title>Node8</title>
<g id="a_node8"><a xlink:title=" ">
<polygon fill="#e0e0e0" stroke="#999999" points="583,-19 533,-19 533,0 583,0 583,-19"/>
<text text-anchor="middle" x="558" y="-7" font-family="Helvetica,sans-Serif" font-size="10.00">chrono</text>
</a>
</g>
</g>
<!-- Node1&#45;&gt;Node8 -->
<g id="edge7" class="edge">
<title>Node1&#45;&gt;Node8</title>
<path fill="none" stroke="#63b8ff" d="M437.98,-54.98C461.5,-46.27 498.29,-32.63 524.94,-22.75"/>
<polygon fill="#63b8ff" stroke="#63b8ff" points="526.45,-25.93 534.61,-19.17 524.01,-19.36 526.45,-25.93"/>
</g>
<!-- Node9 -->
<g id="node9" class="node">
<title>Node9</title>
<g id="a_node9"><a xlink:title=" ">
<polygon fill="#e0e0e0" stroke="#999999" points="659,-19 601,-19 601,0 659,0 659,-19"/>
<text text-anchor="middle" x="630" y="-7" font-family="Helvetica,sans-Serif" font-size="10.00">memory</text>
</a>
</g>
</g>
<!-- Node1&#45;&gt;Node9 -->
<g id="edge8" class="edge">
<title>Node1&#45;&gt;Node9</title>
<path fill="none" stroke="#63b8ff" d="M449.54,-54.98C488.17,-45.46 550.6,-30.07 590.96,-20.12"/>
<polygon fill="#63b8ff" stroke="#63b8ff" points="591.85,-23.51 600.72,-17.72 590.18,-16.71 591.85,-23.51"/>
</g>
<!-- Node10 -->
<g id="node10" class="node">
<title>Node10</title>
<g id="a_node10"><a xlink:title=" ">
<polygon fill="#e0e0e0" stroke="#999999" points="724.5,-19 677.5,-19 677.5,0 724.5,0 724.5,-19"/>
<text text-anchor="middle" x="701" y="-7" font-family="Helvetica,sans-Serif" font-size="10.00">vector</text>
</a>
</g>
</g>
<!-- Node1&#45;&gt;Node10 -->
<g id="edge9" class="edge">
<title>Node1&#45;&gt;Node10</title>
<path fill="none" stroke="#63b8ff" d="M471.02,-54.93C520.24,-47.11 593.98,-34.7 667.38,-18.99"/>
<polygon fill="#63b8ff" stroke="#63b8ff" points="668.22,-22.38 677.26,-16.85 666.75,-15.54 668.22,-22.38"/>
</g>
</g>
</svg>
