<?xml version="1.0" encoding="UTF-8" standalone="no"?>
<!DOCTYPE svg PUBLIC "-//W3C//DTD SVG 1.1//EN"
 "http://www.w3.org/Graphics/SVG/1.1/DTD/svg11.dtd">
<!-- Generated by graphviz version 2.43.0 (0)
 -->
<!-- Title: src/cells/SetCell.cpp Pages: 1 -->
<svg width="2118pt" height="522pt"
 viewBox="0.00 0.00 2118.36 522.00" xmlns="http://www.w3.org/2000/svg" xmlns:xlink="http://www.w3.org/1999/xlink">
<g id="graph0" class="graph" transform="scale(1 1) rotate(0) translate(4 518)">
<title>src/cells/SetCell.cpp</title>
<!-- Node1 -->
<g id="node1" class="node">
<title>Node1</title>
<g id="a_node1"><a xlink:title="This file defines the class SetCell.">
<polygon fill="#999999" stroke="#666666" points="732.5,-514 618.5,-514 618.5,-495 732.5,-495 732.5,-514"/>
<text text-anchor="middle" x="675.5" y="-502" font-family="Helvetica,sans-Serif" font-size="10.00">src/cells/SetCell.cpp</text>
</a>
</g>
</g>
<!-- Node2 -->
<g id="node2" class="node">
<title>Node2</title>
<g id="a_node2"><a xlink:href="SetCell_8h.html" target="_top" xlink:title="This file declares the class SetCell.">
<polygon fill="white" stroke="#666666" points="735.5,-459 675.5,-459 675.5,-440 735.5,-440 735.5,-459"/>
<text text-anchor="middle" x="705.5" y="-447" font-family="Helvetica,sans-Serif" font-size="10.00">SetCell.h</text>
</a>
</g>
</g>
<!-- Node1&#45;&gt;Node2 -->
<g id="edge1" class="edge">
<title>Node1&#45;&gt;Node2</title>
<path fill="none" stroke="#63b8ff" d="M680.45,-494.75C684.56,-487.49 690.53,-476.95 695.6,-467.98"/>
<polygon fill="#63b8ff" stroke="#63b8ff" points="698.76,-469.52 700.64,-459.09 692.67,-466.07 698.76,-469.52"/>
</g>
<!-- Node55 -->
<g id="node50" class="node">
<title>Node55</title>
<g id="a_node50"><a xlink:href="CellImpl_8h.html" target="_top" xlink:title="Macros and types used only by cell implementations, not by cell users.">
<polygon fill="white" stroke="#666666" points="563.5,-404 497.5,-404 497.5,-385 563.5,-385 563.5,-404"/>
<text text-anchor="middle" x="530.5" y="-392" font-family="Helvetica,sans-Serif" font-size="10.00">CellImpl.h</text>
</a>
</g>
</g>
<!-- Node1&#45;&gt;Node55 -->
<g id="edge86" class="edge">
<title>Node1&#45;&gt;Node55</title>
<path fill="none" stroke="#63b8ff" d="M663.63,-494.66C638.76,-476.14 580.95,-433.08 550.34,-410.28"/>
<polygon fill="#63b8ff" stroke="#63b8ff" points="552.24,-407.32 542.12,-404.16 548.05,-412.94 552.24,-407.32"/>
</g>
<!-- Node3 -->
<g id="node3" class="node">
<title>Node3</title>
<g id="a_node3"><a xlink:href="Cell_8h.html" target="_top" xlink:title="The definition of the base class of all cells the worksheet consists of.">
<polygon fill="white" stroke="#666666" points="804.5,-294 760.5,-294 760.5,-275 804.5,-275 804.5,-294"/>
<text text-anchor="middle" x="782.5" y="-282" font-family="Helvetica,sans-Serif" font-size="10.00">Cell.h</text>
</a>
</g>
</g>
<!-- Node2&#45;&gt;Node3 -->
<g id="edge2" class="edge">
<title>Node2&#45;&gt;Node3</title>
<path fill="none" stroke="#63b8ff" d="M729.64,-439.92C745.59,-432.89 765.35,-421.25 775.5,-404 793.81,-372.88 790.34,-328.87 786.32,-304.17"/>
<polygon fill="#63b8ff" stroke="#63b8ff" points="789.76,-303.51 784.51,-294.3 782.87,-304.77 789.76,-303.51"/>
</g>
<!-- Node52 -->
<g id="node47" class="node">
<title>Node52</title>
<g id="a_node47"><a xlink:href="ListCell_8h.html" target="_top" xlink:title="This file declares the class ListCell.">
<polygon fill="white" stroke="#666666" points="766.5,-404 704.5,-404 704.5,-385 766.5,-385 766.5,-404"/>
<text text-anchor="middle" x="735.5" y="-392" font-family="Helvetica,sans-Serif" font-size="10.00">ListCell.h</text>
</a>
</g>
</g>
<!-- Node2&#45;&gt;Node52 -->
<g id="edge80" class="edge">
<title>Node2&#45;&gt;Node52</title>
<path fill="none" stroke="#63b8ff" d="M710.45,-439.75C714.56,-432.49 720.53,-421.95 725.6,-412.98"/>
<polygon fill="#63b8ff" stroke="#63b8ff" points="728.76,-414.52 730.64,-404.09 722.67,-411.07 728.76,-414.52"/>
</g>
<!-- Node53 -->
<g id="node48" class="node">
<title>Node53</title>
<g id="a_node48"><a xlink:href="TextCell_8h_source.html" target="_top" xlink:title=" ">
<polygon fill="white" stroke="#666666" points="728,-349 663,-349 663,-330 728,-330 728,-349"/>
<text text-anchor="middle" x="695.5" y="-337" font-family="Helvetica,sans-Serif" font-size="10.00">TextCell.h</text>
</a>
</g>
</g>
<!-- Node2&#45;&gt;Node53 -->
<g id="edge85" class="edge">
<title>Node2&#45;&gt;Node53</title>
<path fill="none" stroke="#63b8ff" d="M702.93,-439.73C700.45,-430.83 696.9,-416.59 695.5,-404 693.84,-389.07 693.95,-372.04 694.41,-359.38"/>
<polygon fill="#63b8ff" stroke="#63b8ff" points="697.92,-359.32 694.9,-349.16 690.93,-358.98 697.92,-359.32"/>
</g>
<!-- Node4 -->
<g id="node4" class="node">
<title>Node4</title>
<g id="a_node4"><a xlink:href="precomp_8h_source.html" target="_top" xlink:title=" ">
<polygon fill="white" stroke="#666666" points="1577,-74 1500,-74 1500,-55 1577,-55 1577,-74"/>
<text text-anchor="middle" x="1538.5" y="-62" font-family="Helvetica,sans-Serif" font-size="10.00">../precomp.h</text>
</a>
</g>
</g>
<!-- Node3&#45;&gt;Node4 -->
<g id="edge3" class="edge">
<title>Node3&#45;&gt;Node4</title>
<path fill="none" stroke="#63b8ff" d="M804.92,-283.25C953.57,-281.34 1793.1,-266.95 1865.5,-184 1889.26,-156.78 1855.63,-127.61 1827.5,-110 1788.39,-85.51 1659.07,-73.36 1587.4,-68.37"/>
<polygon fill="#63b8ff" stroke="#63b8ff" points="1587.47,-64.87 1577.26,-67.69 1587,-71.86 1587.47,-64.87"/>
</g>
<!-- Node6 -->
<g id="node6" class="node">
<title>Node6</title>
<g id="a_node6"><a xlink:href="CellPtr_8h.html" target="_top" xlink:title="Implementation of an observing weak Cell pointer.">
<polygon fill="white" stroke="#666666" points="322,-129 265,-129 265,-110 322,-110 322,-129"/>
<text text-anchor="middle" x="293.5" y="-117" font-family="Helvetica,sans-Serif" font-size="10.00">CellPtr.h</text>
</a>
</g>
</g>
<!-- Node3&#45;&gt;Node6 -->
<g id="edge5" class="edge">
<title>Node3&#45;&gt;Node6</title>
<path fill="none" stroke="#63b8ff" d="M760.34,-278.58C753.96,-277.28 746.97,-275.97 740.5,-275 659.68,-262.88 444.82,-280.64 374.5,-239 335.5,-215.91 311.04,-165.82 300.13,-138.75"/>
<polygon fill="#63b8ff" stroke="#63b8ff" points="303.36,-137.38 296.51,-129.3 296.82,-139.89 303.36,-137.38"/>
</g>
<!-- Node13 -->
<g id="node13" class="node">
<title>Node13</title>
<g id="a_node13"><a xlink:title=" ">
<polygon fill="#e0e0e0" stroke="#999999" points="526.5,-74 468.5,-74 468.5,-55 526.5,-55 526.5,-74"/>
<text text-anchor="middle" x="497.5" y="-62" font-family="Helvetica,sans-Serif" font-size="10.00">memory</text>
</a>
</g>
</g>
<!-- Node3&#45;&gt;Node13 -->
<g id="edge77" class="edge">
<title>Node3&#45;&gt;Node13</title>
<path fill="none" stroke="#63b8ff" d="M760.3,-278.54C720.98,-269.59 640.78,-250.63 614.5,-239 573.35,-220.79 559.39,-217.64 529.5,-184 511.41,-163.64 509.7,-155.26 502.5,-129 498.52,-114.47 497.36,-97.41 497.14,-84.64"/>
<polygon fill="#63b8ff" stroke="#63b8ff" points="500.64,-84.31 497.16,-74.31 493.64,-84.3 500.64,-84.31"/>
</g>
<!-- Node14 -->
<g id="node14" class="node">
<title>Node14</title>
<g id="a_node14"><a xlink:title=" ">
<polygon fill="#e0e0e0" stroke="#999999" points="69,-74 0,-74 0,-55 69,-55 69,-74"/>
<text text-anchor="middle" x="34.5" y="-62" font-family="Helvetica,sans-Serif" font-size="10.00">type_traits</text>
</a>
</g>
</g>
<!-- Node3&#45;&gt;Node14 -->
<g id="edge79" class="edge">
<title>Node3&#45;&gt;Node14</title>
<path fill="none" stroke="#63b8ff" d="M760.36,-278.48C753.98,-277.18 746.99,-275.89 740.5,-275 526.81,-245.55 464.02,-297.87 256.5,-239 154.38,-210.03 106.54,-215.13 44.5,-129 35.23,-116.12 33.17,-97.96 33.17,-84.36"/>
<polygon fill="#63b8ff" stroke="#63b8ff" points="36.68,-84.34 33.55,-74.22 29.68,-84.08 36.68,-84.34"/>
</g>
<!-- Node15 -->
<g id="node15" class="node">
<title>Node15</title>
<g id="a_node15"><a xlink:href="CellIterators_8h.html" target="_top" xlink:title="Declares the various iterators useful with the Cell class.">
<polygon fill="white" stroke="#666666" points="139.5,-129 53.5,-129 53.5,-110 139.5,-110 139.5,-129"/>
<text text-anchor="middle" x="96.5" y="-117" font-family="Helvetica,sans-Serif" font-size="10.00">CellIterators.h</text>
</a>
</g>
</g>
<!-- Node3&#45;&gt;Node15 -->
<g id="edge14" class="edge">
<title>Node3&#45;&gt;Node15</title>
<path fill="none" stroke="#63b8ff" d="M760.35,-278.51C753.97,-277.22 746.98,-275.92 740.5,-275 549.76,-247.85 492.76,-295.28 308.5,-239 231.55,-215.5 151.52,-161.19 115.76,-135.06"/>
<polygon fill="#63b8ff" stroke="#63b8ff" points="117.77,-132.19 107.65,-129.06 113.61,-137.82 117.77,-132.19"/>
</g>
<!-- Node16 -->
<g id="node16" class="node">
<title>Node16</title>
<g id="a_node16"><a xlink:href="Configuration_8h_source.html" target="_top" xlink:title=" ">
<polygon fill="white" stroke="#666666" points="957,-239 866,-239 866,-220 957,-220 957,-239"/>
<text text-anchor="middle" x="911.5" y="-227" font-family="Helvetica,sans-Serif" font-size="10.00">Configuration.h</text>
</a>
</g>
</g>
<!-- Node3&#45;&gt;Node16 -->
<g id="edge18" class="edge">
<title>Node3&#45;&gt;Node16</title>
<path fill="none" stroke="#63b8ff" d="M803.23,-274.98C824.26,-266.34 857.05,-252.87 881.04,-243.02"/>
<polygon fill="#63b8ff" stroke="#63b8ff" points="882.48,-246.21 890.4,-239.17 879.82,-239.73 882.48,-246.21"/>
</g>
<!-- Node24 -->
<g id="node23" class="node">
<title>Node24</title>
<g id="a_node23"><a xlink:href="TextStyle_8h.html" target="_top" xlink:title="This file declares everything needed for the text style system used to style all the elements on the ...">
<polygon fill="white" stroke="#666666" points="1470.5,-184 1374.5,-184 1374.5,-165 1470.5,-165 1470.5,-184"/>
<text text-anchor="middle" x="1422.5" y="-172" font-family="Helvetica,sans-Serif" font-size="10.00">cells/TextStyle.h</text>
</a>
</g>
</g>
<!-- Node3&#45;&gt;Node24 -->
<g id="edge68" class="edge">
<title>Node3&#45;&gt;Node24</title>
<path fill="none" stroke="#63b8ff" d="M804.79,-279.8C839.88,-273.59 909.86,-259.71 966.5,-239 984.23,-232.52 986.36,-225.25 1004.5,-220 1156.22,-176.12 1203.56,-202.75 1364.09,-184.09"/>
<polygon fill="#63b8ff" stroke="#63b8ff" points="1364.81,-187.52 1374.32,-182.85 1363.97,-180.57 1364.81,-187.52"/>
</g>
<!-- Node26 -->
<g id="node25" class="node">
<title>Node26</title>
<g id="a_node25"><a xlink:title=" ">
<polygon fill="#e0e0e0" stroke="#999999" points="1818.5,-129 1780.5,-129 1780.5,-110 1818.5,-110 1818.5,-129"/>
<text text-anchor="middle" x="1799.5" y="-117" font-family="Helvetica,sans-Serif" font-size="10.00">map</text>
</a>
</g>
</g>
<!-- Node3&#45;&gt;Node26 -->
<g id="edge76" class="edge">
<title>Node3&#45;&gt;Node26</title>
<path fill="none" stroke="#63b8ff" d="M804.77,-283.27C960.15,-281.58 1879.71,-270.31 1999.5,-239 2051.23,-225.48 2078.64,-229.64 2106.5,-184 2110.9,-176.79 2112.03,-171.39 2106.5,-165 2070.7,-123.64 1898.42,-119.9 1828.79,-120.12"/>
<polygon fill="#63b8ff" stroke="#63b8ff" points="1828.51,-116.62 1818.53,-120.18 1828.56,-123.62 1828.51,-116.62"/>
</g>
<!-- Node37 -->
<g id="node32" class="node">
<title>Node37</title>
<g id="a_node32"><a xlink:title=" ">
<polygon fill="#e0e0e0" stroke="#999999" points="766.5,-74 702.5,-74 702.5,-55 766.5,-55 766.5,-74"/>
<text text-anchor="middle" x="734.5" y="-62" font-family="Helvetica,sans-Serif" font-size="10.00">algorithm</text>
</a>
</g>
</g>
<!-- Node3&#45;&gt;Node37 -->
<g id="edge75" class="edge">
<title>Node3&#45;&gt;Node37</title>
<path fill="none" stroke="#63b8ff" d="M760.26,-278.36C707.15,-264.76 573.39,-222.24 520.5,-129 516.33,-121.65 515.17,-116.55 520.5,-110 523.23,-106.65 630.65,-85.49 692.23,-73.6"/>
<polygon fill="#63b8ff" stroke="#63b8ff" points="692.91,-77.03 702.06,-71.7 691.58,-70.16 692.91,-77.03"/>
</g>
<!-- Node44 -->
<g id="node39" class="node">
<title>Node44</title>
<g id="a_node39"><a xlink:title=" ">
<polygon fill="#e0e0e0" stroke="#999999" points="1856,-184 1809,-184 1809,-165 1856,-165 1856,-184"/>
<text text-anchor="middle" x="1832.5" y="-172" font-family="Helvetica,sans-Serif" font-size="10.00">vector</text>
</a>
</g>
</g>
<!-- Node3&#45;&gt;Node44 -->
<g id="edge78" class="edge">
<title>Node3&#45;&gt;Node44</title>
<path fill="none" stroke="#63b8ff" d="M804.71,-282.32C913.46,-276.36 1400.55,-247.18 1794.5,-184 1795.96,-183.77 1797.45,-183.51 1798.95,-183.24"/>
<polygon fill="#63b8ff" stroke="#63b8ff" points="1799.75,-186.65 1808.87,-181.25 1798.38,-179.78 1799.75,-186.65"/>
</g>
<!-- Node47 -->
<g id="node42" class="node">
<title>Node47</title>
<g id="a_node42"><a xlink:href="StringUtils_8h_source.html" target="_top" xlink:title=" ">
<polygon fill="white" stroke="#666666" points="1990,-239 1913,-239 1913,-220 1990,-220 1990,-239"/>
<text text-anchor="middle" x="1951.5" y="-227" font-family="Helvetica,sans-Serif" font-size="10.00">StringUtils.h</text>
</a>
</g>
</g>
<!-- Node3&#45;&gt;Node47 -->
<g id="edge65" class="edge">
<title>Node3&#45;&gt;Node47</title>
<path fill="none" stroke="#63b8ff" d="M804.59,-283.6C919.42,-283.89 1459.55,-282.79 1898.5,-239 1899.8,-238.87 1901.12,-238.73 1902.46,-238.58"/>
<polygon fill="#63b8ff" stroke="#63b8ff" points="1903.31,-242 1912.78,-237.26 1902.42,-235.05 1903.31,-242"/>
</g>
<!-- Node50 -->
<g id="node45" class="node">
<title>Node50</title>
<g id="a_node45"><a xlink:href="CachedValue_8h.html" target="_top" xlink:title="Declares &quot;mostly read&#45;only&quot; wrappers around values that are expensive to compute and are thus cached.">
<polygon fill="white" stroke="#666666" points="247,-129 158,-129 158,-110 247,-110 247,-129"/>
<text text-anchor="middle" x="202.5" y="-117" font-family="Helvetica,sans-Serif" font-size="10.00">CachedValue.h</text>
</a>
</g>
</g>
<!-- Node3&#45;&gt;Node50 -->
<g id="edge69" class="edge">
<title>Node3&#45;&gt;Node50</title>
<path fill="none" stroke="#63b8ff" d="M760.35,-278.55C753.96,-277.25 746.98,-275.95 740.5,-275 566.96,-249.57 509.84,-305.4 347.5,-239 291.29,-216.01 239.92,-163.48 216.24,-136.76"/>
<polygon fill="#63b8ff" stroke="#63b8ff" points="218.76,-134.32 209.56,-129.06 213.47,-138.91 218.76,-134.32"/>
</g>
<!-- Node51 -->
<g id="node46" class="node">
<title>Node51</title>
<g id="a_node46"><a xlink:title=" ">
<polygon fill="#e0e0e0" stroke="#999999" points="1077.5,-239 1013.5,-239 1013.5,-220 1077.5,-220 1077.5,-239"/>
<text text-anchor="middle" x="1045.5" y="-227" font-family="Helvetica,sans-Serif" font-size="10.00">wx/defs.h</text>
</a>
</g>
</g>
<!-- Node3&#45;&gt;Node51 -->
<g id="edge74" class="edge">
<title>Node3&#45;&gt;Node51</title>
<path fill="none" stroke="#63b8ff" d="M804.92,-278.98C848.89,-270.12 947.05,-250.34 1003.46,-238.97"/>
<polygon fill="#63b8ff" stroke="#63b8ff" points="1004.37,-242.36 1013.48,-236.95 1002.99,-235.5 1004.37,-242.36"/>
</g>
<!-- Node5 -->
<g id="node5" class="node">
<title>Node5</title>
<g id="a_node5"><a xlink:href="Version_8h_source.html" target="_top" xlink:title=" ">
<polygon fill="white" stroke="#666666" points="1569.5,-19 1507.5,-19 1507.5,0 1569.5,0 1569.5,-19"/>
<text text-anchor="middle" x="1538.5" y="-7" font-family="Helvetica,sans-Serif" font-size="10.00">Version.h</text>
</a>
</g>
</g>
<!-- Node4&#45;&gt;Node5 -->
<g id="edge4" class="edge">
<title>Node4&#45;&gt;Node5</title>
<path fill="none" stroke="#63b8ff" d="M1538.5,-54.75C1538.5,-47.8 1538.5,-37.85 1538.5,-29.13"/>
<polygon fill="#63b8ff" stroke="#63b8ff" points="1542,-29.09 1538.5,-19.09 1535,-29.09 1542,-29.09"/>
</g>
<!-- Node7 -->
<g id="node7" class="node">
<title>Node7</title>
<g id="a_node7"><a xlink:title=" ">
<polygon fill="#e0e0e0" stroke="#999999" points="160,-74 87,-74 87,-55 160,-55 160,-74"/>
<text text-anchor="middle" x="123.5" y="-62" font-family="Helvetica,sans-Serif" font-size="10.00">wx/debug.h</text>
</a>
</g>
</g>
<!-- Node6&#45;&gt;Node7 -->
<g id="edge6" class="edge">
<title>Node6&#45;&gt;Node7</title>
<path fill="none" stroke="#63b8ff" d="M266.19,-109.98C237.65,-101.09 192.67,-87.07 160.86,-77.15"/>
<polygon fill="#63b8ff" stroke="#63b8ff" points="161.62,-73.72 151.03,-74.08 159.53,-80.4 161.62,-73.72"/>
</g>
<!-- Node8 -->
<g id="node8" class="node">
<title>Node8</title>
<g id="a_node8"><a xlink:title=" ">
<polygon fill="#e0e0e0" stroke="#999999" points="388.5,-74 330.5,-74 330.5,-55 388.5,-55 388.5,-74"/>
<text text-anchor="middle" x="359.5" y="-62" font-family="Helvetica,sans-Serif" font-size="10.00">wx/log.h</text>
</a>
</g>
</g>
<!-- Node6&#45;&gt;Node8 -->
<g id="edge7" class="edge">
<title>Node6&#45;&gt;Node8</title>
<path fill="none" stroke="#63b8ff" d="M304.1,-109.98C313.96,-102.07 328.85,-90.11 340.72,-80.58"/>
<polygon fill="#63b8ff" stroke="#63b8ff" points="343.1,-83.16 348.7,-74.17 338.71,-77.7 343.1,-83.16"/>
</g>
<!-- Node9 -->
<g id="node9" class="node">
<title>Node9</title>
<g id="a_node9"><a xlink:title=" ">
<polygon fill="#e0e0e0" stroke="#999999" points="678,-74 633,-74 633,-55 678,-55 678,-74"/>
<text text-anchor="middle" x="655.5" y="-62" font-family="Helvetica,sans-Serif" font-size="10.00">utility</text>
</a>
</g>
</g>
<!-- Node6&#45;&gt;Node9 -->
<g id="edge8" class="edge">
<title>Node6&#45;&gt;Node9</title>
<path fill="none" stroke="#63b8ff" d="M322.42,-114.91C378.23,-107.86 504.66,-91.41 610.5,-74 614.45,-73.35 618.58,-72.63 622.68,-71.89"/>
<polygon fill="#63b8ff" stroke="#63b8ff" points="623.45,-75.3 632.64,-70.03 622.17,-68.42 623.45,-75.3"/>
</g>
<!-- Node10 -->
<g id="node10" class="node">
<title>Node10</title>
<g id="a_node10"><a xlink:title=" ">
<polygon fill="#e0e0e0" stroke="#999999" points="312,-74 259,-74 259,-55 312,-55 312,-74"/>
<text text-anchor="middle" x="285.5" y="-62" font-family="Helvetica,sans-Serif" font-size="10.00">cstddef</text>
</a>
</g>
</g>
<!-- Node6&#45;&gt;Node10 -->
<g id="edge9" class="edge">
<title>Node6&#45;&gt;Node10</title>
<path fill="none" stroke="#63b8ff" d="M292.18,-109.75C291.13,-102.8 289.63,-92.85 288.31,-84.13"/>
<polygon fill="#63b8ff" stroke="#63b8ff" points="291.75,-83.45 286.8,-74.09 284.83,-84.5 291.75,-83.45"/>
</g>
<!-- Node11 -->
<g id="node11" class="node">
<title>Node11</title>
<g id="a_node11"><a xlink:title=" ">
<polygon fill="#e0e0e0" stroke="#999999" points="601.5,-74 551.5,-74 551.5,-55 601.5,-55 601.5,-74"/>
<text text-anchor="middle" x="576.5" y="-62" font-family="Helvetica,sans-Serif" font-size="10.00">cstdint</text>
</a>
</g>
</g>
<!-- Node6&#45;&gt;Node11 -->
<g id="edge10" class="edge">
<title>Node6&#45;&gt;Node11</title>
<path fill="none" stroke="#63b8ff" d="M322.22,-113.43C367.59,-105.39 458.57,-89.05 535.5,-74 537.43,-73.62 539.4,-73.23 541.4,-72.83"/>
<polygon fill="#63b8ff" stroke="#63b8ff" points="542.26,-76.23 551.37,-70.8 540.87,-69.37 542.26,-76.23"/>
</g>
<!-- Node12 -->
<g id="node12" class="node">
<title>Node12</title>
<g id="a_node12"><a xlink:title=" ">
<polygon fill="#e0e0e0" stroke="#999999" points="240.5,-74 178.5,-74 178.5,-55 240.5,-55 240.5,-74"/>
<text text-anchor="middle" x="209.5" y="-62" font-family="Helvetica,sans-Serif" font-size="10.00">cinttypes</text>
</a>
</g>
</g>
<!-- Node6&#45;&gt;Node12 -->
<g id="edge11" class="edge">
<title>Node6&#45;&gt;Node12</title>
<path fill="none" stroke="#63b8ff" d="M280,-109.98C267.1,-101.84 247.4,-89.41 232.1,-79.76"/>
<polygon fill="#63b8ff" stroke="#63b8ff" points="233.57,-76.55 223.24,-74.17 229.83,-82.47 233.57,-76.55"/>
</g>
<!-- Node6&#45;&gt;Node13 -->
<g id="edge12" class="edge">
<title>Node6&#45;&gt;Node13</title>
<path fill="none" stroke="#63b8ff" d="M322.3,-111.02C357.86,-101.78 418.52,-86.02 458.31,-75.68"/>
<polygon fill="#63b8ff" stroke="#63b8ff" points="459.39,-79.02 468.19,-73.11 457.63,-72.24 459.39,-79.02"/>
</g>
<!-- Node6&#45;&gt;Node14 -->
<g id="edge13" class="edge">
<title>Node6&#45;&gt;Node14</title>
<path fill="none" stroke="#63b8ff" d="M264.88,-112.03C261.72,-111.33 258.54,-110.65 255.5,-110 222.5,-102.99 133.73,-85.24 79.26,-74.4"/>
<polygon fill="#63b8ff" stroke="#63b8ff" points="79.68,-70.91 69.18,-72.39 78.31,-77.77 79.68,-70.91"/>
</g>
<!-- Node15&#45;&gt;Node7 -->
<g id="edge15" class="edge">
<title>Node15&#45;&gt;Node7</title>
<path fill="none" stroke="#63b8ff" d="M100.96,-109.75C104.62,-102.57 109.91,-92.18 114.45,-83.27"/>
<polygon fill="#63b8ff" stroke="#63b8ff" points="117.7,-84.59 119.12,-74.09 111.47,-81.41 117.7,-84.59"/>
</g>
<!-- Node15&#45;&gt;Node13 -->
<g id="edge16" class="edge">
<title>Node15&#45;&gt;Node13</title>
<path fill="none" stroke="#63b8ff" d="M139.61,-111.29C142.61,-110.84 145.6,-110.4 148.5,-110 283.08,-91.22 320.56,-96.93 458.03,-74.09"/>
<polygon fill="#63b8ff" stroke="#63b8ff" points="458.82,-77.51 468.1,-72.4 457.66,-70.6 458.82,-77.51"/>
</g>
<!-- Node15&#45;&gt;Node14 -->
<g id="edge17" class="edge">
<title>Node15&#45;&gt;Node14</title>
<path fill="none" stroke="#63b8ff" d="M86.54,-109.98C77.37,-102.15 63.56,-90.34 52.47,-80.86"/>
<polygon fill="#63b8ff" stroke="#63b8ff" points="54.52,-78.01 44.64,-74.17 49.97,-83.33 54.52,-78.01"/>
</g>
<!-- Node16&#45;&gt;Node4 -->
<g id="edge19" class="edge">
<title>Node16&#45;&gt;Node4</title>
<path fill="none" stroke="#63b8ff" d="M957.37,-224.17C972.39,-222.78 989.15,-221.28 1004.5,-220 1158.84,-207.1 1600.45,-251.29 1695.5,-129 1726.67,-88.9 1644.28,-74 1587.4,-68.56"/>
<polygon fill="#63b8ff" stroke="#63b8ff" points="1587.38,-65.04 1577.11,-67.64 1586.76,-72.01 1587.38,-65.04"/>
</g>
<!-- Node16&#45;&gt;Node11 -->
<g id="edge55" class="edge">
<title>Node16&#45;&gt;Node11</title>
<path fill="none" stroke="#63b8ff" d="M865.85,-227.2C806.03,-224.28 698.61,-214.78 612.5,-184 567.64,-167.97 544,-170.44 520.5,-129 509.56,-109.71 530.97,-91.1 550.4,-79.07"/>
<polygon fill="#63b8ff" stroke="#63b8ff" points="552.18,-82.08 559.06,-74.02 548.66,-76.03 552.18,-82.08"/>
</g>
<!-- Node16&#45;&gt;Node13 -->
<g id="edge56" class="edge">
<title>Node16&#45;&gt;Node13</title>
<path fill="none" stroke="#63b8ff" d="M865.9,-227.35C781.59,-224.51 605.24,-214.93 553.5,-184 517.97,-162.76 504.66,-111.86 499.93,-84.18"/>
<polygon fill="#63b8ff" stroke="#63b8ff" points="503.38,-83.57 498.43,-74.21 496.45,-84.62 503.38,-83.57"/>
</g>
<!-- Node17 -->
<g id="node17" class="node">
<title>Node17</title>
<g id="a_node17"><a xlink:title=" ">
<polygon fill="#e0e0e0" stroke="#999999" points="1114,-184 1057,-184 1057,-165 1114,-165 1114,-184"/>
<text text-anchor="middle" x="1085.5" y="-172" font-family="Helvetica,sans-Serif" font-size="10.00">wx/wx.h</text>
</a>
</g>
</g>
<!-- Node16&#45;&gt;Node17 -->
<g id="edge20" class="edge">
<title>Node16&#45;&gt;Node17</title>
<path fill="none" stroke="#63b8ff" d="M939.46,-219.98C968.8,-211.05 1015.1,-196.94 1047.69,-187.02"/>
<polygon fill="#63b8ff" stroke="#63b8ff" points="1048.78,-190.34 1057.32,-184.08 1046.74,-183.65 1048.78,-190.34"/>
</g>
<!-- Node18 -->
<g id="node18" class="node">
<title>Node18</title>
<g id="a_node18"><a xlink:title=" ">
<polygon fill="#e0e0e0" stroke="#999999" points="834.5,-129 762.5,-129 762.5,-110 834.5,-110 834.5,-129"/>
<text text-anchor="middle" x="798.5" y="-117" font-family="Helvetica,sans-Serif" font-size="10.00">wx/config.h</text>
</a>
</g>
</g>
<!-- Node16&#45;&gt;Node18 -->
<g id="edge21" class="edge">
<title>Node16&#45;&gt;Node18</title>
<path fill="none" stroke="#63b8ff" d="M865.69,-225.68C808.77,-221.1 716.54,-209.82 695.5,-184 675.12,-158.99 716.25,-141.14 752.43,-130.85"/>
<polygon fill="#63b8ff" stroke="#63b8ff" points="753.71,-134.14 762.45,-128.15 751.88,-127.38 753.71,-134.14"/>
</g>
<!-- Node19 -->
<g id="node19" class="node">
<title>Node19</title>
<g id="a_node19"><a xlink:title=" ">
<polygon fill="#e0e0e0" stroke="#999999" points="1248,-184 1171,-184 1171,-165 1248,-165 1248,-184"/>
<text text-anchor="middle" x="1209.5" y="-172" font-family="Helvetica,sans-Serif" font-size="10.00">wx/display.h</text>
</a>
</g>
</g>
<!-- Node16&#45;&gt;Node19 -->
<g id="edge22" class="edge">
<title>Node16&#45;&gt;Node19</title>
<path fill="none" stroke="#63b8ff" d="M957.08,-220.39C1012.03,-210.62 1104.01,-194.26 1160.46,-184.22"/>
<polygon fill="#63b8ff" stroke="#63b8ff" points="1161.34,-187.62 1170.57,-182.42 1160.11,-180.73 1161.34,-187.62"/>
</g>
<!-- Node20 -->
<g id="node20" class="node">
<title>Node20</title>
<g id="a_node20"><a xlink:title=" ">
<polygon fill="#e0e0e0" stroke="#999999" points="1356.5,-184 1266.5,-184 1266.5,-165 1356.5,-165 1356.5,-184"/>
<text text-anchor="middle" x="1311.5" y="-172" font-family="Helvetica,sans-Serif" font-size="10.00">wx/fontenum.h</text>
</a>
</g>
</g>
<!-- Node16&#45;&gt;Node20 -->
<g id="edge23" class="edge">
<title>Node16&#45;&gt;Node20</title>
<path fill="none" stroke="#63b8ff" d="M957.03,-221.97C961.91,-221.3 966.81,-220.63 971.5,-220 1095.26,-203.45 1128.96,-202.03 1256.29,-184.13"/>
<polygon fill="#63b8ff" stroke="#63b8ff" points="1257.02,-187.56 1266.43,-182.7 1256.04,-180.63 1257.02,-187.56"/>
</g>
<!-- Node21 -->
<g id="node21" class="node">
<title>Node21</title>
<g id="a_node21"><a xlink:title=" ">
<polygon fill="#e0e0e0" stroke="#999999" points="940.5,-129 852.5,-129 852.5,-110 940.5,-110 940.5,-129"/>
<text text-anchor="middle" x="896.5" y="-117" font-family="Helvetica,sans-Serif" font-size="10.00">wx/hashmap.h</text>
</a>
</g>
</g>
<!-- Node16&#45;&gt;Node21 -->
<g id="edge24" class="edge">
<title>Node16&#45;&gt;Node21</title>
<path fill="none" stroke="#63b8ff" d="M949.24,-219.99C984.1,-210.25 1027.93,-192.06 1009.5,-165 996.17,-145.43 972.79,-134.46 950.75,-128.32"/>
<polygon fill="#63b8ff" stroke="#63b8ff" points="951.3,-124.85 940.75,-125.83 949.6,-131.65 951.3,-124.85"/>
</g>
<!-- Node22 -->
<g id="node22" class="node">
<title>Node22</title>
<g id="a_node22"><a xlink:href="LoggingMessageDialog_8h.html" target="_top" xlink:title="This file declares a message dialog that sends its contents to the log message sink.">
<polygon fill="#fff0f0" stroke="red" points="707,-129 530,-129 530,-110 707,-110 707,-129"/>
<text text-anchor="middle" x="618.5" y="-117" font-family="Helvetica,sans-Serif" font-size="10.00">dialogs/LoggingMessageDialog.h</text>
</a>
</g>
</g>
<!-- Node16&#45;&gt;Node22 -->
<g id="edge25" class="edge">
<title>Node16&#45;&gt;Node22</title>
<path fill="none" stroke="#63b8ff" d="M865.78,-227.99C793.22,-226.14 656.61,-218.09 624.5,-184 613.48,-172.3 613.03,-153.44 614.7,-139.32"/>
<polygon fill="#63b8ff" stroke="#63b8ff" points="618.19,-139.66 616.34,-129.22 611.28,-138.53 618.19,-139.66"/>
</g>
<!-- Node16&#45;&gt;Node24 -->
<g id="edge28" class="edge">
<title>Node16&#45;&gt;Node24</title>
<path fill="none" stroke="#63b8ff" d="M957.01,-221.81C961.89,-221.17 966.8,-220.55 971.5,-220 1142.92,-200.04 1189.21,-204.79 1364.26,-184.08"/>
<polygon fill="#63b8ff" stroke="#63b8ff" points="1364.81,-187.54 1374.32,-182.88 1363.98,-180.59 1364.81,-187.54"/>
</g>
<!-- Node16&#45;&gt;Node37 -->
<g id="edge62" class="edge">
<title>Node16&#45;&gt;Node37</title>
<path fill="none" stroke="#63b8ff" d="M865.88,-226.16C806.57,-222.05 707.88,-211.22 685.5,-184 666.54,-160.95 714.15,-131.51 715.5,-129 723.08,-114.89 728.03,-97.34 730.98,-84.27"/>
<polygon fill="#63b8ff" stroke="#63b8ff" points="734.47,-84.64 733.06,-74.14 727.62,-83.23 734.47,-84.64"/>
</g>
<!-- Node40 -->
<g id="node35" class="node">
<title>Node40</title>
<g id="a_node35"><a xlink:title=" ">
<polygon fill="#e0e0e0" stroke="#999999" points="1182.5,-74 1150.5,-74 1150.5,-55 1182.5,-55 1182.5,-74"/>
<text text-anchor="middle" x="1166.5" y="-62" font-family="Helvetica,sans-Serif" font-size="10.00">list</text>
</a>
</g>
</g>
<!-- Node16&#45;&gt;Node40 -->
<g id="edge60" class="edge">
<title>Node16&#45;&gt;Node40</title>
<path fill="none" stroke="#63b8ff" d="M957.04,-220.1C1017.44,-208.8 1117.19,-189.48 1123.5,-184 1153.02,-158.38 1162.28,-110.84 1165.18,-84.43"/>
<polygon fill="#63b8ff" stroke="#63b8ff" points="1168.69,-84.51 1166.09,-74.23 1161.71,-83.88 1168.69,-84.51"/>
</g>
<!-- Node41 -->
<g id="node36" class="node">
<title>Node41</title>
<g id="a_node36"><a xlink:title=" ">
<polygon fill="#e0e0e0" stroke="#999999" points="1761,-74 1668,-74 1668,-55 1761,-55 1761,-74"/>
<text text-anchor="middle" x="1714.5" y="-62" font-family="Helvetica,sans-Serif" font-size="10.00">unordered_map</text>
</a>
</g>
</g>
<!-- Node16&#45;&gt;Node41 -->
<g id="edge58" class="edge">
<title>Node16&#45;&gt;Node41</title>
<path fill="none" stroke="#63b8ff" d="M957.36,-223.99C972.37,-222.6 989.14,-221.14 1004.5,-220 1286.85,-199.11 1361.52,-232.26 1640.5,-184 1725.86,-169.23 1775.6,-198.36 1827.5,-129 1846.99,-102.95 1808.42,-86.07 1771.16,-76.31"/>
<polygon fill="#63b8ff" stroke="#63b8ff" points="1771.79,-72.86 1761.24,-73.86 1770.11,-79.66 1771.79,-72.86"/>
</g>
<!-- Node42 -->
<g id="node37" class="node">
<title>Node42</title>
<g id="a_node37"><a xlink:title=" ">
<polygon fill="#e0e0e0" stroke="#999999" points="752.5,-184 704.5,-184 704.5,-165 752.5,-165 752.5,-184"/>
<text text-anchor="middle" x="728.5" y="-172" font-family="Helvetica,sans-Serif" font-size="10.00">mutex</text>
</a>
</g>
</g>
<!-- Node16&#45;&gt;Node42 -->
<g id="edge57" class="edge">
<title>Node16&#45;&gt;Node42</title>
<path fill="none" stroke="#63b8ff" d="M882.1,-219.98C849.5,-210.54 797,-195.34 762.62,-185.38"/>
<polygon fill="#63b8ff" stroke="#63b8ff" points="763.15,-181.89 752.57,-182.47 761.2,-188.62 763.15,-181.89"/>
</g>
<!-- Node43 -->
<g id="node38" class="node">
<title>Node43</title>
<g id="a_node38"><a xlink:title=" ">
<polygon fill="#e0e0e0" stroke="#999999" points="824.5,-184 770.5,-184 770.5,-165 824.5,-165 824.5,-184"/>
<text text-anchor="middle" x="797.5" y="-172" font-family="Helvetica,sans-Serif" font-size="10.00">random</text>
</a>
</g>
</g>
<!-- Node16&#45;&gt;Node43 -->
<g id="edge59" class="edge">
<title>Node16&#45;&gt;Node43</title>
<path fill="none" stroke="#63b8ff" d="M893.18,-219.98C874.84,-211.46 846.39,-198.23 825.27,-188.41"/>
<polygon fill="#63b8ff" stroke="#63b8ff" points="826.69,-185.21 816.15,-184.17 823.74,-191.56 826.69,-185.21"/>
</g>
<!-- Node16&#45;&gt;Node44 -->
<g id="edge61" class="edge">
<title>Node16&#45;&gt;Node44</title>
<path fill="none" stroke="#63b8ff" d="M957.35,-223.89C972.36,-222.49 989.13,-221.05 1004.5,-220 1355.16,-196 1446.12,-230.54 1794.5,-184 1795.97,-183.8 1797.46,-183.58 1798.96,-183.33"/>
<polygon fill="#63b8ff" stroke="#63b8ff" points="1799.73,-186.75 1808.9,-181.45 1798.42,-179.87 1799.73,-186.75"/>
</g>
<!-- Node45 -->
<g id="node40" class="node">
<title>Node45</title>
<g id="a_node40"><a xlink:title=" ">
<polygon fill="#e0e0e0" stroke="#999999" points="892.5,-184 842.5,-184 842.5,-165 892.5,-165 892.5,-184"/>
<text text-anchor="middle" x="867.5" y="-172" font-family="Helvetica,sans-Serif" font-size="10.00">atomic</text>
</a>
</g>
</g>
<!-- Node16&#45;&gt;Node45 -->
<g id="edge63" class="edge">
<title>Node16&#45;&gt;Node45</title>
<path fill="none" stroke="#63b8ff" d="M904.23,-219.75C897.96,-212.18 888.71,-201.05 881.07,-191.84"/>
<polygon fill="#63b8ff" stroke="#63b8ff" points="883.71,-189.55 874.63,-184.09 878.33,-194.02 883.71,-189.55"/>
</g>
<!-- Node46 -->
<g id="node41" class="node">
<title>Node46</title>
<g id="a_node41"><a xlink:title=" ">
<polygon fill="#e0e0e0" stroke="#999999" points="1000,-184 911,-184 911,-165 1000,-165 1000,-184"/>
<text text-anchor="middle" x="955.5" y="-172" font-family="Helvetica,sans-Serif" font-size="10.00">wx/wupdlock.h</text>
</a>
</g>
</g>
<!-- Node16&#45;&gt;Node46 -->
<g id="edge64" class="edge">
<title>Node16&#45;&gt;Node46</title>
<path fill="none" stroke="#63b8ff" d="M918.77,-219.75C925.04,-212.18 934.29,-201.05 941.93,-191.84"/>
<polygon fill="#63b8ff" stroke="#63b8ff" points="944.67,-194.02 948.37,-184.09 939.29,-189.55 944.67,-194.02"/>
</g>
<!-- Node22&#45;&gt;Node4 -->
<g id="edge26" class="edge">
<title>Node22&#45;&gt;Node4</title>
<path fill="none" stroke="#63b8ff" d="M707.09,-112.84C722.56,-111.88 738.5,-110.9 753.5,-110 1031.87,-93.35 1365.87,-74.93 1489.44,-68.17"/>
<polygon fill="#63b8ff" stroke="#63b8ff" points="1489.9,-71.65 1499.7,-67.61 1489.52,-64.66 1489.9,-71.65"/>
</g>
<!-- Node22&#45;&gt;Node8 -->
<g id="edge27" class="edge">
<title>Node22&#45;&gt;Node8</title>
<path fill="none" stroke="#63b8ff" d="M574.83,-109.99C532.3,-101.64 465.57,-88.37 398.44,-74.16"/>
<polygon fill="#63b8ff" stroke="#63b8ff" points="399.04,-70.71 388.53,-72.06 397.59,-77.56 399.04,-70.71"/>
</g>
<!-- Node24&#45;&gt;Node4 -->
<g id="edge29" class="edge">
<title>Node24&#45;&gt;Node4</title>
<path fill="none" stroke="#63b8ff" d="M1453.9,-164.92C1473.63,-158.08 1498.33,-146.67 1514.5,-129 1525.92,-116.51 1532.08,-98.05 1535.29,-84.25"/>
<polygon fill="#63b8ff" stroke="#63b8ff" points="1538.73,-84.88 1537.27,-74.38 1531.87,-83.5 1538.73,-84.88"/>
</g>
<!-- Node24&#45;&gt;Node11 -->
<g id="edge38" class="edge">
<title>Node24&#45;&gt;Node11</title>
<path fill="none" stroke="#63b8ff" d="M1374.32,-166.13C1371.34,-165.73 1368.38,-165.35 1365.5,-165 1198.43,-144.58 1150.53,-174.59 988.5,-129 969.94,-123.78 968.02,-115.36 949.5,-110 809.47,-69.48 767.75,-94.98 623.5,-74 619.75,-73.45 615.84,-72.83 611.95,-72.18"/>
<polygon fill="#63b8ff" stroke="#63b8ff" points="612.27,-68.68 601.82,-70.41 611.06,-75.58 612.27,-68.68"/>
</g>
<!-- Node24&#45;&gt;Node18 -->
<g id="edge35" class="edge">
<title>Node24&#45;&gt;Node18</title>
<path fill="none" stroke="#63b8ff" d="M1374.33,-166.04C1371.35,-165.67 1368.38,-165.31 1365.5,-165 1137.59,-140.19 1075.89,-158.11 844.85,-129.02"/>
<polygon fill="#63b8ff" stroke="#63b8ff" points="845.15,-125.53 834.79,-127.73 844.27,-132.47 845.15,-125.53"/>
</g>
<!-- Node24&#45;&gt;Node21 -->
<g id="edge32" class="edge">
<title>Node24&#45;&gt;Node21</title>
<path fill="none" stroke="#63b8ff" d="M1374.33,-166.11C1371.34,-165.71 1368.38,-165.34 1365.5,-165 1183.4,-143.47 1136.62,-150.3 954.5,-129 953.39,-128.87 952.26,-128.74 951.13,-128.6"/>
<polygon fill="#63b8ff" stroke="#63b8ff" points="951.16,-125.07 940.8,-127.26 950.27,-132.01 951.16,-125.07"/>
</g>
<!-- Node25 -->
<g id="node24" class="node">
<title>Node25</title>
<g id="a_node24"><a xlink:title=" ">
<polygon fill="#e0e0e0" stroke="#999999" points="1472.5,-129 1400.5,-129 1400.5,-110 1472.5,-110 1472.5,-129"/>
<text text-anchor="middle" x="1436.5" y="-117" font-family="Helvetica,sans-Serif" font-size="10.00">wx/colour.h</text>
</a>
</g>
</g>
<!-- Node24&#45;&gt;Node25 -->
<g id="edge30" class="edge">
<title>Node24&#45;&gt;Node25</title>
<path fill="none" stroke="#63b8ff" d="M1424.81,-164.75C1426.67,-157.72 1429.34,-147.62 1431.65,-138.84"/>
<polygon fill="#63b8ff" stroke="#63b8ff" points="1435.06,-139.65 1434.23,-129.09 1428.29,-137.86 1435.06,-139.65"/>
</g>
<!-- Node24&#45;&gt;Node26 -->
<g id="edge31" class="edge">
<title>Node24&#45;&gt;Node26</title>
<path fill="none" stroke="#63b8ff" d="M1470.63,-166.73C1549.82,-155.6 1705.25,-133.75 1770.05,-124.64"/>
<polygon fill="#63b8ff" stroke="#63b8ff" points="1770.94,-128.05 1780.35,-123.19 1769.96,-121.12 1770.94,-128.05"/>
</g>
<!-- Node27 -->
<g id="node26" class="node">
<title>Node27</title>
<g id="a_node26"><a xlink:title=" ">
<polygon fill="#e0e0e0" stroke="#999999" points="1610.5,-129 1566.5,-129 1566.5,-110 1610.5,-110 1610.5,-129"/>
<text text-anchor="middle" x="1588.5" y="-117" font-family="Helvetica,sans-Serif" font-size="10.00">string</text>
</a>
</g>
</g>
<!-- Node24&#45;&gt;Node27 -->
<g id="edge33" class="edge">
<title>Node24&#45;&gt;Node27</title>
<path fill="none" stroke="#63b8ff" d="M1449.17,-164.98C1478.4,-155.65 1525.28,-140.68 1556.48,-130.72"/>
<polygon fill="#63b8ff" stroke="#63b8ff" points="1557.95,-133.93 1566.41,-127.55 1555.82,-127.26 1557.95,-133.93"/>
</g>
<!-- Node28 -->
<g id="node27" class="node">
<title>Node28</title>
<g id="a_node27"><a xlink:title=" ">
<polygon fill="#e0e0e0" stroke="#999999" points="1686,-129 1629,-129 1629,-110 1686,-110 1686,-129"/>
<text text-anchor="middle" x="1657.5" y="-117" font-family="Helvetica,sans-Serif" font-size="10.00">ostream</text>
</a>
</g>
</g>
<!-- Node24&#45;&gt;Node28 -->
<g id="edge34" class="edge">
<title>Node24&#45;&gt;Node28</title>
<path fill="none" stroke="#63b8ff" d="M1460.26,-164.98C1503.74,-155.18 1574.81,-139.15 1618.72,-129.25"/>
<polygon fill="#63b8ff" stroke="#63b8ff" points="1619.74,-132.6 1628.72,-126.99 1618.2,-125.78 1619.74,-132.6"/>
</g>
<!-- Node29 -->
<g id="node28" class="node">
<title>Node29</title>
<g id="a_node28"><a xlink:title=" ">
<polygon fill="#e0e0e0" stroke="#999999" points="1262.5,-74 1200.5,-74 1200.5,-55 1262.5,-55 1262.5,-74"/>
<text text-anchor="middle" x="1231.5" y="-62" font-family="Helvetica,sans-Serif" font-size="10.00">wx/font.h</text>
</a>
</g>
</g>
<!-- Node24&#45;&gt;Node29 -->
<g id="edge36" class="edge">
<title>Node24&#45;&gt;Node29</title>
<path fill="none" stroke="#63b8ff" d="M1440.77,-164.92C1463.85,-152.96 1498.6,-130.42 1481.5,-110 1455.35,-78.79 1336.78,-69.45 1272.77,-66.67"/>
<polygon fill="#63b8ff" stroke="#63b8ff" points="1272.75,-63.17 1262.62,-66.26 1272.47,-70.16 1272.75,-63.17"/>
</g>
<!-- Node30 -->
<g id="node29" class="node">
<title>Node30</title>
<g id="a_node29"><a xlink:title=" ">
<polygon fill="#e0e0e0" stroke="#999999" points="1382.5,-129 1300.5,-129 1300.5,-110 1382.5,-110 1382.5,-129"/>
<text text-anchor="middle" x="1341.5" y="-117" font-family="Helvetica,sans-Serif" font-size="10.00">wx/settings.h</text>
</a>
</g>
</g>
<!-- Node24&#45;&gt;Node30 -->
<g id="edge37" class="edge">
<title>Node24&#45;&gt;Node30</title>
<path fill="none" stroke="#63b8ff" d="M1409.49,-164.98C1397.04,-156.84 1378.04,-144.41 1363.29,-134.76"/>
<polygon fill="#63b8ff" stroke="#63b8ff" points="1365.04,-131.72 1354.75,-129.17 1361.2,-137.57 1365.04,-131.72"/>
</g>
<!-- Node31 -->
<g id="node30" class="node">
<title>Node31</title>
<g id="a_node30"><a xlink:title=" ">
<polygon fill="#e0e0e0" stroke="#999999" points="1132,-74 1067,-74 1067,-55 1132,-55 1132,-74"/>
<text text-anchor="middle" x="1099.5" y="-62" font-family="Helvetica,sans-Serif" font-size="10.00">functional</text>
</a>
</g>
</g>
<!-- Node24&#45;&gt;Node31 -->
<g id="edge39" class="edge">
<title>Node24&#45;&gt;Node31</title>
<path fill="none" stroke="#63b8ff" d="M1374.29,-166.03C1301.72,-154.67 1171.83,-133.85 1162.5,-129 1141.28,-117.97 1122.79,-97.22 1111.42,-82.45"/>
<polygon fill="#63b8ff" stroke="#63b8ff" points="1114.06,-80.13 1105.31,-74.16 1108.43,-84.28 1114.06,-80.13"/>
</g>
<!-- Node32 -->
<g id="node31" class="node">
<title>Node32</title>
<g id="a_node31"><a xlink:href="FontAttribs_8h_source.html" target="_top" xlink:title=" ">
<polygon fill="#fff0f0" stroke="red" points="1076,-129 997,-129 997,-110 1076,-110 1076,-129"/>
<text text-anchor="middle" x="1036.5" y="-117" font-family="Helvetica,sans-Serif" font-size="10.00">FontAttribs.h</text>
</a>
</g>
</g>
<!-- Node24&#45;&gt;Node32 -->
<g id="edge40" class="edge">
<title>Node24&#45;&gt;Node32</title>
<path fill="none" stroke="#63b8ff" d="M1374.31,-166.25C1371.33,-165.82 1368.37,-165.4 1365.5,-165 1243.43,-147.91 1212.5,-146.58 1090.5,-129 1089.03,-128.79 1087.54,-128.57 1086.04,-128.35"/>
<polygon fill="#63b8ff" stroke="#63b8ff" points="1086.41,-124.87 1076,-126.84 1085.37,-131.79 1086.41,-124.87"/>
</g>
<!-- Node39 -->
<g id="node34" class="node">
<title>Node39</title>
<g id="a_node34"><a xlink:href="FontVariantCache_8h.html" target="_top" xlink:title="This file implements the wxFont cache system.">
<polygon fill="white" stroke="#666666" points="1282,-129 1171,-129 1171,-110 1282,-110 1282,-129"/>
<text text-anchor="middle" x="1226.5" y="-117" font-family="Helvetica,sans-Serif" font-size="10.00">FontVariantCache.h</text>
</a>
</g>
</g>
<!-- Node24&#45;&gt;Node39 -->
<g id="edge46" class="edge">
<title>Node24&#45;&gt;Node39</title>
<path fill="none" stroke="#63b8ff" d="M1391.01,-164.98C1357.68,-155.97 1304.9,-141.7 1268.15,-131.76"/>
<polygon fill="#63b8ff" stroke="#63b8ff" points="1268.8,-128.31 1258.24,-129.08 1266.98,-135.07 1268.8,-128.31"/>
</g>
<!-- Node24&#45;&gt;Node41 -->
<g id="edge54" class="edge">
<title>Node24&#45;&gt;Node41</title>
<path fill="none" stroke="#63b8ff" d="M1470.66,-171.67C1539.9,-168.05 1662.85,-157.68 1695.5,-129 1708.05,-117.97 1712.48,-99.03 1713.96,-84.7"/>
<polygon fill="#63b8ff" stroke="#63b8ff" points="1717.47,-84.63 1714.61,-74.43 1710.48,-84.18 1717.47,-84.63"/>
</g>
<!-- Node32&#45;&gt;Node11 -->
<g id="edge43" class="edge">
<title>Node32&#45;&gt;Node11</title>
<path fill="none" stroke="#63b8ff" d="M996.72,-111.98C991.94,-111.27 987.11,-110.59 982.5,-110 823.46,-89.52 782.3,-96.29 623.5,-74 619.75,-73.47 615.84,-72.86 611.95,-72.22"/>
<polygon fill="#63b8ff" stroke="#63b8ff" points="612.26,-68.72 601.81,-70.46 611.06,-75.62 612.26,-68.72"/>
</g>
<!-- Node32&#45;&gt;Node29 -->
<g id="edge41" class="edge">
<title>Node32&#45;&gt;Node29</title>
<path fill="none" stroke="#63b8ff" d="M1067.83,-109.98C1101.09,-100.94 1153.81,-86.62 1190.39,-76.67"/>
<polygon fill="#63b8ff" stroke="#63b8ff" points="1191.52,-79.99 1200.25,-73.99 1189.68,-73.24 1191.52,-79.99"/>
</g>
<!-- Node32&#45;&gt;Node31 -->
<g id="edge44" class="edge">
<title>Node32&#45;&gt;Node31</title>
<path fill="none" stroke="#63b8ff" d="M1046.62,-109.98C1055.94,-102.15 1069.97,-90.34 1081.24,-80.86"/>
<polygon fill="#63b8ff" stroke="#63b8ff" points="1083.79,-83.29 1089.19,-74.17 1079.29,-77.93 1083.79,-83.29"/>
</g>
<!-- Node32&#45;&gt;Node37 -->
<g id="edge42" class="edge">
<title>Node32&#45;&gt;Node37</title>
<path fill="none" stroke="#63b8ff" d="M996.71,-111.52C939.59,-101.49 834.85,-83.11 776.52,-72.87"/>
<polygon fill="#63b8ff" stroke="#63b8ff" points="776.99,-69.4 766.54,-71.12 775.78,-76.3 776.99,-69.4"/>
</g>
<!-- Node38 -->
<g id="node33" class="node">
<title>Node38</title>
<g id="a_node33"><a xlink:title=" ">
<polygon fill="#e0e0e0" stroke="#999999" points="450.5,-74 406.5,-74 406.5,-55 450.5,-55 450.5,-74"/>
<text text-anchor="middle" x="428.5" y="-62" font-family="Helvetica,sans-Serif" font-size="10.00">limits</text>
</a>
</g>
</g>
<!-- Node32&#45;&gt;Node38 -->
<g id="edge45" class="edge">
<title>Node32&#45;&gt;Node38</title>
<path fill="none" stroke="#63b8ff" d="M996.67,-114.41C981.87,-112.94 964.92,-111.32 949.5,-110 735.22,-91.66 676.47,-110.46 460.79,-73.88"/>
<polygon fill="#63b8ff" stroke="#63b8ff" points="461.18,-70.39 450.73,-72.15 460,-77.29 461.18,-70.39"/>
</g>
<!-- Node39&#45;&gt;Node4 -->
<g id="edge47" class="edge">
<title>Node39&#45;&gt;Node4</title>
<path fill="none" stroke="#63b8ff" d="M1276.63,-109.98C1335.29,-100.02 1431.77,-83.63 1489.81,-73.77"/>
<polygon fill="#63b8ff" stroke="#63b8ff" points="1490.56,-77.19 1499.83,-72.07 1489.38,-70.29 1490.56,-77.19"/>
</g>
<!-- Node39&#45;&gt;Node9 -->
<g id="edge52" class="edge">
<title>Node39&#45;&gt;Node9</title>
<path fill="none" stroke="#63b8ff" d="M1170.81,-114.82C1053.52,-106.91 784.37,-87.89 693.5,-74 691.8,-73.74 690.06,-73.45 688.31,-73.13"/>
<polygon fill="#63b8ff" stroke="#63b8ff" points="688.8,-69.66 678.31,-71.13 687.43,-76.53 688.8,-69.66"/>
</g>
<!-- Node39&#45;&gt;Node13 -->
<g id="edge48" class="edge">
<title>Node39&#45;&gt;Node13</title>
<path fill="none" stroke="#63b8ff" d="M1170.9,-115.07C1013.39,-105.32 573.47,-77.92 542.5,-74 540.76,-73.78 539,-73.54 537.21,-73.27"/>
<polygon fill="#63b8ff" stroke="#63b8ff" points="537.38,-69.75 526.95,-71.59 536.25,-76.66 537.38,-69.75"/>
</g>
<!-- Node39&#45;&gt;Node29 -->
<g id="edge49" class="edge">
<title>Node39&#45;&gt;Node29</title>
<path fill="none" stroke="#63b8ff" d="M1227.33,-109.75C1227.98,-102.8 1228.92,-92.85 1229.74,-84.13"/>
<polygon fill="#63b8ff" stroke="#63b8ff" points="1233.23,-84.37 1230.69,-74.09 1226.27,-83.72 1233.23,-84.37"/>
</g>
<!-- Node39&#45;&gt;Node31 -->
<g id="edge50" class="edge">
<title>Node39&#45;&gt;Node31</title>
<path fill="none" stroke="#63b8ff" d="M1206.1,-109.98C1185.48,-101.38 1153.39,-87.99 1129.81,-78.15"/>
<polygon fill="#63b8ff" stroke="#63b8ff" points="1130.85,-74.79 1120.28,-74.17 1128.16,-81.25 1130.85,-74.79"/>
</g>
<!-- Node39&#45;&gt;Node40 -->
<g id="edge51" class="edge">
<title>Node39&#45;&gt;Node40</title>
<path fill="none" stroke="#63b8ff" d="M1216.86,-109.98C1207.99,-102.15 1194.63,-90.34 1183.89,-80.86"/>
<polygon fill="#63b8ff" stroke="#63b8ff" points="1186.13,-78.17 1176.32,-74.17 1181.49,-83.41 1186.13,-78.17"/>
</g>
<!-- Node39&#45;&gt;Node41 -->
<g id="edge53" class="edge">
<title>Node39&#45;&gt;Node41</title>
<path fill="none" stroke="#63b8ff" d="M1282.16,-111.13C1285.32,-110.74 1288.45,-110.36 1291.5,-110 1422.48,-94.55 1576.6,-79 1657.81,-71.01"/>
<polygon fill="#63b8ff" stroke="#63b8ff" points="1658.22,-74.48 1667.83,-70.02 1657.53,-67.52 1658.22,-74.48"/>
</g>
<!-- Node48 -->
<g id="node43" class="node">
<title>Node48</title>
<g id="a_node43"><a xlink:title=" ">
<polygon fill="#e0e0e0" stroke="#999999" points="1984,-184 1913,-184 1913,-165 1984,-165 1984,-184"/>
<text text-anchor="middle" x="1948.5" y="-172" font-family="Helvetica,sans-Serif" font-size="10.00">wx/string.h</text>
</a>
</g>
</g>
<!-- Node47&#45;&gt;Node48 -->
<g id="edge66" class="edge">
<title>Node47&#45;&gt;Node48</title>
<path fill="none" stroke="#63b8ff" d="M1951,-219.75C1950.61,-212.8 1950.05,-202.85 1949.55,-194.13"/>
<polygon fill="#63b8ff" stroke="#63b8ff" points="1953.05,-193.88 1948.99,-184.09 1946.06,-194.27 1953.05,-193.88"/>
</g>
<!-- Node49 -->
<g id="node44" class="node">
<title>Node49</title>
<g id="a_node44"><a xlink:title=" ">
<polygon fill="#e0e0e0" stroke="#999999" points="2097,-184 2002,-184 2002,-165 2097,-165 2097,-184"/>
<text text-anchor="middle" x="2049.5" y="-172" font-family="Helvetica,sans-Serif" font-size="10.00">wx/translation.h</text>
</a>
</g>
</g>
<!-- Node47&#45;&gt;Node49 -->
<g id="edge67" class="edge">
<title>Node47&#45;&gt;Node49</title>
<path fill="none" stroke="#63b8ff" d="M1967.25,-219.98C1982.73,-211.61 2006.59,-198.7 2024.64,-188.95"/>
<polygon fill="#63b8ff" stroke="#63b8ff" points="2026.34,-192.01 2033.47,-184.17 2023.01,-185.85 2026.34,-192.01"/>
</g>
<!-- Node50&#45;&gt;Node7 -->
<g id="edge70" class="edge">
<title>Node50&#45;&gt;Node7</title>
<path fill="none" stroke="#63b8ff" d="M189.81,-109.98C177.67,-101.84 159.14,-89.41 144.75,-79.76"/>
<polygon fill="#63b8ff" stroke="#63b8ff" points="146.68,-76.84 136.42,-74.17 142.78,-82.65 146.68,-76.84"/>
</g>
<!-- Node50&#45;&gt;Node8 -->
<g id="edge71" class="edge">
<title>Node50&#45;&gt;Node8</title>
<path fill="none" stroke="#63b8ff" d="M227.72,-109.98C253.86,-101.16 294.9,-87.31 324.23,-77.41"/>
<polygon fill="#63b8ff" stroke="#63b8ff" points="325.72,-80.6 334.08,-74.08 323.48,-73.96 325.72,-80.6"/>
</g>
<!-- Node50&#45;&gt;Node14 -->
<g id="edge73" class="edge">
<title>Node50&#45;&gt;Node14</title>
<path fill="none" stroke="#63b8ff" d="M175.51,-109.98C147.3,-101.09 102.86,-87.07 71.42,-77.15"/>
<polygon fill="#63b8ff" stroke="#63b8ff" points="72.29,-73.75 61.7,-74.08 70.19,-80.43 72.29,-73.75"/>
</g>
<!-- Node50&#45;&gt;Node38 -->
<g id="edge72" class="edge">
<title>Node50&#45;&gt;Node38</title>
<path fill="none" stroke="#63b8ff" d="M242.21,-109.97C279.61,-101.81 337.45,-88.9 396.34,-74.21"/>
<polygon fill="#63b8ff" stroke="#63b8ff" points="397.33,-77.57 406.18,-71.74 395.63,-70.78 397.33,-77.57"/>
</g>
<!-- Node52&#45;&gt;Node3 -->
<g id="edge81" class="edge">
<title>Node52&#45;&gt;Node3</title>
<path fill="none" stroke="#63b8ff" d="M739.35,-384.66C747.03,-367.01 764.4,-327.09 774.61,-303.64"/>
<polygon fill="#63b8ff" stroke="#63b8ff" points="777.95,-304.72 778.73,-294.16 771.53,-301.93 777.95,-304.72"/>
</g>
<!-- Node52&#45;&gt;Node53 -->
<g id="edge82" class="edge">
<title>Node52&#45;&gt;Node53</title>
<path fill="none" stroke="#63b8ff" d="M728.89,-384.75C723.24,-377.26 714.96,-366.28 708.05,-357.13"/>
<polygon fill="#63b8ff" stroke="#63b8ff" points="710.8,-354.96 701.98,-349.09 705.21,-359.18 710.8,-354.96"/>
</g>
<!-- Node53&#45;&gt;Node3 -->
<g id="edge84" class="edge">
<title>Node53&#45;&gt;Node3</title>
<path fill="none" stroke="#63b8ff" d="M709.48,-329.98C722.97,-321.77 743.63,-309.18 759.54,-299.49"/>
<polygon fill="#63b8ff" stroke="#63b8ff" points="761.55,-302.36 768.27,-294.17 757.91,-296.38 761.55,-302.36"/>
</g>
<!-- Node54 -->
<g id="node49" class="node">
<title>Node54</title>
<g id="a_node49"><a xlink:title=" ">
<polygon fill="#e0e0e0" stroke="#999999" points="731,-294 660,-294 660,-275 731,-275 731,-294"/>
<text text-anchor="middle" x="695.5" y="-282" font-family="Helvetica,sans-Serif" font-size="10.00">wx/regex.h</text>
</a>
</g>
</g>
<!-- Node53&#45;&gt;Node54 -->
<g id="edge83" class="edge">
<title>Node53&#45;&gt;Node54</title>
<path fill="none" stroke="#63b8ff" d="M695.5,-329.75C695.5,-322.8 695.5,-312.85 695.5,-304.13"/>
<polygon fill="#63b8ff" stroke="#63b8ff" points="699,-304.09 695.5,-294.09 692,-304.09 699,-304.09"/>
</g>
<!-- Node55&#45;&gt;Node13 -->
<g id="edge87" class="edge">
<title>Node55&#45;&gt;Node13</title>
<path fill="none" stroke="#63b8ff" d="M497.49,-388.9C445.52,-379.58 350.5,-353.28 350.5,-285.5 350.5,-285.5 350.5,-285.5 350.5,-173.5 350.5,-119.74 415.15,-89.78 458.7,-75.7"/>
<polygon fill="#63b8ff" stroke="#63b8ff" points="459.93,-78.99 468.46,-72.7 457.87,-72.3 459.93,-78.99"/>
</g>
</g>
</svg>
