<?xml version="1.0" encoding="UTF-8" standalone="no"?>
<!DOCTYPE svg PUBLIC "-//W3C//DTD SVG 1.1//EN"
 "http://www.w3.org/Graphics/SVG/1.1/DTD/svg11.dtd">
<!-- Generated by graphviz version 2.43.0 (0)
 -->
<!-- Title: src/sidebars/StatSidebar.cpp Pages: 1 -->
<svg width="1884pt" height="467pt"
 viewBox="0.00 0.00 1883.50 467.00" xmlns="http://www.w3.org/2000/svg" xmlns:xlink="http://www.w3.org/1999/xlink">
<g id="graph0" class="graph" transform="scale(1 1) rotate(0) translate(4 463)">
<title>src/sidebars/StatSidebar.cpp</title>
<!-- Node1 -->
<g id="node1" class="node">
<title>Node1</title>
<g id="a_node1"><a xlink:title="This file defines the class StatSidebar.">
<polygon fill="#999999" stroke="#666666" points="462.5,-459 308.5,-459 308.5,-440 462.5,-440 462.5,-459"/>
<text text-anchor="middle" x="385.5" y="-447" font-family="Helvetica,sans-Serif" font-size="10.00">src/sidebars/StatSidebar.cpp</text>
</a>
</g>
</g>
<!-- Node2 -->
<g id="node2" class="node">
<title>Node2</title>
<g id="a_node2"><a xlink:href="StatSidebar_8h.html" target="_top" xlink:title="This file declares the class StatSidebar, that provides some statistics buttons.">
<polygon fill="white" stroke="#666666" points="165,-349 84,-349 84,-330 165,-330 165,-349"/>
<text text-anchor="middle" x="124.5" y="-337" font-family="Helvetica,sans-Serif" font-size="10.00">StatSidebar.h</text>
</a>
</g>
</g>
<!-- Node1&#45;&gt;Node2 -->
<g id="edge1" class="edge">
<title>Node1&#45;&gt;Node2</title>
<path fill="none" stroke="#63b8ff" d="M360.04,-439.87C335.21,-431.3 296.46,-417.51 263.5,-404 223.98,-387.79 179.18,-366.85 151.38,-353.54"/>
<polygon fill="#63b8ff" stroke="#63b8ff" points="152.82,-350.35 142.3,-349.18 149.79,-356.66 152.82,-350.35"/>
</g>
<!-- Node12 -->
<g id="node12" class="node">
<title>Node12</title>
<g id="a_node12"><a xlink:href="ButtonWrapSizer_8h.html" target="_top" xlink:title="This file contains the definition of the class Buttonwrapsizer that allows to select arbitrary unicod...">
<polygon fill="white" stroke="#666666" points="380,-404 273,-404 273,-385 380,-385 380,-404"/>
<text text-anchor="middle" x="326.5" y="-392" font-family="Helvetica,sans-Serif" font-size="10.00">ButtonWrapSizer.h</text>
</a>
</g>
</g>
<!-- Node1&#45;&gt;Node12 -->
<g id="edge12" class="edge">
<title>Node1&#45;&gt;Node12</title>
<path fill="none" stroke="#63b8ff" d="M376.02,-439.98C367.3,-432.15 354.16,-420.34 343.6,-410.86"/>
<polygon fill="#63b8ff" stroke="#63b8ff" points="345.93,-408.25 336.15,-404.17 341.25,-413.46 345.93,-408.25"/>
</g>
<!-- Node15 -->
<g id="node15" class="node">
<title>Node15</title>
<g id="a_node15"><a xlink:title=" ">
<polygon fill="#e0e0e0" stroke="#999999" points="491,-404 398,-404 398,-385 491,-385 491,-404"/>
<text text-anchor="middle" x="444.5" y="-392" font-family="Helvetica,sans-Serif" font-size="10.00">wx/windowptr.h</text>
</a>
</g>
</g>
<!-- Node1&#45;&gt;Node15 -->
<g id="edge16" class="edge">
<title>Node1&#45;&gt;Node15</title>
<path fill="none" stroke="#63b8ff" d="M394.98,-439.98C403.7,-432.15 416.84,-420.34 427.4,-410.86"/>
<polygon fill="#63b8ff" stroke="#63b8ff" points="429.75,-413.46 434.85,-404.17 425.07,-408.25 429.75,-413.46"/>
</g>
<!-- Node16 -->
<g id="node16" class="node">
<title>Node16</title>
<g id="a_node16"><a xlink:href="Gen1Wiz_8h_source.html" target="_top" xlink:title=" ">
<polygon fill="white" stroke="#666666" points="648.5,-404 538.5,-404 538.5,-385 648.5,-385 648.5,-404"/>
<text text-anchor="middle" x="593.5" y="-392" font-family="Helvetica,sans-Serif" font-size="10.00">wizards/Gen1Wiz.h</text>
</a>
</g>
</g>
<!-- Node1&#45;&gt;Node16 -->
<g id="edge17" class="edge">
<title>Node1&#45;&gt;Node16</title>
<path fill="none" stroke="#63b8ff" d="M418.92,-439.98C454.44,-430.93 510.77,-416.58 549.8,-406.64"/>
<polygon fill="#63b8ff" stroke="#63b8ff" points="550.99,-409.94 559.82,-404.08 549.26,-403.16 550.99,-409.94"/>
</g>
<!-- Node3 -->
<g id="node3" class="node">
<title>Node3</title>
<g id="a_node3"><a xlink:href="precomp_8h_source.html" target="_top" xlink:title=" ">
<polygon fill="white" stroke="#666666" points="604.5,-74 536.5,-74 536.5,-55 604.5,-55 604.5,-74"/>
<text text-anchor="middle" x="570.5" y="-62" font-family="Helvetica,sans-Serif" font-size="10.00">precomp.h</text>
</a>
</g>
</g>
<!-- Node2&#45;&gt;Node3 -->
<g id="edge2" class="edge">
<title>Node2&#45;&gt;Node3</title>
<path fill="none" stroke="#63b8ff" d="M165.28,-331.24C226.3,-320.21 334.95,-299.91 341.5,-294 363.47,-274.18 361.5,-260.09 361.5,-230.5 361.5,-230.5 361.5,-230.5 361.5,-173.5 361.5,-143.33 362.87,-129.96 385.5,-110 424.33,-75.76 484.95,-66.76 526.13,-64.94"/>
<polygon fill="#63b8ff" stroke="#63b8ff" points="526.27,-68.43 536.15,-64.62 526.05,-61.44 526.27,-68.43"/>
</g>
<!-- Node5 -->
<g id="node5" class="node">
<title>Node5</title>
<g id="a_node5"><a xlink:title=" ">
<polygon fill="#e0e0e0" stroke="#999999" points="523,-239 466,-239 466,-220 523,-220 523,-239"/>
<text text-anchor="middle" x="494.5" y="-227" font-family="Helvetica,sans-Serif" font-size="10.00">wx/wx.h</text>
</a>
</g>
</g>
<!-- Node2&#45;&gt;Node5 -->
<g id="edge4" class="edge">
<title>Node2&#45;&gt;Node5</title>
<path fill="none" stroke="#63b8ff" d="M165.17,-331.37C235.6,-319.02 373.01,-294.86 375.5,-294 411.49,-281.56 449.77,-259.31 472.91,-244.72"/>
<polygon fill="#63b8ff" stroke="#63b8ff" points="475.03,-247.52 481.57,-239.18 471.26,-241.62 475.03,-247.52"/>
</g>
<!-- Node6 -->
<g id="node6" class="node">
<title>Node6</title>
<g id="a_node6"><a xlink:title=" ">
<polygon fill="#e0e0e0" stroke="#999999" points="245.5,-294 171.5,-294 171.5,-275 245.5,-275 245.5,-294"/>
<text text-anchor="middle" x="208.5" y="-282" font-family="Helvetica,sans-Serif" font-size="10.00">wx/button.h</text>
</a>
</g>
</g>
<!-- Node2&#45;&gt;Node6 -->
<g id="edge5" class="edge">
<title>Node2&#45;&gt;Node6</title>
<path fill="none" stroke="#63b8ff" d="M138,-329.98C150.9,-321.84 170.6,-309.41 185.9,-299.76"/>
<polygon fill="#63b8ff" stroke="#63b8ff" points="188.17,-302.47 194.76,-294.17 184.43,-296.55 188.17,-302.47"/>
</g>
<!-- Node7 -->
<g id="node7" class="node">
<title>Node7</title>
<g id="a_node7"><a xlink:href="EventIDs_8h.html" target="_top" xlink:title="This file declares the class EventIDs that contains unique IDs for many events wxMaxima needs.">
<polygon fill="white" stroke="#666666" points="333,-294 264,-294 264,-275 333,-275 333,-294"/>
<text text-anchor="middle" x="298.5" y="-282" font-family="Helvetica,sans-Serif" font-size="10.00">EventIDs.h</text>
</a>
</g>
</g>
<!-- Node2&#45;&gt;Node7 -->
<g id="edge6" class="edge">
<title>Node2&#45;&gt;Node7</title>
<path fill="none" stroke="#63b8ff" d="M152.46,-329.98C181.8,-321.05 228.1,-306.94 260.69,-297.02"/>
<polygon fill="#63b8ff" stroke="#63b8ff" points="261.78,-300.34 270.32,-294.08 259.74,-293.65 261.78,-300.34"/>
</g>
<!-- Node10 -->
<g id="node10" class="node">
<title>Node10</title>
<g id="a_node10"><a xlink:title=" ">
<polygon fill="#e0e0e0" stroke="#999999" points="65,-294 0,-294 0,-275 65,-275 65,-294"/>
<text text-anchor="middle" x="32.5" y="-282" font-family="Helvetica,sans-Serif" font-size="10.00">wx/sizer.h</text>
</a>
</g>
</g>
<!-- Node2&#45;&gt;Node10 -->
<g id="edge10" class="edge">
<title>Node2&#45;&gt;Node10</title>
<path fill="none" stroke="#63b8ff" d="M109.72,-329.98C95.32,-321.69 73.19,-308.94 56.31,-299.22"/>
<polygon fill="#63b8ff" stroke="#63b8ff" points="57.96,-296.13 47.55,-294.17 54.47,-302.19 57.96,-296.13"/>
</g>
<!-- Node11 -->
<g id="node11" class="node">
<title>Node11</title>
<g id="a_node11"><a xlink:title=" ">
<polygon fill="#e0e0e0" stroke="#999999" points="153.5,-294 83.5,-294 83.5,-275 153.5,-275 153.5,-294"/>
<text text-anchor="middle" x="118.5" y="-282" font-family="Helvetica,sans-Serif" font-size="10.00">wx/panel.h</text>
</a>
</g>
</g>
<!-- Node2&#45;&gt;Node11 -->
<g id="edge11" class="edge">
<title>Node2&#45;&gt;Node11</title>
<path fill="none" stroke="#63b8ff" d="M123.51,-329.75C122.72,-322.8 121.6,-312.85 120.61,-304.13"/>
<polygon fill="#63b8ff" stroke="#63b8ff" points="124.08,-303.63 119.47,-294.09 117.12,-304.42 124.08,-303.63"/>
</g>
<!-- Node4 -->
<g id="node4" class="node">
<title>Node4</title>
<g id="a_node4"><a xlink:title=" ">
<polygon fill="#e0e0e0" stroke="#999999" points="611,-19 530,-19 530,0 611,0 611,-19"/>
<text text-anchor="middle" x="570.5" y="-7" font-family="Helvetica,sans-Serif" font-size="10.00">BuildConfig.h</text>
</a>
</g>
</g>
<!-- Node3&#45;&gt;Node4 -->
<g id="edge3" class="edge">
<title>Node3&#45;&gt;Node4</title>
<path fill="none" stroke="#63b8ff" d="M570.5,-54.75C570.5,-47.8 570.5,-37.85 570.5,-29.13"/>
<polygon fill="#63b8ff" stroke="#63b8ff" points="574,-29.09 570.5,-19.09 567,-29.09 574,-29.09"/>
</g>
<!-- Node7&#45;&gt;Node5 -->
<g id="edge8" class="edge">
<title>Node7&#45;&gt;Node5</title>
<path fill="none" stroke="#63b8ff" d="M329.99,-274.98C364.31,-265.7 419.24,-250.85 456.08,-240.89"/>
<polygon fill="#63b8ff" stroke="#63b8ff" points="457.22,-244.21 465.96,-238.22 455.39,-237.45 457.22,-244.21"/>
</g>
<!-- Node8 -->
<g id="node8" class="node">
<title>Node8</title>
<g id="a_node8"><a xlink:title=" ">
<polygon fill="#e0e0e0" stroke="#999999" points="326.5,-239 284.5,-239 284.5,-220 326.5,-220 326.5,-239"/>
<text text-anchor="middle" x="305.5" y="-227" font-family="Helvetica,sans-Serif" font-size="10.00">array</text>
</a>
</g>
</g>
<!-- Node7&#45;&gt;Node8 -->
<g id="edge7" class="edge">
<title>Node7&#45;&gt;Node8</title>
<path fill="none" stroke="#63b8ff" d="M299.66,-274.75C300.57,-267.8 301.89,-257.85 303.04,-249.13"/>
<polygon fill="#63b8ff" stroke="#63b8ff" points="306.53,-249.46 304.37,-239.09 299.59,-248.54 306.53,-249.46"/>
</g>
<!-- Node9 -->
<g id="node9" class="node">
<title>Node9</title>
<g id="a_node9"><a xlink:title=" ">
<polygon fill="#e0e0e0" stroke="#999999" points="267,-239 178,-239 178,-220 267,-220 267,-239"/>
<text text-anchor="middle" x="222.5" y="-227" font-family="Helvetica,sans-Serif" font-size="10.00">wx/windowid.h</text>
</a>
</g>
</g>
<!-- Node7&#45;&gt;Node9 -->
<g id="edge9" class="edge">
<title>Node7&#45;&gt;Node9</title>
<path fill="none" stroke="#63b8ff" d="M286.29,-274.98C274.72,-266.92 257.12,-254.65 243.34,-245.03"/>
<polygon fill="#63b8ff" stroke="#63b8ff" points="245.14,-242.02 234.93,-239.17 241.13,-247.76 245.14,-242.02"/>
</g>
<!-- Node12&#45;&gt;Node3 -->
<g id="edge14" class="edge">
<title>Node12&#45;&gt;Node3</title>
<path fill="none" stroke="#63b8ff" d="M340.61,-384.95C352.58,-377.03 369.36,-364.19 379.5,-349 395.93,-324.39 399.5,-315.09 399.5,-285.5 399.5,-285.5 399.5,-285.5 399.5,-173.5 399.5,-113.42 475.88,-85.41 526.55,-73.43"/>
<polygon fill="#63b8ff" stroke="#63b8ff" points="527.31,-76.85 536.31,-71.25 525.78,-70.02 527.31,-76.85"/>
</g>
<!-- Node13 -->
<g id="node13" class="node">
<title>Node13</title>
<g id="a_node13"><a xlink:title=" ">
<polygon fill="#e0e0e0" stroke="#999999" points="264,-349 183,-349 183,-330 264,-330 264,-349"/>
<text text-anchor="middle" x="223.5" y="-337" font-family="Helvetica,sans-Serif" font-size="10.00">wx/stattext.h</text>
</a>
</g>
</g>
<!-- Node12&#45;&gt;Node13 -->
<g id="edge13" class="edge">
<title>Node12&#45;&gt;Node13</title>
<path fill="none" stroke="#63b8ff" d="M309.95,-384.98C293.61,-376.57 268.37,-363.59 249.37,-353.81"/>
<polygon fill="#63b8ff" stroke="#63b8ff" points="250.84,-350.63 240.35,-349.17 247.64,-356.86 250.84,-350.63"/>
</g>
<!-- Node14 -->
<g id="node14" class="node">
<title>Node14</title>
<g id="a_node14"><a xlink:title=" ">
<polygon fill="#e0e0e0" stroke="#999999" points="371,-349 282,-349 282,-330 371,-330 371,-349"/>
<text text-anchor="middle" x="326.5" y="-337" font-family="Helvetica,sans-Serif" font-size="10.00">wx/wrapsizer.h</text>
</a>
</g>
</g>
<!-- Node12&#45;&gt;Node14 -->
<g id="edge15" class="edge">
<title>Node12&#45;&gt;Node14</title>
<path fill="none" stroke="#63b8ff" d="M326.5,-384.75C326.5,-377.8 326.5,-367.85 326.5,-359.13"/>
<polygon fill="#63b8ff" stroke="#63b8ff" points="330,-359.09 326.5,-349.09 323,-359.09 330,-359.09"/>
</g>
<!-- Node16&#45;&gt;Node3 -->
<g id="edge18" class="edge">
<title>Node16&#45;&gt;Node3</title>
<path fill="none" stroke="#63b8ff" d="M600.65,-384.97C607.27,-376.48 616.65,-362.75 620.5,-349 622.77,-340.87 621.96,-338.32 620.5,-330 608.54,-262.01 580.69,-251.76 567.5,-184 562.83,-159.99 565.94,-153.46 565.5,-129 565.35,-120.56 565.03,-118.43 565.5,-110 565.98,-101.45 566.97,-92.03 567.95,-84.06"/>
<polygon fill="#63b8ff" stroke="#63b8ff" points="571.43,-84.38 569.26,-74.01 564.49,-83.47 571.43,-84.38"/>
</g>
<!-- Node16&#45;&gt;Node5 -->
<g id="edge19" class="edge">
<title>Node16&#45;&gt;Node5</title>
<path fill="none" stroke="#63b8ff" d="M597.99,-384.9C603.91,-372.32 612.67,-348.41 604.5,-330 587.21,-291.05 546.31,-260.88 519.55,-244.41"/>
<polygon fill="#63b8ff" stroke="#63b8ff" points="521.11,-241.27 510.73,-239.17 517.53,-247.29 521.11,-241.27"/>
</g>
<!-- Node17 -->
<g id="node17" class="node">
<title>Node17</title>
<g id="a_node17"><a xlink:title=" ">
<polygon fill="#e0e0e0" stroke="#999999" points="595.5,-349 515.5,-349 515.5,-330 595.5,-330 595.5,-349"/>
<text text-anchor="middle" x="555.5" y="-337" font-family="Helvetica,sans-Serif" font-size="10.00">wx/statline.h</text>
</a>
</g>
</g>
<!-- Node16&#45;&gt;Node17 -->
<g id="edge20" class="edge">
<title>Node16&#45;&gt;Node17</title>
<path fill="none" stroke="#63b8ff" d="M587.23,-384.75C581.91,-377.34 574.14,-366.5 567.62,-357.41"/>
<polygon fill="#63b8ff" stroke="#63b8ff" points="570.33,-355.18 561.66,-349.09 564.64,-359.26 570.33,-355.18"/>
</g>
<!-- Node18 -->
<g id="node18" class="node">
<title>Node18</title>
<g id="a_node18"><a xlink:title=" ">
<polygon fill="#e0e0e0" stroke="#999999" points="1457,-74 1392,-74 1392,-55 1457,-55 1457,-74"/>
<text text-anchor="middle" x="1424.5" y="-62" font-family="Helvetica,sans-Serif" font-size="10.00">functional</text>
</a>
</g>
</g>
<!-- Node16&#45;&gt;Node18 -->
<g id="edge21" class="edge">
<title>Node16&#45;&gt;Node18</title>
<path fill="none" stroke="#63b8ff" d="M648.76,-391.41C882.83,-382.19 1780.5,-343.08 1780.5,-285.5 1780.5,-285.5 1780.5,-285.5 1780.5,-173.5 1780.5,-139.91 1767.89,-127.97 1739.5,-110 1638.82,-46.27 1589.83,-91.61 1467.15,-73.89"/>
<polygon fill="#63b8ff" stroke="#63b8ff" points="1467.44,-70.39 1457.02,-72.31 1466.36,-77.31 1467.44,-70.39"/>
</g>
<!-- Node19 -->
<g id="node19" class="node">
<title>Node19</title>
<g id="a_node19"><a xlink:href="BTextCtrl_8h_source.html" target="_top" xlink:title=" ">
<polygon fill="white" stroke="#666666" points="497.5,-349 427.5,-349 427.5,-330 497.5,-330 497.5,-349"/>
<text text-anchor="middle" x="462.5" y="-337" font-family="Helvetica,sans-Serif" font-size="10.00">BTextCtrl.h</text>
</a>
</g>
</g>
<!-- Node16&#45;&gt;Node19 -->
<g id="edge22" class="edge">
<title>Node16&#45;&gt;Node19</title>
<path fill="none" stroke="#63b8ff" d="M572.45,-384.98C551.09,-376.34 517.8,-362.87 493.44,-353.02"/>
<polygon fill="#63b8ff" stroke="#63b8ff" points="494.51,-349.68 483.93,-349.17 491.89,-356.17 494.51,-349.68"/>
</g>
<!-- Node19&#45;&gt;Node3 -->
<g id="edge23" class="edge">
<title>Node19&#45;&gt;Node3</title>
<path fill="none" stroke="#63b8ff" d="M459.13,-329.98C452.3,-311.93 437.5,-268.41 437.5,-230.5 437.5,-230.5 437.5,-230.5 437.5,-173.5 437.5,-123.87 494,-93.05 533.35,-77.61"/>
<polygon fill="#63b8ff" stroke="#63b8ff" points="534.81,-80.8 542.94,-74.02 532.35,-74.25 534.81,-80.8"/>
</g>
<!-- Node19&#45;&gt;Node5 -->
<g id="edge24" class="edge">
<title>Node19&#45;&gt;Node5</title>
<path fill="none" stroke="#63b8ff" d="M469.41,-329.9C475.86,-321.35 485.12,-307.59 489.5,-294 494.13,-279.66 495.24,-262.59 495.28,-249.76"/>
<polygon fill="#63b8ff" stroke="#63b8ff" points="498.77,-249.3 495.07,-239.38 491.77,-249.44 498.77,-249.3"/>
</g>
<!-- Node20 -->
<g id="node20" class="node">
<title>Node20</title>
<g id="a_node20"><a xlink:href="Configuration_8h_source.html" target="_top" xlink:title=" ">
<polygon fill="white" stroke="#666666" points="1279,-294 1188,-294 1188,-275 1279,-275 1279,-294"/>
<text text-anchor="middle" x="1233.5" y="-282" font-family="Helvetica,sans-Serif" font-size="10.00">Configuration.h</text>
</a>
</g>
</g>
<!-- Node19&#45;&gt;Node20 -->
<g id="edge25" class="edge">
<title>Node19&#45;&gt;Node20</title>
<path fill="none" stroke="#63b8ff" d="M497.98,-331.24C500.85,-330.77 503.72,-330.35 506.5,-330 755.47,-298.47 1055.35,-289.08 1177.57,-286.45"/>
<polygon fill="#63b8ff" stroke="#63b8ff" points="1177.87,-289.95 1187.8,-286.24 1177.73,-282.95 1177.87,-289.95"/>
</g>
<!-- Node20&#45;&gt;Node3 -->
<g id="edge26" class="edge">
<title>Node20&#45;&gt;Node3</title>
<path fill="none" stroke="#63b8ff" d="M1187.84,-283.35C1051.17,-282.47 652.05,-276.67 608.5,-239 563.26,-199.86 564.76,-120.4 568.15,-84.21"/>
<polygon fill="#63b8ff" stroke="#63b8ff" points="571.65,-84.41 569.25,-74.09 564.69,-83.65 571.65,-84.41"/>
</g>
<!-- Node20&#45;&gt;Node5 -->
<g id="edge27" class="edge">
<title>Node20&#45;&gt;Node5</title>
<path fill="none" stroke="#63b8ff" d="M1187.98,-281C1081.03,-275.01 805.36,-258.83 575.5,-239 561.83,-237.82 546.88,-236.31 533.59,-234.9"/>
<polygon fill="#63b8ff" stroke="#63b8ff" points="533.66,-231.38 523.34,-233.79 532.91,-238.34 533.66,-231.38"/>
</g>
<!-- Node21 -->
<g id="node21" class="node">
<title>Node21</title>
<g id="a_node21"><a xlink:title=" ">
<polygon fill="#e0e0e0" stroke="#999999" points="1608.5,-129 1536.5,-129 1536.5,-110 1608.5,-110 1608.5,-129"/>
<text text-anchor="middle" x="1572.5" y="-117" font-family="Helvetica,sans-Serif" font-size="10.00">wx/config.h</text>
</a>
</g>
</g>
<!-- Node20&#45;&gt;Node21 -->
<g id="edge28" class="edge">
<title>Node20&#45;&gt;Node21</title>
<path fill="none" stroke="#63b8ff" d="M1230.63,-274.98C1223.95,-253.41 1210.03,-196.16 1238.5,-165 1243.33,-159.72 1435.97,-136.5 1526.45,-125.86"/>
<polygon fill="#63b8ff" stroke="#63b8ff" points="1526.92,-129.33 1536.44,-124.69 1526.1,-122.38 1526.92,-129.33"/>
</g>
<!-- Node22 -->
<g id="node22" class="node">
<title>Node22</title>
<g id="a_node22"><a xlink:title=" ">
<polygon fill="#e0e0e0" stroke="#999999" points="695,-239 618,-239 618,-220 695,-220 695,-239"/>
<text text-anchor="middle" x="656.5" y="-227" font-family="Helvetica,sans-Serif" font-size="10.00">wx/display.h</text>
</a>
</g>
</g>
<!-- Node20&#45;&gt;Node22 -->
<g id="edge29" class="edge">
<title>Node20&#45;&gt;Node22</title>
<path fill="none" stroke="#63b8ff" d="M1187.71,-281.06C1097.48,-275.95 890.15,-262.69 705.4,-238.99"/>
<polygon fill="#63b8ff" stroke="#63b8ff" points="705.59,-235.49 695.23,-237.67 704.69,-242.43 705.59,-235.49"/>
</g>
<!-- Node23 -->
<g id="node23" class="node">
<title>Node23</title>
<g id="a_node23"><a xlink:title=" ">
<polygon fill="#e0e0e0" stroke="#999999" points="803.5,-239 713.5,-239 713.5,-220 803.5,-220 803.5,-239"/>
<text text-anchor="middle" x="758.5" y="-227" font-family="Helvetica,sans-Serif" font-size="10.00">wx/fontenum.h</text>
</a>
</g>
</g>
<!-- Node20&#45;&gt;Node23 -->
<g id="edge30" class="edge">
<title>Node20&#45;&gt;Node23</title>
<path fill="none" stroke="#63b8ff" d="M1187.74,-279.37C1112.28,-272.41 956.8,-257.4 814.05,-239.01"/>
<polygon fill="#63b8ff" stroke="#63b8ff" points="814.16,-235.49 803.8,-237.68 813.26,-242.43 814.16,-235.49"/>
</g>
<!-- Node24 -->
<g id="node24" class="node">
<title>Node24</title>
<g id="a_node24"><a xlink:title=" ">
<polygon fill="#e0e0e0" stroke="#999999" points="1714.5,-129 1626.5,-129 1626.5,-110 1714.5,-110 1714.5,-129"/>
<text text-anchor="middle" x="1670.5" y="-117" font-family="Helvetica,sans-Serif" font-size="10.00">wx/hashmap.h</text>
</a>
</g>
</g>
<!-- Node20&#45;&gt;Node24 -->
<g id="edge31" class="edge">
<title>Node20&#45;&gt;Node24</title>
<path fill="none" stroke="#63b8ff" d="M1237.03,-274.59C1243,-260.71 1256.44,-234.06 1276.5,-220 1331.4,-181.51 1521.98,-145.32 1616.49,-129.24"/>
<polygon fill="#63b8ff" stroke="#63b8ff" points="1617.15,-132.68 1626.43,-127.56 1615.99,-125.78 1617.15,-132.68"/>
</g>
<!-- Node25 -->
<g id="node25" class="node">
<title>Node25</title>
<g id="a_node25"><a xlink:href="LoggingMessageDialog_8h.html" target="_top" xlink:title="This file declares a message dialog that sends its contents to the log message sink.">
<polygon fill="white" stroke="#666666" points="999,-239 822,-239 822,-220 999,-220 999,-239"/>
<text text-anchor="middle" x="910.5" y="-227" font-family="Helvetica,sans-Serif" font-size="10.00">dialogs/LoggingMessageDialog.h</text>
</a>
</g>
</g>
<!-- Node20&#45;&gt;Node25 -->
<g id="edge32" class="edge">
<title>Node20&#45;&gt;Node25</title>
<path fill="none" stroke="#63b8ff" d="M1187.91,-276.02C1131.65,-266.79 1035.74,-251.05 972.75,-240.71"/>
<polygon fill="#63b8ff" stroke="#63b8ff" points="972.98,-237.21 962.54,-239.04 971.84,-244.11 972.98,-237.21"/>
</g>
<!-- Node28 -->
<g id="node28" class="node">
<title>Node28</title>
<g id="a_node28"><a xlink:href="TextStyle_8h.html" target="_top" xlink:title="This file declares everything needed for the text style system used to style all the elements on the ...">
<polygon fill="white" stroke="#666666" points="1186.5,-184 1090.5,-184 1090.5,-165 1186.5,-165 1186.5,-184"/>
<text text-anchor="middle" x="1138.5" y="-172" font-family="Helvetica,sans-Serif" font-size="10.00">cells/TextStyle.h</text>
</a>
</g>
</g>
<!-- Node20&#45;&gt;Node28 -->
<g id="edge36" class="edge">
<title>Node20&#45;&gt;Node28</title>
<path fill="none" stroke="#63b8ff" d="M1225.73,-274.66C1209.78,-256.54 1173.17,-214.91 1152.81,-191.77"/>
<polygon fill="#63b8ff" stroke="#63b8ff" points="1155.35,-189.36 1146.12,-184.16 1150.09,-193.98 1155.35,-189.36"/>
</g>
<!-- Node35 -->
<g id="node35" class="node">
<title>Node35</title>
<g id="a_node35"><a xlink:title=" ">
<polygon fill="#e0e0e0" stroke="#999999" points="1046.5,-74 996.5,-74 996.5,-55 1046.5,-55 1046.5,-74"/>
<text text-anchor="middle" x="1021.5" y="-62" font-family="Helvetica,sans-Serif" font-size="10.00">cstdint</text>
</a>
</g>
</g>
<!-- Node20&#45;&gt;Node35 -->
<g id="edge66" class="edge">
<title>Node20&#45;&gt;Node35</title>
<path fill="none" stroke="#63b8ff" d="M1187.86,-276.69C1150.41,-270.08 1096.56,-258.17 1052.5,-239 997.45,-215.05 995.19,-187.41 939.5,-165 858.96,-132.59 802.95,-195.81 747.5,-129 742.11,-122.5 742.03,-116.43 747.5,-110 777.73,-74.46 919,-67.22 986.03,-65.81"/>
<polygon fill="#63b8ff" stroke="#63b8ff" points="986.18,-69.31 996.12,-65.63 986.06,-62.31 986.18,-69.31"/>
</g>
<!-- Node41 -->
<g id="node37" class="node">
<title>Node41</title>
<g id="a_node37"><a xlink:title=" ">
<polygon fill="#e0e0e0" stroke="#999999" points="1373.5,-74 1309.5,-74 1309.5,-55 1373.5,-55 1373.5,-74"/>
<text text-anchor="middle" x="1341.5" y="-62" font-family="Helvetica,sans-Serif" font-size="10.00">algorithm</text>
</a>
</g>
</g>
<!-- Node20&#45;&gt;Node41 -->
<g id="edge74" class="edge">
<title>Node20&#45;&gt;Node41</title>
<path fill="none" stroke="#63b8ff" d="M1241.41,-274.56C1254.26,-260.64 1281.1,-233.94 1309.5,-220 1478.63,-137.01 1605.45,-275.82 1723.5,-129 1771.46,-69.35 1459.15,-85.63 1383.5,-74 1383.4,-73.98 1383.3,-73.97 1383.2,-73.95"/>
<polygon fill="#63b8ff" stroke="#63b8ff" points="1383.99,-70.54 1373.55,-72.31 1382.82,-77.44 1383.99,-70.54"/>
</g>
<!-- Node44 -->
<g id="node39" class="node">
<title>Node44</title>
<g id="a_node39"><a xlink:title=" ">
<polygon fill="#e0e0e0" stroke="#999999" points="1875.5,-74 1817.5,-74 1817.5,-55 1875.5,-55 1875.5,-74"/>
<text text-anchor="middle" x="1846.5" y="-62" font-family="Helvetica,sans-Serif" font-size="10.00">memory</text>
</a>
</g>
</g>
<!-- Node20&#45;&gt;Node44 -->
<g id="edge67" class="edge">
<title>Node20&#45;&gt;Node44</title>
<path fill="none" stroke="#63b8ff" d="M1279.21,-282.28C1407.62,-278.53 1765.21,-265.79 1810.5,-239 1862.33,-208.34 1855.95,-123.13 1850.07,-84.71"/>
<polygon fill="#63b8ff" stroke="#63b8ff" points="1853.45,-83.68 1848.33,-74.41 1846.54,-84.85 1853.45,-83.68"/>
</g>
<!-- Node45 -->
<g id="node40" class="node">
<title>Node45</title>
<g id="a_node40"><a xlink:title=" ">
<polygon fill="#e0e0e0" stroke="#999999" points="1739.5,-74 1707.5,-74 1707.5,-55 1739.5,-55 1739.5,-74"/>
<text text-anchor="middle" x="1723.5" y="-62" font-family="Helvetica,sans-Serif" font-size="10.00">list</text>
</a>
</g>
</g>
<!-- Node20&#45;&gt;Node45 -->
<g id="edge71" class="edge">
<title>Node20&#45;&gt;Node45</title>
<path fill="none" stroke="#63b8ff" d="M1279.33,-282.01C1403.68,-277.67 1741.07,-263.71 1784.5,-239 1835.66,-209.89 1849.61,-157.25 1814.5,-110 1798.8,-88.87 1770.34,-77.23 1749.41,-71.22"/>
<polygon fill="#63b8ff" stroke="#63b8ff" points="1750.11,-67.78 1739.55,-68.63 1748.34,-74.55 1750.11,-67.78"/>
</g>
<!-- Node47 -->
<g id="node42" class="node">
<title>Node47</title>
<g id="a_node42"><a xlink:title=" ">
<polygon fill="#e0e0e0" stroke="#999999" points="1568,-74 1475,-74 1475,-55 1568,-55 1568,-74"/>
<text text-anchor="middle" x="1521.5" y="-62" font-family="Helvetica,sans-Serif" font-size="10.00">unordered_map</text>
</a>
</g>
</g>
<!-- Node20&#45;&gt;Node47 -->
<g id="edge69" class="edge">
<title>Node20&#45;&gt;Node47</title>
<path fill="none" stroke="#63b8ff" d="M1279.18,-282.55C1400.57,-279.63 1724.45,-269.07 1761.5,-239 1807.45,-201.71 1832.83,-155.09 1794.5,-110 1767.34,-78.05 1650.16,-68.98 1578.44,-66.45"/>
<polygon fill="#63b8ff" stroke="#63b8ff" points="1578.31,-62.94 1568.21,-66.12 1578.09,-69.94 1578.31,-62.94"/>
</g>
<!-- Node48 -->
<g id="node43" class="node">
<title>Node48</title>
<g id="a_node43"><a xlink:href="Styles_8h.html" target="_top" xlink:title="This file declares the class Styles.">
<polygon fill="white" stroke="#666666" points="1148.5,-239 1092.5,-239 1092.5,-220 1148.5,-220 1148.5,-239"/>
<text text-anchor="middle" x="1120.5" y="-227" font-family="Helvetica,sans-Serif" font-size="10.00">Styles.h</text>
</a>
</g>
</g>
<!-- Node20&#45;&gt;Node48 -->
<g id="edge62" class="edge">
<title>Node20&#45;&gt;Node48</title>
<path fill="none" stroke="#63b8ff" d="M1215.34,-274.98C1197.25,-266.5 1169.22,-253.35 1148.31,-243.54"/>
<polygon fill="#63b8ff" stroke="#63b8ff" points="1149.53,-240.25 1138.99,-239.17 1146.55,-246.59 1149.53,-240.25"/>
</g>
<!-- Node49 -->
<g id="node44" class="node">
<title>Node49</title>
<g id="a_node44"><a xlink:title=" ">
<polygon fill="#e0e0e0" stroke="#999999" points="1034,-184 987,-184 987,-165 1034,-165 1034,-184"/>
<text text-anchor="middle" x="1010.5" y="-172" font-family="Helvetica,sans-Serif" font-size="10.00">vector</text>
</a>
</g>
</g>
<!-- Node20&#45;&gt;Node49 -->
<g id="edge73" class="edge">
<title>Node20&#45;&gt;Node49</title>
<path fill="none" stroke="#63b8ff" d="M1187.88,-275.28C1157.08,-268.48 1116.24,-256.98 1083.5,-239 1060.85,-226.56 1039.07,-206.15 1025.28,-191.83"/>
<polygon fill="#63b8ff" stroke="#63b8ff" points="1027.54,-189.12 1018.15,-184.21 1022.43,-193.9 1027.54,-189.12"/>
</g>
<!-- Node50 -->
<g id="node45" class="node">
<title>Node50</title>
<g id="a_node45"><a xlink:title=" ">
<polygon fill="#e0e0e0" stroke="#999999" points="1366.5,-239 1318.5,-239 1318.5,-220 1366.5,-220 1366.5,-239"/>
<text text-anchor="middle" x="1342.5" y="-227" font-family="Helvetica,sans-Serif" font-size="10.00">mutex</text>
</a>
</g>
</g>
<!-- Node20&#45;&gt;Node50 -->
<g id="edge68" class="edge">
<title>Node20&#45;&gt;Node50</title>
<path fill="none" stroke="#63b8ff" d="M1251.01,-274.98C1268.47,-266.5 1295.51,-253.35 1315.67,-243.54"/>
<polygon fill="#63b8ff" stroke="#63b8ff" points="1317.21,-246.69 1324.67,-239.17 1314.14,-240.4 1317.21,-246.69"/>
</g>
<!-- Node51 -->
<g id="node46" class="node">
<title>Node51</title>
<g id="a_node46"><a xlink:title=" ">
<polygon fill="#e0e0e0" stroke="#999999" points="1438.5,-239 1384.5,-239 1384.5,-220 1438.5,-220 1438.5,-239"/>
<text text-anchor="middle" x="1411.5" y="-227" font-family="Helvetica,sans-Serif" font-size="10.00">random</text>
</a>
</g>
</g>
<!-- Node20&#45;&gt;Node51 -->
<g id="edge70" class="edge">
<title>Node20&#45;&gt;Node51</title>
<path fill="none" stroke="#63b8ff" d="M1262.1,-274.98C1292.65,-265.89 1341.17,-251.44 1374.58,-241.49"/>
<polygon fill="#63b8ff" stroke="#63b8ff" points="1375.85,-244.77 1384.43,-238.56 1373.85,-238.06 1375.85,-244.77"/>
</g>
<!-- Node52 -->
<g id="node47" class="node">
<title>Node52</title>
<g id="a_node47"><a xlink:title=" ">
<polygon fill="#e0e0e0" stroke="#999999" points="1508,-239 1457,-239 1457,-220 1508,-220 1508,-239"/>
<text text-anchor="middle" x="1482.5" y="-227" font-family="Helvetica,sans-Serif" font-size="10.00">variant</text>
</a>
</g>
</g>
<!-- Node20&#45;&gt;Node52 -->
<g id="edge72" class="edge">
<title>Node20&#45;&gt;Node52</title>
<path fill="none" stroke="#63b8ff" d="M1276.63,-274.97C1317.8,-266.73 1381.82,-253.66 1446.88,-239.08"/>
<polygon fill="#63b8ff" stroke="#63b8ff" points="1447.92,-242.43 1456.91,-236.82 1446.38,-235.6 1447.92,-242.43"/>
</g>
<!-- Node53 -->
<g id="node48" class="node">
<title>Node53</title>
<g id="a_node48"><a xlink:title=" ">
<polygon fill="#e0e0e0" stroke="#999999" points="1576.5,-239 1526.5,-239 1526.5,-220 1576.5,-220 1576.5,-239"/>
<text text-anchor="middle" x="1551.5" y="-227" font-family="Helvetica,sans-Serif" font-size="10.00">atomic</text>
</a>
</g>
</g>
<!-- Node20&#45;&gt;Node53 -->
<g id="edge75" class="edge">
<title>Node20&#45;&gt;Node53</title>
<path fill="none" stroke="#63b8ff" d="M1279.47,-277.59C1333.78,-270.32 1427.06,-256.93 1516.29,-239.09"/>
<polygon fill="#63b8ff" stroke="#63b8ff" points="1517.2,-242.48 1526.31,-237.07 1515.81,-235.62 1517.2,-242.48"/>
</g>
<!-- Node54 -->
<g id="node49" class="node">
<title>Node54</title>
<g id="a_node49"><a xlink:title=" ">
<polygon fill="#e0e0e0" stroke="#999999" points="1644.5,-239 1594.5,-239 1594.5,-220 1644.5,-220 1644.5,-239"/>
<text text-anchor="middle" x="1619.5" y="-227" font-family="Helvetica,sans-Serif" font-size="10.00">chrono</text>
</a>
</g>
</g>
<!-- Node20&#45;&gt;Node54 -->
<g id="edge76" class="edge">
<title>Node20&#45;&gt;Node54</title>
<path fill="none" stroke="#63b8ff" d="M1279.06,-279.49C1344.5,-273.35 1469.06,-260.23 1584.27,-239.02"/>
<polygon fill="#63b8ff" stroke="#63b8ff" points="1585.13,-242.42 1594.32,-237.15 1583.85,-235.54 1585.13,-242.42"/>
</g>
<!-- Node55 -->
<g id="node50" class="node">
<title>Node55</title>
<g id="a_node50"><a xlink:title=" ">
<polygon fill="#e0e0e0" stroke="#999999" points="1752,-239 1663,-239 1663,-220 1752,-220 1752,-239"/>
<text text-anchor="middle" x="1707.5" y="-227" font-family="Helvetica,sans-Serif" font-size="10.00">wx/wupdlock.h</text>
</a>
</g>
</g>
<!-- Node20&#45;&gt;Node55 -->
<g id="edge77" class="edge">
<title>Node20&#45;&gt;Node55</title>
<path fill="none" stroke="#63b8ff" d="M1279.27,-279.41C1354.73,-272.51 1510.23,-257.59 1652.52,-239.06"/>
<polygon fill="#63b8ff" stroke="#63b8ff" points="1653.28,-242.49 1662.74,-237.72 1652.37,-235.55 1653.28,-242.49"/>
</g>
<!-- Node25&#45;&gt;Node3 -->
<g id="edge33" class="edge">
<title>Node25&#45;&gt;Node3</title>
<path fill="none" stroke="#63b8ff" d="M877.14,-219.96C847.39,-211.94 802.9,-198.97 765.5,-184 714.75,-163.69 702.02,-157.69 655.5,-129 631.33,-114.1 605.46,-94.12 588.69,-80.58"/>
<polygon fill="#63b8ff" stroke="#63b8ff" points="590.77,-77.76 580.81,-74.15 586.34,-83.18 590.77,-77.76"/>
</g>
<!-- Node26 -->
<g id="node26" class="node">
<title>Node26</title>
<g id="a_node26"><a xlink:title=" ">
<polygon fill="#e0e0e0" stroke="#999999" points="930,-184 851,-184 851,-165 930,-165 930,-184"/>
<text text-anchor="middle" x="890.5" y="-172" font-family="Helvetica,sans-Serif" font-size="10.00">wx/msgdlg.h</text>
</a>
</g>
</g>
<!-- Node25&#45;&gt;Node26 -->
<g id="edge34" class="edge">
<title>Node25&#45;&gt;Node26</title>
<path fill="none" stroke="#63b8ff" d="M907.2,-219.75C904.52,-212.65 900.65,-202.4 897.31,-193.56"/>
<polygon fill="#63b8ff" stroke="#63b8ff" points="900.55,-192.21 893.74,-184.09 894,-194.68 900.55,-192.21"/>
</g>
<!-- Node27 -->
<g id="node27" class="node">
<title>Node27</title>
<g id="a_node27"><a xlink:title=" ">
<polygon fill="#e0e0e0" stroke="#999999" points="832.5,-184 774.5,-184 774.5,-165 832.5,-165 832.5,-184"/>
<text text-anchor="middle" x="803.5" y="-172" font-family="Helvetica,sans-Serif" font-size="10.00">wx/log.h</text>
</a>
</g>
</g>
<!-- Node25&#45;&gt;Node27 -->
<g id="edge35" class="edge">
<title>Node25&#45;&gt;Node27</title>
<path fill="none" stroke="#63b8ff" d="M893.31,-219.98C876.25,-211.54 849.87,-198.47 830.1,-188.68"/>
<polygon fill="#63b8ff" stroke="#63b8ff" points="831.52,-185.47 821,-184.17 828.41,-191.75 831.52,-185.47"/>
</g>
<!-- Node28&#45;&gt;Node3 -->
<g id="edge37" class="edge">
<title>Node28&#45;&gt;Node3</title>
<path fill="none" stroke="#63b8ff" d="M1090.2,-168.96C1003.65,-160.61 825.48,-142.47 764.5,-129 705.57,-115.99 639.2,-92.19 601.37,-77.71"/>
<polygon fill="#63b8ff" stroke="#63b8ff" points="602.52,-74.41 591.93,-74.07 600,-80.94 602.52,-74.41"/>
</g>
<!-- Node28&#45;&gt;Node18 -->
<g id="edge47" class="edge">
<title>Node28&#45;&gt;Node18</title>
<path fill="none" stroke="#63b8ff" d="M1186.52,-166.87C1273.98,-154.78 1450.42,-130.25 1451.5,-129 1463.33,-115.36 1451.88,-95.77 1440.45,-81.97"/>
<polygon fill="#63b8ff" stroke="#63b8ff" points="1442.81,-79.36 1433.55,-74.22 1437.59,-84.02 1442.81,-79.36"/>
</g>
<!-- Node28&#45;&gt;Node21 -->
<g id="edge43" class="edge">
<title>Node28&#45;&gt;Node21</title>
<path fill="none" stroke="#63b8ff" d="M1186.55,-166.79C1191.26,-166.17 1195.97,-165.56 1200.5,-165 1343.4,-147.22 1379.9,-149.08 1522.5,-129 1523.78,-128.82 1525.07,-128.63 1526.37,-128.44"/>
<polygon fill="#63b8ff" stroke="#63b8ff" points="1527.14,-131.86 1536.49,-126.87 1526.07,-124.95 1527.14,-131.86"/>
</g>
<!-- Node28&#45;&gt;Node24 -->
<g id="edge40" class="edge">
<title>Node28&#45;&gt;Node24</title>
<path fill="none" stroke="#63b8ff" d="M1186.51,-169.45C1287.07,-160.9 1517.95,-140.91 1616.1,-129.08"/>
<polygon fill="#63b8ff" stroke="#63b8ff" points="1616.79,-132.52 1626.29,-127.82 1615.93,-125.57 1616.79,-132.52"/>
</g>
<!-- Node29 -->
<g id="node29" class="node">
<title>Node29</title>
<g id="a_node29"><a xlink:title=" ">
<polygon fill="#e0e0e0" stroke="#999999" points="1159.5,-129 1087.5,-129 1087.5,-110 1159.5,-110 1159.5,-129"/>
<text text-anchor="middle" x="1123.5" y="-117" font-family="Helvetica,sans-Serif" font-size="10.00">wx/colour.h</text>
</a>
</g>
</g>
<!-- Node28&#45;&gt;Node29 -->
<g id="edge38" class="edge">
<title>Node28&#45;&gt;Node29</title>
<path fill="none" stroke="#63b8ff" d="M1136.02,-164.75C1134.04,-157.72 1131.18,-147.62 1128.69,-138.84"/>
<polygon fill="#63b8ff" stroke="#63b8ff" points="1132.02,-137.76 1125.93,-129.09 1125.29,-139.66 1132.02,-137.76"/>
</g>
<!-- Node30 -->
<g id="node30" class="node">
<title>Node30</title>
<g id="a_node30"><a xlink:title=" ">
<polygon fill="#e0e0e0" stroke="#999999" points="1215.5,-129 1177.5,-129 1177.5,-110 1215.5,-110 1215.5,-129"/>
<text text-anchor="middle" x="1196.5" y="-117" font-family="Helvetica,sans-Serif" font-size="10.00">map</text>
</a>
</g>
</g>
<!-- Node28&#45;&gt;Node30 -->
<g id="edge39" class="edge">
<title>Node28&#45;&gt;Node30</title>
<path fill="none" stroke="#63b8ff" d="M1147.82,-164.98C1156.31,-157.23 1169.06,-145.58 1179.38,-136.14"/>
<polygon fill="#63b8ff" stroke="#63b8ff" points="1181.99,-138.5 1187.01,-129.17 1177.27,-133.33 1181.99,-138.5"/>
</g>
<!-- Node31 -->
<g id="node31" class="node">
<title>Node31</title>
<g id="a_node31"><a xlink:title=" ">
<polygon fill="#e0e0e0" stroke="#999999" points="817.5,-129 773.5,-129 773.5,-110 817.5,-110 817.5,-129"/>
<text text-anchor="middle" x="795.5" y="-117" font-family="Helvetica,sans-Serif" font-size="10.00">string</text>
</a>
</g>
</g>
<!-- Node28&#45;&gt;Node31 -->
<g id="edge41" class="edge">
<title>Node28&#45;&gt;Node31</title>
<path fill="none" stroke="#63b8ff" d="M1090.34,-166.76C1014.11,-156.07 870.63,-135.87 827.71,-128.6"/>
<polygon fill="#63b8ff" stroke="#63b8ff" points="828.27,-125.14 817.8,-126.78 827,-132.03 828.27,-125.14"/>
</g>
<!-- Node32 -->
<g id="node32" class="node">
<title>Node32</title>
<g id="a_node32"><a xlink:title=" ">
<polygon fill="#e0e0e0" stroke="#999999" points="893,-129 836,-129 836,-110 893,-110 893,-129"/>
<text text-anchor="middle" x="864.5" y="-117" font-family="Helvetica,sans-Serif" font-size="10.00">ostream</text>
</a>
</g>
</g>
<!-- Node28&#45;&gt;Node32 -->
<g id="edge42" class="edge">
<title>Node28&#45;&gt;Node32</title>
<path fill="none" stroke="#63b8ff" d="M1090.49,-164.94C1044.89,-156.69 974.14,-143.62 903.13,-129.07"/>
<polygon fill="#63b8ff" stroke="#63b8ff" points="903.61,-125.6 893.11,-127.01 902.2,-132.45 903.61,-125.6"/>
</g>
<!-- Node33 -->
<g id="node33" class="node">
<title>Node33</title>
<g id="a_node33"><a xlink:title=" ">
<polygon fill="#e0e0e0" stroke="#999999" points="1291.5,-74 1229.5,-74 1229.5,-55 1291.5,-55 1291.5,-74"/>
<text text-anchor="middle" x="1260.5" y="-62" font-family="Helvetica,sans-Serif" font-size="10.00">wx/font.h</text>
</a>
</g>
</g>
<!-- Node28&#45;&gt;Node33 -->
<g id="edge44" class="edge">
<title>Node28&#45;&gt;Node33</title>
<path fill="none" stroke="#63b8ff" d="M1119.76,-164.92C1096.56,-153.14 1062.02,-131 1078.5,-110 1095.67,-88.13 1171.07,-75.62 1219.27,-69.73"/>
<polygon fill="#63b8ff" stroke="#63b8ff" points="1219.89,-73.18 1229.41,-68.54 1219.07,-66.23 1219.89,-73.18"/>
</g>
<!-- Node34 -->
<g id="node34" class="node">
<title>Node34</title>
<g id="a_node34"><a xlink:title=" ">
<polygon fill="#e0e0e0" stroke="#999999" points="993.5,-129 911.5,-129 911.5,-110 993.5,-110 993.5,-129"/>
<text text-anchor="middle" x="952.5" y="-117" font-family="Helvetica,sans-Serif" font-size="10.00">wx/settings.h</text>
</a>
</g>
</g>
<!-- Node28&#45;&gt;Node34 -->
<g id="edge45" class="edge">
<title>Node28&#45;&gt;Node34</title>
<path fill="none" stroke="#63b8ff" d="M1108.62,-164.98C1077.12,-156.01 1027.33,-141.82 992.47,-131.89"/>
<polygon fill="#63b8ff" stroke="#63b8ff" points="993.19,-128.46 982.62,-129.08 991.28,-135.19 993.19,-128.46"/>
</g>
<!-- Node28&#45;&gt;Node35 -->
<g id="edge46" class="edge">
<title>Node28&#45;&gt;Node35</title>
<path fill="none" stroke="#63b8ff" d="M1106.32,-164.85C1086.44,-158.03 1061.72,-146.66 1045.5,-129 1034.05,-116.53 1027.89,-98.07 1024.7,-84.26"/>
<polygon fill="#63b8ff" stroke="#63b8ff" points="1028.11,-83.51 1022.72,-74.39 1021.25,-84.88 1028.11,-83.51"/>
</g>
<!-- Node36 -->
<g id="node36" class="node">
<title>Node36</title>
<g id="a_node36"><a xlink:href="FontAttribs_8h_source.html" target="_top" xlink:title=" ">
<polygon fill="#fff0f0" stroke="red" points="1313,-129 1234,-129 1234,-110 1313,-110 1313,-129"/>
<text text-anchor="middle" x="1273.5" y="-117" font-family="Helvetica,sans-Serif" font-size="10.00">FontAttribs.h</text>
</a>
</g>
</g>
<!-- Node28&#45;&gt;Node36 -->
<g id="edge48" class="edge">
<title>Node28&#45;&gt;Node36</title>
<path fill="none" stroke="#63b8ff" d="M1160.19,-164.98C1182.3,-156.3 1216.82,-142.75 1241.95,-132.88"/>
<polygon fill="#63b8ff" stroke="#63b8ff" points="1243.39,-136.08 1251.42,-129.17 1240.83,-129.57 1243.39,-136.08"/>
</g>
<!-- Node43 -->
<g id="node38" class="node">
<title>Node43</title>
<g id="a_node38"><a xlink:href="FontVariantCache_8h.html" target="_top" xlink:title="This file implements the wxFont cache system.">
<polygon fill="white" stroke="#666666" points="1442,-129 1331,-129 1331,-110 1442,-110 1442,-129"/>
<text text-anchor="middle" x="1386.5" y="-117" font-family="Helvetica,sans-Serif" font-size="10.00">FontVariantCache.h</text>
</a>
</g>
</g>
<!-- Node28&#45;&gt;Node43 -->
<g id="edge53" class="edge">
<title>Node28&#45;&gt;Node43</title>
<path fill="none" stroke="#63b8ff" d="M1178.35,-164.98C1221.33,-155.8 1289.87,-141.15 1336.46,-131.19"/>
<polygon fill="#63b8ff" stroke="#63b8ff" points="1337.29,-134.59 1346.34,-129.08 1335.83,-127.75 1337.29,-134.59"/>
</g>
<!-- Node28&#45;&gt;Node47 -->
<g id="edge61" class="edge">
<title>Node28&#45;&gt;Node47</title>
<path fill="none" stroke="#63b8ff" d="M1186.56,-166.9C1191.27,-166.26 1195.98,-165.61 1200.5,-165 1319.15,-148.87 1362.42,-186.41 1467.5,-129 1486.88,-118.41 1502.34,-97.89 1511.67,-83.03"/>
<polygon fill="#63b8ff" stroke="#63b8ff" points="1514.79,-84.64 1516.89,-74.25 1508.77,-81.06 1514.79,-84.64"/>
</g>
<!-- Node36&#45;&gt;Node18 -->
<g id="edge52" class="edge">
<title>Node36&#45;&gt;Node18</title>
<path fill="none" stroke="#63b8ff" d="M1297.76,-109.98C1322.82,-101.19 1362.13,-87.39 1390.33,-77.49"/>
<polygon fill="#63b8ff" stroke="#63b8ff" points="1391.52,-80.78 1399.8,-74.17 1389.2,-74.18 1391.52,-80.78"/>
</g>
<!-- Node36&#45;&gt;Node33 -->
<g id="edge49" class="edge">
<title>Node36&#45;&gt;Node33</title>
<path fill="none" stroke="#63b8ff" d="M1271.35,-109.75C1269.63,-102.72 1267.15,-92.62 1265,-83.84"/>
<polygon fill="#63b8ff" stroke="#63b8ff" points="1268.39,-82.97 1262.61,-74.09 1261.59,-84.63 1268.39,-82.97"/>
</g>
<!-- Node36&#45;&gt;Node35 -->
<g id="edge51" class="edge">
<title>Node36&#45;&gt;Node35</title>
<path fill="none" stroke="#63b8ff" d="M1233.85,-110.16C1185.14,-99.92 1103.26,-82.69 1056.69,-72.9"/>
<polygon fill="#63b8ff" stroke="#63b8ff" points="1057.26,-69.44 1046.76,-70.81 1055.82,-76.29 1057.26,-69.44"/>
</g>
<!-- Node36&#45;&gt;Node41 -->
<g id="edge50" class="edge">
<title>Node36&#45;&gt;Node41</title>
<path fill="none" stroke="#63b8ff" d="M1284.43,-109.98C1294.58,-102.07 1309.92,-90.11 1322.15,-80.58"/>
<polygon fill="#63b8ff" stroke="#63b8ff" points="1324.64,-83.08 1330.38,-74.17 1320.34,-77.56 1324.64,-83.08"/>
</g>
<!-- Node43&#45;&gt;Node3 -->
<g id="edge54" class="edge">
<title>Node43&#45;&gt;Node3</title>
<path fill="none" stroke="#63b8ff" d="M1330.68,-110.84C1327.92,-110.54 1325.18,-110.26 1322.5,-110 1054.54,-84.31 731.35,-71.16 614.96,-67"/>
<polygon fill="#63b8ff" stroke="#63b8ff" points="614.79,-63.49 604.67,-66.63 614.54,-70.49 614.79,-63.49"/>
</g>
<!-- Node43&#45;&gt;Node18 -->
<g id="edge57" class="edge">
<title>Node43&#45;&gt;Node18</title>
<path fill="none" stroke="#63b8ff" d="M1392.77,-109.75C1398.09,-102.34 1405.86,-91.5 1412.38,-82.41"/>
<polygon fill="#63b8ff" stroke="#63b8ff" points="1415.36,-84.26 1418.34,-74.09 1409.67,-80.18 1415.36,-84.26"/>
</g>
<!-- Node43&#45;&gt;Node33 -->
<g id="edge56" class="edge">
<title>Node43&#45;&gt;Node33</title>
<path fill="none" stroke="#63b8ff" d="M1366.26,-109.98C1345.8,-101.38 1313.97,-87.99 1290.57,-78.15"/>
<polygon fill="#63b8ff" stroke="#63b8ff" points="1291.69,-74.82 1281.11,-74.17 1288.97,-81.27 1291.69,-74.82"/>
</g>
<!-- Node43&#45;&gt;Node44 -->
<g id="edge55" class="edge">
<title>Node43&#45;&gt;Node44</title>
<path fill="none" stroke="#63b8ff" d="M1442.45,-112.05C1536.84,-101.18 1725.41,-79.45 1807.18,-70.03"/>
<polygon fill="#63b8ff" stroke="#63b8ff" points="1807.76,-73.49 1817.3,-68.86 1806.96,-66.53 1807.76,-73.49"/>
</g>
<!-- Node43&#45;&gt;Node45 -->
<g id="edge58" class="edge">
<title>Node43&#45;&gt;Node45</title>
<path fill="none" stroke="#63b8ff" d="M1440.64,-109.98C1514.08,-98.44 1642.38,-78.26 1697.32,-69.62"/>
<polygon fill="#63b8ff" stroke="#63b8ff" points="1697.96,-73.06 1707.29,-68.05 1696.87,-66.14 1697.96,-73.06"/>
</g>
<!-- Node46 -->
<g id="node41" class="node">
<title>Node46</title>
<g id="a_node41"><a xlink:title=" ">
<polygon fill="#e0e0e0" stroke="#999999" points="1167,-74 1122,-74 1122,-55 1167,-55 1167,-74"/>
<text text-anchor="middle" x="1144.5" y="-62" font-family="Helvetica,sans-Serif" font-size="10.00">utility</text>
</a>
</g>
</g>
<!-- Node43&#45;&gt;Node46 -->
<g id="edge59" class="edge">
<title>Node43&#45;&gt;Node46</title>
<path fill="none" stroke="#63b8ff" d="M1347.62,-109.98C1300.37,-99.64 1221.48,-82.36 1177.21,-72.66"/>
<polygon fill="#63b8ff" stroke="#63b8ff" points="1177.78,-69.21 1167.26,-70.49 1176.28,-76.04 1177.78,-69.21"/>
</g>
<!-- Node43&#45;&gt;Node47 -->
<g id="edge60" class="edge">
<title>Node43&#45;&gt;Node47</title>
<path fill="none" stroke="#63b8ff" d="M1408.19,-109.98C1430.3,-101.3 1464.82,-87.75 1489.95,-77.88"/>
<polygon fill="#63b8ff" stroke="#63b8ff" points="1491.39,-81.08 1499.42,-74.17 1488.83,-74.57 1491.39,-81.08"/>
</g>
<!-- Node48&#45;&gt;Node28 -->
<g id="edge63" class="edge">
<title>Node48&#45;&gt;Node28</title>
<path fill="none" stroke="#63b8ff" d="M1123.47,-219.75C1125.86,-212.72 1129.29,-202.62 1132.27,-193.84"/>
<polygon fill="#63b8ff" stroke="#63b8ff" points="1135.68,-194.68 1135.58,-184.09 1129.05,-192.43 1135.68,-194.68"/>
</g>
<!-- Node48&#45;&gt;Node46 -->
<g id="edge64" class="edge">
<title>Node48&#45;&gt;Node46</title>
<path fill="none" stroke="#63b8ff" d="M1113.01,-219.73C1100.32,-205.53 1073.07,-177.82 1043.5,-165 927.54,-114.74 680.49,-204.42 764.5,-110 770.28,-103.5 1020.99,-77.85 1111.96,-68.73"/>
<polygon fill="#63b8ff" stroke="#63b8ff" points="1112.39,-72.21 1121.99,-67.73 1111.69,-65.24 1112.39,-72.21"/>
</g>
<!-- Node48&#45;&gt;Node49 -->
<g id="edge65" class="edge">
<title>Node48&#45;&gt;Node49</title>
<path fill="none" stroke="#63b8ff" d="M1102.83,-219.98C1085.21,-211.5 1057.92,-198.35 1037.57,-188.54"/>
<polygon fill="#63b8ff" stroke="#63b8ff" points="1039.02,-185.36 1028.49,-184.17 1035.98,-191.66 1039.02,-185.36"/>
</g>
</g>
</svg>
