<?xml version="1.0" encoding="UTF-8" standalone="no"?>
<!DOCTYPE svg PUBLIC "-//W3C//DTD SVG 1.1//EN"
 "http://www.w3.org/Graphics/SVG/1.1/DTD/svg11.dtd">
<!-- Generated by graphviz version 2.43.0 (0)
 -->
<!-- Title: src/StatusBar.h Pages: 1 -->
<svg width="803pt" height="137pt"
 viewBox="0.00 0.00 803.00 137.00" xmlns="http://www.w3.org/2000/svg" xmlns:xlink="http://www.w3.org/1999/xlink">
<g id="graph0" class="graph" transform="scale(1 1) rotate(0) translate(4 133)">
<title>src/StatusBar.h</title>
<!-- Node1 -->
<g id="node1" class="node">
<title>Node1</title>
<g id="a_node1"><a xlink:title="This file contains the definition of the class History that handles the recently issued commands for ...">
<polygon fill="#999999" stroke="#666666" points="427.5,-129 338.5,-129 338.5,-110 427.5,-110 427.5,-129"/>
<text text-anchor="middle" x="383" y="-117" font-family="Helvetica,sans-Serif" font-size="10.00">src/StatusBar.h</text>
</a>
</g>
</g>
<!-- Node2 -->
<g id="node2" class="node">
<title>Node2</title>
<g id="a_node2"><a xlink:href="precomp_8h_source.html" target="_top" xlink:title=" ">
<polygon fill="white" stroke="#666666" points="68,-74 0,-74 0,-55 68,-55 68,-74"/>
<text text-anchor="middle" x="34" y="-62" font-family="Helvetica,sans-Serif" font-size="10.00">precomp.h</text>
</a>
</g>
</g>
<!-- Node1&#45;&gt;Node2 -->
<g id="edge1" class="edge">
<title>Node1&#45;&gt;Node2</title>
<path fill="none" stroke="#63b8ff" d="M338.45,-112.65C278.95,-104.7 170.33,-89.65 78,-74 77.9,-73.98 77.8,-73.97 77.7,-73.95"/>
<polygon fill="#63b8ff" stroke="#63b8ff" points="78.54,-70.54 68.08,-72.24 77.32,-77.44 78.54,-70.54"/>
</g>
<!-- Node4 -->
<g id="node4" class="node">
<title>Node4</title>
<g id="a_node4"><a xlink:title=" ">
<polygon fill="#e0e0e0" stroke="#999999" points="143.5,-74 86.5,-74 86.5,-55 143.5,-55 143.5,-74"/>
<text text-anchor="middle" x="115" y="-62" font-family="Helvetica,sans-Serif" font-size="10.00">wx/wx.h</text>
</a>
</g>
</g>
<!-- Node1&#45;&gt;Node4 -->
<g id="edge3" class="edge">
<title>Node1&#45;&gt;Node4</title>
<path fill="none" stroke="#63b8ff" d="M338.4,-110.27C294.09,-102 223.96,-88.67 153.55,-74.06"/>
<polygon fill="#63b8ff" stroke="#63b8ff" points="154.12,-70.61 143.61,-71.99 152.69,-77.46 154.12,-70.61"/>
</g>
<!-- Node5 -->
<g id="node5" class="node">
<title>Node5</title>
<g id="a_node5"><a xlink:title=" ">
<polygon fill="#e0e0e0" stroke="#999999" points="238.5,-74 161.5,-74 161.5,-55 238.5,-55 238.5,-74"/>
<text text-anchor="middle" x="200" y="-62" font-family="Helvetica,sans-Serif" font-size="10.00">wx/bitmap.h</text>
</a>
</g>
</g>
<!-- Node1&#45;&gt;Node5 -->
<g id="edge4" class="edge">
<title>Node1&#45;&gt;Node5</title>
<path fill="none" stroke="#63b8ff" d="M353.6,-109.98C322.61,-101.01 273.62,-86.82 239.33,-76.89"/>
<polygon fill="#63b8ff" stroke="#63b8ff" points="240.21,-73.5 229.63,-74.08 238.26,-80.23 240.21,-73.5"/>
</g>
<!-- Node6 -->
<g id="node6" class="node">
<title>Node6</title>
<g id="a_node6"><a xlink:title=" ">
<polygon fill="#e0e0e0" stroke="#999999" points="331,-74 257,-74 257,-55 331,-55 331,-74"/>
<text text-anchor="middle" x="294" y="-62" font-family="Helvetica,sans-Serif" font-size="10.00">wx/image.h</text>
</a>
</g>
</g>
<!-- Node1&#45;&gt;Node6 -->
<g id="edge5" class="edge">
<title>Node1&#45;&gt;Node6</title>
<path fill="none" stroke="#63b8ff" d="M368.7,-109.98C354.9,-101.77 333.76,-89.18 317.49,-79.49"/>
<polygon fill="#63b8ff" stroke="#63b8ff" points="318.94,-76.28 308.56,-74.17 315.36,-82.29 318.94,-76.28"/>
</g>
<!-- Node7 -->
<g id="node7" class="node">
<title>Node7</title>
<g id="a_node7"><a xlink:title=" ">
<polygon fill="#e0e0e0" stroke="#999999" points="417,-74 349,-74 349,-55 417,-55 417,-74"/>
<text text-anchor="middle" x="383" y="-62" font-family="Helvetica,sans-Serif" font-size="10.00">wx/timer.h</text>
</a>
</g>
</g>
<!-- Node1&#45;&gt;Node7 -->
<g id="edge6" class="edge">
<title>Node1&#45;&gt;Node7</title>
<path fill="none" stroke="#63b8ff" d="M383,-109.75C383,-102.8 383,-92.85 383,-84.13"/>
<polygon fill="#63b8ff" stroke="#63b8ff" points="386.5,-84.09 383,-74.09 379.5,-84.09 386.5,-84.09"/>
</g>
<!-- Node8 -->
<g id="node8" class="node">
<title>Node8</title>
<g id="a_node8"><a xlink:title=" ">
<polygon fill="#e0e0e0" stroke="#999999" points="518.5,-74 435.5,-74 435.5,-55 518.5,-55 518.5,-74"/>
<text text-anchor="middle" x="477" y="-62" font-family="Helvetica,sans-Serif" font-size="10.00">wx/statbmp.h</text>
</a>
</g>
</g>
<!-- Node1&#45;&gt;Node8 -->
<g id="edge7" class="edge">
<title>Node1&#45;&gt;Node8</title>
<path fill="none" stroke="#63b8ff" d="M398.1,-109.98C412.82,-101.69 435.42,-88.94 452.67,-79.22"/>
<polygon fill="#63b8ff" stroke="#63b8ff" points="454.63,-82.13 461.62,-74.17 451.19,-76.03 454.63,-82.13"/>
</g>
<!-- Node9 -->
<g id="node9" class="node">
<title>Node9</title>
<g id="a_node9"><a xlink:title=" ">
<polygon fill="#e0e0e0" stroke="#999999" points="619,-74 537,-74 537,-55 619,-55 619,-74"/>
<text text-anchor="middle" x="578" y="-62" font-family="Helvetica,sans-Serif" font-size="10.00">wx/statusbr.h</text>
</a>
</g>
</g>
<!-- Node1&#45;&gt;Node9 -->
<g id="edge8" class="edge">
<title>Node1&#45;&gt;Node9</title>
<path fill="none" stroke="#63b8ff" d="M414.33,-109.98C447.49,-100.97 500,-86.7 536.56,-76.76"/>
<polygon fill="#63b8ff" stroke="#63b8ff" points="537.69,-80.08 546.42,-74.08 535.86,-73.33 537.69,-80.08"/>
</g>
<!-- Node10 -->
<g id="node10" class="node">
<title>Node10</title>
<g id="a_node10"><a xlink:title=" ">
<polygon fill="#e0e0e0" stroke="#999999" points="718.5,-74 637.5,-74 637.5,-55 718.5,-55 718.5,-74"/>
<text text-anchor="middle" x="678" y="-62" font-family="Helvetica,sans-Serif" font-size="10.00">wx/stattext.h</text>
</a>
</g>
</g>
<!-- Node1&#45;&gt;Node10 -->
<g id="edge9" class="edge">
<title>Node1&#45;&gt;Node10</title>
<path fill="none" stroke="#63b8ff" d="M427.8,-110.45C481.37,-100.83 570.8,-84.76 626.98,-74.67"/>
<polygon fill="#63b8ff" stroke="#63b8ff" points="627.84,-78.07 637.06,-72.86 626.6,-71.18 627.84,-78.07"/>
</g>
<!-- Node11 -->
<g id="node11" class="node">
<title>Node11</title>
<g id="a_node11"><a xlink:title=" ">
<polygon fill="#e0e0e0" stroke="#999999" points="795,-74 737,-74 737,-55 795,-55 795,-74"/>
<text text-anchor="middle" x="766" y="-62" font-family="Helvetica,sans-Serif" font-size="10.00">memory</text>
</a>
</g>
</g>
<!-- Node1&#45;&gt;Node11 -->
<g id="edge10" class="edge">
<title>Node1&#45;&gt;Node11</title>
<path fill="none" stroke="#63b8ff" d="M427.58,-114.07C491.65,-107.42 613.63,-93.67 726.73,-74.08"/>
<polygon fill="#63b8ff" stroke="#63b8ff" points="727.35,-77.53 736.6,-72.36 726.14,-70.63 727.35,-77.53"/>
</g>
<!-- Node3 -->
<g id="node3" class="node">
<title>Node3</title>
<g id="a_node3"><a xlink:href="Version_8h_source.html" target="_top" xlink:title=" ">
<polygon fill="white" stroke="#666666" points="65,-19 3,-19 3,0 65,0 65,-19"/>
<text text-anchor="middle" x="34" y="-7" font-family="Helvetica,sans-Serif" font-size="10.00">Version.h</text>
</a>
</g>
</g>
<!-- Node2&#45;&gt;Node3 -->
<g id="edge2" class="edge">
<title>Node2&#45;&gt;Node3</title>
<path fill="none" stroke="#63b8ff" d="M34,-54.75C34,-47.8 34,-37.85 34,-29.13"/>
<polygon fill="#63b8ff" stroke="#63b8ff" points="37.5,-29.09 34,-19.09 30.5,-29.09 37.5,-29.09"/>
</g>
</g>
</svg>
