<?xml version="1.0" encoding="UTF-8" standalone="no"?>
<!DOCTYPE svg PUBLIC "-//W3C//DTD SVG 1.1//EN"
 "http://www.w3.org/Graphics/SVG/1.1/DTD/svg11.dtd">
<!-- Generated by graphviz version 2.43.0 (0)
 -->
<!-- Title: Catch::Matchers::Vector::ApproxMatcher&lt; T, AllocComp, AllocMatch &gt; Pages: 1 -->
<svg width="545pt" height="100pt"
 viewBox="0.00 0.00 545.00 99.50" xmlns="http://www.w3.org/2000/svg" xmlns:xlink="http://www.w3.org/1999/xlink">
<g id="graph0" class="graph" transform="scale(1 1) rotate(0) translate(4 95.5)">
<title>Catch::Matchers::Vector::ApproxMatcher&lt; T, AllocComp, AllocMatch &gt;</title>
<!-- Node1 -->
<g id="node1" class="node">
<title>Node1</title>
<g id="a_node1"><a xlink:title=" ">
<polygon fill="#999999" stroke="#666666" points="537,-43 361,-43 361,-2 537,-2 537,-43"/>
<text text-anchor="start" x="369" y="-31" font-family="Helvetica,sans-Serif" font-size="10.00">Catch::Matchers::Vector</text>
<text text-anchor="start" x="369" y="-20" font-family="Helvetica,sans-Serif" font-size="10.00">::ApproxMatcher&lt; T, AllocComp,</text>
<text text-anchor="middle" x="449" y="-9" font-family="Helvetica,sans-Serif" font-size="10.00"> AllocMatch &gt;</text>
</a>
</g>
</g>
<!-- Node2 -->
<g id="node2" class="node">
<title>Node2</title>
<g id="a_node2"><a xlink:href="structCatch_1_1Matchers_1_1Impl_1_1MatcherBase.html" target="_top" xlink:title=" ">
<polygon fill="white" stroke="#bfbfbf" points="288,-67.5 165,-67.5 165,-37.5 288,-37.5 288,-67.5"/>
<text text-anchor="start" x="173" y="-55.5" font-family="Helvetica,sans-Serif" font-size="10.00">Catch::Matchers::Impl</text>
<text text-anchor="middle" x="226.5" y="-44.5" font-family="Helvetica,sans-Serif" font-size="10.00">::MatcherBase&lt; T &gt;</text>
</a>
</g>
</g>
<!-- Node2&#45;&gt;Node1 -->
<g id="edge1" class="edge">
<title>Node2&#45;&gt;Node1</title>
<path fill="none" stroke="#63b8ff" d="M297.98,-42.91C317.94,-40.2 339.92,-37.21 360.74,-34.37"/>
<polygon fill="#63b8ff" stroke="#63b8ff" points="297.48,-39.45 288.04,-44.26 298.42,-46.38 297.48,-39.45"/>
</g>
<!-- Node3 -->
<g id="node3" class="node">
<title>Node3</title>
<g id="a_node3"><a xlink:href="classCatch_1_1Matchers_1_1Impl_1_1MatcherUntypedBase.html" target="_top" xlink:title=" ">
<polygon fill="white" stroke="#bfbfbf" points="128,-91.5 0,-91.5 0,-61.5 128,-61.5 128,-91.5"/>
<text text-anchor="start" x="8" y="-79.5" font-family="Helvetica,sans-Serif" font-size="10.00">Catch::Matchers::Impl</text>
<text text-anchor="middle" x="64" y="-68.5" font-family="Helvetica,sans-Serif" font-size="10.00">::MatcherUntypedBase</text>
</a>
</g>
</g>
<!-- Node3&#45;&gt;Node2 -->
<g id="edge2" class="edge">
<title>Node3&#45;&gt;Node2</title>
<path fill="none" stroke="#63b8ff" d="M138.38,-65.53C147.24,-64.2 156.23,-62.86 164.88,-61.56"/>
<polygon fill="#63b8ff" stroke="#63b8ff" points="137.81,-62.07 128.43,-67.01 138.84,-69 137.81,-62.07"/>
</g>
<!-- Node4 -->
<g id="node4" class="node">
<title>Node4</title>
<g id="a_node4"><a xlink:href="structCatch_1_1Matchers_1_1Impl_1_1MatcherMethod.html" target="_top" xlink:title=" ">
<polygon fill="white" stroke="#bfbfbf" points="128,-43.5 0,-43.5 0,-13.5 128,-13.5 128,-43.5"/>
<text text-anchor="start" x="8" y="-31.5" font-family="Helvetica,sans-Serif" font-size="10.00">Catch::Matchers::Impl</text>
<text text-anchor="middle" x="64" y="-20.5" font-family="Helvetica,sans-Serif" font-size="10.00">::MatcherMethod&lt; T &gt;</text>
</a>
</g>
</g>
<!-- Node4&#45;&gt;Node2 -->
<g id="edge3" class="edge">
<title>Node4&#45;&gt;Node2</title>
<path fill="none" stroke="#63b8ff" d="M138.38,-39.47C147.24,-40.8 156.23,-42.14 164.88,-43.44"/>
<polygon fill="#63b8ff" stroke="#63b8ff" points="138.84,-36 128.43,-37.99 137.81,-42.93 138.84,-36"/>
</g>
<!-- Node5 -->
<g id="node5" class="node">
<title>Node5</title>
<g id="a_node5"><a xlink:href="classCatch_1_1Detail_1_1Approx.html" target="_top" xlink:title=" ">
<polygon fill="white" stroke="#bfbfbf" points="286.5,-19 166.5,-19 166.5,0 286.5,0 286.5,-19"/>
<text text-anchor="middle" x="226.5" y="-7" font-family="Helvetica,sans-Serif" font-size="10.00">Catch::Detail::Approx</text>
</a>
</g>
</g>
<!-- Node5&#45;&gt;Node1 -->
<g id="edge4" class="edge">
<title>Node5&#45;&gt;Node1</title>
<path fill="none" stroke="#9a32cd" stroke-dasharray="5,2" d="M296.71,-13.58C317.08,-14.78 339.63,-16.11 360.96,-17.37"/>
<polygon fill="#9a32cd" stroke="#9a32cd" points="296.78,-10.08 286.59,-12.98 296.37,-17.07 296.78,-10.08"/>
<text text-anchor="middle" x="324.5" y="-19.5" font-family="Helvetica,sans-Serif" font-size="10.00"> approx</text>
</g>
</g>
</svg>
