<?xml version="1.0" encoding="UTF-8" standalone="no"?>
<!DOCTYPE svg PUBLIC "-//W3C//DTD SVG 1.1//EN"
 "http://www.w3.org/Graphics/SVG/1.1/DTD/svg11.dtd">
<!-- Generated by graphviz version 2.43.0 (0)
 -->
<!-- Title: CellList::SplicedIn Pages: 1 -->
<svg width="455pt" height="296pt"
 viewBox="0.00 0.00 455.00 296.00" xmlns="http://www.w3.org/2000/svg" xmlns:xlink="http://www.w3.org/1999/xlink">
<g id="graph0" class="graph" transform="scale(1 1) rotate(0) translate(4 292)">
<title>CellList::SplicedIn</title>
<polygon fill="white" stroke="transparent" points="-4,4 -4,-292 451,-292 451,4 -4,4"/>
<!-- Node1 -->
<g id="node1" class="node">
<title>Node1</title>
<g id="a_node1"><a xlink:title=" ">
<polygon fill="#bfbfbf" stroke="black" points="108,-0.5 108,-19.5 211,-19.5 211,-0.5 108,-0.5"/>
<text text-anchor="middle" x="159.5" y="-7.5" font-family="Helvetica,sans-Serif" font-size="10.00">CellList::SplicedIn</text>
</a>
</g>
</g>
<!-- Node2 -->
<g id="node2" class="node">
<title>Node2</title>
<g id="a_node2"><a xlink:href="classCell.html" target="_top" xlink:title="The base class all cell types the worksheet can consist of are derived from.">
<polygon fill="white" stroke="black" points="142,-67.5 142,-86.5 177,-86.5 177,-67.5 142,-67.5"/>
<text text-anchor="middle" x="159.5" y="-74.5" font-family="Helvetica,sans-Serif" font-size="10.00">Cell</text>
</a>
</g>
</g>
<!-- Node2&#45;&gt;Node1 -->
<g id="edge1" class="edge">
<title>Node2&#45;&gt;Node1</title>
<path fill="none" stroke="#9a32cd" stroke-dasharray="5,2" d="M159.5,-57.04C159.5,-44.67 159.5,-29.12 159.5,-19.63"/>
<polygon fill="#9a32cd" stroke="#9a32cd" points="156,-57.23 159.5,-67.23 163,-57.23 156,-57.23"/>
<text text-anchor="middle" x="188" y="-41" font-family="Helvetica,sans-Serif" font-size="10.00"> lastSpliced</text>
</g>
<!-- Node3 -->
<g id="node3" class="node">
<title>Node3</title>
<g id="a_node3"><a xlink:href="classObserved.html" target="_top" xlink:title="Objects deriving from this class can be observed by the CellPtr.">
<polygon fill="white" stroke="black" points="0,-134.5 0,-153.5 63,-153.5 63,-134.5 0,-134.5"/>
<text text-anchor="middle" x="31.5" y="-141.5" font-family="Helvetica,sans-Serif" font-size="10.00">Observed</text>
</a>
</g>
</g>
<!-- Node3&#45;&gt;Node2 -->
<g id="edge2" class="edge">
<title>Node3&#45;&gt;Node2</title>
<path fill="none" stroke="midnightblue" d="M47.44,-127.31C55.83,-119.73 66.62,-111.01 77.5,-105 98.23,-93.56 124.61,-85.95 141.77,-81.81"/>
<polygon fill="midnightblue" stroke="midnightblue" points="44.83,-124.96 39.93,-134.35 49.62,-130.06 44.83,-124.96"/>
</g>
<!-- Node4 -->
<g id="node4" class="node">
<title>Node4</title>
<g id="a_node4"><a xlink:href="classAFontSize.html" target="_top" xlink:title="A Type&#45;Safe Fixed&#45;Point Font Size.">
<polygon fill="white" stroke="black" points="75,-268.5 75,-287.5 140,-287.5 140,-268.5 75,-268.5"/>
<text text-anchor="middle" x="107.5" y="-275.5" font-family="Helvetica,sans-Serif" font-size="10.00">AFontSize</text>
</a>
</g>
</g>
<!-- Node4&#45;&gt;Node2 -->
<g id="edge3" class="edge">
<title>Node4&#45;&gt;Node2</title>
<path fill="none" stroke="#9a32cd" stroke-dasharray="5,2" d="M99.52,-259.16C91.2,-238.11 80.4,-202.15 88.5,-172 98.47,-134.87 132.09,-101.58 149.24,-86.51"/>
<polygon fill="#9a32cd" stroke="#9a32cd" points="96.33,-260.59 103.43,-268.46 102.78,-257.88 96.33,-260.59"/>
<text text-anchor="middle" x="136.5" y="-175" font-family="Helvetica,sans-Serif" font-size="10.00"> m_fontSize_Scaled</text>
</g>
<!-- Node8 -->
<g id="node8" class="node">
<title>Node8</title>
<g id="a_node8"><a xlink:href="classStyle.html" target="_top" xlink:title="Text Style Definition.">
<polygon fill="white" stroke="black" points="171,-201.5 171,-220.5 212,-220.5 212,-201.5 171,-201.5"/>
<text text-anchor="middle" x="191.5" y="-208.5" font-family="Helvetica,sans-Serif" font-size="10.00">Style</text>
</a>
</g>
</g>
<!-- Node4&#45;&gt;Node8 -->
<g id="edge8" class="edge">
<title>Node4&#45;&gt;Node8</title>
<path fill="none" stroke="#9a32cd" stroke-dasharray="5,2" d="M126.8,-262.07C143.38,-249.24 166.71,-231.19 180.35,-220.63"/>
<polygon fill="#9a32cd" stroke="#9a32cd" points="124.6,-259.35 118.83,-268.23 128.88,-264.88 124.6,-259.35"/>
<text text-anchor="middle" x="198.5" y="-242" font-family="Helvetica,sans-Serif" font-size="10.00"> Default_FontSize</text>
</g>
<!-- Node5 -->
<g id="node5" class="node">
<title>Node5</title>
<g id="a_node5"><a xlink:href="classCellPtr.html" target="_top" xlink:title=" ">
<polygon fill="white" stroke="black" points="219.5,-134.5 219.5,-153.5 309.5,-153.5 309.5,-134.5 219.5,-134.5"/>
<text text-anchor="middle" x="264.5" y="-141.5" font-family="Helvetica,sans-Serif" font-size="10.00">CellPtr&lt; Cell &gt;</text>
</a>
</g>
</g>
<!-- Node5&#45;&gt;Node2 -->
<g id="edge4" class="edge">
<title>Node5&#45;&gt;Node2</title>
<path fill="none" stroke="#9a32cd" stroke-dasharray="5,2" d="M257.31,-124.68C253.77,-117.68 248.87,-110.15 242.5,-105 223.42,-89.56 195.25,-82.85 177.13,-80"/>
<polygon fill="#9a32cd" stroke="#9a32cd" points="254.29,-126.49 261.54,-134.21 260.69,-123.65 254.29,-126.49"/>
<text text-anchor="middle" x="290.5" y="-108" font-family="Helvetica,sans-Serif" font-size="10.00"> m_nextToDraw</text>
</g>
<!-- Node6 -->
<g id="node6" class="node">
<title>Node6</title>
<g id="a_node6"><a xlink:href="classCellPtrBase.html" target="_top" xlink:title="An implementation detail for the type&#45;specific templated cell pointers.">
<polygon fill="white" stroke="black" points="262,-201.5 262,-220.5 335,-220.5 335,-201.5 262,-201.5"/>
<text text-anchor="middle" x="298.5" y="-208.5" font-family="Helvetica,sans-Serif" font-size="10.00">CellPtrBase</text>
</a>
</g>
</g>
<!-- Node6&#45;&gt;Node5 -->
<g id="edge5" class="edge">
<title>Node6&#45;&gt;Node5</title>
<path fill="none" stroke="midnightblue" d="M289.17,-192.16C282.61,-179.63 274.13,-163.41 269.01,-153.63"/>
<polygon fill="midnightblue" stroke="midnightblue" points="286.18,-194 293.91,-201.23 292.38,-190.75 286.18,-194"/>
</g>
<!-- Node9 -->
<g id="node9" class="node">
<title>Node9</title>
<g id="a_node9"><a xlink:href="classCellPtr.html" target="_top" xlink:title=" ">
<polygon fill="white" stroke="black" points="328,-134.5 328,-153.5 447,-153.5 447,-134.5 328,-134.5"/>
<text text-anchor="middle" x="387.5" y="-141.5" font-family="Helvetica,sans-Serif" font-size="10.00">CellPtr&lt; GroupCell &gt;</text>
</a>
</g>
</g>
<!-- Node6&#45;&gt;Node9 -->
<g id="edge10" class="edge">
<title>Node6&#45;&gt;Node9</title>
<path fill="none" stroke="midnightblue" d="M318.95,-195.07C336.51,-182.24 361.23,-164.19 375.69,-153.63"/>
<polygon fill="midnightblue" stroke="midnightblue" points="316.51,-192.51 310.5,-201.23 320.64,-198.16 316.51,-192.51"/>
</g>
<!-- Node7 -->
<g id="node7" class="node">
<title>Node7</title>
<g id="a_node7"><a xlink:href="classConfiguration.html" target="_top" xlink:title="The configuration storage for the current worksheet.">
<polygon fill="white" stroke="black" points="119.5,-134.5 119.5,-153.5 201.5,-153.5 201.5,-134.5 119.5,-134.5"/>
<text text-anchor="middle" x="160.5" y="-141.5" font-family="Helvetica,sans-Serif" font-size="10.00">Configuration</text>
</a>
</g>
</g>
<!-- Node7&#45;&gt;Node2 -->
<g id="edge6" class="edge">
<title>Node7&#45;&gt;Node2</title>
<path fill="none" stroke="#9a32cd" stroke-dasharray="5,2" d="M160.21,-124.04C160.02,-111.67 159.78,-96.12 159.63,-86.63"/>
<polygon fill="#9a32cd" stroke="#9a32cd" points="156.71,-124.29 160.37,-134.23 163.71,-124.18 156.71,-124.29"/>
<text text-anchor="middle" x="201.5" y="-108" font-family="Helvetica,sans-Serif" font-size="10.00"> m_configuration</text>
</g>
<!-- Node8&#45;&gt;Node7 -->
<g id="edge7" class="edge">
<title>Node8&#45;&gt;Node7</title>
<path fill="none" stroke="#9a32cd" stroke-dasharray="5,2" d="M192.64,-191.05C192.35,-184.74 191.26,-177.83 188.5,-172 185.04,-164.67 178.67,-158.28 172.88,-153.56"/>
<polygon fill="#9a32cd" stroke="#9a32cd" points="189.14,-191.36 192.5,-201.41 196.14,-191.46 189.14,-191.36"/>
<text text-anchor="middle" x="216.5" y="-175" font-family="Helvetica,sans-Serif" font-size="10.00"> m_styles</text>
</g>
<!-- Node9&#45;&gt;Node2 -->
<g id="edge9" class="edge">
<title>Node9&#45;&gt;Node2</title>
<path fill="none" stroke="#9a32cd" stroke-dasharray="5,2" d="M370,-127.86C359.74,-119.79 346.14,-110.44 332.5,-105 278.72,-83.54 209.18,-79.07 177.12,-78.18"/>
<polygon fill="#9a32cd" stroke="#9a32cd" points="367.81,-130.58 377.76,-134.21 372.24,-125.17 367.81,-130.58"/>
<text text-anchor="middle" x="375.5" y="-108" font-family="Helvetica,sans-Serif" font-size="10.00"> m_group</text>
</g>
</g>
</svg>
