<?xml version="1.0" encoding="UTF-8" standalone="no"?>
<!DOCTYPE svg PUBLIC "-//W3C//DTD SVG 1.1//EN"
 "http://www.w3.org/Graphics/SVG/1.1/DTD/svg11.dtd">
<!-- Generated by graphviz version 2.43.0 (0)
 -->
<!-- Title: NSVGimage Pages: 1 -->
<svg width="224pt" height="307pt"
 viewBox="0.00 0.00 223.50 307.00" xmlns="http://www.w3.org/2000/svg" xmlns:xlink="http://www.w3.org/1999/xlink">
<g id="graph0" class="graph" transform="scale(1 1) rotate(0) translate(4 303)">
<title>NSVGimage</title>
<polygon fill="white" stroke="transparent" points="-4,4 -4,-303 219.5,-303 219.5,4 -4,4"/>
<!-- Node1 -->
<g id="node1" class="node">
<title>Node1</title>
<g id="a_node1"><a xlink:title=" ">
<polygon fill="#bfbfbf" stroke="black" points="59.5,-0.5 59.5,-19.5 134.5,-19.5 134.5,-0.5 59.5,-0.5"/>
<text text-anchor="middle" x="97" y="-7.5" font-family="Helvetica,sans-Serif" font-size="10.00">NSVGimage</text>
</a>
</g>
</g>
<!-- Node2 -->
<g id="node2" class="node">
<title>Node2</title>
<g id="a_node2"><a xlink:href="structNSVGshape.html" target="_top" xlink:title=" ">
<polygon fill="white" stroke="black" points="60,-67.5 60,-86.5 134,-86.5 134,-67.5 60,-67.5"/>
<text text-anchor="middle" x="97" y="-74.5" font-family="Helvetica,sans-Serif" font-size="10.00">NSVGshape</text>
</a>
</g>
</g>
<!-- Node2&#45;&gt;Node1 -->
<g id="edge1" class="edge">
<title>Node2&#45;&gt;Node1</title>
<path fill="none" stroke="#9a32cd" stroke-dasharray="5,2" d="M97,-57.04C97,-44.67 97,-29.12 97,-19.63"/>
<polygon fill="#9a32cd" stroke="#9a32cd" points="93.5,-57.23 97,-67.23 100.5,-57.23 93.5,-57.23"/>
<text text-anchor="middle" x="116" y="-41" font-family="Helvetica,sans-Serif" font-size="10.00"> shapes</text>
</g>
<!-- Node2&#45;&gt;Node2 -->
<g id="edge7" class="edge">
<title>Node2&#45;&gt;Node2</title>
<path fill="none" stroke="#9a32cd" stroke-dasharray="5,2" d="M144.19,-81.92C148.96,-80.95 152,-79.3 152,-77 152,-73.31 144.21,-71.32 134.02,-71.04"/>
<polygon fill="#9a32cd" stroke="#9a32cd" points="143.61,-78.46 134.02,-82.96 144.32,-85.43 143.61,-78.46"/>
<text text-anchor="middle" x="164.5" y="-74.5" font-family="Helvetica,sans-Serif" font-size="10.00"> next</text>
</g>
<!-- Node3 -->
<g id="node3" class="node">
<title>Node3</title>
<g id="a_node3"><a xlink:href="structNSVGpath.html" target="_top" xlink:title=" ">
<polygon fill="white" stroke="black" points="0,-145.5 0,-164.5 66,-164.5 66,-145.5 0,-145.5"/>
<text text-anchor="middle" x="33" y="-152.5" font-family="Helvetica,sans-Serif" font-size="10.00">NSVGpath</text>
</a>
</g>
</g>
<!-- Node3&#45;&gt;Node2 -->
<g id="edge2" class="edge">
<title>Node3&#45;&gt;Node2</title>
<path fill="none" stroke="#9a32cd" stroke-dasharray="5,2" d="M46.94,-137.44C60.12,-121.79 79.38,-98.93 89.74,-86.62"/>
<polygon fill="#9a32cd" stroke="#9a32cd" points="44.11,-135.38 40.34,-145.28 49.46,-139.89 44.11,-135.38"/>
<text text-anchor="middle" x="88.5" y="-113.5" font-family="Helvetica,sans-Serif" font-size="10.00"> paths</text>
</g>
<!-- Node3&#45;&gt;Node3 -->
<g id="edge3" class="edge">
<title>Node3&#45;&gt;Node3</title>
<path fill="none" stroke="#9a32cd" stroke-dasharray="5,2" d="M76.65,-159.95C81.13,-158.97 84,-157.32 84,-155 84,-151.19 76.28,-149.19 66.35,-149.01"/>
<polygon fill="#9a32cd" stroke="#9a32cd" points="75.95,-156.5 66.35,-160.99 76.66,-163.46 75.95,-156.5"/>
<text text-anchor="middle" x="96.5" y="-152.5" font-family="Helvetica,sans-Serif" font-size="10.00"> next</text>
</g>
<!-- Node4 -->
<g id="node4" class="node">
<title>Node4</title>
<g id="a_node4"><a xlink:href="structNSVGpaint.html" target="_top" xlink:title=" ">
<polygon fill="white" stroke="black" points="127.5,-145.5 127.5,-164.5 196.5,-164.5 196.5,-145.5 127.5,-145.5"/>
<text text-anchor="middle" x="162" y="-152.5" font-family="Helvetica,sans-Serif" font-size="10.00">NSVGpaint</text>
</a>
</g>
</g>
<!-- Node4&#45;&gt;Node2 -->
<g id="edge4" class="edge">
<title>Node4&#45;&gt;Node2</title>
<path fill="none" stroke="#9a32cd" stroke-dasharray="5,2" d="M147.84,-137.44C134.45,-121.79 114.9,-98.93 104.37,-86.62"/>
<polygon fill="#9a32cd" stroke="#9a32cd" points="145.38,-139.96 154.54,-145.28 150.7,-135.41 145.38,-139.96"/>
<text text-anchor="middle" x="152.5" y="-119" font-family="Helvetica,sans-Serif" font-size="10.00"> fill</text>
<text text-anchor="middle" x="152.5" y="-108" font-family="Helvetica,sans-Serif" font-size="10.00">stroke</text>
</g>
<!-- Node5 -->
<g id="node5" class="node">
<title>Node5</title>
<g id="a_node5"><a xlink:href="structNSVGgradient.html" target="_top" xlink:title=" ">
<polygon fill="white" stroke="black" points="119.5,-212.5 119.5,-231.5 204.5,-231.5 204.5,-212.5 119.5,-212.5"/>
<text text-anchor="middle" x="162" y="-219.5" font-family="Helvetica,sans-Serif" font-size="10.00">NSVGgradient</text>
</a>
</g>
</g>
<!-- Node5&#45;&gt;Node4 -->
<g id="edge5" class="edge">
<title>Node5&#45;&gt;Node4</title>
<path fill="none" stroke="#9a32cd" stroke-dasharray="5,2" d="M162,-202.04C162,-189.67 162,-174.12 162,-164.63"/>
<polygon fill="#9a32cd" stroke="#9a32cd" points="158.5,-202.23 162,-212.23 165.5,-202.23 158.5,-202.23"/>
<text text-anchor="middle" x="184" y="-186" font-family="Helvetica,sans-Serif" font-size="10.00"> gradient</text>
</g>
<!-- Node6 -->
<g id="node6" class="node">
<title>Node6</title>
<g id="a_node6"><a xlink:href="structNSVGgradientStop.html" target="_top" xlink:title=" ">
<polygon fill="white" stroke="black" points="108.5,-279.5 108.5,-298.5 215.5,-298.5 215.5,-279.5 108.5,-279.5"/>
<text text-anchor="middle" x="162" y="-286.5" font-family="Helvetica,sans-Serif" font-size="10.00">NSVGgradientStop</text>
</a>
</g>
</g>
<!-- Node6&#45;&gt;Node5 -->
<g id="edge6" class="edge">
<title>Node6&#45;&gt;Node5</title>
<path fill="none" stroke="#9a32cd" stroke-dasharray="5,2" d="M162,-269.04C162,-256.67 162,-241.12 162,-231.63"/>
<polygon fill="#9a32cd" stroke="#9a32cd" points="158.5,-269.23 162,-279.23 165.5,-269.23 158.5,-269.23"/>
<text text-anchor="middle" x="177" y="-253" font-family="Helvetica,sans-Serif" font-size="10.00"> stops</text>
</g>
</g>
</svg>
