<?xml version="1.0" encoding="UTF-8" standalone="no"?>
<!DOCTYPE svg PUBLIC "-//W3C//DTD SVG 1.1//EN"
 "http://www.w3.org/Graphics/SVG/1.1/DTD/svg11.dtd">
<!-- Generated by graphviz version 2.43.0 (0)
 -->
<!-- Title: WithGroup Pages: 1 -->
<svg width="708pt" height="368pt"
 viewBox="0.00 0.00 707.50 368.00" xmlns="http://www.w3.org/2000/svg" xmlns:xlink="http://www.w3.org/1999/xlink">
<g id="graph0" class="graph" transform="scale(1 1) rotate(0) translate(4 364)">
<title>WithGroup</title>
<!-- Node1 -->
<g id="node1" class="node">
<title>Node1</title>
<g id="a_node1"><a xlink:title=" ">
<polygon fill="#999999" stroke="#666666" points="509.5,-19 441.5,-19 441.5,0 509.5,0 509.5,-19"/>
<text text-anchor="middle" x="475.5" y="-7" font-family="Helvetica,sans-Serif" font-size="10.00">WithGroup</text>
</a>
</g>
</g>
<!-- Node2 -->
<g id="node2" class="node">
<title>Node2</title>
<g id="a_node2"><a xlink:href="classConfiguration.html" target="_top" xlink:title="The configuration storage for the current worksheet.">
<polygon fill="white" stroke="#666666" points="665.5,-283 583.5,-283 583.5,-264 665.5,-264 665.5,-283"/>
<text text-anchor="middle" x="624.5" y="-271" font-family="Helvetica,sans-Serif" font-size="10.00">Configuration</text>
</a>
</g>
</g>
<!-- Node2&#45;&gt;Node1 -->
<g id="edge1" class="edge">
<title>Node2&#45;&gt;Node1</title>
<path fill="none" stroke="#9a32cd" stroke-dasharray="5,2" d="M624.86,-253.84C624.77,-232.79 623.14,-197.74 614.5,-169 604.94,-137.2 600.01,-129.11 579.5,-103 551.44,-67.27 508.51,-34.13 487.68,-19.05"/>
<polygon fill="#9a32cd" stroke="#9a32cd" points="621.36,-253.94 624.78,-263.97 628.36,-254 621.36,-253.94"/>
<text text-anchor="middle" x="622" y="-106" font-family="Helvetica,sans-Serif" font-size="10.00"> configuration</text>
</g>
<!-- Node5 -->
<g id="node5" class="node">
<title>Node5</title>
<g id="a_node5"><a xlink:href="classCell.html" target="_top" xlink:title="The base class all cell types the worksheet can consist of are derived from.">
<polygon fill="white" stroke="#666666" points="258,-151 223,-151 223,-132 258,-132 258,-151"/>
<text text-anchor="middle" x="240.5" y="-139" font-family="Helvetica,sans-Serif" font-size="10.00">Cell</text>
</a>
</g>
</g>
<!-- Node2&#45;&gt;Node5 -->
<g id="edge10" class="edge">
<title>Node2&#45;&gt;Node5</title>
<path fill="none" stroke="#9a32cd" stroke-dasharray="5,2" d="M573.36,-262.29C555.71,-257.84 538.78,-252.22 532.5,-246 507.12,-220.87 537.33,-191.38 509.5,-169 488.4,-152.03 293.06,-156.24 266.5,-151 263.8,-150.47 260.99,-149.74 258.25,-148.93"/>
<polygon fill="#9a32cd" stroke="#9a32cd" points="572.64,-265.72 583.18,-264.64 574.27,-258.91 572.64,-265.72"/>
<text text-anchor="middle" x="573.5" y="-205" font-family="Helvetica,sans-Serif" font-size="10.00"> m_configuration</text>
</g>
<!-- Node3 -->
<g id="node3" class="node">
<title>Node3</title>
<g id="a_node3"><a xlink:href="structConfiguration_1_1PerformanceStats.html" target="_top" xlink:title=" ">
<polygon fill="white" stroke="#bfbfbf" points="699.5,-360 549.5,-360 549.5,-330 699.5,-330 699.5,-360"/>
<text text-anchor="start" x="557.5" y="-348" font-family="Helvetica,sans-Serif" font-size="10.00">Configuration::Performance</text>
<text text-anchor="middle" x="624.5" y="-337" font-family="Helvetica,sans-Serif" font-size="10.00">Stats</text>
</a>
</g>
</g>
<!-- Node3&#45;&gt;Node2 -->
<g id="edge2" class="edge">
<title>Node3&#45;&gt;Node2</title>
<path fill="none" stroke="#9a32cd" stroke-dasharray="5,2" d="M624.5,-319.56C624.5,-306.95 624.5,-292.35 624.5,-283.27"/>
<polygon fill="#9a32cd" stroke="#9a32cd" points="621,-319.94 624.5,-329.94 628,-319.94 621,-319.94"/>
<text text-anchor="middle" x="644" y="-304" font-family="Helvetica,sans-Serif" font-size="10.00"> g_stats</text>
</g>
<!-- Node4 -->
<g id="node4" class="node">
<title>Node4</title>
<g id="a_node4"><a xlink:href="classGroupCell.html" target="_top" xlink:title="A cell grouping input (and, if there is one, also the output) cell to a foldable item.">
<polygon fill="white" stroke="#666666" points="371,-85 306,-85 306,-66 371,-66 371,-85"/>
<text text-anchor="middle" x="338.5" y="-73" font-family="Helvetica,sans-Serif" font-size="10.00">GroupCell</text>
</a>
</g>
</g>
<!-- Node4&#45;&gt;Node1 -->
<g id="edge3" class="edge">
<title>Node4&#45;&gt;Node1</title>
<path fill="none" stroke="#9a32cd" stroke-dasharray="5,2" d="M366.27,-61.53C393.27,-48.92 433.52,-30.11 456.88,-19.2"/>
<polygon fill="#9a32cd" stroke="#9a32cd" points="364.56,-58.47 356.98,-65.87 367.52,-64.81 364.56,-58.47"/>
<text text-anchor="middle" x="431" y="-40" font-family="Helvetica,sans-Serif" font-size="10.00"> group</text>
</g>
<!-- Node4&#45;&gt;Node4 -->
<g id="edge15" class="edge">
<title>Node4&#45;&gt;Node4</title>
<path fill="none" stroke="#9a32cd" stroke-dasharray="5,2" d="M381.14,-80.57C385.91,-79.61 389,-77.92 389,-75.5 389,-71.62 381.1,-69.63 371.04,-69.51"/>
<polygon fill="#9a32cd" stroke="#9a32cd" points="380.68,-77.09 371.04,-81.49 381.32,-84.06 380.68,-77.09"/>
<text text-anchor="middle" x="440.5" y="-73" font-family="Helvetica,sans-Serif" font-size="10.00"> m_hiddenTreeParent</text>
</g>
<!-- Node5&#45;&gt;Node4 -->
<g id="edge4" class="edge">
<title>Node5&#45;&gt;Node4</title>
<path fill="none" stroke="#63b8ff" d="M262.17,-126.35C281.43,-113.77 308.98,-95.78 325.18,-85.2"/>
<polygon fill="#63b8ff" stroke="#63b8ff" points="260.18,-123.47 253.72,-131.87 264,-129.33 260.18,-123.47"/>
</g>
<!-- Node6 -->
<g id="node6" class="node">
<title>Node6</title>
<g id="a_node6"><a xlink:href="classObserved.html" target="_top" xlink:title="Objects deriving from this class can be observed by the CellPtr.">
<polygon fill="white" stroke="#666666" points="146,-283 83,-283 83,-264 146,-264 146,-283"/>
<text text-anchor="middle" x="114.5" y="-271" font-family="Helvetica,sans-Serif" font-size="10.00">Observed</text>
</a>
</g>
</g>
<!-- Node6&#45;&gt;Node5 -->
<g id="edge5" class="edge">
<title>Node6&#45;&gt;Node5</title>
<path fill="none" stroke="#63b8ff" d="M141.62,-258.96C147.84,-255.21 154.18,-250.83 159.5,-246 190.83,-217.56 188.48,-201.57 215.5,-169 220.67,-162.77 226.92,-156.14 231.88,-151.08"/>
<polygon fill="#63b8ff" stroke="#63b8ff" points="139.72,-256.01 132.73,-263.97 143.16,-262.11 139.72,-256.01"/>
</g>
<!-- Node7 -->
<g id="node7" class="node">
<title>Node7</title>
<g id="a_node7"><a xlink:href="classCellPtr.html" target="_top" xlink:title=" ">
<polygon fill="white" stroke="#666666" points="283,-283 164,-283 164,-264 283,-264 283,-283"/>
<text text-anchor="middle" x="223.5" y="-271" font-family="Helvetica,sans-Serif" font-size="10.00">CellPtr&lt; GroupCell &gt;</text>
</a>
</g>
</g>
<!-- Node7&#45;&gt;Node5 -->
<g id="edge6" class="edge">
<title>Node7&#45;&gt;Node5</title>
<path fill="none" stroke="#9a32cd" stroke-dasharray="5,2" d="M220.77,-253.84C218.36,-232.79 216.35,-197.73 224.5,-169 226.32,-162.59 230.13,-156.17 233.58,-151.26"/>
<polygon fill="#9a32cd" stroke="#9a32cd" points="217.33,-254.5 222.1,-263.97 224.27,-253.6 217.33,-254.5"/>
<text text-anchor="middle" x="247.5" y="-205" font-family="Helvetica,sans-Serif" font-size="10.00"> m_group</text>
</g>
<!-- Node8 -->
<g id="node8" class="node">
<title>Node8</title>
<g id="a_node8"><a xlink:href="classCellPtrBase.html" target="_top" xlink:title="An implementation detail for the type&#45;specific templated cell pointers.">
<polygon fill="white" stroke="#666666" points="309,-354.5 236,-354.5 236,-335.5 309,-335.5 309,-354.5"/>
<text text-anchor="middle" x="272.5" y="-342.5" font-family="Helvetica,sans-Serif" font-size="10.00">CellPtrBase</text>
</a>
</g>
</g>
<!-- Node8&#45;&gt;Node7 -->
<g id="edge7" class="edge">
<title>Node8&#45;&gt;Node7</title>
<path fill="none" stroke="#63b8ff" d="M260.68,-327.24C250.86,-313.31 237.3,-294.07 229.56,-283.09"/>
<polygon fill="#63b8ff" stroke="#63b8ff" points="257.87,-329.32 266.49,-335.48 263.59,-325.29 257.87,-329.32"/>
</g>
<!-- Node9 -->
<g id="node9" class="node">
<title>Node9</title>
<g id="a_node9"><a xlink:href="classCellPtr.html" target="_top" xlink:title=" ">
<polygon fill="white" stroke="#666666" points="391.5,-283 301.5,-283 301.5,-264 391.5,-264 391.5,-283"/>
<text text-anchor="middle" x="346.5" y="-271" font-family="Helvetica,sans-Serif" font-size="10.00">CellPtr&lt; Cell &gt;</text>
</a>
</g>
</g>
<!-- Node8&#45;&gt;Node9 -->
<g id="edge9" class="edge">
<title>Node8&#45;&gt;Node9</title>
<path fill="none" stroke="#63b8ff" d="M289.09,-328.42C304,-314.42 325.33,-294.38 337.35,-283.09"/>
<polygon fill="#63b8ff" stroke="#63b8ff" points="286.47,-326.08 281.57,-335.48 291.26,-331.18 286.47,-326.08"/>
</g>
<!-- Node9&#45;&gt;Node5 -->
<g id="edge8" class="edge">
<title>Node9&#45;&gt;Node5</title>
<path fill="none" stroke="#9a32cd" stroke-dasharray="5,2" d="M310.16,-259.36C303.94,-255.81 298.03,-251.4 293.5,-246 270.53,-218.65 289.74,-199.09 270.5,-169 266.01,-161.97 259.14,-155.71 253.1,-151.04"/>
<polygon fill="#9a32cd" stroke="#9a32cd" points="308.86,-262.63 319.36,-263.99 312,-256.37 308.86,-262.63"/>
<text text-anchor="middle" x="331.5" y="-205" font-family="Helvetica,sans-Serif" font-size="10.00"> m_nextToDraw</text>
</g>
<!-- Node10 -->
<g id="node10" class="node">
<title>Node10</title>
<g id="a_node10"><a xlink:href="classCachedInteger.html" target="_top" xlink:title=" ">
<polygon fill="white" stroke="#666666" points="561.5,-283 409.5,-283 409.5,-264 561.5,-264 561.5,-283"/>
<text text-anchor="middle" x="485.5" y="-271" font-family="Helvetica,sans-Serif" font-size="10.00">CachedInteger&lt; wxCoord &gt;</text>
</a>
</g>
</g>
<!-- Node10&#45;&gt;Node5 -->
<g id="edge11" class="edge">
<title>Node10&#45;&gt;Node5</title>
<path fill="none" stroke="#9a32cd" stroke-dasharray="5,2" d="M413.5,-260.16C405.75,-256.56 398.51,-251.93 392.5,-246 367.09,-220.91 396.19,-192.73 369.5,-169 334.77,-138.12 311.59,-162.25 266.5,-151 263.74,-150.31 260.84,-149.48 258.02,-148.61"/>
<polygon fill="#9a32cd" stroke="#9a32cd" points="412.22,-263.42 422.8,-263.94 414.85,-256.93 412.22,-263.42"/>
<text text-anchor="middle" x="451" y="-238" font-family="Helvetica,sans-Serif" font-size="10.00"> m_cachedCenterList</text>
<text text-anchor="middle" x="451" y="-227" font-family="Helvetica,sans-Serif" font-size="10.00">m_cachedLineWidth</text>
<text text-anchor="middle" x="451" y="-216" font-family="Helvetica,sans-Serif" font-size="10.00">m_cachedMaxDrop</text>
<text text-anchor="middle" x="451" y="-205" font-family="Helvetica,sans-Serif" font-size="10.00">m_cachedSumOfWidths</text>
<text text-anchor="middle" x="451" y="-194" font-family="Helvetica,sans-Serif" font-size="10.00">m_center</text>
<text text-anchor="middle" x="451" y="-183" font-family="Helvetica,sans-Serif" font-size="10.00">m_height</text>
<text text-anchor="middle" x="451" y="-172" font-family="Helvetica,sans-Serif" font-size="10.00">m_width</text>
</g>
<!-- Node11 -->
<g id="node11" class="node">
<title>Node11</title>
<g id="a_node11"><a xlink:href="classAFontSize.html" target="_top" xlink:title="A Type&#45;Safe Fixed&#45;Point Font Size.">
<polygon fill="white" stroke="#666666" points="65,-283 0,-283 0,-264 65,-264 65,-283"/>
<text text-anchor="middle" x="32.5" y="-271" font-family="Helvetica,sans-Serif" font-size="10.00">AFontSize</text>
</a>
</g>
</g>
<!-- Node11&#45;&gt;Node4 -->
<g id="edge16" class="edge">
<title>Node11&#45;&gt;Node4</title>
<path fill="none" stroke="#9a32cd" stroke-dasharray="5,2" d="M29.95,-253.8C27.95,-231.38 28.04,-193.76 46.5,-169 108.01,-86.51 243.36,-75.87 305.78,-75.6"/>
<polygon fill="#9a32cd" stroke="#9a32cd" points="26.5,-254.44 31.1,-263.98 33.46,-253.65 26.5,-254.44"/>
<text text-anchor="middle" x="125" y="-139" font-family="Helvetica,sans-Serif" font-size="10.00"> m_mathFontSize</text>
</g>
<!-- Node11&#45;&gt;Node5 -->
<g id="edge12" class="edge">
<title>Node11&#45;&gt;Node5</title>
<path fill="none" stroke="#9a32cd" stroke-dasharray="5,2" d="M40.44,-254.39C41.54,-251.61 42.6,-248.74 43.5,-246 54.51,-212.52 36.43,-192.72 62.5,-169 74.28,-158.28 180.32,-147.82 222.91,-144.01"/>
<polygon fill="#9a32cd" stroke="#9a32cd" points="37.14,-253.22 36.51,-263.79 43.6,-255.92 37.14,-253.22"/>
<text text-anchor="middle" x="109" y="-210.5" font-family="Helvetica,sans-Serif" font-size="10.00"> m_fontSize</text>
<text text-anchor="middle" x="109" y="-199.5" font-family="Helvetica,sans-Serif" font-size="10.00">m_fontSize_Scaled</text>
</g>
<!-- Node12 -->
<g id="node12" class="node">
<title>Node12</title>
<g id="a_node12"><a xlink:href="classDocumentCellPointers.html" target="_top" xlink:title="The document&#45;model half of the cell&#45;pointer registry.">
<polygon fill="white" stroke="#666666" points="401,-151 276,-151 276,-132 401,-132 401,-151"/>
<text text-anchor="middle" x="338.5" y="-139" font-family="Helvetica,sans-Serif" font-size="10.00">DocumentCellPointers</text>
</a>
</g>
</g>
<!-- Node12&#45;&gt;Node4 -->
<g id="edge13" class="edge">
<title>Node12&#45;&gt;Node4</title>
<path fill="none" stroke="#9a32cd" stroke-dasharray="5,2" d="M338.5,-121.58C338.5,-109.63 338.5,-94.72 338.5,-85.41"/>
<polygon fill="#9a32cd" stroke="#9a32cd" points="335,-121.87 338.5,-131.87 342,-121.87 335,-121.87"/>
<text text-anchor="middle" x="401.5" y="-106" font-family="Helvetica,sans-Serif" font-size="10.00"> m_documentCellPointers</text>
</g>
<!-- Node13 -->
<g id="node13" class="node">
<title>Node13</title>
<g id="a_node13"><a xlink:href="classViewCellPointers.html" target="_top" xlink:title="The view/interaction half of the cell&#45;pointer registry.">
<polygon fill="white" stroke="#666666" points="537,-151 438,-151 438,-132 537,-132 537,-151"/>
<text text-anchor="middle" x="487.5" y="-139" font-family="Helvetica,sans-Serif" font-size="10.00">ViewCellPointers</text>
</a>
</g>
</g>
<!-- Node13&#45;&gt;Node4 -->
<g id="edge14" class="edge">
<title>Node13&#45;&gt;Node4</title>
<path fill="none" stroke="#9a32cd" stroke-dasharray="5,2" d="M480.66,-122.32C477.15,-115.29 472.17,-107.79 465.5,-103 437.88,-83.16 398.66,-77.5 371.13,-76.2"/>
<polygon fill="#9a32cd" stroke="#9a32cd" points="477.63,-124.13 484.8,-131.93 484.06,-121.36 477.63,-124.13"/>
<text text-anchor="middle" x="525.5" y="-106" font-family="Helvetica,sans-Serif" font-size="10.00"> m_viewCellPointers</text>
</g>
</g>
</svg>
