<?xml version="1.0" encoding="UTF-8" standalone="no"?>
<!DOCTYPE svg PUBLIC "-//W3C//DTD SVG 1.1//EN"
 "http://www.w3.org/Graphics/SVG/1.1/DTD/svg11.dtd">
<!-- Generated by graphviz version 2.43.0 (0)
 -->
<!-- Title: Catch::Matchers::Impl::MatcherMethod&lt; ObjectT &gt; Pages: 1 -->
<svg width="545pt" height="307pt"
 viewBox="0.00 0.00 545.00 307.00" xmlns="http://www.w3.org/2000/svg" xmlns:xlink="http://www.w3.org/1999/xlink">
<g id="graph0" class="graph" transform="scale(1 1) rotate(0) translate(4 303)">
<title>Catch::Matchers::Impl::MatcherMethod&lt; ObjectT &gt;</title>
<polygon fill="white" stroke="transparent" points="-4,4 -4,-303 541,-303 541,4 -4,4"/>
<!-- Node1 -->
<g id="node1" class="node">
<title>Node1</title>
<g id="a_node1"><a xlink:title=" ">
<polygon fill="#bfbfbf" stroke="black" points="0,-134.5 0,-164.5 159,-164.5 159,-134.5 0,-134.5"/>
<text text-anchor="start" x="8" y="-152.5" font-family="Helvetica,sans-Serif" font-size="10.00">Catch::Matchers::Impl</text>
<text text-anchor="middle" x="79.5" y="-141.5" font-family="Helvetica,sans-Serif" font-size="10.00">::MatcherMethod&lt; ObjectT &gt;</text>
</a>
</g>
</g>
<!-- Node2 -->
<g id="node2" class="node">
<title>Node2</title>
<g id="a_node2"><a xlink:href="structCatch_1_1Matchers_1_1Impl_1_1MatcherBase.html" target="_top" xlink:title=" ">
<polygon fill="white" stroke="black" points="213,-268.5 213,-298.5 355,-298.5 355,-268.5 213,-268.5"/>
<text text-anchor="start" x="221" y="-286.5" font-family="Helvetica,sans-Serif" font-size="10.00">Catch::Matchers::Impl</text>
<text text-anchor="middle" x="284" y="-275.5" font-family="Helvetica,sans-Serif" font-size="10.00">::MatcherBase&lt; double &gt;</text>
</a>
</g>
</g>
<!-- Node1&#45;&gt;Node2 -->
<g id="edge1" class="edge">
<title>Node1&#45;&gt;Node2</title>
<path fill="none" stroke="midnightblue" d="M98.5,-172.67C119.17,-197.71 155.36,-237.02 195,-259.5 201.06,-262.94 207.64,-265.9 214.38,-268.45"/>
<polygon fill="midnightblue" stroke="midnightblue" points="101.12,-170.34 92.11,-164.77 95.68,-174.75 101.12,-170.34"/>
</g>
<!-- Node3 -->
<g id="node3" class="node">
<title>Node3</title>
<g id="a_node3"><a xlink:href="structCatch_1_1Matchers_1_1Impl_1_1MatcherBase.html" target="_top" xlink:title=" ">
<polygon fill="white" stroke="black" points="205,-219.5 205,-249.5 363,-249.5 363,-219.5 205,-219.5"/>
<text text-anchor="start" x="213" y="-237.5" font-family="Helvetica,sans-Serif" font-size="10.00">Catch::Matchers::Impl</text>
<text text-anchor="middle" x="284" y="-226.5" font-family="Helvetica,sans-Serif" font-size="10.00">::MatcherBase&lt; std::string &gt;</text>
</a>
</g>
</g>
<!-- Node1&#45;&gt;Node3 -->
<g id="edge2" class="edge">
<title>Node1&#45;&gt;Node3</title>
<path fill="none" stroke="midnightblue" d="M114.46,-169.66C136.8,-182.32 166.97,-198.31 195,-209.5 204.15,-213.15 214.02,-216.5 223.74,-219.48"/>
<polygon fill="midnightblue" stroke="midnightblue" points="116.12,-166.58 105.7,-164.64 112.64,-172.65 116.12,-166.58"/>
</g>
<!-- Node4 -->
<g id="node4" class="node">
<title>Node4</title>
<g id="a_node4"><a xlink:href="structCatch_1_1Matchers_1_1Impl_1_1MatcherBase.html" target="_top" xlink:title=" ">
<polygon fill="white" stroke="black" points="209.5,-159 209.5,-200 358.5,-200 358.5,-159 209.5,-159"/>
<text text-anchor="start" x="217.5" y="-188" font-family="Helvetica,sans-Serif" font-size="10.00">Catch::Matchers::Impl</text>
<text text-anchor="start" x="217.5" y="-177" font-family="Helvetica,sans-Serif" font-size="10.00">::MatcherBase&lt; std::vector</text>
<text text-anchor="middle" x="284" y="-166" font-family="Helvetica,sans-Serif" font-size="10.00">&lt; T, AllocMatch &gt; &gt;</text>
</a>
</g>
</g>
<!-- Node1&#45;&gt;Node4 -->
<g id="edge3" class="edge">
<title>Node1&#45;&gt;Node4</title>
<path fill="none" stroke="midnightblue" d="M169.27,-162.65C182.68,-164.64 196.39,-166.67 209.44,-168.6"/>
<polygon fill="midnightblue" stroke="midnightblue" points="169.49,-159.15 159.08,-161.14 168.46,-166.07 169.49,-159.15"/>
</g>
<!-- Node5 -->
<g id="node5" class="node">
<title>Node5</title>
<g id="a_node5"><a xlink:href="structCatch_1_1Matchers_1_1Impl_1_1MatcherBase.html" target="_top" xlink:title=" ">
<polygon fill="white" stroke="black" points="209.5,-99 209.5,-140 358.5,-140 358.5,-99 209.5,-99"/>
<text text-anchor="start" x="217.5" y="-128" font-family="Helvetica,sans-Serif" font-size="10.00">Catch::Matchers::Impl</text>
<text text-anchor="start" x="217.5" y="-117" font-family="Helvetica,sans-Serif" font-size="10.00">::MatcherBase&lt; std::vector</text>
<text text-anchor="middle" x="284" y="-106" font-family="Helvetica,sans-Serif" font-size="10.00">&lt; T, Alloc &gt; &gt;</text>
</a>
</g>
</g>
<!-- Node1&#45;&gt;Node5 -->
<g id="edge4" class="edge">
<title>Node1&#45;&gt;Node5</title>
<path fill="none" stroke="midnightblue" d="M169.27,-136.35C182.68,-134.36 196.39,-132.33 209.44,-130.4"/>
<polygon fill="midnightblue" stroke="midnightblue" points="168.46,-132.93 159.08,-137.86 169.49,-139.85 168.46,-132.93"/>
</g>
<!-- Node6 -->
<g id="node6" class="node">
<title>Node6</title>
<g id="a_node6"><a xlink:href="structCatch_1_1Matchers_1_1Impl_1_1MatcherBase.html" target="_top" xlink:title=" ">
<polygon fill="white" stroke="black" points="218.5,-49.5 218.5,-79.5 349.5,-79.5 349.5,-49.5 218.5,-49.5"/>
<text text-anchor="start" x="226.5" y="-67.5" font-family="Helvetica,sans-Serif" font-size="10.00">Catch::Matchers::Impl</text>
<text text-anchor="middle" x="284" y="-56.5" font-family="Helvetica,sans-Serif" font-size="10.00">::MatcherBase&lt; ArgT &gt;</text>
</a>
</g>
</g>
<!-- Node1&#45;&gt;Node6 -->
<g id="edge5" class="edge">
<title>Node1&#45;&gt;Node6</title>
<path fill="none" stroke="midnightblue" d="M114.46,-129.34C136.8,-116.68 166.97,-100.69 195,-89.5 204.15,-85.85 214.02,-82.5 223.74,-79.52"/>
<polygon fill="midnightblue" stroke="midnightblue" points="112.64,-126.35 105.7,-134.36 116.12,-132.42 112.64,-126.35"/>
</g>
<!-- Node10 -->
<g id="node10" class="node">
<title>Node10</title>
<g id="a_node10"><a xlink:href="structCatch_1_1Matchers_1_1Impl_1_1MatcherBase.html" target="_top" xlink:title=" ">
<polygon fill="white" stroke="black" points="195,-0.5 195,-30.5 373,-30.5 373,-0.5 195,-0.5"/>
<text text-anchor="start" x="203" y="-18.5" font-family="Helvetica,sans-Serif" font-size="10.00">Catch::Matchers::Impl</text>
<text text-anchor="middle" x="284" y="-7.5" font-family="Helvetica,sans-Serif" font-size="10.00">::MatcherBase&lt; std::exception &gt;</text>
</a>
</g>
</g>
<!-- Node1&#45;&gt;Node10 -->
<g id="edge9" class="edge">
<title>Node1&#45;&gt;Node10</title>
<path fill="none" stroke="midnightblue" d="M98.59,-126.62C119.34,-101.89 155.6,-63 195,-40.5 201.76,-36.64 209.15,-33.34 216.69,-30.53"/>
<polygon fill="midnightblue" stroke="midnightblue" points="95.82,-124.48 92.17,-134.43 101.23,-128.93 95.82,-124.48"/>
</g>
<!-- Node7 -->
<g id="node7" class="node">
<title>Node7</title>
<g id="a_node7"><a xlink:href="structCatch_1_1Matchers_1_1Impl_1_1MatchAllOf.html" target="_top" xlink:title=" ">
<polygon fill="white" stroke="black" points="411.5,-98.5 411.5,-128.5 534.5,-128.5 534.5,-98.5 411.5,-98.5"/>
<text text-anchor="start" x="419.5" y="-116.5" font-family="Helvetica,sans-Serif" font-size="10.00">Catch::Matchers::Impl</text>
<text text-anchor="middle" x="473" y="-105.5" font-family="Helvetica,sans-Serif" font-size="10.00">::MatchAllOf&lt; ArgT &gt;</text>
</a>
</g>
</g>
<!-- Node6&#45;&gt;Node7 -->
<g id="edge6" class="edge">
<title>Node6&#45;&gt;Node7</title>
<path fill="none" stroke="midnightblue" d="M352.25,-82.12C372.71,-87.48 395,-93.32 414.73,-98.49"/>
<polygon fill="midnightblue" stroke="midnightblue" points="352.94,-78.68 342.38,-79.53 351.16,-85.46 352.94,-78.68"/>
</g>
<!-- Node8 -->
<g id="node8" class="node">
<title>Node8</title>
<g id="a_node8"><a xlink:href="structCatch_1_1Matchers_1_1Impl_1_1MatchAnyOf.html" target="_top" xlink:title=" ">
<polygon fill="white" stroke="black" points="409,-49.5 409,-79.5 537,-79.5 537,-49.5 409,-49.5"/>
<text text-anchor="start" x="417" y="-67.5" font-family="Helvetica,sans-Serif" font-size="10.00">Catch::Matchers::Impl</text>
<text text-anchor="middle" x="473" y="-56.5" font-family="Helvetica,sans-Serif" font-size="10.00">::MatchAnyOf&lt; ArgT &gt;</text>
</a>
</g>
</g>
<!-- Node6&#45;&gt;Node8 -->
<g id="edge7" class="edge">
<title>Node6&#45;&gt;Node8</title>
<path fill="none" stroke="midnightblue" d="M359.66,-64.5C376,-64.5 393.13,-64.5 408.96,-64.5"/>
<polygon fill="midnightblue" stroke="midnightblue" points="359.62,-61 349.62,-64.5 359.62,-68 359.62,-61"/>
</g>
<!-- Node9 -->
<g id="node9" class="node">
<title>Node9</title>
<g id="a_node9"><a xlink:href="structCatch_1_1Matchers_1_1Impl_1_1MatchNotOf.html" target="_top" xlink:title=" ">
<polygon fill="white" stroke="black" points="410,-0.5 410,-30.5 536,-30.5 536,-0.5 410,-0.5"/>
<text text-anchor="start" x="418" y="-18.5" font-family="Helvetica,sans-Serif" font-size="10.00">Catch::Matchers::Impl</text>
<text text-anchor="middle" x="473" y="-7.5" font-family="Helvetica,sans-Serif" font-size="10.00">::MatchNotOf&lt; ArgT &gt;</text>
</a>
</g>
</g>
<!-- Node6&#45;&gt;Node9 -->
<g id="edge8" class="edge">
<title>Node6&#45;&gt;Node9</title>
<path fill="none" stroke="midnightblue" d="M352.25,-46.88C372.71,-41.52 395,-35.68 414.73,-30.51"/>
<polygon fill="midnightblue" stroke="midnightblue" points="351.16,-43.54 342.38,-49.47 352.94,-50.32 351.16,-43.54"/>
</g>
</g>
</svg>
