<?xml version="1.0" encoding="UTF-8" standalone="no"?>
<!DOCTYPE svg PUBLIC "-//W3C//DTD SVG 1.1//EN"
 "http://www.w3.org/Graphics/SVG/1.1/DTD/svg11.dtd">
<!-- Generated by graphviz version 2.43.0 (0)
 -->
<!-- Title: Catch::is_range&lt; T &gt; Pages: 1 -->
<svg width="136pt" height="148pt"
 viewBox="0.00 0.00 136.00 148.00" xmlns="http://www.w3.org/2000/svg" xmlns:xlink="http://www.w3.org/1999/xlink">
<g id="graph0" class="graph" transform="scale(1 1) rotate(0) translate(4 144)">
<title>Catch::is_range&lt; T &gt;</title>
<!-- Node1 -->
<g id="node1" class="node">
<title>Node1</title>
<g id="a_node1"><a xlink:title=" ">
<polygon fill="#999999" stroke="#666666" points="124,-19 4,-19 4,0 124,0 124,-19"/>
<text text-anchor="middle" x="64" y="-7" font-family="Helvetica,sans-Serif" font-size="10.00">Catch::is_range&lt; T &gt;</text>
</a>
</g>
</g>
<!-- Node2 -->
<g id="node2" class="node">
<title>Node2</title>
<g id="a_node2"><a xlink:href="structCatch_1_1detail_1_1is__range__impl.html" target="_top" xlink:title=" ">
<polygon fill="white" stroke="#bfbfbf" points="128,-85 0,-85 0,-55 128,-55 128,-85"/>
<text text-anchor="start" x="8" y="-73" font-family="Helvetica,sans-Serif" font-size="10.00">Catch::detail::is_range</text>
<text text-anchor="middle" x="64" y="-62" font-family="Helvetica,sans-Serif" font-size="10.00">_impl&lt; T, typename &gt;</text>
</a>
</g>
</g>
<!-- Node2&#45;&gt;Node1 -->
<g id="edge1" class="edge">
<title>Node2&#45;&gt;Node1</title>
<path fill="none" stroke="#63b8ff" d="M64,-44.75C64,-35.72 64,-26.03 64,-19.27"/>
<polygon fill="#63b8ff" stroke="#63b8ff" points="60.5,-44.84 64,-54.84 67.5,-44.84 60.5,-44.84"/>
</g>
<!-- Node3 -->
<g id="node3" class="node">
<title>Node3</title>
<g id="a_node3"><a xlink:title=" ">
<polygon fill="white" stroke="#bfbfbf" points="108.5,-140 19.5,-140 19.5,-121 108.5,-121 108.5,-140"/>
<text text-anchor="middle" x="64" y="-128" font-family="Helvetica,sans-Serif" font-size="10.00">std::false_type</text>
</a>
</g>
</g>
<!-- Node3&#45;&gt;Node2 -->
<g id="edge2" class="edge">
<title>Node3&#45;&gt;Node2</title>
<path fill="none" stroke="#63b8ff" d="M64,-110.65C64,-102.36 64,-92.78 64,-85.11"/>
<polygon fill="#63b8ff" stroke="#63b8ff" points="60.5,-110.87 64,-120.87 67.5,-110.87 60.5,-110.87"/>
</g>
</g>
</svg>
