<?xml version="1.0" encoding="UTF-8" standalone="no"?>
<!DOCTYPE svg PUBLIC "-//W3C//DTD SVG 1.1//EN"
 "http://www.w3.org/Graphics/SVG/1.1/DTD/svg11.dtd">
<!-- Generated by graphviz version 2.43.0 (0)
 -->
<!-- Title: src/cells/SubCell.cpp Pages: 1 -->
<svg width="1906pt" height="412pt"
 viewBox="0.00 0.00 1905.90 412.00" xmlns="http://www.w3.org/2000/svg" xmlns:xlink="http://www.w3.org/1999/xlink">
<g id="graph0" class="graph" transform="scale(1 1) rotate(0) translate(4 408)">
<title>src/cells/SubCell.cpp</title>
<!-- Node1 -->
<g id="node1" class="node">
<title>Node1</title>
<g id="a_node1"><a xlink:title="This file defines the class SubCell.">
<polygon fill="#999999" stroke="#666666" points="656,-404 540,-404 540,-385 656,-385 656,-404"/>
<text text-anchor="middle" x="598" y="-392" font-family="Helvetica,sans-Serif" font-size="10.00">src/cells/SubCell.cpp</text>
</a>
</g>
</g>
<!-- Node2 -->
<g id="node2" class="node">
<title>Node2</title>
<g id="a_node2"><a xlink:href="SubCell_8h_source.html" target="_top" xlink:title=" ">
<polygon fill="white" stroke="#666666" points="662,-349 600,-349 600,-330 662,-330 662,-349"/>
<text text-anchor="middle" x="631" y="-337" font-family="Helvetica,sans-Serif" font-size="10.00">SubCell.h</text>
</a>
</g>
</g>
<!-- Node1&#45;&gt;Node2 -->
<g id="edge1" class="edge">
<title>Node1&#45;&gt;Node2</title>
<path fill="none" stroke="#63b8ff" d="M603.45,-384.75C608.01,-377.42 614.67,-366.73 620.29,-357.7"/>
<polygon fill="#63b8ff" stroke="#63b8ff" points="623.34,-359.43 625.65,-349.09 617.4,-355.73 623.34,-359.43"/>
</g>
<!-- Node52 -->
<g id="node50" class="node">
<title>Node52</title>
<g id="a_node50"><a xlink:href="CellImpl_8h.html" target="_top" xlink:title="Macros and types used only by cell implementations, not by cell users.">
<polygon fill="white" stroke="#666666" points="595,-294 529,-294 529,-275 595,-275 595,-294"/>
<text text-anchor="middle" x="562" y="-282" font-family="Helvetica,sans-Serif" font-size="10.00">CellImpl.h</text>
</a>
</g>
</g>
<!-- Node1&#45;&gt;Node52 -->
<g id="edge86" class="edge">
<title>Node1&#45;&gt;Node52</title>
<path fill="none" stroke="#63b8ff" d="M595.05,-384.66C589.2,-367.09 575.98,-327.45 568.15,-303.95"/>
<polygon fill="#63b8ff" stroke="#63b8ff" points="571.37,-302.54 564.89,-294.16 564.73,-304.75 571.37,-302.54"/>
</g>
<!-- Node3 -->
<g id="node3" class="node">
<title>Node3</title>
<g id="a_node3"><a xlink:href="Cell_8h.html" target="_top" xlink:title="The definition of the base class of all cells the worksheet consists of.">
<polygon fill="white" stroke="#666666" points="1101,-294 1057,-294 1057,-275 1101,-275 1101,-294"/>
<text text-anchor="middle" x="1079" y="-282" font-family="Helvetica,sans-Serif" font-size="10.00">Cell.h</text>
</a>
</g>
</g>
<!-- Node2&#45;&gt;Node3 -->
<g id="edge2" class="edge">
<title>Node2&#45;&gt;Node3</title>
<path fill="none" stroke="#63b8ff" d="M662.15,-334.82C743.89,-325.14 963.94,-299.11 1046.83,-289.31"/>
<polygon fill="#63b8ff" stroke="#63b8ff" points="1047.39,-292.76 1056.91,-288.11 1046.57,-285.81 1047.39,-292.76"/>
</g>
<!-- Node4 -->
<g id="node4" class="node">
<title>Node4</title>
<g id="a_node4"><a xlink:href="precomp_8h_source.html" target="_top" xlink:title=" ">
<polygon fill="white" stroke="#666666" points="1229.5,-74 1152.5,-74 1152.5,-55 1229.5,-55 1229.5,-74"/>
<text text-anchor="middle" x="1191" y="-62" font-family="Helvetica,sans-Serif" font-size="10.00">../precomp.h</text>
</a>
</g>
</g>
<!-- Node3&#45;&gt;Node4 -->
<g id="edge3" class="edge">
<title>Node3&#45;&gt;Node4</title>
<path fill="none" stroke="#63b8ff" d="M1101.27,-280.08C1189.94,-265.96 1516,-209.18 1575,-129 1580.01,-122.2 1580.62,-116.31 1575,-110 1563.97,-97.61 1340.84,-77.81 1239.88,-69.44"/>
<polygon fill="#63b8ff" stroke="#63b8ff" points="1239.89,-65.93 1229.63,-68.59 1239.31,-72.9 1239.89,-65.93"/>
</g>
<!-- Node6 -->
<g id="node6" class="node">
<title>Node6</title>
<g id="a_node6"><a xlink:href="CellPtr_8h.html" target="_top" xlink:title="Implementation of an observing weak Cell pointer.">
<polygon fill="white" stroke="#666666" points="452.5,-129 395.5,-129 395.5,-110 452.5,-110 452.5,-129"/>
<text text-anchor="middle" x="424" y="-117" font-family="Helvetica,sans-Serif" font-size="10.00">CellPtr.h</text>
</a>
</g>
</g>
<!-- Node3&#45;&gt;Node6 -->
<g id="edge5" class="edge">
<title>Node3&#45;&gt;Node6</title>
<path fill="none" stroke="#63b8ff" d="M1056.93,-282.34C936.63,-275.79 363.67,-241.68 313,-184 288.3,-155.88 344.28,-137.26 385.38,-127.82"/>
<polygon fill="#63b8ff" stroke="#63b8ff" points="386.17,-131.23 395.19,-125.67 384.67,-124.39 386.17,-131.23"/>
</g>
<!-- Node13 -->
<g id="node13" class="node">
<title>Node13</title>
<g id="a_node13"><a xlink:title=" ">
<polygon fill="#e0e0e0" stroke="#999999" points="208,-74 150,-74 150,-55 208,-55 208,-74"/>
<text text-anchor="middle" x="179" y="-62" font-family="Helvetica,sans-Serif" font-size="10.00">memory</text>
</a>
</g>
</g>
<!-- Node3&#45;&gt;Node13 -->
<g id="edge83" class="edge">
<title>Node3&#45;&gt;Node13</title>
<path fill="none" stroke="#63b8ff" d="M1056.82,-283.02C940.83,-280.38 406.88,-266.82 339,-239 270.21,-210.81 259.3,-187.16 213,-129 201.94,-115.1 192.68,-97.08 186.64,-83.79"/>
<polygon fill="#63b8ff" stroke="#63b8ff" points="189.71,-82.08 182.5,-74.31 183.29,-84.88 189.71,-82.08"/>
</g>
<!-- Node14 -->
<g id="node14" class="node">
<title>Node14</title>
<g id="a_node14"><a xlink:title=" ">
<polygon fill="#e0e0e0" stroke="#999999" points="270.5,-19 201.5,-19 201.5,0 270.5,0 270.5,-19"/>
<text text-anchor="middle" x="236" y="-7" font-family="Helvetica,sans-Serif" font-size="10.00">type_traits</text>
</a>
</g>
</g>
<!-- Node3&#45;&gt;Node14 -->
<g id="edge85" class="edge">
<title>Node3&#45;&gt;Node14</title>
<path fill="none" stroke="#63b8ff" d="M1056.99,-282.94C924.29,-279.53 233.59,-260.83 142,-239 74.75,-222.97 0,-244.63 0,-175.5 0,-175.5 0,-175.5 0,-118.5 0,-35.25 122.93,-15.91 191.35,-11.59"/>
<polygon fill="#63b8ff" stroke="#63b8ff" points="191.64,-15.08 201.43,-11.04 191.25,-8.09 191.64,-15.08"/>
</g>
<!-- Node15 -->
<g id="node15" class="node">
<title>Node15</title>
<g id="a_node15"><a xlink:href="CellIterators_8h.html" target="_top" xlink:title="Declares the various iterators useful with the Cell class.">
<polygon fill="white" stroke="#666666" points="152,-129 66,-129 66,-110 152,-110 152,-129"/>
<text text-anchor="middle" x="109" y="-117" font-family="Helvetica,sans-Serif" font-size="10.00">CellIterators.h</text>
</a>
</g>
</g>
<!-- Node3&#45;&gt;Node15 -->
<g id="edge14" class="edge">
<title>Node3&#45;&gt;Node15</title>
<path fill="none" stroke="#63b8ff" d="M1056.57,-283.05C919.93,-280.25 204.27,-264.38 166,-239 131.71,-216.26 117.45,-166.79 112.01,-139.51"/>
<polygon fill="#63b8ff" stroke="#63b8ff" points="115.39,-138.55 110.19,-129.32 108.5,-139.78 115.39,-138.55"/>
</g>
<!-- Node16 -->
<g id="node16" class="node">
<title>Node16</title>
<g id="a_node16"><a xlink:href="Configuration_8h_source.html" target="_top" xlink:title=" ">
<polygon fill="white" stroke="#666666" points="1045.5,-239 954.5,-239 954.5,-220 1045.5,-220 1045.5,-239"/>
<text text-anchor="middle" x="1000" y="-227" font-family="Helvetica,sans-Serif" font-size="10.00">Configuration.h</text>
</a>
</g>
</g>
<!-- Node3&#45;&gt;Node16 -->
<g id="edge18" class="edge">
<title>Node3&#45;&gt;Node16</title>
<path fill="none" stroke="#63b8ff" d="M1066.31,-274.98C1054.17,-266.84 1035.64,-254.41 1021.25,-244.76"/>
<polygon fill="#63b8ff" stroke="#63b8ff" points="1023.18,-241.84 1012.92,-239.17 1019.28,-247.65 1023.18,-241.84"/>
</g>
<!-- Node24 -->
<g id="node24" class="node">
<title>Node24</title>
<g id="a_node24"><a xlink:href="TextStyle_8h.html" target="_top" xlink:title="This file declares everything needed for the text style system used to style all the elements on the ...">
<polygon fill="white" stroke="#666666" points="1380,-184 1284,-184 1284,-165 1380,-165 1380,-184"/>
<text text-anchor="middle" x="1332" y="-172" font-family="Helvetica,sans-Serif" font-size="10.00">cells/TextStyle.h</text>
</a>
</g>
</g>
<!-- Node3&#45;&gt;Node24 -->
<g id="edge74" class="edge">
<title>Node3&#45;&gt;Node24</title>
<path fill="none" stroke="#63b8ff" d="M1099.28,-274.84C1143.89,-255.8 1250.71,-210.2 1302.65,-188.03"/>
<polygon fill="#63b8ff" stroke="#63b8ff" points="1304.16,-191.19 1311.98,-184.05 1301.41,-184.75 1304.16,-191.19"/>
</g>
<!-- Node26 -->
<g id="node26" class="node">
<title>Node26</title>
<g id="a_node26"><a xlink:title=" ">
<polygon fill="#e0e0e0" stroke="#999999" points="1878,-129 1840,-129 1840,-110 1878,-110 1878,-129"/>
<text text-anchor="middle" x="1859" y="-117" font-family="Helvetica,sans-Serif" font-size="10.00">map</text>
</a>
</g>
</g>
<!-- Node3&#45;&gt;Node26 -->
<g id="edge82" class="edge">
<title>Node3&#45;&gt;Node26</title>
<path fill="none" stroke="#63b8ff" d="M1101.29,-283.19C1216.64,-281.47 1742.82,-271.85 1807,-239 1835.12,-224.61 1839.77,-213.12 1852,-184 1857.98,-169.76 1859.53,-152.23 1859.69,-139.2"/>
<polygon fill="#63b8ff" stroke="#63b8ff" points="1863.19,-139.05 1859.56,-129.1 1856.19,-139.15 1863.19,-139.05"/>
</g>
<!-- Node37 -->
<g id="node35" class="node">
<title>Node37</title>
<g id="a_node35"><a xlink:title=" ">
<polygon fill="#e0e0e0" stroke="#999999" points="1861,-74 1797,-74 1797,-55 1861,-55 1861,-74"/>
<text text-anchor="middle" x="1829" y="-62" font-family="Helvetica,sans-Serif" font-size="10.00">algorithm</text>
</a>
</g>
</g>
<!-- Node3&#45;&gt;Node37 -->
<g id="edge81" class="edge">
<title>Node3&#45;&gt;Node37</title>
<path fill="none" stroke="#63b8ff" d="M1101.38,-283.38C1219.62,-282.6 1768.5,-276.92 1833,-239 1886.58,-207.5 1914.49,-165.74 1887,-110 1880.51,-96.85 1868.07,-86.5 1856.36,-79.11"/>
<polygon fill="#63b8ff" stroke="#63b8ff" points="1858.07,-76.05 1847.67,-74.03 1854.54,-82.1 1858.07,-76.05"/>
</g>
<!-- Node44 -->
<g id="node42" class="node">
<title>Node44</title>
<g id="a_node42"><a xlink:title=" ">
<polygon fill="#e0e0e0" stroke="#999999" points="1265.5,-184 1218.5,-184 1218.5,-165 1265.5,-165 1265.5,-184"/>
<text text-anchor="middle" x="1242" y="-172" font-family="Helvetica,sans-Serif" font-size="10.00">vector</text>
</a>
</g>
</g>
<!-- Node3&#45;&gt;Node44 -->
<g id="edge84" class="edge">
<title>Node3&#45;&gt;Node44</title>
<path fill="none" stroke="#63b8ff" d="M1092.06,-274.84C1120.08,-256.28 1186.18,-212.49 1220.49,-189.75"/>
<polygon fill="#63b8ff" stroke="#63b8ff" points="1222.47,-192.64 1228.87,-184.2 1218.6,-186.8 1222.47,-192.64"/>
</g>
<!-- Node47 -->
<g id="node45" class="node">
<title>Node47</title>
<g id="a_node45"><a xlink:href="StringUtils_8h_source.html" target="_top" xlink:title=" ">
<polygon fill="white" stroke="#666666" points="1715.5,-239 1638.5,-239 1638.5,-220 1715.5,-220 1715.5,-239"/>
<text text-anchor="middle" x="1677" y="-227" font-family="Helvetica,sans-Serif" font-size="10.00">StringUtils.h</text>
</a>
</g>
</g>
<!-- Node3&#45;&gt;Node47 -->
<g id="edge71" class="edge">
<title>Node3&#45;&gt;Node47</title>
<path fill="none" stroke="#63b8ff" d="M1101.12,-281.91C1173.6,-276.64 1410.52,-258.95 1606,-239 1613.22,-238.26 1620.84,-237.42 1628.3,-236.56"/>
<polygon fill="#63b8ff" stroke="#63b8ff" points="1628.81,-240.02 1638.34,-235.38 1628,-233.07 1628.81,-240.02"/>
</g>
<!-- Node50 -->
<g id="node48" class="node">
<title>Node50</title>
<g id="a_node48"><a xlink:href="CachedValue_8h.html" target="_top" xlink:title="Declares &quot;mostly read&#45;only&quot; wrappers around values that are expensive to compute and are thus cached.">
<polygon fill="white" stroke="#666666" points="345.5,-129 256.5,-129 256.5,-110 345.5,-110 345.5,-129"/>
<text text-anchor="middle" x="301" y="-117" font-family="Helvetica,sans-Serif" font-size="10.00">CachedValue.h</text>
</a>
</g>
</g>
<!-- Node3&#45;&gt;Node50 -->
<g id="edge75" class="edge">
<title>Node3&#45;&gt;Node50</title>
<path fill="none" stroke="#63b8ff" d="M1056.92,-283.08C956.94,-281.02 546.19,-270.75 422,-239 365.55,-224.57 335.16,-232.59 303,-184 294.34,-170.92 294.69,-152.78 296.7,-139.24"/>
<polygon fill="#63b8ff" stroke="#63b8ff" points="300.19,-139.63 298.63,-129.15 293.31,-138.32 300.19,-139.63"/>
</g>
<!-- Node51 -->
<g id="node49" class="node">
<title>Node51</title>
<g id="a_node49"><a xlink:title=" ">
<polygon fill="#e0e0e0" stroke="#999999" points="1798,-239 1734,-239 1734,-220 1798,-220 1798,-239"/>
<text text-anchor="middle" x="1766" y="-227" font-family="Helvetica,sans-Serif" font-size="10.00">wx/defs.h</text>
</a>
</g>
</g>
<!-- Node3&#45;&gt;Node51 -->
<g id="edge80" class="edge">
<title>Node3&#45;&gt;Node51</title>
<path fill="none" stroke="#63b8ff" d="M1101.14,-283.06C1182.7,-281.22 1474.11,-272.64 1723.86,-238.96"/>
<polygon fill="#63b8ff" stroke="#63b8ff" points="1724.41,-242.42 1733.84,-237.6 1723.46,-235.48 1724.41,-242.42"/>
</g>
<!-- Node5 -->
<g id="node5" class="node">
<title>Node5</title>
<g id="a_node5"><a xlink:href="Version_8h_source.html" target="_top" xlink:title=" ">
<polygon fill="white" stroke="#666666" points="1222,-19 1160,-19 1160,0 1222,0 1222,-19"/>
<text text-anchor="middle" x="1191" y="-7" font-family="Helvetica,sans-Serif" font-size="10.00">Version.h</text>
</a>
</g>
</g>
<!-- Node4&#45;&gt;Node5 -->
<g id="edge4" class="edge">
<title>Node4&#45;&gt;Node5</title>
<path fill="none" stroke="#63b8ff" d="M1191,-54.75C1191,-47.8 1191,-37.85 1191,-29.13"/>
<polygon fill="#63b8ff" stroke="#63b8ff" points="1194.5,-29.09 1191,-19.09 1187.5,-29.09 1194.5,-29.09"/>
</g>
<!-- Node7 -->
<g id="node7" class="node">
<title>Node7</title>
<g id="a_node7"><a xlink:title=" ">
<polygon fill="#e0e0e0" stroke="#999999" points="337.5,-74 264.5,-74 264.5,-55 337.5,-55 337.5,-74"/>
<text text-anchor="middle" x="301" y="-62" font-family="Helvetica,sans-Serif" font-size="10.00">wx/debug.h</text>
</a>
</g>
</g>
<!-- Node6&#45;&gt;Node7 -->
<g id="edge6" class="edge">
<title>Node6&#45;&gt;Node7</title>
<path fill="none" stroke="#63b8ff" d="M404.24,-109.98C384.27,-101.38 353.2,-87.99 330.35,-78.15"/>
<polygon fill="#63b8ff" stroke="#63b8ff" points="331.69,-74.91 321.12,-74.17 328.92,-81.34 331.69,-74.91"/>
</g>
<!-- Node8 -->
<g id="node8" class="node">
<title>Node8</title>
<g id="a_node8"><a xlink:title=" ">
<polygon fill="#e0e0e0" stroke="#999999" points="532,-74 474,-74 474,-55 532,-55 532,-74"/>
<text text-anchor="middle" x="503" y="-62" font-family="Helvetica,sans-Serif" font-size="10.00">wx/log.h</text>
</a>
</g>
</g>
<!-- Node6&#45;&gt;Node8 -->
<g id="edge7" class="edge">
<title>Node6&#45;&gt;Node8</title>
<path fill="none" stroke="#63b8ff" d="M436.69,-109.98C448.83,-101.84 467.36,-89.41 481.75,-79.76"/>
<polygon fill="#63b8ff" stroke="#63b8ff" points="483.72,-82.65 490.08,-74.17 479.82,-76.84 483.72,-82.65"/>
</g>
<!-- Node9 -->
<g id="node9" class="node">
<title>Node9</title>
<g id="a_node9"><a xlink:title=" ">
<polygon fill="#e0e0e0" stroke="#999999" points="695.5,-74 650.5,-74 650.5,-55 695.5,-55 695.5,-74"/>
<text text-anchor="middle" x="673" y="-62" font-family="Helvetica,sans-Serif" font-size="10.00">utility</text>
</a>
</g>
</g>
<!-- Node6&#45;&gt;Node9 -->
<g id="edge8" class="edge">
<title>Node6&#45;&gt;Node9</title>
<path fill="none" stroke="#63b8ff" d="M452.67,-111.83C455.48,-111.2 458.29,-110.58 461,-110 537.65,-93.53 559.82,-92.54 640.22,-74.05"/>
<polygon fill="#63b8ff" stroke="#63b8ff" points="641.37,-77.38 650.32,-71.71 639.79,-70.56 641.37,-77.38"/>
</g>
<!-- Node10 -->
<g id="node10" class="node">
<title>Node10</title>
<g id="a_node10"><a xlink:title=" ">
<polygon fill="#e0e0e0" stroke="#999999" points="1362.5,-19 1309.5,-19 1309.5,0 1362.5,0 1362.5,-19"/>
<text text-anchor="middle" x="1336" y="-7" font-family="Helvetica,sans-Serif" font-size="10.00">cstddef</text>
</a>
</g>
</g>
<!-- Node6&#45;&gt;Node10 -->
<g id="edge9" class="edge">
<title>Node6&#45;&gt;Node10</title>
<path fill="none" stroke="#63b8ff" d="M448.49,-110C472.36,-101.52 509.56,-87.8 541,-74 558.29,-66.41 560.75,-59.84 579,-55 719.25,-17.78 1086.23,-28.86 1231,-19 1253.69,-17.46 1279.1,-15.41 1299.25,-13.71"/>
<polygon fill="#63b8ff" stroke="#63b8ff" points="1299.59,-17.19 1309.26,-12.85 1299,-10.22 1299.59,-17.19"/>
</g>
<!-- Node11 -->
<g id="node11" class="node">
<title>Node11</title>
<g id="a_node11"><a xlink:title=" ">
<polygon fill="#e0e0e0" stroke="#999999" points="875,-74 825,-74 825,-55 875,-55 875,-74"/>
<text text-anchor="middle" x="850" y="-62" font-family="Helvetica,sans-Serif" font-size="10.00">cstdint</text>
</a>
</g>
</g>
<!-- Node6&#45;&gt;Node11 -->
<g id="edge10" class="edge">
<title>Node6&#45;&gt;Node11</title>
<path fill="none" stroke="#63b8ff" d="M452.62,-111.57C455.44,-110.99 458.27,-110.46 461,-110 610.88,-84.94 650.5,-95 801,-74 805.5,-73.37 810.22,-72.64 814.88,-71.88"/>
<polygon fill="#63b8ff" stroke="#63b8ff" points="815.6,-75.31 824.87,-70.19 814.43,-68.41 815.6,-75.31"/>
</g>
<!-- Node12 -->
<g id="node12" class="node">
<title>Node12</title>
<g id="a_node12"><a xlink:title=" ">
<polygon fill="#e0e0e0" stroke="#999999" points="456,-74 394,-74 394,-55 456,-55 456,-74"/>
<text text-anchor="middle" x="425" y="-62" font-family="Helvetica,sans-Serif" font-size="10.00">cinttypes</text>
</a>
</g>
</g>
<!-- Node6&#45;&gt;Node12 -->
<g id="edge11" class="edge">
<title>Node6&#45;&gt;Node12</title>
<path fill="none" stroke="#63b8ff" d="M424.17,-109.75C424.3,-102.8 424.48,-92.85 424.65,-84.13"/>
<polygon fill="#63b8ff" stroke="#63b8ff" points="428.15,-84.15 424.84,-74.09 421.15,-84.02 428.15,-84.15"/>
</g>
<!-- Node6&#45;&gt;Node13 -->
<g id="edge12" class="edge">
<title>Node6&#45;&gt;Node13</title>
<path fill="none" stroke="#63b8ff" d="M395.42,-112.32C351.58,-102.83 267.64,-84.67 218.17,-73.97"/>
<polygon fill="#63b8ff" stroke="#63b8ff" points="218.68,-70.5 208.16,-71.81 217.2,-77.34 218.68,-70.5"/>
</g>
<!-- Node6&#45;&gt;Node14 -->
<g id="edge13" class="edge">
<title>Node6&#45;&gt;Node14</title>
<path fill="none" stroke="#63b8ff" d="M415.07,-109.7C401.24,-96.44 373.36,-71.17 346,-55 323.09,-41.46 295.28,-30.25 273.36,-22.47"/>
<polygon fill="#63b8ff" stroke="#63b8ff" points="274.33,-19.1 263.74,-19.14 272.04,-25.72 274.33,-19.1"/>
</g>
<!-- Node15&#45;&gt;Node7 -->
<g id="edge15" class="edge">
<title>Node15&#45;&gt;Node7</title>
<path fill="none" stroke="#63b8ff" d="M139.85,-109.98C172.5,-100.97 224.2,-86.7 260.2,-76.76"/>
<polygon fill="#63b8ff" stroke="#63b8ff" points="261.2,-80.12 269.91,-74.08 259.34,-73.37 261.2,-80.12"/>
</g>
<!-- Node15&#45;&gt;Node13 -->
<g id="edge16" class="edge">
<title>Node15&#45;&gt;Node13</title>
<path fill="none" stroke="#63b8ff" d="M120.25,-109.98C130.8,-102 146.8,-89.88 159.44,-80.31"/>
<polygon fill="#63b8ff" stroke="#63b8ff" points="161.69,-83 167.55,-74.17 157.46,-77.42 161.69,-83"/>
</g>
<!-- Node15&#45;&gt;Node14 -->
<g id="edge17" class="edge">
<title>Node15&#45;&gt;Node14</title>
<path fill="none" stroke="#63b8ff" d="M111.44,-109.57C115.51,-96.15 124.89,-70.66 141,-55 156.17,-40.26 177.12,-29.74 195.5,-22.64"/>
<polygon fill="#63b8ff" stroke="#63b8ff" points="196.9,-25.85 205.1,-19.14 194.51,-19.27 196.9,-25.85"/>
</g>
<!-- Node16&#45;&gt;Node4 -->
<g id="edge19" class="edge">
<title>Node16&#45;&gt;Node4</title>
<path fill="none" stroke="#63b8ff" d="M1045.59,-224.44C1077.06,-219.48 1118.11,-208.46 1146,-184 1175.54,-158.09 1185.77,-110.67 1189.25,-84.35"/>
<polygon fill="#63b8ff" stroke="#63b8ff" points="1192.75,-84.52 1190.39,-74.19 1185.8,-83.74 1192.75,-84.52"/>
</g>
<!-- Node16&#45;&gt;Node11 -->
<g id="edge61" class="edge">
<title>Node16&#45;&gt;Node11</title>
<path fill="none" stroke="#63b8ff" d="M1000.13,-219.55C999.8,-205.62 996.97,-178.9 981,-165 901.29,-95.64 814.83,-209.17 746,-129 722.54,-101.67 776.3,-82.6 814.94,-72.9"/>
<polygon fill="#63b8ff" stroke="#63b8ff" points="815.96,-76.25 824.87,-70.52 814.33,-69.44 815.96,-76.25"/>
</g>
<!-- Node16&#45;&gt;Node13 -->
<g id="edge62" class="edge">
<title>Node16&#45;&gt;Node13</title>
<path fill="none" stroke="#63b8ff" d="M954.38,-227.18C810.5,-222.8 372.25,-207.65 313,-184 259.36,-162.59 212.93,-109.75 191.55,-82.44"/>
<polygon fill="#63b8ff" stroke="#63b8ff" points="194.14,-80.06 185.29,-74.24 188.58,-84.31 194.14,-80.06"/>
</g>
<!-- Node17 -->
<g id="node17" class="node">
<title>Node17</title>
<g id="a_node17"><a xlink:title=" ">
<polygon fill="#e0e0e0" stroke="#999999" points="729.5,-184 672.5,-184 672.5,-165 729.5,-165 729.5,-184"/>
<text text-anchor="middle" x="701" y="-172" font-family="Helvetica,sans-Serif" font-size="10.00">wx/wx.h</text>
</a>
</g>
</g>
<!-- Node16&#45;&gt;Node17 -->
<g id="edge20" class="edge">
<title>Node16&#45;&gt;Node17</title>
<path fill="none" stroke="#63b8ff" d="M954.16,-220.86C902.89,-212.24 817.4,-197.63 744,-184 742.55,-183.73 741.07,-183.45 739.58,-183.17"/>
<polygon fill="#63b8ff" stroke="#63b8ff" points="740.14,-179.72 729.66,-181.26 738.82,-186.59 740.14,-179.72"/>
</g>
<!-- Node18 -->
<g id="node18" class="node">
<title>Node18</title>
<g id="a_node18"><a xlink:title=" ">
<polygon fill="#e0e0e0" stroke="#999999" points="851,-129 779,-129 779,-110 851,-110 851,-129"/>
<text text-anchor="middle" x="815" y="-117" font-family="Helvetica,sans-Serif" font-size="10.00">wx/config.h</text>
</a>
</g>
</g>
<!-- Node16&#45;&gt;Node18 -->
<g id="edge21" class="edge">
<title>Node16&#45;&gt;Node18</title>
<path fill="none" stroke="#63b8ff" d="M1031.4,-219.99C1065.06,-209.36 1111.01,-189.56 1090,-165 1058.14,-127.77 926,-136.67 861.45,-128.92"/>
<polygon fill="#63b8ff" stroke="#63b8ff" points="861.73,-125.43 851.33,-127.46 860.73,-132.35 861.73,-125.43"/>
</g>
<!-- Node19 -->
<g id="node19" class="node">
<title>Node19</title>
<g id="a_node19"><a xlink:title=" ">
<polygon fill="#e0e0e0" stroke="#999999" points="863.5,-184 786.5,-184 786.5,-165 863.5,-165 863.5,-184"/>
<text text-anchor="middle" x="825" y="-172" font-family="Helvetica,sans-Serif" font-size="10.00">wx/display.h</text>
</a>
</g>
</g>
<!-- Node16&#45;&gt;Node19 -->
<g id="edge22" class="edge">
<title>Node16&#45;&gt;Node19</title>
<path fill="none" stroke="#63b8ff" d="M971.88,-219.98C942.38,-211.05 895.81,-196.94 863.03,-187.02"/>
<polygon fill="#63b8ff" stroke="#63b8ff" points="863.92,-183.63 853.34,-184.08 861.89,-190.33 863.92,-183.63"/>
</g>
<!-- Node20 -->
<g id="node20" class="node">
<title>Node20</title>
<g id="a_node20"><a xlink:title=" ">
<polygon fill="#e0e0e0" stroke="#999999" points="972,-184 882,-184 882,-165 972,-165 972,-184"/>
<text text-anchor="middle" x="927" y="-172" font-family="Helvetica,sans-Serif" font-size="10.00">wx/fontenum.h</text>
</a>
</g>
</g>
<!-- Node16&#45;&gt;Node20 -->
<g id="edge23" class="edge">
<title>Node16&#45;&gt;Node20</title>
<path fill="none" stroke="#63b8ff" d="M988.27,-219.98C977.27,-212 960.58,-199.88 947.4,-190.31"/>
<polygon fill="#63b8ff" stroke="#63b8ff" points="949.09,-187.21 938.94,-184.17 944.98,-192.88 949.09,-187.21"/>
</g>
<!-- Node21 -->
<g id="node21" class="node">
<title>Node21</title>
<g id="a_node21"><a xlink:title=" ">
<polygon fill="#e0e0e0" stroke="#999999" points="957,-129 869,-129 869,-110 957,-110 957,-129"/>
<text text-anchor="middle" x="913" y="-117" font-family="Helvetica,sans-Serif" font-size="10.00">wx/hashmap.h</text>
</a>
</g>
</g>
<!-- Node16&#45;&gt;Node21 -->
<g id="edge24" class="edge">
<title>Node16&#45;&gt;Node21</title>
<path fill="none" stroke="#63b8ff" d="M1045.56,-222.39C1092.09,-214.26 1154.08,-197.03 1128,-165 1122.87,-158.7 1029.2,-141.05 967.2,-129.97"/>
<polygon fill="#63b8ff" stroke="#63b8ff" points="967.62,-126.49 957.16,-128.18 966.4,-133.38 967.62,-126.49"/>
</g>
<!-- Node22 -->
<g id="node22" class="node">
<title>Node22</title>
<g id="a_node22"><a xlink:href="LoggingMessageDialog_8h.html" target="_top" xlink:title="This file declares a message dialog that sends its contents to the log message sink.">
<polygon fill="white" stroke="#666666" points="647.5,-129 470.5,-129 470.5,-110 647.5,-110 647.5,-129"/>
<text text-anchor="middle" x="559" y="-117" font-family="Helvetica,sans-Serif" font-size="10.00">dialogs/LoggingMessageDialog.h</text>
</a>
</g>
</g>
<!-- Node16&#45;&gt;Node22 -->
<g id="edge25" class="edge">
<title>Node16&#45;&gt;Node22</title>
<path fill="none" stroke="#63b8ff" d="M954.26,-222.87C908.55,-216.44 836.67,-204.12 777,-184 758.73,-177.84 756.12,-171.58 738,-165 697.42,-150.26 649.94,-138.7 614.07,-131.06"/>
<polygon fill="#63b8ff" stroke="#63b8ff" points="614.79,-127.64 604.28,-129.01 613.35,-134.49 614.79,-127.64"/>
</g>
<!-- Node16&#45;&gt;Node24 -->
<g id="edge29" class="edge">
<title>Node16&#45;&gt;Node24</title>
<path fill="none" stroke="#63b8ff" d="M1045.81,-221.19C1105.25,-211.7 1208.99,-195.14 1273.9,-184.78"/>
<polygon fill="#63b8ff" stroke="#63b8ff" points="1274.65,-188.2 1283.97,-183.17 1273.54,-181.29 1274.65,-188.2"/>
</g>
<!-- Node16&#45;&gt;Node37 -->
<g id="edge68" class="edge">
<title>Node16&#45;&gt;Node37</title>
<path fill="none" stroke="#63b8ff" d="M1045.74,-225.61C1187.57,-216.14 1618.14,-183.5 1746,-129 1772.44,-117.73 1797.93,-96.1 1813.53,-81.24"/>
<polygon fill="#63b8ff" stroke="#63b8ff" points="1816.05,-83.68 1820.74,-74.18 1811.15,-78.68 1816.05,-83.68"/>
</g>
<!-- Node40 -->
<g id="node38" class="node">
<title>Node40</title>
<g id="a_node38"><a xlink:title=" ">
<polygon fill="#e0e0e0" stroke="#999999" points="947,-74 915,-74 915,-55 947,-55 947,-74"/>
<text text-anchor="middle" x="931" y="-62" font-family="Helvetica,sans-Serif" font-size="10.00">list</text>
</a>
</g>
</g>
<!-- Node16&#45;&gt;Node40 -->
<g id="edge66" class="edge">
<title>Node16&#45;&gt;Node40</title>
<path fill="none" stroke="#63b8ff" d="M1005.94,-219.97C1014.44,-206.61 1027.64,-180.66 1014,-165 937.38,-77.04 830.62,-216.96 754,-129 748.45,-122.63 748.81,-116.66 754,-110 763.33,-98.03 857.82,-79.06 904.79,-70.26"/>
<polygon fill="#63b8ff" stroke="#63b8ff" points="905.64,-73.66 914.83,-68.4 904.36,-66.78 905.64,-73.66"/>
</g>
<!-- Node41 -->
<g id="node39" class="node">
<title>Node41</title>
<g id="a_node39"><a xlink:title=" ">
<polygon fill="#e0e0e0" stroke="#999999" points="1069.5,-74 976.5,-74 976.5,-55 1069.5,-55 1069.5,-74"/>
<text text-anchor="middle" x="1023" y="-62" font-family="Helvetica,sans-Serif" font-size="10.00">unordered_map</text>
</a>
</g>
</g>
<!-- Node16&#45;&gt;Node41 -->
<g id="edge64" class="edge">
<title>Node16&#45;&gt;Node41</title>
<path fill="none" stroke="#63b8ff" d="M1015.86,-219.92C1036.72,-207.56 1068.85,-184.14 1052,-165 967.62,-69.16 687.9,-207.8 770,-110 776.32,-102.48 893.81,-84.23 966.43,-73.58"/>
<polygon fill="#63b8ff" stroke="#63b8ff" points="966.97,-77.04 976.36,-72.13 965.96,-70.11 966.97,-77.04"/>
</g>
<!-- Node42 -->
<g id="node40" class="node">
<title>Node42</title>
<g id="a_node40"><a xlink:title=" ">
<polygon fill="#e0e0e0" stroke="#999999" points="370,-184 322,-184 322,-165 370,-165 370,-184"/>
<text text-anchor="middle" x="346" y="-172" font-family="Helvetica,sans-Serif" font-size="10.00">mutex</text>
</a>
</g>
</g>
<!-- Node16&#45;&gt;Node42 -->
<g id="edge63" class="edge">
<title>Node16&#45;&gt;Node42</title>
<path fill="none" stroke="#63b8ff" d="M954.48,-228.04C852.93,-226.42 600.16,-219.06 380.16,-183.87"/>
<polygon fill="#63b8ff" stroke="#63b8ff" points="380.48,-180.38 370.04,-182.23 379.35,-187.28 380.48,-180.38"/>
</g>
<!-- Node43 -->
<g id="node41" class="node">
<title>Node43</title>
<g id="a_node41"><a xlink:title=" ">
<polygon fill="#e0e0e0" stroke="#999999" points="442,-184 388,-184 388,-165 442,-165 442,-184"/>
<text text-anchor="middle" x="415" y="-172" font-family="Helvetica,sans-Serif" font-size="10.00">random</text>
</a>
</g>
</g>
<!-- Node16&#45;&gt;Node43 -->
<g id="edge65" class="edge">
<title>Node16&#45;&gt;Node43</title>
<path fill="none" stroke="#63b8ff" d="M954.17,-227.12C861.21,-223.82 643.74,-213.55 452.02,-183.91"/>
<polygon fill="#63b8ff" stroke="#63b8ff" points="452.46,-180.44 442.04,-182.35 451.38,-187.35 452.46,-180.44"/>
</g>
<!-- Node16&#45;&gt;Node44 -->
<g id="edge67" class="edge">
<title>Node16&#45;&gt;Node44</title>
<path fill="none" stroke="#63b8ff" d="M1039.5,-219.95C1080.61,-211.03 1146.84,-196.63 1204,-184 1205.44,-183.68 1206.92,-183.35 1208.41,-183.02"/>
<polygon fill="#63b8ff" stroke="#63b8ff" points="1209.29,-186.41 1218.29,-180.82 1207.77,-179.58 1209.29,-186.41"/>
</g>
<!-- Node45 -->
<g id="node43" class="node">
<title>Node45</title>
<g id="a_node43"><a xlink:title=" ">
<polygon fill="#e0e0e0" stroke="#999999" points="549.5,-184 460.5,-184 460.5,-165 549.5,-165 549.5,-184"/>
<text text-anchor="middle" x="505" y="-172" font-family="Helvetica,sans-Serif" font-size="10.00">wx/wupdlock.h</text>
</a>
</g>
</g>
<!-- Node16&#45;&gt;Node45 -->
<g id="edge69" class="edge">
<title>Node16&#45;&gt;Node45</title>
<path fill="none" stroke="#63b8ff" d="M954.19,-224.72C875.77,-218.07 710.5,-203.25 560.1,-184.07"/>
<polygon fill="#63b8ff" stroke="#63b8ff" points="560.13,-180.55 549.76,-182.74 559.23,-187.49 560.13,-180.55"/>
</g>
<!-- Node46 -->
<g id="node44" class="node">
<title>Node46</title>
<g id="a_node44"><a xlink:title=" ">
<polygon fill="#e0e0e0" stroke="#999999" points="654,-184 568,-184 568,-165 654,-165 654,-184"/>
<text text-anchor="middle" x="611" y="-172" font-family="Helvetica,sans-Serif" font-size="10.00">wx/webview.h</text>
</a>
</g>
</g>
<!-- Node16&#45;&gt;Node46 -->
<g id="edge70" class="edge">
<title>Node16&#45;&gt;Node46</title>
<path fill="none" stroke="#63b8ff" d="M954.42,-222.93C891.49,-215.15 774.19,-200.28 664.06,-184.12"/>
<polygon fill="#63b8ff" stroke="#63b8ff" points="664.52,-180.65 654.11,-182.65 663.5,-187.57 664.52,-180.65"/>
</g>
<!-- Node22&#45;&gt;Node4 -->
<g id="edge26" class="edge">
<title>Node22&#45;&gt;Node4</title>
<path fill="none" stroke="#63b8ff" d="M647.54,-111.07C782.67,-99.74 1035.83,-78.51 1142.08,-69.6"/>
<polygon fill="#63b8ff" stroke="#63b8ff" points="1142.53,-73.08 1152.2,-68.75 1141.94,-66.1 1142.53,-73.08"/>
</g>
<!-- Node22&#45;&gt;Node8 -->
<g id="edge28" class="edge">
<title>Node22&#45;&gt;Node8</title>
<path fill="none" stroke="#63b8ff" d="M550,-109.98C541.81,-102.23 529.49,-90.58 519.53,-81.14"/>
<polygon fill="#63b8ff" stroke="#63b8ff" points="521.83,-78.5 512.16,-74.17 517.02,-83.59 521.83,-78.5"/>
</g>
<!-- Node23 -->
<g id="node23" class="node">
<title>Node23</title>
<g id="a_node23"><a xlink:title=" ">
<polygon fill="#e0e0e0" stroke="#999999" points="792.5,-74 713.5,-74 713.5,-55 792.5,-55 792.5,-74"/>
<text text-anchor="middle" x="753" y="-62" font-family="Helvetica,sans-Serif" font-size="10.00">wx/msgdlg.h</text>
</a>
</g>
</g>
<!-- Node22&#45;&gt;Node23 -->
<g id="edge27" class="edge">
<title>Node22&#45;&gt;Node23</title>
<path fill="none" stroke="#63b8ff" d="M590.17,-109.98C623.16,-100.97 675.4,-86.7 711.77,-76.76"/>
<polygon fill="#63b8ff" stroke="#63b8ff" points="712.86,-80.09 721.59,-74.08 711.02,-73.34 712.86,-80.09"/>
</g>
<!-- Node24&#45;&gt;Node4 -->
<g id="edge30" class="edge">
<title>Node24&#45;&gt;Node4</title>
<path fill="none" stroke="#63b8ff" d="M1331.32,-164.9C1329.8,-151.45 1324.99,-125.36 1310,-110 1291.33,-90.87 1263.67,-79.88 1239.71,-73.61"/>
<polygon fill="#63b8ff" stroke="#63b8ff" points="1240.25,-70.14 1229.71,-71.2 1238.61,-76.94 1240.25,-70.14"/>
</g>
<!-- Node24&#45;&gt;Node11 -->
<g id="edge39" class="edge">
<title>Node24&#45;&gt;Node11</title>
<path fill="none" stroke="#63b8ff" d="M1283.89,-166.44C1280.55,-165.96 1277.22,-165.47 1274,-165 1163.79,-148.92 1134.05,-156.04 1026,-129 997.93,-121.98 923.72,-93.98 881.16,-77.6"/>
<polygon fill="#63b8ff" stroke="#63b8ff" points="882.42,-74.34 871.83,-74 879.9,-80.87 882.42,-74.34"/>
</g>
<!-- Node24&#45;&gt;Node18 -->
<g id="edge36" class="edge">
<title>Node24&#45;&gt;Node18</title>
<path fill="none" stroke="#63b8ff" d="M1283.92,-166.23C1280.57,-165.79 1277.23,-165.38 1274,-165 1093.77,-143.98 1044.69,-153.81 861.27,-129.04"/>
<polygon fill="#63b8ff" stroke="#63b8ff" points="861.68,-125.56 851.3,-127.68 860.73,-132.5 861.68,-125.56"/>
</g>
<!-- Node24&#45;&gt;Node21 -->
<g id="edge33" class="edge">
<title>Node24&#45;&gt;Node21</title>
<path fill="none" stroke="#63b8ff" d="M1283.91,-166.35C1280.56,-165.88 1277.23,-165.43 1274,-165 1139.56,-147.17 1105.44,-146.83 971,-129 969.72,-128.83 968.43,-128.66 967.13,-128.48"/>
<polygon fill="#63b8ff" stroke="#63b8ff" points="967.39,-124.98 957,-127.08 966.43,-131.92 967.39,-124.98"/>
</g>
<!-- Node25 -->
<g id="node25" class="node">
<title>Node25</title>
<g id="a_node25"><a xlink:title=" ">
<polygon fill="#e0e0e0" stroke="#999999" points="1429,-129 1357,-129 1357,-110 1429,-110 1429,-129"/>
<text text-anchor="middle" x="1393" y="-117" font-family="Helvetica,sans-Serif" font-size="10.00">wx/colour.h</text>
</a>
</g>
</g>
<!-- Node24&#45;&gt;Node25 -->
<g id="edge31" class="edge">
<title>Node24&#45;&gt;Node25</title>
<path fill="none" stroke="#63b8ff" d="M1341.8,-164.98C1350.82,-157.15 1364.41,-145.34 1375.32,-135.86"/>
<polygon fill="#63b8ff" stroke="#63b8ff" points="1377.77,-138.37 1383.02,-129.17 1373.18,-133.09 1377.77,-138.37"/>
</g>
<!-- Node24&#45;&gt;Node26 -->
<g id="edge32" class="edge">
<title>Node24&#45;&gt;Node26</title>
<path fill="none" stroke="#63b8ff" d="M1380.08,-168.96C1462.55,-161.14 1636.29,-144.44 1783,-129 1798.47,-127.37 1815.69,-125.45 1829.83,-123.85"/>
<polygon fill="#63b8ff" stroke="#63b8ff" points="1830.42,-127.31 1839.96,-122.7 1829.62,-120.35 1830.42,-127.31"/>
</g>
<!-- Node27 -->
<g id="node27" class="node">
<title>Node27</title>
<g id="a_node27"><a xlink:title=" ">
<polygon fill="#e0e0e0" stroke="#999999" points="1491,-129 1447,-129 1447,-110 1491,-110 1491,-129"/>
<text text-anchor="middle" x="1469" y="-117" font-family="Helvetica,sans-Serif" font-size="10.00">string</text>
</a>
</g>
</g>
<!-- Node24&#45;&gt;Node27 -->
<g id="edge34" class="edge">
<title>Node24&#45;&gt;Node27</title>
<path fill="none" stroke="#63b8ff" d="M1354.01,-164.98C1376.45,-156.3 1411.48,-142.75 1436.99,-132.88"/>
<polygon fill="#63b8ff" stroke="#63b8ff" points="1438.52,-136.04 1446.59,-129.17 1436,-129.51 1438.52,-136.04"/>
</g>
<!-- Node28 -->
<g id="node28" class="node">
<title>Node28</title>
<g id="a_node28"><a xlink:title=" ">
<polygon fill="#e0e0e0" stroke="#999999" points="1566.5,-129 1509.5,-129 1509.5,-110 1566.5,-110 1566.5,-129"/>
<text text-anchor="middle" x="1538" y="-117" font-family="Helvetica,sans-Serif" font-size="10.00">ostream</text>
</a>
</g>
</g>
<!-- Node24&#45;&gt;Node28 -->
<g id="edge35" class="edge">
<title>Node24&#45;&gt;Node28</title>
<path fill="none" stroke="#63b8ff" d="M1365.1,-164.98C1401.74,-155.56 1460.74,-140.38 1499.44,-130.42"/>
<polygon fill="#63b8ff" stroke="#63b8ff" points="1500.49,-133.76 1509.3,-127.88 1498.75,-126.99 1500.49,-133.76"/>
</g>
<!-- Node29 -->
<g id="node29" class="node">
<title>Node29</title>
<g id="a_node29"><a xlink:title=" ">
<polygon fill="#e0e0e0" stroke="#999999" points="1665,-74 1603,-74 1603,-55 1665,-55 1665,-74"/>
<text text-anchor="middle" x="1634" y="-62" font-family="Helvetica,sans-Serif" font-size="10.00">wx/font.h</text>
</a>
</g>
</g>
<!-- Node24&#45;&gt;Node29 -->
<g id="edge37" class="edge">
<title>Node24&#45;&gt;Node29</title>
<path fill="none" stroke="#63b8ff" d="M1380.03,-171.37C1477.11,-166.56 1689.34,-153.35 1711,-129 1728.95,-108.82 1696.49,-89.67 1668.36,-77.78"/>
<polygon fill="#63b8ff" stroke="#63b8ff" points="1669.64,-74.53 1659.06,-74.04 1667.03,-81.02 1669.64,-74.53"/>
</g>
<!-- Node30 -->
<g id="node30" class="node">
<title>Node30</title>
<g id="a_node30"><a xlink:title=" ">
<polygon fill="#e0e0e0" stroke="#999999" points="1301,-129 1219,-129 1219,-110 1301,-110 1301,-129"/>
<text text-anchor="middle" x="1260" y="-117" font-family="Helvetica,sans-Serif" font-size="10.00">wx/settings.h</text>
</a>
</g>
</g>
<!-- Node24&#45;&gt;Node30 -->
<g id="edge38" class="edge">
<title>Node24&#45;&gt;Node30</title>
<path fill="none" stroke="#63b8ff" d="M1320.43,-164.98C1309.58,-157 1293.12,-144.88 1280.12,-135.31"/>
<polygon fill="#63b8ff" stroke="#63b8ff" points="1281.91,-132.28 1271.78,-129.17 1277.76,-137.92 1281.91,-132.28"/>
</g>
<!-- Node31 -->
<g id="node31" class="node">
<title>Node31</title>
<g id="a_node31"><a xlink:title=" ">
<polygon fill="#e0e0e0" stroke="#999999" points="1491.5,-19 1426.5,-19 1426.5,0 1491.5,0 1491.5,-19"/>
<text text-anchor="middle" x="1459" y="-7" font-family="Helvetica,sans-Serif" font-size="10.00">functional</text>
</a>
</g>
</g>
<!-- Node24&#45;&gt;Node31 -->
<g id="edge40" class="edge">
<title>Node24&#45;&gt;Node31</title>
<path fill="none" stroke="#63b8ff" d="M1380.13,-171.6C1480.39,-167.16 1704.24,-154.47 1727,-129 1794.73,-53.21 1593.49,-23.54 1501.87,-14.17"/>
<polygon fill="#63b8ff" stroke="#63b8ff" points="1502.08,-10.67 1491.79,-13.17 1501.39,-17.64 1502.08,-10.67"/>
</g>
<!-- Node32 -->
<g id="node32" class="node">
<title>Node32</title>
<g id="a_node32"><a xlink:href="FontAttribs_8h_source.html" target="_top" xlink:title=" ">
<polygon fill="#fff0f0" stroke="red" points="1702.5,-129 1623.5,-129 1623.5,-110 1702.5,-110 1702.5,-129"/>
<text text-anchor="middle" x="1663" y="-117" font-family="Helvetica,sans-Serif" font-size="10.00">FontAttribs.h</text>
</a>
</g>
</g>
<!-- Node24&#45;&gt;Node32 -->
<g id="edge41" class="edge">
<title>Node24&#45;&gt;Node32</title>
<path fill="none" stroke="#63b8ff" d="M1380.13,-165.79C1442.29,-155.84 1549.97,-138.6 1613.02,-128.5"/>
<polygon fill="#63b8ff" stroke="#63b8ff" points="1613.8,-131.92 1623.12,-126.89 1612.69,-125.01 1613.8,-131.92"/>
</g>
<!-- Node39 -->
<g id="node37" class="node">
<title>Node39</title>
<g id="a_node37"><a xlink:href="FontVariantCache_8h.html" target="_top" xlink:title="This file implements the wxFont cache system.">
<polygon fill="white" stroke="#666666" points="1162.5,-129 1051.5,-129 1051.5,-110 1162.5,-110 1162.5,-129"/>
<text text-anchor="middle" x="1107" y="-117" font-family="Helvetica,sans-Serif" font-size="10.00">FontVariantCache.h</text>
</a>
</g>
</g>
<!-- Node24&#45;&gt;Node39 -->
<g id="edge52" class="edge">
<title>Node24&#45;&gt;Node39</title>
<path fill="none" stroke="#63b8ff" d="M1295.85,-164.98C1257.09,-155.86 1195.45,-141.33 1153.2,-131.38"/>
<polygon fill="#63b8ff" stroke="#63b8ff" points="1153.97,-127.97 1143.43,-129.08 1152.36,-134.78 1153.97,-127.97"/>
</g>
<!-- Node24&#45;&gt;Node41 -->
<g id="edge60" class="edge">
<title>Node24&#45;&gt;Node41</title>
<path fill="none" stroke="#63b8ff" d="M1283.92,-166.45C1202.09,-154.41 1044.28,-130.98 1042,-129 1029.4,-118.03 1024.98,-99.08 1023.51,-84.73"/>
<polygon fill="#63b8ff" stroke="#63b8ff" points="1026.99,-84.21 1022.87,-74.44 1020,-84.64 1026.99,-84.21"/>
</g>
<!-- Node32&#45;&gt;Node11 -->
<g id="edge49" class="edge">
<title>Node32&#45;&gt;Node11</title>
<path fill="none" stroke="#63b8ff" d="M1623.17,-114.29C1608.09,-112.79 1590.76,-111.18 1575,-110 1278.07,-87.68 1202.21,-104.38 906,-74 899.16,-73.3 891.89,-72.35 884.92,-71.33"/>
<polygon fill="#63b8ff" stroke="#63b8ff" points="885.44,-67.87 875.02,-69.83 884.38,-74.79 885.44,-67.87"/>
</g>
<!-- Node32&#45;&gt;Node29 -->
<g id="edge47" class="edge">
<title>Node32&#45;&gt;Node29</title>
<path fill="none" stroke="#63b8ff" d="M1658.21,-109.75C1654.24,-102.49 1648.47,-91.95 1643.57,-82.98"/>
<polygon fill="#63b8ff" stroke="#63b8ff" points="1646.57,-81.18 1638.7,-74.09 1640.43,-84.54 1646.57,-81.18"/>
</g>
<!-- Node32&#45;&gt;Node31 -->
<g id="edge50" class="edge">
<title>Node32&#45;&gt;Node31</title>
<path fill="none" stroke="#63b8ff" d="M1668.45,-109.61C1675.87,-96.22 1686.86,-70.79 1674,-55 1652.7,-28.84 1558.09,-17.58 1501.72,-13.13"/>
<polygon fill="#63b8ff" stroke="#63b8ff" points="1501.9,-9.63 1491.66,-12.37 1501.37,-16.61 1501.9,-9.63"/>
</g>
<!-- Node33 -->
<g id="node33" class="node">
<title>Node33</title>
<g id="a_node33"><a xlink:href="EnumWrapper_8h_source.html" target="_top" xlink:title=" ">
<polygon fill="white" stroke="#666666" points="1407,-74 1313,-74 1313,-55 1407,-55 1407,-74"/>
<text text-anchor="middle" x="1360" y="-62" font-family="Helvetica,sans-Serif" font-size="10.00">EnumWrapper.h</text>
</a>
</g>
</g>
<!-- Node32&#45;&gt;Node33 -->
<g id="edge42" class="edge">
<title>Node32&#45;&gt;Node33</title>
<path fill="none" stroke="#63b8ff" d="M1623.39,-111.57C1570.77,-102.37 1477.46,-86.05 1417.2,-75.51"/>
<polygon fill="#63b8ff" stroke="#63b8ff" points="1417.54,-72.01 1407.09,-73.74 1416.34,-78.91 1417.54,-72.01"/>
</g>
<!-- Node34 -->
<g id="node34" class="node">
<title>Node34</title>
<g id="a_node34"><a xlink:href="clamp_8hpp_source.html" target="_top" xlink:title=" ">
<polygon fill="#fff0f0" stroke="red" points="1585,-74 1499,-74 1499,-55 1585,-55 1585,-74"/>
<text text-anchor="middle" x="1542" y="-62" font-family="Helvetica,sans-Serif" font-size="10.00">stx/clamp.hpp</text>
</a>
</g>
</g>
<!-- Node32&#45;&gt;Node34 -->
<g id="edge46" class="edge">
<title>Node32&#45;&gt;Node34</title>
<path fill="none" stroke="#63b8ff" d="M1643.56,-109.98C1624.01,-101.42 1593.62,-88.11 1571.18,-78.28"/>
<polygon fill="#63b8ff" stroke="#63b8ff" points="1572.36,-74.98 1561.79,-74.17 1569.55,-81.39 1572.36,-74.98"/>
</g>
<!-- Node32&#45;&gt;Node37 -->
<g id="edge48" class="edge">
<title>Node32&#45;&gt;Node37</title>
<path fill="none" stroke="#63b8ff" d="M1689.67,-109.98C1717.54,-101.09 1761.45,-87.07 1792.52,-77.15"/>
<polygon fill="#63b8ff" stroke="#63b8ff" points="1793.66,-80.46 1802.12,-74.08 1791.53,-73.79 1793.66,-80.46"/>
</g>
<!-- Node38 -->
<g id="node36" class="node">
<title>Node38</title>
<g id="a_node36"><a xlink:title=" ">
<polygon fill="#e0e0e0" stroke="#999999" points="632,-74 588,-74 588,-55 632,-55 632,-74"/>
<text text-anchor="middle" x="610" y="-62" font-family="Helvetica,sans-Serif" font-size="10.00">limits</text>
</a>
</g>
</g>
<!-- Node32&#45;&gt;Node38 -->
<g id="edge51" class="edge">
<title>Node32&#45;&gt;Node38</title>
<path fill="none" stroke="#63b8ff" d="M1623.18,-114.16C1608.1,-112.65 1590.77,-111.06 1575,-110 1163.86,-82.24 1053.34,-136.45 642.29,-73.8"/>
<polygon fill="#63b8ff" stroke="#63b8ff" points="642.63,-70.31 632.22,-72.25 641.57,-77.23 642.63,-70.31"/>
</g>
<!-- Node33&#45;&gt;Node10 -->
<g id="edge43" class="edge">
<title>Node33&#45;&gt;Node10</title>
<path fill="none" stroke="#63b8ff" d="M1356.04,-54.75C1352.79,-47.57 1348.08,-37.18 1344.05,-28.27"/>
<polygon fill="#63b8ff" stroke="#63b8ff" points="1347.2,-26.75 1339.89,-19.09 1340.83,-29.64 1347.2,-26.75"/>
</g>
<!-- Node33&#45;&gt;Node14 -->
<g id="edge45" class="edge">
<title>Node33&#45;&gt;Node14</title>
<path fill="none" stroke="#63b8ff" d="M1312.8,-59.93C1290.18,-58.3 1262.7,-56.41 1238,-55 868.64,-33.93 422.19,-17.18 281.03,-12.1"/>
<polygon fill="#63b8ff" stroke="#63b8ff" points="280.75,-8.58 270.63,-11.72 280.5,-15.58 280.75,-8.58"/>
</g>
<!-- Node33&#45;&gt;Node31 -->
<g id="edge44" class="edge">
<title>Node33&#45;&gt;Node31</title>
<path fill="none" stroke="#63b8ff" d="M1375.91,-54.98C1391.55,-46.61 1415.66,-33.7 1433.88,-23.95"/>
<polygon fill="#63b8ff" stroke="#63b8ff" points="1435.64,-26.98 1442.8,-19.17 1432.34,-20.8 1435.64,-26.98"/>
</g>
<!-- Node39&#45;&gt;Node4 -->
<g id="edge53" class="edge">
<title>Node39&#45;&gt;Node4</title>
<path fill="none" stroke="#63b8ff" d="M1120.5,-109.98C1133.4,-101.84 1153.1,-89.41 1168.4,-79.76"/>
<polygon fill="#63b8ff" stroke="#63b8ff" points="1170.67,-82.47 1177.26,-74.17 1166.93,-76.55 1170.67,-82.47"/>
</g>
<!-- Node39&#45;&gt;Node9 -->
<g id="edge58" class="edge">
<title>Node39&#45;&gt;Node9</title>
<path fill="none" stroke="#63b8ff" d="M1051.18,-115.13C974.99,-109.91 834.11,-98.07 705.61,-74.04"/>
<polygon fill="#63b8ff" stroke="#63b8ff" points="706.07,-70.56 695.59,-72.14 704.76,-77.44 706.07,-70.56"/>
</g>
<!-- Node39&#45;&gt;Node13 -->
<g id="edge54" class="edge">
<title>Node39&#45;&gt;Node13</title>
<path fill="none" stroke="#63b8ff" d="M1051.42,-115.03C1025.47,-113.44 994.16,-111.56 966,-110 650.08,-92.48 570.37,-99.6 255,-74 243.02,-73.03 230.02,-71.68 218.21,-70.35"/>
<polygon fill="#63b8ff" stroke="#63b8ff" points="218.53,-66.86 208.19,-69.19 217.72,-73.81 218.53,-66.86"/>
</g>
<!-- Node39&#45;&gt;Node29 -->
<g id="edge55" class="edge">
<title>Node39&#45;&gt;Node29</title>
<path fill="none" stroke="#63b8ff" d="M1162.92,-113.77C1275.31,-104.2 1523.16,-82.83 1592.45,-73.95"/>
<polygon fill="#63b8ff" stroke="#63b8ff" points="1593.2,-77.38 1602.62,-72.53 1592.24,-70.44 1593.2,-77.38"/>
</g>
<!-- Node39&#45;&gt;Node31 -->
<g id="edge56" class="edge">
<title>Node39&#45;&gt;Node31</title>
<path fill="none" stroke="#63b8ff" d="M1162.58,-112.95C1245.71,-104.29 1394.95,-87.17 1416,-74 1432.89,-63.43 1444.73,-43.51 1451.65,-28.79"/>
<polygon fill="#63b8ff" stroke="#63b8ff" points="1455.04,-29.77 1455.82,-19.2 1448.62,-26.97 1455.04,-29.77"/>
</g>
<!-- Node39&#45;&gt;Node40 -->
<g id="edge57" class="edge">
<title>Node39&#45;&gt;Node40</title>
<path fill="none" stroke="#63b8ff" d="M1078.72,-109.98C1045.05,-99.85 989.3,-83.06 956.77,-73.26"/>
<polygon fill="#63b8ff" stroke="#63b8ff" points="957.67,-69.88 947.09,-70.34 955.65,-76.58 957.67,-69.88"/>
</g>
<!-- Node39&#45;&gt;Node41 -->
<g id="edge59" class="edge">
<title>Node39&#45;&gt;Node41</title>
<path fill="none" stroke="#63b8ff" d="M1093.5,-109.98C1080.6,-101.84 1060.9,-89.41 1045.6,-79.76"/>
<polygon fill="#63b8ff" stroke="#63b8ff" points="1047.07,-76.55 1036.74,-74.17 1043.33,-82.47 1047.07,-76.55"/>
</g>
<!-- Node48 -->
<g id="node46" class="node">
<title>Node48</title>
<g id="a_node46"><a xlink:title=" ">
<polygon fill="#e0e0e0" stroke="#999999" points="1729.5,-184 1658.5,-184 1658.5,-165 1729.5,-165 1729.5,-184"/>
<text text-anchor="middle" x="1694" y="-172" font-family="Helvetica,sans-Serif" font-size="10.00">wx/string.h</text>
</a>
</g>
</g>
<!-- Node47&#45;&gt;Node48 -->
<g id="edge72" class="edge">
<title>Node47&#45;&gt;Node48</title>
<path fill="none" stroke="#63b8ff" d="M1679.81,-219.75C1682.06,-212.72 1685.3,-202.62 1688.12,-193.84"/>
<polygon fill="#63b8ff" stroke="#63b8ff" points="1691.52,-194.68 1691.25,-184.09 1684.86,-192.54 1691.52,-194.68"/>
</g>
<!-- Node49 -->
<g id="node47" class="node">
<title>Node49</title>
<g id="a_node47"><a xlink:title=" ">
<polygon fill="#e0e0e0" stroke="#999999" points="1842.5,-184 1747.5,-184 1747.5,-165 1842.5,-165 1842.5,-184"/>
<text text-anchor="middle" x="1795" y="-172" font-family="Helvetica,sans-Serif" font-size="10.00">wx/translation.h</text>
</a>
</g>
</g>
<!-- Node47&#45;&gt;Node49 -->
<g id="edge73" class="edge">
<title>Node47&#45;&gt;Node49</title>
<path fill="none" stroke="#63b8ff" d="M1695.96,-219.98C1715.03,-211.42 1744.66,-198.11 1766.55,-188.28"/>
<polygon fill="#63b8ff" stroke="#63b8ff" points="1768.01,-191.46 1775.7,-184.17 1765.14,-185.07 1768.01,-191.46"/>
</g>
<!-- Node50&#45;&gt;Node7 -->
<g id="edge76" class="edge">
<title>Node50&#45;&gt;Node7</title>
<path fill="none" stroke="#63b8ff" d="M301,-109.75C301,-102.8 301,-92.85 301,-84.13"/>
<polygon fill="#63b8ff" stroke="#63b8ff" points="304.5,-84.09 301,-74.09 297.5,-84.09 304.5,-84.09"/>
</g>
<!-- Node50&#45;&gt;Node8 -->
<g id="edge77" class="edge">
<title>Node50&#45;&gt;Node8</title>
<path fill="none" stroke="#63b8ff" d="M333.45,-109.98C369.08,-100.64 426.25,-85.64 464.22,-75.68"/>
<polygon fill="#63b8ff" stroke="#63b8ff" points="465.12,-79.06 473.9,-73.13 463.34,-72.29 465.12,-79.06"/>
</g>
<!-- Node50&#45;&gt;Node14 -->
<g id="edge79" class="edge">
<title>Node50&#45;&gt;Node14</title>
<path fill="none" stroke="#63b8ff" d="M289.15,-109.9C278.73,-101.75 263.89,-88.62 255,-74 246.59,-60.17 241.69,-42.38 238.98,-29.14"/>
<polygon fill="#63b8ff" stroke="#63b8ff" points="242.42,-28.5 237.18,-19.29 235.53,-29.75 242.42,-28.5"/>
</g>
<!-- Node50&#45;&gt;Node38 -->
<g id="edge78" class="edge">
<title>Node50&#45;&gt;Node38</title>
<path fill="none" stroke="#63b8ff" d="M345.6,-110.85C408.72,-100.02 522.58,-80.49 577.98,-70.99"/>
<polygon fill="#63b8ff" stroke="#63b8ff" points="578.67,-74.42 587.94,-69.28 577.49,-67.53 578.67,-74.42"/>
</g>
<!-- Node52&#45;&gt;Node13 -->
<g id="edge87" class="edge">
<title>Node52&#45;&gt;Node13</title>
<path fill="none" stroke="#63b8ff" d="M528.7,-283.3C441.41,-282.24 208.18,-275.95 142,-239 82.05,-205.53 17.64,-166.26 57,-110 75.59,-83.43 111.8,-72.67 139.97,-68.34"/>
<polygon fill="#63b8ff" stroke="#63b8ff" points="140.48,-71.8 149.93,-67.02 139.56,-64.86 140.48,-71.8"/>
</g>
</g>
</svg>
