<?xml version="1.0" encoding="UTF-8" standalone="no"?>
<!DOCTYPE svg PUBLIC "-//W3C//DTD SVG 1.1//EN"
 "http://www.w3.org/Graphics/SVG/1.1/DTD/svg11.dtd">
<!-- Generated by graphviz version 2.43.0 (0)
 -->
<!-- Title: src/cells/SumCell.h Pages: 1 -->
<svg width="2014pt" height="420pt"
 viewBox="0.00 0.00 2013.70 420.00" xmlns="http://www.w3.org/2000/svg" xmlns:xlink="http://www.w3.org/1999/xlink">
<g id="graph0" class="graph" transform="scale(1 1) rotate(0) translate(4 416)">
<title>src/cells/SumCell.h</title>
<polygon fill="white" stroke="transparent" points="-4,4 -4,-416 2009.7,-416 2009.7,4 -4,4"/>
<!-- Node1 -->
<g id="node1" class="node">
<title>Node1</title>
<g id="a_node1"><a xlink:title="This file declares the class SumCell.">
<polygon fill="#bfbfbf" stroke="black" points="668.5,-392.5 668.5,-411.5 777.5,-411.5 777.5,-392.5 668.5,-392.5"/>
<text text-anchor="middle" x="723" y="-399.5" font-family="Helvetica,sans-Serif" font-size="10.00">src/cells/SumCell.h</text>
</a>
</g>
</g>
<!-- Node2 -->
<g id="node2" class="node">
<title>Node2</title>
<g id="a_node2"><a xlink:href="precomp_8h_source.html" target="_top" xlink:title=" ">
<polygon fill="white" stroke="black" points="703,-56.5 703,-75.5 771,-75.5 771,-56.5 703,-56.5"/>
<text text-anchor="middle" x="737" y="-63.5" font-family="Helvetica,sans-Serif" font-size="10.00">precomp.h</text>
</a>
</g>
</g>
<!-- Node1&#45;&gt;Node2 -->
<g id="edge1" class="edge">
<title>Node1&#45;&gt;Node2</title>
<path fill="none" stroke="midnightblue" d="M711.39,-392.23C701.2,-383.95 686.67,-370.64 678,-356 662.66,-330.11 659,-321.1 659,-291 659,-291 659,-291 659,-177 659,-136.97 693.8,-101.34 716.91,-82.09"/>
<polygon fill="midnightblue" stroke="midnightblue" points="719.2,-84.74 724.81,-75.76 714.82,-79.28 719.2,-84.74"/>
</g>
<!-- Node4 -->
<g id="node4" class="node">
<title>Node4</title>
<g id="a_node4"><a xlink:href="Cell_8h.html" target="_top" xlink:title="The definition of the base class of all cells the worksheet consists of.">
<polygon fill="white" stroke="black" points="732,-280.5 732,-299.5 776,-299.5 776,-280.5 732,-280.5"/>
<text text-anchor="middle" x="754" y="-287.5" font-family="Helvetica,sans-Serif" font-size="10.00">Cell.h</text>
</a>
</g>
</g>
<!-- Node1&#45;&gt;Node4 -->
<g id="edge3" class="edge">
<title>Node1&#45;&gt;Node4</title>
<path fill="none" stroke="midnightblue" d="M736.06,-392.44C746.91,-384.47 761.57,-371.52 768,-356 774.34,-340.7 769.18,-322.14 763.41,-308.78"/>
<polygon fill="midnightblue" stroke="midnightblue" points="766.55,-307.22 759.07,-299.71 760.24,-310.24 766.55,-307.22"/>
</g>
<!-- Node49 -->
<g id="node49" class="node">
<title>Node49</title>
<g id="a_node49"><a xlink:href="ParenCell_8h.html" target="_top" xlink:title="This file declares the class ParenCell.">
<polygon fill="white" stroke="black" points="687.5,-336.5 687.5,-355.5 758.5,-355.5 758.5,-336.5 687.5,-336.5"/>
<text text-anchor="middle" x="723" y="-343.5" font-family="Helvetica,sans-Serif" font-size="10.00">ParenCell.h</text>
</a>
</g>
</g>
<!-- Node1&#45;&gt;Node49 -->
<g id="edge83" class="edge">
<title>Node1&#45;&gt;Node49</title>
<path fill="none" stroke="midnightblue" d="M723,-392.08C723,-385.01 723,-374.86 723,-365.99"/>
<polygon fill="midnightblue" stroke="midnightblue" points="726.5,-365.75 723,-355.75 719.5,-365.75 726.5,-365.75"/>
</g>
<!-- Node3 -->
<g id="node3" class="node">
<title>Node3</title>
<g id="a_node3"><a xlink:href="Version_8h_source.html" target="_top" xlink:title=" ">
<polygon fill="white" stroke="black" points="491,-0.5 491,-19.5 553,-19.5 553,-0.5 491,-0.5"/>
<text text-anchor="middle" x="522" y="-7.5" font-family="Helvetica,sans-Serif" font-size="10.00">Version.h</text>
</a>
</g>
</g>
<!-- Node2&#45;&gt;Node3 -->
<g id="edge2" class="edge">
<title>Node2&#45;&gt;Node3</title>
<path fill="none" stroke="midnightblue" d="M702.93,-56.44C664.95,-46.9 603.53,-31.48 562.95,-21.29"/>
<polygon fill="midnightblue" stroke="midnightblue" points="563.67,-17.86 553.12,-18.82 561.96,-24.65 563.67,-17.86"/>
</g>
<!-- Node4&#45;&gt;Node2 -->
<g id="edge4" class="edge">
<title>Node4&#45;&gt;Node2</title>
<path fill="none" stroke="midnightblue" d="M753.33,-280.3C750.83,-247.63 741.97,-131.87 738.45,-85.96"/>
<polygon fill="midnightblue" stroke="midnightblue" points="741.93,-85.59 737.68,-75.88 734.95,-86.12 741.93,-85.59"/>
</g>
<!-- Node4&#45;&gt;Node3 -->
<g id="edge5" class="edge">
<title>Node4&#45;&gt;Node3</title>
<path fill="none" stroke="midnightblue" d="M731.8,-288.24C662.49,-285.57 451.11,-275 391,-244 320.27,-207.53 328.13,-166.35 270,-112 251.29,-94.51 236.1,-99.08 225,-76 221.15,-67.99 219.2,-62.74 225,-56 257.49,-18.22 406.98,-11.77 480.68,-10.93"/>
<polygon fill="midnightblue" stroke="midnightblue" points="481.01,-14.42 490.98,-10.84 480.95,-7.42 481.01,-14.42"/>
</g>
<!-- Node5 -->
<g id="node5" class="node">
<title>Node5</title>
<g id="a_node5"><a xlink:href="CellPtr_8h.html" target="_top" xlink:title="Implementation of an observing weak Cell pointer.">
<polygon fill="white" stroke="black" points="339.5,-112.5 339.5,-131.5 396.5,-131.5 396.5,-112.5 339.5,-112.5"/>
<text text-anchor="middle" x="368" y="-119.5" font-family="Helvetica,sans-Serif" font-size="10.00">CellPtr.h</text>
</a>
</g>
</g>
<!-- Node4&#45;&gt;Node5 -->
<g id="edge6" class="edge">
<title>Node4&#45;&gt;Node5</title>
<path fill="none" stroke="midnightblue" d="M731.95,-289.02C664.2,-288.64 460.62,-284.12 411,-244 379.75,-218.74 371.19,-169.06 368.86,-141.88"/>
<polygon fill="midnightblue" stroke="midnightblue" points="372.34,-141.49 368.19,-131.74 365.36,-141.95 372.34,-141.49"/>
</g>
<!-- Node12 -->
<g id="node12" class="node">
<title>Node12</title>
<g id="a_node12"><a xlink:title=" ">
<polygon fill="white" stroke="#bfbfbf" points="466,-56.5 466,-75.5 524,-75.5 524,-56.5 466,-56.5"/>
<text text-anchor="middle" x="495" y="-63.5" font-family="Helvetica,sans-Serif" font-size="10.00">memory</text>
</a>
</g>
</g>
<!-- Node4&#45;&gt;Node12 -->
<g id="edge80" class="edge">
<title>Node4&#45;&gt;Node12</title>
<path fill="none" stroke="midnightblue" d="M731.78,-283.3C687.83,-271.23 588.04,-239.89 519,-188 493.25,-168.65 483.86,-162.32 473,-132 467.25,-115.93 474.82,-97.5 482.61,-84.37"/>
<polygon fill="midnightblue" stroke="midnightblue" points="485.62,-86.16 488.13,-75.87 479.75,-82.35 485.62,-86.16"/>
</g>
<!-- Node13 -->
<g id="node13" class="node">
<title>Node13</title>
<g id="a_node13"><a xlink:title=" ">
<polygon fill="white" stroke="#bfbfbf" points="133.5,-0.5 133.5,-19.5 202.5,-19.5 202.5,-0.5 133.5,-0.5"/>
<text text-anchor="middle" x="168" y="-7.5" font-family="Helvetica,sans-Serif" font-size="10.00">type_traits</text>
</a>
</g>
</g>
<!-- Node4&#45;&gt;Node13 -->
<g id="edge82" class="edge">
<title>Node4&#45;&gt;Node13</title>
<path fill="none" stroke="midnightblue" d="M731.84,-288.16C607.3,-283.18 0,-254.98 0,-179 0,-179 0,-179 0,-121 0,-61.97 73.51,-32.9 123.27,-19.99"/>
<polygon fill="midnightblue" stroke="midnightblue" points="124.32,-23.33 133.19,-17.54 122.64,-16.54 124.32,-23.33"/>
</g>
<!-- Node14 -->
<g id="node14" class="node">
<title>Node14</title>
<g id="a_node14"><a xlink:href="CellIterators_8h.html" target="_top" xlink:title="Declares the various iterators useful with the Cell class.">
<polygon fill="white" stroke="black" points="44,-112.5 44,-131.5 130,-131.5 130,-112.5 44,-112.5"/>
<text text-anchor="middle" x="87" y="-119.5" font-family="Helvetica,sans-Serif" font-size="10.00">CellIterators.h</text>
</a>
</g>
</g>
<!-- Node4&#45;&gt;Node14 -->
<g id="edge15" class="edge">
<title>Node4&#45;&gt;Node14</title>
<path fill="none" stroke="midnightblue" d="M731.97,-288.61C646.92,-286.89 340.21,-278.35 250,-244 187.95,-220.37 128.95,-165.99 102.11,-138.91"/>
<polygon fill="midnightblue" stroke="midnightblue" points="104.62,-136.47 95.14,-131.75 99.61,-141.35 104.62,-136.47"/>
</g>
<!-- Node15 -->
<g id="node15" class="node">
<title>Node15</title>
<g id="a_node15"><a xlink:href="Configuration_8h_source.html" target="_top" xlink:title=" ">
<polygon fill="white" stroke="black" points="1028.5,-224.5 1028.5,-243.5 1119.5,-243.5 1119.5,-224.5 1028.5,-224.5"/>
<text text-anchor="middle" x="1074" y="-231.5" font-family="Helvetica,sans-Serif" font-size="10.00">Configuration.h</text>
</a>
</g>
</g>
<!-- Node4&#45;&gt;Node15 -->
<g id="edge19" class="edge">
<title>Node4&#45;&gt;Node15</title>
<path fill="none" stroke="midnightblue" d="M776.25,-285.25C825.83,-276.88 946.64,-256.49 1018.21,-244.41"/>
<polygon fill="midnightblue" stroke="midnightblue" points="1019.12,-247.81 1028.4,-242.7 1017.96,-240.91 1019.12,-247.81"/>
</g>
<!-- Node23 -->
<g id="node23" class="node">
<title>Node23</title>
<g id="a_node23"><a xlink:href="TextStyle_8h.html" target="_top" xlink:title="This file declares everything needed for the text style system used to style all the elements on the ...">
<polygon fill="white" stroke="black" points="801.5,-168.5 801.5,-187.5 872.5,-187.5 872.5,-168.5 801.5,-168.5"/>
<text text-anchor="middle" x="837" y="-175.5" font-family="Helvetica,sans-Serif" font-size="10.00">TextStyle.h</text>
</a>
</g>
</g>
<!-- Node4&#45;&gt;Node23 -->
<g id="edge71" class="edge">
<title>Node4&#45;&gt;Node23</title>
<path fill="none" stroke="midnightblue" d="M760.51,-280.37C774.27,-262.14 806.5,-219.43 824.42,-195.68"/>
<polygon fill="midnightblue" stroke="midnightblue" points="827.29,-197.68 830.52,-187.59 821.7,-193.47 827.29,-197.68"/>
</g>
<!-- Node33 -->
<g id="node33" class="node">
<title>Node33</title>
<g id="a_node33"><a xlink:title=" ">
<polygon fill="white" stroke="#bfbfbf" points="1828,-56.5 1828,-75.5 1892,-75.5 1892,-56.5 1828,-56.5"/>
<text text-anchor="middle" x="1860" y="-63.5" font-family="Helvetica,sans-Serif" font-size="10.00">algorithm</text>
</a>
</g>
</g>
<!-- Node4&#45;&gt;Node33 -->
<g id="edge78" class="edge">
<title>Node4&#45;&gt;Node33</title>
<path fill="none" stroke="midnightblue" d="M776.2,-288.69C925.32,-286.55 1778.51,-273.09 1890,-244 1947.5,-229 2027.07,-220.9 2000,-168 1977.57,-124.17 1926.28,-95 1892.4,-79.72"/>
<polygon fill="midnightblue" stroke="midnightblue" points="1893.49,-76.38 1882.92,-75.61 1890.7,-82.8 1893.49,-76.38"/>
</g>
<!-- Node40 -->
<g id="node40" class="node">
<title>Node40</title>
<g id="a_node40"><a xlink:title=" ">
<polygon fill="white" stroke="#bfbfbf" points="1741.5,-168.5 1741.5,-187.5 1788.5,-187.5 1788.5,-168.5 1741.5,-168.5"/>
<text text-anchor="middle" x="1765" y="-175.5" font-family="Helvetica,sans-Serif" font-size="10.00">vector</text>
</a>
</g>
</g>
<!-- Node4&#45;&gt;Node40 -->
<g id="edge81" class="edge">
<title>Node4&#45;&gt;Node40</title>
<path fill="none" stroke="midnightblue" d="M776.09,-287.91C882.21,-282.42 1350,-255.38 1727,-188 1728.46,-187.74 1729.95,-187.46 1731.45,-187.16"/>
<polygon fill="midnightblue" stroke="midnightblue" points="1732.33,-190.55 1741.37,-185.03 1730.86,-183.71 1732.33,-190.55"/>
</g>
<!-- Node43 -->
<g id="node43" class="node">
<title>Node43</title>
<g id="a_node43"><a xlink:href="StringUtils_8h_source.html" target="_top" xlink:title=" ">
<polygon fill="white" stroke="black" points="1803.5,-224.5 1803.5,-243.5 1880.5,-243.5 1880.5,-224.5 1803.5,-224.5"/>
<text text-anchor="middle" x="1842" y="-231.5" font-family="Helvetica,sans-Serif" font-size="10.00">StringUtils.h</text>
</a>
</g>
</g>
<!-- Node4&#45;&gt;Node43 -->
<g id="edge68" class="edge">
<title>Node4&#45;&gt;Node43</title>
<path fill="none" stroke="midnightblue" d="M776.23,-287.9C909.45,-281.28 1602.76,-246.87 1793.43,-237.41"/>
<polygon fill="midnightblue" stroke="midnightblue" points="1793.62,-240.91 1803.44,-236.91 1793.27,-233.91 1793.62,-240.91"/>
</g>
<!-- Node46 -->
<g id="node46" class="node">
<title>Node46</title>
<g id="a_node46"><a xlink:href="CachedValue_8h.html" target="_top" xlink:title="Declares &quot;mostly read&#45;only&quot; wrappers around values that are expensive to compute and are thus cached.">
<polygon fill="white" stroke="black" points="148.5,-112.5 148.5,-131.5 261.5,-131.5 261.5,-112.5 148.5,-112.5"/>
<text text-anchor="middle" x="205" y="-119.5" font-family="Helvetica,sans-Serif" font-size="10.00">utils/CachedValue.h</text>
</a>
</g>
</g>
<!-- Node4&#45;&gt;Node46 -->
<g id="edge72" class="edge">
<title>Node4&#45;&gt;Node46</title>
<path fill="none" stroke="midnightblue" d="M731.82,-288.09C642.85,-284.3 314.85,-268.74 276,-244 238.62,-220.2 218.51,-169.12 210,-141.55"/>
<polygon fill="midnightblue" stroke="midnightblue" points="213.27,-140.26 207.13,-131.63 206.55,-142.2 213.27,-140.26"/>
</g>
<!-- Node47 -->
<g id="node47" class="node">
<title>Node47</title>
<g id="a_node47"><a xlink:title=" ">
<polygon fill="white" stroke="#bfbfbf" points="1138,-224.5 1138,-243.5 1202,-243.5 1202,-224.5 1138,-224.5"/>
<text text-anchor="middle" x="1170" y="-231.5" font-family="Helvetica,sans-Serif" font-size="10.00">wx/defs.h</text>
</a>
</g>
</g>
<!-- Node4&#45;&gt;Node47 -->
<g id="edge77" class="edge">
<title>Node4&#45;&gt;Node47</title>
<path fill="none" stroke="midnightblue" d="M776.09,-287.1C832.79,-282.07 988.3,-267.27 1127.81,-244.06"/>
<polygon fill="midnightblue" stroke="midnightblue" points="1128.55,-247.48 1137.83,-242.37 1127.39,-240.58 1128.55,-247.48"/>
</g>
<!-- Node48 -->
<g id="node48" class="node">
<title>Node48</title>
<g id="a_node48"><a xlink:title=" ">
<polygon fill="white" stroke="#bfbfbf" points="1220,-224.5 1220,-243.5 1258,-243.5 1258,-224.5 1220,-224.5"/>
<text text-anchor="middle" x="1239" y="-231.5" font-family="Helvetica,sans-Serif" font-size="10.00">map</text>
</a>
</g>
</g>
<!-- Node4&#45;&gt;Node48 -->
<g id="edge79" class="edge">
<title>Node4&#45;&gt;Node48</title>
<path fill="none" stroke="midnightblue" d="M776.13,-288.49C841.37,-286.62 1038.58,-278.49 1209.92,-243.79"/>
<polygon fill="midnightblue" stroke="midnightblue" points="1210.78,-247.19 1219.86,-241.74 1209.36,-240.34 1210.78,-247.19"/>
</g>
<!-- Node6 -->
<g id="node6" class="node">
<title>Node6</title>
<g id="a_node6"><a xlink:title=" ">
<polygon fill="white" stroke="#bfbfbf" points="66.5,-56.5 66.5,-75.5 139.5,-75.5 139.5,-56.5 66.5,-56.5"/>
<text text-anchor="middle" x="103" y="-63.5" font-family="Helvetica,sans-Serif" font-size="10.00">wx/debug.h</text>
</a>
</g>
</g>
<!-- Node5&#45;&gt;Node6 -->
<g id="edge7" class="edge">
<title>Node5&#45;&gt;Node6</title>
<path fill="none" stroke="midnightblue" d="M339.39,-115.17C293.78,-105.88 204.16,-87.61 149.32,-76.44"/>
<polygon fill="midnightblue" stroke="midnightblue" points="150,-73.01 139.5,-74.44 148.6,-79.87 150,-73.01"/>
</g>
<!-- Node7 -->
<g id="node7" class="node">
<title>Node7</title>
<g id="a_node7"><a xlink:title=" ">
<polygon fill="white" stroke="#bfbfbf" points="234,-56.5 234,-75.5 292,-75.5 292,-56.5 234,-56.5"/>
<text text-anchor="middle" x="263" y="-63.5" font-family="Helvetica,sans-Serif" font-size="10.00">wx/log.h</text>
</a>
</g>
</g>
<!-- Node5&#45;&gt;Node7 -->
<g id="edge8" class="edge">
<title>Node5&#45;&gt;Node7</title>
<path fill="none" stroke="midnightblue" d="M351.13,-112.32C334.29,-103.66 308.19,-90.24 288.76,-80.25"/>
<polygon fill="midnightblue" stroke="midnightblue" points="290.32,-77.12 279.83,-75.65 287.12,-83.34 290.32,-77.12"/>
</g>
<!-- Node8 -->
<g id="node8" class="node">
<title>Node8</title>
<g id="a_node8"><a xlink:title=" ">
<polygon fill="white" stroke="#bfbfbf" points="542.5,-56.5 542.5,-75.5 587.5,-75.5 587.5,-56.5 542.5,-56.5"/>
<text text-anchor="middle" x="565" y="-63.5" font-family="Helvetica,sans-Serif" font-size="10.00">utility</text>
</a>
</g>
</g>
<!-- Node5&#45;&gt;Node8 -->
<g id="edge9" class="edge">
<title>Node5&#45;&gt;Node8</title>
<path fill="none" stroke="midnightblue" d="M396.63,-113.26C427.69,-104.86 478.98,-90.93 532.6,-76.09"/>
<polygon fill="midnightblue" stroke="midnightblue" points="533.58,-79.46 542.28,-73.41 531.71,-72.71 533.58,-79.46"/>
</g>
<!-- Node9 -->
<g id="node9" class="node">
<title>Node9</title>
<g id="a_node9"><a xlink:title=" ">
<polygon fill="white" stroke="#bfbfbf" points="626.5,-0.5 626.5,-19.5 679.5,-19.5 679.5,-0.5 626.5,-0.5"/>
<text text-anchor="middle" x="653" y="-7.5" font-family="Helvetica,sans-Serif" font-size="10.00">cstddef</text>
</a>
</g>
</g>
<!-- Node5&#45;&gt;Node9 -->
<g id="edge10" class="edge">
<title>Node5&#45;&gt;Node9</title>
<path fill="none" stroke="midnightblue" d="M377.06,-112.39C392.31,-98.4 424.63,-70.78 457,-56 509.44,-32.06 575.78,-20.28 616.27,-14.94"/>
<polygon fill="midnightblue" stroke="midnightblue" points="616.74,-18.4 626.23,-13.68 615.87,-11.46 616.74,-18.4"/>
</g>
<!-- Node10 -->
<g id="node10" class="node">
<title>Node10</title>
<g id="a_node10"><a xlink:title=" ">
<polygon fill="white" stroke="#bfbfbf" points="851,-56.5 851,-75.5 901,-75.5 901,-56.5 851,-56.5"/>
<text text-anchor="middle" x="876" y="-63.5" font-family="Helvetica,sans-Serif" font-size="10.00">cstdint</text>
</a>
</g>
</g>
<!-- Node5&#45;&gt;Node10 -->
<g id="edge11" class="edge">
<title>Node5&#45;&gt;Node10</title>
<path fill="none" stroke="midnightblue" d="M396.54,-118.57C487.38,-110.78 767.63,-86.48 840.93,-75.75"/>
<polygon fill="midnightblue" stroke="midnightblue" points="841.54,-79.2 850.85,-74.15 840.42,-72.29 841.54,-79.2"/>
</g>
<!-- Node11 -->
<g id="node11" class="node">
<title>Node11</title>
<g id="a_node11"><a xlink:title=" ">
<polygon fill="white" stroke="#bfbfbf" points="348,-56.5 348,-75.5 410,-75.5 410,-56.5 348,-56.5"/>
<text text-anchor="middle" x="379" y="-63.5" font-family="Helvetica,sans-Serif" font-size="10.00">cinttypes</text>
</a>
</g>
</g>
<!-- Node5&#45;&gt;Node11 -->
<g id="edge12" class="edge">
<title>Node5&#45;&gt;Node11</title>
<path fill="none" stroke="midnightblue" d="M369.82,-112.08C371.27,-104.93 373.37,-94.64 375.19,-85.69"/>
<polygon fill="midnightblue" stroke="midnightblue" points="378.65,-86.25 377.22,-75.75 371.79,-84.85 378.65,-86.25"/>
</g>
<!-- Node5&#45;&gt;Node12 -->
<g id="edge13" class="edge">
<title>Node5&#45;&gt;Node12</title>
<path fill="none" stroke="midnightblue" d="M388.12,-112.44C409.02,-103.56 441.93,-89.56 465.72,-79.45"/>
<polygon fill="midnightblue" stroke="midnightblue" points="467.14,-82.65 474.97,-75.52 464.4,-76.21 467.14,-82.65"/>
</g>
<!-- Node5&#45;&gt;Node13 -->
<g id="edge14" class="edge">
<title>Node5&#45;&gt;Node13</title>
<path fill="none" stroke="midnightblue" d="M361.12,-112.16C349.93,-98.32 326.45,-71.54 301,-56 273.7,-39.33 239.44,-27.92 212.53,-20.77"/>
<polygon fill="midnightblue" stroke="midnightblue" points="213.16,-17.32 202.6,-18.23 211.42,-24.1 213.16,-17.32"/>
</g>
<!-- Node14&#45;&gt;Node6 -->
<g id="edge16" class="edge">
<title>Node14&#45;&gt;Node6</title>
<path fill="none" stroke="midnightblue" d="M89.64,-112.08C91.79,-104.85 94.88,-94.41 97.55,-85.4"/>
<polygon fill="midnightblue" stroke="midnightblue" points="100.92,-86.33 100.41,-75.75 94.21,-84.34 100.92,-86.33"/>
</g>
<!-- Node14&#45;&gt;Node12 -->
<g id="edge17" class="edge">
<title>Node14&#45;&gt;Node12</title>
<path fill="none" stroke="midnightblue" d="M130.11,-113.38C133.11,-112.9 136.1,-112.43 139,-112 199.44,-102.95 376.33,-81.34 455.68,-71.74"/>
<polygon fill="midnightblue" stroke="midnightblue" points="456.25,-75.2 465.76,-70.52 455.41,-68.25 456.25,-75.2"/>
</g>
<!-- Node14&#45;&gt;Node13 -->
<g id="edge18" class="edge">
<title>Node14&#45;&gt;Node13</title>
<path fill="none" stroke="midnightblue" d="M77.33,-112.12C64.41,-99.15 44.5,-74.55 57,-56 71.79,-34.04 99.32,-22.8 123.27,-17.04"/>
<polygon fill="midnightblue" stroke="midnightblue" points="124.22,-20.41 133.26,-14.89 122.75,-13.57 124.22,-20.41"/>
</g>
<!-- Node15&#45;&gt;Node2 -->
<g id="edge20" class="edge">
<title>Node15&#45;&gt;Node2</title>
<path fill="none" stroke="midnightblue" d="M1028.42,-230.83C958.55,-226.68 829.24,-215.44 793,-188 759.74,-162.81 745.55,-113.11 740.07,-85.9"/>
<polygon fill="midnightblue" stroke="midnightblue" points="743.46,-84.96 738.22,-75.75 736.57,-86.22 743.46,-84.96"/>
</g>
<!-- Node15&#45;&gt;Node12 -->
<g id="edge60" class="edge">
<title>Node15&#45;&gt;Node12</title>
<path fill="none" stroke="midnightblue" d="M1028.4,-231.02C951.5,-227.01 791.44,-215.84 659,-188 578.26,-171.02 530.76,-198.56 482,-132 472.04,-118.4 477.73,-99.09 484.42,-85.05"/>
<polygon fill="midnightblue" stroke="midnightblue" points="487.68,-86.39 489.27,-75.92 481.49,-83.11 487.68,-86.39"/>
</g>
<!-- Node16 -->
<g id="node16" class="node">
<title>Node16</title>
<g id="a_node16"><a xlink:title=" ">
<polygon fill="white" stroke="#bfbfbf" points="1241.5,-168.5 1241.5,-187.5 1298.5,-187.5 1298.5,-168.5 1241.5,-168.5"/>
<text text-anchor="middle" x="1270" y="-175.5" font-family="Helvetica,sans-Serif" font-size="10.00">wx/wx.h</text>
</a>
</g>
</g>
<!-- Node15&#45;&gt;Node16 -->
<g id="edge21" class="edge">
<title>Node15&#45;&gt;Node16</title>
<path fill="none" stroke="midnightblue" d="M1105.06,-224.44C1139.29,-215.01 1194.41,-199.83 1231.4,-189.63"/>
<polygon fill="midnightblue" stroke="midnightblue" points="1232.61,-192.93 1241.32,-186.9 1230.75,-186.18 1232.61,-192.93"/>
</g>
<!-- Node17 -->
<g id="node17" class="node">
<title>Node17</title>
<g id="a_node17"><a xlink:title=" ">
<polygon fill="white" stroke="#bfbfbf" points="1370,-112.5 1370,-131.5 1442,-131.5 1442,-112.5 1370,-112.5"/>
<text text-anchor="middle" x="1406" y="-119.5" font-family="Helvetica,sans-Serif" font-size="10.00">wx/config.h</text>
</a>
</g>
</g>
<!-- Node15&#45;&gt;Node17 -->
<g id="edge22" class="edge">
<title>Node15&#45;&gt;Node17</title>
<path fill="none" stroke="midnightblue" d="M1119.59,-225.23C1182.68,-214.32 1290.81,-195.02 1308,-188 1338.35,-175.6 1369.18,-153.19 1387.95,-138.19"/>
<polygon fill="midnightblue" stroke="midnightblue" points="1390.37,-140.73 1395.91,-131.7 1385.95,-135.31 1390.37,-140.73"/>
</g>
<!-- Node18 -->
<g id="node18" class="node">
<title>Node18</title>
<g id="a_node18"><a xlink:title=" ">
<polygon fill="white" stroke="#bfbfbf" points="1393.5,-168.5 1393.5,-187.5 1470.5,-187.5 1470.5,-168.5 1393.5,-168.5"/>
<text text-anchor="middle" x="1432" y="-175.5" font-family="Helvetica,sans-Serif" font-size="10.00">wx/display.h</text>
</a>
</g>
</g>
<!-- Node15&#45;&gt;Node18 -->
<g id="edge23" class="edge">
<title>Node15&#45;&gt;Node18</title>
<path fill="none" stroke="midnightblue" d="M1119.61,-225.47C1122.79,-224.96 1125.94,-224.47 1129,-224 1239.95,-206.94 1268.1,-205.4 1379,-188 1380.3,-187.8 1381.61,-187.59 1382.94,-187.38"/>
<polygon fill="midnightblue" stroke="midnightblue" points="1383.92,-190.76 1393.23,-185.7 1382.8,-183.85 1383.92,-190.76"/>
</g>
<!-- Node19 -->
<g id="node19" class="node">
<title>Node19</title>
<g id="a_node19"><a xlink:title=" ">
<polygon fill="white" stroke="#bfbfbf" points="1489,-168.5 1489,-187.5 1579,-187.5 1579,-168.5 1489,-168.5"/>
<text text-anchor="middle" x="1534" y="-175.5" font-family="Helvetica,sans-Serif" font-size="10.00">wx/fontenum.h</text>
</a>
</g>
</g>
<!-- Node15&#45;&gt;Node19 -->
<g id="edge24" class="edge">
<title>Node15&#45;&gt;Node19</title>
<path fill="none" stroke="midnightblue" d="M1119.59,-225.32C1122.77,-224.85 1125.93,-224.41 1129,-224 1281.26,-203.75 1322.89,-208.68 1478.99,-188.06"/>
<polygon fill="midnightblue" stroke="midnightblue" points="1479.5,-191.52 1488.95,-186.73 1478.58,-184.58 1479.5,-191.52"/>
</g>
<!-- Node20 -->
<g id="node20" class="node">
<title>Node20</title>
<g id="a_node20"><a xlink:title=" ">
<polygon fill="white" stroke="#bfbfbf" points="1597,-168.5 1597,-187.5 1685,-187.5 1685,-168.5 1597,-168.5"/>
<text text-anchor="middle" x="1641" y="-175.5" font-family="Helvetica,sans-Serif" font-size="10.00">wx/hashmap.h</text>
</a>
</g>
</g>
<!-- Node15&#45;&gt;Node20 -->
<g id="edge25" class="edge">
<title>Node15&#45;&gt;Node20</title>
<path fill="none" stroke="midnightblue" d="M1119.58,-225.24C1122.76,-224.79 1125.93,-224.37 1129,-224 1328.88,-199.85 1383.19,-212.72 1586.68,-188.05"/>
<polygon fill="midnightblue" stroke="midnightblue" points="1587.3,-191.5 1596.8,-186.81 1586.45,-184.56 1587.3,-191.5"/>
</g>
<!-- Node21 -->
<g id="node21" class="node">
<title>Node21</title>
<g id="a_node21"><a xlink:href="LoggingMessageDialog_8h.html" target="_top" xlink:title="This file declares a message dialog that sends its contents to the log message sink.">
<polygon fill="white" stroke="black" points="491.5,-112.5 491.5,-131.5 630.5,-131.5 630.5,-112.5 491.5,-112.5"/>
<text text-anchor="middle" x="561" y="-119.5" font-family="Helvetica,sans-Serif" font-size="10.00">LoggingMessageDialog.h</text>
</a>
</g>
</g>
<!-- Node15&#45;&gt;Node21 -->
<g id="edge26" class="edge">
<title>Node15&#45;&gt;Node21</title>
<path fill="none" stroke="midnightblue" d="M1028.43,-230.96C960.48,-227.08 829.02,-216.31 721,-188 672.06,-175.17 618.12,-151.02 587.04,-136.04"/>
<polygon fill="midnightblue" stroke="midnightblue" points="588.31,-132.76 577.78,-131.52 585.24,-139.05 588.31,-132.76"/>
</g>
<!-- Node15&#45;&gt;Node23 -->
<g id="edge30" class="edge">
<title>Node15&#45;&gt;Node23</title>
<path fill="none" stroke="midnightblue" d="M1036.45,-224.44C994.79,-214.95 927.57,-199.64 882.85,-189.45"/>
<polygon fill="midnightblue" stroke="midnightblue" points="883.35,-185.97 872.83,-187.16 881.8,-192.8 883.35,-185.97"/>
</g>
<!-- Node36 -->
<g id="node36" class="node">
<title>Node36</title>
<g id="a_node36"><a xlink:title=" ">
<polygon fill="white" stroke="#bfbfbf" points="1619,-56.5 1619,-75.5 1651,-75.5 1651,-56.5 1619,-56.5"/>
<text text-anchor="middle" x="1635" y="-63.5" font-family="Helvetica,sans-Serif" font-size="10.00">list</text>
</a>
</g>
</g>
<!-- Node15&#45;&gt;Node36 -->
<g id="edge64" class="edge">
<title>Node15&#45;&gt;Node36</title>
<path fill="none" stroke="midnightblue" d="M1119.57,-225.19C1122.76,-224.75 1125.92,-224.35 1129,-224 1191.5,-216.91 1650.96,-233.87 1694,-188 1723.56,-156.49 1679.66,-107.39 1652.98,-82.53"/>
<polygon fill="midnightblue" stroke="midnightblue" points="1655.12,-79.75 1645.35,-75.65 1650.43,-84.95 1655.12,-79.75"/>
</g>
<!-- Node37 -->
<g id="node37" class="node">
<title>Node37</title>
<g id="a_node37"><a xlink:title=" ">
<polygon fill="white" stroke="#bfbfbf" points="1427.5,-56.5 1427.5,-75.5 1520.5,-75.5 1520.5,-56.5 1427.5,-56.5"/>
<text text-anchor="middle" x="1474" y="-63.5" font-family="Helvetica,sans-Serif" font-size="10.00">unordered_map</text>
</a>
</g>
</g>
<!-- Node15&#45;&gt;Node37 -->
<g id="edge62" class="edge">
<title>Node15&#45;&gt;Node37</title>
<path fill="none" stroke="midnightblue" d="M1119.52,-225.48C1194.14,-213.12 1334.78,-189.72 1340,-188 1346.56,-185.84 1446.44,-137.18 1451,-132 1462.48,-118.95 1468.34,-99.8 1471.26,-85.66"/>
<polygon fill="midnightblue" stroke="midnightblue" points="1474.74,-86.06 1473.02,-75.61 1467.85,-84.86 1474.74,-86.06"/>
</g>
<!-- Node38 -->
<g id="node38" class="node">
<title>Node38</title>
<g id="a_node38"><a xlink:title=" ">
<polygon fill="white" stroke="#bfbfbf" points="891,-168.5 891,-187.5 939,-187.5 939,-168.5 891,-168.5"/>
<text text-anchor="middle" x="915" y="-175.5" font-family="Helvetica,sans-Serif" font-size="10.00">mutex</text>
</a>
</g>
</g>
<!-- Node15&#45;&gt;Node38 -->
<g id="edge61" class="edge">
<title>Node15&#45;&gt;Node38</title>
<path fill="none" stroke="midnightblue" d="M1048.81,-224.44C1021.74,-215.25 978.6,-200.6 948.64,-190.43"/>
<polygon fill="midnightblue" stroke="midnightblue" points="949.63,-187.06 939.04,-187.16 947.38,-193.69 949.63,-187.06"/>
</g>
<!-- Node39 -->
<g id="node39" class="node">
<title>Node39</title>
<g id="a_node39"><a xlink:title=" ">
<polygon fill="white" stroke="#bfbfbf" points="957,-168.5 957,-187.5 1011,-187.5 1011,-168.5 957,-168.5"/>
<text text-anchor="middle" x="984" y="-175.5" font-family="Helvetica,sans-Serif" font-size="10.00">random</text>
</a>
</g>
</g>
<!-- Node15&#45;&gt;Node39 -->
<g id="edge63" class="edge">
<title>Node15&#45;&gt;Node39</title>
<path fill="none" stroke="midnightblue" d="M1059.54,-224.32C1045.5,-215.9 1023.95,-202.97 1007.46,-193.07"/>
<polygon fill="midnightblue" stroke="midnightblue" points="1008.8,-189.8 998.42,-187.65 1005.2,-195.8 1008.8,-189.8"/>
</g>
<!-- Node15&#45;&gt;Node40 -->
<g id="edge65" class="edge">
<title>Node15&#45;&gt;Node40</title>
<path fill="none" stroke="midnightblue" d="M1119.57,-225.18C1122.76,-224.74 1125.92,-224.34 1129,-224 1393.62,-194.46 1463.59,-226.83 1727,-188 1728.47,-187.78 1729.96,-187.54 1731.47,-187.27"/>
<polygon fill="midnightblue" stroke="midnightblue" points="1732.3,-190.67 1741.41,-185.25 1730.91,-183.81 1732.3,-190.67"/>
</g>
<!-- Node41 -->
<g id="node41" class="node">
<title>Node41</title>
<g id="a_node41"><a xlink:title=" ">
<polygon fill="white" stroke="#bfbfbf" points="1029.5,-168.5 1029.5,-187.5 1118.5,-187.5 1118.5,-168.5 1029.5,-168.5"/>
<text text-anchor="middle" x="1074" y="-175.5" font-family="Helvetica,sans-Serif" font-size="10.00">wx/wupdlock.h</text>
</a>
</g>
</g>
<!-- Node15&#45;&gt;Node41 -->
<g id="edge66" class="edge">
<title>Node15&#45;&gt;Node41</title>
<path fill="none" stroke="midnightblue" d="M1074,-224.08C1074,-217.01 1074,-206.86 1074,-197.99"/>
<polygon fill="midnightblue" stroke="midnightblue" points="1077.5,-197.75 1074,-187.75 1070.5,-197.75 1077.5,-197.75"/>
</g>
<!-- Node42 -->
<g id="node42" class="node">
<title>Node42</title>
<g id="a_node42"><a xlink:title=" ">
<polygon fill="white" stroke="#bfbfbf" points="1137,-168.5 1137,-187.5 1223,-187.5 1223,-168.5 1137,-168.5"/>
<text text-anchor="middle" x="1180" y="-175.5" font-family="Helvetica,sans-Serif" font-size="10.00">wx/webview.h</text>
</a>
</g>
</g>
<!-- Node15&#45;&gt;Node42 -->
<g id="edge67" class="edge">
<title>Node15&#45;&gt;Node42</title>
<path fill="none" stroke="midnightblue" d="M1091.03,-224.32C1108.03,-215.66 1134.38,-202.24 1153.99,-192.25"/>
<polygon fill="midnightblue" stroke="midnightblue" points="1155.69,-195.31 1163.01,-187.65 1152.51,-189.08 1155.69,-195.31"/>
</g>
<!-- Node21&#45;&gt;Node2 -->
<g id="edge27" class="edge">
<title>Node21&#45;&gt;Node2</title>
<path fill="none" stroke="midnightblue" d="M588.89,-112.44C618.75,-103.28 666.31,-88.69 699.46,-78.52"/>
<polygon fill="midnightblue" stroke="midnightblue" points="700.71,-81.8 709.24,-75.52 698.66,-75.1 700.71,-81.8"/>
</g>
<!-- Node21&#45;&gt;Node7 -->
<g id="edge29" class="edge">
<title>Node21&#45;&gt;Node7</title>
<path fill="none" stroke="midnightblue" d="M513.78,-112.44C455.35,-101.85 356.91,-84.02 302.36,-74.13"/>
<polygon fill="midnightblue" stroke="midnightblue" points="302.85,-70.66 292.38,-72.32 301.6,-77.55 302.85,-70.66"/>
</g>
<!-- Node22 -->
<g id="node22" class="node">
<title>Node22</title>
<g id="a_node22"><a xlink:title=" ">
<polygon fill="white" stroke="#bfbfbf" points="605.5,-56.5 605.5,-75.5 684.5,-75.5 684.5,-56.5 605.5,-56.5"/>
<text text-anchor="middle" x="645" y="-63.5" font-family="Helvetica,sans-Serif" font-size="10.00">wx/msgdlg.h</text>
</a>
</g>
</g>
<!-- Node21&#45;&gt;Node22 -->
<g id="edge28" class="edge">
<title>Node21&#45;&gt;Node22</title>
<path fill="none" stroke="midnightblue" d="M574.5,-112.32C587.6,-103.9 607.71,-90.97 623.11,-81.07"/>
<polygon fill="midnightblue" stroke="midnightblue" points="625.02,-84.01 631.54,-75.65 621.23,-78.12 625.02,-84.01"/>
</g>
<!-- Node23&#45;&gt;Node2 -->
<g id="edge31" class="edge">
<title>Node23&#45;&gt;Node2</title>
<path fill="none" stroke="midnightblue" d="M827.81,-168.25C818.56,-159.33 803.97,-145.01 792,-132 777.22,-115.94 761.19,-96.78 750.27,-83.44"/>
<polygon fill="midnightblue" stroke="midnightblue" points="752.93,-81.16 743.9,-75.61 747.5,-85.57 752.93,-81.16"/>
</g>
<!-- Node23&#45;&gt;Node10 -->
<g id="edge36" class="edge">
<title>Node23&#45;&gt;Node10</title>
<path fill="none" stroke="midnightblue" d="M872.13,-168.41C912.87,-158.1 975.32,-141.07 982,-132 987.27,-124.84 986.91,-119.41 982,-112 973.7,-99.45 938.51,-86.1 910.93,-77.23"/>
<polygon fill="midnightblue" stroke="midnightblue" points="911.76,-73.83 901.18,-74.18 909.67,-80.51 911.76,-73.83"/>
</g>
<!-- Node23&#45;&gt;Node17 -->
<g id="edge33" class="edge">
<title>Node23&#45;&gt;Node17</title>
<path fill="none" stroke="midnightblue" d="M872.79,-169.43C875.9,-168.9 879,-168.41 882,-168 1091.31,-139.23 1146.43,-158.75 1356,-132 1357.25,-131.84 1358.53,-131.67 1359.81,-131.49"/>
<polygon fill="midnightblue" stroke="midnightblue" points="1360.39,-134.94 1369.75,-129.98 1359.33,-128.02 1360.39,-134.94"/>
</g>
<!-- Node24 -->
<g id="node24" class="node">
<title>Node24</title>
<g id="a_node24"><a xlink:title=" ">
<polygon fill="white" stroke="#bfbfbf" points="801,-112.5 801,-131.5 873,-131.5 873,-112.5 801,-112.5"/>
<text text-anchor="middle" x="837" y="-119.5" font-family="Helvetica,sans-Serif" font-size="10.00">wx/colour.h</text>
</a>
</g>
</g>
<!-- Node23&#45;&gt;Node24 -->
<g id="edge32" class="edge">
<title>Node23&#45;&gt;Node24</title>
<path fill="none" stroke="midnightblue" d="M837,-168.08C837,-161.01 837,-150.86 837,-141.99"/>
<polygon fill="midnightblue" stroke="midnightblue" points="840.5,-141.75 837,-131.75 833.5,-141.75 840.5,-141.75"/>
</g>
<!-- Node25 -->
<g id="node25" class="node">
<title>Node25</title>
<g id="a_node25"><a xlink:title=" ">
<polygon fill="white" stroke="#bfbfbf" points="919,-56.5 919,-75.5 981,-75.5 981,-56.5 919,-56.5"/>
<text text-anchor="middle" x="950" y="-63.5" font-family="Helvetica,sans-Serif" font-size="10.00">wx/font.h</text>
</a>
</g>
</g>
<!-- Node23&#45;&gt;Node25 -->
<g id="edge34" class="edge">
<title>Node23&#45;&gt;Node25</title>
<path fill="none" stroke="midnightblue" d="M872.63,-169.36C917.41,-159.4 989.38,-142.06 997,-132 1010.01,-114.83 990.14,-94.68 972.37,-81.42"/>
<polygon fill="midnightblue" stroke="midnightblue" points="974.16,-78.4 963.97,-75.5 970.13,-84.12 974.16,-78.4"/>
</g>
<!-- Node26 -->
<g id="node26" class="node">
<title>Node26</title>
<g id="a_node26"><a xlink:title=" ">
<polygon fill="white" stroke="#bfbfbf" points="891,-112.5 891,-131.5 973,-131.5 973,-112.5 891,-112.5"/>
<text text-anchor="middle" x="932" y="-119.5" font-family="Helvetica,sans-Serif" font-size="10.00">wx/settings.h</text>
</a>
</g>
</g>
<!-- Node23&#45;&gt;Node26 -->
<g id="edge35" class="edge">
<title>Node23&#45;&gt;Node26</title>
<path fill="none" stroke="midnightblue" d="M852.26,-168.32C867.22,-159.82 890.25,-146.73 907.73,-136.8"/>
<polygon fill="midnightblue" stroke="midnightblue" points="909.81,-139.64 916.77,-131.65 906.35,-133.55 909.81,-139.64"/>
</g>
<!-- Node27 -->
<g id="node27" class="node">
<title>Node27</title>
<g id="a_node27"><a xlink:title=" ">
<polygon fill="white" stroke="#bfbfbf" points="1153.5,-0.5 1153.5,-19.5 1218.5,-19.5 1218.5,-0.5 1153.5,-0.5"/>
<text text-anchor="middle" x="1186" y="-7.5" font-family="Helvetica,sans-Serif" font-size="10.00">functional</text>
</a>
</g>
</g>
<!-- Node23&#45;&gt;Node27 -->
<g id="edge37" class="edge">
<title>Node23&#45;&gt;Node27</title>
<path fill="none" stroke="midnightblue" d="M872.8,-169.48C875.91,-168.93 879,-168.43 882,-168 1059.98,-142.33 1114.13,-188.05 1285,-132 1301.3,-126.65 1303.25,-120.75 1318,-112 1345.4,-95.74 1364.1,-103.61 1380,-76 1384.43,-68.3 1385.53,-62.96 1380,-56 1361.49,-32.7 1280.15,-20.39 1228.85,-14.82"/>
<polygon fill="midnightblue" stroke="midnightblue" points="1229.02,-11.32 1218.71,-13.77 1228.29,-18.28 1229.02,-11.32"/>
</g>
<!-- Node28 -->
<g id="node28" class="node">
<title>Node28</title>
<g id="a_node28"><a xlink:href="FontAttribs_8h_source.html" target="_top" xlink:title=" ">
<polygon fill="white" stroke="black" points="1196.5,-112.5 1196.5,-131.5 1275.5,-131.5 1275.5,-112.5 1196.5,-112.5"/>
<text text-anchor="middle" x="1236" y="-119.5" font-family="Helvetica,sans-Serif" font-size="10.00">FontAttribs.h</text>
</a>
</g>
</g>
<!-- Node23&#45;&gt;Node28 -->
<g id="edge38" class="edge">
<title>Node23&#45;&gt;Node28</title>
<path fill="none" stroke="midnightblue" d="M872.81,-169.57C875.92,-169.01 879.01,-168.47 882,-168 1014.08,-147.06 1050.91,-152.36 1186.54,-132.13"/>
<polygon fill="midnightblue" stroke="midnightblue" points="1187.12,-135.58 1196.48,-130.63 1186.07,-128.66 1187.12,-135.58"/>
</g>
<!-- Node35 -->
<g id="node35" class="node">
<title>Node35</title>
<g id="a_node35"><a xlink:href="FontVariantCache_8h.html" target="_top" xlink:title="This file implements the wxFont cache system.">
<polygon fill="white" stroke="black" points="1067.5,-112.5 1067.5,-131.5 1178.5,-131.5 1178.5,-112.5 1067.5,-112.5"/>
<text text-anchor="middle" x="1123" y="-119.5" font-family="Helvetica,sans-Serif" font-size="10.00">FontVariantCache.h</text>
</a>
</g>
</g>
<!-- Node23&#45;&gt;Node35 -->
<g id="edge51" class="edge">
<title>Node23&#45;&gt;Node35</title>
<path fill="none" stroke="midnightblue" d="M872.85,-169.79C875.95,-169.18 879.03,-168.57 882,-168 945.01,-155.82 1017.4,-142.38 1066.26,-133.38"/>
<polygon fill="midnightblue" stroke="midnightblue" points="1067.11,-136.78 1076.32,-131.53 1065.85,-129.9 1067.11,-136.78"/>
</g>
<!-- Node23&#45;&gt;Node37 -->
<g id="edge59" class="edge">
<title>Node23&#45;&gt;Node37</title>
<path fill="none" stroke="midnightblue" d="M872.8,-169.45C875.9,-168.92 879,-168.42 882,-168 1074.54,-140.89 1130.04,-181.77 1318,-132 1338.37,-126.6 1341.65,-120.35 1361,-112 1388.02,-100.35 1419.12,-88.04 1441.84,-79.25"/>
<polygon fill="midnightblue" stroke="midnightblue" points="1443.26,-82.45 1451.33,-75.59 1440.74,-75.92 1443.26,-82.45"/>
</g>
<!-- Node28&#45;&gt;Node10 -->
<g id="edge48" class="edge">
<title>Node28&#45;&gt;Node10</title>
<path fill="none" stroke="midnightblue" d="M1196.48,-113.41C1193.61,-112.91 1190.76,-112.44 1188,-112 1068.19,-93.03 1034.04,-99.62 911.33,-76.03"/>
<polygon fill="midnightblue" stroke="midnightblue" points="911.65,-72.53 901.17,-74.05 910.31,-79.4 911.65,-72.53"/>
</g>
<!-- Node28&#45;&gt;Node25 -->
<g id="edge45" class="edge">
<title>Node28&#45;&gt;Node25</title>
<path fill="none" stroke="midnightblue" d="M1196.45,-113.57C1193.59,-113.03 1190.75,-112.51 1188,-112 1103.14,-96.33 1079.31,-93.97 991.3,-76.2"/>
<polygon fill="midnightblue" stroke="midnightblue" points="991.91,-72.76 981.42,-74.2 990.52,-79.62 991.91,-72.76"/>
</g>
<!-- Node28&#45;&gt;Node27 -->
<g id="edge49" class="edge">
<title>Node28&#45;&gt;Node27</title>
<path fill="none" stroke="midnightblue" d="M1238.66,-112.1C1242.03,-99.11 1246.45,-74.48 1238,-56 1232.22,-43.36 1220.95,-32.91 1210.37,-25.27"/>
<polygon fill="midnightblue" stroke="midnightblue" points="1212.04,-22.18 1201.78,-19.53 1208.15,-28 1212.04,-22.18"/>
</g>
<!-- Node29 -->
<g id="node29" class="node">
<title>Node29</title>
<g id="a_node29"><a xlink:href="EnumWrapper_8h_source.html" target="_top" xlink:title=" ">
<polygon fill="white" stroke="black" points="999,-56.5 999,-75.5 1093,-75.5 1093,-56.5 999,-56.5"/>
<text text-anchor="middle" x="1046" y="-63.5" font-family="Helvetica,sans-Serif" font-size="10.00">EnumWrapper.h</text>
</a>
</g>
</g>
<!-- Node28&#45;&gt;Node29 -->
<g id="edge39" class="edge">
<title>Node28&#45;&gt;Node29</title>
<path fill="none" stroke="midnightblue" d="M1205.89,-112.44C1173.37,-103.2 1121.42,-88.44 1085.61,-78.26"/>
<polygon fill="midnightblue" stroke="midnightblue" points="1086.54,-74.88 1075.97,-75.52 1084.63,-81.62 1086.54,-74.88"/>
</g>
<!-- Node30 -->
<g id="node30" class="node">
<title>Node30</title>
<g id="a_node30"><a xlink:href="clamp_8hpp_source.html" target="_top" xlink:title=" ">
<polygon fill="white" stroke="black" points="1285,-56.5 1285,-75.5 1371,-75.5 1371,-56.5 1285,-56.5"/>
<text text-anchor="middle" x="1328" y="-63.5" font-family="Helvetica,sans-Serif" font-size="10.00">stx/clamp.hpp</text>
</a>
</g>
</g>
<!-- Node28&#45;&gt;Node30 -->
<g id="edge43" class="edge">
<title>Node28&#45;&gt;Node30</title>
<path fill="none" stroke="midnightblue" d="M1250.78,-112.32C1265.27,-103.82 1287.57,-90.73 1304.49,-80.8"/>
<polygon fill="midnightblue" stroke="midnightblue" points="1306.4,-83.74 1313.26,-75.65 1302.86,-77.7 1306.4,-83.74"/>
</g>
<!-- Node32 -->
<g id="node32" class="node">
<title>Node32</title>
<g id="a_node32"><a xlink:title=" ">
<polygon fill="white" stroke="#bfbfbf" points="1149.5,-56.5 1149.5,-75.5 1228.5,-75.5 1228.5,-56.5 1149.5,-56.5"/>
<text text-anchor="middle" x="1189" y="-63.5" font-family="Helvetica,sans-Serif" font-size="10.00">wx/version.h</text>
</a>
</g>
</g>
<!-- Node28&#45;&gt;Node32 -->
<g id="edge46" class="edge">
<title>Node28&#45;&gt;Node32</title>
<path fill="none" stroke="midnightblue" d="M1228.24,-112.08C1221.46,-104.3 1211.46,-92.8 1203.24,-83.37"/>
<polygon fill="midnightblue" stroke="midnightblue" points="1205.82,-81 1196.62,-75.75 1200.54,-85.59 1205.82,-81"/>
</g>
<!-- Node28&#45;&gt;Node33 -->
<g id="edge47" class="edge">
<title>Node28&#45;&gt;Node33</title>
<path fill="none" stroke="midnightblue" d="M1275.51,-117.58C1386.96,-107.94 1703.18,-80.57 1817.82,-70.65"/>
<polygon fill="midnightblue" stroke="midnightblue" points="1818.3,-74.12 1827.96,-69.77 1817.7,-67.15 1818.3,-74.12"/>
</g>
<!-- Node34 -->
<g id="node34" class="node">
<title>Node34</title>
<g id="a_node34"><a xlink:title=" ">
<polygon fill="white" stroke="#bfbfbf" points="789,-56.5 789,-75.5 833,-75.5 833,-56.5 789,-56.5"/>
<text text-anchor="middle" x="811" y="-63.5" font-family="Helvetica,sans-Serif" font-size="10.00">limits</text>
</a>
</g>
</g>
<!-- Node28&#45;&gt;Node34 -->
<g id="edge50" class="edge">
<title>Node28&#45;&gt;Node34</title>
<path fill="none" stroke="midnightblue" d="M1196.49,-113.33C1193.62,-112.85 1190.77,-112.4 1188,-112 1038.29,-90.21 995.56,-105 843.42,-75.95"/>
<polygon fill="midnightblue" stroke="midnightblue" points="843.72,-72.44 833.23,-73.97 842.38,-79.31 843.72,-72.44"/>
</g>
<!-- Node29&#45;&gt;Node9 -->
<g id="edge40" class="edge">
<title>Node29&#45;&gt;Node9</title>
<path fill="none" stroke="midnightblue" d="M998.96,-57.35C995.93,-56.88 992.92,-56.43 990,-56 880.97,-39.96 751.73,-23.38 689.75,-15.58"/>
<polygon fill="midnightblue" stroke="midnightblue" points="690.04,-12.09 679.68,-14.32 689.17,-19.04 690.04,-12.09"/>
</g>
<!-- Node29&#45;&gt;Node13 -->
<g id="edge42" class="edge">
<title>Node29&#45;&gt;Node13</title>
<path fill="none" stroke="midnightblue" d="M998.99,-57.08C995.96,-56.68 992.94,-56.32 990,-56 694.51,-24.26 336.72,-14.39 212.79,-11.81"/>
<polygon fill="midnightblue" stroke="midnightblue" points="212.63,-8.3 202.56,-11.6 212.49,-15.3 212.63,-8.3"/>
</g>
<!-- Node29&#45;&gt;Node27 -->
<g id="edge41" class="edge">
<title>Node29&#45;&gt;Node27</title>
<path fill="none" stroke="midnightblue" d="M1068.18,-56.44C1091.43,-47.48 1128.15,-33.31 1154.42,-23.18"/>
<polygon fill="midnightblue" stroke="midnightblue" points="1155.85,-26.38 1163.92,-19.52 1153.33,-19.85 1155.85,-26.38"/>
</g>
<!-- Node31 -->
<g id="node31" class="node">
<title>Node31</title>
<g id="a_node31"><a xlink:title=" ">
<polygon fill="white" stroke="#bfbfbf" points="1302,-0.5 1302,-19.5 1354,-19.5 1354,-0.5 1302,-0.5"/>
<text text-anchor="middle" x="1328" y="-7.5" font-family="Helvetica,sans-Serif" font-size="10.00">cassert</text>
</a>
</g>
</g>
<!-- Node30&#45;&gt;Node31 -->
<g id="edge44" class="edge">
<title>Node30&#45;&gt;Node31</title>
<path fill="none" stroke="midnightblue" d="M1328,-56.08C1328,-49.01 1328,-38.86 1328,-29.99"/>
<polygon fill="midnightblue" stroke="midnightblue" points="1331.5,-29.75 1328,-19.75 1324.5,-29.75 1331.5,-29.75"/>
</g>
<!-- Node35&#45;&gt;Node2 -->
<g id="edge52" class="edge">
<title>Node35&#45;&gt;Node2</title>
<path fill="none" stroke="midnightblue" d="M1067.26,-115C1001.29,-107.61 887.93,-93.99 781.2,-76.1"/>
<polygon fill="midnightblue" stroke="midnightblue" points="781.67,-72.63 771.22,-74.41 780.5,-79.53 781.67,-72.63"/>
</g>
<!-- Node35&#45;&gt;Node8 -->
<g id="edge57" class="edge">
<title>Node35&#45;&gt;Node8</title>
<path fill="none" stroke="midnightblue" d="M1067.23,-116.86C947.52,-107.9 671.41,-86.75 597.61,-75.78"/>
<polygon fill="midnightblue" stroke="midnightblue" points="598,-72.29 587.56,-74.11 596.85,-79.2 598,-72.29"/>
</g>
<!-- Node35&#45;&gt;Node12 -->
<g id="edge53" class="edge">
<title>Node35&#45;&gt;Node12</title>
<path fill="none" stroke="midnightblue" d="M1067.28,-117.25C936.79,-108.4 616.83,-86.28 534.71,-75.88"/>
<polygon fill="midnightblue" stroke="midnightblue" points="534.76,-72.35 524.37,-74.44 533.79,-79.29 534.76,-72.35"/>
</g>
<!-- Node35&#45;&gt;Node25 -->
<g id="edge54" class="edge">
<title>Node35&#45;&gt;Node25</title>
<path fill="none" stroke="midnightblue" d="M1095.59,-112.44C1066.23,-103.28 1019.48,-88.69 986.9,-78.52"/>
<polygon fill="midnightblue" stroke="midnightblue" points="987.87,-75.16 977.28,-75.52 985.79,-81.84 987.87,-75.16"/>
</g>
<!-- Node35&#45;&gt;Node27 -->
<g id="edge55" class="edge">
<title>Node35&#45;&gt;Node27</title>
<path fill="none" stroke="midnightblue" d="M1123.95,-112.46C1125.7,-99.5 1130.27,-74.41 1141,-56 1147.56,-44.75 1157.62,-34.31 1166.57,-26.33"/>
<polygon fill="midnightblue" stroke="midnightblue" points="1168.98,-28.88 1174.34,-19.74 1164.45,-23.54 1168.98,-28.88"/>
</g>
<!-- Node35&#45;&gt;Node36 -->
<g id="edge56" class="edge">
<title>Node35&#45;&gt;Node36</title>
<path fill="none" stroke="midnightblue" d="M1178.65,-113.16C1181.81,-112.75 1184.95,-112.37 1188,-112 1347.52,-92.93 1539.73,-75.42 1608.74,-69.3"/>
<polygon fill="midnightblue" stroke="midnightblue" points="1609.09,-72.78 1618.74,-68.42 1608.47,-65.81 1609.09,-72.78"/>
</g>
<!-- Node35&#45;&gt;Node37 -->
<g id="edge58" class="edge">
<title>Node35&#45;&gt;Node37</title>
<path fill="none" stroke="midnightblue" d="M1178.62,-112.44C1243.85,-102.41 1351.4,-85.86 1417.16,-75.74"/>
<polygon fill="midnightblue" stroke="midnightblue" points="1417.99,-79.16 1427.34,-74.18 1416.92,-72.24 1417.99,-79.16"/>
</g>
<!-- Node44 -->
<g id="node44" class="node">
<title>Node44</title>
<g id="a_node44"><a xlink:title=" ">
<polygon fill="white" stroke="#bfbfbf" points="1806.5,-168.5 1806.5,-187.5 1877.5,-187.5 1877.5,-168.5 1806.5,-168.5"/>
<text text-anchor="middle" x="1842" y="-175.5" font-family="Helvetica,sans-Serif" font-size="10.00">wx/string.h</text>
</a>
</g>
</g>
<!-- Node43&#45;&gt;Node44 -->
<g id="edge69" class="edge">
<title>Node43&#45;&gt;Node44</title>
<path fill="none" stroke="midnightblue" d="M1842,-224.08C1842,-217.01 1842,-206.86 1842,-197.99"/>
<polygon fill="midnightblue" stroke="midnightblue" points="1845.5,-197.75 1842,-187.75 1838.5,-197.75 1845.5,-197.75"/>
</g>
<!-- Node45 -->
<g id="node45" class="node">
<title>Node45</title>
<g id="a_node45"><a xlink:title=" ">
<polygon fill="white" stroke="#bfbfbf" points="1895.5,-168.5 1895.5,-187.5 1990.5,-187.5 1990.5,-168.5 1895.5,-168.5"/>
<text text-anchor="middle" x="1943" y="-175.5" font-family="Helvetica,sans-Serif" font-size="10.00">wx/translation.h</text>
</a>
</g>
</g>
<!-- Node43&#45;&gt;Node45 -->
<g id="edge70" class="edge">
<title>Node43&#45;&gt;Node45</title>
<path fill="none" stroke="midnightblue" d="M1858.23,-224.32C1874.35,-215.7 1899.3,-202.36 1917.96,-192.39"/>
<polygon fill="midnightblue" stroke="midnightblue" points="1919.64,-195.46 1926.81,-187.65 1916.34,-189.28 1919.64,-195.46"/>
</g>
<!-- Node46&#45;&gt;Node6 -->
<g id="edge73" class="edge">
<title>Node46&#45;&gt;Node6</title>
<path fill="none" stroke="midnightblue" d="M188.61,-112.32C172.33,-103.7 147.13,-90.36 128.28,-80.39"/>
<polygon fill="midnightblue" stroke="midnightblue" points="129.82,-77.24 119.35,-75.65 126.55,-83.43 129.82,-77.24"/>
</g>
<!-- Node46&#45;&gt;Node7 -->
<g id="edge74" class="edge">
<title>Node46&#45;&gt;Node7</title>
<path fill="none" stroke="midnightblue" d="M214.32,-112.32C222.89,-104.34 235.81,-92.31 246.19,-82.65"/>
<polygon fill="midnightblue" stroke="midnightblue" points="248.58,-85.21 253.51,-75.83 243.81,-80.09 248.58,-85.21"/>
</g>
<!-- Node46&#45;&gt;Node13 -->
<g id="edge76" class="edge">
<title>Node46&#45;&gt;Node13</title>
<path fill="none" stroke="midnightblue" d="M202.1,-112.37C196.1,-94.54 182.23,-53.3 174.15,-29.27"/>
<polygon fill="midnightblue" stroke="midnightblue" points="177.4,-27.95 170.89,-19.59 170.76,-30.19 177.4,-27.95"/>
</g>
<!-- Node46&#45;&gt;Node34 -->
<g id="edge75" class="edge">
<title>Node46&#45;&gt;Node34</title>
<path fill="none" stroke="midnightblue" d="M261.62,-116.88C392.9,-107.3 711.47,-83.79 778.79,-75.49"/>
<polygon fill="midnightblue" stroke="midnightblue" points="779.39,-78.94 788.78,-74.04 778.38,-72.01 779.39,-78.94"/>
</g>
<!-- Node49&#45;&gt;Node4 -->
<g id="edge84" class="edge">
<title>Node49&#45;&gt;Node4</title>
<path fill="none" stroke="midnightblue" d="M728.12,-336.08C732.41,-328.61 738.66,-317.72 743.94,-308.52"/>
<polygon fill="midnightblue" stroke="midnightblue" points="747.03,-310.17 748.98,-299.75 740.96,-306.68 747.03,-310.17"/>
</g>
</g>
</svg>
