<?xml version="1.0" encoding="UTF-8" standalone="no"?>
<!DOCTYPE svg PUBLIC "-//W3C//DTD SVG 1.1//EN"
 "http://www.w3.org/Graphics/SVG/1.1/DTD/svg11.dtd">
<!-- Generated by graphviz version 2.43.0 (0)
 -->
<!-- Title: src/SvgPanel.h Pages: 1 -->
<svg width="2414pt" height="412pt"
 viewBox="0.00 0.00 2413.50 412.00" xmlns="http://www.w3.org/2000/svg" xmlns:xlink="http://www.w3.org/1999/xlink">
<g id="graph0" class="graph" transform="scale(1 1) rotate(0) translate(4 408)">
<title>src/SvgPanel.h</title>
<!-- Node1 -->
<g id="node1" class="node">
<title>Node1</title>
<g id="a_node1"><a xlink:title="This file declares all the wizards the draw sidepane needs.">
<polygon fill="#999999" stroke="#666666" points="2080,-404 1993,-404 1993,-385 2080,-385 2080,-404"/>
<text text-anchor="middle" x="2036.5" y="-392" font-family="Helvetica,sans-Serif" font-size="10.00">src/SvgPanel.h</text>
</a>
</g>
</g>
<!-- Node2 -->
<g id="node2" class="node">
<title>Node2</title>
<g id="a_node2"><a xlink:href="precomp_8h_source.html" target="_top" xlink:title=" ">
<polygon fill="white" stroke="#666666" points="1725.5,-74 1657.5,-74 1657.5,-55 1725.5,-55 1725.5,-74"/>
<text text-anchor="middle" x="1691.5" y="-62" font-family="Helvetica,sans-Serif" font-size="10.00">precomp.h</text>
</a>
</g>
</g>
<!-- Node1&#45;&gt;Node2 -->
<g id="edge1" class="edge">
<title>Node1&#45;&gt;Node2</title>
<path fill="none" stroke="#63b8ff" d="M2080.28,-389.98C2178.02,-380.9 2405.5,-352.58 2405.5,-285.5 2405.5,-285.5 2405.5,-285.5 2405.5,-173.5 2405.5,-105.48 1892.41,-75.17 1736.13,-67.52"/>
<polygon fill="#63b8ff" stroke="#63b8ff" points="1736.09,-64.01 1725.94,-67.03 1735.76,-71 1736.09,-64.01"/>
</g>
<!-- Node4 -->
<g id="node4" class="node">
<title>Node4</title>
<g id="a_node4"><a xlink:title=" ">
<polygon fill="#e0e0e0" stroke="#999999" points="57,-184 0,-184 0,-165 57,-165 57,-184"/>
<text text-anchor="middle" x="28.5" y="-172" font-family="Helvetica,sans-Serif" font-size="10.00">wx/wx.h</text>
</a>
</g>
</g>
<!-- Node1&#45;&gt;Node4 -->
<g id="edge3" class="edge">
<title>Node1&#45;&gt;Node4</title>
<path fill="none" stroke="#63b8ff" d="M1992.85,-392.85C1791.85,-389.22 935.84,-366.63 248.5,-239 181.02,-226.47 104.49,-201.96 61.81,-187.32"/>
<polygon fill="#63b8ff" stroke="#63b8ff" points="62.82,-183.97 52.22,-184.01 60.53,-190.58 62.82,-183.97"/>
</g>
<!-- Node5 -->
<g id="node5" class="node">
<title>Node5</title>
<g id="a_node5"><a xlink:href="SvgBitmap_8h.html" target="_top" xlink:title="This file declares the class Image.">
<polygon fill="white" stroke="#666666" points="2076,-349 1997,-349 1997,-330 2076,-330 2076,-349"/>
<text text-anchor="middle" x="2036.5" y="-337" font-family="Helvetica,sans-Serif" font-size="10.00">SvgBitmap.h</text>
</a>
</g>
</g>
<!-- Node1&#45;&gt;Node5 -->
<g id="edge4" class="edge">
<title>Node1&#45;&gt;Node5</title>
<path fill="none" stroke="#63b8ff" d="M2036.5,-384.75C2036.5,-377.8 2036.5,-367.85 2036.5,-359.13"/>
<polygon fill="#63b8ff" stroke="#63b8ff" points="2040,-359.09 2036.5,-349.09 2033,-359.09 2040,-359.09"/>
</g>
<!-- Node3 -->
<g id="node3" class="node">
<title>Node3</title>
<g id="a_node3"><a xlink:title=" ">
<polygon fill="#e0e0e0" stroke="#999999" points="1732,-19 1651,-19 1651,0 1732,0 1732,-19"/>
<text text-anchor="middle" x="1691.5" y="-7" font-family="Helvetica,sans-Serif" font-size="10.00">BuildConfig.h</text>
</a>
</g>
</g>
<!-- Node2&#45;&gt;Node3 -->
<g id="edge2" class="edge">
<title>Node2&#45;&gt;Node3</title>
<path fill="none" stroke="#63b8ff" d="M1691.5,-54.75C1691.5,-47.8 1691.5,-37.85 1691.5,-29.13"/>
<polygon fill="#63b8ff" stroke="#63b8ff" points="1695,-29.09 1691.5,-19.09 1688,-29.09 1695,-29.09"/>
</g>
<!-- Node5&#45;&gt;Node2 -->
<g id="edge6" class="edge">
<title>Node5&#45;&gt;Node2</title>
<path fill="none" stroke="#63b8ff" d="M2031.09,-329.68C2023.96,-316.84 2013.46,-292.59 2023.5,-275 2039.11,-247.66 2059.2,-257.74 2084.5,-239 2113.57,-217.47 2129.93,-217.11 2144.5,-184 2152.13,-166.66 2151.79,-123.16 2138.5,-110 2110.25,-82.01 1843.28,-70.38 1735.91,-66.8"/>
<polygon fill="#63b8ff" stroke="#63b8ff" points="1735.83,-63.3 1725.72,-66.47 1735.61,-70.29 1735.83,-63.3"/>
</g>
<!-- Node6 -->
<g id="node6" class="node">
<title>Node6</title>
<g id="a_node6"><a xlink:title=" ">
<polygon fill="#e0e0e0" stroke="#999999" points="1378.5,-74 1320.5,-74 1320.5,-55 1378.5,-55 1378.5,-74"/>
<text text-anchor="middle" x="1349.5" y="-62" font-family="Helvetica,sans-Serif" font-size="10.00">memory</text>
</a>
</g>
</g>
<!-- Node5&#45;&gt;Node6 -->
<g id="edge5" class="edge">
<title>Node5&#45;&gt;Node6</title>
<path fill="none" stroke="#63b8ff" d="M1996.91,-337.49C1851.28,-333.59 1352.49,-318.49 1329.5,-294 1274.23,-235.14 1319.05,-126.19 1340.09,-83.41"/>
<polygon fill="#63b8ff" stroke="#63b8ff" points="1343.23,-84.96 1344.63,-74.46 1336.98,-81.79 1343.23,-84.96"/>
</g>
<!-- Node7 -->
<g id="node7" class="node">
<title>Node7</title>
<g id="a_node7"><a xlink:title=" ">
<polygon fill="#e0e0e0" stroke="#999999" points="2109,-294 2032,-294 2032,-275 2109,-275 2109,-294"/>
<text text-anchor="middle" x="2070.5" y="-282" font-family="Helvetica,sans-Serif" font-size="10.00">wx/bitmap.h</text>
</a>
</g>
</g>
<!-- Node5&#45;&gt;Node7 -->
<g id="edge7" class="edge">
<title>Node5&#45;&gt;Node7</title>
<path fill="none" stroke="#63b8ff" d="M2042.11,-329.75C2046.82,-322.42 2053.67,-311.73 2059.47,-302.7"/>
<polygon fill="#63b8ff" stroke="#63b8ff" points="2062.54,-304.4 2064.99,-294.09 2056.64,-300.62 2062.54,-304.4"/>
</g>
<!-- Node8 -->
<g id="node8" class="node">
<title>Node8</title>
<g id="a_node8"><a xlink:title=" ">
<polygon fill="#e0e0e0" stroke="#999999" points="2234,-294 2127,-294 2127,-275 2234,-275 2234,-294"/>
<text text-anchor="middle" x="2180.5" y="-282" font-family="Helvetica,sans-Serif" font-size="10.00">nanosvg_private.h</text>
</a>
</g>
</g>
<!-- Node5&#45;&gt;Node8 -->
<g id="edge8" class="edge">
<title>Node5&#45;&gt;Node8</title>
<path fill="none" stroke="#63b8ff" d="M2059.64,-329.98C2083.32,-321.27 2120.37,-307.63 2147.21,-297.75"/>
<polygon fill="#63b8ff" stroke="#63b8ff" points="2148.77,-300.91 2156.94,-294.17 2146.35,-294.34 2148.77,-300.91"/>
</g>
<!-- Node9 -->
<g id="node9" class="node">
<title>Node9</title>
<g id="a_node9"><a xlink:title=" ">
<polygon fill="#e0e0e0" stroke="#999999" points="2377,-294 2252,-294 2252,-275 2377,-275 2377,-294"/>
<text text-anchor="middle" x="2314.5" y="-282" font-family="Helvetica,sans-Serif" font-size="10.00">nanosvgrast_private.h</text>
</a>
</g>
</g>
<!-- Node5&#45;&gt;Node9 -->
<g id="edge9" class="edge">
<title>Node5&#45;&gt;Node9</title>
<path fill="none" stroke="#63b8ff" d="M2076.04,-330.96C2124.06,-321.81 2205.34,-306.31 2259.46,-295.99"/>
<polygon fill="#63b8ff" stroke="#63b8ff" points="2260.41,-299.38 2269.57,-294.06 2259.1,-292.5 2260.41,-299.38"/>
</g>
<!-- Node10 -->
<g id="node10" class="node">
<title>Node10</title>
<g id="a_node10"><a xlink:href="Cell_8h.html" target="_top" xlink:title="The definition of the base class of all cells the worksheet consists of.">
<polygon fill="white" stroke="#666666" points="1408.5,-294 1338.5,-294 1338.5,-275 1408.5,-275 1408.5,-294"/>
<text text-anchor="middle" x="1373.5" y="-282" font-family="Helvetica,sans-Serif" font-size="10.00">cells/Cell.h</text>
</a>
</g>
</g>
<!-- Node5&#45;&gt;Node10 -->
<g id="edge10" class="edge">
<title>Node5&#45;&gt;Node10</title>
<path fill="none" stroke="#63b8ff" d="M1996.52,-335.3C1880.09,-326 1541.75,-298.95 1418.82,-289.12"/>
<polygon fill="#63b8ff" stroke="#63b8ff" points="1418.88,-285.62 1408.63,-288.31 1418.32,-292.59 1418.88,-285.62"/>
</g>
<!-- Node10&#45;&gt;Node2 -->
<g id="edge11" class="edge">
<title>Node10&#45;&gt;Node2</title>
<path fill="none" stroke="#63b8ff" d="M1408.83,-283.54C1529.71,-283.31 1925.86,-279.4 2045.5,-239 2087.43,-224.84 2107.56,-222.99 2128.5,-184 2137.72,-166.84 2135.58,-124.47 2120.5,-110 2093.11,-83.71 1839.93,-71.15 1735.85,-67.06"/>
<polygon fill="#63b8ff" stroke="#63b8ff" points="1735.8,-63.56 1725.67,-66.67 1735.53,-70.55 1735.8,-63.56"/>
</g>
<!-- Node10&#45;&gt;Node6 -->
<g id="edge84" class="edge">
<title>Node10&#45;&gt;Node6</title>
<path fill="none" stroke="#63b8ff" d="M1372.56,-274.95C1369.04,-242.95 1356.57,-129.68 1351.58,-84.4"/>
<polygon fill="#63b8ff" stroke="#63b8ff" points="1355.03,-83.78 1350.46,-74.22 1348.08,-84.55 1355.03,-83.78"/>
</g>
<!-- Node11 -->
<g id="node11" class="node">
<title>Node11</title>
<g id="a_node11"><a xlink:href="CellPtr_8h.html" target="_top" xlink:title="Implementation of an observing weak Cell pointer.">
<polygon fill="white" stroke="#666666" points="1435,-184 1378,-184 1378,-165 1435,-165 1435,-184"/>
<text text-anchor="middle" x="1406.5" y="-172" font-family="Helvetica,sans-Serif" font-size="10.00">CellPtr.h</text>
</a>
</g>
</g>
<!-- Node10&#45;&gt;Node11 -->
<g id="edge12" class="edge">
<title>Node10&#45;&gt;Node11</title>
<path fill="none" stroke="#63b8ff" d="M1376.2,-274.66C1381.57,-257.09 1393.68,-217.45 1400.86,-193.95"/>
<polygon fill="#63b8ff" stroke="#63b8ff" points="1404.28,-194.74 1403.85,-184.16 1397.58,-192.7 1404.28,-194.74"/>
</g>
<!-- Node18 -->
<g id="node18" class="node">
<title>Node18</title>
<g id="a_node18"><a xlink:title=" ">
<polygon fill="#e0e0e0" stroke="#999999" points="2001,-129 1932,-129 1932,-110 2001,-110 2001,-129"/>
<text text-anchor="middle" x="1966.5" y="-117" font-family="Helvetica,sans-Serif" font-size="10.00">type_traits</text>
</a>
</g>
</g>
<!-- Node10&#45;&gt;Node18 -->
<g id="edge86" class="edge">
<title>Node10&#45;&gt;Node18</title>
<path fill="none" stroke="#63b8ff" d="M1408.58,-282.38C1483.49,-279.47 1664.33,-269.59 1812.5,-239 1891.93,-222.6 1938.57,-249.42 1986.5,-184 1996.6,-170.21 1988.36,-151.17 1979.6,-137.54"/>
<polygon fill="#63b8ff" stroke="#63b8ff" points="1982.28,-135.27 1973.66,-129.1 1976.55,-139.29 1982.28,-135.27"/>
</g>
<!-- Node19 -->
<g id="node19" class="node">
<title>Node19</title>
<g id="a_node19"><a xlink:href="CellIterators_8h.html" target="_top" xlink:title="Declares the various iterators useful with the Cell class.">
<polygon fill="white" stroke="#666666" points="2119.5,-184 2033.5,-184 2033.5,-165 2119.5,-165 2119.5,-184"/>
<text text-anchor="middle" x="2076.5" y="-172" font-family="Helvetica,sans-Serif" font-size="10.00">CellIterators.h</text>
</a>
</g>
</g>
<!-- Node10&#45;&gt;Node19 -->
<g id="edge21" class="edge">
<title>Node10&#45;&gt;Node19</title>
<path fill="none" stroke="#63b8ff" d="M1408.77,-282.61C1535.69,-279.22 1964.5,-265.84 2019.5,-239 2039.81,-229.09 2056.16,-208.43 2066.05,-193.36"/>
<polygon fill="#63b8ff" stroke="#63b8ff" points="2069.3,-194.78 2071.6,-184.44 2063.35,-191.08 2069.3,-194.78"/>
</g>
<!-- Node21 -->
<g id="node21" class="node">
<title>Node21</title>
<g id="a_node21"><a xlink:href="Configuration_8h_source.html" target="_top" xlink:title=" ">
<polygon fill="white" stroke="#666666" points="646,-239 555,-239 555,-220 646,-220 646,-239"/>
<text text-anchor="middle" x="600.5" y="-227" font-family="Helvetica,sans-Serif" font-size="10.00">Configuration.h</text>
</a>
</g>
</g>
<!-- Node10&#45;&gt;Node21 -->
<g id="edge26" class="edge">
<title>Node10&#45;&gt;Node21</title>
<path fill="none" stroke="#63b8ff" d="M1338.28,-281.08C1215.69,-272.68 807.05,-244.66 656.67,-234.35"/>
<polygon fill="#63b8ff" stroke="#63b8ff" points="656.51,-230.83 646.29,-233.64 656.03,-237.82 656.51,-230.83"/>
</g>
<!-- Node28 -->
<g id="node27" class="node">
<title>Node28</title>
<g id="a_node27"><a xlink:href="TextStyle_8h.html" target="_top" xlink:title="This file declares everything needed for the text style system used to style all the elements on the ...">
<polygon fill="white" stroke="#666666" points="1050.5,-184 954.5,-184 954.5,-165 1050.5,-165 1050.5,-184"/>
<text text-anchor="middle" x="1002.5" y="-172" font-family="Helvetica,sans-Serif" font-size="10.00">cells/TextStyle.h</text>
</a>
</g>
</g>
<!-- Node10&#45;&gt;Node28 -->
<g id="edge76" class="edge">
<title>Node10&#45;&gt;Node28</title>
<path fill="none" stroke="#63b8ff" d="M1344.08,-274.94C1277.79,-255.64 1116.7,-208.74 1041.89,-186.97"/>
<polygon fill="#63b8ff" stroke="#63b8ff" points="1042.5,-183.5 1031.92,-184.07 1040.55,-190.22 1042.5,-183.5"/>
</g>
<!-- Node30 -->
<g id="node29" class="node">
<title>Node30</title>
<g id="a_node29"><a xlink:title=" ">
<polygon fill="#e0e0e0" stroke="#999999" points="1245.5,-129 1207.5,-129 1207.5,-110 1245.5,-110 1245.5,-129"/>
<text text-anchor="middle" x="1226.5" y="-117" font-family="Helvetica,sans-Serif" font-size="10.00">map</text>
</a>
</g>
</g>
<!-- Node10&#45;&gt;Node30 -->
<g id="edge83" class="edge">
<title>Node10&#45;&gt;Node30</title>
<path fill="none" stroke="#63b8ff" d="M1365.6,-274.74C1342.07,-248.65 1272.2,-171.17 1241.38,-137"/>
<polygon fill="#63b8ff" stroke="#63b8ff" points="1243.74,-134.39 1234.44,-129.31 1238.54,-139.08 1243.74,-134.39"/>
</g>
<!-- Node39 -->
<g id="node36" class="node">
<title>Node39</title>
<g id="a_node36"><a xlink:title=" ">
<polygon fill="#e0e0e0" stroke="#999999" points="155.5,-74 91.5,-74 91.5,-55 155.5,-55 155.5,-74"/>
<text text-anchor="middle" x="123.5" y="-62" font-family="Helvetica,sans-Serif" font-size="10.00">algorithm</text>
</a>
</g>
</g>
<!-- Node10&#45;&gt;Node39 -->
<g id="edge82" class="edge">
<title>Node10&#45;&gt;Node39</title>
<path fill="none" stroke="#63b8ff" d="M1338.21,-283.57C1216.39,-283.43 802.32,-279.77 463.5,-239 335.42,-223.59 286.95,-253.87 178.5,-184 143.97,-161.75 130.77,-111.67 126,-84.27"/>
<polygon fill="#63b8ff" stroke="#63b8ff" points="129.41,-83.42 124.44,-74.07 122.49,-84.48 129.41,-83.42"/>
</g>
<!-- Node46 -->
<g id="node42" class="node">
<title>Node46</title>
<g id="a_node42"><a xlink:title=" ">
<polygon fill="#e0e0e0" stroke="#999999" points="1245,-184 1198,-184 1198,-165 1245,-165 1245,-184"/>
<text text-anchor="middle" x="1221.5" y="-172" font-family="Helvetica,sans-Serif" font-size="10.00">vector</text>
</a>
</g>
</g>
<!-- Node10&#45;&gt;Node46 -->
<g id="edge85" class="edge">
<title>Node10&#45;&gt;Node46</title>
<path fill="none" stroke="#63b8ff" d="M1357,-274.88C1341.27,-266.42 1317.14,-252.81 1297.5,-239 1276.14,-223.98 1253.37,-204.43 1238.39,-191.01"/>
<polygon fill="#63b8ff" stroke="#63b8ff" points="1240.69,-188.37 1230.92,-184.26 1235.99,-193.56 1240.69,-188.37"/>
</g>
<!-- Node50 -->
<g id="node46" class="node">
<title>Node50</title>
<g id="a_node46"><a xlink:href="StringUtils_8h_source.html" target="_top" xlink:title=" ">
<polygon fill="white" stroke="#666666" points="1760,-239 1683,-239 1683,-220 1760,-220 1760,-239"/>
<text text-anchor="middle" x="1721.5" y="-227" font-family="Helvetica,sans-Serif" font-size="10.00">StringUtils.h</text>
</a>
</g>
</g>
<!-- Node10&#45;&gt;Node50 -->
<g id="edge73" class="edge">
<title>Node10&#45;&gt;Node50</title>
<path fill="none" stroke="#63b8ff" d="M1408.78,-278.13C1471.37,-268.59 1601.9,-248.72 1672.92,-237.9"/>
<polygon fill="#63b8ff" stroke="#63b8ff" points="1673.6,-241.34 1682.95,-236.37 1672.54,-234.42 1673.6,-241.34"/>
</g>
<!-- Node53 -->
<g id="node49" class="node">
<title>Node53</title>
<g id="a_node49"><a xlink:href="CachedValue_8h.html" target="_top" xlink:title="Declares &quot;mostly read&#45;only&quot; wrappers around values that are expensive to compute and are thus cached.">
<polygon fill="#fff0f0" stroke="red" points="1977,-184 1888,-184 1888,-165 1977,-165 1977,-184"/>
<text text-anchor="middle" x="1932.5" y="-172" font-family="Helvetica,sans-Serif" font-size="10.00">CachedValue.h</text>
</a>
</g>
</g>
<!-- Node10&#45;&gt;Node53 -->
<g id="edge77" class="edge">
<title>Node10&#45;&gt;Node53</title>
<path fill="none" stroke="#63b8ff" d="M1408.73,-282.6C1478.55,-280.14 1639.02,-271.17 1769.5,-239 1819.2,-226.75 1874.12,-203.1 1905.84,-188.37"/>
<polygon fill="#63b8ff" stroke="#63b8ff" points="1907.34,-191.54 1914.91,-184.11 1904.37,-185.2 1907.34,-191.54"/>
</g>
<!-- Node54 -->
<g id="node50" class="node">
<title>Node54</title>
<g id="a_node50"><a xlink:title=" ">
<polygon fill="#e0e0e0" stroke="#999999" points="536.5,-239 472.5,-239 472.5,-220 536.5,-220 536.5,-239"/>
<text text-anchor="middle" x="504.5" y="-227" font-family="Helvetica,sans-Serif" font-size="10.00">wx/defs.h</text>
</a>
</g>
</g>
<!-- Node10&#45;&gt;Node54 -->
<g id="edge81" class="edge">
<title>Node10&#45;&gt;Node54</title>
<path fill="none" stroke="#63b8ff" d="M1338.22,-283.5C1224.7,-283.1 858.63,-278.7 546.79,-238.95"/>
<polygon fill="#63b8ff" stroke="#63b8ff" points="547.02,-235.45 536.65,-237.64 546.12,-242.39 547.02,-235.45"/>
</g>
<!-- Node11&#45;&gt;Node6 -->
<g id="edge19" class="edge">
<title>Node11&#45;&gt;Node6</title>
<path fill="none" stroke="#63b8ff" d="M1407.83,-164.72C1409.33,-151.93 1410.53,-127.74 1401.5,-110 1395.27,-97.76 1384.06,-87.49 1373.64,-79.92"/>
<polygon fill="#63b8ff" stroke="#63b8ff" points="1375.44,-76.92 1365.2,-74.21 1371.52,-82.71 1375.44,-76.92"/>
</g>
<!-- Node12 -->
<g id="node12" class="node">
<title>Node12</title>
<g id="a_node12"><a xlink:title=" ">
<polygon fill="#e0e0e0" stroke="#999999" points="1914,-129 1841,-129 1841,-110 1914,-110 1914,-129"/>
<text text-anchor="middle" x="1877.5" y="-117" font-family="Helvetica,sans-Serif" font-size="10.00">wx/debug.h</text>
</a>
</g>
</g>
<!-- Node11&#45;&gt;Node12 -->
<g id="edge13" class="edge">
<title>Node11&#45;&gt;Node12</title>
<path fill="none" stroke="#63b8ff" d="M1435.35,-170.22C1449.29,-168.64 1466.26,-166.72 1481.5,-165 1607.63,-150.77 1756.38,-134.08 1830.53,-125.76"/>
<polygon fill="#63b8ff" stroke="#63b8ff" points="1831.37,-129.19 1840.92,-124.6 1830.59,-122.23 1831.37,-129.19"/>
</g>
<!-- Node13 -->
<g id="node13" class="node">
<title>Node13</title>
<g id="a_node13"><a xlink:title=" ">
<polygon fill="#e0e0e0" stroke="#999999" points="1777.5,-129 1719.5,-129 1719.5,-110 1777.5,-110 1777.5,-129"/>
<text text-anchor="middle" x="1748.5" y="-117" font-family="Helvetica,sans-Serif" font-size="10.00">wx/log.h</text>
</a>
</g>
</g>
<!-- Node11&#45;&gt;Node13 -->
<g id="edge14" class="edge">
<title>Node11&#45;&gt;Node13</title>
<path fill="none" stroke="#63b8ff" d="M1435.07,-169.07C1496.15,-159.61 1639.53,-137.39 1709.17,-126.6"/>
<polygon fill="#63b8ff" stroke="#63b8ff" points="1709.94,-130.02 1719.29,-125.03 1708.87,-123.1 1709.94,-130.02"/>
</g>
<!-- Node14 -->
<g id="node14" class="node">
<title>Node14</title>
<g id="a_node14"><a xlink:title=" ">
<polygon fill="#e0e0e0" stroke="#999999" points="1044,-74 999,-74 999,-55 1044,-55 1044,-74"/>
<text text-anchor="middle" x="1021.5" y="-62" font-family="Helvetica,sans-Serif" font-size="10.00">utility</text>
</a>
</g>
</g>
<!-- Node11&#45;&gt;Node14 -->
<g id="edge15" class="edge">
<title>Node11&#45;&gt;Node14</title>
<path fill="none" stroke="#63b8ff" d="M1393.58,-164.78C1372.39,-150.9 1328.51,-123.95 1287.5,-110 1206.39,-82.4 1105.33,-71.52 1054.28,-67.56"/>
<polygon fill="#63b8ff" stroke="#63b8ff" points="1054.4,-64.06 1044.17,-66.82 1053.88,-71.04 1054.4,-64.06"/>
</g>
<!-- Node15 -->
<g id="node15" class="node">
<title>Node15</title>
<g id="a_node15"><a xlink:title=" ">
<polygon fill="#e0e0e0" stroke="#999999" points="1625,-129 1572,-129 1572,-110 1625,-110 1625,-129"/>
<text text-anchor="middle" x="1598.5" y="-117" font-family="Helvetica,sans-Serif" font-size="10.00">cstddef</text>
</a>
</g>
</g>
<!-- Node11&#45;&gt;Node15 -->
<g id="edge16" class="edge">
<title>Node11&#45;&gt;Node15</title>
<path fill="none" stroke="#63b8ff" d="M1435.24,-165.57C1469,-156.25 1525.05,-140.78 1561.88,-130.61"/>
<polygon fill="#63b8ff" stroke="#63b8ff" points="1563.02,-133.92 1571.73,-127.89 1561.16,-127.18 1563.02,-133.92"/>
</g>
<!-- Node16 -->
<g id="node16" class="node">
<title>Node16</title>
<g id="a_node16"><a xlink:title=" ">
<polygon fill="#e0e0e0" stroke="#999999" points="654.5,-74 604.5,-74 604.5,-55 654.5,-55 654.5,-74"/>
<text text-anchor="middle" x="629.5" y="-62" font-family="Helvetica,sans-Serif" font-size="10.00">cstdint</text>
</a>
</g>
</g>
<!-- Node11&#45;&gt;Node16 -->
<g id="edge17" class="edge">
<title>Node11&#45;&gt;Node16</title>
<path fill="none" stroke="#63b8ff" d="M1379.99,-164.99C1355.53,-156.81 1318.43,-143.57 1287.5,-129 1272.19,-121.79 1270.7,-114.89 1254.5,-110 1133.62,-73.55 813.07,-87.16 687.5,-74 680.05,-73.22 672.1,-72.19 664.54,-71.11"/>
<polygon fill="#63b8ff" stroke="#63b8ff" points="664.97,-67.63 654.57,-69.63 663.95,-74.56 664.97,-67.63"/>
</g>
<!-- Node17 -->
<g id="node17" class="node">
<title>Node17</title>
<g id="a_node17"><a xlink:title=" ">
<polygon fill="#e0e0e0" stroke="#999999" points="1553.5,-129 1491.5,-129 1491.5,-110 1553.5,-110 1553.5,-129"/>
<text text-anchor="middle" x="1522.5" y="-117" font-family="Helvetica,sans-Serif" font-size="10.00">cinttypes</text>
</a>
</g>
</g>
<!-- Node11&#45;&gt;Node17 -->
<g id="edge18" class="edge">
<title>Node11&#45;&gt;Node17</title>
<path fill="none" stroke="#63b8ff" d="M1425.14,-164.98C1443.8,-156.46 1472.75,-143.23 1494.24,-133.41"/>
<polygon fill="#63b8ff" stroke="#63b8ff" points="1495.88,-136.51 1503.52,-129.17 1492.97,-130.14 1495.88,-136.51"/>
</g>
<!-- Node11&#45;&gt;Node18 -->
<g id="edge20" class="edge">
<title>Node11&#45;&gt;Node18</title>
<path fill="none" stroke="#63b8ff" d="M1435.33,-170.02C1449.26,-168.39 1466.24,-166.49 1481.5,-165 1674.41,-146.22 1726.56,-155.82 1921.81,-129.09"/>
<polygon fill="#63b8ff" stroke="#63b8ff" points="1922.4,-132.54 1931.82,-127.71 1921.44,-125.61 1922.4,-132.54"/>
</g>
<!-- Node19&#45;&gt;Node6 -->
<g id="edge23" class="edge">
<title>Node19&#45;&gt;Node6</title>
<path fill="none" stroke="#63b8ff" d="M2070.79,-165C2060.62,-150.67 2037.84,-122.1 2010.5,-110 1953.73,-84.88 1522.56,-70.48 1388.89,-66.58"/>
<polygon fill="#63b8ff" stroke="#63b8ff" points="1388.79,-63.08 1378.7,-66.29 1388.59,-70.08 1388.79,-63.08"/>
</g>
<!-- Node19&#45;&gt;Node12 -->
<g id="edge22" class="edge">
<title>Node19&#45;&gt;Node12</title>
<path fill="none" stroke="#63b8ff" d="M2044.53,-164.98C2010.68,-155.97 1957.1,-141.7 1919.79,-131.76"/>
<polygon fill="#63b8ff" stroke="#63b8ff" points="1920.29,-128.27 1909.72,-129.08 1918.49,-135.04 1920.29,-128.27"/>
</g>
<!-- Node19&#45;&gt;Node18 -->
<g id="edge24" class="edge">
<title>Node19&#45;&gt;Node18</title>
<path fill="none" stroke="#63b8ff" d="M2058.83,-164.98C2041.21,-156.5 2013.92,-143.35 1993.57,-133.54"/>
<polygon fill="#63b8ff" stroke="#63b8ff" points="1995.02,-130.36 1984.49,-129.17 1991.98,-136.66 1995.02,-130.36"/>
</g>
<!-- Node20 -->
<g id="node20" class="node">
<title>Node20</title>
<g id="a_node20"><a xlink:title=" ">
<polygon fill="#e0e0e0" stroke="#999999" points="2111,-129 2058,-129 2058,-110 2111,-110 2111,-129"/>
<text text-anchor="middle" x="2084.5" y="-117" font-family="Helvetica,sans-Serif" font-size="10.00">iterator</text>
</a>
</g>
</g>
<!-- Node19&#45;&gt;Node20 -->
<g id="edge25" class="edge">
<title>Node19&#45;&gt;Node20</title>
<path fill="none" stroke="#63b8ff" d="M2077.82,-164.75C2078.87,-157.8 2080.37,-147.85 2081.69,-139.13"/>
<polygon fill="#63b8ff" stroke="#63b8ff" points="2085.17,-139.5 2083.2,-129.09 2078.25,-138.45 2085.17,-139.5"/>
</g>
<!-- Node21&#45;&gt;Node2 -->
<g id="edge27" class="edge">
<title>Node21&#45;&gt;Node2</title>
<path fill="none" stroke="#63b8ff" d="M646.19,-228.54C798.97,-228.28 1291,-224.27 1443.5,-184 1461.76,-179.18 1463.75,-171.44 1481.5,-165 1546.76,-141.32 1573.66,-164.19 1633.5,-129 1652.93,-117.58 1669.61,-97.55 1680.03,-83.03"/>
<polygon fill="#63b8ff" stroke="#63b8ff" points="1683.16,-84.66 1685.94,-74.44 1677.39,-80.7 1683.16,-84.66"/>
</g>
<!-- Node21&#45;&gt;Node4 -->
<g id="edge28" class="edge">
<title>Node21&#45;&gt;Node4</title>
<path fill="none" stroke="#63b8ff" d="M554.92,-221.2C551.73,-220.77 548.57,-220.36 545.5,-220 352.41,-197.14 303.09,-202.15 109.5,-184 95.84,-182.72 80.89,-181.19 67.6,-179.78"/>
<polygon fill="#63b8ff" stroke="#63b8ff" points="67.67,-176.27 57.35,-178.68 66.92,-183.23 67.67,-176.27"/>
</g>
<!-- Node21&#45;&gt;Node6 -->
<g id="edge63" class="edge">
<title>Node21&#45;&gt;Node6</title>
<path fill="none" stroke="#63b8ff" d="M646.15,-226.34C746.41,-221.24 982.95,-207.09 1059.5,-184 1126.51,-163.79 1133.71,-136.47 1198.5,-110 1235.44,-94.91 1279.35,-82.56 1310.28,-74.73"/>
<polygon fill="#63b8ff" stroke="#63b8ff" points="1311.38,-78.06 1320.24,-72.25 1309.69,-71.27 1311.38,-78.06"/>
</g>
<!-- Node21&#45;&gt;Node16 -->
<g id="edge62" class="edge">
<title>Node21&#45;&gt;Node16</title>
<path fill="none" stroke="#63b8ff" d="M590.89,-219.69C582.63,-211.41 571.3,-198.18 566.5,-184 563.79,-176 564.15,-173.11 566.5,-165 567.82,-160.43 600.5,-109.94 618.26,-82.7"/>
<polygon fill="#63b8ff" stroke="#63b8ff" points="621.31,-84.43 623.84,-74.14 615.45,-80.61 621.31,-84.43"/>
</g>
<!-- Node22 -->
<g id="node22" class="node">
<title>Node22</title>
<g id="a_node22"><a xlink:title=" ">
<polygon fill="#e0e0e0" stroke="#999999" points="405.5,-129 333.5,-129 333.5,-110 405.5,-110 405.5,-129"/>
<text text-anchor="middle" x="369.5" y="-117" font-family="Helvetica,sans-Serif" font-size="10.00">wx/config.h</text>
</a>
</g>
</g>
<!-- Node21&#45;&gt;Node22 -->
<g id="edge29" class="edge">
<title>Node21&#45;&gt;Node22</title>
<path fill="none" stroke="#63b8ff" d="M554.9,-221.46C496.32,-212.03 400.68,-195.2 388.5,-184 376.2,-172.69 371.74,-153.79 370.19,-139.54"/>
<polygon fill="#63b8ff" stroke="#63b8ff" points="373.66,-139.07 369.46,-129.34 366.68,-139.56 373.66,-139.07"/>
</g>
<!-- Node23 -->
<g id="node23" class="node">
<title>Node23</title>
<g id="a_node23"><a xlink:title=" ">
<polygon fill="#e0e0e0" stroke="#999999" points="828,-184 751,-184 751,-165 828,-165 828,-184"/>
<text text-anchor="middle" x="789.5" y="-172" font-family="Helvetica,sans-Serif" font-size="10.00">wx/display.h</text>
</a>
</g>
</g>
<!-- Node21&#45;&gt;Node23 -->
<g id="edge30" class="edge">
<title>Node21&#45;&gt;Node23</title>
<path fill="none" stroke="#63b8ff" d="M630.87,-219.98C662.87,-211.01 713.46,-196.82 748.88,-186.89"/>
<polygon fill="#63b8ff" stroke="#63b8ff" points="750.21,-190.15 758.9,-184.08 748.32,-183.41 750.21,-190.15"/>
</g>
<!-- Node24 -->
<g id="node24" class="node">
<title>Node24</title>
<g id="a_node24"><a xlink:title=" ">
<polygon fill="#e0e0e0" stroke="#999999" points="936.5,-184 846.5,-184 846.5,-165 936.5,-165 936.5,-184"/>
<text text-anchor="middle" x="891.5" y="-172" font-family="Helvetica,sans-Serif" font-size="10.00">wx/fontenum.h</text>
</a>
</g>
</g>
<!-- Node21&#45;&gt;Node24 -->
<g id="edge31" class="edge">
<title>Node21&#45;&gt;Node24</title>
<path fill="none" stroke="#63b8ff" d="M646.29,-220.16C697.82,-210.77 781.51,-195.53 836.53,-185.51"/>
<polygon fill="#63b8ff" stroke="#63b8ff" points="837.25,-188.94 846.46,-183.7 835.99,-182.05 837.25,-188.94"/>
</g>
<!-- Node25 -->
<g id="node25" class="node">
<title>Node25</title>
<g id="a_node25"><a xlink:title=" ">
<polygon fill="#e0e0e0" stroke="#999999" points="315.5,-129 227.5,-129 227.5,-110 315.5,-110 315.5,-129"/>
<text text-anchor="middle" x="271.5" y="-117" font-family="Helvetica,sans-Serif" font-size="10.00">wx/hashmap.h</text>
</a>
</g>
</g>
<!-- Node21&#45;&gt;Node25 -->
<g id="edge32" class="edge">
<title>Node21&#45;&gt;Node25</title>
<path fill="none" stroke="#63b8ff" d="M554.75,-220.45C493.38,-209.5 390.13,-190.55 373.5,-184 342.36,-171.74 310.19,-149.91 290.51,-135.31"/>
<polygon fill="#63b8ff" stroke="#63b8ff" points="292.49,-132.42 282.4,-129.18 288.27,-138 292.49,-132.42"/>
</g>
<!-- Node26 -->
<g id="node26" class="node">
<title>Node26</title>
<g id="a_node26"><a xlink:href="LoggingMessageDialog_8h.html" target="_top" xlink:title="This file declares a message dialog that sends its contents to the log message sink.">
<polygon fill="#fff0f0" stroke="red" points="1668,-184 1491,-184 1491,-165 1668,-165 1668,-184"/>
<text text-anchor="middle" x="1579.5" y="-172" font-family="Helvetica,sans-Serif" font-size="10.00">dialogs/LoggingMessageDialog.h</text>
</a>
</g>
</g>
<!-- Node21&#45;&gt;Node26 -->
<g id="edge33" class="edge">
<title>Node21&#45;&gt;Node26</title>
<path fill="none" stroke="#63b8ff" d="M646.18,-226.71C776.23,-221.48 1159.59,-205.31 1477.5,-184 1478.59,-183.93 1479.68,-183.85 1480.78,-183.78"/>
<polygon fill="#63b8ff" stroke="#63b8ff" points="1481.05,-187.27 1490.78,-183.07 1480.56,-180.28 1481.05,-187.27"/>
</g>
<!-- Node21&#45;&gt;Node28 -->
<g id="edge36" class="edge">
<title>Node21&#45;&gt;Node28</title>
<path fill="none" stroke="#63b8ff" d="M646.02,-222.92C710.13,-215 830.94,-199.83 944.09,-184.17"/>
<polygon fill="#63b8ff" stroke="#63b8ff" points="944.88,-187.6 954.31,-182.75 943.92,-180.66 944.88,-187.6"/>
</g>
<!-- Node21&#45;&gt;Node39 -->
<g id="edge69" class="edge">
<title>Node21&#45;&gt;Node39</title>
<path fill="none" stroke="#63b8ff" d="M554.91,-221.28C551.72,-220.83 548.57,-220.4 545.5,-220 470.16,-210.2 270.84,-222.77 205.5,-184 166.37,-160.78 141.45,-110.75 130.3,-83.72"/>
<polygon fill="#63b8ff" stroke="#63b8ff" points="133.51,-82.31 126.59,-74.29 127,-84.87 133.51,-82.31"/>
</g>
<!-- Node42 -->
<g id="node38" class="node">
<title>Node42</title>
<g id="a_node38"><a xlink:title=" ">
<polygon fill="#e0e0e0" stroke="#999999" points="498.5,-74 466.5,-74 466.5,-55 498.5,-55 498.5,-74"/>
<text text-anchor="middle" x="482.5" y="-62" font-family="Helvetica,sans-Serif" font-size="10.00">list</text>
</a>
</g>
</g>
<!-- Node21&#45;&gt;Node42 -->
<g id="edge67" class="edge">
<title>Node21&#45;&gt;Node42</title>
<path fill="none" stroke="#63b8ff" d="M554.9,-221.33C551.72,-220.87 548.56,-220.42 545.5,-220 479.2,-210.89 301.36,-222.33 246.5,-184 224.02,-168.29 224.9,-155.67 218.5,-129 216.53,-120.79 212.99,-116.4 218.5,-110 253.38,-69.45 404.46,-86.35 456.5,-74 456.6,-73.98 456.7,-73.95 456.8,-73.93"/>
<polygon fill="#63b8ff" stroke="#63b8ff" points="457.72,-77.31 466.39,-71.23 455.82,-70.57 457.72,-77.31"/>
</g>
<!-- Node43 -->
<g id="node39" class="node">
<title>Node43</title>
<g id="a_node39"><a xlink:title=" ">
<polygon fill="#e0e0e0" stroke="#999999" points="448,-74 355,-74 355,-55 448,-55 448,-74"/>
<text text-anchor="middle" x="401.5" y="-62" font-family="Helvetica,sans-Serif" font-size="10.00">unordered_map</text>
</a>
</g>
</g>
<!-- Node21&#45;&gt;Node43 -->
<g id="edge65" class="edge">
<title>Node21&#45;&gt;Node43</title>
<path fill="none" stroke="#63b8ff" d="M554.9,-221.3C551.72,-220.85 548.56,-220.41 545.5,-220 474.57,-210.53 279.05,-231.47 225.5,-184 200.51,-161.85 191.77,-136.18 212.5,-110 228.8,-89.42 295.24,-77.41 344.76,-71.16"/>
<polygon fill="#63b8ff" stroke="#63b8ff" points="345.23,-74.63 354.74,-69.95 344.39,-67.68 345.23,-74.63"/>
</g>
<!-- Node44 -->
<g id="node40" class="node">
<title>Node44</title>
<g id="a_node40"><a xlink:title=" ">
<polygon fill="#e0e0e0" stroke="#999999" points="303.5,-184 255.5,-184 255.5,-165 303.5,-165 303.5,-184"/>
<text text-anchor="middle" x="279.5" y="-172" font-family="Helvetica,sans-Serif" font-size="10.00">mutex</text>
</a>
</g>
</g>
<!-- Node21&#45;&gt;Node44 -->
<g id="edge64" class="edge">
<title>Node21&#45;&gt;Node44</title>
<path fill="none" stroke="#63b8ff" d="M554.86,-221.4C477.79,-209.4 329.04,-186.2 317.5,-184 316.23,-183.76 314.94,-183.51 313.63,-183.24"/>
<polygon fill="#63b8ff" stroke="#63b8ff" points="314.08,-179.76 303.57,-181.13 312.64,-186.61 314.08,-179.76"/>
</g>
<!-- Node45 -->
<g id="node41" class="node">
<title>Node45</title>
<g id="a_node41"><a xlink:title=" ">
<polygon fill="#e0e0e0" stroke="#999999" points="451.5,-184 397.5,-184 397.5,-165 451.5,-165 451.5,-184"/>
<text text-anchor="middle" x="424.5" y="-172" font-family="Helvetica,sans-Serif" font-size="10.00">random</text>
</a>
</g>
</g>
<!-- Node21&#45;&gt;Node45 -->
<g id="edge66" class="edge">
<title>Node21&#45;&gt;Node45</title>
<path fill="none" stroke="#63b8ff" d="M572.22,-219.98C542.11,-210.92 494.32,-196.53 461.29,-186.58"/>
<polygon fill="#63b8ff" stroke="#63b8ff" points="462.14,-183.18 451.55,-183.65 460.12,-189.88 462.14,-183.18"/>
</g>
<!-- Node21&#45;&gt;Node46 -->
<g id="edge68" class="edge">
<title>Node21&#45;&gt;Node46</title>
<path fill="none" stroke="#63b8ff" d="M646.11,-227.25C744.67,-224.06 984.71,-213.66 1183.5,-184 1184.96,-183.78 1186.45,-183.54 1187.95,-183.28"/>
<polygon fill="#63b8ff" stroke="#63b8ff" points="1188.74,-186.69 1197.88,-181.33 1187.4,-179.82 1188.74,-186.69"/>
</g>
<!-- Node47 -->
<g id="node43" class="node">
<title>Node47</title>
<g id="a_node43"><a xlink:title=" ">
<polygon fill="#e0e0e0" stroke="#999999" points="519.5,-184 469.5,-184 469.5,-165 519.5,-165 519.5,-184"/>
<text text-anchor="middle" x="494.5" y="-172" font-family="Helvetica,sans-Serif" font-size="10.00">atomic</text>
</a>
</g>
</g>
<!-- Node21&#45;&gt;Node47 -->
<g id="edge70" class="edge">
<title>Node21&#45;&gt;Node47</title>
<path fill="none" stroke="#63b8ff" d="M583.47,-219.98C566.57,-211.54 540.44,-198.47 520.86,-188.68"/>
<polygon fill="#63b8ff" stroke="#63b8ff" points="522.35,-185.51 511.84,-184.17 519.22,-191.77 522.35,-185.51"/>
</g>
<!-- Node48 -->
<g id="node44" class="node">
<title>Node48</title>
<g id="a_node44"><a xlink:title=" ">
<polygon fill="#e0e0e0" stroke="#999999" points="625.5,-184 575.5,-184 575.5,-165 625.5,-165 625.5,-184"/>
<text text-anchor="middle" x="600.5" y="-172" font-family="Helvetica,sans-Serif" font-size="10.00">chrono</text>
</a>
</g>
</g>
<!-- Node21&#45;&gt;Node48 -->
<g id="edge71" class="edge">
<title>Node21&#45;&gt;Node48</title>
<path fill="none" stroke="#63b8ff" d="M600.5,-219.75C600.5,-212.8 600.5,-202.85 600.5,-194.13"/>
<polygon fill="#63b8ff" stroke="#63b8ff" points="604,-194.09 600.5,-184.09 597,-194.09 604,-194.09"/>
</g>
<!-- Node49 -->
<g id="node45" class="node">
<title>Node49</title>
<g id="a_node45"><a xlink:title=" ">
<polygon fill="#e0e0e0" stroke="#999999" points="733,-184 644,-184 644,-165 733,-165 733,-184"/>
<text text-anchor="middle" x="688.5" y="-172" font-family="Helvetica,sans-Serif" font-size="10.00">wx/wupdlock.h</text>
</a>
</g>
</g>
<!-- Node21&#45;&gt;Node49 -->
<g id="edge72" class="edge">
<title>Node21&#45;&gt;Node49</title>
<path fill="none" stroke="#63b8ff" d="M614.64,-219.98C628.29,-211.77 649.19,-199.18 665.28,-189.49"/>
<polygon fill="#63b8ff" stroke="#63b8ff" points="667.34,-192.33 674.1,-184.17 663.73,-186.33 667.34,-192.33"/>
</g>
<!-- Node26&#45;&gt;Node2 -->
<g id="edge34" class="edge">
<title>Node26&#45;&gt;Node2</title>
<path fill="none" stroke="#63b8ff" d="M1608.71,-164.9C1627.72,-157.96 1651.82,-146.45 1667.5,-129 1678.81,-116.41 1684.98,-97.96 1688.23,-84.19"/>
<polygon fill="#63b8ff" stroke="#63b8ff" points="1691.66,-84.85 1690.24,-74.35 1684.8,-83.45 1691.66,-84.85"/>
</g>
<!-- Node26&#45;&gt;Node13 -->
<g id="edge35" class="edge">
<title>Node26&#45;&gt;Node13</title>
<path fill="none" stroke="#63b8ff" d="M1606.65,-164.98C1635.03,-156.09 1679.73,-142.07 1711.36,-132.15"/>
<polygon fill="#63b8ff" stroke="#63b8ff" points="1712.64,-135.41 1721.13,-129.08 1710.55,-128.73 1712.64,-135.41"/>
</g>
<!-- Node28&#45;&gt;Node2 -->
<g id="edge37" class="edge">
<title>Node28&#45;&gt;Node2</title>
<path fill="none" stroke="#63b8ff" d="M1050.68,-165.95C1178.27,-145.95 1523.63,-91.81 1646.97,-72.48"/>
<polygon fill="#63b8ff" stroke="#63b8ff" points="1647.84,-75.89 1657.18,-70.88 1646.75,-68.97 1647.84,-75.89"/>
</g>
<!-- Node28&#45;&gt;Node16 -->
<g id="edge46" class="edge">
<title>Node28&#45;&gt;Node16</title>
<path fill="none" stroke="#63b8ff" d="M954.31,-166.24C951.33,-165.82 948.37,-165.4 945.5,-165 883.14,-156.36 716.56,-164.4 664.5,-129 648.92,-118.4 639.59,-98.49 634.54,-83.78"/>
<polygon fill="#63b8ff" stroke="#63b8ff" points="637.87,-82.72 631.58,-74.19 631.18,-84.78 637.87,-82.72"/>
</g>
<!-- Node28&#45;&gt;Node22 -->
<g id="edge43" class="edge">
<title>Node28&#45;&gt;Node22</title>
<path fill="none" stroke="#63b8ff" d="M954.33,-166.04C951.35,-165.66 948.38,-165.31 945.5,-165 712.55,-139.7 652.19,-156.67 419.5,-129 418.25,-128.85 416.98,-128.69 415.69,-128.52"/>
<polygon fill="#63b8ff" stroke="#63b8ff" points="416.15,-125.05 405.76,-127.1 415.16,-131.98 416.15,-125.05"/>
</g>
<!-- Node28&#45;&gt;Node25 -->
<g id="edge40" class="edge">
<title>Node28&#45;&gt;Node25</title>
<path fill="none" stroke="#63b8ff" d="M954.34,-166.01C951.35,-165.64 948.39,-165.3 945.5,-165 673.86,-136.93 601.11,-158.39 325.99,-129.04"/>
<polygon fill="#63b8ff" stroke="#63b8ff" points="326.02,-125.53 315.7,-127.93 325.27,-132.48 326.02,-125.53"/>
</g>
<!-- Node29 -->
<g id="node28" class="node">
<title>Node29</title>
<g id="a_node28"><a xlink:title=" ">
<polygon fill="#e0e0e0" stroke="#999999" points="1013.5,-129 941.5,-129 941.5,-110 1013.5,-110 1013.5,-129"/>
<text text-anchor="middle" x="977.5" y="-117" font-family="Helvetica,sans-Serif" font-size="10.00">wx/colour.h</text>
</a>
</g>
</g>
<!-- Node28&#45;&gt;Node29 -->
<g id="edge38" class="edge">
<title>Node28&#45;&gt;Node29</title>
<path fill="none" stroke="#63b8ff" d="M998.37,-164.75C994.99,-157.57 990.08,-147.18 985.88,-138.27"/>
<polygon fill="#63b8ff" stroke="#63b8ff" points="988.98,-136.64 981.55,-129.09 982.65,-139.63 988.98,-136.64"/>
</g>
<!-- Node28&#45;&gt;Node30 -->
<g id="edge39" class="edge">
<title>Node28&#45;&gt;Node30</title>
<path fill="none" stroke="#63b8ff" d="M1038.49,-164.98C1082.75,-154.51 1156.98,-136.95 1197.67,-127.32"/>
<polygon fill="#63b8ff" stroke="#63b8ff" points="1198.57,-130.71 1207.49,-125 1196.95,-123.89 1198.57,-130.71"/>
</g>
<!-- Node31 -->
<g id="node30" class="node">
<title>Node31</title>
<g id="a_node30"><a xlink:title=" ">
<polygon fill="#e0e0e0" stroke="#999999" points="1075.5,-129 1031.5,-129 1031.5,-110 1075.5,-110 1075.5,-129"/>
<text text-anchor="middle" x="1053.5" y="-117" font-family="Helvetica,sans-Serif" font-size="10.00">string</text>
</a>
</g>
</g>
<!-- Node28&#45;&gt;Node31 -->
<g id="edge41" class="edge">
<title>Node28&#45;&gt;Node31</title>
<path fill="none" stroke="#63b8ff" d="M1010.92,-164.75C1018.27,-157.11 1029.13,-145.82 1038.04,-136.56"/>
<polygon fill="#63b8ff" stroke="#63b8ff" points="1040.82,-138.72 1045.24,-129.09 1035.78,-133.87 1040.82,-138.72"/>
</g>
<!-- Node32 -->
<g id="node31" class="node">
<title>Node32</title>
<g id="a_node31"><a xlink:title=" ">
<polygon fill="#e0e0e0" stroke="#999999" points="1151,-129 1094,-129 1094,-110 1151,-110 1151,-129"/>
<text text-anchor="middle" x="1122.5" y="-117" font-family="Helvetica,sans-Serif" font-size="10.00">ostream</text>
</a>
</g>
</g>
<!-- Node28&#45;&gt;Node32 -->
<g id="edge42" class="edge">
<title>Node28&#45;&gt;Node32</title>
<path fill="none" stroke="#63b8ff" d="M1021.78,-164.98C1041.17,-156.42 1071.31,-143.11 1093.57,-133.28"/>
<polygon fill="#63b8ff" stroke="#63b8ff" points="1095.14,-136.41 1102.87,-129.17 1092.31,-130.01 1095.14,-136.41"/>
</g>
<!-- Node33 -->
<g id="node32" class="node">
<title>Node33</title>
<g id="a_node32"><a xlink:title=" ">
<polygon fill="#e0e0e0" stroke="#999999" points="578.5,-74 516.5,-74 516.5,-55 578.5,-55 578.5,-74"/>
<text text-anchor="middle" x="547.5" y="-62" font-family="Helvetica,sans-Serif" font-size="10.00">wx/font.h</text>
</a>
</g>
</g>
<!-- Node28&#45;&gt;Node33 -->
<g id="edge44" class="edge">
<title>Node28&#45;&gt;Node33</title>
<path fill="none" stroke="#63b8ff" d="M954.33,-166.08C951.34,-165.69 948.38,-165.33 945.5,-165 895.11,-159.26 524.92,-166.25 490.5,-129 474.84,-112.05 499.33,-92.22 520.92,-79.29"/>
<polygon fill="#63b8ff" stroke="#63b8ff" points="522.91,-82.19 529.87,-74.2 519.44,-76.1 522.91,-82.19"/>
</g>
<!-- Node34 -->
<g id="node33" class="node">
<title>Node34</title>
<g id="a_node33"><a xlink:title=" ">
<polygon fill="#e0e0e0" stroke="#999999" points="885.5,-129 803.5,-129 803.5,-110 885.5,-110 885.5,-129"/>
<text text-anchor="middle" x="844.5" y="-117" font-family="Helvetica,sans-Serif" font-size="10.00">wx/settings.h</text>
</a>
</g>
</g>
<!-- Node28&#45;&gt;Node34 -->
<g id="edge45" class="edge">
<title>Node28&#45;&gt;Node34</title>
<path fill="none" stroke="#63b8ff" d="M977.11,-164.98C950.7,-156.13 909.15,-142.19 879.61,-132.28"/>
<polygon fill="#63b8ff" stroke="#63b8ff" points="880.68,-128.94 870.08,-129.08 878.45,-135.58 880.68,-128.94"/>
</g>
<!-- Node35 -->
<g id="node34" class="node">
<title>Node35</title>
<g id="a_node34"><a xlink:title=" ">
<polygon fill="#e0e0e0" stroke="#999999" points="762,-74 697,-74 697,-55 762,-55 762,-74"/>
<text text-anchor="middle" x="729.5" y="-62" font-family="Helvetica,sans-Serif" font-size="10.00">functional</text>
</a>
</g>
</g>
<!-- Node28&#45;&gt;Node35 -->
<g id="edge47" class="edge">
<title>Node28&#45;&gt;Node35</title>
<path fill="none" stroke="#63b8ff" d="M988.85,-164.85C964.34,-149.43 913.65,-118.04 894.5,-110 854.46,-93.19 806.27,-81.06 772.34,-73.75"/>
<polygon fill="#63b8ff" stroke="#63b8ff" points="772.8,-70.27 762.29,-71.63 771.36,-77.12 772.8,-70.27"/>
</g>
<!-- Node36 -->
<g id="node35" class="node">
<title>Node36</title>
<g id="a_node35"><a xlink:href="FontAttribs_8h_source.html" target="_top" xlink:title=" ">
<polygon fill="#fff0f0" stroke="red" points="579,-129 500,-129 500,-110 579,-110 579,-129"/>
<text text-anchor="middle" x="539.5" y="-117" font-family="Helvetica,sans-Serif" font-size="10.00">FontAttribs.h</text>
</a>
</g>
</g>
<!-- Node28&#45;&gt;Node36 -->
<g id="edge48" class="edge">
<title>Node28&#45;&gt;Node36</title>
<path fill="none" stroke="#63b8ff" d="M954.32,-166.18C951.33,-165.77 948.38,-165.37 945.5,-165 817.39,-148.43 666,-132.91 589.35,-125.33"/>
<polygon fill="#63b8ff" stroke="#63b8ff" points="589.33,-121.82 579.04,-124.32 588.65,-128.78 589.33,-121.82"/>
</g>
<!-- Node41 -->
<g id="node37" class="node">
<title>Node41</title>
<g id="a_node37"><a xlink:href="FontVariantCache_8h.html" target="_top" xlink:title="This file implements the wxFont cache system.">
<polygon fill="white" stroke="#666666" points="785,-129 674,-129 674,-110 785,-110 785,-129"/>
<text text-anchor="middle" x="729.5" y="-117" font-family="Helvetica,sans-Serif" font-size="10.00">FontVariantCache.h</text>
</a>
</g>
</g>
<!-- Node28&#45;&gt;Node41 -->
<g id="edge53" class="edge">
<title>Node28&#45;&gt;Node41</title>
<path fill="none" stroke="#63b8ff" d="M958.64,-164.98C911.02,-155.74 834.92,-140.97 783.62,-131.01"/>
<polygon fill="#63b8ff" stroke="#63b8ff" points="784.19,-127.55 773.71,-129.08 782.86,-134.42 784.19,-127.55"/>
</g>
<!-- Node28&#45;&gt;Node43 -->
<g id="edge61" class="edge">
<title>Node28&#45;&gt;Node43</title>
<path fill="none" stroke="#63b8ff" d="M954.33,-166.07C951.34,-165.69 948.38,-165.33 945.5,-165 842.96,-153.38 578.67,-166.44 482.5,-129 456.13,-118.73 431.38,-96.86 416.34,-81.68"/>
<polygon fill="#63b8ff" stroke="#63b8ff" points="418.86,-79.24 409.41,-74.44 413.8,-84.08 418.86,-79.24"/>
</g>
<!-- Node36&#45;&gt;Node16 -->
<g id="edge51" class="edge">
<title>Node36&#45;&gt;Node16</title>
<path fill="none" stroke="#63b8ff" d="M553.96,-109.98C567.92,-101.77 589.29,-89.18 605.75,-79.49"/>
<polygon fill="#63b8ff" stroke="#63b8ff" points="607.94,-82.26 614.78,-74.17 604.38,-76.23 607.94,-82.26"/>
</g>
<!-- Node36&#45;&gt;Node33 -->
<g id="edge49" class="edge">
<title>Node36&#45;&gt;Node33</title>
<path fill="none" stroke="#63b8ff" d="M540.82,-109.75C541.87,-102.8 543.37,-92.85 544.69,-84.13"/>
<polygon fill="#63b8ff" stroke="#63b8ff" points="548.17,-84.5 546.2,-74.09 541.25,-83.45 548.17,-84.5"/>
</g>
<!-- Node36&#45;&gt;Node35 -->
<g id="edge52" class="edge">
<title>Node36&#45;&gt;Node35</title>
<path fill="none" stroke="#63b8ff" d="M570.03,-109.98C602.2,-101.01 653.06,-86.82 688.67,-76.89"/>
<polygon fill="#63b8ff" stroke="#63b8ff" points="690.04,-80.14 698.73,-74.08 688.16,-73.4 690.04,-80.14"/>
</g>
<!-- Node36&#45;&gt;Node39 -->
<g id="edge50" class="edge">
<title>Node36&#45;&gt;Node39</title>
<path fill="none" stroke="#63b8ff" d="M499.99,-113.47C421.57,-103.48 246.89,-81.22 166.05,-70.92"/>
<polygon fill="#63b8ff" stroke="#63b8ff" points="166.11,-67.4 155.75,-69.61 165.23,-74.34 166.11,-67.4"/>
</g>
<!-- Node41&#45;&gt;Node2 -->
<g id="edge54" class="edge">
<title>Node41&#45;&gt;Node2</title>
<path fill="none" stroke="#63b8ff" d="M785.14,-110.93C788.3,-110.59 791.44,-110.28 794.5,-110 1121.09,-80.59 1516.45,-69.47 1647.18,-66.44"/>
<polygon fill="#63b8ff" stroke="#63b8ff" points="1647.3,-69.93 1657.21,-66.21 1647.14,-62.94 1647.3,-69.93"/>
</g>
<!-- Node41&#45;&gt;Node6 -->
<g id="edge55" class="edge">
<title>Node41&#45;&gt;Node6</title>
<path fill="none" stroke="#63b8ff" d="M785.15,-111.04C788.31,-110.67 791.44,-110.32 794.5,-110 987.53,-89.65 1219.2,-73.85 1310.14,-67.98"/>
<polygon fill="#63b8ff" stroke="#63b8ff" points="1310.51,-71.46 1320.27,-67.33 1310.06,-64.47 1310.51,-71.46"/>
</g>
<!-- Node41&#45;&gt;Node14 -->
<g id="edge59" class="edge">
<title>Node41&#45;&gt;Node14</title>
<path fill="none" stroke="#63b8ff" d="M776.41,-109.98C835.99,-99.17 937.24,-80.79 988.97,-71.4"/>
<polygon fill="#63b8ff" stroke="#63b8ff" points="989.72,-74.83 998.93,-69.6 988.47,-67.94 989.72,-74.83"/>
</g>
<!-- Node41&#45;&gt;Node33 -->
<g id="edge56" class="edge">
<title>Node41&#45;&gt;Node33</title>
<path fill="none" stroke="#63b8ff" d="M700.26,-109.98C669.44,-101.01 620.72,-86.82 586.61,-76.89"/>
<polygon fill="#63b8ff" stroke="#63b8ff" points="587.55,-73.52 576.97,-74.08 585.59,-80.24 587.55,-73.52"/>
</g>
<!-- Node41&#45;&gt;Node35 -->
<g id="edge57" class="edge">
<title>Node41&#45;&gt;Node35</title>
<path fill="none" stroke="#63b8ff" d="M729.5,-109.75C729.5,-102.8 729.5,-92.85 729.5,-84.13"/>
<polygon fill="#63b8ff" stroke="#63b8ff" points="733,-84.09 729.5,-74.09 726,-84.09 733,-84.09"/>
</g>
<!-- Node41&#45;&gt;Node42 -->
<g id="edge58" class="edge">
<title>Node41&#45;&gt;Node42</title>
<path fill="none" stroke="#63b8ff" d="M677.02,-109.96C633.97,-102.51 571.3,-90.65 508.25,-73.91"/>
<polygon fill="#63b8ff" stroke="#63b8ff" points="509.11,-70.52 498.54,-71.3 507.29,-77.28 509.11,-70.52"/>
</g>
<!-- Node41&#45;&gt;Node43 -->
<g id="edge60" class="edge">
<title>Node41&#45;&gt;Node43</title>
<path fill="none" stroke="#63b8ff" d="M676.8,-109.98C616.93,-100.31 519.6,-84.58 458.14,-74.65"/>
<polygon fill="#63b8ff" stroke="#63b8ff" points="458.66,-71.19 448.22,-73.05 457.54,-78.1 458.66,-71.19"/>
</g>
<!-- Node51 -->
<g id="node47" class="node">
<title>Node51</title>
<g id="a_node47"><a xlink:title=" ">
<polygon fill="#e0e0e0" stroke="#999999" points="1757,-184 1686,-184 1686,-165 1757,-165 1757,-184"/>
<text text-anchor="middle" x="1721.5" y="-172" font-family="Helvetica,sans-Serif" font-size="10.00">wx/string.h</text>
</a>
</g>
</g>
<!-- Node50&#45;&gt;Node51 -->
<g id="edge74" class="edge">
<title>Node50&#45;&gt;Node51</title>
<path fill="none" stroke="#63b8ff" d="M1721.5,-219.75C1721.5,-212.8 1721.5,-202.85 1721.5,-194.13"/>
<polygon fill="#63b8ff" stroke="#63b8ff" points="1725,-194.09 1721.5,-184.09 1718,-194.09 1725,-194.09"/>
</g>
<!-- Node52 -->
<g id="node48" class="node">
<title>Node52</title>
<g id="a_node48"><a xlink:title=" ">
<polygon fill="#e0e0e0" stroke="#999999" points="1870,-184 1775,-184 1775,-165 1870,-165 1870,-184"/>
<text text-anchor="middle" x="1822.5" y="-172" font-family="Helvetica,sans-Serif" font-size="10.00">wx/translation.h</text>
</a>
</g>
</g>
<!-- Node50&#45;&gt;Node52 -->
<g id="edge75" class="edge">
<title>Node50&#45;&gt;Node52</title>
<path fill="none" stroke="#63b8ff" d="M1737.73,-219.98C1753.68,-211.61 1778.28,-198.7 1796.88,-188.95"/>
<polygon fill="#63b8ff" stroke="#63b8ff" points="1798.75,-191.92 1805.98,-184.17 1795.5,-185.72 1798.75,-191.92"/>
</g>
<!-- Node53&#45;&gt;Node12 -->
<g id="edge78" class="edge">
<title>Node53&#45;&gt;Node12</title>
<path fill="none" stroke="#63b8ff" d="M1923.42,-164.75C1915.41,-157.03 1903.54,-145.6 1893.88,-136.28"/>
<polygon fill="#63b8ff" stroke="#63b8ff" points="1896.04,-133.51 1886.41,-129.09 1891.19,-138.55 1896.04,-133.51"/>
</g>
<!-- Node53&#45;&gt;Node13 -->
<g id="edge79" class="edge">
<title>Node53&#45;&gt;Node13</title>
<path fill="none" stroke="#63b8ff" d="M1902.94,-164.98C1871.59,-155.96 1821.94,-141.65 1787.43,-131.71"/>
<polygon fill="#63b8ff" stroke="#63b8ff" points="1788.26,-128.31 1777.69,-128.91 1786.33,-135.04 1788.26,-128.31"/>
</g>
<!-- Node53&#45;&gt;Node18 -->
<g id="edge80" class="edge">
<title>Node53&#45;&gt;Node18</title>
<path fill="none" stroke="#63b8ff" d="M1938.11,-164.75C1942.82,-157.42 1949.67,-146.73 1955.47,-137.7"/>
<polygon fill="#63b8ff" stroke="#63b8ff" points="1958.54,-139.4 1960.99,-129.09 1952.64,-135.62 1958.54,-139.4"/>
</g>
</g>
</svg>
