<?xml version="1.0" encoding="UTF-8" standalone="no"?>
<!DOCTYPE svg PUBLIC "-//W3C//DTD SVG 1.1//EN"
 "http://www.w3.org/Graphics/SVG/1.1/DTD/svg11.dtd">
<!-- Generated by graphviz version 2.43.0 (0)
 -->
<!-- Title: src/sidebars/TableOfContents.cpp Pages: 1 -->
<svg width="2193pt" height="522pt"
 viewBox="0.00 0.00 2192.50 522.00" xmlns="http://www.w3.org/2000/svg" xmlns:xlink="http://www.w3.org/1999/xlink">
<g id="graph0" class="graph" transform="scale(1 1) rotate(0) translate(4 518)">
<title>src/sidebars/TableOfContents.cpp</title>
<!-- Node1 -->
<g id="node1" class="node">
<title>Node1</title>
<g id="a_node1"><a xlink:title="This file defines the class Structure.">
<polygon fill="#999999" stroke="#666666" points="2089.5,-514 1910.5,-514 1910.5,-495 2089.5,-495 2089.5,-514"/>
<text text-anchor="middle" x="2000" y="-502" font-family="Helvetica,sans-Serif" font-size="10.00">src/sidebars/TableOfContents.cpp</text>
</a>
</g>
</g>
<!-- Node2 -->
<g id="node2" class="node">
<title>Node2</title>
<g id="a_node2"><a xlink:title=" ">
<polygon fill="#e0e0e0" stroke="#999999" points="1858,-184 1826,-184 1826,-165 1858,-165 1858,-184"/>
<text text-anchor="middle" x="1842" y="-172" font-family="Helvetica,sans-Serif" font-size="10.00">list</text>
</a>
</g>
</g>
<!-- Node1&#45;&gt;Node2 -->
<g id="edge1" class="edge">
<title>Node1&#45;&gt;Node2</title>
<path fill="none" stroke="#63b8ff" d="M2000,-494.82C2000,-476.48 2000,-432.44 2000,-395.5 2000,-395.5 2000,-395.5 2000,-283.5 2000,-220.29 1912.74,-191.38 1867.91,-180.7"/>
<polygon fill="#63b8ff" stroke="#63b8ff" points="1868.54,-177.26 1858.02,-178.48 1867.01,-184.09 1868.54,-177.26"/>
</g>
<!-- Node3 -->
<g id="node3" class="node">
<title>Node3</title>
<g id="a_node3"><a xlink:title=" ">
<polygon fill="#e0e0e0" stroke="#999999" points="1732,-184 1674,-184 1674,-165 1732,-165 1732,-184"/>
<text text-anchor="middle" x="1703" y="-172" font-family="Helvetica,sans-Serif" font-size="10.00">memory</text>
</a>
</g>
</g>
<!-- Node1&#45;&gt;Node3 -->
<g id="edge2" class="edge">
<title>Node1&#45;&gt;Node3</title>
<path fill="none" stroke="#63b8ff" d="M1992.06,-494.73C1951.87,-450.35 1770.85,-250.44 1717.71,-191.75"/>
<polygon fill="#63b8ff" stroke="#63b8ff" points="1720.14,-189.21 1710.83,-184.15 1714.95,-193.91 1720.14,-189.21"/>
</g>
<!-- Node4 -->
<g id="node4" class="node">
<title>Node4</title>
<g id="a_node4"><a xlink:title=" ">
<polygon fill="#e0e0e0" stroke="#999999" points="2180.5,-459 2115.5,-459 2115.5,-440 2180.5,-440 2180.5,-459"/>
<text text-anchor="middle" x="2148" y="-447" font-family="Helvetica,sans-Serif" font-size="10.00">wx/sizer.h</text>
</a>
</g>
</g>
<!-- Node1&#45;&gt;Node4 -->
<g id="edge3" class="edge">
<title>Node1&#45;&gt;Node4</title>
<path fill="none" stroke="#63b8ff" d="M2023.78,-494.98C2048.23,-486.23 2086.53,-472.51 2114.15,-462.62"/>
<polygon fill="#63b8ff" stroke="#63b8ff" points="2115.55,-465.84 2123.79,-459.17 2113.19,-459.25 2115.55,-465.84"/>
</g>
<!-- Node5 -->
<g id="node5" class="node">
<title>Node5</title>
<g id="a_node5"><a xlink:href="TableOfContents_8h.html" target="_top" xlink:title="This file contains the definition of the class TableOfContents that handles the table of contents pan...">
<polygon fill="white" stroke="#666666" points="596,-459 490,-459 490,-440 596,-440 596,-459"/>
<text text-anchor="middle" x="543" y="-447" font-family="Helvetica,sans-Serif" font-size="10.00">TableOfContents.h</text>
</a>
</g>
</g>
<!-- Node1&#45;&gt;Node5 -->
<g id="edge4" class="edge">
<title>Node1&#45;&gt;Node5</title>
<path fill="none" stroke="#63b8ff" d="M1910.23,-500.23C1639.98,-490.4 838.37,-461.24 606.49,-452.81"/>
<polygon fill="#63b8ff" stroke="#63b8ff" points="606.33,-449.3 596.21,-452.44 606.08,-456.3 606.33,-449.3"/>
</g>
<!-- Node66 -->
<g id="node48" class="node">
<title>Node66</title>
<g id="a_node48"><a xlink:href="EventIDs_8h.html" target="_top" xlink:title="This file declares the class EventIDs that contains unique IDs for many events wxMaxima needs.">
<polygon fill="white" stroke="#666666" points="2097.5,-459 2028.5,-459 2028.5,-440 2097.5,-440 2097.5,-459"/>
<text text-anchor="middle" x="2063" y="-447" font-family="Helvetica,sans-Serif" font-size="10.00">EventIDs.h</text>
</a>
</g>
</g>
<!-- Node1&#45;&gt;Node66 -->
<g id="edge86" class="edge">
<title>Node1&#45;&gt;Node66</title>
<path fill="none" stroke="#63b8ff" d="M2010.12,-494.98C2019.44,-487.15 2033.47,-475.34 2044.74,-465.86"/>
<polygon fill="#63b8ff" stroke="#63b8ff" points="2047.29,-468.29 2052.69,-459.17 2042.79,-462.93 2047.29,-468.29"/>
</g>
<!-- Node5&#45;&gt;Node3 -->
<g id="edge5" class="edge">
<title>Node5&#45;&gt;Node3</title>
<path fill="none" stroke="#63b8ff" d="M596.03,-449C817.61,-450.39 1658,-448.56 1658,-340.5 1658,-340.5 1658,-340.5 1658,-283.5 1658,-249.31 1677.46,-213.38 1690.78,-192.79"/>
<polygon fill="#63b8ff" stroke="#63b8ff" points="1693.87,-194.48 1696.55,-184.23 1688.06,-190.57 1693.87,-194.48"/>
</g>
<!-- Node6 -->
<g id="node6" class="node">
<title>Node6</title>
<g id="a_node6"><a xlink:title=" ">
<polygon fill="#e0e0e0" stroke="#999999" points="161.5,-184 104.5,-184 104.5,-165 161.5,-165 161.5,-184"/>
<text text-anchor="middle" x="133" y="-172" font-family="Helvetica,sans-Serif" font-size="10.00">wx/wx.h</text>
</a>
</g>
</g>
<!-- Node5&#45;&gt;Node6 -->
<g id="edge6" class="edge">
<title>Node5&#45;&gt;Node6</title>
<path fill="none" stroke="#63b8ff" d="M489.91,-448.28C360.25,-446.3 38,-432.17 38,-340.5 38,-340.5 38,-340.5 38,-283.5 38,-240.91 80.16,-207.14 108.31,-189.33"/>
<polygon fill="#63b8ff" stroke="#63b8ff" points="110.16,-192.31 116.88,-184.12 106.52,-186.32 110.16,-192.31"/>
</g>
<!-- Node7 -->
<g id="node7" class="node">
<title>Node7</title>
<g id="a_node7"><a xlink:title=" ">
<polygon fill="#e0e0e0" stroke="#999999" points="388,-404 320,-404 320,-385 388,-385 388,-404"/>
<text text-anchor="middle" x="354" y="-392" font-family="Helvetica,sans-Serif" font-size="10.00">wx/timer.h</text>
</a>
</g>
</g>
<!-- Node5&#45;&gt;Node7 -->
<g id="edge7" class="edge">
<title>Node5&#45;&gt;Node7</title>
<path fill="none" stroke="#63b8ff" d="M512.63,-439.98C480.63,-431.01 430.04,-416.82 394.62,-406.89"/>
<polygon fill="#63b8ff" stroke="#63b8ff" points="395.18,-403.41 384.6,-404.08 393.29,-410.15 395.18,-403.41"/>
</g>
<!-- Node8 -->
<g id="node8" class="node">
<title>Node8</title>
<g id="a_node8"><a xlink:title=" ">
<polygon fill="#e0e0e0" stroke="#999999" points="480,-404 406,-404 406,-385 480,-385 480,-404"/>
<text text-anchor="middle" x="443" y="-392" font-family="Helvetica,sans-Serif" font-size="10.00">wx/listctrl.h</text>
</a>
</g>
</g>
<!-- Node5&#45;&gt;Node8 -->
<g id="edge8" class="edge">
<title>Node5&#45;&gt;Node8</title>
<path fill="none" stroke="#63b8ff" d="M526.93,-439.98C511.14,-431.61 486.78,-418.7 468.37,-408.95"/>
<polygon fill="#63b8ff" stroke="#63b8ff" points="469.83,-405.76 459.36,-404.17 466.56,-411.95 469.83,-405.76"/>
</g>
<!-- Node9 -->
<g id="node9" class="node">
<title>Node9</title>
<g id="a_node9"><a xlink:title=" ">
<polygon fill="#e0e0e0" stroke="#999999" points="587.5,-404 498.5,-404 498.5,-385 587.5,-385 587.5,-404"/>
<text text-anchor="middle" x="543" y="-392" font-family="Helvetica,sans-Serif" font-size="10.00">wx/dragimag.h</text>
</a>
</g>
</g>
<!-- Node5&#45;&gt;Node9 -->
<g id="edge9" class="edge">
<title>Node5&#45;&gt;Node9</title>
<path fill="none" stroke="#63b8ff" d="M543,-439.75C543,-432.8 543,-422.85 543,-414.13"/>
<polygon fill="#63b8ff" stroke="#63b8ff" points="546.5,-414.09 543,-404.09 539.5,-414.09 546.5,-414.09"/>
</g>
<!-- Node10 -->
<g id="node10" class="node">
<title>Node10</title>
<g id="a_node10"><a xlink:title=" ">
<polygon fill="#e0e0e0" stroke="#999999" points="1479.5,-129 1432.5,-129 1432.5,-110 1479.5,-110 1479.5,-129"/>
<text text-anchor="middle" x="1456" y="-117" font-family="Helvetica,sans-Serif" font-size="10.00">vector</text>
</a>
</g>
</g>
<!-- Node5&#45;&gt;Node10 -->
<g id="edge10" class="edge">
<title>Node5&#45;&gt;Node10</title>
<path fill="none" stroke="#63b8ff" d="M596.03,-447.84C790.89,-444.72 1456,-427.69 1456,-340.5 1456,-340.5 1456,-340.5 1456,-228.5 1456,-197.19 1456,-160.77 1456,-139.23"/>
<polygon fill="#63b8ff" stroke="#63b8ff" points="1459.5,-139.18 1456,-129.18 1452.5,-139.18 1459.5,-139.18"/>
</g>
<!-- Node11 -->
<g id="node11" class="node">
<title>Node11</title>
<g id="a_node11"><a xlink:href="precomp_8h_source.html" target="_top" xlink:title=" ">
<polygon fill="white" stroke="#666666" points="262,-74 194,-74 194,-55 262,-55 262,-74"/>
<text text-anchor="middle" x="228" y="-62" font-family="Helvetica,sans-Serif" font-size="10.00">precomp.h</text>
</a>
</g>
</g>
<!-- Node5&#45;&gt;Node11 -->
<g id="edge11" class="edge">
<title>Node5&#45;&gt;Node11</title>
<path fill="none" stroke="#63b8ff" d="M489.7,-447.75C382.15,-445.55 143.1,-436.98 69,-404 30.92,-387.05 0,-382.18 0,-340.5 0,-340.5 0,-340.5 0,-173.5 0,-93.05 117.37,-72.45 183.69,-67.23"/>
<polygon fill="#63b8ff" stroke="#63b8ff" points="184.13,-70.7 193.87,-66.51 183.65,-63.72 184.13,-70.7"/>
</g>
<!-- Node13 -->
<g id="node13" class="node">
<title>Node13</title>
<g id="a_node13"><a xlink:href="Configuration_8h_source.html" target="_top" xlink:title=" ">
<polygon fill="white" stroke="#666666" points="977.5,-239 886.5,-239 886.5,-220 977.5,-220 977.5,-239"/>
<text text-anchor="middle" x="932" y="-227" font-family="Helvetica,sans-Serif" font-size="10.00">Configuration.h</text>
</a>
</g>
</g>
<!-- Node5&#45;&gt;Node13 -->
<g id="edge13" class="edge">
<title>Node5&#45;&gt;Node13</title>
<path fill="none" stroke="#63b8ff" d="M489.83,-445.92C428.51,-441.71 333.24,-430.91 311,-404 285.64,-373.32 212.13,-381.86 332,-275 372.08,-239.27 734.8,-232.23 876.06,-230.84"/>
<polygon fill="#63b8ff" stroke="#63b8ff" points="876.27,-234.34 886.24,-230.75 876.21,-227.34 876.27,-234.34"/>
</g>
<!-- Node47 -->
<g id="node41" class="node">
<title>Node47</title>
<g id="a_node41"><a xlink:href="RegexCtrl_8h_source.html" target="_top" xlink:title=" ">
<polygon fill="white" stroke="#666666" points="432,-349 358,-349 358,-330 432,-330 432,-349"/>
<text text-anchor="middle" x="395" y="-337" font-family="Helvetica,sans-Serif" font-size="10.00">RegexCtrl.h</text>
</a>
</g>
</g>
<!-- Node5&#45;&gt;Node47 -->
<g id="edge58" class="edge">
<title>Node5&#45;&gt;Node47</title>
<path fill="none" stroke="#63b8ff" d="M559.48,-440C580.73,-427.94 613.14,-405.08 597,-385 577.93,-361.27 495.49,-349.45 442,-344.18"/>
<polygon fill="#63b8ff" stroke="#63b8ff" points="442.33,-340.69 432.05,-343.24 441.68,-347.66 442.33,-340.69"/>
</g>
<!-- Node51 -->
<g id="node45" class="node">
<title>Node51</title>
<g id="a_node45"><a xlink:href="GroupCell_8h.html" target="_top" xlink:title="This file defines the class GroupCell that bundles input and output in the worksheet.">
<polygon fill="white" stroke="#666666" points="1803.5,-404 1704.5,-404 1704.5,-385 1803.5,-385 1803.5,-404"/>
<text text-anchor="middle" x="1754" y="-392" font-family="Helvetica,sans-Serif" font-size="10.00">cells/GroupCell.h</text>
</a>
</g>
</g>
<!-- Node5&#45;&gt;Node51 -->
<g id="edge68" class="edge">
<title>Node5&#45;&gt;Node51</title>
<path fill="none" stroke="#63b8ff" d="M596.26,-447.61C758.11,-444.64 1258.42,-433.56 1672,-404 1679.16,-403.49 1686.67,-402.85 1694.11,-402.16"/>
<polygon fill="#63b8ff" stroke="#63b8ff" points="1694.56,-405.63 1704.18,-401.18 1693.89,-398.66 1694.56,-405.63"/>
</g>
<!-- Node12 -->
<g id="node12" class="node">
<title>Node12</title>
<g id="a_node12"><a xlink:title=" ">
<polygon fill="#e0e0e0" stroke="#999999" points="268.5,-19 187.5,-19 187.5,0 268.5,0 268.5,-19"/>
<text text-anchor="middle" x="228" y="-7" font-family="Helvetica,sans-Serif" font-size="10.00">BuildConfig.h</text>
</a>
</g>
</g>
<!-- Node11&#45;&gt;Node12 -->
<g id="edge12" class="edge">
<title>Node11&#45;&gt;Node12</title>
<path fill="none" stroke="#63b8ff" d="M228,-54.75C228,-47.8 228,-37.85 228,-29.13"/>
<polygon fill="#63b8ff" stroke="#63b8ff" points="231.5,-29.09 228,-19.09 224.5,-29.09 231.5,-29.09"/>
</g>
<!-- Node13&#45;&gt;Node2 -->
<g id="edge51" class="edge">
<title>Node13&#45;&gt;Node2</title>
<path fill="none" stroke="#63b8ff" d="M977.64,-226.45C1100.86,-220.83 1450.53,-204.21 1741,-184 1766.44,-182.23 1795.46,-179.74 1815.84,-177.91"/>
<polygon fill="#63b8ff" stroke="#63b8ff" points="1816.27,-181.39 1825.92,-177 1815.64,-174.41 1816.27,-181.39"/>
</g>
<!-- Node13&#45;&gt;Node3 -->
<g id="edge47" class="edge">
<title>Node13&#45;&gt;Node3</title>
<path fill="none" stroke="#63b8ff" d="M977.66,-226.19C1088.31,-220.46 1379.49,-204.54 1622,-184 1635.56,-182.85 1650.38,-181.36 1663.59,-179.96"/>
<polygon fill="#63b8ff" stroke="#63b8ff" points="1664.22,-183.41 1673.78,-178.85 1663.46,-176.45 1664.22,-183.41"/>
</g>
<!-- Node13&#45;&gt;Node6 -->
<g id="edge15" class="edge">
<title>Node13&#45;&gt;Node6</title>
<path fill="none" stroke="#63b8ff" d="M886.23,-225.6C776.67,-218.64 490.72,-200.34 252,-184 225.3,-182.17 195.24,-180.02 172.01,-178.35"/>
<polygon fill="#63b8ff" stroke="#63b8ff" points="172.08,-174.84 161.85,-177.61 171.57,-181.82 172.08,-174.84"/>
</g>
<!-- Node13&#45;&gt;Node10 -->
<g id="edge53" class="edge">
<title>Node13&#45;&gt;Node10</title>
<path fill="none" stroke="#63b8ff" d="M977.62,-225.38C1043.04,-220.25 1166.99,-208.11 1270,-184 1326.33,-170.81 1389.64,-147.24 1425.97,-132.82"/>
<polygon fill="#63b8ff" stroke="#63b8ff" points="1427.49,-135.98 1435.47,-129.01 1424.89,-129.48 1427.49,-135.98"/>
</g>
<!-- Node13&#45;&gt;Node11 -->
<g id="edge14" class="edge">
<title>Node13&#45;&gt;Node11</title>
<path fill="none" stroke="#63b8ff" d="M886.02,-227.88C747.32,-225.66 339.56,-216.4 290,-184 271.75,-172.07 246.9,-113.84 234.96,-83.68"/>
<polygon fill="#63b8ff" stroke="#63b8ff" points="238.2,-82.36 231.31,-74.31 231.68,-84.9 238.2,-82.36"/>
</g>
<!-- Node14 -->
<g id="node14" class="node">
<title>Node14</title>
<g id="a_node14"><a xlink:title=" ">
<polygon fill="#e0e0e0" stroke="#999999" points="660,-74 588,-74 588,-55 660,-55 660,-74"/>
<text text-anchor="middle" x="624" y="-62" font-family="Helvetica,sans-Serif" font-size="10.00">wx/config.h</text>
</a>
</g>
</g>
<!-- Node13&#45;&gt;Node14 -->
<g id="edge16" class="edge">
<title>Node13&#45;&gt;Node14</title>
<path fill="none" stroke="#63b8ff" d="M886.29,-228.42C757.11,-227.7 396.41,-222.27 361,-184 294.03,-111.61 485.69,-80.47 577.73,-69.96"/>
<polygon fill="#63b8ff" stroke="#63b8ff" points="578.35,-73.41 587.91,-68.83 577.58,-66.45 578.35,-73.41"/>
</g>
<!-- Node15 -->
<g id="node15" class="node">
<title>Node15</title>
<g id="a_node15"><a xlink:title=" ">
<polygon fill="#e0e0e0" stroke="#999999" points="641.5,-184 564.5,-184 564.5,-165 641.5,-165 641.5,-184"/>
<text text-anchor="middle" x="603" y="-172" font-family="Helvetica,sans-Serif" font-size="10.00">wx/display.h</text>
</a>
</g>
</g>
<!-- Node13&#45;&gt;Node15 -->
<g id="edge17" class="edge">
<title>Node13&#45;&gt;Node15</title>
<path fill="none" stroke="#63b8ff" d="M886.21,-221.51C832.56,-213.26 740.75,-198.97 651.52,-184.06"/>
<polygon fill="#63b8ff" stroke="#63b8ff" points="651.94,-180.58 641.5,-182.38 650.79,-187.49 651.94,-180.58"/>
</g>
<!-- Node16 -->
<g id="node16" class="node">
<title>Node16</title>
<g id="a_node16"><a xlink:title=" ">
<polygon fill="#e0e0e0" stroke="#999999" points="750,-184 660,-184 660,-165 750,-165 750,-184"/>
<text text-anchor="middle" x="705" y="-172" font-family="Helvetica,sans-Serif" font-size="10.00">wx/fontenum.h</text>
</a>
</g>
</g>
<!-- Node13&#45;&gt;Node16 -->
<g id="edge18" class="edge">
<title>Node13&#45;&gt;Node16</title>
<path fill="none" stroke="#63b8ff" d="M895.53,-219.98C856.43,-210.86 794.23,-196.33 751.61,-186.38"/>
<polygon fill="#63b8ff" stroke="#63b8ff" points="752.29,-182.95 741.76,-184.08 750.7,-189.76 752.29,-182.95"/>
</g>
<!-- Node17 -->
<g id="node17" class="node">
<title>Node17</title>
<g id="a_node17"><a xlink:title=" ">
<polygon fill="#e0e0e0" stroke="#999999" points="1022,-74 934,-74 934,-55 1022,-55 1022,-74"/>
<text text-anchor="middle" x="978" y="-62" font-family="Helvetica,sans-Serif" font-size="10.00">wx/hashmap.h</text>
</a>
</g>
</g>
<!-- Node13&#45;&gt;Node17 -->
<g id="edge19" class="edge">
<title>Node13&#45;&gt;Node17</title>
<path fill="none" stroke="#63b8ff" d="M977.68,-228.09C1048.96,-226.39 1181.55,-218.52 1211,-184 1265.98,-119.55 1116.91,-86.09 1032.12,-72.69"/>
<polygon fill="#63b8ff" stroke="#63b8ff" points="1032.53,-69.21 1022.12,-71.15 1031.47,-76.13 1032.53,-69.21"/>
</g>
<!-- Node18 -->
<g id="node18" class="node">
<title>Node18</title>
<g id="a_node18"><a xlink:href="LoggingMessageDialog_8h.html" target="_top" xlink:title="This file declares a message dialog that sends its contents to the log message sink.">
<polygon fill="white" stroke="#666666" points="546.5,-184 369.5,-184 369.5,-165 546.5,-165 546.5,-184"/>
<text text-anchor="middle" x="458" y="-172" font-family="Helvetica,sans-Serif" font-size="10.00">dialogs/LoggingMessageDialog.h</text>
</a>
</g>
</g>
<!-- Node13&#45;&gt;Node18 -->
<g id="edge20" class="edge">
<title>Node13&#45;&gt;Node18</title>
<path fill="none" stroke="#63b8ff" d="M886.12,-223.37C807.28,-214.55 644.88,-196.4 544.32,-185.15"/>
<polygon fill="#63b8ff" stroke="#63b8ff" points="544.51,-181.65 534.18,-184.02 543.73,-188.61 544.51,-181.65"/>
</g>
<!-- Node21 -->
<g id="node21" class="node">
<title>Node21</title>
<g id="a_node21"><a xlink:href="TextStyle_8h.html" target="_top" xlink:title="This file declares everything needed for the text style system used to style all the elements on the ...">
<polygon fill="#fff0f0" stroke="red" points="1354,-129 1258,-129 1258,-110 1354,-110 1354,-129"/>
<text text-anchor="middle" x="1306" y="-117" font-family="Helvetica,sans-Serif" font-size="10.00">cells/TextStyle.h</text>
</a>
</g>
</g>
<!-- Node13&#45;&gt;Node21 -->
<g id="edge24" class="edge">
<title>Node13&#45;&gt;Node21</title>
<path fill="none" stroke="#63b8ff" d="M977.54,-225.61C1052.54,-220.26 1198.32,-207.18 1244,-184 1265.16,-173.26 1283.31,-152.46 1294.4,-137.59"/>
<polygon fill="#63b8ff" stroke="#63b8ff" points="1297.4,-139.41 1300.36,-129.24 1291.7,-135.34 1297.4,-139.41"/>
</g>
<!-- Node28 -->
<g id="node28" class="node">
<title>Node28</title>
<g id="a_node28"><a xlink:title=" ">
<polygon fill="#e0e0e0" stroke="#999999" points="1075,-19 1025,-19 1025,0 1075,0 1075,-19"/>
<text text-anchor="middle" x="1050" y="-7" font-family="Helvetica,sans-Serif" font-size="10.00">cstdint</text>
</a>
</g>
</g>
<!-- Node13&#45;&gt;Node28 -->
<g id="edge46" class="edge">
<title>Node13&#45;&gt;Node28</title>
<path fill="none" stroke="#63b8ff" d="M886.04,-228.51C754.3,-228.07 382.46,-223.33 346,-184 340.26,-177.81 345.02,-173.39 346,-165 348.91,-140.05 341.35,-127.88 359,-110 451.76,-16.04 887.14,-9.94 1014.76,-10.21"/>
<polygon fill="#63b8ff" stroke="#63b8ff" points="1014.77,-13.71 1024.78,-10.25 1014.79,-6.71 1014.77,-13.71"/>
</g>
<!-- Node35 -->
<g id="node31" class="node">
<title>Node35</title>
<g id="a_node31"><a xlink:title=" ">
<polygon fill="#e0e0e0" stroke="#999999" points="1678,-19 1614,-19 1614,0 1678,0 1678,-19"/>
<text text-anchor="middle" x="1646" y="-7" font-family="Helvetica,sans-Serif" font-size="10.00">algorithm</text>
</a>
</g>
</g>
<!-- Node13&#45;&gt;Node35 -->
<g id="edge54" class="edge">
<title>Node13&#45;&gt;Node35</title>
<path fill="none" stroke="#63b8ff" d="M977.82,-227C1085.51,-223.08 1352.04,-210.87 1437,-184 1530.03,-154.57 1566.53,-150.58 1627,-74 1637.14,-61.16 1641.88,-42.99 1644.09,-29.38"/>
<polygon fill="#63b8ff" stroke="#63b8ff" points="1647.59,-29.6 1645.41,-19.23 1640.64,-28.69 1647.59,-29.6"/>
</g>
<!-- Node39 -->
<g id="node32" class="node">
<title>Node39</title>
<g id="a_node32"><a xlink:title=" ">
<polygon fill="#e0e0e0" stroke="#999999" points="1869.5,-74 1776.5,-74 1776.5,-55 1869.5,-55 1869.5,-74"/>
<text text-anchor="middle" x="1823" y="-62" font-family="Helvetica,sans-Serif" font-size="10.00">unordered_map</text>
</a>
</g>
</g>
<!-- Node13&#45;&gt;Node39 -->
<g id="edge49" class="edge">
<title>Node13&#45;&gt;Node39</title>
<path fill="none" stroke="#63b8ff" d="M977.72,-227.15C1100.97,-223.18 1438.12,-210.21 1546,-184 1644.43,-160.09 1752.46,-104.54 1799.23,-78.91"/>
<polygon fill="#63b8ff" stroke="#63b8ff" points="1800.95,-81.96 1808,-74.05 1797.56,-75.83 1800.95,-81.96"/>
</g>
<!-- Node40 -->
<g id="node33" class="node">
<title>Node40</title>
<g id="a_node33"><a xlink:href="Styles_8h.html" target="_top" xlink:title="This file declares the class Styles.">
<polygon fill="white" stroke="#666666" points="1428,-184 1372,-184 1372,-165 1428,-165 1428,-184"/>
<text text-anchor="middle" x="1400" y="-172" font-family="Helvetica,sans-Serif" font-size="10.00">Styles.h</text>
</a>
</g>
</g>
<!-- Node13&#45;&gt;Node40 -->
<g id="edge42" class="edge">
<title>Node13&#45;&gt;Node40</title>
<path fill="none" stroke="#63b8ff" d="M977.58,-225.18C1055.72,-219.16 1220.18,-205.1 1358,-184 1359.1,-183.83 1360.22,-183.65 1361.35,-183.47"/>
<polygon fill="#63b8ff" stroke="#63b8ff" points="1362.37,-186.84 1371.6,-181.63 1361.14,-179.95 1362.37,-186.84"/>
</g>
<!-- Node41 -->
<g id="node35" class="node">
<title>Node41</title>
<g id="a_node35"><a xlink:title=" ">
<polygon fill="#e0e0e0" stroke="#999999" points="816,-184 768,-184 768,-165 816,-165 816,-184"/>
<text text-anchor="middle" x="792" y="-172" font-family="Helvetica,sans-Serif" font-size="10.00">mutex</text>
</a>
</g>
</g>
<!-- Node13&#45;&gt;Node41 -->
<g id="edge48" class="edge">
<title>Node13&#45;&gt;Node41</title>
<path fill="none" stroke="#63b8ff" d="M909.51,-219.98C886.48,-211.27 850.46,-197.63 824.37,-187.75"/>
<polygon fill="#63b8ff" stroke="#63b8ff" points="825.49,-184.44 814.9,-184.17 823.02,-190.98 825.49,-184.44"/>
</g>
<!-- Node42 -->
<g id="node36" class="node">
<title>Node42</title>
<g id="a_node36"><a xlink:title=" ">
<polygon fill="#e0e0e0" stroke="#999999" points="888,-184 834,-184 834,-165 888,-165 888,-184"/>
<text text-anchor="middle" x="861" y="-172" font-family="Helvetica,sans-Serif" font-size="10.00">random</text>
</a>
</g>
</g>
<!-- Node13&#45;&gt;Node42 -->
<g id="edge50" class="edge">
<title>Node13&#45;&gt;Node42</title>
<path fill="none" stroke="#63b8ff" d="M920.59,-219.98C909.89,-212 893.66,-199.88 880.84,-190.31"/>
<polygon fill="#63b8ff" stroke="#63b8ff" points="882.72,-187.35 872.61,-184.17 878.53,-192.96 882.72,-187.35"/>
</g>
<!-- Node43 -->
<g id="node37" class="node">
<title>Node43</title>
<g id="a_node37"><a xlink:title=" ">
<polygon fill="#e0e0e0" stroke="#999999" points="957.5,-184 906.5,-184 906.5,-165 957.5,-165 957.5,-184"/>
<text text-anchor="middle" x="932" y="-172" font-family="Helvetica,sans-Serif" font-size="10.00">variant</text>
</a>
</g>
</g>
<!-- Node13&#45;&gt;Node43 -->
<g id="edge52" class="edge">
<title>Node13&#45;&gt;Node43</title>
<path fill="none" stroke="#63b8ff" d="M932,-219.75C932,-212.8 932,-202.85 932,-194.13"/>
<polygon fill="#63b8ff" stroke="#63b8ff" points="935.5,-194.09 932,-184.09 928.5,-194.09 935.5,-194.09"/>
</g>
<!-- Node44 -->
<g id="node38" class="node">
<title>Node44</title>
<g id="a_node38"><a xlink:title=" ">
<polygon fill="#e0e0e0" stroke="#999999" points="1026,-184 976,-184 976,-165 1026,-165 1026,-184"/>
<text text-anchor="middle" x="1001" y="-172" font-family="Helvetica,sans-Serif" font-size="10.00">atomic</text>
</a>
</g>
</g>
<!-- Node13&#45;&gt;Node44 -->
<g id="edge55" class="edge">
<title>Node13&#45;&gt;Node44</title>
<path fill="none" stroke="#63b8ff" d="M943.09,-219.98C953.49,-212 969.26,-199.88 981.72,-190.31"/>
<polygon fill="#63b8ff" stroke="#63b8ff" points="983.91,-193.04 989.71,-184.17 979.65,-187.49 983.91,-193.04"/>
</g>
<!-- Node45 -->
<g id="node39" class="node">
<title>Node45</title>
<g id="a_node39"><a xlink:title=" ">
<polygon fill="#e0e0e0" stroke="#999999" points="1094,-184 1044,-184 1044,-165 1094,-165 1094,-184"/>
<text text-anchor="middle" x="1069" y="-172" font-family="Helvetica,sans-Serif" font-size="10.00">chrono</text>
</a>
</g>
</g>
<!-- Node13&#45;&gt;Node45 -->
<g id="edge56" class="edge">
<title>Node13&#45;&gt;Node45</title>
<path fill="none" stroke="#63b8ff" d="M954.01,-219.98C976.45,-211.3 1011.48,-197.75 1036.99,-187.88"/>
<polygon fill="#63b8ff" stroke="#63b8ff" points="1038.52,-191.04 1046.59,-184.17 1036,-184.51 1038.52,-191.04"/>
</g>
<!-- Node46 -->
<g id="node40" class="node">
<title>Node46</title>
<g id="a_node40"><a xlink:title=" ">
<polygon fill="#e0e0e0" stroke="#999999" points="1201.5,-184 1112.5,-184 1112.5,-165 1201.5,-165 1201.5,-184"/>
<text text-anchor="middle" x="1157" y="-172" font-family="Helvetica,sans-Serif" font-size="10.00">wx/wupdlock.h</text>
</a>
</g>
</g>
<!-- Node13&#45;&gt;Node46 -->
<g id="edge57" class="edge">
<title>Node13&#45;&gt;Node46</title>
<path fill="none" stroke="#63b8ff" d="M968.15,-219.98C1006.91,-210.86 1068.55,-196.33 1110.8,-186.38"/>
<polygon fill="#63b8ff" stroke="#63b8ff" points="1111.64,-189.78 1120.57,-184.08 1110.03,-182.97 1111.64,-189.78"/>
</g>
<!-- Node18&#45;&gt;Node11 -->
<g id="edge21" class="edge">
<title>Node18&#45;&gt;Node11</title>
<path fill="none" stroke="#63b8ff" d="M439.57,-164.84C399.18,-145.88 302.7,-100.58 255.27,-78.31"/>
<polygon fill="#63b8ff" stroke="#63b8ff" points="256.74,-75.13 246.2,-74.05 253.77,-81.47 256.74,-75.13"/>
</g>
<!-- Node19 -->
<g id="node19" class="node">
<title>Node19</title>
<g id="a_node19"><a xlink:title=" ">
<polygon fill="#e0e0e0" stroke="#999999" points="492.5,-129 413.5,-129 413.5,-110 492.5,-110 492.5,-129"/>
<text text-anchor="middle" x="453" y="-117" font-family="Helvetica,sans-Serif" font-size="10.00">wx/msgdlg.h</text>
</a>
</g>
</g>
<!-- Node18&#45;&gt;Node19 -->
<g id="edge22" class="edge">
<title>Node18&#45;&gt;Node19</title>
<path fill="none" stroke="#63b8ff" d="M457.17,-164.75C456.52,-157.8 455.58,-147.85 454.76,-139.13"/>
<polygon fill="#63b8ff" stroke="#63b8ff" points="458.23,-138.72 453.81,-129.09 451.27,-139.37 458.23,-138.72"/>
</g>
<!-- Node20 -->
<g id="node20" class="node">
<title>Node20</title>
<g id="a_node20"><a xlink:title=" ">
<polygon fill="#e0e0e0" stroke="#999999" points="568,-129 510,-129 510,-110 568,-110 568,-129"/>
<text text-anchor="middle" x="539" y="-117" font-family="Helvetica,sans-Serif" font-size="10.00">wx/log.h</text>
</a>
</g>
</g>
<!-- Node18&#45;&gt;Node20 -->
<g id="edge23" class="edge">
<title>Node18&#45;&gt;Node20</title>
<path fill="none" stroke="#63b8ff" d="M471.01,-164.98C483.46,-156.84 502.46,-144.41 517.21,-134.76"/>
<polygon fill="#63b8ff" stroke="#63b8ff" points="519.3,-137.57 525.75,-129.17 515.46,-131.72 519.3,-137.57"/>
</g>
<!-- Node21&#45;&gt;Node11 -->
<g id="edge25" class="edge">
<title>Node21&#45;&gt;Node11</title>
<path fill="none" stroke="#63b8ff" d="M1257.94,-116.14C1077.96,-107.29 445.3,-76.18 272.12,-67.67"/>
<polygon fill="#63b8ff" stroke="#63b8ff" points="272.24,-64.17 262.08,-67.18 271.9,-71.16 272.24,-64.17"/>
</g>
<!-- Node21&#45;&gt;Node14 -->
<g id="edge31" class="edge">
<title>Node21&#45;&gt;Node14</title>
<path fill="none" stroke="#63b8ff" d="M1257.77,-114.75C1131.89,-104.97 794.57,-78.76 670.57,-69.12"/>
<polygon fill="#63b8ff" stroke="#63b8ff" points="670.52,-65.6 660.28,-68.32 669.98,-72.58 670.52,-65.6"/>
</g>
<!-- Node21&#45;&gt;Node17 -->
<g id="edge28" class="edge">
<title>Node21&#45;&gt;Node17</title>
<path fill="none" stroke="#63b8ff" d="M1257.95,-110.74C1197.86,-101.03 1095.25,-84.45 1032.35,-74.28"/>
<polygon fill="#63b8ff" stroke="#63b8ff" points="1032.66,-70.79 1022.23,-72.65 1031.54,-77.7 1032.66,-70.79"/>
</g>
<!-- Node22 -->
<g id="node22" class="node">
<title>Node22</title>
<g id="a_node22"><a xlink:title=" ">
<polygon fill="#e0e0e0" stroke="#999999" points="1288,-74 1216,-74 1216,-55 1288,-55 1288,-74"/>
<text text-anchor="middle" x="1252" y="-62" font-family="Helvetica,sans-Serif" font-size="10.00">wx/colour.h</text>
</a>
</g>
</g>
<!-- Node21&#45;&gt;Node22 -->
<g id="edge26" class="edge">
<title>Node21&#45;&gt;Node22</title>
<path fill="none" stroke="#63b8ff" d="M1297.08,-109.75C1289.22,-102.03 1277.57,-90.6 1268.08,-81.28"/>
<polygon fill="#63b8ff" stroke="#63b8ff" points="1270.34,-78.6 1260.75,-74.09 1265.44,-83.59 1270.34,-78.6"/>
</g>
<!-- Node23 -->
<g id="node23" class="node">
<title>Node23</title>
<g id="a_node23"><a xlink:title=" ">
<polygon fill="#e0e0e0" stroke="#999999" points="1520,-74 1482,-74 1482,-55 1520,-55 1520,-74"/>
<text text-anchor="middle" x="1501" y="-62" font-family="Helvetica,sans-Serif" font-size="10.00">map</text>
</a>
</g>
</g>
<!-- Node21&#45;&gt;Node23 -->
<g id="edge27" class="edge">
<title>Node21&#45;&gt;Node23</title>
<path fill="none" stroke="#63b8ff" d="M1337.33,-109.98C1374.47,-99.89 1435.86,-83.21 1471.96,-73.39"/>
<polygon fill="#63b8ff" stroke="#63b8ff" points="1473.13,-76.7 1481.87,-70.7 1471.3,-69.95 1473.13,-76.7"/>
</g>
<!-- Node24 -->
<g id="node24" class="node">
<title>Node24</title>
<g id="a_node24"><a xlink:title=" ">
<polygon fill="#e0e0e0" stroke="#999999" points="1350,-74 1306,-74 1306,-55 1350,-55 1350,-74"/>
<text text-anchor="middle" x="1328" y="-62" font-family="Helvetica,sans-Serif" font-size="10.00">string</text>
</a>
</g>
</g>
<!-- Node21&#45;&gt;Node24 -->
<g id="edge29" class="edge">
<title>Node21&#45;&gt;Node24</title>
<path fill="none" stroke="#63b8ff" d="M1309.63,-109.75C1312.58,-102.65 1316.83,-92.4 1320.51,-83.56"/>
<polygon fill="#63b8ff" stroke="#63b8ff" points="1323.83,-84.67 1324.43,-74.09 1317.37,-81.98 1323.83,-84.67"/>
</g>
<!-- Node25 -->
<g id="node25" class="node">
<title>Node25</title>
<g id="a_node25"><a xlink:title=" ">
<polygon fill="#e0e0e0" stroke="#999999" points="1425.5,-74 1368.5,-74 1368.5,-55 1425.5,-55 1425.5,-74"/>
<text text-anchor="middle" x="1397" y="-62" font-family="Helvetica,sans-Serif" font-size="10.00">ostream</text>
</a>
</g>
</g>
<!-- Node21&#45;&gt;Node25 -->
<g id="edge30" class="edge">
<title>Node21&#45;&gt;Node25</title>
<path fill="none" stroke="#63b8ff" d="M1320.62,-109.98C1334.86,-101.69 1356.75,-88.94 1373.45,-79.22"/>
<polygon fill="#63b8ff" stroke="#63b8ff" points="1375.23,-82.23 1382.11,-74.17 1371.71,-76.18 1375.23,-82.23"/>
</g>
<!-- Node26 -->
<g id="node26" class="node">
<title>Node26</title>
<g id="a_node26"><a xlink:title=" ">
<polygon fill="#e0e0e0" stroke="#999999" points="1312,-19 1250,-19 1250,0 1312,0 1312,-19"/>
<text text-anchor="middle" x="1281" y="-7" font-family="Helvetica,sans-Serif" font-size="10.00">wx/font.h</text>
</a>
</g>
</g>
<!-- Node21&#45;&gt;Node26 -->
<g id="edge32" class="edge">
<title>Node21&#45;&gt;Node26</title>
<path fill="none" stroke="#63b8ff" d="M1261.24,-109.92C1241.05,-103.58 1219.08,-92.67 1207,-74 1193.14,-52.57 1221.26,-34.36 1246.73,-23.01"/>
<polygon fill="#63b8ff" stroke="#63b8ff" points="1248.4,-26.1 1256.27,-19 1245.69,-19.65 1248.4,-26.1"/>
</g>
<!-- Node27 -->
<g id="node27" class="node">
<title>Node27</title>
<g id="a_node27"><a xlink:title=" ">
<polygon fill="#e0e0e0" stroke="#999999" points="1160,-74 1078,-74 1078,-55 1160,-55 1160,-74"/>
<text text-anchor="middle" x="1119" y="-62" font-family="Helvetica,sans-Serif" font-size="10.00">wx/settings.h</text>
</a>
</g>
</g>
<!-- Node21&#45;&gt;Node27 -->
<g id="edge33" class="edge">
<title>Node21&#45;&gt;Node27</title>
<path fill="none" stroke="#63b8ff" d="M1275.96,-109.98C1244.29,-101.01 1194.23,-86.82 1159.19,-76.89"/>
<polygon fill="#63b8ff" stroke="#63b8ff" points="1159.86,-73.44 1149.28,-74.08 1157.95,-80.18 1159.86,-73.44"/>
</g>
<!-- Node21&#45;&gt;Node28 -->
<g id="edge34" class="edge">
<title>Node21&#45;&gt;Node28</title>
<path fill="none" stroke="#63b8ff" d="M1257.87,-110.77C1190.64,-99.8 1076.01,-80.31 1069,-74 1056.58,-62.82 1052.14,-43.9 1050.62,-29.61"/>
<polygon fill="#63b8ff" stroke="#63b8ff" points="1054.09,-29.12 1049.93,-19.38 1047.11,-29.59 1054.09,-29.12"/>
</g>
<!-- Node29 -->
<g id="node29" class="node">
<title>Node29</title>
<g id="a_node29"><a xlink:title=" ">
<polygon fill="#e0e0e0" stroke="#999999" points="1541.5,-19 1476.5,-19 1476.5,0 1541.5,0 1541.5,-19"/>
<text text-anchor="middle" x="1509" y="-7" font-family="Helvetica,sans-Serif" font-size="10.00">functional</text>
</a>
</g>
</g>
<!-- Node21&#45;&gt;Node29 -->
<g id="edge35" class="edge">
<title>Node21&#45;&gt;Node29</title>
<path fill="none" stroke="#63b8ff" d="M1342.04,-109.99C1368.8,-102.76 1405.61,-90.85 1435,-74 1457.59,-61.05 1479.75,-40.74 1493.84,-26.58"/>
<polygon fill="#63b8ff" stroke="#63b8ff" points="1496.68,-28.68 1501.14,-19.07 1491.66,-23.8 1496.68,-28.68"/>
</g>
<!-- Node30 -->
<g id="node30" class="node">
<title>Node30</title>
<g id="a_node30"><a xlink:href="FontAttribs_8h_source.html" target="_top" xlink:title=" ">
<polygon fill="#fff0f0" stroke="red" points="1617.5,-74 1538.5,-74 1538.5,-55 1617.5,-55 1617.5,-74"/>
<text text-anchor="middle" x="1578" y="-62" font-family="Helvetica,sans-Serif" font-size="10.00">FontAttribs.h</text>
</a>
</g>
</g>
<!-- Node21&#45;&gt;Node30 -->
<g id="edge36" class="edge">
<title>Node21&#45;&gt;Node30</title>
<path fill="none" stroke="#63b8ff" d="M1349.7,-109.98C1398.55,-100.47 1477.49,-85.08 1528.56,-75.13"/>
<polygon fill="#63b8ff" stroke="#63b8ff" points="1529.24,-78.57 1538.39,-73.22 1527.9,-71.7 1529.24,-78.57"/>
</g>
<!-- Node21&#45;&gt;Node39 -->
<g id="edge41" class="edge">
<title>Node21&#45;&gt;Node39</title>
<path fill="none" stroke="#63b8ff" d="M1354.17,-113.56C1449.9,-103.75 1663.65,-81.84 1766.1,-71.33"/>
<polygon fill="#63b8ff" stroke="#63b8ff" points="1766.66,-74.79 1776.26,-70.29 1765.95,-67.83 1766.66,-74.79"/>
</g>
<!-- Node30&#45;&gt;Node26 -->
<g id="edge37" class="edge">
<title>Node30&#45;&gt;Node26</title>
<path fill="none" stroke="#63b8ff" d="M1538.25,-56.41C1482.01,-46.37 1379.68,-28.11 1322.49,-17.9"/>
<polygon fill="#63b8ff" stroke="#63b8ff" points="1322.82,-14.41 1312.36,-16.1 1321.59,-21.3 1322.82,-14.41"/>
</g>
<!-- Node30&#45;&gt;Node28 -->
<g id="edge39" class="edge">
<title>Node30&#45;&gt;Node28</title>
<path fill="none" stroke="#63b8ff" d="M1538.46,-56.36C1535.26,-55.87 1532.08,-55.41 1529,-55 1363.74,-33.03 1164.98,-18.26 1085.43,-12.83"/>
<polygon fill="#63b8ff" stroke="#63b8ff" points="1085.22,-9.31 1075.01,-12.12 1084.75,-16.29 1085.22,-9.31"/>
</g>
<!-- Node30&#45;&gt;Node29 -->
<g id="edge40" class="edge">
<title>Node30&#45;&gt;Node29</title>
<path fill="none" stroke="#63b8ff" d="M1566.91,-54.98C1556.51,-47 1540.74,-34.88 1528.28,-25.31"/>
<polygon fill="#63b8ff" stroke="#63b8ff" points="1530.35,-22.49 1520.29,-19.17 1526.09,-28.04 1530.35,-22.49"/>
</g>
<!-- Node30&#45;&gt;Node35 -->
<g id="edge38" class="edge">
<title>Node30&#45;&gt;Node35</title>
<path fill="none" stroke="#63b8ff" d="M1588.93,-54.98C1599.08,-47.07 1614.42,-35.11 1626.65,-25.58"/>
<polygon fill="#63b8ff" stroke="#63b8ff" points="1629.14,-28.08 1634.88,-19.17 1624.84,-22.56 1629.14,-28.08"/>
</g>
<!-- Node40&#45;&gt;Node10 -->
<g id="edge45" class="edge">
<title>Node40&#45;&gt;Node10</title>
<path fill="none" stroke="#63b8ff" d="M1409,-164.98C1417.19,-157.23 1429.51,-145.58 1439.47,-136.14"/>
<polygon fill="#63b8ff" stroke="#63b8ff" points="1441.98,-138.59 1446.84,-129.17 1437.17,-133.5 1441.98,-138.59"/>
</g>
<!-- Node40&#45;&gt;Node21 -->
<g id="edge43" class="edge">
<title>Node40&#45;&gt;Node21</title>
<path fill="none" stroke="#63b8ff" d="M1384.9,-164.98C1370.18,-156.69 1347.58,-143.94 1330.33,-134.22"/>
<polygon fill="#63b8ff" stroke="#63b8ff" points="1331.81,-131.03 1321.38,-129.17 1328.37,-137.13 1331.81,-131.03"/>
</g>
<!-- Node38 -->
<g id="node34" class="node">
<title>Node38</title>
<g id="a_node34"><a xlink:title=" ">
<polygon fill="#e0e0e0" stroke="#999999" points="1826.5,-129 1781.5,-129 1781.5,-110 1826.5,-110 1826.5,-129"/>
<text text-anchor="middle" x="1804" y="-117" font-family="Helvetica,sans-Serif" font-size="10.00">utility</text>
</a>
</g>
</g>
<!-- Node40&#45;&gt;Node38 -->
<g id="edge44" class="edge">
<title>Node40&#45;&gt;Node38</title>
<path fill="none" stroke="#63b8ff" d="M1428.09,-169.82C1500.55,-160.31 1693.54,-134.99 1771.08,-124.82"/>
<polygon fill="#63b8ff" stroke="#63b8ff" points="1771.77,-128.26 1781.23,-123.49 1770.86,-121.32 1771.77,-128.26"/>
</g>
<!-- Node47&#45;&gt;Node6 -->
<g id="edge60" class="edge">
<title>Node47&#45;&gt;Node6</title>
<path fill="none" stroke="#63b8ff" d="M357.83,-331.92C297.17,-321.05 182.89,-299.94 176,-294 146.4,-268.48 137.17,-220.9 134.3,-194.46"/>
<polygon fill="#63b8ff" stroke="#63b8ff" points="137.76,-193.9 133.39,-184.25 130.79,-194.52 137.76,-193.9"/>
</g>
<!-- Node47&#45;&gt;Node11 -->
<g id="edge59" class="edge">
<title>Node47&#45;&gt;Node11</title>
<path fill="none" stroke="#63b8ff" d="M357.71,-337.1C309.22,-334.06 222.83,-324.45 156,-294 114.69,-275.18 76,-275.89 76,-230.5 76,-230.5 76,-230.5 76,-173.5 76,-120.08 139.16,-90.65 184.05,-76.49"/>
<polygon fill="#63b8ff" stroke="#63b8ff" points="185.32,-79.76 193.89,-73.53 183.3,-73.06 185.32,-79.76"/>
</g>
<!-- Node47&#45;&gt;Node13 -->
<g id="edge63" class="edge">
<title>Node47&#45;&gt;Node13</title>
<path fill="none" stroke="#63b8ff" d="M432.33,-330.99C526,-312.15 771.17,-262.85 879.38,-241.08"/>
<polygon fill="#63b8ff" stroke="#63b8ff" points="880.3,-244.47 889.41,-239.06 878.92,-237.61 880.3,-244.47"/>
</g>
<!-- Node48 -->
<g id="node42" class="node">
<title>Node48</title>
<g id="a_node42"><a xlink:title=" ">
<polygon fill="#e0e0e0" stroke="#999999" points="411.5,-294 340.5,-294 340.5,-275 411.5,-275 411.5,-294"/>
<text text-anchor="middle" x="376" y="-282" font-family="Helvetica,sans-Serif" font-size="10.00">wx/regex.h</text>
</a>
</g>
</g>
<!-- Node47&#45;&gt;Node48 -->
<g id="edge61" class="edge">
<title>Node47&#45;&gt;Node48</title>
<path fill="none" stroke="#63b8ff" d="M391.86,-329.75C389.32,-322.65 385.64,-312.4 382.47,-303.56"/>
<polygon fill="#63b8ff" stroke="#63b8ff" points="385.75,-302.32 379.08,-294.09 379.16,-304.68 385.75,-302.32"/>
</g>
<!-- Node49 -->
<g id="node43" class="node">
<title>Node49</title>
<g id="a_node43"><a xlink:title=" ">
<polygon fill="#e0e0e0" stroke="#999999" points="508,-294 430,-294 430,-275 508,-275 508,-294"/>
<text text-anchor="middle" x="469" y="-282" font-family="Helvetica,sans-Serif" font-size="10.00">wx/textctrl.h</text>
</a>
</g>
</g>
<!-- Node47&#45;&gt;Node49 -->
<g id="edge62" class="edge">
<title>Node47&#45;&gt;Node49</title>
<path fill="none" stroke="#63b8ff" d="M406.89,-329.98C418.15,-321.92 435.29,-309.65 448.71,-300.03"/>
<polygon fill="#63b8ff" stroke="#63b8ff" points="450.8,-302.84 456.89,-294.17 446.73,-297.15 450.8,-302.84"/>
</g>
<!-- Node50 -->
<g id="node44" class="node">
<title>Node50</title>
<g id="a_node44"><a xlink:href="BTextCtrl_8h_source.html" target="_top" xlink:title=" ">
<polygon fill="white" stroke="#666666" points="263.5,-294 184.5,-294 184.5,-275 263.5,-275 263.5,-294"/>
<text text-anchor="middle" x="224" y="-282" font-family="Helvetica,sans-Serif" font-size="10.00">../BTextCtrl.h</text>
</a>
</g>
</g>
<!-- Node47&#45;&gt;Node50 -->
<g id="edge64" class="edge">
<title>Node47&#45;&gt;Node50</title>
<path fill="none" stroke="#63b8ff" d="M367.53,-329.98C338.82,-321.09 293.58,-307.07 261.58,-297.15"/>
<polygon fill="#63b8ff" stroke="#63b8ff" points="262.28,-293.7 251.69,-294.08 260.2,-300.39 262.28,-293.7"/>
</g>
<!-- Node50&#45;&gt;Node6 -->
<g id="edge66" class="edge">
<title>Node50&#45;&gt;Node6</title>
<path fill="none" stroke="#63b8ff" d="M216.55,-274.66C201.35,-256.61 166.52,-215.28 146.97,-192.08"/>
<polygon fill="#63b8ff" stroke="#63b8ff" points="149.42,-189.55 140.3,-184.16 144.06,-194.06 149.42,-189.55"/>
</g>
<!-- Node50&#45;&gt;Node11 -->
<g id="edge65" class="edge">
<title>Node50&#45;&gt;Node11</title>
<path fill="none" stroke="#63b8ff" d="M222.22,-274.77C217.27,-249.26 204.38,-172.63 214,-110 215.35,-101.19 218.13,-91.74 220.85,-83.82"/>
<polygon fill="#63b8ff" stroke="#63b8ff" points="224.23,-84.77 224.4,-74.18 217.66,-82.35 224.23,-84.77"/>
</g>
<!-- Node50&#45;&gt;Node13 -->
<g id="edge67" class="edge">
<title>Node50&#45;&gt;Node13</title>
<path fill="none" stroke="#63b8ff" d="M263.76,-276.83C268.55,-276.15 273.38,-275.52 278,-275 498.71,-250.17 762.98,-237.34 876.14,-232.64"/>
<polygon fill="#63b8ff" stroke="#63b8ff" points="876.44,-236.13 886.28,-232.22 876.15,-229.13 876.44,-236.13"/>
</g>
<!-- Node51&#45;&gt;Node3 -->
<g id="edge70" class="edge">
<title>Node51&#45;&gt;Node3</title>
<path fill="none" stroke="#63b8ff" d="M1745.6,-384.78C1738.04,-376.35 1727.32,-362.86 1722,-349 1701.61,-295.83 1700.92,-227.23 1701.99,-194.5"/>
<polygon fill="#63b8ff" stroke="#63b8ff" points="1705.5,-194.31 1702.43,-184.16 1698.51,-194.01 1705.5,-194.31"/>
</g>
<!-- Node51&#45;&gt;Node39 -->
<g id="edge85" class="edge">
<title>Node51&#45;&gt;Node39</title>
<path fill="none" stroke="#63b8ff" d="M1792.01,-384.99C1816.56,-378.17 1848.22,-366.74 1872,-349 1925.01,-309.46 1962,-296.63 1962,-230.5 1962,-230.5 1962,-230.5 1962,-173.5 1962,-122.86 1903.76,-92.52 1862.67,-77.43"/>
<polygon fill="#63b8ff" stroke="#63b8ff" points="1863.76,-74.1 1853.16,-74.09 1861.44,-80.7 1863.76,-74.1"/>
</g>
<!-- Node51&#45;&gt;Node38 -->
<g id="edge69" class="edge">
<title>Node51&#45;&gt;Node38</title>
<path fill="none" stroke="#63b8ff" d="M1781.35,-384.92C1820.01,-370.89 1886,-339.09 1886,-285.5 1886,-285.5 1886,-285.5 1886,-228.5 1886,-199.04 1884.19,-188.92 1867,-165 1857.75,-152.14 1843.6,-141.66 1831.05,-134.11"/>
<polygon fill="#63b8ff" stroke="#63b8ff" points="1832.71,-131.03 1822.29,-129.14 1829.26,-137.12 1832.71,-131.03"/>
</g>
<!-- Node52 -->
<g id="node46" class="node">
<title>Node52</title>
<g id="a_node46"><a xlink:href="Cell_8h.html" target="_top" xlink:title="The definition of the base class of all cells the worksheet consists of.">
<polygon fill="#fff0f0" stroke="red" points="1566,-294 1522,-294 1522,-275 1566,-275 1566,-294"/>
<text text-anchor="middle" x="1544" y="-282" font-family="Helvetica,sans-Serif" font-size="10.00">Cell.h</text>
</a>
</g>
</g>
<!-- Node51&#45;&gt;Node52 -->
<g id="edge71" class="edge">
<title>Node51&#45;&gt;Node52</title>
<path fill="none" stroke="#63b8ff" d="M1737.17,-384.84C1700.52,-366 1613.31,-321.14 1569.72,-298.73"/>
<polygon fill="#63b8ff" stroke="#63b8ff" points="1571.11,-295.51 1560.62,-294.05 1567.91,-301.73 1571.11,-295.51"/>
</g>
<!-- Node63 -->
<g id="node47" class="node">
<title>Node63</title>
<g id="a_node47"><a xlink:href="EditorCell_8h.html" target="_top" xlink:title="This file contains the definition of the class EditorCell.">
<polygon fill="#fff0f0" stroke="red" points="1803.5,-349 1730.5,-349 1730.5,-330 1803.5,-330 1803.5,-349"/>
<text text-anchor="middle" x="1767" y="-337" font-family="Helvetica,sans-Serif" font-size="10.00">EditorCell.h</text>
</a>
</g>
</g>
<!-- Node51&#45;&gt;Node63 -->
<g id="edge79" class="edge">
<title>Node51&#45;&gt;Node63</title>
<path fill="none" stroke="#63b8ff" d="M1756.15,-384.75C1757.87,-377.72 1760.35,-367.62 1762.5,-358.84"/>
<polygon fill="#63b8ff" stroke="#63b8ff" points="1765.91,-359.63 1764.89,-349.09 1759.11,-357.97 1765.91,-359.63"/>
</g>
<!-- Node52&#45;&gt;Node3 -->
<g id="edge77" class="edge">
<title>Node52&#45;&gt;Node3</title>
<path fill="none" stroke="#63b8ff" d="M1556.74,-274.84C1583.96,-256.36 1648,-212.86 1681.59,-190.05"/>
<polygon fill="#63b8ff" stroke="#63b8ff" points="1683.89,-192.71 1690.2,-184.2 1679.96,-186.92 1683.89,-192.71"/>
</g>
<!-- Node52&#45;&gt;Node10 -->
<g id="edge78" class="edge">
<title>Node52&#45;&gt;Node10</title>
<path fill="none" stroke="#63b8ff" d="M1539.27,-274.74C1525.36,-248.98 1484.42,-173.13 1465.62,-138.33"/>
<polygon fill="#63b8ff" stroke="#63b8ff" points="1468.59,-136.44 1460.75,-129.31 1462.43,-139.77 1468.59,-136.44"/>
</g>
<!-- Node52&#45;&gt;Node11 -->
<g id="edge72" class="edge">
<title>Node52&#45;&gt;Node11</title>
<path fill="none" stroke="#63b8ff" d="M1521.84,-283.09C1361.04,-279.97 376.49,-257.9 269,-184 236.51,-161.66 229.47,-111.61 228.13,-84.25"/>
<polygon fill="#63b8ff" stroke="#63b8ff" points="231.62,-83.96 227.85,-74.06 224.63,-84.15 231.62,-83.96"/>
</g>
<!-- Node52&#45;&gt;Node13 -->
<g id="edge73" class="edge">
<title>Node52&#45;&gt;Node13</title>
<path fill="none" stroke="#63b8ff" d="M1521.86,-281.58C1435.27,-274.08 1117.99,-246.61 988.05,-235.35"/>
<polygon fill="#63b8ff" stroke="#63b8ff" points="988.18,-231.85 977.92,-234.48 987.58,-238.83 988.18,-231.85"/>
</g>
<!-- Node52&#45;&gt;Node21 -->
<g id="edge74" class="edge">
<title>Node52&#45;&gt;Node21</title>
<path fill="none" stroke="#63b8ff" d="M1523.37,-274.92C1488.28,-259.75 1415.66,-225.8 1363,-184 1345.68,-170.25 1329.17,-150.94 1318.42,-137.23"/>
<polygon fill="#63b8ff" stroke="#63b8ff" points="1321.1,-134.96 1312.24,-129.15 1315.54,-139.22 1321.1,-134.96"/>
</g>
<!-- Node52&#45;&gt;Node23 -->
<g id="edge76" class="edge">
<title>Node52&#45;&gt;Node23</title>
<path fill="none" stroke="#63b8ff" d="M1542.31,-274.95C1535.99,-242.88 1513.56,-129.2 1504.67,-84.12"/>
<polygon fill="#63b8ff" stroke="#63b8ff" points="1508.09,-83.36 1502.72,-74.22 1501.22,-84.71 1508.09,-83.36"/>
</g>
<!-- Node52&#45;&gt;Node35 -->
<g id="edge75" class="edge">
<title>Node52&#45;&gt;Node35</title>
<path fill="none" stroke="#63b8ff" d="M1549.93,-274.97C1565.79,-252.89 1611.59,-193.57 1665,-165 1733.48,-128.36 1770.09,-170.08 1836,-129 1862.33,-112.59 1868.89,-103.34 1879,-74 1881.75,-66.02 1884.38,-61.51 1879,-55 1855.24,-26.28 1748.57,-15.92 1688.13,-12.32"/>
<polygon fill="#63b8ff" stroke="#63b8ff" points="1688.31,-8.83 1678.13,-11.76 1687.92,-15.82 1688.31,-8.83"/>
</g>
<!-- Node63&#45;&gt;Node2 -->
<g id="edge83" class="edge">
<title>Node63&#45;&gt;Node2</title>
<path fill="none" stroke="#63b8ff" d="M1772.95,-329.82C1784.27,-312.98 1809.1,-274.42 1824,-239 1830.12,-224.46 1834.86,-207.19 1837.94,-194.34"/>
<polygon fill="#63b8ff" stroke="#63b8ff" points="1841.4,-194.88 1840.21,-184.36 1834.58,-193.33 1841.4,-194.88"/>
</g>
<!-- Node63&#45;&gt;Node10 -->
<g id="edge82" class="edge">
<title>Node63&#45;&gt;Node10</title>
<path fill="none" stroke="#63b8ff" d="M1765.03,-329.67C1763.07,-320.71 1760.08,-306.44 1758,-294 1748.48,-236.96 1781.4,-206.38 1741,-165 1723.65,-147.24 1562.14,-130.29 1490.24,-123.55"/>
<polygon fill="#63b8ff" stroke="#63b8ff" points="1490.19,-120.03 1479.91,-122.6 1489.55,-127 1490.19,-120.03"/>
</g>
<!-- Node63&#45;&gt;Node30 -->
<g id="edge81" class="edge">
<title>Node63&#45;&gt;Node30</title>
<path fill="none" stroke="#63b8ff" d="M1769.85,-329.78C1778.25,-302.25 1799.98,-216.01 1761,-165 1725.53,-118.58 1661.95,-91.12 1619.87,-77.18"/>
<polygon fill="#63b8ff" stroke="#63b8ff" points="1620.77,-73.8 1610.18,-74.09 1618.64,-80.47 1620.77,-73.8"/>
</g>
<!-- Node63&#45;&gt;Node39 -->
<g id="edge84" class="edge">
<title>Node63&#45;&gt;Node39</title>
<path fill="none" stroke="#63b8ff" d="M1803.81,-330.4C1850.21,-317.77 1924,-288.56 1924,-230.5 1924,-230.5 1924,-230.5 1924,-173.5 1924,-129.76 1879.26,-96.41 1849.34,-78.99"/>
<polygon fill="#63b8ff" stroke="#63b8ff" points="1851.03,-75.92 1840.59,-74.1 1847.61,-82.03 1851.03,-75.92"/>
</g>
<!-- Node63&#45;&gt;Node52 -->
<g id="edge80" class="edge">
<title>Node63&#45;&gt;Node52</title>
<path fill="none" stroke="#63b8ff" d="M1731.17,-329.98C1688.27,-319.79 1617.06,-302.86 1575.96,-293.09"/>
<polygon fill="#63b8ff" stroke="#63b8ff" points="1576.73,-289.68 1566.19,-290.77 1575.11,-296.49 1576.73,-289.68"/>
</g>
<!-- Node66&#45;&gt;Node6 -->
<g id="edge88" class="edge">
<title>Node66&#45;&gt;Node6</title>
<path fill="none" stroke="#63b8ff" d="M2028.26,-447.52C1815.74,-441.4 689.17,-406.62 349,-349 261.06,-334.1 222.23,-353.74 156,-294 128.21,-268.93 128,-221.18 130.41,-194.58"/>
<polygon fill="#63b8ff" stroke="#63b8ff" points="133.93,-194.64 131.58,-184.31 126.97,-193.85 133.93,-194.64"/>
</g>
<!-- Node67 -->
<g id="node49" class="node">
<title>Node67</title>
<g id="a_node49"><a xlink:title=" ">
<polygon fill="#e0e0e0" stroke="#999999" points="2077,-404 2035,-404 2035,-385 2077,-385 2077,-404"/>
<text text-anchor="middle" x="2056" y="-392" font-family="Helvetica,sans-Serif" font-size="10.00">array</text>
</a>
</g>
</g>
<!-- Node66&#45;&gt;Node67 -->
<g id="edge87" class="edge">
<title>Node66&#45;&gt;Node67</title>
<path fill="none" stroke="#63b8ff" d="M2061.84,-439.75C2060.93,-432.8 2059.61,-422.85 2058.46,-414.13"/>
<polygon fill="#63b8ff" stroke="#63b8ff" points="2061.91,-413.54 2057.13,-404.09 2054.97,-414.46 2061.91,-413.54"/>
</g>
<!-- Node68 -->
<g id="node50" class="node">
<title>Node68</title>
<g id="a_node50"><a xlink:title=" ">
<polygon fill="#e0e0e0" stroke="#999999" points="2184.5,-404 2095.5,-404 2095.5,-385 2184.5,-385 2184.5,-404"/>
<text text-anchor="middle" x="2140" y="-392" font-family="Helvetica,sans-Serif" font-size="10.00">wx/windowid.h</text>
</a>
</g>
</g>
<!-- Node66&#45;&gt;Node68 -->
<g id="edge89" class="edge">
<title>Node66&#45;&gt;Node68</title>
<path fill="none" stroke="#63b8ff" d="M2075.37,-439.98C2087.09,-431.92 2104.92,-419.65 2118.89,-410.03"/>
<polygon fill="#63b8ff" stroke="#63b8ff" points="2121.15,-412.72 2127.4,-404.17 2117.18,-406.96 2121.15,-412.72"/>
</g>
</g>
</svg>
