<?xml version="1.0" encoding="UTF-8" standalone="no"?>
<!DOCTYPE svg PUBLIC "-//W3C//DTD SVG 1.1//EN"
 "http://www.w3.org/Graphics/SVG/1.1/DTD/svg11.dtd">
<!-- Generated by graphviz version 2.43.0 (0)
 -->
<!-- Title: test/unit_tests/test_MaximaVariableUpdates.cpp Pages: 1 -->
<svg width="1275pt" height="203pt"
 viewBox="0.00 0.00 1274.50 203.00" xmlns="http://www.w3.org/2000/svg" xmlns:xlink="http://www.w3.org/1999/xlink">
<g id="graph0" class="graph" transform="scale(1 1) rotate(0) translate(4 199)">
<title>test/unit_tests/test_MaximaVariableUpdates.cpp</title>
<!-- Node1 -->
<g id="node1" class="node">
<title>Node1</title>
<g id="a_node1"><a xlink:title="Tests for ParseMaximaVariableUpdates(), the GUI&#45;free parser for the &lt;variables&gt; XML documents Maxima ...">
<polygon fill="#999999" stroke="#666666" points="796.5,-195 634.5,-195 634.5,-165 796.5,-165 796.5,-195"/>
<text text-anchor="start" x="642.5" y="-183" font-family="Helvetica,sans-Serif" font-size="10.00">test/unit_tests/test</text>
<text text-anchor="middle" x="715.5" y="-172" font-family="Helvetica,sans-Serif" font-size="10.00">_MaximaVariableUpdates.cpp</text>
</a>
</g>
</g>
<!-- Node2 -->
<g id="node2" class="node">
<title>Node2</title>
<g id="a_node2"><a xlink:href="MaximaVariableUpdates_8cpp.html" target="_top" xlink:title="Implements the parser for the &lt;variables&gt; XML documents Maxima sends.">
<polygon fill="white" stroke="#666666" points="422,-129 265,-129 265,-110 422,-110 422,-129"/>
<text text-anchor="middle" x="343.5" y="-117" font-family="Helvetica,sans-Serif" font-size="10.00">MaximaVariableUpdates.cpp</text>
</a>
</g>
</g>
<!-- Node1&#45;&gt;Node2 -->
<g id="edge1" class="edge">
<title>Node1&#45;&gt;Node2</title>
<path fill="none" stroke="#63b8ff" d="M634.32,-166.23C566.38,-155.55 470.73,-140.51 407.95,-130.64"/>
<polygon fill="#63b8ff" stroke="#63b8ff" points="408.21,-127.13 397.78,-129.04 407.12,-134.05 408.21,-127.13"/>
</g>
<!-- Node7 -->
<g id="node7" class="node">
<title>Node7</title>
<g id="a_node7"><a xlink:href="catch_8hpp_source.html" target="_top" xlink:title=" ">
<polygon fill="white" stroke="#666666" points="717,-129 618,-129 618,-110 717,-110 717,-129"/>
<text text-anchor="middle" x="667.5" y="-117" font-family="Helvetica,sans-Serif" font-size="10.00">catch2/catch.hpp</text>
</a>
</g>
</g>
<!-- Node1&#45;&gt;Node7 -->
<g id="edge6" class="edge">
<title>Node1&#45;&gt;Node7</title>
<path fill="none" stroke="#63b8ff" d="M703.88,-164.84C697.06,-156.52 688.39,-145.96 681.23,-137.23"/>
<polygon fill="#63b8ff" stroke="#63b8ff" points="683.74,-134.78 674.69,-129.27 678.33,-139.22 683.74,-134.78"/>
</g>
<!-- Node22 -->
<g id="node22" class="node">
<title>Node22</title>
<g id="a_node22"><a xlink:title=" ">
<polygon fill="#e0e0e0" stroke="#999999" points="794,-129 735,-129 735,-110 794,-110 794,-129"/>
<text text-anchor="middle" x="764.5" y="-117" font-family="Helvetica,sans-Serif" font-size="10.00">wx/init.h</text>
</a>
</g>
</g>
<!-- Node1&#45;&gt;Node22 -->
<g id="edge22" class="edge">
<title>Node1&#45;&gt;Node22</title>
<path fill="none" stroke="#63b8ff" d="M727.36,-164.84C734.4,-156.43 743.36,-145.74 750.71,-136.96"/>
<polygon fill="#63b8ff" stroke="#63b8ff" points="753.42,-139.18 757.16,-129.27 748.05,-134.68 753.42,-139.18"/>
</g>
<!-- Node23 -->
<g id="node23" class="node">
<title>Node23</title>
<g id="a_node23"><a xlink:title=" ">
<polygon fill="#e0e0e0" stroke="#999999" points="895,-129 812,-129 812,-110 895,-110 895,-129"/>
<text text-anchor="middle" x="853.5" y="-117" font-family="Helvetica,sans-Serif" font-size="10.00">wx/sstream.h</text>
</a>
</g>
</g>
<!-- Node1&#45;&gt;Node23 -->
<g id="edge23" class="edge">
<title>Node1&#45;&gt;Node23</title>
<path fill="none" stroke="#63b8ff" d="M748.55,-164.99C771.48,-155.27 801.74,-142.44 823.88,-133.06"/>
<polygon fill="#63b8ff" stroke="#63b8ff" points="825.28,-136.26 833.12,-129.14 822.55,-129.82 825.28,-136.26"/>
</g>
<!-- Node3 -->
<g id="node3" class="node">
<title>Node3</title>
<g id="a_node3"><a xlink:href="MaximaVariableUpdates_8h.html" target="_top" xlink:title="Declares the parser for the &lt;variables&gt; XML documents Maxima sends.">
<polygon fill="white" stroke="#666666" points="198.5,-74 52.5,-74 52.5,-55 198.5,-55 198.5,-74"/>
<text text-anchor="middle" x="125.5" y="-62" font-family="Helvetica,sans-Serif" font-size="10.00">MaximaVariableUpdates.h</text>
</a>
</g>
</g>
<!-- Node2&#45;&gt;Node3 -->
<g id="edge2" class="edge">
<title>Node2&#45;&gt;Node3</title>
<path fill="none" stroke="#63b8ff" d="M308.47,-109.98C271,-100.87 211.45,-86.4 170.52,-76.45"/>
<polygon fill="#63b8ff" stroke="#63b8ff" points="171.34,-73.04 160.8,-74.08 169.69,-79.85 171.34,-73.04"/>
</g>
<!-- Node4 -->
<g id="node4" class="node">
<title>Node4</title>
<g id="a_node4"><a xlink:title=" ">
<polygon fill="#e0e0e0" stroke="#999999" points="71,-19 0,-19 0,0 71,0 71,-19"/>
<text text-anchor="middle" x="35.5" y="-7" font-family="Helvetica,sans-Serif" font-size="10.00">wx/string.h</text>
</a>
</g>
</g>
<!-- Node3&#45;&gt;Node4 -->
<g id="edge3" class="edge">
<title>Node3&#45;&gt;Node4</title>
<path fill="none" stroke="#63b8ff" d="M111.04,-54.98C97.08,-46.77 75.71,-34.18 59.25,-24.49"/>
<polygon fill="#63b8ff" stroke="#63b8ff" points="60.62,-21.23 50.22,-19.17 57.06,-27.26 60.62,-21.23"/>
</g>
<!-- Node5 -->
<g id="node5" class="node">
<title>Node5</title>
<g id="a_node5"><a xlink:title=" ">
<polygon fill="#e0e0e0" stroke="#999999" points="172,-19 89,-19 89,0 172,0 172,-19"/>
<text text-anchor="middle" x="130.5" y="-7" font-family="Helvetica,sans-Serif" font-size="10.00">wx/xml/xml.h</text>
</a>
</g>
</g>
<!-- Node3&#45;&gt;Node5 -->
<g id="edge4" class="edge">
<title>Node3&#45;&gt;Node5</title>
<path fill="none" stroke="#63b8ff" d="M126.33,-54.75C126.98,-47.8 127.92,-37.85 128.74,-29.13"/>
<polygon fill="#63b8ff" stroke="#63b8ff" points="132.23,-29.37 129.69,-19.09 125.27,-28.72 132.23,-29.37"/>
</g>
<!-- Node6 -->
<g id="node6" class="node">
<title>Node6</title>
<g id="a_node6"><a xlink:title=" ">
<polygon fill="#e0e0e0" stroke="#999999" points="246,-19 199,-19 199,0 246,0 246,-19"/>
<text text-anchor="middle" x="222.5" y="-7" font-family="Helvetica,sans-Serif" font-size="10.00">vector</text>
</a>
</g>
</g>
<!-- Node3&#45;&gt;Node6 -->
<g id="edge5" class="edge">
<title>Node3&#45;&gt;Node6</title>
<path fill="none" stroke="#63b8ff" d="M141.08,-54.98C156.27,-46.69 179.6,-33.94 197.4,-24.22"/>
<polygon fill="#63b8ff" stroke="#63b8ff" points="199.53,-27.04 206.63,-19.17 196.18,-20.89 199.53,-27.04"/>
</g>
<!-- Node7&#45;&gt;Node6 -->
<g id="edge10" class="edge">
<title>Node7&#45;&gt;Node6</title>
<path fill="none" stroke="#63b8ff" d="M617.95,-116.2C512.75,-110.91 274.32,-96.56 245.5,-74 231.82,-63.29 226.27,-43.69 224.02,-29.09"/>
<polygon fill="#63b8ff" stroke="#63b8ff" points="227.49,-28.66 222.87,-19.13 220.54,-29.47 227.49,-28.66"/>
</g>
<!-- Node8 -->
<g id="node8" class="node">
<title>Node8</title>
<g id="a_node8"><a xlink:title=" ">
<polygon fill="#e0e0e0" stroke="#999999" points="302.5,-74 254.5,-74 254.5,-55 302.5,-55 302.5,-74"/>
<text text-anchor="middle" x="278.5" y="-62" font-family="Helvetica,sans-Serif" font-size="10.00">iosfwd</text>
</a>
</g>
</g>
<!-- Node7&#45;&gt;Node8 -->
<g id="edge7" class="edge">
<title>Node7&#45;&gt;Node8</title>
<path fill="none" stroke="#63b8ff" d="M617.95,-114.32C550.84,-108.22 427.21,-95.41 312.57,-73.97"/>
<polygon fill="#63b8ff" stroke="#63b8ff" points="313.05,-70.5 302.57,-72.08 311.74,-77.38 313.05,-70.5"/>
</g>
<!-- Node9 -->
<g id="node9" class="node">
<title>Node9</title>
<g id="a_node9"><a xlink:title=" ">
<polygon fill="#e0e0e0" stroke="#999999" points="364.5,-74 320.5,-74 320.5,-55 364.5,-55 364.5,-74"/>
<text text-anchor="middle" x="342.5" y="-62" font-family="Helvetica,sans-Serif" font-size="10.00">string</text>
</a>
</g>
</g>
<!-- Node7&#45;&gt;Node9 -->
<g id="edge8" class="edge">
<title>Node7&#45;&gt;Node9</title>
<path fill="none" stroke="#63b8ff" d="M617.76,-112.78C561.1,-105.86 465.6,-92.99 374.69,-74.04"/>
<polygon fill="#63b8ff" stroke="#63b8ff" points="375.28,-70.59 364.77,-71.94 373.83,-77.44 375.28,-70.59"/>
</g>
<!-- Node10 -->
<g id="node10" class="node">
<title>Node10</title>
<g id="a_node10"><a xlink:title=" ">
<polygon fill="#e0e0e0" stroke="#999999" points="432.5,-74 382.5,-74 382.5,-55 432.5,-55 432.5,-74"/>
<text text-anchor="middle" x="407.5" y="-62" font-family="Helvetica,sans-Serif" font-size="10.00">cstdint</text>
</a>
</g>
</g>
<!-- Node7&#45;&gt;Node10 -->
<g id="edge9" class="edge">
<title>Node7&#45;&gt;Node10</title>
<path fill="none" stroke="#63b8ff" d="M620.61,-109.98C576.95,-101.89 509.82,-89.04 442.63,-74.16"/>
<polygon fill="#63b8ff" stroke="#63b8ff" points="443.24,-70.72 432.72,-71.96 441.72,-77.55 443.24,-70.72"/>
</g>
<!-- Node11 -->
<g id="node11" class="node">
<title>Node11</title>
<g id="a_node11"><a xlink:title=" ">
<polygon fill="#e0e0e0" stroke="#999999" points="504,-74 451,-74 451,-55 504,-55 504,-74"/>
<text text-anchor="middle" x="477.5" y="-62" font-family="Helvetica,sans-Serif" font-size="10.00">cstddef</text>
</a>
</g>
</g>
<!-- Node7&#45;&gt;Node11 -->
<g id="edge11" class="edge">
<title>Node7&#45;&gt;Node11</title>
<path fill="none" stroke="#63b8ff" d="M636.97,-109.98C603.56,-100.66 549.99,-85.72 514.28,-75.76"/>
<polygon fill="#63b8ff" stroke="#63b8ff" points="514.84,-72.28 504.27,-72.97 512.96,-79.02 514.84,-72.28"/>
</g>
<!-- Node12 -->
<g id="node12" class="node">
<title>Node12</title>
<g id="a_node12"><a xlink:title=" ">
<polygon fill="#e0e0e0" stroke="#999999" points="574.5,-74 522.5,-74 522.5,-55 574.5,-55 574.5,-74"/>
<text text-anchor="middle" x="548.5" y="-62" font-family="Helvetica,sans-Serif" font-size="10.00">cassert</text>
</a>
</g>
</g>
<!-- Node7&#45;&gt;Node12 -->
<g id="edge12" class="edge">
<title>Node7&#45;&gt;Node12</title>
<path fill="none" stroke="#63b8ff" d="M648.38,-109.98C629.15,-101.42 599.27,-88.11 577.19,-78.28"/>
<polygon fill="#63b8ff" stroke="#63b8ff" points="578.53,-75.04 567.97,-74.17 575.68,-81.44 578.53,-75.04"/>
</g>
<!-- Node13 -->
<g id="node13" class="node">
<title>Node13</title>
<g id="a_node13"><a xlink:title=" ">
<polygon fill="#e0e0e0" stroke="#999999" points="662,-74 593,-74 593,-55 662,-55 662,-74"/>
<text text-anchor="middle" x="627.5" y="-62" font-family="Helvetica,sans-Serif" font-size="10.00">type_traits</text>
</a>
</g>
</g>
<!-- Node7&#45;&gt;Node13 -->
<g id="edge13" class="edge">
<title>Node7&#45;&gt;Node13</title>
<path fill="none" stroke="#63b8ff" d="M660.89,-109.75C655.24,-102.26 646.96,-91.28 640.05,-82.13"/>
<polygon fill="#63b8ff" stroke="#63b8ff" points="642.8,-79.96 633.98,-74.09 637.21,-84.18 642.8,-79.96"/>
</g>
<!-- Node14 -->
<g id="node14" class="node">
<title>Node14</title>
<g id="a_node14"><a xlink:title=" ">
<polygon fill="#e0e0e0" stroke="#999999" points="737,-74 680,-74 680,-55 737,-55 737,-74"/>
<text text-anchor="middle" x="708.5" y="-62" font-family="Helvetica,sans-Serif" font-size="10.00">ostream</text>
</a>
</g>
</g>
<!-- Node7&#45;&gt;Node14 -->
<g id="edge14" class="edge">
<title>Node7&#45;&gt;Node14</title>
<path fill="none" stroke="#63b8ff" d="M674.27,-109.75C680.06,-102.26 688.56,-91.28 695.64,-82.13"/>
<polygon fill="#63b8ff" stroke="#63b8ff" points="698.51,-84.14 701.86,-74.09 692.97,-79.86 698.51,-84.14"/>
</g>
<!-- Node15 -->
<g id="node15" class="node">
<title>Node15</title>
<g id="a_node15"><a xlink:title=" ">
<polygon fill="#e0e0e0" stroke="#999999" points="805.5,-74 755.5,-74 755.5,-55 805.5,-55 805.5,-74"/>
<text text-anchor="middle" x="780.5" y="-62" font-family="Helvetica,sans-Serif" font-size="10.00">chrono</text>
</a>
</g>
</g>
<!-- Node7&#45;&gt;Node15 -->
<g id="edge15" class="edge">
<title>Node7&#45;&gt;Node15</title>
<path fill="none" stroke="#63b8ff" d="M685.66,-109.98C703.75,-101.5 731.78,-88.35 752.69,-78.54"/>
<polygon fill="#63b8ff" stroke="#63b8ff" points="754.45,-81.59 762.01,-74.17 751.47,-75.25 754.45,-81.59"/>
</g>
<!-- Node16 -->
<g id="node16" class="node">
<title>Node16</title>
<g id="a_node16"><a xlink:title=" ">
<polygon fill="#e0e0e0" stroke="#999999" points="881.5,-74 823.5,-74 823.5,-55 881.5,-55 881.5,-74"/>
<text text-anchor="middle" x="852.5" y="-62" font-family="Helvetica,sans-Serif" font-size="10.00">memory</text>
</a>
</g>
</g>
<!-- Node7&#45;&gt;Node16 -->
<g id="edge16" class="edge">
<title>Node7&#45;&gt;Node16</title>
<path fill="none" stroke="#63b8ff" d="M697.22,-109.98C728.83,-100.93 778.95,-86.57 813.66,-76.63"/>
<polygon fill="#63b8ff" stroke="#63b8ff" points="814.81,-79.94 823.46,-73.82 812.88,-73.21 814.81,-79.94"/>
</g>
<!-- Node17 -->
<g id="node17" class="node">
<title>Node17</title>
<g id="a_node17"><a xlink:title=" ">
<polygon fill="#e0e0e0" stroke="#999999" points="965,-74 900,-74 900,-55 965,-55 965,-74"/>
<text text-anchor="middle" x="932.5" y="-62" font-family="Helvetica,sans-Serif" font-size="10.00">exception</text>
</a>
</g>
</g>
<!-- Node7&#45;&gt;Node17 -->
<g id="edge17" class="edge">
<title>Node7&#45;&gt;Node17</title>
<path fill="none" stroke="#63b8ff" d="M710.67,-109.92C753.5,-101.4 821.27,-87.9 889.82,-74.13"/>
<polygon fill="#63b8ff" stroke="#63b8ff" points="890.83,-77.5 899.94,-72.1 889.45,-70.64 890.83,-77.5"/>
</g>
<!-- Node18 -->
<g id="node18" class="node">
<title>Node18</title>
<g id="a_node18"><a xlink:title=" ">
<polygon fill="#e0e0e0" stroke="#999999" points="1048,-74 983,-74 983,-55 1048,-55 1048,-74"/>
<text text-anchor="middle" x="1015.5" y="-62" font-family="Helvetica,sans-Serif" font-size="10.00">functional</text>
</a>
</g>
</g>
<!-- Node7&#45;&gt;Node18 -->
<g id="edge18" class="edge">
<title>Node7&#45;&gt;Node18</title>
<path fill="none" stroke="#63b8ff" d="M717.28,-111.32C793.25,-100.37 932.94,-80.2 972.94,-74.04"/>
<polygon fill="#63b8ff" stroke="#63b8ff" points="973.54,-77.49 982.86,-72.45 972.43,-70.58 973.54,-77.49"/>
</g>
<!-- Node19 -->
<g id="node19" class="node">
<title>Node19</title>
<g id="a_node19"><a xlink:title=" ">
<polygon fill="#e0e0e0" stroke="#999999" points="1130.5,-74 1066.5,-74 1066.5,-55 1130.5,-55 1130.5,-74"/>
<text text-anchor="middle" x="1098.5" y="-62" font-family="Helvetica,sans-Serif" font-size="10.00">algorithm</text>
</a>
</g>
</g>
<!-- Node7&#45;&gt;Node19 -->
<g id="edge19" class="edge">
<title>Node7&#45;&gt;Node19</title>
<path fill="none" stroke="#63b8ff" d="M717.06,-111.23C720.25,-110.8 723.42,-110.39 726.5,-110 870.01,-91.86 909.56,-96.81 1056.05,-74.09"/>
<polygon fill="#63b8ff" stroke="#63b8ff" points="1056.99,-77.48 1066.32,-72.48 1055.9,-70.57 1056.99,-77.48"/>
</g>
<!-- Node20 -->
<g id="node20" class="node">
<title>Node20</title>
<g id="a_node20"><a xlink:title=" ">
<polygon fill="#e0e0e0" stroke="#999999" points="1194,-74 1149,-74 1149,-55 1194,-55 1194,-74"/>
<text text-anchor="middle" x="1171.5" y="-62" font-family="Helvetica,sans-Serif" font-size="10.00">utility</text>
</a>
</g>
</g>
<!-- Node7&#45;&gt;Node20 -->
<g id="edge20" class="edge">
<title>Node7&#45;&gt;Node20</title>
<path fill="none" stroke="#63b8ff" d="M717.05,-111.16C720.24,-110.75 723.42,-110.36 726.5,-110 906.32,-89.23 956.26,-105.19 1138.95,-73.76"/>
<polygon fill="#63b8ff" stroke="#63b8ff" points="1139.63,-77.19 1148.88,-72.03 1138.43,-70.3 1139.63,-77.19"/>
</g>
<!-- Node21 -->
<g id="node21" class="node">
<title>Node21</title>
<g id="a_node21"><a xlink:title=" ">
<polygon fill="#e0e0e0" stroke="#999999" points="1266.5,-74 1212.5,-74 1212.5,-55 1266.5,-55 1266.5,-74"/>
<text text-anchor="middle" x="1239.5" y="-62" font-family="Helvetica,sans-Serif" font-size="10.00">random</text>
</a>
</g>
</g>
<!-- Node7&#45;&gt;Node21 -->
<g id="edge21" class="edge">
<title>Node7&#45;&gt;Node21</title>
<path fill="none" stroke="#63b8ff" d="M717.04,-111.11C720.24,-110.71 723.41,-110.34 726.5,-110 934.53,-87.19 991.63,-105.92 1202.31,-73.93"/>
<polygon fill="#63b8ff" stroke="#63b8ff" points="1203.11,-77.34 1212.46,-72.36 1202.05,-70.43 1203.11,-77.34"/>
</g>
</g>
</svg>
