<?xml version="1.0" encoding="UTF-8" standalone="no"?>
<!DOCTYPE svg PUBLIC "-//W3C//DTD SVG 1.1//EN"
 "http://www.w3.org/Graphics/SVG/1.1/DTD/svg11.dtd">
<!-- Generated by graphviz version 2.43.0 (0)
 -->
<!-- Title: src/TextStyle.cpp Pages: 1 -->
<svg width="1686pt" height="252pt"
 viewBox="0.00 0.00 1685.50 252.00" xmlns="http://www.w3.org/2000/svg" xmlns:xlink="http://www.w3.org/1999/xlink">
<g id="graph0" class="graph" transform="scale(1 1) rotate(0) translate(4 248)">
<title>src/TextStyle.cpp</title>
<polygon fill="white" stroke="transparent" points="-4,4 -4,-248 1681.5,-248 1681.5,4 -4,4"/>
<!-- Node1 -->
<g id="node1" class="node">
<title>Node1</title>
<g id="a_node1"><a xlink:title="This file implements the text style system.">
<polygon fill="#bfbfbf" stroke="black" points="1214.5,-224.5 1214.5,-243.5 1313.5,-243.5 1313.5,-224.5 1214.5,-224.5"/>
<text text-anchor="middle" x="1264" y="-231.5" font-family="Helvetica,sans-Serif" font-size="10.00">src/TextStyle.cpp</text>
</a>
</g>
</g>
<!-- Node2 -->
<g id="node2" class="node">
<title>Node2</title>
<g id="a_node2"><a xlink:href="TextStyle_8h.html" target="_top" xlink:title="This file declares everything needed for the text style system used to style all the elements on the ...">
<polygon fill="white" stroke="black" points="698.5,-168.5 698.5,-187.5 769.5,-187.5 769.5,-168.5 698.5,-168.5"/>
<text text-anchor="middle" x="734" y="-175.5" font-family="Helvetica,sans-Serif" font-size="10.00">TextStyle.h</text>
</a>
</g>
</g>
<!-- Node1&#45;&gt;Node2 -->
<g id="edge1" class="edge">
<title>Node1&#45;&gt;Node2</title>
<path fill="none" stroke="midnightblue" d="M1214.14,-227.92C1111.6,-217.47 878.43,-193.72 779.62,-183.65"/>
<polygon fill="midnightblue" stroke="midnightblue" points="779.95,-180.16 769.64,-182.63 779.24,-187.13 779.95,-180.16"/>
</g>
<!-- Node22 -->
<g id="node22" class="node">
<title>Node22</title>
<g id="a_node22"><a xlink:title=" ">
<polygon fill="white" stroke="#bfbfbf" points="1058,-56.5 1058,-75.5 1090,-75.5 1090,-56.5 1058,-56.5"/>
<text text-anchor="middle" x="1074" y="-63.5" font-family="Helvetica,sans-Serif" font-size="10.00">list</text>
</a>
</g>
</g>
<!-- Node1&#45;&gt;Node22 -->
<g id="edge33" class="edge">
<title>Node1&#45;&gt;Node22</title>
<path fill="none" stroke="midnightblue" d="M1214.31,-226.04C1169.81,-218.76 1109.15,-205.88 1093,-188 1067.55,-159.82 1068.36,-112.08 1071.18,-85.78"/>
<polygon fill="midnightblue" stroke="midnightblue" points="1074.68,-86.01 1072.48,-75.64 1067.73,-85.11 1074.68,-86.01"/>
</g>
<!-- Node25 -->
<g id="node25" class="node">
<title>Node25</title>
<g id="a_node25"><a xlink:title=" ">
<polygon fill="white" stroke="#bfbfbf" points="1102,-168.5 1102,-187.5 1144,-187.5 1144,-168.5 1102,-168.5"/>
<text text-anchor="middle" x="1123" y="-175.5" font-family="Helvetica,sans-Serif" font-size="10.00">array</text>
</a>
</g>
</g>
<!-- Node1&#45;&gt;Node25 -->
<g id="edge32" class="edge">
<title>Node1&#45;&gt;Node25</title>
<path fill="none" stroke="midnightblue" d="M1241.66,-224.44C1217.97,-215.37 1180.39,-200.98 1153.88,-190.83"/>
<polygon fill="midnightblue" stroke="midnightblue" points="1154.9,-187.47 1144.31,-187.16 1152.4,-194.01 1154.9,-187.47"/>
</g>
<!-- Node26 -->
<g id="node26" class="node">
<title>Node26</title>
<g id="a_node26"><a xlink:title=" ">
<polygon fill="white" stroke="#bfbfbf" points="1162,-168.5 1162,-187.5 1222,-187.5 1222,-168.5 1162,-168.5"/>
<text text-anchor="middle" x="1192" y="-175.5" font-family="Helvetica,sans-Serif" font-size="10.00">iostream</text>
</a>
</g>
</g>
<!-- Node1&#45;&gt;Node26 -->
<g id="edge34" class="edge">
<title>Node1&#45;&gt;Node26</title>
<path fill="none" stroke="midnightblue" d="M1252.43,-224.32C1241.58,-216.18 1225.12,-203.84 1212.12,-194.09"/>
<polygon fill="midnightblue" stroke="midnightblue" points="1213.88,-191.03 1203.78,-187.83 1209.68,-196.63 1213.88,-191.03"/>
</g>
<!-- Node27 -->
<g id="node27" class="node">
<title>Node27</title>
<g id="a_node27"><a xlink:title=" ">
<polygon fill="white" stroke="#bfbfbf" points="1240.5,-168.5 1240.5,-187.5 1287.5,-187.5 1287.5,-168.5 1240.5,-168.5"/>
<text text-anchor="middle" x="1264" y="-175.5" font-family="Helvetica,sans-Serif" font-size="10.00">vector</text>
</a>
</g>
</g>
<!-- Node1&#45;&gt;Node27 -->
<g id="edge35" class="edge">
<title>Node1&#45;&gt;Node27</title>
<path fill="none" stroke="midnightblue" d="M1264,-224.08C1264,-217.01 1264,-206.86 1264,-197.99"/>
<polygon fill="midnightblue" stroke="midnightblue" points="1267.5,-197.75 1264,-187.75 1260.5,-197.75 1267.5,-197.75"/>
</g>
<!-- Node28 -->
<g id="node28" class="node">
<title>Node28</title>
<g id="a_node28"><a xlink:title=" ">
<polygon fill="white" stroke="#bfbfbf" points="1306,-168.5 1306,-187.5 1396,-187.5 1396,-168.5 1306,-168.5"/>
<text text-anchor="middle" x="1351" y="-175.5" font-family="Helvetica,sans-Serif" font-size="10.00">wx/fontenum.h</text>
</a>
</g>
</g>
<!-- Node1&#45;&gt;Node28 -->
<g id="edge36" class="edge">
<title>Node1&#45;&gt;Node28</title>
<path fill="none" stroke="midnightblue" d="M1277.98,-224.32C1291.55,-215.9 1312.38,-202.97 1328.32,-193.07"/>
<polygon fill="midnightblue" stroke="midnightblue" points="1330.41,-195.9 1337.06,-187.65 1326.71,-189.95 1330.41,-195.9"/>
</g>
<!-- Node29 -->
<g id="node29" class="node">
<title>Node29</title>
<g id="a_node29"><a xlink:title=" ">
<polygon fill="white" stroke="#bfbfbf" points="1414,-168.5 1414,-187.5 1472,-187.5 1472,-168.5 1414,-168.5"/>
<text text-anchor="middle" x="1443" y="-175.5" font-family="Helvetica,sans-Serif" font-size="10.00">wx/log.h</text>
</a>
</g>
</g>
<!-- Node1&#45;&gt;Node29 -->
<g id="edge37" class="edge">
<title>Node1&#45;&gt;Node29</title>
<path fill="none" stroke="midnightblue" d="M1292.36,-224.44C1322.74,-215.28 1371.11,-200.69 1404.82,-190.52"/>
<polygon fill="midnightblue" stroke="midnightblue" points="1406.21,-193.76 1414.77,-187.52 1404.18,-187.05 1406.21,-193.76"/>
</g>
<!-- Node30 -->
<g id="node30" class="node">
<title>Node30</title>
<g id="a_node30"><a xlink:title=" ">
<polygon fill="white" stroke="#bfbfbf" points="1490,-168.5 1490,-187.5 1564,-187.5 1564,-168.5 1490,-168.5"/>
<text text-anchor="middle" x="1527" y="-175.5" font-family="Helvetica,sans-Serif" font-size="10.00">wx/thread.h</text>
</a>
</g>
</g>
<!-- Node1&#45;&gt;Node30 -->
<g id="edge38" class="edge">
<title>Node1&#45;&gt;Node30</title>
<path fill="none" stroke="midnightblue" d="M1305.67,-224.44C1353.1,-214.71 1430.39,-198.84 1479.95,-188.66"/>
<polygon fill="midnightblue" stroke="midnightblue" points="1480.68,-192.08 1489.77,-186.64 1479.27,-185.23 1480.68,-192.08"/>
</g>
<!-- Node31 -->
<g id="node31" class="node">
<title>Node31</title>
<g id="a_node31"><a xlink:title=" ">
<polygon fill="white" stroke="#bfbfbf" points="1582.5,-168.5 1582.5,-187.5 1677.5,-187.5 1677.5,-168.5 1582.5,-168.5"/>
<text text-anchor="middle" x="1630" y="-175.5" font-family="Helvetica,sans-Serif" font-size="10.00">wx/translation.h</text>
</a>
</g>
</g>
<!-- Node1&#45;&gt;Node31 -->
<g id="edge39" class="edge">
<title>Node1&#45;&gt;Node31</title>
<path fill="none" stroke="midnightblue" d="M1313.53,-225.97C1372.55,-217.56 1474.43,-202.9 1572.35,-188.08"/>
<polygon fill="midnightblue" stroke="midnightblue" points="1573.06,-191.52 1582.42,-186.56 1572.01,-184.59 1573.06,-191.52"/>
</g>
<!-- Node3 -->
<g id="node3" class="node">
<title>Node3</title>
<g id="a_node3"><a xlink:href="precomp_8h_source.html" target="_top" xlink:title=" ">
<polygon fill="white" stroke="black" points="972,-56.5 972,-75.5 1040,-75.5 1040,-56.5 972,-56.5"/>
<text text-anchor="middle" x="1006" y="-63.5" font-family="Helvetica,sans-Serif" font-size="10.00">precomp.h</text>
</a>
</g>
</g>
<!-- Node2&#45;&gt;Node3 -->
<g id="edge2" class="edge">
<title>Node2&#45;&gt;Node3</title>
<path fill="none" stroke="midnightblue" d="M753.63,-168.38C773.85,-159.45 806.25,-145.01 834,-132 852.36,-123.39 856.27,-119.75 875,-112 905.93,-99.2 941.96,-87.01 968.4,-78.56"/>
<polygon fill="midnightblue" stroke="midnightblue" points="969.55,-81.86 978.03,-75.51 967.44,-75.19 969.55,-81.86"/>
</g>
<!-- Node5 -->
<g id="node5" class="node">
<title>Node5</title>
<g id="a_node5"><a xlink:title=" ">
<polygon fill="white" stroke="#bfbfbf" points="884,-112.5 884,-131.5 956,-131.5 956,-112.5 884,-112.5"/>
<text text-anchor="middle" x="920" y="-119.5" font-family="Helvetica,sans-Serif" font-size="10.00">wx/colour.h</text>
</a>
</g>
</g>
<!-- Node2&#45;&gt;Node5 -->
<g id="edge4" class="edge">
<title>Node2&#45;&gt;Node5</title>
<path fill="none" stroke="midnightblue" d="M763.47,-168.44C795.17,-159.24 845.73,-144.56 880.77,-134.39"/>
<polygon fill="midnightblue" stroke="midnightblue" points="882.04,-137.67 890.67,-131.52 880.09,-130.94 882.04,-137.67"/>
</g>
<!-- Node6 -->
<g id="node6" class="node">
<title>Node6</title>
<g id="a_node6"><a xlink:title=" ">
<polygon fill="white" stroke="#bfbfbf" points="974,-112.5 974,-131.5 1046,-131.5 1046,-112.5 974,-112.5"/>
<text text-anchor="middle" x="1010" y="-119.5" font-family="Helvetica,sans-Serif" font-size="10.00">wx/config.h</text>
</a>
</g>
</g>
<!-- Node2&#45;&gt;Node6 -->
<g id="edge5" class="edge">
<title>Node2&#45;&gt;Node6</title>
<path fill="none" stroke="midnightblue" d="M769.63,-170.12C813.06,-161.71 888.97,-146.98 963.61,-132.27"/>
<polygon fill="midnightblue" stroke="midnightblue" points="964.52,-135.66 973.65,-130.29 963.17,-128.79 964.52,-135.66"/>
</g>
<!-- Node7 -->
<g id="node7" class="node">
<title>Node7</title>
<g id="a_node7"><a xlink:title=" ">
<polygon fill="white" stroke="#bfbfbf" points="602,-56.5 602,-75.5 664,-75.5 664,-56.5 602,-56.5"/>
<text text-anchor="middle" x="633" y="-63.5" font-family="Helvetica,sans-Serif" font-size="10.00">wx/font.h</text>
</a>
</g>
</g>
<!-- Node2&#45;&gt;Node7 -->
<g id="edge6" class="edge">
<title>Node2&#45;&gt;Node7</title>
<path fill="none" stroke="midnightblue" d="M718.04,-168.48C704.11,-160.45 683.98,-147.38 670,-132 657.33,-118.06 647.14,-99.06 640.69,-85.2"/>
<polygon fill="midnightblue" stroke="midnightblue" points="643.76,-83.49 636.5,-75.77 637.36,-86.33 643.76,-83.49"/>
</g>
<!-- Node8 -->
<g id="node8" class="node">
<title>Node8</title>
<g id="a_node8"><a xlink:title=" ">
<polygon fill="white" stroke="#bfbfbf" points="250,-112.5 250,-131.5 332,-131.5 332,-112.5 250,-112.5"/>
<text text-anchor="middle" x="291" y="-119.5" font-family="Helvetica,sans-Serif" font-size="10.00">wx/settings.h</text>
</a>
</g>
</g>
<!-- Node2&#45;&gt;Node8 -->
<g id="edge7" class="edge">
<title>Node2&#45;&gt;Node8</title>
<path fill="none" stroke="midnightblue" d="M698.41,-173.7C631.01,-167.27 479.92,-152.08 342.46,-132.13"/>
<polygon fill="midnightblue" stroke="midnightblue" points="342.57,-128.61 332.17,-130.63 341.55,-135.54 342.57,-128.61"/>
</g>
<!-- Node9 -->
<g id="node9" class="node">
<title>Node9</title>
<g id="a_node9"><a xlink:title=" ">
<polygon fill="white" stroke="#bfbfbf" points="0,-56.5 0,-75.5 50,-75.5 50,-56.5 0,-56.5"/>
<text text-anchor="middle" x="25" y="-63.5" font-family="Helvetica,sans-Serif" font-size="10.00">cstdint</text>
</a>
</g>
</g>
<!-- Node2&#45;&gt;Node9 -->
<g id="edge8" class="edge">
<title>Node2&#45;&gt;Node9</title>
<path fill="none" stroke="midnightblue" d="M698.39,-176.2C616.76,-173.84 410.17,-164.83 241,-132 174.59,-119.11 99.44,-94.02 57.6,-79.06"/>
<polygon fill="midnightblue" stroke="midnightblue" points="58.54,-75.68 47.95,-75.58 56.17,-82.27 58.54,-75.68"/>
</g>
<!-- Node10 -->
<g id="node10" class="node">
<title>Node10</title>
<g id="a_node10"><a xlink:title=" ">
<polygon fill="white" stroke="#bfbfbf" points="468.5,-0.5 468.5,-19.5 533.5,-19.5 533.5,-0.5 468.5,-0.5"/>
<text text-anchor="middle" x="501" y="-7.5" font-family="Helvetica,sans-Serif" font-size="10.00">functional</text>
</a>
</g>
</g>
<!-- Node2&#45;&gt;Node10 -->
<g id="edge9" class="edge">
<title>Node2&#45;&gt;Node10</title>
<path fill="none" stroke="midnightblue" d="M716.21,-168.37C699.24,-159.88 673.2,-146.16 652,-132 625.09,-114.03 553.15,-54.57 519.21,-26.25"/>
<polygon fill="midnightblue" stroke="midnightblue" points="521.37,-23.49 511.45,-19.77 516.88,-28.86 521.37,-23.49"/>
</g>
<!-- Node11 -->
<g id="node11" class="node">
<title>Node11</title>
<g id="a_node11"><a xlink:href="FontAttribs_8h_source.html" target="_top" xlink:title=" ">
<polygon fill="white" stroke="black" points="350.5,-112.5 350.5,-131.5 429.5,-131.5 429.5,-112.5 350.5,-112.5"/>
<text text-anchor="middle" x="390" y="-119.5" font-family="Helvetica,sans-Serif" font-size="10.00">FontAttribs.h</text>
</a>
</g>
</g>
<!-- Node2&#45;&gt;Node11 -->
<g id="edge10" class="edge">
<title>Node2&#45;&gt;Node11</title>
<path fill="none" stroke="midnightblue" d="M698.48,-171.42C636.8,-161.74 509.76,-141.8 439.47,-130.77"/>
<polygon fill="midnightblue" stroke="midnightblue" points="439.95,-127.3 429.53,-129.21 438.87,-134.21 439.95,-127.3"/>
</g>
<!-- Node20 -->
<g id="node20" class="node">
<title>Node20</title>
<g id="a_node20"><a xlink:href="FontVariantCache_8h.html" target="_top" xlink:title="This file implements the wxFont cache system.">
<polygon fill="white" stroke="black" points="678.5,-112.5 678.5,-131.5 789.5,-131.5 789.5,-112.5 678.5,-112.5"/>
<text text-anchor="middle" x="734" y="-119.5" font-family="Helvetica,sans-Serif" font-size="10.00">FontVariantCache.h</text>
</a>
</g>
</g>
<!-- Node2&#45;&gt;Node20 -->
<g id="edge23" class="edge">
<title>Node2&#45;&gt;Node20</title>
<path fill="none" stroke="midnightblue" d="M734,-168.08C734,-161.01 734,-150.86 734,-141.99"/>
<polygon fill="midnightblue" stroke="midnightblue" points="737.5,-141.75 734,-131.75 730.5,-141.75 737.5,-141.75"/>
</g>
<!-- Node24 -->
<g id="node24" class="node">
<title>Node24</title>
<g id="a_node24"><a xlink:title=" ">
<polygon fill="white" stroke="#bfbfbf" points="860.5,-56.5 860.5,-75.5 953.5,-75.5 953.5,-56.5 860.5,-56.5"/>
<text text-anchor="middle" x="907" y="-63.5" font-family="Helvetica,sans-Serif" font-size="10.00">unordered_map</text>
</a>
</g>
</g>
<!-- Node2&#45;&gt;Node24 -->
<g id="edge31" class="edge">
<title>Node2&#45;&gt;Node24</title>
<path fill="none" stroke="midnightblue" d="M747.58,-168.37C777.26,-149.49 848.2,-104.38 884.61,-81.24"/>
<polygon fill="midnightblue" stroke="midnightblue" points="886.93,-83.91 893.49,-75.59 883.17,-78 886.93,-83.91"/>
</g>
<!-- Node4 -->
<g id="node4" class="node">
<title>Node4</title>
<g id="a_node4"><a xlink:href="Version_8h_source.html" target="_top" xlink:title=" ">
<polygon fill="white" stroke="black" points="975,-0.5 975,-19.5 1037,-19.5 1037,-0.5 975,-0.5"/>
<text text-anchor="middle" x="1006" y="-7.5" font-family="Helvetica,sans-Serif" font-size="10.00">Version.h</text>
</a>
</g>
</g>
<!-- Node3&#45;&gt;Node4 -->
<g id="edge3" class="edge">
<title>Node3&#45;&gt;Node4</title>
<path fill="none" stroke="midnightblue" d="M1006,-56.08C1006,-49.01 1006,-38.86 1006,-29.99"/>
<polygon fill="midnightblue" stroke="midnightblue" points="1009.5,-29.75 1006,-19.75 1002.5,-29.75 1009.5,-29.75"/>
</g>
<!-- Node11&#45;&gt;Node7 -->
<g id="edge17" class="edge">
<title>Node11&#45;&gt;Node7</title>
<path fill="none" stroke="midnightblue" d="M428.5,-112.44C473.05,-102.55 546.09,-86.31 591.76,-76.16"/>
<polygon fill="midnightblue" stroke="midnightblue" points="592.63,-79.56 601.63,-73.97 591.11,-72.72 592.63,-79.56"/>
</g>
<!-- Node11&#45;&gt;Node9 -->
<g id="edge20" class="edge">
<title>Node11&#45;&gt;Node9</title>
<path fill="none" stroke="midnightblue" d="M350.45,-113.54C347.26,-113 344.08,-112.48 341,-112 219.32,-93.07 184.75,-99.85 60.09,-75.99"/>
<polygon fill="midnightblue" stroke="midnightblue" points="60.65,-72.53 50.17,-74.06 59.31,-79.4 60.65,-72.53"/>
</g>
<!-- Node11&#45;&gt;Node10 -->
<g id="edge21" class="edge">
<title>Node11&#45;&gt;Node10</title>
<path fill="none" stroke="midnightblue" d="M383.92,-112.17C375.56,-98.81 362.86,-73.23 375,-56 393.71,-29.45 429.57,-18.48 458.27,-13.99"/>
<polygon fill="midnightblue" stroke="midnightblue" points="459.03,-17.42 468.47,-12.61 458.09,-10.48 459.03,-17.42"/>
</g>
<!-- Node12 -->
<g id="node12" class="node">
<title>Node12</title>
<g id="a_node12"><a xlink:href="EnumWrapper_8h_source.html" target="_top" xlink:title=" ">
<polygon fill="white" stroke="black" points="234,-56.5 234,-75.5 328,-75.5 328,-56.5 234,-56.5"/>
<text text-anchor="middle" x="281" y="-63.5" font-family="Helvetica,sans-Serif" font-size="10.00">EnumWrapper.h</text>
</a>
</g>
</g>
<!-- Node11&#45;&gt;Node12 -->
<g id="edge11" class="edge">
<title>Node11&#45;&gt;Node12</title>
<path fill="none" stroke="midnightblue" d="M372.49,-112.32C354.93,-103.62 327.67,-90.12 307.47,-80.11"/>
<polygon fill="midnightblue" stroke="midnightblue" points="308.98,-76.96 298.47,-75.65 305.88,-83.23 308.98,-76.96"/>
</g>
<!-- Node15 -->
<g id="node15" class="node">
<title>Node15</title>
<g id="a_node15"><a xlink:href="clamp_8hpp_source.html" target="_top" xlink:title=" ">
<polygon fill="white" stroke="black" points="130,-56.5 130,-75.5 216,-75.5 216,-56.5 130,-56.5"/>
<text text-anchor="middle" x="173" y="-63.5" font-family="Helvetica,sans-Serif" font-size="10.00">stx/clamp.hpp</text>
</a>
</g>
</g>
<!-- Node11&#45;&gt;Node15 -->
<g id="edge15" class="edge">
<title>Node11&#45;&gt;Node15</title>
<path fill="none" stroke="midnightblue" d="M355.62,-112.44C318.08,-103.1 257.87,-88.12 216.93,-77.93"/>
<polygon fill="midnightblue" stroke="midnightblue" points="217.77,-74.53 207.22,-75.52 216.08,-81.33 217.77,-74.53"/>
</g>
<!-- Node17 -->
<g id="node17" class="node">
<title>Node17</title>
<g id="a_node17"><a xlink:title=" ">
<polygon fill="white" stroke="#bfbfbf" points="384.5,-56.5 384.5,-75.5 463.5,-75.5 463.5,-56.5 384.5,-56.5"/>
<text text-anchor="middle" x="424" y="-63.5" font-family="Helvetica,sans-Serif" font-size="10.00">wx/version.h</text>
</a>
</g>
</g>
<!-- Node11&#45;&gt;Node17 -->
<g id="edge18" class="edge">
<title>Node11&#45;&gt;Node17</title>
<path fill="none" stroke="midnightblue" d="M395.61,-112.08C400.37,-104.53 407.32,-93.49 413.15,-84.23"/>
<polygon fill="midnightblue" stroke="midnightblue" points="416.12,-86.08 418.49,-75.75 410.2,-82.35 416.12,-86.08"/>
</g>
<!-- Node18 -->
<g id="node18" class="node">
<title>Node18</title>
<g id="a_node18"><a xlink:title=" ">
<polygon fill="white" stroke="#bfbfbf" points="482,-56.5 482,-75.5 546,-75.5 546,-56.5 482,-56.5"/>
<text text-anchor="middle" x="514" y="-63.5" font-family="Helvetica,sans-Serif" font-size="10.00">algorithm</text>
</a>
</g>
</g>
<!-- Node11&#45;&gt;Node18 -->
<g id="edge19" class="edge">
<title>Node11&#45;&gt;Node18</title>
<path fill="none" stroke="midnightblue" d="M409.65,-112.44C429.96,-103.6 461.9,-89.69 485.1,-79.59"/>
<polygon fill="midnightblue" stroke="midnightblue" points="486.67,-82.72 494.44,-75.52 483.88,-76.3 486.67,-82.72"/>
</g>
<!-- Node19 -->
<g id="node19" class="node">
<title>Node19</title>
<g id="a_node19"><a xlink:title=" ">
<polygon fill="white" stroke="#bfbfbf" points="68,-56.5 68,-75.5 112,-75.5 112,-56.5 68,-56.5"/>
<text text-anchor="middle" x="90" y="-63.5" font-family="Helvetica,sans-Serif" font-size="10.00">limits</text>
</a>
</g>
</g>
<!-- Node11&#45;&gt;Node19 -->
<g id="edge22" class="edge">
<title>Node11&#45;&gt;Node19</title>
<path fill="none" stroke="midnightblue" d="M350.43,-113.66C347.24,-113.09 344.07,-112.53 341,-112 246.53,-95.6 219.37,-97.69 122.21,-76.05"/>
<polygon fill="midnightblue" stroke="midnightblue" points="122.79,-72.6 112.27,-73.81 121.25,-79.43 122.79,-72.6"/>
</g>
<!-- Node12&#45;&gt;Node10 -->
<g id="edge13" class="edge">
<title>Node12&#45;&gt;Node10</title>
<path fill="none" stroke="midnightblue" d="M315.86,-56.44C354.59,-46.94 417.12,-31.59 458.64,-21.4"/>
<polygon fill="midnightblue" stroke="midnightblue" points="459.58,-24.77 468.46,-18.99 457.91,-17.97 459.58,-24.77"/>
</g>
<!-- Node13 -->
<g id="node13" class="node">
<title>Node13</title>
<g id="a_node13"><a xlink:title=" ">
<polygon fill="white" stroke="#bfbfbf" points="236.5,-0.5 236.5,-19.5 289.5,-19.5 289.5,-0.5 236.5,-0.5"/>
<text text-anchor="middle" x="263" y="-7.5" font-family="Helvetica,sans-Serif" font-size="10.00">cstddef</text>
</a>
</g>
</g>
<!-- Node12&#45;&gt;Node13 -->
<g id="edge12" class="edge">
<title>Node12&#45;&gt;Node13</title>
<path fill="none" stroke="midnightblue" d="M278.03,-56.08C275.62,-48.85 272.14,-38.41 269.13,-29.4"/>
<polygon fill="midnightblue" stroke="midnightblue" points="272.4,-28.13 265.92,-19.75 265.76,-30.34 272.4,-28.13"/>
</g>
<!-- Node14 -->
<g id="node14" class="node">
<title>Node14</title>
<g id="a_node14"><a xlink:title=" ">
<polygon fill="white" stroke="#bfbfbf" points="307.5,-0.5 307.5,-19.5 376.5,-19.5 376.5,-0.5 307.5,-0.5"/>
<text text-anchor="middle" x="342" y="-7.5" font-family="Helvetica,sans-Serif" font-size="10.00">type_traits</text>
</a>
</g>
</g>
<!-- Node12&#45;&gt;Node14 -->
<g id="edge14" class="edge">
<title>Node12&#45;&gt;Node14</title>
<path fill="none" stroke="midnightblue" d="M290.8,-56.32C299.82,-48.34 313.41,-36.31 324.32,-26.65"/>
<polygon fill="midnightblue" stroke="midnightblue" points="326.85,-29.08 332.02,-19.83 322.21,-23.84 326.85,-29.08"/>
</g>
<!-- Node16 -->
<g id="node16" class="node">
<title>Node16</title>
<g id="a_node16"><a xlink:title=" ">
<polygon fill="white" stroke="#bfbfbf" points="147,-0.5 147,-19.5 199,-19.5 199,-0.5 147,-0.5"/>
<text text-anchor="middle" x="173" y="-7.5" font-family="Helvetica,sans-Serif" font-size="10.00">cassert</text>
</a>
</g>
</g>
<!-- Node15&#45;&gt;Node16 -->
<g id="edge16" class="edge">
<title>Node15&#45;&gt;Node16</title>
<path fill="none" stroke="midnightblue" d="M173,-56.08C173,-49.01 173,-38.86 173,-29.99"/>
<polygon fill="midnightblue" stroke="midnightblue" points="176.5,-29.75 173,-19.75 169.5,-29.75 176.5,-29.75"/>
</g>
<!-- Node20&#45;&gt;Node3 -->
<g id="edge24" class="edge">
<title>Node20&#45;&gt;Node3</title>
<path fill="none" stroke="midnightblue" d="M778.36,-112.45C822.44,-103.92 892.25,-90.3 961.91,-76.2"/>
<polygon fill="midnightblue" stroke="midnightblue" points="962.64,-79.63 971.74,-74.21 961.24,-72.77 962.64,-79.63"/>
</g>
<!-- Node20&#45;&gt;Node7 -->
<g id="edge26" class="edge">
<title>Node20&#45;&gt;Node7</title>
<path fill="none" stroke="midnightblue" d="M717.77,-112.32C701.65,-103.7 676.7,-90.36 658.04,-80.39"/>
<polygon fill="midnightblue" stroke="midnightblue" points="659.66,-77.28 649.19,-75.65 656.36,-83.46 659.66,-77.28"/>
</g>
<!-- Node20&#45;&gt;Node10 -->
<g id="edge27" class="edge">
<title>Node20&#45;&gt;Node10</title>
<path fill="none" stroke="midnightblue" d="M728.36,-112.38C718.73,-98.36 697.74,-70.71 673,-56 633.04,-32.23 580.55,-20.86 544.12,-15.52"/>
<polygon fill="midnightblue" stroke="midnightblue" points="544.21,-12 533.83,-14.11 543.26,-18.93 544.21,-12"/>
</g>
<!-- Node21 -->
<g id="node21" class="node">
<title>Node21</title>
<g id="a_node21"><a xlink:title=" ">
<polygon fill="white" stroke="#bfbfbf" points="784,-56.5 784,-75.5 842,-75.5 842,-56.5 784,-56.5"/>
<text text-anchor="middle" x="813" y="-63.5" font-family="Helvetica,sans-Serif" font-size="10.00">memory</text>
</a>
</g>
</g>
<!-- Node20&#45;&gt;Node21 -->
<g id="edge25" class="edge">
<title>Node20&#45;&gt;Node21</title>
<path fill="none" stroke="midnightblue" d="M746.69,-112.32C758.9,-103.98 777.58,-91.21 792,-81.35"/>
<polygon fill="midnightblue" stroke="midnightblue" points="794.06,-84.19 800.34,-75.65 790.11,-78.41 794.06,-84.19"/>
</g>
<!-- Node20&#45;&gt;Node22 -->
<g id="edge28" class="edge">
<title>Node20&#45;&gt;Node22</title>
<path fill="none" stroke="midnightblue" d="M789.57,-116.51C850.91,-110.79 952.57,-99.04 1047.94,-75.82"/>
<polygon fill="midnightblue" stroke="midnightblue" points="1048.88,-79.2 1057.74,-73.39 1047.19,-72.4 1048.88,-79.2"/>
</g>
<!-- Node23 -->
<g id="node23" class="node">
<title>Node23</title>
<g id="a_node23"><a xlink:title=" ">
<polygon fill="white" stroke="#bfbfbf" points="720.5,-56.5 720.5,-75.5 765.5,-75.5 765.5,-56.5 720.5,-56.5"/>
<text text-anchor="middle" x="743" y="-63.5" font-family="Helvetica,sans-Serif" font-size="10.00">utility</text>
</a>
</g>
</g>
<!-- Node20&#45;&gt;Node23 -->
<g id="edge29" class="edge">
<title>Node20&#45;&gt;Node23</title>
<path fill="none" stroke="midnightblue" d="M735.49,-112.08C736.68,-104.93 738.39,-94.64 739.88,-85.69"/>
<polygon fill="midnightblue" stroke="midnightblue" points="743.35,-86.19 741.54,-75.75 736.45,-85.04 743.35,-86.19"/>
</g>
<!-- Node20&#45;&gt;Node24 -->
<g id="edge30" class="edge">
<title>Node20&#45;&gt;Node24</title>
<path fill="none" stroke="midnightblue" d="M761.41,-112.44C790.77,-103.28 837.52,-88.69 870.1,-78.52"/>
<polygon fill="midnightblue" stroke="midnightblue" points="871.21,-81.84 879.72,-75.52 869.13,-75.16 871.21,-81.84"/>
</g>
</g>
</svg>
