<?xml version="1.0" encoding="UTF-8" standalone="no"?>
<!DOCTYPE svg PUBLIC "-//W3C//DTD SVG 1.1//EN"
 "http://www.w3.org/Graphics/SVG/1.1/DTD/svg11.dtd">
<!-- Generated by graphviz version 2.43.0 (0)
 -->
<!-- Title: src/TextStyle.cpp Pages: 1 -->
<!--zoomable 252 -->
<svg id="main" version="1.1" xmlns="http://www.w3.org/2000/svg" xmlns:xlink="http://www.w3.org/1999/xlink" xml:space="preserve" onload="init(evt)">
<style type="text/css"><![CDATA[
.edge:hover path { stroke: red; }
.edge:hover polygon { stroke: red; fill: red; }
]]></style>
<script type="text/javascript"><![CDATA[
var edges = document.getElementsByTagName('g');
if (edges && edges.length) {
  for (var i=0;i<edges.length;i++) {
    if (edges[i].id.substr(0,4)=='edge') {
      edges[i].setAttribute('class','edge');
    }
  }
}
]]></script>
        <defs>
                <circle id="rim" cx="0" cy="0" r="7"/>
                <circle id="rim2" cx="0" cy="0" r="3.5"/>
                <g id="zoomPlus">
                        <use xlink:href="#rim" fill="#404040">
                                <set attributeName="fill" to="#808080" begin="zoomplus.mouseover" end="zoomplus.mouseout"/>
                        </use>
                        <path d="M-4,0h8M0,-4v8" fill="none" stroke="white" stroke-width="1.5" pointer-events="none"/>
                </g>
                <g id="zoomMin">
                        <use xlink:href="#rim" fill="#404040">
                                <set attributeName="fill" to="#808080" begin="zoomminus.mouseover" end="zoomminus.mouseout"/>
                        </use>
                        <path d="M-4,0h8" fill="none" stroke="white" stroke-width="1.5" pointer-events="none"/>
                </g>
                <g id="dirArrow">
                        <path fill="none" stroke="white" stroke-width="1.5" d="M0,-3.0v7 M-2.5,-0.5L0,-3.0L2.5,-0.5"/>
                </g>
               <g id="resetDef">
                       <use xlink:href="#rim2" fill="#404040">
                               <set attributeName="fill" to="#808080" begin="reset.mouseover" end="reset.mouseout"/>
                       </use>
               </g>
        </defs>

<script type="text/javascript">
var viewWidth = 1675;
var viewHeight = 252;
var sectionId = 'dynsection-0';
</script>
<script xlink:href="svgpan.js"/>
<svg id="graph" class="graph">
<g id="viewport">
<title>src/TextStyle.cpp</title>
<polygon fill="white" stroke="transparent" points="-4,4 -4,-248 1670.5,-248 1670.5,4 -4,4"/>
<!-- Node1 -->
<g id="node1" class="node">
<title>Node1</title>
<g id="a_node1"><a xlink:title="This file implements the text style system.">
<polygon fill="#bfbfbf" stroke="black" points="1203.5,-224.5 1203.5,-243.5 1302.5,-243.5 1302.5,-224.5 1203.5,-224.5"/>
<text text-anchor="middle" x="1253" y="-231.5" font-family="Helvetica,sans-Serif" font-size="10.00">src/TextStyle.cpp</text>
</a>
</g>
</g>
<!-- Node2 -->
<g id="node2" class="node">
<title>Node2</title>
<g id="a_node2"><a xlink:href="TextStyle_8h.html" target="_top" xlink:title="This file declares everything needed for the text style system used to style all the elements on the ...">
<polygon fill="white" stroke="black" points="656.5,-168.5 656.5,-187.5 727.5,-187.5 727.5,-168.5 656.5,-168.5"/>
<text text-anchor="middle" x="692" y="-175.5" font-family="Helvetica,sans-Serif" font-size="10.00">TextStyle.h</text>
</a>
</g>
</g>
<!-- Node1&#45;&gt;Node2 -->
<g id="edge1" class="edge">
<title>Node1&#45;&gt;Node2</title>
<path fill="none" stroke="midnightblue" d="M1203.21,-228.21C1095.49,-217.84 842.12,-193.45 737.95,-183.42"/>
<polygon fill="midnightblue" stroke="midnightblue" points="738.05,-179.92 727.76,-182.44 737.38,-186.88 738.05,-179.92"/>
</g>
<!-- Node22 -->
<g id="node22" class="node">
<title>Node22</title>
<g id="a_node22"><a xlink:title=" ">
<polygon fill="white" stroke="#bfbfbf" points="1058,-56.5 1058,-75.5 1090,-75.5 1090,-56.5 1058,-56.5"/>
<text text-anchor="middle" x="1074" y="-63.5" font-family="Helvetica,sans-Serif" font-size="10.00">list</text>
</a>
</g>
</g>
<!-- Node1&#45;&gt;Node22 -->
<g id="edge32" class="edge">
<title>Node1&#45;&gt;Node22</title>
<path fill="none" stroke="midnightblue" d="M1203.37,-226.42C1158.56,-219.38 1097.38,-206.65 1082,-188 1058.08,-159 1063.64,-111.58 1069.19,-85.55"/>
<polygon fill="midnightblue" stroke="midnightblue" points="1072.66,-86.07 1071.56,-75.53 1065.85,-84.46 1072.66,-86.07"/>
</g>
<!-- Node25 -->
<g id="node25" class="node">
<title>Node25</title>
<g id="a_node25"><a xlink:title=" ">
<polygon fill="white" stroke="#bfbfbf" points="1091,-168.5 1091,-187.5 1133,-187.5 1133,-168.5 1091,-168.5"/>
<text text-anchor="middle" x="1112" y="-175.5" font-family="Helvetica,sans-Serif" font-size="10.00">array</text>
</a>
</g>
</g>
<!-- Node1&#45;&gt;Node25 -->
<g id="edge31" class="edge">
<title>Node1&#45;&gt;Node25</title>
<path fill="none" stroke="midnightblue" d="M1230.66,-224.44C1206.97,-215.37 1169.39,-200.98 1142.88,-190.83"/>
<polygon fill="midnightblue" stroke="midnightblue" points="1143.9,-187.47 1133.31,-187.16 1141.4,-194.01 1143.9,-187.47"/>
</g>
<!-- Node26 -->
<g id="node26" class="node">
<title>Node26</title>
<g id="a_node26"><a xlink:title=" ">
<polygon fill="white" stroke="#bfbfbf" points="1151,-168.5 1151,-187.5 1211,-187.5 1211,-168.5 1151,-168.5"/>
<text text-anchor="middle" x="1181" y="-175.5" font-family="Helvetica,sans-Serif" font-size="10.00">iostream</text>
</a>
</g>
</g>
<!-- Node1&#45;&gt;Node26 -->
<g id="edge33" class="edge">
<title>Node1&#45;&gt;Node26</title>
<path fill="none" stroke="midnightblue" d="M1241.43,-224.32C1230.58,-216.18 1214.12,-203.84 1201.12,-194.09"/>
<polygon fill="midnightblue" stroke="midnightblue" points="1202.88,-191.03 1192.78,-187.83 1198.68,-196.63 1202.88,-191.03"/>
</g>
<!-- Node27 -->
<g id="node27" class="node">
<title>Node27</title>
<g id="a_node27"><a xlink:title=" ">
<polygon fill="white" stroke="#bfbfbf" points="1229.5,-168.5 1229.5,-187.5 1276.5,-187.5 1276.5,-168.5 1229.5,-168.5"/>
<text text-anchor="middle" x="1253" y="-175.5" font-family="Helvetica,sans-Serif" font-size="10.00">vector</text>
</a>
</g>
</g>
<!-- Node1&#45;&gt;Node27 -->
<g id="edge34" class="edge">
<title>Node1&#45;&gt;Node27</title>
<path fill="none" stroke="midnightblue" d="M1253,-224.08C1253,-217.01 1253,-206.86 1253,-197.99"/>
<polygon fill="midnightblue" stroke="midnightblue" points="1256.5,-197.75 1253,-187.75 1249.5,-197.75 1256.5,-197.75"/>
</g>
<!-- Node28 -->
<g id="node28" class="node">
<title>Node28</title>
<g id="a_node28"><a xlink:title=" ">
<polygon fill="white" stroke="#bfbfbf" points="1295,-168.5 1295,-187.5 1385,-187.5 1385,-168.5 1295,-168.5"/>
<text text-anchor="middle" x="1340" y="-175.5" font-family="Helvetica,sans-Serif" font-size="10.00">wx/fontenum.h</text>
</a>
</g>
</g>
<!-- Node1&#45;&gt;Node28 -->
<g id="edge35" class="edge">
<title>Node1&#45;&gt;Node28</title>
<path fill="none" stroke="midnightblue" d="M1266.98,-224.32C1280.55,-215.9 1301.38,-202.97 1317.32,-193.07"/>
<polygon fill="midnightblue" stroke="midnightblue" points="1319.41,-195.9 1326.06,-187.65 1315.71,-189.95 1319.41,-195.9"/>
</g>
<!-- Node29 -->
<g id="node29" class="node">
<title>Node29</title>
<g id="a_node29"><a xlink:title=" ">
<polygon fill="white" stroke="#bfbfbf" points="1403,-168.5 1403,-187.5 1461,-187.5 1461,-168.5 1403,-168.5"/>
<text text-anchor="middle" x="1432" y="-175.5" font-family="Helvetica,sans-Serif" font-size="10.00">wx/log.h</text>
</a>
</g>
</g>
<!-- Node1&#45;&gt;Node29 -->
<g id="edge36" class="edge">
<title>Node1&#45;&gt;Node29</title>
<path fill="none" stroke="midnightblue" d="M1281.36,-224.44C1311.74,-215.28 1360.11,-200.69 1393.82,-190.52"/>
<polygon fill="midnightblue" stroke="midnightblue" points="1395.21,-193.76 1403.77,-187.52 1393.18,-187.05 1395.21,-193.76"/>
</g>
<!-- Node30 -->
<g id="node30" class="node">
<title>Node30</title>
<g id="a_node30"><a xlink:title=" ">
<polygon fill="white" stroke="#bfbfbf" points="1479,-168.5 1479,-187.5 1553,-187.5 1553,-168.5 1479,-168.5"/>
<text text-anchor="middle" x="1516" y="-175.5" font-family="Helvetica,sans-Serif" font-size="10.00">wx/thread.h</text>
</a>
</g>
</g>
<!-- Node1&#45;&gt;Node30 -->
<g id="edge37" class="edge">
<title>Node1&#45;&gt;Node30</title>
<path fill="none" stroke="midnightblue" d="M1294.67,-224.44C1342.1,-214.71 1419.39,-198.84 1468.95,-188.66"/>
<polygon fill="midnightblue" stroke="midnightblue" points="1469.68,-192.08 1478.77,-186.64 1468.27,-185.23 1469.68,-192.08"/>
</g>
<!-- Node31 -->
<g id="node31" class="node">
<title>Node31</title>
<g id="a_node31"><a xlink:title=" ">
<polygon fill="white" stroke="#bfbfbf" points="1571.5,-168.5 1571.5,-187.5 1666.5,-187.5 1666.5,-168.5 1571.5,-168.5"/>
<text text-anchor="middle" x="1619" y="-175.5" font-family="Helvetica,sans-Serif" font-size="10.00">wx/translation.h</text>
</a>
</g>
</g>
<!-- Node1&#45;&gt;Node31 -->
<g id="edge38" class="edge">
<title>Node1&#45;&gt;Node31</title>
<path fill="none" stroke="midnightblue" d="M1302.53,-225.97C1361.55,-217.56 1463.43,-202.9 1561.35,-188.08"/>
<polygon fill="midnightblue" stroke="midnightblue" points="1562.06,-191.52 1571.42,-186.56 1561.01,-184.59 1562.06,-191.52"/>
</g>
<!-- Node3 -->
<g id="node3" class="node">
<title>Node3</title>
<g id="a_node3"><a xlink:href="precomp_8h_source.html" target="_top" xlink:title=" ">
<polygon fill="white" stroke="black" points="972,-56.5 972,-75.5 1040,-75.5 1040,-56.5 972,-56.5"/>
<text text-anchor="middle" x="1006" y="-63.5" font-family="Helvetica,sans-Serif" font-size="10.00">precomp.h</text>
</a>
</g>
</g>
<!-- Node2&#45;&gt;Node3 -->
<g id="edge2" class="edge">
<title>Node2&#45;&gt;Node3</title>
<path fill="none" stroke="midnightblue" d="M715,-168.47C737.82,-159.84 773.69,-145.83 804,-132 821.72,-123.92 824.85,-119.07 843,-112 882.29,-96.69 928.81,-84.39 962.07,-76.55"/>
<polygon fill="midnightblue" stroke="midnightblue" points="962.99,-79.93 971.95,-74.26 961.41,-73.11 962.99,-79.93"/>
</g>
<!-- Node5 -->
<g id="node5" class="node">
<title>Node5</title>
<g id="a_node5"><a xlink:title=" ">
<polygon fill="white" stroke="#bfbfbf" points="852,-112.5 852,-131.5 924,-131.5 924,-112.5 852,-112.5"/>
<text text-anchor="middle" x="888" y="-119.5" font-family="Helvetica,sans-Serif" font-size="10.00">wx/colour.h</text>
</a>
</g>
</g>
<!-- Node2&#45;&gt;Node5 -->
<g id="edge4" class="edge">
<title>Node2&#45;&gt;Node5</title>
<path fill="none" stroke="midnightblue" d="M723.06,-168.44C756.6,-159.2 810.2,-144.44 847.14,-134.26"/>
<polygon fill="midnightblue" stroke="midnightblue" points="848.38,-137.55 857.09,-131.52 846.52,-130.8 848.38,-137.55"/>
</g>
<!-- Node6 -->
<g id="node6" class="node">
<title>Node6</title>
<g id="a_node6"><a xlink:title=" ">
<polygon fill="white" stroke="#bfbfbf" points="942,-112.5 942,-131.5 1014,-131.5 1014,-112.5 942,-112.5"/>
<text text-anchor="middle" x="978" y="-119.5" font-family="Helvetica,sans-Serif" font-size="10.00">wx/config.h</text>
</a>
</g>
</g>
<!-- Node2&#45;&gt;Node6 -->
<g id="edge5" class="edge">
<title>Node2&#45;&gt;Node6</title>
<path fill="none" stroke="midnightblue" d="M727.55,-170.51C772.66,-162.24 853.13,-147.38 931.6,-132.25"/>
<polygon fill="midnightblue" stroke="midnightblue" points="932.5,-135.64 941.66,-130.31 931.18,-128.77 932.5,-135.64"/>
</g>
<!-- Node7 -->
<g id="node7" class="node">
<title>Node7</title>
<g id="a_node7"><a xlink:title=" ">
<polygon fill="white" stroke="#bfbfbf" points="602,-56.5 602,-75.5 664,-75.5 664,-56.5 602,-56.5"/>
<text text-anchor="middle" x="633" y="-63.5" font-family="Helvetica,sans-Serif" font-size="10.00">wx/font.h</text>
</a>
</g>
</g>
<!-- Node2&#45;&gt;Node7 -->
<g id="edge6" class="edge">
<title>Node2&#45;&gt;Node7</title>
<path fill="none" stroke="midnightblue" d="M687.37,-168.37C677.72,-150.38 655.29,-108.55 642.45,-84.63"/>
<polygon fill="midnightblue" stroke="midnightblue" points="645.42,-82.75 637.61,-75.59 639.25,-86.06 645.42,-82.75"/>
</g>
<!-- Node8 -->
<g id="node8" class="node">
<title>Node8</title>
<g id="a_node8"><a xlink:title=" ">
<polygon fill="white" stroke="#bfbfbf" points="250,-112.5 250,-131.5 332,-131.5 332,-112.5 250,-112.5"/>
<text text-anchor="middle" x="291" y="-119.5" font-family="Helvetica,sans-Serif" font-size="10.00">wx/settings.h</text>
</a>
</g>
</g>
<!-- Node2&#45;&gt;Node8 -->
<g id="edge7" class="edge">
<title>Node2&#45;&gt;Node8</title>
<path fill="none" stroke="midnightblue" d="M656.29,-173.03C594.49,-166.02 463.34,-150.57 342.35,-132.14"/>
<polygon fill="midnightblue" stroke="midnightblue" points="342.59,-128.64 332.17,-130.58 341.53,-135.56 342.59,-128.64"/>
</g>
<!-- Node9 -->
<g id="node9" class="node">
<title>Node9</title>
<g id="a_node9"><a xlink:title=" ">
<polygon fill="white" stroke="#bfbfbf" points="0,-56.5 0,-75.5 50,-75.5 50,-56.5 0,-56.5"/>
<text text-anchor="middle" x="25" y="-63.5" font-family="Helvetica,sans-Serif" font-size="10.00">cstdint</text>
</a>
</g>
</g>
<!-- Node2&#45;&gt;Node9 -->
<g id="edge8" class="edge">
<title>Node2&#45;&gt;Node9</title>
<path fill="none" stroke="midnightblue" d="M656.28,-175.77C579.57,-172.63 393.63,-162.28 241,-132 174.64,-118.83 99.48,-93.84 57.61,-78.97"/>
<polygon fill="midnightblue" stroke="midnightblue" points="58.56,-75.59 47.96,-75.51 56.2,-82.18 58.56,-75.59"/>
</g>
<!-- Node10 -->
<g id="node10" class="node">
<title>Node10</title>
<g id="a_node10"><a xlink:title=" ">
<polygon fill="white" stroke="#bfbfbf" points="468.5,-0.5 468.5,-19.5 533.5,-19.5 533.5,-0.5 468.5,-0.5"/>
<text text-anchor="middle" x="501" y="-7.5" font-family="Helvetica,sans-Serif" font-size="10.00">functional</text>
</a>
</g>
</g>
<!-- Node2&#45;&gt;Node10 -->
<g id="edge9" class="edge">
<title>Node2&#45;&gt;Node10</title>
<path fill="none" stroke="midnightblue" d="M682.45,-168.4C660.26,-148.44 603.41,-97.53 555,-56 543.16,-45.84 529.68,-34.61 519.15,-25.91"/>
<polygon fill="midnightblue" stroke="midnightblue" points="521.37,-23.2 511.43,-19.54 516.92,-28.6 521.37,-23.2"/>
</g>
<!-- Node11 -->
<g id="node11" class="node">
<title>Node11</title>
<g id="a_node11"><a xlink:href="FontAttribs_8h_source.html" target="_top" xlink:title=" ">
<polygon fill="white" stroke="black" points="350.5,-112.5 350.5,-131.5 429.5,-131.5 429.5,-112.5 350.5,-112.5"/>
<text text-anchor="middle" x="390" y="-119.5" font-family="Helvetica,sans-Serif" font-size="10.00">FontAttribs.h</text>
</a>
</g>
</g>
<!-- Node2&#45;&gt;Node11 -->
<g id="edge10" class="edge">
<title>Node2&#45;&gt;Node11</title>
<path fill="none" stroke="midnightblue" d="M656.47,-170.65C602.82,-161.05 500.93,-142.83 439.87,-131.92"/>
<polygon fill="midnightblue" stroke="midnightblue" points="440.16,-128.41 429.7,-130.1 438.92,-135.3 440.16,-128.41"/>
</g>
<!-- Node20 -->
<g id="node20" class="node">
<title>Node20</title>
<g id="a_node20"><a xlink:href="FontVariantCache_8h.html" target="_top" xlink:title="This file implements the wxFont cache system.">
<polygon fill="white" stroke="black" points="684.5,-112.5 684.5,-131.5 795.5,-131.5 795.5,-112.5 684.5,-112.5"/>
<text text-anchor="middle" x="740" y="-119.5" font-family="Helvetica,sans-Serif" font-size="10.00">FontVariantCache.h</text>
</a>
</g>
</g>
<!-- Node2&#45;&gt;Node20 -->
<g id="edge23" class="edge">
<title>Node2&#45;&gt;Node20</title>
<path fill="none" stroke="midnightblue" d="M699.93,-168.08C706.85,-160.3 717.07,-148.8 725.45,-139.37"/>
<polygon fill="midnightblue" stroke="midnightblue" points="728.19,-141.55 732.22,-131.75 722.96,-136.9 728.19,-141.55"/>
</g>
<!-- Node4 -->
<g id="node4" class="node">
<title>Node4</title>
<g id="a_node4"><a xlink:href="Version_8h_source.html" target="_top" xlink:title=" ">
<polygon fill="white" stroke="black" points="975,-0.5 975,-19.5 1037,-19.5 1037,-0.5 975,-0.5"/>
<text text-anchor="middle" x="1006" y="-7.5" font-family="Helvetica,sans-Serif" font-size="10.00">Version.h</text>
</a>
</g>
</g>
<!-- Node3&#45;&gt;Node4 -->
<g id="edge3" class="edge">
<title>Node3&#45;&gt;Node4</title>
<path fill="none" stroke="midnightblue" d="M1006,-56.08C1006,-49.01 1006,-38.86 1006,-29.99"/>
<polygon fill="midnightblue" stroke="midnightblue" points="1009.5,-29.75 1006,-19.75 1002.5,-29.75 1009.5,-29.75"/>
</g>
<!-- Node11&#45;&gt;Node7 -->
<g id="edge17" class="edge">
<title>Node11&#45;&gt;Node7</title>
<path fill="none" stroke="midnightblue" d="M428.5,-112.44C473.05,-102.55 546.09,-86.31 591.76,-76.16"/>
<polygon fill="midnightblue" stroke="midnightblue" points="592.63,-79.56 601.63,-73.97 591.11,-72.72 592.63,-79.56"/>
</g>
<!-- Node11&#45;&gt;Node9 -->
<g id="edge20" class="edge">
<title>Node11&#45;&gt;Node9</title>
<path fill="none" stroke="midnightblue" d="M350.45,-113.54C347.26,-113 344.08,-112.48 341,-112 219.32,-93.07 184.75,-99.85 60.09,-75.99"/>
<polygon fill="midnightblue" stroke="midnightblue" points="60.65,-72.53 50.17,-74.06 59.31,-79.4 60.65,-72.53"/>
</g>
<!-- Node11&#45;&gt;Node10 -->
<g id="edge21" class="edge">
<title>Node11&#45;&gt;Node10</title>
<path fill="none" stroke="midnightblue" d="M383.92,-112.17C375.56,-98.81 362.86,-73.23 375,-56 393.71,-29.45 429.57,-18.48 458.27,-13.99"/>
<polygon fill="midnightblue" stroke="midnightblue" points="459.03,-17.42 468.47,-12.61 458.09,-10.48 459.03,-17.42"/>
</g>
<!-- Node12 -->
<g id="node12" class="node">
<title>Node12</title>
<g id="a_node12"><a xlink:href="EnumWrapper_8h_source.html" target="_top" xlink:title=" ">
<polygon fill="white" stroke="black" points="234,-56.5 234,-75.5 328,-75.5 328,-56.5 234,-56.5"/>
<text text-anchor="middle" x="281" y="-63.5" font-family="Helvetica,sans-Serif" font-size="10.00">EnumWrapper.h</text>
</a>
</g>
</g>
<!-- Node11&#45;&gt;Node12 -->
<g id="edge11" class="edge">
<title>Node11&#45;&gt;Node12</title>
<path fill="none" stroke="midnightblue" d="M372.49,-112.32C354.93,-103.62 327.67,-90.12 307.47,-80.11"/>
<polygon fill="midnightblue" stroke="midnightblue" points="308.98,-76.96 298.47,-75.65 305.88,-83.23 308.98,-76.96"/>
</g>
<!-- Node15 -->
<g id="node15" class="node">
<title>Node15</title>
<g id="a_node15"><a xlink:href="clamp_8hpp_source.html" target="_top" xlink:title=" ">
<polygon fill="white" stroke="black" points="130,-56.5 130,-75.5 216,-75.5 216,-56.5 130,-56.5"/>
<text text-anchor="middle" x="173" y="-63.5" font-family="Helvetica,sans-Serif" font-size="10.00">stx/clamp.hpp</text>
</a>
</g>
</g>
<!-- Node11&#45;&gt;Node15 -->
<g id="edge15" class="edge">
<title>Node11&#45;&gt;Node15</title>
<path fill="none" stroke="midnightblue" d="M355.62,-112.44C318.08,-103.1 257.87,-88.12 216.93,-77.93"/>
<polygon fill="midnightblue" stroke="midnightblue" points="217.77,-74.53 207.22,-75.52 216.08,-81.33 217.77,-74.53"/>
</g>
<!-- Node17 -->
<g id="node17" class="node">
<title>Node17</title>
<g id="a_node17"><a xlink:title=" ">
<polygon fill="white" stroke="#bfbfbf" points="384.5,-56.5 384.5,-75.5 463.5,-75.5 463.5,-56.5 384.5,-56.5"/>
<text text-anchor="middle" x="424" y="-63.5" font-family="Helvetica,sans-Serif" font-size="10.00">wx/version.h</text>
</a>
</g>
</g>
<!-- Node11&#45;&gt;Node17 -->
<g id="edge18" class="edge">
<title>Node11&#45;&gt;Node17</title>
<path fill="none" stroke="midnightblue" d="M395.61,-112.08C400.37,-104.53 407.32,-93.49 413.15,-84.23"/>
<polygon fill="midnightblue" stroke="midnightblue" points="416.12,-86.08 418.49,-75.75 410.2,-82.35 416.12,-86.08"/>
</g>
<!-- Node18 -->
<g id="node18" class="node">
<title>Node18</title>
<g id="a_node18"><a xlink:title=" ">
<polygon fill="white" stroke="#bfbfbf" points="482,-56.5 482,-75.5 546,-75.5 546,-56.5 482,-56.5"/>
<text text-anchor="middle" x="514" y="-63.5" font-family="Helvetica,sans-Serif" font-size="10.00">algorithm</text>
</a>
</g>
</g>
<!-- Node11&#45;&gt;Node18 -->
<g id="edge19" class="edge">
<title>Node11&#45;&gt;Node18</title>
<path fill="none" stroke="midnightblue" d="M409.65,-112.44C429.96,-103.6 461.9,-89.69 485.1,-79.59"/>
<polygon fill="midnightblue" stroke="midnightblue" points="486.67,-82.72 494.44,-75.52 483.88,-76.3 486.67,-82.72"/>
</g>
<!-- Node19 -->
<g id="node19" class="node">
<title>Node19</title>
<g id="a_node19"><a xlink:title=" ">
<polygon fill="white" stroke="#bfbfbf" points="68,-56.5 68,-75.5 112,-75.5 112,-56.5 68,-56.5"/>
<text text-anchor="middle" x="90" y="-63.5" font-family="Helvetica,sans-Serif" font-size="10.00">limits</text>
</a>
</g>
</g>
<!-- Node11&#45;&gt;Node19 -->
<g id="edge22" class="edge">
<title>Node11&#45;&gt;Node19</title>
<path fill="none" stroke="midnightblue" d="M350.43,-113.66C347.24,-113.09 344.07,-112.53 341,-112 246.53,-95.6 219.37,-97.69 122.21,-76.05"/>
<polygon fill="midnightblue" stroke="midnightblue" points="122.79,-72.6 112.27,-73.81 121.25,-79.43 122.79,-72.6"/>
</g>
<!-- Node12&#45;&gt;Node10 -->
<g id="edge13" class="edge">
<title>Node12&#45;&gt;Node10</title>
<path fill="none" stroke="midnightblue" d="M315.86,-56.44C354.59,-46.94 417.12,-31.59 458.64,-21.4"/>
<polygon fill="midnightblue" stroke="midnightblue" points="459.58,-24.77 468.46,-18.99 457.91,-17.97 459.58,-24.77"/>
</g>
<!-- Node13 -->
<g id="node13" class="node">
<title>Node13</title>
<g id="a_node13"><a xlink:title=" ">
<polygon fill="white" stroke="#bfbfbf" points="236.5,-0.5 236.5,-19.5 289.5,-19.5 289.5,-0.5 236.5,-0.5"/>
<text text-anchor="middle" x="263" y="-7.5" font-family="Helvetica,sans-Serif" font-size="10.00">cstddef</text>
</a>
</g>
</g>
<!-- Node12&#45;&gt;Node13 -->
<g id="edge12" class="edge">
<title>Node12&#45;&gt;Node13</title>
<path fill="none" stroke="midnightblue" d="M278.03,-56.08C275.62,-48.85 272.14,-38.41 269.13,-29.4"/>
<polygon fill="midnightblue" stroke="midnightblue" points="272.4,-28.13 265.92,-19.75 265.76,-30.34 272.4,-28.13"/>
</g>
<!-- Node14 -->
<g id="node14" class="node">
<title>Node14</title>
<g id="a_node14"><a xlink:title=" ">
<polygon fill="white" stroke="#bfbfbf" points="307.5,-0.5 307.5,-19.5 376.5,-19.5 376.5,-0.5 307.5,-0.5"/>
<text text-anchor="middle" x="342" y="-7.5" font-family="Helvetica,sans-Serif" font-size="10.00">type_traits</text>
</a>
</g>
</g>
<!-- Node12&#45;&gt;Node14 -->
<g id="edge14" class="edge">
<title>Node12&#45;&gt;Node14</title>
<path fill="none" stroke="midnightblue" d="M290.8,-56.32C299.82,-48.34 313.41,-36.31 324.32,-26.65"/>
<polygon fill="midnightblue" stroke="midnightblue" points="326.85,-29.08 332.02,-19.83 322.21,-23.84 326.85,-29.08"/>
</g>
<!-- Node16 -->
<g id="node16" class="node">
<title>Node16</title>
<g id="a_node16"><a xlink:title=" ">
<polygon fill="white" stroke="#bfbfbf" points="147,-0.5 147,-19.5 199,-19.5 199,-0.5 147,-0.5"/>
<text text-anchor="middle" x="173" y="-7.5" font-family="Helvetica,sans-Serif" font-size="10.00">cassert</text>
</a>
</g>
</g>
<!-- Node15&#45;&gt;Node16 -->
<g id="edge16" class="edge">
<title>Node15&#45;&gt;Node16</title>
<path fill="none" stroke="midnightblue" d="M173,-56.08C173,-49.01 173,-38.86 173,-29.99"/>
<polygon fill="midnightblue" stroke="midnightblue" points="176.5,-29.75 173,-19.75 169.5,-29.75 176.5,-29.75"/>
</g>
<!-- Node20&#45;&gt;Node3 -->
<g id="edge24" class="edge">
<title>Node20&#45;&gt;Node3</title>
<path fill="none" stroke="midnightblue" d="M782.15,-112.48C826.81,-103.45 899.38,-88.75 962,-76 962.1,-75.98 962.2,-75.96 962.3,-75.94"/>
<polygon fill="midnightblue" stroke="midnightblue" points="962.79,-79.41 971.89,-73.98 961.39,-72.55 962.79,-79.41"/>
</g>
<!-- Node20&#45;&gt;Node7 -->
<g id="edge26" class="edge">
<title>Node20&#45;&gt;Node7</title>
<path fill="none" stroke="midnightblue" d="M722.81,-112.32C705.65,-103.66 679.05,-90.24 659.25,-80.25"/>
<polygon fill="midnightblue" stroke="midnightblue" points="660.65,-77.04 650.15,-75.65 657.5,-83.28 660.65,-77.04"/>
</g>
<!-- Node20&#45;&gt;Node10 -->
<g id="edge27" class="edge">
<title>Node20&#45;&gt;Node10</title>
<path fill="none" stroke="midnightblue" d="M753.24,-112.36C771.39,-99.49 800.01,-74.76 784,-56 753.6,-20.39 614.89,-12.82 543.59,-11.3"/>
<polygon fill="midnightblue" stroke="midnightblue" points="543.65,-7.8 533.58,-11.12 543.52,-14.8 543.65,-7.8"/>
</g>
<!-- Node21 -->
<g id="node21" class="node">
<title>Node21</title>
<g id="a_node21"><a xlink:title=" ">
<polygon fill="white" stroke="#bfbfbf" points="832,-56.5 832,-75.5 890,-75.5 890,-56.5 832,-56.5"/>
<text text-anchor="middle" x="861" y="-63.5" font-family="Helvetica,sans-Serif" font-size="10.00">memory</text>
</a>
</g>
</g>
<!-- Node20&#45;&gt;Node21 -->
<g id="edge25" class="edge">
<title>Node20&#45;&gt;Node21</title>
<path fill="none" stroke="midnightblue" d="M759.17,-112.44C778.91,-103.64 809.89,-89.81 832.49,-79.72"/>
<polygon fill="midnightblue" stroke="midnightblue" points="834.21,-82.79 841.92,-75.52 831.36,-76.4 834.21,-82.79"/>
</g>
<!-- Node20&#45;&gt;Node22 -->
<g id="edge28" class="edge">
<title>Node20&#45;&gt;Node22</title>
<path fill="none" stroke="midnightblue" d="M795.63,-116.29C855.87,-110.44 954.78,-98.65 1047.88,-75.85"/>
<polygon fill="midnightblue" stroke="midnightblue" points="1048.89,-79.2 1057.74,-73.38 1047.19,-72.41 1048.89,-79.2"/>
</g>
<!-- Node23 -->
<g id="node23" class="node">
<title>Node23</title>
<g id="a_node23"><a xlink:title=" ">
<polygon fill="white" stroke="#bfbfbf" points="908.5,-56.5 908.5,-75.5 953.5,-75.5 953.5,-56.5 908.5,-56.5"/>
<text text-anchor="middle" x="931" y="-63.5" font-family="Helvetica,sans-Serif" font-size="10.00">utility</text>
</a>
</g>
</g>
<!-- Node20&#45;&gt;Node23 -->
<g id="edge29" class="edge">
<title>Node20&#45;&gt;Node23</title>
<path fill="none" stroke="midnightblue" d="M770.26,-112.44C805.21,-102.56 862.48,-86.37 898.39,-76.22"/>
<polygon fill="midnightblue" stroke="midnightblue" points="899.68,-79.49 908.35,-73.4 897.78,-72.76 899.68,-79.49"/>
</g>
<!-- Node24 -->
<g id="node24" class="node">
<title>Node24</title>
<g id="a_node24"><a xlink:title=" ">
<polygon fill="white" stroke="#bfbfbf" points="682.5,-56.5 682.5,-75.5 775.5,-75.5 775.5,-56.5 682.5,-56.5"/>
<text text-anchor="middle" x="729" y="-63.5" font-family="Helvetica,sans-Serif" font-size="10.00">unordered_map</text>
</a>
</g>
</g>
<!-- Node20&#45;&gt;Node24 -->
<g id="edge30" class="edge">
<title>Node20&#45;&gt;Node24</title>
<path fill="none" stroke="midnightblue" d="M738.18,-112.08C736.73,-104.93 734.63,-94.64 732.81,-85.69"/>
<polygon fill="midnightblue" stroke="midnightblue" points="736.21,-84.85 730.78,-75.75 729.35,-86.25 736.21,-84.85"/>
</g>
</g>
</svg>
        <g id="navigator" transform="translate(0 0)" fill="#404254">
                <rect fill="#f2f5e9" fill-opacity="0.5" stroke="#606060" stroke-width=".5" x="0" y="0" width="60" height="60"/>
                <use id="zoomplus" xlink:href="#zoomPlus" x="17" y="9" onmousedown="handleZoom(evt,'in')"/>
                <use id="zoomminus" xlink:href="#zoomMin" x="42" y="9" onmousedown="handleZoom(evt,'out')"/>
                <use id="reset" xlink:href="#resetDef" x="30" y="36" onmousedown="handleReset()"/>
                <g id="arrowUp" xlink:href="#dirArrow" transform="translate(30 24)" onmousedown="handlePan(0,-1)">
                  <use xlink:href="#rim" fill="#404040">
                        <set attributeName="fill" to="#808080" begin="arrowUp.mouseover" end="arrowUp.mouseout"/>
                  </use>
                  <path fill="none" stroke="white" stroke-width="1.5" d="M0,-3.0v7 M-2.5,-0.5L0,-3.0L2.5,-0.5"/>
                </g>
                <g id="arrowRight" xlink:href="#dirArrow" transform="rotate(90) translate(36 -43)" onmousedown="handlePan(1,0)">
                  <use xlink:href="#rim" fill="#404040">
                        <set attributeName="fill" to="#808080" begin="arrowRight.mouseover" end="arrowRight.mouseout"/>
                  </use>
                  <path fill="none" stroke="white" stroke-width="1.5" d="M0,-3.0v7 M-2.5,-0.5L0,-3.0L2.5,-0.5"/>
                </g>
                <g id="arrowDown" xlink:href="#dirArrow" transform="rotate(180) translate(-30 -48)" onmousedown="handlePan(0,1)">
                  <use xlink:href="#rim" fill="#404040">
                        <set attributeName="fill" to="#808080" begin="arrowDown.mouseover" end="arrowDown.mouseout"/>
                  </use>
                  <path fill="none" stroke="white" stroke-width="1.5" d="M0,-3.0v7 M-2.5,-0.5L0,-3.0L2.5,-0.5"/>
                </g>
                <g id="arrowLeft" xlink:href="#dirArrow" transform="rotate(270) translate(-36 17)" onmousedown="handlePan(-1,0)">
                  <use xlink:href="#rim" fill="#404040">
                        <set attributeName="fill" to="#808080" begin="arrowLeft.mouseover" end="arrowLeft.mouseout"/>
                  </use>
                  <path fill="none" stroke="white" stroke-width="1.5" d="M0,-3.0v7 M-2.5,-0.5L0,-3.0L2.5,-0.5"/>
                </g>
        </g>
        <svg viewBox="0 0 15 15" width="100%" height="30px" preserveAspectRatio="xMaxYMin meet">
         <g id="arrow_out" transform="scale(0.3 0.3)">
          <a xlink:href="TextStyle_8cpp__incl_org.svg" target="_base">
           <rect id="button" ry="5" rx="5" y="6" x="6" height="38" width="38"
                fill="#f2f5e9" fill-opacity="0.5" stroke="#606060" stroke-width="1.0"/>
           <path id="arrow"
             d="M 11.500037,31.436501 C 11.940474,20.09759 22.043105,11.32322 32.158766,21.979434 L 37.068811,17.246167 C 37.068811,17.246167 37.088388,32 37.088388,32 L 22.160133,31.978069 C 22.160133,31.978069 26.997745,27.140456 26.997745,27.140456 C 18.528582,18.264221 13.291696,25.230495 11.500037,31.436501 z"
             style="fill:#404040;"/>
          </a>
         </g>
        </svg>
</svg>
