<?xml version="1.0" encoding="UTF-8" standalone="no"?>
<!DOCTYPE svg PUBLIC "-//W3C//DTD SVG 1.1//EN"
 "http://www.w3.org/Graphics/SVG/1.1/DTD/svg11.dtd">
<!-- Generated by graphviz version 2.43.0 (0)
 -->
<!-- Title: src/ToolBar.h Pages: 1 -->
<!--zoomable 313 -->
<svg id="main" version="1.1" xmlns="http://www.w3.org/2000/svg" xmlns:xlink="http://www.w3.org/1999/xlink" xml:space="preserve" onload="init(evt)">
<style type="text/css"><![CDATA[
.edge:hover path { stroke: red; }
.edge:hover polygon { stroke: red; fill: red; }
]]></style>
<script type="text/javascript"><![CDATA[
var edges = document.getElementsByTagName('g');
if (edges && edges.length) {
  for (var i=0;i<edges.length;i++) {
    if (edges[i].id.substr(0,4)=='edge') {
      edges[i].setAttribute('class','edge');
    }
  }
}
]]></script>
        <defs>
                <circle id="rim" cx="0" cy="0" r="7"/>
                <circle id="rim2" cx="0" cy="0" r="3.5"/>
                <g id="zoomPlus">
                        <use xlink:href="#rim" fill="#404040">
                                <set attributeName="fill" to="#808080" begin="zoomplus.mouseover" end="zoomplus.mouseout"/>
                        </use>
                        <path d="M-4,0h8M0,-4v8" fill="none" stroke="white" stroke-width="1.5" pointer-events="none"/>
                </g>
                <g id="zoomMin">
                        <use xlink:href="#rim" fill="#404040">
                                <set attributeName="fill" to="#808080" begin="zoomminus.mouseover" end="zoomminus.mouseout"/>
                        </use>
                        <path d="M-4,0h8" fill="none" stroke="white" stroke-width="1.5" pointer-events="none"/>
                </g>
                <g id="dirArrow">
                        <path fill="none" stroke="white" stroke-width="1.5" d="M0,-3.0v7 M-2.5,-0.5L0,-3.0L2.5,-0.5"/>
                </g>
               <g id="resetDef">
                       <use xlink:href="#rim2" fill="#404040">
                               <set attributeName="fill" to="#808080" begin="reset.mouseover" end="reset.mouseout"/>
                       </use>
               </g>
        </defs>

<script type="text/javascript">
var viewWidth = 2368;
var viewHeight = 313;
var sectionId = 'dynsection-1';
</script>
<script xlink:href="svgpan.js"/>
<svg id="graph" class="graph">
<g id="viewport">
<title>src/ToolBar.h</title>
<!-- Node1 -->
<g id="node1" class="node">
<title>Node1</title>
<g id="a_node1"><a xlink:title="This file declares the class ToolBar that represents wxMaxima&#39;s main tool bar.">
<polygon fill="#999999" stroke="#666666" points="549,-305 471,-305 471,-286 549,-286 549,-305"/>
<text text-anchor="middle" x="510" y="-293" font-family="Helvetica,sans-Serif" font-size="10.00">src/ToolBar.h</text>
</a>
</g>
</g>
<!-- Node2 -->
<g id="node2" class="node">
<title>Node2</title>
<g id="a_node2"><a xlink:href="ToolBar_8cpp.html" target="_top" xlink:title="This file defines the class ToolBar that represents wxMaxima&#39;s main tool bar.">
<polygon fill="white" stroke="#666666" points="481.5,-250 392.5,-250 392.5,-231 481.5,-231 481.5,-250"/>
<text text-anchor="middle" x="437" y="-238" font-family="Helvetica,sans-Serif" font-size="10.00">src/ToolBar.cpp</text>
</a>
</g>
</g>
<!-- Node1&#45;&gt;Node2 -->
<g id="edge1" class="edge">
<title>Node1&#45;&gt;Node2</title>
<path fill="none" stroke="#63b8ff" d="M489.86,-279.88C476.72,-270.34 460.02,-258.21 448.94,-250.17"/>
<polygon fill="#63b8ff" stroke="#63b8ff" points="488.12,-282.94 498.27,-285.98 492.24,-277.28 488.12,-282.94"/>
</g>
<!-- Node3 -->
<g id="node3" class="node">
<title>Node3</title>
<g id="a_node3"><a xlink:href="Worksheet_8h.html" target="_top" xlink:title="This file defines the class Worksheet.">
<polygon fill="white" stroke="#666666" points="1090.5,-250 995.5,-250 995.5,-231 1090.5,-231 1090.5,-250"/>
<text text-anchor="middle" x="1043" y="-238" font-family="Helvetica,sans-Serif" font-size="10.00">src/Worksheet.h</text>
</a>
</g>
</g>
<!-- Node1&#45;&gt;Node3 -->
<g id="edge2" class="edge">
<title>Node1&#45;&gt;Node3</title>
<path fill="none" stroke="#63b8ff" d="M559.23,-289.6C661.32,-279.45 894.88,-256.23 995.47,-246.23"/>
<polygon fill="#63b8ff" stroke="#63b8ff" points="558.8,-286.13 549.19,-290.6 559.49,-293.1 558.8,-286.13"/>
</g>
<!-- Node20 -->
<g id="node20" class="node">
<title>Node20</title>
<g id="a_node20"><a xlink:href="test__Accessibility_8cpp.html" target="_top" xlink:title="Logic&#45;level regression tests for wxMaxima&#39;s custom wxAccessible classes.">
<polygon fill="white" stroke="#666666" points="108,-195 0,-195 0,-165 108,-165 108,-195"/>
<text text-anchor="start" x="8" y="-183" font-family="Helvetica,sans-Serif" font-size="10.00">test/unit_tests/test</text>
<text text-anchor="middle" x="54" y="-172" font-family="Helvetica,sans-Serif" font-size="10.00">_Accessibility.cpp</text>
</a>
</g>
</g>
<!-- Node1&#45;&gt;Node20 -->
<g id="edge42" class="edge">
<title>Node1&#45;&gt;Node20</title>
<path fill="none" stroke="#63b8ff" d="M509.7,-275.54C508.37,-261.03 504.04,-241.73 491,-231 427.39,-178.64 203.46,-207.32 122,-195 117.47,-194.31 112.79,-193.52 108.1,-192.68"/>
<polygon fill="#63b8ff" stroke="#63b8ff" points="506.22,-276.09 510.22,-285.9 513.21,-275.74 506.22,-276.09"/>
</g>
<!-- Node4 -->
<g id="node4" class="node">
<title>Node4</title>
<g id="a_node4"><a xlink:href="Worksheet_8cpp.html" target="_top" xlink:title="This file defines the class Worksheet.">
<polygon fill="white" stroke="#666666" points="894,-74 788,-74 788,-55 894,-55 894,-74"/>
<text text-anchor="middle" x="841" y="-62" font-family="Helvetica,sans-Serif" font-size="10.00">src/Worksheet.cpp</text>
</a>
</g>
</g>
<!-- Node3&#45;&gt;Node4 -->
<g id="edge3" class="edge">
<title>Node3&#45;&gt;Node4</title>
<path fill="none" stroke="#63b8ff" d="M1100.59,-239.35C1321.58,-238.5 2104.7,-232.8 2141,-195 2150.24,-185.38 2150.06,-174.78 2141,-165 2055.05,-72.22 1128.3,-65.6 894.38,-65.42"/>
<polygon fill="#63b8ff" stroke="#63b8ff" points="1100.49,-235.85 1090.5,-239.39 1100.51,-242.85 1100.49,-235.85"/>
</g>
<!-- Node5 -->
<g id="node5" class="node">
<title>Node5</title>
<g id="a_node5"><a xlink:href="WorksheetContextMenu_8cpp.html" target="_top" xlink:title="The worksheet&#39;s right&#45;click context menu (see WorksheetContextMenu.h).">
<polygon fill="white" stroke="#666666" points="2359.5,-189.5 2188.5,-189.5 2188.5,-170.5 2359.5,-170.5 2359.5,-189.5"/>
<text text-anchor="middle" x="2274" y="-177.5" font-family="Helvetica,sans-Serif" font-size="10.00">src/WorksheetContextMenu.cpp</text>
</a>
</g>
</g>
<!-- Node3&#45;&gt;Node5 -->
<g id="edge4" class="edge">
<title>Node3&#45;&gt;Node5</title>
<path fill="none" stroke="#63b8ff" d="M1100.54,-239.26C1267.07,-238.13 1763.74,-231.7 2174,-195 2189.1,-193.65 2205.42,-191.61 2220.4,-189.51"/>
<polygon fill="#63b8ff" stroke="#63b8ff" points="1100.49,-235.76 1090.52,-239.32 1100.54,-242.76 1100.49,-235.76"/>
</g>
<!-- Node6 -->
<g id="node6" class="node">
<title>Node6</title>
<g id="a_node6"><a xlink:href="ConfigDialogue_8h.html" target="_top" xlink:title="The configuration dialog.">
<polygon fill="white" stroke="#666666" points="162.5,-74 7.5,-74 7.5,-55 162.5,-55 162.5,-74"/>
<text text-anchor="middle" x="85" y="-62" font-family="Helvetica,sans-Serif" font-size="10.00">src/dialogs/ConfigDialogue.h</text>
</a>
</g>
</g>
<!-- Node3&#45;&gt;Node6 -->
<g id="edge5" class="edge">
<title>Node3&#45;&gt;Node6</title>
<path fill="none" stroke="#63b8ff" d="M985.28,-238.88C807.83,-236.65 278.08,-227.32 208,-195 149.15,-167.86 104.41,-98.72 89.96,-74.25"/>
<polygon fill="#63b8ff" stroke="#63b8ff" points="985.42,-242.39 995.46,-239.01 985.5,-235.39 985.42,-242.39"/>
</g>
<!-- Node9 -->
<g id="node9" class="node">
<title>Node9</title>
<g id="a_node9"><a xlink:href="DiffFrame_8h_source.html" target="_top" xlink:title=" ">
<polygon fill="white" stroke="#666666" points="293.5,-129 164.5,-129 164.5,-110 293.5,-110 293.5,-129"/>
<text text-anchor="middle" x="229" y="-117" font-family="Helvetica,sans-Serif" font-size="10.00">src/dialogs/DiffFrame.h</text>
</a>
</g>
</g>
<!-- Node3&#45;&gt;Node9 -->
<g id="edge8" class="edge">
<title>Node3&#45;&gt;Node9</title>
<path fill="none" stroke="#63b8ff" d="M984.99,-238.52C801.97,-235.16 247.24,-222.7 221,-195 204,-177.06 216.64,-144.71 224.29,-129.22"/>
<polygon fill="#63b8ff" stroke="#63b8ff" points="985.16,-242.03 995.22,-238.71 985.29,-235.03 985.16,-242.03"/>
</g>
<!-- Node11 -->
<g id="node11" class="node">
<title>Node11</title>
<g id="a_node11"><a xlink:href="Printout_8cpp.html" target="_top" xlink:title="This file defines the class MathPrintOut.">
<polygon fill="white" stroke="#666666" points="384.5,-189.5 229.5,-189.5 229.5,-170.5 384.5,-170.5 384.5,-189.5"/>
<text text-anchor="middle" x="307" y="-177.5" font-family="Helvetica,sans-Serif" font-size="10.00">src/graphical_io/Printout.cpp</text>
</a>
</g>
</g>
<!-- Node3&#45;&gt;Node11 -->
<g id="edge12" class="edge">
<title>Node3&#45;&gt;Node11</title>
<path fill="none" stroke="#63b8ff" d="M985.02,-237.3C871.35,-232.59 611.34,-219.89 394,-195 381.38,-193.56 367.8,-191.58 355.21,-189.56"/>
<polygon fill="#63b8ff" stroke="#63b8ff" points="985.1,-240.8 995.23,-237.72 985.38,-233.81 985.1,-240.8"/>
</g>
<!-- Node12 -->
<g id="node12" class="node">
<title>Node12</title>
<g id="a_node12"><a xlink:href="wxMaximaFrame_8h.html" target="_top" xlink:title="This file declares the class wxMaximaFrame.">
<polygon fill="white" stroke="#666666" points="531,-189.5 403,-189.5 403,-170.5 531,-170.5 531,-189.5"/>
<text text-anchor="middle" x="467" y="-177.5" font-family="Helvetica,sans-Serif" font-size="10.00">src/wxMaximaFrame.h</text>
</a>
</g>
</g>
<!-- Node3&#45;&gt;Node12 -->
<g id="edge13" class="edge">
<title>Node3&#45;&gt;Node12</title>
<path fill="none" stroke="#63b8ff" d="M985.18,-236.29C891.41,-230.67 700.47,-217.43 540,-195 529.39,-193.52 517.99,-191.52 507.42,-189.51"/>
<polygon fill="#63b8ff" stroke="#63b8ff" points="985.12,-239.8 995.31,-236.89 985.54,-232.81 985.12,-239.8"/>
</g>
<!-- Node3&#45;&gt;Node20 -->
<g id="edge30" class="edge">
<title>Node3&#45;&gt;Node20</title>
<path fill="none" stroke="#63b8ff" d="M985.28,-239.8C839.8,-239.9 446.54,-236 122,-195 117.46,-194.43 112.76,-193.71 108.06,-192.92"/>
<polygon fill="#63b8ff" stroke="#63b8ff" points="985.33,-243.3 995.32,-239.79 985.32,-236.3 985.33,-243.3"/>
</g>
<!-- Node21 -->
<g id="node21" class="node">
<title>Node21</title>
<g id="a_node21"><a xlink:href="test__EditorCellInvariants_8cpp.html" target="_top" xlink:title="Hardening tests for EditorCell&#39;s text&#45;editing core.">
<polygon fill="white" stroke="#666666" points="687,-195 549,-195 549,-165 687,-165 687,-195"/>
<text text-anchor="start" x="557" y="-183" font-family="Helvetica,sans-Serif" font-size="10.00">test/unit_tests/test</text>
<text text-anchor="middle" x="618" y="-172" font-family="Helvetica,sans-Serif" font-size="10.00">_EditorCellInvariants.cpp</text>
</a>
</g>
</g>
<!-- Node3&#45;&gt;Node21 -->
<g id="edge31" class="edge">
<title>Node3&#45;&gt;Node21</title>
<path fill="none" stroke="#63b8ff" d="M985.13,-232.91C916.33,-224.87 798.08,-210.45 697,-195 693.83,-194.52 690.6,-194.01 687.33,-193.48"/>
<polygon fill="#63b8ff" stroke="#63b8ff" points="984.99,-236.42 995.33,-234.09 985.8,-229.46 984.99,-236.42"/>
</g>
<!-- Node22 -->
<g id="node22" class="node">
<title>Node22</title>
<g id="a_node22"><a xlink:href="test__GroupCellLayout_8cpp.html" target="_top" xlink:title="Regression tests for the GroupCell &lt;&#45;&gt; EditorCell layout coupling.">
<polygon fill="white" stroke="#666666" points="828.5,-195 705.5,-195 705.5,-165 828.5,-165 828.5,-195"/>
<text text-anchor="start" x="713.5" y="-183" font-family="Helvetica,sans-Serif" font-size="10.00">test/unit_tests/test</text>
<text text-anchor="middle" x="767" y="-172" font-family="Helvetica,sans-Serif" font-size="10.00">_GroupCellLayout.cpp</text>
</a>
</g>
</g>
<!-- Node3&#45;&gt;Node22 -->
<g id="edge32" class="edge">
<title>Node3&#45;&gt;Node22</title>
<path fill="none" stroke="#63b8ff" d="M992.8,-228.86C946.64,-219.08 878.06,-204.54 828.6,-194.06"/>
<polygon fill="#63b8ff" stroke="#63b8ff" points="992.36,-232.34 1002.87,-230.99 993.81,-225.5 992.36,-232.34"/>
</g>
<!-- Node23 -->
<g id="node23" class="node">
<title>Node23</title>
<g id="a_node23"><a xlink:href="test__LayoutInvariants_8cpp.html" target="_top" xlink:title="Layout idempotency invariants.">
<polygon fill="white" stroke="#666666" points="971,-195 847,-195 847,-165 971,-165 971,-195"/>
<text text-anchor="start" x="855" y="-183" font-family="Helvetica,sans-Serif" font-size="10.00">test/unit_tests/test</text>
<text text-anchor="middle" x="909" y="-172" font-family="Helvetica,sans-Serif" font-size="10.00">_LayoutInvariants.cpp</text>
</a>
</g>
</g>
<!-- Node3&#45;&gt;Node23 -->
<g id="edge33" class="edge">
<title>Node3&#45;&gt;Node23</title>
<path fill="none" stroke="#63b8ff" d="M1014.26,-226.95C992.8,-217.59 963.47,-204.78 941.22,-195.06"/>
<polygon fill="#63b8ff" stroke="#63b8ff" points="1012.95,-230.2 1023.52,-230.99 1015.75,-223.78 1012.95,-230.2"/>
</g>
<!-- Node24 -->
<g id="node24" class="node">
<title>Node24</title>
<g id="a_node24"><a xlink:href="test__TreeUndo_8cpp.html" target="_top" xlink:title="Regression tests for the worksheet&#39;s cell&#45;tree undo/redo (the TreeUndo_* subsystem of Worksheet).">
<polygon fill="white" stroke="#666666" points="1097,-195 989,-195 989,-165 1097,-165 1097,-195"/>
<text text-anchor="start" x="997" y="-183" font-family="Helvetica,sans-Serif" font-size="10.00">test/unit_tests/test</text>
<text text-anchor="middle" x="1043" y="-172" font-family="Helvetica,sans-Serif" font-size="10.00">_TreeUndo.cpp</text>
</a>
</g>
</g>
<!-- Node3&#45;&gt;Node24 -->
<g id="edge34" class="edge">
<title>Node3&#45;&gt;Node24</title>
<path fill="none" stroke="#63b8ff" d="M1043,-220.65C1043,-212.36 1043,-202.78 1043,-195.11"/>
<polygon fill="#63b8ff" stroke="#63b8ff" points="1039.5,-220.87 1043,-230.87 1046.5,-220.87 1039.5,-220.87"/>
</g>
<!-- Node25 -->
<g id="node25" class="node">
<title>Node25</title>
<g id="a_node25"><a xlink:href="test__WXMRoundtrip_8cpp.html" target="_top" xlink:title="Regression tests for images surviving the .wxm serialization round&#45;trip.">
<polygon fill="white" stroke="#666666" points="1230.5,-195 1115.5,-195 1115.5,-165 1230.5,-165 1230.5,-195"/>
<text text-anchor="start" x="1123.5" y="-183" font-family="Helvetica,sans-Serif" font-size="10.00">test/unit_tests/test</text>
<text text-anchor="middle" x="1173" y="-172" font-family="Helvetica,sans-Serif" font-size="10.00">_WXMRoundtrip.cpp</text>
</a>
</g>
</g>
<!-- Node3&#45;&gt;Node25 -->
<g id="edge35" class="edge">
<title>Node3&#45;&gt;Node25</title>
<path fill="none" stroke="#63b8ff" d="M1071.16,-226.83C1091.95,-217.47 1120.25,-204.74 1141.75,-195.06"/>
<polygon fill="#63b8ff" stroke="#63b8ff" points="1069.59,-223.7 1061.9,-230.99 1072.46,-230.08 1069.59,-223.7"/>
</g>
<!-- Node26 -->
<g id="node26" class="node">
<title>Node26</title>
<g id="a_node26"><a xlink:href="test__WXMXRoundtrip_8cpp.html" target="_top" xlink:title="Round&#45;trip tests for the .wxmx content.xml (the MathML&#45;like math format).">
<polygon fill="white" stroke="#666666" points="1371,-195 1249,-195 1249,-165 1371,-165 1371,-195"/>
<text text-anchor="start" x="1257" y="-183" font-family="Helvetica,sans-Serif" font-size="10.00">test/unit_tests/test</text>
<text text-anchor="middle" x="1310" y="-172" font-family="Helvetica,sans-Serif" font-size="10.00">_WXMXRoundtrip.cpp</text>
</a>
</g>
</g>
<!-- Node3&#45;&gt;Node26 -->
<g id="edge36" class="edge">
<title>Node3&#45;&gt;Node26</title>
<path fill="none" stroke="#63b8ff" d="M1091.75,-228.82C1135.93,-219.14 1201.23,-204.83 1248.88,-194.39"/>
<polygon fill="#63b8ff" stroke="#63b8ff" points="1090.84,-225.43 1081.82,-230.99 1092.34,-232.27 1090.84,-225.43"/>
</g>
<!-- Node27 -->
<g id="node27" class="node">
<title>Node27</title>
<g id="a_node27"><a xlink:href="test__WorksheetContextMenu_8cpp.html" target="_top" xlink:title="Regression tests for the worksheet&#39;s right&#45;click context menu.">
<polygon fill="white" stroke="#666666" points="1548.5,-195 1389.5,-195 1389.5,-165 1548.5,-165 1548.5,-195"/>
<text text-anchor="start" x="1397.5" y="-183" font-family="Helvetica,sans-Serif" font-size="10.00">test/unit_tests/test</text>
<text text-anchor="middle" x="1469" y="-172" font-family="Helvetica,sans-Serif" font-size="10.00">_WorksheetContextMenu.cpp</text>
</a>
</g>
</g>
<!-- Node3&#45;&gt;Node27 -->
<g id="edge37" class="edge">
<title>Node3&#45;&gt;Node27</title>
<path fill="none" stroke="#63b8ff" d="M1100.73,-232.32C1167.89,-223.86 1282.08,-209.16 1380,-195 1383.1,-194.55 1386.25,-194.09 1389.44,-193.62"/>
<polygon fill="#63b8ff" stroke="#63b8ff" points="1100.25,-228.85 1090.77,-233.57 1101.13,-235.8 1100.25,-228.85"/>
</g>
<!-- Node28 -->
<g id="node28" class="node">
<title>Node28</title>
<g id="a_node28"><a xlink:href="test__WorksheetCursor_8cpp.html" target="_top" xlink:title="Pins the worksheet&#39;s cursor model before it is gathered into a cursor class.">
<polygon fill="white" stroke="#666666" points="1691.5,-195 1566.5,-195 1566.5,-165 1691.5,-165 1691.5,-195"/>
<text text-anchor="start" x="1574.5" y="-183" font-family="Helvetica,sans-Serif" font-size="10.00">test/unit_tests/test</text>
<text text-anchor="middle" x="1629" y="-172" font-family="Helvetica,sans-Serif" font-size="10.00">_WorksheetCursor.cpp</text>
</a>
</g>
</g>
<!-- Node3&#45;&gt;Node28 -->
<g id="edge38" class="edge">
<title>Node3&#45;&gt;Node28</title>
<path fill="none" stroke="#63b8ff" d="M1100.8,-236.56C1196.32,-231.23 1392.96,-218.33 1558,-195 1560.74,-194.61 1563.53,-194.19 1566.34,-193.74"/>
<polygon fill="#63b8ff" stroke="#63b8ff" points="1100.56,-233.06 1090.77,-237.11 1100.94,-240.05 1100.56,-233.06"/>
</g>
<!-- Node29 -->
<g id="node29" class="node">
<title>Node29</title>
<g id="a_node29"><a xlink:href="test__WorksheetEvalQueue_8cpp.html" target="_top" xlink:title="Pins the worksheet&#39;s &quot;add cells to the evaluation queue&quot; behavior before the Add*ToEvaluationQueue fa...">
<polygon fill="white" stroke="#666666" points="1856,-195 1710,-195 1710,-165 1856,-165 1856,-195"/>
<text text-anchor="start" x="1718" y="-183" font-family="Helvetica,sans-Serif" font-size="10.00">test/unit_tests/test</text>
<text text-anchor="middle" x="1783" y="-172" font-family="Helvetica,sans-Serif" font-size="10.00">_WorksheetEvalQueue.cpp</text>
</a>
</g>
</g>
<!-- Node3&#45;&gt;Node29 -->
<g id="edge39" class="edge">
<title>Node3&#45;&gt;Node29</title>
<path fill="none" stroke="#63b8ff" d="M1100.94,-237.56C1215.77,-233.28 1480.22,-221.24 1701,-195 1703.87,-194.66 1706.79,-194.29 1709.74,-193.89"/>
<polygon fill="#63b8ff" stroke="#63b8ff" points="1100.5,-234.07 1090.63,-237.94 1100.75,-241.07 1100.5,-234.07"/>
</g>
<!-- Node30 -->
<g id="node30" class="node">
<title>Node30</title>
<g id="a_node30"><a xlink:href="test__WorksheetExport_8cpp.html" target="_top" xlink:title="Safety net for the export/serialization cluster of Worksheet.">
<polygon fill="white" stroke="#666666" points="1999.5,-195 1874.5,-195 1874.5,-165 1999.5,-165 1999.5,-195"/>
<text text-anchor="start" x="1882.5" y="-183" font-family="Helvetica,sans-Serif" font-size="10.00">test/unit_tests/test</text>
<text text-anchor="middle" x="1937" y="-172" font-family="Helvetica,sans-Serif" font-size="10.00">_WorksheetExport.cpp</text>
</a>
</g>
</g>
<!-- Node3&#45;&gt;Node30 -->
<g id="edge40" class="edge">
<title>Node3&#45;&gt;Node30</title>
<path fill="none" stroke="#63b8ff" d="M1101.02,-239.1C1235.72,-237.59 1579.89,-230.27 1865,-195 1868.03,-194.62 1871.13,-194.2 1874.25,-193.73"/>
<polygon fill="#63b8ff" stroke="#63b8ff" points="1100.88,-235.6 1090.92,-239.21 1100.96,-242.6 1100.88,-235.6"/>
</g>
<!-- Node31 -->
<g id="node31" class="node">
<title>Node31</title>
<g id="a_node31"><a xlink:href="test__WorksheetFind_8cpp.html" target="_top" xlink:title="Pins the worksheet&#39;s find/replace behavior before the search engine is extracted into WorksheetSearch...">
<polygon fill="white" stroke="#666666" points="2132,-195 2018,-195 2018,-165 2132,-165 2132,-195"/>
<text text-anchor="start" x="2026" y="-183" font-family="Helvetica,sans-Serif" font-size="10.00">test/unit_tests/test</text>
<text text-anchor="middle" x="2075" y="-172" font-family="Helvetica,sans-Serif" font-size="10.00">_WorksheetFind.cpp</text>
</a>
</g>
</g>
<!-- Node3&#45;&gt;Node31 -->
<g id="edge41" class="edge">
<title>Node3&#45;&gt;Node31</title>
<path fill="none" stroke="#63b8ff" d="M1101.11,-240.11C1251.74,-240.99 1666.89,-238.87 2009,-195 2011.9,-194.63 2014.87,-194.19 2017.86,-193.72"/>
<polygon fill="#63b8ff" stroke="#63b8ff" points="1100.75,-236.61 1090.73,-240.04 1100.71,-243.61 1100.75,-236.61"/>
</g>
<!-- Node7 -->
<g id="node7" class="node">
<title>Node7</title>
<g id="a_node7"><a xlink:href="main_8cpp.html" target="_top" xlink:title="The file that defines the starting point of the program.">
<polygon fill="white" stroke="#666666" points="553.5,-19 474.5,-19 474.5,0 553.5,0 553.5,-19"/>
<text text-anchor="middle" x="514" y="-7" font-family="Helvetica,sans-Serif" font-size="10.00">src/main.cpp</text>
</a>
</g>
</g>
<!-- Node6&#45;&gt;Node7 -->
<g id="edge6" class="edge">
<title>Node6&#45;&gt;Node7</title>
<path fill="none" stroke="#63b8ff" d="M164.01,-53.74C255.84,-42.39 403.77,-24.12 474.22,-15.41"/>
<polygon fill="#63b8ff" stroke="#63b8ff" points="163.42,-50.28 153.93,-54.98 164.28,-57.23 163.42,-50.28"/>
</g>
<!-- Node8 -->
<g id="node8" class="node">
<title>Node8</title>
<g id="a_node8"><a xlink:href="wxMaxima_8cpp.html" target="_top" xlink:title="This file defines the contents of the class wxMaxima that contains most of the program&#39;s logic.">
<polygon fill="white" stroke="#666666" points="316,-19 208,-19 208,0 316,0 316,-19"/>
<text text-anchor="middle" x="262" y="-7" font-family="Helvetica,sans-Serif" font-size="10.00">src/wxMaxima.cpp</text>
</a>
</g>
</g>
<!-- Node6&#45;&gt;Node8 -->
<g id="edge7" class="edge">
<title>Node6&#45;&gt;Node8</title>
<path fill="none" stroke="#63b8ff" d="M123.22,-52.06C156.3,-42.15 203.41,-28.04 233.34,-19.08"/>
<polygon fill="#63b8ff" stroke="#63b8ff" points="122.01,-48.76 113.44,-54.98 124.02,-55.47 122.01,-48.76"/>
</g>
<!-- Node9&#45;&gt;Node7 -->
<g id="edge10" class="edge">
<title>Node9&#45;&gt;Node7</title>
<path fill="none" stroke="#63b8ff" d="M229.56,-99.32C231.04,-84.99 235.47,-66.05 248,-55 280.96,-25.92 408.65,-15.56 474.39,-12.1"/>
<polygon fill="#63b8ff" stroke="#63b8ff" points="226.04,-99.38 228.9,-109.58 233.03,-99.83 226.04,-99.38"/>
</g>
<!-- Node9&#45;&gt;Node8 -->
<g id="edge11" class="edge">
<title>Node9&#45;&gt;Node8</title>
<path fill="none" stroke="#63b8ff" d="M219.38,-100.71C213.67,-87.66 208.66,-69.73 215,-55 221.66,-39.52 236.65,-26.9 247.93,-19.11"/>
<polygon fill="#63b8ff" stroke="#63b8ff" points="216.37,-102.52 223.91,-109.97 222.66,-99.45 216.37,-102.52"/>
</g>
<!-- Node10 -->
<g id="node10" class="node">
<title>Node10</title>
<g id="a_node10"><a xlink:href="MaximaCommandMenus_8cpp.html" target="_top" xlink:title="Implementation of the menu&#45;command handlers extracted from wxMaxima &#45; see MaximaCommandMenus....">
<polygon fill="white" stroke="#666666" points="433,-74 257,-74 257,-55 433,-55 433,-74"/>
<text text-anchor="middle" x="345" y="-62" font-family="Helvetica,sans-Serif" font-size="10.00">src/MaximaCommandMenus.cpp</text>
</a>
</g>
</g>
<!-- Node9&#45;&gt;Node10 -->
<g id="edge9" class="edge">
<title>Node9&#45;&gt;Node10</title>
<path fill="none" stroke="#63b8ff" d="M256.87,-105.77C278.27,-95.99 307.24,-82.75 326.02,-74.17"/>
<polygon fill="#63b8ff" stroke="#63b8ff" points="255.28,-102.65 247.64,-109.98 258.19,-109.01 255.28,-102.65"/>
</g>
<!-- Node12&#45;&gt;Node4 -->
<g id="edge15" class="edge">
<title>Node12&#45;&gt;Node4</title>
<path fill="none" stroke="#63b8ff" d="M519.41,-168.61C526.33,-167.34 533.33,-166.1 540,-165 655.1,-146.01 701.63,-191.71 800,-129 820.58,-115.88 832.9,-88.3 838.1,-74.2"/>
<polygon fill="#63b8ff" stroke="#63b8ff" points="518.58,-165.2 509.39,-170.48 519.87,-172.08 518.58,-165.2"/>
</g>
<!-- Node13 -->
<g id="node13" class="node">
<title>Node13</title>
<g id="a_node13"><a xlink:href="AutocompletePopup_8cpp.html" target="_top" xlink:title="This file defines the class AutocompletePopup.">
<polygon fill="white" stroke="#666666" points="775,-129 623,-129 623,-110 775,-110 775,-129"/>
<text text-anchor="middle" x="699" y="-117" font-family="Helvetica,sans-Serif" font-size="10.00">src/AutocompletePopup.cpp</text>
</a>
</g>
</g>
<!-- Node12&#45;&gt;Node13 -->
<g id="edge14" class="edge">
<title>Node12&#45;&gt;Node13</title>
<path fill="none" stroke="#63b8ff" d="M510.47,-168.04C555.32,-156.73 624.31,-139.33 665.22,-129.02"/>
<polygon fill="#63b8ff" stroke="#63b8ff" points="509.58,-164.65 500.73,-170.49 511.29,-171.44 509.58,-164.65"/>
</g>
<!-- Node14 -->
<g id="node14" class="node">
<title>Node14</title>
<g id="a_node14"><a xlink:href="EditorCell_8cpp.html" target="_top" xlink:title="This file defines the class EditorCell.">
<polygon fill="white" stroke="#666666" points="578.5,-74 451.5,-74 451.5,-55 578.5,-55 578.5,-74"/>
<text text-anchor="middle" x="515" y="-62" font-family="Helvetica,sans-Serif" font-size="10.00">src/cells/EditorCell.cpp</text>
</a>
</g>
</g>
<!-- Node12&#45;&gt;Node14 -->
<g id="edge16" class="edge">
<title>Node12&#45;&gt;Node14</title>
<path fill="none" stroke="#63b8ff" d="M407.8,-168.19C365.37,-157.75 319.38,-139.17 342,-110 355.54,-92.54 407.61,-80.73 451.12,-73.69"/>
<polygon fill="#63b8ff" stroke="#63b8ff" points="407.08,-171.62 417.61,-170.48 408.67,-164.8 407.08,-171.62"/>
</g>
<!-- Node15 -->
<g id="node15" class="node">
<title>Node15</title>
<g id="a_node15"><a xlink:href="main_8h.html" target="_top" xlink:title="This file declares the class wxMaxima that contains most of the program&#39;s logic.">
<polygon fill="white" stroke="#666666" points="741,-74 673,-74 673,-55 741,-55 741,-74"/>
<text text-anchor="middle" x="707" y="-62" font-family="Helvetica,sans-Serif" font-size="10.00">src/main.h</text>
</a>
</g>
</g>
<!-- Node12&#45;&gt;Node15 -->
<g id="edge17" class="edge">
<title>Node12&#45;&gt;Node15</title>
<path fill="none" stroke="#63b8ff" d="M519.69,-168.62C526.51,-167.35 533.42,-166.12 540,-165 594.04,-155.84 748.18,-170.49 784,-129 803.59,-106.31 761.54,-85.29 732.21,-74.04"/>
<polygon fill="#63b8ff" stroke="#63b8ff" points="518.97,-165.19 509.79,-170.47 520.27,-172.07 518.97,-165.19"/>
</g>
<!-- Node17 -->
<g id="node17" class="node">
<title>Node17</title>
<g id="a_node17"><a xlink:href="GreekSidebar_8cpp.html" target="_top" xlink:title="This file defines the class GreekSidebar.">
<polygon fill="white" stroke="#666666" points="1033,-129 869,-129 869,-110 1033,-110 1033,-129"/>
<text text-anchor="middle" x="951" y="-117" font-family="Helvetica,sans-Serif" font-size="10.00">src/sidebars/GreekSidebar.cpp</text>
</a>
</g>
</g>
<!-- Node12&#45;&gt;Node17 -->
<g id="edge21" class="edge">
<title>Node12&#45;&gt;Node17</title>
<path fill="none" stroke="#63b8ff" d="M518.09,-168.65C525.42,-167.33 532.89,-166.06 540,-165 601.4,-155.8 767.51,-138.71 868.77,-128.6"/>
<polygon fill="#63b8ff" stroke="#63b8ff" points="517.4,-165.22 508.21,-170.49 518.68,-172.1 517.4,-165.22"/>
</g>
<!-- Node18 -->
<g id="node18" class="node">
<title>Node18</title>
<g id="a_node18"><a xlink:href="wxMaxima_8h.html" target="_top" xlink:title="This file declares the class wxMaxima that contains most of the program&#39;s logic.">
<polygon fill="white" stroke="#666666" points="604.5,-129 507.5,-129 507.5,-110 604.5,-110 604.5,-129"/>
<text text-anchor="middle" x="556" y="-117" font-family="Helvetica,sans-Serif" font-size="10.00">src/wxMaxima.h</text>
</a>
</g>
</g>
<!-- Node12&#45;&gt;Node18 -->
<g id="edge22" class="edge">
<title>Node12&#45;&gt;Node18</title>
<path fill="none" stroke="#63b8ff" d="M488.82,-164.66C505.73,-153.55 528.59,-138.51 542.81,-129.17"/>
<polygon fill="#63b8ff" stroke="#63b8ff" points="486.57,-161.95 480.13,-170.37 490.41,-167.8 486.57,-161.95"/>
</g>
<!-- Node19 -->
<g id="node19" class="node">
<title>Node19</title>
<g id="a_node19"><a xlink:href="wxMaximaFrame_8cpp.html" target="_top" xlink:title="This file defines the class wxMaximaFrame.">
<polygon fill="white" stroke="#666666" points="489.5,-129 350.5,-129 350.5,-110 489.5,-110 489.5,-129"/>
<text text-anchor="middle" x="420" y="-117" font-family="Helvetica,sans-Serif" font-size="10.00">src/wxMaximaFrame.cpp</text>
</a>
</g>
</g>
<!-- Node12&#45;&gt;Node19 -->
<g id="edge29" class="edge">
<title>Node12&#45;&gt;Node19</title>
<path fill="none" stroke="#63b8ff" d="M453.7,-162.45C445,-151.62 433.99,-137.91 426.96,-129.17"/>
<polygon fill="#63b8ff" stroke="#63b8ff" points="451.07,-164.76 460.06,-170.37 456.53,-160.38 451.07,-164.76"/>
</g>
<!-- Node15&#45;&gt;Node7 -->
<g id="edge19" class="edge">
<title>Node15&#45;&gt;Node7</title>
<path fill="none" stroke="#63b8ff" d="M666.25,-52.31C630.14,-42.39 578.17,-28.12 545.25,-19.08"/>
<polygon fill="#63b8ff" stroke="#63b8ff" points="665.42,-55.71 675.99,-54.98 667.28,-48.96 665.42,-55.71"/>
</g>
<!-- Node15&#45;&gt;Node8 -->
<g id="edge20" class="edge">
<title>Node15&#45;&gt;Node8</title>
<path fill="none" stroke="#63b8ff" d="M662.83,-58.24C580.82,-48.47 405.32,-27.57 316.25,-16.96"/>
<polygon fill="#63b8ff" stroke="#63b8ff" points="662.48,-61.72 672.82,-59.43 663.3,-54.77 662.48,-61.72"/>
</g>
<!-- Node16 -->
<g id="node16" class="node">
<title>Node16</title>
<g id="a_node16"><a xlink:href="MaximaManual_8cpp.html" target="_top" xlink:title="This file defines the class MaximaManual.">
<polygon fill="white" stroke="#666666" points="772,-19 642,-19 642,0 772,0 772,-19"/>
<text text-anchor="middle" x="707" y="-7" font-family="Helvetica,sans-Serif" font-size="10.00">src/MaximaManual.cpp</text>
</a>
</g>
</g>
<!-- Node15&#45;&gt;Node16 -->
<g id="edge18" class="edge">
<title>Node15&#45;&gt;Node16</title>
<path fill="none" stroke="#63b8ff" d="M707,-44.66C707,-35.93 707,-25.99 707,-19.09"/>
<polygon fill="#63b8ff" stroke="#63b8ff" points="703.5,-44.75 707,-54.75 710.5,-44.75 703.5,-44.75"/>
</g>
<!-- Node18&#45;&gt;Node4 -->
<g id="edge24" class="edge">
<title>Node18&#45;&gt;Node4</title>
<path fill="none" stroke="#63b8ff" d="M611.78,-108.13C665.21,-98.19 744.89,-83.37 794.85,-74.08"/>
<polygon fill="#63b8ff" stroke="#63b8ff" points="610.98,-104.72 601.79,-109.98 612.26,-111.6 610.98,-104.72"/>
</g>
<!-- Node18&#45;&gt;Node7 -->
<g id="edge26" class="edge">
<title>Node18&#45;&gt;Node7</title>
<path fill="none" stroke="#63b8ff" d="M586.03,-105.46C608.88,-93.61 634.31,-74.95 621,-55 606.04,-32.57 577.42,-21.43 553.55,-15.91"/>
<polygon fill="#63b8ff" stroke="#63b8ff" points="584.29,-102.42 576.84,-109.96 587.36,-108.71 584.29,-102.42"/>
</g>
<!-- Node18&#45;&gt;Node8 -->
<g id="edge28" class="edge">
<title>Node18&#45;&gt;Node8</title>
<path fill="none" stroke="#63b8ff" d="M573.63,-102.61C586.72,-88.91 600.35,-69.15 588,-55 570.42,-34.85 404.14,-20.37 316.1,-14.05"/>
<polygon fill="#63b8ff" stroke="#63b8ff" points="570.88,-100.4 566.18,-109.89 575.78,-105.4 570.88,-100.4"/>
</g>
<!-- Node18&#45;&gt;Node10 -->
<g id="edge23" class="edge">
<title>Node18&#45;&gt;Node10</title>
<path fill="none" stroke="#63b8ff" d="M512.21,-107.5C472.7,-97.58 415.38,-83.18 379.17,-74.08"/>
<polygon fill="#63b8ff" stroke="#63b8ff" points="511.55,-110.94 522.1,-109.98 513.25,-104.15 511.55,-110.94"/>
</g>
<!-- Node18&#45;&gt;Node14 -->
<g id="edge25" class="edge">
<title>Node18&#45;&gt;Node14</title>
<path fill="none" stroke="#63b8ff" d="M542.98,-101.67C535.88,-92.5 527.4,-81.52 521.64,-74.09"/>
<polygon fill="#63b8ff" stroke="#63b8ff" points="540.34,-103.98 549.23,-109.75 545.88,-99.7 540.34,-103.98"/>
</g>
<!-- Node18&#45;&gt;Node15 -->
<g id="edge27" class="edge">
<title>Node18&#45;&gt;Node15</title>
<path fill="none" stroke="#63b8ff" d="M590.05,-106.55C618.09,-96.71 657.18,-82.98 682.3,-74.17"/>
<polygon fill="#63b8ff" stroke="#63b8ff" points="588.54,-103.37 580.26,-109.98 590.86,-109.98 588.54,-103.37"/>
</g>
</g>
</svg>
        <g id="navigator" transform="translate(0 0)" fill="#404254">
                <rect fill="#f2f5e9" fill-opacity="0.5" stroke="#606060" stroke-width=".5" x="0" y="0" width="60" height="60"/>
                <use id="zoomplus" xlink:href="#zoomPlus" x="17" y="9" onmousedown="handleZoom(evt,'in')"/>
                <use id="zoomminus" xlink:href="#zoomMin" x="42" y="9" onmousedown="handleZoom(evt,'out')"/>
                <use id="reset" xlink:href="#resetDef" x="30" y="36" onmousedown="handleReset()"/>
                <g id="arrowUp" xlink:href="#dirArrow" transform="translate(30 24)" onmousedown="handlePan(0,-1)">
                  <use xlink:href="#rim" fill="#404040">
                        <set attributeName="fill" to="#808080" begin="arrowUp.mouseover" end="arrowUp.mouseout"/>
                  </use>
                  <path fill="none" stroke="white" stroke-width="1.5" d="M0,-3.0v7 M-2.5,-0.5L0,-3.0L2.5,-0.5"/>
                </g>
                <g id="arrowRight" xlink:href="#dirArrow" transform="rotate(90) translate(36 -43)" onmousedown="handlePan(1,0)">
                  <use xlink:href="#rim" fill="#404040">
                        <set attributeName="fill" to="#808080" begin="arrowRight.mouseover" end="arrowRight.mouseout"/>
                  </use>
                  <path fill="none" stroke="white" stroke-width="1.5" d="M0,-3.0v7 M-2.5,-0.5L0,-3.0L2.5,-0.5"/>
                </g>
                <g id="arrowDown" xlink:href="#dirArrow" transform="rotate(180) translate(-30 -48)" onmousedown="handlePan(0,1)">
                  <use xlink:href="#rim" fill="#404040">
                        <set attributeName="fill" to="#808080" begin="arrowDown.mouseover" end="arrowDown.mouseout"/>
                  </use>
                  <path fill="none" stroke="white" stroke-width="1.5" d="M0,-3.0v7 M-2.5,-0.5L0,-3.0L2.5,-0.5"/>
                </g>
                <g id="arrowLeft" xlink:href="#dirArrow" transform="rotate(270) translate(-36 17)" onmousedown="handlePan(-1,0)">
                  <use xlink:href="#rim" fill="#404040">
                        <set attributeName="fill" to="#808080" begin="arrowLeft.mouseover" end="arrowLeft.mouseout"/>
                  </use>
                  <path fill="none" stroke="white" stroke-width="1.5" d="M0,-3.0v7 M-2.5,-0.5L0,-3.0L2.5,-0.5"/>
                </g>
        </g>
        <svg viewBox="0 0 15 15" width="100%" height="30px" preserveAspectRatio="xMaxYMin meet">
         <g id="arrow_out" transform="scale(0.3 0.3)">
          <a xlink:href="ToolBar_8h__dep__incl_org.svg" target="_base">
           <rect id="button" ry="5" rx="5" y="6" x="6" height="38" width="38"
                fill="#f2f5e9" fill-opacity="0.5" stroke="#606060" stroke-width="1.0"/>
           <path id="arrow"
             d="M 11.500037,31.436501 C 11.940474,20.09759 22.043105,11.32322 32.158766,21.979434 L 37.068811,17.246167 C 37.068811,17.246167 37.088388,32 37.088388,32 L 22.160133,31.978069 C 22.160133,31.978069 26.997745,27.140456 26.997745,27.140456 C 18.528582,18.264221 13.291696,25.230495 11.500037,31.436501 z"
             style="fill:#404040;"/>
          </a>
         </g>
        </svg>
</svg>
