<?xml version="1.0" encoding="UTF-8" standalone="no"?>
<!DOCTYPE svg PUBLIC "-//W3C//DTD SVG 1.1//EN"
 "http://www.w3.org/Graphics/SVG/1.1/DTD/svg11.dtd">
<!-- Generated by graphviz version 2.43.0 (0)
 -->
<!-- Title: src/TreeUndoManager.h Pages: 1 -->
<svg width="3495pt" height="368pt"
 viewBox="0.00 0.00 3495.00 368.00" xmlns="http://www.w3.org/2000/svg" xmlns:xlink="http://www.w3.org/1999/xlink">
<g id="graph0" class="graph" transform="scale(1 1) rotate(0) translate(4 364)">
<title>src/TreeUndoManager.h</title>
<!-- Node1 -->
<g id="node1" class="node">
<title>Node1</title>
<g id="a_node1"><a xlink:title="Declares TreeUndoManager: the owner of the cell&#45;tree undo/redo state.">
<polygon fill="#999999" stroke="#666666" points="2015.5,-360 1884.5,-360 1884.5,-341 2015.5,-341 2015.5,-360"/>
<text text-anchor="middle" x="1950" y="-348" font-family="Helvetica,sans-Serif" font-size="10.00">src/TreeUndoManager.h</text>
</a>
</g>
</g>
<!-- Node2 -->
<g id="node2" class="node">
<title>Node2</title>
<g id="a_node2"><a xlink:href="Worksheet_8h.html" target="_top" xlink:title="This file defines the class Worksheet.">
<polygon fill="white" stroke="#666666" points="1960.5,-250 1811.5,-250 1811.5,-231 1960.5,-231 1960.5,-250"/>
<text text-anchor="middle" x="1886" y="-238" font-family="Helvetica,sans-Serif" font-size="10.00">src/worksheet/Worksheet.h</text>
</a>
</g>
</g>
<!-- Node1&#45;&gt;Node2 -->
<g id="edge1" class="edge">
<title>Node1&#45;&gt;Node2</title>
<path fill="none" stroke="#63b8ff" d="M1931.18,-334.2C1922.47,-326.28 1912.61,-315.97 1906,-305 1895.26,-287.18 1889.74,-263.03 1887.4,-250.26"/>
<polygon fill="#63b8ff" stroke="#63b8ff" points="1928.88,-336.84 1938.72,-340.76 1933.47,-331.56 1928.88,-336.84"/>
</g>
<!-- Node38 -->
<g id="node38" class="node">
<title>Node38</title>
<g id="a_node38"><a xlink:href="WorksheetDocument_8h.html" target="_top" xlink:title="The document half of the worksheet: the state and commands that describe the edited document itself,...">
<polygon fill="white" stroke="#666666" points="2113.5,-305 1914.5,-305 1914.5,-286 2113.5,-286 2113.5,-305"/>
<text text-anchor="middle" x="2014" y="-293" font-family="Helvetica,sans-Serif" font-size="10.00">src/worksheet/WorksheetDocument.h</text>
</a>
</g>
</g>
<!-- Node1&#45;&gt;Node38 -->
<g id="edge51" class="edge">
<title>Node1&#45;&gt;Node38</title>
<path fill="none" stroke="#63b8ff" d="M1967.99,-334.6C1979.46,-325.11 1993.91,-313.13 2003.53,-305.17"/>
<polygon fill="#63b8ff" stroke="#63b8ff" points="1965.75,-331.91 1960.28,-340.98 1970.22,-337.3 1965.75,-331.91"/>
</g>
<!-- Node3 -->
<g id="node3" class="node">
<title>Node3</title>
<g id="a_node3"><a xlink:href="MaximaFileIO_8cpp.html" target="_top" xlink:title="Implements the worksheet file loaders/savers extracted from the wxMaxima god class.">
<polygon fill="white" stroke="#666666" points="122,-74 0,-74 0,-55 122,-55 122,-74"/>
<text text-anchor="middle" x="61" y="-62" font-family="Helvetica,sans-Serif" font-size="10.00">src/MaximaFileIO.cpp</text>
</a>
</g>
</g>
<!-- Node2&#45;&gt;Node3 -->
<g id="edge2" class="edge">
<title>Node2&#45;&gt;Node3</title>
<path fill="none" stroke="#63b8ff" d="M1801.29,-238.4C1511.18,-234.43 568.05,-219.72 434,-195 292.44,-168.89 132.13,-98.47 79.09,-74.01"/>
<polygon fill="#63b8ff" stroke="#63b8ff" points="1801.29,-241.9 1811.33,-238.54 1801.38,-234.9 1801.29,-241.9"/>
</g>
<!-- Node4 -->
<g id="node4" class="node">
<title>Node4</title>
<g id="a_node4"><a xlink:href="MaximaOutputAppender_8cpp.html" target="_top" xlink:title="Implements the worksheet output appenders extracted from the wxMaxima god class.">
<polygon fill="white" stroke="#666666" points="313.5,-74 140.5,-74 140.5,-55 313.5,-55 313.5,-74"/>
<text text-anchor="middle" x="227" y="-62" font-family="Helvetica,sans-Serif" font-size="10.00">src/MaximaOutputAppender.cpp</text>
</a>
</g>
</g>
<!-- Node2&#45;&gt;Node4 -->
<g id="edge3" class="edge">
<title>Node2&#45;&gt;Node4</title>
<path fill="none" stroke="#63b8ff" d="M1801.23,-238.54C1523.77,-235.14 653.44,-222.39 530,-195 412.72,-168.98 283.96,-98.51 241.47,-74.02"/>
<polygon fill="#63b8ff" stroke="#63b8ff" points="1801.2,-242.04 1811.24,-238.66 1801.29,-235.04 1801.2,-242.04"/>
</g>
<!-- Node5 -->
<g id="node5" class="node">
<title>Node5</title>
<g id="a_node5"><a xlink:href="ConfigDialogue_8h.html" target="_top" xlink:title="The configuration dialog.">
<polygon fill="white" stroke="#666666" points="1661.5,-74 1506.5,-74 1506.5,-55 1661.5,-55 1661.5,-74"/>
<text text-anchor="middle" x="1584" y="-62" font-family="Helvetica,sans-Serif" font-size="10.00">src/dialogs/ConfigDialogue.h</text>
</a>
</g>
</g>
<!-- Node2&#45;&gt;Node5 -->
<g id="edge4" class="edge">
<title>Node2&#45;&gt;Node5</title>
<path fill="none" stroke="#63b8ff" d="M1801.06,-236.99C1679.14,-232.49 1466.52,-221 1443,-195 1398.18,-145.46 1510.67,-93.88 1561.07,-74"/>
<polygon fill="#63b8ff" stroke="#63b8ff" points="1801,-240.49 1811.12,-237.35 1801.25,-233.49 1801,-240.49"/>
</g>
<!-- Node9 -->
<g id="node9" class="node">
<title>Node9</title>
<g id="a_node9"><a xlink:href="DiffFrame_8h_source.html" target="_top" xlink:title=" ">
<polygon fill="white" stroke="#666666" points="1488.5,-74 1359.5,-74 1359.5,-55 1488.5,-55 1488.5,-74"/>
<text text-anchor="middle" x="1424" y="-62" font-family="Helvetica,sans-Serif" font-size="10.00">src/dialogs/DiffFrame.h</text>
</a>
</g>
</g>
<!-- Node2&#45;&gt;Node9 -->
<g id="edge8" class="edge">
<title>Node2&#45;&gt;Node9</title>
<path fill="none" stroke="#63b8ff" d="M1801.21,-240.25C1628.47,-240.87 1248.67,-237.36 1209,-195 1151.52,-133.61 1302.91,-91.18 1380.9,-74.02"/>
<polygon fill="#63b8ff" stroke="#63b8ff" points="1801.3,-243.74 1811.28,-240.2 1801.27,-236.75 1801.3,-243.74"/>
</g>
<!-- Node10 -->
<g id="node10" class="node">
<title>Node10</title>
<g id="a_node10"><a xlink:href="Printout_8cpp.html" target="_top" xlink:title="This file defines the class MathPrintOut.">
<polygon fill="white" stroke="#666666" points="1161.5,-189.5 1006.5,-189.5 1006.5,-170.5 1161.5,-170.5 1161.5,-189.5"/>
<text text-anchor="middle" x="1084" y="-177.5" font-family="Helvetica,sans-Serif" font-size="10.00">src/graphical_io/Printout.cpp</text>
</a>
</g>
</g>
<!-- Node2&#45;&gt;Node10 -->
<g id="edge12" class="edge">
<title>Node2&#45;&gt;Node10</title>
<path fill="none" stroke="#63b8ff" d="M1801.31,-236.61C1667.99,-231.53 1401.16,-219.14 1176,-195 1162.51,-193.55 1147.96,-191.55 1134.51,-189.51"/>
<polygon fill="#63b8ff" stroke="#63b8ff" points="1801.33,-240.12 1811.45,-237 1801.59,-233.12 1801.33,-240.12"/>
</g>
<!-- Node11 -->
<g id="node11" class="node">
<title>Node11</title>
<g id="a_node11"><a xlink:href="Worksheet_8cpp.html" target="_top" xlink:title="This file defines the class Worksheet.">
<polygon fill="white" stroke="#666666" points="492,-74 332,-74 332,-55 492,-55 492,-74"/>
<text text-anchor="middle" x="412" y="-62" font-family="Helvetica,sans-Serif" font-size="10.00">src/worksheet/Worksheet.cpp</text>
</a>
</g>
</g>
<!-- Node2&#45;&gt;Node11 -->
<g id="edge13" class="edge">
<title>Node2&#45;&gt;Node11</title>
<path fill="none" stroke="#63b8ff" d="M1800.94,-238.39C1571.19,-235.04 941.64,-223.46 736,-195 611.92,-177.83 567.45,-196.6 462,-129 440.26,-115.07 423.94,-88.36 416.48,-74.44"/>
<polygon fill="#63b8ff" stroke="#63b8ff" points="1801.2,-241.89 1811.25,-238.54 1801.3,-234.89 1801.2,-241.89"/>
</g>
<!-- Node12 -->
<g id="node12" class="node">
<title>Node12</title>
<g id="a_node12"><a xlink:href="WorksheetContextMenu_8cpp.html" target="_top" xlink:title="The worksheet&#39;s right&#45;click context menu (see WorksheetContextMenu.h).">
<polygon fill="white" stroke="#666666" points="1396,-195 1218,-195 1218,-165 1396,-165 1396,-195"/>
<text text-anchor="start" x="1226" y="-183" font-family="Helvetica,sans-Serif" font-size="10.00">src/worksheet/WorksheetContext</text>
<text text-anchor="middle" x="1307" y="-172" font-family="Helvetica,sans-Serif" font-size="10.00">Menu.cpp</text>
</a>
</g>
</g>
<!-- Node2&#45;&gt;Node12 -->
<g id="edge14" class="edge">
<title>Node2&#45;&gt;Node12</title>
<path fill="none" stroke="#63b8ff" d="M1801.13,-232.64C1705.84,-224.7 1546.64,-210.67 1410,-195 1405.43,-194.48 1400.75,-193.92 1396.02,-193.34"/>
<polygon fill="#63b8ff" stroke="#63b8ff" points="1801.03,-236.15 1811.29,-233.49 1801.61,-229.17 1801.03,-236.15"/>
</g>
<!-- Node13 -->
<g id="node13" class="node">
<title>Node13</title>
<g id="a_node13"><a xlink:href="wxMaximaFrame_8h.html" target="_top" xlink:title="This file declares the class wxMaximaFrame.">
<polygon fill="white" stroke="#666666" points="873,-189.5 745,-189.5 745,-170.5 873,-170.5 873,-189.5"/>
<text text-anchor="middle" x="809" y="-177.5" font-family="Helvetica,sans-Serif" font-size="10.00">src/wxMaximaFrame.h</text>
</a>
</g>
</g>
<!-- Node2&#45;&gt;Node13 -->
<g id="edge15" class="edge">
<title>Node2&#45;&gt;Node13</title>
<path fill="none" stroke="#63b8ff" d="M1801.19,-235.94C1643.01,-229.15 1292.24,-213.38 997,-195 955.84,-192.44 909.65,-189.01 873.36,-186.18"/>
<polygon fill="#63b8ff" stroke="#63b8ff" points="1801.19,-239.45 1811.33,-236.38 1801.49,-232.45 1801.19,-239.45"/>
</g>
<!-- Node24 -->
<g id="node24" class="node">
<title>Node24</title>
<g id="a_node24"><a xlink:href="test__Accessibility_8cpp.html" target="_top" xlink:title="Logic&#45;level regression tests for wxMaxima&#39;s custom wxAccessible classes.">
<polygon fill="white" stroke="#666666" points="1560,-195 1452,-195 1452,-165 1560,-165 1560,-195"/>
<text text-anchor="start" x="1460" y="-183" font-family="Helvetica,sans-Serif" font-size="10.00">test/unit_tests/test</text>
<text text-anchor="middle" x="1506" y="-172" font-family="Helvetica,sans-Serif" font-size="10.00">_Accessibility.cpp</text>
</a>
</g>
</g>
<!-- Node2&#45;&gt;Node24 -->
<g id="edge37" class="edge">
<title>Node2&#45;&gt;Node24</title>
<path fill="none" stroke="#63b8ff" d="M1803.29,-229.71C1739.15,-221.68 1648.16,-209.33 1569,-195 1566.13,-194.48 1563.2,-193.92 1560.24,-193.34"/>
<polygon fill="#63b8ff" stroke="#63b8ff" points="1802.99,-233.2 1813.35,-230.96 1803.85,-226.25 1802.99,-233.2"/>
</g>
<!-- Node25 -->
<g id="node25" class="node">
<title>Node25</title>
<g id="a_node25"><a xlink:href="test__EditorCellInvariants_8cpp.html" target="_top" xlink:title="Hardening tests for EditorCell&#39;s text&#45;editing core.">
<polygon fill="white" stroke="#666666" points="1716,-195 1578,-195 1578,-165 1716,-165 1716,-195"/>
<text text-anchor="start" x="1586" y="-183" font-family="Helvetica,sans-Serif" font-size="10.00">test/unit_tests/test</text>
<text text-anchor="middle" x="1647" y="-172" font-family="Helvetica,sans-Serif" font-size="10.00">_EditorCellInvariants.cpp</text>
</a>
</g>
</g>
<!-- Node2&#45;&gt;Node25 -->
<g id="edge38" class="edge">
<title>Node2&#45;&gt;Node25</title>
<path fill="none" stroke="#63b8ff" d="M1841.32,-228.56C1802.64,-219.1 1746.47,-205.35 1704.46,-195.06"/>
<polygon fill="#63b8ff" stroke="#63b8ff" points="1840.7,-232.02 1851.25,-230.99 1842.37,-225.22 1840.7,-232.02"/>
</g>
<!-- Node26 -->
<g id="node26" class="node">
<title>Node26</title>
<g id="a_node26"><a xlink:href="test__EvalQueueCommands_8cpp.html" target="_top" xlink:title="Command&#45;level behavior of the EvaluationQueue: how a GroupCell&#39;s input is broken into the individual ...">
<polygon fill="white" stroke="#666666" points="1884,-195 1734,-195 1734,-165 1884,-165 1884,-195"/>
<text text-anchor="start" x="1742" y="-183" font-family="Helvetica,sans-Serif" font-size="10.00">test/unit_tests/test</text>
<text text-anchor="middle" x="1809" y="-172" font-family="Helvetica,sans-Serif" font-size="10.00">_EvalQueueCommands.cpp</text>
</a>
</g>
</g>
<!-- Node2&#45;&gt;Node26 -->
<g id="edge39" class="edge">
<title>Node2&#45;&gt;Node26</title>
<path fill="none" stroke="#63b8ff" d="M1866.61,-224.77C1854.65,-215.68 1839.39,-204.09 1827.58,-195.11"/>
<polygon fill="#63b8ff" stroke="#63b8ff" points="1864.56,-227.61 1874.64,-230.87 1868.79,-222.03 1864.56,-227.61"/>
</g>
<!-- Node27 -->
<g id="node27" class="node">
<title>Node27</title>
<g id="a_node27"><a xlink:href="test__GroupCellLayout_8cpp.html" target="_top" xlink:title="Regression tests for the GroupCell &lt;&#45;&gt; EditorCell layout coupling.">
<polygon fill="white" stroke="#666666" points="2025.5,-195 1902.5,-195 1902.5,-165 2025.5,-165 2025.5,-195"/>
<text text-anchor="start" x="1910.5" y="-183" font-family="Helvetica,sans-Serif" font-size="10.00">test/unit_tests/test</text>
<text text-anchor="middle" x="1964" y="-172" font-family="Helvetica,sans-Serif" font-size="10.00">_GroupCellLayout.cpp</text>
</a>
</g>
</g>
<!-- Node2&#45;&gt;Node27 -->
<g id="edge40" class="edge">
<title>Node2&#45;&gt;Node27</title>
<path fill="none" stroke="#63b8ff" d="M1905.64,-224.77C1917.76,-215.68 1933.22,-204.09 1945.18,-195.11"/>
<polygon fill="#63b8ff" stroke="#63b8ff" points="1903.41,-222.07 1897.51,-230.87 1907.61,-227.67 1903.41,-222.07"/>
</g>
<!-- Node28 -->
<g id="node28" class="node">
<title>Node28</title>
<g id="a_node28"><a xlink:href="test__LayoutInvariants_8cpp.html" target="_top" xlink:title="Layout idempotency invariants.">
<polygon fill="white" stroke="#666666" points="2168,-195 2044,-195 2044,-165 2168,-165 2168,-195"/>
<text text-anchor="start" x="2052" y="-183" font-family="Helvetica,sans-Serif" font-size="10.00">test/unit_tests/test</text>
<text text-anchor="middle" x="2106" y="-172" font-family="Helvetica,sans-Serif" font-size="10.00">_LayoutInvariants.cpp</text>
</a>
</g>
</g>
<!-- Node2&#45;&gt;Node28 -->
<g id="edge41" class="edge">
<title>Node2&#45;&gt;Node28</title>
<path fill="none" stroke="#63b8ff" d="M1928.04,-228.32C1963.61,-218.86 2014.76,-205.26 2053.11,-195.06"/>
<polygon fill="#63b8ff" stroke="#63b8ff" points="1926.75,-225.04 1917.99,-230.99 1928.55,-231.81 1926.75,-225.04"/>
</g>
<!-- Node29 -->
<g id="node29" class="node">
<title>Node29</title>
<g id="a_node29"><a xlink:href="test__TreeUndo_8cpp.html" target="_top" xlink:title="Regression tests for the worksheet&#39;s cell&#45;tree undo/redo (the TreeUndo_* subsystem of Worksheet).">
<polygon fill="white" stroke="#666666" points="2294,-195 2186,-195 2186,-165 2294,-165 2294,-195"/>
<text text-anchor="start" x="2194" y="-183" font-family="Helvetica,sans-Serif" font-size="10.00">test/unit_tests/test</text>
<text text-anchor="middle" x="2240" y="-172" font-family="Helvetica,sans-Serif" font-size="10.00">_TreeUndo.cpp</text>
</a>
</g>
</g>
<!-- Node2&#45;&gt;Node29 -->
<g id="edge42" class="edge">
<title>Node2&#45;&gt;Node29</title>
<path fill="none" stroke="#63b8ff" d="M1959.75,-229.61C2018.72,-221.37 2103.4,-208.79 2177,-195 2179.86,-194.46 2182.79,-193.89 2185.75,-193.3"/>
<polygon fill="#63b8ff" stroke="#63b8ff" points="1959.21,-226.15 1949.79,-231 1960.17,-233.09 1959.21,-226.15"/>
</g>
<!-- Node30 -->
<g id="node30" class="node">
<title>Node30</title>
<g id="a_node30"><a xlink:href="test__WXMRoundtrip_8cpp.html" target="_top" xlink:title="Regression tests for images surviving the .wxm serialization round&#45;trip.">
<polygon fill="white" stroke="#666666" points="2427.5,-195 2312.5,-195 2312.5,-165 2427.5,-165 2427.5,-195"/>
<text text-anchor="start" x="2320.5" y="-183" font-family="Helvetica,sans-Serif" font-size="10.00">test/unit_tests/test</text>
<text text-anchor="middle" x="2370" y="-172" font-family="Helvetica,sans-Serif" font-size="10.00">_WXMRoundtrip.cpp</text>
</a>
</g>
</g>
<!-- Node2&#45;&gt;Node30 -->
<g id="edge43" class="edge">
<title>Node2&#45;&gt;Node30</title>
<path fill="none" stroke="#63b8ff" d="M1970.78,-230.91C2083.18,-219.45 2271.1,-200.02 2303,-195 2306.05,-194.52 2309.18,-193.99 2312.32,-193.43"/>
<polygon fill="#63b8ff" stroke="#63b8ff" points="1970.41,-227.43 1960.81,-231.93 1971.12,-234.39 1970.41,-227.43"/>
</g>
<!-- Node31 -->
<g id="node31" class="node">
<title>Node31</title>
<g id="a_node31"><a xlink:href="test__WXMXRoundtrip_8cpp.html" target="_top" xlink:title="Round&#45;trip tests for the .wxmx content.xml (the MathML&#45;like math format).">
<polygon fill="white" stroke="#666666" points="2568,-195 2446,-195 2446,-165 2568,-165 2568,-195"/>
<text text-anchor="start" x="2454" y="-183" font-family="Helvetica,sans-Serif" font-size="10.00">test/unit_tests/test</text>
<text text-anchor="middle" x="2507" y="-172" font-family="Helvetica,sans-Serif" font-size="10.00">_WXMXRoundtrip.cpp</text>
</a>
</g>
</g>
<!-- Node2&#45;&gt;Node31 -->
<g id="edge44" class="edge">
<title>Node2&#45;&gt;Node31</title>
<path fill="none" stroke="#63b8ff" d="M1970.69,-230.97C2179.06,-212.85 2234.01,-223.02 2437,-195 2439.95,-194.59 2442.96,-194.14 2445.99,-193.65"/>
<polygon fill="#63b8ff" stroke="#63b8ff" points="1970.3,-227.49 1960.65,-231.85 1970.91,-234.46 1970.3,-227.49"/>
</g>
<!-- Node32 -->
<g id="node32" class="node">
<title>Node32</title>
<g id="a_node32"><a xlink:href="test__WorksheetClipboard_8cpp.html" target="_top" xlink:title="Safety net for the multi&#45;format clipboard / drag&#45;and&#45;drop payload of Worksheet.">
<polygon fill="white" stroke="#666666" points="2726,-195 2586,-195 2586,-165 2726,-165 2726,-195"/>
<text text-anchor="start" x="2594" y="-183" font-family="Helvetica,sans-Serif" font-size="10.00">test/unit_tests/test</text>
<text text-anchor="middle" x="2656" y="-172" font-family="Helvetica,sans-Serif" font-size="10.00">_WorksheetClipboard.cpp</text>
</a>
</g>
</g>
<!-- Node2&#45;&gt;Node32 -->
<g id="edge45" class="edge">
<title>Node2&#45;&gt;Node32</title>
<path fill="none" stroke="#63b8ff" d="M1970.76,-230.98C2241.11,-209.8 2311.88,-226.25 2577,-195 2579.9,-194.66 2582.86,-194.28 2585.85,-193.87"/>
<polygon fill="#63b8ff" stroke="#63b8ff" points="1970.33,-227.5 1960.64,-231.78 1970.89,-234.48 1970.33,-227.5"/>
</g>
<!-- Node33 -->
<g id="node33" class="node">
<title>Node33</title>
<g id="a_node33"><a xlink:href="test__WorksheetContextMenu_8cpp.html" target="_top" xlink:title="Regression tests for the worksheet&#39;s right&#45;click context menu.">
<polygon fill="white" stroke="#666666" points="2903.5,-195 2744.5,-195 2744.5,-165 2903.5,-165 2903.5,-195"/>
<text text-anchor="start" x="2752.5" y="-183" font-family="Helvetica,sans-Serif" font-size="10.00">test/unit_tests/test</text>
<text text-anchor="middle" x="2824" y="-172" font-family="Helvetica,sans-Serif" font-size="10.00">_WorksheetContextMenu.cpp</text>
</a>
</g>
</g>
<!-- Node2&#45;&gt;Node33 -->
<g id="edge46" class="edge">
<title>Node2&#45;&gt;Node33</title>
<path fill="none" stroke="#63b8ff" d="M1970.78,-230.99C2311.17,-206.31 2399.68,-229.16 2735,-195 2738.11,-194.68 2741.28,-194.33 2744.48,-193.95"/>
<polygon fill="#63b8ff" stroke="#63b8ff" points="1970.35,-227.51 1960.64,-231.74 1970.87,-234.5 1970.35,-227.51"/>
</g>
<!-- Node34 -->
<g id="node34" class="node">
<title>Node34</title>
<g id="a_node34"><a xlink:href="test__WorksheetCursor_8cpp.html" target="_top" xlink:title="Pins the worksheet&#39;s cursor model before it is gathered into a cursor class.">
<polygon fill="white" stroke="#666666" points="3046.5,-195 2921.5,-195 2921.5,-165 3046.5,-165 3046.5,-195"/>
<text text-anchor="start" x="2929.5" y="-183" font-family="Helvetica,sans-Serif" font-size="10.00">test/unit_tests/test</text>
<text text-anchor="middle" x="2984" y="-172" font-family="Helvetica,sans-Serif" font-size="10.00">_WorksheetCursor.cpp</text>
</a>
</g>
</g>
<!-- Node2&#45;&gt;Node34 -->
<g id="edge47" class="edge">
<title>Node2&#45;&gt;Node34</title>
<path fill="none" stroke="#63b8ff" d="M1970.91,-231C2390.16,-202.54 2499.78,-243.33 2913,-195 2915.75,-194.68 2918.54,-194.31 2921.36,-193.9"/>
<polygon fill="#63b8ff" stroke="#63b8ff" points="1970.37,-227.52 1960.63,-231.7 1970.85,-234.51 1970.37,-227.52"/>
</g>
<!-- Node35 -->
<g id="node35" class="node">
<title>Node35</title>
<g id="a_node35"><a xlink:href="test__WorksheetEvalQueue_8cpp.html" target="_top" xlink:title="Pins the worksheet&#39;s &quot;add cells to the evaluation queue&quot; behavior before the Add*ToEvaluationQueue fa...">
<polygon fill="white" stroke="#666666" points="3211,-195 3065,-195 3065,-165 3211,-165 3211,-195"/>
<text text-anchor="start" x="3073" y="-183" font-family="Helvetica,sans-Serif" font-size="10.00">test/unit_tests/test</text>
<text text-anchor="middle" x="3138" y="-172" font-family="Helvetica,sans-Serif" font-size="10.00">_WorksheetEvalQueue.cpp</text>
</a>
</g>
</g>
<!-- Node2&#45;&gt;Node35 -->
<g id="edge48" class="edge">
<title>Node2&#45;&gt;Node35</title>
<path fill="none" stroke="#63b8ff" d="M1970.66,-231.02C2453.56,-199.28 2578.82,-243.42 3056,-195 3058.87,-194.71 3061.8,-194.38 3064.75,-194.01"/>
<polygon fill="#63b8ff" stroke="#63b8ff" points="1970.38,-227.53 1960.63,-231.68 1970.84,-234.51 1970.38,-227.53"/>
</g>
<!-- Node36 -->
<g id="node36" class="node">
<title>Node36</title>
<g id="a_node36"><a xlink:href="test__WorksheetExport_8cpp.html" target="_top" xlink:title="Safety net for the export/serialization cluster of Worksheet.">
<polygon fill="white" stroke="#666666" points="3354.5,-195 3229.5,-195 3229.5,-165 3354.5,-165 3354.5,-195"/>
<text text-anchor="start" x="3237.5" y="-183" font-family="Helvetica,sans-Serif" font-size="10.00">test/unit_tests/test</text>
<text text-anchor="middle" x="3292" y="-172" font-family="Helvetica,sans-Serif" font-size="10.00">_WorksheetExport.cpp</text>
</a>
</g>
</g>
<!-- Node2&#45;&gt;Node36 -->
<g id="edge49" class="edge">
<title>Node2&#45;&gt;Node36</title>
<path fill="none" stroke="#63b8ff" d="M1970.91,-231.01C2526.38,-195.74 2670.97,-255.87 3220,-195 3223.04,-194.66 3226.14,-194.27 3229.26,-193.82"/>
<polygon fill="#63b8ff" stroke="#63b8ff" points="1970.39,-227.53 1960.63,-231.67 1970.84,-234.52 1970.39,-227.53"/>
</g>
<!-- Node37 -->
<g id="node37" class="node">
<title>Node37</title>
<g id="a_node37"><a xlink:href="test__WorksheetFind_8cpp.html" target="_top" xlink:title="Pins the worksheet&#39;s find/replace behavior before the search engine is extracted into WorksheetSearch...">
<polygon fill="white" stroke="#666666" points="3487,-195 3373,-195 3373,-165 3487,-165 3487,-195"/>
<text text-anchor="start" x="3381" y="-183" font-family="Helvetica,sans-Serif" font-size="10.00">test/unit_tests/test</text>
<text text-anchor="middle" x="3430" y="-172" font-family="Helvetica,sans-Serif" font-size="10.00">_WorksheetFind.cpp</text>
</a>
</g>
</g>
<!-- Node2&#45;&gt;Node37 -->
<g id="edge50" class="edge">
<title>Node2&#45;&gt;Node37</title>
<path fill="none" stroke="#63b8ff" d="M1970.71,-231.02C2590.25,-192.59 2751.81,-267.22 3364,-195 3366.91,-194.66 3369.88,-194.25 3372.87,-193.79"/>
<polygon fill="#63b8ff" stroke="#63b8ff" points="1970.39,-227.53 1960.63,-231.65 1970.83,-234.52 1970.39,-227.53"/>
</g>
<!-- Node6 -->
<g id="node6" class="node">
<title>Node6</title>
<g id="a_node6"><a xlink:href="MaximaCommandMenus_8cpp.html" target="_top" xlink:title="Implementation of the menu&#45;command handlers extracted from wxMaxima &#45; see MaximaCommandMenus....">
<polygon fill="white" stroke="#666666" points="1672,-19 1496,-19 1496,0 1672,0 1672,-19"/>
<text text-anchor="middle" x="1584" y="-7" font-family="Helvetica,sans-Serif" font-size="10.00">src/MaximaCommandMenus.cpp</text>
</a>
</g>
</g>
<!-- Node5&#45;&gt;Node6 -->
<g id="edge5" class="edge">
<title>Node5&#45;&gt;Node6</title>
<path fill="none" stroke="#63b8ff" d="M1584,-44.66C1584,-35.93 1584,-25.99 1584,-19.09"/>
<polygon fill="#63b8ff" stroke="#63b8ff" points="1580.5,-44.75 1584,-54.75 1587.5,-44.75 1580.5,-44.75"/>
</g>
<!-- Node7 -->
<g id="node7" class="node">
<title>Node7</title>
<g id="a_node7"><a xlink:href="main_8cpp.html" target="_top" xlink:title="The file that defines the starting point of the program.">
<polygon fill="white" stroke="#666666" points="868.5,-19 789.5,-19 789.5,0 868.5,0 868.5,-19"/>
<text text-anchor="middle" x="829" y="-7" font-family="Helvetica,sans-Serif" font-size="10.00">src/main.cpp</text>
</a>
</g>
</g>
<!-- Node5&#45;&gt;Node7 -->
<g id="edge6" class="edge">
<title>Node5&#45;&gt;Node7</title>
<path fill="none" stroke="#63b8ff" d="M1496.05,-54.95C1250.86,-34.96 970.52,-18.49 868.56,-12.71"/>
<polygon fill="#63b8ff" stroke="#63b8ff" points="1495.97,-58.45 1506.22,-55.78 1496.54,-51.48 1495.97,-58.45"/>
</g>
<!-- Node8 -->
<g id="node8" class="node">
<title>Node8</title>
<g id="a_node8"><a xlink:href="wxMaxima_8cpp.html" target="_top" xlink:title="This file defines the contents of the class wxMaxima that contains most of the program&#39;s logic.">
<polygon fill="white" stroke="#666666" points="1317,-19 1209,-19 1209,0 1317,0 1317,-19"/>
<text text-anchor="middle" x="1263" y="-7" font-family="Helvetica,sans-Serif" font-size="10.00">src/wxMaxima.cpp</text>
</a>
</g>
</g>
<!-- Node5&#45;&gt;Node8 -->
<g id="edge7" class="edge">
<title>Node5&#45;&gt;Node8</title>
<path fill="none" stroke="#63b8ff" d="M1522.28,-53.31C1462,-43.36 1371.31,-28.38 1314.71,-19.04"/>
<polygon fill="#63b8ff" stroke="#63b8ff" points="1521.99,-56.81 1532.43,-54.98 1523.13,-49.9 1521.99,-56.81"/>
</g>
<!-- Node9&#45;&gt;Node6 -->
<g id="edge9" class="edge">
<title>Node9&#45;&gt;Node6</title>
<path fill="none" stroke="#63b8ff" d="M1459.33,-51.8C1489.19,-41.91 1531.27,-27.97 1558.09,-19.08"/>
<polygon fill="#63b8ff" stroke="#63b8ff" points="1458.1,-48.52 1449.71,-54.98 1460.3,-55.16 1458.1,-48.52"/>
</g>
<!-- Node9&#45;&gt;Node7 -->
<g id="edge10" class="edge">
<title>Node9&#45;&gt;Node7</title>
<path fill="none" stroke="#63b8ff" d="M1349.45,-54.97C1162.96,-36.44 954.14,-20.02 868.58,-13.48"/>
<polygon fill="#63b8ff" stroke="#63b8ff" points="1349.14,-58.46 1359.44,-55.97 1349.84,-51.5 1349.14,-58.46"/>
</g>
<!-- Node9&#45;&gt;Node8 -->
<g id="edge11" class="edge">
<title>Node9&#45;&gt;Node8</title>
<path fill="none" stroke="#63b8ff" d="M1388.45,-51.8C1358.41,-41.91 1316.06,-27.97 1289.07,-19.08"/>
<polygon fill="#63b8ff" stroke="#63b8ff" points="1387.54,-55.18 1398.13,-54.98 1389.73,-48.53 1387.54,-55.18"/>
</g>
<!-- Node13&#45;&gt;Node11 -->
<g id="edge23" class="edge">
<title>Node13&#45;&gt;Node11</title>
<path fill="none" stroke="#63b8ff" d="M734.79,-176.73C670.27,-172.53 575.41,-160.88 499,-129 466.9,-115.61 435.52,-88.16 420.76,-74.14"/>
<polygon fill="#63b8ff" stroke="#63b8ff" points="734.68,-180.23 744.88,-177.35 735.11,-173.25 734.68,-180.23"/>
</g>
<!-- Node14 -->
<g id="node14" class="node">
<title>Node14</title>
<g id="a_node14"><a xlink:href="AutocompletePopup_8cpp.html" target="_top" xlink:title="This file defines the class AutocompletePopup.">
<polygon fill="white" stroke="#666666" points="668,-129 516,-129 516,-110 668,-110 668,-129"/>
<text text-anchor="middle" x="592" y="-117" font-family="Helvetica,sans-Serif" font-size="10.00">src/AutocompletePopup.cpp</text>
</a>
</g>
</g>
<!-- Node13&#45;&gt;Node14 -->
<g id="edge16" class="edge">
<title>Node13&#45;&gt;Node14</title>
<path fill="none" stroke="#63b8ff" d="M767.54,-167.82C725.58,-156.51 661.62,-139.27 623.59,-129.02"/>
<polygon fill="#63b8ff" stroke="#63b8ff" points="766.88,-171.27 777.45,-170.49 768.7,-164.51 766.88,-171.27"/>
</g>
<!-- Node15 -->
<g id="node15" class="node">
<title>Node15</title>
<g id="a_node15"><a xlink:href="EditorCell_8cpp.html" target="_top" xlink:title="This file defines the class EditorCell.">
<polygon fill="white" stroke="#666666" points="1341.5,-74 1214.5,-74 1214.5,-55 1341.5,-55 1341.5,-74"/>
<text text-anchor="middle" x="1278" y="-62" font-family="Helvetica,sans-Serif" font-size="10.00">src/cells/EditorCell.cpp</text>
</a>
</g>
</g>
<!-- Node13&#45;&gt;Node15 -->
<g id="edge17" class="edge">
<title>Node13&#45;&gt;Node15</title>
<path fill="none" stroke="#63b8ff" d="M883.52,-172.94C949.75,-166.26 1048.7,-153.12 1132,-129 1133.63,-128.53 1218.78,-91.37 1258.27,-74.12"/>
<polygon fill="#63b8ff" stroke="#63b8ff" points="882.79,-169.49 873.18,-173.95 883.47,-176.46 882.79,-169.49"/>
</g>
<!-- Node16 -->
<g id="node16" class="node">
<title>Node16</title>
<g id="a_node16"><a xlink:href="main_8h.html" target="_top" xlink:title="This file declares the class wxMaxima that contains most of the program&#39;s logic.">
<polygon fill="white" stroke="#666666" points="578,-74 510,-74 510,-55 578,-55 578,-74"/>
<text text-anchor="middle" x="544" y="-62" font-family="Helvetica,sans-Serif" font-size="10.00">src/main.h</text>
</a>
</g>
</g>
<!-- Node13&#45;&gt;Node16 -->
<g id="edge18" class="edge">
<title>Node13&#45;&gt;Node16</title>
<path fill="none" stroke="#63b8ff" d="M734.74,-177.32C654.93,-173.76 535.64,-162.77 507,-129 492.06,-111.39 516.74,-86.94 532.49,-74.12"/>
<polygon fill="#63b8ff" stroke="#63b8ff" points="734.62,-180.82 744.76,-177.74 734.91,-173.82 734.62,-180.82"/>
</g>
<!-- Node18 -->
<g id="node18" class="node">
<title>Node18</title>
<g id="a_node18"><a xlink:href="GreekSidebar_8cpp.html" target="_top" xlink:title="This file defines the class GreekSidebar.">
<polygon fill="white" stroke="#666666" points="966,-129 802,-129 802,-110 966,-110 966,-129"/>
<text text-anchor="middle" x="884" y="-117" font-family="Helvetica,sans-Serif" font-size="10.00">src/sidebars/GreekSidebar.cpp</text>
</a>
</g>
</g>
<!-- Node13&#45;&gt;Node18 -->
<g id="edge22" class="edge">
<title>Node13&#45;&gt;Node18</title>
<path fill="none" stroke="#63b8ff" d="M828.18,-164.04C842.35,-152.99 861.13,-138.34 872.89,-129.17"/>
<polygon fill="#63b8ff" stroke="#63b8ff" points="825.8,-161.46 820.07,-170.37 830.1,-166.98 825.8,-161.46"/>
</g>
<!-- Node19 -->
<g id="node19" class="node">
<title>Node19</title>
<g id="a_node19"><a xlink:href="wxMaxima_8h.html" target="_top" xlink:title="This file declares the class wxMaxima that contains most of the program&#39;s logic.">
<polygon fill="white" stroke="#666666" points="783.5,-129 686.5,-129 686.5,-110 783.5,-110 783.5,-129"/>
<text text-anchor="middle" x="735" y="-117" font-family="Helvetica,sans-Serif" font-size="10.00">src/wxMaxima.h</text>
</a>
</g>
</g>
<!-- Node13&#45;&gt;Node19 -->
<g id="edge24" class="edge">
<title>Node13&#45;&gt;Node19</title>
<path fill="none" stroke="#63b8ff" d="M790.07,-164.04C776.1,-152.99 757.57,-138.34 745.96,-129.17"/>
<polygon fill="#63b8ff" stroke="#63b8ff" points="788.07,-166.91 798.08,-170.37 792.41,-161.42 788.07,-166.91"/>
</g>
<!-- Node23 -->
<g id="node23" class="node">
<title>Node23</title>
<g id="a_node23"><a xlink:href="wxMaximaFrame_8cpp.html" target="_top" xlink:title="This file defines the class wxMaximaFrame.">
<polygon fill="white" stroke="#666666" points="1123.5,-129 984.5,-129 984.5,-110 1123.5,-110 1123.5,-129"/>
<text text-anchor="middle" x="1054" y="-117" font-family="Helvetica,sans-Serif" font-size="10.00">src/wxMaximaFrame.cpp</text>
</a>
</g>
</g>
<!-- Node13&#45;&gt;Node23 -->
<g id="edge36" class="edge">
<title>Node13&#45;&gt;Node23</title>
<path fill="none" stroke="#63b8ff" d="M854.61,-168.11C901.96,-156.8 975.04,-139.35 1018.33,-129.02"/>
<polygon fill="#63b8ff" stroke="#63b8ff" points="853.54,-164.77 844.63,-170.49 855.16,-171.58 853.54,-164.77"/>
</g>
<!-- Node16&#45;&gt;Node7 -->
<g id="edge20" class="edge">
<title>Node16&#45;&gt;Node7</title>
<path fill="none" stroke="#63b8ff" d="M588.25,-55.27C643.32,-45.03 736.56,-27.69 789.38,-17.87"/>
<polygon fill="#63b8ff" stroke="#63b8ff" points="587.29,-51.89 578.09,-57.16 588.57,-58.77 587.29,-51.89"/>
</g>
<!-- Node16&#45;&gt;Node8 -->
<g id="edge21" class="edge">
<title>Node16&#45;&gt;Node8</title>
<path fill="none" stroke="#63b8ff" d="M588.63,-58.85C601.94,-57.52 616.55,-56.14 630,-55 844.06,-36.9 1099.29,-20.55 1208.77,-13.79"/>
<polygon fill="#63b8ff" stroke="#63b8ff" points="587.89,-55.4 578.3,-59.89 588.6,-62.37 587.89,-55.4"/>
</g>
<!-- Node17 -->
<g id="node17" class="node">
<title>Node17</title>
<g id="a_node17"><a xlink:href="MaximaManual_8cpp.html" target="_top" xlink:title="This file defines the class MaximaManual.">
<polygon fill="white" stroke="#666666" points="609,-19 479,-19 479,0 609,0 609,-19"/>
<text text-anchor="middle" x="544" y="-7" font-family="Helvetica,sans-Serif" font-size="10.00">src/MaximaManual.cpp</text>
</a>
</g>
</g>
<!-- Node16&#45;&gt;Node17 -->
<g id="edge19" class="edge">
<title>Node16&#45;&gt;Node17</title>
<path fill="none" stroke="#63b8ff" d="M544,-44.66C544,-35.93 544,-25.99 544,-19.09"/>
<polygon fill="#63b8ff" stroke="#63b8ff" points="540.5,-44.75 544,-54.75 547.5,-44.75 540.5,-44.75"/>
</g>
<!-- Node19&#45;&gt;Node3 -->
<g id="edge27" class="edge">
<title>Node19&#45;&gt;Node3</title>
<path fill="none" stroke="#63b8ff" d="M676.11,-110C433.43,-84.68 369.82,-96.36 131,-74 128.07,-73.73 125.08,-73.43 122.06,-73.12"/>
<polygon fill="#63b8ff" stroke="#63b8ff" points="675.99,-113.51 686.3,-111.08 676.72,-106.55 675.99,-113.51"/>
</g>
<!-- Node19&#45;&gt;Node4 -->
<g id="edge28" class="edge">
<title>Node19&#45;&gt;Node4</title>
<path fill="none" stroke="#63b8ff" d="M676.24,-109.98C593.88,-100.21 419.57,-83.54 313.64,-73.58"/>
<polygon fill="#63b8ff" stroke="#63b8ff" points="675.94,-113.47 686.29,-111.19 676.78,-106.52 675.94,-113.47"/>
</g>
<!-- Node19&#45;&gt;Node6 -->
<g id="edge25" class="edge">
<title>Node19&#45;&gt;Node6</title>
<path fill="none" stroke="#63b8ff" d="M793.75,-110.38C902.47,-105.69 1637.55,-107.81 1670,-74 1692.1,-50.97 1645.68,-30.22 1612.84,-19.08"/>
<polygon fill="#63b8ff" stroke="#63b8ff" points="793.46,-106.89 783.69,-110.99 793.88,-113.88 793.46,-106.89"/>
</g>
<!-- Node19&#45;&gt;Node7 -->
<g id="edge32" class="edge">
<title>Node19&#45;&gt;Node7</title>
<path fill="none" stroke="#63b8ff" d="M684.24,-107.29C648.5,-97 610.28,-79.62 630,-55 649.59,-30.55 737.22,-18.64 789.44,-13.61"/>
<polygon fill="#63b8ff" stroke="#63b8ff" points="683.63,-110.75 694.2,-110 685.47,-103.99 683.63,-110.75"/>
</g>
<!-- Node19&#45;&gt;Node8 -->
<g id="edge35" class="edge">
<title>Node19&#45;&gt;Node8</title>
<path fill="none" stroke="#63b8ff" d="M702.8,-105.85C676.13,-93.6 645.25,-74.12 663,-55 699.71,-15.46 1068.04,-10.76 1208.75,-10.42"/>
<polygon fill="#63b8ff" stroke="#63b8ff" points="701.41,-109.06 711.98,-109.87 704.22,-102.65 701.41,-109.06"/>
</g>
<!-- Node19&#45;&gt;Node11 -->
<g id="edge34" class="edge">
<title>Node19&#45;&gt;Node11</title>
<path fill="none" stroke="#63b8ff" d="M676.12,-108.84C615.52,-98.9 522.02,-83.55 464.05,-74.04"/>
<polygon fill="#63b8ff" stroke="#63b8ff" points="675.86,-112.34 686.29,-110.51 676.99,-105.43 675.86,-112.34"/>
</g>
<!-- Node19&#45;&gt;Node15 -->
<g id="edge31" class="edge">
<title>Node19&#45;&gt;Node15</title>
<path fill="none" stroke="#63b8ff" d="M793.69,-109.99C977.25,-88.8 1025.35,-92.3 1205,-74 1208.05,-73.69 1211.16,-73.36 1214.31,-73.03"/>
<polygon fill="#63b8ff" stroke="#63b8ff" points="793.24,-106.52 783.71,-111.15 794.04,-113.47 793.24,-106.52"/>
</g>
<!-- Node19&#45;&gt;Node16 -->
<g id="edge33" class="edge">
<title>Node19&#45;&gt;Node16</title>
<path fill="none" stroke="#63b8ff" d="M694.22,-107.18C658.5,-97.27 607.37,-83.08 574.93,-74.08"/>
<polygon fill="#63b8ff" stroke="#63b8ff" points="693.74,-110.68 704.31,-109.98 695.61,-103.94 693.74,-110.68"/>
</g>
<!-- Node20 -->
<g id="node20" class="node">
<title>Node20</title>
<g id="a_node20"><a xlink:href="MaximaEvaluator_8cpp.html" target="_top" xlink:title="Implements the evaluation&#45;queue driver extracted from the wxMaxima god class.">
<polygon fill="white" stroke="#666666" points="812,-74 672,-74 672,-55 812,-55 812,-74"/>
<text text-anchor="middle" x="742" y="-62" font-family="Helvetica,sans-Serif" font-size="10.00">src/MaximaEvaluator.cpp</text>
</a>
</g>
</g>
<!-- Node19&#45;&gt;Node20 -->
<g id="edge26" class="edge">
<title>Node19&#45;&gt;Node20</title>
<path fill="none" stroke="#63b8ff" d="M737.49,-99.66C738.64,-90.93 739.95,-80.99 740.87,-74.09"/>
<polygon fill="#63b8ff" stroke="#63b8ff" points="734,-99.38 736.16,-109.75 740.94,-100.29 734,-99.38"/>
</g>
<!-- Node21 -->
<g id="node21" class="node">
<title>Node21</title>
<g id="a_node21"><a xlink:href="MaximaProcessManager_8cpp.html" target="_top" xlink:title="Implements the Maxima process/socket lifecycle extracted from the wxMaxima god class.">
<polygon fill="white" stroke="#666666" points="1003.5,-74 830.5,-74 830.5,-55 1003.5,-55 1003.5,-74"/>
<text text-anchor="middle" x="917" y="-62" font-family="Helvetica,sans-Serif" font-size="10.00">src/MaximaProcessManager.cpp</text>
</a>
</g>
</g>
<!-- Node19&#45;&gt;Node21 -->
<g id="edge29" class="edge">
<title>Node19&#45;&gt;Node21</title>
<path fill="none" stroke="#63b8ff" d="M773.86,-107.18C807.9,-97.27 856.62,-83.08 887.53,-74.08"/>
<polygon fill="#63b8ff" stroke="#63b8ff" points="772.86,-103.83 764.24,-109.98 774.82,-110.55 772.86,-103.83"/>
</g>
<!-- Node22 -->
<g id="node22" class="node">
<title>Node22</title>
<g id="a_node22"><a xlink:href="MaximaResponseReader_8cpp.html" target="_top" xlink:title="Implements the Maxima&#45;response handlers extracted from the wxMaxima god class.">
<polygon fill="white" stroke="#666666" points="1196.5,-74 1021.5,-74 1021.5,-55 1196.5,-55 1196.5,-74"/>
<text text-anchor="middle" x="1109" y="-62" font-family="Helvetica,sans-Serif" font-size="10.00">src/MaximaResponseReader.cpp</text>
</a>
</g>
</g>
<!-- Node19&#45;&gt;Node22 -->
<g id="edge30" class="edge">
<title>Node19&#45;&gt;Node22</title>
<path fill="none" stroke="#63b8ff" d="M793.78,-109.9C888.53,-96.3 986.33,-82.59 1047.82,-74.01"/>
<polygon fill="#63b8ff" stroke="#63b8ff" points="793.13,-106.45 783.73,-111.34 794.13,-113.38 793.13,-106.45"/>
</g>
<!-- Node38&#45;&gt;Node2 -->
<g id="edge52" class="edge">
<title>Node38&#45;&gt;Node2</title>
<path fill="none" stroke="#63b8ff" d="M1983.88,-282.03C1960.21,-272.23 1927.85,-258.83 1906.94,-250.17"/>
<polygon fill="#63b8ff" stroke="#63b8ff" points="1982.86,-285.39 1993.43,-285.98 1985.53,-278.93 1982.86,-285.39"/>
</g>
<!-- Node39 -->
<g id="node39" class="node">
<title>Node39</title>
<g id="a_node39"><a xlink:href="WorksheetDocument_8cpp.html" target="_top" xlink:title="Implementation of WorksheetDocument&#39;s structural edits &#45; see WorksheetDocument.h.">
<polygon fill="white" stroke="#666666" points="2189,-250 1979,-250 1979,-231 2189,-231 2189,-250"/>
<text text-anchor="middle" x="2084" y="-238" font-family="Helvetica,sans-Serif" font-size="10.00">src/worksheet/WorksheetDocument.cpp</text>
</a>
</g>
</g>
<!-- Node38&#45;&gt;Node39 -->
<g id="edge53" class="edge">
<title>Node38&#45;&gt;Node39</title>
<path fill="none" stroke="#63b8ff" d="M2033.31,-279.88C2045.91,-270.34 2061.93,-258.21 2072.55,-250.17"/>
<polygon fill="#63b8ff" stroke="#63b8ff" points="2031.11,-277.16 2025.25,-285.98 2035.33,-282.74 2031.11,-277.16"/>
</g>
</g>
</svg>
