<?xml version="1.0" encoding="UTF-8" standalone="no"?>
<!DOCTYPE svg PUBLIC "-//W3C//DTD SVG 1.1//EN"
 "http://www.w3.org/Graphics/SVG/1.1/DTD/svg11.dtd">
<!-- Generated by graphviz version 2.43.0 (0)
 -->
<!-- Title: src/sidebars/UnicodeSidebar.h Pages: 1 -->
<svg width="2293pt" height="467pt"
 viewBox="0.00 0.00 2293.06 467.00" xmlns="http://www.w3.org/2000/svg" xmlns:xlink="http://www.w3.org/1999/xlink">
<g id="graph0" class="graph" transform="scale(1 1) rotate(0) translate(4 463)">
<title>src/sidebars/UnicodeSidebar.h</title>
<!-- Node1 -->
<g id="node1" class="node">
<title>Node1</title>
<g id="a_node1"><a xlink:title="This file contains the definition of the class Unicodesidebar that allows to select arbitrary unicode...">
<polygon fill="#999999" stroke="#666666" points="2177.56,-459 2014.56,-459 2014.56,-440 2177.56,-440 2177.56,-459"/>
<text text-anchor="middle" x="2096.06" y="-447" font-family="Helvetica,sans-Serif" font-size="10.00">src/sidebars/UnicodeSidebar.h</text>
</a>
</g>
</g>
<!-- Node2 -->
<g id="node2" class="node">
<title>Node2</title>
<g id="a_node2"><a xlink:href="precomp_8h_source.html" target="_top" xlink:title=" ">
<polygon fill="white" stroke="#666666" points="1482.06,-74 1414.06,-74 1414.06,-55 1482.06,-55 1482.06,-74"/>
<text text-anchor="middle" x="1448.06" y="-62" font-family="Helvetica,sans-Serif" font-size="10.00">precomp.h</text>
</a>
</g>
</g>
<!-- Node1&#45;&gt;Node2 -->
<g id="edge1" class="edge">
<title>Node1&#45;&gt;Node2</title>
<path fill="none" stroke="#63b8ff" d="M2014.35,-446.29C1721.4,-437.83 741.06,-404.73 741.06,-340.5 741.06,-340.5 741.06,-340.5 741.06,-283.5 741.06,-171.26 856.65,-197.56 964.06,-165 1117.09,-118.61 1168.53,-173.73 1322.06,-129 1360.88,-117.69 1402.03,-94.56 1426.36,-79.56"/>
<polygon fill="#63b8ff" stroke="#63b8ff" points="1428.51,-82.34 1435.12,-74.06 1424.79,-76.41 1428.51,-82.34"/>
</g>
<!-- Node4 -->
<g id="node4" class="node">
<title>Node4</title>
<g id="a_node4"><a xlink:href="RegexCtrl_8h_source.html" target="_top" xlink:title=" ">
<polygon fill="white" stroke="#666666" points="2034.06,-404 1960.06,-404 1960.06,-385 2034.06,-385 2034.06,-404"/>
<text text-anchor="middle" x="1997.06" y="-392" font-family="Helvetica,sans-Serif" font-size="10.00">RegexCtrl.h</text>
</a>
</g>
</g>
<!-- Node1&#45;&gt;Node4 -->
<g id="edge3" class="edge">
<title>Node1&#45;&gt;Node4</title>
<path fill="none" stroke="#63b8ff" d="M2080.15,-439.98C2064.51,-431.61 2040.4,-418.7 2022.17,-408.95"/>
<polygon fill="#63b8ff" stroke="#63b8ff" points="2023.72,-405.8 2013.25,-404.17 2020.42,-411.98 2023.72,-405.8"/>
</g>
<!-- Node5 -->
<g id="node5" class="node">
<title>Node5</title>
<g id="a_node5"><a xlink:title=" ">
<polygon fill="#e0e0e0" stroke="#999999" points="2185.56,-239 2128.56,-239 2128.56,-220 2185.56,-220 2185.56,-239"/>
<text text-anchor="middle" x="2157.06" y="-227" font-family="Helvetica,sans-Serif" font-size="10.00">wx/wx.h</text>
</a>
</g>
</g>
<!-- Node1&#45;&gt;Node5 -->
<g id="edge84" class="edge">
<title>Node1&#45;&gt;Node5</title>
<path fill="none" stroke="#63b8ff" d="M2103.12,-439.82C2120.72,-417.4 2165.84,-355.07 2175.06,-294 2176.32,-285.65 2176.67,-283.29 2175.06,-275 2173.27,-265.8 2169.57,-256.09 2166,-248.1"/>
<polygon fill="#63b8ff" stroke="#63b8ff" points="2169.15,-246.57 2161.68,-239.06 2162.83,-249.59 2169.15,-246.57"/>
</g>
<!-- Node55 -->
<g id="node50" class="node">
<title>Node55</title>
<g id="a_node50"><a xlink:title=" ">
<polygon fill="#e0e0e0" stroke="#999999" points="2285.06,-404 2223.06,-404 2223.06,-385 2285.06,-385 2285.06,-404"/>
<text text-anchor="middle" x="2254.06" y="-392" font-family="Helvetica,sans-Serif" font-size="10.00">wx/grid.h</text>
</a>
</g>
</g>
<!-- Node1&#45;&gt;Node55 -->
<g id="edge85" class="edge">
<title>Node1&#45;&gt;Node55</title>
<path fill="none" stroke="#63b8ff" d="M2121.44,-439.98C2147.85,-431.13 2189.4,-417.19 2218.95,-407.28"/>
<polygon fill="#63b8ff" stroke="#63b8ff" points="2220.11,-410.58 2228.47,-404.08 2217.88,-403.94 2220.11,-410.58"/>
</g>
<!-- Node3 -->
<g id="node3" class="node">
<title>Node3</title>
<g id="a_node3"><a xlink:title=" ">
<polygon fill="#e0e0e0" stroke="#999999" points="1488.56,-19 1407.56,-19 1407.56,0 1488.56,0 1488.56,-19"/>
<text text-anchor="middle" x="1448.06" y="-7" font-family="Helvetica,sans-Serif" font-size="10.00">BuildConfig.h</text>
</a>
</g>
</g>
<!-- Node2&#45;&gt;Node3 -->
<g id="edge2" class="edge">
<title>Node2&#45;&gt;Node3</title>
<path fill="none" stroke="#63b8ff" d="M1448.06,-54.75C1448.06,-47.8 1448.06,-37.85 1448.06,-29.13"/>
<polygon fill="#63b8ff" stroke="#63b8ff" points="1451.56,-29.09 1448.06,-19.09 1444.56,-29.09 1451.56,-29.09"/>
</g>
<!-- Node4&#45;&gt;Node2 -->
<g id="edge4" class="edge">
<title>Node4&#45;&gt;Node2</title>
<path fill="none" stroke="#63b8ff" d="M1959.89,-391.13C1777.23,-379.08 980.7,-322.04 912.06,-239 906.68,-232.49 907.87,-227.34 912.06,-220 918.01,-209.57 993.62,-168.66 1005.06,-165 1094.06,-136.5 1349.52,-185.38 1424.06,-129 1437.99,-118.46 1443.83,-98.84 1446.29,-84.19"/>
<polygon fill="#63b8ff" stroke="#63b8ff" points="1449.77,-84.55 1447.58,-74.18 1442.83,-83.65 1449.77,-84.55"/>
</g>
<!-- Node4&#45;&gt;Node5 -->
<g id="edge5" class="edge">
<title>Node4&#45;&gt;Node5</title>
<path fill="none" stroke="#63b8ff" d="M2034.07,-392.19C2066.45,-388.95 2112.23,-378.93 2138.06,-349 2162.14,-321.1 2162.01,-275.17 2159.63,-249.45"/>
<polygon fill="#63b8ff" stroke="#63b8ff" points="2163.08,-248.74 2158.46,-239.2 2156.12,-249.53 2163.08,-248.74"/>
</g>
<!-- Node6 -->
<g id="node6" class="node">
<title>Node6</title>
<g id="a_node6"><a xlink:title=" ">
<polygon fill="#e0e0e0" stroke="#999999" points="2032.56,-349 1961.56,-349 1961.56,-330 2032.56,-330 2032.56,-349"/>
<text text-anchor="middle" x="1997.06" y="-337" font-family="Helvetica,sans-Serif" font-size="10.00">wx/regex.h</text>
</a>
</g>
</g>
<!-- Node4&#45;&gt;Node6 -->
<g id="edge6" class="edge">
<title>Node4&#45;&gt;Node6</title>
<path fill="none" stroke="#63b8ff" d="M1997.06,-384.75C1997.06,-377.8 1997.06,-367.85 1997.06,-359.13"/>
<polygon fill="#63b8ff" stroke="#63b8ff" points="2000.56,-359.09 1997.06,-349.09 1993.56,-359.09 2000.56,-359.09"/>
</g>
<!-- Node7 -->
<g id="node7" class="node">
<title>Node7</title>
<g id="a_node7"><a xlink:title=" ">
<polygon fill="#e0e0e0" stroke="#999999" points="2129.06,-349 2051.06,-349 2051.06,-330 2129.06,-330 2129.06,-349"/>
<text text-anchor="middle" x="2090.06" y="-337" font-family="Helvetica,sans-Serif" font-size="10.00">wx/textctrl.h</text>
</a>
</g>
</g>
<!-- Node4&#45;&gt;Node7 -->
<g id="edge7" class="edge">
<title>Node4&#45;&gt;Node7</title>
<path fill="none" stroke="#63b8ff" d="M2012,-384.98C2026.56,-376.69 2048.92,-363.94 2065.99,-354.22"/>
<polygon fill="#63b8ff" stroke="#63b8ff" points="2067.89,-357.16 2074.84,-349.17 2064.42,-351.08 2067.89,-357.16"/>
</g>
<!-- Node8 -->
<g id="node8" class="node">
<title>Node8</title>
<g id="a_node8"><a xlink:href="Configuration_8h_source.html" target="_top" xlink:title=" ">
<polygon fill="white" stroke="#666666" points="1299.56,-294 1208.56,-294 1208.56,-275 1299.56,-275 1299.56,-294"/>
<text text-anchor="middle" x="1254.06" y="-282" font-family="Helvetica,sans-Serif" font-size="10.00">Configuration.h</text>
</a>
</g>
</g>
<!-- Node4&#45;&gt;Node8 -->
<g id="edge8" class="edge">
<title>Node4&#45;&gt;Node8</title>
<path fill="none" stroke="#63b8ff" d="M1959.96,-388.11C1838.84,-370.5 1454.52,-314.64 1309.85,-293.61"/>
<polygon fill="#63b8ff" stroke="#63b8ff" points="1310.26,-290.13 1299.86,-292.16 1309.25,-297.06 1310.26,-290.13"/>
</g>
<!-- Node54 -->
<g id="node49" class="node">
<title>Node54</title>
<g id="a_node49"><a xlink:href="BTextCtrl_8h_source.html" target="_top" xlink:title=" ">
<polygon fill="white" stroke="#666666" points="1943.56,-349 1864.56,-349 1864.56,-330 1943.56,-330 1943.56,-349"/>
<text text-anchor="middle" x="1904.06" y="-337" font-family="Helvetica,sans-Serif" font-size="10.00">../BTextCtrl.h</text>
</a>
</g>
</g>
<!-- Node4&#45;&gt;Node54 -->
<g id="edge80" class="edge">
<title>Node4&#45;&gt;Node54</title>
<path fill="none" stroke="#63b8ff" d="M1982.12,-384.98C1967.56,-376.69 1945.19,-363.94 1928.12,-354.22"/>
<polygon fill="#63b8ff" stroke="#63b8ff" points="1929.69,-351.08 1919.27,-349.17 1926.23,-357.16 1929.69,-351.08"/>
</g>
<!-- Node8&#45;&gt;Node2 -->
<g id="edge9" class="edge">
<title>Node8&#45;&gt;Node2</title>
<path fill="none" stroke="#63b8ff" d="M1261.43,-274.73C1273.92,-260.53 1300.76,-232.83 1330.06,-220 1386.92,-195.11 1566.09,-230.64 1607.06,-184 1626.44,-161.94 1600.85,-128.87 1579.06,-110 1554.64,-88.85 1519.72,-77.64 1492.08,-71.77"/>
<polygon fill="#63b8ff" stroke="#63b8ff" points="1492.74,-68.33 1482.26,-69.83 1491.39,-75.2 1492.74,-68.33"/>
</g>
<!-- Node8&#45;&gt;Node5 -->
<g id="edge10" class="edge">
<title>Node8&#45;&gt;Node5</title>
<path fill="none" stroke="#63b8ff" d="M1299.56,-281.84C1424,-277.14 1780.44,-262.5 2076.06,-239 2089.74,-237.91 2104.69,-236.43 2117.98,-235"/>
<polygon fill="#63b8ff" stroke="#63b8ff" points="2118.66,-238.45 2128.22,-233.88 2117.9,-231.49 2118.66,-238.45"/>
</g>
<!-- Node9 -->
<g id="node9" class="node">
<title>Node9</title>
<g id="a_node9"><a xlink:title=" ">
<polygon fill="#e0e0e0" stroke="#999999" points="1570.06,-129 1498.06,-129 1498.06,-110 1570.06,-110 1570.06,-129"/>
<text text-anchor="middle" x="1534.06" y="-117" font-family="Helvetica,sans-Serif" font-size="10.00">wx/config.h</text>
</a>
</g>
</g>
<!-- Node8&#45;&gt;Node9 -->
<g id="edge11" class="edge">
<title>Node8&#45;&gt;Node9</title>
<path fill="none" stroke="#63b8ff" d="M1257.21,-274.75C1262.8,-260.59 1275.93,-232.92 1297.06,-220 1353.02,-185.77 1546.59,-233.13 1590.06,-184 1605.23,-166.85 1581.21,-147.07 1560.07,-134.2"/>
<polygon fill="#63b8ff" stroke="#63b8ff" points="1561.72,-131.11 1551.31,-129.14 1558.22,-137.17 1561.72,-131.11"/>
</g>
<!-- Node10 -->
<g id="node10" class="node">
<title>Node10</title>
<g id="a_node10"><a xlink:title=" ">
<polygon fill="#e0e0e0" stroke="#999999" points="1416.56,-239 1339.56,-239 1339.56,-220 1416.56,-220 1416.56,-239"/>
<text text-anchor="middle" x="1378.06" y="-227" font-family="Helvetica,sans-Serif" font-size="10.00">wx/display.h</text>
</a>
</g>
</g>
<!-- Node8&#45;&gt;Node10 -->
<g id="edge12" class="edge">
<title>Node8&#45;&gt;Node10</title>
<path fill="none" stroke="#63b8ff" d="M1273.98,-274.98C1294.11,-266.38 1325.44,-252.99 1348.47,-243.15"/>
<polygon fill="#63b8ff" stroke="#63b8ff" points="1349.95,-246.32 1357.77,-239.17 1347.2,-239.88 1349.95,-246.32"/>
</g>
<!-- Node11 -->
<g id="node11" class="node">
<title>Node11</title>
<g id="a_node11"><a xlink:title=" ">
<polygon fill="#e0e0e0" stroke="#999999" points="1525.06,-239 1435.06,-239 1435.06,-220 1525.06,-220 1525.06,-239"/>
<text text-anchor="middle" x="1480.06" y="-227" font-family="Helvetica,sans-Serif" font-size="10.00">wx/fontenum.h</text>
</a>
</g>
</g>
<!-- Node8&#45;&gt;Node11 -->
<g id="edge13" class="edge">
<title>Node8&#45;&gt;Node11</title>
<path fill="none" stroke="#63b8ff" d="M1290.37,-274.98C1329.3,-265.86 1391.22,-251.33 1433.65,-241.38"/>
<polygon fill="#63b8ff" stroke="#63b8ff" points="1434.53,-244.77 1443.46,-239.08 1432.93,-237.96 1434.53,-244.77"/>
</g>
<!-- Node12 -->
<g id="node12" class="node">
<title>Node12</title>
<g id="a_node12"><a xlink:title=" ">
<polygon fill="#e0e0e0" stroke="#999999" points="208.06,-129 120.06,-129 120.06,-110 208.06,-110 208.06,-129"/>
<text text-anchor="middle" x="164.06" y="-117" font-family="Helvetica,sans-Serif" font-size="10.00">wx/hashmap.h</text>
</a>
</g>
</g>
<!-- Node8&#45;&gt;Node12 -->
<g id="edge14" class="edge">
<title>Node8&#45;&gt;Node12</title>
<path fill="none" stroke="#63b8ff" d="M1208.49,-283.28C1033.36,-281.8 404.54,-270.46 228.06,-184 206.41,-173.39 187.64,-152.56 176.13,-137.65"/>
<polygon fill="#63b8ff" stroke="#63b8ff" points="178.69,-135.23 169.93,-129.27 173.06,-139.4 178.69,-135.23"/>
</g>
<!-- Node13 -->
<g id="node13" class="node">
<title>Node13</title>
<g id="a_node13"><a xlink:href="LoggingMessageDialog_8h.html" target="_top" xlink:title="This file declares a message dialog that sends its contents to the log message sink.">
<polygon fill="white" stroke="#666666" points="2034.56,-239 1857.56,-239 1857.56,-220 2034.56,-220 2034.56,-239"/>
<text text-anchor="middle" x="1946.06" y="-227" font-family="Helvetica,sans-Serif" font-size="10.00">dialogs/LoggingMessageDialog.h</text>
</a>
</g>
</g>
<!-- Node8&#45;&gt;Node13 -->
<g id="edge15" class="edge">
<title>Node8&#45;&gt;Node13</title>
<path fill="none" stroke="#63b8ff" d="M1299.91,-280.25C1398.07,-273.25 1636.11,-256.06 1847.35,-239.05"/>
<polygon fill="#63b8ff" stroke="#63b8ff" points="1847.7,-242.53 1857.39,-238.24 1847.14,-235.55 1847.7,-242.53"/>
</g>
<!-- Node16 -->
<g id="node16" class="node">
<title>Node16</title>
<g id="a_node16"><a xlink:href="TextStyle_8h.html" target="_top" xlink:title="This file declares everything needed for the text style system used to style all the elements on the ...">
<polygon fill="white" stroke="#666666" points="844.06,-184 748.06,-184 748.06,-165 844.06,-165 844.06,-184"/>
<text text-anchor="middle" x="796.06" y="-172" font-family="Helvetica,sans-Serif" font-size="10.00">cells/TextStyle.h</text>
</a>
</g>
</g>
<!-- Node8&#45;&gt;Node16 -->
<g id="edge19" class="edge">
<title>Node8&#45;&gt;Node16</title>
<path fill="none" stroke="#63b8ff" d="M1208.34,-282.89C1141.62,-280.81 1014.38,-272.36 912.06,-239 893.23,-232.86 847.11,-206.16 819.02,-189.4"/>
<polygon fill="#63b8ff" stroke="#63b8ff" points="820.63,-186.28 810.25,-184.14 817.03,-192.29 820.63,-186.28"/>
</g>
<!-- Node23 -->
<g id="node23" class="node">
<title>Node23</title>
<g id="a_node23"><a xlink:title=" ">
<polygon fill="#e0e0e0" stroke="#999999" points="500.06,-74 450.06,-74 450.06,-55 500.06,-55 500.06,-74"/>
<text text-anchor="middle" x="475.06" y="-62" font-family="Helvetica,sans-Serif" font-size="10.00">cstdint</text>
</a>
</g>
</g>
<!-- Node8&#45;&gt;Node23 -->
<g id="edge68" class="edge">
<title>Node8&#45;&gt;Node23</title>
<path fill="none" stroke="#63b8ff" d="M1208.4,-280.69C1130.55,-275.47 967.31,-262.56 831.06,-239 818.27,-236.79 615.5,-190.11 604.06,-184 554.65,-157.62 509.56,-107.86 488.15,-82.02"/>
<polygon fill="#63b8ff" stroke="#63b8ff" points="490.85,-79.79 481.83,-74.24 485.42,-84.21 490.85,-79.79"/>
</g>
<!-- Node30 -->
<g id="node26" class="node">
<title>Node30</title>
<g id="a_node26"><a xlink:title=" ">
<polygon fill="#e0e0e0" stroke="#999999" points="582.06,-74 518.06,-74 518.06,-55 582.06,-55 582.06,-74"/>
<text text-anchor="middle" x="550.06" y="-62" font-family="Helvetica,sans-Serif" font-size="10.00">algorithm</text>
</a>
</g>
</g>
<!-- Node8&#45;&gt;Node30 -->
<g id="edge76" class="edge">
<title>Node8&#45;&gt;Node30</title>
<path fill="none" stroke="#63b8ff" d="M1208.31,-282.99C1135.51,-281.11 989.45,-272.99 871.06,-239 852.14,-233.57 849.74,-226.19 831.06,-220 753.2,-194.21 725.72,-215.67 650.06,-184 609.92,-167.2 594.78,-164.1 569.06,-129 559.39,-115.8 554.6,-97.68 552.25,-84.17"/>
<polygon fill="#63b8ff" stroke="#63b8ff" points="555.69,-83.51 550.8,-74.12 548.76,-84.51 555.69,-83.51"/>
</g>
<!-- Node33 -->
<g id="node28" class="node">
<title>Node33</title>
<g id="a_node28"><a xlink:title=" ">
<polygon fill="#e0e0e0" stroke="#999999" points="1676.06,-74 1618.06,-74 1618.06,-55 1676.06,-55 1676.06,-74"/>
<text text-anchor="middle" x="1647.06" y="-62" font-family="Helvetica,sans-Serif" font-size="10.00">memory</text>
</a>
</g>
</g>
<!-- Node8&#45;&gt;Node33 -->
<g id="edge69" class="edge">
<title>Node8&#45;&gt;Node33</title>
<path fill="none" stroke="#63b8ff" d="M1299.64,-282.64C1463.92,-279.32 2017.39,-266.15 2043.06,-239 2152.79,-122.91 1806.37,-79.93 1686.41,-68.73"/>
<polygon fill="#63b8ff" stroke="#63b8ff" points="1686.46,-65.22 1676.19,-67.81 1685.83,-72.2 1686.46,-65.22"/>
</g>
<!-- Node34 -->
<g id="node29" class="node">
<title>Node34</title>
<g id="a_node29"><a xlink:title=" ">
<polygon fill="#e0e0e0" stroke="#999999" points="1337.06,-74 1305.06,-74 1305.06,-55 1337.06,-55 1337.06,-74"/>
<text text-anchor="middle" x="1321.06" y="-62" font-family="Helvetica,sans-Serif" font-size="10.00">list</text>
</a>
</g>
</g>
<!-- Node8&#45;&gt;Node34 -->
<g id="edge73" class="edge">
<title>Node8&#45;&gt;Node34</title>
<path fill="none" stroke="#63b8ff" d="M1208.53,-278.53C1121,-267.27 943.12,-235.17 1005.06,-165 1090.43,-68.29 1189.58,-206.03 1293.06,-129 1307.38,-118.34 1314.51,-98.73 1317.96,-84.12"/>
<polygon fill="#63b8ff" stroke="#63b8ff" points="1321.43,-84.64 1319.95,-74.15 1314.57,-83.27 1321.43,-84.64"/>
</g>
<!-- Node36 -->
<g id="node31" class="node">
<title>Node36</title>
<g id="a_node31"><a xlink:title=" ">
<polygon fill="#e0e0e0" stroke="#999999" points="282.56,-74 189.56,-74 189.56,-55 282.56,-55 282.56,-74"/>
<text text-anchor="middle" x="236.06" y="-62" font-family="Helvetica,sans-Serif" font-size="10.00">unordered_map</text>
</a>
</g>
</g>
<!-- Node8&#45;&gt;Node36 -->
<g id="edge71" class="edge">
<title>Node8&#45;&gt;Node36</title>
<path fill="none" stroke="#63b8ff" d="M1208.37,-283.85C1025.81,-284.93 348.54,-285.64 140.06,-239 78.84,-225.3 44.72,-236.29 10.06,-184 1.28,-170.75 -7.94,-134.23 13.06,-110 34.34,-85.45 120.46,-74.07 179.23,-69.08"/>
<polygon fill="#63b8ff" stroke="#63b8ff" points="179.82,-72.54 189.5,-68.24 179.25,-65.56 179.82,-72.54"/>
</g>
<!-- Node37 -->
<g id="node32" class="node">
<title>Node37</title>
<g id="a_node32"><a xlink:href="FontRenderabilityCache_8h.html" target="_top" xlink:title="Declares FontRenderabilityCache: which chars can each font render?">
<polygon fill="white" stroke="#666666" points="379.06,-184 237.06,-184 237.06,-165 379.06,-165 379.06,-184"/>
<text text-anchor="middle" x="308.06" y="-172" font-family="Helvetica,sans-Serif" font-size="10.00">FontRenderabilityCache.h</text>
</a>
</g>
</g>
<!-- Node8&#45;&gt;Node37 -->
<g id="edge45" class="edge">
<title>Node8&#45;&gt;Node37</title>
<path fill="none" stroke="#63b8ff" d="M1208.24,-279.43C1126.68,-272.07 951.01,-255.79 803.06,-239 652.35,-221.9 476.3,-198.5 380.03,-185.4"/>
<polygon fill="#63b8ff" stroke="#63b8ff" points="380.49,-181.93 370.11,-184.05 379.55,-188.87 380.49,-181.93"/>
</g>
<!-- Node40 -->
<g id="node35" class="node">
<title>Node40</title>
<g id="a_node35"><a xlink:href="MaximaSessionInfo_8h.html" target="_top" xlink:title="Declares MaximaSessionInfo: what we know about the connected Maxima.">
<polygon fill="white" stroke="#666666" points="141.06,-184 19.06,-184 19.06,-165 141.06,-165 141.06,-184"/>
<text text-anchor="middle" x="80.06" y="-172" font-family="Helvetica,sans-Serif" font-size="10.00">MaximaSessionInfo.h</text>
</a>
</g>
</g>
<!-- Node8&#45;&gt;Node40 -->
<g id="edge50" class="edge">
<title>Node8&#45;&gt;Node40</title>
<path fill="none" stroke="#63b8ff" d="M1208.55,-282.98C1016.94,-280.6 281.01,-269.52 182.06,-239 149.56,-228.98 117.09,-205.97 97.79,-190.58"/>
<polygon fill="#63b8ff" stroke="#63b8ff" points="99.85,-187.74 89.89,-184.11 95.41,-193.16 99.85,-187.74"/>
</g>
<!-- Node41 -->
<g id="node36" class="node">
<title>Node41</title>
<g id="a_node36"><a xlink:href="RenderContext_8h.html" target="_top" xlink:title="Declares RenderContext: the per&#45;render&#45;pass state of a worksheet.">
<polygon fill="white" stroke="#666666" points="1169.06,-239 1071.06,-239 1071.06,-220 1169.06,-220 1169.06,-239"/>
<text text-anchor="middle" x="1120.06" y="-227" font-family="Helvetica,sans-Serif" font-size="10.00">RenderContext.h</text>
</a>
</g>
</g>
<!-- Node8&#45;&gt;Node41 -->
<g id="edge54" class="edge">
<title>Node8&#45;&gt;Node41</title>
<path fill="none" stroke="#63b8ff" d="M1232.53,-274.98C1210.58,-266.3 1176.32,-252.75 1151.37,-242.88"/>
<polygon fill="#63b8ff" stroke="#63b8ff" points="1152.57,-239.59 1141.98,-239.17 1149.99,-246.1 1152.57,-239.59"/>
</g>
<!-- Node46 -->
<g id="node41" class="node">
<title>Node46</title>
<g id="a_node41"><a xlink:title=" ">
<polygon fill="#e0e0e0" stroke="#999999" points="1513.06,-184 1463.06,-184 1463.06,-165 1513.06,-165 1513.06,-184"/>
<text text-anchor="middle" x="1488.06" y="-172" font-family="Helvetica,sans-Serif" font-size="10.00">atomic</text>
</a>
</g>
</g>
<!-- Node8&#45;&gt;Node46 -->
<g id="edge77" class="edge">
<title>Node8&#45;&gt;Node46</title>
<path fill="none" stroke="#63b8ff" d="M1243.69,-274.95C1229.23,-262.02 1206.35,-237.17 1221.06,-220 1255,-180.38 1401.89,-194.17 1453.06,-184 1453.16,-183.98 1453.26,-183.96 1453.36,-183.94"/>
<polygon fill="#63b8ff" stroke="#63b8ff" points="1453.84,-187.42 1462.88,-181.88 1452.37,-180.57 1453.84,-187.42"/>
</g>
<!-- Node47 -->
<g id="node42" class="node">
<title>Node47</title>
<g id="a_node42"><a xlink:title=" ">
<polygon fill="#e0e0e0" stroke="#999999" points="1581.06,-184 1531.06,-184 1531.06,-165 1581.06,-165 1581.06,-184"/>
<text text-anchor="middle" x="1556.06" y="-172" font-family="Helvetica,sans-Serif" font-size="10.00">chrono</text>
</a>
</g>
</g>
<!-- Node8&#45;&gt;Node47 -->
<g id="edge78" class="edge">
<title>Node8&#45;&gt;Node47</title>
<path fill="none" stroke="#63b8ff" d="M1251.71,-274.77C1248.62,-261.13 1245.09,-234.8 1259.06,-220 1297.66,-179.12 1448.98,-193.61 1520.87,-183.76"/>
<polygon fill="#63b8ff" stroke="#63b8ff" points="1521.57,-187.19 1530.87,-182.12 1520.44,-180.28 1521.57,-187.19"/>
</g>
<!-- Node48 -->
<g id="node43" class="node">
<title>Node48</title>
<g id="a_node43"><a xlink:title=" ">
<polygon fill="#e0e0e0" stroke="#999999" points="1061.56,-184 1014.56,-184 1014.56,-165 1061.56,-165 1061.56,-184"/>
<text text-anchor="middle" x="1038.06" y="-172" font-family="Helvetica,sans-Serif" font-size="10.00">vector</text>
</a>
</g>
</g>
<!-- Node8&#45;&gt;Node48 -->
<g id="edge75" class="edge">
<title>Node8&#45;&gt;Node48</title>
<path fill="none" stroke="#63b8ff" d="M1208.37,-277.92C1158.72,-271.02 1083.56,-257.81 1062.06,-239 1049.18,-227.74 1043.19,-208.82 1040.42,-194.56"/>
<polygon fill="#63b8ff" stroke="#63b8ff" points="1043.82,-193.69 1038.81,-184.36 1036.91,-194.78 1043.82,-193.69"/>
</g>
<!-- Node49 -->
<g id="node44" class="node">
<title>Node49</title>
<g id="a_node44"><a xlink:href="Styles_8h.html" target="_top" xlink:title="This file declares the class Styles.">
<polygon fill="white" stroke="#666666" points="977.06,-239 921.06,-239 921.06,-220 977.06,-220 977.06,-239"/>
<text text-anchor="middle" x="949.06" y="-227" font-family="Helvetica,sans-Serif" font-size="10.00">Styles.h</text>
</a>
</g>
</g>
<!-- Node8&#45;&gt;Node49 -->
<g id="edge64" class="edge">
<title>Node8&#45;&gt;Node49</title>
<path fill="none" stroke="#63b8ff" d="M1208.37,-276.23C1155.85,-267.76 1067.09,-253.12 991.06,-239 989.96,-238.8 988.85,-238.59 987.73,-238.37"/>
<polygon fill="#63b8ff" stroke="#63b8ff" points="987.98,-234.86 977.5,-236.38 986.65,-241.73 987.98,-234.86"/>
</g>
<!-- Node50 -->
<g id="node45" class="node">
<title>Node50</title>
<g id="a_node45"><a xlink:title=" ">
<polygon fill="#e0e0e0" stroke="#999999" points="1591.06,-239 1543.06,-239 1543.06,-220 1591.06,-220 1591.06,-239"/>
<text text-anchor="middle" x="1567.06" y="-227" font-family="Helvetica,sans-Serif" font-size="10.00">mutex</text>
</a>
</g>
</g>
<!-- Node8&#45;&gt;Node50 -->
<g id="edge70" class="edge">
<title>Node8&#45;&gt;Node50</title>
<path fill="none" stroke="#63b8ff" d="M1299.89,-277.57C1353.53,-270.33 1445.2,-257.03 1533.1,-239.03"/>
<polygon fill="#63b8ff" stroke="#63b8ff" points="1533.89,-242.44 1542.97,-236.98 1532.47,-235.59 1533.89,-242.44"/>
</g>
<!-- Node51 -->
<g id="node46" class="node">
<title>Node51</title>
<g id="a_node46"><a xlink:title=" ">
<polygon fill="#e0e0e0" stroke="#999999" points="1663.06,-239 1609.06,-239 1609.06,-220 1663.06,-220 1663.06,-239"/>
<text text-anchor="middle" x="1636.06" y="-227" font-family="Helvetica,sans-Serif" font-size="10.00">random</text>
</a>
</g>
</g>
<!-- Node8&#45;&gt;Node51 -->
<g id="edge72" class="edge">
<title>Node8&#45;&gt;Node51</title>
<path fill="none" stroke="#63b8ff" d="M1299.63,-279.16C1364.14,-272.69 1485.95,-259.24 1599.12,-239"/>
<polygon fill="#63b8ff" stroke="#63b8ff" points="1599.78,-242.43 1608.99,-237.21 1598.53,-235.55 1599.78,-242.43"/>
</g>
<!-- Node52 -->
<g id="node47" class="node">
<title>Node52</title>
<g id="a_node47"><a xlink:title=" ">
<polygon fill="#e0e0e0" stroke="#999999" points="1732.56,-239 1681.56,-239 1681.56,-220 1732.56,-220 1732.56,-239"/>
<text text-anchor="middle" x="1707.06" y="-227" font-family="Helvetica,sans-Serif" font-size="10.00">variant</text>
</a>
</g>
</g>
<!-- Node8&#45;&gt;Node52 -->
<g id="edge74" class="edge">
<title>Node8&#45;&gt;Node52</title>
<path fill="none" stroke="#63b8ff" d="M1299.79,-280.62C1375.16,-275.44 1530.29,-262.95 1671.39,-238.87"/>
<polygon fill="#63b8ff" stroke="#63b8ff" points="1672.27,-242.27 1681.53,-237.11 1671.07,-235.37 1672.27,-242.27"/>
</g>
<!-- Node53 -->
<g id="node48" class="node">
<title>Node53</title>
<g id="a_node48"><a xlink:title=" ">
<polygon fill="#e0e0e0" stroke="#999999" points="1839.56,-239 1750.56,-239 1750.56,-220 1839.56,-220 1839.56,-239"/>
<text text-anchor="middle" x="1795.06" y="-227" font-family="Helvetica,sans-Serif" font-size="10.00">wx/wupdlock.h</text>
</a>
</g>
</g>
<!-- Node8&#45;&gt;Node53 -->
<g id="edge79" class="edge">
<title>Node8&#45;&gt;Node53</title>
<path fill="none" stroke="#63b8ff" d="M1299.82,-280.32C1384.55,-274.2 1571.79,-259.68 1740.26,-239.02"/>
<polygon fill="#63b8ff" stroke="#63b8ff" points="1740.81,-242.48 1750.3,-237.77 1739.95,-235.53 1740.81,-242.48"/>
</g>
<!-- Node13&#45;&gt;Node2 -->
<g id="edge16" class="edge">
<title>Node13&#45;&gt;Node2</title>
<path fill="none" stroke="#63b8ff" d="M1925.15,-219.98C1874.12,-199.37 1738.88,-145.87 1623.06,-110 1579.04,-96.37 1527.88,-83.72 1492.28,-75.42"/>
<polygon fill="#63b8ff" stroke="#63b8ff" points="1492.75,-71.94 1482.22,-73.09 1491.18,-78.76 1492.75,-71.94"/>
</g>
<!-- Node14 -->
<g id="node14" class="node">
<title>Node14</title>
<g id="a_node14"><a xlink:title=" ">
<polygon fill="#e0e0e0" stroke="#999999" points="1929.56,-184 1850.56,-184 1850.56,-165 1929.56,-165 1929.56,-184"/>
<text text-anchor="middle" x="1890.06" y="-172" font-family="Helvetica,sans-Serif" font-size="10.00">wx/msgdlg.h</text>
</a>
</g>
</g>
<!-- Node13&#45;&gt;Node14 -->
<g id="edge17" class="edge">
<title>Node13&#45;&gt;Node14</title>
<path fill="none" stroke="#63b8ff" d="M1937.06,-219.98C1928.86,-212.23 1916.55,-200.58 1906.59,-191.14"/>
<polygon fill="#63b8ff" stroke="#63b8ff" points="1908.89,-188.5 1899.22,-184.17 1904.08,-193.59 1908.89,-188.5"/>
</g>
<!-- Node15 -->
<g id="node15" class="node">
<title>Node15</title>
<g id="a_node15"><a xlink:title=" ">
<polygon fill="#e0e0e0" stroke="#999999" points="2005.06,-184 1947.06,-184 1947.06,-165 2005.06,-165 2005.06,-184"/>
<text text-anchor="middle" x="1976.06" y="-172" font-family="Helvetica,sans-Serif" font-size="10.00">wx/log.h</text>
</a>
</g>
</g>
<!-- Node13&#45;&gt;Node15 -->
<g id="edge18" class="edge">
<title>Node13&#45;&gt;Node15</title>
<path fill="none" stroke="#63b8ff" d="M1951.01,-219.75C1955.12,-212.49 1961.08,-201.95 1966.16,-192.98"/>
<polygon fill="#63b8ff" stroke="#63b8ff" points="1969.32,-194.52 1971.2,-184.09 1963.22,-191.07 1969.32,-194.52"/>
</g>
<!-- Node16&#45;&gt;Node2 -->
<g id="edge20" class="edge">
<title>Node16&#45;&gt;Node2</title>
<path fill="none" stroke="#63b8ff" d="M844.38,-170.63C949.23,-164.13 1194.75,-147.44 1276.06,-129 1328.61,-117.08 1386.87,-93.16 1420.31,-78.32"/>
<polygon fill="#63b8ff" stroke="#63b8ff" points="1421.77,-81.5 1429.46,-74.21 1418.91,-75.11 1421.77,-81.5"/>
</g>
<!-- Node16&#45;&gt;Node9 -->
<g id="edge26" class="edge">
<title>Node16&#45;&gt;Node9</title>
<path fill="none" stroke="#63b8ff" d="M844.2,-170.04C978.34,-160.41 1355.19,-133.35 1487.46,-123.85"/>
<polygon fill="#63b8ff" stroke="#63b8ff" points="1487.93,-127.32 1497.66,-123.11 1487.43,-120.34 1487.93,-127.32"/>
</g>
<!-- Node16&#45;&gt;Node12 -->
<g id="edge23" class="edge">
<title>Node16&#45;&gt;Node12</title>
<path fill="none" stroke="#63b8ff" d="M747.91,-169.72C653.4,-162.26 436.95,-144.98 255.06,-129 243.32,-127.97 230.74,-126.82 218.79,-125.71"/>
<polygon fill="#63b8ff" stroke="#63b8ff" points="218.76,-122.19 208.48,-124.75 218.11,-129.16 218.76,-122.19"/>
</g>
<!-- Node17 -->
<g id="node17" class="node">
<title>Node17</title>
<g id="a_node17"><a xlink:title=" ">
<polygon fill="#e0e0e0" stroke="#999999" points="844.06,-129 772.06,-129 772.06,-110 844.06,-110 844.06,-129"/>
<text text-anchor="middle" x="808.06" y="-117" font-family="Helvetica,sans-Serif" font-size="10.00">wx/colour.h</text>
</a>
</g>
</g>
<!-- Node16&#45;&gt;Node17 -->
<g id="edge21" class="edge">
<title>Node16&#45;&gt;Node17</title>
<path fill="none" stroke="#63b8ff" d="M798.04,-164.75C799.63,-157.72 801.92,-147.62 803.9,-138.84"/>
<polygon fill="#63b8ff" stroke="#63b8ff" points="807.32,-139.62 806.11,-129.09 800.49,-138.07 807.32,-139.62"/>
</g>
<!-- Node18 -->
<g id="node18" class="node">
<title>Node18</title>
<g id="a_node18"><a xlink:title=" ">
<polygon fill="#e0e0e0" stroke="#999999" points="900.06,-129 862.06,-129 862.06,-110 900.06,-110 900.06,-129"/>
<text text-anchor="middle" x="881.06" y="-117" font-family="Helvetica,sans-Serif" font-size="10.00">map</text>
</a>
</g>
</g>
<!-- Node16&#45;&gt;Node18 -->
<g id="edge22" class="edge">
<title>Node16&#45;&gt;Node18</title>
<path fill="none" stroke="#63b8ff" d="M809.71,-164.98C822.9,-156.77 843.09,-144.18 858.63,-134.49"/>
<polygon fill="#63b8ff" stroke="#63b8ff" points="860.52,-137.43 867.15,-129.17 856.82,-131.49 860.52,-137.43"/>
</g>
<!-- Node19 -->
<g id="node19" class="node">
<title>Node19</title>
<g id="a_node19"><a xlink:title=" ">
<polygon fill="#e0e0e0" stroke="#999999" points="962.06,-129 918.06,-129 918.06,-110 962.06,-110 962.06,-129"/>
<text text-anchor="middle" x="940.06" y="-117" font-family="Helvetica,sans-Serif" font-size="10.00">string</text>
</a>
</g>
</g>
<!-- Node16&#45;&gt;Node19 -->
<g id="edge24" class="edge">
<title>Node16&#45;&gt;Node19</title>
<path fill="none" stroke="#63b8ff" d="M819.19,-164.98C843.3,-156.11 881.25,-142.14 908.19,-132.23"/>
<polygon fill="#63b8ff" stroke="#63b8ff" points="909.75,-135.38 917.93,-128.65 907.33,-128.82 909.75,-135.38"/>
</g>
<!-- Node20 -->
<g id="node20" class="node">
<title>Node20</title>
<g id="a_node20"><a xlink:title=" ">
<polygon fill="#e0e0e0" stroke="#999999" points="1037.56,-129 980.56,-129 980.56,-110 1037.56,-110 1037.56,-129"/>
<text text-anchor="middle" x="1009.06" y="-117" font-family="Helvetica,sans-Serif" font-size="10.00">ostream</text>
</a>
</g>
</g>
<!-- Node16&#45;&gt;Node20 -->
<g id="edge25" class="edge">
<title>Node16&#45;&gt;Node20</title>
<path fill="none" stroke="#63b8ff" d="M830.28,-164.98C868.58,-155.46 930.48,-140.05 970.47,-130.1"/>
<polygon fill="#63b8ff" stroke="#63b8ff" points="971.52,-133.45 980.38,-127.63 969.83,-126.65 971.52,-133.45"/>
</g>
<!-- Node21 -->
<g id="node21" class="node">
<title>Node21</title>
<g id="a_node21"><a xlink:title=" ">
<polygon fill="#e0e0e0" stroke="#999999" points="681.06,-74 619.06,-74 619.06,-55 681.06,-55 681.06,-74"/>
<text text-anchor="middle" x="650.06" y="-62" font-family="Helvetica,sans-Serif" font-size="10.00">wx/font.h</text>
</a>
</g>
</g>
<!-- Node16&#45;&gt;Node21 -->
<g id="edge27" class="edge">
<title>Node16&#45;&gt;Node21</title>
<path fill="none" stroke="#63b8ff" d="M784.36,-164.84C759.48,-146.44 701.07,-103.23 670.12,-80.34"/>
<polygon fill="#63b8ff" stroke="#63b8ff" points="671.94,-77.33 661.81,-74.2 667.77,-82.96 671.94,-77.33"/>
</g>
<!-- Node22 -->
<g id="node22" class="node">
<title>Node22</title>
<g id="a_node22"><a xlink:title=" ">
<polygon fill="#e0e0e0" stroke="#999999" points="1138.06,-129 1056.06,-129 1056.06,-110 1138.06,-110 1138.06,-129"/>
<text text-anchor="middle" x="1097.06" y="-117" font-family="Helvetica,sans-Serif" font-size="10.00">wx/settings.h</text>
</a>
</g>
</g>
<!-- Node16&#45;&gt;Node22 -->
<g id="edge28" class="edge">
<title>Node16&#45;&gt;Node22</title>
<path fill="none" stroke="#63b8ff" d="M844.08,-165.04C899.24,-155.33 989.37,-139.46 1045.84,-129.52"/>
<polygon fill="#63b8ff" stroke="#63b8ff" points="1046.73,-132.92 1055.97,-127.73 1045.52,-126.02 1046.73,-132.92"/>
</g>
<!-- Node16&#45;&gt;Node23 -->
<g id="edge29" class="edge">
<title>Node16&#45;&gt;Node23</title>
<path fill="none" stroke="#63b8ff" d="M748.06,-167.31C705.35,-160.84 641.69,-148.81 589.06,-129 554.74,-116.08 518.24,-94.11 496.04,-79.7"/>
<polygon fill="#63b8ff" stroke="#63b8ff" points="497.72,-76.62 487.45,-74.04 493.87,-82.46 497.72,-76.62"/>
</g>
<!-- Node24 -->
<g id="node24" class="node">
<title>Node24</title>
<g id="a_node24"><a xlink:title=" ">
<polygon fill="#e0e0e0" stroke="#999999" points="776.56,-74 711.56,-74 711.56,-55 776.56,-55 776.56,-74"/>
<text text-anchor="middle" x="744.06" y="-62" font-family="Helvetica,sans-Serif" font-size="10.00">functional</text>
</a>
</g>
</g>
<!-- Node16&#45;&gt;Node24 -->
<g id="edge30" class="edge">
<title>Node16&#45;&gt;Node24</title>
<path fill="none" stroke="#63b8ff" d="M788.24,-164.9C780.84,-156.35 769.86,-142.59 763.06,-129 755.88,-114.68 750.89,-97.15 747.83,-84.14"/>
<polygon fill="#63b8ff" stroke="#63b8ff" points="751.19,-83.09 745.63,-74.07 744.35,-84.59 751.19,-83.09"/>
</g>
<!-- Node25 -->
<g id="node25" class="node">
<title>Node25</title>
<g id="a_node25"><a xlink:href="FontAttribs_8h_source.html" target="_top" xlink:title=" ">
<polygon fill="#fff0f0" stroke="red" points="677.56,-129 598.56,-129 598.56,-110 677.56,-110 677.56,-129"/>
<text text-anchor="middle" x="638.06" y="-117" font-family="Helvetica,sans-Serif" font-size="10.00">FontAttribs.h</text>
</a>
</g>
</g>
<!-- Node16&#45;&gt;Node25 -->
<g id="edge31" class="edge">
<title>Node16&#45;&gt;Node25</title>
<path fill="none" stroke="#63b8ff" d="M770.67,-164.98C744.26,-156.13 702.71,-142.19 673.16,-132.28"/>
<polygon fill="#63b8ff" stroke="#63b8ff" points="674.24,-128.94 663.64,-129.08 672.01,-135.58 674.24,-128.94"/>
</g>
<!-- Node32 -->
<g id="node27" class="node">
<title>Node32</title>
<g id="a_node27"><a xlink:href="FontVariantCache_8h.html" target="_top" xlink:title="This file implements the wxFont cache system.">
<polygon fill="white" stroke="#666666" points="1267.56,-129 1156.56,-129 1156.56,-110 1267.56,-110 1267.56,-129"/>
<text text-anchor="middle" x="1212.06" y="-117" font-family="Helvetica,sans-Serif" font-size="10.00">FontVariantCache.h</text>
</a>
</g>
</g>
<!-- Node16&#45;&gt;Node32 -->
<g id="edge36" class="edge">
<title>Node16&#45;&gt;Node32</title>
<path fill="none" stroke="#63b8ff" d="M844.11,-166.85C848.82,-166.22 853.53,-165.59 858.06,-165 983.14,-148.64 1016.96,-145.54 1146.1,-129.11"/>
<polygon fill="#63b8ff" stroke="#63b8ff" points="1146.91,-132.54 1156.39,-127.8 1146.03,-125.59 1146.91,-132.54"/>
</g>
<!-- Node16&#45;&gt;Node36 -->
<g id="edge44" class="edge">
<title>Node16&#45;&gt;Node36</title>
<path fill="none" stroke="#63b8ff" d="M747.6,-165.26C697.18,-156.59 615.99,-142.38 546.06,-129 454.25,-111.43 347.53,-89.16 286.28,-76.2"/>
<polygon fill="#63b8ff" stroke="#63b8ff" points="286.63,-72.7 276.12,-74.05 285.18,-79.55 286.63,-72.7"/>
</g>
<!-- Node25&#45;&gt;Node21 -->
<g id="edge32" class="edge">
<title>Node25&#45;&gt;Node21</title>
<path fill="none" stroke="#63b8ff" d="M640.04,-109.75C641.63,-102.72 643.92,-92.62 645.9,-83.84"/>
<polygon fill="#63b8ff" stroke="#63b8ff" points="649.32,-84.62 648.11,-74.09 642.49,-83.07 649.32,-84.62"/>
</g>
<!-- Node25&#45;&gt;Node23 -->
<g id="edge34" class="edge">
<title>Node25&#45;&gt;Node23</title>
<path fill="none" stroke="#63b8ff" d="M611.87,-109.98C584.22,-100.99 540.48,-86.77 509.93,-76.84"/>
<polygon fill="#63b8ff" stroke="#63b8ff" points="510.7,-73.41 500.11,-73.65 508.54,-80.07 510.7,-73.41"/>
</g>
<!-- Node25&#45;&gt;Node24 -->
<g id="edge35" class="edge">
<title>Node25&#45;&gt;Node24</title>
<path fill="none" stroke="#63b8ff" d="M655.09,-109.98C671.99,-101.54 698.12,-88.47 717.7,-78.68"/>
<polygon fill="#63b8ff" stroke="#63b8ff" points="719.34,-81.77 726.72,-74.17 716.21,-75.51 719.34,-81.77"/>
</g>
<!-- Node25&#45;&gt;Node30 -->
<g id="edge33" class="edge">
<title>Node25&#45;&gt;Node30</title>
<path fill="none" stroke="#63b8ff" d="M623.92,-109.98C610.27,-101.77 589.37,-89.18 573.28,-79.49"/>
<polygon fill="#63b8ff" stroke="#63b8ff" points="574.83,-76.33 564.45,-74.17 571.21,-82.33 574.83,-76.33"/>
</g>
<!-- Node32&#45;&gt;Node2 -->
<g id="edge37" class="edge">
<title>Node32&#45;&gt;Node2</title>
<path fill="none" stroke="#63b8ff" d="M1249.98,-109.98C1291.92,-100.56 1359.43,-85.4 1403.77,-75.45"/>
<polygon fill="#63b8ff" stroke="#63b8ff" points="1404.7,-78.82 1413.69,-73.22 1403.16,-71.99 1404.7,-78.82"/>
</g>
<!-- Node32&#45;&gt;Node21 -->
<g id="edge39" class="edge">
<title>Node32&#45;&gt;Node21</title>
<path fill="none" stroke="#63b8ff" d="M1156.41,-111.04C1153.25,-110.67 1150.11,-110.32 1147.06,-110 949.73,-89.13 899.02,-98.02 702.06,-74 698.55,-73.57 694.91,-73.08 691.26,-72.55"/>
<polygon fill="#63b8ff" stroke="#63b8ff" points="691.48,-69.04 681.07,-70.99 690.43,-75.96 691.48,-69.04"/>
</g>
<!-- Node32&#45;&gt;Node24 -->
<g id="edge40" class="edge">
<title>Node32&#45;&gt;Node24</title>
<path fill="none" stroke="#63b8ff" d="M1156.4,-111.15C1153.24,-110.75 1150.11,-110.37 1147.06,-110 1016.01,-94.2 860.7,-77.67 787,-69.96"/>
<polygon fill="#63b8ff" stroke="#63b8ff" points="787.04,-66.44 776.73,-68.88 786.31,-73.4 787.04,-66.44"/>
</g>
<!-- Node32&#45;&gt;Node33 -->
<g id="edge38" class="edge">
<title>Node32&#45;&gt;Node33</title>
<path fill="none" stroke="#63b8ff" d="M1267.59,-111.73C1356.84,-100.86 1530.04,-79.76 1607.71,-70.29"/>
<polygon fill="#63b8ff" stroke="#63b8ff" points="1608.51,-73.72 1618.02,-69.04 1607.67,-66.77 1608.51,-73.72"/>
</g>
<!-- Node32&#45;&gt;Node34 -->
<g id="edge41" class="edge">
<title>Node32&#45;&gt;Node34</title>
<path fill="none" stroke="#63b8ff" d="M1229.57,-109.98C1247.55,-101.24 1275.68,-87.56 1296.01,-77.68"/>
<polygon fill="#63b8ff" stroke="#63b8ff" points="1297.55,-80.82 1305.01,-73.3 1294.49,-74.53 1297.55,-80.82"/>
</g>
<!-- Node35 -->
<g id="node30" class="node">
<title>Node35</title>
<g id="a_node30"><a xlink:title=" ">
<polygon fill="#e0e0e0" stroke="#999999" points="1260.56,-74 1215.56,-74 1215.56,-55 1260.56,-55 1260.56,-74"/>
<text text-anchor="middle" x="1238.06" y="-62" font-family="Helvetica,sans-Serif" font-size="10.00">utility</text>
</a>
</g>
</g>
<!-- Node32&#45;&gt;Node35 -->
<g id="edge42" class="edge">
<title>Node32&#45;&gt;Node35</title>
<path fill="none" stroke="#63b8ff" d="M1216.35,-109.75C1219.87,-102.57 1224.97,-92.18 1229.34,-83.27"/>
<polygon fill="#63b8ff" stroke="#63b8ff" points="1232.58,-84.61 1233.84,-74.09 1226.3,-81.53 1232.58,-84.61"/>
</g>
<!-- Node32&#45;&gt;Node36 -->
<g id="edge43" class="edge">
<title>Node32&#45;&gt;Node36</title>
<path fill="none" stroke="#63b8ff" d="M1156.42,-110.92C1153.26,-110.59 1150.12,-110.27 1147.06,-110 1062.41,-102.41 479.02,-76.25 292.95,-68.01"/>
<polygon fill="#63b8ff" stroke="#63b8ff" points="292.98,-64.51 282.83,-67.56 292.67,-71.5 292.98,-64.51"/>
</g>
<!-- Node37&#45;&gt;Node21 -->
<g id="edge47" class="edge">
<title>Node37&#45;&gt;Node21</title>
<path fill="none" stroke="#63b8ff" d="M335.18,-164.94C396.17,-145.68 544.18,-98.94 613.32,-77.1"/>
<polygon fill="#63b8ff" stroke="#63b8ff" points="614.45,-80.41 622.93,-74.07 612.34,-73.74 614.45,-80.41"/>
</g>
<!-- Node37&#45;&gt;Node36 -->
<g id="edge49" class="edge">
<title>Node37&#45;&gt;Node36</title>
<path fill="none" stroke="#63b8ff" d="M293.89,-164.99C281.89,-157.09 265.09,-144.26 255.06,-129 246.17,-115.48 241.31,-97.65 238.74,-84.33"/>
<polygon fill="#63b8ff" stroke="#63b8ff" points="242.18,-83.68 237.08,-74.39 235.28,-84.83 242.18,-83.68"/>
</g>
<!-- Node38 -->
<g id="node33" class="node">
<title>Node38</title>
<g id="a_node33"><a xlink:title=" ">
<polygon fill="#e0e0e0" stroke="#999999" points="351.56,-129 264.56,-129 264.56,-110 351.56,-110 351.56,-129"/>
<text text-anchor="middle" x="308.06" y="-117" font-family="Helvetica,sans-Serif" font-size="10.00">wx/confbase.h</text>
</a>
</g>
</g>
<!-- Node37&#45;&gt;Node38 -->
<g id="edge46" class="edge">
<title>Node37&#45;&gt;Node38</title>
<path fill="none" stroke="#63b8ff" d="M308.06,-164.75C308.06,-157.8 308.06,-147.85 308.06,-139.13"/>
<polygon fill="#63b8ff" stroke="#63b8ff" points="311.56,-139.09 308.06,-129.09 304.56,-139.09 311.56,-139.09"/>
</g>
<!-- Node39 -->
<g id="node34" class="node">
<title>Node39</title>
<g id="a_node34"><a xlink:title=" ">
<polygon fill="#e0e0e0" stroke="#999999" points="101.56,-129 30.56,-129 30.56,-110 101.56,-110 101.56,-129"/>
<text text-anchor="middle" x="66.06" y="-117" font-family="Helvetica,sans-Serif" font-size="10.00">wx/string.h</text>
</a>
</g>
</g>
<!-- Node37&#45;&gt;Node39 -->
<g id="edge48" class="edge">
<title>Node37&#45;&gt;Node39</title>
<path fill="none" stroke="#63b8ff" d="M269.18,-164.98C226.2,-155.57 157.05,-140.43 111.58,-130.47"/>
<polygon fill="#63b8ff" stroke="#63b8ff" points="112.21,-127.02 101.69,-128.3 110.71,-133.86 112.21,-127.02"/>
</g>
<!-- Node40&#45;&gt;Node12 -->
<g id="edge52" class="edge">
<title>Node40&#45;&gt;Node12</title>
<path fill="none" stroke="#63b8ff" d="M93.55,-164.98C106.46,-156.84 126.16,-144.41 141.46,-134.76"/>
<polygon fill="#63b8ff" stroke="#63b8ff" points="143.73,-137.47 150.32,-129.17 139.99,-131.55 143.73,-137.47"/>
</g>
<!-- Node40&#45;&gt;Node36 -->
<g id="edge53" class="edge">
<title>Node40&#45;&gt;Node36</title>
<path fill="none" stroke="#63b8ff" d="M61.87,-164.99C38.88,-153.1 4.24,-130.65 21.06,-110 40.66,-85.93 122.34,-74.48 179.17,-69.33"/>
<polygon fill="#63b8ff" stroke="#63b8ff" points="179.81,-72.78 189.48,-68.44 179.21,-65.81 179.81,-72.78"/>
</g>
<!-- Node40&#45;&gt;Node39 -->
<g id="edge51" class="edge">
<title>Node40&#45;&gt;Node39</title>
<path fill="none" stroke="#63b8ff" d="M77.75,-164.75C75.89,-157.72 73.22,-147.62 70.9,-138.84"/>
<polygon fill="#63b8ff" stroke="#63b8ff" points="74.26,-137.86 68.33,-129.09 67.5,-139.65 74.26,-137.86"/>
</g>
<!-- Node41&#45;&gt;Node30 -->
<g id="edge59" class="edge">
<title>Node41&#45;&gt;Node30</title>
<path fill="none" stroke="#63b8ff" d="M1070.81,-224.2C982.56,-216.26 800.93,-198.74 739.06,-184 669.98,-167.55 644.01,-173.96 589.06,-129 574.23,-116.87 563.51,-97.53 557.1,-83.38"/>
<polygon fill="#63b8ff" stroke="#63b8ff" points="560.33,-82.01 553.21,-74.17 553.88,-84.74 560.33,-82.01"/>
</g>
<!-- Node41&#45;&gt;Node33 -->
<g id="edge62" class="edge">
<title>Node41&#45;&gt;Node33</title>
<path fill="none" stroke="#63b8ff" d="M1169.44,-226.55C1283.1,-221.69 1556.09,-207.66 1590.06,-184 1623.82,-160.48 1638.3,-111.33 1643.91,-84.31"/>
<polygon fill="#63b8ff" stroke="#63b8ff" points="1647.4,-84.69 1645.8,-74.22 1640.52,-83.4 1647.4,-84.69"/>
</g>
<!-- Node42 -->
<g id="node37" class="node">
<title>Node42</title>
<g id="a_node37"><a xlink:title=" ">
<polygon fill="#e0e0e0" stroke="#999999" points="1248.06,-184 1178.06,-184 1178.06,-165 1248.06,-165 1248.06,-184"/>
<text text-anchor="middle" x="1213.06" y="-172" font-family="Helvetica,sans-Serif" font-size="10.00">wx/brush.h</text>
</a>
</g>
</g>
<!-- Node41&#45;&gt;Node42 -->
<g id="edge55" class="edge">
<title>Node41&#45;&gt;Node42</title>
<path fill="none" stroke="#63b8ff" d="M1135,-219.98C1149.56,-211.69 1171.92,-198.94 1188.99,-189.22"/>
<polygon fill="#63b8ff" stroke="#63b8ff" points="1190.89,-192.16 1197.84,-184.17 1187.42,-186.08 1190.89,-192.16"/>
</g>
<!-- Node43 -->
<g id="node38" class="node">
<title>Node43</title>
<g id="a_node38"><a xlink:title=" ">
<polygon fill="#e0e0e0" stroke="#999999" points="1347.56,-184 1266.56,-184 1266.56,-165 1347.56,-165 1347.56,-184"/>
<text text-anchor="middle" x="1307.06" y="-172" font-family="Helvetica,sans-Serif" font-size="10.00">wx/dcclient.h</text>
</a>
</g>
</g>
<!-- Node41&#45;&gt;Node43 -->
<g id="edge56" class="edge">
<title>Node41&#45;&gt;Node43</title>
<path fill="none" stroke="#63b8ff" d="M1150.1,-219.98C1181.77,-211.01 1231.82,-196.82 1266.87,-186.89"/>
<polygon fill="#63b8ff" stroke="#63b8ff" points="1268.11,-190.18 1276.78,-184.08 1266.2,-183.44 1268.11,-190.18"/>
</g>
<!-- Node44 -->
<g id="node39" class="node">
<title>Node44</title>
<g id="a_node39"><a xlink:title=" ">
<polygon fill="#e0e0e0" stroke="#999999" points="1444.56,-184 1365.56,-184 1365.56,-165 1444.56,-165 1444.56,-184"/>
<text text-anchor="middle" x="1405.06" y="-172" font-family="Helvetica,sans-Serif" font-size="10.00">wx/gdicmn.h</text>
</a>
</g>
</g>
<!-- Node41&#45;&gt;Node44 -->
<g id="edge57" class="edge">
<title>Node41&#45;&gt;Node44</title>
<path fill="none" stroke="#63b8ff" d="M1165.85,-219.98C1217.73,-210.34 1302.01,-194.66 1355.43,-184.73"/>
<polygon fill="#63b8ff" stroke="#63b8ff" points="1356.17,-188.15 1365.36,-182.88 1354.89,-181.27 1356.17,-188.15"/>
</g>
<!-- Node45 -->
<g id="node40" class="node">
<title>Node45</title>
<g id="a_node40"><a xlink:title=" ">
<polygon fill="#e0e0e0" stroke="#999999" points="1160.06,-184 1080.06,-184 1080.06,-165 1160.06,-165 1160.06,-184"/>
<text text-anchor="middle" x="1120.06" y="-172" font-family="Helvetica,sans-Serif" font-size="10.00">wx/window.h</text>
</a>
</g>
</g>
<!-- Node41&#45;&gt;Node45 -->
<g id="edge58" class="edge">
<title>Node41&#45;&gt;Node45</title>
<path fill="none" stroke="#63b8ff" d="M1120.06,-219.75C1120.06,-212.8 1120.06,-202.85 1120.06,-194.13"/>
<polygon fill="#63b8ff" stroke="#63b8ff" points="1123.56,-194.09 1120.06,-184.09 1116.56,-194.09 1123.56,-194.09"/>
</g>
<!-- Node41&#45;&gt;Node46 -->
<g id="edge60" class="edge">
<title>Node41&#45;&gt;Node46</title>
<path fill="none" stroke="#63b8ff" d="M1169.24,-221.86C1173.91,-221.23 1178.57,-220.6 1183.06,-220 1303.05,-203.91 1334.07,-206.32 1453.06,-184 1453.16,-183.98 1453.26,-183.96 1453.36,-183.94"/>
<polygon fill="#63b8ff" stroke="#63b8ff" points="1453.82,-187.42 1462.89,-181.95 1452.39,-180.57 1453.82,-187.42"/>
</g>
<!-- Node41&#45;&gt;Node47 -->
<g id="edge61" class="edge">
<title>Node41&#45;&gt;Node47</title>
<path fill="none" stroke="#63b8ff" d="M1169.35,-223.88C1257.48,-215.49 1439.69,-197.51 1521.02,-183.91"/>
<polygon fill="#63b8ff" stroke="#63b8ff" points="1521.64,-187.36 1530.89,-182.19 1520.44,-180.46 1521.64,-187.36"/>
</g>
<!-- Node41&#45;&gt;Node48 -->
<g id="edge63" class="edge">
<title>Node41&#45;&gt;Node48</title>
<path fill="none" stroke="#63b8ff" d="M1106.88,-219.98C1094.29,-211.84 1075.05,-199.41 1060.12,-189.76"/>
<polygon fill="#63b8ff" stroke="#63b8ff" points="1061.77,-186.66 1051.47,-184.17 1057.97,-192.54 1061.77,-186.66"/>
</g>
<!-- Node49&#45;&gt;Node16 -->
<g id="edge65" class="edge">
<title>Node49&#45;&gt;Node16</title>
<path fill="none" stroke="#63b8ff" d="M924.48,-219.98C899.01,-211.16 859.01,-197.31 830.43,-187.41"/>
<polygon fill="#63b8ff" stroke="#63b8ff" points="831.43,-184.05 820.83,-184.08 829.14,-190.66 831.43,-184.05"/>
</g>
<!-- Node49&#45;&gt;Node35 -->
<g id="edge66" class="edge">
<title>Node49&#45;&gt;Node35</title>
<path fill="none" stroke="#63b8ff" d="M932.86,-219.88C911.56,-207.48 878.76,-184.01 896.06,-165 953.14,-102.26 1218.98,-191.74 1276.06,-129 1289.46,-114.27 1272.7,-94.1 1257.4,-80.48"/>
<polygon fill="#63b8ff" stroke="#63b8ff" points="1259.6,-77.76 1249.69,-74.01 1255.1,-83.12 1259.6,-77.76"/>
</g>
<!-- Node49&#45;&gt;Node48 -->
<g id="edge67" class="edge">
<title>Node49&#45;&gt;Node48</title>
<path fill="none" stroke="#63b8ff" d="M963.36,-219.98C977.16,-211.77 998.3,-199.18 1014.57,-189.49"/>
<polygon fill="#63b8ff" stroke="#63b8ff" points="1016.7,-192.29 1023.5,-184.17 1013.12,-186.28 1016.7,-192.29"/>
</g>
<!-- Node54&#45;&gt;Node2 -->
<g id="edge81" class="edge">
<title>Node54&#45;&gt;Node2</title>
<path fill="none" stroke="#63b8ff" d="M1933.62,-329.95C1971.69,-317.16 2036.25,-289.04 2064.06,-239 2084.57,-202.09 2021.96,-169.35 2014.06,-165 1923.61,-115.18 1609.36,-80.87 1492.38,-69.56"/>
<polygon fill="#63b8ff" stroke="#63b8ff" points="1492.63,-66.07 1482.34,-68.6 1491.96,-73.04 1492.63,-66.07"/>
</g>
<!-- Node54&#45;&gt;Node5 -->
<g id="edge82" class="edge">
<title>Node54&#45;&gt;Node5</title>
<path fill="none" stroke="#63b8ff" d="M1943.65,-330.52C1995.65,-319.84 2081.93,-301.4 2095.06,-294 2115.51,-282.47 2133.58,-262.17 2144.86,-247.63"/>
<polygon fill="#63b8ff" stroke="#63b8ff" points="2147.79,-249.55 2150.96,-239.44 2142.18,-245.36 2147.79,-249.55"/>
</g>
<!-- Node54&#45;&gt;Node8 -->
<g id="edge83" class="edge">
<title>Node54&#45;&gt;Node8</title>
<path fill="none" stroke="#63b8ff" d="M1864.38,-335.26C1753.14,-326.19 1438.07,-300.5 1309.61,-290.03"/>
<polygon fill="#63b8ff" stroke="#63b8ff" points="1309.85,-286.54 1299.6,-289.21 1309.28,-293.51 1309.85,-286.54"/>
</g>
</g>
</svg>
