<?xml version="1.0" encoding="UTF-8" standalone="no"?>
<!DOCTYPE svg PUBLIC "-//W3C//DTD SVG 1.1//EN"
 "http://www.w3.org/Graphics/SVG/1.1/DTD/svg11.dtd">
<!-- Generated by graphviz version 2.43.0 (0)
 -->
<!-- Title: src/sidebars/UnicodeSidebar.h Pages: 1 -->
<svg width="2779pt" height="313pt"
 viewBox="0.00 0.00 2778.89 313.00" xmlns="http://www.w3.org/2000/svg" xmlns:xlink="http://www.w3.org/1999/xlink">
<g id="graph0" class="graph" transform="scale(1 1) rotate(0) translate(4 309)">
<title>src/sidebars/UnicodeSidebar.h</title>
<!-- Node1 -->
<g id="node1" class="node">
<title>Node1</title>
<g id="a_node1"><a xlink:title="This file contains the definition of the class Unicodesidebar that allows to select arbitrary unicode...">
<polygon fill="#999999" stroke="#666666" points="2530.39,-305 2367.39,-305 2367.39,-286 2530.39,-286 2530.39,-305"/>
<text text-anchor="middle" x="2448.89" y="-293" font-family="Helvetica,sans-Serif" font-size="10.00">src/sidebars/UnicodeSidebar.h</text>
</a>
</g>
</g>
<!-- Node2 -->
<g id="node2" class="node">
<title>Node2</title>
<g id="a_node2"><a xlink:href="Worksheet_8h.html" target="_top" xlink:title="This file defines the class Worksheet.">
<polygon fill="white" stroke="#666666" points="1162.39,-250 1067.39,-250 1067.39,-231 1162.39,-231 1162.39,-250"/>
<text text-anchor="middle" x="1114.89" y="-238" font-family="Helvetica,sans-Serif" font-size="10.00">src/Worksheet.h</text>
</a>
</g>
</g>
<!-- Node1&#45;&gt;Node2 -->
<g id="edge1" class="edge">
<title>Node1&#45;&gt;Node2</title>
<path fill="none" stroke="#63b8ff" d="M2357,-290.85C2096.22,-280.49 1357.75,-251.15 1162.65,-243.4"/>
<polygon fill="#63b8ff" stroke="#63b8ff" points="2357.07,-294.35 2367.2,-291.25 2357.34,-287.36 2357.07,-294.35"/>
</g>
<!-- Node18 -->
<g id="node18" class="node">
<title>Node18</title>
<g id="a_node18"><a xlink:href="wxMaximaFrame_8cpp.html" target="_top" xlink:title="This file defines the class wxMaximaFrame.">
<polygon fill="white" stroke="#666666" points="2524.39,-129 2385.39,-129 2385.39,-110 2524.39,-110 2524.39,-129"/>
<text text-anchor="middle" x="2454.89" y="-117" font-family="Helvetica,sans-Serif" font-size="10.00">src/wxMaximaFrame.cpp</text>
</a>
</g>
</g>
<!-- Node1&#45;&gt;Node18 -->
<g id="edge44" class="edge">
<title>Node1&#45;&gt;Node18</title>
<path fill="none" stroke="#63b8ff" d="M2432.96,-278.34C2426.31,-270.47 2419.34,-260.46 2415.89,-250 2400.94,-204.74 2434.22,-149.83 2448.64,-129.03"/>
<polygon fill="#63b8ff" stroke="#63b8ff" points="2430.56,-280.9 2439.87,-285.96 2435.74,-276.2 2430.56,-280.9"/>
</g>
<!-- Node31 -->
<g id="node31" class="node">
<title>Node31</title>
<g id="a_node31"><a xlink:href="CharButton_8cpp.html" target="_top" xlink:title="This file defines the class CharacterButton.">
<polygon fill="white" stroke="#666666" points="2578.39,-250 2425.39,-250 2425.39,-231 2578.39,-231 2578.39,-250"/>
<text text-anchor="middle" x="2501.89" y="-238" font-family="Helvetica,sans-Serif" font-size="10.00">src/sidebars/CharButton.cpp</text>
</a>
</g>
</g>
<!-- Node1&#45;&gt;Node31 -->
<g id="edge42" class="edge">
<title>Node1&#45;&gt;Node31</title>
<path fill="none" stroke="#63b8ff" d="M2464.87,-278.52C2474.21,-269.18 2485.63,-257.75 2493.3,-250.09"/>
<polygon fill="#63b8ff" stroke="#63b8ff" points="2462.23,-276.2 2457.64,-285.75 2467.18,-281.15 2462.23,-276.2"/>
</g>
<!-- Node32 -->
<g id="node32" class="node">
<title>Node32</title>
<g id="a_node32"><a xlink:href="UnicodeSidebar_8cpp.html" target="_top" xlink:title="This file defines the class UnicodeSidebar.">
<polygon fill="white" stroke="#666666" points="2770.89,-250 2596.89,-250 2596.89,-231 2770.89,-231 2770.89,-250"/>
<text text-anchor="middle" x="2683.89" y="-238" font-family="Helvetica,sans-Serif" font-size="10.00">src/sidebars/UnicodeSidebar.cpp</text>
</a>
</g>
</g>
<!-- Node1&#45;&gt;Node32 -->
<g id="edge43" class="edge">
<title>Node1&#45;&gt;Node32</title>
<path fill="none" stroke="#63b8ff" d="M2496.54,-283.75C2540.57,-273.82 2605.15,-259.26 2645.83,-250.08"/>
<polygon fill="#63b8ff" stroke="#63b8ff" points="2495.63,-280.37 2486.64,-285.98 2497.17,-287.2 2495.63,-280.37"/>
</g>
<!-- Node3 -->
<g id="node3" class="node">
<title>Node3</title>
<g id="a_node3"><a xlink:href="Worksheet_8cpp.html" target="_top" xlink:title="This file defines the class Worksheet.">
<polygon fill="white" stroke="#666666" points="1833.89,-74 1727.89,-74 1727.89,-55 1833.89,-55 1833.89,-74"/>
<text text-anchor="middle" x="1780.89" y="-62" font-family="Helvetica,sans-Serif" font-size="10.00">src/Worksheet.cpp</text>
</a>
</g>
</g>
<!-- Node2&#45;&gt;Node3 -->
<g id="edge2" class="edge">
<title>Node2&#45;&gt;Node3</title>
<path fill="none" stroke="#63b8ff" d="M1056.97,-238.79C863.16,-236.15 247.81,-225.4 218.89,-195 209.69,-185.34 209.75,-174.71 218.89,-165 276.07,-104.24 1634.85,-82.11 1717.89,-74 1721.07,-73.69 1724.34,-73.34 1727.64,-72.96"/>
<polygon fill="#63b8ff" stroke="#63b8ff" points="1057.19,-242.3 1067.23,-238.93 1057.28,-235.3 1057.19,-242.3"/>
</g>
<!-- Node4 -->
<g id="node4" class="node">
<title>Node4</title>
<g id="a_node4"><a xlink:href="WorksheetContextMenu_8cpp.html" target="_top" xlink:title="The worksheet&#39;s right&#45;click context menu (see WorksheetContextMenu.h).">
<polygon fill="white" stroke="#666666" points="2164.39,-189.5 1993.39,-189.5 1993.39,-170.5 2164.39,-170.5 2164.39,-189.5"/>
<text text-anchor="middle" x="2078.89" y="-177.5" font-family="Helvetica,sans-Serif" font-size="10.00">src/WorksheetContextMenu.cpp</text>
</a>
</g>
</g>
<!-- Node2&#45;&gt;Node4 -->
<g id="edge3" class="edge">
<title>Node2&#45;&gt;Node4</title>
<path fill="none" stroke="#63b8ff" d="M1172.78,-238.27C1311.96,-234.93 1676.21,-223.93 1978.89,-195 1993.63,-193.59 2009.54,-191.59 2024.23,-189.53"/>
<polygon fill="#63b8ff" stroke="#63b8ff" points="1172.68,-234.77 1162.76,-238.51 1172.84,-241.77 1172.68,-234.77"/>
</g>
<!-- Node5 -->
<g id="node5" class="node">
<title>Node5</title>
<g id="a_node5"><a xlink:href="ConfigDialogue_8h.html" target="_top" xlink:title="The configuration dialog.">
<polygon fill="white" stroke="#666666" points="1709.39,-74 1554.39,-74 1554.39,-55 1709.39,-55 1709.39,-74"/>
<text text-anchor="middle" x="1631.89" y="-62" font-family="Helvetica,sans-Serif" font-size="10.00">src/dialogs/ConfigDialogue.h</text>
</a>
</g>
</g>
<!-- Node2&#45;&gt;Node5 -->
<g id="edge4" class="edge">
<title>Node2&#45;&gt;Node5</title>
<path fill="none" stroke="#63b8ff" d="M1172.62,-238.56C1356.7,-235.29 1919.3,-223.04 1945.89,-195 1955.06,-185.32 1954.06,-175.54 1945.89,-165 1906.52,-114.23 1867.25,-148.04 1805.89,-129 1749.99,-111.66 1685.62,-86.88 1653.09,-74"/>
<polygon fill="#63b8ff" stroke="#63b8ff" points="1172.53,-235.06 1162.59,-238.74 1172.65,-242.06 1172.53,-235.06"/>
</g>
<!-- Node9 -->
<g id="node9" class="node">
<title>Node9</title>
<g id="a_node9"><a xlink:href="DiffFrame_8h_source.html" target="_top" xlink:title=" ">
<polygon fill="white" stroke="#666666" points="1536.39,-74 1407.39,-74 1407.39,-55 1536.39,-55 1536.39,-74"/>
<text text-anchor="middle" x="1471.89" y="-62" font-family="Helvetica,sans-Serif" font-size="10.00">src/dialogs/DiffFrame.h</text>
</a>
</g>
</g>
<!-- Node2&#45;&gt;Node9 -->
<g id="edge8" class="edge">
<title>Node2&#45;&gt;Node9</title>
<path fill="none" stroke="#63b8ff" d="M1057.14,-239.37C834.66,-238.6 43.54,-233.16 6.89,-195 -2.35,-185.38 -2.22,-174.74 6.89,-165 55.37,-113.11 1129.84,-76.15 1407.08,-67.46"/>
<polygon fill="#63b8ff" stroke="#63b8ff" points="1057.29,-242.87 1067.3,-239.4 1057.31,-235.87 1057.29,-242.87"/>
</g>
<!-- Node10 -->
<g id="node10" class="node">
<title>Node10</title>
<g id="a_node10"><a xlink:href="Printout_8cpp.html" target="_top" xlink:title="This file defines the class MathPrintOut.">
<polygon fill="white" stroke="#666666" points="171.39,-189.5 16.39,-189.5 16.39,-170.5 171.39,-170.5 171.39,-189.5"/>
<text text-anchor="middle" x="93.89" y="-177.5" font-family="Helvetica,sans-Serif" font-size="10.00">src/graphical_io/Printout.cpp</text>
</a>
</g>
</g>
<!-- Node2&#45;&gt;Node10 -->
<g id="edge12" class="edge">
<title>Node2&#45;&gt;Node10</title>
<path fill="none" stroke="#63b8ff" d="M1057.31,-238.8C911.25,-236.59 514.6,-227.8 185.89,-195 172.22,-193.64 157.49,-191.64 143.9,-189.57"/>
<polygon fill="#63b8ff" stroke="#63b8ff" points="1057.34,-242.31 1067.39,-238.95 1057.44,-235.31 1057.34,-242.31"/>
</g>
<!-- Node11 -->
<g id="node11" class="node">
<title>Node11</title>
<g id="a_node11"><a xlink:href="wxMaximaFrame_8h.html" target="_top" xlink:title="This file declares the class wxMaximaFrame.">
<polygon fill="white" stroke="#666666" points="2310.89,-189.5 2182.89,-189.5 2182.89,-170.5 2310.89,-170.5 2310.89,-189.5"/>
<text text-anchor="middle" x="2246.89" y="-177.5" font-family="Helvetica,sans-Serif" font-size="10.00">src/wxMaximaFrame.h</text>
</a>
</g>
</g>
<!-- Node2&#45;&gt;Node11 -->
<g id="edge13" class="edge">
<title>Node2&#45;&gt;Node11</title>
<path fill="none" stroke="#63b8ff" d="M1172.61,-240C1332.27,-240.76 1793.12,-238.68 2172.89,-195 2184.19,-193.7 2196.35,-191.67 2207.49,-189.55"/>
<polygon fill="#63b8ff" stroke="#63b8ff" points="1172.55,-236.5 1162.53,-239.95 1172.51,-243.5 1172.55,-236.5"/>
</g>
<!-- Node19 -->
<g id="node19" class="node">
<title>Node19</title>
<g id="a_node19"><a xlink:href="test__Accessibility_8cpp.html" target="_top" xlink:title="Logic&#45;level regression tests for wxMaxima&#39;s custom wxAccessible classes.">
<polygon fill="white" stroke="#666666" points="335.89,-195 227.89,-195 227.89,-165 335.89,-165 335.89,-195"/>
<text text-anchor="start" x="235.89" y="-183" font-family="Helvetica,sans-Serif" font-size="10.00">test/unit_tests/test</text>
<text text-anchor="middle" x="281.89" y="-172" font-family="Helvetica,sans-Serif" font-size="10.00">_Accessibility.cpp</text>
</a>
</g>
</g>
<!-- Node2&#45;&gt;Node19 -->
<g id="edge30" class="edge">
<title>Node2&#45;&gt;Node19</title>
<path fill="none" stroke="#63b8ff" d="M1057.3,-239.33C928.83,-238.26 609.28,-231.77 344.89,-195 342,-194.6 339.05,-194.13 336.08,-193.62"/>
<polygon fill="#63b8ff" stroke="#63b8ff" points="1057.29,-242.83 1067.31,-239.4 1057.34,-235.83 1057.29,-242.83"/>
</g>
<!-- Node20 -->
<g id="node20" class="node">
<title>Node20</title>
<g id="a_node20"><a xlink:href="test__EditorCellInvariants_8cpp.html" target="_top" xlink:title="Hardening tests for EditorCell&#39;s text&#45;editing core.">
<polygon fill="white" stroke="#666666" points="491.89,-195 353.89,-195 353.89,-165 491.89,-165 491.89,-195"/>
<text text-anchor="start" x="361.89" y="-183" font-family="Helvetica,sans-Serif" font-size="10.00">test/unit_tests/test</text>
<text text-anchor="middle" x="422.89" y="-172" font-family="Helvetica,sans-Serif" font-size="10.00">_EditorCellInvariants.cpp</text>
</a>
</g>
</g>
<!-- Node2&#45;&gt;Node20 -->
<g id="edge31" class="edge">
<title>Node2&#45;&gt;Node20</title>
<path fill="none" stroke="#63b8ff" d="M1057.22,-237.35C948.2,-232.83 704.55,-220.59 500.89,-195 498.02,-194.64 495.1,-194.24 492.15,-193.82"/>
<polygon fill="#63b8ff" stroke="#63b8ff" points="1057.21,-240.85 1067.34,-237.76 1057.49,-233.85 1057.21,-240.85"/>
</g>
<!-- Node21 -->
<g id="node21" class="node">
<title>Node21</title>
<g id="a_node21"><a xlink:href="test__GroupCellLayout_8cpp.html" target="_top" xlink:title="Regression tests for the GroupCell &lt;&#45;&gt; EditorCell layout coupling.">
<polygon fill="white" stroke="#666666" points="633.39,-195 510.39,-195 510.39,-165 633.39,-165 633.39,-195"/>
<text text-anchor="start" x="518.39" y="-183" font-family="Helvetica,sans-Serif" font-size="10.00">test/unit_tests/test</text>
<text text-anchor="middle" x="571.89" y="-172" font-family="Helvetica,sans-Serif" font-size="10.00">_GroupCellLayout.cpp</text>
</a>
</g>
</g>
<!-- Node2&#45;&gt;Node21 -->
<g id="edge32" class="edge">
<title>Node2&#45;&gt;Node21</title>
<path fill="none" stroke="#63b8ff" d="M1056.95,-235.92C967.7,-229.99 791.36,-216.58 642.89,-195 639.78,-194.55 636.6,-194.05 633.39,-193.52"/>
<polygon fill="#63b8ff" stroke="#63b8ff" points="1056.92,-239.43 1067.13,-236.59 1057.38,-232.44 1056.92,-239.43"/>
</g>
<!-- Node22 -->
<g id="node22" class="node">
<title>Node22</title>
<g id="a_node22"><a xlink:href="test__LayoutInvariants_8cpp.html" target="_top" xlink:title="Layout idempotency invariants.">
<polygon fill="white" stroke="#666666" points="775.89,-195 651.89,-195 651.89,-165 775.89,-165 775.89,-195"/>
<text text-anchor="start" x="659.89" y="-183" font-family="Helvetica,sans-Serif" font-size="10.00">test/unit_tests/test</text>
<text text-anchor="middle" x="713.89" y="-172" font-family="Helvetica,sans-Serif" font-size="10.00">_LayoutInvariants.cpp</text>
</a>
</g>
</g>
<!-- Node2&#45;&gt;Node22 -->
<g id="edge33" class="edge">
<title>Node2&#45;&gt;Node22</title>
<path fill="none" stroke="#63b8ff" d="M1057.01,-232.77C990.99,-224.85 879.89,-210.76 784.89,-195 782.04,-194.53 779.12,-194.03 776.19,-193.51"/>
<polygon fill="#63b8ff" stroke="#63b8ff" points="1056.86,-236.28 1067.21,-233.99 1057.69,-229.33 1056.86,-236.28"/>
</g>
<!-- Node23 -->
<g id="node23" class="node">
<title>Node23</title>
<g id="a_node23"><a xlink:href="test__TreeUndo_8cpp.html" target="_top" xlink:title="Regression tests for the worksheet&#39;s cell&#45;tree undo/redo (the TreeUndo_* subsystem of Worksheet).">
<polygon fill="white" stroke="#666666" points="901.89,-195 793.89,-195 793.89,-165 901.89,-165 901.89,-195"/>
<text text-anchor="start" x="801.89" y="-183" font-family="Helvetica,sans-Serif" font-size="10.00">test/unit_tests/test</text>
<text text-anchor="middle" x="847.89" y="-172" font-family="Helvetica,sans-Serif" font-size="10.00">_TreeUndo.cpp</text>
</a>
</g>
</g>
<!-- Node2&#45;&gt;Node23 -->
<g id="edge34" class="edge">
<title>Node2&#45;&gt;Node23</title>
<path fill="none" stroke="#63b8ff" d="M1065.57,-228.8C1024.25,-219.82 963.7,-206.63 910.89,-195 908.04,-194.37 905.12,-193.73 902.18,-193.08"/>
<polygon fill="#63b8ff" stroke="#63b8ff" points="1064.87,-232.23 1075.39,-230.93 1066.36,-225.39 1064.87,-232.23"/>
</g>
<!-- Node24 -->
<g id="node24" class="node">
<title>Node24</title>
<g id="a_node24"><a xlink:href="test__WXMRoundtrip_8cpp.html" target="_top" xlink:title="Regression tests for images surviving the .wxm serialization round&#45;trip.">
<polygon fill="white" stroke="#666666" points="1035.39,-195 920.39,-195 920.39,-165 1035.39,-165 1035.39,-195"/>
<text text-anchor="start" x="928.39" y="-183" font-family="Helvetica,sans-Serif" font-size="10.00">test/unit_tests/test</text>
<text text-anchor="middle" x="977.89" y="-172" font-family="Helvetica,sans-Serif" font-size="10.00">_WXMRoundtrip.cpp</text>
</a>
</g>
</g>
<!-- Node2&#45;&gt;Node24 -->
<g id="edge35" class="edge">
<title>Node2&#45;&gt;Node24</title>
<path fill="none" stroke="#63b8ff" d="M1085.51,-226.95C1063.57,-217.59 1033.57,-204.78 1010.82,-195.06"/>
<polygon fill="#63b8ff" stroke="#63b8ff" points="1084.39,-230.29 1094.96,-230.99 1087.14,-223.85 1084.39,-230.29"/>
</g>
<!-- Node25 -->
<g id="node25" class="node">
<title>Node25</title>
<g id="a_node25"><a xlink:href="test__WXMXRoundtrip_8cpp.html" target="_top" xlink:title="Round&#45;trip tests for the .wxmx content.xml (the MathML&#45;like math format).">
<polygon fill="white" stroke="#666666" points="1175.89,-195 1053.89,-195 1053.89,-165 1175.89,-165 1175.89,-195"/>
<text text-anchor="start" x="1061.89" y="-183" font-family="Helvetica,sans-Serif" font-size="10.00">test/unit_tests/test</text>
<text text-anchor="middle" x="1114.89" y="-172" font-family="Helvetica,sans-Serif" font-size="10.00">_WXMXRoundtrip.cpp</text>
</a>
</g>
</g>
<!-- Node2&#45;&gt;Node25 -->
<g id="edge36" class="edge">
<title>Node2&#45;&gt;Node25</title>
<path fill="none" stroke="#63b8ff" d="M1114.89,-220.65C1114.89,-212.36 1114.89,-202.78 1114.89,-195.11"/>
<polygon fill="#63b8ff" stroke="#63b8ff" points="1111.39,-220.87 1114.89,-230.87 1118.39,-220.87 1111.39,-220.87"/>
</g>
<!-- Node26 -->
<g id="node26" class="node">
<title>Node26</title>
<g id="a_node26"><a xlink:href="test__WorksheetContextMenu_8cpp.html" target="_top" xlink:title="Regression tests for the worksheet&#39;s right&#45;click context menu.">
<polygon fill="white" stroke="#666666" points="1353.39,-195 1194.39,-195 1194.39,-165 1353.39,-165 1353.39,-195"/>
<text text-anchor="start" x="1202.39" y="-183" font-family="Helvetica,sans-Serif" font-size="10.00">test/unit_tests/test</text>
<text text-anchor="middle" x="1273.89" y="-172" font-family="Helvetica,sans-Serif" font-size="10.00">_WorksheetContextMenu.cpp</text>
</a>
</g>
</g>
<!-- Node2&#45;&gt;Node26 -->
<g id="edge37" class="edge">
<title>Node2&#45;&gt;Node26</title>
<path fill="none" stroke="#63b8ff" d="M1147.62,-227.46C1173.19,-218.05 1208.78,-204.95 1235.66,-195.06"/>
<polygon fill="#63b8ff" stroke="#63b8ff" points="1146.18,-224.26 1138.01,-230.99 1148.6,-230.83 1146.18,-224.26"/>
</g>
<!-- Node27 -->
<g id="node27" class="node">
<title>Node27</title>
<g id="a_node27"><a xlink:href="test__WorksheetCursor_8cpp.html" target="_top" xlink:title="Pins the worksheet&#39;s cursor model before it is gathered into a cursor class.">
<polygon fill="white" stroke="#666666" points="1496.39,-195 1371.39,-195 1371.39,-165 1496.39,-165 1496.39,-195"/>
<text text-anchor="start" x="1379.39" y="-183" font-family="Helvetica,sans-Serif" font-size="10.00">test/unit_tests/test</text>
<text text-anchor="middle" x="1433.89" y="-172" font-family="Helvetica,sans-Serif" font-size="10.00">_WorksheetCursor.cpp</text>
</a>
</g>
</g>
<!-- Node2&#45;&gt;Node27 -->
<g id="edge38" class="edge">
<title>Node2&#45;&gt;Node27</title>
<path fill="none" stroke="#63b8ff" d="M1172.73,-229.31C1222.81,-220.43 1297.18,-207.12 1361.89,-195 1364.89,-194.44 1367.96,-193.86 1371.07,-193.27"/>
<polygon fill="#63b8ff" stroke="#63b8ff" points="1171.97,-225.89 1162.73,-231.08 1173.19,-232.78 1171.97,-225.89"/>
</g>
<!-- Node28 -->
<g id="node28" class="node">
<title>Node28</title>
<g id="a_node28"><a xlink:href="test__WorksheetEvalQueue_8cpp.html" target="_top" xlink:title="Pins the worksheet&#39;s &quot;add cells to the evaluation queue&quot; behavior before the Add*ToEvaluationQueue fa...">
<polygon fill="white" stroke="#666666" points="1660.89,-195 1514.89,-195 1514.89,-165 1660.89,-165 1660.89,-195"/>
<text text-anchor="start" x="1522.89" y="-183" font-family="Helvetica,sans-Serif" font-size="10.00">test/unit_tests/test</text>
<text text-anchor="middle" x="1587.89" y="-172" font-family="Helvetica,sans-Serif" font-size="10.00">_WorksheetEvalQueue.cpp</text>
</a>
</g>
</g>
<!-- Node2&#45;&gt;Node28 -->
<g id="edge39" class="edge">
<title>Node2&#45;&gt;Node28</title>
<path fill="none" stroke="#63b8ff" d="M1172.76,-233.87C1249.02,-226.24 1387.27,-211.62 1504.89,-195 1508.07,-194.55 1511.32,-194.07 1514.6,-193.58"/>
<polygon fill="#63b8ff" stroke="#63b8ff" points="1172.02,-230.43 1162.42,-234.9 1172.72,-237.4 1172.02,-230.43"/>
</g>
<!-- Node29 -->
<g id="node29" class="node">
<title>Node29</title>
<g id="a_node29"><a xlink:href="test__WorksheetExport_8cpp.html" target="_top" xlink:title="Safety net for the export/serialization cluster of Worksheet.">
<polygon fill="white" stroke="#666666" points="1804.39,-195 1679.39,-195 1679.39,-165 1804.39,-165 1804.39,-195"/>
<text text-anchor="start" x="1687.39" y="-183" font-family="Helvetica,sans-Serif" font-size="10.00">test/unit_tests/test</text>
<text text-anchor="middle" x="1741.89" y="-172" font-family="Helvetica,sans-Serif" font-size="10.00">_WorksheetExport.cpp</text>
</a>
</g>
</g>
<!-- Node2&#45;&gt;Node29 -->
<g id="edge40" class="edge">
<title>Node2&#45;&gt;Node29</title>
<path fill="none" stroke="#63b8ff" d="M1172.6,-237.01C1273.72,-232.16 1489.33,-219.71 1669.89,-195 1672.91,-194.59 1676.01,-194.13 1679.13,-193.63"/>
<polygon fill="#63b8ff" stroke="#63b8ff" points="1172.42,-233.51 1162.59,-237.48 1172.75,-240.5 1172.42,-233.51"/>
</g>
<!-- Node30 -->
<g id="node30" class="node">
<title>Node30</title>
<g id="a_node30"><a xlink:href="test__WorksheetFind_8cpp.html" target="_top" xlink:title="Pins the worksheet&#39;s find/replace behavior before the search engine is extracted into WorksheetSearch...">
<polygon fill="white" stroke="#666666" points="1936.89,-195 1822.89,-195 1822.89,-165 1936.89,-165 1936.89,-195"/>
<text text-anchor="start" x="1830.89" y="-183" font-family="Helvetica,sans-Serif" font-size="10.00">test/unit_tests/test</text>
<text text-anchor="middle" x="1879.89" y="-172" font-family="Helvetica,sans-Serif" font-size="10.00">_WorksheetFind.cpp</text>
</a>
</g>
</g>
<!-- Node2&#45;&gt;Node30 -->
<g id="edge41" class="edge">
<title>Node2&#45;&gt;Node30</title>
<path fill="none" stroke="#63b8ff" d="M1172.56,-238.6C1292.37,-236.11 1576.71,-227.04 1812.89,-195 1816.07,-194.57 1819.32,-194.07 1822.6,-193.53"/>
<polygon fill="#63b8ff" stroke="#63b8ff" points="1172.44,-235.1 1162.51,-238.8 1172.58,-242.1 1172.44,-235.1"/>
</g>
<!-- Node6 -->
<g id="node6" class="node">
<title>Node6</title>
<g id="a_node6"><a xlink:href="MaximaCommandMenus_8cpp.html" target="_top" xlink:title="Implementation of the menu&#45;command handlers extracted from wxMaxima &#45; see MaximaCommandMenus....">
<polygon fill="white" stroke="#666666" points="1559.89,-19 1383.89,-19 1383.89,0 1559.89,0 1559.89,-19"/>
<text text-anchor="middle" x="1471.89" y="-7" font-family="Helvetica,sans-Serif" font-size="10.00">src/MaximaCommandMenus.cpp</text>
</a>
</g>
</g>
<!-- Node5&#45;&gt;Node6 -->
<g id="edge5" class="edge">
<title>Node5&#45;&gt;Node6</title>
<path fill="none" stroke="#63b8ff" d="M1596.56,-51.8C1566.7,-41.91 1524.62,-27.97 1497.79,-19.08"/>
<polygon fill="#63b8ff" stroke="#63b8ff" points="1595.59,-55.16 1606.18,-54.98 1597.79,-48.52 1595.59,-55.16"/>
</g>
<!-- Node7 -->
<g id="node7" class="node">
<title>Node7</title>
<g id="a_node7"><a xlink:href="main_8cpp.html" target="_top" xlink:title="The file that defines the starting point of the program.">
<polygon fill="white" stroke="#666666" points="1710.39,-19 1631.39,-19 1631.39,0 1710.39,0 1710.39,-19"/>
<text text-anchor="middle" x="1670.89" y="-7" font-family="Helvetica,sans-Serif" font-size="10.00">src/main.cpp</text>
</a>
</g>
</g>
<!-- Node5&#45;&gt;Node7 -->
<g id="edge6" class="edge">
<title>Node5&#45;&gt;Node7</title>
<path fill="none" stroke="#63b8ff" d="M1644.27,-46.67C1651.02,-37.5 1659.09,-26.52 1664.57,-19.09"/>
<polygon fill="#63b8ff" stroke="#63b8ff" points="1641.43,-44.62 1638.33,-54.75 1647.07,-48.77 1641.43,-44.62"/>
</g>
<!-- Node8 -->
<g id="node8" class="node">
<title>Node8</title>
<g id="a_node8"><a xlink:href="wxMaxima_8cpp.html" target="_top" xlink:title="This file defines the contents of the class wxMaxima that contains most of the program&#39;s logic.">
<polygon fill="white" stroke="#666666" points="1875.89,-19 1767.89,-19 1767.89,0 1875.89,0 1875.89,-19"/>
<text text-anchor="middle" x="1821.89" y="-7" font-family="Helvetica,sans-Serif" font-size="10.00">src/wxMaxima.cpp</text>
</a>
</g>
</g>
<!-- Node5&#45;&gt;Node8 -->
<g id="edge7" class="edge">
<title>Node5&#45;&gt;Node8</title>
<path fill="none" stroke="#63b8ff" d="M1672.45,-52.18C1707.99,-42.27 1758.85,-28.08 1791.12,-19.08"/>
<polygon fill="#63b8ff" stroke="#63b8ff" points="1671.1,-48.93 1662.41,-54.98 1672.99,-55.67 1671.1,-48.93"/>
</g>
<!-- Node9&#45;&gt;Node6 -->
<g id="edge9" class="edge">
<title>Node9&#45;&gt;Node6</title>
<path fill="none" stroke="#63b8ff" d="M1471.89,-44.66C1471.89,-35.93 1471.89,-25.99 1471.89,-19.09"/>
<polygon fill="#63b8ff" stroke="#63b8ff" points="1468.39,-44.75 1471.89,-54.75 1475.39,-44.75 1468.39,-44.75"/>
</g>
<!-- Node9&#45;&gt;Node7 -->
<g id="edge10" class="edge">
<title>Node9&#45;&gt;Node7</title>
<path fill="none" stroke="#63b8ff" d="M1513.9,-52.31C1551.13,-42.39 1604.72,-28.12 1638.66,-19.08"/>
<polygon fill="#63b8ff" stroke="#63b8ff" points="1512.62,-49.03 1503.86,-54.98 1514.42,-55.79 1512.62,-49.03"/>
</g>
<!-- Node9&#45;&gt;Node8 -->
<g id="edge11" class="edge">
<title>Node9&#45;&gt;Node8</title>
<path fill="none" stroke="#63b8ff" d="M1538.08,-53.48C1604.62,-43.4 1705.94,-28.06 1767.81,-18.69"/>
<polygon fill="#63b8ff" stroke="#63b8ff" points="1537.48,-50.03 1528.12,-54.98 1538.53,-56.95 1537.48,-50.03"/>
</g>
<!-- Node11&#45;&gt;Node3 -->
<g id="edge15" class="edge">
<title>Node11&#45;&gt;Node3</title>
<path fill="none" stroke="#63b8ff" d="M2195.1,-168.65C2187.66,-167.32 2180.09,-166.06 2172.89,-165 2097.5,-153.91 1898.77,-165.51 1831.89,-129 1808.8,-116.4 1792.34,-88.59 1785.06,-74.32"/>
<polygon fill="#63b8ff" stroke="#63b8ff" points="2194.65,-172.12 2205.11,-170.48 2195.91,-165.24 2194.65,-172.12"/>
</g>
<!-- Node12 -->
<g id="node12" class="node">
<title>Node12</title>
<g id="a_node12"><a xlink:href="AutocompletePopup_8cpp.html" target="_top" xlink:title="This file defines the class AutocompletePopup.">
<polygon fill="white" stroke="#666666" points="2146.89,-129 1994.89,-129 1994.89,-110 2146.89,-110 2146.89,-129"/>
<text text-anchor="middle" x="2070.89" y="-117" font-family="Helvetica,sans-Serif" font-size="10.00">src/AutocompletePopup.cpp</text>
</a>
</g>
</g>
<!-- Node11&#45;&gt;Node12 -->
<g id="edge14" class="edge">
<title>Node11&#45;&gt;Node12</title>
<path fill="none" stroke="#63b8ff" d="M2211.74,-167.32C2177.7,-156 2126.89,-139.12 2096.51,-129.02"/>
<polygon fill="#63b8ff" stroke="#63b8ff" points="2210.7,-170.66 2221.29,-170.49 2212.91,-164.02 2210.7,-170.66"/>
</g>
<!-- Node13 -->
<g id="node13" class="node">
<title>Node13</title>
<g id="a_node13"><a xlink:href="EditorCell_8cpp.html" target="_top" xlink:title="This file defines the class EditorCell.">
<polygon fill="white" stroke="#666666" points="2055.39,-74 1928.39,-74 1928.39,-55 2055.39,-55 2055.39,-74"/>
<text text-anchor="middle" x="1991.89" y="-62" font-family="Helvetica,sans-Serif" font-size="10.00">src/cells/EditorCell.cpp</text>
</a>
</g>
</g>
<!-- Node11&#45;&gt;Node13 -->
<g id="edge16" class="edge">
<title>Node11&#45;&gt;Node13</title>
<path fill="none" stroke="#63b8ff" d="M2191.85,-168.57C2115.4,-154.06 1986.3,-129.5 1985.89,-129 1972.9,-113.3 1981.68,-87.36 1987.65,-74.02"/>
<polygon fill="#63b8ff" stroke="#63b8ff" points="2191.33,-172.03 2201.81,-170.46 2192.64,-165.15 2191.33,-172.03"/>
</g>
<!-- Node14 -->
<g id="node14" class="node">
<title>Node14</title>
<g id="a_node14"><a xlink:href="main_8h.html" target="_top" xlink:title="This file declares the class wxMaxima that contains most of the program&#39;s logic.">
<polygon fill="white" stroke="#666666" points="2141.89,-74 2073.89,-74 2073.89,-55 2141.89,-55 2141.89,-74"/>
<text text-anchor="middle" x="2107.89" y="-62" font-family="Helvetica,sans-Serif" font-size="10.00">src/main.h</text>
</a>
</g>
</g>
<!-- Node11&#45;&gt;Node14 -->
<g id="edge17" class="edge">
<title>Node11&#45;&gt;Node14</title>
<path fill="none" stroke="#63b8ff" d="M2285.22,-167.12C2318.3,-154.88 2357.87,-134.22 2337.89,-110 2313.49,-80.43 2200.32,-70.28 2142.34,-66.98"/>
<polygon fill="#63b8ff" stroke="#63b8ff" points="2283.93,-163.86 2275.67,-170.49 2286.27,-170.46 2283.93,-163.86"/>
</g>
<!-- Node16 -->
<g id="node16" class="node">
<title>Node16</title>
<g id="a_node16"><a xlink:href="GreekSidebar_8cpp.html" target="_top" xlink:title="This file defines the class GreekSidebar.">
<polygon fill="white" stroke="#666666" points="2328.89,-129 2164.89,-129 2164.89,-110 2328.89,-110 2328.89,-129"/>
<text text-anchor="middle" x="2246.89" y="-117" font-family="Helvetica,sans-Serif" font-size="10.00">src/sidebars/GreekSidebar.cpp</text>
</a>
</g>
</g>
<!-- Node11&#45;&gt;Node16 -->
<g id="edge21" class="edge">
<title>Node11&#45;&gt;Node16</title>
<path fill="none" stroke="#63b8ff" d="M2246.89,-160.16C2246.89,-149.74 2246.89,-137.3 2246.89,-129.17"/>
<polygon fill="#63b8ff" stroke="#63b8ff" points="2243.39,-160.37 2246.89,-170.37 2250.39,-160.37 2243.39,-160.37"/>
</g>
<!-- Node17 -->
<g id="node17" class="node">
<title>Node17</title>
<g id="a_node17"><a xlink:href="wxMaxima_8h.html" target="_top" xlink:title="This file declares the class wxMaxima that contains most of the program&#39;s logic.">
<polygon fill="white" stroke="#666666" points="1938.39,-129 1841.39,-129 1841.39,-110 1938.39,-110 1938.39,-129"/>
<text text-anchor="middle" x="1889.89" y="-117" font-family="Helvetica,sans-Serif" font-size="10.00">src/wxMaxima.h</text>
</a>
</g>
</g>
<!-- Node11&#45;&gt;Node17 -->
<g id="edge22" class="edge">
<title>Node11&#45;&gt;Node17</title>
<path fill="none" stroke="#63b8ff" d="M2193.19,-168.64C2186.36,-167.38 2179.46,-166.14 2172.89,-165 2090.8,-150.78 1994.98,-136.12 1938.54,-127.68"/>
<polygon fill="#63b8ff" stroke="#63b8ff" points="2192.63,-172.09 2203.1,-170.48 2193.91,-165.21 2192.63,-172.09"/>
</g>
<!-- Node11&#45;&gt;Node18 -->
<g id="edge29" class="edge">
<title>Node11&#45;&gt;Node18</title>
<path fill="none" stroke="#63b8ff" d="M2286.88,-167.75C2327.1,-156.44 2388.23,-139.25 2424.6,-129.02"/>
<polygon fill="#63b8ff" stroke="#63b8ff" points="2285.81,-164.42 2277.13,-170.49 2287.71,-171.16 2285.81,-164.42"/>
</g>
<!-- Node14&#45;&gt;Node7 -->
<g id="edge19" class="edge">
<title>Node14&#45;&gt;Node7</title>
<path fill="none" stroke="#63b8ff" d="M2064.19,-55.05C2064.09,-55.03 2063.99,-55.02 2063.89,-55 1996.35,-44.67 1796.34,-23.51 1710.62,-14.6"/>
<polygon fill="#63b8ff" stroke="#63b8ff" points="2063.38,-58.46 2073.82,-56.65 2064.53,-51.56 2063.38,-58.46"/>
</g>
<!-- Node14&#45;&gt;Node8 -->
<g id="edge20" class="edge">
<title>Node14&#45;&gt;Node8</title>
<path fill="none" stroke="#63b8ff" d="M2064.19,-55.06C2064.09,-55.04 2063.99,-55.02 2063.89,-55 1996.3,-42.26 1918.01,-27.94 1869.21,-19.07"/>
<polygon fill="#63b8ff" stroke="#63b8ff" points="2063.3,-58.45 2073.78,-56.88 2064.61,-51.57 2063.3,-58.45"/>
</g>
<!-- Node15 -->
<g id="node15" class="node">
<title>Node15</title>
<g id="a_node15"><a xlink:href="MaximaManual_8cpp.html" target="_top" xlink:title="This file defines the class MaximaManual.">
<polygon fill="white" stroke="#666666" points="2172.89,-19 2042.89,-19 2042.89,0 2172.89,0 2172.89,-19"/>
<text text-anchor="middle" x="2107.89" y="-7" font-family="Helvetica,sans-Serif" font-size="10.00">src/MaximaManual.cpp</text>
</a>
</g>
</g>
<!-- Node14&#45;&gt;Node15 -->
<g id="edge18" class="edge">
<title>Node14&#45;&gt;Node15</title>
<path fill="none" stroke="#63b8ff" d="M2107.89,-44.66C2107.89,-35.93 2107.89,-25.99 2107.89,-19.09"/>
<polygon fill="#63b8ff" stroke="#63b8ff" points="2104.39,-44.75 2107.89,-54.75 2111.39,-44.75 2104.39,-44.75"/>
</g>
<!-- Node17&#45;&gt;Node3 -->
<g id="edge24" class="edge">
<title>Node17&#45;&gt;Node3</title>
<path fill="none" stroke="#63b8ff" d="M1863.15,-105.5C1843.1,-95.75 1816.21,-82.68 1798.72,-74.17"/>
<polygon fill="#63b8ff" stroke="#63b8ff" points="1861.85,-108.76 1872.37,-109.98 1864.91,-102.46 1861.85,-108.76"/>
</g>
<!-- Node17&#45;&gt;Node6 -->
<g id="edge23" class="edge">
<title>Node17&#45;&gt;Node6</title>
<path fill="none" stroke="#63b8ff" d="M1831.23,-117.54C1707.05,-114.89 1426.62,-105.45 1397.89,-74 1378.02,-52.25 1419.34,-30.73 1447.86,-19.18"/>
<polygon fill="#63b8ff" stroke="#63b8ff" points="1831.25,-121.04 1841.32,-117.74 1831.39,-114.04 1831.25,-121.04"/>
</g>
<!-- Node17&#45;&gt;Node7 -->
<g id="edge26" class="edge">
<title>Node17&#45;&gt;Node7</title>
<path fill="none" stroke="#63b8ff" d="M1881.08,-100.63C1873.06,-86.2 1859.89,-66.47 1842.89,-55 1802.87,-28.01 1747.5,-17.39 1710.5,-13.21"/>
<polygon fill="#63b8ff" stroke="#63b8ff" points="1878.04,-102.38 1885.79,-109.61 1884.24,-99.12 1878.04,-102.38"/>
</g>
<!-- Node17&#45;&gt;Node8 -->
<g id="edge28" class="edge">
<title>Node17&#45;&gt;Node8</title>
<path fill="none" stroke="#63b8ff" d="M1888.93,-99.28C1887.51,-86.01 1884.09,-68.4 1875.89,-55 1866.37,-39.46 1849.47,-26.85 1837.1,-19.08"/>
<polygon fill="#63b8ff" stroke="#63b8ff" points="1885.46,-99.91 1889.72,-109.62 1892.44,-99.38 1885.46,-99.91"/>
</g>
<!-- Node17&#45;&gt;Node13 -->
<g id="edge25" class="edge">
<title>Node17&#45;&gt;Node13</title>
<path fill="none" stroke="#63b8ff" d="M1915.16,-105.37C1933.9,-95.63 1958.91,-82.64 1975.2,-74.17"/>
<polygon fill="#63b8ff" stroke="#63b8ff" points="1913.53,-102.27 1906.27,-109.98 1916.76,-108.48 1913.53,-102.27"/>
</g>
<!-- Node17&#45;&gt;Node14 -->
<g id="edge27" class="edge">
<title>Node17&#45;&gt;Node14</title>
<path fill="none" stroke="#63b8ff" d="M1934.7,-107.61C1975.93,-97.58 2036.18,-82.93 2073.67,-73.82"/>
<polygon fill="#63b8ff" stroke="#63b8ff" points="1933.8,-104.22 1924.91,-109.98 1935.46,-111.02 1933.8,-104.22"/>
</g>
</g>
</svg>
