<?xml version="1.0" encoding="UTF-8" standalone="no"?>
<!DOCTYPE svg PUBLIC "-//W3C//DTD SVG 1.1//EN"
 "http://www.w3.org/Graphics/SVG/1.1/DTD/svg11.dtd">
<!-- Generated by graphviz version 2.43.0 (0)
 -->
<!-- Title: src/WorksheetDocument.h Pages: 1 -->
<!--zoomable 313 -->
<svg id="main" version="1.1" xmlns="http://www.w3.org/2000/svg" xmlns:xlink="http://www.w3.org/1999/xlink" xml:space="preserve" onload="init(evt)">
<style type="text/css"><![CDATA[
.edge:hover path { stroke: red; }
.edge:hover polygon { stroke: red; fill: red; }
]]></style>
<script type="text/javascript"><![CDATA[
var edges = document.getElementsByTagName('g');
if (edges && edges.length) {
  for (var i=0;i<edges.length;i++) {
    if (edges[i].id.substr(0,4)=='edge') {
      edges[i].setAttribute('class','edge');
    }
  }
}
]]></script>
        <defs>
                <circle id="rim" cx="0" cy="0" r="7"/>
                <circle id="rim2" cx="0" cy="0" r="3.5"/>
                <g id="zoomPlus">
                        <use xlink:href="#rim" fill="#404040">
                                <set attributeName="fill" to="#808080" begin="zoomplus.mouseover" end="zoomplus.mouseout"/>
                        </use>
                        <path d="M-4,0h8M0,-4v8" fill="none" stroke="white" stroke-width="1.5" pointer-events="none"/>
                </g>
                <g id="zoomMin">
                        <use xlink:href="#rim" fill="#404040">
                                <set attributeName="fill" to="#808080" begin="zoomminus.mouseover" end="zoomminus.mouseout"/>
                        </use>
                        <path d="M-4,0h8" fill="none" stroke="white" stroke-width="1.5" pointer-events="none"/>
                </g>
                <g id="dirArrow">
                        <path fill="none" stroke="white" stroke-width="1.5" d="M0,-3.0v7 M-2.5,-0.5L0,-3.0L2.5,-0.5"/>
                </g>
               <g id="resetDef">
                       <use xlink:href="#rim2" fill="#404040">
                               <set attributeName="fill" to="#808080" begin="reset.mouseover" end="reset.mouseout"/>
                       </use>
               </g>
        </defs>

<script type="text/javascript">
var viewWidth = 2323;
var viewHeight = 313;
var sectionId = 'dynsection-1';
</script>
<script xlink:href="svgpan.js"/>
<svg id="graph" class="graph">
<g id="viewport">
<title>src/WorksheetDocument.h</title>
<!-- Node1 -->
<g id="node1" class="node">
<title>Node1</title>
<g id="a_node1"><a xlink:title="The document half of the worksheet: the state and commands that describe the edited document itself,...">
<polygon fill="#999999" stroke="#666666" points="1165.8,-305 1020.8,-305 1020.8,-286 1165.8,-286 1165.8,-305"/>
<text text-anchor="middle" x="1093.3" y="-293" font-family="Helvetica,sans-Serif" font-size="10.00">src/WorksheetDocument.h</text>
</a>
</g>
</g>
<!-- Node2 -->
<g id="node2" class="node">
<title>Node2</title>
<g id="a_node2"><a xlink:href="Worksheet_8h.html" target="_top" xlink:title="This file defines the class Worksheet.">
<polygon fill="white" stroke="#666666" points="1068.8,-250 973.8,-250 973.8,-231 1068.8,-231 1068.8,-250"/>
<text text-anchor="middle" x="1021.3" y="-238" font-family="Helvetica,sans-Serif" font-size="10.00">src/Worksheet.h</text>
</a>
</g>
</g>
<!-- Node1&#45;&gt;Node2 -->
<g id="edge1" class="edge">
<title>Node1&#45;&gt;Node2</title>
<path fill="none" stroke="#63b8ff" d="M1073.43,-279.88C1060.48,-270.34 1044,-258.21 1033.08,-250.17"/>
<polygon fill="#63b8ff" stroke="#63b8ff" points="1071.6,-282.88 1081.73,-285.98 1075.75,-277.24 1071.6,-282.88"/>
</g>
<!-- Node30 -->
<g id="node30" class="node">
<title>Node30</title>
<g id="a_node30"><a xlink:href="WorksheetDocument_8cpp.html" target="_top" xlink:title="Implementation of WorksheetDocument&#39;s structural edits &#45; see WorksheetDocument.h.">
<polygon fill="white" stroke="#666666" points="1243.3,-250 1087.3,-250 1087.3,-231 1243.3,-231 1243.3,-250"/>
<text text-anchor="middle" x="1165.3" y="-238" font-family="Helvetica,sans-Serif" font-size="10.00">src/WorksheetDocument.cpp</text>
</a>
</g>
</g>
<!-- Node1&#45;&gt;Node30 -->
<g id="edge39" class="edge">
<title>Node1&#45;&gt;Node30</title>
<path fill="none" stroke="#63b8ff" d="M1113.16,-279.88C1126.12,-270.34 1142.6,-258.21 1153.52,-250.17"/>
<polygon fill="#63b8ff" stroke="#63b8ff" points="1110.85,-277.24 1104.87,-285.98 1115,-282.88 1110.85,-277.24"/>
</g>
<!-- Node3 -->
<g id="node3" class="node">
<title>Node3</title>
<g id="a_node3"><a xlink:href="Worksheet_8cpp.html" target="_top" xlink:title="This file defines the class Worksheet.">
<polygon fill="white" stroke="#666666" points="427.3,-74 321.3,-74 321.3,-55 427.3,-55 427.3,-74"/>
<text text-anchor="middle" x="374.3" y="-62" font-family="Helvetica,sans-Serif" font-size="10.00">src/Worksheet.cpp</text>
</a>
</g>
</g>
<!-- Node2&#45;&gt;Node3 -->
<g id="edge2" class="edge">
<title>Node2&#45;&gt;Node3</title>
<path fill="none" stroke="#63b8ff" d="M963.71,-238.18C793.26,-234.01 301.72,-219.86 278.3,-195 255.55,-170.85 302.88,-113.81 306.3,-110 320.34,-94.35 341.07,-81.84 355.95,-74.12"/>
<polygon fill="#63b8ff" stroke="#63b8ff" points="963.66,-241.68 973.75,-238.43 963.83,-234.69 963.66,-241.68"/>
</g>
<!-- Node4 -->
<g id="node4" class="node">
<title>Node4</title>
<g id="a_node4"><a xlink:href="WorksheetContextMenu_8cpp.html" target="_top" xlink:title="The worksheet&#39;s right&#45;click context menu (see WorksheetContextMenu.h).">
<polygon fill="white" stroke="#666666" points="191.8,-189.5 20.8,-189.5 20.8,-170.5 191.8,-170.5 191.8,-189.5"/>
<text text-anchor="middle" x="106.3" y="-177.5" font-family="Helvetica,sans-Serif" font-size="10.00">src/WorksheetContextMenu.cpp</text>
</a>
</g>
</g>
<!-- Node2&#45;&gt;Node4 -->
<g id="edge3" class="edge">
<title>Node2&#45;&gt;Node4</title>
<path fill="none" stroke="#63b8ff" d="M963.4,-238.02C829.75,-234.24 489.46,-222.5 206.3,-195 191.56,-193.57 175.65,-191.56 160.96,-189.5"/>
<polygon fill="#63b8ff" stroke="#63b8ff" points="963.33,-241.52 973.42,-238.3 963.53,-234.52 963.33,-241.52"/>
</g>
<!-- Node5 -->
<g id="node5" class="node">
<title>Node5</title>
<g id="a_node5"><a xlink:href="ConfigDialogue_8h.html" target="_top" xlink:title="The configuration dialog.">
<polygon fill="white" stroke="#666666" points="302.8,-74 147.8,-74 147.8,-55 302.8,-55 302.8,-74"/>
<text text-anchor="middle" x="225.3" y="-62" font-family="Helvetica,sans-Serif" font-size="10.00">src/dialogs/ConfigDialogue.h</text>
</a>
</g>
</g>
<!-- Node2&#45;&gt;Node5 -->
<g id="edge4" class="edge">
<title>Node2&#45;&gt;Node5</title>
<path fill="none" stroke="#63b8ff" d="M963.7,-239.78C796.91,-240.09 321.92,-237.22 267.3,-195 228.4,-164.93 224.99,-98.23 225.07,-74.28"/>
<polygon fill="#63b8ff" stroke="#63b8ff" points="963.77,-243.28 973.76,-239.76 963.76,-236.28 963.77,-243.28"/>
</g>
<!-- Node8 -->
<g id="node8" class="node">
<title>Node8</title>
<g id="a_node8"><a xlink:href="DiffFrame_8h_source.html" target="_top" xlink:title=" ">
<polygon fill="white" stroke="#666666" points="129.8,-74 0.8,-74 0.8,-55 129.8,-55 129.8,-74"/>
<text text-anchor="middle" x="65.3" y="-62" font-family="Helvetica,sans-Serif" font-size="10.00">src/dialogs/DiffFrame.h</text>
</a>
</g>
</g>
<!-- Node2&#45;&gt;Node8 -->
<g id="edge7" class="edge">
<title>Node2&#45;&gt;Node8</title>
<path fill="none" stroke="#63b8ff" d="M963.53,-239.14C753.97,-237.53 44.38,-229.57 11.3,-195 -23.39,-158.75 32.71,-96.98 55.95,-74.24"/>
<polygon fill="#63b8ff" stroke="#63b8ff" points="963.68,-242.64 973.71,-239.21 963.73,-235.64 963.68,-242.64"/>
</g>
<!-- Node9 -->
<g id="node9" class="node">
<title>Node9</title>
<g id="a_node9"><a xlink:href="Printout_8cpp.html" target="_top" xlink:title="This file defines the class MathPrintOut.">
<polygon fill="white" stroke="#666666" points="441.8,-189.5 286.8,-189.5 286.8,-170.5 441.8,-170.5 441.8,-189.5"/>
<text text-anchor="middle" x="364.3" y="-177.5" font-family="Helvetica,sans-Serif" font-size="10.00">src/graphical_io/Printout.cpp</text>
</a>
</g>
</g>
<!-- Node2&#45;&gt;Node9 -->
<g id="edge10" class="edge">
<title>Node2&#45;&gt;Node9</title>
<path fill="none" stroke="#63b8ff" d="M963.3,-236.54C860.08,-230.92 637.83,-217.25 451.3,-195 438.84,-193.51 425.44,-191.54 412.98,-189.55"/>
<polygon fill="#63b8ff" stroke="#63b8ff" points="963.33,-240.05 973.5,-237.09 963.71,-233.06 963.33,-240.05"/>
</g>
<!-- Node10 -->
<g id="node10" class="node">
<title>Node10</title>
<g id="a_node10"><a xlink:href="wxMaximaFrame_8h.html" target="_top" xlink:title="This file declares the class wxMaximaFrame.">
<polygon fill="white" stroke="#666666" points="588.3,-189.5 460.3,-189.5 460.3,-170.5 588.3,-170.5 588.3,-189.5"/>
<text text-anchor="middle" x="524.3" y="-177.5" font-family="Helvetica,sans-Serif" font-size="10.00">src/wxMaximaFrame.h</text>
</a>
</g>
</g>
<!-- Node2&#45;&gt;Node10 -->
<g id="edge11" class="edge">
<title>Node2&#45;&gt;Node10</title>
<path fill="none" stroke="#63b8ff" d="M963.68,-235.01C881.93,-228.3 727.72,-214.31 597.3,-195 586.96,-193.47 575.85,-191.5 565.5,-189.54"/>
<polygon fill="#63b8ff" stroke="#63b8ff" points="963.51,-238.51 973.76,-235.84 964.08,-231.54 963.51,-238.51"/>
</g>
<!-- Node18 -->
<g id="node18" class="node">
<title>Node18</title>
<g id="a_node18"><a xlink:href="test__Accessibility_8cpp.html" target="_top" xlink:title="Logic&#45;level regression tests for wxMaxima&#39;s custom wxAccessible classes.">
<polygon fill="white" stroke="#666666" points="714.3,-195 606.3,-195 606.3,-165 714.3,-165 714.3,-195"/>
<text text-anchor="start" x="614.3" y="-183" font-family="Helvetica,sans-Serif" font-size="10.00">test/unit_tests/test</text>
<text text-anchor="middle" x="660.3" y="-172" font-family="Helvetica,sans-Serif" font-size="10.00">_Accessibility.cpp</text>
</a>
</g>
</g>
<!-- Node2&#45;&gt;Node18 -->
<g id="edge27" class="edge">
<title>Node2&#45;&gt;Node18</title>
<path fill="none" stroke="#63b8ff" d="M963.58,-232.11C903.4,-224.11 806.44,-210.43 723.3,-195 720.43,-194.47 717.5,-193.9 714.55,-193.31"/>
<polygon fill="#63b8ff" stroke="#63b8ff" points="963.27,-235.6 973.64,-233.44 964.19,-228.66 963.27,-235.6"/>
</g>
<!-- Node19 -->
<g id="node19" class="node">
<title>Node19</title>
<g id="a_node19"><a xlink:href="test__EditorCellInvariants_8cpp.html" target="_top" xlink:title="Hardening tests for EditorCell&#39;s text&#45;editing core.">
<polygon fill="white" stroke="#666666" points="870.3,-195 732.3,-195 732.3,-165 870.3,-165 870.3,-195"/>
<text text-anchor="start" x="740.3" y="-183" font-family="Helvetica,sans-Serif" font-size="10.00">test/unit_tests/test</text>
<text text-anchor="middle" x="801.3" y="-172" font-family="Helvetica,sans-Serif" font-size="10.00">_EditorCellInvariants.cpp</text>
</a>
</g>
</g>
<!-- Node2&#45;&gt;Node19 -->
<g id="edge28" class="edge">
<title>Node2&#45;&gt;Node19</title>
<path fill="none" stroke="#63b8ff" d="M979.26,-228.32C943.69,-218.86 892.53,-205.26 854.19,-195.06"/>
<polygon fill="#63b8ff" stroke="#63b8ff" points="978.75,-231.81 989.31,-230.99 980.54,-225.04 978.75,-231.81"/>
</g>
<!-- Node20 -->
<g id="node20" class="node">
<title>Node20</title>
<g id="a_node20"><a xlink:href="test__GroupCellLayout_8cpp.html" target="_top" xlink:title="Regression tests for the GroupCell &lt;&#45;&gt; EditorCell layout coupling.">
<polygon fill="white" stroke="#666666" points="1011.8,-195 888.8,-195 888.8,-165 1011.8,-165 1011.8,-195"/>
<text text-anchor="start" x="896.8" y="-183" font-family="Helvetica,sans-Serif" font-size="10.00">test/unit_tests/test</text>
<text text-anchor="middle" x="950.3" y="-172" font-family="Helvetica,sans-Serif" font-size="10.00">_GroupCellLayout.cpp</text>
</a>
</g>
</g>
<!-- Node2&#45;&gt;Node20 -->
<g id="edge29" class="edge">
<title>Node2&#45;&gt;Node20</title>
<path fill="none" stroke="#63b8ff" d="M1003.1,-224.5C992.11,-215.45 978.21,-204 967.43,-195.11"/>
<polygon fill="#63b8ff" stroke="#63b8ff" points="1000.88,-227.21 1010.82,-230.87 1005.33,-221.81 1000.88,-227.21"/>
</g>
<!-- Node21 -->
<g id="node21" class="node">
<title>Node21</title>
<g id="a_node21"><a xlink:href="test__LayoutInvariants_8cpp.html" target="_top" xlink:title="Layout idempotency invariants.">
<polygon fill="white" stroke="#666666" points="1154.3,-195 1030.3,-195 1030.3,-165 1154.3,-165 1154.3,-195"/>
<text text-anchor="start" x="1038.3" y="-183" font-family="Helvetica,sans-Serif" font-size="10.00">test/unit_tests/test</text>
<text text-anchor="middle" x="1092.3" y="-172" font-family="Helvetica,sans-Serif" font-size="10.00">_LayoutInvariants.cpp</text>
</a>
</g>
</g>
<!-- Node2&#45;&gt;Node21 -->
<g id="edge30" class="edge">
<title>Node2&#45;&gt;Node21</title>
<path fill="none" stroke="#63b8ff" d="M1039.5,-224.5C1050.48,-215.45 1064.39,-204 1075.17,-195.11"/>
<polygon fill="#63b8ff" stroke="#63b8ff" points="1037.27,-221.81 1031.78,-230.87 1041.72,-227.21 1037.27,-221.81"/>
</g>
<!-- Node22 -->
<g id="node22" class="node">
<title>Node22</title>
<g id="a_node22"><a xlink:href="test__TreeUndo_8cpp.html" target="_top" xlink:title="Regression tests for the worksheet&#39;s cell&#45;tree undo/redo (the TreeUndo_* subsystem of Worksheet).">
<polygon fill="white" stroke="#666666" points="1280.3,-195 1172.3,-195 1172.3,-165 1280.3,-165 1280.3,-195"/>
<text text-anchor="start" x="1180.3" y="-183" font-family="Helvetica,sans-Serif" font-size="10.00">test/unit_tests/test</text>
<text text-anchor="middle" x="1226.3" y="-172" font-family="Helvetica,sans-Serif" font-size="10.00">_TreeUndo.cpp</text>
</a>
</g>
</g>
<!-- Node2&#45;&gt;Node22 -->
<g id="edge31" class="edge">
<title>Node2&#45;&gt;Node22</title>
<path fill="none" stroke="#63b8ff" d="M1060.9,-228.2C1094.02,-218.75 1141.44,-205.22 1177.01,-195.06"/>
<polygon fill="#63b8ff" stroke="#63b8ff" points="1059.76,-224.88 1051.11,-230.99 1061.68,-231.62 1059.76,-224.88"/>
</g>
<!-- Node23 -->
<g id="node23" class="node">
<title>Node23</title>
<g id="a_node23"><a xlink:href="test__WXMRoundtrip_8cpp.html" target="_top" xlink:title="Regression tests for images surviving the .wxm serialization round&#45;trip.">
<polygon fill="white" stroke="#666666" points="1413.8,-195 1298.8,-195 1298.8,-165 1413.8,-165 1413.8,-195"/>
<text text-anchor="start" x="1306.8" y="-183" font-family="Helvetica,sans-Serif" font-size="10.00">test/unit_tests/test</text>
<text text-anchor="middle" x="1356.3" y="-172" font-family="Helvetica,sans-Serif" font-size="10.00">_WXMRoundtrip.cpp</text>
</a>
</g>
</g>
<!-- Node2&#45;&gt;Node23 -->
<g id="edge32" class="edge">
<title>Node2&#45;&gt;Node23</title>
<path fill="none" stroke="#63b8ff" d="M1078.98,-230.63C1133.34,-222.1 1217,-208.55 1289.3,-195 1292.34,-194.43 1295.45,-193.83 1298.59,-193.22"/>
<polygon fill="#63b8ff" stroke="#63b8ff" points="1078.19,-227.21 1068.85,-232.21 1079.27,-234.13 1078.19,-227.21"/>
</g>
<!-- Node24 -->
<g id="node24" class="node">
<title>Node24</title>
<g id="a_node24"><a xlink:href="test__WXMXRoundtrip_8cpp.html" target="_top" xlink:title="Round&#45;trip tests for the .wxmx content.xml (the MathML&#45;like math format).">
<polygon fill="white" stroke="#666666" points="1554.3,-195 1432.3,-195 1432.3,-165 1554.3,-165 1554.3,-195"/>
<text text-anchor="start" x="1440.3" y="-183" font-family="Helvetica,sans-Serif" font-size="10.00">test/unit_tests/test</text>
<text text-anchor="middle" x="1493.3" y="-172" font-family="Helvetica,sans-Serif" font-size="10.00">_WXMXRoundtrip.cpp</text>
</a>
</g>
</g>
<!-- Node2&#45;&gt;Node24 -->
<g id="edge33" class="edge">
<title>Node2&#45;&gt;Node24</title>
<path fill="none" stroke="#63b8ff" d="M1079.16,-230.95C1233,-211.89 1274.15,-217.65 1423.3,-195 1426.24,-194.55 1429.24,-194.07 1432.27,-193.55"/>
<polygon fill="#63b8ff" stroke="#63b8ff" points="1078.35,-227.53 1068.86,-232.25 1079.22,-234.47 1078.35,-227.53"/>
</g>
<!-- Node25 -->
<g id="node25" class="node">
<title>Node25</title>
<g id="a_node25"><a xlink:href="test__WorksheetContextMenu_8cpp.html" target="_top" xlink:title="Regression tests for the worksheet&#39;s right&#45;click context menu.">
<polygon fill="white" stroke="#666666" points="1731.8,-195 1572.8,-195 1572.8,-165 1731.8,-165 1731.8,-195"/>
<text text-anchor="start" x="1580.8" y="-183" font-family="Helvetica,sans-Serif" font-size="10.00">test/unit_tests/test</text>
<text text-anchor="middle" x="1652.3" y="-172" font-family="Helvetica,sans-Serif" font-size="10.00">_WorksheetContextMenu.cpp</text>
</a>
</g>
</g>
<!-- Node2&#45;&gt;Node25 -->
<g id="edge34" class="edge">
<title>Node2&#45;&gt;Node25</title>
<path fill="none" stroke="#63b8ff" d="M1078.92,-231.03C1294.83,-207.42 1351.83,-219.44 1563.3,-195 1566.41,-194.64 1569.57,-194.25 1572.77,-193.84"/>
<polygon fill="#63b8ff" stroke="#63b8ff" points="1078.4,-227.56 1068.85,-232.14 1079.17,-234.52 1078.4,-227.56"/>
</g>
<!-- Node26 -->
<g id="node26" class="node">
<title>Node26</title>
<g id="a_node26"><a xlink:href="test__WorksheetCursor_8cpp.html" target="_top" xlink:title="Pins the worksheet&#39;s cursor model before it is gathered into a cursor class.">
<polygon fill="white" stroke="#666666" points="1874.8,-195 1749.8,-195 1749.8,-165 1874.8,-165 1874.8,-195"/>
<text text-anchor="start" x="1757.8" y="-183" font-family="Helvetica,sans-Serif" font-size="10.00">test/unit_tests/test</text>
<text text-anchor="middle" x="1812.3" y="-172" font-family="Helvetica,sans-Serif" font-size="10.00">_WorksheetCursor.cpp</text>
</a>
</g>
</g>
<!-- Node2&#45;&gt;Node26 -->
<g id="edge35" class="edge">
<title>Node2&#45;&gt;Node26</title>
<path fill="none" stroke="#63b8ff" d="M1078.97,-231.05C1373.64,-201.88 1451.77,-231.22 1741.3,-195 1744.04,-194.66 1746.84,-194.27 1749.66,-193.85"/>
<polygon fill="#63b8ff" stroke="#63b8ff" points="1078.44,-227.59 1068.84,-232.07 1079.14,-234.55 1078.44,-227.59"/>
</g>
<!-- Node27 -->
<g id="node27" class="node">
<title>Node27</title>
<g id="a_node27"><a xlink:href="test__WorksheetEvalQueue_8cpp.html" target="_top" xlink:title="Pins the worksheet&#39;s &quot;add cells to the evaluation queue&quot; behavior before the Add*ToEvaluationQueue fa...">
<polygon fill="white" stroke="#666666" points="2039.3,-195 1893.3,-195 1893.3,-165 2039.3,-165 2039.3,-195"/>
<text text-anchor="start" x="1901.3" y="-183" font-family="Helvetica,sans-Serif" font-size="10.00">test/unit_tests/test</text>
<text text-anchor="middle" x="1966.3" y="-172" font-family="Helvetica,sans-Serif" font-size="10.00">_WorksheetEvalQueue.cpp</text>
</a>
</g>
</g>
<!-- Node2&#45;&gt;Node27 -->
<g id="edge36" class="edge">
<title>Node2&#45;&gt;Node27</title>
<path fill="none" stroke="#63b8ff" d="M1078.97,-231.06C1436.96,-197.19 1531.07,-232.89 1884.3,-195 1887.17,-194.69 1890.09,-194.35 1893.04,-193.97"/>
<polygon fill="#63b8ff" stroke="#63b8ff" points="1078.46,-227.6 1068.84,-232.04 1079.13,-234.57 1078.46,-227.6"/>
</g>
<!-- Node28 -->
<g id="node28" class="node">
<title>Node28</title>
<g id="a_node28"><a xlink:href="test__WorksheetExport_8cpp.html" target="_top" xlink:title="Safety net for the export/serialization cluster of Worksheet.">
<polygon fill="white" stroke="#666666" points="2182.8,-195 2057.8,-195 2057.8,-165 2182.8,-165 2182.8,-195"/>
<text text-anchor="start" x="2065.8" y="-183" font-family="Helvetica,sans-Serif" font-size="10.00">test/unit_tests/test</text>
<text text-anchor="middle" x="2120.3" y="-172" font-family="Helvetica,sans-Serif" font-size="10.00">_WorksheetExport.cpp</text>
</a>
</g>
</g>
<!-- Node2&#45;&gt;Node28 -->
<g id="edge37" class="edge">
<title>Node2&#45;&gt;Node28</title>
<path fill="none" stroke="#63b8ff" d="M1079.07,-231.07C1509.63,-191.95 1623.07,-243.93 2048.3,-195 2051.34,-194.65 2054.43,-194.24 2057.56,-193.79"/>
<polygon fill="#63b8ff" stroke="#63b8ff" points="1078.47,-227.61 1068.84,-232.01 1079.12,-234.58 1078.47,-227.61"/>
</g>
<!-- Node29 -->
<g id="node29" class="node">
<title>Node29</title>
<g id="a_node29"><a xlink:href="test__WorksheetFind_8cpp.html" target="_top" xlink:title="Pins the worksheet&#39;s find/replace behavior before the search engine is extracted into WorksheetSearch...">
<polygon fill="white" stroke="#666666" points="2315.3,-195 2201.3,-195 2201.3,-165 2315.3,-165 2315.3,-195"/>
<text text-anchor="start" x="2209.3" y="-183" font-family="Helvetica,sans-Serif" font-size="10.00">test/unit_tests/test</text>
<text text-anchor="middle" x="2258.3" y="-172" font-family="Helvetica,sans-Serif" font-size="10.00">_WorksheetFind.cpp</text>
</a>
</g>
</g>
<!-- Node2&#45;&gt;Node29 -->
<g id="edge38" class="edge">
<title>Node2&#45;&gt;Node29</title>
<path fill="none" stroke="#63b8ff" d="M1079.09,-231.07C1573.44,-187.32 1703.89,-254.22 2192.3,-195 2195.21,-194.65 2198.17,-194.23 2201.17,-193.76"/>
<polygon fill="#63b8ff" stroke="#63b8ff" points="1078.48,-227.61 1068.84,-231.99 1079.11,-234.58 1078.48,-227.61"/>
</g>
<!-- Node6 -->
<g id="node6" class="node">
<title>Node6</title>
<g id="a_node6"><a xlink:href="main_8cpp.html" target="_top" xlink:title="The file that defines the starting point of the program.">
<polygon fill="white" stroke="#666666" points="447.8,-19 368.8,-19 368.8,0 447.8,0 447.8,-19"/>
<text text-anchor="middle" x="408.3" y="-7" font-family="Helvetica,sans-Serif" font-size="10.00">src/main.cpp</text>
</a>
</g>
</g>
<!-- Node5&#45;&gt;Node6 -->
<g id="edge5" class="edge">
<title>Node5&#45;&gt;Node6</title>
<path fill="none" stroke="#63b8ff" d="M264.37,-52.18C298.6,-42.27 347.59,-28.08 378.67,-19.08"/>
<polygon fill="#63b8ff" stroke="#63b8ff" points="263.33,-48.84 254.7,-54.98 265.28,-55.56 263.33,-48.84"/>
</g>
<!-- Node7 -->
<g id="node7" class="node">
<title>Node7</title>
<g id="a_node7"><a xlink:href="wxMaxima_8cpp.html" target="_top" xlink:title="This file defines the contents of the class wxMaxima that contains most of the program&#39;s logic.">
<polygon fill="white" stroke="#666666" points="303.3,-19 195.3,-19 195.3,0 303.3,0 303.3,-19"/>
<text text-anchor="middle" x="249.3" y="-7" font-family="Helvetica,sans-Serif" font-size="10.00">src/wxMaxima.cpp</text>
</a>
</g>
</g>
<!-- Node5&#45;&gt;Node7 -->
<g id="edge6" class="edge">
<title>Node5&#45;&gt;Node7</title>
<path fill="none" stroke="#63b8ff" d="M233.44,-45.53C237.48,-36.6 242.18,-26.22 245.41,-19.09"/>
<polygon fill="#63b8ff" stroke="#63b8ff" points="230.2,-44.19 229.26,-54.75 236.58,-47.08 230.2,-44.19"/>
</g>
<!-- Node8&#45;&gt;Node6 -->
<g id="edge8" class="edge">
<title>Node8&#45;&gt;Node6</title>
<path fill="none" stroke="#63b8ff" d="M130.47,-53.43C200.71,-42.58 310.24,-25.65 368.58,-16.64"/>
<polygon fill="#63b8ff" stroke="#63b8ff" points="129.76,-50 120.41,-54.98 130.83,-56.92 129.76,-50"/>
</g>
<!-- Node8&#45;&gt;Node7 -->
<g id="edge9" class="edge">
<title>Node8&#45;&gt;Node7</title>
<path fill="none" stroke="#63b8ff" d="M104.59,-52.18C139,-42.27 188.26,-28.08 219.5,-19.08"/>
<polygon fill="#63b8ff" stroke="#63b8ff" points="103.5,-48.85 94.86,-54.98 105.44,-55.58 103.5,-48.85"/>
</g>
<!-- Node10&#45;&gt;Node3 -->
<g id="edge13" class="edge">
<title>Node10&#45;&gt;Node3</title>
<path fill="none" stroke="#63b8ff" d="M472.72,-168.32C412.45,-155.6 320.26,-135.28 315.3,-129 298.89,-108.21 332.93,-85.99 355.81,-74.14"/>
<polygon fill="#63b8ff" stroke="#63b8ff" points="472.33,-171.82 482.83,-170.45 473.77,-164.97 472.33,-171.82"/>
</g>
<!-- Node11 -->
<g id="node11" class="node">
<title>Node11</title>
<g id="a_node11"><a xlink:href="AutocompletePopup_8cpp.html" target="_top" xlink:title="This file defines the class AutocompletePopup.">
<polygon fill="white" stroke="#666666" points="969.3,-129 817.3,-129 817.3,-110 969.3,-110 969.3,-129"/>
<text text-anchor="middle" x="893.3" y="-117" font-family="Helvetica,sans-Serif" font-size="10.00">src/AutocompletePopup.cpp</text>
</a>
</g>
</g>
<!-- Node10&#45;&gt;Node11 -->
<g id="edge12" class="edge">
<title>Node10&#45;&gt;Node11</title>
<path fill="none" stroke="#63b8ff" d="M576.99,-168.63C583.82,-167.37 590.72,-166.13 597.3,-165 678.1,-151.18 771.72,-137.5 831.67,-129.03"/>
<polygon fill="#63b8ff" stroke="#63b8ff" points="576.27,-165.21 567.09,-170.49 577.57,-172.09 576.27,-165.21"/>
</g>
<!-- Node12 -->
<g id="node12" class="node">
<title>Node12</title>
<g id="a_node12"><a xlink:href="EditorCell_8cpp.html" target="_top" xlink:title="This file defines the class EditorCell.">
<polygon fill="white" stroke="#666666" points="897.8,-74 770.8,-74 770.8,-55 897.8,-55 897.8,-74"/>
<text text-anchor="middle" x="834.3" y="-62" font-family="Helvetica,sans-Serif" font-size="10.00">src/cells/EditorCell.cpp</text>
</a>
</g>
</g>
<!-- Node10&#45;&gt;Node12 -->
<g id="edge14" class="edge">
<title>Node10&#45;&gt;Node12</title>
<path fill="none" stroke="#63b8ff" d="M575.1,-168.61C582.53,-167.28 590.1,-166.03 597.3,-165 639.39,-158.99 949.68,-160.45 978.3,-129 1006.62,-97.88 948.76,-81.22 898.15,-72.89"/>
<polygon fill="#63b8ff" stroke="#63b8ff" points="574.31,-165.2 565.11,-170.46 575.58,-172.08 574.31,-165.2"/>
</g>
<!-- Node13 -->
<g id="node13" class="node">
<title>Node13</title>
<g id="a_node13"><a xlink:href="main_8h.html" target="_top" xlink:title="This file declares the class wxMaxima that contains most of the program&#39;s logic.">
<polygon fill="white" stroke="#666666" points="589.3,-74 521.3,-74 521.3,-55 589.3,-55 589.3,-74"/>
<text text-anchor="middle" x="555.3" y="-62" font-family="Helvetica,sans-Serif" font-size="10.00">src/main.h</text>
</a>
</g>
</g>
<!-- Node10&#45;&gt;Node13 -->
<g id="edge15" class="edge">
<title>Node10&#45;&gt;Node13</title>
<path fill="none" stroke="#63b8ff" d="M577.74,-168.57C649.63,-154.48 768.76,-130.88 770.3,-129 819.37,-68.95 661.81,-63.91 589.55,-64.63"/>
<polygon fill="#63b8ff" stroke="#63b8ff" points="577.07,-165.13 567.93,-170.49 578.41,-172 577.07,-165.13"/>
</g>
<!-- Node15 -->
<g id="node15" class="node">
<title>Node15</title>
<g id="a_node15"><a xlink:href="GreekSidebar_8cpp.html" target="_top" xlink:title="This file defines the class GreekSidebar.">
<polygon fill="white" stroke="#666666" points="488.3,-129 324.3,-129 324.3,-110 488.3,-110 488.3,-129"/>
<text text-anchor="middle" x="406.3" y="-117" font-family="Helvetica,sans-Serif" font-size="10.00">src/sidebars/GreekSidebar.cpp</text>
</a>
</g>
</g>
<!-- Node10&#45;&gt;Node15 -->
<g id="edge19" class="edge">
<title>Node10&#45;&gt;Node15</title>
<path fill="none" stroke="#63b8ff" d="M498.04,-165.98C475.3,-154.71 443.06,-138.73 423.48,-129.02"/>
<polygon fill="#63b8ff" stroke="#63b8ff" points="496.63,-169.19 507.14,-170.49 499.74,-162.92 496.63,-169.19"/>
</g>
<!-- Node16 -->
<g id="node16" class="node">
<title>Node16</title>
<g id="a_node16"><a xlink:href="wxMaxima_8h.html" target="_top" xlink:title="This file declares the class wxMaxima that contains most of the program&#39;s logic.">
<polygon fill="white" stroke="#666666" points="603.8,-129 506.8,-129 506.8,-110 603.8,-110 603.8,-129"/>
<text text-anchor="middle" x="555.3" y="-117" font-family="Helvetica,sans-Serif" font-size="10.00">src/wxMaxima.h</text>
</a>
</g>
</g>
<!-- Node10&#45;&gt;Node16 -->
<g id="edge20" class="edge">
<title>Node10&#45;&gt;Node16</title>
<path fill="none" stroke="#63b8ff" d="M533.58,-161.48C539.24,-150.81 546.21,-137.65 550.71,-129.17"/>
<polygon fill="#63b8ff" stroke="#63b8ff" points="530.46,-159.89 528.87,-170.37 536.65,-163.17 530.46,-159.89"/>
</g>
<!-- Node17 -->
<g id="node17" class="node">
<title>Node17</title>
<g id="a_node17"><a xlink:href="wxMaximaFrame_8cpp.html" target="_top" xlink:title="This file defines the class wxMaximaFrame.">
<polygon fill="white" stroke="#666666" points="760.8,-129 621.8,-129 621.8,-110 760.8,-110 760.8,-129"/>
<text text-anchor="middle" x="691.3" y="-117" font-family="Helvetica,sans-Serif" font-size="10.00">src/wxMaximaFrame.cpp</text>
</a>
</g>
</g>
<!-- Node10&#45;&gt;Node17 -->
<g id="edge26" class="edge">
<title>Node10&#45;&gt;Node17</title>
<path fill="none" stroke="#63b8ff" d="M558.07,-167.17C590.36,-155.86 638.28,-139.07 666.99,-129.02"/>
<polygon fill="#63b8ff" stroke="#63b8ff" points="556.86,-163.88 548.58,-170.49 559.18,-170.49 556.86,-163.88"/>
</g>
<!-- Node13&#45;&gt;Node6 -->
<g id="edge17" class="edge">
<title>Node13&#45;&gt;Node6</title>
<path fill="none" stroke="#63b8ff" d="M522.16,-51.55C494.86,-41.71 456.79,-27.98 432.35,-19.17"/>
<polygon fill="#63b8ff" stroke="#63b8ff" points="521.09,-54.89 531.68,-54.98 523.46,-48.3 521.09,-54.89"/>
</g>
<!-- Node13&#45;&gt;Node7 -->
<g id="edge18" class="edge">
<title>Node13&#45;&gt;Node7</title>
<path fill="none" stroke="#63b8ff" d="M511.03,-55.83C454.54,-46.05 357.1,-29.17 298.39,-19"/>
<polygon fill="#63b8ff" stroke="#63b8ff" points="510.64,-59.32 521.09,-57.57 511.83,-52.42 510.64,-59.32"/>
</g>
<!-- Node14 -->
<g id="node14" class="node">
<title>Node14</title>
<g id="a_node14"><a xlink:href="MaximaManual_8cpp.html" target="_top" xlink:title="This file defines the class MaximaManual.">
<polygon fill="white" stroke="#666666" points="620.3,-19 490.3,-19 490.3,0 620.3,0 620.3,-19"/>
<text text-anchor="middle" x="555.3" y="-7" font-family="Helvetica,sans-Serif" font-size="10.00">src/MaximaManual.cpp</text>
</a>
</g>
</g>
<!-- Node13&#45;&gt;Node14 -->
<g id="edge16" class="edge">
<title>Node13&#45;&gt;Node14</title>
<path fill="none" stroke="#63b8ff" d="M555.3,-44.66C555.3,-35.93 555.3,-25.99 555.3,-19.09"/>
<polygon fill="#63b8ff" stroke="#63b8ff" points="551.8,-44.75 555.3,-54.75 558.8,-44.75 551.8,-44.75"/>
</g>
<!-- Node16&#45;&gt;Node3 -->
<g id="edge21" class="edge">
<title>Node16&#45;&gt;Node3</title>
<path fill="none" stroke="#63b8ff" d="M516.22,-107.06C482.39,-97.15 434.21,-83.04 403.61,-74.08"/>
<polygon fill="#63b8ff" stroke="#63b8ff" points="515.64,-110.53 526.22,-109.98 517.6,-103.82 515.64,-110.53"/>
</g>
<!-- Node16&#45;&gt;Node6 -->
<g id="edge23" class="edge">
<title>Node16&#45;&gt;Node6</title>
<path fill="none" stroke="#63b8ff" d="M535.37,-103.73C517.95,-90.84 491.98,-71.65 469.3,-55 452.18,-42.44 432.3,-27.95 420.01,-19.01"/>
<polygon fill="#63b8ff" stroke="#63b8ff" points="533.51,-106.71 543.63,-109.85 537.68,-101.09 533.51,-106.71"/>
</g>
<!-- Node16&#45;&gt;Node7 -->
<g id="edge25" class="edge">
<title>Node16&#45;&gt;Node7</title>
<path fill="none" stroke="#63b8ff" d="M528.69,-105.12C511.62,-96.44 489.03,-84.78 469.3,-74 454.45,-65.89 452.03,-61.25 436.3,-55 392.88,-37.76 341.02,-26.06 302.94,-19.01"/>
<polygon fill="#63b8ff" stroke="#63b8ff" points="527.54,-108.46 538.05,-109.86 530.71,-102.22 527.54,-108.46"/>
</g>
<!-- Node16&#45;&gt;Node12 -->
<g id="edge22" class="edge">
<title>Node16&#45;&gt;Node12</title>
<path fill="none" stroke="#63b8ff" d="M610.23,-108.07C662.54,-98.13 740.32,-83.35 789.12,-74.08"/>
<polygon fill="#63b8ff" stroke="#63b8ff" points="609.3,-104.68 600.13,-109.98 610.6,-111.56 609.3,-104.68"/>
</g>
<!-- Node16&#45;&gt;Node13 -->
<g id="edge24" class="edge">
<title>Node16&#45;&gt;Node13</title>
<path fill="none" stroke="#63b8ff" d="M555.3,-99.66C555.3,-90.93 555.3,-80.99 555.3,-74.09"/>
<polygon fill="#63b8ff" stroke="#63b8ff" points="551.8,-99.75 555.3,-109.75 558.8,-99.75 551.8,-99.75"/>
</g>
</g>
</svg>
        <g id="navigator" transform="translate(0 0)" fill="#404254">
                <rect fill="#f2f5e9" fill-opacity="0.5" stroke="#606060" stroke-width=".5" x="0" y="0" width="60" height="60"/>
                <use id="zoomplus" xlink:href="#zoomPlus" x="17" y="9" onmousedown="handleZoom(evt,'in')"/>
                <use id="zoomminus" xlink:href="#zoomMin" x="42" y="9" onmousedown="handleZoom(evt,'out')"/>
                <use id="reset" xlink:href="#resetDef" x="30" y="36" onmousedown="handleReset()"/>
                <g id="arrowUp" xlink:href="#dirArrow" transform="translate(30 24)" onmousedown="handlePan(0,-1)">
                  <use xlink:href="#rim" fill="#404040">
                        <set attributeName="fill" to="#808080" begin="arrowUp.mouseover" end="arrowUp.mouseout"/>
                  </use>
                  <path fill="none" stroke="white" stroke-width="1.5" d="M0,-3.0v7 M-2.5,-0.5L0,-3.0L2.5,-0.5"/>
                </g>
                <g id="arrowRight" xlink:href="#dirArrow" transform="rotate(90) translate(36 -43)" onmousedown="handlePan(1,0)">
                  <use xlink:href="#rim" fill="#404040">
                        <set attributeName="fill" to="#808080" begin="arrowRight.mouseover" end="arrowRight.mouseout"/>
                  </use>
                  <path fill="none" stroke="white" stroke-width="1.5" d="M0,-3.0v7 M-2.5,-0.5L0,-3.0L2.5,-0.5"/>
                </g>
                <g id="arrowDown" xlink:href="#dirArrow" transform="rotate(180) translate(-30 -48)" onmousedown="handlePan(0,1)">
                  <use xlink:href="#rim" fill="#404040">
                        <set attributeName="fill" to="#808080" begin="arrowDown.mouseover" end="arrowDown.mouseout"/>
                  </use>
                  <path fill="none" stroke="white" stroke-width="1.5" d="M0,-3.0v7 M-2.5,-0.5L0,-3.0L2.5,-0.5"/>
                </g>
                <g id="arrowLeft" xlink:href="#dirArrow" transform="rotate(270) translate(-36 17)" onmousedown="handlePan(-1,0)">
                  <use xlink:href="#rim" fill="#404040">
                        <set attributeName="fill" to="#808080" begin="arrowLeft.mouseover" end="arrowLeft.mouseout"/>
                  </use>
                  <path fill="none" stroke="white" stroke-width="1.5" d="M0,-3.0v7 M-2.5,-0.5L0,-3.0L2.5,-0.5"/>
                </g>
        </g>
        <svg viewBox="0 0 15 15" width="100%" height="30px" preserveAspectRatio="xMaxYMin meet">
         <g id="arrow_out" transform="scale(0.3 0.3)">
          <a xlink:href="WorksheetDocument_8h__dep__incl_org.svg" target="_base">
           <rect id="button" ry="5" rx="5" y="6" x="6" height="38" width="38"
                fill="#f2f5e9" fill-opacity="0.5" stroke="#606060" stroke-width="1.0"/>
           <path id="arrow"
             d="M 11.500037,31.436501 C 11.940474,20.09759 22.043105,11.32322 32.158766,21.979434 L 37.068811,17.246167 C 37.068811,17.246167 37.088388,32 37.088388,32 L 22.160133,31.978069 C 22.160133,31.978069 26.997745,27.140456 26.997745,27.140456 C 18.528582,18.264221 13.291696,25.230495 11.500037,31.436501 z"
             style="fill:#404040;"/>
          </a>
         </g>
        </svg>
</svg>
