<?xml version="1.0" encoding="UTF-8" standalone="no"?>
<!DOCTYPE svg PUBLIC "-//W3C//DTD SVG 1.1//EN"
 "http://www.w3.org/Graphics/SVG/1.1/DTD/svg11.dtd">
<!-- Generated by graphviz version 2.43.0 (0)
 -->
<!-- Title: src/Worksheet.h Pages: 1 -->
<!--zoomable 258 -->
<svg id="main" version="1.1" xmlns="http://www.w3.org/2000/svg" xmlns:xlink="http://www.w3.org/1999/xlink" xml:space="preserve" onload="init(evt)">
<style type="text/css"><![CDATA[
.edge:hover path { stroke: red; }
.edge:hover polygon { stroke: red; fill: red; }
]]></style>
<script type="text/javascript"><![CDATA[
var edges = document.getElementsByTagName('g');
if (edges && edges.length) {
  for (var i=0;i<edges.length;i++) {
    if (edges[i].id.substr(0,4)=='edge') {
      edges[i].setAttribute('class','edge');
    }
  }
}
]]></script>
        <defs>
                <circle id="rim" cx="0" cy="0" r="7"/>
                <circle id="rim2" cx="0" cy="0" r="3.5"/>
                <g id="zoomPlus">
                        <use xlink:href="#rim" fill="#404040">
                                <set attributeName="fill" to="#808080" begin="zoomplus.mouseover" end="zoomplus.mouseout"/>
                        </use>
                        <path d="M-4,0h8M0,-4v8" fill="none" stroke="white" stroke-width="1.5" pointer-events="none"/>
                </g>
                <g id="zoomMin">
                        <use xlink:href="#rim" fill="#404040">
                                <set attributeName="fill" to="#808080" begin="zoomminus.mouseover" end="zoomminus.mouseout"/>
                        </use>
                        <path d="M-4,0h8" fill="none" stroke="white" stroke-width="1.5" pointer-events="none"/>
                </g>
                <g id="dirArrow">
                        <path fill="none" stroke="white" stroke-width="1.5" d="M0,-3.0v7 M-2.5,-0.5L0,-3.0L2.5,-0.5"/>
                </g>
               <g id="resetDef">
                       <use xlink:href="#rim2" fill="#404040">
                               <set attributeName="fill" to="#808080" begin="reset.mouseover" end="reset.mouseout"/>
                       </use>
               </g>
        </defs>

<script type="text/javascript">
var viewWidth = 1065;
var viewHeight = 258;
var sectionId = 'dynsection-1';
</script>
<script xlink:href="svgpan.js"/>
<svg id="graph" class="graph">
<g id="viewport">
<title>src/Worksheet.h</title>
<!-- Node1 -->
<g id="node1" class="node">
<title>Node1</title>
<g id="a_node1"><a xlink:title="This file defines the class Worksheet.">
<polygon fill="#999999" stroke="#666666" points="357.75,-250 262.75,-250 262.75,-231 357.75,-231 357.75,-250"/>
<text text-anchor="middle" x="310.25" y="-238" font-family="Helvetica,sans-Serif" font-size="10.00">src/Worksheet.h</text>
</a>
</g>
</g>
<!-- Node2 -->
<g id="node2" class="node">
<title>Node2</title>
<g id="a_node2"><a xlink:href="Worksheet_8cpp.html" target="_top" xlink:title="This file defines the class Worksheet.">
<polygon fill="white" stroke="#666666" points="498.25,-74 392.25,-74 392.25,-55 498.25,-55 498.25,-74"/>
<text text-anchor="middle" x="445.25" y="-62" font-family="Helvetica,sans-Serif" font-size="10.00">src/Worksheet.cpp</text>
</a>
</g>
</g>
<!-- Node1&#45;&gt;Node2 -->
<g id="edge1" class="edge">
<title>Node1&#45;&gt;Node2</title>
<path fill="none" stroke="#63b8ff" d="M316.35,-221.06C325.95,-194.2 346.68,-143.85 377.25,-110 391.33,-94.4 412.06,-81.88 426.92,-74.15"/>
<polygon fill="#63b8ff" stroke="#63b8ff" points="312.97,-220.12 313.02,-230.71 319.59,-222.4 312.97,-220.12"/>
</g>
<!-- Node3 -->
<g id="node3" class="node">
<title>Node3</title>
<g id="a_node3"><a xlink:href="Cell_8cpp.html" target="_top" xlink:title="Core layout and rendering logic for worksheet cells.">
<polygon fill="white" stroke="#666666" points="117.25,-189.5 19.25,-189.5 19.25,-170.5 117.25,-170.5 117.25,-189.5"/>
<text text-anchor="middle" x="68.25" y="-177.5" font-family="Helvetica,sans-Serif" font-size="10.00">src/cells/Cell.cpp</text>
</a>
</g>
</g>
<!-- Node1&#45;&gt;Node3 -->
<g id="edge2" class="edge">
<title>Node1&#45;&gt;Node3</title>
<path fill="none" stroke="#63b8ff" d="M265.19,-228.61C218.42,-217.3 146.24,-199.85 103.48,-189.52"/>
<polygon fill="#63b8ff" stroke="#63b8ff" points="264.52,-232.05 275.06,-230.99 266.16,-225.24 264.52,-232.05"/>
</g>
<!-- Node4 -->
<g id="node4" class="node">
<title>Node4</title>
<g id="a_node4"><a xlink:href="GroupCell_8cpp.html" target="_top" xlink:title="This file defines the class GroupCell.">
<polygon fill="white" stroke="#666666" points="263.25,-189.5 135.25,-189.5 135.25,-170.5 263.25,-170.5 263.25,-189.5"/>
<text text-anchor="middle" x="199.25" y="-177.5" font-family="Helvetica,sans-Serif" font-size="10.00">src/cells/GroupCell.cpp</text>
</a>
</g>
</g>
<!-- Node1&#45;&gt;Node4 -->
<g id="edge3" class="edge">
<title>Node1&#45;&gt;Node4</title>
<path fill="none" stroke="#63b8ff" d="M284.77,-226.08C263.54,-214.88 233.92,-199.27 215.69,-189.67"/>
<polygon fill="#63b8ff" stroke="#63b8ff" points="283.39,-229.3 293.87,-230.87 286.65,-223.11 283.39,-229.3"/>
</g>
<!-- Node5 -->
<g id="node5" class="node">
<title>Node5</title>
<g id="a_node5"><a xlink:href="ConfigDialogue_8h.html" target="_top" xlink:title="The configuration dialog.">
<polygon fill="white" stroke="#666666" points="373.75,-74 218.75,-74 218.75,-55 373.75,-55 373.75,-74"/>
<text text-anchor="middle" x="296.25" y="-62" font-family="Helvetica,sans-Serif" font-size="10.00">src/dialogs/ConfigDialogue.h</text>
</a>
</g>
</g>
<!-- Node1&#45;&gt;Node5 -->
<g id="edge4" class="edge">
<title>Node1&#45;&gt;Node5</title>
<path fill="none" stroke="#63b8ff" d="M308.72,-220.56C305.71,-183.12 299.1,-100.95 296.94,-74.14"/>
<polygon fill="#63b8ff" stroke="#63b8ff" points="305.24,-220.95 309.53,-230.63 312.22,-220.38 305.24,-220.95"/>
</g>
<!-- Node8 -->
<g id="node8" class="node">
<title>Node8</title>
<g id="a_node8"><a xlink:href="DiffFrame_8h_source.html" target="_top" xlink:title=" ">
<polygon fill="white" stroke="#666666" points="200.75,-74 71.75,-74 71.75,-55 200.75,-55 200.75,-74"/>
<text text-anchor="middle" x="136.25" y="-62" font-family="Helvetica,sans-Serif" font-size="10.00">src/dialogs/DiffFrame.h</text>
</a>
</g>
</g>
<!-- Node1&#45;&gt;Node8 -->
<g id="edge7" class="edge">
<title>Node1&#45;&gt;Node8</title>
<path fill="none" stroke="#63b8ff" d="M252.52,-239.51C174.31,-238.16 40.9,-230.53 10.25,-195 -31.04,-147.14 70.73,-94.39 115.93,-74.1"/>
<polygon fill="#63b8ff" stroke="#63b8ff" points="252.65,-243.01 262.7,-239.66 252.75,-236.01 252.65,-243.01"/>
</g>
<!-- Node9 -->
<g id="node9" class="node">
<title>Node9</title>
<g id="a_node9"><a xlink:href="Printout_8cpp.html" target="_top" xlink:title="This file defines the class MathPrintOut.">
<polygon fill="white" stroke="#666666" points="512.75,-189.5 357.75,-189.5 357.75,-170.5 512.75,-170.5 512.75,-189.5"/>
<text text-anchor="middle" x="435.25" y="-177.5" font-family="Helvetica,sans-Serif" font-size="10.00">src/graphical_io/Printout.cpp</text>
</a>
</g>
</g>
<!-- Node1&#45;&gt;Node9 -->
<g id="edge10" class="edge">
<title>Node1&#45;&gt;Node9</title>
<path fill="none" stroke="#63b8ff" d="M337.74,-226.63C361.85,-215.35 396.21,-199.27 417.05,-189.52"/>
<polygon fill="#63b8ff" stroke="#63b8ff" points="336,-223.58 328.42,-230.99 338.96,-229.92 336,-223.58"/>
</g>
<!-- Node10 -->
<g id="node10" class="node">
<title>Node10</title>
<g id="a_node10"><a xlink:href="wxMaximaFrame_8h.html" target="_top" xlink:title="This file declares the class wxMaximaFrame.">
<polygon fill="white" stroke="#666666" points="690.25,-189.5 562.25,-189.5 562.25,-170.5 690.25,-170.5 690.25,-189.5"/>
<text text-anchor="middle" x="626.25" y="-177.5" font-family="Helvetica,sans-Serif" font-size="10.00">src/wxMaximaFrame.h</text>
</a>
</g>
</g>
<!-- Node1&#45;&gt;Node10 -->
<g id="edge11" class="edge">
<title>Node1&#45;&gt;Node10</title>
<path fill="none" stroke="#63b8ff" d="M366.03,-229.17C426.97,-217.89 523.46,-200.03 580.24,-189.52"/>
<polygon fill="#63b8ff" stroke="#63b8ff" points="365.39,-225.73 356.2,-230.99 366.67,-232.61 365.39,-225.73"/>
</g>
<!-- Node18 -->
<g id="node18" class="node">
<title>Node18</title>
<g id="a_node18"><a xlink:href="test__GroupCellLayout_8cpp.html" target="_top" xlink:title="Regression tests for the GroupCell &lt;&#45;&gt; EditorCell layout coupling.">
<polygon fill="white" stroke="#666666" points="831.75,-195 708.75,-195 708.75,-165 831.75,-165 831.75,-195"/>
<text text-anchor="start" x="716.75" y="-183" font-family="Helvetica,sans-Serif" font-size="10.00">test/unit_tests/test</text>
<text text-anchor="middle" x="770.25" y="-172" font-family="Helvetica,sans-Serif" font-size="10.00">_GroupCellLayout.cpp</text>
</a>
</g>
</g>
<!-- Node1&#45;&gt;Node18 -->
<g id="edge27" class="edge">
<title>Node1&#45;&gt;Node18</title>
<path fill="none" stroke="#63b8ff" d="M368.36,-234.33C444.57,-227.21 582.33,-213.18 699.25,-195 702.35,-194.52 705.52,-194 708.73,-193.45"/>
<polygon fill="#63b8ff" stroke="#63b8ff" points="367.65,-230.88 358.02,-235.29 368.3,-237.85 367.65,-230.88"/>
</g>
<!-- Node6 -->
<g id="node6" class="node">
<title>Node6</title>
<g id="a_node6"><a xlink:href="main_8cpp.html" target="_top" xlink:title="The file that defines the starting point of the program.">
<polygon fill="white" stroke="#666666" points="518.75,-19 439.75,-19 439.75,0 518.75,0 518.75,-19"/>
<text text-anchor="middle" x="479.25" y="-7" font-family="Helvetica,sans-Serif" font-size="10.00">src/main.cpp</text>
</a>
</g>
</g>
<!-- Node5&#45;&gt;Node6 -->
<g id="edge5" class="edge">
<title>Node5&#45;&gt;Node6</title>
<path fill="none" stroke="#63b8ff" d="M335.32,-52.18C369.54,-42.27 418.54,-28.08 449.61,-19.08"/>
<polygon fill="#63b8ff" stroke="#63b8ff" points="334.28,-48.84 325.65,-54.98 336.23,-55.56 334.28,-48.84"/>
</g>
<!-- Node7 -->
<g id="node7" class="node">
<title>Node7</title>
<g id="a_node7"><a xlink:href="wxMaxima_8cpp.html" target="_top" xlink:title="This file defines the contents of the class wxMaxima that contains most of the program&#39;s logic.">
<polygon fill="white" stroke="#666666" points="374.25,-19 266.25,-19 266.25,0 374.25,0 374.25,-19"/>
<text text-anchor="middle" x="320.25" y="-7" font-family="Helvetica,sans-Serif" font-size="10.00">src/wxMaxima.cpp</text>
</a>
</g>
</g>
<!-- Node5&#45;&gt;Node7 -->
<g id="edge6" class="edge">
<title>Node5&#45;&gt;Node7</title>
<path fill="none" stroke="#63b8ff" d="M304.38,-45.53C308.43,-36.6 313.13,-26.22 316.36,-19.09"/>
<polygon fill="#63b8ff" stroke="#63b8ff" points="301.15,-44.19 300.21,-54.75 307.52,-47.08 301.15,-44.19"/>
</g>
<!-- Node8&#45;&gt;Node6 -->
<g id="edge8" class="edge">
<title>Node8&#45;&gt;Node6</title>
<path fill="none" stroke="#63b8ff" d="M201.42,-53.43C271.66,-42.58 381.19,-25.65 439.53,-16.64"/>
<polygon fill="#63b8ff" stroke="#63b8ff" points="200.7,-50 191.36,-54.98 201.77,-56.92 200.7,-50"/>
</g>
<!-- Node8&#45;&gt;Node7 -->
<g id="edge9" class="edge">
<title>Node8&#45;&gt;Node7</title>
<path fill="none" stroke="#63b8ff" d="M175.53,-52.18C209.94,-42.27 259.2,-28.08 290.45,-19.08"/>
<polygon fill="#63b8ff" stroke="#63b8ff" points="174.45,-48.85 165.81,-54.98 176.39,-55.58 174.45,-48.85"/>
</g>
<!-- Node10&#45;&gt;Node2 -->
<g id="edge13" class="edge">
<title>Node10&#45;&gt;Node2</title>
<path fill="none" stroke="#63b8ff" d="M556.07,-168.94C489.18,-158.64 397.05,-142.29 386.25,-129 369.44,-108.33 404.08,-85.89 427.06,-74.01"/>
<polygon fill="#63b8ff" stroke="#63b8ff" points="555.75,-172.43 566.16,-170.48 556.8,-165.51 555.75,-172.43"/>
</g>
<!-- Node11 -->
<g id="node11" class="node">
<title>Node11</title>
<g id="a_node11"><a xlink:href="AutocompletePopup_8cpp.html" target="_top" xlink:title="This file defines the class AutocompletePopup.">
<polygon fill="white" stroke="#666666" points="1040.25,-129 888.25,-129 888.25,-110 1040.25,-110 1040.25,-129"/>
<text text-anchor="middle" x="964.25" y="-117" font-family="Helvetica,sans-Serif" font-size="10.00">src/AutocompletePopup.cpp</text>
</a>
</g>
</g>
<!-- Node10&#45;&gt;Node11 -->
<g id="edge12" class="edge">
<title>Node10&#45;&gt;Node11</title>
<path fill="none" stroke="#63b8ff" d="M680.69,-168.57C687.28,-167.35 693.91,-166.13 700.25,-165 773.45,-151.91 858.28,-137.8 911.6,-129.06"/>
<polygon fill="#63b8ff" stroke="#63b8ff" points="679.62,-165.21 670.44,-170.49 680.91,-172.09 679.62,-165.21"/>
</g>
<!-- Node12 -->
<g id="node12" class="node">
<title>Node12</title>
<g id="a_node12"><a xlink:href="EditorCell_8cpp.html" target="_top" xlink:title="This file defines the class EditorCell.">
<polygon fill="white" stroke="#666666" points="968.75,-74 841.75,-74 841.75,-55 968.75,-55 968.75,-74"/>
<text text-anchor="middle" x="905.25" y="-62" font-family="Helvetica,sans-Serif" font-size="10.00">src/cells/EditorCell.cpp</text>
</a>
</g>
</g>
<!-- Node10&#45;&gt;Node12 -->
<g id="edge14" class="edge">
<title>Node10&#45;&gt;Node12</title>
<path fill="none" stroke="#63b8ff" d="M678.03,-168.63C685.47,-167.31 693.04,-166.05 700.25,-165 777.4,-153.74 997.02,-186.89 1049.25,-129 1077.43,-97.76 1019.6,-81.12 969.03,-72.83"/>
<polygon fill="#63b8ff" stroke="#63b8ff" points="677.22,-165.22 668.02,-170.46 678.48,-172.11 677.22,-165.22"/>
</g>
<!-- Node13 -->
<g id="node13" class="node">
<title>Node13</title>
<g id="a_node13"><a xlink:href="main_8h.html" target="_top" xlink:title="This file declares the class wxMaxima that contains most of the program&#39;s logic.">
<polygon fill="white" stroke="#666666" points="660.25,-74 592.25,-74 592.25,-55 660.25,-55 660.25,-74"/>
<text text-anchor="middle" x="626.25" y="-62" font-family="Helvetica,sans-Serif" font-size="10.00">src/main.h</text>
</a>
</g>
</g>
<!-- Node10&#45;&gt;Node13 -->
<g id="edge15" class="edge">
<title>Node10&#45;&gt;Node13</title>
<path fill="none" stroke="#63b8ff" d="M678.92,-168.45C740.91,-155.79 836.12,-135.45 841.25,-129 846.5,-122.39 846.58,-116.55 841.25,-110 818.86,-82.51 715.51,-71.48 660.66,-67.5"/>
<polygon fill="#63b8ff" stroke="#63b8ff" points="678,-165.07 668.9,-170.49 679.4,-171.93 678,-165.07"/>
</g>
<!-- Node15 -->
<g id="node15" class="node">
<title>Node15</title>
<g id="a_node15"><a xlink:href="GreekSidebar_8cpp.html" target="_top" xlink:title="This file defines the class GreekSidebar.">
<polygon fill="white" stroke="#666666" points="559.25,-129 395.25,-129 395.25,-110 559.25,-110 559.25,-129"/>
<text text-anchor="middle" x="477.25" y="-117" font-family="Helvetica,sans-Serif" font-size="10.00">src/sidebars/GreekSidebar.cpp</text>
</a>
</g>
</g>
<!-- Node10&#45;&gt;Node15 -->
<g id="edge19" class="edge">
<title>Node10&#45;&gt;Node15</title>
<path fill="none" stroke="#63b8ff" d="M594.99,-166.73C566.2,-155.42 524.22,-138.94 498.94,-129.02"/>
<polygon fill="#63b8ff" stroke="#63b8ff" points="593.99,-170.1 604.58,-170.49 596.55,-163.58 593.99,-170.1"/>
</g>
<!-- Node16 -->
<g id="node16" class="node">
<title>Node16</title>
<g id="a_node16"><a xlink:href="wxMaxima_8h.html" target="_top" xlink:title="This file declares the class wxMaxima that contains most of the program&#39;s logic.">
<polygon fill="white" stroke="#666666" points="674.75,-129 577.75,-129 577.75,-110 674.75,-110 674.75,-129"/>
<text text-anchor="middle" x="626.25" y="-117" font-family="Helvetica,sans-Serif" font-size="10.00">src/wxMaxima.h</text>
</a>
</g>
</g>
<!-- Node10&#45;&gt;Node16 -->
<g id="edge20" class="edge">
<title>Node10&#45;&gt;Node16</title>
<path fill="none" stroke="#63b8ff" d="M626.25,-160.16C626.25,-149.74 626.25,-137.3 626.25,-129.17"/>
<polygon fill="#63b8ff" stroke="#63b8ff" points="622.75,-160.37 626.25,-170.37 629.75,-160.37 622.75,-160.37"/>
</g>
<!-- Node17 -->
<g id="node17" class="node">
<title>Node17</title>
<g id="a_node17"><a xlink:href="wxMaximaFrame_8cpp.html" target="_top" xlink:title="This file defines the class wxMaximaFrame.">
<polygon fill="white" stroke="#666666" points="831.75,-129 692.75,-129 692.75,-110 831.75,-110 831.75,-129"/>
<text text-anchor="middle" x="762.25" y="-117" font-family="Helvetica,sans-Serif" font-size="10.00">src/wxMaximaFrame.cpp</text>
</a>
</g>
</g>
<!-- Node10&#45;&gt;Node17 -->
<g id="edge26" class="edge">
<title>Node10&#45;&gt;Node17</title>
<path fill="none" stroke="#63b8ff" d="M655.46,-166.43C681.72,-155.14 719.57,-138.86 742.45,-129.02"/>
<polygon fill="#63b8ff" stroke="#63b8ff" points="653.83,-163.33 646.02,-170.49 656.59,-169.76 653.83,-163.33"/>
</g>
<!-- Node13&#45;&gt;Node6 -->
<g id="edge17" class="edge">
<title>Node13&#45;&gt;Node6</title>
<path fill="none" stroke="#63b8ff" d="M593.1,-51.55C565.8,-41.71 527.74,-27.98 503.29,-19.17"/>
<polygon fill="#63b8ff" stroke="#63b8ff" points="592.03,-54.89 602.63,-54.98 594.41,-48.3 592.03,-54.89"/>
</g>
<!-- Node13&#45;&gt;Node7 -->
<g id="edge18" class="edge">
<title>Node13&#45;&gt;Node7</title>
<path fill="none" stroke="#63b8ff" d="M581.98,-55.83C525.48,-46.05 428.05,-29.17 369.33,-19"/>
<polygon fill="#63b8ff" stroke="#63b8ff" points="581.58,-59.32 592.04,-57.57 582.78,-52.42 581.58,-59.32"/>
</g>
<!-- Node14 -->
<g id="node14" class="node">
<title>Node14</title>
<g id="a_node14"><a xlink:href="MaximaManual_8cpp.html" target="_top" xlink:title="This file defines the class MaximaManual.">
<polygon fill="white" stroke="#666666" points="691.25,-19 561.25,-19 561.25,0 691.25,0 691.25,-19"/>
<text text-anchor="middle" x="626.25" y="-7" font-family="Helvetica,sans-Serif" font-size="10.00">src/MaximaManual.cpp</text>
</a>
</g>
</g>
<!-- Node13&#45;&gt;Node14 -->
<g id="edge16" class="edge">
<title>Node13&#45;&gt;Node14</title>
<path fill="none" stroke="#63b8ff" d="M626.25,-44.66C626.25,-35.93 626.25,-25.99 626.25,-19.09"/>
<polygon fill="#63b8ff" stroke="#63b8ff" points="622.75,-44.75 626.25,-54.75 629.75,-44.75 622.75,-44.75"/>
</g>
<!-- Node16&#45;&gt;Node2 -->
<g id="edge21" class="edge">
<title>Node16&#45;&gt;Node2</title>
<path fill="none" stroke="#63b8ff" d="M587.16,-107.06C553.33,-97.15 505.16,-83.04 474.56,-74.08"/>
<polygon fill="#63b8ff" stroke="#63b8ff" points="586.58,-110.53 597.17,-109.98 588.55,-103.82 586.58,-110.53"/>
</g>
<!-- Node16&#45;&gt;Node6 -->
<g id="edge23" class="edge">
<title>Node16&#45;&gt;Node6</title>
<path fill="none" stroke="#63b8ff" d="M606.31,-103.73C588.9,-90.84 562.93,-71.65 540.25,-55 523.13,-42.44 503.25,-27.95 490.96,-19.01"/>
<polygon fill="#63b8ff" stroke="#63b8ff" points="604.46,-106.71 614.58,-109.85 608.62,-101.09 604.46,-106.71"/>
</g>
<!-- Node16&#45;&gt;Node7 -->
<g id="edge25" class="edge">
<title>Node16&#45;&gt;Node7</title>
<path fill="none" stroke="#63b8ff" d="M599.64,-105.12C582.57,-96.44 559.98,-84.78 540.25,-74 525.39,-65.89 522.98,-61.25 507.25,-55 463.82,-37.76 411.97,-26.06 373.89,-19.01"/>
<polygon fill="#63b8ff" stroke="#63b8ff" points="598.49,-108.46 608.99,-109.86 601.65,-102.22 598.49,-108.46"/>
</g>
<!-- Node16&#45;&gt;Node12 -->
<g id="edge22" class="edge">
<title>Node16&#45;&gt;Node12</title>
<path fill="none" stroke="#63b8ff" d="M681.18,-108.07C733.48,-98.13 811.26,-83.35 860.07,-74.08"/>
<polygon fill="#63b8ff" stroke="#63b8ff" points="680.24,-104.68 671.07,-109.98 681.55,-111.56 680.24,-104.68"/>
</g>
<!-- Node16&#45;&gt;Node13 -->
<g id="edge24" class="edge">
<title>Node16&#45;&gt;Node13</title>
<path fill="none" stroke="#63b8ff" d="M626.25,-99.66C626.25,-90.93 626.25,-80.99 626.25,-74.09"/>
<polygon fill="#63b8ff" stroke="#63b8ff" points="622.75,-99.75 626.25,-109.75 629.75,-99.75 622.75,-99.75"/>
</g>
</g>
</svg>
        <g id="navigator" transform="translate(0 0)" fill="#404254">
                <rect fill="#f2f5e9" fill-opacity="0.5" stroke="#606060" stroke-width=".5" x="0" y="0" width="60" height="60"/>
                <use id="zoomplus" xlink:href="#zoomPlus" x="17" y="9" onmousedown="handleZoom(evt,'in')"/>
                <use id="zoomminus" xlink:href="#zoomMin" x="42" y="9" onmousedown="handleZoom(evt,'out')"/>
                <use id="reset" xlink:href="#resetDef" x="30" y="36" onmousedown="handleReset()"/>
                <g id="arrowUp" xlink:href="#dirArrow" transform="translate(30 24)" onmousedown="handlePan(0,-1)">
                  <use xlink:href="#rim" fill="#404040">
                        <set attributeName="fill" to="#808080" begin="arrowUp.mouseover" end="arrowUp.mouseout"/>
                  </use>
                  <path fill="none" stroke="white" stroke-width="1.5" d="M0,-3.0v7 M-2.5,-0.5L0,-3.0L2.5,-0.5"/>
                </g>
                <g id="arrowRight" xlink:href="#dirArrow" transform="rotate(90) translate(36 -43)" onmousedown="handlePan(1,0)">
                  <use xlink:href="#rim" fill="#404040">
                        <set attributeName="fill" to="#808080" begin="arrowRight.mouseover" end="arrowRight.mouseout"/>
                  </use>
                  <path fill="none" stroke="white" stroke-width="1.5" d="M0,-3.0v7 M-2.5,-0.5L0,-3.0L2.5,-0.5"/>
                </g>
                <g id="arrowDown" xlink:href="#dirArrow" transform="rotate(180) translate(-30 -48)" onmousedown="handlePan(0,1)">
                  <use xlink:href="#rim" fill="#404040">
                        <set attributeName="fill" to="#808080" begin="arrowDown.mouseover" end="arrowDown.mouseout"/>
                  </use>
                  <path fill="none" stroke="white" stroke-width="1.5" d="M0,-3.0v7 M-2.5,-0.5L0,-3.0L2.5,-0.5"/>
                </g>
                <g id="arrowLeft" xlink:href="#dirArrow" transform="rotate(270) translate(-36 17)" onmousedown="handlePan(-1,0)">
                  <use xlink:href="#rim" fill="#404040">
                        <set attributeName="fill" to="#808080" begin="arrowLeft.mouseover" end="arrowLeft.mouseout"/>
                  </use>
                  <path fill="none" stroke="white" stroke-width="1.5" d="M0,-3.0v7 M-2.5,-0.5L0,-3.0L2.5,-0.5"/>
                </g>
        </g>
        <svg viewBox="0 0 15 15" width="100%" height="30px" preserveAspectRatio="xMaxYMin meet">
         <g id="arrow_out" transform="scale(0.3 0.3)">
          <a xlink:href="Worksheet_8h__dep__incl_org.svg" target="_base">
           <rect id="button" ry="5" rx="5" y="6" x="6" height="38" width="38"
                fill="#f2f5e9" fill-opacity="0.5" stroke="#606060" stroke-width="1.0"/>
           <path id="arrow"
             d="M 11.500037,31.436501 C 11.940474,20.09759 22.043105,11.32322 32.158766,21.979434 L 37.068811,17.246167 C 37.068811,17.246167 37.088388,32 37.088388,32 L 22.160133,31.978069 C 22.160133,31.978069 26.997745,27.140456 26.997745,27.140456 C 18.528582,18.264221 13.291696,25.230495 11.500037,31.436501 z"
             style="fill:#404040;"/>
          </a>
         </g>
        </svg>
</svg>
