<?xml version="1.0" encoding="UTF-8" standalone="no"?>
<!DOCTYPE svg PUBLIC "-//W3C//DTD SVG 1.1//EN"
 "http://www.w3.org/Graphics/SVG/1.1/DTD/svg11.dtd">
<!-- Generated by graphviz version 2.43.0 (0)
 -->
<!-- Title: src/worksheet/WorksheetLayout.h Pages: 1 -->
<svg width="752pt" height="137pt"
 viewBox="0.00 0.00 751.50 137.00" xmlns="http://www.w3.org/2000/svg" xmlns:xlink="http://www.w3.org/1999/xlink">
<g id="graph0" class="graph" transform="scale(1 1) rotate(0) translate(4 133)">
<title>src/worksheet/WorksheetLayout.h</title>
<!-- Node1 -->
<g id="node1" class="node">
<title>Node1</title>
<g id="a_node1"><a xlink:title="The worksheet&#39;s layout engine: scheduling, the recalculation walk and the virtual&#45;size update,...">
<polygon fill="#999999" stroke="#666666" points="496,-129 314,-129 314,-110 496,-110 496,-129"/>
<text text-anchor="middle" x="405" y="-117" font-family="Helvetica,sans-Serif" font-size="10.00">src/worksheet/WorksheetLayout.h</text>
</a>
</g>
</g>
<!-- Node2 -->
<g id="node2" class="node">
<title>Node2</title>
<g id="a_node2"><a xlink:href="WorksheetSizeMath_8h.html" target="_top" xlink:title="The pure arithmetic that turns a laid&#45;out worksheet&#39;s extent into the scrollable (virtual) size and s...">
<polygon fill="white" stroke="#666666" points="167,-74 45,-74 45,-55 167,-55 167,-74"/>
<text text-anchor="middle" x="106" y="-62" font-family="Helvetica,sans-Serif" font-size="10.00">WorksheetSizeMath.h</text>
</a>
</g>
</g>
<!-- Node1&#45;&gt;Node2 -->
<g id="edge1" class="edge">
<title>Node1&#45;&gt;Node2</title>
<path fill="none" stroke="#63b8ff" d="M356.96,-109.98C304.59,-100.7 220.76,-85.84 164.57,-75.88"/>
<polygon fill="#63b8ff" stroke="#63b8ff" points="164.87,-72.38 154.42,-74.08 163.65,-79.27 164.87,-72.38"/>
</g>
<!-- Node5 -->
<g id="node5" class="node">
<title>Node5</title>
<g id="a_node5"><a xlink:href="CellPtr_8h.html" target="_top" xlink:title="Implementation of an observing weak Cell pointer.">
<polygon fill="white" stroke="#666666" points="446.5,-74 363.5,-74 363.5,-55 446.5,-55 446.5,-74"/>
<text text-anchor="middle" x="405" y="-62" font-family="Helvetica,sans-Serif" font-size="10.00">cells/CellPtr.h</text>
</a>
</g>
</g>
<!-- Node1&#45;&gt;Node5 -->
<g id="edge4" class="edge">
<title>Node1&#45;&gt;Node5</title>
<path fill="none" stroke="#63b8ff" d="M405,-109.75C405,-102.8 405,-92.85 405,-84.13"/>
<polygon fill="#63b8ff" stroke="#63b8ff" points="408.5,-84.09 405,-74.09 401.5,-84.09 408.5,-84.09"/>
</g>
<!-- Node14 -->
<g id="node14" class="node">
<title>Node14</title>
<g id="a_node14"><a xlink:title=" ">
<polygon fill="#e0e0e0" stroke="#999999" points="529.5,-74 464.5,-74 464.5,-55 529.5,-55 529.5,-74"/>
<text text-anchor="middle" x="497" y="-62" font-family="Helvetica,sans-Serif" font-size="10.00">functional</text>
</a>
</g>
</g>
<!-- Node1&#45;&gt;Node14 -->
<g id="edge13" class="edge">
<title>Node1&#45;&gt;Node14</title>
<path fill="none" stroke="#63b8ff" d="M419.78,-109.98C434.18,-101.69 456.31,-88.94 473.19,-79.22"/>
<polygon fill="#63b8ff" stroke="#63b8ff" points="475.03,-82.19 481.95,-74.17 471.54,-76.13 475.03,-82.19"/>
</g>
<!-- Node3 -->
<g id="node3" class="node">
<title>Node3</title>
<g id="a_node3"><a xlink:title=" ">
<polygon fill="#e0e0e0" stroke="#999999" points="64,-19 0,-19 0,0 64,0 64,-19"/>
<text text-anchor="middle" x="32" y="-7" font-family="Helvetica,sans-Serif" font-size="10.00">algorithm</text>
</a>
</g>
</g>
<!-- Node2&#45;&gt;Node3 -->
<g id="edge2" class="edge">
<title>Node2&#45;&gt;Node3</title>
<path fill="none" stroke="#63b8ff" d="M94.11,-54.98C82.85,-46.92 65.71,-34.65 52.29,-25.03"/>
<polygon fill="#63b8ff" stroke="#63b8ff" points="54.27,-22.15 44.11,-19.17 50.2,-27.84 54.27,-22.15"/>
</g>
<!-- Node4 -->
<g id="node4" class="node">
<title>Node4</title>
<g id="a_node4"><a xlink:title=" ">
<polygon fill="#e0e0e0" stroke="#999999" points="129.5,-19 82.5,-19 82.5,0 129.5,0 129.5,-19"/>
<text text-anchor="middle" x="106" y="-7" font-family="Helvetica,sans-Serif" font-size="10.00">vector</text>
</a>
</g>
</g>
<!-- Node2&#45;&gt;Node4 -->
<g id="edge3" class="edge">
<title>Node2&#45;&gt;Node4</title>
<path fill="none" stroke="#63b8ff" d="M106,-54.75C106,-47.8 106,-37.85 106,-29.13"/>
<polygon fill="#63b8ff" stroke="#63b8ff" points="109.5,-29.09 106,-19.09 102.5,-29.09 109.5,-29.09"/>
</g>
<!-- Node6 -->
<g id="node6" class="node">
<title>Node6</title>
<g id="a_node6"><a xlink:title=" ">
<polygon fill="#e0e0e0" stroke="#999999" points="220.5,-19 147.5,-19 147.5,0 220.5,0 220.5,-19"/>
<text text-anchor="middle" x="184" y="-7" font-family="Helvetica,sans-Serif" font-size="10.00">wx/debug.h</text>
</a>
</g>
</g>
<!-- Node5&#45;&gt;Node6 -->
<g id="edge5" class="edge">
<title>Node5&#45;&gt;Node6</title>
<path fill="none" stroke="#63b8ff" d="M369.49,-54.98C331.51,-45.87 271.13,-31.4 229.64,-21.45"/>
<polygon fill="#63b8ff" stroke="#63b8ff" points="230.33,-18.01 219.79,-19.08 228.69,-24.82 230.33,-18.01"/>
</g>
<!-- Node7 -->
<g id="node7" class="node">
<title>Node7</title>
<g id="a_node7"><a xlink:title=" ">
<polygon fill="#e0e0e0" stroke="#999999" points="297,-19 239,-19 239,0 297,0 297,-19"/>
<text text-anchor="middle" x="268" y="-7" font-family="Helvetica,sans-Serif" font-size="10.00">wx/log.h</text>
</a>
</g>
</g>
<!-- Node5&#45;&gt;Node7 -->
<g id="edge6" class="edge">
<title>Node5&#45;&gt;Node7</title>
<path fill="none" stroke="#63b8ff" d="M382.99,-54.98C360.55,-46.3 325.52,-32.75 300.01,-22.88"/>
<polygon fill="#63b8ff" stroke="#63b8ff" points="301,-19.51 290.41,-19.17 298.48,-26.04 301,-19.51"/>
</g>
<!-- Node8 -->
<g id="node8" class="node">
<title>Node8</title>
<g id="a_node8"><a xlink:title=" ">
<polygon fill="#e0e0e0" stroke="#999999" points="360.5,-19 315.5,-19 315.5,0 360.5,0 360.5,-19"/>
<text text-anchor="middle" x="338" y="-7" font-family="Helvetica,sans-Serif" font-size="10.00">utility</text>
</a>
</g>
</g>
<!-- Node5&#45;&gt;Node8 -->
<g id="edge7" class="edge">
<title>Node5&#45;&gt;Node8</title>
<path fill="none" stroke="#63b8ff" d="M394.24,-54.98C384.23,-47.07 369.11,-35.11 357.07,-25.58"/>
<polygon fill="#63b8ff" stroke="#63b8ff" points="358.97,-22.63 348.96,-19.17 354.63,-28.12 358.97,-22.63"/>
</g>
<!-- Node9 -->
<g id="node9" class="node">
<title>Node9</title>
<g id="a_node9"><a xlink:title=" ">
<polygon fill="#e0e0e0" stroke="#999999" points="431.5,-19 378.5,-19 378.5,0 431.5,0 431.5,-19"/>
<text text-anchor="middle" x="405" y="-7" font-family="Helvetica,sans-Serif" font-size="10.00">cstddef</text>
</a>
</g>
</g>
<!-- Node5&#45;&gt;Node9 -->
<g id="edge8" class="edge">
<title>Node5&#45;&gt;Node9</title>
<path fill="none" stroke="#63b8ff" d="M405,-54.75C405,-47.8 405,-37.85 405,-29.13"/>
<polygon fill="#63b8ff" stroke="#63b8ff" points="408.5,-29.09 405,-19.09 401.5,-29.09 408.5,-29.09"/>
</g>
<!-- Node10 -->
<g id="node10" class="node">
<title>Node10</title>
<g id="a_node10"><a xlink:title=" ">
<polygon fill="#e0e0e0" stroke="#999999" points="500,-19 450,-19 450,0 500,0 500,-19"/>
<text text-anchor="middle" x="475" y="-7" font-family="Helvetica,sans-Serif" font-size="10.00">cstdint</text>
</a>
</g>
</g>
<!-- Node5&#45;&gt;Node10 -->
<g id="edge9" class="edge">
<title>Node5&#45;&gt;Node10</title>
<path fill="none" stroke="#63b8ff" d="M416.25,-54.98C426.8,-47 442.8,-34.88 455.44,-25.31"/>
<polygon fill="#63b8ff" stroke="#63b8ff" points="457.69,-28 463.55,-19.17 453.46,-22.42 457.69,-28"/>
</g>
<!-- Node11 -->
<g id="node11" class="node">
<title>Node11</title>
<g id="a_node11"><a xlink:title=" ">
<polygon fill="#e0e0e0" stroke="#999999" points="580,-19 518,-19 518,0 580,0 580,-19"/>
<text text-anchor="middle" x="549" y="-7" font-family="Helvetica,sans-Serif" font-size="10.00">cinttypes</text>
</a>
</g>
</g>
<!-- Node5&#45;&gt;Node11 -->
<g id="edge10" class="edge">
<title>Node5&#45;&gt;Node11</title>
<path fill="none" stroke="#63b8ff" d="M428.14,-54.98C451.82,-46.27 488.87,-32.63 515.71,-22.75"/>
<polygon fill="#63b8ff" stroke="#63b8ff" points="517.27,-25.91 525.44,-19.17 514.85,-19.34 517.27,-25.91"/>
</g>
<!-- Node12 -->
<g id="node12" class="node">
<title>Node12</title>
<g id="a_node12"><a xlink:title=" ">
<polygon fill="#e0e0e0" stroke="#999999" points="656,-19 598,-19 598,0 656,0 656,-19"/>
<text text-anchor="middle" x="627" y="-7" font-family="Helvetica,sans-Serif" font-size="10.00">memory</text>
</a>
</g>
</g>
<!-- Node5&#45;&gt;Node12 -->
<g id="edge11" class="edge">
<title>Node5&#45;&gt;Node12</title>
<path fill="none" stroke="#63b8ff" d="M440.67,-54.98C480.98,-45.36 546.38,-29.75 588.01,-19.81"/>
<polygon fill="#63b8ff" stroke="#63b8ff" points="588.89,-23.2 597.8,-17.47 587.26,-16.39 588.89,-23.2"/>
</g>
<!-- Node13 -->
<g id="node13" class="node">
<title>Node13</title>
<g id="a_node13"><a xlink:title=" ">
<polygon fill="#e0e0e0" stroke="#999999" points="743.5,-19 674.5,-19 674.5,0 743.5,0 743.5,-19"/>
<text text-anchor="middle" x="709" y="-7" font-family="Helvetica,sans-Serif" font-size="10.00">type_traits</text>
</a>
</g>
</g>
<!-- Node5&#45;&gt;Node13 -->
<g id="edge12" class="edge">
<title>Node5&#45;&gt;Node13</title>
<path fill="none" stroke="#63b8ff" d="M446.57,-56.5C505.17,-46.61 610.11,-28.82 664.55,-19.04"/>
<polygon fill="#63b8ff" stroke="#63b8ff" points="665.21,-22.48 674.43,-17.25 663.96,-15.59 665.21,-22.48"/>
</g>
</g>
</svg>
