<?xml version="1.0" encoding="UTF-8" standalone="no"?>
<!DOCTYPE svg PUBLIC "-//W3C//DTD SVG 1.1//EN"
 "http://www.w3.org/Graphics/SVG/1.1/DTD/svg11.dtd">
<!-- Generated by graphviz version 2.43.0 (0)
 -->
<!-- Title: src/WorksheetSizeMath.h Pages: 1 -->
<svg width="2410pt" height="390pt"
 viewBox="0.00 0.00 2409.69 390.00" xmlns="http://www.w3.org/2000/svg" xmlns:xlink="http://www.w3.org/1999/xlink">
<g id="graph0" class="graph" transform="scale(1 1) rotate(0) translate(4 386)">
<title>src/WorksheetSizeMath.h</title>
<!-- Node1 -->
<g id="node1" class="node">
<title>Node1</title>
<g id="a_node1"><a xlink:title="The pure arithmetic that turns a laid&#45;out worksheet&#39;s extent into the scrollable (virtual) size and s...">
<polygon fill="#999999" stroke="#666666" points="1256,-382 1116,-382 1116,-363 1256,-363 1256,-382"/>
<text text-anchor="middle" x="1186" y="-370" font-family="Helvetica,sans-Serif" font-size="10.00">src/WorksheetSizeMath.h</text>
</a>
</g>
</g>
<!-- Node2 -->
<g id="node2" class="node">
<title>Node2</title>
<g id="a_node2"><a xlink:href="Worksheet_8cpp.html" target="_top" xlink:title="This file defines the class Worksheet.">
<polygon fill="white" stroke="#666666" points="110,-74 4,-74 4,-55 110,-55 110,-74"/>
<text text-anchor="middle" x="57" y="-62" font-family="Helvetica,sans-Serif" font-size="10.00">src/Worksheet.cpp</text>
</a>
</g>
</g>
<!-- Node1&#45;&gt;Node2 -->
<g id="edge1" class="edge">
<title>Node1&#45;&gt;Node2</title>
<path fill="none" stroke="#63b8ff" d="M1105.41,-371.51C838.47,-370.49 0,-358.41 0,-247 0,-247 0,-247 0,-179 0,-135.78 33.41,-92.21 49.07,-74.16"/>
<polygon fill="#63b8ff" stroke="#63b8ff" points="1105.79,-375.01 1115.8,-371.54 1105.81,-368.01 1105.79,-375.01"/>
</g>
<!-- Node3 -->
<g id="node3" class="node">
<title>Node3</title>
<g id="a_node3"><a xlink:href="WorksheetLayout_8h.html" target="_top" xlink:title="The worksheet&#39;s layout engine: scheduling, the recalculation walk and the virtual&#45;size update,...">
<polygon fill="white" stroke="#666666" points="1250,-321.5 1122,-321.5 1122,-302.5 1250,-302.5 1250,-321.5"/>
<text text-anchor="middle" x="1186" y="-309.5" font-family="Helvetica,sans-Serif" font-size="10.00">src/WorksheetLayout.h</text>
</a>
</g>
</g>
<!-- Node1&#45;&gt;Node3 -->
<g id="edge2" class="edge">
<title>Node1&#45;&gt;Node3</title>
<path fill="none" stroke="#63b8ff" d="M1186,-352.66C1186,-342.24 1186,-329.8 1186,-321.67"/>
<polygon fill="#63b8ff" stroke="#63b8ff" points="1182.5,-352.87 1186,-362.87 1189.5,-352.87 1182.5,-352.87"/>
</g>
<!-- Node33 -->
<g id="node33" class="node">
<title>Node33</title>
<g id="a_node33"><a xlink:href="test__WorksheetSizeMath_8cpp.html" target="_top" xlink:title="Unit tests for the worksheet&#39;s virtual&#45;size arithmetic (ComputeWorksheetVirtualSize).">
<polygon fill="white" stroke="#666666" points="1407.5,-327 1268.5,-327 1268.5,-297 1407.5,-297 1407.5,-327"/>
<text text-anchor="start" x="1276.5" y="-315" font-family="Helvetica,sans-Serif" font-size="10.00">test/unit_tests/test</text>
<text text-anchor="middle" x="1338" y="-304" font-family="Helvetica,sans-Serif" font-size="10.00">_WorksheetSizeMath.cpp</text>
</a>
</g>
</g>
<!-- Node1&#45;&gt;Node33 -->
<g id="edge43" class="edge">
<title>Node1&#45;&gt;Node33</title>
<path fill="none" stroke="#63b8ff" d="M1217.61,-359.33C1242.04,-349.93 1275.87,-336.91 1301.46,-327.06"/>
<polygon fill="#63b8ff" stroke="#63b8ff" points="1216.18,-356.14 1208.1,-362.99 1218.69,-362.67 1216.18,-356.14"/>
</g>
<!-- Node4 -->
<g id="node4" class="node">
<title>Node4</title>
<g id="a_node4"><a xlink:href="Worksheet_8h.html" target="_top" xlink:title="This file defines the class Worksheet.">
<polygon fill="white" stroke="#666666" points="1298.5,-255.5 1203.5,-255.5 1203.5,-236.5 1298.5,-236.5 1298.5,-255.5"/>
<text text-anchor="middle" x="1251" y="-243.5" font-family="Helvetica,sans-Serif" font-size="10.00">src/Worksheet.h</text>
</a>
</g>
</g>
<!-- Node3&#45;&gt;Node4 -->
<g id="edge3" class="edge">
<title>Node3&#45;&gt;Node4</title>
<path fill="none" stroke="#63b8ff" d="M1201.92,-295.33C1214.5,-282.94 1231.62,-266.09 1241.96,-255.91"/>
<polygon fill="#63b8ff" stroke="#63b8ff" points="1199.44,-292.86 1194.77,-302.37 1204.35,-297.85 1199.44,-292.86"/>
</g>
<!-- Node31 -->
<g id="node31" class="node">
<title>Node31</title>
<g id="a_node31"><a xlink:href="WorksheetLayout_8cpp.html" target="_top" xlink:title="Implementation of WorksheetLayout, the worksheet&#39;s layout engine.">
<polygon fill="white" stroke="#666666" points="1455.5,-255.5 1316.5,-255.5 1316.5,-236.5 1455.5,-236.5 1455.5,-255.5"/>
<text text-anchor="middle" x="1386" y="-243.5" font-family="Helvetica,sans-Serif" font-size="10.00">src/WorksheetLayout.cpp</text>
</a>
</g>
</g>
<!-- Node3&#45;&gt;Node31 -->
<g id="edge41" class="edge">
<title>Node3&#45;&gt;Node31</title>
<path fill="none" stroke="#63b8ff" d="M1222.74,-299.24C1262.21,-286.61 1323.98,-266.85 1359.14,-255.6"/>
<polygon fill="#63b8ff" stroke="#63b8ff" points="1221.43,-295.99 1212.97,-302.37 1223.56,-302.65 1221.43,-295.99"/>
</g>
<!-- Node32 -->
<g id="node32" class="node">
<title>Node32</title>
<g id="a_node32"><a xlink:href="test__WorksheetLayout_8cpp.html" target="_top" xlink:title="Headless tests for the full WorksheetLayout pipeline.">
<polygon fill="white" stroke="#666666" points="1185.5,-261 1058.5,-261 1058.5,-231 1185.5,-231 1185.5,-261"/>
<text text-anchor="start" x="1066.5" y="-249" font-family="Helvetica,sans-Serif" font-size="10.00">test/unit_tests/test</text>
<text text-anchor="middle" x="1122" y="-238" font-family="Helvetica,sans-Serif" font-size="10.00">_WorksheetLayout.cpp</text>
</a>
</g>
</g>
<!-- Node3&#45;&gt;Node32 -->
<g id="edge42" class="edge">
<title>Node3&#45;&gt;Node32</title>
<path fill="none" stroke="#63b8ff" d="M1170.16,-295.16C1159.81,-284.81 1146.4,-271.4 1136.36,-261.36"/>
<polygon fill="#63b8ff" stroke="#63b8ff" points="1167.82,-297.77 1177.37,-302.37 1172.77,-292.82 1167.82,-297.77"/>
</g>
<!-- Node4&#45;&gt;Node2 -->
<g id="edge4" class="edge">
<title>Node4&#45;&gt;Node2</title>
<path fill="none" stroke="#63b8ff" d="M1211.93,-234.12C1206.29,-232.87 1200.52,-231.77 1195,-231 1075.87,-214.32 215.77,-257.52 113,-195 69.26,-168.39 59.62,-98.92 57.55,-74.3"/>
<polygon fill="#63b8ff" stroke="#63b8ff" points="1211.34,-237.57 1221.88,-236.48 1212.96,-230.76 1211.34,-237.57"/>
</g>
<!-- Node5 -->
<g id="node5" class="node">
<title>Node5</title>
<g id="a_node5"><a xlink:href="WorksheetContextMenu_8cpp.html" target="_top" xlink:title="The worksheet&#39;s right&#45;click context menu (see WorksheetContextMenu.h).">
<polygon fill="white" stroke="#666666" points="439.5,-189.5 268.5,-189.5 268.5,-170.5 439.5,-170.5 439.5,-189.5"/>
<text text-anchor="middle" x="354" y="-177.5" font-family="Helvetica,sans-Serif" font-size="10.00">src/WorksheetContextMenu.cpp</text>
</a>
</g>
</g>
<!-- Node4&#45;&gt;Node5 -->
<g id="edge5" class="edge">
<title>Node4&#45;&gt;Node5</title>
<path fill="none" stroke="#63b8ff" d="M1211.73,-234.15C1206.15,-232.91 1200.45,-231.8 1195,-231 866.18,-182.46 778.79,-227.52 448,-195 434.04,-193.63 418.99,-191.62 405.11,-189.56"/>
<polygon fill="#63b8ff" stroke="#63b8ff" points="1211.04,-237.58 1221.57,-236.49 1212.65,-230.77 1211.04,-237.58"/>
</g>
<!-- Node6 -->
<g id="node6" class="node">
<title>Node6</title>
<g id="a_node6"><a xlink:href="ConfigDialogue_8h.html" target="_top" xlink:title="The configuration dialog.">
<polygon fill="white" stroke="#666666" points="1059.5,-74 904.5,-74 904.5,-55 1059.5,-55 1059.5,-74"/>
<text text-anchor="middle" x="982" y="-62" font-family="Helvetica,sans-Serif" font-size="10.00">src/dialogs/ConfigDialogue.h</text>
</a>
</g>
</g>
<!-- Node4&#45;&gt;Node6 -->
<g id="edge6" class="edge">
<title>Node4&#45;&gt;Node6</title>
<path fill="none" stroke="#63b8ff" d="M1290.78,-234.13C1296.52,-232.88 1302.39,-231.78 1308,-231 1365.32,-223.06 2308.79,-236.62 2349,-195 2358.26,-185.41 2358.09,-174.76 2349,-165 2251.74,-60.59 1210.18,-86.07 1068,-74 1065.31,-73.77 1062.57,-73.53 1059.81,-73.29"/>
<polygon fill="#63b8ff" stroke="#63b8ff" points="1289.6,-230.81 1280.65,-236.49 1291.19,-237.62 1289.6,-230.81"/>
</g>
<!-- Node9 -->
<g id="node9" class="node">
<title>Node9</title>
<g id="a_node9"><a xlink:href="DiffFrame_8h_source.html" target="_top" xlink:title=" ">
<polygon fill="white" stroke="#666666" points="1206.5,-74 1077.5,-74 1077.5,-55 1206.5,-55 1206.5,-74"/>
<text text-anchor="middle" x="1142" y="-62" font-family="Helvetica,sans-Serif" font-size="10.00">src/dialogs/DiffFrame.h</text>
</a>
</g>
</g>
<!-- Node4&#45;&gt;Node9 -->
<g id="edge9" class="edge">
<title>Node4&#45;&gt;Node9</title>
<path fill="none" stroke="#63b8ff" d="M1290.78,-234.12C1296.52,-232.87 1302.39,-231.78 1308,-231 1367.14,-222.84 2340.5,-237.92 2382,-195 2408.26,-167.84 2408.23,-137.19 2382,-110 2340.89,-67.39 1455.67,-65.15 1206.65,-65.36"/>
<polygon fill="#63b8ff" stroke="#63b8ff" points="1289.6,-230.8 1280.65,-236.48 1291.19,-237.62 1289.6,-230.8"/>
</g>
<!-- Node10 -->
<g id="node10" class="node">
<title>Node10</title>
<g id="a_node10"><a xlink:href="Printout_8cpp.html" target="_top" xlink:title="This file defines the class MathPrintOut.">
<polygon fill="white" stroke="#666666" points="612.5,-189.5 457.5,-189.5 457.5,-170.5 612.5,-170.5 612.5,-189.5"/>
<text text-anchor="middle" x="535" y="-177.5" font-family="Helvetica,sans-Serif" font-size="10.00">src/graphical_io/Printout.cpp</text>
</a>
</g>
</g>
<!-- Node4&#45;&gt;Node10 -->
<g id="edge12" class="edge">
<title>Node4&#45;&gt;Node10</title>
<path fill="none" stroke="#63b8ff" d="M1211.53,-234.18C1206.01,-232.95 1200.38,-231.84 1195,-231 942.85,-191.89 875.59,-223.3 622,-195 609.23,-193.57 595.47,-191.58 582.75,-189.54"/>
<polygon fill="#63b8ff" stroke="#63b8ff" points="1210.73,-237.59 1221.27,-236.5 1212.35,-230.78 1210.73,-237.59"/>
</g>
<!-- Node11 -->
<g id="node11" class="node">
<title>Node11</title>
<g id="a_node11"><a xlink:href="wxMaximaFrame_8h.html" target="_top" xlink:title="This file declares the class wxMaximaFrame.">
<polygon fill="white" stroke="#666666" points="250,-189.5 122,-189.5 122,-170.5 250,-170.5 250,-189.5"/>
<text text-anchor="middle" x="186" y="-177.5" font-family="Helvetica,sans-Serif" font-size="10.00">src/wxMaximaFrame.h</text>
</a>
</g>
</g>
<!-- Node4&#45;&gt;Node11 -->
<g id="edge13" class="edge">
<title>Node4&#45;&gt;Node11</title>
<path fill="none" stroke="#63b8ff" d="M1211.74,-234.1C1206.15,-232.87 1200.46,-231.78 1195,-231 782.87,-172.2 672.61,-242.34 259,-195 247.72,-193.71 235.57,-191.65 224.48,-189.51"/>
<polygon fill="#63b8ff" stroke="#63b8ff" points="1211.04,-237.53 1221.58,-236.43 1212.66,-230.72 1211.04,-237.53"/>
</g>
<!-- Node19 -->
<g id="node19" class="node">
<title>Node19</title>
<g id="a_node19"><a xlink:href="test__Accessibility_8cpp.html" target="_top" xlink:title="Logic&#45;level regression tests for wxMaxima&#39;s custom wxAccessible classes.">
<polygon fill="white" stroke="#666666" points="739,-195 631,-195 631,-165 739,-165 739,-195"/>
<text text-anchor="start" x="639" y="-183" font-family="Helvetica,sans-Serif" font-size="10.00">test/unit_tests/test</text>
<text text-anchor="middle" x="685" y="-172" font-family="Helvetica,sans-Serif" font-size="10.00">_Accessibility.cpp</text>
</a>
</g>
</g>
<!-- Node4&#45;&gt;Node19 -->
<g id="edge29" class="edge">
<title>Node4&#45;&gt;Node19</title>
<path fill="none" stroke="#63b8ff" d="M1210.73,-234.09C1205.46,-232.91 1200.12,-231.84 1195,-231 998.32,-198.72 945.09,-224.69 748,-195 745.12,-194.57 742.17,-194.08 739.21,-193.55"/>
<polygon fill="#63b8ff" stroke="#63b8ff" points="1210.13,-237.55 1220.67,-236.45 1211.75,-230.74 1210.13,-237.55"/>
</g>
<!-- Node20 -->
<g id="node20" class="node">
<title>Node20</title>
<g id="a_node20"><a xlink:href="test__EditorCellInvariants_8cpp.html" target="_top" xlink:title="Hardening tests for EditorCell&#39;s text&#45;editing core.">
<polygon fill="white" stroke="#666666" points="895,-195 757,-195 757,-165 895,-165 895,-195"/>
<text text-anchor="start" x="765" y="-183" font-family="Helvetica,sans-Serif" font-size="10.00">test/unit_tests/test</text>
<text text-anchor="middle" x="826" y="-172" font-family="Helvetica,sans-Serif" font-size="10.00">_EditorCellInvariants.cpp</text>
</a>
</g>
</g>
<!-- Node4&#45;&gt;Node20 -->
<g id="edge30" class="edge">
<title>Node4&#45;&gt;Node20</title>
<path fill="none" stroke="#63b8ff" d="M1209.74,-234.08C1204.79,-232.95 1199.8,-231.89 1195,-231 1066.88,-207.15 1032.85,-214.52 904,-195 901.14,-194.57 898.23,-194.11 895.29,-193.64"/>
<polygon fill="#63b8ff" stroke="#63b8ff" points="1209.21,-237.55 1219.75,-236.47 1210.84,-230.75 1209.21,-237.55"/>
</g>
<!-- Node21 -->
<g id="node21" class="node">
<title>Node21</title>
<g id="a_node21"><a xlink:href="test__GroupCellLayout_8cpp.html" target="_top" xlink:title="Regression tests for the GroupCell &lt;&#45;&gt; EditorCell layout coupling.">
<polygon fill="white" stroke="#666666" points="1036.5,-195 913.5,-195 913.5,-165 1036.5,-165 1036.5,-195"/>
<text text-anchor="start" x="921.5" y="-183" font-family="Helvetica,sans-Serif" font-size="10.00">test/unit_tests/test</text>
<text text-anchor="middle" x="975" y="-172" font-family="Helvetica,sans-Serif" font-size="10.00">_GroupCellLayout.cpp</text>
</a>
</g>
</g>
<!-- Node4&#45;&gt;Node21 -->
<g id="edge31" class="edge">
<title>Node4&#45;&gt;Node21</title>
<path fill="none" stroke="#63b8ff" d="M1207.5,-234.03C1203.28,-232.99 1199.06,-231.97 1195,-231 1141.66,-218.27 1080.87,-204.51 1036.72,-194.66"/>
<polygon fill="#63b8ff" stroke="#63b8ff" points="1206.72,-237.44 1217.27,-236.44 1208.4,-230.65 1206.72,-237.44"/>
</g>
<!-- Node22 -->
<g id="node22" class="node">
<title>Node22</title>
<g id="a_node22"><a xlink:href="test__LayoutInvariants_8cpp.html" target="_top" xlink:title="Layout idempotency invariants.">
<polygon fill="white" stroke="#666666" points="1179,-195 1055,-195 1055,-165 1179,-165 1179,-195"/>
<text text-anchor="start" x="1063" y="-183" font-family="Helvetica,sans-Serif" font-size="10.00">test/unit_tests/test</text>
<text text-anchor="middle" x="1117" y="-172" font-family="Helvetica,sans-Serif" font-size="10.00">_LayoutInvariants.cpp</text>
</a>
</g>
</g>
<!-- Node4&#45;&gt;Node22 -->
<g id="edge32" class="edge">
<title>Node4&#45;&gt;Node22</title>
<path fill="none" stroke="#63b8ff" d="M1223.64,-231.93C1201.22,-221.22 1169.55,-206.1 1146.55,-195.12"/>
<polygon fill="#63b8ff" stroke="#63b8ff" points="1222.4,-235.22 1232.93,-236.37 1225.41,-228.9 1222.4,-235.22"/>
</g>
<!-- Node23 -->
<g id="node23" class="node">
<title>Node23</title>
<g id="a_node23"><a xlink:href="test__TreeUndo_8cpp.html" target="_top" xlink:title="Regression tests for the worksheet&#39;s cell&#45;tree undo/redo (the TreeUndo_* subsystem of Worksheet).">
<polygon fill="white" stroke="#666666" points="1305,-195 1197,-195 1197,-165 1305,-165 1305,-195"/>
<text text-anchor="start" x="1205" y="-183" font-family="Helvetica,sans-Serif" font-size="10.00">test/unit_tests/test</text>
<text text-anchor="middle" x="1251" y="-172" font-family="Helvetica,sans-Serif" font-size="10.00">_TreeUndo.cpp</text>
</a>
</g>
</g>
<!-- Node4&#45;&gt;Node23 -->
<g id="edge33" class="edge">
<title>Node4&#45;&gt;Node23</title>
<path fill="none" stroke="#63b8ff" d="M1251,-226.35C1251,-216.47 1251,-204.51 1251,-195.36"/>
<polygon fill="#63b8ff" stroke="#63b8ff" points="1247.5,-226.37 1251,-236.37 1254.5,-226.37 1247.5,-226.37"/>
</g>
<!-- Node24 -->
<g id="node24" class="node">
<title>Node24</title>
<g id="a_node24"><a xlink:href="test__WXMRoundtrip_8cpp.html" target="_top" xlink:title="Regression tests for images surviving the .wxm serialization round&#45;trip.">
<polygon fill="white" stroke="#666666" points="1438.5,-195 1323.5,-195 1323.5,-165 1438.5,-165 1438.5,-195"/>
<text text-anchor="start" x="1331.5" y="-183" font-family="Helvetica,sans-Serif" font-size="10.00">test/unit_tests/test</text>
<text text-anchor="middle" x="1381" y="-172" font-family="Helvetica,sans-Serif" font-size="10.00">_WXMRoundtrip.cpp</text>
</a>
</g>
</g>
<!-- Node4&#45;&gt;Node24 -->
<g id="edge34" class="edge">
<title>Node4&#45;&gt;Node24</title>
<path fill="none" stroke="#63b8ff" d="M1277.54,-231.93C1299.29,-221.22 1330.02,-206.1 1352.33,-195.12"/>
<polygon fill="#63b8ff" stroke="#63b8ff" points="1275.96,-228.81 1268.53,-236.37 1279.05,-235.09 1275.96,-228.81"/>
</g>
<!-- Node25 -->
<g id="node25" class="node">
<title>Node25</title>
<g id="a_node25"><a xlink:href="test__WXMXRoundtrip_8cpp.html" target="_top" xlink:title="Round&#45;trip tests for the .wxmx content.xml (the MathML&#45;like math format).">
<polygon fill="white" stroke="#666666" points="1579,-195 1457,-195 1457,-165 1579,-165 1579,-195"/>
<text text-anchor="start" x="1465" y="-183" font-family="Helvetica,sans-Serif" font-size="10.00">test/unit_tests/test</text>
<text text-anchor="middle" x="1518" y="-172" font-family="Helvetica,sans-Serif" font-size="10.00">_WXMXRoundtrip.cpp</text>
</a>
</g>
</g>
<!-- Node4&#45;&gt;Node25 -->
<g id="edge35" class="edge">
<title>Node4&#45;&gt;Node25</title>
<path fill="none" stroke="#63b8ff" d="M1295.47,-234.05C1299.7,-233.01 1303.93,-231.98 1308,-231 1358.82,-218.71 1416.61,-204.97 1458.68,-195"/>
<polygon fill="#63b8ff" stroke="#63b8ff" points="1294.54,-230.67 1285.65,-236.45 1296.2,-237.47 1294.54,-230.67"/>
</g>
<!-- Node26 -->
<g id="node26" class="node">
<title>Node26</title>
<g id="a_node26"><a xlink:href="test__WorksheetContextMenu_8cpp.html" target="_top" xlink:title="Regression tests for the worksheet&#39;s right&#45;click context menu.">
<polygon fill="white" stroke="#666666" points="1756.5,-195 1597.5,-195 1597.5,-165 1756.5,-165 1756.5,-195"/>
<text text-anchor="start" x="1605.5" y="-183" font-family="Helvetica,sans-Serif" font-size="10.00">test/unit_tests/test</text>
<text text-anchor="middle" x="1677" y="-172" font-family="Helvetica,sans-Serif" font-size="10.00">_WorksheetContextMenu.cpp</text>
</a>
</g>
</g>
<!-- Node4&#45;&gt;Node26 -->
<g id="edge36" class="edge">
<title>Node4&#45;&gt;Node26</title>
<path fill="none" stroke="#63b8ff" d="M1293.19,-234.07C1298.16,-232.95 1303.18,-231.9 1308,-231 1431.34,-208 1463.79,-212.75 1588,-195 1591.1,-194.56 1594.25,-194.1 1597.44,-193.63"/>
<polygon fill="#63b8ff" stroke="#63b8ff" points="1292.05,-230.75 1283.12,-236.44 1293.65,-237.56 1292.05,-230.75"/>
</g>
<!-- Node27 -->
<g id="node27" class="node">
<title>Node27</title>
<g id="a_node27"><a xlink:href="test__WorksheetCursor_8cpp.html" target="_top" xlink:title="Pins the worksheet&#39;s cursor model before it is gathered into a cursor class.">
<polygon fill="white" stroke="#666666" points="1899.5,-195 1774.5,-195 1774.5,-165 1899.5,-165 1899.5,-195"/>
<text text-anchor="start" x="1782.5" y="-183" font-family="Helvetica,sans-Serif" font-size="10.00">test/unit_tests/test</text>
<text text-anchor="middle" x="1837" y="-172" font-family="Helvetica,sans-Serif" font-size="10.00">_WorksheetCursor.cpp</text>
</a>
</g>
</g>
<!-- Node4&#45;&gt;Node27 -->
<g id="edge37" class="edge">
<title>Node4&#45;&gt;Node27</title>
<path fill="none" stroke="#63b8ff" d="M1292,-234.09C1297.35,-232.91 1302.79,-231.84 1308,-231 1509.59,-198.54 1563.72,-222.8 1766,-195 1768.74,-194.62 1771.53,-194.21 1774.35,-193.76"/>
<polygon fill="#63b8ff" stroke="#63b8ff" points="1290.82,-230.77 1281.87,-236.45 1292.41,-237.59 1290.82,-230.77"/>
</g>
<!-- Node28 -->
<g id="node28" class="node">
<title>Node28</title>
<g id="a_node28"><a xlink:href="test__WorksheetEvalQueue_8cpp.html" target="_top" xlink:title="Pins the worksheet&#39;s &quot;add cells to the evaluation queue&quot; behavior before the Add*ToEvaluationQueue fa...">
<polygon fill="white" stroke="#666666" points="2064,-195 1918,-195 1918,-165 2064,-165 2064,-195"/>
<text text-anchor="start" x="1926" y="-183" font-family="Helvetica,sans-Serif" font-size="10.00">test/unit_tests/test</text>
<text text-anchor="middle" x="1991" y="-172" font-family="Helvetica,sans-Serif" font-size="10.00">_WorksheetEvalQueue.cpp</text>
</a>
</g>
</g>
<!-- Node4&#45;&gt;Node28 -->
<g id="edge38" class="edge">
<title>Node4&#45;&gt;Node28</title>
<path fill="none" stroke="#63b8ff" d="M1291.18,-234.17C1296.8,-232.94 1302.52,-231.83 1308,-231 1572.57,-190.92 1643.16,-225.56 1909,-195 1911.87,-194.67 1914.79,-194.31 1917.74,-193.92"/>
<polygon fill="#63b8ff" stroke="#63b8ff" points="1290.21,-230.8 1281.27,-236.49 1291.8,-237.62 1290.21,-230.8"/>
</g>
<!-- Node29 -->
<g id="node29" class="node">
<title>Node29</title>
<g id="a_node29"><a xlink:href="test__WorksheetExport_8cpp.html" target="_top" xlink:title="Safety net for the export/serialization cluster of Worksheet.">
<polygon fill="white" stroke="#666666" points="2207.5,-195 2082.5,-195 2082.5,-165 2207.5,-165 2207.5,-195"/>
<text text-anchor="start" x="2090.5" y="-183" font-family="Helvetica,sans-Serif" font-size="10.00">test/unit_tests/test</text>
<text text-anchor="middle" x="2145" y="-172" font-family="Helvetica,sans-Serif" font-size="10.00">_WorksheetExport.cpp</text>
</a>
</g>
</g>
<!-- Node4&#45;&gt;Node29 -->
<g id="edge39" class="edge">
<title>Node4&#45;&gt;Node29</title>
<path fill="none" stroke="#63b8ff" d="M1290.98,-234.15C1296.66,-232.91 1302.45,-231.8 1308,-231 1644.86,-182.18 1735.05,-235.59 2073,-195 2076.03,-194.64 2079.13,-194.22 2082.26,-193.76"/>
<polygon fill="#63b8ff" stroke="#63b8ff" points="1289.9,-230.81 1280.96,-236.49 1291.49,-237.62 1289.9,-230.81"/>
</g>
<!-- Node30 -->
<g id="node30" class="node">
<title>Node30</title>
<g id="a_node30"><a xlink:href="test__WorksheetFind_8cpp.html" target="_top" xlink:title="Pins the worksheet&#39;s find/replace behavior before the search engine is extracted into WorksheetSearch...">
<polygon fill="white" stroke="#666666" points="2340,-195 2226,-195 2226,-165 2340,-165 2340,-195"/>
<text text-anchor="start" x="2234" y="-183" font-family="Helvetica,sans-Serif" font-size="10.00">test/unit_tests/test</text>
<text text-anchor="middle" x="2283" y="-172" font-family="Helvetica,sans-Serif" font-size="10.00">_WorksheetFind.cpp</text>
</a>
</g>
</g>
<!-- Node4&#45;&gt;Node30 -->
<g id="edge40" class="edge">
<title>Node4&#45;&gt;Node30</title>
<path fill="none" stroke="#63b8ff" d="M1290.97,-234.11C1296.65,-232.88 1302.45,-231.78 1308,-231 1708.35,-174.49 1815.8,-245.13 2217,-195 2219.91,-194.64 2222.87,-194.21 2225.86,-193.74"/>
<polygon fill="#63b8ff" stroke="#63b8ff" points="1289.9,-230.77 1280.95,-236.44 1291.49,-237.58 1289.9,-230.77"/>
</g>
<!-- Node7 -->
<g id="node7" class="node">
<title>Node7</title>
<g id="a_node7"><a xlink:href="main_8cpp.html" target="_top" xlink:title="The file that defines the starting point of the program.">
<polygon fill="white" stroke="#666666" points="995.5,-19 916.5,-19 916.5,0 995.5,0 995.5,-19"/>
<text text-anchor="middle" x="956" y="-7" font-family="Helvetica,sans-Serif" font-size="10.00">src/main.cpp</text>
</a>
</g>
</g>
<!-- Node6&#45;&gt;Node7 -->
<g id="edge7" class="edge">
<title>Node6&#45;&gt;Node7</title>
<path fill="none" stroke="#63b8ff" d="M973.18,-45.53C968.8,-36.6 963.71,-26.22 960.21,-19.09"/>
<polygon fill="#63b8ff" stroke="#63b8ff" points="970.16,-47.31 977.71,-54.75 976.44,-44.23 970.16,-47.31"/>
</g>
<!-- Node8 -->
<g id="node8" class="node">
<title>Node8</title>
<g id="a_node8"><a xlink:href="wxMaxima_8cpp.html" target="_top" xlink:title="This file defines the contents of the class wxMaxima that contains most of the program&#39;s logic.">
<polygon fill="white" stroke="#666666" points="873,-19 765,-19 765,0 873,0 873,-19"/>
<text text-anchor="middle" x="819" y="-7" font-family="Helvetica,sans-Serif" font-size="10.00">src/wxMaxima.cpp</text>
</a>
</g>
</g>
<!-- Node6&#45;&gt;Node8 -->
<g id="edge8" class="edge">
<title>Node6&#45;&gt;Node8</title>
<path fill="none" stroke="#63b8ff" d="M946.01,-51.8C915.59,-41.91 872.72,-27.97 845.39,-19.08"/>
<polygon fill="#63b8ff" stroke="#63b8ff" points="945.22,-55.22 955.81,-54.98 947.38,-48.56 945.22,-55.22"/>
</g>
<!-- Node9&#45;&gt;Node7 -->
<g id="edge10" class="edge">
<title>Node9&#45;&gt;Node7</title>
<path fill="none" stroke="#63b8ff" d="M1102.29,-52.18C1067.5,-42.27 1017.71,-28.08 986.12,-19.08"/>
<polygon fill="#63b8ff" stroke="#63b8ff" points="1101.54,-55.61 1112.12,-54.98 1103.46,-48.88 1101.54,-55.61"/>
</g>
<!-- Node9&#45;&gt;Node8 -->
<g id="edge11" class="edge">
<title>Node9&#45;&gt;Node8</title>
<path fill="none" stroke="#63b8ff" d="M1079.9,-53.31C1019.24,-43.36 927.98,-28.38 871.03,-19.04"/>
<polygon fill="#63b8ff" stroke="#63b8ff" points="1079.67,-56.82 1090.1,-54.98 1080.8,-49.91 1079.67,-56.82"/>
</g>
<!-- Node11&#45;&gt;Node2 -->
<g id="edge15" class="edge">
<title>Node11&#45;&gt;Node2</title>
<path fill="none" stroke="#63b8ff" d="M153.58,-166.29C134.88,-157.79 111.8,-145.19 95,-129 78.16,-112.77 66.06,-87.52 60.47,-74.28"/>
<polygon fill="#63b8ff" stroke="#63b8ff" points="152.35,-169.57 162.91,-170.36 155.15,-163.16 152.35,-169.57"/>
</g>
<!-- Node12 -->
<g id="node12" class="node">
<title>Node12</title>
<g id="a_node12"><a xlink:href="AutocompletePopup_8cpp.html" target="_top" xlink:title="This file defines the class AutocompletePopup.">
<polygon fill="white" stroke="#666666" points="596,-129 444,-129 444,-110 596,-110 596,-129"/>
<text text-anchor="middle" x="520" y="-117" font-family="Helvetica,sans-Serif" font-size="10.00">src/AutocompletePopup.cpp</text>
</a>
</g>
</g>
<!-- Node11&#45;&gt;Node12 -->
<g id="edge14" class="edge">
<title>Node11&#45;&gt;Node12</title>
<path fill="none" stroke="#63b8ff" d="M239.71,-168.57C246.21,-167.35 252.75,-166.13 259,-165 331.37,-151.89 415.23,-137.79 467.95,-129.05"/>
<polygon fill="#63b8ff" stroke="#63b8ff" points="238.77,-165.19 229.59,-170.49 240.07,-172.06 238.77,-165.19"/>
</g>
<!-- Node13 -->
<g id="node13" class="node">
<title>Node13</title>
<g id="a_node13"><a xlink:href="EditorCell_8cpp.html" target="_top" xlink:title="This file defines the class EditorCell.">
<polygon fill="white" stroke="#666666" points="886.5,-74 759.5,-74 759.5,-55 886.5,-55 886.5,-74"/>
<text text-anchor="middle" x="823" y="-62" font-family="Helvetica,sans-Serif" font-size="10.00">src/cells/EditorCell.cpp</text>
</a>
</g>
</g>
<!-- Node11&#45;&gt;Node13 -->
<g id="edge16" class="edge">
<title>Node11&#45;&gt;Node13</title>
<path fill="none" stroke="#63b8ff" d="M235.98,-168.61C243.66,-167.25 251.53,-165.98 259,-165 369.23,-150.5 656.62,-174.63 758,-129 784.76,-116.96 806.95,-88.89 817.08,-74.45"/>
<polygon fill="#63b8ff" stroke="#63b8ff" points="235.22,-165.19 226.02,-170.45 236.49,-172.07 235.22,-165.19"/>
</g>
<!-- Node14 -->
<g id="node14" class="node">
<title>Node14</title>
<g id="a_node14"><a xlink:href="main_8h.html" target="_top" xlink:title="This file declares the class wxMaxima that contains most of the program&#39;s logic.">
<polygon fill="white" stroke="#666666" points="665,-74 597,-74 597,-55 665,-55 665,-74"/>
<text text-anchor="middle" x="631" y="-62" font-family="Helvetica,sans-Serif" font-size="10.00">src/main.h</text>
</a>
</g>
</g>
<!-- Node11&#45;&gt;Node14 -->
<g id="edge17" class="edge">
<title>Node11&#45;&gt;Node14</title>
<path fill="none" stroke="#63b8ff" d="M237.08,-168.63C244.42,-167.3 251.89,-166.05 259,-165 335.48,-153.71 543.13,-175.35 605,-129 622.73,-115.72 628.42,-88.21 630.21,-74.17"/>
<polygon fill="#63b8ff" stroke="#63b8ff" points="236.4,-165.19 227.2,-170.46 237.67,-172.08 236.4,-165.19"/>
</g>
<!-- Node16 -->
<g id="node16" class="node">
<title>Node16</title>
<g id="a_node16"><a xlink:href="GreekSidebar_8cpp.html" target="_top" xlink:title="This file defines the class GreekSidebar.">
<polygon fill="white" stroke="#666666" points="268,-129 104,-129 104,-110 268,-110 268,-129"/>
<text text-anchor="middle" x="186" y="-117" font-family="Helvetica,sans-Serif" font-size="10.00">src/sidebars/GreekSidebar.cpp</text>
</a>
</g>
</g>
<!-- Node11&#45;&gt;Node16 -->
<g id="edge21" class="edge">
<title>Node11&#45;&gt;Node16</title>
<path fill="none" stroke="#63b8ff" d="M186,-160.16C186,-149.74 186,-137.3 186,-129.17"/>
<polygon fill="#63b8ff" stroke="#63b8ff" points="182.5,-160.37 186,-170.37 189.5,-160.37 182.5,-160.37"/>
</g>
<!-- Node17 -->
<g id="node17" class="node">
<title>Node17</title>
<g id="a_node17"><a xlink:href="wxMaxima_8h.html" target="_top" xlink:title="This file declares the class wxMaxima that contains most of the program&#39;s logic.">
<polygon fill="white" stroke="#666666" points="749.5,-129 652.5,-129 652.5,-110 749.5,-110 749.5,-129"/>
<text text-anchor="middle" x="701" y="-117" font-family="Helvetica,sans-Serif" font-size="10.00">src/wxMaxima.h</text>
</a>
</g>
</g>
<!-- Node11&#45;&gt;Node17 -->
<g id="edge22" class="edge">
<title>Node11&#45;&gt;Node17</title>
<path fill="none" stroke="#63b8ff" d="M236.8,-168.62C244.23,-167.29 251.8,-166.03 259,-165 426.5,-141.04 469.9,-148.32 638,-129 642.61,-128.47 647.39,-127.89 652.18,-127.28"/>
<polygon fill="#63b8ff" stroke="#63b8ff" points="236.01,-165.2 226.81,-170.47 237.28,-172.09 236.01,-165.2"/>
</g>
<!-- Node18 -->
<g id="node18" class="node">
<title>Node18</title>
<g id="a_node18"><a xlink:href="wxMaximaFrame_8cpp.html" target="_top" xlink:title="This file defines the class wxMaximaFrame.">
<polygon fill="white" stroke="#666666" points="425.5,-129 286.5,-129 286.5,-110 425.5,-110 425.5,-129"/>
<text text-anchor="middle" x="356" y="-117" font-family="Helvetica,sans-Serif" font-size="10.00">src/wxMaximaFrame.cpp</text>
</a>
</g>
</g>
<!-- Node11&#45;&gt;Node18 -->
<g id="edge28" class="edge">
<title>Node11&#45;&gt;Node18</title>
<path fill="none" stroke="#63b8ff" d="M220.37,-167.17C253.25,-155.86 302.03,-139.07 331.25,-129.02"/>
<polygon fill="#63b8ff" stroke="#63b8ff" points="219.04,-163.93 210.72,-170.49 221.31,-170.55 219.04,-163.93"/>
</g>
<!-- Node14&#45;&gt;Node7 -->
<g id="edge19" class="edge">
<title>Node14&#45;&gt;Node7</title>
<path fill="none" stroke="#63b8ff" d="M675.28,-56.28C738.92,-45.9 855.25,-26.93 916.26,-16.98"/>
<polygon fill="#63b8ff" stroke="#63b8ff" points="674.47,-52.86 665.17,-57.93 675.6,-59.77 674.47,-52.86"/>
</g>
<!-- Node14&#45;&gt;Node8 -->
<g id="edge20" class="edge">
<title>Node14&#45;&gt;Node8</title>
<path fill="none" stroke="#63b8ff" d="M671.14,-52.18C706.3,-42.27 756.63,-28.08 788.56,-19.08"/>
<polygon fill="#63b8ff" stroke="#63b8ff" points="669.88,-48.9 661.21,-54.98 671.78,-55.64 669.88,-48.9"/>
</g>
<!-- Node15 -->
<g id="node15" class="node">
<title>Node15</title>
<g id="a_node15"><a xlink:href="MaximaManual_8cpp.html" target="_top" xlink:title="This file defines the class MaximaManual.">
<polygon fill="white" stroke="#666666" points="696,-19 566,-19 566,0 696,0 696,-19"/>
<text text-anchor="middle" x="631" y="-7" font-family="Helvetica,sans-Serif" font-size="10.00">src/MaximaManual.cpp</text>
</a>
</g>
</g>
<!-- Node14&#45;&gt;Node15 -->
<g id="edge18" class="edge">
<title>Node14&#45;&gt;Node15</title>
<path fill="none" stroke="#63b8ff" d="M631,-44.66C631,-35.93 631,-25.99 631,-19.09"/>
<polygon fill="#63b8ff" stroke="#63b8ff" points="627.5,-44.75 631,-54.75 634.5,-44.75 627.5,-44.75"/>
</g>
<!-- Node17&#45;&gt;Node2 -->
<g id="edge23" class="edge">
<title>Node17&#45;&gt;Node2</title>
<path fill="none" stroke="#63b8ff" d="M642.05,-113.21C629.8,-112.13 616.98,-111.02 605,-110 423.58,-94.6 208.27,-77.44 110.3,-69.7"/>
<polygon fill="#63b8ff" stroke="#63b8ff" points="641.9,-116.71 652.17,-114.11 642.52,-109.74 641.9,-116.71"/>
</g>
<!-- Node17&#45;&gt;Node7 -->
<g id="edge25" class="edge">
<title>Node17&#45;&gt;Node7</title>
<path fill="none" stroke="#63b8ff" d="M709.97,-100.92C718.34,-86.33 732.21,-66.23 750,-55 777.23,-37.81 864.38,-23.22 916.2,-15.79"/>
<polygon fill="#63b8ff" stroke="#63b8ff" points="706.76,-99.5 705.07,-109.95 712.92,-102.83 706.76,-99.5"/>
</g>
<!-- Node17&#45;&gt;Node8 -->
<g id="edge27" class="edge">
<title>Node17&#45;&gt;Node8</title>
<path fill="none" stroke="#63b8ff" d="M701.48,-99.32C702.77,-85.55 706.55,-67.33 717,-55 732.62,-36.58 757.3,-25.54 778.47,-19.06"/>
<polygon fill="#63b8ff" stroke="#63b8ff" points="697.97,-99.42 700.88,-109.61 704.95,-99.82 697.97,-99.42"/>
</g>
<!-- Node17&#45;&gt;Node13 -->
<g id="edge24" class="edge">
<title>Node17&#45;&gt;Node13</title>
<path fill="none" stroke="#63b8ff" d="M730.01,-105.9C752.54,-96.11 783.2,-82.79 803.04,-74.17"/>
<polygon fill="#63b8ff" stroke="#63b8ff" points="728.38,-102.79 720.6,-109.98 731.17,-109.21 728.38,-102.79"/>
</g>
<!-- Node17&#45;&gt;Node14 -->
<g id="edge26" class="edge">
<title>Node17&#45;&gt;Node14</title>
<path fill="none" stroke="#63b8ff" d="M681.69,-103.88C669.09,-94.34 653.07,-82.21 642.45,-74.17"/>
<polygon fill="#63b8ff" stroke="#63b8ff" points="679.67,-106.74 689.75,-109.98 683.89,-101.16 679.67,-106.74"/>
</g>
</g>
</svg>
