<?xml version="1.0" encoding="UTF-8" standalone="no"?>
<!DOCTYPE svg PUBLIC "-//W3C//DTD SVG 1.1//EN"
 "http://www.w3.org/Graphics/SVG/1.1/DTD/svg11.dtd">
<!-- Generated by graphviz version 2.43.0 (0)
 -->
<!-- Title: src/wxMaximaIcon.cpp Pages: 1 -->
<svg width="2119pt" height="364pt"
 viewBox="0.00 0.00 2118.89 364.00" xmlns="http://www.w3.org/2000/svg" xmlns:xlink="http://www.w3.org/1999/xlink">
<g id="graph0" class="graph" transform="scale(1 1) rotate(0) translate(4 360)">
<title>src/wxMaximaIcon.cpp</title>
<polygon fill="white" stroke="transparent" points="-4,4 -4,-360 2114.89,-360 2114.89,4 -4,4"/>
<!-- Node1 -->
<g id="node1" class="node">
<title>Node1</title>
<g id="a_node1"><a xlink:title="This file defines the class Image that stores compressed images and handles scaling and uncompressing...">
<polygon fill="#bfbfbf" stroke="black" points="1039.39,-336.5 1039.39,-355.5 1167.39,-355.5 1167.39,-336.5 1039.39,-336.5"/>
<text text-anchor="middle" x="1103.39" y="-343.5" font-family="Helvetica,sans-Serif" font-size="10.00">src/wxMaximaIcon.cpp</text>
</a>
</g>
</g>
<!-- Node2 -->
<g id="node2" class="node">
<title>Node2</title>
<g id="a_node2"><a xlink:href="wxMaximaIcon_8h.html" target="_top" xlink:title="This file declares the function that returns the wxMaxima icon.">
<polygon fill="white" stroke="black" points="894.39,-280.5 894.39,-299.5 994.39,-299.5 994.39,-280.5 894.39,-280.5"/>
<text text-anchor="middle" x="944.39" y="-287.5" font-family="Helvetica,sans-Serif" font-size="10.00">wxMaximaIcon.h</text>
</a>
</g>
</g>
<!-- Node1&#45;&gt;Node2 -->
<g id="edge1" class="edge">
<title>Node1&#45;&gt;Node2</title>
<path fill="none" stroke="midnightblue" d="M1078.19,-336.44C1051.44,-327.36 1008.98,-312.94 979.08,-302.78"/>
<polygon fill="midnightblue" stroke="midnightblue" points="980.06,-299.42 969.46,-299.52 977.8,-306.05 980.06,-299.42"/>
</g>
<!-- Node55 -->
<g id="node48" class="node">
<title>Node55</title>
<g id="a_node48"><a xlink:href="icon_8h_source.html" target="_top" xlink:title=" ">
<polygon fill="white" stroke="black" points="1012.39,-280.5 1012.39,-299.5 1092.39,-299.5 1092.39,-280.5 1012.39,-280.5"/>
<text text-anchor="middle" x="1052.39" y="-287.5" font-family="Helvetica,sans-Serif" font-size="10.00">../data/icon.h</text>
</a>
</g>
</g>
<!-- Node1&#45;&gt;Node55 -->
<g id="edge71" class="edge">
<title>Node1&#45;&gt;Node55</title>
<path fill="none" stroke="midnightblue" d="M1094.96,-336.08C1087.54,-328.22 1076.53,-316.57 1067.57,-307.08"/>
<polygon fill="midnightblue" stroke="midnightblue" points="1070.06,-304.62 1060.65,-299.75 1064.97,-309.42 1070.06,-304.62"/>
</g>
<!-- Node56 -->
<g id="node49" class="node">
<title>Node56</title>
<g id="a_node49"><a xlink:title=" ">
<polygon fill="white" stroke="#bfbfbf" points="1110.89,-280.5 1110.89,-299.5 1197.89,-299.5 1197.89,-280.5 1110.89,-280.5"/>
<text text-anchor="middle" x="1154.39" y="-287.5" font-family="Helvetica,sans-Serif" font-size="10.00">wx/mstream.h</text>
</a>
</g>
</g>
<!-- Node1&#45;&gt;Node56 -->
<g id="edge72" class="edge">
<title>Node1&#45;&gt;Node56</title>
<path fill="none" stroke="midnightblue" d="M1111.81,-336.08C1119.23,-328.22 1130.24,-316.57 1139.2,-307.08"/>
<polygon fill="midnightblue" stroke="midnightblue" points="1141.8,-309.42 1146.12,-299.75 1136.71,-304.62 1141.8,-309.42"/>
</g>
<!-- Node57 -->
<g id="node50" class="node">
<title>Node57</title>
<g id="a_node50"><a xlink:title=" ">
<polygon fill="white" stroke="#bfbfbf" points="1215.89,-280.5 1215.89,-299.5 1304.89,-299.5 1304.89,-280.5 1215.89,-280.5"/>
<text text-anchor="middle" x="1260.39" y="-287.5" font-family="Helvetica,sans-Serif" font-size="10.00">wx/wfstream.h</text>
</a>
</g>
</g>
<!-- Node1&#45;&gt;Node57 -->
<g id="edge73" class="edge">
<title>Node1&#45;&gt;Node57</title>
<path fill="none" stroke="midnightblue" d="M1128.26,-336.44C1154.67,-327.36 1196.6,-312.94 1226.13,-302.78"/>
<polygon fill="midnightblue" stroke="midnightblue" points="1227.31,-306.08 1235.62,-299.52 1225.03,-299.46 1227.31,-306.08"/>
</g>
<!-- Node3 -->
<g id="node3" class="node">
<title>Node3</title>
<g id="a_node3"><a xlink:href="Cell_8h.html" target="_top" xlink:title="The definition of the base class of all cells the worksheet consists of.">
<polygon fill="white" stroke="black" points="807.39,-224.5 807.39,-243.5 851.39,-243.5 851.39,-224.5 807.39,-224.5"/>
<text text-anchor="middle" x="829.39" y="-231.5" font-family="Helvetica,sans-Serif" font-size="10.00">Cell.h</text>
</a>
</g>
</g>
<!-- Node2&#45;&gt;Node3 -->
<g id="edge2" class="edge">
<title>Node2&#45;&gt;Node3</title>
<path fill="none" stroke="midnightblue" d="M926.16,-280.44C907.49,-271.68 878.23,-257.94 856.77,-247.86"/>
<polygon fill="midnightblue" stroke="midnightblue" points="858.06,-244.6 847.52,-243.52 855.09,-250.93 858.06,-244.6"/>
</g>
<!-- Node52 -->
<g id="node45" class="node">
<title>Node52</title>
<g id="a_node45"><a xlink:title=" ">
<polygon fill="white" stroke="#bfbfbf" points="869.89,-224.5 869.89,-243.5 932.89,-243.5 932.89,-224.5 869.89,-224.5"/>
<text text-anchor="middle" x="901.39" y="-231.5" font-family="Helvetica,sans-Serif" font-size="10.00">wx/icon.h</text>
</a>
</g>
</g>
<!-- Node2&#45;&gt;Node52 -->
<g id="edge68" class="edge">
<title>Node2&#45;&gt;Node52</title>
<path fill="none" stroke="midnightblue" d="M937.28,-280.08C931.15,-272.38 922.12,-261.03 914.65,-251.65"/>
<polygon fill="midnightblue" stroke="midnightblue" points="917.32,-249.39 908.35,-243.75 911.85,-253.75 917.32,-249.39"/>
</g>
<!-- Node53 -->
<g id="node46" class="node">
<title>Node53</title>
<g id="a_node46"><a xlink:title=" ">
<polygon fill="white" stroke="#bfbfbf" points="951.39,-224.5 951.39,-243.5 1025.39,-243.5 1025.39,-224.5 951.39,-224.5"/>
<text text-anchor="middle" x="988.39" y="-231.5" font-family="Helvetica,sans-Serif" font-size="10.00">wx/image.h</text>
</a>
</g>
</g>
<!-- Node2&#45;&gt;Node53 -->
<g id="edge69" class="edge">
<title>Node2&#45;&gt;Node53</title>
<path fill="none" stroke="midnightblue" d="M951.65,-280.08C957.93,-272.38 967.17,-261.03 974.82,-251.65"/>
<polygon fill="midnightblue" stroke="midnightblue" points="977.65,-253.71 981.26,-243.75 972.22,-249.29 977.65,-253.71"/>
</g>
<!-- Node54 -->
<g id="node47" class="node">
<title>Node54</title>
<g id="a_node47"><a xlink:title=" ">
<polygon fill="white" stroke="#bfbfbf" points="1043.89,-224.5 1043.89,-243.5 1120.89,-243.5 1120.89,-224.5 1043.89,-224.5"/>
<text text-anchor="middle" x="1082.39" y="-231.5" font-family="Helvetica,sans-Serif" font-size="10.00">wx/bitmap.h</text>
</a>
</g>
</g>
<!-- Node2&#45;&gt;Node54 -->
<g id="edge70" class="edge">
<title>Node2&#45;&gt;Node54</title>
<path fill="none" stroke="midnightblue" d="M966.25,-280.44C989.16,-271.48 1025.36,-257.31 1051.25,-247.18"/>
<polygon fill="midnightblue" stroke="midnightblue" points="1052.58,-250.42 1060.62,-243.52 1050.03,-243.9 1052.58,-250.42"/>
</g>
<!-- Node4 -->
<g id="node4" class="node">
<title>Node4</title>
<g id="a_node4"><a xlink:href="precomp_8h_source.html" target="_top" xlink:title=" ">
<polygon fill="white" stroke="black" points="504.89,-56.5 504.89,-75.5 581.89,-75.5 581.89,-56.5 504.89,-56.5"/>
<text text-anchor="middle" x="543.39" y="-63.5" font-family="Helvetica,sans-Serif" font-size="10.00">../precomp.h</text>
</a>
</g>
</g>
<!-- Node3&#45;&gt;Node4 -->
<g id="edge3" class="edge">
<title>Node3&#45;&gt;Node4</title>
<path fill="none" stroke="midnightblue" d="M807.17,-232.1C680.76,-226.76 55.78,-197.14 4.39,-132 -1.12,-125.02 -1.63,-118.54 4.39,-112 20.89,-94.06 365.17,-75.62 494.69,-69.29"/>
<polygon fill="midnightblue" stroke="midnightblue" points="494.91,-72.79 504.73,-68.8 494.57,-65.79 494.91,-72.79"/>
</g>
<!-- Node6 -->
<g id="node6" class="node">
<title>Node6</title>
<g id="a_node6"><a xlink:href="CellPtr_8h.html" target="_top" xlink:title="Implementation of an observing weak Cell pointer.">
<polygon fill="white" stroke="black" points="247.89,-168.5 247.89,-187.5 304.89,-187.5 304.89,-168.5 247.89,-168.5"/>
<text text-anchor="middle" x="276.39" y="-175.5" font-family="Helvetica,sans-Serif" font-size="10.00">CellPtr.h</text>
</a>
</g>
</g>
<!-- Node3&#45;&gt;Node6 -->
<g id="edge5" class="edge">
<title>Node3&#45;&gt;Node6</title>
<path fill="none" stroke="midnightblue" d="M807.24,-231.72C736.78,-227.51 511.47,-212.89 326.39,-188 322.72,-187.51 318.91,-186.93 315.1,-186.32"/>
<polygon fill="midnightblue" stroke="midnightblue" points="315.58,-182.85 305.14,-184.63 314.41,-189.75 315.58,-182.85"/>
</g>
<!-- Node13 -->
<g id="node13" class="node">
<title>Node13</title>
<g id="a_node13"><a xlink:title=" ">
<polygon fill="white" stroke="#bfbfbf" points="521.39,-112.5 521.39,-131.5 579.39,-131.5 579.39,-112.5 521.39,-112.5"/>
<text text-anchor="middle" x="550.39" y="-119.5" font-family="Helvetica,sans-Serif" font-size="10.00">memory</text>
</a>
</g>
</g>
<!-- Node3&#45;&gt;Node13 -->
<g id="edge65" class="edge">
<title>Node3&#45;&gt;Node13</title>
<path fill="none" stroke="midnightblue" d="M814.3,-224.3C790.62,-210.9 743.02,-184.98 700.39,-168 663.62,-153.36 620.18,-140.82 589.53,-132.72"/>
<polygon fill="midnightblue" stroke="midnightblue" points="590.21,-129.29 579.66,-130.15 588.45,-136.06 590.21,-129.29"/>
</g>
<!-- Node14 -->
<g id="node14" class="node">
<title>Node14</title>
<g id="a_node14"><a xlink:title=" ">
<polygon fill="white" stroke="#bfbfbf" points="433.89,-112.5 433.89,-131.5 502.89,-131.5 502.89,-112.5 433.89,-112.5"/>
<text text-anchor="middle" x="468.39" y="-119.5" font-family="Helvetica,sans-Serif" font-size="10.00">type_traits</text>
</a>
</g>
</g>
<!-- Node3&#45;&gt;Node14 -->
<g id="edge67" class="edge">
<title>Node3&#45;&gt;Node14</title>
<path fill="none" stroke="midnightblue" d="M807.35,-226.28C747.55,-208.06 581.69,-157.53 506.42,-134.59"/>
<polygon fill="midnightblue" stroke="midnightblue" points="507,-131.11 496.42,-131.54 504.96,-137.8 507,-131.11"/>
</g>
<!-- Node15 -->
<g id="node15" class="node">
<title>Node15</title>
<g id="a_node15"><a xlink:href="CellIterators_8h.html" target="_top" xlink:title="Declares the various iterators useful with the Cell class.">
<polygon fill="white" stroke="black" points="493.39,-168.5 493.39,-187.5 579.39,-187.5 579.39,-168.5 493.39,-168.5"/>
<text text-anchor="middle" x="536.39" y="-175.5" font-family="Helvetica,sans-Serif" font-size="10.00">CellIterators.h</text>
</a>
</g>
</g>
<!-- Node3&#45;&gt;Node15 -->
<g id="edge14" class="edge">
<title>Node3&#45;&gt;Node15</title>
<path fill="none" stroke="midnightblue" d="M807.36,-228.94C761.51,-220.49 654.64,-200.8 589.66,-188.82"/>
<polygon fill="midnightblue" stroke="midnightblue" points="590.07,-185.34 579.6,-186.96 588.8,-192.22 590.07,-185.34"/>
</g>
<!-- Node16 -->
<g id="node16" class="node">
<title>Node16</title>
<g id="a_node16"><a xlink:href="Configuration_8h_source.html" target="_top" xlink:title=" ">
<polygon fill="white" stroke="black" points="1175.89,-168.5 1175.89,-187.5 1266.89,-187.5 1266.89,-168.5 1175.89,-168.5"/>
<text text-anchor="middle" x="1221.39" y="-175.5" font-family="Helvetica,sans-Serif" font-size="10.00">Configuration.h</text>
</a>
</g>
</g>
<!-- Node3&#45;&gt;Node16 -->
<g id="edge18" class="edge">
<title>Node3&#45;&gt;Node16</title>
<path fill="none" stroke="midnightblue" d="M851.63,-226.08C854.56,-225.31 857.53,-224.59 860.39,-224 967.25,-201.97 1094.28,-189.18 1165.59,-183.19"/>
<polygon fill="midnightblue" stroke="midnightblue" points="1166.02,-186.67 1175.7,-182.36 1165.45,-179.69 1166.02,-186.67"/>
</g>
<!-- Node24 -->
<g id="node23" class="node">
<title>Node24</title>
<g id="a_node23"><a xlink:href="TextStyle_8h.html" target="_top" xlink:title="This file declares everything needed for the text style system used to style all the elements on the ...">
<polygon fill="white" stroke="red" points="793.89,-112.5 793.89,-131.5 864.89,-131.5 864.89,-112.5 793.89,-112.5"/>
<text text-anchor="middle" x="829.39" y="-119.5" font-family="Helvetica,sans-Serif" font-size="10.00">TextStyle.h</text>
</a>
</g>
</g>
<!-- Node3&#45;&gt;Node24 -->
<g id="edge57" class="edge">
<title>Node3&#45;&gt;Node24</title>
<path fill="none" stroke="midnightblue" d="M829.39,-224.37C829.39,-206.62 829.39,-165.67 829.39,-141.6"/>
<polygon fill="midnightblue" stroke="midnightblue" points="832.89,-141.59 829.39,-131.59 825.89,-141.59 832.89,-141.59"/>
</g>
<!-- Node26 -->
<g id="node25" class="node">
<title>Node26</title>
<g id="a_node25"><a xlink:title=" ">
<polygon fill="white" stroke="#bfbfbf" points="1806.39,-56.5 1806.39,-75.5 1844.39,-75.5 1844.39,-56.5 1806.39,-56.5"/>
<text text-anchor="middle" x="1825.39" y="-63.5" font-family="Helvetica,sans-Serif" font-size="10.00">map</text>
</a>
</g>
</g>
<!-- Node3&#45;&gt;Node26 -->
<g id="edge64" class="edge">
<title>Node3&#45;&gt;Node26</title>
<path fill="none" stroke="midnightblue" d="M851.6,-225.93C854.53,-225.18 857.52,-224.51 860.39,-224 967.87,-205.05 1766.28,-213.94 1838.39,-132 1849.75,-119.08 1843.41,-99.09 1836.16,-84.68"/>
<polygon fill="midnightblue" stroke="midnightblue" points="1839.13,-82.8 1831.21,-75.76 1833.01,-86.2 1839.13,-82.8"/>
</g>
<!-- Node37 -->
<g id="node32" class="node">
<title>Node37</title>
<g id="a_node32"><a xlink:title=" ">
<polygon fill="white" stroke="#bfbfbf" points="1722.39,-0.5 1722.39,-19.5 1786.39,-19.5 1786.39,-0.5 1722.39,-0.5"/>
<text text-anchor="middle" x="1754.39" y="-7.5" font-family="Helvetica,sans-Serif" font-size="10.00">algorithm</text>
</a>
</g>
</g>
<!-- Node3&#45;&gt;Node37 -->
<g id="edge63" class="edge">
<title>Node3&#45;&gt;Node37</title>
<path fill="none" stroke="midnightblue" d="M851.59,-225.87C854.52,-225.13 857.51,-224.47 860.39,-224 1216.38,-165.29 1315.74,-248.74 1671.39,-188 1756.07,-173.54 1805.19,-200.99 1856.39,-132 1864.97,-120.44 1872.97,-84.7 1853.39,-56 1840.4,-36.97 1817.3,-25.86 1796.68,-19.44"/>
<polygon fill="midnightblue" stroke="midnightblue" points="1797.38,-16 1786.81,-16.65 1795.48,-22.74 1797.38,-16"/>
</g>
<!-- Node44 -->
<g id="node37" class="node">
<title>Node44</title>
<g id="a_node37"><a xlink:title=" ">
<polygon fill="white" stroke="#bfbfbf" points="1782.89,-112.5 1782.89,-131.5 1829.89,-131.5 1829.89,-112.5 1782.89,-112.5"/>
<text text-anchor="middle" x="1806.39" y="-119.5" font-family="Helvetica,sans-Serif" font-size="10.00">vector</text>
</a>
</g>
</g>
<!-- Node3&#45;&gt;Node44 -->
<g id="edge66" class="edge">
<title>Node3&#45;&gt;Node44</title>
<path fill="none" stroke="midnightblue" d="M851.61,-225.98C854.54,-225.22 857.52,-224.53 860.39,-224 1042.38,-190.03 1091.17,-206.45 1275.39,-188 1494.81,-166.02 1551.15,-169.92 1768.39,-132 1769.85,-131.74 1771.34,-131.47 1772.84,-131.17"/>
<polygon fill="midnightblue" stroke="midnightblue" points="1773.71,-134.57 1782.76,-129.06 1772.25,-127.72 1773.71,-134.57"/>
</g>
<!-- Node47 -->
<g id="node40" class="node">
<title>Node47</title>
<g id="a_node40"><a xlink:href="StringUtils_8h_source.html" target="_top" xlink:title=" ">
<polygon fill="white" stroke="black" points="1924.89,-168.5 1924.89,-187.5 2001.89,-187.5 2001.89,-168.5 1924.89,-168.5"/>
<text text-anchor="middle" x="1963.39" y="-175.5" font-family="Helvetica,sans-Serif" font-size="10.00">StringUtils.h</text>
</a>
</g>
</g>
<!-- Node3&#45;&gt;Node47 -->
<g id="edge54" class="edge">
<title>Node3&#45;&gt;Node47</title>
<path fill="none" stroke="midnightblue" d="M851.59,-225.84C854.52,-225.1 857.51,-224.46 860.39,-224 1321.48,-150.34 1445.84,-235.19 1910.39,-188 1911.69,-187.87 1913.01,-187.72 1914.35,-187.57"/>
<polygon fill="midnightblue" stroke="midnightblue" points="1915.23,-190.98 1924.68,-186.19 1914.3,-184.04 1915.23,-190.98"/>
</g>
<!-- Node50 -->
<g id="node43" class="node">
<title>Node50</title>
<g id="a_node43"><a xlink:href="CachedValue_8h.html" target="_top" xlink:title="Declares &quot;mostly read&#45;only&quot; wrappers around values that are expensive to compute and are thus cached.">
<polygon fill="white" stroke="red" points="335.89,-168.5 335.89,-187.5 448.89,-187.5 448.89,-168.5 335.89,-168.5"/>
<text text-anchor="middle" x="392.39" y="-175.5" font-family="Helvetica,sans-Serif" font-size="10.00">utils/CachedValue.h</text>
</a>
</g>
</g>
<!-- Node3&#45;&gt;Node50 -->
<g id="edge58" class="edge">
<title>Node3&#45;&gt;Node50</title>
<path fill="none" stroke="midnightblue" d="M807.11,-230.25C743.55,-222.39 559.44,-199.64 459.25,-187.26"/>
<polygon fill="midnightblue" stroke="midnightblue" points="459.58,-183.78 449.23,-186.02 458.72,-190.72 459.58,-183.78"/>
</g>
<!-- Node51 -->
<g id="node44" class="node">
<title>Node51</title>
<g id="a_node44"><a xlink:title=" ">
<polygon fill="white" stroke="#bfbfbf" points="2020.39,-168.5 2020.39,-187.5 2084.39,-187.5 2084.39,-168.5 2020.39,-168.5"/>
<text text-anchor="middle" x="2052.39" y="-175.5" font-family="Helvetica,sans-Serif" font-size="10.00">wx/defs.h</text>
</a>
</g>
</g>
<!-- Node3&#45;&gt;Node51 -->
<g id="edge62" class="edge">
<title>Node3&#45;&gt;Node51</title>
<path fill="none" stroke="midnightblue" d="M851.58,-225.83C854.52,-225.1 857.51,-224.46 860.39,-224 1362.57,-144.55 1501.66,-249.73 2010.08,-187.89"/>
<polygon fill="midnightblue" stroke="midnightblue" points="2010.76,-191.34 2020.25,-186.64 2009.9,-184.39 2010.76,-191.34"/>
</g>
<!-- Node5 -->
<g id="node5" class="node">
<title>Node5</title>
<g id="a_node5"><a xlink:href="Version_8h_source.html" target="_top" xlink:title=" ">
<polygon fill="white" stroke="black" points="508.39,-0.5 508.39,-19.5 570.39,-19.5 570.39,-0.5 508.39,-0.5"/>
<text text-anchor="middle" x="539.39" y="-7.5" font-family="Helvetica,sans-Serif" font-size="10.00">Version.h</text>
</a>
</g>
</g>
<!-- Node4&#45;&gt;Node5 -->
<g id="edge4" class="edge">
<title>Node4&#45;&gt;Node5</title>
<path fill="none" stroke="midnightblue" d="M542.72,-56.08C542.2,-49.01 541.45,-38.86 540.79,-29.99"/>
<polygon fill="midnightblue" stroke="midnightblue" points="544.26,-29.47 540.03,-19.75 537.28,-29.98 544.26,-29.47"/>
</g>
<!-- Node7 -->
<g id="node7" class="node">
<title>Node7</title>
<g id="a_node7"><a xlink:title=" ">
<polygon fill="white" stroke="#bfbfbf" points="342.89,-112.5 342.89,-131.5 415.89,-131.5 415.89,-112.5 342.89,-112.5"/>
<text text-anchor="middle" x="379.39" y="-119.5" font-family="Helvetica,sans-Serif" font-size="10.00">wx/debug.h</text>
</a>
</g>
</g>
<!-- Node6&#45;&gt;Node7 -->
<g id="edge6" class="edge">
<title>Node6&#45;&gt;Node7</title>
<path fill="none" stroke="midnightblue" d="M292.93,-168.32C309.38,-159.7 334.82,-146.36 353.85,-136.39"/>
<polygon fill="midnightblue" stroke="midnightblue" points="355.65,-139.4 362.88,-131.65 352.4,-133.2 355.65,-139.4"/>
</g>
<!-- Node8 -->
<g id="node8" class="node">
<title>Node8</title>
<g id="a_node8"><a xlink:title=" ">
<polygon fill="white" stroke="#bfbfbf" points="285.39,-56.5 285.39,-75.5 343.39,-75.5 343.39,-56.5 285.39,-56.5"/>
<text text-anchor="middle" x="314.39" y="-63.5" font-family="Helvetica,sans-Serif" font-size="10.00">wx/log.h</text>
</a>
</g>
</g>
<!-- Node6&#45;&gt;Node8 -->
<g id="edge7" class="edge">
<title>Node6&#45;&gt;Node8</title>
<path fill="none" stroke="midnightblue" d="M279.37,-168.37C285.53,-150.54 299.77,-109.3 308.07,-85.27"/>
<polygon fill="midnightblue" stroke="midnightblue" points="311.46,-86.19 311.42,-75.59 304.84,-83.9 311.46,-86.19"/>
</g>
<!-- Node9 -->
<g id="node9" class="node">
<title>Node9</title>
<g id="a_node9"><a xlink:title=" ">
<polygon fill="white" stroke="#bfbfbf" points="13.89,-112.5 13.89,-131.5 58.89,-131.5 58.89,-112.5 13.89,-112.5"/>
<text text-anchor="middle" x="36.39" y="-119.5" font-family="Helvetica,sans-Serif" font-size="10.00">utility</text>
</a>
</g>
</g>
<!-- Node6&#45;&gt;Node9 -->
<g id="edge8" class="edge">
<title>Node6&#45;&gt;Node9</title>
<path fill="none" stroke="midnightblue" d="M247.84,-171.52C209.28,-163.97 138.2,-149.55 68.8,-132.23"/>
<polygon fill="midnightblue" stroke="midnightblue" points="69.57,-128.82 59.02,-129.77 67.87,-135.61 69.57,-128.82"/>
</g>
<!-- Node10 -->
<g id="node10" class="node">
<title>Node10</title>
<g id="a_node10"><a xlink:title=" ">
<polygon fill="white" stroke="#bfbfbf" points="76.89,-112.5 76.89,-131.5 129.89,-131.5 129.89,-112.5 76.89,-112.5"/>
<text text-anchor="middle" x="103.39" y="-119.5" font-family="Helvetica,sans-Serif" font-size="10.00">cstddef</text>
</a>
</g>
</g>
<!-- Node6&#45;&gt;Node10 -->
<g id="edge9" class="edge">
<title>Node6&#45;&gt;Node10</title>
<path fill="none" stroke="midnightblue" d="M248.97,-168.44C219.44,-159.23 172.32,-144.52 139.72,-134.34"/>
<polygon fill="midnightblue" stroke="midnightblue" points="140.69,-130.98 130.1,-131.34 138.6,-137.66 140.69,-130.98"/>
</g>
<!-- Node11 -->
<g id="node11" class="node">
<title>Node11</title>
<g id="a_node11"><a xlink:title=" ">
<polygon fill="white" stroke="#bfbfbf" points="588.39,-0.5 588.39,-19.5 638.39,-19.5 638.39,-0.5 588.39,-0.5"/>
<text text-anchor="middle" x="613.39" y="-7.5" font-family="Helvetica,sans-Serif" font-size="10.00">cstdint</text>
</a>
</g>
</g>
<!-- Node6&#45;&gt;Node11 -->
<g id="edge10" class="edge">
<title>Node6&#45;&gt;Node11</title>
<path fill="none" stroke="midnightblue" d="M272.98,-168.34C264.99,-146.42 247.79,-88.2 276.39,-56 319.48,-7.48 496.6,-30.5 577.88,-19.74"/>
<polygon fill="midnightblue" stroke="midnightblue" points="578.91,-23.12 588.22,-18.08 577.8,-16.21 578.91,-23.12"/>
</g>
<!-- Node12 -->
<g id="node12" class="node">
<title>Node12</title>
<g id="a_node12"><a xlink:title=" ">
<polygon fill="white" stroke="#bfbfbf" points="148.39,-112.5 148.39,-131.5 210.39,-131.5 210.39,-112.5 148.39,-112.5"/>
<text text-anchor="middle" x="179.39" y="-119.5" font-family="Helvetica,sans-Serif" font-size="10.00">cinttypes</text>
</a>
</g>
</g>
<!-- Node6&#45;&gt;Node12 -->
<g id="edge11" class="edge">
<title>Node6&#45;&gt;Node12</title>
<path fill="none" stroke="midnightblue" d="M260.8,-168.32C245.39,-159.74 221.57,-146.49 203.68,-136.52"/>
<polygon fill="midnightblue" stroke="midnightblue" points="205.37,-133.46 194.93,-131.65 201.97,-139.58 205.37,-133.46"/>
</g>
<!-- Node6&#45;&gt;Node13 -->
<g id="edge12" class="edge">
<title>Node6&#45;&gt;Node13</title>
<path fill="none" stroke="midnightblue" d="M305.03,-171.87C347.63,-164.17 430.41,-148.91 511.19,-131.97"/>
<polygon fill="midnightblue" stroke="midnightblue" points="511.96,-135.39 521.02,-129.9 510.52,-128.54 511.96,-135.39"/>
</g>
<!-- Node6&#45;&gt;Node14 -->
<g id="edge13" class="edge">
<title>Node6&#45;&gt;Node14</title>
<path fill="none" stroke="midnightblue" d="M305.13,-168.92C337.74,-159.74 391.15,-144.72 427.95,-134.37"/>
<polygon fill="midnightblue" stroke="midnightblue" points="429.18,-137.66 437.86,-131.59 427.28,-130.92 429.18,-137.66"/>
</g>
<!-- Node15&#45;&gt;Node7 -->
<g id="edge15" class="edge">
<title>Node15&#45;&gt;Node7</title>
<path fill="none" stroke="midnightblue" d="M511.51,-168.44C485.1,-159.36 443.17,-144.94 413.64,-134.78"/>
<polygon fill="midnightblue" stroke="midnightblue" points="414.74,-131.46 404.15,-131.52 412.46,-138.08 414.74,-131.46"/>
</g>
<!-- Node15&#45;&gt;Node13 -->
<g id="edge16" class="edge">
<title>Node15&#45;&gt;Node13</title>
<path fill="none" stroke="midnightblue" d="M538.7,-168.08C540.55,-160.93 543.22,-150.64 545.54,-141.69"/>
<polygon fill="midnightblue" stroke="midnightblue" points="549,-142.31 548.12,-131.75 542.22,-140.55 549,-142.31"/>
</g>
<!-- Node15&#45;&gt;Node14 -->
<g id="edge17" class="edge">
<title>Node15&#45;&gt;Node14</title>
<path fill="none" stroke="midnightblue" d="M525.46,-168.32C515.21,-160.18 499.66,-147.84 487.38,-138.09"/>
<polygon fill="midnightblue" stroke="midnightblue" points="489.52,-135.31 479.51,-131.83 485.16,-140.79 489.52,-135.31"/>
</g>
<!-- Node16&#45;&gt;Node4 -->
<g id="edge19" class="edge">
<title>Node16&#45;&gt;Node4</title>
<path fill="none" stroke="midnightblue" d="M1175.65,-177.79C1094.92,-177.98 922.59,-172.98 784.39,-132 765.71,-126.46 763.71,-118.62 745.39,-112 694.61,-93.66 633.84,-81.35 592.31,-74.3"/>
<polygon fill="midnightblue" stroke="midnightblue" points="592.62,-70.81 582.18,-72.63 591.48,-77.71 592.62,-70.81"/>
</g>
<!-- Node16&#45;&gt;Node13 -->
<g id="edge45" class="edge">
<title>Node16&#45;&gt;Node13</title>
<path fill="none" stroke="midnightblue" d="M1175.82,-176.28C1072.88,-174.12 814.46,-165.65 589.75,-131.97"/>
<polygon fill="midnightblue" stroke="midnightblue" points="590.16,-128.49 579.75,-130.45 589.11,-135.41 590.16,-128.49"/>
</g>
<!-- Node17 -->
<g id="node17" class="node">
<title>Node17</title>
<g id="a_node17"><a xlink:title=" ">
<polygon fill="white" stroke="#bfbfbf" points="1668.89,-112.5 1668.89,-131.5 1725.89,-131.5 1725.89,-112.5 1668.89,-112.5"/>
<text text-anchor="middle" x="1697.39" y="-119.5" font-family="Helvetica,sans-Serif" font-size="10.00">wx/wx.h</text>
</a>
</g>
</g>
<!-- Node16&#45;&gt;Node17 -->
<g id="edge20" class="edge">
<title>Node16&#45;&gt;Node17</title>
<path fill="none" stroke="midnightblue" d="M1267.05,-174.27C1345.19,-169.18 1509.7,-156.6 1658.6,-131.9"/>
<polygon fill="midnightblue" stroke="midnightblue" points="1659.55,-135.29 1668.83,-130.18 1658.39,-128.39 1659.55,-135.29"/>
</g>
<!-- Node18 -->
<g id="node18" class="node">
<title>Node18</title>
<g id="a_node18"><a xlink:title=" ">
<polygon fill="white" stroke="#bfbfbf" points="1139.39,-56.5 1139.39,-75.5 1211.39,-75.5 1211.39,-56.5 1139.39,-56.5"/>
<text text-anchor="middle" x="1175.39" y="-63.5" font-family="Helvetica,sans-Serif" font-size="10.00">wx/config.h</text>
</a>
</g>
</g>
<!-- Node16&#45;&gt;Node18 -->
<g id="edge21" class="edge">
<title>Node16&#45;&gt;Node18</title>
<path fill="none" stroke="midnightblue" d="M1217.78,-168.37C1210.29,-150.46 1192.92,-108.92 1182.89,-84.95"/>
<polygon fill="midnightblue" stroke="midnightblue" points="1186.07,-83.47 1178.98,-75.59 1179.61,-86.17 1186.07,-83.47"/>
</g>
<!-- Node19 -->
<g id="node19" class="node">
<title>Node19</title>
<g id="a_node19"><a xlink:title=" ">
<polygon fill="white" stroke="#bfbfbf" points="882.89,-112.5 882.89,-131.5 959.89,-131.5 959.89,-112.5 882.89,-112.5"/>
<text text-anchor="middle" x="921.39" y="-119.5" font-family="Helvetica,sans-Serif" font-size="10.00">wx/display.h</text>
</a>
</g>
</g>
<!-- Node16&#45;&gt;Node19 -->
<g id="edge22" class="edge">
<title>Node16&#45;&gt;Node19</title>
<path fill="none" stroke="midnightblue" d="M1175.84,-168.99C1127.42,-160.45 1048.34,-146.41 969.94,-132.09"/>
<polygon fill="midnightblue" stroke="midnightblue" points="970.36,-128.61 959.89,-130.25 969.1,-135.49 970.36,-128.61"/>
</g>
<!-- Node20 -->
<g id="node20" class="node">
<title>Node20</title>
<g id="a_node20"><a xlink:title=" ">
<polygon fill="white" stroke="#bfbfbf" points="978.39,-112.5 978.39,-131.5 1068.39,-131.5 1068.39,-112.5 978.39,-112.5"/>
<text text-anchor="middle" x="1023.39" y="-119.5" font-family="Helvetica,sans-Serif" font-size="10.00">wx/fontenum.h</text>
</a>
</g>
</g>
<!-- Node16&#45;&gt;Node20 -->
<g id="edge23" class="edge">
<title>Node16&#45;&gt;Node20</title>
<path fill="none" stroke="midnightblue" d="M1190.01,-168.44C1156.12,-159.2 1101.98,-144.44 1064.66,-134.26"/>
<polygon fill="midnightblue" stroke="midnightblue" points="1065.18,-130.77 1054.61,-131.52 1063.34,-137.52 1065.18,-130.77"/>
</g>
<!-- Node21 -->
<g id="node21" class="node">
<title>Node21</title>
<g id="a_node21"><a xlink:title=" ">
<polygon fill="white" stroke="#bfbfbf" points="1086.39,-112.5 1086.39,-131.5 1174.39,-131.5 1174.39,-112.5 1086.39,-112.5"/>
<text text-anchor="middle" x="1130.39" y="-119.5" font-family="Helvetica,sans-Serif" font-size="10.00">wx/hashmap.h</text>
</a>
</g>
</g>
<!-- Node16&#45;&gt;Node21 -->
<g id="edge24" class="edge">
<title>Node16&#45;&gt;Node21</title>
<path fill="none" stroke="midnightblue" d="M1206.76,-168.32C1192.44,-159.82 1170.37,-146.73 1153.64,-136.8"/>
<polygon fill="midnightblue" stroke="midnightblue" points="1155.36,-133.75 1144.97,-131.65 1151.78,-139.77 1155.36,-133.75"/>
</g>
<!-- Node22 -->
<g id="node22" class="node">
<title>Node22</title>
<g id="a_node22"><a xlink:href="LoggingMessageDialog_8h.html" target="_top" xlink:title="This file declares a message dialog that sends its contents to the log message sink.">
<polygon fill="white" stroke="red" points="597.89,-112.5 597.89,-131.5 736.89,-131.5 736.89,-112.5 597.89,-112.5"/>
<text text-anchor="middle" x="667.39" y="-119.5" font-family="Helvetica,sans-Serif" font-size="10.00">LoggingMessageDialog.h</text>
</a>
</g>
</g>
<!-- Node16&#45;&gt;Node22 -->
<g id="edge25" class="edge">
<title>Node16&#45;&gt;Node22</title>
<path fill="none" stroke="midnightblue" d="M1175.67,-172.8C1091.63,-165.03 906.95,-147.78 751.39,-132 750.07,-131.87 748.75,-131.73 747.41,-131.6"/>
<polygon fill="midnightblue" stroke="midnightblue" points="747.36,-128.07 737.05,-130.53 746.64,-135.03 747.36,-128.07"/>
</g>
<!-- Node16&#45;&gt;Node24 -->
<g id="edge28" class="edge">
<title>Node16&#45;&gt;Node24</title>
<path fill="none" stroke="midnightblue" d="M1175.63,-172.16C1110.83,-165.08 988.43,-150.82 874.8,-132.14"/>
<polygon fill="midnightblue" stroke="midnightblue" points="875.32,-128.68 864.89,-130.49 874.18,-135.58 875.32,-128.68"/>
</g>
<!-- Node16&#45;&gt;Node37 -->
<g id="edge51" class="edge">
<title>Node16&#45;&gt;Node37</title>
<path fill="none" stroke="midnightblue" d="M1267.13,-168.58C1268.57,-168.37 1269.99,-168.18 1271.39,-168 1322.56,-161.42 1696.36,-166.88 1734.39,-132 1762.67,-106.06 1761.04,-56.66 1757.6,-29.7"/>
<polygon fill="midnightblue" stroke="midnightblue" points="1761.04,-29.02 1756.09,-19.65 1754.11,-30.06 1761.04,-29.02"/>
</g>
<!-- Node41 -->
<g id="node33" class="node">
<title>Node41</title>
<g id="a_node33"><a xlink:title=" ">
<polygon fill="white" stroke="#bfbfbf" points="1229.89,-56.5 1229.89,-75.5 1322.89,-75.5 1322.89,-56.5 1229.89,-56.5"/>
<text text-anchor="middle" x="1276.39" y="-63.5" font-family="Helvetica,sans-Serif" font-size="10.00">unordered_map</text>
</a>
</g>
</g>
<!-- Node16&#45;&gt;Node41 -->
<g id="edge47" class="edge">
<title>Node16&#45;&gt;Node41</title>
<path fill="none" stroke="midnightblue" d="M1225.7,-168.37C1234.7,-150.38 1255.61,-108.55 1267.57,-84.63"/>
<polygon fill="midnightblue" stroke="midnightblue" points="1270.75,-86.1 1272.09,-75.59 1264.49,-82.97 1270.75,-86.1"/>
</g>
<!-- Node42 -->
<g id="node34" class="node">
<title>Node42</title>
<g id="a_node34"><a xlink:title=" ">
<polygon fill="white" stroke="#bfbfbf" points="1268.39,-112.5 1268.39,-131.5 1316.39,-131.5 1316.39,-112.5 1268.39,-112.5"/>
<text text-anchor="middle" x="1292.39" y="-119.5" font-family="Helvetica,sans-Serif" font-size="10.00">mutex</text>
</a>
</g>
</g>
<!-- Node16&#45;&gt;Node42 -->
<g id="edge46" class="edge">
<title>Node16&#45;&gt;Node42</title>
<path fill="none" stroke="midnightblue" d="M1232.79,-168.32C1243.49,-160.18 1259.73,-147.84 1272.55,-138.09"/>
<polygon fill="midnightblue" stroke="midnightblue" points="1274.93,-140.67 1280.77,-131.83 1270.69,-135.1 1274.93,-140.67"/>
</g>
<!-- Node43 -->
<g id="node35" class="node">
<title>Node43</title>
<g id="a_node35"><a xlink:title=" ">
<polygon fill="white" stroke="#bfbfbf" points="1334.39,-112.5 1334.39,-131.5 1388.39,-131.5 1388.39,-112.5 1334.39,-112.5"/>
<text text-anchor="middle" x="1361.39" y="-119.5" font-family="Helvetica,sans-Serif" font-size="10.00">random</text>
</a>
</g>
</g>
<!-- Node16&#45;&gt;Node43 -->
<g id="edge48" class="edge">
<title>Node16&#45;&gt;Node43</title>
<path fill="none" stroke="midnightblue" d="M1243.57,-168.44C1266.81,-159.48 1303.53,-145.31 1329.8,-135.18"/>
<polygon fill="midnightblue" stroke="midnightblue" points="1331.24,-138.38 1339.31,-131.52 1328.72,-131.85 1331.24,-138.38"/>
</g>
<!-- Node40 -->
<g id="node36" class="node">
<title>Node40</title>
<g id="a_node36"><a xlink:title=" ">
<polygon fill="white" stroke="#bfbfbf" points="1406.39,-112.5 1406.39,-131.5 1438.39,-131.5 1438.39,-112.5 1406.39,-112.5"/>
<text text-anchor="middle" x="1422.39" y="-119.5" font-family="Helvetica,sans-Serif" font-size="10.00">list</text>
</a>
</g>
</g>
<!-- Node16&#45;&gt;Node40 -->
<g id="edge49" class="edge">
<title>Node16&#45;&gt;Node40</title>
<path fill="none" stroke="midnightblue" d="M1259.1,-168.46C1292.83,-160.57 1343.79,-148.06 1396.47,-132.06"/>
<polygon fill="midnightblue" stroke="midnightblue" points="1397.79,-135.32 1406.32,-129.04 1395.74,-128.63 1397.79,-135.32"/>
</g>
<!-- Node16&#45;&gt;Node44 -->
<g id="edge50" class="edge">
<title>Node16&#45;&gt;Node44</title>
<path fill="none" stroke="midnightblue" d="M1267.05,-175.56C1361.28,-172.09 1583.93,-161.26 1768.39,-132 1769.85,-131.77 1771.34,-131.51 1772.85,-131.23"/>
<polygon fill="midnightblue" stroke="midnightblue" points="1773.7,-134.63 1782.78,-129.17 1772.28,-127.77 1773.7,-134.63"/>
</g>
<!-- Node45 -->
<g id="node38" class="node">
<title>Node45</title>
<g id="a_node38"><a xlink:title=" ">
<polygon fill="white" stroke="#bfbfbf" points="1456.89,-112.5 1456.89,-131.5 1545.89,-131.5 1545.89,-112.5 1456.89,-112.5"/>
<text text-anchor="middle" x="1501.39" y="-119.5" font-family="Helvetica,sans-Serif" font-size="10.00">wx/wupdlock.h</text>
</a>
</g>
</g>
<!-- Node16&#45;&gt;Node45 -->
<g id="edge52" class="edge">
<title>Node16&#45;&gt;Node45</title>
<path fill="none" stroke="midnightblue" d="M1265.75,-168.44C1315.01,-158.94 1394.51,-143.61 1447.36,-133.42"/>
<polygon fill="midnightblue" stroke="midnightblue" points="1448.07,-136.85 1457.23,-131.52 1446.74,-129.97 1448.07,-136.85"/>
</g>
<!-- Node46 -->
<g id="node39" class="node">
<title>Node46</title>
<g id="a_node39"><a xlink:title=" ">
<polygon fill="white" stroke="#bfbfbf" points="1564.39,-112.5 1564.39,-131.5 1650.39,-131.5 1650.39,-112.5 1564.39,-112.5"/>
<text text-anchor="middle" x="1607.39" y="-119.5" font-family="Helvetica,sans-Serif" font-size="10.00">wx/webview.h</text>
</a>
</g>
</g>
<!-- Node16&#45;&gt;Node46 -->
<g id="edge53" class="edge">
<title>Node16&#45;&gt;Node46</title>
<path fill="none" stroke="midnightblue" d="M1266.97,-171.34C1331.18,-163.25 1451.87,-147.63 1554.39,-132 1554.49,-131.98 1554.59,-131.97 1554.69,-131.95"/>
<polygon fill="midnightblue" stroke="midnightblue" points="1554.97,-135.45 1564.31,-130.44 1553.88,-128.54 1554.97,-135.45"/>
</g>
<!-- Node22&#45;&gt;Node4 -->
<g id="edge26" class="edge">
<title>Node22&#45;&gt;Node4</title>
<path fill="none" stroke="midnightblue" d="M647.74,-112.44C627.42,-103.6 595.48,-89.69 572.29,-79.59"/>
<polygon fill="midnightblue" stroke="midnightblue" points="573.51,-76.3 562.94,-75.52 570.71,-82.72 573.51,-76.3"/>
</g>
<!-- Node22&#45;&gt;Node8 -->
<g id="edge27" class="edge">
<title>Node22&#45;&gt;Node8</title>
<path fill="none" stroke="midnightblue" d="M611.45,-112.44C539.45,-101.43 416.16,-82.57 353.47,-72.98"/>
<polygon fill="midnightblue" stroke="midnightblue" points="354,-69.52 343.58,-71.47 352.94,-76.44 354,-69.52"/>
</g>
<!-- Node24&#45;&gt;Node4 -->
<g id="edge29" class="edge">
<title>Node24&#45;&gt;Node4</title>
<path fill="none" stroke="midnightblue" d="M793.74,-114.27C742.89,-104.67 649.35,-87.01 592.12,-76.2"/>
<polygon fill="midnightblue" stroke="midnightblue" points="592.7,-72.75 582.23,-74.33 591.4,-79.63 592.7,-72.75"/>
</g>
<!-- Node24&#45;&gt;Node11 -->
<g id="edge37" class="edge">
<title>Node24&#45;&gt;Node11</title>
<path fill="none" stroke="midnightblue" d="M793.83,-114.55C750.68,-106.23 681.02,-91.02 659.39,-76 642.22,-64.09 629.29,-43.59 621.58,-28.79"/>
<polygon fill="midnightblue" stroke="midnightblue" points="624.63,-27.07 617.08,-19.63 618.35,-30.15 624.63,-27.07"/>
</g>
<!-- Node24&#45;&gt;Node18 -->
<g id="edge34" class="edge">
<title>Node24&#45;&gt;Node18</title>
<path fill="none" stroke="midnightblue" d="M864.89,-113.55C867.76,-113 870.62,-112.48 873.39,-112 984.86,-92.66 1013.69,-94.02 1125.39,-76 1126.66,-75.79 1127.95,-75.58 1129.25,-75.37"/>
<polygon fill="midnightblue" stroke="midnightblue" points="1130.09,-78.77 1139.36,-73.64 1128.92,-71.87 1130.09,-78.77"/>
</g>
<!-- Node25 -->
<g id="node24" class="node">
<title>Node25</title>
<g id="a_node24"><a xlink:title=" ">
<polygon fill="white" stroke="#bfbfbf" points="676.39,-56.5 676.39,-75.5 748.39,-75.5 748.39,-56.5 676.39,-56.5"/>
<text text-anchor="middle" x="712.39" y="-63.5" font-family="Helvetica,sans-Serif" font-size="10.00">wx/colour.h</text>
</a>
</g>
</g>
<!-- Node24&#45;&gt;Node25 -->
<g id="edge30" class="edge">
<title>Node24&#45;&gt;Node25</title>
<path fill="none" stroke="midnightblue" d="M810.85,-112.44C791.76,-103.64 761.81,-89.81 739.95,-79.72"/>
<polygon fill="midnightblue" stroke="midnightblue" points="741.38,-76.53 730.84,-75.52 738.45,-82.88 741.38,-76.53"/>
</g>
<!-- Node24&#45;&gt;Node26 -->
<g id="edge31" class="edge">
<title>Node24&#45;&gt;Node26</title>
<path fill="none" stroke="midnightblue" d="M865.33,-113.18C868.05,-112.73 870.76,-112.33 873.39,-112 1058.41,-88.84 1655.61,-71.58 1795.76,-67.78"/>
<polygon fill="midnightblue" stroke="midnightblue" points="1796.22,-71.27 1806.12,-67.5 1796.03,-64.27 1796.22,-71.27"/>
</g>
<!-- Node27 -->
<g id="node26" class="node">
<title>Node27</title>
<g id="a_node26"><a xlink:title=" ">
<polygon fill="white" stroke="#bfbfbf" points="766.39,-56.5 766.39,-75.5 810.39,-75.5 810.39,-56.5 766.39,-56.5"/>
<text text-anchor="middle" x="788.39" y="-63.5" font-family="Helvetica,sans-Serif" font-size="10.00">string</text>
</a>
</g>
</g>
<!-- Node24&#45;&gt;Node27 -->
<g id="edge32" class="edge">
<title>Node24&#45;&gt;Node27</title>
<path fill="none" stroke="midnightblue" d="M822.62,-112.08C816.82,-104.46 808.33,-93.26 801.25,-83.94"/>
<polygon fill="midnightblue" stroke="midnightblue" points="803.86,-81.6 795.03,-75.75 798.29,-85.83 803.86,-81.6"/>
</g>
<!-- Node28 -->
<g id="node27" class="node">
<title>Node28</title>
<g id="a_node27"><a xlink:title=" ">
<polygon fill="white" stroke="#bfbfbf" points="828.89,-56.5 828.89,-75.5 885.89,-75.5 885.89,-56.5 828.89,-56.5"/>
<text text-anchor="middle" x="857.39" y="-63.5" font-family="Helvetica,sans-Serif" font-size="10.00">ostream</text>
</a>
</g>
</g>
<!-- Node24&#45;&gt;Node28 -->
<g id="edge33" class="edge">
<title>Node24&#45;&gt;Node28</title>
<path fill="none" stroke="midnightblue" d="M834.01,-112.08C837.84,-104.69 843.41,-93.95 848.15,-84.81"/>
<polygon fill="midnightblue" stroke="midnightblue" points="851.35,-86.24 852.85,-75.75 845.14,-83.02 851.35,-86.24"/>
</g>
<!-- Node29 -->
<g id="node28" class="node">
<title>Node29</title>
<g id="a_node28"><a xlink:title=" ">
<polygon fill="white" stroke="#bfbfbf" points="826.39,-0.5 826.39,-19.5 888.39,-19.5 888.39,-0.5 826.39,-0.5"/>
<text text-anchor="middle" x="857.39" y="-7.5" font-family="Helvetica,sans-Serif" font-size="10.00">wx/font.h</text>
</a>
</g>
</g>
<!-- Node24&#45;&gt;Node29 -->
<g id="edge35" class="edge">
<title>Node24&#45;&gt;Node29</title>
<path fill="none" stroke="midnightblue" d="M793.7,-113.47C748.4,-103.56 675.14,-86.2 667.39,-76 662.01,-68.92 661.87,-62.97 667.39,-56 685.54,-33.04 765.68,-20.58 815.91,-14.9"/>
<polygon fill="midnightblue" stroke="midnightblue" points="816.57,-18.35 826.14,-13.79 815.82,-11.39 816.57,-18.35"/>
</g>
<!-- Node30 -->
<g id="node29" class="node">
<title>Node30</title>
<g id="a_node29"><a xlink:title=" ">
<polygon fill="white" stroke="#bfbfbf" points="1001.39,-56.5 1001.39,-75.5 1083.39,-75.5 1083.39,-56.5 1001.39,-56.5"/>
<text text-anchor="middle" x="1042.39" y="-63.5" font-family="Helvetica,sans-Serif" font-size="10.00">wx/settings.h</text>
</a>
</g>
</g>
<!-- Node24&#45;&gt;Node30 -->
<g id="edge36" class="edge">
<title>Node24&#45;&gt;Node30</title>
<path fill="none" stroke="midnightblue" d="M863.14,-112.44C899.9,-103.12 958.83,-88.18 999.01,-78"/>
<polygon fill="midnightblue" stroke="midnightblue" points="999.96,-81.37 1008.79,-75.52 998.24,-74.58 999.96,-81.37"/>
</g>
<!-- Node31 -->
<g id="node30" class="node">
<title>Node31</title>
<g id="a_node30"><a xlink:title=" ">
<polygon fill="white" stroke="#bfbfbf" points="994.89,-0.5 994.89,-19.5 1059.89,-19.5 1059.89,-0.5 994.89,-0.5"/>
<text text-anchor="middle" x="1027.39" y="-7.5" font-family="Helvetica,sans-Serif" font-size="10.00">functional</text>
</a>
</g>
</g>
<!-- Node24&#45;&gt;Node31 -->
<g id="edge38" class="edge">
<title>Node24&#45;&gt;Node31</title>
<path fill="none" stroke="midnightblue" d="M864.9,-113.61C867.77,-113.05 870.63,-112.51 873.39,-112 921.89,-103.06 1060.46,-113.6 1092.39,-76 1108.6,-56.91 1080.5,-36.79 1056.33,-24.09"/>
<polygon fill="midnightblue" stroke="midnightblue" points="1057.87,-20.94 1047.36,-19.6 1054.73,-27.2 1057.87,-20.94"/>
</g>
<!-- Node32 -->
<g id="node31" class="node">
<title>Node32</title>
<g id="a_node31"><a xlink:href="FontAttribs_8h_source.html" target="_top" xlink:title=" ">
<polygon fill="white" stroke="red" points="903.89,-56.5 903.89,-75.5 982.89,-75.5 982.89,-56.5 903.89,-56.5"/>
<text text-anchor="middle" x="943.39" y="-63.5" font-family="Helvetica,sans-Serif" font-size="10.00">FontAttribs.h</text>
</a>
</g>
</g>
<!-- Node24&#45;&gt;Node32 -->
<g id="edge39" class="edge">
<title>Node24&#45;&gt;Node32</title>
<path fill="none" stroke="midnightblue" d="M847.45,-112.44C865.96,-103.68 894.97,-89.94 916.24,-79.86"/>
<polygon fill="midnightblue" stroke="midnightblue" points="917.87,-82.96 925.41,-75.52 914.87,-76.63 917.87,-82.96"/>
</g>
<!-- Node24&#45;&gt;Node41 -->
<g id="edge44" class="edge">
<title>Node24&#45;&gt;Node41</title>
<path fill="none" stroke="midnightblue" d="M865.35,-113.34C868.06,-112.86 870.77,-112.4 873.39,-112 1023.34,-88.94 1064.9,-95.99 1219.33,-76.06"/>
<polygon fill="midnightblue" stroke="midnightblue" points="1220.2,-79.48 1229.66,-74.71 1219.29,-72.54 1220.2,-79.48"/>
</g>
<!-- Node32&#45;&gt;Node11 -->
<g id="edge42" class="edge">
<title>Node32&#45;&gt;Node11</title>
<path fill="none" stroke="midnightblue" d="M903.82,-57.65C900.63,-57.08 897.45,-56.53 894.39,-56 806.05,-40.82 701.81,-24.56 648.56,-16.37"/>
<polygon fill="midnightblue" stroke="midnightblue" points="649.02,-12.9 638.61,-14.84 647.96,-19.82 649.02,-12.9"/>
</g>
<!-- Node32&#45;&gt;Node29 -->
<g id="edge40" class="edge">
<title>Node32&#45;&gt;Node29</title>
<path fill="none" stroke="midnightblue" d="M929.57,-56.32C916.15,-47.9 895.56,-34.97 879.8,-25.07"/>
<polygon fill="midnightblue" stroke="midnightblue" points="881.5,-22.01 871.17,-19.65 877.78,-27.94 881.5,-22.01"/>
</g>
<!-- Node32&#45;&gt;Node31 -->
<g id="edge43" class="edge">
<title>Node32&#45;&gt;Node31</title>
<path fill="none" stroke="midnightblue" d="M956.88,-56.32C969.99,-47.9 990.1,-34.97 1005.49,-25.07"/>
<polygon fill="midnightblue" stroke="midnightblue" points="1007.4,-28.01 1013.92,-19.65 1003.62,-22.12 1007.4,-28.01"/>
</g>
<!-- Node32&#45;&gt;Node37 -->
<g id="edge41" class="edge">
<title>Node32&#45;&gt;Node37</title>
<path fill="none" stroke="midnightblue" d="M982.9,-57.31C986.1,-56.82 989.29,-56.37 992.39,-56 1265.41,-22.99 1596.52,-13.93 1712.13,-11.68"/>
<polygon fill="midnightblue" stroke="midnightblue" points="1712.39,-15.17 1722.32,-11.49 1712.26,-8.18 1712.39,-15.17"/>
</g>
<!-- Node48 -->
<g id="node41" class="node">
<title>Node48</title>
<g id="a_node41"><a xlink:title=" ">
<polygon fill="white" stroke="#bfbfbf" points="1926.89,-112.5 1926.89,-131.5 1997.89,-131.5 1997.89,-112.5 1926.89,-112.5"/>
<text text-anchor="middle" x="1962.39" y="-119.5" font-family="Helvetica,sans-Serif" font-size="10.00">wx/string.h</text>
</a>
</g>
</g>
<!-- Node47&#45;&gt;Node48 -->
<g id="edge55" class="edge">
<title>Node47&#45;&gt;Node48</title>
<path fill="none" stroke="midnightblue" d="M1963.22,-168.08C1963.09,-161.01 1962.9,-150.86 1962.74,-141.99"/>
<polygon fill="midnightblue" stroke="midnightblue" points="1966.23,-141.68 1962.55,-131.75 1959.23,-141.81 1966.23,-141.68"/>
</g>
<!-- Node49 -->
<g id="node42" class="node">
<title>Node49</title>
<g id="a_node42"><a xlink:title=" ">
<polygon fill="white" stroke="#bfbfbf" points="2015.89,-112.5 2015.89,-131.5 2110.89,-131.5 2110.89,-112.5 2015.89,-112.5"/>
<text text-anchor="middle" x="2063.39" y="-119.5" font-family="Helvetica,sans-Serif" font-size="10.00">wx/translation.h</text>
</a>
</g>
</g>
<!-- Node47&#45;&gt;Node49 -->
<g id="edge56" class="edge">
<title>Node47&#45;&gt;Node49</title>
<path fill="none" stroke="midnightblue" d="M1979.45,-168.32C1995.34,-159.74 2019.89,-146.49 2038.34,-136.52"/>
<polygon fill="midnightblue" stroke="midnightblue" points="2040.22,-139.49 2047.36,-131.65 2036.9,-133.33 2040.22,-139.49"/>
</g>
<!-- Node50&#45;&gt;Node7 -->
<g id="edge59" class="edge">
<title>Node50&#45;&gt;Node7</title>
<path fill="none" stroke="midnightblue" d="M390.24,-168.08C388.52,-160.93 386.04,-150.64 383.89,-141.69"/>
<polygon fill="midnightblue" stroke="midnightblue" points="387.24,-140.65 381.49,-131.75 380.43,-142.29 387.24,-140.65"/>
</g>
<!-- Node50&#45;&gt;Node8 -->
<g id="edge60" class="edge">
<title>Node50&#45;&gt;Node8</title>
<path fill="none" stroke="midnightblue" d="M376.04,-168.44C362.7,-160.64 344.33,-147.93 333.39,-132 323.92,-118.22 319.11,-99.7 316.7,-85.95"/>
<polygon fill="midnightblue" stroke="midnightblue" points="320.12,-85.11 315.19,-75.73 313.19,-86.14 320.12,-85.11"/>
</g>
<!-- Node50&#45;&gt;Node14 -->
<g id="edge61" class="edge">
<title>Node50&#45;&gt;Node14</title>
<path fill="none" stroke="midnightblue" d="M404.6,-168.32C416.16,-160.11 433.76,-147.6 447.55,-137.81"/>
<polygon fill="midnightblue" stroke="midnightblue" points="449.83,-140.48 455.95,-131.83 445.77,-134.77 449.83,-140.48"/>
</g>
</g>
</svg>
