<?xml version="1.0" encoding="UTF-8" standalone="no"?>
<!DOCTYPE svg PUBLIC "-//W3C//DTD SVG 1.1//EN"
 "http://www.w3.org/Graphics/SVG/1.1/DTD/svg11.dtd">
<!-- Generated by graphviz version 2.43.0 (0)
 -->
<!-- Title: src/wxMathml.h Pages: 1 -->
<svg width="1597pt" height="357pt"
 viewBox="0.00 0.00 1597.00 357.00" xmlns="http://www.w3.org/2000/svg" xmlns:xlink="http://www.w3.org/1999/xlink">
<g id="graph0" class="graph" transform="scale(1 1) rotate(0) translate(4 353)">
<title>src/wxMathml.h</title>
<!-- Node1 -->
<g id="node1" class="node">
<title>Node1</title>
<g id="a_node1"><a xlink:title="This file declares all the wizards the draw sidepane needs.">
<polygon fill="#999999" stroke="#666666" points="859.5,-349 764.5,-349 764.5,-330 859.5,-330 859.5,-349"/>
<text text-anchor="middle" x="812" y="-337" font-family="Helvetica,sans-Serif" font-size="10.00">src/wxMathml.h</text>
</a>
</g>
</g>
<!-- Node2 -->
<g id="node2" class="node">
<title>Node2</title>
<g id="a_node2"><a xlink:title=" ">
<polygon fill="#e0e0e0" stroke="#999999" points="677.5,-19 624.5,-19 624.5,0 677.5,0 677.5,-19"/>
<text text-anchor="middle" x="651" y="-7" font-family="Helvetica,sans-Serif" font-size="10.00">cstddef</text>
</a>
</g>
</g>
<!-- Node1&#45;&gt;Node2 -->
<g id="edge1" class="edge">
<title>Node1&#45;&gt;Node2</title>
<path fill="none" stroke="#63b8ff" d="M764.48,-338.74C635.25,-338.14 287,-327.51 287,-230.5 287,-230.5 287,-230.5 287,-118.5 287,-74.48 322.89,-73.14 363,-55 447.02,-17.01 557.38,-10.56 613.99,-9.99"/>
<polygon fill="#63b8ff" stroke="#63b8ff" points="614.26,-13.49 624.24,-9.95 614.23,-6.49 614.26,-13.49"/>
</g>
<!-- Node3 -->
<g id="node3" class="node">
<title>Node3</title>
<g id="a_node3"><a xlink:href="precomp_8h_source.html" target="_top" xlink:title=" ">
<polygon fill="white" stroke="#666666" points="110,-74 42,-74 42,-55 110,-55 110,-74"/>
<text text-anchor="middle" x="76" y="-62" font-family="Helvetica,sans-Serif" font-size="10.00">precomp.h</text>
</a>
</g>
</g>
<!-- Node1&#45;&gt;Node3 -->
<g id="edge2" class="edge">
<title>Node1&#45;&gt;Node3</title>
<path fill="none" stroke="#63b8ff" d="M764.24,-337.21C590.18,-331.88 0,-308.1 0,-230.5 0,-230.5 0,-230.5 0,-173.5 0,-134.47 33.61,-99.58 56.13,-80.6"/>
<polygon fill="#63b8ff" stroke="#63b8ff" points="58.56,-83.14 64.12,-74.12 54.15,-77.7 58.56,-83.14"/>
</g>
<!-- Node5 -->
<g id="node5" class="node">
<title>Node5</title>
<g id="a_node5"><a xlink:href="Configuration_8h_source.html" target="_top" xlink:title=" ">
<polygon fill="white" stroke="#666666" points="857.5,-294 766.5,-294 766.5,-275 857.5,-275 857.5,-294"/>
<text text-anchor="middle" x="812" y="-282" font-family="Helvetica,sans-Serif" font-size="10.00">Configuration.h</text>
</a>
</g>
</g>
<!-- Node1&#45;&gt;Node5 -->
<g id="edge4" class="edge">
<title>Node1&#45;&gt;Node5</title>
<path fill="none" stroke="#63b8ff" d="M812,-329.75C812,-322.8 812,-312.85 812,-304.13"/>
<polygon fill="#63b8ff" stroke="#63b8ff" points="815.5,-304.09 812,-294.09 808.5,-304.09 815.5,-304.09"/>
</g>
<!-- Node47 -->
<g id="node47" class="node">
<title>Node47</title>
<g id="a_node47"><a xlink:title=" ">
<polygon fill="#e0e0e0" stroke="#999999" points="946.5,-294 875.5,-294 875.5,-275 946.5,-275 946.5,-294"/>
<text text-anchor="middle" x="911" y="-282" font-family="Helvetica,sans-Serif" font-size="10.00">wx/string.h</text>
</a>
</g>
</g>
<!-- Node1&#45;&gt;Node47 -->
<g id="edge71" class="edge">
<title>Node1&#45;&gt;Node47</title>
<path fill="none" stroke="#63b8ff" d="M827.91,-329.98C843.55,-321.61 867.66,-308.7 885.88,-298.95"/>
<polygon fill="#63b8ff" stroke="#63b8ff" points="887.64,-301.98 894.8,-294.17 884.34,-295.8 887.64,-301.98"/>
</g>
<!-- Node48 -->
<g id="node48" class="node">
<title>Node48</title>
<g id="a_node48"><a xlink:title=" ">
<polygon fill="#e0e0e0" stroke="#999999" points="1043,-294 965,-294 965,-275 1043,-275 1043,-294"/>
<text text-anchor="middle" x="1004" y="-282" font-family="Helvetica,sans-Serif" font-size="10.00">wx/tokenzr.h</text>
</a>
</g>
</g>
<!-- Node1&#45;&gt;Node48 -->
<g id="edge72" class="edge">
<title>Node1&#45;&gt;Node48</title>
<path fill="none" stroke="#63b8ff" d="M842.85,-329.98C875.5,-320.97 927.2,-306.7 963.2,-296.76"/>
<polygon fill="#63b8ff" stroke="#63b8ff" points="964.2,-300.12 972.91,-294.08 962.34,-293.37 964.2,-300.12"/>
</g>
<!-- Node4 -->
<g id="node4" class="node">
<title>Node4</title>
<g id="a_node4"><a xlink:title=" ">
<polygon fill="#e0e0e0" stroke="#999999" points="116.5,-19 35.5,-19 35.5,0 116.5,0 116.5,-19"/>
<text text-anchor="middle" x="76" y="-7" font-family="Helvetica,sans-Serif" font-size="10.00">BuildConfig.h</text>
</a>
</g>
</g>
<!-- Node3&#45;&gt;Node4 -->
<g id="edge3" class="edge">
<title>Node3&#45;&gt;Node4</title>
<path fill="none" stroke="#63b8ff" d="M76,-54.75C76,-47.8 76,-37.85 76,-29.13"/>
<polygon fill="#63b8ff" stroke="#63b8ff" points="79.5,-29.09 76,-19.09 72.5,-29.09 79.5,-29.09"/>
</g>
<!-- Node5&#45;&gt;Node3 -->
<g id="edge5" class="edge">
<title>Node5&#45;&gt;Node3</title>
<path fill="none" stroke="#63b8ff" d="M766.41,-282.49C607.9,-278.76 89.14,-264.62 65,-239 24.86,-196.4 51.85,-118.77 67.3,-83.64"/>
<polygon fill="#63b8ff" stroke="#63b8ff" points="70.64,-84.73 71.63,-74.18 64.28,-81.81 70.64,-84.73"/>
</g>
<!-- Node6 -->
<g id="node6" class="node">
<title>Node6</title>
<g id="a_node6"><a xlink:title=" ">
<polygon fill="#e0e0e0" stroke="#999999" points="410.5,-239 353.5,-239 353.5,-220 410.5,-220 410.5,-239"/>
<text text-anchor="middle" x="382" y="-227" font-family="Helvetica,sans-Serif" font-size="10.00">wx/wx.h</text>
</a>
</g>
</g>
<!-- Node5&#45;&gt;Node6 -->
<g id="edge6" class="edge">
<title>Node5&#45;&gt;Node6</title>
<path fill="none" stroke="#63b8ff" d="M766.26,-279.45C693.69,-272.74 547.78,-258.16 425,-239 423.54,-238.77 422.06,-238.53 420.56,-238.28"/>
<polygon fill="#63b8ff" stroke="#63b8ff" points="421.09,-234.82 410.62,-236.49 419.85,-241.71 421.09,-234.82"/>
</g>
<!-- Node7 -->
<g id="node7" class="node">
<title>Node7</title>
<g id="a_node7"><a xlink:title=" ">
<polygon fill="#e0e0e0" stroke="#999999" points="501,-129 429,-129 429,-110 501,-110 501,-129"/>
<text text-anchor="middle" x="465" y="-117" font-family="Helvetica,sans-Serif" font-size="10.00">wx/config.h</text>
</a>
</g>
</g>
<!-- Node5&#45;&gt;Node7 -->
<g id="edge7" class="edge">
<title>Node5&#45;&gt;Node7</title>
<path fill="none" stroke="#63b8ff" d="M766.44,-281.08C675.42,-275.79 478.1,-261.79 458,-239 433.56,-211.29 446.79,-164.27 456.91,-138.58"/>
<polygon fill="#63b8ff" stroke="#63b8ff" points="460.17,-139.85 460.81,-129.28 453.71,-137.15 460.17,-139.85"/>
</g>
<!-- Node8 -->
<g id="node8" class="node">
<title>Node8</title>
<g id="a_node8"><a xlink:title=" ">
<polygon fill="#e0e0e0" stroke="#999999" points="544.5,-239 467.5,-239 467.5,-220 544.5,-220 544.5,-239"/>
<text text-anchor="middle" x="506" y="-227" font-family="Helvetica,sans-Serif" font-size="10.00">wx/display.h</text>
</a>
</g>
</g>
<!-- Node5&#45;&gt;Node8 -->
<g id="edge8" class="edge">
<title>Node5&#45;&gt;Node8</title>
<path fill="none" stroke="#63b8ff" d="M766.32,-275.68C716.86,-267.21 635.36,-253.2 554.83,-239.14"/>
<polygon fill="#63b8ff" stroke="#63b8ff" points="554.96,-235.61 544.51,-237.34 553.76,-242.5 554.96,-235.61"/>
</g>
<!-- Node9 -->
<g id="node9" class="node">
<title>Node9</title>
<g id="a_node9"><a xlink:title=" ">
<polygon fill="#e0e0e0" stroke="#999999" points="653,-239 563,-239 563,-220 653,-220 653,-239"/>
<text text-anchor="middle" x="608" y="-227" font-family="Helvetica,sans-Serif" font-size="10.00">wx/fontenum.h</text>
</a>
</g>
</g>
<!-- Node5&#45;&gt;Node9 -->
<g id="edge9" class="edge">
<title>Node5&#45;&gt;Node9</title>
<path fill="none" stroke="#63b8ff" d="M779.22,-274.98C744.38,-265.93 689.13,-251.58 650.86,-241.64"/>
<polygon fill="#63b8ff" stroke="#63b8ff" points="651.59,-238.21 641.03,-239.08 649.83,-244.98 651.59,-238.21"/>
</g>
<!-- Node10 -->
<g id="node10" class="node">
<title>Node10</title>
<g id="a_node10"><a xlink:title=" ">
<polygon fill="#e0e0e0" stroke="#999999" points="607,-129 519,-129 519,-110 607,-110 607,-129"/>
<text text-anchor="middle" x="563" y="-117" font-family="Helvetica,sans-Serif" font-size="10.00">wx/hashmap.h</text>
</a>
</g>
</g>
<!-- Node5&#45;&gt;Node10 -->
<g id="edge10" class="edge">
<title>Node5&#45;&gt;Node10</title>
<path fill="none" stroke="#63b8ff" d="M808.65,-274.59C803.22,-261.17 791.33,-235.7 774,-220 724.23,-174.91 650.4,-146.48 604.56,-132.05"/>
<polygon fill="#63b8ff" stroke="#63b8ff" points="605.54,-128.69 594.95,-129.1 603.48,-135.38 605.54,-128.69"/>
</g>
<!-- Node11 -->
<g id="node11" class="node">
<title>Node11</title>
<g id="a_node11"><a xlink:href="LoggingMessageDialog_8h.html" target="_top" xlink:title="This file declares a message dialog that sends its contents to the log message sink.">
<polygon fill="white" stroke="#666666" points="251.5,-239 74.5,-239 74.5,-220 251.5,-220 251.5,-239"/>
<text text-anchor="middle" x="163" y="-227" font-family="Helvetica,sans-Serif" font-size="10.00">dialogs/LoggingMessageDialog.h</text>
</a>
</g>
</g>
<!-- Node5&#45;&gt;Node11 -->
<g id="edge11" class="edge">
<title>Node5&#45;&gt;Node11</title>
<path fill="none" stroke="#63b8ff" d="M766.36,-279.77C662.04,-271.25 404.16,-250.19 261.63,-238.55"/>
<polygon fill="#63b8ff" stroke="#63b8ff" points="261.82,-235.06 251.57,-237.73 261.25,-242.04 261.82,-235.06"/>
</g>
<!-- Node14 -->
<g id="node14" class="node">
<title>Node14</title>
<g id="a_node14"><a xlink:href="TextStyle_8h.html" target="_top" xlink:title="This file declares everything needed for the text style system used to style all the elements on the ...">
<polygon fill="white" stroke="#666666" points="852,-184 756,-184 756,-165 852,-165 852,-184"/>
<text text-anchor="middle" x="804" y="-172" font-family="Helvetica,sans-Serif" font-size="10.00">cells/TextStyle.h</text>
</a>
</g>
</g>
<!-- Node5&#45;&gt;Node14 -->
<g id="edge15" class="edge">
<title>Node5&#45;&gt;Node14</title>
<path fill="none" stroke="#63b8ff" d="M811.35,-274.66C810.05,-257.17 807.13,-217.8 805.39,-194.27"/>
<polygon fill="#63b8ff" stroke="#63b8ff" points="808.87,-193.87 804.64,-184.16 801.89,-194.39 808.87,-193.87"/>
</g>
<!-- Node21 -->
<g id="node21" class="node">
<title>Node21</title>
<g id="a_node21"><a xlink:title=" ">
<polygon fill="#e0e0e0" stroke="#999999" points="1379,-74 1329,-74 1329,-55 1379,-55 1379,-74"/>
<text text-anchor="middle" x="1354" y="-62" font-family="Helvetica,sans-Serif" font-size="10.00">cstdint</text>
</a>
</g>
</g>
<!-- Node5&#45;&gt;Node21 -->
<g id="edge59" class="edge">
<title>Node5&#45;&gt;Node21</title>
<path fill="none" stroke="#63b8ff" d="M857.65,-276.21C860.47,-275.79 863.27,-275.39 866,-275 992.85,-257.04 1028.7,-273.79 1152,-239 1171.72,-233.44 1174.43,-226.05 1194,-220 1281.96,-192.81 1338.82,-254.53 1398,-184 1423.61,-153.47 1390.75,-106.63 1369.48,-81.98"/>
<polygon fill="#63b8ff" stroke="#63b8ff" points="1371.84,-79.36 1362.56,-74.25 1366.62,-84.03 1371.84,-79.36"/>
</g>
<!-- Node27 -->
<g id="node27" class="node">
<title>Node27</title>
<g id="a_node27"><a xlink:title=" ">
<polygon fill="#e0e0e0" stroke="#999999" points="1589,-74 1525,-74 1525,-55 1589,-55 1589,-74"/>
<text text-anchor="middle" x="1557" y="-62" font-family="Helvetica,sans-Serif" font-size="10.00">algorithm</text>
</a>
</g>
</g>
<!-- Node5&#45;&gt;Node27 -->
<g id="edge67" class="edge">
<title>Node5&#45;&gt;Node27</title>
<path fill="none" stroke="#63b8ff" d="M857.62,-275.98C860.45,-275.62 863.26,-275.29 866,-275 939.26,-267.26 1473.1,-288.11 1528,-239 1572.16,-199.5 1566.04,-120.23 1560.49,-84.15"/>
<polygon fill="#63b8ff" stroke="#63b8ff" points="1563.9,-83.33 1558.77,-74.06 1557,-84.5 1563.9,-83.33"/>
</g>
<!-- Node30 -->
<g id="node30" class="node">
<title>Node30</title>
<g id="a_node30"><a xlink:title=" ">
<polygon fill="#e0e0e0" stroke="#999999" points="430,-74 372,-74 372,-55 430,-55 430,-74"/>
<text text-anchor="middle" x="401" y="-62" font-family="Helvetica,sans-Serif" font-size="10.00">memory</text>
</a>
</g>
</g>
<!-- Node5&#45;&gt;Node30 -->
<g id="edge60" class="edge">
<title>Node5&#45;&gt;Node30</title>
<path fill="none" stroke="#63b8ff" d="M766.21,-282.57C653.94,-279.82 372.07,-269.87 344,-239 302.29,-193.14 357.55,-116.12 385.98,-82.29"/>
<polygon fill="#63b8ff" stroke="#63b8ff" points="388.98,-84.17 392.87,-74.31 383.69,-79.59 388.98,-84.17"/>
</g>
<!-- Node31 -->
<g id="node31" class="node">
<title>Node31</title>
<g id="a_node31"><a xlink:title=" ">
<polygon fill="#e0e0e0" stroke="#999999" points="1049,-74 1017,-74 1017,-55 1049,-55 1049,-74"/>
<text text-anchor="middle" x="1033" y="-62" font-family="Helvetica,sans-Serif" font-size="10.00">list</text>
</a>
</g>
</g>
<!-- Node5&#45;&gt;Node31 -->
<g id="edge64" class="edge">
<title>Node5&#45;&gt;Node31</title>
<path fill="none" stroke="#63b8ff" d="M857.66,-276.27C860.48,-275.84 863.28,-275.41 866,-275 976.56,-258.31 1007.16,-268.57 1115,-239 1136.33,-233.15 1139.73,-226.06 1161,-220 1208.44,-206.5 1348.08,-221.6 1380,-184 1403.8,-155.97 1368.58,-126.54 1341,-110 1235.03,-46.44 1184.15,-99.7 1058.94,-73.67"/>
<polygon fill="#63b8ff" stroke="#63b8ff" points="1059.52,-70.21 1049,-71.47 1058.01,-77.05 1059.52,-70.21"/>
</g>
<!-- Node33 -->
<g id="node33" class="node">
<title>Node33</title>
<g id="a_node33"><a xlink:title=" ">
<polygon fill="#e0e0e0" stroke="#999999" points="1490.5,-74 1397.5,-74 1397.5,-55 1490.5,-55 1490.5,-74"/>
<text text-anchor="middle" x="1444" y="-62" font-family="Helvetica,sans-Serif" font-size="10.00">unordered_map</text>
</a>
</g>
</g>
<!-- Node5&#45;&gt;Node33 -->
<g id="edge62" class="edge">
<title>Node5&#45;&gt;Node33</title>
<path fill="none" stroke="#63b8ff" d="M857.62,-275.99C860.45,-275.63 863.26,-275.29 866,-275 937.04,-267.44 1458.92,-290.91 1508,-239 1551.31,-193.19 1490.53,-115.58 1459.85,-81.9"/>
<polygon fill="#63b8ff" stroke="#63b8ff" points="1462.17,-79.26 1452.79,-74.33 1457.05,-84.03 1462.17,-79.26"/>
</g>
<!-- Node34 -->
<g id="node34" class="node">
<title>Node34</title>
<g id="a_node34"><a xlink:href="RenderContext_8h.html" target="_top" xlink:title="Declares RenderContext: the per&#45;render&#45;pass state of a worksheet.">
<polygon fill="white" stroke="#666666" points="1033,-239 935,-239 935,-220 1033,-220 1033,-239"/>
<text text-anchor="middle" x="984" y="-227" font-family="Helvetica,sans-Serif" font-size="10.00">RenderContext.h</text>
</a>
</g>
</g>
<!-- Node5&#45;&gt;Node34 -->
<g id="edge47" class="edge">
<title>Node5&#45;&gt;Node34</title>
<path fill="none" stroke="#63b8ff" d="M839.63,-274.98C868.51,-266.09 914.01,-252.07 946.2,-242.15"/>
<polygon fill="#63b8ff" stroke="#63b8ff" points="947.62,-245.37 956.15,-239.08 945.56,-238.68 947.62,-245.37"/>
</g>
<!-- Node39 -->
<g id="node39" class="node">
<title>Node39</title>
<g id="a_node39"><a xlink:title=" ">
<polygon fill="#e0e0e0" stroke="#999999" points="1303,-184 1253,-184 1253,-165 1303,-165 1303,-184"/>
<text text-anchor="middle" x="1278" y="-172" font-family="Helvetica,sans-Serif" font-size="10.00">atomic</text>
</a>
</g>
</g>
<!-- Node5&#45;&gt;Node39 -->
<g id="edge68" class="edge">
<title>Node5&#45;&gt;Node39</title>
<path fill="none" stroke="#63b8ff" d="M857.77,-275.9C914.65,-266.24 1008.33,-249.55 1042,-239 1061.94,-232.75 1065.16,-226.56 1085,-220 1150.84,-198.23 1171.73,-200.53 1242.87,-184.19"/>
<polygon fill="#63b8ff" stroke="#63b8ff" points="1243.83,-187.56 1252.76,-181.88 1242.23,-180.75 1243.83,-187.56"/>
</g>
<!-- Node40 -->
<g id="node40" class="node">
<title>Node40</title>
<g id="a_node40"><a xlink:title=" ">
<polygon fill="#e0e0e0" stroke="#999999" points="1371,-184 1321,-184 1321,-165 1371,-165 1371,-184"/>
<text text-anchor="middle" x="1346" y="-172" font-family="Helvetica,sans-Serif" font-size="10.00">chrono</text>
</a>
</g>
</g>
<!-- Node5&#45;&gt;Node40 -->
<g id="edge69" class="edge">
<title>Node5&#45;&gt;Node40</title>
<path fill="none" stroke="#63b8ff" d="M857.56,-276.16C930.77,-264.33 1067.5,-242.05 1078,-239 1098.85,-232.95 1102.22,-226.29 1123,-220 1201.81,-196.15 1226.65,-201.89 1310.79,-184.13"/>
<polygon fill="#63b8ff" stroke="#63b8ff" points="1311.75,-187.51 1320.79,-181.97 1310.27,-180.66 1311.75,-187.51"/>
</g>
<!-- Node41 -->
<g id="node41" class="node">
<title>Node41</title>
<g id="a_node41"><a xlink:href="Styles_8h.html" target="_top" xlink:title="This file declares the class Styles.">
<polygon fill="white" stroke="#666666" points="765,-239 709,-239 709,-220 765,-220 765,-239"/>
<text text-anchor="middle" x="737" y="-227" font-family="Helvetica,sans-Serif" font-size="10.00">Styles.h</text>
</a>
</g>
</g>
<!-- Node5&#45;&gt;Node41 -->
<g id="edge55" class="edge">
<title>Node5&#45;&gt;Node41</title>
<path fill="none" stroke="#63b8ff" d="M799.95,-274.98C788.54,-266.92 771.17,-254.65 757.57,-245.03"/>
<polygon fill="#63b8ff" stroke="#63b8ff" points="759.46,-242.08 749.27,-239.17 755.42,-247.8 759.46,-242.08"/>
</g>
<!-- Node42 -->
<g id="node42" class="node">
<title>Node42</title>
<g id="a_node42"><a xlink:title=" ">
<polygon fill="#e0e0e0" stroke="#999999" points="514.5,-184 467.5,-184 467.5,-165 514.5,-165 514.5,-184"/>
<text text-anchor="middle" x="491" y="-172" font-family="Helvetica,sans-Serif" font-size="10.00">vector</text>
</a>
</g>
</g>
<!-- Node5&#45;&gt;Node42 -->
<g id="edge66" class="edge">
<title>Node5&#45;&gt;Node42</title>
<path fill="none" stroke="#63b8ff" d="M788.59,-274.87C765.76,-266.29 730.17,-252.51 700,-239 682.77,-231.28 679.68,-226.64 662,-220 636.99,-210.61 566.88,-193.41 524.6,-183.36"/>
<polygon fill="#63b8ff" stroke="#63b8ff" points="525.29,-179.93 514.75,-181.03 523.68,-186.74 525.29,-179.93"/>
</g>
<!-- Node43 -->
<g id="node43" class="node">
<title>Node43</title>
<g id="a_node43"><a xlink:title=" ">
<polygon fill="#e0e0e0" stroke="#999999" points="1251,-239 1203,-239 1203,-220 1251,-220 1251,-239"/>
<text text-anchor="middle" x="1227" y="-227" font-family="Helvetica,sans-Serif" font-size="10.00">mutex</text>
</a>
</g>
</g>
<!-- Node5&#45;&gt;Node43 -->
<g id="edge61" class="edge">
<title>Node5&#45;&gt;Node43</title>
<path fill="none" stroke="#63b8ff" d="M857.64,-276.17C860.47,-275.76 863.27,-275.37 866,-275 1009.16,-255.77 1046.53,-262.8 1189,-239 1190.28,-238.79 1191.57,-238.56 1192.88,-238.32"/>
<polygon fill="#63b8ff" stroke="#63b8ff" points="1193.84,-241.69 1202.95,-236.29 1192.46,-234.83 1193.84,-241.69"/>
</g>
<!-- Node44 -->
<g id="node44" class="node">
<title>Node44</title>
<g id="a_node44"><a xlink:title=" ">
<polygon fill="#e0e0e0" stroke="#999999" points="1323,-239 1269,-239 1269,-220 1323,-220 1323,-239"/>
<text text-anchor="middle" x="1296" y="-227" font-family="Helvetica,sans-Serif" font-size="10.00">random</text>
</a>
</g>
</g>
<!-- Node5&#45;&gt;Node44 -->
<g id="edge63" class="edge">
<title>Node5&#45;&gt;Node44</title>
<path fill="none" stroke="#63b8ff" d="M857.64,-276.1C860.46,-275.71 863.27,-275.34 866,-275 1037.26,-253.72 1084.7,-266.77 1258.94,-238.94"/>
<polygon fill="#63b8ff" stroke="#63b8ff" points="1259.64,-242.37 1268.96,-237.32 1258.52,-235.46 1259.64,-242.37"/>
</g>
<!-- Node45 -->
<g id="node45" class="node">
<title>Node45</title>
<g id="a_node45"><a xlink:title=" ">
<polygon fill="#e0e0e0" stroke="#999999" points="1392.5,-239 1341.5,-239 1341.5,-220 1392.5,-220 1392.5,-239"/>
<text text-anchor="middle" x="1367" y="-227" font-family="Helvetica,sans-Serif" font-size="10.00">variant</text>
</a>
</g>
</g>
<!-- Node5&#45;&gt;Node45 -->
<g id="edge65" class="edge">
<title>Node5&#45;&gt;Node45</title>
<path fill="none" stroke="#63b8ff" d="M857.63,-276.06C860.46,-275.68 863.27,-275.32 866,-275 1069.09,-251.21 1125.11,-270.98 1331.54,-238.77"/>
<polygon fill="#63b8ff" stroke="#63b8ff" points="1332.15,-242.22 1341.48,-237.2 1331.06,-235.31 1332.15,-242.22"/>
</g>
<!-- Node46 -->
<g id="node46" class="node">
<title>Node46</title>
<g id="a_node46"><a xlink:title=" ">
<polygon fill="#e0e0e0" stroke="#999999" points="1499.5,-239 1410.5,-239 1410.5,-220 1499.5,-220 1499.5,-239"/>
<text text-anchor="middle" x="1455" y="-227" font-family="Helvetica,sans-Serif" font-size="10.00">wx/wupdlock.h</text>
</a>
</g>
</g>
<!-- Node5&#45;&gt;Node46 -->
<g id="edge70" class="edge">
<title>Node5&#45;&gt;Node46</title>
<path fill="none" stroke="#63b8ff" d="M857.63,-276.03C860.46,-275.65 863.26,-275.31 866,-275 1099.59,-248.81 1162.46,-265.09 1400.26,-238.97"/>
<polygon fill="#63b8ff" stroke="#63b8ff" points="1400.7,-242.44 1410.25,-237.86 1399.93,-235.48 1400.7,-242.44"/>
</g>
<!-- Node11&#45;&gt;Node3 -->
<g id="edge12" class="edge">
<title>Node11&#45;&gt;Node3</title>
<path fill="none" stroke="#63b8ff" d="M141.04,-219.89C125.63,-212.66 105.9,-200.81 95,-184 75.14,-153.36 73.57,-109.14 74.55,-84.29"/>
<polygon fill="#63b8ff" stroke="#63b8ff" points="78.06,-84.26 75.15,-74.07 71.07,-83.85 78.06,-84.26"/>
</g>
<!-- Node12 -->
<g id="node12" class="node">
<title>Node12</title>
<g id="a_node12"><a xlink:title=" ">
<polygon fill="#e0e0e0" stroke="#999999" points="183.5,-184 104.5,-184 104.5,-165 183.5,-165 183.5,-184"/>
<text text-anchor="middle" x="144" y="-172" font-family="Helvetica,sans-Serif" font-size="10.00">wx/msgdlg.h</text>
</a>
</g>
</g>
<!-- Node11&#45;&gt;Node12 -->
<g id="edge13" class="edge">
<title>Node11&#45;&gt;Node12</title>
<path fill="none" stroke="#63b8ff" d="M159.86,-219.75C157.32,-212.65 153.64,-202.4 150.47,-193.56"/>
<polygon fill="#63b8ff" stroke="#63b8ff" points="153.75,-192.32 147.08,-184.09 147.16,-194.68 153.75,-192.32"/>
</g>
<!-- Node13 -->
<g id="node13" class="node">
<title>Node13</title>
<g id="a_node13"><a xlink:title=" ">
<polygon fill="#e0e0e0" stroke="#999999" points="259,-184 201,-184 201,-165 259,-165 259,-184"/>
<text text-anchor="middle" x="230" y="-172" font-family="Helvetica,sans-Serif" font-size="10.00">wx/log.h</text>
</a>
</g>
</g>
<!-- Node11&#45;&gt;Node13 -->
<g id="edge14" class="edge">
<title>Node11&#45;&gt;Node13</title>
<path fill="none" stroke="#63b8ff" d="M173.76,-219.98C183.77,-212.07 198.89,-200.11 210.93,-190.58"/>
<polygon fill="#63b8ff" stroke="#63b8ff" points="213.37,-193.12 219.04,-184.17 209.03,-187.63 213.37,-193.12"/>
</g>
<!-- Node14&#45;&gt;Node3 -->
<g id="edge16" class="edge">
<title>Node14&#45;&gt;Node3</title>
<path fill="none" stroke="#63b8ff" d="M768.86,-164.94C738.08,-157.01 692.4,-144.16 654,-129 636.44,-122.07 634.18,-115.09 616,-110 523.09,-83.99 232.35,-71.09 120.48,-66.99"/>
<polygon fill="#63b8ff" stroke="#63b8ff" points="120.35,-63.49 110.23,-66.62 120.1,-70.48 120.35,-63.49"/>
</g>
<!-- Node14&#45;&gt;Node7 -->
<g id="edge22" class="edge">
<title>Node14&#45;&gt;Node7</title>
<path fill="none" stroke="#63b8ff" d="M755.79,-166.75C699.53,-158.76 603.44,-144.72 511.38,-129.18"/>
<polygon fill="#63b8ff" stroke="#63b8ff" points="511.77,-125.7 501.33,-127.48 510.6,-132.6 511.77,-125.7"/>
</g>
<!-- Node14&#45;&gt;Node10 -->
<g id="edge19" class="edge">
<title>Node14&#45;&gt;Node10</title>
<path fill="none" stroke="#63b8ff" d="M765.28,-164.98C723.59,-155.82 657.18,-141.21 611.91,-131.26"/>
<polygon fill="#63b8ff" stroke="#63b8ff" points="612.54,-127.81 602.02,-129.08 611.04,-134.65 612.54,-127.81"/>
</g>
<!-- Node15 -->
<g id="node15" class="node">
<title>Node15</title>
<g id="a_node15"><a xlink:title=" ">
<polygon fill="#e0e0e0" stroke="#999999" points="1139,-129 1067,-129 1067,-110 1139,-110 1139,-129"/>
<text text-anchor="middle" x="1103" y="-117" font-family="Helvetica,sans-Serif" font-size="10.00">wx/colour.h</text>
</a>
</g>
</g>
<!-- Node14&#45;&gt;Node15 -->
<g id="edge17" class="edge">
<title>Node14&#45;&gt;Node15</title>
<path fill="none" stroke="#63b8ff" d="M852.05,-165.17C902.96,-156.33 985.68,-141.86 1057,-129 1057.1,-128.98 1057.2,-128.96 1057.3,-128.95"/>
<polygon fill="#63b8ff" stroke="#63b8ff" points="1057.63,-132.44 1066.85,-127.21 1056.38,-125.56 1057.63,-132.44"/>
</g>
<!-- Node16 -->
<g id="node16" class="node">
<title>Node16</title>
<g id="a_node16"><a xlink:title=" ">
<polygon fill="#e0e0e0" stroke="#999999" points="1195,-129 1157,-129 1157,-110 1195,-110 1195,-129"/>
<text text-anchor="middle" x="1176" y="-117" font-family="Helvetica,sans-Serif" font-size="10.00">map</text>
</a>
</g>
</g>
<!-- Node14&#45;&gt;Node16 -->
<g id="edge18" class="edge">
<title>Node14&#45;&gt;Node16</title>
<path fill="none" stroke="#63b8ff" d="M852.19,-166.23C855.17,-165.81 858.13,-165.39 861,-165 985.13,-147.96 1020.48,-155.37 1146.77,-128.92"/>
<polygon fill="#63b8ff" stroke="#63b8ff" points="1147.78,-132.29 1156.83,-126.79 1146.32,-125.44 1147.78,-132.29"/>
</g>
<!-- Node17 -->
<g id="node17" class="node">
<title>Node17</title>
<g id="a_node17"><a xlink:title=" ">
<polygon fill="#e0e0e0" stroke="#999999" points="1257,-129 1213,-129 1213,-110 1257,-110 1257,-129"/>
<text text-anchor="middle" x="1235" y="-117" font-family="Helvetica,sans-Serif" font-size="10.00">string</text>
</a>
</g>
</g>
<!-- Node14&#45;&gt;Node17 -->
<g id="edge20" class="edge">
<title>Node14&#45;&gt;Node17</title>
<path fill="none" stroke="#63b8ff" d="M852.18,-166.16C855.16,-165.76 858.12,-165.37 861,-165 1009.79,-146.11 1051.58,-156.87 1202.64,-128.96"/>
<polygon fill="#63b8ff" stroke="#63b8ff" points="1203.57,-132.35 1212.75,-127.07 1202.28,-125.47 1203.57,-132.35"/>
</g>
<!-- Node18 -->
<g id="node18" class="node">
<title>Node18</title>
<g id="a_node18"><a xlink:title=" ">
<polygon fill="#e0e0e0" stroke="#999999" points="1332.5,-129 1275.5,-129 1275.5,-110 1332.5,-110 1332.5,-129"/>
<text text-anchor="middle" x="1304" y="-117" font-family="Helvetica,sans-Serif" font-size="10.00">ostream</text>
</a>
</g>
</g>
<!-- Node14&#45;&gt;Node18 -->
<g id="edge21" class="edge">
<title>Node14&#45;&gt;Node18</title>
<path fill="none" stroke="#63b8ff" d="M852.18,-166.11C855.16,-165.72 858.12,-165.34 861,-165 1037.2,-144.05 1085.7,-156.32 1265.39,-128.87"/>
<polygon fill="#63b8ff" stroke="#63b8ff" points="1266.1,-132.3 1275.44,-127.31 1265.03,-125.38 1266.1,-132.3"/>
</g>
<!-- Node19 -->
<g id="node19" class="node">
<title>Node19</title>
<g id="a_node19"><a xlink:title=" ">
<polygon fill="#e0e0e0" stroke="#999999" points="901,-74 839,-74 839,-55 901,-55 901,-74"/>
<text text-anchor="middle" x="870" y="-62" font-family="Helvetica,sans-Serif" font-size="10.00">wx/font.h</text>
</a>
</g>
</g>
<!-- Node14&#45;&gt;Node19 -->
<g id="edge23" class="edge">
<title>Node14&#45;&gt;Node19</title>
<path fill="none" stroke="#63b8ff" d="M838.61,-164.98C869.5,-156.6 911.32,-143.04 921,-129 933.26,-111.21 912.72,-92.04 894.16,-79.47"/>
<polygon fill="#63b8ff" stroke="#63b8ff" points="895.94,-76.45 885.63,-74.02 892.18,-82.35 895.94,-76.45"/>
</g>
<!-- Node20 -->
<g id="node20" class="node">
<title>Node20</title>
<g id="a_node20"><a xlink:title=" ">
<polygon fill="#e0e0e0" stroke="#999999" points="745,-129 663,-129 663,-110 745,-110 745,-129"/>
<text text-anchor="middle" x="704" y="-117" font-family="Helvetica,sans-Serif" font-size="10.00">wx/settings.h</text>
</a>
</g>
</g>
<!-- Node14&#45;&gt;Node20 -->
<g id="edge24" class="edge">
<title>Node14&#45;&gt;Node20</title>
<path fill="none" stroke="#63b8ff" d="M787.93,-164.98C772.14,-156.61 747.78,-143.7 729.37,-133.95"/>
<polygon fill="#63b8ff" stroke="#63b8ff" points="730.83,-130.76 720.36,-129.17 727.56,-136.95 730.83,-130.76"/>
</g>
<!-- Node14&#45;&gt;Node21 -->
<g id="edge25" class="edge">
<title>Node14&#45;&gt;Node21</title>
<path fill="none" stroke="#63b8ff" d="M852.17,-166.06C855.15,-165.68 858.12,-165.32 861,-165 914.15,-159.05 1300.86,-164.34 1341,-129 1353.4,-118.09 1355.85,-98.82 1355.69,-84.36"/>
<polygon fill="#63b8ff" stroke="#63b8ff" points="1359.17,-83.84 1355.14,-74.04 1352.18,-84.22 1359.17,-83.84"/>
</g>
<!-- Node22 -->
<g id="node22" class="node">
<title>Node22</title>
<g id="a_node22"><a xlink:title=" ">
<polygon fill="#e0e0e0" stroke="#999999" points="983.5,-19 918.5,-19 918.5,0 983.5,0 983.5,-19"/>
<text text-anchor="middle" x="951" y="-7" font-family="Helvetica,sans-Serif" font-size="10.00">functional</text>
</a>
</g>
</g>
<!-- Node14&#45;&gt;Node22 -->
<g id="edge26" class="edge">
<title>Node14&#45;&gt;Node22</title>
<path fill="none" stroke="#63b8ff" d="M800.91,-164.77C797.95,-155.9 793.68,-141.69 792,-129 787.34,-93.82 794.9,-77.91 822,-55 846.46,-34.32 881.08,-23.07 908.29,-17.06"/>
<polygon fill="#63b8ff" stroke="#63b8ff" points="909.23,-20.44 918.32,-15 907.82,-13.58 909.23,-20.44"/>
</g>
<!-- Node23 -->
<g id="node23" class="node">
<title>Node23</title>
<g id="a_node23"><a xlink:href="FontAttribs_8h_source.html" target="_top" xlink:title=" ">
<polygon fill="white" stroke="#666666" points="1048.5,-129 969.5,-129 969.5,-110 1048.5,-110 1048.5,-129"/>
<text text-anchor="middle" x="1009" y="-117" font-family="Helvetica,sans-Serif" font-size="10.00">FontAttribs.h</text>
</a>
</g>
</g>
<!-- Node14&#45;&gt;Node23 -->
<g id="edge27" class="edge">
<title>Node14&#45;&gt;Node23</title>
<path fill="none" stroke="#63b8ff" d="M836.94,-164.98C871.95,-155.93 927.47,-141.58 965.93,-131.64"/>
<polygon fill="#63b8ff" stroke="#63b8ff" points="967,-134.97 975.81,-129.08 965.25,-128.2 967,-134.97"/>
</g>
<!-- Node29 -->
<g id="node29" class="node">
<title>Node29</title>
<g id="a_node29"><a xlink:href="FontVariantCache_8h.html" target="_top" xlink:title="This file implements the wxFont cache system.">
<polygon fill="white" stroke="#666666" points="912.5,-129 801.5,-129 801.5,-110 912.5,-110 912.5,-129"/>
<text text-anchor="middle" x="857" y="-117" font-family="Helvetica,sans-Serif" font-size="10.00">FontVariantCache.h</text>
</a>
</g>
</g>
<!-- Node14&#45;&gt;Node29 -->
<g id="edge38" class="edge">
<title>Node14&#45;&gt;Node29</title>
<path fill="none" stroke="#63b8ff" d="M812.75,-164.75C820.47,-157.03 831.9,-145.6 841.22,-136.28"/>
<polygon fill="#63b8ff" stroke="#63b8ff" points="843.81,-138.64 848.41,-129.09 838.86,-133.69 843.81,-138.64"/>
</g>
<!-- Node14&#45;&gt;Node33 -->
<g id="edge46" class="edge">
<title>Node14&#45;&gt;Node33</title>
<path fill="none" stroke="#63b8ff" d="M852.17,-166.05C855.15,-165.67 858.12,-165.32 861,-165 971.73,-152.78 1256.84,-168.5 1361,-129 1388.16,-118.7 1413.81,-96.45 1429.22,-81.22"/>
<polygon fill="#63b8ff" stroke="#63b8ff" points="1431.79,-83.59 1436.29,-74 1426.79,-78.69 1431.79,-83.59"/>
</g>
<!-- Node23&#45;&gt;Node19 -->
<g id="edge32" class="edge">
<title>Node23&#45;&gt;Node19</title>
<path fill="none" stroke="#63b8ff" d="M986.67,-109.98C963.8,-101.27 928.04,-87.63 902.14,-77.75"/>
<polygon fill="#63b8ff" stroke="#63b8ff" points="903.33,-74.46 892.74,-74.17 900.84,-81 903.33,-74.46"/>
</g>
<!-- Node23&#45;&gt;Node21 -->
<g id="edge35" class="edge">
<title>Node23&#45;&gt;Node21</title>
<path fill="none" stroke="#63b8ff" d="M1048.57,-111.56C1051.76,-111.02 1054.93,-110.5 1058,-110 1151.98,-94.79 1263.03,-78.56 1318.6,-70.56"/>
<polygon fill="#63b8ff" stroke="#63b8ff" points="1319.23,-74 1328.63,-69.12 1318.23,-67.08 1319.23,-74"/>
</g>
<!-- Node23&#45;&gt;Node22 -->
<g id="edge36" class="edge">
<title>Node23&#45;&gt;Node22</title>
<path fill="none" stroke="#63b8ff" d="M1048.74,-111.23C1112.06,-99.55 1229.08,-77.56 1232,-74 1237.36,-67.47 1237.48,-61.42 1232,-55 1201.91,-19.77 1064.99,-12.28 994,-10.79"/>
<polygon fill="#63b8ff" stroke="#63b8ff" points="993.67,-7.28 983.61,-10.6 993.54,-14.28 993.67,-7.28"/>
</g>
<!-- Node24 -->
<g id="node24" class="node">
<title>Node24</title>
<g id="a_node24"><a xlink:href="EnumWrapper_8h_source.html" target="_top" xlink:title=" ">
<polygon fill="white" stroke="#666666" points="1223,-74 1129,-74 1129,-55 1223,-55 1223,-74"/>
<text text-anchor="middle" x="1176" y="-62" font-family="Helvetica,sans-Serif" font-size="10.00">EnumWrapper.h</text>
</a>
</g>
</g>
<!-- Node23&#45;&gt;Node24 -->
<g id="edge28" class="edge">
<title>Node23&#45;&gt;Node24</title>
<path fill="none" stroke="#63b8ff" d="M1035.83,-109.98C1063.87,-101.09 1108.05,-87.07 1139.3,-77.15"/>
<polygon fill="#63b8ff" stroke="#63b8ff" points="1140.49,-80.44 1148.96,-74.08 1138.37,-73.77 1140.49,-80.44"/>
</g>
<!-- Node26 -->
<g id="node26" class="node">
<title>Node26</title>
<g id="a_node26"><a xlink:title=" ">
<polygon fill="#e0e0e0" stroke="#999999" points="998.5,-74 919.5,-74 919.5,-55 998.5,-55 998.5,-74"/>
<text text-anchor="middle" x="959" y="-62" font-family="Helvetica,sans-Serif" font-size="10.00">wx/version.h</text>
</a>
</g>
</g>
<!-- Node23&#45;&gt;Node26 -->
<g id="edge33" class="edge">
<title>Node23&#45;&gt;Node26</title>
<path fill="none" stroke="#63b8ff" d="M1000.74,-109.75C993.54,-102.11 982.89,-90.82 974.15,-81.56"/>
<polygon fill="#63b8ff" stroke="#63b8ff" points="976.51,-78.96 967.1,-74.09 971.42,-83.76 976.51,-78.96"/>
</g>
<!-- Node23&#45;&gt;Node27 -->
<g id="edge34" class="edge">
<title>Node23&#45;&gt;Node27</title>
<path fill="none" stroke="#63b8ff" d="M1048.53,-111.33C1051.73,-110.84 1054.92,-110.39 1058,-110 1253.08,-85.17 1303.61,-96.27 1499,-74 1504.11,-73.42 1509.47,-72.73 1514.78,-72.01"/>
<polygon fill="#63b8ff" stroke="#63b8ff" points="1515.42,-75.45 1524.84,-70.59 1514.44,-68.52 1515.42,-75.45"/>
</g>
<!-- Node28 -->
<g id="node28" class="node">
<title>Node28</title>
<g id="a_node28"><a xlink:title=" ">
<polygon fill="#e0e0e0" stroke="#999999" points="1111,-74 1067,-74 1067,-55 1111,-55 1111,-74"/>
<text text-anchor="middle" x="1089" y="-62" font-family="Helvetica,sans-Serif" font-size="10.00">limits</text>
</a>
</g>
</g>
<!-- Node23&#45;&gt;Node28 -->
<g id="edge37" class="edge">
<title>Node23&#45;&gt;Node28</title>
<path fill="none" stroke="#63b8ff" d="M1021.85,-109.98C1034.14,-101.84 1052.91,-89.41 1067.48,-79.76"/>
<polygon fill="#63b8ff" stroke="#63b8ff" points="1069.51,-82.61 1075.91,-74.17 1065.64,-76.78 1069.51,-82.61"/>
</g>
<!-- Node24&#45;&gt;Node2 -->
<g id="edge29" class="edge">
<title>Node24&#45;&gt;Node2</title>
<path fill="none" stroke="#63b8ff" d="M1128.97,-56.17C1125.94,-55.75 1122.93,-55.36 1120,-55 959.52,-35.22 767.19,-19.45 687.92,-13.3"/>
<polygon fill="#63b8ff" stroke="#63b8ff" points="687.74,-9.77 677.5,-12.49 687.2,-16.75 687.74,-9.77"/>
</g>
<!-- Node24&#45;&gt;Node22 -->
<g id="edge30" class="edge">
<title>Node24&#45;&gt;Node22</title>
<path fill="none" stroke="#63b8ff" d="M1139.85,-54.98C1100.03,-45.6 1036.04,-30.53 993.76,-20.57"/>
<polygon fill="#63b8ff" stroke="#63b8ff" points="994.3,-17.1 983.77,-18.22 992.7,-23.92 994.3,-17.1"/>
</g>
<!-- Node25 -->
<g id="node25" class="node">
<title>Node25</title>
<g id="a_node25"><a xlink:title=" ">
<polygon fill="#e0e0e0" stroke="#999999" points="1210.5,-19 1141.5,-19 1141.5,0 1210.5,0 1210.5,-19"/>
<text text-anchor="middle" x="1176" y="-7" font-family="Helvetica,sans-Serif" font-size="10.00">type_traits</text>
</a>
</g>
</g>
<!-- Node24&#45;&gt;Node25 -->
<g id="edge31" class="edge">
<title>Node24&#45;&gt;Node25</title>
<path fill="none" stroke="#63b8ff" d="M1176,-54.75C1176,-47.8 1176,-37.85 1176,-29.13"/>
<polygon fill="#63b8ff" stroke="#63b8ff" points="1179.5,-29.09 1176,-19.09 1172.5,-29.09 1179.5,-29.09"/>
</g>
<!-- Node29&#45;&gt;Node3 -->
<g id="edge39" class="edge">
<title>Node29&#45;&gt;Node3</title>
<path fill="none" stroke="#63b8ff" d="M801.42,-113.74C786.06,-112.47 769.39,-111.14 754,-110 515.2,-92.31 228.82,-74.7 120.46,-68.16"/>
<polygon fill="#63b8ff" stroke="#63b8ff" points="120.42,-64.65 110.23,-67.54 120,-71.64 120.42,-64.65"/>
</g>
<!-- Node29&#45;&gt;Node19 -->
<g id="edge41" class="edge">
<title>Node29&#45;&gt;Node19</title>
<path fill="none" stroke="#63b8ff" d="M859.15,-109.75C860.87,-102.72 863.35,-92.62 865.5,-83.84"/>
<polygon fill="#63b8ff" stroke="#63b8ff" points="868.91,-84.63 867.89,-74.09 862.11,-82.97 868.91,-84.63"/>
</g>
<!-- Node29&#45;&gt;Node22 -->
<g id="edge42" class="edge">
<title>Node29&#45;&gt;Node22</title>
<path fill="none" stroke="#63b8ff" d="M848.01,-109.71C836.02,-96.89 817.66,-72.68 830,-55 847.55,-29.85 880.96,-18.88 908.24,-14.11"/>
<polygon fill="#63b8ff" stroke="#63b8ff" points="908.99,-17.53 918.35,-12.56 907.94,-10.61 908.99,-17.53"/>
</g>
<!-- Node29&#45;&gt;Node30 -->
<g id="edge40" class="edge">
<title>Node29&#45;&gt;Node30</title>
<path fill="none" stroke="#63b8ff" d="M801.09,-112C707.54,-101.13 521.6,-79.52 440.43,-70.08"/>
<polygon fill="#63b8ff" stroke="#63b8ff" points="440.49,-66.57 430.15,-68.89 439.68,-73.52 440.49,-66.57"/>
</g>
<!-- Node29&#45;&gt;Node31 -->
<g id="edge43" class="edge">
<title>Node29&#45;&gt;Node31</title>
<path fill="none" stroke="#63b8ff" d="M886.67,-109.96C916.99,-101.17 965.38,-86.97 1007,-74 1007.1,-73.97 1007.2,-73.94 1007.3,-73.91"/>
<polygon fill="#63b8ff" stroke="#63b8ff" points="1008.33,-77.25 1016.79,-70.87 1006.2,-70.58 1008.33,-77.25"/>
</g>
<!-- Node32 -->
<g id="node32" class="node">
<title>Node32</title>
<g id="a_node32"><a xlink:title=" ">
<polygon fill="#e0e0e0" stroke="#999999" points="619.5,-74 574.5,-74 574.5,-55 619.5,-55 619.5,-74"/>
<text text-anchor="middle" x="597" y="-62" font-family="Helvetica,sans-Serif" font-size="10.00">utility</text>
</a>
</g>
</g>
<!-- Node29&#45;&gt;Node32 -->
<g id="edge44" class="edge">
<title>Node29&#45;&gt;Node32</title>
<path fill="none" stroke="#63b8ff" d="M815.23,-109.98C763.58,-99.46 676.76,-81.76 629.7,-72.17"/>
<polygon fill="#63b8ff" stroke="#63b8ff" points="630.23,-68.7 619.74,-70.13 628.84,-75.56 630.23,-68.7"/>
</g>
<!-- Node29&#45;&gt;Node33 -->
<g id="edge45" class="edge">
<title>Node29&#45;&gt;Node33</title>
<path fill="none" stroke="#63b8ff" d="M912.87,-113.87C1036.39,-103.62 1326.02,-79.55 1386.96,-73.86"/>
<polygon fill="#63b8ff" stroke="#63b8ff" points="1387.68,-77.31 1397.28,-72.83 1386.98,-70.34 1387.68,-77.31"/>
</g>
<!-- Node34&#45;&gt;Node30 -->
<g id="edge54" class="edge">
<title>Node34&#45;&gt;Node30</title>
<path fill="none" stroke="#63b8ff" d="M934.62,-222.78C804.3,-207.26 458.48,-163.25 420,-129 407.52,-117.89 403.09,-98.96 401.58,-84.65"/>
<polygon fill="#63b8ff" stroke="#63b8ff" points="405.06,-84.15 400.91,-74.4 398.07,-84.61 405.06,-84.15"/>
</g>
<!-- Node35 -->
<g id="node35" class="node">
<title>Node35</title>
<g id="a_node35"><a xlink:title=" ">
<polygon fill="#e0e0e0" stroke="#999999" points="940,-184 870,-184 870,-165 940,-165 940,-184"/>
<text text-anchor="middle" x="905" y="-172" font-family="Helvetica,sans-Serif" font-size="10.00">wx/brush.h</text>
</a>
</g>
</g>
<!-- Node34&#45;&gt;Node35 -->
<g id="edge48" class="edge">
<title>Node34&#45;&gt;Node35</title>
<path fill="none" stroke="#63b8ff" d="M971.31,-219.98C959.17,-211.84 940.64,-199.41 926.25,-189.76"/>
<polygon fill="#63b8ff" stroke="#63b8ff" points="928.18,-186.84 917.92,-184.17 924.28,-192.65 928.18,-186.84"/>
</g>
<!-- Node36 -->
<g id="node36" class="node">
<title>Node36</title>
<g id="a_node36"><a xlink:title=" ">
<polygon fill="#e0e0e0" stroke="#999999" points="1039.5,-184 958.5,-184 958.5,-165 1039.5,-165 1039.5,-184"/>
<text text-anchor="middle" x="999" y="-172" font-family="Helvetica,sans-Serif" font-size="10.00">wx/dcclient.h</text>
</a>
</g>
</g>
<!-- Node34&#45;&gt;Node36 -->
<g id="edge49" class="edge">
<title>Node34&#45;&gt;Node36</title>
<path fill="none" stroke="#63b8ff" d="M986.48,-219.75C988.46,-212.72 991.32,-202.62 993.81,-193.84"/>
<polygon fill="#63b8ff" stroke="#63b8ff" points="997.21,-194.66 996.57,-184.09 990.48,-192.76 997.21,-194.66"/>
</g>
<!-- Node37 -->
<g id="node37" class="node">
<title>Node37</title>
<g id="a_node37"><a xlink:title=" ">
<polygon fill="#e0e0e0" stroke="#999999" points="1136.5,-184 1057.5,-184 1057.5,-165 1136.5,-165 1136.5,-184"/>
<text text-anchor="middle" x="1097" y="-172" font-family="Helvetica,sans-Serif" font-size="10.00">wx/gdicmn.h</text>
</a>
</g>
</g>
<!-- Node34&#45;&gt;Node37 -->
<g id="edge50" class="edge">
<title>Node34&#45;&gt;Node37</title>
<path fill="none" stroke="#63b8ff" d="M1002.16,-219.98C1020.25,-211.5 1048.28,-198.35 1069.19,-188.54"/>
<polygon fill="#63b8ff" stroke="#63b8ff" points="1070.95,-191.59 1078.51,-184.17 1067.97,-185.25 1070.95,-191.59"/>
</g>
<!-- Node38 -->
<g id="node38" class="node">
<title>Node38</title>
<g id="a_node38"><a xlink:title=" ">
<polygon fill="#e0e0e0" stroke="#999999" points="1235,-184 1155,-184 1155,-165 1235,-165 1235,-184"/>
<text text-anchor="middle" x="1195" y="-172" font-family="Helvetica,sans-Serif" font-size="10.00">wx/window.h</text>
</a>
</g>
</g>
<!-- Node34&#45;&gt;Node38 -->
<g id="edge51" class="edge">
<title>Node34&#45;&gt;Node38</title>
<path fill="none" stroke="#63b8ff" d="M1017.9,-219.98C1054.02,-210.91 1111.32,-196.52 1150.92,-186.57"/>
<polygon fill="#63b8ff" stroke="#63b8ff" points="1151.99,-189.91 1160.83,-184.08 1150.28,-183.12 1151.99,-189.91"/>
</g>
<!-- Node34&#45;&gt;Node39 -->
<g id="edge52" class="edge">
<title>Node34&#45;&gt;Node39</title>
<path fill="none" stroke="#63b8ff" d="M1033.09,-221.23C1083.37,-213.53 1164,-200.49 1242.71,-184.14"/>
<polygon fill="#63b8ff" stroke="#63b8ff" points="1243.73,-187.5 1252.8,-182.03 1242.29,-180.65 1243.73,-187.5"/>
</g>
<!-- Node34&#45;&gt;Node40 -->
<g id="edge53" class="edge">
<title>Node34&#45;&gt;Node40</title>
<path fill="none" stroke="#63b8ff" d="M1033.18,-223.54C1095.55,-216.87 1206.59,-203.73 1310.76,-184.05"/>
<polygon fill="#63b8ff" stroke="#63b8ff" points="1311.65,-187.44 1320.82,-182.12 1310.34,-180.57 1311.65,-187.44"/>
</g>
<!-- Node41&#45;&gt;Node14 -->
<g id="edge56" class="edge">
<title>Node41&#45;&gt;Node14</title>
<path fill="none" stroke="#63b8ff" d="M747.76,-219.98C757.77,-212.07 772.89,-200.11 784.93,-190.58"/>
<polygon fill="#63b8ff" stroke="#63b8ff" points="787.37,-193.12 793.04,-184.17 783.03,-187.63 787.37,-193.12"/>
</g>
<!-- Node41&#45;&gt;Node32 -->
<g id="edge57" class="edge">
<title>Node41&#45;&gt;Node32</title>
<path fill="none" stroke="#63b8ff" d="M708.77,-220.12C631.93,-197.25 424.45,-135.06 420,-129 382.54,-77.98 503.32,-67.82 564.16,-65.89"/>
<polygon fill="#63b8ff" stroke="#63b8ff" points="564.51,-69.38 574.42,-65.63 564.33,-62.38 564.51,-69.38"/>
</g>
<!-- Node41&#45;&gt;Node42 -->
<g id="edge58" class="edge">
<title>Node41&#45;&gt;Node42</title>
<path fill="none" stroke="#63b8ff" d="M708.72,-222.54C668.69,-214.08 593.21,-198.05 529,-184 527.56,-183.68 526.08,-183.36 524.59,-183.03"/>
<polygon fill="#63b8ff" stroke="#63b8ff" points="525.23,-179.59 514.71,-180.84 523.71,-186.42 525.23,-179.59"/>
</g>
</g>
</svg>
