<?xml version="1.0" encoding="UTF-8" standalone="no"?>
<!DOCTYPE svg PUBLIC "-//W3C//DTD SVG 1.1//EN"
 "http://www.w3.org/Graphics/SVG/1.1/DTD/svg11.dtd">
<!-- Generated by graphviz version 2.43.0 (0)
 -->
<!-- Title: src/wxMaximaIcon.h Pages: 1 -->
<svg width="420pt" height="84pt"
 viewBox="0.00 0.00 419.50 84.00" xmlns="http://www.w3.org/2000/svg" xmlns:xlink="http://www.w3.org/1999/xlink">
<g id="graph0" class="graph" transform="scale(1 1) rotate(0) translate(4 80)">
<title>src/wxMaximaIcon.h</title>
<polygon fill="white" stroke="transparent" points="-4,4 -4,-80 415.5,-80 415.5,4 -4,4"/>
<!-- Node1 -->
<g id="node1" class="node">
<title>Node1</title>
<g id="a_node1"><a xlink:title="This file declares the function that returns the wxMaxima icon.">
<polygon fill="#bfbfbf" stroke="black" points="153,-56.5 153,-75.5 270,-75.5 270,-56.5 153,-56.5"/>
<text text-anchor="middle" x="211.5" y="-63.5" font-family="Helvetica,sans-Serif" font-size="10.00">src/wxMaximaIcon.h</text>
</a>
</g>
</g>
<!-- Node2 -->
<g id="node2" class="node">
<title>Node2</title>
<g id="a_node2"><a xlink:href="wxMaximaFrame_8cpp.html" target="_top" xlink:title="This file defines the class wxMaximaFrame.">
<polygon fill="white" stroke="black" points="0,-0.5 0,-19.5 139,-19.5 139,-0.5 0,-0.5"/>
<text text-anchor="middle" x="69.5" y="-7.5" font-family="Helvetica,sans-Serif" font-size="10.00">src/wxMaximaFrame.cpp</text>
</a>
</g>
</g>
<!-- Node1&#45;&gt;Node2 -->
<g id="edge1" class="edge">
<title>Node1&#45;&gt;Node2</title>
<path fill="none" stroke="midnightblue" d="M179.34,-52.77C152.67,-42.63 115.43,-28.47 91.9,-19.52"/>
<polygon fill="midnightblue" stroke="midnightblue" points="178.41,-56.16 189,-56.44 180.9,-49.62 178.41,-56.16"/>
</g>
<!-- Node3 -->
<g id="node3" class="node">
<title>Node3</title>
<g id="a_node3"><a xlink:href="wxMaxima_8cpp.html" target="_top" xlink:title="This file defines the contents of the class wxMaxima that contains most of the program&#39;s logic.">
<polygon fill="white" stroke="black" points="157.5,-0.5 157.5,-19.5 265.5,-19.5 265.5,-0.5 157.5,-0.5"/>
<text text-anchor="middle" x="211.5" y="-7.5" font-family="Helvetica,sans-Serif" font-size="10.00">src/wxMaxima.cpp</text>
</a>
</g>
</g>
<!-- Node1&#45;&gt;Node3 -->
<g id="edge2" class="edge">
<title>Node1&#45;&gt;Node3</title>
<path fill="none" stroke="midnightblue" d="M211.5,-45.8C211.5,-36.91 211.5,-26.78 211.5,-19.75"/>
<polygon fill="midnightblue" stroke="midnightblue" points="208,-46.08 211.5,-56.08 215,-46.08 208,-46.08"/>
</g>
<!-- Node4 -->
<g id="node4" class="node">
<title>Node4</title>
<g id="a_node4"><a xlink:href="wxMaximaIcon_8cpp.html" target="_top" xlink:title="This file defines the class Image that stores compressed images and handles scaling and uncompressing...">
<polygon fill="white" stroke="black" points="283.5,-0.5 283.5,-19.5 411.5,-19.5 411.5,-0.5 283.5,-0.5"/>
<text text-anchor="middle" x="347.5" y="-7.5" font-family="Helvetica,sans-Serif" font-size="10.00">src/wxMaximaIcon.cpp</text>
</a>
</g>
</g>
<!-- Node1&#45;&gt;Node4 -->
<g id="edge3" class="edge">
<title>Node1&#45;&gt;Node4</title>
<path fill="none" stroke="midnightblue" d="M242.63,-52.64C268.16,-42.5 303.61,-28.43 326.05,-19.52"/>
<polygon fill="midnightblue" stroke="midnightblue" points="241.05,-49.5 233.05,-56.44 243.64,-56.01 241.05,-49.5"/>
</g>
</g>
</svg>
