<?xml version="1.0" encoding="UTF-8" standalone="no"?>
<!DOCTYPE svg PUBLIC "-//W3C//DTD SVG 1.1//EN"
 "http://www.w3.org/Graphics/SVG/1.1/DTD/svg11.dtd">
<!-- Generated by graphviz version 2.43.0 (0)
 -->
<!-- Title: src/wxMathml.h Pages: 1 -->
<svg width="1807pt" height="308pt"
 viewBox="0.00 0.00 1807.33 308.00" xmlns="http://www.w3.org/2000/svg" xmlns:xlink="http://www.w3.org/1999/xlink">
<g id="graph0" class="graph" transform="scale(1 1) rotate(0) translate(4 304)">
<title>src/wxMathml.h</title>
<polygon fill="white" stroke="transparent" points="-4,4 -4,-304 1803.33,-304 1803.33,4 -4,4"/>
<!-- Node1 -->
<g id="node1" class="node">
<title>Node1</title>
<g id="a_node1"><a xlink:title="This file declares all the wizards the draw sidepane needs.">
<polygon fill="#bfbfbf" stroke="black" points="1555.83,-280.5 1555.83,-299.5 1650.83,-299.5 1650.83,-280.5 1555.83,-280.5"/>
<text text-anchor="middle" x="1603.33" y="-287.5" font-family="Helvetica,sans-Serif" font-size="10.00">src/wxMathml.h</text>
</a>
</g>
</g>
<!-- Node2 -->
<g id="node2" class="node">
<title>Node2</title>
<g id="a_node2"><a xlink:title=" ">
<polygon fill="white" stroke="#bfbfbf" points="1576.83,-0.5 1576.83,-19.5 1629.83,-19.5 1629.83,-0.5 1576.83,-0.5"/>
<text text-anchor="middle" x="1603.33" y="-7.5" font-family="Helvetica,sans-Serif" font-size="10.00">cstddef</text>
</a>
</g>
</g>
<!-- Node1&#45;&gt;Node2 -->
<g id="edge1" class="edge">
<title>Node1&#45;&gt;Node2</title>
<path fill="none" stroke="midnightblue" d="M1603.33,-280.44C1603.33,-261.94 1603.33,-216.81 1603.33,-179 1603.33,-179 1603.33,-179 1603.33,-121 1603.33,-88.95 1603.33,-51.64 1603.33,-29.75"/>
<polygon fill="midnightblue" stroke="midnightblue" points="1606.83,-29.56 1603.33,-19.56 1599.83,-29.56 1606.83,-29.56"/>
</g>
<!-- Node3 -->
<g id="node3" class="node">
<title>Node3</title>
<g id="a_node3"><a xlink:href="precomp_8h_source.html" target="_top" xlink:title=" ">
<polygon fill="white" stroke="black" points="346.33,-56.5 346.33,-75.5 414.33,-75.5 414.33,-56.5 346.33,-56.5"/>
<text text-anchor="middle" x="380.33" y="-63.5" font-family="Helvetica,sans-Serif" font-size="10.00">precomp.h</text>
</a>
</g>
</g>
<!-- Node1&#45;&gt;Node3 -->
<g id="edge2" class="edge">
<title>Node1&#45;&gt;Node3</title>
<path fill="none" stroke="midnightblue" d="M1555.68,-287.83C1296.25,-281.23 63.55,-246.82 10.33,-188 -1.96,-174.42 -6.91,-136.22 17.33,-112 39.55,-89.8 244.29,-75.03 336.12,-69.47"/>
<polygon fill="midnightblue" stroke="midnightblue" points="336.44,-72.96 346.22,-68.87 336.03,-65.97 336.44,-72.96"/>
</g>
<!-- Node5 -->
<g id="node5" class="node">
<title>Node5</title>
<g id="a_node5"><a xlink:href="Configuration_8h_source.html" target="_top" xlink:title=" ">
<polygon fill="white" stroke="black" points="577.83,-224.5 577.83,-243.5 668.83,-243.5 668.83,-224.5 577.83,-224.5"/>
<text text-anchor="middle" x="623.33" y="-231.5" font-family="Helvetica,sans-Serif" font-size="10.00">Configuration.h</text>
</a>
</g>
</g>
<!-- Node1&#45;&gt;Node5 -->
<g id="edge4" class="edge">
<title>Node1&#45;&gt;Node5</title>
<path fill="none" stroke="midnightblue" d="M1555.73,-286.38C1392.24,-277.37 854.12,-247.72 678.96,-238.07"/>
<polygon fill="midnightblue" stroke="midnightblue" points="679.11,-234.57 668.93,-237.51 678.73,-241.56 679.11,-234.57"/>
</g>
<!-- Node37 -->
<g id="node37" class="node">
<title>Node37</title>
<g id="a_node37"><a xlink:title=" ">
<polygon fill="white" stroke="#bfbfbf" points="1631.83,-224.5 1631.83,-243.5 1702.83,-243.5 1702.83,-224.5 1631.83,-224.5"/>
<text text-anchor="middle" x="1667.33" y="-231.5" font-family="Helvetica,sans-Serif" font-size="10.00">wx/string.h</text>
</a>
</g>
</g>
<!-- Node1&#45;&gt;Node37 -->
<g id="edge51" class="edge">
<title>Node1&#45;&gt;Node37</title>
<path fill="none" stroke="midnightblue" d="M1613.61,-280.32C1623.16,-272.26 1637.61,-260.08 1649.11,-250.37"/>
<polygon fill="midnightblue" stroke="midnightblue" points="1651.47,-252.96 1656.86,-243.83 1646.96,-247.61 1651.47,-252.96"/>
</g>
<!-- Node38 -->
<g id="node38" class="node">
<title>Node38</title>
<g id="a_node38"><a xlink:title=" ">
<polygon fill="white" stroke="#bfbfbf" points="1721.33,-224.5 1721.33,-243.5 1799.33,-243.5 1799.33,-224.5 1721.33,-224.5"/>
<text text-anchor="middle" x="1760.33" y="-231.5" font-family="Helvetica,sans-Serif" font-size="10.00">wx/tokenzr.h</text>
</a>
</g>
</g>
<!-- Node1&#45;&gt;Node38 -->
<g id="edge52" class="edge">
<title>Node1&#45;&gt;Node38</title>
<path fill="none" stroke="midnightblue" d="M1628.2,-280.44C1654.62,-271.36 1696.54,-256.94 1726.07,-246.78"/>
<polygon fill="midnightblue" stroke="midnightblue" points="1727.25,-250.08 1735.57,-243.52 1724.97,-243.46 1727.25,-250.08"/>
</g>
<!-- Node4 -->
<g id="node4" class="node">
<title>Node4</title>
<g id="a_node4"><a xlink:href="Version_8h_source.html" target="_top" xlink:title=" ">
<polygon fill="white" stroke="black" points="349.33,-0.5 349.33,-19.5 411.33,-19.5 411.33,-0.5 349.33,-0.5"/>
<text text-anchor="middle" x="380.33" y="-7.5" font-family="Helvetica,sans-Serif" font-size="10.00">Version.h</text>
</a>
</g>
</g>
<!-- Node3&#45;&gt;Node4 -->
<g id="edge3" class="edge">
<title>Node3&#45;&gt;Node4</title>
<path fill="none" stroke="midnightblue" d="M380.33,-56.08C380.33,-49.01 380.33,-38.86 380.33,-29.99"/>
<polygon fill="midnightblue" stroke="midnightblue" points="383.83,-29.75 380.33,-19.75 376.83,-29.75 383.83,-29.75"/>
</g>
<!-- Node5&#45;&gt;Node3 -->
<g id="edge5" class="edge">
<title>Node5&#45;&gt;Node3</title>
<path fill="none" stroke="midnightblue" d="M577.53,-233.04C444.39,-232.67 64.5,-228.09 27.33,-188 -63.77,-89.77 222.65,-71.28 336.12,-67.8"/>
<polygon fill="midnightblue" stroke="midnightblue" points="336.33,-71.3 346.22,-67.52 336.13,-64.3 336.33,-71.3"/>
</g>
<!-- Node6 -->
<g id="node6" class="node">
<title>Node6</title>
<g id="a_node6"><a xlink:title=" ">
<polygon fill="white" stroke="#bfbfbf" points="1046.83,-168.5 1046.83,-187.5 1103.83,-187.5 1103.83,-168.5 1046.83,-168.5"/>
<text text-anchor="middle" x="1075.33" y="-175.5" font-family="Helvetica,sans-Serif" font-size="10.00">wx/wx.h</text>
</a>
</g>
</g>
<!-- Node5&#45;&gt;Node6 -->
<g id="edge6" class="edge">
<title>Node5&#45;&gt;Node6</title>
<path fill="none" stroke="midnightblue" d="M668.91,-229.43C744.66,-223.18 901.11,-208.9 1032.33,-188 1033.79,-187.77 1035.27,-187.52 1036.77,-187.26"/>
<polygon fill="midnightblue" stroke="midnightblue" points="1037.53,-190.67 1046.72,-185.39 1036.24,-183.8 1037.53,-190.67"/>
</g>
<!-- Node7 -->
<g id="node7" class="node">
<title>Node7</title>
<g id="a_node7"><a xlink:title=" ">
<polygon fill="white" stroke="#bfbfbf" points="446.33,-112.5 446.33,-131.5 518.33,-131.5 518.33,-112.5 446.33,-112.5"/>
<text text-anchor="middle" x="482.33" y="-119.5" font-family="Helvetica,sans-Serif" font-size="10.00">wx/config.h</text>
</a>
</g>
</g>
<!-- Node5&#45;&gt;Node7 -->
<g id="edge7" class="edge">
<title>Node5&#45;&gt;Node7</title>
<path fill="none" stroke="midnightblue" d="M577.76,-232.66C543.53,-229.71 498.67,-219.5 475.33,-188 465.42,-174.63 469.16,-155.25 474.16,-141.13"/>
<polygon fill="midnightblue" stroke="midnightblue" points="477.53,-142.13 478.03,-131.55 471.04,-139.51 477.53,-142.13"/>
</g>
<!-- Node8 -->
<g id="node8" class="node">
<title>Node8</title>
<g id="a_node8"><a xlink:title=" ">
<polygon fill="white" stroke="#bfbfbf" points="1121.83,-168.5 1121.83,-187.5 1198.83,-187.5 1198.83,-168.5 1121.83,-168.5"/>
<text text-anchor="middle" x="1160.33" y="-175.5" font-family="Helvetica,sans-Serif" font-size="10.00">wx/display.h</text>
</a>
</g>
</g>
<!-- Node5&#45;&gt;Node8 -->
<g id="edge8" class="edge">
<title>Node5&#45;&gt;Node8</title>
<path fill="none" stroke="midnightblue" d="M669.1,-230.29C754.29,-224.93 943.14,-211.52 1111.61,-188.13"/>
<polygon fill="midnightblue" stroke="midnightblue" points="1112.23,-191.57 1121.65,-186.72 1111.26,-184.64 1112.23,-191.57"/>
</g>
<!-- Node9 -->
<g id="node9" class="node">
<title>Node9</title>
<g id="a_node9"><a xlink:title=" ">
<polygon fill="white" stroke="#bfbfbf" points="36.33,-168.5 36.33,-187.5 126.33,-187.5 126.33,-168.5 36.33,-168.5"/>
<text text-anchor="middle" x="81.33" y="-175.5" font-family="Helvetica,sans-Serif" font-size="10.00">wx/fontenum.h</text>
</a>
</g>
</g>
<!-- Node5&#45;&gt;Node9 -->
<g id="edge9" class="edge">
<title>Node5&#45;&gt;Node9</title>
<path fill="none" stroke="midnightblue" d="M577.79,-229.92C493.02,-223.94 305.08,-209.55 136.43,-188.05"/>
<polygon fill="midnightblue" stroke="midnightblue" points="136.74,-184.56 126.37,-186.76 135.84,-191.51 136.74,-184.56"/>
</g>
<!-- Node10 -->
<g id="node10" class="node">
<title>Node10</title>
<g id="a_node10"><a xlink:title=" ">
<polygon fill="white" stroke="#bfbfbf" points="144.33,-168.5 144.33,-187.5 232.33,-187.5 232.33,-168.5 144.33,-168.5"/>
<text text-anchor="middle" x="188.33" y="-175.5" font-family="Helvetica,sans-Serif" font-size="10.00">wx/hashmap.h</text>
</a>
</g>
</g>
<!-- Node5&#45;&gt;Node10 -->
<g id="edge10" class="edge">
<title>Node5&#45;&gt;Node10</title>
<path fill="none" stroke="midnightblue" d="M577.66,-228.38C507.73,-221.14 369.69,-206.19 242.47,-188.1"/>
<polygon fill="midnightblue" stroke="midnightblue" points="242.94,-184.63 232.55,-186.68 241.95,-191.56 242.94,-184.63"/>
</g>
<!-- Node11 -->
<g id="node11" class="node">
<title>Node11</title>
<g id="a_node11"><a xlink:href="LoggingMessageDialog_8h.html" target="_top" xlink:title="This file declares a message dialog that sends its contents to the log message sink.">
<polygon fill="white" stroke="black" points="250.83,-168.5 250.83,-187.5 389.83,-187.5 389.83,-168.5 250.83,-168.5"/>
<text text-anchor="middle" x="320.33" y="-175.5" font-family="Helvetica,sans-Serif" font-size="10.00">LoggingMessageDialog.h</text>
</a>
</g>
</g>
<!-- Node5&#45;&gt;Node11 -->
<g id="edge11" class="edge">
<title>Node5&#45;&gt;Node11</title>
<path fill="none" stroke="midnightblue" d="M577.64,-224.86C524.38,-215.37 436.27,-199.66 378.25,-189.32"/>
<polygon fill="midnightblue" stroke="midnightblue" points="378.6,-185.83 368.14,-187.52 377.37,-192.72 378.6,-185.83"/>
</g>
<!-- Node14 -->
<g id="node14" class="node">
<title>Node14</title>
<g id="a_node14"><a xlink:href="TextStyle_8h.html" target="_top" xlink:title="This file declares everything needed for the text style system used to style all the elements on the ...">
<polygon fill="white" stroke="black" points="871.83,-168.5 871.83,-187.5 942.83,-187.5 942.83,-168.5 871.83,-168.5"/>
<text text-anchor="middle" x="907.33" y="-175.5" font-family="Helvetica,sans-Serif" font-size="10.00">TextStyle.h</text>
</a>
</g>
</g>
<!-- Node5&#45;&gt;Node14 -->
<g id="edge15" class="edge">
<title>Node5&#45;&gt;Node14</title>
<path fill="none" stroke="midnightblue" d="M668.33,-224.44C721.22,-214.39 808.52,-197.79 861.69,-187.68"/>
<polygon fill="midnightblue" stroke="midnightblue" points="862.36,-191.11 871.53,-185.81 861.05,-184.24 862.36,-191.11"/>
</g>
<!-- Node29 -->
<g id="node29" class="node">
<title>Node29</title>
<g id="a_node29"><a xlink:title=" ">
<polygon fill="white" stroke="#bfbfbf" points="475.33,-56.5 475.33,-75.5 533.33,-75.5 533.33,-56.5 475.33,-56.5"/>
<text text-anchor="middle" x="504.33" y="-63.5" font-family="Helvetica,sans-Serif" font-size="10.00">memory</text>
</a>
</g>
</g>
<!-- Node5&#45;&gt;Node29 -->
<g id="edge44" class="edge">
<title>Node5&#45;&gt;Node29</title>
<path fill="none" stroke="midnightblue" d="M577.57,-229.8C543.3,-225.25 497.05,-214.31 465.33,-188 437.62,-165.02 420.4,-143.77 437.33,-112 444.88,-97.83 459.09,-87.33 472.48,-80.06"/>
<polygon fill="midnightblue" stroke="midnightblue" points="474.16,-83.13 481.54,-75.53 471.03,-76.87 474.16,-83.13"/>
</g>
<!-- Node30 -->
<g id="node30" class="node">
<title>Node30</title>
<g id="a_node30"><a xlink:title=" ">
<polygon fill="white" stroke="#bfbfbf" points="581.33,-56.5 581.33,-75.5 613.33,-75.5 613.33,-56.5 581.33,-56.5"/>
<text text-anchor="middle" x="597.33" y="-63.5" font-family="Helvetica,sans-Serif" font-size="10.00">list</text>
</a>
</g>
</g>
<!-- Node5&#45;&gt;Node30 -->
<g id="edge47" class="edge">
<title>Node5&#45;&gt;Node30</title>
<path fill="none" stroke="midnightblue" d="M668.94,-232.77C741.01,-230.86 868.73,-220.26 824.33,-168 760.17,-92.5 672.44,-203.96 604.33,-132 592.89,-119.91 592.25,-100.35 593.8,-85.84"/>
<polygon fill="midnightblue" stroke="midnightblue" points="597.27,-86.34 595.27,-75.93 590.34,-85.31 597.27,-86.34"/>
</g>
<!-- Node32 -->
<g id="node32" class="node">
<title>Node32</title>
<g id="a_node32"><a xlink:title=" ">
<polygon fill="white" stroke="#bfbfbf" points="837.83,-56.5 837.83,-75.5 930.83,-75.5 930.83,-56.5 837.83,-56.5"/>
<text text-anchor="middle" x="884.33" y="-63.5" font-family="Helvetica,sans-Serif" font-size="10.00">unordered_map</text>
</a>
</g>
</g>
<!-- Node5&#45;&gt;Node32 -->
<g id="edge45" class="edge">
<title>Node5&#45;&gt;Node32</title>
<path fill="none" stroke="midnightblue" d="M668.87,-233.79C750.37,-234.13 916.08,-229.54 952.33,-188 964.69,-173.83 955.53,-138.04 939.33,-112 931.56,-99.52 919.11,-88.91 908.02,-81.13"/>
<polygon fill="midnightblue" stroke="midnightblue" points="909.8,-78.11 899.53,-75.52 905.94,-83.95 909.8,-78.11"/>
</g>
<!-- Node33 -->
<g id="node33" class="node">
<title>Node33</title>
<g id="a_node33"><a xlink:title=" ">
<polygon fill="white" stroke="#bfbfbf" points="484.33,-168.5 484.33,-187.5 538.33,-187.5 538.33,-168.5 484.33,-168.5"/>
<text text-anchor="middle" x="511.33" y="-175.5" font-family="Helvetica,sans-Serif" font-size="10.00">random</text>
</a>
</g>
</g>
<!-- Node5&#45;&gt;Node33 -->
<g id="edge46" class="edge">
<title>Node5&#45;&gt;Node33</title>
<path fill="none" stroke="midnightblue" d="M605.33,-224.32C587.29,-215.62 559.28,-202.12 538.52,-192.11"/>
<polygon fill="midnightblue" stroke="midnightblue" points="539.8,-188.84 529.28,-187.65 536.76,-195.15 539.8,-188.84"/>
</g>
<!-- Node34 -->
<g id="node34" class="node">
<title>Node34</title>
<g id="a_node34"><a xlink:title=" ">
<polygon fill="white" stroke="#bfbfbf" points="556.83,-168.5 556.83,-187.5 603.83,-187.5 603.83,-168.5 556.83,-168.5"/>
<text text-anchor="middle" x="580.33" y="-175.5" font-family="Helvetica,sans-Serif" font-size="10.00">vector</text>
</a>
</g>
</g>
<!-- Node5&#45;&gt;Node34 -->
<g id="edge48" class="edge">
<title>Node5&#45;&gt;Node34</title>
<path fill="none" stroke="midnightblue" d="M616.23,-224.08C610.09,-216.38 601.06,-205.03 593.59,-195.65"/>
<polygon fill="midnightblue" stroke="midnightblue" points="596.26,-193.39 587.29,-187.75 590.79,-197.75 596.26,-193.39"/>
</g>
<!-- Node35 -->
<g id="node35" class="node">
<title>Node35</title>
<g id="a_node35"><a xlink:title=" ">
<polygon fill="white" stroke="#bfbfbf" points="621.83,-168.5 621.83,-187.5 710.83,-187.5 710.83,-168.5 621.83,-168.5"/>
<text text-anchor="middle" x="666.33" y="-175.5" font-family="Helvetica,sans-Serif" font-size="10.00">wx/wupdlock.h</text>
</a>
</g>
</g>
<!-- Node5&#45;&gt;Node35 -->
<g id="edge49" class="edge">
<title>Node5&#45;&gt;Node35</title>
<path fill="none" stroke="midnightblue" d="M630.43,-224.08C636.56,-216.38 645.6,-205.03 653.07,-195.65"/>
<polygon fill="midnightblue" stroke="midnightblue" points="655.87,-197.75 659.36,-187.75 650.39,-193.39 655.87,-197.75"/>
</g>
<!-- Node36 -->
<g id="node36" class="node">
<title>Node36</title>
<g id="a_node36"><a xlink:title=" ">
<polygon fill="white" stroke="#bfbfbf" points="729.33,-168.5 729.33,-187.5 815.33,-187.5 815.33,-168.5 729.33,-168.5"/>
<text text-anchor="middle" x="772.33" y="-175.5" font-family="Helvetica,sans-Serif" font-size="10.00">wx/webview.h</text>
</a>
</g>
</g>
<!-- Node5&#45;&gt;Node36 -->
<g id="edge50" class="edge">
<title>Node5&#45;&gt;Node36</title>
<path fill="none" stroke="midnightblue" d="M646.94,-224.44C671.78,-215.44 711.1,-201.19 739.08,-191.05"/>
<polygon fill="midnightblue" stroke="midnightblue" points="740.62,-194.21 748.83,-187.52 738.23,-187.63 740.62,-194.21"/>
</g>
<!-- Node11&#45;&gt;Node3 -->
<g id="edge12" class="edge">
<title>Node11&#45;&gt;Node3</title>
<path fill="none" stroke="midnightblue" d="M330.21,-168.27C339.23,-159.81 352.33,-146.21 360.33,-132 368.47,-117.53 373.7,-99.34 376.76,-85.89"/>
<polygon fill="midnightblue" stroke="midnightblue" points="380.23,-86.39 378.84,-75.89 373.38,-84.97 380.23,-86.39"/>
</g>
<!-- Node12 -->
<g id="node12" class="node">
<title>Node12</title>
<g id="a_node12"><a xlink:title=" ">
<polygon fill="white" stroke="#bfbfbf" points="272.83,-112.5 272.83,-131.5 351.83,-131.5 351.83,-112.5 272.83,-112.5"/>
<text text-anchor="middle" x="312.33" y="-119.5" font-family="Helvetica,sans-Serif" font-size="10.00">wx/msgdlg.h</text>
</a>
</g>
</g>
<!-- Node11&#45;&gt;Node12 -->
<g id="edge13" class="edge">
<title>Node11&#45;&gt;Node12</title>
<path fill="none" stroke="midnightblue" d="M319.01,-168.08C317.95,-160.93 316.42,-150.64 315.1,-141.69"/>
<polygon fill="midnightblue" stroke="midnightblue" points="318.55,-141.13 313.62,-131.75 311.63,-142.16 318.55,-141.13"/>
</g>
<!-- Node13 -->
<g id="node13" class="node">
<title>Node13</title>
<g id="a_node13"><a xlink:title=" ">
<polygon fill="white" stroke="#bfbfbf" points="196.33,-112.5 196.33,-131.5 254.33,-131.5 254.33,-112.5 196.33,-112.5"/>
<text text-anchor="middle" x="225.33" y="-119.5" font-family="Helvetica,sans-Serif" font-size="10.00">wx/log.h</text>
</a>
</g>
</g>
<!-- Node11&#45;&gt;Node13 -->
<g id="edge14" class="edge">
<title>Node11&#45;&gt;Node13</title>
<path fill="none" stroke="midnightblue" d="M305.06,-168.32C290.1,-159.82 267.07,-146.73 249.6,-136.8"/>
<polygon fill="midnightblue" stroke="midnightblue" points="250.98,-133.55 240.55,-131.65 247.52,-139.64 250.98,-133.55"/>
</g>
<!-- Node14&#45;&gt;Node3 -->
<g id="edge16" class="edge">
<title>Node14&#45;&gt;Node3</title>
<path fill="none" stroke="midnightblue" d="M871.59,-173.28C814.63,-166.99 699.93,-152.87 604.33,-132 568.65,-124.21 472.04,-95.13 418.08,-78.63"/>
<polygon fill="midnightblue" stroke="midnightblue" points="418.79,-75.18 408.21,-75.6 416.74,-81.88 418.79,-75.18"/>
</g>
<!-- Node14&#45;&gt;Node7 -->
<g id="edge18" class="edge">
<title>Node14&#45;&gt;Node7</title>
<path fill="none" stroke="midnightblue" d="M871.56,-172.98C791.02,-163.88 597.42,-141.75 532.33,-132 531.05,-131.81 529.76,-131.61 528.45,-131.41"/>
<polygon fill="midnightblue" stroke="midnightblue" points="528.77,-127.91 518.33,-129.74 527.63,-134.82 528.77,-127.91"/>
</g>
<!-- Node15 -->
<g id="node15" class="node">
<title>Node15</title>
<g id="a_node15"><a xlink:title=" ">
<polygon fill="white" stroke="#bfbfbf" points="742.33,-112.5 742.33,-131.5 814.33,-131.5 814.33,-112.5 742.33,-112.5"/>
<text text-anchor="middle" x="778.33" y="-119.5" font-family="Helvetica,sans-Serif" font-size="10.00">wx/colour.h</text>
</a>
</g>
</g>
<!-- Node14&#45;&gt;Node15 -->
<g id="edge17" class="edge">
<title>Node14&#45;&gt;Node15</title>
<path fill="none" stroke="midnightblue" d="M886.89,-168.44C865.66,-159.56 832.23,-145.56 808.07,-135.45"/>
<polygon fill="midnightblue" stroke="midnightblue" points="809.25,-132.15 798.67,-131.52 806.54,-138.61 809.25,-132.15"/>
</g>
<!-- Node16 -->
<g id="node16" class="node">
<title>Node16</title>
<g id="a_node16"><a xlink:title=" ">
<polygon fill="white" stroke="#bfbfbf" points="949.33,-56.5 949.33,-75.5 1011.33,-75.5 1011.33,-56.5 949.33,-56.5"/>
<text text-anchor="middle" x="980.33" y="-63.5" font-family="Helvetica,sans-Serif" font-size="10.00">wx/font.h</text>
</a>
</g>
</g>
<!-- Node14&#45;&gt;Node16 -->
<g id="edge19" class="edge">
<title>Node14&#45;&gt;Node16</title>
<path fill="none" stroke="midnightblue" d="M919.75,-168.3C930.7,-160.06 946.42,-146.77 956.33,-132 965.85,-117.8 972.2,-99.32 975.96,-85.7"/>
<polygon fill="midnightblue" stroke="midnightblue" points="979.46,-86.15 978.53,-75.6 972.67,-84.43 979.46,-86.15"/>
</g>
<!-- Node17 -->
<g id="node17" class="node">
<title>Node17</title>
<g id="a_node17"><a xlink:title=" ">
<polygon fill="white" stroke="#bfbfbf" points="832.33,-112.5 832.33,-131.5 914.33,-131.5 914.33,-112.5 832.33,-112.5"/>
<text text-anchor="middle" x="873.33" y="-119.5" font-family="Helvetica,sans-Serif" font-size="10.00">wx/settings.h</text>
</a>
</g>
</g>
<!-- Node14&#45;&gt;Node17 -->
<g id="edge20" class="edge">
<title>Node14&#45;&gt;Node17</title>
<path fill="none" stroke="midnightblue" d="M901.71,-168.08C896.96,-160.53 890.01,-149.49 884.17,-140.23"/>
<polygon fill="midnightblue" stroke="midnightblue" points="887.13,-138.35 878.84,-131.75 881.2,-142.08 887.13,-138.35"/>
</g>
<!-- Node18 -->
<g id="node18" class="node">
<title>Node18</title>
<g id="a_node18"><a xlink:title=" ">
<polygon fill="white" stroke="#bfbfbf" points="1029.33,-56.5 1029.33,-75.5 1079.33,-75.5 1079.33,-56.5 1029.33,-56.5"/>
<text text-anchor="middle" x="1054.33" y="-63.5" font-family="Helvetica,sans-Serif" font-size="10.00">cstdint</text>
</a>
</g>
</g>
<!-- Node14&#45;&gt;Node18 -->
<g id="edge21" class="edge">
<title>Node14&#45;&gt;Node18</title>
<path fill="none" stroke="midnightblue" d="M920.92,-168.39C934.64,-159.58 956.3,-145.33 974.33,-132 996.18,-115.84 1020.26,-95.97 1036.23,-82.49"/>
<polygon fill="midnightblue" stroke="midnightblue" points="1038.85,-84.86 1044.21,-75.72 1034.32,-79.52 1038.85,-84.86"/>
</g>
<!-- Node19 -->
<g id="node19" class="node">
<title>Node19</title>
<g id="a_node19"><a xlink:title=" ">
<polygon fill="white" stroke="#bfbfbf" points="1041.83,-0.5 1041.83,-19.5 1106.83,-19.5 1106.83,-0.5 1041.83,-0.5"/>
<text text-anchor="middle" x="1074.33" y="-7.5" font-family="Helvetica,sans-Serif" font-size="10.00">functional</text>
</a>
</g>
</g>
<!-- Node14&#45;&gt;Node19 -->
<g id="edge22" class="edge">
<title>Node14&#45;&gt;Node19</title>
<path fill="none" stroke="midnightblue" d="M913.57,-168.21C922.17,-154.93 935.31,-129.43 923.33,-112 895.77,-71.93 798.2,-93.36 829.33,-56 854.56,-25.71 968.15,-15.74 1031.42,-12.51"/>
<polygon fill="midnightblue" stroke="midnightblue" points="1031.68,-16 1041.5,-12.03 1031.34,-9.01 1031.68,-16"/>
</g>
<!-- Node20 -->
<g id="node20" class="node">
<title>Node20</title>
<g id="a_node20"><a xlink:href="FontAttribs_8h_source.html" target="_top" xlink:title=" ">
<polygon fill="white" stroke="black" points="1187.83,-112.5 1187.83,-131.5 1266.83,-131.5 1266.83,-112.5 1187.83,-112.5"/>
<text text-anchor="middle" x="1227.33" y="-119.5" font-family="Helvetica,sans-Serif" font-size="10.00">FontAttribs.h</text>
</a>
</g>
</g>
<!-- Node14&#45;&gt;Node20 -->
<g id="edge23" class="edge">
<title>Node14&#45;&gt;Node20</title>
<path fill="none" stroke="midnightblue" d="M943.1,-170.96C1000.38,-161.3 1112.82,-142.32 1177.79,-131.36"/>
<polygon fill="midnightblue" stroke="midnightblue" points="1178.51,-134.79 1187.79,-129.67 1177.35,-127.88 1178.51,-134.79"/>
</g>
<!-- Node28 -->
<g id="node28" class="node">
<title>Node28</title>
<g id="a_node28"><a xlink:href="FontVariantCache_8h.html" target="_top" xlink:title="This file implements the wxFont cache system.">
<polygon fill="white" stroke="black" points="612.83,-112.5 612.83,-131.5 723.83,-131.5 723.83,-112.5 612.83,-112.5"/>
<text text-anchor="middle" x="668.33" y="-119.5" font-family="Helvetica,sans-Serif" font-size="10.00">FontVariantCache.h</text>
</a>
</g>
</g>
<!-- Node14&#45;&gt;Node28 -->
<g id="edge36" class="edge">
<title>Node14&#45;&gt;Node28</title>
<path fill="none" stroke="midnightblue" d="M871.8,-168.97C830.46,-159.63 761.99,-144.16 716.04,-133.78"/>
<polygon fill="midnightblue" stroke="midnightblue" points="716.54,-130.31 706.02,-131.52 715,-137.13 716.54,-130.31"/>
</g>
<!-- Node20&#45;&gt;Node16 -->
<g id="edge30" class="edge">
<title>Node20&#45;&gt;Node16</title>
<path fill="none" stroke="midnightblue" d="M1187.62,-112.46C1147.98,-103.91 1085.02,-90.28 1021.17,-76.17"/>
<polygon fill="midnightblue" stroke="midnightblue" points="1021.85,-72.74 1011.33,-74 1020.34,-79.58 1021.85,-72.74"/>
</g>
<!-- Node20&#45;&gt;Node18 -->
<g id="edge33" class="edge">
<title>Node20&#45;&gt;Node18</title>
<path fill="none" stroke="midnightblue" d="M1199.91,-112.44C1169.87,-103.06 1121.6,-88 1088.95,-77.81"/>
<polygon fill="midnightblue" stroke="midnightblue" points="1089.95,-74.45 1079.36,-74.82 1087.87,-81.14 1089.95,-74.45"/>
</g>
<!-- Node20&#45;&gt;Node19 -->
<g id="edge34" class="edge">
<title>Node20&#45;&gt;Node19</title>
<path fill="none" stroke="midnightblue" d="M1265.28,-112.42C1303.19,-102.12 1352.83,-82.8 1330.33,-56 1303.61,-24.18 1182.87,-14.85 1117.19,-12.12"/>
<polygon fill="midnightblue" stroke="midnightblue" points="1117.27,-8.63 1107.15,-11.74 1117.01,-15.62 1117.27,-8.63"/>
</g>
<!-- Node21 -->
<g id="node21" class="node">
<title>Node21</title>
<g id="a_node21"><a xlink:href="EnumWrapper_8h_source.html" target="_top" xlink:title=" ">
<polygon fill="white" stroke="black" points="1377.33,-56.5 1377.33,-75.5 1471.33,-75.5 1471.33,-56.5 1377.33,-56.5"/>
<text text-anchor="middle" x="1424.33" y="-63.5" font-family="Helvetica,sans-Serif" font-size="10.00">EnumWrapper.h</text>
</a>
</g>
</g>
<!-- Node20&#45;&gt;Node21 -->
<g id="edge24" class="edge">
<title>Node20&#45;&gt;Node21</title>
<path fill="none" stroke="midnightblue" d="M1258.54,-112.44C1292.26,-103.2 1346.13,-88.44 1383.26,-78.26"/>
<polygon fill="midnightblue" stroke="midnightblue" points="1384.54,-81.54 1393.26,-75.52 1382.69,-74.78 1384.54,-81.54"/>
</g>
<!-- Node23 -->
<g id="node23" class="node">
<title>Node23</title>
<g id="a_node23"><a xlink:href="clamp_8hpp_source.html" target="_top" xlink:title=" ">
<polygon fill="white" stroke="black" points="1489.33,-56.5 1489.33,-75.5 1575.33,-75.5 1575.33,-56.5 1489.33,-56.5"/>
<text text-anchor="middle" x="1532.33" y="-63.5" font-family="Helvetica,sans-Serif" font-size="10.00">stx/clamp.hpp</text>
</a>
</g>
</g>
<!-- Node20&#45;&gt;Node23 -->
<g id="edge28" class="edge">
<title>Node20&#45;&gt;Node23</title>
<path fill="none" stroke="midnightblue" d="M1266.89,-114C1321.05,-104.41 1418.47,-87.16 1479.02,-76.44"/>
<polygon fill="midnightblue" stroke="midnightblue" points="1479.91,-79.83 1489.15,-74.64 1478.69,-72.94 1479.91,-79.83"/>
</g>
<!-- Node25 -->
<g id="node25" class="node">
<title>Node25</title>
<g id="a_node25"><a xlink:title=" ">
<polygon fill="white" stroke="#bfbfbf" points="1097.83,-56.5 1097.83,-75.5 1176.83,-75.5 1176.83,-56.5 1097.83,-56.5"/>
<text text-anchor="middle" x="1137.33" y="-63.5" font-family="Helvetica,sans-Serif" font-size="10.00">wx/version.h</text>
</a>
</g>
</g>
<!-- Node20&#45;&gt;Node25 -->
<g id="edge31" class="edge">
<title>Node20&#45;&gt;Node25</title>
<path fill="none" stroke="midnightblue" d="M1212.87,-112.32C1198.83,-103.9 1177.28,-90.97 1160.78,-81.07"/>
<polygon fill="midnightblue" stroke="midnightblue" points="1162.13,-77.8 1151.75,-75.65 1158.52,-83.8 1162.13,-77.8"/>
</g>
<!-- Node26 -->
<g id="node26" class="node">
<title>Node26</title>
<g id="a_node26"><a xlink:title=" ">
<polygon fill="white" stroke="#bfbfbf" points="1195.33,-56.5 1195.33,-75.5 1259.33,-75.5 1259.33,-56.5 1195.33,-56.5"/>
<text text-anchor="middle" x="1227.33" y="-63.5" font-family="Helvetica,sans-Serif" font-size="10.00">algorithm</text>
</a>
</g>
</g>
<!-- Node20&#45;&gt;Node26 -->
<g id="edge32" class="edge">
<title>Node20&#45;&gt;Node26</title>
<path fill="none" stroke="midnightblue" d="M1227.33,-112.08C1227.33,-105.01 1227.33,-94.86 1227.33,-85.99"/>
<polygon fill="midnightblue" stroke="midnightblue" points="1230.83,-85.75 1227.33,-75.75 1223.83,-85.75 1230.83,-85.75"/>
</g>
<!-- Node27 -->
<g id="node27" class="node">
<title>Node27</title>
<g id="a_node27"><a xlink:title=" ">
<polygon fill="white" stroke="#bfbfbf" points="1277.33,-56.5 1277.33,-75.5 1321.33,-75.5 1321.33,-56.5 1277.33,-56.5"/>
<text text-anchor="middle" x="1299.33" y="-63.5" font-family="Helvetica,sans-Serif" font-size="10.00">limits</text>
</a>
</g>
</g>
<!-- Node20&#45;&gt;Node27 -->
<g id="edge35" class="edge">
<title>Node20&#45;&gt;Node27</title>
<path fill="none" stroke="midnightblue" d="M1238.89,-112.32C1249.75,-104.18 1266.21,-91.84 1279.21,-82.09"/>
<polygon fill="midnightblue" stroke="midnightblue" points="1281.65,-84.63 1287.55,-75.83 1277.45,-79.03 1281.65,-84.63"/>
</g>
<!-- Node21&#45;&gt;Node2 -->
<g id="edge25" class="edge">
<title>Node21&#45;&gt;Node2</title>
<path fill="none" stroke="midnightblue" d="M1452.69,-56.44C1483.51,-47.15 1532.86,-32.26 1566.62,-22.07"/>
<polygon fill="midnightblue" stroke="midnightblue" points="1567.99,-25.31 1576.56,-19.08 1565.97,-18.61 1567.99,-25.31"/>
</g>
<!-- Node21&#45;&gt;Node19 -->
<g id="edge26" class="edge">
<title>Node21&#45;&gt;Node19</title>
<path fill="none" stroke="midnightblue" d="M1377.12,-57.72C1308.76,-47.17 1183.17,-27.79 1117.27,-17.63"/>
<polygon fill="midnightblue" stroke="midnightblue" points="1117.65,-14.14 1107.23,-16.08 1116.58,-21.06 1117.65,-14.14"/>
</g>
<!-- Node22 -->
<g id="node22" class="node">
<title>Node22</title>
<g id="a_node22"><a xlink:title=" ">
<polygon fill="white" stroke="#bfbfbf" points="1389.83,-0.5 1389.83,-19.5 1458.83,-19.5 1458.83,-0.5 1389.83,-0.5"/>
<text text-anchor="middle" x="1424.33" y="-7.5" font-family="Helvetica,sans-Serif" font-size="10.00">type_traits</text>
</a>
</g>
</g>
<!-- Node21&#45;&gt;Node22 -->
<g id="edge27" class="edge">
<title>Node21&#45;&gt;Node22</title>
<path fill="none" stroke="midnightblue" d="M1424.33,-56.08C1424.33,-49.01 1424.33,-38.86 1424.33,-29.99"/>
<polygon fill="midnightblue" stroke="midnightblue" points="1427.83,-29.75 1424.33,-19.75 1420.83,-29.75 1427.83,-29.75"/>
</g>
<!-- Node24 -->
<g id="node24" class="node">
<title>Node24</title>
<g id="a_node24"><a xlink:title=" ">
<polygon fill="white" stroke="#bfbfbf" points="1506.33,-0.5 1506.33,-19.5 1558.33,-19.5 1558.33,-0.5 1506.33,-0.5"/>
<text text-anchor="middle" x="1532.33" y="-7.5" font-family="Helvetica,sans-Serif" font-size="10.00">cassert</text>
</a>
</g>
</g>
<!-- Node23&#45;&gt;Node24 -->
<g id="edge29" class="edge">
<title>Node23&#45;&gt;Node24</title>
<path fill="none" stroke="midnightblue" d="M1532.33,-56.08C1532.33,-49.01 1532.33,-38.86 1532.33,-29.99"/>
<polygon fill="midnightblue" stroke="midnightblue" points="1535.83,-29.75 1532.33,-19.75 1528.83,-29.75 1535.83,-29.75"/>
</g>
<!-- Node28&#45;&gt;Node3 -->
<g id="edge37" class="edge">
<title>Node28&#45;&gt;Node3</title>
<path fill="none" stroke="midnightblue" d="M622.69,-112.44C568.3,-102.25 478.06,-85.32 424.38,-75.26"/>
<polygon fill="midnightblue" stroke="midnightblue" points="424.95,-71.81 414.47,-73.4 423.66,-78.69 424.95,-71.81"/>
</g>
<!-- Node28&#45;&gt;Node16 -->
<g id="edge39" class="edge">
<title>Node28&#45;&gt;Node16</title>
<path fill="none" stroke="midnightblue" d="M723.97,-112.75C776.81,-104.7 858.69,-91.67 938.67,-76.24"/>
<polygon fill="midnightblue" stroke="midnightblue" points="939.77,-79.59 948.92,-74.25 938.43,-72.72 939.77,-79.59"/>
</g>
<!-- Node28&#45;&gt;Node19 -->
<g id="edge40" class="edge">
<title>Node28&#45;&gt;Node19</title>
<path fill="none" stroke="midnightblue" d="M681.8,-112.29C704.34,-98.15 751.54,-70.34 795.33,-56 876.36,-29.46 975.96,-18.22 1031.57,-13.73"/>
<polygon fill="midnightblue" stroke="midnightblue" points="1032.05,-17.2 1041.75,-12.95 1031.51,-10.22 1032.05,-17.2"/>
</g>
<!-- Node28&#45;&gt;Node29 -->
<g id="edge38" class="edge">
<title>Node28&#45;&gt;Node29</title>
<path fill="none" stroke="midnightblue" d="M642.34,-112.44C614.63,-103.32 570.57,-88.81 539.71,-78.65"/>
<polygon fill="midnightblue" stroke="midnightblue" points="540.78,-75.32 530.19,-75.52 538.59,-81.97 540.78,-75.32"/>
</g>
<!-- Node28&#45;&gt;Node30 -->
<g id="edge41" class="edge">
<title>Node28&#45;&gt;Node30</title>
<path fill="none" stroke="midnightblue" d="M656.92,-112.32C646.22,-104.18 629.99,-91.84 617.16,-82.09"/>
<polygon fill="midnightblue" stroke="midnightblue" points="619.02,-79.1 608.94,-75.83 614.78,-84.67 619.02,-79.1"/>
</g>
<!-- Node31 -->
<g id="node31" class="node">
<title>Node31</title>
<g id="a_node31"><a xlink:title=" ">
<polygon fill="white" stroke="#bfbfbf" points="645.83,-56.5 645.83,-75.5 690.83,-75.5 690.83,-56.5 645.83,-56.5"/>
<text text-anchor="middle" x="668.33" y="-63.5" font-family="Helvetica,sans-Serif" font-size="10.00">utility</text>
</a>
</g>
</g>
<!-- Node28&#45;&gt;Node31 -->
<g id="edge42" class="edge">
<title>Node28&#45;&gt;Node31</title>
<path fill="none" stroke="midnightblue" d="M668.33,-112.08C668.33,-105.01 668.33,-94.86 668.33,-85.99"/>
<polygon fill="midnightblue" stroke="midnightblue" points="671.83,-85.75 668.33,-75.75 664.83,-85.75 671.83,-85.75"/>
</g>
<!-- Node28&#45;&gt;Node32 -->
<g id="edge43" class="edge">
<title>Node28&#45;&gt;Node32</title>
<path fill="none" stroke="midnightblue" d="M702.55,-112.44C739.84,-103.12 799.6,-88.18 840.34,-78"/>
<polygon fill="midnightblue" stroke="midnightblue" points="841.41,-81.34 850.26,-75.52 839.71,-74.55 841.41,-81.34"/>
</g>
</g>
</svg>
