<?xml version="1.0" encoding="UTF-8" standalone="no"?>
<!DOCTYPE svg PUBLIC "-//W3C//DTD SVG 1.1//EN"
 "http://www.w3.org/Graphics/SVG/1.1/DTD/svg11.dtd">
<!-- Generated by graphviz version 2.43.0 (0)
 -->
<!-- Title: src/wxMaximaIcon.h Pages: 1 -->
<svg width="2367pt" height="357pt"
 viewBox="0.00 0.00 2366.50 357.00" xmlns="http://www.w3.org/2000/svg" xmlns:xlink="http://www.w3.org/1999/xlink">
<g id="graph0" class="graph" transform="scale(1 1) rotate(0) translate(4 353)">
<title>src/wxMaximaIcon.h</title>
<!-- Node1 -->
<g id="node1" class="node">
<title>Node1</title>
<g id="a_node1"><a xlink:title="This file declares the function that returns the wxMaxima icon.">
<polygon fill="#999999" stroke="#666666" points="792,-349 675,-349 675,-330 792,-330 792,-349"/>
<text text-anchor="middle" x="733.5" y="-337" font-family="Helvetica,sans-Serif" font-size="10.00">src/wxMaximaIcon.h</text>
</a>
</g>
</g>
<!-- Node2 -->
<g id="node2" class="node">
<title>Node2</title>
<g id="a_node2"><a xlink:href="Cell_8h.html" target="_top" xlink:title="The definition of the base class of all cells the worksheet consists of.">
<polygon fill="white" stroke="#666666" points="640.5,-294 570.5,-294 570.5,-275 640.5,-275 640.5,-294"/>
<text text-anchor="middle" x="605.5" y="-282" font-family="Helvetica,sans-Serif" font-size="10.00">cells/Cell.h</text>
</a>
</g>
</g>
<!-- Node1&#45;&gt;Node2 -->
<g id="edge1" class="edge">
<title>Node1&#45;&gt;Node2</title>
<path fill="none" stroke="#63b8ff" d="M712.93,-329.98C692.07,-321.34 659.53,-307.87 635.73,-298.02"/>
<polygon fill="#63b8ff" stroke="#63b8ff" points="637.02,-294.76 626.44,-294.17 634.34,-301.23 637.02,-294.76"/>
</g>
<!-- Node61 -->
<g id="node48" class="node">
<title>Node61</title>
<g id="a_node48"><a xlink:title=" ">
<polygon fill="#e0e0e0" stroke="#999999" points="722,-294 659,-294 659,-275 722,-275 722,-294"/>
<text text-anchor="middle" x="690.5" y="-282" font-family="Helvetica,sans-Serif" font-size="10.00">wx/icon.h</text>
</a>
</g>
</g>
<!-- Node1&#45;&gt;Node61 -->
<g id="edge84" class="edge">
<title>Node1&#45;&gt;Node61</title>
<path fill="none" stroke="#63b8ff" d="M726.4,-329.75C720.33,-322.26 711.41,-311.28 703.99,-302.13"/>
<polygon fill="#63b8ff" stroke="#63b8ff" points="706.49,-299.65 697.47,-294.09 701.05,-304.06 706.49,-299.65"/>
</g>
<!-- Node62 -->
<g id="node49" class="node">
<title>Node62</title>
<g id="a_node49"><a xlink:title=" ">
<polygon fill="#e0e0e0" stroke="#999999" points="814.5,-294 740.5,-294 740.5,-275 814.5,-275 814.5,-294"/>
<text text-anchor="middle" x="777.5" y="-282" font-family="Helvetica,sans-Serif" font-size="10.00">wx/image.h</text>
</a>
</g>
</g>
<!-- Node1&#45;&gt;Node62 -->
<g id="edge85" class="edge">
<title>Node1&#45;&gt;Node62</title>
<path fill="none" stroke="#63b8ff" d="M740.77,-329.75C747.04,-322.18 756.29,-311.05 763.93,-301.84"/>
<polygon fill="#63b8ff" stroke="#63b8ff" points="766.67,-304.02 770.37,-294.09 761.29,-299.55 766.67,-304.02"/>
</g>
<!-- Node63 -->
<g id="node50" class="node">
<title>Node63</title>
<g id="a_node50"><a xlink:title=" ">
<polygon fill="#e0e0e0" stroke="#999999" points="910,-294 833,-294 833,-275 910,-275 910,-294"/>
<text text-anchor="middle" x="871.5" y="-282" font-family="Helvetica,sans-Serif" font-size="10.00">wx/bitmap.h</text>
</a>
</g>
</g>
<!-- Node1&#45;&gt;Node63 -->
<g id="edge86" class="edge">
<title>Node1&#45;&gt;Node63</title>
<path fill="none" stroke="#63b8ff" d="M755.67,-329.98C778.27,-321.3 813.56,-307.75 839.25,-297.88"/>
<polygon fill="#63b8ff" stroke="#63b8ff" points="840.84,-301.02 848.92,-294.17 838.33,-294.49 840.84,-301.02"/>
</g>
<!-- Node3 -->
<g id="node3" class="node">
<title>Node3</title>
<g id="a_node3"><a xlink:href="precomp_8h_source.html" target="_top" xlink:title=" ">
<polygon fill="white" stroke="#666666" points="2091,-74 2014,-74 2014,-55 2091,-55 2091,-74"/>
<text text-anchor="middle" x="2052.5" y="-62" font-family="Helvetica,sans-Serif" font-size="10.00">../precomp.h</text>
</a>
</g>
</g>
<!-- Node2&#45;&gt;Node3 -->
<g id="edge2" class="edge">
<title>Node2&#45;&gt;Node3</title>
<path fill="none" stroke="#63b8ff" d="M640.8,-276.37C644.07,-275.85 647.34,-275.38 650.5,-275 955.4,-238.42 1034.06,-258.83 1340.5,-239 1498.86,-228.75 1927.7,-282.02 2052.5,-184 2079.12,-163.09 2076.97,-143.22 2070.5,-110 2068.71,-100.8 2065.02,-91.09 2061.44,-83.1"/>
<polygon fill="#63b8ff" stroke="#63b8ff" points="2064.59,-81.57 2057.12,-74.06 2058.27,-84.59 2064.59,-81.57"/>
</g>
<!-- Node5 -->
<g id="node5" class="node">
<title>Node5</title>
<g id="a_node5"><a xlink:href="CellPtr_8h.html" target="_top" xlink:title="Implementation of an observing weak Cell pointer.">
<polygon fill="white" stroke="#666666" points="425,-184 368,-184 368,-165 425,-165 425,-184"/>
<text text-anchor="middle" x="396.5" y="-172" font-family="Helvetica,sans-Serif" font-size="10.00">CellPtr.h</text>
</a>
</g>
</g>
<!-- Node2&#45;&gt;Node5 -->
<g id="edge4" class="edge">
<title>Node2&#45;&gt;Node5</title>
<path fill="none" stroke="#63b8ff" d="M570.39,-281.21C534.55,-277.34 478.75,-266.95 439.5,-239 423.44,-227.57 411.57,-208.12 404.42,-193.75"/>
<polygon fill="#63b8ff" stroke="#63b8ff" points="407.45,-191.96 400.06,-184.37 401.1,-194.91 407.45,-191.96"/>
</g>
<!-- Node12 -->
<g id="node12" class="node">
<title>Node12</title>
<g id="a_node12"><a xlink:title=" ">
<polygon fill="#e0e0e0" stroke="#999999" points="573.5,-129 515.5,-129 515.5,-110 573.5,-110 573.5,-129"/>
<text text-anchor="middle" x="544.5" y="-117" font-family="Helvetica,sans-Serif" font-size="10.00">memory</text>
</a>
</g>
</g>
<!-- Node2&#45;&gt;Node12 -->
<g id="edge81" class="edge">
<title>Node2&#45;&gt;Node12</title>
<path fill="none" stroke="#63b8ff" d="M570.24,-275.76C550.48,-269.42 527.46,-258.25 515.5,-239 495.57,-206.92 517.48,-162.03 532.61,-137.75"/>
<polygon fill="#63b8ff" stroke="#63b8ff" points="535.62,-139.53 538.16,-129.24 529.76,-135.7 535.62,-139.53"/>
</g>
<!-- Node13 -->
<g id="node13" class="node">
<title>Node13</title>
<g id="a_node13"><a xlink:title=" ">
<polygon fill="#e0e0e0" stroke="#999999" points="140,-129 71,-129 71,-110 140,-110 140,-129"/>
<text text-anchor="middle" x="105.5" y="-117" font-family="Helvetica,sans-Serif" font-size="10.00">type_traits</text>
</a>
</g>
</g>
<!-- Node2&#45;&gt;Node13 -->
<g id="edge83" class="edge">
<title>Node2&#45;&gt;Node13</title>
<path fill="none" stroke="#63b8ff" d="M570.48,-280.06C474.36,-270 209.16,-237.88 142.5,-184 127.95,-172.24 117.93,-153.12 112.02,-138.93"/>
<polygon fill="#63b8ff" stroke="#63b8ff" points="115.15,-137.32 108.3,-129.24 108.62,-139.83 115.15,-137.32"/>
</g>
<!-- Node14 -->
<g id="node14" class="node">
<title>Node14</title>
<g id="a_node14"><a xlink:href="CellIterators_8h.html" target="_top" xlink:title="Declares the various iterators useful with the Cell class.">
<polygon fill="white" stroke="#666666" points="237.5,-184 151.5,-184 151.5,-165 237.5,-165 237.5,-184"/>
<text text-anchor="middle" x="194.5" y="-172" font-family="Helvetica,sans-Serif" font-size="10.00">CellIterators.h</text>
</a>
</g>
</g>
<!-- Node2&#45;&gt;Node14 -->
<g id="edge13" class="edge">
<title>Node2&#45;&gt;Node14</title>
<path fill="none" stroke="#63b8ff" d="M570.3,-278.39C524.68,-271.39 442.89,-257.54 374.5,-239 320.85,-224.46 260.23,-201.71 224.81,-187.76"/>
<polygon fill="#63b8ff" stroke="#63b8ff" points="226.1,-184.5 215.51,-184.07 223.52,-191.01 226.1,-184.5"/>
</g>
<!-- Node16 -->
<g id="node16" class="node">
<title>Node16</title>
<g id="a_node16"><a xlink:href="Configuration_8h_source.html" target="_top" xlink:title=" ">
<polygon fill="white" stroke="#666666" points="1331,-239 1240,-239 1240,-220 1331,-220 1331,-239"/>
<text text-anchor="middle" x="1285.5" y="-227" font-family="Helvetica,sans-Serif" font-size="10.00">Configuration.h</text>
</a>
</g>
</g>
<!-- Node2&#45;&gt;Node16 -->
<g id="edge18" class="edge">
<title>Node2&#45;&gt;Node16</title>
<path fill="none" stroke="#63b8ff" d="M640.81,-276.43C644.08,-275.89 647.35,-275.41 650.5,-275 863.39,-247.53 1118.78,-236.13 1229.62,-232.22"/>
<polygon fill="#63b8ff" stroke="#63b8ff" points="1230.02,-235.71 1239.89,-231.87 1229.78,-228.72 1230.02,-235.71"/>
</g>
<!-- Node24 -->
<g id="node23" class="node">
<title>Node24</title>
<g id="a_node23"><a xlink:href="TextStyle_8h.html" target="_top" xlink:title="This file declares everything needed for the text style system used to style all the elements on the ...">
<polygon fill="#fff0f0" stroke="red" points="891.5,-129 795.5,-129 795.5,-110 891.5,-110 891.5,-129"/>
<text text-anchor="middle" x="843.5" y="-117" font-family="Helvetica,sans-Serif" font-size="10.00">cells/TextStyle.h</text>
</a>
</g>
</g>
<!-- Node2&#45;&gt;Node24 -->
<g id="edge73" class="edge">
<title>Node2&#45;&gt;Node24</title>
<path fill="none" stroke="#63b8ff" d="M600.64,-274.83C589.36,-253.4 564.34,-197.38 591.5,-165 603.87,-150.26 714.89,-135.09 785.38,-126.82"/>
<polygon fill="#63b8ff" stroke="#63b8ff" points="785.94,-130.28 795.47,-125.66 785.14,-123.33 785.94,-130.28"/>
</g>
<!-- Node26 -->
<g id="node25" class="node">
<title>Node26</title>
<g id="a_node25"><a xlink:title=" ">
<polygon fill="#e0e0e0" stroke="#999999" points="2147.5,-74 2109.5,-74 2109.5,-55 2147.5,-55 2147.5,-74"/>
<text text-anchor="middle" x="2128.5" y="-62" font-family="Helvetica,sans-Serif" font-size="10.00">map</text>
</a>
</g>
</g>
<!-- Node2&#45;&gt;Node26 -->
<g id="edge80" class="edge">
<title>Node2&#45;&gt;Node26</title>
<path fill="none" stroke="#63b8ff" d="M640.8,-276.31C644.07,-275.8 647.34,-275.35 650.5,-275 1100,-224.88 1216.84,-277.33 1667.5,-239 1849.38,-223.53 1927.96,-292.83 2074.5,-184 2107.22,-159.7 2120.63,-110.87 2125.71,-84.1"/>
<polygon fill="#63b8ff" stroke="#63b8ff" points="2129.18,-84.56 2127.4,-74.12 2122.28,-83.39 2129.18,-84.56"/>
</g>
<!-- Node35 -->
<g id="node34" class="node">
<title>Node35</title>
<g id="a_node34"><a xlink:title=" ">
<polygon fill="#e0e0e0" stroke="#999999" points="973.5,-129 909.5,-129 909.5,-110 973.5,-110 973.5,-129"/>
<text text-anchor="middle" x="941.5" y="-117" font-family="Helvetica,sans-Serif" font-size="10.00">algorithm</text>
</a>
</g>
</g>
<!-- Node2&#45;&gt;Node35 -->
<g id="edge79" class="edge">
<title>Node2&#45;&gt;Node35</title>
<path fill="none" stroke="#63b8ff" d="M606.92,-274.9C611.09,-252.64 625.46,-192.92 663.5,-165 746.79,-103.87 792.8,-145.14 899.16,-129.03"/>
<polygon fill="#63b8ff" stroke="#63b8ff" points="900.01,-132.43 909.3,-127.35 898.86,-125.53 900.01,-132.43"/>
</g>
<!-- Node51 -->
<g id="node37" class="node">
<title>Node51</title>
<g id="a_node37"><a xlink:title=" ">
<polygon fill="#e0e0e0" stroke="#999999" points="1039,-129 992,-129 992,-110 1039,-110 1039,-129"/>
<text text-anchor="middle" x="1015.5" y="-117" font-family="Helvetica,sans-Serif" font-size="10.00">vector</text>
</a>
</g>
</g>
<!-- Node2&#45;&gt;Node51 -->
<g id="edge82" class="edge">
<title>Node2&#45;&gt;Node51</title>
<path fill="none" stroke="#63b8ff" d="M632.19,-274.91C681.99,-258.66 792.19,-221.67 882.5,-184 920.57,-168.12 963.43,-147.06 989.95,-133.64"/>
<polygon fill="#63b8ff" stroke="#63b8ff" points="991.62,-136.72 998.95,-129.07 988.45,-130.48 991.62,-136.72"/>
</g>
<!-- Node57 -->
<g id="node44" class="node">
<title>Node57</title>
<g id="a_node44"><a xlink:href="StringUtils_8h_source.html" target="_top" xlink:title=" ">
<polygon fill="white" stroke="#666666" points="2276,-239 2199,-239 2199,-220 2276,-220 2276,-239"/>
<text text-anchor="middle" x="2237.5" y="-227" font-family="Helvetica,sans-Serif" font-size="10.00">StringUtils.h</text>
</a>
</g>
</g>
<!-- Node2&#45;&gt;Node57 -->
<g id="edge70" class="edge">
<title>Node2&#45;&gt;Node57</title>
<path fill="none" stroke="#63b8ff" d="M640.79,-276.27C644.06,-275.77 647.34,-275.33 650.5,-275 1326.93,-203.64 1502.81,-297.27 2180.5,-239 2183.21,-238.77 2185.99,-238.49 2188.79,-238.17"/>
<polygon fill="#63b8ff" stroke="#63b8ff" points="2189.45,-241.62 2198.94,-236.91 2188.59,-234.67 2189.45,-241.62"/>
</g>
<!-- Node59 -->
<g id="node46" class="node">
<title>Node59</title>
<g id="a_node46"><a xlink:href="CachedValue_8h.html" target="_top" xlink:title="Declares &quot;mostly read&#45;only&quot; wrappers around values that are expensive to compute and are thus cached.">
<polygon fill="#fff0f0" stroke="red" points="350,-184 261,-184 261,-165 350,-165 350,-184"/>
<text text-anchor="middle" x="305.5" y="-172" font-family="Helvetica,sans-Serif" font-size="10.00">CachedValue.h</text>
</a>
</g>
</g>
<!-- Node2&#45;&gt;Node59 -->
<g id="edge74" class="edge">
<title>Node2&#45;&gt;Node59</title>
<path fill="none" stroke="#63b8ff" d="M570.3,-278.24C531.84,-271.79 468.86,-259.16 417.5,-239 384,-225.85 348.34,-204.12 326.48,-189.81"/>
<polygon fill="#63b8ff" stroke="#63b8ff" points="328.28,-186.8 318.01,-184.18 324.4,-192.63 328.28,-186.8"/>
</g>
<!-- Node60 -->
<g id="node47" class="node">
<title>Node60</title>
<g id="a_node47"><a xlink:title=" ">
<polygon fill="#e0e0e0" stroke="#999999" points="2358.5,-239 2294.5,-239 2294.5,-220 2358.5,-220 2358.5,-239"/>
<text text-anchor="middle" x="2326.5" y="-227" font-family="Helvetica,sans-Serif" font-size="10.00">wx/defs.h</text>
</a>
</g>
</g>
<!-- Node2&#45;&gt;Node60 -->
<g id="edge78" class="edge">
<title>Node2&#45;&gt;Node60</title>
<path fill="none" stroke="#63b8ff" d="M640.79,-276.27C644.06,-275.77 647.34,-275.33 650.5,-275 1370.04,-199.64 1561.54,-319.99 2284.22,-238.89"/>
<polygon fill="#63b8ff" stroke="#63b8ff" points="2284.82,-242.34 2294.36,-237.74 2284.03,-235.39 2284.82,-242.34"/>
</g>
<!-- Node4 -->
<g id="node4" class="node">
<title>Node4</title>
<g id="a_node4"><a xlink:title=" ">
<polygon fill="#e0e0e0" stroke="#999999" points="2093,-19 2012,-19 2012,0 2093,0 2093,-19"/>
<text text-anchor="middle" x="2052.5" y="-7" font-family="Helvetica,sans-Serif" font-size="10.00">BuildConfig.h</text>
</a>
</g>
</g>
<!-- Node3&#45;&gt;Node4 -->
<g id="edge3" class="edge">
<title>Node3&#45;&gt;Node4</title>
<path fill="none" stroke="#63b8ff" d="M2052.5,-54.75C2052.5,-47.8 2052.5,-37.85 2052.5,-29.13"/>
<polygon fill="#63b8ff" stroke="#63b8ff" points="2056,-29.09 2052.5,-19.09 2049,-29.09 2056,-29.09"/>
</g>
<!-- Node6 -->
<g id="node6" class="node">
<title>Node6</title>
<g id="a_node6"><a xlink:title=" ">
<polygon fill="#e0e0e0" stroke="#999999" points="231,-129 158,-129 158,-110 231,-110 231,-129"/>
<text text-anchor="middle" x="194.5" y="-117" font-family="Helvetica,sans-Serif" font-size="10.00">wx/debug.h</text>
</a>
</g>
</g>
<!-- Node5&#45;&gt;Node6 -->
<g id="edge5" class="edge">
<title>Node5&#45;&gt;Node6</title>
<path fill="none" stroke="#63b8ff" d="M367.99,-166.02C333.87,-157.07 276.44,-142 237.06,-131.67"/>
<polygon fill="#63b8ff" stroke="#63b8ff" points="237.78,-128.24 227.22,-129.08 236,-135.01 237.78,-128.24"/>
</g>
<!-- Node7 -->
<g id="node7" class="node">
<title>Node7</title>
<g id="a_node7"><a xlink:title=" ">
<polygon fill="#e0e0e0" stroke="#999999" points="459.5,-129 401.5,-129 401.5,-110 459.5,-110 459.5,-129"/>
<text text-anchor="middle" x="430.5" y="-117" font-family="Helvetica,sans-Serif" font-size="10.00">wx/log.h</text>
</a>
</g>
</g>
<!-- Node5&#45;&gt;Node7 -->
<g id="edge6" class="edge">
<title>Node5&#45;&gt;Node7</title>
<path fill="none" stroke="#63b8ff" d="M402.11,-164.75C406.82,-157.42 413.67,-146.73 419.47,-137.7"/>
<polygon fill="#63b8ff" stroke="#63b8ff" points="422.54,-139.4 424.99,-129.09 416.64,-135.62 422.54,-139.4"/>
</g>
<!-- Node8 -->
<g id="node8" class="node">
<title>Node8</title>
<g id="a_node8"><a xlink:title=" ">
<polygon fill="#e0e0e0" stroke="#999999" points="748,-129 703,-129 703,-110 748,-110 748,-129"/>
<text text-anchor="middle" x="725.5" y="-117" font-family="Helvetica,sans-Serif" font-size="10.00">utility</text>
</a>
</g>
</g>
<!-- Node5&#45;&gt;Node8 -->
<g id="edge7" class="edge">
<title>Node5&#45;&gt;Node8</title>
<path fill="none" stroke="#63b8ff" d="M425.12,-168.89C486.13,-159.06 628.66,-136.1 692.98,-125.74"/>
<polygon fill="#63b8ff" stroke="#63b8ff" points="693.66,-129.18 702.97,-124.13 692.54,-122.26 693.66,-129.18"/>
</g>
<!-- Node9 -->
<g id="node9" class="node">
<title>Node9</title>
<g id="a_node9"><a xlink:title=" ">
<polygon fill="#e0e0e0" stroke="#999999" points="383,-129 330,-129 330,-110 383,-110 383,-129"/>
<text text-anchor="middle" x="356.5" y="-117" font-family="Helvetica,sans-Serif" font-size="10.00">cstddef</text>
</a>
</g>
</g>
<!-- Node5&#45;&gt;Node9 -->
<g id="edge8" class="edge">
<title>Node5&#45;&gt;Node9</title>
<path fill="none" stroke="#63b8ff" d="M389.89,-164.75C384.24,-157.26 375.96,-146.28 369.05,-137.13"/>
<polygon fill="#63b8ff" stroke="#63b8ff" points="371.8,-134.96 362.98,-129.09 366.21,-139.18 371.8,-134.96"/>
</g>
<!-- Node10 -->
<g id="node10" class="node">
<title>Node10</title>
<g id="a_node10"><a xlink:title=" ">
<polygon fill="#e0e0e0" stroke="#999999" points="625.5,-74 575.5,-74 575.5,-55 625.5,-55 625.5,-74"/>
<text text-anchor="middle" x="600.5" y="-62" font-family="Helvetica,sans-Serif" font-size="10.00">cstdint</text>
</a>
</g>
</g>
<!-- Node5&#45;&gt;Node10 -->
<g id="edge9" class="edge">
<title>Node5&#45;&gt;Node10</title>
<path fill="none" stroke="#63b8ff" d="M410.53,-164.91C431.25,-152.34 471.35,-128.43 506.5,-110 528.15,-98.65 553.2,-86.86 571.99,-78.27"/>
<polygon fill="#63b8ff" stroke="#63b8ff" points="573.53,-81.41 581.19,-74.08 570.64,-75.03 573.53,-81.41"/>
</g>
<!-- Node11 -->
<g id="node11" class="node">
<title>Node11</title>
<g id="a_node11"><a xlink:title=" ">
<polygon fill="#e0e0e0" stroke="#999999" points="311.5,-129 249.5,-129 249.5,-110 311.5,-110 311.5,-129"/>
<text text-anchor="middle" x="280.5" y="-117" font-family="Helvetica,sans-Serif" font-size="10.00">cinttypes</text>
</a>
</g>
</g>
<!-- Node5&#45;&gt;Node11 -->
<g id="edge10" class="edge">
<title>Node5&#45;&gt;Node11</title>
<path fill="none" stroke="#63b8ff" d="M377.86,-164.98C359.2,-156.46 330.25,-143.23 308.76,-133.41"/>
<polygon fill="#63b8ff" stroke="#63b8ff" points="310.03,-130.14 299.48,-129.17 307.12,-136.51 310.03,-130.14"/>
</g>
<!-- Node5&#45;&gt;Node12 -->
<g id="edge11" class="edge">
<title>Node5&#45;&gt;Node12</title>
<path fill="none" stroke="#63b8ff" d="M420.28,-164.98C444.73,-156.23 483.03,-142.51 510.65,-132.62"/>
<polygon fill="#63b8ff" stroke="#63b8ff" points="512.05,-135.84 520.29,-129.17 509.69,-129.25 512.05,-135.84"/>
</g>
<!-- Node5&#45;&gt;Node13 -->
<g id="edge12" class="edge">
<title>Node5&#45;&gt;Node13</title>
<path fill="none" stroke="#63b8ff" d="M367.9,-166.94C364.73,-166.26 361.55,-165.6 358.5,-165 268.68,-147.27 243.29,-146.23 150.07,-129.25"/>
<polygon fill="#63b8ff" stroke="#63b8ff" points="150.69,-125.8 140.22,-127.44 149.42,-132.69 150.69,-125.8"/>
</g>
<!-- Node14&#45;&gt;Node6 -->
<g id="edge14" class="edge">
<title>Node14&#45;&gt;Node6</title>
<path fill="none" stroke="#63b8ff" d="M194.5,-164.75C194.5,-157.8 194.5,-147.85 194.5,-139.13"/>
<polygon fill="#63b8ff" stroke="#63b8ff" points="198,-139.09 194.5,-129.09 191,-139.09 198,-139.09"/>
</g>
<!-- Node14&#45;&gt;Node12 -->
<g id="edge15" class="edge">
<title>Node14&#45;&gt;Node12</title>
<path fill="none" stroke="#63b8ff" d="M237.77,-166.95C306.34,-156.56 438.97,-136.48 505.07,-126.47"/>
<polygon fill="#63b8ff" stroke="#63b8ff" points="505.72,-129.91 515.09,-124.95 504.67,-122.99 505.72,-129.91"/>
</g>
<!-- Node14&#45;&gt;Node13 -->
<g id="edge16" class="edge">
<title>Node14&#45;&gt;Node13</title>
<path fill="none" stroke="#63b8ff" d="M180.2,-164.98C166.4,-156.77 145.26,-144.18 128.99,-134.49"/>
<polygon fill="#63b8ff" stroke="#63b8ff" points="130.44,-131.28 120.06,-129.17 126.86,-137.29 130.44,-131.28"/>
</g>
<!-- Node15 -->
<g id="node15" class="node">
<title>Node15</title>
<g id="a_node15"><a xlink:title=" ">
<polygon fill="#e0e0e0" stroke="#999999" points="53,-129 0,-129 0,-110 53,-110 53,-129"/>
<text text-anchor="middle" x="26.5" y="-117" font-family="Helvetica,sans-Serif" font-size="10.00">iterator</text>
</a>
</g>
</g>
<!-- Node14&#45;&gt;Node15 -->
<g id="edge17" class="edge">
<title>Node14&#45;&gt;Node15</title>
<path fill="none" stroke="#63b8ff" d="M167.51,-164.98C139.14,-156.03 94.33,-141.9 62.86,-131.97"/>
<polygon fill="#63b8ff" stroke="#63b8ff" points="63.74,-128.58 53.15,-128.91 61.63,-135.25 63.74,-128.58"/>
</g>
<!-- Node16&#45;&gt;Node3 -->
<g id="edge19" class="edge">
<title>Node16&#45;&gt;Node3</title>
<path fill="none" stroke="#63b8ff" d="M1331.22,-229.02C1485.53,-230.33 1980.35,-230.81 2032.5,-184 2060.36,-158.99 2058.99,-110.82 2055.68,-84.24"/>
<polygon fill="#63b8ff" stroke="#63b8ff" points="2059.09,-83.39 2054.17,-74.01 2052.17,-84.41 2059.09,-83.39"/>
</g>
<!-- Node16&#45;&gt;Node10 -->
<g id="edge58" class="edge">
<title>Node16&#45;&gt;Node10</title>
<path fill="none" stroke="#63b8ff" d="M1239.73,-228.07C1101.69,-226.38 696.05,-218.51 648.5,-184 616.12,-160.5 605.54,-111.34 602.12,-84.31"/>
<polygon fill="#63b8ff" stroke="#63b8ff" points="605.58,-83.8 601.04,-74.22 598.62,-84.54 605.58,-83.8"/>
</g>
<!-- Node16&#45;&gt;Node12 -->
<g id="edge59" class="edge">
<title>Node16&#45;&gt;Node12</title>
<path fill="none" stroke="#63b8ff" d="M1239.85,-229.01C1087.6,-230.25 603.88,-230.49 553.5,-184 541.62,-173.04 540.32,-154.08 541.42,-139.73"/>
<polygon fill="#63b8ff" stroke="#63b8ff" points="544.94,-139.79 542.66,-129.45 537.99,-138.95 544.94,-139.79"/>
</g>
<!-- Node17 -->
<g id="node17" class="node">
<title>Node17</title>
<g id="a_node17"><a xlink:title=" ">
<polygon fill="#e0e0e0" stroke="#999999" points="1525,-184 1468,-184 1468,-165 1525,-165 1525,-184"/>
<text text-anchor="middle" x="1496.5" y="-172" font-family="Helvetica,sans-Serif" font-size="10.00">wx/wx.h</text>
</a>
</g>
</g>
<!-- Node16&#45;&gt;Node17 -->
<g id="edge20" class="edge">
<title>Node16&#45;&gt;Node17</title>
<path fill="none" stroke="#63b8ff" d="M1319.4,-219.98C1357.23,-210.48 1418.31,-195.14 1457.94,-185.19"/>
<polygon fill="#63b8ff" stroke="#63b8ff" points="1458.92,-188.55 1467.77,-182.72 1457.22,-181.76 1458.92,-188.55"/>
</g>
<!-- Node18 -->
<g id="node18" class="node">
<title>Node18</title>
<g id="a_node18"><a xlink:title=" ">
<polygon fill="#e0e0e0" stroke="#999999" points="715.5,-74 643.5,-74 643.5,-55 715.5,-55 715.5,-74"/>
<text text-anchor="middle" x="679.5" y="-62" font-family="Helvetica,sans-Serif" font-size="10.00">wx/config.h</text>
</a>
</g>
</g>
<!-- Node16&#45;&gt;Node18 -->
<g id="edge21" class="edge">
<title>Node16&#45;&gt;Node18</title>
<path fill="none" stroke="#63b8ff" d="M1239.67,-228.73C1102.56,-228.95 702.55,-225.95 663.5,-184 637.9,-156.5 656.49,-108.66 669.59,-82.98"/>
<polygon fill="#63b8ff" stroke="#63b8ff" points="672.75,-84.49 674.4,-74.03 666.58,-81.18 672.75,-84.49"/>
</g>
<!-- Node19 -->
<g id="node19" class="node">
<title>Node19</title>
<g id="a_node19"><a xlink:title=" ">
<polygon fill="#e0e0e0" stroke="#999999" points="1620,-184 1543,-184 1543,-165 1620,-165 1620,-184"/>
<text text-anchor="middle" x="1581.5" y="-172" font-family="Helvetica,sans-Serif" font-size="10.00">wx/display.h</text>
</a>
</g>
</g>
<!-- Node16&#45;&gt;Node19 -->
<g id="edge22" class="edge">
<title>Node16&#45;&gt;Node19</title>
<path fill="none" stroke="#63b8ff" d="M1331.4,-220.33C1379.22,-211.8 1456.61,-197.99 1532.55,-184.35"/>
<polygon fill="#63b8ff" stroke="#63b8ff" points="1533.55,-187.72 1542.77,-182.51 1532.31,-180.83 1533.55,-187.72"/>
</g>
<!-- Node20 -->
<g id="node20" class="node">
<title>Node20</title>
<g id="a_node20"><a xlink:title=" ">
<polygon fill="#e0e0e0" stroke="#999999" points="1728.5,-184 1638.5,-184 1638.5,-165 1728.5,-165 1728.5,-184"/>
<text text-anchor="middle" x="1683.5" y="-172" font-family="Helvetica,sans-Serif" font-size="10.00">wx/fontenum.h</text>
</a>
</g>
</g>
<!-- Node16&#45;&gt;Node20 -->
<g id="edge23" class="edge">
<title>Node16&#45;&gt;Node20</title>
<path fill="none" stroke="#63b8ff" d="M1331.18,-223C1395.2,-215.19 1515.49,-200.21 1628.25,-184.15"/>
<polygon fill="#63b8ff" stroke="#63b8ff" points="1629.03,-187.57 1638.43,-182.69 1628.04,-180.64 1629.03,-187.57"/>
</g>
<!-- Node21 -->
<g id="node21" class="node">
<title>Node21</title>
<g id="a_node21"><a xlink:title=" ">
<polygon fill="#e0e0e0" stroke="#999999" points="1810.5,-74 1722.5,-74 1722.5,-55 1810.5,-55 1810.5,-74"/>
<text text-anchor="middle" x="1766.5" y="-62" font-family="Helvetica,sans-Serif" font-size="10.00">wx/hashmap.h</text>
</a>
</g>
</g>
<!-- Node16&#45;&gt;Node21 -->
<g id="edge24" class="edge">
<title>Node16&#45;&gt;Node21</title>
<path fill="none" stroke="#63b8ff" d="M1331.01,-227.42C1486.74,-223.5 1990.05,-208.93 2013.5,-184 2075.16,-118.45 1910.75,-85.07 1820.76,-72.1"/>
<polygon fill="#63b8ff" stroke="#63b8ff" points="1821.09,-68.62 1810.7,-70.7 1820.12,-75.55 1821.09,-68.62"/>
</g>
<!-- Node22 -->
<g id="node22" class="node">
<title>Node22</title>
<g id="a_node22"><a xlink:href="LoggingMessageDialog_8h.html" target="_top" xlink:title="This file declares a message dialog that sends its contents to the log message sink.">
<polygon fill="#fff0f0" stroke="red" points="1374,-184 1197,-184 1197,-165 1374,-165 1374,-184"/>
<text text-anchor="middle" x="1285.5" y="-172" font-family="Helvetica,sans-Serif" font-size="10.00">dialogs/LoggingMessageDialog.h</text>
</a>
</g>
</g>
<!-- Node16&#45;&gt;Node22 -->
<g id="edge25" class="edge">
<title>Node16&#45;&gt;Node22</title>
<path fill="none" stroke="#63b8ff" d="M1285.5,-219.75C1285.5,-212.8 1285.5,-202.85 1285.5,-194.13"/>
<polygon fill="#63b8ff" stroke="#63b8ff" points="1289,-194.09 1285.5,-184.09 1282,-194.09 1289,-194.09"/>
</g>
<!-- Node16&#45;&gt;Node24 -->
<g id="edge28" class="edge">
<title>Node16&#45;&gt;Node24</title>
<path fill="none" stroke="#63b8ff" d="M1239.67,-227.66C1125.81,-225.09 837.21,-215.51 808.5,-184 795.48,-169.71 810.68,-149.72 824.92,-136"/>
<polygon fill="#63b8ff" stroke="#63b8ff" points="827.48,-138.41 832.55,-129.1 822.78,-133.21 827.48,-138.41"/>
</g>
<!-- Node39 -->
<g id="node29" class="node">
<title>Node39</title>
<g id="a_node29"><a xlink:title=" ">
<polygon fill="#e0e0e0" stroke="#999999" points="1497,-74 1404,-74 1404,-55 1497,-55 1497,-74"/>
<text text-anchor="middle" x="1450.5" y="-62" font-family="Helvetica,sans-Serif" font-size="10.00">unordered_map</text>
</a>
</g>
</g>
<!-- Node16&#45;&gt;Node39 -->
<g id="edge61" class="edge">
<title>Node16&#45;&gt;Node39</title>
<path fill="none" stroke="#63b8ff" d="M1317.85,-219.95C1338.68,-213.09 1365.2,-201.63 1383.5,-184 1409.98,-158.49 1401.96,-141.76 1420.5,-110 1425.96,-100.65 1432.65,-90.61 1438.32,-82.44"/>
<polygon fill="#63b8ff" stroke="#63b8ff" points="1441.27,-84.34 1444.18,-74.15 1435.55,-80.3 1441.27,-84.34"/>
</g>
<!-- Node40 -->
<g id="node30" class="node">
<title>Node40</title>
<g id="a_node30"><a xlink:href="FontRenderabilityCache_8h.html" target="_top" xlink:title="Declares FontRenderabilityCache: which chars can each font render?">
<polygon fill="#fff0f0" stroke="red" points="1571.5,-129 1429.5,-129 1429.5,-110 1571.5,-110 1571.5,-129"/>
<text text-anchor="middle" x="1500.5" y="-117" font-family="Helvetica,sans-Serif" font-size="10.00">FontRenderabilityCache.h</text>
</a>
</g>
</g>
<!-- Node16&#45;&gt;Node40 -->
<g id="edge39" class="edge">
<title>Node16&#45;&gt;Node40</title>
<path fill="none" stroke="#63b8ff" d="M1319.54,-219.99C1346.49,-212.53 1384.59,-200.31 1415.5,-184 1440.89,-170.6 1466.86,-149.98 1483.3,-135.9"/>
<polygon fill="#63b8ff" stroke="#63b8ff" points="1485.74,-138.42 1490.98,-129.21 1481.14,-133.14 1485.74,-138.42"/>
</g>
<!-- Node43 -->
<g id="node32" class="node">
<title>Node43</title>
<g id="a_node32"><a xlink:href="MaximaSessionInfo_8h.html" target="_top" xlink:title="Declares MaximaSessionInfo: what we know about the connected Maxima.">
<polygon fill="white" stroke="#666666" points="1882.5,-129 1760.5,-129 1760.5,-110 1882.5,-110 1882.5,-129"/>
<text text-anchor="middle" x="1821.5" y="-117" font-family="Helvetica,sans-Serif" font-size="10.00">MaximaSessionInfo.h</text>
</a>
</g>
</g>
<!-- Node16&#45;&gt;Node43 -->
<g id="edge44" class="edge">
<title>Node16&#45;&gt;Node43</title>
<path fill="none" stroke="#63b8ff" d="M1331.21,-227.34C1484.61,-223.22 1972.71,-208.26 1995.5,-184 2030.43,-146.81 1955.22,-131.33 1892.98,-124.93"/>
<polygon fill="#63b8ff" stroke="#63b8ff" points="1893.02,-121.42 1882.73,-123.94 1892.35,-128.39 1893.02,-121.42"/>
</g>
<!-- Node44 -->
<g id="node33" class="node">
<title>Node44</title>
<g id="a_node33"><a xlink:href="RenderContext_8h.html" target="_top" xlink:title="Declares RenderContext: the per&#45;render&#45;pass state of a worksheet.">
<polygon fill="#fff0f0" stroke="red" points="1103.5,-184 1005.5,-184 1005.5,-165 1103.5,-165 1103.5,-184"/>
<text text-anchor="middle" x="1054.5" y="-172" font-family="Helvetica,sans-Serif" font-size="10.00">RenderContext.h</text>
</a>
</g>
</g>
<!-- Node16&#45;&gt;Node44 -->
<g id="edge48" class="edge">
<title>Node16&#45;&gt;Node44</title>
<path fill="none" stroke="#63b8ff" d="M1248.39,-219.98C1208.51,-210.84 1145.04,-196.27 1101.66,-186.32"/>
<polygon fill="#63b8ff" stroke="#63b8ff" points="1102.43,-182.91 1091.91,-184.08 1100.87,-189.73 1102.43,-182.91"/>
</g>
<!-- Node16&#45;&gt;Node35 -->
<g id="edge66" class="edge">
<title>Node16&#45;&gt;Node35</title>
<path fill="none" stroke="#63b8ff" d="M1239.99,-226.07C1167.08,-221.47 1028.08,-209.55 986.5,-184 969.1,-173.31 956.56,-153.11 949.21,-138.36"/>
<polygon fill="#63b8ff" stroke="#63b8ff" points="952.34,-136.79 944.95,-129.2 945.99,-139.74 952.34,-136.79"/>
</g>
<!-- Node49 -->
<g id="node35" class="node">
<title>Node49</title>
<g id="a_node35"><a xlink:title=" ">
<polygon fill="#e0e0e0" stroke="#999999" points="1111.5,-129 1061.5,-129 1061.5,-110 1111.5,-110 1111.5,-129"/>
<text text-anchor="middle" x="1086.5" y="-117" font-family="Helvetica,sans-Serif" font-size="10.00">atomic</text>
</a>
</g>
</g>
<!-- Node16&#45;&gt;Node49 -->
<g id="edge67" class="edge">
<title>Node16&#45;&gt;Node49</title>
<path fill="none" stroke="#63b8ff" d="M1257.38,-219.89C1233.71,-212.09 1199.36,-199.47 1171.5,-184 1146.4,-170.06 1120.36,-149.56 1103.83,-135.66"/>
<polygon fill="#63b8ff" stroke="#63b8ff" points="1105.98,-132.89 1096.1,-129.05 1101.43,-138.21 1105.98,-132.89"/>
</g>
<!-- Node50 -->
<g id="node36" class="node">
<title>Node50</title>
<g id="a_node36"><a xlink:title=" ">
<polygon fill="#e0e0e0" stroke="#999999" points="1189.5,-129 1139.5,-129 1139.5,-110 1189.5,-110 1189.5,-129"/>
<text text-anchor="middle" x="1164.5" y="-117" font-family="Helvetica,sans-Serif" font-size="10.00">chrono</text>
</a>
</g>
</g>
<!-- Node16&#45;&gt;Node50 -->
<g id="edge68" class="edge">
<title>Node16&#45;&gt;Node50</title>
<path fill="none" stroke="#63b8ff" d="M1251.02,-219.88C1230.46,-213.15 1205.19,-201.88 1188.5,-184 1176.95,-171.63 1170.81,-153.15 1167.64,-139.32"/>
<polygon fill="#63b8ff" stroke="#63b8ff" points="1171.05,-138.55 1165.69,-129.42 1164.19,-139.91 1171.05,-138.55"/>
</g>
<!-- Node16&#45;&gt;Node51 -->
<g id="edge65" class="edge">
<title>Node16&#45;&gt;Node51</title>
<path fill="none" stroke="#63b8ff" d="M1239.98,-228.39C1166.62,-227.13 1027.32,-219.93 996.5,-184 985.31,-170.96 993.64,-151.53 1002.52,-137.6"/>
<polygon fill="#63b8ff" stroke="#63b8ff" points="1005.41,-139.58 1008.24,-129.37 999.66,-135.58 1005.41,-139.58"/>
</g>
<!-- Node52 -->
<g id="node38" class="node">
<title>Node52</title>
<g id="a_node38"><a xlink:href="Styles_8h.html" target="_top" xlink:title="This file declares the class Styles.">
<polygon fill="white" stroke="#666666" points="873.5,-184 817.5,-184 817.5,-165 873.5,-165 873.5,-184"/>
<text text-anchor="middle" x="845.5" y="-172" font-family="Helvetica,sans-Serif" font-size="10.00">Styles.h</text>
</a>
</g>
</g>
<!-- Node16&#45;&gt;Node52 -->
<g id="edge54" class="edge">
<title>Node16&#45;&gt;Node52</title>
<path fill="none" stroke="#63b8ff" d="M1239.66,-222.98C1152.55,-212.49 964.63,-189.85 883.77,-180.11"/>
<polygon fill="#63b8ff" stroke="#63b8ff" points="883.89,-176.6 873.55,-178.88 883.06,-183.55 883.89,-176.6"/>
</g>
<!-- Node53 -->
<g id="node39" class="node">
<title>Node53</title>
<g id="a_node39"><a xlink:title=" ">
<polygon fill="#e0e0e0" stroke="#999999" points="1794.5,-184 1746.5,-184 1746.5,-165 1794.5,-165 1794.5,-184"/>
<text text-anchor="middle" x="1770.5" y="-172" font-family="Helvetica,sans-Serif" font-size="10.00">mutex</text>
</a>
</g>
</g>
<!-- Node16&#45;&gt;Node53 -->
<g id="edge60" class="edge">
<title>Node16&#45;&gt;Node53</title>
<path fill="none" stroke="#63b8ff" d="M1331.04,-226.34C1411.16,-222.03 1582.6,-210.57 1736.34,-183.93"/>
<polygon fill="#63b8ff" stroke="#63b8ff" points="1737.2,-187.33 1746.44,-182.15 1735.99,-180.44 1737.2,-187.33"/>
</g>
<!-- Node54 -->
<g id="node40" class="node">
<title>Node54</title>
<g id="a_node40"><a xlink:title=" ">
<polygon fill="#e0e0e0" stroke="#999999" points="1866.5,-184 1812.5,-184 1812.5,-165 1866.5,-165 1866.5,-184"/>
<text text-anchor="middle" x="1839.5" y="-172" font-family="Helvetica,sans-Serif" font-size="10.00">random</text>
</a>
</g>
</g>
<!-- Node16&#45;&gt;Node54 -->
<g id="edge62" class="edge">
<title>Node16&#45;&gt;Node54</title>
<path fill="none" stroke="#63b8ff" d="M1331.16,-226.82C1420.1,-223.06 1622.87,-212.13 1802.56,-183.91"/>
<polygon fill="#63b8ff" stroke="#63b8ff" points="1803.13,-187.36 1812.46,-182.33 1802.03,-180.45 1803.13,-187.36"/>
</g>
<!-- Node38 -->
<g id="node41" class="node">
<title>Node38</title>
<g id="a_node41"><a xlink:title=" ">
<polygon fill="#e0e0e0" stroke="#999999" points="1916.5,-184 1884.5,-184 1884.5,-165 1916.5,-165 1916.5,-184"/>
<text text-anchor="middle" x="1900.5" y="-172" font-family="Helvetica,sans-Serif" font-size="10.00">list</text>
</a>
</g>
</g>
<!-- Node16&#45;&gt;Node38 -->
<g id="edge63" class="edge">
<title>Node16&#45;&gt;Node38</title>
<path fill="none" stroke="#63b8ff" d="M1331.19,-228.95C1429.47,-229.09 1668.11,-224.94 1874.46,-183.67"/>
<polygon fill="#63b8ff" stroke="#63b8ff" points="1875.16,-187.1 1884.26,-181.68 1873.76,-180.24 1875.16,-187.1"/>
</g>
<!-- Node55 -->
<g id="node42" class="node">
<title>Node55</title>
<g id="a_node42"><a xlink:title=" ">
<polygon fill="#e0e0e0" stroke="#999999" points="1986,-184 1935,-184 1935,-165 1986,-165 1986,-184"/>
<text text-anchor="middle" x="1960.5" y="-172" font-family="Helvetica,sans-Serif" font-size="10.00">variant</text>
</a>
</g>
</g>
<!-- Node16&#45;&gt;Node55 -->
<g id="edge64" class="edge">
<title>Node16&#45;&gt;Node55</title>
<path fill="none" stroke="#63b8ff" d="M1331.19,-227.96C1435.02,-226.18 1696.73,-218.49 1924.84,-183.79"/>
<polygon fill="#63b8ff" stroke="#63b8ff" points="1925.64,-187.21 1934.99,-182.22 1924.57,-180.29 1925.64,-187.21"/>
</g>
<!-- Node56 -->
<g id="node43" class="node">
<title>Node56</title>
<g id="a_node43"><a xlink:title=" ">
<polygon fill="#e0e0e0" stroke="#999999" points="761,-184 672,-184 672,-165 761,-165 761,-184"/>
<text text-anchor="middle" x="716.5" y="-172" font-family="Helvetica,sans-Serif" font-size="10.00">wx/wupdlock.h</text>
</a>
</g>
</g>
<!-- Node16&#45;&gt;Node56 -->
<g id="edge69" class="edge">
<title>Node16&#45;&gt;Node56</title>
<path fill="none" stroke="#63b8ff" d="M1239.7,-225.37C1150.29,-219.06 946.34,-203.74 775.5,-184 774.2,-183.85 772.88,-183.69 771.55,-183.53"/>
<polygon fill="#63b8ff" stroke="#63b8ff" points="771.61,-180.01 761.24,-182.21 770.72,-186.95 771.61,-180.01"/>
</g>
<!-- Node22&#45;&gt;Node3 -->
<g id="edge26" class="edge">
<title>Node22&#45;&gt;Node3</title>
<path fill="none" stroke="#63b8ff" d="M1374.29,-168.47C1530.46,-159.39 1842.49,-140.19 1891.5,-129 1940.93,-117.71 1995.14,-93.72 2026.36,-78.67"/>
<polygon fill="#63b8ff" stroke="#63b8ff" points="2028.21,-81.66 2035.65,-74.13 2025.13,-75.38 2028.21,-81.66"/>
</g>
<!-- Node22&#45;&gt;Node7 -->
<g id="edge27" class="edge">
<title>Node22&#45;&gt;Node7</title>
<path fill="none" stroke="#63b8ff" d="M1196.98,-169.05C1022.19,-160.17 638.28,-140.12 506.5,-129 494.53,-127.99 481.52,-126.63 469.71,-125.3"/>
<polygon fill="#63b8ff" stroke="#63b8ff" points="470.03,-121.81 459.7,-124.14 469.23,-128.76 470.03,-121.81"/>
</g>
<!-- Node24&#45;&gt;Node3 -->
<g id="edge29" class="edge">
<title>Node24&#45;&gt;Node3</title>
<path fill="none" stroke="#63b8ff" d="M891.66,-110.94C894.65,-110.59 897.61,-110.27 900.5,-110 928.38,-107.39 1788.2,-75.32 2003.83,-67.31"/>
<polygon fill="#63b8ff" stroke="#63b8ff" points="2004.04,-70.8 2013.9,-66.93 2003.78,-63.81 2004.04,-70.8"/>
</g>
<!-- Node24&#45;&gt;Node10 -->
<g id="edge37" class="edge">
<title>Node24&#45;&gt;Node10</title>
<path fill="none" stroke="#63b8ff" d="M801.37,-109.98C761.24,-101.77 698.88,-88.75 635.85,-74.25"/>
<polygon fill="#63b8ff" stroke="#63b8ff" points="636.26,-70.75 625.73,-71.91 634.68,-77.57 636.26,-70.75"/>
</g>
<!-- Node24&#45;&gt;Node18 -->
<g id="edge35" class="edge">
<title>Node24&#45;&gt;Node18</title>
<path fill="none" stroke="#63b8ff" d="M817.15,-109.98C789.74,-101.13 746.61,-87.19 715.94,-77.28"/>
<polygon fill="#63b8ff" stroke="#63b8ff" points="716.65,-73.83 706.06,-74.08 714.5,-80.49 716.65,-73.83"/>
</g>
<!-- Node24&#45;&gt;Node21 -->
<g id="edge32" class="edge">
<title>Node24&#45;&gt;Node21</title>
<path fill="none" stroke="#63b8ff" d="M891.66,-110.98C894.65,-110.62 897.61,-110.29 900.5,-110 1059.08,-94.14 1547.71,-74.07 1711.98,-67.61"/>
<polygon fill="#63b8ff" stroke="#63b8ff" points="1712.47,-71.09 1722.33,-67.2 1712.2,-64.1 1712.47,-71.09"/>
</g>
<!-- Node25 -->
<g id="node24" class="node">
<title>Node25</title>
<g id="a_node24"><a xlink:title=" ">
<polygon fill="#e0e0e0" stroke="#999999" points="881.5,-74 809.5,-74 809.5,-55 881.5,-55 881.5,-74"/>
<text text-anchor="middle" x="845.5" y="-62" font-family="Helvetica,sans-Serif" font-size="10.00">wx/colour.h</text>
</a>
</g>
</g>
<!-- Node24&#45;&gt;Node25 -->
<g id="edge30" class="edge">
<title>Node24&#45;&gt;Node25</title>
<path fill="none" stroke="#63b8ff" d="M843.83,-109.75C844.09,-102.8 844.47,-92.85 844.8,-84.13"/>
<polygon fill="#63b8ff" stroke="#63b8ff" points="848.3,-84.21 845.18,-74.09 841.3,-83.95 848.3,-84.21"/>
</g>
<!-- Node24&#45;&gt;Node26 -->
<g id="edge31" class="edge">
<title>Node24&#45;&gt;Node26</title>
<path fill="none" stroke="#63b8ff" d="M891.65,-110.91C894.64,-110.57 897.61,-110.26 900.5,-110 1162.99,-86.57 1820.9,-116.38 2099.24,-73.65"/>
<polygon fill="#63b8ff" stroke="#63b8ff" points="2100.05,-77.07 2109.38,-72.03 2098.95,-70.15 2100.05,-77.07"/>
</g>
<!-- Node27 -->
<g id="node26" class="node">
<title>Node27</title>
<g id="a_node26"><a xlink:title=" ">
<polygon fill="#e0e0e0" stroke="#999999" points="943.5,-74 899.5,-74 899.5,-55 943.5,-55 943.5,-74"/>
<text text-anchor="middle" x="921.5" y="-62" font-family="Helvetica,sans-Serif" font-size="10.00">string</text>
</a>
</g>
</g>
<!-- Node24&#45;&gt;Node27 -->
<g id="edge33" class="edge">
<title>Node24&#45;&gt;Node27</title>
<path fill="none" stroke="#63b8ff" d="M856.03,-109.98C867.9,-101.92 885.96,-89.65 900.11,-80.03"/>
<polygon fill="#63b8ff" stroke="#63b8ff" points="902.44,-82.69 908.74,-74.17 898.5,-76.9 902.44,-82.69"/>
</g>
<!-- Node28 -->
<g id="node27" class="node">
<title>Node28</title>
<g id="a_node27"><a xlink:title=" ">
<polygon fill="#e0e0e0" stroke="#999999" points="791,-74 734,-74 734,-55 791,-55 791,-74"/>
<text text-anchor="middle" x="762.5" y="-62" font-family="Helvetica,sans-Serif" font-size="10.00">ostream</text>
</a>
</g>
</g>
<!-- Node24&#45;&gt;Node28 -->
<g id="edge34" class="edge">
<title>Node24&#45;&gt;Node28</title>
<path fill="none" stroke="#63b8ff" d="M830.49,-109.98C818.04,-101.84 799.04,-89.41 784.29,-79.76"/>
<polygon fill="#63b8ff" stroke="#63b8ff" points="786.04,-76.72 775.75,-74.17 782.2,-82.57 786.04,-76.72"/>
</g>
<!-- Node29 -->
<g id="node28" class="node">
<title>Node29</title>
<g id="a_node28"><a xlink:title=" ">
<polygon fill="#e0e0e0" stroke="#999999" points="1231.5,-74 1169.5,-74 1169.5,-55 1231.5,-55 1231.5,-74"/>
<text text-anchor="middle" x="1200.5" y="-62" font-family="Helvetica,sans-Serif" font-size="10.00">wx/font.h</text>
</a>
</g>
</g>
<!-- Node24&#45;&gt;Node29 -->
<g id="edge36" class="edge">
<title>Node24&#45;&gt;Node29</title>
<path fill="none" stroke="#63b8ff" d="M891.7,-111.31C894.68,-110.87 897.63,-110.43 900.5,-110 992.92,-96.25 1101.36,-80.18 1159.21,-71.61"/>
<polygon fill="#63b8ff" stroke="#63b8ff" points="1160.02,-75.03 1169.4,-70.1 1159,-68.11 1160.02,-75.03"/>
</g>
<!-- Node24&#45;&gt;Node39 -->
<g id="edge38" class="edge">
<title>Node24&#45;&gt;Node39</title>
<path fill="none" stroke="#63b8ff" d="M891.67,-111.08C894.66,-110.7 897.62,-110.33 900.5,-110 1079.97,-89.38 1293.48,-74.99 1393.49,-68.84"/>
<polygon fill="#63b8ff" stroke="#63b8ff" points="1393.91,-72.32 1403.68,-68.22 1393.48,-65.34 1393.91,-72.32"/>
</g>
<!-- Node40&#45;&gt;Node21 -->
<g id="edge41" class="edge">
<title>Node40&#45;&gt;Node21</title>
<path fill="none" stroke="#63b8ff" d="M1543.24,-109.98C1589.54,-100.76 1663.48,-86.03 1713.46,-76.07"/>
<polygon fill="#63b8ff" stroke="#63b8ff" points="1714.3,-79.47 1723.43,-74.08 1712.94,-72.6 1714.3,-79.47"/>
</g>
<!-- Node40&#45;&gt;Node29 -->
<g id="edge40" class="edge">
<title>Node40&#45;&gt;Node29</title>
<path fill="none" stroke="#63b8ff" d="M1452.3,-109.98C1393.95,-99.68 1296.68,-82.49 1241.68,-72.78"/>
<polygon fill="#63b8ff" stroke="#63b8ff" points="1242.05,-69.29 1231.6,-70.99 1240.83,-76.18 1242.05,-69.29"/>
</g>
<!-- Node40&#45;&gt;Node39 -->
<g id="edge43" class="edge">
<title>Node40&#45;&gt;Node39</title>
<path fill="none" stroke="#63b8ff" d="M1492.24,-109.75C1485.04,-102.11 1474.39,-90.82 1465.65,-81.56"/>
<polygon fill="#63b8ff" stroke="#63b8ff" points="1468.01,-78.96 1458.6,-74.09 1462.92,-83.76 1468.01,-78.96"/>
</g>
<!-- Node42 -->
<g id="node31" class="node">
<title>Node42</title>
<g id="a_node31"><a xlink:title=" ">
<polygon fill="#e0e0e0" stroke="#999999" points="2237,-74 2166,-74 2166,-55 2237,-55 2237,-74"/>
<text text-anchor="middle" x="2201.5" y="-62" font-family="Helvetica,sans-Serif" font-size="10.00">wx/string.h</text>
</a>
</g>
</g>
<!-- Node40&#45;&gt;Node42 -->
<g id="edge42" class="edge">
<title>Node40&#45;&gt;Node42</title>
<path fill="none" stroke="#63b8ff" d="M1571.63,-116.45C1690.5,-112.41 1937.15,-101.42 2155.65,-73.94"/>
<polygon fill="#63b8ff" stroke="#63b8ff" points="2156.22,-77.39 2165.7,-72.66 2155.34,-70.45 2156.22,-77.39"/>
</g>
<!-- Node43&#45;&gt;Node21 -->
<g id="edge46" class="edge">
<title>Node43&#45;&gt;Node21</title>
<path fill="none" stroke="#63b8ff" d="M1812.42,-109.75C1804.41,-102.03 1792.54,-90.6 1782.88,-81.28"/>
<polygon fill="#63b8ff" stroke="#63b8ff" points="1785.04,-78.51 1775.41,-74.09 1780.19,-83.55 1785.04,-78.51"/>
</g>
<!-- Node43&#45;&gt;Node39 -->
<g id="edge47" class="edge">
<title>Node43&#45;&gt;Node39</title>
<path fill="none" stroke="#63b8ff" d="M1761.89,-109.98C1691.75,-99.96 1576.15,-83.45 1507.27,-73.61"/>
<polygon fill="#63b8ff" stroke="#63b8ff" points="1507.44,-70.1 1497.04,-72.15 1506.45,-77.03 1507.44,-70.1"/>
</g>
<!-- Node43&#45;&gt;Node42 -->
<g id="edge45" class="edge">
<title>Node43&#45;&gt;Node42</title>
<path fill="none" stroke="#63b8ff" d="M1882.78,-111.38C1947.89,-103.58 2054.09,-90.21 2155.55,-74.07"/>
<polygon fill="#63b8ff" stroke="#63b8ff" points="2156.35,-77.49 2165.67,-72.45 2155.24,-70.58 2156.35,-77.49"/>
</g>
<!-- Node44&#45;&gt;Node12 -->
<g id="edge52" class="edge">
<title>Node44&#45;&gt;Node12</title>
<path fill="none" stroke="#63b8ff" d="M1005.14,-168.37C904.04,-157.86 675.26,-134.09 583.58,-124.56"/>
<polygon fill="#63b8ff" stroke="#63b8ff" points="583.91,-121.08 573.6,-123.52 583.19,-128.04 583.91,-121.08"/>
</g>
<!-- Node44&#45;&gt;Node35 -->
<g id="edge49" class="edge">
<title>Node44&#45;&gt;Node35</title>
<path fill="none" stroke="#63b8ff" d="M1036.34,-164.98C1018.25,-156.5 990.22,-143.35 969.31,-133.54"/>
<polygon fill="#63b8ff" stroke="#63b8ff" points="970.53,-130.25 959.99,-129.17 967.55,-136.59 970.53,-130.25"/>
</g>
<!-- Node44&#45;&gt;Node49 -->
<g id="edge50" class="edge">
<title>Node44&#45;&gt;Node49</title>
<path fill="none" stroke="#63b8ff" d="M1059.78,-164.75C1064.21,-157.42 1070.66,-146.73 1076.12,-137.7"/>
<polygon fill="#63b8ff" stroke="#63b8ff" points="1079.14,-139.46 1081.31,-129.09 1073.15,-135.84 1079.14,-139.46"/>
</g>
<!-- Node44&#45;&gt;Node50 -->
<g id="edge51" class="edge">
<title>Node44&#45;&gt;Node50</title>
<path fill="none" stroke="#63b8ff" d="M1072.17,-164.98C1089.79,-156.5 1117.08,-143.35 1137.43,-133.54"/>
<polygon fill="#63b8ff" stroke="#63b8ff" points="1139.02,-136.66 1146.51,-129.17 1135.98,-130.36 1139.02,-136.66"/>
</g>
<!-- Node44&#45;&gt;Node51 -->
<g id="edge53" class="edge">
<title>Node44&#45;&gt;Node51</title>
<path fill="none" stroke="#63b8ff" d="M1048.06,-164.75C1042.61,-157.34 1034.64,-146.5 1027.94,-137.41"/>
<polygon fill="#63b8ff" stroke="#63b8ff" points="1030.57,-135.07 1021.82,-129.09 1024.93,-139.22 1030.57,-135.07"/>
</g>
<!-- Node52&#45;&gt;Node8 -->
<g id="edge56" class="edge">
<title>Node52&#45;&gt;Node8</title>
<path fill="none" stroke="#63b8ff" d="M826.22,-164.98C806.83,-156.42 776.69,-143.11 754.43,-133.28"/>
<polygon fill="#63b8ff" stroke="#63b8ff" points="755.69,-130.01 745.13,-129.17 752.86,-136.41 755.69,-130.01"/>
</g>
<!-- Node52&#45;&gt;Node24 -->
<g id="edge55" class="edge">
<title>Node52&#45;&gt;Node24</title>
<path fill="none" stroke="#63b8ff" d="M845.17,-164.75C844.91,-157.8 844.53,-147.85 844.2,-139.13"/>
<polygon fill="#63b8ff" stroke="#63b8ff" points="847.7,-138.95 843.82,-129.09 840.7,-139.21 847.7,-138.95"/>
</g>
<!-- Node52&#45;&gt;Node51 -->
<g id="edge57" class="edge">
<title>Node52&#45;&gt;Node51</title>
<path fill="none" stroke="#63b8ff" d="M872.81,-164.98C902.54,-155.72 950.09,-140.89 982.04,-130.93"/>
<polygon fill="#63b8ff" stroke="#63b8ff" points="983.31,-134.2 991.82,-127.88 981.23,-127.52 983.31,-134.2"/>
</g>
<!-- Node57&#45;&gt;Node42 -->
<g id="edge71" class="edge">
<title>Node57&#45;&gt;Node42</title>
<path fill="none" stroke="#63b8ff" d="M2257.54,-219.83C2279.19,-209.05 2309.37,-189.09 2299.5,-165 2284.26,-127.8 2247.64,-97.04 2223.74,-79.99"/>
<polygon fill="#63b8ff" stroke="#63b8ff" points="2225.49,-76.95 2215.27,-74.14 2221.51,-82.71 2225.49,-76.95"/>
</g>
<!-- Node58 -->
<g id="node45" class="node">
<title>Node58</title>
<g id="a_node45"><a xlink:title=" ">
<polygon fill="#e0e0e0" stroke="#999999" points="2290,-184 2195,-184 2195,-165 2290,-165 2290,-184"/>
<text text-anchor="middle" x="2242.5" y="-172" font-family="Helvetica,sans-Serif" font-size="10.00">wx/translation.h</text>
</a>
</g>
</g>
<!-- Node57&#45;&gt;Node58 -->
<g id="edge72" class="edge">
<title>Node57&#45;&gt;Node58</title>
<path fill="none" stroke="#63b8ff" d="M2238.33,-219.75C2238.98,-212.8 2239.92,-202.85 2240.74,-194.13"/>
<polygon fill="#63b8ff" stroke="#63b8ff" points="2244.23,-194.37 2241.69,-184.09 2237.27,-193.72 2244.23,-194.37"/>
</g>
<!-- Node59&#45;&gt;Node6 -->
<g id="edge75" class="edge">
<title>Node59&#45;&gt;Node6</title>
<path fill="none" stroke="#63b8ff" d="M287.67,-164.98C269.89,-156.5 242.35,-143.35 221.82,-133.54"/>
<polygon fill="#63b8ff" stroke="#63b8ff" points="223.19,-130.32 212.66,-129.17 220.17,-136.64 223.19,-130.32"/>
</g>
<!-- Node59&#45;&gt;Node7 -->
<g id="edge76" class="edge">
<title>Node59&#45;&gt;Node7</title>
<path fill="none" stroke="#63b8ff" d="M325.58,-164.98C345.87,-156.38 377.46,-142.99 400.67,-133.15"/>
<polygon fill="#63b8ff" stroke="#63b8ff" points="402.21,-136.3 410.05,-129.17 399.48,-129.85 402.21,-136.3"/>
</g>
<!-- Node59&#45;&gt;Node13 -->
<g id="edge77" class="edge">
<title>Node59&#45;&gt;Node13</title>
<path fill="none" stroke="#63b8ff" d="M273.37,-164.98C239.35,-155.97 185.5,-141.7 148,-131.76"/>
<polygon fill="#63b8ff" stroke="#63b8ff" points="148.45,-128.26 137.89,-129.08 146.66,-135.03 148.45,-128.26"/>
</g>
</g>
</svg>
