<?xml version="1.0" encoding="UTF-8" standalone="no"?>
<!DOCTYPE svg PUBLIC "-//W3C//DTD SVG 1.1//EN"
 "http://www.w3.org/Graphics/SVG/1.1/DTD/svg11.dtd">
<!-- Generated by graphviz version 2.43.0 (0)
 -->
<!-- Title: src/wxMathml.h Pages: 1 -->
<svg width="2213pt" height="302pt"
 viewBox="0.00 0.00 2212.50 302.00" xmlns="http://www.w3.org/2000/svg" xmlns:xlink="http://www.w3.org/1999/xlink">
<g id="graph0" class="graph" transform="scale(1 1) rotate(0) translate(4 298)">
<title>src/wxMathml.h</title>
<!-- Node1 -->
<g id="node1" class="node">
<title>Node1</title>
<g id="a_node1"><a xlink:title="This file declares all the wizards the draw sidepane needs.">
<polygon fill="#999999" stroke="#666666" points="2056,-294 1961,-294 1961,-275 2056,-275 2056,-294"/>
<text text-anchor="middle" x="2008.5" y="-282" font-family="Helvetica,sans-Serif" font-size="10.00">src/wxMathml.h</text>
</a>
</g>
</g>
<!-- Node2 -->
<g id="node2" class="node">
<title>Node2</title>
<g id="a_node2"><a xlink:title=" ">
<polygon fill="#e0e0e0" stroke="#999999" points="53,-19 0,-19 0,0 53,0 53,-19"/>
<text text-anchor="middle" x="26.5" y="-7" font-family="Helvetica,sans-Serif" font-size="10.00">cstddef</text>
</a>
</g>
</g>
<!-- Node1&#45;&gt;Node2 -->
<g id="edge1" class="edge">
<title>Node1&#45;&gt;Node2</title>
<path fill="none" stroke="#63b8ff" d="M1960.98,-283.47C1659.56,-282.96 26.5,-275.6 26.5,-175.5 26.5,-175.5 26.5,-175.5 26.5,-118.5 26.5,-87.19 26.5,-50.77 26.5,-29.23"/>
<polygon fill="#63b8ff" stroke="#63b8ff" points="30,-29.18 26.5,-19.18 23,-29.18 30,-29.18"/>
</g>
<!-- Node3 -->
<g id="node3" class="node">
<title>Node3</title>
<g id="a_node3"><a xlink:href="precomp_8h_source.html" target="_top" xlink:title=" ">
<polygon fill="white" stroke="#666666" points="1598.5,-74 1530.5,-74 1530.5,-55 1598.5,-55 1598.5,-74"/>
<text text-anchor="middle" x="1564.5" y="-62" font-family="Helvetica,sans-Serif" font-size="10.00">precomp.h</text>
</a>
</g>
</g>
<!-- Node1&#45;&gt;Node3 -->
<g id="edge2" class="edge">
<title>Node1&#45;&gt;Node3</title>
<path fill="none" stroke="#63b8ff" d="M2009.45,-274.87C2012.18,-245.28 2016.53,-147.65 1960.5,-110 1903.95,-72 1700.03,-66.13 1608.96,-65.45"/>
<polygon fill="#63b8ff" stroke="#63b8ff" points="1608.71,-61.94 1598.69,-65.39 1608.67,-68.94 1608.71,-61.94"/>
</g>
<!-- Node5 -->
<g id="node5" class="node">
<title>Node5</title>
<g id="a_node5"><a xlink:href="Configuration_8h_source.html" target="_top" xlink:title=" ">
<polygon fill="white" stroke="#666666" points="1386,-239 1295,-239 1295,-220 1386,-220 1386,-239"/>
<text text-anchor="middle" x="1340.5" y="-227" font-family="Helvetica,sans-Serif" font-size="10.00">Configuration.h</text>
</a>
</g>
</g>
<!-- Node1&#45;&gt;Node5 -->
<g id="edge4" class="edge">
<title>Node1&#45;&gt;Node5</title>
<path fill="none" stroke="#63b8ff" d="M1960.99,-279.73C1840.85,-270.2 1525.3,-245.16 1396.48,-234.94"/>
<polygon fill="#63b8ff" stroke="#63b8ff" points="1396.68,-231.45 1386.43,-234.14 1396.12,-238.42 1396.68,-231.45"/>
</g>
<!-- Node40 -->
<g id="node40" class="node">
<title>Node40</title>
<g id="a_node40"><a xlink:title=" ">
<polygon fill="#e0e0e0" stroke="#999999" points="2108,-239 2037,-239 2037,-220 2108,-220 2108,-239"/>
<text text-anchor="middle" x="2072.5" y="-227" font-family="Helvetica,sans-Serif" font-size="10.00">wx/string.h</text>
</a>
</g>
</g>
<!-- Node1&#45;&gt;Node40 -->
<g id="edge58" class="edge">
<title>Node1&#45;&gt;Node40</title>
<path fill="none" stroke="#63b8ff" d="M2018.78,-274.98C2028.34,-267.07 2042.78,-255.11 2054.28,-245.58"/>
<polygon fill="#63b8ff" stroke="#63b8ff" points="2056.56,-248.24 2062.03,-239.17 2052.1,-242.85 2056.56,-248.24"/>
</g>
<!-- Node41 -->
<g id="node41" class="node">
<title>Node41</title>
<g id="a_node41"><a xlink:title=" ">
<polygon fill="#e0e0e0" stroke="#999999" points="2204.5,-239 2126.5,-239 2126.5,-220 2204.5,-220 2204.5,-239"/>
<text text-anchor="middle" x="2165.5" y="-227" font-family="Helvetica,sans-Serif" font-size="10.00">wx/tokenzr.h</text>
</a>
</g>
</g>
<!-- Node1&#45;&gt;Node41 -->
<g id="edge59" class="edge">
<title>Node1&#45;&gt;Node41</title>
<path fill="none" stroke="#63b8ff" d="M2033.72,-274.98C2059.86,-266.16 2100.9,-252.31 2130.23,-242.41"/>
<polygon fill="#63b8ff" stroke="#63b8ff" points="2131.72,-245.6 2140.08,-239.08 2129.48,-238.96 2131.72,-245.6"/>
</g>
<!-- Node4 -->
<g id="node4" class="node">
<title>Node4</title>
<g id="a_node4"><a xlink:href="Version_8h_source.html" target="_top" xlink:title=" ">
<polygon fill="white" stroke="#666666" points="1595.5,-19 1533.5,-19 1533.5,0 1595.5,0 1595.5,-19"/>
<text text-anchor="middle" x="1564.5" y="-7" font-family="Helvetica,sans-Serif" font-size="10.00">Version.h</text>
</a>
</g>
</g>
<!-- Node3&#45;&gt;Node4 -->
<g id="edge3" class="edge">
<title>Node3&#45;&gt;Node4</title>
<path fill="none" stroke="#63b8ff" d="M1564.5,-54.75C1564.5,-47.8 1564.5,-37.85 1564.5,-29.13"/>
<polygon fill="#63b8ff" stroke="#63b8ff" points="1568,-29.09 1564.5,-19.09 1561,-29.09 1568,-29.09"/>
</g>
<!-- Node5&#45;&gt;Node3 -->
<g id="edge5" class="edge">
<title>Node5&#45;&gt;Node3</title>
<path fill="none" stroke="#63b8ff" d="M1363.81,-219.91C1383.71,-212.04 1412.66,-199.31 1435.5,-184 1481.37,-153.25 1527.07,-106.5 1549.77,-81.92"/>
<polygon fill="#63b8ff" stroke="#63b8ff" points="1552.64,-83.96 1556.8,-74.21 1547.47,-79.24 1552.64,-83.96"/>
</g>
<!-- Node6 -->
<g id="node6" class="node">
<title>Node6</title>
<g id="a_node6"><a xlink:title=" ">
<polygon fill="#e0e0e0" stroke="#999999" points="944,-184 887,-184 887,-165 944,-165 944,-184"/>
<text text-anchor="middle" x="915.5" y="-172" font-family="Helvetica,sans-Serif" font-size="10.00">wx/wx.h</text>
</a>
</g>
</g>
<!-- Node5&#45;&gt;Node6 -->
<g id="edge6" class="edge">
<title>Node5&#45;&gt;Node6</title>
<path fill="none" stroke="#63b8ff" d="M1294.77,-224.35C1222.94,-217.58 1079.37,-202.96 958.5,-184 957.04,-183.77 955.56,-183.53 954.07,-183.28"/>
<polygon fill="#63b8ff" stroke="#63b8ff" points="954.59,-179.81 944.12,-181.49 953.35,-186.7 954.59,-179.81"/>
</g>
<!-- Node7 -->
<g id="node7" class="node">
<title>Node7</title>
<g id="a_node7"><a xlink:title=" ">
<polygon fill="#e0e0e0" stroke="#999999" points="1148.5,-129 1076.5,-129 1076.5,-110 1148.5,-110 1148.5,-129"/>
<text text-anchor="middle" x="1112.5" y="-117" font-family="Helvetica,sans-Serif" font-size="10.00">wx/config.h</text>
</a>
</g>
</g>
<!-- Node5&#45;&gt;Node7 -->
<g id="edge7" class="edge">
<title>Node5&#45;&gt;Node7</title>
<path fill="none" stroke="#63b8ff" d="M1322.23,-219.84C1282.27,-200.92 1186.95,-155.77 1139.83,-133.45"/>
<polygon fill="#63b8ff" stroke="#63b8ff" points="1141.08,-130.16 1130.54,-129.05 1138.08,-136.49 1141.08,-130.16"/>
</g>
<!-- Node8 -->
<g id="node8" class="node">
<title>Node8</title>
<g id="a_node8"><a xlink:title=" ">
<polygon fill="#e0e0e0" stroke="#999999" points="1078,-184 1001,-184 1001,-165 1078,-165 1078,-184"/>
<text text-anchor="middle" x="1039.5" y="-172" font-family="Helvetica,sans-Serif" font-size="10.00">wx/display.h</text>
</a>
</g>
</g>
<!-- Node5&#45;&gt;Node8 -->
<g id="edge8" class="edge">
<title>Node5&#45;&gt;Node8</title>
<path fill="none" stroke="#63b8ff" d="M1294.79,-220.48C1246.2,-211.94 1166.81,-197.99 1088.1,-184.1"/>
<polygon fill="#63b8ff" stroke="#63b8ff" points="1088.47,-180.62 1078.01,-182.32 1087.25,-187.51 1088.47,-180.62"/>
</g>
<!-- Node9 -->
<g id="node9" class="node">
<title>Node9</title>
<g id="a_node9"><a xlink:title=" ">
<polygon fill="#e0e0e0" stroke="#999999" points="1186.5,-184 1096.5,-184 1096.5,-165 1186.5,-165 1186.5,-184"/>
<text text-anchor="middle" x="1141.5" y="-172" font-family="Helvetica,sans-Serif" font-size="10.00">wx/fontenum.h</text>
</a>
</g>
</g>
<!-- Node5&#45;&gt;Node9 -->
<g id="edge9" class="edge">
<title>Node5&#45;&gt;Node9</title>
<path fill="none" stroke="#63b8ff" d="M1308.53,-219.98C1274.68,-210.97 1221.1,-196.7 1183.79,-186.76"/>
<polygon fill="#63b8ff" stroke="#63b8ff" points="1184.29,-183.27 1173.72,-184.08 1182.49,-190.04 1184.29,-183.27"/>
</g>
<!-- Node10 -->
<g id="node10" class="node">
<title>Node10</title>
<g id="a_node10"><a xlink:title=" ">
<polygon fill="#e0e0e0" stroke="#999999" points="1254.5,-129 1166.5,-129 1166.5,-110 1254.5,-110 1254.5,-129"/>
<text text-anchor="middle" x="1210.5" y="-117" font-family="Helvetica,sans-Serif" font-size="10.00">wx/hashmap.h</text>
</a>
</g>
</g>
<!-- Node5&#45;&gt;Node10 -->
<g id="edge10" class="edge">
<title>Node5&#45;&gt;Node10</title>
<path fill="none" stroke="#63b8ff" d="M1326.81,-219.89C1313.54,-211.33 1293.03,-197.56 1276.5,-184 1258.17,-168.97 1238.81,-149.91 1225.83,-136.62"/>
<polygon fill="#63b8ff" stroke="#63b8ff" points="1228.11,-133.93 1218.65,-129.17 1223.07,-138.79 1228.11,-133.93"/>
</g>
<!-- Node11 -->
<g id="node11" class="node">
<title>Node11</title>
<g id="a_node11"><a xlink:href="LoggingMessageDialog_8h.html" target="_top" xlink:title="This file declares a message dialog that sends its contents to the log message sink.">
<polygon fill="white" stroke="#666666" points="1981,-184 1804,-184 1804,-165 1981,-165 1981,-184"/>
<text text-anchor="middle" x="1892.5" y="-172" font-family="Helvetica,sans-Serif" font-size="10.00">dialogs/LoggingMessageDialog.h</text>
</a>
</g>
</g>
<!-- Node5&#45;&gt;Node11 -->
<g id="edge11" class="edge">
<title>Node5&#45;&gt;Node11</title>
<path fill="none" stroke="#63b8ff" d="M1386.14,-224.12C1475.14,-215.57 1673.68,-196.51 1794.02,-184.96"/>
<polygon fill="#63b8ff" stroke="#63b8ff" points="1794.36,-188.44 1803.98,-184 1793.69,-181.47 1794.36,-188.44"/>
</g>
<!-- Node14 -->
<g id="node14" class="node">
<title>Node14</title>
<g id="a_node14"><a xlink:href="TextStyle_8h.html" target="_top" xlink:title="This file declares everything needed for the text style system used to style all the elements on the ...">
<polygon fill="white" stroke="#666666" points="868.5,-184 772.5,-184 772.5,-165 868.5,-165 868.5,-184"/>
<text text-anchor="middle" x="820.5" y="-172" font-family="Helvetica,sans-Serif" font-size="10.00">cells/TextStyle.h</text>
</a>
</g>
</g>
<!-- Node5&#45;&gt;Node14 -->
<g id="edge15" class="edge">
<title>Node5&#45;&gt;Node14</title>
<path fill="none" stroke="#63b8ff" d="M1294.74,-224.9C1213.25,-218.31 1037.4,-203.32 878.63,-184.08"/>
<polygon fill="#63b8ff" stroke="#63b8ff" points="879.03,-180.6 868.68,-182.87 878.18,-187.55 879.03,-180.6"/>
</g>
<!-- Node21 -->
<g id="node21" class="node">
<title>Node21</title>
<g id="a_node21"><a xlink:title=" ">
<polygon fill="#e0e0e0" stroke="#999999" points="517.5,-74 467.5,-74 467.5,-55 517.5,-55 517.5,-74"/>
<text text-anchor="middle" x="492.5" y="-62" font-family="Helvetica,sans-Serif" font-size="10.00">cstdint</text>
</a>
</g>
</g>
<!-- Node5&#45;&gt;Node21 -->
<g id="edge49" class="edge">
<title>Node5&#45;&gt;Node21</title>
<path fill="none" stroke="#63b8ff" d="M1294.63,-227.14C1196.64,-223.75 959.8,-213.02 763.5,-184 650.95,-167.36 597.97,-205.21 513.5,-129 500.98,-117.71 495.91,-98.8 493.86,-84.55"/>
<polygon fill="#63b8ff" stroke="#63b8ff" points="497.32,-83.92 492.78,-74.35 490.35,-84.66 497.32,-83.92"/>
</g>
<!-- Node29 -->
<g id="node29" class="node">
<title>Node29</title>
<g id="a_node29"><a xlink:title=" ">
<polygon fill="#e0e0e0" stroke="#999999" points="599.5,-74 535.5,-74 535.5,-55 599.5,-55 599.5,-74"/>
<text text-anchor="middle" x="567.5" y="-62" font-family="Helvetica,sans-Serif" font-size="10.00">algorithm</text>
</a>
</g>
</g>
<!-- Node5&#45;&gt;Node29 -->
<g id="edge56" class="edge">
<title>Node5&#45;&gt;Node29</title>
<path fill="none" stroke="#63b8ff" d="M1294.97,-227.86C1211.82,-225.87 1039.51,-217.67 991.5,-184 961.23,-162.77 983.9,-131.05 953.5,-110 898.67,-72.04 698.3,-66.17 609.89,-65.47"/>
<polygon fill="#63b8ff" stroke="#63b8ff" points="609.7,-61.97 599.68,-65.4 609.66,-68.97 609.7,-61.97"/>
</g>
<!-- Node32 -->
<g id="node32" class="node">
<title>Node32</title>
<g id="a_node32"><a xlink:title=" ">
<polygon fill="#e0e0e0" stroke="#999999" points="1458.5,-74 1400.5,-74 1400.5,-55 1458.5,-55 1458.5,-74"/>
<text text-anchor="middle" x="1429.5" y="-62" font-family="Helvetica,sans-Serif" font-size="10.00">memory</text>
</a>
</g>
</g>
<!-- Node5&#45;&gt;Node32 -->
<g id="edge50" class="edge">
<title>Node5&#45;&gt;Node32</title>
<path fill="none" stroke="#63b8ff" d="M1352.98,-219.85C1373.96,-204.46 1415.57,-170.02 1431.5,-129 1437.06,-114.69 1435.98,-97.16 1433.84,-84.15"/>
<polygon fill="#63b8ff" stroke="#63b8ff" points="1437.22,-83.19 1431.82,-74.07 1430.35,-84.57 1437.22,-83.19"/>
</g>
<!-- Node33 -->
<g id="node33" class="node">
<title>Node33</title>
<g id="a_node33"><a xlink:title=" ">
<polygon fill="#e0e0e0" stroke="#999999" points="1508.5,-74 1476.5,-74 1476.5,-55 1508.5,-55 1508.5,-74"/>
<text text-anchor="middle" x="1492.5" y="-62" font-family="Helvetica,sans-Serif" font-size="10.00">list</text>
</a>
</g>
</g>
<!-- Node5&#45;&gt;Node33 -->
<g id="edge54" class="edge">
<title>Node5&#45;&gt;Node33</title>
<path fill="none" stroke="#63b8ff" d="M1359.42,-219.86C1375.14,-212.05 1397.44,-199.42 1413.5,-184 1445.32,-153.45 1471.16,-107.92 1483.9,-83.13"/>
<polygon fill="#63b8ff" stroke="#63b8ff" points="1487.04,-84.67 1488.4,-74.16 1480.79,-81.53 1487.04,-84.67"/>
</g>
<!-- Node35 -->
<g id="node35" class="node">
<title>Node35</title>
<g id="a_node35"><a xlink:title=" ">
<polygon fill="#e0e0e0" stroke="#999999" points="1280,-74 1187,-74 1187,-55 1280,-55 1280,-74"/>
<text text-anchor="middle" x="1233.5" y="-62" font-family="Helvetica,sans-Serif" font-size="10.00">unordered_map</text>
</a>
</g>
</g>
<!-- Node5&#45;&gt;Node35 -->
<g id="edge52" class="edge">
<title>Node5&#45;&gt;Node35</title>
<path fill="none" stroke="#63b8ff" d="M1334.95,-219.84C1322.35,-200.23 1290.58,-150.92 1263.5,-110 1257.45,-100.86 1250.62,-90.71 1245.01,-82.42"/>
<polygon fill="#63b8ff" stroke="#63b8ff" points="1247.8,-80.31 1239.29,-74 1242.01,-84.24 1247.8,-80.31"/>
</g>
<!-- Node36 -->
<g id="node36" class="node">
<title>Node36</title>
<g id="a_node36"><a xlink:title=" ">
<polygon fill="#e0e0e0" stroke="#999999" points="1541.5,-184 1493.5,-184 1493.5,-165 1541.5,-165 1541.5,-184"/>
<text text-anchor="middle" x="1517.5" y="-172" font-family="Helvetica,sans-Serif" font-size="10.00">mutex</text>
</a>
</g>
</g>
<!-- Node5&#45;&gt;Node36 -->
<g id="edge51" class="edge">
<title>Node5&#45;&gt;Node36</title>
<path fill="none" stroke="#63b8ff" d="M1368.94,-219.98C1400.2,-210.62 1450.39,-195.59 1483.66,-185.63"/>
<polygon fill="#63b8ff" stroke="#63b8ff" points="1484.82,-188.94 1493.4,-182.72 1482.81,-182.23 1484.82,-188.94"/>
</g>
<!-- Node37 -->
<g id="node37" class="node">
<title>Node37</title>
<g id="a_node37"><a xlink:title=" ">
<polygon fill="#e0e0e0" stroke="#999999" points="1613.5,-184 1559.5,-184 1559.5,-165 1613.5,-165 1613.5,-184"/>
<text text-anchor="middle" x="1586.5" y="-172" font-family="Helvetica,sans-Serif" font-size="10.00">random</text>
</a>
</g>
</g>
<!-- Node5&#45;&gt;Node37 -->
<g id="edge53" class="edge">
<title>Node5&#45;&gt;Node37</title>
<path fill="none" stroke="#63b8ff" d="M1382,-220C1422.34,-211.67 1485.58,-198.44 1549.54,-184.18"/>
<polygon fill="#63b8ff" stroke="#63b8ff" points="1550.39,-187.57 1559.39,-181.97 1548.87,-180.74 1550.39,-187.57"/>
</g>
<!-- Node38 -->
<g id="node38" class="node">
<title>Node38</title>
<g id="a_node38"><a xlink:title=" ">
<polygon fill="#e0e0e0" stroke="#999999" points="1679,-184 1632,-184 1632,-165 1679,-165 1679,-184"/>
<text text-anchor="middle" x="1655.5" y="-172" font-family="Helvetica,sans-Serif" font-size="10.00">vector</text>
</a>
</g>
</g>
<!-- Node5&#45;&gt;Node38 -->
<g id="edge55" class="edge">
<title>Node5&#45;&gt;Node38</title>
<path fill="none" stroke="#63b8ff" d="M1386.17,-222.66C1440.11,-215.46 1532.75,-202.15 1621.78,-183.97"/>
<polygon fill="#63b8ff" stroke="#63b8ff" points="1622.69,-187.35 1631.77,-181.9 1621.27,-180.5 1622.69,-187.35"/>
</g>
<!-- Node39 -->
<g id="node39" class="node">
<title>Node39</title>
<g id="a_node39"><a xlink:title=" ">
<polygon fill="#e0e0e0" stroke="#999999" points="1786,-184 1697,-184 1697,-165 1786,-165 1786,-184"/>
<text text-anchor="middle" x="1741.5" y="-172" font-family="Helvetica,sans-Serif" font-size="10.00">wx/wupdlock.h</text>
</a>
</g>
</g>
<!-- Node5&#45;&gt;Node39 -->
<g id="edge57" class="edge">
<title>Node5&#45;&gt;Node39</title>
<path fill="none" stroke="#63b8ff" d="M1386.16,-223.13C1450.85,-215.42 1573.11,-200.47 1687.04,-184.17"/>
<polygon fill="#63b8ff" stroke="#63b8ff" points="1687.58,-187.63 1696.98,-182.74 1686.59,-180.7 1687.58,-187.63"/>
</g>
<!-- Node11&#45;&gt;Node3 -->
<g id="edge12" class="edge">
<title>Node11&#45;&gt;Node3</title>
<path fill="none" stroke="#63b8ff" d="M1866.49,-164.94C1808.12,-145.72 1666.63,-99.13 1600.14,-77.24"/>
<polygon fill="#63b8ff" stroke="#63b8ff" points="1601.11,-73.87 1590.51,-74.07 1598.92,-80.52 1601.11,-73.87"/>
</g>
<!-- Node12 -->
<g id="node12" class="node">
<title>Node12</title>
<g id="a_node12"><a xlink:title=" ">
<polygon fill="#e0e0e0" stroke="#999999" points="1876,-129 1797,-129 1797,-110 1876,-110 1876,-129"/>
<text text-anchor="middle" x="1836.5" y="-117" font-family="Helvetica,sans-Serif" font-size="10.00">wx/msgdlg.h</text>
</a>
</g>
</g>
<!-- Node11&#45;&gt;Node12 -->
<g id="edge13" class="edge">
<title>Node11&#45;&gt;Node12</title>
<path fill="none" stroke="#63b8ff" d="M1883.5,-164.98C1875.31,-157.23 1862.99,-145.58 1853.03,-136.14"/>
<polygon fill="#63b8ff" stroke="#63b8ff" points="1855.33,-133.5 1845.66,-129.17 1850.52,-138.59 1855.33,-133.5"/>
</g>
<!-- Node13 -->
<g id="node13" class="node">
<title>Node13</title>
<g id="a_node13"><a xlink:title=" ">
<polygon fill="#e0e0e0" stroke="#999999" points="1951.5,-129 1893.5,-129 1893.5,-110 1951.5,-110 1951.5,-129"/>
<text text-anchor="middle" x="1922.5" y="-117" font-family="Helvetica,sans-Serif" font-size="10.00">wx/log.h</text>
</a>
</g>
</g>
<!-- Node11&#45;&gt;Node13 -->
<g id="edge14" class="edge">
<title>Node11&#45;&gt;Node13</title>
<path fill="none" stroke="#63b8ff" d="M1897.45,-164.75C1901.56,-157.49 1907.53,-146.95 1912.6,-137.98"/>
<polygon fill="#63b8ff" stroke="#63b8ff" points="1915.76,-139.52 1917.64,-129.09 1909.67,-136.07 1915.76,-139.52"/>
</g>
<!-- Node14&#45;&gt;Node3 -->
<g id="edge16" class="edge">
<title>Node14&#45;&gt;Node3</title>
<path fill="none" stroke="#63b8ff" d="M868.67,-166.03C871.65,-165.66 874.61,-165.31 877.5,-165 1122.84,-138.78 1192.75,-191.28 1431.5,-129 1472.73,-118.24 1516.61,-94.61 1542.24,-79.4"/>
<polygon fill="#63b8ff" stroke="#63b8ff" points="1544.06,-82.39 1550.81,-74.22 1540.44,-76.4 1544.06,-82.39"/>
</g>
<!-- Node14&#45;&gt;Node7 -->
<g id="edge22" class="edge">
<title>Node14&#45;&gt;Node7</title>
<path fill="none" stroke="#63b8ff" d="M867.41,-164.98C922.09,-155.06 1011.87,-138.77 1066.25,-128.89"/>
<polygon fill="#63b8ff" stroke="#63b8ff" points="1067.09,-132.3 1076.31,-127.07 1065.84,-125.41 1067.09,-132.3"/>
</g>
<!-- Node14&#45;&gt;Node10 -->
<g id="edge19" class="edge">
<title>Node14&#45;&gt;Node10</title>
<path fill="none" stroke="#63b8ff" d="M868.69,-166.24C871.67,-165.82 874.63,-165.4 877.5,-165 998.62,-148.18 1031.66,-146.99 1156.34,-129.13"/>
<polygon fill="#63b8ff" stroke="#63b8ff" points="1156.87,-132.59 1166.27,-127.7 1155.87,-125.66 1156.87,-132.59"/>
</g>
<!-- Node15 -->
<g id="node15" class="node">
<title>Node15</title>
<g id="a_node15"><a xlink:title=" ">
<polygon fill="#e0e0e0" stroke="#999999" points="650.5,-129 578.5,-129 578.5,-110 650.5,-110 650.5,-129"/>
<text text-anchor="middle" x="614.5" y="-117" font-family="Helvetica,sans-Serif" font-size="10.00">wx/colour.h</text>
</a>
</g>
</g>
<!-- Node14&#45;&gt;Node15 -->
<g id="edge17" class="edge">
<title>Node14&#45;&gt;Node15</title>
<path fill="none" stroke="#63b8ff" d="M787.4,-164.98C752.22,-155.93 696.43,-141.58 657.78,-131.64"/>
<polygon fill="#63b8ff" stroke="#63b8ff" points="658.41,-128.18 647.86,-129.08 656.67,-134.96 658.41,-128.18"/>
</g>
<!-- Node16 -->
<g id="node16" class="node">
<title>Node16</title>
<g id="a_node16"><a xlink:title=" ">
<polygon fill="#e0e0e0" stroke="#999999" points="706.5,-129 668.5,-129 668.5,-110 706.5,-110 706.5,-129"/>
<text text-anchor="middle" x="687.5" y="-117" font-family="Helvetica,sans-Serif" font-size="10.00">map</text>
</a>
</g>
</g>
<!-- Node14&#45;&gt;Node16 -->
<g id="edge18" class="edge">
<title>Node14&#45;&gt;Node16</title>
<path fill="none" stroke="#63b8ff" d="M799.13,-164.98C776.57,-155.99 740.89,-141.78 715.96,-131.84"/>
<polygon fill="#63b8ff" stroke="#63b8ff" points="717.24,-128.58 706.66,-128.13 714.65,-135.09 717.24,-128.58"/>
</g>
<!-- Node17 -->
<g id="node17" class="node">
<title>Node17</title>
<g id="a_node17"><a xlink:title=" ">
<polygon fill="#e0e0e0" stroke="#999999" points="768.5,-129 724.5,-129 724.5,-110 768.5,-110 768.5,-129"/>
<text text-anchor="middle" x="746.5" y="-117" font-family="Helvetica,sans-Serif" font-size="10.00">string</text>
</a>
</g>
</g>
<!-- Node14&#45;&gt;Node17 -->
<g id="edge20" class="edge">
<title>Node14&#45;&gt;Node17</title>
<path fill="none" stroke="#63b8ff" d="M808.61,-164.98C797.35,-156.92 780.21,-144.65 766.79,-135.03"/>
<polygon fill="#63b8ff" stroke="#63b8ff" points="768.77,-132.15 758.61,-129.17 764.7,-137.84 768.77,-132.15"/>
</g>
<!-- Node18 -->
<g id="node18" class="node">
<title>Node18</title>
<g id="a_node18"><a xlink:title=" ">
<polygon fill="#e0e0e0" stroke="#999999" points="844,-129 787,-129 787,-110 844,-110 844,-129"/>
<text text-anchor="middle" x="815.5" y="-117" font-family="Helvetica,sans-Serif" font-size="10.00">ostream</text>
</a>
</g>
</g>
<!-- Node14&#45;&gt;Node18 -->
<g id="edge21" class="edge">
<title>Node14&#45;&gt;Node18</title>
<path fill="none" stroke="#63b8ff" d="M819.67,-164.75C819.02,-157.8 818.08,-147.85 817.26,-139.13"/>
<polygon fill="#63b8ff" stroke="#63b8ff" points="820.73,-138.72 816.31,-129.09 813.77,-139.37 820.73,-138.72"/>
</g>
<!-- Node19 -->
<g id="node19" class="node">
<title>Node19</title>
<g id="a_node19"><a xlink:title=" ">
<polygon fill="#e0e0e0" stroke="#999999" points="1041.5,-74 979.5,-74 979.5,-55 1041.5,-55 1041.5,-74"/>
<text text-anchor="middle" x="1010.5" y="-62" font-family="Helvetica,sans-Serif" font-size="10.00">wx/font.h</text>
</a>
</g>
</g>
<!-- Node14&#45;&gt;Node19 -->
<g id="edge23" class="edge">
<title>Node14&#45;&gt;Node19</title>
<path fill="none" stroke="#63b8ff" d="M864.05,-164.94C891.33,-158.18 926.33,-146.84 953.5,-129 972.19,-116.73 988.66,-96.85 999.02,-82.61"/>
<polygon fill="#63b8ff" stroke="#63b8ff" points="1002.04,-84.39 1004.92,-74.19 996.31,-80.37 1002.04,-84.39"/>
</g>
<!-- Node20 -->
<g id="node20" class="node">
<title>Node20</title>
<g id="a_node20"><a xlink:title=" ">
<polygon fill="#e0e0e0" stroke="#999999" points="944.5,-129 862.5,-129 862.5,-110 944.5,-110 944.5,-129"/>
<text text-anchor="middle" x="903.5" y="-117" font-family="Helvetica,sans-Serif" font-size="10.00">wx/settings.h</text>
</a>
</g>
</g>
<!-- Node14&#45;&gt;Node20 -->
<g id="edge24" class="edge">
<title>Node14&#45;&gt;Node20</title>
<path fill="none" stroke="#63b8ff" d="M833.84,-164.98C846.59,-156.84 866.05,-144.41 881.17,-134.76"/>
<polygon fill="#63b8ff" stroke="#63b8ff" points="883.38,-137.5 889.92,-129.17 879.61,-131.6 883.38,-137.5"/>
</g>
<!-- Node14&#45;&gt;Node21 -->
<g id="edge25" class="edge">
<title>Node14&#45;&gt;Node21</title>
<path fill="none" stroke="#63b8ff" d="M772.38,-170.52C701.94,-165.41 574.92,-153.1 536.5,-129 519.33,-118.23 507.1,-98.05 499.96,-83.32"/>
<polygon fill="#63b8ff" stroke="#63b8ff" points="503.13,-81.85 495.83,-74.17 496.75,-84.73 503.13,-81.85"/>
</g>
<!-- Node22 -->
<g id="node22" class="node">
<title>Node22</title>
<g id="a_node22"><a xlink:title=" ">
<polygon fill="#e0e0e0" stroke="#999999" points="566,-19 501,-19 501,0 566,0 566,-19"/>
<text text-anchor="middle" x="533.5" y="-7" font-family="Helvetica,sans-Serif" font-size="10.00">functional</text>
</a>
</g>
</g>
<!-- Node14&#45;&gt;Node22 -->
<g id="edge26" class="edge">
<title>Node14&#45;&gt;Node22</title>
<path fill="none" stroke="#63b8ff" d="M772.39,-172.06C706.89,-168.96 594.87,-159.27 569.5,-129 564.08,-122.53 566.11,-117.74 569.5,-110 578.96,-88.39 599.04,-95.61 608.5,-74 611.89,-66.26 612.68,-62.34 608.5,-55 600.2,-40.43 585.05,-30.14 570.52,-23.15"/>
<polygon fill="#63b8ff" stroke="#63b8ff" points="571.71,-19.85 561.15,-19.02 568.89,-26.25 571.71,-19.85"/>
</g>
<!-- Node23 -->
<g id="node23" class="node">
<title>Node23</title>
<g id="a_node23"><a xlink:href="FontAttribs_8h_source.html" target="_top" xlink:title=" ">
<polygon fill="white" stroke="#666666" points="446,-129 367,-129 367,-110 446,-110 446,-129"/>
<text text-anchor="middle" x="406.5" y="-117" font-family="Helvetica,sans-Serif" font-size="10.00">FontAttribs.h</text>
</a>
</g>
</g>
<!-- Node14&#45;&gt;Node23 -->
<g id="edge27" class="edge">
<title>Node14&#45;&gt;Node23</title>
<path fill="none" stroke="#63b8ff" d="M772.2,-167.32C693.1,-157.19 536.73,-137.17 456.52,-126.9"/>
<polygon fill="#63b8ff" stroke="#63b8ff" points="456.56,-123.38 446.19,-125.58 455.67,-130.32 456.56,-123.38"/>
</g>
<!-- Node31 -->
<g id="node31" class="node">
<title>Node31</title>
<g id="a_node31"><a xlink:href="FontVariantCache_8h.html" target="_top" xlink:title="This file implements the wxFont cache system.">
<polygon fill="white" stroke="#666666" points="1422,-129 1311,-129 1311,-110 1422,-110 1422,-129"/>
<text text-anchor="middle" x="1366.5" y="-117" font-family="Helvetica,sans-Serif" font-size="10.00">FontVariantCache.h</text>
</a>
</g>
</g>
<!-- Node14&#45;&gt;Node31 -->
<g id="edge40" class="edge">
<title>Node14&#45;&gt;Node31</title>
<path fill="none" stroke="#63b8ff" d="M868.68,-166.12C871.66,-165.72 874.62,-165.35 877.5,-165 957.71,-155.38 1187.18,-135.61 1300.94,-126"/>
<polygon fill="#63b8ff" stroke="#63b8ff" points="1301.25,-129.48 1310.92,-125.15 1300.66,-122.51 1301.25,-129.48"/>
</g>
<!-- Node14&#45;&gt;Node35 -->
<g id="edge48" class="edge">
<title>Node14&#45;&gt;Node35</title>
<path fill="none" stroke="#63b8ff" d="M853.25,-164.94C927.43,-145.54 1108.21,-98.26 1190.92,-76.63"/>
<polygon fill="#63b8ff" stroke="#63b8ff" points="1191.95,-79.98 1200.74,-74.07 1190.18,-73.21 1191.95,-79.98"/>
</g>
<!-- Node23&#45;&gt;Node19 -->
<g id="edge34" class="edge">
<title>Node23&#45;&gt;Node19</title>
<path fill="none" stroke="#63b8ff" d="M446.13,-115.02C555.08,-105.46 858.34,-78.85 969.22,-69.12"/>
<polygon fill="#63b8ff" stroke="#63b8ff" points="969.68,-72.6 979.34,-68.23 969.07,-65.62 969.68,-72.6"/>
</g>
<!-- Node23&#45;&gt;Node21 -->
<g id="edge37" class="edge">
<title>Node23&#45;&gt;Node21</title>
<path fill="none" stroke="#63b8ff" d="M420.32,-109.98C433.65,-101.77 454.08,-89.18 469.81,-79.49"/>
<polygon fill="#63b8ff" stroke="#63b8ff" points="471.75,-82.4 478.43,-74.17 468.08,-76.44 471.75,-82.4"/>
</g>
<!-- Node23&#45;&gt;Node22 -->
<g id="edge38" class="edge">
<title>Node23&#45;&gt;Node22</title>
<path fill="none" stroke="#63b8ff" d="M412.09,-109.89C420.85,-96.87 438.83,-71.91 458.5,-55 472.82,-42.69 490.98,-31.82 505.84,-23.9"/>
<polygon fill="#63b8ff" stroke="#63b8ff" points="507.79,-26.84 515.06,-19.14 504.57,-20.62 507.79,-26.84"/>
</g>
<!-- Node24 -->
<g id="node24" class="node">
<title>Node24</title>
<g id="a_node24"><a xlink:href="EnumWrapper_8h_source.html" target="_top" xlink:title=" ">
<polygon fill="white" stroke="#666666" points="148.5,-74 54.5,-74 54.5,-55 148.5,-55 148.5,-74"/>
<text text-anchor="middle" x="101.5" y="-62" font-family="Helvetica,sans-Serif" font-size="10.00">EnumWrapper.h</text>
</a>
</g>
</g>
<!-- Node23&#45;&gt;Node24 -->
<g id="edge28" class="edge">
<title>Node23&#45;&gt;Node24</title>
<path fill="none" stroke="#63b8ff" d="M366.94,-111.63C313.99,-102.42 219.72,-86.04 158.95,-75.48"/>
<polygon fill="#63b8ff" stroke="#63b8ff" points="159.2,-71.97 148.75,-73.71 158,-78.87 159.2,-71.97"/>
</g>
<!-- Node26 -->
<g id="node26" class="node">
<title>Node26</title>
<g id="a_node26"><a xlink:href="clamp_8hpp_source.html" target="_top" xlink:title=" ">
<polygon fill="white" stroke="#666666" points="252.5,-74 166.5,-74 166.5,-55 252.5,-55 252.5,-74"/>
<text text-anchor="middle" x="209.5" y="-62" font-family="Helvetica,sans-Serif" font-size="10.00">stx/clamp.hpp</text>
</a>
</g>
</g>
<!-- Node23&#45;&gt;Node26 -->
<g id="edge32" class="edge">
<title>Node23&#45;&gt;Node26</title>
<path fill="none" stroke="#63b8ff" d="M374.85,-109.98C341.34,-100.97 288.3,-86.7 251.36,-76.76"/>
<polygon fill="#63b8ff" stroke="#63b8ff" points="251.97,-73.3 241.4,-74.08 250.15,-80.06 251.97,-73.3"/>
</g>
<!-- Node28 -->
<g id="node28" class="node">
<title>Node28</title>
<g id="a_node28"><a xlink:title=" ">
<polygon fill="#e0e0e0" stroke="#999999" points="350,-74 271,-74 271,-55 350,-55 350,-74"/>
<text text-anchor="middle" x="310.5" y="-62" font-family="Helvetica,sans-Serif" font-size="10.00">wx/version.h</text>
</a>
</g>
</g>
<!-- Node23&#45;&gt;Node28 -->
<g id="edge35" class="edge">
<title>Node23&#45;&gt;Node28</title>
<path fill="none" stroke="#63b8ff" d="M391.08,-109.98C376.05,-101.69 352.96,-88.94 335.34,-79.22"/>
<polygon fill="#63b8ff" stroke="#63b8ff" points="336.65,-75.94 326.2,-74.17 333.27,-82.07 336.65,-75.94"/>
</g>
<!-- Node23&#45;&gt;Node29 -->
<g id="edge36" class="edge">
<title>Node23&#45;&gt;Node29</title>
<path fill="none" stroke="#63b8ff" d="M432.37,-109.98C459.28,-101.13 501.62,-87.19 531.73,-77.28"/>
<polygon fill="#63b8ff" stroke="#63b8ff" points="533.03,-80.53 541.43,-74.08 530.84,-73.88 533.03,-80.53"/>
</g>
<!-- Node30 -->
<g id="node30" class="node">
<title>Node30</title>
<g id="a_node30"><a xlink:title=" ">
<polygon fill="#e0e0e0" stroke="#999999" points="411.5,-74 367.5,-74 367.5,-55 411.5,-55 411.5,-74"/>
<text text-anchor="middle" x="389.5" y="-62" font-family="Helvetica,sans-Serif" font-size="10.00">limits</text>
</a>
</g>
</g>
<!-- Node23&#45;&gt;Node30 -->
<g id="edge39" class="edge">
<title>Node23&#45;&gt;Node30</title>
<path fill="none" stroke="#63b8ff" d="M403.69,-109.75C401.44,-102.72 398.2,-92.62 395.38,-83.84"/>
<polygon fill="#63b8ff" stroke="#63b8ff" points="398.64,-82.54 392.25,-74.09 391.98,-84.68 398.64,-82.54"/>
</g>
<!-- Node24&#45;&gt;Node2 -->
<g id="edge29" class="edge">
<title>Node24&#45;&gt;Node2</title>
<path fill="none" stroke="#63b8ff" d="M89.45,-54.98C78.04,-46.92 60.67,-34.65 47.07,-25.03"/>
<polygon fill="#63b8ff" stroke="#63b8ff" points="48.96,-22.08 38.77,-19.17 44.92,-27.8 48.96,-22.08"/>
</g>
<!-- Node24&#45;&gt;Node22 -->
<g id="edge30" class="edge">
<title>Node24&#45;&gt;Node22</title>
<path fill="none" stroke="#63b8ff" d="M148.54,-56.25C151.57,-55.81 154.58,-55.39 157.5,-55 278.01,-38.73 420.71,-22.73 490.59,-15.11"/>
<polygon fill="#63b8ff" stroke="#63b8ff" points="491.2,-18.57 500.76,-14.01 490.44,-11.61 491.2,-18.57"/>
</g>
<!-- Node25 -->
<g id="node25" class="node">
<title>Node25</title>
<g id="a_node25"><a xlink:title=" ">
<polygon fill="#e0e0e0" stroke="#999999" points="140,-19 71,-19 71,0 140,0 140,-19"/>
<text text-anchor="middle" x="105.5" y="-7" font-family="Helvetica,sans-Serif" font-size="10.00">type_traits</text>
</a>
</g>
</g>
<!-- Node24&#45;&gt;Node25 -->
<g id="edge31" class="edge">
<title>Node24&#45;&gt;Node25</title>
<path fill="none" stroke="#63b8ff" d="M102.16,-54.75C102.68,-47.8 103.44,-37.85 104.09,-29.13"/>
<polygon fill="#63b8ff" stroke="#63b8ff" points="107.59,-29.32 104.85,-19.09 100.61,-28.8 107.59,-29.32"/>
</g>
<!-- Node27 -->
<g id="node27" class="node">
<title>Node27</title>
<g id="a_node27"><a xlink:title=" ">
<polygon fill="#e0e0e0" stroke="#999999" points="235.5,-19 183.5,-19 183.5,0 235.5,0 235.5,-19"/>
<text text-anchor="middle" x="209.5" y="-7" font-family="Helvetica,sans-Serif" font-size="10.00">cassert</text>
</a>
</g>
</g>
<!-- Node26&#45;&gt;Node27 -->
<g id="edge33" class="edge">
<title>Node26&#45;&gt;Node27</title>
<path fill="none" stroke="#63b8ff" d="M209.5,-54.75C209.5,-47.8 209.5,-37.85 209.5,-29.13"/>
<polygon fill="#63b8ff" stroke="#63b8ff" points="213,-29.09 209.5,-19.09 206,-29.09 213,-29.09"/>
</g>
<!-- Node31&#45;&gt;Node3 -->
<g id="edge41" class="edge">
<title>Node31&#45;&gt;Node3</title>
<path fill="none" stroke="#63b8ff" d="M1398.31,-109.98C1431.99,-100.97 1485.3,-86.7 1522.42,-76.76"/>
<polygon fill="#63b8ff" stroke="#63b8ff" points="1523.68,-80.05 1532.44,-74.08 1521.87,-73.29 1523.68,-80.05"/>
</g>
<!-- Node31&#45;&gt;Node19 -->
<g id="edge43" class="edge">
<title>Node31&#45;&gt;Node19</title>
<path fill="none" stroke="#63b8ff" d="M1310.88,-110.22C1239.19,-99.55 1116.17,-81.23 1052.07,-71.69"/>
<polygon fill="#63b8ff" stroke="#63b8ff" points="1052.34,-68.19 1041.94,-70.18 1051.31,-75.11 1052.34,-68.19"/>
</g>
<!-- Node31&#45;&gt;Node22 -->
<g id="edge44" class="edge">
<title>Node31&#45;&gt;Node22</title>
<path fill="none" stroke="#63b8ff" d="M1359.39,-109.96C1346.82,-95.57 1319.09,-66.9 1288.5,-55 1222.18,-29.19 726.72,-15.18 576.53,-11.5"/>
<polygon fill="#63b8ff" stroke="#63b8ff" points="576.4,-7.99 566.32,-11.25 576.23,-14.99 576.4,-7.99"/>
</g>
<!-- Node31&#45;&gt;Node32 -->
<g id="edge42" class="edge">
<title>Node31&#45;&gt;Node32</title>
<path fill="none" stroke="#63b8ff" d="M1376.62,-109.98C1385.94,-102.15 1399.97,-90.34 1411.24,-80.86"/>
<polygon fill="#63b8ff" stroke="#63b8ff" points="1413.79,-83.29 1419.19,-74.17 1409.29,-77.93 1413.79,-83.29"/>
</g>
<!-- Node31&#45;&gt;Node33 -->
<g id="edge45" class="edge">
<title>Node31&#45;&gt;Node33</title>
<path fill="none" stroke="#63b8ff" d="M1386.74,-109.98C1408.54,-100.82 1443.25,-86.22 1466.92,-76.26"/>
<polygon fill="#63b8ff" stroke="#63b8ff" points="1468.45,-79.41 1476.31,-72.31 1465.74,-72.96 1468.45,-79.41"/>
</g>
<!-- Node34 -->
<g id="node34" class="node">
<title>Node34</title>
<g id="a_node34"><a xlink:title=" ">
<polygon fill="#e0e0e0" stroke="#999999" points="1382,-74 1337,-74 1337,-55 1382,-55 1382,-74"/>
<text text-anchor="middle" x="1359.5" y="-62" font-family="Helvetica,sans-Serif" font-size="10.00">utility</text>
</a>
</g>
</g>
<!-- Node31&#45;&gt;Node34 -->
<g id="edge46" class="edge">
<title>Node31&#45;&gt;Node34</title>
<path fill="none" stroke="#63b8ff" d="M1365.34,-109.75C1364.43,-102.8 1363.11,-92.85 1361.96,-84.13"/>
<polygon fill="#63b8ff" stroke="#63b8ff" points="1365.41,-83.54 1360.63,-74.09 1358.47,-84.46 1365.41,-83.54"/>
</g>
<!-- Node31&#45;&gt;Node35 -->
<g id="edge47" class="edge">
<title>Node31&#45;&gt;Node35</title>
<path fill="none" stroke="#63b8ff" d="M1345.13,-109.98C1323.35,-101.3 1289.34,-87.75 1264.58,-77.88"/>
<polygon fill="#63b8ff" stroke="#63b8ff" points="1265.84,-74.62 1255.26,-74.17 1263.25,-81.12 1265.84,-74.62"/>
</g>
</g>
</svg>
