<?xml version="1.0" encoding="UTF-8" standalone="no"?>
<!DOCTYPE svg PUBLIC "-//W3C//DTD SVG 1.1//EN"
 "http://www.w3.org/Graphics/SVG/1.1/DTD/svg11.dtd">
<!-- Generated by graphviz version 2.43.0 (0)
 -->
<!-- Title: src/wxMaximaIcon.cpp Pages: 1 -->
<svg width="2353pt" height="412pt"
 viewBox="0.00 0.00 2353.08 412.00" xmlns="http://www.w3.org/2000/svg" xmlns:xlink="http://www.w3.org/1999/xlink">
<g id="graph0" class="graph" transform="scale(1 1) rotate(0) translate(4 408)">
<title>src/wxMaximaIcon.cpp</title>
<!-- Node1 -->
<g id="node1" class="node">
<title>Node1</title>
<g id="a_node1"><a xlink:title="This file defines the class Image that stores compressed images and handles scaling and uncompressing...">
<polygon fill="#999999" stroke="#666666" points="1772.58,-404 1644.58,-404 1644.58,-385 1772.58,-385 1772.58,-404"/>
<text text-anchor="middle" x="1708.58" y="-392" font-family="Helvetica,sans-Serif" font-size="10.00">src/wxMaximaIcon.cpp</text>
</a>
</g>
</g>
<!-- Node2 -->
<g id="node2" class="node">
<title>Node2</title>
<g id="a_node2"><a xlink:href="wxMaximaIcon_8h.html" target="_top" xlink:title="This file declares the function that returns the wxMaxima icon.">
<polygon fill="white" stroke="#666666" points="1599.58,-349 1499.58,-349 1499.58,-330 1599.58,-330 1599.58,-349"/>
<text text-anchor="middle" x="1549.58" y="-337" font-family="Helvetica,sans-Serif" font-size="10.00">wxMaximaIcon.h</text>
</a>
</g>
</g>
<!-- Node1&#45;&gt;Node2 -->
<g id="edge1" class="edge">
<title>Node1&#45;&gt;Node2</title>
<path fill="none" stroke="#63b8ff" d="M1683.03,-384.98C1656.45,-376.13 1614.64,-362.19 1584.9,-352.28"/>
<polygon fill="#63b8ff" stroke="#63b8ff" points="1585.92,-348.92 1575.32,-349.08 1583.7,-355.56 1585.92,-348.92"/>
</g>
<!-- Node57 -->
<g id="node48" class="node">
<title>Node57</title>
<g id="a_node48"><a xlink:href="icon_8h_source.html" target="_top" xlink:title=" ">
<polygon fill="white" stroke="#666666" points="1697.58,-349 1617.58,-349 1617.58,-330 1697.58,-330 1697.58,-349"/>
<text text-anchor="middle" x="1657.58" y="-337" font-family="Helvetica,sans-Serif" font-size="10.00">../data/icon.h</text>
</a>
</g>
</g>
<!-- Node1&#45;&gt;Node57 -->
<g id="edge72" class="edge">
<title>Node1&#45;&gt;Node57</title>
<path fill="none" stroke="#63b8ff" d="M1700.15,-384.75C1692.8,-377.11 1681.94,-365.82 1673.03,-356.56"/>
<polygon fill="#63b8ff" stroke="#63b8ff" points="1675.3,-353.87 1665.84,-349.09 1670.25,-358.72 1675.3,-353.87"/>
</g>
<!-- Node58 -->
<g id="node49" class="node">
<title>Node58</title>
<g id="a_node49"><a xlink:title=" ">
<polygon fill="#e0e0e0" stroke="#999999" points="1803.08,-349 1716.08,-349 1716.08,-330 1803.08,-330 1803.08,-349"/>
<text text-anchor="middle" x="1759.58" y="-337" font-family="Helvetica,sans-Serif" font-size="10.00">wx/mstream.h</text>
</a>
</g>
</g>
<!-- Node1&#45;&gt;Node58 -->
<g id="edge73" class="edge">
<title>Node1&#45;&gt;Node58</title>
<path fill="none" stroke="#63b8ff" d="M1717,-384.75C1724.35,-377.11 1735.21,-365.82 1744.12,-356.56"/>
<polygon fill="#63b8ff" stroke="#63b8ff" points="1746.9,-358.72 1751.31,-349.09 1741.86,-353.87 1746.9,-358.72"/>
</g>
<!-- Node59 -->
<g id="node50" class="node">
<title>Node59</title>
<g id="a_node50"><a xlink:title=" ">
<polygon fill="#e0e0e0" stroke="#999999" points="1910.08,-349 1821.08,-349 1821.08,-330 1910.08,-330 1910.08,-349"/>
<text text-anchor="middle" x="1865.58" y="-337" font-family="Helvetica,sans-Serif" font-size="10.00">wx/wfstream.h</text>
</a>
</g>
</g>
<!-- Node1&#45;&gt;Node59 -->
<g id="edge74" class="edge">
<title>Node1&#45;&gt;Node59</title>
<path fill="none" stroke="#63b8ff" d="M1733.8,-384.98C1759.93,-376.16 1800.97,-362.31 1830.31,-352.41"/>
<polygon fill="#63b8ff" stroke="#63b8ff" points="1831.8,-355.6 1840.15,-349.08 1829.56,-348.96 1831.8,-355.6"/>
</g>
<!-- Node3 -->
<g id="node3" class="node">
<title>Node3</title>
<g id="a_node3"><a xlink:href="Cell_8h.html" target="_top" xlink:title="The definition of the base class of all cells the worksheet consists of.">
<polygon fill="white" stroke="#666666" points="1456.58,-294 1386.58,-294 1386.58,-275 1456.58,-275 1456.58,-294"/>
<text text-anchor="middle" x="1421.58" y="-282" font-family="Helvetica,sans-Serif" font-size="10.00">cells/Cell.h</text>
</a>
</g>
</g>
<!-- Node2&#45;&gt;Node3 -->
<g id="edge2" class="edge">
<title>Node2&#45;&gt;Node3</title>
<path fill="none" stroke="#63b8ff" d="M1529.01,-329.98C1508.14,-321.34 1475.6,-307.87 1451.8,-298.02"/>
<polygon fill="#63b8ff" stroke="#63b8ff" points="1453.09,-294.76 1442.52,-294.17 1450.42,-301.23 1453.09,-294.76"/>
</g>
<!-- Node54 -->
<g id="node45" class="node">
<title>Node54</title>
<g id="a_node45"><a xlink:title=" ">
<polygon fill="#e0e0e0" stroke="#999999" points="1538.08,-294 1475.08,-294 1475.08,-275 1538.08,-275 1538.08,-294"/>
<text text-anchor="middle" x="1506.58" y="-282" font-family="Helvetica,sans-Serif" font-size="10.00">wx/icon.h</text>
</a>
</g>
</g>
<!-- Node2&#45;&gt;Node54 -->
<g id="edge69" class="edge">
<title>Node2&#45;&gt;Node54</title>
<path fill="none" stroke="#63b8ff" d="M1542.48,-329.75C1536.4,-322.26 1527.49,-311.28 1520.07,-302.13"/>
<polygon fill="#63b8ff" stroke="#63b8ff" points="1522.56,-299.65 1513.54,-294.09 1517.13,-304.06 1522.56,-299.65"/>
</g>
<!-- Node55 -->
<g id="node46" class="node">
<title>Node55</title>
<g id="a_node46"><a xlink:title=" ">
<polygon fill="#e0e0e0" stroke="#999999" points="1630.58,-294 1556.58,-294 1556.58,-275 1630.58,-275 1630.58,-294"/>
<text text-anchor="middle" x="1593.58" y="-282" font-family="Helvetica,sans-Serif" font-size="10.00">wx/image.h</text>
</a>
</g>
</g>
<!-- Node2&#45;&gt;Node55 -->
<g id="edge70" class="edge">
<title>Node2&#45;&gt;Node55</title>
<path fill="none" stroke="#63b8ff" d="M1556.84,-329.75C1563.12,-322.18 1572.36,-311.05 1580.01,-301.84"/>
<polygon fill="#63b8ff" stroke="#63b8ff" points="1582.75,-304.02 1586.45,-294.09 1577.36,-299.55 1582.75,-304.02"/>
</g>
<!-- Node56 -->
<g id="node47" class="node">
<title>Node56</title>
<g id="a_node47"><a xlink:title=" ">
<polygon fill="#e0e0e0" stroke="#999999" points="1726.08,-294 1649.08,-294 1649.08,-275 1726.08,-275 1726.08,-294"/>
<text text-anchor="middle" x="1687.58" y="-282" font-family="Helvetica,sans-Serif" font-size="10.00">wx/bitmap.h</text>
</a>
</g>
</g>
<!-- Node2&#45;&gt;Node56 -->
<g id="edge71" class="edge">
<title>Node2&#45;&gt;Node56</title>
<path fill="none" stroke="#63b8ff" d="M1571.75,-329.98C1594.35,-321.3 1629.64,-307.75 1655.33,-297.88"/>
<polygon fill="#63b8ff" stroke="#63b8ff" points="1656.92,-301.02 1665,-294.17 1654.41,-294.49 1656.92,-301.02"/>
</g>
<!-- Node4 -->
<g id="node4" class="node">
<title>Node4</title>
<g id="a_node4"><a xlink:href="precomp_8h_source.html" target="_top" xlink:title=" ">
<polygon fill="white" stroke="#666666" points="780.08,-74 703.08,-74 703.08,-55 780.08,-55 780.08,-74"/>
<text text-anchor="middle" x="741.58" y="-62" font-family="Helvetica,sans-Serif" font-size="10.00">../precomp.h</text>
</a>
</g>
</g>
<!-- Node3&#45;&gt;Node4 -->
<g id="edge3" class="edge">
<title>Node3&#45;&gt;Node4</title>
<path fill="none" stroke="#63b8ff" d="M1386.35,-283.24C1213.24,-281.83 451.77,-273.71 217.58,-239 122.56,-224.92 67.22,-260.07 8.58,-184 -77.32,-72.58 516.15,-65.01 692.92,-65.2"/>
<polygon fill="#63b8ff" stroke="#63b8ff" points="692.97,-68.7 702.98,-65.22 692.99,-61.7 692.97,-68.7"/>
</g>
<!-- Node6 -->
<g id="node6" class="node">
<title>Node6</title>
<g id="a_node6"><a xlink:href="CellPtr_8h.html" target="_top" xlink:title="Implementation of an observing weak Cell pointer.">
<polygon fill="white" stroke="#666666" points="284.08,-239 227.08,-239 227.08,-220 284.08,-220 284.08,-239"/>
<text text-anchor="middle" x="255.58" y="-227" font-family="Helvetica,sans-Serif" font-size="10.00">CellPtr.h</text>
</a>
</g>
</g>
<!-- Node3&#45;&gt;Node6 -->
<g id="edge5" class="edge">
<title>Node3&#45;&gt;Node6</title>
<path fill="none" stroke="#63b8ff" d="M1386.24,-282.96C1249.97,-280.7 745.62,-270.57 331.58,-239 319.49,-238.08 306.37,-236.73 294.48,-235.39"/>
<polygon fill="#63b8ff" stroke="#63b8ff" points="294.74,-231.89 284.4,-234.21 293.93,-238.84 294.74,-231.89"/>
</g>
<!-- Node13 -->
<g id="node13" class="node">
<title>Node13</title>
<g id="a_node13"><a xlink:title=" ">
<polygon fill="#e0e0e0" stroke="#999999" points="630.58,-184 572.58,-184 572.58,-165 630.58,-165 630.58,-184"/>
<text text-anchor="middle" x="601.58" y="-172" font-family="Helvetica,sans-Serif" font-size="10.00">memory</text>
</a>
</g>
</g>
<!-- Node3&#45;&gt;Node13 -->
<g id="edge66" class="edge">
<title>Node3&#45;&gt;Node13</title>
<path fill="none" stroke="#63b8ff" d="M1386.22,-279.84C1276.07,-268.24 929.49,-230.35 644.58,-184 643.31,-183.79 642.02,-183.58 640.72,-183.35"/>
<polygon fill="#63b8ff" stroke="#63b8ff" points="641.14,-179.87 630.67,-181.53 639.89,-186.76 641.14,-179.87"/>
</g>
<!-- Node14 -->
<g id="node14" class="node">
<title>Node14</title>
<g id="a_node14"><a xlink:title=" ">
<polygon fill="#e0e0e0" stroke="#999999" points="483.08,-184 414.08,-184 414.08,-165 483.08,-165 483.08,-184"/>
<text text-anchor="middle" x="448.58" y="-172" font-family="Helvetica,sans-Serif" font-size="10.00">type_traits</text>
</a>
</g>
</g>
<!-- Node3&#45;&gt;Node14 -->
<g id="edge68" class="edge">
<title>Node3&#45;&gt;Node14</title>
<path fill="none" stroke="#63b8ff" d="M1386.48,-282.86C1219.95,-279.72 515.9,-264.93 477.58,-239 462.7,-228.94 455.33,-209.24 451.76,-194.44"/>
<polygon fill="#63b8ff" stroke="#63b8ff" points="455.12,-193.42 449.71,-184.31 448.26,-194.81 455.12,-193.42"/>
</g>
<!-- Node15 -->
<g id="node15" class="node">
<title>Node15</title>
<g id="a_node15"><a xlink:href="CellIterators_8h.html" target="_top" xlink:title="Declares the various iterators useful with the Cell class.">
<polygon fill="white" stroke="#666666" points="572.58,-239 486.58,-239 486.58,-220 572.58,-220 572.58,-239"/>
<text text-anchor="middle" x="529.58" y="-227" font-family="Helvetica,sans-Serif" font-size="10.00">CellIterators.h</text>
</a>
</g>
</g>
<!-- Node3&#45;&gt;Node15 -->
<g id="edge14" class="edge">
<title>Node3&#45;&gt;Node15</title>
<path fill="none" stroke="#63b8ff" d="M1386.33,-281.41C1248.9,-273.24 748.38,-243.5 583.01,-233.67"/>
<polygon fill="#63b8ff" stroke="#63b8ff" points="582.8,-230.16 572.61,-233.06 582.38,-237.14 582.8,-230.16"/>
</g>
<!-- Node17 -->
<g id="node17" class="node">
<title>Node17</title>
<g id="a_node17"><a xlink:href="Configuration_8h_source.html" target="_top" xlink:title=" ">
<polygon fill="white" stroke="#666666" points="1467.08,-239 1376.08,-239 1376.08,-220 1467.08,-220 1467.08,-239"/>
<text text-anchor="middle" x="1421.58" y="-227" font-family="Helvetica,sans-Serif" font-size="10.00">Configuration.h</text>
</a>
</g>
</g>
<!-- Node3&#45;&gt;Node17 -->
<g id="edge19" class="edge">
<title>Node3&#45;&gt;Node17</title>
<path fill="none" stroke="#63b8ff" d="M1421.58,-274.75C1421.58,-267.8 1421.58,-257.85 1421.58,-249.13"/>
<polygon fill="#63b8ff" stroke="#63b8ff" points="1425.08,-249.09 1421.58,-239.09 1418.08,-249.09 1425.08,-249.09"/>
</g>
<!-- Node25 -->
<g id="node24" class="node">
<title>Node25</title>
<g id="a_node24"><a xlink:href="TextStyle_8h.html" target="_top" xlink:title="This file declares everything needed for the text style system used to style all the elements on the ...">
<polygon fill="#fff0f0" stroke="red" points="1609.58,-129 1513.58,-129 1513.58,-110 1609.58,-110 1609.58,-129"/>
<text text-anchor="middle" x="1561.58" y="-117" font-family="Helvetica,sans-Serif" font-size="10.00">cells/TextStyle.h</text>
</a>
</g>
</g>
<!-- Node3&#45;&gt;Node25 -->
<g id="edge58" class="edge">
<title>Node3&#45;&gt;Node25</title>
<path fill="none" stroke="#63b8ff" d="M1456.61,-276.56C1459.64,-276.01 1462.66,-275.48 1465.58,-275 1592.34,-254.03 1954.04,-282.47 2036.58,-184 2042,-177.53 2042.26,-171.24 2036.58,-165 2009.01,-134.73 1740.63,-124.67 1619.9,-121.66"/>
<polygon fill="#63b8ff" stroke="#63b8ff" points="1619.82,-118.16 1609.73,-121.42 1619.65,-125.16 1619.82,-118.16"/>
</g>
<!-- Node27 -->
<g id="node26" class="node">
<title>Node27</title>
<g id="a_node26"><a xlink:title=" ">
<polygon fill="#e0e0e0" stroke="#999999" points="2005.58,-74 1967.58,-74 1967.58,-55 2005.58,-55 2005.58,-74"/>
<text text-anchor="middle" x="1986.58" y="-62" font-family="Helvetica,sans-Serif" font-size="10.00">map</text>
</a>
</g>
</g>
<!-- Node3&#45;&gt;Node27 -->
<g id="edge65" class="edge">
<title>Node3&#45;&gt;Node27</title>
<path fill="none" stroke="#63b8ff" d="M1456.58,-276.33C1459.61,-275.83 1462.64,-275.38 1465.58,-275 1585.51,-259.5 1896.82,-285.2 2008.58,-239 2048.49,-222.5 2086.53,-205.52 2071.58,-165 2058.51,-129.59 2026.61,-98.24 2005.82,-80.59"/>
<polygon fill="#63b8ff" stroke="#63b8ff" points="2007.89,-77.76 1997.94,-74.1 2003.44,-83.16 2007.89,-77.76"/>
</g>
<!-- Node42 -->
<g id="node31" class="node">
<title>Node42</title>
<g id="a_node31"><a xlink:title=" ">
<polygon fill="#e0e0e0" stroke="#999999" points="1959.08,-129 1912.08,-129 1912.08,-110 1959.08,-110 1959.08,-129"/>
<text text-anchor="middle" x="1935.58" y="-117" font-family="Helvetica,sans-Serif" font-size="10.00">vector</text>
</a>
</g>
</g>
<!-- Node3&#45;&gt;Node42 -->
<g id="edge67" class="edge">
<title>Node3&#45;&gt;Node42</title>
<path fill="none" stroke="#63b8ff" d="M1456.58,-276.35C1459.61,-275.85 1462.64,-275.39 1465.58,-275 1687.34,-245.73 1755.27,-309.42 1967.58,-239 2015.44,-223.12 2082.26,-206.47 2053.58,-165 2034.8,-137.86 1997.22,-127.25 1969.5,-123.12"/>
<polygon fill="#63b8ff" stroke="#63b8ff" points="1969.77,-119.62 1959.41,-121.83 1968.89,-126.57 1969.77,-119.62"/>
</g>
<!-- Node36 -->
<g id="node36" class="node">
<title>Node36</title>
<g id="a_node36"><a xlink:title=" ">
<polygon fill="#e0e0e0" stroke="#999999" points="2027.58,-184 1963.58,-184 1963.58,-165 2027.58,-165 2027.58,-184"/>
<text text-anchor="middle" x="1995.58" y="-172" font-family="Helvetica,sans-Serif" font-size="10.00">algorithm</text>
</a>
</g>
</g>
<!-- Node3&#45;&gt;Node36 -->
<g id="edge64" class="edge">
<title>Node3&#45;&gt;Node36</title>
<path fill="none" stroke="#63b8ff" d="M1456.64,-276.71C1459.66,-276.13 1462.67,-275.55 1465.58,-275 1646.93,-240.46 1863.36,-200.09 1953.23,-183.37"/>
<polygon fill="#63b8ff" stroke="#63b8ff" points="1954.11,-186.77 1963.3,-181.5 1952.83,-179.89 1954.11,-186.77"/>
</g>
<!-- Node49 -->
<g id="node40" class="node">
<title>Node49</title>
<g id="a_node40"><a xlink:href="StringUtils_8h_source.html" target="_top" xlink:title=" ">
<polygon fill="white" stroke="#666666" points="2237.08,-239 2160.08,-239 2160.08,-220 2237.08,-220 2237.08,-239"/>
<text text-anchor="middle" x="2198.58" y="-227" font-family="Helvetica,sans-Serif" font-size="10.00">StringUtils.h</text>
</a>
</g>
</g>
<!-- Node3&#45;&gt;Node49 -->
<g id="edge55" class="edge">
<title>Node3&#45;&gt;Node49</title>
<path fill="none" stroke="#63b8ff" d="M1457.05,-276.21C1459.93,-275.75 1462.8,-275.34 1465.58,-275 1765.98,-238.21 1844.63,-271.01 2145.58,-239 2146.88,-238.86 2148.2,-238.71 2149.53,-238.55"/>
<polygon fill="#63b8ff" stroke="#63b8ff" points="2150.39,-241.97 2159.85,-237.2 2149.48,-235.03 2150.39,-241.97"/>
</g>
<!-- Node52 -->
<g id="node43" class="node">
<title>Node52</title>
<g id="a_node43"><a xlink:href="CachedValue_8h.html" target="_top" xlink:title="Declares &quot;mostly read&#45;only&quot; wrappers around values that are expensive to compute and are thus cached.">
<polygon fill="#fff0f0" stroke="red" points="430.08,-239 341.08,-239 341.08,-220 430.08,-220 430.08,-239"/>
<text text-anchor="middle" x="385.58" y="-227" font-family="Helvetica,sans-Serif" font-size="10.00">CachedValue.h</text>
</a>
</g>
</g>
<!-- Node3&#45;&gt;Node52 -->
<g id="edge59" class="edge">
<title>Node3&#45;&gt;Node52</title>
<path fill="none" stroke="#63b8ff" d="M1386.44,-283.14C1259.37,-281.56 811.81,-273.73 444.58,-239 443.27,-238.88 441.95,-238.74 440.62,-238.61"/>
<polygon fill="#63b8ff" stroke="#63b8ff" points="440.64,-235.08 430.3,-237.41 439.83,-242.04 440.64,-235.08"/>
</g>
<!-- Node53 -->
<g id="node44" class="node">
<title>Node53</title>
<g id="a_node44"><a xlink:title=" ">
<polygon fill="#e0e0e0" stroke="#999999" points="2319.58,-239 2255.58,-239 2255.58,-220 2319.58,-220 2319.58,-239"/>
<text text-anchor="middle" x="2287.58" y="-227" font-family="Helvetica,sans-Serif" font-size="10.00">wx/defs.h</text>
</a>
</g>
</g>
<!-- Node3&#45;&gt;Node53 -->
<g id="edge63" class="edge">
<title>Node3&#45;&gt;Node53</title>
<path fill="none" stroke="#63b8ff" d="M1457.05,-276.19C1459.93,-275.74 1462.79,-275.33 1465.58,-275 1807.34,-234.33 1900.06,-281.49 2245.4,-238.92"/>
<polygon fill="#63b8ff" stroke="#63b8ff" points="2245.94,-242.38 2255.43,-237.67 2245.07,-235.43 2245.94,-242.38"/>
</g>
<!-- Node5 -->
<g id="node5" class="node">
<title>Node5</title>
<g id="a_node5"><a xlink:title=" ">
<polygon fill="#e0e0e0" stroke="#999999" points="782.08,-19 701.08,-19 701.08,0 782.08,0 782.08,-19"/>
<text text-anchor="middle" x="741.58" y="-7" font-family="Helvetica,sans-Serif" font-size="10.00">BuildConfig.h</text>
</a>
</g>
</g>
<!-- Node4&#45;&gt;Node5 -->
<g id="edge4" class="edge">
<title>Node4&#45;&gt;Node5</title>
<path fill="none" stroke="#63b8ff" d="M741.58,-54.75C741.58,-47.8 741.58,-37.85 741.58,-29.13"/>
<polygon fill="#63b8ff" stroke="#63b8ff" points="745.08,-29.09 741.58,-19.09 738.08,-29.09 745.08,-29.09"/>
</g>
<!-- Node7 -->
<g id="node7" class="node">
<title>Node7</title>
<g id="a_node7"><a xlink:title=" ">
<polygon fill="#e0e0e0" stroke="#999999" points="357.08,-184 284.08,-184 284.08,-165 357.08,-165 357.08,-184"/>
<text text-anchor="middle" x="320.58" y="-172" font-family="Helvetica,sans-Serif" font-size="10.00">wx/debug.h</text>
</a>
</g>
</g>
<!-- Node6&#45;&gt;Node7 -->
<g id="edge6" class="edge">
<title>Node6&#45;&gt;Node7</title>
<path fill="none" stroke="#63b8ff" d="M266.02,-219.98C275.72,-212.07 290.39,-200.11 302.08,-190.58"/>
<polygon fill="#63b8ff" stroke="#63b8ff" points="304.4,-193.2 309.94,-184.17 299.98,-187.78 304.4,-193.2"/>
</g>
<!-- Node8 -->
<g id="node8" class="node">
<title>Node8</title>
<g id="a_node8"><a xlink:title=" ">
<polygon fill="#e0e0e0" stroke="#999999" points="414.58,-129 356.58,-129 356.58,-110 414.58,-110 414.58,-129"/>
<text text-anchor="middle" x="385.58" y="-117" font-family="Helvetica,sans-Serif" font-size="10.00">wx/log.h</text>
</a>
</g>
</g>
<!-- Node6&#45;&gt;Node8 -->
<g id="edge7" class="edge">
<title>Node6&#45;&gt;Node8</title>
<path fill="none" stroke="#63b8ff" d="M226.92,-225.64C177.92,-219.66 86.3,-203.11 118.58,-165 147.26,-131.13 278.98,-123.02 346.07,-121.09"/>
<polygon fill="#63b8ff" stroke="#63b8ff" points="346.35,-124.58 356.26,-120.83 346.17,-117.59 346.35,-124.58"/>
</g>
<!-- Node9 -->
<g id="node9" class="node">
<title>Node9</title>
<g id="a_node9"><a xlink:title=" ">
<polygon fill="#e0e0e0" stroke="#999999" points="1495.08,-129 1450.08,-129 1450.08,-110 1495.08,-110 1495.08,-129"/>
<text text-anchor="middle" x="1472.58" y="-117" font-family="Helvetica,sans-Serif" font-size="10.00">utility</text>
</a>
</g>
</g>
<!-- Node6&#45;&gt;Node9 -->
<g id="edge8" class="edge">
<title>Node6&#45;&gt;Node9</title>
<path fill="none" stroke="#63b8ff" d="M255.26,-219.79C255.29,-205.68 257.65,-178.1 274.58,-165 321.93,-128.35 1252.47,-121.63 1439.86,-120.65"/>
<polygon fill="#63b8ff" stroke="#63b8ff" points="1439.94,-124.15 1449.92,-120.6 1439.91,-117.15 1439.94,-124.15"/>
</g>
<!-- Node10 -->
<g id="node10" class="node">
<title>Node10</title>
<g id="a_node10"><a xlink:title=" ">
<polygon fill="#e0e0e0" stroke="#999999" points="71.08,-184 18.08,-184 18.08,-165 71.08,-165 71.08,-184"/>
<text text-anchor="middle" x="44.58" y="-172" font-family="Helvetica,sans-Serif" font-size="10.00">cstddef</text>
</a>
</g>
</g>
<!-- Node6&#45;&gt;Node10 -->
<g id="edge9" class="edge">
<title>Node6&#45;&gt;Node10</title>
<path fill="none" stroke="#63b8ff" d="M226.68,-221.24C188.81,-211.73 122.36,-195.04 81.05,-184.66"/>
<polygon fill="#63b8ff" stroke="#63b8ff" points="81.68,-181.21 71.13,-182.17 79.97,-188 81.68,-181.21"/>
</g>
<!-- Node11 -->
<g id="node11" class="node">
<title>Node11</title>
<g id="a_node11"><a xlink:title=" ">
<polygon fill="#e0e0e0" stroke="#999999" points="1091.58,-74 1041.58,-74 1041.58,-55 1091.58,-55 1091.58,-74"/>
<text text-anchor="middle" x="1066.58" y="-62" font-family="Helvetica,sans-Serif" font-size="10.00">cstdint</text>
</a>
</g>
</g>
<!-- Node6&#45;&gt;Node11 -->
<g id="edge10" class="edge">
<title>Node6&#45;&gt;Node11</title>
<path fill="none" stroke="#63b8ff" d="M253.45,-220C250.73,-207.13 247.48,-182.35 257.58,-165 281.15,-124.48 302.86,-124.09 347.58,-110 413.05,-89.37 895.07,-71.4 1030.99,-66.69"/>
<polygon fill="#63b8ff" stroke="#63b8ff" points="1031.38,-70.18 1041.25,-66.34 1031.14,-63.19 1031.38,-70.18"/>
</g>
<!-- Node12 -->
<g id="node12" class="node">
<title>Node12</title>
<g id="a_node12"><a xlink:title=" ">
<polygon fill="#e0e0e0" stroke="#999999" points="189.58,-184 127.58,-184 127.58,-165 189.58,-165 189.58,-184"/>
<text text-anchor="middle" x="158.58" y="-172" font-family="Helvetica,sans-Serif" font-size="10.00">cinttypes</text>
</a>
</g>
</g>
<!-- Node6&#45;&gt;Node12 -->
<g id="edge11" class="edge">
<title>Node6&#45;&gt;Node12</title>
<path fill="none" stroke="#63b8ff" d="M239.99,-219.98C224.81,-211.69 201.48,-198.94 183.68,-189.22"/>
<polygon fill="#63b8ff" stroke="#63b8ff" points="184.9,-185.89 174.44,-184.17 181.54,-192.04 184.9,-185.89"/>
</g>
<!-- Node6&#45;&gt;Node13 -->
<g id="edge12" class="edge">
<title>Node6&#45;&gt;Node13</title>
<path fill="none" stroke="#63b8ff" d="M284.47,-225C337.36,-218.45 453.52,-203.39 562.09,-183.96"/>
<polygon fill="#63b8ff" stroke="#63b8ff" points="563.01,-187.35 572.23,-182.13 561.77,-180.46 563.01,-187.35"/>
</g>
<!-- Node6&#45;&gt;Node14 -->
<g id="edge13" class="edge">
<title>Node6&#45;&gt;Node14</title>
<path fill="none" stroke="#63b8ff" d="M284.47,-220.57C317.15,-211.59 370.62,-196.91 407.6,-186.75"/>
<polygon fill="#63b8ff" stroke="#63b8ff" points="408.85,-190.04 417.56,-184.02 406.99,-183.29 408.85,-190.04"/>
</g>
<!-- Node15&#45;&gt;Node7 -->
<g id="edge15" class="edge">
<title>Node15&#45;&gt;Node7</title>
<path fill="none" stroke="#63b8ff" d="M496,-219.98C460.22,-210.91 403.46,-196.52 364.24,-186.57"/>
<polygon fill="#63b8ff" stroke="#63b8ff" points="364.97,-183.15 354.42,-184.08 363.25,-189.93 364.97,-183.15"/>
</g>
<!-- Node15&#45;&gt;Node13 -->
<g id="edge16" class="edge">
<title>Node15&#45;&gt;Node13</title>
<path fill="none" stroke="#63b8ff" d="M541.14,-219.98C552,-212 568.46,-199.88 581.46,-190.31"/>
<polygon fill="#63b8ff" stroke="#63b8ff" points="583.82,-192.92 589.8,-184.17 579.67,-187.28 583.82,-192.92"/>
</g>
<!-- Node15&#45;&gt;Node14 -->
<g id="edge17" class="edge">
<title>Node15&#45;&gt;Node14</title>
<path fill="none" stroke="#63b8ff" d="M516.56,-219.98C504.12,-211.84 485.12,-199.41 470.37,-189.76"/>
<polygon fill="#63b8ff" stroke="#63b8ff" points="472.11,-186.72 461.83,-184.17 468.28,-192.57 472.11,-186.72"/>
</g>
<!-- Node16 -->
<g id="node16" class="node">
<title>Node16</title>
<g id="a_node16"><a xlink:title=" ">
<polygon fill="#e0e0e0" stroke="#999999" points="554.08,-184 501.08,-184 501.08,-165 554.08,-165 554.08,-184"/>
<text text-anchor="middle" x="527.58" y="-172" font-family="Helvetica,sans-Serif" font-size="10.00">iterator</text>
</a>
</g>
</g>
<!-- Node15&#45;&gt;Node16 -->
<g id="edge18" class="edge">
<title>Node15&#45;&gt;Node16</title>
<path fill="none" stroke="#63b8ff" d="M529.25,-219.75C528.98,-212.8 528.61,-202.85 528.28,-194.13"/>
<polygon fill="#63b8ff" stroke="#63b8ff" points="531.77,-193.95 527.9,-184.09 524.78,-194.21 531.77,-193.95"/>
</g>
<!-- Node17&#45;&gt;Node4 -->
<g id="edge20" class="edge">
<title>Node17&#45;&gt;Node4</title>
<path fill="none" stroke="#63b8ff" d="M1375.89,-227.48C1217.7,-223.71 701.6,-209.5 677.58,-184 647.95,-152.55 694.43,-104.77 722.59,-80.62"/>
<polygon fill="#63b8ff" stroke="#63b8ff" points="724.85,-83.28 730.3,-74.19 720.37,-77.9 724.85,-83.28"/>
</g>
<!-- Node17&#45;&gt;Node11 -->
<g id="edge43" class="edge">
<title>Node17&#45;&gt;Node11</title>
<path fill="none" stroke="#63b8ff" d="M1376.03,-228.93C1293.94,-228.7 1125.96,-223.29 1085.58,-184 1058.91,-158.05 1060.2,-110.64 1063.42,-84.34"/>
<polygon fill="#63b8ff" stroke="#63b8ff" points="1066.92,-84.59 1064.89,-74.19 1059.99,-83.58 1066.92,-84.59"/>
</g>
<!-- Node17&#45;&gt;Node13 -->
<g id="edge44" class="edge">
<title>Node17&#45;&gt;Node13</title>
<path fill="none" stroke="#63b8ff" d="M1375.83,-228.08C1255.56,-226.5 920.7,-219.03 644.58,-184 643.3,-183.84 642.01,-183.66 640.71,-183.47"/>
<polygon fill="#63b8ff" stroke="#63b8ff" points="641.07,-179.98 630.63,-181.81 639.93,-186.89 641.07,-179.98"/>
</g>
<!-- Node18 -->
<g id="node18" class="node">
<title>Node18</title>
<g id="a_node18"><a xlink:title=" ">
<polygon fill="#e0e0e0" stroke="#999999" points="1152.08,-184 1095.08,-184 1095.08,-165 1152.08,-165 1152.08,-184"/>
<text text-anchor="middle" x="1123.58" y="-172" font-family="Helvetica,sans-Serif" font-size="10.00">wx/wx.h</text>
</a>
</g>
</g>
<!-- Node17&#45;&gt;Node18 -->
<g id="edge21" class="edge">
<title>Node17&#45;&gt;Node18</title>
<path fill="none" stroke="#63b8ff" d="M1375.7,-221.49C1325.6,-213.65 1242.77,-200.17 1162.51,-184.3"/>
<polygon fill="#63b8ff" stroke="#63b8ff" points="1162.72,-180.77 1152.22,-182.25 1161.35,-187.64 1162.72,-180.77"/>
</g>
<!-- Node19 -->
<g id="node19" class="node">
<title>Node19</title>
<g id="a_node19"><a xlink:title=" ">
<polygon fill="#e0e0e0" stroke="#999999" points="1359.58,-74 1287.58,-74 1287.58,-55 1359.58,-55 1359.58,-74"/>
<text text-anchor="middle" x="1323.58" y="-62" font-family="Helvetica,sans-Serif" font-size="10.00">wx/config.h</text>
</a>
</g>
</g>
<!-- Node17&#45;&gt;Node19 -->
<g id="edge22" class="edge">
<title>Node17&#45;&gt;Node19</title>
<path fill="none" stroke="#63b8ff" d="M1416.31,-219.74C1400.75,-193.87 1354.83,-117.48 1334.03,-82.88"/>
<polygon fill="#63b8ff" stroke="#63b8ff" points="1337.02,-81.07 1328.87,-74.31 1331.02,-84.68 1337.02,-81.07"/>
</g>
<!-- Node20 -->
<g id="node20" class="node">
<title>Node20</title>
<g id="a_node20"><a xlink:title=" ">
<polygon fill="#e0e0e0" stroke="#999999" points="1247.08,-184 1170.08,-184 1170.08,-165 1247.08,-165 1247.08,-184"/>
<text text-anchor="middle" x="1208.58" y="-172" font-family="Helvetica,sans-Serif" font-size="10.00">wx/display.h</text>
</a>
</g>
</g>
<!-- Node17&#45;&gt;Node20 -->
<g id="edge23" class="edge">
<title>Node17&#45;&gt;Node20</title>
<path fill="none" stroke="#63b8ff" d="M1387.35,-219.98C1350.82,-210.89 1292.8,-196.46 1252.82,-186.51"/>
<polygon fill="#63b8ff" stroke="#63b8ff" points="1253.62,-183.1 1243.07,-184.08 1251.93,-189.89 1253.62,-183.1"/>
</g>
<!-- Node21 -->
<g id="node21" class="node">
<title>Node21</title>
<g id="a_node21"><a xlink:title=" ">
<polygon fill="#e0e0e0" stroke="#999999" points="1355.58,-184 1265.58,-184 1265.58,-165 1355.58,-165 1355.58,-184"/>
<text text-anchor="middle" x="1310.58" y="-172" font-family="Helvetica,sans-Serif" font-size="10.00">wx/fontenum.h</text>
</a>
</g>
</g>
<!-- Node17&#45;&gt;Node21 -->
<g id="edge24" class="edge">
<title>Node17&#45;&gt;Node21</title>
<path fill="none" stroke="#63b8ff" d="M1403.74,-219.98C1385.97,-211.5 1358.43,-198.35 1337.9,-188.54"/>
<polygon fill="#63b8ff" stroke="#63b8ff" points="1339.27,-185.32 1328.73,-184.17 1336.25,-191.64 1339.27,-185.32"/>
</g>
<!-- Node22 -->
<g id="node22" class="node">
<title>Node22</title>
<g id="a_node22"><a xlink:title=" ">
<polygon fill="#e0e0e0" stroke="#999999" points="1465.58,-74 1377.58,-74 1377.58,-55 1465.58,-55 1465.58,-74"/>
<text text-anchor="middle" x="1421.58" y="-62" font-family="Helvetica,sans-Serif" font-size="10.00">wx/hashmap.h</text>
</a>
</g>
</g>
<!-- Node17&#45;&gt;Node22 -->
<g id="edge25" class="edge">
<title>Node17&#45;&gt;Node22</title>
<path fill="none" stroke="#63b8ff" d="M1421.58,-219.74C1421.58,-194.31 1421.58,-120.08 1421.58,-84.69"/>
<polygon fill="#63b8ff" stroke="#63b8ff" points="1425.08,-84.31 1421.58,-74.31 1418.08,-84.31 1425.08,-84.31"/>
</g>
<!-- Node23 -->
<g id="node23" class="node">
<title>Node23</title>
<g id="a_node23"><a xlink:href="LoggingMessageDialog_8h.html" target="_top" xlink:title="This file declares a message dialog that sends its contents to the log message sink.">
<polygon fill="#fff0f0" stroke="red" points="1039.08,-184 862.08,-184 862.08,-165 1039.08,-165 1039.08,-184"/>
<text text-anchor="middle" x="950.58" y="-172" font-family="Helvetica,sans-Serif" font-size="10.00">dialogs/LoggingMessageDialog.h</text>
</a>
</g>
</g>
<!-- Node17&#45;&gt;Node23 -->
<g id="edge26" class="edge">
<title>Node17&#45;&gt;Node23</title>
<path fill="none" stroke="#63b8ff" d="M1375.99,-223.37C1297.64,-214.55 1136.27,-196.4 1036.35,-185.15"/>
<polygon fill="#63b8ff" stroke="#63b8ff" points="1036.61,-181.66 1026.28,-184.02 1035.82,-188.61 1036.61,-181.66"/>
</g>
<!-- Node17&#45;&gt;Node25 -->
<g id="edge29" class="edge">
<title>Node17&#45;&gt;Node25</title>
<path fill="none" stroke="#63b8ff" d="M1447.58,-219.97C1467.38,-212.6 1494.56,-200.52 1514.58,-184 1530.07,-171.21 1543.22,-152.28 1551.63,-138.41"/>
<polygon fill="#63b8ff" stroke="#63b8ff" points="1554.89,-139.77 1556.89,-129.37 1548.84,-136.25 1554.89,-139.77"/>
</g>
<!-- Node40 -->
<g id="node29" class="node">
<title>Node40</title>
<g id="a_node29"><a xlink:title=" ">
<polygon fill="#e0e0e0" stroke="#999999" points="1804.08,-74 1711.08,-74 1711.08,-55 1804.08,-55 1804.08,-74"/>
<text text-anchor="middle" x="1757.58" y="-62" font-family="Helvetica,sans-Serif" font-size="10.00">unordered_map</text>
</a>
</g>
</g>
<!-- Node17&#45;&gt;Node40 -->
<g id="edge46" class="edge">
<title>Node17&#45;&gt;Node40</title>
<path fill="none" stroke="#63b8ff" d="M1447.08,-219.9C1471.05,-211.56 1507.76,-198.12 1538.58,-184 1611.94,-150.38 1694.76,-102.78 1734.24,-79.47"/>
<polygon fill="#63b8ff" stroke="#63b8ff" points="1736.49,-82.2 1743.31,-74.08 1732.92,-76.18 1736.49,-82.2"/>
</g>
<!-- Node41 -->
<g id="node30" class="node">
<title>Node41</title>
<g id="a_node30"><a xlink:href="Styles_8h.html" target="_top" xlink:title="This file declares the class Styles.">
<polygon fill="white" stroke="#666666" points="1505.58,-184 1449.58,-184 1449.58,-165 1505.58,-165 1505.58,-184"/>
<text text-anchor="middle" x="1477.58" y="-172" font-family="Helvetica,sans-Serif" font-size="10.00">Styles.h</text>
</a>
</g>
</g>
<!-- Node17&#45;&gt;Node41 -->
<g id="edge39" class="edge">
<title>Node17&#45;&gt;Node41</title>
<path fill="none" stroke="#63b8ff" d="M1430.57,-219.98C1438.77,-212.23 1451.08,-200.58 1461.05,-191.14"/>
<polygon fill="#63b8ff" stroke="#63b8ff" points="1463.56,-193.59 1468.41,-184.17 1458.75,-188.5 1463.56,-193.59"/>
</g>
<!-- Node17&#45;&gt;Node42 -->
<g id="edge50" class="edge">
<title>Node17&#45;&gt;Node42</title>
<path fill="none" stroke="#63b8ff" d="M1467.33,-227.27C1583.34,-223.77 1882.2,-212.07 1916.58,-184 1929.66,-173.32 1933.98,-154.01 1935.29,-139.48"/>
<polygon fill="#63b8ff" stroke="#63b8ff" points="1938.81,-139.27 1935.81,-129.11 1931.82,-138.92 1938.81,-139.27"/>
</g>
<!-- Node43 -->
<g id="node32" class="node">
<title>Node43</title>
<g id="a_node32"><a xlink:title=" ">
<polygon fill="#e0e0e0" stroke="#999999" points="1647.58,-184 1599.58,-184 1599.58,-165 1647.58,-165 1647.58,-184"/>
<text text-anchor="middle" x="1623.58" y="-172" font-family="Helvetica,sans-Serif" font-size="10.00">mutex</text>
</a>
</g>
</g>
<!-- Node17&#45;&gt;Node43 -->
<g id="edge45" class="edge">
<title>Node17&#45;&gt;Node43</title>
<path fill="none" stroke="#63b8ff" d="M1454.03,-219.98C1491.14,-210.25 1551.61,-194.38 1589.42,-184.46"/>
<polygon fill="#63b8ff" stroke="#63b8ff" points="1590.66,-187.76 1599.44,-181.83 1588.88,-180.98 1590.66,-187.76"/>
</g>
<!-- Node44 -->
<g id="node33" class="node">
<title>Node44</title>
<g id="a_node33"><a xlink:title=" ">
<polygon fill="#e0e0e0" stroke="#999999" points="1719.58,-184 1665.58,-184 1665.58,-165 1719.58,-165 1719.58,-184"/>
<text text-anchor="middle" x="1692.58" y="-172" font-family="Helvetica,sans-Serif" font-size="10.00">random</text>
</a>
</g>
</g>
<!-- Node17&#45;&gt;Node44 -->
<g id="edge47" class="edge">
<title>Node17&#45;&gt;Node44</title>
<path fill="none" stroke="#63b8ff" d="M1467.19,-220.49C1512.49,-212.39 1584.18,-199.2 1655.43,-184.17"/>
<polygon fill="#63b8ff" stroke="#63b8ff" points="1656.42,-187.54 1665.48,-182.04 1654.97,-180.69 1656.42,-187.54"/>
</g>
<!-- Node39 -->
<g id="node34" class="node">
<title>Node39</title>
<g id="a_node34"><a xlink:title=" ">
<polygon fill="#e0e0e0" stroke="#999999" points="1769.58,-184 1737.58,-184 1737.58,-165 1769.58,-165 1769.58,-184"/>
<text text-anchor="middle" x="1753.58" y="-172" font-family="Helvetica,sans-Serif" font-size="10.00">list</text>
</a>
</g>
</g>
<!-- Node17&#45;&gt;Node39 -->
<g id="edge48" class="edge">
<title>Node17&#45;&gt;Node39</title>
<path fill="none" stroke="#63b8ff" d="M1467.33,-224.52C1525.8,-218.85 1630.2,-206.77 1727.84,-183.76"/>
<polygon fill="#63b8ff" stroke="#63b8ff" points="1728.66,-187.17 1737.57,-181.43 1727.03,-180.36 1728.66,-187.17"/>
</g>
<!-- Node45 -->
<g id="node35" class="node">
<title>Node45</title>
<g id="a_node35"><a xlink:title=" ">
<polygon fill="#e0e0e0" stroke="#999999" points="1839.08,-184 1788.08,-184 1788.08,-165 1839.08,-165 1839.08,-184"/>
<text text-anchor="middle" x="1813.58" y="-172" font-family="Helvetica,sans-Serif" font-size="10.00">variant</text>
</a>
</g>
</g>
<!-- Node17&#45;&gt;Node45 -->
<g id="edge49" class="edge">
<title>Node17&#45;&gt;Node45</title>
<path fill="none" stroke="#63b8ff" d="M1467.2,-224.5C1533.46,-218.31 1660.35,-205.09 1778.12,-183.87"/>
<polygon fill="#63b8ff" stroke="#63b8ff" points="1778.82,-187.3 1788.03,-182.06 1777.57,-180.41 1778.82,-187.3"/>
</g>
<!-- Node17&#45;&gt;Node36 -->
<g id="edge51" class="edge">
<title>Node17&#45;&gt;Node36</title>
<path fill="none" stroke="#63b8ff" d="M1467.29,-226.17C1559.04,-221.16 1772.01,-207.83 1949.58,-184 1950.84,-183.83 1952.13,-183.65 1953.43,-183.46"/>
<polygon fill="#63b8ff" stroke="#63b8ff" points="1954.15,-186.89 1963.47,-181.85 1953.04,-179.97 1954.15,-186.89"/>
</g>
<!-- Node46 -->
<g id="node37" class="node">
<title>Node46</title>
<g id="a_node37"><a xlink:title=" ">
<polygon fill="#e0e0e0" stroke="#999999" points="1907.58,-184 1857.58,-184 1857.58,-165 1907.58,-165 1907.58,-184"/>
<text text-anchor="middle" x="1882.58" y="-172" font-family="Helvetica,sans-Serif" font-size="10.00">atomic</text>
</a>
</g>
</g>
<!-- Node17&#45;&gt;Node46 -->
<g id="edge52" class="edge">
<title>Node17&#45;&gt;Node46</title>
<path fill="none" stroke="#63b8ff" d="M1467.25,-225.75C1545.53,-220.58 1710.19,-207.75 1847.58,-184 1847.68,-183.98 1847.78,-183.97 1847.88,-183.95"/>
<polygon fill="#63b8ff" stroke="#63b8ff" points="1848.31,-187.43 1857.43,-182.04 1846.93,-180.57 1848.31,-187.43"/>
</g>
<!-- Node47 -->
<g id="node38" class="node">
<title>Node47</title>
<g id="a_node38"><a xlink:title=" ">
<polygon fill="#e0e0e0" stroke="#999999" points="736.58,-184 686.58,-184 686.58,-165 736.58,-165 736.58,-184"/>
<text text-anchor="middle" x="711.58" y="-172" font-family="Helvetica,sans-Serif" font-size="10.00">chrono</text>
</a>
</g>
</g>
<!-- Node17&#45;&gt;Node47 -->
<g id="edge53" class="edge">
<title>Node17&#45;&gt;Node47</title>
<path fill="none" stroke="#63b8ff" d="M1375.77,-228.31C1267.69,-227.25 988.36,-220.98 746.75,-183.88"/>
<polygon fill="#63b8ff" stroke="#63b8ff" points="747.14,-180.4 736.72,-182.32 746.07,-187.32 747.14,-180.4"/>
</g>
<!-- Node48 -->
<g id="node39" class="node">
<title>Node48</title>
<g id="a_node39"><a xlink:title=" ">
<polygon fill="#e0e0e0" stroke="#999999" points="844.08,-184 755.08,-184 755.08,-165 844.08,-165 844.08,-184"/>
<text text-anchor="middle" x="799.58" y="-172" font-family="Helvetica,sans-Serif" font-size="10.00">wx/wupdlock.h</text>
</a>
</g>
</g>
<!-- Node17&#45;&gt;Node48 -->
<g id="edge54" class="edge">
<title>Node17&#45;&gt;Node48</title>
<path fill="none" stroke="#63b8ff" d="M1375.72,-226.18C1280.48,-221.08 1054.09,-207.54 854.45,-184.14"/>
<polygon fill="#63b8ff" stroke="#63b8ff" points="854.7,-180.64 844.36,-182.94 853.88,-187.59 854.7,-180.64"/>
</g>
<!-- Node23&#45;&gt;Node4 -->
<g id="edge27" class="edge">
<title>Node23&#45;&gt;Node4</title>
<path fill="none" stroke="#63b8ff" d="M933.83,-164.84C897.35,-146 810.55,-101.14 767.17,-78.73"/>
<polygon fill="#63b8ff" stroke="#63b8ff" points="768.61,-75.53 758.12,-74.05 765.39,-81.75 768.61,-75.53"/>
</g>
<!-- Node23&#45;&gt;Node8 -->
<g id="edge28" class="edge">
<title>Node23&#45;&gt;Node8</title>
<path fill="none" stroke="#63b8ff" d="M861.98,-165.19C737.11,-153.48 514.56,-132.6 424.76,-124.18"/>
<polygon fill="#63b8ff" stroke="#63b8ff" points="425.01,-120.68 414.73,-123.23 424.36,-127.65 425.01,-120.68"/>
</g>
<!-- Node25&#45;&gt;Node4 -->
<g id="edge30" class="edge">
<title>Node25&#45;&gt;Node4</title>
<path fill="none" stroke="#63b8ff" d="M1513.51,-111.13C1510.15,-110.71 1506.82,-110.33 1503.58,-110 1234.89,-82.52 911.05,-70.59 790.17,-66.87"/>
<polygon fill="#63b8ff" stroke="#63b8ff" points="790.23,-63.37 780.13,-66.56 790.02,-70.36 790.23,-63.37"/>
</g>
<!-- Node25&#45;&gt;Node11 -->
<g id="edge37" class="edge">
<title>Node25&#45;&gt;Node11</title>
<path fill="none" stroke="#63b8ff" d="M1513.49,-111.29C1510.14,-110.83 1506.81,-110.4 1503.58,-110 1354.62,-91.51 1176.4,-75.15 1101.96,-68.57"/>
<polygon fill="#63b8ff" stroke="#63b8ff" points="1102.01,-65.06 1091.74,-67.67 1101.4,-72.03 1102.01,-65.06"/>
</g>
<!-- Node25&#45;&gt;Node19 -->
<g id="edge36" class="edge">
<title>Node25&#45;&gt;Node19</title>
<path fill="none" stroke="#63b8ff" d="M1523.34,-109.98C1481.52,-100.67 1414.52,-85.75 1369.79,-75.79"/>
<polygon fill="#63b8ff" stroke="#63b8ff" points="1370.29,-72.32 1359.77,-73.56 1368.77,-79.15 1370.29,-72.32"/>
</g>
<!-- Node25&#45;&gt;Node22 -->
<g id="edge33" class="edge">
<title>Node25&#45;&gt;Node22</title>
<path fill="none" stroke="#63b8ff" d="M1539.08,-109.98C1516.05,-101.27 1480.04,-87.63 1453.94,-77.75"/>
<polygon fill="#63b8ff" stroke="#63b8ff" points="1455.07,-74.44 1444.48,-74.17 1452.59,-80.98 1455.07,-74.44"/>
</g>
<!-- Node26 -->
<g id="node25" class="node">
<title>Node26</title>
<g id="a_node25"><a xlink:title=" ">
<polygon fill="#e0e0e0" stroke="#999999" points="1555.58,-74 1483.58,-74 1483.58,-55 1555.58,-55 1555.58,-74"/>
<text text-anchor="middle" x="1519.58" y="-62" font-family="Helvetica,sans-Serif" font-size="10.00">wx/colour.h</text>
</a>
</g>
</g>
<!-- Node25&#45;&gt;Node26 -->
<g id="edge31" class="edge">
<title>Node25&#45;&gt;Node26</title>
<path fill="none" stroke="#63b8ff" d="M1554.64,-109.75C1548.71,-102.26 1540,-91.28 1532.75,-82.13"/>
<polygon fill="#63b8ff" stroke="#63b8ff" points="1535.34,-79.75 1526.38,-74.09 1529.85,-84.1 1535.34,-79.75"/>
</g>
<!-- Node25&#45;&gt;Node27 -->
<g id="edge32" class="edge">
<title>Node25&#45;&gt;Node27</title>
<path fill="none" stroke="#63b8ff" d="M1609.92,-112.47C1698.69,-101.4 1885.21,-78.14 1957.28,-69.15"/>
<polygon fill="#63b8ff" stroke="#63b8ff" points="1957.96,-72.6 1967.45,-67.89 1957.09,-65.65 1957.96,-72.6"/>
</g>
<!-- Node28 -->
<g id="node27" class="node">
<title>Node28</title>
<g id="a_node27"><a xlink:title=" ">
<polygon fill="#e0e0e0" stroke="#999999" points="1617.58,-74 1573.58,-74 1573.58,-55 1617.58,-55 1617.58,-74"/>
<text text-anchor="middle" x="1595.58" y="-62" font-family="Helvetica,sans-Serif" font-size="10.00">string</text>
</a>
</g>
</g>
<!-- Node25&#45;&gt;Node28 -->
<g id="edge34" class="edge">
<title>Node25&#45;&gt;Node28</title>
<path fill="none" stroke="#63b8ff" d="M1567.19,-109.75C1571.89,-102.42 1578.75,-91.73 1584.54,-82.7"/>
<polygon fill="#63b8ff" stroke="#63b8ff" points="1587.61,-84.4 1590.07,-74.09 1581.72,-80.62 1587.61,-84.4"/>
</g>
<!-- Node29 -->
<g id="node28" class="node">
<title>Node29</title>
<g id="a_node28"><a xlink:title=" ">
<polygon fill="#e0e0e0" stroke="#999999" points="1693.08,-74 1636.08,-74 1636.08,-55 1693.08,-55 1693.08,-74"/>
<text text-anchor="middle" x="1664.58" y="-62" font-family="Helvetica,sans-Serif" font-size="10.00">ostream</text>
</a>
</g>
</g>
<!-- Node25&#45;&gt;Node29 -->
<g id="edge35" class="edge">
<title>Node25&#45;&gt;Node29</title>
<path fill="none" stroke="#63b8ff" d="M1578.12,-109.98C1594.47,-101.57 1619.71,-88.59 1638.71,-78.81"/>
<polygon fill="#63b8ff" stroke="#63b8ff" points="1640.44,-81.86 1647.73,-74.17 1637.23,-75.63 1640.44,-81.86"/>
</g>
<!-- Node25&#45;&gt;Node40 -->
<g id="edge38" class="edge">
<title>Node25&#45;&gt;Node40</title>
<path fill="none" stroke="#63b8ff" d="M1593.07,-109.98C1626.4,-100.97 1679.17,-86.7 1715.93,-76.76"/>
<polygon fill="#63b8ff" stroke="#63b8ff" points="1717.1,-80.07 1725.84,-74.08 1715.27,-73.31 1717.1,-80.07"/>
</g>
<!-- Node41&#45;&gt;Node9 -->
<g id="edge41" class="edge">
<title>Node41&#45;&gt;Node9</title>
<path fill="none" stroke="#63b8ff" d="M1476.75,-164.75C1476.1,-157.8 1475.16,-147.85 1474.33,-139.13"/>
<polygon fill="#63b8ff" stroke="#63b8ff" points="1477.81,-138.72 1473.39,-129.09 1470.84,-139.37 1477.81,-138.72"/>
</g>
<!-- Node41&#45;&gt;Node25 -->
<g id="edge40" class="edge">
<title>Node41&#45;&gt;Node25</title>
<path fill="none" stroke="#63b8ff" d="M1491.07,-164.98C1503.98,-156.84 1523.68,-144.41 1538.98,-134.76"/>
<polygon fill="#63b8ff" stroke="#63b8ff" points="1541.24,-137.47 1547.83,-129.17 1537.51,-131.55 1541.24,-137.47"/>
</g>
<!-- Node41&#45;&gt;Node42 -->
<g id="edge42" class="edge">
<title>Node41&#45;&gt;Node42</title>
<path fill="none" stroke="#63b8ff" d="M1505.88,-170.22C1586.2,-160.93 1815.31,-134.42 1901.89,-124.4"/>
<polygon fill="#63b8ff" stroke="#63b8ff" points="1902.43,-127.86 1911.96,-123.23 1901.62,-120.91 1902.43,-127.86"/>
</g>
<!-- Node50 -->
<g id="node41" class="node">
<title>Node50</title>
<g id="a_node41"><a xlink:title=" ">
<polygon fill="#e0e0e0" stroke="#999999" points="2232.08,-184 2161.08,-184 2161.08,-165 2232.08,-165 2232.08,-184"/>
<text text-anchor="middle" x="2196.58" y="-172" font-family="Helvetica,sans-Serif" font-size="10.00">wx/string.h</text>
</a>
</g>
</g>
<!-- Node49&#45;&gt;Node50 -->
<g id="edge56" class="edge">
<title>Node49&#45;&gt;Node50</title>
<path fill="none" stroke="#63b8ff" d="M2198.25,-219.75C2197.98,-212.8 2197.61,-202.85 2197.28,-194.13"/>
<polygon fill="#63b8ff" stroke="#63b8ff" points="2200.77,-193.95 2196.9,-184.09 2193.78,-194.21 2200.77,-193.95"/>
</g>
<!-- Node51 -->
<g id="node42" class="node">
<title>Node51</title>
<g id="a_node42"><a xlink:title=" ">
<polygon fill="#e0e0e0" stroke="#999999" points="2345.08,-184 2250.08,-184 2250.08,-165 2345.08,-165 2345.08,-184"/>
<text text-anchor="middle" x="2297.58" y="-172" font-family="Helvetica,sans-Serif" font-size="10.00">wx/translation.h</text>
</a>
</g>
</g>
<!-- Node49&#45;&gt;Node51 -->
<g id="edge57" class="edge">
<title>Node49&#45;&gt;Node51</title>
<path fill="none" stroke="#63b8ff" d="M2214.48,-219.98C2230.12,-211.61 2254.23,-198.7 2272.46,-188.95"/>
<polygon fill="#63b8ff" stroke="#63b8ff" points="2274.22,-191.98 2281.38,-184.17 2270.91,-185.8 2274.22,-191.98"/>
</g>
<!-- Node52&#45;&gt;Node7 -->
<g id="edge60" class="edge">
<title>Node52&#45;&gt;Node7</title>
<path fill="none" stroke="#63b8ff" d="M375.13,-219.98C365.43,-212.07 350.76,-200.11 339.08,-190.58"/>
<polygon fill="#63b8ff" stroke="#63b8ff" points="341.17,-187.78 331.21,-184.17 336.75,-193.2 341.17,-187.78"/>
</g>
<!-- Node52&#45;&gt;Node8 -->
<g id="edge61" class="edge">
<title>Node52&#45;&gt;Node8</title>
<path fill="none" stroke="#63b8ff" d="M385.58,-219.66C385.58,-202.17 385.58,-162.8 385.58,-139.27"/>
<polygon fill="#63b8ff" stroke="#63b8ff" points="389.08,-139.16 385.58,-129.16 382.08,-139.16 389.08,-139.16"/>
</g>
<!-- Node52&#45;&gt;Node14 -->
<g id="edge62" class="edge">
<title>Node52&#45;&gt;Node14</title>
<path fill="none" stroke="#63b8ff" d="M395.7,-219.98C405.01,-212.15 419.04,-200.34 430.31,-190.86"/>
<polygon fill="#63b8ff" stroke="#63b8ff" points="432.87,-193.29 438.27,-184.17 428.36,-187.93 432.87,-193.29"/>
</g>
</g>
</svg>
