<?xml version="1.0" encoding="UTF-8" standalone="no"?>
<!DOCTYPE svg PUBLIC "-//W3C//DTD SVG 1.1//EN"
 "http://www.w3.org/Graphics/SVG/1.1/DTD/svg11.dtd">
<!-- Generated by graphviz version 2.43.0 (0)
 -->
<!-- Title: src/wxMaximaIcon.cpp Pages: 1 -->
<svg width="2149pt" height="357pt"
 viewBox="0.00 0.00 2149.00 357.00" xmlns="http://www.w3.org/2000/svg" xmlns:xlink="http://www.w3.org/1999/xlink">
<g id="graph0" class="graph" transform="scale(1 1) rotate(0) translate(4 353)">
<title>src/wxMaximaIcon.cpp</title>
<!-- Node1 -->
<g id="node1" class="node">
<title>Node1</title>
<g id="a_node1"><a xlink:title="This file defines the class Image that stores compressed images and handles scaling and uncompressing...">
<polygon fill="#999999" stroke="#666666" points="1974.5,-349 1846.5,-349 1846.5,-330 1974.5,-330 1974.5,-349"/>
<text text-anchor="middle" x="1910.5" y="-337" font-family="Helvetica,sans-Serif" font-size="10.00">src/wxMaximaIcon.cpp</text>
</a>
</g>
</g>
<!-- Node2 -->
<g id="node2" class="node">
<title>Node2</title>
<g id="a_node2"><a xlink:href="wxMaximaIcon_8h.html" target="_top" xlink:title="This file declares the function that returns the wxMaxima icon.">
<polygon fill="white" stroke="#666666" points="1801.5,-294 1701.5,-294 1701.5,-275 1801.5,-275 1801.5,-294"/>
<text text-anchor="middle" x="1751.5" y="-282" font-family="Helvetica,sans-Serif" font-size="10.00">wxMaximaIcon.h</text>
</a>
</g>
</g>
<!-- Node1&#45;&gt;Node2 -->
<g id="edge1" class="edge">
<title>Node1&#45;&gt;Node2</title>
<path fill="none" stroke="#63b8ff" d="M1884.95,-329.98C1858.38,-321.13 1816.56,-307.19 1786.83,-297.28"/>
<polygon fill="#63b8ff" stroke="#63b8ff" points="1787.84,-293.92 1777.25,-294.08 1785.63,-300.56 1787.84,-293.92"/>
</g>
<!-- Node55 -->
<g id="node48" class="node">
<title>Node55</title>
<g id="a_node48"><a xlink:href="icon_8h_source.html" target="_top" xlink:title=" ">
<polygon fill="white" stroke="#666666" points="1899.5,-294 1819.5,-294 1819.5,-275 1899.5,-275 1899.5,-294"/>
<text text-anchor="middle" x="1859.5" y="-282" font-family="Helvetica,sans-Serif" font-size="10.00">../data/icon.h</text>
</a>
</g>
</g>
<!-- Node1&#45;&gt;Node55 -->
<g id="edge73" class="edge">
<title>Node1&#45;&gt;Node55</title>
<path fill="none" stroke="#63b8ff" d="M1902.08,-329.75C1894.73,-322.11 1883.87,-310.82 1874.96,-301.56"/>
<polygon fill="#63b8ff" stroke="#63b8ff" points="1877.22,-298.87 1867.76,-294.09 1872.18,-303.72 1877.22,-298.87"/>
</g>
<!-- Node56 -->
<g id="node49" class="node">
<title>Node56</title>
<g id="a_node49"><a xlink:title=" ">
<polygon fill="#e0e0e0" stroke="#999999" points="2005,-294 1918,-294 1918,-275 2005,-275 2005,-294"/>
<text text-anchor="middle" x="1961.5" y="-282" font-family="Helvetica,sans-Serif" font-size="10.00">wx/mstream.h</text>
</a>
</g>
</g>
<!-- Node1&#45;&gt;Node56 -->
<g id="edge74" class="edge">
<title>Node1&#45;&gt;Node56</title>
<path fill="none" stroke="#63b8ff" d="M1918.92,-329.75C1926.27,-322.11 1937.13,-310.82 1946.04,-301.56"/>
<polygon fill="#63b8ff" stroke="#63b8ff" points="1948.82,-303.72 1953.24,-294.09 1943.78,-298.87 1948.82,-303.72"/>
</g>
<!-- Node57 -->
<g id="node50" class="node">
<title>Node57</title>
<g id="a_node50"><a xlink:title=" ">
<polygon fill="#e0e0e0" stroke="#999999" points="2112,-294 2023,-294 2023,-275 2112,-275 2112,-294"/>
<text text-anchor="middle" x="2067.5" y="-282" font-family="Helvetica,sans-Serif" font-size="10.00">wx/wfstream.h</text>
</a>
</g>
</g>
<!-- Node1&#45;&gt;Node57 -->
<g id="edge75" class="edge">
<title>Node1&#45;&gt;Node57</title>
<path fill="none" stroke="#63b8ff" d="M1935.72,-329.98C1961.86,-321.16 2002.9,-307.31 2032.23,-297.41"/>
<polygon fill="#63b8ff" stroke="#63b8ff" points="2033.72,-300.6 2042.08,-294.08 2031.48,-293.96 2033.72,-300.6"/>
</g>
<!-- Node3 -->
<g id="node3" class="node">
<title>Node3</title>
<g id="a_node3"><a xlink:href="Cell_8h.html" target="_top" xlink:title="The definition of the base class of all cells the worksheet consists of.">
<polygon fill="white" stroke="#666666" points="1658.5,-239 1588.5,-239 1588.5,-220 1658.5,-220 1658.5,-239"/>
<text text-anchor="middle" x="1623.5" y="-227" font-family="Helvetica,sans-Serif" font-size="10.00">cells/Cell.h</text>
</a>
</g>
</g>
<!-- Node2&#45;&gt;Node3 -->
<g id="edge2" class="edge">
<title>Node2&#45;&gt;Node3</title>
<path fill="none" stroke="#63b8ff" d="M1730.93,-274.98C1710.07,-266.34 1677.53,-252.87 1653.73,-243.02"/>
<polygon fill="#63b8ff" stroke="#63b8ff" points="1655.02,-239.76 1644.44,-239.17 1652.34,-246.23 1655.02,-239.76"/>
</g>
<!-- Node52 -->
<g id="node45" class="node">
<title>Node52</title>
<g id="a_node45"><a xlink:title=" ">
<polygon fill="#e0e0e0" stroke="#999999" points="1740,-239 1677,-239 1677,-220 1740,-220 1740,-239"/>
<text text-anchor="middle" x="1708.5" y="-227" font-family="Helvetica,sans-Serif" font-size="10.00">wx/icon.h</text>
</a>
</g>
</g>
<!-- Node2&#45;&gt;Node52 -->
<g id="edge70" class="edge">
<title>Node2&#45;&gt;Node52</title>
<path fill="none" stroke="#63b8ff" d="M1744.4,-274.75C1738.33,-267.26 1729.41,-256.28 1721.99,-247.13"/>
<polygon fill="#63b8ff" stroke="#63b8ff" points="1724.49,-244.65 1715.47,-239.09 1719.05,-249.06 1724.49,-244.65"/>
</g>
<!-- Node53 -->
<g id="node46" class="node">
<title>Node53</title>
<g id="a_node46"><a xlink:title=" ">
<polygon fill="#e0e0e0" stroke="#999999" points="1832.5,-239 1758.5,-239 1758.5,-220 1832.5,-220 1832.5,-239"/>
<text text-anchor="middle" x="1795.5" y="-227" font-family="Helvetica,sans-Serif" font-size="10.00">wx/image.h</text>
</a>
</g>
</g>
<!-- Node2&#45;&gt;Node53 -->
<g id="edge71" class="edge">
<title>Node2&#45;&gt;Node53</title>
<path fill="none" stroke="#63b8ff" d="M1758.77,-274.75C1765.04,-267.18 1774.29,-256.05 1781.93,-246.84"/>
<polygon fill="#63b8ff" stroke="#63b8ff" points="1784.67,-249.02 1788.37,-239.09 1779.29,-244.55 1784.67,-249.02"/>
</g>
<!-- Node54 -->
<g id="node47" class="node">
<title>Node54</title>
<g id="a_node47"><a xlink:title=" ">
<polygon fill="#e0e0e0" stroke="#999999" points="1928,-239 1851,-239 1851,-220 1928,-220 1928,-239"/>
<text text-anchor="middle" x="1889.5" y="-227" font-family="Helvetica,sans-Serif" font-size="10.00">wx/bitmap.h</text>
</a>
</g>
</g>
<!-- Node2&#45;&gt;Node54 -->
<g id="edge72" class="edge">
<title>Node2&#45;&gt;Node54</title>
<path fill="none" stroke="#63b8ff" d="M1773.67,-274.98C1796.27,-266.3 1831.56,-252.75 1857.25,-242.88"/>
<polygon fill="#63b8ff" stroke="#63b8ff" points="1858.84,-246.02 1866.92,-239.17 1856.33,-239.49 1858.84,-246.02"/>
</g>
<!-- Node4 -->
<g id="node4" class="node">
<title>Node4</title>
<g id="a_node4"><a xlink:href="precomp_8h_source.html" target="_top" xlink:title=" ">
<polygon fill="white" stroke="#666666" points="959,-74 882,-74 882,-55 959,-55 959,-74"/>
<text text-anchor="middle" x="920.5" y="-62" font-family="Helvetica,sans-Serif" font-size="10.00">../precomp.h</text>
</a>
</g>
</g>
<!-- Node3&#45;&gt;Node4 -->
<g id="edge3" class="edge">
<title>Node3&#45;&gt;Node4</title>
<path fill="none" stroke="#63b8ff" d="M1625.17,-219.99C1628.96,-197.93 1635.52,-138.67 1603.5,-110 1552.75,-64.57 1075.11,-80.87 969.48,-73.67"/>
<polygon fill="#63b8ff" stroke="#63b8ff" points="969.49,-70.16 959.21,-72.76 968.87,-77.13 969.49,-70.16"/>
</g>
<!-- Node6 -->
<g id="node6" class="node">
<title>Node6</title>
<g id="a_node6"><a xlink:href="CellPtr_8h.html" target="_top" xlink:title="Implementation of an observing weak Cell pointer.">
<polygon fill="white" stroke="#666666" points="279,-184 222,-184 222,-165 279,-165 279,-184"/>
<text text-anchor="middle" x="250.5" y="-172" font-family="Helvetica,sans-Serif" font-size="10.00">CellPtr.h</text>
</a>
</g>
</g>
<!-- Node3&#45;&gt;Node6 -->
<g id="edge5" class="edge">
<title>Node3&#45;&gt;Node6</title>
<path fill="none" stroke="#63b8ff" d="M1588.45,-228.08C1438.23,-226.11 833.83,-216.47 338.5,-184 322.45,-182.95 304.79,-181.33 289.53,-179.79"/>
<polygon fill="#63b8ff" stroke="#63b8ff" points="289.7,-176.29 279.4,-178.74 288.98,-183.25 289.7,-176.29"/>
</g>
<!-- Node13 -->
<g id="node13" class="node">
<title>Node13</title>
<g id="a_node13"><a xlink:title=" ">
<polygon fill="#e0e0e0" stroke="#999999" points="566.5,-129 508.5,-129 508.5,-110 566.5,-110 566.5,-129"/>
<text text-anchor="middle" x="537.5" y="-117" font-family="Helvetica,sans-Serif" font-size="10.00">memory</text>
</a>
</g>
</g>
<!-- Node3&#45;&gt;Node13 -->
<g id="edge67" class="edge">
<title>Node3&#45;&gt;Node13</title>
<path fill="none" stroke="#63b8ff" d="M1588.47,-226.77C1456.72,-219.94 978.39,-192.12 576.95,-129.05"/>
<polygon fill="#63b8ff" stroke="#63b8ff" points="577.31,-125.56 566.89,-127.46 576.22,-132.47 577.31,-125.56"/>
</g>
<!-- Node14 -->
<g id="node14" class="node">
<title>Node14</title>
<g id="a_node14"><a xlink:title=" ">
<polygon fill="#e0e0e0" stroke="#999999" points="490,-129 421,-129 421,-110 490,-110 490,-129"/>
<text text-anchor="middle" x="455.5" y="-117" font-family="Helvetica,sans-Serif" font-size="10.00">type_traits</text>
</a>
</g>
</g>
<!-- Node3&#45;&gt;Node14 -->
<g id="edge69" class="edge">
<title>Node3&#45;&gt;Node14</title>
<path fill="none" stroke="#63b8ff" d="M1588.21,-228.16C1401.07,-226.2 531.42,-215.46 484.5,-184 469.58,-174 462.22,-154.29 458.66,-139.47"/>
<polygon fill="#63b8ff" stroke="#63b8ff" points="462.02,-138.44 456.62,-129.33 455.16,-139.82 462.02,-138.44"/>
</g>
<!-- Node15 -->
<g id="node15" class="node">
<title>Node15</title>
<g id="a_node15"><a xlink:href="CellIterators_8h.html" target="_top" xlink:title="Declares the various iterators useful with the Cell class.">
<polygon fill="white" stroke="#666666" points="579.5,-184 493.5,-184 493.5,-165 579.5,-165 579.5,-184"/>
<text text-anchor="middle" x="536.5" y="-172" font-family="Helvetica,sans-Serif" font-size="10.00">CellIterators.h</text>
</a>
</g>
</g>
<!-- Node3&#45;&gt;Node15 -->
<g id="edge14" class="edge">
<title>Node3&#45;&gt;Node15</title>
<path fill="none" stroke="#63b8ff" d="M1588.26,-226.78C1429.55,-219.04 780.63,-187.4 589.63,-178.09"/>
<polygon fill="#63b8ff" stroke="#63b8ff" points="589.71,-174.59 579.56,-177.6 589.37,-181.58 589.71,-174.59"/>
</g>
<!-- Node16 -->
<g id="node16" class="node">
<title>Node16</title>
<g id="a_node16"><a xlink:href="Configuration_8h_source.html" target="_top" xlink:title=" ">
<polygon fill="white" stroke="#666666" points="1267,-184 1176,-184 1176,-165 1267,-165 1267,-184"/>
<text text-anchor="middle" x="1221.5" y="-172" font-family="Helvetica,sans-Serif" font-size="10.00">Configuration.h</text>
</a>
</g>
</g>
<!-- Node3&#45;&gt;Node16 -->
<g id="edge18" class="edge">
<title>Node3&#45;&gt;Node16</title>
<path fill="none" stroke="#63b8ff" d="M1588.18,-223.84C1518.2,-214.62 1361.44,-193.95 1277.34,-182.86"/>
<polygon fill="#63b8ff" stroke="#63b8ff" points="1277.58,-179.36 1267.21,-181.53 1276.67,-186.3 1277.58,-179.36"/>
</g>
<!-- Node24 -->
<g id="node23" class="node">
<title>Node24</title>
<g id="a_node23"><a xlink:href="TextStyle_8h.html" target="_top" xlink:title="This file declares everything needed for the text style system used to style all the elements on the ...">
<polygon fill="#fff0f0" stroke="red" points="1747.5,-129 1651.5,-129 1651.5,-110 1747.5,-110 1747.5,-129"/>
<text text-anchor="middle" x="1699.5" y="-117" font-family="Helvetica,sans-Serif" font-size="10.00">cells/TextStyle.h</text>
</a>
</g>
</g>
<!-- Node3&#45;&gt;Node24 -->
<g id="edge59" class="edge">
<title>Node3&#45;&gt;Node24</title>
<path fill="none" stroke="#63b8ff" d="M1629.72,-219.66C1642.36,-201.69 1671.25,-160.64 1687.62,-137.38"/>
<polygon fill="#63b8ff" stroke="#63b8ff" points="1690.51,-139.35 1693.41,-129.16 1684.79,-135.32 1690.51,-139.35"/>
</g>
<!-- Node26 -->
<g id="node25" class="node">
<title>Node26</title>
<g id="a_node25"><a xlink:title=" ">
<polygon fill="#e0e0e0" stroke="#999999" points="1899.5,-74 1861.5,-74 1861.5,-55 1899.5,-55 1899.5,-74"/>
<text text-anchor="middle" x="1880.5" y="-62" font-family="Helvetica,sans-Serif" font-size="10.00">map</text>
</a>
</g>
</g>
<!-- Node3&#45;&gt;Node26 -->
<g id="edge66" class="edge">
<title>Node3&#45;&gt;Node26</title>
<path fill="none" stroke="#63b8ff" d="M1652.12,-219.94C1708.64,-202.49 1831.64,-161.71 1860.5,-129 1871.37,-116.68 1876.34,-98.45 1878.6,-84.69"/>
<polygon fill="#63b8ff" stroke="#63b8ff" points="1882.12,-84.76 1879.94,-74.4 1875.18,-83.86 1882.12,-84.76"/>
</g>
<!-- Node37 -->
<g id="node32" class="node">
<title>Node37</title>
<g id="a_node32"><a xlink:title=" ">
<polygon fill="#e0e0e0" stroke="#999999" points="1865.5,-19 1801.5,-19 1801.5,0 1865.5,0 1865.5,-19"/>
<text text-anchor="middle" x="1833.5" y="-7" font-family="Helvetica,sans-Serif" font-size="10.00">algorithm</text>
</a>
</g>
</g>
<!-- Node3&#45;&gt;Node37 -->
<g id="edge65" class="edge">
<title>Node3&#45;&gt;Node37</title>
<path fill="none" stroke="#63b8ff" d="M1658.68,-220.8C1701.51,-211.18 1771.14,-194.7 1795.5,-184 1836.7,-165.91 1850.37,-162.42 1880.5,-129 1904.05,-102.88 1925.9,-85.56 1908.5,-55 1900.2,-40.43 1885.05,-30.14 1870.52,-23.15"/>
<polygon fill="#63b8ff" stroke="#63b8ff" points="1871.71,-19.85 1861.15,-19.02 1868.89,-26.25 1871.71,-19.85"/>
</g>
<!-- Node44 -->
<g id="node37" class="node">
<title>Node44</title>
<g id="a_node37"><a xlink:title=" ">
<polygon fill="#e0e0e0" stroke="#999999" points="1852,-129 1805,-129 1805,-110 1852,-110 1852,-129"/>
<text text-anchor="middle" x="1828.5" y="-117" font-family="Helvetica,sans-Serif" font-size="10.00">vector</text>
</a>
</g>
</g>
<!-- Node3&#45;&gt;Node44 -->
<g id="edge68" class="edge">
<title>Node3&#45;&gt;Node44</title>
<path fill="none" stroke="#63b8ff" d="M1639.93,-219.84C1675.7,-201 1760.84,-156.14 1803.39,-133.73"/>
<polygon fill="#63b8ff" stroke="#63b8ff" points="1805.06,-136.8 1812.28,-129.05 1801.8,-130.61 1805.06,-136.8"/>
</g>
<!-- Node47 -->
<g id="node40" class="node">
<title>Node47</title>
<g id="a_node40"><a xlink:href="StringUtils_8h_source.html" target="_top" xlink:title=" ">
<polygon fill="white" stroke="#666666" points="2033,-184 1956,-184 1956,-165 2033,-165 2033,-184"/>
<text text-anchor="middle" x="1994.5" y="-172" font-family="Helvetica,sans-Serif" font-size="10.00">StringUtils.h</text>
</a>
</g>
</g>
<!-- Node3&#45;&gt;Node47 -->
<g id="edge56" class="edge">
<title>Node3&#45;&gt;Node47</title>
<path fill="none" stroke="#63b8ff" d="M1658.53,-221.54C1661.56,-220.99 1664.58,-220.47 1667.5,-220 1788.74,-200.34 1819.96,-201.73 1941.5,-184 1942.8,-183.81 1944.11,-183.62 1945.44,-183.42"/>
<polygon fill="#63b8ff" stroke="#63b8ff" points="1946.37,-186.82 1955.73,-181.85 1945.32,-179.9 1946.37,-186.82"/>
</g>
<!-- Node50 -->
<g id="node43" class="node">
<title>Node50</title>
<g id="a_node43"><a xlink:href="CachedValue_8h.html" target="_top" xlink:title="Declares &quot;mostly read&#45;only&quot; wrappers around values that are expensive to compute and are thus cached.">
<polygon fill="#fff0f0" stroke="red" points="437,-184 348,-184 348,-165 437,-165 437,-184"/>
<text text-anchor="middle" x="392.5" y="-172" font-family="Helvetica,sans-Serif" font-size="10.00">CachedValue.h</text>
</a>
</g>
</g>
<!-- Node3&#45;&gt;Node50 -->
<g id="edge60" class="edge">
<title>Node3&#45;&gt;Node50</title>
<path fill="none" stroke="#63b8ff" d="M1588.42,-228.51C1446.24,-228.28 899.15,-224.63 451.5,-184 450.2,-183.88 448.88,-183.75 447.55,-183.62"/>
<polygon fill="#63b8ff" stroke="#63b8ff" points="447.55,-180.1 437.22,-182.45 446.76,-187.05 447.55,-180.1"/>
</g>
<!-- Node51 -->
<g id="node44" class="node">
<title>Node51</title>
<g id="a_node44"><a xlink:title=" ">
<polygon fill="#e0e0e0" stroke="#999999" points="2115.5,-184 2051.5,-184 2051.5,-165 2115.5,-165 2115.5,-184"/>
<text text-anchor="middle" x="2083.5" y="-172" font-family="Helvetica,sans-Serif" font-size="10.00">wx/defs.h</text>
</a>
</g>
</g>
<!-- Node3&#45;&gt;Node51 -->
<g id="edge64" class="edge">
<title>Node3&#45;&gt;Node51</title>
<path fill="none" stroke="#63b8ff" d="M1658.51,-221.42C1661.55,-220.91 1664.57,-220.42 1667.5,-220 1829.98,-196.56 1875.19,-208.54 2041.26,-184.02"/>
<polygon fill="#63b8ff" stroke="#63b8ff" points="2041.96,-187.46 2051.33,-182.51 2040.92,-180.53 2041.96,-187.46"/>
</g>
<!-- Node5 -->
<g id="node5" class="node">
<title>Node5</title>
<g id="a_node5"><a xlink:href="Version_8h_source.html" target="_top" xlink:title=" ">
<polygon fill="white" stroke="#666666" points="951.5,-19 889.5,-19 889.5,0 951.5,0 951.5,-19"/>
<text text-anchor="middle" x="920.5" y="-7" font-family="Helvetica,sans-Serif" font-size="10.00">Version.h</text>
</a>
</g>
</g>
<!-- Node4&#45;&gt;Node5 -->
<g id="edge4" class="edge">
<title>Node4&#45;&gt;Node5</title>
<path fill="none" stroke="#63b8ff" d="M920.5,-54.75C920.5,-47.8 920.5,-37.85 920.5,-29.13"/>
<polygon fill="#63b8ff" stroke="#63b8ff" points="924,-29.09 920.5,-19.09 917,-29.09 924,-29.09"/>
</g>
<!-- Node7 -->
<g id="node7" class="node">
<title>Node7</title>
<g id="a_node7"><a xlink:title=" ">
<polygon fill="#e0e0e0" stroke="#999999" points="364,-129 291,-129 291,-110 364,-110 364,-129"/>
<text text-anchor="middle" x="327.5" y="-117" font-family="Helvetica,sans-Serif" font-size="10.00">wx/debug.h</text>
</a>
</g>
</g>
<!-- Node6&#45;&gt;Node7 -->
<g id="edge6" class="edge">
<title>Node6&#45;&gt;Node7</title>
<path fill="none" stroke="#63b8ff" d="M262.87,-164.98C274.59,-156.92 292.42,-144.65 306.39,-135.03"/>
<polygon fill="#63b8ff" stroke="#63b8ff" points="308.65,-137.72 314.9,-129.17 304.68,-131.96 308.65,-137.72"/>
</g>
<!-- Node8 -->
<g id="node8" class="node">
<title>Node8</title>
<g id="a_node8"><a xlink:title=" ">
<polygon fill="#e0e0e0" stroke="#999999" points="421.5,-74 363.5,-74 363.5,-55 421.5,-55 421.5,-74"/>
<text text-anchor="middle" x="392.5" y="-62" font-family="Helvetica,sans-Serif" font-size="10.00">wx/log.h</text>
</a>
</g>
</g>
<!-- Node6&#45;&gt;Node8 -->
<g id="edge7" class="edge">
<title>Node6&#45;&gt;Node8</title>
<path fill="none" stroke="#63b8ff" d="M240.11,-164.67C226.23,-151.81 204.87,-127.55 218.5,-110 234.9,-88.88 307.44,-76.08 353.52,-69.94"/>
<polygon fill="#63b8ff" stroke="#63b8ff" points="354.02,-73.4 363.49,-68.66 353.13,-66.46 354.02,-73.4"/>
</g>
<!-- Node9 -->
<g id="node9" class="node">
<title>Node9</title>
<g id="a_node9"><a xlink:title=" ">
<polygon fill="#e0e0e0" stroke="#999999" points="273,-129 228,-129 228,-110 273,-110 273,-129"/>
<text text-anchor="middle" x="250.5" y="-117" font-family="Helvetica,sans-Serif" font-size="10.00">utility</text>
</a>
</g>
</g>
<!-- Node6&#45;&gt;Node9 -->
<g id="edge8" class="edge">
<title>Node6&#45;&gt;Node9</title>
<path fill="none" stroke="#63b8ff" d="M250.5,-164.75C250.5,-157.8 250.5,-147.85 250.5,-139.13"/>
<polygon fill="#63b8ff" stroke="#63b8ff" points="254,-139.09 250.5,-129.09 247,-139.09 254,-139.09"/>
</g>
<!-- Node10 -->
<g id="node10" class="node">
<title>Node10</title>
<g id="a_node10"><a xlink:title=" ">
<polygon fill="#e0e0e0" stroke="#999999" points="53,-129 0,-129 0,-110 53,-110 53,-129"/>
<text text-anchor="middle" x="26.5" y="-117" font-family="Helvetica,sans-Serif" font-size="10.00">cstddef</text>
</a>
</g>
</g>
<!-- Node6&#45;&gt;Node10 -->
<g id="edge9" class="edge">
<title>Node6&#45;&gt;Node10</title>
<path fill="none" stroke="#63b8ff" d="M221.67,-166.68C181.11,-157.08 107.21,-139.6 62.91,-129.11"/>
<polygon fill="#63b8ff" stroke="#63b8ff" points="63.66,-125.7 53.12,-126.8 62.05,-132.51 63.66,-125.7"/>
</g>
<!-- Node11 -->
<g id="node11" class="node">
<title>Node11</title>
<g id="a_node11"><a xlink:title=" ">
<polygon fill="#e0e0e0" stroke="#999999" points="1169.5,-19 1119.5,-19 1119.5,0 1169.5,0 1169.5,-19"/>
<text text-anchor="middle" x="1144.5" y="-7" font-family="Helvetica,sans-Serif" font-size="10.00">cstdint</text>
</a>
</g>
</g>
<!-- Node6&#45;&gt;Node11 -->
<g id="edge10" class="edge">
<title>Node6&#45;&gt;Node11</title>
<path fill="none" stroke="#63b8ff" d="M238.23,-164.94C222.1,-152.6 197.27,-129.21 210.5,-110 249.35,-53.57 287.5,-69.32 354.5,-55 391.81,-47.03 959.46,-19.37 1108.75,-12.21"/>
<polygon fill="#63b8ff" stroke="#63b8ff" points="1109.34,-15.68 1119.16,-11.71 1109,-8.69 1109.34,-15.68"/>
</g>
<!-- Node12 -->
<g id="node12" class="node">
<title>Node12</title>
<g id="a_node12"><a xlink:title=" ">
<polygon fill="#e0e0e0" stroke="#999999" points="133.5,-129 71.5,-129 71.5,-110 133.5,-110 133.5,-129"/>
<text text-anchor="middle" x="102.5" y="-117" font-family="Helvetica,sans-Serif" font-size="10.00">cinttypes</text>
</a>
</g>
</g>
<!-- Node6&#45;&gt;Node12 -->
<g id="edge11" class="edge">
<title>Node6&#45;&gt;Node12</title>
<path fill="none" stroke="#63b8ff" d="M226.72,-164.98C202.27,-156.23 163.97,-142.51 136.35,-132.62"/>
<polygon fill="#63b8ff" stroke="#63b8ff" points="137.31,-129.25 126.71,-129.17 134.95,-135.84 137.31,-129.25"/>
</g>
<!-- Node6&#45;&gt;Node13 -->
<g id="edge12" class="edge">
<title>Node6&#45;&gt;Node13</title>
<path fill="none" stroke="#63b8ff" d="M279.21,-168.7C323.75,-161.19 412.44,-145.91 498.23,-128.99"/>
<polygon fill="#63b8ff" stroke="#63b8ff" points="499.01,-132.4 508.14,-127.02 497.65,-125.53 499.01,-132.4"/>
</g>
<!-- Node6&#45;&gt;Node14 -->
<g id="edge13" class="edge">
<title>Node6&#45;&gt;Node14</title>
<path fill="none" stroke="#63b8ff" d="M279,-166.13C313.69,-157.16 372.58,-141.94 412.72,-131.56"/>
<polygon fill="#63b8ff" stroke="#63b8ff" points="413.69,-134.93 422.49,-129.03 411.93,-128.15 413.69,-134.93"/>
</g>
<!-- Node15&#45;&gt;Node7 -->
<g id="edge15" class="edge">
<title>Node15&#45;&gt;Node7</title>
<path fill="none" stroke="#63b8ff" d="M502.92,-164.98C467.15,-155.91 410.38,-141.52 371.16,-131.57"/>
<polygon fill="#63b8ff" stroke="#63b8ff" points="371.9,-128.15 361.34,-129.08 370.18,-134.93 371.9,-128.15"/>
</g>
<!-- Node15&#45;&gt;Node13 -->
<g id="edge16" class="edge">
<title>Node15&#45;&gt;Node13</title>
<path fill="none" stroke="#63b8ff" d="M536.67,-164.75C536.8,-157.8 536.98,-147.85 537.15,-139.13"/>
<polygon fill="#63b8ff" stroke="#63b8ff" points="540.65,-139.15 537.34,-129.09 533.65,-139.02 540.65,-139.15"/>
</g>
<!-- Node15&#45;&gt;Node14 -->
<g id="edge17" class="edge">
<title>Node15&#45;&gt;Node14</title>
<path fill="none" stroke="#63b8ff" d="M523.49,-164.98C511.04,-156.84 492.04,-144.41 477.29,-134.76"/>
<polygon fill="#63b8ff" stroke="#63b8ff" points="479.04,-131.72 468.75,-129.17 475.2,-137.57 479.04,-131.72"/>
</g>
<!-- Node16&#45;&gt;Node4 -->
<g id="edge19" class="edge">
<title>Node16&#45;&gt;Node4</title>
<path fill="none" stroke="#63b8ff" d="M1209.94,-164.97C1188.7,-149.44 1144.03,-117.43 1126.5,-110 1112.15,-103.92 1025.64,-86.22 969.39,-75.06"/>
<polygon fill="#63b8ff" stroke="#63b8ff" points="969.75,-71.56 959.26,-73.06 968.39,-78.43 969.75,-71.56"/>
</g>
<!-- Node16&#45;&gt;Node11 -->
<g id="edge46" class="edge">
<title>Node16&#45;&gt;Node11</title>
<path fill="none" stroke="#63b8ff" d="M1175.85,-171.95C1073.51,-168.02 832.71,-155.96 808.5,-129 721.18,-31.77 1006.84,-14.31 1109.32,-11.18"/>
<polygon fill="#63b8ff" stroke="#63b8ff" points="1109.59,-14.68 1119.49,-10.9 1109.39,-7.68 1109.59,-14.68"/>
</g>
<!-- Node16&#45;&gt;Node13 -->
<g id="edge47" class="edge">
<title>Node16&#45;&gt;Node13</title>
<path fill="none" stroke="#63b8ff" d="M1175.82,-172.72C1071.37,-170.44 807,-161.78 577.11,-129.01"/>
<polygon fill="#63b8ff" stroke="#63b8ff" points="577.27,-125.5 566.88,-127.53 576.27,-132.43 577.27,-125.5"/>
</g>
<!-- Node17 -->
<g id="node17" class="node">
<title>Node17</title>
<g id="a_node17"><a xlink:title=" ">
<polygon fill="#e0e0e0" stroke="#999999" points="875,-129 818,-129 818,-110 875,-110 875,-129"/>
<text text-anchor="middle" x="846.5" y="-117" font-family="Helvetica,sans-Serif" font-size="10.00">wx/wx.h</text>
</a>
</g>
</g>
<!-- Node16&#45;&gt;Node17 -->
<g id="edge20" class="edge">
<title>Node16&#45;&gt;Node17</title>
<path fill="none" stroke="#63b8ff" d="M1175.99,-168.3C1111.9,-160.78 991.48,-145.9 889.5,-129 888.05,-128.76 886.56,-128.51 885.07,-128.24"/>
<polygon fill="#63b8ff" stroke="#63b8ff" points="885.6,-124.78 875.14,-126.42 884.34,-131.67 885.6,-124.78"/>
</g>
<!-- Node18 -->
<g id="node18" class="node">
<title>Node18</title>
<g id="a_node18"><a xlink:title=" ">
<polygon fill="#e0e0e0" stroke="#999999" points="1049.5,-74 977.5,-74 977.5,-55 1049.5,-55 1049.5,-74"/>
<text text-anchor="middle" x="1013.5" y="-62" font-family="Helvetica,sans-Serif" font-size="10.00">wx/config.h</text>
</a>
</g>
</g>
<!-- Node16&#45;&gt;Node18 -->
<g id="edge21" class="edge">
<title>Node16&#45;&gt;Node18</title>
<path fill="none" stroke="#63b8ff" d="M1175.94,-173.65C1100.48,-172.83 954.67,-166.31 922.5,-129 903.29,-106.72 939.38,-88.43 971.63,-77.29"/>
<polygon fill="#63b8ff" stroke="#63b8ff" points="973.04,-80.51 981.45,-74.07 970.85,-73.86 973.04,-80.51"/>
</g>
<!-- Node19 -->
<g id="node19" class="node">
<title>Node19</title>
<g id="a_node19"><a xlink:title=" ">
<polygon fill="#e0e0e0" stroke="#999999" points="1009,-129 932,-129 932,-110 1009,-110 1009,-129"/>
<text text-anchor="middle" x="970.5" y="-117" font-family="Helvetica,sans-Serif" font-size="10.00">wx/display.h</text>
</a>
</g>
</g>
<!-- Node16&#45;&gt;Node19 -->
<g id="edge22" class="edge">
<title>Node16&#45;&gt;Node19</title>
<path fill="none" stroke="#63b8ff" d="M1181.17,-164.98C1137.02,-155.66 1066.23,-140.71 1019.06,-130.75"/>
<polygon fill="#63b8ff" stroke="#63b8ff" points="1019.59,-127.29 1009.08,-128.65 1018.14,-134.14 1019.59,-127.29"/>
</g>
<!-- Node20 -->
<g id="node20" class="node">
<title>Node20</title>
<g id="a_node20"><a xlink:title=" ">
<polygon fill="#e0e0e0" stroke="#999999" points="1117.5,-129 1027.5,-129 1027.5,-110 1117.5,-110 1117.5,-129"/>
<text text-anchor="middle" x="1072.5" y="-117" font-family="Helvetica,sans-Serif" font-size="10.00">wx/fontenum.h</text>
</a>
</g>
</g>
<!-- Node16&#45;&gt;Node20 -->
<g id="edge23" class="edge">
<title>Node16&#45;&gt;Node20</title>
<path fill="none" stroke="#63b8ff" d="M1197.56,-164.98C1172.94,-156.23 1134.38,-142.51 1106.58,-132.62"/>
<polygon fill="#63b8ff" stroke="#63b8ff" points="1107.47,-129.22 1096.88,-129.17 1105.12,-135.82 1107.47,-129.22"/>
</g>
<!-- Node21 -->
<g id="node21" class="node">
<title>Node21</title>
<g id="a_node21"><a xlink:title=" ">
<polygon fill="#e0e0e0" stroke="#999999" points="1155.5,-74 1067.5,-74 1067.5,-55 1155.5,-55 1155.5,-74"/>
<text text-anchor="middle" x="1111.5" y="-62" font-family="Helvetica,sans-Serif" font-size="10.00">wx/hashmap.h</text>
</a>
</g>
</g>
<!-- Node16&#45;&gt;Node21 -->
<g id="edge24" class="edge">
<title>Node16&#45;&gt;Node21</title>
<path fill="none" stroke="#63b8ff" d="M1213.21,-164.74C1201.44,-152.36 1179.14,-129.14 1159.5,-110 1149.43,-100.19 1137.88,-89.46 1128.63,-81"/>
<polygon fill="#63b8ff" stroke="#63b8ff" points="1130.94,-78.37 1121.19,-74.23 1126.23,-83.55 1130.94,-78.37"/>
</g>
<!-- Node22 -->
<g id="node22" class="node">
<title>Node22</title>
<g id="a_node22"><a xlink:href="LoggingMessageDialog_8h.html" target="_top" xlink:title="This file declares a message dialog that sends its contents to the log message sink.">
<polygon fill="#fff0f0" stroke="red" points="762,-129 585,-129 585,-110 762,-110 762,-129"/>
<text text-anchor="middle" x="673.5" y="-117" font-family="Helvetica,sans-Serif" font-size="10.00">dialogs/LoggingMessageDialog.h</text>
</a>
</g>
</g>
<!-- Node16&#45;&gt;Node22 -->
<g id="edge25" class="edge">
<title>Node16&#45;&gt;Node22</title>
<path fill="none" stroke="#63b8ff" d="M1175.72,-169.07C1087.24,-160.51 890.97,-141.53 771.68,-130"/>
<polygon fill="#63b8ff" stroke="#63b8ff" points="771.74,-126.48 761.45,-129.01 771.06,-133.45 771.74,-126.48"/>
</g>
<!-- Node16&#45;&gt;Node24 -->
<g id="edge28" class="edge">
<title>Node16&#45;&gt;Node24</title>
<path fill="none" stroke="#63b8ff" d="M1267.33,-168.42C1354.7,-158.73 1544.92,-137.64 1641.19,-126.97"/>
<polygon fill="#63b8ff" stroke="#63b8ff" points="1641.78,-130.42 1651.33,-125.84 1641,-123.46 1641.78,-130.42"/>
</g>
<!-- Node16&#45;&gt;Node37 -->
<g id="edge53" class="edge">
<title>Node16&#45;&gt;Node37</title>
<path fill="none" stroke="#63b8ff" d="M1267.34,-171.95C1389.21,-167.51 1714.8,-153.48 1756.5,-129 1794.99,-106.4 1817.66,-56.07 1827.56,-28.84"/>
<polygon fill="#63b8ff" stroke="#63b8ff" points="1830.99,-29.63 1830.93,-19.04 1824.37,-27.36 1830.99,-29.63"/>
</g>
<!-- Node41 -->
<g id="node33" class="node">
<title>Node41</title>
<g id="a_node33"><a xlink:title=" ">
<polygon fill="#e0e0e0" stroke="#999999" points="1266,-74 1173,-74 1173,-55 1266,-55 1266,-74"/>
<text text-anchor="middle" x="1219.5" y="-62" font-family="Helvetica,sans-Serif" font-size="10.00">unordered_map</text>
</a>
</g>
</g>
<!-- Node16&#45;&gt;Node41 -->
<g id="edge49" class="edge">
<title>Node16&#45;&gt;Node41</title>
<path fill="none" stroke="#63b8ff" d="M1221.34,-164.66C1221.01,-147.17 1220.28,-107.8 1219.85,-84.27"/>
<polygon fill="#63b8ff" stroke="#63b8ff" points="1223.34,-84.09 1219.66,-74.16 1216.35,-84.22 1223.34,-84.09"/>
</g>
<!-- Node42 -->
<g id="node34" class="node">
<title>Node42</title>
<g id="a_node34"><a xlink:title=" ">
<polygon fill="#e0e0e0" stroke="#999999" points="1297.5,-129 1249.5,-129 1249.5,-110 1297.5,-110 1297.5,-129"/>
<text text-anchor="middle" x="1273.5" y="-117" font-family="Helvetica,sans-Serif" font-size="10.00">mutex</text>
</a>
</g>
</g>
<!-- Node16&#45;&gt;Node42 -->
<g id="edge48" class="edge">
<title>Node16&#45;&gt;Node42</title>
<path fill="none" stroke="#63b8ff" d="M1230.09,-164.75C1237.66,-157.03 1248.88,-145.6 1258.01,-136.28"/>
<polygon fill="#63b8ff" stroke="#63b8ff" points="1260.57,-138.68 1265.07,-129.09 1255.57,-133.78 1260.57,-138.68"/>
</g>
<!-- Node43 -->
<g id="node35" class="node">
<title>Node43</title>
<g id="a_node35"><a xlink:title=" ">
<polygon fill="#e0e0e0" stroke="#999999" points="1369.5,-129 1315.5,-129 1315.5,-110 1369.5,-110 1369.5,-129"/>
<text text-anchor="middle" x="1342.5" y="-117" font-family="Helvetica,sans-Serif" font-size="10.00">random</text>
</a>
</g>
</g>
<!-- Node16&#45;&gt;Node43 -->
<g id="edge50" class="edge">
<title>Node16&#45;&gt;Node43</title>
<path fill="none" stroke="#63b8ff" d="M1240.94,-164.98C1260.49,-156.42 1290.88,-143.11 1313.32,-133.28"/>
<polygon fill="#63b8ff" stroke="#63b8ff" points="1314.95,-136.39 1322.71,-129.17 1312.14,-129.98 1314.95,-136.39"/>
</g>
<!-- Node40 -->
<g id="node36" class="node">
<title>Node40</title>
<g id="a_node36"><a xlink:title=" ">
<polygon fill="#e0e0e0" stroke="#999999" points="1419.5,-129 1387.5,-129 1387.5,-110 1419.5,-110 1419.5,-129"/>
<text text-anchor="middle" x="1403.5" y="-117" font-family="Helvetica,sans-Serif" font-size="10.00">list</text>
</a>
</g>
</g>
<!-- Node16&#45;&gt;Node40 -->
<g id="edge51" class="edge">
<title>Node16&#45;&gt;Node40</title>
<path fill="none" stroke="#63b8ff" d="M1253.52,-164.95C1283.36,-156.86 1329.3,-144.12 1377.69,-129.13"/>
<polygon fill="#63b8ff" stroke="#63b8ff" points="1378.9,-132.43 1387.4,-126.11 1376.81,-125.74 1378.9,-132.43"/>
</g>
<!-- Node16&#45;&gt;Node44 -->
<g id="edge52" class="edge">
<title>Node16&#45;&gt;Node44</title>
<path fill="none" stroke="#63b8ff" d="M1267.11,-172.13C1363.98,-168.74 1597.22,-158.02 1790.5,-129 1791.96,-128.78 1793.45,-128.54 1794.95,-128.27"/>
<polygon fill="#63b8ff" stroke="#63b8ff" points="1795.74,-131.69 1804.88,-126.33 1794.39,-124.82 1795.74,-131.69"/>
</g>
<!-- Node45 -->
<g id="node38" class="node">
<title>Node45</title>
<g id="a_node38"><a xlink:title=" ">
<polygon fill="#e0e0e0" stroke="#999999" points="1487.5,-129 1437.5,-129 1437.5,-110 1487.5,-110 1487.5,-129"/>
<text text-anchor="middle" x="1462.5" y="-117" font-family="Helvetica,sans-Serif" font-size="10.00">atomic</text>
</a>
</g>
</g>
<!-- Node16&#45;&gt;Node45 -->
<g id="edge54" class="edge">
<title>Node16&#45;&gt;Node45</title>
<path fill="none" stroke="#63b8ff" d="M1263.22,-164.96C1302.97,-156.72 1364.72,-143.68 1427.24,-129.24"/>
<polygon fill="#63b8ff" stroke="#63b8ff" points="1428.32,-132.58 1437.27,-126.91 1426.74,-125.76 1428.32,-132.58"/>
</g>
<!-- Node46 -->
<g id="node39" class="node">
<title>Node46</title>
<g id="a_node39"><a xlink:title=" ">
<polygon fill="#e0e0e0" stroke="#999999" points="1595,-129 1506,-129 1506,-110 1595,-110 1595,-129"/>
<text text-anchor="middle" x="1550.5" y="-117" font-family="Helvetica,sans-Serif" font-size="10.00">wx/wupdlock.h</text>
</a>
</g>
</g>
<!-- Node16&#45;&gt;Node46 -->
<g id="edge55" class="edge">
<title>Node16&#45;&gt;Node46</title>
<path fill="none" stroke="#63b8ff" d="M1267.25,-166.13C1327.16,-156.48 1432.08,-139.58 1496.03,-129.27"/>
<polygon fill="#63b8ff" stroke="#63b8ff" points="1496.62,-132.73 1505.93,-127.68 1495.5,-125.81 1496.62,-132.73"/>
</g>
<!-- Node22&#45;&gt;Node4 -->
<g id="edge26" class="edge">
<title>Node22&#45;&gt;Node4</title>
<path fill="none" stroke="#63b8ff" d="M713.18,-109.98C756.38,-100.72 825.48,-85.89 871.9,-75.93"/>
<polygon fill="#63b8ff" stroke="#63b8ff" points="872.68,-79.34 881.73,-73.82 871.22,-72.5 872.68,-79.34"/>
</g>
<!-- Node22&#45;&gt;Node8 -->
<g id="edge27" class="edge">
<title>Node22&#45;&gt;Node8</title>
<path fill="none" stroke="#63b8ff" d="M628.35,-109.98C573.92,-99.72 483.35,-82.64 431.72,-72.9"/>
<polygon fill="#63b8ff" stroke="#63b8ff" points="432.1,-69.41 421.63,-70.99 430.8,-76.29 432.1,-69.41"/>
</g>
<!-- Node24&#45;&gt;Node4 -->
<g id="edge29" class="edge">
<title>Node24&#45;&gt;Node4</title>
<path fill="none" stroke="#63b8ff" d="M1651.48,-111.52C1646.76,-110.95 1642.04,-110.43 1637.5,-110 1344.41,-82.07 1266.07,-107.44 969.41,-73.94"/>
<polygon fill="#63b8ff" stroke="#63b8ff" points="969.55,-70.43 959.21,-72.77 968.75,-77.38 969.55,-70.43"/>
</g>
<!-- Node24&#45;&gt;Node11 -->
<g id="edge38" class="edge">
<title>Node24&#45;&gt;Node11</title>
<path fill="none" stroke="#63b8ff" d="M1651.45,-111.84C1646.73,-111.21 1642.03,-110.59 1637.5,-110 1506.95,-93.06 1472.1,-102.13 1343.5,-74 1311.75,-67.05 1226.9,-38.7 1178.87,-22.33"/>
<polygon fill="#63b8ff" stroke="#63b8ff" points="1179.81,-18.95 1169.22,-19.03 1177.55,-25.57 1179.81,-18.95"/>
</g>
<!-- Node24&#45;&gt;Node18 -->
<g id="edge35" class="edge">
<title>Node24&#45;&gt;Node18</title>
<path fill="none" stroke="#63b8ff" d="M1651.48,-111.56C1646.76,-110.98 1642.04,-110.45 1637.5,-110 1384.19,-84.8 1316.06,-105.45 1059.77,-74"/>
<polygon fill="#63b8ff" stroke="#63b8ff" points="1060.14,-70.52 1049.79,-72.76 1059.28,-77.46 1060.14,-70.52"/>
</g>
<!-- Node24&#45;&gt;Node21 -->
<g id="edge32" class="edge">
<title>Node24&#45;&gt;Node21</title>
<path fill="none" stroke="#63b8ff" d="M1651.47,-111.62C1646.75,-111.04 1642.04,-110.48 1637.5,-110 1430.7,-87.99 1375.01,-98.72 1165.8,-74.19"/>
<polygon fill="#63b8ff" stroke="#63b8ff" points="1166.06,-70.7 1155.72,-72.99 1165.24,-77.65 1166.06,-70.7"/>
</g>
<!-- Node25 -->
<g id="node24" class="node">
<title>Node25</title>
<g id="a_node24"><a xlink:title=" ">
<polygon fill="#e0e0e0" stroke="#999999" points="1705.5,-74 1633.5,-74 1633.5,-55 1705.5,-55 1705.5,-74"/>
<text text-anchor="middle" x="1669.5" y="-62" font-family="Helvetica,sans-Serif" font-size="10.00">wx/colour.h</text>
</a>
</g>
</g>
<!-- Node24&#45;&gt;Node25 -->
<g id="edge30" class="edge">
<title>Node24&#45;&gt;Node25</title>
<path fill="none" stroke="#63b8ff" d="M1694.55,-109.75C1690.44,-102.49 1684.47,-91.95 1679.4,-82.98"/>
<polygon fill="#63b8ff" stroke="#63b8ff" points="1682.33,-81.07 1674.36,-74.09 1676.24,-84.52 1682.33,-81.07"/>
</g>
<!-- Node24&#45;&gt;Node26 -->
<g id="edge31" class="edge">
<title>Node24&#45;&gt;Node26</title>
<path fill="none" stroke="#63b8ff" d="M1728.58,-109.98C1762.45,-100.07 1818.05,-83.79 1851.77,-73.91"/>
<polygon fill="#63b8ff" stroke="#63b8ff" points="1852.87,-77.24 1861.49,-71.07 1850.9,-70.52 1852.87,-77.24"/>
</g>
<!-- Node27 -->
<g id="node26" class="node">
<title>Node27</title>
<g id="a_node26"><a xlink:title=" ">
<polygon fill="#e0e0e0" stroke="#999999" points="1767.5,-74 1723.5,-74 1723.5,-55 1767.5,-55 1767.5,-74"/>
<text text-anchor="middle" x="1745.5" y="-62" font-family="Helvetica,sans-Serif" font-size="10.00">string</text>
</a>
</g>
</g>
<!-- Node24&#45;&gt;Node27 -->
<g id="edge33" class="edge">
<title>Node24&#45;&gt;Node27</title>
<path fill="none" stroke="#63b8ff" d="M1707.1,-109.75C1713.66,-102.18 1723.32,-91.05 1731.31,-81.84"/>
<polygon fill="#63b8ff" stroke="#63b8ff" points="1734.13,-83.94 1738.05,-74.09 1728.85,-79.35 1734.13,-83.94"/>
</g>
<!-- Node28 -->
<g id="node27" class="node">
<title>Node28</title>
<g id="a_node27"><a xlink:title=" ">
<polygon fill="#e0e0e0" stroke="#999999" points="1418,-74 1361,-74 1361,-55 1418,-55 1418,-74"/>
<text text-anchor="middle" x="1389.5" y="-62" font-family="Helvetica,sans-Serif" font-size="10.00">ostream</text>
</a>
</g>
</g>
<!-- Node24&#45;&gt;Node28 -->
<g id="edge34" class="edge">
<title>Node24&#45;&gt;Node28</title>
<path fill="none" stroke="#63b8ff" d="M1651.5,-111.63C1598.92,-103.89 1511.91,-90.46 1428.08,-74.21"/>
<polygon fill="#63b8ff" stroke="#63b8ff" points="1428.63,-70.76 1418.14,-72.27 1427.29,-77.63 1428.63,-70.76"/>
</g>
<!-- Node29 -->
<g id="node28" class="node">
<title>Node29</title>
<g id="a_node28"><a xlink:title=" ">
<polygon fill="#e0e0e0" stroke="#999999" points="1435.5,-19 1373.5,-19 1373.5,0 1435.5,0 1435.5,-19"/>
<text text-anchor="middle" x="1404.5" y="-7" font-family="Helvetica,sans-Serif" font-size="10.00">wx/font.h</text>
</a>
</g>
</g>
<!-- Node24&#45;&gt;Node29 -->
<g id="edge36" class="edge">
<title>Node24&#45;&gt;Node29</title>
<path fill="none" stroke="#63b8ff" d="M1651.44,-111.86C1646.73,-111.22 1642.02,-110.59 1637.5,-110 1573.99,-101.65 1393.87,-122.04 1351.5,-74 1336.69,-57.21 1359.58,-37.31 1379.74,-24.33"/>
<polygon fill="#63b8ff" stroke="#63b8ff" points="1381.68,-27.25 1388.39,-19.05 1378.03,-21.27 1381.68,-27.25"/>
</g>
<!-- Node30 -->
<g id="node29" class="node">
<title>Node30</title>
<g id="a_node29"><a xlink:title=" ">
<polygon fill="#e0e0e0" stroke="#999999" points="1615.5,-74 1533.5,-74 1533.5,-55 1615.5,-55 1615.5,-74"/>
<text text-anchor="middle" x="1574.5" y="-62" font-family="Helvetica,sans-Serif" font-size="10.00">wx/settings.h</text>
</a>
</g>
</g>
<!-- Node24&#45;&gt;Node30 -->
<g id="edge37" class="edge">
<title>Node24&#45;&gt;Node30</title>
<path fill="none" stroke="#63b8ff" d="M1679.42,-109.98C1659.13,-101.38 1627.54,-87.99 1604.33,-78.15"/>
<polygon fill="#63b8ff" stroke="#63b8ff" points="1605.52,-74.85 1594.95,-74.17 1602.79,-81.3 1605.52,-74.85"/>
</g>
<!-- Node31 -->
<g id="node30" class="node">
<title>Node31</title>
<g id="a_node30"><a xlink:title=" ">
<polygon fill="#e0e0e0" stroke="#999999" points="1687,-19 1622,-19 1622,0 1687,0 1687,-19"/>
<text text-anchor="middle" x="1654.5" y="-7" font-family="Helvetica,sans-Serif" font-size="10.00">functional</text>
</a>
</g>
</g>
<!-- Node24&#45;&gt;Node31 -->
<g id="edge39" class="edge">
<title>Node24&#45;&gt;Node31</title>
<path fill="none" stroke="#63b8ff" d="M1725.45,-109.99C1753.89,-99.22 1793.39,-79.14 1776.5,-55 1758.74,-29.61 1724.88,-18.66 1697.33,-13.96"/>
<polygon fill="#63b8ff" stroke="#63b8ff" points="1697.54,-10.45 1687.13,-12.44 1696.51,-17.37 1697.54,-10.45"/>
</g>
<!-- Node32 -->
<g id="node31" class="node">
<title>Node32</title>
<g id="a_node31"><a xlink:href="FontAttribs_8h_source.html" target="_top" xlink:title=" ">
<polygon fill="#fff0f0" stroke="red" points="1515,-74 1436,-74 1436,-55 1515,-55 1515,-74"/>
<text text-anchor="middle" x="1475.5" y="-62" font-family="Helvetica,sans-Serif" font-size="10.00">FontAttribs.h</text>
</a>
</g>
</g>
<!-- Node24&#45;&gt;Node32 -->
<g id="edge40" class="edge">
<title>Node24&#45;&gt;Node32</title>
<path fill="none" stroke="#63b8ff" d="M1663.51,-109.98C1625.01,-100.87 1563.81,-86.4 1521.76,-76.45"/>
<polygon fill="#63b8ff" stroke="#63b8ff" points="1522.31,-72.98 1511.77,-74.08 1520.7,-79.79 1522.31,-72.98"/>
</g>
<!-- Node24&#45;&gt;Node41 -->
<g id="edge45" class="edge">
<title>Node24&#45;&gt;Node41</title>
<path fill="none" stroke="#63b8ff" d="M1651.46,-111.74C1646.74,-111.13 1642.03,-110.54 1637.5,-110 1479.14,-91.17 1438.83,-93.01 1280.5,-74 1279.04,-73.82 1277.56,-73.64 1276.07,-73.46"/>
<polygon fill="#63b8ff" stroke="#63b8ff" points="1276.47,-69.98 1266.1,-72.18 1275.58,-76.92 1276.47,-69.98"/>
</g>
<!-- Node32&#45;&gt;Node11 -->
<g id="edge43" class="edge">
<title>Node32&#45;&gt;Node11</title>
<path fill="none" stroke="#63b8ff" d="M1435.93,-56.58C1432.74,-56.04 1429.57,-55.51 1426.5,-55 1337.8,-40.31 1233.2,-24.09 1179.78,-15.89"/>
<polygon fill="#63b8ff" stroke="#63b8ff" points="1180.21,-12.42 1169.8,-14.36 1179.15,-19.34 1180.21,-12.42"/>
</g>
<!-- Node32&#45;&gt;Node29 -->
<g id="edge41" class="edge">
<title>Node32&#45;&gt;Node29</title>
<path fill="none" stroke="#63b8ff" d="M1464.09,-54.98C1453.39,-47 1437.16,-34.88 1424.34,-25.31"/>
<polygon fill="#63b8ff" stroke="#63b8ff" points="1426.22,-22.35 1416.11,-19.17 1422.03,-27.96 1426.22,-22.35"/>
</g>
<!-- Node32&#45;&gt;Node31 -->
<g id="edge44" class="edge">
<title>Node32&#45;&gt;Node31</title>
<path fill="none" stroke="#63b8ff" d="M1504.26,-54.98C1534.44,-46.05 1582.07,-31.94 1615.6,-22.02"/>
<polygon fill="#63b8ff" stroke="#63b8ff" points="1616.92,-25.28 1625.52,-19.08 1614.93,-18.57 1616.92,-25.28"/>
</g>
<!-- Node32&#45;&gt;Node37 -->
<g id="edge42" class="edge">
<title>Node32&#45;&gt;Node37</title>
<path fill="none" stroke="#63b8ff" d="M1515.06,-56.54C1518.25,-56.01 1521.43,-55.49 1524.5,-55 1619.69,-39.89 1731.73,-24.3 1791.28,-16.19"/>
<polygon fill="#63b8ff" stroke="#63b8ff" points="1791.99,-19.62 1801.43,-14.81 1791.05,-12.69 1791.99,-19.62"/>
</g>
<!-- Node48 -->
<g id="node41" class="node">
<title>Node48</title>
<g id="a_node41"><a xlink:title=" ">
<polygon fill="#e0e0e0" stroke="#999999" points="2028,-129 1957,-129 1957,-110 2028,-110 2028,-129"/>
<text text-anchor="middle" x="1992.5" y="-117" font-family="Helvetica,sans-Serif" font-size="10.00">wx/string.h</text>
</a>
</g>
</g>
<!-- Node47&#45;&gt;Node48 -->
<g id="edge57" class="edge">
<title>Node47&#45;&gt;Node48</title>
<path fill="none" stroke="#63b8ff" d="M1994.17,-164.75C1993.91,-157.8 1993.53,-147.85 1993.2,-139.13"/>
<polygon fill="#63b8ff" stroke="#63b8ff" points="1996.7,-138.95 1992.82,-129.09 1989.7,-139.21 1996.7,-138.95"/>
</g>
<!-- Node49 -->
<g id="node42" class="node">
<title>Node49</title>
<g id="a_node42"><a xlink:title=" ">
<polygon fill="#e0e0e0" stroke="#999999" points="2141,-129 2046,-129 2046,-110 2141,-110 2141,-129"/>
<text text-anchor="middle" x="2093.5" y="-117" font-family="Helvetica,sans-Serif" font-size="10.00">wx/translation.h</text>
</a>
</g>
</g>
<!-- Node47&#45;&gt;Node49 -->
<g id="edge58" class="edge">
<title>Node47&#45;&gt;Node49</title>
<path fill="none" stroke="#63b8ff" d="M2010.41,-164.98C2026.05,-156.61 2050.16,-143.7 2068.38,-133.95"/>
<polygon fill="#63b8ff" stroke="#63b8ff" points="2070.14,-136.98 2077.3,-129.17 2066.84,-130.8 2070.14,-136.98"/>
</g>
<!-- Node50&#45;&gt;Node7 -->
<g id="edge61" class="edge">
<title>Node50&#45;&gt;Node7</title>
<path fill="none" stroke="#63b8ff" d="M382.06,-164.98C372.35,-157.07 357.68,-145.11 346,-135.58"/>
<polygon fill="#63b8ff" stroke="#63b8ff" points="348.1,-132.78 338.13,-129.17 343.67,-138.2 348.1,-132.78"/>
</g>
<!-- Node50&#45;&gt;Node8 -->
<g id="edge62" class="edge">
<title>Node50&#45;&gt;Node8</title>
<path fill="none" stroke="#63b8ff" d="M392.5,-164.66C392.5,-147.17 392.5,-107.8 392.5,-84.27"/>
<polygon fill="#63b8ff" stroke="#63b8ff" points="396,-84.16 392.5,-74.16 389,-84.16 396,-84.16"/>
</g>
<!-- Node50&#45;&gt;Node14 -->
<g id="edge63" class="edge">
<title>Node50&#45;&gt;Node14</title>
<path fill="none" stroke="#63b8ff" d="M402.62,-164.98C411.94,-157.15 425.97,-145.34 437.24,-135.86"/>
<polygon fill="#63b8ff" stroke="#63b8ff" points="439.79,-138.29 445.19,-129.17 435.29,-132.93 439.79,-138.29"/>
</g>
</g>
</svg>
